<?xml version="1.0" encoding="UTF-8" standalone="no"?>
<!-- Created with Inkscape (http://www.inkscape.org/) -->

<svg
   xmlns:dc="http://purl.org/dc/elements/1.1/"
   xmlns:cc="http://creativecommons.org/ns#"
   xmlns:rdf="http://www.w3.org/1999/02/22-rdf-syntax-ns#"
   xmlns:svg="http://www.w3.org/2000/svg"
   xmlns="http://www.w3.org/2000/svg"
   xmlns:sodipodi="http://sodipodi.sourceforge.net/DTD/sodipodi-0.dtd"
   xmlns:inkscape="http://www.inkscape.org/namespaces/inkscape"
   width="3200"
   height="800"
   id="svg4562"
   version="1.1"
   inkscape:version="0.48.1 r9760"
   sodipodi:docname="New document 12">
  <defs
     id="defs4564" />
  <sodipodi:namedview
     id="base"
     pagecolor="#ffffff"
     bordercolor="#666666"
     borderopacity="1.0"
     inkscape:pageopacity="0.0"
     inkscape:pageshadow="2"
     inkscape:zoom="0.3959375"
     inkscape:cx="1600"
     inkscape:cy="400"
     inkscape:document-units="px"
     inkscape:current-layer="1-default"
     showgrid="false"
     inkscape:window-width="1676"
     inkscape:window-height="1006"
     inkscape:window-x="0"
     inkscape:window-y="0"
     inkscape:window-maximized="1" />
  <metadata
     id="metadata4567">
    <rdf:RDF>
      <cc:Work
         rdf:about="">
        <dc:format>image/svg+xml</dc:format>
        <dc:type
           rdf:resource="http://purl.org/dc/dcmitype/StillImage" />
        <dc:title></dc:title>
      </cc:Work>
    </rdf:RDF>
  </metadata>
  <g
     inkscape:label="1-default"
     inkscape:groupmode="layer"
     id="1-default">
    <path
       id="path2652"
       d="m 1578.3661,14.62997 c -2.3657,13.036149 5.5973,45.511185 -15.4063,23.130537 -3.0005,0 25.6774,49.318167 6.0587,31.379048 -2.3657,-15.747224 -10.7325,-15.1127 -17.6568,-10.6135 -23.658,-9.171472 5.8279,21.573098 -3.8084,25.264749 18.4647,0 12.2906,13.036149 -1.9042,6.345031 22.7347,30.859905 -29.1395,4.614567 -29.5433,12.574695 21.9268,9.3445 -14.5987,7.03722 4.5583,16.43938 30.7552,10.72887 -20.5419,12.92079 2.5965,20.82324 10.9635,3.74933 34.3906,-5.13371 26.6008,8.0755 14.6563,-1.32671 14.0215,10.03669 27.9855,0.92291 7.1551,31.89818 -62.8376,-10.03668 -50.72,9.57523 -14.5411,0.57682 -36.641,-21.86152 -47.3158,-4.03775 -31.5632,2.36496 7.6165,12.74773 15.8102,11.07497 -25.9082,20.82322 33.7557,-7.96013 7.3282,9.22912 4.5007,21.51541 48.4122,-15.68952 20.0805,9.45986 11.2516,13.38225 52.5088,-16.09331 54.8169,-9.28682 -14.8295,22.38065 -43.0459,22.72674 -64.1647,16.4394 14.0215,14.82429 -24.3503,-4.55689 -34.6213,6.86416 -14.1948,0.28844 1.9618,11.47874 0.5769,13.72833 16.0412,4.44154 42.0073,20.88093 9.0016,15.68953 -14.3101,-0.17295 7.7322,25.72622 -15.6374,10.67121 -11.8289,-6.51809 -5.4815,11.36335 -21.8113,3.46092 -14.8293,3.63395 23.5425,19.90031 32.3131,22.20758 17.0223,-0.34608 34.4484,28.78338 43.1613,20.93861 -21.9268,18.45828 -51.1818,1.49975 -75.5321,11.5941 -10.1555,7.7294 25.6198,23.47661 28.6781,24.91866 35.3712,15.57417 -43.8536,-1.21132 -38.7182,13.03614 21.7536,12.9785 41.1994,29.53324 63.9917,11.13267 7.6745,5.59514 -13.5601,3.86468 -4.6162,17.41998 -22.504,10.20972 -65.1457,11.82481 -77.898,23.8227 18.5225,17.93913 39.122,19.95799 62.3762,23.53429 12.1751,-4.44151 7.3858,-7.96014 17.9453,-5.24907 8.7132,4.7876 15.4641,-12.45932 25.3312,-0.80754 -10.5019,11.24799 -66.3574,9.45986 -30.813,22.84211 -29.3702,8.19085 -61.222,1.84582 -91.0538,8.30622 -17.4261,7.90246 20.4264,6.11429 -0.6927,15.97795 -9.1168,11.19032 34.5059,-0.57685 28.4473,12.22859 14.2524,-2.48034 21.119,3.46093 32.3711,0.57682 -0.8082,15.40112 16.3871,-5.19137 19.0414,8.59462 14.6562,-2.13421 36.5255,6.74882 11.4829,12.17094 -26.6584,6.80646 -52.682,4.03775 -76.917,4.78759 -15.7527,-5.30675 -37.2756,-1.26899 -9.1747,5.76822 22.6769,2.65338 -21.5806,4.44154 6.1164,10.15204 4.3277,13.20922 27.928,2.76875 37.1603,13.9014 20.8882,-10.20975 -6.8667,10.20972 14.137,5.36442 22.3885,4.15311 -36.6985,21.91919 -49.6238,12.86311 -13.1563,0.86522 -29.8322,0.51914 -38.5452,5.19136 23.4271,10.67121 -40.4491,-3.69162 -14.4253,9.28684 15.8681,0 18.8108,2.07656 9.2322,14.82431 7.3857,13.20919 55.8558,8.01779 28.1587,21.63077 -13.329,-0.92292 -32.544,6.92185 -7.2128,8.13319 19.9649,-5.47981 -17.3683,15.97792 6.8666,9.74826 7.0973,11.01729 19.4454,1.90352 23.5423,9.11376 16.7338,8.01783 -45.6424,3.28789 -52.7972,7.15258 24.2349,9.17146 -33.4673,10.09439 -4.3278,16.61245 9.8092,-2.48032 29.255,-5.71052 12.3483,7.90245 13.3291,-4.44153 20.1379,4.21078 24.4081,8.13316 7.6741,-6.51805 19.5608,-6.22966 11.1362,6.80649 13.3293,-5.42212 29.3129,-24.63024 22.504,-5.36442 26.4276,-9.0561 -13.964,16.55474 -24.4657,5.94125 -21.1767,-2.94178 -37.9105,3.40324 -49.2775,11.30568 27.4086,-1.38437 -30.2939,18.0545 0.1145,13.90139 17.4261,-7.67172 9.8093,-0.74988 10.2131,7.09488 10.2712,-4.78759 1.154,11.24804 15.6952,1.84583 12.8675,5.01836 29.3703,0.40379 44.0845,2.76875 -16.1566,-0.92292 -41.3726,15.57416 -9.7517,9.80595 -21.523,12.2286 3.1734,13.38224 14.0215,5.82591 -13.9061,24.7456 33.929,8.70997 35.487,11.30568 -2.4815,17.70839 23.6576,-17.9968 21.5228,6.69113 21.1189,-6.92185 37.9101,-10.9596 52.3358,-24.45721 10.0977,11.24799 22.9655,-33.39794 31.0437,-6.28736 -1.5579,18.34291 -23.3692,50.99097 13.3292,41.2427 17.5415,1.21131 36.0062,3.40323 24.8697,-19.26581 -5.7127,-23.59199 10.7323,-6.05663 16.9643,-5.59518 15.6949,16.49707 47.4313,10.38277 65.0882,6.97955 -2.4235,-15.28578 14.2523,-3.86473 21.9268,-5.71055 7.6165,8.4216 22.6767,9.17148 27.8699,6.40273 13.2714,9.2868 2.5967,-29.24483 16.0988,-8.07549 9.8095,5.47978 28.909,-0.57681 34.2174,3.11484 -1.0386,-11.76716 12.0597,-5.94128 -1.2115,-15.22807 3.9814,-0.51916 33.8711,12.97844 17.9453,0.63449 27.0622,0.57682 17.0221,-11.13263 -3.866,-8.07551 -15.2913,-1.32667 -42.5841,-9.40216 -24.6966,-14.07442 3.9238,-3.80702 25.4464,0 9.4053,-8.0178 10.8481,4.8453 26.2545,-6.69112 6.001,-6.80648 12.4636,-1.38437 12.0598,-13.03615 28.9667,-7.61404 -20.0805,-8.42158 -6.8665,-8.13319 1.0385,-10.95959 -15.1755,-0.98061 -35.9483,-8.71001 -6.6934,-9.57523 29.0819,-11.53642 -6.0011,-6.1143 -15.118,-5.88357 15.5219,-19.0351 -23.3693,8.30623 -35.3714,1.32667 -21.0612,1.6728 -68.6654,-19.09275 -69.4734,-26.47607 7.2129,-1.32669 28.9664,16.49708 22.3309,-0.9229 21.4075,18.63129 33.6403,-14.70895 54.586,7.44096 -28.5047,-32.70572 73.1086,-9.57522 27.0047,-27.57203 -5.4818,-2.94177 53.3744,0.0576 14.5987,-7.61403 -12.9831,1.49973 18.2338,-9.86363 -1.7888,-6.97952 -35.7752,-3.40325 -67.7425,-1.09597 -104.441,-13.9014 -23.023,-4.67224 -20.7149,-16.84316 1.3273,-10.78654 28.0432,6.69113 36.987,1.78814 63.2415,1.90351 5.8279,-18.40057 65.8959,-7.21026 40.3916,-31.09064 13.4445,-7.441 29.9472,-11.30569 4.3852,-8.01782 -24.5811,-0.63449 -53.7206,-3.46092 -74.0895,-14.70892 5.2508,-11.82484 41.1416,8.07548 25.5043,-8.13318 8.8861,1.26899 25.216,-2.71105 6.6935,-6.34504 16.099,-1.32668 42.815,-27.6874 9.2322,-15.57417 -17.0219,-10.03668 -63.7607,6.46041 -64.6839,-15.40109 24.6963,4.72992 51.5856,0.74985 52.3358,-30.85994 -17.0221,2.24963 -43.5651,17.99682 -54.5863,-2.01885 7.386,5.01832 23.1387,1.2113 11.252,-8.59465 12.9253,2.82644 19.7916,-21.11164 1.9618,-9.69058 -13.2714,2.538 -60.5296,3.40325 -49.5084,-9.22915 12.2905,4.32618 41.0262,-1.44202 19.2149,-13.32454 15.2909,5.30675 47.0273,-11.9402 42.0072,-22.78444 -11.1366,-12.517 -25.2735,-3.28787 -37.2756,-5.65283 15.1178,-9.86364 -0.1147,-3.5763 -4.3854,-11.13264 -11.5983,21.5731 -66.5882,0.92292 -56.0288,-6.63345 25.3891,-0.0576 43.8537,-0.63449 67.1655,-7.67171 -6.5784,-17.01623 42.0068,-24.05344 5.943,-27.97582 -7.9053,-16.43938 -44.2574,13.03616 -35.9483,-13.61297 -21.8113,17.36231 -68.6078,-2.59569 -73.7432,-13.20919 20.7149,6.40269 25.6773,-0.57683 43.0455,3.40323 -2.1348,-7.26794 15.5797,13.32457 22.677,-3.34557 17.3685,-0.63449 4.2123,-25.89924 24.0041,-12.86307 4.9625,-11.07497 32.7749,-16.61245 5.5972,-16.90088 -7.8475,-7.6717 -24.5812,9.17148 -26.0813,-7.15258 -18.5225,17.13159 -51.3549,12.28631 -62.6645,-8.36389 10.5593,-0.9229 35.3714,15.05501 35.256,-4.55689 10.2709,10.38278 32.4862,7.15258 11.1365,-3.74932 14.1946,10.32508 32.4862,0.63449 30.2935,-8.4216 34.2174,-4.1531 -17.1951,-16.15097 -27.4662,-7.78708 -12.6368,-26.99522 -48.1813,11.8825 -54.7016,-10.09435 -6.751,-3.46093 -41.1417,-18.45827 -26.1391,-23.47663 2.2504,10.20975 16.9066,22.89981 16.2144,4.32617 8.6551,24.68794 23.2538,-8.13318 36.8714,12.517 6.1743,-13.43991 27.8126,4.8453 33.9866,-14.1898 -12.6366,-10.15203 -47.6042,-20.88091 -50.4316,-18.05447 13.1562,-10.90193 23.4272,-14.99735 1.2695,-17.93915 -2.6543,-8.13315 41.4301,-12.22859 11.1367,-23.07282 22.2728,-8.13316 -7.3282,-15.804899 5.5392,-27.629706 -24.1194,0.86521 -35.6598,16.727796 -50.8932,35.935916 -17.7146,3.2879 -15.1181,-49.202797 5.4818,-30.225408 22.0997,1.211307 15.8681,-16.035617 -1.4426,-16.7278 8.9437,-1.038282 39.699,-2.191929 14.1369,-9.344499 18.4069,-17.939119 0.2321,-8.76768 -11.5403,-6.229677 -7.963,-11.47871 -22.504,32.301976 -17.1377,1.499734 3.9814,-12.863089 29.4283,-37.204922 1.2694,-18.804352 -12.1171,0.922916 4.5007,-21.227011 -11.6557,-25.207054 z m -14.8292,65.930647 c 15.2332,1.557393 11.8288,33.513273 5.2507,9.344487 -0.8654,-3.230188 -6.6935,-5.249079 -5.2507,-9.344487 z m -5.3663,27.572033 c 16.1566,0.34608 19.7341,23.64965 3.1733,7.49867 0.1734,-0.0578 -8.1934,-7.09491 -3.1733,-7.49867 z m 59.7214,15.34343 c 6.059,16.32402 -46.9693,17.0739 -11.8289,9.6906 4.9047,-2.07657 7.0976,-7.32564 11.8289,-9.6906 z m -25.331,26.87986 c 13.964,1.55739 28.1009,9.45986 4.7316,3.57629 l -4.7316,-3.57629 z m 23.9464,4.67223 c 16.0412,-3.86469 -2.4236,13.8437 0,0 z m 32.9477,6.86419 c 7.0976,4.67223 -9.9247,2.30728 0,0 z m -51.4124,30.05235 c 8.5399,12.63239 -5.3663,27.11058 -1.2118,4.67226 l 1.2118,-4.67226 z m -16.6759,25.09171 c 6.5202,4.15311 -9.9248,3.28786 0,0 z m 17.5992,3.98005 c 3.8084,9.74828 -3.4046,5.47981 0,0 z m -27.1778,0.98061 c 7.4436,3.05714 -8.0208,3.74933 0,0 z m -10.9056,3.74933 c 7.4435,3.05716 -8.0207,3.74935 0,0 z m -45.5271,0.0578 c 8.8286,10.32508 56.3172,-1.78814 22.7346,9.86361 -7.732,1.55744 -29.1395,4.67227 -22.7346,-9.86361 z m 200.5726,99.55927 c 8.0205,3.51861 -5.02,5.01833 0,0 z m -182.7426,22.55368 c -17.0221,12.86312 -25.3314,4.32617 0,0 z m 188.7437,80.2358 c 22.5615,2.48032 -23.1962,2.30728 0,0 z m 48.8736,10.15205 c 12.3482,-0.23078 -7.0397,2.76874 0,0 z m 0.577,46.83785 c 15.1179,-0.98061 3.8084,7.49868 0,0 z m -380.7187,75.90967 c 4.674,5.24906 -14.0216,1.49974 0,0 z m 35.3139,16.15098 c 9.9247,11.248 25.7927,1.55741 39.3529,6.63343 6.5204,2.53802 -62.8377,13.72833 -39.3529,-6.63343 z m 50.8355,2.01887 c 7.2705,3.40325 -14.6563,2.01888 0,0 z m -22.2153,77.46704 c 6.5203,4.21079 -9.9247,3.34556 0,0 z"
       inkscape:connector-curvature="0"
       style="fill:none;stroke:#007500;stroke-width:3.99999976;stroke-miterlimit:4;stroke-opacity:1;stroke-dasharray:none" />
  </g>
</svg>
