<?xml version="1.0" encoding="UTF-8" standalone="no"?>
<!-- Created with Inkscape (http://www.inkscape.org/) -->

<svg
   xmlns:dc="http://purl.org/dc/elements/1.1/"
   xmlns:cc="http://creativecommons.org/ns#"
   xmlns:rdf="http://www.w3.org/1999/02/22-rdf-syntax-ns#"
   xmlns:svg="http://www.w3.org/2000/svg"
   xmlns="http://www.w3.org/2000/svg"
   xmlns:sodipodi="http://sodipodi.sourceforge.net/DTD/sodipodi-0.dtd"
   xmlns:inkscape="http://www.inkscape.org/namespaces/inkscape"
   width="3200"
   height="800"
   id="svg3634"
   version="1.1"
   inkscape:version="0.48.1 r9760"
   sodipodi:docname="generic_ornament.svg">
  <sodipodi:namedview
     id="base"
     pagecolor="#ffffff"
     bordercolor="#666666"
     borderopacity="1.0"
     inkscape:pageopacity="0.0"
     inkscape:pageshadow="2"
     inkscape:zoom="0.70888709"
     inkscape:cx="1555.7953"
     inkscape:cy="430.77348"
     inkscape:document-units="px"
     inkscape:current-layer="1-default"
     showgrid="false"
     inkscape:window-width="1676"
     inkscape:window-height="1006"
     inkscape:window-x="0"
     inkscape:window-y="0"
     inkscape:window-maximized="1" />
  <defs
     id="defs3636">
    <inkscape:path-effect
       back_thickness="0.25"
       front_thickness="1"
       stroke_width_bottom="1"
       stroke_width_top="1"
       fat_output="false"
       bottom_smth_variation="0;1"
       top_smth_variation="0;1"
       scale_tb="2"
       scale_tf="2"
       scale_bb="2"
       scale_bf="2"
       top_tgt_variation="0;1"
       bottom_tgt_variation="0;1"
       top_edge_variation="0;1"
       bottom_edge_variation="0;1"
       bender="1566.2872,392.44029 , 5,0"
       do_bend="true"
       growth="0"
       dist_rdm="0;1"
       direction="1566.2872,387.44029 , 21.55786,0"
       is_visible="true"
       id="path-effect4517"
       effect="rough_hatches" />
  </defs>
  <metadata
     id="metadata3639">
    <rdf:RDF>
      <cc:Work
         rdf:about="">
        <dc:format>image/svg+xml</dc:format>
        <dc:type
           rdf:resource="http://purl.org/dc/dcmitype/StillImage" />
        <dc:title />
      </cc:Work>
    </rdf:RDF>
  </metadata>
  <g
     id="1-default"
     inkscape:groupmode="layer"
     inkscape:label="1-default">
    <path
       inkscape:connector-curvature="0"
       id="path3647"
       d="m 863.21105,300.84898 c -28.71914,1.8e-4 -51.11707,8.04965 -67.20613,24.14867 -16.08914,16.09933 -24.13357,38.57628 -24.13356,67.47421 -10e-6,20.68753 4.07082,37.92244 12.19584,51.68718 8.12497,13.76484 18.68339,23.82666 31.71561,30.18584 13.11256,6.35918 29.63935,9.55615 49.58993,9.55615 19.6286,0 36.02548,-3.68382 49.13824,-11.00895 13.19291,-7.4056 23.24844,-17.69472 30.16694,-30.89608 6.99857,-13.28178 10.48564,-30.25712 10.48583,-50.94465 -1.9e-4,-28.49546 -7.97966,-50.63148 -23.9077,-66.40883 -15.92838,-15.85754 -38.60205,-23.79336 -68.045,-23.79354 z m 122.34549,3.00244 0,177.01489 54.91346,0 0,-71.8326 4.8397,0 c 4.9875,8e-5 9.4477,1.36332 13.3895,4.10011 2.8959,2.09296 6.2045,6.65317 9.9051,13.65626 l 29.199,54.07623 61.7858,0 -26.4565,-51.29977 c -1.2873,-2.57583 -3.8499,-6.25964 -7.7112,-11.00895 -3.7812,-4.7492 -6.668,-7.84889 -8.679,-9.29789 -2.9766,-2.17331 -7.7447,-4.34797 -14.2607,-6.52143 8.1248,-1.85133 14.5312,-4.18825 19.1971,-7.00569 7.3203,-4.42719 13.0779,-10.15609 17.2613,-17.23983 4.183,-7.16404 6.259,-15.6517 6.2592,-25.47232 -2e-4,-11.26929 -2.7249,-20.82794 -8.195,-28.63618 -5.4705,-7.88845 -12.6554,-13.27642 -21.5847,-16.17444 -8.9295,-2.89769 -21.8558,-4.35821 -38.7492,-4.35839 l -91.11386,0 z m 195.42376,0 0,177.01489 51.4289,0 0,-97.20807 66.2382,97.20807 51.5259,0 0,-177.01489 -51.5259,0 0,97.91832 -66.6254,-97.91832 -51.0417,0 z m 257.4998,0 -66.4963,177.01489 55.8814,0 8.55,-29.2173 62.2697,0 8.6791,29.2173 57.2042,0 -66.4963,-177.01489 -59.5918,0 z m 148.3826,0 0,177.01489 44.7826,0 0,-134.98071 34.4903,134.98071 40.4269,0 34.6517,-134.98071 0,134.98071 44.6535,0 0,-177.01489 -71.6909,0 -27.6181,107.70047 -27.7793,-107.70047 -71.9167,0 z m 233.6244,0 0,177.01489 149.157,0 0,-40.06483 -94.3726,0 0,-34.89935 85.0805,0 0,-36.12614 -85.0805,0 0,-28.11964 91.6946,0 0,-37.80493 -146.479,0 z m 179.0658,0 0,177.01489 51.3967,0 0,-97.20807 66.2704,97.20807 51.5258,0 0,-177.01489 -51.5258,0 0,97.91832 -66.6253,-97.91832 -51.0418,0 z m 195.1656,0 0,43.71296 55.7524,0 0,133.30193 54.6553,0 0,-133.30193 55.7523,0 0,-43.71296 -166.16,0 z m -1154.2485,35.73874 24.0045,0 c 9.9752,1.4e-4 16.7708,1.52567 20.391,4.58437 3.6198,3.05898 5.4525,7.45691 5.4525,13.172 0,3.86392 -1.1839,7.28818 -3.5167,10.26641 -2.2526,2.97846 -5.1882,4.82855 -8.808,5.5529 -7.1599,1.61002 -11.993,2.42143 -14.4867,2.42133 l -23.0366,0 0,-35.99701 z m -177.38801,2.67959 c 11.50361,1.5e-4 20.61833,3.86259 27.29544,11.59007 6.75729,7.64723 10.13078,19.78644 10.13093,36.44899 -1.5e-4,19.80208 -3.24373,33.54772 -9.67924,41.19478 -6.43576,7.64716 -15.51823,11.46097 -27.26317,11.46094 -11.42336,3e-5 -20.4572,-3.91107 -27.13411,-11.71921 -6.5966,-7.80805 -9.90515,-20.64501 -9.90508,-38.51518 -7e-5,-18.03098 3.32482,-30.96524 10.00187,-38.77346 6.6769,-7.80797 15.53222,-11.68678 26.55336,-11.68693 z m 604.59701,7.48997 19.5522,63.63238 -38.9751,0 19.4229,-63.63238 z"
       style="font-size:239.3611908px;font-style:normal;font-variant:normal;font-weight:normal;font-stretch:normal;text-align:start;line-height:125%;letter-spacing:0px;word-spacing:0px;writing-mode:lr-tb;text-anchor:start;fill:none;stroke:#000000;stroke-width:4;stroke-miterlimit:4;stroke-opacity:1;stroke-dasharray:none;font-family:Arial Black;-inkscape-font-specification:'Arial Black,'" />
    <path
       inkscape:original-d="m 864.28125,301.84375 c -1.2406,-0.005 -2.48367,0.006 -3.71875,0.0312 -31.4449,-0.6531 -65.26451,14.69287 -78.3125,44.5625 -12.92334,27.8604 -12.09442,61.14751 -1.34375,89.625 10.99371,25.10225 36.028,43.47948 63.5625,45.34375 5.49325,0.8289 11.15337,1.34589 16.84375,1.53125 l 0,-38.90625 c -12.74859,-0.77307 -25.0727,-7.38785 -30.34375,-19.65625 -6.60918,-15.75887 -6.42878,-33.82915 -3.90625,-50.46875 1.921,-14.44081 11.56362,-28.404 26.375,-31.5625 3.0957,-0.74285 6.27416,-1.1517 9.5,-1.15625 0.59853,-0.0399 1.18642,-0.0571 1.78125,-0.0625 18.43974,-0.16875 34.87748,16.01138 35.5625,34.375 2.51405,18.34519 2.07563,38.40402 -7.1875,54.78125 -7.16758,9.92466 -19.61045,14.45536 -31.6875,13.75 l 0,38.9375 c 25.63037,0.81726 52.17935,-5.50836 70.1875,-24.375 19.65902,-20.44864 24.39252,-50.58736 22.25,-78 -1.56202,-25.59882 -13.44767,-51.87287 -36,-65.3125 -15.8528,-9.81674 -34.95349,-13.36831 -53.5625,-13.4375 z M 1075.0938,304.75 c -1.5901,-3.2e-4 -3.1687,0.0202 -4.75,0.0312 -27.9266,0.32106 -55.8543,-0.0883 -83.7813,0.0625 l 0,175.03125 52.9063,0 c 0.1875,-23.88454 -0.3755,-48.44136 0.2812,-71.90625 1.8542,-0.28803 3.7145,-0.33236 5.5625,-0.21875 l 0,-31.15625 c -1.9557,-0.0172 -3.8989,-0.0362 -5.8437,0 0.3552,-12.45655 -0.7103,-26.42048 0.5312,-37.9375 7.8844,0.34307 15.7706,-0.21725 23.6562,-0.21875 9.8928,-0.0495 23.7488,1.31575 26.875,12.65625 3.6087,10.23163 -3.9717,23.43568 -15.2812,23.84375 -9.7437,2.20945 -19.8464,1.74688 -29.8438,1.65625 l 0,31.15625 c 10.2121,0.66433 19.8108,7.19665 23.1563,17.09375 10.213,18.19608 19.8214,36.72361 29.8437,55.03125 l 59.5938,0 c -13.1379,-22.60295 -21.4343,-48.72491 -39.625,-67.875 -4.9981,-4.66188 -11.8716,-6.75843 -17.9375,-9.1875 2.4092,-2.89819 7.4511,-1.32124 10.6875,-3.28125 20.3687,-6.41043 35.0388,-27.21482 33.2188,-48.75 -0.1495,-20.47398 -15.0482,-40.81583 -36.0626,-43.21875 -10.7575,-2.4056 -22.0585,-2.81029 -33.1874,-2.8125 z m 106.875,0.0937 0,1 c -3e-4,58.01042 0,116.02083 0,174.03125 l 49.4374,0 c 0,-33.16667 2e-4,-66.33333 0,-99.5 22.5567,33.17781 45.1619,66.32287 67.7188,99.5 l 50.0625,0 0,-175.03125 -49.5313,0 c 3e-4,33.40625 0,66.8125 0,100.21875 -22.6672,-33.42688 -45.4381,-66.78413 -68.0937,-100.21875 l -49.5937,0 z m 257.1874,0 -0.25,0.65625 c -21.8316,58.12552 -43.6748,116.24686 -65.5,174.375 l 53.7188,0 c 2.854,-9.7365 5.6565,-19.48827 8.5312,-29.21875 l 28.7813,0 c -0.3334,-12.01028 -0.1811,-24.19414 -0.031,-36.25 l -17.5,0 c 6.891,-22.68818 13.8353,-45.35995 20.7813,-68.03125 L 1478.3438,381 c 3.4124,11.13347 6.8199,22.26856 10.2187,33.40625 l -22.1875,0 c 0.2933,9.37114 -0.1932,18.92512 0.031,28.3125 -0.4812,2.15049 -0.066,5.11659 0.1563,7.9375 l 32.875,0 c 2.8975,9.73909 5.7821,19.48205 8.6875,29.21875 l 55,0 c -21.9093,-58.3465 -43.8286,-116.68928 -65.75,-175.03125 l -58.2188,0 z m 148.7188,0 0,1 0,174.03125 42.7812,0 c 0.3818,-44.99863 -0.7656,-90.17608 0.5938,-135.0625 3.3851,1.47851 2.1751,7.31481 3.8125,10.1875 10.4846,41.65607 21.2987,83.23432 31.8437,124.875 l 38.875,0 c 11.8126,-44.97523 22.7192,-90.37503 35.0626,-135.09375 2.9947,0.97116 0.9148,6.25512 1.4687,8.78125 -0.2697,42.10389 0.016,84.20835 -0.094,126.3125 l 42.6562,0 0,-175.03125 -69.9062,0 c -9.4315,36.91585 -18.9049,73.82088 -28.4063,110.71875 -9.5189,-36.90673 -19.053,-73.80963 -28.5625,-110.71875 l -70.125,0 z m 233.625,0 0,1 0,174.03125 147.1562,0 c 0,-12.6875 3e-4,-25.375 0,-38.0625 l -94.375,0 0,-36.90625 85.0626,0 c 0,-11.375 -3e-4,-22.75 0,-34.125 l -85.0626,0 c 3e-4,-10.04167 0,-20.08333 0,-30.125 l 91.6876,0 c -3e-4,-11.9375 0,-23.875 0,-35.8125 l -144.4688,0 z m 179.0625,0 0,1 0,174.03125 49.375,0 0,-99.5 c 22.5553,33.18569 45.1728,66.32959 67.75,99.5 l 50.0625,0 0,-175.03125 -49.5312,0 c -2e-4,33.40625 0,66.8125 0,100.21875 -22.6677,-33.42688 -45.4382,-66.78413 -68.0938,-100.21875 l -49.5625,0 z m 195.1563,0 0,1 c 0,13.57292 -3e-4,27.14583 0,40.71875 l 55.75,0 c 0,44.4375 -3e-4,88.875 0,133.3125 l 52.6562,0 0,-133.3125 55.75,0 0,-41.71875 -164.1562,0 z"
       inkscape:path-effect="#path-effect4517"
       id="path4459"
       d="m 950.84025,361.88843 c 0,0 0.6714,13.44853 0.68051,28.57622 0.009,15.12769 -0.66817,31.93455 -2.89899,38.65122 -1.11541,3.35834 -1.6136,0.30388 -1.82194,-6.3045 -0.20834,-6.60837 -0.13922,-16.77067 -0.13014,-27.62799 0.009,-10.85733 -0.0443,-22.40969 -0.3969,-31.7982 -0.35255,-9.38852 -0.99673,-16.61319 -2.10673,-18.81513 -1.11,-2.20194 -1.5662,2.74856 -1.73857,11.51878 -0.17237,8.77022 -0.0764,21.36016 -0.0688,34.43709 0.008,13.07693 -0.0751,26.64086 -0.46024,37.35905 -0.38519,10.71819 -1.06132,18.59065 -2.16797,20.28465 -1.10665,1.694 -1.52806,-4.4621 -1.66927,-14.73442 -0.14121,-10.27231 -0.0209,-24.66084 -0.0139,-39.43168 0.007,-14.77084 -0.10091,-29.92399 -0.51475,-41.72556 -0.41384,-11.80156 -1.11833,-20.25154 -2.2219,-21.61604 -1.10357,-1.3645 -1.49445,5.70781 -1.60835,17.15377 -0.1139,11.44596 0.0275,27.26558 0.0336,43.3957 0.006,16.13012 -0.12486,32.57074 -0.56448,45.25872 -0.43963,12.68798 -1.16943,21.62331 -2.27009,22.74284 -1.10066,1.11954 -1.46417,-6.68975 -1.55353,-19.09186 -0.0894,-12.40211 0.0712,-29.39704 0.0766,-46.64878 0.005,-17.25174 -0.14562,-34.7603 -0.60798,-48.18968 -0.46237,-13.42937 -1.21451,-22.77955 -2.31258,-23.71455 -1.09808,-0.93499 -1.43748,7.4757 -1.50523,20.66744 -0.0678,13.19173 0.10956,31.16451 0.11427,49.35369 0.005,18.18918 -0.16437,36.59476 -0.64707,50.65209 -0.4827,14.05733 -1.25484,23.76641 -2.35077,24.56261 -1.09593,0.79619 -1.41391,-8.11177 -1.46231,-21.96312 -0.0484,-13.85136 0.14411,-32.64611 0.1486,-51.6235 0.004,-18.9774 -0.1801,-38.13743 -0.68027,-52.71936 -0.50017,-14.58192 -1.28937,-24.58573 -2.3829,-25.25067 -1.09352,-0.66493 -1.39276,8.67157 -1.42467,23.08665 -0.0319,14.41508 0.17303,33.90874 0.17631,53.55812 0.003,19.64938 -0.19604,39.45448 -0.71259,54.49243 -0.51656,15.03796 -1.32175,25.30877 -2.41377,25.88957 -1.09202,0.58081 -1.37421,-9.10876 -1.39043,-24.00072 -0.0162,-14.89196 0.2014,-34.98629 0.20521,-55.21501 0.004,-20.22872 -0.20703,-40.59181 -0.73688,-56.02129 -0.52984,-15.42947 -1.34823,-25.92532 -2.43844,-26.41956 -1.09021,-0.49423 -1.35802,9.50605 -1.36172,24.81093 -0.004,15.30487 0.22315,35.91434 0.2255,56.63849 0.002,20.72415 -0.22051,41.56298 -0.76343,57.32658 -0.54293,15.76359 -1.37382,26.45195 -2.46252,26.87516 -1.0887,0.42321 -1.34299,-9.84087 -1.3343,-25.49736 0.009,-15.6565 0.24558,-36.70542 0.24867,-57.8519 0.003,-21.14647 -0.22826,-42.39049 -0.78101,-58.4372 -0.55275,-16.04671 -1.39337,-26.8961 -2.48053,-27.25331 -2.17433,-0.71442 -1.74867,15.74922 -1.49503,31.15364 0.25363,15.40442 0.35878,29.74962 -1.84113,24.79834 -2.19992,-4.95128 -2.35777,-19.29366 -2.60671,-32.52233 -0.24893,-13.22866 -0.57468,-25.34362 -2.74372,-25.84004 -2.16903,-0.49643 -1.83648,11.94759 -1.60264,24.01823 0.23384,12.07064 0.37502,23.76791 -1.80612,21.77798 -2.18113,-1.98994 -2.33928,-13.68525 -2.56868,-24.96213 -0.2294,-11.27689 -0.52489,-22.13536 -2.68927,-22.45161 -2.16438,-0.31624 -1.86799,10.57274 -1.64643,21.27576 0.22156,10.70302 0.37087,21.22008 -1.80036,20.16 -2.17122,-1.06008 -2.32861,-11.57575 -2.54699,-21.86705 -0.21839,-10.29131 -0.49513,-20.35827 -2.65538,-20.52092 -2.16026,-0.16266 -1.88319,9.91195 -1.66886,19.92641 0.21432,10.01446 0.36666,19.96877 -1.79536,19.56552 -2.16201,-0.40324 -2.31724,-10.35653 -2.5302,-20.21607 -0.21297,-9.85954 -0.48256,-19.62533 -2.63913,-19.6536 -2.15656,-0.0283 -1.88623,9.76529 -1.67388,19.58709 0.21234,9.82181 0.36637,19.67186 -1.78809,19.75656 -2.15447,0.0847 -2.30784,-9.76396 -2.52064,-19.62464 -0.21279,-9.86068 -0.48514,-19.73337 -2.63992,-19.69671 -2.15477,0.0367 -1.88239,9.90432 -1.66757,19.88605 0.21483,9.98174 0.37076,20.07756 -1.7775,20.57053 -2.14827,0.49298 -2.30061,-9.60265 -2.5168,-19.76356 -0.21619,-10.16091 -0.49705,-20.38709 -2.64648,-20.15524 -2.14943,0.23186 -1.86976,10.43153 -1.6498,20.87787 0.21996,10.44635 0.37729,21.13936 -1.76114,22.35789 -2.13842,1.21853 -2.28637,-9.47489 -2.50909,-20.36575 -0.22271,-10.89086 -0.523,-21.97916 -2.6672,-21.55041 -2.14421,0.42876 -1.84579,11.46515 -1.61483,23.01098 0.23097,11.54583 0.38823,23.60111 -1.73779,26.06764 -2.12603,2.46653 -2.26165,-9.58984 -2.49687,-22.10347 -0.23522,-12.51364 -0.57788,-25.48454 -2.71686,-24.84708 -2.13898,0.63746 -1.82388,12.32146 -1.56593,26.39763 0.25794,14.07616 0.4335,30.54448 -1.66193,40.75057 -1.04772,5.10304 -1.59373,3.53697 -1.89652,-1.65538 -0.30279,-5.19235 -0.37582,-14.01099 -0.5032,-23.41308 -0.12739,-9.40209 -0.31129,-19.38763 -0.74443,-26.91379 -0.43313,-7.52616 -1.10638,-12.59294 -2.1732,-12.15751 -1.06681,0.43542 -1.31462,11.12937 -1.31204,26.89374 0.003,15.76437 0.2235,36.59917 0.21936,57.3163 -0.004,20.71712 -0.23262,41.31657 -0.76886,56.61026 -0.53623,15.29369 -1.34669,25.28161 -2.41194,24.77567 -1.06525,-0.50594 -1.32416,-11.00071 -1.33237,-26.42238 -0.008,-15.42166 0.20388,-35.77022 0.20164,-55.98374 -0.002,-20.21351 -0.21797,-40.29198 -0.73917,-55.17347 -0.5212,-14.88149 -1.31582,-24.566 -2.3798,-23.99159 -1.06398,0.57441 -1.3379,10.8343 -1.36177,25.85848 -0.0239,15.02418 0.17373,34.81263 0.1691,54.44418 -0.005,19.63154 -0.21056,39.10616 -0.71803,53.50267 -0.50748,14.39651 -1.28605,23.7149 -2.34791,23.03396 -1.06186,-0.68093 -1.35035,-10.68194 -1.38878,-25.25333 -0.0384,-14.57138 0.14675,-33.71313 0.14318,-52.67551 -0.004,-18.96239 -0.19485,-37.74542 -0.68466,-51.59937 -0.48981,-13.85395 -1.24964,-22.77881 -2.31048,-22.02487 -1.06084,0.75394 -1.36744,10.43469 -1.42408,24.47541 -0.0566,14.04072 0.11241,32.4414 0.10759,50.63521 -0.005,18.19381 -0.18234,36.18075 -0.65409,49.39396 -0.47176,13.21322 -1.21119,21.65271 -2.26959,20.75165 -1.0584,-0.90106 -1.38369,-10.24529 -1.45935,-23.69132 -0.0757,-13.44603 0.0766,-30.99386 0.0714,-48.30216 -0.005,-17.30829 -0.16648,-34.37704 -0.61794,-46.8649 -0.45145,-12.48786 -1.16881,-20.39482 -2.22591,-19.37954 -1.05711,1.01528 -1.4036,9.94208 -1.5002,22.68497 -0.0966,12.7429 0.0376,29.30188 0.0325,45.58152 -0.005,16.27963 -0.14836,32.27993 -0.57699,43.90544 -0.42863,11.62551 -1.12088,18.87625 -2.17552,17.65678 -1.05464,-1.21948 -1.42448,-9.70051 -1.54495,-21.64313 -0.12048,-11.94262 -0.008,-27.34684 -0.0143,-42.41268 -0.007,-15.06585 -0.13127,-29.79333 -0.53567,-40.38248 -0.4044,-10.58916 -1.06942,-17.03998 -2.12131,-15.55252 -1.0519,1.48747 -1.44703,9.4418 -1.59288,20.42228 -0.14585,10.98048 -0.0551,24.98711 -0.0618,38.57916 -0.007,13.59206 -0.10907,26.76954 -0.48561,36.09174 -0.37654,9.32219 -1.01107,14.78909 -2.06074,12.95998 -1.04966,-1.82911 -1.47385,-9.14629 -1.64874,-18.93052 -0.1749,-9.78422 -0.10958,-22.0355 -0.11669,-33.73282 -0.007,-11.69732 -0.0846,-22.84068 -0.42879,-30.40907 -0.34417,-7.56838 -0.94186,-11.56179 -1.98696,-8.95922 -1.04511,2.60258 -1.50223,9.30957 -1.71158,17.62294 -0.20936,8.31337 -0.17584,18.23311 -0.18552,27.26117 -0.01,9.02806 -0.0598,17.16445 -0.36608,21.91111 -0.30624,4.74666 -0.85825,6.1036 -1.89887,1.57276 -2.08126,-9.06168 -2.57669,-20.62964 -2.58499,-29.93217 -0.008,-9.30254 0.48371,-16.33965 0.48371,-16.33965 m 125.01564,41.67907 c 0,0 0.432,15.77423 0.16955,31.6984 -0.26244,15.92417 -1.22217,31.99827 -3.3938,32.59801 -2.17162,0.59974 -1.80717,-13.20832 -1.56539,-26.36333 0.24179,-13.15501 0.37289,-25.65697 -1.81997,-22.44504 -2.19286,3.21194 -2.35356,15.71169 -2.58855,27.50769 -0.235,11.79601 -0.53573,22.88827 -2.70224,23.28523 -2.16651,0.39696 -1.86115,-10.88635 -1.63644,-21.93866 0.22472,-11.05232 0.37214,-21.87365 -1.80224,-20.55273 -2.17437,1.32092 -2.33214,12.14074 -2.5534,22.68624 -0.22126,10.54549 -0.50276,20.81666 -2.66467,21.04027 -2.16191,0.22361 -1.87961,-10.06894 -1.66336,-20.26031 0.21625,-10.19137 0.36778,-20.28157 -1.79758,-19.65326 -2.16536,0.62831 -2.32146,10.71749 -2.53566,20.66716 -0.2142,9.94968 -0.48486,19.75986 -2.64258,19.83018 -2.15773,0.0703 -1.88695,-9.74594 -1.67514,-19.54533 0.21181,-9.79939 0.36487,-19.58189 -1.79308,-19.44404 -2.15795,0.13785 -2.85064,9.90232 -3.06151,19.63232 -0.21087,9.72999 0.0605,19.42553 0.0605,19.42553 m -4.30699,-0.16636 c 0,0 0.80498,-9.65188 1.01548,-19.38164 0.2105,-9.72975 -0.17437,-19.53737 -2.3253,-19.84885 -2.15093,-0.31148 -2.30256,9.47884 -2.51334,19.29779 -0.21079,9.81896 -0.48108,19.66655 -2.63147,19.46962 -2.15039,-0.19693 -1.88094,-10.03632 -1.66805,-20.03334 0.21289,-9.99701 0.3674,-20.15166 -1.77606,-20.9791 -2.14345,-0.82745 -2.29157,9.30484 -2.50611,19.58457 -0.21455,10.27973 -0.49746,20.70689 -2.6468,20.4692 -2.14935,-0.2377 -1.86717,-10.63513 -1.64594,-21.37758 0.22123,-10.74246 0.37739,-21.82993 -1.75664,-23.44769 -2.13402,-1.61777 -2.27735,9.49033 -2.50337,20.89595 -0.22603,11.40562 -0.53924,23.10876 -2.6836,22.68108 -2.14436,-0.42768 -1.83622,-11.89219 -1.59714,-24.25612 0.23908,-12.36392 0.398,-25.62727 -1.7163,-29.65264 -2.11431,-4.02537 -2.23375,9.23891 -2.47914,23.33249 -0.2454,14.09359 -0.63339,29.01647 -2.77074,28.30829 -2.13734,-0.70817 -2.19895,-19.2379 -1.93128,-37.59058 0.26767,-18.35268 0.8685,-36.52832 0.8685,-36.52832 m 330.82232,73.89191 c 0,0 2.0941,2.18681 -2.2174,2.18681 -4.3116,0 0.1692,-5.7272 -3.9452,-13.94502 -2.0571,-4.10891 -2.1375,-0.62265 -2.2516,3.89083 -0.1141,4.51348 -0.2706,10.05419 -2.4264,10.05419 -2.1558,0 -1.9941,-5.58814 -1.8311,-12.22381 0.163,-6.63567 0.3212,-14.31888 -1.757,-18.50901 -2.0781,-4.19014 -2.21,3.49306 -2.4066,12.2238 -0.1966,8.73074 -0.4726,18.50902 -2.6284,18.50902 -2.1558,0 -1.8728,-9.80712 -1.6386,-20.51821 0.2341,-10.71109 0.4089,-22.32616 -1.6984,-25.94206 -2.1073,-3.61591 -2.2479,7.99916 -2.4994,20.51821 -0.2516,12.51904 -0.631,25.94206 -2.7868,25.94206 -2.1557,0 -1.7693,-13.42242 -1.4928,-27.55341 0.2765,-14.13099 0.4313,-28.97054 -1.6984,-31.80481 -2.1297,-2.83428 -2.2503,12.00528 -2.533,27.5534 -0.2826,15.54813 -0.7431,31.80482 -2.8989,31.80482 -2.1558,0 -1.6867,-16.34643 -1.3888,-33.13129 0.2979,-16.78486 0.4155,-34.00815 -1.7296,-35.76189 -2.1451,-1.75373 -2.2381,15.46956 -2.5364,33.13129 -0.1492,8.83086 -0.3443,17.77134 -0.7813,24.50409 -0.437,6.73276 -1.1092,11.2578 -2.187,11.2578 -2.1558,0 -1.64,-18.019 -1.3348,-36.26804 0.1526,-9.12452 0.2596,-18.30655 0.05,-25.32246 -0.21,-7.01592 -0.7308,-11.86572 -1.8067,-12.32578 -1.0758,-0.46007 -1.6292,3.92967 -1.9531,10.77305 -0.324,6.84339 -0.4262,16.14044 -0.5785,25.49499 -0.1522,9.35455 -0.3547,18.76661 -0.7989,25.84003 -0.4442,7.07343 -1.1228,11.80821 -2.2007,11.80821 -1.0779,0 -1.6104,-4.78125 -1.8378,-11.95311 -0.2274,-7.17187 -0.1571,-16.73436 -0,-26.29685 0.1538,-9.56249 0.391,-19.12498 0.5796,-26.29685 0.1885,-7.17187 0.3359,-11.95311 0.3359,-11.95311 m 38.2324,-71.30682 c 0,0 0.7219,9.16198 0.8573,19.29635 0.1353,10.13437 -0.3265,21.24113 -2.4622,25.13067 -2.1357,3.88955 -2.1793,-8.4835 -2.3542,-22.48939 -0.175,-14.0059 -0.5124,-29.64463 -2.729,-32.28646 -2.2166,-2.64182 -1.8411,12.87166 -1.6177,29.57551 0.1117,8.35192 0.1879,17.00143 -0.043,23.82792 -0.2312,6.82648 -0.7648,11.82994 -1.8412,12.88975 -2.1528,2.11963 -2.1609,-15.72505 -2.3977,-34.46577 -0.1185,-9.37036 -0.2894,-18.96473 -0.7168,-26.39957 -0.4275,-7.43485 -1.1048,-12.71017 -2.2014,-13.44243 -1.0967,-0.73226 -1.5131,3.80486 -1.6227,11.06382 -0.1096,7.25897 0.079,17.23979 0.2115,27.39491 0.1329,10.15513 0.2101,20.48456 -0.029,28.44077 -0.2391,7.95621 -0.7866,13.5392 -1.865,14.20142 -1.0784,0.66223 -1.6065,-4.25488 -1.9001,-12.0263 -0.2937,-7.77142 -0.363,-18.39715 -0.4987,-29.15219 -0.1356,-10.75504 -0.3381,-21.63938 -0.793,-29.92801 -0.4549,-8.28863 -1.153,-13.98155 -2.241,-14.35374 -1.088,-0.3722 -1.4762,4.94218 -1.5588,13.14921 -0.083,8.20703 0.1297,19.3067 0.2733,30.50507 0.1435,11.19837 0.2179,22.49545 -0.029,31.09729 -0.2465,8.60184 -0.8039,14.50845 -1.8827,14.92588 -1.0788,0.41743 -1.5983,-5.05636 -1.8865,-13.51444 -0.2882,-8.45808 -0.3566,-19.90046 -0.5001,-31.4202 -0.1436,-11.51974 -0.3627,-23.11684 -0.8326,-31.88439 -0.4699,-8.76755 -1.1799,-14.70554 -2.2634,-14.90705 -1.0834,-0.20151 -1.4567,5.50905 -1.5254,14.20287 -0.069,8.69382 0.1556,20.3709 0.3037,32.10244 0.1481,11.73154 0.2196,23.51754 -0.032,32.42919 -0.2512,8.91165 -0.8142,14.94896 -1.8928,15.18312 -1.0786,0.23415 -1.593,-5.57141 -1.8784,-14.41979 -0.2854,-8.84838 -0.3536,-20.73957 -0.5023,-32.67666 -0.1487,-11.9371 -0.3779,-23.9201 -0.8569,-32.95209 -0.479,-9.032 -1.1962,-15.11299 -2.2779,-15.24608 -1.0816,-0.13308 -1.2918,10.68347 -1.2472,26.86435 0.045,16.18089 0.3049,37.72611 0.3082,59.0504 0,21.32429 -0.2487,42.42764 -0.8037,57.72476 -0.555,15.29713 -1.3707,24.78803 -2.3989,22.88743 -1.0283,-1.9006 -1.2566,-13.29133 -1.2605,-29.31241 -0,-16.02109 0.1869,-36.67251 0.1452,-57.0945 -0.042,-20.42199 -0.3148,-40.61453 -0.8896,-55.71784 -0.5748,-15.10332 -1.419,-25.1174 -2.4987,-25.18246 -2.1595,-0.13012 -1.8492,10.82934 -1.6244,21.29614 0.2248,10.46681 0.3717,20.44097 -1.8167,18.34024 -2.1883,-2.10073 -2.3521,-12.07221 -2.565,-21.52846 -0.213,-9.45625 -0.4695,-18.39727 -2.6264,-18.43707 -2.1569,-0.0398 -1.8978,9.0517 -1.6949,18.00558 0.2029,8.95387 0.3512,17.77011 -1.8146,17.17976 -2.1659,-0.59036 -2.3185,-9.40551 -2.5173,-18.06931 -0.1988,-8.6638 -0.4423,-17.17623 -2.5977,-17.16114 -2.1553,0.0151 -1.9118,8.54969 -1.7165,17.04518 0.1953,8.4955 0.3428,16.95189 -1.8154,16.81057 -2.1583,-0.14133 -2.3068,-8.59477 -2.5008,-17.00868 -0.1939,-8.4139 -0.4329,-16.78827 -2.5882,-16.77144 -2.1553,0.0168 -1.916,8.40846 -1.7226,16.80422 0.1935,8.39576 0.341,16.79564 -1.8142,16.82896 -2.1552,0.0333 -2.3025,-8.36669 -2.4961,-16.77308 -0.1935,-8.40639 -0.4333,-16.81915 -2.5889,-16.81131 -2.1556,0.008 -1.9155,8.42722 -1.7216,16.85768 0.194,8.43047 0.3418,16.87202 -1.8131,16.92416 -2.1548,0.0522 -2.3023,-8.38952 -2.4966,-16.844 -0.1943,-8.45448 -0.4356,-16.92176 -2.5914,-16.92081 -2.1557,9.5e-4 -1.9142,8.47488 -1.7197,16.93977 0.1945,8.46489 0.3421,16.92075 -1.8143,16.88556 -2.1564,-0.0352 -2.3043,-8.49118 -2.4985,-16.93933 -0.1943,-8.44815 -0.4349,-16.88846 -2.5908,-16.89229 -1.0779,-0.002 -1.2808,10.93304 -1.229,27.33654 0.052,16.40349 0.3195,38.27554 0.3189,60.14783 -5e-4,21.87229 -0.2691,43.74482 -0.8607,60.14927 -0.5916,16.40446 -1.4671,27.34084 -2.545,27.34084 -1.0779,0 -1.2803,-10.93642 -1.2276,-27.34124 0.053,-16.40483 0.3213,-38.27807 0.3218,-60.15171 5e-4,-21.87365 -0.2672,-43.7477 -0.8581,-60.15415 -0.5909,-16.40645 -1.466,-27.3453 -2.544,-27.34855 -1.078,-0.003 -1.2808,10.93236 -1.2288,27.3376 0.052,16.40523 0.3197,38.28009 0.3193,60.15536 -4e-4,21.87527 -0.269,43.75094 -0.8607,60.15779 -0.5916,16.40686 -1.4672,27.3449 -2.5451,27.3449 -1.0779,0 -1.2801,-10.93807 -1.2275,-27.3454 0.053,-16.40733 0.3213,-38.28392 0.3217,-60.16094 4e-4,-21.87703 -0.2674,-43.75449 -0.8585,-60.16358 -0.591,-16.40909 -1.4664,-27.34981 -2.5444,-27.35333 -1.0779,-0.004 -1.2806,10.93367 -1.2284,27.34144 0.052,16.40777 0.3201,38.28611 0.3198,60.1649 -4e-4,21.87879 -0.269,43.75801 -0.8606,60.16755 -0.5917,16.40953 -1.4673,27.34936 -2.5452,27.34936 -1.0779,0 -1.2801,-10.93987 -1.2274,-27.34984 0.053,-16.40997 0.3213,-38.29005 0.3216,-60.17047 3e-4,-21.88042 -0.2677,-43.76118 -0.859,-60.17252 -0.5912,-16.41135 -1.4667,-27.35327 -2.5446,-27.35602 -1.078,-0.003 -1.2805,10.93644 -1.2282,27.34675 0.052,16.41032 0.3205,38.29177 0.3202,60.17356 -2e-4,21.88179 -0.2688,43.76393 -0.8605,60.17561 -0.5917,16.41169 -1.4674,27.35293 -2.5453,27.35293 -1.0779,0 -1.28,-10.94127 -1.2273,-27.35324 0.053,-16.41196 0.3213,-38.29462 0.3215,-60.17739 3e-4,-21.88277 -0.2679,-43.76566 -0.8592,-60.17808 -0.5914,-16.41242 -1.4669,-27.35437 -2.5448,-27.35528 -1.0779,-9.1e-4 -1.2803,10.94013 -1.2279,27.35221 0.052,16.41208 0.3206,38.29519 0.3204,60.17842 -2e-4,21.88323 -0.2688,43.76657 -0.8605,60.1791 -0.5917,16.41253 -1.4674,27.35426 -2.54532,27.35426 -1.07789,0 -1.28004,-10.94176 -1.22731,-27.35428 0.0527,-16.41251 0.32132,-38.29578 0.32153,-60.17881 2.1e-4,-21.88302 -0.26795,-43.7658 -0.85929,-60.17733 -0.59134,-16.41153 -1.46682,-27.3518 -2.54465,-27.34982 -1.07784,0.002 -1.28022,10.94423 -1.22785,27.3565 0.0524,16.41227 0.32047,38.29455 0.32021,60.17659 -2.5e-4,21.88203 -0.26884,43.76382 -0.86051,60.1751 -0.59167,16.41128 -1.46738,27.35205 -2.54527,27.35205 -1.07789,0 -1.41484,-10.94006 -1.49687,-27.35016 -0.082,-16.41009 0.0518,-38.29022 0.0521,-60.17034 2.9e-4,-21.88013 -0.13297,-43.76025 -0.31996,-60.17035 -0.187,-16.41009 -0.3887,-27.35015 -0.3887,-27.35015 m 100.30175,61.26573 c 0,0 0.1949,6.17042 0.3621,15.30507 0.1672,9.13466 0.2944,21.23355 0.2086,33.09052 -0.086,11.85697 -0.3834,23.47201 -0.931,31.63896 -0.5475,8.16694 -1.3305,12.88578 -2.3675,10.95035 -1.037,-1.93542 -1.4401,-8.34869 -1.5769,-16.83925 -0.1367,-8.49056 -0.014,-19.05841 0.049,-29.30301 0.1244,-20.4892 -0.015,-39.6854 -2.1629,-38.38422 -1.0737,0.65059 -1.5766,5.7737 -1.8302,12.97165 -0.2535,7.19796 -0.2642,16.47076 -0.3186,25.42072 -0.1088,17.89993 -0.4014,34.50852 -2.4951,30.64435 -2.0937,-3.86417 -1.8534,-20.63181 -1.7871,-36.34097 0.066,-15.70915 -0.022,-30.35982 -2.1759,-29.99006 -2.1537,0.36977 -2.0788,15.11264 -2.1306,28.72114 -0.052,13.6085 -0.2073,26.08262 -2.3175,21.91489 -2.1101,-4.16773 -1.9976,-16.63426 -1.9769,-28.01823 0.021,-11.38398 -0.037,-21.68538 -2.1922,-21.52286 -2.155,0.16253 -2.1035,10.46559 -2.1174,20.28416 -0.014,9.81856 -0.086,19.15262 -2.2295,17.37715 -2.1433,-1.77548 -2.0844,-11.11661 -2.0795,-20.01071 0.01,-8.89409 -0.039,-17.34115 -2.1951,-17.32849 -2.1557,0.0127 -2.113,8.50301 -2.1162,16.80972 -0,8.3067 -0.05,16.42976 -2.202,15.70784 -2.1519,-0.72191 -2.1095,-8.85171 -2.1093,-16.80784 2e-4,-7.95614 -0.04,-15.73861 -2.1959,-15.76588 -2.156,-0.0273 -2.655,7.76116 -2.6547,15.55638 4e-4,7.79523 0.5,15.59728 0.5,15.59728 m -4.3115,-0.0106 c 0,0 0.039,-7.79852 0.039,-15.59705 -3e-4,-7.79852 -0.04,-15.59705 -0.04,-15.59705 m 304.912,-71.72989 c 0,0 0.4717,10.93945 0.9287,27.34863 0.457,16.40918 0.8603,38.28809 0.8603,60.16699 0,21.87891 -0.4033,43.75782 -1.1298,60.167 -0.7265,16.40918 -1.7371,27.34863 -2.815,27.34863 -1.0779,0 -1.2799,-10.93945 -1.2271,-27.34863 0.053,-16.40918 0.3214,-38.28809 0.3214,-60.167 0,-21.8789 -0.2686,-43.75781 -0.8603,-60.16699 -0.5918,-16.40918 -1.4676,-27.34863 -2.5455,-27.34863 -1.0779,0 -1.28,10.93945 -1.2272,27.34863 0.053,16.40918 0.3214,38.28809 0.3214,60.16699 0,21.87891 -0.2686,43.75782 -0.8603,60.167 -0.5917,16.40918 -1.4676,27.34863 -2.5455,27.34863 -1.0779,0 -1.2799,-10.93945 -1.2271,-27.34863 0.053,-16.40918 0.3213,-38.28809 0.3213,-60.167 0,-21.8789 -0.2685,-43.75781 -0.8603,-60.16699 -0.5917,-16.40918 -1.4676,-27.34863 -2.5455,-27.34863 -1.0779,0 -1.2799,10.93945 -1.2271,27.34863 0.053,16.40918 0.3213,38.28809 0.3213,60.16699 0,21.87891 -0.2685,43.75782 -0.8603,60.167 -0.5917,16.40918 -1.4676,27.34863 -2.5454,27.34863 -1.0779,0 -1.28,-10.93945 -1.2272,-27.34863 0.053,-16.40918 0.3214,-38.28809 0.3214,-60.167 0,-21.8789 -0.2686,-43.75781 -0.8603,-60.16699 -0.5918,-16.40918 -1.4676,-27.34863 -2.5455,-27.34863 -1.0779,0 -1.2799,10.93945 -1.2272,27.34863 0.053,16.40918 0.3214,38.28809 0.3214,60.16699 0,21.87891 -0.2686,43.75782 -0.8603,60.167 -0.5917,16.40918 -1.4676,27.34863 -2.5455,27.34863 -1.0779,0 -1.2799,-10.93945 -1.2271,-27.34863 0.053,-16.40918 0.3213,-38.28809 0.3213,-60.167 0,-21.8789 -0.2685,-43.75781 -0.8603,-60.16699 -0.5917,-16.40918 -1.4676,-27.34863 -2.5455,-27.34863 -1.0779,0 -1.2799,10.93945 -1.2271,27.34863 0.053,16.40918 0.3214,38.28809 0.3214,60.16699 0,21.87891 -0.2686,43.75782 -0.8603,60.167 -0.5918,16.40918 -1.4676,27.34863 -2.5455,27.34863 -1.0779,0 -1.28,-10.93945 -1.2272,-27.34863 0.053,-16.40918 0.3214,-38.28809 0.3214,-60.167 0,-21.8789 -0.2686,-43.75781 -0.8603,-60.16699 -0.5918,-16.40918 -1.4676,-27.34863 -2.5455,-27.34863 -1.0779,0 -1.2797,10.9463 -1.2269,27.36233 0.053,16.41603 0.3213,38.30178 0.3211,60.18069 -2e-4,21.87891 -0.269,43.75096 -0.8603,60.1396 -0.5913,16.38863 -1.466,27.29384 -2.5423,27.23905 -1.0764,-0.0548 -1.2753,-11.27722 -1.234,-27.05004 0.041,-15.77282 0.2834,-36.09604 0.3192,-54.3524 0.036,-18.25637 -0.117,-34.44588 -0.4745,-41.9513 -0.1788,-3.75271 -0.4038,-5.3344 -0.6885,-3.91791 -0.2847,1.41649 -0.626,5.83116 -1.0955,14.07116 -1.8783,32.96001 -2.1876,60.47291 -2.5089,78.98217 -0.1607,9.25462 -0.3224,16.25834 -0.6956,20.56658 -0.3732,4.30824 -0.9563,5.921 -1.9952,4.39373 -1.039,-1.52728 -1.4393,-6.92495 -1.5558,-14.26165 -0.1164,-7.3367 0.046,-16.61244 0.1611,-25.89585 0.1152,-9.28341 0.1829,-18.57449 -0.058,-25.94189 -0.2405,-7.3674 -0.7844,-12.81112 -1.8635,-14.3998 -1.0791,-1.58868 -1.6089,2.26637 -1.8923,8.84663 -0.2834,6.58026 -0.3302,15.88573 -0.4265,25.19789 -0.096,9.31215 -0.2423,18.63099 -0.6345,25.23799 -0.3923,6.607 -1.0212,10.50217 -2.0661,8.96697 -1.0449,-1.5352 -1.466,-6.96553 -1.6113,-14.3473 -0.1453,-7.38176 -0.02,-16.71496 0.058,-26.05587 0.078,-9.34092 0.1075,-18.68956 -0.1635,-26.10222 -0.2709,-7.41266 -0.8377,-12.88933 -1.9234,-14.48632 -1.0858,-1.59698 -1.5993,2.28272 -1.8554,8.90411 -0.2561,6.62139 -0.2646,15.98446 -0.3232,25.35421 -0.059,9.36976 -0.1674,18.74619 -0.5335,25.39431 -0.3662,6.64811 -0.98,10.56791 -2.0309,9.02438 -1.0509,-1.54353 -1.4933,-7.00683 -1.6679,-14.43392 -0.1745,-7.42709 -0.086,-16.81798 -0.047,-26.21671 0.04,-9.39872 0.031,-18.80527 -0.2712,-26.26368 -0.3019,-7.45841 -0.8919,-12.96868 -1.9844,-14.57485 -1.0925,-1.60617 -1.5895,2.29795 -1.8178,8.96058 -0.2282,6.66263 -0.1977,16.08378 -0.2179,25.51165 -0.02,9.42788 -0.091,18.86249 -0.4308,25.55206 -0.3396,6.68957 -0.938,10.63409 -1.995,9.0818 -1.057,-1.55229 -1.521,-7.04908 -1.7254,-14.52212 -0.2044,-7.47303 -0.1543,-16.92232 -0.1534,-26.3796 10e-4,-9.45728 -0.047,-18.92256 -0.3808,-26.42759 -0.3335,-7.50502 -0.9471,-13.0498 -2.0465,-14.66608 -1.0995,-1.61627 -1.5796,2.31224 -1.7796,9.01658 -0.1999,6.70433 -0.1296,16.18448 -0.1107,25.67148 0.019,9.487 -0.014,18.98084 -0.3261,25.71256 -0.3126,6.73172 -0.8952,10.70131 -1.9585,9.1398 -1.0632,-1.56151 -1.5492,-7.09258 -1.784,-14.61254 -0.2348,-7.51996 -0.2235,-17.02882 -0.262,-26.54591 -0.039,-9.51709 -0.1271,-19.04242 -0.4927,-26.59531 -0.3656,-7.55289 -1.0034,-13.13335 -2.1098,-14.76072 -1.1065,-1.62736 -1.5695,2.32575 -1.7405,9.07261 -0.1711,6.74686 -0.06,16.28746 -0,25.83509 0.059,9.54763 0.065,19.10228 -0.2195,25.87722 -0.285,6.77494 -0.8516,10.77018 -1.9212,9.19898 -1.0695,-1.5712 -1.578,-7.1376 -1.8437,-14.70587 -0.2658,-7.56827 -0.294,-17.13841 -0.3728,-26.71708 -0.079,-9.57868 -0.2083,-19.16589 -0.6067,-26.76831 -0.3985,-7.60242 -1.0608,-13.22004 -2.1745,-14.85953 -1.1136,-1.6395 -1.5591,2.33865 -1.7007,9.12924 -0.1416,6.7906 0.011,16.39364 0.11,26.00395 0.099,9.61031 0.1462,19.22788 -0.1107,26.04753 -0.2569,6.81965 -0.8072,10.84138 -1.8832,9.25999 -1.076,-1.58139 -1.6073,-7.18446 -1.9047,-14.80284 -0.2973,-7.61838 -0.3659,-17.25206 -0.4858,-26.89466 -0.1199,-9.6426 -0.2911,-19.29412 -0.7231,-26.94817 -0.4319,-7.65405 -1.1194,-13.31064 -2.2405,-14.96337 -1.121,-1.65273 -1.6347,-0.76725 -1.8107,2.95031 -0.1759,3.71757 -0.013,10.26723 0.1672,19.94285 0.1804,9.67563 0.3795,22.47723 0.2076,38.69868 -0.172,16.22146 -0.7138,35.86276 -2.1028,59.21781 -0.6945,11.67752 -1.2427,18.43065 -1.6042,21.30801 -0.3615,2.87736 -0.5416,1.87897 -0.6012,-1.94655 -0.1192,-7.65104 0.2157,-26.61057 0.2991,-48.48947 0.042,-10.93946 0.024,-22.60875 -0.092,-33.95926 -0.1163,-11.3505 -0.3304,-22.38222 -0.6365,-32.0465 -0.6122,-19.32856 -1.5767,-33.18739 -2.6546,-33.18739 -1.0779,0 -1.2799,10.93945 -1.2271,27.34863 0.053,16.40918 0.3213,38.28809 0.3213,60.16699 0,21.87891 -0.2685,43.75782 -0.8603,60.167 -0.5917,16.40918 -1.4676,27.34863 -2.5455,27.34863 -1.0779,0 -1.2799,-10.93945 -1.2271,-27.34863 0.053,-16.40918 0.3213,-38.28809 0.3213,-60.167 0,-21.8789 -0.2685,-43.75781 -0.8603,-60.16699 -0.5917,-16.40918 -1.4676,-27.34863 -2.5454,-27.34863 -1.0779,0 -1.28,10.93945 -1.2272,27.34863 0.053,16.40918 0.3214,38.28809 0.3214,60.16699 0,21.87891 -0.2686,43.75782 -0.8603,60.167 -0.5918,16.40918 -1.4676,27.34863 -2.5455,27.34863 -1.0779,0 -1.2799,-10.93945 -1.2272,-27.34863 0.053,-16.40918 0.3214,-38.28809 0.3214,-60.167 0,-21.8789 -0.2686,-43.75781 -0.8603,-60.16699 -0.5917,-16.40918 -1.4676,-27.34863 -2.5455,-27.34863 -1.0779,0 -1.2799,10.93945 -1.2271,27.34863 0.053,16.40918 0.3213,38.28809 0.3213,60.16699 0,21.87891 -0.2685,43.75782 -0.8603,60.167 -0.5917,16.40918 -1.4676,27.34863 -2.5455,27.34863 -1.0779,0 -1.2799,-10.93945 -1.2271,-27.34863 0.053,-16.40918 0.3214,-38.28809 0.3214,-60.167 0,-21.8789 -0.2686,-43.75781 -0.8603,-60.16699 -0.5918,-16.40918 -1.4676,-27.34863 -2.5455,-27.34863 -1.0779,0 -1.28,10.93945 -1.2272,27.34863 0.053,16.40918 0.3214,38.28809 0.3214,60.16699 0,21.87891 -0.2686,43.75782 -0.8603,60.167 -0.5918,16.40918 -1.4676,27.34863 -2.5455,27.34863 -1.0779,0 -1.2799,-10.93945 -1.2271,-27.34863 0.053,-16.40918 0.3213,-38.28809 0.3213,-60.167 0,-21.8789 -0.2685,-43.75781 -0.8603,-60.16699 -0.5917,-16.40918 -1.4676,-27.34863 -2.5455,-27.34863 -1.0779,0 -1.2799,10.93945 -1.2271,27.34863 0.053,16.40918 0.3213,38.28809 0.3213,60.16699 0,21.87891 -0.2685,43.75782 -0.8603,60.167 -0.5917,16.40918 -1.4676,27.34863 -2.5455,27.34863 -1.0778,0 -1.2799,-10.93945 -1.2271,-27.34863 0.053,-16.40918 0.3214,-38.28809 0.3214,-60.167 0,-21.8789 -0.2686,-43.75781 -0.8603,-60.16699 -0.5918,-16.40918 -1.4676,-27.34863 -2.5455,-27.34863 -1.0779,0 -1.4147,10.93945 -1.4966,27.34863 -0.082,16.40918 0.052,38.28809 0.052,60.16699 0,21.87891 -0.1338,43.75782 -0.3213,60.167 -0.1875,16.40918 -0.3897,27.34863 -0.3897,27.34863 m 379.4983,-2.8472 c 0,0 2.0758,2.84725 -2.2358,2.84725 -4.3115,0 0.2417,-8.17062 -3.8275,-19.00627 -2.0347,-5.41783 -2.1349,-0.66626 -2.2823,5.43977 -0.1474,6.10602 -0.3575,13.5665 -2.5133,13.5665 -2.1558,0 -1.939,-7.46014 -1.7335,-16.29934 0.2054,-8.83919 0.3887,-19.05742 -1.6831,-24.57361 -2.0718,-5.51619 -2.2091,4.70205 -2.4473,16.29933 -0.2383,11.59729 -0.6035,24.57362 -2.7592,24.57362 -2.1558,0 -1.7789,-12.97596 -1.4965,-27.35697 0.2824,-14.38101 0.449,-30.16707 -1.6621,-35.78725 -2.111,-5.62019 -2.2052,10.16587 -2.4955,27.35697 -0.1452,8.59555 -0.3389,17.54236 -0.7772,24.34029 -0.4382,6.79792 -1.114,11.44696 -2.1919,11.44696 -2.1558,0 -1.6155,-18.59574 -1.2959,-38.62408 0.1598,-10.01416 0.2695,-20.38648 0.056,-28.97155 -0.2137,-8.58507 -0.7457,-15.38289 -1.822,-18.24808 -1.0763,-2.86519 -1.6084,1.06745 -1.903,8.57808 -0.2946,7.51062 -0.3668,18.59923 -0.5174,30.046 -0.1505,11.44676 -0.381,23.25166 -0.8621,32.19488 -0.4811,8.94322 -1.2007,15.02475 -2.2786,15.02475 -1.0779,0 -1.4351,-6.08142 -1.4855,-15.38627 -0.05,-9.30486 0.1939,-21.83315 0.3514,-34.72691 0.1574,-12.89376 0.2265,-26.15297 -0.041,-36.91968 -0.2678,-10.7667 -0.8632,-19.04089 -1.9616,-21.96459 -1.0984,-2.92369 -1.5855,2.4268 -1.8254,12.09712 -0.2398,9.67031 -0.2547,23.66046 -0.3889,38.01606 -0.1341,14.35561 -0.3895,29.07667 -0.9091,40.20884 -0.5196,11.13217 -1.285,18.67543 -2.3629,18.67543 -1.0779,0 -1.389,-7.54314 -1.4015,-19.04447 -0.012,-11.50134 0.2554,-26.96087 0.3881,-42.79364 0.1327,-15.83278 0.1286,-32.03881 -0.223,-45.03314 -0.3516,-12.99433 -1.0355,-22.77696 -2.1574,-25.76295 -1.1219,-2.98599 -1.5364,4.0219 -1.6914,16.10773 -0.155,12.08583 -0.083,29.2496 -0.1825,46.57538 -0.099,17.32577 -0.3709,34.81354 -0.911,47.54738 -0.5401,12.73383 -1.3183,20.71372 -2.3497,19.02374 -1.0315,-1.68999 -1.2951,-11.35973 -1.2998,-25.1045 -0,-13.74478 0.229,-31.56459 0.2846,-49.55471 0.056,-17.99013 -0.067,-36.15056 -0.5305,-50.57659 -0.463,-14.42603 -1.2468,-25.11765 -2.3937,-28.17015 -1.1469,-3.05249 -1.4983,4.24163 -1.5532,16.7586 -0.055,12.51698 0.1516,30.2568 0.1773,48.09572 0.026,17.83892 -0.1301,35.77692 -0.5862,48.69025 -0.4561,12.91332 -1.1788,20.80197 -2.2104,18.54218 -1.0315,-2.25979 -1.3469,-12.78544 -1.4481,-27.30278 -0.1012,-14.51735 -0.01,-33.02638 -0.1041,-51.25295 -0.094,-18.22656 -0.3701,-36.17065 -0.9249,-49.55809 -0.5548,-13.38745 -1.3625,-22.21826 -2.4404,-22.21826 -1.0779,0 -1.3396,9.11328 -1.3202,22.7832 0.019,13.66992 0.2926,31.89649 0.3795,50.12305 0.087,18.22656 -0.013,36.45312 -0.4404,50.12305 -0.428,13.66992 -1.1573,22.7832 -2.2352,22.7832 -1.0779,0 -1.4265,-9.11328 -1.5375,-22.7832 -0.111,-13.66993 -0.012,-31.89649 -0.098,-50.12305 -0.087,-18.22656 -0.3602,-36.45313 -0.9186,-50.12305 -0.5583,-13.66992 -1.3745,-22.7832 -2.4524,-22.7832 -1.0779,0 -1.4177,6.67781 -1.4599,16.47554 -0.042,9.79774 0.1984,22.7154 0.3444,35.19511 0.1461,12.47972 0.1994,24.52148 -0.062,32.56742 -0.2609,8.04593 -0.8173,12.09604 -1.8892,8.59244 -1.0718,-3.5036 -1.6033,-11.0573 -1.9189,-20.41709 -0.3156,-9.35978 -0.4206,-20.52565 -0.5829,-31.25356 -0.3247,-21.45583 -0.8993,-41.15986 -3.0551,-41.15986 -1.0779,0 -1.4717,4.92611 -1.5648,12.09087 -0.093,7.16477 0.1067,16.5682 0.2526,25.52285 0.1458,8.95465 0.2393,17.46052 0.017,22.83016 -0.222,5.36964 -0.7486,7.60305 -1.8535,4.01279 -2.2098,-7.18051 -2.3862,-23.29468 -2.6698,-37.61372 -0.2836,-14.31904 -0.6492,-26.84295 -2.805,-26.84295 -2.1558,0 -1.8866,9.26021 -1.6512,19.93158 0.2354,10.67138 0.4226,22.75392 -1.6609,28.39859 -2.0836,5.64467 -2.2152,-6.43787 -2.4756,-19.93158 -0.2604,-13.49371 -0.6796,-28.39859 -2.8354,-28.39859 -2.1558,0 -1.7131,15.17832 -1.4071,32.09568 0.153,8.45869 0.2743,17.35213 0.081,25.00043 -0.1935,7.6483 -0.6991,14.05146 -1.7624,17.52956 -1.0633,3.4781 -1.608,0.55305 -1.9162,-5.79097 -0.3081,-6.34401 -0.393,-16.10698 -0.5428,-26.30471 -0.1497,-10.19774 -0.366,-20.83023 -0.8304,-28.9133 -0.4645,-8.08306 -1.1672,-13.61669 -2.2451,-13.61669 -1.0778,0 -1.5733,5.98329 -1.765,14.95822 -0.1916,8.97493 -0.091,20.94151 0.064,32.90808 0.1549,11.96658 0.3642,23.93315 0.5187,32.90809 0.1545,8.97493 0.2658,14.95822 0.2658,14.95822 m 34.4243,13.82989 c 0,0 0.4737,9.0625 0.3549,18.125 -0.1188,9.0625 -0.8302,18.125 -2.986,18.125 -2.1558,0 -1.9834,-9.0625 -1.8645,-18.125 0.1188,-9.0625 0.184,-18.125 -1.9718,-18.125 -2.1557,0 -2.221,9.0625 -2.3398,18.125 -0.1188,9.0625 -0.2913,18.125 -2.4471,18.125 -2.1557,0 -1.9833,-9.0625 -1.8645,-18.125 0.1189,-9.0625 0.1841,-18.125 -1.9717,-18.125 -2.1558,0 -2.7599,9.0625 -2.8788,18.125 -0.1188,9.0625 0.2477,18.125 0.2477,18.125 m -4.3116,-5e-5 c 0,0 0.7114,-9.0625 0.8302,-18.125 0.1189,-9.0625 -0.3549,-18.125 -2.5106,-18.125 -2.1558,0 -2.221,9.0625 -2.3399,18.125 -0.1188,9.0625 -0.2913,18.125 -2.447,18.125 -2.1558,0 -1.9834,-9.0625 -1.8646,-18.125 0.1189,-9.0625 0.1841,-18.125 -1.9717,-18.125 -2.1558,0 -2.221,9.0625 -2.3398,18.125 -0.1189,9.0625 -0.2913,18.125 -2.4471,18.125 -1.0779,0 -1.4265,-9.11328 -1.5375,-22.7832 -0.111,-13.66991 -0.012,-31.89647 -0.098,-50.12302 -0.087,-18.22656 -0.3603,-36.45312 -0.9186,-50.12303 -0.5583,-13.66992 -1.3745,-22.7832 -2.4524,-22.7832 -1.0779,0 -1.3396,9.11328 -1.3202,22.7832 0.019,13.66991 0.2927,31.89647 0.3796,50.12303 0.087,18.22655 -0.013,36.45311 -0.4405,50.12302 -0.4279,13.66992 -1.1572,22.7832 -2.2351,22.7832 -1.0779,0 -1.4274,-9.10666 -1.5397,-22.59851 -0.1122,-13.49184 -0.014,-31.36887 -0.09,-48.90959 -0.076,-17.54072 -0.3228,-34.74513 -0.8306,-46.89175 -0.5078,-12.14662 -1.245,-19.23545 -2.2556,-16.54501 -1.0106,2.69045 -1.3001,12.49827 -1.347,25.94931 -0.047,13.45103 0.1324,30.54527 0.1487,47.80853 0.016,17.26327 -0.1312,34.69556 -0.6124,48.8227 -0.4813,14.12714 -1.2814,24.94913 -2.4582,28.99179 -1.1768,4.04266 -1.5266,-2.73675 -1.556,-15.0087 -0.03,-12.27196 0.2231,-30.03645 0.2931,-47.96394 0.07,-17.92749 -0.044,-36.01799 -0.4695,-48.94196 -0.4255,-12.92396 -1.1267,-20.6814 -2.1555,-17.94277 -1.0288,2.73863 -1.3798,13.01099 -1.5223,26.87904 -0.1424,13.86806 -0.095,31.33181 -0.2089,48.45323 -0.114,17.12143 -0.3878,33.90052 -0.9298,46.39926 -0.542,12.49874 -1.3302,20.71712 -2.4081,20.71712 -1.0779,0 -1.3689,-8.21848 -1.3721,-20.37184 -0,-12.15336 0.2598,-28.2416 0.3788,-43.98114 0.119,-15.73955 0.096,-31.13038 -0.2392,-41.88892 -0.3352,-10.75855 -0.9568,-16.8848 -2.0048,-14.09516 -1.0481,2.78964 -1.4911,11.70552 -1.7247,23.51018 -0.2336,11.80465 -0.2699,26.49808 -0.4176,40.8428 -0.1476,14.34473 -0.4051,28.34075 -0.9134,38.75058 -0.5083,10.40984 -1.2522,17.2335 -2.3301,17.2335 -1.0779,0 -1.413,-6.82376 -1.4506,-16.88166 -0.038,-10.05791 0.2072,-23.34996 0.3523,-36.28654 0.145,-12.93658 0.192,-25.51769 -0.077,-34.15372 -0.2689,-8.63603 -0.8352,-13.32698 -1.9036,-10.48323 -1.0683,2.84374 -1.5842,10.37844 -1.8846,20.08088 -0.3005,9.70243 -0.3928,21.57261 -0.5539,33.08731 -0.1612,11.51471 -0.3901,22.67395 -0.8591,30.95451 -0.4691,8.28056 -1.1688,13.68245 -2.2466,13.68245 -1.0779,0 -1.4571,-5.402 -1.5347,-13.32366 -0.078,-7.92167 0.1367,-18.36301 0.2873,-28.44168 0.1505,-10.07867 0.2384,-19.79468 0.01,-26.2657 -0.2283,-6.47102 -0.7607,-9.69705 -1.8506,-6.79576 -1.0899,2.90129 -1.6582,9.02861 -1.9999,16.58762 -0.3417,7.559 -0.4602,16.54969 -0.6136,25.17772 -0.3067,17.25605 -0.766,33.06146 -2.9218,33.06146 -2.1558,0 -1.7115,-15.80591 -1.4432,-30.1305 0.2683,-14.32458 0.3941,-27.16784 -1.8316,-21.24254 -2.2256,5.9253 -2.4136,18.76856 -2.6594,30.13049 -0.2458,11.36194 -0.5332,21.24255 -2.6889,21.24255 -2.1558,0 -1.8781,-9.88117 -1.6889,-18.24822 0.1892,-8.36704 0.3123,-15.21995 -1.9623,-9.16344 -4.5492,12.11304 -0.6604,27.41166 -4.972,27.41166 -4.3116,0 -1.9092,-9.10388 -1.9092,-9.10388 m 405.0412,9.10388 c 0,0 0.4717,-10.93945 0.9287,-27.34863 0.457,-16.40918 0.8602,-38.28809 0.8602,-60.167 0,-21.8789 -0.4032,-43.75781 -1.1297,-60.16699 -0.7265,-16.40918 -1.7371,-27.34863 -2.815,-27.34863 -1.0779,0 -1.2799,10.93945 -1.2271,27.34863 0.053,16.40918 0.3213,38.28809 0.3213,60.16699 0,21.87891 -0.2685,43.75782 -0.8603,60.167 -0.5917,16.40918 -1.4676,27.34863 -2.5455,27.34863 -1.0779,0 -1.2799,-10.93945 -1.2271,-27.34863 0.053,-16.40918 0.3214,-38.28809 0.3214,-60.167 0,-21.8789 -0.2686,-43.75781 -0.8603,-60.16699 -0.5918,-16.40918 -1.4676,-27.34863 -2.5455,-27.34863 -1.0779,0 -1.28,10.93945 -1.2272,27.34863 0.053,16.40918 0.3214,38.28809 0.3214,60.16699 0,21.87891 -0.2686,43.75782 -0.8603,60.167 -0.5917,16.40918 -1.4676,27.34863 -2.5455,27.34863 -1.0779,0 -1.2799,-10.93945 -1.2271,-27.34863 0.053,-16.40918 0.3213,-38.28809 0.3213,-60.167 0,-21.8789 -0.2685,-43.75781 -0.8603,-60.16699 -0.5917,-16.40918 -1.4676,-27.34863 -2.5455,-27.34863 -1.0779,0 -1.2799,10.93945 -1.2271,27.34863 0.053,16.40918 0.3213,38.28809 0.3213,60.16699 0,21.87891 -0.2685,43.75782 -0.8603,60.167 -0.5917,16.40918 -1.4676,27.34863 -2.5454,27.34863 -1.0779,0 -1.28,-10.93945 -1.2272,-27.34863 0.053,-16.40918 0.3214,-38.28809 0.3214,-60.167 0,-21.8789 -0.2686,-43.75781 -0.8603,-60.16699 -0.5918,-16.40918 -1.4676,-27.34863 -2.5455,-27.34863 -1.0779,0 -1.2799,10.93945 -1.2272,27.34863 0.053,16.40918 0.3214,38.28809 0.3214,60.16699 0,21.87891 -0.2686,43.75782 -0.8603,60.167 -0.5917,16.40918 -1.4676,27.34863 -2.5455,27.34863 -1.0779,0 -1.2799,-10.93945 -1.2271,-27.34863 0.053,-16.40918 0.3213,-38.28809 0.3213,-60.167 0,-21.8789 -0.2685,-43.75781 -0.8603,-60.16699 -0.5917,-16.40918 -1.4676,-27.34863 -2.5455,-27.34863 -1.0779,0 -1.1557,15.03029 -1.0773,35.53031 0.039,10.25001 0.1136,21.86746 0.1504,33.65726 0.037,11.7898 0.036,23.75196 -0.023,34.69142 -0.1169,21.8789 -0.4659,39.66697 -0.8166,43.80363 -0.1754,2.06833 -0.3454,0.7238 -0.5418,-5.22864 -0.1964,-5.95245 -0.4121,-16.51281 -0.8332,-32.87618 -0.4211,-16.36336 -0.8516,-30.34803 -1.2336,-42.29301 -0.3821,-11.94499 -0.7165,-21.85027 -0.9859,-30.05486 -0.5389,-16.40918 -0.802,-26.01557 -0.9493,-31.53111 -0.1473,-5.51555 -0.1932,-6.94025 -0.464,-6.98607 -0.2708,-0.0458 -0.7714,1.28725 -1.8493,1.28725 -2.1558,0 -1.7793,12.86229 -1.4894,27.71804 0.29,14.85574 0.4652,31.70494 -1.6382,39.67875 -1.0517,3.9869 -1.6007,1.76805 -1.9137,-3.80285 -0.313,-5.5709 -0.4024,-14.49387 -0.5495,-23.91519 -0.1472,-9.42133 -0.3538,-19.34101 -0.8078,-26.90537 -0.454,-7.56435 -1.1467,-12.77338 -2.2246,-12.77338 -1.0778,0 -1.4617,5.21049 -1.5353,13.29426 -0.074,8.08377 0.1542,19.04082 0.3181,30.53394 0.1639,11.49313 0.2622,23.52233 0.026,33.7504 -0.2363,10.22807 -0.8017,18.65501 -1.8978,22.94361 -1.0961,4.2886 -1.6054,0.15027 -1.8621,-8.46958 -0.2567,-8.61984 -0.2839,-21.72119 -0.4212,-35.35862 -0.1372,-13.63743 -0.3871,-27.81093 -0.9004,-38.57508 -0.5133,-10.76414 -1.2724,-18.11893 -2.3503,-18.11893 -1.0779,0 -1.3946,7.35815 -1.4097,18.67748 -0.015,11.31933 0.2537,26.59984 0.3902,42.44457 0.1365,15.84473 0.1382,32.25367 -0.2174,45.82986 -0.3556,13.57619 -1.0559,24.31962 -2.2049,28.83334 -1.149,4.51371 -1.5678,-1.73695 -1.7044,-13.41083 -0.1366,-11.67387 -0.029,-28.77097 -0.091,-45.95012 -0.062,-17.17916 -0.2948,-34.44037 -0.7897,-46.44249 -0.4948,-12.00212 -1.2153,-18.74515 -2.202,-14.88792 -0.9868,3.85723 -1.2722,14.66585 -1.3396,28.89512 -0.067,14.22926 0.068,31.87916 0.034,49.41893 -0.034,17.53977 -0.2358,34.96941 -0.7512,48.75816 -0.5155,13.78874 -1.3275,23.93659 -2.4847,26.91278 -1.1571,2.97618 -1.4837,-4.19596 -1.494,-16.3786 -0.01,-12.18264 0.2623,-29.37578 0.3667,-46.44159 0.1044,-17.06581 0.042,-34.00428 -0.3306,-45.67759 -0.3721,-11.67332 -1.0181,-18.08147 -2.0425,-14.08662 -1.0244,3.99484 -1.4344,14.02581 -1.6446,26.82517 -0.2101,12.79935 -0.2323,28.3671 -0.3761,43.43548 -0.1438,15.06839 -0.4072,29.63742 -0.9223,40.43935 -0.5152,10.80193 -1.2661,17.83677 -2.344,17.83677 -1.0778,0 -1.4066,-7.03542 -1.4402,-17.32921 -0.034,-10.29379 0.2117,-23.84595 0.3534,-36.87944 0.1417,-13.03348 0.1823,-25.54828 -0.088,-33.76735 -0.2708,-8.21908 -0.8315,-12.14242 -1.898,-7.99298 -1.0664,4.14944 -1.5919,12.22221 -1.9046,21.99733 -0.3127,9.77511 -0.4175,21.25255 -0.5812,32.21131 -0.3273,21.91753 -0.9083,41.76034 -3.0641,41.76034 -2.1558,0 -1.6615,-17.20658 -1.3578,-34.88986 0.1519,-8.84165 0.2621,-17.80247 0.056,-24.79124 -0.206,-6.98877 -0.7227,-12.00548 -1.796,-12.95891 -2.1465,-1.90685 -2.2211,16.25315 -2.5239,34.88986 -0.1513,9.31836 -0.3538,18.7559 -0.7987,25.86385 -0.445,7.10794 -1.1249,11.8863 -2.2028,11.8863 -1.0779,0 -1.4631,-5.16719 -1.5381,-13.18309 -0.075,-8.0159 0.1516,-18.88049 0.3155,-30.2753 0.1638,-11.3948 0.2634,-23.31981 0.029,-33.45654 -0.2344,-10.13673 -0.7973,-18.48517 -1.892,-22.72683 -1.0947,-4.24167 -1.6055,-0.13489 -1.8646,8.41121 -0.2591,8.54611 -0.2892,21.53154 -0.4274,35.04717 -0.1382,13.51564 -0.3873,27.56148 -0.899,38.22842 -0.5117,10.66693 -1.2687,17.95496 -2.3466,17.95496 -1.0779,0 -1.3968,-7.28705 -1.4138,-18.49517 -0.017,-11.20812 0.2508,-26.33733 0.3891,-42.02164 0.1382,-15.68431 0.1444,-31.92372 -0.2055,-45.35228 -0.3499,-13.42856 -1.0436,-24.04626 -2.1894,-28.48713 -1.1458,-4.44087 -1.5659,1.89631 -1.708,13.65847 -0.142,11.76215 -0.044,28.94928 -0.1174,46.20828 -0.073,17.259 -0.3187,34.58989 -0.8228,46.63956 -0.5042,12.04968 -1.2303,18.81815 -2.214,14.95232 -0.9838,-3.86583 -1.2619,-14.65898 -1.319,-28.88637 -0.057,-14.22738 0.091,-31.889 0.07,-49.49177 -0.022,-17.60276 -0.2128,-35.14667 -0.7239,-49.13863 -0.5111,-13.99195 -1.3258,-24.43197 -2.4932,-27.82694 -1.1673,-3.39498 -1.4984,3.65128 -1.509,15.88107 -0.011,12.22979 0.2636,29.64311 0.3647,46.98227 0.1011,17.33915 0.03,34.60415 -0.3516,46.53728 -0.3811,11.93314 -1.0353,18.53441 -2.057,14.54613 -1.0216,-3.98828 -1.4222,-14.15347 -1.6235,-27.15784 -0.2013,-13.00436 -0.2156,-28.84792 -0.3565,-44.19293 -0.1409,-15.34502 -0.4062,-30.1915 -0.9248,-41.20173 -0.5187,-11.01023 -1.274,-18.1842 -2.3518,-18.1842 -1.0779,0 -1.4023,7.17562 -1.4323,17.67929 -0.03,10.50366 0.2175,24.33539 0.3574,37.6476 0.1398,13.31221 0.1746,26.10492 -0.1013,34.53055 -0.2759,8.42563 -0.8406,12.48419 -1.904,8.32811 -1.0634,-4.15608 -1.5825,-12.37071 -1.89,-22.35487 -0.3076,-9.98416 -0.4089,-21.73784 -0.5727,-32.97202 -0.3275,-22.46835 -0.9245,-42.85866 -3.0803,-42.85866 -1.0779,0 -1.4665,5.09995 -1.5553,12.47567 -0.089,7.37572 0.1138,17.02721 0.2591,26.13029 0.1453,9.10308 0.2354,17.65775 0.01,22.83983 -0.2253,5.18208 -0.7537,6.99158 -1.8652,2.6043 -2.223,-8.77455 -2.4148,-24.78707 -2.6948,-38.60596 -0.2799,-13.81888 -0.6211,-25.44413 -2.7769,-25.44413 -2.1558,0 -2.34,-6.76439 -2.063,3.31196 0.1385,5.03817 0.4033,14.28653 0.4204,30.69571 0.01,8.20459 -0.049,18.19939 -0.2602,30.35322 -0.2113,12.15383 -0.5754,26.4667 -1.2251,43.30743 -0.6497,16.84073 -1.2456,27.78896 -1.6596,34.05468 -0.414,6.26572 -0.6536,7.84893 -0.7512,5.95962 -0.1953,-3.77863 0.1548,-21.44736 0.275,-43.32626 0.06,-10.93946 0.063,-22.93145 -0.04,-34.76601 -0.1029,-11.83456 -0.3115,-23.51167 -0.6204,-33.82135 -0.6177,-20.61936 -1.6214,-35.769 -2.6993,-35.769 -1.0779,0 -1.2799,10.93945 -1.2271,27.34863 0.053,16.40918 0.3213,38.28809 0.3213,60.16699 0,21.87891 -0.2685,43.75782 -0.8603,60.167 -0.5917,16.40918 -1.4676,27.34863 -2.5455,27.34863 -1.0778,0 -1.2799,-10.93945 -1.2271,-27.34863 0.053,-16.40918 0.3214,-38.28809 0.3214,-60.167 0,-21.8789 -0.2686,-43.75781 -0.8603,-60.16699 -0.5918,-16.40918 -1.4676,-27.34863 -2.5455,-27.34863 -1.0779,0 -1.2799,10.93945 -1.2272,27.34863 0.053,16.40918 0.3214,38.28809 0.3214,60.16699 0,21.87891 -0.2686,43.75782 -0.8603,60.167 -0.5917,16.40918 -1.4676,27.34863 -2.5455,27.34863 -1.0779,0 -1.2799,-10.93945 -1.2271,-27.34863 0.053,-16.40918 0.3213,-38.28809 0.3213,-60.167 0,-21.8789 -0.2685,-43.75781 -0.8603,-60.16699 -0.5917,-16.40918 -1.4676,-27.34863 -2.5455,-27.34863 -1.0779,0 -1.2799,10.93945 -1.2271,27.34863 0.053,16.40918 0.3213,38.28809 0.3213,60.16699 0,21.87891 -0.2685,43.75782 -0.8602,60.167 -0.5918,16.40918 -1.4676,27.34863 -2.5455,27.34863 -1.0779,0 -1.28,-10.93945 -1.2272,-27.34863 0.053,-16.40918 0.3214,-38.28809 0.3214,-60.167 0,-21.8789 -0.2686,-43.75781 -0.8603,-60.16699 -0.5918,-16.40918 -1.4676,-27.34863 -2.5455,-27.34863 -1.0779,0 -1.2799,10.93945 -1.2271,27.34863 0.053,16.40918 0.3213,38.28809 0.3213,60.16699 0,21.87891 -0.2686,43.75782 -0.8603,60.167 -0.5917,16.40918 -1.4676,27.34863 -2.5455,27.34863 -1.0779,0 -1.2789,-10.9724 -1.2258,-27.41454 0.053,-16.44213 0.321,-38.35398 0.32,-60.23289 -9e-4,-21.87891 -0.2705,-43.72486 -0.8603,-60.03519 -0.5898,-16.31032 -1.46,-27.08502 -2.5304,-26.82141 -1.0704,0.26361 -1.4098,11.23601 -1.4975,27.54634 -0.088,16.31033 0.039,37.95857 0.038,59.57387 -9e-4,21.6153 -0.1289,43.19764 -0.3085,59.37616 -0.1795,16.17852 -0.3726,26.95322 -0.3726,26.95322 m 380.2393,-37.00806 c 0,0 0.3853,9.51563 0.1726,19.03125 -0.2127,9.51563 -1.0235,19.03125 -3.1793,19.03125 -2.1558,0 -1.8839,-9.51562 -1.6712,-19.03125 0.2127,-9.51562 0.3663,-19.03125 -1.7895,-19.03125 -2.1558,0 -2.3094,9.51563 -2.5221,19.03125 -0.2127,9.51563 -0.4845,19.03125 -2.6403,19.03125 -2.1558,0 -1.884,-9.51562 -1.6713,-19.03125 0.2127,-9.51562 0.3663,-19.03125 -1.7894,-19.03125 -2.1558,0 -2.3094,9.51563 -2.5222,19.03125 -0.2127,9.51563 -0.4845,19.03125 -2.6403,19.03125 -2.1558,0 -1.8839,-9.51562 -1.6712,-19.03125 0.2127,-9.51562 0.3663,-19.03125 -1.7895,-19.03125 -2.1558,0 -2.3094,9.51563 -2.5221,19.03125 -0.2127,9.51563 -0.4845,19.03125 -2.6403,19.03125 -2.1558,0 -1.884,-9.51562 -1.6713,-19.03125 0.2127,-9.51562 0.3664,-19.03125 -1.7894,-19.03125 -2.1558,0 -2.3094,9.51563 -2.5221,19.03125 -0.2128,9.51563 -0.4846,19.03125 -2.6404,19.03125 -2.1558,0 -1.8839,-9.51562 -1.6712,-19.03125 0.2127,-9.51562 0.3663,-19.03125 -1.7895,-19.03125 -2.1558,0 -2.3094,9.51563 -2.5221,19.03125 -0.2127,9.51563 -0.4845,19.03125 -2.6403,19.03125 -2.1558,0 -1.884,-9.51562 -1.6713,-19.03125 0.2128,-9.51562 0.3664,-19.03125 -1.7894,-19.03125 -2.1558,0 -2.3094,9.51563 -2.5221,19.03125 -0.2127,9.51563 -0.4846,19.03125 -2.6404,19.03125 -2.1557,0 -1.8839,-9.51562 -1.6712,-19.03125 0.2127,-9.51562 0.3663,-19.03125 -1.7895,-19.03125 -2.1558,0 -2.3094,9.51563 -2.5221,19.03125 -0.2127,9.51563 -0.4845,19.03125 -2.6403,19.03125 -2.1558,0 -1.884,-9.51562 -1.6712,-19.03125 0.2127,-9.51562 0.3663,-19.03125 -1.7895,-19.03125 -2.1558,0 -2.3094,9.51563 -2.5221,19.03125 -0.2127,9.51563 -0.4846,19.03125 -2.6403,19.03125 -2.1558,0 -1.884,-9.51562 -1.6713,-19.03125 0.2127,-9.51562 0.3663,-19.03125 -1.7895,-19.03125 -2.1557,0 -2.3093,9.51563 -2.5221,19.03125 -0.2127,9.51563 -0.4845,19.03125 -2.6403,19.03125 -2.1558,0 -1.8839,-9.51562 -1.6712,-19.03125 0.2127,-9.51562 0.3663,-19.03125 -1.7895,-19.03125 -2.1558,0 -2.3094,9.51563 -2.5221,19.03125 -0.2127,9.51563 -0.4845,19.03125 -2.6403,19.03125 -2.1558,0 -2.4229,-9.51562 -2.2102,-19.03125 0.2127,-9.51562 0.9052,-19.03125 0.9052,-19.03125 m 85.3806,-136.96875 c 0,0 0.7947,8.95312 0.9982,17.90625 0.2034,8.95312 -0.1845,17.90625 -2.3402,17.90625 -2.1558,0 -2.3069,-8.95313 -2.5104,-17.90625 -0.2034,-8.95313 -0.4591,-17.90625 -2.6149,-17.90625 -2.1558,0 -1.9001,8.95312 -1.6966,17.90625 0.2034,8.95312 0.3545,17.90625 -1.8013,17.90625 -2.1558,0 -2.3069,-8.95313 -2.5103,-17.90625 -0.2034,-8.95313 -0.4592,-17.90625 -2.615,-17.90625 -2.1558,0 -1.9,8.95312 -1.6966,17.90625 0.2035,8.95312 0.3545,17.90625 -1.8012,17.90625 -2.1558,0 -2.3069,-8.95313 -2.5103,-17.90625 -0.2035,-8.95313 -0.4592,-17.90625 -2.615,-17.90625 -2.1558,0 -1.9001,8.95312 -1.6966,17.90625 0.2034,8.95312 0.3545,17.90625 -1.8013,17.90625 -2.1558,0 -2.3069,-8.95313 -2.5103,-17.90625 -0.2034,-8.95313 -0.4592,-17.90625 -2.615,-17.90625 -2.1558,0 -1.9,8.95312 -1.6966,17.90625 0.2035,8.95312 0.3546,17.90625 -1.8012,17.90625 -2.1558,0 -2.3069,-8.95313 -2.5103,-17.90625 -0.2035,-8.95313 -0.4592,-17.90625 -2.615,-17.90625 -2.1558,0 -1.9,8.95312 -1.6966,17.90625 0.2034,8.95312 0.3545,17.90625 -1.8013,17.90625 -2.1558,0 -2.3069,-8.95313 -2.5103,-17.90625 -0.2034,-8.95313 -0.4592,-17.90625 -2.615,-17.90625 -2.1557,0 -1.9,8.95312 -1.6966,17.90625 0.2035,8.95312 0.3546,17.90625 -1.8012,17.90625 -2.1558,0 -2.3069,-8.95313 -2.5103,-17.90625 -0.2035,-8.95313 -0.4592,-17.90625 -2.615,-17.90625 -2.1558,0 -1.9,8.95312 -1.6966,17.90625 0.2034,8.95312 0.3545,17.90625 -1.8013,17.90625 -2.1557,0 -2.3068,-8.95313 -2.5103,-17.90625 -0.2034,-8.95313 -0.4592,-17.90625 -2.6149,-17.90625 -2.1558,0 -1.9001,8.95312 -1.6966,17.90625 0.2034,8.95312 0.3545,17.90625 -1.8013,17.90625 -2.1558,0 -2.3069,-8.95313 -2.5103,-17.90625 -0.2034,-8.95313 -0.4592,-17.90625 -2.615,-17.90625 -2.1558,0 -1.9,8.95312 -1.6966,17.90625 0.2034,8.95312 0.3545,17.90625 -1.8012,17.90625 -2.1558,0 -2.3069,-8.95313 -2.5104,-17.90625 -0.2034,-8.95313 -0.4591,-17.90625 -2.6149,-17.90625 -2.1558,0 -2.439,8.95312 -2.2356,17.90625 0.2035,8.95312 0.8935,17.90625 0.8935,17.90625 m 77.9686,30.125 c 0,0 0.599,8.53125 0.6116,17.0625 0.013,8.53125 -0.5613,17.0625 -2.7171,17.0625 -2.1558,0 -2.1208,-8.53125 -2.1334,-17.0625 -0.013,-8.53125 -0.073,-17.0625 -2.2285,-17.0625 -2.1558,0 -2.0957,8.53125 -2.0831,17.0625 0.013,8.53125 -0.022,17.0625 -2.1781,17.0625 -2.1558,0 -2.1209,-8.53125 -2.1335,-17.0625 -0.013,-8.53125 -0.073,-17.0625 -2.2284,-17.0625 -2.1558,0 -2.0957,8.53125 -2.0831,17.0625 0.013,8.53125 -0.022,17.0625 -2.1782,17.0625 -2.1558,0 -2.1208,-8.53125 -2.1334,-17.0625 -0.013,-8.53125 -0.073,-17.0625 -2.2285,-17.0625 -2.1557,0 -2.0957,8.53125 -2.0831,17.0625 0.013,8.53125 -0.022,17.0625 -2.1781,17.0625 -2.1558,0 -2.1209,-8.53125 -2.1335,-17.0625 -0.012,-8.53125 -0.073,-17.0625 -2.2284,-17.0625 -2.1558,0 -2.0957,8.53125 -2.0831,17.0625 0.013,8.53125 -0.022,17.0625 -2.1782,17.0625 -2.1558,0 -2.1208,-8.53125 -2.1334,-17.0625 -0.013,-8.53125 -0.073,-17.0625 -2.2284,-17.0625 -2.1558,0 -2.0957,8.53125 -2.0832,17.0625 0.013,8.53125 -0.022,17.0625 -2.1781,17.0625 -2.1558,0 -2.1209,-8.53125 -2.1334,-17.0625 -0.013,-8.53125 -0.073,-17.0625 -2.2285,-17.0625 -2.1558,0 -2.0957,8.53125 -2.0831,17.0625 0.013,8.53125 -0.022,17.0625 -2.1782,17.0625 -2.1557,0 -2.1208,-8.53125 -2.1334,-17.0625 -0.013,-8.53125 -0.073,-17.0625 -2.2284,-17.0625 -2.1558,0 -2.0957,8.53125 -2.0832,17.0625 0.013,8.53125 -0.022,17.0625 -2.1781,17.0625 -2.1558,0 -2.1209,-8.53125 -2.1334,-17.0625 -0.013,-8.53125 -0.073,-17.0625 -2.2285,-17.0625 -2.1558,0 -2.0957,8.53125 -2.0831,17.0625 0.013,8.53125 -0.022,17.0625 -2.1782,17.0625 -2.1557,0 -2.1208,-8.53125 -2.1334,-17.0625 -0.013,-8.53125 -0.073,-17.0625 -2.2284,-17.0625 -2.1558,0 -2.6347,8.53125 -2.6221,17.0625 0.013,8.53125 0.5166,17.0625 0.5166,17.0625 m -5.5359,-100.0625 c 0,0 0.4717,10.93945 0.9287,27.34863 0.457,16.40918 0.8603,38.28809 0.8603,60.16699 0,21.87891 -0.4033,43.75782 -1.1298,60.167 -0.7265,16.40918 -1.7371,27.34863 -2.815,27.34863 -1.0779,0 -1.2799,-10.93945 -1.2271,-27.34863 0.053,-16.40918 0.3213,-38.28809 0.3213,-60.167 0,-21.8789 -0.2685,-43.75781 -0.8603,-60.16699 -0.5917,-16.40918 -1.4676,-27.34863 -2.5454,-27.34863 -1.0779,0 -1.28,10.93945 -1.2272,27.34863 0.053,16.40918 0.3214,38.28809 0.3214,60.16699 0,21.87891 -0.2686,43.75782 -0.8603,60.167 -0.5918,16.40918 -1.4676,27.34863 -2.5455,27.34863 -1.0779,0 -1.2799,-10.93945 -1.2272,-27.34863 0.053,-16.40918 0.3214,-38.28809 0.3214,-60.167 0,-21.8789 -0.2686,-43.75781 -0.8603,-60.16699 -0.5917,-16.40918 -1.4676,-27.34863 -2.5455,-27.34863 -1.0779,0 -1.2799,10.93945 -1.2271,27.34863 0.053,16.40918 0.3213,38.28809 0.3213,60.16699 0,21.87891 -0.2685,43.75782 -0.8603,60.167 -0.5917,16.40918 -1.4676,27.34863 -2.5455,27.34863 -1.0779,0 -1.2799,-10.93945 -1.2271,-27.34863 0.053,-16.40918 0.3214,-38.28809 0.3214,-60.167 0,-21.8789 -0.2686,-43.75781 -0.8603,-60.16699 -0.5918,-16.40918 -1.4676,-27.34863 -2.5455,-27.34863 -1.0779,0 -1.28,10.93945 -1.2272,27.34863 0.053,16.40918 0.3214,38.28809 0.3214,60.16699 0,21.87891 -0.2686,43.75782 -0.8603,60.167 -0.5918,16.40918 -1.4676,27.34863 -2.5455,27.34863 -1.0779,0 -1.2799,-10.93945 -1.2271,-27.34863 0.053,-16.40918 0.3213,-38.28809 0.3213,-60.167 0,-21.8789 -0.2685,-43.75781 -0.8603,-60.16699 -0.5917,-16.40918 -1.4676,-27.34863 -2.5455,-27.34863 -1.0779,0 -1.2799,10.93945 -1.2271,27.34863 0.053,16.40918 0.3213,38.28809 0.3213,60.16699 0,21.87891 -0.2685,43.75782 -0.8603,60.167 -0.5917,16.40918 -1.4676,27.34863 -2.5455,27.34863 -1.0778,0 -1.2799,-10.93945 -1.2271,-27.34863 0.053,-16.40918 0.3214,-38.28809 0.3214,-60.167 0,-21.8789 -0.2686,-43.75781 -0.8603,-60.16699 -0.5918,-16.40918 -1.4676,-27.34863 -2.5455,-27.34863 -1.0779,0 -1.2799,10.93945 -1.2272,27.34863 0.053,16.40918 0.3214,38.28809 0.3214,60.16699 0,21.87891 -0.2686,43.75782 -0.8603,60.167 -0.5917,16.40918 -1.4676,27.34863 -2.5455,27.34863 -1.0779,0 -1.245,-12.08914 -1.1828,-29.648 0.062,-17.55886 0.3064,-40.58745 0.2736,-62.46636 -0.033,-21.87891 -0.3329,-42.60813 -0.8569,-55.56826 -0.262,-6.48006 -0.5725,-11.01785 -0.9178,-12.78594 -0.3452,-1.76809 -0.7222,-0.76648 -1.1574,3.83225 -0.8704,9.19748 -1.3179,21.28661 -1.5745,34.24674 -0.2567,12.96013 -0.3249,26.79125 -0.344,39.47268 -0.038,25.36287 0.1225,46.127 0.1225,46.127 M 2165.5957,304.8437 c 0,0 0.4717,10.93945 0.9287,27.34863 0.457,16.40918 0.8603,38.28809 0.8603,60.16699 0,21.87891 -0.4033,43.75782 -1.1298,60.167 -0.7265,16.40918 -1.7371,27.34863 -2.815,27.34863 -1.0779,0 -1.2799,-10.93945 -1.2271,-27.34863 0.053,-16.40918 0.3213,-38.28809 0.3213,-60.167 0,-21.8789 -0.2685,-43.75781 -0.8603,-60.16699 -0.5917,-16.40918 -1.4676,-27.34863 -2.5455,-27.34863 -1.0778,0 -1.2799,10.93945 -1.2271,27.34863 0.053,16.40918 0.3214,38.28809 0.3214,60.16699 0,21.87891 -0.2686,43.75782 -0.8603,60.167 -0.5918,16.40918 -1.4676,27.34863 -2.5455,27.34863 -1.0779,0 -1.2799,-10.93945 -1.2272,-27.34863 0.053,-16.40918 0.3214,-38.28809 0.3214,-60.167 0,-21.8789 -0.2686,-43.75781 -0.8603,-60.16699 -0.5917,-16.40918 -1.4676,-27.34863 -2.5455,-27.34863 -1.0779,0 -1.2799,10.93945 -1.2271,27.34863 0.053,16.40918 0.3213,38.28809 0.3213,60.16699 0,21.87891 -0.2685,43.75782 -0.8603,60.167 -0.5917,16.40918 -1.4676,27.34863 -2.5455,27.34863 -1.0779,0 -1.2799,-10.93945 -1.2271,-27.34863 0.053,-16.40918 0.3213,-38.28809 0.3213,-60.167 0,-21.8789 -0.2685,-43.75781 -0.8602,-60.16699 -0.5918,-16.40918 -1.4676,-27.34863 -2.5455,-27.34863 -1.0779,0 -1.28,10.93945 -1.2272,27.34863 0.053,16.40918 0.3214,38.28809 0.3214,60.16699 0,21.87891 -0.2686,43.75782 -0.8603,60.167 -0.5918,16.40918 -1.4676,27.34863 -2.5455,27.34863 -1.0779,0 -1.2799,-10.93945 -1.2271,-27.34863 0.053,-16.40918 0.3213,-38.28809 0.3213,-60.167 0,-21.8789 -0.2686,-43.75781 -0.8603,-60.16699 -0.5917,-16.40918 -1.4676,-27.34863 -2.5455,-27.34863 -1.0779,0 -1.2799,10.93945 -1.2271,27.34863 0.053,16.40918 0.3213,38.28809 0.3213,60.16699 0,21.87891 -0.2685,43.75782 -0.8603,60.167 -0.5917,16.40918 -1.4676,27.34863 -2.5455,27.34863 -1.0778,0 -1.2799,-10.93945 -1.2271,-27.34863 0.053,-16.40918 0.3214,-38.28809 0.3214,-60.167 0,-21.8789 -0.2686,-43.75781 -0.8603,-60.16699 -0.5918,-16.40918 -1.4676,-27.34863 -2.5455,-27.34863 -1.0779,0 -1.28,10.93945 -1.2272,27.34863 0.053,16.40918 0.3214,38.28809 0.3214,60.16699 0,21.87891 -0.2686,43.75782 -0.8603,60.167 -0.5917,16.40918 -1.4676,27.34863 -2.5455,27.34863 -1.0779,0 -1.1947,-13.76041 -1.1225,-32.93488 0.036,-9.58723 0.1155,-20.52798 0.1655,-31.77894 0.05,-11.25097 0.07,-22.81215 0.032,-33.64026 -0.077,-21.65622 -0.3999,-40.38013 -0.8119,-47.82537 -0.206,-3.72263 -0.4275,-4.62559 -0.6724,-1.66558 -0.2448,2.96 -0.5079,9.78296 -0.8982,21.51218 -0.7806,23.45844 -1.3323,42.93615 -1.706,58.86203 -0.3736,15.92587 -0.5713,28.29991 -0.7453,37.55099 -0.1739,9.25108 -0.3258,15.3792 -0.6809,18.81325 -0.3551,3.43405 -0.915,4.17402 -1.9535,2.6488 -1.0385,-1.52522 -1.4373,-6.92027 -1.5516,-14.25417 -0.1144,-7.3339 0.051,-16.60665 0.1687,-25.88725 0.1179,-9.2806 0.1885,-18.56906 -0.05,-25.93439 -0.2383,-7.36534 -0.7805,-12.80753 -1.8591,-14.39562 -1.0787,-1.58808 -1.6096,2.26606 -1.895,8.84472 -0.2855,6.57866 -0.3351,15.88186 -0.4342,25.1919 -0.099,9.31004 -0.2479,18.62693 -0.6421,25.23298 -0.3942,6.60606 -1.0243,10.50128 -2.0688,8.96798 -1.0444,-1.53329 -1.464,-6.96178 -1.607,-14.34181 -0.1431,-7.38003 -0.015,-16.71159 0.066,-26.05103 0.081,-9.33945 0.1132,-18.68677 -0.1555,-26.09832 -0.2686,-7.41155 -0.8337,-12.88731 -1.9189,-14.48365 -1.0853,-1.59633 -1.6,2.28312 -1.8582,8.90386 -0.2581,6.62075 -0.2694,15.9828 -0.3309,25.35166 -0.062,9.36887 -0.1732,18.74455 -0.5414,25.39256 -0.3682,6.64802 -0.9832,10.56836 -2.0336,9.02656 -1.0505,-1.54181 -1.4912,-7.00393 -1.6635,-14.43019 -0.1723,-7.42626 -0.081,-16.81666 -0.039,-26.21501 0.043,-9.39835 0.037,-18.80467 -0.263,-26.26275 -0.2996,-7.45809 -0.8879,-12.96795 -1.9799,-14.57341 -1.092,-1.60546 -1.5902,2.29896 -1.8206,8.96173 -0.2303,6.66278 -0.2027,16.08391 -0.2258,25.51188 -0.023,9.42797 -0.097,18.86278 -0.4387,25.5529 -0.3417,6.69013 -0.9413,10.63557 -1.9979,9.0848 -1.0565,-1.55077 -1.5189,-7.04694 -1.7209,-14.51987 -0.2021,-7.47292 -0.149,-16.9226 -0.1451,-26.38037 0,-9.45777 -0.041,-18.92363 -0.3727,-26.42892 -0.3311,-7.5053 -0.943,-13.05003 -2.0419,-14.66553 -1.0989,-1.6155 -1.5803,2.31374 -1.7823,9.0188 -0.202,6.70507 -0.1347,16.18597 -0.1188,25.67378 0.016,9.48781 -0.019,18.98253 -0.3341,25.71524 -0.3147,6.73272 -0.8986,10.70344 -1.9614,9.14323 -1.0627,-1.5602 -1.547,-7.09109 -1.7794,-14.61146 -0.2324,-7.52038 -0.2181,-17.03024 -0.2537,-26.54839 -0.036,-9.51815 -0.1211,-19.04459 -0.4843,-26.59812 -0.3633,-7.55353 -0.9993,-13.13416 -2.1052,-14.76068 -1.106,-1.62652 -1.5702,2.3276 -1.7433,9.07557 -0.1732,6.74796 -0.065,16.28977 -0.01,25.83863 0.056,9.54885 0.059,19.10476 -0.2277,25.88091 -0.2871,6.77616 -0.855,10.77256 -1.9241,9.20242 -1.0691,-1.57014 -1.5757,-7.13665 -1.8391,-14.70563 -0.2633,-7.56897 -0.2885,-17.14041 -0.3643,-26.72041 -0.076,-9.57999 -0.2022,-19.16853 -0.5983,-26.77172 -0.396,-7.60319 -1.0566,-13.22103 -2.1697,-14.8596 -1.1132,-1.63857 -1.5599,2.34071 -1.7036,9.13254 -0.1437,6.79183 0.01,16.39621 0.1018,26.00784 0.096,9.61162 0.1401,19.23049 -0.119,26.0513 -0.259,6.82082 -0.8106,10.84357 -1.8861,9.26297 -1.0756,-1.5806 -1.6051,-7.18393 -1.9,-14.80306 -0.2948,-7.61913 -0.3604,-17.25406 -0.4772,-26.89789 -0.1168,-9.64382 -0.285,-19.29653 -0.7145,-26.95122 -0.4296,-7.65469 -1.1153,-13.31135 -2.2358,-14.96307 -1.1205,-1.65172 -1.5494,2.35324 -1.663,9.1903 -0.1136,6.83705 0.078,16.5062 0.2155,26.18287 0.1379,9.67666 0.2224,19.36083 -0.01,26.22794 -0.2304,6.8671 -0.7654,10.91713 -1.8475,9.32551 -1.0821,-1.59162 -1.6353,-7.35076 -1.9634,-15.09419 -0.3281,-7.74343 -0.4367,-17.47114 -0.5929,-26.9999 -0.3122,-19.05751 -0.8387,-37.31922 -2.9945,-37.31922 -1.0779,0 -1.2799,10.93945 -1.2272,27.34863 0.053,16.40918 0.3214,38.28809 0.3214,60.16699 0,21.87891 -0.2686,43.75782 -0.8603,60.167 -0.5917,16.40918 -1.4676,27.34863 -2.5455,27.34863 -1.0779,0 -1.2799,-10.93945 -1.2271,-27.34863 0.053,-16.40918 0.3213,-38.28809 0.3213,-60.167 0,-21.8789 -0.2685,-43.75781 -0.8603,-60.16699 -0.5917,-16.40918 -1.4676,-27.34863 -2.5455,-27.34863 -1.0779,0 -1.2799,10.93945 -1.2271,27.34863 0.053,16.40918 0.3213,38.28809 0.3213,60.16699 0,21.87891 -0.2685,43.75782 -0.8602,60.167 -0.5918,16.40918 -1.4676,27.34863 -2.5455,27.34863 -1.0779,0 -1.28,-10.93945 -1.2272,-27.34863 0.053,-16.40918 0.3214,-38.28809 0.3214,-60.167 0,-21.8789 -0.2686,-43.75781 -0.8603,-60.16699 -0.5918,-16.40918 -1.4676,-27.34863 -2.5455,-27.34863 -1.0779,0 -1.2799,10.93945 -1.2271,27.34863 0.053,16.40918 0.3213,38.28809 0.3213,60.16699 0,21.87891 -0.2686,43.75782 -0.8603,60.167 -0.5917,16.40918 -1.4676,27.34863 -2.5455,27.34863 -1.0779,0 -1.2799,-10.93945 -1.2271,-27.34863 0.053,-16.40918 0.3213,-38.28809 0.3213,-60.167 0,-21.8789 -0.2685,-43.75781 -0.8603,-60.16699 -0.5917,-16.40918 -1.4676,-27.34863 -2.5455,-27.34863 -1.0778,0 -1.2799,10.93945 -1.2271,27.34863 0.053,16.40918 0.3214,38.28809 0.3214,60.16699 0,21.87891 -0.2686,43.75782 -0.8603,60.167 -0.5918,16.40918 -1.4676,27.34863 -2.5455,27.34863 -1.0779,0 -1.28,-10.93945 -1.2272,-27.34863 0.053,-16.40918 0.3214,-38.28809 0.3214,-60.167 0,-21.8789 -0.2686,-43.75781 -0.8603,-60.16699 -0.5917,-16.40918 -1.4676,-27.34863 -2.5455,-27.34863 -1.0779,0 -1.2799,10.93945 -1.2271,27.34863 0.053,16.40918 0.3213,38.28809 0.3213,60.16699 0,21.87891 -0.2685,43.75782 -0.8603,60.167 -0.5917,16.40918 -1.4676,27.34863 -2.5455,27.34863 -1.0779,0 -1.2799,-10.93945 -1.2271,-27.34863 0.053,-16.40918 0.3213,-38.28809 0.3213,-60.167 0,-21.8789 -0.2685,-43.75781 -0.8602,-60.16699 -0.5918,-16.40918 -1.4676,-27.34863 -2.5455,-27.34863 -1.0779,0 -1.4147,10.93945 -1.4966,27.34863 -0.082,16.40918 0.052,38.28809 0.052,60.16699 0,21.87891 -0.1338,43.75782 -0.3213,60.167 -0.1876,16.40918 -0.3897,27.34863 -0.3897,27.34863 m 48.1815,-32.40084 c 0,0 -0.1457,8.10021 -0.3343,16.20042 -0.1885,8.10021 -0.4199,16.20042 -0.4199,16.20042 M 2359.875,314.4184 c 0,0 1.8972,-9.5747 -2.4143,-9.5747 -2.1558,0 -1.8579,10.42969 -1.631,20.85937 0.227,10.42969 0.3829,20.85938 -1.7729,20.85938 -2.1558,0 -2.3117,-10.42969 -2.5386,-20.85938 -0.227,-10.42968 -0.5249,-20.85937 -2.6807,-20.85937 -2.1558,0 -1.8578,10.42969 -1.6309,20.85937 0.2269,10.42969 0.3828,20.85938 -1.773,20.85938 -2.1557,0 -2.3117,-10.42969 -2.5386,-20.85938 -0.2269,-10.42968 -0.5248,-20.85937 -2.6806,-20.85937 -2.1558,0 -1.8579,10.42969 -1.6309,20.85937 0.2269,10.42969 0.3828,20.85938 -1.773,20.85938 -2.1558,0 -2.3117,-10.42969 -2.5386,-20.85938 -0.2269,-10.42968 -0.5249,-20.85937 -2.6807,-20.85937 -2.1558,0 -1.8578,10.42969 -1.6309,20.85937 0.2269,10.42969 0.3828,20.85938 -1.7729,20.85938 -2.1558,0 -2.3117,-10.42969 -2.5387,-20.85938 -0.2269,-10.42968 -0.5248,-20.85937 -2.6806,-20.85937 -2.1558,0 -1.8579,10.42969 -1.6309,20.85937 0.2269,10.42969 0.3828,20.85938 -1.773,20.85938 -2.1558,0 -2.3117,-10.42969 -2.5386,-20.85938 -0.2269,-10.42968 -0.5249,-20.85937 -2.6807,-20.85937 -2.1557,0 -1.8578,10.42969 -1.6309,20.85937 0.2269,10.42969 0.3829,20.85938 -1.7729,20.85938 -2.1558,0 -2.3117,-10.42969 -2.5387,-20.85938 -0.2269,-10.42968 -0.5248,-20.85937 -2.6806,-20.85937 -2.1558,0 -2.3968,10.42969 -2.1699,20.85937 0.227,10.42969 0.9218,20.85938 0.9218,20.85938 m -0.3487,110.86576 c 0,0 0.4198,5.61169 0.28,11.22337 -0.1397,5.61169 -0.839,11.22337 -2.9948,11.22337 -1.0779,0 -1.2799,-10.93945 -1.2271,-27.34863 0.053,-16.40918 0.3213,-38.28809 0.3213,-60.167 0,-21.8789 -0.2685,-43.75781 -0.8603,-60.16699 -0.5917,-16.40918 -1.4676,-27.34863 -2.5454,-27.34863 -1.0779,0 -1.28,10.93945 -1.2272,27.34863 0.053,16.40918 0.3214,38.28809 0.3214,60.16699 0,21.87891 -0.2686,43.75782 -0.8603,60.167 -0.5918,16.40918 -1.4676,27.34863 -2.5455,27.34863 -1.0779,0 -1.2799,-10.93945 -1.2272,-27.34863 0.053,-16.40918 0.3214,-38.28809 0.3214,-60.167 0,-21.8789 -0.2686,-43.75781 -0.8603,-60.16699 -0.5917,-16.40918 -1.4676,-27.34863 -2.5455,-27.34863 -1.0779,0 -1.2799,10.93945 -1.2271,27.34863 0.053,16.40918 0.3213,38.28809 0.3213,60.16699 0,21.87891 -0.2685,43.75782 -0.8603,60.167 -0.5917,16.40918 -1.4676,27.34863 -2.5455,27.34863 -1.0779,0 -1.2799,-10.93945 -1.2271,-27.34863 0.053,-16.40918 0.3214,-38.28809 0.3214,-60.167 0,-21.8789 -0.2686,-43.75781 -0.8603,-60.16699 -0.5918,-16.40918 -1.4676,-27.34863 -2.5455,-27.34863 -1.0779,0 -1.28,10.93945 -1.2272,27.34863 0.053,16.40918 0.3214,38.28809 0.3214,60.16699 0,21.87891 -0.2686,43.75782 -0.8603,60.167 -0.5918,16.40918 -1.4676,27.34863 -2.5455,27.34863 -1.0779,0 -1.2799,-10.93945 -1.2271,-27.34863 0.053,-16.40918 0.3213,-38.28809 0.3213,-60.167 0,-21.8789 -0.2685,-43.75781 -0.8603,-60.16699 -0.5917,-16.40918 -1.4676,-27.34863 -2.5455,-27.34863 -1.0779,0 -1.2799,10.93945 -1.2271,27.34863 0.053,16.40918 0.3213,38.28809 0.3213,60.16699 0,21.87891 -0.2685,43.75782 -0.8603,60.167 -0.5917,16.40918 -1.4676,27.34863 -2.5455,27.34863 -1.0778,0 -1.2799,-10.93945 -1.2271,-27.34863 0.053,-16.40918 0.3214,-38.28809 0.3214,-60.167 0,-21.8789 -0.2686,-43.75781 -0.8603,-60.16699 -0.5918,-16.40918 -1.4676,-27.34863 -2.5455,-27.34863 -1.0779,0 -1.2799,10.93945 -1.2272,27.34863 0.053,16.40918 0.3214,38.28809 0.3214,60.16699 0,21.87891 -0.2686,43.75782 -0.8603,60.167 -0.5917,16.40918 -1.4676,27.34863 -2.5455,27.34863 -1.0779,0 -1.2799,-10.93945 -1.2271,-27.34863 0.053,-16.40918 0.3213,-38.28809 0.3213,-60.167 0,-21.8789 -0.2685,-43.75781 -0.8603,-60.16699 -0.5917,-16.40918 -1.4676,-27.34863 -2.5455,-27.34863 -1.0779,0 -1.1534,15.10547 -1.0748,35.68066 0.039,10.2876 0.1134,21.94263 0.1494,33.76062 0.036,11.818 0.034,23.79895 -0.026,34.73841 -0.119,21.8789 -0.4687,39.59179 -0.8149,43.50293 -0.1732,1.95556 -0.3398,0.46069 -0.5336,-5.68909 -0.1938,-6.14978 -0.4075,-16.95447 -0.833,-33.61853 -0.4254,-16.66406 -0.8646,-30.85547 -1.2548,-42.93201 -0.3901,-12.07653 -0.7323,-22.0382 -1.0071,-30.24279 -0.5497,-16.40918 -0.814,-25.79004 -0.9559,-31.00489 -0.2836,-10.42969 -0.1169,-4.19531 -2.2727,-4.19531 -2.1558,0 -1.8579,10.42969 -1.6309,20.85937 0.2269,10.42969 0.3828,20.85938 -1.773,20.85938 -2.1558,0 -2.3117,-10.42969 -2.5386,-20.85938 -0.2269,-10.42968 -0.5249,-20.85937 -2.6807,-20.85937 -2.1557,0 -1.8578,10.42969 -1.6309,20.85937 0.2269,10.42969 0.3829,20.85938 -1.7729,20.85938 -2.1558,0 -2.3117,-10.42969 -2.5386,-20.85938 -0.227,-10.42968 -0.5249,-20.85937 -2.6807,-20.85937 -2.1558,0 -1.8578,10.42969 -1.6309,20.85937 0.2269,10.42969 0.3828,20.85938 -1.773,20.85938 -2.1558,0 -2.3117,-10.42969 -2.5386,-20.85938 -0.2269,-10.42968 -0.5249,-20.85937 -2.6806,-20.85937 -2.1558,0 -1.8579,10.42969 -1.631,20.85937 0.227,10.42969 0.3829,20.85938 -1.7729,20.85938 -2.1558,0 -2.3117,-10.42969 -2.5386,-20.85938 -0.227,-10.42968 -0.5249,-20.85937 -2.6807,-20.85937 -2.1558,0 -1.8578,10.42969 -1.6309,20.85937 0.2269,10.42969 0.3828,20.85938 -1.773,20.85938 -2.1557,0 -2.3117,-10.42969 -2.5386,-20.85938 -0.2269,-10.42968 -0.5248,-20.85937 -2.6806,-20.85937 -2.1558,0 -1.8579,10.42969 -1.631,20.85937 0.227,10.42969 0.3829,20.85938 -1.7729,20.85938 -2.1558,0 -2.8506,-10.42969 -3.0776,-20.85938 -0.2269,-10.42968 0.014,-20.85937 0.014,-20.85937"
       style="font-size:239.36119080000000281px;font-style:normal;font-variant:normal;font-weight:normal;font-stretch:normal;text-align:start;line-height:125%;letter-spacing:0px;word-spacing:0px;writing-mode:lr-tb;text-anchor:start;fill:none;stroke:#000000;stroke-width:4;stroke-miterlimit:4;stroke-opacity:1;stroke-dasharray:none;font-family:Arial Black;-inkscape-font-specification:'Arial Black,';stroke-linejoin:round;stroke-linecap:round"
       inkscape:connector-curvature="0" />
  </g>
</svg>
