<?xml version="1.0" encoding="UTF-8" standalone="no"?>
<!-- Created with Inkscape (http://www.inkscape.org/) -->

<svg
   xmlns:dc="http://purl.org/dc/elements/1.1/"
   xmlns:cc="http://creativecommons.org/ns#"
   xmlns:rdf="http://www.w3.org/1999/02/22-rdf-syntax-ns#"
   xmlns:svg="http://www.w3.org/2000/svg"
   xmlns="http://www.w3.org/2000/svg"
   xmlns:sodipodi="http://sodipodi.sourceforge.net/DTD/sodipodi-0.dtd"
   xmlns:inkscape="http://www.inkscape.org/namespaces/inkscape"
   width="3200"
   height="800"
   id="svg78717"
   version="1.1"
   inkscape:version="0.92.2 5c3e80d, 2017-08-06"
   sodipodi:docname="Stars-filled.svg">
  <sodipodi:namedview
     id="base"
     pagecolor="#ffffff"
     bordercolor="#666666"
     borderopacity="1.0"
     inkscape:pageopacity="0.0"
     inkscape:pageshadow="2"
     inkscape:zoom="0.23125"
     inkscape:cx="1595.6757"
     inkscape:cy="400"
     inkscape:document-units="px"
     inkscape:current-layer="layer6"
     showgrid="false"
     inkscape:window-width="1244"
     inkscape:window-height="718"
     inkscape:window-x="-3"
     inkscape:window-y="0"
     inkscape:window-maximized="0" />
  <defs
     id="defs78719">
    <inkscape:path-effect
       effect="rough_hatches"
       id="path-effect79396"
       is_visible="true"
       direction="1507.4844,391.60938 , 18.054213,14.373134"
       dist_rdm="0;1"
       growth="0"
       do_bend="true"
       bender="1507.4844,396.60938 , 5,0"
       bottom_edge_variation="0;1"
       top_edge_variation="0;1"
       bottom_tgt_variation="0;1"
       top_tgt_variation="0;1"
       scale_bf="2"
       scale_bb="2"
       scale_tf="2"
       scale_tb="2"
       top_smth_variation="0;1"
       bottom_smth_variation="0;1"
       fat_output="false"
       stroke_width_top="1"
       stroke_width_bottom="1"
       front_thickness="1"
       back_thickness="0.25" />
  </defs>
  <metadata
     id="metadata78722">
    <rdf:RDF>
      <cc:Work
         rdf:about="">
        <dc:format>image/svg+xml</dc:format>
        <dc:type
           rdf:resource="http://purl.org/dc/dcmitype/StillImage" />
        <dc:title />
      </cc:Work>
    </rdf:RDF>
  </metadata>
  <g
     inkscape:groupmode="layer"
     id="layer6"
     inkscape:label="1-Yellow"
     style="display:inline">
    <path
       style="color:#000000;display:inline;overflow:visible;visibility:visible;fill:none;stroke:#ffd200;stroke-width:4;stroke-linecap:round;stroke-linejoin:round;stroke-miterlimit:4;stroke-dashoffset:0;stroke-opacity:1;marker:none;enable-background:accumulate"
       d="m 2133.7824,331.14185 c 0,0 0.964,2.44991 0.9939,-4.86138 0.03,-7.31127 -2.3396,2.88531 -5.0327,-1.06882 -2.693,-3.95414 5.0625,-6.24244 5.0924,-13.5664 0.03,-7.32397 -7.7854,9.61226 -10.4799,5.65613 -2.6945,-3.95614 10.5098,-12.98009 10.5397,-20.31682 0.03,-7.33672 -13.2342,16.36068 -15.93,12.40253 -2.6958,-3.95814 15.96,-19.73924 15.99,-27.08879 0.03,-7.34956 -18.6858,23.13065 -21.383,19.17049 -2.6972,-3.96016 21.4129,-26.52004 21.443,-33.88249 0.03,-7.36245 -24.1402,29.92233 -26.8388,25.96016 -2.6985,-3.96217 26.8688,-33.3226 26.8989,-40.69801 0.03,-7.37542 -29.5974,36.73584 -32.2974,32.77166 -2.6999,-3.96419 32.3275,-40.14707 32.3577,-47.53552 0.015,-3.69405 -8.7231,7.19844 -17.8285,18.51922 -9.1044,11.31955 -18.5791,23.07007 -19.9304,21.0859 -2.7014,-3.96621 37.789,-46.99356 37.8192,-54.39512 0.015,-3.70012 -10.08,8.90579 -20.5516,21.94284 -10.4699,13.03494 -21.3193,26.50341 -22.6717,24.51784 -2.6727,-3.92431 43.268,-57.5696 43.268,-57.5696 m 112.31,-37.22854 c 0,0 5.2574,-2.89733 0.5829,-4.43626 -4.6744,-1.53886 -4.4268,5.55911 -12.1159,7.80519 -7.6891,2.24607 7.4416,-9.34404 2.7669,-10.88302 -4.6747,-1.53898 -10.456,13.12909 -18.1463,15.37553 -7.6903,2.24644 13.4716,-16.91451 8.7966,-18.4536 -4.675,-1.53909 -16.4869,20.70004 -24.1786,22.94685 -7.6916,2.24681 19.5036,-24.48594 14.8282,-26.02515 -4.6754,-1.53921 -22.5198,28.27196 -30.2126,30.51913 -7.6929,2.24717 25.5372,-32.05834 20.8615,-33.59767 -4.6758,-1.53933 -28.5544,35.84484 -36.2485,38.09238 -7.6941,2.24754 31.5727,-39.63171 26.8966,-41.17116 -4.6761,-1.53945 -34.9891,43.91737 -42.46,45.88422 -7.4708,1.96686 37.7839,-47.42367 33.1075,-48.96323 -4.6765,-1.53957 -39.8592,50.03065 -48.4798,53.43464 -4.3079,1.70106 6.6788,-12.04063 18.1242,-26.40307 11.4455,-14.3625 23.3437,-29.33999 21.0023,-30.11082 -2.329,-0.76675 -25.5233,28.43105 -48.6314,57.33431 -23.1005,28.89363 -46.1218,57.50305 -47.4783,55.51139 -1.3462,-1.97646 21.6629,-30.59015 44.2668,-58.87402 22.6131,-28.29537 44.8361,-56.27843 42.4889,-57.05117 -2.33,-0.76706 -24.5579,27.22535 -46.6994,54.93763 -22.1345,27.70362 -44.1886,55.13603 -45.5951,53.20569 -1.3966,-1.91679 20.646,-29.35304 42.3093,-56.47744 21.6716,-27.13476 42.9772,-53.97303 40.6305,-54.7456 -2.3308,-0.76734 -23.6154,26.04732 -44.7674,52.5385 -21.1454,26.48297 -42.164,52.65135 -43.4339,50.55041 -1.2618,-2.08757 19.7451,-28.26035 40.351,-54.07844 20.6139,-25.82821 40.8409,-51.31807 38.4948,-52.09043 -2.3318,-0.76767 -22.5382,24.69904 -42.6406,49.89299 -20.0969,25.18697 -40.0941,50.10807 -41.5312,48.21423 -1.4288,-1.88288 18.5582,-26.80731 38.1996,-51.43304 19.6482,-24.63419 38.9617,-48.98214 36.6161,-49.75437 -2.3329,-0.76801 -21.5829,23.50368 -40.8743,47.69648 -19.2875,24.18793 -38.6178,48.29916 -40.6822,47.1859 -2.0537,-1.10753 16.925,-24.7861 36.1282,-48.87316 19.2129,-24.09935 38.6337,-48.58787 37.8838,-51.3768 -0.7459,-2.77415 -20.625,22.31913 -41.4445,48.44284 -20.8195,26.1236 -42.5577,53.24548 -46.5484,54.52798 -3.964,1.27392 17.8155,-25.87777 40.526,-54.37363 22.7255,-28.51473 46.316,-58.2973 46.5793,-62.37955 0.2613,-4.05012 -23.309,25.75685 -48.1354,56.92809 -24.8246,31.16892 -50.8697,63.64932 -54.8685,64.93442 -3.9592,1.27239 22.1864,-31.30606 49.138,-65.14651 26.969,-33.86214 54.6621,-68.89074 54.641,-72.62712 -0.021,-3.694939 -27.6904,31.35786 -56.6186,67.70151 -28.9244,36.33889 -59.0555,73.89488 -63.0623,75.18253 -3.9542,1.27077 26.2419,-36.33475 57.2195,-75.25356 31.001,-38.94807 62.6735,-79.079848 62.7917,-83.007883 0.1165,-3.870728 -31.5286,36.291343 -64.5543,77.809103 -33.019,41.50936 -67.3459,84.27315 -71.3621,85.56383 -3.9479,1.26875 30.4133,-41.50187 65.4872,-85.59463 35.1025,-44.12881 70.7795,-89.41608 70.8983,-93.360856 0.1165,-3.871305 -35.5296,41.450236 -72.6545,88.150716 -37.115,46.68802 -75.6132,94.62335 -79.6396,95.91734 -3.9407,1.2664 34.596,-46.6766 73.7674,-95.95158 39.206,-49.3185 78.8774,-99.767209 78.9967,-103.729776 0.1165,-3.870931 -39.5204,46.616046 -80.7464,98.508206 -41.2124,51.87498 -83.892,104.98919 -87.9297,106.2868 -3.9323,1.26374 38.79,-51.85897 82.0603,-106.3245 43.3113,-54.517192 86.9669,-110.133313 87.0867,-114.114728 0.1165,-3.869601 -43.501,51.788813 -88.83,108.881668 -45.311,57.07028 -92.1823,115.37073 -96.2324,116.6723 -3.923,1.26074 42.9953,-57.04905 90.3658,-116.71348 47.4185,-59.724942 95.0481,-120.514481 95.1685,-124.51581 0.1174,-3.898446 -30.502,35.247711 -61.2167,74.16959 -30.6743,38.87067 -61.4482,77.52498 -60.3232,72.38678 2.2384,-10.22255 49.0491,-61.84471 43.7609,-62.61823 -2.6416,-0.38639 -13.6183,13.50331 -24.3199,27.0043 -10.7005,13.49962 -21.1265,26.61236 -22.5297,24.66526 -2.805,-3.89223 41.69,-52.60576 37.1779,-54.36227 -2.2544,-0.87762 -12.2203,11.73861 -22.0036,24.08956 -9.7822,12.34947 -19.3819,24.43425 -20.7856,22.48634 -2.8064,-3.89415 38.3498,-48.42436 33.871,-50.22383 -4.4787,-1.799474 -36.6774,46.32968 -39.4852,42.43363 -2.8078,-3.89606 34.8943,-44.09096 30.2096,-45.630138 -4.6847,-1.539177 -33.0174,41.734078 -35.8265,37.836098 -2.8091,-3.89797 31.185,-39.430066 26.5864,-41.078971 -4.5986,-1.648904 -29.3955,37.181001 -32.2061,33.281101 -2.8105,-3.89989 27.6075,-34.930005 23.0084,-36.579054 -4.599,-1.649049 -25.8189,32.679164 -28.6308,28.777344 -2.8119,-3.90182 24.0318,-30.426393 19.4324,-32.075587 -4.5995,-1.649194 -22.2443,28.173767 -25.0576,24.270017 -2.8133,-3.90374 20.4581,-25.919211 15.8583,-27.568549 -4.5999,-1.649339 -18.6716,23.664809 -21.4863,19.759129 -2.8147,-3.90567 16.8864,-21.408468 12.2862,-23.057951 -4.6003,-1.649483 -15.1009,19.152281 -17.917,15.244674 -2.8161,-3.907607 13.3167,-16.894157 8.7161,-18.543786 -4.6007,-1.649628 -11.5322,14.63618 -14.3497,10.726639 -2.8174,-3.909541 9.749,-12.376267 5.148,-14.026041 -4.6011,-1.649773 -7.9654,10.1165 -10.7843,6.205022 -2.8189,-3.911479 6.1832,-7.854795 1.5818,-9.504714 -4.6015,-1.649919 -4.4007,5.593236 -7.221,1.679817 -2.8204,-3.913657 0.3185,-4.154768 0.3185,-4.154768 m 54.2485,117.717048 c 0,0 -4.4874,5.62391 -4.4874,5.62391 m 106.196,-141.637432 c 0,0 30.5844,-39.070964 30.5844,-39.070964 m 370.5782,179.188736 c 0,0 1.4087,1.86825 -2.2395,-0.86128 -3.6487,-2.7299 1.4095,-1.70487 -0.3076,-6.79174 -1.7171,-5.08686 -3.3411,4.06184 -6.9929,1.3296 -3.6517,-2.73223 5.2724,-6.41236 3.5212,-11.47877 -1.7513,-5.0664 -7.1729,8.74654 -10.8278,6.01197 -3.6549,-2.73457 9.0732,-11.07429 7.3146,-16.15281 -1.7586,-5.07852 -10.9223,13.36051 -14.6748,10.73907 -3.7525,-2.62144 12.9128,-15.81329 11.1737,-20.93732 -1.7391,-5.12403 -14.9798,18.38157 -18.5936,15.58467 -3.6139,-2.7969 16.8508,-20.70389 15.16,-25.90971 -0.8455,-2.6034 -5.5047,3.16603 -10.4229,9.22628 -4.918,6.06004 -10.099,12.41444 -11.8807,10.97995 -3.5616,-2.8676 20.6085,-25.40636 18.9988,-30.73575 -0.8049,-2.66491 -6.3987,4.29225 -12.2991,11.58749 -5.8996,7.29436 -12.1106,14.93065 -13.9964,13.61967 -1.8725,-1.30178 12.6518,-19.19379 26.6899,-36.71879 14.0444,-17.53285 27.6255,-34.72389 24.6145,-34.663014 -2.9819,0.06029 -16.5599,17.239344 -30.1031,34.150174 -13.5403,16.90721 -27.0537,33.55894 -29.1929,32.54648 -2.1198,-1.00323 11.3763,-17.65612 24.482,-34.03087 13.1098,-16.37987 25.8444,-32.497972 22.8506,-32.457268 -2.9716,0.0404 -16.5006,17.175338 -31.3378,35.688438 -14.8787,18.56478 -30.953,38.35349 -38.5061,43.95985 -7.4772,5.55 8.7891,-14.33071 25.9074,-35.61551 17.1146,-21.28002 35.0525,-43.949575 32.0751,-43.953399 -2.9235,-0.0038 -21.4011,23.380449 -40.9138,47.605359 -19.5478,24.2685 -40.0348,49.24674 -45.8235,52.64904 -5.6774,3.33683 14.9341,-21.68367 35.8748,-47.62696 20.9237,-25.92239 42.1096,-52.699237 39.1769,-52.770617 -2.8592,-0.06959 -22.1873,24.354537 -40.6329,47.259337 -18.4408,22.89892 -35.9893,44.29105 -33.8992,38.12805 2.0651,-6.08956 19.8943,-27.9944 36.5404,-48.75681 16.713,-20.84584 32.3791,-40.709416 31.3194,-43.133595 -1.0461,-2.393176 -16.8952,17.72512 -32.1371,36.786895 -15.2334,19.05103 -29.7954,36.98189 -27.2189,30.1601 2.5587,-6.77451 17.1064,-24.83714 30.5453,-41.72615 13.4892,-16.952265 25.9756,-32.856299 25.1882,-35.629869 -0.7823,-2.755475 -13.0154,12.860496 -25.4521,28.536974 -12.4247,15.661505 -25.054,31.384235 -25.9109,28.767395 -0.8503,-2.59663 11.7746,-18.35501 24.249,-34.114731 12.495,-15.785793 24.837,-31.570294 24.0407,-34.349511 -0.7904,-2.758637 -13.339,13.33997 -26.3488,29.808037 -12.9995,16.454845 -26.4612,33.276185 -28.3195,31.896885 -1.8412,-1.36654 11.5704,-18.14134 25.0441,-35.220669 13.4918,-17.102329 27.0202,-34.479986 26.1388,-37.167238 -0.8752,-2.668249 -7.9399,6.433191 -14.3635,14.654674 -6.4324,8.23271 -12.1792,15.535957 -10.252,9.327457 3.8629,-12.444729 22.8965,-29.366305 21.2047,-34.811266 -0.8458,-2.722073 -5.1645,2.869127 -8.8,7.558351 -3.6461,4.702924 -6.5711,8.46033 -4.6089,2.13917 3.9331,-12.670535 11.7171,-15.142459 10.0196,-20.605934 -1.6975,-5.463552 -4.0902,1.482535 -4.0902,1.482535 m 90.1422,58.433229 c 0,0 3.073,-0.140999 -10.3559,9.365441 -13.4361,9.51156 7.4004,-9.35807 1.4324,-9.271009 -5.9681,0.08706 -15.6314,19.737449 -28.304,28.217159 -6.3434,4.24466 -1.4564,-2.78062 4.9607,-10.85143 6.4232,-8.078413 14.3723,-17.21121 14.3723,-17.21121 m -94.4853,0.120915 c 0,0 -5.3984,7.772222 -11.3079,15.210555 -5.9078,7.43614 -12.3204,14.53661 -14.1932,13.18717 -3.744,-2.69783 21.8965,-27.568145 16.1433,-27.753191 -5.7533,-0.185046 -19.889,25.057421 -23.6633,22.391471 -3.7744,-2.66595 18.0879,-22.801796 12.325,-22.974762 -5.7628,-0.172965 -16.101,20.310872 -19.8924,17.660322 -3.7913,-2.65055 13.9109,-17.556212 8.0663,-17.625625 -5.8445,-0.06941 -11.8592,14.977135 -15.6545,12.32551 -3.7952,-2.65163 9.8108,-12.396014 3.9764,-12.478234 -5.8345,-0.08222 -7.7732,9.828693 -11.5592,7.159377 -3.7859,-2.669315 5.7256,-7.242677 -0.1057,-7.329019 -5.8312,-0.08634 -3.6819,4.661835 -7.4453,1.957964 -3.7641,-2.704308 -1.3024,-2.0863 -1.3024,-2.0863 M 1028.9224,112.4861 c 0,0 2.5458,0.50757 -4.8868,2.42721 -7.4333,1.91984 2.6269,-3.29149 -1.9655,-4.93492 -4.5923,-1.64344 -5.3686,6.73057 -12.6602,8.4673 -7.2916,1.73673 8.058,-10.09828 3.4531,-11.73094 -4.6049,-1.63267 -10.5876,13.27397 -18.65992,15.97389 -4.03668,1.35013 -0.49021,-3.04882 3.46479,-7.99982 3.95633,-4.95263 8.31483,-10.45347 6.04123,-11.31526 -2.2612,-0.85712 -10.36912,9.39307 -18.40487,19.37696 -8.03036,9.97721 -15.98565,19.6889 -17.3308,17.72137 -1.3367,-1.95517 6.5845,-11.67488 14.15835,-21.11474 7.58341,-9.45176 14.83586,-18.64126 12.62845,-19.595548 -2.19484,-0.948855 -9.30178,8.072068 -16.48634,17.048088 -7.18057,8.97102 -14.43858,17.89764 -16.44979,16.73518 -2.00164,-1.15693 5.13354,-9.94795 12.62628,-19.33179 7.50962,-9.405 15.33548,-19.357055 15.17144,-22.94183 -0.16336,-3.569633 -8.21862,6.784959 -17.32942,18.24578 -9.11903,11.47119 -19.29955,24.03591 -23.00753,24.93833 -3.66779,0.89265 6.59709,-11.70731 17.64903,-25.61891 11.09268,-13.962869 22.8205,-29.068659 23.20042,-33.444045 0.37514,-4.320326 -11.29713,10.926325 -24.43766,27.559285 -13.15488,16.65111 -27.75708,34.62625 -31.75695,35.85367 -3.90814,1.19926 10.8658,-16.86898 26.22446,-36.31815 15.42391,-19.531814 31.16822,-40.144461 31.40903,-44.44724 0.2294,-4.098803 -18.971,21.203862 -36.4991,43.42191 -18.13476,22.98702 -32.11647,39.90666 -21.20161,22.88669 22.91836,-35.737513 29.35856,-37.497104 24.63326,-38.570153 -2.50509,-0.568872 -6.06212,4.005617 -9.33974,8.190006 -3.27813,4.185052 -6.2706,7.975137 -7.53752,5.840776 -2.53519,-4.271011 11.96426,-15.298961 7.55471,-17.22189 -4.40954,-1.922929 -10.11484,12.981658 -12.875,8.964683 -2.76015,-4.016975 8.53204,-10.973754 4.09738,-12.871449 -4.43465,-1.897695 -6.87831,8.881044 -9.68489,4.892959 -2.80659,-3.988084 5.06914,-6.555824 0.53888,-8.33559 -4.53027,-1.779767 -3.36845,4.378032 -6.04922,0.194785 -2.6822,-4.185482 -0.54581,-3.129111 -0.54581,-3.129111 m 61.30666,92.761894 c 0,0 -0.24804,3.82099 -2.78719,-0.19425 -2.53987,-4.01639 2.99171,-3.5588 3.09946,-10.81078 0.054,-3.6315 -1.35425,-1.92576 -3.07839,0.15537 -1.72921,2.08727 -3.78872,4.56466 -5.02907,2.50712 -2.48144,-4.11631 8.09376,-9.76313 8.56776,-17.56242 0.23745,-3.90701 -2.50726,-0.53486 -5.63337,3.27918 -3.13197,3.82121 -6.66755,8.10707 -7.93309,6.06327 -2.50719,-4.04901 15.03233,-22.03908 15.03233,-22.03908 M 3088.3463,237.48606 c 0,0 2.2729,0.84066 -2.9071,-0.0528 -5.1801,-0.89347 1.2541,-1.55707 -2.0543,-4.7788 -3.3085,-3.22174 -3.1258,3.88533 -8.3062,2.99181 -5.1803,-0.89352 4.9977,-6.21355 1.6872,-9.43725 -3.3105,-3.22371 -6.8675,8.54373 -12.0481,7.65017 -5.1805,-0.89356 8.7376,-10.87388 5.4251,-14.09956 -3.3125,-3.22568 -10.6056,13.206 -15.7865,12.3124 -5.1808,-0.8936 12.474,-15.53808 9.1595,-18.76573 -3.3146,-3.22766 -14.3403,17.87213 -19.5214,16.97849 -5.181,-0.89364 16.2068,-20.20615 12.8903,-23.43578 -3.3166,-3.22964 -18.0713,22.54214 -23.2526,21.64845 -5.1814,-0.89368 19.936,-24.87809 16.6174,-28.10971 -3.3187,-3.23162 -21.9442,27.39707 -27.1441,26.52623 -5.1999,-0.87083 23.8254,-29.75785 20.5048,-32.99146 -3.3207,-3.23361 -25.595,31.9841 -30.6074,30.87925 -5.0123,-1.10486 27.2867,-34.11286 23.964,-37.34846 -1.6608,-1.61725 -8.8268,7.38387 -16.3425,16.78721 -7.5153,9.40277 -15.38,19.20616 -18.32,19.19061 -5.8744,-0.031 31.3398,-39.21342 28.0151,-42.45102 -1.6542,-1.61083 -21.2272,22.99069 -40.7173,47.24944 -19.4749,24.23987 -38.8715,48.14581 -39.3197,45.04939 -0.444,-3.06826 18.6982,-26.70183 37.558,-50.20227 18.8853,-23.53216 37.4952,-46.93948 36.7326,-49.7138 -0.7558,-2.74936 -19.346,20.66594 -38.073,44.02955 -18.7098,23.3422 -37.5567,46.63402 -38.0059,43.53066 -0.4456,-3.07892 19.4611,-27.70514 40.6883,-54.24966 21.3215,-26.66244 43.7354,-54.97048 49.4534,-66.00267 5.6708,-10.94125 -16.7529,17.57989 -41.0166,48.04036 -24.2511,30.44465 -50.4638,62.95699 -50.9907,59.91902 -0.5169,-2.98037 26.4672,-36.46748 54.0001,-71.11672 27.6452,-34.79041 55.6282,-70.48919 58.9703,-78.598779 3.28,-7.959148 -24.7171,27.939039 -54.1834,65.130769 -29.4043,37.11342 -60.2986,75.52994 -60.6178,72.21593 -0.3109,-3.2276 28.4055,-38.9975 55.4613,-73.15369 27.0785,-34.18486 52.6583,-66.944057 47.6197,-64.293563 -4.9483,2.602963 -30.5618,35.326443 -55.3183,66.564473 -24.7689,31.25361 -48.7776,61.15814 -49.3689,58.20112 -0.5825,-2.91283 23.3897,-32.84599 45.9218,-61.29643 22.5467,-28.46899 43.7586,-55.5751 38.7237,-52.92662 -4.9751,2.61709 -26.1143,29.56977 -46.6204,55.44787 -20.5181,25.89312 -40.4593,50.79085 -42.2852,49.37311 -1.8068,-1.40285 18.1116,-26.30759 37.0182,-50.1712 18.9078,-23.86527 36.85,-46.7396 31.8129,-44.08994 -4.9937,2.62687 -23.1866,25.7738 -40.9055,48.11859 -17.7299,22.35875 -35.021,43.965 -37.6726,43.5803 -2.631,-0.3817 14.5262,-21.83469 31.0586,-42.67918 16.5297,-20.84103 32.4543,-41.09415 27.8967,-39.05884 -4.5264,2.02135 -20.4806,22.28176 -36.06,41.91237 -15.5855,19.63839 -30.8167,38.67644 -33.4665,38.29201 -2.6342,-0.38217 13.161,-20.13202 29.0334,-40.13986 15.8778,-20.01481 31.8209,-40.27423 29.9883,-41.71035 -1.8199,-1.42619 -17.7503,18.83622 -34.034,39.37303 -16.2791,20.53113 -32.9063,41.32836 -35.5592,40.94348 -2.6335,-0.38205 14.012,-21.20211 30.7829,-42.36008 16.7784,-21.16737 33.6647,-42.65274 32.0828,-44.41236 -1.5698,-1.74602 -18.4402,19.74419 -35.7482,41.59322 -17.3023,21.84176 -35.0349,44.03059 -37.6895,43.64547 -2.6321,-0.38187 15.1183,-22.59244 32.9674,-45.13187 17.8573,-22.5498 35.7943,-45.40675 34.1826,-47.13328 -1.6023,-1.71647 -9.6172,8.51036 -17.4027,18.40394 -7.7841,9.89195 -15.3356,19.44802 -15.8642,16.3819 -1.0569,-6.1315 29.8798,-37.9913 26.6089,-41.34991 -1.6347,-1.67844 -8.5234,7.12442 -15.1647,15.58159 -6.6407,8.45639 -13.0307,16.56417 -13.5604,13.49171 -1.0592,-6.14511 25.4541,-32.43192 22.181,-35.79277 -3.2732,-3.360848 -23.2402,29.64767 -24.3019,23.48885 -1.0616,-6.15882 21.0287,-26.849698 17.7534,-30.212784 -3.2753,-3.363086 -18.815,24.053974 -19.879,17.881354 -1.064,-6.17262 16.6037,-21.244439 13.3262,-24.609767 -3.2775,-3.365327 -14.3902,18.437157 -15.4566,12.250657 -1.0664,-6.186511 12.1791,-15.615983 8.8994,-18.983556 -3.2796,-3.367573 -9.9658,12.797057 -11.0346,6.596569 -1.0689,-6.200488 7.755,-9.964142 4.4731,-13.333965 -3.2819,-3.369822 -5.542,7.133489 -6.6132,0.918926 -1.0713,-6.214562 3.3313,-4.288748 0.047,-7.660825 -3.2844,-3.372426 -1.6561,-1.668092 -1.6561,-1.668092 m 45.5729,224.716963 c 0,0 -7.812,13.20225 -8.7013,7.05796 -0.8892,-6.14352 13.2144,-16.19445 22.4108,-34.84339 4.6103,-9.34895 -1.2233,-2.12502 -8.2854,6.58694 -7.0799,8.73397 -15.4598,19.0368 -15.9057,15.95573 -0.4447,-3.07256 9.1243,-15.76214 18.7479,-27.66394 9.6294,-11.90896 19.326,-23.04602 19.326,-23.04602 m -66.9727,-71.28541 c 0,0 -7.7057,10.65745 -16.1139,21.22194 -8.4067,10.56271 -17.5113,21.03054 -20.1566,20.64675 -2.6403,-0.38304 5.3045,-10.32675 12.7052,-19.62323 7.4007,-9.29663 14.2606,-17.94805 9.5647,-15.74729 -9.3909,4.40101 -27.5562,34.60361 -32.8426,33.83667 -5.2864,-0.76694 22.9885,-28.85199 13.2805,-24.06136 -9.7081,4.79064 -18.5669,23.29442 -23.8535,22.52745 -5.2866,-0.76697 14.1454,-17.73681 4.4242,-12.9397 -9.7212,4.79711 -9.7108,12.17273 -14.9976,11.40574 -5.286,-0.76689 0.4087,-4.20683 0.4087,-4.20683 M 1793.9229,181.54846 c 0,0 3.9581,-1.25497 -0.1424,-3.50203 -4.101,-2.24732 -3.0755,3.83617 -9.3914,4.35449 -6.3159,0.51831 5.275,-6.58261 1.1002,-8.74695 -4.1748,-2.16434 -7.3733,9.21212 -13.8186,9.89067 -6.4452,0.67856 9.6286,-12.03567 5.5028,-14.27109 -2.0627,-1.11764 -5.8811,2.77007 -9.21,6.93741 -3.3279,4.16594 -6.1725,8.61397 -6.1725,8.61397 m -16.7718,41.94209 c 0,0 1.5515,1.70737 3.1291,-7.27707 0.7903,-4.50048 -0.262,-3.23177 -1.7356,-1.45933 -1.4829,1.78375 -3.4134,4.09888 -4.4039,1.74777 -1.9819,-4.70432 7.4599,-8.95235 9.4502,-18.59441 0.9981,-4.83545 -1.8484,-1.33886 -5.1853,2.7286 -3.3485,4.08162 -7.2289,8.77815 -8.2271,6.4134 -0.9922,-2.35056 7.9168,-13.19547 16.4053,-23.71526 8.5039,-10.53883 16.6117,-20.77905 14.6262,-22.01545 -1.9701,-1.22691 -10.0584,9.01007 -18.0902,18.99291 -8.0254,9.9749 -15.9885,19.69307 -17.0577,17.38888 -1.063,-2.29091 6.6855,-11.80114 14.2819,-21.27853 7.6118,-9.49653 15.0723,-18.96125 13.9125,-21.2568 -1.1531,-2.28222 -8.5783,7.18959 -16.1696,16.70265 -7.5847,9.50483 -15.3368,19.05201 -16.5301,16.87936 -1.1867,-2.16078 6.9257,-12.19022 15.4896,-22.98642 8.5988,-10.84027 17.5738,-22.3605 18.7421,-27.72319 1.1639,-5.34293 -8.0635,6.69442 -18.5807,20.05375 -10.5319,13.37788 -22.4146,28.12251 -25.5304,28.28695 -3.0581,0.16139 9.5114,-15.38445 22.2692,-31.64366 12.7866,-16.29598 25.6568,-33.18765 24.719,-35.90178 -0.9193,-2.66057 -13.7192,14.28966 -27.6175,32.07002 -13.8917,17.77195 -28.8459,36.30587 -32.2182,36.77062 -3.2947,0.45404 7.6976,-13.14116 18.0129,-26.20033 10.3072,-13.04882 19.9545,-25.57134 14.9504,-22.92018 -4.9498,2.62242 -14.7156,15.1956 -24.2052,27.15936 -9.5086,11.98777 -18.7817,23.42575 -22.1276,23.89779 -6.5982,0.93091 9.3073,-15.20948 9.3073,-15.20948 m 12.7078,-16.01029 c 0,0 16.9843,-17.85526 12.6876,-20.05576 -2.1128,-1.08204 -5.4553,3.24884 -8.5552,7.23568 -3.1008,3.98809 -5.9508,7.62472 -6.9724,5.16046 -2.0446,-4.93224 11.3482,-14.62371 7.3879,-17.14793 -1.9799,-1.26197 -4.3313,1.80091 -6.4884,4.59592 -2.1582,2.7965 -4.1166,5.31979 -5.2577,2.9861 -2.2839,-4.67065 7.8303,-10.16462 3.7723,-12.57376 -4.0581,-2.40913 -6.0802,7.93427 -8.395,3.25976 -2.3147,-4.67451 4.0748,-5.32481 0.1363,-7.90257 -3.9385,-2.57777 -3.5517,0.79112 -3.5517,0.79112 m -147.1497,562.20183 c 0,0 2.7049,0.30486 1.7138,-5.79584 -0.9911,-6.10075 -3.3155,4.12089 -6.5194,0.7706 -3.2038,-3.35028 5.5283,-6.87135 4.5368,-12.97444 -0.9915,-6.10308 -7.7406,9.62416 -10.9449,6.27348 -3.2042,-3.35068 9.9534,-12.37656 8.9615,-18.48198 -0.9919,-6.10542 -12.1657,15.13131 -15.3703,11.78025 -3.2046,-3.35106 14.3784,-17.88566 13.3862,-23.99342 -0.9923,-6.10775 -16.5908,20.64236 -19.7958,17.29092 -3.205,-3.35145 18.8035,-23.39867 17.8109,-29.50876 -0.9927,-6.11009 -21.0159,26.15731 -24.2213,22.80548 -3.2053,-3.35182 23.2286,-28.91557 22.2356,-35.028 -0.993,-6.11243 -25.4409,31.67617 -28.6466,28.32396 -3.2058,-3.35222 27.6536,-34.43639 26.6602,-40.55117 -0.9934,-6.11477 -29.866,37.19895 -33.072,33.84635 -3.2061,-3.35261 32.0786,-39.96112 31.0848,-46.07824 -0.9938,-6.11712 -34.2909,42.72564 -37.4974,39.37265 -3.2065,-3.35299 36.5036,-45.48977 35.5095,-51.60924 -0.9942,-6.11947 -38.716,48.25625 -41.9228,44.90287 -3.2068,-3.35337 40.9286,-51.02234 39.9341,-57.14416 -0.9946,-6.12183 -43.1409,53.79079 -46.3481,50.43702 -3.2072,-3.35376 45.3535,-56.55885 44.3586,-62.68302 -0.9949,-6.12418 -47.5658,59.32927 -50.7734,55.97511 -3.2076,-3.35415 49.7785,-62.09929 48.7832,-68.22582 -0.9953,-6.12653 -51.9908,64.87168 -55.1987,61.51714 -3.208,-3.35455 54.2034,-67.64367 53.2077,-73.77257 -0.9957,-6.12889 -56.4156,70.41803 -59.624,67.06311 -3.2083,-3.35492 58.6283,-73.192 57.6322,-79.32326 -0.9961,-6.13125 -60.8405,75.96834 -64.0492,72.61303 -3.2086,-3.35531 63.0531,-78.74428 62.0567,-84.8779 -0.4981,-3.06555 -16.7865,17.31256 -33.3802,38.04172 -16.5918,20.72684 -33.4887,41.80405 -35.0942,40.12516 -3.209,-3.35569 67.4779,-84.30051 66.481,-90.4365 -0.4981,-3.06649 -17.889,18.70071 -35.589,40.8199 -17.6979,22.1165 -35.7046,44.58405 -37.3105,42.90482 -3.2094,-3.35608 71.9027,-89.86071 70.9055,-95.99907 -0.4984,-3.06743 -18.9913,20.08982 -37.7977,43.60005 -18.8039,23.50714 -37.9208,47.36605 -39.527,45.68646 -1.6032,-1.67649 17.3887,-26.3038 36.7454,-50.5063 19.3589,-24.20538 39.0831,-47.98894 39.0831,-47.98894 m 195.879,-105.16807 c 0,0 0.8037,2.69904 -8.7622,7.30902 -9.5661,4.61001 6.1344,-7.71384 0.8788,-8.52349 -5.2556,-0.80965 -10.4449,13.1335 -20.0129,17.74452 -9.5681,4.61102 14.7573,-18.55417 9.5016,-19.36382 -5.2556,-0.80965 -19.0697,23.97484 -28.6399,28.58687 -9.5702,4.61202 23.3843,-29.39652 18.1286,-30.20618 -5.2557,-0.80966 -27.6988,34.8182 -37.2711,39.43124 -9.5723,4.61304 32.0154,-40.2409 26.7597,-41.05057 -5.2557,-0.80966 -36.332,45.66361 -45.9063,50.27765 -9.5744,4.61405 40.6506,-51.08731 35.3949,-51.89698 -5.2558,-0.80967 -44.9693,56.51103 -54.5457,61.12609 -9.5765,4.61505 49.2899,-61.93576 44.0342,-62.74544 -5.2558,-0.80967 -53.6107,67.36049 -63.1892,71.97655 -9.5786,4.61607 57.9334,-72.78622 52.6776,-73.59591 -5.2559,-0.80968 -62.2562,78.21198 -71.8368,82.82905 -9.5807,4.61708 66.581,-83.63873 61.3251,-84.44841 -5.2559,-0.80969 -70.8428,88.98647 -80.5516,93.76258 -4.8514,2.38663 14.0044,-21.25358 33.3866,-45.5963 19.3814,-24.34172 39.284,-49.38039 36.6533,-49.78566 -2.6258,-0.40451 -22.5867,24.7104 -43.055,50.41653 -20.4699,25.70816 -41.4413,51.99941 -45.9571,53.95776 -4.5066,1.95436 16.4713,-24.33842 37.8827,-51.22623 21.4105,-26.8867 43.2488,-54.3621 40.6176,-54.76745 -2.6164,-0.40306 -45.5574,53.61722 -88.4112,107.32447 -42.847,53.69879 -85.6177,107.09919 -87.2292,105.41409 -1.5977,-1.6708 41.1664,-55.07313 83.5001,-108.13416 42.3412,-53.07034 84.2672,-105.81729 81.6284,-106.2238 -2.6169,-0.40315 -44.5428,52.34372 -86.3736,104.77725 -41.8245,52.42549 -83.5642,104.55157 -85.1756,102.8666 -1.5983,-1.67134 40.135,-53.7993 81.4464,-105.58696 41.3183,-51.79653 82.2291,-103.26986 79.5908,-103.6763 -2.6174,-0.40324 -43.5282,51.07002 -84.3362,102.22966 -40.802,51.15198 -81.5112,102.00356 -83.1224,100.31871 -1.5988,-1.67187 39.104,-52.52528 79.393,-103.03937 40.2958,-50.52254 80.1914,-100.72206 77.5536,-101.12843 -2.618,-0.40331 -42.536,49.82443 -82.3488,99.74408 -39.8071,49.91246 -79.518,99.52916 -81.1478,97.86777 -1.6179,-1.64921 38.087,-51.26764 77.3905,-100.55379 39.3099,-49.29411 78.2314,-98.2712 75.594,-98.67749 -2.6185,-0.40339 -41.5207,48.54945 -80.2857,97.16304 -38.7592,48.60642 -77.3906,96.88627 -78.9211,95.10108 -1.5198,-1.77281 37.1053,-50.05464 75.3116,-97.97276 38.2126,-47.92615 76.0199,-95.50459 73.3831,-95.9108 -2.6191,-0.40349 -40.4067,47.15021 -78.1018,94.42992 -37.6903,47.27368 -75.2954,94.28323 -77.0364,92.76122 -1.7296,-1.51198 35.8702,-48.5229 73.1129,-95.23965 37.2481,-46.7234 74.1495,-93.16479 71.513,-93.57095 -2.62,-0.40363 -39.1651,45.59124 -76.0822,91.90244 -36.9185,46.31286 -74.1998,92.9297 -77.8384,93.77827 -3.6151,0.84308 33.671,-45.77432 71.0892,-92.71217 37.4172,-46.93665 74.9563,-94.18174 72.3191,-94.58801 -2.6198,-0.40359 -40.5002,47.27573 -79.1095,95.70569 -38.6167,48.43916 -77.9357,97.5937 -82.9722,100.18652 -5.0006,2.57433 34.335,-46.58511 74.146,-96.51543 39.8058,-49.92394 80.0622,-100.58973 77.4234,-100.99626 -2.6187,-0.40342 -42.8704,50.26278 -83.8682,101.68031 -41.006,51.42779 -82.7284,103.56743 -87.7688,106.1622 -4.9999,2.57394 36.7402,-49.57089 78.9412,-102.49005 42.1953,-52.9119 84.8234,-106.56522 82.1833,-106.97195 -2.6175,-0.40324 -45.2407,53.25052 -88.6284,107.65634 -43.3968,54.41722 -87.5249,109.54251 -92.5692,112.1393 -4.999,2.57349 39.1478,-52.5573 83.7403,-108.46609 44.586,-55.90056 89.5863,-112.54211 86.9448,-112.94905 -2.6163,-0.40305 -47.6114,56.23897 -93.3903,113.6338 -45.789,57.40741 -92.325,115.51894 -97.3733,118.11782 -4.9991,2.57352 41.2993,-55.22088 88.4252,-114.29577 47.1288,-59.07868 95.0203,-119.36079 93.9748,-121.78161 -1.0343,-2.39484 -48.9137,57.89426 -98.0262,119.46489 -49.1171,61.57654 -99.4029,124.34947 -104.4579,126.9518 -4.9966,2.57225 45.3311,-60.22837 96.6165,-124.51716 51.2939,-64.29952 103.4537,-129.97747 103.0508,-133.21352 -0.3978,-3.195 -52.5434,62.49549 -106.1377,129.6877 -53.5968,67.1953 -108.5564,135.77876 -113.6192,138.38512 -4.9926,2.57019 50.0559,-66.09654 106.0239,-136.25899 55.9776,-70.1745 112.7662,-141.71438 112.3584,-144.95071 -0.4016,-3.18765 -57.1746,68.36585 -115.4503,141.43095 -58.278,73.06808 -117.9562,147.51323 -123.0271,150.12373 -4.9882,2.56794 54.6592,-71.80872 115.1804,-147.68223 60.5316,-75.88656 121.8115,-153.11881 121.3765,-156.32733 -0.4274,-3.15231 -61.6905,74.0944 -124.5068,152.85561 -62.8187,78.76421 -127.0715,158.88698 -132.1507,161.50178 -4.9833,2.56541 59.3043,-77.56854 124.4231,-159.20954 65.1303,-81.65547 130.947,-164.6432 130.5112,-167.85768 -0.427,-3.14952 -66.2257,79.85375 -133.6404,164.38434 -67.4169,84.53337 -136.3119,170.41414 -141.4001,173.03354 -4.9779,2.56264 63.9545,-83.33012 133.6723,-170.74089 69.7304,-87.42672 140.081,-176.17133 139.6443,-179.39208 -0.4256,-3.13935 -73.074,88.52911 -145.1022,178.8385 -71.9296,90.18588 -143.3362,179.14266 -138.9438,169.96246 4.2907,-8.96778 75.6985,-98.01574 145.1921,-185.19769 69.6238,-87.34528 137.5652,-173.10855 137.1293,-176.32364 -0.4264,-3.14528 -67.9555,82.1054 -134.37,165.45881 -66.3266,83.24317 -131.6242,164.70699 -125.5614,153.43676 5.9473,-11.0554 71.2671,-92.64977 134.3049,-171.82064 63.1709,-79.33801 124.3363,-156.59142 123.9012,-159.80058 -0.4275,-3.15283 -61.586,74.09633 -121.5332,149.41535 -59.8788,75.23302 -118.6044,148.61846 -112.52,137.30823 5.9914,-11.13739 64.7372,-84.64151 121.3172,-155.77982 56.6895,-71.27601 111.4445,-140.46969 111.0099,-143.67469 -0.4284,-3.15983 -55.1772,66.02999 -108.6261,133.25824 -53.3978,67.16392 -105.5298,132.41789 -99.4224,121.06472 6.035,-11.21839 58.1853,-76.57885 108.2742,-139.62536 50.1768,-63.15721 98.4816,-124.23242 98.0476,-127.43383 -0.4294,-3.16681 -48.5436,57.67213 -95.5897,116.91248 -47.0094,59.19412 -92.9706,116.82086 -88.0965,106.99856 4.8288,-9.73126 50.7945,-67.42685 95.1249,-123.28224 44.3909,-55.93157 87.2676,-110.17084 86.8338,-113.37032 -0.4302,-3.17301 -44.443,52.51518 -88.9717,108.63051 -44.5122,56.09462 -89.5286,112.6003 -91.1839,110.9587 -1.6397,-1.626 43.3723,-58.13217 88.4935,-115.00294 45.141,-56.89577 90.3684,-114.12865 89.9339,-117.33311 -0.4303,-3.17354 -45.6474,54.06585 -91.3923,111.73505 -45.7274,57.64726 -91.9701,115.70716 -93.6261,114.06495 -1.6394,-1.62574 44.5989,-59.68615 90.9353,-118.11012 46.3573,-58.45033 92.7889,-117.23533 92.3542,-120.44202 -0.4304,-3.17406 -46.8515,55.61763 -93.8125,114.84187 -46.9427,59.20103 -94.412,118.81633 -96.0686,117.1735 -1.6462,-1.6325 18.4648,-26.88842 38.2111,-51.72909 19.7477,-24.84243 39.1353,-49.27496 36.1788,-49.26954 -2.9512,0.005 -22.3397,24.43794 -41.435,48.46048 -19.0945,24.02143 -37.898,47.63626 -39.5473,46.00067 -3.2964,-3.26892 75.2649,-94.6904 70.2645,-95.82356 -2.4981,-0.56613 -20.8574,22.57162 -39.0353,45.44372 -18.1766,22.8706 -36.1729,45.47733 -37.8223,43.84164 -3.2967,-3.26928 71.9594,-90.54722 66.8363,-91.5257 -5.1231,-0.97847 -70.133,88.25642 -73.4301,84.98678 -3.2971,-3.26964 68.1344,-85.7477 62.9763,-86.68216 -5.1581,-0.93445 -66.2734,83.41252 -69.5709,80.14253 -3.2974,-3.27 64.4128,-81.07698 59.2547,-82.01145 -5.1582,-0.93446 -62.5521,78.74145 -65.8499,75.47109 -3.2979,-3.27035 60.6917,-76.40555 55.5336,-77.34002 -5.1582,-0.93447 -58.8315,74.06967 -62.1296,70.79895 -3.2982,-3.27071 56.9714,-71.73342 51.8131,-72.6679 -5.1582,-0.93448 -55.1113,69.39719 -58.4099,66.12612 -3.2985,-3.27108 53.2517,-67.0606 48.0934,-67.99509 -5.1582,-0.93449 -51.3919,64.72401 -54.6908,61.45258 -3.2989,-3.27143 49.5326,-62.38707 44.3743,-63.32157 -5.1584,-0.93449 -47.6732,60.05014 -50.9725,56.77834 -3.2992,-3.27179 45.8141,-57.71283 40.6558,-58.64734 -5.1584,-0.93451 -43.955,55.37555 -47.2547,52.1034 -3.2996,-3.27216 42.0963,-53.03791 36.9379,-53.97242 -5.1584,-0.93451 -40.2375,50.70028 -43.5375,47.42776 -3.3,-3.27252 38.3791,-48.36227 33.2206,-49.2968 -5.1585,-0.93452 -36.5206,46.02429 -39.8209,42.75142 -3.3004,-3.27287 34.6625,-43.68594 29.5039,-44.62047 -5.1585,-0.93453 -32.8043,41.3476 -36.105,38.07437 -3.3007,-3.27323 30.9465,-39.0089 25.788,-39.94344 -5.1586,-0.93454 -29.0887,36.67021 -32.3898,33.39662 -3.301,-3.27359 27.2312,-34.33116 22.0726,-35.2657 -5.1586,-0.93455 -25.3736,31.99211 -28.6751,28.71816 -3.3014,-3.27395 23.5165,-29.65271 18.3579,-30.58726 -5.1586,-0.93456 -21.6593,27.31331 -24.9611,24.039 -3.3018,-3.27431 19.8025,-24.97356 14.6438,-25.90812 -5.1587,-0.93457 -17.9456,22.63381 -21.2478,19.35914 -3.3021,-3.27467 16.0891,-20.29371 10.9303,-21.22828 -5.1587,-0.93457 -14.2324,17.95361 -17.535,14.67858 -3.3025,-3.27503 12.3763,-15.61315 7.2175,-16.54773 -5.1588,-0.93458 -10.52,13.2727 -13.8229,9.99731 -3.3029,-3.27539 8.6641,-10.93189 3.5053,-11.86648 -5.1588,-0.93459 -6.8082,8.59109 -10.1115,5.31534 -3.3032,-3.27576 4.9527,-6.24993 -0.2062,-7.18452 -5.1589,-0.9346 -3.097,3.90878 -6.4006,0.63266 -3.3037,-3.27618 -1.3377,-2.03456 -1.3377,-2.03456 m 225.9066,27.58552 c 0,0 25.8226,-31.62838 51.4735,-64.05038 25.6575,-32.43027 51.1344,-65.63909 50.701,-68.83544 -0.4319,-3.18541 -24.63,27.47719 -47.4942,56.39057 -22.8618,28.91039 -44.372,56.05281 -39.2088,45.81206 10.328,-20.48475 85.838,-108.5827 84.9726,-114.96543 -0.4323,-3.18862 -19.0586,20.4261 -36.3187,42.27521 -17.2615,21.8509 -33.1373,41.91433 -27.9532,31.63213 10.3727,-20.57349 63.4066,-80.29007 62.5408,-86.67547 -0.8657,-6.38539 -52.1681,66.10213 -41.75,45.43873 10.418,-20.66341 40.8843,-51.82412 40.0182,-58.2122 -0.8661,-6.38807 -29.6002,37.54895 -19.1362,16.79441 10.464,-20.75453 18.2701,-23.18248 17.4037,-29.57322 -0.8665,-6.3908 -1.6861,-1.6046 -1.6861,-1.6046 M 345.40389,244.85581 c 0,0 2.45317,0.62336 -4.9461,2.50445 -7.39947,1.88113 2.66622,-3.3447 -1.89475,-5.02557 -4.56096,-1.68088 -5.50472,6.9067 -12.90632,8.78838 -7.4016,1.88168 8.34536,-10.46926 3.78334,-12.15053 -4.56201,-1.68126 -11.18494,14.03221 -18.58867,15.91443 -7.40372,1.88221 14.02666,-17.59569 9.46359,-19.27734 -4.56306,-1.68165 -17.2513,21.63956 -24.48009,23.3009 -7.22879,1.66134 19.91703,-24.98255 15.35292,-26.66459 -4.56411,-1.68203 -22.11589,27.74444 -29.87665,30.0682 -3.87896,1.16146 2.48053,-6.77525 9.20949,-15.21401 6.72945,-8.43937 13.8233,-17.37639 11.53789,-18.21865 -2.27321,-0.83776 -17.10809,17.85661 -31.85033,36.24524 -14.73466,18.37917 -29.38059,36.46028 -30.62846,34.3487 -1.23852,-2.09577 13.38725,-20.18447 27.59687,-37.92771 14.21989,-17.75606 28.04182,-35.18705 25.75056,-36.03146 -2.27499,-0.83841 -16.07487,16.57032 -29.7587,33.6691 -13.67741,17.09075 -27.24153,33.87764 -28.48372,31.75544 -1.23421,-2.10858 12.31109,-18.9026 25.46103,-35.35195 13.15887,-16.46052 25.93853,-32.59442 23.64792,-33.4386 -2.27681,-0.83908 -15.03618,15.27495 -27.72675,31.16051 -12.68546,15.87916 -25.30395,31.53398 -26.8177,29.74445 -1.50577,-1.7801 10.83634,-17.11254 23.1332,-32.51808 12.30695,-15.41818 24.56446,-30.90475 23.30541,-33.05637 -1.25299,-2.14125 -13.12486,12.88751 -25.66489,28.61864 -12.53935,15.73028 -25.73746,32.14597 -29.20427,32.77433 -3.44618,0.62461 9.86042,-15.90419 23.97902,-33.62009 14.13685,-17.73879 29.01775,-36.58795 29.30223,-40.71854 0.28244,-4.10098 -14.65512,14.89883 -30.8159,35.21086 -16.16255,20.31425 -33.52753,41.90183 -37.37291,42.98747 -3.80351,1.07382 13.75489,-20.71209 32.09109,-43.76374 18.36191,-23.08395 37.39458,-47.31131 37.52712,-51.28192 0.13086,-3.92039 -18.8604,20.35269 -39.16479,45.91994 -20.30238,25.56473 -41.87086,52.34913 -45.73032,53.43874 -3.79553,1.07157 17.85665,-25.76464 40.21602,-53.92363 22.39713,-28.20657 45.34285,-57.55187 45.61504,-61.73632 0.26706,-4.1058 -22.62805,25.30002 -47.02741,56.08065 -24.39251,30.772 -50.20982,62.79953 -54.08633,63.89395 -3.78471,1.06851 22.09175,-30.9694 48.54557,-64.34636 26.50378,-33.44001 53.37083,-67.96781 53.64574,-72.19427 0.2677,-4.11553 -26.53945,30.48399 -55.03917,66.5042 -28.4863,36.00327 -58.54482,73.25285 -62.44059,74.35272 -3.68572,1.04056 32.90613,-44.39065 63.401,-83.03404 31.438,-39.83854 53.89902,-69.07159 29.67923,-41.6104 -50.61601,57.39008 -52.74071,67.00091 -55.43781,62.96911 -2.69711,-4.0318 27.22189,-34.45227 22.56031,-36.02781 -2.32906,-0.78719 -8.61367,7.21065 -14.68404,14.90254 -6.06964,7.69096 -11.92348,15.07526 -13.27405,13.05635 -2.70067,-4.03713 23.37622,-29.6357 19.04685,-31.63635 -4.32937,-2.00065 -21.74752,27.59922 -24.45177,23.55674 -2.70425,-4.04248 20.19691,-25.65258 15.61662,-27.33542 -4.58029,-1.68283 -18.32087,23.29295 -21.02872,19.24509 -2.70784,-4.04785 16.39945,-20.86535 11.90295,-22.65695 -4.49651,-1.7916 -14.61079,18.6091 -17.32225,14.55585 -2.71146,-4.05325 12.82574,-16.34745 8.32807,-18.13952 -4.49768,-1.79206 -11.03952,14.08627 -13.7546,10.0276 -2.71508,-4.05866 9.25692,-11.81966 4.75808,-13.6122 -4.49885,-1.79253 -7.47316,9.55354 -10.19188,5.48943 -2.71872,-4.0641 5.69303,-7.28196 1.193,-9.07496 -4.50002,-1.79301 -3.91172,5.01086 -6.63409,0.94129 -2.72282,-4.07024 -0.11662,-3.63103 -0.11662,-3.63103 m 108.31911,166.98606 c 0,0 0.0377,3.55192 -2.52704,-0.51559 -2.56499,-4.06794 2.67652,-3.25852 2.97343,-10.84204 0.29691,-7.58351 -5.53842,6.7741 -8.10687,2.70067 -2.56845,-4.07342 8.40379,-10.28412 8.7021,-17.9033 0.2983,-7.61917 -11.27055,13.82988 -13.84246,9.75095 -2.57192,-4.07892 14.14077,-17.37006 14.44049,-25.0254 0.14995,-3.82977 -4.08868,1.41105 -8.69855,7.09193 -4.61118,5.68251 -9.60126,11.8128 -10.88925,9.77011 -2.5754,-4.08445 19.88754,-24.51731 20.18869,-32.20934 0.15065,-3.84775 -5.50688,3.17913 -11.55537,10.65888 -6.04905,7.48044 -12.4975,15.42206 -13.81296,13.40724 -2.60463,-3.98937 25.81902,-35.62271 25.81902,-35.62271 M 759.0118,406.6918 c 0,0 1.99085,1.18769 -2.99931,0.0615 -4.99019,-1.12623 1.42486,-1.76393 -1.72725,-5.17166 -3.15211,-3.40774 -3.26294,4.04543 -8.25358,2.91911 -4.99065,-1.12633 5.10148,-6.32685 1.94675,-9.73741 -3.15472,-3.41056 -6.9374,8.61108 -11.92849,7.48464 -4.9911,-1.12643 8.77377,-10.8952 5.61642,-14.30859 -3.15734,-3.4134 -10.60752,13.18216 -15.59907,12.05563 -4.99154,-1.12653 12.44173,-15.46903 9.28175,-18.88526 -3.15997,-3.41624 -14.27329,17.75873 -19.26529,16.63209 -4.992,-1.12663 16.10532,-20.04833 12.94271,-23.46741 -3.1626,-3.41908 -18.04667,22.47981 -23.07489,21.39757 -5.02822,-1.08224 19.91229,-24.81665 16.74704,-28.23859 -3.16525,-3.42193 -21.69103,27.05175 -26.50388,25.70106 -4.81286,-1.3507 23.33863,-29.12299 20.17074,-32.54779 -1.58355,-1.71197 -7.77513,6.05412 -14.26014,14.15499 -6.48444,8.10014 -13.26296,16.53467 -15.91051,16.15593 -5.29088,-0.75688 27.00275,-33.73572 23.83221,-37.16339 -1.58462,-1.71312 -9.66882,7.51851 -17.39598,17.18075 -7.72518,9.65976 -15.09945,19.7515 -15.09945,19.7515 m -30.17482,51.86141 c 0,0 -11.51961,17.72453 -12.11565,11.23309 -0.59591,-6.4901 18.52261,-22.66031 31.82812,-46.44674 6.6879,-11.95606 -1.44809,-1.84122 -11.23217,10.24471 -9.82894,12.14134 -21.49002,26.46453 -21.78956,23.20227 -0.29711,-3.23587 17.69406,-25.36702 35.55994,-47.57682 17.89987,-22.25207 35.66321,-44.56981 35.72971,-48.3902 0.0659,-3.7841 -17.66897,18.55426 -35.74197,41.06468 -18.05178,22.48399 -36.44391,45.1414 -36.74491,41.86323 -0.29847,-3.25062 20.01905,-28.29924 42.48673,-56.3903 22.64642,-28.31454 46.95631,-59.08575 56.36545,-74.89892 9.34938,-15.71273 -15.15574,15.69143 -42.30006,49.85473 -27.18694,34.21695 -57.44703,71.68563 -57.76475,68.3702 -0.30731,-3.2067 28.19059,-38.53987 55.03906,-72.36664 26.87708,-33.8628 52.28766,-66.43184 47.64311,-64.29044 -4.54296,2.09456 -30.12423,34.79939 -54.91475,66.01901 -24.79782,31.22879 -48.90905,61.12128 -49.06699,57.63706 -0.1551,-3.42157 23.90615,-33.35171 46.4277,-61.74484 22.54638,-28.42442 43.69287,-55.47249 39.01859,-53.28639 -4.60538,2.15388 -25.75562,29.1379 -46.07569,54.74569 -20.32815,25.61796 -39.89153,49.95572 -40.37106,46.86797 -0.47387,-3.05137 19.04851,-27.41149 37.27058,-50.39684 18.23725,-23.00448 35.25901,-44.72957 30.63653,-42.6066 -4.58067,2.10377 -21.48689,23.6326 -37.86674,44.28497 -16.3871,20.6615 -32.28204,40.49643 -34.24827,39.25806 -1.95043,-1.22842 13.92108,-21.06282 29.00074,-40.08 15.08107,-19.01897 29.40045,-37.25258 24.90114,-35.28831 -4.46938,1.9512 -18.96559,20.37557 -33.07663,38.15767 -14.11689,17.78947 -27.86891,34.96644 -30.42023,34.45973 -2.53724,-0.50392 11.17502,-17.63938 24.95918,-35.01211 13.7897,-17.37971 27.64069,-34.98489 25.84164,-36.46315 -1.78772,-1.46896 -15.62531,16.13944 -29.78824,34.00121 -14.15851,17.85619 -28.63877,35.95942 -31.19263,35.4522 -2.53664,-0.5038 11.95034,-18.61717 26.5497,-37.0371 14.60661,-18.42907 29.31015,-37.14735 27.72792,-38.90668 -1.57104,-1.74689 -16.25805,16.97635 -31.34507,36.02613 -15.08148,19.04278 -30.55791,38.40318 -33.11334,37.89565 -2.53564,-0.5036 12.94886,-19.87523 28.54678,-39.5789 15.6066,-19.71464 31.3077,-39.73992 29.80428,-41.60567 -1.49502,-1.85532 -9.04468,7.78893 -16.35927,17.0895 -7.31348,9.29917 -14.38739,18.2506 -14.77243,15.00264 -0.77006,-6.49588 28.17547,-35.85176 25.0524,-39.40503 -1.56072,-1.77571 -7.98694,6.44972 -14.15025,14.30767 -6.163,7.85754 -12.05846,15.34321 -12.4446,12.08598 -0.77239,-6.51552 23.33359,-29.7699 20.21002,-33.32919 -1.56131,-1.7791 -6.78751,4.92324 -11.74062,11.2552 -4.95342,6.33234 -9.62926,12.2899 -10.01653,9.02315 -0.77474,-6.53534 18.63358,-23.83764 15.50718,-27.40014 -3.1264,-3.56251 -16.28191,20.86482 -17.05903,14.30948 -0.77711,-6.55535 13.93263,-17.87199 10.8034,-21.43773 -3.12924,-3.56574 -11.5805,14.8824 -12.36001,8.30687 -0.77951,-6.57554 9.23078,-11.87261 6.0987,-15.44158 -3.13207,-3.56898 -6.8782,8.86607 -7.66012,2.27016 -0.78193,-6.59591 4.52805,-5.83914 1.39312,-9.41136 -3.13521,-3.57256 -2.56837,-0.49277 -2.56837,-0.49277 m 7.97994,80.30074 c 0,0 -7.78871,10.78318 -16.26561,21.44359 -8.47504,10.65808 -17.63244,21.19132 -20.18051,20.68525 -2.54259,-0.50498 4.85859,-9.7686 11.81581,-18.51287 6.95734,-8.74441 13.47463,-16.97249 9.28371,-15.40707 -8.37952,3.12996 -26.19047,32.90883 -31.28179,31.89765 -5.09133,-1.01118 22.51315,-28.27634 13.52417,-24.38499 -8.98899,3.89136 -18.6155,23.37381 -23.70719,22.36255 -5.0917,-1.01125 14.74014,-18.49885 5.78564,-14.65877 -8.95449,3.84008 -10.87734,13.64752 -15.9694,12.63619 -5.09207,-1.01133 7.01491,-8.79611 -1.94902,-4.95198 -8.9649,3.84454 -5.68929,3.43494 -5.68929,3.43494 M 190.64053,682.93332 c 0,0 2.69047,0.32122 0.21777,-3.9175 -2.4729,-4.23905 -2.35266,2.91027 -6.62323,0.89548 -4.27058,-2.01479 4.15033,-5.13453 1.67568,-9.3766 -2.47466,-4.24207 -5.94626,7.36181 -10.21752,5.34669 -4.27126,-2.01511 7.74286,-9.58876 5.26644,-13.83386 -2.47642,-4.2451 -9.5377,11.81875 -13.80965,9.80331 -4.27195,-2.01544 11.33323,-14.04841 8.85504,-18.29654 -2.4782,-4.24813 -13.12699,16.2811 -17.39963,14.26534 -4.27264,-2.01576 14.92143,-18.51347 12.44147,-22.76464 -2.47997,-4.25118 -16.71411,20.74888 -20.98743,18.73279 -4.27333,-2.01609 18.50746,-22.98397 16.02572,-27.23818 -2.48174,-4.25422 -20.29905,25.22209 -24.57306,23.20568 -4.27401,-2.01641 22.09132,-27.4599 19.6078,-31.71717 -2.48353,-4.25728 -23.88181,29.70076 -28.15651,27.68402 -4.27471,-2.01674 25.67298,-31.94129 23.18768,-36.20163 -2.48531,-4.26033 -27.46239,34.18489 -31.73778,32.16783 -4.27539,-2.01706 29.25247,-36.42816 26.76537,-40.69155 -2.48709,-4.2634 -31.18998,38.85989 -35.46231,36.8379 -4.27233,-2.022 32.97522,-41.1013 30.48633,-45.36777 -1.244,-2.13247 -9.88498,8.67944 -18.75975,19.74975 -8.87355,11.06879 -17.98144,22.39594 -20.04084,21.28633 -4.11597,-2.2177 36.3117,-45.30255 33.82101,-49.57209 -1.24478,-2.13383 -10.67027,9.67439 -20.3937,21.81475 -9.72208,12.13868 -19.74236,24.60884 -22.036966,23.79049 -2.289775,-0.81662 7.926196,-14.45192 18.674436,-27.87983 10.75012,-13.43027 22.03036,-26.6534 22.03036,-26.6534 m 69.26384,-79.93944 c 0,0 -7.1075,12.85228 -42.97422,50.60361 -18.08047,19.03051 -7.92472,6.28456 5.42556,-10.55771 13.46182,-16.98298 30.44743,-38.50454 26.87346,-37.72879 -3.55871,0.77243 -24.06675,26.81419 -49.8486,59.23694 -26.00735,32.70633 -56.63294,70.94265 -81.052679,97.52212 -24.514287,26.68238 7.55798,-12.89425 43.388729,-57.69214 36.12657,-45.16774 76.91344,-96.76634 73.27778,-95.9772 -3.49603,0.75882 -44.91952,53.20348 -85.868187,104.33767 -40.921203,51.09989 -81.503713,101.07401 -80.950543,96.7203 0.537497,-4.23036 41.080483,-54.25947 79.911872,-102.79273 38.884718,-48.5999 76.270348,-95.95655 72.670738,-95.17523 -3.50742,0.7613 -40.929,48.12288 -77.772263,94.17799 -36.822527,46.02919 -73.172212,90.8971 -72.618797,86.54146 0.540824,-4.25655 36.854917,-49.17402 71.590311,-92.6329 34.779419,-43.51396 68.154419,-85.77572 64.563289,-84.99625 -3.51777,0.76354 -36.92491,43.02973 -69.660629,83.99274 -32.72086,40.94441 -64.848772,80.69582 -64.294936,76.33686 0.544007,-4.2816 32.640292,-44.07709 63.276722,-82.44749 30.671983,-38.41493 60.023743,-75.56938 56.440033,-74.79152 -3.52707,0.76557 -32.90714,37.92392 -61.533156,73.78168 -28.616178,35.84544 -56.533456,70.46996 -55.979022,66.10629 0.547046,-4.30551 28.436692,-38.9686 54.971166,-72.23628 26.562382,-33.30268 51.878212,-65.33728 48.300852,-64.5608 -3.53547,0.76739 -28.842434,32.76355 -53.356442,63.50283 -24.508353,30.7322 -48.25935,60.261 -47.838622,56.0582 0.416702,-4.16258 24.143973,-33.72198 46.641659,-61.95731 22.517775,-28.26053 43.884195,-55.28792 40.311905,-54.51254 -3.54231,0.76887 -24.882639,27.73998 -45.289401,53.35548 -20.404556,25.61272 -39.894598,49.90187 -39.152498,45.29299 0.737733,-4.58177 20.209723,-28.89938 38.943825,-52.43995 18.754394,-23.56606 36.809974,-46.40096 35.229604,-48.14479 -1.57144,-1.73397 -19.569674,21.03759 -37.504058,43.58835 -17.925964,22.54016 -35.789621,44.86275 -36.597259,42.17791 -0.803189,-2.67006 17.064377,-25.02046 34.715601,-47.23166 17.663827,-22.22706 35.116607,-44.32109 33.923067,-46.5577 -1.187139,-2.22462 -18.967468,20.30286 -37.125423,43.16311 -18.151571,22.85221 -36.677003,46.03073 -38.865957,45.06799 -2.175457,-0.9568 16.369807,-24.1646 35.056665,-47.69983 18.696234,-23.54703 37.518897,-47.40403 36.38199,-49.71827 -1.129656,-2.29948 -19.938454,21.56326 -39.155449,45.7802 -19.209647,24.20769 -38.822763,48.7617 -41.012884,47.79844 -2.174929,-0.95656 17.412992,-25.48385 37.095494,-50.29654 19.69224,-24.82497 39.464654,-49.91871 38.195767,-52.06956 -1.259889,-2.1356 -21.018526,22.96327 -41.166545,48.37664 C 26.189497,571.7695 5.6650745,597.47923 3.4739504,596.51554 1.2994484,595.55916 21.833078,569.83268 42.460515,543.80478 63.098888,517.76308 83.81448,491.4392 82.596659,489.21904 c -1.208316,-2.20284 -21.909088,24.12681 -43.028636,50.79058 -21.110664,26.65255 -42.6339955,53.62956 -44.8263002,52.66534 -2.1806408,-0.95908 8.0978973,-13.84301 17.9515512,-26.2351 9.854097,-12.39264 19.288446,-24.29855 15.549248,-23.30439 -7.474069,1.98718 -37.8672317,47.61907 -42.234302,45.69836 -4.367071,-1.92071 35.107558,-44.1496 28.460823,-43.2068 -6.6467358,0.94279 -32.827894,41.28609 -37.195603,39.3651 -4.367708,-1.92099 30.1945234,-37.97533 23.24976073,-36.65711 -6.94476263,1.31821 -27.61746873,34.73612 -31.98581673,32.81485 -4.368347,-1.92127 25.041054,-31.49664 18.095813,-30.17833 -6.945242,1.31831 -22.46416,28.25706 -26.833146,26.33551 -4.368986,-1.92155 19.887904,-25.0172 12.942184,-23.6988 -6.945719,1.3184 -17.31117,21.77725 -21.680796,19.85541 -4.369625,-1.92183 14.735077,-18.53701 7.788879,-17.21852 -6.946199,1.31849 -12.158504,15.29669 -16.528769,13.37458 -4.370265,-1.92211 9.58257,-12.05608 2.635894,-10.7375 -6.946676,1.31858 -7.006158,8.81539 -11.377063,6.89299 -4.370905,-1.92239 4.430387,-5.57441 -2.516767,-4.25574 -6.947222,1.31868 -4.039964,1.37201 -4.039964,1.37201 M 38.523802,533.87715 c 0,0 10.448591,-12.27058 20.557307,-25.09205 10.111897,-12.8255 19.87943,-26.19494 18.664568,-28.40971 -1.212348,-2.21019 -10.872852,10.09466 -20.160937,21.88667 -9.287022,11.79067 -18.195974,23.06305 -17.763437,18.78117 0.865123,-8.56423 35.497943,-45.09138 33.06963,-49.51835 -1.213597,-2.21247 -9.239308,8.02402 -16.88003,17.7433 -7.640617,9.71915 -14.890561,18.91535 -14.456827,14.62163 0.867646,-8.58922 28.908544,-36.79191 26.478344,-41.22232 -2.430201,-4.43041 -25.610694,32.63313 -24.740502,24.0187 0.870193,-8.61442 22.310302,-28.44911 19.87821,-32.88297 -2.432092,-4.43387 -19.008013,24.26858 -18.135252,15.62872 0.872762,-8.63986 15.703161,-20.06258 13.269173,-24.4999 -2.433989,-4.43732 -12.396407,15.86007 -11.521053,7.19455 0.875354,-8.66551 9.087065,-11.63187 6.651177,-16.07265 -2.435888,-4.44079 -5.775819,7.40716 -4.897849,-1.28424 0.877937,-8.69108 1.242776,-5.37867 1.242776,-5.37867 m 2597.299,265.85464 c 0,0 2.5045,0.55283 -0.4927,-3.04973 -2.9973,-3.60287 -1.9102,2.37134 -6.7165,1.01444 -4.8062,-1.35689 3.7192,-4.61731 0.7202,-8.22216 -2.9991,-3.60485 -5.5264,6.86527 -10.3331,5.50827 -4.8066,-1.357 7.334,-9.11312 4.3334,-12.71996 -3.0007,-3.60684 -9.14,11.36296 -13.947,10.00585 -4.807,-1.3571 10.9463,-13.61269 7.944,-17.22153 -3.0024,-3.60883 -12.751,15.86443 -17.5584,14.50721 -4.8074,-1.35721 14.556,-18.11604 11.5521,-21.72688 -3.004,-3.61083 -16.3595,20.36967 -21.1672,19.01235 -4.8078,-1.35732 18.1632,-22.62318 15.1575,-26.23601 -3.0056,-3.61283 -19.9653,24.87869 -24.7734,23.52127 -4.8081,-1.35743 21.7678,-27.1341 18.7604,-30.74894 -3.0073,-3.61483 -23.5685,29.39151 -28.377,28.03398 -4.8085,-1.35754 25.3697,-31.64881 22.3607,-35.26566 -3.009,-3.61684 -27.258,34.01854 -32.1271,32.73595 -4.8691,-1.2826 29.1181,-36.35279 26.1075,-39.97164 -3.0107,-3.61885 -30.8904,38.58176 -35.5219,37.00257 -4.6315,-1.57919 32.5112,-40.62142 29.4989,-44.24228 -1.5056,-1.80972 -9.9814,8.82232 -18.7487,19.78414 -8.7664,10.96069 -17.8244,22.25022 -20.375,21.74986 -5.0969,-0.9999 36.1113,-45.15487 33.0973,-48.77774 -1.5062,-1.81049 -11.8283,10.22626 -21.8131,22.71873 -9.9827,12.48983 -19.6332,25.43589 -19.6332,25.43589 m -48.3742,74.55284 c 0,0 -10.1502,16.12101 -10.4217,9.19793 -0.2716,-6.92282 20.5618,-25.25502 41.7933,-58.93455 10.6832,-16.94691 0.07,-3.7297 -13.0362,12.50892 -13.1847,16.33537 -29.1643,36.04473 -29.3008,32.56586 -0.1353,-3.45066 23.2823,-32.34856 47.3725,-62.33386 24.155,-30.0661 48.8684,-61.08411 52.329,-69.17901 3.4269,-8.01638 -21.2735,23.09653 -47.1664,55.39513 -25.8619,32.26002 -52.9426,65.72825 -53.0798,62.22962 -0.135,-3.44295 33.0044,-44.42599 67.442,-87.55372 34.63,-43.36883 70.1222,-88.35485 77.0676,-101.00924 6.8116,-12.41047 -28.7468,32.92155 -66.6969,80.60077 -37.8763,47.58656 -78.2197,97.58548 -78.3585,94.04556 -0.1344,-3.42661 37.3135,-49.88395 73.1185,-94.87403 35.8363,-45.02931 70.2148,-88.81044 65.8783,-87.08077 -4.2347,1.68908 -38.6686,45.4838 -72.435,87.90677 -33.7635,42.41925 -66.9709,83.62006 -67.1088,80.10272 -0.1351,-3.44482 33.0362,-44.68102 64.6931,-84.48101 31.6826,-39.83237 61.9981,-78.40203 57.67,-76.67568 -4.2496,1.69501 -34.5837,40.23848 -64.1943,77.46137 -29.6102,37.22225 -58.5783,73.23758 -58.8392,69.87313 -0.2567,-3.31165 28.6801,-39.35555 56.2486,-74.0339 27.5877,-34.70263 53.9172,-68.16811 49.5956,-66.44437 -4.2622,1.70004 -30.6079,35.14256 -56.0816,67.1822 -25.4743,32.0405 -50.1352,62.76225 -50.0966,59.02501 0.038,-3.69522 24.6717,-34.44663 47.955,-63.75302 23.301,-29.32884 45.3409,-57.31586 41.0253,-55.59454 -4.275,1.70515 -26.3065,29.64596 -47.5779,56.41672 -21.2737,26.7735 -41.8235,52.42987 -42.4987,49.5798 -0.6698,-2.82762 19.8587,-28.49906 39.3049,-52.98583 19.455,-24.49772 37.8781,-47.86786 33.5653,-46.14762 -4.2854,1.7093 -22.7536,25.11115 -40.8624,47.90747 -18.113,22.80159 -35.8844,45.02325 -38.342,44.39846 -2.444,-0.62132 14.7682,-22.15105 31.9533,-43.78255 17.1893,-21.63666 34.3475,-43.37062 32.2212,-44.42615 -2.114,-1.04942 -19.2652,20.68561 -36.6193,42.53625 -17.3504,21.84604 -34.9018,43.80478 -37.3604,43.17977 -2.444,-0.62134 15.1581,-22.64659 32.8719,-44.95647 17.7204,-22.31816 35.5405,-44.9072 33.9912,-46.69753 -1.5397,-1.77927 -19.3479,20.81337 -37.5191,43.71008 -18.1659,22.88998 -36.69,46.0764 -39.1497,45.45108 -2.4435,-0.62119 16.0971,-23.8303 34.7755,-47.37317 18.6864,-23.55296 37.4947,-47.42168 36.1002,-49.41255 -1.3848,-1.97716 -20.1795,21.89634 -39.3933,46.1267 -19.2075,24.22233 -38.8279,48.79164 -41.2889,48.16601 -2.4426,-0.62097 17.1948,-25.21353 36.9198,-50.09614 19.7332,-24.89294 39.5392,-50.05877 38.0067,-51.87795 -1.5207,-1.8052 -21.3132,23.36478 -41.506,48.84958 -20.1859,25.47626 -40.7655,51.25723 -43.2276,50.63133 -2.4483,-0.62243 8.4038,-14.218 18.6524,-27.10469 10.2487,-12.8867 19.8999,-25.06982 15.2038,-22.86736 -9.3885,4.40314 -38.7599,48.72542 -43.6639,47.47871 -4.904,-1.24671 35.2282,-44.27811 26.9898,-41.32928 -8.2383,2.94883 -31.8938,40.08257 -36.7981,38.83578 -4.9044,-1.2468 28.3,-35.55959 19.9589,-32.4843 -8.3411,3.07529 -24.8633,31.2375 -29.768,29.99063 -4.9046,-1.24688 21.4269,-26.91534 13.0824,-23.8388 -8.3445,3.07653 -17.987,22.59192 -22.892,21.34497 -4.905,-1.24696 14.5475,-18.26844 6.1997,-15.19067 -8.3478,3.07778 -11.1047,13.94371 -16.01,12.69667 -4.9054,-1.24704 7.6622,-9.61889 -0.689,-6.53989 -8.3514,3.07908 -6.6692,4.66929 -6.6692,4.66929 m 98.599,-42.43853 c 0,0 39.4846,-46.2334 36.4953,-50.02905 -1.4759,-1.87407 -10.6205,9.77046 -19.4892,21.0259 -8.8673,11.25372 -17.4554,22.11565 -17.6807,18.66782 -0.4505,-6.89485 34.2161,-43.44447 31.2605,-47.19746 -1.4771,-1.87556 -9.3785,8.19823 -16.9946,17.88034 -7.6153,9.68124 -14.9421,18.96782 -15.1678,15.51348 -0.4514,-6.9088 29.2068,-37.14681 26.2494,-40.90205 -2.9574,-3.75523 -26.7008,33.99326 -27.1531,27.07042 -0.4523,-6.92284 24.1957,-30.82565 21.2365,-34.58314 -2.9591,-3.75749 -21.6888,27.66031 -22.1421,20.72335 -0.4532,-6.93697 19.183,-24.48084 16.222,-28.24058 -2.9609,-3.75974 -16.6752,21.30362 -17.1294,14.35245 -0.4542,-6.95118 14.1685,-18.11219 11.2058,-21.87418 -2.9627,-3.762 -11.66,14.92301 -12.1151,7.95753 -0.4551,-6.96547 9.1524,-11.71953 6.1879,-15.48379 -2.9645,-3.76426 -6.643,8.51833 -7.099,1.53846 -0.4561,-6.97986 4.1345,-5.30272 1.1682,-9.06925 -2.9665,-3.76681 -1.8535,-1.40777 -1.8535,-1.40777 M 2160.8557,757.1236 c 0,0 2.3346,0.75914 0.013,-3.65315 -2.3217,-4.41273 -2.0801,2.56555 -6.2154,0.38984 -4.1353,-2.17572 3.8937,-4.80257 1.5697,-9.21956 -2.324,-4.417 -5.705,7.04384 -9.8412,4.86762 -4.1363,-2.17622 7.5172,-9.28462 5.191,-13.70589 -2.3263,-4.42128 -9.3273,11.52967 -13.4645,9.35294 -4.1372,-2.17673 11.1382,-13.77422 8.8097,-18.19978 -2.3285,-4.42557 -12.9469,16.02305 -17.0851,13.8458 -4.1382,-2.17724 14.7566,-18.27137 12.4258,-22.70124 -2.3307,-4.42987 -16.564,20.524 -20.7032,18.34625 -4.1392,-2.17776 18.3725,-22.77612 16.0394,-27.21031 -2.333,-4.43419 -20.1786,25.03255 -24.3187,22.85429 -4.1402,-2.17827 21.9857,-27.28848 19.6504,-31.727 -2.3353,-4.43852 -23.7906,29.54873 -27.9317,27.36996 -4.1411,-2.17878 25.5964,-31.80847 23.2588,-36.25133 -1.1686,-2.22103 -8.0412,6.35449 -15.157,15.20603 -7.115,8.85052 -14.4743,17.97767 -16.5202,16.85484 -4.0895,-2.24446 29.3396,-36.50373 26.9997,-40.95095 -1.1696,-2.22295 -8.8957,7.43289 -16.8609,17.35321 -7.9641,9.91887 -16.1683,20.10264 -18.1738,18.92831 -4.0084,-2.34707 32.6948,-40.72874 30.3526,-45.18032 -1.1707,-2.22492 -9.7037,8.45679 -18.5403,19.47596 -8.8352,11.01749 -17.9748,22.37226 -20.2129,21.48504 -2.2215,-0.88065 20.8729,-29.59736 43.441,-57.9279 22.5702,-28.33325 44.6374,-56.30683 41.2055,-55.71471 -3.4064,0.58772 -22.8056,25.19617 -44.9138,52.96343 -22.2142,27.90054 -46.8399,58.56803 -60.6066,71.94025 -13.6741,13.28228 11.4177,-17.73314 38.6303,-51.78531 27.2401,-34.08664 56.6913,-71.35873 53.2331,-70.76208 -3.3684,0.58117 -37.1682,43.37668 -71.5032,86.22022 -34.351,42.86348 -69.2279,85.76266 -72.9412,86.65092 -3.6162,0.86502 31.2768,-42.0358 65.7523,-85.04202 34.4602,-42.9872 68.4941,-86.06962 65.0343,-85.47267 -3.3658,0.58072 -36.3394,42.297 -68.7017,82.68764 -32.3411,40.36427 -64.1628,79.53247 -63.3602,74.8852 0.7852,-4.54731 32.5688,-43.77632 62.7652,-81.50936 30.2447,-37.79345 59.0804,-74.30082 55.6379,-73.70687 -3.3769,0.58263 -32.2445,37.09356 -60.3952,72.27952 -28.1368,35.16864 -55.6191,69.10357 -54.8151,64.44762 0.7912,-4.58171 28.2404,-38.56964 54.2357,-71.10115 26.0328,-32.57848 50.7495,-63.86182 47.3148,-63.26921 -3.3866,0.5843 -28.1307,31.8707 -52.0659,61.83206 -23.9275,29.95154 -47.084,58.63703 -46.2781,53.97036 0.7969,-4.61464 23.9253,-33.3452 45.7145,-60.65362 21.8172,-27.34347 42.397,-53.38335 38.9688,-52.79186 -3.3947,0.5857 -24.1017,26.75959 -43.8911,51.56723 -19.7864,24.80388 -38.6733,48.27411 -37.7354,43.43371 0.9315,-4.80753 19.8631,-28.39784 38.0028,-51.16978 18.1652,-22.80388 35.5875,-44.84692 34.1067,-46.71964 -1.471,-1.86035 -18.6507,19.88649 -35.6,41.18558 -16.939,21.28626 -33.6472,42.12738 -33.6084,38.39148 0.039,-3.71442 16.744,-24.59128 33.0242,-45.0748 16.2977,-20.50544 32.189,-40.63963 31.0742,-42.97824 -1.109,-2.32622 -17.0912,17.94395 -33.4566,38.55143 -16.3587,20.59911 -33.0977,41.52987 -35.219,40.48295 -2.1079,-1.04033 14.6497,-22.00011 31.5461,-43.28727 16.9067,-21.30004 33.936,-42.90884 32.8658,-45.31165 -1.0632,-2.3872 -18.0764,19.22856 -35.5027,41.19987 -17.4185,21.96153 -35.2461,44.27152 -37.3688,43.22392 -2.1074,-1.0401 15.692,-23.32095 33.5818,-45.88782 17.9006,-22.58045 35.876,-45.42897 34.6762,-47.67229 -1.1911,-2.22692 -19.1504,20.6279 -37.5069,43.79997 -18.348,23.16135 -37.0887,46.6323 -39.2125,45.5841 -2.1071,-1.03992 16.6428,-24.52917 35.4813,-48.3218 18.8508,-23.80805 37.772,-47.89847 36.6274,-50.21784 -1.138,-2.30597 -11.0365,10.31272 -20.5367,22.37331 -9.499,12.05904 -18.5912,23.55155 -17.931,18.98548 1.3204,-9.13341 36.1895,-45.97509 33.9089,-50.59627 -1.1396,-2.30923 -9.2541,8.05378 -16.9526,17.85209 -7.6987,9.79853 -14.9727,19.02355 -14.3099,14.43941 1.3259,-9.17142 28.982,-36.91268 26.699,-41.53877 -1.1412,-2.31233 -7.4649,5.7781 -13.3579,13.29768 -5.894,7.52105 -11.3491,14.46259 -10.6836,9.85981 1.3315,-9.20992 21.7585,-27.78357 19.473,-32.41457 -2.2854,-4.63101 -18.1415,23.20471 -16.8044,13.95581 1.3372,-9.24891 14.519,-18.58681 12.2311,-23.22275 -2.2878,-4.63594 -10.8939,13.9739 -9.5511,4.68551 1.3429,-9.28839 7.2633,-9.32145 4.973,-13.96234 -2.2905,-4.64112 -2.9574,0.01 -2.9574,0.01 m 146.106,69.59048 c 0,0 11.6077,-10.94782 -13.9983,14.00564 -12.8576,12.52989 -10.1298,9.08596 -5.1641,2.80267 5.0006,-6.32748 12.3388,-15.63101 8.921,-15.04132 -3.4094,0.58823 -14.3001,13.46469 -24.3789,26.19156 -10.0783,12.72608 -19.3518,25.30804 -19.3518,25.30804 M 2026.723,622.69112 c 0,0 -8.6294,11.83193 -17.8312,23.40592 -9.2,11.57167 -18.9677,22.88447 -21.0853,21.83939 -4.232,-2.0887 34.2856,-43.12191 27.6246,-42.16029 -6.661,0.96163 -31.8566,40.07159 -36.0896,37.98244 -4.233,-2.08915 29.6592,-37.31202 23.1439,-36.53452 -6.5154,0.7775 -27.3769,34.44537 -31.6109,32.35577 -4.2339,-2.0896 24.7589,-31.15347 18.0964,-30.19065 -6.6625,0.96282 -22.3303,28.10105 -26.5651,26.011 -4.2348,-2.09005 19.9026,-25.04818 13.2398,-24.08531 -6.6628,0.96287 -17.4746,21.99526 -21.7104,19.90476 -4.2358,-2.09051 15.0476,-18.94189 8.3845,-17.97898 -6.6631,0.96291 -12.6203,15.88847 -16.8569,13.79752 -4.2367,-2.09096 10.1938,-12.83461 3.5304,-11.87165 -6.6634,0.96295 -7.7671,9.78069 -12.0047,7.68928 -4.2376,-2.09141 5.3413,-6.72633 -1.3224,-5.76333 -6.6636,0.96298 -5.0345,2.62599 -5.0345,2.62599 m 1085.8449,-15.30417 c 0,0 1.4342,1.88979 -4.6542,2.1247 -6.0879,0.23488 2.712,-3.38005 -1.2123,-5.84855 -3.9243,-2.4685 -4.8756,6.08343 -10.9636,6.31831 -6.0879,0.23489 7.0365,-8.78327 3.0902,-11.23085 -3.9463,-2.44758 -9.441,11.7931 -15.4142,11.88495 -5.9731,0.0919 11.4651,-14.32896 7.5195,-16.78403 -3.9457,-2.45508 -13.3876,16.7452 -19.3907,16.87434 -6.0031,0.12914 15.4422,-19.32579 11.52,-21.81709 -1.9606,-1.24536 -7.1582,4.37823 -11.8961,10.31413 -4.7364,5.93415 -9.019,12.1826 -9.019,12.1826 m -20.6887,54.30667 c 0,0 -0.9338,4.69298 -2.7506,-0.24063 -1.817,-4.93434 4.1187,-4.95663 6.6614,-15.24403 1.2737,-5.15322 -0.8507,-2.55677 -3.5062,0.67803 -2.6635,3.24454 -5.8841,7.15525 -6.7958,4.6793 -1.8237,-4.95237 12.7537,-15.53042 15.6176,-26.33066 1.435,-5.41189 -2.924,-0.0216 -7.886,6.07379 -4.9705,6.10573 -10.581,12.95612 -11.5349,10.51618 -0.9475,-2.42384 11.2017,-17.30896 22.9104,-31.85999 11.7252,-14.57154 23.0337,-28.8356 21.087,-30.11988 -1.9299,-1.27317 -13.2117,12.97401 -24.4034,26.90701 -11.1828,13.92196 -22.2732,27.53118 -23.1089,24.92687 -0.8297,-2.58527 10.2028,-16.17664 20.8319,-29.44208 10.6442,-13.28426 20.9057,-26.26572 19.0964,-27.72532 -1.7966,-1.44938 -12.0292,11.51498 -22.2091,24.24417 -10.1725,12.71992 -20.2897,25.20448 -21.2568,22.74919 -0.962,-2.44241 9.4236,-15.29322 20.3217,-28.9672 10.9334,-13.71833 22.3075,-28.17645 23.9368,-34.05522 1.621,-5.84867 -9.7045,8.68391 -21.957,24.1419 -12.2476,15.45186 -25.4772,31.88331 -26.7668,29.80171 -1.2749,-2.05774 12.1553,-18.75812 26.0478,-36.34925 13.9473,-17.66055 28.24,-36.07419 29.7585,-41.9055 1.5032,-5.77242 -13.049,13.16332 -29.0943,33.57516 -16.0455,20.41208 -33.6003,42.29202 -36.6826,42.40925 -2.9939,0.11387 16.9799,-24.7817 35.4053,-48.29888 18.4127,-23.50094 35.3305,-45.66103 28.0338,-39.99503 -7.1631,5.5623 -24.3753,27.87481 -40.6556,48.55462 -16.3515,20.77031 -31.9632,40.17242 -35.0869,40.3664 -3.0757,0.191 11.9861,-18.56423 25.7587,-36.01626 13.7732,-17.45272 26.2644,-33.58926 19.1022,-28.16435 -7.1035,5.38042 -19.7972,21.61879 -31.5285,36.4161 -11.7691,14.84488 -22.6758,28.38794 -25.8165,28.61562 -3.1188,0.22611 8.963,-14.7865 21.1145,-30.12657 12.1559,-15.34569 24.3601,-30.99601 22.2304,-32.07338 -2.1146,-1.06974 -7.4935,5.84263 -12.6144,12.37884 -5.1206,6.53578 -9.9773,12.69057 -10.8879,10.10352 -1.8217,-5.17528 19.3386,-24.71256 15.5644,-27.45175 -1.8862,-1.36896 -6.2065,4.20076 -10.3262,9.48239 -4.1198,5.28179 -8.0343,10.27118 -9.002,7.74238 -1.9359,-5.05921 15.6112,-20.03787 11.8039,-22.74293 -1.9031,-1.35221 -5.3221,3.0697 -8.5341,7.20586 -3.2126,4.13683 -6.2139,7.98388 -7.2161,5.48538 -2.0052,-4.99904 11.8233,-15.24161 7.8637,-17.75692 -3.9597,-2.51531 -9.8737,12.7641 -11.9081,7.77437 -2.0343,-4.98972 7.9823,-10.33355 4.0865,-12.93925 -3.8959,-2.6057 -6.1257,7.95596 -8.1504,2.92519 -2.0248,-5.03077 4.2545,-5.5309 0.3547,-8.13924 -3.8999,-2.60843 -3.3734,0.55265 -3.3734,0.55265 m 14.8923,56.59087 c 0,0 -5.487,7.8617 -11.8122,15.78104 -6.3239,7.91778 -13.4788,15.88848 -16.6067,16.10429 -3.1183,0.21515 2.2061,-6.40275 6.2283,-11.4257 4.0399,-5.04502 6.7317,-8.42676 -1.4693,-1.84967 -16.474,13.21192 -14.0923,13.87617 -14.0923,13.87617 M 1757.6108,633.4334 c 0,0 -0.5079,4.09711 -3.3479,0.47214 -2.8405,-3.62574 2.7621,-3.2523 2.4854,-10.00073 -0.1387,-3.38045 -1.4649,-1.78174 -3.0984,0.17842 -1.6392,1.96696 -3.6026,4.31238 -5.0023,2.45934 -2.8004,-3.7072 7.6526,-9.1796 7.2041,-15.8321 -0.2247,-3.33263 -2.7009,-0.29638 -5.5023,3.10912 -2.8065,3.41165 -5.9582,7.21236 -7.4397,5.43938 -1.4728,-1.76255 6.116,-10.97098 13.2866,-19.85046 7.1805,-8.89179 13.966,-17.47892 11.4642,-18.06038 -2.4833,-0.57718 -9.2572,8.00162 -15.9763,16.34058 -6.7151,8.33401 -13.373,16.42987 -15.0403,14.86206 -1.6571,-1.55827 4.952,-9.64076 11.2674,-17.50581 6.3229,-7.87423 12.3647,-15.54411 10.0181,-16.32311 -2.3356,-0.77536 -8.3202,6.84723 -14.8995,15.05436 -6.5851,8.21449 -13.7484,16.984 -17.9915,18.53934 -4.217,1.54575 3.2932,-7.57229 11.575,-17.89448 8.3082,-10.35516 17.286,-21.80961 16.8604,-25.1016 -0.4215,-3.25918 -9.3577,8.32219 -19.6422,21.20601 -10.3089,12.91447 -21.9262,27.04644 -26.5735,29.04174 -4.5621,1.95874 7.2697,-12.27217 19.8207,-27.97334 12.6114,-15.7767 25.6934,-32.75464 25.6579,-36.66758 -0.035,-3.81213 -10.0083,9.32463 -19.8842,21.92245 -9.8838,12.60783 -19.5443,24.53739 -17.5199,18.36096 4.0672,-12.40933 19.1186,-24.18544 13.5272,-24.58159 -2.7926,-0.19786 -5.9482,3.85594 -8.8048,7.49359 -2.8573,3.63862 -5.4092,6.85687 -6.8834,4.99277 -2.9503,-3.73059 10.2062,-13.02217 5.355,-14.37387 -4.8511,-1.3517 -8.3518,10.70143 -11.486,7.16971 -3.1342,-3.53173 6.6988,-8.60375 1.9385,-10.07845 -4.7603,-1.4747 -5.0701,6.54408 -8.1222,2.87217 -3.0521,-3.6719 3.236,-4.18368 -1.5705,-5.60378 -4.8067,-1.42017 -3.0936,0.18701 -3.0936,0.18701 m 93.3951,23.89605 c 0,0 4.1899,-1.55742 -4.5103,1.96109 -8.7042,3.52014 2.4844,-3.12368 -2.6205,-4.12619 -5.1048,-1.00251 -5.5351,6.95965 -14.0663,10.23627 -4.2677,1.63913 -2.5672,-1.38784 0.1738,-4.82194 2.7427,-3.43642 6.5197,-7.27941 6.5197,-7.27941 m -22.7418,-39.42322 c 0,0 -3.4997,4.6707 -7.0475,9.34461 -3.5453,4.6707 -7.1388,9.34461 -7.1388,9.34461 m -599.0247,71.08571 c 0,0 2.4854,0.57621 -1.5519,-1.73578 -4.0391,-2.31294 -1.5685,1.94752 -7.5568,2.05776 -5.9883,0.11024 3.6865,-4.58075 -0.2706,-7.0119 -3.9571,-2.43115 -5.6334,7.01764 -11.7171,7.24611 -6.0837,0.22848 7.7188,-9.62565 3.7247,-12.02622 -1.9973,-1.20046 -5.2722,2.00282 -8.0734,5.50567 -2.8002,3.50158 -5.1345,7.30611 -5.1345,7.30611 m -14.4287,31.78921 c 0,0 -1.4838,5.2589 -3.2275,0.32979 -1.7443,-4.93038 4.2598,-5.00249 6.841,-15.26851 1.2965,-5.15642 -0.8558,-2.53214 -3.5137,0.68246 -2.6778,3.23867 -5.9254,7.13598 -6.8028,4.64591 -0.8722,-2.47503 6.8686,-11.84056 14.1866,-20.88517 7.3355,-9.06634 14.2748,-17.8407 12.4168,-19.24205 -1.8438,-1.3906 -8.7558,7.38005 -15.6273,15.91124 -6.8658,8.52413 -13.6812,16.80167 -14.653,14.38958 -0.9683,-2.40341 5.1532,-9.88826 11.6824,-18.03475 6.5554,-8.17917 13.4656,-16.95995 14.5107,-22.1186 1.0444,-5.155 -5.6762,3.56256 -13.2209,13.09328 -7.555,9.54364 -16.0297,19.99781 -17.6847,18.38064 -1.6379,-1.60046 6.9406,-12.19114 16.2033,-23.98324 9.3299,-11.87769 19.1596,-24.74163 21.1139,-31.31659 1.945,-6.54315 -7.9997,6.84927 -19.5538,21.75666 -11.5924,14.95677 -24.9465,31.56146 -28.0596,31.6898 -3.0163,0.12435 7.3345,-12.71835 16.4992,-24.42308 9.1764,-11.71957 17.1514,-22.24789 10.6383,-17.56903 -6.4734,4.65026 -14.7558,15.35235 -22.2364,24.81064 -7.5166,9.5037 -14.3239,17.89682 -17.4896,18.1562 -3.1464,0.25781 4.7073,-9.43628 12.6482,-19.49521 7.947,-10.06651 15.9524,-20.46866 13.8973,-21.66491 -2.0391,-1.18687 -5.1235,2.84255 -7.9629,6.5162 -2.8413,3.6762 -5.425,6.98466 -6.3366,4.36866 -1.8255,-5.23855 10.2289,-13.27223 6.2998,-15.86353 -1.9645,-1.29558 -3.987,1.36696 -5.7898,3.72527 -1.8048,2.36112 -3.3809,4.40912 -4.4029,1.89857 -2.0463,-5.02689 6.273,-8.22712 2.4192,-10.93808 -3.8538,-2.71097 -4.483,5.93406 -6.5997,0.92754 -2.1167,-5.00652 2.7551,-3.65069 -1.0975,-6.38491 -3.8544,-2.73553 -2.0633,-1.18508 -2.0633,-1.18508 m -2.4538,48.9024 c 0,0 -7.8982,9.79865 -7.8982,9.79865 m -425.38219,89.51095 c 0,0 0.96673,2.44906 -4.02186,1.32409 -4.98823,-1.12489 2.46294,-3.0403 -0.68801,-6.44266 -3.15094,-3.40236 -4.30022,5.31777 -9.28918,4.19272 -4.98896,-1.12505 6.13628,-7.59267 2.96505,-10.97951 -3.17122,-3.38684 -7.90363,9.79211 -12.9941,8.79159 -5.09047,-1.00051 9.82094,-12.17601 6.64502,-15.56662 -3.17593,-3.39061 -11.79723,14.64262 -16.69755,13.40578 -4.90031,-1.23684 13.51967,-16.79392 10.35464,-20.20783 -3.16504,-3.4139 -15.20871,18.91373 -20.09103,17.65328 -4.88232,-1.26046 16.92398,-21.0646 13.78578,-24.52199 -1.56899,-1.72857 -6.19465,4.06763 -11.11286,10.19961 -4.91788,6.13155 -10.12994,12.59939 -12.76957,12.21201 -5.27525,-0.77417 20.7421,-25.86626 17.64736,-29.38843 -1.54702,-1.76069 -8.00604,5.43001 -14.11692,13.06218 -6.10908,7.62991 -11.87776,15.70382 -11.87776,15.70382 M 529.4665,768.1382 c 0,0 -3.25718,7.53738 -3.84834,1.09152 -0.59116,-6.44599 9.01724,-10.84703 23.34502,-35.7745 7.22766,-12.57468 1.13531,-5.02065 -6.61017,4.50688 -7.8289,9.63015 -17.62222,21.59163 -17.91998,18.3449 -0.29563,-3.22352 13.30658,-19.86394 27.40197,-37.33987 14.14785,-17.54097 28.69791,-35.81155 31.1205,-42.62059 2.40543,-6.76081 -12.08214,11.57812 -27.52809,30.82332 -15.43233,19.22824 -31.88441,39.42531 -32.30218,36.29595 -0.41044,-3.07438 20.2581,-28.51226 40.85164,-54.36728 20.68099,-25.96481 41.19123,-52.23378 42.30736,-57.51932 1.09364,-5.17899 -19.33396,21.14264 -40.64637,48.00824 -21.25739,26.79624 -43.41542,54.14757 -43.58747,50.68118 -0.16772,-3.37907 20.45729,-28.9387 39.48204,-52.94363 19.05607,-24.04443 36.67605,-46.72036 32.00764,-44.52953 -4.59155,2.15476 -22.27297,24.81659 -39.1498,46.09714 -16.88881,21.29567 -33.04064,41.3134 -33.5352,38.25555 -0.48839,-3.01964 15.60458,-23.05998 30.38587,-41.72571 14.79966,-18.68892 28.38008,-36.10498 23.77381,-33.99198 -4.56539,2.09425 -17.93432,19.17789 -30.83078,35.45334 -12.90487,16.28608 -25.36956,31.81243 -27.55124,30.84522 -2.16471,-0.95969 10.24214,-16.44349 21.97379,-31.2515 11.73267,-14.8093 22.81476,-28.9675 18.53949,-27.28244 -4.24798,1.6743 -15.43757,15.93317 -26.28605,29.61287 -10.85328,13.68576 -21.38199,26.81785 -23.89806,26.26892 -2.50257,-0.54598 8.60164,-14.40702 19.78148,-28.51804 11.18628,-14.11914 22.43542,-28.47427 20.70539,-30.04898 -1.71861,-1.56433 -12.95003,12.79648 -24.53326,27.43292 -11.57853,14.63051 -23.50603,29.53044 -26.05358,29.01471 -2.52896,-0.51195 9.40447,-15.42144 21.44468,-30.64589 12.04853,-15.23496 24.18534,-30.76439 22.62861,-32.56877 -1.54476,-1.79051 -13.65987,13.7468 -26.20133,29.62497 -12.5356,15.87075 -25.49331,32.07345 -28.05854,31.5766 -2.55047,-0.49399 3.49436,-8.05347 9.05886,-15.04913 5.56493,-6.9962 10.65344,-13.43077 6.31599,-11.67762 -8.6744,3.50611 -20.48538,25.74131 -25.60002,24.7602 -5.11464,-0.98111 17.37847,-21.82417 8.07255,-17.53337 -9.30593,4.29081 -13.19021,16.55605 -18.28771,15.55266 -5.09749,-1.00338 9.16491,-11.49289 0.21052,-7.65773 -8.95494,3.83541 -7.83922,6.13021 -7.83922,6.13021 m 56.43224,-33.96966 c 0,0 22.86175,-25.35417 19.82219,-29.10873 -1.50412,-1.85794 -6.52682,4.6049 -11.30113,10.71789 -4.77491,6.11374 -9.29455,11.87081 -9.68287,8.60514 -0.77699,-6.53438 18.00738,-23.08306 14.81989,-26.58245 -1.59343,-1.74933 -5.47577,3.26199 -9.07534,7.89099 -3.60079,4.63055 -6.91215,8.87199 -7.30233,5.59066 -0.78081,-6.56648 13.12719,-16.89952 9.98856,-20.4728 -3.13864,-3.57328 -10.76934,13.90638 -11.55402,7.30734 -0.78468,-6.59905 8.41539,-10.88062 5.27217,-14.45912 -3.14323,-3.5785 -6.05683,7.86013 -6.84544,1.22803 -0.78861,-6.6321 3.70222,-4.80653 0.55439,-8.39027 -3.14847,-3.58449 -1.74115,-1.5746 -1.74115,-1.5746"
       id="path79340"
       inkscape:connector-curvature="0"
       inkscape:path-effect="#path-effect79396"
       inkscape:original-d="m 2067.875,107.96875 c -11.5142,0.97814 -21.6527,-6.88006 -32.6639,-9.425046 -28.6849,-10.285401 -57.3699,-20.570803 -86.0549,-30.856204 23.8646,33.11458 47.7292,66.22917 71.5938,99.34375 -2.6461,11.28307 -13.2455,18.5526 -19.0665,28.17644 -18.6653,24.15993 -37.3307,48.31987 -55.996,72.47981 38.8958,-12.5 77.7917,-25 116.6875,-37.5 9.8159,5.85724 13.5422,18.28467 20.8446,26.71552 17.1768,25.21983 34.3536,50.43965 51.5304,75.65948 0.1667,-40.84375 0.3333,-81.6875 0.5,-122.53125 8.357,-7.4462 20.8631,-7.00284 30.951,-11.31079 29.5997,-8.6464 59.1993,-17.29281 88.799,-25.93921 -38.7917,-12.77083 -77.5833,-25.54167 -116.375,-38.3125 -4.4565,-10.54543 -0.2032,-22.69084 -1.1285,-33.90489 0.9178,-30.490038 1.8357,-60.980074 2.7535,-91.47011 -24.125,32.958333 -48.25,65.916667 -72.375,98.875 z m 367.0938,-23.6875 c -9.5081,4.712386 -20.861,0.663337 -31.1249,1.758905 -13.1986,-0.134749 -26.396,-0.352744 -39.5939,-0.540155 18.4772,13.406473 37.7996,26.06475 55.75,39.9375 -0.5564,12.88012 -7.873,24.25704 -10.8819,36.63867 -3.4039,10.03711 -6.8079,20.07422 -10.2119,30.11133 18.477,-13.42497 36.4731,-28.02945 55.25,-40.71875 12.2809,4.85587 21.1041,15.34777 32.2612,22.25602 8.2254,6.15424 16.4509,12.30849 24.6764,18.46273 -7.0534,-21.72091 -15.3415,-43.3416 -21.625,-65.125 8.6873,-10.40699 21.6713,-15.73361 31.9982,-24.3723 8.0943,-5.730067 16.1887,-11.460134 24.283,-17.1902 -22.8381,0.01573 -45.9707,1.234998 -68.625,0.5 -7.1723,-11.139532 -8.0656,-24.917781 -13.0457,-37.028517 C 2461.0528,39.230989 2458.0264,29.490494 2455,19.75 c -6.6771,21.510417 -13.3542,43.020833 -20.0312,64.53125 z m -1469.4063,2.3125 c -11.7947,0.45138 -21.9595,-7.975729 -33.2188,-10.78125 -2.2143,-0.40378 -10.38556,-5.953046 -8.5312,-2.5625 7.3283,11.967456 17.183,22.993066 22.625,35.875 -7.9903,12.17155 -18.4113,22.55978 -27.4375,33.96875 14.2425,-3.49147 28.351,-9.48598 42.8125,-10.9375 9.268,11.33099 15.8402,24.5099 23.9063,36.65625 1.2055,-14.62834 -0.3456,-29.98052 2.875,-44.15625 13.4795,-5.44856 28.3466,-7.38472 42,-11.53125 -13.4075,-5.17775 -27.4179,-9.26683 -40.4688,-15.4375 -2.1187,-14.523558 1.433,-29.643501 1.6875,-44.375 -8.75,11.09375 -17.5,22.1875 -26.25,33.28125 z M 2932.5312,156.375 c -7.6382,8.98991 -20.6175,11.0592 -30.3872,17.32255 -17.7459,8.75706 -35.4918,17.51413 -53.2378,26.2712 30.1563,4.375 60.3126,8.75 90.4688,13.125 6.2959,9.9962 4.1163,23.03177 7.1485,34.21906 2.8359,19.59365 5.6718,39.18729 8.5077,58.78094 13.4688,-27.3125 26.9375,-54.625 40.4063,-81.9375 10.766,-3.05379 21.8642,2.86484 32.7521,3.40245 20.2389,3.49085 40.4778,6.9817 60.7166,10.47255 -21.8541,-21.28125 -43.7083,-42.5625 -65.5624,-63.84375 0.6108,-11.44507 9.7548,-20.50837 13.8684,-30.98885 9.398,-17.8683 18.796,-35.7366 28.194,-53.6049 -27.0104,14.20833 -54.0208,28.41667 -81.0312,42.625 -10.443,-3.92957 -16.1227,-15.16317 -24.4891,-22.05779 -14.3057,-14.689068 -28.6114,-29.378139 -42.9171,-44.06721 5.1875,30.09375 10.3749,60.1875 15.5624,90.28125 z m -1163.5,-40.0625 c -10.5968,9.49214 -20.5528,20.06037 -31.4687,28.96875 -11.769,-2.73244 -20.7705,-11.58147 -31.5674,-16.62264 -1.5922,-0.41449 -8.5397,-6.48834 -6.9226,-2.96812 5.5988,12.90036 13.4975,25.34435 17.0837,38.77826 -9.6538,10.93603 -21.5644,19.56787 -32.1562,29.5625 14.6362,-1.35588 29.5157,-5.18619 44.0625,-4.46875 7.3555,12.64764 12.0263,26.60027 18.1563,39.84375 3.2814,-14.35789 4.2141,-29.71942 9.3437,-43.375 14.2309,-3.19742 28.9434,-3.19783 43.375,-5.0625 -12.616,-7.51856 -26.8746,-13.12441 -38.25,-22.21875 1.3782,-14.4911 5.8957,-28.41161 8.625,-42.6875 z m -398.4687,200.46875 c -10.8211,2.95386 -21.9241,-3.03162 -32.8117,-3.76277 -62.9378,-11.402 -125.8755,-22.80399 -188.8133,-34.20598 52.5417,52.10417 105.0833,104.20833 157.625,156.3125 -1.0101,11.78171 -10.3031,20.99573 -14.7025,31.73572 -30.0158,55.79643 -60.0317,111.59285 -90.0475,167.38928 65.8021,-33.875 131.6042,-67.75 197.4063,-101.625 10.2077,3.68779 15.4898,14.80785 23.601,21.50794 44.4455,46.47652 88.891,92.95304 133.3364,139.42956 -11.8645,-73.03125 -23.7291,-146.0625 -35.5937,-219.09375 7.6477,-8.98554 20.733,-10.88301 30.5204,-17.08702 57.0036,-27.47099 114.0072,-54.94199 171.0109,-82.41298 C 1649,363.70833 1575.9062,352.44792 1502.8125,341.1875 c -6.1639,-10.12181 -3.9796,-23.10994 -6.8625,-34.32562 -8.5041,-62.72479 -17.0083,-125.44959 -25.5125,-188.17438 -33.2917,66.03125 -66.5833,132.0625 -99.875,198.09375 z M 231.0625,199.8125 c -11.46806,0.51419 -21.39174,-7.61598 -32.2642,-10.55279 -14.09943,-5.61782 -28.19887,-11.23564 -42.2983,-16.85346 14.1875,21.20833 28.375,42.41667 42.5625,63.625 -3.25629,11.3584 -14.27163,18.48553 -20.63756,28.18111 -9.52706,11.45005 -19.05413,22.90009 -28.58119,34.35014 24.57292,-6.9375 49.14583,-13.875 73.71875,-20.8125 9.80242,6.61968 13.25462,19.32703 20.44173,28.37927 7.9465,12.60274 15.89301,25.20549 23.83952,37.80823 1,-25.54167 2,-51.08333 3,-76.625 8.8954,-7.2755 21.79981,-6.35902 32.28209,-10.46153 14.76014,-3.7524 29.52027,-7.50481 44.28041,-11.25722 -23.96875,-8.83333 -47.9375,-17.66667 -71.90625,-26.5 -4.12202,-11.07804 0.68661,-23.35085 0.13223,-34.93117 0.96634,-14.85628 1.93268,-29.71255 2.89902,-44.56883 -15.82292,20.07292 -31.64583,40.14583 -47.46875,60.21875 z m 391.75,126.625 c -7.73317,8.54628 -20.50088,9.72082 -30.24436,15.31951 -15.78313,6.7685 -31.56626,13.53699 -47.34939,20.30549 26.95833,5.35417 53.91667,10.70833 80.875,16.0625 5.81953,9.86091 2.9199,22.51556 5.27662,33.49162 1.56404,17.03404 3.12809,34.06809 4.69213,51.10213 13.39583,-23.94792 26.79167,-47.89583 40.1875,-71.84375 11.58777,-2.20202 23.03543,4.36585 34.48218,5.65905 16.38094,3.69698 32.76188,7.39397 49.14282,11.09095 -18.625,-20.13542 -37.25,-40.27083 -55.875,-60.40625 0.80865,-10.84655 10.09988,-18.86987 14.39769,-28.46875 9.11744,-15.32292 18.23487,-30.64583 27.35231,-45.96875 -25.28841,11.37159 -50.35448,23.84574 -75.78125,34.53125 -11.08176,-7.301 -17.52193,-19.48406 -26.96098,-28.54255 -9.96092,-11.3504 -19.92185,-22.7008 -29.88277,-34.0512 3.22917,27.23958 6.45833,54.47917 9.6875,81.71875 z M 38,539.0625 c -9.75096,6.69657 -22.772532,5.26968 -33.884873,8.59071 -26.017543,4.93851 -52.035085,9.87703 -78.052627,14.81554 34.010417,14.95833 68.020833,29.91667 102.03125,44.875 3.41029,10.97331 -1.96972,22.6151 -2.12709,33.85905 -3.374302,26.5574 -6.748606,53.1148 -10.12291,79.6722 24.6875,-27.6875 49.375,-55.375 74.0625,-83.0625 11.19972,-0.11273 20.31243,8.6047 30.6838,12.07211 24.50124,11.5593 49.00247,23.11859 73.5037,34.67789 C 175.39583,652.51042 156.69792,620.45833 138,588.40625 141.82562,577.5386 152.94044,571.23435 159.71483,562.26268 178.08072,542.75846 196.44661,523.25423 214.8125,503.75 178.53125,511.625 142.25,519.5 105.96875,527.375 96.70287,520.59756 94.27321,507.87684 87.78815,498.68398 74.92126,475.22682 62.05438,451.76966 49.1875,428.3125 45.45833,465.22917 41.72917,502.14583 38,539.0625 Z m 2440.6875,43.71875 c -8.192,8.12382 -20.9919,8.64863 -31.064,13.72311 -23.7287,8.74854 -47.4573,17.49709 -71.186,26.24564 34.5417,8.78125 69.0833,17.5625 103.625,26.34375 5.1808,10.25758 1.7375,22.64168 3.4613,33.77894 0.9921,25.29244 1.9841,50.58487 2.9762,75.87731 19.0104,-30.15625 38.0208,-60.3125 57.0312,-90.46875 11.392,-1.80922 22.0814,5.32705 33.2061,7.1059 24.3375,6.87095 48.6751,13.7419 73.0127,20.61285 -22.7917,-27.39583 -45.5833,-54.79167 -68.375,-82.1875 2.0745,-11.64567 12.3195,-19.8629 17.6047,-30.18161 13.8505,-20.72071 27.701,-41.44143 41.5515,-62.16214 -33.0625,13.1875 -66.1249,26.375 -99.1874,39.5625 -10.29,-5.26424 -14.7372,-17.39988 -22.675,-25.28999 -15.65,-19.87209 -31.3,-39.74417 -46.95,-59.61626 2.3229,35.55208 4.6458,71.10417 6.9687,106.65625 z m -449.7187,38.65625 c -10.0082,6.30261 -23.0523,4.12368 -34.2192,7.11658 -22.3645,3.23198 -44.7289,6.46395 -67.0934,9.69592 29.823,14.71875 59.6459,29.4375 89.4688,44.15625 3.0812,10.76631 -2.9076,21.85645 -3.4028,32.75208 -3.9699,22.98889 -7.9398,45.97778 -11.9097,68.96667 23.2396,-23.85417 46.4792,-47.70833 69.7187,-71.5625 11.445,0.61097 20.5086,9.75451 30.9888,13.86874 20.3371,10.7 40.6742,21.40001 61.0112,32.10001 -15.5104,-29.47917 -31.0208,-58.95833 -46.5312,-88.4375 3.9455,-10.47223 15.1714,-16.13104 22.0573,-24.48959 16.6893,-16.26389 33.3785,-32.52777 50.0677,-48.79166 -32.8438,5.66667 -65.6875,11.33333 -98.5312,17 -9.008,-7.6081 -11.0573,-20.62817 -17.3539,-30.38724 -9.9966,-20.25634 -19.9933,-40.51267 -29.9899,-60.76901 -4.7604,32.92708 -9.5208,65.85417 -14.2812,98.78125 z m 911.125,-48.15625 c -11.6454,-2.0749 -19.8636,-12.31855 -30.1812,-17.60535 -7.1584,-4.7878 -14.3167,-9.5756 -21.4751,-14.3634 6.9698,18.22848 15.0933,36.29638 21.3437,54.625 -7.2919,10.29426 -19.3083,15.67161 -28.3431,24.23713 -6.0106,4.73345 -12.0212,9.46691 -18.0319,14.20037 19.5262,-0.99018 39.2595,-3.14157 58.6563,-3.40625 7.7924,10.78418 9.3469,24.41527 14.9519,36.31969 2.4119,6.54968 4.8237,13.09937 7.2356,19.64906 5.1108,-18.88749 9.1673,-38.34227 14.9375,-56.875 11.9433,-4.00046 24.8223,-1.34694 37.151,-2.92612 7.658,-0.29546 15.316,-0.59092 22.974,-0.88638 -16.3981,-10.69136 -33.6758,-20.53698 -49.5313,-31.75 0.01,-13.31074 6.7777,-25.26091 9.234,-38.16841 1.8908,-6.70428 3.7815,-13.40856 5.6723,-20.11284 -14.8646,12.35417 -29.7292,24.70833 -44.5937,37.0625 z M 1751.1562,541.3125 c -6.1866,9.82466 -11.9477,20.28542 -18.7812,29.5 -11.7916,0.3545 -22.3707,-5.76879 -33.75,-7.59375 -7.27,-3.82835 1.2099,3.70312 2.7464,6.07472 5.8068,7.31057 13.2473,13.98308 17.3786,22.26903 -5.5468,11.35848 -13.3056,21.42956 -20.375,31.75 11.5328,-4.65595 22.8408,-10.2766 34.8438,-13.78125 9.4055,7.40725 15.9758,18.44034 23.7187,27.71875 2.1204,1.32824 -0.5495,-9.61259 -0.1472,-13.05516 -0.2233,-7.45643 -1.5693,-15.12217 -1.1341,-22.44484 9.9065,-7.33615 22.5903,-9.0474 33.552,-14.22371 2.7361,-1.46904 -9.561,-2.53551 -12.5293,-3.92333 -7.0681,-2.07681 -14.6966,-3.12694 -21.4289,-5.79046 -3.8964,-11.63783 -1.6449,-24.18309 -3.1313,-36.18719 -0.265,-1.34188 0.79,-3.63267 -0.9625,-0.31281 z M 1116.875,577.625 c -9.3362,7.29063 -17.8379,16.561 -28.25,22.125 -11.2588,-5.74085 -21.3498,-13.35289 -31.625,-20.59375 4.6751,11.54899 10.0898,22.93906 13.5625,34.90625 -7.5437,9.66469 -19.1156,16.06005 -28.5,24.09375 -1.1179,1.07731 7.1025,-0.42348 9.4063,-0.1875 9.1702,-0.32 18.792,-2.514 27.75,-0.75 5.7322,10.93221 9.4325,24.04791 13.5312,34.875 3.1507,-11.95326 5.2689,-24.24689 9.5312,-35.875 11.5496,-3.39423 24.3508,-1.69528 36.4063,-2.78125 4.7827,0.80779 -4.1763,-2.90944 -5.3689,-4.36421 -8.1252,-5.46991 -17.712,-9.62888 -24.4748,-16.63579 1.8074,-12.31563 6.1989,-24.06978 9.5,-36.03125 l -0.7696,0.63857 z m -601.3125,88.28125 c -7.71271,8.53297 -20.50215,9.73236 -30.24472,15.34992 -10.35593,4.43544 -20.71185,8.87089 -31.06778,13.30633 21.33636,4.5151 43.14551,7.99922 64.1875,13.15625 4.75188,11.98664 2.69542,25.37074 5.01429,37.90825 0.87024,9.48891 1.74047,18.97783 2.61071,28.46675 10.9088,-18.84593 20.8882,-38.58368 32.375,-56.875 13.25107,-0.54175 25.61294,5.46089 38.54727,7.25864 8.99466,2.02837 17.98932,4.05674 26.98398,6.08511 -14.58376,-16.16384 -30.15543,-31.77182 -44.125,-48.28125 3.12727,-12.26068 12.35688,-21.54468 17.76621,-32.76605 5.07793,-8.53631 10.15586,-17.07263 15.23379,-25.60895 -19.95539,8.87821 -39.68515,18.97624 -59.78125,27.09375 -11.30495,-7.55758 -17.975,-19.91907 -27.59566,-29.26191 -5.84311,-6.65228 -11.68623,-13.30456 -17.52934,-19.95684 2.54167,21.375 5.08333,42.75 7.625,64.125 z" />
  </g>
  <g
     inkscape:label="2-Black"
     inkscape:groupmode="layer"
     id="1-default">
    <path
       style="color:#000000;fill:none;stroke:#000000;stroke-width:4;stroke-linecap:round;stroke-linejoin:round;stroke-miterlimit:4;stroke-dashoffset:0;stroke-opacity:1;marker:none;visibility:visible;display:inline;overflow:visible;enable-background:accumulate"
       inkscape:transform-center-x="-9.4124673"
       inkscape:transform-center-y="1.9033007"
       d="m 270.45939,353.67596 -46.0641,-73.02429 -83.09509,23.44473 55.21564,-66.37531 -47.97506,-71.7833 80.18925,32.0021 53.44486,-67.80926 -5.65596,86.1537 81.00581,29.87488 -83.68483,21.24381 z"
       id="path78725" />
    <path
       transform="translate(-30,-40)"
       style="color:#000000;fill:none;stroke:#000000;stroke-width:4;stroke-linecap:round;stroke-linejoin:round;stroke-miterlimit:4;stroke-dashoffset:0;stroke-opacity:1;marker:none;visibility:visible;display:inline;overflow:visible;enable-background:accumulate"
       inkscape:transform-center-x="6.5046391"
       inkscape:transform-center-y="3.2702342"
       d="m 662.67839,775.62114 -72.44218,-16.40005 -36.28566,64.8088 -6.78849,-73.9645 -72.84972,-14.48269 68.24666,-29.31252 -8.73794,-73.7596 48.96724,55.84836 67.44938,-31.10325 -37.98324,63.82871 z"
       id="path78727" />
    <path
       style="color:#000000;fill:none;stroke:#000000;stroke-width:4;stroke-linecap:round;stroke-linejoin:round;stroke-miterlimit:4;stroke-dashoffset:0;stroke-opacity:1;marker:none;visibility:visible;display:inline;overflow:visible;enable-background:accumulate"
       inkscape:transform-center-x="8.056689"
       inkscape:transform-center-y="4.0505338"
       d="m 768.59903,412.69968 -89.72736,-20.31321 -44.94366,80.27261 -8.40827,-91.61291 -90.23215,-17.93837 84.53077,-36.30668 -10.82287,-91.35914 60.65115,69.17416 83.54325,-38.52469 -47.0463,79.05866 z"
       id="path78729" />
    <path
       transform="translate(-135,5)"
       style="color:#000000;fill:none;stroke:#000000;stroke-width:4;stroke-linecap:round;stroke-linejoin:round;stroke-miterlimit:4;stroke-dashoffset:0;stroke-opacity:1;marker:none;visibility:visible;display:inline;overflow:visible;enable-background:accumulate"
       inkscape:transform-center-x="-5.6554035"
       inkscape:transform-center-y="1.1435826"
       d="m 1123.3013,173.30127 -27.6773,-43.87605 -49.927,14.08658 33.1759,-39.88106 -28.8254,-43.130409 48.181,19.228197 32.1119,-40.742634 -3.3983,51.764742 48.6717,17.950074 -50.2814,12.76417 z"
       id="path78731" />
    <path
       transform="matrix(1.3130014,-0.65422428,0.65423008,1.3129898,-719.28903,797.58758)"
       style="color:#000000;fill:none;stroke:#000000;stroke-width:2.72672796;stroke-linecap:round;stroke-linejoin:round;stroke-miterlimit:4;stroke-dashoffset:0;stroke-opacity:1;marker:none;visibility:visible;display:inline;overflow:visible;enable-background:accumulate"
       inkscape:transform-center-x="-16.127382"
       inkscape:transform-center-y="-14.397411"
       d="m 1420,635.23244 -46.8089,-150.80556 -157.8893,2.08361 128.9599,-91.11937 -50.7722,-149.51782 126.5105,94.49069 126.5104,-94.49069 -50.7721,149.51782 128.9599,91.11936 -157.8893,-2.08359 z"
       id="path78733" />
    <path
       transform="matrix(1.3705345,-0.26731338,0.26733384,1.3706394,-618.63293,313.11515)"
       style="color:#000000;fill:none;stroke:#000000;stroke-width:2.86448121;stroke-linecap:round;stroke-linejoin:round;stroke-miterlimit:4;stroke-dashoffset:0;stroke-opacity:1;marker:none;visibility:visible;display:inline;overflow:visible;enable-background:accumulate"
       inkscape:transform-center-x="-16.31369"
       inkscape:transform-center-y="0.93700185"
       d="m 1984.5174,158.25251 -20.9021,92.3287 82.5999,46.24664 -94.269,8.65205 -18.4584,92.84811 -37.3593,-86.98144 -94.0077,11.13665 71.1796,-62.40953 -39.6416,-85.96529 81.3507,48.41023 z"
       id="path78735" />
    <path
       transform="translate(100,125)"
       style="color:#000000;fill:none;stroke:#000000;stroke-width:4;stroke-linecap:round;stroke-linejoin:round;stroke-miterlimit:4;stroke-dashoffset:0;stroke-opacity:1;marker:none;visibility:visible;display:inline;overflow:visible;enable-background:accumulate"
       inkscape:transform-center-x="12.708939"
       inkscape:transform-center-y="2.5698822"
       d="m 2383.873,643.48803 -4.5645,-116.48781 -112.9932,-28.6839 109.376,-40.33779 -7.6369,-116.32679 72.1626,91.55769 108.2734,-43.21001 -64.777,96.92354 74.5534,89.62154 -112.1969,-31.65564 z"
       id="path78737" />
    <path
       transform="translate(125,-45)"
       style="color:#000000;fill:none;stroke:#000000;stroke-width:4;stroke-linecap:round;stroke-linejoin:round;stroke-miterlimit:4;stroke-dashoffset:0;stroke-opacity:1;marker:none;visibility:visible;display:inline;overflow:visible;enable-background:accumulate"
       inkscape:transform-center-x="6.6677167"
       inkscape:transform-center-y="6.6677167"
       d="m 2947.532,127.46796 -47.1258,89.54848 72.4913,70.60299 -99.7283,-17.14733 -44.7464,90.76088 -14.5097,-100.14612 -100.1461,-14.50968 90.7609,-44.74637 -17.1473,-99.72835 70.603,72.49133 z"
       id="path78739" />
    <path
       transform="translate(15,55)"
       style="color:#000000;fill:none;stroke:#000000;stroke-width:4;stroke-linecap:round;stroke-linejoin:round;stroke-miterlimit:4;stroke-dashoffset:0;stroke-opacity:1;marker:none;visibility:visible;display:inline;overflow:visible;enable-background:accumulate"
       inkscape:transform-center-x="-1.4910493"
       inkscape:transform-center-y="7.373744"
       d="m 3014.054,573.86194 -67.5864,2.64831 -16.6425,65.55884 -23.404,-63.46009 -67.493,4.43089 53.1219,-41.86881 -25.0705,-62.8204 56.2352,37.58375 51.9985,-43.25603 -18.3666,65.09684 z"
       id="path78741" />
    <path
       transform="translate(0,-110)"
       style="color:#000000;fill:none;stroke:#000000;stroke-width:4;stroke-linecap:round;stroke-linejoin:round;stroke-miterlimit:4;stroke-dashoffset:0;stroke-opacity:1;marker:none;visibility:visible;display:inline;overflow:visible;enable-background:accumulate"
       inkscape:transform-center-y="-10.071977"
       d="m 2455,119.52488 22.9388,73.90259 77.374,-1.02107 -63.1971,44.65323 24.881,73.27154 -61.9967,-46.30538 -61.9967,46.30537 24.881,-73.27153 -63.1971,-44.65324 77.374,1.02108 z"
       id="path78743" />
    <path
       transform="matrix(1.3563687,0,0,1.3563687,-634.13774,-140.22155)"
       style="color:#000000;fill:none;stroke:#000000;stroke-width:2.94905066;stroke-linecap:round;stroke-linejoin:round;stroke-miterlimit:4;stroke-dashoffset:0;stroke-opacity:1;marker:none;visibility:visible;display:inline;overflow:visible;enable-background:accumulate"
       inkscape:transform-center-x="7.2199479"
       inkscape:transform-center-y="-7.2199378"
       d="m 2067.8621,667.86206 -71.4886,-37.62164 -56.364,57.8715 13.6891,-79.61543 -72.4565,-35.72205 79.9489,-11.5834 11.5834,-79.94894 35.7221,72.45649 79.6154,-13.68911 -57.8715,56.36398 z"
       id="path78745" />
    <path
       style="color:#000000;fill:none;stroke:#000000;stroke-width:4;stroke-linecap:round;stroke-linejoin:round;stroke-miterlimit:4;stroke-dashoffset:0;stroke-opacity:1;marker:none;visibility:visible;display:inline;overflow:visible;enable-background:accumulate"
       inkscape:transform-center-x="-1.0002262"
       inkscape:transform-center-y="4.9464579"
       d="m 1149.7392,636.00707 -45.3383,1.77654 -11.1641,43.97822 -15.6999,-42.57033 -45.2757,2.97233 35.6353,-28.08645 -16.8178,-42.1412 37.7237,25.21194 34.8817,-29.01703 -12.3208,43.66829 z"
       id="path78747" />
    <path
       transform="matrix(0.71323508,-0.7009249,0.7009249,0.71323508,-411.63225,193.86824)"
       style="color:#000000;fill:none;stroke:#000000;stroke-width:4;stroke-linecap:round;stroke-linejoin:round;stroke-miterlimit:4;stroke-dashoffset:0;stroke-opacity:1;marker:none;visibility:visible;display:inline;overflow:visible;enable-background:accumulate"
       inkscape:transform-center-x="10.161765"
       inkscape:transform-center-y="-5.7682253"
       d="M 239.30457,662.68553 118.40236,667.42297 88.631467,784.6982 46.765058,671.17732 -73.970028,679.10356 21.057312,604.20635 -23.790177,491.8298 76.806357,559.06167 169.82417,481.68291 136.96891,598.13168 z"
       id="path78749" />
    <path
       transform="matrix(0.59294545,0.80524263,-0.80524263,0.59294545,1591.9397,-655.2871)"
       style="color:#000000;fill:none;stroke:#000000;stroke-width:4;stroke-linecap:round;stroke-linejoin:round;stroke-miterlimit:4;stroke-dashoffset:0;stroke-opacity:1;marker:none;visibility:visible;display:inline;overflow:visible;enable-background:accumulate"
       inkscape:transform-center-x="-4.8283754"
       inkscape:transform-center-y="-1.1222193"
       d="m 1149.7392,636.00707 -45.3383,1.77654 -11.1641,43.97822 -15.6999,-42.57033 -45.2757,2.97233 35.6353,-28.08645 -16.8178,-42.1412 37.7237,25.21194 34.8817,-29.01703 -12.3208,43.66829 z"
       id="path78747-5" />
    <path
       transform="matrix(0.44632885,-0.89486901,0.89486901,0.44632885,1152.19,1110.8222)"
       style="color:#000000;fill:none;stroke:#000000;stroke-width:4;stroke-linecap:round;stroke-linejoin:round;stroke-miterlimit:4;stroke-dashoffset:0;stroke-opacity:1;marker:none;visibility:visible;display:inline;overflow:visible;enable-background:accumulate"
       inkscape:transform-center-x="-2.4704272"
       inkscape:transform-center-y="4.3595376"
       d="m 1123.3013,173.30127 -27.6773,-43.87605 -49.927,14.08658 33.1759,-39.88106 -28.8254,-43.130409 48.181,19.228197 32.1119,-40.742634 -3.3983,51.764742 48.6717,17.950074 -50.2814,12.76417 z"
       id="path78731-0" />
  </g>
</svg>
