<?xml version="1.0" encoding="UTF-8" standalone="no"?>
<!-- Created with Inkscape (http://www.inkscape.org/) -->

<svg
   xmlns:dc="http://purl.org/dc/elements/1.1/"
   xmlns:cc="http://creativecommons.org/ns#"
   xmlns:rdf="http://www.w3.org/1999/02/22-rdf-syntax-ns#"
   xmlns:svg="http://www.w3.org/2000/svg"
   xmlns="http://www.w3.org/2000/svg"
   xmlns:sodipodi="http://sodipodi.sourceforge.net/DTD/sodipodi-0.dtd"
   xmlns:inkscape="http://www.inkscape.org/namespaces/inkscape"
   width="3200"
   height="800"
   id="svg79524"
   version="1.1"
   inkscape:version="0.48.1 r9760"
   sodipodi:docname="stockings_outline.svg">
  <sodipodi:namedview
     id="base"
     pagecolor="#ffffff"
     bordercolor="#666666"
     borderopacity="1.0"
     inkscape:pageopacity="0.0"
     inkscape:pageshadow="2"
     inkscape:zoom="0.3953125"
     inkscape:cx="1293.913"
     inkscape:cy="400"
     inkscape:document-units="px"
     inkscape:current-layer="1-default"
     showgrid="false"
     inkscape:window-width="1676"
     inkscape:window-height="1006"
     inkscape:window-x="0"
     inkscape:window-y="0"
     inkscape:window-maximized="1" />
  <defs
     id="defs79526">
    <inkscape:path-effect
       effect="rough_hatches"
       id="path-effect3375"
       is_visible="true"
       direction="1841.4432,477.35033 , 30.519031,18.642058"
       dist_rdm="0;1"
       growth="0"
       do_bend="true"
       bender="1841.4432,485.03246 , 7.682126,0"
       bottom_edge_variation="0;1"
       top_edge_variation="0;1"
       bottom_tgt_variation="0;1"
       top_tgt_variation="0;1"
       scale_bf="2"
       scale_bb="2"
       scale_tf="2"
       scale_tb="2"
       top_smth_variation="0;1"
       bottom_smth_variation="0;1"
       fat_output="false"
       stroke_width_top="1"
       stroke_width_bottom="1"
       front_thickness="1"
       back_thickness="0.25" />
    <inkscape:path-effect
       effect="rough_hatches"
       id="path-effect3367"
       is_visible="true"
       direction="1041.4432,477.35033 , 30.519031,18.642058"
       dist_rdm="0;1"
       growth="0"
       do_bend="true"
       bender="1041.4432,485.03246 , 7.682126,0"
       bottom_edge_variation="0;1"
       top_edge_variation="0;1"
       bottom_tgt_variation="0;1"
       top_tgt_variation="0;1"
       scale_bf="2"
       scale_bb="2"
       scale_tf="2"
       scale_tb="2"
       top_smth_variation="0;1"
       bottom_smth_variation="0;1"
       fat_output="false"
       stroke_width_top="1"
       stroke_width_bottom="1"
       front_thickness="1"
       back_thickness="0.25" />
    <inkscape:path-effect
       effect="rough_hatches"
       id="path-effect3359"
       is_visible="true"
       direction="241.44316,477.35033 , 30.519031,18.642058"
       dist_rdm="0;1"
       growth="0"
       do_bend="true"
       bender="241.44316,485.03246 , 7.682126,0"
       bottom_edge_variation="0;1"
       top_edge_variation="0;1"
       bottom_tgt_variation="0;1"
       top_tgt_variation="0;1"
       scale_bf="2"
       scale_bb="2"
       scale_tf="2"
       scale_tb="2"
       top_smth_variation="0;1"
       bottom_smth_variation="0;1"
       fat_output="false"
       stroke_width_top="1"
       stroke_width_bottom="1"
       front_thickness="1"
       back_thickness="0.25" />
    <inkscape:path-effect
       back_thickness="0.25"
       front_thickness="1"
       stroke_width_bottom="1"
       stroke_width_top="1"
       fat_output="false"
       bottom_smth_variation="0;1"
       top_smth_variation="0;1"
       scale_tb="2"
       scale_tf="2"
       scale_bb="2"
       scale_bf="2"
       top_tgt_variation="0;1"
       bottom_tgt_variation="0;1"
       top_edge_variation="0;1"
       bottom_edge_variation="0;1"
       bender="2641.4432,485.03246 , 7.682126,0"
       do_bend="true"
       growth="0"
       dist_rdm="0;1"
       direction="2641.4432,477.35033 , 30.519031,18.642058"
       is_visible="true"
       id="path-effect80108"
       effect="rough_hatches" />
    <inkscape:path-effect
       back_thickness="0.25"
       front_thickness="1"
       stroke_width_bottom="1"
       stroke_width_top="1"
       fat_output="false"
       bottom_smth_variation="0;1"
       top_smth_variation="0;1"
       scale_tb="2"
       scale_tf="2"
       scale_bb="2"
       scale_bf="2"
       top_tgt_variation="0;1"
       bottom_tgt_variation="0;1"
       top_edge_variation="0;1"
       bottom_edge_variation="0;1"
       bender="2641.4432,485.03246 , 7.682126,0"
       do_bend="true"
       growth="0"
       dist_rdm="0;1"
       direction="2641.4432,477.35033 , 30.519031,18.642058"
       is_visible="true"
       id="path-effect80108-8"
       effect="rough_hatches" />
    <inkscape:path-effect
       effect="rough_hatches"
       id="path-effect3375-0"
       is_visible="true"
       direction="1841.4432,477.35033 , 30.519031,18.642058"
       dist_rdm="0;1"
       growth="0"
       do_bend="true"
       bender="1841.4432,485.03246 , 7.682126,0"
       bottom_edge_variation="0;1"
       top_edge_variation="0;1"
       bottom_tgt_variation="0;1"
       top_tgt_variation="0;1"
       scale_bf="2"
       scale_bb="2"
       scale_tf="2"
       scale_tb="2"
       top_smth_variation="0;1"
       bottom_smth_variation="0;1"
       fat_output="false"
       stroke_width_top="1"
       stroke_width_bottom="1"
       front_thickness="1"
       back_thickness="0.25" />
    <inkscape:path-effect
       effect="rough_hatches"
       id="path-effect3367-4"
       is_visible="true"
       direction="1041.4432,477.35033 , 30.519031,18.642058"
       dist_rdm="0;1"
       growth="0"
       do_bend="true"
       bender="1041.4432,485.03246 , 7.682126,0"
       bottom_edge_variation="0;1"
       top_edge_variation="0;1"
       bottom_tgt_variation="0;1"
       top_tgt_variation="0;1"
       scale_bf="2"
       scale_bb="2"
       scale_tf="2"
       scale_tb="2"
       top_smth_variation="0;1"
       bottom_smth_variation="0;1"
       fat_output="false"
       stroke_width_top="1"
       stroke_width_bottom="1"
       front_thickness="1"
       back_thickness="0.25" />
    <inkscape:path-effect
       effect="rough_hatches"
       id="path-effect3359-6"
       is_visible="true"
       direction="241.44316,477.35033 , 30.519031,18.642058"
       dist_rdm="0;1"
       growth="0"
       do_bend="true"
       bender="241.44316,485.03246 , 7.682126,0"
       bottom_edge_variation="0;1"
       top_edge_variation="0;1"
       bottom_tgt_variation="0;1"
       top_tgt_variation="0;1"
       scale_bf="2"
       scale_bb="2"
       scale_tf="2"
       scale_tb="2"
       top_smth_variation="0;1"
       bottom_smth_variation="0;1"
       fat_output="false"
       stroke_width_top="1"
       stroke_width_bottom="1"
       front_thickness="1"
       back_thickness="0.25" />
  </defs>
  <metadata
     id="metadata79529">
    <rdf:RDF>
      <cc:Work
         rdf:about="">
        <dc:format>image/svg+xml</dc:format>
        <dc:type
           rdf:resource="http://purl.org/dc/dcmitype/StillImage" />
        <dc:title></dc:title>
      </cc:Work>
    </rdf:RDF>
  </metadata>
  <g
     id="1-default"
     inkscape:groupmode="layer"
     inkscape:label="1-black"
     style="display:inline">
    <path
       class="fil8"
       d="m 22.75588,182.70772 c 85.29848,-31.47918 171.10458,-67.02019 257.75698,-104.592113 16.755,-7.277447 36.3872,1.353944 43.3261,18.278236 l 30.8023,75.820817 c 6.0927,15.06262 0.1693,32.3254 -13.201,40.6183 -94.2683,2.53864 -148.2567,-19.63218 -187.5211,40.11057 -39.4336,59.74274 -56.5271,47.04951 -82.92905,68.71262 -14.89334,2.03091 -29.95599,-5.75427 -35.71021,-19.97067 L 4.47765,225.86466 c -6.93896,-16.92429 1.18474,-37.0642 18.27823,-43.32617 z"
       id="path53"
       inkscape:connector-curvature="0"
       style="fill:none;stroke:#000000;stroke-width:4;stroke-miterlimit:4;stroke-opacity:1;stroke-dasharray:none;display:inline" />
    <path
       class="fil9"
       d="m 282.37456,82.685166 c 11.17,-4.400307 9.4776,-1.184692 -4.0618,6.600482 -41.1262,23.186272 -173.9818,89.529492 -245.74081,105.607572 -32.49462003,7.27743 -13.87791,-2.20016 24.87872,-17.77051 38.41819,-15.40111 95.79149,-38.41814 142.50249,-57.88107 42.6493,-17.77051 76.4979,-34.187076 82.5906,-36.556474 z"
       id="path55"
       inkscape:connector-curvature="0"
       style="fill:none;stroke:#000000;stroke-width:4;stroke-miterlimit:4;stroke-opacity:1;stroke-dasharray:none;display:inline" />
    <path
       style="fill:none;stroke:#000000;stroke-width:4;stroke-miterlimit:4;stroke-opacity:1;stroke-dasharray:none;display:inline"
       inkscape:connector-curvature="0"
       id="path80186"
       d="m 822.75588,182.70772 c 85.29848,-31.47918 171.10458,-67.02019 257.75702,-104.592113 16.755,-7.277447 36.3872,1.353944 43.3261,18.278236 l 30.8023,75.820817 c 6.0927,15.06262 0.1693,32.3254 -13.201,40.6183 -94.2683,2.53864 -148.25674,-19.63218 -187.52114,40.11057 -39.4336,59.74274 -56.5271,47.04951 -82.92905,68.71262 -14.89334,2.03091 -29.95599,-5.75427 -35.71021,-19.97067 l -30.80225,-75.82082 c -6.93896,-16.92429 1.18474,-37.0642 18.27823,-43.32617 z"
       class="fil8" />
    <path
       style="fill:none;stroke:#000000;stroke-width:4;stroke-miterlimit:4;stroke-opacity:1;stroke-dasharray:none;display:inline"
       inkscape:connector-curvature="0"
       id="path80188"
       d="m 1082.3746,82.685166 c 11.17,-4.400307 9.4776,-1.184692 -4.0618,6.600482 -41.1262,23.186272 -173.98184,89.529492 -245.74085,105.607572 -32.49462,7.27743 -13.87791,-2.20016 24.87872,-17.77051 38.41819,-15.40111 95.79149,-38.41814 142.50249,-57.88107 42.64934,-17.77051 76.49794,-34.187076 82.59064,-36.556474 z"
       class="fil9" />
    <path
       class="fil8"
       d="m 1622.7559,182.70772 c 85.2985,-31.47918 171.1046,-67.02019 257.757,-104.592113 16.755,-7.277447 36.3872,1.353944 43.3261,18.278236 l 30.8023,75.820817 c 6.0927,15.06262 0.1693,32.3254 -13.201,40.6183 -94.2683,2.53864 -148.2567,-19.63218 -187.5211,40.11057 -39.4336,59.74274 -56.5271,47.04951 -82.9291,68.71262 -14.8933,2.03091 -29.956,-5.75427 -35.7102,-19.97067 l -30.8022,-75.82082 c -6.939,-16.92429 1.1847,-37.0642 18.2782,-43.32617 z"
       id="path80200"
       inkscape:connector-curvature="0"
       style="fill:none;stroke:#000000;stroke-width:4;stroke-miterlimit:4;stroke-opacity:1;stroke-dasharray:none;display:inline" />
    <path
       class="fil9"
       d="m 1882.3746,82.685166 c 11.17,-4.400307 9.4776,-1.184692 -4.0618,6.600482 -41.1262,23.186272 -173.9818,89.529492 -245.7408,105.607572 -32.4947,7.27743 -13.878,-2.20016 24.8787,-17.77051 38.4182,-15.40111 95.7915,-38.41814 142.5025,-57.88107 42.6493,-17.77051 76.4979,-34.187076 82.5906,-36.556474 z"
       id="path80202"
       inkscape:connector-curvature="0"
       style="fill:none;stroke:#000000;stroke-width:4;stroke-miterlimit:4;stroke-opacity:1;stroke-dasharray:none;display:inline" />
    <path
       style="fill:none;stroke:#000000;stroke-width:4;stroke-miterlimit:4;stroke-opacity:1;stroke-dasharray:none;display:inline"
       inkscape:connector-curvature="0"
       id="path80214"
       d="m 2422.7559,182.70772 c 85.2985,-31.47918 171.1046,-67.02019 257.757,-104.592113 16.755,-7.277447 36.3872,1.353944 43.3261,18.278236 l 30.8023,75.820817 c 6.0927,15.06262 0.1693,32.3254 -13.201,40.6183 -94.2683,2.53864 -148.2567,-19.63218 -187.5211,40.11057 -39.4336,59.74274 -56.5271,47.04951 -82.929,68.71262 -14.8934,2.03091 -29.956,-5.75427 -35.7103,-19.97067 l -30.8022,-75.82082 c -6.939,-16.92429 1.1847,-37.0642 18.2782,-43.32617 z"
       class="fil8" />
    <path
       style="fill:none;stroke:#000000;stroke-width:4;stroke-miterlimit:4;stroke-opacity:1;stroke-dasharray:none;display:inline"
       inkscape:connector-curvature="0"
       id="path80216"
       d="m 2682.3746,82.685166 c 11.17,-4.400307 9.4776,-1.184692 -4.0618,6.600482 -41.1262,23.186272 -173.9818,89.529492 -245.7408,105.607572 -32.4946,7.27743 -13.8779,-2.20016 24.8787,-17.77051 38.4182,-15.40111 95.7915,-38.41814 142.5025,-57.88107 42.6493,-17.77051 76.4979,-34.187076 82.5906,-36.556474 z"
       class="fil9" />
    <path
       style="fill:none;stroke:#000000;stroke-width:4;stroke-miterlimit:4;stroke-opacity:1;stroke-dasharray:none;display:inline"
       d="m 246.48246,215.30741 c -17.1392,0.0154 -32.2185,1.32171 -45.7566,5.76159 -0.1741,0.0561 -0.3546,0.0868 -0.5282,0.14397 -1.7949,0.60117 -3.5888,1.25037 -5.3294,1.96854 -0.8486,0.35009 -1.6607,0.72484 -2.4967,1.10431 -0.078,0.0353 -0.1613,0.0604 -0.2402,0.096 -0.5316,0.24339 -1.0578,0.51254 -1.5843,0.76822 -0.7736,0.37116 -1.5418,0.7539 -2.3047,1.15231 -0.7579,0.39576 -1.5092,0.77687 -2.2567,1.20034 -11.1526,6.31824 -21.1731,15.75167 -42.2941,45.31942 -21.121,29.56777 -36.0634,33.84507 -51.93252,41.46565 -0.36659,0.17257 -0.73717,0.35207 -1.10422,0.52814 -0.54421,0.26591 -1.08687,0.54104 -1.63246,0.81623 -1.14555,0.56751 -2.29787,1.1497 -3.45695,1.77649 -4.22502,2.28446 -6.74875,0.82875 -11.35818,4.59217 l -7.53017,1.34636 c 20.47839,31.14068 40.5882,64.78288 53.0462,101.54873 12.4579,36.76586 -0.1306,72.15575 -28.87639,114.86426 -4.90811,7.61592 -12.88707,18.29098 -23.71857,32.1689 -24.37108,30.63297 -32.30426,72.10606 -16.56466,110.86268 23.01704,56.35789 93.09802,86.7943 150.80982,64.96198 19.1243,-7.27745 36.0293,-18.28142 46.861,-33.51328 32.8331,-46.20331 84.7776,-96.62203 164.8295,-151.62596 22.0016,-14.89338 32.697,-42.14305 25.9272,-67.69873 -11.0008,-40.11057 -36.7356,-80.89281 -63.1374,-133.18886 -17.9398,-35.71026 -25.9069,-85.82876 -32.1689,-146.24848 -38.2965,1.03133 -70.5093,-0.19505 -97.202,-0.171 z"
       id="path80064"
       inkscape:connector-curvature="0"
       sodipodi:nodetypes="cccscccssccccscccccccccccccc" />
    <path
       sodipodi:nodetypes="cccscccssccccscccccccccccccc"
       inkscape:connector-curvature="0"
       id="path80190"
       d="m 1046.4825,215.30741 c -17.1392,0.0154 -32.2185,1.32171 -45.7566,5.76159 -0.1741,0.0561 -0.3546,0.0868 -0.5282,0.14397 -1.79494,0.60117 -3.58884,1.25037 -5.32944,1.96854 -0.8486,0.35009 -1.6607,0.72484 -2.4967,1.10431 -0.078,0.0353 -0.1613,0.0604 -0.2402,0.096 -0.5316,0.24339 -1.0578,0.51254 -1.5843,0.76822 -0.7736,0.37116 -1.5418,0.7539 -2.3047,1.15231 -0.7579,0.39576 -1.5092,0.77687 -2.2567,1.20034 -11.1526,6.31824 -21.1731,15.75167 -42.2941,45.31942 -21.121,29.56777 -36.0634,33.84507 -51.93252,41.46565 -0.36659,0.17257 -0.73717,0.35207 -1.10422,0.52814 -0.54421,0.26591 -1.08687,0.54104 -1.63246,0.81623 -1.14555,0.56751 -2.29787,1.1497 -3.45695,1.77649 -4.22502,2.28446 -6.74875,0.82875 -11.35818,4.59217 l -7.53017,1.34636 c 20.47839,31.14068 40.5882,64.78288 53.0462,101.54873 12.4579,36.76586 -0.1306,72.15575 -28.87639,114.86426 -4.90811,7.61592 -12.88707,18.29098 -23.71857,32.1689 -24.37108,30.63297 -32.30426,72.10606 -16.56466,110.86268 23.01704,56.35789 93.09802,86.7943 150.80986,64.96198 19.1243,-7.27745 36.0293,-18.28142 46.861,-33.51328 32.8331,-46.20331 84.7776,-96.62203 164.8295,-151.62596 22.0016,-14.89338 32.697,-42.14305 25.9272,-67.69873 -11.0008,-40.11057 -36.7356,-80.89281 -63.1374,-133.18886 -17.9398,-35.71026 -25.9069,-85.82876 -32.1689,-146.24848 -38.2965,1.03133 -70.5093,-0.19505 -97.202,-0.171 z"
       style="fill:none;stroke:#000000;stroke-width:4;stroke-miterlimit:4;stroke-opacity:1;stroke-dasharray:none;display:inline" />
    <path
       style="fill:none;stroke:#000000;stroke-width:4;stroke-miterlimit:4;stroke-opacity:1;stroke-dasharray:none;display:inline"
       d="m 1846.4825,215.30741 c -17.1392,0.0154 -32.2185,1.32171 -45.7566,5.76159 -0.1741,0.0561 -0.3546,0.0868 -0.5282,0.14397 -1.7949,0.60117 -3.5888,1.25037 -5.3294,1.96854 -0.8486,0.35009 -1.6607,0.72484 -2.4967,1.10431 -0.078,0.0353 -0.1613,0.0604 -0.2402,0.096 -0.5316,0.24339 -1.0578,0.51254 -1.5843,0.76822 -0.7736,0.37116 -1.5418,0.7539 -2.3047,1.15231 -0.7579,0.39576 -1.5092,0.77687 -2.2567,1.20034 -11.1526,6.31824 -21.1731,15.75167 -42.2941,45.31942 -21.121,29.56777 -36.0634,33.84507 -51.9326,41.46565 -0.3665,0.17257 -0.7371,0.35207 -1.1042,0.52814 -0.5442,0.26591 -1.0868,0.54104 -1.6324,0.81623 -1.1456,0.56751 -2.2979,1.1497 -3.457,1.77649 -4.225,2.28446 -6.7487,0.82875 -11.3582,4.59217 l -7.5301,1.34636 c 20.4784,31.14068 40.5882,64.78288 53.0462,101.54873 12.4579,36.76586 -0.1306,72.15575 -28.8764,114.86426 -4.9081,7.61592 -12.8871,18.29098 -23.7186,32.1689 -24.3711,30.63297 -32.3043,72.10606 -16.5647,110.86268 23.0171,56.35789 93.0981,86.7943 150.8099,64.96198 19.1243,-7.27745 36.0293,-18.28142 46.861,-33.51328 32.8331,-46.20331 84.7776,-96.62203 164.8295,-151.62596 22.0016,-14.89338 32.697,-42.14305 25.9272,-67.69873 -11.0008,-40.11057 -36.7356,-80.89281 -63.1374,-133.18886 -17.9398,-35.71026 -25.9069,-85.82876 -32.1689,-146.24848 -38.2965,1.03133 -70.5093,-0.19505 -97.202,-0.171 z"
       id="path80204"
       inkscape:connector-curvature="0"
       sodipodi:nodetypes="cccscccssccccscccccccccccccc" />
    <path
       sodipodi:nodetypes="cccscccssccccscccccccccccccc"
       inkscape:connector-curvature="0"
       id="path80218"
       d="m 2646.4825,215.30741 c -17.1392,0.0154 -32.2185,1.32171 -45.7566,5.76159 -0.1741,0.0561 -0.3546,0.0868 -0.5282,0.14397 -1.7949,0.60117 -3.5888,1.25037 -5.3294,1.96854 -0.8486,0.35009 -1.6607,0.72484 -2.4967,1.10431 -0.078,0.0353 -0.1613,0.0604 -0.2402,0.096 -0.5316,0.24339 -1.0578,0.51254 -1.5843,0.76822 -0.7736,0.37116 -1.5418,0.7539 -2.3047,1.15231 -0.7579,0.39576 -1.5092,0.77687 -2.2567,1.20034 -11.1526,6.31824 -21.1731,15.75167 -42.2941,45.31942 -21.121,29.56777 -36.0634,33.84507 -51.9325,41.46565 -0.3666,0.17257 -0.7372,0.35207 -1.1042,0.52814 -0.5442,0.26591 -1.0869,0.54104 -1.6325,0.81623 -1.1455,0.56751 -2.2979,1.1497 -3.4569,1.77649 -4.2251,2.28446 -6.7488,0.82875 -11.3582,4.59217 l -7.5302,1.34636 c 20.4784,31.14068 40.5882,64.78288 53.0462,101.54873 12.4579,36.76586 -0.1306,72.15575 -28.8764,114.86426 -4.9081,7.61592 -12.8871,18.29098 -23.7186,32.1689 -24.371,30.63297 -32.3042,72.10606 -16.5646,110.86268 23.017,56.35789 93.098,86.7943 150.8098,64.96198 19.1243,-7.27745 36.0293,-18.28142 46.861,-33.51328 32.8331,-46.20331 84.7776,-96.62203 164.8295,-151.62596 22.0016,-14.89338 32.697,-42.14305 25.9272,-67.69873 -11.0008,-40.11057 -36.7356,-80.89281 -63.1374,-133.18886 -17.9398,-35.71026 -25.9069,-85.82876 -32.1689,-146.24848 -38.2965,1.03133 -70.5093,-0.19505 -97.202,-0.171 z"
       style="fill:none;stroke:#000000;stroke-width:4;stroke-miterlimit:4;stroke-opacity:1;stroke-dasharray:none;display:inline" />
  </g>
  <g
     inkscape:label="2-Red"
     id="layer7"
     inkscape:groupmode="layer"
     style="display:inline">
    <path
       inkscape:connector-curvature="0"
       id="path80066"
       d="m 234.75686,218.45163 c -34.7401,-1.07054 -67.6339,19.94235 -83.6007,50.2507 -17.6504,25.04874 -42.2054,46.31285 -72.29848,53.93813 -5.07235,2.49792 -5.53943,9.53985 -1.0652,13.02243 22.67438,36.86636 48.28278,75.84926 49.55858,120.35848 -1.9643,47.95679 -34.73469,86.53099 -61.98503,123.2021 -22.52523,31.99608 -27.52721,77.19041 -7.42662,111.87541 25.60637,48.537 88.21695,73.34923 139.99125,54.63467 25.7102,-8.41886 46.8459,-27.14077 60.4967,-50.07786 45.4189,-58.83848 107.6948,-101.81678 165.8379,-147.20874 19.474,-22.71691 15.3263,-57.04518 1.5364,-81.57458 -25.645,-60.17039 -68.0475,-114.63297 -75.8676,-181.00231 -4.1073,-22.12127 -6.2984,-44.73418 -9.1159,-67.13036 -35.3531,0.65031 -70.707,-0.5247 -106.0613,-0.28807 z"
       style="fill:none;stroke:#ff0000;stroke-width:4;stroke-miterlimit:4;stroke-opacity:1;stroke-dasharray:none" />
    <path
       style="fill:none;stroke:#ff0000;stroke-width:4;stroke-miterlimit:4;stroke-opacity:1;stroke-dasharray:none"
       d="m 1034.7569,218.45163 c -34.7401,-1.07054 -67.63394,19.94235 -83.60074,50.2507 -17.6504,25.04874 -42.2054,46.31285 -72.29848,53.93813 -5.07235,2.49792 -5.53943,9.53985 -1.0652,13.02243 22.67438,36.86636 48.28278,75.84926 49.55858,120.35848 -1.9643,47.95679 -34.73469,86.53099 -61.98503,123.2021 -22.52523,31.99608 -27.52721,77.19041 -7.42662,111.87541 25.60637,48.537 88.21695,73.34923 139.99125,54.63467 25.71024,-8.41886 46.84594,-27.14077 60.49674,-50.07786 45.4189,-58.83848 107.6948,-101.81678 165.8379,-147.20874 19.474,-22.71691 15.3263,-57.04518 1.5364,-81.57458 -25.645,-60.17039 -68.0475,-114.63297 -75.8676,-181.00231 -4.1073,-22.12127 -6.2984,-44.73418 -9.1159,-67.13036 -35.3531,0.65031 -70.707,-0.5247 -106.0613,-0.28807 z"
       id="path80192"
       inkscape:connector-curvature="0" />
    <path
       inkscape:connector-curvature="0"
       id="path80206"
       d="m 1834.7569,218.45163 c -34.7401,-1.07054 -67.6339,19.94235 -83.6007,50.2507 -17.6504,25.04874 -42.2054,46.31285 -72.2985,53.93813 -5.0724,2.49792 -5.5395,9.53985 -1.0652,13.02243 22.6744,36.86636 48.2828,75.84926 49.5586,120.35848 -1.9643,47.95679 -34.7347,86.53099 -61.9851,123.2021 -22.5252,31.99608 -27.5272,77.19041 -7.4266,111.87541 25.6064,48.537 88.217,73.34923 139.9913,54.63467 25.7102,-8.41886 46.8459,-27.14077 60.4967,-50.07786 45.4189,-58.83848 107.6948,-101.81678 165.8379,-147.20874 19.474,-22.71691 15.3263,-57.04518 1.5364,-81.57458 -25.645,-60.17039 -68.0475,-114.63297 -75.8676,-181.00231 -4.1073,-22.12127 -6.2984,-44.73418 -9.1159,-67.13036 -35.3531,0.65031 -70.707,-0.5247 -106.0613,-0.28807 z"
       style="fill:none;stroke:#ff0000;stroke-width:4;stroke-miterlimit:4;stroke-opacity:1;stroke-dasharray:none" />
    <path
       style="fill:none;stroke:#ff0000;stroke-width:4;stroke-miterlimit:4;stroke-opacity:1;stroke-dasharray:none"
       d="m 2634.7569,218.45163 c -34.7401,-1.07054 -67.6339,19.94235 -83.6007,50.2507 -17.6504,25.04874 -42.2054,46.31285 -72.2985,53.93813 -5.0723,2.49792 -5.5394,9.53985 -1.0652,13.02243 22.6744,36.86636 48.2828,75.84926 49.5586,120.35848 -1.9643,47.95679 -34.7347,86.53099 -61.985,123.2021 -22.5253,31.99608 -27.5272,77.19041 -7.4267,111.87541 25.6064,48.537 88.217,73.34923 139.9913,54.63467 25.7102,-8.41886 46.8459,-27.14077 60.4967,-50.07786 45.4189,-58.83848 107.6948,-101.81678 165.8379,-147.20874 19.474,-22.71691 15.3263,-57.04518 1.5364,-81.57458 -25.645,-60.17039 -68.0475,-114.63297 -75.8676,-181.00231 -4.1073,-22.12127 -6.2984,-44.73418 -9.1159,-67.13036 -35.3531,0.65031 -70.707,-0.5247 -106.0613,-0.28807 z"
       id="path80220"
       inkscape:connector-curvature="0" />
    <path
       inkscape:original-d="m 230.09956,224.59733 c -34.6758,0.49884 -63.6552,25.42149 -79.192,54.85357 -17.4037,23.25441 -42.3067,40.39228 -69.55319,49.95943 2.27944,7.65046 9.60681,12.69599 12.25837,20.34607 22.42122,36.46828 45.34652,78.48496 38.01162,122.82956 -8.403,49.17113 -46.21874,85.00821 -70.62762,126.22693 -19.98444,41.18295 -7.18755,95.31618 29.95968,122.52945 42.08994,34.12007 111.99404,33.2717 147.78904,-9.94226 18.7253,-22.69719 35.1751,-47.42869 57.5118,-66.75113 39.1684,-38.21281 85.0749,-68.74965 126.5197,-104.31625 16.1245,-24.95237 6.7742,-57.04772 -6.9822,-80.75014 -28.0694,-59.57069 -67.8678,-116.35705 -73.8279,-183.66872 -2.712,-16.94201 -4.5546,-34.00532 -6.6703,-51.02843 -35.0646,0.62435 -70.1312,-0.57579 -105.197,-0.28808 z"
       inkscape:path-effect="#path-effect3359-6"
       inkscape:connector-curvature="0"
       id="path80098"
       d="m 422.65188,540.44001 c 0,0 -1.18406,8.77763 5.32485,-15.50935 3.25446,-12.14348 -0.30569,-6.33338 -6.73501,4.14931 -6.42932,10.48269 -15.74186,25.63796 -23.95978,32.18482 -8.21793,6.54687 0.39317,-7.4409 10.77614,-24.35758 10.38296,-16.91669 22.52611,-36.76229 21.49567,-41.93109 -1.03043,-5.1688 -13.11699,14.61381 -27.0099,37.25893 -13.89292,22.64511 -29.60651,48.15272 -37.67003,54.43391 -8.06353,6.28119 7.64439,-19.17511 24.87157,-47.23636 17.22718,-28.06125 35.95644,-58.72745 34.29184,-62.86607 -1.6646,-4.13862 -20.31994,26.44542 -40.81467,59.83849 -20.49473,33.39307 -42.84916,69.59517 -51.42663,76.69267 -8.57748,7.0975 13.79216,-29.06396 37.65898,-67.91989 11.93341,-19.42797 24.24334,-39.52956 33.31681,-55.23422 9.07347,-15.70465 14.91553,-27.01236 13.94179,-28.85257 -1.94748,-3.68042 -27.20931,37.7948 -54.73485,82.61333 -13.76278,22.40927 -28.08781,45.65436 -40.26001,64.50874 -12.1722,18.85438 -22.18637,33.31805 -27.2863,38.16446 -10.19986,9.69282 19.72324,-38.51902 51.43832,-90.09941 15.85755,-25.79019 32.16718,-52.42252 44.25948,-73.07997 12.0923,-20.65746 19.97648,-35.34003 19.03188,-37.2307 -0.9446,-1.89068 -10.3607,11.87542 -24.41986,34.04452 -14.05917,22.1691 -32.7752,52.74118 -52.29429,84.46247 -19.51909,31.72128 -39.84314,64.59176 -56.97528,91.35765 -17.13214,26.76588 -31.06235,47.42717 -37.71176,54.73007 -6.64941,7.3029 0.64843,-6.05479 15.2119,-30.31538 14.56348,-24.26059 36.36849,-59.42408 58.75156,-95.73279 22.38307,-36.30871 45.34167,-73.76263 62.43009,-102.60409 17.08841,-28.84146 28.32567,-49.07046 27.36012,-50.9293 -0.96556,-1.85885 -12.84729,15.99133 -30.39728,43.89124 -17.54999,27.8999 -40.79021,65.84954 -64.4137,104.1896 -23.6235,38.34007 -47.63113,77.07056 -66.48563,106.53219 -18.85449,29.46164 -32.53559,49.6544 -35.42137,50.91901 -2.88578,1.26461 7.91293,-17.66291 25.57496,-46.88105 17.66202,-29.21814 42.16429,-68.72691 66.75205,-108.62481 24.58776,-39.8979 49.26015,-80.18493 67.50842,-110.9596 18.24827,-30.77466 30.09376,-52.03696 29.12033,-53.8854 -0.97343,-1.84844 -13.77452,17.54486 -32.685,47.70493 -18.91049,30.16007 -43.9559,71.08692 -69.34632,112.30558 -25.39042,41.21867 -51.12655,82.72915 -71.15009,114.05648 -20.02354,31.32734 -34.31033,52.47153 -36.70966,52.95763 -2.39934,0.48609 9.48952,-20.17137 28.49806,-51.54715 19.00853,-31.37577 45.11144,-73.46986 71.22071,-115.85701 26.10927,-42.38716 52.22422,-85.06738 71.53234,-117.61543 19.30812,-32.54805 31.83333,-54.96393 30.86443,-56.82238 -0.96891,-1.85846 -14.45398,18.6932 -34.3901,50.57102 -19.93611,31.87782 -46.3517,75.08179 -73.10016,118.52795 -26.74845,43.44616 -53.83038,87.1345 -74.79993,119.98107 -20.96954,32.84656 -35.79949,54.85135 -37.94424,54.93038 -2.14476,0.079 10.54068,-21.84602 30.58936,-54.89617 20.04867,-33.05015 47.43318,-77.22539 74.7779,-121.6467 27.34473,-44.42131 54.64906,-89.08869 74.83882,-123.12314 20.18976,-34.03444 33.29115,-57.43595 32.33949,-59.32551 -0.95166,-1.88956 -14.99743,19.62001 -35.78457,52.93442 -20.78714,33.3144 -48.34664,78.43363 -76.23583,123.76339 -27.88918,45.32975 -56.1086,90.87004 -77.88902,125.02655 -21.78042,34.15652 -37.09195,56.92926 -39.05882,56.72392 -1.96687,-0.20533 11.37711,-23.18261 32.30435,-57.65454 20.92724,-34.47193 49.40839,-80.43852 77.81651,-126.62246 28.40812,-46.18394 56.74265,-92.58523 77.70163,-127.92659 20.95899,-35.34136 34.57067,-59.62278 33.65039,-61.56697 -0.92028,-1.94419 -15.4454,20.39194 -36.97057,54.96249 -21.52517,34.57056 -50.08376,81.37553 -78.97344,128.36901 -28.88968,46.99349 -58.11098,94.17549 -80.6099,129.5001 -22.49893,35.32461 -38.24315,58.79183 -40.06574,58.35575 -1.82259,-0.43608 12.09749,-24.33839 33.8005,-60.07325 21.70301,-35.73486 51.15778,-83.30227 80.51368,-131.06858 29.3559,-47.76631 58.61239,-95.73151 80.26566,-132.26193 21.65328,-36.53043 35.73345,-61.62608 34.86153,-63.65328 -0.87193,-2.02721 -15.81717,21.04079 -38.00129,56.74292 -22.18411,35.70212 -51.64275,84.03837 -81.43707,132.54766 -29.79431,48.50928 -59.9248,97.1916 -83.07715,133.58586 -23.15235,36.39427 -39.29189,60.50048 -40.98528,59.85755 -1.69338,-0.64293 12.75031,-25.39073 35.16081,-62.28498 22.41049,-36.89425 52.7549,-85.93495 82.97995,-135.16369 30.22504,-49.22875 60.33022,-98.64553 82.62975,-136.29195 22.29953,-37.64642 36.8253,-63.52246 36.0238,-65.66973 -0.80151,-2.14727 -16.12162,21.58152 -38.90907,58.32985 -22.78745,36.74833 -53.08013,86.51619 -83.71596,136.44707 -30.63582,49.93088 -61.61527,100.02478 -85.37763,137.42517 -23.76236,37.40039 -40.27067,62.10727 -41.83917,61.26413 -1.56851,-0.84314 13.36771,-26.39117 36.44378,-64.38395 23.07607,-37.99278 54.25743,-88.4303 85.30378,-139.05242 31.04634,-50.62212 61.95716,-101.42884 84.87969,-140.16001 22.92252,-38.73116 37.89028,-65.38677 37.19046,-67.70669 -0.69982,-2.31991 -16.35974,22.01621 -39.71504,59.7597 -23.3553,37.74349 -54.44621,88.89436 -85.89123,140.20396 -31.44501,51.3096 -63.24461,102.77792 -87.59527,141.15632 -24.35066,38.37839 -41.213102,63.66686 -42.652745,62.61676 -1.439642,-1.0501 13.978035,-27.38539 37.703895,-66.45859 23.72586,-39.07319 55.72372,-90.88428 87.5765,-142.886 31.85278,-52.00172 63.55994,-104.19406 87.11198,-144.02974 23.55205,-39.83568 38.98408,-67.3147 38.4349,-69.88979 -0.54917,-2.57508 -16.52536,22.3355 -40.44266,61.07408 -23.91729,38.73857 -55.81846,91.30513 -88.09526,144.042 -32.27681,52.73687 -64.92977,105.64406 -89.90363,145.06388 -24.97385,39.41982 -42.226887,65.35227 -43.565695,64.13969 -1.338807,-1.21258 14.573413,-28.36028 38.986505,-68.5814 24.41309,-40.22113 57.28898,-93.51568 90.01732,-147.02199 32.72834,-53.5063 65.30851,-107.22436 89.56016,-148.29249 24.25166,-41.06813 40.21163,-69.48633 39.85789,-72.39292 -0.35374,-2.90659 -16.65741,22.60566 -41.17606,62.41702 -24.51865,39.81137 -57.29799,93.92184 -90.47469,148.2117 -33.17671,54.28985 -66.75135,108.75908 -92.38502,149.28795 -25.633679,40.52887 -43.281819,67.11739 -44.459942,65.64582 -1.178122,-1.47158 15.275478,-29.51294 40.397572,-70.92705 25.12209,-41.41411 58.87271,-96.20097 92.43825,-151.16354 33.56553,-54.96257 66.94546,-110.10086 91.77945,-152.21782 24.83399,-42.11696 41.16095,-71.21259 40.78592,-74.08987 -0.37503,-2.87727 -17.0674,23.34259 -42.15611,64.18061 -25.08871,40.83802 -58.62169,96.2942 -92.54145,151.88957 -33.91976,55.59537 -68.22677,111.32992 -94.36421,152.72469 -26.137432,41.39476 -44.058278,68.44974 -45.055562,66.68595 -0.997284,-1.76379 15.922526,-30.58606 41.633812,-73.0098 25.71129,-42.42375 60.17261,-98.44897 94.41666,-154.61867 34.24404,-56.16971 68.27037,-112.48388 93.58413,-155.48554 25.31376,-43.00165 41.95553,-72.69078 41.60197,-75.61039 -0.35356,-2.91961 -17.3401,23.85329 -42.87668,65.52176 -25.53657,41.66846 -59.67308,98.23249 -94.1834,154.89514 -34.51032,56.66266 -69.39478,113.42394 -95.90726,155.48692 -26.512477,42.06297 -44.603728,69.42764 -45.374539,67.29706 -0.770812,-2.13058 16.40351,-31.4042 42.252179,-74.11511 25.84866,-42.7109 60.32997,-98.85911 94.34427,-154.73887 34.01429,-55.87977 67.56242,-111.49109 92.02239,-153.12824 24.45998,-41.63715 39.87518,-69.30013 37.76977,-69.28319 -2.10541,0.0169 -19.63227,27.70607 -44.97095,69.06251 -25.33867,41.35644 -58.53252,96.38018 -91.81318,151.06632 -33.28067,54.68614 -66.64709,109.03468 -91.855173,149.04072 -25.208083,40.00604 -42.212344,65.66957 -42.642105,62.98571 -0.429761,-2.68387 16.134942,-31.0316 40.895227,-72.04392 24.760281,-41.01232 57.678871,-94.68923 90.117351,-148.03144 32.43848,-53.34221 64.39783,-106.34972 87.67232,-146.02326 23.27449,-39.67354 37.90338,-66.01311 35.81183,-66.01942 -2.09155,-0.006 -18.84187,26.3757 -42.95538,65.70261 -24.11352,39.32691 -55.62964,91.59871 -87.10532,143.37199 -31.47568,51.77328 -62.9094,103.04804 -86.426478,140.38085 -23.517077,37.3328 -39.075068,60.72366 -38.697333,56.72915 0.377734,-3.99452 16.299663,-31.3802 39.663299,-70.21302 23.363632,-38.83282 54.138022,-89.11277 84.369912,-138.89581 30.2319,-49.78305 59.92266,-99.06919 81.49042,-135.91439 21.56777,-36.84519 35.0462,-61.24945 32.96237,-61.26872 -2.08382,-0.0193 -13.30089,17.05692 -28.96563,42.35469 -15.66474,25.29776 -35.79369,58.81711 -55.63547,91.68417 -19.84179,32.86706 -39.3951,65.08182 -53.72873,87.77041 -14.33363,22.68859 -23.42842,35.85102 -22.32669,30.6134 1.10173,-5.23762 11.28704,-23.63797 25.74569,-48.29373 14.45864,-24.65576 33.18083,-55.56693 51.42133,-85.82619 18.24051,-30.25926 36.00035,-59.8666 48.66504,-81.91471 12.6647,-22.04811 20.24607,-36.53698 18.16406,-36.5593 -2.08201,-0.0223 -11.81492,14.56009 -25.3167,36.2568 -13.50178,21.69671 -30.7845,50.50772 -47.91999,78.9426 -17.13549,28.43489 -34.12311,56.49365 -46.90287,76.68585 -12.77976,20.19221 -21.3383,32.51787 -21.58865,29.48655 -0.25035,-3.03133 8.05225,-18.38861 20.46367,-39.7204 12.41142,-21.33178 28.92308,-48.63806 45.13738,-75.56736 16.21429,-26.92931 32.13177,-53.48164 43.46177,-73.30553 11.32999,-19.8239 18.08216,-32.91935 15.99611,-32.93489 -2.08604,-0.0155 -10.93379,13.07978 -23.11743,32.57988 -12.18364,19.50009 -27.7129,45.40497 -43.12512,71.00854 -15.41222,25.60357 -30.70694,50.90583 -42.31515,69.20071 -11.6082,18.29487 -19.51925,29.58236 -20.14099,27.15637 -0.62174,-2.42599 6.66358,-16.13978 17.76724,-35.34577 11.10367,-19.206 26.01848,-43.90419 40.693,-68.29897 14.67453,-24.39479 29.10915,-48.48617 39.34081,-66.47854 10.23165,-17.99237 16.26832,-29.88573 14.17226,-29.88448 -2.09605,0.001 -10.23225,11.90119 -21.34639,29.61772 -11.11415,17.71653 -25.21426,41.24965 -39.2078,64.51726 -13.99354,23.26761 -27.88015,46.26972 -38.47961,62.92421 -10.59945,16.6545 -17.90302,26.9614 -18.71109,24.83859 -0.80807,-2.12281 5.698,-14.57544 15.73644,-32.04611 10.03844,-17.47068 23.60322,-39.95939 36.94357,-62.15436 26.6807,-44.38995 52.43794,-87.60492 47.97652,-87.15064 -2.23072,0.22714 -9.78411,11.14708 -19.94873,27.27789 -10.16462,16.13082 -22.94695,37.47251 -35.60994,58.54317 -25.32598,42.14131 -50.19592,83.19848 -52.03592,79.31615 -1.84,-3.88233 23.04851,-45.00986 46.85583,-84.64408 23.80732,-39.63422 46.54655,-77.77512 41.10891,-75.68419 -5.43764,2.09094 -28.19604,40.23825 -50.25062,76.95014 -22.05458,36.71189 -43.39315,71.98836 -45.37647,68.33762 -1.98332,-3.65075 19.69596,-39.52904 39.54247,-72.5786 19.84651,-33.04956 37.8827,-63.2704 29.11382,-55.60625 -8.76887,7.66415 -26.84371,37.88967 -43.33246,65.32256 -16.48874,27.4329 -31.37536,52.07315 -33.4488,48.56677 -2.073445,-3.50639 8.34641,-20.77328 17.25264,-35.57277 8.90623,-14.79949 16.3079,-27.13158 8.29542,-20.76836 -8.01248,6.36322 -15.46004,18.7511 -21.41467,28.63858 -5.954623,9.88749 -10.411481,17.27457 -12.408117,13.63618 -3.993272,-7.27678 18.479747,-30.68841 6.575487,-24.83238 -11.904262,5.85603 -11.243053,18.67456 -15.210804,11.34618 -3.96775,-7.32839 -1.748446,-4.05589 -1.748446,-4.05589"
       style="fill:none;stroke:#ff0000;stroke-width:4;stroke-miterlimit:4;stroke-opacity:1;stroke-dasharray:none;display:inline" />
    <path
       style="fill:none;stroke:#ff0000;stroke-width:4;stroke-miterlimit:4;stroke-opacity:1;stroke-dasharray:none;display:inline"
       d="m 1222.6519,540.44001 c 0,0 -1.184,8.77763 5.3249,-15.50935 3.2544,-12.14348 -0.3057,-6.33338 -6.735,4.14931 -6.4294,10.48269 -15.7419,25.63796 -23.9598,32.18482 -8.2179,6.54687 0.3932,-7.4409 10.7761,-24.35758 10.383,-16.91669 22.5261,-36.76229 21.4957,-41.93109 -1.0304,-5.1688 -13.117,14.61381 -27.0099,37.25893 -13.8929,22.64511 -29.6065,48.15272 -37.67,54.43391 -8.0636,6.28119 7.6443,-19.17511 24.8715,-47.23636 17.2272,-28.06125 35.9565,-58.72745 34.2919,-62.86607 -1.6646,-4.13862 -20.32,26.44542 -40.8147,59.83849 -20.4947,33.39307 -42.8492,69.59517 -51.4266,76.69267 -8.5775,7.0975 13.7921,-29.06396 37.659,-67.91989 11.9334,-19.42797 24.2433,-39.52956 33.3168,-55.23422 9.0734,-15.70465 14.9155,-27.01236 13.9418,-28.85257 -1.9475,-3.68042 -27.2094,37.7948 -54.7349,82.61333 -13.7628,22.40927 -28.0878,45.65436 -40.26,64.50874 -12.1722,18.85438 -22.1864,33.31805 -27.2863,38.16446 -10.1999,9.69282 19.7232,-38.51902 51.4383,-90.09941 15.8576,-25.79019 32.1672,-52.42252 44.2595,-73.07997 12.0923,-20.65746 19.9765,-35.34003 19.0319,-37.2307 -0.9446,-1.89068 -10.3607,11.87542 -24.4199,34.04452 -14.0592,22.1691 -32.7752,52.74118 -52.2943,84.46247 -19.5191,31.72128 -39.8431,64.59176 -56.9753,91.35765 -17.1321,26.76588 -31.0623,47.42717 -37.7117,54.73007 -6.6494,7.30289 0.6484,-6.05479 15.2119,-30.31538 14.5635,-24.26059 36.3685,-59.42408 58.7515,-95.73279 22.3831,-36.30871 45.3417,-73.76263 62.4301,-102.60409 17.0884,-28.84146 28.3257,-49.07046 27.3601,-50.9293 -0.9655,-1.85885 -12.8472,15.99133 -30.3972,43.89124 -17.55,27.8999 -40.7902,65.84954 -64.4137,104.1896 -23.6235,38.34006 -47.6312,77.07056 -66.4857,106.53219 -18.8545,29.46163 -32.5355,49.6544 -35.4213,50.91901 -2.8858,1.2646 7.9129,-17.66291 25.5749,-46.88105 17.6621,-29.21815 42.1643,-68.72692 66.7521,-108.62481 24.5877,-39.8979 49.2601,-80.18494 67.5084,-110.9596 18.2483,-30.77466 30.0938,-52.03696 29.1203,-53.8854 -0.9734,-1.84844 -13.7745,17.54486 -32.685,47.70493 -18.9105,30.16007 -43.9559,71.08692 -69.3463,112.30558 -25.3904,41.21867 -51.1265,82.72914 -71.1501,114.05648 -20.0235,31.32734 -34.3103,52.47153 -36.70964,52.95762 -2.39934,0.4861 9.48952,-20.17136 28.49804,-51.54714 19.0086,-31.37577 45.1115,-73.46986 71.2207,-115.85701 26.1093,-42.38716 52.2242,-85.06738 71.5324,-117.61543 19.3081,-32.54805 31.8333,-54.96393 30.8644,-56.82238 -0.9689,-1.85846 -14.454,18.6932 -34.3901,50.57102 -19.9361,31.87782 -46.3517,75.08179 -73.1002,118.52795 -26.7484,43.44616 -53.8303,87.1345 -74.7999,119.98107 -20.96953,32.84656 -35.79948,54.85135 -37.94423,54.93038 -2.14476,0.079 10.54068,-21.84602 30.58936,-54.89617 20.04867,-33.05015 47.43317,-77.22539 74.77787,-121.6467 27.3448,-44.42131 54.6491,-89.08869 74.8389,-123.12314 20.1897,-34.03444 33.2911,-57.43595 32.3394,-59.32551 -0.9516,-1.88956 -14.9974,19.62001 -35.7845,52.93442 -20.7872,33.3144 -48.3467,78.43363 -76.2359,123.76339 -27.8891,45.32975 -56.1086,90.87004 -77.88898,125.02655 -21.78042,34.15652 -37.09195,56.92926 -39.05882,56.72393 -1.96687,-0.20534 11.37711,-23.18262 32.30435,-57.65455 20.92725,-34.47193 49.40835,-80.43851 77.81655,-126.62245 28.4081,-46.18394 56.7426,-92.58524 77.7016,-127.9266 20.959,-35.34136 34.5707,-59.62278 33.6504,-61.56697 -0.9203,-1.94419 -15.4454,20.39194 -36.9706,54.96249 -21.5252,34.57056 -50.0837,81.37553 -78.9734,128.36902 -28.8897,46.99348 -58.11101,94.17548 -80.60994,129.50009 -22.49893,35.32461 -38.24315,58.79183 -40.06574,58.35575 -1.82259,-0.43608 12.09749,-24.33838 33.8005,-60.07324 21.70302,-35.73486 51.15778,-83.30228 80.51368,-131.06859 29.3559,-47.76631 58.6124,-95.73151 80.2657,-132.26193 21.6532,-36.53043 35.7334,-61.62608 34.8615,-63.65328 -0.8719,-2.02721 -15.8172,21.04079 -38.0013,56.74292 -22.1841,35.70213 -51.6427,84.03838 -81.4371,132.54766 -29.7943,48.50928 -59.92476,97.1916 -83.07711,133.58587 -23.15235,36.39427 -39.2919,60.50048 -40.98528,59.85755 -1.69339,-0.64293 12.7503,-25.39073 35.1608,-62.28498 22.4105,-36.89425 52.75489,-85.93495 82.97999,-135.1637 30.225,-49.22874 60.3302,-98.64553 82.6297,-136.29195 22.2996,-37.64642 36.8253,-63.52246 36.0238,-65.66973 -0.8015,-2.14727 -16.1216,21.58153 -38.9091,58.32985 -22.7874,36.74833 -53.0801,86.5162 -83.7159,136.44708 -30.6358,49.93088 -61.61529,100.02478 -85.37765,137.42517 -23.76236,37.40039 -40.27066,62.10728 -41.83917,61.26414 -1.56851,-0.84314 13.36771,-26.39117 36.44378,-64.38395 23.07607,-37.99278 54.25743,-88.43031 85.30374,-139.05243 31.0464,-50.62213 61.9572,-101.42885 84.8797,-140.16001 22.9226,-38.73117 37.8903,-65.38678 37.1905,-67.7067 -0.6998,-2.31991 -16.3597,22.01621 -39.715,59.7597 -23.3553,37.7435 -54.4463,88.89437 -85.8913,140.20397 -31.44499,51.3096 -63.24459,102.77792 -87.59525,141.15632 -24.35066,38.3784 -41.2131,63.66687 -42.65275,62.61677 -1.43964,-1.0501 13.97804,-27.38539 37.7039,-66.45859 23.72586,-39.07319 55.72372,-90.88429 87.5765,-142.88601 31.8528,-52.00172 63.5599,-104.19406 87.112,-144.02975 23.552,-39.83568 38.9841,-67.3147 38.4349,-69.88979 -0.5492,-2.57508 -16.5254,22.33551 -40.4427,61.07408 -23.9173,38.73857 -55.8184,91.30513 -88.0952,144.04201 -32.27685,52.73687 -64.92981,105.64406 -89.90367,145.06389 -24.97386,39.41982 -42.22689,65.35228 -43.5657,64.13969 -1.33881,-1.21258 14.57341,-28.36027 38.98651,-68.5814 24.41309,-40.22113 57.28898,-93.51568 90.01736,-147.02199 32.7283,-53.50631 65.3085,-107.22437 89.5601,-148.29251 24.2517,-41.06813 40.2117,-69.48633 39.8579,-72.39292 -0.3537,-2.90659 -16.6574,22.60566 -41.176,62.41703 -24.5187,39.81136 -57.298,93.92184 -90.4747,148.2117 -33.17675,54.28985 -66.75139,108.75909 -92.38507,149.28796 -25.63367,40.52888 -43.28182,67.1174 -44.45994,65.64583 -1.17812,-1.47158 15.27548,-29.51294 40.39757,-70.92705 25.1221,-41.41412 58.87272,-96.20098 92.43824,-151.16356 33.5656,-54.96257 66.9455,-110.10086 91.7795,-152.21782 24.834,-42.11697 41.1609,-71.2126 40.7859,-74.08988 -0.375,-2.87727 -17.0674,23.34259 -42.1561,64.18062 -25.0887,40.83802 -58.6217,96.29421 -92.5415,151.88958 -33.91974,55.59537 -68.22675,111.32993 -94.36418,152.72469 -26.13744,41.39477 -44.05829,68.44975 -45.05557,66.68596 -0.99729,-1.76378 15.92252,-30.58605 41.63381,-73.0098 25.71129,-42.42375 60.17262,-98.44898 94.41664,-154.61869 34.2441,-56.1697 68.2704,-112.48388 93.5842,-155.48554 25.3137,-43.00166 41.9555,-72.69079 41.6019,-75.6104 -0.3535,-2.91961 -17.3401,23.85329 -42.8766,65.52176 -25.5366,41.66847 -59.6731,98.2325 -94.18345,154.89516 -34.51032,56.66266 -69.39479,113.42395 -95.90727,155.48693 -26.51248,42.06298 -44.60373,69.42765 -45.37454,67.29707 -0.77082,-2.13058 16.40351,-31.4042 42.25217,-74.11511 25.84867,-42.71091 60.32998,-98.85912 94.34428,-154.73889 34.01431,-55.87977 67.56241,-111.4911 92.02241,-153.12826 24.46,-41.63715 39.8752,-69.30013 37.7698,-69.28319 -2.1054,0.0169 -19.6323,27.70608 -44.971,69.06252 -25.3387,41.35644 -58.5325,96.38019 -91.81318,151.06633 -33.28067,54.68615 -66.64709,109.0347 -91.85518,149.04074 -25.20808,40.00604 -42.21235,65.66958 -42.64211,62.98572 -0.42976,-2.68387 16.13494,-31.0316 40.89523,-72.04393 24.76029,-41.01232 57.67888,-94.68923 90.11736,-148.03145 32.43848,-53.34221 64.39788,-106.34974 87.67238,-146.02328 23.2745,-39.67355 37.9033,-66.01312 35.8118,-66.01943 -2.0916,-0.006 -18.8419,26.37571 -42.9554,65.70262 -24.1135,39.32691 -55.6296,91.59873 -87.10532,143.37201 -31.47569,51.77329 -62.90942,103.04806 -86.4265,140.38087 -23.51708,37.33282 -39.07508,60.72368 -38.69735,56.72918 0.37773,-3.99451 16.29966,-31.3802 39.6633,-70.21302 23.36364,-38.83283 54.13803,-89.11279 84.36993,-138.89585 30.23194,-49.78305 59.92264,-99.06921 81.49044,-135.91441 21.5678,-36.84521 35.0462,-61.24947 32.9624,-61.26874 -2.0838,-0.0193 -13.3009,17.05693 -28.9657,42.35471 -15.6647,25.29778 -35.7937,58.81715 -55.6355,91.68422 -19.84176,32.86707 -39.39509,65.08185 -53.72872,87.77045 -14.33363,22.6886 -23.42842,35.85103 -22.32668,30.61339 1.10174,-5.23763 11.28706,-23.63799 25.74571,-48.29377 14.45865,-24.65577 33.18084,-55.56695 51.42139,-85.82622 18.2405,-30.25926 36.0003,-59.86661 48.665,-81.91473 12.6647,-22.04811 20.2461,-36.53699 18.1641,-36.55931 -2.082,-0.0223 -11.8149,14.56009 -25.3167,36.25681 -13.5018,21.69671 -30.7845,50.50773 -47.92,78.94262 -17.13552,28.4349 -34.12315,56.49366 -46.90291,76.68588 -12.77976,20.19221 -21.33831,32.51787 -21.58866,29.48654 -0.25035,-3.03132 8.05225,-18.38861 20.46368,-39.7204 12.41143,-21.33179 28.92309,-48.63807 45.13739,-75.56739 16.2143,-26.92931 32.1318,-53.48165 43.4618,-73.30555 11.33,-19.82389 18.0822,-32.91935 15.9961,-32.93489 -2.086,-0.0155 -10.9338,13.07978 -23.1174,32.57988 -12.1837,19.50011 -27.7129,45.40499 -43.12516,71.00856 -15.41222,25.60358 -30.70695,50.90585 -42.31516,69.20073 -11.60821,18.29488 -19.51926,29.58236 -20.141,27.15637 -0.62174,-2.42599 6.66358,-16.13978 17.76725,-35.34578 11.10367,-19.20599 26.01849,-43.90419 40.69301,-68.29898 14.67456,-24.39479 29.10916,-48.48618 39.34086,-66.47855 10.2316,-17.99238 16.2683,-29.88574 14.1722,-29.88449 -2.096,0.001 -10.2322,11.9012 -21.3464,29.61773 -11.1141,17.71653 -25.21424,41.24966 -39.20778,64.51727 -13.99355,23.26762 -27.88016,46.26973 -38.47962,62.92423 -10.59946,16.6545 -17.90302,26.9614 -18.71109,24.83859 -0.80808,-2.12281 5.69799,-14.57544 15.73644,-32.04612 10.03844,-17.47068 23.60322,-39.9594 36.94358,-62.15437 26.68067,-44.38996 52.43797,-87.60494 47.97657,-87.15066 -2.2308,0.22714 -9.7841,11.14708 -19.9488,27.2779 -10.1646,16.13082 -22.94693,37.47252 -35.60992,58.54318 -25.32599,42.14132 -50.19593,83.1985 -52.03593,79.31617 -1.84,-3.88233 23.04852,-45.00987 46.85584,-84.6441 23.80733,-39.63423 46.54661,-77.77515 41.10891,-75.68422 -5.43762,2.09093 -28.19603,40.23825 -50.25062,76.95016 -22.05458,36.7119 -43.39316,71.98839 -45.37648,68.33764 -1.98332,-3.65074 19.69596,-39.52904 39.54249,-72.57862 19.84652,-33.04959 37.88272,-63.27045 29.11387,-55.60634 -8.76885,7.66411 -26.84371,37.88966 -43.33248,65.32259 -16.48877,27.43293 -31.37541,52.07324 -33.44885,48.56685 -2.07344,-3.50639 8.34643,-20.77331 17.25268,-35.57283 8.90624,-14.79952 16.30793,-27.13163 8.29544,-20.76839 -8.01249,6.36323 -15.46007,18.75114 -21.41471,28.63864 -5.95463,9.8875 -10.4115,17.2746 -12.40814,13.63621 -3.99327,-7.27678 18.47979,-30.68848 6.57553,-24.83244 -11.90427,5.85604 -11.24309,18.67461 -15.21085,11.34624 -3.96775,-7.32837 -1.74841,-4.05593 -1.74841,-4.05593"
       id="path80194"
       inkscape:connector-curvature="0"
       inkscape:path-effect="#path-effect3367-4"
       inkscape:original-d="m 1030.0996,224.59733 c -34.67584,0.49884 -63.65524,25.42149 -79.19204,54.85357 -17.4037,23.25441 -42.3067,40.39228 -69.55319,49.95943 2.27944,7.65046 9.60681,12.69599 12.25837,20.34607 22.42122,36.46828 45.34652,78.48496 38.01162,122.82956 -8.403,49.17113 -46.21874,85.00821 -70.62762,126.22693 -19.98444,41.18295 -7.18755,95.31618 29.95968,122.52945 42.08994,34.12007 111.99408,33.2717 147.78908,-9.94226 18.7253,-22.69719 35.1751,-47.42869 57.5118,-66.75113 39.1684,-38.21281 85.0749,-68.74965 126.5197,-104.31625 16.1245,-24.95237 6.7742,-57.04772 -6.9822,-80.75014 -28.0694,-59.57069 -67.8678,-116.35705 -73.8279,-183.66872 -2.712,-16.94201 -4.5546,-34.00532 -6.6703,-51.02843 -35.0646,0.62435 -70.1312,-0.57579 -105.197,-0.28808 z" />
    <path
       inkscape:original-d="m 1830.0996,224.59733 c -34.6758,0.49884 -63.6552,25.42149 -79.192,54.85357 -17.4037,23.25441 -42.3067,40.39228 -69.5532,49.95943 2.2794,7.65046 9.6068,12.69599 12.2583,20.34607 22.4213,36.46828 45.3466,78.48496 38.0117,122.82956 -8.403,49.17113 -46.2188,85.00821 -70.6277,126.22693 -19.9844,41.18295 -7.1875,95.31618 29.9597,122.52945 42.09,34.12007 111.9941,33.2717 147.7891,-9.94226 18.7253,-22.69719 35.1751,-47.42869 57.5118,-66.75113 39.1684,-38.21281 85.0749,-68.74965 126.5197,-104.31625 16.1245,-24.95237 6.7742,-57.04772 -6.9822,-80.75014 -28.0694,-59.57069 -67.8678,-116.35705 -73.8279,-183.66872 -2.712,-16.94201 -4.5546,-34.00532 -6.6703,-51.02843 -35.0646,0.62435 -70.1312,-0.57579 -105.197,-0.28808 z"
       inkscape:path-effect="#path-effect3375-0"
       inkscape:connector-curvature="0"
       id="path80208"
       d="m 2022.6519,540.44001 c 0,0 -1.184,8.77763 5.3249,-15.50935 3.2544,-12.14348 -0.3057,-6.33338 -6.735,4.14931 -6.4294,10.48269 -15.7419,25.63796 -23.9598,32.18482 -8.2179,6.54687 0.3932,-7.4409 10.7761,-24.35758 10.383,-16.91669 22.5261,-36.76229 21.4957,-41.93109 -1.0304,-5.1688 -13.117,14.61381 -27.0099,37.25893 -13.8929,22.64511 -29.6065,48.15272 -37.67,54.43391 -8.0636,6.28119 7.6443,-19.17511 24.8715,-47.23636 17.2272,-28.06125 35.9565,-58.72745 34.2919,-62.86607 -1.6646,-4.13862 -20.32,26.44542 -40.8147,59.83849 -20.4947,33.39307 -42.8492,69.59517 -51.4266,76.69267 -8.5775,7.0975 13.7921,-29.06396 37.659,-67.91989 11.9334,-19.42797 24.2433,-39.52956 33.3168,-55.23422 9.0734,-15.70465 14.9155,-27.01236 13.9418,-28.85257 -1.9475,-3.68042 -27.2094,37.7948 -54.7349,82.61333 -13.7628,22.40927 -28.0878,45.65436 -40.26,64.50874 -12.1722,18.85438 -22.1864,33.31805 -27.2863,38.16446 -10.1999,9.69282 19.7232,-38.51902 51.4383,-90.09941 15.8576,-25.79019 32.1672,-52.42252 44.2595,-73.07997 12.0923,-20.65746 19.9765,-35.34003 19.0319,-37.2307 -0.9446,-1.89068 -10.3607,11.87542 -24.4199,34.04452 -14.0592,22.1691 -32.7752,52.74118 -52.2943,84.46247 -19.5191,31.72128 -39.8431,64.59176 -56.9753,91.35765 -17.1321,26.76588 -31.0623,47.42717 -37.7117,54.73007 -6.6494,7.3029 0.6484,-6.05479 15.2119,-30.31538 14.5635,-24.26059 36.3685,-59.42408 58.7515,-95.73279 22.3831,-36.30871 45.3417,-73.76263 62.4301,-102.60409 17.0884,-28.84146 28.3257,-49.07046 27.3601,-50.9293 -0.9655,-1.85885 -12.8472,15.99133 -30.3972,43.89124 -17.55,27.8999 -40.7902,65.84954 -64.4137,104.1896 -23.6235,38.34007 -47.6312,77.07056 -66.4857,106.53219 -18.8545,29.46164 -32.5355,49.6544 -35.4213,50.91901 -2.8858,1.26461 7.9129,-17.66291 25.5749,-46.88105 17.6621,-29.21814 42.1643,-68.72691 66.7521,-108.62481 24.5877,-39.8979 49.2601,-80.18493 67.5084,-110.9596 18.2483,-30.77466 30.0938,-52.03696 29.1203,-53.8854 -0.9734,-1.84844 -13.7745,17.54486 -32.685,47.70493 -18.9105,30.16007 -43.9559,71.08692 -69.3463,112.30558 -25.3904,41.21867 -51.1265,82.72915 -71.1501,114.05648 -20.0235,31.32734 -34.3103,52.47153 -36.7096,52.95763 -2.3994,0.48609 9.4895,-20.17137 28.498,-51.54715 19.0086,-31.37577 45.1115,-73.46986 71.2207,-115.85701 26.1093,-42.38716 52.2242,-85.06738 71.5324,-117.61543 19.3081,-32.54805 31.8333,-54.96393 30.8644,-56.82238 -0.9689,-1.85846 -14.454,18.6932 -34.3901,50.57102 -19.9361,31.87782 -46.3517,75.08179 -73.1002,118.52795 -26.7484,43.44616 -53.8303,87.1345 -74.7999,119.98107 -20.9695,32.84656 -35.7995,54.85135 -37.9442,54.93038 -2.1448,0.079 10.5407,-21.84602 30.5893,-54.89617 20.0487,-33.05015 47.4332,-77.22539 74.7779,-121.6467 27.3448,-44.42131 54.6491,-89.08869 74.8389,-123.12314 20.1897,-34.03444 33.2911,-57.43595 32.3394,-59.32551 -0.9516,-1.88956 -14.9974,19.62001 -35.7845,52.93442 -20.7872,33.3144 -48.3467,78.43363 -76.2359,123.76339 -27.8891,45.32975 -56.1086,90.87004 -77.889,125.02655 -21.7804,34.15652 -37.0919,56.92926 -39.0588,56.72393 -1.9669,-0.20534 11.3771,-23.18262 32.3044,-57.65455 20.9272,-34.47193 49.4083,-80.43851 77.8165,-126.62245 28.4081,-46.18394 56.7426,-92.58524 77.7016,-127.9266 20.959,-35.34136 34.5707,-59.62278 33.6504,-61.56697 -0.9203,-1.94419 -15.4454,20.39194 -36.9706,54.96249 -21.5252,34.57056 -50.0837,81.37553 -78.9734,128.36902 -28.8897,46.99348 -58.111,94.17548 -80.6099,129.50009 -22.499,35.32461 -38.2432,58.79183 -40.0658,58.35575 -1.8226,-0.43608 12.0975,-24.33838 33.8005,-60.07324 21.703,-35.73486 51.1578,-83.30228 80.5137,-131.06859 29.3559,-47.76631 58.6124,-95.73151 80.2657,-132.26193 21.6532,-36.53043 35.7334,-61.62608 34.8615,-63.65328 -0.8719,-2.02721 -15.8172,21.04079 -38.0013,56.74292 -22.1841,35.70212 -51.6427,84.03837 -81.4371,132.54766 -29.7943,48.50928 -59.9248,97.1916 -83.0771,133.58587 -23.1524,36.39426 -39.2919,60.50048 -40.9853,59.85755 -1.6934,-0.64293 12.7503,-25.39073 35.1608,-62.28498 22.4105,-36.89425 52.7549,-85.93495 82.98,-135.1637 30.225,-49.22874 60.3302,-98.64553 82.6297,-136.29195 22.2996,-37.64642 36.8253,-63.52246 36.0238,-65.66973 -0.8015,-2.14727 -16.1216,21.58153 -38.9091,58.32985 -22.7874,36.74833 -53.0801,86.5162 -83.7159,136.44708 -30.6358,49.93088 -61.6153,100.02478 -85.3776,137.42517 -23.7624,37.40039 -40.2707,62.10728 -41.8392,61.26414 -1.5685,-0.84314 13.3677,-26.39117 36.4438,-64.38395 23.076,-37.99278 54.2574,-88.43031 85.3037,-139.05243 31.0464,-50.62213 61.9572,-101.42885 84.8797,-140.16001 22.9226,-38.73117 37.8903,-65.38678 37.1905,-67.7067 -0.6998,-2.31991 -16.3597,22.01621 -39.715,59.7597 -23.3553,37.7435 -54.4463,88.89437 -85.8913,140.20397 -31.445,51.3096 -63.2446,102.77793 -87.5953,141.15633 -24.3506,38.3784 -41.2131,63.66687 -42.6527,62.61677 -1.4396,-1.05011 13.978,-27.3854 37.7039,-66.45859 23.7259,-39.07319 55.7237,-90.88429 87.5765,-142.88602 31.8528,-52.00172 63.5599,-104.19406 87.112,-144.02975 23.552,-39.83568 38.9841,-67.3147 38.4349,-69.88979 -0.5492,-2.57508 -16.5254,22.33551 -40.4427,61.07408 -23.9173,38.73857 -55.8184,91.30514 -88.0952,144.04201 -32.2768,52.73688 -64.9298,105.64407 -89.9037,145.06389 -24.9738,39.41983 -42.2269,65.35229 -43.5657,64.1397 -1.3388,-1.21258 14.5734,-28.36028 38.9865,-68.5814 24.4131,-40.22113 57.289,-93.51569 90.0174,-147.022 32.7283,-53.50631 65.3085,-107.22437 89.5601,-148.2925 24.2517,-41.06814 40.2117,-69.48634 39.8579,-72.39293 -0.3537,-2.90659 -16.6574,22.60566 -41.176,62.41703 -24.5187,39.81137 -57.298,93.92185 -90.4747,148.2117 -33.1767,54.28986 -66.7514,108.75909 -92.3851,149.28797 -25.6336,40.52888 -43.2818,67.11739 -44.4599,65.64582 -1.1781,-1.47157 15.2755,-29.51294 40.3976,-70.92705 25.1221,-41.41411 58.8727,-96.20098 92.4382,-151.16355 33.5656,-54.96258 66.9455,-110.10087 91.7795,-152.21783 24.834,-42.11697 41.1609,-71.2126 40.7859,-74.08988 -0.375,-2.87727 -17.0674,23.34259 -42.1561,64.18062 -25.0887,40.83802 -58.6217,96.29421 -92.5415,151.88958 -33.9197,55.59537 -68.2267,111.32993 -94.3642,152.7247 -26.1374,41.39476 -44.0583,68.44974 -45.0556,66.68596 -0.9972,-1.76379 15.9226,-30.58606 41.6339,-73.00981 25.7113,-42.42375 60.1726,-98.44898 94.4166,-154.61868 34.2441,-56.16971 68.2704,-112.48389 93.5842,-155.48555 25.3137,-43.00166 41.9555,-72.69079 41.6019,-75.6104 -0.3535,-2.91961 -17.3401,23.85329 -42.8766,65.52176 -25.5366,41.66847 -59.6731,98.2325 -94.1835,154.89516 -34.5103,56.66267 -69.3947,113.42395 -95.9072,155.48693 -26.5125,42.06298 -44.6038,69.42765 -45.3746,67.29707 -0.7708,-2.13058 16.4035,-31.40419 42.2522,-74.11511 25.8487,-42.71091 60.33,-98.85912 94.3443,-154.73889 34.0143,-55.87977 67.5624,-111.4911 92.0224,-153.12826 24.46,-41.63715 39.8752,-69.30013 37.7698,-69.28319 -2.1054,0.0169 -19.6323,27.70608 -44.971,69.06252 -25.3387,41.35644 -58.5325,96.38019 -91.8132,151.06634 -33.2806,54.68614 -66.6471,109.03469 -91.8552,149.04073 -25.208,40.00605 -42.2123,65.66959 -42.6421,62.98573 -0.4297,-2.68387 16.135,-31.0316 40.8953,-72.04393 24.7602,-41.01232 57.6788,-94.68923 90.1173,-148.03145 32.4385,-53.34222 64.3979,-106.34974 87.6724,-146.02329 23.2745,-39.67355 37.9033,-66.01312 35.8118,-66.01943 -2.0916,-0.006 -18.8419,26.37571 -42.9554,65.70262 -24.1135,39.32692 -55.6296,91.59873 -87.1053,143.37202 -31.4757,51.77329 -62.9094,103.04806 -86.4265,140.38088 -23.5171,37.33282 -39.0751,60.72369 -38.6974,56.72919 0.3777,-3.9945 16.2997,-31.38019 39.6633,-70.21301 23.3636,-38.83283 54.138,-89.1128 84.3699,-138.89586 30.232,-49.78306 59.9227,-99.06922 81.4905,-135.91443 21.5678,-36.84521 35.0462,-61.24948 32.9624,-61.26875 -2.0838,-0.0193 -13.3009,17.05692 -28.9657,42.35469 -15.6647,25.29777 -35.7936,58.81712 -55.6354,91.68417 -19.8418,32.86706 -39.3951,65.08182 -53.7288,87.77042 -14.3336,22.68859 -23.4284,35.85101 -22.3266,30.61339 1.1017,-5.23762 11.287,-23.63797 25.7456,-48.29373 14.4587,-24.65576 33.1809,-55.56693 51.4214,-85.82619 18.2405,-30.25926 36.0003,-59.8666 48.665,-81.91471 12.6647,-22.04811 20.2461,-36.53698 18.1641,-36.5593 -2.082,-0.0223 -11.8149,14.56009 -25.3167,36.2568 -13.5018,21.69671 -30.7845,50.50772 -47.92,78.9426 -17.1355,28.43489 -34.1231,56.49365 -46.9029,76.68585 -12.7797,20.19221 -21.3383,32.51787 -21.5886,29.48655 -0.2504,-3.03133 8.0522,-18.38861 20.4636,-39.72039 12.4115,-21.33179 28.9231,-48.63807 45.1374,-75.56737 16.2143,-26.92931 32.1318,-53.48164 43.4618,-73.30553 11.33,-19.8239 18.0822,-32.91935 15.9961,-32.93489 -2.086,-0.0155 -10.9338,13.07978 -23.1174,32.57988 -12.1837,19.50009 -27.7129,45.40497 -43.1251,71.00854 -15.4123,25.60357 -30.707,50.90583 -42.3152,69.20071 -11.6082,18.29487 -19.5193,29.58236 -20.141,27.15637 -0.6217,-2.42599 6.6636,-16.13978 17.7673,-35.34577 11.1036,-19.20599 26.0184,-43.90418 40.693,-68.29897 14.6745,-24.39479 29.1091,-48.48617 39.3408,-66.47854 10.2316,-17.99237 16.2683,-29.88573 14.1722,-29.88448 -2.096,0.001 -10.2322,11.90119 -21.3464,29.61772 -11.1141,17.71653 -25.2142,41.24965 -39.2078,64.51726 -13.9935,23.26762 -27.8801,46.26972 -38.4796,62.92422 -10.5994,16.6545 -17.903,26.9614 -18.7111,24.83859 -0.808,-2.12281 5.698,-14.57544 15.7365,-32.04611 10.0384,-17.47068 23.6032,-39.95939 36.9435,-62.15437 26.6807,-44.38994 52.438,-87.60492 47.9766,-87.15064 -2.2308,0.22714 -9.7841,11.14708 -19.9488,27.2779 -10.1646,16.13081 -22.9469,37.47251 -35.6099,58.54317 -25.326,42.14132 -50.1959,83.19848 -52.0359,79.31616 -1.84,-3.88232 23.0485,-45.00986 46.8558,-84.64408 23.8073,-39.63423 46.5465,-77.77514 41.1089,-75.68421 -5.4376,2.09094 -28.196,40.23825 -50.2506,76.95015 -22.0546,36.7119 -43.3932,71.98838 -45.3765,68.33764 -1.9833,-3.65074 19.696,-39.52904 39.5425,-72.57861 19.8465,-33.04957 37.8827,-63.27042 29.1138,-55.60627 -8.7689,7.66415 -26.8437,37.88968 -43.3325,65.32259 -16.4887,27.4329 -31.3753,52.07317 -33.4488,48.56678 -2.0734,-3.50638 8.3464,-20.77328 17.2527,-35.57278 8.9062,-14.79951 16.3079,-27.13161 8.2954,-20.76839 -8.0125,6.36321 -15.46,18.75112 -21.4147,28.63862 -5.9546,9.8875 -10.4115,17.27459 -12.4081,13.63619 -3.9933,-7.27681 18.4798,-30.68846 6.5755,-24.83243 -11.9042,5.85603 -11.2431,18.67459 -15.2108,11.34619 -3.9677,-7.32839 -1.7484,-4.0559 -1.7484,-4.0559"
       style="fill:none;stroke:#ff0000;stroke-width:4;stroke-miterlimit:4;stroke-opacity:1;stroke-dasharray:none;display:inline" />
    <path
       style="fill:none;stroke:#ff0000;stroke-width:4;stroke-miterlimit:4;stroke-opacity:1;stroke-dasharray:none;display:inline"
       d="m 2822.6519,540.44001 c 0,0 -1.184,8.77763 5.3249,-15.50935 3.2544,-12.14348 -0.3057,-6.33338 -6.735,4.14931 -6.4294,10.48269 -15.7419,25.63796 -23.9598,32.18482 -8.2179,6.54687 0.3932,-7.4409 10.7761,-24.35758 10.383,-16.91669 22.5261,-36.76229 21.4957,-41.93109 -1.0304,-5.1688 -13.117,14.61381 -27.0099,37.25893 -13.8929,22.64511 -29.6065,48.15272 -37.67,54.43391 -8.0636,6.28119 7.6443,-19.17511 24.8715,-47.23636 17.2272,-28.06125 35.9565,-58.72745 34.2919,-62.86607 -1.6646,-4.13862 -20.32,26.44542 -40.8147,59.83849 -20.4947,33.39307 -42.8492,69.59517 -51.4266,76.69267 -8.5775,7.0975 13.7921,-29.06396 37.659,-67.91989 11.9334,-19.42797 24.2433,-39.52956 33.3168,-55.23422 9.0734,-15.70465 14.9155,-27.01236 13.9418,-28.85257 -1.9475,-3.68042 -27.2094,37.7948 -54.7349,82.61333 -13.7628,22.40927 -28.0878,45.65436 -40.26,64.50874 -12.1722,18.85438 -22.1864,33.31805 -27.2863,38.16446 -10.1999,9.69282 19.7232,-38.51902 51.4383,-90.09941 15.8576,-25.79019 32.1672,-52.42252 44.2595,-73.07997 12.0923,-20.65746 19.9765,-35.34003 19.0319,-37.2307 -0.9446,-1.89068 -10.3607,11.87542 -24.4199,34.04452 -14.0592,22.1691 -32.7752,52.74118 -52.2943,84.46247 -19.5191,31.72128 -39.8431,64.59176 -56.9753,91.35765 -17.1321,26.76588 -31.0623,47.42717 -37.7117,54.73007 -6.6494,7.3029 0.6484,-6.05479 15.2119,-30.31538 14.5635,-24.26059 36.3685,-59.42408 58.7515,-95.73279 22.3831,-36.30871 45.3417,-73.76263 62.4301,-102.60409 17.0884,-28.84146 28.3257,-49.07046 27.3601,-50.9293 -0.9655,-1.85885 -12.8472,15.99133 -30.3972,43.89124 -17.55,27.8999 -40.7902,65.84954 -64.4137,104.1896 -23.6235,38.34007 -47.6312,77.07056 -66.4857,106.53219 -18.8545,29.46164 -32.5355,49.6544 -35.4213,50.91901 -2.8858,1.26461 7.9129,-17.66291 25.5749,-46.88105 17.662,-29.21814 42.1643,-68.72691 66.7521,-108.62481 24.5877,-39.8979 49.2601,-80.18493 67.5084,-110.9596 18.2483,-30.77466 30.0938,-52.03696 29.1203,-53.8854 -0.9734,-1.84844 -13.7745,17.54486 -32.685,47.70493 -18.9105,30.16007 -43.9559,71.08692 -69.3463,112.30558 -25.3904,41.21867 -51.1265,82.72915 -71.1501,114.05648 -20.0235,31.32734 -34.3103,52.47154 -36.7096,52.95763 -2.3994,0.48609 9.4895,-20.17137 28.498,-51.54715 19.0086,-31.37577 45.1115,-73.46986 71.2207,-115.85701 26.1093,-42.38716 52.2242,-85.06738 71.5324,-117.61543 19.3081,-32.54805 31.8333,-54.96393 30.8644,-56.82238 -0.9689,-1.85846 -14.454,18.6932 -34.3901,50.57102 -19.9361,31.87782 -46.3517,75.08179 -73.1002,118.52795 -26.7484,43.44616 -53.8303,87.1345 -74.7999,119.98107 -20.9695,32.84656 -35.7995,54.85135 -37.9442,54.93038 -2.1448,0.079 10.5407,-21.84602 30.5893,-54.89617 20.0487,-33.05015 47.4332,-77.22539 74.7779,-121.6467 27.3448,-44.42131 54.6491,-89.08869 74.8389,-123.12314 20.1897,-34.03444 33.2911,-57.43595 32.3394,-59.32551 -0.9516,-1.88956 -14.9974,19.62001 -35.7845,52.93442 -20.7872,33.3144 -48.3467,78.43363 -76.2359,123.76339 -27.8891,45.32975 -56.1086,90.87004 -77.889,125.02655 -21.7804,34.15652 -37.0919,56.92926 -39.0588,56.72392 -1.9669,-0.20533 11.3771,-23.18261 32.3044,-57.65454 20.9272,-34.47193 49.4083,-80.43852 77.8165,-126.62246 28.4081,-46.18394 56.7426,-92.58523 77.7016,-127.92659 20.959,-35.34136 34.5707,-59.62278 33.6504,-61.56697 -0.9203,-1.94419 -15.4454,20.39194 -36.9706,54.96249 -21.5252,34.57056 -50.0837,81.37553 -78.9734,128.36901 -28.8897,46.99349 -58.111,94.17549 -80.6099,129.5001 -22.499,35.32461 -38.2432,58.79182 -40.0658,58.35574 -1.8226,-0.43608 12.0975,-24.33838 33.8005,-60.07324 21.703,-35.73486 51.1578,-83.30228 80.5137,-131.06858 29.3559,-47.76631 58.6124,-95.73151 80.2657,-132.26193 21.6532,-36.53043 35.7334,-61.62608 34.8615,-63.65328 -0.8719,-2.02721 -15.8172,21.04079 -38.0013,56.74292 -22.1841,35.70212 -51.6427,84.03837 -81.4371,132.54765 -29.7943,48.50929 -59.9248,97.1916 -83.0771,133.58587 -23.1524,36.39426 -39.2919,60.50047 -40.9853,59.85754 -1.6934,-0.64293 12.7503,-25.39072 35.1608,-62.28497 22.4105,-36.89425 52.7549,-85.93495 82.98,-135.1637 30.225,-49.22874 60.3302,-98.64553 82.6297,-136.29194 22.2996,-37.64642 36.8253,-63.52246 36.0238,-65.66973 -0.8015,-2.14727 -16.1216,21.58152 -38.9091,58.32985 -22.7874,36.74833 -53.0801,86.51619 -83.7159,136.44707 -30.6358,49.93087 -61.6153,100.02477 -85.3776,137.42516 -23.7624,37.40039 -40.2707,62.10727 -41.8392,61.26413 -1.5685,-0.84314 13.3677,-26.39117 36.4438,-64.38395 23.076,-37.99278 54.2574,-88.4303 85.3038,-139.05242 31.0463,-50.62212 61.9571,-101.42883 84.8796,-140.16 22.9226,-38.73116 37.8903,-65.38677 37.1905,-67.70669 -0.6998,-2.31991 -16.3597,22.01621 -39.715,59.7597 -23.3553,37.74349 -54.4462,88.89436 -85.8913,140.20395 -31.445,51.3096 -63.2446,102.77792 -87.5952,141.15631 -24.3507,38.3784 -41.2131,63.66687 -42.6528,62.61676 -1.4396,-1.0501 13.9781,-27.38539 37.7039,-66.45858 23.7259,-39.07319 55.7237,-90.88429 87.5765,-142.886 31.8528,-52.00172 63.56,-104.19405 87.112,-144.02973 23.552,-39.83568 38.9841,-67.3147 38.4349,-69.88979 -0.5492,-2.57508 -16.5254,22.3355 -40.4427,61.07407 -23.9173,38.73857 -55.8184,91.30513 -88.0952,144.042 -32.2768,52.73687 -64.9298,105.64405 -89.9036,145.06387 -24.9739,39.41982 -42.2269,65.35228 -43.5657,64.1397 -1.3389,-1.21259 14.5734,-28.36028 38.9865,-68.5814 24.413,-40.22112 57.2889,-93.51568 90.0173,-147.02198 32.7283,-53.50631 65.3085,-107.22436 89.5601,-148.29249 24.2517,-41.06813 40.2117,-69.48633 39.8579,-72.39292 -0.3537,-2.90659 -16.6574,22.60566 -41.176,62.41702 -24.5187,39.81137 -57.298,93.92184 -90.4747,148.21169 -33.1767,54.28985 -66.7514,108.75908 -92.385,149.28795 -25.6337,40.52888 -43.2819,67.11739 -44.46,65.64582 -1.1781,-1.47157 15.2755,-29.51293 40.3976,-70.92704 25.1221,-41.41411 58.8727,-96.20097 92.4382,-151.16354 33.5656,-54.96258 66.9455,-110.10086 91.7795,-152.21782 24.834,-42.11696 41.1609,-71.21259 40.7859,-74.08987 -0.375,-2.87727 -17.0674,23.34259 -42.1561,64.18061 -25.0887,40.83802 -58.6217,96.2942 -92.5415,151.88957 -33.9197,55.59537 -68.2267,111.32992 -94.3642,152.72469 -26.1374,41.39476 -44.0582,68.44974 -45.0555,66.68595 -0.9973,-1.76378 15.9225,-30.58605 41.6338,-73.0098 25.7113,-42.42374 60.1726,-98.44897 94.4166,-154.61867 34.2441,-56.1697 68.2704,-112.48388 93.5842,-155.48554 25.3137,-43.00165 41.9555,-72.69078 41.6019,-75.61039 -0.3535,-2.91961 -17.3401,23.85329 -42.8766,65.52176 -25.5366,41.66846 -59.6731,98.23249 -94.1834,154.89515 -34.5104,56.66266 -69.3948,113.42394 -95.9073,155.48692 -26.5125,42.06298 -44.6037,69.42764 -45.3745,67.29706 -0.7709,-2.13058 16.4035,-31.40419 42.2521,-74.1151 25.8487,-42.71091 60.33,-98.85912 94.3443,-154.73888 34.0143,-55.87977 67.5624,-111.4911 92.0224,-153.12825 24.46,-41.63715 39.8752,-69.30013 37.7698,-69.28319 -2.1054,0.0169 -19.6323,27.70607 -44.971,69.06252 -25.3387,41.35644 -58.5325,96.38018 -91.8132,151.06632 -33.2806,54.68614 -66.6471,109.03469 -91.8551,149.04073 -25.2081,40.00604 -42.2124,65.66958 -42.6422,62.98571 -0.4297,-2.68386 16.135,-31.0316 40.8953,-72.04392 24.7603,-41.01232 57.6789,-94.68923 90.1173,-148.03144 32.4385,-53.34222 64.3979,-106.34973 87.6724,-146.02328 23.2745,-39.67354 37.9033,-66.01311 35.8118,-66.01942 -2.0916,-0.006 -18.8419,26.37571 -42.9554,65.70262 -24.1135,39.32691 -55.6296,91.59872 -87.1053,143.372 -31.4757,51.77328 -62.9094,103.04804 -86.4265,140.38085 -23.5171,37.33281 -39.0751,60.72366 -38.6973,56.72915 0.3777,-3.99452 16.2996,-31.38021 39.6633,-70.21303 23.3636,-38.83282 54.138,-89.11277 84.3699,-138.89582 30.2319,-49.78305 59.9226,-99.06919 81.4904,-135.91439 21.5678,-36.84519 35.0462,-61.24945 32.9624,-61.26872 -2.0838,-0.0193 -13.3009,17.05692 -28.9657,42.35469 -15.6647,25.29776 -35.7936,58.81711 -55.6354,91.68417 -19.8418,32.86705 -39.3951,65.08181 -53.7287,87.77041 -14.3337,22.68859 -23.4285,35.85102 -22.3267,30.6134 1.1017,-5.23762 11.287,-23.63797 25.7456,-48.29373 14.4587,-24.65576 33.1809,-55.56693 51.4214,-85.82619 18.2405,-30.25925 36.0003,-59.8666 48.665,-81.91471 12.6647,-22.04811 20.2461,-36.53698 18.1641,-36.5593 -2.082,-0.0223 -11.8149,14.56009 -25.3167,36.2568 -13.5018,21.69671 -30.7845,50.50772 -47.92,78.9426 -17.1355,28.43489 -34.1231,56.49365 -46.9029,76.68585 -12.7797,20.19221 -21.3383,32.51787 -21.5886,29.48655 -0.2504,-3.03133 8.0522,-18.38861 20.4636,-39.7204 12.4115,-21.33178 28.9231,-48.63806 45.1374,-75.56736 16.2143,-26.92931 32.1318,-53.48164 43.4618,-73.30553 11.33,-19.8239 18.0822,-32.91935 15.9961,-32.93489 -2.086,-0.0155 -10.9338,13.07978 -23.1174,32.57988 -12.1837,19.50009 -27.7129,45.40497 -43.1251,71.00854 -15.4123,25.60357 -30.707,50.90583 -42.3152,69.20071 -11.6082,18.29487 -19.5192,29.58235 -20.141,27.15637 -0.6217,-2.42599 6.6636,-16.13978 17.7673,-35.34578 11.1036,-19.20599 26.0184,-43.90418 40.693,-68.29896 14.6745,-24.39479 29.1091,-48.48617 39.3408,-66.47854 10.2316,-17.99237 16.2683,-29.88573 14.1722,-29.88448 -2.096,0.001 -10.2322,11.90119 -21.3464,29.61772 -11.1141,17.71653 -25.2142,41.24965 -39.2078,64.51726 -13.9935,23.26761 -27.8801,46.26971 -38.4796,62.92421 -10.5994,16.6545 -17.903,26.96139 -18.7111,24.83859 -0.808,-2.12281 5.698,-14.57544 15.7365,-32.04612 10.0384,-17.47067 23.6032,-39.95938 36.9435,-62.15436 26.6807,-44.38994 52.438,-87.60491 47.9766,-87.15063 -2.2308,0.22714 -9.7841,11.14708 -19.9488,27.27789 -10.1646,16.13082 -22.9469,37.47251 -35.6099,58.54317 -25.326,42.14131 -50.1959,83.19847 -52.0359,79.31615 -1.84,-3.88233 23.0485,-45.00986 46.8558,-84.64408 23.8073,-39.63422 46.5465,-77.77512 41.1089,-75.68419 -5.4376,2.09094 -28.196,40.23824 -50.2506,76.95013 -22.0546,36.71189 -43.3932,71.98836 -45.3765,68.33762 -1.9833,-3.65075 19.696,-39.52903 39.5425,-72.5786 19.8465,-33.04956 37.8827,-63.27039 29.1138,-55.60624 -8.7689,7.66415 -26.8437,37.88967 -43.3324,65.32256 -16.4888,27.43289 -31.3754,52.07314 -33.4488,48.56675 -2.0735,-3.50639 8.3464,-20.77327 17.2526,-35.57276 8.9062,-14.79948 16.3079,-27.13157 8.2954,-20.76835 -8.0125,6.36321 -15.46,18.75109 -21.4147,28.63857 -5.9546,9.88748 -10.4114,17.27456 -12.4081,13.63618 -3.9932,-7.27677 18.4798,-30.6884 6.5755,-24.83237 -11.9042,5.85603 -11.243,18.67453 -15.2108,11.34617 -3.9678,-7.32836 -1.7484,-4.05588 -1.7484,-4.05588"
       id="path80222"
       inkscape:connector-curvature="0"
       inkscape:path-effect="#path-effect80108-8"
       inkscape:original-d="m 2630.0996,224.59733 c -34.6758,0.49884 -63.6552,25.42149 -79.192,54.85357 -17.4037,23.25441 -42.3067,40.39228 -69.5532,49.95943 2.2795,7.65046 9.6068,12.69599 12.2584,20.34607 22.4212,36.46828 45.3465,78.48496 38.0116,122.82956 -8.403,49.17113 -46.2187,85.00821 -70.6276,126.22693 -19.9845,41.18295 -7.1876,95.31618 29.9597,122.52945 42.0899,34.12007 111.994,33.2717 147.789,-9.94226 18.7253,-22.69719 35.1751,-47.42869 57.5118,-66.75113 39.1684,-38.21281 85.0749,-68.74965 126.5197,-104.31625 16.1245,-24.95237 6.7742,-57.04772 -6.9822,-80.75014 -28.0694,-59.57069 -67.8678,-116.35705 -73.8279,-183.66872 -2.712,-16.94201 -4.5546,-34.00532 -6.6703,-51.02843 -35.0646,0.62435 -70.1312,-0.57579 -105.197,-0.28808 z" />
    <path
       style="fill:none;stroke:#ff0000;stroke-width:3.99999976;stroke-linecap:butt;stroke-linejoin:miter;stroke-miterlimit:4;stroke-opacity:1;stroke-dasharray:none;display:inline"
       d="m 303.93106,76.084541 c -4.3516,-108.678556 37.4736,-37.174055 3.7193,2.803158"
       id="path80142"
       inkscape:connector-curvature="0" />
    <path
       inkscape:connector-curvature="0"
       id="path80196"
       d="m 1103.9311,76.084541 c -4.3516,-108.678556 37.4736,-37.174055 3.7193,2.803158"
       style="fill:none;stroke:#ff0000;stroke-width:3.99999976;stroke-linecap:butt;stroke-linejoin:miter;stroke-miterlimit:4;stroke-opacity:1;stroke-dasharray:none;display:inline" />
    <path
       style="fill:none;stroke:#ff0000;stroke-width:3.99999976;stroke-linecap:butt;stroke-linejoin:miter;stroke-miterlimit:4;stroke-opacity:1;stroke-dasharray:none;display:inline"
       d="m 1903.9311,76.084541 c -4.3516,-108.678556 37.4736,-37.174055 3.7193,2.803158"
       id="path80210"
       inkscape:connector-curvature="0" />
    <path
       inkscape:connector-curvature="0"
       id="path80224"
       d="m 2703.9311,76.084541 c -4.3516,-108.678556 37.4736,-37.174055 3.7193,2.803158"
       style="fill:none;stroke:#ff0000;stroke-width:3.99999976;stroke-linecap:butt;stroke-linejoin:miter;stroke-miterlimit:4;stroke-opacity:1;stroke-dasharray:none;display:inline" />
  </g>
</svg>
