<?xml version="1.0" encoding="UTF-8" standalone="no"?>
<!-- Created with Inkscape (http://www.inkscape.org/) -->

<svg
   xmlns:dc="http://purl.org/dc/elements/1.1/"
   xmlns:cc="http://creativecommons.org/ns#"
   xmlns:rdf="http://www.w3.org/1999/02/22-rdf-syntax-ns#"
   xmlns:svg="http://www.w3.org/2000/svg"
   xmlns="http://www.w3.org/2000/svg"
   xmlns:sodipodi="http://sodipodi.sourceforge.net/DTD/sodipodi-0.dtd"
   xmlns:inkscape="http://www.inkscape.org/namespaces/inkscape"
   width="3200"
   height="800"
   id="svg79524"
   version="1.1"
   inkscape:version="0.48.1 r9760"
   sodipodi:docname="stockings_outline.svg">
  <sodipodi:namedview
     id="base"
     pagecolor="#ffffff"
     bordercolor="#666666"
     borderopacity="1.0"
     inkscape:pageopacity="0.0"
     inkscape:pageshadow="2"
     inkscape:zoom="0.3953125"
     inkscape:cx="1293.913"
     inkscape:cy="400"
     inkscape:document-units="px"
     inkscape:current-layer="layer7"
     showgrid="false"
     inkscape:window-width="1676"
     inkscape:window-height="1006"
     inkscape:window-x="0"
     inkscape:window-y="0"
     inkscape:window-maximized="1" />
  <defs
     id="defs79526">
    <inkscape:path-effect
       effect="rough_hatches"
       id="path-effect3375"
       is_visible="true"
       direction="1841.4432,477.35033 , 30.519031,18.642058"
       dist_rdm="0;1"
       growth="0"
       do_bend="true"
       bender="1841.4432,485.03246 , 7.682126,0"
       bottom_edge_variation="0;1"
       top_edge_variation="0;1"
       bottom_tgt_variation="0;1"
       top_tgt_variation="0;1"
       scale_bf="2"
       scale_bb="2"
       scale_tf="2"
       scale_tb="2"
       top_smth_variation="0;1"
       bottom_smth_variation="0;1"
       fat_output="false"
       stroke_width_top="1"
       stroke_width_bottom="1"
       front_thickness="1"
       back_thickness="0.25" />
    <inkscape:path-effect
       effect="rough_hatches"
       id="path-effect3367"
       is_visible="true"
       direction="1041.4432,477.35033 , 30.519031,18.642058"
       dist_rdm="0;1"
       growth="0"
       do_bend="true"
       bender="1041.4432,485.03246 , 7.682126,0"
       bottom_edge_variation="0;1"
       top_edge_variation="0;1"
       bottom_tgt_variation="0;1"
       top_tgt_variation="0;1"
       scale_bf="2"
       scale_bb="2"
       scale_tf="2"
       scale_tb="2"
       top_smth_variation="0;1"
       bottom_smth_variation="0;1"
       fat_output="false"
       stroke_width_top="1"
       stroke_width_bottom="1"
       front_thickness="1"
       back_thickness="0.25" />
    <inkscape:path-effect
       effect="rough_hatches"
       id="path-effect3359"
       is_visible="true"
       direction="241.44316,477.35033 , 30.519031,18.642058"
       dist_rdm="0;1"
       growth="0"
       do_bend="true"
       bender="241.44316,485.03246 , 7.682126,0"
       bottom_edge_variation="0;1"
       top_edge_variation="0;1"
       bottom_tgt_variation="0;1"
       top_tgt_variation="0;1"
       scale_bf="2"
       scale_bb="2"
       scale_tf="2"
       scale_tb="2"
       top_smth_variation="0;1"
       bottom_smth_variation="0;1"
       fat_output="false"
       stroke_width_top="1"
       stroke_width_bottom="1"
       front_thickness="1"
       back_thickness="0.25" />
    <inkscape:path-effect
       back_thickness="0.25"
       front_thickness="1"
       stroke_width_bottom="1"
       stroke_width_top="1"
       fat_output="false"
       bottom_smth_variation="0;1"
       top_smth_variation="0;1"
       scale_tb="2"
       scale_tf="2"
       scale_bb="2"
       scale_bf="2"
       top_tgt_variation="0;1"
       bottom_tgt_variation="0;1"
       top_edge_variation="0;1"
       bottom_edge_variation="0;1"
       bender="2641.4432,485.03246 , 7.682126,0"
       do_bend="true"
       growth="0"
       dist_rdm="0;1"
       direction="2641.4432,477.35033 , 30.519031,18.642058"
       is_visible="true"
       id="path-effect80108"
       effect="rough_hatches" />
    <inkscape:path-effect
       back_thickness="0.25"
       front_thickness="1"
       stroke_width_bottom="1"
       stroke_width_top="1"
       fat_output="false"
       bottom_smth_variation="0;1"
       top_smth_variation="0;1"
       scale_tb="2"
       scale_tf="2"
       scale_bb="2"
       scale_bf="2"
       top_tgt_variation="0;1"
       bottom_tgt_variation="0;1"
       top_edge_variation="0;1"
       bottom_edge_variation="0;1"
       bender="2641.4432,485.03246 , 7.682126,0"
       do_bend="true"
       growth="0"
       dist_rdm="0;1"
       direction="2641.4432,477.35033 , 30.519031,18.642058"
       is_visible="true"
       id="path-effect80108-8"
       effect="rough_hatches" />
    <inkscape:path-effect
       effect="rough_hatches"
       id="path-effect3375-0"
       is_visible="true"
       direction="1841.4432,477.35033 , 30.519031,18.642058"
       dist_rdm="0;1"
       growth="0"
       do_bend="true"
       bender="1841.4432,485.03246 , 7.682126,0"
       bottom_edge_variation="0;1"
       top_edge_variation="0;1"
       bottom_tgt_variation="0;1"
       top_tgt_variation="0;1"
       scale_bf="2"
       scale_bb="2"
       scale_tf="2"
       scale_tb="2"
       top_smth_variation="0;1"
       bottom_smth_variation="0;1"
       fat_output="false"
       stroke_width_top="1"
       stroke_width_bottom="1"
       front_thickness="1"
       back_thickness="0.25" />
    <inkscape:path-effect
       effect="rough_hatches"
       id="path-effect3367-4"
       is_visible="true"
       direction="1041.4432,477.35033 , 30.519031,18.642058"
       dist_rdm="0;1"
       growth="0"
       do_bend="true"
       bender="1041.4432,485.03246 , 7.682126,0"
       bottom_edge_variation="0;1"
       top_edge_variation="0;1"
       bottom_tgt_variation="0;1"
       top_tgt_variation="0;1"
       scale_bf="2"
       scale_bb="2"
       scale_tf="2"
       scale_tb="2"
       top_smth_variation="0;1"
       bottom_smth_variation="0;1"
       fat_output="false"
       stroke_width_top="1"
       stroke_width_bottom="1"
       front_thickness="1"
       back_thickness="0.25" />
    <inkscape:path-effect
       effect="rough_hatches"
       id="path-effect3359-6"
       is_visible="true"
       direction="241.44316,477.35033 , 30.519031,18.642058"
       dist_rdm="0;1"
       growth="0"
       do_bend="true"
       bender="241.44316,485.03246 , 7.682126,0"
       bottom_edge_variation="0;1"
       top_edge_variation="0;1"
       bottom_tgt_variation="0;1"
       top_tgt_variation="0;1"
       scale_bf="2"
       scale_bb="2"
       scale_tf="2"
       scale_tb="2"
       top_smth_variation="0;1"
       bottom_smth_variation="0;1"
       fat_output="false"
       stroke_width_top="1"
       stroke_width_bottom="1"
       front_thickness="1"
       back_thickness="0.25" />
  </defs>
  <metadata
     id="metadata79529">
    <rdf:RDF>
      <cc:Work
         rdf:about="">
        <dc:format>image/svg+xml</dc:format>
        <dc:type
           rdf:resource="http://purl.org/dc/dcmitype/StillImage" />
        <dc:title></dc:title>
      </cc:Work>
    </rdf:RDF>
  </metadata>
  <g
     id="1-default"
     inkscape:groupmode="layer"
     inkscape:label="1-black"
     style="display:inline">
    <path
       class="fil8"
       d="m 22.75588,182.70772 c 85.29848,-31.47918 171.10458,-67.02019 257.75698,-104.592113 16.755,-7.277447 36.3872,1.353944 43.3261,18.278236 l 30.8023,75.820817 c 6.0927,15.06262 0.1693,32.3254 -13.201,40.6183 -94.2683,2.53864 -148.2567,-19.63218 -187.5211,40.11057 -39.4336,59.74274 -56.5271,47.04951 -82.92905,68.71262 -14.89334,2.03091 -29.95599,-5.75427 -35.71021,-19.97067 L 4.47765,225.86466 c -6.93896,-16.92429 1.18474,-37.0642 18.27823,-43.32617 z"
       id="path53"
       inkscape:connector-curvature="0"
       style="fill:none;stroke:#000000;stroke-width:4;stroke-miterlimit:4;stroke-opacity:1;stroke-dasharray:none;display:inline" />
    <path
       class="fil9"
       d="m 282.37456,82.685166 c 11.17,-4.400307 9.4776,-1.184692 -4.0618,6.600482 -41.1262,23.186272 -173.9818,89.529492 -245.74081,105.607572 -32.49462003,7.27743 -13.87791,-2.20016 24.87872,-17.77051 38.41819,-15.40111 95.79149,-38.41814 142.50249,-57.88107 42.6493,-17.77051 76.4979,-34.187076 82.5906,-36.556474 z"
       id="path55"
       inkscape:connector-curvature="0"
       style="fill:none;stroke:#000000;stroke-width:4;stroke-miterlimit:4;stroke-opacity:1;stroke-dasharray:none;display:inline" />
    <path
       style="fill:none;stroke:#000000;stroke-width:4;stroke-miterlimit:4;stroke-opacity:1;stroke-dasharray:none;display:inline"
       inkscape:connector-curvature="0"
       id="path80186"
       d="m 822.75588,182.70772 c 85.29848,-31.47918 171.10458,-67.02019 257.75702,-104.592113 16.755,-7.277447 36.3872,1.353944 43.3261,18.278236 l 30.8023,75.820817 c 6.0927,15.06262 0.1693,32.3254 -13.201,40.6183 -94.2683,2.53864 -148.25674,-19.63218 -187.52114,40.11057 -39.4336,59.74274 -56.5271,47.04951 -82.92905,68.71262 -14.89334,2.03091 -29.95599,-5.75427 -35.71021,-19.97067 l -30.80225,-75.82082 c -6.93896,-16.92429 1.18474,-37.0642 18.27823,-43.32617 z"
       class="fil8" />
    <path
       style="fill:none;stroke:#000000;stroke-width:4;stroke-miterlimit:4;stroke-opacity:1;stroke-dasharray:none;display:inline"
       inkscape:connector-curvature="0"
       id="path80188"
       d="m 1082.3746,82.685166 c 11.17,-4.400307 9.4776,-1.184692 -4.0618,6.600482 -41.1262,23.186272 -173.98184,89.529492 -245.74085,105.607572 -32.49462,7.27743 -13.87791,-2.20016 24.87872,-17.77051 38.41819,-15.40111 95.79149,-38.41814 142.50249,-57.88107 42.64934,-17.77051 76.49794,-34.187076 82.59064,-36.556474 z"
       class="fil9" />
    <path
       class="fil8"
       d="m 1622.7559,182.70772 c 85.2985,-31.47918 171.1046,-67.02019 257.757,-104.592113 16.755,-7.277447 36.3872,1.353944 43.3261,18.278236 l 30.8023,75.820817 c 6.0927,15.06262 0.1693,32.3254 -13.201,40.6183 -94.2683,2.53864 -148.2567,-19.63218 -187.5211,40.11057 -39.4336,59.74274 -56.5271,47.04951 -82.9291,68.71262 -14.8933,2.03091 -29.956,-5.75427 -35.7102,-19.97067 l -30.8022,-75.82082 c -6.939,-16.92429 1.1847,-37.0642 18.2782,-43.32617 z"
       id="path80200"
       inkscape:connector-curvature="0"
       style="fill:none;stroke:#000000;stroke-width:4;stroke-miterlimit:4;stroke-opacity:1;stroke-dasharray:none;display:inline" />
    <path
       class="fil9"
       d="m 1882.3746,82.685166 c 11.17,-4.400307 9.4776,-1.184692 -4.0618,6.600482 -41.1262,23.186272 -173.9818,89.529492 -245.7408,105.607572 -32.4947,7.27743 -13.878,-2.20016 24.8787,-17.77051 38.4182,-15.40111 95.7915,-38.41814 142.5025,-57.88107 42.6493,-17.77051 76.4979,-34.187076 82.5906,-36.556474 z"
       id="path80202"
       inkscape:connector-curvature="0"
       style="fill:none;stroke:#000000;stroke-width:4;stroke-miterlimit:4;stroke-opacity:1;stroke-dasharray:none;display:inline" />
    <path
       style="fill:none;stroke:#000000;stroke-width:4;stroke-miterlimit:4;stroke-opacity:1;stroke-dasharray:none;display:inline"
       inkscape:connector-curvature="0"
       id="path80214"
       d="m 2422.7559,182.70772 c 85.2985,-31.47918 171.1046,-67.02019 257.757,-104.592113 16.755,-7.277447 36.3872,1.353944 43.3261,18.278236 l 30.8023,75.820817 c 6.0927,15.06262 0.1693,32.3254 -13.201,40.6183 -94.2683,2.53864 -148.2567,-19.63218 -187.5211,40.11057 -39.4336,59.74274 -56.5271,47.04951 -82.929,68.71262 -14.8934,2.03091 -29.956,-5.75427 -35.7103,-19.97067 l -30.8022,-75.82082 c -6.939,-16.92429 1.1847,-37.0642 18.2782,-43.32617 z"
       class="fil8" />
    <path
       style="fill:none;stroke:#000000;stroke-width:4;stroke-miterlimit:4;stroke-opacity:1;stroke-dasharray:none;display:inline"
       inkscape:connector-curvature="0"
       id="path80216"
       d="m 2682.3746,82.685166 c 11.17,-4.400307 9.4776,-1.184692 -4.0618,6.600482 -41.1262,23.186272 -173.9818,89.529492 -245.7408,105.607572 -32.4946,7.27743 -13.8779,-2.20016 24.8787,-17.77051 38.4182,-15.40111 95.7915,-38.41814 142.5025,-57.88107 42.6493,-17.77051 76.4979,-34.187076 82.5906,-36.556474 z"
       class="fil9" />
    <path
       style="fill:none;stroke:#000000;stroke-width:4;stroke-miterlimit:4;stroke-opacity:1;stroke-dasharray:none;display:inline"
       d="m 343.68486,215.47839 c -38.2965,1.03133 -70.5093,-0.19505 -97.202,-0.171 l -4e-4,2e-5 c -17.1392,0.0154 -32.2185,1.32171 -45.7566,5.76159 -0.1741,0.0561 -0.3546,0.0868 -0.5282,0.14397 -1.7949,0.60117 -3.5888,1.25037 -5.3294,1.96854 -0.8486,0.35009 -1.6607,0.72484 -2.4967,1.10431 -0.078,0.0353 -0.1613,0.0604 -0.2402,0.096 -0.5316,0.24339 -1.0578,0.51254 -1.5843,0.76822 -0.7736,0.37116 -1.5418,0.7539 -2.3047,1.15231 -0.7579,0.39576 -1.5092,0.77687 -2.2567,1.20034 -11.1526,6.31824 -21.1731,15.75167 -42.2941,45.31942 -21.121,29.56777 -36.0634,33.84507 -51.93252,41.46565 -0.36659,0.17257 -0.73717,0.35207 -1.10422,0.52814 -0.54421,0.26591 -1.08687,0.54104 -1.63246,0.81623 -1.14555,0.56751 -2.29787,1.1497 -3.45695,1.77649 -4.22502,2.28446 -6.74875,0.82875 -11.35818,4.59217 l -7.53017,1.34636"
       id="path80064"
       inkscape:connector-curvature="0"
       sodipodi:nodetypes="cccccscccssccccscc" />
    <path
       sodipodi:nodetypes="cccccscccssccccscc"
       inkscape:connector-curvature="0"
       id="path3571"
       d="m 1143.6849,215.47839 c -38.2965,1.03133 -70.5093,-0.19505 -97.202,-0.171 l -4e-4,2e-5 c -17.1392,0.0154 -32.2185,1.32171 -45.7566,5.76159 -0.1741,0.0561 -0.3546,0.0868 -0.5282,0.14397 -1.79494,0.60117 -3.58884,1.25037 -5.32944,1.96854 -0.8486,0.35009 -1.6607,0.72484 -2.4967,1.10431 -0.078,0.0353 -0.1613,0.0604 -0.2402,0.096 -0.5316,0.24339 -1.0578,0.51254 -1.5843,0.76822 -0.7736,0.37116 -1.5418,0.7539 -2.3047,1.15231 -0.7579,0.39576 -1.5092,0.77687 -2.2567,1.20034 -11.1526,6.31824 -21.1731,15.75167 -42.2941,45.31942 -21.121,29.56777 -36.0634,33.84507 -51.93252,41.46565 -0.36659,0.17257 -0.73717,0.35207 -1.10422,0.52814 -0.54421,0.26591 -1.08687,0.54104 -1.63246,0.81623 -1.14555,0.56751 -2.29787,1.1497 -3.45695,1.77649 -4.22502,2.28446 -6.74875,0.82875 -11.35818,4.59217 l -7.53017,1.34636"
       style="fill:none;stroke:#000000;stroke-width:4;stroke-miterlimit:4;stroke-opacity:1;stroke-dasharray:none;display:inline" />
    <path
       style="fill:none;stroke:#000000;stroke-width:4;stroke-miterlimit:4;stroke-opacity:1;stroke-dasharray:none;display:inline"
       d="m 1943.6849,215.47839 c -38.2965,1.03133 -70.5093,-0.19505 -97.202,-0.171 l -4e-4,2e-5 c -17.1392,0.0154 -32.2185,1.32171 -45.7566,5.76159 -0.1741,0.0561 -0.3546,0.0868 -0.5282,0.14397 -1.7949,0.60117 -3.5888,1.25037 -5.3294,1.96854 -0.8486,0.35009 -1.6607,0.72484 -2.4967,1.10431 -0.078,0.0353 -0.1613,0.0604 -0.2402,0.096 -0.5316,0.24339 -1.0578,0.51254 -1.5843,0.76822 -0.7736,0.37116 -1.5418,0.7539 -2.3047,1.15231 -0.7579,0.39576 -1.5092,0.77687 -2.2567,1.20034 -11.1526,6.31824 -21.1731,15.75167 -42.2941,45.31942 -21.121,29.56777 -36.0634,33.84507 -51.9326,41.46565 -0.3665,0.17257 -0.7371,0.35207 -1.1042,0.52814 -0.5442,0.26591 -1.0868,0.54104 -1.6324,0.81623 -1.1456,0.56751 -2.2979,1.1497 -3.457,1.77649 -4.225,2.28446 -6.7487,0.82875 -11.3582,4.59217 l -7.5301,1.34636"
       id="path3573"
       inkscape:connector-curvature="0"
       sodipodi:nodetypes="cccccscccssccccscc" />
    <path
       sodipodi:nodetypes="cccccscccssccccscc"
       inkscape:connector-curvature="0"
       id="path3575"
       d="m 2743.6849,215.47839 c -38.2965,1.03133 -70.5093,-0.19505 -97.202,-0.171 l -4e-4,2e-5 c -17.1392,0.0154 -32.2185,1.32171 -45.7566,5.76159 -0.1741,0.0561 -0.3546,0.0868 -0.5282,0.14397 -1.7949,0.60117 -3.5888,1.25037 -5.3294,1.96854 -0.8486,0.35009 -1.6607,0.72484 -2.4967,1.10431 -0.078,0.0353 -0.1613,0.0604 -0.2402,0.096 -0.5316,0.24339 -1.0578,0.51254 -1.5843,0.76822 -0.7736,0.37116 -1.5418,0.7539 -2.3047,1.15231 -0.7579,0.39576 -1.5092,0.77687 -2.2567,1.20034 -11.1526,6.31824 -21.1731,15.75167 -42.2941,45.31942 -21.121,29.56777 -36.0634,33.84507 -51.9326,41.46565 -0.3665,0.17257 -0.7371,0.35207 -1.1042,0.52814 -0.5442,0.26591 -1.0868,0.54104 -1.6324,0.81623 -1.1456,0.56751 -2.2979,1.1497 -3.457,1.77649 -4.225,2.28446 -6.7487,0.82875 -11.3582,4.59217 l -7.5301,1.34636"
       style="fill:none;stroke:#000000;stroke-width:4;stroke-miterlimit:4;stroke-opacity:1;stroke-dasharray:none;display:inline" />
  </g>
  <g
     inkscape:label="2-Red"
     id="layer7"
     inkscape:groupmode="layer"
     style="display:inline">
    <path
       inkscape:connector-curvature="0"
       id="path80066"
       d="m 234.75686,215.92199 c -34.7401,-1.07054 -67.6339,19.94235 -83.6007,50.2507 -17.6504,25.04874 -42.2054,46.31285 -72.29848,53.93813 -5.07235,2.49792 -5.53943,9.53985 -1.0652,13.02243 22.67438,36.86636 48.28278,75.84926 49.55858,120.35848 -1.9643,47.95679 -34.73469,86.53099 -61.98503,123.2021 -22.52523,31.99608 -27.52721,77.19041 -7.42662,111.87541 25.60637,48.537 88.21695,73.34923 139.99125,54.63467 25.7102,-8.41886 46.8459,-27.14077 60.4967,-50.07786 45.4189,-58.83848 107.6948,-101.81678 165.8379,-147.20874 19.474,-22.71691 15.3263,-57.04518 1.5364,-81.57458 -25.645,-60.17039 -68.0475,-114.63297 -75.8676,-181.00231 -4.1073,-22.12127 -6.2984,-44.73418 -9.1159,-67.13036 -35.3531,0.65031 -70.707,-0.5247 -106.0613,-0.28807 z"
       style="fill:none;stroke:#ff0000;stroke-width:4;stroke-miterlimit:4;stroke-opacity:1;stroke-dasharray:none" />
    <path
       style="fill:none;stroke:#ff0000;stroke-width:4;stroke-miterlimit:4;stroke-opacity:1;stroke-dasharray:none"
       d="m 1034.7569,215.92199 c -34.7401,-1.07054 -67.63394,19.94235 -83.60074,50.2507 -17.6504,25.04874 -42.2054,46.31285 -72.29848,53.93813 -5.07235,2.49792 -5.53943,9.53985 -1.0652,13.02243 22.67438,36.86636 48.28278,75.84926 49.55858,120.35848 -1.9643,47.95679 -34.73469,86.53099 -61.98503,123.2021 -22.52523,31.99608 -27.52721,77.19041 -7.42662,111.87541 25.60637,48.537 88.21695,73.34923 139.99125,54.63467 25.71024,-8.41886 46.84594,-27.14077 60.49674,-50.07786 45.4189,-58.83848 107.6948,-101.81678 165.8379,-147.20874 19.474,-22.71691 15.3263,-57.04518 1.5364,-81.57458 -25.645,-60.17039 -68.0475,-114.63297 -75.8676,-181.00231 -4.1073,-22.12127 -6.2984,-44.73418 -9.1159,-67.13036 -35.3531,0.65031 -70.707,-0.5247 -106.0613,-0.28807 z"
       id="path80192"
       inkscape:connector-curvature="0" />
    <path
       inkscape:connector-curvature="0"
       id="path80206"
       d="m 1834.7569,215.92199 c -34.7401,-1.07054 -67.6339,19.94235 -83.6007,50.2507 -17.6504,25.04874 -42.2054,46.31285 -72.2985,53.93813 -5.0724,2.49792 -5.5395,9.53985 -1.0652,13.02243 22.6744,36.86636 48.2828,75.84926 49.5586,120.35848 -1.9643,47.95679 -34.7347,86.53099 -61.9851,123.2021 -22.5252,31.99608 -27.5272,77.19041 -7.4266,111.87541 25.6064,48.537 88.217,73.34923 139.9913,54.63467 25.7102,-8.41886 46.8459,-27.14077 60.4967,-50.07786 45.4189,-58.83848 107.6948,-101.81678 165.8379,-147.20874 19.474,-22.71691 15.3263,-57.04518 1.5364,-81.57458 -25.645,-60.17039 -68.0475,-114.63297 -75.8676,-181.00231 -4.1073,-22.12127 -6.2984,-44.73418 -9.1159,-67.13036 -35.3531,0.65031 -70.707,-0.5247 -106.0613,-0.28807 z"
       style="fill:none;stroke:#ff0000;stroke-width:4;stroke-miterlimit:4;stroke-opacity:1;stroke-dasharray:none" />
    <path
       style="fill:none;stroke:#ff0000;stroke-width:4;stroke-miterlimit:4;stroke-opacity:1;stroke-dasharray:none"
       d="m 2634.7569,215.92199 c -34.7401,-1.07054 -67.6339,19.94235 -83.6007,50.2507 -17.6504,25.04874 -42.2054,46.31285 -72.2985,53.93813 -5.0723,2.49792 -5.5394,9.53985 -1.0652,13.02243 22.6744,36.86636 48.2828,75.84926 49.5586,120.35848 -1.9643,47.95679 -34.7347,86.53099 -61.985,123.2021 -22.5253,31.99608 -27.5272,77.19041 -7.4267,111.87541 25.6064,48.537 88.217,73.34923 139.9913,54.63467 25.7102,-8.41886 46.8459,-27.14077 60.4967,-50.07786 45.4189,-58.83848 107.6948,-101.81678 165.8379,-147.20874 19.474,-22.71691 15.3263,-57.04518 1.5364,-81.57458 -25.645,-60.17039 -68.0475,-114.63297 -75.8676,-181.00231 -4.1073,-22.12127 -6.2984,-44.73418 -9.1159,-67.13036 -35.3531,0.65031 -70.707,-0.5247 -106.0613,-0.28807 z"
       id="path80220"
       inkscape:connector-curvature="0" />
    <path
       style="fill:none;stroke:#ff0000;stroke-width:3.99999976;stroke-linecap:butt;stroke-linejoin:miter;stroke-miterlimit:4;stroke-opacity:1;stroke-dasharray:none;display:inline"
       d="m 303.93106,76.084541 c -4.3516,-108.678556 37.4736,-37.174055 3.7193,2.803158"
       id="path80142"
       inkscape:connector-curvature="0" />
    <path
       inkscape:connector-curvature="0"
       id="path80196"
       d="m 1103.9311,76.084541 c -4.3516,-108.678556 37.4736,-37.174055 3.7193,2.803158"
       style="fill:none;stroke:#ff0000;stroke-width:3.99999976;stroke-linecap:butt;stroke-linejoin:miter;stroke-miterlimit:4;stroke-opacity:1;stroke-dasharray:none;display:inline" />
    <path
       style="fill:none;stroke:#ff0000;stroke-width:3.99999976;stroke-linecap:butt;stroke-linejoin:miter;stroke-miterlimit:4;stroke-opacity:1;stroke-dasharray:none;display:inline"
       d="m 1903.9311,76.084541 c -4.3516,-108.678556 37.4736,-37.174055 3.7193,2.803158"
       id="path80210"
       inkscape:connector-curvature="0" />
    <path
       inkscape:connector-curvature="0"
       id="path80224"
       d="m 2703.9311,76.084541 c -4.3516,-108.678556 37.4736,-37.174055 3.7193,2.803158"
       style="fill:none;stroke:#ff0000;stroke-width:3.99999976;stroke-linecap:butt;stroke-linejoin:miter;stroke-miterlimit:4;stroke-opacity:1;stroke-dasharray:none;display:inline" />
  </g>
</svg>
