<?xml version="1.0" encoding="UTF-8" standalone="no"?>
<!-- Created with Inkscape (http://www.inkscape.org/) -->

<svg
   xmlns:dc="http://purl.org/dc/elements/1.1/"
   xmlns:cc="http://creativecommons.org/ns#"
   xmlns:rdf="http://www.w3.org/1999/02/22-rdf-syntax-ns#"
   xmlns:svg="http://www.w3.org/2000/svg"
   xmlns="http://www.w3.org/2000/svg"
   xmlns:sodipodi="http://sodipodi.sourceforge.net/DTD/sodipodi-0.dtd"
   xmlns:inkscape="http://www.inkscape.org/namespaces/inkscape"
   width="3200"
   height="800"
   id="svg3002"
   version="1.1"
   inkscape:version="0.48.1 r9760"
   sodipodi:docname="dove_circle_1_filled.svg">
  <sodipodi:namedview
     id="base"
     pagecolor="#ffffff"
     bordercolor="#666666"
     borderopacity="1.0"
     inkscape:pageopacity="0.0"
     inkscape:pageshadow="2"
     inkscape:zoom="0.78897531"
     inkscape:cx="1433.6266"
     inkscape:cy="354.77753"
     inkscape:document-units="px"
     inkscape:current-layer="1-default"
     showgrid="false"
     inkscape:window-width="1676"
     inkscape:window-height="1006"
     inkscape:window-x="0"
     inkscape:window-y="0"
     inkscape:window-maximized="1" />
  <defs
     id="defs3004" />
  <metadata
     id="metadata3007">
    <rdf:RDF>
      <cc:Work
         rdf:about="">
        <dc:format>image/svg+xml</dc:format>
        <dc:type
           rdf:resource="http://purl.org/dc/dcmitype/StillImage" />
        <dc:title />
      </cc:Work>
    </rdf:RDF>
  </metadata>
  <g
     id="1-default"
     inkscape:groupmode="layer"
     inkscape:label="1-Blue">
    <path
       inkscape:connector-curvature="0"
       style="fill:none;stroke:#0000ff;stroke-width:4;stroke-miterlimit:4;stroke-opacity:1;stroke-dasharray:none"
       d="m 1508.0643,54.150513 -120.2696,0 m 10.4902,14 115.0205,0 m 77.6131,14 -31.6154,0 m -150.849,0 109.6233,0 m 98.8417,14 -58.0039,0 m -140.5259,0 104.4601,0 m 115.7696,13.999997 -80.0918,0 m -130.4432,0 99.5374,0 m 116.8435,14 -86.3256,0 m -120.7195,0 94.9736,0 m 109.7241,14 -84.3661,0 m -111.297,0 90.711,0 m 151.3671,14 -18.1137,0 m -113.0553,0 82.4067,0 m -97.8328,0 -86.7295,0 m 207.9128,14 38.5198,0 m -64.2177,0 -80.4472,0 m -93.3149,0 83.0487,0 m 166.7332,14 -57.62,0 m -99.2349,0 78.4878,0 m -83.5941,0 -79.7916,0 m 176.8347,14 75.5736,0 m -91.3699,0 -153.409,0 m 161.9072,14 83.6625,0 m -94.5081,0 -143.7553,0 m -128.5495,0 30.8786,0 m -237.9135,0 -10.536,0 m 493.4232,14 80.7299,0 m -86.6247,0 -134.6577,0 m -158.4623,0 75.9073,0 m -252.3004,0 -26.6222,0 m 598.7776,14 19.0706,0 m -45.319,0 -77.7972,0 m -127.0237,0 126.0796,0 m -202.7568,0 -40.6175,0 m -60.6536,0 38.1836,0 m -193.748,0 -41.9342,0 m 589.6536,14 42.8833,0 m -62.4999,0 -188.9674,0 m -122.5874,0 50.1714,0 m -73.3121,0 -81.9138,0 m -160.3599,0 56.5482,0 m 589.1763,14 -66.0012,0 m -186.8274,0 173.8426,0 m -242.6842,0 -138.2026,0 m -192.0258,0 70.993,0 m 586.4589,14 -88.4171,0 m -165.9667,0 159.6137,0 m -224.2487,0 -129.9575,0 m -213.9413,0 85.7937,0 m 581.9349,14 -256.3339,0 m -195.9427,0 136.6299,0 m -255.6721,0 -101.2109,0 m 417.5595,14 259.1487,0 m -311.5721,0 -143.646,0 m -225.6535,0 117.842,0 m 552.5668,14 -249.1482,0 m -195.0894,0 151.5169,0 m -245.8155,0 -116.4575,0 m 665.5164,14 6.314,0 m -34.4181,0 -232.4682,0 m -195.0316,0 161.1457,0 m -239.1477,0 -116.2263,0 m -37.8002,0 6.9635,0 m 689.3619,14 -46.9491,0 m -223.5967,0 216.1673,0 m -239.1242,0 -173.3975,0 m -175.9409,0 115.5581,0 m -139.6885,0 -31.7214,0 m 225.0677,14 475.4115,0 m -513.812,0 -115.1313,0 m -73.302,0 55.878,0 m 647.6173,14 -614.5091,0 m -90.2014,0 79.4836,0 m 625.9159,14 -599.514,0 m -106.5606,0 102.5491,0 m 600.6472,14 -703.1946,0 m 23.0265,14 669.269,0 m -11.123,14 -629.6006,0 m 28.5455,14 589.1767,0 m -13.0668,14 -651.1613,0 m 2.6949,14 633.4947,0 m -17.6852,14 -612.5297,0 m 3.8876,14 586.3418,0 m -31.888,14 -549.9223,0 m 76.565,14 373.0402,0 m 18.1486,14 -422.7681,0 m -27.0389,14 468.1273,0 m 19.0704,14 -479.7925,0 m 268.3849,14 232.0938,0 m -240.8838,0 -251.3762,0 m 266.9618,14 252.2186,0 m -293.6529,0 -207.6555,0 m 255.8854,14 284.8749,0 m -367.5306,0 -137.1396,0 m 226.5909,14 288.8168,0 m -12.3957,14 -91.7946,0 m -177.8309,0 170.8031,0 m 85.0384,14 -53.6312,0 m -195.4147,0 178.7575,0 m 54.7605,14 -13.7238,0 m -212.9986,0 186.7119,0 m 14.7501,14 -194.6664,0 m 135.8236,14 45.6254,0 m -53.8164,0 -54.5421,0 m -66.2949,0 63.3429,0 m 87.3352,14 -3.4965,0 m -76.3059,0 52.4318,0 m -59.0556,0 -57.4564,0 m 68.661,14 45.6543,0 m -55.9499,0 -51.5698,0 m 66.4461,14 0.8418,0 m -14.8092,0 -45.6831,0 m -379.6281,-329.21266 0,-79.70458 m 0,128.57946 0,16.89897 m 14,-161.75457 0,-38.49455 m 0,63.52443 0,77.81708 m 0,101.57734 0,-59.92045 m 14,-215.5579 0,83.55076 m 0,97.21649 0,-75.92958 m 0,110.36849 0,60.96262 m 14,-180.12131 0,-121.75279 m 0,139.29673 0,74.04208 m 0,89.22571 0,-62.00479 m 0,91.6552 0,31.29454 m 14,-229.25998 0,-149.57721 m 0,163.37818 0,72.15459 m 0,83.0499 0,-63.04696 m 0,85.80034 0,52.56613 m 14,-231.82826 0,-135.86829 m 0,145.92629 0,70.26709 m 0,76.87409 0,-64.08914 m 0,79.94549 0,65.61522 m 14,-226.17404 0,-123.0498 m 0,129.36483 0,68.37959 m 0,70.69828 0,-65.13131 m 0,74.09064 0,77.4958 m 14,-219.35133 0,-113.4256 m 0,115.99766 0,131.01456 m 0,90.42543 0,-88.36312 m 14,-230.79008 0,322.92793 m 14,2.99439 0,-310.62589 m 14,13.50562 0,299.41987 m 14,1.62395 0,-288.46298 m 14,13.17064 0,276.35615 m 14,-0.0663 0,-263.49048 m 14,-114.98795 0,8.82887 m 0,368.02493 0,-254.15816 m 14,-123.76649 0,17.58845 m 0,357.69527 0,-252.3512 m 14,-127.22949 0,29.57415 m 0,346.47824 0,-261.39192 m 14,-129.68101 0,386.6405 m 14,-5.22767 0,-393.39788 m 14,-6.6837 0,31.62847 m 0,362.43444 0,-354.93523 m 14,-41.49278 0,24.30795 m 0,365.21555 0,-338.56541 m 14,-206.122856 0,1.474952 m 0,535.341804 0,-380.0875 m 14,-158.481211 0,21.930681 m 0,521.83233 0,-379.01973 m 14,-165.966004 0,42.552622 m 0,531.275332 0,-395.78227 m 14,-178.70562 0,63.41504 m 0,539.91507 0,-407.03732 m 14,-196.307312 0,84.582972 m 0,547.60388 0,-413.39282 m 14,-218.311827 0,106.412187 m 0,554.13468 0,-418.28322 m 14,-241.187524 0,129.104584 m 0,559.20838 0,-423.45374 m 14,-263.2408 0,153.32472 m 0,546.62864 0,-414.17279 m 14,-283.596952 0,180.596292 m 0,514.99368 0,-393.27863 m 14,-289.630123 0,206.083793 m 0,474.00455 0,-384.63089 m 14,-254.38459 0,617.97822 m 14,13.79583 0,-590.70119 m 14,41.07285 0,339.19674 m 0,205.85939 0,-202.16207 m 14,-458.978688 0,456.008338 m 0,199.83455 0,-186.04234 m 14,-463.869412 0,450.148742 m 0,171.3047 0,-146.7727 m 14,-467.932272 0,442.773312 m 0,111.21476 0,-75.54328 m 0,80.00561 0,67.05137 m 14,-184.11775 0,-433.866643 m 0,481.046113 0,73.46414 m 0,60.93673 0,-51.22584 m 14,-555.91106 0,423.24743 m 0,130.9923 0,-71.86631 m 0,86.82575 0,29.55909 m 14,-537.97039 0,-51.52779 m 0,104.04984 0,306.76228 m 0,142.20709 0,-71.47899 m 0,91.68699 0,6.99417 m 14,-173.55981 0,-329.46805 m 0,411.40022 0,72.46502 m 14,-382.49225 0,-128.22931 m 0,129.45943 0,221.55585 m 0,157.57263 0,-64.47871 m 14,-460.3088 0,125.271 m 0,235.45696 0,-226.69232 m 0,331.31197 0,46.70405 m 14,-405.93857 0,-92.0734 m 0,108.37257 0,230.51964 m 0,144.88188 0,-28.06959 m 14,-439.97261 0,57.1836 m 0,256.66957 0,-232.83588 m 0,362.85489 0,8.21814 m 14,-414.06464 0,-20.20768 m 0,51.5759 0,233.528 m 14,-132.01295 0,-113.13844 m 0,117.72967 0,114.70789 m 14,-130.44726 0,-96.45731 m 0,107.07332 0,105.33148 m 14,-127.09563 0,-55.24614 m 0,71.88692 0,94.13684 m 14,-121.92576 0,-2.49013 m 0,25.15569 0,81.64297"
       id="path3843" />
    <path
       d="m 1433.0283,12.059547 c -5.3738,0 -10.6995,0.276832 -16.0201,0.492935 -206.82,8.412245 -371.918,178.568948 -371.918,387.447528 0,208.87858 165.1058,379.03212 371.918,387.44752 6.6122,0.3352 13.2683,0.49294 19.9635,0.49294 5.3611,-0.0552 10.7137,-0.22399 16.0201,-0.49294 206.8122,-8.41224 371.918,-178.56894 371.918,-387.44752 0,-208.87858 -165.1058,-379.032128 -371.918,-387.447528 -6.6122,-0.335196 -13.2683,-0.492935 -19.9635,-0.492935 z"
       id="path2838"
       inkscape:connector-curvature="0"
       style="fill:none;stroke:#0000ff;stroke-width:4;stroke-miterlimit:4;stroke-opacity:1;stroke-dasharray:none" />
    <path
       style="fill:none;stroke:#0000ff;stroke-width:4;stroke-miterlimit:4;stroke-opacity:1;stroke-dasharray:none"
       inkscape:connector-curvature="0"
       id="path2861"
       d="m 1436.9717,46.762226 c -17.61,0 -34.8391,1.454594 -51.7582,3.943486 79.3903,104.100148 136.066,207.498358 133.0926,262.241838 -2.8349,52.16364 -4.0164,54.92487 -18.7315,42.88541 -14.7151,-12.03946 -59.6823,-97.07286 -71.7226,-113.13073 -12.0394,-16.05315 -29.7291,-41.84749 -62.8497,-36.23118 -33.1205,5.61703 -44.6481,39.43487 -56.6876,39.43487 -12.0394,0 -33.5196,2.71114 -33.5196,2.71114 l 44.0882,24.21301 c 0,0 3.9434,30.88144 3.9434,45.59616 0,14.71552 -1.9165,44.04638 -18.7315,50.03338 -22.8754,8.14409 -30.7434,-8.6315 -62.8497,-36.72332 -32.1055,-28.09261 -49.4024,-49.58067 -66.7932,-80.35248 -5.8262,-10.30827 -16.6187,-30.33172 -28.0974,-52.00512 -22.2586,32.1757 -39.154,68.26017 -49.7865,106.96312 l 103.2721,92.18294 -109.1873,-68.27121 c -4.5133,22.5386 -6.9011,45.88483 -6.9011,69.7508 0,2.30686 0.2027,4.60481 0.2461,6.90111 l 103.0196,50.52552 -98.0982,2.46468 c 3.4916,20.42252 8.6891,40.3324 15.5279,59.39836 l 89.9588,4.43643 -73.9403,32.77983 c 6.1528,12.41725 12.9393,24.44725 20.4572,35.98431 2.1769,1.31082 4.1739,2.59971 6.6546,3.94349 32.1055,17.39077 71.6705,27.67539 118.5491,29.57615 41.8696,-0.76819 92.6404,-20.33972 128.9047,-44.11815 l 82.0718,169.08092 c 13.8645,-1.56525 27.3363,-4.02417 40.6668,-7.14757 l -3.6966,-56.93448 17.4996,53.48314 c 15.5279,-4.31165 30.7616,-9.71912 45.3501,-16.02002 l -5.9152,-33.51963 29.0832,22.42897 c 14.7676,-7.70612 28.9428,-16.48535 42.3925,-26.1256 l -58.1665,-55.2088 74.6802,42.88541 c 20.2735,-16.39544 38.5066,-35.27291 54.7159,-55.70174 -39.9956,-10.14029 -67.6718,-21.283 -91.1892,-37.21705 -38.878,-26.33697 -70.6073,-53.83095 -74.4333,-54.96273 144.7338,13.50407 202.3403,-76.61011 242.0354,-126.68056 1e-4,-0.082 0,-0.16405 0,-0.24607 0,-23.27051 -2.3584,-46.01102 -6.6546,-68.02514 l -57.9204,21.19624 53.2371,-42.39248 c -7.8917,-30.30332 -19.8342,-58.96221 -34.9984,-85.52633 l -79.8556,66.29947 65.5604,-89.71431 c -15.2392,-22.43449 -33.1276,-43.0329 -52.991,-61.37011 l -51.2653,98.34266 20.7033,-123.47844 C 1619.7192,96.071578 1590.7149,80.258198 1559.6741,68.759781 L 1556.2038,194.0049 1508.5665,54.247751 c -23.1545,-4.775798 -47.1546,-7.394036 -71.7225,-7.394036 z m -65.8089,183.174934 c 7.3882,0 13.3093,6.16761 13.3093,13.55613 0,7.38812 -5.9211,13.30927 -13.3093,13.30927 -7.3881,0 -13.5561,-5.92115 -13.5561,-13.30927 0,-7.38812 6.1676,-13.55613 13.5561,-13.55613 z"
       sodipodi:nodetypes="cccsccsccscccccccscccccccsccccccccccccccccsccccccccccccccsssss" />
    <path
       style="fill:none;stroke:#0000ff;stroke-width:4;stroke-miterlimit:4;stroke-opacity:1;stroke-dasharray:none"
       d="m 1430.4375,8.90625 c -11.5668,0.3324617 -23.1336,0.8762142 -34.6562,1.961531 -11.0762,1.136006 -22.1091,2.676665 -33.0978,4.461017 -8.1305,1.317921 -16.1672,3.152342 -24.1619,5.119502 -12.3025,3.099185 -24.4981,6.656178 -36.459,10.892991 -5.1333,1.855702 -10.2413,3.786691 -15.2915,5.859355 -5.8445,2.390886 -11.6375,4.906554 -17.3786,7.535632 -8.0491,3.751224 -16.0105,7.687896 -23.8743,11.813376 -4.2382,2.249351 -8.5309,4.381072 -12.6863,6.780445 -7.0811,4.278978 -14.017,8.795785 -20.8761,13.420289 -4.4518,3.035044 -8.8687,6.124302 -13.1433,9.405862 -4.7698,4.201825 -9.6315,8.370614 -14.5477,12.428327 -9.3511,7.794763 -18.4218,15.935563 -27.0344,24.541953 -6.4026,6.46173 -12.6358,13.09182 -18.6296,19.9353 -5.7247,6.48416 -11.1719,13.20542 -16.6164,19.92453 -2.6768,3.27523 -5.4003,6.52172 -7.998,9.83938 -3.1384,4.21743 -5.971,8.65079 -8.9056,13.00992 -2.7569,4.21967 -5.5165,8.44195 -8.0863,12.77882 -2.2087,3.6993 -4.3551,7.43473 -6.2534,11.2999 -3.9888,7.80814 -7.9816,15.61667 -11.7617,23.52847 -4.1112,8.71212 -7.8361,17.60097 -11.3338,26.57566 -3.312,8.52799 -6.2938,17.18323 -8.9307,25.9438 -3.5507,11.48708 -6.4516,23.17028 -8.88,34.94352 -2.4353,12.18292 -4.1457,24.49871 -5.5428,36.84063 -0.9926,8.22918 -1.5513,16.50483 -1.904,24.78398 -0.4472,10.68843 -0.4684,21.39515 -0.1091,32.08656 0.4269,12.36665 1.5207,24.7036 3.1152,36.97272 1.3189,10.28068 2.9361,20.52942 5.0977,30.66909 2.9352,13.57225 6.5221,27.00617 10.8214,40.21091 1.9331,5.60674 3.8747,11.2118 6.0123,16.74491 3.0779,7.98974 6.4367,15.87049 9.9822,23.66334 5.0765,11.05134 10.6691,21.86613 16.3221,32.62345 4.3221,7.80718 9.2355,15.26708 14.1573,22.70452 3.4429,5.02234 6.7781,10.13069 10.5878,14.88781 7.7994,9.12837 15.3928,18.49955 23.4222,27.45499 7.4445,8.41726 15.3367,16.43132 23.5566,24.09134 8.192,7.72808 16.7166,15.09813 25.4205,22.24263 4.8334,3.89678 9.6523,7.86472 14.498,11.71207 6.2815,4.46811 12.7077,8.73412 19.2199,12.85836 4.4187,2.68847 8.7485,5.53462 13.3056,7.98693 5.043,2.72638 10.202,5.2502 15.3093,7.86515 7.5299,3.85698 15.1697,7.49393 22.887,10.95979 6.7404,2.89863 13.5144,5.72644 20.4087,8.24202 7.3722,2.74651 14.7972,5.3621 22.3501,7.57169 10.2928,3.15492 20.7363,5.80383 31.2478,8.12137 7.1528,1.57903 14.3728,2.84926 21.6142,3.94133 13.8753,2.06136 27.8407,3.54189 41.853,4.23874 7.225,0.39218 14.4581,0.65341 21.6945,0.64387 11.7343,0.001 23.4619,-0.63211 35.1544,-1.58887 9.7499,-0.8574 19.4718,-2.03883 29.1504,-3.49344 10.2564,-1.53214 20.436,-3.57082 30.4961,-6.08951 9.0798,-2.23786 18.1231,-4.64829 27.01,-7.56847 9.5496,-3.02287 18.9487,-6.51238 28.2142,-10.31499 5.8854,-2.38267 11.7051,-4.92834 17.4522,-7.62729 9.2456,-4.32987 18.2809,-9.0894 27.3486,-13.77588 4.1458,-2.11753 8.1775,-4.4695 12.1077,-6.97267 9.1843,-5.65685 18.1884,-11.61781 26.8415,-18.06166 0.9634,-0.92641 2.0126,-1.56568 2.965,-2.50936 3.966,-3.48947 8.1008,-6.78344 12.1268,-10.20394 4.9506,-4.17218 9.9077,-8.33992 14.7483,-12.6394 5.8691,-5.30717 11.5853,-10.7857 17.0937,-16.46658 6.0026,-6.15269 11.8297,-12.4752 17.4589,-18.97135 5.2694,-5.99254 10.241,-12.2788 15.374,-18.36092 1.0164,-1.37648 1.9911,-2.65113 3.1605,-3.93993 0.9621,-1.07632 1.7792,-2.151 2.6386,-3.24887 3.4521,-4.51411 6.5528,-9.34818 9.7413,-14.07337 3.8004,-5.74524 7.4081,-11.61718 10.9477,-17.52598 2.9224,-5.04389 5.4319,-10.31712 8.13,-15.49559 3.1947,-6.32955 6.3258,-12.69281 9.3484,-19.10623 3.2022,-6.82989 6.183,-13.76374 8.8378,-20.82537 2.6572,-6.84671 5.1408,-13.76231 7.4579,-20.73134 2.4178,-7.42897 4.6313,-14.92368 6.5739,-22.4912 2.7284,-10.35015 5.0228,-20.81778 6.7104,-31.38948 1.5748,-9.61779 2.8294,-19.28886 3.8662,-28.9795 1.17,-12.67492 1.8967,-25.39816 1.9456,-38.12909 -0.03,-5.68194 -0.1631,-11.36445 -0.382,-17.04224 -0.4654,-11.01671 -1.5203,-22.00076 -2.8785,-32.94077 -1.1637,-9.04076 -2.2988,-18.0951 -4.0888,-27.03762 -2.0991,-10.05735 -4.3415,-20.0943 -7.2444,-29.95437 -3.523,-12.31051 -7.5608,-24.47709 -12.2599,-36.39038 -3.6815,-9.48057 -7.853,-18.76621 -12.2841,-27.91818 -4.0616,-8.41186 -8.3819,-16.70636 -12.7103,-24.97556 -3.4754,-6.24331 -7.2983,-12.28618 -11.269,-18.22415 -3.6071,-5.54331 -7.325,-11.01736 -11.258,-16.33548 -1.0421,-1.15483 -1.8507,-2.41838 -2.9203,-3.5817 -9.6766,-11.49574 -19.0415,-23.27797 -29.4465,-34.13618 -7.3561,-7.7615 -14.9621,-15.29495 -22.9467,-22.41121 -10.2409,-9.06952 -20.7966,-17.775558 -31.4365,-26.37091 -2.9473,-2.329833 -6.1498,-4.404493 -9.2312,-6.585243 -7.5687,-5.114892 -15.2727,-10.037481 -23.156,-14.6542 -5.8585,-3.246666 -11.8807,-6.18361 -17.8298,-9.26676 -7.9997,-4.126439 -16.1231,-8.013378 -24.388,-11.580762 -8.253,-3.586778 -16.63,-6.894366 -25.117,-9.886931 -8.4383,-2.888497 -16.9257,-5.646091 -25.5353,-7.983087 -10.6556,-3.050615 -21.4966,-5.407791 -32.3785,-7.490136 -8.7407,-1.607354 -17.5539,-2.785705 -26.3749,-3.853826 -9.1447,-1.059219 -18.3244,-1.790184 -27.5182,-2.2523478 -7.7975,-0.4185429 -15.6063,-0.6493159 -23.4148,-0.6948207 -0.5188,0.00979 -1.0375,0.019576 -1.5563,0.029364 z"
       id="path3852"
       inkscape:connector-curvature="0" />
    <path
       style="fill:none;stroke:#0000ff;stroke-width:4;stroke-miterlimit:4;stroke-opacity:1;stroke-dasharray:none"
       d="m 1428.2812,6.34375 c -15.2577,0.776555 -30.5596,1.3247863 -45.704,3.4670446 -7.8198,1.0713544 -15.627,2.2435724 -23.4325,3.4065064 -7.7586,1.361111 -15.4504,3.086285 -23.0666,5.0942 -4.6266,1.178441 -9.2265,2.461385 -13.8253,3.742815 -9.7318,2.815758 -19.3667,5.976951 -28.8105,9.650181 -9.8371,3.807071 -19.5718,7.891153 -29.0869,12.447936 -4.5264,2.147651 -9.0512,4.301592 -13.4952,6.616968 -7.6696,3.925784 -15.33,7.895192 -22.9258,11.947006 -4.5904,2.708426 -8.9385,5.801562 -13.4579,8.623094 -4.9517,3.221266 -9.8351,6.555594 -14.539,10.129249 -2.4428,2.259764 -4.7739,4.706274 -7.3506,6.846319 -4.3469,3.706555 -8.7513,7.34554 -13.0408,11.119304 -5.7666,4.948777 -11.4843,9.959247 -17.0143,15.172137 -5.1222,4.90029 -10.1785,9.87464 -15.0373,15.0374 -2.8639,3.07633 -5.6879,6.18959 -8.4917,9.32057 -6.3546,7.19418 -12.4593,14.60412 -18.543,22.0273 -4.0912,4.95015 -8.3331,9.79282 -12.2936,14.82822 -3.5724,4.8777 -6.8025,9.99671 -10.0441,15.09751 -2.9924,4.76439 -5.8345,9.62696 -8.2996,14.68291 -4.0662,8.17446 -8.2478,16.29311 -12.1805,24.53292 -4.6426,9.74913 -8.9595,19.65794 -12.8349,29.7375 -3.6551,9.45986 -6.8067,19.10731 -9.7209,28.81835 -1.7876,6.09494 -3.409,12.2367 -4.9145,18.407 -2.4258,10.14669 -4.4516,20.39354 -5.8606,30.73238 -1.4504,9.84659 -2.6392,19.73187 -3.5727,29.64058 -0.9481,11.92939 -1.3018,23.90283 -1.2266,35.86827 0.072,10.10058 0.4892,20.20052 1.4138,30.26044 0.8246,10.01961 2.0936,19.99809 3.5615,29.94207 1.3659,9.15187 3.023,18.26549 5.1608,27.27101 0.9978,4.14593 2.0605,8.27804 3.1731,12.39474 3.1681,11.56403 6.663,23.05045 10.9224,34.26392 3.212,8.45867 6.7411,16.79421 10.502,25.02293 2.7437,6.01689 5.6107,11.97831 8.5622,17.89601 3.4892,6.87957 6.9096,13.80561 10.5607,20.59442 2.3725,4.23988 4.8711,8.40886 7.5594,12.45668 3.5061,5.33603 7.0777,10.67374 10.7911,15.84161 6.5306,7.67911 13.1161,15.31138 19.6623,22.97732 6.3559,7.45225 12.8499,14.79489 19.7154,21.78395 7.5032,7.72524 15.4116,15.04594 23.4425,22.21669 10.8594,9.53791 22.1586,18.55627 33.3605,27.68432 2.4133,2.03692 5.1319,3.69225 7.7439,5.4854 4.4289,2.91287 8.9063,5.75741 13.4516,8.48443 6.6065,3.76945 13.5194,6.98255 20.2387,10.53594 5.1634,2.64848 10.3841,5.21978 15.64,7.69383 8.7632,4.1093 17.6344,7.99666 26.6733,11.46216 7.3473,2.85934 14.8108,5.4155 22.3097,7.8462 11.095,3.48809 22.3467,6.47125 33.6961,9.00971 8.0411,1.82849 16.1814,3.17197 24.3487,4.28902 10.9253,1.55371 21.8879,2.88377 32.8987,3.65582 10.9425,0.88356 21.9256,1.12369 32.8998,1.18771 6.9977,-0.0742 13.9962,-0.27371 20.9773,-0.78213 11.6642,-0.71607 23.3054,-1.83971 34.8789,-3.46606 6.8353,-0.94976 13.674,-1.91067 20.449,-3.23091 7.7307,-1.5266 15.4135,-3.28905 23.0289,-5.31518 10.4588,-2.70754 20.8386,-5.75138 30.9932,-9.45012 8.5262,-3.06162 16.9771,-6.33625 25.2936,-9.93035 6.9988,-2.97452 13.8464,-6.29317 20.6708,-9.64448 8.7553,-4.48131 17.5277,-8.94911 26.2316,-13.51647 3.9516,-2.27904 7.7689,-4.78334 11.6077,-7.24546 4.5865,-3.0315 9.2056,-6.02273 13.6678,-9.23509 3.2499,-2.50434 6.198,-5.4084 9.3761,-8.02563 8.6017,-7.45564 17.3623,-14.72769 25.9,-22.25685 7.7428,-6.95032 15.089,-14.32989 22.2508,-21.8734 5.7469,-6.1368 11.3134,-12.44053 16.735,-18.86638 5.9987,-7.07804 11.9025,-14.23532 17.7686,-21.42345 1.9964,-2.43829 4.0933,-4.76743 5.7871,-7.42516 5.0812,-7.67985 10.2892,-15.29928 14.6774,-23.40663 5.8175,-11.82028 11.979,-23.48919 17.4775,-35.4707 3.3723,-7.24958 6.5706,-14.58505 9.3517,-22.0836 3.6822,-9.61088 6.9719,-19.37131 9.8904,-29.24087 3.175,-10.38259 5.6572,-20.9643 7.8637,-31.59057 1.0974,-5.4646 1.9973,-10.96605 2.7478,-16.48785 1.3374,-8.65141 2.3738,-17.34744 3.3072,-26.05081 0.7578,-7.53945 1.2659,-15.10452 1.5934,-22.67424 0.3784,-9.81865 0.4016,-19.6518 -0.014,-29.46965 -0.3206,-13.84139 -2.1243,-27.58712 -3.7871,-41.31524 -1.1214,-9.01617 -2.4674,-18.00958 -4.3674,-26.89775 -1.7137,-8.11661 -3.7701,-16.15936 -6.0156,-24.14417 -3.1801,-11.28015 -6.7897,-22.44516 -11.0003,-33.38471 -2.7592,-7.27281 -5.7995,-14.43599 -9.0203,-21.51569 -4.3492,-9.52909 -9.075,-18.87971 -13.8939,-28.17831 -2.5561,-4.94685 -5.0618,-9.93268 -7.6987,-14.8291 -4.0887,-6.82837 -8.5832,-13.40338 -13.0474,-19.98857 -2.8972,-3.96772 -6.2529,-7.59324 -9.3632,-11.41115 -9.7989,-11.62849 -19.4627,-23.38791 -29.868,-34.48577 -8.0804,-8.40305 -16.4786,-16.50553 -25.2279,-24.21065 -9.494,-8.177015 -19.1647,-16.145047 -28.8436,-24.101134 -2.7041,-2.217059 -5.4288,-4.457401 -8.1792,-6.582241 -5.471,-3.839114 -11.2034,-7.2836 -16.8146,-10.909759 -4.1736,-2.592668 -8.4991,-4.906568 -12.9294,-7.026927 -10.6276,-5.358837 -21.1741,-10.895045 -32.0475,-15.747141 -6.7695,-3.051875 -13.5894,-5.998791 -20.5443,-8.606193 -10.3014,-3.895797 -20.7729,-7.333538 -31.3486,-10.404327 -8.7908,-2.648199 -17.7329,-4.763732 -26.7053,-6.693693 -6.6255,-1.335122 -13.269,-2.593834 -19.9614,-3.545893 -6.1817,-0.911126 -12.3779,-1.7327114 -18.5941,-2.3726834 -5.9736,-0.6551428 -11.9619,-1.1766023 -17.9578,-1.5743716 -7.5855,-0.4190343 -15.1684,-0.947096 -22.765,-1.11028 -4.0161,-0.055839 -8.0337,-0.1241468 -12.0501,-0.052207 z"
       id="path3922"
       inkscape:connector-curvature="0" />
    <path
       style="fill:none;stroke:#0000ff;stroke-width:4;stroke-miterlimit:4;stroke-opacity:1;stroke-dasharray:none"
       d="m 1429.125,43.71875 c -11.583,0.327773 -23.1354,1.348792 -34.6524,2.593267 -3.6102,0.481918 -7.2525,0.810511 -10.8184,1.560468 -1.4257,0.381074 -1.8569,2.174604 -1.623,3.502515 0.3469,2.235979 1.8894,4.048141 3.2956,5.722024 0.8582,1.379228 1.9911,2.806924 2.9964,4.184022 7.4572,10.025288 14.841,20.104933 22.1073,30.269589 6.3757,8.981145 12.5946,18.073665 18.7367,27.215835 9.2798,13.96331 18.4217,28.02547 27.0107,42.42707 8.6378,14.34084 16.7864,28.97074 24.7429,43.69867 3.4981,6.33575 6.7237,12.8232 9.7125,19.41923 3.961,8.70657 7.8222,17.46674 11.1623,26.43367 3.5892,9.51682 6.7649,19.20237 9.1827,29.0861 1.9548,8.42818 4.033,16.92956 4.1003,25.63115 0.2484,9.10052 -0.6945,18.17235 -1.208,27.24765 -0.5094,6.78226 -0.9879,13.60015 -2.3834,20.26789 -0.4593,1.85356 -1.0487,3.71019 -2.206,5.24085 -0.8333,-0.43474 -1.5001,-1.25787 -2.3904,-1.73868 -2.3782,-1.59966 -4.6685,-3.32493 -6.9846,-5.01132 -0.4109,-0.26342 -0.8273,-0.77316 -1.0937,-1.21875 -3.9841,-5.80397 -8.103,-11.52173 -11.9217,-17.43993 -5.2757,-8.1061 -10.3449,-16.34419 -15.2822,-24.66032 -7.0975,-11.79621 -13.9961,-23.71067 -21.0002,-35.56238 -5.187,-8.74611 -10.2025,-17.60013 -15.7108,-26.1505 -1.5617,-2.33253 -3.0708,-4.75129 -4.8101,-6.93154 -3.3913,-3.87246 -6.7524,-7.77057 -10.0458,-11.72654 -4.3326,-4.9938 -8.9821,-9.72368 -14.0498,-13.9751 -1.543,-1.33541 -3.1186,-2.64906 -4.7107,-3.89744 -4.1803,-2.10011 -8.4694,-4.07403 -12.9591,-5.43475 -7.1045,-2.06334 -14.6321,-2.27513 -21.9471,-1.44025 -5.9609,0.68298 -11.7527,2.50262 -17.1543,5.09176 -2.8377,1.35129 -5.9113,2.45173 -8.1932,4.67221 -2.0517,1.7129 -3.9878,3.558 -6.038,5.2731 -3.5231,3.17062 -6.8615,6.53731 -10.0666,10.02808 -3.004,3.13856 -5.6353,6.63561 -8.8917,9.5286 -0.8794,0.45801 -1.7525,1.49877 -2.5937,2.03125 -1.5579,0.95812 -3.0063,2.16055 -4.721,2.81325 -1.5023,0.46505 -3.1041,0.25276 -4.654,0.4055 -8.9894,0.44637 -17.9555,1.27321 -26.8975,2.28709 -1.9529,0.22512 -3.9259,0.4365 -5.8482,0.78888 -1.2707,0.445 -1.4716,2.21245 -0.973,3.33028 0.4864,0.99742 1.6281,1.54337 2.3949,2.30665 1.9083,1.31248 4.0203,2.25131 6.0062,3.44563 11.5268,6.55293 23.1869,12.86672 34.7929,19.27779 0.7781,0.48898 1.8257,0.73353 2.3493,1.50669 0.6604,5.43309 1.4117,10.85533 1.9407,16.30402 0.5662,5.76013 1.0666,11.52973 1.4018,17.30823 0.216,4.8077 0.4256,9.6252 0.2754,14.43731 -0.1792,6.48207 -0.9446,12.95201 -2.4277,19.26766 -0.7753,3.30635 -1.6331,6.63198 -3.0614,9.72366 -1.465,2.91449 -3.5111,5.64916 -5.1721,8.35986 -0.879,0.90537 -2.0615,1.41218 -3.0626,2.1875 -2.0257,1.36698 -4.2044,2.56559 -6.638,3.00326 -3.819,1.06529 -8.0278,1.25633 -11.7374,-0.32161 -3.963,-1.49875 -7.1887,-4.35374 -10.6331,-6.74306 -1.9785,-1.43878 -3.9447,-2.8953 -5.9602,-4.28234 -0.978,-0.83941 -2.055,-1.90678 -3.0711,-2.83382 -6.9668,-6.50836 -13.8824,-13.07144 -20.9043,-19.52055 -10.1009,-9.28418 -20.4666,-18.3109 -29.8872,-28.30299 -3.1621,-3.3068 -6.1611,-6.76377 -9.2311,-10.15514 -0.2223,-0.88555 -0.8763,-1.34529 -1.44,-2.07594 -0.3955,-0.48013 -0.6037,-1.15703 -1.0976,-1.66156 -3.7449,-5.04306 -7.4943,-10.08526 -11.1015,-15.22825 -4.6889,-6.71164 -9.0766,-13.63074 -13.2555,-20.66943 -8.9599,-15.6106 -17.3918,-31.51558 -26.0009,-47.32046 -1.8005,-3.30098 -3.5834,-6.63733 -5.3858,-9.91936 -0.8507,-1.10773 -2.5136,-1.3382 -3.8515,-1.11286 -0.9725,0.15151 -1.8326,0.66248 -2.3672,1.48786 -3.1319,3.67382 -5.4724,7.97664 -8.1329,12.00729 -3.4968,5.48583 -6.9254,11.03184 -9.8036,16.86755 -4.2875,8.30593 -8.4793,16.6633 -12.3634,25.16674 -3.0449,6.61734 -5.9306,13.31039 -8.488,20.13236 -3.6436,9.75302 -7.0062,19.61624 -9.9169,29.61384 -0.3674,1.71677 -0.9876,3.41402 -1.014,5.18097 0.036,0.92063 0.4188,1.96126 1.1875,2.34375 1.3194,1.15906 2.6592,2.08202 3.98,3.24216 6.8019,5.96073 13.5063,12.03309 20.2693,18.03824 16.344,14.58362 32.688,29.16723 49.032,43.75085 -25.3319,-15.89608 -50.7284,-31.68875 -76.0938,-47.53125 -1.4579,-0.21627 -3.3648,0.1519 -3.8642,1.7149 -1.0744,2.76087 -1.2505,5.75441 -1.8246,8.63868 -1.5153,9.21733 -2.7956,18.47756 -3.7612,27.7695 -0.6389,7.01736 -1.2481,14.04001 -1.5307,21.082 -0.2384,5.55748 -0.355,11.12639 -0.1932,16.6879 0.1366,2.03255 0.065,4.12919 0.6071,6.09841 0.4523,1.051 1.4818,1.72104 2.5634,2.05142 7.8989,3.7417 15.7047,7.67656 23.5647,11.49905 21.8973,10.77687 43.8302,21.48117 65.7825,32.14564 -29.5209,0.82175 -59.0416,1.65281 -88.5626,2.46875 1.8083,8.12231 3.3645,16.29962 5.2165,24.41199 1.3731,6.19124 2.9521,12.33522 4.7287,18.42295 1.2334,4.28992 2.5921,8.54293 3.9577,12.79223 0.9784,2.90984 1.9644,5.83742 3.0303,8.7042 0.9333,1.4598 2.8957,1.48557 4.4731,1.48113 8.1332,0.33527 16.2622,0.78973 24.3939,1.16706 16.7104,0.79205 33.4222,1.55606 50.1374,2.23919 -21.1547,9.449 -42.2874,18.94739 -63.4376,28.40625 -0.2363,3.15513 1.3786,6.02599 2.785,8.72192 3.5169,6.72336 6.8867,13.53561 10.69,20.10925 1.6684,2.76327 3.313,5.55109 5.178,8.18689 1.3649,1.69505 2.9243,3.27788 4.5231,4.77659 1.5706,1.65535 3.8879,2.2583 5.8188,3.37675 9.9357,4.98883 20.0161,9.74748 30.5076,13.46192 8.0911,2.96237 16.4126,5.23745 24.7475,7.39793 10.157,2.57809 20.4928,4.39349 30.8834,5.71986 10.7791,1.45154 21.6195,2.52462 32.4916,2.91218 6.3028,0.17793 12.5982,-0.3868 18.8387,-1.22892 9.7995,-1.11722 19.5038,-3.0093 29.0228,-5.58895 6.6462,-1.73756 13.2115,-3.78049 19.7031,-6.02453 4.9513,-1.83081 9.9371,-3.58081 14.8146,-5.60202 6.7543,-2.75487 13.3958,-5.78321 19.9542,-8.9758 6.3509,-3.15356 12.6641,-6.40385 18.9381,-9.69408 2.7041,-1.45587 5.2653,-3.15106 7.8535,-4.79899 8.5075,17.82018 17.2578,35.52296 25.8369,53.30858 17.8788,36.93016 35.8118,73.83407 53.6904,110.76438 0.5005,1.02687 0.8985,2.26225 2.0977,2.61454 1.6919,0.69817 3.5088,-0.0157 5.2428,-0.13808 10.2259,-1.35989 20.4499,-2.80595 30.5425,-4.96782 2.8613,-0.61914 5.7477,-1.20738 8.5897,-1.86285 1.1625,-0.66655 1.0788,-2.25864 0.9791,-3.45455 -0.683,-10.31508 -1.2916,-20.6349 -1.9478,-30.9517 3.5002,10.73951 6.9987,21.47958 10.5,32.21875 9.9234,-3.1585 19.9244,-6.09397 29.7172,-9.64675 6.5873,-2.5363 13.2379,-4.94746 19.7134,-7.74661 0.9482,-0.49274 1.3552,-1.55913 1.3507,-2.60664 0.1325,-1.98546 -0.609,-3.89047 -0.844,-5.84496 -1.2236,-6.5398 -2.2874,-13.10773 -3.4686,-19.65504 5.2962,4.5119 10.8627,8.70445 16.3976,12.93875 2.0496,1.52903 4.1033,3.1046 6.3536,4.31162 1.9169,0.63923 3.8904,-0.26502 5.5407,-1.18597 5.1448,-2.66648 10.268,-5.38356 15.2087,-8.42431 5.9647,-3.54881 11.8284,-7.27178 17.5698,-11.17092 2.1743,-1.52215 4.4024,-2.96872 6.2247,-4.90876 0.9094,-0.77216 1.9018,-1.55454 2.5175,-2.56041 0.4492,-1.43034 -0.2713,-2.91815 -1.3438,-3.84375 -0.9437,-0.72713 -1.873,-1.34124 -2.7598,-2.19412 -10.5574,-9.98191 -21.1631,-19.91381 -31.676,-29.94323 -1.1256,-1.0688 -2.2511,-2.1376 -3.3767,-3.2064 17.4741,10.05045 34.9491,20.09981 52.4375,30.125 7.2816,-6.62193 14.9259,-12.84352 22.0361,-19.65457 6.6144,-6.37309 13.0369,-12.95023 19.1291,-19.82635 5.6884,-6.3193 11.0912,-12.88839 16.7098,-19.26908 0.6566,-1.08709 0.3543,-2.76105 -0.6562,-3.5625 -1.155,-1.03357 -2.8585,-0.99325 -4.2611,-1.54211 -11.8332,-3.18173 -23.6079,-6.61234 -35.1865,-10.62965 -6.3973,-2.17736 -12.7082,-4.60753 -18.8838,-7.35304 -4.7031,-1.96166 -9.2343,-4.28806 -13.6753,-6.7751 -7.227,-4.04275 -14.3947,-8.2176 -21.2014,-12.9433 -6.4725,-4.35573 -12.8042,-8.91775 -19.1266,-13.4876 -5.4866,-3.99671 -10.9418,-8.03568 -16.3286,-12.16605 -9.132,-6.94597 -18.237,-13.9275 -27.3367,-20.91565 6.2689,0.32798 12.5475,0.50365 18.8248,0.48125 4.6163,-0.0394 9.2311,-0.17563 13.8359,-0.51187 10.2353,-0.63999 20.4312,-1.87287 30.5407,-3.58555 5.0256,-0.88153 10.023,-1.93101 14.9492,-3.26509 9.8452,-2.47741 19.5125,-5.68277 28.8418,-9.69175 8.2917,-3.51005 16.3717,-7.51622 24.3849,-11.60225 5.3767,-2.91378 10.4867,-6.28279 15.4981,-9.78004 2.4054,-1.58808 4.7175,-3.28895 6.7763,-5.30002 7.6788,-6.54445 15.5049,-12.93394 22.7534,-19.96332 5.5527,-5.28277 10.8402,-10.83686 16.0105,-16.49197 8.016,-8.90989 15.5489,-18.23747 23.1799,-27.47533 4.8044,-5.89355 9.6823,-11.76882 14.4908,-17.63206 0.7897,-1.12073 1.9255,-2.22718 2.459,-3.60643 0.893,-2.22251 0.4731,-4.67576 0.4484,-7.00604 0,-2.17682 -0.06,-4.35254 -0.1639,-6.52874 -0.4178,-8.73211 -0.8492,-17.4705 -1.8465,-26.15967 -1.0343,-9.84135 -2.5721,-19.62135 -4.1606,-29.38515 -0.2344,-1.20686 -0.3274,-2.56691 -1.0103,-3.58972 -1.1267,-1.35095 -3.2094,-1.23535 -4.7202,-0.62208 -4.9056,1.67026 -9.7023,3.63883 -14.5952,5.34486 -7.3844,2.70699 -14.7689,5.41398 -22.1533,8.12097 0.9795,-0.84136 1.9299,-1.48671 2.9063,-2.34375 1.1114,-0.76136 2.3784,-1.73174 3.4687,-2.625 1.5748,-1.29191 3.0349,-2.67351 4.6563,-3.8125 0.5883,-0.55885 1.2728,-1.01246 1.9374,-1.59375 0.7939,-0.55268 1.7093,-1.30082 2.5,-1.96875 0.9901,-0.67052 2.1019,-1.55603 3.0626,-2.375 1.0071,-0.82649 1.9717,-1.48295 2.9265,-2.40578 1.3874,-0.96382 2.6733,-2.45143 4.0544,-3.58532 0.6544,-0.45943 1.3211,-1.14087 2.0081,-1.54328 1.3352,-1.08861 2.6699,-2.25633 4.0568,-3.20636 1.8421,-1.65975 3.8303,-3.30161 5.6416,-4.97801 0.8076,-2.26344 -0.4998,-4.49478 -1.0134,-6.66662 -3.8385,-14.02139 -8.4572,-27.84027 -14.1332,-41.22905 -4.281,-10.28221 -9.1236,-20.31993 -14.211,-30.2248 -1.7931,-3.46471 -3.4519,-6.9982 -5.3924,-10.37953 -0.8196,-0.75268 -1.4009,-1.79916 -2.6,-1.8125 -1.377,0.0216 -2.8876,0.36499 -3.7216,1.53849 -4.7415,4.57271 -9.9792,8.58668 -15.0143,12.82395 -14.2061,11.71617 -28.3695,23.4842 -42.6015,35.16881 16.6354,-22.60417 33.2708,-45.20833 49.9062,-67.8125 -0.01,-2.67466 -1.2173,-5.15618 -2.6875,-7.3125 -1.8796,-2.686 -3.7008,-5.42708 -5.9063,-7.84375 -0.1165,-0.39936 -0.535,-0.7783 -0.7812,-1.09375 -6.9059,-7.9411 -13.5487,-16.10717 -20.4964,-24.01227 -6.0292,-6.89248 -12.5056,-13.37352 -19.0173,-19.80613 -2.5175,-2.43831 -5.0098,-4.9515 -7.5876,-7.29629 -0.9844,-0.46441 -2.2078,0.31317 -2.4612,1.30219 -0.3922,1.15713 -1.0542,2.18576 -1.6087,3.28149 -3.1371,6.24027 -6.4504,12.41119 -9.6698,18.61764 -9.4751,18.15918 -19.0123,36.28605 -28.4657,54.45649 -0.804,1.55854 -1.608,3.11709 -2.4121,4.67563 4.2572,-24.6369 8.3956,-49.29403 12.4807,-73.95996 1.6274,-9.70784 3.2523,-19.41961 4.5111,-29.18291 0.1116,-1.0836 -0.2581,-2.18355 -1.1332,-2.8423 -1.3591,-1.38812 -3.1063,-2.5231 -4.546,-3.67108 -1.0117,-0.71886 -1.9521,-1.74326 -3.0787,-2.42576 -5.6072,-3.89948 -11.416,-7.498481 -17.177,-11.164423 -4.8424,-3.045776 -9.8441,-5.818158 -14.9794,-8.332024 -9.5078,-4.846314 -19.0555,-9.625558 -28.8275,-13.921543 -6.0699,-2.672573 -12.1714,-5.313505 -18.4722,-7.398162 -1.4787,-0.565639 -3.3835,0.141586 -3.8932,1.652031 -0.572,2.155619 -0.2483,4.39799 -0.4332,6.59588 -0.9838,33.977171 -1.9676,67.954331 -2.9514,101.931501 -7.6959,-23.04338 -15.5696,-46.02673 -23.4198,-69.01781 -4.4611,-13.237476 -8.981,-26.455069 -13.561,-39.651793 -1.6852,-4.997776 -3.3941,-9.992631 -4.9879,-15.017897 -1.2764,-1.295562 -3.2592,-1.406698 -4.9768,-1.731736 -9.3625,-1.716057 -18.7856,-3.088563 -28.2351,-4.228855 -7.9918,-0.969066 -16.0172,-1.664186 -24.0556,-2.095271 -7.8165,-0.396512 -15.6439,-0.547861 -23.4699,-0.452516 -0.5251,0.0028 -1.0501,0.0056 -1.5751,0.0084 z M 1371.2812,233.125 c 2.7416,0.30541 4.987,2.12019 7.125,3.65625 1.268,1.71096 2.3483,3.62367 2.789,5.72471 0.3304,2.22951 -0.6796,4.36259 -1.9271,6.13792 -0.6539,0.95633 -1.1083,1.99103 -2.1671,2.50992 -1.7184,0.90204 -3.2998,2.18588 -5.2941,2.38849 -2.2113,0.31205 -4.2492,-0.92289 -6.0408,-2.05292 -0.7631,-0.56531 -1.7486,-0.984 -2.1624,-1.80937 -0.9019,-1.31477 -1.7163,-2.71635 -2.3937,-4.14944 -0.7876,-2.03455 -0.2213,-4.32396 0.9157,-6.10225 0.6282,-0.97255 1.1936,-2.0121 1.8918,-2.92581 1.4397,-1.04685 3.0019,-1.94947 4.5726,-2.76878 0.8415,-0.37037 1.7641,-0.64489 2.6911,-0.60872 z"
       id="path3982"
       inkscape:connector-curvature="0" />
  </g>
</svg>
