<?xml version="1.0" encoding="UTF-8" standalone="no"?>
<!-- Created with Inkscape (http://www.inkscape.org/) -->

<svg
   xmlns:dc="http://purl.org/dc/elements/1.1/"
   xmlns:cc="http://creativecommons.org/ns#"
   xmlns:rdf="http://www.w3.org/1999/02/22-rdf-syntax-ns#"
   xmlns:svg="http://www.w3.org/2000/svg"
   xmlns="http://www.w3.org/2000/svg"
   xmlns:sodipodi="http://sodipodi.sourceforge.net/DTD/sodipodi-0.dtd"
   xmlns:inkscape="http://www.inkscape.org/namespaces/inkscape"
   width="3200"
   height="800"
   id="svg3002"
   version="1.1"
   inkscape:version="0.92.2 5c3e80d, 2017-08-06"
   sodipodi:docname="dove_circle_2_filled.svg">
  <sodipodi:namedview
     id="base"
     pagecolor="#ffffff"
     bordercolor="#666666"
     borderopacity="1.0"
     inkscape:pageopacity="0.0"
     inkscape:pageshadow="2"
     inkscape:zoom="0.365"
     inkscape:cx="1600"
     inkscape:cy="400"
     inkscape:document-units="px"
     inkscape:current-layer="1-default"
     showgrid="false"
     inkscape:window-width="1680"
     inkscape:window-height="1005"
     inkscape:window-x="0"
     inkscape:window-y="1"
     inkscape:window-maximized="1" />
  <defs
     id="defs3004">
    <inkscape:path-effect
       back_thickness="0.25"
       front_thickness="1"
       stroke_width_bottom="1"
       stroke_width_top="1"
       fat_output="false"
       bottom_smth_variation="0;1"
       top_smth_variation="0;1"
       scale_tb="2"
       scale_tf="2"
       scale_bb="2"
       scale_bf="2"
       top_tgt_variation="0;1"
       bottom_tgt_variation="0;1"
       top_edge_variation="0;1"
       bottom_edge_variation="0;1"
       bender="1435.0192,399.95192 , 5,0"
       do_bend="true"
       growth="0"
       dist_rdm="0;1"
       direction="1435.0192,394.95192 , 20.682248,-6.6703416"
       is_visible="true"
       id="path-effect4091"
       effect="rough_hatches" />
  </defs>
  <metadata
     id="metadata3007">
    <rdf:RDF>
      <cc:Work
         rdf:about="">
        <dc:format>image/svg+xml</dc:format>
        <dc:type
           rdf:resource="http://purl.org/dc/dcmitype/StillImage" />
        <dc:title />
      </cc:Work>
    </rdf:RDF>
  </metadata>
  <g
     inkscape:label="1-Blue"
     inkscape:groupmode="layer"
     id="1-default"
     style="display:inline">
    <path
       inkscape:connector-curvature="0"
       inkscape:original-d="m 1434.4375,9.84375 c -1.6281,-0.010254 -3.2469,0.00578 -4.875,0.03125 -5.2575,0.13573 -10.5281,0.393558 -15.7813,0.65625 -6.9882,0.383685 -13.9507,0.834677 -20.9062,1.625 -10.6451,1.17254 -21.2721,2.563863 -31.8125,4.46875 -10.4966,1.816243 -20.876,4.34834 -31.1563,7.125 -6.6727,1.818156 -13.2831,3.846323 -19.875,5.9375 -7.0679,2.319895 -14.0503,4.843372 -20.9374,7.65625 -9.8961,3.925248 -19.5987,8.346297 -29.1563,13.03125 -6.0834,2.949355 -12.1129,6.01879 -18.0313,9.28125 -6.7457,3.564664 -13.2579,7.535936 -19.6562,11.6875 -8.5361,5.476669 -16.8983,11.230237 -24.9688,17.375 -0.9623,0.736189 -1.9972,1.741428 -3,2.5625 -8.2286,7.090176 -16.6797,13.90598 -24.6874,21.25 -8.7749,7.97972 -17.0926,16.46906 -25.0626,25.25 -8.2779,9.11001 -16.1004,18.59757 -23.8124,28.1875 -1.1609,1.44248 -2.3492,2.82958 -3.4063,4.28125 -0.3787,0.59795 -0.8203,1.08675 -1.3125,1.59375 -0.6937,1.16153 -1.6517,2.41399 -2.4688,3.59375 -5.4757,7.7753 -10.727,15.70247 -15.5937,23.875 -4.1881,7.05334 -8.0961,14.28207 -11.6875,21.65625 -4.9028,9.71491 -9.6628,19.48972 -13.7188,29.59375 -2.9753,7.23913 -5.7765,14.55498 -8.375,21.9375 -2.9138,8.32787 -5.4496,16.8045 -7.7812,25.3125 -2.0515,7.46631 -3.8027,15.01282 -5.375,22.59375 -2.4007,11.99517 -4.2632,24.09744 -5.6562,36.25 -1.1667,10.75258 -2.0197,21.52699 -2.2188,32.34375 -0.2575,9.81879 -0.1563,19.65618 0.2812,29.46875 0.5389,11.76708 1.6873,23.50986 3.2188,35.1875 1.6264,12.28378 3.8231,24.48117 6.7188,36.53125 2.9076,12.03793 6.149,24.00675 10.1874,35.71875 5.7551,16.64819 12.6983,32.88398 20.4688,48.6875 3.8714,7.91579 8.0209,15.66695 12.3438,23.34375 3.0781,5.35732 6.4087,10.575 9.7812,15.75 4.3061,6.51301 8.7715,12.92633 13.4375,19.1875 0.9812,1.41787 2.0664,2.68996 3.2187,4.03125 5.3431,6.24682 10.5395,12.60788 15.9688,18.78125 2.8701,3.36401 5.8626,6.64164 8.8438,9.90625 4.6298,4.97663 9.3404,9.86219 14.3124,14.5 6.0891,5.87741 12.3521,11.59035 18.7813,17.09375 7.2071,6.24166 14.6032,12.24338 22.0313,18.21875 0.595,0.34853 1.1817,0.86338 1.75,1.375 1.1087,0.75825 2.4181,1.59662 3.5937,2.40625 7.1578,4.89754 14.3581,9.76064 21.7813,14.25 4.9201,2.99865 9.9536,5.85214 15.0312,8.5625 9.0757,4.68972 18.1858,9.29936 27.5,13.5 9.0066,4.06481 18.1558,7.7966 27.4375,11.1875 8.1339,2.95713 16.3613,5.69758 24.6875,8.0625 9.1731,2.65424 18.4507,4.88037 27.7812,6.90625 17.3589,3.66947 35.0047,5.89561 52.6876,7.25 9.5612,0.73825 19.1628,1.03074 28.75,1.15625 14.9464,0.0293 29.8857,-0.83034 44.75,-2.375 3.008,-0.3129 6.0002,-0.64826 9,-1.03125 L 1480.1875,751.5 c -1.2172,0.14185 -2.4382,0.27447 -3.6563,0.40625 -1.6231,-2.91038 -2.8898,-6.0406 -4.4374,-9 l -77.375,-159.4375 c -6.9266,4.49716 -14.0848,8.62631 -21.4376,12.375 -7.623,3.95427 -15.3526,7.72582 -23.2812,11.03125 -7.538,3.1602 -15.1839,6.06787 -22.9375,8.65625 -6.3129,2.04785 -12.6815,3.93666 -19.125,5.53125 -6.942,1.69883 -13.9473,3.13154 -21.0313,4.09375 -4.8125,0.66303 -9.6525,1.20863 -14.5,1.53125 -5.1587,0.2788 -10.3523,0.18784 -15.5,-0.25 -9.1713,-0.64545 -18.3079,-1.57576 -27.4062,-2.90625 -8.6244,-1.22227 -17.1855,-2.84192 -25.6562,-4.875 -7.2738,-1.7181 -14.4729,-3.82441 -21.5626,-6.1875 -6.604,-2.19677 -13.0975,-4.69946 -19.4687,-7.5 -4.8316,-2.16908 -9.5853,-4.48768 -14.3125,-6.875 -2.6739,-1.39927 -5.4196,-2.74141 -7.8438,-4.5625 -0.7398,-0.71221 -1.4444,-1.46123 -1.9062,-2.40625 -4.5046,-7.04366 -8.8209,-14.23319 -12.7188,-21.625 -2.2003,-4.32035 -4.4651,-8.61832 -6.5937,-12.96875 -0.02,-0.96074 1.1682,-1.05325 1.8125,-1.46875 15.8173,-6.94499 31.548,-14.03753 47.3438,-21.03125 l 21.75,-9.6875 c -28.8439,-1.37401 -57.6874,-2.75596 -86.5313,-4.125 -4.1155,-10.86081 -7.2087,-22.07378 -10.2187,-33.28125 -1.4077,-5.76043 -2.6464,-11.5673 -3.8438,-17.375 -0.6827,-3.33244 -1.3323,-6.66899 -1.8438,-10.03125 0.685,-0.99307 2.0259,-0.41519 3.0313,-0.59375 30.6739,-0.85412 61.3577,-1.56704 92.0313,-2.4375 -33.3022,-16.32308 -66.6047,-32.64484 -99.9063,-48.96875 -0.5022,-10.46874 -0.019,-20.95183 0.5625,-31.40625 0.5768,-8.36609 1.4782,-16.7247 2.625,-25.03125 0.9479,-6.73064 1.9286,-13.43668 3.3125,-20.09375 0.1432,-0.58578 0.2351,-1.21524 0.4063,-1.78125 0.6111,-0.48949 1.3355,0.26714 1.75,0.53125 3.539,1.94411 6.8431,4.28133 10.3124,6.34375 29.5011,18.39094 58.9361,36.85961 88.4376,55.25 -31.5933,-28.20894 -63.191,-56.41303 -94.7813,-84.625 0.5514,-4.19238 2.2429,-8.12666 3.3437,-12.1875 2.1447,-7.11434 4.696,-14.09845 7.2813,-21.0625 1.905,-4.94437 3.8529,-9.86009 5.9687,-14.71875 4.8633,-11.16556 10.3752,-22.04127 16.1563,-32.75 4.9496,-8.88774 10.386,-17.5197 16.0937,-25.9375 0.5389,-0.71253 1.0625,-1.79941 2.125,-1.5625 0.9113,0.39646 1.1798,1.47716 1.5938,2.3125 0.9628,1.45337 1.784,3.23603 2.6875,4.84375 7.71,14.42089 15.4033,28.87787 23.375,43.15625 3.7728,6.70901 7.619,13.36455 11.875,19.78125 4.2151,6.52144 8.7756,12.82401 13.5625,18.9375 1.6817,2.21176 3.5166,4.47097 5.0938,6.65625 6.941,8.10783 14.3006,15.82938 22.0312,23.1875 8.3193,8.05977 17.2915,15.45699 25.6562,23.46875 6.2102,5.86193 12.3585,11.76297 18.6563,17.53125 0.9766,0.86315 1.8671,1.87829 3.0313,2.46875 0.8672,0.80161 1.9462,1.42076 2.9374,2.1875 3.6256,2.58699 7.4266,5.1908 11.875,6.0625 3.5016,0.7706 7.1608,0.54205 10.625,-0.3125 3.0959,-0.68273 6.1032,-1.93879 8.625,-3.875 1.1477,-0.8579 2.4642,-1.65806 3.1563,-2.875 2.8944,-3.85651 5.2204,-8.13586 6.5625,-12.78125 2.543,-8.2336 3.4289,-16.88842 3.75,-25.46875 0.2785,-7.37069 -0.099,-14.7258 -0.8125,-22.0625 -0.6263,-8.08798 -1.4815,-16.16779 -2.4687,-24.21875 -0.2374,-1.29934 -0.1514,-2.71777 -0.5938,-3.9375 -10.484,-5.75466 -20.9719,-11.49259 -31.4375,-17.28125 -4.3216,-2.40404 -8.6904,-4.74331 -12.9687,-7.21875 -0.3334,-0.86542 0.6013,-1.46395 1.375,-1.4375 8.4671,-0.93391 16.9321,-1.80678 25.4374,-2.3125 3.0961,-0.26042 6.2183,-0.26733 9.3126,-0.53125 2.2126,-0.61566 3.8445,-2.33626 5.75,-3.53125 1.2372,-0.84118 2.3057,-2.10862 3.4062,-3.21875 5.3467,-5.66556 10.2244,-11.78306 16.0312,-17 2.7214,-2.36442 5.4093,-4.79604 8.3438,-6.875 3.6149,-2.50035 7.6605,-4.25771 11.7188,-5.90625 6.375,-2.45312 13.2421,-3.5732 20.0624,-3.46875 6.2174,0.10379 12.4465,1.3539 18.1563,3.84375 4.2193,1.79416 8.3277,3.93977 11.7813,6.96875 5.7617,4.74922 10.9911,10.14701 15.625,16 2.9072,3.53827 5.8921,6.98705 8.4687,10.78125 4.0152,5.58909 7.4743,11.54132 11.0625,17.40625 8.8322,14.85878 17.4148,29.86164 26.25,44.71875 5.0338,8.45948 10.0902,16.89353 15.3438,25.21875 4.4626,7.05658 9.1759,13.96956 14.2187,20.625 1.0986,1.30811 1.9119,2.67227 3.2187,3.78125 1.134,1.10271 2.4923,1.84948 3.75,2.875 1.9728,1.296 3.8017,2.9242 6.0626,3.6875 1.1527,0.26207 2.4666,-0.3336 2.9062,-1.4375 1.6793,-2.50518 1.9981,-5.60352 2.5625,-8.5 1.3122,-8.71086 1.832,-17.52986 2.4063,-26.3125 0.3615,-7.74608 1.1269,-15.49972 0.4374,-23.25 -0.3237,-4.94939 -1.2852,-9.84925 -2.1874,-14.71875 -1.3502,-6.7816 -3.1081,-13.46939 -5.1876,-20.0625 -2.0298,-6.58756 -4.4025,-13.0556 -6.8437,-19.5 -4.3327,-11.09737 -9.2213,-21.97886 -14.4375,-32.6875 -2.9003,-5.92298 -5.8474,-11.82115 -9.0312,-17.59375 -5.679,-10.53839 -11.5635,-20.95854 -17.625,-31.28125 -5.9147,-10.07681 -12.1331,-19.96796 -18.375,-29.84375 -5.5616,-8.57685 -11.1004,-17.14793 -16.9063,-25.5625 -6.8852,-10.069339 -13.8868,-20.081386 -21.0313,-29.96875 -7.2808,-10.04312 -14.7143,-19.974349 -22.1874,-29.875 8.3439,-1.275421 16.7159,-2.268941 25.125,-3 7.7419,-0.651975 15.5119,-1.10585 23.2812,-1.21875 1.6228,-0.04799 3.2514,-0.07386 4.875,-0.0625 8.49,0.209124 17.0001,0.34961 25.4688,1.03125 10.5567,0.781085 21.0826,2.016786 31.5312,3.71875 5.2128,0.79467 10.3741,1.815508 15.5625,2.75 11.4464,33.272149 22.791,66.56334 34.125,99.875 3.9861,11.82827 7.9826,23.67173 11.9687,35.5 1.1549,-40.50002 2.3215,-80.99987 3.4688,-121.5 7.1672,2.929757 14.4059,5.694074 21.4688,8.875 2.6311,1.177577 5.2333,2.402049 7.8437,3.625 4.6252,2.185817 9.2088,4.488891 13.75,6.84375 5.3295,2.652322 10.5082,5.57584 15.625,8.625 8.4312,4.96546 16.5931,10.37089 24.5937,16 1.5736,1.10776 3.1656,2.25902 4.5938,3.5 0.6051,1.28843 -0.2004,2.67448 -0.2812,4 -5.1785,30.95503 -10.4074,61.89005 -15.5938,92.84375 -1.2134,7.12319 -2.4116,14.2518 -3.625,21.375 16.3534,-31.32329 32.7127,-62.6436 49.0625,-93.96875 5.9849,5.66426 11.9155,11.36973 17.5937,17.34375 8.0966,8.41229 15.5848,17.40095 22.9688,26.4375 3.4697,4.15209 6.6937,8.57992 9.8438,13 1.4139,2.03678 2.8811,4.02831 4.1562,6.15625 -4.948,7.05473 -10.0924,13.96462 -15.1562,20.9375 -10.2644,14.02816 -20.5521,28.06276 -30.8126,42.09375 -5.0365,6.94853 -10.1212,13.84604 -15.2187,20.75 23.5452,-19.49317 47.0976,-38.97281 70.5625,-58.5625 1.2917,-1.11438 2.6185,-2.19464 3.9062,-3.3125 2.9734,4.42255 5.1413,9.29982 7.6563,13.96875 2.2894,4.48455 4.4712,9.04306 6.625,13.59375 3.8224,8.23749 7.4261,16.56905 10.5625,25.09375 4.0875,10.87302 7.6549,21.9487 10.5938,33.1875 0.2461,0.69033 0.4677,1.62626 -0.25,2.09375 -1.2039,0.8633 -2.4035,1.92243 -3.5938,2.875 -3.5203,2.85196 -6.9803,5.73776 -10.5625,8.5 -0.8156,0.62047 -1.7058,1.4746 -2.5937,2.125 -10.432,8.29231 -20.8494,16.58269 -31.2813,24.875 17.6357,-6.43662 35.2689,-12.88028 52.9063,-19.3125 1.5047,6.66599 2.5799,13.40871 3.4374,20.1875 1.0851,7.85464 2.0136,15.74486 2.5626,23.65625 0.4311,5.82876 0.7157,11.68877 0.875,17.53125 0.078,2.92037 0.1076,5.82856 0.094,8.75 -6.7343,8.54446 -13.3089,17.21408 -20.0937,25.71875 -2.1952,2.19089 -4.1139,4.69181 -6.0938,7.09375 -0.5853,0.91248 -1.5005,1.84861 -2.2188,2.78125 -6.4623,7.73229 -13.1488,15.2856 -20.1874,22.5 -4.1592,4.24945 -8.4105,8.40762 -12.8126,12.40625 -6.1303,5.50802 -12.557,10.67034 -18.9687,15.84375 -3.5956,2.62906 -7.3312,5.15396 -11.0625,7.625 -5.8148,3.77763 -11.8273,7.2834 -18.0625,10.3125 -6.7255,3.43555 -13.6024,6.57853 -20.6563,9.28125 -8.2619,3.19687 -16.7146,5.83702 -25.3124,7.96875 -11.2863,2.8293 -22.8423,4.49865 -34.4063,5.6875 -9.1461,0.83294 -18.3481,1.19758 -27.5313,1.15625 -5.471,-0.0712 -10.9167,-0.30974 -16.375,-0.6875 -1.7065,-0.10014 -3.4192,-0.23107 -5.125,-0.34375 7.1308,5.08359 13.9013,10.67609 20.875,15.96875 5.4222,4.14258 10.7606,8.34226 16.2188,12.4375 10.2547,7.72358 20.6747,15.26543 31.2812,22.5 7.5625,5.2192 15.4418,9.99613 23.5626,14.28125 9.6358,4.98751 19.6535,9.15762 29.875,12.78125 8.8739,3.12576 17.8748,5.97296 26.9374,8.5 4.6578,1.30911 9.3309,2.52311 14.0313,3.65625 0.5555,0.1777 0.2529,0.85882 -0.125,1.0625 -2.5393,2.8026 -4.8703,5.79971 -7.3125,8.6875 -7.3786,8.91921 -15.3131,17.35257 -23.5312,25.5 -6.1574,6.03509 -12.4812,11.93328 -19.0938,17.46875 -1.9034,1.62189 -3.8216,3.22336 -5.6875,4.875 -2.2496,-0.87755 -4.2267,-2.24576 -6.3437,-3.375 -20.6547,-11.87383 -41.3142,-23.75117 -61.9688,-35.625 17.4893,16.61485 34.9807,33.22754 52.4688,49.84375 0.097,1.33065 -1.2323,1.96285 -2.1563,2.625 -8.5532,6.09453 -17.415,11.71188 -26.4687,17.03125 -4.3539,2.60886 -8.8613,4.97918 -13.3438,7.34375 -0.6689,0.43752 -1.5182,0.56656 -2.2188,0.125 -0.7077,-0.34999 -1.1169,-0.91119 -1.7812,-1.34375 -8.2781,-6.41049 -16.5656,-12.80826 -24.8438,-19.21875 1.6963,10.27168 3.5046,20.52858 5.4688,30.75 0.3113,0.59521 -0.1217,1.22638 -0.75,1.25 -10.2104,4.16024 -20.4524,8.26089 -30.9688,11.59375 -4.7731,1.55268 -9.5966,2.97949 -14.4062,4.40625 -0.508,0.39625 -1.2379,-0.12212 -1.25,-0.71875 -4.0489,-12.22899 -7.95,-24.50085 -11.9375,-36.75 -1.0209,-3.15434 -2.0416,-6.31441 -3.0625,-9.46875 1.0384,16.79117 2.0823,33.58246 3.0938,50.375 -6.8606,1.25711 -13.6486,2.93996 -20.5313,4.09375 -5.9083,1.068 -11.8487,1.89592 -17.8125,2.59375 l 7.2812,35.15625 c 5.8969,-0.75561 11.793,-1.64729 17.6563,-2.625 12.7867,-2.16745 25.4018,-5.2053 37.9063,-8.625 9.2722,-2.66499 18.482,-5.55485 27.5312,-8.90625 7.2738,-2.64011 14.4554,-5.53407 21.5625,-8.59375 11.6094,-4.98224 22.8449,-10.76726 34.0313,-16.625 4.8543,-2.51192 9.613,-5.21404 14.2812,-8.0625 7.4221,-4.59008 14.7176,-9.38226 21.875,-14.375 3.5084,-2.48695 6.9665,-5.04727 10.3125,-7.75 1.1156,-0.80953 2.2788,-1.88434 3.4063,-2.8125 9.5226,-8.12568 19.2402,-16.05471 28.3437,-24.65625 9.8259,-9.3364 19.1422,-19.204 28.0625,-29.40625 4.7378,-5.50241 9.3975,-11.07161 14,-16.6875 0.5715,-0.87871 1.3356,-1.91048 2.0625,-2.75 1.373,-1.45537 2.5341,-2.93003 3.6563,-4.5625 5.2148,-6.99114 10.0643,-14.21898 14.7187,-21.59375 4.8583,-7.59056 9.4396,-15.36493 13.5625,-23.375 1.9356,-3.73816 3.7429,-7.56231 5.6562,-11.3125 2.6568,-5.40235 5.2919,-10.81633 7.75,-16.3125 2.4725,-5.62065 4.8106,-11.29391 7,-17.03125 4.4838,-11.51377 8.4141,-23.23707 11.7813,-35.125 2.7838,-10.24568 5.2989,-20.58606 7.2187,-31.03125 1.3351,-6.95939 2.3997,-13.95067 3.375,-20.96875 1.0724,-8.10515 1.964,-16.24915 2.5313,-24.40625 1.1439,-14.76164 1.3956,-29.58119 0.8125,-44.375 -0.4459,-12.53633 -1.7169,-25.03129 -3.3125,-37.46875 -1.086,-8.22799 -2.2671,-16.45594 -3.9063,-24.59375 -2.1684,-10.80641 -4.8711,-21.48623 -7.9687,-32.0625 -2.031,-6.74116 -4.1121,-13.48931 -6.4687,-20.125 -4.2375,-11.9668 -9.0079,-23.74434 -14.375,-35.25 -2.6531,-5.67868 -5.4726,-11.2723 -8.2813,-16.875 -4.5825,-8.91238 -9.3126,-17.76392 -14.8125,-26.15625 -3.0965,-4.80147 -6.262,-9.55306 -9.4688,-14.28125 -2.3273,-3.3516 -4.7235,-6.66162 -7.1562,-9.9375 -0.5384,-0.72039 -1.3927,-1.44213 -1.875,-2.3125 -1.0174,-1.33936 -1.9656,-2.5664 -3.0938,-3.84375 -6.1362,-7.30946 -12.1565,-14.70693 -18.5312,-21.8125 -5.2865,-5.91342 -10.8191,-11.62104 -16.4375,-17.21875 -7.4354,-7.39709 -15.2554,-14.40248 -23.25,-21.1875 -5.7456,-4.922117 -11.5847,-9.706566 -17.4375,-14.5 -0.9363,-0.630163 -1.8942,-1.509763 -2.8438,-2.25 -1.0472,-0.791796 -2.3324,-1.492702 -3.4062,-2.375 -10.107,-7.098427 -20.4181,-13.929551 -31.125,-20.09375 -6.2433,-3.488858 -12.5976,-6.774146 -19,-9.96875 -9.3664,-4.65541 -18.7926,-9.187101 -28.5,-13.09375 -10.7799,-4.447924 -21.7675,-8.392119 -32.9062,-11.84375 -10.5616,-3.339558 -21.3032,-6.083598 -32.125,-8.4375 -8.5901,-1.845495 -17.2347,-3.471933 -25.9376,-4.6875 -6.9589,-1.022284 -13.9661,-1.816312 -20.9687,-2.46875 -8.1425,-0.737091 -16.3011,-1.217778 -24.4687,-1.5625 -4.8803,-0.184287 -9.772,-0.375489 -14.6563,-0.40625 z M 1371.5938,230.875 c -0.3753,-0.0129 -0.7453,-0.004 -1.125,0.0312 -2.9558,0.15035 -5.5936,1.69209 -7.875,3.46875 -0.4095,0.2422 -0.8536,0.71574 -1.0938,1.15625 -1.4942,2.13585 -2.7841,4.52417 -2.9062,7.1875 -0.2202,3.15155 1.013,6.25305 3,8.65625 0.4708,0.71116 1.0034,1.33183 1.75,1.65625 1.6421,0.96166 3.202,2.16567 5.125,2.5 3.5473,0.84127 7.4232,-0.14716 10.25,-2.40625 0.5848,-0.41529 1.2465,-0.75053 1.5624,-1.34375 1.8025,-2.40692 3.3456,-5.21659 3.25,-8.3125 0.068,-2.82223 -1.1546,-5.48142 -2.7812,-7.71875 -0.514,-0.82378 -1.0802,-1.51616 -1.9688,-2 -2.0699,-1.57272 -4.5607,-2.78444 -7.1874,-2.875 z"
       inkscape:path-effect="#path-effect4091"
       id="path3852"
       d="m 1791.4813,236.80082 c 0,0 26.3642,74.17384 30.4003,100.76093 2.0201,13.30728 -7.5421,-16.27824 -18.9265,-51.37365 -11.3963,-35.13206 -24.6063,-75.73244 -29.7975,-84.63817 -5.1751,-8.87843 7.9847,31.49325 22.493,76.20008 14.5179,44.73604 30.3471,93.70728 30.7888,102.17408 0.4395,8.4273 -15.2926,-40.32403 -32.2685,-92.65952 -16.9815,-52.35276 -35.1786,-108.18856 -39.3733,-114.01655 -4.1681,-5.79098 14.0323,49.98666 33.1441,108.89181 19.1192,58.92791 39.1008,120.84599 38.9343,127.44968 -0.1652,6.55249 -20.0536,-55.15462 -40.9788,-119.6743 -20.9282,-64.52883 -42.8558,-131.74121 -46.6232,-136.24498 -3.7323,-4.46183 18.2068,62.72181 40.8341,132.47627 22.6343,69.77598 45.9006,141.96305 45.4219,147.61565 -0.4735,5.59228 -23.7359,-66.66008 -47.9565,-141.35018 -24.2224,-74.69532 -49.3577,-151.67504 -52.9286,-155.56358 -3.5401,-3.85493 7.9264,31.23614 18.4626,63.57634 10.5377,32.34469 20.1329,61.89233 13.002,46.97303 -14.2714,-29.8585 -38.5255,-118.18044 -45.2796,-124.86828 -6.7542,-6.68784 33.0648,101.35113 29.4795,104.36734 -3.5854,3.0162 -8.5942,-26.39731 -11.7277,-21.99744 -3.1336,4.39987 8.1394,25.00461 4.5466,27.99882 -3.5928,2.99421 -7.6839,-23.61018 -10.8422,-19.28425 -3.1583,4.32594 7.2493,22.2784 3.6551,25.26905 -3.5943,2.99066 -6.8151,-20.94841 -9.9731,-16.61972 -3.158,4.32868 6.3788,19.61031 2.7832,22.59793 -3.5955,2.98761 -5.9426,-18.2737 -9.1045,-13.95484 -3.1618,4.31887 5.509,16.94239 1.9123,19.92746 -3.5966,2.98508 -5.0741,-15.60872 -8.2366,-11.28998 -3.1624,4.31875 4.6399,14.275 1.0423,17.25805 -3.5976,2.98305 -4.2048,-12.93943 -7.3676,-8.61974 -3.1627,4.31968 3.77,11.60272 0.1716,14.58425 -3.5984,2.98152 -3.3344,-10.2647 -6.4971,-5.94301 -3.1627,4.32169 2.8987,8.92447 -0.7004,11.90498 -3.599,2.98051 -2.4644,-7.58967 -5.6227,-3.25243 -3.1583,4.33724 2.0237,6.23287 -1.5758,9.21287 -3.5995,2.98 -1.5814,-4.87208 -4.7472,-0.55627 -3.1659,4.31581 1.1477,3.53621 -2.4521,6.5162 -3.5997,2.97999 -0.7145,-2.20237 -3.8863,2.09691 -3.1719,4.29933 -1.5134,2.37326 -1.5134,2.37326 m 109.0743,26.5489 c 0,0 11.3633,33.31154 22.5181,67.86263 11.1578,34.56024 22.1007,70.33589 21.4125,75.3079 -0.6866,4.95989 -9.8382,-23.49494 -18.5541,-50.52566 -8.7153,-27.02889 -16.9883,-52.61738 -15.8132,-41.91571 2.3505,21.40696 32.9955,102.37591 31.3201,111.37468 -1.6754,8.99877 -28.8573,-89.61173 -29.5876,-77.71904 -0.7304,11.89269 27.9039,86.69228 25.9611,94.86581 -1.9428,8.17354 -27.9462,-86.86151 -31.1736,-82.70691 -3.2273,4.1546 29.2376,90.90188 27.0956,98.46135 -2.1419,7.55947 -30.3207,-94.29994 -33.5493,-90.14733 -3.2285,4.15261 31.3971,97.67475 29.0818,104.69887 -2.3153,7.02412 -32.3025,-100.5221 -35.561,-96.46046 -3.2584,4.06165 33.2432,103.47705 30.7913,110.07957 -2.4519,6.60251 -34.1443,-106.31176 -37.3979,-102.23335 -3.2535,4.07841 34.9489,108.84507 32.3939,115.12997 -2.555,6.2849 -35.6584,-111.08579 -38.9753,-107.20237 -3.3168,3.88342 36.4283,113.51254 33.743,119.39378 -1.3418,2.93857 -10.578,-25.93431 -19.9276,-55.07968 -9.3484,-29.14174 -18.8101,-58.5546 -20.4915,-56.67781 -3.3601,3.7504 37.7232,117.60604 34.9595,123.24556 -1.3809,2.81763 -10.9302,-27.05135 -20.5912,-57.18181 -9.6598,-30.12669 -19.4308,-60.51334 -21.137,-58.71218 -3.4093,3.59906 38.9624,121.52732 36.1704,127.08158 -1.3949,2.77486 -11.2578,-28.09225 -21.2372,-59.23045 -9.9781,-31.13423 -20.0725,-62.53777 -21.8045,-60.81598 -3.4607,3.44021 40.2489,125.59861 37.337,130.78048 -1.4547,2.58862 -11.6196,-29.24065 -21.8947,-61.31555 -10.2737,-32.07089 -20.6573,-64.38559 -22.4166,-62.74776 -3.5151,3.27223 41.3958,129.23421 38.389,134.1216 -1.5019,2.44135 -11.9433,-30.27007 -22.4932,-63.21659 -10.5485,-32.94249 -21.2051,-66.11813 -22.9985,-64.58505 -1.7892,1.52955 8.8647,34.70205 19.5497,68.07637 10.6865,33.37925 21.4026,66.95651 19.8703,69.32029 -1.5287,2.35826 -12.2425,-31.22297 -23.0643,-65.03219 -10.8205,-33.8051 -21.7484,-67.83611 -23.5593,-66.35675 -1.8065,1.47578 9.1203,35.50827 20.072,69.72937 10.9533,34.22606 21.9303,68.63706 20.3637,70.8946 -1.5628,2.25201 -12.5315,-32.1438 -23.6085,-66.76349 -11.0756,-34.61555 -22.2589,-69.45277 -24.0988,-68.0629 -1.8353,1.38635 9.3466,36.22377 20.5494,71.24257 11.2044,35.02366 22.4284,70.22506 20.8234,72.36373 -1.6008,2.13318 -12.8264,-33.08341 -24.1622,-68.52493 -11.3345,-35.43745 -22.7787,-71.09739 -24.6583,-69.83052 -1.8747,1.26351 9.5589,36.89461 21.0124,72.70959 11.4551,35.81971 22.9288,71.81948 21.287,73.84399 -1.6373,2.01907 -13.1069,-33.97786 -24.6867,-70.19459 -11.5786,-36.2127 -23.2669,-72.64263 -25.1768,-71.46938 -1.9047,1.16999 9.7807,37.59496 21.4876,74.21407 11.7084,36.62382 23.4368,73.43764 21.7776,75.40892 -1.6544,1.96574 -13.3795,-34.84806 -25.2216,-71.89664 -11.8407,-37.04456 -23.7977,-74.32096 -25.744,-73.26037 -1.9407,1.0575 10.0166,38.33858 21.9983,75.82892 11.9831,37.49501 23.989,75.19468 22.3125,77.11276 -1.6715,1.91241 -13.6785,-35.80095 -25.8062,-73.75488 -12.1264,-37.94989 -24.3728,-76.13709 -26.3437,-75.15213 -3.9357,1.96695 35.9917,112.52724 31.0254,111.27457 -4.9662,-1.25268 -34.9596,-109.30282 -38.9455,-107.49175 -3.9859,1.81107 33.9789,106.23789 28.9644,104.83414 -5.0145,-1.40375 -32.9494,-103.02035 -36.9937,-101.39104 -4.0442,1.6293 31.9802,99.9902 26.9185,98.43871 -5.0617,-1.55148 -30.9625,-96.80871 -35.0617,-95.3506 -4.0993,1.4581 30.0002,93.79972 24.8884,92.09144 -5.1118,-1.70828 -28.9879,-90.6341 -33.1429,-89.34961 -4.1549,1.28449 28.0371,87.6602 22.8596,85.74624 -5.1776,-1.91395 -27.0148,-84.46245 -31.2235,-83.34573 -4.2088,1.11672 26.0491,81.4418 20.7764,79.23009 -5.2727,-2.21172 -24.9826,-78.10513 -29.2479,-77.16471 -4.2653,0.94041 23.9797,74.96705 18.5813,72.36234 -5.3984,-2.60472 -22.8478,-71.42568 -27.1709,-70.66541 -4.3231,0.76028 21.7716,68.05771 16.1987,64.90741 -5.5729,-3.1503 -20.523,-64.15097 -24.8941,-63.5405 -4.3711,0.61046 19.3254,60.40318 13.5784,56.70896 -5.747,-3.69422 -17.9507,-56.10243 -22.3599,-55.61075 -4.4092,0.49168 16.5874,51.83666 10.7155,47.75341 -5.8718,-4.08324 -15.1261,-47.26618 -19.5917,-46.95078 -4.4657,0.3154 13.7194,42.8659 7.7785,38.56855 -5.9409,-4.29735 -12.2443,-38.25358 -16.7549,-38.07838 -4.5106,0.17519 10.813,33.77784 4.8086,29.28372 -6.0044,-4.49413 -9.3193,-29.1089 -13.8738,-29.07072 -4.5545,0.0382 7.8619,24.55333 1.7968,19.87173 -6.0651,-4.68159 -6.3518,-19.83513 -10.9657,-19.98252 -4.6139,-0.1474 4.9236,15.37286 -1.1643,10.6224 -6.0879,-4.75045 -3.4508,-10.77343 -8.1105,-11.06377 -4.6597,-0.29034 1.9854,6.19728 -3.9987,1.77278 -5.9843,-4.42455 -2.9992,-2.23407 -2.9992,-2.23407 m 223.4378,-213.65416 c 0,0 7.625,16.49298 3.5392,17.98357 -4.0845,1.49009 -5.3437,-16.50531 -8.961,-13.57364 -3.6173,2.93168 4.8765,15.06376 0.7922,16.55448 -4.0844,1.49071 -4.4323,-13.69339 -8.0473,-10.75359 -3.6149,2.9398 3.9629,12.24433 -0.1214,13.73547 -4.0843,1.49113 -3.502,-10.82201 -7.134,-7.93387 -3.6319,2.88814 3.0498,9.42503 -1.0345,10.91638 -4.0843,1.49135 -2.5974,-8.02816 -6.2294,-5.13943 -3.6321,2.88873 2.1451,6.63081 -1.9393,8.12216 -4.0843,1.49136 -1.6927,-5.23335 -5.325,-2.3446 -3.6323,2.88875 1.2407,3.83598 -2.8438,5.32714 -4.0845,1.49115 -0.7885,-2.43832 -4.4213,0.44987 -3.6328,2.88822 -1.7056,1.78668 -1.7056,1.78668 m -31.3258,-236.69359 c 0,0 32.2846,91.86664 23.9529,80.33914 -8.317,-11.50732 -27.2309,-83.37945 -33.5963,-88.8736 -6.3653,-5.494155 25.5166,78.09549 18.0529,69.21516 -7.4638,-8.88034 -24.4168,-74.705084 -30.6823,-79.891411 -6.2655,-5.186328 23.2038,70.966601 16.2318,63.599791 -6.9719,-7.36681 -22.5704,-69.009334 -28.5786,-73.407881 -6.0081,-4.398547 21.6411,66.146821 14.9823,59.743671 -6.6587,-6.40315 -20.9628,-64.05776 -26.8185,-67.989496 -5.8557,-3.931735 21.1014,64.467956 18.2926,69.848886 -2.8088,5.38094 -24.1507,-73.788119 -29.8918,-77.368779 -5.741,-3.58066 27.083,82.749699 24.2735,88.131309 -2.8095,5.38161 -30.0286,-91.754892 -35.6145,-94.861413 -5.5859,-3.10652 18.1494,55.397053 12.1066,50.886353 -6.0428,-4.5107 -17.6828,-53.963235 -23.1755,-56.784894 -5.4927,-2.821659 17.178,52.412614 11.3479,48.553694 -5.83,-3.85893 -16.8375,-51.365945 -22.2793,-54.031777 -5.4418,-2.665833 16.4475,50.167407 10.754,46.726785 -5.6935,-3.440623 -16.2002,-49.406069 -21.58,-51.882305 -5.3797,-2.476236 15.8753,48.407472 10.3051,45.344404 -5.5701,-3.063067 -15.6877,-47.829374 -20.9755,-50.024813 -5.2877,-2.195439 15.4357,47.054317 9.9568,44.270885 -5.4788,-2.783433 -15.2496,-46.481805 -20.4794,-48.500354 -5.2298,-2.018549 14.9992,45.712571 9.6003,43.173785 -5.3989,-2.538785 -14.8294,-45.190227 -19.9954,-47.014364 -5.1661,-1.824138 14.5859,44.443166 9.2724,42.165415 -5.3135,-2.277751 -14.4379,-43.987779 -19.5452,-45.632994 -5.1074,-1.645214 14.2436,43.39175 8.9841,41.279096 -5.2595,-2.112655 -14.0958,-42.9375 -19.1509,-44.423367 -5.055,-1.485866 12.2583,37.327751 11.8943,50.147222 -0.364,12.819471 -16.9479,-51.6287 -21.9426,-52.930823 -4.9948,-1.302123 21.5785,65.749984 21.2124,78.579425 -0.366,12.82945 -26.2059,-79.877863 -31.1509,-81.028422 -4.945,-1.150559 30.7848,93.857562 30.4173,106.699472 -0.1836,6.41964 -8.9967,-20.54033 -18.4033,-49.236037 -9.4064,-28.694999 -19.406,-59.119992 -21.8587,-59.626852 -4.8996,-1.012514 39.8945,121.704479 39.5265,134.561369 -0.1838,6.42501 -11.2477,-27.46245 -22.9155,-63.07719 -11.6669,-35.612067 -23.9354,-72.938833 -26.3674,-73.379054 -2.425,-0.438944 9.8475,36.888224 22.6384,75.936114 12.7956,39.06208 26.0931,79.79921 25.9088,86.25112 -0.1836,6.43103 -13.473,-34.32389 -27.3792,-76.79662 -13.9045,-42.467392 -28.4208,-86.631506 -30.8281,-86.992197 -4.8034,-0.719687 12.7418,38.784649 7.8807,37.887916 -4.861,-0.896733 -12.687,-38.616674 -17.4522,-39.220231 -4.7652,-0.603558 12.582,38.295479 7.7567,37.507845 -4.8252,-0.787635 -12.5207,-38.107596 -17.2475,-38.594414 -4.7268,-0.486818 12.4181,37.794137 7.6304,37.120846 -4.7877,-0.673292 -12.358,-37.610185 -17.0466,-37.980596 -4.6885,-0.370411 12.2591,37.308132 7.5155,36.769261 -4.7436,-0.538872 -12.2031,-37.136803 -16.8605,-37.412538 -4.6574,-0.275735 12.1172,36.874386 7.4156,36.463752 -4.7015,-0.410634 -12.0728,-36.738936 -16.7049,-36.937905 -4.6322,-0.19897 11.9994,36.515112 7.3406,36.234472 -4.6589,-0.280641 -11.9734,-36.435394 -16.5835,-36.5670847 -4.61,-0.1316902 11.9285,36.2982277 7.3125,36.1481247 -4.616,-0.150102 -11.9277,-36.29567 -16.4836,-36.2626849 -4.5558,0.032985 11.8712,36.1235609 7.2684,36.0134389 -4.6029,-0.110122 -11.813,-35.9463986 -16.3183,-35.759659 -4.5053,0.18674 11.731,35.697239 7.198,35.799792 -4.533,0.102552 -11.7029,-35.611787 -16.1915,-35.374433 -4.4887,0.237358 11.6559,35.469474 7.1672,35.706832 -4.4912,0.229975 -11.6568,-35.472429 -16.1199,-35.157502 -4.4632,0.314928 11.6298,35.390668 7.174,35.72859 -4.4557,0.337922 -11.6395,-35.420883 -16.0606,-34.977961 -4.4211,0.442935 11.6056,35.318457 7.1844,35.761392 -4.4209,0.443984 -11.6012,-35.305611 -15.9965,-34.784487 -4.3953,0.521123 11.5755,35.228346 7.1865,35.769563 -4.389,0.541217 -11.5825,-35.250633 -15.9551,-34.660369 -4.3726,0.590263 11.566,35.201486 7.2092,35.840836 -4.3568,0.639351 -11.5825,-35.252707 -15.9267,-34.575991 -2.1594,0.336382 20.9544,70.675739 43.1764,138.725132 22.2143,68.02592 43.5678,133.84413 38.4147,125.02088 -5.1083,-8.74653 -26.509,-74.61524 -47.2326,-138.03487 -20.7401,-63.469612 -40.8513,-124.647778 -43.0158,-124.263186 -2.148,0.381652 17.854,61.24918 37.1635,120.329536 19.3049,59.06615 37.9374,116.39772 33.451,109.63644 -4.4565,-6.71626 -23.1186,-64.07577 -41.2586,-119.5501 C 1372.207,71.550101 1354.5525,17.84198 1352.41,18.288486 c -2.1298,0.443863 15.6213,54.461086 32.9233,107.368974 17.2996,52.90044 34.1617,104.72277 30.5773,100.73961 -3.5646,-3.96105 -20.4404,-55.791 -37.0157,-106.46235 -16.5793,-50.68335 -32.8709,-100.25112 -34.9941,-99.747858 -2.1125,0.500717 14.1892,50.109131 30.1941,99.034778 16.0038,48.92229 31.7176,97.18019 28.7075,94.96307 -2.9954,-2.20637 -18.7157,-50.46598 -34.2737,-98.01815 -15.5596,-47.557019 -30.9631,-94.428153 -33.0717,-93.881829 -2.0991,0.543835 13.3385,47.525673 28.5797,94.110009 15.2408,46.5835 30.2892,92.77994 27.6652,91.7488 -2.6122,-1.02654 -17.6642,-47.22562 -32.6456,-93.01297 -14.9817,-45.788596 -29.896,-91.176432 -31.9902,-90.586701 -2.0852,0.587203 12.8336,45.994459 27.6103,91.157481 14.7768,45.16358 29.4138,90.08918 27.0042,89.71586 -2.3995,-0.37175 -17.0374,-45.29644 -31.6535,-89.96811 -14.6159,-44.671229 -29.2117,-89.095627 -31.2922,-88.464598 -2.072,0.628433 12.5255,45.062634 27.0159,89.352118 14.4909,44.29097 28.876,88.44085 26.6099,88.50806 -2.2568,0.0669 -16.6426,-44.08432 -31.0387,-88.08664 -14.3957,-44.000881 -28.8027,-87.8563 -30.8717,-87.190534 -2.0607,0.663094 12.3453,44.51965 26.6712,88.309864 14.3266,43.79243 28.5738,87.52013 26.4215,87.9366 -2.1437,0.4148 -16.3897,-43.31095 -30.6694,-86.96186 -14.2789,-43.648679 -28.592,-87.224233 -30.6411,-86.497908 -2.041,0.723449 12.2701,44.296955 26.5257,87.877448 14.2566,43.58353 28.4577,87.17376 26.4212,87.94591 -2.0285,0.76907 -16.2284,-42.82176 -30.4868,-86.414 -14.2574,-43.589219 -28.5732,-87.179911 -30.6033,-86.395472 -2.0221,0.781329 12.2899,44.364183 26.563,88.004872 14.2743,43.64442 28.509,87.34501 26.5581,88.38051 -1.9432,1.03136 -16.1751,-42.6664 -30.4846,-86.4229 -14.3084,-43.752887 -28.694,-87.563404 -30.7113,-86.73953 -2.0092,0.820579 12.3785,44.640877 26.7596,88.62035 14.3827,43.98435 28.7572,88.12331 26.9514,89.6056 -1.7985,1.47626 -16.17,-42.66304 -30.6538,-86.96238 -14.4823,-44.294731 -29.0759,-88.746357 -31.0766,-87.871708 -1.9926,0.871041 12.5957,45.309941 27.1878,89.945368 14.594,44.64103 29.1897,89.47273 27.4494,91.1574 -1.7329,1.67761 -16.3254,-43.15468 -31.0453,-88.18778 -14.7183,-45.027883 -29.5629,-90.25255 -31.5493,-89.333582 -1.978,0.915041 12.87,46.153375 27.7307,91.622402 14.8628,45.4754 29.7358,91.17432 28.0547,93.04235 -1.6737,1.8599 -16.543,-43.83987 -31.5547,-89.77812 -15.0097,-45.932397 -30.1603,-92.098354 -32.1346,-91.141534 -1.9655,0.952549 13.1892,47.134646 28.346,93.522734 15.1589,46.39463 30.3176,92.98858 28.6169,94.79757 -1.6929,1.80081 -16.849,-44.79698 -32.1427,-91.61146 -15.2916,-46.808433 -30.7197,-93.828913 -32.6848,-92.843265 -1.9559,0.98106 13.4666,47.989215 28.8338,95.034205 15.369,47.05012 30.6823,94.13571 28.771,95.29728 -1.9024,1.1562 -17.2137,-45.9305 -32.6058,-93.05664 -15.3904,-47.12121 -30.8613,-94.281107 -32.8104,-93.246672 -1.94,1.029596 13.4537,47.960612 28.7037,94.655052 15.2509,46.69719 30.3605,93.16453 28.1097,93.28056 -2.2405,0.11551 -17.3506,-46.3521 -32.4484,-92.58246 -15.0971,-46.22785 -30.1837,-92.224366 -32.1207,-91.154112 -1.9284,1.065519 13.1569,47.065842 28.1029,92.834952 14.9469,45.77198 29.7568,91.3191 27.5249,91.49255 -2.2222,0.1727 -17.0319,-45.37318 -31.8249,-90.67574 -14.7922,-45.29987 -29.5692,-90.362214 -31.4789,-89.208974 -1.9016,1.148343 12.8735,46.212474 27.5085,91.035224 14.636,44.82579 29.1343,89.41662 26.9167,89.63354 -2.2083,0.21602 -16.7061,-44.37295 -31.1834,-88.71456 -14.4763,-44.33884 -28.9336,-88.435925 -30.8233,-87.222259 -1.882,1.208732 12.5732,45.307789 26.888,89.156079 14.3157,43.85138 28.4934,87.45843 26.2836,87.69858 -2.2009,0.2392 -16.3795,-43.37012 -30.5338,-86.7288 -14.1533,-43.35593 -28.2838,-86.466594 -30.1614,-85.216292 -1.8637,1.241024 21.78,73.403342 45.2464,145.506572 23.4706,72.1163 46.7648,144.17629 44.8248,145.27807 -1.9191,1.08985 -25.2107,-70.97106 -48.6497,-142.99863 -23.4349,-72.01486 -47.0182,-143.999431 -48.8856,-142.693353 -1.847,1.291889 21.7227,73.247893 45.0534,144.950643 23.3337,71.71207 46.434,143.18688 44.26,143.56297 -2.1509,0.37208 -25.2512,-71.10318 -48.4283,-142.33851 -23.1743,-71.22642 -46.4298,-142.22755 -48.2775,-140.862655 -1.8281,1.350429 21.437,72.396485 44.3843,142.932945 22.9489,70.54111 45.5912,140.60411 43.1052,140.01169 -2.4606,-0.58635 -25.1066,-70.6503 -47.7248,-140.17453 -22.617,-69.5202 -45.2153,-138.531721 -47.0054,-136.993063 -1.7721,1.523218 20.8042,70.487733 42.9375,138.526503 22.1331,68.03816 43.8414,135.20193 40.8757,133.12057 -2.9377,-2.06178 -24.6565,-69.23154 -46.208,-135.47387 -21.5529,-66.24686 -42.9535,-131.61703 -44.7502,-130.102265 -1.7805,1.501174 19.5851,66.786815 40.4448,130.905385 20.8585,64.11501 41.2307,127.11805 37.9429,124.03618 -3.2607,-3.05641 -23.6474,-66.06889 -43.7633,-127.8893 -20.1189,-61.82965 -39.9846,-122.52647 -41.7754,-120.99774 -1.7769,1.51697 18.0763,62.19773 37.439,121.70541 19.3617,59.50486 38.2501,117.88415 34.957,114.78405 -3.2698,-3.07812 -22.1717,-61.46658 -40.7817,-118.64998 -18.6127,-57.19148 -36.9487,-113.22956 -38.7208,-111.6473 -1.7605,1.57191 16.5795,57.64312 34.4593,112.58524 17.8793,54.94057 35.3126,108.79142 32.0923,105.91485 -3.2009,-2.85921 -20.6453,-56.71588 -37.7978,-109.41384 -17.1544,-52.70398 -34.0292,-104.29129 -35.7785,-102.64191 -1.7395,1.64018 15.1386,53.25729 31.539,103.64723 16.4,50.3886 32.3353,99.58525 29.0085,96.3778 -3.3102,-3.19136 -19.2567,-52.39376 -34.8642,-100.33792 -15.6096,-47.95038 -30.8913,-94.68117 -32.6163,-92.96044 -1.717,1.71283 13.5666,48.46871 28.3314,93.8262 14.7644,45.35631 29.0217,89.34511 25.4945,85.51794 -3.5132,-3.81195 -17.7826,-47.80795 -31.6421,-90.37395 -13.8618,-42.57293 -27.3241,-83.752 -29.0264,-81.96474 -1.6961,1.78086 11.7467,42.91956 24.5619,82.27891 12.8151,39.35872 25.0124,76.96305 21.0106,71.67202 -3.9906,-5.27616 -16.2029,-42.89194 -27.8638,-78.69326 -11.6637,-35.81011 -22.7862,-69.84175 -24.4675,-67.99356 -1.6771,1.84355 9.5133,36.10207 19.8232,67.75506 10.3108,31.65594 19.7463,60.71573 14.6889,52.17657 -10.1146,-17.07813 -37.8715,-116.23756 -41.1899,-112.41666 -3.3184,3.82089 30.7154,94.22734 19.0862,72.53081 -11.6292,-21.69653 -22.4035,-68.70651 -25.6876,-64.77922 -3.2842,3.92728 14.6376,44.87145 11.5621,49.44901 -3.0755,4.57756 -14.845,-45.51794 -18.1044,-41.5131 -3.2593,4.00484 15.0285,46.08936 12.0194,50.87296 -3.0091,4.78359 -15.291,-46.9058 -18.5116,-42.78068 -3.2207,4.12511 15.4999,47.55621 12.5723,52.59272 -2.9276,5.03651 -15.79,-48.45854 -18.9005,-43.99395 -3.1104,4.46459 15.984,49.0645 13.1611,54.42556 -2.8228,5.36106 -16.2738,-49.96803 -19.3292,-45.33235 -3.0554,4.63569 16.5033,50.68398 13.7467,56.25168 -2.7567,5.56769 -16.8045,-51.62354 -19.7865,-46.76051 -2.982,4.86304 17.0258,52.3158 14.3634,58.17668 -2.6625,5.86088 -17.346,-53.31555 -20.2339,-48.16114 -2.8879,5.15441 17.5691,54.01466 15.0395,60.28841 -2.5295,6.27375 -17.9293,-55.13982 -20.7129,-49.66226 -2.7836,5.47756 18.1845,55.93928 15.7726,62.57978 -2.4118,6.6405 -18.5523,-57.09041 -21.3028,-51.50779 -2.7504,5.58262 18.8641,58.06519 16.6344,65.27221 -2.2296,7.20703 -19.3919,-59.71147 -22.0584,-53.8676 -2.6631,5.8364 18.7356,64.74799 18.7356,64.74799 m 550.5723,-188.44683 c 0,0 17.4527,46.40247 14.6398,51.78991 -2.8102,5.3824 -15.3591,-47.01123 -16.9069,-37.77821 -1.5479,9.23301 14.0967,43.16059 11.2858,48.54387 -2.8108,5.38328 -12.8339,-39.31145 -14.3853,-30.08055 -1.5513,9.23089 11.5745,35.46382 8.763,40.84809 -2.8115,5.38427 -10.3145,-31.61779 -11.8678,-22.38428 -1.5533,9.23352 9.0562,27.76854 6.2441,33.15391 -2.8121,5.38536 -7.7976,-23.92099 -9.3513,-14.6801 -1.5538,9.2409 6.5392,20.06545 3.7266,25.45202 -2.8127,5.38656 -5.2805,-16.21173 -6.8331,-6.95867 -1.5526,9.25306 4.0204,12.34522 1.2072,17.73309 -2.8132,5.38787 -2.7624,-8.48813 -4.325,0.74259 -1.5627,9.23079 0.1049,7.33991 0.1049,7.33991 m 84.9169,391.22481 c 0,0 14.5543,38.5013 11.1629,42.21102 -3.3876,3.70553 -12.8294,-40.27699 -16.1263,-36.29369 -3.2968,3.9833 12.7389,39.99999 9.3131,43.58661 -3.4259,3.58662 -12.6027,-39.58054 -15.9492,-35.75163 -3.3466,3.82892 12.5235,39.33894 9.0576,42.8008 -3.466,3.46187 -12.4056,-38.97643 -15.8071,-35.31852 -3.4015,3.6579 12.343,38.78634 8.832,42.10762 -3.511,3.32127 -12.2348,-38.45362 -15.6804,-34.93304 -3.4457,3.52058 12.1661,38.24415 8.6044,41.40685 -3.5618,3.1627 -12.047,-37.87649 -15.5375,-34.49571 -3.4906,3.38079 11.9732,37.6507 8.3824,40.72293 -3.5908,3.07224 -11.8715,-37.33762 -15.4028,-34.08369 -3.5313,3.25392 11.8097,37.14862 8.2088,40.19024 -3.6008,3.04162 -11.7388,-36.93227 -15.3217,-33.83953 -3.5829,3.09273 11.7207,36.8805 8.1241,39.93646 -3.5966,3.05596 -11.6327,-36.61011 -15.394,-34.0772 -3.7612,2.5329 11.7859,37.0971 8.1047,39.88733 -3.6812,2.79023 -12.7146,-40.02357 -18.2995,-43.22493 -5.585,-3.20136 14.6178,46.0137 10.8754,48.61203 -3.7423,2.59833 -16.4622,-51.81907 -22.0512,-55.0321 -5.589,-3.21303 18.3079,57.62745 14.5361,60.13346 -3.7719,2.50601 -11.4636,-36.10866 -15.2034,-33.50616 -3.7398,2.60249 11.4314,36.01193 7.6325,38.43307 -3.799,2.42115 -11.373,-35.83285 -15.1535,-33.35771 -3.7805,2.47515 11.3613,35.8002 7.5211,38.09182 -3.8403,2.29163 -11.3023,-35.6188 -15.1178,-33.25342 -3.8156,2.36537 11.2781,35.54695 7.386,37.67544 -3.892,2.12848 -11.2032,-35.31523 -15.0466,-33.0368 -3.8433,2.27844 11.1449,35.1349 7.2252,37.17677 -3.9196,2.04186 -11.066,-34.89039 -14.9602,-32.77195 -3.8943,2.11843 11.0417,34.81745 7.1088,36.81814 -3.9328,2.0007 -10.5313,-33.21292 -15.3984,-34.1595 -4.8671,-0.94657 11.4667,36.16377 7.5115,38.09441 -3.9551,1.93063 -12.9724,-40.91233 -19.0252,-45.59284 -6.0528,-4.68052 15.0712,47.52696 11.0847,49.35928 -3.9864,1.83233 -17.1367,-54.03751 -23.1918,-58.72306 -6.0551,-4.68555 19.2044,60.55225 15.1822,62.27187 -4.0223,1.71962 -11.592,-36.57613 -15.1474,-33.3876 -3.5553,3.18852 11.1257,35.109 7.0774,36.74644 -4.0484,1.63744 -10.8759,-34.32448 -14.9327,-32.7165 -4.0568,1.60798 10.8848,34.35558 6.8062,35.89747 -4.0787,1.5419 -10.8614,-34.2846 -14.9427,-32.75344 -4.0812,1.53116 10.8646,34.29709 6.7586,35.75306 -4.1059,1.45598 -10.8383,-34.21706 -14.9563,-32.80167 -4.118,1.41538 10.8496,34.25514 6.7097,35.60397 -4.1399,1.34883 -10.8325,-34.20361 -14.984,-32.89365 -4.1515,1.30997 10.8433,34.23999 6.6758,35.50166 -4.1676,1.26166 -10.8303,-34.20128 -15.0028,-32.9573 -4.1724,1.24399 10.8413,34.23826 6.6387,35.38906 -4.2027,1.15079 -26.4297,-83.37528 -25.3256,-65.5099 1.1041,17.86539 21.1219,66.65746 16.8945,67.73033 -4.2273,1.07288 -14.2746,-45.07807 -16.2251,-36.82298 -1.9506,8.2551 11.9984,37.89789 7.7446,38.88722 -4.2538,0.98934 -10.8693,-34.33629 -15.1494,-33.4318 -4.2802,0.9045 10.8963,34.42322 6.6108,35.31258 -4.2854,0.88936 -10.8829,-34.3825 -15.1932,-33.57315 -4.3103,0.80935 10.9084,34.46467 6.586,35.23711 -4.3225,0.77245 -10.8957,-34.42583 -15.2464,-33.74401 -4.3509,0.68185 10.9175,34.49686 6.5666,35.17871 -4.3533,0.67472 -10.9188,-34.50138 -15.3094,-33.94562 -4.3907,0.55575 10.9567,34.62242 6.5772,35.21462 -4.3792,0.59217 -4.0135,-5.47161 -4.0135,-5.47161 m 14.1527,-539.71446 c 0,0 12.1222,30.27089 15.2622,54.03954 3.1402,23.76912 -25.0512,-77.12323 -36.6743,-98.77772 -5.8139,-10.83166 3.7625,18.53369 14.6638,52.07562 10.9071,33.55996 23.1265,71.26885 22.7627,77.21444 -0.3627,5.929 -12.5378,-31.69304 -25.9185,-72.87285 -13.3879,-41.20196 -27.9576,-85.87742 -32.9539,-94.16599 -4.9774,-8.25718 9.6538,36.53851 25.2974,84.65931 15.6475,48.13292 32.2792,99.51688 31.5978,104.49686 -0.6778,4.95318 -17.2888,-46.42322 -34.9698,-100.82131 -17.6886,-54.42163 -36.4118,-111.74391 -41.0128,-118.80021 -4.5695,-7.00791 14.325,50.76848 33.7151,110.39973 19.3851,59.61568 39.2462,121.03429 37.017,121.23296 -2.2116,0.1971 -22.0548,-61.18419 -42.5417,-124.17896 -20.4973,-63.02686 -41.608,-127.56672 -45.9597,-133.84722 -4.3138,-6.225922 16.7882,58.22764 37.9801,123.35564 21.1795,65.08988 42.4424,130.83788 38.9117,127.0102 -3.4988,-3.79318 -24.7731,-69.55137 -46.3167,-135.7309 -21.5591,-66.22766 -43.3766,-132.84125 -47.5551,-138.585893 -4.1398,-5.691433 17.6235,60.710363 39.1395,126.765893 21.4998,66.00596 42.7561,131.67492 38.0677,124.26996 -4.6471,-7.33978 -25.9254,-73.01261 -47.1317,-138.07221 -21.2272,-65.12368 -42.3951,-129.675014 -46.4668,-135.092155 -4.0401,-5.374931 15.8369,56.935045 36.6181,120.643975 20.7767,63.69515 42.4257,128.73186 42.4257,128.73186 m 164.197,354.84839 c 0,0 10.0901,24.54207 3.5456,18.32459 -6.5431,-6.21615 -6.3402,-19.93118 -11.9298,-23.14461 -5.5896,-3.21342 5.3868,16.92855 -1.1579,10.71159 -6.5446,-6.21696 -4.4317,-13.92502 -10.0217,-17.13867 -5.5901,-3.21366 3.4771,10.9218 -3.0692,4.70331 -6.5464,-6.21849 -2.5209,-7.91697 -8.1113,-11.13083 -5.5904,-3.21385 1.5649,4.91243 -4.9835,-1.30831 -6.5485,-6.22086 -3.4024,-3.51255 -3.4024,-3.51255 m -114.341,114.4576 c 0,0 9.6049,23.12642 7.5977,31.2218 -2.007,8.09468 -12.5428,-39.64275 -25.7361,-66.82878 -13.1934,-27.18603 22.5328,71.14094 18.1079,71.5894 -4.4249,0.44847 -31.3011,-98.77514 -44.5652,-126.10688 -6.6357,-13.67329 3.4458,17.98055 14.5826,53.07435 11.1392,35.1016 23.337,73.66426 21.1069,73.84757 -2.2233,0.18275 -14.4141,-38.38023 -27.7611,-80.42446 -13.3608,-42.08763 -27.8392,-87.52525 -34.5283,-101.30873 -6.6674,-13.73862 7.8707,31.78373 23.4411,80.77965 15.5701,48.99512 32.166,101.45841 29.9185,101.59766 -2.2332,0.13837 -18.4725,-51.21155 -34.7092,-102.30249 -16.2356,-51.08752 -32.4709,-101.92398 -34.3824,-100.74158 -1.9012,1.176 14.3313,52.01333 30.3963,102.5686 16.0661,50.55887 31.968,100.84505 29.7077,100.9368 -2.2484,0.0913 -18.1508,-50.19507 -34.0501,-100.23073 -15.8983,-50.0327 -31.7955,-99.82211 -33.7332,-98.72223 -1.9277,1.09418 13.967,50.88439 29.7001,100.40154 15.7342,49.52025 31.3099,98.77614 29.0338,98.81719 -2.2645,0.0408 -17.841,-49.21552 -33.4132,-98.22775 -15.5714,-49.00971 -31.1406,-97.78222 -33.1033,-96.76105 -1.953,1.01609 13.6151,49.79334 29.0257,98.30059 15.4114,48.50985 30.6682,96.75792 28.3702,96.72863 -2.2869,-0.0292 -17.5437,-48.27512 -32.7906,-96.26802 -15.2461,-47.99074 -30.4841,-95.73534 -32.4583,-94.75092 -1.9649,0.97971 13.2706,48.72439 28.3516,96.19885 15.0817,47.47677 30.0117,94.69119 27.7012,94.62193 -2.2997,-0.0689 -17.2301,-47.28236 -32.1487,-94.24678 -14.9181,-46.96258 -29.8263,-93.68269 -31.8187,-92.75578 -1.9834,0.92268 12.9229,47.64417 27.6784,94.0981 14.7561,46.45588 29.364,92.65165 27.0381,92.53268 -2.3156,-0.11843 -16.9242,-46.31355 -31.5198,-92.26497 -14.5952,-45.94991 -29.1792,-91.66226 -31.1945,-90.80762 -2.0066,0.85091 12.5754,46.56374 27.0104,92.01231 14.4356,45.45015 28.7267,90.64305 26.3813,90.46204 -2.3353,-0.18025 -16.6274,-45.37337 -30.9029,-90.32015 -14.2752,-44.94558 -28.5355,-89.65081 -30.5677,-88.84927 -2.0236,0.7982 12.2348,45.50395 26.3499,89.94785 14.1154,44.4452 28.0898,88.63516 25.7302,88.40828 -2.35,-0.22595 -16.3253,-44.41573 -30.282,-88.36123 -13.9564,-43.94456 -27.8958,-87.65056 -29.9454,-86.90421 -2.0414,0.74336 11.8963,44.45005 25.6938,87.89633 13.7978,43.44733 27.4575,86.64051 25.0818,86.36205 -2.3664,-0.27737 -16.0264,-43.46806 -29.6664,-86.41839 -13.6398,-42.94966 -27.2611,-85.66434 -29.3323,-84.98631 -2.0634,0.67544 11.5564,43.39082 25.0395,85.84882 13.4833,42.45875 26.8319,84.666 24.4379,84.3289 -2.3852,-0.33584 -15.7352,-42.54413 -29.063,-84.51279 -13.3277,-41.96824 -26.6344,-83.70202 -28.7255,-83.08674 -2.0835,0.61304 11.2219,42.34754 24.393,83.82424 13.1712,41.47718 26.21,82.70214 23.7951,82.29848 -2.4063,-0.40222 -15.446,-41.62623 -28.4612,-82.61149 -13.0152,-40.9851 -26.0071,-81.73642 -28.1208,-81.19242 -2.1064,0.5421 10.8844,41.29417 23.7432,81.7879 12.8587,40.49394 25.5873,80.73483 23.1487,80.25562 -2.4303,-0.47759 -15.1606,-40.71983 -27.8642,-80.72415 -12.7037,-40.00443 -25.3819,-79.7757 -27.521,-79.31187 -2.132,0.46229 10.5439,40.23008 23.0903,79.74039 12.5465,39.51025 24.9653,78.768 22.5019,78.20989 -2.4554,-0.55631 -14.8752,-39.81287 -27.2668,-78.83425 -12.3917,-39.02176 -24.7565,-77.81285 -26.9244,-77.44006 -2.1612,0.3716 10.2029,39.16401 22.4424,77.70692 12.2394,38.54261 24.3558,76.84027 21.8732,76.22088 -2.475,-0.6175 -14.5939,-38.91857 -26.6849,-76.99221 -12.0911,-38.07424 -24.1554,-75.92524 -26.3529,-75.64553 -2.1909,0.27887 9.873,38.13135 21.8154,75.73747 11.9423,37.60558 23.7646,74.96901 21.2561,74.26708 -2.5013,-0.69988 -14.3245,-38.06124 -26.1182,-75.19741 -11.794,-37.13699 -23.5597,-74.05279 -25.7865,-73.86562 -2.2205,0.18664 9.5456,37.10601 21.1929,73.78087 11.647,36.6741 23.1768,73.10761 20.6408,72.31872 -2.5289,-0.7867 -14.06,-37.21958 -25.5678,-73.45295 -11.5081,-36.23452 -22.9938,-72.27298 -25.2814,-72.27664 -2.2813,-0.004 9.2038,36.034 20.5799,71.85228 11.3759,35.81717 22.644,71.41826 20.0786,70.53595 -2.5586,-0.87998 -13.8302,-36.48676 -25.0825,-71.91251 -11.2528,-35.42721 -22.4871,-70.67642 -24.8282,-70.84855 -2.3351,-0.17168 8.8996,35.07898 20.0334,70.1305 11.1334,35.05013 22.1671,69.90392 19.5733,68.93158 -2.5873,-0.96987 -13.6219,-35.82136 -24.6321,-70.48078 -11.0107,-34.66101 -21.9978,-69.13308 -24.3538,-69.35202 -2.3501,-0.21839 8.6371,34.25405 19.5213,68.51529 10.8837,34.25975 21.6655,68.3111 19.0414,67.2431 -2.6177,-1.06541 -13.4011,-35.11651 -24.1559,-68.96747 -10.7554,-33.85268 -21.4829,-67.50837 -23.8592,-67.79153 -2.3707,-0.2825 8.357,33.37362 18.9804,66.80921 10.6228,33.434 21.1424,66.6502 18.4861,65.47995 -2.6503,-1.16757 -13.1722,-34.38518 -23.661,-67.39378 -10.4893,-33.01045 -20.9462,-65.81507 -23.344,-66.16584 -2.3923,-0.34997 8.0648,32.45496 18.4159,65.02825 10.3504,32.57161 20.5958,64.91424 17.9038,63.63124 -2.6861,-1.2802 -12.9332,-33.62188 -23.1432,-65.74794 -10.2107,-32.12804 -20.3851,-64.0436 -22.8105,-64.48147 -2.4202,-0.43693 7.7536,31.47618 17.8231,63.15774 10.0688,31.6798 20.0343,63.1305 17.3146,61.75994 -5.4343,-2.73854 -39.9827,-125.79054 -44.891,-126.86173 -2.4517,-0.53506 7.446,30.50832 17.2399,61.31717 9.7934,30.80701 19.4841,61.38177 16.7292,59.90025 -5.5049,-2.96044 -38.8747,-122.2801 -43.8513,-123.56517 -4.9765,-1.28508 38.3471,120.6068 32.7165,117.25073 -5.6307,-3.35608 -37.6938,-118.5382 -42.7512,-120.07659 -5.0575,-1.53838 37.1207,116.72113 31.3643,112.96964 -5.7564,-3.75148 -36.419,-114.49928 -41.5578,-116.29263 -5.1389,-1.79335 35.7864,112.49372 29.9671,108.54573 -5.8192,-3.948 -35.1045,-110.33437 -40.35,-112.46167 -5.2456,-2.12729 34.4996,108.41521 28.3495,103.42678 -6.15,-4.98844 -33.5948,-105.55343 -38.9699,-108.08618 -5.3752,-2.53274 32.831,103.13265 26.5832,97.83923 -6.2478,-5.29342 -31.9503,-100.34681 -37.4276,-103.19882 -5.4773,-2.85201 31.1978,97.96193 24.7875,92.15988 -6.4104,-5.80206 -29.04,-91.18268 -38.8472,-107.58367 -4.9033,-8.19997 3.2266,17.23359 11.7335,43.9176 8.506,26.68094 17.3899,54.61838 14.0849,51.41086 -3.2961,-3.19888 -16.3587,-42.46406 -28.6339,-80.9097 -12.2768,-38.45083 -23.7752,-76.10222 -23.7752,-76.10222 m 207.4268,-248.8544 c 0,0 4.7959,7.73177 6.5047,27.09013 1.7089,19.35824 -9.2825,-28.61326 -14.8392,-31.66215 -5.5567,-3.04889 16.3992,50.56683 15.5705,62.11527 -0.8287,11.54844 -21.1266,-65.1625 -26.6877,-68.22396 -5.5611,-3.06146 25.7791,79.5275 23.6361,87.02263 -2.143,7.49514 -29.2003,-90.0938 -34.763,-93.15928 -5.5627,-3.06548 32.5199,100.34546 29.4548,104.99192 -3.0439,4.61431 -37.8123,-109.63116 -37.8123,-109.63116 m -87.4751,138.83341 c 0,0 3.1595,2.7148 -2.5583,-0.85209 -5.7178,-3.56691 -0.6489,-2.01166 -7.065,-7.74001 -6.416,-5.72835 1.3471,4.17286 -4.373,0.59996 -5.7201,-3.57289 -2.043,-6.32828 -8.4605,-12.05767 -6.4174,-5.72938 2.7403,8.48454 -2.9816,4.90759 -5.7219,-3.57694 -3.4358,-10.63694 -9.8547,-16.3676 -6.419,-5.73066 4.1328,12.79042 -1.5902,9.21136 -5.723,-3.57905 -4.8288,-14.94198 -11.2493,-20.67416 -6.4205,-5.73218 5.5263,17.09487 -0.1972,13.51566 -5.7234,-3.57921 -6.2233,-19.24781 -12.6454,-24.98175 -6.4222,-5.73395 6.9219,21.40229 1.1986,17.82487 -5.7233,-3.57742 -7.6208,-23.55879 -14.0447,-29.29474 -6.4239,-5.73596 8.3214,25.71708 2.5989,22.1434 -5.7225,-3.57369 -9.0228,-27.87932 -15.4485,-33.61754 -6.4257,-5.73821 9.7259,30.04361 4.0048,26.4756 -5.7211,-3.56801 -30.1908,-93.09679 -32.7302,-86.85834 -2.5395,6.23846 26.9824,83.20761 21.2961,79.74836 -5.6863,-3.45925 -23.8411,-73.52696 -26.2903,-67.00659 -2.4492,6.52037 21.9751,67.78141 20.4568,77.20531 -1.5182,9.42389 -22.9196,-70.7268 -25.2268,-63.76439 -2.3072,6.96241 23.6897,73.12948 22.5081,83.60436 -1.1817,10.47488 -24.8112,-76.62959 -26.9575,-69.16599 -2.1463,7.46361 25.7347,79.51251 25.1752,91.92713 -0.5595,12.41463 -27.3397,-84.51987 -29.2935,-76.45639 -1.9514,8.05329 28.9453,96.60999 28.9453,96.60999 m 99.0023,52.17489 c 0,0 2.4352,0.47213 -2.0907,0.59904 -4.5259,0.12691 -0.6199,-1.92765 -6.0413,-4.58493 -5.4215,-2.65729 1.5154,4.71173 -3.0118,4.83482 -4.5271,0.12308 -2.4097,-7.49211 -7.8314,-10.14949 -5.4217,-2.65739 3.3043,10.27247 -1.2238,10.39258 -4.5281,0.1201 -4.1979,-13.04996 -9.6199,-15.70747 -5.422,-2.6575 5.0918,15.82747 0.563,15.94544 -4.5288,0.11798 -5.985,-18.60293 -11.4072,-21.26057 -5.4223,-2.65764 6.8784,21.37844 2.3492,21.49513 -4.5292,0.11669 -7.7715,-24.15277 -13.194,-26.81056 -5.4226,-2.65779 8.6648,26.92715 4.1355,27.0434 -4.5293,0.11626 -9.5581,-29.70119 -14.9809,-32.35915 -5.4228,-2.65797 10.4515,32.4753 5.9223,32.59197 -4.5292,0.11667 -11.3451,-35.24994 -16.7683,-37.90809 -5.4231,-2.65815 12.2391,38.02465 7.7103,38.14259 -4.5288,0.11793 -13.1334,-40.80074 -18.5568,-43.4591 -5.4234,-2.65837 14.028,43.57692 9.4999,43.69696 -4.5281,0.12005 -14.9233,-46.35533 -20.347,-49.01392 -5.4238,-2.65859 15.8189,49.13386 11.2917,49.25686 -2.2602,0.0614 -13.8016,-35.81905 -25.028,-70.60701 -11.2252,-34.78446 -22.1378,-68.4864 -22.9867,-64.05042 -1.6965,8.86512 42.6217,132.08721 39.8275,137.60025 -1.3958,2.75377 -11.7434,-29.428 -21.9548,-61.09067 -10.2094,-31.65668 -20.2826,-62.7957 -20.9924,-57.92647 -0.7036,4.82543 25.8391,86.97401 51.4472,166.82062 25.6147,79.86714 50.3573,157.61408 46.8291,153.73888 -3.4838,-3.82636 -28.2599,-81.6131 -52.4367,-156.98414 -24.1785,-75.37653 -47.8033,-148.49375 -48.324,-143.00846 -0.515,5.42462 23.0861,78.54467 45.7114,149.10131 22.6321,70.5778 44.3443,138.7528 40.6641,134.39312 -3.6446,-4.31744 -25.4,-72.56315 -46.395,-138.02326 -20.9976,-65.46834 -41.2725,-128.28269 -41.463,-121.77859 -0.1891,6.45105 20.1692,69.60257 39.4037,129.59788 19.2419,60.01833 37.4102,117.02285 33.2961,111.29501 -4.0865,-5.68949 -22.31,-62.79683 -39.4938,-116.38175 -17.1892,-53.60168 -33.3683,-103.78747 -33.0538,-95.71763 0.313,8.02913 16.5558,58.49273 31.383,104.75014 14.836,46.28514 28.2947,88.46889 23.3315,80.07695 -4.946,-8.36281 -18.5362,-50.88298 -30.4742,-88.11167 -11.9489,-37.26247 -22.2572,-69.28532 -20.531,-56.82236 3.4557,24.94843 33.812,112.56001 33.812,112.56001 m 109.2703,-43.83096 c 0,0 2.0225,-0.814 -1.9738,0.96595 -3.9963,1.77997 -0.3449,-1.07638 -4.9825,-1.29748 -4.6376,-0.22111 0.9862,3.07745 -3.0102,4.85745 -3.9964,1.78001 -1.6274,-5.07857 -6.265,-5.29985 -4.6376,-0.22128 2.2686,7.07986 -1.7279,8.8599 -3.9965,1.78005 -2.9097,-9.08119 -7.5474,-9.30257 -4.6376,-0.22138 3.5502,11.08025 -0.4479,12.85568 -3.9981,1.77543 -4.1897,-13.07707 -8.8274,-13.29848 -4.6377,-0.2214 4.8295,15.0744 0.8331,16.85529 -3.9965,1.78088 -5.4708,-17.0767 -10.1084,-17.29805 -4.6377,-0.22135 6.1121,19.07943 2.116,20.8618 -3.996,1.78236 -6.7537,-21.08316 -11.3913,-21.30438 -4.6376,-0.22121 7.3954,23.08724 3.3985,24.86711 -3.997,1.77988 -8.0361,-25.08833 -12.6736,-25.30934 -4.6376,-0.221 8.6768,27.08971 4.6777,28.86312 -3.9992,1.77341 -9.3153,-29.08413 -13.9527,-29.30484 -4.6375,-0.22071 9.9537,31.07875 5.9511,32.84174 -3.9971,1.76059 -12.9073,-33.17263 -12.9073,-33.17263 m 267.7189,-286.66866 c 0,0 1.572,2.0455 2.6985,4.89347 1.1399,2.882 1.7564,6.45075 0.2214,9.67558 -1.5724,3.30332 -2.4068,-1.30581 -4.1313,-6.34683 -1.7625,-5.15226 -4.6648,-11.09421 -7.0241,-11.01274 -2.172,0.075 0.7375,5.81411 2.6794,11.67192 1.9508,5.88453 2.8956,11.82237 0.5971,12.42844 -2.1339,0.56264 -2.949,-5.33306 -4.7365,-11.09662 -1.776,-5.72653 -4.4925,-11.31704 -6.168,-9.95887 -1.5548,1.26045 0.8215,7.05562 2.1726,11.89818 1.3778,4.93863 1.8697,9.1156 -0.6234,7.62001 -2.4734,-1.48368 -3.7344,-4.84551 -4.5492,-7.74505 -0.8223,-2.92608 -1.2091,-5.47735 -1.2091,-5.47735"
       style="fill:none;stroke:#0000ff;stroke-width:4;stroke-miterlimit:4;stroke-dasharray:none;stroke-opacity:1" />
    <path
       style="fill:none;stroke:#0000ff;stroke-width:4;stroke-miterlimit:4;stroke-dasharray:none;stroke-opacity:1"
       d="m 1427.8125,7.40625 c -16.601,0.4954438 -33.1929,1.7042216 -49.6439,4.022076 -7.636,1.090459 -15.2733,2.196641 -22.8548,3.623155 -10.913,2.139009 -21.7161,4.811836 -32.4024,7.885377 -14.0322,3.997759 -27.7577,9.011528 -41.2368,14.582061 -7.2308,3.077011 -14.3801,6.343751 -21.462,9.748621 -7.5825,3.753057 -15.102,7.63109 -22.6188,11.51371 -4.6765,2.404093 -9.2424,5.047363 -13.6893,7.863756 -6.1462,3.969276 -12.226,8.044066 -18.2553,12.189191 -2.3564,1.688545 -4.7642,3.314907 -6.8478,5.324112 -5.9459,5.318418 -12.0975,10.401175 -18.1703,15.572907 -10.8053,9.112234 -21.1834,18.739684 -30.916,28.993594 -3.3922,3.60093 -6.7772,7.21002 -10.0386,10.9304 -8.4357,9.50079 -16.3688,19.43061 -24.4549,29.22662 -1.7948,2.2188 -3.7176,4.35793 -5.4231,6.62299 -3.8927,5.54643 -7.5072,11.28288 -11.2217,16.94917 -3.0583,4.86651 -5.972,9.83444 -8.4689,15.00999 -5.3646,10.61488 -10.7903,21.20591 -15.6912,32.04541 -4.2167,9.28727 -7.9401,18.79094 -11.4345,28.37073 -2.7712,7.82653 -5.3896,15.70921 -7.6648,23.69553 -2.266,7.85463 -4.2233,15.79568 -5.9462,23.78647 -0.9985,4.56761 -1.919,9.15232 -2.6723,13.76761 -1.4885,8.7489 -2.6906,17.54591 -3.729,26.35924 -1.1304,10.40108 -2.0182,20.83474 -2.2946,31.29672 -0.2355,7.06463 -0.3216,14.13451 -0.136,21.20147 0.2611,12.09863 1.0045,24.19111 2.419,36.21175 0.7764,7.39216 1.9201,14.73877 2.9598,22.09687 1.8242,12.19338 4.6548,24.21048 7.7519,36.13616 1.7685,6.68448 3.7313,13.31855 5.862,19.89645 2.3864,7.23303 5.0014,14.38892 7.8207,21.46442 2.1263,5.46352 4.5285,10.81357 6.8575,16.1921 1.7014,3.74972 3.4161,7.49301 5.2599,11.17574 4.8724,10.07175 9.9358,20.06479 15.2463,29.9049 5.1987,8.93979 10.9735,17.52716 16.8768,26.01248 1.575,2.26308 3.2544,4.42367 5.1369,6.42794 7.0441,8.21619 13.8751,16.61454 21.0703,24.70078 8.0008,9.12747 16.3521,17.95804 25.2322,26.23714 6.18,5.88299 12.5636,11.5506 19.054,17.08825 7.68,6.49658 15.4823,12.84772 23.3155,19.15839 2.5507,2.16612 5.3183,4.04908 8.1296,5.8809 6.7981,4.494 13.6183,8.97506 20.7495,12.92857 7.799,3.96445 15.572,8.01357 23.3947,11.94407 4.3288,2.13891 8.6864,4.21751 13.0805,6.21834 5.5899,2.55084 11.2344,4.98374 16.9555,7.22756 6.1933,2.47036 12.4341,4.83003 18.7433,6.9879 9.2246,3.0883 18.5359,5.9307 27.9744,8.29356 7.8125,2.01056 15.6867,3.78478 23.6041,5.32901 11.1956,2.07887 22.4964,3.53652 33.8132,4.77127 15.289,1.57825 30.6619,2.42028 46.0343,2.28635 6.8969,-0.0254 13.7928,-0.25239 20.6729,-0.73931 7.596,-0.40623 15.1721,-1.10892 22.7312,-1.94884 10.385,-1.11039 20.7285,-2.60249 31.002,-4.48191 6.5167,-1.24467 13.0115,-2.61612 19.4375,-4.27232 9.9394,-2.45817 19.8121,-5.2072 29.5134,-8.48804 11.8465,-3.95095 23.4865,-8.51552 34.9109,-13.55569 10.6317,-4.71924 21.0181,-9.96551 31.3108,-15.37824 5.8212,-2.99579 11.7265,-5.841 17.2154,-9.43089 5.998,-3.84389 11.9603,-7.74814 17.8201,-11.79968 2.7769,-1.92266 5.5019,-3.89024 7.9883,-6.16971 2.4289,-2.09948 4.922,-4.33643 7.3601,-6.29343 0.9884,-0.69105 1.7737,-1.67223 2.7773,-2.37953 6.0927,-5.20905 12.2982,-10.28619 18.2789,-15.62525 4.6165,-4.08843 9.1116,-8.31438 13.4886,-12.6584 5.076,-5.04018 10.0067,-10.22773 14.8215,-15.5175 4.9459,-5.39704 9.7245,-10.94345 14.3856,-16.58771 5.8479,-7.01176 11.7289,-14.03937 17.4714,-21.11084 4.1765,-5.90163 8.0229,-12.02851 11.9521,-18.09579 3.1111,-4.83081 6.0476,-9.78189 8.5536,-14.95176 5.2708,-10.45533 10.6105,-20.88071 15.5324,-31.50643 3.9649,-8.76969 7.6417,-17.67094 10.9077,-26.72533 3.7761,-10.46405 7.2973,-21.03041 10.1213,-31.79518 1.9815,-7.31737 3.7767,-14.68599 5.3785,-22.09541 1.3641,-6.9232 2.5258,-13.88357 3.5011,-20.87164 1.3997,-10.03896 2.6271,-20.10777 3.4096,-30.21505 0.6564,-9.00684 1.1436,-18.03124 1.1728,-27.06417 0.05,-5.24781 -0.033,-10.49707 -0.1909,-15.7425 -0.5236,-14.47112 -1.9175,-28.90103 -3.8741,-43.24565 -0.699,-5.24859 -1.5331,-10.47875 -2.3271,-15.71237 -1.2348,-7.21236 -2.8439,-14.35316 -4.5336,-21.47049 -3.1806,-12.84708 -7.0275,-25.52661 -11.4054,-38.01511 -2.394,-6.73577 -4.915,-13.4275 -7.7145,-20.00632 -2.8955,-6.7902 -5.9086,-13.53271 -9.1554,-20.16354 -2.2966,-4.85559 -4.7178,-9.6501 -7.2416,-14.39121 -4.021,-7.77514 -7.8205,-15.68095 -12.6442,-23.0037 -3.8418,-5.92387 -7.7399,-11.81376 -11.7734,-17.60889 -1.1535,-1.60655 -2.2699,-3.20322 -3.6422,-4.62773 -0.5824,-1.13878 -1.7306,-2.08033 -2.5643,-3.13912 -3.7915,-4.45263 -7.5601,-8.92479 -11.3353,-13.39143 -6.3236,-7.44097 -12.6187,-14.91687 -19.3452,-22.00028 -4.3788,-4.58823 -8.8402,-9.10041 -13.4444,-13.46266 -6.3893,-6.05401 -12.9452,-11.93209 -19.7012,-17.574756 -7.3166,-6.194849 -14.6874,-12.325584 -22.1412,-18.354982 -2.1799,-1.805257 -4.3504,-3.580554 -6.6923,-5.184188 -4.0153,-2.736913 -8.1058,-5.364819 -12.1751,-8.021413 -4.3997,-2.78055 -8.8308,-5.541008 -13.4366,-7.957459 -4.589,-2.364351 -9.1975,-4.696275 -13.7693,-7.07262 -7.3552,-3.684707 -14.7328,-7.329944 -22.2068,-10.767795 -6.3244,-2.905277 -12.7703,-5.539229 -19.2509,-8.073297 -9.3897,-3.614567 -18.8979,-6.92641 -28.5399,-9.804783 -4.27,-1.31529 -8.5761,-2.515599 -12.8885,-3.683689 -12.3092,-3.178554 -24.7631,-5.832913 -37.3323,-7.749665 -8.8352,-1.273257 -17.6823,-2.484072 -26.5731,-3.3046204 -8.6987,-0.7677058 -17.4204,-1.2772235 -26.1472,-1.5903168 -6.5738,-0.2887279 -13.1586,-0.3513835 -19.7377,-0.2731758 z m 4.7187,41.03125 c 10.6156,0.04785 21.2382,0.27652 31.8219,1.149229 4.8582,0.399736 9.7127,0.868224 14.5531,1.444521 8.6948,1.062292 17.3363,2.509876 25.9276,4.213422 0.835,0.249351 1.8181,0.161271 2.5412,0.661578 0.6601,1.69376 1.1735,3.480256 1.7981,5.202958 15.0709,44.226352 30.111,88.463182 45.2331,132.672042 0.1053,0.9866 0.8704,2.16511 2,1.875 1.1747,0.0334 1.6916,-1.34431 1.4063,-2.34375 0.6671,-22.6923 1.2708,-45.38637 1.8812,-68.08022 0.544,-18.00408 1.071,-36.008649 1.5875,-54.01353 10.0043,3.85888 19.8951,8.03066 29.5489,12.700816 8.1809,4.146606 16.153,8.699919 24.1065,13.27229 8.6551,5.169004 17.1107,10.673254 25.3769,16.442134 1.2412,0.86675 2.4868,1.86597 3.8115,2.52226 0.1367,0.4386 -0.2161,0.89022 -0.1746,1.35837 -6.4378,38.52157 -12.9746,77.02658 -19.3461,115.55923 -0.3092,2.07055 -0.7555,4.1298 -0.9793,6.2074 0.2229,1.35215 2.3403,1.63883 3.0312,0.5 0.3995,-0.48195 0.2482,-1.28221 0.6715,-1.77608 16.5678,-31.62672 33.1357,-63.25345 49.7035,-94.88017 4.0707,3.72045 7.9664,7.62785 11.8503,11.54114 3.0117,3.15526 6.0393,6.29503 8.9579,9.53699 3.7244,4.07598 7.3072,8.27948 10.8481,12.51562 0.655,0.91768 1.5122,1.95457 2.2187,2.9375 0.8214,0.81284 1.4552,1.759 2.1654,2.734 2.41,3.65395 5.2739,6.98435 7.7852,10.56849 2.0786,2.83758 4.0632,5.78518 6.1744,8.57251 0.5056,0.28684 0.1217,0.64787 -0.1592,0.88807 -1.578,1.78931 -2.8487,3.84924 -4.3548,5.71861 -19.6188,26.96171 -39.3291,53.85804 -58.9533,80.8162 -0.8384,0.97044 -1.673,2.35146 -1.0125,3.63162 0.7057,0.8845 2.3062,0.65095 3.0506,-0.094 0.5263,-0.52446 0.9242,-1.21651 1.6792,-1.58554 0.8115,-0.72567 1.5963,-1.40332 2.3952,-2.07551 13.867,-11.77541 27.974,-23.26403 41.9369,-34.92488 8.3027,-6.83444 16.5094,-13.78434 24.8532,-20.56887 1.3988,-1.13247 2.7388,-2.29821 4.1595,-3.3043 0.8819,-0.6623 1.7611,-1.5455 2.624,-2.09519 0.3674,0.56532 0.5627,1.1628 0.9334,1.71965 3.9428,7.60995 8.2141,15.05796 11.795,22.85635 5.9137,12.89439 11.25,26.07112 15.5441,39.59799 1.8588,5.65826 3.4887,11.39114 5.04,17.13851 0.331,0.41882 0.1281,1.1393 -0.3571,1.231 -1.0722,0.93129 -2.0917,1.7018 -3.2029,2.61448 -3.4383,2.75984 -6.8767,5.51968 -10.315,8.27952 -0.9953,0.62056 -1.9821,1.55221 -2.9571,2.32568 -2.1806,1.71338 -4.5421,3.55832 -6.7304,5.36182 -6.2186,5.01323 -12.469,9.98674 -18.6875,15 -1.0971,0.80339 -2.3001,1.82686 -3.4379,2.71485 -2.2718,1.83978 -4.6177,3.63838 -6.8434,5.5039 -0.6574,1.18156 0.4371,2.8726 1.8126,2.5 2.1562,-0.40177 4.104,-1.48317 6.1886,-2.12969 16.7913,-6.17552 33.5826,-12.35104 50.3738,-18.52656 1.6751,11.77356 3.8947,23.48724 4.7362,35.36433 0.7872,9.05582 1.2218,18.13967 1.3415,27.22867 -0.022,0.83571 0.1078,1.71258 -0.01,2.52342 -0.8585,1.33558 -1.902,2.35385 -2.8445,3.65598 -6.5204,8.34047 -13.0167,16.6995 -19.4415,25.11388 -1.0426,1.31053 -1.911,2.61806 -3.0316,3.80497 -0.7782,1.02234 -1.7103,2.1156 -2.533,3.21718 -0.9772,1.28021 -1.9464,2.45753 -3.0349,3.69417 -4.2859,4.98345 -8.6149,9.93385 -13.1195,14.72122 -4.3499,4.55339 -8.7353,9.07909 -13.4004,13.31358 -3.1092,2.9682 -6.432,5.90958 -9.6359,8.64385 -1.5003,0.96895 -2.7109,2.26539 -4.25,3.1875 -1.3077,1.04195 -2.8792,2.13336 -4.2934,3.20237 -4.149,3.03794 -8.2915,6.09118 -12.5619,8.95686 -6.3139,4.22284 -12.9105,8.00384 -19.551,11.68452 -6.2361,3.38189 -12.7238,6.31834 -19.3424,8.88538 -10.386,4.12256 -21.0926,7.47094 -32.0412,9.7322 -7.6093,1.63681 -15.2689,3.06609 -23.0058,3.94728 -5.6356,0.69151 -11.3055,1.05802 -16.9724,1.37336 -9.2796,0.41325 -18.5784,0.37083 -27.8559,-0.0637 -5.4488,-0.30177 -10.8891,-0.78167 -16.3447,-0.93707 -1.125,0 -2.2501,0 -3.375,0 5.9005,3.36806 11.5139,7.22883 16.7997,11.49594 1.39,1.05008 2.7582,2.21652 4.2155,3.29603 8.9733,6.87956 17.8144,13.93229 26.9257,20.63043 9.018,6.76344 18.1464,13.38018 27.4428,19.75653 4.7406,3.26218 9.534,6.45836 14.4823,9.39755 4.7647,2.82255 9.7763,5.18848 14.7422,7.63726 10.4634,4.99185 21.2137,9.38983 32.2158,13.0501 10.651,3.60803 21.4921,6.62253 32.3634,9.48616 -7.6448,9.27607 -15.454,18.43685 -23.9442,26.95672 -5.3615,5.38996 -10.8175,10.69184 -16.4636,15.78366 -3.4216,2.9791 -6.7648,6.05249 -10.3109,8.88462 -0.5545,0.14117 -0.9241,0.54318 -1.3125,0.9375 -21.9049,-12.69025 -43.9064,-25.21298 -65.8403,-37.8528 -2.5893,-1.46405 -5.1773,-2.96206 -7.7535,-4.42845 -0.8246,-0.34649 -1.8753,-0.20373 -2.375,0.53125 -0.5587,0.81181 -0.3716,2.03841 0.5108,2.53699 3.6763,3.16385 7.0893,6.61999 10.6502,9.91177 15.1906,14.42979 30.4119,28.8275 45.6203,43.23874 -6.6508,4.76651 -13.4837,9.27801 -20.4907,13.50392 -4.8714,2.94872 -9.7852,5.83074 -14.7496,8.62068 -1.4508,0.82178 -2.9204,1.60933 -4.3847,2.40665 -1.0952,-1.02639 -2.3528,-1.7651 -3.4431,-2.76173 -3.3588,-2.82241 -6.9359,-5.42566 -10.4209,-8.11727 -5.9772,-4.5821 -11.9252,-9.2035 -17.9797,-13.6835 2.515,12.13846 4.5459,24.37058 6.5937,36.59375 0.1936,0.25645 -0.6378,0.31566 -0.8405,0.48397 -4.2615,1.8344 -8.578,3.53809 -12.9108,5.19416 -7.0657,2.69563 -14.2314,5.12061 -21.4637,7.32942 -2.349,0.7414 -4.7241,1.39683 -7.0975,2.05495 -5.5723,-16.93186 -11.14,-33.86577 -16.5673,-50.8446 -0.3584,-0.73732 -0.3127,-1.85217 -1.2789,-2.02662 -1.0214,-0.33479 -2.4567,0.24311 -2.3413,1.46497 0.7594,12.87142 1.7505,25.72793 2.5931,38.5941 0.3856,5.66655 0.7713,11.3331 1.1569,16.99965 -9.2543,2.10948 -18.5697,3.96078 -27.9464,5.43899 -3.3234,0.52051 -6.6579,0.97872 -9.9911,1.43601 -5.8664,-11.78565 -11.5687,-23.65205 -17.3471,-35.48093 -21.7806,-44.86028 -43.5573,-89.72249 -65.3404,-134.58157 -8.8264,5.6838 -17.8575,11.07005 -27.1033,16.03124 -7.7187,4.02978 -15.7042,7.52065 -23.7359,10.87321 -15.947,6.48459 -32.4527,11.68093 -49.372,14.92528 -5.7277,1.14368 -11.5111,1.99316 -17.3182,2.61983 -6.2299,0.59314 -12.5034,0.74908 -18.749,0.31845 -8.9998,-0.48039 -17.9762,-1.39653 -26.8977,-2.66881 -5.431,-0.78359 -10.838,-1.71149 -16.2229,-2.76717 -8.277,-1.61913 -16.4918,-3.58196 -24.5796,-5.97686 -8.8726,-2.66219 -17.6078,-5.79304 -26.1285,-9.42778 -6.0557,-2.60893 -12.0039,-5.47883 -17.6883,-8.818 -1.8259,-1.05815 -3.6818,-2.08842 -5.4599,-3.21412 -0.9793,-1.21672 -1.7202,-2.81118 -2.6184,-4.18338 -3.4222,-5.64757 -6.791,-11.32719 -10.029,-17.08256 -2.2814,-3.97626 -4.3948,-8.05052 -6.5973,-12.06683 -0.4377,-0.0635 -0.1957,-0.7595 0.1875,-0.6875 24.333,-10.77941 48.6395,-21.61875 72.9688,-32.40625 0.4456,-1.34146 -0.7233,-2.84394 -2.1248,-2.7043 -5.405,-0.19019 -10.8132,-0.31211 -16.2103,-0.67304 -24.0026,-1.2133 -48.0046,-2.44168 -72.0087,-3.62266 -0.6236,0.0499 -0.4659,-0.89587 -0.75,-1.28125 -3.4601,-10.72606 -6.8804,-21.47873 -9.4879,-32.45036 -1.6839,-7.17926 -3.2666,-14.38418 -4.5958,-21.63853 0.035,-0.36658 -0.4796,-0.9992 0.1462,-0.91111 4.1185,-0.005 8.2437,-0.19508 12.3649,-0.27211 22.0518,-0.57282 44.1044,-1.11643 66.1571,-1.65329 6.7635,-0.17017 13.527,-0.34457 20.2905,-0.5121 0.8338,-0.51903 0.3933,-1.91322 -0.4688,-2.125 -8.475,-4.06446 -16.8447,-8.34381 -25.3012,-12.44662 -26.1998,-12.88671 -52.4362,-25.69869 -78.6362,-38.58463 -0.2941,-6.35709 -0.2403,-12.72591 0.07,-19.08115 0.2217,-7.39397 0.742,-14.77778 1.468,-22.13921 0.5543,-5.4568 1.2344,-10.90432 2.084,-16.32268 0.8531,-4.98244 1.6867,-9.96828 2.5027,-14.95696 21.6321,13.41338 43.2079,26.9174 64.805,40.38718 13.2153,8.27802 26.4164,16.57929 39.6759,24.78619 0.9027,0.52583 1.8103,1.12839 2.6441,1.57663 1.1838,0.57639 2.7545,-0.42536 2.5937,-1.75625 0.023,-0.88706 -0.7442,-1.46474 -1.3699,-1.81224 -0.8138,-0.74181 -1.6688,-1.36741 -2.4724,-2.01404 -13.5061,-12.13674 -27.1185,-24.15506 -40.6481,-36.2658 -19.5377,-17.45069 -39.0628,-34.91561 -58.5409,-52.43292 3.4989,-11.84211 7.2637,-23.62 11.8438,-35.09375 2.8885,-7.38314 6.1117,-14.63163 9.4435,-21.82391 3.3681,-7.16425 7.2176,-14.06687 11.1078,-20.96549 2.833,-5.08566 5.8958,-10.03793 8.9534,-14.98971 2.0276,-3.33476 4.2388,-6.56739 6.3391,-9.84589 0.1069,-0.71296 0.4672,0.11447 0.557,0.39822 2.331,4.77106 4.9685,9.37982 7.3914,14.09635 4.4426,8.44784 8.9034,16.87419 13.5041,25.23808 5.624,10.32454 11.5059,20.51814 17.9958,30.3264 3.2095,4.90721 6.6993,9.62865 10.3017,14.25345 4.6625,5.07198 8.9364,10.54518 13.6244,15.61817 6.2624,6.99388 12.9754,13.56735 19.8611,19.94304 9.3876,8.73403 19.15,17.06382 28.3238,26.02789 3.8717,3.66618 7.7178,7.36205 11.7129,10.89492 2.5381,2.31915 5.1839,4.56083 7.8215,6.73473 0.7712,0.62976 1.801,1.31423 2.7978,1.76259 2.5683,1.31152 5.253,2.45792 8.0632,3.12836 5.4144,1.14578 11.1021,0.50461 16.2695,-1.40039 1.5722,-0.56369 3.1871,-1.19927 4.5385,-2.15016 2.6674,-2.27615 5.1533,-4.82725 7.2685,-7.5904 2.7258,-4.94537 4.6015,-10.32647 5.8387,-15.8257 1.4098,-6.59882 1.9146,-13.34781 2.2688,-20.07406 0.4416,-10.09105 -0.4118,-20.17826 -1.4146,-30.21162 -0.6632,-7.50477 -1.5309,-14.99379 -2.5991,-22.45112 -0.328,-0.94609 -1.5975,-0.92311 -2.2128,-1.61049 -12.502,-6.83817 -25.004,-13.67634 -37.506,-20.51451 5.6474,-0.81216 11.344,-1.21987 17.0299,-1.66127 4.0361,-0.2992 8.0903,-0.38556 12.121,-0.7245 2.1079,-0.27582 4.3393,-0.9481 5.6929,-2.67673 5.044,-4.49931 9.3525,-9.73218 13.9477,-14.67129 3.1117,-3.38957 6.4024,-6.61868 9.9273,-9.57871 0.9539,-0.58589 2.1156,-1.2356 3.0748,-1.96196 3.9545,-2.71593 8.0161,-5.33642 12.4187,-7.25966 3.7973,-1.60375 7.844,-2.53311 11.8907,-3.2451 7.6252,-1.26099 15.5772,-0.50687 22.8277,2.16185 3.8427,1.39545 7.3989,3.43309 10.7308,5.78597 2.0151,1.40796 4.1102,2.93881 6.1197,4.2064 3.7591,3.18988 7.1504,6.79088 10.2813,10.59375 0.7407,1.17391 1.7938,2.38356 2.625,3.59375 3.9324,5.43235 8.1789,10.6547 11.6162,16.42812 5.2791,8.20975 10.0839,16.7085 15.0529,25.10617 6.4776,10.99435 12.857,22.04684 19.4048,32.99961 4.0698,6.79927 8.157,13.58835 12.398,20.28274 3.7375,5.95725 7.4694,11.93242 11.6531,17.58961 4.0035,4.83818 8.1401,9.69317 13.0823,13.63804 1.3288,1.23402 3.0816,1.93599 4.7614,2.61196 1.9443,0.62245 4.3907,0.6637 5.8992,-0.88338 0.8173,-0.77624 1.4615,-1.68264 1.8156,-2.76774 1.5004,-3.7751 1.9515,-7.85283 2.4623,-11.85248 0.8404,-6.4805 1.2286,-13.00916 1.6256,-19.5288 0.464,-9.20966 1.4999,-18.44619 0.6437,-27.66554 -0.6839,-6.40964 -1.6678,-12.79168 -3.0891,-19.0811 -1.089,-4.88279 -2.4992,-9.68859 -3.8995,-14.48981 -3.1732,-10.44746 -7.0569,-20.66702 -11.2958,-30.72517 -2.9223,-6.83381 -6.0073,-13.59773 -9.2126,-20.3031 -3.5904,-7.47809 -7.3537,-14.87077 -11.1852,-22.22772 -3.3264,-6.46962 -6.7596,-12.89305 -10.4602,-19.16308 -7.0651,-12.49299 -14.5697,-24.7314 -22.2247,-36.86969 -7.4852,-11.71295 -15.129,-23.3263 -23.0528,-34.74791 -5.2757,-7.723223 -10.7317,-15.32119 -16.1641,-22.934353 -6.2653,-8.607262 -12.436,-17.28798 -18.9834,-25.684945 -0.5686,-0.721451 -1.1696,-1.498278 -1.8164,-2.137682 3.1043,-0.347579 6.2261,-0.789264 9.3463,-1.097509 10.789,-1.2464 21.6303,-2.081437 32.4908,-2.294318 0.8564,-0.03606 1.7127,-0.07212 2.5691,-0.108173 l -0.071,0.07071 -0.023,0.02304 z m -62.5937,179.96875 c -2.889,0.247 -5.7346,1.19972 -8.125,2.84375 -0.9344,1.4718 -2.2861,2.6843 -3.4687,4.0625 -0.8188,0.87127 -1.1676,2.13349 -1.5399,3.26829 -1.1174,3.63892 -0.9508,7.6718 0.4884,11.19733 0.4072,0.93126 0.8169,1.85211 1.6039,2.51993 1.315,1.40702 2.7557,2.75236 4.2048,3.9813 3.698,2.17285 8.2895,2.55512 12.411,1.52079 1.7783,-0.47609 3.5602,-1.19631 4.8064,-2.58374 1.4324,-1.31177 2.8797,-2.72066 3.9556,-4.30295 2.2779,-4.4564 2.3163,-9.94811 0.1681,-14.46096 -0.4537,-1.09847 -1.0583,-2.12661 -2.0243,-2.84059 -1.7603,-1.68888 -3.393,-3.72464 -5.8624,-4.34279 -2.1157,-0.70699 -4.3923,-0.99573 -6.6179,-0.86286 z"
       id="path4056"
       inkscape:connector-curvature="0" />
  </g>
</svg>
