<?xml version="1.0" encoding="UTF-8" standalone="no"?>
<!-- Created with Inkscape (http://www.inkscape.org/) -->

<svg
   xmlns:dc="http://purl.org/dc/elements/1.1/"
   xmlns:cc="http://creativecommons.org/ns#"
   xmlns:rdf="http://www.w3.org/1999/02/22-rdf-syntax-ns#"
   xmlns:svg="http://www.w3.org/2000/svg"
   xmlns="http://www.w3.org/2000/svg"
   xmlns:sodipodi="http://sodipodi.sourceforge.net/DTD/sodipodi-0.dtd"
   xmlns:inkscape="http://www.inkscape.org/namespaces/inkscape"
   width="3200"
   height="800"
   id="svg3002"
   version="1.1"
   inkscape:version="0.48.1 r9760"
   sodipodi:docname="New document 2">
  <defs
     id="defs3004" />
  <sodipodi:namedview
     id="base"
     pagecolor="#ffffff"
     bordercolor="#666666"
     borderopacity="1.0"
     inkscape:pageopacity="0.0"
     inkscape:pageshadow="2"
     inkscape:zoom="0.78897531"
     inkscape:cx="1433.6266"
     inkscape:cy="354.77753"
     inkscape:document-units="px"
     inkscape:current-layer="1-default"
     showgrid="false"
     inkscape:window-width="1676"
     inkscape:window-height="1006"
     inkscape:window-x="0"
     inkscape:window-y="0"
     inkscape:window-maximized="1" />
  <metadata
     id="metadata3007">
    <rdf:RDF>
      <cc:Work
         rdf:about="">
        <dc:format>image/svg+xml</dc:format>
        <dc:type
           rdf:resource="http://purl.org/dc/dcmitype/StillImage" />
        <dc:title></dc:title>
      </cc:Work>
    </rdf:RDF>
  </metadata>
  <g
     inkscape:label="1-default"
     inkscape:groupmode="layer"
     id="1-default">
    <g
       id="layer1"
       transform="matrix(8.2870724,0,0,8.2870724,-2874.2644,-5261.1072)"
       style="fill:none;stroke:#000000;stroke-opacity:1;stroke-width:0.4826795;stroke-miterlimit:4;stroke-dasharray:none">
      <g
         id="g2869"
         transform="matrix(0.95172,0,0,0.95172,25.104,32.979)"
         style="fill:none;stroke:#000000;stroke-opacity:1;stroke-width:0.50716545;stroke-miterlimit:4;stroke-dasharray:none">
        <path
           style="fill:none;stroke:#000000;stroke-opacity:1;stroke-width:0.50716545;stroke-miterlimit:4;stroke-dasharray:none"
           inkscape:connector-curvature="0"
           id="path2838"
           d="m 519.75,633.94 c -0.68134,0 -1.3566,0.0351 -2.0312,0.0625 -26.223,1.0666 -47.156,22.641 -47.156,49.125 0,26.484 20.934,48.058 47.156,49.125 0.83837,0.0425 1.6823,0.0625 2.5312,0.0625 0.67973,-0.007 1.3584,-0.0284 2.0312,-0.0625 26.222,-1.0666 47.156,-22.641 47.156,-49.125 0,-26.484 -20.934,-48.058 -47.156,-49.125 -0.83837,-0.0425 -1.6823,-0.0625 -2.5312,-0.0625 z" />
        <path
           style="fill:none;stroke:#000000;stroke-opacity:1;stroke-width:0.50716545;stroke-miterlimit:4;stroke-dasharray:none"
           inkscape:connector-curvature="0"
           id="path2861"
           d="m 520.25,638.34 c -2.2328,0 -4.4173,0.18443 -6.5625,0.5 10.066,13.199 17.252,26.309 16.875,33.25 -0.35945,6.6139 -0.50925,6.964 -2.375,5.4375 -1.86575,-1.5265 -7.5672,-12.308 -9.0938,-14.344 -1.5265,-2.0354 -3.7694,-5.3059 -7.9688,-4.5938 -4.1994,0.71219 -5.661,5 -7.1875,5 -1.5265,0 -4.25,0.34375 -4.25,0.34375 l 5.59,3.07 c 0,0 0.5,3.9155 0.5,5.7812 0,1.8658 -0.243,5.5847 -2.375,6.3438 -2.9004,1.0326 -3.898,-1.0944 -7.9688,-4.6562 -4.0707,-3.5619 -6.2638,-6.2864 -8.4688,-10.188 -0.73871,-1.307 -2.1071,-3.8458 -3.5625,-6.5938 -2.8222,4.0796 -4.9644,8.6548 -6.3125,13.562 l 13.094,11.688 -13.844,-8.6562 c -0.57225,2.8577 -0.875,5.8178 -0.875,8.8438 0,0.29249 0.0257,0.58385 0.0312,0.875 l 13.062,6.4062 -12.438,0.3125 c 0.4427,2.5894 1.1017,5.1138 1.9688,7.5312 l 11.406,0.5625 -9.375,4.1562 c 0.78013,1.5744 1.6406,3.0997 2.5938,4.5625 0.27601,0.1662 0.52921,0.32962 0.84375,0.5 4.0707,2.205 9.0872,3.509 15.031,3.75 5.3087,-0.0974 11.746,-2.5789 16.344,-5.5938 l 10.406,21.438 c 1.7579,-0.19846 3.466,-0.51023 5.1562,-0.90625 l -0.4687,-7.2188 2.2188,6.7812 c 1.9688,-0.54668 3.9003,-1.2323 5.75,-2.0312 l -0.75,-4.25 3.6875,2.8438 c 1.8724,-0.97707 3.6697,-2.0902 5.375,-3.3125 l -7.375,-7 9.4688,5.4375 c 2.5705,-2.0788 4.8823,-4.4723 6.9375,-7.0625 -5.0711,-1.2857 -8.5802,-2.6985 -11.562,-4.7188 -4.9294,-3.3393 -8.9524,-6.8253 -9.4375,-6.9688 18.351,1.7122 25.655,-9.7135 30.688,-16.062 10e-6,-0.0104 0,-0.0208 0,-0.0312 0,-2.9505 -0.29903,-5.8338 -0.84375,-8.625 l -7.3438,2.6875 6.75,-5.375 c -1.0006,-3.8422 -2.5148,-7.4759 -4.4375,-10.844 l -10.125,8.4062 8.3125,-11.375 c -1.9322,-2.8445 -4.2003,-5.4562 -6.7188,-7.7812 l -6.5,12.469 2.625,-15.656 c -3.3248,-2.4433 -7.0023,-4.4483 -10.938,-5.9062 l -0.44,15.88 -6.04,-17.72 c -2.9358,-0.60553 -5.9788,-0.9375 -9.0938,-0.9375 z m -8.344,23.225 c 0.93675,0 1.6875,0.782 1.6875,1.7188 0,0.93675 -0.75075,1.6875 -1.6875,1.6875 -0.93675,0 -1.7188,-0.75075 -1.7188,-1.6875 0,-0.93675 0.782,-1.7188 1.7188,-1.7188 z"
           sodipodi:nodetypes="cccsccsccscccccccscccccccsccccccccccccccccsccccccccccccccsssss" />
      </g>
    </g>
  </g>
</svg>
