<?xml version="1.0" encoding="UTF-8" standalone="no"?>
<!-- Created with Inkscape (http://www.inkscape.org/) -->

<svg
   xmlns:dc="http://purl.org/dc/elements/1.1/"
   xmlns:cc="http://creativecommons.org/ns#"
   xmlns:rdf="http://www.w3.org/1999/02/22-rdf-syntax-ns#"
   xmlns:svg="http://www.w3.org/2000/svg"
   xmlns="http://www.w3.org/2000/svg"
   xmlns:sodipodi="http://sodipodi.sourceforge.net/DTD/sodipodi-0.dtd"
   xmlns:inkscape="http://www.inkscape.org/namespaces/inkscape"
   width="3200"
   height="800"
   id="svg6938"
   version="1.1"
   inkscape:version="0.92.2 5c3e80d, 2017-08-06"
   sodipodi:docname="Peace_with_dove.svg">
  <sodipodi:namedview
     id="base"
     pagecolor="#ffffff"
     bordercolor="#666666"
     borderopacity="1.0"
     inkscape:pageopacity="0.0"
     inkscape:pageshadow="2"
     inkscape:zoom="0.365"
     inkscape:cx="1600"
     inkscape:cy="400"
     inkscape:document-units="px"
     inkscape:current-layer="1-default"
     showgrid="false"
     inkscape:window-width="1680"
     inkscape:window-height="1005"
     inkscape:window-x="0"
     inkscape:window-y="1"
     inkscape:window-maximized="1" />
  <defs
     id="defs6940">
    <inkscape:path-effect
       back_thickness="0.25"
       front_thickness="1"
       stroke_width_bottom="1"
       stroke_width_top="1"
       fat_output="false"
       bottom_smth_variation="0;1"
       top_smth_variation="0;1"
       scale_tb="2"
       scale_tf="2"
       scale_bb="2"
       scale_bf="2"
       top_tgt_variation="0;1"
       bottom_tgt_variation="0;1"
       top_edge_variation="0;1"
       bottom_edge_variation="0;1"
       bender="787.7344,399.72349 , 5,0"
       do_bend="true"
       growth="0"
       dist_rdm="0;1"
       direction="787.7344,394.72349 , 26.974627,0"
       is_visible="true"
       id="path-effect8385"
       effect="rough_hatches" />
    <inkscape:path-effect
       effect="rough_hatches"
       id="path-effect4710"
       is_visible="true"
       direction="2331.8956,393.90612 , 17.692223,13.37689"
       dist_rdm="0;1"
       growth="0"
       do_bend="true"
       bender="2331.8956,398.90612 , 5,0"
       bottom_edge_variation="0;1"
       top_edge_variation="0;1"
       bottom_tgt_variation="0;1"
       top_tgt_variation="0;1"
       scale_bf="2"
       scale_bb="2"
       scale_tf="2"
       scale_tb="2"
       top_smth_variation="0;1"
       bottom_smth_variation="0;1"
       fat_output="false"
       stroke_width_top="1"
       stroke_width_bottom="1"
       front_thickness="1"
       back_thickness="0.25" />
  </defs>
  <metadata
     id="metadata6943">
    <rdf:RDF>
      <cc:Work
         rdf:about="">
        <dc:format>image/svg+xml</dc:format>
        <dc:type
           rdf:resource="http://purl.org/dc/dcmitype/StillImage" />
        <dc:title />
      </cc:Work>
    </rdf:RDF>
  </metadata>
  <g
     id="1-default"
     inkscape:groupmode="layer"
     inkscape:label="1-default"
     style="display:inline">
    <path
       style="fill:none;stroke:#0000ff;stroke-width:4;stroke-miterlimit:4;stroke-dasharray:none;stroke-opacity:1"
       d="m 2324.0659,43.765511 c -11.583,0.327773 -23.1354,1.348792 -34.6524,2.593267 -3.6102,0.481918 -7.2525,0.810511 -10.8184,1.560468 -1.4257,0.381074 -1.8569,2.174604 -1.623,3.502515 0.3469,2.235979 1.8894,4.048141 3.2956,5.722024 0.8582,1.379228 1.9911,2.806924 2.9964,4.184025 7.4572,10.02529 14.841,20.10493 22.1073,30.26959 6.3757,8.98114 12.5946,18.07366 18.7367,27.21583 9.2798,13.96331 18.4217,28.02547 27.0107,42.42707 8.6378,14.34084 16.7864,28.97074 24.7429,43.69867 3.4981,6.33575 6.7237,12.8232 9.7125,19.41923 3.961,8.70657 7.8222,17.46674 11.1623,26.43367 3.5892,9.51682 6.7649,19.20237 9.1827,29.0861 1.9548,8.42818 4.033,16.92956 4.1003,25.63115 0.2484,9.10052 -0.6945,18.17235 -1.208,27.24765 -0.5094,6.78226 -0.9879,13.60015 -2.3834,20.26789 -0.4593,1.85356 -1.0487,3.71019 -2.206,5.24085 -0.8333,-0.43474 -1.5001,-1.25787 -2.3904,-1.73868 -2.3782,-1.59966 -4.6685,-3.32493 -6.9846,-5.01132 -0.4109,-0.26342 -0.8273,-0.77316 -1.0937,-1.21875 -3.9841,-5.80397 -8.103,-11.52173 -11.9217,-17.43993 -5.2757,-8.1061 -10.3449,-16.34419 -15.2822,-24.66032 -7.0975,-11.79621 -13.9961,-23.71067 -21.0002,-35.56238 -5.187,-8.74611 -10.2025,-17.60013 -15.7108,-26.1505 -1.5617,-2.33253 -3.0708,-4.75129 -4.8101,-6.93154 -3.3913,-3.87246 -6.7524,-7.77057 -10.0458,-11.72654 -4.3326,-4.9938 -8.9821,-9.72368 -14.0498,-13.9751 -1.543,-1.33541 -3.1186,-2.64906 -4.7107,-3.89744 -4.1803,-2.10011 -8.4694,-4.07403 -12.9591,-5.43475 -7.1045,-2.06334 -14.6321,-2.27513 -21.9471,-1.44025 -5.9609,0.68298 -11.7527,2.50262 -17.1543,5.09176 -2.8377,1.35129 -5.9113,2.45173 -8.1932,4.67221 -2.0517,1.7129 -3.9878,3.558 -6.038,5.2731 -3.5231,3.17062 -6.8615,6.53731 -10.0666,10.02808 -3.004,3.13856 -5.6353,6.63561 -8.8917,9.5286 -0.8794,0.45801 -1.7525,1.49877 -2.5937,2.03125 -1.5579,0.95812 -3.0063,2.16055 -4.721,2.81325 -1.5023,0.46505 -3.1041,0.25276 -4.654,0.4055 -8.9894,0.44637 -17.9555,1.27321 -26.8975,2.28709 -1.9529,0.22512 -3.9259,0.4365 -5.8482,0.78888 -1.2707,0.445 -1.4716,2.21245 -0.973,3.33028 0.4864,0.99742 1.6281,1.54337 2.3949,2.30665 1.9083,1.31248 4.0203,2.25131 6.0062,3.44563 11.5268,6.55293 23.1869,12.86672 34.7929,19.27779 0.7781,0.48898 1.8257,0.73353 2.3493,1.50669 0.6604,5.43309 1.4117,10.85533 1.9407,16.30402 0.5662,5.76013 1.0666,11.52973 1.4018,17.30823 0.216,4.8077 0.4256,9.6252 0.2754,14.43731 -0.1792,6.48207 -0.9446,12.95201 -2.4277,19.26766 -0.7753,3.30635 -1.6331,6.63198 -3.0614,9.72366 -1.465,2.91449 -3.5111,5.64916 -5.1721,8.35986 -0.879,0.90537 -2.0615,1.41218 -3.0626,2.1875 -2.0257,1.36698 -4.2044,2.56559 -6.638,3.00326 -3.819,1.06529 -8.0278,1.25633 -11.7374,-0.32161 -3.963,-1.49875 -7.1887,-4.35374 -10.6331,-6.74306 -1.9785,-1.43878 -3.9447,-2.8953 -5.9602,-4.28234 -0.978,-0.83941 -2.055,-1.90678 -3.0711,-2.83382 -6.9668,-6.50836 -13.8824,-13.07144 -20.9043,-19.52055 -10.1009,-9.28418 -20.4666,-18.3109 -29.8872,-28.30299 -3.1621,-3.3068 -6.1611,-6.76377 -9.2311,-10.15514 -0.2223,-0.88555 -0.8763,-1.34529 -1.44,-2.07594 -0.3955,-0.48013 -0.6037,-1.15703 -1.0976,-1.66156 -3.7449,-5.04306 -7.4943,-10.08526 -11.1015,-15.22825 -4.6889,-6.71164 -9.0766,-13.63074 -13.2555,-20.66943 -8.9599,-15.6106 -17.3918,-31.51558 -26.0009,-47.32046 -1.8005,-3.30098 -3.5834,-6.63733 -5.3858,-9.91936 -0.8507,-1.10773 -2.5136,-1.3382 -3.8515,-1.11286 -0.9725,0.15151 -1.8326,0.66248 -2.3672,1.48786 -3.1319,3.67382 -5.4724,7.97664 -8.1329,12.00729 -3.4968,5.48583 -6.9254,11.03184 -9.8036,16.86755 -4.2875,8.30593 -8.4793,16.6633 -12.3634,25.16674 -3.0449,6.61734 -5.9306,13.31039 -8.488,20.13236 -3.6436,9.75302 -7.0062,19.61624 -9.9169,29.61384 -0.3674,1.71677 -0.9876,3.41402 -1.014,5.18097 0.036,0.92063 0.4188,1.96126 1.1875,2.34375 1.3194,1.15906 2.6592,2.08202 3.98,3.24216 6.8019,5.96073 13.5063,12.03309 20.2693,18.03824 16.344,14.58362 32.688,29.16723 49.032,43.75085 -25.3319,-15.89608 -50.7284,-31.68875 -76.0938,-47.53125 -1.4579,-0.21627 -3.3648,0.1519 -3.8642,1.7149 -1.0744,2.76087 -1.2505,5.75441 -1.8246,8.63868 -1.5153,9.21733 -2.7956,18.47756 -3.7612,27.7695 -0.6389,7.01736 -1.2481,14.04001 -1.5307,21.082 -0.2384,5.55748 -0.355,11.12639 -0.1932,16.6879 0.1366,2.03255 0.065,4.12919 0.6071,6.09841 0.4523,1.051 1.4818,1.72104 2.5634,2.05142 7.8989,3.7417 15.7047,7.67656 23.5647,11.49905 21.8973,10.77687 43.8302,21.48117 65.7825,32.14564 -29.5209,0.82175 -59.0416,1.65281 -88.5626,2.46875 1.8083,8.12231 3.3645,16.29962 5.2165,24.41199 1.3731,6.19124 2.9521,12.33522 4.7287,18.42295 1.2334,4.28992 2.5921,8.54293 3.9577,12.79223 0.9784,2.90984 1.9644,5.83742 3.0303,8.7042 0.9333,1.4598 2.8957,1.48557 4.4731,1.48113 8.1332,0.33527 16.2622,0.78973 24.3939,1.16706 16.7104,0.79205 33.4222,1.55606 50.1374,2.23919 -21.1547,9.449 -42.2874,18.94739 -63.4376,28.40625 -0.2363,3.15513 1.3786,6.02599 2.785,8.72192 3.5169,6.72336 6.8867,13.53561 10.69,20.10925 1.6684,2.76327 3.313,5.55109 5.178,8.18689 1.3649,1.69505 2.9243,3.27788 4.5231,4.77659 1.5706,1.65535 3.8879,2.2583 5.8188,3.37675 9.9357,4.98883 20.0161,9.74748 30.5076,13.46192 8.0911,2.96237 16.4126,5.23745 24.7475,7.39793 10.157,2.57809 20.4928,4.39349 30.8834,5.71986 10.7791,1.45154 21.6195,2.52462 32.4916,2.91218 6.3028,0.17793 12.5982,-0.3868 18.8387,-1.22892 9.7995,-1.11722 19.5038,-3.0093 29.0228,-5.58895 6.6462,-1.73756 13.2115,-3.78049 19.7031,-6.02453 4.9513,-1.83081 9.9371,-3.58081 14.8146,-5.60202 6.7543,-2.75487 13.3958,-5.78321 19.9542,-8.9758 6.3509,-3.15356 12.6641,-6.40385 18.9381,-9.69408 2.7041,-1.45587 5.2653,-3.15106 7.8535,-4.79899 8.5075,17.82018 17.2578,35.52296 25.8369,53.30858 17.8788,36.93016 35.8118,73.83407 53.6904,110.76438 0.5005,1.02687 0.8985,2.26225 2.0977,2.61454 1.6919,0.69817 3.5088,-0.0157 5.2428,-0.13808 10.2259,-1.35989 20.4499,-2.80595 30.5425,-4.96782 2.8613,-0.61914 5.7477,-1.20738 8.5897,-1.86285 1.1625,-0.66655 1.0788,-2.25864 0.9791,-3.45455 -0.683,-10.31508 -1.2916,-20.6349 -1.9478,-30.9517 3.5002,10.73951 6.9987,21.47958 10.5,32.21875 9.9234,-3.1585 19.9244,-6.09397 29.7172,-9.64675 6.5873,-2.5363 13.2379,-4.94746 19.7134,-7.74661 0.9482,-0.49274 1.3552,-1.55913 1.3507,-2.60664 0.1325,-1.98546 -0.609,-3.89047 -0.844,-5.84496 -1.2236,-6.5398 -2.2874,-13.10773 -3.4686,-19.65504 5.2962,4.5119 10.8627,8.70445 16.3976,12.93875 2.0496,1.52903 4.1033,3.1046 6.3536,4.31162 1.9169,0.63923 3.8904,-0.26502 5.5407,-1.18597 5.1448,-2.66648 10.268,-5.38356 15.2087,-8.42431 5.9647,-3.54881 11.8284,-7.27178 17.5698,-11.17092 2.1743,-1.52215 4.4024,-2.96872 6.2247,-4.90876 0.9094,-0.77216 1.9018,-1.55454 2.5175,-2.56041 0.4492,-1.43034 -0.2713,-2.91815 -1.3438,-3.84375 -0.9437,-0.72713 -1.873,-1.34124 -2.7598,-2.19412 -10.5574,-9.98191 -21.1631,-19.91381 -31.676,-29.94323 -1.1256,-1.0688 -2.2511,-2.1376 -3.3767,-3.2064 17.4741,10.05045 34.9491,20.09981 52.4375,30.125 7.2816,-6.62193 14.9259,-12.84352 22.0361,-19.65457 6.6144,-6.37309 13.0369,-12.95023 19.1291,-19.82635 5.6884,-6.3193 11.0912,-12.88839 16.7098,-19.26908 0.6566,-1.08709 0.3543,-2.76105 -0.6562,-3.5625 -1.155,-1.03357 -2.8585,-0.99325 -4.2611,-1.54211 -11.8332,-3.18173 -23.6079,-6.61234 -35.1865,-10.62965 -6.3973,-2.17736 -12.7082,-4.60753 -18.8838,-7.35304 -4.7031,-1.96166 -9.2343,-4.28806 -13.6753,-6.7751 -7.227,-4.04275 -14.3947,-8.2176 -21.2014,-12.9433 -6.4725,-4.35573 -12.8042,-8.91775 -19.1266,-13.4876 -5.4866,-3.99671 -10.9418,-8.03568 -16.3286,-12.16605 -9.132,-6.94597 -18.237,-13.9275 -27.3367,-20.91565 6.2689,0.32798 12.5475,0.50365 18.8248,0.48125 4.6163,-0.0394 9.2311,-0.17563 13.8359,-0.51187 10.2353,-0.63999 20.4312,-1.87287 30.5407,-3.58555 5.0256,-0.88153 10.023,-1.93101 14.9492,-3.26509 9.8452,-2.47741 19.5125,-5.68277 28.8418,-9.69175 8.2917,-3.51005 16.3717,-7.51622 24.3849,-11.60225 5.3767,-2.91378 10.4867,-6.28279 15.4981,-9.78004 2.4054,-1.58808 4.7175,-3.28895 6.7763,-5.30002 7.6788,-6.54445 15.5049,-12.93394 22.7534,-19.96332 5.5527,-5.28277 10.8402,-10.83686 16.0105,-16.49197 8.016,-8.90989 15.5489,-18.23747 23.1799,-27.47533 4.8044,-5.89355 9.6823,-11.76882 14.4908,-17.63206 0.7897,-1.12073 1.9255,-2.22718 2.459,-3.60643 0.893,-2.22251 0.4731,-4.67576 0.4484,-7.00604 0,-2.17682 -0.06,-4.35254 -0.1639,-6.52874 -0.4178,-8.73211 -0.8492,-17.4705 -1.8465,-26.15967 -1.0343,-9.84135 -2.5721,-19.62135 -4.1606,-29.38515 -0.2344,-1.20686 -0.3274,-2.56691 -1.0103,-3.58972 -1.1267,-1.35095 -3.2094,-1.23535 -4.7202,-0.62208 -4.9056,1.67026 -9.7023,3.63883 -14.5952,5.34486 -7.3844,2.70699 -14.7689,5.41398 -22.1533,8.12097 0.9795,-0.84136 1.9299,-1.48671 2.9063,-2.34375 1.1114,-0.76136 2.3784,-1.73174 3.4687,-2.625 1.5748,-1.29191 3.0349,-2.67351 4.6563,-3.8125 0.5883,-0.55885 1.2728,-1.01246 1.9374,-1.59375 0.7939,-0.55268 1.7093,-1.30082 2.5,-1.96875 0.9901,-0.67052 2.1019,-1.55603 3.0626,-2.375 1.0071,-0.82649 1.9717,-1.48295 2.9265,-2.40578 1.3874,-0.96382 2.6733,-2.45143 4.0544,-3.58532 0.6544,-0.45943 1.3211,-1.14087 2.0081,-1.54328 1.3352,-1.08861 2.6699,-2.25633 4.0568,-3.20636 1.8421,-1.65975 3.8303,-3.30161 5.6416,-4.97801 0.8076,-2.26344 -0.4998,-4.49478 -1.0134,-6.66662 -3.8385,-14.02139 -8.4572,-27.84027 -14.1332,-41.22905 -4.281,-10.28221 -9.1236,-20.31993 -14.211,-30.2248 -1.7931,-3.46471 -3.4519,-6.9982 -5.3924,-10.37953 -0.8196,-0.75268 -1.4009,-1.79916 -2.6,-1.8125 -1.377,0.0216 -2.8876,0.36499 -3.7216,1.53849 -4.7415,4.57271 -9.9792,8.58668 -15.0143,12.82395 -14.2061,11.71617 -28.3695,23.4842 -42.6015,35.16881 16.6354,-22.60417 33.2708,-45.20833 49.9062,-67.8125 -0.01,-2.67466 -1.2173,-5.15618 -2.6875,-7.3125 -1.8796,-2.686 -3.7008,-5.42708 -5.9063,-7.84375 -0.1165,-0.39936 -0.535,-0.7783 -0.7812,-1.09375 -6.9059,-7.9411 -13.5487,-16.10717 -20.4964,-24.01227 -6.0292,-6.89248 -12.5056,-13.37352 -19.0173,-19.80613 -2.5175,-2.43831 -5.0098,-4.9515 -7.5876,-7.29629 -0.9844,-0.46441 -2.2078,0.31317 -2.4612,1.30219 -0.3922,1.15713 -1.0542,2.18576 -1.6087,3.28149 -3.1371,6.24027 -6.4504,12.41119 -9.6698,18.61764 -9.4751,18.15918 -19.0123,36.28605 -28.4657,54.45649 -0.804,1.55854 -1.608,3.11709 -2.4121,4.67563 4.2572,-24.6369 8.3956,-49.29403 12.4807,-73.95996 1.6274,-9.70784 3.2523,-19.41961 4.5111,-29.18291 0.1116,-1.0836 -0.2581,-2.18355 -1.1332,-2.8423 -1.3591,-1.38812 -3.1063,-2.5231 -4.546,-3.67108 -1.0117,-0.71886 -1.9521,-1.74326 -3.0787,-2.42576 -5.6072,-3.89948 -11.416,-7.49848 -17.177,-11.16442 -4.8424,-3.04578 -9.8441,-5.81816 -14.9794,-8.33203 -9.5078,-4.84631 -19.0555,-9.62555 -28.8275,-13.92154 -6.0699,-2.67257 -12.1714,-5.3135 -18.4722,-7.39816 -1.4787,-0.56564 -3.3835,0.14159 -3.8932,1.65203 -0.572,2.15562 -0.2483,4.39799 -0.4332,6.59588 -0.9838,33.97717 -1.9676,67.95433 -2.9514,101.9315 -7.6959,-23.04338 -15.5696,-46.02673 -23.4198,-69.01781 -4.4611,-13.23747 -8.981,-26.45507 -13.561,-39.65179 -1.6852,-4.99778 -3.3941,-9.992633 -4.9879,-15.017899 -1.2764,-1.295562 -3.2592,-1.406698 -4.9768,-1.731736 -9.3625,-1.716057 -18.7856,-3.088563 -28.2351,-4.228855 -7.9918,-0.969066 -16.0172,-1.664186 -24.0556,-2.095271 -7.8165,-0.396512 -15.6439,-0.547861 -23.4699,-0.452516 -0.5251,0.0028 -1.0501,0.0056 -1.5751,0.0084 z m -57.8438,189.406249 c 2.7416,0.30541 4.987,2.12019 7.125,3.65625 1.268,1.71096 2.3483,3.62367 2.789,5.72471 0.3304,2.22951 -0.6796,4.36259 -1.9271,6.13792 -0.6539,0.95633 -1.1083,1.99103 -2.1671,2.50992 -1.7184,0.90204 -3.2998,2.18588 -5.2941,2.38849 -2.2113,0.31205 -4.2492,-0.92289 -6.0408,-2.05292 -0.7631,-0.56531 -1.7486,-0.984 -2.1624,-1.80937 -0.9019,-1.31477 -1.7163,-2.71635 -2.3937,-4.14944 -0.7876,-2.03455 -0.2213,-4.32396 0.9157,-6.10225 0.6282,-0.97255 1.1936,-2.0121 1.8918,-2.92581 1.4397,-1.04685 3.0019,-1.94947 4.5726,-2.76878 0.8415,-0.37037 1.7641,-0.64489 2.6911,-0.60872 z"
       id="path3982"
       inkscape:connector-curvature="0" />
    <path
       inkscape:connector-curvature="0"
       style="fill:none;stroke:#0000ff;stroke-width:4;stroke-miterlimit:4;stroke-dasharray:none;stroke-opacity:1"
       d="m 2598.6759,630.42465 c 0,0 10.7191,-10.43504 6.0867,-11.65754 -4.6317,-1.2223 -24.9914,32.84864 -41.5994,47.35538 -16.6081,14.50673 36.9641,-48.57295 32.3729,-49.84846 -4.5913,-1.27551 -43.2796,56.86745 -47.147,54.64342 -3.8675,-2.22403 42.5524,-55.9145 38.0294,-57.27995 -4.5229,-1.36545 -41.8968,55.05585 -45.7636,52.83068 -3.8668,-2.22517 41.2395,-54.1945 36.7802,-55.64381 -4.4593,-1.4493 -40.647,53.41858 -44.5135,51.19281 -3.8666,-2.22576 40.0537,-52.64137 35.6812,-54.20487 -4.3726,-1.56349 -39.5477,51.97904 -43.4144,49.75322 -3.8667,-2.22581 39.0403,-51.31473 34.7609,-53.00075 -4.2795,-1.68601 -38.6276,50.77487 -42.4949,48.54956 -3.8673,-2.22532 38.2156,-50.23578 34.0266,-52.04101 -4.189,-1.80524 -37.8938,49.81563 -41.7621,47.59136 -3.8683,-2.22427 37.5684,-49.39038 33.5053,-51.36134 -4.0632,-1.97096 -37.3735,49.137 -41.2432,46.91432 -3.8697,-2.22267 37.1565,-48.85427 33.1777,-50.93648 -3.9787,-2.0822 -37.0474,48.71374 -40.9189,46.4932 -3.8715,-2.22053 36.9399,-48.57506 33.0939,-50.8322 -3.846,-2.25714 -36.9654,48.6116 -40.8392,46.39375 -3.8737,-2.21785 36.9923,-48.64966 33.2827,-51.08661 -3.698,-2.42936 -39.0946,47.76139 -39.0946,47.76139 m 49.1101,59.66776 c 0,0 6.479,-4.85349 3.2515,-7.91691 -3.2275,-3.06334 -9.1748,12.04135 -19.4748,18.25838 -10.3,6.21702 16.2473,-21.32171 13.0195,-24.38507 -3.2279,-3.06336 -25.0223,32.83502 -30.8088,33.1305 -5.7865,0.29547 27.5809,-36.19385 24.3528,-39.2573 -3.2281,-3.06345 -28.9937,38.05022 -32.491,35.34271 -3.4973,-2.70751 29.2629,-38.40615 26.0345,-41.46978 -3.2284,-3.06363 -29.5318,38.76221 -33.0312,36.05717 -3.4995,-2.70505 29.8028,-39.12079 26.5742,-42.18467 -3.2285,-3.06389 -30.0736,39.47957 -33.5756,36.77746 -3.502,-2.7021 30.3471,-39.84134 27.1184,-42.90556 -3.2227,-3.05855 -32.3728,38.85406 -32.3728,38.85406 m 1.8502,26.75475 c 0,0 -2.3903,6.78085 -10.3174,9.88218 -7.9267,3.10121 9.8043,-12.85545 8.7643,-18.78583 -1.0401,-5.93038 -16.6798,21.87226 -24.168,24.39817 -7.4882,2.52591 23.1288,-30.32981 22.0692,-36.23641 -1.0596,-5.9066 -29.7468,39.01058 -36.4715,40.53548 -6.7247,1.52489 67.4173,-88.46661 64.1885,-91.53125 -3.2287,-3.06464 -68.3842,89.74173 -70.0514,84.63683 -1.6671,-5.1049 66.8227,-87.70146 63.5939,-90.7666 -3.2287,-3.06514 -65.261,85.6617 -66.9285,80.55584 -1.6675,-5.10586 63.6998,-83.62097 60.4711,-86.6867 -3.2287,-3.06572 -62.1386,81.58084 -63.8064,76.47401 -0.8328,-2.55019 23.8322,-34.90892 48.2046,-66.93354 24.3759,-32.02921 48.4638,-63.7299 46.6351,-64.98693 -1.8247,-1.25436 -25.9113,30.44643 -49.7913,61.82659 -23.8773,31.37669 -47.5495,62.43531 -48.3843,59.87925 -0.833,-2.55092 22.8361,-33.61141 46.2206,-64.3441 23.3877,-30.73695 46.4948,-61.15122 44.6835,-62.43098 -1.8077,-1.27726 -24.9136,29.13711 -47.814,59.23618 -22.8979,30.09587 -45.5917,59.87868 -46.4266,57.32232 -1.6684,-5.10878 90.6224,-119.11639 87.0323,-121.71157 -1.7917,-1.29513 -34.3231,41.53003 -66.7517,84.13009 -32.4237,42.5938 -64.7475,84.96655 -65.8306,82.73527 -1.0791,-2.22285 31.2412,-44.59786 63.3115,-86.73185 32.0758,-42.14112 63.9069,-84.04755 62.1244,-85.36893 -1.7758,-1.31647 -33.6049,40.59021 -65.3321,82.27682 -31.7227,41.68058 -63.346,83.14485 -64.4292,80.9134 -1.0793,-2.22337 30.5402,-43.68924 61.9153,-84.91763 31.3804,-41.23526 62.5213,-82.23904 60.7481,-83.57254 -1.7668,-1.32878 -32.9058,39.67525 -63.9423,80.46193 -31.032,40.7809 -61.9639,81.34797 -63.0471,79.11635 -1.0796,-2.22389 29.8485,-42.79251 60.5377,-83.12711 30.6941,-40.34118 61.154,-80.45404 59.3899,-81.79937 -1.7581,-1.34076 -32.2161,38.77235 -62.5708,78.67075 -30.3506,39.89286 -60.6001,79.57431 -61.6834,77.34252 -1.0798,-2.22439 29.1662,-41.90753 59.1783,-81.35981 30.0169,-39.45862 59.8044,-78.6918 58.0486,-80.04797 -1.7501,-1.35178 -31.5357,37.88166 -61.2174,76.90279 -29.6776,39.01582 -59.2533,77.82243 -60.3368,75.59047 -1.0799,-2.2249 28.4893,-41.02925 57.829,-79.60494 29.3443,-38.58177 58.4633,-76.94004 56.7128,-78.30318 -1.745,-1.35891 -30.8621,36.99962 -59.8738,75.14726 -29.0079,38.14258 -57.9123,76.07717 -58.9958,73.84503 -1.0802,-2.22539 27.8221,-40.16327 56.4975,-77.87282 28.6799,-37.71536 57.137,-75.20734 55.3862,-76.57002 -1.7456,-1.35863 -30.2009,36.1336 -58.548,73.4145 -28.3434,37.27606 -56.5805,74.34353 -57.6641,72.11121 -1.0805,-2.22586 27.1546,-39.2966 55.1598,-76.13186 28.0095,-36.84077 55.7932,-73.45098 54.0195,-74.78338 -1.7687,-1.32862 -29.5507,35.28181 -57.216,71.6729 -27.6618,36.38653 -55.2087,72.55642 -56.2924,70.32393 -1.0806,-2.2262 25.9873,-38.68636 53.2701,-74.57837 27.2868,-35.89726 54.7911,-71.23373 54.7911,-71.23373 M 2684.396,392.72785 c 0,0 -45.3357,63.60481 -62.301,78.65158 -16.9491,15.03243 62.2517,-82.26428 61.9079,-89.16795 -0.3438,-6.90367 -77.7774,102.77344 -88.8635,110.06237 -5.5403,3.64264 16.6234,-25.59564 40.0662,-56.57059 23.4452,-30.97798 48.1528,-63.67258 47.8499,-66.95773 -0.3022,-3.27783 -24.9721,29.37803 -50.7576,63.4515 -25.7866,34.07488 -52.6759,69.54838 -57.2539,71.91284 -4.5659,2.35824 22.3361,-33.12251 50.2351,-69.98695 27.9018,-36.86809 56.7802,-75.09482 56.3747,-78.24676 -0.4043,-3.14231 -29.2618,35.06861 -59.0809,74.47403 -29.8187,39.40499 -60.5849,79.98395 -64.5782,81.57558 -3.9795,1.58611 26.791,-38.99046 58.3751,-80.72746 31.5877,-41.74167 63.9665,-84.61588 63.469,-87.64846 -0.4957,-3.0209 -32.8688,39.85811 -66.1113,83.79099 -33.2409,43.93091 -67.3357,88.89349 -70.9849,90.02987 -3.6329,1.1313 31.0637,-44.61936 65.8714,-90.62158 34.8056,-45.99949 69.7173,-92.24449 66.8123,-92.08822 -2.8918,0.15556 -37.7985,46.3943 -72.9094,92.79635 -35.1126,46.40434 -70.4259,92.96722 -73.8317,93.78252 -3.39,0.81154 31.6874,-45.43764 66.5761,-91.54335 34.8851,-46.10092 69.5844,-92.06183 65.732,-90.64978 -3.8352,1.40573 -38.5348,47.36206 -73.1478,93.10051 -34.6166,45.74306 -69.1511,91.27445 -72.3771,91.85337 -3.2118,0.57638 31.3232,-44.95471 65.6276,-90.28332 34.3013,-45.32451 68.3758,-90.45125 64.5283,-89.04564 -3.8309,1.39955 -37.9137,46.53226 -71.869,91.39688 -33.9584,44.86863 -67.7946,89.47653 -70.8617,89.84644 -3.0542,0.36836 30.7819,-44.23921 64.3521,-88.59352 33.5677,-44.35086 66.8742,-88.45412 63.0354,-87.05984 -3.823,1.38854 -37.1298,45.4872 -70.279,89.28263 -33.1519,43.79892 -66.1519,87.30254 -69.1018,87.51845 -2.9383,0.21505 29.3906,-43.32011 62.3851,-86.91042 32.9963,-43.59261 66.6474,-87.23365 66.6474,-87.23365 m -208.1862,384.17417 c 0,0 -2.5632,7.00414 -9.1846,8.393 -6.621,1.3888 8.9645,-11.74871 8.5232,-18.46147 -0.4412,-6.71276 -15.1422,19.84752 -21.5064,20.89967 -6.3642,1.05215 21.065,-27.61226 20.6238,-34.32739 -0.4413,-6.71512 -26.9716,35.35803 -33.1928,36.22278 -6.2212,0.86475 32.7513,-42.93773 32.3111,-49.6566 -0.4403,-6.71888 -37.4728,49.13331 -39.6351,44.67904 -2.1589,-4.44733 38.9755,-54.75974 38.9755,-54.75974 m 263.2124,-383.88114 c 0,0 -2.9467,7.59467 -16.9507,18.78325 -14.0042,11.18868 16.2214,-21.5027 14.6269,-26.76332 -1.5945,-5.26062 -28.6291,37.94928 -42.4377,48.87229 -13.8086,10.92302 40.8415,-54.13065 39.1224,-59.22741 -0.8567,-2.53972 -46.0134,57.35488 -91.8226,117.93086 -45.803,60.56762 -92.2394,121.78976 -95.0874,121.86335 -2.8254,0.073 43.6139,-61.1494 90.3924,-123.00896 46.7867,-61.87041 93.8856,-124.34372 92.9638,-126.82682 -0.9143,-2.46273 -48.0055,60.01367 -95.7268,123.12629 -47.7143,63.10322 -96.0393,126.81549 -98.8035,126.7775 -2.7405,-0.0377 45.5851,-63.74764 94.201,-128.0455 48.6247,-64.30956 97.5129,-129.17287 96.5292,-131.57567 -0.975,-2.38155 -49.8539,62.48267 -99.3442,127.94332 -49.4825,65.45035 -99.5568,131.46974 -102.2576,131.34705 -2.6759,-0.12155 47.3997,-66.14017 97.7258,-132.70876 50.3355,-66.5811 100.8946,-133.67795 99.8627,-136.01853 -1.0221,-2.31843 -51.5752,64.78367 -102.7202,132.442 -51.1365,67.64698 -102.8454,135.82302 -105.4677,135.59577 -2.5965,-0.22502 49.1151,-68.40261 101.0339,-137.08728 51.9289,-68.69807 104.0386,-137.86955 102.9597,-140.14934 -1.061,-2.24195 -80.0457,102.60712 -159.5092,207.54212 -79.425,104.88415 -159.3284,209.85361 -160.4232,207.59821 -1.0695,-2.20318 78.8255,-107.17658 158.2392,-212.05829 79.4539,-104.93478 158.4282,-209.78012 157.28,-211.99248 -1.1219,-2.16155 -80.0874,102.68677 -159.5141,207.59804 -79.389,104.86132 -159.2405,209.78744 -160.3355,207.53176 -1.0696,-2.2035 78.7646,-107.12199 158.1107,-211.93909 79.3859,-104.86965 158.2866,-209.64168 157.1087,-211.81496 -1.151,-2.12343 -80.043,102.65145 -159.3872,207.47821 -79.3068,104.77732 -159.0681,209.60956 -160.1632,207.35361 -1.0685,-2.20126 79.7131,-108.39948 158.4364,-212.41999 78.7029,-103.99353 155.5493,-206.06706 148.0886,-199.88399 -7.2977,6.04806 -84.2214,108.16582 -159.7613,207.95849 -75.5842,99.85112 -150.0026,197.67314 -151.0953,195.42201 -1.0708,-2.20583 73.3318,-100.03803 145.7445,-195.70012 72.3964,-95.64056 142.9724,-189.32672 135.5051,-183.13287 -7.3301,6.08002 -77.9774,99.80699 -147.2023,191.23799 -69.2631,91.48152 -137.2884,180.9182 -138.3796,178.67027 -1.0729,-2.21008 66.938,-91.65608 133.0215,-178.93858 66.0709,-87.26592 130.3544,-172.54558 122.8792,-166.34009 -7.3614,6.11116 -71.71,91.42817 -134.6009,174.47584 -62.9235,83.09076 -124.543,164.12192 -125.6328,161.87687 -1.0704,-2.20499 78.2206,-106.50859 156.9822,-210.64926 78.7985,-104.18958 157.0779,-208.22943 155.7102,-210.15147 -1.3368,-1.87854 -79.6086,102.16332 -158.2725,206.18589 -78.6291,103.97655 -157.6581,207.94436 -158.7536,205.68765 -1.0706,-2.20546 77.9499,-106.17783 156.4387,-209.98084 78.5254,-103.8513 156.5301,-207.54739 155.1415,-209.44169 -1.3575,-1.85169 -79.3547,101.84632 -157.7352,205.51686 -78.3461,103.62513 -157.0837,207.23409 -158.1793,204.97725 -1.0709,-2.20592 77.6582,-105.81941 155.8505,-209.25288 78.2281,-103.4809 155.9316,-206.79751 154.5091,-208.64681 -1.3907,-1.80801 -79.087,101.51038 -157.1536,204.78829 -78.033,103.23333 -156.4454,206.43872 -157.5411,204.18178 -1.0711,-2.20641 77.3348,-105.41905 155.2003,-208.44264 77.9008,-103.07021 155.2743,-205.96839 153.8227,-207.77898 -1.4195,-1.77047 -78.7859,101.12937 -156.5109,203.97745 -77.6918,102.80427 -155.7521,205.57036 -156.8478,203.31334 -1.0715,-2.20692 76.9674,-104.96059 154.4561,-207.50766 77.5231,-102.59244 154.5112,-204.99779 153.0045,-206.73493 -1.4741,-1.69959 -79.111,101.5843 -158.0665,206.07428 -78.9695,104.50853 -159.1371,210.05876 -164.1765,212.98466 -4.9224,2.85794 75.2762,-102.70371 155.9825,-209.50069 80.6992,-106.78762 161.7817,-214.65101 160.241,-216.34973 -1.5031,-1.6573 -82.5739,106.21159 -164.8509,215.09081 -82.284,108.88846 -165.668,218.64245 -170.1275,220.80159 -4.3473,2.10487 79.0598,-107.65599 162.7764,-218.43319 83.7144,-110.77429 167.626,-222.42056 166.0473,-224.07196 -1.5375,-1.60834 -85.4306,110.03318 -170.4646,222.55821 -85.0364,112.52821 -171.1167,225.80774 -175.2169,227.49128 -4.0098,1.64644 65.8564,-90.26916 136.6411,-183.82878 70.8131,-93.59725 142.3937,-188.64471 143.2,-193.45016 0.7912,-4.71521 -70.7716,90.35024 -143.9207,187.05156 -73.1305,96.67669 -147.7301,194.8284 -151.5557,196.16252 -3.7485,1.30721 70.8699,-96.84863 146.296,-196.56118 75.4601,-99.75748 151.5651,-200.86235 152.3735,-205.67783 0.7913,-4.71325 -75.2944,96.4095 -152.9681,199.11139 -77.6493,102.66949 -156.761,206.74608 -160.3608,207.77847 -3.5419,1.0158 44.8048,-62.56802 93.4158,-126.70357 48.612,-64.13675 97.466,-128.79689 95.5355,-129.9397 -1.9134,-1.13271 -50.7596,63.52462 -100.13,128.66419 -49.3694,65.13829 -99.2452,130.73402 -102.6001,131.47169 -3.3245,0.73098 46.5872,-64.90617 96.7721,-131.11971 50.1882,-66.21804 100.6237,-132.97982 98.9927,-134.52062 -1.6156,-1.52632 -52.0449,65.23688 -103.0492,132.53512 -51.0011,67.29411 -102.5567,135.09491 -105.7533,135.62317 -3.1656,0.52314 48.4093,-67.29758 100.2585,-135.71077 51.8546,-68.42049 103.9546,-137.3968 102.5367,-139.22136 -1.4037,-1.80626 -53.4934,67.16762 -106.1785,136.68849 -52.6797,69.5138 -105.9332,139.54463 -108.9359,139.81689 -2.9716,0.26944 50.2945,-69.77357 103.7958,-140.37258 53.5087,-70.60871 107.2232,-141.73613 105.8971,-143.68401 -1.3119,-1.92711 -55.031,69.21837 -109.3228,140.86582 -54.2842,71.63748 -109.1206,143.74859 -111.8822,143.7029 -2.7313,-0.0452 52.1085,-72.15815 107.1191,-144.75624 55.0198,-72.61028 110.1828,-145.6706 108.8955,-147.67139 -1.2727,-1.97832 -56.4152,71.06712 -112.1261,144.59546 -55.7021,73.51674 -111.9522,147.48806 -114.6088,147.30344 -2.626,-0.18249 53.6265,-74.15509 110.0185,-148.58498 56.4025,-74.44366 112.9169,-149.30952 111.6566,-151.34743 -1.2455,-2.0139 -57.7523,72.85447 -114.831,148.19703 -57.069,75.32965 -114.689,151.10458 -117.2851,150.83928 -2.5646,-0.2621 55.0568,-76.0374 112.7956,-152.25401 57.7501,-76.23166 115.5895,-152.86892 114.3456,-154.93021 -1.2285,-2.03585 -59.0601,74.60408 -117.4656,151.70747 -58.3948,77.08924 -117.3422,154.61259 -119.8824,154.27286 -2.508,-0.33543 56.4405,-77.85917 115.4838,-155.80778 59.0557,-77.96489 118.1778,-156.31853 116.9444,-158.39518 -1.2175,-2.04987 -60.3299,76.30407 -120.0154,155.10745 -59.6739,78.78795 -119.8996,157.99588 -122.3802,157.57686 -2.4479,-0.41348 57.7785,-79.6218 118.0748,-159.23508 60.3096,-79.63082 120.6607,-159.63046 119.4315,-161.71421 -1.2126,-2.05574 -61.5562,77.94735 -122.4722,158.38599 -60.9034,80.42201 -122.3578,161.25007 -124.786,160.76118 -2.3949,-0.48217 59.0591,-81.30952 120.5608,-162.52549 61.516,-81.23474 123.0513,-162.82179 121.8298,-164.91722 -1.2044,-2.06614 -62.732,79.52437 -124.8311,161.53651 -62.0854,81.99423 -124.7211,164.38072 -127.0931,163.81698 -2.3382,-0.55567 60.2972,-82.9423 122.9555,-165.69715 62.6734,-82.77485 125.3415,-165.88195 124.1198,-167.97855 -1.204,-2.0662 -63.8643,81.04432 -127.0918,164.55869 -63.2131,83.49518 -126.9725,167.36535 -129.2851,166.72248 -2.2783,-0.63334 61.4804,-84.50367 125.2357,-168.71955 63.7713,-84.23711 127.5115,-168.78449 126.2866,-170.87813 -1.2066,-2.06223 -64.9383,82.48764 -129.2328,167.4237 -64.2791,84.91564 -129.1006,170.18925 -131.3577,169.4724 -2.2225,-0.70586 62.598,-85.97965 127.3892,-171.5766 64.8081,-85.61936 129.56,-171.52746 128.3287,-173.61403 -1.2123,-2.05424 -65.9564,83.85735 -131.2574,170.13586 -65.2846,86.25686 -131.1063,172.85332 -133.3063,172.0606 -2.1653,-0.7802 63.6559,-87.37816 129.4202,-174.27398 65.7822,-86.91936 131.4816,-174.10352 130.237,-176.17378 -1.2248,-2.03725 -66.9163,85.15032 -133.1554,172.68159 -66.2218,87.50845 -132.9722,175.33465 -135.111,174.46053 -2.1041,-0.85993 64.6467,-88.68938 131.306,-176.78145 66.6778,-88.11646 133.2403,-176.46507 131.957,-178.48523 -1.2622,-1.98708 -67.8143,86.36122 -134.8985,175.02302 -67.0663,88.63813 -134.6474,177.56586 -136.7317,176.61933 -2.0496,-0.93076 65.5315,-89.86203 132.9786,-179.00914 67.4657,-89.1717 134.7769,-178.53297 133.4127,-180.44668 -1.3413,-1.88164 -68.6455,87.48299 -136.4498,177.11019 -67.786,89.60304 -136.0576,179.44878 -138.0712,178.40851 -1.9793,-1.02258 66.2758,-90.85093 134.3592,-180.85305 68.1026,-90.02738 136.0161,-180.20616 134.6031,-182.05596 -1.3888,-1.81822 -69.2954,88.36353 -137.6753,178.7654 -68.3609,90.37688 -137.1833,180.95762 -139.1175,179.81244 -3.8354,-2.2708 54.4841,-71.75459 46.0849,-68.01375 -8.3993,3.74084 -49.7181,65.47714 -52.2407,61.47832 -2.5225,-3.99883 43.8567,-57.75771 35.4692,-54.03311 -8.3876,3.72461 -37.974,50.01099 -40.4096,45.89688 -2.4357,-4.11411 32.0217,-42.17187 23.6303,-38.44288 -8.3914,3.72898 -26.0632,34.32512 -28.4117,30.09549 -2.3486,-4.22962 20.02,-26.36611 11.6271,-22.63598 -8.3928,3.73013 -13.9707,18.39974 -16.2671,14.10052 -2.2965,-4.29919 3.678,-8.50597 3.678,-8.50597 m 507.003,-332.31441 c 0,0 54.1268,-68.25907 50.9348,-71.45104 -3.1759,-3.17592 -44.669,59.43515 -32.0873,35.30142 12.5818,-24.13372 28.9111,-38.47695 25.6711,-41.56822 -3.2398,-3.0911 -6.7731,5.31634 -6.7731,5.31634 m -156.5828,200.54203 c 0,0 28.8134,-37.23684 57.7683,-75.66071 28.9636,-38.43544 58.0512,-78.03183 58.8527,-82.80361 0.7989,-4.7562 -28.1161,33.70059 -57.2241,72.33846 -29.0995,38.62661 -58.3916,77.43359 -58.072,73.32155 0.3185,-4.09925 29.6059,-42.90979 58.9449,-81.86328 29.3512,-38.96967 58.7502,-78.07745 59.5525,-82.8521 0.7999,-4.75978 -28.6135,34.37988 -58.2409,73.72586 -29.6186,39.33437 -59.4507,78.87411 -59.2038,74.85639 0.246,-4.00471 30.0734,-43.54785 59.9685,-83.25832 29.9075,-39.72708 59.8783,-79.61574 60.6817,-84.39459 0.8009,-4.76345 -29.1159,35.06657 -59.3436,75.22874 -30.2189,40.15062 -60.7477,80.63128 -60.8779,77.11135 -0.1297,-3.50791 30.3946,-43.99091 61.0794,-84.76885 30.6972,-40.79445 61.5471,-81.87391 62.3517,-86.65723 0.8019,-4.76691 -30.0541,36.33463 -61.311,77.88265 -31.248,41.53623 -62.8948,83.51526 -63.365,80.44439 -0.4684,-3.05914 31.5539,-45.54425 63.4378,-87.93419 31.893,-42.40202 63.6493,-84.71131 62.9401,-87.47925 -0.7067,-2.7576 -32.4631,39.55923 -64.2873,81.8762 -31.8171,42.30748 -63.702,84.61534 -64.3597,81.79237 -0.6552,-2.81229 30.9487,-44.75553 62.1837,-86.29412 31.2412,-41.54678 62.1221,-82.69969 60.2912,-83.97227 -1.8244,-1.26803 -32.7055,39.88733 -63.3942,80.70293 -30.6839,40.80936 -61.179,81.28419 -61.9593,78.62389 -0.7777,-2.65114 29.7138,-43.12938 59.8658,-83.23626 30.1575,-40.11412 59.983,-79.86611 58.124,-81.10096 -1.8528,-1.23073 -31.6794,38.5248 -61.3228,77.95848 -29.6393,39.42806 -59.0984,78.5389 -59.9635,75.99076 -1.7278,-5.08915 47.2737,-62.81092 45.5595,-67.92752 -1.7141,-5.11661 -47.2883,62.83965 -49.1482,57.92453 -1.8598,-4.91513 47.4236,-63.02722 45.6879,-68.11652 -1.7357,-5.08931 -47.5501,63.20456 -49.525,58.44092 -1.9749,-4.76364 47.7893,-63.5302 46.053,-68.62018 -1.7362,-5.08997 -48.0387,63.87088 -50.0875,59.20429 -2.0489,-4.66659 48.3513,-64.29424 46.6146,-69.38506 -1.7367,-5.09082 -48.6663,64.72219 -50.7951,60.1608 -2.1289,-4.56139 49.0584,-65.2516 47.3215,-70.34346 -1.737,-5.09185 -49.4529,65.78537 -51.6407,61.30124 -2.1878,-4.48413 49.9037,-66.39307 48.1667,-71.48614 -1.7371,-5.09307 -50.3707,67.02351 -52.6176,62.61682 -2.2468,-4.40669 50.8805,-67.70987 49.1434,-72.80434 -1.7371,-5.09447 -51.3872,68.39359 -53.6801,64.04713 -2.293,-4.34647 51.943,-69.14157 50.2061,-74.23763 -1.737,-5.09605 -52.4912,69.88076 -54.8337,65.5992 -2.3425,-4.28157 53.0967,-70.69522 51.36,-75.79304 -1.7366,-5.09782 -53.706,71.51606 -56.0962,67.29704 -2.3902,-4.21901 54.3596,-72.39483 52.6233,-77.494598 -1.7362,-5.099766 -55.0136,73.275628 -57.4452,69.110678 -2.4315,-4.16495 55.7089,-74.210421 53.9732,-79.312321 -1.7357,-5.1019 -56.406,75.149061 -58.8711,71.027801 -2.4651,-4.12125 57.1354,-76.129678 55.4004,-81.233899 -1.735,-5.10422 -57.8659,77.113149 -60.3563,73.024649 -2.4904,-4.08849 58.6213,-78.128846 56.8871,-83.235573 -1.7342,-5.106727 -59.383,79.154483 -61.9119,75.116353 -2.5289,-4.03812 60.1777,-80.223057 58.4444,-85.332477 -1.7332,-5.10942 -60.9733,81.294377 -63.5295,77.291677 -2.5561,-4.0027 61.186,-81.586696 56.3246,-82.52108 -4.8613,-0.934384 -58.8807,78.5184 -61.464,74.55093 -2.5832,-3.96746 56.6037,-75.486634 51.6469,-76.293634 -4.9567,-0.806999 -54.2301,72.326194 -56.8403,68.393784 -2.6102,-3.93241 51.8847,-69.202321 46.824,-69.870527 -5.0608,-0.668207 -49.4363,65.940907 -52.0691,62.037837 -2.6328,-3.90307 47.0043,-62.700653 41.8403,-63.231112 -5.1639,-0.530459 -44.4663,59.319002 -47.1221,55.445732 -2.6558,-3.87327 41.9553,-55.97228 36.6735,-56.345465 -5.2818,-0.373184 -39.3306,52.473935 -42.015,48.63805 -2.6844,-3.835884 36.7297,-49.006445 31.3349,-49.228759 -5.3948,-0.222313 -34.0206,45.394569 -36.7234,41.58237 -2.7027,-3.8122 31.3341,-41.811939 25.8409,-41.902877 -5.4931,-0.09094 -28.5395,38.085155 -31.2615,34.297849 -2.7221,-3.787305 25.7863,-34.41275 20.131,-34.287193 -5.6553,0.125557 -22.8534,30.500397 -25.5987,26.743282 -2.7452,-3.757115 19.9469,-26.622361 14.1347,-26.287341 -5.8122,0.335019 -16.8803,22.530722 -19.6457,18.79978 -2.7654,-3.730942 13.8386,-18.471599 7.859,-17.913036 -5.9797,0.558564 -10.6248,14.182579 -13.4074,10.473886 -2.7827,-3.708693 7.4218,-9.907435 1.2845,-9.138315 -6.1373,0.769112 -5.466,3.584952 -5.466,3.584952 m 168.5143,138.556517 c 0,0 69.9217,-89.3246 66.0813,-91.69584 -3.801,-2.346876 -65.9756,87.8577 -65.7648,80.17889 0.2107,-7.67881 61.9636,-82.525476 58.1023,-84.792218 -3.8613,-2.266742 -57.8917,77.113448 -57.6813,69.431868 0.2105,-7.68158 53.8198,-71.698321 49.8999,-73.887242 -3.9199,-2.188922 -49.6895,66.205702 -49.4791,58.521032 0.2103,-7.68468 45.5573,-60.707409 41.5841,-62.825335 -3.9733,-2.117925 -41.3738,55.140695 -41.1633,47.452585 0.2106,-7.6881 37.1898,-49.570269 33.1226,-51.563227 -4.0671,-1.992958 -32.9121,43.875167 -32.7011,36.183297 0.2109,-7.69187 28.632,-38.173653 24.483,-40.057554 -4.1491,-1.883901 -24.2721,32.365724 -24.0604,24.669754 0.2116,-7.695967 19.9093,-26.55096 15.6942,-28.346987 -4.215,-1.796026 -15.4721,20.636968 -15.2658,12.945002 0.2062,-7.691967 11.0478,-14.737053 6.77,-16.449577 -4.2775,-1.712444 -6.4452,4.889252 -6.4452,4.889252 m -364.7518,446.82071 c 0,0 56.0968,-73.02914 111.5947,-146.47296 55.5115,-73.46168 110.426,-147.32145 108.9293,-149.04982 -1.4859,-1.71584 -26.4037,31.38756 -50.5497,63.41494 -24.1423,32.02226 -47.5138,62.97141 -45.7277,56.92153 3.5703,-12.09369 93.3015,-123.77159 90.0563,-126.84942 -1.6212,-1.53754 -23.3952,27.39523 -44.7228,55.69497 -21.3249,28.29623 -42.2046,55.96181 -41.9004,51.87228 0.6081,-8.17476 54.6356,-72.46604 48.8788,-72.20636 -5.7569,0.25968 -48.3621,64.15247 -48.5883,57.08037 -0.2263,-7.07211 42.9825,-57.02123 39.4838,-59.75974 -3.4987,-2.73852 -39.7433,52.73157 -40.3261,46.12974 -0.5829,-6.60184 36.4726,-48.39677 35.2724,-54.18839 -1.2001,-5.79161 -35.863,47.59675 -36.548,41.12819 -0.685,-6.46857 60.82,-80.76827 55.4756,-81.05661 -5.3444,-0.28833 -55.8986,74.2402 -57.1743,68.55328 -1.2757,-5.68691 51.8971,-68.93094 45.4556,-67.76072 -6.4415,1.17021 -48.0552,63.83052 -51.9824,61.66176 -3.9272,-2.16876 46.0323,-61.14462 36.7954,-56.25878 -9.237,4.88584 -40.7227,54.09018 -44.653,51.92518 -3.9302,-2.16499 34.1579,-45.36337 15.0695,-27.39466 -19.0884,17.96871 -18.9998,25.22983 -22.9321,23.06732 -3.9323,-2.16251 10.3801,-13.78231 4.585,-13.47184 -5.795,0.31047 -8.5174,11.30949 -12.4508,9.14819 -3.9334,-2.16131 6.6574,-8.83992 0.6914,-8.30247 -5.9659,0.53746 -4.6249,6.14132 -8.5584,3.97993 -3.9335,-2.1614 -0.4813,-3.05321 -0.4813,-3.05321 m 27.4056,118.50382 c 0,0 -28.7827,39.02062 -58.3002,78.01222 -29.5157,38.98922 -59.7588,77.94572 -62.4425,77.8121 -2.6752,-0.1332 26.3459,-38.39566 55.2068,-76.51852 28.8605,-38.12244 57.5628,-76.1078 54.4584,-75.68473 -3.0949,0.42178 -31.7984,38.40721 -60.4489,76.25167 -28.6509,37.84492 -57.2506,75.55146 -59.9339,75.4178 -2.6754,-0.13326 25.9548,-37.88032 54.632,-75.76034 28.6781,-37.88128 57.4011,-75.89294 55.1213,-76.56174 -2.2728,-0.66674 -30.9944,37.34507 -59.8738,75.49341 -28.8786,38.14715 -57.9135,76.4285 -60.5972,76.29488 -2.6753,-0.13322 26.3782,-38.43881 55.5826,-77.0171 29.2062,-38.5806 58.5586,-77.42821 56.7015,-78.65697 -1.8513,-1.22484 -31.2011,37.62332 -60.8194,76.75029 -29.6167,39.12492 -59.4985,78.52387 -62.1826,78.39037 -2.6752,-0.13305 27.2345,-39.56814 57.3361,-79.33458 30.1037,-39.76933 60.3933,-79.86259 58.7133,-81.32649 -1.6744,-1.45893 -31.9609,38.63515 -62.5651,79.0681 -30.6024,40.43043 -61.5182,81.19363 -64.2028,81.06037 -2.6751,-0.13279 28.2434,-40.89878 59.3626,-82.01308 31.1216,-41.11753 62.4371,-82.57504 60.808,-84.10707 -3.2519,-3.05803 -77.4628,102.43309 -81.518,100.44416 -4.0552,-1.98894 78.2713,-103.50913 75.0596,-106.62082 -3.2117,-3.11169 -79.1148,104.63188 -83.1702,102.64293 -4.0553,-1.98896 79.9604,-105.75717 76.7013,-108.80665 -3.2591,-3.04949 -80.7566,106.81769 -84.8121,104.82871 -4.0555,-1.98897 81.5523,-107.87719 78.2466,-110.8655 -3.3056,-2.98832 -46.1691,61.11571 -49.4891,58.15111 -3.3212,-2.96562 46.1826,-61.14072 42.8614,-64.10634 -3.3161,-2.97266 -46.1857,61.14976 -49.5018,58.1771 -3.3204,-2.96465 46.1796,-61.14393 42.8817,-64.14347 -3.2979,-2.99954 -46.2021,61.17882 -49.5227,58.21412 -3.3207,-2.9647 46.2196,-61.20678 42.9821,-64.28679 -3.2375,-3.08002 -46.3028,61.32208 -49.6238,58.35732 -3.321,-2.96476 46.3895,-61.44154 43.2373,-64.6353 -3.1521,-3.19376 -46.5583,61.67054 -49.8796,58.70573 -3.3213,-2.96482 46.7183,-61.88719 43.6398,-65.17919 -3.0784,-3.29199 -46.9611,62.21437 -50.2827,59.2495 -3.3216,-2.96487 47.2052,-62.54277 44.2132,-65.94999 -2.992,-3.40722 -47.5348,62.98512 -50.8567,60.02019 -3.3219,-2.96492 47.8657,-63.42871 44.9523,-66.94083 -2.9134,-3.51213 -48.2742,63.97591 -51.5965,61.01092 -3.3222,-2.96498 48.6718,-64.50801 45.8537,-68.14722 -2.8181,-3.63921 -49.1759,65.18224 -52.4985,62.21721 -3.3225,-2.96504 49.6908,-65.87028 47.0195,-69.70493 -2.6714,-3.83465 -50.342,66.73988 -53.6649,63.77479 -3.3229,-2.96508 50.9902,-67.60512 48.4185,-71.57273 -2.5718,-3.96761 -51.7414,68.60764 -55.0645,65.6425 -3.3232,-2.96515 52.494,-69.61187 50.0159,-73.70471 -2.4781,-4.09283 -53.3391,70.73956 -56.6626,67.77436 -3.3235,-2.9652 54.186,-71.86918 51.7902,-76.07225 -2.3958,-4.20306 -55.1137,73.10704 -58.4375,70.14179 -3.3238,-2.96526 56.0538,-74.36088 53.7053,-78.62763 -2.3486,-4.26674 -57.0291,75.66236 -60.3533,72.69705 -3.3241,-2.96531 58.0051,-76.96431 55.6687,-81.24817 -2.3364,-4.28387 -58.9928,78.28286 -62.3172,75.3175 -3.3245,-2.96537 59.9812,-79.60189 57.6538,-83.89873 -2.3274,-4.29685 -63.6439,84.46856 -61.6369,74.43273 2.007,-10.03583 59.3257,-78.75106 57.0294,-83.09014 -2.2964,-4.33908 -54.5009,72.36409 -49.0237,57.71678 5.4771,-14.64732 46.7251,-62.05287 44.4269,-66.39058 -2.2981,-4.3377 -40.2285,53.44502 -28.3947,30.34036 11.8336,-23.10406 24.9533,-36.85521 24.9533,-36.85521 m 237.0888,39.66852 c 0,0 21.2831,-24.576 17.6536,-27.14922 -3.6267,-2.57121 -17.559,23.33044 -20.2386,19.50254 -2.6796,-3.82778 4.9244,-10.23682 4.9244,-10.23682 m 1.165,-1.54801 c 0,0 10.5649,-10.34418 6.5656,-12.42153 -3.9987,-2.07703 -15.2296,20.2387 -19.7354,18.8364 -4.5058,-1.40231 15.7678,-20.95484 11.1606,-22.22321 -4.6039,-1.26748 -19.2906,21.94159 -19.2906,21.94159 M 2078.7865,458.1271 c 0,0 -44.4371,62.33492 -49.8231,62.0683 -5.36,-0.26534 47.0013,-62.01399 41.3352,-61.8756 -5.666,0.13838 -46.6952,61.61024 -52.0559,61.34581 -5.3607,-0.26443 46.3882,-61.20529 40.7209,-61.06518 -5.6674,0.1401 -46.0816,60.80073 -51.4431,60.53741 -5.3616,-0.26331 45.7734,-60.39421 40.1013,-60.24791 -5.6721,0.14629 -47.1107,62.15741 -48.81,57.06545 -1.6992,-5.09195 43.1379,-56.91916 37.4659,-56.77286 -5.6721,0.1463 -39.1771,51.69667 -40.8114,46.51777 -1.6344,-5.17889 35.1393,-46.37147 29.4673,-46.22517 -5.6721,0.1463 -31.1137,41.06216 -32.5927,35.67673 -1.4789,-5.38542 26.9206,-35.53043 21.2485,-35.38413 -5.672,0.14629 -22.7112,29.97732 -24.0661,24.42673 -1.355,-5.55058 18.3941,-24.28044 12.722,-24.13414 -5.672,0.1463 -14.085,18.5942 -15.2987,12.85551 -1.2138,-5.73868 9.6267,-12.70921 3.9546,-12.56291 -5.672,0.1463 -5.6782,3.82586 -5.6782,3.82586 m 106.2221,-66.87896 c 0,0 -33.3744,47.81215 -37.4422,45.81719 -4.0556,-1.98901 35.5534,-46.99668 31.7757,-49.3559 -3.7778,-2.35922 -35.8313,47.36689 -39.8871,45.37785 -4.0557,-1.98905 36.1093,-47.73707 32.3315,-50.0965 -3.7778,-2.35943 -36.3872,48.10745 -40.4431,46.11837 -4.0559,-1.98909 36.6653,-48.47781 32.8875,-50.83744 -3.7779,-2.35962 -36.9434,48.84835 -40.9994,46.85922 -4.056,-1.98914 37.2215,-49.21885 33.4435,-51.57865 -3.7779,-2.3598 -37.4995,49.58951 -41.5556,47.60032 -4.0562,-1.98919 37.7776,-49.96013 33.9996,-52.32008 -3.7781,-2.35995 -38.0558,50.33089 -42.112,48.34163 -4.0562,-1.98925 38.3339,-50.70159 34.5557,-53.06167 -3.7782,-2.36009 -38.6119,51.07242 -42.6683,49.0831 -4.0563,-1.98932 38.8901,-51.44319 35.1117,-53.80339 -3.7783,-2.3602 -39.168,51.81407 -43.2245,49.82467 -4.0564,-1.9894 39.4462,-52.18487 35.6677,-54.54516 -3.7785,-2.36028 -39.7241,52.55576 -43.7807,50.56629 -4.0565,-1.98948 40.0022,-52.92657 36.2235,-55.28692 -3.7787,-2.36036 -40.5185,53.61281 -44.0982,50.9925 -3.5796,-2.62031 40.3195,-53.35286 36.5407,-55.71326 -3.7789,-2.36039 -38.5299,50.99034 -38.4348,43.50849 0.095,-7.48186 34.6559,-45.86889 30.8768,-48.22931 -3.7791,-2.36042 -30.7606,40.71956 -30.3157,32.77165 0.4449,-7.94791 26.5366,-35.13208 22.7573,-37.4925 -3.7793,-2.36042 -22.3284,29.56591 -21.4108,20.98867 0.9177,-8.57724 17.6315,-23.34909 13.852,-25.7095 -3.7796,-2.36041 -12.9852,17.19986 -11.4775,7.83693 1.5077,-9.36285 5.808,-11.37752 5.808,-11.37752"
       id="path4185"
       inkscape:path-effect="#path-effect4710"
       inkscape:original-d="m 2330.8471,47.359261 c -0.069,4.36e-4 -0.1491,0.0079 -0.2187,0.03125 -7.5705,0.02628 -15.1369,0.291798 -22.6875,0.84375 -8.9183,0.618205 -17.8034,1.675476 -26.6562,2.90625 8.1646,10.762029 16.2335,21.606879 24.0937,32.593749 6.5498,9.19206 13.0644,18.40138 19.3437,27.78125 8.7542,12.90734 17.2229,26.00502 25.4063,39.28125 5.3716,8.80701 10.6749,17.67405 15.75,26.65625 2.868,5.05819 5.6749,10.1411 8.375,15.28125 2.9547,5.53843 5.7941,11.14172 8.625,16.75 3.8462,7.80488 7.5674,15.69092 11,23.6875 3.4184,7.81522 6.5684,15.72542 9.375,23.78125 2.2585,6.4905 4.3395,13.05553 6.0313,19.71875 1.6729,6.47359 2.9857,13.05135 3.8124,19.6875 0.7583,6.4242 1.0416,12.91813 0.5626,19.375 -0.7645,10.89182 -1.0802,21.82109 -2.5,32.65625 -0.4973,3.42256 -0.8848,6.92582 -2.1876,10.15625 -0.653,1.52574 -1.5244,3.14984 -3.25,3.59375 -2.1566,0.57794 -4.3333,-0.48657 -6.125,-1.59375 -2.2846,-1.49152 -4.281,-3.30799 -6.3124,-5.125 -2.5758,-2.34139 -4.7314,-5.10235 -6.875,-7.8125 -4.161,-5.66096 -8.0139,-11.54101 -11.7813,-17.46875 -7.1358,-11.30612 -13.8954,-22.82957 -20.6875,-34.34375 -7.0912,-12.14489 -14.1336,-24.33151 -21.3438,-36.40625 -4.5002,-7.47774 -9.0757,-14.95033 -14.5312,-21.78125 -1.8744,-2.49286 -3.8758,-5.05749 -5.7188,-7.46875 -3.631,-4.42553 -7.6669,-8.51967 -12.0624,-12.1875 -0.6349,-0.35836 -1.4436,-0.89087 -2.0626,-1.375 -1.3786,-1.07605 -2.9664,-2.08676 -4.5312,-3.0625 l -18.5625,19.34375 c 1.4014,1.31174 2.7513,2.73241 3.5,4.53125 1.9245,4.24498 1.7677,9.41319 -0.625,13.4375 -0.7891,1.24359 -1.8691,2.31588 -2.9687,3.3125 -0.9394,0.89344 -2.0075,1.69191 -3.25,2.125 -4.4239,1.86686 -9.8128,1.42531 -13.7813,-1.3125 -1.4701,-1.13146 -2.7994,-2.55465 -3.9063,-4.03125 -2.9353,-4.57183 -2.7631,-10.90009 0.3438,-15.34375 1.8044,-2.18114 3.9074,-4.33066 6.6562,-5.25 1.6521,-0.59868 3.3965,-0.93169 5.1563,-0.90625 2.8176,0.0687 5.6483,0.90157 7.9375,2.5625 0.2599,0.2386 0.5199,0.47601 0.7812,0.71875 l 18.5313,-19.34375 c -0.2894,-0.17936 -0.5877,-0.35716 -0.875,-0.53125 -3.8278,-2.26393 -7.9388,-4.10161 -12.2813,-5.125 -8.3353,-2.14083 -17.2115,-1.75365 -25.4687,0.5625 -6.5822,1.80692 -12.724,5.01386 -18.1563,9.125 -1.5621,1.12797 -3.1107,2.18155 -4.5312,3.40625 -5.2491,4.45002 -9.7203,9.70974 -14.3125,14.8125 -3.0724,3.37109 -6.124,6.8816 -9.8437,9.53125 -1.9336,0.97637 -4.0966,1.60481 -6.2813,1.375 -10.0316,0.37854 -20.0461,1.23027 -30,2.53125 14.2132,7.81291 28.4387,15.6131 42.625,23.46875 0.9178,7.91567 1.816,15.84658 2.5625,23.78125 0.7179,7.18755 1.26,14.3992 1.3438,21.625 0.109,7.98153 -0.4961,15.98505 -1.9063,23.84375 -0.946,5.1242 -2.3533,10.17184 -4.625,14.875 -0.917,1.8712 -1.8041,3.79568 -3.25,5.3125 -2.3039,2.76814 -4.8963,5.4802 -8.3437,6.75 -3.187,1.22619 -6.5147,2.11333 -9.9376,2.3125 -4.2443,0.34892 -8.5792,-0.48497 -12.4062,-2.34375 -3.0703,-1.4292 -5.9153,-3.31868 -8.4375,-5.5625 -5.2651,-4.36954 -10.2018,-9.09709 -15.125,-13.84375 -5.4952,-5.37483 -11.137,-10.60441 -16.875,-15.71875 -7.9491,-7.15935 -16.0108,-14.19515 -23.4687,-21.875 -8.0813,-8.09237 -15.6049,-16.73702 -22.7188,-25.6875 -3.3423,-4.21371 -6.4536,-8.68114 -9.4688,-13.15625 -5.0579,-7.56244 -9.7295,-15.36566 -14.1562,-23.3125 -4.5895,-8.28556 -9.1202,-16.60554 -13.625,-24.9375 -4.0492,-7.7127 -8.1764,-15.40185 -12.2188,-23.125 -0.3466,-0.0704 -0.3232,-1.17814 -0.625,-0.5625 -5.3723,7.9604 -10.5447,16.08092 -15.2812,24.4375 -3.764,6.7717 -7.5521,13.51071 -10.9062,20.5 -4.1676,8.56753 -7.8918,17.34718 -11.4376,26.1875 -2.8099,7.25884 -5.376,14.60878 -7.7187,22.03125 -1.2794,4.03614 -2.4817,8.09758 -3.6875,12.15625 34.3944,30.67746 68.7798,61.36497 103.1562,92.0625 0.4004,0.45718 -0.2027,0.96963 -0.7187,0.84375 -0.8102,-0.28045 -1.526,-0.92685 -2.3125,-1.34375 -35.4092,-22.11158 -70.8095,-44.23217 -106.2188,-66.34375 -1.5383,8.29731 -3.0278,16.61428 -4,25 -0.7424,5.63387 -1.28,11.30404 -1.7187,16.96875 -0.4452,6.33027 -0.7428,12.65629 -0.9063,19 -0.093,4.66531 -0.094,9.34378 0.125,14 0.4237,0.5949 1.3252,0.7225 1.9376,1.125 33.7542,16.55461 67.4961,33.10083 101.25,49.65625 0.209,0.75834 -0.6466,1.03925 -1.25,0.90625 -7.6301,0.13342 -15.2754,0.35371 -22.9063,0.53125 l -73.9063,1.90625 c 1.6727,10.2688 4.0255,20.39902 6.625,30.46875 2.2955,9.06832 5.238,17.98252 8.2188,26.84375 0.1208,0.65801 0.3527,1.16574 1.125,0.96875 29.8386,1.46064 59.6627,2.95302 89.5,4.4375 0.4134,0.44244 -0.041,0.97018 -0.5,1.09375 -3.6514,1.54175 -7.2365,3.23406 -10.875,4.8125 -20.8455,9.25053 -41.6891,18.52321 -62.5312,27.78125 4.2989,8.12265 8.6228,16.24987 13.375,24.125 2.1964,3.74741 4.5296,7.46521 6.9062,11.0625 6.7267,4.22338 13.7969,7.86024 21.0625,11.0625 9.4936,4.27323 19.3292,7.779 29.3125,10.71875 12.8377,3.79078 25.9849,6.47354 39.2188,8.4375 9.0623,1.29554 18.1731,2.22071 27.3124,2.75 3.7166,0.21705 7.4325,0.46526 11.1563,0.28125 5.778,-0.21023 11.5303,-0.82902 17.25,-1.65625 7.486,-1.16968 14.9264,-2.68202 22.2813,-4.5 6.5186,-1.6772 12.9631,-3.60935 19.3437,-5.75 9.7299,-3.32416 19.3085,-7.09062 28.6563,-11.375 5.1438,-2.33558 10.2466,-4.82798 15.2187,-7.5 5.4356,-2.93984 10.8056,-5.96885 16.0625,-9.21875 2.3195,-1.38159 4.601,-2.84087 6.8438,-4.34375 27.4195,56.47772 54.8327,112.95857 82.25,169.4375 10.3006,-1.38745 20.5922,-2.86403 30.75,-5.09375 3.0054,-0.61811 6.0117,-1.27218 9,-1.96875 -1.2383,-18.89588 -2.4874,-37.7914 -3.7188,-56.6875 0.3489,-0.60898 1.3995,-0.17054 1.3125,0.53125 5.7083,17.47917 11.4167,34.95833 17.125,52.4375 9.3317,-2.59803 18.5532,-5.57129 27.625,-8.96875 5.3541,-1.94979 10.6314,-4.11917 15.875,-6.34375 0.4856,-0.0631 1.0238,-0.53695 0.6563,-1.03125 -1.8658,-10.79866 -3.751,-21.59527 -5.7188,-32.375 0.064,-0.40488 -0.4872,-1.16867 -0.031,-1.3125 0.5906,0.30422 1.2003,0.92618 1.8124,1.34375 9.3237,7.18012 18.6369,14.38381 27.9376,21.59375 11.8092,-6.28832 23.3359,-13.13987 34.4062,-20.65625 2.3513,-1.62922 4.7173,-3.22383 7.0312,-4.90625 -19.2463,-18.26906 -38.5211,-36.55231 -57.75,-54.8125 -0.2543,-0.73092 0.8581,-1.02199 1.3126,-0.5625 24.6711,14.10007 49.2684,28.31052 73.9062,42.46875 1.4747,-1.17126 2.876,-2.31941 4.3438,-3.5625 6.962,-5.79074 13.6261,-11.94455 20.0624,-18.3125 8.777,-8.68398 17.1003,-17.79816 24.9688,-27.3125 1.4712,-1.78291 2.9331,-3.59355 4.4062,-5.375 -8.5326,-2.23118 -17.0583,-4.52658 -25.4687,-7.1875 -7.9032,-2.4395 -15.7209,-5.16012 -23.4063,-8.21875 -5.903,-2.37332 -11.7491,-4.86302 -17.4374,-7.71875 -7.6222,-3.63811 -15.0114,-7.78025 -22.0626,-12.4375 -8.3818,-5.58987 -16.6113,-11.40665 -24.75,-17.34375 -8.9538,-6.58595 -17.8096,-13.28313 -26.5937,-20.09375 -7.1297,-5.42563 -14.0796,-11.07587 -21.2813,-16.40625 -1.375,-1.01447 -2.8794,-1.94626 -4.2812,-2.875 -0.2353,-0.79016 0.7545,-0.98652 1.3438,-0.8125 5.9394,0.59607 11.9097,0.93155 17.875,1.125 7.4326,0.27148 14.8815,0.25331 22.3124,-0.0625 9.824,-0.5406 19.6529,-1.38645 29.3438,-3.125 12.1397,-2.0414 24.1159,-5.03251 35.75,-9.0625 7.2165,-2.57971 14.3659,-5.40348 21.25,-8.78125 7.7629,-3.75957 15.2833,-8.0067 22.5312,-12.6875 6.7477,-4.24854 13.1701,-8.98216 19.4376,-13.90625 1.0997,-0.76075 2.1664,-1.875 3.3437,-2.65625 1.7939,-1.35423 3.5341,-3.00575 5.3125,-4.5 9.0883,-8.05117 17.6202,-16.67623 25.7188,-25.71875 3.5929,-4.02319 7.1049,-8.14634 10.5312,-12.3125 1.3303,-1.70726 2.8008,-3.32371 4.0625,-5 0.9525,-1.23362 1.8794,-2.34066 2.7813,-3.5625 6.8372,-8.7492 13.6477,-17.51934 20.4687,-26.28125 -0.086,-11.38717 -0.5501,-22.79421 -1.7187,-34.125 -0.696,-7.25608 -1.6535,-14.46513 -2.8438,-21.65625 -0.6179,-3.78149 -1.2663,-7.56596 -1.9062,-11.34375 -19.1874,7.03775 -38.3759,14.08651 -57.5938,21.03125 -0.7887,0.0778 -0.7034,-1.30931 0,-1.34375 8.936,-7.12368 17.8229,-14.28043 26.7812,-21.375 1.838,-1.37372 3.7521,-3.006 5.625,-4.46875 6.7292,-5.37594 13.4584,-10.74906 20.1876,-16.125 -3.0037,-11.4721 -6.6299,-22.76811 -10.7813,-33.875 -3.2219,-8.51584 -6.8023,-16.89316 -10.625,-25.15625 -2.6439,-5.6915 -5.4516,-11.29898 -8.5,-16.78125 -1.5257,-2.82138 -3.0622,-5.65063 -4.5937,-8.46875 -26.4602,21.92288 -52.9079,43.86046 -79.3438,65.8125 -0.4889,0.45193 -1.1586,-0.34345 -0.8438,-0.875 6.6537,-8.98154 13.1825,-18.06332 19.8126,-27.0625 15.1787,-20.74112 30.3524,-41.47764 45.5312,-62.21875 -4.8665,-6.88099 -9.7895,-13.7174 -15,-20.34375 -1.3063,-1.6749 -2.5226,-3.29745 -3.9062,-4.90625 -1.4175,-1.94773 -3.1729,-3.79926 -4.7813,-5.6875 -5.9252,-6.87638 -12.0585,-13.57169 -18.5,-19.96875 -3.2149,-3.256 -6.5094,-6.4293 -9.8437,-9.5625 -0.575,0.80718 -0.982,1.95193 -1.5313,2.875 l -49.25,94.46875 c 0.085,0.7525 -1.3226,0.99973 -1.2813,0.125 6.8853,-41.04345 13.7811,-82.08512 20.6876,-123.125 -6.7038,-4.77826 -13.4513,-9.4987 -20.4063,-13.90625 -7.8999,-4.94404 -15.9715,-9.60177 -24.1875,-14 -9.6885,-5.25062 -19.7588,-9.806 -29.9375,-14.03125 -3.4983,-1.43319 -7.0189,-2.82013 -10.5313,-4.21875 -0.3806,8.86156 -0.5367,17.72851 -0.8124,26.59375 -0.8999,32.66568 -1.789,65.3343 -2.6876,98 -0.092,0.7576 -1.3919,0.45382 -1.2187,-0.25 -15.805,-46.36003 -31.647,-92.70751 -47.375,-139.093749 -11.0201,-2.306804 -22.1488,-4.10491 -33.3437,-5.3125 -6.2138,-0.694683 -12.4451,-1.177393 -18.6876,-1.53125 -6.5392,-0.323008 -13.0785,-0.55494 -19.625,-0.59375 -0.2102,-0.0021 -0.4175,-0.06381 -0.625,-0.0625 z" />
    <path
       d="m 2327.9692,12.106308 c -5.3738,0 -10.6995,0.276832 -16.0201,0.492935 -206.82,8.412245 -371.918,178.568947 -371.918,387.447527 0,208.87858 165.1058,379.03212 371.918,387.44752 6.6122,0.3352 13.2683,0.49294 19.9635,0.49294 5.3611,-0.0552 10.7137,-0.22399 16.0201,-0.49294 206.8122,-8.41224 371.918,-178.56894 371.918,-387.44752 0,-208.87858 -165.1058,-379.032127 -371.918,-387.447527 -6.6122,-0.335196 -13.2683,-0.492935 -19.9635,-0.492935 z"
       id="path2838"
       inkscape:connector-curvature="0"
       style="fill:none;stroke:#0000ff;stroke-width:4;stroke-miterlimit:4;stroke-dasharray:none;stroke-opacity:1" />
    <path
       inkscape:original-d="m 759.96875,196.46875 -186.1875,399.5625 H 628.0625 C 642.52154,564.52117 656.97495,533.00839 671.4375,501.5 H 798.5 v -47.53125 c -35.48445,0.0248 -70.98235,0.0245 -106.46875,0.0312 22.30921,-48.80903 44.613,-97.62114 66.90625,-146.4375 0.0312,0.0729 0.0625,0.14583 0.0937,0.21875 20.52054,47.03428 41.06179,94.06888 61.53125,141.125 0.52728,1.21588 1.1806,2.66543 0.59375,3.96875 -0.37244,0.50319 -1.0556,1.11065 -1.84375,1.09375 -6.90621,0.009 -13.81148,-0.005 -20.71875,0 v 47.53125 h 44.59375 c 13.62166,31.50712 27.22799,63.02138 40.84375,94.53125 h 55.28125 L 759.9687,196.4687 Z m 379.87505,10.59375 c -0.8481,-0.005 -1.6834,0.0205 -2.5313,0.0312 -7.9838,0.15755 -15.9686,0.54884 -23.9063,1.4375 -9.028,1.13323 -17.9614,2.96206 -26.7812,5.1875 -5.2999,1.38946 -10.5416,2.9862 -15.7188,4.78125 -4.8405,1.70437 -9.6591,3.52733 -14.3437,5.625 -6.7166,3.1817 -13.0706,7.04901 -19.4375,10.875 -5.5683,3.40983 -11.0476,6.98692 -16.25,10.9375 -4.7611,3.47434 -9.4442,7.04356 -14.125,10.625 -0.5517,0.39244 -1.1385,0.89457 -1.6875,1.46875 -3.0245,2.81972 -5.91946,5.76216 -8.84375,8.6875 -2.75104,2.84963 -5.47932,5.7471 -8.0625,8.75 -0.80517,1.29804 -1.73761,2.77365 -2.65625,4.09375 -3.41728,4.94154 -7.05886,9.72243 -10.53125,14.625 -4.0169,5.70934 -7.58689,11.71835 -11.09375,17.75 -2.20171,3.8902 -4.42806,7.76477 -6.5,11.71875 -3.42818,6.85446 -6.01404,14.10523 -8.40625,21.375 -3.82269,11.60409 -6.63065,23.5445 -8.25,35.65625 -0.8002,5.69278 -1.30031,11.41025 -1.46875,17.15625 -0.34739,7.772 -0.21828,15.57757 0.21875,23.34375 0.49967,8.48177 1.61352,16.90066 3.34375,25.21875 1.54691,7.41356 3.3433,14.81406 5.75,22 2.11769,6.55149 4.51019,13.00478 7.34375,19.28125 2.253,4.96751 5.14113,9.5831 7.84375,14.3125 3.74675,6.41724 7.82328,12.66376 12.21875,18.65625 4.17298,5.80438 8.53199,11.47886 12.75,17.25 0.83467,1.08488 1.94947,2.18523 2.96875,3.21875 4.97333,5.17784 10.062,10.27961 15.5313,14.9375 1.2933,0.62681 2.5569,1.66566 3.8124,2.5 6.5992,4.61125 12.9594,9.5742 19.75,13.90625 5.9492,3.70422 11.9771,7.31539 18.1563,10.625 3.9849,2.22909 8.1291,4.16807 12.4063,5.78125 7.3125,2.93736 14.8442,5.3135 22.4374,7.40625 8.8429,2.25348 17.7936,4.09157 26.8438,5.28125 11.2388,1.39921 22.597,1.6355 33.9062,1.25 7.9643,-0.35789 15.9628,-0.93 23.8126,-2.375 7.2022,-1.28412 14.347,-2.8917 21.4062,-4.8125 6.5873,-1.76321 13.0725,-3.85641 19.4688,-6.21875 6.0128,-2.30432 11.9889,-4.75334 17.7187,-7.6875 3.7242,-2.04185 7.3636,-4.24058 11.2187,-6.03125 0.3613,-1.36617 -0.03,-2.79283 0.125,-4.1875 0.1259,-9.67468 0,-19.35638 0.063,-29.03125 -0.099,-9.05174 -0.045,-18.10415 -0.063,-27.15625 -4.9468,4.06151 -9.8115,8.2229 -14.8124,12.21875 -3.4606,2.95271 -7.3983,5.35615 -11.3126,7.6875 -4.2779,2.45719 -8.7618,4.53502 -13.1874,6.71875 -6.7081,3.30844 -13.5795,6.36196 -20.75,8.53125 -4.2357,1.30802 -8.5883,2.29353 -12.9688,2.96875 -6.1634,0.91754 -12.3352,1.69767 -18.5625,2 -7.6407,0.47037 -15.3096,0.3511 -22.9375,-0.28125 -7.7249,-0.62494 -15.4334,-1.68833 -23,-3.375 -10.1497,-2.39514 -19.958,-6.09536 -29.3125,-10.6875 -4.167,-2.07006 -8.3266,-4.15061 -12.4063,-6.375 -1.9198,-1.12172 -3.7051,-2.45789 -5.3437,-3.9375 -3.9696,-3.29596 -7.7674,-6.80679 -11.7187,-10.125 -5.5236,-4.81531 -10.7645,-9.97069 -15.4688,-15.59375 -4.4227,-4.9984 -8.6098,-10.18731 -12.8438,-15.34375 -2.1231,-2.56203 -3.3553,-5.75465 -4.9062,-8.6875 -4.1658,-8.1683 -8.0863,-16.47771 -10.90625,-25.21875 -2.12914,-6.68709 -3.84774,-13.52735 -4.90625,-20.46875 -1.04766,-6.75316 -1.71566,-13.55259 -2.09375,-20.375 -0.32126,-5.55325 -0.35028,-11.13184 -0.0625,-16.6875 0.38283,-7.90093 1.31192,-15.76013 2.59375,-23.5625 1.13238,-7.00864 2.98795,-13.88005 5.28125,-20.59375 2.89135,-8.47479 6.69805,-16.62085 10.81255,-24.5625 2.1838,-4.32367 4.4668,-8.67084 7.6874,-12.3125 1.7302,-2.07501 3.5853,-4.07914 5.3126,-6.15625 4.9191,-5.65361 9.8156,-11.32909 15.25,-16.5 6.1527,-5.9483 12.8466,-11.28961 19.375,-16.8125 1.2932,-1.13495 2.6358,-2.14277 4.1562,-2.96875 3.2352,-1.83452 6.6516,-3.37858 9.9688,-5.0625 8.7608,-4.26089 17.8134,-7.95944 27.25,-10.4375 7.382,-1.96375 14.983,-2.90144 22.5624,-3.71875 6.9928,-0.70774 14.0391,-0.97257 21.0626,-0.625 7.7924,0.32129 15.5709,1.24821 23.25,2.59375 6.5622,1.21773 12.9833,3.05658 19.2812,5.25 5.3703,1.88717 10.6119,4.15209 15.7812,6.53125 6.1389,2.88138 12.2121,5.90662 18.1563,9.15625 4.1896,2.4666 8.1498,5.28954 12.0937,8.125 0.8306,0.76578 1.7595,1.4935 2.5938,2.15625 1.6417,1.38702 3.2689,2.7907 4.875,4.21875 0.2137,-14.80949 0.1833,-29.62698 0.2188,-44.4375 -0.01,-4.76253 -0.042,-9.51875 -0.063,-14.28125 -3.7207,-1.99327 -7.5279,-3.80377 -11.1874,-5.90625 -4.4429,-2.37755 -9.0145,-4.57821 -13.7188,-6.40625 -5.8837,-2.44549 -11.8846,-4.60778 -17.9688,-6.5 -8.4566,-2.54166 -17.0551,-4.52926 -25.75,-6.0625 -9.8148,-1.83085 -19.8404,-2.41221 -29.8124,-2.34375 z M 56,214.5 v 381.53125 h 51.0625 v -158.0625 c 2.61167,-0.007 5.231,-0.003 7.84375,0 V 391.1875 c -2.61444,0.0157 -5.22853,0.0238 -7.84375,0.0312 V 261.0312 h 0.0937 c 12.17354,0.008 24.37315,-0.0886 36.53125,0.625 6.86778,0.45954 13.7312,1.17232 20.5,2.4375 6.61027,1.23679 13.0811,3.18257 19.21875,5.9375 2.81425,1.24396 5.60134,2.58782 8.3125,4.03125 2.16785,1.39503 3.8912,3.29775 5.875,4.9375 4.14176,3.85079 8.05487,7.95 11.65625,12.3125 1.28759,1.552 1.82677,3.61611 2.75,5.40625 2.16065,5.04803 3.97697,10.31085 4.65625,15.78125 0.93506,6.62401 1.06039,13.33418 0.53125,20 -0.57413,5.81593 -1.2646,11.68694 -3.25,17.21875 -1.32483,3.96209 -3.11801,7.7676 -4.96875,11.5 -2.6681,3.19495 -5.66221,6.1488 -8.5625,9.15625 -2.99319,2.94406 -6.14557,5.81973 -9.4375,8.375 -5.12352,2.68487 -10.45332,4.9499 -15.90625,6.875 -5.16806,1.70247 -10.49875,2.93829 -15.90625,3.5625 -8.2976,1.25411 -16.70146,1.88072 -25.09375,1.84375 -6.35559,0.055 -12.70866,0.11787 -19.0625,0.15625 v 46.78125 c 10.84659,0.0109 21.69279,0.0514 32.53125,-0.28125 7.00635,-0.25081 13.99543,-0.9462 20.90625,-2.125 5.24447,-0.92538 10.43665,-2.04631 15.59375,-3.375 6.23136,-1.67282 12.3989,-3.65787 18.3125,-6.25 3.81041,-1.70488 7.42476,-3.81958 11,-5.96875 7.16863,-4.24576 13.88944,-9.17141 20.53125,-14.1875 1.38508,-0.97444 2.64959,-1.88708 3.8125,-3.125 1.32742,-1.3064 2.61628,-2.63855 3.78125,-4.09375 0.58996,-1.18795 1.4142,-2.46844 2.15625,-3.65625 3.62147,-5.18849 7.19715,-10.43843 10.4375,-15.875 2.52576,-4.20986 4.60231,-8.68207 6.09375,-13.375 2.44804,-7.54442 4.35734,-15.28532 5.375,-23.15625 0.87057,-6.56375 1.00385,-13.19872 0.9375,-19.8125 -0.17944,-6.84033 -0.84751,-13.66788 -2.21875,-20.375 -1.12871,-5.68862 -2.61835,-11.31544 -4.5625,-16.78125 -1.49265,-4.12945 -3.2842,-8.16863 -5.59375,-11.90625 -4.2292,-7.22437 -8.94044,-14.16743 -14.03125,-20.8125 -1.09939,-1.45623 -2.19124,-3.05085 -3.28125,-4.40625 -2.24416,-2.33873 -4.48407,-4.70371 -7.03125,-6.71875 -1.28247,-0.69028 -2.6667,-1.59651 -3.96875,-2.40625 -2.80245,-1.90451 -5.52915,-3.92382 -8.40625,-5.71875 -2.45671,-1.50422 -4.89,-3.07462 -7.375,-4.53125 -3.55872,-2.00323 -7.15427,-3.99803 -11.0625,-5.25 -7.10771,-2.55279 -14.52394,-4.10414 -21.9375,-5.46875 -10.2047,-1.74514 -20.54195,-2.57116 -30.875,-3.09375 -10.62119,-0.44216 -21.24528,-0.60546 -31.875,-0.625 C 94.835521,214.51435 75.414653,214.49857 56,214.5 Z m 267.4375,0 V 596.03125 H 530.5 V 548.5 H 374.46875 V 410.75 h 151.5 v -47.5 h -151.5 V 262.03125 H 530.5 V 214.5 Z m 988.9687,0 c 0,127.17708 2e-4,254.35417 0,381.53125 h 207.0626 c -2e-4,-15.84375 0,-31.6875 0,-47.53125 H 1363.4375 V 410.75 h 151.5 v -47.5 h -151.5 V 262.03125 h 156.0313 c -2e-4,-15.84375 0,-31.6875 0,-47.53125 z"
       inkscape:path-effect="#path-effect8385"
       id="path8231"
       d="m 938.79231,596.0312 c 0,0 2.6414,4.7236 -2.61164,-6.97974 -5.25358,-11.70451 -0.0858,6.97974 -5.48075,6.97974 -5.39492,0 0.2272,-18.68421 -5.04317,-30.42614 -5.27037,-11.74193 -0.35175,30.42614 -5.74668,30.42614 -5.39492,0 0.47634,-42.16802 -4.81099,-53.94772 -2.64453,-5.89179 -2.76167,7.59901 -2.91944,22.55647 -0.15778,14.95939 -0.35872,31.39125 -3.05942,31.39125 -5.39492,0 0.69157,-65.72738 -4.61287,-77.54522 -2.65211,-5.90866 -2.79271,13.47712 -2.99733,34.34092 -0.20462,20.86353 -0.47656,43.2043 -3.17965,43.2043 -2.69407,0 -2.41575,-22.34075 -2.18653,-46.16355 0.2294,-23.84075 0.40628,-49.1097 -2.26264,-55.05582 -2.65913,-5.92432 -2.80633,19.3728 -3.0492,46.16355 -0.24282,26.78689 -0.58534,55.05582 -3.29148,55.05582 -2.69164,0 -2.34101,-28.26892 -2.0768,-58.02475 0.26444,-29.78217 0.43802,-60.97221 -2.2434,-66.94618 -2.66446,-5.93618 -2.80087,24.2252 -3.04496,54.38727 -0.2439,30.13918 -0.59536,60.27907 -3.22791,54.18544 -2.61788,-6.05969 -2.29418,-36.22166 -2.07366,-66.28741 0.22084,-30.10967 0.33858,-60.12633 -2.34944,-66.11502 -2.67333,-5.95594 -2.76427,24.08083 -2.962,54.11747 -0.19758,30.01398 -0.50184,60.02782 -3.1434,53.91278 -2.62699,-6.08131 -2.35052,-36.1173 -2.1762,-66.05692 0.17457,-29.98336 0.24707,-59.87358 -2.44981,-65.882 -2.68228,-5.9759 -2.72797,23.93447 -2.87957,53.8443 -0.15147,29.88742 -0.40874,59.77427 -3.05943,53.63935 -2.63622,-6.10142 -2.40674,-36.01047 -2.27839,-65.82347 0.12854,-29.85654 0.15603,-59.62023 -2.54981,-65.64859 -2.69158,-5.99661 -2.69171,23.61731 -2.79708,53.40013 -0.10529,29.76104 -0.31629,59.69317 -2.98139,54.22414 -2.65017,-5.43841 -2.46305,-35.38679 -2.37785,-65.41942 0.0853,-30.07425 0.0683,-60.2242 -2.64702,-66.27379 -2.70129,-6.01824 -2.65006,25.52235 -2.72798,58.59718 -0.0779,33.0657 -0.28999,67.63824 -3.00009,67.63824 -2.68836,0 -2.46619,-34.57253 -2.388,-70.657 0.0783,-36.122 0.008,-73.6434 -2.72379,-79.72872 -2.70746,-6.03198 -2.59152,31.53279 -2.65406,70.657 -0.0625,39.10838 -0.30943,79.72872 -3.024,79.72872 -5.39492,0 0.24984,-49.55316 -5.14991,-48.20337 -5.39975,1.3498 -0.24501,48.20337 -5.63994,48.20337 0.0236,0 -5.12875,-47.53034 -5.15233,-47.53034 -5.39492,-0.003 -0.2426,47.53296 -5.63752,47.53034 -5.34775,0 -2.45486,-47.53188 -2.45486,-47.53188 m 21.59088,-3.17913 c 0,0 0.77254,-27.94257 0.76726,-57.40225 -0.005,-29.48626 -0.78652,-60.40992 -3.52227,-66.50495 -2.71906,-6.05783 -2.58626,23.29146 -2.55552,52.64879 0.0307,29.33604 -0.0405,58.68019 -2.72881,52.50563 -2.67422,-6.14225 -2.63051,-35.50838 -2.68371,-64.7909 -0.0533,-29.32503 -0.20343,-58.56886 -2.94598,-64.67903 -2.72846,-6.07878 -2.55141,23.18578 -2.47582,52.45946 0.0755,29.25255 0.0497,58.51431 -2.6481,52.32431 -2.68375,-6.15784 -2.68545,-35.44161 -2.78339,-64.64336 -0.0981,-29.24415 -0.29236,-58.40859 -3.04437,-64.53982 -2.73795,-6.09994 -2.51671,23.08533 -2.39637,52.28037 0.12024,29.17407 0.13965,58.35801 -2.56769,52.15055 -2.69337,-6.17542 -2.74036,-35.38143 -2.88295,-64.50649 -0.14279,-29.1674 -0.38115,-58.2561 -3.1427,-64.4086 -2.74756,-6.12131 -2.48218,22.98832 -2.31718,52.10793 0.16488,29.09878 0.22944,58.20763 -2.48756,51.98065 -2.70306,-6.19505 -2.79526,-35.32605 -2.98242,-64.3767 -0.18743,-29.09292 -0.46981,-58.1077 -3.24101,-64.28171 -2.75725,-6.1429 -2.44779,22.8929 -2.23821,51.93842 0.20944,29.02484 0.31907,58.05948 -2.40768,51.81084 -2.71285,-6.21681 -2.85018,-35.27369 -3.08185,-64.2503 -0.232,-29.01884 -0.55832,-57.9596 -3.33928,-64.15534 -2.76912,-6.16937 -2.42885,21.36145 -2.17218,50.32766 0.2566,28.9588 0.4252,59.34153 -2.28452,58.83893 -2.69112,-0.49915 -2.85005,-28.79627 -3.08161,-55.55104 -0.23155,-26.75253 -0.53164,-51.97939 -3.16564,-46.32676 -2.62452,5.63229 -2.33269,32.46827 -2.12223,59.30605 0.21073,26.87133 0.33997,53.7424 -2.34127,59.6126 -2.66972,5.845 -2.77502,-21.04413 -2.96684,-48.00443 -0.1917,-26.94376 -0.47008,-53.95973 -3.11403,-48.28575 -2.63223,5.64882 -2.37666,32.68133 -2.20367,59.71502 0.17321,27.06782 0.26372,54.13473 -2.4262,60.02301 -2.67819,5.86259 -2.74449,-21.22262 -2.89846,-48.37973 -0.15388,-27.14021 -0.39559,-54.35339 -3.04753,-48.66226 -2.64,5.66549 -2.42135,32.89542 -2.28652,60.12592 0.13501,27.26523 0.1861,54.5289 -2.51259,60.4355 -2.68673,5.88044 -2.71333,-21.40178 -2.82877,-48.75666 -0.11537,-27.33762 -0.31974,-54.74898 -2.97975,-49.04055 -2.64783,5.68232 -2.46679,33.11066 -2.37079,60.53896 0.0961,27.46364 0.10708,54.92508 -2.60046,60.85025 -2.69536,5.89852 -2.68155,-21.58172 -2.75777,-49.13541 -0.0762,-27.53607 -0.24252,-55.14669 -2.91066,-49.42079 -2.65575,5.69929 -2.51299,33.32711 -2.45652,60.9543 0.0565,27.66314 0.0267,55.32345 -2.68981,61.26745 -2.70406,5.91685 -2.64913,-21.76252 -2.68543,-49.51617 -0.0363,-27.73564 -0.16391,-55.54668 -2.84027,-49.80316 -2.66144,5.71151 -3.23092,35.03592 -3.21728,62.85826 0.0136,27.84517 0.60875,54.25676 0.60875,54.25676 m 97.07184,11.28719 c 0,0 2.50204,47.52841 -2.94005,47.52841 -5.39492,0 0.24257,-47.52364 -5.15236,-47.52364 -5.39494,0.003 -0.24255,47.52069 -5.63749,47.52364 -5.39492,0 0.24255,-47.51836 -5.15238,-47.51836 -5.39493,0.002 -0.24254,47.51602 -5.63747,47.51836 -5.39493,0 0.24253,-47.51419 -5.15239,-47.51419 -5.39493,0.002 -0.24253,47.51235 -5.63746,47.51419 -5.39493,0 0.24252,-47.51094 -5.1524,-47.51094 -5.39494,0.001 -0.24252,47.50951 -5.63745,47.51094 0.0236,0 -5.12885,-47.5084 -5.15241,-47.5084 -5.39493,10e-4 -0.24251,47.50728 -5.63744,47.5084 0.0236,0 -5.12886,-47.50638 -5.15242,-47.50638 -5.39493,9.1e-4 -0.2425,47.50547 -5.63743,47.50638 -5.39493,0 0.24249,-47.50468 -5.15243,-47.50468 -5.39493,8e-4 -0.2425,47.50388 -5.63743,47.50468 0.0236,0 -5.12887,-47.50309 -5.15243,-47.50309 -5.39492,7.9e-4 -0.24249,47.50229 -5.63742,47.50309 0.0236,0 -5.12888,-47.50142 -5.15243,-47.50142 -5.39493,8.9e-4 -0.24249,47.50053 -5.63742,47.50142 -2.68006,0 -2.43004,-41.1155 -2.36926,-80.79301 0.0608,-39.66068 -0.0619,-77.93389 -2.75001,-72.16513 -2.66291,5.71466 -2.58428,44.02874 -2.66046,80.79302 -0.0763,36.80155 -0.303,72.16512 -3.01012,72.16512 -2.68435,0 -2.46745,-35.36358 -2.39104,-69.28474 0.0764,-33.91082 0.0174,-66.41023 -2.676,-60.63021 -2.67633,5.74345 -2.65375,37.86332 -2.73962,68.8734 -0.086,31.04102 -0.27789,61.03684 -2.99412,62.68691 -2.69991,1.64016 -2.5065,-28.35467 -2.41654,-57.32956 0.0899,-28.96266 0.0796,-56.91084 -2.6206,-51.1162 -2.68773,5.76793 -2.70564,34.82008 -2.81898,63.86172 -0.11351,29.08168 -0.32256,58.15078 -3.07675,64.1528 -2.74017,5.97147 -2.50444,-23.11798 -2.36892,-52.282 0.13541,-29.14327 0.17047,-58.36221 -2.53978,-52.54595 -2.69602,5.78572 -2.75659,35.02355 -2.91383,64.25067 -0.15745,29.26781 -0.41166,58.52277 -3.17518,64.54614 -2.74926,5.99229 -2.46807,-23.2833 -2.28827,-52.63473 0.17968,-29.33028 0.25781,-58.73752 -2.46104,-52.9028 -2.70438,5.80366 -2.8083,35.23003 -3.01013,64.64524 -0.20211,29.45654 -0.50222,58.89973 -3.27515,64.94368 -2.75844,6.01234 -2.43105,-23.45176 -2.20625,-52.99273 0.22464,-29.51943 0.34655,-59.11687 -2.38098,-53.26352 -2.7103,5.81637 -3.54509,36.9546 -3.79498,66.55413 -0.25011,29.62552 0.0819,57.79053 0.0819,57.79053 m -5.4835,7.20847 c 0,0 1.04668,-29.96718 1.29896,-58.46894 0.25223,-28.49652 -0.27582,-55.54375 -3.0094,-49.67742 -2.72166,5.84073 -2.8999,32.91787 -3.14013,58.46894 -0.24042,25.57133 -0.5403,49.67742 -3.24182,49.67742 -2.691,0 -2.39796,-24.1061 -2.18097,-46.74225 0.21697,-22.63488 0.36146,-43.8036 -2.37898,-37.92254 -2.73379,5.86678 -2.90337,27.05901 -3.10293,46.74224 -0.19968,19.69625 -0.42743,37.92255 -3.12697,37.92255 -2.69357,0 -2.471,-18.22631 -2.29808,-34.97793 0.17294,-16.75304 0.29892,-32.02711 -2.44911,-26.12977 -5.4974,11.79754 -0.64774,61.1077 -6.04266,61.1077 -5.39493,0 0.54529,-49.3102 -4.96997,-37.47435 -5.51525,11.83586 -0.42496,37.47435 -5.81988,37.47435 -5.39493,0 0.30466,-25.63854 -5.22862,-13.76399 -5.53379,11.87562 -2.86377,13.76399 -2.86377,13.76399 M 1235.8192,232.98928 c 0,0 3.2909,60.77424 -2.1817,56.1641 -5.4287,-4.57318 -0.5302,-57.501 -5.9581,-60.43218 -5.4279,-2.93118 0.5305,56.02943 -4.8926,52.4699 -5.423,-3.55953 -0.5356,-55.42692 -5.9576,-57.76228 -5.422,-2.33535 0.5357,54.36721 -4.8822,51.58541 -5.418,-2.7818 -0.5398,-53.91721 -5.9585,-55.92417 -5.4188,-2.00697 0.5404,53.14248 -4.8764,50.60745 -5.4168,-2.53502 -0.5426,-52.62606 -5.9574,-54.27131 -5.4148,-1.64524 0.5404,51.71924 -4.8739,49.54876 -5.4143,-2.17048 -0.5407,-51.1767 -5.9518,-52.49015 -5.411,-1.31345 0.5375,50.3314 -4.8729,48.64932 -5.4103,-1.68209 -0.5381,-49.95858 -5.946,-51.00107 -5.4079,-1.04249 0.5355,49.30562 -4.8704,48.12932 -5.406,-1.17631 -0.5381,-49.22287 -5.9418,-49.9206 -5.4037,-0.69773 0.5364,48.80385 -4.8655,48.0683 -5.4019,-0.73555 -0.5381,-48.75366 -5.9368,-49.0534 -5.3987,-0.29974 0.5348,48.31204 -4.8639,47.91791 -5.3987,-0.39414 -0.5346,-48.20609 -5.9295,-48.2016 -5.3949,0.004 0.5306,47.78835 -4.8645,47.77194 -5.395,-0.0164 -0.5301,-47.74957 -5.9223,-47.53485 -5.3923,0.21472 0.5273,47.52654 -4.8638,47.921 -5.3912,0.39445 -0.5286,-47.71562 -5.918,-47.27435 -5.3893,0.44127 0.5272,47.70371 -4.8613,48.38676 -5.3884,0.68306 -0.5282,-47.96387 -5.913,-47.14811 -5.3847,0.81576 0.5242,47.79086 -4.8604,48.88784 -5.383,1.09665 -0.5225,-48.05712 -5.9055,-46.96048 -5.3812,1.10541 0.521,48.07429 -4.8584,49.76236 -5.3794,1.68807 -0.5229,-48.66256 -5.9011,-47.29392 -5.3782,1.36865 0.5219,48.99204 -4.8534,51.18074 -5.3754,2.18869 -0.5246,-49.80094 -5.8991,-48.10061 -5.3745,1.70033 0.5238,50.29703 -4.8485,52.90525 -5.3724,2.60821 -0.5259,-51.20082 -5.897,-49.17836 -5.3711,2.02246 0.5223,51.50627 -4.8453,54.8028 -5.3676,3.29653 -0.5269,-52.87781 -5.8918,-50.2637 -5.3649,2.6141 0.5293,54.15637 -4.8308,58.65332 -2.6789,2.24748 -2.7865,-11.74443 -2.9196,-25.90954 -0.1331,-14.16314 -0.2921,-28.49933 -2.9737,-26.9306 -5.3601,3.13553 0.5326,57.24371 -4.8265,62.25308 -2.6783,2.50348 -2.7829,-12.28217 -2.9161,-27.27368 -0.1332,-14.98916 -0.2953,-30.18407 -2.9765,-28.48729 -5.3586,3.39123 0.534,60.79217 -4.8225,66.75621 -2.6769,2.98051 -2.7774,-12.8661 -2.911,-28.97466 -0.1336,-16.10552 -0.3007,-32.47308 -2.9803,-30.51923 -5.3549,3.90462 0.5351,65.49079 -4.8239,71.82864 -2.678,3.16708 -2.7722,-13.81104 -2.9041,-31.07941 -0.132,-17.26467 -0.3021,-34.81965 -2.9823,-32.78779 -5.3554,4.05999 0.5321,70.65763 -4.8137,81.48057 -2.672,5.40956 -2.7543,-13.99471 -2.8892,-34.10228 -0.1349,-20.10211 -0.324,-40.91241 -3.0011,-38.28759 -2.67041,2.61825 -2.48906,22.91241 -2.35063,44.93756 0.13862,22.05457 0.23123,45.77002 -2.44722,55.37795 -2.67236,9.5861 -2.7224,-14.21981 -2.85681,-39.66289 -0.13439,-25.43983 -0.35836,-52.55398 -3.03769,-49.56811 -2.62438,2.92464 -2.1266,70.0141 -2.13878,135.30116 -0.0122,65.29913 -0.52407,129.08012 -3.22285,125.44818 -2.62405,-3.53138 -2.17105,-67.04437 -2.17181,-128.56519 -7.5e-4,-61.54408 -0.44456,-121.38152 -3.14062,-117.67813 -2.63026,3.61301 -2.24164,63.51867 -2.2547,121.40701 -0.0131,57.91123 -0.41759,114.06304 -3.11029,110.28283 -2.63462,-3.69867 -2.28342,-59.95995 -2.28424,-114.05794 -8.2e-4,-54.11875 -0.34319,-106.312 -3.03073,-101.97834 -2.63768,4.25326 -2.35144,56.50402 -2.36475,106.39735 -0.0133,49.92063 -0.31568,97.70875 -2.99922,93.17325 -2.64202,-4.46533 -2.39429,-52.32348 -2.39515,-97.65262 -8.6e-4,-45.35654 -0.23989,-88.3799 -2.92045,-83.31264 -2.64662,5.00312 -2.46222,48.37818 -2.4753,88.69689 -0.0131,40.35216 -0.21222,77.81881 -2.88213,71.17234 -2.64522,-6.58504 -2.50869,-44.18948 -2.51205,-77.82238 -0.003,-33.68646 -0.13393,-63.53883 -2.79903,-54.88752 -2.65024,8.60306 -2.58496,39.57531 -2.59792,64.57576 -0.013,25.1071 -0.0887,44.23514 -2.74095,29.68303 -5.3243,-29.21241 -2.66307,-56.54438 -2.66307,-56.54438 M 1236.364,516.89401 c 0,0 2.2288,58.42543 -3.2561,61.41394 -2.712,1.47766 -2.5493,-13.30372 -2.4139,-27.89824 0.1354,-14.59247 0.2436,-28.99835 -2.4721,-26.75941 -5.4288,4.47572 -0.5438,57.80173 -5.9673,60.30751 -5.4236,2.50577 0.5362,-55.56305 -4.8875,-52.01629 -5.4236,3.54677 -0.5357,54.48538 -5.9554,56.59842 -5.4196,2.11304 0.5319,-53.08211 -4.8864,-50.34103 -5.4182,2.74108 -0.533,52.4297 -5.949,54.19282 -5.416,1.76312 0.5309,-51.4573 -4.8868,-48.89017 -5.4176,2.56714 -0.5291,50.64747 -5.9419,52.1118 -5.4127,1.46434 0.524,-49.51378 -4.8897,-47.45744 -5.4137,2.05635 -0.5231,48.92505 -5.9329,50.13745 -5.4099,1.21239 0.519,-48.07367 -4.8888,-46.69124 -5.4079,1.38243 -0.5212,47.90547 -5.928,48.85902 -5.4068,0.95355 0.5205,-47.51935 -4.8818,-46.74195 -5.4023,0.7774 -0.5249,47.68485 -5.9264,48.21349 -5.4016,0.52864 0.5239,-47.41377 -4.8757,-46.92419 -5.3996,0.48958 -0.5257,47.43333 -5.9239,47.69642 -5.3983,0.26308 0.5243,-47.21646 -4.872,-47.06523 -5.3964,0.15123 -0.526,47.31166 -5.9211,47.32341 -5.3951,0.0117 0.5247,-47.17518 -4.8681,-47.39188 -5.3929,-0.2167 -0.5271,47.41023 -5.9189,47.16498 -5.3918,-0.24524 0.5262,-47.39418 -4.8636,-47.93229 -5.3898,-0.53812 -0.5283,47.69415 -5.9163,47.1372 -5.3879,-0.55695 0.5264,-47.66668 -4.8602,-48.54489 -5.3866,-0.87821 -0.5274,47.96588 -5.911,47.05633 -5.3836,-0.90955 0.524,-47.88539 -4.8582,-49.25732 -5.3821,-1.37192 -0.5253,48.34308 -5.9057,47.16479 -5.3804,-1.17829 0.5237,-48.54125 -4.854,-50.42753 -5.3778,-1.88628 -0.5269,49.29251 -5.9035,47.7875 -5.3766,-1.50501 0.5258,-49.67502 -4.848,-52.0583 -5.3739,-2.38328 -0.5286,50.55998 -5.9021,48.76303 -5.3734,-1.79694 0.5289,-51.21189 -4.8429,-53.93701 -5.3717,-2.72511 -0.5304,52.13145 -5.9002,49.98246 -5.3697,-2.14899 0.5245,-52.18486 -4.8369,-56.32859 -5.3613,-4.14372 -0.5328,54.18465 -5.895,51.30824 -5.3621,-2.87641 0.5358,-55.70234 -4.8241,-60.34599 -2.6787,-2.32074 -2.7861,12.04438 -2.9204,26.59622 -0.1343,14.54972 -0.2958,29.286 -2.9776,27.69703 -5.36,-3.1759 0.5372,-58.79503 -4.8207,-64.1545 -2.6776,-2.6784 -2.7817,12.5852 -2.9164,28.07543 -0.1347,15.48759 -0.3003,31.20175 -2.9808,29.41126 -5.3571,-3.57837 0.5409,-63.04394 -4.8154,-69.32102 -2.6768,-3.13688 -2.7758,13.2745 -2.9106,29.9897 -0.1347,16.71186 -0.3057,33.72764 -2.9859,31.78281 -5.3557,-3.88628 0.5367,-67.2808 -4.8147,-75.55658 -2.6743,-4.13591 -2.7655,13.83177 -2.9011,32.3229 -0.1355,18.48679 -0.3165,37.49816 -2.9972,35.42791 -2.6746,-2.06551 -2.4958,-21.1627 -2.3556,-41.31887 0.1403,-20.1721 0.2402,-41.36969 -2.4382,-47.71561 -2.67192,-6.33057 -2.74691,14.82021 -2.88516,36.88668 -0.13821,22.06002 -0.34205,45.04421 -3.01999,42.34821 -2.66565,-2.68363 -3.1191,-28.83764 -2.979,-54.29563 0.14014,-25.46574 0.87037,-50.25858 0.87037,-50.25858 M 265.35688,308.78131 c 0,0 2.84577,22.13812 -2.46822,45.15 -2.66324,11.53297 -2.6988,-4.0643 -2.80157,-23.9396 -0.10304,-19.92572 -0.28356,-44.1431 -3.04278,-50.10246 -2.74839,-5.93601 -2.53471,17.42596 -2.38861,43.35458 0.14621,25.94726 0.21743,54.40271 -2.48498,58.74692 -2.68711,4.3196 -2.72375,-23.89554 -2.88502,-54.19818 -0.16136,-30.31796 -0.45344,-62.6442 -3.20451,-66.62344 -2.73075,-3.94985 -2.40392,28.37371 -2.21217,62.63836 0.19182,34.27951 0.24124,70.40434 -2.47139,74.13135 -2.68704,3.69186 -2.70082,-32.58389 -2.90393,-70.54941 -0.20317,-37.97471 -0.60166,-77.54101 -3.35046,-80.47625 -2.7173,-2.90161 -2.29052,36.39561 -2.0637,76.96098 0.22683,40.56786 0.24803,82.32039 -2.47022,84.34183 -2.68341,1.99554 -2.681,-39.56725 -2.91249,-82.12603 -0.2315,-42.56275 -0.70072,-86.04509 -3.44105,-87.90852 -2.70238,-1.83762 -2.21103,41.66238 -1.96379,86.10607 0.24727,44.44797 0.2458,89.7603 -2.47607,91.56868 -2.69248,1.78885 -2.68264,-21.06309 -2.72702,-41.77937 -0.0444,-20.72603 -0.137,-39.26209 -2.78804,-28.89026 -5.30919,20.77153 0.11743,74.22755 -5.2811,77.2789 -2.69715,1.52448 -2.68006,-13.72143 -2.69181,-28.65254 -0.0117,-14.92868 -0.0518,-29.54268 -2.74307,-26.74223 -5.38023,5.59843 0.0362,58.4309 -5.36193,60.52189 -5.39814,2.091 -0.0183,-54.73884 -5.4051,-50.51621 -5.38675,4.22264 0.007,52.57395 -5.39076,54.1397 -5.39772,1.56575 0.002,-50.57383 -5.38898,-48.31382 -5.39145,2.26001 -0.009,49.84773 -5.40596,51.02562 -5.39725,1.17788 0.0145,-48.69857 -5.3785,-47.19051 -5.39301,1.50807 -0.0188,48.39501 -5.41549,49.22017 -5.39667,0.82517 0.0224,-47.73436 -5.37165,-46.95577 -5.39406,0.77859 -0.025,47.77709 -5.42092,48.22073 -5.3959,0.44364 0.0269,-47.40228 -5.36752,-46.90352 -5.39442,0.49876 -0.0283,47.32058 -5.42355,47.45122 -5.39499,0.13062 0.0293,-46.94387 -5.36566,-46.81324 -5.39479,0.13884 -0.0295,46.93834 -5.42456,46.98119 -5.39495,0.0429 0.0298,-46.897 -5.36517,-46.85414 -5.39488,0.048 -0.0298,46.89148 -5.42477,46.89072 -5.34472,-7.6e-4 -2.66755,-46.822 -2.66755,-46.822 m 96.82844,-77.30447 c 0,0 0.55029,-19.84911 0.36715,-40.11722 -0.18318,-20.2712 -1.0969,-40.95196 -3.81947,-42.6308 -2.71472,-1.674 -2.5128,15.3323 -2.35189,31.78252 0.16087,16.44717 0.28183,32.33711 -2.44726,28.41511 -5.45632,-7.84131 -0.63756,-63.67143 -6.06177,-66.03939 -2.71002,-1.18307 -2.52904,13.55317 -2.37857,27.95932 0.15046,14.40417 0.27097,28.47872 -2.44943,25.9624 -5.4385,-5.0305 -0.59465,-56.15577 -6.00813,-57.62627 -5.41349,-1.4705 0.56968,52.67212 -4.84895,50.08978 -5.41863,-2.58235 -0.56404,-51.51813 -5.97259,-52.58342 -5.40855,-1.06529 0.55337,49.94994 -4.85877,48.13592 -5.41213,-1.81403 -0.54977,-49.19857 -5.95396,-49.91631 -5.4042,-0.71775 0.54197,48.12406 -4.86339,47.04635 -5.40536,-1.0777 -0.54068,-47.75338 -5.94167,-48.22042 -5.401,-0.46704 0.53657,47.1722 -4.86459,46.53597 -5.40116,-0.63623 -0.5363,-46.99459 -5.93509,-47.29065 -5.39879,-0.29607 0.53397,46.65975 -4.86427,46.32289 -5.39825,-0.33685 -0.53417,-46.5919 -5.93111,-46.74621 -5.39694,-0.15431 0.53305,46.42905 -4.86325,46.29033 -5.3963,-0.13872 -0.53367,-46.44266 -5.92962,-46.52122 -5.39595,-0.0786 0.53341,46.39137 -4.86185,46.3579 -5.39525,-0.0335 -0.53406,-46.43336 -5.92926,-46.45424 -5.3952,-0.0209 0.53409,46.4296 -4.86082,46.43061 -5.39492,10e-4 -0.5344,-46.45253 -5.92954,-46.46945 -2.60648,-0.008 -1.44811,95.35863 -1.44828,190.7284 -1.6e-4,95.36949 -1.15886,190.7411 -3.947459,190.7411 -2.606343,0 -1.4476,-95.37158 -1.447462,-190.7446 1.38e-4,-95.37322 -1.158343,-190.74729 -3.947024,-190.75327 -2.606422,-0.006 -1.44782,95.3685 -1.447902,190.7446 -8.1e-5,95.37591 -1.158859,190.75327 -3.947462,190.75327 -2.606331,0 -1.44753,-95.37733 -1.447463,-190.75554 6.6e-5,-95.37833 -1.158611,-190.75719 -3.947266,-190.76084 -2.606377,-0.003 -1.447626,95.37544 -1.447658,190.75554 -3.2e-5,95.37998 -1.158856,190.76084 -3.947464,190.76084 -2.606322,0 -1.447486,-95.38084 -1.447463,-190.7621 2.4e-5,-95.38133 -1.15877,-190.76292 -3.947403,-190.76471 -2.606346,-0.002 -1.447516,95.3799 -1.447522,190.7621 -6e-6,95.38214 -1.158853,190.76471 -3.947463,190.76471 -2.606318,0 -1.447466,-95.38254 -1.447463,-190.76518 4e-6,-95.38266 -1.158843,-190.76536 -3.947457,-190.76576 -2.606323,-3.6e-4 -2.121834,95.38235 -2.121834,190.76519 10e-7,95.38283 -0.575634,190.76575 -0.575634,190.76575 M 114.61192,391.18924 c 0,0 2.71764,46.78073 -2.72739,46.77757 -5.34487,-0.003 -2.66751,-46.75451 -2.66751,-46.75451 M 529.32328,262.03125 c 0,0 2.2039,-47.53125 -3.24276,-47.53125 -5.39493,0 0.5453,47.53125 -4.84963,47.53125 -5.39492,0 -0.5453,-47.53125 -5.94022,-47.53125 -5.39493,0 0.5453,47.53125 -4.84963,47.53125 -5.39492,0 -0.5453,-47.53125 -5.94022,-47.53125 -5.39493,0 0.5453,47.53125 -4.84963,47.53125 -5.39492,0 -0.5453,-47.53125 -5.94022,-47.53125 -5.39493,0 0.5453,47.53125 -4.84963,47.53125 -5.39493,0 -0.5453,-47.53125 -5.94023,-47.53125 -5.39492,0 0.5453,47.53125 -4.84962,47.53125 -5.39493,0 -0.5453,-47.53125 -5.94023,-47.53125 -5.39492,0 0.5453,47.53125 -4.84962,47.53125 -5.39493,0 -0.5453,-47.53125 -5.94023,-47.53125 -5.39492,0 0.5453,47.53125 -4.84962,47.53125 -5.39493,0 -0.5453,-47.53125 -5.94023,-47.53125 -5.39492,0 0.5453,47.53125 -4.84962,47.53125 -5.39493,0 -0.5453,-47.53125 -5.94023,-47.53125 -5.39492,0 0.5453,47.53125 -4.84962,47.53125 -5.39493,0 -0.5453,-47.53125 -5.94023,-47.53125 -5.39492,0 0.5453,47.53125 -4.84962,47.53125 -5.39493,0 -0.5453,-47.53125 -5.94023,-47.53125 -5.39493,0 0.5453,47.53125 -4.84963,47.53125 -5.39492,0 -0.5453,-47.53125 -5.94022,-47.53125 -5.39493,0 0.5453,47.53125 -4.84963,47.53125 -5.39492,0 -0.5453,-47.53125 -5.94022,-47.53125 -5.39493,0 0.5453,47.53125 -4.84963,47.53125 -5.39492,0 -0.5453,-47.53125 -5.94022,-47.53125 -5.39493,0 0.5453,47.53125 -4.84963,47.53125 -5.39492,0 -0.5453,-47.53125 -5.94022,-47.53125 -2.60632,0 -1.44747,95.38281 -1.44747,190.76562 0,95.38282 -1.15885,190.76563 -3.94746,190.76563 -2.60632,0 -1.44746,-95.38281 -1.44746,-190.76563 0,-95.38281 -1.15886,-190.76562 -3.94746,-190.76562 -2.60632,0 -1.44747,95.38281 -1.44747,190.76562 0,95.38282 -1.15885,190.76563 -3.94746,190.76563 -2.60632,0 -1.44746,-95.38281 -1.44746,-190.76563 0,-95.38281 -1.15886,-190.76562 -3.94746,-190.76562 -2.60632,0 -1.44747,95.38281 -1.44747,190.76562 0,95.38282 -1.15885,190.76563 -3.94746,190.76563 -2.60632,0 -1.44746,-95.38281 -1.44746,-190.76563 0,-95.38281 -1.15886,-190.76562 -3.94747,-190.76562 -2.60631,0 -1.44746,95.38281 -1.44746,190.76562 0,95.38282 -1.15885,190.76563 -3.94746,190.76563 -2.60632,0 -1.44746,-95.38281 -1.44746,-190.76563 0,-95.38281 -1.15886,-190.76562 -3.94747,-190.76562 -2.60631,0 -1.44746,95.38281 -1.44746,190.76562 0,95.38282 -1.15885,190.76563 -3.94746,190.76563 -2.60632,0 -2.12183,-95.38281 -2.12183,-190.76563 0,-95.38281 -0.57563,-190.76562 -0.57563,-190.76562 m 205.00716,381.53125 c 0,0 3.2945,-47.53125 -2.15216,-47.53125 -5.39493,0 -0.5453,47.53125 -5.94023,47.53125 -5.39492,0 0.5453,-47.53125 -4.84962,-47.53125 -5.39493,0 -0.5453,47.53125 -5.94023,47.53125 -5.39492,0 0.5453,-47.53125 -4.84962,-47.53125 -5.39493,0 -0.5453,47.53125 -5.94023,47.53125 -5.39492,0 0.5453,-47.53125 -4.84962,-47.53125 -5.39493,0 -0.5453,47.53125 -5.94023,47.53125 -5.39493,0 0.5453,-47.53125 -4.84963,-47.53125 -5.39492,0 -0.5453,47.53125 -5.94022,47.53125 -5.39493,0 0.5453,-47.53125 -4.84963,-47.53125 -5.39492,0 -0.5453,47.53125 -5.94022,47.53125 -5.39493,0 0.5453,-47.53125 -4.84963,-47.53125 -5.39492,0 -0.5453,47.53125 -5.94022,47.53125 -5.39493,0 0.5453,-47.53125 -4.84963,-47.53125 -5.39492,0 -0.5453,47.53125 -5.94022,47.53125 -5.39493,0 0.5453,-47.53125 -4.84963,-47.53125 -5.39492,0 -0.5453,47.53125 -5.94022,47.53125 -5.39493,0 0.5453,-47.53125 -4.84963,-47.53125 -5.39492,0 -0.5453,47.53125 -5.94022,47.53125 -5.39493,0 0.5453,-47.53125 -4.84963,-47.53125 -5.39493,0 -0.5453,47.53125 -5.94023,47.53125 -5.39492,0 0.5453,-47.53125 -4.84962,-47.53125 -5.39493,0 -0.5453,47.53125 -5.94023,47.53125 -5.39492,0 0.5453,-47.53125 -4.84962,-47.53125 -5.39493,0 -0.5453,47.53125 -5.94023,47.53125 -5.39492,0 0.5453,-47.53125 -4.84962,-47.53125 -5.39493,0 -0.5453,47.53125 -5.94023,47.53125 -5.34319,0 -2.15216,-47.53125 -2.15216,-47.53125 M 524.57242,363.25 c 0,0 2.80873,47.5 -2.63786,47.5 -5.39493,0 -0.0596,-47.5 -5.45453,-47.5 -5.39492,0 0.0596,47.5 -5.33532,47.5 -5.39493,0 -0.0596,-47.5 -5.45453,-47.5 -5.39493,0 0.0596,47.5 -5.33532,47.5 -5.39493,0 -0.0596,-47.5 -5.45453,-47.5 -5.39493,0 0.0596,47.5 -5.33532,47.5 -5.39493,0 -0.0596,-47.5 -5.45453,-47.5 -5.39493,0 0.0596,47.5 -5.33532,47.5 -5.39493,0 -0.0596,-47.5 -5.45453,-47.5 -5.39493,0 0.0596,47.5 -5.33532,47.5 -5.39493,0 -0.0596,-47.5 -5.45453,-47.5 -5.39493,0 0.0596,47.5 -5.33533,47.5 -5.39492,0 -0.0596,-47.5 -5.45452,-47.5 -5.39493,0 0.0596,47.5 -5.33533,47.5 -5.39492,0 -0.0596,-47.5 -5.45452,-47.5 -5.39493,0 0.0596,47.5 -5.33533,47.5 -5.39492,0 -0.0596,-47.5 -5.45453,-47.5 -5.39492,0 0.0596,47.5 -5.33532,47.5 -5.39492,0 -0.0596,-47.5 -5.45453,-47.5 -5.39492,0 0.0596,47.5 -5.33532,47.5 -5.39492,0 -0.0596,-47.5 -5.45453,-47.5 -5.39492,0 0.0596,47.5 -5.33532,47.5 -5.39492,0 -0.0596,-47.5 -5.45453,-47.5 -5.39492,0 0.0596,47.5 -5.33532,47.5 -5.39493,0 -0.0596,-47.5 -5.45453,-47.5 -5.39492,0 0.0596,47.5 -5.33532,47.5 -5.34326,0 -2.75707,-47.5 -2.75707,-47.5 M 1516.0493,214.5 c 0,0 3.2945,47.53125 -2.1521,47.53125 -5.395,0 -0.5453,-47.53125 -5.9403,-47.53125 -5.3949,0 0.5453,47.53125 -4.8496,47.53125 -5.3949,0 -0.5453,-47.53125 -5.9402,-47.53125 -5.3949,0 0.5453,47.53125 -4.8496,47.53125 -5.395,0 -0.5453,-47.53125 -5.9403,-47.53125 -5.3949,0 0.5453,47.53125 -4.8496,47.53125 -5.3949,0 -0.5453,-47.53125 -5.9402,-47.53125 -5.3949,0 0.5453,47.53125 -4.8496,47.53125 -5.395,0 -0.5453,-47.53125 -5.9403,-47.53125 -5.3949,0 0.5453,47.53125 -4.8496,47.53125 -5.3949,0 -0.5453,-47.53125 -5.9402,-47.53125 -5.3949,0 0.5453,47.53125 -4.8496,47.53125 -5.395,0 -0.5453,-47.53125 -5.9403,-47.53125 -5.3949,0 0.5453,47.53125 -4.8496,47.53125 -5.3949,0 -0.5453,-47.53125 -5.9402,-47.53125 -5.3949,0 0.5453,47.53125 -4.8496,47.53125 -5.395,0 -0.5453,-47.53125 -5.9403,-47.53125 -5.3949,0 0.5453,47.53125 -4.8496,47.53125 -5.3949,0 -0.5453,-47.53125 -5.9402,-47.53125 -5.3949,0 0.5453,47.53125 -4.8496,47.53125 -5.395,0 -0.5453,-47.53125 -5.9403,-47.53125 -5.3949,0 0.5453,47.53125 -4.8496,47.53125 -5.3949,0 -0.5453,-47.53125 -5.9402,-47.53125 -5.3949,0 0.5453,47.53125 -4.8496,47.53125 -5.395,0 -0.5453,-47.53125 -5.9403,-47.53125 -5.3949,0 0.5453,47.53125 -4.8496,47.53125 -5.3949,0 -0.5453,-47.53125 -5.9402,-47.53125 -5.3432,0 -2.1522,47.53125 -2.1522,47.53125 M 1516.5946,548.5 c 0,0 2.2039,47.53125 -3.2427,47.53125 -5.395,0 0.5453,-47.53125 -4.8497,-47.53125 -5.3949,0 -0.5453,47.53125 -5.9402,47.53125 -5.3949,0 0.5453,-47.53125 -4.8496,-47.53125 -5.3949,0 -0.5453,47.53125 -5.9402,47.53125 -5.395,0 0.5453,-47.53125 -4.8497,-47.53125 -5.3949,0 -0.5453,47.53125 -5.9402,47.53125 -5.3949,0 0.5453,-47.53125 -4.8496,-47.53125 -5.3949,0 -0.5453,47.53125 -5.9402,47.53125 -5.395,0 0.5453,-47.53125 -4.8497,-47.53125 -5.3949,0 -0.5453,47.53125 -5.9402,47.53125 -5.3949,0 0.5453,-47.53125 -4.8496,-47.53125 -5.3949,0 -0.5453,47.53125 -5.9402,47.53125 -5.395,0 0.5453,-47.53125 -4.8497,-47.53125 -5.3949,0 -0.5453,47.53125 -5.9402,47.53125 -5.3949,0 0.5453,-47.53125 -4.8496,-47.53125 -5.3949,0 -0.5453,47.53125 -5.9402,47.53125 -5.395,0 0.5453,-47.53125 -4.8497,-47.53125 -5.3949,0 -0.5453,47.53125 -5.9402,47.53125 -5.3949,0 0.5453,-47.53125 -4.8496,-47.53125 -5.3949,0 -0.5453,47.53125 -5.9402,47.53125 -5.395,0 0.5453,-47.53125 -4.8497,-47.53125 -5.3949,0 -0.5453,47.53125 -5.9402,47.53125 -5.3949,0 0.5453,-47.53125 -4.8496,-47.53125 -5.3949,0 -0.5453,47.53125 -5.9402,47.53125 -5.395,0 0.5453,-47.53125 -4.8497,-47.53125 -5.3949,0 -0.5453,47.53125 -5.9402,47.53125 -5.3949,0 0.5453,-47.53125 -4.8496,-47.53125 -5.3949,0 -0.5453,47.53125 -5.9402,47.53125 -2.6064,0 -1.4475,-95.38281 -1.4475,-190.76563 0,-95.38281 -1.1589,-190.76562 -3.9475,-190.76562 -2.6063,0 -1.4474,95.38281 -1.4474,190.76562 0,95.38282 -1.1589,190.76563 -3.9475,190.76563 -2.6063,0 -1.4475,-95.38281 -1.4475,-190.76563 0,-95.38281 -1.1588,-190.76562 -3.9474,-190.76562 -2.6063,0 -1.4475,95.38281 -1.4475,190.76562 0,95.38282 -1.1588,190.76563 -3.9474,190.76563 -2.6064,0 -1.4475,-95.38281 -1.4475,-190.76563 0,-95.38281 -1.1589,-190.76562 -3.9475,-190.76562 -2.6063,0 -1.4474,95.38281 -1.4474,190.76562 0,95.38282 -1.1589,190.76563 -3.9475,190.76563 -2.6063,0 -1.4475,-95.38281 -1.4475,-190.76563 0,-95.38281 -1.1588,-190.76562 -3.9474,-190.76562 -2.6063,0 -1.4475,95.38281 -1.4475,190.76562 0,95.38282 -1.1588,190.76563 -3.9474,190.76563 -2.6064,0 -2.1219,-95.38281 -2.1219,-190.76563 0,-95.38281 -0.5756,-190.76562 -0.5756,-190.76562 m 195.4067,148.75 c 0,0 2.8087,47.5 -2.6379,47.5 -5.3949,0 -0.06,-47.5 -5.4545,-47.5 -5.3949,0 0.06,47.5 -5.3353,47.5 -5.395,0 -0.06,-47.5 -5.4546,-47.5 -5.3949,0 0.06,47.5 -5.3353,47.5 -5.3949,0 -0.06,-47.5 -5.4545,-47.5 -5.3949,0 0.06,47.5 -5.3353,47.5 -5.395,0 -0.06,-47.5 -5.4546,-47.5 -5.3949,0 0.06,47.5 -5.3353,47.5 -5.3949,0 -0.06,-47.5 -5.4545,-47.5 -5.3949,0 0.06,47.5 -5.3353,47.5 -5.395,0 -0.06,-47.5 -5.4546,-47.5 -5.3949,0 0.06,47.5 -5.3353,47.5 -5.3949,0 -0.06,-47.5 -5.4545,-47.5 -5.395,0 0.06,47.5 -5.3353,47.5 -5.395,0 -0.06,-47.5 -5.4546,-47.5 -5.3949,0 0.06,47.5 -5.3353,47.5 -5.3949,0 -0.06,-47.5 -5.4545,-47.5 -5.395,0 0.06,47.5 -5.3353,47.5 -5.395,0 -0.06,-47.5 -5.4546,-47.5 -5.3949,0 0.06,47.5 -5.3353,47.5 -5.3949,0 -0.06,-47.5 -5.4545,-47.5 -5.395,0 0.06,47.5 -5.3354,47.5 -5.3949,0 -0.06,-47.5 -5.4545,-47.5 -5.3949,0 0.06,47.5 -5.3353,47.5 -5.3949,0 -0.06,-47.5 -5.4545,-47.5 -5.395,0 0.06,47.5 -5.3354,47.5 -5.3432,0 -2.757,-47.5 -2.757,-47.5"
       style="font-style:normal;font-variant:normal;font-weight:500;font-stretch:normal;font-size:516.24981689px;line-height:125%;font-family:Futura;-inkscape-font-specification:'Futura Medium';text-align:start;letter-spacing:0px;word-spacing:0px;writing-mode:lr-tb;text-anchor:start;fill:none;stroke:#0000ff;stroke-width:4;stroke-miterlimit:4;stroke-dasharray:none;stroke-opacity:1"
       inkscape:connector-curvature="0" />
    <g
       style="font-style:normal;font-variant:normal;font-weight:500;font-stretch:normal;font-size:516.24981689px;line-height:125%;font-family:Futura;-inkscape-font-specification:'Futura Medium';text-align:start;letter-spacing:0px;word-spacing:0px;writing-mode:lr-tb;text-anchor:start;fill:none;stroke:#0000ff;stroke-width:4;stroke-miterlimit:4;stroke-dasharray:none;stroke-opacity:1"
       id="text6946">
      <path
         d="M 110.90151,441.8225 V 599.8736 H 52.168013 V 210.66963 h 66.547827 c 32.60157,3.9e-4 57.22088,2.26907 73.85801,6.80603 16.8048,4.53773 31.59319,13.10828 44.36522,25.71166 22.3504,21.84685 33.52572,49.40703 33.52598,82.68064 -2.6e-4,35.62685 -11.9318,63.85923 -35.79466,84.69723 -23.86332,20.83838 -56.04487,31.25747 -96.54477,31.25731 h -27.22411 m 0,-54.44822 h 21.93054 c 53.94389,2.1e-4 80.9159,-20.75395 80.91611,-62.26255 -2.1e-4,-40.16365 -27.81247,-60.24561 -83.43686,-60.24595 h -19.40979 v 122.5085"
         style="fill:none;stroke:#0000ff;stroke-width:4;stroke-miterlimit:4;stroke-dasharray:none;stroke-opacity:1"
         id="path7711"
         inkscape:connector-curvature="0" />
      <path
         d="M 534.3465,265.87408 H 378.312 v 93.51987 h 151.49714 v 55.20444 H 378.312 V 544.66915 H 534.3465 V 599.8736 H 319.57851 V 210.66963 H 534.3465 v 55.20445"
         style="fill:none;stroke:#0000ff;stroke-width:4;stroke-miterlimit:4;stroke-dasharray:none;stroke-opacity:1"
         id="path7713"
         inkscape:connector-curvature="0" />
      <path
         d="M 840.61776,505.34543 H 673.99612 L 630.6392,599.8736 H 567.36835 L 759.95373,186.21835 945.73308,599.8736 H 881.45393 L 840.61776,505.34543 M 816.67063,450.14098 758.94543,317.80155 698.4474,450.14098 h 118.22323"
         style="fill:none;stroke:#0000ff;stroke-width:4;stroke-miterlimit:4;stroke-dasharray:none;stroke-opacity:1"
         id="path7715"
         inkscape:connector-curvature="0" />
      <path
         d="m 1242.1201,231.59187 v 69.57273 c -33.9464,-28.40014 -69.0688,-42.60036 -105.3674,-42.6007 -39.9961,3.4e-4 -73.6901,14.36861 -101.0821,43.10485 -27.5603,28.56878 -41.34039,63.52316 -41.34031,104.86324 -8e-5,40.83632 13.78001,75.28655 41.34031,103.35079 27.5601,28.06443 61.3381,42.09659 101.3342,42.09655 20.6699,4e-5 38.2311,-3.36095 52.6837,-10.08301 8.0661,-3.36094 16.3846,-7.89829 24.9554,-13.61205 8.7383,-5.71363 17.897,-12.60367 27.4762,-20.67016 v 70.8331 c -33.6103,18.98966 -68.9008,28.48448 -105.8715,28.48449 -55.6248,-10e-6 -103.0989,-19.40977 -142.42246,-58.22935 -39.15571,-39.15558 -58.73353,-86.3776 -58.7335,-141.66621 -3e-5,-49.57453 16.38484,-93.77165 49.15465,-132.59151 40.33191,-47.55779 92.51141,-71.33685 156.53861,-71.33725 34.9542,4e-4 68.7322,9.49522 101.3342,28.48449"
         style="fill:none;stroke:#0000ff;stroke-width:4;stroke-miterlimit:4;stroke-dasharray:none;stroke-opacity:1"
         id="path7717"
         inkscape:connector-curvature="0" />
      <path
         d="m 1523.3244,265.87408 h -156.0345 v 93.51987 h 151.4972 v 55.20444 h -151.4972 v 130.07076 h 156.0345 v 55.20445 h -214.768 V 210.66963 h 214.768 v 55.20445"
         style="fill:none;stroke:#0000ff;stroke-width:4;stroke-miterlimit:4;stroke-dasharray:none;stroke-opacity:1"
         id="path7719"
         inkscape:connector-curvature="0" />
    </g>
  </g>
</svg>
