<?xml version="1.0" encoding="UTF-8" standalone="no"?>
<!-- Created with Inkscape (http://www.inkscape.org/) -->

<svg
   xmlns:dc="http://purl.org/dc/elements/1.1/"
   xmlns:cc="http://creativecommons.org/ns#"
   xmlns:rdf="http://www.w3.org/1999/02/22-rdf-syntax-ns#"
   xmlns:svg="http://www.w3.org/2000/svg"
   xmlns="http://www.w3.org/2000/svg"
   xmlns:sodipodi="http://sodipodi.sourceforge.net/DTD/sodipodi-0.dtd"
   xmlns:inkscape="http://www.inkscape.org/namespaces/inkscape"
   width="3200"
   height="800"
   id="svg6938"
   version="1.1"
   inkscape:version="0.92.2 5c3e80d, 2017-08-06"
   sodipodi:docname="Peace_HUGE_filled.svg">
  <sodipodi:namedview
     id="base"
     pagecolor="#ffffff"
     bordercolor="#666666"
     borderopacity="1.0"
     inkscape:pageopacity="0.0"
     inkscape:pageshadow="2"
     inkscape:zoom="0.365"
     inkscape:cx="1600"
     inkscape:cy="400"
     inkscape:document-units="px"
     inkscape:current-layer="1-default"
     showgrid="false"
     inkscape:window-width="1680"
     inkscape:window-height="1005"
     inkscape:window-x="0"
     inkscape:window-y="1"
     inkscape:window-maximized="1" />
  <defs
     id="defs6940">
    <inkscape:path-effect
       back_thickness="0.25"
       front_thickness="1"
       stroke_width_bottom="1"
       stroke_width_top="1"
       fat_output="false"
       bottom_smth_variation="0;1"
       top_smth_variation="0;1"
       scale_tb="2"
       scale_tf="2"
       scale_bb="2"
       scale_bf="2"
       top_tgt_variation="0;1"
       bottom_tgt_variation="0;1"
       top_edge_variation="0;1"
       bottom_edge_variation="0;1"
       bender="1258.0642,400.43611 , 8.189438,0"
       do_bend="true"
       growth="0"
       dist_rdm="0;1"
       direction="1258.0642,392.24667 , 21.414609,2.5296443"
       is_visible="true"
       id="path-effect8385"
       effect="rough_hatches" />
    <inkscape:path-effect
       effect="rough_hatches"
       id="path-effect4710"
       is_visible="true"
       direction="2331.8956,393.90612 , 17.692223,13.37689"
       dist_rdm="0;1"
       growth="0"
       do_bend="true"
       bender="2331.8956,398.90612 , 5,0"
       bottom_edge_variation="0;1"
       top_edge_variation="0;1"
       bottom_tgt_variation="0;1"
       top_tgt_variation="0;1"
       scale_bf="2"
       scale_bb="2"
       scale_tf="2"
       scale_tb="2"
       top_smth_variation="0;1"
       bottom_smth_variation="0;1"
       fat_output="false"
       stroke_width_top="1"
       stroke_width_bottom="1"
       front_thickness="1"
       back_thickness="0.25" />
  </defs>
  <metadata
     id="metadata6943">
    <rdf:RDF>
      <cc:Work
         rdf:about="">
        <dc:format>image/svg+xml</dc:format>
        <dc:type
           rdf:resource="http://purl.org/dc/dcmitype/StillImage" />
        <dc:title />
      </cc:Work>
    </rdf:RDF>
  </metadata>
  <g
     id="1-default"
     inkscape:groupmode="layer"
     inkscape:label="1-default"
     style="display:inline">
    <path
       inkscape:original-d="M 1212.5872,67.527689 907.633,721.96615 h 88.90659 c 23.68231,-51.60997 47.35531,-103.22436 71.04341,-154.83156 h 208.1141 v -77.85084 c -58.1196,0.0406 -116.2612,0.0401 -174.3839,0.0511 36.54,-79.94371 73.0711,-159.89246 109.5849,-239.84817 0.051,0.11941 0.1024,0.23886 0.1535,0.35829 33.6103,77.03686 67.2546,154.07425 100.7813,231.14689 0.8636,1.99147 1.9337,4.36567 0.9725,6.50036 -0.6101,0.82417 -1.729,1.81912 -3.0199,1.79144 -11.3116,0.0147 -22.6216,-0.008 -33.935,0 v 77.85085 h 73.0396 c 22.3107,51.60512 44.5964,103.22194 66.8974,154.83156 h 90.5445 L 1212.5871,67.527608 Z m 622.1926,17.351372 c -1.3891,-0.0082 -2.7572,0.03358 -4.146,0.0511 -13.0765,0.258049 -26.1547,0.898938 -39.1558,2.354464 -14.7868,1.856103 -29.4187,4.851521 -43.8646,8.496542 -8.6806,2.275779 -17.2659,4.891063 -25.7456,7.831153 -7.9282,2.79157 -15.8205,5.77737 -23.4934,9.21312 -11.001,5.21126 -21.4081,11.54548 -31.8364,17.81202 -9.1203,5.58492 -18.0947,11.44379 -26.6157,17.9144 -7.7981,5.69058 -15.4685,11.53656 -23.1352,17.40256 -0.9036,0.64277 -1.8647,1.4652 -2.7639,2.40564 -4.9538,4.61839 -9.6954,9.43777 -14.4851,14.22915 -4.5058,4.66738 -8.9745,9.41311 -13.2054,14.33152 -1.3188,2.12604 -2.846,4.54292 -4.3507,6.7051 -5.5971,8.09369 -11.5616,15.92425 -17.249,23.95411 -6.5792,9.35125 -12.4264,19.19334 -18.1703,29.0725 -3.6061,6.37171 -7.2526,12.71782 -10.6463,19.194 -5.6149,11.22683 -9.8503,23.10278 -13.7684,35.00984 -6.2612,19.0062 -10.8603,38.56325 -13.5126,58.40093 -1.3107,9.32414 -2.1298,18.68871 -2.4057,28.10001 -0.569,12.72967 -0.3575,25.51431 0.3583,38.23444 0.8184,13.89219 2.6428,27.68138 5.4767,41.30548 2.5337,12.14258 5.476,24.26376 9.4179,36.03353 3.4685,10.7306 7.3871,21.30036 12.0282,31.58052 3.6902,8.13622 8.4206,15.69604 12.8472,23.44226 6.1367,10.51072 12.8136,20.74182 20.0129,30.55684 6.8349,9.50693 13.9745,18.80109 20.8831,28.25356 1.3671,1.77692 3.193,3.57917 4.8625,5.27196 8.1457,8.48072 16.4804,16.83684 25.4385,24.46594 2.1183,1.02665 4.1879,2.72817 6.2443,4.09472 10.8087,7.55271 21.226,15.68146 32.3483,22.77688 9.7441,6.06709 19.6171,11.98178 29.7379,17.40255 6.5268,3.651 13.3146,6.82683 20.3202,9.46904 11.977,4.81106 24.3131,8.70291 36.7499,12.1306 14.4837,3.69095 29.1439,6.70154 43.9671,8.6501 18.4079,2.29175 37.0114,2.67876 55.5346,2.04736 13.0446,-0.58619 26.1452,-1.52324 39.0023,-3.88999 11.7964,-2.10324 23.4988,-4.73628 35.061,-7.88233 10.7892,-2.88794 21.4113,-6.31637 31.8877,-10.18561 9.8483,-3.77422 19.6365,-7.78544 29.0212,-12.59126 6.0998,-3.34433 12.0608,-6.9456 18.375,-9.87851 0.5918,-2.23764 -0.049,-4.57435 0.2047,-6.85866 0.2062,-15.84604 0,-31.70357 0.1032,-47.54992 -0.1621,-14.82574 -0.074,-29.65257 -0.1032,-44.47889 -8.1023,6.6523 -16.0701,13.46819 -24.261,20.01294 -5.6681,4.83621 -12.1176,8.77277 -18.5288,12.59126 -7.0067,4.0246 -14.3508,7.42786 -21.5995,11.00456 -10.9871,5.41885 -22.2417,10.42017 -33.9861,13.97323 -6.9376,2.14239 -14.0667,3.75654 -21.2415,4.86248 -10.0949,1.50282 -20.2036,2.78059 -30.4033,3.27577 -12.5146,0.77042 -25.0754,0.57506 -37.569,-0.46065 -12.6525,-1.02359 -25.2782,-2.7653 -37.6714,-5.52787 -16.6241,-3.92297 -32.689,-9.98352 -48.0106,-17.50493 -6.8251,-3.39052 -13.638,-6.79823 -20.3201,-10.44153 -3.1444,-1.83725 -6.0686,-4.02575 -8.7524,-6.44918 -6.5018,-5.39842 -12.7221,-11.14876 -19.1939,-16.58362 -9.0471,-7.88693 -17.6311,-16.33087 -25.3362,-25.54081 -7.2439,-8.18681 -14.1019,-16.68566 -21.0367,-25.13133 -3.4774,-4.19632 -5.4956,-9.42547 -8.0358,-14.22915 -6.8231,-13.37876 -13.2444,-26.98864 -17.8632,-41.30548 -3.4873,-10.9527 -6.3022,-22.15628 -8.0359,-33.52551 -1.7159,-11.06092 -2.81,-22.19762 -3.4293,-33.37196 -0.5262,-9.0956 -0.5737,-18.2327 -0.1024,-27.33225 0.6271,-12.94084 2.1488,-25.81332 4.2483,-38.59273 1.8547,-11.47936 4.8939,-22.73396 8.6501,-33.73025 4.7357,-13.88075 10.9706,-27.22308 17.7097,-40.23061 3.5769,-7.08169 7.3162,-14.20186 12.5911,-20.16649 2.8339,-3.39863 5.8724,-6.68117 8.7015,-10.08325 8.0569,-9.25997 16.0768,-18.55577 24.9778,-27.02514 10.0774,-9.74265 21.0412,-18.49111 31.734,-27.53699 2.1182,-1.85892 4.3172,-3.50961 6.8074,-4.86248 5.2989,-3.00473 10.8946,-5.53373 16.3278,-8.2918 14.3492,-6.97886 29.1763,-13.03667 44.6324,-17.09545 12.0909,-3.21641 24.5405,-4.75224 36.9547,-6.0909 11.4534,-1.1592 22.9945,-1.59296 34.4982,-1.02368 12.7631,0.52624 25.5034,2.04443 38.0809,4.24827 10.7481,1.99451 21.2652,5.00634 31.5804,8.59891 8.796,3.09098 17.3811,6.80066 25.8478,10.69746 10.0549,4.71937 20.0021,9.67438 29.738,14.9969 6.8621,4.04002 13.3485,8.66368 19.8081,13.30784 1.3605,1.25426 2.8819,2.44619 4.2484,3.5317 2.6889,2.27178 5.3541,4.57085 7.9847,6.90983 0.35,-24.25628 0.3002,-48.52566 0.3584,-72.78363 -0.016,-7.80048 -0.069,-15.59064 -0.1032,-23.39108 -6.0941,-3.26475 -12.3299,-6.23015 -18.3237,-9.67377 -7.277,-3.89416 -14.7648,-7.49859 -22.4699,-10.49272 -9.6368,-4.00544 -19.4656,-7.54702 -29.4309,-10.64627 -13.8509,-4.162953 -27.9343,-7.418419 -42.1756,-9.929694 -16.0755,-2.998726 -32.4963,-3.950929 -48.8293,-3.838799 z M 59.565513,97.06085 v 624.9053 H 143.20015 V 463.07754 c 4.27762,-0.0115 8.56779,-0.005 12.84718,0 v -76.62242 c -4.28216,0.0257 -8.56375,0.039 -12.84718,0.0511 V 173.27373 h 0.15347 c 19.93889,0.0131 39.92048,-0.14512 59.83408,1.02368 11.24865,0.75267 22.49016,1.92012 33.5767,3.99235 10.82687,2.02572 21.42537,5.21269 31.47815,9.72495 4.60942,2.03747 9.17436,4.23856 13.61494,6.60274 3.55069,2.2849 6.37335,5.40134 9.62259,8.08707 6.78374,6.30716 13.19297,13.0212 19.09163,20.16649 2.10892,2.542 2.99204,5.92278 4.50419,8.85483 3.5389,8.26811 6.51383,16.88801 7.62641,25.84791 1.53152,10.84939 1.7368,21.83989 0.87013,32.75776 -0.94036,9.52583 -2.07127,19.14189 -5.32314,28.20237 -2.16992,6.48946 -5.10695,12.72246 -8.13825,18.83571 -4.37005,5.23297 -9.27406,10.07104 -14.02441,14.99691 -4.90251,4.82204 -10.06576,9.53206 -15.45757,13.71731 -8.39175,4.39751 -17.12136,8.10738 -26.05265,11.26047 -8.4647,2.78846 -17.19577,4.81259 -26.05265,5.83498 -13.59053,2.05409 -27.35511,3.08041 -41.10074,3.01985 -10.40974,0.0901 -20.81536,0.19306 -31.22223,0.25592 v 76.62243 c 17.76549,0.0179 35.53035,0.0842 53.28253,-0.46065 11.47561,-0.4108 22.92294,-1.54977 34.24209,-3.48051 8.58985,-1.51567 17.09406,-3.35163 25.54081,-5.52787 10.20626,-2.7399 20.308,-5.99118 29.99381,-10.2368 6.24103,-2.7924 12.16093,-6.25604 18.01677,-9.77614 11.74141,-6.95408 22.74934,-15.02174 33.62788,-23.23753 2.2686,-1.59603 4.33973,-3.09083 6.24444,-5.1184 2.17417,-2.13974 4.28518,-4.32165 6.19327,-6.70511 0.96628,-1.94572 2.3163,-4.04302 3.53169,-5.98852 5.93156,-8.49817 11.78812,-17.09698 17.09545,-26.00147 4.13691,-6.89527 7.53807,-14.22025 9.98088,-21.90674 4.00962,-12.35692 7.13683,-25.03564 8.80365,-37.92734 1.42589,-10.75068 1.64419,-21.61802 1.53552,-32.45065 -0.29391,-11.20369 -1.38813,-22.38645 -3.63407,-33.37196 -1.8487,-9.31732 -4.28856,-18.53342 -7.47286,-27.4858 -2.44479,-6.76357 -5.37915,-13.3793 -9.16193,-19.5011 -6.92696,-11.8327 -14.64344,-23.20466 -22.98161,-34.08853 -1.80068,-2.38514 -3.58901,-4.99695 -5.37432,-7.21695 -3.67568,-3.83057 -7.3444,-7.70414 -11.5164,-11.00455 -2.10054,-1.1306 -4.36775,-2.61491 -6.50037,-3.94117 -4.59009,-3.11937 -9.05612,-6.42678 -13.76849,-9.36667 -4.02381,-2.46374 -8.00927,-5.03588 -12.07942,-7.42168 -5.82878,-3.28106 -11.71789,-6.54832 -18.11913,-8.59891 -11.64163,-4.18118 -23.78858,-6.72212 -35.93116,-8.9572 -16.71415,-2.85834 -33.6454,-4.211266 -50.56978,-5.06721 -17.39631,-0.724208 -34.79738,-0.991675 -52.20767,-1.02368 -31.79865,-0.129966 -63.607848,-0.155812 -95.406867,-0.15347 z m 438.032567,0 v 624.9053 h 339.1451 V 644.11531 H 581.18153 V 418.49629 H 829.3215 V 340.69663 H 581.18153 V 174.9117 H 836.74318 V 97.06085 Z m 1619.81952,0 c 0,208.30176 4e-4,416.60354 0,624.9053 h 339.1453 c -3e-4,-25.95028 0,-51.90056 0,-77.85084 H 2201.0012 V 418.49629 h 248.14 v -77.79966 h -248.14 V 174.9117 h 255.5617 c -3e-4,-25.95029 0,-51.90057 0,-77.85085 z"
       inkscape:path-effect="#path-effect8385"
       id="path8231"
       d="m 1505.7327,721.96607 c 0,0 1.8176,2.71361 -1.547,-4.78242 -3.3648,-7.49633 -0.6244,4.78242 -4.967,4.78242 -4.3427,0 1.6022,-12.27875 -1.7658,-19.78251 -3.3681,-7.50376 -2.5769,19.78251 -6.9196,19.78251 -4.3427,0 3.5515,-27.28627 0.1801,-34.79748 -3.3714,-7.51122 -4.5228,34.79748 -8.8655,34.79748 -4.3427,0 5.4941,-42.30869 2.1193,-49.82738 -3.3747,-7.51869 -6.462,49.82738 -10.8047,49.82738 -4.3426,0 7.43,-57.34607 4.0518,-64.87225 -3.3781,-7.52619 -8.3944,64.87225 -12.7371,64.87225 -4.3427,0 9.359,-72.39844 5.9775,-79.93214 -1.69,-3.76508 -4.2367,16.2144 -6.9363,37.14093 -2.6994,20.92475 -5.5522,42.79121 -7.7266,42.79121 -2.1691,0 0.6861,-21.86646 3.6269,-44.67558 2.9418,-22.81624 5.9653,-46.55377 4.2696,-50.33151 -1.6911,-3.76758 -4.7047,19.9781 -7.8836,44.67557 -3.1786,24.69443 -6.5228,50.33152 -8.6983,50.33152 -2.1682,0 1.1789,-25.63708 4.5983,-52.21777 3.4206,-26.59 6.9088,-54.09566 5.2104,-57.87938 -1.6921,-3.76982 -5.1687,23.74529 -8.8254,52.21777 -3.656,28.46789 -7.4919,57.87938 -9.6686,57.87938 -2.1672,0 1.672,-29.41149 5.5684,-59.76753 3.8978,-30.36784 7.8468,-61.64484 6.1457,-65.43483 -1.693,-3.77179 -5.6289,27.51598 -9.7616,59.76753 -4.1318,32.24514 -8.4598,65.43483 -10.6379,65.43483 -2.1659,0 2.1658,-33.18969 6.5373,-67.32488 4.3735,-34.14975 8.7794,-69.20133 7.0754,-72.99789 -1.6938,-3.7735 -6.0851,31.29018 -10.6921,67.32488 -4.606,36.02619 -9.4263,72.99789 -11.606,72.99789 -2.1644,0 2.66,-36.97169 7.5051,-74.88984 4.8473,-37.93575 9.7065,-76.76516 7.9993,-80.56858 -1.6936,-3.77327 -6.5895,35.47538 -11.5983,74.7431 -5.0055,39.24237 -10.1239,78.50453 -11.7974,74.6315 -1.6605,-3.84305 3.4449,-43.11396 8.4337,-82.3157 4.9932,-39.23549 9.8699,-78.40363 8.1615,-82.20985 -1.6954,-3.77713 -6.5595,35.3991 -11.5361,74.59414 -4.9733,39.16975 -10.0591,78.35903 -11.7342,74.48161 -1.6623,-3.84753 3.4105,-43.04555 8.3672,-82.17439 4.9609,-39.1625 9.8058,-78.25762 8.0957,-82.06764 -1.6971,-3.78101 -6.5295,35.32221 -11.4738,74.44398 -4.9412,39.09658 -9.9943,78.21244 -11.6712,74.33074 -1.6639,-3.85189 3.3762,-42.97649 8.3007,-82.03192 4.9286,-39.089 9.7419,-78.11063 8.03,-81.92446 -1.6988,-3.78491 -6.4995,35.24482 -11.4116,74.29289 -4.9089,39.02297 -9.9294,78.06499 -11.608,74.17913 -1.6658,-3.85613 3.3417,-42.90691 8.234,-81.88854 4.8965,-39.01512 9.678,-77.96292 7.9644,-81.78057 -1.7006,-3.78882 -6.4695,35.16708 -11.3494,74.14113 -4.8768,38.94904 -9.8647,77.91694 -11.5451,74.02704 -1.6675,-3.86026 3.3074,-42.83693 8.1676,-81.74452 4.8643,-38.941 9.614,-77.81474 7.8987,-81.63622 -1.7023,-3.79274 -6.4395,35.08911 -11.2873,73.98896 -4.8447,38.87492 -9.8,77.76855 -11.4821,73.87472 -1.6694,-3.86428 3.273,-42.76667 8.101,-81.6001 4.8322,-38.86675 9.5503,-77.66635 7.8333,-81.49168 -1.7041,-3.79666 -6.4097,35.01104 -11.2253,73.83663 -4.8127,38.80075 -9.7355,77.62008 -11.4194,73.72245 -1.6712,-3.86818 3.2387,-42.69627 8.0347,-81.45555 4.8001,-38.79251 9.4866,-77.51801 7.7679,-81.3472 -1.7059,-3.8006 -6.3799,34.933 -11.1635,73.68441 -4.7807,38.72665 -9.6711,77.47179 -11.3568,73.57047 -1.673,-3.87195 3.2044,-42.62585 7.9685,-81.31112 4.7681,-38.71842 9.4231,-77.36999 7.7026,-81.20305 -1.7076,-3.80456 -6.3501,34.85512 -11.1018,73.53256 -4.7487,38.65275 -9.6068,77.32395 -11.2944,73.41907 -1.6749,-3.8756 3.1702,-42.55556 7.9024,-81.16709 4.7363,-38.6446 9.3599,-77.22256 7.6377,-81.0595 -1.7095,-3.80852 -6.3205,34.77754 -11.0404,73.38134 -4.717,38.57921 -9.5428,77.17684 -11.2323,73.26851 -1.6768,-3.87913 3.1361,-42.48551 7.8366,-81.02372 4.7045,-38.57119 9.2968,-77.07597 7.5729,-80.9168 -1.712,-3.81411 -6.2507,34.37286 -11.0178,73.54757 -4.7658,39.16419 -9.7584,79.28453 -11.9395,79.28453 -2.1631,0 2.834,-40.12034 7.8296,-81.19783 4.9981,-41.09809 9.9851,-83.09152 8.2574,-86.94071 -1.7126,-3.8154 -6.6817,38.19286 -11.9023,81.19783 -5.219,42.99178 -10.6871,86.94071 -12.87,86.94071 -2.1615,0 3.3115,-43.94893 8.7597,-88.85599 5.4512,-44.93131 10.8663,-90.74801 9.1352,-94.60481 -1.713,-3.81639 -7.1087,42.01651 -12.781,88.85599 -5.6704,46.82334 -11.6143,94.60481 -13.7993,94.60481 -2.1596,0 3.7897,-47.78147 9.6887,-96.52207 5.9024,-48.76879 11.7417,-98.41214 10.007,-102.27685 -1.7133,-3.81711 -7.5315,45.84382 -13.6538,96.52208 -6.12,50.65885 -12.5401,102.27684 -14.7273,102.27684 -2.1575,0 4.2684,-51.61799 10.6164,-104.1961 6.3519,-52.61054 12.6114,-106.08392 10.8731,-109.95685 -1.7135,-3.81755 -7.9503,49.67479 -14.5209,104.1961 -6.5679,54.49836 -13.4644,109.95685 -15.6539,109.95685 -2.1554,0 4.7474,-55.45849 11.5427,-111.8781 6.7997,-56.45657 13.4754,-113.76338 11.7332,-117.64484 -1.7135,-3.81771 -8.3649,53.50945 -15.382,111.8781 -7.0139,58.34186 -14.3872,117.64484 -16.5793,117.64484 -4.3427,0 9.5933,-77.84843 5.2506,-77.84843 -4.3431,0.004 -9.5929,77.84486 -13.936,77.84843 0.039,0 5.289,-77.84629 5.2504,-77.84629 0.039,10e-6 -13.8971,77.8463 -13.9358,77.84629 -4.3426,0 9.5936,-77.84988 5.2509,-77.84988 -2.1677,-10e-4 -4.8146,21.69719 -7.2147,41.15993 -2.4008,19.46917 -4.5494,36.68353 -5.6077,27.74672 -2.118,-17.88645 8.48,-68.90924 4.1373,-68.90913 -4.3349,1.1e-4 -5.1978,24.76325 -5.1978,24.76325 m 34.7712,-35.83785 c 0,0 5.0417,-37.07205 9.5465,-75.10461 4.5071,-38.05141 8.4759,-77.01083 6.7404,-80.87738 -1.7221,-3.83668 -6.1064,34.15964 -10.5968,72.17739 -4.4877,37.9939 -9.0814,76.0098 -10.786,72.09305 -1.6922,-3.88839 2.8887,-41.91293 7.3613,-79.87541 4.4764,-37.99468 8.8446,-75.9287 7.1083,-79.7971 -1.7239,-3.84072 -6.0796,34.10144 -10.5412,72.06527 -4.4587,37.94004 -9.0233,75.90231 -10.7299,71.98283 -1.6942,-3.89119 2.8576,-41.86209 7.3014,-79.77133 4.4476,-37.94141 8.7874,-75.82254 7.0493,-79.69495 -1.7258,-3.84479 -6.0531,34.0445 -10.4859,71.95565 -4.4301,37.88741 -8.9657,75.79725 -10.6742,71.87489 -1.6963,-3.89411 2.8265,-41.81258 7.2418,-79.66978 4.4189,-37.88929 8.7305,-75.71867 6.9905,-79.5951 -1.7275,-3.84887 -6.0266,33.98867 -10.4309,71.84825 -4.4015,37.83589 -8.9083,75.69437 -10.6189,71.76899 -1.6982,-3.89719 2.7958,-41.7643 7.1826,-79.57048 4.3906,-37.83822 8.674,-75.61685 6.9323,-79.49732 -1.7294,-3.85295 -6.0004,33.93385 -10.3763,71.74281 -4.3732,37.78535 -8.8514,75.5934 -10.5639,71.66486 -1.7002,-3.90042 2.7652,-41.71711 7.1238,-79.47317 4.3622,-37.78806 8.6176,-75.51681 6.8741,-79.40133 -1.7313,-3.85705 -5.9742,33.87988 -10.3219,71.63907 -4.345,37.73563 -8.7947,75.49407 -10.5091,71.56221 -1.7022,-3.90379 2.7348,-41.67087 7.0651,-79.37758 4.334,-37.73866 8.5617,-75.41826 6.8163,-79.30684 -1.7331,-3.86116 -5.9482,33.82662 -10.2678,71.53675 -4.3168,37.68661 -8.7381,75.3961 -10.4545,71.46077 -1.7042,-3.90731 2.7044,-41.62544 7.0067,-79.28343 4.306,-37.6899 8.5058,-75.32094 6.7586,-79.21361 -1.7349,-3.86528 -5.9223,33.77396 -10.2138,71.43558 -4.2889,37.63816 -8.6819,75.29923 -10.4002,71.36028 -1.7061,-3.91098 2.6742,-41.5807 6.9486,-79.19046 4.2779,-37.64162 8.4501,-75.22457 6.7011,-79.12133 -1.7368,-3.86942 -5.8965,33.72173 -10.1601,71.33528 -4.2609,37.59012 -8.6258,75.20316 -10.346,71.26044 -1.708,-3.9148 2.6441,-41.5365 6.8906,-79.09838 4.2501,-37.59371 8.3946,-75.12888 6.6437,-79.02975 -1.7386,-3.87356 -5.8707,33.66982 -10.1064,71.23557 -4.2331,37.54237 -8.5698,75.10764 -10.2919,71.16099 -1.7099,-3.91878 2.6141,-41.4927 6.8327,-79.00693 4.2222,-37.546 8.3393,-75.03358 6.5865,-78.93856 -1.7405,-3.87773 -5.845,33.61807 -10.0529,71.13616 -4.2053,37.49477 -8.5139,75.01236 -10.2379,71.06163 -1.7119,-3.92291 2.584,-41.44917 6.7749,-78.9158 4.1944,-37.49837 8.2839,-74.93839 6.5293,-78.8475 -1.7424,-3.8819 -5.8194,33.56634 -9.9995,71.03678 -4.1775,37.44716 -8.4581,74.91705 -10.1839,70.96207 -1.7138,-3.92719 2.5541,-41.40575 6.7172,-78.82472 4.1666,-37.45067 8.2286,-74.84302 6.4722,-78.75627 -1.7443,-3.8861 -5.7938,33.51448 -9.9461,70.93713 -4.1498,37.39942 -8.4023,74.82142 -10.1301,70.86204 -1.7156,-3.93164 2.5242,-41.36232 6.6596,-78.73341 4.1388,-37.40275 8.1734,-74.74718 6.415,-78.66459 -1.7461,-3.8903 -5.7682,33.46237 -9.8927,70.83693 -4.122,37.35138 -8.3465,74.72516 -10.0761,70.76123 -1.7175,-3.93625 2.4943,-41.31873 6.6019,-78.64157 4.111,-37.35447 8.1181,-74.65058 6.3579,-78.57216 -1.7501,-3.89909 -5.4993,31.16278 -9.5923,68.48423 -4.0953,37.34162 -8.5279,76.84094 -11.2836,81.91756 -2.7348,5.03831 1.7302,-34.49264 6.3239,-76.29726 4.5952,-41.81833 9.3017,-85.801751 7.5354,-89.736893 -1.7495,-3.897799 -6.464,40.426653 -11.6157,87.348373 -5.1561,46.96152 -10.7348,96.32654 -13.6498,102.70887 -2.8809,6.30744 2.7482,-43.11656 8.4783,-95.16981 5.7317,-52.06795 11.5368,-106.584823 9.763,-110.536642 -1.7475,-3.893467 -7.5201,50.656312 -13.8084,107.834322 -6.2941,57.23038 -13.0811,116.80622 -16.0139,123.22669 -2.8787,6.30201 3.8479,-52.36211 10.3502,-111.23982 6.4922,-58.7872 12.7599,-117.788593 9.9268,-111.70861 -2.7837,5.973813 -9.0871,65.00612 -15.623,123.93842 -6.5496,59.05673 -13.331,118.00503 -16.2675,124.43302 -2.8866,6.31857 3.934,-52.66538 10.528,-111.86529 6.5838,-59.10809 12.9406,-118.43276 10.1,-112.33658 -2.7906,5.98854 -9.1836,65.34444 -15.8113,124.59835 -6.6419,59.38001 -13.5179,118.6495 -16.4631,125.09574 -2.8944,6.33531 4.0211,-52.97022 10.7078,-112.49411 6.6762,-59.43076 13.1233,-119.0805 10.275,-112.968 -2.7975,6.00337 -9.281,65.68469 -16.0016,125.26201 -6.7351,59.70512 -13.7067,119.2976 -16.6605,125.76229 -2.9025,6.35223 4.109,-53.27668 10.8893,-113.12641 6.7696,-59.75526 13.3079,-119.73197 10.4519,-113.60302 -2.8044,6.01832 -9.3794,66.02695 -16.1939,125.92955 -6.8293,60.03212 -13.8975,119.94947 -16.8601,126.43283 -2.9105,6.36934 4.1979,-53.58485 11.0729,-113.76235 6.8641,-60.08168 13.4944,-120.38731 10.6307,-114.24177 -2.8114,6.03338 -9.4789,66.37127 -16.3883,126.60111 -6.9245,60.36109 -14.0902,120.60526 -17.0617,127.1075 -2.9187,6.38664 4.2877,-53.89478 11.2584,-114.40205 6.9595,-60.41008 13.6829,-121.04668 10.8114,-114.88441 -2.8185,6.04854 -9.5793,66.71775 -16.5847,127.27684 -7.0207,60.69212 -14.2851,121.26513 -17.2656,127.78647 -2.9269,6.40413 4.3786,-54.20655 11.446,-115.04569 7.0559,-60.74054 13.8734,-121.71022 10.9941,-115.53108 -2.8213,6.05454 -10.4098,68.69366 -17.5148,129.57483 -7.1135,60.95429 -13.7828,120.38024 -13.7828,120.38024 m 167.0683,89.27354 c 0,0 2.0772,0.94452 2.0772,-34.24457 0,-17.64432 -1.061,-8.98364 -2.6562,3.92637 -1.6013,12.95978 -3.7607,30.3182 -5.935,30.3182 -4.3427,0 9.5933,-77.84857 5.2507,-77.84857 -4.3431,0.003 -9.593,77.84565 -13.9361,77.84857 -4.3427,0 9.5927,-77.84303 5.25,-77.84303 0.038,-2e-5 -13.8969,77.84301 -13.9354,77.84303 -4.3426,0 9.5921,-77.83804 5.2494,-77.83804 0.039,-2e-5 -13.8963,77.83802 -13.9347,77.83804 -4.3427,0 9.5915,-77.83358 5.2488,-77.83358 -4.3429,0.002 -9.5913,77.83147 -13.9342,77.83358 -4.3427,0 9.591,-77.82959 5.2484,-77.82959 -4.343,0.002 -9.5909,77.82771 -13.9338,77.82959 -4.3427,0 9.5906,-77.82604 5.248,-77.82604 0.038,-2e-5 -13.8948,77.82603 -13.9333,77.82604 0.039,0 5.2862,-77.8229 5.2475,-77.8229 -4.3429,10e-4 -9.59,77.82142 -13.9329,77.8229 0.039,0 5.2859,-77.82011 5.2472,-77.82011 -4.3428,10e-4 -9.5897,77.8188 -13.9326,77.82011 -4.3427,0 9.5896,-77.81766 5.2469,-77.81766 0.039,-1e-5 -13.8937,77.81765 -13.9323,77.81766 -4.3426,0 9.5894,-77.81548 5.2467,-77.81548 0.038,-1e-5 -13.8935,77.81547 -13.932,77.81548 0.039,0 5.285,-77.81356 5.2464,-77.81356 -4.3428,9.1e-4 -9.589,77.81265 -13.9318,77.81356 0.039,0 5.2848,-77.81184 5.2462,-77.81184 0.039,0 -13.893,77.81183 -13.9316,77.81184 -4.3427,0 9.5887,-77.81028 5.246,-77.81028 0.039,-1e-5 -13.8928,77.81027 -13.9313,77.81028 -4.3427,0 9.5885,-77.80886 5.2458,-77.80886 0.039,0 -13.8927,77.80885 -13.9312,77.80886 -4.3427,0 9.5883,-77.80752 5.2457,-77.80752 0.038,-10e-6 -13.8925,77.80751 -13.9311,77.80752 -4.3427,0 9.5882,-77.80624 5.2455,-77.80624 -4.3427,6.3e-4 -9.5881,77.8056 -13.9309,77.80624 -4.3426,0 9.5881,-77.80497 5.2454,-77.80497 -4.3428,6.4e-4 -9.588,77.80433 -13.9307,77.80497 -4.3427,0 9.5879,-77.80367 5.2452,-77.80367 -4.3428,6.6e-4 -9.5878,77.80301 -13.9306,77.80367 -4.3427,0 9.5877,-77.80231 5.245,-77.80231 0.039,0 -13.8918,77.8023 -13.9304,77.80231 -4.3427,0 9.5876,-77.80084 5.2449,-77.80084 0.039,0 -13.8917,77.80083 -13.9302,77.80084 -2.1315,0 8.0187,-81.7423 17.5252,-161.9481 9.4971,-80.12635 18.386,-158.95452 15.4851,-152.72907 -2.8098,6.02987 -11.7664,84.93145 -20.9221,161.94809 -9.1694,77.13279 -18.5728,152.72908 -20.7736,152.72908 -2.1371,0 7.2526,-75.59629 16.0649,-149.65198 8.8046,-73.98972 17.0621,-146.63673 14.1598,-140.40833 -2.825,6.0625 -11.1452,78.77744 -19.604,149.65198 -8.4708,70.97447 -17.1101,140.40833 -19.3061,140.40833 -2.1422,0 6.4844,-69.43387 14.595,-137.32299 8.1041,-67.83546 15.7178,-134.28716 12.8135,-128.05451 -2.8423,6.09969 -10.4046,71.70254 -18.1573,136.42287 -7.7669,64.8387 -15.7365,128.91556 -18.3859,132.55512 -2.5947,3.56463 5.3921,-60.51865 13.0243,-124.06073 7.6218,-63.45546 14.897,-126.4144 11.9863,-120.16797 -2.8533,6.12312 -10.2562,69.84956 -17.9264,133.43876 -7.688,63.73714 -15.6424,127.32858 -18.6679,133.92137 -2.9655,6.46214 5.0328,-57.16951 12.7687,-121.04322 7.7225,-63.7628 15.1825,-127.76872 12.2617,-121.5006 -2.8607,6.13903 -10.3611,70.18066 -18.1313,134.08335 -7.7884,64.05252 -15.8458,127.95745 -18.8808,134.57219 -2.9743,6.48237 5.1272,-57.46323 12.9641,-121.65413 7.8233,-64.0785 15.3817,-128.40336 12.4526,-122.11753 -2.8681,6.15507 -10.4674,70.516 -18.3389,134.73611 -7.8901,64.37184 -16.0516,128.59403 -19.0963,135.23029 -2.9831,6.50214 5.223,-57.76119 13.1622,-122.27293 7.9252,-64.39784 15.5833,-129.04515 12.646,-122.74146 -2.8757,6.17122 -10.575,70.85498 -18.549,135.39583 -7.993,64.69453 -16.26,129.23716 -19.3143,135.89447 -2.9919,6.52144 5.32,-58.06279 13.3627,-122.89843 8.0283,-64.72019 15.7872,-129.69289 12.8415,-123.37119 -2.8833,6.18751 -10.6837,71.19703 -18.7614,136.06134 -8.0971,65.01995 -16.4706,129.88558 -19.5346,136.56347 -3.0008,6.54024 5.4182,-58.36744 13.5655,-123.52941 8.1326,-65.04496 15.9933,-130.34532 13.0391,-124.00545 -2.886,6.1935 -11.5413,73.20631 -19.7266,138.38575 -8.196,65.2646 -15.97059,128.96397 -15.97059,128.96397 m -4.77975,3.34722 c 0,0 8.97014,-64.53678 16.88774,-127.49262 7.9124,-62.91387 14.8214,-124.38837 11.8653,-118.04454 -2.9001,6.22365 -10.4066,67.75807 -17.9407,127.49262 -7.54362,59.80961 -15.13805,118.04454 -17.32637,118.04454 -2.15056,0 5.43304,-58.23494 12.58567,-114.89078 7.1483,-56.62124 13.8841,-111.76718 10.9247,-105.41618 -2.9147,6.25481 -9.6997,61.45472 -16.46524,114.89078 -6.7733,53.49764 -13.54586,105.41618 -15.7305,105.41618 -2.15464,0 4.60824,-51.91855 10.98721,-102.25354 6.37575,-50.30964 12.38213,-99.11179 9.41867,-92.75221 -2.92862,6.28489 -8.97873,55.13501 -14.96719,102.25355 -5.99474,47.16788 -11.94266,92.7522 -14.12406,92.7522 -2.15829,0 3.78111,-45.58433 9.37809,-89.58061 5.59477,-43.97889 10.85807,-86.42191 7.88997,-80.0523 -2.94213,6.31386 -8.24362,48.79877 -13.44654,89.58061 -5.20781,40.82018 -10.32829,80.0523 -12.50689,80.0523 -2.1615,0 2.95163,-39.23213 7.75823,-76.87168 4.80524,-37.62883 9.31179,-73.69724 6.33835,-67.31617 -2.95511,6.34174 -7.49424,42.44591 -11.90303,76.87168 -4.41244,34.45438 -8.70268,67.31617 -10.87892,67.31617 -2.16427,0 2.11978,-32.8618 6.12755,-64.12644 4.00707,-31.25928 7.74308,-60.9375 4.76361,-54.5435 -2.96758,6.36849 -6.73049,36.07626 -10.33648,64.12645 -3.60857,28.07032 -7.06571,54.54349 -9.24006,54.54349 -2.16659,0 1.28556,-26.47318 4.48595,-51.34458 3.20021,-24.87007 6.15175,-48.14239 3.16556,-41.73396 -5.97113,12.81416 -11.99419,93.07854 -16.33688,93.07854 -2.16846,0 0.44893,-20.0661 2.83332,-38.52579 2.38456,-18.46101 4.5376,-35.3116 1.54399,-28.88724 -5.98847,12.85138 -8.71999,67.41303 -13.06268,67.41303 -4.34268,0 7.07423,-54.56169 1.06827,-41.67275 -6.00597,12.88893 -5.41095,41.67275 -9.75364,41.67275 -4.34269,0 3.7477,-28.78386 -2.27592,-15.85705 -6.02395,12.92754 -4.23811,15.85705 -4.23811,15.85705 M 1996.1002,658.52898 c 0,0 -1.7668,30.73389 -6.44,33.22257 -4.6634,2.48341 6.3999,-49.7555 6.3708,-84.02772 -0.015,-17.19027 -2.7326,4.56185 -6.0617,30.763 -3.3367,26.26037 -7.3125,57.11704 -9.6623,58.432 -2.3367,1.30764 1.064,-25.00637 4.3933,-51.14971 3.3285,-26.13806 6.5861,-52.1078 4.1579,-50.08524 -2.4198,2.01551 -5.6814,27.97335 -8.9593,53.68517 -3.2786,25.71773 -6.574,51.19589 -8.8897,52.28157 -2.3079,1.08201 0.9887,-24.39144 4.2104,-49.64201 3.2211,-25.24605 6.3679,-50.27211 3.9423,-48.27269 -2.4179,1.99295 -5.5701,27.01816 -8.7322,51.77566 -3.1628,24.76277 -6.336,49.26436 -8.6369,50.23638 -2.2937,0.96899 0.8806,-23.52877 3.9827,-47.79834 3.1016,-24.26569 6.1318,-48.30595 3.7179,-46.40253 -2.4068,1.89775 -5.4419,25.93743 -8.4844,49.71649 -3.0431,23.78364 -6.0939,47.31251 -8.3852,48.21153 -2.2847,0.89645 0.771,-22.65864 3.7683,-46.06901 2.9969,-23.40727 5.9358,-46.67159 3.5731,-45.17807 -2.3559,1.48932 -5.2987,24.75492 -8.257,47.84224 -2.9588,23.0908 -5.9333,46.00696 -8.2127,46.81479 -2.2731,0.80562 0.7011,-22.09815 3.6229,-44.8868 2.9214,-22.78606 5.7906,-45.45841 3.4546,-44.17692 -2.3298,1.27806 -5.2022,23.95121 -8.0931,46.48354 -2.8913,22.53521 -5.8013,44.93229 -8.0718,45.67263 -2.2647,0.7384 0.6477,-21.66779 3.5113,-43.97536 2.8632,-22.3053 5.6779,-44.51318 3.3588,-43.36679 -2.3131,1.14345 -5.1306,23.35195 -7.9674,45.43702 -2.837,22.08753 -5.6935,44.05386 -7.9551,44.72534 -2.2559,0.66978 0.6025,-21.30277 3.4116,-43.16165 2.8087,-21.85679 5.5685,-43.60123 3.2506,-42.46478 -2.3123,1.13365 -5.0745,22.87706 -7.8529,44.48389 -2.7786,21.60912 -5.5735,43.08402 -7.8267,43.69205 -2.2478,0.60657 0.5474,-20.86381 3.2951,-42.22326 2.7476,-21.3576 5.448,-42.60551 3.1396,-41.54477 -2.303,1.05824 -5.006,22.30754 -7.7244,43.42647 -2.7186,21.12093 -5.4527,42.11361 -7.699,42.66866 -2.2411,0.55378 0.4936,-20.4372 3.1843,-41.33289 2.6906,-20.89409 5.3374,-41.69394 3.0437,-40.7499 -4.5826,1.88612 -10.7152,83.19127 -15.188,84.18884 -2.234,0.49824 0.448,-20.07501 3.0899,-40.57415 2.6418,-20.49778 5.2437,-40.92226 2.968,-40.11971 -4.5468,1.60347 -10.5307,81.69114 -14.9894,82.57987 -2.227,0.44389 0.4138,-19.8018 3.0183,-39.996 2.6045,-20.19307 5.1728,-40.33522 2.9157,-39.67861 -4.5099,1.31191 -10.3925,80.56181 -14.8377,81.34633 -2.2203,0.39186 0.391,-19.61714 2.97,-39.60059 2.5789,-19.98255 5.1256,-39.93985 2.8884,-39.4401 -4.47,0.99849 -10.3034,79.82441 -14.7225,80.40934 -4.4191,0.58492 10.2527,-79.41268 5.8189,-78.69865 -4.4338,0.71404 -10.2373,79.27809 -14.635,79.69923 -4.3978,0.42115 10.2036,-79.00406 5.7856,-78.41365 -4.4181,0.59041 -10.1827,78.8298 -14.5645,79.12901 -4.3818,0.29921 10.1458,-78.53356 5.7426,-78.05987 -4.4031,0.47369 -10.1238,78.35438 -14.4947,78.57036 -4.3709,0.21599 10.091,-78.09201 5.7076,-77.77387 -4.3833,0.31813 -10.0769,77.97709 -14.4321,78.07277 -4.3552,0.0957 10.0505,-77.76761 5.6819,-77.56454 -4.3687,0.20307 -10.0372,77.6614 -14.3811,77.67028 -4.3438,0.009 10.0125,-77.46812 5.6634,-77.41727 -4.3492,0.0508 -10.0074,77.42733 -14.3386,77.34009 -4.3315,-0.0872 9.9903,-77.29735 5.6589,-77.38459 -4.3306,-0.0946 -9.9904,77.29852 -14.3079,77.10582 -4.3175,-0.1927 9.9774,-77.20108 5.6646,-77.43501 -4.3129,-0.23393 -9.9822,77.24348 -14.2847,76.93593 -4.3025,-0.30756 9.9725,-77.17456 5.6757,-77.5344 -4.2967,-0.35984 -9.9783,77.22803 -14.2646,76.79615 -4.2862,-0.43188 9.9676,-77.1536 5.6854,-77.62717 -4.2823,-0.47357 -9.9733,77.20833 -14.239,76.61885 -4.2656,-0.58948 9.9566,-77.09102 5.6905,-77.6913 -4.2661,-0.60027 -9.956,77.10072 -14.207,76.39884 -4.251,-0.70188 9.9407,-76.99762 5.6922,-77.7361 -4.2484,-0.73849 -9.9431,77.03327 -14.1805,76.22686 -4.2374,-0.80641 9.9319,-76.96374 5.7026,-77.85278 -4.2294,-0.88903 -9.9399,77.04544 -14.1647,76.142 -4.2248,-0.90343 9.9371,-77.04509 5.7372,-78.16542 -4.1999,-1.12033 -9.9619,77.26106 -14.1751,76.26805 -4.2132,-0.99301 9.9753,-77.38903 5.7985,-78.692 -4.1767,-1.30296 -10.0149,77.72339 -14.2108,76.59757 -4.196,-1.12582 10.0341,-77.90112 5.8798,-79.3818 -2.0752,-0.73964 -4.5651,18.81933 -7.087,38.41032 -2.5217,19.58969 -5.0754,39.21111 -7.1679,38.58989 -4.1811,-1.24122 10.1007,-78.48142 5.9683,-80.1353 -2.0643,-0.82616 -4.5726,18.89639 -7.1146,38.66033 -2.5417,19.7625 -5.1171,39.56602 -7.2032,38.89461 -4.1681,-1.34149 10.1854,-79.20931 6.0742,-81.0323 -2.0537,-0.91063 -4.5845,19.01096 -7.1505,38.98038 -2.5657,19.96781 -5.1664,39.98303 -7.2448,39.25166 -4.1527,-1.46128 10.2839,-80.05379 6.1938,-82.04555 -2.043,-0.99492 -4.5992,19.1499 -7.1916,39.34633 -2.5921,20.19466 -5.2204,40.44047 -7.2898,39.63864 -4.1346,-1.60202 10.3929,-80.98914 6.3111,-83.04824 -2.039,-1.02853 -4.6207,19.34285 -7.2381,39.75746 -2.6172,20.4127 -5.2702,40.86826 -7.3309,39.9985 -4.1172,-1.73772 10.4863,-81.8085 6.4143,-83.94884 -2.0339,-1.06908 -4.635,19.48182 -7.2691,40.05104 -2.6339,20.56711 -5.3009,41.1524 -7.3434,40.14149 -4.0809,-2.01974 10.5168,-82.14416 6.5229,-84.90508 -1.995,-1.37909 -4.6116,19.32704 -7.2689,40.10616 -2.6569,20.77658 -5.3546,41.62558 -7.385,40.51956 -4.0566,-2.20971 10.688,-83.60821 6.7651,-86.93835 -1.9594,-1.66341 -4.6304,19.5167 -7.3513,40.82953 -2.7205,21.30987 -5.4909,42.75138 -7.5154,41.59594 -4.0442,-2.30825 10.9471,-85.78121 7.0366,-89.2159 -1.9533,-1.71554 -4.6869,20.00712 -7.4724,41.8643 -2.7851,21.85395 -5.622,43.84127 -7.6407,42.63894 -2.0136,-1.19932 0.8216,-23.19026 3.6364,-45.29575 2.8154,-22.10951 5.6099,-44.33113 3.6465,-46.01186 -1.9585,-1.67645 -4.7493,20.54559 -7.591,42.88353 -2.8413,22.33456 -5.7335,44.78401 -7.7479,43.54546 -2.0091,-1.23531 0.8811,-23.68624 3.7523,-46.27477 2.8717,-22.59298 5.724,-45.32049 3.7762,-47.13119 -1.9427,-1.80589 -4.7918,20.93095 -7.6948,43.79302 -2.9025,22.85827 -5.8589,45.84066 -7.8613,44.50693 -1.997,-1.3301 0.9566,-24.31058 3.8911,-47.44197 2.9352,-23.13646 5.8507,-46.42024 3.9211,-48.38224 -1.9243,-1.95655 -4.8349,21.32606 -7.8035,44.75259 -2.9682,23.42228 -5.9944,46.9872 -7.9871,45.5741 -1.987,-1.40905 1.0362,-24.97116 4.0419,-48.71266 3.0064,-23.74731 5.9945,-47.66948 4.0885,-49.82774 -1.9004,-2.15193 -4.883,21.76918 -7.9312,45.87606 -3.0476,24.10215 -6.161,48.38835 -8.15,46.94294 -1.983,-1.44099 1.1283,-25.73331 4.2203,-50.21084 3.0928,-24.48385 6.1653,-49.14792 4.2656,-51.36407 -1.8939,-2.20925 -4.9606,22.4539 -8.098,47.32239 -3.1369,24.86341 -6.3445,49.93009 -8.3364,48.50243 -1.9854,-1.42302 1.22,-26.49341 4.4059,-51.77124 3.1867,-25.28469 6.353,-50.7709 4.4612,-53.05988 -1.8855,-2.28138 -5.0453,23.2027 -8.2838,48.93081 -3.2379,25.72268 -6.5544,51.68668 -8.557,50.33794 -1.9955,-1.34401 1.3189,-27.31186 4.6135,-53.51135 3.2955,-26.20672 6.5699,-52.63809 4.6793,-54.94535 -1.8839,-2.29895 -5.1521,24.13334 -8.4901,50.71292 -3.3372,26.57307 -6.7442,53.29188 -8.6949,51.53338 -1.9436,-1.75215 1.4557,-28.43804 4.8559,-55.54628 3.4016,-27.11984 6.8016,-54.64728 5.0553,-58.14059 -1.7396,-3.48005 -5.1297,24.0522 -8.6288,52.0023 -3.498,27.94137 -7.1051,56.29682 -9.0418,54.4195 -1.9287,-1.86953 1.6702,-30.18813 5.2619,-58.91801 3.5933,-28.74334 7.1768,-57.88185 5.4383,-61.45847 -1.7311,-3.56139 -5.304,25.5821 -8.9925,55.14481 -3.6872,29.55253 -7.4903,59.51988 -9.417,57.55527 -1.9177,-1.95555 1.8791,-31.90391 5.6713,-62.3435 3.7943,-30.45623 7.5806,-61.38194 5.89,-65.37542 -1.6824,-3.97439 -5.4586,26.97887 -9.3685,58.43135 -3.9084,31.44008 -7.9507,63.37377 -9.8646,61.2982 -1.904,-2.06478 2.1283,-33.95007 6.1716,-66.52898 4.0462,-32.60189 8.0977,-65.86149 6.5167,-70.78984 -1.5724,-4.90149 -5.5944,28.26248 -9.7772,62.05844 -4.1808,33.77924 -8.5231,68.18439 -10.3847,65.68167 -1.8505,-2.48783 2.4753,-36.79902 6.8366,-72.10833 4.3658,-35.34568 8.7575,-71.62565 7.3726,-78.23284 -1.3762,-6.56588 -5.7454,29.75061 -10.3457,67.12505 -4.5975,37.35235 -9.4274,75.75396 -11.2915,73.24786 -1.8507,-2.48813 2.9551,-40.7118 7.8994,-80.97982 4.9537,-40.34484 10.0196,-82.55386 9.1264,-93.39674 -0.8865,-10.76001 -5.9124,31.55832 -11.3361,75.97607 -5.4199,44.38778 -11.2442,90.87827 -13.1066,88.31273 -1.7892,-2.46448 11.796,-111.38693 24.3707,-218.8436 12.5773,-107.47903 24.2041,-213.93829 21.7171,-211.58822 -2.3426,2.21371 -14.0115,108.70398 -26.3106,213.73088 -12.2995,105.0299 -25.2721,209.0267 -27.155,206.26847 -1.7784,-2.60523 11.1537,-106.61651 23.1435,-209.09784 11.9923,-102.5036 23.1003,-203.90715 20.6023,-201.40826 -2.3661,2.36698 -13.5159,103.79352 -25.2104,203.67546 -11.6949,99.88621 -23.9755,198.64331 -25.8294,195.69279 -1.7609,-2.80251 10.481,-101.59537 21.8463,-198.76502 11.3679,-97.19262 21.9158,-193.17848 19.4014,-190.48185 -2.3952,2.56877 -12.9855,98.57491 -24.0319,192.94153 -11.0473,94.37371 -22.5896,187.50616 -24.4147,184.36305 -1.7428,-3.00142 9.7892,-96.41666 20.4779,-187.83236 10.6894,-91.42188 20.5981,-181.29884 17.942,-177.25461 -2.5452,3.87555 -12.516,93.83378 -22.8052,181.70252 -10.294,87.9099 -20.9501,174.18273 -22.7512,170.89335 -1.732,-3.16327 8.8923,-89.53949 18.774,-174.01603 9.8836,-84.49318 19.0772,-167.46454 16.4779,-163.9013 -2.5064,3.43607 -11.7496,86.44702 -21.2268,167.37182 -9.4792,80.94261 -19.2283,160.18074 -20.9343,156.16018 -1.6505,-3.8899 8.062,-83.22102 17.0864,-160.38796 9.0278,-77.19618 17.4192,-152.59617 14.7957,-148.77004 -2.5461,3.71335 -10.9874,79.1559 -19.5531,152.31389 -8.5677,73.17597 -17.2909,144.40993 -18.9198,139.79597 -1.5861,-4.49272 7.092,-75.76078 15.1345,-144.55982 8.0464,-68.83237 15.5059,-135.53454 12.8151,-131.06211 -2.6288,4.36926 -10.146,71.16844 -17.658,135.33746 -7.5149,64.19431 -15.0509,126.06282 -16.5844,120.6972 -1.5034,-5.26008 5.9887,-67.1763 12.9025,-126.34683 6.9184,-59.2097 13.3007,-115.96095 10.5683,-111.08697 -2.6869,4.79287 -9.1195,61.59532 -15.4144,115.39261 -6.2982,53.8249 -12.4772,104.87876 -13.8634,98.31252 -1.3676,-6.47813 4.8052,-57.90515 10.3829,-105.69043 5.5834,-47.83324 10.6086,-92.25818 7.6065,-84.97198 -2.9723,7.2137 -8.0902,52.00197 -12.8077,92.31804 -4.7244,40.37583 -9.0574,76.44568 -10.0412,66.5213 -0.9781,-9.86514 3.3818,-46.63191 6.951,-77.24377 3.5806,-30.71066 6.3904,-55.33845 2.6245,-41.41963 -7.55,27.90454 -11.2898,78.26678 -11.2898,78.26678 m 489.8141,-181.70987 c 0,0 1.9018,2.42875 -2.0561,-1.03894 -3.9581,-3.46777 2.3519,-21.00004 2.3666,-61.14957 0.01,-20.15363 -1.5595,-5.5783 -3.6257,13.36828 -2.0743,19.02178 -4.6828,42.66241 -6.6768,41.01536 -1.9867,-1.64105 0.443,-23.64204 2.8218,-45.49037 2.3791,-21.85201 4.7078,-43.55428 2.6475,-44.61629 -2.0553,-1.05942 -4.3857,20.67604 -6.7409,42.32581 -2.3549,21.64703 -4.7346,43.20925 -6.7515,41.7896 -4.0296,-2.83625 9.3736,-86.20551 5.2639,-88.3835 -2.0525,-1.08779 -4.3412,20.2922 -6.6571,41.61912 -2.3157,21.32432 -4.6586,42.59612 -6.6871,41.27897 -4.0527,-2.63153 9.2461,-85.18456 5.1319,-87.32324 -2.055,-1.06818 -4.316,20.08913 -6.609,41.24082 -2.2927,21.14935 -4.6173,42.29318 -6.6692,41.1863 -4.0994,-2.21137 9.1644,-84.5705 5.029,-86.51453 -2.0655,-0.97095 -4.3144,20.10316 -6.5936,41.15908 -2.2789,21.05373 -4.588,42.08949 -6.6454,41.03092 -4.1104,-2.11488 9.1041,-84.13839 4.9438,-85.85146 -2.0779,-0.85561 -4.3088,20.07708 -6.5675,40.97273 -2.2585,20.89367 -4.5447,41.7507 -6.6067,40.73383 -4.1199,-2.03162 9.0148,-83.42725 4.8474,-85.07505 -2.0815,-0.82301 -4.2913,19.93646 -6.5284,40.65946 -2.2368,20.72111 -4.5009,41.40615 -6.567,40.42482 -4.128,-1.96065 8.9279,-82.73139 4.7472,-84.25654 -2.0881,-0.76177 -4.2756,19.81196 -6.4897,40.3481 -2.2139,20.5344 -4.4544,41.03161 -6.5269,40.10811 -4.1409,-1.84513 8.8359,-81.98075 4.6426,-83.38836 -2.0945,-0.70307 -4.2594,19.67995 -6.4504,40.0259 -2.1909,20.34436 -4.4078,40.65204 -6.4871,39.79032 -4.1547,-1.72173 8.7458,-81.239206 4.537,-82.502017 -2.1022,-0.630759 -4.2449,19.561787 -6.4133,39.719447 -2.1682,20.15625 -4.3621,40.278 -6.4506,39.49856 -4.1728,-1.55733 8.6544,-80.474451 4.4324,-81.612901 -2.109,-0.56865 -4.2309,19.446411 -6.3789,39.433141 -2.1477,19.98548 -4.3214,39.94293 -6.4197,39.25281 -4.1924,-1.37889 8.5764,-79.823725 4.3428,-80.854662 -2.1146,-0.514954 -4.2193,19.352282 -6.3502,39.197642 -2.1307,19.84426 -4.2876,39.6669 -6.3947,39.05721 -4.21,-1.2182 8.5113,-79.285141 4.2668,-80.213853 -4.2444,-0.928712 -8.4766,78.993013 -12.7065,77.957013 -4.23,-1.036 8.462,-78.885104 4.2072,-79.716664 -4.2535,-0.831319 -8.4357,78.678464 -12.6892,77.847144 -4.2526,-0.82897 8.4334,-78.66918 4.1707,-79.426314 -4.2627,-0.757133 -8.4265,78.626754 -12.6977,77.968634 -4.2711,-0.65811 8.4353,-78.728881 4.1545,-79.314779 -4.2808,-0.585898 -8.4255,78.655519 -12.7096,78.116229 -4.2841,-0.53928 8.4286,-78.699992 4.1304,-79.121471 -4.2982,-0.421478 -8.4144,78.580951 -12.7124,78.170021 -4.2981,-0.41093 8.414,-78.589462 4.1002,-78.863197 -4.3134,-0.273708 -8.3979,78.452297 -12.7113,78.178587 -4.3131,-0.27235 8.3972,-78.450358 4.0695,-78.592339 -4.3274,-0.141975 -8.3822,78.318359 -12.7097,78.176389 -4.3267,-0.14669 8.3818,-78.316457 4.0419,-78.342187 -4.34,-0.02573 -8.3688,78.196887 -12.7149,78.228377 -4.3461,0.0315 8.3756,-78.260674 4.0241,-78.177605 -4.3514,0.08307 -8.3703,78.210425 -12.7346,78.409205 -4.3643,0.19877 8.3832,-78.326666 4.0248,-78.177157 -4.3585,0.14951 -8.3892,78.377227 -12.7705,78.732757 -4.3813,0.35553 8.4122,-78.585135 4.0454,-78.356925 -4.3667,0.228211 -8.428,78.724895 -12.8242,79.217445 -4.3962,0.49256 8.4577,-78.9912 4.081,-78.668884 -4.3767,0.322316 -8.4764,79.153614 -12.8821,79.734474 -4.4058,0.58085 8.5056,-79.414223 4.1172,-78.981687 -4.3883,0.432536 -8.5221,79.554087 -12.9446,80.288137 -2.209,0.36665 -0.041,-19.59676 2.1001,-39.57522 2.1408,-19.97777 4.2543,-39.970435 2.0479,-39.658858 -4.4085,0.622518 -8.5694,79.958528 -13.0164,80.917668 -2.2213,0.47909 -0.04,-19.59345 2.1153,-39.69329 2.155,-20.09896 4.2837,-40.224927 2.0703,-39.848327 -4.4222,0.752421 -8.6335,80.508267 -13.11,81.738287 -2.236,0.61438 -0.034,-19.63054 2.1432,-39.92194 2.1771,-20.29032 4.3294,-40.626621 2.1095,-40.189567 -4.435,0.873186 -8.7294,81.342467 -13.2323,82.813187 -2.2492,0.73461 -0.019,-19.74857 2.1875,-40.29482 2.2063,-20.54496 4.3887,-41.15232 2.1628,-40.659629 -4.4468,0.984316 -8.8534,82.426909 -13.3816,84.126919 -2.2617,0.84912 0,-19.93444 2.2466,-40.79749 2.2424,-20.86155 4.4618,-41.801771 2.2305,-41.258515 -2.2262,0.542014 -4.4465,21.482825 -6.7094,42.525295 -2.2632,21.0443 -4.569,42.18854 -6.8477,43.1466 -2.2734,0.95584 0.035,-20.18906 2.3193,-41.42042 2.2845,-21.22961 4.5455,-42.544777 2.3055,-41.920765 -2.2347,0.622537 -4.4967,21.938435 -6.8031,43.359765 -2.3066,21.42346 -4.6573,42.95048 -6.947,44.00592 -2.2841,1.05291 0.069,-20.47464 2.3987,-42.09643 2.3293,-21.6198 4.6347,-43.332833 2.3874,-42.640964 -2.2419,0.690174 -4.5489,22.407504 -6.9017,44.233234 -2.3531,21.82816 -4.752,43.76268 -7.0509,44.89936 -2.2931,1.13384 0.1085,-20.80131 2.4855,-42.83402 2.3767,-22.03047 4.7285,-44.15744 2.4736,-43.3961 -2.2491,0.7594 -4.6005,22.87006 -6.9986,45.08504 -2.3983,22.21767 -4.8433,44.53762 -7.1484,45.72903 -2.2992,1.18833 0.1482,-21.12932 2.5693,-43.54009 2.4209,-22.40831 4.8152,-44.90873 2.5523,-44.07367 -2.257,0.83289 -4.6432,23.24504 -7.0936,45.91216 -2.4509,22.67114 -4.9657,45.59178 -7.3461,47.46178 -2.3739,1.86496 0.146,-21.05934 2.6536,-44.22758 2.5071,-23.16482 5.0012,-46.57108 2.7291,-45.65298 -2.2656,0.91548 -4.7651,24.35972 -7.3335,48.07002 -2.569,23.71505 -5.2066,47.68986 -7.6022,49.69025 -2.3885,1.99448 0.256,-21.99667 2.8837,-46.22356 2.6272,-24.22277 5.2369,-48.67874 2.9465,-47.59328 -2.2832,1.08209 -4.894,25.53192 -7.574,50.21796 -2.6806,24.69156 -5.43,49.61319 -7.8324,51.66642 -2.3947,2.04668 0.3597,-22.8702 3.0909,-47.99543 2.7308,-25.12045 5.4378,-50.44691 3.1294,-49.19551 -2.3008,1.24724 -5.0094,26.56596 -7.7901,52.1196 -2.7814,25.56018 -5.6347,51.3486 -8.0565,53.56796 -2.4135,2.21179 0.4457,-23.57567 3.2805,-49.58867 2.8341,-26.00749 5.6432,-52.2379 3.3233,-50.88449 -2.3116,1.34859 -5.1223,27.57106 -8.0133,54.07009 -2.8919,26.50689 -5.8635,53.28175 -8.3169,55.77442 -2.4444,2.48354 0.5343,-24.29058 3.491,-51.3493 2.9561,-27.05234 5.8893,-54.38584 3.5642,-52.98918 -2.3162,1.39127 -5.253,28.73365 -8.281,56.41055 -3.0289,27.68626 -6.1484,55.69563 -8.6345,58.46771 -2.4762,2.761 0.6524,-25.25499 3.7596,-53.60675 3.1063,-28.34421 6.1902,-57.0199 3.8555,-55.54055 -2.3249,1.47305 -5.4121,30.15411 -8.5974,59.1807 -3.1864,29.03742 -6.4699,58.40738 -8.9727,61.31236 -2.4917,2.89223 0.8019,-26.48539 4.0691,-56.20513 3.2662,-29.71095 6.505,-59.75929 4.157,-58.16458 -2.337,1.58728 -5.5707,31.55927 -8.9108,61.90142 -3.3415,30.35493 -6.7882,61.06467 -9.3177,64.19129 -2.5175,3.11164 0.9404,-27.605 4.368,-58.68218 3.4265,-31.06682 6.8215,-62.48896 4.4557,-60.73654 -2.3541,1.74374 -5.7541,33.18522 -9.3256,65.51244 -3.5741,32.35096 -7.3164,65.5426 -10.1029,70.9054 -2.7716,5.33414 0.9941,-27.8865 4.778,-62.02919 3.7823,-34.12764 7.5795,-69.1668 5.2093,-67.39445 -2.3554,1.76133 -6.1408,36.67935 -10.1539,72.82044 -4.0171,36.17793 -8.2553,73.49999 -11.2079,80.25355 -2.933,6.70887 1.3384,-30.64856 5.6439,-69.27525 4.3032,-38.60575 8.6357,-78.46491 6.2586,-76.65478 -2.3545,1.79288 -7.539,44.44124 -12.2558,86.6108 -4.7177,42.17793 -8.9795,83.90737 -8.9795,83.90737 M 399.30354,325.56498 c 0,0 5.68798,-30.72821 4.31866,-57.22806 -0.68627,-13.28108 -2.78276,5.5476 -5.46245,29.17195 -2.68611,23.68089 -5.96587,52.17602 -8.87996,58.51063 -2.90196,6.30826 0.30715,-21.29878 3.80312,-52.04606 3.49926,-30.7761 7.26869,-64.59904 5.78092,-70.8667 -1.47905,-6.2309 -5.18406,27.31445 -9.28345,63.46743 -4.10128,36.16965 -8.5927,74.85614 -11.25898,78.99096 -2.64443,4.10092 1.872,-34.56126 6.50935,-75.40447 4.6396,-40.86293 9.38081,-83.78516 7.6911,-88.30296 -1.67295,-4.47299 -6.37826,38.40706 -11.4819,83.43792 -5.10548,45.04708 -10.59979,92.10833 -13.25417,96.07889 -2.622,3.92213 2.90262,-43.13712 8.45324,-92.03867 5.55179,-48.91195 11.10854,-99.52967 9.27288,-102.77654 -1.80939,-3.2004 -7.36018,47.60839 -13.2874,99.88381 -5.92769,52.27954 -12.22252,105.90233 -14.70282,108.35049 -2.4408,2.40918 3.87677,-51.21427 10.1189,-106.22377 6.24368,-55.02309 12.39155,-111.29329 10.51881,-114.24554 -1.83998,-2.90061 -7.94715,53.23258 -14.44901,110.608 -6.50156,57.37289 -13.38822,115.86554 -15.79635,117.67113 -2.36241,1.7713 4.54415,-56.72676 11.3089,-116.39391 6.76661,-59.68355 13.37135,-120.39617 11.47119,-123.13597 -1.86152,-2.6841 -8.44285,58.04648 -15.4533,119.95365 -7.01008,61.90393 -14.43829,124.84914 -16.84121,126.57813 -2.35016,1.69101 5.09842,-61.26011 12.35623,-125.32179 7.25965,-64.078 14.30715,-129.11537 12.38341,-131.67847 -1.87886,-2.50328 -8.90272,62.55042 -16.39018,128.71179 -7.48693,66.15673 -15.42536,133.27632 -17.81737,134.88162 -2.3322,1.56517 5.63759,-65.65601 13.36232,-133.88893 7.72638,-68.2475 15.18622,-137.35307 13.22743,-139.62958 -1.90717,-2.21652 -9.34438,66.90225 -17.27478,137.01961 -7.92978,70.11194 -16.34026,141.07613 -18.71697,142.52339 -2.31039,1.40687 6.1161,-69.53938 14.24146,-141.34921 8.12648,-71.81979 15.9321,-144.3611 13.92244,-146.19408 -1.95127,-1.77974 -9.73783,70.77657 -18.0382,144.1878 -8.30004,73.40831 -17.10183,147.53272 -19.46892,148.87457 -2.2951,1.30104 6.51346,-72.7393 14.96909,-147.48507 8.45588,-74.74803 16.54201,-150.0799 14.47224,-151.37326 -2.02817,-1.26737 -5.63799,32.46054 -9.14068,64.45463 -3.50173,31.98518 -6.8922,62.23571 -8.14093,53.96902 -1.2435,-8.23203 2.12387,-38.56469 5.23139,-67.09263 3.11109,-28.56062 5.97402,-55.40049 3.94928,-56.81036 -2.01706,-1.40453 -4.93759,25.97035 -7.84111,52.66815 -2.90268,26.68996 -5.78769,52.70834 -7.50103,48.55162 -1.7072,-4.14182 1.1666,-30.17946 3.90941,-55.46689 2.74412,-25.29956 5.36088,-49.87292 3.32146,-51.14687 -2.03286,-1.26984 -4.6286,23.12138 -7.24366,47.26731 -2.61453,24.14096 -5.24827,48.03935 -7.17107,45.75893 -1.91674,-2.27324 0.71151,-26.17908 3.26726,-49.81448 2.55643,-23.64161 5.04145,-47.01957 2.99915,-48.26807 -2.0361,-1.24471 -4.51945,22.13874 -7.02398,45.32693 -2.50407,23.18386 -5.02924,46.17452 -6.97781,44.12257 -1.94287,-2.04594 0.57665,-25.03456 3.0296,-47.77742 2.4535,-22.74799 4.84136,-45.25586 2.78441,-46.36591 -2.05115,-1.10692 -4.43735,21.40328 -6.84265,43.72725 -2.4049,22.32031 -4.82883,44.45629 -6.79744,42.58265 -1.96324,-1.86853 0.45722,-24.01698 2.81302,-45.90988 2.35624,-21.89704 4.64872,-43.54388 2.56816,-44.42991 -2.07511,-0.88371 -4.36731,20.77299 -6.67442,42.23183 -2.3068,21.45591 -4.62843,42.71596 -6.6173,41.02427 -1.98387,-1.68743 0.33093,-22.92384 2.5841,-43.90448 2.25352,-20.98393 4.44623,-41.71693 2.34588,-42.41403 -2.09534,-0.69544 -4.29466,20.10958 -6.51891,40.83379 -2.22405,20.72227 -4.47301,41.36463 -6.53438,40.3342 -2.05645,-1.02798 0.18992,-21.66876 2.39101,-42.19198 2.2013,-20.52524 4.35766,-40.93489 2.24448,-41.51075 -2.10825,-0.57452 -4.26386,19.83677 -6.44252,40.16169 -2.17849,20.32328 -4.38002,40.56116 -6.45247,39.63165 -4.14054,-1.85708 8.67289,-80.9363 4.43246,-81.90636 -2.11787,-0.4845 -4.22909,19.52299 -6.36348,39.45688 -2.13425,19.93254 -4.29167,39.79231 -6.37973,39.00565 -4.17183,-1.5717 8.50205,-79.42565 4.24859,-80.27262 -2.12446,-0.42303 -4.19912,19.25216 -6.29821,38.87473 -2.09897,19.62146 -4.22237,39.19089 -6.32642,38.55083 -4.20381,-1.27883 8.37338,-78.29363 4.10679,-79.0164 -2.13108,-0.36101 -4.17904,19.07331 -6.25265,38.47278 -2.07351,19.39859 -4.17265,38.76274 -6.29131,38.25696 -4.23305,-1.01054 8.27657,-77.445 3.99596,-78.03492 -2.13812,-0.29465 -4.16639,18.96255 -6.22119,38.19803 -2.05473,19.2348 -4.13598,38.44813 -6.26767,38.06227 -4.2591,-0.77094 8.20804,-76.84831 3.91622,-77.33189 -4.29183,-0.48358 -8.17573,76.56465 -12.45261,75.95737 -4.27687,-0.60729 8.16058,-76.43907 3.85915,-76.831425 -4.30144,-0.392355 -8.13637,76.227305 -12.42812,75.757055 -4.29175,-0.47025 8.12649,-76.147547 3.81703,-76.463649 -4.30946,-0.316101 -8.10912,75.996499 -12.41301,75.638239 -4.30389,-0.35825 8.10335,-75.952485 3.78743,-76.207205 -4.31592,-0.25472 -8.08978,75.834695 -12.40689,75.598455 -4.31711,-0.23625 8.09272,-75.869751 3.76795,-76.040327 -4.32476,-0.170577 -8.08532,75.806477 -12.41051,75.644797 -4.32518,-0.16168 8.08571,-75.815007 3.75724,-75.950318 -4.32847,-0.135311 -8.08261,75.790328 -12.41426,75.688358 -4.33181,-0.10197 8.0857,-75.824322 3.75388,-75.926289 -4.33186,-0.10299 -8.08571,75.826019 -12.42236,75.770279 -4.33666,-0.0557 8.09046,-75.872897 3.7555,-75.946533 -4.33495,-0.07364 -8.09234,75.892493 -12.43253,75.869393 -4.34018,-0.0231 8.09754,-75.942655 3.75982,-75.989926 -4.33772,-0.04727 -8.10019,75.968536 -12.44243,75.964426 -4.34224,-0.004 8.10467,-76.011321 3.7645,-76.035234 -4.34017,-0.02391 -8.10692,76.032834 -12.44974,76.034014 -4.34281,0.001 8.10883,-76.05094 3.76791,-76.067733 -2.02133,-0.0078 -18.57465,156.181013 -37.02567,312.373663 -18.450939,156.19208 -38.799386,312.38626 -41.119961,312.38626 -2.022124,0 18.326367,-156.19422 36.777751,-312.39027 18.45145,-156.19656 35.00559,-312.393441 32.68583,-312.40129 -2.02141,-0.0068 -18.5754,156.19004 -37.02721,312.39027 -18.451749,156.19973 -38.801154,312.40129 -41.121742,312.40129 -2.022109,0 18.327328,-156.20156 36.779452,-312.40466 18.45218,-156.20354 35.00687,-312.40734 32.68697,-312.413965 -1.09896,-0.0031 -5.79642,40.073485 -12.57687,99.676535 -7.4935,65.87108 -14.9561,132.46474 -24.937278,216.83584 -9.465897,80.01539 -18.54584,153.26737 -26.125463,210.6766 -7.34716,55.64851 -12.348628,89.26265 -12.361591,81.19882 C 59.573516,690.56109 79.461253,535.54784 96.645224,389.01082 114.00004,241.01694 129.19954,97.130275 126.9158,97.124868 124.88512,97.120059 109.61324,240.95778 93.293455,380.54793 77.047895,519.50321 59.571573,656.11354 59.571573,638.47959 59.571573,622.69321 76.872997,484.9259 91.918558,355.0465 107.10466,223.9539 120.48917,97.110607 118.23238,97.106275 116.17211,97.10232 102.71701,223.9472 88.570658,346.44571 74.475189,468.50363 59.571857,587.53568 59.571857,569.7031 c 0,-16.42963 14.747118,-136.50604 27.654776,-249.34753 C 100.24441,206.55142 111.78175,97.094776 109.54857,97.091402 107.46162,97.08825 95.861869,206.54671 83.889229,311.553 71.947479,416.28836 59.572168,517.38353 59.572168,499.29921 c 0,-17.08258 12.239143,-119.09807 23.006167,-214.46794 C 93.427887,188.7304 103.0773,97.082434 100.86441,97.079908 98.753892,97.077499 89.050871,188.72756 79.252232,275.81168 69.468107,362.76682 59.572511,445.54256 59.572511,427.14659 c 0,-17.74654 9.781006,-101.30547 18.4045,-178.73654 C 86.658476,170.45845 94.3761,97.073231 92.179925,97.071448 90.049197,97.069718 82.287453,170.45734 74.663126,239.15624 67.040847,307.83667 59.572891,371.88356 59.572891,353.10805 c 0,-18.42315 7.376682,-83.10102 13.853568,-142.08814 6.513552,-59.32105 12.252034,-113.953092 10.068701,-113.95423 -2.147328,-0.0011 -7.919651,54.6337 -13.369333,104.44664 -5.455845,49.86928 -10.552511,94.74758 -10.552511,75.51515 0,-19.11447 5.030693,-64.4541 9.35769,-104.44875 4.345854,-40.16896 8.053847,-75.515872 5.879142,-75.516461 -2.160016,-5.85e-4 -5.890669,35.349541 -9.165338,65.732711 -3.2844,30.47346 -6.071018,55.70907 -6.071018,35.93094 0,-39.73687 10.893791,-101.664806 6.551133,-101.665067 -2.168449,-1.3e-4 -3.800456,15.485667 -4.899704,25.845577 -1.107447,10.43717 -1.650892,15.51665 -1.650892,-4.90978 0,-41.007399 0.03657,-20.935793 0.03657,-20.935793 M 317.28392,321.27386 c 0,0 -2.86498,29.78472 -6.37953,59.84011 -3.51483,30.0578 -7.67331,60.37601 -9.97989,61.45683 -2.29504,1.07541 1.02621,-26.75025 4.21833,-53.97521 3.19127,-27.21777 6.25539,-53.84203 3.67646,-50.32785 -2.56904,3.50071 -5.64427,30.1202 -8.69117,56.05351 -3.04809,25.94348 -6.06941,51.22237 -8.34861,52.09269 -2.27113,0.86724 0.77505,-24.61607 3.72322,-49.68755 2.9476,-25.06655 5.79849,-49.72643 3.3308,-47.18772 -2.45944,2.53022 -5.31823,27.19158 -8.16781,51.38835 -2.85032,24.20308 -5.69221,47.95364 -7.95558,48.69381 -2.25627,0.73785 0.5865,-23.01554 3.34402,-46.41163 2.75709,-23.39235 5.42998,-46.43153 3.00262,-44.24655 -2.42026,2.17858 -5.09945,25.21854 -7.77166,47.86162 -2.67276,22.64778 -5.33907,44.9076 -7.59033,45.54944 -2.24515,0.64011 0.40791,-21.50373 3.00241,-43.47223 2.59422,-21.96604 5.1304,-43.75887 2.79898,-42.40448 -2.32523,1.35078 -4.86488,23.14317 -7.41607,44.727 -2.5515,21.58655 -5.11474,42.96849 -7.35411,43.51197 -2.23364,0.54209 0.33547,-20.88276 2.85507,-42.18943 2.51938,-21.30481 4.9896,-42.49288 2.69635,-41.46793 -2.28747,1.02237 -4.76028,22.21075 -7.2508,43.25814 -2.49076,21.04938 -4.99936,41.96023 -7.23072,42.43755 -2.2259,0.47614 0.28356,-20.43623 2.74725,-41.24803 2.4635,-20.81025 4.8815,-41.52113 2.60427,-40.63422 -2.27174,0.88477 -4.69192,21.59583 -7.13063,42.1853 -2.4389,20.59111 -4.89641,41.06261 -7.12007,41.4765 -2.21846,0.41293 0.23783,-20.04331 2.65341,-40.42996 2.41543,-20.3854 4.79034,-40.70206 2.53507,-40.00378 -2.25004,0.69666 -4.62661,21.01337 -7.02358,41.23424 -2.39713,20.22211 -4.81472,40.34984 -7.02762,40.67474 -2.20788,0.32417 0.21019,-19.80363 2.59083,-39.88106 2.38054,-20.0765 4.72378,-40.10325 2.48803,-39.57233 -2.2307,0.52972 -4.57516,20.55634 -6.94187,40.50964 -2.36682,19.9542 -4.75591,39.83617 -6.95915,40.0811 -2.19835,0.2444 0.1911,-19.6375 2.54642,-39.49065 2.35525,-19.85249 4.67644,-39.67659 2.46027,-39.31329 -4.4276,0.72581 -9.40813,79.29238 -13.7914,79.62965 -2.18924,0.16845 0.18437,-19.57646 2.52365,-39.28726 2.33922,-19.71028 4.64421,-39.38687 2.43457,-39.07924 -4.41463,0.61463 -9.3414,78.703 -13.70717,78.89482 -2.18053,0.0958 0.17242,-19.47412 2.49162,-39.01011 2.31916,-19.53564 4.60465,-39.03777 2.40374,-38.80464 -4.39722,0.46577 -9.25828,77.98289 -13.61294,78.08232 -4.35465,0.0994 9.21574,-77.61678 4.83568,-77.29765 -4.38006,0.31913 -9.1902,77.39599 -13.54024,77.45715 -4.35005,0.0612 9.16019,-77.13815 4.79713,-76.96422 -4.36306,0.17393 -9.14705,77.0243 -13.49355,77.05594 -4.34644,0.0317 9.13081,-76.88428 4.78436,-76.85264 -4.34613,0.0294 -9.13072,76.88321 -13.47471,76.894 -4.34398,0.0108 9.12914,-76.86935 4.78191,-76.83052 -4.34724,0.0388 -9.12576,76.84024 -13.46827,76.83878 -4.34251,-0.001 9.12098,-76.79953 4.77386,-76.7617 -4.34711,0.0378 -9.11624,76.75917 -13.45831,76.75404 -4.34207,-0.005 9.11115,-76.71578 4.76455,-76.68238 -2.17006,0.0167 -4.17263,17.05766 -5.64725,29.51271 -1.48177,12.51546 -2.40792,20.26388 -2.40792,1.99748 0,-36.65358 1.53568,-31.46361 1.53568,-31.46361 m -15.61415,335.52073 c 0,0 1.07661,8.50815 1.07661,-24.8484 0,-33.35654 -3.24796,24.8484 -7.59064,24.8484 -4.34269,0 7.59091,-58.19884 7.59091,-92.2963 0,-17.1041 -2.93096,6.08072 -6.44365,33.3616 -3.51983,27.33626 -7.65239,58.9347 -9.83263,58.9347 -2.16865,0 1.98134,-31.59673 6.5983,-67.55472 4.63211,-36.07597 9.67826,-76.15926 9.67826,-93.72226 0,-17.48535 -4.99268,22.91455 -10.67543,67.55472 -5.68788,44.6805 -12.09587,93.72226 -14.2865,93.72226 -2.16191,0 4.27386,-49.03984 11.06561,-102.54725 6.82207,-53.74625 13.89664,-111.24356 13.89664,-129.35271 0,-17.8668 -6.99581,40.10117 -14.85195,102.54725 -7.85569,62.44257 -16.59045,129.35271 -18.79568,129.35271 -2.12831,0 8.83527,-83.87132 19.25158,-167.74089 10.4163,-83.86943 20.28541,-167.73752 18.07021,-167.73038 -2.12911,0.007 -11.99829,83.87497 -22.4142,167.74089 -10.41592,83.86607 -21.3786,167.73038 -23.59296,167.73038 -2.136345,0 9.03136,-85.23379 20.17352,-175.17342 11.21689,-90.54286 22.16021,-183.9819 22.16021,-203.40852 0,-18.63303 -10.80788,75.63172 -23.02171,175.17342 -12.19047,99.35134 -25.749019,203.40852 -27.997388,203.40852 -2.116907,0 11.505548,-104.05435 24.823408,-212.94892 13.42265,-109.75141 26.19612,-221.77256 26.19612,-241.99031 0,-19.01989 -12.60607,94.03284 -27.00472,212.94892 -14.35735,118.57504 -30.422449,241.99031 -32.70018,241.99031 -2.070502,0 14.135871,-128.39882 29.60297,-256.79763 15.46853,-128.41079 30.09407,-256.79764 30.09407,-256.79764 m 12.84718,229.15163 c 0,0 -0.88173,25.55289 -5.2332,25.55004 -4.34234,-0.003 6.55895,-54.97872 3.90963,-69.39492 -1.32515,-7.21075 -3.90018,10.1439 -6.17296,29.2926 -2.27306,19.15095 -4.25099,40.10474 -4.25099,40.10474 m 692.44337,227.28505 c 0,0 -1.94148,31.60613 -6.29813,31.60613 -4.34269,0 7.66033,-58.90133 4.9376,-71.53434 -1.36157,-6.31743 -3.64959,11.56801 -6.17054,31.02979 -2.52107,19.46271 -5.27767,40.50455 -7.45243,40.50455 -4.34269,0 10.08942,-77.85084 5.74674,-77.85084 -4.34269,0 -10.08943,77.85084 -14.43212,77.85084 0.0424,0 5.78911,-77.85084 5.74675,-77.85084 0.0424,0 -14.38975,77.85084 -14.43212,77.85084 -4.34268,0 10.08943,-77.85084 5.74675,-77.85084 -4.34269,0 -10.08943,77.85084 -14.43212,77.85084 -4.34268,0 10.08943,-77.85084 5.74674,-77.85084 -4.34268,0 -10.08942,77.85084 -14.43211,77.85084 -4.34269,0 10.08943,-77.85084 5.74674,-77.85084 -4.34268,0 -10.08943,77.85084 -14.43211,77.85084 0.0424,0 5.78911,-77.85084 5.74674,-77.85084 -4.34268,0 -10.08943,77.85084 -14.43211,77.85084 -4.34269,0 10.08943,-77.85084 5.74674,-77.85084 -4.34268,0 -10.08943,77.85084 -14.43211,77.85084 -4.34269,0 10.08943,-77.85084 5.74674,-77.85084 -4.34269,0 -10.08943,77.85084 -14.43212,77.85084 -4.34268,0 10.08943,-77.85084 5.74675,-77.85084 -4.34269,0 -10.08943,77.85084 -14.43212,77.85084 -4.34268,0 10.08943,-77.85084 5.74675,-77.85084 -4.34269,0 -10.08943,77.85084 -14.43212,77.85084 0.0424,0 5.78911,-77.85084 5.74675,-77.85084 -4.34269,0 -10.08943,77.85084 -14.43212,77.85084 -4.34269,0 10.08943,-77.85084 5.74674,-77.85084 0.0424,0 -14.38974,77.85084 -14.43211,77.85084 -4.34269,0 10.08943,-77.85084 5.74674,-77.85084 0.0424,0 -14.38974,77.85084 -14.43211,77.85084 0.0424,0 5.78911,-77.85084 5.74674,-77.85084 0.0424,0 -14.38975,77.85084 -14.43211,77.85084 0.0424,0 5.78911,-77.85084 5.74674,-77.85084 0.0424,0 -14.38975,77.85084 -14.43211,77.85084 0.0424,0 5.78911,-77.85084 5.74674,-77.85084 0.0424,0 -14.38975,77.85084 -14.43212,77.85084 0.0424,0 5.78911,-77.85084 5.74675,-77.85084 0.0424,0 -14.38975,77.85084 -14.43212,77.85084 0.0424,0 5.78911,-77.85084 5.74675,-77.85084 0.0424,0 -14.38975,77.85084 -14.43212,77.85084 0.0424,0 5.78911,-77.85084 5.74674,-77.85084 0.0424,0 -14.38974,77.85084 -14.43211,77.85084 0.0424,0 5.78911,-77.85084 5.74674,-77.85084 -4.34268,0 -10.08943,77.85084 -14.43211,77.85084 0.0424,0 5.78911,-77.85084 5.74674,-77.85084 -4.34268,0 -10.08943,77.85084 -14.43211,77.85084 0.0424,0 5.78911,-77.85084 5.74674,-77.85084 -4.34269,0 -10.08943,77.85084 -14.43211,77.85084 -4.34269,0 10.08942,-77.85084 5.74674,-77.85084 -4.34269,0 -10.08943,77.85084 -14.43212,77.85084 -4.34268,0 10.08943,-77.85084 5.74675,-77.85084 -4.34269,0 -10.08943,77.85084 -14.43212,77.85084 -4.34268,0 10.08943,-77.85084 5.74675,-77.85084 -4.34269,0 -10.08943,77.85084 -14.43212,77.85084 -4.34268,0 10.08943,-77.85084 5.74675,-77.85084 -4.34269,0 -10.08943,77.85084 -14.43212,77.85084 -4.34269,0 10.08943,-77.85084 5.74674,-77.85084 0.0424,0 -14.38974,77.85084 -14.43211,77.85084 0.0424,0 5.78911,-77.85084 5.74674,-77.85084 -4.34268,0 -10.08943,77.85084 -14.43211,77.85084 -4.34269,0 10.08943,-77.85084 5.74674,-77.85084 -4.34268,0 -10.08943,77.85084 -14.43211,77.85084 -4.34269,0 11.30383,-87.16081 11.30383,-121.59042 0,-17.26709 -3.81921,13.23508 -8.25916,47.88411 -4.44664,34.7013 -9.54586,73.70631 -11.73005,73.70631 -2.16623,0 2.95475,-39.00321 8.50136,-82.41219 5.5677,-43.57409 11.48815,-91.05864 11.48815,-108.84681 0,-17.64836 -5.85639,30.21696 -12.4678,82.41219 -6.6146,52.22052 -14.01074,108.84681 -16.20708,108.84681 -2.15784,0 5.27073,-56.62426 12.99224,-117.76399 7.75968,-61.44198 15.68297,-126.49266 15.68297,-144.85676 0,-18.03006 -7.83314,47.56157 -16.61943,117.76399 -8.78231,70.17065 -18.52833,144.85676 -20.74115,144.85676 -2.11577,0 10.33736,-95.31738 22.08393,-190.63476 11.74657,-95.31738 22.78658,-190.63476 20.55967,-190.63476 -2.11577,0 -13.15578,95.31738 -24.90235,190.63476 -11.74657,95.31738 -24.1997,190.63476 -26.42662,190.63476 -2.12861,0 10.08072,-93.2163 22.15291,-191.19452 12.15907,-98.68345 23.89381,-200.01309 23.89381,-219.76597 0,-18.79797 -11.58597,83.4428 -24.73325,191.19451 -13.11681,107.50204 -27.7386,219.76598 -29.99884,219.76598 -2.10712,0 12.58448,-112.26093 26.83252,-229.42316 14.36744,-118.14408 27.90002,-238.24389 27.90002,-258.83094 0,-19.18652 -13.35065,102.03967 -28.68458,229.42316 -15.28352,126.96482 -32.4413,258.83094 -34.73333,258.83094 -2.02206,0 18.33057,-156.22632 36.78512,-312.45265 18.45455,-156.22632 35.01103,-312.45265 32.6904,-312.45265 -2.02205,0 -18.57853,156.22633 -37.03309,312.45265 -18.45455,156.22633 -38.80717,312.45265 -41.1278,312.45265 -2.02206,0 18.33057,-156.22632 36.78512,-312.45265 18.45455,-156.22632 35.01103,-312.45265 32.6904,-312.45265 -2.02205,0 -18.57853,156.22633 -37.03309,312.45265 -18.45455,156.22633 -38.80718,312.45265 -41.1278,312.45265 -2.02206,0 18.33056,-156.22632 36.78512,-312.45265 18.45455,-156.22632 35.01103,-312.45265 32.6904,-312.45265 -1.09808,0 -5.61678,38.33033 -12.09911,95.30118 -7.2385,63.61653 -14.19522,125.93655 -23.75397,207.14434 -8.98395,76.32456 -17.59955,146.3125 -24.75876,200.84872 -6.94676,52.91779 -11.66063,84.66445 -11.66063,76.41431 0,-15.42545 18.77024,-163.07834 35.02757,-302.44552 16.41632,-140.73006 30.83161,-277.26303 28.55953,-277.26303 -2.04428,0 -16.53466,136.53455 -31.91388,268.77752 -15.31553,131.6953 -31.67295,260.74201 -31.67295,243.02801 0,-16.06382 16.19045,-146.22024 30.3109,-268.77752 14.24749,-123.6598 26.83714,-243.02801 24.59056,-243.02801 -2.07256,0 -14.7294,119.36998 -27.93466,234.34719 -13.16348,114.61346 -26.96651,225.9254 -26.96651,207.99057 0,-16.71122 13.65531,-129.01541 25.63634,-234.3472 12.07884,-106.19166 22.80374,-207.99056 20.57946,-207.99056 -2.09785,0 -12.88147,101.80089 -23.91257,199.1003 -11.00778,97.0937 -22.3029,190.30309 -22.3029,172.09148 0,-17.36882 11.1681,-111.44091 21.00698,-199.10031 9.91039,-88.29647 18.72854,-172.09147 16.52312,-172.09147 -2.11992,0 -10.98768,83.79726 -19.84441,162.97585 -8.84812,79.10165 -17.68533,153.81548 -17.68533,135.26388 0,-18.03808 8.73249,-93.47117 16.42633,-162.97586 7.74217,-69.94126 14.60831,-135.26387 12.41803,-135.26387 -2.13853,0 -9.04445,65.32518 -15.72655,125.90485 -6.68416,60.59832 -13.11741,116.39519 -13.11741,97.43178 0,-18.7208 6.35268,-75.07745 11.89838,-125.90485 5.57421,-51.08865 10.43936,-97.43178 8.26021,-97.43178 -2.15341,0 -7.04769,46.3461 -11.55489,87.80877 -4.5155,41.53909 -8.60326,77.96551 -8.60326,58.50824 0,-19.41927 4.03344,-56.22736 7.42769,-87.80877 3.40653,-31.69583 6.2175,-58.50824 4.04509,-58.50824 -2.16425,0 -4.99272,26.81584 -7.32468,48.59758 -2.34168,21.87256 -4.1476,38.43856 -4.1476,18.39298 0,-40.27281 7.1296,-66.99056 2.78691,-66.99056 -4.34219,0 -2.79541,5.93522 -2.79541,5.93522 M 829.3215,399.54469 c 0,0 -0.0619,18.9516 -4.40965,18.9516 -4.34268,0 5.32765,-45.23633 3.49659,-66.94522 -0.91671,-10.86845 -2.84627,5.89587 -5.11558,25.33178 -2.27094,19.44991 -4.89077,41.61344 -7.06638,41.61344 0.0423,0 4.79225,-77.79966 4.74994,-77.79966 0.0423,0 -13.393,77.79966 -13.43531,77.79966 -4.34269,0 9.09262,-77.79966 4.74993,-77.79966 0.0423,0 -13.39299,77.79966 -13.4353,77.79966 0.0423,0 4.79224,-77.79966 4.74993,-77.79966 -4.34268,0 -9.09262,77.79966 -13.4353,77.79966 0.0423,0 4.79224,-77.79966 4.74993,-77.79966 0.0423,0 -13.39299,77.79966 -13.4353,77.79966 0.0423,0 4.79224,-77.79966 4.74993,-77.79966 0.0423,0 -13.39299,77.79966 -13.43531,77.79966 0.0423,0 4.79225,-77.79966 4.74994,-77.79966 -4.34269,0 -9.09262,77.79966 -13.43531,77.79966 0.0423,0 4.79225,-77.79966 4.74994,-77.79966 -4.34269,0 -9.09262,77.79966 -13.43531,77.79966 0.0423,0 4.79225,-77.79966 4.74994,-77.79966 -4.34269,0 -9.09262,77.79966 -13.43531,77.79966 0.0423,0 4.79225,-77.79966 4.74994,-77.79966 -4.34269,0 -9.09263,77.79966 -13.43531,77.79966 0.0423,0 4.79225,-77.79966 4.74993,-77.79966 -4.34268,0 -9.09262,77.79966 -13.4353,77.79966 -4.34269,0 9.09262,-77.79966 4.74993,-77.79966 -4.34268,0 -9.09262,77.79966 -13.4353,77.79966 0.0423,0 4.79224,-77.79966 4.74993,-77.79966 0.0423,0 -13.39299,77.79966 -13.4353,77.79966 -4.34269,0 9.09262,-77.79966 4.74993,-77.79966 -4.34269,0 -9.09262,77.79966 -13.43531,77.79966 -4.34268,0 9.09262,-77.79966 4.74994,-77.79966 0.0423,0 -13.393,77.79966 -13.43531,77.79966 -4.34268,0 9.09262,-77.79966 4.74994,-77.79966 0.0423,0 -13.393,77.79966 -13.43531,77.79966 0.0423,0 4.79225,-77.79966 4.74994,-77.79966 0.0423,0 -13.393,77.79966 -13.43531,77.79966 0.0423,0 4.79225,-77.79966 4.74993,-77.79966 0.0423,0 -13.39299,77.79966 -13.4353,77.79966 0.0423,0 4.79224,-77.79966 4.74993,-77.79966 0.0423,0 -13.39299,77.79966 -13.4353,77.79966 -4.34269,0 9.09262,-77.79966 4.74993,-77.79966 0.0423,0 -13.39299,77.79966 -13.4353,77.79966 -4.34269,0 9.09262,-77.79966 4.74993,-77.79966 -4.34269,0 -9.09262,77.79966 -13.43531,77.79966 0.0423,0 4.79225,-77.79966 4.74994,-77.79966 0.0423,0 -13.393,77.79966 -13.43531,77.79966 -4.34268,0 9.09262,-77.79966 4.74994,-77.79966 0.0423,0 -13.393,77.79966 -13.43531,77.79966 0.0423,0 4.79225,-77.79966 4.74994,-77.79966 -4.34269,0 -9.09262,77.79966 -13.43531,77.79966 0.0423,0 4.79225,-77.79966 4.74993,-77.79966 -4.34268,0 -9.09262,77.79966 -13.4353,77.79966 -4.34269,0 9.09262,-77.79966 4.74993,-77.79966 0.0423,0 -13.39299,77.79966 -13.4353,77.79966 0.0423,0 4.79224,-77.79966 4.74993,-77.79966 -4.34268,0 -9.09262,77.79966 -13.4353,77.79966 0.0423,0 4.79224,-77.79966 4.74993,-77.79966 -4.25806,0 -11.26396,77.79966 -11.26396,77.79966 M 832.99117,174.9117 c 0,0 3.76082,-14.3932 3.76082,-55.37561 0,-20.582564 -1.47008,-6.55594 -3.47995,12.3194 -2.0196,18.96671 -4.6176,43.05621 -6.7949,43.05621 -4.34269,0 8.30315,-77.85085 3.96046,-77.85085 -4.34268,0 -8.30315,77.85085 -12.64583,77.85085 0.0424,0 4.00283,-77.85085 3.96046,-77.85085 0.0424,0 -12.60347,77.85085 -12.64584,77.85085 -4.34268,0 8.30315,-77.85085 3.96047,-77.85085 -4.34269,0 -8.30315,77.85085 -12.64584,77.85085 -4.34268,0 8.30315,-77.85085 3.96047,-77.85085 0.0424,0 -12.60347,77.85085 -12.64584,77.85085 0.0424,0 4.00283,-77.85085 3.96047,-77.85085 -4.34269,0 -8.30315,77.85085 -12.64584,77.85085 0.0424,0 4.00283,-77.85085 3.96046,-77.85085 -4.34268,0 -8.30315,77.85085 -12.64583,77.85085 0.0424,0 4.00283,-77.85085 3.96046,-77.85085 -4.34268,0 -8.30315,77.85085 -12.64583,77.85085 -4.34269,0 8.30315,-77.85085 3.96046,-77.85085 0.0424,0 -12.60347,77.85085 -12.64583,77.85085 -4.34269,0 8.30315,-77.85085 3.96046,-77.85085 -4.34268,0 -8.30315,77.85085 -12.64584,77.85085 -4.34268,0 8.30316,-77.85085 3.96047,-77.85085 0.0424,0 -12.60347,77.85085 -12.64584,77.85085 0.0424,0 4.00284,-77.85085 3.96047,-77.85085 -4.34269,0 -8.30315,77.85085 -12.64584,77.85085 -4.34268,0 8.30315,-77.85085 3.96047,-77.85085 -4.34269,0 -8.30315,77.85085 -12.64584,77.85085 -4.34268,0 8.30315,-77.85085 3.96047,-77.85085 0.0424,0 -12.60347,77.85085 -12.64584,77.85085 0.0424,0 4.00283,-77.85085 3.96046,-77.85085 0.0424,0 -12.60346,77.85085 -12.64583,77.85085 -4.34269,0 8.30315,-77.85085 3.96046,-77.85085 -4.34268,0 -8.30315,77.85085 -12.64583,77.85085 0.0424,0 4.00283,-77.85085 3.96046,-77.85085 -4.34268,0 -8.30315,77.85085 -12.64583,77.85085 -4.34269,0 8.30315,-77.85085 3.96046,-77.85085 -4.34269,0 -8.30315,77.85085 -12.64584,77.85085 -4.34268,0 8.30315,-77.85085 3.96047,-77.85085 -4.34269,0 -8.30315,77.85085 -12.64584,77.85085 0.0424,0 4.00283,-77.85085 3.96047,-77.85085 -4.34269,0 -8.30315,77.85085 -12.64584,77.85085 -4.34268,0 8.30315,-77.85085 3.96047,-77.85085 -4.34269,0 -8.30315,77.85085 -12.64584,77.85085 -4.34269,0 8.30315,-77.85085 3.96046,-77.85085 -4.34268,0 -8.30315,77.85085 -12.64583,77.85085 0.0424,0 4.00283,-77.85085 3.96046,-77.85085 0.0424,0 -12.60347,77.85085 -12.64583,77.85085 0.0424,0 4.00283,-77.85085 3.96046,-77.85085 0.0424,0 -12.60347,77.85085 -12.64583,77.85085 -4.34269,0 8.30315,-77.85085 3.96046,-77.85085 -4.34269,0 -8.30315,77.85085 -12.64584,77.85085 0.0424,0 4.00284,-77.85085 3.96047,-77.85085 0.0424,0 -12.60347,77.85085 -12.64584,77.85085 -4.34268,0 8.30315,-77.85085 3.96047,-77.85085 0.0424,0 -12.60347,77.85085 -12.64584,77.85085 0.0424,0 4.00283,-77.85085 3.96047,-77.85085 0.0424,0 -12.60347,77.85085 -12.64584,77.85085 -4.34269,0 8.30315,-77.85085 3.96046,-77.85085 -4.25795,0 -10.47449,77.85085 -10.47449,77.85085 M 2452.4381,721.96615 c 0,0 4.1305,-14.78327 4.1306,-48.39564 1e-4,-16.85721 -1.5646,-4.65624 -3.672,11.59318 -2.114,16.30046 -4.797,36.80246 -6.9726,36.80246 -4.3427,0 10.0894,-77.85084 5.7468,-77.85084 -4.3427,0 -10.0895,77.85084 -14.4322,77.85084 0.042,0 5.7892,-77.85084 5.7468,-77.85084 0.042,0 -14.3898,77.85084 -14.4321,77.85084 0.042,0 5.7891,-77.85084 5.7467,-77.85084 0.042,0 -14.3897,77.85084 -14.4321,77.85084 -4.3427,0 10.0894,-77.85084 5.7467,-77.85084 0.042,0 -14.3897,77.85084 -14.4321,77.85084 0.042,0 5.7891,-77.85084 5.7468,-77.85084 -4.3427,0 -10.0895,77.85084 -14.4321,77.85084 0.042,0 5.7891,-77.85084 5.7467,-77.85084 -4.3427,0 -10.0894,77.85084 -14.4321,77.85084 0.042,0 5.7891,-77.85084 5.7467,-77.85084 -4.3427,0 -10.0894,77.85084 -14.4321,77.85084 0.042,0 5.7891,-77.85084 5.7468,-77.85084 -4.3427,0 -10.0895,77.85084 -14.4322,77.85084 0.042,0 5.7892,-77.85084 5.7468,-77.85084 -4.3427,0 -10.0894,77.85084 -14.4321,77.85084 -4.3427,0 10.0894,-77.85084 5.7467,-77.85084 -4.3427,0 -10.0894,77.85084 -14.4321,77.85084 0.042,0 5.7891,-77.85084 5.7467,-77.85084 0.042,0 -14.3897,77.85084 -14.4321,77.85084 -4.3427,0 10.0895,-77.85084 5.7468,-77.85084 0.042,0 -14.3898,77.85084 -14.4321,77.85084 -4.3427,0 10.0894,-77.85084 5.7467,-77.85084 0.042,0 -14.3897,77.85084 -14.4321,77.85084 0.042,0 5.7891,-77.85084 5.7467,-77.85084 -4.3427,0 -10.0894,77.85084 -14.4321,77.85084 -4.3427,0 10.0894,-77.85084 5.7468,-77.85084 0.042,0 -14.3898,77.85084 -14.4322,77.85084 0.042,0 5.7892,-77.85084 5.7468,-77.85084 -4.3427,0 -10.0894,77.85084 -14.4321,77.85084 0.042,0 5.7891,-77.85084 5.7467,-77.85084 0.042,0 -14.3897,77.85084 -14.4321,77.85084 0.042,0 5.7891,-77.85084 5.7467,-77.85084 -4.3426,0 -10.0894,77.85084 -14.4321,77.85084 -4.3427,0 10.0895,-77.85084 5.7468,-77.85084 -4.3427,0 -10.0895,77.85084 -14.4321,77.85084 -4.3427,0 10.0894,-77.85084 5.7467,-77.85084 -4.3427,0 -10.0894,77.85084 -14.4321,77.85084 -4.3427,0 10.0894,-77.85084 5.7467,-77.85084 0.042,0 -14.3897,77.85084 -14.4321,77.85084 -4.3427,0 10.0894,-77.85084 5.7468,-77.85084 0.042,0 -14.3898,77.85084 -14.4322,77.85084 -4.3426,0 10.0895,-77.85084 5.7468,-77.85084 0.042,0 -14.3898,77.85084 -14.4321,77.85084 0.042,0 5.7891,-77.85084 5.7467,-77.85084 -4.3427,0 -10.0894,77.85084 -14.4321,77.85084 -4.3427,0 10.0894,-77.85084 5.7467,-77.85084 -4.3426,0 -10.0894,77.85084 -14.4321,77.85084 -4.3427,0 10.0895,-77.85084 5.7468,-77.85084 0.042,0 -14.3898,77.85084 -14.4321,77.85084 0.042,0 5.7891,-77.85084 5.7467,-77.85084 -4.3427,0 -10.0894,77.85084 -14.4321,77.85084 0.042,0 5.7891,-77.85084 5.7467,-77.85084 0.042,0 -14.3897,77.85084 -14.4321,77.85084 0.042,0 5.7891,-77.85084 5.7468,-77.85084 -4.3427,0 -10.0895,77.85084 -14.4322,77.85084 -4.3426,0 8.4044,-64.59668 7.4392,-91.105 -0.4835,-13.27853 -3.3753,9.54646 -6.7353,35.61188 -3.3631,26.08979 -7.2105,55.49312 -9.3892,55.49312 -2.169,0 1.8166,-30.34333 6.2753,-65.04048 4.473,-34.80775 9.3693,-73.63749 9.3693,-91.16335 0,-17.45761 -4.8446,21.67806 -10.3694,65.04047 -5.5301,43.40478 -11.7709,91.16336 -13.9606,91.16336 -2.1625,0 4.1052,-47.75668 10.7387,-99.97294 6.6626,-52.44503 13.5916,-108.66332 13.5916,-126.7304 0,-17.83902 -6.8522,38.83824 -14.55,99.97294 -7.698,61.13541 -16.2617,126.7304 -18.4657,126.7304 -2.1412,0 6.4939,-70.16628 15.289,-140.33256 8.7955,-70.16999 17.72,-140.33255 17.72,-140.33255 m 245.9038,-22.80475 c 0,0 2.2434,-0.36465 2.2434,-37.50359 0,-18.63406 -1.1015,-9.12898 -2.736,4.82469 -1.642,14.01827 -3.8464,32.6789 -6.0215,32.6789 0.042,0 4.7923,-77.79966 4.75,-77.79966 -4.3427,0 -9.0927,77.79966 -13.4353,77.79966 -4.3427,0 9.0926,-77.79966 4.7499,-77.79966 -4.3427,0 -9.0926,77.79966 -13.4353,77.79966 0.042,0 4.7922,-77.79966 4.7499,-77.79966 0.042,0 -13.393,77.79966 -13.4353,77.79966 -4.3427,0 9.0926,-77.79966 4.7499,-77.79966 -4.3426,0 -9.0926,77.79966 -13.4353,77.79966 0.042,0 4.7923,-77.79966 4.75,-77.79966 -4.3427,0 -9.0926,77.79966 -13.4353,77.79966 -4.3427,0 9.0926,-77.79966 4.7499,-77.79966 0.042,0 -13.393,77.79966 -13.4353,77.79966 0.042,0 4.7922,-77.79966 4.7499,-77.79966 0.042,0 -13.393,77.79966 -13.4353,77.79966 -4.3427,0 9.0926,-77.79966 4.75,-77.79966 -4.3427,0 -9.0927,77.79966 -13.4353,77.79966 0.042,0 4.7922,-77.79966 4.7499,-77.79966 -4.3427,0 -9.0926,77.79966 -13.4353,77.79966 -4.3427,0 9.0926,-77.79966 4.7499,-77.79966 -4.3427,0 -9.0926,77.79966 -13.4353,77.79966 0.042,0 4.7923,-77.79966 4.7499,-77.79966 -4.3426,0 -9.0926,77.79966 -13.4353,77.79966 0.042,0 4.7923,-77.79966 4.75,-77.79966 -4.3427,0 -9.0926,77.79966 -13.4353,77.79966 0.042,0 4.7922,-77.79966 4.7499,-77.79966 -4.3427,0 -9.0926,77.79966 -13.4353,77.79966 0.042,0 4.7922,-77.79966 4.7499,-77.79966 -4.3427,0 -9.0926,77.79966 -13.4353,77.79966 0.042,0 4.7923,-77.79966 4.75,-77.79966 -4.3427,0 -9.0927,77.79966 -13.4353,77.79966 -4.3427,0 9.0926,-77.79966 4.7499,-77.79966 -4.3427,0 -9.0926,77.79966 -13.4353,77.79966 0.042,0 4.7922,-77.79966 4.7499,-77.79966 -4.3427,0 -9.0926,77.79966 -13.4353,77.79966 -4.3427,0 9.0926,-77.79966 4.7499,-77.79966 -4.3426,0 -9.0926,77.79966 -13.4353,77.79966 -4.3426,0 9.0927,-77.79966 4.75,-77.79966 -4.3427,0 -9.0926,77.79966 -13.4353,77.79966 -4.3427,0 9.0926,-77.79966 4.7499,-77.79966 0.042,0 -13.393,77.79966 -13.4353,77.79966 -4.3427,0 9.0926,-77.79966 4.7499,-77.79966 0.042,0 -13.393,77.79966 -13.4353,77.79966 0.042,0 4.7923,-77.79966 4.75,-77.79966 -4.3427,0 -9.0927,77.79966 -13.4353,77.79966 -4.3427,0 9.0926,-77.79966 4.7499,-77.79966 0.042,0 -13.393,77.79966 -13.4353,77.79966 -4.3427,0 9.0926,-77.79966 4.7499,-77.79966 0.042,0 -13.393,77.79966 -13.4353,77.79966 -4.3427,0 9.0926,-77.79966 4.7499,-77.79966 0.042,0 -13.3929,77.79966 -13.4353,77.79966 0.042,0 4.7923,-77.79966 4.75,-77.79966 -4.3427,0 -9.0926,77.79966 -13.4353,77.79966 0.042,0 4.7922,-77.79966 4.7499,-77.79966 -4.3427,0 -9.0926,77.79966 -13.4353,77.79966 0.042,0 4.7922,-77.79966 4.7499,-77.79966 -2.1157,0 -13.1557,95.31738 -24.9023,190.63476 -11.7466,95.31738 -24.1997,190.63476 -26.4266,190.63476 -2.1202,0 10.1683,-93.98924 21.9202,-189.30662 11.7708,-95.47104 22.9404,-191.80924 21.335,-197.27547 -1.5256,-5.19432 -12.6354,91.21469 -24.6965,189.30661 -12.0467,97.97367 -25.0095,197.27548 -27.2441,197.27548 -2.1185,0 11.3232,-102.66736 24.4827,-210.16479 13.262,-108.33399 25.9048,-218.98833 25.9048,-239.14516 0,-18.9916 -12.4778,92.67859 -26.7174,210.16479 -14.1997,117.15755 -30.0801,239.14516 -32.3555,239.14516 -2.0727,0 13.9471,-126.96008 29.2562,-253.92015 15.3105,-126.9718 29.8089,-253.92015 29.8089,-253.92015 m 255.5616,-74.07833 c 0,0 -1.5615,34.86418 -5.9212,34.86418 -4.3427,0 7.9874,-74.84571 3.8552,-76.849136 -2.0642,-1.000809 -4.0835,18.209666 -6.1592,37.673286 -2.0756,19.46271 -4.2076,39.17585 -6.3814,39.17585 -4.3427,0 8.3032,-77.85085 3.9605,-77.85085 0.042,0 -12.6035,77.85085 -12.6459,77.85085 -4.3426,0 8.3032,-77.85085 3.9605,-77.85085 0.042,0 -12.6035,77.85085 -12.6458,77.85085 -4.3427,0 8.3031,-77.85085 3.9604,-77.85085 -4.3427,0 -8.3031,77.85085 -12.6458,77.85085 -4.3427,0 8.3031,-77.85085 3.9605,-77.85085 -4.3427,0 -8.3032,77.85085 -12.6459,77.85085 -4.3427,0 8.3032,-77.85085 3.9605,-77.85085 0.042,0 -12.6035,77.85085 -12.6458,77.85085 0.042,0 4.0028,-77.85085 3.9604,-77.85085 -4.3427,0 -8.3031,77.85085 -12.6458,77.85085 0.042,0 4.0028,-77.85085 3.9604,-77.85085 -4.3426,0 -8.3031,77.85085 -12.6458,77.85085 0.042,0 4.0028,-77.85085 3.9605,-77.85085 0.042,0 -12.6035,77.85085 -12.6459,77.85085 -4.3426,0 8.3032,-77.85085 3.9605,-77.85085 0.042,0 -12.6035,77.85085 -12.6458,77.85085 0.042,0 4.0028,-77.85085 3.9604,-77.85085 0.042,0 -12.6034,77.85085 -12.6458,77.85085 -4.3427,0 8.3031,-77.85085 3.9605,-77.85085 -4.3427,0 -8.3032,77.85085 -12.6459,77.85085 -4.3427,0 8.3032,-77.85085 3.9605,-77.85085 -4.3427,0 -8.3032,77.85085 -12.6458,77.85085 0.042,0 4.0028,-77.85085 3.9604,-77.85085 0.042,0 -12.6035,77.85085 -12.6458,77.85085 0.042,0 4.0028,-77.85085 3.9604,-77.85085 -4.3426,0 -8.3031,77.85085 -12.6458,77.85085 0.042,0 4.0028,-77.85085 3.9605,-77.85085 0.042,0 -12.6035,77.85085 -12.6459,77.85085 -4.3426,0 8.3032,-77.85085 3.9605,-77.85085 0.042,0 -12.6035,77.85085 -12.6458,77.85085 -4.3427,0 8.3031,-77.85085 3.9604,-77.85085 0.042,0 -12.6034,77.85085 -12.6458,77.85085 -4.3427,0 8.3031,-77.85085 3.9605,-77.85085 -4.3427,0 -8.3032,77.85085 -12.6459,77.85085 -4.3427,0 8.3032,-77.85085 3.9605,-77.85085 0.042,0 -12.6035,77.85085 -12.6458,77.85085 -4.3427,0 8.3031,-77.85085 3.9604,-77.85085 0.042,0 -12.6035,77.85085 -12.6458,77.85085 -4.3427,0 8.3031,-77.85085 3.9604,-77.85085 0.042,0 -12.6034,77.85085 -12.6458,77.85085 -4.3427,0 8.3032,-77.85085 3.9605,-77.85085 -4.3427,0 -8.3032,77.85085 -12.6459,77.85085 0.042,0 4.0029,-77.85085 3.9605,-77.85085 0.042,0 -12.6035,77.85085 -12.6458,77.85085 -4.3427,0 8.3031,-77.85085 3.9604,-77.85085 -4.3427,0 -8.3031,77.85085 -12.6458,77.85085 -4.3427,0 8.3031,-77.85085 3.9605,-77.85085 -4.3427,0 -8.3032,77.85085 -12.6459,77.85085 -4.3427,0 8.3032,-77.85085 3.9605,-77.85085 -4.3427,0 -8.3032,77.85085 -12.6458,77.85085 -4.3427,0 8.3031,-77.85085 3.9604,-77.85085 -4.3427,0 -8.3031,77.85085 -12.6458,77.85085 0.042,0 4.0028,-77.85085 3.9604,-77.85085 -2.022,0 -18.5785,156.22633 -37.033,312.45265 -18.4546,156.22633 -38.8072,312.45265 -41.1279,312.45265 -2.022,0 18.3306,-156.22633 36.7852,-312.45265 18.4545,-156.22632 35.011,-312.45265 32.6904,-312.45265 -2.0221,0 -18.5786,156.22633 -37.0331,312.45265 -18.4546,156.22633 -38.8072,312.45265 -41.1278,312.45265 -2.0221,0 18.3305,-156.22633 36.7851,-312.45265 18.4546,-156.22632 35.011,-312.45265 32.6904,-312.45265 -2.0221,0 -19.1214,156.22633 -37.5759,312.45265 -18.4525,156.20893 -38.4136,312.45265 -38.4136,312.45265 m -0.6338,-28.3916 c 0,0 19.9376,-149.14419 37.463,-298.25685 17.5274,-149.12842 32.7823,-298.25685 30.4749,-298.25685 -2.029,0 -17.4226,144.97777 -33.8893,285.71199 -16.3908,140.08574 -34.0425,277.87335 -34.0424,260.25065 0,-15.74354 17.4756,-154.69557 32.6653,-285.71199 15.3324,-132.2471 28.84,-260.25065 26.5811,-260.25065 -2.0588,0 -15.6377,128.00522 -29.9304,251.66915 -14.2405,123.21123 -29.3157,243.43929 -29.3157,225.62145 0,-16.38622 14.9177,-137.66671 27.9693,-251.66915 13.1636,-114.98137 24.8264,-225.62145 22.5914,-225.62145 -2.0856,0 -13.8114,110.64196 -25.9301,216.83782 -12.0866,105.91452 -24.6303,208.22696 -24.6303,190.16123 0,-17.03849 12.4061,-120.28006 23.3169,-216.83782 10.9951,-97.30366 20.7725,-190.16123 18.5581,-190.16123 -2.1093,0 -11.9409,92.85969 -21.8854,181.16048 -9.929,88.16331 -19.9893,172.18017 -19.9893,153.80711 0,-17.70166 9.9442,-102.5114 18.7115,-181.16048 8.8267,-79.183 16.6752,-153.80711 14.4778,-153.80711 -2.1296,0 -10.0229,74.62652 -17.7929,144.57229 -7.7672,69.92102 -15.396,135.23557 -15.396,116.48783 0,-18.37736 7.5359,-84.33362 14.1566,-144.57229 6.6587,-60.58429 12.5312,-116.48783 10.347,-116.48783 -2.1465,0 -8.0536,55.9063 -13.6488,106.99969 -5.601,51.14594 -10.8544,97.32127 -10.8545,78.12213 0,-19.06762 5.1858,-65.71623 9.6567,-106.99968 4.4909,-41.46753 8.3364,-78.12214 6.1612,-78.12214 -2.1594,0 -6.0283,36.65779 -9.4485,68.3586 -3.4298,31.79023 -6.3689,58.35522 -6.3689,38.6167 0,-39.65588 11.4747,-106.9753 7.132,-106.9753 -2.168,0 -3.9423,16.83357 -5.187,28.55232 -1.2533,11.7985 -1.9445,18.24294 -1.9445,-2.13658 0,-40.918531 0.6175,-26.41574 0.6175,-26.41574"
       style="font-style:normal;font-variant:normal;font-weight:500;font-stretch:normal;font-size:516.24981689px;line-height:125%;font-family:Futura;-inkscape-font-specification:'Futura Medium';text-align:start;letter-spacing:0px;word-spacing:0px;writing-mode:lr-tb;text-anchor:start;fill:none;stroke:#0000ff;stroke-width:3.99999976;stroke-miterlimit:4;stroke-dasharray:none;stroke-opacity:1"
       inkscape:connector-curvature="0" />
    <g
       style="font-style:normal;font-variant:normal;font-weight:500;font-stretch:normal;font-size:516.24981689px;line-height:125%;font-family:Futura;-inkscape-font-specification:'Futura Medium';text-align:start;letter-spacing:0px;word-spacing:0px;writing-mode:lr-tb;text-anchor:start;fill:none;stroke:#0000ff;stroke-width:2.4421699;stroke-miterlimit:4;stroke-dasharray:none;stroke-opacity:1"
       id="text6946"
       transform="matrix(1.6378876,0,0,1.6378876,-32.156193,-254.26604)">
      <path
         d="M 110.90151,441.8225 V 599.8736 H 52.168013 V 210.66963 h 66.547827 c 32.60157,3.9e-4 57.22088,2.26907 73.85801,6.80603 16.8048,4.53773 31.59319,13.10828 44.36522,25.71166 22.3504,21.84685 33.52572,49.40703 33.52598,82.68064 -2.6e-4,35.62685 -11.9318,63.85923 -35.79466,84.69723 -23.86332,20.83838 -56.04487,31.25747 -96.54477,31.25731 h -27.22411 m 0,-54.44822 h 21.93054 c 53.94389,2.1e-4 80.9159,-20.75395 80.91611,-62.26255 -2.1e-4,-40.16365 -27.81247,-60.24561 -83.43686,-60.24595 h -19.40979 v 122.5085"
         style="fill:none;stroke:#0000ff;stroke-width:2.4421699;stroke-miterlimit:4;stroke-dasharray:none;stroke-opacity:1"
         id="path7711"
         inkscape:connector-curvature="0" />
      <path
         d="M 534.3465,265.87408 H 378.312 v 93.51987 h 151.49714 v 55.20444 H 378.312 V 544.66915 H 534.3465 V 599.8736 H 319.57851 V 210.66963 H 534.3465 v 55.20445"
         style="fill:none;stroke:#0000ff;stroke-width:2.4421699;stroke-miterlimit:4;stroke-dasharray:none;stroke-opacity:1"
         id="path7713"
         inkscape:connector-curvature="0" />
      <path
         d="M 840.61776,505.34543 H 673.99612 L 630.6392,599.8736 H 567.36835 L 759.95373,186.21835 945.73308,599.8736 H 881.45393 L 840.61776,505.34543 M 816.67063,450.14098 758.94543,317.80155 698.4474,450.14098 h 118.22323"
         style="fill:none;stroke:#0000ff;stroke-width:2.4421699;stroke-miterlimit:4;stroke-dasharray:none;stroke-opacity:1"
         id="path7715"
         inkscape:connector-curvature="0" />
      <path
         d="m 1242.1201,231.59187 v 69.57273 c -33.9464,-28.40014 -69.0688,-42.60036 -105.3674,-42.6007 -39.9961,3.4e-4 -73.6901,14.36861 -101.0821,43.10485 -27.5603,28.56878 -41.34039,63.52316 -41.34031,104.86324 -8e-5,40.83632 13.78001,75.28655 41.34031,103.35079 27.5601,28.06443 61.3381,42.09659 101.3342,42.09655 20.6699,4e-5 38.2311,-3.36095 52.6837,-10.08301 8.0661,-3.36094 16.3846,-7.89829 24.9554,-13.61205 8.7383,-5.71363 17.897,-12.60367 27.4762,-20.67016 v 70.8331 c -33.6103,18.98966 -68.9008,28.48448 -105.8715,28.48449 -55.6248,-10e-6 -103.0989,-19.40977 -142.42246,-58.22935 -39.15571,-39.15558 -58.73353,-86.3776 -58.7335,-141.66621 -3e-5,-49.57453 16.38484,-93.77165 49.15465,-132.59151 40.33191,-47.55779 92.51141,-71.33685 156.53861,-71.33725 34.9542,4e-4 68.7322,9.49522 101.3342,28.48449"
         style="fill:none;stroke:#0000ff;stroke-width:2.4421699;stroke-miterlimit:4;stroke-dasharray:none;stroke-opacity:1"
         id="path7717"
         inkscape:connector-curvature="0" />
      <path
         d="m 1523.3244,265.87408 h -156.0345 v 93.51987 h 151.4972 v 55.20444 h -151.4972 v 130.07076 h 156.0345 v 55.20445 h -214.768 V 210.66963 h 214.768 v 55.20445"
         style="fill:none;stroke:#0000ff;stroke-width:2.4421699;stroke-miterlimit:4;stroke-dasharray:none;stroke-opacity:1"
         id="path7719"
         inkscape:connector-curvature="0" />
    </g>
    <path
       style="font-style:normal;font-variant:normal;font-weight:500;font-stretch:normal;font-size:516.24981689px;line-height:125%;font-family:Futura;-inkscape-font-specification:'Futura Medium';text-align:start;letter-spacing:0px;word-spacing:0px;writing-mode:lr-tb;text-anchor:start;fill:none;stroke:#0000ff;stroke-width:3.99999976;stroke-miterlimit:4;stroke-dasharray:none;stroke-opacity:1"
       d="m 902.125,725.25 c 32.20833,0 64.41667,0 96.625,0 23.6778,-51.60383 47.3499,-103.21036 71.0312,-154.8125 92.3021,0 184.6042,0 276.9063,0 22.2987,51.60087 44.5822,103.20888 66.875,154.8125 32.7604,0 65.5208,0 98.2813,0 C 1412.0833,503.08333 1312.3229,280.91667 1212.5625,58.75 1109.0833,280.91667 1005.6042,503.08333 902.125,725.25 Z M 1832.7812,81.4375 c -8.9512,0.165861 -17.9046,0.466783 -26.8314,1.170993 -7.903,0.556185 -15.7884,1.407617 -23.6206,2.598036 -11.9632,1.980011 -23.9089,4.153705 -35.6532,7.199184 -6.3201,1.594733 -12.5811,3.415858 -18.7875,5.405615 -9.2589,2.989622 -18.3866,6.387612 -27.3329,10.213302 -4.414,1.85449 -8.7632,3.89002 -13.0216,6.064 -11.9024,6.48562 -23.8228,12.99772 -35.0438,20.62622 -9.8963,6.69172 -19.3777,13.96881 -28.9815,21.06765 -1.1683,0.86427 -2.4315,1.96059 -3.5876,2.97168 -8.1452,7.17392 -16.0872,14.59271 -23.4997,22.52754 -4.9903,5.23366 -9.8108,10.63081 -14.5463,16.09313 -0.7856,0.96161 -1.4148,2.02602 -2.2426,3.0214 -4.1076,5.5419 -8.1538,11.12908 -12.2491,16.67999 -6.1443,8.35401 -11.9925,16.92928 -17.3701,25.7984 -5.1578,8.44369 -9.9295,17.12379 -14.6038,25.83496 -5.5212,10.63842 -9.8784,21.82539 -14.0657,33.0404 -2.2681,6.25197 -4.278,12.59743 -6.1306,18.98403 -2.0091,7.13521 -3.7987,14.33279 -5.3691,21.57688 -2.1182,9.72175 -3.8428,19.53039 -5.0285,29.41052 -0.7647,6.03251 -1.2254,12.10037 -1.6379,18.16583 -0.2876,5.73068 -0.6004,11.46084 -0.6548,17.19983 -0.1361,8.10545 0.1086,16.21346 0.4512,24.31126 0.372,6.7667 0.8904,13.52738 1.5803,20.26906 0.6286,6.00075 1.557,11.96392 2.6033,17.90402 1.8762,10.76798 4.1595,21.47173 7.0596,32.01232 3.0132,10.6848 6.4699,21.25324 10.6412,31.54532 2.8219,7.04582 5.8778,14.00302 9.2507,20.80309 5.4468,10.28799 11.2479,20.40792 17.4942,30.23989 4.7601,7.63637 10.0173,14.94715 15.4363,22.12629 4.416,5.92527 8.9752,11.74297 13.4291,17.63916 0.6679,0.82781 1.5709,1.74557 2.3124,2.625 1.2428,1.5227 2.7867,3.05212 4.1699,4.58198 5.8063,6.27047 11.7698,12.40316 18.0126,18.24092 4.5141,4.19108 9.1559,8.24109 13.7863,12.3021 0.9143,0.29004 1.5392,1.11463 2.2697,1.58822 3.5444,2.45473 6.9315,5.13367 10.4195,7.66989 7.5371,5.56044 15.1215,11.07272 23.0712,16.03483 6.6952,4.27724 13.5217,8.34623 20.4577,12.22043 5.9108,3.30521 11.8548,6.55015 18.0605,9.2779 4.1193,1.91202 8.3262,3.62602 12.5284,5.34538 11.5717,4.61765 23.4313,8.5062 35.4676,11.71977 7.4001,1.99703 14.8826,3.67423 22.4146,5.09207 8.4783,1.6802 17.0213,3.03074 25.6125,3.98094 6.2996,0.67454 12.6205,1.15591 18.9455,1.51944 9.5369,0.50022 19.0908,0.77658 28.64,0.5122 5.732,-0.14243 11.4628,-0.41703 17.1822,-0.81721 6.9116,-0.47836 13.8106,-1.14482 20.6722,-2.11004 8.4034,-1.17474 16.7356,-2.81555 25.0405,-4.54563 12.1985,-2.55267 24.2353,-5.85341 36.0558,-9.79902 6.5229,-2.15686 12.9771,-4.5264 19.364,-7.05575 7.1785,-2.89659 14.2945,-5.95441 21.2789,-9.29433 6.038,-2.77361 11.7713,-6.13559 17.6779,-9.161 1.7886,-0.92644 3.5639,-1.87832 5.3413,-2.83434 0.057,-20.82496 0.011,-41.65003 0.062,-62.475 0,-15.12292 0,-30.24583 0,-45.36875 -4.2368,3.7975 -8.7517,7.26852 -13.1131,10.91989 -0.8089,0.68408 -1.4861,1.28123 -2.3087,1.89258 -1.2659,1.01601 -2.4875,2.23124 -3.7969,3.06253 -2.9838,2.63158 -6.3337,4.84541 -9.5579,7.19272 -7.6439,5.40192 -15.4566,10.57082 -23.4916,15.37388 -7.1231,3.98941 -14.4777,7.56216 -21.8234,11.1305 -7.4177,3.48717 -14.9618,6.73021 -22.6995,9.443 -10.8755,3.77603 -22.1662,6.2619 -33.5568,7.85944 -6.9877,0.98741 -14.0177,1.65747 -21.0621,2.07505 -10.8729,0.70015 -21.7899,0.8219 -32.669,0.17927 -9.083,-0.51358 -18.1387,-1.49056 -27.1235,-2.91862 -5.9946,-0.89277 -11.9499,-2.06459 -17.8411,-3.48941 -7.4421,-1.77622 -14.7578,-4.05977 -21.9561,-6.64552 -9.2727,-3.35986 -18.3198,-7.33051 -27.0918,-11.83743 -5.7836,-2.86999 -11.5581,-5.77143 -16.9972,-9.26325 -4.0681,-2.59105 -8.0569,-5.31354 -11.88,-8.25588 -0.651,-0.83196 -1.5926,-1.22723 -2.3438,-2 -4.728,-4.11792 -9.5682,-8.10664 -14.266,-12.26022 -3.8615,-3.37362 -7.6075,-6.88138 -11.2422,-10.49799 -5.785,-5.8123 -11.2595,-11.92396 -16.5685,-18.17177 -4.1363,-4.79251 -8.0829,-9.7445 -12.1421,-14.60127 -2.5931,-3.30651 -4.8417,-6.93004 -7.1039,-10.48947 -2.6135,-4.20047 -5.0014,-8.52337 -7.2031,-12.95105 -3.8631,-7.53838 -7.4957,-15.20153 -10.6754,-23.05453 -2.2671,-5.69844 -4.3958,-11.45783 -6.1744,-17.32962 -3.4658,-11.17826 -6.3532,-22.57265 -7.86,-34.1926 -0.9882,-6.7453 -1.8276,-13.51566 -2.3696,-20.31281 -0.7668,-9.31488 -1.0743,-18.66879 -0.8388,-28.01322 0.242,-10.35712 0.9428,-20.70578 2.2451,-30.9853 1.3669,-10.9575 3.3052,-21.86163 6.2288,-32.51785 1.8213,-6.76594 3.9349,-13.45319 6.2549,-20.06395 1.8832,-5.28494 4.0708,-10.45807 6.3912,-15.56447 3.3632,-7.2974 6.9446,-14.50455 10.6772,-21.6125 3.1008,-5.75019 6.7609,-11.17114 10.4193,-16.57538 2.024,-2.94297 4.2273,-5.71272 6.5818,-8.39074 5.1803,-5.97461 10.282,-12.02041 15.6185,-17.85711 4.2072,-4.6021 8.5301,-9.09728 13.0173,-13.42758 8.5663,-8.16632 17.8292,-15.55133 27.0099,-23.00557 2.8791,-2.35171 6.1536,-4.2464 9.2278,-6.36017 5.6052,-3.68416 11.7229,-6.45106 17.6623,-9.53801 11.1928,-5.57156 22.7944,-10.35713 34.7683,-13.97748 5.4312,-1.66084 10.9244,-3.12256 16.4779,-4.31566 8.0807,-1.85002 16.3211,-2.85989 24.5348,-3.91431 7.3422,-0.90672 14.7391,-1.29381 22.1289,-1.55546 8.145,-0.18044 16.2983,0.004 24.4207,0.6538 7.0866,0.53058 14.1452,1.40952 21.166,2.49867 5.8655,0.87802 11.6606,2.16988 17.4162,3.58947 4.7223,1.16881 9.4019,2.50238 14.0459,3.95011 9.9693,3.16964 19.7121,7.01664 29.2688,11.26326 8.8035,3.97459 17.3265,8.55303 25.9047,12.96976 7.4028,4.13983 14.4765,8.83597 21.5066,13.57188 4.0995,2.90983 8.2922,5.75513 12.2028,8.88607 2.9206,2.54303 5.8298,5.09931 8.7683,7.62182 0.8567,0.0639 1.204,0.96188 1.9062,1.34375 -0.1777,-11.93033 -0.059,-23.86256 -0.094,-35.79375 0,-23.2875 0,-46.575 0,-69.8625 -7.7489,-3.87609 -15.2676,-8.20885 -22.9535,-12.20393 -6.2463,-3.15948 -12.6606,-5.97761 -19.1151,-8.68129 -7.5062,-3.09751 -15.1367,-5.88947 -22.8172,-8.522032 -6.4032,-2.16579 -12.8889,-4.07774 -19.4329,-5.769225 -11.6889,-3.107987 -23.5608,-5.522369 -35.5193,-7.321656 -8.1159,-1.247088 -16.3045,-1.959267 -24.495,-2.49303 -7.3912,-0.401618 -14.7937,-0.769655 -22.1983,-0.633837 z M 56.28125,725.25 c 30.072917,0 60.14583,0 90.21875,0 0,-86.29167 0,-172.58333 0,-258.875 20.60216,-0.003 41.20645,0.0286 61.8055,-0.37248 7.90531,-0.19929 15.79921,-0.80314 23.65391,-1.70838 8.84551,-1.09746 17.63805,-2.60579 26.3702,-4.38932 9.98869,-2.05517 19.82336,-4.83918 29.43324,-8.24904 6.03947,-2.1419 12.03152,-4.44264 17.81524,-7.21097 4.6915,-2.22997 9.16031,-4.89167 13.69135,-7.43261 4.47906,-2.58465 8.89602,-5.28438 13.16806,-8.1997 7.10187,-4.84104 13.86945,-10.14783 20.68968,-15.37179 1.23572,-0.98909 2.46879,-2.31274 3.69874,-3.43787 4.3183,-4.15347 8.45301,-8.52515 12.24414,-13.1575 1.36851,-3.40999 4.16246,-5.95188 6.07744,-9.03934 5.25582,-7.38863 9.89732,-15.19256 14.29,-23.1185 2.14977,-3.99483 3.86247,-8.22341 5.54867,-12.43522 2.13029,-5.54292 3.99151,-11.18856 5.57451,-16.91136 3.04344,-11.26326 5.2656,-22.76603 6.27318,-34.39626 0.86673,-9.74547 1.09101,-19.54709 0.78533,-29.32529 -0.15795,-5.61898 -0.61761,-11.22544 -1.20722,-16.81381 -0.94973,-8.11053 -2.42297,-16.15553 -4.37592,-24.08442 -1.61035,-6.78124 -3.68438,-13.44832 -6.05209,-20.0017 -1.58213,-4.39172 -3.40231,-8.69294 -5.43892,-12.8931 -1.81677,-3.74909 -3.99857,-7.31375 -6.01935,-10.95972 -4.51827,-7.80884 -9.53033,-15.33574 -15.09286,-22.44096 -2.51176,-3.33197 -5.17714,-6.71686 -7.58908,-10.01941 -2.82317,-3.20491 -5.85885,-6.21936 -8.90223,-9.21391 -2.98136,-2.85404 -6.02359,-5.66162 -9.21982,-8.2655 -1.38788,-0.64162 -2.52288,-1.72357 -3.81955,-2.5254 -7.37634,-5.36427 -14.91013,-10.53872 -22.83109,-15.07105 -4.86242,-2.81756 -9.84344,-5.43192 -15.04169,-7.58566 -9.55729,-3.94184 -19.49788,-6.91434 -29.59574,-9.11017 -8.80687,-1.963 -17.72531,-3.3862 -26.66341,-4.596271 -6.15461,-0.743351 -12.32967,-1.31351 -18.50527,-1.850842 -12.72453,-0.976591 -25.47425,-1.612633 -38.23165,-1.948161 -12.58911,-0.335061 -25.18434,-0.338164 -37.77703,-0.407248 -31.65826,-0.08693 -63.316682,-0.03796 -94.97502,-0.05079 0,210.489582 0,420.979172 0,631.468752 z m 438,0 c 115.25,0 230.5,0 345.75,0 0,-28.13542 0,-56.27083 0,-84.40625 -85.1875,0 -170.375,0 -255.5625,0 0,-73.01042 0,-146.02083 0,-219.03125 82.71875,0 165.4375,0 248.15625,0 0,-28.14583 0,-56.29167 0,-84.4375 -82.71875,0 -165.4375,0 -248.15625,0 0,-53.05208 0,-106.10417 0,-159.15625 85.1875,0 170.375,0 255.5625,0 0,-28.14583 0,-56.29167 0,-84.4375 -115.25,0 -230.5,0 -345.75,0 0,210.48958 0,420.97917 0,631.46875 z m 1619.84375,0 c 115.25,0 230.5,0 345.75,0 0,-28.13542 0,-56.27083 0,-84.40625 -85.1875,0 -170.375,0 -255.5625,0 0,-73.01042 0,-146.02083 0,-219.03125 82.7083,0 165.4167,0 248.125,0 0,-28.14583 0,-56.29167 0,-84.4375 -82.7083,0 -165.4167,0 -248.125,0 0,-53.05208 0,-106.10417 0,-159.15625 85.1875,0 170.375,0 255.5625,0 0,-28.14583 0,-56.29167 0,-84.4375 -115.25,0 -230.5,0 -345.75,0 0,210.48958 0,420.97917 0,631.46875 z M 146.59375,176.5625 c 13.91889,0.01 27.83921,-0.0756 41.75588,0.23107 10.87007,0.14784 21.75008,0.74274 32.5184,2.27972 6.71576,0.91606 13.4314,1.89767 20.03401,3.4544 8.92333,2.06054 17.71435,4.80469 26.05888,8.60155 3.77781,1.73746 7.55025,3.51546 11.23883,5.4227 2.02039,1.15451 4.13196,2.20303 5.86143,3.76189 3.4369,3.02363 6.98819,5.92586 10.25908,9.13552 3.33167,3.10585 6.4062,6.51192 9.24224,10.05065 0.76399,1.05402 1.87458,2.10394 2.72452,3.19802 1.64869,1.83487 2.52628,4.22715 3.66133,6.40481 2.22111,4.5912 4.29258,9.26867 5.95509,14.09304 1.85101,5.3757 2.9764,10.97168 3.70052,16.60125 0.89058,6.29185 1.19491,12.65315 1.23443,19.00283 -0.0669,7.51119 -0.59723,15.02267 -1.76631,22.44546 -0.95772,6.13676 -2.473,12.19501 -4.68324,18.00471 -1.89965,5.19818 -4.29227,10.19662 -6.85814,15.09473 -0.68852,1.49615 -1.53594,2.9056 -2.69291,4.07652 -0.78276,0.79419 -1.24094,1.77073 -2.05795,2.58195 -4.63783,5.35168 -9.63766,10.39021 -15.02204,14.99286 -1.8885,1.61518 -3.74141,3.30053 -5.66405,4.84757 -0.75546,0.59101 -1.6608,1.3321 -2.58025,1.85875 -2.41198,1.43937 -5.00888,2.56332 -7.50708,3.85679 -6.28765,3.00674 -12.72325,5.73657 -19.37147,7.84637 -8.85269,2.88835 -18.0096,4.75468 -27.2287,6.00059 -5.547,0.85507 -11.1368,1.4185 -16.7307,1.85863 -7.28731,0.57355 -14.59696,0.86166 -21.90667,0.87751 -9.15569,0.099 -18.31266,0.0195 -27.46888,0.0451 -4.26668,0.003 -8.53333,0.0223 -12.8,0.0312 0,-68.88542 0,-137.77083 0,-206.65625 h 0.0937 z m 1063.50005,85.90625 c 1.2424,-0.13919 2.317,0.57501 3.0312,1.53125 0.9348,1.00811 1.2379,2.46446 1.8714,3.68214 9.9596,22.82533 19.8675,45.6733 29.8209,68.50136 18.7823,42.96351 37.5272,85.94343 56.3363,128.8952 2.9742,6.74687 5.9952,13.47563 8.9402,20.2338 0.093,0.64847 -0.5952,0.81618 -1.1063,0.68628 -16.727,-0.0871 -33.4541,0.0377 -50.1813,10e-4 -50.6645,0 -101.3291,0 -151.9937,0 33.8625,-73.71474 67.7069,-147.43817 101.5625,-221.15625 -0.133,-1.1148 0.5941,-2.21926 1.7188,-2.375 z"
       id="path8486"
       inkscape:connector-curvature="0" />
  </g>
</svg>
