<?xml version="1.0" encoding="UTF-8" standalone="no"?>
<!-- Created with Inkscape (http://www.inkscape.org/) -->

<svg
   xmlns:dc="http://purl.org/dc/elements/1.1/"
   xmlns:cc="http://creativecommons.org/ns#"
   xmlns:rdf="http://www.w3.org/1999/02/22-rdf-syntax-ns#"
   xmlns:svg="http://www.w3.org/2000/svg"
   xmlns="http://www.w3.org/2000/svg"
   xmlns:sodipodi="http://sodipodi.sourceforge.net/DTD/sodipodi-0.dtd"
   xmlns:inkscape="http://www.inkscape.org/namespaces/inkscape"
   width="3200"
   height="800"
   id="svg6969"
   version="1.1"
   inkscape:version="0.48.1 r9760"
   sodipodi:docname="Peace_symbol_1.svg">
  <sodipodi:namedview
     id="base"
     pagecolor="#ffffff"
     bordercolor="#666666"
     borderopacity="1.0"
     inkscape:pageopacity="0.0"
     inkscape:pageshadow="2"
     inkscape:zoom="0.77099956"
     inkscape:cx="1583.5573"
     inkscape:cy="400.94862"
     inkscape:document-units="px"
     inkscape:current-layer="layer4"
     showgrid="false"
     inkscape:window-width="1676"
     inkscape:window-height="1006"
     inkscape:window-x="0"
     inkscape:window-y="0"
     inkscape:window-maximized="1" />
  <defs
     id="defs6971" />
  <metadata
     id="metadata6974">
    <rdf:RDF>
      <cc:Work
         rdf:about="">
        <dc:format>image/svg+xml</dc:format>
        <dc:type
           rdf:resource="http://purl.org/dc/dcmitype/StillImage" />
        <dc:title></dc:title>
      </cc:Work>
    </rdf:RDF>
  </metadata>
  <g
     inkscape:label="1-Green"
     id="layer4"
     inkscape:groupmode="layer">
    <g
       id="g7656"
       style="stroke:#005f00;stroke-opacity:1;stroke-width:4;stroke-miterlimit:4;stroke-dasharray:none">
      <path
         inkscape:connector-curvature="0"
         id="path9-4"
         d="m 1544.1875,15.34375 c -9.8207,0.291359 -19.6322,0.85849 -29.4191,1.724606 -7.3445,0.575353 -14.6602,1.482994 -21.9392,2.60682 -9.6021,1.589563 -19.1878,3.29828 -28.6884,5.420052 -7.7365,1.639773 -15.3958,3.635089 -22.9974,5.811725 -9.1144,2.695597 -18.2069,5.488851 -27.1524,8.706313 -8.0156,2.88082 -15.9388,6.014115 -23.755,9.39923 -5.4129,2.341423 -10.7866,4.78443 -16.0542,7.437763 -6.6774,3.487734 -13.2115,7.254427 -19.7812,10.949084 -9.8642,5.66182 -19.5576,11.630933 -28.9748,18.009118 -8.2672,5.644437 -16.2526,11.684997 -24.1936,17.775739 -4.3128,3.31195 -8.6258,6.62369 -12.9822,9.8783 -0.9905,0.82581 -2.0813,1.8782 -3.1104,2.79111 -5.3241,4.85746 -10.5715,9.80224 -15.6619,14.90478 -6.925,7.00009 -13.5905,14.25317 -20.1217,21.62048 -1.2954,1.45853 -2.4953,2.82221 -3.5643,4.42585 -0.7797,1.17068 -1.8313,2.05625 -2.5104,3.23374 -0.7004,1.15174 -1.708,2.0131 -2.3903,3.11391 -5.3821,7.76383 -11.0378,15.33602 -16.3801,23.12811 -7.033,10.42586 -13.4426,21.25665 -19.5506,32.24578 -3.4597,6.16918 -6.9752,12.30419 -9.9511,18.72624 -2.2575,4.673 -4.2618,9.4636 -6.2969,14.23589 -1.509,3.63176 -3.0339,7.25669 -4.4306,10.93409 -2.289,5.9369 -4.4045,11.94172 -6.3984,17.98379 -2.8887,8.73453 -5.5948,17.53378 -7.8436,26.45695 -2.8711,11.0098 -5.2229,22.14946 -7.2279,33.34779 -1.16,6.47444 -2.1282,12.98141 -2.9126,19.51227 -1.4986,12.40959 -2.3582,24.89481 -2.687,37.38915 -0.2528,10.29156 -0.054,20.59338 0.4891,30.87283 0.4649,8.44943 1.1964,16.88343 2.2407,25.28135 0.6534,5.6811 1.6506,11.31614 2.6617,16.94264 1.1555,6.18956 2.3545,12.37192 3.786,18.50462 2.0861,8.95112 4.4513,17.84017 7.2339,26.6014 1.8826,6.1723 4.0033,12.27021 6.3557,18.27878 2.94,7.88063 6.3278,15.58468 9.6503,23.30921 2.4443,5.508 4.7692,11.07771 7.5278,16.43865 3.5555,6.71544 7.3443,13.32069 11.0891,19.93857 5.1345,8.86788 10.5607,17.5718 16.3763,26.00987 5.7274,8.20506 11.7417,16.20382 17.8393,24.13608 2.5262,3.2772 5.0122,6.58488 7.5067,9.88607 0.8313,1.11437 1.9317,2.29011 2.919,3.38364 6.8612,7.65081 13.9276,15.12515 21.3842,22.20066 6.7836,6.56552 13.8206,12.86534 21.0405,18.94695 1.1659,0.56636 2.2902,1.58784 3.4992,2.23705 5.6146,3.86961 10.879,8.22169 16.4632,12.13577 8.0143,5.83488 16.1543,11.50564 24.5531,16.77624 8.2676,5.21998 16.8257,9.9584 25.3449,14.75075 6.6824,3.78506 13.4498,7.4175 20.4944,10.49036 8.6165,3.87049 17.3779,7.41379 26.2077,10.76608 7.7125,2.84493 15.5142,5.44752 23.4122,7.72968 10.3745,3.02271 20.8824,5.58745 31.4735,7.72872 8.6138,1.7206 17.284,3.14998 25.9867,4.33741 12.4058,1.57394 24.8521,2.96993 37.358,3.394 12.4444,0.64827 24.92,0.62816 37.368,0.0949 6.2858,-0.31042 12.5683,-0.7142 18.833,-1.31909 11.5917,-1.03693 23.1362,-2.61342 34.5615,-4.83355 10.2118,-1.86175 20.3404,-4.15969 30.3954,-6.73166 5.5671,-1.42661 11.1014,-2.97704 16.5805,-4.7129 11.1971,-3.4904 22.2929,-7.33306 33.1522,-11.77096 6.1781,-2.53517 12.2831,-5.24679 18.3572,-8.02037 3.4743,-1.63779 6.9491,-3.28139 10.2576,-5.23014 9.4272,-5.22127 18.8283,-10.49516 28.0176,-16.12786 7.5255,-4.55808 14.8716,-9.40956 22.055,-14.48885 7.1691,-5.09473 14.1334,-10.47017 21.1545,-15.76535 3.0189,-2.27295 6.1143,-4.66805 9.0996,-6.84647 9.7754,-8.57445 19.1762,-17.5786 28.156,-26.98384 4.7733,-5.05427 9.4132,-10.23404 13.969,-15.48491 0.5036,-0.92051 1.3401,-1.91855 2.0313,-2.78125 1.3254,-1.30213 2.1986,-3.05377 3.4072,-4.53832 10.2223,-13.7257 20.378,-27.53519 29.3843,-42.10122 5.724,-9.28618 11.1208,-18.76853 16.4272,-28.29796 3.0341,-5.74283 5.8992,-11.60263 8.3141,-17.64203 3.7587,-8.81641 7.2668,-17.74504 10.3043,-26.837 2.3279,-6.75597 4.3623,-13.60822 6.2565,-20.49733 2.183,-7.73255 4.1259,-15.53266 5.7573,-23.40068 1.8739,-8.9999 3.5191,-18.04988 4.8942,-27.13888 1.2928,-8.60745 2.2729,-17.26292 2.9123,-25.94336 0.4076,-5.60324 0.7586,-11.21035 0.9233,-16.82667 0.1931,-5.43121 0.2297,-10.86734 0.2558,-16.30152 -0.074,-11.6606 -0.6247,-23.31805 -1.6235,-34.93582 -0.5845,-6.94808 -1.4688,-13.86915 -2.5156,-20.76094 -0.7843,-4.8632 -1.7379,-9.69651 -2.611,-14.5442 -1.8489,-9.70637 -4.0562,-19.34483 -6.6976,-28.86698 -2.4208,-8.69386 -5.1678,-17.29859 -8.2721,-25.7729 -4.378,-11.74076 -9.1676,-23.32881 -14.3538,-34.73537 -2.9887,-6.26917 -6.4623,-12.27691 -9.895,-18.31093 -3.1425,-5.45314 -6.2032,-10.95615 -9.595,-16.26079 -5.12,-8.30469 -10.6538,-16.34762 -16.4308,-24.20748 -6.2679,-8.59801 -12.7692,-17.02278 -19.2171,-25.48587 -0.7817,-1.01051 -1.7946,-2.11709 -2.6959,-3.13771 -7.5627,-8.46686 -15.3893,-16.70209 -23.6016,-24.54303 -5.3837,-5.19164 -10.9272,-10.21912 -16.583,-15.11246 -1.7242,-1.40819 -3.4891,-2.98266 -5.1508,-4.3318 -1.5899,-1.13527 -3.2725,-2.13538 -4.8174,-3.33662 -7.0798,-5.146054 -14.0072,-10.500032 -21.1468,-15.564606 -8.6917,-6.205665 -17.5768,-12.160051 -26.841,-17.48148 -8.0819,-4.794196 -16.31,-9.356905 -24.5017,-13.945709 -8.3269,-4.38202 -17.0277,-7.996284 -25.7077,-11.608932 -10.5575,-4.307323 -21.2523,-8.295687 -32.1582,-11.63506 -8.4159,-2.701544 -16.9784,-4.914129 -25.5649,-6.998791 -10.2105,-2.417965 -20.5209,-4.40546 -30.8661,-6.147381 -14.1549,-2.288923 -28.4569,-3.602805 -42.7765,-4.263479 -8.3687,-0.283416 -16.7467,-0.404258 -25.1197,-0.330442 z M 1610.9062,88 c 6.053,0.158152 11.9067,1.899892 17.7053,3.49107 11.0926,2.973006 22.3467,5.496188 33.0757,9.66308 9.9992,3.68456 19.7483,8.00851 29.4171,12.47861 5.8179,2.71853 11.5916,5.53054 17.3328,8.40756 5.4494,2.67299 10.714,5.73321 15.7227,9.17054 5.8676,3.83178 11.7605,7.69738 17.4027,11.82039 7.9458,7.04405 16.1947,13.73799 24.1174,20.80789 6.5179,5.91912 12.8279,12.06677 18.8986,18.4438 4.9791,5.3068 9.7725,10.78514 14.3985,16.40202 5.0918,6.09654 10.1642,12.2532 15.1853,18.3805 3.309,4.62615 6.3232,9.45227 9.4306,14.21368 3.1971,5.00214 6.2207,10.12177 8.7523,15.49197 3.9143,7.67807 7.8287,15.3618 11.3636,23.2238 3.7669,8.37859 7.1584,16.92409 10.252,25.57329 3.4354,9.61329 6.2085,19.45298 8.6262,29.36735 2.074,8.81482 3.9568,17.68972 5.0662,26.68339 1.0836,7.49854 1.911,15.03177 2.5099,22.5843 0.5144,6.6133 0.8004,13.24485 0.8809,19.87795 0.1348,10.52085 -0.2886,21.04953 -1.3589,31.51764 -0.5826,5.95129 -1.3924,11.87684 -2.3023,17.78628 -1.0327,7.07329 -2.3148,14.11047 -3.8545,21.09166 -1.6554,7.64569 -3.6971,15.20227 -5.8383,22.72448 -1.9256,6.53588 -4.0665,13.00721 -6.4346,19.39631 -3.6828,9.95776 -8.0463,19.64978 -12.7652,29.15643 -3.5924,7.20678 -7.0366,14.51569 -11.5464,21.20841 -1.1938,1.96349 -2.6853,3.66631 -4.2374,5.35513 -1.7997,1.92375 -3.555,3.9594 -5.6246,5.57187 -1.7652,1.1528 -3.939,1.44971 -5.9942,1.70889 -4.0374,0.26985 -8.1053,-0.12518 -12.0763,-0.86021 -2.2151,-0.43726 -4.3818,-1.10567 -6.3889,-2.15088 -1.238,-0.62677 -2.5696,-1.1868 -3.6417,-2.03822 -20.1,-19.24272 -40.0608,-38.63024 -59.9342,-58.10683 -20.97,-20.4849 -41.792,-41.12037 -62.6239,-61.74554 -18.4676,-18.23274 -36.9113,-36.48965 -55.4531,-54.64702 -7.1253,-6.99569 -14.2505,-13.99139 -21.3757,-20.98709 -0.7107,-0.38862 -1.1474,-1.39115 -1.1563,-2.28125 -1.0066,-5.92615 -0.9645,-11.959 -0.8555,-17.94989 0.074,-7.22239 0.291,-14.44587 0.1449,-21.66856 -0.1327,-8.22399 -0.053,-16.45035 -0.061,-24.67528 0.056,-13.53122 0.1488,-27.06232 0.115,-40.59377 -0.053,-26.80417 -0.2014,-53.60819 -0.1953,-80.41249 -0.062,-9.86895 0.1144,-19.73733 0.1385,-29.60623 0.1691,-16.02545 0.3272,-32.05689 1.1097,-48.06657 0.1703,-1.75524 -0,-3.58953 0.5884,-5.273539 0.3289,-0.593636 1.0324,-0.962037 1.4525,-1.534921 0.6911,-0.717403 1.166,-1.506684 1.9676,-2.165225 1.3202,-1.298587 2.7132,-2.563602 4.0324,-3.834775 2.2296,-1.325552 4.7812,-2.054399 7.3125,-2.5625 2.2209,-0.384039 4.4667,-0.52747 6.7187,-0.4375 z m -118.4687,0.03125 c 3.5012,0.148968 6.9343,1.104622 10.0942,2.599599 0.9304,0.310854 1.8013,0.977142 2.2602,1.734862 1.9307,2.141993 3.9908,4.229205 5.8956,6.353039 0.7012,2.06985 0.3806,4.29631 0.6085,6.43728 0.5015,15.92932 0.8534,31.86301 1.0366,47.7992 0.1939,13.7432 0.2356,27.4879 0.1695,41.23223 -0.058,29.85216 -0.1734,59.70417 -0.245,89.55627 -0.011,15.74799 0.3017,31.49584 0.1179,47.24377 -0.01,6.95036 0.2215,13.8991 0.1562,20.85 -0.066,4.47845 -0.1651,8.96817 -0.6329,13.42476 -0.1695,1.01915 -0.2648,2.10659 -0.638,3.05784 -0.8308,1.01251 -1.9251,1.83342 -2.8182,2.81741 -20.7842,20.3408 -41.5129,40.73817 -62.2128,61.16475 -26.1163,25.72051 -52.1668,51.50779 -78.3063,77.20463 -15.6047,15.28382 -31.2947,30.48071 -47.0484,45.61076 -3.5085,3.32909 -6.9953,6.75435 -10.5621,9.9761 -3.0073,1.50466 -6.0346,3.13269 -9.3999,3.65362 -3.0276,0.57573 -6.1193,0.79251 -9.1939,0.94013 -3.0412,-0.0298 -6.2797,-0.30318 -8.9375,-1.84375 -1.4917,-1.19654 -2.6247,-2.76159 -4.0261,-4.05535 -2.4303,-2.63795 -4.8523,-5.29027 -6.6146,-8.43068 -2.6141,-4.07473 -4.9202,-8.3226 -7.0826,-12.64909 -3.3716,-6.53173 -6.5044,-13.18571 -9.5721,-19.86497 -5.198,-11.62737 -9.6017,-23.61082 -13.1109,-35.85536 -2.0796,-7.11789 -3.897,-14.3118 -5.532,-21.54385 -1.941,-8.60624 -3.5605,-17.28587 -4.7582,-26.02708 -0.857,-6.26707 -1.6534,-12.54575 -2.1549,-18.8524 -0.4455,-6.2601 -0.8473,-12.52524 -0.9485,-18.80178 -0.1601,-10.57933 0.3054,-21.16541 1.3094,-31.69768 1.1958,-12.72818 2.892,-25.42561 5.5487,-37.93634 1.974,-9.20105 4.3946,-18.3048 7.2382,-27.27534 3.3449,-10.66219 7.1757,-21.17968 11.7393,-31.38392 4.4917,-10.31653 9.6961,-20.29935 14.8216,-30.30935 2.6799,-5.45483 6.0457,-10.54521 9.2997,-15.6736 3.2674,-5.04731 6.6588,-10.01557 10.218,-14.86196 5.5879,-6.3561 10.957,-12.9613 16.5299,-19.3541 5.2944,-6.20054 10.8859,-12.13988 16.6044,-17.94928 4.4525,-4.45445 9.0654,-8.7457 13.7631,-12.9403 6.2684,-5.61144 12.8176,-10.89531 19.3192,-16.23126 2.6881,-2.13854 5.243,-4.45705 7.9397,-6.55631 3.2657,-2.44882 6.7331,-4.61212 10.1015,-6.91344 6.4893,-4.17004 13.0691,-8.23966 20.0354,-11.5633 4.8083,-2.38401 9.6659,-4.66701 14.4728,-7.05404 6.0791,-2.85842 12.2195,-5.59066 18.4107,-8.19614 8.5142,-3.39825 17.0525,-6.788532 25.8633,-9.35015 7.124,-1.923712 14.3152,-3.594436 21.3976,-5.67293 5.7927,-1.6642 11.7678,-2.875858 17.8185,-2.838303 0.3422,-0.01589 0.6834,0.01274 1.0252,0.0258 z M 1587.6875,474 c 2.6736,3.50952 5.378,7.16582 7.7187,10.8125 3.1624,3.48219 6.6997,6.59676 10.0441,9.89967 17.0915,16.51839 34.1393,33.08201 51.1642,49.66891 10.76,10.56878 21.5942,21.06165 32.3153,31.66998 12.056,11.88907 24.0817,23.80905 36.0527,35.78363 5.0458,5.1278 10.0129,10.33314 14.9555,15.55978 0.8358,0.89669 1.6543,1.78313 2.0996,2.93773 1.5137,2.93935 2.5214,6.21823 2.2872,9.55504 -0.043,3.17358 -0.5316,6.3444 -1.3884,9.39736 -0.4153,1.25587 -0.9149,2.57133 -1.665,3.6282 -3.8299,3.6245 -7.7773,7.17859 -11.9,10.43642 -5.6639,4.12474 -11.6285,7.84587 -17.9058,10.95528 -9.5131,4.77259 -18.9772,9.65201 -28.6639,14.06728 -6.4322,2.99265 -12.9734,5.74777 -19.6066,8.26395 -6.4473,2.47879 -12.964,4.77826 -19.5239,6.9379 -7.038,2.16722 -14.2103,3.94157 -21.4944,5.0468 -6.6614,0.95142 -13.3913,1.62455 -20.1262,1.45737 -2.1192,-0.11509 -4.4215,-0.67148 -5.7527,-2.44024 -1.2032,-1.38823 -2.4269,-2.79325 -3.7317,-4.06218 -1.1087,-1.33911 -1.4852,-3.07994 -2.0989,-4.6736 -1.6933,-5.08945 -2.204,-10.49312 -2.1395,-15.83289 -0.1912,-10.62868 -0.3994,-21.25706 -0.4723,-31.88736 -0.3965,-32.8255 -0.3762,-65.65419 -0.3376,-98.48151 0.092,-22.40399 0.1666,-44.80839 0.043,-67.21244 -0.016,-3.91255 -0.039,-7.82507 -0.06,-11.73758 0.062,0.0833 0.125,0.16667 0.1875,0.25 z m -78.9375,7.3125 c 1.636,-0.0897 3.2893,0.9717 3.7031,2.56753 0.2966,1.94559 0.055,3.92341 0.137,5.88246 -0.079,20.27285 -0.1063,40.54577 -0.09,60.81876 -0.071,17.92502 -0.014,35.85015 0.062,53.775 0.035,16.67763 -0.1552,33.35449 -0.3238,50.03097 -0.1767,10.83136 -0.1934,21.66743 -0.5899,32.49375 -0.2113,4.1796 -0.7555,8.37623 -2.1454,12.3426 -0.5345,1.46604 -1.1123,3.00523 -2.0068,4.25794 -1.7631,1.99079 -3.733,3.86001 -5.7466,5.54974 -2.8388,1.46185 -6.1457,1.15284 -9.2298,1.03575 -9.0421,-0.50305 -18.0867,-1.60343 -26.8643,-3.88168 -12.1945,-3.28593 -24.0976,-7.56993 -35.8032,-12.29173 -6.0437,-2.49517 -12.0271,-5.13403 -17.9193,-7.96904 -7.9615,-3.85137 -15.8009,-7.94964 -23.6777,-11.97018 -3.2458,-1.6738 -6.5076,-3.30567 -9.5878,-5.27892 -3.1067,-1.9083 -6.1419,-3.93894 -9.1032,-6.06377 -2.7514,-2.06554 -5.1743,-4.54584 -7.7854,-6.80197 -1.3178,-1.20402 -2.6,-2.54881 -3.6324,-3.96359 -2.3683,-5.16664 -2.9408,-11.06731 -2.002,-16.64379 0.5649,-2.46419 1.4969,-4.9215 2.9801,-6.95233 2.636,-3.01597 5.5596,-5.76311 8.3296,-8.65344 9.8811,-10.03106 19.8805,-19.94482 29.8323,-29.90565 14.5964,-14.59684 29.3278,-29.05801 44.1589,-43.41626 16.7761,-16.32185 33.6017,-32.59271 50.3672,-48.92531 5.1012,-4.96318 10.1825,-9.94758 15.2728,-14.92102 0.5265,-0.37974 0.9702,-1.11026 1.6642,-1.11582 z"
         style="fill:none;stroke:#005f00;stroke-width:4;stroke-miterlimit:4;stroke-opacity:1;stroke-dasharray:none" />
      <path
         id="path7659"
         d="M 1603.854118,18.747601 l -104.297449,0.000000 M 1441.730515,30.747601 l 219.035038,-0.000000 M 1695.725194,42.747601 l -290.039793,0.000000 M 1377.720686,54.747601 l 345.499401,-0.000000 M 1744.775706,66.747601 l -389.218832,0.000000 M 1335.621197,78.747601 l 428.992780,-0.000000 M 1781.813825,90.747601 l -155.916947,0.000000 M 1502.749724,90.747601 l 94.615824,0.000000 M 1473.959484,90.747601 l -156.109037,0.000000 M 1665.818317,102.747601 l 132.279266,-0.000000 M 1588.888531,102.747601 l -77.686605,0.000000 M 1301.809550,102.747601 l 132.539254,-0.000000 M 1813.077190,114.747601 l -119.674562,0.000000 M 1511.551939,114.747601 l 76.844940,0.000000 M 1406.517539,114.747601 l -120.145408,0.000000 M 1717.136382,126.747601 l 108.946863,0.000000 M 1588.076560,126.747601 l -76.204415,0.000000 M 1273.594293,126.747601 l 109.390195,0.000000 M 1838.039748,138.747601 l -102.609323,0.000000 M 1512.095469,138.747601 l 75.806013,0.000000 M 1364.520091,138.747601 l -102.684257,0.000000 M 1750.520914,150.747601 l 98.591386,-0.000000 M 1587.739334,150.747601 l -75.443580,0.000000 M 1250.833085,150.747601 l 98.946771,-0.000000 M 1858.554322,162.747601 l -94.137485,0.000000 M 1512.419168,162.747601 l 75.230355,0.000000 M 1335.652787,162.747601 l -94.449006,0.000000 M 1777.133018,174.747601 l 90.432346,-0.000000 M 1587.602414,174.747601 l -75.088291,0.000000 M 1232.656520,174.747601 l 90.227402,-0.000000 M 1876.238610,186.747601 l -87.611317,0.000000 M 1512.506701,186.747601 l 75.091689,0.000000 M 1311.509851,186.747601 l -87.304559,0.000000 M 1799.028752,198.747601 l 85.343794,-0.000000 M 1587.627535,198.747601 l -75.137910,0.000000 M 1216.518656,198.747601 l 84.499739,-0.000000 M 1891.772074,210.747601 l -82.829359,0.000000 M 1512.456796,210.747601 l 75.199884,0.000000 M 1290.763020,210.747601 l -81.403148,0.000000 M 1818.020310,222.747601 l 80.640289,-0.000000 M 1587.685825,222.747601 l -75.261857,0.000000 M 1202.611502,222.747601 l 79.483340,-0.000000 M 1905.210487,234.747601 l -79.508730,0.000000 M 1512.391139,234.747601 l 75.323830,0.000000 M 1274.359219,234.747601 l -78.129131,0.000000 M 1832.333478,246.747601 l 78.386035,0.000000 M 1587.744114,246.747601 l -75.385803,0.000000 M 1190.743102,246.747601 l 77.071202,0.000000 M 1915.730865,258.747601 l -77.355976,0.000000 M 1512.325482,258.747601 l 75.447777,0.000000 M 1261.724408,258.747601 l -75.953611,0.000000 M 1844.027940,270.747601 l 76.403722,0.000000 M 1587.755818,270.747601 l -75.463164,0.000000 M 1181.203773,270.747601 l 74.850156,0.000000 M 1924.629232,282.747601 l -75.516411,0.000000 M 1512.259825,282.747601 l 75.461997,0.000000 M 1250.917822,282.747601 l -73.775080,0.000000 M 1853.650499,294.747601 l 74.693200,0.000000 M 1587.687827,294.747601 l -75.373080,0.000000 M 1173.379842,294.747601 l 73.062392,0.000000 M 1931.633113,306.747601 l -74.014145,0.000000 M 1512.377612,306.747601 l 75.282673,0.000000 M 1242.501806,306.747601 l -72.431458,0.000000 M 1861.015112,318.747601 l 73.339921,0.000000 M 1587.674200,318.747601 l -75.296168,0.000000 M 1167.166948,318.747601 l 71.878886,0.000000 M 1936.777293,330.747601 l -72.922847,0.000000 M 1512.375059,330.747601 l 75.355178,0.000000 M 1236.153349,330.747601 l -71.548785,0.000000 M 1866.298652,342.747601 l 72.600557,0.000000 M 1587.669031,342.747601 l -75.187846,0.000000 M 1162.395639,342.747601 l 71.433315,0.000000 M 1940.474921,354.747601 l -72.422943,0.000000 M 1512.459417,354.747601 l 75.128763,0.000000 M 1232.035171,354.747601 l -71.466536,0.000000 M 1869.455796,366.747601 l 72.157466,0.000000 M 1588.433174,366.747601 l -76.766711,0.000000 M 1159.141152,366.747601 l 71.496669,0.000000 M 1942.384406,378.747601 l -71.945318,0.000000 M 1500.701611,378.747601 l 98.756626,0.000000 M 1229.597004,378.747601 l -71.501497,0.000000 M 1870.950915,390.747601 l 71.865167,0.000000 M 1611.677808,390.747601 l -123.181815,0.000000 M 1157.448514,390.747601 l 71.614994,0.000000 M 1942.889582,402.747601 l -71.872412,0.000000 M 1476.290374,402.747601 l 147.564442,0.000000 M 1229.017417,402.747601 l -71.883030,0.000000 M 1870.538156,414.747601 l 72.101853,0.000000 M 1636.031824,414.747601 l -171.947068,0.000000 M 1157.235497,414.747601 l 72.320691,0.000000 M 1942.016980,426.747601 l -72.464491,0.000000 M 1451.879137,426.747601 l 196.329695,0.000000 M 1230.548085,426.747601 l -72.890335,0.000000 M 1868.048269,438.747601 l 72.961587,0.000000 M 1660.385840,438.747601 l -220.693853,0.000000 M 1158.469010,438.747601 l 73.529525,0.000000 M 1939.625660,450.747601 l -73.451662,0.000000 M 1427.520753,450.747601 l 245.018345,0.000000 M 1233.885995,450.747601 l -74.210962,0.000000 M 1863.876620,462.747601 l 73.963163,0.000000 M 1684.669007,462.747601 l -269.319488,0.000000 M 1161.310194,462.747601 l 74.979761,0.000000 M 1935.720523,474.747601 l -74.656254,0.000000 M 1588.243744,474.747601 l 108.555173,0.000000 M 1587.506000,474.747601 l -184.327714,0.000000 M 1163.479450,474.747601 l 75.599423,0.000000 M 1933.291109,486.747601 l -75.476779,0.000000 M 1597.316900,486.747601 l 111.687703,0.000000 M 1587.563125,486.747601 l -74.964531,0.000000 M 1391.007052,486.747601 l 111.657235,0.000000 M 1242.309107,486.747601 l -76.344676,0.000000 M 1854.009518,498.747601 l 76.436093,0.000000 M 1721.216244,498.747601 l -111.609026,0.000000 M 1512.576804,498.747601 l 75.007514,0.000000 M 1490.373130,498.747601 l -111.537312,0.000000 M 1168.907726,498.747601 l 77.174244,0.000000 M 1927.187031,510.747601 l -77.545083,0.000000 M 1621.968480,510.747601 l 111.492951,0.000000 M 1587.605510,510.747601 l -75.046464,0.000000 M 1366.649442,510.747601 l 111.370033,0.000000 M 1250.459550,510.747601 l -78.228895,0.000000 M 1844.621559,522.747601 l 78.930264,0.000000 M 1745.766571,522.747601 l -111.436829,0.000000 M 1512.541288,522.747601 l 75.067834,0.000000 M 1465.665820,522.747601 l -111.334069,0.000000 M 1176.048332,522.747601 l 79.396490,0.000000 M 1919.497838,534.747601 l -80.520670,0.000000 M 1646.691004,534.747601 l 111.380707,0.000000 M 1587.572575,534.747601 l -75.049045,0.000000 M 1341.990006,534.747601 l 111.322159,0.000000 M 1261.108472,534.747601 l -80.668100,0.000000 M 1832.952596,546.747601 l 81.875142,0.000000 M 1770.511679,546.747601 l -111.482437,0.000000 M 1512.505773,546.747601 l 75.030255,0.000000 M 1440.960442,546.747601 l -111.409526,0.000000 M 1185.278187,546.747601 l 81.901407,0.000000 M 1909.885644,558.747601 l -84.215844,0.000000 M 1671.273759,558.747601 l 111.687981,0.000000 M 1587.518592,558.747601 l -75.009077,0.000000 M 1317.077972,558.747601 l 111.577843,0.000000 M 1274.426367,558.747601 l -83.984082,0.000000 M 1683.518276,570.747601 l 220.551353,0.000000 M 1587.519966,570.747601 l -74.996615,0.000000 M 1195.923903,570.747601 l 220.474360,0.000000 M 1897.373040,582.747601 l -201.696345,0.000000 M 1512.537186,582.747601 l 74.984154,0.000000 M 1404.291552,582.747601 l -201.988909,0.000000 M 1707.766927,594.747601 l 182.571998,0.000000 M 1587.522714,594.747601 l -74.971692,0.000000 M 1209.130458,594.747601 l 183.111753,0.000000 M 1882.891296,606.747601 l -163.034137,0.000000 M 1512.553922,606.747601 l 75.002017,0.000000 M 1380.271644,606.747601 l -163.899086,0.000000 M 1731.626941,618.747601 l 143.203157,0.000000 M 1587.636840,618.747601 l -75.123956,0.000000 M 1224.257647,618.747601 l 144.043429,0.000000 M 1866.278532,630.747601 l -124.052129,0.000000 M 1512.463450,630.747601 l 75.254290,0.000000 M 1357.681069,630.747601 l -124.791933,0.000000 M 1744.154246,642.747601 l 113.276877,0.000000 M 1587.798641,642.747601 l -75.449482,0.000000 M 1241.948203,642.747601 l 113.885025,0.000000 M 1847.842018,654.747601 l -108.571400,0.000000 M 1512.233586,654.747601 l 75.674732,0.000000 M 1360.705368,654.747601 l -109.498534,0.000000 M 1724.470662,666.747601 l 112.359541,0.000000 M 1588.086057,666.747601 l -76.009424,0.000000 M 1262.186701,666.747601 l 113.471360,0.000000 M 1824.833941,678.747601 l -122.212131,0.000000 M 1511.837340,678.747601 l 76.426455,0.000000 M 1397.611972,678.747601 l -123.493173,0.000000 M 1677.440141,690.747601 l 134.381833,0.000000 M 1588.710051,690.747601 l -77.384992,0.000000 M 1287.153416,690.747601 l 135.344696,0.000000 M 1796.258348,702.747601 l -150.169149,0.000000 M 1507.903957,702.747601 l 84.113999,0.000000 M 1454.151727,702.747601 l -151.618904,0.000000 M 1318.845641,714.747601 l 461.248672,0.000000 M 1762.044804,726.747601 l -425.705247,0.000000 M 1356.332667,738.747601 l 385.609439,0.000000 M 1719.661897,750.747601 l -341.394773,0.000000 M 1406.151954,762.747601 l 284.987283,0.000000 M 1653.688444,774.747601 l -211.182071,0.000000 M 1509.732358,786.747601 l 78.724239,0.000000 M 1166.753509,320.577778 l 0.000000,169.585782 M 1178.753509,530.276328 l 0.000000,-252.414675 M 1190.753509,246.723308 l 0.000000,312.730598 M 1202.753509,583.564538 l 0.000000,-361.072157 M 1214.753509,201.602212 l 0.000000,402.478073 M 1226.753509,622.243541 l 0.000000,-439.138231 M 1238.753509,166.162180 l 0.000000,153.742142 M 1238.753509,638.527588 l 0.000000,-165.133718 M 1250.753509,150.835484 l 0.000000,132.334649 M 1250.753509,654.222117 l 0.000000,-142.713256 M 1262.753509,137.788216 l 0.000000,118.910780 M 1262.753509,667.360281 l 0.000000,-129.296709 M 1274.753509,125.618179 l 0.000000,108.504219 M 1274.753509,679.345685 l 0.000000,-120.167848 M 1286.753509,114.405373 l 0.000000,101.606342 M 1286.753509,690.399792 l 0.000000,-121.155143 M 1298.753509,105.070264 l 0.000000,96.334769 M 1298.753509,700.042915 l 0.000000,-130.998222 M 1310.753509,95.984078 l 0.000000,91.610717 M 1310.753509,708.869853 l 0.000000,-144.187579 M 1322.753509,87.277460 l 0.000000,87.596291 M 1322.753509,717.517597 l 0.000000,-164.212531 M 1334.753509,79.297186 l 0.000000,84.272217 M 1334.753509,725.726800 l 0.000000,-183.998144 M 1346.753509,71.957806 l 0.000000,81.277529 M 1346.753509,733.221110 l 0.000000,-203.090719 M 1358.753509,64.945797 l 0.000000,78.412599 M 1358.753509,628.835476 l 0.000000,-110.395589 M 1358.753509,652.578018 l 0.000000,87.537695 M 1370.753509,134.458449 l 0.000000,-76.145102 M 1370.753509,506.716203 l 0.000000,109.572936 M 1370.753509,746.785850 l 0.000000,-83.350945 M 1382.753509,52.347398 l 0.000000,74.543387 M 1382.753509,604.259634 l 0.000000,-109.374607 M 1382.753509,671.051647 l 0.000000,81.844519 M 1394.753509,120.481388 l 0.000000,-73.340058 M 1394.753509,483.053852 l 0.000000,109.176277 M 1394.753509,758.125016 l 0.000000,-80.841747 M 1406.753509,42.344523 l 0.000000,72.288067 M 1406.753509,580.307345 l 0.000000,-109.084668 M 1406.753509,683.340762 l 0.000000,79.643591 M 1418.753509,109.147968 l 0.000000,-71.137912 M 1418.753509,459.391502 l 0.000000,109.021613 M 1418.753509,767.409305 l 0.000000,-78.334562 M 1430.753509,34.073888 l 0.000000,70.072751 M 1430.753509,556.701840 l 0.000000,-109.141514 M 1430.753509,694.246248 l 0.000000,77.076700 M 1442.753509,99.601915 l 0.000000,-69.131969 M 1442.753509,435.729151 l 0.000000,109.274838 M 1442.753509,774.816682 l 0.000000,-75.988937 M 1454.753509,27.293484 l 0.000000,68.560043 M 1454.753509,533.347520 l 0.000000,-109.425868 M 1454.753509,702.945998 l 0.000000,74.870994 M 1466.753509,92.697060 l 0.000000,-68.133209 M 1466.753509,412.123806 l 0.000000,109.567244 M 1466.753509,780.456871 l 0.000000,-74.023609 M 1478.753509,22.132111 l 0.000000,67.400840 M 1478.753509,510.034581 l 0.000000,-109.708620 M 1478.753509,708.752970 l 0.000000,73.897302 M 1490.753509,88.033653 l 0.000000,-67.996161 M 1490.753509,388.528116 l 0.000000,109.849997 M 1490.753509,784.494467 l 0.000000,-74.557338 M 1502.753509,18.306825 l 0.000000,72.442803 M 1502.753509,486.660434 l 0.000000,-109.930164 M 1502.753509,708.130622 l 0.000000,77.873765 M 1514.753509,787.204009 l 0.000000,-770.134166 M 1526.753509,16.189394 l 0.000000,771.825861 M 1538.753509,788.526267 l 0.000000,-772.943794 M 1550.753509,15.360099 l 0.000000,773.300397 M 1562.753509,788.436967 l 0.000000,-772.918898 M 1574.753509,15.990299 l 0.000000,771.870231 M 1586.753509,786.920286 l 0.000000,-770.060510 M 1598.753509,18.095977 l 0.000000,71.957464 M 1598.753509,488.202557 l 0.000000,-110.146872 M 1598.753509,709.413442 l 0.000000,76.196855 M 1610.753509,88.001853 l 0.000000,-68.256531 M 1610.753509,389.837525 l 0.000000,110.022865 M 1610.753509,783.910310 l 0.000000,-74.063043 M 1622.753509,21.881079 l 0.000000,68.044943 M 1622.753509,511.509687 l 0.000000,-109.847383 M 1622.753509,708.519744 l 0.000000,73.248308 M 1634.753509,93.105872 l 0.000000,-68.863990 M 1634.753509,413.487868 l 0.000000,109.671115 M 1634.753509,779.324994 l 0.000000,-73.275812 M 1646.753509,27.052706 l 0.000000,69.253565 M 1646.753509,534.808279 l 0.000000,-109.494846 M 1646.753509,702.520662 l 0.000000,73.961748 M 1658.753509,100.126414 l 0.000000,-69.943425 M 1658.753509,437.138999 l 0.000000,109.338375 M 1658.753509,773.384170 l 0.000000,-75.108554 M 1670.753509,33.804655 l 0.000000,70.895370 M 1670.753509,558.237740 l 0.000000,-109.256605 M 1670.753509,693.610967 l 0.000000,76.142971 M 1682.753509,109.891629 l 0.000000,-72.045359 M 1682.753509,460.852617 l 0.000000,109.145489 M 1682.753509,765.769497 l 0.000000,-77.376362 M 1694.753509,42.360453 l 0.000000,73.042416 M 1694.753509,581.831305 l 0.000000,-109.107206 M 1694.753509,682.669287 l 0.000000,78.703031 M 1706.753509,121.223666 l 0.000000,-73.921998 M 1706.753509,484.535521 l 0.000000,109.206225 M 1706.753509,756.467547 l 0.000000,-79.795702 M 1718.753509,52.569350 l 0.000000,75.160638 M 1718.753509,605.652187 l 0.000000,-109.324639 M 1718.753509,670.316759 l 0.000000,80.848414 M 1730.753509,135.564439 l 0.000000,-76.783389 M 1730.753509,508.106829 l 0.000000,109.732049 M 1730.753509,745.024927 l 0.000000,-82.834506 M 1742.753509,65.579983 l 0.000000,78.477145 M 1742.753509,631.907332 l 0.000000,-112.098076 M 1742.753509,649.773222 l 0.000000,88.519144 M 1754.753509,154.396556 l 0.000000,-81.813891 M 1754.753509,531.511683 l 0.000000,199.723851 M 1766.753509,164.849471 l 0.000000,-84.662886 M 1766.753509,543.125286 l 0.000000,180.647041 M 1778.753509,176.387649 l 0.000000,-87.878930 M 1778.753509,554.691494 l 0.000000,160.992586 M 1790.753509,189.092211 l 0.000000,-91.782800 M 1790.753509,565.659369 l 0.000000,141.251670 M 1802.753509,203.256099 l 0.000000,-97.232712 M 1802.753509,569.300904 l 0.000000,128.541786 M 1814.753509,217.936202 l 0.000000,-101.701845 M 1814.753509,568.902016 l 0.000000,119.216720 M 1826.753509,236.477430 l 0.000000,-109.074614 M 1826.753509,557.229047 l 0.000000,119.637948 M 1838.753509,259.545976 l 0.000000,-120.039556 M 1838.753509,535.209824 l 0.000000,129.527545 M 1850.753509,287.086439 l 0.000000,-134.428665 M 1850.753509,507.888500 l 0.000000,143.562428 M 1862.753509,325.699099 l 0.000000,-157.403683 M 1862.753509,467.706336 l 0.000000,167.845009 M 1874.753509,618.858787 l 0.000000,-434.206201 M 1886.753509,202.506537 l 0.000000,398.246004 M 1898.753509,580.307717 l 0.000000,-357.395383 M 1910.753509,246.827877 l 0.000000,309.856127 M 1922.753509,525.221646 l 0.000000,-247.941942 M 1934.753509,320.641331 l 0.000000,159.075438"
         style="stroke:#005f00;stroke-width:4;fill:none;stroke-opacity:1;stroke-miterlimit:4;stroke-dasharray:none" />
    </g>
  </g>
  <g
     style="display:inline"
     id="1-default"
     inkscape:groupmode="layer"
     inkscape:label="2-black">
    <switch
       style="fill:none;stroke:#000000;stroke-width:2.38517618;stroke-miterlimit:4;stroke-opacity:1;stroke-dasharray:none"
       id="switch4"
       transform="matrix(1.677025,0,0,1.677025,1153.4198,11.686678)">
      <g
         style="fill:none;stroke:#000000;stroke-width:2.38517618;stroke-miterlimit:4;stroke-opacity:1;stroke-dasharray:none"
         id="g6">
        <g
           style="fill:none;stroke:#000000;stroke-width:2.38517618;stroke-miterlimit:4;stroke-opacity:1;stroke-dasharray:none"
           id="Layer_1">
          <path
             id="path9"
             d="m 455.76,144.34 c 28.21,64.533 21.02,150.19 -16.556,208.76 -51.7,82.85 -145.74,124.06 -240.93,109.5 C 121.464,452.31 48.424,396.82 18.544,323.71 -18.263,243.06 1.502,138.99 62.202,75.34 c 68.072,-73.65 179.39,-95.438 269.43,-55.875 52.79,22.235 102.99,71.203 124.13,124.88 z M 146.95,65.767 c -66.27,35.266 -106.71,107.27 -98.84,182.89 3.705,28.8 12.122,56.48 28.413,79.584 3.228,3.67 7.924,2.311 12.169,1.669 l 4.647,-2.302 c 40.069,-38.306 78.208,-77.011 118.24,-116.02 1.137,-7.875 -0.18,-17.315 0.455,-25.641 -0.743,-44.578 0.867,-89.245 -0.792,-132.83 -7.292,-10.872 -19.791,-2.566 -29.7,-1.241 -11.99,3.303 -23.41,8.481 -34.6,13.888 z m -21.24,301.47 -2.81,4.866 c -0.394,3.778 -0.065,7.35 2.191,10.059 11.484,9.254 24.509,15.482 37.791,21.488 13.306,5.297 27.078,10.855 42.27,10.776 4.791,-1.233 5.466,-6.188 6.352,-10.182 0.989,-41.25 0.263,-80.916 0.527,-121.71 -28.92,27.97 -57.83,55.72 -86.32,84.69 z M 291.46,51.877 c -9.914,-1.326 -22.406,-9.631 -29.7,1.241 -1.664,43.584 -0.047,88.251 -0.792,132.83 0.637,8.325 -0.68,17.766 0.449,25.641 40.031,39.01 78.179,77.714 118.24,116.02 l 4.646,2.302 c 4.252,0.642 8.948,2.001 12.174,-1.669 16.298,-23.104 24.712,-50.784 28.415,-79.584 7.866,-75.619 -32.568,-147.62 -98.85,-182.89 -11.18,-5.41 -22.61,-10.588 -34.59,-13.893 z m -30.49,230.66 c 0.262,40.795 -0.465,80.461 0.529,121.71 0.881,3.993 1.561,8.948 6.352,10.182 15.197,0.079 28.959,-5.479 42.268,-10.776 13.279,-6.006 26.306,-12.234 37.785,-21.488 2.26,-2.709 2.588,-6.281 2.199,-10.059 l -2.813,-4.866 c -28.49,-28.96 -57.4,-56.71 -86.32,-84.69 z"
             inkscape:connector-curvature="0"
             style="fill:none;stroke:#000000;stroke-width:2.38517618;stroke-miterlimit:4;stroke-opacity:1;stroke-dasharray:none" />
        </g>
      </g>
    </switch>
  </g>
</svg>
