<?xml version="1.0" encoding="UTF-8" standalone="no"?>
<!-- Created with Inkscape (http://www.inkscape.org/) -->

<svg
   xmlns:dc="http://purl.org/dc/elements/1.1/"
   xmlns:cc="http://creativecommons.org/ns#"
   xmlns:rdf="http://www.w3.org/1999/02/22-rdf-syntax-ns#"
   xmlns:svg="http://www.w3.org/2000/svg"
   xmlns="http://www.w3.org/2000/svg"
   xmlns:sodipodi="http://sodipodi.sourceforge.net/DTD/sodipodi-0.dtd"
   xmlns:inkscape="http://www.inkscape.org/namespaces/inkscape"
   width="3200"
   height="800"
   id="svg6969"
   version="1.1"
   inkscape:version="0.92.2 5c3e80d, 2017-08-06"
   sodipodi:docname="Peace_symbol_1_filled.svg">
  <sodipodi:namedview
     id="base"
     pagecolor="#ffffff"
     bordercolor="#666666"
     borderopacity="1.0"
     inkscape:pageopacity="0.0"
     inkscape:pageshadow="2"
     inkscape:zoom="0.365"
     inkscape:cx="1600"
     inkscape:cy="400"
     inkscape:document-units="px"
     inkscape:current-layer="layer4"
     showgrid="false"
     inkscape:window-width="1680"
     inkscape:window-height="1005"
     inkscape:window-x="0"
     inkscape:window-y="1"
     inkscape:window-maximized="1" />
  <defs
     id="defs6971" />
  <metadata
     id="metadata6974">
    <rdf:RDF>
      <cc:Work
         rdf:about="">
        <dc:format>image/svg+xml</dc:format>
        <dc:type
           rdf:resource="http://purl.org/dc/dcmitype/StillImage" />
        <dc:title />
      </cc:Work>
    </rdf:RDF>
  </metadata>
  <g
     inkscape:label="1-Green"
     id="layer4"
     inkscape:groupmode="layer"
     style="display:inline">
    <g
       id="g7656"
       style="stroke:#005f00;stroke-width:4;stroke-miterlimit:4;stroke-dasharray:none;stroke-opacity:1">
      <path
         inkscape:connector-curvature="0"
         id="path9-4"
         d="m 1544.1875,15.34375 c -9.8207,0.291359 -19.6322,0.85849 -29.4191,1.724606 -7.3445,0.575353 -14.6602,1.482994 -21.9392,2.60682 -9.6021,1.589563 -19.1878,3.29828 -28.6884,5.420052 -7.7365,1.639773 -15.3958,3.635089 -22.9974,5.811725 -9.1144,2.695597 -18.2069,5.488851 -27.1524,8.706313 -8.0156,2.88082 -15.9388,6.014115 -23.755,9.39923 -5.4129,2.341423 -10.7866,4.78443 -16.0542,7.437763 -6.6774,3.487734 -13.2115,7.254427 -19.7812,10.949084 -9.8642,5.66182 -19.5576,11.630933 -28.9748,18.009118 -8.2672,5.644437 -16.2526,11.684997 -24.1936,17.775739 -4.3128,3.31195 -8.6258,6.62369 -12.9822,9.8783 -0.9905,0.82581 -2.0813,1.8782 -3.1104,2.79111 -5.3241,4.85746 -10.5715,9.80224 -15.6619,14.90478 -6.925,7.00009 -13.5905,14.25317 -20.1217,21.62048 -1.2954,1.45853 -2.4953,2.82221 -3.5643,4.42585 -0.7797,1.17068 -1.8313,2.05625 -2.5104,3.23374 -0.7004,1.15174 -1.708,2.0131 -2.3903,3.11391 -5.3821,7.76383 -11.0378,15.33602 -16.3801,23.12811 -7.033,10.42586 -13.4426,21.25665 -19.5506,32.24578 -3.4597,6.16918 -6.9752,12.30419 -9.9511,18.72624 -2.2575,4.673 -4.2618,9.4636 -6.2969,14.23589 -1.509,3.63176 -3.0339,7.25669 -4.4306,10.93409 -2.289,5.9369 -4.4045,11.94172 -6.3984,17.98379 -2.8887,8.73453 -5.5948,17.53378 -7.8436,26.45695 -2.8711,11.0098 -5.2229,22.14946 -7.2279,33.34779 -1.16,6.47444 -2.1282,12.98141 -2.9126,19.51227 -1.4986,12.40959 -2.3582,24.89481 -2.687,37.38915 -0.2528,10.29156 -0.054,20.59338 0.4891,30.87283 0.4649,8.44943 1.1964,16.88343 2.2407,25.28135 0.6534,5.6811 1.6506,11.31614 2.6617,16.94264 1.1555,6.18956 2.3545,12.37192 3.786,18.50462 2.0861,8.95112 4.4513,17.84017 7.2339,26.6014 1.8826,6.1723 4.0033,12.27021 6.3557,18.27878 2.94,7.88063 6.3278,15.58468 9.6503,23.30921 2.4443,5.508 4.7692,11.07771 7.5278,16.43865 3.5555,6.71544 7.3443,13.32069 11.0891,19.93857 5.1345,8.86788 10.5607,17.5718 16.3763,26.00987 5.7274,8.20506 11.7417,16.20382 17.8393,24.13608 2.5262,3.2772 5.0122,6.58488 7.5067,9.88607 0.8313,1.11437 1.9317,2.29011 2.919,3.38364 6.8612,7.65081 13.9276,15.12515 21.3842,22.20066 6.7836,6.56552 13.8206,12.86534 21.0405,18.94695 1.1659,0.56636 2.2902,1.58784 3.4992,2.23705 5.6146,3.86961 10.879,8.22169 16.4632,12.13577 8.0143,5.83488 16.1543,11.50564 24.5531,16.77624 8.2676,5.21998 16.8257,9.9584 25.3449,14.75075 6.6824,3.78506 13.4498,7.4175 20.4944,10.49036 8.6165,3.87049 17.3779,7.41379 26.2077,10.76608 7.7125,2.84493 15.5142,5.44752 23.4122,7.72968 10.3745,3.02271 20.8824,5.58745 31.4735,7.72872 8.6138,1.7206 17.284,3.14998 25.9867,4.33741 12.4058,1.57394 24.8521,2.96993 37.358,3.394 12.4444,0.64827 24.92,0.62816 37.368,0.0949 6.2858,-0.31042 12.5683,-0.7142 18.833,-1.31909 11.5917,-1.03693 23.1362,-2.61342 34.5615,-4.83355 10.2118,-1.86175 20.3404,-4.15969 30.3954,-6.73166 5.5671,-1.42661 11.1014,-2.97704 16.5805,-4.7129 11.1971,-3.4904 22.2929,-7.33306 33.1522,-11.77096 6.1781,-2.53517 12.2831,-5.24679 18.3572,-8.02037 3.4743,-1.63779 6.9491,-3.28139 10.2576,-5.23014 9.4272,-5.22127 18.8283,-10.49516 28.0176,-16.12786 7.5255,-4.55808 14.8716,-9.40956 22.055,-14.48885 7.1691,-5.09473 14.1334,-10.47017 21.1545,-15.76535 3.0189,-2.27295 6.1143,-4.66805 9.0996,-6.84647 9.7754,-8.57445 19.1762,-17.5786 28.156,-26.98384 4.7733,-5.05427 9.4132,-10.23404 13.969,-15.48491 0.5036,-0.92051 1.3401,-1.91855 2.0313,-2.78125 1.3254,-1.30213 2.1986,-3.05377 3.4072,-4.53832 10.2223,-13.7257 20.378,-27.53519 29.3843,-42.10122 5.724,-9.28618 11.1208,-18.76853 16.4272,-28.29796 3.0341,-5.74283 5.8992,-11.60263 8.3141,-17.64203 3.7587,-8.81641 7.2668,-17.74504 10.3043,-26.837 2.3279,-6.75597 4.3623,-13.60822 6.2565,-20.49733 2.183,-7.73255 4.1259,-15.53266 5.7573,-23.40068 1.8739,-8.9999 3.5191,-18.04988 4.8942,-27.13888 1.2928,-8.60745 2.2729,-17.26292 2.9123,-25.94336 0.4076,-5.60324 0.7586,-11.21035 0.9233,-16.82667 0.1931,-5.43121 0.2297,-10.86734 0.2558,-16.30152 -0.074,-11.6606 -0.6247,-23.31805 -1.6235,-34.93582 -0.5845,-6.94808 -1.4688,-13.86915 -2.5156,-20.76094 -0.7843,-4.8632 -1.7379,-9.69651 -2.611,-14.5442 -1.8489,-9.70637 -4.0562,-19.34483 -6.6976,-28.86698 -2.4208,-8.69386 -5.1678,-17.29859 -8.2721,-25.7729 -4.378,-11.74076 -9.1676,-23.32881 -14.3538,-34.73537 -2.9887,-6.26917 -6.4623,-12.27691 -9.895,-18.31093 -3.1425,-5.45314 -6.2032,-10.95615 -9.595,-16.26079 -5.12,-8.30469 -10.6538,-16.34762 -16.4308,-24.20748 -6.2679,-8.59801 -12.7692,-17.02278 -19.2171,-25.48587 -0.7817,-1.01051 -1.7946,-2.11709 -2.6959,-3.13771 -7.5627,-8.46686 -15.3893,-16.70209 -23.6016,-24.54303 -5.3837,-5.19164 -10.9272,-10.21912 -16.583,-15.11246 -1.7242,-1.40819 -3.4891,-2.98266 -5.1508,-4.3318 -1.5899,-1.13527 -3.2725,-2.13538 -4.8174,-3.33662 -7.0798,-5.146054 -14.0072,-10.500032 -21.1468,-15.564606 -8.6917,-6.205665 -17.5768,-12.160051 -26.841,-17.48148 -8.0819,-4.794196 -16.31,-9.356905 -24.5017,-13.945709 -8.3269,-4.38202 -17.0277,-7.996284 -25.7077,-11.608932 -10.5575,-4.307323 -21.2523,-8.295687 -32.1582,-11.63506 -8.4159,-2.701544 -16.9784,-4.914129 -25.5649,-6.998791 -10.2105,-2.417965 -20.5209,-4.40546 -30.8661,-6.147381 -14.1549,-2.288923 -28.4569,-3.602805 -42.7765,-4.263479 -8.3687,-0.283416 -16.7467,-0.404258 -25.1197,-0.330442 z M 1610.9062,88 c 6.053,0.158152 11.9067,1.899892 17.7053,3.49107 11.0926,2.973006 22.3467,5.496188 33.0757,9.66308 9.9992,3.68456 19.7483,8.00851 29.4171,12.47861 5.8179,2.71853 11.5916,5.53054 17.3328,8.40756 5.4494,2.67299 10.714,5.73321 15.7227,9.17054 5.8676,3.83178 11.7605,7.69738 17.4027,11.82039 7.9458,7.04405 16.1947,13.73799 24.1174,20.80789 6.5179,5.91912 12.8279,12.06677 18.8986,18.4438 4.9791,5.3068 9.7725,10.78514 14.3985,16.40202 5.0918,6.09654 10.1642,12.2532 15.1853,18.3805 3.309,4.62615 6.3232,9.45227 9.4306,14.21368 3.1971,5.00214 6.2207,10.12177 8.7523,15.49197 3.9143,7.67807 7.8287,15.3618 11.3636,23.2238 3.7669,8.37859 7.1584,16.92409 10.252,25.57329 3.4354,9.61329 6.2085,19.45298 8.6262,29.36735 2.074,8.81482 3.9568,17.68972 5.0662,26.68339 1.0836,7.49854 1.911,15.03177 2.5099,22.5843 0.5144,6.6133 0.8004,13.24485 0.8809,19.87795 0.1348,10.52085 -0.2886,21.04953 -1.3589,31.51764 -0.5826,5.95129 -1.3924,11.87684 -2.3023,17.78628 -1.0327,7.07329 -2.3148,14.11047 -3.8545,21.09166 -1.6554,7.64569 -3.6971,15.20227 -5.8383,22.72448 -1.9256,6.53588 -4.0665,13.00721 -6.4346,19.39631 -3.6828,9.95776 -8.0463,19.64978 -12.7652,29.15643 -3.5924,7.20678 -7.0366,14.51569 -11.5464,21.20841 -1.1938,1.96349 -2.6853,3.66631 -4.2374,5.35513 -1.7997,1.92375 -3.555,3.9594 -5.6246,5.57187 -1.7652,1.1528 -3.939,1.44971 -5.9942,1.70889 -4.0374,0.26985 -8.1053,-0.12518 -12.0763,-0.86021 -2.2151,-0.43726 -4.3818,-1.10567 -6.3889,-2.15088 -1.238,-0.62677 -2.5696,-1.1868 -3.6417,-2.03822 -20.1,-19.24272 -40.0608,-38.63024 -59.9342,-58.10683 -20.97,-20.4849 -41.792,-41.12037 -62.6239,-61.74554 -18.4676,-18.23274 -36.9113,-36.48965 -55.4531,-54.64702 -7.1253,-6.99569 -14.2505,-13.99139 -21.3757,-20.98709 -0.7107,-0.38862 -1.1474,-1.39115 -1.1563,-2.28125 -1.0066,-5.92615 -0.9645,-11.959 -0.8555,-17.94989 0.074,-7.22239 0.291,-14.44587 0.1449,-21.66856 -0.1327,-8.22399 -0.053,-16.45035 -0.061,-24.67528 0.056,-13.53122 0.1488,-27.06232 0.115,-40.59377 -0.053,-26.80417 -0.2014,-53.60819 -0.1953,-80.41249 -0.062,-9.86895 0.1144,-19.73733 0.1385,-29.60623 0.1691,-16.02545 0.3272,-32.05689 1.1097,-48.06657 0.1703,-1.75524 0,-3.58953 0.5884,-5.273539 0.3289,-0.593636 1.0324,-0.962037 1.4525,-1.534921 0.6911,-0.717403 1.166,-1.506684 1.9676,-2.165225 1.3202,-1.298587 2.7132,-2.563602 4.0324,-3.834775 2.2296,-1.325552 4.7812,-2.054399 7.3125,-2.5625 2.2209,-0.384039 4.4667,-0.52747 6.7187,-0.4375 z m -118.4687,0.03125 c 3.5012,0.148968 6.9343,1.104622 10.0942,2.599599 0.9304,0.310854 1.8013,0.977142 2.2602,1.734862 1.9307,2.141993 3.9908,4.229205 5.8956,6.353039 0.7012,2.06985 0.3806,4.29631 0.6085,6.43728 0.5015,15.92932 0.8534,31.86301 1.0366,47.7992 0.1939,13.7432 0.2356,27.4879 0.1695,41.23223 -0.058,29.85216 -0.1734,59.70417 -0.245,89.55627 -0.011,15.74799 0.3017,31.49584 0.1179,47.24377 -0.01,6.95036 0.2215,13.8991 0.1562,20.85 -0.066,4.47845 -0.1651,8.96817 -0.6329,13.42476 -0.1695,1.01915 -0.2648,2.10659 -0.638,3.05784 -0.8308,1.01251 -1.9251,1.83342 -2.8182,2.81741 -20.7842,20.3408 -41.5129,40.73817 -62.2128,61.16475 -26.1163,25.72051 -52.1668,51.50779 -78.3063,77.20463 -15.6047,15.28382 -31.2947,30.48071 -47.0484,45.61076 -3.5085,3.32909 -6.9953,6.75435 -10.5621,9.9761 -3.0073,1.50466 -6.0346,3.13269 -9.3999,3.65362 -3.0276,0.57573 -6.1193,0.79251 -9.1939,0.94013 -3.0412,-0.0298 -6.2797,-0.30318 -8.9375,-1.84375 -1.4917,-1.19654 -2.6247,-2.76159 -4.0261,-4.05535 -2.4303,-2.63795 -4.8523,-5.29027 -6.6146,-8.43068 -2.6141,-4.07473 -4.9202,-8.3226 -7.0826,-12.64909 -3.3716,-6.53173 -6.5044,-13.18571 -9.5721,-19.86497 -5.198,-11.62737 -9.6017,-23.61082 -13.1109,-35.85536 -2.0796,-7.11789 -3.897,-14.3118 -5.532,-21.54385 -1.941,-8.60624 -3.5605,-17.28587 -4.7582,-26.02708 -0.857,-6.26707 -1.6534,-12.54575 -2.1549,-18.8524 -0.4455,-6.2601 -0.8473,-12.52524 -0.9485,-18.80178 -0.1601,-10.57933 0.3054,-21.16541 1.3094,-31.69768 1.1958,-12.72818 2.892,-25.42561 5.5487,-37.93634 1.974,-9.20105 4.3946,-18.3048 7.2382,-27.27534 3.3449,-10.66219 7.1757,-21.17968 11.7393,-31.38392 4.4917,-10.31653 9.6961,-20.29935 14.8216,-30.30935 2.6799,-5.45483 6.0457,-10.54521 9.2997,-15.6736 3.2674,-5.04731 6.6588,-10.01557 10.218,-14.86196 5.5879,-6.3561 10.957,-12.9613 16.5299,-19.3541 5.2944,-6.20054 10.8859,-12.13988 16.6044,-17.94928 4.4525,-4.45445 9.0654,-8.7457 13.7631,-12.9403 6.2684,-5.61144 12.8176,-10.89531 19.3192,-16.23126 2.6881,-2.13854 5.243,-4.45705 7.9397,-6.55631 3.2657,-2.44882 6.7331,-4.61212 10.1015,-6.91344 6.4893,-4.17004 13.0691,-8.23966 20.0354,-11.5633 4.8083,-2.38401 9.6659,-4.66701 14.4728,-7.05404 6.0791,-2.85842 12.2195,-5.59066 18.4107,-8.19614 8.5142,-3.39825 17.0525,-6.788532 25.8633,-9.35015 7.124,-1.923712 14.3152,-3.594436 21.3976,-5.67293 5.7927,-1.6642 11.7678,-2.875858 17.8185,-2.838303 0.3422,-0.01589 0.6834,0.01274 1.0252,0.0258 z M 1587.6875,474 c 2.6736,3.50952 5.378,7.16582 7.7187,10.8125 3.1624,3.48219 6.6997,6.59676 10.0441,9.89967 17.0915,16.51839 34.1393,33.08201 51.1642,49.66891 10.76,10.56878 21.5942,21.06165 32.3153,31.66998 12.056,11.88907 24.0817,23.80905 36.0527,35.78363 5.0458,5.1278 10.0129,10.33314 14.9555,15.55978 0.8358,0.89669 1.6543,1.78313 2.0996,2.93773 1.5137,2.93935 2.5214,6.21823 2.2872,9.55504 -0.043,3.17358 -0.5316,6.3444 -1.3884,9.39736 -0.4153,1.25587 -0.9149,2.57133 -1.665,3.6282 -3.8299,3.6245 -7.7773,7.17859 -11.9,10.43642 -5.6639,4.12474 -11.6285,7.84587 -17.9058,10.95528 -9.5131,4.77259 -18.9772,9.65201 -28.6639,14.06728 -6.4322,2.99265 -12.9734,5.74777 -19.6066,8.26395 -6.4473,2.47879 -12.964,4.77826 -19.5239,6.9379 -7.038,2.16722 -14.2103,3.94157 -21.4944,5.0468 -6.6614,0.95142 -13.3913,1.62455 -20.1262,1.45737 -2.1192,-0.11509 -4.4215,-0.67148 -5.7527,-2.44024 -1.2032,-1.38823 -2.4269,-2.79325 -3.7317,-4.06218 -1.1087,-1.33911 -1.4852,-3.07994 -2.0989,-4.6736 -1.6933,-5.08945 -2.204,-10.49312 -2.1395,-15.83289 -0.1912,-10.62868 -0.3994,-21.25706 -0.4723,-31.88736 -0.3965,-32.8255 -0.3762,-65.65419 -0.3376,-98.48151 0.092,-22.40399 0.1666,-44.80839 0.043,-67.21244 -0.016,-3.91255 -0.039,-7.82507 -0.06,-11.73758 0.062,0.0833 0.125,0.16667 0.1875,0.25 z m -78.9375,7.3125 c 1.636,-0.0897 3.2893,0.9717 3.7031,2.56753 0.2966,1.94559 0.055,3.92341 0.137,5.88246 -0.079,20.27285 -0.1063,40.54577 -0.09,60.81876 -0.071,17.92502 -0.014,35.85015 0.062,53.775 0.035,16.67763 -0.1552,33.35449 -0.3238,50.03097 -0.1767,10.83136 -0.1934,21.66743 -0.5899,32.49375 -0.2113,4.1796 -0.7555,8.37623 -2.1454,12.3426 -0.5345,1.46604 -1.1123,3.00523 -2.0068,4.25794 -1.7631,1.99079 -3.733,3.86001 -5.7466,5.54974 -2.8388,1.46185 -6.1457,1.15284 -9.2298,1.03575 -9.0421,-0.50305 -18.0867,-1.60343 -26.8643,-3.88168 -12.1945,-3.28593 -24.0976,-7.56993 -35.8032,-12.29173 -6.0437,-2.49517 -12.0271,-5.13403 -17.9193,-7.96904 -7.9615,-3.85137 -15.8009,-7.94964 -23.6777,-11.97018 -3.2458,-1.6738 -6.5076,-3.30567 -9.5878,-5.27892 -3.1067,-1.9083 -6.1419,-3.93894 -9.1032,-6.06377 -2.7514,-2.06554 -5.1743,-4.54584 -7.7854,-6.80197 -1.3178,-1.20402 -2.6,-2.54881 -3.6324,-3.96359 -2.3683,-5.16664 -2.9408,-11.06731 -2.002,-16.64379 0.5649,-2.46419 1.4969,-4.9215 2.9801,-6.95233 2.636,-3.01597 5.5596,-5.76311 8.3296,-8.65344 9.8811,-10.03106 19.8805,-19.94482 29.8323,-29.90565 14.5964,-14.59684 29.3278,-29.05801 44.1589,-43.41626 16.7761,-16.32185 33.6017,-32.59271 50.3672,-48.92531 5.1012,-4.96318 10.1825,-9.94758 15.2728,-14.92102 0.5265,-0.37974 0.9702,-1.11026 1.6642,-1.11582 z"
         style="fill:none;stroke:#005f00;stroke-width:4;stroke-miterlimit:4;stroke-dasharray:none;stroke-opacity:1" />
      <path
         id="path7659"
         d="m 1603.8541,18.747601 h -104.2974 m -57.8262,12 h 219.0351 m 34.9596,12 h -290.0398 m -27.9647,12 h 345.4994 m 21.5556,12 h -389.2188 m -19.9357,12 h 428.9928 m 17.1998,12 h -155.9169 m -123.1472,0 h 94.6158 m -123.406,0 h -156.1091 m 347.9679,11.999999 h 132.2793 m -209.2091,0 h -77.6866 m -209.3923,0 h 132.5392 m 378.7284,12 h -119.6746 m -181.8507,0 h 76.845 m -181.8794,0 h -120.1454 m 430.7643,12 h 108.9468 m -238.0066,0 h -76.2045 m -238.2778,0 h 109.3902 m 455.0552,12 h -102.6093 m -223.3349,0 h 75.806 m -223.3814,0 h -102.6843 m 488.6851,12 h 98.5914 m -261.373,0 h -75.4435 m -261.4627,0 h 98.9468 m 508.7744,12 h -94.1375 m -251.9976,0 h 75.2303 m -251.9967,0 h -94.449 m 535.9292,12 h 90.4324 m -279.963,0 h -75.0883 m -279.8576,0 h 90.2274 m 553.3547,12 h -87.6113 m -276.1206,0 h 75.0917 m -276.0885,0 h -87.3046 m 574.8235,12 h 85.3437 m -296.745,0 h -75.1379 m -295.9709,0 h 84.4997 m 590.7537,12 h -82.8294 m -296.4859,0 h 75.1999 m -296.8937,0 h -81.4031 m 608.6604,12 h 80.6403 m -310.9748,0 h -75.2618 m -309.8125,0 h 79.4833 m 623.1157,12 h -79.5087 m -313.3107,0 h 75.3239 m -313.3558,0 h -78.1291 m 636.1034,12 h 78.386 m -322.9754,0 h -75.3858 m -321.6152,0 h 77.0712 m 647.9166,12 h -77.356 m -326.0494,0 h 75.4478 m -326.0489,0 h -75.9536 m 658.2571,12 h 76.4038 m -332.6759,0 h -75.4631 m -331.0889,0 h 74.8501 m 668.5753,12 h -75.5164 m -336.853,0 h 75.462 m -336.804,0 h -73.7751 m 676.5078,12 h 74.6932 m -340.6559,0 h -75.3731 m -338.9349,0 h 73.0624 m 685.1909,12 h -74.0141 m -345.2414,0 h 75.2827 m -345.1585,0 h -72.4315 m 690.9448,12 h 73.3399 m -346.6808,0 h -75.2962 m -345.2111,0 h 71.8789 m 697.7315,12 h -72.9229 m -351.4793,0 h 75.3551 m -351.5769,0 h -71.5487 m 701.6941,12 h 72.6005 m -351.2302,0 h -75.1878 m -350.0856,0 h 71.4334 m 706.6459,12 h -72.4229 m -355.5926,0 h 75.1288 m -355.553,0 h -71.4666 m 708.8872,12 h 72.1575 m -353.1801,0 h -76.7667 m -352.5253,0 h 71.4966 m 711.7466,12 h -71.9453 m -369.7375,0 h 98.7566 m -369.8612,0 h -71.5015 m 712.8554,12 h 71.8652 m -331.1383,0 H 1488.496 m -331.0475,0 h 71.615 m 713.8261,12 h -71.8724 m -394.7268,0 h 147.5644 m -394.8374,0 h -71.883 m 713.4038,12 h 72.1018 m -306.6082,0 h -171.947 m -306.8493,0 h 72.3207 m 712.4608,12 h -72.4645 m -417.6734,0 h 196.3297 m -417.6607,0 h -72.8904 m 710.3906,12 h 72.9616 m -280.6241,0 H 1439.692 m -281.223,0 h 73.5295 m 707.6272,12 h -73.4517 m -438.6532,0 h 245.0183 m -438.6531,0 h -74.211 m 704.2016,12 h 73.9632 m -253.1708,0 h -269.3195 m -254.0393,0 h 74.9798 m 699.4305,12 h -74.6562 m -272.8206,0 h 108.5552 m -109.2929,0 h -184.3277 m -239.6988,0 h 75.5994 m 694.2122,12 h -75.4768 m -260.4974,0 h 111.6877 m -121.4415,0 h -74.9645 m -121.5915,0 h 111.6572 m -260.3552,0 h -76.3447 m 688.0451,12 h 76.4361 m -209.2294,0 h -111.609 m -97.0304,0 h 75.0075 m -97.2112,0 h -111.5373 m -209.9281,0 h 77.1743 m 681.105,12 h -77.5451 m -227.6734,0 h 111.4929 m -145.8559,0 h -75.0465 m -145.9096,0 h 111.3701 m -227.5599,0 h -78.2289 m 672.3909,12 h 78.9302 m -177.7852,0 h -111.4369 m -121.7884,0 h 75.0678 m -121.9433,0 h -111.334 m -178.2835,0 h 79.3965 m 664.053,12 h -80.5206 m -192.2862,0 h 111.3807 m -170.4991,0 h -75.0491 m -170.5335,0 h 111.3222 m -192.2037,0 h -80.6681 m 652.5122,12 h 81.8751 m -144.316,0 h -111.4825 m -146.5234,0 h 75.0302 m -146.5756,0 h -111.4095 m -144.2727,0 h 81.9014 m 642.706,12 h -84.2158 m -154.396,0 h 111.6879 m -195.4431,0 h -75.0091 m -195.4315,0 h 111.5778 m -154.2294,0 h -83.9841 m 493.076,12 h 220.5513 m -316.5496,0 h -74.9966 m -316.5995,0 h 220.4744 m 480.9747,12 h -201.6963 m -183.1395,0 h 74.9841 m -183.2297,0 h -201.989 m 505.4643,12 h 182.572 m -302.8162,0 h -74.9717 m -303.4205,0 h 183.1117 m 490.6491,12 h -163.0341 m -207.3033,0 h 75.002 m -207.2843,0 h -163.899 m 515.2543,12 h 143.2032 m -287.1933,0 h -75.1239 m -288.2553,0 h 144.0435 m 497.9774,12 h -124.0521 m -229.7629,0 h 75.2542 m -230.0366,0 h -124.792 m 511.2651,12 h 113.2769 m -269.6325,0 h -75.4494 m -270.401,0 h 113.885 m 492.0088,12 h -108.5714 m -227.037,0 h 75.6747 m -227.2029,0 h -109.4986 m 473.2639,12 h 112.3595 m -248.7441,0 h -76.0095 m -249.8899,0 h 113.4714 m 449.1758,12 h -122.2121 m -190.7845,0 h 76.4265 m -190.6518,0 h -123.4932 m 403.3213,12 h 134.3819 m -223.1119,0 h -77.385 m -224.1717,0 h 135.3447 m 373.7602,12 h -150.1691 m -138.1852,0 h 84.114 m -137.8663,0 h -151.6189 m 16.3128,12 h 461.2487 m -18.0495,12 h -425.7052 m 19.9931,12 h 385.6094 m -22.2802,12 h -341.3948 m 27.8849,12 h 284.9872 m -37.4508,12 h -211.182 m 67.226,12 h 78.7242 M 1166.7535,320.57778 v 169.58578 m 12,40.11277 V 277.86165 m 12,-31.13834 v 312.7306 m 12,24.11063 V 222.49238 m 12,-20.89017 v 402.47807 m 12,18.16326 V 183.10531 m 12,-16.94313 v 153.74214 m 0,318.62327 V 473.39387 m 12,-322.55839 v 132.33465 m 0,371.05199 V 511.50886 m 12,-373.72064 V 256.699 m 0,410.66128 V 538.06357 m 12,-412.44539 V 234.1224 m 0,445.22328 V 559.17784 m 12,-444.77247 v 101.60634 m 0,474.38808 V 569.24465 m 12,-464.17439 v 96.33477 m 0,498.63788 V 569.04469 m 12,-473.060612 v 91.610712 m 0,521.27506 V 564.68227 m 12,-477.40481 v 87.59629 m 0,542.64385 V 553.30507 m 12,-474.007884 V 163.5694 m 0,562.1574 V 541.72866 m 12,-469.770854 v 81.277534 m 0,579.98577 V 530.13039 m 12,-465.184593 V 143.3584 m 0,485.47708 V 518.43989 m 0,134.13813 v 87.53769 m 12,-605.65726 V 58.313347 m 0,448.402853 v 109.57294 m 0,130.49671 V 663.4349 m 12,-611.087502 v 74.543382 m 0,477.36885 v -109.3746 m 0,176.16662 v 81.84452 m 12,-632.41478 V 47.14133 m 0,435.91252 v 109.17628 m 0,165.89489 v -80.84175 m 12,-634.938747 v 72.288067 m 0,465.67476 V 471.22268 m 0,212.11808 v 79.64359 m 12,-653.83638 V 38.010056 m 0,421.381444 v 109.02162 m 0,198.99619 v -78.33457 m 12,-655.000852 v 70.072752 m 0,452.5552 V 447.56033 m 0,246.68592 v 77.0767 m 12,-671.721035 V 30.469946 m 0,405.259204 v 109.27484 m 0,229.81269 v -75.98893 m 12,-671.534266 v 68.560043 m 0,437.493993 V 423.92165 m 0,279.02435 v 74.87099 m 12,-685.11993 V 24.563851 m 0,387.559959 v 109.56724 m 0,258.76582 v -74.02361 m 12,-684.301149 v 67.40084 m 0,420.501629 V 400.32596 m 0,308.42701 v 73.8973 m 12,-694.616617 V 20.037492 m 0,368.490628 v 109.84999 m 0,286.11636 v -74.55734 m 12,-691.630305 v 72.442803 m 0,395.910802 V 376.73027 m 0,331.40035 v 77.87377 m 12,1.19962 V 17.069843 m 12,-0.880449 V 788.01526 m 12,0.51101 V 15.582473 m 12,-0.222374 V 788.6605 m 12,-0.22353 V 15.518069 m 12,0.47223 V 787.86053 m 12,-0.94024 V 16.859776 m 12,1.236201 v 71.957464 m 0,398.149119 V 378.05569 m 0,331.35775 v 76.19686 m 12,-697.608447 V 19.745322 m 0,370.092208 v 110.02286 m 0,284.04992 v -74.06304 m 12,-687.966191 v 68.044943 m 0,421.583668 V 401.6623 m 0,306.85744 v 73.24831 m 12,-688.662178 v -68.86399 m 0,389.245988 v 109.67111 m 0,256.16601 v -73.27581 m 12,-678.996474 v 69.253565 m 0,438.502009 V 425.31343 m 0,277.20723 v 73.96175 m 12,-676.356 V 30.182989 m 0,406.956011 v 109.33837 m 0,226.9068 v -75.10855 m 12,-664.470965 v 70.895365 m 0,453.53772 v -109.2566 m 0,244.62983 v 76.14297 m 12,-659.86231 V 37.84627 m 0,423.00635 v 109.14549 m 0,195.77139 v -77.37636 m 12,-646.032687 v 73.042417 m 0,466.42844 V 472.7241 m 0,209.94519 v 78.70303 m 12,-640.14865 V 47.301668 m 0,437.233852 v 109.20623 m 0,162.7258 v -79.79571 m 12,-624.10249 v 75.16064 m 0,477.9222 V 496.32755 m 0,173.98921 v 80.84841 m 12,-615.60073 V 58.78105 m 0,449.32578 v 109.73205 m 0,127.18605 v -82.83451 m 12,-596.610437 v 78.477147 m 0,487.8502 V 519.80926 m 0,129.96396 v 88.51915 m 12,-583.89581 V 72.582665 m 0,458.929015 v 199.72385 m 12,-566.38606 V 80.186585 m 0,462.938705 v 180.64704 m 12,-547.38468 V 88.508719 m 0,466.182771 v 160.99259 m 12,-526.59187 V 97.309411 m 0,468.349959 v 141.25167 m 12,-503.65494 v -97.23271 m 0,463.27751 v 128.54179 m 12,-479.90649 V 116.23436 m 0,452.66766 v 119.21672 m 12,-451.64131 V 127.40282 m 0,429.82623 V 676.867 m 12,-417.32102 V 139.50642 m 0,395.7034 v 129.52755 m 12,-377.65093 V 152.65777 m 0,355.23073 v 143.56243 m 12,-325.75183 V 168.29542 m 0,299.41092 v 167.84501 m 12,-16.69256 v -434.2062 m 12,17.85395 v 398.246 m 12,-20.44482 V 222.91233 m 12,23.91555 V 556.684 m 12,-31.46235 V 277.2797 m 12,43.36163 v 159.07544"
         style="fill:none;stroke:#005f00;stroke-width:4;stroke-miterlimit:4;stroke-dasharray:none;stroke-opacity:1"
         inkscape:connector-curvature="0" />
    </g>
  </g>
  <g
     style="display:inline"
     id="1-default"
     inkscape:groupmode="layer"
     inkscape:label="2-black">
    <switch
       style="fill:none;stroke:#000000;stroke-width:2.38517618;stroke-miterlimit:4;stroke-opacity:1;stroke-dasharray:none"
       id="switch4"
       transform="matrix(1.677025,0,0,1.677025,1153.4198,11.686678)">
      <g
         style="fill:none;stroke:#000000;stroke-width:2.38517618;stroke-miterlimit:4;stroke-opacity:1;stroke-dasharray:none"
         id="g6">
        <g
           style="fill:none;stroke:#000000;stroke-width:2.38517618;stroke-miterlimit:4;stroke-opacity:1;stroke-dasharray:none"
           id="Layer_1">
          <path
             id="path9"
             d="m 455.76,144.34 c 28.21,64.533 21.02,150.19 -16.556,208.76 -51.7,82.85 -145.74,124.06 -240.93,109.5 C 121.464,452.31 48.424,396.82 18.544,323.71 -18.263,243.06 1.502,138.99 62.202,75.34 c 68.072,-73.65 179.39,-95.438 269.43,-55.875 52.79,22.235 102.99,71.203 124.13,124.88 z M 146.95,65.767 c -66.27,35.266 -106.71,107.27 -98.84,182.89 3.705,28.8 12.122,56.48 28.413,79.584 3.228,3.67 7.924,2.311 12.169,1.669 l 4.647,-2.302 c 40.069,-38.306 78.208,-77.011 118.24,-116.02 1.137,-7.875 -0.18,-17.315 0.455,-25.641 -0.743,-44.578 0.867,-89.245 -0.792,-132.83 -7.292,-10.872 -19.791,-2.566 -29.7,-1.241 -11.99,3.303 -23.41,8.481 -34.6,13.888 z m -21.24,301.47 -2.81,4.866 c -0.394,3.778 -0.065,7.35 2.191,10.059 11.484,9.254 24.509,15.482 37.791,21.488 13.306,5.297 27.078,10.855 42.27,10.776 4.791,-1.233 5.466,-6.188 6.352,-10.182 0.989,-41.25 0.263,-80.916 0.527,-121.71 -28.92,27.97 -57.83,55.72 -86.32,84.69 z M 291.46,51.877 c -9.914,-1.326 -22.406,-9.631 -29.7,1.241 -1.664,43.584 -0.047,88.251 -0.792,132.83 0.637,8.325 -0.68,17.766 0.449,25.641 40.031,39.01 78.179,77.714 118.24,116.02 l 4.646,2.302 c 4.252,0.642 8.948,2.001 12.174,-1.669 16.298,-23.104 24.712,-50.784 28.415,-79.584 7.866,-75.619 -32.568,-147.62 -98.85,-182.89 -11.18,-5.41 -22.61,-10.588 -34.59,-13.893 z m -30.49,230.66 c 0.262,40.795 -0.465,80.461 0.529,121.71 0.881,3.993 1.561,8.948 6.352,10.182 15.197,0.079 28.959,-5.479 42.268,-10.776 13.279,-6.006 26.306,-12.234 37.785,-21.488 2.26,-2.709 2.588,-6.281 2.199,-10.059 l -2.813,-4.866 c -28.49,-28.96 -57.4,-56.71 -86.32,-84.69 z"
             inkscape:connector-curvature="0"
             style="fill:none;stroke:#000000;stroke-width:2.38517618;stroke-miterlimit:4;stroke-opacity:1;stroke-dasharray:none" />
        </g>
      </g>
    </switch>
  </g>
</svg>
