<?xml version="1.0" encoding="UTF-8" standalone="no"?>
<!-- Created with Inkscape (http://www.inkscape.org/) -->

<svg
   xmlns:dc="http://purl.org/dc/elements/1.1/"
   xmlns:cc="http://creativecommons.org/ns#"
   xmlns:rdf="http://www.w3.org/1999/02/22-rdf-syntax-ns#"
   xmlns:svg="http://www.w3.org/2000/svg"
   xmlns="http://www.w3.org/2000/svg"
   xmlns:sodipodi="http://sodipodi.sourceforge.net/DTD/sodipodi-0.dtd"
   xmlns:inkscape="http://www.inkscape.org/namespaces/inkscape"
   width="3200"
   height="800"
   id="svg6382"
   version="1.1"
   inkscape:version="0.92.2 5c3e80d, 2017-08-06"
   sodipodi:docname="Shalom.svg">
  <sodipodi:namedview
     id="base"
     pagecolor="#ffffff"
     bordercolor="#666666"
     borderopacity="1.0"
     inkscape:pageopacity="0.0"
     inkscape:pageshadow="2"
     inkscape:zoom="0.365"
     inkscape:cx="1600"
     inkscape:cy="400"
     inkscape:document-units="px"
     inkscape:current-layer="1-default"
     showgrid="false"
     inkscape:window-width="1680"
     inkscape:window-height="1005"
     inkscape:window-x="0"
     inkscape:window-y="1"
     inkscape:window-maximized="1" />
  <defs
     id="defs6384">
    <marker
       style="overflow:visible"
       id="Arrow2Mend"
       refX="0"
       refY="0"
       orient="auto"
       inkscape:stockid="Arrow2Mend">
      <path
         transform="scale(-0.6,-0.6)"
         d="M 8.7185878,4.0337352 -2.2072895,0.01601326 8.7185884,-4.0017078 c -1.7454984,2.3720609 -1.7354408,5.6174519 -6e-7,8.035443 z"
         style="font-size:12px;fill-rule:evenodd;stroke-width:0.625;stroke-linejoin:round"
         id="path4785"
         inkscape:connector-curvature="0" />
    </marker>
  </defs>
  <metadata
     id="metadata6387">
    <rdf:RDF>
      <cc:Work
         rdf:about="">
        <dc:format>image/svg+xml</dc:format>
        <dc:type
           rdf:resource="http://purl.org/dc/dcmitype/StillImage" />
        <dc:title />
      </cc:Work>
    </rdf:RDF>
  </metadata>
  <g
     id="1-default"
     inkscape:groupmode="layer"
     inkscape:label="1-default"
     style="display:inline">
    <g
       id="g9134"
       style="stroke-width:5;stroke-miterlimit:4;stroke-dasharray:none">
      <path
         style="fill:none;stroke:#000000;stroke-width:5;stroke-miterlimit:4;stroke-dasharray:none;stroke-opacity:1"
         sodipodi:nodetypes="cscccsccccccccccscscccccsccccccccccccccsssssccccscscsccccccccccccsccccccccccccccccccccccccccccccccscsccccccccccccccccc"
         inkscape:connector-curvature="0"
         id="path3011"
         d="m 1082.5872,757.93091 c -4.4123,-4.41229 -8.0223,-140.00668 -8.0223,-301.32284 V 163.30792 l 99.2767,3.49508 99.2767,3.49502 3.2315,287.95409 c 2.4948,222.34341 -0.2459,290.16378 -12.0333,297.64472 -18.4027,11.68084 -170.3796,13.38231 -181.7275,2.03494 z M 1243.0337,465.11546 V 200.37763 h -144.4011 v 529.47568 h 144.4011 z m 289.8787,289.72185 c -14.3646,-9.09332 -12.0508,-35.42596 15.0506,-171.29194 17.6136,-88.30297 32.0206,-167.122 32.0156,-175.15537 0,-10.21742 -35.261,-15.64083 -117.3357,-18.05014 l -117.3251,-3.4441 -3.3217,-183.5095 -3.3217,-183.509508 h 205.1967 V 164.27791 h 143.692 c 79.0293,0 146.6251,4.74802 150.2141,10.55138 9.1653,14.83003 -88.7734,557.7386 -103.9242,576.09348 -14.4829,17.53194 -174.5067,20.66046 -200.9377,3.9283 z m 223.1133,-253.62155 c 21.534,-122.43947 42.3873,-240.04608 46.3398,-261.34131 l 7.1862,-38.72342 -141.8671,-3.39441 -141.8671,-3.39425 -6.0168,-72.20058 -6.0169,-72.200583 h -144.4012 l -3.3676,153.425343 -3.3681,153.42533 h 121.0708 c 91.4358,0 122.6213,4.037 127.4007,16.49195 3.4807,9.0705 -7.5194,88.77699 -24.4444,177.12273 -16.9253,88.34575 -30.7731,165.10829 -30.7731,170.57557 0,5.4701 36.2179,8.34487 80.487,6.38785 l 80.487,-3.55815 39.1511,-222.61786 z m 162.2749,248.36457 c -9.8201,-11.83229 -12.9315,-98.95234 -10.643,-298.00113 l 3.2339,-281.28217 95.2245,-3.54987 c 68.0519,-2.53703 98.0435,0.89647 105.1075,12.03331 5.4369,8.57084 9.9686,92.74735 10.0698,187.0593 l 0.1854,171.47727 h 59.541 l 3.3218,-183.5095 3.3216,-183.50952 99.2767,-3.49502 99.2767,-3.49508 v 374.01169 h 71.5733 l 3.3216,-183.50951 3.3222,-183.5095 h 192.5372 v 589.63688 l -362.3929,3.18237 c -297.5201,2.61277 -364.8876,0.18854 -376.2571,-13.53805 z M 2638.9164,465.11546 V 200.37763 h -144.4012 l -0.1853,171.47727 c -0.096,94.31196 -4.6992,178.59824 -10.2178,187.2981 -6.4841,10.22457 -28.7694,14.48217 -62.9912,12.03331 l -52.9582,-3.78894 -3.3216,-183.50951 -3.3217,-183.50952 h -143.1467 l -3.3216,183.50952 -3.3218,183.50951 h -120.3366 l -3.3221,-183.50951 -3.3217,-183.50952 H 1940.975 v 529.47569 h 697.9484 V 465.11618 Z M 484.90993,459.09863 v -294.822 H 1002.339 V 753.91351 H 484.90993 V 459.09506 Z m 490.59171,-3.00834 3.23866,-267.74591 H 508.96255 v 262.73128 c 0,144.50096 3.72586,266.45571 8.27965,271.01056 4.55378,4.5538 108.7927,6.81022 231.6456,5.01393 l 223.36627,-3.26553 3.23866,-267.74589 z M 665.4078,453.08187 V 332.74876 H 821.84121 V 573.41498 H 665.4078 Z m 129.86697,3.00842 -3.51455,-93.26057 h -96.26507 l -3.51448,93.26057 -3.51465,93.26057 h 110.32882 l -3.51466,-93.26057 z" />
      <path
         id="path9137"
         d="m 492.38072,164.27663 -7.47079,7.47079 m 0,19.79899 27.26978,-27.26978 m 19.79899,0 -47.06877,47.06877 m 42.80001,-23.00102 24.06775,-24.06775 m -42.81514,42.81514 -24.05262,24.05262 m 62.599,-42.80001 24.06775,-24.06775 m -62.61413,62.61413 -24.05262,24.05262 m 82.39799,-62.599 24.06775,-24.06775 m -82.41312,82.41312 -24.05262,24.05262 m 102.19698,-82.39799 24.06775,-24.06775 M 508.96255,266.48874 484.90993,290.54136 M 606.9059,188.34438 630.97365,164.27663 m -122.0111,122.0111 -24.05262,24.05262 M 626.70489,188.34438 650.77264,164.27663 M 508.96255,306.08672 484.90993,330.13934 M 646.50388,188.34438 670.57163,164.27663 M 508.96255,325.88571 484.90993,349.93833 M 666.30287,188.34438 690.37062,164.27663 M 508.96255,345.6847 484.90993,369.73732 M 686.10186,188.34438 710.16961,164.27663 M 508.96255,365.48369 484.90993,389.53631 M 705.90085,188.34438 729.9686,164.27663 M 508.96255,385.28268 484.90993,409.3353 m 240.78991,-220.99092 24.06775,-24.06775 m -240.80504,240.80504 -24.05262,24.05262 m 260.5889,-240.78991 24.06775,-24.06775 m -260.60403,260.60403 -24.05262,24.05262 m 280.38789,-260.5889 24.06775,-24.06775 M 508.96255,444.67965 484.90993,468.73227 M 785.09681,188.34438 809.16456,164.27663 M 509.00519,464.43599 484.90993,488.53126 M 804.8958,188.34438 828.96355,164.27663 M 509.06819,484.17199 484.90993,508.33025 M 824.69479,188.34438 848.76254,164.27663 M 680.29041,332.74876 665.4078,347.63137 M 484.90993,528.12924 509.13118,503.90799 M 868.56153,164.27663 844.49378,188.34438 M 665.4078,367.43036 700.0894,332.74876 M 509.32144,523.51671 484.90993,547.92822 M 864.29277,188.34438 888.36052,164.27663 M 719.88838,332.74876 665.4078,387.22935 M 484.90993,567.72721 509.51245,543.1247 M 908.1595,164.27663 884.09175,188.34438 m -174.48534,174.48534 30.08096,-30.08096 m -44.74482,44.74483 -29.53475,29.53474 M 484.90993,587.5262 509.7665,562.66964 M 927.95849,164.27663 903.89074,188.34438 M 729.4054,362.82972 759.48636,332.74876 m -65.31914,65.31915 -28.75942,28.75942 M 484.90993,607.32519 510.095,582.14012 m 437.66248,-417.86349 -24.06775,24.06775 m -174.48534,174.48534 30.08096,-30.08096 m -85.89347,85.89347 -27.98408,27.98408 M 484.90993,627.12418 510.4441,601.59002 m 457.11237,-437.31339 -24.06775,24.06775 m -174.48534,174.48534 30.08096,-30.08096 m -106.46779,106.4678 -27.20875,27.20875 m -180.49787,180.49787 26.02403,-26.02403 m 476.4215,-456.62252 -24.06775,24.06775 M 788.80237,362.82972 818.88333,332.74876 M 691.84121,459.79089 665.4078,486.22429 M 484.90993,666.72217 511.43641,640.19568 M 1002.339,169.09208 978.68708,192.744 M 792.37183,379.05925 821.84121,349.58987 M 691.06584,480.36525 665.4078,506.02328 M 484.90993,686.52116 512.13826,659.29282 M 1002.339,188.89107 978.44466,212.78541 m -185.35379,185.3538 28.75034,-28.75035 M 690.29046,500.93961 665.4078,525.82227 M 484.90993,706.32015 512.91068,678.3194 M 1002.339,208.69006 978.20224,232.82683 M 793.8099,417.21916 821.84121,389.18785 M 689.51509,521.51397 665.4078,545.62126 M 484.90993,726.11913 513.96177,697.0673 M 1002.339,228.48905 977.95982,252.86824 m -183.43089,183.43088 27.31228,-27.31228 m -133.10149,133.1015 -23.33192,23.33191 m -180.49787,180.49787 30.69651,-30.69651 m 571.27896,-551.47994 -12.3205,12.32047 m -96.8475,96.84751 24.6216,-24.62161 m -180.49779,180.49779 -26.59324,26.59325 m -118.03591,118.0359 24.06412,-24.06412 m -174.68392,174.68393 -29.87873,29.87872 m 577.85137,-558.05238 31.4461,-31.44614 m -103.672,103.67204 -24.86402,24.86403 M 795.97223,474.4538 821.84121,448.58482 m -100.76604,100.76604 -24.06412,24.06412 m -180.49853,180.49853 28.47239,-28.47239 m 580.15179,-560.3528 -50.5718,50.5718 m -97.33235,97.33235 25.10645,-25.10645 m -180.49779,180.49779 -25.14992,25.14992 m -79.88125,79.88125 24.06412,-24.06412 m -176.90729,176.9073 -27.65536,27.65535 m 573.33489,-553.53588 34.616,-34.61598 m -45.6298,45.62976 -24.0677,24.0677 m -97.57477,97.57477 25.34887,-25.34887 M 821.84121,488.1828 797.41035,512.61367 m -60.80132,60.80131 24.06412,-24.06412 m -177.4645,177.46451 -27.09815,27.09814 m 573.3349,-553.53588 33.9426,-33.94265 m -64.7554,64.75542 -24.0677,24.0677 M 976.74771,353.07529 1002.339,327.484 M 821.84121,507.98179 798.1294,531.6936 m -41.72138,41.72138 24.06412,-24.06412 m -177.83981,177.83982 -26.72284,26.72283 m 573.33491,-553.53588 33.2693,-33.26933 m -83.8811,83.88109 -24.0677,24.0677 m -98.05961,98.05961 25.83371,-25.83371 m -180.49779,180.49779 -45.6342,45.6342 M 595.70848,753.91351 622.12871,727.49329 M 1349.5442,19.876752 1338.8677,30.553327 m -169.8243,169.824303 32.596,-32.59601 m -103.0068,103.00676 -24.0677,24.0677 m -98.30203,98.30203 26.07613,-26.07613 M 821.84121,547.57977 796.006,573.41498 M 615.50747,753.91351 641.81349,727.60749 M 1369.3432,19.876752 1339.2197,50.000308 m -150.3774,150.377322 31.9227,-31.9227 m -122.1324,122.13244 -24.0677,24.0677 m -98.54445,98.54446 26.31855,-26.31856 m -180.49779,180.49779 -6.03622,6.03622 m -180.49853,180.49853 26.1986,-26.1986 M 1389.1422,19.876752 1339.5717,69.447288 m -130.9304,130.930342 31.2494,-31.24938 m -141.2581,141.25811 -24.0677,24.0677 m -98.78687,98.78688 26.56097,-26.56098 M 681.36394,727.65502 655.10545,753.91351 M 1378.8567,49.961207 1408.9412,19.876752 m -39.7712,39.77122 -29.2463,29.246297 m -111.4834,111.483361 30.5761,-30.57607 m -160.3838,160.38379 -24.0677,24.0677 m -99.02929,99.0293 26.80339,-26.8034 M 701.22282,727.59514 674.90444,753.91351 M 1398.6557,49.961207 1428.7402,19.876752 m -60.0145,60.014539 -28.45,28.449959 m -97.242,97.24199 30.1423,-30.14231 m -174.5434,174.54341 -24.0677,24.0677 M 975.28414,473.3328 1002.339,446.27794 M 721.21756,727.39939 694.70343,753.91351 M 1418.4547,49.961207 1448.5392,19.876752 m -80.2579,80.257858 -27.6536,27.65362 m -97.594,97.594 30.362,-30.36204 m -174.7631,174.76314 -24.0677,24.0677 m -99.52318,99.52318 27.29728,-27.29728 m -261.106,261.106 -26.73058,26.73058 M 1438.2537,49.961207 1468.3382,19.876752 m -100.5012,100.501178 -26.8573,26.85728 m -97.946,97.94601 30.5818,-30.58176 m -174.9829,174.98286 -24.0677,24.0677 m -99.7656,99.7656 27.5397,-27.5397 M 761.29618,726.91874 734.30141,753.91351 M 1458.0527,49.961207 1488.1372,19.876752 m -120.7445,120.744498 -26.061,26.06094 m -98.298,98.29802 30.8015,-30.80148 m -175.2026,175.20258 -24.0677,24.0677 M 974.55688,533.45703 1002.339,505.67491 M 781.38892,726.625 754.1004,753.91351 m 723.7513,-703.952303 30.0845,-30.084455 m -140.9879,140.987818 -25.2646,25.2646 m -98.65,98.65003 31.0212,-31.02121 M 1098.6326,429.1803 1074.5649,453.248 M 974.31446,553.49844 1002.339,525.4739 M 801.48166,726.33125 773.89939,753.91351 M 1497.6507,49.961207 1527.7351,19.876752 m -161.2311,161.231138 -24.4683,24.46826 m -99.002,99.00204 31.2409,-31.24093 m -175.642,175.64203 -24.0223,24.02227 M 974.07204,573.53985 1002.339,545.27289 M 821.57439,726.0375 793.69838,753.91351 M 1514.0658,53.345084 1543.8711,23.539782 m -177.8114,177.811428 -23.672,23.67192 m -99.354,99.35405 31.4607,-31.46066 m -175.8618,175.86176 -23.9676,23.96755 M 973.82962,593.58127 1002.339,565.07188 M 841.66713,725.74375 813.49737,753.91351 M 1515.5888,71.621031 1543.8711,43.338772 m -178.2558,178.255818 -22.8755,22.87552 m -99.7061,99.70606 31.6804,-31.68038 m -176.0815,176.08148 -23.9128,23.91283 M 973.5872,613.62268 1002.339,584.87087 M 861.75987,725.45 833.29636,753.91351 M 1517.1119,89.896979 1543.8711,63.137762 m -178.7002,178.700208 -22.0791,22.07913 m -100.0581,100.05806 31.9001,-31.9001 m -176.3012,176.3012 -23.7647,23.7647 M 973.34478,633.66409 1002.339,604.66986 m -120.48639,120.48639 -28.75726,28.75726 m 665.53955,-645.74058 25.2362,-25.236178 m -179.1446,179.144608 -21.2827,21.28272 m -100.4101,100.41007 32.1198,-32.11983 m -176.5209,176.52093 -23.5985,23.59851 M 973.10235,653.7055 1002.339,624.46885 m -100.39366,100.39366 -29.051,29.051 m 647.26366,-627.46463 23.7131,-23.71314 m -179.589,179.58901 -20.4863,20.48631 m -100.7621,100.76208 32.3396,-32.33955 m -176.7407,176.74065 -23.4306,23.43058 M 972.85993,673.74691 1002.339,644.26784 m -80.30092,80.30092 -29.34475,29.34475 m 628.98767,-609.18866 22.1901,-22.19012 m -180.0334,180.0334 -19.6899,19.68991 m -101.1141,101.11409 32.5593,-32.55928 m -176.9604,176.96038 -23.1442,23.14421 M 972.61751,693.78832 1002.339,664.06683 m -60.20818,60.20818 -29.6385,29.6385 m 610.71168,-590.91269 20.6671,-20.6671 m -180.4778,180.4778 -18.8935,18.8935 m -101.4661,101.4661 32.779,-32.779 m -177.1801,177.1801 -22.8578,22.85784 M 972.37509,713.82973 1002.339,683.86582 m -40.11544,40.11544 -29.93225,29.93225 m 592.43569,-572.63672 19.1441,-19.14408 m -180.9222,180.9222 -18.0971,18.09709 m -101.8181,101.81811 32.9987,-32.99873 m -177.3998,177.39983 -22.5115,22.51149 m -124.0308,124.03081 50.2487,-50.2487 m 559.1859,-539.3869 -30.2159,30.21585 m -186.1052,186.10522 23.7871,-23.7871 m -92.7387,92.73877 -33.2185,33.21845 m -166.4846,166.48463 22.0835,-22.08353 m -96.2936,96.2936 -30.44971,30.44971 m 578.75611,-558.95712 30.6785,-30.67848 m -192.534,192.53397 -30.4657,30.46569 m -115.2905,115.29052 33.4136,-33.41362 m -177.8147,177.81472 -21.6313,21.63129 m -85.31302,85.31303 10.65072,-10.65072 m 598.7839,-578.98488 -31.1411,31.14111 m -192.4232,192.42317 31.0303,-31.03031 m -131.966,131.96604 -33.5892,33.58916 m -165.4175,165.41747 21.0164,-21.01637 m 522.2893,-502.49027 -31.6038,31.60375 m -192.5252,192.52516 31.595,-31.59494 m -151.5895,151.5895 -33.7647,33.76469 m -164.763,164.76297 20.3619,-20.36187 m 542.0883,-522.28926 -32.0664,32.06638 m -192.6272,192.62716 32.1596,-32.15957 m -171.213,171.21295 -33.9402,33.94023 M 1079.16,725.8388 l 19.4726,-19.47264 m 561.8872,-542.08825 -32.529,32.52901 m -192.7291,192.72916 32.7242,-32.7242 m -190.9226,190.92259 -34.0296,34.02958 m -162.6262,162.62625 18.2251,-18.22515 m 581.6862,-561.88724 -32.9916,32.99165 m -192.8312,192.83115 33.2635,-33.26348 m -210.65,210.65003 -34.0758,34.07578 m -157.8655,157.86551 29.5752,-29.57524 m 585.2819,-565.48285 -33.3618,33.36173 m -193.0111,193.01111 33.7827,-33.78264 m -230.2794,230.27939 -34.122,34.12198 m -141.5301,141.53014 33.0388,-33.03886 m 585.0896,-565.29063 -33.6321,33.63216 m -193.2752,193.27518 34.1819,-34.18191 m -249.7773,249.77727 -34.0956,34.09564 m -123.2888,123.28877 34.5965,-34.59648 m 584.6521,-564.85305 -33.6573,33.65724 m -193.8536,193.85366 34.6726,-34.67264 m -269.1495,269.14949 -33.972,33.972 m -104.339,104.33899 35.4457,-35.44569 m 583.9855,-564.18653 -33.4534,33.45337 m -194.7538,194.75387 34.9667,-34.96677 m -288.1248,288.12485 -33.7269,33.7269 m -84.8229,84.82288 35.7286,-35.72857 m 583.0894,-563.2904 -33.0199,33.0199 m -196.2552,196.25519 35.0229,-35.02295 m -306.4357,306.4357 -33.3072,33.30724 m -64.8457,64.84569 35.5504,-35.55037 m 581.8822,-562.08324 -32.2754,32.27539 m -198.7944,198.79446 34.4653,-34.46537 m -323.3299,323.32992 -32.6525,32.65251 m -44.4259,44.42586 34.9296,-34.92953 m 580.2337,-560.43474 -31.0895,31.08955 m -204.3292,204.32917 32.3773,-32.37736 m -336.1759,336.17592 -54.9241,54.92414 m 582.3882,-562.58922 28.8941,-28.89409 m -219.7263,219.72626 -33.5123,33.51229 m -336.0908,336.09081 30.9457,-30.94571 m 565.686,-545.88695 -31.4163,31.41629 m -233.2302,233.23014 35.3135,-35.31347 M 1836.162,206.4246 1802.29,240.29659 m -233.1332,233.13328 36.7213,-36.72138 m 227.3842,-207.58519 -35.2814,35.28143 m -233.4046,233.4046 37.8668,-37.86681 m 309.4831,-289.68406 -1.0463,1.04624 m -117.2081,117.20816 36.2409,-36.24091 m -231.2721,231.27206 -38.6659,38.66589 m 350.6749,-330.87593 21.8422,-21.84218 m -106.0655,106.06551 -37.0637,37.06369 m -234.2095,234.20951 39.3741,-39.37412 m 358.5303,-338.73125 -42.6381,42.63811 m -125.3549,125.35483 37.6549,-37.65484 m -232.5536,232.55358 -39.8343,39.83429 m 390.8717,-371.07276 32.4199,-32.41988 m -32.6481,32.64813 -30.7859,30.78591 m -129.369,129.36895 38.0834,-38.08337 m -233.2751,233.27514 -40.1217,40.12164 m 415.4955,-395.69652 33.1866,-33.18655 m -53.2138,53.21379 -31.0162,31.01619 m -133.383,133.38305 38.3932,-38.39321 m -233.9606,233.96061 -40.3295,40.32945 m 440.1223,-420.32333 33.8718,-33.87175 m -73.698,73.69798 -31.2465,31.24646 m -137.3971,137.39716 38.6154,-38.6154 m -234.5585,234.55843 -40.3123,40.3123 m 464.5242,-444.72518 34.3211,-34.32111 m -93.9463,93.94633 -31.4767,31.47674 m -141.4113,141.41127 38.7421,-38.74211 m -234.959,234.95897 -40.2154,40.21542 m 488.7445,-468.94551 34.2984,-34.29836 m -113.7226,113.72257 -31.707,31.70702 m -145.4254,145.42537 38.81,-38.80998 m -235.2434,235.24344 -39.5816,39.58153 m 512.3706,-492.57159 33.4652,-33.46517 m -132.6884,132.68837 -31.9373,31.93729 m -149.4395,149.43949 38.7747,-38.77472 m -235.3145,235.31454 -38.0474,38.04738 m 534.9862,-515.18718 31.2532,-31.25326 m -150.2754,150.27545 -32.1676,32.16757 m -153.4505,153.45054 38.7056,-38.70564 m -235.2183,235.21829 -34.4166,34.41668 m 555.3686,-535.56963 26.2637,-26.26369 m -165.0849,165.08487 -32.3978,32.39785 m -157.4453,157.44529 38.4943,-38.49433 m -232.2511,232.25108 -28.4421,28.44207 m 556.0799,-536.28083 28.392,-28.39204 m -172.4299,172.4299 -32.6281,32.62812 m -161.4401,161.44005 38.2761,-38.27609 m -211.5659,211.56595 -32.0573,32.05724 m 543.8052,-524.00615 30.2939,-30.29395 m -174.6838,174.68382 -32.8584,32.8584 m -165.4348,165.4348 37.899,-37.899 m -188.4938,188.49377 -34.1842,34.18418 m 527.8141,-508.01504 31.4114,-31.41142 m -176.1533,176.1533 -33.0887,33.08868 m -169.4295,169.42955 37.5219,-37.52191 m -164.3574,164.35738 -35.9787,35.97873 m 611.9945,-592.19556 1.4868,-1.48677 m -70.8233,70.82326 -32.2317,32.23175 m -178.4125,178.41245 33.3186,-33.31857 m -169.7837,169.78369 -36.9596,36.95956 m -140.0051,140.00517 37.6098,-37.60986 m 577.8089,-558.0099 -22.3732,22.37318 m -100.8512,100.85126 32.7376,-32.73763 m -178.1835,178.18352 -33.4918,33.49179 m -177.4765,177.47649 36.384,-36.38403 m -113.8993,113.89936 -39.0599,39.0599 m 573.4757,-553.67669 43.2596,-43.2596 m -110.3103,110.31027 -33.0836,33.0836 m -179.4629,179.46291 33.665,-33.66501 m -179.6252,179.62515 -35.5681,35.56816 m -92.5847,92.58468 40.0091,-40.00912 m 577.4821,-557.6831 -32.2991,32.29911 m -31.8469,31.84692 31.8302,-31.83021 m -97.9252,97.92523 -33.3223,33.32226 m -179.9881,179.98815 33.8382,-33.83824 m -184.7692,184.76919 -34.6491,34.64915 m -68.0304,68.03034 40.3946,-40.39455 m 577.2888,-557.4898 -33.0216,33.02156 m -52.0109,52.01088 31.8302,-31.83021 m -97.1998,97.19981 -33.3307,33.3307 m -180.4361,180.4361 33.9342,-33.93418 m -190.1655,190.1655 -33.4779,33.47787 m -42.7279,42.72796 40.0319,-40.03195 m 577.0955,-557.2965 -33.744,33.74402 m -72.1749,72.17485 31.8302,-31.83021 m -96.5453,96.54536 -33.2682,33.26816 m -180.8151,180.81512 33.9612,-33.96119 m -195.9869,195.98687 -48.3203,48.32034 m 581.1183,-561.3193 34.4665,-34.46649 m -94.9751,94.9751 -31.8302,31.83021 m -97.2663,97.26631 33.0511,-33.05118 m -180.2571,180.25713 -33.9882,33.98821 m -185.9239,185.92391 16.9748,-16.97483 m 594.7363,-574.93732 -35.1889,35.18895 m -112.5028,112.50278 31.8302,-31.83021 m -95.6075,95.6075 -32.772,32.772 m -181.4946,181.49458 33.9366,-33.93658 m 412.3205,-392.52149 -35.9114,35.91142 m -132.6668,132.66675 31.8302,-31.83021 m -95.2211,95.22114 -32.4413,32.44132 m -181.7003,181.70024 33.7902,-33.79018 m 432.8419,-413.04295 -36.6339,36.63389 m -152.8307,152.83071 31.8302,-31.8302 m -94.8347,94.83477 -32.1107,32.11066 m -181.8081,181.80808 33.546,-33.54597 m 445.2415,-425.44251 -29.2345,29.23446 m -172.9947,172.9947 31.8303,-31.83023 m -94.4485,94.44842 -31.7799,31.77999 m -181.7673,181.76725 33.1531,-33.15309 m 445.2415,-425.44251 -24.4258,24.42576 m -178.1684,178.1684 31.8303,-31.83025 m -94.0621,94.06206 -31.4493,31.44932 m -181.5629,181.56291 32.5967,-32.5967 m 445.2415,-425.44251 -24.0738,24.07375 m -178.8854,178.88541 31.8303,-31.83028 m -93.6757,93.6757 -31.1186,31.11866 m -181.136,181.13594 31.8177,-31.81768 m 445.2415,-425.44252 -23.7217,23.72175 m -179.6025,179.60242 31.8303,-31.83028 m -93.2893,93.28932 -30.788,30.78799 m -180.3261,180.32611 30.6558,-30.6558 m 525.2807,-505.48175 -1.8557,1.85573 m -101.5532,101.55324 23.3697,-23.36974 m -171.8589,171.85889 -31.8303,31.83028 m -91.5299,91.52998 30.4573,-30.45733 m -180.4797,180.47968 -28.9609,28.96093 m 552.0209,-532.2219 22.0197,-22.01976 m -99.8382,99.83822 -23.0177,23.01773 m -181.0365,181.03643 31.8303,-31.83027 m -92.5165,92.51655 -30.1267,30.12666 M 1914.9093,741.446 1940.975,715.38033 m 564.8787,-545.07973 -42.1838,42.1838 m -100.1191,100.11913 22.6657,-22.66572 m -172.5889,172.58889 -31.8303,31.83027 m -73.0404,73.0404 30.0804,-30.08033 m -192.537,192.53699 -23.2472,23.24719 m 572.5226,-552.72359 30.077,-30.07703 m -31.1386,31.13865 -31.2092,31.20918 m -99.4021,99.40208 22.3137,-22.31371 m -172.9539,172.95389 -31.8303,31.83027 m -52.8764,52.87641 30.0804,-30.08033 m -192.537,192.53699 -27.6925,27.6925 m 576.9679,-557.1689 30.077,-30.07703 m -50.9591,50.95906 -31.5528,31.5528 m -98.685,98.68503 21.9617,-21.9617 m -173.3189,173.31888 -31.8303,31.83028 m -32.7124,32.71242 30.0804,-30.08033 m -192.537,192.53699 -29.9729,29.97287 m 579.2483,-559.44927 30.077,-30.07703 m -70.7795,70.77947 -31.8964,31.89643 m -97.968,97.96797 21.6097,-21.60969 m -173.6839,173.68388 -44.3787,44.37871 m -193.8644,193.86445 31.4078,-31.40779 m 579.3524,-559.55343 -30.0771,30.07703 m -92.7629,92.7629 32.2401,-32.24005 m -108.2333,108.2333 -21.2577,21.25768 m -177.0059,177.00591 24.2147,-24.21472 m -186.6714,186.67138 -32.359,32.35904 m 581.6344,-561.83544 30.0771,-30.07703 m -110.4203,110.42028 -32.5837,32.58368 m -96.5339,96.53389 20.9057,-20.90568 m -174.4139,174.41387 -4.0507,4.05073 m -195.4626,195.46261 33.0059,-33.00595 m 579.3525,-559.55343 -30.0771,30.07703 m -133.0909,133.09097 32.9273,-32.92731 m -108.1905,108.19046 -20.5537,20.55369 m -334.0269,334.02687 33.4583,-33.45828 m 579.3524,-559.55343 -30.077,30.07703 m -153.255,153.255 33.2709,-33.27093 m -108.169,108.16904 -20.2017,20.20169 m -314.9046,314.90457 33.783,-33.78297 m 572.0776,-552.2786 -22.8022,22.8022 m -173.419,173.41897 33.6145,-33.61449 m -108.1476,108.14762 -19.8497,19.84969 m -295.6528,295.6528 33.9782,-33.97819 m 552.2786,-532.47961 -18.0544,18.0544 m -178.5317,178.53174 33.958,-33.95804 m -108.1262,108.1262 -19.4977,19.49769 m -276.3259,276.32588 34.0983,-34.09826 m 532.4796,-512.68062 -18.0544,18.0544 m -178.8967,178.89672 34.2548,-34.25483 m -108.058,108.05801 -19.1457,19.14569 m -256.9567,256.95676 34.1761,-34.17613 m 512.6806,-492.88163 -18.0544,18.0544 m -179.2617,179.2617 34.4821,-34.48205 m -107.9203,107.92025 -18.7937,18.79369 m -237.4755,237.47554 34.1419,-34.1419 m 492.8816,-473.08264 -18.0544,18.0544 m -179.6267,179.62667 34.5506,-34.55061 m -107.6238,107.62384 -18.4417,18.4417 m -217.9833,217.98334 34.0967,-34.0967 m 473.0826,-453.28365 -18.0544,18.0544 m -179.9916,179.99165 34.5316,-34.53162 m -97.2348,97.2348 -28.0948,28.09477 m -198.4912,198.49116 34.0516,-34.05151 m 453.2836,-433.48466 -18.0544,18.0544 m -180.3566,180.35662 34.2556,-34.25562 m -76.7948,76.79484 -31.265,31.26492 m -195.2758,195.27582 34.0063,-34.00632 m 433.4847,-413.68567 -18.0544,18.0544 m -180.7216,180.7216 33.8164,-33.81642 m -56.1916,56.19167 -32.5869,32.58687 m -193.8295,193.82946 33.8819,-33.88191 m 413.6857,-393.88668 -18.0544,18.0544 m -181.0866,181.08658 33.1427,-33.14268 m -35.354,35.35396 -33.8963,33.89638 m -192.3757,192.3757 33.7376,-33.73766 m 393.8867,-374.08769 -18.0544,18.0544 m -198.0122,198.01224 48.6511,-48.65117 m -206.6722,206.67222 -33.5934,33.5934 m 389.6267,-369.8277 18.0544,-18.0544 m -169.6868,169.68678 -24.7503,24.75037 m -193.3007,193.3007 33.4491,-33.44915 m 354.2887,-334.48971 -18.0544,18.0544 m -349.7402,349.7402 33.3049,-33.30489 m 334.4897,-314.69072 -18.0544,18.0544 m -329.7742,329.77424 33.1379,-33.13792 m 314.6907,-294.89173 -18.0544,18.0544 m -309.7998,309.79985 32.9625,-32.96252 m 294.8917,-275.09274 -18.0474,18.0474 m -289.8324,289.83245 32.7871,-32.78711 m 275.0927,-255.29375 -18.0474,18.0474 m -269.8581,269.85805 32.6118,-32.6117 m 255.2937,-235.49476 -18.0474,18.0474 m -249.8837,249.88366 32.4363,-32.4363 m 235.4948,-215.69577 -18.0474,18.0474 m -229.9093,229.90926 32.2609,-32.26089 m 215.6958,-195.89678 -18.0474,18.0474 m -209.9349,209.93487 32.0855,-32.08549 m 195.8968,-176.09779 -18.0474,18.0474 m -189.9605,189.96047 31.9101,-31.91008 m 176.0978,-156.2988 -18.0474,18.0474 m -169.9861,169.98607 31.7347,-31.73467 m 156.2988,-136.49981 -18.0474,18.0474 m -150.0117,150.01168 31.5593,-31.55927 m 136.4998,-116.70082 -18.0474,18.0474 m -130.0373,130.03728 31.3839,-31.38386 m 116.7008,-96.90183 -18.0474,18.0474 m -110.0629,110.06289 31.2085,-31.20846 m 96.9018,-77.10284 -18.0474,18.0474 m -90.0885,90.08849 31.0331,-31.03305 m 77.1028,-57.30385 -18.0474,18.0474 m -70.1141,70.11409 30.8577,-30.85764 m 57.3038,-37.50486 -18.0474,18.0474 m -50.1397,50.1397 30.6822,-30.68224 m 37.5049,-17.70587 -48.2127,48.2127 m 19.9744,-0.1754 28.2383,-28.23831 m 0,19.79899 -8.2639,8.26391 m -2162.47037,-6.09654 -1.3266,-1.3266 m 0,-19.79899 21.12559,21.12559 m 19.79899,0 -40.92458,-40.92458 m 0,-19.79899 60.72357,60.72357 m -31.23185,-51.03083 -29.49172,-29.49173 m 51.52342,51.52342 28.99914,28.99914 m -52.35248,-72.15147 -28.17008,-28.17008 m 72.43344,72.43344 27.88811,27.88811 m -73.02727,-92.82626 -27.29428,-27.29428 m 92.86505,92.86505 27.25549,27.25549 M 511.44881,640.53286 484.90993,613.99398 m 113.12534,113.12534 26.79419,26.79419 M 510.91625,620.20132 484.90993,594.19499 m 133.23649,133.23649 26.48203,26.48203 M 510.40089,599.88697 484.90993,574.396 m 153.19124,153.19124 26.32627,26.32627 M 510.05453,579.74162 484.90993,554.59701 m 173.09883,173.09883 26.21767,26.21767 M 509.71475,559.60285 484.90993,534.79802 m 192.86782,192.86782 26.24767,26.24767 M 509.47779,539.56689 484.90993,514.99903 m 212.60728,212.60728 26.3072,26.3072 m -214.54138,-234.34037 -24.3731,-24.3731 m 232.2433,232.2433 26.47017,26.47017 M 509.11745,499.60858 484.90993,475.40105 m 251.83046,251.83047 26.682,26.68199 M 509.05406,479.74619 484.90993,455.60206 m 271.38973,271.38973 26.92172,26.92172 M 508.99066,459.88381 484.90993,435.80307 m 290.90344,290.90344 27.207,27.207 M 508.96255,440.0567 484.90993,416.00408 m 310.41714,310.41715 27.49229,27.49228 M 508.96255,420.25771 484.90993,396.20509 m 329.93085,329.93085 27.77757,27.77757 M 508.96255,400.45872 484.90993,376.4061 m 180.49787,180.49787 16.51101,16.51101 m 180.49853,180.49853 -28.06285,-28.06285 m -349.44456,-369.24355 24.05262,24.05262 m 192.75525,192.75525 -36.31,-36.31 m 188.46039,188.4604 28.34814,28.34813 M 508.96255,360.86074 484.90993,336.80812 m 180.49787,180.49787 23.38459,23.3846 m 32.7244,32.72439 -24.06412,-24.06412 m 175.92923,175.92923 28.63342,28.63342 M 508.96255,341.06175 484.90993,317.00913 M 665.4078,497.507 l 24.10365,24.10365 m 51.80433,51.80433 -24.06412,-24.06412 m 175.64395,175.64395 28.9187,28.9187 M 508.96255,321.26276 484.90993,297.21014 m 180.49787,180.49787 24.8227,24.8227 m 70.88427,70.88427 -24.06412,-24.06412 m 175.35866,175.35867 29.20399,29.20398 M 508.96255,301.46377 484.90993,277.41115 m 180.49787,180.49787 25.54175,25.54176 m 89.96421,89.9642 -24.06412,-24.06412 m 175.07338,175.07339 29.48927,29.48926 M 508.96255,281.66478 484.90993,257.61216 m 180.49787,180.49787 26.26081,26.26081 m 109.04414,109.04414 -24.06412,-24.06412 m 174.7881,174.7881 29.77455,29.77455 M 508.96255,261.86579 484.90993,237.81317 m 180.49787,180.49787 26.97984,26.97984 m 128.1241,128.1241 -24.06412,-24.06412 m 174.50281,174.50282 30.05987,30.05983 M 508.96255,242.0668 484.90993,218.01418 m 180.49787,180.49787 27.69886,27.69886 m 128.73455,128.73455 -23.72982,-23.72982 m 174.3635,174.3635 29.86411,29.86411 M 508.96255,222.26781 484.90993,198.21519 m 180.49787,180.49787 28.41788,28.41788 m 128.01553,128.01553 -24.5052,-24.50519 m 175.3755,175.3755 29.62749,29.62748 M 508.96255,202.46882 484.90993,178.4162 m 180.49787,180.49787 29.1369,29.1369 m 127.29651,127.29651 -25.28057,-25.28057 m 176.3875,176.38751 29.39086,29.39085 M 514.6371,188.34438 490.56935,164.27663 M 665.4078,339.11508 695.26372,368.971 m 126.57749,126.57749 -26.05595,-26.05594 m 177.39951,177.3995 29.15423,29.15423 m 83.789,83.78901 -4.3784,-4.37845 m -571.38126,-591.18021 24.06775,24.06775 m 174.48534,174.48534 -30.08096,-30.08096 m 116.16381,116.16381 26.83693,26.83693 m 180.49779,180.49779 -28.9176,-28.9176 m 106.1779,106.17787 30.2086,30.20867 M 554.23508,188.34438 530.16732,164.27663 m 168.47213,168.47213 30.08096,30.08096 m 93.1208,93.12079 -27.61228,-27.61228 m 179.42909,179.4291 28.68098,28.68097 m 128.5682,128.56823 -52.3917,-52.39174 M 549.96631,164.27663 574.03407,188.34438 M 748.5194,362.82972 718.43844,332.74876 m 75.01514,75.01513 28.38763,28.38763 M 1002.339,616.64931 973.89465,588.20496 m 103.85875,103.85874 20.8792,20.87921 m 52.5831,52.58311 -35.6727,-35.67271 m -545.7777,-565.57668 24.06776,24.06775 m 174.48533,174.48534 -30.08096,-30.08096 m 54.4408,54.44079 29.16298,29.16298 M 1002.339,596.85032 974.13128,568.6426 m 102.96652,102.96648 21.5348,21.53484 m 72.4015,72.40146 -35.6921,-35.69207 m -545.7777,-565.57668 24.06775,24.06775 m 174.48534,174.48534 -30.08097,-30.08096 m 33.86646,33.86645 29.93833,29.93833 M 1002.339,577.05133 974.3679,549.08024 m 102.2265,102.22652 22.0382,22.03818 m 91.747,91.74701 -35.2386,-35.23864 m -545.77771,-565.57668 24.06775,24.06775 m 188.41017,188.41017 -44.0058,-44.00579 m 196.76912,196.76911 27.73447,27.73448 m 96.2936,96.29359 -22.4855,-22.48546 m 98.7929,98.79283 34.3772,34.37719 M 653.23002,188.34438 629.16227,164.27663 m 168.47214,168.47213 24.2068,24.2068 M 1002.339,537.45335 974.84116,509.95551 m 100.94044,100.94044 22.851,22.851 m 129.1513,129.15128 -33.0449,-33.04492 m -545.77773,-565.57668 24.06775,24.06775 m 148.81219,148.81219 -4.40781,-4.40781 m 157.64438,157.64439 27.26122,27.26121 m 96.2936,96.2936 -23.1459,-23.1459 m 139.0512,139.05125 30.9383,30.93824 M 692.828,188.34438 668.76025,164.27663 m 306.55416,306.55415 27.02459,27.02459 m 96.2936,96.2936 -23.4382,-23.43819 m 159.1425,159.14253 27.3087,27.30868 M 712.62699,188.34438 688.55924,164.27663 m 287.00062,287.00061 26.77914,26.77914 m 96.2936,96.29361 -23.6072,-23.60724 m 168.0083,168.00834 26.7564,26.75644 M 732.42598,188.34438 708.35823,164.27663 m 267.43825,267.43825 26.54252,26.54252 m 96.2936,96.2936 -23.7763,-23.77627 m 168.1774,168.17737 29.7468,29.74681 M 752.22497,188.34438 728.15722,164.27663 m 247.87589,247.87589 26.30589,26.30589 m 96.2936,96.2936 -23.9174,-23.91742 m 168.3185,168.31852 31.3863,31.3863 M 772.02396,188.34438 747.95621,164.27663 m 228.31353,228.31352 26.06926,26.06927 m 96.2936,96.2936 -23.9724,-23.97245 m 168.3735,168.37355 32.452,32.45197 M 791.82295,188.34438 767.7552,164.27663 m 208.75117,208.75116 25.83263,25.83264 m 96.2936,96.2936 -24.0275,-24.02747 m 168.4286,168.42857 33.1501,33.15012 M 811.62194,188.34438 787.55419,164.27663 m 189.1888,189.1888 25.59601,25.59601 m 96.2936,96.2936 -24.0677,-24.0677 m 168.4688,168.4688 33.6026,33.60262 M 831.42093,188.34438 807.35318,164.27663 m 169.62644,169.62644 25.35938,25.35938 m 96.2936,96.2936 -24.0677,-24.0677 m 168.4688,168.4688 33.8881,33.88814 M 851.21992,188.34438 827.15217,164.27663 m 150.06408,150.06407 25.12275,25.12276 m 96.2936,96.2936 -24.0677,-24.0677 m 168.4688,168.4688 34.058,34.05797 M 871.01891,188.34438 846.95116,164.27663 m 130.50171,130.50171 24.88613,24.88613 m 96.2936,96.2936 -24.0677,-24.0677 m 168.4688,168.4688 34.139,34.13895 M 890.8179,188.34438 866.75015,164.27663 m 110.93935,110.93935 24.6495,24.6495 m 96.2936,96.2936 -24.0677,-24.0677 m 168.4688,168.4688 34.0925,34.09253 M 910.61689,188.34438 886.54914,164.27663 m 91.37699,91.37698 24.41287,24.41288 m 96.2936,96.2936 -24.0677,-24.0677 m 168.4688,168.4688 34.0461,34.04612 M 930.41588,188.34438 906.34813,164.27663 m 71.81462,71.81462 24.17625,24.17625 m 96.2936,96.2936 -24.0677,-24.0677 m 168.4688,168.4688 33.9997,33.9997 M 950.21487,188.34438 926.14712,164.27663 m 52.25226,52.25226 23.93962,23.93962 m 96.2936,96.2936 -24.0677,-24.0677 m 168.4688,168.4688 33.8236,33.8236 M 970.01386,188.34438 945.94611,164.27663 m 32.6899,32.68989 23.70299,23.703 m 96.2936,96.2936 -24.0677,-24.0677 m 168.4688,168.4688 33.6449,33.64489 m 262.7726,262.77262 -13.9146,-13.91463 m -559.7915,-579.59047 36.5939,36.5939 m 96.2936,96.2936 -24.0677,-24.0677 m 168.4688,168.4688 33.4662,33.46619 m 287.7096,287.70963 -39.7419,-39.74195 M 985.54409,164.27663 1002.339,181.07154 m 96.2936,96.2936 -24.0677,-24.0677 m 168.4688,168.4688 33.2801,33.28012 m 309.6626,309.66261 -59.7911,-59.79116 m -451.6204,-471.41936 24.0677,24.0677 m 177.4565,177.45651 -33.0554,-33.05541 m 285.6205,285.62046 27.9112,27.91121 m 50.1254,50.12538 -40.1876,-40.18751 m -491.9383,-511.73733 24.0677,24.0677 m 177.2318,177.2318 -32.8307,-32.8307 m 288.409,288.40896 27.9319,27.93194 m 67.3118,67.31181 -38.3298,-38.3298 m -513.7917,-533.5907 24.0677,24.0677 m 177.0071,177.00709 -32.606,-32.60599 m 291.4373,291.43734 27.8595,27.85943 m 83.8085,83.80849 -37.5075,-37.5075 m -534.0666,-553.86555 26.2762,26.27615 m 174.5739,174.57393 -32.3813,-32.38128 m 294.5201,294.52011 27.7465,27.74649 m 99.7754,99.77537 -36.9605,-36.96043 m -544.2163,-564.01529 36.7411,36.7411 m 154.5503,154.55023 -32.1566,-32.15657 m 297.692,297.69195 27.6498,27.64986 m 115.0901,115.09008 -36.2901,-36.2901 M 1104.4204,164.359 l 36.0186,36.01863 m 134.5266,134.52652 -31.9319,-31.93185 m 300.9371,300.93714 27.4799,27.47987 m 129.7236,129.72363 -35.038,-35.03807 m -541.1944,-560.99341 35.2961,35.29617 m 114.5028,114.50282 -31.7071,-31.70714 m 102.2576,102.25758 1.5084,1.50837 m 227.7262,227.72627 -27.3099,-27.30988 m 137.881,137.88101 32.732,32.73198 m -537.792,-557.59101 -34.5737,-34.5737 m 97.5704,97.57039 31.4824,31.48243 m 92.6813,92.68129 -22.2711,-22.27112 m 205.5328,205.53277 27.2119,27.21195 m 154.4654,154.46535 -28.0786,-28.07855 m -538.073,-557.87204 33.8512,33.85123 m 74.4554,74.45542 -31.2577,-31.25772 m 101.5276,101.52761 43.0339,43.03388 m 193.2258,193.22579 -27.1195,-27.11953 m 164.1329,164.13294 20.5483,20.54827 M 1219.635,200.37763 1186.5062,167.24886 m 56.5275,56.52748 31.033,31.03301 m 88.8685,88.86852 -18.7389,-18.73891 m 31.8729,31.87292 31.9238,31.92372 m 175.9779,175.97797 -27.0271,-27.02709 m 163.8518,163.85176 21.7823,21.78233 M 1239.434,200.37763 1207.0277,167.97131 m 36.006,36.00604 30.8083,30.8083 m 89.5185,89.51853 -19.5292,-19.5292 m 52.0369,52.0369 32.5225,32.5225 m 158.7231,158.72306 -26.9276,-26.92757 m 163.5706,163.57059 22.6625,22.66249 m -472.802,-492.60101 -46.0682,-46.06818 m 115.9172,115.91725 20.3195,20.31949 m 85.0027,85.00266 -33.1213,-33.12128 m 147.6578,147.65773 26.8888,26.8888 m 159.8553,159.85537 -23.3511,-23.3511 m -478.6475,-498.44646 25.3221,25.32202 m 90.8185,90.81857 -21.1097,-21.10978 m 92.3648,92.36485 33.7696,33.76957 m 124.0458,124.04579 -26.8251,-26.8251 m 163.2227,163.22276 23.8824,23.88239 m -480.3937,-500.19275 -4.5759,-4.57587 m 74.1444,74.14438 21.9,21.90008 m 125.1515,125.15144 -34.5227,-34.52269 m 114.3228,114.32279 26.6239,26.62386 m 160.8422,160.84228 -24.4137,-24.4137 m -390.269,-410.06804 22.6904,22.69037 m 145.6594,145.65946 -35.657,-35.65702 m 97.5755,97.57546 26.4388,26.43883 m 161.347,161.34707 -24.8239,-24.82391 m -393.5952,-413.39423 23.4807,23.48065 m 166.6404,166.64048 -37.194,-37.19399 m 80.6724,80.67241 26.2198,26.21979 m 161.9399,161.93991 -25.2028,-25.2028 m -396.9214,-416.72043 24.271,24.27095 m 188.8307,188.83074 -39.8856,-39.88559 m 63.5501,63.55012 26.0233,26.02325 m 162.6554,162.65544 -25.5622,-25.56226 m -400.2477,-420.04663 25.0612,25.0612 m 240.5781,240.57806 -71.7818,-71.7818 m 209.3514,209.35138 25.8311,25.83113 m 164.0829,164.0829 -20.6287,-20.62872 m -572.8592,-592.65813 25.8515,25.85143 m 242.399,242.39904 -53.4063,-53.40633 m 191.6909,191.6909 26.1,26.09999 m 183.8704,183.87041 -46.5464,-46.54633 m -570.3241,-590.12308 26.6417,26.64165 m 243.833,243.83298 -33.6741,-33.67411 m 173.0607,173.06071 26.3424,26.34238 m 164.2249,164.22494 -31.5647,-31.56469 m 37.691,37.69098 31.7018,31.70176 M 1367.6133,130.5671 1340.1815,103.13521 m 262.8024,262.8024 8.4176,8.41761 m 168.4902,168.49022 -26.5228,-26.5228 m 155.0962,155.0962 32.5099,32.50991 m 58.5607,58.56075 -32.6354,-32.63547 m -627.0838,-646.882798 28.2221,28.222118 m 414.9947,414.99473 -26.7022,-26.70224 m 151.5206,151.52059 33.1233,33.12333 m 78.9521,78.9521 -33.2278,-33.22783 m -647.2478,-667.046776 29.0123,29.012348 m 417.6913,417.691218 -26.8533,-26.85326 m 148.14,148.14003 33.5332,33.53318 m 99.1346,99.13456 -33.6113,-33.6113 m -667.4118,-687.210753 29.8026,29.802578 m 420.3294,420.329455 -26.946,-26.94604 m 144.9144,144.91441 33.7881,33.7881 m 119.1954,119.19544 -33.8732,-33.87319 M 1338.7215,22.479299 1369.3143,53.072108 M 1792.282,476.0398 1765.2432,449.00098 m 141.7944,141.79444 33.9374,33.93737 m 139.1791,139.17908 -34.0579,-34.05784 M 1355.918,19.876752 l 30.0844,30.084455 m 144.5136,144.513573 -5.1154,-5.1154 m 242.8133,242.81331 27.1214,27.12145 m 145.6397,145.63966 -33.9879,-33.98789 m 158.9081,158.90812 34.1363,34.13632 M 1405.8014,49.961207 1375.7169,19.876752 m 147.8837,147.883698 27.1997,27.19965 m 247.523,247.52298 -27.1387,-27.13867 m 135.8294,135.82944 33.961,33.96096 m 178.8841,178.88409 -34.1649,-34.16487 m -690.1783,-709.977278 30.0845,30.084455 m 145.4842,145.484203 -49.2839,-49.28388 m 252.3546,252.35459 27.1559,27.1559 m 139.6638,139.6638 -33.934,-33.93402 m 198.4522,198.45223 34.1199,34.11988 M 1445.3994,49.961207 1415.3149,19.876752 m 104.6859,104.685848 23.8703,23.87033 m 47.4978,47.49779 -31.6528,-31.65281 m 217.4099,217.40992 27.1707,27.17067 m 136.6783,136.67833 -33.8388,-33.83882 m 218.156,218.15602 34.0749,34.0749 M 1465.1984,49.961207 1435.1139,19.876752 m 83.0869,83.086898 25.6703,25.67029 m 67.7821,67.7821 -32.1381,-32.13813 m 200.5816,200.58163 27.108,27.10805 m 133.7703,133.77025 -33.6686,-33.66858 m 237.7848,237.78477 34.0299,34.02991 M 1484.9974,49.961207 1454.9129,19.876752 m 61.4879,61.487937 27.4703,27.470261 m 88.0664,88.0664 -32.6234,-32.62344 m 183.7533,183.75335 27.0454,27.04541 m 130.8622,130.86218 -33.4983,-33.49833 m 257.4135,257.41351 33.9582,33.95826 M 1504.7963,49.961207 1474.7119,19.876752 m 39.889,39.888978 29.2702,29.270231 m 108.3507,108.350699 -33.1088,-33.10875 m 166.9278,166.92771 26.9768,26.97684 m 127.9574,127.9574 -33.3281,-33.32809 m 277.0423,277.04226 33.816,33.81607 M 1543.8711,69.236972 1494.5109,19.876752 m 144.4011,144.401158 33.5941,33.59407 m 143.327,143.32701 -26.7901,-26.79008 m 118.8255,118.82547 33.1065,33.10649 m 297.1871,297.18705 -33.6739,-33.67389 m -690.1783,-709.977278 29.5612,29.56123 m 148.9193,148.919338 -34.0794,-34.07941 m 133.3343,133.3343 26.6033,26.6033 m 122.3264,122.32637 -32.8814,-32.88145 m 316.1935,316.1936 33.5318,33.53171 m -713.9478,-733.746748 -9.7622,-9.76224 m 144.4011,144.401158 34.5648,34.56475 m 108.3608,108.36086 -26.388,-26.38802 m 113.271,113.27098 32.6564,32.65641 m 336.5007,336.50067 -33.3896,-33.38953 m -545.6967,-565.49572 34.9697,34.96968 m 90.7735,90.77356 -26.0827,-26.08276 m 110.4937,110.49375 32.4314,32.43136 m 160.4535,160.45347 -10.2208,-10.2208 m 172.6774,172.67746 33.2434,33.24342 m -543.4851,-563.28412 -35.2793,-35.2793 m 82.6881,82.68805 25.7775,25.7775 m 114.1453,114.14533 -32.2063,-32.20632 m 182.0739,182.07396 30.3849,30.38482 m 195.5277,195.52773 -33.0711,-33.07107 m -545.0632,-564.86219 35.3068,35.30683 m 55.4731,55.47302 -25.2919,-25.29184 m 104.8848,104.88479 31.9813,31.98128 m 200.0514,200.05145 -50.5488,-50.54884 m 213.0055,213.0055 32.8987,32.89872 M 1794.2121,200.784 1759.1342,165.70613 m 48.0738,48.07385 24.7192,24.71913 m 109.0478,109.04782 -31.7562,-31.75624 m 180.8938,180.89382 31.3561,31.35609 m 39.3567,39.35677 -30.0803,-30.08033 m 192.537,192.53699 32.7264,32.72636 m -521.6769,-541.4758 -54.3702,-54.37024 m 129.4824,129.48239 31.5312,31.5312 m 180.4722,180.47224 -31.6997,-31.6997 m 60.7966,60.79656 30.0803,30.08033 m 195.0107,195.01067 -32.554,-32.55401 m -541.8087,-561.60768 35.2437,35.2437 m 104.4589,104.4589 -31.3062,-31.30615 m 179.7137,179.71366 32.0433,32.0433 m 78.9976,78.99761 -30.0803,-30.08033 m 192.537,192.53699 32.3816,32.38166 m -557.1011,-576.90012 -14.6594,-14.65936 m 86.3927,86.39264 31.0811,31.08111 m 180.4294,180.42938 -32.3869,-32.3869 m 92.1644,92.16442 30.6984,30.69841 m 203.0081,203.00807 -32.2093,-32.20931 m -472.5602,-492.35913 30.8561,30.85607 m 180.408,180.40795 -32.7306,-32.7305 m 92.8815,92.88146 30.6984,30.69842 m 222.2827,222.28269 -32.0369,-32.03696 m -492.1341,-511.93308 30.631,30.63103 m 180.3865,180.38653 -33.0741,-33.07411 m 93.5985,93.59851 30.6984,30.69842 m 241.5574,241.5573 -31.8647,-31.8646 M 1910.569,198.347 l 30.406,30.40599 m 180.3651,180.36509 -33.4177,-33.41769 m 94.3156,94.31555 30.6984,30.69842 m 260.8319,260.83192 -31.6923,-31.69225 M 1910.7941,178.77305 1940.975,208.954 m 180.3437,180.34367 -33.7613,-33.76126 m 95.0326,95.03257 30.6984,30.69841 m 280.1065,280.10654 -31.5199,-31.5199 m -540.1614,-559.96044 30.4847,30.48475 m 169.0989,169.09891 -34.1048,-34.10481 m 95.7496,95.74956 30.6984,30.69842 m 299.3812,299.38116 -31.3476,-31.34755 m -540.873,-560.67199 31.1963,31.1963 m 149.1842,149.1842 -34.3541,-34.35408 m 96.4666,96.46657 30.6984,30.69842 m 318.6558,318.65577 -31.1752,-31.17519 m -541.5846,-561.38356 31.9079,31.90787 m 129.2311,129.23106 -34.565,-34.56492 m 97.1836,97.18358 30.6984,30.69842 m 337.9304,337.93039 -31.0028,-31.00284 m -542.2961,-562.09511 32.6194,32.61942 m 109.058,109.05799 -34.5558,-34.55583 m 97.9006,97.90059 30.6984,30.69842 m 164.7232,164.72325 -11.4497,-11.44968 m 173.101,173.10095 30.8305,30.83049 m -540.5072,-560.30618 -33.331,-33.33098 m 87.6692,87.66917 34.4346,34.43462 m 94.8814,94.88138 -30.6984,-30.69841 m 183.255,183.25499 33.1393,33.13935 m 190.7837,190.78371 -30.6581,-30.65814 m -543.6209,-563.41987 33.9442,33.94418 m 68.3417,68.34172 -34.1675,-34.16751 m 99.3346,99.33458 30.6984,30.69841 m 170.816,170.81602 -18.9764,-18.97641 m 20.8944,20.89446 33.9125,33.91241 m 189.1078,189.1078 -30.4858,-30.48579 m -544.0054,-563.80433 34.3287,34.32864 m 47.6222,47.62227 -33.612,-33.61204 m 100.0516,100.05157 30.6984,30.69841 m 170.464,170.46402 -19.3414,-19.34139 m 41.0584,41.05843 34.4897,34.48967 m 188.3582,188.35818 -30.3134,-30.31343 m -543.9384,-563.73732 60.8901,60.89004 m 98.6848,98.68481 -30.6984,-30.69841 m 181.104,181.10406 19.7064,19.70637 m 74.5,74.50002 -32.984,-32.98399 m 192.5344,192.53442 30.1411,30.14108 M 2115.809,205.59712 2077.4541,167.2422 m 108.304,108.30396 30.6984,30.69841 m 169.76,169.76002 -20.0713,-20.07134 m 81.3863,81.38636 28.5096,28.50958 m 180.9297,180.9297 -18.0474,-18.0474 m -536.7007,-556.49964 10.3068,10.30675 m 104.279,104.27898 -30.6984,-30.69841 m 179.6701,179.67011 20.4363,20.43632 m 99.213,99.213 -27.4701,-27.47007 m 180.964,180.96397 18.0474,18.04741 m -439.8103,-459.60932 -30.6984,-30.69841 m 178.9531,178.95313 20.8013,20.80131 m 101.9246,101.9246 -29.8297,-29.82969 m 180.612,180.61198 18.0474,18.04741 M 2217.5125,247.9036 2186.8141,217.20519 m 178.2361,178.23616 21.1663,21.16627 m 103.577,103.57699 -31.1301,-31.13007 m 180.26,180.25998 18.0474,18.04741 m -439.1063,-458.90532 -30.6984,-30.69842 m 177.5191,177.51919 21.5313,21.53125 m 104.7804,104.78039 -31.9815,-31.98147 m 179.908,179.90798 18.0474,18.04741 M 2218.2165,209.00961 2187.5181,178.3112 m 176.8022,176.8022 21.8962,21.89625 m 105.7211,105.72112 -32.5702,-32.57021 m 179.556,179.55598 18.0474,18.04741 M 2229.3842,200.37834 2198.908,169.90215 m 165.0473,165.04727 22.2612,22.26124 m 106.499,106.49902 -32.9961,-32.99611 m 179.204,179.20398 18.0474,18.04741 m -407.7876,-427.58662 -31.1495,-31.14951 m 145.5566,145.55661 22.6262,22.62623 m 107.101,107.10102 -33.2461,-33.24611 m 178.852,178.85198 18.0474,18.04741 m -387.9886,-407.78763 -31.8229,-31.82283 m 126.066,126.06596 22.9912,22.9912 m 107.5255,107.52554 -33.3186,-33.31862 m 178.5,178.49998 18.0474,18.04741 M 2288.7812,200.37834 2256.285,167.8822 m 106.5753,106.57529 23.3562,23.3562 m 107.8796,107.87957 -33.3207,-33.32066 m 178.148,178.14799 18.0474,18.0474 m -348.3907,-368.18965 -33.1694,-33.16946 m 87.0846,87.08463 23.7212,23.72119 m 108.0154,108.01544 -33.1045,-33.10453 m 177.796,177.79599 18.0474,18.0474 m -328.5917,-348.39066 -33.8427,-33.84278 m 67.5939,67.59397 24.0862,24.08618 m 108.1194,108.11936 -32.8564,-32.85639 m 177.4439,177.44393 18.0474,18.0474 M 2348.1781,200.37834 2313.662,165.86223 m 48.1033,48.10333 24.4512,24.45116 m 108.1407,108.14073 -32.5257,-32.5257 m 177.0919,177.09187 18.0474,18.0474 M 2386.2165,218.61773 2332.7877,165.1889 m 129.3959,129.39592 32.195,32.19501 m 162.5922,162.5922 -18.0474,-18.0474 m -287.0101,-306.80905 34.3032,34.30316 M 2494.4,307.00222 2462.5357,275.13789 m 176.3807,176.38075 18.0544,18.0544 m -270.7543,-290.55329 -15.1775,-15.1775 m 91.8487,91.84871 31.5337,31.53364 m 162.5494,162.54945 -18.0544,-18.0544 m -175.6766,-195.47561 31.2029,31.20294 m 162.5281,162.52808 -18.0544,-18.0544 m -175.3246,-195.12355 30.8723,30.87225 m 162.5067,162.50671 -18.0544,-18.0544 m -174.9725,-194.77149 30.5416,30.54156 m 162.4853,162.48534 -18.0544,-18.0544 m -174.6204,-194.41943 30.2108,30.21088 m 162.464,162.46396 -18.0544,-18.0544 m -162.4241,-182.22309 30.077,30.07703 m 150.4015,150.40147 -18.0544,-18.0544 m -142.6251,-162.4241 30.077,30.07703 m 130.6025,130.60248 -18.0544,-18.0544 m -122.8261,-142.62511 30.077,30.07703 m 110.8035,110.80349 -18.0544,-18.0544 m -103.0271,-122.82612 30.077,30.07703 m 91.0045,91.0045 -18.0544,-18.0544 m -83.2281,-103.02713 30.077,30.07703 m 71.2055,71.20551 -18.0544,-18.0544 m -63.4291,-83.22814 30.077,30.07703 m 51.4065,51.40652 -18.0544,-18.0544 m -43.6302,-63.42915 30.0771,30.07703 m 31.6075,31.60753 -18.0544,-18.0544 m -23.8312,-43.63016 41.8856,41.88557 m 0,-19.79899 -22.0866,-22.08658 m 19.799,0 2.2876,2.28759"
         style="fill:none;stroke:#000000;stroke-width:5;stroke-miterlimit:4;stroke-dasharray:none"
         inkscape:connector-curvature="0" />
    </g>
  </g>
</svg>
