<?xml version="1.0" encoding="UTF-8" standalone="no"?>
<!-- Created with Inkscape (http://www.inkscape.org/) -->

<svg
   xmlns:dc="http://purl.org/dc/elements/1.1/"
   xmlns:cc="http://creativecommons.org/ns#"
   xmlns:rdf="http://www.w3.org/1999/02/22-rdf-syntax-ns#"
   xmlns:svg="http://www.w3.org/2000/svg"
   xmlns="http://www.w3.org/2000/svg"
   xmlns:sodipodi="http://sodipodi.sourceforge.net/DTD/sodipodi-0.dtd"
   xmlns:inkscape="http://www.inkscape.org/namespaces/inkscape"
   inkscape:version="0.48.1 r9760"
   version="1.1"
   id="svg6382"
   height="800"
   width="3200"
   sodipodi:docname="Shalom.svg">
  <defs
     id="defs6384">
    <marker
       inkscape:stockid="Arrow2Mend"
       orient="auto"
       refY="0"
       refX="0"
       id="Arrow2Mend"
       style="overflow:visible">
      <path
         inkscape:connector-curvature="0"
         id="path4785"
         style="font-size:12px;fill-rule:evenodd;stroke-width:0.625;stroke-linejoin:round"
         d="M 8.7185878,4.0337352 -2.2072895,0.01601326 8.7185884,-4.0017078 c -1.7454984,2.3720609 -1.7354408,5.6174519 -6e-7,8.035443 z"
         transform="scale(-0.6,-0.6)" />
    </marker>
  </defs>
  <sodipodi:namedview
     id="base"
     pagecolor="#ffffff"
     bordercolor="#666666"
     borderopacity="1.0"
     inkscape:pageopacity="0.0"
     inkscape:pageshadow="2"
     inkscape:zoom="0.3953125"
     inkscape:cx="1600"
     inkscape:cy="400"
     inkscape:document-units="px"
     inkscape:current-layer="1-default"
     showgrid="false"
     inkscape:window-width="1676"
     inkscape:window-height="1006"
     inkscape:window-x="0"
     inkscape:window-y="0"
     inkscape:window-maximized="1" />
  <metadata
     id="metadata6387">
    <rdf:RDF>
      <cc:Work
         rdf:about="">
        <dc:format>image/svg+xml</dc:format>
        <dc:type
           rdf:resource="http://purl.org/dc/dcmitype/StillImage" />
        <dc:title></dc:title>
      </cc:Work>
    </rdf:RDF>
  </metadata>
  <g
     inkscape:label="1-default"
     inkscape:groupmode="layer"
     id="1-default">
    <path
       d="m 1082.5872,757.93091 c -4.4123,-4.41229 -8.0223,-140.00668 -8.0223,-301.32284 l 0,-293.30015 99.2767,3.49508 99.2767,3.49502 3.2315,287.95409 c 2.4948,222.34341 -0.2459,290.16378 -12.0333,297.64472 -18.4027,11.68084 -170.3796,13.38231 -181.7275,2.03494 z m 160.4465,-292.81545 0,-264.73783 -144.4011,0 0,529.47568 144.4011,0 z m 289.8787,289.72185 c -14.3646,-9.09332 -12.0508,-35.42596 15.0506,-171.29194 17.6136,-88.30297 32.0206,-167.122 32.0156,-175.15537 0,-10.21742 -35.261,-15.64083 -117.3357,-18.05014 l -117.3251,-3.4441 -3.3217,-183.5095 -3.3217,-183.509508 205.1967,0 0,144.401158 143.692,0 c 79.0293,0 146.6251,4.74802 150.2141,10.55138 9.1653,14.83003 -88.7734,557.7386 -103.9242,576.09348 -14.4829,17.53194 -174.5067,20.66046 -200.9377,3.9283 z m 223.1133,-253.62155 c 21.534,-122.43947 42.3873,-240.04608 46.3398,-261.34131 l 7.1862,-38.72342 -141.8671,-3.39441 -141.8671,-3.39425 -6.0168,-72.20058 -6.0169,-72.200583 -144.4012,0 -3.3676,153.425343 -3.3681,153.42533 121.0708,0 c 91.4358,0 122.6213,4.037 127.4007,16.49195 3.4807,9.0705 -7.5194,88.77699 -24.4444,177.12273 -16.9253,88.34575 -30.7731,165.10829 -30.7731,170.57557 0,5.4701 36.2179,8.34487 80.487,6.38785 l 80.487,-3.55815 39.1511,-222.61786 z m 162.2749,248.36457 c -9.8201,-11.83229 -12.9315,-98.95234 -10.643,-298.00113 l 3.2339,-281.28217 95.2245,-3.54987 c 68.0519,-2.53703 98.0435,0.89647 105.1075,12.03331 5.4369,8.57084 9.9686,92.74735 10.0698,187.0593 l 0.1854,171.47727 59.541,0 3.3218,-183.5095 3.3216,-183.50952 99.2767,-3.49502 99.2767,-3.49508 0,374.01169 71.5733,0 3.3216,-183.50951 3.3222,-183.5095 192.5372,0 0,589.63688 -362.3929,3.18237 c -297.5201,2.61277 -364.8876,0.18854 -376.2571,-13.53805 z m 720.6158,-284.46487 0,-264.73783 -144.4012,0 -0.1853,171.47727 c -0.096,94.31196 -4.6992,178.59824 -10.2178,187.2981 -6.4841,10.22457 -28.7694,14.48217 -62.9912,12.03331 l -52.9582,-3.78894 -3.3216,-183.50951 -3.3217,-183.50952 -143.1467,0 -3.3216,183.50952 -3.3218,183.50951 -120.3366,0 -3.3221,-183.50951 -3.3217,-183.50952 -143.7739,0 0,529.47569 697.9484,0 0,-264.73785 z m -2154.00647,-6.01683 0,-294.822 517.42907,0 0,589.63688 -517.42907,0 0,-294.81845 z m 490.59171,-3.00834 3.23866,-267.74591 -469.77775,0 0,262.73128 c 0,144.50096 3.72586,266.45571 8.27965,271.01056 4.55378,4.5538 108.7927,6.81022 231.6456,5.01393 l 223.36627,-3.26553 3.23866,-267.74589 z m -310.09384,-3.00842 0,-120.33311 156.43341,0 0,240.66622 -156.43341,0 z m 129.86697,3.00842 -3.51455,-93.26057 -96.26507,0 -3.51448,93.26057 -3.51465,93.26057 110.32882,0 -3.51466,-93.26057 z"
       id="path3011"
       inkscape:connector-curvature="0"
       sodipodi:nodetypes="cscccsccccccccccscscccccsccccccccccccccsssssccccscscsccccccccccccsccccccccccccccccccccccccccccccccscsccccccccccccccccc"
       style="fill:none;stroke:#000000;stroke-opacity:1;stroke-width:4;stroke-miterlimit:4;stroke-dasharray:none" />
    <path
       style="fill:none;stroke:#000000;stroke-width:4;stroke-miterlimit:4;stroke-opacity:1;stroke-dasharray:none"
       d="m 1347,203.21875 c 1.0521,59.61458 2.1042,119.22917 3.1562,178.84375 70.6347,3.30309 141.8318,0.63959 211.9376,11.09375 9.6816,1.65001 23.869,5.97068 22.75,18.34375 -0.8585,10.15031 -3.8554,19.89825 -4.7876,30.05903 -15.7474,93.7263 -39.1093,186.23378 -50.5874,280.65972 -0.3228,9.47532 -1.8057,21.87951 6.6562,28.3125 11.4698,7.06501 25.6504,5.72398 38.4643,8.03167 48.7637,4.37227 98.478,3.25901 146.4732,-6.46917 6.5763,-1.56292 12.0537,-6.93295 12.3006,-13.87703 27.8765,-110.1019 46.3415,-222.34195 66.5105,-333.97167 12.9524,-74.42706 26.324,-149.00259 33.6264,-224.18255 -1.126,-4.80453 -7.7679,-2.8456 -11.1875,-4.375 -27.4337,-4.17231 -55.3017,-4.24767 -82.9687,-5.625 -66.8098,-1.87726 -133.6476,-0.12532 -200.4688,-0.78125 0,-48.13542 0,-96.270833 0,-144.40625 -65.0104,0 -130.0208,0 -195.0312,0 1.052,59.447917 2.1041,118.89583 3.1562,178.34375 z m 18.5,-158.25 c 50.9375,0 101.875,0 152.8125,0 4.2114,48.174561 8.1756,96.37082 12.1875,144.5625 95.0005,2.23989 190.0007,4.49255 285,6.78125 -32.3182,175.85888 -62.0757,352.26892 -93.8125,528.21875 -3.5793,7.57217 -13.1228,3.60704 -19.6244,4.78494 -47.727,1.59448 -96.1207,7.78788 -143.5006,-0.40994 -6.4254,-1.74491 -9.4898,-9.11829 -6.8986,-15.06796 17.8746,-111.47095 45.5237,-221.49344 55.3049,-334.18204 -0.2524,-7.63458 -8.0102,-11.05817 -14.5,-11.9375 -21.5404,-4.592 -43.9097,-4.26201 -65.8746,-5.41895 -54.4403,-1.34115 -108.9742,0.0394 -163.3754,-0.2998 -3.9579,1.79374 -6.7814,-2.47535 -5.75,-6.0625 2.4043,-88.3066 3.9174,-176.71127 6.0012,-265.054849 0.3466,-15.30478 0.6906,-30.609739 1.0612,-45.913901 l 0.9688,0 z m -285.9375,411.625 c 0.8616,99.01782 -0.6193,198.32598 6.9375,297.0625 4.9885,4.55352 12.6696,2.84856 18.8071,4.50986 37.3791,3.51456 75.0707,2.74909 112.5054,0.58389 14.5078,-1.29525 29.3304,-2.53164 43.1563,-6.90625 6.6234,-7.04092 4.7987,-17.63276 7.0079,-26.38908 5.0888,-49.97799 3.3243,-100.30361 4.1171,-150.45467 0,-130.98506 -3.104,-261.97934 -3.75,-392.9375 0.1732,-3.40614 0.5395,-8.9182 -4.81,-7.07906 -61.3238,-2.17156 -122.6475,-4.34313 -183.9713,-6.51469 0,96.04167 0,192.08333 0,288.125 z M 2287.0938,171.8125 c -31.5313,1.11458 -63.0625,2.22917 -94.5938,3.34375 -2.2053,122.38544 -4.3817,244.77166 -6.625,367.15625 -23.1354,0 -46.2708,0 -69.4062,0 -1.4599,-116.56361 3.7411,-233.4726 -7.1563,-349.71875 -0.3737,-7.08 -3.404,-14.82179 -11,-16.59375 -12.5754,-3.99695 -26.0924,-3.47375 -39.1245,-4.62641 -47.671,-1.57111 -95.3863,2.82915 -142.938,3.90766 -1.5874,3.71891 0.5424,8.48039 -0.4473,12.53104 -1.2207,164.11264 -6.3583,328.26431 -2.0082,492.36724 1.2369,21.65599 1.7799,43.88814 7.643,64.75797 7.6798,8.71962 20.7723,7.23063 31.2187,9.40625 58.6858,5.32701 117.703,4.1808 176.5625,4.64087 174.2554,-0.44653 348.5004,-2.68623 522.7501,-4.04712 0,-193.20833 -1e-4,-386.41667 0,-579.625 -60.8959,0 -121.7917,0 -182.6876,0 -2.135,122.3348 -4.3014,244.66934 -6.6562,367 -27.1354,0 -54.2708,0 -81.4062,0 -1e-4,-124.61458 -1e-4,-249.22917 0,-373.84375 -31.375,1.11458 -62.7501,2.22917 -94.125,3.34375 z M 489.90625,459.09375 c 0,96.60417 0,193.20833 0,289.8125 169.14583,0 338.29167,0 507.4375,0 0,-193.20833 0,-386.41667 0,-579.625 -169.14583,0 -338.29167,0 -507.4375,0 0,96.60417 0,193.20833 0,289.8125 z m 18.84375,-275.75 c 158.33333,0 316.66667,0 475,0 -2.13877,181.8335 -4.36123,363.6665 -6.5,545.5 -148.20384,0.8938 -296.50584,7.67417 -444.65625,0.84375 -6.48254,-0.88216 -14.4725,-0.43164 -19.3125,-5.21875 -5.19238,-8.39153 -2.18634,-18.91212 -4.18225,-28.18001 -6.00903,-101.15373 -4.51099,-202.54193 -5.1615,-303.81999 0.10201,-68.60901 -0.26177,-137.34772 0.5625,-205.875 0.73638,-1.7315 2.35441,-3.07629 4.25,-3.25 z M 2497.3438,194.875 c 47.9352,1.38798 96.0095,-0.34644 143.875,0.875 6.0518,3.98979 1.0985,11.83652 2.6876,17.5 0.027,173.86458 0.037,347.72917 0.031,521.59375 -235.9896,0 -471.9792,0 -707.9687,0 -1e-4,-179.82292 0,-359.64583 0,-539.46875 51.2083,0 102.4166,0 153.625,0 2.3372,122.34139 4.5016,244.68639 6.6562,367.03125 36.875,0 73.75,0 110.625,0 2.1662,-122.34467 4.3548,-244.68919 6.6562,-367.03125 50.948,0 101.8959,0 152.8438,0 2.2438,122.40541 4.4194,244.81248 6.625,367.21875 33.6024,1.23302 68.4947,9.68286 101.2188,-1.15625 9.6882,-5.17314 7.2368,-17.69708 9.0471,-26.71272 5.6418,-54.16375 5.1093,-108.71686 6.0881,-163.09975 0.4629,-56.51513 -0.2913,-113.07551 -0.041,-169.56253 0.8831,-3.73399 4.018,-7.1238 8.0313,-7.1875 z m -1402.7188,0.5 c 51.1354,0 102.2708,0 153.4062,0 0,179.82292 0,359.64583 0,539.46875 -51.4687,0 -102.9374,0 -154.4062,0 0,-179.82292 0,-359.64583 0,-539.46875 l 1,0 z M 670.40625,453.09375 c 0,38.4375 0,76.875 0,115.3125 48.8125,0 97.625,0 146.4375,0 0,-76.88542 0,-153.77083 0,-230.65625 -48.8125,0 -97.625,0 -146.4375,0 0,38.44792 0,76.89583 0,115.34375 z m 21.21875,-95.25 c 34.98958,0 69.97917,0 104.96875,0 2.38661,65.50226 5.01149,130.99577 7.34375,196.5 -40.20833,0 -80.41667,0 -120.625,0 2.33221,-65.50424 4.95716,-130.99774 7.34375,-196.5 l 0.96875,0 z"
       id="path9166"
       inkscape:connector-curvature="0" />
    <path
       style="fill:none;stroke:#000000;stroke-width:4;stroke-miterlimit:4;stroke-opacity:1;stroke-dasharray:none"
       d="m 1352,203.0625 c 0.5833,33.51042 1.1667,67.02083 1.75,100.53125 2.1937,-87.87011 3.7018,-175.75592 5.9375,-263.625 54.3854,0 108.7708,0 163.1563,0 3.8821,43.096747 7.3961,86.22565 11.0312,129.34375 0,-46.47917 0,-92.958333 0,-139.4375 -61.625,0 -123.25,0 -184.875,0 1,57.729167 2,115.45833 3,173.1875 z m -267.4375,253.53125 c 1.0423,83.07364 -0.6004,166.22791 4.0625,249.21875 0,-171.8125 0,-343.625 0,-515.4375 54.8021,0 109.6042,0 164.4062,0 0,183.15625 1e-4,366.3125 0,549.46875 -53.9374,0.1042 -108.2917,-0.20837 -161.9687,0.15625 0.7816,3.72414 -1.8424,11.52809 4.1563,11.625 21.9413,3.49421 44.4649,3.2714 66.6874,3.92292 31.749,0.19081 63.952,-1.05635 94.9688,-7.73542 6.5011,-5.11562 3.5331,-14.4924 5.6701,-21.61484 6.6929,-64.63784 3.6702,-129.71972 4.3357,-194.57248 -0.5553,-117.27813 -2.6015,-234.5417 -3.8808,-351.81268 -59.4892,-1.74214 -118.9558,-4.19764 -178.4375,-6.1875 0,94.32292 0,188.64583 0,282.96875 z M 2287.25,176.8125 c -29.9688,1.0625 -59.9375,2.125 -89.9062,3.1875 -2.2051,122.43753 -4.3815,244.87583 -6.625,367.3125 -26.4167,0 -52.8334,0 -79.25,0 -1.9038,-120.24216 4.7371,-240.99548 -8.3126,-360.78125 -5.3736,-9.86413 -18.7466,-7.1863 -28.2187,-9.03125 -51.3223,-4.08904 -102.6826,1.56172 -154,2.6875 -1.0468,171.01887 -7.3715,342.10967 -1.25,513.09375 1.3942,16.57368 0.8196,34.37746 7.5313,49.625 9.7585,7.55071 22.9079,4.6022 34.3437,6.90625 89.6203,6.9393 179.568,3.07092 269.3434,3.70356 138.6902,-0.87245 277.3752,-2.39427 416.0629,-3.57856 0.9471,-6.97842 0.5535,-12.61606 -8,-10.09375 -236,0 -472.0001,0 -708,0 0,-183.15625 -1e-4,-366.3125 0,-549.46875 54.4895,0 108.9791,0 163.4687,0 2.4553,122.33918 4.4948,244.68651 6.6563,367.03125 33.6458,0 67.2916,0 100.9374,0 2.1671,-122.34465 4.2323,-244.69146 6.6563,-367.03125 54.1771,0 108.3542,0 162.5313,0 1.7555,92.16487 3.3098,184.33378 5,276.5 0,-97.75 0,-195.5 0,-293.25 -29.6563,1.0625 -59.3126,2.125 -88.9688,3.1875 z M 1647.3438,174.25 c -37.6874,0.086 -75.3757,0.36879 -113.0626,0.0312 -0.2287,6.93741 0.4185,12.94153 8.9041,10.59445 92.7512,2.17659 185.5021,4.36859 278.2522,6.59305 -32.902,178.36849 -62.4255,357.46666 -95.5313,535.78125 -5.2085,9.50461 -17.7743,6.58647 -26.6869,7.15946 -48.4035,1.36642 -97.7848,8.86148 -145.5631,-2.09696 -9.8311,-5.40517 -8.5478,-19.06682 -5.5245,-28.23664 17.9316,-108.5383 44.8726,-215.83083 53.4308,-325.76336 -5.6997,-8.48302 -17.7719,-5.91856 -26.5489,-8.00397 -63.0227,-5.87055 -126.3915,-2.79064 -189.5755,-3.17419 -9.5149,-0.28223 -19.6699,1.08561 -28.8131,-1.22809 -3.6138,-4.41173 -1.045,4.22231 -1.7092,6.31137 -2.4608,8.11028 7.3917,4.37642 12.0166,5.56113 69.1652,2.82804 139.2651,-0.49026 207.4426,13.19 10.3938,3.32167 18.5596,14.9061 14.696,25.86403 -15.7213,106.40462 -45.209,210.60099 -55.1022,317.88597 0.1311,8.09076 6.6775,15.25358 14.8437,15.15625 29.9879,5.6535 61.1323,5.97016 91.7186,5.91864 28.2144,-0.73817 56.9538,-2.78219 83.9689,-10.82489 7.2838,-7.88426 5.1934,-19.83771 9.2899,-29.32435 33.0354,-138.89428 55.0246,-279.94354 79.3976,-420.5194 6.0903,-37.60056 11.7573,-75.32584 14.4687,-113.34375 -56.2016,-8.0086 -113.177,-7.1702 -169.8124,-7.5575 -3.5,0.009 -7,0.0175 -10.5,0.0263 z M 494.90625,459.09375 c 0,94.9375 0,189.875 0,284.8125 165.8125,0 331.625,0 497.4375,0 0,-189.875 0,-379.75 0,-569.625 -165.8125,0 -331.625,0 -497.4375,0 0,94.9375 0,189.875 0,284.8125 z m 13.65625,-280.75 c 160.0625,0 320.125,0 480.1875,0 -2.13929,185.16683 -4.36071,370.33317 -6.5,555.5 -154.22827,0.28874 -308.66004,9.06148 -462.75,-0.5 -9.51526,-2.008 -15.68885,-11.96303 -14.13534,-21.43484 -8.95603,-129.30708 -5.23082,-259.00153 -6.39827,-388.50264 0.18261,-46.27815 -0.55285,-92.68104 1.28361,-138.87502 1.18041,-3.52942 4.6159,-6.03272 8.3125,-6.1875 z m 1964,92.75 c -1.6406,92.07392 -3.1991,184.1497 -5.0937,276.21875 -29.9376,0 -59.875,0 -89.8126,0 0.1054,5.55954 -1.6408,12.8283 6.31,10.82198 29.5196,1.93954 60.7748,8.60707 89.19,-2.22823 7.3516,-8.85982 3.1845,-21.34562 6.002,-31.71248 8.0393,-102.73685 4.0493,-205.86746 5.3138,-308.78693 1.2829,-7.48843 -2.1071,-17.68481 5.153,-22.75059 8.1909,-5.82209 18.6873,-1.15198 27.9374,-2.26697 42.1673,0.67807 84.5095,-1.61162 126.5626,1.29822 2.0047,1.28867 3.5922,4.56529 2.8438,-0.1875 0.079,-6.14199 1.9683,-14.09337 -7,-11.1875 -55.2813,0 -110.5626,0 -165.8438,0 -0.5208,30.26042 -1.0417,60.52083 -1.5625,90.78125 z m -1797.15625,182 c 0,36.77083 0,73.54167 0,110.3125 45.47917,0 90.95833,0 136.4375,0 0,-73.55208 0,-147.10417 0,-220.65625 -45.47917,0 -90.95833,0 -136.4375,0 0,36.78125 0,73.5625 0,110.34375 z m 11.375,-100.25 c 38.21875,0 76.4375,0 114.65625,0 2.42376,68.83801 5.27829,137.6603 7.65625,206.5 -43.64583,0 -87.29167,0 -130.9375,0 2.37805,-68.83969 5.23239,-137.66199 7.65625,-206.5 l 0.96875,0 z"
       id="path9178"
       inkscape:connector-curvature="0" />
    <path
       style="fill:none;stroke:#000000;stroke-width:4;stroke-miterlimit:4;stroke-opacity:1;stroke-dasharray:none"
       d="m 1354.4375,51.375 c 1.3258,-4.921373 -2.1345,-14.735072 2.375,-16.40625 56.8542,0 113.7083,0 170.5625,0 0.4869,3.796296 1.3461,17.03461 1.5,14.375 -1.501,-4.655207 3.6774,-15.9899 -4,-14.46875 -56.9062,0 -113.8125,0 -170.7188,0 0.094,5.5 0.1876,11 0.2813,16.5 z M 2368.875,178.28125 c -32.4395,2.58347 -65.0377,2.49105 -97.5391,4.09799 -23.0495,0.82051 -46.0989,1.64299 -69.1484,2.46451 -2.2056,122.4896 -4.3812,244.98 -6.625,367.46875 -29.6771,0 -59.3542,0 -89.0313,0 -2.2857,-115.6625 4.6507,-231.68254 -6.8437,-347.03125 2.3392,115.70358 4.3028,231.41429 6.25,347.125 30.4167,0 60.8333,0 91.25,0 2.073,-122.34627 4.1409,-244.69323 6.6563,-367.03125 55.8541,0 111.7083,0 167.5624,0 -0.01,-2.08982 0.9995,-7.36566 -2.5312,-7.09375 z M 1089.5625,185.375 c 56.1562,0 112.3125,0 168.4687,0 -4.6301,-1.82573 -12.245,-0.63305 -18.0218,-1.29909 -50.1543,-1.60931 -100.2987,-3.50994 -150.4469,-5.29466 0,2.19792 0,4.39583 0,6.59375 z m 562.875,-5.96875 c -37.5293,0.45996 -76.069,-0.5961 -112.9687,0.40625 3.5503,2.11296 8.406,-0.56774 12.4055,0.59569 90.1593,1.13862 180.2982,4.58097 270.4382,5.84181 -3.8917,-1.59302 -9.089,-0.0677 -13.3056,-1.52385 -51.951,-5.92196 -104.3635,-5.51004 -156.5694,-5.3199 z m 375.4375,1.65625 c -34.0132,0.35928 -67.9403,3.10518 -101.9375,3.96875 -0.8801,175.15236 -8.4571,350.42158 0.031,525.5 0,-175.05208 0,-350.10417 0,-525.15625 55.7393,-0.13759 112.8991,0.31129 167.75,-0.21875 -9.9577,-3.69403 -20.9795,-1.3423 -31.3056,-3.42239 -11.5008,-0.6258 -23.0224,-0.77298 -34.5382,-0.67136 z m 613.2812,3.40625 c -10.0854,0.94612 -20.3477,0.44962 -30.5,0.8125 10.4696,0.0778 21.2686,0.80039 31.5,1.34375 -0.095,-0.84231 0.6081,-2.67391 -1,-2.15625 z M 2514.0625,185.25 c 16.6732,0.4615 33.3555,0.3442 50.0313,0.0937 -17.1355,-0.0263 -34.271,-0.0868 -51.4063,-0.15625 l 0.999,0.0454 0.376,0.0171 z m -25.0625,0 c -3.1836,1.05238 -10.5398,-2.55407 -10.0938,2.90625 -1.9343,118.38326 -3.9399,236.84582 -6.4062,355.25 1.3314,-10.5956 0.7021,-21.37692 2.5921,-31.89647 7.5927,-104.65463 1.746,-209.73511 5.4704,-314.44728 1.9641,-6.30137 7.9143,-10.38873 14.125,-11.84375 -1.8958,0.0104 -3.7917,0.0208 -5.6875,0.0312 z M 1258.0312,718.34375 c 7.3055,-83.37328 2.583,-167.16035 3.3871,-250.71866 -0.8428,-93.75328 -2.1816,-187.50102 -3.3871,-281.25009 0,177.32292 1e-4,354.64583 0,531.96875 z m 545.7813,-400.6875 c -15.7746,89.10779 -31.1907,178.2789 -47.0313,267.375 18.0203,-91.34894 33.2335,-183.14682 48.375,-275.03125 -0.4479,2.55208 -0.8958,5.10417 -1.3437,7.65625 z m -1123.40625,46.625 c 1.36955,-4.93502 -1.97277,-14.74953 2.53125,-16.4375 41.11458,0 82.22917,0 123.34375,0 0.16287,3.60798 0.51027,17.39446 0.5625,14.375 -1.50104,-4.65521 3.6774,-15.9899 -4,-14.46875 -40.8125,0 -81.625,0 -122.4375,0 0,5.51042 0,11.02083 0,16.53125 z m 794.65625,7.40625 c -38.4264,0.0701 -76.8593,1.01157 -115.2813,0 -0.9668,2.58833 4.5337,-0.26496 5.4343,1.01374 71.2587,3.34748 143.6934,-1.2909 213.722,14.61126 7.3153,3.15332 12.7875,9.78891 15.0313,17.40625 0.6055,-8.28176 2.5797,-17.24433 1.5,-25.21875 -10.1314,-5.66162 -22.3118,-2.7193 -33.3035,-5.23344 -28.9757,-2.20322 -58.0533,-2.67248 -87.1028,-2.57906 z M 1585.6875,468 c -14.4399,78.77801 -33.7113,156.95405 -43.1875,236.65625 6.8953,-35.78041 13.0948,-71.81328 20.2767,-107.61737 8.5729,-44.34412 17.1338,-88.69469 23.6921,-133.32013 -0.2605,1.42708 -0.5209,2.85417 -0.7813,4.28125 z m 878.7813,84.1875 c -27.3232,0.70134 -54.9857,-0.67555 -82.1563,0.625 0.4876,2.15558 3.978,-0.39079 5.5921,0.71363 26.5014,1.45498 54.2216,7.66181 79.9704,-1.33863 -1.1298,-0.0804 -2.2736,-0.0281 -3.4062,0 z M 499.90625,707.25 c 0.39021,-2.73776 -0.25218,-4.19403 0,-0.1875 l 0,0.1875 z m 0,31.65625 c 10.48958,0 20.97917,0 31.46875,0 -8.61655,-0.81838 -19.009,0.14807 -24.71875,-7.5 -3.95821,-4.47155 -6.06265,-10.35624 -6.75,-16.25 0,7.91667 0,15.83333 0,23.75 z M 1540.6875,721.5 c 0.4962,6.3279 -3.7517,13.99612 0.5,19.5 7.5293,7.14096 19.3178,4.3474 28.6811,6.67511 48.238,5.25392 97.6516,4.84686 145.1626,-5.30011 3.4884,-0.671 8.2745,-2.93455 8.7813,-6.15625 -11.9719,6.10117 -26.1805,1.70668 -39.0313,3.75 -44.6257,1.97404 -90.4443,7.88019 -134.25,-3.71875 -6.0827,-3.65912 -9.1495,-10.71165 -9.5624,-17.625 -0.094,0.95833 -0.1875,1.91667 -0.2813,2.875 z M 987.25,737.84375 c -3.91407,2.3152 -12.11349,0.33807 -17.68746,1.02251 -11.46634,0.0382 -3.69849,0.0477 3.43746,0.04 4.60688,-1.5077 15.91994,3.69077 14.34375,-4 0.0167,-10.2497 -0.0281,-1.7654 -0.0937,2.9375 z m 1653.5938,6.21875 c -57.9201,1.86295 -115.9227,0.10145 -173.875,0.78125 -166.7813,0 -333.5625,0 -500.3438,0 65.5312,5.08897 131.3739,4.35361 197.0622,3.96522 96.175,-1.02201 192.3557,-0.91956 288.5306,-2.06467 63.313,-0.73388 127.3799,-0.89599 190.2197,-2.1193 0.058,-0.8423 -1.0656,-0.5395 -1.5937,-0.5625 z m -1496.3126,0.71875 c -16.0749,0.36898 -33.228,-0.46017 -48.6562,1.03125 0.4387,2.98046 4.7388,0.1184 6.625,1.5625 47.6426,4.79799 95.9467,4.7263 143.3438,-2.5 -33.7708,0.12286 -67.5418,-0.18519 -101.3126,-0.0937 z"
       id="path9190"
       inkscape:connector-curvature="0" />
    <path
       style="fill:none;stroke:#000000;stroke-width:4;stroke-miterlimit:4;stroke-opacity:1;stroke-dasharray:none"
       d="m 1568.25,380.03125 c 7.8354,1.94641 16.7128,3.17703 22.4375,9.40625 0.8231,-2.79879 0.6172,-8.25014 -3.6563,-7.53125 -6.3244,-1.21641 -13.0237,-1.73045 -19.5937,-2.0625 l 0.8125,0.1875 z"
       id="path9202"
       inkscape:connector-curvature="0" />
  </g>
</svg>
