<?xml version="1.0" encoding="UTF-8" standalone="no"?>
<!-- Created with Inkscape (http://www.inkscape.org/) -->

<svg
   xmlns:dc="http://purl.org/dc/elements/1.1/"
   xmlns:cc="http://creativecommons.org/ns#"
   xmlns:rdf="http://www.w3.org/1999/02/22-rdf-syntax-ns#"
   xmlns:svg="http://www.w3.org/2000/svg"
   xmlns="http://www.w3.org/2000/svg"
   xmlns:sodipodi="http://sodipodi.sourceforge.net/DTD/sodipodi-0.dtd"
   xmlns:inkscape="http://www.inkscape.org/namespaces/inkscape"
   width="3200"
   height="800"
   id="svg6382"
   version="1.1"
   inkscape:version="0.48.1 r9760"
   sodipodi:docname="New document 25">
  <sodipodi:namedview
     id="base"
     pagecolor="#ffffff"
     bordercolor="#666666"
     borderopacity="1.0"
     inkscape:pageopacity="0.0"
     inkscape:pageshadow="2"
     inkscape:zoom="0.3953125"
     inkscape:cx="1600"
     inkscape:cy="400"
     inkscape:document-units="px"
     inkscape:current-layer="1-default"
     showgrid="false"
     inkscape:window-width="1676"
     inkscape:window-height="1006"
     inkscape:window-x="0"
     inkscape:window-y="0"
     inkscape:window-maximized="1" />
  <defs
     id="defs6384">
    <marker
       style="overflow:visible"
       id="Arrow2Mend"
       refX="0"
       refY="0"
       orient="auto"
       inkscape:stockid="Arrow2Mend">
      <path
         transform="scale(-0.6,-0.6)"
         d="M 8.7185878,4.0337352 -2.2072895,0.01601326 8.7185884,-4.0017078 c -1.7454984,2.3720609 -1.7354408,5.6174519 -6e-7,8.035443 z"
         style="font-size:12px;fill-rule:evenodd;stroke-width:0.625;stroke-linejoin:round"
         id="path4785"
         inkscape:connector-curvature="0" />
    </marker>
  </defs>
  <metadata
     id="metadata6387">
    <rdf:RDF>
      <cc:Work
         rdf:about="">
        <dc:format>image/svg+xml</dc:format>
        <dc:type
           rdf:resource="http://purl.org/dc/dcmitype/StillImage" />
        <dc:title></dc:title>
      </cc:Work>
    </rdf:RDF>
  </metadata>
  <g
     id="1-default"
     inkscape:groupmode="layer"
     inkscape:label="1-default">
    <g
       id="g9134"
       style="stroke-width:5;stroke-miterlimit:4;stroke-dasharray:none">
      <path
         style="fill:none;stroke:#000000;stroke-opacity:1;stroke-width:5;stroke-miterlimit:4;stroke-dasharray:none"
         sodipodi:nodetypes="cscccsccccccccccscscccccsccccccccccccccsssssccccscscsccccccccccccsccccccccccccccccccccccccccccccccscsccccccccccccccccc"
         inkscape:connector-curvature="0"
         id="path3011"
         d="m 1082.5872,757.93091 c -4.4123,-4.41229 -8.0223,-140.00668 -8.0223,-301.32284 l 0,-293.30015 99.2767,3.49508 99.2767,3.49502 3.2315,287.95409 c 2.4948,222.34341 -0.2459,290.16378 -12.0333,297.64472 -18.4027,11.68084 -170.3796,13.38231 -181.7275,2.03494 z m 160.4465,-292.81545 0,-264.73783 -144.4011,0 0,529.47568 144.4011,0 z m 289.8787,289.72185 c -14.3646,-9.09332 -12.0508,-35.42596 15.0506,-171.29194 17.6136,-88.30297 32.0206,-167.122 32.0156,-175.15537 0,-10.21742 -35.261,-15.64083 -117.3357,-18.05014 l -117.3251,-3.4441 -3.3217,-183.5095 -3.3217,-183.509508 205.1967,0 0,144.401158 143.692,0 c 79.0293,0 146.6251,4.74802 150.2141,10.55138 9.1653,14.83003 -88.7734,557.7386 -103.9242,576.09348 -14.4829,17.53194 -174.5067,20.66046 -200.9377,3.9283 z m 223.1133,-253.62155 c 21.534,-122.43947 42.3873,-240.04608 46.3398,-261.34131 l 7.1862,-38.72342 -141.8671,-3.39441 -141.8671,-3.39425 -6.0168,-72.20058 -6.0169,-72.200583 -144.4012,0 -3.3676,153.425343 -3.3681,153.42533 121.0708,0 c 91.4358,0 122.6213,4.037 127.4007,16.49195 3.4807,9.0705 -7.5194,88.77699 -24.4444,177.12273 -16.9253,88.34575 -30.7731,165.10829 -30.7731,170.57557 0,5.4701 36.2179,8.34487 80.487,6.38785 l 80.487,-3.55815 39.1511,-222.61786 z m 162.2749,248.36457 c -9.8201,-11.83229 -12.9315,-98.95234 -10.643,-298.00113 l 3.2339,-281.28217 95.2245,-3.54987 c 68.0519,-2.53703 98.0435,0.89647 105.1075,12.03331 5.4369,8.57084 9.9686,92.74735 10.0698,187.0593 l 0.1854,171.47727 59.541,0 3.3218,-183.5095 3.3216,-183.50952 99.2767,-3.49502 99.2767,-3.49508 0,374.01169 71.5733,0 3.3216,-183.50951 3.3222,-183.5095 192.5372,0 0,589.63688 -362.3929,3.18237 c -297.5201,2.61277 -364.8876,0.18854 -376.2571,-13.53805 z m 720.6158,-284.46487 0,-264.73783 -144.4012,0 -0.1853,171.47727 c -0.096,94.31196 -4.6992,178.59824 -10.2178,187.2981 -6.4841,10.22457 -28.7694,14.48217 -62.9912,12.03331 l -52.9582,-3.78894 -3.3216,-183.50951 -3.3217,-183.50952 -143.1467,0 -3.3216,183.50952 -3.3218,183.50951 -120.3366,0 -3.3221,-183.50951 -3.3217,-183.50952 -143.7739,0 0,529.47569 697.9484,0 0,-264.73785 z m -2154.00647,-6.01683 0,-294.822 517.42907,0 0,589.63688 -517.42907,0 0,-294.81845 z m 490.59171,-3.00834 3.23866,-267.74591 -469.77775,0 0,262.73128 c 0,144.50096 3.72586,266.45571 8.27965,271.01056 4.55378,4.5538 108.7927,6.81022 231.6456,5.01393 l 223.36627,-3.26553 3.23866,-267.74589 z m -310.09384,-3.00842 0,-120.33311 156.43341,0 0,240.66622 -156.43341,0 z m 129.86697,3.00842 -3.51455,-93.26057 -96.26507,0 -3.51448,93.26057 -3.51465,93.26057 110.32882,0 -3.51466,-93.26057 z" />
      <path
         id="path9137"
         d="M 492.380718,164.276630 l -7.470788,7.470788 M 484.909930,191.546408 l 27.269778,-27.269778 M 531.978698,164.276630 l -47.068768,47.068768 M 527.709938,188.344380 l 24.067750,-24.067750 M 508.962550,207.091768 l -24.052620,24.052620 M 547.508927,188.344380 l 24.067750,-24.067750 M 508.962550,226.890757 l -24.052620,24.052620 M 567.307917,188.344380 l 24.067750,-24.067750 M 508.962550,246.689747 l -24.052620,24.052620 M 587.106907,188.344380 l 24.067750,-24.067750 M 508.962550,266.488737 l -24.052620,24.052620 M 606.905897,188.344380 l 24.067750,-24.067750 M 508.962550,286.287727 l -24.052620,24.052620 M 626.704887,188.344380 l 24.067750,-24.067750 M 508.962550,306.086717 l -24.052620,24.052620 M 646.503877,188.344380 l 24.067750,-24.067750 M 508.962550,325.885707 l -24.052620,24.052620 M 666.302867,188.344380 l 24.067750,-24.067750 M 508.962550,345.684697 l -24.052620,24.052620 M 686.101857,188.344380 l 24.067750,-24.067750 M 508.962550,365.483687 l -24.052620,24.052620 M 705.900846,188.344380 l 24.067750,-24.067750 M 508.962550,385.282676 l -24.052620,24.052620 M 725.699836,188.344380 l 24.067750,-24.067750 M 508.962550,405.081666 l -24.052620,24.052620 M 745.498826,188.344380 l 24.067750,-24.067750 M 508.962550,424.880656 l -24.052620,24.052620 M 765.297816,188.344380 l 24.067750,-24.067750 M 508.962550,444.679646 l -24.052620,24.052620 M 785.096806,188.344380 l 24.067750,-24.067750 M 509.005193,464.435993 l -24.095263,24.095263 M 804.895796,188.344380 l 24.067750,-24.067750 M 509.068185,484.171991 l -24.158255,24.158255 M 824.694786,188.344380 l 24.067750,-24.067750 M 680.290406,332.748760 l -14.882606,14.882606 M 484.909930,528.129236 l 24.221248,-24.221248 M 868.561526,164.276630 l -24.067750,24.067750 M 665.407800,367.430356 l 34.681596,-34.681596 M 509.321444,523.516711 l -24.411514,24.411514 M 864.292765,188.344380 l 24.067750,-24.067750 M 719.888385,332.748760 l -54.480585,54.480585 M 484.909930,567.727215 l 24.602516,-24.602516 M 908.159505,164.276630 l -24.067750,24.067750 M 709.606415,362.829720 l 30.080960,-30.080960 M 694.942549,377.493586 l -29.534749,29.534749 M 484.909930,587.526205 l 24.856567,-24.856567 M 927.958495,164.276630 l -24.067750,24.067750 M 729.405405,362.829720 l 30.080960,-30.080960 M 694.167216,398.067910 l -28.759416,28.759416 M 484.909930,607.325195 l 25.185071,-25.185071 M 947.757485,164.276630 l -24.067750,24.067750 M 749.204395,362.829720 l 30.080960,-30.080960 M 693.391882,418.642233 l -27.984082,27.984082 M 484.909930,627.124185 l 25.534169,-25.534169 M 967.556475,164.276630 l -24.067750,24.067750 M 769.003385,362.829720 l 30.080960,-30.080960 M 692.616549,439.216556 l -27.208749,27.208749 M 484.909930,646.923175 l 26.024028,-26.024028 M 987.355465,164.276630 l -24.067750,24.067750 M 788.802375,362.829720 l 30.080960,-30.080960 M 691.841208,459.790887 l -26.433408,26.433408 M 484.909930,666.722165 l 26.526485,-26.526485 M 1002.339000,169.092085 l -23.651918,23.651918 M 792.371834,379.059250 l 29.469376,-29.469376 M 691.065836,480.365249 l -25.658036,25.658036 M 484.909930,686.521155 l 27.228331,-27.228331 M 1002.339000,188.891075 l -23.894339,23.894339 M 793.090868,398.139207 l 28.750342,-28.750342 M 690.290463,500.939612 l -24.882663,24.882663 M 484.909930,706.320145 l 28.000747,-28.000747 M 1002.339000,208.690064 l -24.136761,24.136761 M 793.809901,417.219163 l 28.031309,-28.031309 M 689.515090,521.513974 l -24.107290,24.107290 M 484.909930,726.119134 l 29.051836,-29.051836 M 1002.339000,228.489054 l -24.379182,24.379182 M 794.528934,436.299120 l 27.312276,-27.312276 M 688.739718,542.088336 l -23.331918,23.331918 M 484.909930,745.918124 l 30.696510,-30.696510 M 1086.885376,163.741668 l -12.320476,12.320476 M 977.717397,272.909647 l 24.621603,-24.621603 M 821.841210,428.785834 l -26.593242,26.593242 M 677.212064,573.414980 l 24.064120,-24.064120 M 526.592255,724.034789 l -29.878721,29.878721 M 1074.564900,195.861134 l 31.446139,-31.446139 M 1002.339000,268.087034 l -24.864025,24.864025 M 795.972235,474.453799 l 25.868975,-25.868975 M 721.075174,549.350860 l -24.064120,24.064120 M 516.512524,753.913510 l 28.472389,-28.472389 M 1125.136701,165.088323 l -50.571801,50.571801 M 977.232554,312.992470 l 25.106446,-25.106446 M 821.841210,468.383814 l -25.149919,25.149919 M 716.810044,573.414980 l 24.064120,-24.064120 M 563.966867,726.258157 l -27.655353,27.655353 M 1109.646384,200.377630 l 34.615980,-34.615980 M 1098.632600,211.391414 l -24.067700,24.067700 M 976.990133,333.033881 l 25.348867,-25.348867 M 821.841210,488.182804 l -24.430864,24.430864 M 736.609034,573.414980 l 24.064120,-24.064120 M 583.208647,726.815366 l -27.098144,27.098144 M 1129.445374,200.377630 l 33.942653,-33.942653 M 1098.632600,231.190404 l -24.067700,24.067700 M 976.747712,353.075292 l 25.591288,-25.591288 M 821.841210,507.981794 l -23.711809,23.711809 M 756.408024,573.414980 l 24.064120,-24.064120 M 602.632328,727.190675 l -26.722835,26.722835 M 1149.244364,200.377630 l 33.269330,-33.269330 M 1098.632600,250.989394 l -24.067700,24.067700 M 976.505290,373.116703 l 25.833710,-25.833710 M 821.841210,527.780784 l -45.634196,45.634196 M 595.708484,753.913510 l 26.420222,-26.420222 M 1349.544231,19.876752 l -10.676575,10.676575 M 1169.043353,200.377630 l 32.596014,-32.596014 M 1098.632600,270.788383 l -24.067700,24.067700 M 976.262869,393.158115 l 26.076131,-26.076131 M 821.841210,547.579773 l -25.835207,25.835207 M 615.507473,753.913510 l 26.306018,-26.306018 M 1369.343221,19.876752 l -30.123556,30.123556 M 1188.842343,200.377630 l 31.922698,-31.922698 M 1098.632600,290.587373 l -24.067700,24.067700 M 976.020448,413.199526 l 26.318552,-26.318552 M 821.841210,567.378763 l -6.036217,6.036217 M 635.306463,753.913510 l 26.198599,-26.198599 M 1389.142211,19.876752 l -49.570536,49.570536 M 1208.641333,200.377630 l 31.249382,-31.249382 M 1098.632600,310.386363 l -24.067700,24.067700 M 975.778026,433.240937 l 26.560974,-26.560974 M 681.363940,727.655023 l -26.258487,26.258487 M 1378.856746,49.961207 l 30.084455,-30.084455 M 1369.169981,59.647972 l -29.246297,29.246297 M 1228.440323,200.377630 l 30.576065,-30.576065 M 1098.632600,330.185353 l -24.067700,24.067700 M 975.535605,453.282348 l 26.803395,-26.803395 M 701.222817,727.595136 l -26.318374,26.318374 M 1398.655736,49.961207 l 30.084455,-30.084455 M 1368.725651,79.891291 l -28.449958,28.449958 M 1243.033700,205.583243 l 30.142315,-30.142315 M 1098.632600,349.984343 l -24.067700,24.067700 M 975.284145,473.332798 l 27.054855,-27.054855 M 721.217558,727.399385 l -26.514125,26.514125 M 1418.454726,49.961207 l 30.084455,-30.084455 M 1368.281322,100.134611 l -27.653620,27.653620 M 1243.033700,225.382233 l 30.362039,-30.362039 M 1098.632600,369.783333 l -24.067700,24.067700 M 975.041724,493.374209 l 27.297276,-27.297276 M 741.233001,727.182932 l -26.730578,26.730578 M 1438.253716,49.961207 l 30.084455,-30.084455 M 1367.836993,120.377930 l -26.857281,26.857281 M 1243.033700,245.181223 l 30.581763,-30.581763 M 1098.632600,389.582323 l -24.067700,24.067700 M 974.799303,513.415620 l 27.539697,-27.539697 M 761.296178,726.918744 l -26.994766,26.994766 M 1458.052706,49.961207 l 30.084455,-30.084455 M 1367.392663,140.621249 l -26.060942,26.060942 M 1243.033700,264.980213 l 30.801487,-30.801487 M 1098.632600,409.381313 l -24.067700,24.067700 M 974.556881,533.457031 l 27.782119,-27.782119 M 781.388917,726.624996 l -27.288514,27.288514 M 1477.851695,49.961207 l 30.084455,-30.084455 M 1366.948334,160.864569 l -25.264604,25.264604 M 1243.033700,284.779202 l 31.021211,-31.021211 M 1098.632600,429.180302 l -24.067700,24.067700 M 974.314460,553.498442 l 28.024540,-28.024540 M 801.481655,726.331248 l -27.582262,27.582262 M 1497.650685,49.961207 l 30.084455,-30.084455 M 1366.504004,181.107888 l -24.468265,24.468265 M 1243.033700,304.578192 l 31.240935,-31.240935 M 1098.632600,448.979292 l -24.022268,24.022268 M 974.072039,573.539854 l 28.266961,-28.266961 M 821.574393,726.037500 l -27.876010,27.876010 M 1514.065798,53.345084 l 29.805302,-29.805302 M 1366.059675,201.351208 l -23.671926,23.671926 M 1243.033700,324.377182 l 31.460659,-31.460659 M 1098.632600,468.778282 l -23.967551,23.967551 M 973.829617,593.581265 l 28.509383,-28.509383 M 841.667131,725.743751 l -28.169759,28.169759 M 1515.588841,71.621031 l 28.282259,-28.282259 M 1365.615284,221.594588 l -22.875527,22.875527 M 1243.033700,344.176172 l 31.680382,-31.680382 M 1098.632600,488.577272 l -23.912833,23.912833 M 973.587196,613.622676 l 28.751804,-28.751804 M 861.759869,725.450003 l -28.463507,28.463507 M 1517.111883,89.896979 l 26.759217,-26.759217 M 1365.170887,241.837974 l -22.079121,22.079121 M 1243.033700,363.975162 l 31.900106,-31.900106 M 1098.632600,508.376262 l -23.764702,23.764702 M 973.344775,633.664087 l 28.994225,-28.994225 M 881.852607,725.156255 l -28.757255,28.757255 M 1518.634926,108.172926 l 25.236174,-25.236174 M 1364.726491,262.081361 l -21.282714,21.282714 M 1243.033700,383.774152 l 32.119830,-32.119830 M 1098.632600,528.175252 l -23.598505,23.598505 M 973.102353,653.705498 l 29.236647,-29.236647 M 901.945345,724.862507 l -29.051003,29.051003 M 1520.157962,126.448879 l 23.713138,-23.713138 M 1364.282094,282.324748 l -20.486308,20.486308 M 1243.033700,403.573142 l 32.339554,-32.339554 M 1098.632600,547.974242 l -23.430582,23.430582 M 972.859932,673.746910 l 29.479068,-29.479068 M 922.038083,724.568759 l -29.344751,29.344751 M 1521.680982,144.724850 l 22.190118,-22.190118 M 1363.837697,302.568135 l -19.689902,19.689902 M 1243.033700,423.372132 l 32.559278,-32.559278 M 1098.632600,567.773232 l -23.144211,23.144211 M 972.617511,693.788321 l 29.721489,-29.721489 M 942.130821,724.275010 l -29.638500,29.638500 M 1523.204001,163.000821 l 20.667099,-20.667099 M 1363.393300,322.811522 l -18.893496,18.893496 M 1243.033700,443.171121 l 32.779002,-32.779002 M 1098.632600,587.572221 l -22.857841,22.857841 M 972.375089,713.829732 l 29.963911,-29.963911 M 962.223559,723.981262 l -29.932248,29.932248 M 1524.727020,181.276792 l 19.144080,-19.144080 M 1362.948903,343.054909 l -18.097090,18.097090 M 1243.033700,462.970111 l 32.998726,-32.998726 M 1098.632600,607.371211 l -22.511486,22.511486 M 952.090301,753.913510 l 50.248699,-50.248699 M 1561.524891,164.277910 l -30.215848,30.215848 M 1345.203822,380.598979 l 23.787099,-23.787099 M 1276.252150,449.550651 l -33.218450,33.218450 M 1076.549072,649.253729 l 22.083528,-22.083528 M 1002.339000,723.463801 l -30.449709,30.449709 M 1550.645400,194.956391 l 30.678481,-30.678481 M 1388.789911,356.811880 l -30.465686,30.465686 M 1243.033700,502.568091 l 33.413624,-33.413624 M 1098.632600,646.969191 l -21.631285,21.631285 M 991.688281,753.913510 l 10.650719,-10.650719 M 1601.122871,164.277910 l -31.141115,31.141115 M 1377.558587,387.842194 l 31.030314,-31.030314 M 1276.622859,488.777922 l -33.589159,33.589159 M 1077.616228,687.784553 l 21.016372,-21.016372 M 1620.921861,164.277910 l -31.603748,31.603748 M 1396.792948,388.406822 l 31.594942,-31.594942 M 1276.798395,508.401376 l -33.764695,33.764695 M 1078.270734,706.929037 l 20.361866,-20.361866 M 1640.720851,164.277910 l -32.066381,32.066381 M 1416.027310,388.971451 l 32.159571,-32.159571 M 1276.973930,528.024830 l -33.940230,33.940230 M 1079.159960,725.838800 l 19.472640,-19.472640 M 1660.519840,164.277910 l -32.529014,32.529014 M 1435.261672,389.536079 l 32.724199,-32.724199 M 1277.063279,547.734472 l -34.029579,34.029579 M 1080.407453,744.390297 l 18.225147,-18.225147 M 1680.318830,164.277910 l -32.991647,32.991647 M 1454.496033,390.100707 l 33.263473,-33.263473 M 1277.109478,567.487262 l -34.075778,34.075778 M 1085.168190,759.428550 l 29.575240,-29.575240 M 1700.025269,164.370461 l -33.361729,33.361729 M 1473.652434,390.743297 l 33.782637,-33.782637 M 1277.155678,587.240053 l -34.121978,34.121978 M 1101.503562,762.892168 l 33.038858,-33.038858 M 1719.632040,164.562680 l -33.632164,33.632164 M 1492.724703,391.470017 l 34.181907,-34.181907 M 1277.129343,607.065377 l -34.095643,34.095643 M 1119.744928,764.449792 l 34.596482,-34.596482 M 1738.993453,165.000257 l -33.657241,33.657241 M 1511.482552,392.511158 l 34.672642,-34.672642 M 1277.005696,626.988014 l -33.971996,33.971996 M 1138.694707,765.299003 l 35.445693,-35.445693 M 1758.125918,165.666782 l -33.453371,33.453371 M 1529.918676,393.874024 l 34.966773,-34.966773 M 1276.760604,647.032096 l -33.726904,33.726904 M 1158.210820,765.581879 l 35.728569,-35.728569 M 1777.028780,166.562910 l -33.019898,33.019898 M 1547.753690,395.838000 l 35.022951,-35.022951 M 1276.340938,667.250752 l -33.307238,33.307238 M 1178.188005,765.403685 l 35.550375,-35.550375 M 1795.620610,167.770070 l -32.275392,32.275392 M 1564.550760,398.839920 l 34.465373,-34.465373 M 1275.686209,687.704471 l -32.652509,32.652509 M 1198.607837,764.782843 l 34.929533,-34.929533 M 1813.771096,169.418573 l -31.089543,31.089543 M 1578.352377,404.837292 l 32.377365,-32.377365 M 1274.553817,708.635852 l -54.924139,54.924139 M 1802.017889,200.970771 l 28.894091,-28.894091 M 1611.185716,391.802943 l -33.512291,33.512291 M 1241.582619,761.406041 l 30.945712,-30.945712 M 1838.214266,184.573383 l -31.416286,31.416286 M 1573.567834,449.219815 l 35.313470,-35.313470 M 1836.162036,206.424603 l -33.871991,33.871991 M 1569.156767,473.429872 l 36.721379,-36.721379 M 1833.262331,229.123298 l -35.281428,35.281428 M 1564.576299,497.809330 l 37.866814,-37.866814 M 1911.926160,170.258459 l -1.046245,1.046245 M 1793.671761,288.512858 l 36.240907,-36.240907 M 1598.640608,483.544011 l -38.665891,38.665891 M 1910.649638,191.333970 l 21.842178,-21.842178 M 1826.426306,275.557303 l -37.063687,37.063687 M 1555.153108,546.830501 l 39.374117,-39.374117 M 1953.057472,168.725127 l -42.638110,42.638110 M 1785.064525,336.718074 l 37.654847,-37.654847 M 1590.165785,531.616814 l -39.834287,39.834287 M 1941.203248,200.378340 l 32.419880,-32.419880 M 1940.975000,200.606588 l -30.785914,30.785914 M 1780.820141,360.761447 l 38.083365,-38.083365 M 1585.628371,555.953218 l -40.121641,40.121641 M 1961.002238,200.378340 l 33.186546,-33.186546 M 1940.975000,220.405578 l -31.016191,31.016191 M 1776.575757,384.804821 l 38.393210,-38.393210 M 1581.008360,580.372218 l -40.329450,40.329450 M 1980.801228,200.378340 l 33.871753,-33.871753 M 1940.975000,240.204568 l -31.246467,31.246467 M 1772.331373,408.848195 l 38.615403,-38.615403 M 1576.388349,604.791219 l -40.312301,40.312301 M 2000.600218,200.378340 l 34.321106,-34.321106 M 1940.975000,260.003558 l -31.476744,31.476744 M 1768.086990,432.891568 l 38.742107,-38.742107 M 1571.870127,629.108431 l -40.215420,40.215420 M 2020.399208,200.378340 l 34.298356,-34.298356 M 1940.975000,279.802548 l -31.707020,31.707020 M 1763.842606,456.934942 l 38.809979,-38.809979 M 1567.409150,653.368398 l -39.581528,39.581528 M 2040.198198,200.378340 l 33.465167,-33.465167 M 1940.975000,299.601538 l -31.937296,31.937296 M 1759.598222,480.978316 l 38.774719,-38.774719 M 1563.058403,677.518135 l -38.047388,38.047388 M 2059.997188,200.378340 l 31.253257,-31.253257 M 1940.975000,319.400528 l -32.167573,32.167573 M 1755.356884,505.018644 l 38.705645,-38.705645 M 1558.844243,701.531285 l -34.416680,34.416680 M 2079.796178,200.378340 l 26.263692,-26.263692 M 1940.975000,339.199518 l -32.397849,32.397849 M 1751.131856,529.042662 l 38.494330,-38.494330 M 1557.375107,722.799411 l -28.442067,28.442067 M 2085.012854,214.960653 l 28.392039,-28.392039 M 1940.975000,358.998507 l -32.628126,32.628126 M 1746.906828,553.066680 l 38.276090,-38.276090 M 1573.616964,726.356544 l -32.057240,32.057240 M 2085.364863,234.407634 l 30.293950,-30.293950 M 1940.975000,378.797497 l -32.858402,32.858402 M 1742.681799,577.090698 l 37.898997,-37.898997 M 1592.087031,727.685467 l -34.184184,34.184184 M 2085.716872,253.854615 l 31.411425,-31.411425 M 1940.975000,398.596487 l -33.088678,33.088678 M 1738.456771,601.114716 l 37.521905,-37.521905 M 1611.621301,727.950186 l -35.978733,35.978733 M 2187.637120,171.733357 l 1.486764,-1.486764 M 2118.300624,241.069853 l -32.231742,32.231742 M 1907.656430,451.714047 l 33.318570,-33.318570 M 1771.191302,588.179175 l -36.959559,36.959559 M 1594.226574,765.143903 l 37.609862,-37.609862 M 2209.645328,169.524139 l -22.373184,22.373184 M 2086.420891,292.748576 l 32.737629,-32.737629 M 1940.975000,438.194467 l -33.491792,33.491792 M 1730.006715,649.162752 l 36.384033,-36.384033 M 1652.491386,726.678081 l -39.059897,39.059897 M 2186.907167,212.061290 l 43.259604,-43.259604 M 2119.856502,279.111955 l -33.083602,33.083602 M 1907.309985,491.658472 l 33.665015,-33.665015 M 1761.349845,637.618612 l -35.568158,35.568158 M 1633.197002,765.771455 l 40.009126,-40.009126 M 2250.688216,168.079231 l -32.299109,32.299109 M 2186.542191,232.225256 l 31.830207,-31.830207 M 2120.447162,298.320285 l -33.322253,33.322253 M 1907.136762,511.630685 l 33.838238,-33.838238 M 1756.205806,662.561640 l -34.649148,34.649148 M 1653.526316,765.241130 l 40.394554,-40.394554 M 2271.209660,167.356777 l -33.021563,33.021563 M 2186.177214,252.389222 l 31.830207,-31.830207 M 2120.807616,317.758820 l -33.330698,33.330698 M 1907.040813,531.525623 l 33.934187,-33.934187 M 1750.809499,687.756937 l -33.477869,33.477869 M 1674.603667,763.962770 l 40.031946,-40.031946 M 2291.731106,166.634320 l -33.744020,33.744020 M 2185.812238,272.553188 l 31.830207,-31.830207 M 2121.097084,337.268343 l -33.268156,33.268156 M 1907.013802,551.351624 l 33.961198,-33.961198 M 1744.988122,713.377304 l -48.320333,48.320333 M 2277.786076,200.378340 l 34.466487,-34.466487 M 2217.277469,260.886948 l -31.830207,31.830207 M 2088.180950,389.983467 l 33.051178,-33.051178 M 1940.975000,537.189416 l -33.988209,33.988209 M 1721.062873,757.101543 l 16.974832,-16.974832 M 2332.774020,165.189386 l -35.188954,35.188954 M 2185.082286,312.881121 l 31.830207,-31.830207 M 2121.304997,376.658409 l -32.771997,32.771997 M 1907.038420,590.924986 l 33.936580,-33.936580 M 2353.295477,164.466919 l -35.911421,35.911421 M 2184.717309,333.045087 l 31.830207,-31.830207 M 2121.326380,396.436016 l -32.441329,32.441329 M 1907.184822,610.577575 l 33.790178,-33.790178 M 2373.816934,163.744452 l -36.633888,36.633888 M 2184.352333,353.209053 l 31.830207,-31.830207 M 2121.347764,416.213622 l -32.110662,32.110662 M 1907.429027,630.132359 l 33.545973,-33.545973 M 2386.216500,171.143876 l -29.234464,29.234464 M 2183.987335,373.373041 l 31.830228,-31.830228 M 2121.369147,435.991229 l -31.779994,31.779994 M 1907.821901,649.538475 l 33.153099,-33.153099 M 2386.216500,190.942866 l -24.425761,24.425761 M 2183.622336,393.537030 l 31.830251,-31.830251 M 2121.390531,455.768835 l -31.449327,31.449327 M 1908.378296,668.781070 l 32.596704,-32.596704 M 2386.216500,210.741856 l -24.073752,24.073752 M 2183.257337,413.701018 l 31.830273,-31.830273 M 2121.411914,475.546441 l -31.118659,31.118659 M 1909.157313,687.801042 l 31.817687,-31.817687 M 2386.216500,230.540845 l -23.721743,23.721743 M 2182.892339,433.865007 l 31.830276,-31.830276 M 2121.433297,495.324048 l -30.787992,30.787992 M 1910.319192,706.438153 l 30.655808,-30.655808 M 2466.255735,170.300600 l -1.855731,1.855731 M 2362.846766,273.709569 l 23.369734,-23.369734 M 2214.357615,422.198720 l -31.830276,31.830276 M 2090.997356,545.558979 l 30.457325,-30.457325 M 1940.975000,695.581335 l -28.960930,28.960930 M 2464.034961,192.320364 l 22.019764,-22.019764 M 2386.216500,270.138825 l -23.017725,23.017725 M 2182.162341,474.192984 l 31.830276,-31.830276 M 2121.476064,534.879261 l -30.126657,30.126657 M 1914.909329,741.445996 l 26.065671,-26.065671 M 2505.853715,170.300600 l -42.183798,42.183798 M 2363.550785,312.603530 l 22.665715,-22.665715 M 2213.627618,462.526697 l -31.830276,31.830276 M 2108.756945,567.397370 l 30.080330,-30.080330 M 1946.300285,729.854030 l -23.247188,23.247188 M 2495.575675,200.377630 l 30.077030,-30.077030 M 2494.514053,201.439252 l -31.209179,31.209179 M 2363.902794,332.050511 l 22.313706,-22.313706 M 2213.262619,482.690686 l -31.830276,31.830276 M 2128.555935,567.397370 l 30.080330,-30.080330 M 1966.099275,729.854030 l -27.692499,27.692499 M 2515.374665,200.377630 l 30.077030,-30.077030 M 2494.492635,221.259660 l -31.552804,31.552804 M 2364.254803,351.497492 l 21.961697,-21.961697 M 2212.897621,502.854674 l -31.830276,31.830276 M 2148.354925,567.397370 l 30.080330,-30.080330 M 1985.898265,729.854030 l -29.972868,29.972868 M 2535.173655,200.377630 l 30.077030,-30.077030 M 2494.471217,241.080068 l -31.896430,31.896430 M 2364.606812,370.944473 l 21.609688,-21.609688 M 2212.532622,523.018663 l -44.378707,44.378707 M 1974.289463,761.261822 l 31.407792,-31.407792 M 2585.049675,170.300600 l -30.077030,30.077030 M 2462.209743,293.140531 l 32.240055,-32.240055 M 2386.216500,369.133775 l -21.257682,21.257682 M 2187.952905,567.397370 l 24.214719,-24.214719 M 2025.496245,729.854030 l -32.359045,32.359045 M 2574.771634,200.377630 l 30.077030,-30.077030 M 2494.428380,280.720884 l -32.583680,32.583680 M 2365.310817,409.838448 l 20.905683,-20.905683 M 2211.802624,563.346640 l -4.050730,4.050730 M 2012.289283,762.859982 l 33.005952,-33.005952 M 2624.647654,170.300600 l -30.077030,30.077030 M 2461.479656,333.468598 l 32.927306,-32.927306 M 2386.216500,408.731754 l -20.553685,20.553685 M 2031.635944,763.312310 l 33.458280,-33.458280 M 2644.446644,170.300600 l -30.077030,30.077030 M 2461.114613,353.632631 l 33.270931,-33.270931 M 2386.216500,428.530744 l -20.201686,20.201686 M 2051.110244,763.637000 l 33.782970,-33.782970 M 2656.970800,177.575434 l -22.802196,22.802196 M 2460.749636,373.796598 l 33.614490,-33.614490 M 2386.216500,448.329734 l -19.849687,19.849687 M 2070.714019,763.832215 l 33.978185,-33.978185 M 2656.970800,197.374424 l -18.054400,18.054400 M 2460.384660,393.960564 l 33.958048,-33.958048 M 2386.216500,468.128724 l -19.497688,19.497688 M 2090.392931,763.952293 l 34.098263,-34.098263 M 2656.970800,217.173414 l -18.054400,18.054400 M 2460.019683,414.124531 l 34.254833,-34.254833 M 2386.216500,487.927714 l -19.145689,19.145689 M 2110.114054,764.030160 l 34.176130,-34.176130 M 2656.970800,236.972404 l -18.054400,18.054400 M 2459.654707,434.288497 l 34.482043,-34.482043 M 2386.216500,507.726704 l -18.793691,18.793691 M 2129.947278,763.995926 l 34.141896,-34.141896 M 2656.970800,256.771394 l -18.054400,18.054400 M 2459.289731,454.452463 l 34.550615,-34.550615 M 2386.216500,527.525694 l -18.441692,18.441692 M 2149.791460,763.950733 l 34.096703,-34.096703 M 2656.970800,276.570383 l -18.054400,18.054400 M 2458.924754,474.616429 l 34.531620,-34.531620 M 2396.221573,537.319610 l -28.094766,28.094766 M 2169.635643,763.905540 l 34.051510,-34.051510 M 2656.970800,296.369373 l -18.054400,18.054400 M 2458.559778,494.780395 l 34.255624,-34.255624 M 2416.020563,537.319610 l -31.264917,31.264917 M 2189.479825,763.860348 l 34.006318,-34.006318 M 2656.970800,316.168363 l -18.054400,18.054400 M 2458.194801,514.944362 l 33.816418,-33.816418 M 2435.819553,537.319610 l -32.586872,32.586872 M 2209.403221,763.735942 l 33.881912,-33.881912 M 2656.970800,335.967353 l -18.054400,18.054400 M 2457.829825,535.108328 l 33.142681,-33.142681 M 2455.618543,537.319610 l -33.896376,33.896376 M 2229.346466,763.591687 l 33.737657,-33.737657 M 2656.970800,355.766343 l -18.054400,18.054400 M 2440.904162,571.832981 l 48.651168,-48.651168 M 2282.883113,729.854030 l -33.593402,33.593402 M 2638.916400,393.619733 l 18.054400,-18.054400 M 2487.284026,545.252106 l -24.750371,24.750371 M 2269.232956,763.303177 l 33.449147,-33.449147 M 2656.970800,395.364323 l -18.054400,18.054400 M 2289.176201,763.158922 l 33.304892,-33.304892 M 2656.970800,415.163313 l -18.054400,18.054400 M 2309.142159,762.991953 l 33.137923,-33.137923 M 2656.970800,434.962302 l -18.054400,18.054400 M 2329.116555,762.816547 l 32.962517,-32.962517 M 2656.970800,454.761292 l -18.047400,18.047400 M 2349.090951,762.641141 l 32.787111,-32.787111 M 2656.970800,474.560282 l -18.047400,18.047400 M 2369.065347,762.465735 l 32.611705,-32.611705 M 2656.970800,494.359272 l -18.047400,18.047400 M 2389.039743,762.290329 l 32.436299,-32.436299 M 2656.970800,514.158262 l -18.047400,18.047400 M 2409.014139,762.114923 l 32.260893,-32.260893 M 2656.970800,533.957252 l -18.047400,18.047400 M 2428.988535,761.939517 l 32.085487,-32.085487 M 2656.970800,553.756242 l -18.047400,18.047400 M 2448.962931,761.764111 l 31.910081,-31.910081 M 2656.970800,573.555231 l -18.047400,18.047400 M 2468.937327,761.588705 l 31.734675,-31.734675 M 2656.970800,593.354221 l -18.047400,18.047400 M 2488.911723,761.413299 l 31.559269,-31.559269 M 2656.970800,613.153211 l -18.047400,18.047400 M 2508.886119,761.237892 l 31.383862,-31.383862 M 2656.970800,632.952201 l -18.047400,18.047400 M 2528.860515,761.062486 l 31.208456,-31.208456 M 2656.970800,652.751191 l -18.047400,18.047400 M 2548.834911,760.887080 l 31.033050,-31.033050 M 2656.970800,672.550181 l -18.047400,18.047400 M 2568.809307,760.711674 l 30.857644,-30.857644 M 2656.970800,692.349171 l -18.047400,18.047400 M 2588.783703,760.536268 l 30.682238,-30.682238 M 2656.970800,712.148161 l -48.212701,48.212701 M 2628.732494,760.185456 l 28.238306,-28.238306 M 2656.970800,751.746140 l -8.263910,8.263910 M 486.236529,753.913510 l -1.326599,-1.326599 M 484.909930,732.787921 l 21.125589,21.125589 M 525.834509,753.913510 l -40.924579,-40.924579 M 484.909930,693.189941 l 60.723569,60.723569 M 514.401655,702.882676 l -29.491725,-29.491725 M 536.433346,724.914367 l 28.999143,28.999143 M 513.080010,681.762041 l -28.170080,-28.170080 M 557.343368,726.025399 l 27.888111,27.888111 M 512.204208,661.087250 l -27.294278,-27.294278 M 577.774975,726.658017 l 27.255493,27.255493 M 511.448806,640.532858 l -26.538876,-26.538876 M 598.035271,727.119322 l 26.794188,26.794188 M 510.916254,620.201316 l -26.006324,-26.006324 M 618.146416,727.431477 l 26.482033,26.482033 M 510.400894,599.886966 l -25.490964,-25.490964 M 638.101169,727.587241 l 26.326269,26.326269 M 510.054534,579.741615 l -25.144604,-25.144604 M 658.008757,727.695839 l 26.217671,26.217671 M 509.714754,559.602846 l -24.804824,-24.804824 M 677.777746,727.665838 l 26.247672,26.247672 M 509.477790,539.566892 l -24.567860,-24.567860 M 697.517208,727.606310 l 26.307200,26.307200 M 509.283030,519.573142 l -24.373100,-24.373100 M 717.153226,727.443338 l 26.470172,26.470172 M 509.117455,499.608577 l -24.207525,-24.207525 M 736.740394,727.231516 l 26.681994,26.681994 M 509.054059,479.746192 l -24.144129,-24.144129 M 756.299659,726.991791 l 26.921719,26.921719 M 508.990663,459.883806 l -24.080733,-24.080733 M 775.813366,726.706508 l 27.207002,27.207002 M 508.962550,440.056703 l -24.052620,-24.052620 M 795.327073,726.421225 l 27.492285,27.492285 M 508.962550,420.257713 l -24.052620,-24.052620 M 814.840780,726.135942 l 27.777568,27.777568 M 508.962550,400.458723 l -24.052620,-24.052620 M 665.407800,556.903973 l 16.511007,16.511007 M 862.417337,753.913510 l -28.062850,-28.062850 M 484.909930,356.607113 l 24.052620,24.052620 M 701.717797,573.414980 l -36.309997,-36.309997 M 853.868193,725.565377 l 28.348133,28.348133 M 508.962550,360.860743 l -24.052620,-24.052620 M 665.407800,517.305993 l 23.384594,23.384594 M 721.516787,573.414980 l -24.064120,-24.064120 M 873.381900,725.280094 l 28.633416,28.633416 M 508.962550,341.061753 l -24.052620,-24.052620 M 665.407800,497.507003 l 24.103647,24.103647 M 741.315777,573.414980 l -24.064120,-24.064120 M 892.895607,724.994811 l 28.918699,28.918699 M 508.962550,321.262763 l -24.052620,-24.052620 M 665.407800,477.708013 l 24.822700,24.822700 M 761.114767,573.414980 l -24.064120,-24.064120 M 912.409314,724.709528 l 29.203982,29.203982 M 508.962550,301.463774 l -24.052620,-24.052620 M 665.407800,457.909024 l 25.541753,25.541753 M 780.913756,573.414980 l -24.064120,-24.064120 M 931.923021,724.424245 l 29.489265,29.489265 M 508.962550,281.664784 l -24.052620,-24.052620 M 665.407800,438.110034 l 26.260806,26.260806 M 800.712746,573.414980 l -24.064120,-24.064120 M 951.436728,724.138962 l 29.774548,29.774548 M 508.962550,261.865794 l -24.052620,-24.052620 M 665.407800,418.311044 l 26.979840,26.979840 M 820.511736,573.414980 l -24.064120,-24.064120 M 970.950435,723.853679 l 30.059831,30.059831 M 508.962550,242.066804 l -24.052620,-24.052620 M 665.407800,398.512054 l 27.698860,27.698860 M 821.841210,554.945464 l -23.729822,-23.729822 M 972.474889,705.579143 l 29.864111,29.864111 M 508.962550,222.267814 l -24.052620,-24.052620 M 665.407800,378.713064 l 28.417880,28.417880 M 821.841210,535.146474 l -24.505197,-24.505197 M 972.711515,686.016779 l 29.627485,29.627485 M 508.962550,202.468824 l -24.052620,-24.052620 M 665.407800,358.914074 l 29.136899,29.136899 M 821.841210,515.347484 l -25.280572,-25.280572 M 972.948142,666.454416 l 29.390858,29.390858 M 514.637096,188.344380 l -24.067750,-24.067750 M 665.407800,339.115084 l 29.855919,29.855919 M 821.841210,495.548494 l -26.055946,-26.055946 M 973.184769,646.892053 l 29.154231,29.154231 M 1086.128004,759.835288 l -4.378446,-4.378446 M 510.368336,164.276630 l 24.067750,24.067750 M 708.921426,362.829720 l -30.080960,-30.080960 M 795.004276,448.912570 l 26.836934,26.836934 M 1002.339000,656.247294 l -28.917604,-28.917604 M 1079.599261,733.507556 l 30.208672,30.208672 M 554.235075,188.344380 l -24.067750,-24.067750 M 698.639455,332.748760 l 30.080960,30.080960 M 821.841210,455.950515 l -27.612284,-27.612284 M 973.658022,607.767327 l 28.680978,28.680978 M 1130.907231,765.016535 l -52.391749,-52.391749 M 549.966315,164.276630 l 24.067750,24.067750 M 748.519405,362.829720 l -30.080960,-30.080960 M 793.453576,407.763891 l 28.387634,28.387634 M 1002.339000,616.649315 l -28.444351,-28.444351 M 1077.753389,692.063703 l 20.879211,20.879211 M 1151.215701,765.526016 l -35.672706,-35.672706 M 569.765305,164.276630 l 24.067750,24.067750 M 768.318395,362.829720 l -30.080960,-30.080960 M 792.678227,387.189552 l 29.162983,29.162983 M 1002.339000,596.850325 l -28.207724,-28.207724 M 1077.097751,671.609076 l 21.534849,21.534849 M 1171.034060,765.545385 l -35.692075,-35.692075 M 589.564295,164.276630 l 24.067750,24.067750 M 788.117385,362.829720 l -30.080960,-30.080960 M 791.902877,366.615212 l 29.938333,29.938333 M 1002.339000,577.051335 l -27.971097,-27.971097 M 1076.594429,651.306764 l 22.038171,22.038171 M 1190.379617,765.091952 l -35.238642,-35.238642 M 609.363285,164.276630 l 24.067750,24.067750 M 821.841210,376.754555 l -44.005795,-44.005795 M 974.604529,529.517875 l 27.734471,27.734471 M 1098.632600,653.545945 l -22.485465,-22.485465 M 1174.939965,729.853310 l 34.377186,34.377186 M 653.230025,188.344380 l -24.067750,-24.067750 M 797.634405,332.748760 l 24.206805,24.206805 M 1002.339000,537.453355 l -27.497844,-27.497844 M 1075.781597,610.895952 l 22.851003,22.851003 M 1227.783878,762.898233 l -33.044923,-33.044923 M 648.961265,164.276630 l 24.067750,24.067750 M 821.841210,337.156575 l -4.407815,-4.407815 M 975.077783,490.393148 l 27.261217,27.261217 M 1098.632600,613.947965 l -23.145905,-23.145905 M 1214.537945,729.853310 l 30.938241,30.938241 M 692.828005,188.344380 l -24.067750,-24.067750 M 975.314410,470.830785 l 27.024590,27.024590 M 1098.632600,594.148975 l -23.438198,-23.438198 M 1234.336935,729.853310 l 27.308676,27.308676 M 712.626994,188.344380 l -24.067750,-24.067750 M 975.559859,451.277244 l 26.779141,26.779141 M 1098.632600,574.349986 l -23.607233,-23.607233 M 1243.033700,718.751086 l 26.756442,26.756442 M 732.425984,188.344380 l -24.067750,-24.067750 M 975.796485,431.714881 l 26.542515,26.542515 M 1098.632600,554.550996 l -23.776268,-23.776268 M 1243.033700,698.952096 l 29.746812,29.746812 M 752.224974,188.344380 l -24.067750,-24.067750 M 976.033112,412.152518 l 26.305888,26.305888 M 1098.632600,534.752006 l -23.917421,-23.917421 M 1243.033700,679.153106 l 31.386301,31.386301 M 772.023964,188.344380 l -24.067750,-24.067750 M 976.269739,392.590155 l 26.069261,26.069261 M 1098.632600,514.953016 l -23.972443,-23.972443 M 1243.033700,659.354116 l 32.451973,32.451973 M 791.822954,188.344380 l -24.067750,-24.067750 M 976.506366,373.027792 l 25.832634,25.832634 M 1098.632600,495.154026 l -24.027465,-24.027465 M 1243.033700,639.555126 l 33.150122,33.150122 M 811.621944,188.344380 l -24.067750,-24.067750 M 976.742992,353.465429 l 25.596008,25.596008 M 1098.632600,475.355036 l -24.067700,-24.067700 M 1243.033700,619.756136 l 33.602623,33.602623 M 831.420934,188.344380 l -24.067750,-24.067750 M 976.979619,333.903066 l 25.359381,25.359381 M 1098.632600,455.556046 l -24.067700,-24.067700 M 1243.033700,599.957146 l 33.888148,33.888148 M 851.219924,188.344380 l -24.067750,-24.067750 M 977.216246,314.340702 l 25.122754,25.122754 M 1098.632600,435.757056 l -24.067700,-24.067700 M 1243.033700,580.158156 l 34.057970,34.057970 M 871.018913,188.344380 l -24.067750,-24.067750 M 977.452873,294.778339 l 24.886127,24.886127 M 1098.632600,415.958067 l -24.067700,-24.067700 M 1243.033700,560.359167 l 34.138953,34.138953 M 890.817903,188.344380 l -24.067750,-24.067750 M 977.689499,275.215976 l 24.649501,24.649501 M 1098.632600,396.159077 l -24.067700,-24.067700 M 1243.033700,540.560177 l 34.092537,34.092537 M 910.616893,188.344380 l -24.067750,-24.067750 M 977.926126,255.653613 l 24.412874,24.412874 M 1098.632600,376.360087 l -24.067700,-24.067700 M 1243.033700,520.761187 l 34.046121,34.046121 M 930.415883,188.344380 l -24.067750,-24.067750 M 978.162753,236.091250 l 24.176247,24.176247 M 1098.632600,356.561097 l -24.067700,-24.067700 M 1243.033700,500.962197 l 33.999705,33.999705 M 950.214873,188.344380 l -24.067750,-24.067750 M 978.399380,216.528887 l 23.939620,23.939620 M 1098.632600,336.762107 l -24.067700,-24.067700 M 1243.033700,481.163207 l 33.823603,33.823603 M 970.013863,188.344380 l -24.067750,-24.067750 M 978.636006,196.966524 l 23.702994,23.702994 M 1098.632600,316.963117 l -24.067700,-24.067700 M 1243.033700,461.364217 l 33.644898,33.644898 M 1539.451216,757.781734 l -13.914633,-13.914633 M 965.745103,164.276630 l 36.593897,36.593897 M 1098.632600,297.164127 l -24.067700,-24.067700 M 1243.033700,441.565227 l 33.466194,33.466194 M 1564.209521,762.741048 l -39.741943,-39.741943 M 985.544093,164.276630 l 16.794907,16.794907 M 1098.632600,277.365137 l -24.067700,-24.067700 M 1243.033700,421.766237 l 33.280124,33.280124 M 1585.976435,764.708973 l -59.791159,-59.791159 M 1074.564900,233.498448 l 24.067700,24.067700 M 1276.089113,435.022660 l -33.055413,-33.055413 M 1528.654163,687.587711 l 27.911209,27.911209 M 1606.690755,765.624302 l -40.187513,-40.187513 M 1074.564900,213.699458 l 24.067700,24.067700 M 1275.864401,414.998959 l -32.830701,-32.830701 M 1531.442661,670.577219 l 27.931945,27.931945 M 1626.686410,765.820967 l -38.329794,-38.329794 M 1074.564900,193.900468 l 24.067700,24.067700 M 1275.639690,394.975258 l -32.605990,-32.605990 M 1534.471042,653.806610 l 27.859429,27.859429 M 1646.138965,765.474533 l -37.507500,-37.507500 M 1074.564900,174.101478 l 26.276152,26.276152 M 1275.414978,374.951556 l -32.381278,-32.381278 M 1537.553813,637.090391 l 27.746488,27.746488 M 1665.075677,764.612255 l -36.960431,-36.960431 M 1083.898941,163.636529 l 36.741101,36.741101 M 1275.190267,354.927855 l -32.156567,-32.156567 M 1540.725652,620.463240 l 27.649855,27.649855 M 1683.465588,763.203176 l -36.290092,-36.290092 M 1104.420398,164.358996 l 36.018634,36.018634 M 1274.965555,334.904154 l -31.931855,-31.931855 M 1543.970844,603.909443 l 27.479869,27.479869 M 1701.174339,761.112938 l -35.038067,-35.038067 M 1124.941855,165.081463 l 35.296167,35.296167 M 1274.740844,314.880452 l -31.707144,-31.707144 M 1345.291284,385.430893 l 1.508367,1.508367 M 1574.525920,614.665529 l -27.309883,-27.309883 M 1685.097049,725.236658 l 32.731978,32.731978 M 1180.037011,200.377630 l -34.573700,-34.573700 M 1243.033700,263.374319 l 31.482432,31.482432 M 1367.197422,387.538040 l -22.271125,-22.271125 M 1550.459069,570.799687 l 27.211958,27.211958 M 1732.136372,752.476990 l -28.078546,-28.078546 M 1165.984768,166.526397 l 33.851233,33.851233 M 1274.291421,274.833049 l -31.257721,-31.257721 M 1344.561309,345.102938 l 43.033883,43.033883 M 1580.820981,581.362609 l -27.119526,-27.119526 M 1717.834395,718.376024 l 20.548270,20.548270 M 1219.634991,200.377630 l -33.128774,-33.128774 M 1243.033700,223.776339 l 31.033009,31.033009 M 1362.935227,343.677866 l -18.738905,-18.738905 M 1376.069241,356.811880 l 31.923721,31.923721 M 1583.970935,564.713573 l -27.027094,-27.027094 M 1720.795603,701.538242 l 21.782326,21.782326 M 1239.433981,200.377630 l -32.406320,-32.406320 M 1243.033700,203.977349 l 30.808298,30.808298 M 1363.360532,324.304181 l -19.529197,-19.529197 M 1395.868231,356.811880 l 32.522501,32.522501 M 1587.113796,548.057444 l -26.927570,-26.927570 M 1723.756811,684.700459 l 22.662495,22.662495 M 1273.617286,214.761945 l -46.068181,-46.068181 M 1343.466347,284.611006 l 20.319490,20.319490 M 1448.788503,389.933162 l -33.121282,-33.121282 M 1563.324950,504.469610 l 26.888803,26.888803 M 1750.069117,691.213776 l -23.351099,-23.351099 M 1248.070549,169.416218 l 25.322026,25.322026 M 1364.211141,285.556810 l -21.109782,-21.109782 M 1435.466211,356.811880 l 33.769572,33.769572 M 1593.281567,514.627237 l -26.825095,-26.825095 M 1729.679226,651.024895 l 23.882399,23.882399 M 1273.167863,174.714543 l -4.575871,-4.575871 M 1342.736372,244.283051 l 21.900074,21.900074 M 1489.787890,391.334569 l -34.522689,-34.522689 M 1569.587994,471.134674 l 26.623856,26.623856 M 1757.054133,658.600812 l -24.413700,-24.413700 M 1342.371384,224.119073 l 22.690366,22.690366 M 1510.721211,392.468900 l -35.657020,-35.657020 M 1572.639653,454.387342 l 26.438833,26.438833 M 1760.425548,642.173238 l -24.823907,-24.823907 M 1342.006396,203.955096 l 23.480659,23.480659 M 1532.127529,394.076228 l -37.193991,-37.193991 M 1575.605947,437.554646 l 26.219794,26.219794 M 1763.765646,625.714346 l -25.202798,-25.202798 M 1341.641409,183.791119 l 24.270951,24.270951 M 1554.743100,396.892810 l -39.885588,-39.885588 M 1578.407632,420.557342 l 26.023250,26.023250 M 1767.086321,609.236030 l -25.562264,-25.562264 M 1341.276421,163.627141 l 25.061196,25.061196 M 1606.915684,429.266404 l -71.781805,-71.781805 M 1744.485264,566.835984 l 25.831126,25.831126 M 1934.399288,756.750008 l -20.628719,-20.628719 M 1340.911434,143.463164 l 25.851426,25.851426 M 1609.161904,411.713634 l -53.406332,-53.406332 M 1747.446471,549.998201 l 26.099988,26.099988 M 1957.416874,759.968604 l -46.546333,-46.546333 M 1340.546446,123.299186 l 26.641657,26.641657 M 1611.021076,393.773817 l -33.674102,-33.674102 M 1750.407679,533.160419 l 26.342385,26.342385 M 1940.975000,723.727740 l -31.564686,-31.564686 M 1947.101290,729.854030 l 31.701762,31.701762 M 1367.613346,130.567096 l -27.431887,-27.431887 M 1602.983864,365.937614 l 8.417607,8.417607 M 1779.891691,542.845441 l -26.522804,-26.522804 M 1908.465087,671.418837 l 32.509913,32.509913 M 1999.535748,762.489498 l -32.635468,-32.635468 M 1339.816471,82.971232 l 28.222118,28.222118 M 1783.033318,526.188078 l -26.702235,-26.702235 M 1907.851672,651.006432 l 33.123328,33.123328 M 2019.927096,763.081856 l -33.227826,-33.227826 M 1339.451484,62.807254 l 29.012348,29.012348 M 1786.155052,509.510822 l -26.853266,-26.853266 M 1907.441825,630.797595 l 33.533175,33.533175 M 2040.109557,763.465328 l -33.611298,-33.611298 M 1339.086496,42.643277 l 29.802578,29.802578 M 1789.218532,492.775312 l -26.946044,-26.946044 M 1907.186896,610.743676 l 33.788104,33.788104 M 2060.170441,763.727222 l -33.873192,-33.873192 M 1338.721509,22.479299 l 30.592809,30.592809 M 1792.282011,476.039802 l -27.038821,-27.038821 M 1907.037625,590.795416 l 33.937375,33.937375 M 2080.154075,763.911866 l -34.057836,-34.057836 M 1355.917951,19.876752 l 30.084455,30.084455 M 1530.515983,194.474784 l -5.115405,-5.115405 M 1768.213893,432.172694 l 27.121442,27.121442 M 1940.975000,604.933801 l -33.987893,-33.987893 M 2065.895229,729.854030 l 34.136320,34.136320 M 1405.801396,49.961207 l -30.084455,-30.084455 M 1523.600642,167.760453 l 27.199644,27.199644 M 1798.323267,442.483078 l -27.138672,-27.138672 M 1907.014045,551.173855 l 33.960955,33.960955 M 2119.859089,764.018900 l -34.164870,-34.164870 M 1395.515931,19.876752 l 30.084455,30.084455 M 1571.084589,195.445411 l -49.283883,-49.283883 M 1774.155298,398.516119 l 27.155902,27.155902 M 1940.975000,565.335821 l -33.934018,-33.934018 M 2105.493209,729.854030 l 34.119883,34.119883 M 1445.399376,49.961207 l -30.084455,-30.084455 M 1520.000770,124.562602 l 23.870330,23.870330 M 1591.368893,195.930724 l -31.652814,-31.652814 M 1777.126000,381.687831 l 27.170673,27.170673 M 1940.975000,545.536831 l -33.838822,-33.838822 M 2125.292199,729.854030 l 34.074896,34.074896 M 1465.198366,49.961207 l -30.084455,-30.084455 M 1518.200806,102.963647 l 25.670294,25.670294 M 1611.653196,196.416037 l -32.138127,-32.138127 M 1780.096703,364.859544 l 27.108042,27.108042 M 1940.975000,525.737841 l -33.668578,-33.668578 M 2145.091189,729.854030 l 34.029909,34.029909 M 1484.997356,49.961207 l -30.084455,-30.084455 M 1516.400837,81.364689 l 27.470263,27.470263 M 1631.937499,196.901351 l -32.623441,-32.623441 M 1783.067405,348.031257 l 27.045412,27.045412 M 1940.975000,505.938851 l -33.498334,-33.498334 M 2164.890179,729.854030 l 33.958258,33.958258 M 1504.796345,49.961207 l -30.084455,-30.084455 M 1514.600869,59.765730 l 29.270231,29.270231 M 1652.221802,197.386664 l -33.108754,-33.108754 M 1786.040760,331.205621 l 26.976839,26.976839 M 1940.975000,486.139862 l -33.328090,-33.328090 M 2184.689168,729.854030 l 33.816075,33.816075 M 1543.871100,69.236972 l -49.360220,-49.360220 M 1638.912038,164.277910 l 33.594073,33.594073 M 1815.833115,341.198987 l -26.790074,-26.790074 M 1907.868510,433.234382 l 33.106490,33.106490 M 2238.162050,763.527922 l -33.673892,-33.673892 M 1514.309870,19.876752 l 29.561230,29.561230 M 1692.790438,198.357320 l -34.079410,-34.079410 M 1792.045323,297.612205 l 26.603308,26.603308 M 1940.975000,446.541882 l -32.881448,-32.881448 M 2224.287148,729.854030 l 33.531709,33.531709 M 1543.871100,29.638992 l -9.762240,-9.762240 M 1678.510018,164.277910 l 34.564746,34.564746 M 1821.435630,307.203522 l -26.388026,-26.388026 M 1908.318594,394.086485 l 32.656406,32.656406 M 2277.475663,763.243555 l -33.389525,-33.389525 M 1698.389410,164.358312 l 34.969681,34.969681 M 1824.132648,290.101550 l -26.082761,-26.082761 M 1908.543635,374.512537 l 32.431365,32.431365 M 2101.428468,567.397370 l -10.220797,-10.220797 M 2263.885128,729.854030 l 33.243421,33.243421 M 1753.643418,199.813330 l -35.279305,-35.279305 M 1801.052168,247.222080 l 25.777497,25.777497 M 1940.975000,387.144912 l -32.206323,-32.206323 M 2090.842639,537.012551 l 30.384819,30.384819 M 2316.755187,762.925099 l -33.071069,-33.071069 M 1738.620915,164.991838 l 35.306829,35.306829 M 1829.400771,255.771693 l -25.291843,-25.291843 M 1908.993718,335.364641 l 31.981282,31.981282 M 2141.026448,567.397370 l -50.548841,-50.548841 M 2303.483108,729.854030 l 32.898717,32.898717 M 1794.212071,200.784003 l -35.077875,-35.077875 M 1807.208049,213.779982 l 24.719132,24.719132 M 1940.975000,347.546932 l -31.756240,-31.756240 M 2090.112575,496.684507 l 31.356096,31.356096 M 2160.825438,567.397370 l -30.080330,-30.080330 M 2323.282098,729.854030 l 32.726365,32.726365 M 1834.331649,221.104592 l -54.370241,-54.370241 M 1909.443802,296.216744 l 31.531198,31.531198 M 2121.447241,508.220183 l -31.699698,-31.699698 M 2150.544097,537.317040 l 30.080330,30.080330 M 2375.635100,762.408042 l -32.554012,-32.554012 M 1801.272396,168.246349 l 35.243702,35.243702 M 1940.975000,307.948953 l -31.306157,-31.306157 M 2089.382510,456.356463 l 32.043301,32.043301 M 2200.423417,567.397370 l -30.080330,-30.080330 M 2362.880077,729.854030 l 32.381660,32.381660 M 1838.160603,185.335566 l -14.659356,-14.659356 M 1909.893885,257.068848 l 31.081115,31.081115 M 2121.404381,468.579344 l -32.386904,-32.386904 M 2181.181893,528.356856 l 30.698412,30.698412 M 2414.888375,762.063338 l -32.209308,-32.209308 M 1910.118926,237.494899 l 30.856074,30.856074 M 2121.382952,448.758925 l -32.730506,-32.730506 M 2181.533913,508.909885 l 30.698412,30.698412 M 2434.515013,761.890986 l -32.036956,-32.036956 M 1910.343968,217.920951 l 30.631032,30.631032 M 2121.361522,428.938505 l -33.074109,-33.074109 M 2181.885932,489.462915 l 30.698412,30.698412 M 2454.141650,761.718634 l -31.864604,-31.864604 M 1910.569010,198.347003 l 30.405990,30.405990 M 2121.340092,409.118085 l -33.417693,-33.417693 M 2182.237952,470.015945 l 30.698412,30.698412 M 2473.768288,761.546281 l -31.692251,-31.692251 M 1910.794051,178.773055 l 30.180949,30.180949 M 2121.318663,389.297666 l -33.761251,-33.761251 M 2182.589971,450.568975 l 30.698412,30.698412 M 2493.394926,761.373929 l -31.519899,-31.519899 M 1921.713581,169.893594 l 30.484746,30.484746 M 2121.297233,369.477246 l -34.104809,-34.104809 M 2182.941991,431.122005 l 30.698412,30.698412 M 2513.021563,761.201577 l -31.347547,-31.347547 M 1940.801011,169.182035 l 31.196305,31.196305 M 2121.181515,349.562539 l -34.354079,-34.354079 M 2183.294011,411.675034 l 30.698412,30.698412 M 2532.648201,761.029225 l -31.175195,-31.175195 M 1959.888441,168.470475 l 31.907865,31.907865 M 2121.027365,329.609398 l -34.564916,-34.564916 M 2183.646030,392.228064 l 30.698412,30.698412 M 2552.274839,760.856872 l -31.002842,-31.002842 M 1978.975872,167.758916 l 32.619424,32.619424 M 2120.653290,309.436334 l -34.555829,-34.555829 M 2183.998050,372.781094 l 30.698412,30.698412 M 2379.419719,568.202763 l -11.449686,-11.449686 M 2541.070986,729.854030 l 30.830490,30.830490 M 2031.394286,200.378340 l -33.330984,-33.330984 M 2085.732474,254.716528 l 34.434621,34.434621 M 2215.048481,384.032535 l -30.698412,-30.698412 M 2367.605057,536.589111 l 33.139345,33.139345 M 2591.528114,760.512168 l -30.658138,-30.658138 M 2017.249097,166.434161 l 33.944179,33.944179 M 2119.534997,268.720061 l -34.167511,-34.167511 M 2184.702068,333.887132 l 30.698412,30.698412 M 2386.216500,535.401564 l -18.976419,-18.976419 M 2388.134546,537.319610 l 33.912406,33.912406 M 2611.154752,760.339816 l -30.485786,-30.485786 M 2036.663627,166.049701 l 34.328639,34.328639 M 2118.614538,248.000612 l -33.612039,-33.612039 M 2185.054067,314.440141 l 30.698412,30.698412 M 2386.216500,515.602574 l -19.341395,-19.341395 M 2407.933536,537.319610 l 34.489668,34.489668 M 2630.781389,760.167464 l -30.313434,-30.313434 M 2056.529623,166.116707 l 60.890045,60.890045 M 2216.104478,325.691562 l -30.698412,-30.698412 M 2366.510128,476.097213 l 19.706372,19.706372 M 2460.716521,570.303605 l -32.983995,-32.983995 M 2620.266946,729.854030 l 30.141081,30.141081 M 2115.809026,205.597121 l -38.354924,-38.354924 M 2185.758064,275.546159 l 30.698412,30.698412 M 2386.216500,476.004594 l -20.071348,-20.071348 M 2447.531516,537.319610 l 28.509581,28.509581 M 2656.970800,746.758894 l -18.047400,-18.047400 M 2102.222743,172.211848 l 10.306755,10.306755 M 2216.808475,286.797580 l -30.698412,-30.698412 M 2365.780176,435.769280 l 20.436324,20.436324 M 2485.429494,555.418599 l -27.470074,-27.470074 M 2638.923400,708.912505 l 18.047400,18.047400 M 2217.160474,267.350589 l -30.698412,-30.698412 M 2365.415199,415.605314 l 20.801301,20.801301 M 2488.141104,538.331219 l -29.829685,-29.829685 M 2638.923400,689.113515 l 18.047400,18.047400 M 2217.512473,247.903598 l -30.698412,-30.698412 M 2365.050223,395.441348 l 21.166277,21.166277 M 2489.793486,520.184611 l -31.130068,-31.130068 M 2638.923400,669.314525 l 18.047400,18.047400 M 2217.864471,228.456606 l -30.698412,-30.698412 M 2364.685242,375.277377 l 21.531258,21.531258 M 2490.996880,501.589015 l -31.981463,-31.981463 M 2638.923400,649.515535 l 18.047400,18.047400 M 2218.216470,209.009615 l -30.698412,-30.698412 M 2364.320254,355.113400 l 21.896246,21.896246 M 2491.937622,482.730767 l -32.570206,-32.570206 M 2638.923400,629.716545 l 18.047400,18.047400 M 2229.384185,200.378340 l -30.476195,-30.476195 M 2363.955267,334.949422 l 22.261233,22.261233 M 2492.715527,463.709683 l -32.996113,-32.996113 M 2638.923400,609.917555 l 18.047400,18.047400 M 2249.183175,200.378340 l -31.149511,-31.149511 M 2363.590279,314.785445 l 22.626221,22.626221 M 2493.317521,444.512687 l -33.246108,-33.246108 M 2638.923400,590.118565 l 18.047400,18.047400 M 2268.982165,200.378340 l -31.822827,-31.822827 M 2363.225292,294.621467 l 22.991208,22.991208 M 2493.742033,425.138208 l -33.318620,-33.318620 M 2638.923400,570.319575 l 18.047400,18.047400 M 2288.781154,200.378340 l -32.496143,-32.496143 M 2362.860304,274.457490 l 23.356196,23.356196 M 2494.096071,405.693257 l -33.320660,-33.320660 M 2638.923400,550.520586 l 18.047400,18.047400 M 2308.580144,200.378340 l -33.169459,-33.169459 M 2362.495317,254.293513 l 23.721183,23.721183 M 2494.231947,386.030142 l -33.104534,-33.104534 M 2638.923400,530.721596 l 18.047400,18.047400 M 2328.379134,200.378340 l -33.842780,-33.842780 M 2362.130329,234.129535 l 24.086171,24.086171 M 2494.335865,366.335071 l -32.856391,-32.856391 M 2638.923400,510.922606 l 18.047400,18.047400 M 2348.178124,200.378340 l -34.516107,-34.516107 M 2361.765342,213.965558 l 24.451158,24.451158 M 2494.357237,346.557453 l -32.525702,-32.525702 M 2638.923400,491.123616 l 18.047400,18.047400 M 2386.216500,218.617726 l -53.428821,-53.428821 M 2462.183596,294.584822 l 32.195012,32.195012 M 2656.970800,489.372026 l -18.047400,-18.047400 M 2351.913342,164.515578 l 34.303158,34.303158 M 2494.399980,307.002217 l -31.864323,-31.864323 M 2638.916400,451.518636 l 18.054400,18.054400 M 2386.216500,179.019746 l -15.177496,-15.177496 M 2462.887719,255.690965 l 31.533633,31.533633 M 2656.970800,449.774046 l -18.054400,-18.054400 M 2463.239780,236.244037 l 31.202944,31.202944 M 2656.970800,429.975056 l -18.054400,-18.054400 M 2463.591841,216.797108 l 30.872255,30.872255 M 2656.970800,410.176067 l -18.054400,-18.054400 M 2463.943903,197.350179 l 30.541565,30.541565 M 2656.970800,390.377077 l -18.054400,-18.054400 M 2464.295964,177.903251 l 30.210876,30.210876 M 2656.970800,370.578087 l -18.054400,-18.054400 M 2476.492303,170.300600 l 30.077030,30.077030 M 2656.970800,350.779097 l -18.054400,-18.054400 M 2496.291293,170.300600 l 30.077030,30.077030 M 2656.970800,330.980107 l -18.054400,-18.054400 M 2516.090283,170.300600 l 30.077030,30.077030 M 2656.970800,311.181117 l -18.054400,-18.054400 M 2535.889273,170.300600 l 30.077030,30.077030 M 2656.970800,291.382127 l -18.054400,-18.054400 M 2555.688262,170.300600 l 30.077030,30.077030 M 2656.970800,271.583138 l -18.054400,-18.054400 M 2575.487252,170.300600 l 30.077030,30.077030 M 2656.970800,251.784148 l -18.054400,-18.054400 M 2595.286242,170.300600 l 30.077030,30.077030 M 2656.970800,231.985158 l -18.054400,-18.054400 M 2615.085232,170.300600 l 41.885568,41.885568 M 2656.970800,192.387178 l -22.086578,-22.086578 M 2654.683212,170.300600 l 2.287588,2.287588"
         style="stroke:#000000;stroke-width:5;fill:none;stroke-miterlimit:4;stroke-dasharray:none" />
    </g>
  </g>
</svg>
