<?xml version="1.0"?>
<svg xmlns:rdf="http://www.w3.org/1999/02/22-rdf-syntax-ns#" xmlns="http://www.w3.org/2000/svg" xmlns:cc="http://web.resource.org/cc/" xmlns:xlink="http://www.w3.org/1999/xlink" xmlns:dc="http://purl.org/dc/elements/1.1/" xml:space="preserve" overflow="visible" version="1.1" enable-background="new 0 0 472.951 465.479" viewBox="0 0 472.951 465.479">
<switch>
	<g>
		<g id="Layer_1">
			<path d="m455.76 144.34c28.21 64.533 21.02 150.19-16.556 208.76-51.7 82.85-145.74 124.06-240.93 109.5-76.81-10.29-149.85-65.78-179.73-138.89-36.807-80.65-17.042-184.72 43.658-248.37 68.072-73.65 179.39-95.438 269.43-55.875 52.79 22.235 102.99 71.203 124.13 124.88zm-308.81-78.573c-66.27 35.266-106.71 107.27-98.84 182.89 3.705 28.8 12.122 56.48 28.413 79.584 3.228 3.67 7.924 2.311 12.169 1.669l4.647-2.302c40.069-38.306 78.208-77.011 118.24-116.02 1.137-7.875-0.18-17.315 0.455-25.641-0.743-44.578 0.867-89.245-0.792-132.83-7.292-10.872-19.791-2.566-29.7-1.241-11.99 3.303-23.41 8.481-34.6 13.888zm-21.24 301.47l-2.81 4.866c-0.394 3.778-0.065 7.35 2.191 10.059 11.484 9.254 24.509 15.482 37.791 21.488 13.306 5.297 27.078 10.855 42.27 10.776 4.791-1.233 5.466-6.188 6.352-10.182 0.989-41.25 0.263-80.916 0.527-121.71-28.92 27.97-57.83 55.72-86.32 84.69zm165.75-315.36c-9.914-1.326-22.406-9.631-29.7 1.241-1.664 43.584-0.047 88.251-0.792 132.83 0.637 8.325-0.68 17.766 0.449 25.641 40.031 39.01 78.179 77.714 118.24 116.02l4.646 2.302c4.252 0.642 8.948 2.001 12.174-1.669 16.298-23.104 24.712-50.784 28.415-79.584 7.866-75.619-32.568-147.62-98.85-182.89-11.18-5.41-22.61-10.588-34.59-13.893zm-30.49 230.66c0.262 40.795-0.465 80.461 0.529 121.71 0.881 3.993 1.561 8.948 6.352 10.182 15.197 0.079 28.959-5.479 42.268-10.776 13.279-6.006 26.306-12.234 37.785-21.488 2.26-2.709 2.588-6.281 2.199-10.059l-2.813-4.866c-28.49-28.96-57.4-56.71-86.32-84.69z" fill="#F7931D"/>
		</g>
	</g>
</switch>
<metadata><rdf:RDF><cc:Work><dc:format>image/svg+xml</dc:format><dc:type rdf:resource="http://purl.org/dc/dcmitype/StillImage"/><cc:license rdf:resource="http://creativecommons.org/licenses/publicdomain/"/><dc:publisher><cc:Agent rdf:about="http://openclipart.org/"><dc:title>Openclipart</dc:title></cc:Agent></dc:publisher></cc:Work><cc:License rdf:about="http://creativecommons.org/licenses/publicdomain/"><cc:permits rdf:resource="http://creativecommons.org/ns#Reproduction"/><cc:permits rdf:resource="http://creativecommons.org/ns#Distribution"/><cc:permits rdf:resource="http://creativecommons.org/ns#DerivativeWorks"/></cc:License></rdf:RDF></metadata></svg>
