<?xml version="1.0" encoding="UTF-8" standalone="no"?>
<!-- Created with Inkscape (http://www.inkscape.org/) -->

<svg
   xmlns:dc="http://purl.org/dc/elements/1.1/"
   xmlns:cc="http://creativecommons.org/ns#"
   xmlns:rdf="http://www.w3.org/1999/02/22-rdf-syntax-ns#"
   xmlns:svg="http://www.w3.org/2000/svg"
   xmlns="http://www.w3.org/2000/svg"
   xmlns:sodipodi="http://sodipodi.sourceforge.net/DTD/sodipodi-0.dtd"
   xmlns:inkscape="http://www.inkscape.org/namespaces/inkscape"
   sodipodi:docname="HappyNY_2023.svg"
   inkscape:version="0.92.2 5c3e80d, 2017-08-06"
   version="1.1"
   id="svg9228"
   height="800"
   width="3200">
  <defs
     id="defs9230" />
  <sodipodi:namedview
     inkscape:window-maximized="1"
     inkscape:window-y="1"
     inkscape:window-x="0"
     inkscape:window-height="1005"
     inkscape:window-width="1680"
     showgrid="false"
     inkscape:current-layer="svg9228"
     inkscape:document-units="px"
     inkscape:cy="320"
     inkscape:cx="1113.1624"
     inkscape:zoom="0.5"
     inkscape:pageshadow="2"
     inkscape:pageopacity="0.0"
     borderopacity="1.0"
     bordercolor="#666666"
     pagecolor="#ffffff"
     id="base" />
  <metadata
     id="metadata9233">
    <rdf:RDF>
      <cc:Work
         rdf:about="">
        <dc:format>image/svg+xml</dc:format>
        <dc:type
           rdf:resource="http://purl.org/dc/dcmitype/StillImage" />
        <dc:title></dc:title>
      </cc:Work>
    </rdf:RDF>
  </metadata>
  <g
     inkscape:label="1-default"
     inkscape:groupmode="layer"
     id="1-default">
    <path
       style="color:#000000;font-style:normal;font-variant:normal;font-weight:bold;font-stretch:normal;font-size:339.6000061px;line-height:125%;font-family:Miso;-inkscape-font-specification:'Miso, Bold';font-variant-ligatures:normal;font-variant-position:normal;font-variant-caps:normal;font-variant-numeric:normal;font-variant-alternates:normal;font-feature-settings:normal;text-indent:0;text-align:start;text-decoration:none;text-decoration-line:none;text-decoration-style:solid;text-decoration-color:#000000;letter-spacing:0px;word-spacing:0px;text-transform:none;writing-mode:lr-tb;direction:ltr;text-orientation:mixed;dominant-baseline:auto;baseline-shift:baseline;text-anchor:start;white-space:normal;shape-padding:0;clip-rule:nonzero;display:inline;overflow:visible;visibility:visible;opacity:1;isolation:auto;mix-blend-mode:normal;color-interpolation:sRGB;color-interpolation-filters:linearRGB;solid-color:#000000;solid-opacity:1;vector-effect:none;fill:none;fill-opacity:1;fill-rule:nonzero;stroke:#000000;stroke-width:3;stroke-linecap:butt;stroke-linejoin:miter;stroke-miterlimit:4;stroke-dasharray:none;stroke-dashoffset:0;stroke-opacity:1;color-rendering:auto;image-rendering:auto;shape-rendering:auto;text-rendering:auto;enable-background:accumulate"
       d="m 23.574219,24.474609 c -11.243275,0 -20.3007815,9.057508 -20.3007815,20.300782 V 241.74219 c 0,11.24327 9.0575065,20.30078 20.3007815,20.30078 11.243274,0 20.300781,-9.05751 20.300781,-20.30078 v -81.57813 h 40.902344 v 81.57813 c 0,11.24327 9.057507,20.30078 20.300786,20.30078 11.24327,0 20.30078,-9.05751 20.30078,-20.30078 V 44.775391 c 0,-11.243274 -9.05751,-20.300782 -20.30078,-20.300782 -11.243279,0 -20.300786,9.057508 -20.300786,20.300782 V 119.5625 H 43.875 V 44.775391 c 0,-11.243274 -9.057507,-20.300782 -20.300781,-20.300782 z m 0,8 c 7.095125,0 12.300781,5.205656 12.300781,12.300782 V 127.5625 H 92.777344 V 44.775391 c 0,-7.095126 5.205655,-12.300782 12.300786,-12.300782 7.09512,0 12.30078,5.205656 12.30078,12.300782 V 241.74219 c 0,7.09512 -5.20566,12.30078 -12.30078,12.30078 -7.095131,0 -12.300786,-5.20566 -12.300786,-12.30078 V 152.16406 H 35.875 v 89.57813 c 0,7.09512 -5.205655,12.30078 -12.300781,12.30078 -7.095126,0 -12.300781,-5.20566 -12.300781,-12.30078 V 44.775391 c 0,-7.095126 5.205655,-12.300782 12.300781,-12.300782 z"
       id="path8163"
       inkscape:connector-curvature="0" />
    <path
       style="color:#000000;font-style:normal;font-variant:normal;font-weight:bold;font-stretch:normal;font-size:339.6000061px;line-height:125%;font-family:Miso;-inkscape-font-specification:'Miso, Bold';font-variant-ligatures:normal;font-variant-position:normal;font-variant-caps:normal;font-variant-numeric:normal;font-variant-alternates:normal;font-feature-settings:normal;text-indent:0;text-align:start;text-decoration:none;text-decoration-line:none;text-decoration-style:solid;text-decoration-color:#000000;letter-spacing:0px;word-spacing:0px;text-transform:none;writing-mode:lr-tb;direction:ltr;text-orientation:mixed;dominant-baseline:auto;baseline-shift:baseline;text-anchor:start;white-space:normal;shape-padding:0;clip-rule:nonzero;display:inline;overflow:visible;visibility:visible;opacity:1;isolation:auto;mix-blend-mode:normal;color-interpolation:sRGB;color-interpolation-filters:linearRGB;solid-color:#000000;solid-opacity:1;vector-effect:none;fill:none;fill-opacity:1;fill-rule:nonzero;stroke:#000000;stroke-width:3;stroke-linecap:butt;stroke-linejoin:miter;stroke-miterlimit:4;stroke-dasharray:none;stroke-dashoffset:0;stroke-opacity:1;color-rendering:auto;image-rendering:auto;shape-rendering:auto;text-rendering:auto;enable-background:accumulate"
       d="m 212.20703,24.474609 c -9.43399,0 -17.40744,6.112796 -19.51367,14.958985 l 0.0352,-0.136719 -54.34375,196.998045 -0.008,0.0293 c -2.87611,11.09358 3.52883,21.96065 14,24.89258 l 0.0371,0.01 0.0391,0.01 c 11.0443,2.86333 21.85091,-3.47861 24.83985,-13.86719 1.15575,-3.1436 1.81829,-6.49843 2.77539,-10.00781 l 0.004,-0.0176 0.006,-0.0156 c 1.50282,-5.7107 3.73868,-13.86319 6.30665,-22.82812 h 51.64257 c 2.40978,9.02772 4.842,17.25505 6.3086,22.82812 l 0.004,0.0156 0.006,0.0176 c 0.95711,3.50938 1.61964,6.86421 2.77539,10.00781 2.98894,10.38858 13.79555,16.73052 24.83985,13.86719 l 0.0391,-0.01 0.0371,-0.01 c 10.47117,-2.93193 16.87611,-13.799 14,-24.89258 l -0.008,-0.0293 -0.008,-0.0312 L 231.7207,39.433594 C 229.61447,30.587405 221.64102,24.474609 212.20703,24.474609 Z m 0,8 c 6.18761,0 10.44071,3.395489 11.73047,8.8125 l 0.0156,0.06836 54.33985,196.976561 v 0.006 c 1.871,7.22835 -1.89663,13.32342 -8.38086,15.1582 -7.22594,1.85214 -13.31982,-1.92011 -15.13867,-8.41601 l -0.0469,-0.16602 -0.0605,-0.16015 c -0.83923,-2.23795 -1.53959,-5.60218 -2.60157,-9.4961 l 0.008,0.0332 c -1.73668,-6.59939 -4.43616,-15.36418 -7.12696,-25.79102 l -0.77343,-3 H 180.33789 L 179.5,209.38477 c -3.06853,10.56938 -5.45493,19.4338 -7.1582,25.90625 l 0.008,-0.0332 c -1.06198,3.89392 -1.76233,7.25815 -2.60156,9.4961 l -0.0606,0.16015 -0.0469,0.16602 c -1.81885,6.4959 -7.91273,10.26815 -15.13867,8.41601 -6.48422,-1.83478 -10.25186,-7.92985 -8.38086,-15.1582 5.3e-4,-0.002 -5.3e-4,-0.004 0,-0.006 l 54.33985,-196.976561 0.0156,-0.06836 c 1.28977,-5.417011 5.54286,-8.8125 11.73047,-8.8125 z m 0,59.511719 -3.83984,13.134762 c -6.47899,22.16498 -13.27197,48.32411 -19.71289,71.71485 l -1.39453,5.0625 h 49.89453 l -1.39453,-5.0625 c -6.44093,-23.39074 -13.2339,-49.54987 -19.71289,-71.71485 z m 0,29.148442 c 4.80822,17.15966 9.68687,35.2618 14.46875,52.76367 h -28.9375 c 4.78189,-17.50187 9.66053,-35.60401 14.46875,-52.76367 z"
       id="path8165"
       inkscape:connector-curvature="0" />
    <path
       style="color:#000000;font-style:normal;font-variant:normal;font-weight:bold;font-stretch:normal;font-size:339.6000061px;line-height:125%;font-family:Miso;-inkscape-font-specification:'Miso, Bold';font-variant-ligatures:normal;font-variant-position:normal;font-variant-caps:normal;font-variant-numeric:normal;font-variant-alternates:normal;font-feature-settings:normal;text-indent:0;text-align:start;text-decoration:none;text-decoration-line:none;text-decoration-style:solid;text-decoration-color:#000000;letter-spacing:0px;word-spacing:0px;text-transform:none;writing-mode:lr-tb;direction:ltr;text-orientation:mixed;dominant-baseline:auto;baseline-shift:baseline;text-anchor:start;white-space:normal;shape-padding:0;clip-rule:nonzero;display:inline;overflow:visible;visibility:visible;opacity:1;isolation:auto;mix-blend-mode:normal;color-interpolation:sRGB;color-interpolation-filters:linearRGB;solid-color:#000000;solid-opacity:1;vector-effect:none;fill:none;fill-opacity:1;fill-rule:nonzero;stroke:#000000;stroke-width:3;stroke-linecap:butt;stroke-linejoin:miter;stroke-miterlimit:4;stroke-dasharray:none;stroke-dashoffset:0;stroke-opacity:1;color-rendering:auto;image-rendering:auto;shape-rendering:auto;text-rendering:auto;enable-background:accumulate"
       d="m 319.39844,25.832031 c -11.24328,0 -20.30078,9.057507 -20.30078,20.300781 V 241.74219 c 0,11.24327 9.0575,20.30078 20.30078,20.30078 11.24327,0 20.30078,-9.05751 20.30078,-20.30078 v -74.78711 h 20.45117 c 33.73334,0 61.05273,-27.3194 61.05273,-61.05274 V 86.884766 c 0,-33.733339 -27.31939,-61.052735 -61.05273,-61.052735 z m 0,8 h 40.75195 c 29.43226,0 53.05274,23.620471 53.05273,53.052735 v 19.017574 c 0,29.43227 -23.62047,53.05274 -53.05273,53.05274 h -28.45117 v 82.78711 c 0,7.09512 -5.20566,12.30078 -12.30078,12.30078 -7.09513,0 -12.30078,-5.20566 -12.30078,-12.30078 V 46.132812 c 0,-7.095125 5.20565,-12.300781 12.30078,-12.300781 z m 12.30078,24.601563 v 75.919926 h 28.45117 c 15.71733,0 28.45117,-12.73384 28.45117,-28.45118 V 86.884766 c 0,-15.717335 -12.73384,-28.451172 -28.45117,-28.451172 z m 8,8 h 20.45117 c 11.45067,0 20.45117,9.000504 20.45117,20.451172 v 19.017574 c 0,11.45067 -9.0005,20.45118 -20.45117,20.45118 h -20.45117 z"
       id="path8167"
       inkscape:connector-curvature="0" />
    <path
       style="color:#000000;font-style:normal;font-variant:normal;font-weight:bold;font-stretch:normal;font-size:339.6000061px;line-height:125%;font-family:Miso;-inkscape-font-specification:'Miso, Bold';font-variant-ligatures:normal;font-variant-position:normal;font-variant-caps:normal;font-variant-numeric:normal;font-variant-alternates:normal;font-feature-settings:normal;text-indent:0;text-align:start;text-decoration:none;text-decoration-line:none;text-decoration-style:solid;text-decoration-color:#000000;letter-spacing:0px;word-spacing:0px;text-transform:none;writing-mode:lr-tb;direction:ltr;text-orientation:mixed;dominant-baseline:auto;baseline-shift:baseline;text-anchor:start;white-space:normal;shape-padding:0;clip-rule:nonzero;display:inline;overflow:visible;visibility:visible;opacity:1;isolation:auto;mix-blend-mode:normal;color-interpolation:sRGB;color-interpolation-filters:linearRGB;solid-color:#000000;solid-opacity:1;vector-effect:none;fill:none;fill-opacity:1;fill-rule:nonzero;stroke:#000000;stroke-width:3;stroke-linecap:butt;stroke-linejoin:miter;stroke-miterlimit:4;stroke-dasharray:none;stroke-dashoffset:0;stroke-opacity:1;color-rendering:auto;image-rendering:auto;shape-rendering:auto;text-rendering:auto;enable-background:accumulate"
       d="m 455.37109,25.832031 c -11.24327,0 -20.30078,9.057507 -20.30078,20.300781 V 241.74219 c 0,11.24327 9.05751,20.30078 20.30078,20.30078 11.24328,0 20.30079,-9.05751 20.30079,-20.30078 v -74.78711 h 20.45117 c 33.73333,0 61.05273,-27.3194 61.05273,-61.05274 V 86.884766 c 0,-33.733339 -27.3194,-61.052735 -61.05273,-61.052735 z m 0,8 h 40.75196 c 29.43226,0 53.05273,23.620471 53.05273,53.052735 v 19.017574 c 0,29.43227 -23.62047,53.05274 -53.05273,53.05274 h -28.45117 v 82.78711 c 0,7.09512 -5.20566,12.30078 -12.30079,12.30078 -7.09512,0 -12.30078,-5.20566 -12.30078,-12.30078 V 46.132812 c 0,-7.095125 5.20566,-12.300781 12.30078,-12.300781 z m 12.30079,24.601563 v 75.919926 h 28.45117 c 15.71733,0 28.45117,-12.73384 28.45117,-28.45118 V 86.884766 c 0,-15.717335 -12.73384,-28.451172 -28.45117,-28.451172 z m 8,8 h 20.45117 c 11.45066,0 20.45117,9.000504 20.45117,20.451172 v 19.017574 c 0,11.45067 -9.00051,20.45118 -20.45117,20.45118 h -20.45117 z"
       id="path8169"
       inkscape:connector-curvature="0" />
    <path
       style="color:#000000;font-style:normal;font-variant:normal;font-weight:bold;font-stretch:normal;font-size:339.6000061px;line-height:125%;font-family:Miso;-inkscape-font-specification:'Miso, Bold';font-variant-ligatures:normal;font-variant-position:normal;font-variant-caps:normal;font-variant-numeric:normal;font-variant-alternates:normal;font-feature-settings:normal;text-indent:0;text-align:start;text-decoration:none;text-decoration-line:none;text-decoration-style:solid;text-decoration-color:#000000;letter-spacing:0px;word-spacing:0px;text-transform:none;writing-mode:lr-tb;direction:ltr;text-orientation:mixed;dominant-baseline:auto;baseline-shift:baseline;text-anchor:start;white-space:normal;shape-padding:0;clip-rule:nonzero;display:inline;overflow:visible;visibility:visible;opacity:1;isolation:auto;mix-blend-mode:normal;color-interpolation:sRGB;color-interpolation-filters:linearRGB;solid-color:#000000;solid-opacity:1;vector-effect:none;fill:none;fill-opacity:1;fill-rule:nonzero;stroke:#000000;stroke-width:3;stroke-linecap:butt;stroke-linejoin:miter;stroke-miterlimit:4;stroke-dasharray:none;stroke-dashoffset:0;stroke-opacity:1;color-rendering:auto;image-rendering:auto;shape-rendering:auto;text-rendering:auto;enable-background:accumulate"
       d="m 576.80664,24.486328 c -2.60275,0.160568 -5.20396,0.852743 -7.6543,2.125 -10.03721,5.038608 -14.27854,17.33549 -9.23437,27.423828 l 0.002,0.002 45.42188,90.509774 v 97.19531 c 0,11.24327 9.0575,20.30078 20.30078,20.30078 11.24327,0 20.30078,-9.05751 20.30078,-20.30078 v -97.19531 l 45.42383,-90.509774 v -0.002 c 5.04417,-10.088338 0.80479,-22.38522 -9.23242,-27.423828 -9.83556,-5.106799 -22.10353,-0.80467 -27.12696,9.242188 l -11.21679,22.433593 -0.01,0.01758 C 638.42849,69.291573 631.71527,82.386554 625.6424,94.582032 619.47268,82.432933 612.88686,69.350268 607.50568,58.304689 l -0.01,-0.01758 L 596.2793,35.853516 C 592.50736,28.309632 584.65126,24.00238 576.80664,24.486328 Z m 0.55859,7.97461 c 4.66752,-0.280153 9.41891,2.288986 11.75977,6.970703 l 11.20703,22.414062 c 6.46463,13.268766 14.61276,29.565474 21.75195,43.503907 l 3.64649,7.12109 3.50781,-7.1914 c 6.74966,-13.836798 15.22746,-30.115321 21.7168,-43.433597 l 0.0195,-0.03711 11.1875,-22.376953 c 3.12114,-6.242289 10.52633,-8.728703 16.30664,-5.712891 l 0.0312,0.01563 0.0293,0.01563 c 6.24229,3.121144 8.78486,10.504495 5.68359,16.707031 l -46.26953,92.19336 v 99.0918 c 0,7.09512 -5.20566,12.30078 -12.30078,12.30078 -7.09513,0 -12.30078,-5.20566 -12.30078,-12.30078 v -99.0918 l -46.26758,-92.19336 -0.002,-0.0059 c -3.0969,-6.201368 -0.5568,-13.580977 5.68359,-16.701172 l 0.0312,-0.01563 0.0312,-0.01563 c 1.44508,-0.753953 2.99103,-1.164428 4.54687,-1.257812 z"
       id="path8171"
       inkscape:connector-curvature="0" />
    <path
       style="color:#000000;font-style:normal;font-variant:normal;font-weight:bold;font-stretch:normal;font-size:339.6000061px;line-height:125%;font-family:Miso;-inkscape-font-specification:'Miso, Bold';font-variant-ligatures:normal;font-variant-position:normal;font-variant-caps:normal;font-variant-numeric:normal;font-variant-alternates:normal;font-feature-settings:normal;text-indent:0;text-align:start;text-decoration:none;text-decoration-line:none;text-decoration-style:solid;text-decoration-color:#000000;letter-spacing:0px;word-spacing:0px;text-transform:none;writing-mode:lr-tb;direction:ltr;text-orientation:mixed;dominant-baseline:auto;baseline-shift:baseline;text-anchor:start;white-space:normal;shape-padding:0;clip-rule:nonzero;display:inline;overflow:visible;visibility:visible;opacity:1;isolation:auto;mix-blend-mode:normal;color-interpolation:sRGB;color-interpolation-filters:linearRGB;solid-color:#000000;solid-opacity:1;vector-effect:none;fill:none;fill-opacity:1;fill-rule:nonzero;stroke:#000000;stroke-width:3;stroke-linecap:butt;stroke-linejoin:miter;stroke-miterlimit:4;stroke-dasharray:none;stroke-dashoffset:0;stroke-opacity:1;color-rendering:auto;image-rendering:auto;shape-rendering:auto;text-rendering:auto;enable-background:accumulate"
       d="m 791.9082,24.449219 c -1.15563,0.04937 -2.32782,0.197709 -3.51172,0.455078 -9.53702,2.073267 -15.71679,10.437105 -15.71679,19.871094 V 241.74219 c 0,11.24327 9.0575,20.30078 20.30078,20.30078 11.24327,0 20.30078,-9.05751 20.30078,-20.30078 V 133.63672 c 12.05041,25.15785 24.81858,51.1916 35.19336,72.50195 l 0.002,0.002 0.002,0.004 c 7.46318,15.26561 14.57548,29.82918 21.33984,44.37109 3.8322,8.516 13.31772,13.16684 22.83594,11.09766 l 0.0391,-0.01 0.0371,-0.008 c 8.90742,-2.12081 15.64062,-10.18764 15.64062,-19.85351 V 44.775391 c 0,-11.243274 -9.05946,-20.300782 -20.30273,-20.300782 -11.24327,0 -20.30078,9.057508 -20.30078,20.300782 V 153 c -12.19251,-24.9988 -24.842,-51.36089 -35.19141,-72.619141 l -0.002,-0.0039 -0.002,-0.002 C 825.10153,65.093955 817.98144,50.513602 811.21094,35.957031 l -0.0566,-0.123047 -0.0645,-0.11914 C 807.21903,28.676994 799.99763,24.103637 791.9082,24.449219 Z m 2.53907,8 c 4.07199,0.438275 7.32672,2.955355 9.61132,7.089843 6.78457,14.579983 13.88962,29.138476 21.32618,44.34961 l -0.002,-0.0078 c 12.55001,25.778398 28.17483,58.730258 42.79883,88.318358 l 7.58594,-1.77149 V 44.775391 c 0,-7.095126 5.20565,-12.300782 12.30078,-12.300782 7.09513,0 12.30273,5.205656 12.30273,12.300782 V 241.74219 c 0,5.94097 -4.11861,10.76506 -9.45507,12.05469 -6.08704,1.3056 -11.52718,-1.50765 -13.80274,-6.56446 l -0.01,-0.0215 -0.01,-0.0234 c -6.81266,-14.64721 -13.95512,-29.26988 -21.42578,-44.55078 l -0.002,-0.006 C 843.09095,176.80209 826.79808,143.87801 812.89983,114.3866 l -7.61914,1.70508 v 125.65039 c 0,7.09512 -5.20566,12.30078 -12.30078,12.30078 -7.09513,0 -12.30078,-5.20566 -12.30078,-12.30078 V 44.775391 c 0,-6.187612 3.33144,-10.730002 9.41601,-12.052735 1.53761,-0.334262 2.99036,-0.419946 4.35157,-0.273437 z"
       id="path8173"
       inkscape:connector-curvature="0" />
    <path
       style="color:#000000;font-style:normal;font-variant:normal;font-weight:bold;font-stretch:normal;font-size:339.6000061px;line-height:125%;font-family:Miso;-inkscape-font-specification:'Miso, Bold';font-variant-ligatures:normal;font-variant-position:normal;font-variant-caps:normal;font-variant-numeric:normal;font-variant-alternates:normal;font-feature-settings:normal;text-indent:0;text-align:start;text-decoration:none;text-decoration-line:none;text-decoration-style:solid;text-decoration-color:#000000;letter-spacing:0px;word-spacing:0px;text-transform:none;writing-mode:lr-tb;direction:ltr;text-orientation:mixed;dominant-baseline:auto;baseline-shift:baseline;text-anchor:start;white-space:normal;shape-padding:0;clip-rule:nonzero;display:inline;overflow:visible;visibility:visible;opacity:1;isolation:auto;mix-blend-mode:normal;color-interpolation:sRGB;color-interpolation-filters:linearRGB;solid-color:#000000;solid-opacity:1;vector-effect:none;fill:none;fill-opacity:1;fill-rule:nonzero;stroke:#000000;stroke-width:3;stroke-linecap:butt;stroke-linejoin:miter;stroke-miterlimit:4;stroke-dasharray:none;stroke-dashoffset:0;stroke-opacity:1;color-rendering:auto;image-rendering:auto;shape-rendering:auto;text-rendering:auto;enable-background:accumulate"
       d="m 956.14844,25.832031 c -11.24328,0 -20.30078,9.057507 -20.30078,20.300781 V 240.38477 c 0,11.24327 9.0575,20.30078 20.30078,20.30078 h 67.91996 c 11.2432,0 20.3007,-9.05751 20.3007,-20.30078 0,-11.24328 -9.0575,-20.30079 -20.3007,-20.30079 h -47.61918 v -59.91992 h 40.82808 c 11.2433,0 20.3008,-9.0575 20.3008,-20.30078 0,-11.24327 -9.0575,-20.30078 -20.3008,-20.30078 H 976.44922 V 66.433594 h 47.61918 c 11.2432,0 20.3007,-9.057507 20.3007,-20.300782 0,-11.243274 -9.0575,-20.300781 -20.3007,-20.300781 z m 0,8 h 67.91996 c 7.0951,0 12.3007,5.205656 12.3007,12.300781 0,7.095126 -5.2056,12.300782 -12.3007,12.300782 H 968.44922 V 127.5625 h 48.82808 c 7.0952,0 12.3008,5.20566 12.3008,12.30078 0,7.09513 -5.2056,12.30078 -12.3008,12.30078 h -48.82808 v 75.91992 h 55.61918 c 7.0951,0 12.3007,5.20566 12.3007,12.30079 0,7.09512 -5.2056,12.30078 -12.3007,12.30078 h -67.91996 c -7.09513,0 -12.30078,-5.20566 -12.30078,-12.30078 V 46.132812 c 0,-7.095125 5.20565,-12.300781 12.30078,-12.300781 z"
       id="path8175"
       inkscape:connector-curvature="0" />
    <path
       style="color:#000000;font-style:normal;font-variant:normal;font-weight:bold;font-stretch:normal;font-size:339.6000061px;line-height:125%;font-family:Miso;-inkscape-font-specification:'Miso, Bold';font-variant-ligatures:normal;font-variant-position:normal;font-variant-caps:normal;font-variant-numeric:normal;font-variant-alternates:normal;font-feature-settings:normal;text-indent:0;text-align:start;text-decoration:none;text-decoration-line:none;text-decoration-style:solid;text-decoration-color:#000000;letter-spacing:0px;word-spacing:0px;text-transform:none;writing-mode:lr-tb;direction:ltr;text-orientation:mixed;dominant-baseline:auto;baseline-shift:baseline;text-anchor:start;white-space:normal;shape-padding:0;clip-rule:nonzero;display:inline;overflow:visible;visibility:visible;opacity:1;isolation:auto;mix-blend-mode:normal;color-interpolation:sRGB;color-interpolation-filters:linearRGB;solid-color:#000000;solid-opacity:1;vector-effect:none;fill:none;fill-opacity:1;fill-rule:nonzero;stroke:#000000;stroke-width:3;stroke-linecap:butt;stroke-linejoin:miter;stroke-miterlimit:4;stroke-dasharray:none;stroke-dashoffset:0;stroke-opacity:1;color-rendering:auto;image-rendering:auto;shape-rendering:auto;text-rendering:auto;enable-background:accumulate"
       d="m 1069.3828,24.310547 c -1.3627,0.06303 -2.7495,0.269194 -4.1445,0.630859 l -0.037,0.0098 -0.037,0.0098 c -10.5131,2.943662 -17.6849,13.826268 -14.6602,24.628906 l 47.5078,196.828128 -0.02,-0.0898 c 2.0733,9.53703 10.4351,15.71485 19.8691,15.71485 9.434,0 17.4815,-6.286 19.5313,-15.71485 3.3934,-14.25339 6.7793,-28.81248 10.498,-43.6875 5.2741,-21.09631 11.5097,-46.70005 17.4844,-71.32031 5.7916,24.6283 11.9336,50.23435 17.2051,71.32031 3.7187,14.87502 7.1066,29.43411 10.5,43.6875 2.0732,9.53703 10.4351,15.71485 19.8691,15.71485 9.434,0 17.4815,-6.286 19.5313,-15.71485 l 47.5234,-196.878903 -0.037,0.140625 c 2.9714,-10.612141 -3.5844,-21.757701 -14.7344,-24.648438 -11.1599,-2.893319 -21.734,4.146157 -24.5722,15.09375 l -0.01,0.03906 -0.01,0.03906 c -3.3993,14.277117 -6.7904,28.862775 -10.5156,43.763672 -5.2762,21.104944 -11.4179,46.909884 -17.207,71.324214 -5.972,-24.40472 -12.2036,-50.20897 -17.4825,-71.324214 -3.7187,-14.875018 -7.1066,-29.434105 -10.5,-43.6875 -2.0497,-9.428844 -10.0953,-15.714844 -19.5293,-15.714844 -9.4339,0 -17.7978,6.177817 -19.871,15.714844 -3.3934,14.253395 -6.7793,28.812482 -10.4981,43.6875 -5.2762,21.104944 -11.4179,46.909884 -17.207,71.324214 -5.972,-24.40472 -12.2036,-50.20897 -17.4824,-71.324214 -3.7253,-14.900897 -7.1183,-29.486555 -10.5176,-43.763672 l -0.01,-0.03906 -0.012,-0.03906 c -2.4834,-9.579144 -10.8886,-16.165835 -20.4277,-15.724609 z m 0.4824,7.939453 c 5.9313,-0.413081 10.5246,3.326013 12.2012,9.792969 3.3867,14.225296 6.7802,28.818087 10.5195,43.77539 6.4444,25.777561 14.2559,58.379021 21.3926,87.265621 l 7.7774,-0.043 c 6.7892,-28.85409 14.5966,-61.4451 21.041,-87.222661 3.746,-14.983904 7.1464,-29.604232 10.539,-43.853515 l 0.01,-0.03711 0.01,-0.03906 c 1.3227,-6.084573 5.8651,-9.414063 12.0527,-9.414063 6.1877,0 10.3667,3.221307 11.7129,9.414063 l 0.01,0.03906 0.01,0.03711 c 3.3927,14.249283 6.7912,28.869611 10.5371,43.853515 6.4444,25.777561 14.2559,58.379021 21.3926,87.265621 l 7.7774,-0.043 c 6.7891,-28.85409 14.5966,-61.4451 21.041,-87.222661 3.7393,-14.957152 7.1328,-29.550231 10.5195,-43.77539 v -0.0039 c 1.9174,-7.38781 7.6414,-11.214214 14.8184,-9.353515 7.1884,1.863663 10.8221,8.378234 9.0391,14.746094 l -0.02,0.07031 -47.5722,197.082022 -0.01,0.0449 c -1.3462,6.19275 -5.5253,9.41406 -11.7129,9.41406 -6.1876,0 -10.73,-3.32948 -12.0527,-9.41406 l -0.01,-0.0391 -0.01,-0.0371 c -3.3927,-14.24928 -6.7911,-28.86961 -10.5371,-43.85351 -6.4484,-25.79358 -14.2542,-57.69738 -21.0371,-87.20313 l -7.7871,-0.041 c -7.1295,29.53645 -14.9383,61.45055 -21.3867,87.24413 -3.746,14.9839 -7.1464,29.60423 -10.5391,43.85351 l -0.01,0.0371 -0.01,0.0391 c -1.3462,6.19275 -5.5253,9.41406 -11.7129,9.41406 -6.1876,0 -10.73,-3.32948 -12.0527,-9.41406 l -0.01,-0.0449 -47.5703,-197.082022 -0.019,-0.07031 c -1.7275,-6.169678 2.6362,-12.933086 9.0898,-14.753907 0.8784,-0.224469 1.7361,-0.369907 2.5664,-0.427734 z"
       id="path8177"
       inkscape:connector-curvature="0" />
    <path
       style="color:#000000;font-style:normal;font-variant:normal;font-weight:bold;font-stretch:normal;font-size:339.6000061px;line-height:125%;font-family:Miso;-inkscape-font-specification:'Miso, Bold';font-variant-ligatures:normal;font-variant-position:normal;font-variant-caps:normal;font-variant-numeric:normal;font-variant-alternates:normal;font-feature-settings:normal;text-indent:0;text-align:start;text-decoration:none;text-decoration-line:none;text-decoration-style:solid;text-decoration-color:#000000;letter-spacing:0px;word-spacing:0px;text-transform:none;writing-mode:lr-tb;direction:ltr;text-orientation:mixed;dominant-baseline:auto;baseline-shift:baseline;text-anchor:start;white-space:normal;shape-padding:0;clip-rule:nonzero;display:inline;overflow:visible;visibility:visible;opacity:1;isolation:auto;mix-blend-mode:normal;color-interpolation:sRGB;color-interpolation-filters:linearRGB;solid-color:#000000;solid-opacity:1;vector-effect:none;fill:none;fill-opacity:1;fill-rule:nonzero;stroke:#000000;stroke-width:3;stroke-linecap:butt;stroke-linejoin:miter;stroke-miterlimit:4;stroke-dasharray:none;stroke-dashoffset:0;stroke-opacity:1;color-rendering:auto;image-rendering:auto;shape-rendering:auto;text-rendering:auto;enable-background:accumulate"
       d="m 1368.1016,24.486328 c -2.6048,0.160691 -5.2082,0.852837 -7.6602,2.126953 -10.0344,5.039859 -14.272,17.334869 -9.2285,27.421875 v 0.002 l 45.4219,90.509774 v 97.19531 c 0,11.24327 9.0575,20.30078 20.3008,20.30078 11.2433,0 20.3008,-9.05751 20.3008,-20.30078 v -97.19531 l 45.4238,-90.509774 v -0.002 c 5.0435,-10.087006 0.8059,-22.382016 -9.2285,-27.421875 -9.8365,-5.111328 -22.1084,-0.808524 -27.1328,9.240235 l -11.2149,22.433593 -0.01,0.01758 c -5.3526,10.986884 -12.0658,24.081865 -18.1387,36.277343 -6.1697,-12.149135 -12.7575,-25.231725 -18.1387,-36.277343 l -0.01,-0.01758 -11.2168,-22.433593 c -3.7719,-7.543884 -11.628,-11.851136 -19.4726,-11.367188 z m 0.5586,7.97461 c 4.6675,-0.280153 9.4189,2.288986 11.7597,6.970703 l 11.2051,22.414062 c 6.4647,13.268896 14.6126,29.565224 21.752,43.503907 l 3.6484,7.12109 3.5078,-7.1914 c 6.7498,-13.837047 15.2274,-30.115189 21.7168,-43.433597 l 0.018,-0.03711 11.1894,-22.376953 c 3.1212,-6.242289 10.5264,-8.728703 16.3067,-5.712891 l 0.029,0.01563 0.031,0.01563 c 6.2423,3.121144 8.7849,10.504495 5.6836,16.707031 l -46.2695,92.19336 v 99.0918 c 0,7.09512 -5.2057,12.30078 -12.3008,12.30078 -7.0951,0 -12.3008,-5.20566 -12.3008,-12.30078 V 142.6504 L 1358.369,50.45704 v -0.0059 c -3.0969,-6.201368 -0.5568,-13.580977 5.6836,-16.701172 l 0.031,-0.01563 0.031,-0.01563 c 1.4451,-0.753953 2.991,-1.164428 4.5469,-1.257812 z"
       id="path8179"
       inkscape:connector-curvature="0" />
    <path
       style="color:#000000;font-style:normal;font-variant:normal;font-weight:bold;font-stretch:normal;font-size:339.6000061px;line-height:125%;font-family:Miso;-inkscape-font-specification:'Miso, Bold';font-variant-ligatures:normal;font-variant-position:normal;font-variant-caps:normal;font-variant-numeric:normal;font-variant-alternates:normal;font-feature-settings:normal;text-indent:0;text-align:start;text-decoration:none;text-decoration-line:none;text-decoration-style:solid;text-decoration-color:#000000;letter-spacing:0px;word-spacing:0px;text-transform:none;writing-mode:lr-tb;direction:ltr;text-orientation:mixed;dominant-baseline:auto;baseline-shift:baseline;text-anchor:start;white-space:normal;shape-padding:0;clip-rule:nonzero;display:inline;overflow:visible;visibility:visible;opacity:1;isolation:auto;mix-blend-mode:normal;color-interpolation:sRGB;color-interpolation-filters:linearRGB;solid-color:#000000;solid-opacity:1;vector-effect:none;fill:none;fill-opacity:1;fill-rule:nonzero;stroke:#000000;stroke-width:3;stroke-linecap:butt;stroke-linejoin:miter;stroke-miterlimit:4;stroke-dasharray:none;stroke-dashoffset:0;stroke-opacity:1;color-rendering:auto;image-rendering:auto;shape-rendering:auto;text-rendering:auto;enable-background:accumulate"
       d="m 1519.2734,25.832031 c -11.2432,0 -20.3007,9.057507 -20.3007,20.300781 V 240.38477 c 0,11.24327 9.0575,20.30078 20.3007,20.30078 h 67.92 c 11.2432,0 20.3007,-9.05751 20.3007,-20.30078 0,-11.24328 -9.0575,-20.30079 -20.3007,-20.30079 h -47.6192 v -59.91992 h 40.8281 c 11.2433,0 20.3008,-9.0575 20.3008,-20.30078 0,-11.24327 -9.0575,-20.30078 -20.3008,-20.30078 h -40.8281 V 66.433594 h 47.6192 c 11.2432,0 20.3007,-9.057507 20.3007,-20.300782 0,-11.243274 -9.0575,-20.300781 -20.3007,-20.300781 z m 0,8 h 67.92 c 7.0951,0 12.3007,5.205656 12.3007,12.300781 0,7.095126 -5.2056,12.300782 -12.3007,12.300782 h -55.6192 V 127.5625 h 48.8281 c 7.0952,0 12.3008,5.20566 12.3008,12.30078 0,7.09513 -5.2056,12.30078 -12.3008,12.30078 h -48.8281 v 75.91992 h 55.6192 c 7.0951,0 12.3007,5.20566 12.3007,12.30079 0,7.09512 -5.2056,12.30078 -12.3007,12.30078 h -67.92 c -7.0951,0 -12.3007,-5.20566 -12.3007,-12.30078 V 46.132812 c 0,-7.095125 5.2056,-12.300781 12.3007,-12.300781 z"
       id="path8181"
       inkscape:connector-curvature="0" />
    <path
       style="color:#000000;font-style:normal;font-variant:normal;font-weight:bold;font-stretch:normal;font-size:339.6000061px;line-height:125%;font-family:Miso;-inkscape-font-specification:'Miso, Bold';font-variant-ligatures:normal;font-variant-position:normal;font-variant-caps:normal;font-variant-numeric:normal;font-variant-alternates:normal;font-feature-settings:normal;text-indent:0;text-align:start;text-decoration:none;text-decoration-line:none;text-decoration-style:solid;text-decoration-color:#000000;letter-spacing:0px;word-spacing:0px;text-transform:none;writing-mode:lr-tb;direction:ltr;text-orientation:mixed;dominant-baseline:auto;baseline-shift:baseline;text-anchor:start;white-space:normal;shape-padding:0;clip-rule:nonzero;display:inline;overflow:visible;visibility:visible;opacity:1;isolation:auto;mix-blend-mode:normal;color-interpolation:sRGB;color-interpolation-filters:linearRGB;solid-color:#000000;solid-opacity:1;vector-effect:none;fill:none;fill-opacity:1;fill-rule:nonzero;stroke:#000000;stroke-width:3;stroke-linecap:butt;stroke-linejoin:miter;stroke-miterlimit:4;stroke-dasharray:none;stroke-dashoffset:0;stroke-opacity:1;color-rendering:auto;image-rendering:auto;shape-rendering:auto;text-rendering:auto;enable-background:accumulate"
       d="m 1683.3652,24.474609 c -9.434,0 -17.4074,6.112796 -19.5136,14.958985 l 0.035,-0.136719 -54.3437,196.998045 -0.01,0.0293 c -2.8762,11.09358 3.5288,21.96065 14,24.89258 l 0.037,0.01 0.037,0.01 c 11.0443,2.86333 21.8528,-3.47861 24.8418,-13.86719 1.1557,-3.1436 1.8183,-6.49843 2.7754,-10.00781 v -0.0176 l 0.01,-0.0156 c 1.5028,-5.7107 3.7387,-13.86319 6.3067,-22.82812 h 51.6425 c 2.4098,9.02772 4.842,17.25505 6.3086,22.82812 v 0.0156 l 0.01,0.0176 c 0.9586,3.51499 1.622,6.87551 2.7813,10.02344 2.9958,10.3785 13.7957,16.71333 24.8339,13.85156 l 0.037,-0.01 0.037,-0.01 c 10.4711,-2.93193 16.878,-13.799 14.0019,-24.89258 l -0.01,-0.0293 -0.01,-0.0312 -54.3359,-196.966795 0.035,0.136719 c -2.1063,-8.846189 -10.0778,-14.958985 -19.5118,-14.958985 z m 0,8 c 6.1876,0 10.4407,3.395489 11.7305,8.8125 l 0.016,0.06836 54.3399,196.976561 v 0.006 c 1.871,7.22835 -1.8967,13.32342 -8.3809,15.1582 -7.2259,1.85214 -13.3198,-1.92011 -15.1387,-8.41601 l -0.047,-0.16602 -0.061,-0.16015 c -0.8363,-2.23009 -1.538,-5.58637 -2.5937,-9.46289 l -0.01,-0.0332 c -1.7369,-6.59644 -4.4299,-15.34446 -7.1172,-25.75781 l -0.7734,-3 h -63.836 l -0.8359,2.88477 c -3.0685,10.56938 -5.4569,19.4338 -7.1602,25.90625 -1.0557,3.87652 -1.7574,7.2328 -2.5937,9.46289 l -0.059,0.16015 -0.047,0.16602 c -1.8187,6.49529 -7.9136,10.26691 -15.1386,8.41601 -6.4843,-1.83478 -10.2519,-7.92985 -8.3809,-15.1582 5e-4,-0.002 -5e-4,-0.004 0,-0.006 l 54.3379,-196.976561 0.018,-0.06836 c 1.2897,-5.417011 5.5428,-8.8125 11.7304,-8.8125 z m 0,59.511719 -3.8398,13.134762 c -6.479,22.16498 -13.272,48.32411 -19.7129,71.71485 l -1.3945,5.0625 h 49.8945 l -1.3945,-5.0625 c -6.441,-23.39074 -13.2339,-49.54987 -19.7129,-71.71485 z m 0,29.148442 c 4.8083,17.15966 9.6869,35.2618 14.4688,52.76367 h -28.9375 c 4.7819,-17.50187 9.6605,-35.60401 14.4687,-52.76367 z"
       id="path8183"
       inkscape:connector-curvature="0" />
    <path
       style="color:#000000;font-style:normal;font-variant:normal;font-weight:bold;font-stretch:normal;font-size:339.6000061px;line-height:125%;font-family:Miso;-inkscape-font-specification:'Miso, Bold';font-variant-ligatures:normal;font-variant-position:normal;font-variant-caps:normal;font-variant-numeric:normal;font-variant-alternates:normal;font-feature-settings:normal;text-indent:0;text-align:start;text-decoration:none;text-decoration-line:none;text-decoration-style:solid;text-decoration-color:#000000;letter-spacing:0px;word-spacing:0px;text-transform:none;writing-mode:lr-tb;direction:ltr;text-orientation:mixed;dominant-baseline:auto;baseline-shift:baseline;text-anchor:start;white-space:normal;shape-padding:0;clip-rule:nonzero;display:inline;overflow:visible;visibility:visible;opacity:1;isolation:auto;mix-blend-mode:normal;color-interpolation:sRGB;color-interpolation-filters:linearRGB;solid-color:#000000;solid-opacity:1;vector-effect:none;fill:none;fill-opacity:1;fill-rule:nonzero;stroke:#000000;stroke-width:3;stroke-linecap:butt;stroke-linejoin:miter;stroke-miterlimit:4;stroke-dasharray:none;stroke-dashoffset:0;stroke-opacity:1;color-rendering:auto;image-rendering:auto;shape-rendering:auto;text-rendering:auto;enable-background:accumulate"
       d="m 1790.5566,25.832031 c -11.2432,0 -20.3007,9.057507 -20.3007,20.300781 V 241.74219 c 0,11.24327 9.0575,20.30078 20.3007,20.30078 11.2433,0 20.3008,-9.05751 20.3008,-20.30078 v -74.78711 h 11.5625 l 30.6504,82.06836 0.047,0.10351 c 4.4813,10.18485 15.6845,15.40171 26.0723,11.66211 10.5299,-3.79077 16.4973,-15.78677 11.8144,-26.42968 l 0.088,0.21679 -28.3906,-76.36133 c 18.1535,-10.65932 29.6601,-30.07333 29.6601,-52.3125 V 86.884766 c 0,-33.733339 -27.3194,-61.052735 -61.0527,-61.052735 z m 0,8 h 40.752 c 29.4323,0 53.0527,23.620471 53.0527,53.052735 v 19.017574 c 0,20.63811 -11.0111,38.19532 -28.3789,47.03711 l -3.1777,1.61719 30.8301,82.91602 0.047,0.10742 c 2.7884,6.33709 -0.753,13.35961 -7.2031,15.68164 -6.5833,2.36999 -13.0282,-0.55849 -16.0234,-7.33399 l -32.4844,-86.97265 h -25.1133 v 82.78711 c 0,7.09512 -5.2056,12.30078 -12.3008,12.30078 -7.0951,0 -12.3007,-5.20566 -12.3007,-12.30078 V 46.132812 c 0,-7.095125 5.2056,-12.300781 12.3007,-12.300781 z m 12.3008,24.601563 v 75.919926 h 4 24.4512 c 15.7173,0 28.4512,-12.73384 28.4512,-28.45118 V 86.884766 c 0,-15.717335 -12.7339,-28.451172 -28.4512,-28.451172 z m 8,8 h 20.4512 c 11.4507,0 20.4512,9.000504 20.4512,20.451172 v 19.017574 c 0,11.45067 -9.0005,20.45118 -20.4512,20.45118 h -20.4512 z"
       id="path8185"
       inkscape:connector-curvature="0" />
    <path
       style="color:#000000;font-style:normal;font-variant:normal;font-weight:bold;font-stretch:normal;font-size:454.79724121px;line-height:125%;font-family:Miso;-inkscape-font-specification:'Miso, Bold';font-variant-ligatures:normal;font-variant-position:normal;font-variant-caps:normal;font-variant-numeric:normal;font-variant-alternates:normal;font-feature-settings:normal;text-indent:0;text-align:start;text-decoration:none;text-decoration-line:none;text-decoration-style:solid;text-decoration-color:#000000;letter-spacing:0px;word-spacing:0px;text-transform:none;writing-mode:lr-tb;direction:ltr;text-orientation:mixed;dominant-baseline:auto;baseline-shift:baseline;text-anchor:start;white-space:normal;shape-padding:0;clip-rule:nonzero;display:inline;overflow:visible;visibility:visible;opacity:1;isolation:auto;mix-blend-mode:normal;color-interpolation:sRGB;color-interpolation-filters:linearRGB;solid-color:#000000;solid-opacity:1;vector-effect:none;fill:none;fill-opacity:1;fill-rule:nonzero;stroke:#000000;stroke-width:3;stroke-linecap:butt;stroke-linejoin:miter;stroke-miterlimit:4;stroke-dasharray:none;stroke-dashoffset:0;stroke-opacity:1;color-rendering:auto;image-rendering:auto;shape-rendering:auto;text-rendering:auto;enable-background:accumulate"
       d="m 752.46289,471.07227 c -7.70869,-0.19562 -15.50333,0.74193 -23.2168,2.89453 l -0.0176,0.004 -0.0176,0.006 c -21.33114,6.16233 -37.35391,18.77606 -48.26953,37.28516 l -0.0176,0.0312 -0.0195,0.0332 c -6.94253,12.28295 -2.52824,27.49967 9.48437,35.33399 l 0.10547,0.0703 0.11133,0.0625 c 12.32619,6.96697 28.04098,2.63167 35.01172,-9.70117 l -0.12305,0.20508 c 4.58235,-7.08182 10.00891,-11.30052 17.23633,-13.31641 7.74488,-2.03295 15.25101,-1.22936 22.10351,2.39844 6.8208,3.61101 11.00684,8.89869 13.48633,16.6914 2.04975,7.86735 1.64821,14.79539 -2.0039,22.09961 l -96.00977,182.00977 -0.0723,0.17578 c -3.499,8.49756 -3.52073,17.12626 1.17773,24.95703 l 0.0488,0.082 0.0527,0.0781 c 5.13965,7.70948 12.98816,12.24218 21.97461,12.24218 h 101.875 c 14.3536,0 25.83008,-11.47647 25.83008,-25.83007 0,-14.3536 -11.47647,-25.83008 -25.83008,-25.83008 H 746.0272 c 11.26526,-22.08752 29.43956,-55.42971 45.12305,-85.52344 l 0.0234,-0.043 c 9.99954,-18.6356 20.46413,-38.20023 30.9375,-58.6914 l 0.004,-0.006 c 9.5518,-18.62987 11.45673,-39.74308 5.74805,-60.19922 l -0.006,-0.0176 -0.004,-0.0176 c -6.17573,-21.37749 -19.29754,-37.43859 -38.35157,-47.44726 -11.596,-6.24002 -24.19896,-9.71129 -37.03906,-10.03711 z m -0.18555,7.97851 c 11.54425,0.28689 22.88352,3.42196 33.45313,9.11328 l 0.0176,0.01 0.0195,0.01 c 17.31597,9.0909 28.74565,23.03864 34.39453,42.57813 5.1992,18.64786 3.46638,37.5478 -5.16797,54.38476 l -0.002,0.002 -0.002,0.002 c -10.43848,20.42311 -20.88487,39.95422 -30.88867,58.59766 l -0.0117,0.0215 -0.01,0.0215 c -16.79655,32.2312 -37.2456,69.48534 -48.24024,91.4746 l -2.89453,5.78907 h 72.41797 c 10.20546,0 17.83008,7.62463 17.83008,17.83008 0,10.20545 -7.62462,17.83007 -17.83008,17.83007 h -101.875 c -6.44463,0 -11.30997,-2.72978 -15.25586,-8.60351 -3.419,-5.7471 -3.44501,-10.73328 -0.63476,-17.60938 l 95.85546,-181.71484 0.0195,-0.0391 c 4.5172,-9.0344 5.03008,-18.45094 2.56445,-27.82032 l -0.0254,-0.0937 -0.0293,-0.0918 c -2.98162,-9.44181 -8.78736,-16.87169 -17.4043,-21.4336 -8.60418,-4.55515 -18.37458,-5.56837 -27.90429,-3.06054 l -0.0254,0.006 -0.0274,0.008 c -9.1287,2.53575 -16.42758,8.31901 -21.84375,16.68945 l -0.0644,0.0996 -0.0606,0.10547 c -4.83255,8.5499 -15.41957,11.49037 -23.99414,6.72266 -8.81272,-5.81705 -11.64281,-15.99688 -6.79882,-24.59375 10.00053,-16.93588 23.98125,-27.95819 43.55664,-33.61719 6.94736,-1.93676 13.94122,-2.78916 20.86132,-2.61719 z"
       id="path8188"
       inkscape:connector-curvature="0" />
    <path
       style="color:#000000;font-style:normal;font-variant:normal;font-weight:bold;font-stretch:normal;font-size:454.79724121px;line-height:125%;font-family:Miso;-inkscape-font-specification:'Miso, Bold';font-variant-ligatures:normal;font-variant-position:normal;font-variant-caps:normal;font-variant-numeric:normal;font-variant-alternates:normal;font-feature-settings:normal;text-indent:0;text-align:start;text-decoration:none;text-decoration-line:none;text-decoration-style:solid;text-decoration-color:#000000;letter-spacing:0px;word-spacing:0px;text-transform:none;writing-mode:lr-tb;direction:ltr;text-orientation:mixed;dominant-baseline:auto;baseline-shift:baseline;text-anchor:start;white-space:normal;shape-padding:0;clip-rule:nonzero;display:inline;overflow:visible;visibility:visible;opacity:1;isolation:auto;mix-blend-mode:normal;color-interpolation:sRGB;color-interpolation-filters:linearRGB;solid-color:#000000;solid-opacity:1;vector-effect:none;fill:none;fill-opacity:1;fill-rule:nonzero;stroke:#000000;stroke-width:3;stroke-linecap:butt;stroke-linejoin:miter;stroke-miterlimit:4;stroke-dasharray:none;stroke-dashoffset:0;stroke-opacity:1;color-rendering:auto;image-rendering:auto;shape-rendering:auto;text-rendering:auto;enable-background:accumulate"
       d="m 945.44727,471.08984 c -44.44669,0 -80.4043,35.95958 -80.4043,80.40625 v 154.63086 c 0,44.44668 35.95761,80.40625 80.4043,80.40625 44.01525,0 80.40623,-35.9309 80.40623,-80.40625 V 551.49609 c 0,-44.47535 -36.39098,-80.40625 -80.40623,-80.40625 z m 0,8 c 39.66742,0 72.40623,32.28932 72.40623,72.40625 v 154.63086 c 0,40.11693 -32.73881,72.40625 -72.40623,72.40625 -40.14562,0 -72.4043,-32.26064 -72.4043,-72.40625 V 551.49609 c 0,-40.1456 32.25868,-72.40625 72.4043,-72.40625 z m 0,35.66211 c -20.32523,0 -36.74415,16.41892 -36.74415,36.74414 v 154.63086 c 0,20.32523 16.41892,36.7461 36.74415,36.7461 19.92512,0 36.74609,-16.35421 36.74609,-36.7461 V 551.49609 c 0,-20.39189 -16.82097,-36.74414 -36.74609,-36.74414 z m 0,8 c 15.54905,0 28.74609,12.75225 28.74609,28.74414 v 154.63086 c 0,15.99189 -13.19704,28.7461 -28.74609,28.7461 -16.05856,0 -28.74415,-12.68754 -28.74415,-28.7461 V 551.49609 c 0,-16.05855 12.68559,-28.74414 28.74415,-28.74414 z"
       id="path8190"
       inkscape:connector-curvature="0" />
    <path
       style="color:#000000;font-style:normal;font-variant:normal;font-weight:bold;font-stretch:normal;font-size:454.79724121px;line-height:125%;font-family:Miso;-inkscape-font-specification:'Miso, Bold';font-variant-ligatures:normal;font-variant-position:normal;font-variant-caps:normal;font-variant-numeric:normal;font-variant-alternates:normal;font-feature-settings:normal;text-indent:0;text-align:start;text-decoration:none;text-decoration-line:none;text-decoration-style:solid;text-decoration-color:#000000;letter-spacing:0px;word-spacing:0px;text-transform:none;writing-mode:lr-tb;direction:ltr;text-orientation:mixed;dominant-baseline:auto;baseline-shift:baseline;text-anchor:start;white-space:normal;shape-padding:0;clip-rule:nonzero;display:inline;overflow:visible;visibility:visible;opacity:1;isolation:auto;mix-blend-mode:normal;color-interpolation:sRGB;color-interpolation-filters:linearRGB;solid-color:#000000;solid-opacity:1;vector-effect:none;fill:none;fill-opacity:1;fill-rule:nonzero;stroke:#000000;stroke-width:3;stroke-linecap:butt;stroke-linejoin:miter;stroke-miterlimit:4;stroke-dasharray:none;stroke-dashoffset:0;stroke-opacity:1;color-rendering:auto;image-rendering:auto;shape-rendering:auto;text-rendering:auto;enable-background:accumulate"
       d="m 1130.8691,471.07227 c -7.7087,-0.19562 -15.5033,0.74193 -23.2168,2.89453 l -0.017,0.004 -0.018,0.006 c -21.3312,6.16233 -37.354,18.77606 -48.2695,37.28516 l -0.02,0.0312 -0.018,0.0332 c -6.9425,12.28296 -2.5283,27.49968 9.4844,35.33399 l 0.1055,0.0703 0.1113,0.0625 c 12.3262,6.96697 28.041,2.63165 35.0117,-9.70117 l -0.125,0.20508 c 4.5823,-7.08181 10.0108,-11.30051 17.2383,-13.31641 7.7449,-2.03294 15.251,-1.22937 22.1035,2.39844 6.8173,3.60909 11.0024,8.89373 13.4825,16.67968 2.053,7.87015 1.6544,14.79801 -1.9961,22.10352 0,0.003 0,0.005 0,0.008 l -96.0118,182.00977 -0.072,0.17578 c -3.499,8.49756 -3.5188,17.12626 1.1797,24.95703 l 0.049,0.082 0.053,0.0781 c 5.1397,7.70945 12.9881,12.24218 21.9746,12.24218 h 101.875 c 14.3536,0 25.8301,-11.47648 25.8301,-25.83007 0,-14.35359 -11.4765,-25.83008 -25.8301,-25.83008 h -59.3379 c 11.2653,-22.08751 29.4415,-55.42966 45.125,-85.52344 l 0.024,-0.043 c 9.9996,-18.63585 20.464,-38.19992 30.9375,-58.6914 v -0.006 c 9.5521,-18.63004 11.4568,-39.74282 5.7481,-60.19922 v -0.0176 l -0.01,-0.0176 c -6.1757,-21.37748 -19.2975,-37.43859 -38.3516,-47.44726 -11.596,-6.24002 -24.197,-9.71129 -37.0371,-10.03711 z m -0.1855,7.97851 c 11.5442,0.28689 22.8816,3.42196 33.4512,9.11328 l 0.019,0.01 0.018,0.01 c 17.316,9.09089 28.7456,23.03864 34.3945,42.57813 5.1991,18.64786 3.4663,37.5478 -5.168,54.38476 v 0.002 0.002 c -10.4385,20.4231 -20.8849,39.95421 -30.8887,58.59766 l -0.012,0.0215 -0.012,0.0215 c -16.7966,32.2312 -37.2437,69.48533 -48.2383,91.4746 l -2.8945,5.78907 h 72.4179 c 10.2055,0 17.8301,7.62462 17.8301,17.83008 0,10.20546 -7.6246,17.83007 -17.8301,17.83007 h -101.875 c -6.4447,0 -11.3099,-2.72975 -15.2558,-8.60351 -3.4191,-5.7471 -3.4451,-10.73328 -0.6348,-17.60938 l 95.8555,-181.71484 0.019,-0.0391 c 4.5172,-9.03441 5.0301,-18.45094 2.5645,-27.82032 l -0.025,-0.0937 -0.029,-0.0918 c -2.9817,-9.44179 -8.7893,-16.87168 -17.4063,-21.4336 -8.6042,-4.55514 -18.3726,-5.56837 -27.9023,-3.06054 l -0.027,0.006 -0.025,0.008 c -9.1287,2.53575 -16.4276,8.31898 -21.8437,16.68945 l -0.066,0.0996 -0.059,0.10547 c -4.8333,8.55121 -15.4228,11.49147 -23.9981,6.7207 -8.8109,-5.81732 -11.6384,-15.9957 -6.7949,-24.59179 10.0005,-16.93587 23.9813,-27.95819 43.5567,-33.61719 6.9473,-1.93676 13.9412,-2.78916 20.8613,-2.61719 z"
       id="path8192"
       inkscape:connector-curvature="0" />
    <path
       style="color:#000000;font-style:normal;font-variant:normal;font-weight:bold;font-stretch:normal;font-size:454.79724121px;line-height:125%;font-family:Miso;-inkscape-font-specification:'Miso, Bold';font-variant-ligatures:normal;font-variant-position:normal;font-variant-caps:normal;font-variant-numeric:normal;font-variant-alternates:normal;font-feature-settings:normal;text-indent:0;text-align:start;text-decoration:none;text-decoration-line:none;text-decoration-style:solid;text-decoration-color:#000000;letter-spacing:0px;word-spacing:0px;text-transform:none;writing-mode:lr-tb;direction:ltr;text-orientation:mixed;dominant-baseline:auto;baseline-shift:baseline;text-anchor:start;white-space:normal;shape-padding:0;clip-rule:nonzero;display:inline;overflow:visible;visibility:visible;opacity:1;isolation:auto;mix-blend-mode:normal;color-interpolation:sRGB;color-interpolation-filters:linearRGB;solid-color:#000000;solid-opacity:1;vector-effect:none;fill:none;fill-opacity:1;fill-rule:nonzero;stroke:#000000;stroke-width:3;stroke-linecap:butt;stroke-linejoin:miter;stroke-miterlimit:4;stroke-dasharray:none;stroke-dashoffset:0;stroke-opacity:1;color-rendering:auto;image-rendering:auto;shape-rendering:auto;text-rendering:auto;enable-background:accumulate"
       d="m 1312.8574,471.2793 c -28.4768,-0.39209 -55.9309,13.98505 -70.709,40.04101 v 0.002 0.004 c -6.9426,12.28296 -2.5302,27.49967 9.4824,35.33399 l 0.1074,0.0703 0.1094,0.0625 c 12.283,6.94252 27.5016,2.52823 35.3359,-9.48438 l 0.065,-0.0976 0.059,-0.10156 c 6.3862,-11.17593 19.4604,-16.74899 32.2832,-13.14258 l 0.041,0.0117 0.041,0.01 c 12.2775,3.16837 21.1035,14.78763 21.1035,27.50781 v 18.19336 c 0,16.05856 -12.6855,28.74414 -28.7441,28.74414 -14.3536,0 -25.8301,11.47647 -25.8301,25.83008 0,14.35361 11.4765,25.83008 25.8301,25.83008 16.0586,0 28.7441,12.68754 28.7441,28.74609 v 27.28711 c 0,13.20091 -8.7309,24.32418 -21.1386,27.96485 -12.84,3.18042 -25.9546,-2.41888 -32.3301,-13.57618 l -0.059,-0.10156 -0.065,-0.0996 c -7.8343,-12.0126 -23.0529,-16.42494 -35.3359,-9.48242 l -0.1094,0.0625 -0.1074,0.0684 c -12.0126,7.83432 -16.425,23.05298 -9.4824,35.33594 17.7294,31.61195 55.4974,47.39776 90.4824,37.36523 35.8354,-9.10816 59.8066,-41.23897 59.8066,-77.53711 v -27.28711 c 0,-21.06282 -8.1088,-40.074 -21.7187,-54.57617 13.6096,-14.5021 21.7187,-33.51164 21.7187,-54.57422 v -18.19336 c 0,-36.31081 -23.9875,-68.45161 -59.8437,-77.54687 -6.5373,-1.70149 -13.1628,-2.57944 -19.7344,-2.66992 z m -6.0097,8.13476 c 7.8365,-0.50728 15.8467,0.22543 23.7304,2.27735 l 0.012,0.002 0.014,0.004 c 32.3501,8.19533 53.832,36.98861 53.832,69.79882 v 18.19336 c 0,20.29746 -8.1535,38.30818 -21.9785,51.70117 l -2.9648,2.87305 2.9648,2.87305 c 13.825,13.39298 21.9785,31.40566 21.9785,51.70312 v 27.28711 c 0,32.81021 -21.4819,61.60545 -53.832,69.80078 l -0.062,0.0156 -0.062,0.0176 c -31.3934,9.03098 -65.4433,-5.19169 -81.3613,-33.58594 v -0.006 -0.006 c -4.8604,-8.59925 -2.0354,-18.79224 6.7793,-24.61523 8.6156,-4.79938 18.8039,-1.93422 24.5899,6.9375 l -0.1211,-0.20117 c 8.1672,14.29271 25.0347,21.421 41.2812,17.35937 l 0.072,-0.0176 0.072,-0.0215 c 15.7454,-4.57124 26.9882,-18.89166 26.9882,-35.67774 v -27.28711 c 0,-20.32522 -16.4189,-36.74609 -36.7441,-36.74609 -10.2054,0 -17.8301,-7.62465 -17.8301,-17.83008 0,-10.20544 7.6247,-17.83008 17.8301,-17.83008 20.3252,0 36.7441,-16.41892 36.7441,-36.74414 V 551.4959 c 0,-16.37081 -11.1633,-31.11311 -27.0586,-35.23828 -16.2722,-4.55754 -33.1947,2.59957 -41.3554,16.88086 l 0.1211,-0.19922 c -5.7847,8.86984 -15.9696,11.73453 -24.584,6.93946 -8.8173,-5.82092 -11.6458,-16.01143 -6.7891,-24.61133 v -0.006 c 12.2829,-21.65169 34.2288,-34.32595 57.7364,-35.84766 z"
       id="path8194"
       inkscape:connector-curvature="0" />
    <path
       style="color:#000000;font-style:normal;font-variant:normal;font-weight:bold;font-stretch:normal;font-size:454.79724121px;line-height:125%;font-family:Miso;-inkscape-font-specification:'Miso, Bold';font-variant-ligatures:normal;font-variant-position:normal;font-variant-caps:normal;font-variant-numeric:normal;font-variant-alternates:normal;font-feature-settings:normal;text-indent:0;text-align:start;text-decoration:none;text-decoration-line:none;text-decoration-style:solid;text-decoration-color:#000000;letter-spacing:0px;word-spacing:0px;text-transform:none;writing-mode:lr-tb;direction:ltr;text-orientation:mixed;dominant-baseline:auto;baseline-shift:baseline;text-anchor:start;white-space:normal;shape-padding:0;clip-rule:nonzero;display:inline;overflow:visible;visibility:visible;opacity:1;isolation:auto;mix-blend-mode:normal;color-interpolation:sRGB;color-interpolation-filters:linearRGB;solid-color:#000000;solid-opacity:1;vector-effect:none;fill:none;fill-opacity:1;fill-rule:nonzero;stroke:#000000;stroke-width:3;stroke-linecap:butt;stroke-linejoin:miter;stroke-miterlimit:4;stroke-dasharray:none;stroke-dashoffset:0;stroke-opacity:1;color-rendering:auto;image-rendering:auto;shape-rendering:auto;text-rendering:auto;enable-background:accumulate"
       d="m 2272.4629,471.07227 c -7.7087,-0.19562 -15.5033,0.74193 -23.2168,2.89453 l -0.018,0.004 -0.016,0.006 c -21.3312,6.16233 -37.3559,18.77606 -48.2715,37.28516 l -0.018,0.0312 -0.018,0.0332 c -6.9425,12.28296 -2.5301,27.49967 9.4825,35.33399 l 0.1074,0.0703 0.1094,0.0625 c 12.3262,6.96695 28.041,2.63168 35.0117,-9.70117 l -0.1231,0.20508 c 4.582,-7.08123 10.008,-11.30032 17.2344,-13.31641 7.7463,-2.03422 15.2518,-1.22997 22.1055,2.39844 6.8171,3.6091 11.0043,8.89375 13.4844,16.67968 2.0538,7.87308 1.6523,14.80281 -2.002,22.11133 l -96.0098,182.00977 -0.072,0.17578 c -3.499,8.49756 -3.5208,17.12626 1.1777,24.95703 l 0.049,0.082 0.053,0.0781 c 5.1396,7.70951 12.9881,12.24218 21.9746,12.24218 h 101.875 c 14.3536,0 25.8301,-11.47648 25.8301,-25.83007 0,-14.35359 -11.4765,-25.83008 -25.8301,-25.83008 h -59.336 c 11.2654,-22.08753 29.4396,-55.42971 45.1231,-85.52344 l 0.023,-0.043 c 9.9996,-18.63561 20.4641,-38.20024 30.9375,-58.6914 v -0.006 c 9.5518,-18.62986 11.4568,-39.74308 5.7481,-60.19922 l -0.01,-0.0176 v -0.0176 c -6.1756,-21.37751 -19.2975,-37.43859 -38.3515,-47.44726 -11.596,-6.24002 -24.199,-9.71129 -37.0391,-10.03711 z m -0.1836,7.97851 c 11.5442,0.28689 22.8816,3.42196 33.4512,9.11328 l 0.017,0.01 0.02,0.01 c 17.316,9.0909 28.7457,23.03866 34.3945,42.57813 5.1992,18.64785 3.4663,37.5478 -5.168,54.38476 v 0.002 0.002 c -10.4385,20.42312 -20.8848,39.95423 -30.8886,58.59766 l -0.012,0.0215 -0.01,0.0215 c -16.7966,32.2312 -37.2456,69.48535 -48.2403,91.4746 l -2.8945,5.78907 h 72.418 c 10.2055,0 17.8301,7.62462 17.8301,17.83008 0,10.20546 -7.6246,17.83007 -17.8301,17.83007 h -101.875 c -6.4447,0 -11.3101,-2.72981 -15.2559,-8.60351 -3.419,-5.7471 -3.445,-10.73328 -0.6347,-17.60938 l 95.8554,-181.71484 0.02,-0.0391 c 4.5172,-9.03441 5.0301,-18.45094 2.5644,-27.82032 l -0.025,-0.0937 -0.029,-0.0918 c -2.9816,-9.44181 -8.7874,-16.87169 -17.4043,-21.4336 -8.6042,-4.55514 -18.3745,-5.56836 -27.9043,-3.06054 l -0.025,0.006 -0.027,0.008 c -9.1287,2.53575 -16.4276,8.31901 -21.8438,16.68945 l -0.064,0.0996 -0.059,0.10547 c -4.8332,8.55116 -15.4227,11.49145 -23.9981,6.7207 -8.8076,-5.81518 -11.6369,-15.9879 -6.8007,-24.58203 10.0009,-16.94152 23.9813,-27.96684 43.5605,-33.62695 6.9474,-1.93676 13.9432,-2.78916 20.8633,-2.61719 z"
       id="path8197"
       inkscape:connector-curvature="0" />
    <path
       style="color:#000000;font-style:normal;font-variant:normal;font-weight:bold;font-stretch:normal;font-size:454.79724121px;line-height:125%;font-family:Miso;-inkscape-font-specification:'Miso, Bold';font-variant-ligatures:normal;font-variant-position:normal;font-variant-caps:normal;font-variant-numeric:normal;font-variant-alternates:normal;font-feature-settings:normal;text-indent:0;text-align:start;text-decoration:none;text-decoration-line:none;text-decoration-style:solid;text-decoration-color:#000000;letter-spacing:0px;word-spacing:0px;text-transform:none;writing-mode:lr-tb;direction:ltr;text-orientation:mixed;dominant-baseline:auto;baseline-shift:baseline;text-anchor:start;white-space:normal;shape-padding:0;clip-rule:nonzero;display:inline;overflow:visible;visibility:visible;opacity:1;isolation:auto;mix-blend-mode:normal;color-interpolation:sRGB;color-interpolation-filters:linearRGB;solid-color:#000000;solid-opacity:1;vector-effect:none;fill:none;fill-opacity:1;fill-rule:nonzero;stroke:#000000;stroke-width:3;stroke-linecap:butt;stroke-linejoin:miter;stroke-miterlimit:4;stroke-dasharray:none;stroke-dashoffset:0;stroke-opacity:1;color-rendering:auto;image-rendering:auto;shape-rendering:auto;text-rendering:auto;enable-background:accumulate"
       d="m 2465.4492,471.08984 c -44.4467,0 -80.4062,35.95958 -80.4062,80.40625 v 154.63086 c 0,44.44668 35.9595,80.40625 80.4062,80.40625 44.0152,0 80.4043,-35.93089 80.4043,-80.40625 V 551.49609 c 0,-44.47535 -36.3891,-80.40625 -80.4043,-80.40625 z m 0,8 c 39.6674,0 72.4043,32.28933 72.4043,72.40625 v 154.63086 c 0,40.11693 -32.7369,72.40625 -72.4043,72.40625 -40.1456,0 -72.4062,-32.26064 -72.4062,-72.40625 V 551.49609 c 0,-40.1456 32.2606,-72.40625 72.4062,-72.40625 z m 0,35.66211 c -20.3252,0 -36.7461,16.41892 -36.7461,36.74414 v 154.63086 c 0,20.32522 16.4209,36.7461 36.7461,36.7461 19.9252,0 36.7442,-16.35421 36.7442,-36.7461 V 551.49609 c 0,-20.39188 -16.819,-36.74414 -36.7442,-36.74414 z m 0,8 c 15.5491,0 28.7442,12.75225 28.7442,28.74414 v 154.63086 c 0,15.99189 -13.1951,28.7461 -28.7442,28.7461 -16.0585,0 -28.7461,-12.68754 -28.7461,-28.7461 V 551.49609 c 0,-16.05855 12.6876,-28.74414 28.7461,-28.74414 z"
       id="path8199"
       inkscape:connector-curvature="0" />
    <path
       style="color:#000000;font-style:normal;font-variant:normal;font-weight:bold;font-stretch:normal;font-size:454.79724121px;line-height:125%;font-family:Miso;-inkscape-font-specification:'Miso, Bold';font-variant-ligatures:normal;font-variant-position:normal;font-variant-caps:normal;font-variant-numeric:normal;font-variant-alternates:normal;font-feature-settings:normal;text-indent:0;text-align:start;text-decoration:none;text-decoration-line:none;text-decoration-style:solid;text-decoration-color:#000000;letter-spacing:0px;word-spacing:0px;text-transform:none;writing-mode:lr-tb;direction:ltr;text-orientation:mixed;dominant-baseline:auto;baseline-shift:baseline;text-anchor:start;white-space:normal;shape-padding:0;clip-rule:nonzero;display:inline;overflow:visible;visibility:visible;opacity:1;isolation:auto;mix-blend-mode:normal;color-interpolation:sRGB;color-interpolation-filters:linearRGB;solid-color:#000000;solid-opacity:1;vector-effect:none;fill:none;fill-opacity:1;fill-rule:nonzero;stroke:#000000;stroke-width:3;stroke-linecap:butt;stroke-linejoin:miter;stroke-miterlimit:4;stroke-dasharray:none;stroke-dashoffset:0;stroke-opacity:1;color-rendering:auto;image-rendering:auto;shape-rendering:auto;text-rendering:auto;enable-background:accumulate"
       d="m 2650.8691,471.07227 c -7.7087,-0.19562 -15.5033,0.74193 -23.2168,2.89453 l -0.018,0.004 -0.018,0.006 c -21.3312,6.16233 -37.354,18.77606 -48.2695,37.28516 l -0.02,0.0312 -0.018,0.0332 c -6.9425,12.28296 -2.5282,27.49967 9.4844,35.33399 l 0.1055,0.0703 0.1113,0.0625 c 12.3263,6.96695 28.041,2.63165 35.0117,-9.70117 l -0.123,0.20508 c 4.5823,-7.08181 10.0089,-11.30052 17.2363,-13.31641 7.745,-2.03295 15.251,-1.22937 22.1035,2.39844 6.8202,3.61073 11.0068,8.89774 13.4864,16.68945 2.0501,7.86599 1.6489,14.79135 -2,22.09375 0,0.003 0,0.005 0,0.008 l -96.0118,182.00977 -0.072,0.17578 c -3.499,8.49756 -3.5188,17.12626 1.1797,24.95703 l 0.049,0.082 0.053,0.0781 c 5.1397,7.70945 12.9881,12.24218 21.9746,12.24218 h 101.875 c 14.3536,0 25.8301,-11.47648 25.8301,-25.83007 0,-14.35359 -11.4765,-25.83008 -25.8301,-25.83008 h -59.3379 c 11.2653,-22.08751 29.4415,-55.42966 45.125,-85.52344 l 0.024,-0.043 c 9.9996,-18.63586 20.4639,-38.19993 30.9375,-58.6914 v -0.006 c 9.5521,-18.63004 11.4588,-39.74281 5.75,-60.19922 l -0.01,-0.0176 -0.01,-0.0176 c -6.1756,-21.37751 -19.2976,-37.43859 -38.3516,-47.44726 -11.596,-6.24002 -24.197,-9.71129 -37.0371,-10.03711 z m -0.1855,7.97851 c 11.5442,0.28689 22.8816,3.42196 33.4512,9.11328 l 0.02,0.01 0.018,0.01 c 17.3159,9.0909 28.7457,23.03866 34.3945,42.57813 5.1992,18.64785 3.4663,37.5478 -5.168,54.38476 v 0.002 0.002 c -10.4386,20.42312 -20.8849,39.95422 -30.8887,58.59766 l -0.012,0.0215 -0.012,0.0215 c -16.7966,32.2312 -37.2437,69.48533 -48.2383,91.4746 l -2.8945,5.78907 h 72.4179 c 10.2055,0 17.8301,7.62462 17.8301,17.83008 0,10.20546 -7.6246,17.83007 -17.8301,17.83007 h -101.875 c -6.4447,0 -11.3099,-2.72975 -15.2558,-8.60351 -3.4191,-5.7471 -3.4451,-10.73328 -0.6348,-17.60938 l 95.8555,-181.71484 0.02,-0.0391 c 4.5172,-9.03441 5.0301,-18.45094 2.5645,-27.82032 l -0.025,-0.0937 -0.029,-0.0918 c -2.9817,-9.44181 -8.7894,-16.87169 -17.4063,-21.4336 -8.6042,-4.55514 -18.3726,-5.56836 -27.9023,-3.06054 l -0.027,0.006 -0.025,0.008 c -9.1286,2.53575 -16.4276,8.31898 -21.8437,16.68945 l -0.066,0.0996 -0.059,0.10547 c -4.8333,8.55121 -15.4227,11.49149 -23.9981,6.7207 -8.8108,-5.81731 -11.6384,-15.9957 -6.7949,-24.59179 10.0005,-16.93587 23.9813,-27.95819 43.5567,-33.61719 6.9473,-1.93676 13.9412,-2.78916 20.8613,-2.61719 z"
       id="path8201"
       inkscape:connector-curvature="0" />
    <path
       style="color:#000000;font-style:normal;font-variant:normal;font-weight:bold;font-stretch:normal;font-size:454.79724121px;line-height:125%;font-family:Miso;-inkscape-font-specification:'Miso, Bold';font-variant-ligatures:normal;font-variant-position:normal;font-variant-caps:normal;font-variant-numeric:normal;font-variant-alternates:normal;font-feature-settings:normal;text-indent:0;text-align:start;text-decoration:none;text-decoration-line:none;text-decoration-style:solid;text-decoration-color:#000000;letter-spacing:0px;word-spacing:0px;text-transform:none;writing-mode:lr-tb;direction:ltr;text-orientation:mixed;dominant-baseline:auto;baseline-shift:baseline;text-anchor:start;white-space:normal;shape-padding:0;clip-rule:nonzero;display:inline;overflow:visible;visibility:visible;opacity:1;isolation:auto;mix-blend-mode:normal;color-interpolation:sRGB;color-interpolation-filters:linearRGB;solid-color:#000000;solid-opacity:1;vector-effect:none;fill:none;fill-opacity:1;fill-rule:nonzero;stroke:#000000;stroke-width:3;stroke-linecap:butt;stroke-linejoin:miter;stroke-miterlimit:4;stroke-dasharray:none;stroke-dashoffset:0;stroke-opacity:1;color-rendering:auto;image-rendering:auto;shape-rendering:auto;text-rendering:auto;enable-background:accumulate"
       d="m 2832.8574,471.2793 c -28.4768,-0.39209 -55.9309,13.98505 -70.709,40.04101 v 0.002 0.004 c -6.9426,12.28296 -2.5282,27.49967 9.4844,35.33399 l 0.1054,0.0703 0.1114,0.0625 c 12.283,6.94252 27.4996,2.52823 35.3339,-9.48438 l 0.064,-0.0976 0.059,-0.10156 c 6.3862,-11.17593 19.4604,-16.74899 32.2832,-13.14258 l 0.041,0.0117 0.041,0.01 c 12.2774,3.16837 21.1055,14.78765 21.1055,27.50781 v 18.19336 c 0,16.05856 -12.6875,28.74414 -28.7461,28.74414 -14.3536,0 -25.8301,11.47647 -25.8301,25.83008 0,14.35361 11.4765,25.83008 25.8301,25.83008 16.0586,0 28.7461,12.68754 28.7461,28.74609 v 27.28711 c 0,13.20089 -8.733,24.32418 -21.1406,27.96485 -12.84,3.18042 -25.9546,-2.41888 -32.3301,-13.57618 l -0.059,-0.10156 -0.064,-0.0996 c -7.8343,-12.0126 -23.0509,-16.42494 -35.3339,-9.48242 l -0.1114,0.0625 -0.1054,0.0684 c -12.0126,7.83432 -16.427,23.05298 -9.4844,35.33594 17.7294,31.61195 55.4974,47.39776 90.4824,37.36523 35.8354,-9.10816 59.8066,-41.23897 59.8066,-77.53711 v -27.28711 c 0,-21.06258 -8.1072,-40.07407 -21.7167,-54.57617 13.6093,-14.50204 21.7167,-33.51188 21.7167,-54.57422 v -18.19336 c 0,-36.31019 -23.9866,-68.45098 -59.8417,-77.54687 -6.5374,-1.70149 -13.1648,-2.57944 -19.7364,-2.66992 z m -6.0097,8.13476 c 7.8365,-0.50728 15.8467,0.22543 23.7304,2.27735 l 0.012,0.002 0.014,0.004 c 32.3501,8.19533 53.832,36.98861 53.832,69.79882 v 18.19336 c 0,20.29746 -8.1535,38.30818 -21.9785,51.70117 l -2.9648,2.87305 2.9648,2.87305 c 13.825,13.39298 21.9785,31.40566 21.9785,51.70312 v 27.28711 c 0,32.81021 -21.4819,61.60545 -53.832,69.80078 l -0.062,0.0156 -0.061,0.0176 c -31.3934,9.03098 -65.4453,-5.19169 -81.3633,-33.58594 v -0.006 -0.006 c -4.8604,-8.59925 -2.0354,-18.79224 6.7793,-24.61523 8.6156,-4.79938 18.8039,-1.93422 24.5899,6.9375 l -0.1211,-0.20117 c 8.1672,14.29271 25.0347,21.421 41.2812,17.35937 l 0.072,-0.0176 0.072,-0.0215 c 15.7453,-4.57124 26.9902,-18.89164 26.9902,-35.67774 v -27.28711 c 0,-20.32522 -16.4209,-36.74609 -36.7461,-36.74609 -10.2054,0 -17.8301,-7.62465 -17.8301,-17.83008 0,-10.20544 7.6247,-17.83008 17.8301,-17.83008 20.3252,0 36.7461,-16.41892 36.7461,-36.74414 V 551.4959 c 0,-16.37083 -11.1654,-31.1131 -27.0606,-35.23828 -16.2722,-4.55754 -33.1947,2.59957 -41.3554,16.88086 l 0.1211,-0.19922 c -5.7847,8.86984 -15.9696,11.73453 -24.584,6.93946 -8.8173,-5.82092 -11.6458,-16.01143 -6.7891,-24.61133 v -0.006 c 12.2829,-21.65169 34.2288,-34.32595 57.7364,-35.84766 z"
       id="path8203"
       inkscape:connector-curvature="0" />
  </g>
</svg>
