<?xml version="1.0" encoding="UTF-8" standalone="no"?>
<!-- Created with Inkscape (http://www.inkscape.org/) -->

<svg
   xmlns:dc="http://purl.org/dc/elements/1.1/"
   xmlns:cc="http://creativecommons.org/ns#"
   xmlns:rdf="http://www.w3.org/1999/02/22-rdf-syntax-ns#"
   xmlns:svg="http://www.w3.org/2000/svg"
   xmlns="http://www.w3.org/2000/svg"
   xmlns:sodipodi="http://sodipodi.sourceforge.net/DTD/sodipodi-0.dtd"
   xmlns:inkscape="http://www.inkscape.org/namespaces/inkscape"
   width="3200"
   height="800"
   id="svg9228"
   version="1.1"
   inkscape:version="0.48.1 r9760"
   sodipodi:docname="HappyNY_A_2016.svg">
  <defs
     id="defs9230" />
  <sodipodi:namedview
     id="base"
     pagecolor="#ffffff"
     bordercolor="#666666"
     borderopacity="1.0"
     inkscape:pageopacity="0.0"
     inkscape:pageshadow="2"
     inkscape:zoom="0.3953125"
     inkscape:cx="1162.3715"
     inkscape:cy="400"
     inkscape:document-units="px"
     inkscape:current-layer="1-default"
     showgrid="false"
     inkscape:window-width="1676"
     inkscape:window-height="1006"
     inkscape:window-x="0"
     inkscape:window-y="0"
     inkscape:window-maximized="1" />
  <metadata
     id="metadata9233">
    <rdf:RDF>
      <cc:Work
         rdf:about="">
        <dc:format>image/svg+xml</dc:format>
        <dc:type
           rdf:resource="http://purl.org/dc/dcmitype/StillImage" />
        <dc:title />
      </cc:Work>
    </rdf:RDF>
  </metadata>
  <g
     inkscape:label="1-default"
     inkscape:groupmode="layer"
     id="1-default">
    <path
       style="font-size:352.15689087px;font-style:normal;font-variant:normal;font-weight:bold;font-stretch:normal;text-align:start;line-height:125%;letter-spacing:0px;word-spacing:0px;writing-mode:lr-tb;text-anchor:start;fill:none;stroke:#000000;stroke-width:4;stroke-miterlimit:4;stroke-opacity:1;stroke-dasharray:none;font-family:Miso;-inkscape-font-specification:Miso Bold"
       d="M 1110.3125 88 C 1109.1666 88.063278 1107.9698 88.254363 1106.7812 88.5625 C 1097.9773 91.027595 1092.0036 100.19608 1094.4688 109 L 1143.7812 313.25 C 1145.5421 321.3496 1152.2129 326.28125 1160.3125 326.28125 C 1168.4121 326.28125 1174.7704 321.3496 1176.5312 313.25 C 1180.0529 298.45943 1183.5638 283.30739 1187.4375 267.8125 C 1194.1285 241.04861 1202.2297 207.95012 1209.625 177.3125 C 1216.6681 207.95012 1224.7778 241.04861 1231.4688 267.8125 C 1235.3425 283.30739 1238.8534 298.45943 1242.375 313.25 C 1244.1358 321.3496 1250.8379 326.28125 1258.9375 326.28125 C 1267.0371 326.28125 1273.3642 321.3496 1275.125 313.25 L 1324.4375 109 C 1326.9026 100.19608 1321.602 91.027595 1312.0938 88.5625 C 1302.5856 86.097404 1294.1526 91.741777 1291.6875 101.25 C 1288.166 116.04058 1284.6237 131.16136 1280.75 146.65625 C 1274.059 173.42015 1265.9807 207.22295 1258.9375 237.15625 C 1251.5423 207.22295 1243.4409 173.42015 1236.75 146.65625 C 1232.8762 131.16136 1229.3341 116.04058 1225.8125 101.25 C 1224.0517 93.150403 1217.7246 88.21875 1209.625 88.21875 C 1201.5254 88.21875 1194.8233 93.150403 1193.0625 101.25 C 1189.5409 116.04058 1186.0301 131.16136 1182.1562 146.65625 C 1175.4653 173.42015 1167.3556 207.22295 1160.3125 237.15625 C 1152.9172 207.22295 1144.816 173.42015 1138.125 146.65625 C 1134.2513 131.16136 1130.7403 116.04058 1127.2188 101.25 C 1125.0618 92.930305 1118.3337 87.557055 1110.3125 88 z M 822.53125 88.15625 C 821.55594 88.205084 820.57495 88.342402 819.5625 88.5625 C 811.4629 90.323282 806.53125 97.025399 806.53125 105.125 L 806.53125 309.375 C 806.53125 318.88322 813.92927 326.28125 823.4375 326.28125 C 832.94572 326.28125 840.34375 318.88322 840.34375 309.375 L 840.34375 179.0625 C 854.78217 209.70012 871.68895 243.8611 884.71875 270.625 C 892.46619 286.47204 899.83187 301.60727 906.875 316.75 C 910.04441 323.79313 917.80665 327.66703 925.90625 325.90625 C 933.30154 324.14547 938.9375 317.4746 938.9375 309.375 L 938.9375 105.125 C 938.9375 95.616773 931.53947 88.21875 922.03125 88.21875 C 912.52302 88.21875 905.125 95.616773 905.125 105.125 L 905.125 235.40625 C 889.98227 204.76863 873.77979 170.60764 860.75 143.84375 C 853.00255 127.9967 845.60563 112.86148 838.5625 97.71875 C 835.17299 91.55601 829.35841 87.814412 822.53125 88.15625 z M 601.15625 88.1875 C 598.45962 88.080889 595.74987 88.648163 593.21875 89.96875 C 584.767 94.194629 581.24287 104.42324 585.46875 112.875 L 633 207.59375 L 633 309.375 C 633 318.88322 640.39803 326.28125 649.90625 326.28125 C 659.41448 326.28125 666.8125 318.88322 666.8125 309.375 L 666.8125 207.59375 L 714.34375 112.875 C 718.56963 104.42324 715.04551 94.194629 706.59375 89.96875 C 698.49415 85.742872 688.28838 89.266993 684.0625 97.71875 L 672.4375 120.96875 C 665.74653 134.70285 656.94938 151.59283 649.90625 166.03125 C 642.51097 151.59283 634.06598 134.70285 627.375 120.96875 L 615.75 97.71875 C 612.84471 91.908167 607.08884 88.422044 601.15625 88.1875 z M 1421.7188 88.1875 C 1419.0221 88.080889 1416.2811 88.648163 1413.75 89.96875 C 1405.2982 94.194629 1401.7742 104.42324 1406 112.875 L 1453.5625 207.59375 L 1453.5625 309.375 C 1453.5625 318.88322 1460.9604 326.28125 1470.4688 326.28125 C 1479.9769 326.28125 1487.3438 318.88322 1487.3438 309.375 L 1487.3438 207.59375 L 1534.9062 112.875 C 1539.1321 104.42324 1535.6081 94.194629 1527.1562 89.96875 C 1519.0566 85.742872 1508.8509 89.266993 1504.625 97.71875 L 1493 120.96875 C 1486.309 134.70285 1477.5118 151.59283 1470.4688 166.03125 C 1463.0735 151.59283 1454.5972 134.70285 1447.9062 120.96875 L 1436.2812 97.71875 C 1433.376 91.908167 1427.6513 88.422044 1421.7188 88.1875 z M 25.5625 88.21875 C 16.054274 88.21875 8.65625 95.616773 8.65625 105.125 L 8.65625 309.375 C 8.65625 318.88322 16.054274 326.28125 25.5625 326.28125 C 35.070727 326.28125 42.46875 318.88322 42.46875 309.375 L 42.46875 220.625 L 93.1875 220.625 L 93.1875 309.375 C 93.1875 318.88322 100.58552 326.28125 110.09375 326.28125 C 119.60198 326.28125 127 318.88322 127 309.375 L 127 105.125 C 127 95.616773 119.60198 88.21875 110.09375 88.21875 C 100.58552 88.21875 93.1875 95.616773 93.1875 105.125 L 93.1875 186.8125 L 42.46875 186.8125 L 42.46875 105.125 C 42.46875 95.616773 35.070727 88.21875 25.5625 88.21875 z M 221.1875 88.21875 C 213.0879 88.21875 206.72953 93.135962 204.96875 100.53125 L 148.625 304.78125 C 146.1599 314.28947 151.44609 323.09741 160.25 325.5625 C 169.75823 328.0276 178.56615 322.74141 181.03125 313.9375 C 182.08772 311.12024 182.78728 307.59247 183.84375 303.71875 C 185.60453 297.02777 188.08059 287.8856 191.25 276.96875 L 251.125 276.96875 C 253.94225 287.8856 256.73921 297.02777 258.5 303.71875 C 259.55647 307.59247 260.25603 311.12024 261.3125 313.9375 C 263.7776 322.74141 272.58552 328.0276 282.09375 325.5625 C 290.89766 323.09741 296.18384 314.28947 293.71875 304.78125 L 237.375 100.53125 C 235.61422 93.135962 229.2871 88.21875 221.1875 88.21875 z M 1746.7188 88.21875 C 1738.6191 88.21875 1732.2921 93.135962 1730.5312 100.53125 L 1674.1875 304.78125 C 1671.7224 314.28947 1677.0086 323.09741 1685.8125 325.5625 C 1695.3207 328.0276 1704.1286 322.74141 1706.5938 313.9375 C 1707.6501 311.12024 1708.3498 307.59247 1709.4062 303.71875 C 1711.1671 297.02777 1713.6431 287.8856 1716.8125 276.96875 L 1776.6562 276.96875 C 1779.4734 287.8856 1782.3017 297.02777 1784.0625 303.71875 C 1785.1189 307.59247 1785.8186 311.12024 1786.875 313.9375 C 1789.3401 322.74141 1798.1481 328.0276 1807.6562 325.5625 C 1816.4602 323.09741 1821.7464 314.28947 1819.2812 304.78125 L 1762.9375 100.53125 C 1761.1767 93.135962 1754.8183 88.21875 1746.7188 88.21875 z M 332.34375 89.625 C 322.83552 89.625 315.4375 97.02302 315.4375 106.53125 L 315.4375 309.375 C 315.4375 318.88322 322.83552 326.28125 332.34375 326.28125 C 341.85197 326.28125 349.25 318.88322 349.25 309.375 L 349.25 227.65625 L 374.59375 227.65625 C 407.34431 227.65625 433.75 201.25056 433.75 168.5 L 433.75 148.78125 C 433.75 116.0307 407.34431 89.625 374.59375 89.625 L 332.34375 89.625 z M 473.34375 89.625 C 463.83552 89.625 456.4375 97.02302 456.4375 106.53125 L 456.4375 309.375 C 456.4375 318.88322 463.83552 326.28125 473.34375 326.28125 C 482.85198 326.28125 490.25 318.88322 490.25 309.375 L 490.25 227.65625 L 515.59375 227.65625 C 548.34431 227.65625 574.75 201.25056 574.75 168.5 L 574.75 148.78125 C 574.75 116.0307 548.34431 89.625 515.59375 89.625 L 473.34375 89.625 z M 992.625 89.625 C 983.11678 89.625 975.71875 97.02302 975.71875 106.53125 L 975.71875 307.96875 C 975.71875 317.47698 983.11678 324.84375 992.625 324.84375 L 1063.0625 324.84375 C 1072.5708 324.84375 1079.9688 317.47698 1079.9688 307.96875 C 1079.9688 298.46052 1072.5708 291.0625 1063.0625 291.0625 L 1009.5312 291.0625 L 1009.5312 220.625 L 1056.0312 220.625 C 1065.5394 220.625 1072.9062 213.22698 1072.9062 203.71875 C 1072.9062 194.21052 1065.5394 186.8125 1056.0312 186.8125 L 1009.5312 186.8125 L 1009.5312 123.4375 L 1063.0625 123.4375 C 1072.5708 123.4375 1079.9688 116.03947 1079.9688 106.53125 C 1079.9688 97.02302 1072.5708 89.625 1063.0625 89.625 L 992.625 89.625 z M 1576.5625 89.625 C 1567.0543 89.625 1559.6875 97.02302 1559.6875 106.53125 L 1559.6875 307.96875 C 1559.6875 317.47698 1567.0543 324.84375 1576.5625 324.84375 L 1647 324.84375 C 1656.5082 324.84375 1663.9062 317.47698 1663.9062 307.96875 C 1663.9062 298.46052 1656.5082 291.0625 1647 291.0625 L 1593.4688 291.0625 L 1593.4688 220.625 L 1639.9688 220.625 C 1649.4769 220.625 1656.875 213.22698 1656.875 203.71875 C 1656.875 194.21052 1649.4769 186.8125 1639.9688 186.8125 L 1593.4688 186.8125 L 1593.4688 123.4375 L 1647 123.4375 C 1656.5082 123.4375 1663.9062 116.03947 1663.9062 106.53125 C 1663.9062 97.02302 1656.5082 89.625 1647 89.625 L 1576.5625 89.625 z M 1857.875 89.625 C 1848.3668 89.625 1841 97.02302 1841 106.53125 L 1841 309.375 C 1841 318.88322 1848.3668 326.28125 1857.875 326.28125 C 1867.3832 326.28125 1874.7812 318.88322 1874.7812 309.375 L 1874.7812 227.65625 L 1893.8125 227.65625 L 1926.5625 315.34375 C 1930.4362 324.14767 1939.6024 328.38816 1948.4062 325.21875 C 1957.2102 322.04934 1962.1237 312.17891 1958.25 303.375 L 1927.625 220.96875 C 1946.9936 211.10836 1959.3125 191.39017 1959.3125 168.5 L 1959.3125 148.78125 C 1959.3125 116.0307 1932.9068 89.625 1900.1562 89.625 L 1857.875 89.625 z M 349.25 123.4375 L 374.59375 123.4375 C 388.68001 123.4375 399.9375 134.69499 399.9375 148.78125 L 399.9375 168.5 C 399.9375 182.58626 388.68001 193.84375 374.59375 193.84375 L 349.25 193.84375 L 349.25 123.4375 z M 490.25 123.4375 L 515.59375 123.4375 C 529.68001 123.4375 540.9375 134.69499 540.9375 148.78125 L 540.9375 168.5 C 540.9375 182.58626 529.68001 193.84375 515.59375 193.84375 L 490.25 193.84375 L 490.25 123.4375 z M 1874.7812 123.4375 L 1900.1562 123.4375 C 1914.2425 123.4375 1925.5 134.69499 1925.5 148.78125 L 1925.5 168.5 C 1925.5 182.58626 1914.2425 193.84375 1900.1562 193.84375 L 1874.7812 193.84375 L 1874.7812 123.4375 z M 221.1875 168.84375 C 227.87847 191.73392 234.90277 218.85745 241.59375 243.15625 L 200.75 243.15625 C 207.44097 218.85745 214.49652 191.73392 221.1875 168.84375 z M 1746.7188 168.84375 C 1753.4098 191.73392 1760.4654 218.85745 1767.1562 243.15625 L 1726.3125 243.15625 C 1733.0035 218.85745 1740.0279 191.73392 1746.7188 168.84375 z M 364.0625 497.9375 C 363.66701 497.94782 363.2655 497.9874 362.875 498.03125 C 361.70349 498.16279 360.55794 498.44787 359.4375 498.875 C 357.19663 499.72926 355.07463 501.14412 353.09375 503.125 L 310.84375 545.40625 C 308.07052 548.17948 306.34911 551.76838 305.96875 555.6875 C 305.91441 556.24737 305.90625 556.80274 305.90625 557.375 C 305.90625 561.95303 307.67434 566.17434 310.84375 569.34375 C 314.01316 572.51316 318.23447 574.28125 322.8125 574.28125 C 323.38475 574.28125 323.94013 574.24184 324.5 574.1875 C 328.41912 573.80714 332.00802 572.11698 334.78125 569.34375 C 335.22145 568.99159 335.62957 568.63891 336.03125 568.28125 C 337.23629 567.20827 338.28728 566.10183 339.34375 564.78125 C 341.80884 562.31616 344.98684 558.786 348.15625 555.96875 L 348.15625 719.375 C 348.15625 727.69469 353.80847 734.392 361.59375 735.9375 C 362.70593 736.15829 363.87397 736.28125 365.0625 736.28125 C 365.65676 736.28125 366.23603 736.24399 366.8125 736.1875 C 375.45951 735.34021 381.96875 728.28896 381.96875 719.375 L 381.96875 515.125 C 381.96875 508.43403 378.09723 502.09009 371.40625 499.625 C 368.89714 498.43647 366.43543 497.8756 364.0625 497.9375 z M 1959.0625 497.9375 C 1958.667 497.94782 1958.2655 497.9874 1957.875 498.03125 C 1956.7035 498.16279 1955.5579 498.44787 1954.4375 498.875 C 1952.1966 499.72926 1950.0746 501.14412 1948.0938 503.125 L 1905.8438 545.40625 C 1903.0705 548.17948 1901.3491 551.76838 1900.9688 555.6875 C 1900.9144 556.24737 1900.9062 556.80274 1900.9062 557.375 C 1900.9062 561.95303 1902.6744 566.17434 1905.8438 569.34375 C 1909.0131 572.51316 1913.2345 574.28125 1917.8125 574.28125 C 1918.3848 574.28125 1918.9401 574.24184 1919.5 574.1875 C 1923.4192 573.80714 1927.008 572.11698 1929.7812 569.34375 C 1930.2214 568.99159 1930.6296 568.63891 1931.0312 568.28125 C 1932.2363 567.20827 1933.2873 566.10183 1934.3438 564.78125 C 1936.8088 562.31616 1939.9868 558.786 1943.1562 555.96875 L 1943.1562 719.375 C 1943.1562 727.69469 1948.8084 734.392 1956.5938 735.9375 C 1957.7059 736.15829 1958.874 736.28125 1960.0625 736.28125 C 1960.6568 736.28125 1961.236 736.24399 1961.8125 736.1875 C 1970.4595 735.34021 1976.9688 728.28896 1976.9688 719.375 L 1976.9688 515.125 C 1976.9688 508.43403 1973.0972 502.09009 1966.4062 499.625 C 1963.8971 498.43647 1961.4354 497.8756 1959.0625 497.9375 z M 57.78125 498.1875 C 53.044842 498.30228 48.263353 498.99191 43.53125 500.3125 C 27.684206 504.89053 16.06835 514.04714 7.96875 527.78125 C 3.390715 535.88085 6.2128995 545.7489 14.3125 551.03125 C 22.4121 555.60929 32.609465 552.7871 37.1875 544.6875 C 39.124361 541.69417 41.334631 539.24937 43.84375 537.3125 C 44.15739 537.07039 44.457895 536.81935 44.78125 536.59375 C 47.044736 535.01454 49.570517 533.83284 52.34375 533.0625 C 59.034724 531.30172 65.732089 532.01809 71.71875 535.1875 C 77.705411 538.35691 81.574561 543.27778 83.6875 549.96875 C 85.448283 556.65973 85.075659 563.00493 81.90625 569.34375 L 7.625 710.21875 C 5.1599042 716.20541 5.1430911 721.46765 8.3125 726.75 C 11.834065 732.03235 16.763339 734.84375 22.75 734.84375 L 101.625 734.84375 C 102.21926 734.84375 102.82978 734.83774 103.40625 734.78125 C 112.05325 733.93396 118.53125 726.88272 118.53125 717.96875 C 118.53125 715.59169 118.09188 713.3429 117.25 711.3125 C 117.03953 710.8049 116.78789 710.29199 116.53125 709.8125 C 113.70823 704.53814 108.1619 701.0625 101.625 701.0625 L 50.5625 701.0625 C 59.014257 684.15898 74.876458 655.28437 87.90625 630.28125 C 95.653694 615.84283 103.74415 600.6908 111.84375 584.84375 C 118.88688 571.10965 120.28838 555.61148 116.0625 540.46875 C 111.48446 524.6217 101.99251 512.98904 87.90625 505.59375 C 78.464053 500.5095 68.201348 497.93499 57.78125 498.1875 z M 1652.7812 498.1875 C 1648.0448 498.30228 1643.2634 498.99191 1638.5312 500.3125 C 1623.6747 504.6044 1612.5399 512.94201 1604.5312 525.28125 C 1603.9973 526.10387 1603.475 526.92287 1602.9688 527.78125 C 1598.3907 535.88085 1601.2129 545.7489 1609.3125 551.03125 C 1611.8436 552.46189 1614.5739 553.16802 1617.2812 553.21875 C 1623.2375 553.33035 1629.0401 550.25597 1632.1875 544.6875 C 1634.1244 541.69417 1636.3346 539.24937 1638.8438 537.3125 C 1639.1574 537.07039 1639.4579 536.81935 1639.7812 536.59375 C 1642.0447 535.01454 1644.5705 533.83284 1647.3438 533.0625 C 1654.0348 531.30172 1660.7321 532.01809 1666.7188 535.1875 C 1672.7053 538.35691 1676.5746 543.27778 1678.6875 549.96875 C 1680.4483 556.65973 1680.0756 563.00493 1676.9062 569.34375 L 1602.625 710.21875 C 1600.9302 714.33458 1600.3856 718.10234 1601.25 721.78125 C 1601.3286 722.1157 1601.4295 722.44835 1601.5312 722.78125 C 1601.9384 724.11284 1602.5201 725.42941 1603.3125 726.75 C 1603.5326 727.08015 1603.769 727.40795 1604 727.71875 C 1607.4653 732.38079 1612.1375 734.84375 1617.75 734.84375 L 1696.625 734.84375 C 1697.2193 734.84375 1697.8298 734.83774 1698.4062 734.78125 C 1707.0532 733.93396 1713.5312 726.88272 1713.5312 717.96875 C 1713.5312 715.59169 1713.0919 713.3429 1712.25 711.3125 C 1712.0395 710.8049 1711.7879 710.29199 1711.5312 709.8125 C 1708.7082 704.53814 1703.1619 701.0625 1696.625 701.0625 L 1645.5625 701.0625 C 1654.0142 684.15898 1669.8764 655.28437 1682.9062 630.28125 C 1690.6536 615.84283 1698.7441 600.6908 1706.8438 584.84375 C 1713.8869 571.10965 1715.2884 555.61148 1711.0625 540.46875 C 1706.4845 524.6217 1696.9926 512.98904 1682.9062 505.59375 C 1673.4641 500.5095 1663.2014 497.93499 1652.7812 498.1875 z M 210.09375 498.21875 C 177.3432 498.21875 150.9375 524.62444 150.9375 557.375 L 150.9375 677.09375 C 150.9375 709.84431 177.3432 736.28125 210.09375 736.28125 C 242.49216 736.28125 269.28125 709.84431 269.28125 677.09375 L 269.28125 557.375 C 269.28125 524.62444 242.49216 498.21875 210.09375 498.21875 z M 1805.0938 498.21875 C 1772.3432 498.21875 1745.9375 524.62444 1745.9375 557.375 L 1745.9375 677.09375 C 1745.9375 704.72704 1764.7641 727.85569 1790.3125 734.40625 C 1795.0437 735.61932 1799.9765 736.28125 1805.0938 736.28125 C 1837.4922 736.28125 1864.2813 709.84431 1864.2812 677.09375 L 1864.2812 557.375 C 1864.2812 524.62444 1837.4921 498.21875 1805.0938 498.21875 z M 505.6875 498.34375 C 500.84801 498.41287 495.94514 499.05794 491.125 500.3125 C 486.99817 501.35796 483.10087 502.83781 479.4375 504.65625 C 478.70483 505.01994 477.99377 505.38916 477.28125 505.78125 C 458.75562 515.97566 447.125 535.62933 447.125 557.375 L 447.125 677.09375 C 447.125 707.7974 470.64542 732.94713 500.28125 735.96875 C 502.25697 736.17019 504.25635 736.28125 506.28125 736.28125 C 539.03181 736.28125 565.4375 709.84431 565.4375 677.09375 L 565.4375 641.875 C 565.4375 609.12444 539.03181 582.71875 506.28125 582.71875 C 498.57783 582.71875 491.13294 584.06788 483.96875 587 C 482.94529 587.41887 481.94995 587.89079 480.9375 588.375 L 480.9375 557.375 C 480.9375 556.67069 480.97175 555.97576 481.03125 555.28125 C 481.92368 544.86357 489.3728 535.70367 499.9375 533.0625 C 510.85435 529.89309 522.48209 534.82712 528.46875 544.6875 C 531.33002 549.74975 536.37823 552.76794 541.75 553.1875 C 542.28718 553.22946 542.83352 553.2289 543.375 553.21875 C 546.08238 553.16802 548.81263 552.46189 551.34375 551.03125 C 559.44335 545.7489 562.26554 535.88085 557.6875 527.78125 C 546.81467 508.61073 526.65863 498.04422 505.6875 498.34375 z M 2100.6875 498.34375 C 2095.848 498.41287 2090.9452 499.05794 2086.125 500.3125 C 2081.9982 501.35796 2078.1009 502.83781 2074.4375 504.65625 C 2073.7048 505.01994 2072.9938 505.38916 2072.2812 505.78125 C 2053.7556 515.97566 2042.125 535.62933 2042.125 557.375 L 2042.125 677.09375 C 2042.125 707.7974 2065.6454 732.94713 2095.2812 735.96875 C 2097.257 736.17019 2099.2564 736.28125 2101.2812 736.28125 C 2134.0318 736.28125 2160.4375 709.84431 2160.4375 677.09375 L 2160.4375 641.875 C 2160.4375 609.12444 2134.0318 582.71875 2101.2812 582.71875 C 2093.5778 582.71875 2086.1329 584.06788 2078.9688 587 C 2077.9453 587.41887 2076.95 587.89079 2075.9375 588.375 L 2075.9375 557.375 C 2075.9375 556.67069 2075.9718 555.97576 2076.0312 555.28125 C 2076.9237 544.86357 2084.3727 535.70367 2094.9375 533.0625 C 2105.8543 529.89309 2117.4821 534.82712 2123.4688 544.6875 C 2126.33 549.74975 2131.3782 552.76794 2136.75 553.1875 C 2137.2872 553.22946 2137.8335 553.2289 2138.375 553.21875 C 2141.0824 553.16802 2143.8439 552.46189 2146.375 551.03125 C 2154.4746 545.7489 2157.2655 535.88085 2152.6875 527.78125 C 2141.8146 508.61073 2121.6586 498.04422 2100.6875 498.34375 z M 210.09375 532.03125 C 223.82786 532.03125 235.46875 543.28873 235.46875 557.375 L 235.46875 677.09375 C 235.46875 691.18001 223.82786 702.46875 210.09375 702.46875 C 196.00749 702.46875 184.75 691.18001 184.75 677.09375 L 184.75 557.375 C 184.75 556.9348 184.7595 556.49694 184.78125 556.0625 C 185.45556 542.595 196.44769 532.03125 210.09375 532.03125 z M 1805.0938 532.03125 C 1818.8278 532.03125 1830.4687 543.28873 1830.4688 557.375 L 1830.4688 677.09375 C 1830.4688 691.18001 1818.8278 702.46875 1805.0938 702.46875 C 1791.0076 702.46875 1779.75 691.18001 1779.75 677.09375 L 1779.75 557.375 C 1779.75 556.9348 1779.7595 556.49694 1779.7812 556.0625 C 1780.4556 542.595 1791.4477 532.03125 1805.0938 532.03125 z M 506.28125 616.53125 C 520.36752 616.53125 531.625 627.78874 531.625 641.875 L 531.625 677.09375 C 531.625 691.18001 520.36752 702.46875 506.28125 702.46875 C 492.19499 702.46875 480.9375 691.18001 480.9375 677.09375 L 480.9375 641.875 C 480.9375 627.78874 492.19499 616.53125 506.28125 616.53125 z M 2101.2812 616.53125 C 2115.3675 616.53125 2126.625 627.78874 2126.625 641.875 L 2126.625 677.09375 C 2126.625 691.18001 2115.3675 702.46875 2101.2812 702.46875 C 2087.195 702.46875 2075.9375 691.18001 2075.9375 677.09375 L 2075.9375 641.875 C 2075.9375 627.78874 2087.195 616.53125 2101.2812 616.53125 z "
       id="path5919" />
    <path
       style="font-size:352.15689087px;font-style:normal;font-variant:normal;font-weight:bold;font-stretch:normal;text-align:start;line-height:125%;letter-spacing:0px;word-spacing:0px;writing-mode:lr-tb;text-anchor:start;fill:none;stroke:#000000;stroke-width:4;stroke-miterlimit:4;stroke-opacity:1;stroke-dasharray:none;font-family:Miso;-inkscape-font-specification:Miso Bold"
       d="m 1110.5625,92 c -9.8266,-0.01527 -15.8934,12.79215 -11,20.84375 16.6769,68.03452 32.0948,136.45512 49.9375,204.15625 5.5667,8.8204 22.8563,5.94335 23.0625,-5.375 11.9453,-46.06375 21.8447,-92.94904 34.8125,-138.5625 4.3828,-3.03874 7.3744,3.47801 7.0625,7.125 10.94,45.82706 21.4588,91.94655 33.9375,137.28125 6.1645,8.54124 22.9525,4.91723 23.0166,-6.44065 16.6071,-69.19918 34.2934,-138.19659 49.6709,-207.6531 -0.5627,-11.173545 -19.076,-16.092829 -23.6875,-4.96875 -5.6226,12.39865 -6.0211,26.57637 -10.4379,39.45058 -9.3547,38.24319 -18.4361,76.55317 -27.9059,114.76817 -14.0178,-51.61815 -24.7617,-104.13625 -39.2187,-155.59375 -6.3793,-9.0801 -23.697,-4.241734 -23.2999,7.47141 -12.1243,49.35247 -23.8849,98.79375 -36.1064,148.12234 C 1146.2698,201.03874 1135.8994,148.37508 1121,97.0625 1118.5744,93.83968 1114.6647,91.6276 1110.5625,92 z m -412.03125,0.125 c -10.93628,1.142397 -14.18086,14.42473 -18.40625,22.8125 -10.22795,19.8734 -20.10622,39.92453 -30.125,59.90625 -14.63491,-26.18814 -25.55287,-54.45874 -41.40625,-79.90625 -8.2571,-7.298171 -23.41525,1.273579 -20.65625,12.34375 2.2376,9.74975 9.19424,17.30222 12.56009,26.65386 12.18726,24.53336 25.03592,48.81289 36.50241,73.65864 0.79409,35.93076 -1.62182,72.08337 1.25,107.875 4.62033,9.92104 23.00394,8.53495 23.90625,-3.25 2.10718,-12.96342 -0.47164,-26.14562 0.6875,-39.1875 0.0611,-22.38783 -0.392,-44.84083 0.34375,-67.1875 16.11801,-33.2581 34.14276,-65.69909 49,-99.5 0.61785,-7.418869 -6.15142,-14.582683 -13.65625,-14.21875 z m 820.56255,0 c -10.9363,1.142397 -14.1809,14.42473 -18.4063,22.8125 -10.2568,19.84325 -20.0585,39.91706 -30.0937,59.875 -14.7205,-26.14133 -25.6443,-54.56095 -41.5,-79.90625 -8.177,-7.221239 -23.3587,1.24927 -20.6563,12.3125 2.1647,9.64719 9.2066,17.39923 12.5602,26.68507 12.2452,24.5254 25.0781,48.83262 36.5648,73.68993 0.7917,35.9513 -1.6186,72.12664 1.25,107.9375 4.7097,9.86867 23.0154,8.38696 23.9063,-3.3125 1.9629,-13.64585 -0.4211,-27.47485 0.6562,-41.1875 0.055,-21.72061 -0.3849,-43.508 0.3438,-65.1875 16.1306,-33.25718 34.1827,-65.68265 49.0312,-99.5 0.6178,-7.418869 -6.1514,-14.582683 -13.6562,-14.21875 z m -696.31255,0.03125 c -9.67783,-0.222311 -14.57586,11.75968 -12.25,19.96875 0.44982,67.42956 -0.986,134.92495 0.8125,202.3125 3.75607,10.75723 23.02874,10.17895 24.34375,-1.9375 2.1243,-12.6473 -0.51875,-25.67839 0.71044,-38.4687 0.0905,-36.53074 -0.65452,-73.07751 0.69581,-109.5938 26.36281,51.27774 49.77382,104.20471 76.6875,155.09375 7.72451,6.91507 22.84798,-0.0307 20.90166,-10.93714 0.42738,-50.87026 0.0848,-101.75003 0.33719,-152.62534 -0.33424,-18.92753 0.36987,-38.11619 -1.2701,-56.87502 -4.66273,-9.859416 -22.83797,-8.709339 -23.96875,2.96875 -2.11635,13.02368 0.51231,26.26555 -0.68365,39.37494 -0.0998,36.2915 0.42917,72.59044 -0.50385,108.87506 C 882.08405,199.80262 859.04172,147.42934 833,96.6875 830.48871,93.810254 826.73732,91.806723 822.78125,92.15625 z M 24.90625,92.25 c -9.63273,-0.04568 -14.476885,11.64498 -12.25,19.90625 0.449785,67.41915 -0.985905,134.90411 0.8125,202.28125 3.756069,10.75723 23.028741,10.17895 24.34375,-1.9375 2.111819,-12.63633 -0.478654,-25.65449 0.65625,-38.4375 0,-19.14583 0,-38.29167 0,-57.4375 19.572917,0 39.145833,0 58.71875,0 0.804139,32.92012 -1.629882,66.0663 1.25,98.84375 4.62033,9.92104 23.00394,8.53495 23.90625,-3.25 2.10842,-12.96387 -0.46014,-26.14509 0.62784,-39.18742 -0.44114,-57.79607 1.15447,-115.72676 -0.94034,-173.43758 -4.22806,-10.352375 -23.042779,-9.436821 -24.1875,2.46875 -2.116228,13.02328 0.502665,26.26768 -0.65625,39.375 0,16.45833 0,32.91667 0,49.375 -19.5625,0 -39.125,0 -58.6875,0 C 37.608734,160.33427 40.109348,129.59341 37.1875,99.28125 34.943447,94.841225 29.957061,91.813501 24.90625,92.25 z m 195.625,0 c -9.71263,-0.171286 -13.38302,11.06122 -14.35381,18.96559 -17.75569,66.66384 -37.75944,132.78724 -54.23994,199.75316 0.80432,11.25761 18.98192,15.86973 23.6875,4.84375 5.27931,-10.31988 5.65846,-22.36015 9.80618,-33.16468 0.43973,-4.65815 3.24586,-11.66578 9.16257,-9.67907 19.83333,0 39.66667,0 59.5,0 5.80427,15.27388 6.08442,32.85066 15.28125,46.59375 7.84321,6.53785 23.12817,-0.30203 20.625,-11.25 -2.27275,-14.3441 -8.09167,-27.88005 -11.15022,-42.0809 C 262.92963,209.76483 248.6382,152.68353 231.25,96.71875 228.697,93.603087 224.54851,91.949674 220.53125,92.25 z M 1746,92.25 c -10.0869,-0.12333 -13.3853,11.92246 -14.5113,19.93401 -17.7191,66.32805 -37.5723,132.14725 -53.9887,198.78474 0.8043,11.25761 18.9819,15.86973 23.6875,4.84375 5.2793,-10.31988 5.6585,-22.36015 9.8062,-33.16468 0.4397,-4.65815 3.2458,-11.66578 9.1625,-9.67907 19.8334,0 39.6667,0 59.5,0 5.6379,15.25506 6.2018,32.78179 15.25,46.53125 7.9841,6.74837 23.3498,-0.46285 20.6563,-11.4375 -2.0022,-13.30659 -7.6453,-25.80524 -10.3491,-39.02397 C 1788.991,211.6147 1774.4965,153.54033 1756.7188,96.65625 1754.1546,93.526766 1749.981,91.948334 1746,92.25 z m 151.2812,1.15625 c -15.2085,1.437832 -31.0026,-1.861743 -45.8437,1.75 -10.0991,6.62336 -5.6742,20.34145 -6.3968,30.40615 0.4,63.09811 -1.1486,126.33019 0.9281,189.34385 4.1364,10.32438 22.9995,9.46362 24.1562,-2.46875 2.1162,-13.02328 -0.5027,-26.26768 0.6562,-39.375 0,-16.51042 0,-33.02083 0,-49.53125 8.6768,1.38861 18.6839,-2.26642 26.5313,2.0625 12.2467,30.83271 22.0006,62.84518 35.9063,92.90625 7.2249,8.1682 24.576,1.57987 22,-10.0625 -2.6332,-12.75691 -9.5301,-24.16591 -13.0255,-36.72032 -6.4983,-17.59185 -13.0568,-35.16157 -19.5683,-52.74843 22.7737,-9.15873 35.2803,-34.79885 32.8616,-58.65301 1.946,-22.33703 -5.9739,-47.10071 -26.2678,-58.44074 -9.5732,-5.786906 -20.743,-8.706324 -31.9376,-8.46875 z M 341.40625,93.4375 c -7.41405,0.410011 -17.93326,-0.822936 -20.78125,8 -3.23758,10.39911 -0.14433,21.65508 -1.11485,32.40624 0.26766,60.3377 -1.1076,120.80923 0.8961,181.06251 4.22806,10.35238 23.04278,9.43682 24.1875,-2.46875 2.11623,-13.02328 -0.50267,-26.26768 0.65625,-39.375 0,-16.45833 0,-32.91667 0,-49.375 21.47123,-0.18697 46.13881,3.07605 63.6875,-11.8125 16.59423,-12.80796 22.83689,-35.01736 21.125,-55.375 1.5129,-23.19639 -9.68359,-48.25979 -31.96875,-57.59375 -11.93722,-6.033503 -25.54484,-5.827509 -38.625,-5.125 -6.02105,-0.07183 -12.04086,-0.425636 -18.0625,-0.34375 z m 141,0 c -7.41405,0.410011 -17.93326,-0.822936 -20.78125,8 -3.23758,10.39911 -0.14433,21.65508 -1.11485,32.40624 0.26766,60.3377 -1.1076,120.80923 0.8961,181.06251 4.22806,10.35238 23.04278,9.43682 24.1875,-2.46875 2.11623,-13.02328 -0.50267,-26.26768 0.65625,-39.375 0,-16.45833 0,-32.91667 0,-49.375 21.47123,-0.18697 46.13881,3.07605 63.6875,-11.8125 16.59423,-12.80796 22.83689,-35.01736 21.125,-55.375 1.5129,-23.19639 -9.68359,-48.25979 -31.96875,-57.59375 -11.93722,-6.033503 -25.54484,-5.827509 -38.625,-5.125 -6.02105,-0.07183 -12.04086,-0.425636 -18.0625,-0.34375 z m 575.28125,0 c -23.5665,1.371283 -47.4058,-1.613404 -70.8125,1.375 -9.68843,5.115424 -7.2509,17.74913 -7.13074,26.74993 0.48605,63.82704 -1.15269,127.79034 0.91199,191.53132 4.08687,9.18073 15.6796,8.52793 24.06205,7.62685 21.7031,-0.63843 43.8138,2.06532 65.2505,-1.56435 9.1405,-5.21802 7.3042,-22.56961 -4.0626,-23.4375 -12.9545,-2.1053 -26.1201,0.46312 -39.1562,-0.65625 -7.0729,0 -14.1458,0 -21.2188,0 0,-26.10417 0,-52.20833 0,-78.3125 19.3401,-1.67266 39.5194,2.76455 58.3126,-2.40625 8.6169,-6.2456 5.4289,-23.15327 -6.2188,-23.15625 -13.6841,-1.27817 -27.504,0.46358 -41.1562,-0.53125 -3.6638,0.6667 -11.7156,1.76621 -11.0313,-4.25 0.2196,-22.26781 0.031,-44.58735 0.094,-66.875 21.6146,-1.49729 43.7328,2.55575 65,-2.15625 9.0158,-5.88358 5.9769,-22.949377 -5.4687,-23.5 -2.43,-0.451433 -4.9091,-0.527807 -7.375,-0.4375 z m 583.9375,0 c -23.4105,1.194241 -47.0047,-1.297809 -70.3125,1.15625 -9.4282,4.341533 -8.1515,16.3986 -7.6047,24.9687 0.5032,64.51569 -1.1548,129.15827 0.9172,193.5938 4.3299,9.4479 16.3914,8.31007 25.0311,7.54758 21.3715,-0.57164 43.146,2.0417 64.2501,-1.54758 9.1406,-5.21802 7.3043,-22.56961 -4.0624,-23.4375 -12.9546,-2.1053 -26.1202,0.46312 -39.1563,-0.65625 -7.0729,0 -14.1458,0 -21.2187,0 -1e-4,-26.10417 0,-52.20833 0,-78.3125 19.3543,-1.68458 39.5392,2.78673 58.3437,-2.4375 8.6845,-6.08717 5.3577,-23.25354 -6.25,-23.125 -13.6841,-1.27817 -27.504,0.46358 -41.1563,-0.53125 -3.6637,0.6667 -11.7155,1.76621 -11.0312,-4.25 0.2196,-22.26781 0.031,-44.58735 0.094,-66.875 21.6145,-1.49729 43.7327,2.55575 65,-2.15625 9.0157,-5.88358 5.9768,-22.949377 -5.4688,-23.5 -2.43,-0.451433 -4.9091,-0.527807 -7.375,-0.4375 z m -1268.96875,25.625 c 14.89525,-0.31802 29.99925,10.87365 31,26.25 0.97676,10.76087 1.03259,21.92064 -1.09375,32.5 -4.41161,13.89103 -19.63727,22.12714 -33.875,20.125 -7.01588,-0.64889 -14.8442,1.18908 -21.40625,-1.15625 -4.92766,-4.8223 -0.68566,-12.22701 -2.03125,-18.1875 0,-19.75 0,-39.5 0,-59.25 9.12914,0.66345 18.27686,-0.003 27.40625,-0.28125 z m 141,0 c 14.89525,-0.31802 29.99925,10.87365 31,26.25 0.97676,10.76087 1.03259,21.92064 -1.09375,32.5 -4.41161,13.89103 -19.63727,22.12714 -33.875,20.125 -7.01588,-0.64889 -14.8442,1.18908 -21.40625,-1.15625 -4.92766,-4.8223 -0.68566,-12.22701 -2.03125,-18.1875 0,-19.75 0,-39.5 0,-59.25 9.12914,0.66345 18.27686,-0.003 27.40625,-0.28125 z m 1384.53125,0 c 15.3431,-0.40604 30.567,11.46338 31.1563,27.25 0.7425,10.45633 0.9312,21.32126 -1.25,31.5625 -4.4232,13.8736 -19.6365,22.05289 -33.8438,20.0625 -7.0312,-0.67211 -14.9112,1.23341 -21.4688,-1.1875 -4.9548,-5.13735 -0.564,-12.88502 -2,-19.15625 1e-4,-19.41667 0,-38.83333 0,-58.25 9.1292,0.66345 18.2769,-0.003 27.4063,-0.28125 z M 222.15625,157.84375 c 8.81644,29.60561 16.44898,59.54352 24.6875,89.3125 -17.11458,0 -34.22917,0 -51.34375,0 8.54663,-30.8473 16.43729,-61.88117 25.6875,-92.53125 0.32292,1.07292 0.64583,2.14583 0.96875,3.21875 z m 1525.53125,0 c 8.8239,29.60733 16.4743,59.54186 24.7187,89.3125 -17.1145,0 -34.2291,0 -51.3437,0 8.5704,-30.83774 16.4104,-61.88333 25.6563,-92.53125 0.3229,1.07292 0.6458,2.14583 0.9687,3.21875 z M 363.71875,502.03125 c -12.0178,3.51984 -17.5422,15.85097 -26.84375,23.21875 -9.08983,9.77383 -21.12602,17.78277 -26.96875,29.96875 -1.96824,10.12343 11.37577,19.96977 19.9375,12.8125 7.15998,-4.46852 11.11315,-12.66854 18.3125,-17.21875 7.41802,4.27504 2.71016,13.49681 3.88794,20.21867 0.96784,51.37194 -1.3681,102.93477 1.23706,154.18758 4.37343,9.88897 22.36549,9.15556 23.9375,-2.40625 2.25327,-12.41289 -0.39477,-25.23941 0.73588,-37.81248 -0.28431,-58.03605 0.77236,-116.20084 -0.64213,-174.15627 -1.95786,-5.52517 -7.87157,-9.04451 -13.59375,-8.8125 z m 1595.06245,0 c -11.987,3.4289 -17.6006,15.79476 -26.9062,23.21875 -9.0426,9.74462 -21.2829,17.87121 -26.9688,30.03125 -2.0138,10.41375 12.1263,20.1307 20.5626,12.375 6.7794,-4.65615 10.6777,-12.34661 17.6874,-16.84375 7.4181,4.27504 2.7102,13.49681 3.888,20.21867 0.9686,51.37235 -1.3691,102.93228 1.237,154.18758 4.3029,9.8641 22.4046,9.16373 23.9376,-2.40625 2.2559,-12.41565 -0.385,-25.2382 0.7217,-37.81242 -0.306,-58.05381 0.8784,-116.18004 -0.6905,-174.18758 -1.846,-5.49027 -7.8026,-8.99567 -13.4688,-8.78125 z m -155.2187,0.125 c -30.6285,-0.0511 -57.199,29.80123 -53.4728,60.24999 0.1044,41.93099 -1.1407,83.96102 0.8392,125.82763 5.617,30.54783 40.7131,52.18232 70.4956,41.65954 24.1119,-7.5304 41.6154,-32.559 38.736,-58.08091 -0.1088,-40.79573 0.7741,-81.63966 -0.473,-122.40625 -3.1914,-26.81819 -29.1377,-48.42657 -56.125,-47.25 z m -1746.34375,0.0625 c -20.587598,0.91154 -42.297164,13.46915 -47.53125,34.375 -0.1452873,10.6165 15.827571,17.72816 22.1883,8.12627 6.280868,-9.01085 15.470669,-17.39313 27.15545,-16.75127 17.548297,-0.37581 33.889412,17.099 29.049604,34.76096 -3.691415,15.85447 -14.748322,28.5866 -21.003043,43.40722 C 47.957442,643.09223 27.113009,679.26079 9.8125,717 c -0.7021042,9.2484 9.391677,16.13861 17.906076,13.82512 26.753199,-0.7833 53.827877,1.78371 80.375174,-1.41887 9.65665,-4.92629 7.91033,-22.76459 -3.625,-23.75 -12.955235,-1.90442 -26.096797,0.44588 -39.125,-0.59375 -7.09375,0 -14.1875,0 -21.28125,0 22.000849,-44.63658 48.20566,-87.28027 68.46875,-132.78125 8.3996,-28.16261 -9.60416,-62.04975 -38.9375,-68.15625 -5.31185,-1.47087 -10.866895,-2.09134 -16.375,-1.90625 z m 149.5,0 c -29.86923,1.07817 -55.31506,30.37184 -51.59775,60.21874 0.092,42.07554 -1.26263,84.25756 0.91426,126.26275 5.7936,30.0709 39.82597,51.04665 69.18349,41.58101 24.76601,-7.06336 42.99611,-32.80056 39.91893,-58.68746 0.08,-40.52523 0.59407,-81.09256 -0.35643,-121.59379 -3.23157,-27.93741 -30.02121,-49.8671 -58.0625,-47.78125 z m 1445.50005,0 c -20.623,0.89906 -42.9263,13.77992 -47.5313,34.9375 0.2576,10.20989 16.1293,17.04649 22.2408,7.49336 6.3549,-9.31557 16.0175,-17.59554 27.9467,-16.68086 17.4362,0.15735 33.1672,17.73732 28.125,35.21875 -3.8675,15.63169 -14.6991,28.26101 -20.909,42.93999 -19.1632,36.97361 -40.0056,73.2478 -57.341,111.06001 -0.4676,9.65332 10.3028,16.16706 18.9998,13.63739 26.4071,-0.79288 53.1439,1.79942 79.344,-1.41864 9.6484,-4.92662 7.9223,-22.7594 -3.625,-23.75 -12.9553,-1.90442 -26.0968,0.44588 -39.125,-0.59375 -7.0938,0 -14.1876,0 -21.2813,0 22.003,-44.63601 48.2189,-87.27259 68.4687,-132.78125 8.3996,-28.16261 -9.6041,-62.04975 -38.9374,-68.15625 -5.3119,-1.47087 -10.8669,-2.09134 -16.375,-1.90625 z m -1148.4063,0.0625 c -30.02982,0.49316 -55.973,29.36278 -52.51681,59.46868 -0.16506,40.84854 -0.55779,81.73529 0.29806,122.56257 3.13631,30.65447 35.64565,53.89077 65.65625,47 24.99528,-4.88866 44.77121,-28.46949 44.21875,-54.125 -0.84511,-22.40079 4.15805,-47.59044 -9.84375,-67.03125 -15.35919,-22.05503 -47.69934,-30.63673 -71.21875,-17 -2.42851,1.97368 -4.94395,-0.9085 -3.40625,-3.375 1.3931,-16.97478 -4.62085,-36.65022 6.71875,-51.28125 11.88042,-14.5199 38.91426,-13.75036 47.59375,3.84375 4.32118,6.99791 15.05131,9.99572 20.78125,2.84375 5.50242,-5.68324 4.53349,-15.00032 -0.90625,-20.25 -10.48166,-14.88577 -29.05933,-23.45653 -47.375,-22.65625 z m 1596.2813,0 c -30.13,-0.31903 -56.9361,28.35056 -53.7897,58.46871 -0.1763,41.18182 -0.5677,82.40193 0.2897,123.56254 3.1363,30.65447 35.6456,53.89077 65.6562,47 24.9953,-4.88866 44.7712,-28.46949 44.2188,-54.125 -0.8434,-22.39393 4.1513,-47.54627 -9.8126,-67 -15.3621,-22.0712 -47.7134,-30.67836 -71.25,-17.03125 -2.4285,1.97368 -4.9439,-0.9085 -3.4062,-3.375 1.3952,-16.96908 -4.6298,-36.693 6.75,-51.3125 11.9805,-14.54105 38.8951,-13.65683 47.6562,3.90625 4.1817,6.63875 14.1496,9.81579 20.0313,3.53125 6.2085,-5.58646 5.3645,-15.7572 -0.4063,-21.1875 -10.3914,-14.48369 -28.1926,-22.89381 -45.9374,-22.4375 z M 210.625,527.9375 c 18.33435,-0.0957 32.40888,19.23671 28.83109,36.81242 -0.68816,40.3569 1.48868,80.87024 -1.20609,121.12508 -5.38346,19.5939 -33.74222,27.79355 -48.09375,12.9375 -10.24397,-9.30743 -10.47894,-24.21598 -9.3396,-37.06234 0.40349,-37.49609 -1.305,-75.12031 1.0271,-112.53141 3.38315,-12.44851 15.82864,-21.60269 28.78125,-21.28125 z m 1595,0 c 18.3344,-0.0957 32.4089,19.23671 28.8311,36.81242 -0.6882,40.3569 1.4887,80.87024 -1.2061,121.12508 -5.3835,19.5939 -33.7422,27.79355 -48.0938,12.9375 -10.2439,-9.30743 -10.4789,-24.21598 -9.3396,-37.06234 0.4035,-37.49609 -1.305,-75.12031 1.0272,-112.53141 3.3831,-12.44851 15.8286,-21.60269 28.7812,-21.28125 z m -1298.4375,84.5 c 18.18502,0.0445 32.17736,19.37915 28.21875,36.78125 -0.447,15.89381 4.11456,34.82217 -7.375,47.90625 -12.23754,13.46327 -37.55722,12.27385 -46.5625,-4.28125 -8.12561,-13.18902 -3.01852,-29.36792 -4.84375,-43.90625 -0.74712,-12.86643 3.62672,-27.33652 16.09375,-33.125 4.45456,-2.34161 9.43806,-3.40644 14.46875,-3.375 z m 1595,0 c 18.1861,0.0442 32.1772,19.37836 28.2187,36.78125 -0.4469,15.89381 4.1146,34.82217 -7.375,47.90625 -12.2375,13.46327 -37.5572,12.27385 -46.5624,-4.28125 -8.1257,-13.18902 -3.0186,-29.36792 -4.8438,-43.90625 -0.7471,-12.86643 3.6267,-27.33652 16.0938,-33.125 4.4545,-2.34161 9.438,-3.40644 14.4687,-3.375 z"
       id="path6575"
       inkscape:connector-curvature="0" />
    <path
       style="font-size:352.15689087px;font-style:normal;font-variant:normal;font-weight:bold;font-stretch:normal;text-align:start;line-height:125%;letter-spacing:0px;word-spacing:0px;writing-mode:lr-tb;text-anchor:start;fill:none;stroke:#000000;stroke-width:4;stroke-miterlimit:4;stroke-opacity:1;stroke-dasharray:none;font-family:Miso;-inkscape-font-specification:Miso Bold"
       d="m 1110.7812,96 c -7.7831,0.163758 -11.427,10.94993 -7.0937,16.8125 16.8519,67.73062 31.3941,136.23278 50.25,203.34375 5.1218,4.82559 15.7705,0.84033 15,-6.5 12.4883,-46.4024 21.1723,-93.99436 35.875,-139.6875 6.3817,-5.07304 14.9731,3.07602 13.6875,10.0625 11.3325,45.55213 20.457,91.97849 34.625,136.625 6.062,4.46102 15.8225,-0.88663 14.8543,-8.44211 16.0424,-68.88412 34.9101,-137.16103 48.7395,-206.52664 -2.5608,-7.275773 -16.0316,-7.518221 -16.6993,1.11236 -7.6727,26.6954 -12.9095,54.03664 -20.0405,80.88798 -6.8528,28.28715 -13.7949,56.55255 -20.7602,84.81216 -16.2967,-56.34439 -26.7869,-114.38417 -43.8438,-170.40625 -5.4169,-4.606263 -15.8701,-0.0053 -15,7.40625 -13.2524,54.28066 -26.259,108.62156 -39.75,162.84375 -16.6642,-56.27498 -26.3713,-114.49536 -44.2188,-170.375 -1.5312,-1.398763 -3.5487,-2.161902 -5.625,-1.96875 z M 823,96.15625 c -7.98599,0.353794 -10.57123,10.55986 -8.46875,16.96875 0.82228,67.23689 -1.80661,134.67236 1.46875,201.78125 4.62139,6.33879 17.7444,2.6936 16.00369,-5.93689 0.99916,-53.27206 -0.88717,-106.59736 1.68381,-159.84436 29.53715,55.3207 53.83702,113.54935 84.15625,168.375 6.46238,3.41773 15.61892,-3.89131 12.84375,-10.90625 -0.28842,-68.6469 1.63049,-137.45561 -0.96875,-206 -3.30923,-7.505189 -17.81685,-4.322198 -16.25,4.34375 -0.88537,53.56618 0.52698,107.16212 -1.28125,160.71875 C 882.21184,210.84509 858.10823,152.9097 828.5625,98 827.04956,96.681333 825.01981,95.968601 823,96.15625 z M 600.71875,96.1875 c -7.25495,0.0048 -12.14251,9.68927 -6.9702,15.14992 15.60052,32.11417 32.91435,63.44348 47.25145,96.13133 1.55415,36.07454 -3.13997,72.77809 2.4375,108.4375 5.15973,5.24798 16.99308,0.72945 15.0625,-7.25 1.02632,-33.13362 -0.7181,-66.3331 0.84375,-99.4375 0.80721,-11.29529 8.66065,-20.46487 12.9254,-30.6514 12.39425,-24.63002 25.99819,-48.91231 35.85585,-74.62985 -0.9567,-7.568578 -12.19481,-10.709878 -16,-3.5 -6.79574,9.089 -9.29746,20.75276 -15.54996,30.33067 -8.8609,17.45115 -17.51844,35.01478 -26.29379,52.51308 -17.3588,-27.82692 -27.13099,-59.91623 -46.375,-86.59375 -1.01222,-0.390353 -2.08104,-0.608652 -3.1875,-0.5 z m 820.37505,0 c -7.1234,0.264558 -11.9517,9.38617 -6.9649,14.86607 15.2467,31.87287 32.8823,62.7403 46.6523,95.22768 2.5077,12.09666 0.2032,24.6285 0.9063,36.90625 -0.1876,24.20772 -1.8448,48.96942 2.375,72.78125 5.1718,5.18474 16.9169,0.54427 14.9375,-7.3125 1.1684,-34.13561 -0.9275,-68.39949 1.0938,-102.46875 2.9173,-11.69847 10.5703,-21.55904 15.2446,-32.57534 11.6086,-22.95617 24.2308,-45.61229 33.3491,-69.67466 -0.9396,-7.615325 -12.2219,-10.684681 -16.0313,-3.46875 -6.8461,9.52666 -9.6491,21.29157 -15.9529,31.20045 -8.7011,17.14756 -17.1878,34.40271 -25.8283,51.5808 -17.4794,-27.77038 -27.1773,-60.15174 -46.5625,-86.59375 -1.0426,-0.400042 -2.0693,-0.587514 -3.2187,-0.46875 z M 25.15625,96.25 c -8.459543,0.614309 -10.4076,11.18867 -8.490099,17.9062 0.790828,66.89328 -1.802886,133.98484 1.458849,200.75005 4.620938,6.33878 17.745368,2.69363 16.002977,-5.93691 0.683244,-32.10882 -0.0068,-64.2301 0.340773,-96.34434 22.1875,0 44.375,0 66.5625,0 2.06949,34.38182 -3.296257,69.40653 2.6875,103.375 5.22881,5.12378 16.87804,0.56245 14.96875,-7.34375 0.54516,-43.86063 -0.2056,-87.7299 0.50781,-131.59373 -0.0552,-25.9675 0.25318,-52.28383 -2.13281,-78.00002 -4.96976,-5.727096 -17.27121,-1.755551 -15.53331,6.56194 -0.75605,26.4921 0.0911,53.10058 -0.37294,79.53181 1.06863,3.71829 0.71787,11.10224 -4.96875,9.65625 -20.520833,0 -41.041667,0 -61.5625,0 C 32.793843,162.97504 37.42292,130.72035 32.25,99.15625 30.488187,97.272006 27.856818,95.950822 25.15625,96.25 z m 195.59375,0 c -9.05437,0.752143 -10.0366,11.93844 -11.44982,18.87077 -17.13667,65.93524 -38.24118,131.1152 -52.95643,197.50423 2.52262,7.05972 15.47282,7.39012 16.6875,-0.65625 6.2011,-13.2969 4.40762,-30.12116 14.3125,-41.5 7.90561,-4.13437 17.06887,-0.007 25.4375,-1.5 14.66667,0 29.33333,0 44,0 7.69433,15.58333 5.24282,35.96491 17.6875,48.96875 6.62717,2.23513 14.86005,-5.53389 10.9375,-12.03125 -17.14489,-62.03387 -33.37527,-124.32881 -51.38522,-186.11642 -2.70915,-7.34341 -4.24543,-15.92126 -8.27103,-22.50858 -1.5042,-0.833201 -3.28129,-1.138477 -5,-1.03125 z m 1525.4688,0 c -8.9185,0.82914 -10.0676,11.95695 -11.3512,18.87257 -17.2153,65.92989 -38.1541,131.06152 -52.9926,197.50243 2.5483,7.01222 15.4891,7.42121 16.7188,-0.65625 6.201,-13.2969 4.4076,-30.12116 14.3124,-41.5 7.9057,-4.13437 17.0689,-0.007 25.4376,-1.5 14.6874,0 29.375,0 44.0624,0 7.3559,15.57502 5.3853,35.68428 17.4063,48.8125 6.6601,2.62792 15.255,-5.44485 11.1875,-12.03125 -18.0303,-64.092 -34.2352,-128.82127 -53.5625,-192.46875 -2.3254,-5.1108 -2.571,-12.09382 -6.2813,-16.09375 -1.5399,-0.746111 -3.2109,-1.058867 -4.9374,-0.9375 z m -683.6876,1.125 c -23.6829,1.414098 -47.6794,-1.205472 -71.2812,1.0625 -8.82898,1.165736 -8.32348,12.23883 -7.8125,18.9375 1.29562,17.03495 -0.0205,34.16083 0.39799,51.24999 -0.12144,48.03218 -1.10689,96.16628 1.25826,144.12501 7.22734,7.96381 19.22415,2.86485 28.49985,3.79432 18.747,-0.40279 38.4042,3.14134 56.4689,-2.60682 4.5972,-5.44776 -0.074,-16.40298 -7.75,-14.59375 -18.2919,-0.89371 -36.931,0.20226 -55.0313,0 -5.1247,-0.54315 -6.7394,-5.97749 -5.75,-10.40625 0,-25.26042 10e-5,-50.52083 0,-75.78125 20.4265,-3.54312 42.4069,4.3231 61.875,-4.03125 4.2654,-5.85867 -1.485,-16.38973 -9.0312,-14.125 -16.1415,-1.39212 -32.6929,1.67778 -48.625,-0.875 -7.50832,-4.5974 -3.3924,-14.73621 -4.2436,-21.93749 0.048,-18.78121 0.015,-37.56251 0.025,-56.34376 22.6636,-2.81796 46.1765,3.47263 68.3126,-3.125 4.9064,-5.41091 0.261,-16.206965 -7.3126,-15.34375 z m 802.875,0 c -5.9345,0.251001 -15.9292,0.237856 -16.125,8.40625 -1.195,20.69309 0.6197,41.43467 -0.1179,62.15621 -0.043,49.03394 -1.5388,98.31637 1.4929,147.18754 4.8029,6.11535 17.532,2.28446 15.7834,-6.24944 0.8204,-26.34695 -0.2056,-52.80327 0.4354,-79.09431 -0.2317,-3.15788 -1.9471,-10.39491 3.1562,-10.375 10.1237,1.86407 22.8679,-3.45866 31.0313,4.6875 12.9795,30.91148 20.8677,64.21413 37.3437,93.40625 6.5295,3.49056 16.5393,-4.49059 12.0626,-11.4375 -10.7585,-29.89748 -22.078,-59.5887 -32.9688,-89.4375 24.0868,-7.39307 37.0508,-34.40251 34.1455,-58.62155 2.2619,-24.10743 -10.8443,-50.75487 -35.208,-57.75345 -16.4301,-5.077692 -34.1025,-1.417959 -51.0313,-2.875 z M 334.21875,97.40625 c -5.82282,-0.131571 -11.88531,4.39984 -10.59375,10.71875 -0.71604,22.24022 0.54199,44.49847 -0.0625,66.75 0.008,46.74436 -1.49561,93.73411 1.59375,140.3125 4.88371,6.04104 17.49417,2.20152 15.75206,-6.31194 0.75605,-26.4921 -0.0911,-53.10058 0.37294,-79.53181 -1.08291,-3.73648 -0.6996,-11.12138 5,-9.65625 21.48441,0.22293 46.44068,2.72147 63.21875,-13.40625 16.98669,-16.00376 18.87028,-42.10161 16,-64.1875 -3.38082,-22.76838 -22.5576,-43.310573 -46.28125,-44.125 -14.96695,-1.427162 -30.01587,0.518922 -45,-0.5625 z m 141,0 c -5.82282,-0.131571 -11.88531,4.39984 -10.59375,10.71875 -0.71604,22.24022 0.54199,44.49847 -0.0625,66.75 0.008,46.74436 -1.49561,93.73411 1.59375,140.3125 4.88371,6.04104 17.49417,2.20152 15.75206,-6.31194 0.75605,-26.4921 -0.0911,-53.10058 0.37294,-79.53181 -1.08291,-3.73648 -0.6996,-11.12138 5,-9.65625 21.48441,0.22293 46.44068,2.72147 63.21875,-13.40625 16.98669,-16.00376 18.87028,-42.10161 16,-64.1875 -3.38082,-22.76838 -22.5576,-43.310573 -46.28125,-44.125 -14.96695,-1.427162 -30.01587,0.518922 -45,-0.5625 z m 1172.12505,0.0625 c -23.9972,0.978174 -48.2496,-0.984312 -72.125,0.84375 -8.7776,1.345817 -8.3452,12.24054 -7.8126,19.03125 1.3233,18.04282 -0.03,36.18629 0.3898,54.28123 -0.1513,47.02202 -1.0506,94.14446 1.2665,141.09377 7.4691,8.17459 19.6512,2.81149 29.1875,3.8125 18.5031,-0.32894 37.9256,3.08692 55.75,-2.59375 4.5972,-5.44776 -0.074,-16.40298 -7.75,-14.59375 -18.2919,-0.89371 -36.931,0.20226 -55.0312,0 -5.1248,-0.54315 -6.7395,-5.97749 -5.75,-10.40625 -1e-4,-25.26042 0,-50.52083 0,-75.78125 20.4516,-3.50599 42.3648,4.25032 61.9374,-4 4.3397,-6.2568 -1.6995,-16.40774 -9.3729,-14.21995 -15.9674,-1.14922 -32.2115,1.48122 -48.0333,-0.65505 -7.6304,-4.10676 -3.9151,-14.14016 -4.5582,-21.09375 0.051,-19.11454 0.017,-38.22917 0.027,-57.34375 22.6948,-2.95047 46.5489,3.764 68.5312,-3.375 4.2555,-5.08733 0.4771,-15.303317 -6.6562,-15 z m 222.625,17.4375 c 15.7811,3.00561 33.897,-4.46754 48,5.75 11.0904,7.23162 17.6193,20.76998 15.8124,34.03125 1.226,15.14479 -1.267,33.80365 -15.6562,42 -12.7599,7.99009 -28.7343,5.07288 -43,5.03125 -7.1186,-1.45411 -10.2024,-9.39406 -8.5089,-16.02763 0.9716,-22.85164 -0.6067,-45.90146 0.3839,-68.65987 0.4364,-1.25905 1.6283,-2.13191 2.9688,-2.125 z M 373.5,115.03125 c 20.07974,-0.57133 37.59192,19.07664 34.65625,39 1.4165,15.59055 -1.11434,34.67533 -16.0625,42.90625 -12.0914,7.46501 -26.96339,4.86772 -40.40625,5 -6.68583,-0.20518 -11.867,-6.2407 -10.67585,-12.93731 0.84889,-24.62588 -0.095,-49.28323 0.23835,-73.93769 10.72617,1.0769 21.50817,0.29329 32.25,-0.0312 z m 141,0 c 20.07974,-0.57133 37.59192,19.07664 34.65625,39 1.4165,15.59055 -1.11434,34.67533 -16.0625,42.90625 -12.0914,7.46501 -26.96339,4.86772 -40.40625,5 -6.68583,-0.20518 -11.867,-6.2407 -10.67585,-12.93731 0.84889,-24.62588 -0.095,-49.28323 0.23835,-73.93769 10.72617,1.0769 21.50817,0.29329 32.25,-0.0312 z m -292.34375,28.9375 c 10.98116,35.44409 19.98325,71.45278 29.9375,107.1875 -20.61458,0 -41.22917,0 -61.84375,0 10.25096,-36.78882 19.49817,-73.86237 30.9375,-110.3125 0.32292,1.04167 0.64583,2.08333 0.96875,3.125 z m 1525.53125,0 c 10.9597,35.45272 20.0258,71.44689 29.9687,107.1875 -20.6145,0 -41.2291,0 -61.8437,0 10.2477,-36.78427 19.5008,-73.85729 30.9063,-110.3125 0.3229,1.04167 0.6458,2.08333 0.9687,3.125 z M 207.75,506.09375 c -29.74632,0.61647 -53.88138,31.1743 -48.61713,60.34372 0.5667,42.27983 -2.52682,84.81873 2.17963,126.90628 9.09106,29.53902 49.13658,45.69679 75.4375,27.46875 18.22272,-11.15618 27.82829,-34.04461 24.36687,-55.21873 C 260.6881,624.97256 263.0695,584.18899 259.5,543.6875 253.51811,521.42534 230.96518,504.83112 207.75,506.09375 z m 1595.9375,0.0625 c -30.2609,-0.10973 -54.829,30.84776 -49.5858,60.24997 0.6402,42.17514 -2.4412,84.60313 2.1171,126.59378 9.0057,29.6023 48.4199,45.75465 74.7187,28.28125 18.7934,-10.93817 28.6158,-34.09247 25.2025,-55.43737 -0.6281,-40.83836 2.1195,-81.8532 -1.7338,-122.56263 -6.1489,-21.78312 -27.9933,-38.08169 -50.7187,-37.125 z M 364.25,506.3125 c -12.9164,4.97794 -18.84996,18.72771 -29.4375,26.875 -7.68142,7.81749 -19.40744,14.654 -20.84375,26.34375 1.97317,6.99812 12.49056,9.24417 16.53125,3.03125 6.33502,-5.06471 10.26136,-14.77762 19.0625,-15.5625 9.03972,4.43913 6.71479,16.48358 6.375,24.6875 1.68878,51.14581 -2.27332,102.70557 2.0625,153.59375 4.82086,5.96592 17.34676,2.06061 15.59794,-6.31187 0.73476,-38.73128 -0.14573,-77.47992 0.43544,-116.21921 0.0513,-30.78342 0.51514,-61.74982 -1.47088,-92.40642 -1.79598,-2.58148 -5.06268,-4.67589 -8.3125,-4.03125 z m 1595.125,-0.125 c -14.0144,5.91476 -20.7462,20.98247 -32.6358,29.84019 -6.9368,6.68627 -16.7248,13.09864 -17.7392,23.37856 1.7738,7.01573 12.2984,9.44522 16.4375,3.25 6.2364,-5.0173 10.3327,-14.83763 19.125,-15.65625 9.0397,4.43913 6.7148,16.48358 6.375,24.6875 1.7754,51.22316 -2.4484,102.82651 2.2187,153.8125 4.9013,5.71088 17.2506,1.61573 15.4688,-6.53125 0.5657,-42.54677 -0.052,-85.10439 0.5,-127.65625 -0.013,-26.96797 0.1945,-54.07252 -1.5312,-80.9375 -1.8504,-2.60489 -4.9513,-4.52432 -8.2188,-4.1875 z m -1901.96875,0.0312 c -19.038966,0.75328 -40.521083,12.58591 -43.40625,32.75 1.948082,6.90698 14.106043,8.64165 16.3125,0.96875 9.680354,-15.15282 32.015323,-21.41836 47.1875,-10.71875 14.444051,9.07783 20.168077,29.97252 10.875,44.6875 -10.202822,20.97958 -22.191548,41.06498 -32.426508,62.0225 -14.586003,27.59663 -30.811009,54.76482 -41.917242,83.88375 2.14479,7.88377 11.973294,8.36833 18.561022,6.82938 25.193147,-0.90017 51.160648,3.20658 75.813978,-2.45438 4.90583,-5.26778 0.34046,-16.66792 -7.46875,-14.84375 -19.296959,-1.05159 -38.827749,0.67382 -58,-0.53125 -4.965017,-2.55187 -1.503427,-9.03899 0.826367,-12.29162 C 65.50727,652.89987 92.151491,611.53838 109.9375,566.0625 115.52245,537.18912 91.511132,505.85065 61.625,506.25 c -1.404924,-0.0673 -2.813162,-0.0991 -4.21875,-0.0312 z m 1595.03125,0 c -19.0489,0.72266 -40.7909,12.71804 -43.3437,33 2.2814,6.87704 14.1106,8.17338 16.2812,0.59375 9.8976,-15.56806 33.3843,-21.46207 48.4062,-9.71875 13.7794,9.52364 18.6018,30.02494 9.3438,44.3125 -11.0628,22.42673 -23.6328,44.07823 -34.8181,66.44281 -13.7614,25.9879 -29.0824,51.61612 -39.2131,79.18219 2.7202,8.26122 13.0336,7.97544 19.9687,6.59375 24.7055,-0.85055 50.1834,3.20941 74.3437,-2.4375 4.9275,-5.33201 0.3286,-16.65074 -7.4687,-14.84375 -19.297,-1.05159 -38.8277,0.67382 -58,-0.53125 -4.965,-2.55187 -1.5034,-9.03899 0.8264,-12.29162 21.7474,-43.62021 48.4083,-84.97142 66.1736,-130.45838 5.5822,-28.86254 -18.4078,-60.19033 -48.2813,-59.8125 -1.4049,-0.066 -2.8131,-0.0999 -4.2187,-0.0312 z m 446.2813,0.0312 c -29.0275,0.50903 -53.0736,29.89031 -48.4023,58.49999 0.5077,42.27348 -2.1077,84.74291 1.7147,126.87501 8.1625,29.78581 46.6177,46.83479 73.625,30.625 19.0438,-10.18579 29.7254,-32.99792 26.7733,-54.37473 0.5544,-20.34954 2.1482,-43.9332 -12.5857,-59.96902 -15.7662,-18.05845 -44.7493,-22.57722 -65.4688,-10.15625 -6.5347,0.42389 -8.0752,-8.10042 -6.0625,-12.90625 -0.6529,-17.42721 -3.6245,-38.27691 9.875,-51.71875 15.3897,-15.10579 45.0623,-9.88701 53.9063,9.9375 5.848,5.57396 17.2287,-0.84566 14.3124,-8.78125 -3.0997,-11.34827 -14.0454,-18.33803 -23.9374,-23.53125 -7.4694,-3.27924 -15.594,-4.76932 -23.75,-4.5 z m -1594.7813,0.0312 c -29.49474,0.28353 -53.70849,30.57805 -48.64828,59.46872 0.57389,41.93989 -2.10467,84.07709 1.74203,125.87503 8.16246,29.78581 46.61769,46.83479 73.625,30.625 19.04372,-10.18579 29.72534,-32.99792 26.77325,-54.37473 0.55098,-20.65739 2.18262,-44.83155 -13.367,-60.75027 -15.86272,-17.44481 -44.36195,-21.60189 -64.6875,-9.375 -6.53472,0.42389 -8.07521,-8.10042 -6.0625,-12.90625 -0.64478,-17.27413 -3.646,-38.04649 9.6875,-51.46875 15.19865,-15.36963 45.00407,-10.38766 53.78125,9.5 5.60456,5.81991 17.44607,-0.32557 14.6875,-8.4375 -2.90203,-11.14953 -13.81207,-18.28014 -23.53125,-23.46875 -7.51613,-3.40941 -15.74562,-5.00967 -24,-4.6875 z M 210.125,523.875 c 22.44335,-0.44928 38.59488,24.37055 33.2332,45.21861 -1.11572,40.5963 3.06427,81.57933 -2.64083,121.89536 -8.96317,21.75344 -43.95261,26.72495 -57.12362,6.41728 -11.63111,-16.28828 -5.57863,-37.41244 -6.625,-56 0.19112,-32.27803 -2.32968,-64.79694 2.25,-96.875 5.01257,-12.14398 17.69551,-20.64349 30.90625,-20.65625 z m 1595,0 c 22.4434,-0.44928 38.5949,24.37055 33.2332,45.21861 -1.1157,40.5963 3.0643,81.57933 -2.6408,121.89536 -8.9447,21.76191 -43.982,26.71663 -57.1236,6.41728 -11.6312,-16.28828 -5.5787,-37.41244 -6.625,-56 0.1911,-32.27803 -2.3297,-64.79694 2.25,-96.875 5.0125,-12.14398 17.6955,-20.64349 30.9062,-20.65625 z m -1300.375,84.5 c 22.60133,-1.69278 40.14725,23.05576 34.65625,44.21875 0.76267,16.71628 2.88537,36.96582 -10.5625,49.40625 -16.50472,16.01889 -49.84206,7.86442 -54.31492,-15.46762 -3.83747,-15.63043 -0.78094,-31.88285 -1.65383,-47.75113 1.92419,-15.89703 15.43092,-30.1621 31.875,-30.40625 z m 1595,0 c 22.6504,-1.64947 40.1581,23.02708 34.6562,44.21875 0.7627,16.71628 2.8854,36.96582 -10.5624,49.40625 -16.5048,16.01889 -49.8421,7.86442 -54.315,-15.46762 -3.8374,-15.63043 -0.7809,-31.88285 -1.6538,-47.75113 1.9242,-15.89703 15.4309,-30.1621 31.875,-30.40625 z"
       id="path6585"
       inkscape:connector-curvature="0" />
    <path
       style="font-size:352.15689087px;font-style:normal;font-variant:normal;font-weight:bold;font-stretch:normal;text-align:start;line-height:125%;letter-spacing:0px;word-spacing:0px;writing-mode:lr-tb;text-anchor:start;fill:none;stroke:#000000;stroke-width:4;stroke-miterlimit:4;stroke-opacity:1;stroke-dasharray:none;font-family:Miso;-inkscape-font-specification:Miso Bold"
       d="m 1111.1875,100 c -5.9188,0.56362 -6.6743,8.97135 -3.375,12.78125 16.8806,67.03422 30.4963,134.98397 50.1875,201.25 4.8836,1.60196 8.5338,-3.94913 7.8262,-8.2771 12.8478,-46.12417 20.0913,-94.0211 36.58,-138.9729 8.5621,-6.88997 21.9564,2.96884 20.2188,13.15625 11.2578,44.75897 19.5459,90.58592 34.4375,134.21875 5.9185,1.07045 8.309,-6.04832 7.9131,-10.69298 15.5006,-67.27211 34.6258,-133.73124 47.2432,-201.65077 -2.9324,-3.448291 -9.865,-0.74361 -8.8438,3.96875 -14.6373,56.23913 -27.151,113.06738 -41.8438,169.25 -3.1561,3.76624 -6.5174,-2.02224 -6.25,-5.09375 -16.0989,-56.11059 -26.0198,-113.92202 -43.9062,-169.5 -5.7086,-1.440485 -8.4601,5.37004 -8.1107,9.94059 -13.9992,57.72104 -27.9171,115.46252 -42.2955,173.09066 -19.5025,-60.23006 -28.1968,-123.80665 -48.875,-183.4375 -0.3044,0.018 -0.6056,-0.1334 -0.9063,-0.0312 z M 222,100.15625 c -7.73526,0.84796 -7.74403,11.1556 -9.0625,16.9375 -16.7357,65.25837 -38.20018,129.39233 -52.09375,195.3125 3.72109,3.90981 10.16558,-0.17165 9.75737,-5.09258 4.92223,-13.44852 3.86848,-30.30992 15.18013,-40.53242 12.5038,-4.82572 26.05445,0.009 39,-1.8125 11.45794,0.34545 23.71947,-0.68312 34.6875,0.5 9.05105,15.04236 5.14041,35.8764 17.78125,48.90625 5.54861,-0.48994 6.03723,-7.64848 3.17157,-11.21399 -19.04656,-67.46842 -35.08726,-136.04332 -57.32782,-202.44226 -0.2635,-0.32858 -0.65353,-0.68199 -1.09375,-0.5625 z m 601.53125,0 c -7.205,1.31919 -5.86,10.56888 -5,15.96875 1.19306,65.80972 -2.54027,132.00094 2.03125,197.5625 4.2351,2.12288 9.42962,-2.30946 7.4865,-6.81234 0.90176,-57.41298 -1.12371,-114.89491 2.35725,-172.25016 32.77656,58.60768 57.47311,121.43982 90.78125,179.6875 5.56215,0.2887 7.07587,-6.55676 5.4902,-10.7187 -0.63911,-67.46053 2.36081,-135.10143 -1.52145,-202.43755 -3.7244,-2.732314 -9.68449,1.31151 -7.69923,5.78118 -0.86397,57.76766 0.70155,115.57364 -1.80077,173.31257 -33.49262,-58.35131 -58.2152,-121.50416 -91.09375,-180 -0.33227,-0.0747 -0.69132,-0.18158 -1.03125,-0.0937 z m -223.4375,0.0937 c -5.09876,0.98387 -5.60787,8.21264 -1.84338,11.14904 15.48976,32.0277 33.11372,63.06278 46.74963,95.94471 1.77409,35.50357 -3.49375,71.3277 2.5625,106.59375 4.21874,1.72722 9.03666,-3.25447 7,-7.40625 1.6336,-34.99136 -2.48961,-70.32859 2.40732,-105.09492 7.3816,-18.895 18.53606,-36.26961 27.01457,-54.58619 7.14757,-14.35482 15.53669,-29.04182 19.35936,-44.47514 -3.17484,-4.026954 -9.61043,-0.7594 -10.01643,3.79729 -14.05846,28.46381 -28.35763,56.80141 -42.60857,85.17146 C 630.95502,162.80565 621.80521,128.01149 601,100.1875 c -0.30187,0.0234 -0.61141,-0.0459 -0.90625,0.0625 z m 820.50005,-0.0312 c -5.0272,1.03724 -5.6096,7.95114 -1.9814,10.90524 15.1743,32.40366 34.1099,63.14772 46.5126,96.84476 2.8973,35.1673 -3.5103,70.95383 3.0625,105.75 3.5224,2.04203 8.3685,-2.15887 7.0937,-6.21875 0.9566,-34.14039 -2.0105,-68.41945 1.5626,-102.46875 2.8767,-12.62803 10.4886,-23.86452 16.1136,-35.50808 10.5767,-21.24992 22.8493,-41.95763 30.4801,-64.42942 2.6846,-5.458245 -7.0183,-5.886934 -8.5,-1.59375 -13.8402,29.49118 -29.1194,58.54599 -43.625,87.8125 -20.1308,-28.39268 -28.6197,-64.02766 -50.3437,-91.125 l -0.125,0 -0.25,0.0312 z m 326.4062,0 c -8.1119,1.96638 -6.9352,12.51095 -9,18.84375 -16.8273,64.50702 -37.5697,128.06129 -51.7188,193.21875 3.5218,3.9246 10.1394,0.37506 9.7811,-4.59537 5.017,-13.56041 3.8582,-30.53026 15.2815,-40.90463 12.5037,-4.82572 26.0544,0.009 39,-1.8125 11.5122,0.34171 23.8206,-0.678 34.8437,0.5 8.6716,15.24086 5.0102,35.76391 17.6563,48.8125 4.9274,-0.1423 6.5487,-7.05648 3.4374,-10.3125 -19.3002,-67.78263 -35.3079,-136.91647 -57.7812,-203.53125 -0.4553,-0.21347 -1.0005,-0.28947 -1.5,-0.21875 z M 25.59375,100.25 c -7.405543,1.69924 -5.606799,11.29542 -4.92235,16.90614 1.145437,65.46621 -2.535213,131.31341 2.0161,196.53136 4.214224,2.11676 9.426363,-2.28657 7.483977,-6.78113 0.554474,-32.75818 -0.02062,-65.52172 0.297273,-98.28137 24.770833,0 49.541667,0 74.3125,0 3.05645,35.00003 -3.81438,71.04608 3.25,105.40625 4.90729,1.42605 8.57165,-4.14281 6.65368,-8.375 -0.39785,-66.70997 1.94385,-133.50412 -1.09118,-200.15625 0.3235,-3.00933 -1.48514,-6.797331 -4.96875,-4.875 -5.39293,1.9875 -2.70295,8.37801 -3.3125,12.5 -0.6773,26.99543 0.92,54.11047 -0.59375,81.03125 -3.96794,7.72381 -13.9129,3.94324 -20.75,4.65625 -17.697917,0 -35.395833,0 -53.09375,0 -2.997795,-32.61765 3.815359,-66.27614 -3.375,-98.25 -0.585928,-0.27013 -1.258772,-0.40971 -1.90625,-0.3125 z m 1037.00005,0.96875 c -24.3054,2.70529 -49.4194,-3.04944 -73.25005,2.71875 -5.12205,8.74744 0.11287,19.24446 -1.49754,28.78106 0.50254,59.38275 -1.81213,118.89613 1.31004,178.18769 9.93371,5.67517 21.44335,-0.45802 32.09355,1.61375 15.3942,0.0233 32.3267,3.15114 46.594,-2.86375 1.1327,-4.87669 -4.589,-8.08954 -8.7476,-6.47625 -18.8813,-1.45645 -38.2875,2.41046 -56.8462,-1.4925 -8.29143,-6.37323 -3.61956,-18.07011 -4.71875,-26.90625 0,-21.63542 0,-43.27083 0,-64.90625 20.71515,-5.4697 43.31845,4.24462 63.24995,-4.5 1.1056,-4.86845 -4.6353,-8.14147 -8.776,-6.57026 -16.6597,-1.69792 -34.4675,3.8197 -50.3177,-2.80474 -8.20054,-8.49119 -2.7191,-21.36455 -4.18278,-31.81249 0.0502,-17.27079 0.0169,-34.54168 0.0265,-51.81251 23.09615,-4.43645 47.79365,3.76954 70.12495,-3.75 0.9008,-3.22228 -1.4123,-7.63888 -5.0624,-7.40625 z m 584.125,0.0937 c -24.2762,2.14047 -49.2063,-2.558724 -73.0938,2.25 -5.4622,7.34374 -0.4964,16.9012 -1.853,25.21863 0.6892,60.7052 -1.8625,121.46225 1.3842,182.12512 9.9892,5.84856 21.8227,-0.60603 32.6561,1.61415 15.2282,0.0521 31.7014,3.07065 45.9689,-2.80165 1.1631,-4.89538 -4.5573,-8.1677 -8.7475,-6.53875 -18.8813,-1.45645 -38.2875,2.41046 -56.8462,-1.4925 -8.2914,-6.37323 -3.6196,-18.07011 -4.7187,-26.90625 -1e-4,-21.63542 0,-43.27083 0,-64.90625 20.69,-5.3541 43.2445,4.09805 63.3437,-4.4375 0.9959,-5.08534 -4.8625,-8.34962 -9.1218,-6.6735 -16.6539,-1.6574 -34.672,4.05861 -50.3782,-3.014 -7.743,-8.66412 -2.4437,-21.20436 -3.8703,-31.56249 0.05,-17.27079 0.017,-34.54168 0.027,-51.81251 23.1249,-4.50936 47.8923,4.02457 70.1874,-3.9375 0.777,-3.12808 -1.3884,-7.36873 -4.9374,-7.125 z m -1274.00005,0.125 c -14.03764,0.40683 -28.22108,-0.29599 -42.1875,0.65625 -5.84505,4.06599 -1.963,12.21483 -2.89538,18.12497 0.7195,63.94292 -2.31656,128.0373 1.58288,191.87503 1.03885,4.46354 8.10335,1.3211 8.03125,-2.40625 0.0696,-29.27716 -0.37184,-58.75155 0,-88.09375 1.94557,-7.0833 10.79124,-6.74765 16.5615,-5.73494 19.72431,0.6984 43.32076,0.44672 56.59475,-16.51506 14.24164,-18.30308 14.46486,-43.97933 9,-65.59375 -6.50613,-19.25771 -26.21176,-33.5359 -46.6875,-32.3125 z m 141,0 c -14.03764,0.40683 -28.22108,-0.29599 -42.1875,0.65625 -5.84505,4.06599 -1.963,12.21483 -2.89538,18.12497 0.7195,63.94292 -2.31656,128.0373 1.58288,191.87503 1.03885,4.46354 8.10335,1.3211 8.03125,-2.40625 0.0696,-29.27716 -0.37184,-58.75155 0,-88.09375 1.94557,-7.0833 10.79124,-6.74765 16.5615,-5.73494 19.72431,0.6984 43.32076,0.44672 56.59475,-16.51506 14.24164,-18.30308 14.46486,-43.97933 9,-65.59375 -6.50613,-19.25771 -26.21176,-33.5359 -46.6875,-32.3125 z m 1375.00005,0 c -11.2835,1.61558 -23.4456,-2.201739 -34.1563,2.03125 -3.5784,5.05447 -0.2022,11.64833 -1.4246,17.34371 0.8174,61.06512 -1.8949,122.19093 1.0448,183.21305 1.1448,3.16503 -1.2791,11.39805 4.2548,10.09949 3.8713,-0.73175 5.2063,-5.00109 4.0548,-8.34347 0.8977,-28.53811 -0.5534,-57.25266 0.5389,-85.68778 3.202,-7.17153 12.3165,-3.81787 18.2188,-4.59375 9.605,-0.96343 22.9453,0.61865 25.4963,11.82431 11.8099,28.93376 18.8705,59.99411 35.0037,87.01944 4.3799,0.55422 7.6701,-5.64104 4.2812,-8.78125 -11.0642,-30.60998 -22.6452,-61.03004 -33.75,-91.625 24.6058,-5.11312 38.8686,-32.42746 35.375,-56.34375 3.0041,-24.44242 -13.5515,-52.0524 -39,-55 -6.581,-1.09962 -13.2792,-1.24457 -19.9374,-1.15625 z m -1550.37505,9.34375 c 18.79875,3.39841 40.42939,-5.01516 57.15625,7.09375 13.5408,9.20774 18.87868,26.50235 17.125,42.28125 1.11039,18.36328 -8.10651,39.83953 -27.625,44.03125 -13.07724,3.43096 -27.12212,2.63196 -40.21875,0.0625 -9.52492,-5.11142 -8.46151,-17.48484 -7.51773,-26.65592 0.316,-22.30129 -0.2618,-44.60454 -0.0135,-66.90658 l 0.99635,0.0854 0.0974,0.008 z m 141,0 c 18.79875,3.39841 40.42939,-5.01516 57.15625,7.09375 13.5408,9.20774 18.87868,26.50235 17.125,42.28125 1.11039,18.36328 -8.10651,39.83953 -27.625,44.03125 -13.07724,3.43096 -27.12212,2.63196 -40.21875,0.0625 -9.52492,-5.11142 -8.46151,-17.48484 -7.51773,-26.65592 0.316,-22.30129 -0.2618,-44.60454 -0.0135,-66.90658 l 0.99635,0.0854 0.0974,0.008 z m 1390.40625,0.125 c 17.3003,2.58118 37.4011,-4.49753 52.2188,7.625 13.3218,9.29723 17.6866,26.69931 16.2187,42.21875 1.0632,18.06444 -8.4221,39.29653 -27.4063,43.40625 -13.3543,3.39946 -27.8517,2.8198 -41.0937,-0.3125 -9.8385,-6.08673 -7.4789,-19.67053 -6.6875,-29.46875 0.6549,-20.23057 -2.3448,-41.0024 1.4375,-60.875 1.2708,-1.56583 3.2931,-2.5348 5.3125,-2.59375 z M 222.15625,130.5 c 13.19889,40.99592 23.5773,83.09344 35.1875,124.65625 -24.11458,0 -48.22917,0 -72.34375,0 11.89405,-42.59175 22.49138,-85.62938 36.1875,-127.65625 0.32292,1 0.64583,2 0.96875,3 z m 1525.53125,0 c 13.1385,41.01631 23.6407,83.0818 35.2187,124.65625 -24.1145,0 -48.2291,0 -72.3437,0 11.9371,-42.57727 22.4732,-85.62268 36.1563,-127.65625 0.3229,1 0.6458,2 0.9687,3 z M 60.375,510.0625 c -17.65732,-0.25006 -38.171239,9.55694 -42.03125,28.25 1.90466,4.6093 9.422649,2.6191 9.625,-2.09375 13.044044,-19.88921 46.617617,-22.20896 60.75,-2.28125 11.098095,13.62468 10.247795,34.66453 -0.205605,48.48393 -22.696833,45.41779 -49.656324,88.86798 -69.356895,135.67232 -1.571991,5.33788 6.315174,5.17308 9.6875,5.1875 24.915699,-2.86164 50.371201,3.03459 75.07032,-2.43393 5.59957,-0.274 1.18244,-9.14812 -3.07032,-7.84732 -20.129613,-0.84001 -40.780004,2.07809 -60.78125,-1.28125 -6.768781,-5.03489 -2.345693,-14.53309 1.59375,-19.9375 21.43572,-43.77318 49.788857,-84.53238 64.96875,-131.125 2.00279,-25.56658 -20.007077,-51.32785 -46.25,-50.59375 z m 148.59375,0 c -28.91124,-0.14575 -51.78247,30.5477 -45.8205,58.28098 1.18691,42.81025 -4.0537,86.20818 3.758,128.56277 11.83919,26.85462 51.61663,37.16952 73.46875,16.375 15.28599,-12.91896 19.80102,-34.53854 16.68542,-53.65597 -0.5626,-39.48151 2.81287,-79.32435 -2.56042,-118.53153 -6.91985,-18.36985 -25.70702,-31.58741 -45.53125,-31.03125 z m 1444.81245,0.0312 c -17.2221,0.24916 -36.6321,10.15647 -40.375,28.125 1.472,4.51577 8.8979,2.88917 9.4688,-1.5625 12.818,-20.97921 48.1548,-22.57431 61.7188,-1.5625 10.4393,13.77836 8.913,34.19868 -1.291,47.76943 -22.7346,45.21375 -49.3436,88.66645 -69.2716,135.26182 -1.2484,5.27531 6.295,5.07881 9.625,5.21875 25.7375,-3.26281 52.2753,3.65861 77.5938,-3.1875 1.6937,-4.93593 -4.2086,-8.83194 -8.56,-7.0075 -19.1726,-1.17463 -38.6627,2.00871 -57.6275,-1.43 -6.7688,-5.03489 -2.3457,-14.53309 1.5937,-19.9375 21.4358,-43.77318 49.7889,-84.53238 64.9688,-131.125 2.0996,-26.15115 -21.0944,-52.33746 -47.8438,-50.5625 z m 150.0313,0.0625 c -28.8645,-0.23228 -51.6223,30.59053 -45.6875,58.15625 1.2504,42.79019 -4.0404,86.16282 3.75,128.5 11.7103,26.46985 50.4077,37.02591 72.5625,17.3125 15.7023,-12.53708 20.9203,-34.75195 17.6083,-54.18736 -0.7511,-39.71176 3.1036,-79.78829 -2.702,-119.21889 -7.007,-18.17879 -25.8347,-31.39757 -45.5313,-30.5625 z m 156.6563,0.0625 c -16.2236,8.74823 -24.7589,26.59188 -39.8438,36.84375 -3.5806,3.23505 -9.745,9.50958 -5.5938,14.21875 5.8968,3.12495 10.3706,-3.59185 13.3219,-7.64807 4.4057,-5.76843 12.4343,-13.33275 20.1469,-8.91443 9.8354,7.48193 6.3413,21.50337 6.5992,32.15509 1.5855,48.95439 -2.8675,98.07748 2.307,146.90741 3.9494,2.08994 9.3675,-2.672 7.2188,-6.8125 -0.2837,-68.01941 1.9667,-136.14643 -1.0625,-204.09375 -0.3021,-1.34938 -1.5288,-3.01983 -3.0937,-2.65625 z m 137.0937,0.0625 c -27.5444,1.34315 -48.8393,30.69245 -43.2031,57.43738 1.0068,42.6087 -3.6307,85.70317 3.2344,127.93762 11.1336,27.26395 50.604,38.53691 73.125,18.5 15.0992,-12.04028 20.2135,-32.70242 17.9091,-51.43516 0.9745,-19.31425 0.1991,-42.34998 -15.3154,-55.81484 -15.9462,-14.5762 -41.0309,-15.44302 -59.3125,-5.15625 -8.5092,0.0375 -12.764,-10.59196 -9.6875,-17.65625 -1.3891,-18.57233 -2.7977,-40.83178 11.9375,-54.65625 17.5906,-16.27745 49.3189,-9.43169 59.9375,11.5625 4.8042,1.69152 8.9897,-5.3705 5.0625,-8.75 -8.3189,-15.23163 -26.8243,-22.68908 -43.6875,-21.96875 z m -1732.09375,0.0312 c -15.04429,7.20579 -22.13756,23.90109 -35.875,33.125 -4.87864,4.33561 -11.65047,9.53925 -10.78125,16.8125 4.14048,4.33601 10.3789,0.005 12.5625,-4.25 4.95968,-6.07847 12.13914,-15.1943 21.0625,-11.9375 10.01401,6.07411 8.11461,19.82479 7.62294,29.87444 1.68285,49.9203 -2.86411,100.01355 2.31456,149.81306 4.01048,2.16014 9.45064,-2.63513 7.25,-6.8125 -0.17388,-67.38897 1.77137,-134.84172 -0.9375,-202.1875 -0.25609,-1.71931 -0.71103,-4.99607 -3.21875,-4.4375 z m 137.28125,0 c -27.9743,1.14337 -49.39834,31.43315 -43.3905,58.34363 1.03395,42.2944 -3.66032,85.08351 3.23425,127.00012 11.13366,27.26395 50.60401,38.53691 73.125,18.5 15.09036,-12.04289 20.21827,-32.64624 17.89373,-51.4046 0.91239,-19.63822 0.34495,-43.06683 -16.17498,-56.4704 C 521.56542,592.20348 496.9491,591.63813 479,601.75 c -8.51856,0.0343 -12.72908,-10.57872 -9.71875,-17.65625 -1.41889,-18.73516 -2.72628,-41.47064 12.5,-55.125 17.71154,-15.73319 48.90856,-8.73889 59.28125,12.03125 4.78282,1.66976 9.19161,-5.16045 5.25,-8.625 -8.3583,-15.3674 -26.68764,-22.73224 -43.5625,-22.0625 z m -292.625,9.5625 c 24.58522,-0.44248 43.20643,26.5835 37.21875,49.6875 -1.49613,41.56579 4.13896,83.77502 -3.80017,124.85665 -11.12677,23.716 -50.0575,27.1867 -63.85608,4.3621 -12.3619,-19.21478 -5.16699,-43.01867 -6.6977,-64.37489 0.45109,-31.47658 -3.54376,-63.72062 4.03946,-94.57199 6.35022,-11.93772 19.52789,-19.96877 33.09574,-19.95937 z m 1595,0 c 24.5852,-0.44248 43.2064,26.5835 37.2188,49.6875 -1.3347,41.28749 3.7542,82.98392 -3.4063,123.9375 -10.5008,24.39426 -50.0331,28.42134 -64.1875,5.5 -12.4393,-19.40656 -5.2407,-43.35046 -6.75,-64.90625 0.2175,-30.96773 -3.0428,-62.53612 3.4281,-93.02874 6.0657,-12.65424 19.656,-21.16356 33.6969,-21.19001 z M 504.78125,604.21875 c 24.65715,-1.38365 44.66881,25.33843 38.625,48.71875 1.6044,18.41402 1.90145,40.88372 -13.625,53.625 -18.91804,16.19831 -54.36071,5.99765 -59.125,-19.1875 -3.62925,-18.25048 -2.09253,-37.18197 -0.4375,-55.53125 4.49068,-15.0128 18.53548,-27.22266 34.5625,-27.625 z m 1594.99995,0 c 24.619,-1.39593 44.7116,25.32486 38.625,48.75 1.608,18.40477 1.8916,40.86044 -13.625,53.59375 -18.918,16.19831 -54.3607,5.99765 -59.125,-19.1875 -3.6292,-18.25048 -2.0925,-37.18197 -0.4374,-55.53125 4.4906,-15.0128 18.5354,-27.22266 34.5624,-27.625 z"
       id="path6595"
       inkscape:connector-curvature="0" />
  </g>
</svg>
