<?xml version="1.0" encoding="UTF-8" standalone="no"?>
<!-- Created with Inkscape (http://www.inkscape.org/) -->

<svg
   xmlns:dc="http://purl.org/dc/elements/1.1/"
   xmlns:cc="http://creativecommons.org/ns#"
   xmlns:rdf="http://www.w3.org/1999/02/22-rdf-syntax-ns#"
   xmlns:svg="http://www.w3.org/2000/svg"
   xmlns="http://www.w3.org/2000/svg"
   xmlns:sodipodi="http://sodipodi.sourceforge.net/DTD/sodipodi-0.dtd"
   xmlns:inkscape="http://www.inkscape.org/namespaces/inkscape"
   width="3200"
   height="800"
   id="svg9228"
   version="1.1"
   inkscape:version="0.48.1 r9760"
   sodipodi:docname="HappyNY_A_2018.svg">
  <defs
     id="defs9230" />
  <sodipodi:namedview
     id="base"
     pagecolor="#ffffff"
     bordercolor="#666666"
     borderopacity="1.0"
     inkscape:pageopacity="0.0"
     inkscape:pageshadow="2"
     inkscape:zoom="0.3953125"
     inkscape:cx="1162.3715"
     inkscape:cy="400"
     inkscape:document-units="px"
     inkscape:current-layer="1-default"
     showgrid="false"
     inkscape:window-width="1676"
     inkscape:window-height="1006"
     inkscape:window-x="0"
     inkscape:window-y="0"
     inkscape:window-maximized="1" />
  <metadata
     id="metadata9233">
    <rdf:RDF>
      <cc:Work
         rdf:about="">
        <dc:format>image/svg+xml</dc:format>
        <dc:type
           rdf:resource="http://purl.org/dc/dcmitype/StillImage" />
        <dc:title />
      </cc:Work>
    </rdf:RDF>
  </metadata>
  <g
     inkscape:label="1-default"
     inkscape:groupmode="layer"
     id="1-default">
    <path
       style="font-size:352.15689087px;font-style:normal;font-variant:normal;font-weight:bold;font-stretch:normal;text-align:start;line-height:125%;letter-spacing:0px;word-spacing:0px;writing-mode:lr-tb;text-anchor:start;fill:none;stroke:#000000;stroke-width:4;stroke-miterlimit:4;stroke-opacity:1;stroke-dasharray:none;font-family:Miso;-inkscape-font-specification:Miso Bold"
       d="M 1110.3125 88 C 1109.1666 88.063278 1107.9698 88.254363 1106.7812 88.5625 C 1097.9773 91.027595 1092.0036 100.19608 1094.4688 109 L 1143.7812 313.25 C 1145.5421 321.3496 1152.2129 326.28125 1160.3125 326.28125 C 1168.4121 326.28125 1174.7704 321.3496 1176.5312 313.25 C 1180.0529 298.45943 1183.5638 283.30739 1187.4375 267.8125 C 1194.1285 241.04861 1202.2297 207.95012 1209.625 177.3125 C 1216.6681 207.95012 1224.7778 241.04861 1231.4688 267.8125 C 1235.3425 283.30739 1238.8534 298.45943 1242.375 313.25 C 1244.1358 321.3496 1250.8379 326.28125 1258.9375 326.28125 C 1267.0371 326.28125 1273.3642 321.3496 1275.125 313.25 L 1324.4375 109 C 1326.9026 100.19608 1321.602 91.027595 1312.0938 88.5625 C 1302.5856 86.097404 1294.1526 91.741777 1291.6875 101.25 C 1288.166 116.04058 1284.6237 131.16136 1280.75 146.65625 C 1274.059 173.42015 1265.9807 207.22295 1258.9375 237.15625 C 1251.5423 207.22295 1243.4409 173.42015 1236.75 146.65625 C 1232.8762 131.16136 1229.3341 116.04058 1225.8125 101.25 C 1224.0517 93.150403 1217.7246 88.21875 1209.625 88.21875 C 1201.5254 88.21875 1194.8233 93.150403 1193.0625 101.25 C 1189.5409 116.04058 1186.0301 131.16136 1182.1562 146.65625 C 1175.4653 173.42015 1167.3556 207.22295 1160.3125 237.15625 C 1152.9172 207.22295 1144.816 173.42015 1138.125 146.65625 C 1134.2513 131.16136 1130.7403 116.04058 1127.2188 101.25 C 1125.0618 92.930305 1118.3337 87.557055 1110.3125 88 z M 822.53125 88.15625 C 821.55594 88.205084 820.57495 88.342402 819.5625 88.5625 C 811.4629 90.323282 806.53125 97.025399 806.53125 105.125 L 806.53125 309.375 C 806.53125 318.88322 813.92927 326.28125 823.4375 326.28125 C 832.94572 326.28125 840.34375 318.88322 840.34375 309.375 L 840.34375 179.0625 C 854.78217 209.70012 871.68895 243.8611 884.71875 270.625 C 892.46619 286.47204 899.83187 301.60727 906.875 316.75 C 910.04441 323.79313 917.80665 327.66703 925.90625 325.90625 C 933.30154 324.14547 938.9375 317.4746 938.9375 309.375 L 938.9375 105.125 C 938.9375 95.616773 931.53947 88.21875 922.03125 88.21875 C 912.52302 88.21875 905.125 95.616773 905.125 105.125 L 905.125 235.40625 C 889.98227 204.76863 873.77979 170.60764 860.75 143.84375 C 853.00255 127.9967 845.60563 112.86148 838.5625 97.71875 C 835.17299 91.55601 829.35841 87.814412 822.53125 88.15625 z M 601.15625 88.1875 C 598.45962 88.080889 595.74987 88.648163 593.21875 89.96875 C 584.767 94.194629 581.24287 104.42324 585.46875 112.875 L 633 207.59375 L 633 309.375 C 633 318.88322 640.39803 326.28125 649.90625 326.28125 C 659.41448 326.28125 666.8125 318.88322 666.8125 309.375 L 666.8125 207.59375 L 714.34375 112.875 C 718.56963 104.42324 715.04551 94.194629 706.59375 89.96875 C 698.49415 85.742872 688.28838 89.266993 684.0625 97.71875 L 672.4375 120.96875 C 665.74653 134.70285 656.94938 151.59283 649.90625 166.03125 C 642.51097 151.59283 634.06598 134.70285 627.375 120.96875 L 615.75 97.71875 C 612.84471 91.908167 607.08884 88.422044 601.15625 88.1875 z M 1421.7188 88.1875 C 1419.0221 88.080889 1416.2811 88.648163 1413.75 89.96875 C 1405.2982 94.194629 1401.7742 104.42324 1406 112.875 L 1453.5625 207.59375 L 1453.5625 309.375 C 1453.5625 318.88322 1460.9604 326.28125 1470.4688 326.28125 C 1479.9769 326.28125 1487.3438 318.88322 1487.3438 309.375 L 1487.3438 207.59375 L 1534.9062 112.875 C 1539.1321 104.42324 1535.6081 94.194629 1527.1562 89.96875 C 1519.0566 85.742872 1508.8509 89.266993 1504.625 97.71875 L 1493 120.96875 C 1486.309 134.70285 1477.5118 151.59283 1470.4688 166.03125 C 1463.0735 151.59283 1454.5972 134.70285 1447.9062 120.96875 L 1436.2812 97.71875 C 1433.376 91.908167 1427.6513 88.422044 1421.7188 88.1875 z M 25.5625 88.21875 C 16.054274 88.21875 8.65625 95.616773 8.65625 105.125 L 8.65625 309.375 C 8.65625 318.88322 16.054274 326.28125 25.5625 326.28125 C 35.070727 326.28125 42.46875 318.88322 42.46875 309.375 L 42.46875 220.625 L 93.1875 220.625 L 93.1875 309.375 C 93.1875 318.88322 100.58552 326.28125 110.09375 326.28125 C 119.60198 326.28125 127 318.88322 127 309.375 L 127 105.125 C 127 95.616773 119.60198 88.21875 110.09375 88.21875 C 100.58552 88.21875 93.1875 95.616773 93.1875 105.125 L 93.1875 186.8125 L 42.46875 186.8125 L 42.46875 105.125 C 42.46875 95.616773 35.070727 88.21875 25.5625 88.21875 z M 221.1875 88.21875 C 213.0879 88.21875 206.72953 93.135962 204.96875 100.53125 L 148.625 304.78125 C 146.1599 314.28947 151.44609 323.09741 160.25 325.5625 C 169.75823 328.0276 178.56615 322.74141 181.03125 313.9375 C 182.08772 311.12024 182.78728 307.59247 183.84375 303.71875 C 185.60453 297.02777 188.08059 287.8856 191.25 276.96875 L 251.125 276.96875 C 253.94225 287.8856 256.73921 297.02777 258.5 303.71875 C 259.55647 307.59247 260.25603 311.12024 261.3125 313.9375 C 263.7776 322.74141 272.58552 328.0276 282.09375 325.5625 C 290.89766 323.09741 296.18384 314.28947 293.71875 304.78125 L 237.375 100.53125 C 235.61422 93.135962 229.2871 88.21875 221.1875 88.21875 z M 1746.7188 88.21875 C 1738.6191 88.21875 1732.2921 93.135962 1730.5312 100.53125 L 1674.1875 304.78125 C 1671.7224 314.28947 1677.0086 323.09741 1685.8125 325.5625 C 1695.3207 328.0276 1704.1286 322.74141 1706.5938 313.9375 C 1707.6501 311.12024 1708.3498 307.59247 1709.4062 303.71875 C 1711.1671 297.02777 1713.6431 287.8856 1716.8125 276.96875 L 1776.6562 276.96875 C 1779.4734 287.8856 1782.3017 297.02777 1784.0625 303.71875 C 1785.1189 307.59247 1785.8186 311.12024 1786.875 313.9375 C 1789.3401 322.74141 1798.1481 328.0276 1807.6562 325.5625 C 1816.4602 323.09741 1821.7464 314.28947 1819.2812 304.78125 L 1762.9375 100.53125 C 1761.1767 93.135962 1754.8183 88.21875 1746.7188 88.21875 z M 332.34375 89.625 C 322.83552 89.625 315.4375 97.02302 315.4375 106.53125 L 315.4375 309.375 C 315.4375 318.88322 322.83552 326.28125 332.34375 326.28125 C 341.85197 326.28125 349.25 318.88322 349.25 309.375 L 349.25 227.65625 L 374.59375 227.65625 C 407.34431 227.65625 433.75 201.25056 433.75 168.5 L 433.75 148.78125 C 433.75 116.0307 407.34431 89.625 374.59375 89.625 L 332.34375 89.625 z M 473.34375 89.625 C 463.83552 89.625 456.4375 97.02302 456.4375 106.53125 L 456.4375 309.375 C 456.4375 318.88322 463.83552 326.28125 473.34375 326.28125 C 482.85198 326.28125 490.25 318.88322 490.25 309.375 L 490.25 227.65625 L 515.59375 227.65625 C 548.34431 227.65625 574.75 201.25056 574.75 168.5 L 574.75 148.78125 C 574.75 116.0307 548.34431 89.625 515.59375 89.625 L 473.34375 89.625 z M 992.625 89.625 C 983.11678 89.625 975.71875 97.02302 975.71875 106.53125 L 975.71875 307.96875 C 975.71875 317.47698 983.11678 324.84375 992.625 324.84375 L 1063.0625 324.84375 C 1072.5708 324.84375 1079.9688 317.47698 1079.9688 307.96875 C 1079.9688 298.46052 1072.5708 291.0625 1063.0625 291.0625 L 1009.5312 291.0625 L 1009.5312 220.625 L 1056.0312 220.625 C 1065.5394 220.625 1072.9062 213.22698 1072.9062 203.71875 C 1072.9062 194.21052 1065.5394 186.8125 1056.0312 186.8125 L 1009.5312 186.8125 L 1009.5312 123.4375 L 1063.0625 123.4375 C 1072.5708 123.4375 1079.9688 116.03947 1079.9688 106.53125 C 1079.9688 97.02302 1072.5708 89.625 1063.0625 89.625 L 992.625 89.625 z M 1576.5625 89.625 C 1567.0543 89.625 1559.6875 97.02302 1559.6875 106.53125 L 1559.6875 307.96875 C 1559.6875 317.47698 1567.0543 324.84375 1576.5625 324.84375 L 1647 324.84375 C 1656.5082 324.84375 1663.9062 317.47698 1663.9062 307.96875 C 1663.9062 298.46052 1656.5082 291.0625 1647 291.0625 L 1593.4688 291.0625 L 1593.4688 220.625 L 1639.9688 220.625 C 1649.4769 220.625 1656.875 213.22698 1656.875 203.71875 C 1656.875 194.21052 1649.4769 186.8125 1639.9688 186.8125 L 1593.4688 186.8125 L 1593.4688 123.4375 L 1647 123.4375 C 1656.5082 123.4375 1663.9062 116.03947 1663.9062 106.53125 C 1663.9062 97.02302 1656.5082 89.625 1647 89.625 L 1576.5625 89.625 z M 1857.875 89.625 C 1848.3668 89.625 1841 97.02302 1841 106.53125 L 1841 309.375 C 1841 318.88322 1848.3668 326.28125 1857.875 326.28125 C 1867.3832 326.28125 1874.7812 318.88322 1874.7812 309.375 L 1874.7812 227.65625 L 1893.8125 227.65625 L 1926.5625 315.34375 C 1930.4362 324.14767 1939.6024 328.38816 1948.4062 325.21875 C 1957.2102 322.04934 1962.1237 312.17891 1958.25 303.375 L 1927.625 220.96875 C 1946.9936 211.10836 1959.3125 191.39017 1959.3125 168.5 L 1959.3125 148.78125 C 1959.3125 116.0307 1932.9068 89.625 1900.1562 89.625 L 1857.875 89.625 z M 349.25 123.4375 L 374.59375 123.4375 C 388.68001 123.4375 399.9375 134.69499 399.9375 148.78125 L 399.9375 168.5 C 399.9375 182.58626 388.68001 193.84375 374.59375 193.84375 L 349.25 193.84375 L 349.25 123.4375 z M 490.25 123.4375 L 515.59375 123.4375 C 529.68001 123.4375 540.9375 134.69499 540.9375 148.78125 L 540.9375 168.5 C 540.9375 182.58626 529.68001 193.84375 515.59375 193.84375 L 490.25 193.84375 L 490.25 123.4375 z M 1874.7812 123.4375 L 1900.1562 123.4375 C 1914.2425 123.4375 1925.5 134.69499 1925.5 148.78125 L 1925.5 168.5 C 1925.5 182.58626 1914.2425 193.84375 1900.1562 193.84375 L 1874.7812 193.84375 L 1874.7812 123.4375 z M 221.1875 168.84375 C 227.87847 191.73392 234.90277 218.85745 241.59375 243.15625 L 200.75 243.15625 C 207.44097 218.85745 214.49652 191.73392 221.1875 168.84375 z M 1746.7188 168.84375 C 1753.4098 191.73392 1760.4654 218.85745 1767.1562 243.15625 L 1726.3125 243.15625 C 1733.0035 218.85745 1740.0279 191.73392 1746.7188 168.84375 z M 364.0625 497.9375 C 360.10761 498.04067 356.39521 499.82353 353.09375 503.125 L 310.84375 545.40625 C 307.67434 548.57566 305.90625 552.79696 305.90625 557.375 C 305.90625 561.95303 307.67434 566.17434 310.84375 569.34375 C 314.01316 572.51316 318.23447 574.28125 322.8125 574.28125 C 327.39054 574.28125 331.61184 572.51316 334.78125 569.34375 C 336.54203 567.93512 337.93512 566.54203 339.34375 564.78125 C 341.80884 562.31616 344.98684 558.786 348.15625 555.96875 L 348.15625 719.375 C 348.15625 728.88322 355.55427 736.28125 365.0625 736.28125 C 374.57073 736.28125 381.96875 728.88322 381.96875 719.375 L 381.96875 515.125 C 381.96875 508.43403 378.09723 502.09009 371.40625 499.625 C 368.89714 498.43647 366.43543 497.8756 364.0625 497.9375 z M 1959.0625 497.9375 C 1955.1076 498.04067 1951.3952 499.82353 1948.0938 503.125 L 1905.8438 545.40625 C 1902.6744 548.57566 1900.9062 552.79696 1900.9062 557.375 C 1900.9062 561.95303 1902.6744 566.17434 1905.8438 569.34375 C 1909.0131 572.51316 1913.2345 574.28125 1917.8125 574.28125 C 1922.3906 574.28125 1926.6119 572.51316 1929.7812 569.34375 C 1931.542 567.93512 1932.9352 566.54203 1934.3438 564.78125 C 1936.8088 562.31616 1939.9868 558.786 1943.1562 555.96875 L 1943.1562 719.375 C 1943.1562 728.88322 1950.5542 736.28125 1960.0625 736.28125 C 1969.5707 736.28125 1976.9688 728.88322 1976.9688 719.375 L 1976.9688 515.125 C 1976.9688 508.43403 1973.0972 502.09009 1966.4062 499.625 C 1963.8971 498.43647 1961.4354 497.8756 1959.0625 497.9375 z M 57.78125 498.1875 C 53.044842 498.30228 48.263353 498.99191 43.53125 500.3125 C 27.684206 504.89053 16.06835 514.04714 7.96875 527.78125 C 3.390715 535.88085 6.2128995 545.7489 14.3125 551.03125 C 22.4121 555.60929 32.609465 552.7871 37.1875 544.6875 C 41.061222 538.70084 46.004932 534.82328 52.34375 533.0625 C 59.034724 531.30172 65.732089 532.01809 71.71875 535.1875 C 77.705411 538.35691 81.574561 543.27778 83.6875 549.96875 C 85.448283 556.65973 85.075659 563.00493 81.90625 569.34375 L 7.625 710.21875 C 5.1599042 716.20541 5.1430911 721.46765 8.3125 726.75 C 11.834065 732.03235 16.763339 734.84375 22.75 734.84375 L 101.625 734.84375 C 111.13322 734.84375 118.53125 727.47698 118.53125 717.96875 C 118.53125 708.46052 111.13322 701.0625 101.625 701.0625 L 50.5625 701.0625 C 59.014257 684.15898 74.876458 655.28437 87.90625 630.28125 C 95.653694 615.84283 103.74415 600.6908 111.84375 584.84375 C 118.88688 571.10965 120.28838 555.61148 116.0625 540.46875 C 111.48446 524.6217 101.99251 512.98904 87.90625 505.59375 C 78.464053 500.5095 68.201348 497.93499 57.78125 498.1875 z M 1652.7812 498.1875 C 1648.0448 498.30228 1643.2634 498.99191 1638.5312 500.3125 C 1622.6843 504.89053 1611.0683 514.04714 1602.9688 527.78125 C 1598.3907 535.88085 1601.2129 545.7489 1609.3125 551.03125 C 1617.4121 555.60929 1627.6095 552.7871 1632.1875 544.6875 C 1636.0612 538.70084 1641.005 534.82328 1647.3438 533.0625 C 1654.0348 531.30172 1660.7321 532.01809 1666.7188 535.1875 C 1672.7053 538.35691 1676.5746 543.27778 1678.6875 549.96875 C 1680.4483 556.65973 1680.0756 563.00493 1676.9062 569.34375 L 1602.625 710.21875 C 1600.1599 716.20541 1600.1431 721.46765 1603.3125 726.75 C 1606.8341 732.03235 1611.7633 734.84375 1617.75 734.84375 L 1696.625 734.84375 C 1706.1332 734.84375 1713.5312 727.47698 1713.5312 717.96875 C 1713.5312 708.46052 1706.1332 701.0625 1696.625 701.0625 L 1645.5625 701.0625 C 1654.0142 684.15898 1669.8764 655.28437 1682.9062 630.28125 C 1690.6536 615.84283 1698.7441 600.6908 1706.8438 584.84375 C 1713.8869 571.10965 1715.2884 555.61148 1711.0625 540.46875 C 1706.4845 524.6217 1696.9926 512.98904 1682.9062 505.59375 C 1673.4641 500.5095 1663.2014 497.93499 1652.7812 498.1875 z M 210.09375 498.21875 C 177.3432 498.21875 150.9375 524.62444 150.9375 557.375 L 150.9375 677.09375 C 150.9375 709.84431 177.3432 736.28125 210.09375 736.28125 C 242.49216 736.28125 269.28125 709.84431 269.28125 677.09375 L 269.28125 557.375 C 269.28125 524.62444 242.49216 498.21875 210.09375 498.21875 z M 503.125 498.21875 C 470.7266 498.21875 443.9375 524.62444 443.9375 557.375 L 443.9375 571.46875 C 443.9375 588.02011 450.98939 602.8019 461.90625 613.71875 C 450.98939 624.6356 443.9375 639.41739 443.9375 655.96875 L 443.9375 677.09375 C 443.9375 709.84431 470.7266 736.28125 503.125 736.28125 C 535.87556 736.28125 562.28125 709.84431 562.28125 677.09375 L 562.28125 655.96875 C 562.28125 639.41739 555.5731 624.6356 544.65625 613.71875 C 555.5731 602.8019 562.28125 588.02011 562.28125 571.46875 L 562.28125 557.375 C 562.28125 524.62444 535.87556 498.21875 503.125 498.21875 z M 1805.0938 498.21875 C 1772.3432 498.21875 1745.9375 524.62444 1745.9375 557.375 L 1745.9375 677.09375 C 1745.9375 709.84431 1772.3432 736.28125 1805.0938 736.28125 C 1837.4922 736.28125 1864.2813 709.84431 1864.2812 677.09375 L 1864.2812 557.375 C 1864.2812 524.62444 1837.4921 498.21875 1805.0938 498.21875 z M 2098.125 498.21875 C 2065.7266 498.21875 2038.9375 524.62444 2038.9375 557.375 L 2038.9375 571.46875 C 2038.9375 588.02011 2045.9895 602.8019 2056.9062 613.71875 C 2045.9895 624.6356 2038.9375 639.41739 2038.9375 655.96875 L 2038.9375 677.09375 C 2038.9375 709.84431 2065.7266 736.28125 2098.125 736.28125 C 2130.8755 736.28125 2157.2812 709.84431 2157.2812 677.09375 L 2157.2812 655.96875 C 2157.2812 639.41739 2150.573 624.6356 2139.6562 613.71875 C 2150.573 602.8019 2157.2813 588.02011 2157.2812 571.46875 L 2157.2812 557.375 C 2157.2812 524.62444 2130.8755 498.21875 2098.125 498.21875 z M 210.09375 532.03125 C 223.82786 532.03125 235.46875 543.28873 235.46875 557.375 L 235.46875 677.09375 C 235.46875 691.18001 223.82786 702.46875 210.09375 702.46875 C 196.00749 702.46875 184.75 691.18001 184.75 677.09375 L 184.75 557.375 C 184.75 543.28873 196.00749 532.03125 210.09375 532.03125 z M 503.125 532.03125 C 517.21126 532.03125 528.46875 543.28873 528.46875 557.375 L 528.46875 571.46875 C 528.46875 585.55501 517.21126 596.8125 503.125 596.8125 C 489.3909 596.8125 477.75 585.55501 477.75 571.46875 L 477.75 557.375 C 477.75 543.28873 489.3909 532.03125 503.125 532.03125 z M 1805.0938 532.03125 C 1818.8278 532.03125 1830.4687 543.28873 1830.4688 557.375 L 1830.4688 677.09375 C 1830.4688 691.18001 1818.8278 702.46875 1805.0938 702.46875 C 1791.0076 702.46875 1779.75 691.18001 1779.75 677.09375 L 1779.75 557.375 C 1779.75 543.28873 1791.0076 532.03125 1805.0938 532.03125 z M 2098.125 532.03125 C 2112.2112 532.03125 2123.4687 543.28873 2123.4688 557.375 L 2123.4688 571.46875 C 2123.4688 585.55501 2112.2112 596.8125 2098.125 596.8125 C 2084.3909 596.8125 2072.75 585.55501 2072.75 571.46875 L 2072.75 557.375 C 2072.75 543.28873 2084.3909 532.03125 2098.125 532.03125 z M 503.125 630.625 C 517.21126 630.625 528.46875 641.88248 528.46875 655.96875 L 528.46875 677.09375 C 528.46875 691.18001 517.21126 702.46875 503.125 702.46875 C 489.3909 702.46875 477.75 691.18001 477.75 677.09375 L 477.75 655.96875 C 477.75 641.88248 489.3909 630.625 503.125 630.625 z M 2098.125 630.625 C 2112.2112 630.625 2123.4688 641.88248 2123.4688 655.96875 L 2123.4688 677.09375 C 2123.4688 691.18001 2112.2112 702.46875 2098.125 702.46875 C 2084.3909 702.46875 2072.75 691.18001 2072.75 677.09375 L 2072.75 655.96875 C 2072.75 641.88248 2084.3909 630.625 2098.125 630.625 z "
       id="path5211" />
    <path
       style="font-size:352.15689087px;font-style:normal;font-variant:normal;font-weight:bold;font-stretch:normal;text-align:start;line-height:125%;letter-spacing:0px;word-spacing:0px;writing-mode:lr-tb;text-anchor:start;fill:none;stroke:#000000;stroke-width:4;stroke-miterlimit:4;stroke-opacity:1;stroke-dasharray:none;font-family:Miso;-inkscape-font-specification:Miso Bold"
       d="m 1110.5625,92 c -9.8266,-0.01527 -15.8934,12.79215 -11,20.84375 16.6769,68.03452 32.0948,136.45512 49.9375,204.15625 5.5667,8.8204 22.8563,5.94335 23.0625,-5.375 11.9453,-46.06375 21.8447,-92.94904 34.8125,-138.5625 4.3828,-3.03874 7.3744,3.47801 7.0625,7.125 10.94,45.82706 21.4588,91.94655 33.9375,137.28125 6.1645,8.54124 22.9525,4.91723 23.0166,-6.44065 16.6071,-69.19918 34.2934,-138.19659 49.6709,-207.6531 -0.5627,-11.173545 -19.076,-16.092829 -23.6875,-4.96875 -5.6226,12.39865 -6.0211,26.57637 -10.4379,39.45058 -9.3547,38.24319 -18.4361,76.55317 -27.9059,114.76817 -14.0178,-51.61815 -24.7617,-104.13625 -39.2187,-155.59375 -6.3793,-9.0801 -23.697,-4.241734 -23.2999,7.47141 -12.1243,49.35247 -23.8849,98.79375 -36.1064,148.12234 C 1146.2698,201.03874 1135.8994,148.37508 1121,97.0625 1118.5744,93.83968 1114.6647,91.6276 1110.5625,92 z m -412.03125,0.125 c -10.93628,1.142397 -14.18086,14.42473 -18.40625,22.8125 -10.22795,19.8734 -20.10622,39.92453 -30.125,59.90625 -14.63491,-26.18814 -25.55287,-54.45874 -41.40625,-79.90625 -8.2571,-7.298171 -23.41525,1.273579 -20.65625,12.34375 2.2376,9.74975 9.19424,17.30222 12.56009,26.65386 12.18726,24.53336 25.03592,48.81289 36.50241,73.65864 0.79409,35.93076 -1.62182,72.08337 1.25,107.875 4.62033,9.92104 23.00394,8.53495 23.90625,-3.25 2.10718,-12.96342 -0.47164,-26.14562 0.6875,-39.1875 0.0611,-22.38783 -0.392,-44.84083 0.34375,-67.1875 16.11801,-33.2581 34.14276,-65.69909 49,-99.5 0.61785,-7.418869 -6.15142,-14.582683 -13.65625,-14.21875 z m 820.56255,0 c -10.9363,1.142397 -14.1809,14.42473 -18.4063,22.8125 -10.2568,19.84325 -20.0585,39.91706 -30.0937,59.875 -14.7205,-26.14133 -25.6443,-54.56095 -41.5,-79.90625 -8.177,-7.221239 -23.3587,1.24927 -20.6563,12.3125 2.1647,9.64719 9.2066,17.39923 12.5602,26.68507 12.2452,24.5254 25.0781,48.83262 36.5648,73.68993 0.7917,35.9513 -1.6186,72.12664 1.25,107.9375 4.7097,9.86867 23.0154,8.38696 23.9063,-3.3125 1.9629,-13.64585 -0.4211,-27.47485 0.6562,-41.1875 0.055,-21.72061 -0.3849,-43.508 0.3438,-65.1875 16.1306,-33.25718 34.1827,-65.68265 49.0312,-99.5 0.6178,-7.418869 -6.1514,-14.582683 -13.6562,-14.21875 z m -696.31255,0.03125 c -9.67783,-0.222311 -14.57586,11.75968 -12.25,19.96875 0.44982,67.42956 -0.986,134.92495 0.8125,202.3125 3.75607,10.75723 23.02874,10.17895 24.34375,-1.9375 2.1243,-12.6473 -0.51875,-25.67839 0.71044,-38.4687 0.0905,-36.53074 -0.65452,-73.07751 0.69581,-109.5938 26.36281,51.27774 49.77382,104.20471 76.6875,155.09375 7.72451,6.91507 22.84798,-0.0307 20.90166,-10.93714 0.42738,-50.87026 0.0848,-101.75003 0.33719,-152.62534 -0.33424,-18.92753 0.36987,-38.11619 -1.2701,-56.87502 -4.66273,-9.859416 -22.83797,-8.709339 -23.96875,2.96875 -2.11635,13.02368 0.51231,26.26555 -0.68365,39.37494 -0.0998,36.2915 0.42917,72.59044 -0.50385,108.87506 C 882.08405,199.80262 859.04172,147.42934 833,96.6875 830.48871,93.810254 826.73732,91.806723 822.78125,92.15625 z M 24.90625,92.25 c -9.63273,-0.04568 -14.476885,11.64498 -12.25,19.90625 0.449785,67.41915 -0.985905,134.90411 0.8125,202.28125 3.756069,10.75723 23.028741,10.17895 24.34375,-1.9375 2.111819,-12.63633 -0.478654,-25.65449 0.65625,-38.4375 0,-19.14583 0,-38.29167 0,-57.4375 19.572917,0 39.145833,0 58.71875,0 0.804139,32.92012 -1.629882,66.0663 1.25,98.84375 4.62033,9.92104 23.00394,8.53495 23.90625,-3.25 2.10842,-12.96387 -0.46014,-26.14509 0.62784,-39.18742 -0.44114,-57.79607 1.15447,-115.72676 -0.94034,-173.43758 -4.22806,-10.352375 -23.042779,-9.436821 -24.1875,2.46875 -2.116228,13.02328 0.502665,26.26768 -0.65625,39.375 0,16.45833 0,32.91667 0,49.375 -19.5625,0 -39.125,0 -58.6875,0 C 37.608734,160.33427 40.109348,129.59341 37.1875,99.28125 34.943447,94.841225 29.957061,91.813501 24.90625,92.25 z m 195.625,0 c -9.71263,-0.171286 -13.38302,11.06122 -14.35381,18.96559 -17.75569,66.66384 -37.75944,132.78724 -54.23994,199.75316 0.80432,11.25761 18.98192,15.86973 23.6875,4.84375 5.27931,-10.31988 5.65846,-22.36015 9.80618,-33.16468 0.43973,-4.65815 3.24586,-11.66578 9.16257,-9.67907 19.83333,0 39.66667,0 59.5,0 5.80427,15.27388 6.08442,32.85066 15.28125,46.59375 7.84321,6.53785 23.12817,-0.30203 20.625,-11.25 -2.27275,-14.3441 -8.09167,-27.88005 -11.15022,-42.0809 C 262.92963,209.76483 248.6382,152.68353 231.25,96.71875 228.697,93.603087 224.54851,91.949674 220.53125,92.25 z M 1746,92.25 c -10.0869,-0.12333 -13.3853,11.92246 -14.5113,19.93401 -17.7191,66.32805 -37.5723,132.14725 -53.9887,198.78474 0.8043,11.25761 18.9819,15.86973 23.6875,4.84375 5.2793,-10.31988 5.6585,-22.36015 9.8062,-33.16468 0.4397,-4.65815 3.2458,-11.66578 9.1625,-9.67907 19.8334,0 39.6667,0 59.5,0 5.6379,15.25506 6.2018,32.78179 15.25,46.53125 7.9841,6.74837 23.3498,-0.46285 20.6563,-11.4375 -2.0022,-13.30659 -7.6453,-25.80524 -10.3491,-39.02397 C 1788.991,211.6147 1774.4965,153.54033 1756.7188,96.65625 1754.1546,93.526766 1749.981,91.948334 1746,92.25 z m 151.2812,1.15625 c -15.2085,1.437832 -31.0026,-1.861743 -45.8437,1.75 -10.0991,6.62336 -5.6742,20.34145 -6.3968,30.40615 0.4,63.09811 -1.1486,126.33019 0.9281,189.34385 4.1364,10.32438 22.9995,9.46362 24.1562,-2.46875 2.1162,-13.02328 -0.5027,-26.26768 0.6562,-39.375 0,-16.51042 0,-33.02083 0,-49.53125 8.6768,1.38861 18.6839,-2.26642 26.5313,2.0625 12.2467,30.83271 22.0006,62.84518 35.9063,92.90625 7.2249,8.1682 24.576,1.57987 22,-10.0625 -2.6332,-12.75691 -9.5301,-24.16591 -13.0255,-36.72032 -6.4983,-17.59185 -13.0568,-35.16157 -19.5683,-52.74843 22.7737,-9.15873 35.2803,-34.79885 32.8616,-58.65301 1.946,-22.33703 -5.9739,-47.10071 -26.2678,-58.44074 -9.5732,-5.786906 -20.743,-8.706324 -31.9376,-8.46875 z M 341.40625,93.4375 c -7.41405,0.410011 -17.93326,-0.822936 -20.78125,8 -3.23758,10.39911 -0.14433,21.65508 -1.11485,32.40624 0.26766,60.3377 -1.1076,120.80923 0.8961,181.06251 4.22806,10.35238 23.04278,9.43682 24.1875,-2.46875 2.11623,-13.02328 -0.50267,-26.26768 0.65625,-39.375 0,-16.45833 0,-32.91667 0,-49.375 21.47123,-0.18697 46.13881,3.07605 63.6875,-11.8125 16.59423,-12.80796 22.83689,-35.01736 21.125,-55.375 1.5129,-23.19639 -9.68359,-48.25979 -31.96875,-57.59375 -11.93722,-6.033503 -25.54484,-5.827509 -38.625,-5.125 -6.02105,-0.07183 -12.04086,-0.425636 -18.0625,-0.34375 z m 141,0 c -7.41405,0.410011 -17.93326,-0.822936 -20.78125,8 -3.23758,10.39911 -0.14433,21.65508 -1.11485,32.40624 0.26766,60.3377 -1.1076,120.80923 0.8961,181.06251 4.22806,10.35238 23.04278,9.43682 24.1875,-2.46875 2.11623,-13.02328 -0.50267,-26.26768 0.65625,-39.375 0,-16.45833 0,-32.91667 0,-49.375 21.47123,-0.18697 46.13881,3.07605 63.6875,-11.8125 16.59423,-12.80796 22.83689,-35.01736 21.125,-55.375 1.5129,-23.19639 -9.68359,-48.25979 -31.96875,-57.59375 -11.93722,-6.033503 -25.54484,-5.827509 -38.625,-5.125 -6.02105,-0.07183 -12.04086,-0.425636 -18.0625,-0.34375 z m 575.28125,0 c -23.5665,1.371283 -47.4058,-1.613404 -70.8125,1.375 -9.68843,5.115424 -7.2509,17.74913 -7.13074,26.74993 0.48605,63.82704 -1.15269,127.79034 0.91199,191.53132 4.08687,9.18073 15.6796,8.52793 24.06205,7.62685 21.7031,-0.63843 43.8138,2.06532 65.2505,-1.56435 9.1405,-5.21802 7.3042,-22.56961 -4.0626,-23.4375 -12.9545,-2.1053 -26.1201,0.46312 -39.1562,-0.65625 -7.0729,0 -14.1458,0 -21.2188,0 0,-26.10417 0,-52.20833 0,-78.3125 19.3401,-1.67266 39.5194,2.76455 58.3126,-2.40625 8.6169,-6.2456 5.4289,-23.15327 -6.2188,-23.15625 -13.6841,-1.27817 -27.504,0.46358 -41.1562,-0.53125 -3.6638,0.6667 -11.7156,1.76621 -11.0313,-4.25 0.2196,-22.26781 0.031,-44.58735 0.094,-66.875 21.6146,-1.49729 43.7328,2.55575 65,-2.15625 9.0158,-5.88358 5.9769,-22.949377 -5.4687,-23.5 -2.43,-0.451433 -4.9091,-0.527807 -7.375,-0.4375 z m 583.9375,0 c -23.4105,1.194241 -47.0047,-1.297809 -70.3125,1.15625 -9.4282,4.341533 -8.1515,16.3986 -7.6047,24.9687 0.5032,64.51569 -1.1548,129.15827 0.9172,193.5938 4.3299,9.4479 16.3914,8.31007 25.0311,7.54758 21.3715,-0.57164 43.146,2.0417 64.2501,-1.54758 9.1406,-5.21802 7.3043,-22.56961 -4.0624,-23.4375 -12.9546,-2.1053 -26.1202,0.46312 -39.1563,-0.65625 -7.0729,0 -14.1458,0 -21.2187,0 -1e-4,-26.10417 0,-52.20833 0,-78.3125 19.3543,-1.68458 39.5392,2.78673 58.3437,-2.4375 8.6845,-6.08717 5.3577,-23.25354 -6.25,-23.125 -13.6841,-1.27817 -27.504,0.46358 -41.1563,-0.53125 -3.6637,0.6667 -11.7155,1.76621 -11.0312,-4.25 0.2196,-22.26781 0.031,-44.58735 0.094,-66.875 21.6145,-1.49729 43.7327,2.55575 65,-2.15625 9.0157,-5.88358 5.9768,-22.949377 -5.4688,-23.5 -2.43,-0.451433 -4.9091,-0.527807 -7.375,-0.4375 z m -1268.96875,25.625 c 14.89525,-0.31802 29.99925,10.87365 31,26.25 0.97676,10.76087 1.03259,21.92064 -1.09375,32.5 -4.41161,13.89103 -19.63727,22.12714 -33.875,20.125 -7.01588,-0.64889 -14.8442,1.18908 -21.40625,-1.15625 -4.92766,-4.8223 -0.68566,-12.22701 -2.03125,-18.1875 0,-19.75 0,-39.5 0,-59.25 9.12914,0.66345 18.27686,-0.003 27.40625,-0.28125 z m 141,0 c 14.89525,-0.31802 29.99925,10.87365 31,26.25 0.97676,10.76087 1.03259,21.92064 -1.09375,32.5 -4.41161,13.89103 -19.63727,22.12714 -33.875,20.125 -7.01588,-0.64889 -14.8442,1.18908 -21.40625,-1.15625 -4.92766,-4.8223 -0.68566,-12.22701 -2.03125,-18.1875 0,-19.75 0,-39.5 0,-59.25 9.12914,0.66345 18.27686,-0.003 27.40625,-0.28125 z m 1384.53125,0 c 15.3431,-0.40604 30.567,11.46338 31.1563,27.25 0.7425,10.45633 0.9312,21.32126 -1.25,31.5625 -4.4232,13.8736 -19.6365,22.05289 -33.8438,20.0625 -7.0312,-0.67211 -14.9112,1.23341 -21.4688,-1.1875 -4.9548,-5.13735 -0.564,-12.88502 -2,-19.15625 1e-4,-19.41667 0,-38.83333 0,-58.25 9.1292,0.66345 18.2769,-0.003 27.4063,-0.28125 z M 222.15625,157.84375 c 8.81644,29.60561 16.44898,59.54352 24.6875,89.3125 -17.11458,0 -34.22917,0 -51.34375,0 8.54663,-30.8473 16.43729,-61.88117 25.6875,-92.53125 0.32292,1.07292 0.64583,2.14583 0.96875,3.21875 z m 1525.53125,0 c 8.8239,29.60733 16.4743,59.54186 24.7187,89.3125 -17.1145,0 -34.2291,0 -51.3437,0 8.5704,-30.83774 16.4104,-61.88333 25.6563,-92.53125 0.3229,1.07292 0.6458,2.14583 0.9687,3.21875 z M 363.59375,502.0625 c -11.9245,3.58307 -17.4706,15.86888 -26.75,23.3125 -9.20625,9.80365 -21.40558,17.66149 -27.03125,30.25 -1.57218,10.32079 12.16715,19.54992 20.46875,12.09375 8.08422,-5.54163 12.71347,-15.19093 21.875,-19.625 0.61497,58.92073 -1.22065,117.97791 0.96875,176.8125 4.21197,10.28902 22.87564,9.51728 24.1875,-2.40625 2.08999,-12.40019 -0.45376,-25.01937 0.628,-37.49992 -0.30613,-58.07428 0.87861,-116.2238 -0.6905,-174.25008 -1.94635,-5.47679 -7.9059,-9.05354 -13.65625,-8.6875 z m 1595.00005,0 c -11.9245,3.58307 -17.4706,15.86888 -26.75,23.3125 -9.2063,9.80365 -21.4056,17.66149 -27.0313,30.25 -1.5722,10.32079 12.1672,19.54992 20.4687,12.09375 8.0843,-5.54163 12.7135,-15.19093 21.875,-19.625 0.615,58.92073 -1.2206,117.97791 0.9688,176.8125 4.212,10.28902 22.8756,9.51728 24.1875,-2.40625 2.09,-12.40019 -0.4538,-25.01937 0.628,-37.49992 -0.3061,-58.07428 0.8786,-116.2238 -0.6905,-174.25008 -1.9463,-5.47679 -7.9059,-9.05354 -13.6562,-8.6875 z M 57.21875,502.21875 c -20.587598,0.91154 -42.297164,13.46915 -47.53125,34.375 -0.2184796,10.81685 16.494216,17.87005 22.56875,7.7 6.227321,-9.42887 16.273557,-17.36776 28.15,-16.29375 17.464097,0.46904 32.918577,18.38849 27.4375,35.78125 C 83.72064,579.31033 73.0283,591.95883 66.836582,606.64148 47.792666,643.38978 27.027476,679.40499 9.8125,717 c -0.7021026,9.24848 9.391674,16.13845 17.906079,13.82523 26.765996,-0.80062 53.846849,1.79001 80.406421,-1.45023 9.5557,-4.91628 7.90571,-22.81358 -3.65625,-23.65625 -12.954539,-2.1053 -26.120176,0.46312 -39.15625,-0.65625 -7.083333,0 -14.166667,0 -21.25,0 22.000849,-44.63658 48.20566,-87.28027 68.46875,-132.78125 8.3996,-28.16261 -9.60416,-62.04975 -38.9375,-68.15625 -5.31185,-1.47087 -10.866895,-2.09134 -16.375,-1.90625 z m 149.5,0 c -29.86923,1.07817 -55.31506,30.37184 -51.59775,60.21874 0.092,42.07554 -1.26263,84.25756 0.91426,126.26275 5.7936,30.0709 39.82597,51.04665 69.18349,41.58101 24.76601,-7.06336 42.99611,-32.80056 39.91893,-58.68746 0.08,-40.52523 0.59407,-81.09256 -0.35643,-121.59379 -3.23157,-27.93741 -30.02121,-49.8671 -58.0625,-47.78125 z m 1445.50005,0 c -20.5876,0.91154 -42.2972,13.46915 -47.5313,34.375 -0.2185,10.81685 16.4942,17.87005 22.5687,7.7 6.2274,-9.42887 16.2736,-17.36776 28.15,-16.29375 17.4641,0.46904 32.9186,18.38849 27.4376,35.78125 -4.1232,15.52908 -14.8155,28.17758 -21.0072,42.86023 -19.0439,36.7483 -39.8091,72.76351 -57.0241,110.35852 -0.7021,9.24848 9.3917,16.13845 17.9061,13.82523 26.766,-0.80062 53.8468,1.79001 80.4064,-1.45023 9.5557,-4.91628 7.9057,-22.81358 -3.6562,-23.65625 -12.9546,-2.1053 -26.1202,0.46312 -39.1563,-0.65625 -7.0833,0 -14.1667,0 -21.25,0 22.003,-44.63601 48.2189,-87.27259 68.4687,-132.78125 8.3996,-28.16261 -9.6041,-62.04975 -38.9374,-68.15625 -5.3119,-1.47087 -10.8669,-2.09134 -16.375,-1.90625 z m 149.5,0 c -29.8693,1.07817 -55.3151,30.37184 -51.5978,60.21874 0.092,42.07554 -1.2626,84.25756 0.9143,126.26275 5.7936,30.0709 39.8259,51.04665 69.1835,41.58101 24.766,-7.06336 42.9961,-32.80056 39.9189,-58.68746 0.08,-40.52523 0.594,-81.09256 -0.3565,-121.59379 -3.2315,-27.93741 -30.0212,-49.8671 -58.0624,-47.78125 z M 501.75,502.25 c -30.68219,-0.17259 -56.68546,29.41914 -54.05547,59.65471 -1.1424,18.17058 4.27456,37.52259 17.83672,50.06404 2.05057,5.54567 -5.65675,7.75424 -7.34051,12.11953 -12.15608,17.1873 -11.58454,39.44686 -9.87824,59.53672 2.81254,22.30907 19.33574,42.34278 41.8125,47.03125 22.77994,5.66478 48.91607,-4.31181 60.3125,-25.1875 10.1149,-16.90149 8.85673,-37.44098 7.3125,-56.375 -1.52637,-12.6828 -7.60714,-24.87102 -16.78125,-33.625 -1.45806,-6.2105 6.45149,-8.31119 8.28125,-13.5 10.9788,-17.50745 11.20419,-39.96117 7.03125,-59.625 C 549.63218,518.86533 526.53541,500.76899 501.75,502.25 z m 1595,0 c -30.6822,-0.17259 -56.6855,29.41914 -54.0555,59.65471 -1.1424,18.17058 4.2746,37.52259 17.8367,50.06404 2.0506,5.54567 -5.6567,7.75424 -7.3405,12.11953 -12.156,17.1873 -11.5845,39.44686 -9.8782,59.53672 2.8125,22.30907 19.3357,42.34278 41.8125,47.03125 22.7799,5.66478 48.9161,-4.31181 60.3125,-25.1875 10.1149,-16.90149 8.8567,-37.44098 7.3125,-56.375 -1.5264,-12.6828 -7.6071,-24.87102 -16.7812,-33.625 -1.4581,-6.2105 6.4514,-8.31119 8.2812,-13.5 10.9788,-17.50745 11.2042,-39.96117 7.0312,-59.625 -6.649,-23.47842 -29.7458,-41.57476 -54.5312,-40.09375 z M 210.59375,527.9375 c 18.35644,-0.0787 32.45746,19.24024 28.86234,36.81242 -0.68816,40.3569 1.48868,80.87024 -1.20609,121.12508 -5.38346,19.5939 -33.74222,27.79355 -48.09375,12.9375 -10.24405,-9.30743 -10.47876,-24.21598 -9.33976,-37.06234 0.40296,-37.52736 -1.30357,-75.18279 1.02726,-112.62516 3.49164,-12.35882 15.8078,-21.52367 28.75,-21.1875 z m 292.1875,0 c 18.40558,-0.78363 32.68426,18.13264 30,35.6875 1.54734,14.84801 -5.60591,32.2335 -21.125,36.09375 -17.38132,5.33984 -38.29079,-8.37006 -37.73924,-27.2092 -1.61951,-14.10011 -0.28432,-31.24188 12.80174,-39.4158 4.64104,-3.13095 10.30548,-5.07751 16.0625,-5.15625 z m 1302.81255,0 c 18.3564,-0.0787 32.4574,19.24024 28.8623,36.81242 -0.6882,40.3569 1.4887,80.87024 -1.2061,121.12508 -5.3835,19.5939 -33.7422,27.79355 -48.0938,12.9375 -10.244,-9.30743 -10.4787,-24.21598 -9.3397,-37.06234 0.403,-37.52736 -1.3036,-75.18279 1.0273,-112.62516 3.4916,-12.35882 15.8078,-21.52367 28.75,-21.1875 z m 292.1874,0 c 18.4056,-0.78363 32.6843,18.13264 30,35.6875 1.5474,14.84801 -5.6059,32.2335 -21.125,36.09375 -17.3813,5.33984 -38.2907,-8.37006 -37.7392,-27.2092 -1.6195,-14.10011 -0.2843,-31.24188 12.8018,-39.4158 4.641,-3.13095 10.3054,-5.07751 16.0624,-5.15625 z M 502.71875,626.53125 c 18.4667,-0.86644 33.23481,18.45538 29.78616,36.15398 1.15616,13.83482 0.008,30.986 -12.94241,39.00227 -16.02251,11.32724 -42.65583,1.20956 -45.0625,-18.84375 -1.86171,-12.04761 -1.19049,-24.58589 0.84375,-36.5 3.97508,-11.29962 15.26535,-19.667 27.375,-19.8125 z m 1595.00005,0 c 18.4666,-0.86644 33.2348,18.45538 29.7861,36.15398 1.1562,13.83482 0.01,30.986 -12.9424,39.00227 -16.0225,11.32724 -42.6558,1.20956 -45.0625,-18.84375 -1.8617,-12.04761 -1.1905,-24.58589 0.8438,-36.5 3.975,-11.29962 15.2653,-19.667 27.375,-19.8125 z"
       id="path5274"
       inkscape:connector-curvature="0" />
    <path
       style="font-size:352.15689087px;font-style:normal;font-variant:normal;font-weight:bold;font-stretch:normal;text-align:start;line-height:125%;letter-spacing:0px;word-spacing:0px;writing-mode:lr-tb;text-anchor:start;fill:none;stroke:#000000;stroke-width:4;stroke-miterlimit:4;stroke-opacity:1;stroke-dasharray:none;font-family:Miso;-inkscape-font-specification:Miso Bold"
       d="m 1110.7812,96 c -7.7831,0.163758 -11.427,10.94993 -7.0937,16.8125 16.8519,67.73062 31.3941,136.23278 50.25,203.34375 5.1218,4.82559 15.7705,0.84033 15,-6.5 12.4883,-46.4024 21.1723,-93.99436 35.875,-139.6875 6.3817,-5.07304 14.9731,3.07602 13.6875,10.0625 11.3325,45.55213 20.457,91.97849 34.625,136.625 6.062,4.46102 15.8225,-0.88663 14.8543,-8.44211 16.0424,-68.88412 34.9101,-137.16103 48.7395,-206.52664 -2.5608,-7.275773 -16.0316,-7.518221 -16.6993,1.11236 -7.6727,26.6954 -12.9095,54.03664 -20.0405,80.88798 -6.8528,28.28715 -13.7949,56.55255 -20.7602,84.81216 -16.2967,-56.34439 -26.7869,-114.38417 -43.8438,-170.40625 -5.4169,-4.606263 -15.8701,-0.0053 -15,7.40625 -13.2524,54.28066 -26.259,108.62156 -39.75,162.84375 -16.6642,-56.27498 -26.3713,-114.49536 -44.2188,-170.375 -1.5312,-1.398763 -3.5487,-2.161902 -5.625,-1.96875 z M 823,96.15625 c -7.98599,0.353794 -10.57123,10.55986 -8.46875,16.96875 0.82228,67.23689 -1.80661,134.67236 1.46875,201.78125 4.62139,6.33879 17.7444,2.6936 16.00369,-5.93689 0.99916,-53.27206 -0.88717,-106.59736 1.68381,-159.84436 29.53715,55.3207 53.83702,113.54935 84.15625,168.375 6.46238,3.41773 15.61892,-3.89131 12.84375,-10.90625 -0.28842,-68.6469 1.63049,-137.45561 -0.96875,-206 -3.30923,-7.505189 -17.81685,-4.322198 -16.25,4.34375 -0.88537,53.56618 0.52698,107.16212 -1.28125,160.71875 C 882.21184,210.84509 858.10823,152.9097 828.5625,98 827.04956,96.681333 825.01981,95.968601 823,96.15625 z M 600.71875,96.1875 c -7.25495,0.0048 -12.14251,9.68927 -6.9702,15.14992 15.60052,32.11417 32.91435,63.44348 47.25145,96.13133 1.55415,36.07454 -3.13997,72.77809 2.4375,108.4375 5.15973,5.24798 16.99308,0.72945 15.0625,-7.25 1.02632,-33.13362 -0.7181,-66.3331 0.84375,-99.4375 0.80721,-11.29529 8.66065,-20.46487 12.9254,-30.6514 12.39425,-24.63002 25.99819,-48.91231 35.85585,-74.62985 -0.9567,-7.568578 -12.19481,-10.709878 -16,-3.5 -6.79574,9.089 -9.29746,20.75276 -15.54996,30.33067 -8.8609,17.45115 -17.51844,35.01478 -26.29379,52.51308 -17.3588,-27.82692 -27.13099,-59.91623 -46.375,-86.59375 -1.01222,-0.390353 -2.08104,-0.608652 -3.1875,-0.5 z m 820.37505,0 c -7.1234,0.264558 -11.9517,9.38617 -6.9649,14.86607 15.2467,31.87287 32.8823,62.7403 46.6523,95.22768 2.5077,12.09666 0.2032,24.6285 0.9063,36.90625 -0.1876,24.20772 -1.8448,48.96942 2.375,72.78125 5.1718,5.18474 16.9169,0.54427 14.9375,-7.3125 1.1684,-34.13561 -0.9275,-68.39949 1.0938,-102.46875 2.9173,-11.69847 10.5703,-21.55904 15.2446,-32.57534 11.6086,-22.95617 24.2308,-45.61229 33.3491,-69.67466 -0.9396,-7.615325 -12.2219,-10.684681 -16.0313,-3.46875 -6.8461,9.52666 -9.6491,21.29157 -15.9529,31.20045 -8.7011,17.14756 -17.1878,34.40271 -25.8283,51.5808 -17.4794,-27.77038 -27.1773,-60.15174 -46.5625,-86.59375 -1.0426,-0.400042 -2.0693,-0.587514 -3.2187,-0.46875 z M 25.15625,96.25 c -8.459543,0.614309 -10.4076,11.18867 -8.490099,17.9062 0.790828,66.89328 -1.802886,133.98484 1.458849,200.75005 4.620938,6.33878 17.745368,2.69363 16.002977,-5.93691 0.683244,-32.10882 -0.0068,-64.2301 0.340773,-96.34434 22.1875,0 44.375,0 66.5625,0 2.06949,34.38182 -3.296257,69.40653 2.6875,103.375 5.22881,5.12378 16.87804,0.56245 14.96875,-7.34375 0.54516,-43.86063 -0.2056,-87.7299 0.50781,-131.59373 -0.0552,-25.9675 0.25318,-52.28383 -2.13281,-78.00002 -4.96976,-5.727096 -17.27121,-1.755551 -15.53331,6.56194 -0.75605,26.4921 0.0911,53.10058 -0.37294,79.53181 1.06863,3.71829 0.71787,11.10224 -4.96875,9.65625 -20.520833,0 -41.041667,0 -61.5625,0 C 32.793843,162.97504 37.42292,130.72035 32.25,99.15625 30.488187,97.272006 27.856818,95.950822 25.15625,96.25 z m 195.59375,0 c -9.05437,0.752143 -10.0366,11.93844 -11.44982,18.87077 -17.13667,65.93524 -38.24118,131.1152 -52.95643,197.50423 2.52262,7.05972 15.47282,7.39012 16.6875,-0.65625 6.2011,-13.2969 4.40762,-30.12116 14.3125,-41.5 7.90561,-4.13437 17.06887,-0.007 25.4375,-1.5 14.66667,0 29.33333,0 44,0 7.69433,15.58333 5.24282,35.96491 17.6875,48.96875 6.62717,2.23513 14.86005,-5.53389 10.9375,-12.03125 -17.14489,-62.03387 -33.37527,-124.32881 -51.38522,-186.11642 -2.70915,-7.34341 -4.24543,-15.92126 -8.27103,-22.50858 -1.5042,-0.833201 -3.28129,-1.138477 -5,-1.03125 z m 1525.4688,0 c -8.9185,0.82914 -10.0676,11.95695 -11.3512,18.87257 -17.2153,65.92989 -38.1541,131.06152 -52.9926,197.50243 2.5483,7.01222 15.4891,7.42121 16.7188,-0.65625 6.201,-13.2969 4.4076,-30.12116 14.3124,-41.5 7.9057,-4.13437 17.0689,-0.007 25.4376,-1.5 14.6874,0 29.375,0 44.0624,0 7.3559,15.57502 5.3853,35.68428 17.4063,48.8125 6.6601,2.62792 15.255,-5.44485 11.1875,-12.03125 -18.0303,-64.092 -34.2352,-128.82127 -53.5625,-192.46875 -2.3254,-5.1108 -2.571,-12.09382 -6.2813,-16.09375 -1.5399,-0.746111 -3.2109,-1.058867 -4.9374,-0.9375 z m -683.6876,1.125 c -23.6829,1.414098 -47.6794,-1.205472 -71.2812,1.0625 -8.82898,1.165736 -8.32348,12.23883 -7.8125,18.9375 1.29562,17.03495 -0.0205,34.16083 0.39799,51.24999 -0.12144,48.03218 -1.10689,96.16628 1.25826,144.12501 7.22734,7.96381 19.22415,2.86485 28.49985,3.79432 18.747,-0.40279 38.4042,3.14134 56.4689,-2.60682 4.5972,-5.44776 -0.074,-16.40298 -7.75,-14.59375 -18.2919,-0.89371 -36.931,0.20226 -55.0313,0 -5.1247,-0.54315 -6.7394,-5.97749 -5.75,-10.40625 0,-25.26042 10e-5,-50.52083 0,-75.78125 20.4265,-3.54312 42.4069,4.3231 61.875,-4.03125 4.2654,-5.85867 -1.485,-16.38973 -9.0312,-14.125 -16.1415,-1.39212 -32.6929,1.67778 -48.625,-0.875 -7.50832,-4.5974 -3.3924,-14.73621 -4.2436,-21.93749 0.048,-18.78121 0.015,-37.56251 0.025,-56.34376 22.6636,-2.81796 46.1765,3.47263 68.3126,-3.125 4.9064,-5.41091 0.261,-16.206965 -7.3126,-15.34375 z m 802.875,0 c -5.9345,0.251001 -15.9292,0.237856 -16.125,8.40625 -1.195,20.69309 0.6197,41.43467 -0.1179,62.15621 -0.043,49.03394 -1.5388,98.31637 1.4929,147.18754 4.8029,6.11535 17.532,2.28446 15.7834,-6.24944 0.8204,-26.34695 -0.2056,-52.80327 0.4354,-79.09431 -0.2317,-3.15788 -1.9471,-10.39491 3.1562,-10.375 10.1237,1.86407 22.8679,-3.45866 31.0313,4.6875 12.9795,30.91148 20.8677,64.21413 37.3437,93.40625 6.5295,3.49056 16.5393,-4.49059 12.0626,-11.4375 -10.7585,-29.89748 -22.078,-59.5887 -32.9688,-89.4375 24.0868,-7.39307 37.0508,-34.40251 34.1455,-58.62155 2.2619,-24.10743 -10.8443,-50.75487 -35.208,-57.75345 -16.4301,-5.077692 -34.1025,-1.417959 -51.0313,-2.875 z M 334.21875,97.40625 c -5.82282,-0.131571 -11.88531,4.39984 -10.59375,10.71875 -0.71604,22.24022 0.54199,44.49847 -0.0625,66.75 0.008,46.74436 -1.49561,93.73411 1.59375,140.3125 4.88371,6.04104 17.49417,2.20152 15.75206,-6.31194 0.75605,-26.4921 -0.0911,-53.10058 0.37294,-79.53181 -1.08291,-3.73648 -0.6996,-11.12138 5,-9.65625 21.48441,0.22293 46.44068,2.72147 63.21875,-13.40625 16.98669,-16.00376 18.87028,-42.10161 16,-64.1875 -3.38082,-22.76838 -22.5576,-43.310573 -46.28125,-44.125 -14.96695,-1.427162 -30.01587,0.518922 -45,-0.5625 z m 141,0 c -5.82282,-0.131571 -11.88531,4.39984 -10.59375,10.71875 -0.71604,22.24022 0.54199,44.49847 -0.0625,66.75 0.008,46.74436 -1.49561,93.73411 1.59375,140.3125 4.88371,6.04104 17.49417,2.20152 15.75206,-6.31194 0.75605,-26.4921 -0.0911,-53.10058 0.37294,-79.53181 -1.08291,-3.73648 -0.6996,-11.12138 5,-9.65625 21.48441,0.22293 46.44068,2.72147 63.21875,-13.40625 16.98669,-16.00376 18.87028,-42.10161 16,-64.1875 -3.38082,-22.76838 -22.5576,-43.310573 -46.28125,-44.125 -14.96695,-1.427162 -30.01587,0.518922 -45,-0.5625 z m 1172.12505,0.0625 c -23.9972,0.978174 -48.2496,-0.984312 -72.125,0.84375 -8.7776,1.345817 -8.3452,12.24054 -7.8126,19.03125 1.3233,18.04282 -0.03,36.18629 0.3898,54.28123 -0.1513,47.02202 -1.0506,94.14446 1.2665,141.09377 7.4691,8.17459 19.6512,2.81149 29.1875,3.8125 18.5031,-0.32894 37.9256,3.08692 55.75,-2.59375 4.5972,-5.44776 -0.074,-16.40298 -7.75,-14.59375 -18.2919,-0.89371 -36.931,0.20226 -55.0312,0 -5.1248,-0.54315 -6.7395,-5.97749 -5.75,-10.40625 -1e-4,-25.26042 0,-50.52083 0,-75.78125 20.4516,-3.50599 42.3648,4.25032 61.9374,-4 4.3397,-6.2568 -1.6995,-16.40774 -9.3729,-14.21995 -15.9674,-1.14922 -32.2115,1.48122 -48.0333,-0.65505 -7.6304,-4.10676 -3.9151,-14.14016 -4.5582,-21.09375 0.051,-19.11454 0.017,-38.22917 0.027,-57.34375 22.6948,-2.95047 46.5489,3.764 68.5312,-3.375 4.2555,-5.08733 0.4771,-15.303317 -6.6562,-15 z m 222.625,17.4375 c 15.7811,3.00561 33.897,-4.46754 48,5.75 11.0904,7.23162 17.6193,20.76998 15.8124,34.03125 1.226,15.14479 -1.267,33.80365 -15.6562,42 -12.7599,7.99009 -28.7343,5.07288 -43,5.03125 -7.1186,-1.45411 -10.2024,-9.39406 -8.5089,-16.02763 0.9716,-22.85164 -0.6067,-45.90146 0.3839,-68.65987 0.4364,-1.25905 1.6283,-2.13191 2.9688,-2.125 z M 373.5,115.03125 c 20.07974,-0.57133 37.59192,19.07664 34.65625,39 1.4165,15.59055 -1.11434,34.67533 -16.0625,42.90625 -12.0914,7.46501 -26.96339,4.86772 -40.40625,5 -6.68583,-0.20518 -11.867,-6.2407 -10.67585,-12.93731 0.84889,-24.62588 -0.095,-49.28323 0.23835,-73.93769 10.72617,1.0769 21.50817,0.29329 32.25,-0.0312 z m 141,0 c 20.07974,-0.57133 37.59192,19.07664 34.65625,39 1.4165,15.59055 -1.11434,34.67533 -16.0625,42.90625 -12.0914,7.46501 -26.96339,4.86772 -40.40625,5 -6.68583,-0.20518 -11.867,-6.2407 -10.67585,-12.93731 0.84889,-24.62588 -0.095,-49.28323 0.23835,-73.93769 10.72617,1.0769 21.50817,0.29329 32.25,-0.0312 z m -292.34375,28.9375 c 10.98116,35.44409 19.98325,71.45278 29.9375,107.1875 -20.61458,0 -41.22917,0 -61.84375,0 10.25096,-36.78882 19.49817,-73.86237 30.9375,-110.3125 0.32292,1.04167 0.64583,2.08333 0.96875,3.125 z m 1525.53125,0 c 10.9597,35.45272 20.0258,71.44689 29.9687,107.1875 -20.6145,0 -41.2291,0 -61.8437,0 10.2477,-36.78427 19.5008,-73.85729 30.9063,-110.3125 0.3229,1.04167 0.6458,2.08333 0.9687,3.125 z M 207.75,506.09375 c -29.74632,0.61647 -53.88138,31.1743 -48.61713,60.34372 0.5667,42.27983 -2.52682,84.81873 2.17963,126.90628 9.09106,29.53902 49.13658,45.69679 75.4375,27.46875 18.22272,-11.15618 27.82829,-34.04461 24.36687,-55.21873 C 260.6881,624.97256 263.0695,584.18899 259.5,543.6875 253.51811,521.42534 230.96518,504.83112 207.75,506.09375 z m 1595,0 c -29.7463,0.61647 -53.8814,31.1743 -48.6171,60.34372 0.5667,42.27983 -2.5269,84.81873 2.1796,126.90628 9.0911,29.53902 49.1366,45.69679 75.4375,27.46875 18.2809,-11.2151 27.8147,-34.05489 24.3669,-55.21873 -0.4288,-40.62121 1.9526,-81.40478 -1.6169,-121.90627 -5.9819,-22.26216 -28.5348,-38.85638 -51.75,-37.59375 z m -1302.46875,0 c -29.39168,1.15494 -52.85589,31.22744 -48.75794,59.96798 -0.56487,16.88112 6.65253,33.33475 18.07044,45.53202 1.7289,9.11541 -9.67942,12.62259 -11.53125,20.625 -9.49007,20.50599 -8.41464,44.89904 -1.625,66.0625 10.56882,24.31898 41.52014,37.09976 66.03125,26.34375 19.19599,-7.50618 32.2048,-27.44779 31.90792,-47.96251 1.65953,-19.83661 -0.26782,-41.97035 -14.68359,-57.06498 -4.38607,-4.06404 -2.78982,-10.36199 1.18192,-14.00376 8.29877,-6.84682 10.49683,-17.76268 12.88362,-27.73058 3.89218,-21.98771 -1.37776,-48.30164 -20.41487,-61.73817 -9.42257,-7.11874 -21.23401,-10.77335 -33.0625,-10.03125 z m 1594.99995,0 c -29.3903,1.15641 -52.8602,31.22583 -48.7579,59.96798 -0.5649,16.88112 6.6525,33.33475 18.0705,45.53202 1.7288,9.11541 -9.6795,12.62259 -11.5313,20.625 -9.4901,20.50599 -8.4146,44.89904 -1.625,66.0625 10.5688,24.31898 41.5201,37.09976 66.0313,26.34375 19.1959,-7.50618 32.2048,-27.44779 31.9079,-47.96251 1.6595,-19.83661 -0.2679,-41.97035 -14.6836,-57.06498 -4.3861,-4.06404 -2.7898,-10.36199 1.1819,-14.00376 8.2988,-6.84682 10.4968,-17.76268 12.8836,-27.73058 3.8922,-21.98771 -1.3777,-48.30164 -20.4148,-61.73817 -9.4226,-7.11874 -21.2341,-10.77335 -33.0626,-10.03125 z M 364.28125,506.125 c -14.16216,6.41836 -21.12201,21.61543 -33.30031,30.64376 -6.85901,6.40256 -16.28151,12.79341 -16.91844,22.94999 2.04084,7.0568 12.8686,8.85028 16.625,2.53125 7.81558,-7.48565 14.32524,-17.32587 25.375,-20.125 1.23778,60.91186 -1.94299,121.95574 1.625,182.78125 4.66122,6.5172 17.98173,2.45053 15.96145,-6.24971 0.49906,-46.18405 -0.05,-92.37539 0.5073,-138.56279 -0.13929,-23.31416 0.0615,-46.82504 -1.71875,-70 -1.95806,-2.51864 -4.93964,-4.16818 -8.15625,-3.96875 z m 1595.03125,0 c -13.6176,5.85283 -20.3583,20.69153 -31.9786,29.40366 -7.1619,6.86813 -17.4662,13.40844 -18.2714,24.19009 2.0408,7.0568 12.8686,8.85028 16.625,2.53125 7.8156,-7.48565 14.3252,-17.32587 25.375,-20.125 1.2378,60.91186 -1.943,121.95574 1.625,182.78125 4.6545,6.5264 17.985,2.44126 15.9597,-6.24975 0.356,-50.71626 0.2169,-101.4375 0.4652,-152.15647 -0.2034,-18.78679 -0.1411,-37.75397 -1.6749,-56.40628 -1.9517,-2.50918 -4.92,-4.1599 -8.125,-3.96875 z M 57.40625,506.21875 C 38.342611,506.91407 16.804298,518.96784 14,539 c 2.175807,7.02381 14.233546,8.56678 16.34375,0.8125 10.117104,-15.88831 34.492849,-21.58344 49.4375,-8.96875 13.181989,9.84472 17.392881,30.17743 8.050077,44.15123 -12.15537,24.01058 -25.196101,47.56771 -37.566905,71.46671 -12.823778,24.01947 -26.647465,47.93195 -36.233172,73.35081 2.14479,7.88377 11.973294,8.36833 18.561022,6.82938 25.203182,-0.94809 51.192026,3.23992 75.845228,-2.51688 4.9701,-5.40567 0.10508,-16.67242 -7.5625,-14.75 -18.497267,-0.96862 -37.206658,0.23 -55.59375,-0.125 -4.0938,-0.18275 -6.667079,-5.00876 -3.678642,-8.32535 C 63.717809,655.68987 91.5411,613.06 109.9375,566.0625 115.52245,537.18912 91.511132,505.85065 61.625,506.25 c -1.404924,-0.0673 -2.813162,-0.0991 -4.21875,-0.0312 z m 1594.99995,0 C 1633.3426,506.91407 1611.8043,518.96784 1609,539 c 2.1758,7.02381 14.2335,8.56678 16.3438,0.8125 10.1171,-15.88831 34.4928,-21.58344 49.4374,-8.96875 13.182,9.84472 17.3929,30.17743 8.0501,44.15123 -12.1553,24.01058 -25.1961,47.56771 -37.5669,71.46671 -12.8238,24.01947 -26.6474,47.93195 -36.2332,73.35081 2.1448,7.88377 11.9733,8.36833 18.5611,6.82938 25.2032,-0.94809 51.192,3.23992 75.8452,-2.51688 4.9701,-5.40567 0.1051,-16.67242 -7.5625,-14.75 -18.4973,-0.96862 -37.2067,0.23 -55.5938,-0.125 -4.0937,-0.18275 -6.667,-5.00876 -3.6786,-8.32535 22.1359,-45.25929 49.955,-87.8534 68.3349,-134.86215 5.5849,-28.87338 -18.4264,-60.21185 -48.3125,-59.8125 -1.4049,-0.0673 -2.8132,-0.0991 -4.2188,-0.0312 z M 210.125,523.875 c 22.43439,-0.41165 38.56368,24.28923 33.23334,45.18736 -1.11695,40.60672 3.06505,81.60017 -2.64097,121.92661 -8.96317,21.75344 -43.95261,26.72495 -57.12362,6.41728 -11.62609,-16.27849 -5.5825,-37.39135 -6.625,-55.96875 0.17991,-32.25736 -2.30117,-64.75058 2.21875,-96.8125 5.02449,-12.17983 17.69613,-20.77453 30.9375,-20.75 z m 292.6875,0 c 21.86176,-0.7241 37.80057,22.53492 34.25,43.03125 1.42262,19.4539 -14.84895,40.06014 -35.34375,38 -18.83859,-0.80786 -34.45741,-19.02188 -32.40625,-37.78125 -1.73148,-17.11082 6.53683,-37.51799 24.65625,-41.8125 2.86516,-0.86235 5.83932,-1.35565 8.84375,-1.4375 z m 1302.3125,0 c 22.4344,-0.41165 38.5637,24.28923 33.2333,45.18736 -1.1169,40.60672 3.0651,81.60017 -2.6409,121.92661 -8.9447,21.76191 -43.982,26.71663 -57.1236,6.41728 -11.6261,-16.27849 -5.5825,-37.39135 -6.625,-55.96875 0.1799,-32.25736 -2.3012,-64.75058 2.2187,-96.8125 5.0245,-12.17983 17.6961,-20.77453 30.9375,-20.75 z m 292.6875,0 c 21.8618,-0.7241 37.8006,22.53492 34.25,43.03125 1.4226,19.4539 -14.8489,40.06014 -35.3437,38 -18.8386,-0.80786 -34.4575,-19.02188 -32.4063,-37.78125 -1.7315,-17.11082 6.5368,-37.51799 24.6563,-41.8125 2.8651,-0.86235 5.8393,-1.35565 8.8437,-1.4375 z M 502.59375,622.46875 c 21.00098,-0.82906 37.9018,21.05184 34.03125,41.28125 2.1734,16.78131 -3.15756,37.70834 -20.375,44.375 -20.71175,9.14407 -48.45582,-8.32201 -46.39287,-31.65504 -1.03245,-16.14765 -1.53983,-36.09348 12.83037,-46.75121 5.63739,-4.39815 12.69385,-7.07743 19.90625,-7.25 z m 1595.00005,0 c 21.0009,-0.82906 37.9017,21.05184 34.0312,41.28125 2.1734,16.78131 -3.1576,37.70834 -20.375,44.375 -20.7118,9.14407 -48.4558,-8.32201 -46.3929,-31.65504 -1.0324,-16.14765 -1.5398,-36.09348 12.8304,-46.75121 5.6374,-4.39815 12.6938,-7.07743 19.9063,-7.25 z"
       id="path5284"
       inkscape:connector-curvature="0" />
    <path
       style="font-size:352.15689087px;font-style:normal;font-variant:normal;font-weight:bold;font-stretch:normal;text-align:start;line-height:125%;letter-spacing:0px;word-spacing:0px;writing-mode:lr-tb;text-anchor:start;fill:none;stroke:#000000;stroke-width:4;stroke-miterlimit:4;stroke-opacity:1;stroke-dasharray:none;font-family:Miso;-inkscape-font-specification:Miso Bold"
       d="m 1111.1875,100 c -5.9188,0.56362 -6.6743,8.97135 -3.375,12.78125 16.8806,67.03422 30.4963,134.98397 50.1875,201.25 4.8836,1.60196 8.5338,-3.94913 7.8262,-8.2771 12.8478,-46.12417 20.0913,-94.0211 36.58,-138.9729 8.5621,-6.88997 21.9564,2.96884 20.2188,13.15625 11.2578,44.75897 19.5459,90.58592 34.4375,134.21875 5.9185,1.07045 8.309,-6.04832 7.9131,-10.69298 15.5006,-67.27211 34.6258,-133.73124 47.2432,-201.65077 -2.9324,-3.448291 -9.865,-0.74361 -8.8438,3.96875 -14.6373,56.23913 -27.151,113.06738 -41.8438,169.25 -3.1561,3.76624 -6.5174,-2.02224 -6.25,-5.09375 -16.0989,-56.11059 -26.0198,-113.92202 -43.9062,-169.5 -5.7086,-1.440485 -8.4601,5.37004 -8.1107,9.94059 -13.9992,57.72104 -27.9171,115.46252 -42.2955,173.09066 -19.5025,-60.23006 -28.1968,-123.80665 -48.875,-183.4375 -0.3044,0.018 -0.6056,-0.1334 -0.9063,-0.0312 z M 222,100.15625 c -7.73526,0.84796 -7.74403,11.1556 -9.0625,16.9375 -16.7357,65.25837 -38.20018,129.39233 -52.09375,195.3125 3.72109,3.90981 10.16558,-0.17165 9.75737,-5.09258 4.92223,-13.44852 3.86848,-30.30992 15.18013,-40.53242 12.5038,-4.82572 26.05445,0.009 39,-1.8125 11.45794,0.34545 23.71947,-0.68312 34.6875,0.5 9.05105,15.04236 5.14041,35.8764 17.78125,48.90625 5.54861,-0.48994 6.03723,-7.64848 3.17157,-11.21399 -19.04656,-67.46842 -35.08726,-136.04332 -57.32782,-202.44226 -0.2635,-0.32858 -0.65353,-0.68199 -1.09375,-0.5625 z m 601.53125,0 c -7.205,1.31919 -5.86,10.56888 -5,15.96875 1.19306,65.80972 -2.54027,132.00094 2.03125,197.5625 4.2351,2.12288 9.42962,-2.30946 7.4865,-6.81234 0.90176,-57.41298 -1.12371,-114.89491 2.35725,-172.25016 32.77656,58.60768 57.47311,121.43982 90.78125,179.6875 5.56215,0.2887 7.07587,-6.55676 5.4902,-10.7187 -0.63911,-67.46053 2.36081,-135.10143 -1.52145,-202.43755 -3.7244,-2.732314 -9.68449,1.31151 -7.69923,5.78118 -0.86397,57.76766 0.70155,115.57364 -1.80077,173.31257 -33.49262,-58.35131 -58.2152,-121.50416 -91.09375,-180 -0.33227,-0.0747 -0.69132,-0.18158 -1.03125,-0.0937 z m -223.4375,0.0937 c -5.09876,0.98387 -5.60787,8.21264 -1.84338,11.14904 15.48976,32.0277 33.11372,63.06278 46.74963,95.94471 1.77409,35.50357 -3.49375,71.3277 2.5625,106.59375 4.21874,1.72722 9.03666,-3.25447 7,-7.40625 1.6336,-34.99136 -2.48961,-70.32859 2.40732,-105.09492 7.3816,-18.895 18.53606,-36.26961 27.01457,-54.58619 7.14757,-14.35482 15.53669,-29.04182 19.35936,-44.47514 -3.17484,-4.026954 -9.61043,-0.7594 -10.01643,3.79729 -14.05846,28.46381 -28.35763,56.80141 -42.60857,85.17146 C 630.95502,162.80565 621.80521,128.01149 601,100.1875 c -0.30187,0.0234 -0.61141,-0.0459 -0.90625,0.0625 z m 820.50005,-0.0312 c -5.0272,1.03724 -5.6096,7.95114 -1.9814,10.90524 15.1743,32.40366 34.1099,63.14772 46.5126,96.84476 2.8973,35.1673 -3.5103,70.95383 3.0625,105.75 3.5224,2.04203 8.3685,-2.15887 7.0937,-6.21875 0.9566,-34.14039 -2.0105,-68.41945 1.5626,-102.46875 2.8767,-12.62803 10.4886,-23.86452 16.1136,-35.50808 10.5767,-21.24992 22.8493,-41.95763 30.4801,-64.42942 2.6846,-5.458245 -7.0183,-5.886934 -8.5,-1.59375 -13.8402,29.49118 -29.1194,58.54599 -43.625,87.8125 -20.1308,-28.39268 -28.6197,-64.02766 -50.3437,-91.125 l -0.125,0 -0.25,0.0312 z m 326.4062,0 c -8.1119,1.96638 -6.9352,12.51095 -9,18.84375 -16.8273,64.50702 -37.5697,128.06129 -51.7188,193.21875 3.5218,3.9246 10.1394,0.37506 9.7811,-4.59537 5.017,-13.56041 3.8582,-30.53026 15.2815,-40.90463 12.5037,-4.82572 26.0544,0.009 39,-1.8125 11.5122,0.34171 23.8206,-0.678 34.8437,0.5 8.6716,15.24086 5.0102,35.76391 17.6563,48.8125 4.9274,-0.1423 6.5487,-7.05648 3.4374,-10.3125 -19.3002,-67.78263 -35.3079,-136.91647 -57.7812,-203.53125 -0.4553,-0.21347 -1.0005,-0.28947 -1.5,-0.21875 z M 25.59375,100.25 c -7.405543,1.69924 -5.606799,11.29542 -4.92235,16.90614 1.145437,65.46621 -2.535213,131.31341 2.0161,196.53136 4.214224,2.11676 9.426363,-2.28657 7.483977,-6.78113 0.554474,-32.75818 -0.02062,-65.52172 0.297273,-98.28137 24.770833,0 49.541667,0 74.3125,0 3.05645,35.00003 -3.81438,71.04608 3.25,105.40625 4.90729,1.42605 8.57165,-4.14281 6.65368,-8.375 -0.39785,-66.70997 1.94385,-133.50412 -1.09118,-200.15625 0.3235,-3.00933 -1.48514,-6.797331 -4.96875,-4.875 -5.39293,1.9875 -2.70295,8.37801 -3.3125,12.5 -0.6773,26.99543 0.92,54.11047 -0.59375,81.03125 -3.96794,7.72381 -13.9129,3.94324 -20.75,4.65625 -17.697917,0 -35.395833,0 -53.09375,0 -2.997795,-32.61765 3.815359,-66.27614 -3.375,-98.25 -0.585928,-0.27013 -1.258772,-0.40971 -1.90625,-0.3125 z m 1037.00005,0.96875 c -24.3054,2.70529 -49.4194,-3.04944 -73.25005,2.71875 -5.12205,8.74744 0.11287,19.24446 -1.49754,28.78106 0.50254,59.38275 -1.81213,118.89613 1.31004,178.18769 9.93371,5.67517 21.44335,-0.45802 32.09355,1.61375 15.3942,0.0233 32.3267,3.15114 46.594,-2.86375 1.1327,-4.87669 -4.589,-8.08954 -8.7476,-6.47625 -18.8813,-1.45645 -38.2875,2.41046 -56.8462,-1.4925 -8.29143,-6.37323 -3.61956,-18.07011 -4.71875,-26.90625 0,-21.63542 0,-43.27083 0,-64.90625 20.71515,-5.4697 43.31845,4.24462 63.24995,-4.5 1.1056,-4.86845 -4.6353,-8.14147 -8.776,-6.57026 -16.6597,-1.69792 -34.4675,3.8197 -50.3177,-2.80474 -8.20054,-8.49119 -2.7191,-21.36455 -4.18278,-31.81249 0.0502,-17.27079 0.0169,-34.54168 0.0265,-51.81251 23.09615,-4.43645 47.79365,3.76954 70.12495,-3.75 0.9008,-3.22228 -1.4123,-7.63888 -5.0624,-7.40625 z m 584.125,0.0937 c -24.2762,2.14047 -49.2063,-2.558724 -73.0938,2.25 -5.4622,7.34374 -0.4964,16.9012 -1.853,25.21863 0.6892,60.7052 -1.8625,121.46225 1.3842,182.12512 9.9892,5.84856 21.8227,-0.60603 32.6561,1.61415 15.2282,0.0521 31.7014,3.07065 45.9689,-2.80165 1.1631,-4.89538 -4.5573,-8.1677 -8.7475,-6.53875 -18.8813,-1.45645 -38.2875,2.41046 -56.8462,-1.4925 -8.2914,-6.37323 -3.6196,-18.07011 -4.7187,-26.90625 -1e-4,-21.63542 0,-43.27083 0,-64.90625 20.69,-5.3541 43.2445,4.09805 63.3437,-4.4375 0.9959,-5.08534 -4.8625,-8.34962 -9.1218,-6.6735 -16.6539,-1.6574 -34.672,4.05861 -50.3782,-3.014 -7.743,-8.66412 -2.4437,-21.20436 -3.8703,-31.56249 0.05,-17.27079 0.017,-34.54168 0.027,-51.81251 23.1249,-4.50936 47.8923,4.02457 70.1874,-3.9375 0.777,-3.12808 -1.3884,-7.36873 -4.9374,-7.125 z m -1274.00005,0.125 c -14.03764,0.40683 -28.22108,-0.29599 -42.1875,0.65625 -5.84505,4.06599 -1.963,12.21483 -2.89538,18.12497 0.7195,63.94292 -2.31656,128.0373 1.58288,191.87503 1.03885,4.46354 8.10335,1.3211 8.03125,-2.40625 0.0696,-29.27716 -0.37184,-58.75155 0,-88.09375 1.94557,-7.0833 10.79124,-6.74765 16.5615,-5.73494 19.72431,0.6984 43.32076,0.44672 56.59475,-16.51506 14.24164,-18.30308 14.46486,-43.97933 9,-65.59375 -6.50613,-19.25771 -26.21176,-33.5359 -46.6875,-32.3125 z m 141,0 c -14.03764,0.40683 -28.22108,-0.29599 -42.1875,0.65625 -5.84505,4.06599 -1.963,12.21483 -2.89538,18.12497 0.7195,63.94292 -2.31656,128.0373 1.58288,191.87503 1.03885,4.46354 8.10335,1.3211 8.03125,-2.40625 0.0696,-29.27716 -0.37184,-58.75155 0,-88.09375 1.94557,-7.0833 10.79124,-6.74765 16.5615,-5.73494 19.72431,0.6984 43.32076,0.44672 56.59475,-16.51506 14.24164,-18.30308 14.46486,-43.97933 9,-65.59375 -6.50613,-19.25771 -26.21176,-33.5359 -46.6875,-32.3125 z m 1375.00005,0 c -11.2835,1.61558 -23.4456,-2.201739 -34.1563,2.03125 -3.5784,5.05447 -0.2022,11.64833 -1.4246,17.34371 0.8174,61.06512 -1.8949,122.19093 1.0448,183.21305 1.1448,3.16503 -1.2791,11.39805 4.2548,10.09949 3.8713,-0.73175 5.2063,-5.00109 4.0548,-8.34347 0.8977,-28.53811 -0.5534,-57.25266 0.5389,-85.68778 3.202,-7.17153 12.3165,-3.81787 18.2188,-4.59375 9.605,-0.96343 22.9453,0.61865 25.4963,11.82431 11.8099,28.93376 18.8705,59.99411 35.0037,87.01944 4.3799,0.55422 7.6701,-5.64104 4.2812,-8.78125 -11.0642,-30.60998 -22.6452,-61.03004 -33.75,-91.625 24.6058,-5.11312 38.8686,-32.42746 35.375,-56.34375 3.0041,-24.44242 -13.5515,-52.0524 -39,-55 -6.581,-1.09962 -13.2792,-1.24457 -19.9374,-1.15625 z m -1550.37505,9.34375 c 18.79875,3.39841 40.42939,-5.01516 57.15625,7.09375 13.5408,9.20774 18.87868,26.50235 17.125,42.28125 1.11039,18.36328 -8.10651,39.83953 -27.625,44.03125 -13.07724,3.43096 -27.12212,2.63196 -40.21875,0.0625 -9.52492,-5.11142 -8.46151,-17.48484 -7.51773,-26.65592 0.316,-22.30129 -0.2618,-44.60454 -0.0135,-66.90658 l 0.99635,0.0854 0.0974,0.008 z m 141,0 c 18.79875,3.39841 40.42939,-5.01516 57.15625,7.09375 13.5408,9.20774 18.87868,26.50235 17.125,42.28125 1.11039,18.36328 -8.10651,39.83953 -27.625,44.03125 -13.07724,3.43096 -27.12212,2.63196 -40.21875,0.0625 -9.52492,-5.11142 -8.46151,-17.48484 -7.51773,-26.65592 0.316,-22.30129 -0.2618,-44.60454 -0.0135,-66.90658 l 0.99635,0.0854 0.0974,0.008 z m 1390.40625,0.125 c 17.3003,2.58118 37.4011,-4.49753 52.2188,7.625 13.3218,9.29723 17.6866,26.69931 16.2187,42.21875 1.0632,18.06444 -8.4221,39.29653 -27.4063,43.40625 -13.3543,3.39946 -27.8517,2.8198 -41.0937,-0.3125 -9.8385,-6.08673 -7.4789,-19.67053 -6.6875,-29.46875 0.6549,-20.23057 -2.3448,-41.0024 1.4375,-60.875 1.2708,-1.56583 3.2931,-2.5348 5.3125,-2.59375 z M 222.15625,130.5 c 13.19889,40.99592 23.5773,83.09344 35.1875,124.65625 -24.11458,0 -48.22917,0 -72.34375,0 11.89405,-42.59175 22.49138,-85.62938 36.1875,-127.65625 0.32292,1 0.64583,2 0.96875,3 z m 1525.53125,0 c 13.1385,41.01631 23.6407,83.0818 35.2187,124.65625 -24.1145,0 -48.2291,0 -72.3437,0 11.9371,-42.57727 22.4732,-85.62268 36.1563,-127.65625 0.3229,1 0.6458,2 0.9687,3 z M 502.5,510 c -28.90067,-0.10195 -51.98641,30.20005 -47,58.09375 -0.28179,16.12336 8.19774,30.88935 18.09375,42.96875 1.93078,11.54944 -12.28463,16.7649 -13.68195,27.34732 -7.56749,21.79389 -6.71631,47.51957 5.55695,67.43393 16.18663,21.80749 52.57286,25.33474 71.25,4.6875 15.92613,-16.63747 16.33249,-42.06235 12.375,-63.4375 -2.24376,-11.03463 -8.17224,-20.96676 -15.34375,-29.375 -3.39832,-9.23621 6.00423,-15.9516 10.1875,-22.8125 11.08554,-22.30025 9.8278,-52.62221 -7.875,-71.21875 C 527.24763,514.93462 514.95833,509.60353 502.5,510 z m 1595,0 c -28.9007,-0.10195 -51.9864,30.20005 -47,58.09375 -0.2818,16.12336 8.1977,30.88935 18.0938,42.96875 1.9307,11.54944 -12.2847,16.7649 -13.682,27.34732 -7.5675,21.79389 -6.7163,47.51957 5.557,67.43393 16.1866,21.80749 52.5728,25.33474 71.25,4.6875 15.9261,-16.63747 16.3324,-42.06235 12.375,-63.4375 -2.2438,-11.03463 -8.1723,-20.96676 -15.3438,-29.375 -3.3983,-9.23621 6.0042,-15.9516 10.1875,-22.8125 11.0855,-22.30025 9.8278,-52.62221 -7.875,-71.21875 C 2122.2476,514.93462 2109.9583,509.60353 2097.5,510 z m -1888.53125,0.0625 c -28.91124,-0.14575 -51.78247,30.5477 -45.8205,58.28098 1.18691,42.81025 -4.0537,86.20818 3.758,128.56277 11.83919,26.85462 51.61663,37.16952 73.46875,16.375 15.28599,-12.91896 19.80102,-34.53854 16.68542,-53.65597 -0.5626,-39.48151 2.81287,-79.32435 -2.56042,-118.53153 -6.91985,-18.36985 -25.70702,-31.58741 -45.53125,-31.03125 z m 1446.40625,0 c -17.5721,-0.21783 -37.7244,9.37161 -42,27.8125 0.4603,4.23524 8.3308,4.1801 8.5625,-0.21875 13.2409,-23.67515 53.6924,-23.03895 65.5041,1.66241 7.6927,14.30146 4.4287,32.20563 -4.8153,44.93367 -22.6607,45.19469 -49.6954,88.47103 -68.9701,135.27892 1.1215,4.66679 8.0998,3.60211 11.7188,3.5 25.0937,-2.58836 51.0268,3.85132 75.5938,-2.96875 2.3194,-3.25585 -2.1541,-7.81882 -5.8438,-7.09375 -19.7813,-0.81636 -39.8443,2.16179 -59.5312,-1.0625 -6.7592,-4.14492 -3.8281,-13.51906 0.2312,-18.54929 21.7192,-44.16668 50.1698,-85.42155 65.7512,-132.35117 2.2852,-25.71379 -19.8743,-51.64813 -46.2012,-50.94329 z m 148.5938,0 c -28.9113,-0.14575 -51.7825,30.5477 -45.8206,58.28098 1.187,42.81025 -4.0536,86.20818 3.758,128.56277 11.715,26.52269 50.7082,36.98969 72.8126,17 16.0272,-13.01092 20.4894,-35.59037 17.3269,-55.28118 -0.4926,-39.14794 2.7864,-78.65771 -2.5457,-117.53132 -6.9198,-18.36985 -25.707,-31.58741 -45.5312,-31.03125 z m -1745.2813,0.0312 c -17.056346,0.27651 -36.970284,10.22459 -40.21875,28.34375 1.772844,4.37826 8.927539,2.71615 9.125,-1.90625 14.24491,-23.09088 54.687293,-21.27417 65.532174,4.11752 6.824552,14.1469 3.435912,31.24255 -5.499577,43.60356 -22.660729,45.19469 -49.695486,88.47103 -68.970097,135.27892 1.121435,4.66679 8.099721,3.60211 11.71875,3.5 25.093715,-2.58836 51.026822,3.85132 75.59375,-2.96875 2.31943,-3.25585 -2.15402,-7.81882 -5.84375,-7.09375 -19.78129,-0.81636 -39.844339,2.16179 -59.53125,-1.0625 -6.755913,-4.13884 -3.850197,-13.49695 0.225726,-18.48954 21.681702,-44.30131 50.296842,-85.57428 65.788004,-132.66092 2.18468,-26.24397 -21.07594,-52.4868 -47.91998,-50.66204 z m 306.71875,0.0937 c -15.94099,8.74916 -24.49159,26.41747 -39.52701,36.60587 -3.5623,3.45953 -9.60908,9.02997 -6.19174,14.23788 5.01043,3.36169 9.68879,-2.09698 12.22054,-5.89357 7.51204,-8.19805 16.31243,-16.8673 28.02946,-17.95018 2.03074,62.12325 -2.83537,124.76065 2.40625,186.5625 4.35239,2.011 9.3909,-2.68301 7.31002,-7.09375 -0.37113,-67.9046 1.98524,-135.91715 -1.12252,-203.75 -0.40642,-1.37775 -1.45549,-3.07326 -3.125,-2.71875 z m 1594.78125,0 c -15.8169,9.14107 -24.3598,26.38074 -39.3437,36.625 -3.5996,3.38165 -9.4134,9.04854 -6.1563,14.21875 5.0104,3.36169 9.6888,-2.09698 12.2205,-5.89357 7.5121,-8.19805 16.3125,-16.8673 28.0295,-17.95018 1.8942,62.1413 -2.5557,124.40336 2.1875,186.46875 4.3074,2.3097 9.693,-2.50567 7.5288,-7 -0.3521,-67.95822 1.9868,-136.0169 -1.0913,-203.90625 -0.3857,-1.49899 -1.747,-2.79241 -3.375,-2.5625 z m -1456.34375,9.65625 c 23.80515,0.12789 41.48899,25.65249 37.28125,48.25 1.72427,23.40599 -21.89118,46.36412 -45.46875,40.0625 -21.01464,-4.25779 -33.9732,-27.16328 -30.625,-47.75 0.1931,-20.96485 16.60533,-41.60636 38.8125,-40.5625 z m 1595.00005,0 c 23.8051,0.12789 41.4889,25.65249 37.2812,48.25 1.7243,23.40599 -21.8912,46.36412 -45.4688,40.0625 -21.0146,-4.25779 -33.9732,-27.16328 -30.625,-47.75 0.1932,-20.96485 16.6054,-41.60636 38.8126,-40.5625 z M 210.125,519.875 c 24.49771,-0.41712 43.25277,26.55766 37.21875,49.65625 -1.31589,41.31975 3.7163,83.03888 -3.375,124.03125 -10.58909,24.31896 -49.95702,28.35229 -64.125,5.46875 -12.5242,-19.30107 -5.48268,-43.34549 -6.70265,-64.90614 -0.17193,-31.04506 -3.07511,-62.70812 3.35887,-93.27435 6.15857,-12.47373 19.6437,-20.99594 33.62503,-20.97576 z m 1595,0 c 24.4977,-0.41712 43.2528,26.55766 37.2188,49.65625 -1.3159,41.31975 3.7162,83.03888 -3.375,124.03125 -10.6647,24.32722 -49.8867,28.3241 -64.1563,5.53125 -12.2683,-19.04598 -5.5467,-42.65357 -6.7813,-63.84375 0.1305,-31.34718 -3.0423,-63.22673 3.375,-94.125 6.0461,-12.61352 19.6497,-21.2626 33.7188,-21.25 z M 502.84375,618.4375 c 23.32772,-0.68155 42.13557,23.77439 37.90625,46.21875 3.1382,20.52989 -7.6498,45.25151 -29.5625,49.28125 -22.61387,5.00549 -47.9954,-15.08557 -45.40625,-38.78125 -1.81802,-17.88415 0.2484,-40.0037 16.90625,-50.34375 5.93556,-3.98109 13.00564,-6.2216 20.15625,-6.375 z m 1595.00005,0 c 23.3277,-0.68155 42.1355,23.77439 37.9062,46.21875 3.1382,20.52989 -7.6498,45.25151 -29.5625,49.28125 -22.6161,5.00402 -47.9946,-15.08521 -45.4063,-38.78125 -1.818,-17.88415 0.2484,-40.0037 16.9063,-50.34375 5.9356,-3.98109 13.0056,-6.2216 20.1563,-6.375 z"
       id="path5294"
       inkscape:connector-curvature="0" />
  </g>
</svg>
