<?xml version="1.0" encoding="UTF-8" standalone="no"?>
<!-- Created with Inkscape (http://www.inkscape.org/) -->

<svg
   xmlns:dc="http://purl.org/dc/elements/1.1/"
   xmlns:cc="http://creativecommons.org/ns#"
   xmlns:rdf="http://www.w3.org/1999/02/22-rdf-syntax-ns#"
   xmlns:svg="http://www.w3.org/2000/svg"
   xmlns="http://www.w3.org/2000/svg"
   xmlns:sodipodi="http://sodipodi.sourceforge.net/DTD/sodipodi-0.dtd"
   xmlns:inkscape="http://www.inkscape.org/namespaces/inkscape"
   width="3200"
   height="800"
   id="svg10075"
   sodipodi:version="0.32"
   inkscape:version="0.48.5 r10040"
   sodipodi:docname="bat_tattoo.svg"
   inkscape:output_extension="org.inkscape.output.svg.inkscape"
   version="1.0">
  <sodipodi:namedview
     id="base"
     pagecolor="#ffffff"
     bordercolor="#666666"
     borderopacity="1.0"
     inkscape:pageopacity="0.0"
     inkscape:pageshadow="2"
     inkscape:zoom="0.3696875"
     inkscape:cx="1600"
     inkscape:cy="400"
     inkscape:document-units="px"
     inkscape:current-layer="layer1"
     showgrid="false"
     inkscape:window-width="1280"
     inkscape:window-height="753"
     inkscape:window-x="-4"
     inkscape:window-y="0"
     inkscape:window-maximized="0" />
  <defs
     id="defs10077">
    <inkscape:perspective
       id="perspective10083"
       inkscape:persp3d-origin="372.04724 : 350.78739 : 1"
       inkscape:vp_z="744.09448 : 526.18109 : 1"
       inkscape:vp_y="0 : 1000 : 0"
       inkscape:vp_x="0 : 526.18109 : 1"
       sodipodi:type="inkscape:persp3d" />
    <inkscape:perspective
       sodipodi:type="inkscape:persp3d"
       inkscape:vp_x="0 : 0.5 : 1"
       inkscape:vp_y="0 : 1000 : 0"
       inkscape:vp_z="1 : 0.5 : 1"
       inkscape:persp3d-origin="0.5 : 0.33333333 : 1"
       id="perspective1617" />
    <inkscape:perspective
       sodipodi:type="inkscape:persp3d"
       inkscape:vp_x="0 : 0.5 : 1"
       inkscape:vp_y="0 : 1000 : 0"
       inkscape:vp_z="1 : 0.5 : 1"
       inkscape:persp3d-origin="0.5 : 0.33333333 : 1"
       id="perspective1631" />
    <inkscape:perspective
       sodipodi:type="inkscape:persp3d"
       inkscape:vp_x="0 : 0.5 : 1"
       inkscape:vp_y="0 : 1000 : 0"
       inkscape:vp_z="1 : 0.5 : 1"
       inkscape:persp3d-origin="0.5 : 0.33333333 : 1"
       id="perspective1645" />
  </defs>
  <metadata
     id="metadata10080">
    <rdf:RDF>
      <cc:Work
         rdf:about="">
        <dc:format>image/svg+xml</dc:format>
        <dc:type
           rdf:resource="http://purl.org/dc/dcmitype/StillImage" />
        <dc:title />
      </cc:Work>
    </rdf:RDF>
  </metadata>
  <g
     id="layer1"
     inkscape:groupmode="layer"
     inkscape:label="Layer 1"
     transform="translate(0,-200)">
    <path
       id="path1651"
       d="m 1535.6407,957.88822 c -5.336,-72.51665 -23.8561,-173.03206 -35.0211,-190.07204 -6.7754,-10.34051 -20.5671,-11.2784 -17.9367,-1.21976 2.3488,8.98177 -3.1292,8.8922 -7.9578,-0.13022 -5.3999,-10.08986 -1.0107,-20.04408 10.1777,-23.08177 l 9.6702,-2.62553 -6.9055,-18.08618 c -6.4786,-16.96808 -12.8727,-23.71919 -12.8727,-13.59134 0,2.47209 -6.9578,14.37562 -15.4617,26.45227 -19.525,27.72781 -23.1625,43.46613 -12.1141,52.4126 4.7888,3.87771 10.7107,5.59472 15.1372,4.38894 7.1212,-1.9398 7.1333,-1.87045 0.5839,3.36524 -11.0416,8.82689 -28.6585,5.13768 -38.8494,-8.13554 -7.6131,-9.91585 -5.1042,-35.00415 5.807,-58.06837 14.881,-31.45571 18.4907,-47.14849 13.9853,-60.79991 -4.5118,-13.67102 -15.7728,-24.79826 -28.2223,-27.88707 -12.0659,-2.99362 -31.7492,6.40668 -36.8483,17.59786 -5.2491,11.52059 -5.0024,12.53648 2.4684,10.16533 3.5149,-1.11559 10.078,-0.66433 14.5846,1.0028 l 8.1939,3.03115 -7.7864,2.47129 c -4.2825,1.35922 -10.2665,6.25648 -13.2978,10.88275 -6.9856,10.66131 -13.4089,6.23061 -18.528,-12.78028 -4.925,-18.28999 0.7497,-37.96718 14.2174,-49.29953 8.3088,-6.9914 14.2534,-8.86396 28.1394,-8.86396 l 17.6051,0 -9.9015,-10.33496 c -5.4459,-5.68423 -11.2362,-10.33496 -12.8675,-10.33496 -1.6313,0 -11.2612,5.30638 -21.3997,11.79195 -36.1367,23.11635 -57.3106,70.39812 -57.9719,129.45255 l -0.3664,32.72738 -4.6956,-15.50245 c -10.5124,-34.7067 -9.5341,-75.88429 2.9466,-124.01956 0.9479,-3.65599 -1.8894,-5.47983 -9.7001,-6.23532 -10.6897,-1.03401 -11.2361,-0.433 -17.225,18.94743 -8.5943,27.81201 -8.6384,116.0522 -0.069,138.86736 l 5.8225,15.50244 -10.5054,-12.05746 c -12.8076,-14.69976 -35.3756,-61.10392 -40.7911,-83.87429 -2.1841,-9.1834 -4.7174,-29.33658 -5.6295,-44.78484 l -1.6583,-28.08781 4.9774,17.22494 c 2.7376,9.47372 7.9622,24.20104 11.6103,32.72738 l 6.6328,15.50245 2.3149,-20.66993 c 1.2732,-11.36846 3.1718,-27.81886 4.2192,-36.55649 l 1.9044,-15.88652 -14.0376,-5.61675 c -7.7208,-3.08919 -14.0377,-6.26784 -14.0377,-7.06363 0,-0.7958 7.173,-1.1959 15.94,-0.88912 15.4135,0.53931 16.0864,0.14193 20.3759,-12.03272 l 4.436,-12.59047 -12.6248,-2.32295 c -6.9436,-1.27765 -19.2132,-5.21382 -27.2659,-8.747 l -14.6412,-6.42404 -0.076,17.89247 c -0.099,23.33935 -8.9659,42.05672 -28.3595,59.86297 -17.1802,15.77384 -42.5749,25.3701 -66.066,24.96517 l -14.0158,-0.24159 17.4373,-5.95177 c 26.9458,-9.19722 50.0333,-28.01492 34.3717,-28.01492 -7.7276,0 -19.0816,-14.06781 -19.0816,-23.64254 l 0,-8.56337 8.4217,7.91182 c 10.3683,9.74047 22.5751,7.68491 31.0347,-5.22611 13.8417,-21.12512 9.4752,-49.17899 -8.835,-56.76334 -8.7038,-3.60522 -11.1064,-3.30884 -17.0924,2.10847 -10.9262,9.88804 -7.5592,23.01944 7.1409,27.84976 l 12.0575,3.96198 -9.4737,2.44022 c -21.9326,5.64933 -40.4787,-7.56512 -40.4787,-28.84185 0,-16.72769 12.2649,-30.03103 30.5321,-33.11725 l 12.9052,-2.18033 -11.3836,-22.61821 c -6.2611,-12.44001 -11.3837,-24.75693 -11.3837,-27.37093 0,-6.76471 -2.5123,-6.06946 -21.0478,5.82468 -28.8313,18.501 -51.4791,48.57199 -65.103,86.44155 -5.6022,15.5721 -6.6252,16.80541 -6.6798,8.05318 -0.035,-5.68423 2.234,-21.18609 5.0432,-34.44861 2.8092,-13.26248 5.0736,-29.54005 5.032,-36.17235 -0.099,-15.75801 -11.1289,-39.72045 -20.6223,-44.80112 -17.2225,-9.21724 -34.5773,7.18975 -22.141,20.93179 4.7644,5.26457 4.9879,6.6431 1.0771,6.6431 -8.257,0 -19.3336,-9.66804 -21.6499,-18.89679 -2.5789,-10.27515 5.3248,-27.50264 14.9911,-32.67591 11.0223,-5.89894 34.6002,-4.13407 46.9791,3.51652 12.4883,7.71815 25.5565,26.25103 25.5565,36.24325 0,5.07055 2.556,3.88957 12.9187,-5.96886 7.1053,-6.75956 19.0459,-16.34437 26.5348,-21.29956 12.8534,-8.50477 13.5629,-9.87532 12.6656,-24.46676 -1.2932,-21.02866 5.7345,-65.33987 13.6884,-86.30886 3.5936,-9.47372 6.5345,-18.1561 6.5355,-19.29419 0,-3.39179 -33.6758,2.97297 -57.26,10.82129 -12.0851,4.02168 -21.973,8.44888 -21.973,9.83821 0,1.38934 5.4365,5.11853 12.081,8.28711 26.2405,12.51319 34.7095,49.15921 15.7439,68.1248 -5.9196,5.91963 -13.7288,10.06997 -18.9474,10.06997 -8.8775,0 -8.8775,0 -1.9875,-6.88998 9.5525,-9.55256 8.6893,-22.77629 -2.142,-32.81448 -27.6745,-25.6478 -71.5375,-3.1018 -96.5203,49.61228 -5.13044,10.82541 -11.73589,34.5601 -14.96958,53.78881 l -5.78744,34.41423 -2.18943,-18.48627 c -1.20418,-10.16745 -4.60034,-22.16581 -7.54702,-26.66301 -9.1157,-13.91232 -29.24571,-9.00879 -29.36644,7.15346 -0.0435,5.82184 -0.63929,6.15462 -3.39223,1.89474 -13.20425,-20.43211 12.42565,-46.23689 34.29743,-34.53146 5.54995,2.97024 6.56761,1.47596 8.70593,-12.78334 3.40248,-22.68942 13.96418,-49.35115 26.29038,-66.36704 l 10.5051,-14.50187 -16.6457,11.34445 c -24.00257,16.35823 -61.58576,53.2693 -78.62807,77.2219 -19.26562,27.0774 -31.66706,51.95456 -43.79244,87.84719 l -9.8923,29.28239 2.11953,-20.66992 c 2.72586,-26.58304 19.39437,-76.81854 34.4189,-103.73163 35.89107,-64.29076 95.08052,-115.87103 161.76898,-140.97248 35.5675,-13.3876 67.2369,-18.83518 109.6429,-18.86016 l 38.5309,-0.0227 -10.335,-6.84834 c -12.4378,-8.24172 -37.2196,-16.80615 -59.4721,-20.55311 -14.1255,-2.37848 -11.9209,-2.79655 16.4098,-3.11192 53.8338,-0.59925 100.3739,16.80455 133.4932,49.92017 20.4643,20.46195 23.5304,28.6684 6.89,18.44067 -30.8382,-18.9541 -57.0775,-15.75947 -81.8184,9.96138 -18.2229,18.94459 -27.1866,41.05058 -30.0319,74.06307 l -2.0378,23.64432 10.0061,-1.93191 c 21.3609,-4.12424 52.9185,-6.25126 59.895,-4.03701 6.0731,1.92751 6.5836,3.20472 3.0048,7.51697 -2.3713,2.85721 -4.3908,13.54573 -4.4877,23.75227 -0.1533,16.14808 1.1656,19.89827 10.1588,28.88591 5.6842,5.68072 15.5274,11.364 21.8737,12.62953 l 11.5387,2.30095 -8.7266,-8.7267 c -12.2784,-12.27836 -14.944,-30.03747 -6.9549,-46.33485 27.4219,-55.93922 133.5665,-32.14751 153.5069,34.40771 l 3.9463,13.17164 18.1831,-20.0117 18.1831,-20.0117 0.1581,14.27832 c 0.1902,17.16465 11.1505,53.7263 20.805,69.40215 6.1661,10.01159 6.2733,10.95004 0.9186,8.03399 -8.9615,-4.88027 -26.8857,-24.77205 -32.9749,-36.59466 l -5.3229,-10.33496 -5.7277,13.55962 c -5.5767,13.20177 -15.2548,53.5052 -15.3749,64.02636 -0.034,2.8827 7.8448,16.05978 17.5061,29.2824 37.1773,50.88192 66.9258,125.77654 76.5122,192.6267 l 4.4148,30.78606 4.1719,-31.33454 c 8.6591,-65.03741 38.7154,-140.86675 76.1336,-192.07822 9.6612,-13.22262 17.539,-26.3997 17.5061,-29.2824 -0.1203,-10.52116 -9.7983,-50.82459 -15.3749,-64.02636 l -5.7276,-13.55962 -5.323,10.33496 c -6.0892,11.82261 -24.0134,31.71439 -32.9749,36.59466 -5.3547,2.91605 -5.2474,1.9776 0.9186,-8.03399 9.6545,-15.67585 20.6148,-52.2375 20.805,-69.40215 l 0.1582,-14.27832 18.1831,20.0117 18.183,20.0117 3.9464,-13.17164 c 12.458,-41.58133 61.5285,-71.07008 107.6971,-64.72028 43.7872,6.02229 65.8862,49.61605 38.8549,76.64742 l -8.7267,8.7267 11.5388,-2.30095 c 6.3463,-1.26553 16.1894,-6.94881 21.8737,-12.62953 8.9932,-8.98764 10.312,-12.73783 10.1587,-28.88591 -0.097,-10.20654 -2.1163,-20.89506 -4.4876,-23.75227 -3.5789,-4.31225 -3.0683,-5.58946 3.0048,-7.51697 6.9764,-2.21425 38.534,-0.0872 59.895,4.03701 l 10.0061,1.93191 -2.0379,-23.64432 c -2.8451,-33.01249 -11.8089,-55.11848 -30.0317,-74.06307 -24.7409,-25.72085 -50.9803,-28.91548 -81.8185,-9.96138 -16.6404,10.22773 -13.5742,2.02128 6.89,-18.44067 33.1194,-33.11562 79.6595,-50.51942 133.4933,-49.92017 28.3306,0.31536 30.5352,0.73344 16.4098,3.11192 -22.2525,3.74696 -47.0344,12.31139 -59.4722,20.55315 l -10.3349,6.84834 38.5309,0.0227 c 42.406,0.0251 74.0753,5.47256 109.6429,18.86015 66.6884,25.10146 125.8779,76.68173 161.7689,140.97249 15.0246,26.91309 31.6931,77.14859 34.4189,103.73162 l 2.1195,20.66993 -9.8922,-29.2824 c -12.1254,-35.89266 -24.5269,-60.76982 -43.7925,-87.84722 -17.0423,-23.9526 -54.6255,-60.86367 -78.628,-77.2219 l -16.6458,-11.34445 10.5051,14.50187 c 12.3262,17.01589 22.888,43.67762 26.2904,66.36704 2.1384,14.2593 3.156,15.75358 8.706,12.78334 21.8717,-11.70543 47.5016,14.09935 34.2974,34.53146 -2.753,4.25988 -3.3487,3.9271 -3.3922,-1.89474 -0.1206,-16.16225 -20.2508,-21.06578 -29.3665,-7.15346 -2.9467,4.4972 -6.3428,16.49556 -7.547,26.66301 l -2.1894,18.48627 -5.7875,-34.41423 c -3.2336,-19.22871 -9.8391,-42.9634 -14.9696,-53.78881 -24.9828,-52.71408 -68.8458,-75.26008 -96.5202,-49.61228 -10.8314,10.03819 -11.6946,23.26192 -2.142,32.81448 6.8899,6.88998 6.8899,6.88998 -1.9875,6.88998 -5.2187,0 -13.0278,-4.15034 -18.9474,-10.06997 -18.9656,-18.96559 -10.4966,-55.61161 15.7438,-68.1248 6.6446,-3.16858 12.081,-6.89777 12.081,-8.28711 0,-1.38933 -9.8878,-5.81653 -21.973,-9.83821 -23.5842,-7.84832 -57.2628,-14.21308 -57.26,-10.82129 10e-4,1.13809 2.942,9.82047 6.5355,19.29419 7.954,20.96899 14.9817,65.2802 13.6885,86.30886 -0.8973,14.59144 -0.1878,15.96199 12.6656,24.46676 7.4888,4.95519 19.4295,14.54 26.5348,21.29956 10.3626,9.85843 12.9187,11.03941 12.9187,5.96886 0,-9.99222 13.0682,-28.5251 25.5564,-36.24325 12.3789,-7.65059 35.9569,-9.41546 46.9791,-3.51652 9.6664,5.17327 17.57,22.40076 14.9911,32.67591 -2.3162,9.22875 -13.3928,18.89679 -21.6498,18.89679 -3.9109,0 -3.6874,-1.37853 1.077,-6.6431 12.4364,-13.74204 -4.9184,-30.14903 -22.141,-20.93179 -9.4933,5.08067 -20.5234,29.04311 -20.6223,44.80112 -0.042,6.6323 2.2228,22.90987 5.0321,36.17235 2.8092,13.26252 5.0786,28.76438 5.0431,34.44861 -0.055,8.75223 -1.0775,7.51892 -6.6797,-8.05318 -13.6239,-37.86956 -36.2718,-67.94055 -65.1031,-86.44155 -18.5354,-11.89414 -21.0477,-12.58939 -21.0477,-5.82468 0,2.614 -5.1227,14.93092 -11.3837,27.37093 l -11.3837,22.61821 12.9053,2.18033 c 18.2672,3.08622 30.532,16.38956 30.532,33.11725 0,21.27673 -18.5461,34.49118 -40.4786,28.84185 l -9.4737,-2.44022 12.0574,-3.96198 c 14.7001,-4.83032 18.0672,-17.96172 7.141,-27.84976 -5.9861,-5.41731 -8.3887,-5.71369 -17.0925,-2.10847 -12.417,5.14333 -19.1708,20.20072 -16.4848,36.75251 4.4606,27.48752 23.2447,39.74189 38.6845,25.23694 l 8.4218,-7.91182 0,8.56337 c 0,9.57473 -11.354,23.64254 -19.0817,23.64254 -15.6616,0 7.426,18.8177 34.3717,28.01492 l 17.4373,5.95177 -14.0159,0.24149 c -23.4911,0.40492 -48.8858,-9.19133 -66.066,-24.96517 -19.3936,-17.80625 -28.2608,-36.52363 -28.3595,-59.86297 l -0.076,-17.89247 -14.6412,6.42404 c -8.0527,3.53318 -20.3223,7.46935 -27.2659,8.74699 l -12.6248,2.32296 4.436,12.59046 c 4.2895,12.17466 4.9624,12.57204 20.376,12.03273 8.767,-0.30695 15.9399,0.0934 15.9399,0.88911 0,0.7958 -6.3169,3.97445 -14.0376,7.06364 l -14.0376,5.61674 1.9044,15.88653 c 1.0474,8.73763 2.946,25.18803 4.2192,36.55649 l 2.3149,20.66992 6.6328,-15.50244 c 3.6481,-8.52634 8.8727,-23.25367 11.6103,-32.72738 l 4.9774,-17.22494 -1.6583,28.08781 c -0.9121,15.44825 -3.4453,35.60143 -5.6294,44.78484 -5.4156,22.77037 -27.9836,69.17453 -40.7912,83.87429 l -10.5054,12.05746 5.8225,-15.50245 c 8.5691,-22.81515 8.525,-111.05534 -0.069,-138.86735 -5.9889,-19.38043 -6.5352,-19.98145 -17.225,-18.94743 -7.8107,0.75548 -10.648,2.57933 -9.7001,6.23532 12.4807,48.13526 13.4591,89.31286 2.9466,124.01956 l -4.6955,15.50245 -0.3665,-32.72739 c -0.6612,-59.05432 -21.8351,-106.33609 -57.9718,-129.45244 -10.1386,-6.48557 -19.7685,-11.79195 -21.3997,-11.79195 -1.6313,0 -7.4217,4.65073 -12.8675,10.33496 l -9.9015,10.33496 17.6051,0 c 13.886,0 19.8306,1.87256 28.1394,8.86396 13.4677,11.33235 19.1424,31.00954 14.2174,49.29953 -5.1191,19.01089 -11.5425,23.44159 -18.5281,12.78028 -3.0312,-4.62627 -9.0153,-9.52353 -13.2978,-10.88275 l -7.7864,-2.47129 8.1939,-3.03115 c 4.5067,-1.66713 11.0698,-2.11839 14.5847,-1.0028 7.4708,2.37115 7.7174,1.35526 2.4683,-10.16533 -5.099,-11.19118 -24.7824,-20.59148 -36.8482,-17.59786 -12.4495,3.08881 -23.7106,14.21605 -28.2224,27.88707 -4.5054,13.65142 -0.8957,29.3442 13.9853,60.79991 10.9113,23.06422 13.4201,48.15252 5.807,58.06837 -10.1908,13.27322 -27.8077,16.96243 -38.8493,8.13554 -6.5494,-5.23569 -6.5374,-5.30504 0.5838,-3.36524 4.4266,1.20578 10.3485,-0.51123 15.1372,-4.38894 11.0485,-8.94647 7.4109,-24.68479 -12.114,-52.4126 -8.5039,-12.07665 -15.4617,-23.98018 -15.4617,-26.45227 0,-10.12785 -6.3941,-3.37674 -12.8727,13.59144 l -6.9055,18.08619 9.6702,2.62553 c 11.1884,3.03768 15.5776,12.99191 10.1777,23.08176 -4.8287,9.02232 -10.3067,9.11189 -7.9579,0.13022 2.6304,-10.05864 -11.1612,-9.12074 -17.9366,1.21977 -10.8002,16.48323 -26.7344,100.24704 -34.0445,178.96708 l -4.2214,45.45975 -2.5279,-34.3549 z M 1342.7408,593.21635 c 17.3058,-8.94922 40.9583,-37.46583 49.2107,-59.33086 14.5845,-38.64223 3.3701,-79.44665 -26.6734,-97.0533 -26.8534,-15.73713 -57.2208,-4.57143 -57.2208,21.03933 0,6.49665 2.0502,14.28232 4.5558,17.3015 5.9841,7.21035 27.2465,7.08268 35.3071,-0.212 5.3878,-4.87592 6.3,-4.94969 6.3,-0.50946 0,8.28552 -14.6452,27.75114 -27.2901,36.27253 -16.3713,11.03263 -49.6102,11.07406 -65.7566,0.082 -17.7224,-12.06495 -31.3006,-31.1438 -33.4222,-46.96187 -1.8997,-14.16342 -1.9275,-14.18667 -16.9517,-14.18667 -12.9053,0 -15.0489,1.01231 -15.0489,7.10684 0,21.22583 36.3871,70.93529 61.3877,83.86361 22.8087,11.79484 56.1506,13.15313 81.5533,3.32238 5.5568,-2.15043 4.8224,-0.0648 -3.8561,10.95144 -9.3547,11.87463 -28.8453,46.49394 -28.8453,51.23534 0,2.15474 23.7339,-6.18968 36.7505,-12.9208 z m 419.492,-6.27801 c -5.1118,-10.13578 -14.1183,-24.55222 -20.0143,-32.03653 -8.6821,-11.02069 -9.4152,-13.10401 -3.8562,-10.95799 25.4803,9.83651 58.7158,8.49396 81.5083,-3.29254 25.0423,-12.94985 61.4327,-62.6413 61.4327,-83.8869 0,-6.12626 -2.139,-7.10684 -15.5024,-7.10684 -14.3198,0 -15.5025,0.67007 -15.5025,8.78355 0,17.39638 -19.4605,45.2652 -38.585,55.25628 -15.0697,7.87278 -47.8427,6.29064 -61.5894,-2.97328 -12.6449,-8.52139 -27.2901,-27.98701 -27.2901,-36.27253 0,-4.44023 0.9121,-4.36646 6.3,0.50946 8.0605,7.29468 29.3229,7.42235 35.307,0.212 2.5057,-3.01918 4.5558,-10.80485 4.5558,-17.3015 0,-25.61076 -30.3674,-36.77646 -57.2208,-21.03933 -30.0972,17.63817 -41.2547,58.38916 -26.6205,97.22755 10.5846,28.09108 35.9719,54.23616 63.4376,65.3313 11.3255,4.57505 21.1187,7.79125 21.7628,7.14714 0.6441,-0.64411 -3.0112,-9.46403 -8.123,-19.59984 z M 1533.2257,490.5917 c -10.7281,-32.50617 -45.821,-69.45116 -84.0434,-88.47867 l -20.2789,-10.09507 15.6818,-15.68184 c 8.625,-8.62502 23.5122,-20.15391 33.0825,-25.61976 l 17.4006,-9.93791 -21.7065,-9.45638 c -11.9386,-5.20102 -26.0916,-14.03348 -31.4512,-19.6277 -5.3596,-5.59422 -11.005,-10.17131 -12.5452,-10.17131 -4.3475,0 -3.3086,20.65445 2.0845,41.4457 2.6868,10.35777 4.4877,19.22973 4.002,19.71546 -0.4858,0.48573 -4.9584,-6.60434 -9.9392,-15.75571 -18.3929,-33.79391 -24.2744,-79.63376 -15.6971,-122.34311 3.9409,-19.62354 9.8593,-26.49607 9.8593,-11.44884 0,9.44335 10.3879,40.82277 19.0951,57.68191 10.9882,21.2757 43.9594,50.12918 66.7996,58.45714 l 20.7629,7.57055 -15.5153,10.2769 c -17.4258,11.5424 -26.1319,23.72578 -18.7197,26.19653 2.481,0.82699 10.067,6.81224 16.8577,13.30056 11.2528,10.75162 11.5837,11.57795 3.7344,9.3254 -4.7368,-1.35935 -13.7456,-3.64059 -20.0195,-5.06942 -11.2731,-2.56739 -11.1817,-2.38931 7.7909,15.17306 10.5589,9.77402 23.492,25.7958 28.7403,35.60396 l 9.5424,17.83301 9.8868,-18.88338 c 5.4685,-10.44473 18.2888,-26.37213 28.6884,-35.64114 18.6828,-16.65162 18.7285,-16.74107 7.2299,-14.1227 -6.3645,1.44929 -15.4475,3.74726 -20.1844,5.10661 -7.8493,2.25255 -7.5184,1.42622 3.7344,-9.3254 6.7908,-6.48832 14.3768,-12.47357 16.8577,-13.30056 7.4387,-2.47955 -1.3168,-14.66933 -18.9032,-26.31808 l -15.6988,-10.39846 17.4105,-5.78283 c 22.6557,-7.52501 48.7728,-28.40482 63.7155,-50.93838 12.6201,-19.03128 25.8986,-53.25221 25.8986,-66.74528 0,-15.04723 5.9184,-8.1747 9.8594,11.44884 8.5772,42.70935 2.6958,88.5492 -15.6972,122.34311 -4.9808,9.15137 -9.4534,16.24144 -9.9391,15.75571 -0.4857,-0.48573 1.3151,-9.35769 4.0019,-19.71546 5.3932,-20.79125 6.432,-41.4457 2.0846,-41.4457 -1.5403,0 -7.1856,4.57709 -12.5452,10.17131 -5.3596,5.59422 -19.5127,14.42668 -31.4513,19.6277 l -21.7065,9.45638 17.4007,9.93791 c 9.5703,5.46585 24.4574,16.99474 33.0824,25.61976 l 15.6819,15.68184 -20.279,10.09507 c -37.9564,18.89512 -69.693,51.88532 -83.2764,86.56569 l -6.513,16.62877 -4.8566,-14.71579 z"
       style="fill:none;stroke:#000000;stroke-width:3.44498777;stroke-opacity:1"
       inkscape:connector-curvature="0" />
  </g>
</svg>
