<?xml version="1.0" encoding="UTF-8" standalone="no"?>
<!-- Created with Inkscape (http://www.inkscape.org/) -->

<svg
   xmlns:dc="http://purl.org/dc/elements/1.1/"
   xmlns:cc="http://creativecommons.org/ns#"
   xmlns:rdf="http://www.w3.org/1999/02/22-rdf-syntax-ns#"
   xmlns:svg="http://www.w3.org/2000/svg"
   xmlns="http://www.w3.org/2000/svg"
   xmlns:sodipodi="http://sodipodi.sourceforge.net/DTD/sodipodi-0.dtd"
   xmlns:inkscape="http://www.inkscape.org/namespaces/inkscape"
   sodipodi:docname="digital-pumpkinface.svg"
   inkscape:version="0.92.2 5c3e80d, 2017-08-06"
   version="1.1"
   id="svg27345"
   height="1000"
   width="3200">
  <sodipodi:namedview
     id="base"
     pagecolor="#ffffff"
     bordercolor="#666666"
     borderopacity="1.0"
     inkscape:pageopacity="0.0"
     inkscape:pageshadow="2"
     inkscape:zoom="0.186875"
     inkscape:cx="1894.3144"
     inkscape:cy="285.95318"
     inkscape:document-units="px"
     inkscape:current-layer="layer1"
     showgrid="false"
     inkscape:window-width="1492"
     inkscape:window-height="877"
     inkscape:window-x="0"
     inkscape:window-y="0"
     inkscape:window-maximized="0" />
  <defs
     id="defs27347">
    <inkscape:path-effect
       effect="rough_hatches"
       id="path-effect14626"
       is_visible="true"
       direction="1510.9532,509.71875 , 16.426663,8.4053545"
       dist_rdm="0;1"
       growth="0"
       do_bend="true"
       bender="1510.9532,514.71875 , 5,0"
       bottom_edge_variation="0;1"
       top_edge_variation="0;1"
       bottom_tgt_variation="0;1"
       top_tgt_variation="0;1"
       scale_bf="2"
       scale_bb="2"
       scale_tf="2"
       scale_tb="2"
       top_smth_variation="0;1"
       bottom_smth_variation="0;1"
       fat_output="false"
       stroke_width_top="1"
       stroke_width_bottom="1"
       front_thickness="1"
       back_thickness="0.25" />
    <inkscape:path-effect
       back_thickness="0.25"
       front_thickness="1"
       stroke_width_bottom="1"
       stroke_width_top="1"
       fat_output="false"
       bottom_smth_variation="0;1"
       top_smth_variation="0;1"
       scale_tb="2"
       scale_tf="2"
       scale_bb="2"
       scale_bf="2"
       top_tgt_variation="0;1"
       bottom_tgt_variation="0;1"
       top_edge_variation="0;1"
       bottom_edge_variation="0;1"
       bender="1516.7743,499.49597 , 6.3549325,0"
       do_bend="true"
       growth="0"
       dist_rdm="0;1"
       direction="1516.7743,495.68919 , 30.937642,-3.0665037"
       is_visible="true"
       id="path-effect6923"
       effect="rough_hatches" />
    <inkscape:perspective
       id="perspective27353"
       inkscape:persp3d-origin="372.04724 : 350.78739 : 1"
       inkscape:vp_z="744.09448 : 526.18109 : 1"
       inkscape:vp_y="0 : 1000 : 0"
       inkscape:vp_x="0 : 526.18109 : 1"
       sodipodi:type="inkscape:persp3d" />
    <inkscape:path-effect
       back_thickness="0.25"
       front_thickness="1"
       stroke_width_bottom="1"
       stroke_width_top="1"
       fat_output="false"
       bottom_smth_variation="0;1"
       top_smth_variation="0;1"
       scale_tb="2"
       scale_tf="2"
       scale_bb="2"
       scale_bf="2"
       top_tgt_variation="0;1"
       bottom_tgt_variation="0;1"
       top_edge_variation="0;1"
       bottom_edge_variation="0;1"
       bender="2307.5717,722.08937 , 6.3549325,0"
       do_bend="true"
       growth="0"
       dist_rdm="0;1"
       direction="2307.5717,718.28259 , 0.72996422,27.141174"
       is_visible="true"
       id="path-effect6923-5"
       effect="rough_hatches" />
    <inkscape:path-effect
       back_thickness="0.25"
       front_thickness="1"
       stroke_width_bottom="1"
       stroke_width_top="1"
       fat_output="false"
       bottom_smth_variation="0;1"
       top_smth_variation="0;1"
       scale_tb="2"
       scale_tf="2"
       scale_bb="2"
       scale_bf="2"
       top_tgt_variation="0;1"
       bottom_tgt_variation="0;1"
       top_edge_variation="0;1"
       bottom_edge_variation="0;1"
       bender="1516.7743,447.13379 , 6.3549325,0"
       do_bend="true"
       growth="0"
       dist_rdm="0;1"
       direction="1516.7743,443.32701 , 0.72996422,27.141174"
       is_visible="true"
       id="path-effect6923-54"
       effect="rough_hatches" />
    <inkscape:path-effect
       effect="rough_hatches"
       id="path-effect14626-2"
       is_visible="true"
       direction="1510.9532,509.71875 , -14.39297,26.616956"
       dist_rdm="0;1"
       growth="0"
       do_bend="true"
       bender="1510.9532,514.71875 , 5,0"
       bottom_edge_variation="0;1"
       top_edge_variation="0;1"
       bottom_tgt_variation="0;1"
       top_tgt_variation="0;1"
       scale_bf="2"
       scale_bb="2"
       scale_tf="2"
       scale_tb="2"
       top_smth_variation="0;1"
       bottom_smth_variation="0;1"
       fat_output="false"
       stroke_width_top="1"
       stroke_width_bottom="1"
       front_thickness="1"
       back_thickness="0.25" />
  </defs>
  <metadata
     id="metadata27350">
    <rdf:RDF>
      <cc:Work
         rdf:about="">
        <dc:format>image/svg+xml</dc:format>
        <dc:type
           rdf:resource="http://purl.org/dc/dcmitype/StillImage" />
        <dc:title />
      </cc:Work>
    </rdf:RDF>
  </metadata>
  <g
     transform="translate(0,-52.36218)"
     id="layer1"
     inkscape:groupmode="layer"
     inkscape:label="Layer 1"
     style="display:inline">
    <path
       style="opacity:0.66822426;fill:none;stroke:#000000;stroke-width:3;stroke-linecap:butt;stroke-linejoin:miter;stroke-miterlimit:4;stroke-dasharray:none;stroke-dashoffset:0;stroke-opacity:1"
       d="m 1004.1875,192.25 v 123.28125 h 222.75 v -40.625 h 116.2813 v 40.625 h 92.4374 V 192.25 Z m 554.7813,0 v 123.28125 h 222.75 v -40.625 H 1898 v 40.625 h 92.4375 V 192.25 Z m -488.5,290.625 V 606.15625 H 1193.75 V 482.875 Z m 252.5624,0 v 123.28125 h 123.2813 V 482.875 Z m 252.5626,0 V 606.15625 H 1698.875 V 482.875 Z m 252.5624,0 v 123.28125 h 123.2813 V 482.875 Z M 944.1875,609.15625 V 732.4375 h 123.2813 V 609.15625 Z m 252.5625,0 V 732.4375 h 123.2812 V 609.15625 Z m 252.5625,0 V 732.4375 h 123.2813 V 609.15625 Z m 252.5625,0 V 732.4375 h 123.2812 V 609.15625 Z m 252.5625,0 V 732.4375 h 123.2813 V 609.15625 Z"
       transform="translate(0,52.36218)"
       id="rect28759"
       inkscape:connector-curvature="0"
       sodipodi:nodetypes="ccccccccccccccccccccccccccccccccccccccccccccccccccccccccccccccc" />
    <path
       style="opacity:0.66822426;fill:none;stroke:#000000;stroke-width:3;stroke-linecap:butt;stroke-linejoin:miter;stroke-miterlimit:4;stroke-dasharray:none;stroke-dashoffset:0;stroke-opacity:1"
       d="m 1428.2261,363.53125 c 0,0 3.0606,-1.74153 3.0606,-9.30287 0,-3.79143 -1.2778,-1.44418 -3.0696,1.81594 -1.7978,3.27088 -4.1331,7.48693 -6.2093,7.48693 -4.1455,0 9.2791,-16.86288 9.2791,-24.58841 0,-3.87457 -3.2876,2.29615 -7.1489,9.39714 -3.8677,7.11279 -8.3382,15.19127 -10.4212,15.19127 -2.0691,0 2.4198,-8.07811 7.336,-17.14384 4.9331,-9.09715 10.2344,-19.08764 10.2344,-23.06951 0,-3.95747 -5.2464,6.1099 -11.18,17.14384 -5.9374,11.04095 -12.588,23.06951 -14.6814,23.06951 -2.062,0 4.6166,-12.02815 11.6087,-25.0674 7.0242,-13.09895 14.253,-27.02989 14.253,-31.13399 0,-4.04019 -7.1503,10.00175 -15.1594,25.0674 -8.0068,15.06144 -16.8855,31.13399 -18.9934,31.13399 -2.0512,0 6.8659,-16.07208 15.9343,-33.1805 9.1195,-17.20511 18.2188,-35.15651 18.2188,-39.39858 0,-4.12287 -8.9953,13.97688 -19.0832,33.1805 -10.076,19.18112 -21.2344,39.39858 -23.3609,39.39858 -2.0365,0 9.1714,-20.21693 20.3163,-41.49745 11.2199,-21.42387 22.1281,-43.48125 22.1281,-47.87895 0,-4.20565 -10.7769,18.04108 -22.9471,41.49745 -12.145,23.40768 -25.6386,47.87895 -27.7884,47.87895 -2.0175,0 11.5378,-24.47066 24.7594,-50.03442 13.3256,-25.76465 25.9765,-52.01969 25.9765,-56.59296 0,-4.28876 -12.4899,22.20088 -26.7463,50.03442 -14.2136,27.74993 -30.1027,56.59296 -32.2806,56.59296 -1.9816,0 13.8284,-28.63281 28.4795,-57.26563 C 1415.3922,277.63281 1428.8844,249 1426.7205,249 c -1.9816,0 -15.4738,28.63281 -30.125,57.26563 -14.6511,28.63281 -30.461,57.26562 -32.6249,57.26562 -1.9817,0 13.8283,-28.63281 28.4794,-57.26563 C 1407.1011,277.63281 1420.5934,249 1418.4295,249 c -1.9816,0 -15.4739,28.63281 -30.125,57.26562 -14.6511,28.63282 -30.4611,57.26563 -32.625,57.26563 -1.9816,0 13.8284,-28.63281 28.4795,-57.26563 C 1398.8101,277.63281 1412.3024,249 1410.1385,249 c -1.9817,0 -15.9921,28.63281 -30.6432,57.26562 -14.6322,28.59586 -30.0341,57.26563 -30.0341,57.26563 m -1.8674,-4.1137 c 0,0 15.7791,-27.63868 29.8432,-55.20877 C 1391.5186,276.60439 1404.0049,249 1401.8474,249 c -1.9834,0 -14.5748,26.67112 -27.6387,52.3889 -13.0247,25.64072 -26.6094,50.55929 -26.6094,46.66886 0,-3.63734 13.4542,-28.75381 25.3571,-52.3889 11.9915,-23.8111 22.7216,-46.66886 20.6,-46.66886 -2.0057,0 -12.7878,22.85811 -23.7765,44.7418 -10.9659,21.83834 -22.1804,42.8383 -22.1803,38.89527 0,-3.76611 11.1018,-24.93854 20.9576,-44.7418 9.9212,-19.93485 18.813,-38.89527 16.7081,-38.89527 -2.0348,0 -10.7204,18.47656 -19.8885,36.95313 -9.1682,18.47656 -18.8189,36.95312 -20.9296,36.95312 -2.0348,0 7.6159,-18.47656 16.7841,-36.95313 C 1370.3994,267.47656 1379.085,249 1376.9743,249 c -2.0348,0 -10.7204,18.47656 -19.8886,36.95312 -9.1681,18.47657 -18.8188,36.95313 -20.9295,36.95313 -2.0348,0 7.6159,-18.47656 16.784,-36.95312 C 1362.1084,267.47656 1370.794,249 1368.6833,249 c -2.0348,0 -10.7204,18.47656 -19.8886,36.95312 -9.1681,18.47657 -18.8189,36.95313 -20.9296,36.95313 -2.0348,0 7.6159,-18.47656 16.7841,-36.95313 9.1681,-18.47656 17.8537,-36.95312 15.743,-36.95312 -2.0348,0 -10.7204,18.47656 -19.8885,36.95312 -9.1682,18.47657 -18.8189,36.95313 -20.9296,36.95313 -2.0348,0 7.6159,-18.47656 16.784,-36.95313 C 1345.5263,267.47656 1354.2119,249 1352.1012,249 c -2.0348,0 -10.7204,18.47656 -19.8886,36.95312 -9.1681,18.47657 -18.8188,36.95313 -20.9295,36.95313 -2.0349,0 7.6159,-18.47656 16.784,-36.95313 C 1337.2353,267.47656 1345.9209,249 1343.8102,249 c -2.0349,0 -10.7205,18.47656 -19.8886,36.95312 -9.1682,18.47657 -18.8189,36.95313 -20.9296,36.95313 -2.0348,0 7.6159,-18.47656 16.7841,-36.95313 9.1681,-18.47656 17.8537,-36.95312 15.743,-36.95312 -2.0348,0 -10.7204,18.47656 -19.8885,36.95312 -9.1682,18.47657 -18.8189,36.95313 -20.9296,36.95313 -2.0348,0 7.6159,-18.47656 16.784,-36.95313 C 1320.6532,267.47656 1329.3388,249 1327.2281,249 c -2.0348,0 -10.7204,18.47656 -19.8886,36.95312 -9.1681,18.47657 -18.8188,36.95313 -20.9296,36.95313 -2.0348,0 7.6159,-18.47656 16.7841,-36.95313 C 1312.3621,267.47656 1321.0478,249 1318.937,249 c -2.0348,0 -10.7204,18.47656 -19.8885,36.95312 -9.1682,18.47657 -18.8189,36.95313 -20.9296,36.95313 -2.0348,0 7.6159,-18.47656 16.7841,-36.95313 C 1304.0711,267.47656 1312.7567,249 1310.646,249 c -2.0348,0 -10.7204,18.47656 -19.8886,36.95312 -9.1681,18.47657 -18.8188,36.95313 -20.9295,36.95313 -2.0348,0 7.6159,-18.47656 16.784,-36.95313 C 1295.7801,267.47656 1304.4657,249 1302.355,249 c -2.0348,0 -10.7204,18.47656 -19.8886,36.95313 -9.1682,18.47656 -18.8189,36.95312 -20.9296,36.95312 -2.0348,0 7.6159,-18.47656 16.7841,-36.95313 C 1287.489,267.47656 1296.1746,249 1294.0639,249 c -2.0348,0 -10.7204,18.47656 -19.8885,36.95312 -9.1682,18.47657 -18.8189,36.95313 -20.9296,36.95313 -2.0348,0 7.6159,-18.47656 16.784,-36.95313 C 1279.198,267.47656 1287.8836,249 1285.7729,249 c -2.0348,0 -10.7204,18.47656 -19.8886,36.95312 -9.1681,18.47657 -18.8188,36.95313 -20.9296,36.95313 -2.0348,0 7.6159,-18.47656 16.7841,-36.95313 C 1270.907,267.47656 1279.5926,249 1277.4818,249 c -2.0348,0 -10.7204,18.47656 -19.8885,36.95312 -9.1682,18.47657 -18.8189,36.95313 -20.9296,36.95313 -2.0348,0 7.6159,-18.47656 16.7841,-36.95313 9.1681,-18.47656 17.8537,-36.95312 15.743,-36.95312 -2.0348,0 -10.7204,18.47656 -19.8886,36.95313 -9.1681,18.47656 -18.8188,36.95312 -20.9295,36.95312 -2.0348,0 7.6159,-18.47656 16.784,-36.95313 C 1254.3249,267.47656 1263.0105,249 1260.8998,249 c -1.9816,0 -15.4739,28.63281 -30.125,57.26563 -14.6511,28.63281 -30.4611,57.26562 -32.625,57.26562 -1.9816,0 13.8283,-28.63281 28.4795,-57.26563 C 1241.2804,277.63281 1254.7726,249 1252.6087,249 c -1.9816,0 -15.4738,28.63281 -30.125,57.26562 -14.6511,28.63282 -30.461,57.26563 -32.625,57.26563 -1.9816,0 13.8284,-28.63281 28.4795,-57.26562 C 1232.9893,277.63281 1246.4816,249 1244.3177,249 c -1.9816,0 -15.4739,28.63281 -30.125,57.26563 -14.6511,28.63281 -30.4611,57.26562 -32.625,57.26562 -1.9816,0 13.8284,-28.63281 28.4795,-57.26563 C 1224.6983,277.63281 1238.1906,249 1236.0267,249 c -1.9817,0 -15.4739,28.63281 -30.125,57.26563 -14.6512,28.63281 -30.4611,57.26562 -32.625,57.26562 -1.9816,0 13.8283,-28.63281 28.4794,-57.26563 C 1216.4073,277.63281 1229.8995,249 1227.7356,249 c -1.9816,0 -15.4739,28.63281 -30.125,57.26563 -14.6511,28.63281 -30.4611,57.26562 -32.625,57.26562 -1.9816,0 13.8284,-28.63281 28.4795,-57.26562 C 1208.1162,277.63281 1221.6085,249 1219.4446,249 c -1.9816,0 -15.4739,28.63281 -30.125,57.26562 -14.6511,28.63282 -30.4611,57.26563 -32.625,57.26563 -1.9816,0 13.8283,-28.63281 28.4795,-57.26563 C 1199.8252,277.63281 1213.3174,249 1211.1535,249 c -1.9816,0 -15.4738,28.63281 -30.125,57.26563 -14.6511,28.63281 -30.461,57.26562 -32.6249,57.26562 -1.9817,0 13.8283,-28.63281 28.4794,-57.26562 C 1191.5341,277.63281 1205.0264,249 1202.8625,249 c -1.9816,0 -15.4739,28.63281 -30.125,57.26563 -14.6511,28.63281 -30.4611,57.26562 -32.625,57.26562 -1.9816,0 13.8284,-28.63281 28.4795,-57.26562 C 1183.2431,277.63281 1196.7354,249 1194.5715,249 c -1.9817,0 -15.4739,28.63281 -30.125,57.26563 -14.6511,28.63281 -30.4611,57.26562 -32.625,57.26562 -1.9816,0 13.8283,-28.63281 28.4794,-57.26563 C 1174.9521,277.63281 1188.4443,249 1186.2804,249 c -1.9816,0 -15.4739,28.63281 -30.125,57.26562 -14.6511,28.63282 -30.4611,57.26563 -32.625,57.26563 -1.9816,0 13.8284,-28.63281 28.4795,-57.26563 C 1166.661,277.63281 1180.1533,249 1177.9894,249 c -1.9816,0 -15.4739,28.63281 -30.125,57.26563 -14.6511,28.63281 -30.4611,57.26562 -32.625,57.26562 -1.9816,0 13.8284,-28.63281 28.4795,-57.26562 C 1158.37,277.63281 1171.8622,249 1169.6983,249 c -1.9816,0 -15.4738,28.63281 -30.1249,57.26562 -14.6512,28.63282 -30.4611,57.26563 -32.625,57.26563 -1.9817,0 13.8283,-28.63281 28.4794,-57.26562 C 1150.0789,277.63281 1163.5712,249 1161.4073,249 c -1.9816,0 -15.4739,28.63281 -30.125,57.26562 -14.6511,28.63282 -30.4611,57.26563 -32.625,57.26563 -1.9816,0 13.8284,-28.63281 28.4795,-57.26563 C 1141.7879,277.63281 1155.2802,249 1153.1163,249 c -1.9816,0 -15.4739,28.63281 -30.125,57.26562 -14.6511,28.63282 -30.4611,57.26563 -32.625,57.26563 -1.9816,0 13.8283,-28.63281 28.4795,-57.26562 C 1133.4969,277.63281 1146.9891,249 1144.8252,249 c -1.9816,0 -15.4738,28.63281 -30.125,57.26563 -14.6511,28.63281 -30.461,57.26562 -32.625,57.26562 -1.9816,0 13.8284,-28.63281 28.4795,-57.26563 C 1125.2058,277.63281 1138.6981,249 1136.5342,249 c -1.9816,0 -15.4739,28.63281 -30.125,57.26562 -14.6511,28.63282 -30.4611,57.26563 -32.625,57.26563 -1.9816,0 13.8284,-28.63281 28.4795,-57.26563 C 1116.9148,277.63281 1130.4071,249 1128.2432,249 c -1.9817,0 -15.4739,28.63281 -30.125,57.26562 -14.6512,28.63282 -30.4611,57.26563 -32.625,57.26563 -1.9816,0 13.8283,-28.63281 28.4794,-57.26563 C 1108.6238,277.63281 1122.116,249 1119.9521,249 c -1.9816,0 -15.4739,28.63281 -30.125,57.26563 -14.6511,28.63281 -30.4611,57.26562 -32.625,57.26562 -1.9816,0 13.8284,-28.63281 28.4795,-57.26562 C 1100.3327,277.63281 1113.825,249 1111.6611,249 c -1.9816,0 -15.4739,28.63281 -30.125,57.26562 -14.6511,28.63282 -30.4611,57.26563 -32.625,57.26563 -1.9816,0 13.8283,-28.63281 28.4795,-57.26563 C 1092.0417,277.63281 1105.5339,249 1103.37,249 c -1.9816,0 -15.4738,28.63281 -30.125,57.26562 -14.6511,28.63282 -30.461,57.26563 -32.6249,57.26563 -1.9817,0 13.8283,-28.63281 28.4794,-57.26563 C 1083.7506,277.63281 1097.2429,249 1095.079,249 c -1.9816,0 -15.4739,28.63281 -30.125,57.26562 -14.6511,28.63282 -30.4611,57.26563 -32.625,57.26563 -1.9816,0 13.8284,-28.63281 28.4795,-57.26562 C 1075.4596,277.63281 1088.9519,249 1086.788,249 c -1.9817,0 -15.4739,28.63281 -30.125,57.26563 -14.6511,28.63281 -30.4611,57.26562 -32.625,57.26562 -1.9816,0 13.8283,-28.63281 28.4794,-57.26563 C 1067.1686,277.63281 1080.6608,249 1078.4969,249 c -1.9816,0 -15.4739,28.63281 -30.125,57.26562 -14.6511,28.63282 -30.4611,57.26563 -32.625,57.26563 -1.9816,0 13.8284,-28.63281 28.4795,-57.26563 C 1058.8775,277.63281 1072.3698,249 1070.2059,249 c -1.9816,0 -15.9921,28.63281 -30.6432,57.26562 -14.6322,28.59586 -30.034,57.26563 -30.034,57.26563 m 211.4214,0 c 0,0 1.6178,0.85775 1.6178,-6.67604 0,-7.5338 -3.6905,6.67604 -7.836,6.67604 -4.1456,0 7.8362,-14.20854 7.8362,-21.90471 0,-3.86012 -2.9414,1.64012 -6.4424,8.06629 -3.5075,6.4382 -7.6033,13.83842 -9.6849,13.83842 -2.0649,0 2.0648,-8.38355 6.6135,-16.7671 4.5503,-8.38682 9.5082,-16.7671 9.5082,-16.7671 m -214,27.78652 c 0,0 15.5191,-27.22916 29.3584,-54.39179 C 1051.7772,276.19589 1064.0698,249 1061.9148,249 c -1.9859,0 -14.3823,26.26054 -27.2206,51.5655 -12.8012,25.23161 -26.1261,49.72773 -26.1261,45.83209 0,-3.65129 13.1963,-28.34265 24.8768,-51.5655 C 1045.2114,271.43826 1055.7434,249 1053.6238,249 c -2.008,0 -12.5911,22.43861 -23.3542,43.90043 -10.742,21.41958 -21.7013,41.98906 -21.7013,38.03965 0,-3.78017 10.8487,-24.51921 20.4818,-43.90042 C 1038.7464,267.53143 1047.436,249 1045.3328,249 c -2.0272,0 -10.76,18.53182 -19.4478,36.06414 -8.6794,17.51546 -17.3164,34.082 -17.3164,30.06714 0,-3.91043 8.5457,-20.61841 16.1289,-36.06415 C 1032.3236,263.53382 1039.1317,249 1037.0417,249 c -2.0434,0 -8.8862,14.53426 -15.4984,28.04464 -6.6131,13.51246 -12.9744,25.99484 -12.9744,21.90143 0,-4.04227 6.2906,-16.63519 11.8211,-28.04464 5.5563,-11.46265 10.4409,-21.90143 8.3607,-21.90143 -2.0564,0 -6.9666,10.43928 -11.503,19.82845 -4.543,9.40293 -8.6785,17.71446 -8.6785,13.52779 0,-4.17597 4.0871,-12.56398 7.562,-19.82845 3.4866,-7.28895 6.4025,-13.52779 4.3284,-13.52779 -2.0659,0 -4.9976,6.23941 -7.458,11.40033 -2.4686,5.17823 -4.432,9.22608 -4.432,4.92947 0,-8.62783 7.7445,-16.3298 3.599,-16.3298 -4.1428,0 -3.6061,3.26746 -3.6061,3.26746 m 975.1632,111.26379 c 0,0 2.3422,-0.44628 2.3422,-7.99385 0,-3.78421 -1.1013,-1.76491 -2.714,1.16658 -1.6185,2.94191 -3.7708,6.82727 -5.8465,6.82727 -4.1455,0 8.5608,-15.54012 8.5608,-23.25098 0,-3.86737 -3.1155,1.96925 -6.7974,8.73392 -3.6884,6.7766 -7.9722,14.51706 -10.0544,14.51706 -2.0695,0 2.2318,-7.7401 6.9681,-16.46584 4.7522,-8.75511 9.8839,-18.4078 9.8839,-22.37977 0,-3.95029 -5.0788,5.77646 -10.8327,16.46584 -5.7581,10.69706 -12.2179,22.37977 -14.3104,22.37977 -2.0627,0 4.4244,-11.6823 11.2366,-24.3736 6.8428,-12.74823 13.9068,-26.33467 13.9068,-30.42759 0,-4.03304 -6.9876,9.66134 -14.8167,24.3736 -7.8276,14.70929 -16.5112,30.42759 -18.6177,30.42759 -2.0523,0 6.6689,-15.71783 15.5573,-32.46975 8.9379,-16.84503 17.8774,-34.44481 17.8774,-38.67427 0,-4.11571 -8.8379,13.62904 -18.7455,32.46976 -9.8968,18.82009 -20.8555,38.67426 -22.9802,38.67426 -2.038,0 8.9693,-19.85365 19.9343,-40.76844 11.0377,-21.0537 21.7918,-42.75182 21.7918,-47.13529 0,-4.19848 -10.6252,17.68529 -22.6149,40.76844 -11.9657,23.03708 -25.2547,47.13529 -27.4023,47.13529 -2.0194,0 11.3303,-24.09761 24.372,-49.28567 13.1429,-25.3835 25.6456,-51.27108 25.6456,-55.82829 0,-4.28155 -12.3444,21.83654 -26.4199,49.28567 -14.0344,27.36892 -29.7134,55.82829 -31.8887,55.82829 -1.9816,0 13.8283,-28.63281 28.4795,-57.26563 C 1970.8918,277.63281 1984.384,249 1982.2201,249 c -1.9816,0 -15.4739,28.63281 -30.125,57.26562 -14.6511,28.63282 -30.4611,57.26563 -32.625,57.26563 -1.9816,0 13.8284,-28.63281 28.4795,-57.26562 C 1962.6007,277.63281 1976.093,249 1973.9291,249 c -1.9816,0 -15.4739,28.63281 -30.125,57.26562 -14.6511,28.63282 -30.4611,57.26563 -32.625,57.26563 -1.9816,0 13.8284,-28.63281 28.4795,-57.26563 C 1954.3097,277.63281 1967.802,249 1965.638,249 c -1.9816,0 -15.992,28.63281 -30.6431,57.26563 -14.6322,28.59585 -30.0341,57.26562 -30.0341,57.26562 m -2.5858,-2.81394 c 0,0 15.9866,-27.96445 30.2299,-55.85866 C 1946.8661,276.92933 1959.5065,249 1957.347,249 c -1.9814,0 -14.7278,26.99771 -27.9715,53.04384 -13.203,25.96606 -26.995,51.22073 -26.995,47.33434 0,-3.62626 13.66,-29.08093 25.7401,-53.04383 C 1940.2916,272.19138 1951.1792,249 1949.056,249 c -2.0039,0 -12.9441,23.19172 -24.1127,45.41091 -11.1444,22.17131 -22.5625,43.51372 -22.5625,39.57569 0,-3.75489 11.3039,-25.27205 21.3371,-45.41091 C 1933.8186,268.30158 1942.8711,249 1940.7649,249 c -2.0348,0 -10.7204,18.47656 -19.8885,36.95312 -9.1682,18.47657 -18.8189,36.95313 -20.9296,36.95313 -2.0348,0 7.6159,-18.47656 16.784,-36.95313 C 1925.899,267.47656 1934.5846,249 1932.4739,249 c -2.0348,0 -10.7204,18.47656 -19.8886,36.95312 -9.1681,18.47657 -18.8188,36.95313 -20.9295,36.95313 -2.0349,0 7.6159,-18.47656 16.784,-36.95313 C 1917.608,267.47656 1926.2936,249 1924.1829,249 c -2.0349,0 -10.7205,18.47656 -19.8886,36.95313 -9.1682,18.47656 -18.8189,36.95312 -20.9296,36.95312 -2.0348,0 7.6159,-18.47656 16.7841,-36.95313 9.1681,-18.47656 17.8537,-36.95312 15.743,-36.95312 -2.0348,0 -10.7204,18.47656 -19.8885,36.95313 -9.1682,18.47656 -18.8189,36.95312 -20.9296,36.95312 -2.0348,0 7.6159,-18.47656 16.784,-36.95313 C 1901.0259,267.47656 1909.7115,249 1907.6008,249 c -2.0348,0 -10.7204,18.47656 -19.8886,36.95312 -9.1681,18.47657 -18.8188,36.95313 -20.9296,36.95313 -2.0348,0 7.6159,-18.47656 16.7841,-36.95313 9.1681,-18.47656 17.8538,-36.95312 15.743,-36.95312 -2.0348,0 -10.7204,18.47656 -19.8885,36.95312 -9.1682,18.47657 -18.8189,36.95313 -20.9296,36.95313 -2.0348,0 7.6159,-18.47656 16.7841,-36.95313 9.1681,-18.47656 17.8537,-36.95312 15.743,-36.95312 -2.0348,0 -10.7204,18.47656 -19.8886,36.95312 -9.1681,18.47657 -18.8188,36.95313 -20.9295,36.95313 -2.0348,0 7.6159,-18.47656 16.784,-36.95312 C 1876.1528,267.47656 1884.8384,249 1882.7277,249 c -2.0348,0 -10.7204,18.47656 -19.8886,36.95313 -9.1682,18.47656 -18.8189,36.95312 -20.9296,36.95312 -2.0348,0 7.6159,-18.47656 16.7841,-36.95313 9.1681,-18.47656 17.8537,-36.95312 15.743,-36.95312 -2.0348,0 -10.7204,18.47656 -19.8885,36.95313 -9.1682,18.47656 -18.8189,36.95312 -20.9296,36.95312 -2.0348,0 7.6159,-18.47656 16.784,-36.95312 C 1859.5707,267.47656 1868.2563,249 1866.1456,249 c -2.0348,0 -10.7204,18.47656 -19.8886,36.95312 -9.1681,18.47657 -18.8188,36.95313 -20.9296,36.95313 -2.0348,0 7.6159,-18.47656 16.7841,-36.95312 9.1682,-18.47657 17.8538,-36.95313 15.743,-36.95313 -2.0348,0 -10.7204,18.47656 -19.8885,36.95312 -9.1682,18.47657 -18.8189,36.95313 -20.9296,36.95313 -2.0348,0 7.6159,-18.47656 16.7841,-36.95313 9.1681,-18.47656 17.8537,-36.95312 15.743,-36.95312 -2.0348,0 -10.7204,18.47656 -19.8886,36.95313 -9.1681,18.47656 -18.8188,36.95312 -20.9295,36.95312 -2.0348,0 7.6159,-18.47656 16.784,-36.95312 C 1834.6976,267.47656 1843.3832,249 1841.2725,249 c -2.0348,0 -10.7204,18.47656 -19.8886,36.95312 -9.1682,18.47657 -18.8189,36.95313 -20.9296,36.95313 -2.0348,0 7.6159,-18.47656 16.7841,-36.95313 9.1681,-18.47656 17.8537,-36.95312 15.743,-36.95312 -2.0348,0 -10.7204,18.47656 -19.8885,36.95313 -9.1682,18.47656 -18.8189,36.95312 -20.9296,36.95312 -2.0348,0 7.6159,-18.47656 16.784,-36.95313 C 1818.1155,267.47656 1826.8011,249 1824.6904,249 c -2.0348,0 -10.7204,18.47656 -19.8886,36.95313 -9.1681,18.47656 -18.8188,36.95312 -20.9295,36.95312 -2.0349,0 7.6159,-18.47656 16.784,-36.95313 C 1809.8245,267.47656 1818.5101,249 1816.3994,249 c -2.0349,0 -11.2386,18.47656 -20.4068,36.95312 -9.1682,18.47657 -18.3386,36.95313 -18.3386,36.95313 m -1.2043,40.625 c 0,0 0.8995,2.14837 0.8995,-5.37181 0,-7.52019 -2.9722,5.37181 -7.1178,5.37181 -4.1455,0 7.118,-12.8907 7.118,-20.57236 0,-3.85291 -2.7686,1.31433 -6.0902,7.40556 -3.3282,6.10329 -7.2379,13.1668 -9.3188,13.1668 -2.0703,0 1.8554,-7.06314 6.2304,-15.10805 4.3889,-8.07029 9.1788,-17.0462 9.1789,-20.99863 0,-3.93591 -4.741,5.10848 -10.1341,15.10805 -5.398,10.00843 -11.4758,20.99863 -13.5662,20.99863 -1.9816,0 13.8283,-28.63281 28.4794,-57.26563 C 1796.78,277.63281 1810.2722,249 1808.1083,249 c -1.9816,0 -15.4739,28.63281 -30.125,57.26562 -14.6511,28.63282 -30.4611,57.26563 -32.625,57.26563 -1.9816,0 13.8284,-28.63281 28.4795,-57.26562 C 1788.4889,277.63281 1801.9812,249 1799.8173,249 c -1.9816,0 -15.4739,28.63281 -30.125,57.26562 -14.6511,28.63282 -30.4611,57.26563 -32.625,57.26563 -1.9816,0 13.8284,-28.63281 28.4795,-57.26563 C 1780.1979,277.63281 1793.6901,249 1791.5262,249 c -1.9816,0 -15.4738,28.63281 -30.125,57.26562 -14.6511,28.63282 -30.461,57.26563 -32.6249,57.26563 -1.9817,0 13.8283,-28.63281 28.4794,-57.26562 C 1771.9068,277.63281 1785.3991,249 1783.2352,249 c -1.9816,0 -15.4739,28.63281 -30.125,57.26562 -14.6511,28.63282 -30.4611,57.26563 -32.625,57.26563 -1.9816,0 13.8284,-28.63281 28.4795,-57.26563 C 1763.6158,277.63281 1777.1081,249 1774.9442,249 c -1.9817,0 -15.4739,28.63281 -30.125,57.26562 -14.6511,28.63282 -30.4611,57.26563 -32.625,57.26563 -1.9816,0 13.8283,-28.63281 28.4795,-57.26563 C 1755.3248,277.63281 1768.817,249 1766.6531,249 c -1.9816,0 -15.4739,28.63281 -30.125,57.26562 -14.6511,28.63282 -30.4611,57.26563 -32.625,57.26563 -1.9816,0 13.8284,-28.63281 28.4795,-57.26563 C 1747.0337,277.63281 1760.526,249 1758.3621,249 c -1.9816,0 -15.4739,28.63281 -30.125,57.26562 -14.6511,28.63282 -30.4611,57.26563 -32.625,57.26563 -1.9816,0 13.8284,-28.63281 28.4795,-57.26563 C 1738.7427,277.63281 1752.235,249 1750.071,249 c -1.9816,0 -15.4738,28.63281 -30.1249,57.26562 -14.6512,28.63282 -30.4611,57.26563 -32.625,57.26563 -1.9817,0 13.8283,-28.63281 28.4794,-57.26563 C 1730.4517,277.63281 1743.9439,249 1741.78,249 c -1.9816,0 -15.4739,28.63281 -30.125,57.26563 -14.6511,28.63281 -30.4611,57.26562 -32.625,57.26562 -1.9816,0 13.8284,-28.63281 28.4795,-57.26563 C 1722.1606,277.63281 1735.6529,249 1733.489,249 c -1.9816,0 -15.4739,28.63281 -30.125,57.26563 -14.6511,28.63281 -30.4611,57.26562 -32.625,57.26562 -1.9816,0 13.8283,-28.63281 28.4795,-57.26562 C 1713.8696,277.63281 1727.3618,249 1725.1979,249 c -1.9816,0 -15.4738,28.63281 -30.125,57.26562 -14.6511,28.63282 -30.461,57.26563 -32.625,57.26563 -1.9816,0 13.8284,-28.63281 28.4795,-57.26563 C 1705.5785,277.63281 1719.0708,249 1716.9069,249 c -1.9816,0 -15.4739,28.63281 -30.125,57.26563 -14.6511,28.63281 -30.4611,57.26562 -32.625,57.26562 -1.9816,0 13.8284,-28.63281 28.4795,-57.26562 C 1697.2875,277.63281 1710.7798,249 1708.6159,249 c -1.9817,0 -15.4739,28.63281 -30.125,57.26562 -14.6512,28.63282 -30.4611,57.26563 -32.625,57.26563 -1.9816,0 13.8283,-28.63281 28.4794,-57.26563 C 1688.9965,277.63281 1702.4887,249 1700.3248,249 c -1.9816,0 -15.4739,28.63281 -30.125,57.26562 -14.6511,28.63282 -30.4611,57.26563 -32.625,57.26563 -1.9816,0 13.8284,-28.63281 28.4795,-57.26563 C 1680.7054,277.63281 1694.1977,249 1692.0338,249 c -1.9816,0 -15.4739,28.63281 -30.125,57.26563 -14.6511,28.63281 -30.4611,57.26562 -32.625,57.26562 -1.9816,0 13.8283,-28.63281 28.4795,-57.26562 C 1672.4144,277.63281 1685.9066,249 1683.7427,249 c -1.9816,0 -15.4738,28.63281 -30.125,57.26562 -14.6511,28.63282 -30.461,57.26563 -32.6249,57.26563 -1.9817,0 13.8283,-28.63281 28.4794,-57.26563 C 1664.1233,277.63281 1677.6156,249 1675.4517,249 c -1.9816,0 -15.4739,28.63281 -30.125,57.26563 -14.6511,28.63281 -30.4611,57.26562 -32.625,57.26562 -1.9816,0 13.8284,-28.63281 28.4795,-57.26563 C 1655.8323,277.63281 1669.3246,249 1667.1607,249 c -1.9817,0 -15.4739,28.63281 -30.125,57.26562 -14.6511,28.63282 -30.4611,57.26563 -32.625,57.26563 -1.9816,0 13.8283,-28.63281 28.4794,-57.26563 C 1647.5413,277.63281 1661.0335,249 1658.8696,249 c -1.9816,0 -15.4739,28.63281 -30.125,57.26562 -14.6511,28.63282 -30.4611,57.26563 -32.625,57.26563 -1.9816,0 13.8284,-28.63281 28.4795,-57.26562 C 1639.2502,277.63281 1652.7425,249 1650.5786,249 c -1.9816,0 -15.4739,28.63281 -30.125,57.26563 -14.6511,28.63281 -30.4611,57.26562 -32.625,57.26562 -1.9816,0 13.8284,-28.63281 28.4795,-57.26562 C 1630.9592,277.63281 1644.4514,249 1642.2875,249 c -1.9816,0 -15.4738,28.63281 -30.1249,57.26562 -14.6512,28.63282 -30.4611,57.26563 -32.625,57.26563 -1.9817,0 13.8283,-28.63281 28.4794,-57.26563 C 1622.6681,277.63281 1636.1604,249 1633.9965,249 c -1.9816,0 -15.4739,28.63281 -30.125,57.26562 -14.6511,28.63282 -30.4611,57.26563 -32.625,57.26563 -1.9816,0 13.8284,-28.63281 28.4795,-57.26563 C 1614.3771,277.63281 1627.8694,249 1625.7055,249 c -1.9816,0 -15.9921,28.63281 -30.6432,57.26563 -14.6322,28.59585 -30.0341,57.26562 -30.0341,57.26562 m -1.6844,-4.44517 c 0,0 15.7263,-27.5556 29.7447,-55.04304 C 1607.1244,276.52152 1619.5714,249 1617.4144,249 c -1.9839,0 -14.5357,26.58783 -27.5538,52.22186 -12.9794,25.55773 -26.5113,50.39059 -26.5113,46.4991 0,-3.64018 13.4018,-28.6704 25.2596,-52.22186 11.9458,-23.72645 22.6357,-46.4991 20.5145,-46.4991 -2.0062,0 -12.7479,22.773 -23.6908,44.5711 -10.9204,21.7534 -22.083,42.66602 -22.083,38.72172 0,-3.76895 11.0504,-24.85345 20.8609,-44.57111 9.8756,-19.8483 18.7264,-38.72171 16.6219,-38.72171 -2.0257,0 -10.9204,18.87379 -19.7879,36.75012 -8.8582,17.85751 -17.6947,34.77399 -17.6947,30.7653 0,-3.89907 8.7434,-20.95953 16.5043,-36.75012 7.8055,-15.88138 14.7782,-30.7653 12.6872,-30.7653 -2.0421,0 -9.0503,14.88435 -15.8423,28.74702 -6.7924,13.86337 -13.3489,26.70294 -13.3489,22.6169 0,-4.03077 6.484,-16.98369 12.1925,-28.74702 5.7356,-11.81929 10.7886,-22.6169 8.7077,-22.6169 -2.0554,0 -7.1349,10.7981 -11.8511,20.54845 -4.7225,9.7634 -9.0487,18.43987 -9.0487,14.2619 0,-4.1643 4.2758,-12.92034 7.9289,-20.54844 3.666,-7.65483 6.7543,-14.26191 4.6798,-14.26191 -2.0652,0 -5.1703,6.60764 -7.8105,12.13934 -2.6485,5.54905 -4.7979,9.97013 -4.7979,5.68375 0,-8.60745 8.4629,-17.82309 4.3174,-17.82309 -4.1397,0 -4.3244,4.79217 -4.3244,4.79217 m -375.0289,400.36408 c 0,0 1.0655,1.85019 1.0655,-5.67315 0,-7.52334 -3.1383,5.67315 -7.2838,5.67315 -4.1455,0 7.284,-13.1952 7.284,-20.88023 0,-3.85459 -2.8086,1.38961 -6.1716,7.55823 -3.3697,6.18068 -7.3224,13.322 -9.4035,13.322 -2.0702,0 1.8987,-7.14096 6.3153,-15.26411 4.4307,-8.14899 9.2601,-17.20269 9.2601,-21.15732 0,-3.93754 -4.78,5.18528 -10.2146,15.26411 -5.4394,10.08756 -11.5612,21.15732 -13.6518,21.15732 -2.064,0 4.0834,-11.06936 10.576,-23.14401 6.5206,-12.1268 13.2907,-25.10246 13.2907,-29.17579 0,-4.0203 -6.6974,9.05789 -14.2068,23.14401 -7.5089,14.08525 -15.8469,29.17579 -17.9509,29.17579 -2.0542,0 6.3197,-15.09009 14.8884,-31.21028 8.615,-16.20712 17.2696,-33.18353 17.2696,-37.39087 0,-4.10299 -8.557,13.01247 -18.1444,31.21027 -9.5781,18.18039 -20.183,37.39088 -22.3047,37.39088 -2.0404,0 8.6114,-19.20997 19.2565,-39.47679 10.7141,-20.39799 21.1929,-41.45927 21.1929,-45.8178 0,-4.18572 -10.3543,17.05468 -22.0231,39.47679 -11.6472,22.38048 -24.5736,45.8178 -26.7173,45.8178 -2.0225,0 10.9626,-23.43673 23.6845,-47.95923 12.8183,-24.7085 25.0563,-49.94478 25.0563,-54.47385 0,-4.26872 -12.0843,21.19085 -25.8384,47.95924 -13.7158,26.69403 -29.0228,54.47384 -31.1935,54.47384 -1.9816,0 13.8284,-28.63281 28.4795,-57.26563 14.6511,-28.63281 28.1434,-57.26562 25.9795,-57.26562 -1.9816,0 -15.4739,28.63281 -30.125,57.26562 -14.6511,28.63282 -30.4611,57.26563 -32.625,57.26563 -1.9816,0 13.8284,-28.63281 28.4795,-57.26563 14.6511,-28.63281 28.1434,-57.26562 25.9795,-57.26562 -1.9817,0 -15.4739,28.63281 -30.125,57.26562 -14.6512,28.63282 -30.4611,57.26563 -32.625,57.26563 -1.9816,0 13.8283,-28.63281 28.4794,-57.26562 14.6512,-28.63282 28.1434,-57.26563 25.9795,-57.26563 -1.9816,0 -15.4739,28.63281 -30.125,57.26563 -14.6511,28.63281 -30.4611,57.26562 -32.625,57.26562 -1.9816,0 13.8284,-28.63281 28.4795,-57.26563 14.6511,-28.63281 28.1434,-57.26562 25.9795,-57.26562 -1.9816,0 -15.4739,28.63281 -30.125,57.26563 -14.6511,28.63281 -30.4611,57.26562 -32.625,57.26562 -1.9816,0 13.8284,-28.63281 28.4795,-57.26563 14.6511,-28.63281 28.1433,-57.26562 25.9794,-57.26562 -1.9816,0 -15.4738,28.63281 -30.125,57.26562 -14.6511,28.63282 -30.461,57.26563 -32.6249,57.26563 -1.9817,0 13.8283,-28.63281 28.4794,-57.26563 14.6511,-28.63281 28.1434,-57.26562 25.9795,-57.26562 -1.9816,0 -15.4739,28.63281 -30.125,57.26562 -14.6511,28.63282 -30.4611,57.26563 -32.625,57.26563 -1.9816,0 13.8284,-28.63281 28.4795,-57.26563 14.6511,-28.63281 28.1434,-57.26562 25.9795,-57.26562 -1.9709,0 -15.762,29.22071 -30.426,57.85353 -14.6222,28.55123 -30.2224,56.7593 -31.0202,54.32611 -0.7306,-2.22848 14.7513,-30.51964 28.6765,-57.85353 13.9879,-27.457 26.625,-54.32611 24.4786,-54.32611 -1.9843,0 -14.5053,26.52299 -27.4878,52.09183 -12.944,25.49312 -26.4348,50.25926 -26.4348,46.36696 0,-3.6424 13.361,-28.60547 25.1836,-52.09183 11.9102,-23.66055 22.5689,-46.36696 20.448,-46.36696 -2.0066,0 -12.7168,22.70675 -23.6241,44.43823 -10.8851,21.68726 -22.0073,42.53189 -22.0073,38.58658 0,-3.77118 11.0104,-24.78722 20.7858,-44.43823 9.84,-19.78093 18.6588,-38.58658 16.5545,-38.58658 -2.0259,0 -10.8885,18.80604 -19.7204,36.61421 -8.8227,17.78975 -17.6196,34.63689 -17.6196,30.62697 0,-3.90133 8.7041,-20.89194 16.4298,-36.61421 7.7699,-15.81242 14.71,-30.62697 12.6192,-30.62697 -2.0424,0 -9.0178,14.81499 -15.7741,28.60786 -6.7569,13.79384 -13.2746,26.56264 -13.2746,22.47514 0,-4.03306 6.4456,-16.91464 12.1188,-28.60786 5.7,-11.74863 10.7196,-22.47514 8.6389,-22.47514 -2.0557,0 -7.1015,10.72701 -11.7821,20.40579 -4.687,9.69199 -8.9753,18.29615 -8.9753,14.11646 0,-4.16661 4.2383,-12.84972 7.8562,-20.40579 3.6303,-7.58234 6.6845,-14.11646 4.6101,-14.11646 -2.0654,0 -5.1361,6.53468 -7.7406,11.99293 -2.6129,5.47559 -4.7253,9.82272 -4.7253,5.53433 0,-8.61146 8.3204,-17.52726 4.1749,-17.52726 -4.1404,0 -4.182,4.49016 -4.182,4.49016 m 367.0937,108.69661 c 0,0 1.3273,1.34448 -2.8187,1.34448 -4.1455,0 2.8242,-5.06351 2.8242,-12.66028 0,-3.80987 -1.7272,-0.62185 -3.9771,3.48135 -2.2563,4.11466 -5.0608,9.17893 -7.1382,9.17893 -4.1455,0 11.1155,-20.25571 11.1155,-28.01906 0,-3.89295 -3.726,3.13436 -8.046,11.09827 -4.3261,7.97519 -9.2755,16.92079 -11.3605,16.92079 -2.0678,0 2.9021,-8.94522 8.278,-18.88312 5.3959,-9.97489 11.1288,-20.83149 11.1288,-24.83917 0,-3.9758 -5.6729,6.96499 -12.0659,18.88313 -6.3958,11.92324 -13.5356,24.83916 -15.6319,24.83916 -2.06,0 5.1102,-12.91549 12.5621,-26.84752 7.4879,-13.99914 15.136,-28.81348 15.136,-32.94672 0,-4.05851 -7.5642,10.87481 -16.0334,26.84752 -8.4651,15.96509 -17.8441,32.94672 -19.9558,32.94672 -2.0483,0 7.3716,-16.98115 16.8998,-35.00449 9.5844,-18.1295 19.0897,-36.98275 19.0897,-41.25769 0,-4.1412 -9.3955,14.86914 -19.9443,35.00449 -10.5343,20.10774 -22.2049,41.25769 -24.3362,41.25769 -2.0327,0 9.6901,-21.1494 21.2949,-43.36872 11.6858,-22.37444 22.986,-45.35342 22.986,-49.7882 0,-4.22403 -11.1624,18.95394 -23.7944,43.36871 -12.6032,24.35915 -26.622,49.78821 -28.7776,49.78821 -2.0119,0 12.0962,-25.4762 25.777,-52.0046 13.7861,-26.73283 26.7991,-53.90457 26.7054,-58.31783 -0.088,-4.11687 -12.9353,23.27984 -27.6104,52.0046 -14.6282,28.63281 -30.9797,58.31783 -33.163,58.31783 -1.9816,0 13.8284,-28.63281 28.4795,-57.26563 14.6511,-28.63281 28.1434,-57.26562 25.9794,-57.26562 -1.9816,0 -15.4738,28.63281 -30.1249,57.26562 -14.6512,28.63282 -30.4611,57.26563 -32.625,57.26563 -1.9816,0 13.8283,-28.63281 28.4794,-57.26563 14.6512,-28.63281 28.1434,-57.26562 25.9795,-57.26562 -1.9816,0 -15.4739,28.63281 -30.125,57.26562 -14.6511,28.63282 -30.4611,57.26563 -32.625,57.26563 -1.9816,0 13.8284,-28.63281 28.4795,-57.26563 14.6511,-28.63281 28.1434,-57.26562 25.9795,-57.26562 -1.9816,0 -15.4739,28.63281 -30.125,57.26563 -14.6511,28.63281 -30.4611,57.26562 -32.625,57.26562 -1.9816,0 13.8283,-28.63281 28.4795,-57.26563 14.6511,-28.63281 28.1433,-57.26562 25.9794,-57.26562 -1.9816,0 -15.4738,28.63281 -30.125,57.26563 -14.6511,28.63281 -30.461,57.26562 -32.6249,57.26562 -1.9817,0 13.8283,-28.63281 28.4794,-57.26562 14.6511,-28.63282 28.1434,-57.26563 25.9795,-57.26563 -1.9816,0 -15.4739,28.63281 -30.125,57.26562 -14.6511,28.63282 -30.4611,57.26563 -32.625,57.26563 -1.9816,0 13.8284,-28.63281 28.4795,-57.26563 14.6511,-28.63281 28.1434,-57.26562 25.9795,-57.26562 -1.9817,0 -15.4739,28.63281 -30.125,57.26562 -14.6511,28.63282 -30.4611,57.26563 -32.625,57.26563 -1.9816,0 13.8283,-28.63281 28.4794,-57.26562 14.6512,-28.63282 28.1434,-57.26563 25.9795,-57.26563 -1.9713,0 -15.4519,28.54268 -29.5505,56.14203 -14.0502,27.50453 -28.8321,54.35019 -28.8321,50.48203 0,-3.57363 14.6429,-30.62906 27.5657,-56.14203 13.0239,-25.71268 24.657,-50.48203 22.5259,-50.48203 -1.995,0 -13.6837,24.76968 -25.7072,48.57561 -11.993,23.74545 -24.3841,46.70863 -24.3841,42.79318 0,-3.70175 12.2694,-26.85035 23.1463,-48.57561 10.9536,-21.87846 20.7668,-42.79318 18.6539,-42.79318 -2.0158,0 -11.877,20.91509 -21.8253,40.84465 -9.9325,19.89801 -19.9747,38.90514 -19.9747,34.93149 0,-3.83115 9.939,-22.9971 18.7675,-40.84465 8.8835,-17.95851 16.8391,-34.93149 14.7415,-34.93149 -2.0339,0 -10.0295,16.97339 -17.9023,32.93792 -7.8686,15.95591 -15.6064,30.92882 -15.6064,26.88476 0,-3.962 7.6544,-19.06457 14.432,-32.93793 6.8134,-13.9468 12.8714,-26.88475 10.7857,-26.88475 -2.0489,0 -8.1382,12.93841 -13.9353,24.84288 -5.8009,11.91204 -11.282,22.76744 -11.282,18.63926 0,-4.09453 5.419,-15.04749 10.1428,-24.84288 4.7436,-9.8366 8.8608,-18.63926 6.7834,-18.63926 -2.0606,0 -6.1996,8.80319 -9.9209,16.54539 -3.729,7.75839 -7.005,14.40726 -7.005,10.17953 0,-8.48782 12.7804,-26.72492 8.6349,-26.72492 -2.0687,0 -4.2103,4.55987 -5.8554,8.02948 -1.6528,3.48585 -2.7791,5.83274 -2.7791,1.48794 0,-8.72207 2.4162,-9.51742 2.4162,-9.51742 m 364.2385,114.53125 c 0,0 0.4372,2.97782 0.4372,-4.53368 0,-7.51149 -2.5099,4.53368 -6.6555,4.53368 -4.1455,0 6.6557,-12.0439 6.6557,-19.7163 0,-3.84829 -2.6571,1.10495 -5.8633,6.98099 -3.2127,5.88813 -7.003,12.73531 -9.0834,12.73531 -2.0706,0 1.7351,-6.84682 5.9944,-14.67416 4.2725,-7.85149 8.9526,-16.61104 8.9526,-20.55725 0,-3.93126 -4.6324,4.89499 -9.91,14.67416 -5.2825,9.78837 -11.2383,20.55725 -13.328,20.55725 -2.0646,0 3.9161,-10.76848 10.2513,-22.54046 6.362,-11.82183 12.9869,-24.49757 12.9869,-28.56138 0,-4.01403 -6.554,8.76159 -13.906,22.54046 -7.3521,13.77894 -15.5204,28.56138 -17.6233,28.56138 -2.055,0 6.1484,-14.78199 14.5597,-30.59213 8.4561,-15.89413 16.9699,-32.56445 16.9699,-36.76106 0,-4.09672 -8.4181,12.70977 -17.8479,30.59213 -9.4213,17.86645 -19.8525,36.76106 -21.9727,36.76106 -2.0416,0 8.4356,-18.8941 18.9234,-38.84294 10.5548,-20.07631 20.8976,-40.82493 20.8976,-45.17135 0,-4.17945 -10.2204,16.74512 -21.7313,38.84293 -11.4904,22.05831 -24.2388,45.17136 -26.3808,45.17136 -2.024,0 10.7822,-23.11247 23.3467,-47.30842 12.6587,-24.37741 24.7658,-49.29397 24.7658,-53.80938 0,-4.26242 -11.9557,20.87394 -25.5516,47.30842 -13.5591,26.36295 -28.6834,53.80938 -30.8519,53.80938 -1.9827,0 13.7689,-28.52435 28.387,-57.08485 14.6213,-28.5669 28.098,-57.15076 26.0043,-57.30178 -1.9185,-0.13837 -15.3853,28.44579 -30.0388,57.08485 -14.6504,28.63281 -30.479,57.30178 -32.6435,57.30178 -1.9817,0 13.8283,-28.63281 28.4794,-57.26563 14.6512,-28.63281 28.1434,-57.26562 25.9795,-57.26562 -1.9816,0 -15.4739,28.63281 -30.125,57.26562 -14.6511,28.63282 -30.4611,57.26563 -32.625,57.26563 -1.9816,0 13.8284,-28.63281 28.4795,-57.26563 14.6511,-28.63281 28.1434,-57.26562 25.9795,-57.26562 -1.9816,0 -15.4739,28.63281 -30.125,57.26562 -14.6511,28.63282 -30.4611,57.26563 -32.625,57.26563 -1.9816,0 13.8283,-28.63281 28.4795,-57.26562 14.6511,-28.63282 28.1433,-57.26563 25.9794,-57.26563 -1.9816,0 -15.4738,28.63281 -30.125,57.26562 -14.6511,28.63282 -30.461,57.26563 -32.625,57.26563 -1.9816,0 13.8284,-28.63281 28.4795,-57.26563 14.6511,-28.63281 28.1434,-57.26562 25.9795,-57.26562 -1.9816,0 -15.4739,28.63281 -30.125,57.26562 -14.6511,28.63282 -30.4611,57.26563 -32.625,57.26563 -1.9816,0 13.8284,-28.63281 28.4795,-57.26563 14.6511,-28.63281 28.1434,-57.26562 25.9795,-57.26562 -1.9817,0 -15.4739,28.63281 -30.125,57.26563 -14.6512,28.63281 -30.4611,57.26562 -32.625,57.26562 -1.9816,0 13.8283,-28.63281 28.4794,-57.26563 14.6512,-28.63281 28.1434,-57.26562 25.9795,-57.26562 -1.9734,0 -15.6922,29.07847 -30.3531,57.71129 -14.6269,28.56658 -30.2826,56.88619 -31.4081,55.03731 -1.0305,-1.69276 14.5269,-30.05968 28.629,-57.71128 14.1479,-27.74149 26.9917,-55.03732 24.8412,-55.03732 -1.9826,0 -14.6394,26.80892 -27.7791,52.66523 -13.0999,25.778 -26.772,50.83836 -26.772,46.94964 0,-3.63268 13.5409,-28.89183 25.5186,-52.66523 12.0672,-23.95112 22.8637,-46.94964 20.7414,-46.94964 -2.0049,0 -12.8537,22.99886 -23.9182,45.0241 -11.0412,21.97883 -22.3415,43.12326 -22.3415,39.18236 0,-3.76137 11.187,-25.07924 21.1176,-45.0241 9.9969,-20.07799 18.9565,-39.18236 16.8511,-39.18236 -2.0246,0 -11.0286,19.10475 -20.0177,37.2134 -8.9792,18.08848 -17.9507,35.24135 -17.9507,31.23677 0,-3.89142 8.8773,-21.18997 16.7583,-37.2134 7.9269,-16.11644 15.0107,-31.23677 12.9191,-31.23677 -2.0413,0 -9.1612,15.12076 -16.0748,29.22131 -6.9135,14.10029 -13.6024,27.18112 -13.6024,23.1 0,-4.02302 6.6151,-17.21907 12.4439,-29.22131 5.8569,-12.06011 11.0236,-23.1 8.9422,-23.1 -2.0547,0 -7.2484,11.04038 -12.0863,21.03458 -4.8439,10.00676 -9.2994,18.92969 -9.2994,14.75755 0,-4.15642 4.4037,-13.161 8.1774,-21.03458 3.7872,-7.90186 6.992,-14.75755 4.9173,-14.75755 -2.0648,0 -5.2869,6.85624 -8.0488,12.63827 -2.7702,5.79936 -5.0456,10.4725 -5.0456,6.19298 0,-8.59372 8.9489,-18.83125 4.8033,-18.83125 -4.1369,0 -4.8103,5.82152 -4.8103,5.82152 m 367.0937,108.49792 c 0,0 1.9552,0.21181 -2.1904,0.21181 -4.1455,0 2.1959,-3.92512 2.1959,-11.5097 0,-3.80356 -1.5737,-0.90361 -3.6669,2.91063 -2.0994,3.8255 -4.7431,8.59907 -6.82,8.59907 -4.1455,0 10.4871,-19.09295 10.4871,-26.84329 0,-3.88666 -3.5763,2.84714 -7.7393,10.51527 -4.1693,7.67961 -8.9546,16.32802 -11.0388,16.32802 -2.0683,0 2.7367,-8.64803 7.9553,-18.287 5.2376,-9.67401 10.8231,-20.23382 10.8231,-24.2326 0,-3.96952 -5.5273,6.67197 -11.7631,18.287 -6.2389,11.62084 -13.211,24.2326 -15.3064,24.2326 -2.0606,0 4.9411,-12.61134 12.2357,-26.23735 7.3291,-13.69054 14.8341,-28.20215 14.8341,-32.32534 0,-4.05224 -7.4229,10.57561 -15.7346,26.23735 -8.3084,15.65534 -17.5159,32.32534 -19.6262,32.32534 -2.0493,0 7.1982,-16.66953 16.5691,-34.37924 9.4253,-17.81256 18.792,-36.35675 18.792,-40.62035 0,-4.13493 -9.259,14.56334 -19.65,34.37924 -10.3775,19.79008 -21.8725,40.62035 -24.0022,40.62035 -2.034,0 9.5124,-20.82973 20.9598,-42.7272 11.5263,-22.0485 22.6928,-44.71163 22.6928,-49.13361 0,-4.21775 -11.0309,18.64105 -23.5049,42.72719 -12.4464,24.03294 -26.2851,49.13362 -28.4387,49.13362 -2.0144,0 11.8879,-25.10006 25.4122,-51.29772 13.6328,-26.40793 26.5317,-53.28264 26.5317,-57.88331 0,-4.30092 -12.7333,22.81539 -27.294,51.29772 -14.515,28.39286 -30.7585,57.88331 -32.9409,57.88331 -1.9817,0 13.8283,-28.63281 28.4794,-57.26563 14.6511,-28.63281 28.1434,-57.26562 25.9795,-57.26562 -1.9816,0 -15.4739,28.63281 -30.125,57.26562 -14.6511,28.63282 -30.4611,57.26563 -32.625,57.26563 -1.9816,0 13.8284,-28.63281 28.4795,-57.26563 14.6511,-28.63281 28.1434,-57.26562 25.9795,-57.26562 -1.9816,0 -15.4739,28.63281 -30.125,57.26562 -14.6511,28.63282 -30.4611,57.26563 -32.625,57.26563 -1.9816,0 13.8283,-28.63281 28.4795,-57.26563 14.6511,-28.63281 28.1433,-57.26562 25.9794,-57.26562 -1.9816,0 -15.4738,28.63281 -30.125,57.26562 -14.6511,28.63282 -30.4611,57.26563 -32.625,57.26563 -1.9816,0 13.8284,-28.63281 28.4795,-57.26563 14.6511,-28.63281 28.1434,-57.26562 25.9795,-57.26562 -1.9816,0 -15.4739,28.63281 -30.125,57.26563 -14.6511,28.63281 -30.4611,57.26562 -32.625,57.26562 -1.9816,0 13.8284,-28.63281 28.4795,-57.26562 14.6511,-28.63282 28.1434,-57.26563 25.9794,-57.26563 -1.9816,0 -15.4738,28.63281 -30.1249,57.26562 -14.6512,28.63282 -30.4611,57.26563 -32.625,57.26563 -1.9816,0 13.8283,-28.63281 28.4794,-57.26562 14.6512,-28.63282 28.1434,-57.26563 25.9795,-57.26563 -1.9816,0 -15.4739,28.63281 -30.125,57.26563 -14.6511,28.63281 -30.4611,57.26562 -32.625,57.26562 -1.9816,0 13.8284,-28.63281 28.4795,-57.26562 14.6511,-28.63282 28.1434,-57.26563 25.9795,-57.26563 -1.9694,0 -15.5844,28.82545 -29.8403,56.70905 -14.2061,27.78597 -29.1707,54.92299 -29.1707,51.05799 0,-3.56398 14.8244,-30.91252 27.9022,-56.70905 13.1808,-25.99992 24.9503,-51.05799 22.8177,-51.05799 -1.9932,0 -13.8189,25.0584 -25.9997,49.15465 -12.149,24.03335 -24.7199,47.29327 -24.7199,43.38178 0,-3.692 12.4478,-27.13927 23.4799,-49.15465 11.1105,-22.17196 21.0628,-43.38178 18.9487,-43.38178 -2.0144,0 -12.0154,21.21018 -22.1209,41.43654 -10.0888,20.19282 -20.3075,39.50243 -20.3075,35.5336 0,-3.82128 10.1141,-23.29182 19.0979,-41.43653 9.0403,-18.25872 17.1381,-35.53361 15.0395,-35.53361 -2.0327,0 -10.1711,17.2753 -18.2012,33.54357 -8.0251,16.25813 -15.9359,31.53963 -15.9359,27.50137 0,-3.95202 7.8258,-19.36548 14.7589,-33.54357 6.9703,-14.2542 13.1736,-27.50137 11.0871,-27.50137 -2.0479,0 -8.2831,13.24763 -14.2376,25.46329 -5.9576,12.22226 -11.6081,23.39276 -11.6081,19.27148 0,-4.08441 5.5867,-15.35502 10.4662,-25.46329 4.9005,-10.15172 9.1663,-19.27148 7.0885,-19.27148 -2.0598,0 -6.3483,9.12028 -10.2269,17.1817 -3.8862,8.07724 -7.3274,15.04818 -7.3274,10.82858 -10e-5,-8.47083 13.4088,-28.01028 9.2632,-28.01028 -2.0682,0 -4.3629,4.88546 -6.1654,8.68295 -1.8103,3.81405 -3.0975,6.49049 -3.0975,2.15522 0,-8.70366 3.0447,-10.83817 3.0447,-10.83817 m -772.4893,237.96449 c 0,0 0.4963,2.84801 -3.6513,2.84801 -4.1455,0 3.6568,-6.57463 3.6568,-14.18764 0,-3.8182 -1.9301,-0.24788 -4.3878,4.23895 -2.4642,4.49853 -5.4821,9.94869 -7.56,9.94869 -4.1456,0 11.948,-21.79927 11.948,-29.57995 0,-3.90127 -3.9239,3.51557 -8.4519,11.87222 -4.534,8.36757 -9.7012,17.70773 -11.7872,17.70773 -2.0671,0 3.1215,-9.33978 8.7059,-19.67455 5.6058,-10.37441 11.5335,-21.6249 11.5335,-25.64451 0,-3.98412 -5.8654,7.35392 -12.4668,19.67455 -6.6035,12.32476 -13.9659,25.64451 -16.0636,25.64451 -2.0589,0 5.3348,-13.31932 12.9952,-27.65768 7.6982,-14.40896 15.5355,-29.62511 15.5355,-33.77183 0,-4.06682 -7.7508,11.27198 -16.4287,27.65768 -8.6729,16.3764 -18.2796,33.77183 -20.3931,33.77183 -2.0469,0 7.6018,-17.39494 17.3385,-35.83478 9.7951,-18.55043 19.4836,-37.81395 19.4836,-42.1041 0,-4.14952 -9.5759,15.27513 -20.3337,35.83477 -10.7421,20.52961 -22.6459,42.10411 -24.7794,42.10411 -2.0309,0 9.9263,-21.57394 21.7397,-44.22071 11.8971,-22.80741 23.3738,-46.20572 23.3738,-50.65765 0,-4.23237 -11.3361,19.36937 -24.1774,44.22071 -12.8109,24.79241 -27.0689,50.65765 -29.2271,50.65765 -1.9919,0 12.3854,-26.96773 26.253,-53.93546 13.8845,-27.00061 27.1445,-53.93546 27.1445,-53.93546 m -1.0114,-6.66033 c 0,0 -12.864,28.59585 -27.534,57.26563 -14.6511,28.63281 -30.9793,57.26562 -33.1432,57.26562 -1.98159,0 13.8284,-28.63281 28.4795,-57.26563 14.6511,-28.63281 28.1434,-57.26562 25.9795,-57.26562 -1.9816,0 -15.4739,28.63281 -30.125,57.26562 -14.6511,28.63282 -30.46111,57.26563 -32.62501,57.26563 -1.98162,0 13.82831,-28.63281 28.47951,-57.26563 14.6511,-28.63281 28.1433,-57.26562 25.9794,-57.26562 -1.9816,0 -15.4738,28.63281 -30.125,57.26563 -14.6511,28.63281 -30.46105,57.26562 -32.62495,57.26562 -1.98162,0 13.82835,-28.63281 28.47945,-57.26563 14.6511,-28.63281 28.1434,-57.26562 25.9795,-57.26562 -1.9816,0 -15.4739,28.63281 -30.125,57.26563 -14.65112,28.63281 -30.46109,57.26562 -32.62499,57.26562 -1.98162,0 13.82835,-28.63281 28.47949,-57.26562 14.6511,-28.63282 28.1434,-57.26563 25.9795,-57.26563 -1.9817,0 -15.4739,28.63281 -30.125,57.26563 -14.65116,28.63281 -30.46113,57.26562 -32.62503,57.26562 -1.98161,0 13.82836,-28.63281 28.47947,-57.26563 14.65116,-28.63281 28.14336,-57.26562 25.97946,-57.26562 -1.9816,0 -15.4739,28.63281 -30.12498,57.26563 -14.65111,28.63281 -30.46108,57.26562 -32.62499,57.26562 -1.98161,0 13.82836,-28.63281 28.47947,-57.26563 14.6511,-28.63281 28.1434,-57.26562 25.9795,-57.26562 -1.9816,0 -15.4739,28.63281 -30.12502,57.26563 -14.65111,28.63281 -30.46108,57.26562 -32.62499,57.26562 -1.98161,0 13.82836,-28.63281 28.47947,-57.26562 14.65112,-28.63282 28.14334,-57.26563 25.97944,-57.26563 -1.9738,0 -15.27594,28.16734 -29.16623,55.38935 -13.84377,27.13087 -28.38372,53.58985 -28.38372,49.71741 0,-3.58644 14.40265,-30.25284 27.1201,-55.38935 12.81604,-25.33137 24.26796,-49.71741 22.13885,-49.71741 -1.99717,0 -13.504,24.38637 -25.31916,47.80689 -11.78623,23.36318 -23.93955,45.93249 -23.93955,42.01172 0,-3.71468 12.03345,-26.46685 22.70477,-47.80688 10.7457,-21.4888 20.37405,-42.01173 18.2629,-42.01173 -2.01783,0 -11.69344,20.5233 -21.4333,40.05881 -9.72542,19.50655 -19.53411,38.11218 -19.53411,34.13204 0,-3.84421 9.70743,-22.60586 18.33013,-40.05881 8.67554,-17.55992 16.44251,-34.13204 14.34624,-34.13204 -2.03558,0 -9.84165,16.57254 -17.50604,32.13378 -7.6611,15.55457 -15.17004,30.11786 -15.17004,26.066 0,-3.97522 7.42762,-18.66509 13.99905,-32.13378 6.60558,-13.53865 12.47069,-26.066 10.38599,-26.066 -2.05024,0 -7.94569,12.52782 -13.5344,24.01908 -5.59299,11.50006 -10.85033,21.93718 -10.85033,17.79974 0,-4.10794 5.19745,-14.63923 9.71481,-24.01909 4.53581,-9.41814 8.45557,-17.79973 6.37888,-17.79973 -2.06157,0 -6.00224,8.38212 -9.51504,15.70042 -3.52077,7.3349 -6.5783,13.55621 -6.5783,9.31755 0,-8.51052 11.94782,-25.01797 7.8023,-25.01797 -2.06932,0 -4.00753,4.12747 -5.44417,7.1616 -1.44409,3.04985 -2.35774,4.9592 -2.35774,0.60157 0,-8.74671 1.58364,-7.76317 1.58364,-7.76317 M 1314.3919,780.4375 c 0,0 1.2697,1.48349 1.2697,-6.04374 0,-7.52723 -3.3424,6.04374 -7.4879,6.04374 -4.1456,0 7.4882,-13.56967 7.4882,-21.25883 0,-3.85664 -2.8578,1.48219 -6.2718,7.74598 -3.4206,6.27585 -7.4263,13.51285 -9.5075,13.51285 -2.0701,0 1.9519,-7.23664 6.4196,-15.45602 4.4821,-8.24577 9.3599,-17.39515 9.3599,-21.35253 0,-3.93958 -4.8278,5.2797 -10.3135,15.45602 -5.4904,10.18489 -11.6661,21.35253 -13.757,21.35253 -2.0638,0 4.1378,-11.16724 10.6815,-23.34036 6.5722,-12.22601 13.3893,-25.29923 13.3893,-29.37566 0,-4.02234 -6.7439,9.15426 -14.3044,23.34036 -7.5598,14.18489 -15.953,29.37566 -18.0575,29.37566 -2.0538,0 6.3755,-15.19032 14.9954,-31.41137 8.6665,-16.30896 17.3668,-33.38492 17.3668,-37.59577 0,-4.10501 -8.602,13.11094 -18.2406,31.41137 -9.6291,18.28252 -20.2904,37.59577 -22.4126,37.59577 -2.04,0 8.6685,-19.31273 19.3648,-39.68299 10.7658,-20.50265 21.2887,-41.66562 21.2887,-46.0281 0,-4.18775 -10.3977,17.15538 -22.1178,39.68299 -11.6981,22.48529 -24.6824,46.0281 -26.8267,46.0281 -2.0221,0 11.0212,-23.54222 23.7943,-48.17095 12.8702,-24.81622 25.1506,-50.15649 25.1506,-54.69001 0,-4.27077 -12.126,21.29393 -25.9314,48.17095 -13.7668,26.80175 -29.1332,54.69001 -31.3046,54.69001 -1.9816,0 13.8284,-28.63281 28.4795,-57.26563 14.6511,-28.63281 28.1434,-57.26562 25.9795,-57.26562 -1.9817,0 -15.4739,28.63281 -30.125,57.26562 -14.6511,28.63282 -30.4611,57.26563 -32.625,57.26563 -1.9816,0 13.8283,-28.63281 28.4795,-57.26563 14.6511,-28.63281 28.1433,-57.26562 25.9794,-57.26562 -1.9816,0 -15.4739,28.63281 -30.125,57.26562 -14.6511,28.63282 -30.4611,57.26563 -32.625,57.26563 -1.9816,0 13.8284,-28.63281 28.4795,-57.26563 14.6511,-28.63281 28.1434,-57.26562 25.9795,-57.26562 -1.9816,0 -15.4739,28.63281 -30.125,57.26563 -14.6511,28.63281 -30.4611,57.26562 -32.625,57.26562 -1.9816,0 13.8284,-28.63281 28.4795,-57.26563 14.6511,-28.63281 28.1434,-57.26562 25.9794,-57.26562 -1.9816,0 -15.4738,28.63281 -30.1249,57.26563 -14.6512,28.63281 -30.4611,57.26562 -32.625,57.26562 -1.9816,0 13.8283,-28.63281 28.4794,-57.26562 14.6512,-28.63282 28.1434,-57.26563 25.9795,-57.26563 -1.9816,0 -15.4739,28.63281 -30.125,57.26562 -14.6511,28.63282 -30.4611,57.26563 -32.625,57.26563 -1.9816,0 13.8284,-28.63281 28.4795,-57.26563 14.6511,-28.63281 28.1434,-57.26562 25.9795,-57.26562 -1.9816,0 -15.4739,28.63281 -30.125,57.26562 -14.6511,28.63282 -30.4611,57.26563 -32.625,57.26563 -1.9816,0 13.8283,-28.63281 28.4795,-57.26562 14.6511,-28.63282 28.1433,-57.26563 25.9794,-57.26563 -1.9816,0 -15.992,28.63281 -30.6431,57.26563 -14.6323,28.59585 -30.0341,57.26562 -30.0341,57.26562 m -1.3379,-5.07327 c 0,0 15.6263,-27.39818 29.5583,-54.72899 13.9492,-27.3645 26.3218,-54.72899 24.1658,-54.72899 -1.9849,0 -14.4618,26.43 -27.3932,51.90535 -12.8933,25.40048 -26.3253,50.07094 -26.3253,46.17746 0,-3.64555 13.3026,-28.51235 25.0748,-51.90535 11.8593,-23.56606 22.4731,-46.17746 20.3527,-46.17746 -2.0071,0 -12.6723,22.61175 -23.5285,44.24769 -10.8343,21.59243 -21.8988,42.33957 -21.8988,38.39282 0,-3.77437 10.953,-24.69227 20.678,-44.2477 9.7891,-19.68431 18.5621,-38.39281 16.4582,-38.39281 -2.0264,0 -10.843,18.70889 -19.6238,36.41933 -8.7719,17.69258 -17.5121,34.4403 -17.5121,30.42864 0,-3.90456 8.648,-20.79503 16.3231,-36.41933 7.719,-15.71355 14.6123,-30.42864 12.5218,-30.42864 -2.0428,0 -8.9712,14.71553 -15.6764,28.40832 -6.7059,13.69417 -13.1682,26.36148 -13.1682,22.2719 0,-4.03632 6.3906,-16.81563 12.0132,-28.40832 5.6491,-11.64732 10.6209,-22.2719 8.5403,-22.2719 -2.0559,0 -7.0537,10.62508 -11.6831,20.20126 -4.636,9.58959 -8.8701,18.09007 -8.8701,13.90792 0,-4.16992 4.1847,-12.74849 7.7519,-20.20126 3.5794,-7.4784 6.5846,-13.90792 4.5103,-13.90792 -2.0656,0 -5.0871,6.43008 -7.6405,11.783 -2.5617,5.37026 -4.6213,9.61136 -4.6213,5.32006 0,-8.61725 8.1163,-17.10306 3.9708,-17.10306 -4.1414,0 -3.9779,4.05703 -3.9779,4.05703 m 367.0938,108.76122 c 0,0 1.1233,1.713 -3.023,1.713 -4.1455,0 3.0285,-5.43387 3.0285,-13.0346 0,-3.8119 -1.777,-0.53018 -4.0779,3.66703 -2.3073,4.20874 -5.1641,9.36757 -7.2416,9.36757 -4.1455,0 11.3197,-20.63397 11.3197,-28.40156 0,-3.89499 -3.7746,3.22779 -8.1456,11.28793 -4.3771,8.07134 -9.3799,17.11363 -11.4651,17.11363 -2.0677,0 2.9558,-9.04191 8.3829,-19.07706 5.4473,-10.07278 11.2281,-21.02591 11.2281,-25.0365 0,-3.97784 -5.7202,7.0603 -12.1643,19.07705 -6.4467,12.02164 -13.6411,25.03651 -15.7378,25.03651 -2.0596,0 5.1653,-13.01445 12.6684,-27.04604 7.5394,-14.09956 15.234,-29.01236 15.234,-33.1489 0,-4.06056 -7.61,10.97214 -16.1304,27.04604 -8.5161,16.06588 -17.9509,33.1489 -20.063,33.1489 -2.048,0 7.4279,-17.08254 17.0073,-35.20794 9.6361,-18.23264 19.1864,-37.18643 19.1864,-41.4651 0,-4.14324 -9.4398,14.96864 -20.0399,35.20794 -10.5853,20.21112 -22.313,41.4651 -24.4448,41.4651 -2.0323,0 9.748,-21.25343 21.4039,-43.57749 11.7377,-22.48052 23.0812,-45.56227 23.0812,-50.00125 0,-4.22608 -11.2051,19.05575 -23.8884,43.57749 -12.6542,24.46531 -26.7315,50.00125 -28.8878,50.00125 -1.9939,0 12.2013,-26.63605 25.9118,-53.2721 13.727,-26.66815 26.8574,-53.27211 26.8574,-53.27211 m -0.383,-7.98704 c 0,0 -12.864,28.59585 -27.534,57.26563 -14.6512,28.63281 -30.9793,57.26562 -33.1432,57.26562 -1.9816,0 13.8283,-28.63281 28.4794,-57.26563 14.6512,-28.63281 28.1434,-57.26562 25.9795,-57.26562 -1.9816,0 -15.4739,28.63281 -30.125,57.26563 -14.6511,28.63281 -30.4611,57.26562 -32.625,57.26562 -1.9816,0 13.8284,-28.63281 28.4795,-57.26562 14.6511,-28.63282 28.1434,-57.26563 25.9795,-57.26563 -1.9816,0 -15.4739,28.63281 -30.125,57.26563 -14.6511,28.63281 -30.4611,57.26562 -32.625,57.26562 -1.9816,0 13.8284,-28.63281 28.4795,-57.26562 14.6511,-28.63282 28.1433,-57.26563 25.9794,-57.26563 -1.9816,0 -15.4738,28.63281 -30.1249,57.26563 -14.6512,28.63281 -30.4611,57.26562 -32.625,57.26562 -1.9817,0 13.8283,-28.63281 28.4794,-57.26563 14.6511,-28.63281 28.1434,-57.26562 25.9795,-57.26562 -1.9816,0 -15.4739,28.63281 -30.125,57.26563 -14.6511,28.63281 -30.4611,57.26562 -32.625,57.26562 -1.9816,0 13.8284,-28.63281 28.4795,-57.26562 14.6511,-28.63282 28.1434,-57.26563 25.9795,-57.26563 -1.9816,0 -15.4739,28.63281 -30.125,57.26562 -14.6511,28.63282 -30.4611,57.26563 -32.625,57.26563 -1.9816,0 13.8283,-28.63281 28.4795,-57.26563 14.6511,-28.63281 28.1433,-57.26562 25.9794,-57.26562 -1.9816,0 -15.4738,28.63281 -30.125,57.26562 -14.6511,28.63282 -30.461,57.26563 -32.625,57.26563 -1.9816,0 13.8284,-28.63281 28.4795,-57.26562 14.6511,-28.63282 28.1434,-57.26563 25.9795,-57.26563 -1.9719,0 -15.4088,28.45068 -29.4563,55.95755 -13.9996,27.41294 -28.7221,54.16382 -28.7221,50.29462 0,-3.57677 14.5839,-30.53684 27.4563,-55.95755 12.973,-25.61922 24.5616,-50.29462 22.4311,-50.29462 -1.9955,0 -13.6397,24.67573 -25.6121,48.3872 -11.9423,23.65177 -24.275,46.5184 -24.275,42.60167 0,-3.70492 12.2115,-26.75635 23.038,-48.3872 10.9026,-21.78297 20.6704,-42.60167 18.558,-42.60167 -2.0163,0 -11.8321,20.81907 -21.7292,40.65206 -9.8817,19.80209 -19.8666,38.71081 -19.8666,34.73558 0,-3.83434 9.8822,-22.9012 18.6602,-40.65206 8.8324,-17.86083 16.7419,-34.73558 14.6446,-34.73558 -2.0344,0 -9.9835,16.87516 -17.8052,32.74087 -7.8177,15.85757 -15.4993,30.73009 -15.4993,26.68413 0,-3.96523 7.5987,-18.96666 14.3257,-32.74087 6.7625,-13.84679 12.7732,-26.68413 10.6877,-26.68413 -2.0492,0 -8.091,12.8378 -13.837,24.64103 -5.7499,11.8111 -11.1761,22.56399 -11.1761,18.43356 0,-4.09781 5.3647,-14.94745 10.0378,-24.64103 4.6927,-9.73407 8.7615,-18.43356 6.6843,-18.43356 -2.0608,0 -6.1513,8.70002 -9.8214,16.33836 -3.678,7.65464 -6.9003,14.19873 -6.9003,9.96834 0,-8.49338 12.5762,-26.3067 8.4307,-26.3067 -2.0689,0 -4.1606,4.45393 -5.7546,7.81684 -1.6017,3.37903 -2.6757,5.6187 -2.6757,1.27076 0,-8.72812 2.212,-9.0876 2.212,-9.0876 m 364.2385,114.53125 c 0,0 0.6413,2.6117 0.6413,-4.90367 0,-7.51537 -2.7141,4.90367 -6.8596,4.90367 -4.1455,0 6.8598,-12.41776 6.8599,-20.09428 0,-3.85034 -2.7064,1.19739 -5.9636,7.16845 -3.2637,5.98313 -7.1067,12.92583 -9.1873,12.92583 -2.0705,0 1.7882,-6.94234 6.0986,-14.86575 4.3239,-7.94809 9.0525,-16.80317 9.0525,-20.75211 0,-3.9333 -4.6803,4.98926 -10.009,14.86574 -5.3335,9.88553 -11.3431,20.75212 -13.4332,20.75212 -2.0644,0 3.9705,-10.86619 10.3568,-22.73645 6.4136,-11.92086 13.0857,-24.69401 13.0857,-28.7609 0,-4.01607 -6.6007,8.85782 -14.0038,22.73645 -7.403,13.87842 -15.6264,28.7609 -17.7297,28.7609 -2.0548,0 6.204,-14.88203 14.6665,-30.79285 8.5077,-15.99576 17.0673,-32.76548 17.0673,-36.96556 0,-4.09875 -8.4633,12.80807 -17.9443,30.79285 -9.4723,17.96839 -19.9599,36.96556 -22.0805,36.96556 -2.0413,0 8.4926,-18.99666 19.0315,-39.04874 10.6066,-20.18075 20.9936,-41.03089 20.9936,-45.38123 0,-4.18148 -10.2639,16.84565 -21.8262,39.04874 -11.5413,22.16291 -24.3475,45.38123 -26.49,45.38123 -2.0235,0 10.8408,-23.21774 23.4564,-47.51971 12.7106,-24.48488 24.8602,-49.50525 24.8602,-54.02508 0,-4.26447 -11.9975,20.97683 -25.6448,47.51971 -13.61,26.47042 -28.7936,54.02508 -30.9628,54.02508 -1.9816,0 13.8283,-28.63281 28.4794,-57.26562 14.6512,-28.63282 28.1434,-57.26563 25.9795,-57.26563 -1.9816,0 -15.4739,28.63281 -30.125,57.26562 -14.6511,28.63282 -30.4611,57.26563 -32.625,57.26563 -1.9816,0 13.8284,-28.63281 28.4795,-57.26562 14.6511,-28.63282 28.1434,-57.26563 25.9795,-57.26563 -1.9816,0 -15.4739,28.63281 -30.125,57.26563 -14.6511,28.63281 -30.4611,57.26562 -32.625,57.26562 -1.9816,0 13.8284,-28.63281 28.4795,-57.26562 14.6511,-28.63282 28.1433,-57.26563 25.9794,-57.26563 -1.9816,0 -15.4738,28.63281 -30.125,57.26563 -14.6511,28.63281 -30.461,57.26562 -32.6249,57.26562 -1.9817,0 13.8283,-28.63281 28.4794,-57.26562 14.6511,-28.63282 28.1434,-57.26563 25.9795,-57.26563 -1.9816,0 -15.4739,28.63281 -30.125,57.26563 -14.6511,28.63281 -30.4611,57.26562 -32.625,57.26562 -1.9816,0 13.8284,-28.63281 28.4795,-57.26563 14.6511,-28.63281 28.1434,-57.26562 25.9795,-57.26562 -1.9817,0 -15.4739,28.63281 -30.125,57.26562 -14.6511,28.63282 -30.4611,57.26563 -32.625,57.26563 -1.9816,0 13.8283,-28.63281 28.4795,-57.26563 14.6511,-28.63281 28.1433,-57.26562 25.9794,-57.26562 -1.9816,0 -15.4739,28.63281 -30.125,57.26562 -14.6511,28.63282 -30.4611,57.26563 -32.625,57.26563 -1.9816,0 13.8284,-28.63281 28.4795,-57.26563 14.6511,-28.63281 28.1434,-57.26562 25.9795,-57.26562 -1.9816,0 -15.9921,28.63281 -30.6432,57.26562 -14.6322,28.59586 -30.034,57.26563 -30.034,57.26563 m -1.9663,-3.93477 c 0,0 15.8076,-27.68353 29.8964,-55.29824 14.1063,-27.64912 26.6138,-55.29824 24.456,-55.29824 -1.9831,0 -14.5958,26.71608 -27.6844,52.47906 -13.0493,25.6855 -26.6625,50.65032 -26.6625,46.76044 0,-3.63583 13.4825,-28.79884 25.4098,-52.47905 12.0162,-23.85678 22.7679,-46.76045 20.6461,-46.76045 -2.0055,0 -12.8092,22.90402 -23.8227,44.83388 -10.9905,21.88417 -22.2329,42.93125 -22.2329,38.98892 0,-3.76455 11.1296,-24.98442 21.0098,-44.83388 9.9459,-19.98154 18.8598,-38.98892 16.7548,-38.98892 -2.0251,0 -10.9831,19.00777 -19.9212,37.01886 -8.9284,17.99149 -17.8431,35.04509 -17.8431,31.03879 0,-3.89464 8.821,-21.09321 16.6516,-37.01886 7.8758,-16.01774 14.913,-31.03879 12.8216,-31.03879 -2.0416,0 -9.1146,15.02149 -15.9771,29.02214 -6.8626,14.00081 -13.4958,26.98032 -13.4958,22.89714 0,-4.02628 6.5599,-17.12022 12.3382,-29.02215 5.8059,-11.95898 10.9249,-22.89713 8.8437,-22.89713 -2.055,0 -7.2007,10.93864 -11.9875,20.83044 -4.793,9.90457 -9.1941,18.72401 -9.1941,14.54942 0,-4.15972 4.35,-13.05993 8.073,-20.83044 3.7363,-7.79813 6.8922,-14.54942 4.8176,-14.54942 -2.0651,0 -5.238,6.75185 -7.9488,12.42876 -2.719,5.69426 -4.9415,10.26156 -4.9415,5.97917 0,-8.59948 8.7447,-18.40793 4.5992,-18.40793 -4.1381,0 -4.6062,5.38932 -4.6062,5.38932 m 367.0938,108.56217 c 0,0 1.751,0.57976 -2.3946,0.57976 -4.1455,0 2.4001,-4.29492 2.4001,-11.88346 0,-3.8056 -1.6236,-0.81207 -3.7677,3.09603 -2.1504,3.91943 -4.8464,8.78743 -6.9234,8.78743 -4.1456,0 10.6913,-19.47065 10.6913,-27.2252 0,-3.8887 -3.625,2.94044 -7.839,10.70464 -4.2203,7.77562 -9.0589,16.52056 -11.1434,16.52056 -2.0681,0 2.7905,-8.74456 8.0602,-18.48062 5.289,-9.77173 10.9225,-20.42794 10.9225,-24.4296 0,-3.97156 -5.5747,6.76715 -11.8616,18.48062 -6.2898,11.71905 -13.3165,24.4296 -15.4121,24.4296 -2.0604,0 4.996,-12.71012 12.3417,-26.43552 7.3807,-13.79075 14.9323,-28.40069 14.9322,-32.52713 0,-4.05428 -7.4688,10.67279 -15.8317,26.43552 -8.3593,15.75593 -17.6225,32.52713 -19.7333,32.52713 -2.0489,0 7.2546,-16.77072 16.6766,-34.58229 9.4769,-17.91548 18.8888,-36.56004 18.8888,-40.82732 0,-4.13696 -9.3034,14.66266 -19.7457,34.58229 -10.4285,19.89324 -21.9805,40.82732 -24.1107,40.82732 -2.0336,0 9.5701,-20.93354 21.0686,-42.93552 11.5782,-22.15435 22.7881,-44.92005 22.7881,-49.34619 0,-4.2198 -11.0736,18.74266 -23.5989,42.93552 -12.4974,24.13887 -26.3946,49.34619 -28.5488,49.34619 -2.0139,0 11.9472,-25.2067 25.5226,-51.51177 13.6848,-26.51695 26.6255,-53.49663 26.6255,-58.10199 1e-4,-4.303 -12.7743,22.91946 -27.3865,51.51176 -14.5659,28.50182 -30.8694,58.102 -33.0527,58.102 -1.9816,0 13.8284,-28.63281 28.4795,-57.26562 14.6511,-28.63282 28.1434,-57.26563 25.9795,-57.26563 -1.9816,0 -15.4739,28.63281 -30.125,57.26563 -14.6511,28.63281 -30.4611,57.26562 -32.625,57.26562 -1.9816,0 13.8283,-28.63281 28.4795,-57.26562 14.6511,-28.63282 28.1433,-57.26563 25.9794,-57.26563 -1.9816,0 -15.4738,28.63281 -30.125,57.26563 -14.6511,28.63281 -30.461,57.26562 -32.6249,57.26562 -1.9817,0 13.8283,-28.63281 28.4794,-57.26563 14.6511,-28.63281 28.1434,-57.26562 25.9795,-57.26562 -1.9816,0 -15.4739,28.63281 -30.125,57.26563 -14.6511,28.63281 -30.4611,57.26562 -32.625,57.26562 -1.9816,0 13.8284,-28.63281 28.4795,-57.26562 14.6511,-28.63282 28.1434,-57.26563 25.9795,-57.26563 -1.9817,0 -15.4739,28.63281 -30.125,57.26563 -14.6511,28.63281 -30.4611,57.26562 -32.625,57.26562 -1.9816,0 13.8283,-28.63281 28.4794,-57.26562 14.6512,-28.63282 28.1434,-57.26563 25.9795,-57.26563 -1.9816,0 -15.4739,28.63281 -30.125,57.26562 -14.6511,28.63282 -30.4611,57.26563 -32.625,57.26563 -1.9816,0 13.8284,-28.63281 28.4795,-57.26562 14.6511,-28.63282 28.1434,-57.26563 25.9795,-57.26563 -1.9816,0 -15.4739,28.63281 -30.125,57.26563 -14.6511,28.63281 -30.4611,57.26562 -32.625,57.26562 -1.9816,0 13.8284,-28.63281 28.4795,-57.26562 14.6511,-28.63282 28.1433,-57.26563 25.9794,-57.26563 -1.97,0 -15.5413,28.73359 -29.7461,56.52485 -14.1554,27.69455 -29.0606,54.73693 -29.0606,50.87091 0,-3.5671 14.7654,-30.82043 27.7928,-56.52485 13.1298,-25.90662 24.855,-50.87091 22.7229,-50.87091 -1.9938,0 -13.775,24.96462 -25.9047,48.96658 -12.0983,23.93983 -24.6107,47.10337 -24.6107,43.19061 0,-3.69516 12.3898,-27.04543 23.3714,-48.96658 11.0595,-22.07664 20.9666,-43.19061 18.853,-43.19061 -2.0149,0 -11.9705,21.11434 -22.0249,41.2443 -10.038,20.09708 -20.1993,39.30844 -20.1993,35.33806 0,-3.82449 10.0571,-23.19609 18.9905,-41.2443 8.9893,-18.16122 17.0409,-35.33806 14.9426,-35.33806 -2.0331,0 -10.1251,17.17725 -18.1041,33.34687 -7.9742,16.15999 -15.8287,31.34126 -15.8287,27.30112 0,-3.95526 7.7701,-19.26774 14.6526,-33.34687 6.9193,-14.15437 13.0754,-27.30112 10.9892,-27.30112 -2.0482,0 -8.236,13.14721 -14.1394,25.2618 -5.9067,12.12152 -11.5021,23.18968 -11.5021,19.06616 0,-4.0877 5.5321,-15.25514 10.361,-25.2618 4.8496,-10.04938 9.0671,-19.06616 6.9894,-19.06616 -2.06,0 -6.3,9.0173 -10.1274,16.97505 -3.8352,7.97369 -7.2227,14.84002 -7.2227,10.61779 0,-8.47636 13.2046,-27.59284 9.0591,-27.59284 -2.0684,0 -4.3133,4.77971 -6.0647,8.47072 -1.7591,3.70747 -2.994,6.27686 -2.994,1.9385 0,-8.70965 2.8404,-10.40922 2.8404,-10.40922"
       id="path14608"
       inkscape:connector-curvature="0"
       inkscape:path-effect="#path-effect14626"
       inkscape:original-d="m 1008.5625,363.53125 c 71.3333,0 142.6667,0 214,0 0,-13.54167 0,-27.08333 0,-40.625 41.6771,0 83.3542,0 125.0313,0 -1e-4,13.54167 0,27.08333 0,40.625 27.8958,0 55.7916,0 83.6874,0 1e-4,-38.17708 0,-76.35417 0,-114.53125 -140.9062,0 -281.8125,0 -422.7187,0 0,38.17708 0,76.35417 0,114.53125 z m 554.7813,0 c 71.3333,0 142.6666,0 214,0 0,-13.54167 -1e-4,-27.08333 0,-40.625 41.677,0 83.3541,0 125.0312,0 0,13.54167 0,27.08333 0,40.625 27.8958,0 55.7917,0 83.6875,0 0,-38.17708 0,-76.35417 0,-114.53125 -140.9063,0 -281.8125,0 -422.7187,0 -1e-4,38.17708 0,76.35417 0,114.53125 z m -488.5,290.625 c 38.177,0 76.3541,0 114.5312,0 0,-38.17708 0,-76.35417 0,-114.53125 -38.1771,0 -76.3542,0 -114.5312,0 0,38.17708 0,76.35417 0,114.53125 z m 252.5624,0 c 38.1771,0 76.3542,0 114.5313,0 0,-38.17708 0,-76.35417 0,-114.53125 -38.1771,0 -76.3542,0 -114.5313,0 1e-4,38.17708 0,76.35417 0,114.53125 z m 252.5626,0 c 38.177,0 76.3541,0 114.5312,0 0,-38.17708 0,-76.35417 0,-114.53125 -38.1771,0 -76.3542,0 -114.5312,0 0,38.17708 0,76.35417 0,114.53125 z m 252.5624,0 c 38.1771,0 76.3542,0 114.5313,0 0,-38.17708 0,-76.35417 0,-114.53125 -38.1771,0 -76.3542,0 -114.5313,0 0,38.17708 1e-4,76.35417 0,114.53125 z M 948.5625,780.4375 c 38.17708,0 76.3542,0 114.5313,0 -1e-4,-38.17708 0,-76.35417 0,-114.53125 -38.1771,0 -76.35422,0 -114.5313,0 0,38.17708 0,76.35417 0,114.53125 z m 252.5625,0 c 38.1771,0 76.3542,0 114.5312,0 1e-4,-38.17708 0,-76.35417 0,-114.53125 -38.177,0 -76.3541,0 -114.5312,0 0,38.17708 0,76.35417 0,114.53125 z m 252.5625,0 c 38.1771,0 76.3542,0 114.5313,0 -1e-4,-38.17708 0,-76.35417 0,-114.53125 -38.1771,0 -76.3542,0 -114.5313,0 0,38.17708 0,76.35417 0,114.53125 z m 252.5625,0 c 38.1771,0 76.3542,0 114.5312,0 1e-4,-38.17708 0,-76.35417 0,-114.53125 -38.177,0 -76.3541,0 -114.5312,0 0,38.17708 0,76.35417 0,114.53125 z m 252.5625,0 c 38.1771,0 76.3542,0 114.5313,0 0,-38.17708 -1e-4,-76.35417 0,-114.53125 -38.1771,0 -76.3542,0 -114.5313,0 0,38.17708 0,76.35417 0,114.53125 z" />
    <path
       inkscape:original-d="m 1008.5625,363.53125 c 71.3333,0 142.6667,0 214,0 0,-13.54167 0,-27.08333 0,-40.625 41.6771,0 83.3542,0 125.0313,0 -1e-4,13.54167 0,27.08333 0,40.625 27.8958,0 55.7916,0 83.6874,0 1e-4,-38.17708 0,-76.35417 0,-114.53125 -140.9062,0 -281.8125,0 -422.7187,0 0,38.17708 0,76.35417 0,114.53125 z m 554.7813,0 c 71.3333,0 142.6666,0 214,0 0,-13.54167 -1e-4,-27.08333 0,-40.625 41.677,0 83.3541,0 125.0312,0 0,13.54167 0,27.08333 0,40.625 27.8958,0 55.7917,0 83.6875,0 0,-38.17708 0,-76.35417 0,-114.53125 -140.9063,0 -281.8125,0 -422.7187,0 -1e-4,38.17708 0,76.35417 0,114.53125 z m -488.5,290.625 c 38.177,0 76.3541,0 114.5312,0 0,-38.17708 0,-76.35417 0,-114.53125 -38.1771,0 -76.3542,0 -114.5312,0 0,38.17708 0,76.35417 0,114.53125 z m 252.5624,0 c 38.1771,0 76.3542,0 114.5313,0 0,-38.17708 0,-76.35417 0,-114.53125 -38.1771,0 -76.3542,0 -114.5313,0 1e-4,38.17708 0,76.35417 0,114.53125 z m 252.5626,0 c 38.177,0 76.3541,0 114.5312,0 0,-38.17708 0,-76.35417 0,-114.53125 -38.1771,0 -76.3542,0 -114.5312,0 0,38.17708 0,76.35417 0,114.53125 z m 252.5624,0 c 38.1771,0 76.3542,0 114.5313,0 0,-38.17708 0,-76.35417 0,-114.53125 -38.1771,0 -76.3542,0 -114.5313,0 0,38.17708 1e-4,76.35417 0,114.53125 z M 948.5625,780.4375 c 38.17708,0 76.3542,0 114.5313,0 -1e-4,-38.17708 0,-76.35417 0,-114.53125 -38.1771,0 -76.35422,0 -114.5313,0 0,38.17708 0,76.35417 0,114.53125 z m 252.5625,0 c 38.1771,0 76.3542,0 114.5312,0 1e-4,-38.17708 0,-76.35417 0,-114.53125 -38.177,0 -76.3541,0 -114.5312,0 0,38.17708 0,76.35417 0,114.53125 z m 252.5625,0 c 38.1771,0 76.3542,0 114.5313,0 -1e-4,-38.17708 0,-76.35417 0,-114.53125 -38.1771,0 -76.3542,0 -114.5313,0 0,38.17708 0,76.35417 0,114.53125 z m 252.5625,0 c 38.1771,0 76.3542,0 114.5312,0 1e-4,-38.17708 0,-76.35417 0,-114.53125 -38.177,0 -76.3541,0 -114.5312,0 0,38.17708 0,76.35417 0,114.53125 z m 252.5625,0 c 38.1771,0 76.3542,0 114.5313,0 0,-38.17708 -1e-4,-76.35417 0,-114.53125 -38.1771,0 -76.3542,0 -114.5313,0 0,38.17708 0,76.35417 0,114.53125 z"
       inkscape:path-effect="#path-effect14626-2"
       inkscape:connector-curvature="0"
       id="path14652"
       d="m 1008.5625,361.85433 c 0,0 -3.3319,1.67692 9.3906,1.67692 12.7231,0 -9.3859,-5.20274 -9.3859,-12.21291 0,-3.50211 5.5419,-0.45483 12.6687,3.47764 7.1215,3.9295 15.806,8.73527 22.1635,8.73527 12.7231,0 -34.8323,-19.22299 -34.8323,-26.19224 0,-3.48198 11.9669,3.0608 25.457,10.48265 13.4853,7.41922 28.4704,15.70959 34.8216,15.70959 6.366,0 -8.6021,-8.29035 -25.2573,-17.44683 -16.6384,-9.14728 -35.0213,-19.18828 -35.0213,-22.6436 0,-3.46371 18.4309,6.55728 38.2815,17.44683 19.8492,10.88873 41.1012,22.6436 47.4434,22.6436 6.3726,0 -14.8555,-11.75484 -37.87,-24.37088 -22.9856,-12.60021 -47.855,-26.10907 -47.855,-29.53801 0,-3.44723 24.9335,10.03495 51.142,24.37088 26.2129,14.33841 53.6986,29.53801 60.0293,29.53801 6.3817,0 -21.0733,-15.19958 -50.4471,-31.25549 -29.3304,-16.03212 -60.7242,-32.99194 -60.7242,-36.39347 0,-3.43251 31.4739,13.49409 64.0374,31.25548 32.5768,17.76858 66.2636,36.39348 72.5802,36.39348 6.3934,0 -27.256,-18.62488 -62.9893,-38.10132 -35.6726,-19.44338 -73.6284,-39.8375 -73.6284,-43.21066 0,-3.41948 38.0515,16.93503 76.9676,38.10132 38.9404,21.17955 78.7964,43.21066 85.0964,43.21066 6.4077,0 -33.4042,-22.03109 -75.497,-44.90903 -42.0125,-22.83433 -86.567,-46.64637 -86.567,-49.99019 0,-3.40811 44.6656,20.35805 89.9316,44.90903 45.3042,24.57167 91.2977,49.99019 97.5787,49.99019 6.4244,0 -39.5186,-25.4185 -87.9708,-51.67924 -48.35,-26.20533 -99.5396,-53.41915 -99.5396,-56.73268 0,-3.39838 52.9062,23.76344 104.5196,51.67924 51.7467,27.98788 102.0756,56.73268 102.0756,56.73268 m 7.4005,-2.94594 c 0,0 -51.957,-27.86014 -103.644,-55.79265 C 1067.2984,276.89633 1016.1687,249 1022.4438,249 c 6.4523,0 57.4827,27.01535 105.9046,53.15489 48.466,26.16337 94.2188,51.37944 94.2188,47.90004 0,-3.55199 -45.8751,-28.71819 -91.2404,-53.15488 C 1086.052,272.51212 1041.5813,249 1047.8901,249 c 6.4313,0 50.8538,23.51214 92.9164,46.15359 42.092,22.65718 81.7606,44.39644 81.7606,40.92939 0,-3.51985 -39.7734,-25.21649 -78.7532,-46.15359 C 1104.9031,269.02935 1067.012,249 1073.3364,249 c 6.4066,0 43.2829,19.50725 78.994,38.67094 35.724,19.17057 70.252,37.97693 74.0719,36.60956 3.8664,-1.38404 -30.7137,-20.18459 -65.1917,-38.67094 C 1126.7509,267.133 1092.4551,249 1098.7827,249 c 6.3995,0 41.337,18.47656 75.7918,36.95313 34.4549,18.47656 68.4272,36.95312 74.7508,36.95312 6.3996,0 -27.5728,-18.47656 -62.0276,-36.95313 C 1152.8428,267.47656 1117.9054,249 1124.229,249 c 6.3995,0 41.337,18.47656 75.7918,36.95312 34.4549,18.47657 68.4272,36.95313 74.7508,36.95313 6.3996,0 -27.5727,-18.47656 -62.0276,-36.95313 C 1178.2891,267.47656 1143.3517,249 1149.6753,249 c 6.3996,0 41.337,18.47656 75.7918,36.95312 34.4549,18.47657 68.4272,36.95313 74.7508,36.95313 6.3996,0 -27.5727,-18.47656 -62.0276,-36.95312 C 1203.7354,267.47656 1168.798,249 1175.1216,249 c 6.3996,0 41.337,18.47656 75.7918,36.95312 34.4549,18.47657 68.4272,36.95313 74.7509,36.95313 6.3995,0 -27.5728,-18.47656 -62.0277,-36.95313 C 1229.1817,267.47656 1194.2443,249 1200.5679,249 c 6.3996,0 42.9274,18.47656 77.3823,36.95312 34.4843,18.49237 66.7988,36.95313 66.7988,36.95313 m 10.3677,40.625 c 0,0 -7.5182,-0.65087 -7.5182,-7.67443 0,-7.02357 13.8798,7.67443 26.6029,7.67443 12.7232,0 -26.603,-14.69791 -26.603,-21.68032 0,-3.4883 9.8847,1.92596 21.3173,8.22176 11.4273,6.29288 24.3785,13.45856 30.732,13.45856 6.3645,0 -6.572,-7.16566 -21.1706,-15.19907 -14.5852,-8.02605 -30.8787,-16.9419 -30.8787,-20.40552 0,-3.46942 17.9266,5.42861 35.7206,15.19906 17.8035,9.77572 35.4135,20.40553 35.4135,20.40553 m 12.5487,-0.0966 c 0,0 -53.1792,-28.57059 -106.1568,-57.21733 C 1272.2173,277.60867 1219.7437,249 1226.0143,249 c 6.4568,0 58.8286,27.72662 108.537,54.5764 49.7559,26.87542 96.7346,52.79703 96.7346,49.31529 0,-3.55873 -47.1045,-29.42899 -93.7621,-54.57639 C 1290.9615,273.21922 1245.1552,249 1251.4606,249 c 6.4353,0 52.1918,24.21925 95.541,47.56677 43.3813,23.36477 84.2843,45.80606 84.2843,42.33641 0,-3.52619 -41.0113,-25.9234 -81.2827,-47.56676 C 1309.8048,269.73235 1270.5854,249 1276.9069,249 c 6.4166,0 45.5937,20.73237 82.5837,40.59805 37.0094,19.87605 71.7952,38.85429 71.7952,35.39791 0,-3.49561 -34.8768,-22.43689 -68.765,-40.59805 C 1328.6864,266.26561 1296.0184,249 1302.3532,249 c 6.4006,0 39.0336,17.26563 69.6645,33.66953 30.6401,16.40888 59.2681,31.94106 59.2681,28.49909 0,-3.46693 -28.702,-18.96912 -56.2099,-33.66952 C 1347.6055,262.81868 1321.454,249 1327.7995,249 c 6.3875,0 32.5111,13.8187 56.7826,26.78053 24.2736,12.96287 46.7036,25.06573 46.7036,21.63929 0,-3.44013 -22.4874,-15.51982 -43.6177,-26.78053 C 1366.5614,259.39121 1346.8924,249 1353.2458,249 c 6.377,0 26.0253,10.39123 43.9375,19.93037 17.9095,9.53765 34.1024,18.22768 34.1023,14.81784 0,-3.41511 -16.2337,-12.08864 -30.9892,-19.93037 C 1385.5536,255.98288 1372.3333,249 1378.6921,249 c 6.3693,0 19.5757,6.9829 31.1286,13.11841 11.5479,6.13287 21.4649,11.42629 21.4649,8.03412 0,-6.77906 -39.8703,-21.15253 -27.1472,-21.15253 12.7232,0 27.1471,14.37355 27.1471,7.63152 0,-6.74203 -8.0623,-7.63152 -8.0623,-7.63152 m 140.1206,110.06807 c 0,0 1.71,4.46318 14.4281,4.46318 12.7231,0 -14.4234,-7.98484 -14.4234,-14.98686 0,-3.49798 6.8106,0.24268 15.1974,4.86768 8.3813,4.62196 18.3159,10.11918 24.6723,10.11918 6.3628,0 -3.5605,-5.4972 -15.1153,-11.86454 -11.5459,-6.36248 -24.7545,-13.60974 -24.7545,-17.08547 0,-3.47823 13.2434,3.75449 27.9929,11.86454 14.7452,8.10766 30.9736,17.08547 37.3232,17.08547 6.3671,0 -9.8429,-8.97779 -27.757,-18.82073 -17.8952,-9.83253 -37.5592,-20.56141 -37.5592,-24.01159 0,-3.46031 19.7152,7.24723 40.8247,18.82073 21.109,11.57322 43.5977,24.01159 49.9378,24.01159 6.3742,0 -16.0892,-12.43835 -40.3627,-25.73692 -24.2418,-13.28127 -50.3998,-27.47465 -50.3998,-30.89824 0,-3.44418 26.2253,10.7212 53.692,25.73692 27.4728,15.01901 56.1887,30.89824 62.5168,30.89824 6.3838,0 -22.3,-15.87921 -52.9328,-32.6138 -30.5861,-16.70907 -63.2761,-34.35009 -63.2761,-37.74608 0,-3.42979 32.7731,14.17672 66.5945,32.6138 33.8366,18.44535 68.7472,37.74608 75.0607,37.74608 6.3961,0 -28.4758,-19.30071 -65.4681,-39.45204 -36.9279,-20.11627 -76.1871,-41.18833 -76.1871,-44.55576 0,-3.41709 39.3579,17.6141 79.5313,39.45204 40.2003,21.85257 81.2738,44.55576 87.5702,44.55576 6.4108,0 -34.6174,-22.70317 -77.9691,-46.25227 -43.2672,-23.50325 -89.1325,-47.99001 -89.1325,-51.3279 0,-3.40606 45.9793,21.0336 92.5021,46.25227 46.564,25.24098 93.7689,51.3279 100.0459,51.3279 6.4279,0 -40.7252,-26.0869 -90.4364,-53.01513 -49.6043,-26.87034 -102.1116,-54.7557 -102.1116,-58.06313 0,-3.39663 54.2269,24.43554 107.0966,53.01513 53.01,28.65544 104.5361,58.06313 104.5361,58.06313 m 2.363,-5.73071 c 0,0 -50.7594,-27.16574 -101.1838,-54.40027 C 1625.7994,276.20014 1575.9833,249 1582.2626,249 c 6.4479,0 56.1673,26.32019 103.3303,51.76559 47.2039,25.46751 91.7555,49.9939 91.7555,46.51685 0,-3.54547 -44.6704,-28.02345 -88.7714,-51.76559 C 1644.5621,271.82103 1601.3968,249 1607.7089,249 c 6.4275,0 49.546,22.82105 90.3498,44.77241 40.8304,21.96568 79.2897,43.01869 79.2897,39.55422 0,-3.51372 -38.5606,-24.52552 -76.2766,-44.77241 C 1663.4208,268.34226 1626.8281,249 1633.1552,249 c 6.3996,0 41.3399,18.4781 75.7966,36.95569 34.4568,18.47761 68.4299,36.95466 74.7498,36.95261 6.3957,-0.002 -27.5775,-18.47911 -62.0324,-36.95569 C 1687.2143,267.47605 1652.2779,249 1658.6015,249 c 6.3996,0 41.337,18.47656 75.7918,36.95313 34.4549,18.47656 68.4272,36.95312 74.7508,36.95312 6.3996,0 -27.5727,-18.47656 -62.0276,-36.95313 C 1712.6616,267.47656 1677.7242,249 1684.0478,249 c 6.3996,0 41.337,18.47656 75.7918,36.95313 34.4549,18.47656 68.4272,36.95312 74.7508,36.95312 6.3996,0 -27.5727,-18.47656 -62.0276,-36.95312 C 1738.1079,267.47656 1703.1705,249 1709.4941,249 c 6.3996,0 41.337,18.47656 75.7919,36.95313 34.4548,18.47656 68.4271,36.95312 74.7508,36.95312 6.3995,0 -27.5728,-18.47656 -62.0277,-36.95312 C 1763.5542,267.47656 1728.6168,249 1734.9404,249 c 6.3996,0 41.337,18.47656 75.7919,36.95313 34.4548,18.47656 68.4271,36.95312 74.7508,36.95312 6.3995,0 -27.5728,-18.47656 -62.0277,-36.95313 C 1789.0006,267.47656 1754.0631,249 1760.3868,249 c 6.4527,0 62.1527,28.63281 115.1034,57.26562 53.0213,28.67095 103.0611,57.26563 103.0611,57.26563 m -63.6158,0 c 0,0 -12.5558,-3.43837 -12.5558,-10.45372 0,-3.50477 4.7388,-0.89716 11.0673,2.5961 6.3233,3.49035 14.2151,7.85762 20.5732,7.85762 12.7232,0 -31.6406,-17.46899 -31.6406,-24.44333 0,-3.48441 11.1589,2.6209 23.851,9.60629 12.6871,6.98262 26.8838,14.83704 33.2359,14.83704 6.3701,0 -7.7953,-8.72115 -23.6586,-17.4423 -15.8568,-8.71758 -33.4329,-17.4423 -33.4329,-17.4423 m 83.6875,31.9999 c 0,0 -51.9833,-27.87541 -103.6981,-55.82328 C 1830.7167,276.91164 1779.5581,249 1785.8331,249 c 6.4523,0 57.5117,27.03063 105.9612,53.18544 48.4937,26.17867 94.2729,51.40991 94.2729,47.93046 0,-3.55214 -45.9016,-28.73347 -91.2947,-53.18544 C 1849.47,272.52732 1804.9706,249 1811.2794,249 c 6.4313,0 50.8825,23.52734 92.9729,46.18396 42.1196,22.67239 81.8148,44.42674 81.8148,40.95963 0,-3.51999 -39.8,-25.23168 -78.8076,-46.18396 C 1868.321,269.04445 1830.4014,249 1836.7257,249 c 6.4132,0 44.292,20.04448 80.0231,39.22325 35.7483,19.18797 69.3183,37.48265 69.3183,34.02904 0,-3.48979 -33.6576,-21.7489 -66.2825,-39.22325 C 1887.2101,265.58167 1855.8349,249 1862.172,249 c 6.3978,0 37.7394,16.58169 67.1113,32.30261 29.3796,15.72501 56.7837,30.57698 56.7837,27.138 0,-3.46148 -27.4748,-18.28482 -53.7199,-32.30261 -26.2106,-13.99938 -51.076,-27.138 -44.7288,-27.138 6.3852,0 31.2242,13.13864 54.2368,25.42135 23.0135,12.28315 44.2119,23.70909 44.2119,20.28584 0,-3.43502 -21.2525,-14.83912 -41.1206,-25.42135 C 1925.0997,258.71496 1906.7099,249 1913.0646,249 c 6.3753,0 24.7456,9.71498 41.399,18.57881 16.6498,8.86201 31.6033,16.87834 31.6033,13.47192 0,-3.41037 -14.9911,-11.41151 -28.485,-18.57881 C 1944.099,255.31038 1932.1514,249 1938.5109,249 c 6.368,0 18.3031,6.3104 28.5971,11.77434 10.2889,5.46124 18.9589,10.08414 18.9589,6.69559 0,-6.77167 -34.8328,-18.46993 -22.1097,-18.46993 12.7232,0 22.1096,11.69833 22.1096,4.96356 0,-6.73476 -3.0248,-4.96356 -3.0248,-4.96356 m -904.7537,405.15625 c 0,0 -3.4398,1.60824 -3.4398,-5.42198 0,-7.03022 9.8014,5.42198 22.5245,5.42198 12.7232,0 -22.5245,-12.45211 -22.5245,-19.44106 0,-3.49149 8.8543,1.3628 19.267,7.09967 10.4074,5.73389 22.3493,12.34139 28.7039,12.34139 6.3638,0 -5.5646,-6.60748 -19.1439,-14.08351 -13.5676,-7.46955 -28.8271,-15.8271 -28.8271,-19.29481 0,-3.47232 15.2996,4.8685 32.0742,14.08351 16.7712,9.21313 34.9962,19.29481 41.3431,19.29481 6.3691,0 -11.8354,-10.08166 -31.7741,-21.02688 -19.916,-10.93278 -41.6433,-22.76647 -41.6433,-26.20829 0,-3.45498 21.7837,8.35523 44.9174,21.02688 23.135,12.67236 47.6097,26.20829 53.9463,26.20829 6.3769,0 -18.0704,-13.53591 -44.3684,-27.93049 -26.2619,-14.3748 -54.4953,-29.66759 -54.4953,-33.0825 0,-3.44324 29.0539,12.23234 57.6708,27.86214 28.6475,15.64651 56.8606,31.24845 56.8606,27.74147 0,-3.53292 -28.2796,-19.11557 -56.9453,-34.72665 -28.6011,-15.57583 -57.5862,-31.17914 -57.5862,-34.57709 0,-3.42383 29.0491,12.16138 57.6662,27.7016 28.6473,15.55664 56.8653,31.06946 56.8653,27.58298 0,-3.51197 -28.2837,-19.00584 -56.949,-34.52766 -28.6014,-15.48716 -57.5825,-31.00135 -57.5825,-34.38065 0,-3.40475 29.0444,12.09163 57.6616,27.54379 28.6472,15.46831 56.8698,30.89353 56.8698,27.42719 0,-3.4914 -28.2876,-18.898 -56.9526,-34.33206 -28.6017,-15.39999 -57.5789,-30.82656 -57.5789,-34.18752 0,-3.38598 29.0398,12.02307 57.6572,27.38865 28.6471,15.38146 56.8742,30.72054 56.8742,27.27401 0,-3.47408 -29.2578,-19.31263 -57.9339,-34.6633 -28.6305,-15.3262 -56.5865,-30.11921 -52.6336,-31.37985 3.9828,-1.27013 31.9549,13.52318 58.589,27.75967 26.6501,14.24506 51.9785,27.93655 51.9785,24.50559 0,-3.44989 -24.8062,-16.80215 -48.3111,-29.34131 -23.4764,-12.52397 -45.5554,-24.18926 -39.2046,-24.18926 6.3806,0 28.4362,11.66531 48.7166,22.47677 20.279,10.81074 38.799,20.76975 38.799,17.3536 0,-3.42421 -18.567,-13.36425 -35.696,-22.47676 -17.1126,-9.10374 -32.7305,-17.35361 -26.3733,-17.35361 6.3718,0 21.9732,8.24989 35.8942,15.65066 13.9166,7.3984 26.1751,13.95479 26.1751,10.55591 0,-6.793 -49.3462,-26.20657 -36.623,-26.20657 6.3657,0 15.546,4.85341 23.1077,8.86236 7.5566,4.00626 13.5152,7.1761 13.5152,3.79555 0,-6.75575 -23.8998,-12.65791 -11.1766,-12.65791 12.7248,0 11.1723,2.54269 11.1723,2.54269 m 143.3764,111.98856 c 0,0 -5.3405,0.55513 -5.3405,-6.47199 0,-7.02711 11.7021,6.47199 24.4252,6.47199 12.7232,0 -24.4252,-13.49901 -24.4252,-20.4849 0,-3.48999 9.3344,1.62532 20.2224,7.62274 10.8827,5.99446 23.2951,12.86216 29.6492,12.86216 6.3641,0 -6.0342,-6.86768 -20.0886,-14.60353 -14.0418,-7.72897 -29.7831,-16.34676 -29.7831,-19.81257 0,-3.47097 15.7826,5.12959 33.0323,14.60353 17.2465,9.4722 35.9395,19.81257 42.2857,19.81257 6.3695,0 -12.3024,-10.34035 -32.716,-21.5439 -20.3901,-11.19061 -42.602,-23.28325 -42.602,-26.7231 0,-3.45375 22.2695,8.61492 45.878,21.54391 23.6104,12.92994 48.5506,26.72309 54.8863,26.72309 6.3776,0 -18.5346,-13.79313 -45.3077,-28.44456 -26.7358,-14.63106 -55.4567,-30.18154 -55.4567,-33.5944 0,-3.44178 29.0536,12.227 57.6705,27.85007 28.6475,15.63975 56.861,31.23498 56.861,27.72955 0,-3.53134 -28.2799,-19.10731 -56.9456,-34.71168 -28.6011,-15.56916 -57.5859,-31.16577 -57.5859,-34.56232 0,-3.42239 29.0487,12.15614 57.6658,27.68973 28.6474,15.55 56.8657,31.05624 56.8657,27.57128 0,-3.51043 -28.284,-18.99774 -56.9493,-34.51296 -28.6014,-15.4806 -57.5823,-30.9882 -57.5823,-34.36613 0,-3.40333 29.0441,12.08648 57.6614,27.53213 28.6471,15.46178 56.8701,30.88052 56.8701,27.41568 0,-3.48988 -28.2879,-18.89002 -56.9529,-34.3176 -28.6017,-15.39355 -57.5786,-30.81364 -57.5786,-34.17325 0,-3.38459 29.0394,12.01801 57.6569,27.37719 28.647,15.37504 56.8745,30.70776 56.8745,27.26269 0,-3.47328 -29.4898,-19.42937 -58.1688,-34.77437 -28.6358,-15.32197 -56.3503,-29.97914 -51.4488,-30.73944 4.938,-0.76597 32.652,13.89232 58.8129,27.87367 26.1722,13.98736 50.8047,27.29846 50.8047,23.8681 0,-3.44791 -24.3416,-16.54475 -47.3701,-28.82725 -23.0011,-12.26785 -44.5964,-23.67738 -38.2451,-23.67738 6.3799,0 27.9523,11.40955 47.7577,21.9656 19.8037,10.55517 37.8574,20.25948 37.8574,16.84458 0,-3.42237 -18.0994,-13.1082 -34.7524,-21.9656 -16.6372,-8.84904 -31.7738,-16.84458 -25.4163,-16.84458 6.3713,0 21.4919,7.99556 34.938,15.14234 13.4414,7.14435 25.2307,13.44724 25.2307,10.0497 0,-6.7902 -47.4456,-25.19204 -34.7224,-25.19204 6.3653,0 15.0674,4.60048 22.1541,8.35684 7.0817,3.7537 12.5682,6.67123 12.5682,3.29209 0,-6.75299 -21.9992,-11.64893 -9.276,-11.64893 12.7237,0 9.2717,1.53783 9.2717,1.53783 m 145.277,112.99342 c 0,0 -7.241,-0.49741 -7.241,-7.52142 0,-7.02401 13.6026,7.52142 26.3257,7.52142 12.7232,0 -26.3258,-14.54534 -26.3258,-21.52819 0,-3.4885 9.8147,1.88771 21.178,8.14553 11.3579,6.2549 24.2406,13.38266 30.5942,13.38266 6.3644,0 -6.5036,-7.12774 -21.0329,-15.12327 -14.5161,-7.98825 -30.7393,-16.86617 -30.7393,-20.33008 0,-3.46961 16.2657,5.39056 33.9904,15.12328 17.7218,9.73113 36.8826,20.33007 43.2281,20.33007 6.3701,0 -12.7691,-10.59892 -33.6577,-22.06066 -20.8641,-11.44829 -43.5609,-23.79978 -43.5609,-27.23765 0,-3.45254 22.7556,8.87448 46.839,22.06066 24.0856,13.18741 49.491,27.23765 55.8259,27.23765 6.3783,0 -18.9987,-14.05022 -46.2467,-28.95838 -27.2096,-14.88719 -56.4182,-30.69525 -56.4182,-34.10606 0,-3.44031 29.0532,12.22167 57.6701,27.83799 28.6475,15.63299 56.8613,31.22151 56.8613,27.71762 0,-3.52976 -28.2802,-19.09906 -56.9459,-34.69671 -28.6011,-15.56248 -57.5856,-31.15238 -57.5856,-34.54753 0,-3.42096 29.0484,12.15088 57.6655,27.67785 28.6473,15.54335 56.8659,31.04299 56.8659,27.55955 0,-3.50888 -28.2842,-18.98962 -56.9495,-34.49824 -28.6014,-15.47404 -57.5819,-30.97504 -57.5819,-34.35159 0,-3.40192 29.0437,12.08132 57.661,27.52045 28.6471,15.45524 56.8704,30.8675 56.8704,27.40415 0,-3.48836 -28.2881,-18.88205 -56.9531,-34.30313 -28.6018,-15.38709 -57.5784,-30.8007 -57.5784,-34.15895 0,-3.3832 29.0391,12.01293 57.6566,27.3657 28.647,15.36861 56.8748,30.69495 56.8748,27.25135 0,-3.47249 -29.7219,-19.54603 -58.4036,-34.88534 -28.6406,-15.31738 -56.1145,-29.83944 -50.2639,-30.09932 5.8935,-0.26178 33.3485,14.26098 59.0368,27.98758 25.6943,13.72981 49.6307,26.6606 49.6307,23.23088 0,-3.44594 -23.8767,-16.28744 -46.429,-28.31341 -22.5257,-12.01183 -43.6375,-23.16571 -37.2856,-23.16571 6.3792,0 27.4685,11.1539 46.7989,21.45465 19.3285,10.29971 36.9156,19.7494 36.9156,16.33577 0,-3.42054 -17.6317,-12.85225 -33.8085,-21.45465 -16.1619,-8.59446 -30.8175,-16.33577 -24.4596,-16.33577 6.3707,0 21.0108,7.74133 33.9819,14.63423 12.9664,6.8904 24.2862,12.93989 24.2862,9.54369 0,-6.7874 -45.545,-24.17792 -32.8218,-24.17792 6.365,0 14.5889,4.34765 21.2007,7.85152 6.6067,3.50126 11.621,6.16657 11.621,2.78885 0,-6.75023 -20.0986,-10.64037 -7.3754,-10.64037 12.7232,0 7.3711,0.53337 7.3711,0.53337 m 147.1776,113.99788 c 0,0 -9.1417,-1.54959 -9.1417,-8.57049 0,-3.50764 3.8805,-1.37064 9.355,1.65241 5.4694,3.02023 12.5128,6.91808 18.8714,6.91808 12.7232,0 -28.2264,-15.5913 -28.2264,-22.5711 0,-3.48703 10.2951,2.15001 22.1336,8.66812 11.8333,6.51525 25.1861,13.90298 31.5392,13.90298 6.3647,0 -6.9729,-7.3877 -21.9772,-15.64283 -14.9903,-8.24743 -31.6957,-17.38539 -31.6957,-20.84739 0,-3.46828 16.7492,5.65143 34.9489,15.64283 18.1972,9.98998 37.8255,20.84739 44.1703,20.84739 6.3706,0 -13.2356,-10.85738 -34.5993,-22.57723 -21.3381,-11.70588 -44.5199,-24.31613 -44.5199,-27.75201 0,-3.45134 23.2418,9.13394 47.8,22.57723 24.561,13.44477 50.4315,27.75201 56.7655,27.75201 6.379,0 -19.4626,-14.30722 -47.1856,-29.47202 -27.6835,-15.14321 -57.38,-31.20878 -57.38,-34.61753 0,-3.43886 29.0528,12.21635 57.6698,27.82595 28.6475,15.62625 56.8617,31.20809 56.8617,27.70574 0,-3.52819 -28.2805,-19.09083 -56.9462,-34.68179 -28.6011,-15.55583 -57.5853,-31.13905 -57.5853,-34.5328 0,-3.41952 29.048,12.14566 57.6651,27.66602 28.6473,15.53673 56.8663,31.02981 56.8663,27.54787 0,-3.50733 -28.2845,-18.98153 -56.9498,-34.48357 -28.6015,-15.4675 -57.5817,-30.96194 -57.5817,-34.33711 0,-3.40052 29.0433,12.07618 57.6607,27.50882 28.6471,15.44873 56.8708,30.85454 56.8708,27.39267 0,-3.48684 -28.2885,-18.8741 -56.9534,-34.28871 -28.6018,-15.38067 -57.5782,-30.78782 -57.5782,-34.14472 0,-3.38182 29.0388,12.00788 57.6563,27.35428 28.647,15.3622 56.8752,30.6822 56.8752,27.24006 0,-3.47108 -29.6203,-19.48227 -58.0742,-34.69461 -28.4144,-15.19113 -55.5301,-29.5198 -49.1861,-29.5198 6.3893,0 33.4761,14.32869 58.6909,27.79979 25.2176,13.47263 48.5694,26.08307 48.5694,22.65425 0,-3.44398 -23.4116,-16.03024 -45.4876,-27.79979 -22.0504,-11.75592 -42.6788,-22.65425 -36.3264,-22.65425 6.3785,0 26.9849,10.89835 45.8404,20.94391 18.8532,10.04436 35.9735,19.23953 35.9735,15.82716 0,-3.4187 -17.1637,-12.59639 -32.8644,-20.94391 -15.6866,-8.33998 -29.8613,-15.82716 -23.5031,-15.82716 6.3702,0 20.5299,7.4872 33.026,14.12633 12.4913,6.63658 23.3415,12.43274 23.3415,9.03789 0,-6.7846 -43.6444,-23.16422 -30.9212,-23.16422 6.3646,0 14.1107,4.09492 20.2474,7.34641 6.1319,3.24893 10.6737,5.66211 10.6737,2.2858 0,-6.74748 -11.8364,-9.63221 -11.8364,-9.63221 M 955.57222,780.4375 c 0,0 -7.00502,-0.36674 -7.00502,-7.39113 0,-7.0244 13.36659,7.39113 26.08975,7.39113 12.72316,0 -26.0898,-14.41544 -26.0898,-21.39866 0,-3.48869 9.75501,1.85513 21.05925,8.08062 11.29894,6.22257 24.12323,13.31804 30.4769,13.31804 6.3644,0 -6.44536,-7.09545 -20.91567,-15.05875 -14.45717,-7.95606 -30.62054,-16.80167 -30.62054,-20.26582 0,-3.46979 16.20573,5.35815 33.87144,15.05874 17.66277,9.69899 36.76547,20.26583 43.11107,20.26583 6.37,0 -12.7111,-10.56681 -33.54079,-21.99651 -20.80524,-11.41629 -43.44177,-23.73565 -43.44177,-27.17376 0,-3.45269 22.69516,8.84225 46.71959,21.99651 24.02657,13.15544 49.37427,27.17376 55.70927,27.17376 6.3782,0 -18.9411,-14.0183 -46.1301,-28.89459 -27.1508,-14.85539 -56.29881,-30.63147 -56.29881,-34.04253 0,-3.4405 29.05325,12.22233 57.67021,27.8395 28.6475,15.63384 56.8613,31.22321 56.8613,27.71913 0,-3.52997 -28.2802,-19.1001 -56.9459,-34.6986 -28.60111,-15.56332 -57.58566,-31.15406 -57.58566,-34.54938 0,-3.42114 29.04843,12.15154 57.66556,27.67934 28.6473,15.54419 56.8659,31.04465 56.8659,27.56102 0,-3.50907 -28.2842,-18.99064 -56.9495,-34.50008 -28.60145,-15.47486 -57.58201,-30.97669 -57.58201,-34.35341 0,-3.4021 29.04373,12.08197 57.66101,27.52191 28.6472,15.45606 56.8704,30.86913 56.8704,27.40559 0,-3.48855 -28.2881,-18.88304 -56.953,-34.30493 -28.6018,-15.38791 -57.57846,-30.80232 -57.57846,-34.16074 0,-3.38338 29.03913,12.01357 57.65666,27.36714 28.647,15.36941 56.8748,30.69655 56.8748,27.25277 0,-3.47305 -28.252,-19.61185 -56.9351,-34.95233 -28.62897,-15.31152 -57.6007,-29.77504 -57.6007,-29.77504 m 114.5313,54.39242 c 0,0 -27.0431,-13.75086 -52.8172,-27.51922 -25.7577,-13.75961 -50.19263,-27.51922 -43.8521,-27.51922 6.38443,0 30.7711,12.8992 53.3402,24.94283 22.5695,12.04385 43.3335,23.23143 43.3335,19.80932 0,-3.43324 -20.8169,-14.59945 -40.2403,-24.94282 -19.4029,-10.33246 -37.34223,-19.80933 -30.98709,-19.80933 6.37469,0 24.29509,9.47689 40.50479,18.10297 16.2062,8.62414 30.7226,16.40325 30.7226,12.99804 0,-3.40871 -14.553,-11.17309 -27.6023,-18.10296 -13.039,-6.92444 -24.5386,-12.99805 -18.1788,-12.99805 6.3676,0 17.8551,6.07363 27.7055,11.30113 9.8453,5.22478 18.0756,9.61159 18.0756,6.22433 0,-6.76908 -33.0579,-17.52546 -20.3348,-17.52546 12.7232,0 20.3347,10.75645 20.3347,4.02423 0,-6.73221 -1.2499,-4.02423 -1.2499,-4.02423 m 148.1871,114.53125 c 0,0 -8.9056,-1.41892 -8.9056,-8.44021 0,-3.50785 3.8212,-1.4034 9.2366,1.58712 5.4104,2.98771 12.395,6.85309 18.7537,6.85309 12.7232,0 -27.9904,-15.46142 -27.9904,-22.4416 0,-3.48721 10.2355,2.11744 22.015,8.60323 11.7742,6.48293 25.0686,13.83837 31.4218,13.83837 6.3647,0 -6.9146,-7.35542 -21.8599,-15.57832 -14.9314,-8.21524 -31.5769,-17.32091 -31.5769,-20.78315 0,-3.46844 16.6891,5.61904 34.8298,15.57832 18.1381,9.95784 37.7084,20.78315 44.0533,20.78315 6.3705,0 -13.1777,-10.82529 -34.4823,-22.51309 -21.2793,-11.67389 -44.4009,-24.25201 -44.4009,-27.68814 0,-3.45149 23.1814,9.10173 47.6807,22.51309 24.5019,13.41282 50.3147,27.68814 56.6488,27.68814 6.379,0 -19.405,-14.2753 -47.069,-29.40824 -27.6246,-15.11141 -57.2605,-31.14501 -57.2605,-34.55401 0,-3.43904 29.0528,12.21699 57.6698,27.82743 28.6474,15.62707 56.8616,31.20974 56.8616,27.7072 0,-3.52838 -28.2804,-19.09184 -56.9461,-34.68362 -28.6011,-15.55665 -57.5854,-31.1407 -57.5854,-34.53462 0,-3.4197 29.0481,12.1463 57.6652,27.66748 28.6473,15.53755 56.8663,31.03143 56.8663,27.54931 0,-3.50752 -28.2845,-18.98253 -56.9498,-34.48537 -28.6015,-15.46832 -57.5817,-30.96357 -57.5817,-34.33891 0,-3.40068 29.0434,12.07682 57.6607,27.51026 28.6471,15.44953 56.8707,30.85614 56.8707,27.39408 0,-3.48703 -28.2884,-18.87507 -56.9533,-34.29049 -28.6018,-15.38146 -57.5782,-30.78941 -57.5782,-34.14647 0,-3.38199 29.0388,12.00851 57.6563,27.35568 28.647,15.363 56.8752,30.68378 56.8752,27.24145 0,-3.47133 -29.6777,-19.51438 -58.1909,-34.75874 -28.4733,-15.22309 -55.6494,-29.58367 -49.3055,-29.58367 6.3894,0 33.5365,14.3606 58.8103,27.86356 25.2766,13.50453 48.686,26.14672 48.686,22.71776 0,-3.44423 -23.4693,-16.06218 -45.6045,-27.86356 -22.1094,-11.7877 -42.7978,-22.71776 -36.4455,-22.71776 6.3786,0 27.045,10.93008 45.9594,21.00733 18.9122,10.07606 36.0906,19.30283 36.0906,15.8903 0,-3.41893 -17.2219,-12.62816 -32.9818,-21.00732 -15.7456,-8.37157 -29.98,-15.89031 -23.6218,-15.89031 6.3703,0 20.5896,7.51875 33.1447,14.18939 12.5503,6.66809 23.4588,12.4957 23.4588,9.10068 0,-6.78495 -43.8804,-23.29007 -31.1572,-23.29007 6.3647,0 14.1701,4.1263 20.3658,7.40912 6.1908,3.28025 10.7913,5.72474 10.7913,2.34825 0,-6.74782 -12.0724,-9.75737 -12.0724,-9.75737 m 160.9103,114.53125 c 0,0 -10.8062,-2.47063 -10.8062,-9.48883 0,-3.50624 4.2989,-1.13976 10.1897,2.11259 5.8857,3.24948 13.3428,7.37624 19.7012,7.37624 12.7232,0 -29.891,-16.50694 -29.891,-23.48408 0,-3.48575 10.7162,2.37963 22.9709,9.12561 12.2496,6.74317 26.0139,14.35847 32.3665,14.35847 6.365,0 -7.3837,-7.61528 -22.8039,-16.09766 -15.4056,-8.47432 -32.5335,-17.83993 -32.5335,-21.30026 0,-3.46712 17.1727,5.87981 35.7884,16.09767 18.6134,10.21657 38.6511,21.30025 44.9953,21.30025 6.3711,0 -13.6441,-11.08366 -35.4237,-23.02945 -21.7533,-11.93137 -45.3601,-24.76817 -45.3601,-28.2023 0,-3.45029 23.6679,9.3611 48.6419,23.02945 24.9773,13.67008 51.255,28.2023 57.5882,28.2023 6.3797,0 -19.8687,-14.5322 -48.0077,-29.92167 -28.0985,-15.36733 -58.2224,-31.65834 -58.2224,-35.06527 0,-3.43759 29.0525,12.21168 57.6695,27.8154 28.6474,15.62035 56.862,31.19634 56.862,27.69533 0,-3.52682 -28.2808,-19.08362 -56.9465,-34.66872 -28.6011,-15.55001 -57.5851,-31.12737 -57.5851,-34.51989 0,-3.41827 29.0478,12.14107 57.6649,27.65565 28.6473,15.53092 56.8666,31.01824 56.8666,27.53763 0,-3.50598 -28.2848,-18.97445 -56.9501,-34.47072 -28.6014,-15.46178 -57.5814,-30.95045 -57.5814,-34.32442 0,-3.39928 29.043,12.07168 57.6604,27.49863 28.6471,15.44302 56.871,30.84316 56.871,27.3826 0,-3.48552 -28.2886,-18.86713 -56.9536,-34.27608 -28.6018,-15.37503 -57.5779,-30.77652 -57.5779,-34.13223 0,-3.3806 29.0385,12.00345 57.656,27.34425 28.647,15.35659 56.8755,30.67102 56.8755,27.23015 0,-3.46924 -29.2154,-19.25589 -57.2521,-34.24238 -27.998,-14.96583 -54.6883,-29.06951 -48.3437,-29.06951 6.3885,0 33.0504,14.1037 57.8492,27.35013 24.8012,13.24775 47.7465,25.63428 47.7466,22.20651 0,-3.44228 -23.0041,-15.80507 -44.663,-27.35014 -21.6342,-11.53189 -41.8393,-22.2065 -35.4865,-22.2065 6.3779,0 26.5616,10.67463 45.0011,20.49679 18.4369,9.82082 35.1483,18.79316 35.1483,15.3819 0,-3.41711 -16.7536,-12.3724 -32.0375,-20.49678 -15.2703,-8.1172 -29.024,-15.38191 -22.6655,-15.38191 6.3698,0 20.1089,7.26473 32.1891,13.68169 12.0752,6.41437 22.5139,11.98876 22.5139,8.59509 0,-6.78215 -41.9799,-22.27678 -29.2567,-22.27678 6.3644,0 13.692,3.87368 19.4128,6.90422 5.716,3.02802 9.8438,5.22047 9.8438,1.84541 0,-6.74507 -10.1719,-8.74963 -10.1719,-8.74963 m 160.9103,114.53125 c 0,0 -12.7068,-3.52188 -12.7068,-10.53699 0,-3.50464 4.7768,-0.87622 11.1431,2.63783 6.361,3.51114 14.2904,7.89916 20.6484,7.89916 12.7232,0 -31.7916,-17.55201 -31.7916,-24.52611 0,-3.48429 11.1971,2.64172 23.927,9.64777 12.7249,7.00329 26.9589,14.87834 33.311,14.87834 6.3654,0 -7.8525,-7.87503 -23.7478,-16.61678 -15.8798,-8.73326 -33.4902,-18.35874 -33.4902,-21.81714 0,-3.4658 17.6565,6.14048 36.7472,16.61678 19.0888,10.47521 39.5936,21.81714 45.9371,21.81714 6.3716,0 -14.1102,-11.34191 -36.3648,-23.54559 -22.2273,-12.18873 -46.3196,-25.28411 -46.3196,-28.71624 0,-3.44911 24.1545,9.62037 49.6034,23.54559 25.4525,13.92723 52.1951,28.71624 58.5273,28.71624 6.3804,0 -20.3322,-14.78899 -48.9462,-30.43488 -28.5723,-15.62313 -59.1845,-32.17146 -59.1845,-35.57633 0,-3.43613 29.0521,12.20636 57.6691,27.80336 28.6474,15.6136 56.8623,31.18291 56.8623,27.68345 0,-3.52525 -28.2811,-19.07539 -56.9467,-34.65379 -28.6011,-15.54337 -57.5848,-31.11405 -57.5848,-34.50517 0,-3.41685 29.0474,12.13584 57.6645,27.64382 28.6473,15.5243 56.867,31.00505 56.867,27.52596 0,-3.50444 -28.2851,-18.96637 -56.9503,-34.45606 -28.6015,-15.45525 -57.5812,-30.93736 -57.5812,-34.30995 0,-3.39787 29.0427,12.06654 57.66,27.487 28.6471,15.43651 56.8714,30.8302 56.8714,27.37112 0,-3.484 -28.2889,-18.85918 -56.9538,-34.26166 -28.6019,-15.36862 -57.5777,-30.76365 -57.5777,-34.11801 0,-3.37922 29.0381,11.99841 57.6557,27.33282 28.6469,15.3502 56.8758,30.65827 56.8758,27.21886 0,-3.46716 -28.7528,-18.99751 -56.3131,-33.72623 -27.5227,-14.70867 -53.7275,-28.55556 -47.3821,-28.55556 6.3876,0 32.5645,13.84691 56.8882,26.83691 24.3258,12.99107 46.8069,25.12202 46.8069,21.69544 0,-3.44034 -22.5385,-15.54805 -43.7212,-26.83691 -21.1588,-11.27618 -40.8809,-21.69544 -34.5276,-21.69544 6.3772,0 26.0784,10.41928 44.0429,19.98644 17.9617,9.56568 34.2059,18.28366 34.2058,14.87368 0,-3.41532 -16.2852,-12.11674 -31.093,-19.98644 -14.795,-7.8629 -28.0681,-14.87368 -21.7093,-14.87368 6.3693,0 19.6284,7.01079 31.2335,13.17417 11.6002,6.16074 21.5688,11.48197 21.5688,8.08965 0,-6.77937 -40.0792,-21.26382 -27.356,-21.26382 12.7231,0 27.3559,14.48453 27.3559,7.7422 0,-6.74233 -8.2712,-7.7422 -8.2712,-7.7422 m 146.2982,113.48534 c 0,0 -4.4723,1.04591 8.2505,1.04591 12.7232,0 -8.2458,-4.57267 -8.2458,-11.58469 0,-3.50305 5.255,-0.61279 12.0966,3.16284 6.8364,3.77267 15.2378,8.42185 21.5955,8.42185 12.7232,0 -33.6922,-18.59662 -33.6922,-25.56768 0,-3.48285 11.6782,2.9037 24.8833,10.16969 13.2002,7.2633 27.9038,15.39799 34.2552,15.39799 6.3659,0 -8.321,-8.13466 -24.6913,-17.13568 -16.354,-8.99209 -34.4472,-18.87732 -34.4472,-22.3338 0,-3.46449 18.1405,6.40104 37.7062,17.13568 19.5641,10.73373 40.536,22.3338 46.8787,22.3338 6.3722,0 -14.5762,-11.60005 -37.3057,-24.06152 -22.7013,-12.44596 -47.2793,-25.79982 -47.2793,-29.22996 0,-3.44793 26.2318,9.87954 52.1554,24.06152 25.9512,14.19704 51.5143,29.22996 51.5143,29.22996 m 10.8571,-1.03323 c 0,0 -28.2783,-14.77941 -56.9155,-30.43126 -28.5809,-15.62116 -57.6113,-32.16711 -57.6113,-35.57055 0,-3.43468 29.0518,12.20106 57.6688,27.79137 28.6474,15.60689 56.8627,31.16954 56.8627,27.67161 0,-3.52368 -28.2814,-19.0672 -56.947,-34.63893 -28.6012,-15.53674 -57.5846,-31.10076 -57.5846,-34.49049 0,-3.41542 29.047,12.13063 57.6642,27.63203 28.6473,15.5177 56.8673,30.99191 56.8673,27.51431 0,-3.5029 -28.2854,-18.9583 -56.9506,-34.44143 -28.6015,-15.44874 -57.5809,-30.9243 -57.5809,-34.29552 0,-3.39647 29.0423,12.06142 57.6597,27.47541 28.6471,15.43002 56.8718,30.81727 56.8718,27.35967 0,-3.48249 -28.2893,-18.85126 -56.9542,-34.24729 -28.6019,-15.3622 -57.5774,-30.75079 -57.5774,-34.10381 0,-3.37783 29.0378,11.99337 57.6554,27.32142 28.6469,15.34381 56.8761,30.64555 56.8761,27.2076 0,-3.4651 -28.29,-18.73925 -55.3738,-33.21032 -27.0474,-14.45163 -52.7668,-28.04184 -46.4208,-28.04184 6.3868,0 32.0788,13.59023 55.9276,26.32392 23.8503,12.73451 45.8669,24.60998 45.8669,21.1846 0,-3.4384 -22.0728,-15.29114 -42.7792,-26.32391 -20.6835,-11.02058 -39.9228,-21.18461 -33.569,-21.18461 6.3765,0 25.5954,10.16405 43.0849,19.47632 17.4865,9.31067 33.2633,17.77439 33.2633,14.36569 0,-3.41351 -15.8167,-11.86116 -30.1484,-19.47632 -14.3197,-7.60873 -27.1125,-14.36569 -20.7534,-14.36569 6.3688,0 19.1481,6.75698 30.2783,12.66689 11.1251,5.90723 20.6234,10.97541 20.6234,7.58445 0,-6.77657 -38.1786,-20.25134 -25.4554,-20.25134 12.7231,0 25.4554,13.47485 25.4554,6.73527 0,-6.73958 -6.3707,-6.73527 -6.3707,-6.73527"
       style="opacity:0.66822426;fill:none;stroke:#000000;stroke-width:3;stroke-linecap:butt;stroke-linejoin:miter;stroke-miterlimit:4;stroke-dasharray:none;stroke-dashoffset:0;stroke-opacity:1" />
  </g>
</svg>
