<?xml version="1.0" encoding="UTF-8" standalone="no"?>
<!-- Created with Inkscape (http://www.inkscape.org/) -->

<svg
   xmlns:dc="http://purl.org/dc/elements/1.1/"
   xmlns:cc="http://creativecommons.org/ns#"
   xmlns:rdf="http://www.w3.org/1999/02/22-rdf-syntax-ns#"
   xmlns:svg="http://www.w3.org/2000/svg"
   xmlns="http://www.w3.org/2000/svg"
   xmlns:sodipodi="http://sodipodi.sourceforge.net/DTD/sodipodi-0.dtd"
   xmlns:inkscape="http://www.inkscape.org/namespaces/inkscape"
   sodipodi:docname="ghost-spooked.svg"
   inkscape:version="0.92.2 5c3e80d, 2017-08-06"
   version="1.1"
   id="svg27345"
   height="800"
   width="3200">
  <sodipodi:namedview
     id="base"
     pagecolor="#ffffff"
     bordercolor="#666666"
     borderopacity="1.0"
     inkscape:pageopacity="0.0"
     inkscape:pageshadow="2"
     inkscape:zoom="0.365"
     inkscape:cx="1597.2603"
     inkscape:cy="400"
     inkscape:document-units="px"
     inkscape:current-layer="layer1"
     showgrid="false"
     inkscape:window-width="1680"
     inkscape:window-height="1005"
     inkscape:window-x="0"
     inkscape:window-y="1"
     inkscape:window-maximized="1" />
  <defs
     id="defs27347">
    <inkscape:path-effect
       back_thickness="0.25"
       front_thickness="1"
       stroke_width_bottom="1"
       stroke_width_top="1"
       fat_output="true"
       bottom_smth_variation="0;1"
       top_smth_variation="0;1"
       scale_tb="1"
       scale_tf="1"
       scale_bb="1"
       scale_bf="1"
       top_tgt_variation="0;1"
       bottom_tgt_variation="0;1"
       top_edge_variation="0;1"
       bottom_edge_variation="0;1"
       bender="1608.7009,662.35466 , 8.995122,0"
       do_bend="true"
       growth="0"
       dist_rdm="75;1"
       direction="1608.7009,657.35466 , 24.749006,11.46771"
       is_visible="true"
       id="path-effect15626"
       effect="rough_hatches" />
    <inkscape:path-effect
       effect="rough_hatches"
       id="path-effect10393"
       is_visible="true"
       direction="1634.4066,834.91327 , 36.933417,5.0967598"
       dist_rdm="0;1"
       growth="0"
       do_bend="true"
       bender="1634.4066,839.91327 , 7.363669,0"
       bottom_edge_variation="0;1"
       top_edge_variation="0;1"
       bottom_tgt_variation="0;1"
       top_tgt_variation="0;1"
       scale_bf="2"
       scale_bb="2"
       scale_tf="2"
       scale_tb="2"
       top_smth_variation="0;1"
       bottom_smth_variation="0;1"
       fat_output="false"
       stroke_width_top="1"
       stroke_width_bottom="1"
       front_thickness="1"
       back_thickness="0.25" />
    <inkscape:path-effect
       effect="rough_hatches"
       id="path-effect10391"
       is_visible="true"
       direction="1773.2942,521.85659 , 38.977433,3.8225699"
       dist_rdm="0;1"
       growth="0"
       do_bend="true"
       bender="1773.2942,526.85659 , 7.363669,0"
       bottom_edge_variation="0;1"
       top_edge_variation="0;1"
       bottom_tgt_variation="0;1"
       top_tgt_variation="0;1"
       scale_bf="2"
       scale_bb="2"
       scale_tf="2"
       scale_tb="2"
       top_smth_variation="0;1"
       bottom_smth_variation="0;1"
       fat_output="false"
       stroke_width_top="1"
       stroke_width_bottom="1"
       front_thickness="1"
       back_thickness="0.25" />
    <inkscape:path-effect
       effect="rough_hatches"
       id="path-effect10389"
       is_visible="true"
       direction="1421.8401,242.32253 , 35.35754,7.6451397"
       dist_rdm="0;1"
       growth="0"
       do_bend="true"
       bender="1421.8401,247.32253 , 7.363669,0"
       bottom_edge_variation="0;1"
       top_edge_variation="0;1"
       bottom_tgt_variation="0;1"
       top_tgt_variation="0;1"
       scale_bf="2"
       scale_bb="2"
       scale_tf="2"
       scale_tb="2"
       top_smth_variation="0;1"
       bottom_smth_variation="0;1"
       fat_output="false"
       stroke_width_top="1"
       stroke_width_bottom="1"
       front_thickness="1"
       back_thickness="0.25" />
    <inkscape:path-effect
       effect="rough_hatches"
       id="path-effect9226"
       is_visible="true"
       direction="1102.5802,202.92952 , 24.669602,4.0276901"
       dist_rdm="0;1"
       growth="0"
       do_bend="true"
       bender="1102.5802,207.92952 , 5,0"
       bottom_edge_variation="0;1"
       top_edge_variation="0;1"
       bottom_tgt_variation="0;1"
       top_tgt_variation="0;1"
       scale_bf="2"
       scale_bb="2"
       scale_tf="2"
       scale_tb="2"
       top_smth_variation="0;1"
       bottom_smth_variation="0;1"
       fat_output="false"
       stroke_width_top="1"
       stroke_width_bottom="1"
       front_thickness="1"
       back_thickness="0.25" />
    <inkscape:path-effect
       effect="rough_hatches"
       id="path-effect9224"
       is_visible="true"
       direction="1341.2209,230.11642 , 24.153697,4.0152439"
       dist_rdm="0;1"
       growth="0"
       do_bend="true"
       bender="1341.2209,235.11642 , 5,0"
       bottom_edge_variation="0;1"
       top_edge_variation="0;1"
       bottom_tgt_variation="0;1"
       top_tgt_variation="0;1"
       scale_bf="2"
       scale_bb="2"
       scale_tf="2"
       scale_tb="2"
       top_smth_variation="0;1"
       bottom_smth_variation="0;1"
       fat_output="false"
       stroke_width_top="1"
       stroke_width_bottom="1"
       front_thickness="1"
       back_thickness="0.25" />
    <inkscape:path-effect
       effect="rough_hatches"
       id="path-effect9222"
       is_visible="true"
       direction="1222.4734,496.10713 , -24.103925,-7.042235"
       dist_rdm="0;1"
       growth="0"
       do_bend="true"
       bender="1222.4734,491.10713 , -5,0"
       bottom_edge_variation="0;1"
       top_edge_variation="0;1"
       bottom_tgt_variation="0;1"
       top_tgt_variation="0;1"
       scale_bf="2"
       scale_bb="2"
       scale_tf="2"
       scale_tb="2"
       top_smth_variation="0;1"
       bottom_smth_variation="0;1"
       fat_output="false"
       stroke_width_top="1"
       stroke_width_bottom="1"
       front_thickness="1"
       back_thickness="0.25" />
    <inkscape:path-effect
       effect="rough_hatches"
       id="path-effect3100"
       is_visible="true"
       direction="1540.8385,644.70668 , -15.509646,2.0138452"
       dist_rdm="0;1"
       growth="0"
       do_bend="true"
       bender="1540.8385,638.66418 , -6.041742,0"
       bottom_edge_variation="0;1"
       top_edge_variation="0;1"
       bottom_tgt_variation="0;1"
       top_tgt_variation="0;1"
       scale_bf="2"
       scale_bb="2"
       scale_tf="2"
       scale_tb="2"
       top_smth_variation="0;1"
       bottom_smth_variation="0;1"
       fat_output="false"
       stroke_width_top="1"
       stroke_width_bottom="1"
       front_thickness="1"
       back_thickness="0.25" />
    <inkscape:path-effect
       back_thickness="0.25"
       front_thickness="1"
       stroke_width_bottom="1"
       stroke_width_top="1"
       fat_output="false"
       bottom_smth_variation="0;1"
       top_smth_variation="0;1"
       scale_tb="2"
       scale_tf="2"
       scale_bb="2"
       scale_bf="2"
       top_tgt_variation="0;1"
       bottom_tgt_variation="0;1"
       top_edge_variation="0;1"
       bottom_edge_variation="0;1"
       bender="1542.7188,613.88122 , 5,0"
       do_bend="true"
       growth="0"
       dist_rdm="0;1"
       direction="1542.7188,608.88122 , 26.788776,-3.1724596e-08"
       is_visible="true"
       id="path-effect3070"
       effect="rough_hatches" />
    <inkscape:perspective
       sodipodi:type="inkscape:persp3d"
       inkscape:vp_x="0 : 526.18109 : 1"
       inkscape:vp_y="0 : 1000 : 0"
       inkscape:vp_z="744.09448 : 526.18109 : 1"
       inkscape:persp3d-origin="372.04724 : 350.78739 : 1"
       id="perspective27353" />
    <inkscape:path-effect
       back_thickness="0.25"
       front_thickness="1"
       stroke_width_bottom="1"
       stroke_width_top="1"
       fat_output="true"
       bottom_smth_variation="0;1"
       top_smth_variation="0;1"
       scale_tb="1"
       scale_tf="1"
       scale_bb="1"
       scale_bf="1"
       top_tgt_variation="0;1"
       bottom_tgt_variation="0;1"
       top_edge_variation="0;1"
       bottom_edge_variation="0;1"
       bender="1608.7009,662.35466 , 8.995122,0"
       do_bend="true"
       growth="0"
       dist_rdm="75;1"
       direction="1608.7009,657.35466 , 56.841189,-16.564469"
       is_visible="true"
       id="path-effect15626-7"
       effect="rough_hatches" />
    <inkscape:path-effect
       back_thickness="0.25"
       front_thickness="1"
       stroke_width_bottom="1"
       stroke_width_top="1"
       fat_output="true"
       bottom_smth_variation="0;1"
       top_smth_variation="0;1"
       scale_tb="1"
       scale_tf="1"
       scale_bb="1"
       scale_bf="1"
       top_tgt_variation="0;1"
       bottom_tgt_variation="0;1"
       top_edge_variation="0;1"
       bottom_edge_variation="0;1"
       bender="1608.7009,662.35466 , 8.995122,0"
       do_bend="true"
       growth="0"
       dist_rdm="75;1"
       direction="1608.7009,657.35466 , 56.841189,-16.564469"
       is_visible="true"
       id="path-effect15626-7-0"
       effect="rough_hatches" />
  </defs>
  <metadata
     id="metadata27350">
    <rdf:RDF>
      <cc:Work
         rdf:about="">
        <dc:format>image/svg+xml</dc:format>
        <dc:type
           rdf:resource="http://purl.org/dc/dcmitype/StillImage" />
        <dc:title />
      </cc:Work>
    </rdf:RDF>
  </metadata>
  <g
     inkscape:label="Layer 1"
     inkscape:groupmode="layer"
     id="layer1"
     transform="translate(0,-252.36218)"
     style="display:inline">
    <path
       inkscape:connector-curvature="0"
       inkscape:original-d="m 1272.5645,354.67468 c -107.5583,0 -194.7444,64.92045 -194.7444,145 0,80.07955 87.1861,145 194.7444,145 37.0822,0 71.6926,-7.73126 101.1951,-21.125 -4.0913,0.42618 -8.2575,0.6875 -12.537,0.6875 -42.8832,0 -77.6391,-22.27384 -77.6391,-49.71875 0,-27.44491 34.7559,-49.6875 77.6391,-49.6875 42.8831,0 77.5829,22.24259 77.5829,49.6875 v 0.65625 c 18.0505,-21.9915 28.5034,-47.8405 28.5034,-75.5 0,-80.07955 -87.1867,-145 -194.7444,-145 z m 632.2444,24.15625 c -129.6591,0 -234.7726,66.28337 -234.7726,148.03125 0,2.79744 0.095,5.55335 0.3375,8.3125 14.7559,-8.11949 32.6553,-12.875 52.0029,-12.875 50.341,0 91.1881,32.20882 91.1881,71.96875 0,23.27953 -13.9975,43.96542 -35.6993,57.125 36.5979,14.85842 80.1789,23.46875 126.9434,23.46875 129.6592,0 234.7727,-66.25212 234.7727,-148 0,-81.74788 -105.1134,-148.03125 -234.7727,-148.03125 z m -393.7051,330.96875 c -128.335,-0.52332 -166.1304,69.83336 -127.8432,124.6875 14.9598,21.43303 -38.6871,87.25054 -18.6649,96.8125 47.0845,22.48615 194.1678,16.49588 253.4376,17.84375 29.8422,0.67865 217.3754,24.56047 234.7727,20.40625 205.5835,-49.09003 45.661,-180.80913 -120.0288,-205.15625 -80.1569,-11.77855 -124.6175,-40.93111 -194.8005,-53.5 -9.3644,-0.69038 -18.3173,-1.05886 -26.8729,-1.09375 z"
       inkscape:path-effect="#path-effect15626"
       id="path9212"
       d="m 1466.6562,511.60523 c 0,0 -6.8682,14.44162 -14.0499,28.18907 -7.1788,13.74196 -14.6603,26.79052 -15.5472,23.98639 -0.9633,-3.0455 6.6283,-21.5609 14.1693,-40.2094 7.5575,-18.68926 15.0548,-37.48988 14.4398,-41.30965 -0.6643,-4.12507 -9.6249,12.61368 -18.6322,30.31076 -9.0009,17.68463 -18.0625,36.34312 -18.3801,35.99526 -0.4379,-0.4797 8.4233,-19.92159 17.0759,-39.73352 8.665,-19.84058 17.1033,-40.01542 16.4512,-42.10424 -0.7265,-2.32739 -10.3423,16.78398 -20.2927,36.25417 -9.9421,19.45371 -20.2156,39.25546 -21.6031,38.22639 -1.5201,-1.12742 7.852,-23.20631 17.098,-45.58367 9.258,-22.40657 18.3732,-45.07633 17.117,-47.53153 -1.3504,-2.63904 -12.3866,18.94685 -23.7837,41.01103 -11.3889,22.04835 -23.1356,44.56218 -25.083,43.69989 -2.0885,-0.92474 8.2675,-25.69665 18.7448,-50.4362 10.488,-24.76467 21.0845,-49.46657 20.438,-50.37693 -0.7507,-1.05699 -12.3157,23.30356 -24.1232,47.92002 -11.7981,24.59701 -23.8281,49.42408 -24.5222,49.20291 -0.8394,-0.26748 10.6504,-25.82326 21.8007,-51.6455 11.161,-25.84663 21.963,-51.91988 20.7927,-53.34419 -1.2777,-1.55493 -13.7468,24.0888 -26.3788,50.12367 -12.6234,26.01712 -25.3996,52.39825 -26.1918,52.22928 -0.939,-0.20032 11.2185,-27.29026 23.0342,-54.61546 11.8256,-27.3482 23.2886,-54.8888 22.1267,-56.10548 -1.2714,-1.33139 -14.3751,25.95065 -27.9841,53.56197 -13.6009,27.59475 -27.692,55.48325 -29.7133,55.28191 -2.1697,-0.21612 10.4111,-29.56521 22.8307,-59.16626 12.4287,-29.62266 24.6729,-59.44753 23.1862,-60.72325 -1.5968,-1.37021 -15.9152,28.4053 -30.3986,58.57506 -14.4765,30.15543 -29.0991,60.65878 -29.8615,60.67256 -0.9103,0.0165 13.1157,-30.97445 26.8756,-62.06466 13.7675,-31.10768 27.2433,-62.25901 26.738,-62.65073 -0.6145,-0.47637 -14.8479,30.71332 -29.4009,62.08034 -14.5462,31.35239 -29.3874,62.82598 -29.6773,62.84424 -0.4705,0.0296 14.147,-31.6477 28.1146,-63.5763 13.9758,-31.94754 27.3044,-64.08953 25.925,-65.08395 -1.4877,-1.07246 -16.7743,31.28561 -32.3593,63.99918 -15.5801,32.70346 -31.4304,65.69646 -32.3748,65.84331 -1.0924,0.16988 14.0516,-33.3135 28.8714,-66.96654 14.8256,-33.66601 29.2932,-67.42859 28.5971,-67.88193 -0.8013,-0.52197 -16.3114,33.45156 -32.1724,67.62738 -15.8572,34.16774 -32.03,68.45803 -32.3507,68.5292 -0.5097,0.1131 15.4407,-34.36958 30.8436,-68.98248 15.4112,-34.63167 30.2848,-69.33727 29.5926,-69.7638 -0.7958,-0.49029 -16.7232,34.49048 -33.0021,69.6629 -16.2766,35.16745 -32.864,70.4354 -33.0755,70.49461 -0.4041,0.11312 16.0454,-35.29705 31.8156,-70.87666 15.7787,-35.59877 30.889,-71.30953 29.8841,-71.89335 -1.1069,-0.64312 -17.7525,35.59504 -35.3815,72.3653 -17.6334,36.77957 -36.193,73.95995 -39.1045,75.24785 -3.0618,1.35442 13.6595,-36.85792 30.3065,-75.62243 16.6463,-38.76297 33.1565,-77.94843 31.9737,-78.53253 -1.2703,-0.62725 -19.731,39.96771 -38.5542,80.78424 -18.8047,40.77642 -38.018,81.75502 -38.018,81.75502 0,0 19.3293,-40.63955 38.1486,-81.13352 18.8378,-40.53378 37.2096,-80.90186 38.0265,-80.49841 1.0695,0.52817 -15.5336,39.75209 -32.2027,78.54829 -16.6697,38.79768 -33.3436,77.0381 -30.1073,75.60667 3.6079,-1.59584 22.3873,-38.64845 39.9637,-75.28739 17.5635,-36.61229 33.8535,-72.73098 34.5509,-72.32576 0.8949,0.52001 -14.3004,36.25304 -30.0981,71.87881 -15.7893,35.60666 -32.192,71.04872 -31.6294,70.8912 0.8459,-0.23679 17.6519,-35.37122 33.8853,-70.42743 16.2275,-35.04354 31.8288,-69.97085 32.2196,-69.73008 0.5837,0.35969 -14.3724,35.08244 -29.8017,69.73929 -15.4248,34.64711 -31.2845,69.14524 -30.6615,69.00699 0.9356,-0.20761 17.3247,-34.35852 33.1421,-68.42234 15.8131,-34.05462 31.0079,-67.99456 31.4075,-67.73424 0.5888,0.38353 -13.9587,34.15779 -28.801,67.84695 -14.8367,33.67627 -29.9346,67.1945 -28.6937,67.00152 1.5384,-0.23922 17.6001,-33.08164 33.1429,-65.68657 15.5478,-32.61542 30.5475,-64.92665 31.6164,-64.15592 1.2746,0.91898 -12.1304,33.0656 -26.1216,65.03414 -13.983,31.94967 -28.5555,63.66467 -27.943,63.6261 0.8572,-0.054 15.9062,-31.36854 30.4197,-62.6324 14.5125,-31.26187 28.4572,-62.46702 28.6828,-62.29217 0.4025,0.31208 -13.148,31.46486 -26.9305,62.59295 -13.7749,31.11073 -27.7564,62.14141 -26.7073,62.12244 1.3175,-0.0238 16.1424,-30.35589 30.5862,-60.42314 14.4508,-30.08208 28.5002,-59.85159 29.697,-58.82448 1.3865,1.18994 -10.9286,31.0085 -23.3708,60.64917 -12.4332,29.61917 -24.9704,59.01112 -22.6693,59.24034 2.5469,0.25371 16.8285,-27.43789 30.3977,-54.94744 13.5776,-27.52671 26.426,-54.83366 27.3208,-53.89644 1.0676,1.11814 -10.4628,28.6457 -22.3013,56.01166 -11.8286,27.34307 -23.9451,54.48229 -22.8811,54.70928 1.2922,0.27565 14.2493,-25.88799 26.8426,-51.82341 12.6022,-25.95385 24.8279,-51.64936 25.7478,-50.52954 1.0808,1.31554 -9.7858,27.37009 -20.9591,53.23412 -11.1628,25.83977 -22.6136,51.44998 -21.6546,51.75557 1.1725,0.37363 13.3735,-24.21518 25.1419,-48.73179 11.7782,-24.53674 23.1101,-48.97175 23.5223,-48.39114 0.5618,0.79125 -10.0961,25.46841 -20.596,50.24993 -10.4892,24.75653 -20.8084,49.58808 -18.6063,50.5632 2.4024,1.06383 14.2969,-21.16337 25.6504,-43.1197 11.3622,-21.97309 22.1759,-43.65727 23.2327,-41.59122 1.1825,2.31197 -7.9878,24.94453 -17.257,47.36759 -9.2573,22.394 -18.5977,44.54469 -16.9761,45.74761 1.7944,1.33105 12.1807,-18.11073 22.082,-37.46155 9.9103,-19.36851 19.3265,-38.62741 19.8283,-37.01901 0.5956,1.90911 -7.8917,22.03516 -16.5688,41.89527 -8.6647,19.83167 -17.5024,39.3637 -16.9742,39.94249 0.6792,0.74415 9.8127,-17.46822 18.7641,-35.03132 8.9587,-17.57744 17.7409,-34.50892 18.261,-31.2747 0.5786,3.59711 -6.95,22.31229 -14.5153,41.01294 -7.5489,18.66 -15.127,37.28753 -14.1096,40.50611 1.1056,3.49767 8.6999,-9.77561 15.9335,-23.91911 7.2359,-14.14824 14.0966,-29.16368 14.0966,-29.16368 z m -99.6267,112.47706 c 0,0 -1.6931,2.33088 -7.4095,4.45259 -6.2216,2.30921 -2.9401,-4.37927 -4.9567,-4.48739 -2.4193,-0.12972 -6.6823,8.55504 -8.5113,9.10841 -2.3147,0.70029 2.7137,-9.54153 -0.6369,-9.983 -3.7388,-0.49264 -10.3841,13.03833 -12.312,13.50545 -2.3972,0.58082 5.0808,-14.64419 2.0614,-15.33081 -3.3913,-0.7712 -12.4178,17.60554 -17.0009,18.4198 -5.0362,0.89473 5.9727,-21.52084 2.5792,-22.84929 -3.7405,-1.46427 -16.7349,25.00264 -18.2723,25.17736 -1.9753,0.22447 11.836,-27.91215 10.7962,-28.43429 -1.3718,-0.68886 -15.9287,28.97251 -16.4523,29.02033 -0.9564,0.0874 13.9614,-30.31193 11.2034,-31.97232 -1.5377,-0.92576 -6.5042,7.22856 -11.331,15.62733 -4.8265,8.39826 -9.5127,17.03864 -10.377,17.08246 -1.0711,0.0543 2.9205,-9.08742 6.9919,-18.36528 4.0723,-9.27955 8.2214,-18.68943 7.598,-19.17984 -0.7689,-0.60491 -5.8933,8.84018 -10.9275,18.44235 -5.0335,9.60096 -9.975,19.35484 -10.2314,19.36143 -0.4595,0.0118 4.2365,-9.95849 8.8637,-20.06648 4.6283,-10.11029 9.1839,-20.35089 8.6014,-20.89117 -0.7205,-0.66836 -6.2235,9.5877 -11.6284,20.01668 -5.4041,10.42727 -10.7117,21.02229 -10.8565,21.02328 -0.3488,0.002 4.7931,-10.76323 9.7801,-21.75262 4.9885,-10.9928 9.8166,-22.19901 9.0263,-23.09494 -0.9188,-1.04164 -7.0586,10.15744 -13.5804,21.6056 -6.5206,11.44596 -13.4209,23.13527 -15.6478,23.06305 -2.4205,-0.0785 3.189,-13.93337 9.1883,-28.19687 6.004,-14.27476 12.3821,-28.92541 11.8174,-30.65177 -0.643,-1.96594 -8.4536,12.60614 -16.679,27.64383 -8.2223,15.03211 -16.8549,30.51721 -18.7652,30.34942 -1.9656,-0.17265 29.9559,-67.30309 60.2554,-134.49692 30.3277,-67.25621 58.979,-134.45975 57.4686,-135.09051 -1.4494,-0.60534 -31.7345,66.41011 -63.5334,133.72752 -31.7679,67.25179 -65.0103,134.71508 -65.297,134.67732 -0.346,-0.0456 32.8044,-67.56199 63.7071,-135.21238 30.9241,-67.69748 59.6744,-135.38768 58.0109,-136.0163 -1.5981,-0.60395 -32.1013,66.82704 -64.3788,134.49859 -32.2452,67.60391 -66.2362,135.38348 -67.6451,135.13847 -1.4669,-0.25511 31.371,-68.43516 62.3541,-136.62789 31.0019,-68.23393 60.2382,-136.35694 59.165,-136.70397 -1.127,-0.36442 -31.3341,67.63013 -63.3674,135.68978 -32.0202,68.03208 -65.7643,136.21196 -66.3944,136.08037 -0.6855,-0.14315 32.6095,-68.44372 63.7919,-136.79266 31.1995,-68.38667 60.3792,-136.70855 59.0876,-137.08296 -1.3451,-0.38988 -31.686,67.72009 -63.8312,135.8911 -32.1302,68.13941 -65.9679,136.43468 -66.6992,136.25736 -0.7855,-0.19047 32.4811,-68.60982 63.3597,-137.12365 30.8933,-68.54653 59.498,-137.08942 57.0252,-137.69053 -2.3987,-0.58309 -33.3838,67.32009 -65.6723,135.45515 -32.2559,68.06642 -65.8283,136.38612 -66.144,136.29284 -0.368,-0.10868 33.0265,-68.41371 64.346,-136.72774 31.3322,-68.34197 60.6966,-136.6091 59.873,-136.7817 -0.8796,-0.18436 -30.8768,67.90894 -63.0954,135.8974 -32.1995,67.94804 -66.5309,135.91253 -68.4732,135.26841 -1.8691,-0.6198 30.3993,-68.96808 60.9741,-137.06953 30.6035,-68.16542 59.5451,-136.14889 58.211,-136.35897 -1.393,-0.21937 -31.4046,67.37845 -63.1362,134.98908 -31.71,67.56459 -65.0634,135.28012 -65.6245,135.06597 -0.6145,-0.23454 32.2465,-67.94065 62.76,-135.65286 30.5208,-67.72848 58.8157,-135.41424 56.5057,-135.68942 -2.2378,-0.2666 -32.5561,66.60184 -64.4648,133.41573 -31.877,66.74762 -65.3921,133.54513 -67.028,132.8053 -1.5744,-0.71198 30.0221,-67.67654 59.5928,-134.32028 29.5977,-66.70452 57.2353,-133.22883 54.6247,-133.36422 -2.548,-0.13215 -32.3579,65.33134 -63.3988,130.74781 -31.0109,65.35313 -63.3224,130.80862 -64.1822,130.34376 -0.9187,-0.49667 30.4082,-65.86124 60.0069,-131.10322 29.5994,-65.24349 57.6068,-130.35986 56.9284,-130.36769 -0.7532,-0.009 -29.1621,64.82194 -59.3293,129.56893 -30.1398,64.6883 -61.9866,129.46904 -62.6814,129.0671 -0.7546,-0.43649 30.2881,-65.09881 59.6207,-129.65078 29.3319,-64.55061 57.0902,-128.99497 56.4964,-128.98871 -0.672,0.007 -28.7552,64.18662 -58.5419,128.29759 -29.7586,64.05066 -61.1742,128.21371 -61.7098,127.88626 -0.5961,-0.36448 30.2018,-64.39258 59.1598,-128.32163 28.956,-63.92481 56.2095,-127.76328 55.1209,-127.72729 -1.1701,0.0387 -29.1272,63.35806 -58.7401,126.51226 -29.5841,63.09291 -60.7805,126.20455 -61.8065,125.52128 -1.09,-0.72593 28.7714,-63.64249 56.8062,-126.34611 28.0305,-62.69423 54.3784,-125.20372 52.5926,-125.06851 -1.7501,0.13251 -29.428,61.73592 -58.4373,123.03534 -28.9842,61.24622 -59.3968,122.40487 -60.734,121.38192 -1.3164,-1.00707 27.1331,-61.9744 54.2292,-122.44661 27.1202,-60.52595 53.0046,-120.80673 52.2305,-120.70945 -0.8751,0.10997 -27.1859,59.93836 -55.0783,119.5091 -27.8623,59.50656 -57.2778,118.94802 -58.435,117.96321 -1.1456,-0.97486 26.477,-60.17282 52.4557,-118.81103 26.0011,-58.68874 50.4847,-117.08827 48.4029,-116.71893 -2.0789,0.36884 -27.9736,57.53887 -54.8608,114.26472 -26.8666,56.68246 -54.8383,113.17332 -56.037,111.96682 -1.203,-1.2109 24.7316,-57.29608 49.3236,-112.76106 24.6128,-55.51206 48.0187,-110.69408 46.5336,-110.33403 -1.5074,0.36543 -25.8588,54.58875 -51.089,108.44925 -25.212,53.82164 -51.4248,107.55174 -52.1277,106.73645 -0.7192,-0.8341 24.1906,-54.23638 47.8569,-107.13352 23.6854,-52.93977 46.2645,-105.66983 45.2363,-105.37257 -1.1679,0.33766 -24.261,52.29802 -48.4999,103.79111 -24.21,51.43177 -49.5569,102.58019 -50.7498,100.98742 -1.2182,-1.62671 21.7358,-52.05341 43.2001,-101.55754 21.4827,-49.54659 41.6218,-98.48215 38.5942,-97.33889 -3.1052,1.17256 -24.8561,47.82152 -46.7046,93.89294 -21.8366,46.04643 -43.8944,91.79078 -44.3278,91.02914 -0.5128,-0.90112 20.4769,-46.08705 39.9419,-90.67215 19.4507,-44.55255 37.4966,-88.60195 34.2746,-87.0672 -3.3362,1.58918 -22.8503,42.93042 -42.3143,83.21425 -19.4599,40.27502 -38.9784,79.74311 -39.8149,77.54197 -0.8859,-2.33091 15.9575,-40.39979 31.4975,-77.07072 15.5565,-36.71001 29.9437,-72.30523 26.2811,-69.88425 -3.8537,2.54729 -19.3631,34.46979 -34.3042,64.94138 -14.9461,30.48186 -29.4095,59.71415 -29.7799,56.93235 -0.405,-3.04171 11.2432,-30.15567 21.6923,-55.36164 10.4676,-25.25049 19.8356,-48.79802 15.9372,-44.92947 -4.2266,4.19427 -13.6633,22.6443 -22.075,39.73487 -8.4262,17.12005 -15.8694,32.96911 -15.7587,32.10887 0.1875,-1.45773 6.6558,-16.15604 12.9634,-30.40601 6.3199,-14.2778 12.5078,-28.18069 12.5078,-28.18069 0,0 -6.2651,13.92201 -12.6756,28.3227 -6.3975,14.3713 -12.9721,29.29969 -13.2133,31.17133 -0.326,2.5309 7.6325,-13.8247 16.3592,-31.5965 8.7153,-17.74837 18.2504,-37.03442 21.4886,-40.24724 3.6529,-3.62428 -5.7392,19.80927 -16.1577,44.94064 -10.4002,25.08748 -21.9263,52.07875 -21.4913,55.35047 0.4917,3.69857 15.3612,-25.78537 30.4793,-56.62812 15.1114,-30.82905 30.5527,-63.21287 33.6284,-65.24561 3.4688,-2.2926 -10.9596,33.22184 -26.4899,69.85925 -15.5138,36.59828 -32.264,74.60315 -31.3172,77.09571 1.0812,2.8466 20.9669,-36.78405 40.5488,-77.30533 19.5851,-40.52804 38.9722,-82.1937 41.6116,-83.45088 3.0482,-1.45183 -15.0469,42.53154 -34.4814,87.03042 -19.4488,44.5314 -40.3572,89.67589 -39.7696,90.70893 0.7328,1.2882 23.1401,-44.57842 45.0768,-90.82017 21.9479,-46.2653 43.5466,-93.17874 45.9915,-94.10191 2.8628,-1.08096 -17.3306,47.79839 -38.8026,97.30139 -21.4535,49.46033 -44.3322,99.85622 -43.0303,101.59503 1.528,2.0408 27.2098,-49.19664 51.5046,-100.78727 24.3232,-51.6509 47.2471,-103.8358 47.7849,-103.99125 0.8705,-0.25167 -21.7656,52.42698 -45.4439,105.32974 -23.659,52.85991 -48.4979,106.23978 -47.6907,107.17635 1.0559,1.225 27.5964,-52.57793 52.8855,-106.54046 25.319,-54.02626 49.3751,-108.40333 50.373,-108.64524 1.3311,-0.32269 -22.1342,54.81256 -46.7424,110.29197 -24.5872,55.43214 -50.4534,111.49899 -49.158,112.80312 1.5686,1.57921 29.8581,-54.96286 56.7934,-111.76606 26.9651,-56.86612 52.5512,-114.18215 54.1482,-114.46548 1.9325,-0.34283 -22.6133,58.01511 -48.6127,116.6765 -25.9769,58.61067 -53.5344,117.79569 -52.2916,118.85346 1.5466,1.31627 31.2723,-58.16028 59.1955,-117.76896 27.9529,-59.67211 54.0716,-119.66662 54.3639,-119.70335 0.6283,-0.079 -25.3199,60.16334 -52.4404,120.66553 -27.0963,60.44826 -55.483,121.40673 -54.0665,122.49053 1.738,1.32975 32.454,-59.84903 61.4932,-121.18364 29.0686,-61.39655 56.42,-123.13477 57.7256,-123.23362 1.6432,-0.12441 -24.7704,62.3504 -52.8034,125.02462 -28.0372,62.6836 -57.8381,125.59477 -56.6442,126.39 1.4411,0.95984 32.935,-62.15977 62.5683,-125.32723 29.6617,-63.22813 57.4162,-126.68611 58.0272,-126.70631 0.9486,-0.0314 -26.3717,63.77464 -55.3316,127.68208 -28.9617,63.91167 -59.701,127.93746 -58.9988,128.36684 0.9591,0.58647 32.6692,-63.57833 62.4737,-127.69593 29.8322,-64.17734 57.7094,-128.48667 57.8278,-128.48792 0.4551,-0.005 -27.3708,64.40848 -56.7073,128.94319 -29.3371,64.53607 -60.3221,129.19766 -59.4601,129.6963 1.1236,0.65001 33.2619,-64.12645 63.4451,-128.87588 30.2103,-64.80757 58.411,-129.76251 58.6159,-129.76015 0.541,0.006 -27.5347,65.09316 -57.1395,130.32231 -29.6042,65.22764 -60.8742,130.593 -59.8466,131.1486 1.2947,0.70002 33.8925,-64.74041 64.943,-130.14602 31.0804,-65.46846 60.6807,-131.04969 62.6886,-130.94556 2.4757,0.1284 -25.2322,66.62723 -54.8371,133.32074 -29.5779,66.63263 -61.1191,133.60089 -59.4323,134.36376 2.0859,0.94339 35.8788,-65.82195 67.7881,-132.60544 31.9334,-66.83357 61.9106,-133.83548 63.7564,-133.61558 2.1786,0.25954 -26.188,67.92322 -56.718,135.6445 -30.5227,67.70504 -63.3309,135.41896 -62.6004,135.69778 1.0242,0.39089 34.6506,-67.28323 66.3877,-134.87219 31.7587,-67.63461 61.5483,-135.32099 62.4255,-135.18286 1.2048,0.18973 -27.8097,68.15363 -58.4236,136.31428 -30.5851,68.09662 -62.8018,136.45522 -60.8147,137.11422 2.415,0.80089 37.0131,-67.10995 69.2348,-135.07116 32.2407,-68.00127 62.012,-136.17313 62.3865,-136.09465 0.697,0.14608 -28.741,68.39555 -60.0847,136.7352 -31.331,68.31176 -64.6756,136.63003 -64.1874,136.77424 0.7958,0.23509 34.6311,-68.02339 66.9056,-136.09536 32.3071,-68.14056 63.0644,-136.11428 64.9634,-135.65263 2.3479,0.57075 -26.3317,69.09884 -57.2377,137.64543 -30.8912,68.51394 -64.109,136.94844 -63.2005,137.16875 1.2225,0.29643 35.3176,-67.9274 67.4614,-136.06144 32.1587,-68.16538 62.2662,-136.33503 63.1218,-136.08702 1.169,0.33887 -28.0862,68.64786 -59.2994,137.0368 -31.1961,68.35129 -64.4436,136.66958 -63.6332,136.83882 1.1286,0.23571 35.1263,-67.86562 67.1567,-135.88495 32.0433,-68.04668 62.014,-136.0934 62.6578,-135.88521 0.9522,0.30791 -28.3605,68.42004 -59.3769,136.65814 -30.9977,68.19698 -63.789,136.39656 -62.1952,136.67373 1.9152,0.33308 36.154,-67.35671 68.4048,-134.93817 32.2617,-67.60427 62.4284,-135.16867 63.6714,-134.69889 1.5448,0.58383 -27.2827,68.26569 -58.2225,135.96999 -30.9183,67.65731 -64.0235,135.19607 -63.5481,135.25869 0.803,0.10577 34.2888,-67.2599 66.058,-134.4802 31.7774,-67.2379 61.7266,-134.3832 62.8245,-133.92464 1.3934,0.58199 -27.3361,67.77993 -57.6805,135.04531 -30.3162,67.20307 -62.1932,134.3579 -60.0958,134.54212 2.4377,0.21412 11.1818,-14.93013 19.3314,-29.80353 8.1532,-14.88 15.7045,-29.47311 16.124,-28.18973 0.5086,1.55581 -5.9395,16.20464 -11.9661,30.52071 -6.0218,14.30499 -11.607,28.24504 -9.051,28.32794 2.769,0.0898 9.848,-11.39788 16.3244,-22.74744 6.4778,-11.35203 12.3497,-22.55935 12.9125,-21.92121 0.7011,0.79507 -4.1979,12.00185 -9.2008,23.02004 -5.0014,11.01482 -10.1013,21.83082 -9.6144,21.82752 0.7012,-0.005 6.196,-10.42351 11.559,-20.76175 5.3641,-10.3401 10.5936,-20.59393 10.9339,-20.27821 0.4874,0.45213 -4.1397,10.69459 -8.781,20.82777 -4.6403,10.13092 -9.2911,20.14528 -8.6921,20.12988 0.8144,-0.0209 5.9562,-9.61803 10.9518,-19.13699 4.9963,-9.52032 9.8444,-18.95798 10.2145,-18.6668 0.5237,0.412 -3.6978,9.82551 -7.7822,19.12642 -4.0836,9.29926 -8.0274,18.48018 -6.815,18.41871 2.8538,-0.14468 19.4892,-34.04953 21.7143,-32.70979 2.5447,1.53213 -12.4545,32.08602 -11.2096,31.97232 1.6778,-0.15323 15.9715,-29.26463 16.458,-29.02033 0.8184,0.411 -13.069,28.69193 -10.8018,28.43428 2.7052,-0.3074 15.4622,-26.27943 18.2772,-25.17735 3.162,1.2379 -7.922,23.79767 -2.5836,22.84928 5.7913,-1.02886 14.605,-18.96546 17.0044,-18.41979 2.7714,0.63024 -4.7745,15.98744 -2.0643,15.3308 3.1796,-0.77035 9.6112,-13.86166 12.3147,-13.50544 3.0916,0.40737 -2.0037,10.78122 0.6348,9.983 3.1241,-0.94512 7.1678,-9.18054 8.5132,-9.10841 1.748,0.0937 -1.6032,6.92165 4.9558,4.48739 7.0647,-2.62193 7.855,-5.35992 7.855,-5.35992 z m 770.7122,-78.59996 c 0,0 -5.5598,11.61205 -12.2519,24.37182 -6.7025,12.77947 -14.5049,26.6425 -18.8348,31.24601 -4.7297,5.02847 3.6551,-14.86421 12.952,-36.79467 9.3153,-21.97407 19.4688,-45.84525 19.0831,-48.99185 -0.421,-3.43448 -13.6321,23.06269 -27.3609,50.70267 -13.7346,27.65171 -27.9165,56.2852 -29.1576,57.18195 -1.4785,1.06826 12.4706,-28.84714 26.3905,-59.43124 13.9287,-30.60322 27.7277,-61.66669 27.3544,-62.99022 -0.4303,-1.52571 -15.722,30.58694 -32.1599,63.66427 -16.4386,33.07868 -33.9325,66.9215 -37.1819,68.86291 -3.4403,2.05547 13.1156,-34.62442 29.6907,-72.57637 16.5891,-37.98377 33.0744,-76.98988 31.6495,-79.74599 -1.4849,-2.87236 -21.4586,38.00607 -42.4698,80.03096 -21.0093,42.02114 -42.9581,84.96567 -45.7702,86.20679 -2.9276,1.29212 17.8243,-43.70179 38.284,-89.50496 20.473,-45.83297 40.5235,-92.20618 39.317,-93.8217 -1.2535,-1.67848 -23.6512,45.66621 -46.7217,93.60891 -23.062,47.9253 -46.6846,96.20145 -46.9487,96.29885 -0.4282,0.15788 23.157,-48.37764 45.5019,-97.39106 22.3722,-49.07357 43.4823,-98.44457 41.9144,-100.25845 -1.6086,-1.86098 -25.5113,48.51433 -50.7572,99.72251 -25.2361,51.18828 -51.7076,102.96851 -54.5478,103.81787 -2.8892,0.864 22.0203,-52.62266 46.1543,-106.82254 24.1496,-54.23501 47.3926,-108.91238 45.5183,-110.60546 -1.8934,-1.71033 -28.0563,53.75933 -55.4487,109.92744 -27.3788,56.1404 -55.8818,112.74379 -57.7414,113.16232 -1.8728,0.42152 25.491,-57.17777 51.6736,-115.28864 26.1995,-58.14815 51.0948,-116.55242 49.2763,-117.9273 -1.8209,-1.37674 -29.3198,57.56458 -58.385,117.12543 -29.0487,59.52691 -59.5641,119.45177 -62.1233,119.8724 -2.5458,0.41843 26.2596,-60.7403 53.8607,-122.35569 27.6191,-61.65541 53.921,-123.53223 51.9828,-124.75005 -1.9213,-1.20714 -30.787,61.03134 -61.2862,123.80289 -30.48,62.7321 -62.5036,125.7971 -64.8569,126.04574 -2.3153,0.24463 28.0125,-63.83342 57.1476,-128.1521 29.1541,-64.36057 57.0183,-128.75564 55.909,-129.35444 -1.1738,-0.63363 -30.3407,63.98909 -61.5313,128.80798 -31.1946,64.82729 -64.2828,129.8255 -66.7919,129.98491 -2.4574,0.15613 28.7235,-65.83242 58.6116,-132.02318 29.9079,-66.2345 58.4374,-132.48949 57.1689,-133.08495 -1.3287,-0.62374 -31.2766,65.79779 -63.1718,132.38599 -31.8968,66.59137 -65.6107,133.33987 -67.5859,133.38598 -1.9113,0.0446 30.2356,-67.41142 60.9199,-134.99075 30.705,-67.62478 59.8743,-135.21733 58.7774,-135.67301 -1.1546,-0.47966 -31.4776,67.21634 -63.9197,135.02615 -32.4414,67.80817 -66.8718,135.73503 -69.0886,135.70893 -2.144,-0.0252 30.451,-68.67968 61.6644,-137.3799 31.2346,-68.74671 61.0276,-137.40961 60.2793,-137.68423 -0.8041,-0.29512 -31.3058,68.43358 -63.95,137.21963 -32.6415,68.78032 -67.2949,137.63516 -69.0346,137.56369 -1.6614,-0.0683 31.5116,-69.44743 63.1767,-138.83058 31.6869,-69.43078 61.8161,-138.75754 61.2097,-138.95911 -0.6611,-0.21976 -31.3157,69.15495 -64.2877,138.55008 -32.9675,69.38556 -68.123,138.82023 -70.2763,138.67262 -2.0709,-0.14198 31.1886,-70.17811 63.0146,-140.17947 31.8479,-70.04943 62.2236,-139.97861 61.6531,-140.14703 -0.6239,-0.18418 -31.4621,69.77253 -64.5001,139.74277 -33.0317,69.95698 -68.1363,139.96725 -69.6512,139.8239 -1.5723,-0.14878 32.311,-70.51839 64.2412,-140.93354 31.9462,-70.45033 62.0389,-140.84066 60.6442,-141.20678 -1.4461,-0.37962 -32.8472,69.92134 -66.1463,140.28918 -33.2908,70.35033 -68.3595,140.82006 -69.3992,140.69046 -1.094,-0.13636 33.1635,-70.8058 65.0331,-141.57837 31.8836,-70.80365 61.4841,-141.61719 58.8933,-142.19716 -1.3329,-0.29839 -9.9641,17.18326 -22.4978,43.55787 -16.0117,33.69336 -29.8168,63.27375 -45.8285,96.96712 -17.5404,36.86466 -33.1448,69.0989 -46.9734,97.15692 -13.0637,26.50608 -22.0267,44.16763 -22.2722,44.12725 -0.3665,-0.0603 8.14,-17.80262 20.7264,-44.40192 13.2443,-27.98965 28.5647,-60.65266 45.3029,-97.50602 16.4902,-36.30746 31.3473,-70.08831 42.9741,-97.58416 11.2679,-26.64695 18.2585,-44.47634 17.4102,-44.63637 -0.9692,-0.18282 -9.3233,17.39415 -21.6429,43.84937 -14.3309,30.77433 -26.6245,57.48414 -45.3447,97.16253 -17.3916,36.86227 -32.9763,69.24142 -46.6972,97.27378 -12.9876,26.53422 -21.8803,44.21274 -22.0342,44.18308 -0.2734,-0.0527 8.2978,-17.79104 20.9637,-44.38321 13.3838,-28.09937 28.6777,-60.51644 45.627,-97.46261 16.7771,-36.57084 31.5709,-69.739 43.6424,-97.46393 11.5768,-26.5885 18.9767,-44.33728 18.6796,-44.38718 -0.419,-0.0704 -8.3532,17.58293 -20.4097,44.0783 -12.6828,27.87161 -27.6391,60.46947 -45.0465,97.16946 -17.1193,36.09267 -33.6433,69.8649 -47.4727,97.04862 -13.4407,26.41971 -22.988,43.94233 -24.0268,43.71575 -2.1504,-0.46905 31.329,-71.44227 63.2176,-142.22817 31.9106,-70.83475 62.2485,-141.51771 61.2368,-141.65048 -0.5461,-0.0717 -8.5437,17.52198 -20.579,43.9394 -12.904,28.32417 -27.2683,59.76205 -44.706,96.91266 -17.081,36.39057 -32.9405,69.34362 -46.5062,96.89796 -13.0035,26.41239 -21.9934,43.98182 -22.3396,43.89533 -0.9009,-0.22509 33.2778,-70.80988 65.0415,-141.39928 31.7703,-70.604 61.2557,-141.16881 58.7211,-141.42693 -2.4498,-0.24948 -34.2537,69.69158 -67.6716,139.62958 -33.3931,69.88603 -68.433,139.83977 -70.0525,139.35581 -1.6733,-0.50003 31.7102,-70.51326 63.1214,-140.42449 31.415,-69.9197 60.9976,-139.71202 59.3151,-139.81256 -1.7424,-0.1041 -32.6678,69.23583 -65.4242,138.50207 -32.7367,69.2245 -67.2177,138.50052 -68.5039,138.05991 -1.3412,-0.4595 31.7938,-69.71249 62.7666,-138.8632 30.9742,-69.15401 59.9296,-138.19582 57.6486,-138.24949 -2.2623,-0.0532 -26.211,52.32316 -50.6509,104.46327 -24.3778,52.00789 -49.4234,104.16449 -49.5634,103.01056 -0.1663,-1.36982 24.0896,-53.26963 47.1187,-104.82697 23.0292,-51.55732 44.9224,-102.7722 44.1369,-102.77209 -0.8402,1.1e-4 -23.0381,50.03531 -45.9807,99.99226 -22.8963,49.85623 -46.6748,99.93647 -46.7861,99.52301 -0.159,-0.59082 23.2518,-50.46714 45.1486,-100.18503 21.8961,-49.71644 42.359,-99.27882 40.1316,-99.23449 -2.2952,0.0457 -23.8787,47.02897 -45.7726,93.87403 -21.8646,46.78225 -44.1296,93.62274 -44.4201,93.06878 -0.3657,-0.69733 21.2866,-47.38664 41.876,-93.88976 20.5882,-46.50025 40.1875,-92.82293 39.059,-92.77262 -1.2111,0.054 -21.5018,45.3155 -42.3744,90.3723 -20.8508,45.00976 -42.3541,89.97297 -42.8956,89.19517 -0.5915,-0.84949 19.9113,-45.76827 39.3541,-90.26624 19.4654,-44.54944 37.9525,-88.85747 36.3264,-88.74276 -1.7209,0.12138 -21.2945,43.17361 -41.4345,85.86091 -20.1258,42.65741 -40.8674,85.0647 -42.1618,83.74674 -1.3607,-1.38553 17.2922,-43.61802 35.0706,-85.31255 17.7933,-41.7295 34.7772,-83.06123 32.6732,-82.82015 -2.218,0.25415 -20.7309,40.35109 -39.4259,80.25495 -18.686,39.88484 -37.5956,79.6695 -38.2291,79.20394 -0.7162,-0.52637 17.2103,-40.18608 34.1064,-79.53502 16.9048,-39.36902 32.8264,-78.53085 30.4071,-78.16186 -2.5446,0.38812 -20.3048,38.41789 -38.2858,76.14907 -17.9766,37.72179 -36.2052,75.21764 -37.5749,74.49093 -1.468,-0.77883 14.8079,-37.93255 30.2606,-74.69267 15.4571,-36.77059 30.1297,-73.23027 27.4505,-72.67341 -2.8212,0.58636 -19.6243,36.15066 -36.5317,71.41422 -16.907,35.26241 -33.9434,70.28264 -35.4108,69.77506 -1.5826,-0.54742 13.4472,-35.09503 27.6783,-69.26657 14.2318,-34.17318 27.6949,-68.0339 24.6958,-67.21577 -3.1572,0.86125 -19.0842,34.09831 -34.9982,67.01317 -15.9168,32.92087 -31.8411,65.568 -33.4323,65.27941 -1.7239,-0.31266 12.0919,-32.31117 25.2354,-63.96288 13.1412,-31.6462 25.6337,-62.99477 22.7288,-61.97997 -3.08,1.07595 -18.0254,32.17518 -32.7188,62.95357 -14.6991,30.79018 -29.1642,61.30269 -29.9428,61.26417 -0.9274,-0.0459 12.4726,-30.15163 25.4187,-60.10104 12.9414,-29.9383 25.4482,-59.76163 24.031,-59.18712 -1.6032,0.6499 -15.3639,30.46641 -29.55,60.09844 -14.1934,29.64722 -28.8293,59.14844 -30.9458,59.24375 -2.276,0.10249 9.6578,-28.20481 21.2728,-56.24682 11.609,-28.02783 22.9165,-55.8261 20.5273,-54.63469 -2.5937,1.29344 -15.9893,29.35436 -29.3477,57.1031 -13.3688,27.77019 -26.716,55.26534 -28.1608,55.53446 -1.6235,0.30242 9.8501,-26.16775 21.0129,-52.45149 11.1546,-26.26457 22.0136,-52.37445 20.1497,-51.25561 -2.0881,1.25346 -14.6129,27.79264 -27.3589,54.12785 -12.7594,26.36269 -25.7549,52.5546 -27.8635,53.25087 -2.3064,0.76164 7.9974,-23.63615 17.79,-47.55511 9.7841,-23.89816 19.0691,-47.3379 15.5624,-44.55613 -3.7714,2.99177 -15.9853,27.59409 -27.4579,51.25003 -11.48,23.67138 -22.2759,46.52648 -22.4643,46.10102 -0.283,-0.6393 9.6799,-22.73566 18.1862,-43.13707 8.5072,-20.40363 15.5863,-39.10566 10.256,-32.96742 -11.4825,13.22294 -26.94,48.31439 -26.94,48.31439 0,0 17.334,-36.81644 26.5326,-47.40706 5.0474,-5.8112 -2.0728,12.81759 -10.5291,33.09981 -8.4467,20.25934 -18.2675,42.23551 -17.9272,43.00468 0.457,1.03274 11.6923,-22.15956 23.3226,-46.15183 11.6227,-23.9766 23.6971,-48.8827 26.6177,-51.19922 3.2951,-2.61345 -6.077,20.85412 -15.8531,44.72301 -9.7847,23.89006 -19.9861,48.2037 -17.5164,47.38823 2.7606,-0.91153 16.1373,-27.32762 28.9257,-53.74952 12.7753,-26.39494 24.9765,-52.82484 26.3167,-53.6292 1.6769,-1.00654 -9.2632,25.1178 -20.4136,51.36105 -11.1587,26.26259 -22.5429,52.6766 -20.7683,52.34605 2.0487,-0.38161 15.7558,-28.05242 29.1548,-55.88267 13.3889,-27.80918 26.4854,-55.81286 28.3747,-56.75489 2.2131,-1.10355 -9.1707,26.69814 -20.7762,54.70543 -11.6113,28.02159 -23.4615,56.28491 -21.0446,56.17608 2.6798,-0.12067 17.6584,-29.75764 31.8836,-59.46645 14.2247,-29.7076 27.6666,-59.48342 28.6344,-59.87574 1.25,-0.50668 -11.3305,29.31346 -24.2693,59.23305 -12.9436,29.93077 -26.2648,60.00256 -25.2027,60.0551 1.3177,0.0652 16.1161,-30.56093 30.8485,-61.41455 14.7269,-30.84202 29.4059,-61.95423 31.8363,-62.80318 2.7427,-0.95804 -9.8201,30.37907 -22.9583,62.00527 -13.1406,31.63176 -26.8804,63.60186 -25.0294,63.93758 2.0997,0.38081 18.3455,-32.35165 34.2976,-65.33819 15.9492,-32.98062 31.6254,-66.26367 34.1576,-66.95439 2.843,-0.77549 -10.6867,33.06471 -24.9155,67.21695 -14.228,34.15061 -29.1852,68.67691 -27.484,69.26539 1.942,0.67181 19.2911,-34.41127 36.2374,-69.74628 16.9468,-35.3361 33.5159,-70.98256 35.7313,-71.443 2.5279,-0.52537 -12.2077,35.90497 -27.6615,72.65304 -15.4492,36.73756 -31.6553,73.87561 -30.077,74.71304 1.8112,0.96105 20.3456,-36.57941 38.3666,-74.38253 18.0253,-37.81227 35.568,-75.9594 37.5222,-76.25747 2.2717,-0.34648 -13.7097,38.77762 -30.6104,78.12217 -16.8921,39.32438 -34.7511,78.97302 -33.9325,79.57471 1.0432,0.76681 20.2545,-39.05028 38.9911,-79.02754 18.7453,-39.99581 37.056,-80.24371 38.6936,-80.43135 1.9589,-0.22445 -15.0807,41.05974 -32.8688,82.76136 -17.773,41.66646 -36.3599,83.89096 -34.9063,85.37134 1.6665,1.69721 22.7053,-40.72858 42.8891,-83.49179 20.1974,-42.79228 39.5872,-86.03464 40.7388,-86.11586 1.4838,-0.10466 -17.0545,44.14426 -36.5129,88.66167 -19.4358,44.46565 -39.8743,89.38 -39.201,90.34733 0.8694,1.24905 22.6681,-43.7241 43.5872,-88.85955 20.9417,-45.18404 41.0034,-90.67614 41.7163,-90.70792 0.9877,-0.044 -18.6586,46.20944 -39.2381,92.67355 -20.5808,46.46697 -42.1698,93.15316 -41.7317,93.98883 0.5796,1.10545 23.1381,-45.73682 45.08,-92.66205 21.9704,-46.98614 43.4096,-94.24618 45.1475,-94.28076 2.088,-0.0416 -18.412,49.4281 -40.2946,99.09751 -21.8833,49.67084 -45.2314,99.54578 -45.0227,100.32201 0.3096,1.15138 24.3817,-48.92147 47.3789,-98.96684 23.0417,-50.14239 45.0606,-100.54838 45.4251,-100.54843 0.647,-9e-5 -21.2734,51.09939 -44.2841,102.59902 -23.0107,51.49963 -47.2042,103.39944 -47.0102,105.00004 0.2509,2.07088 25.5886,-50.06695 50.09,-102.30859 24.5606,-52.36775 48.449,-105.20558 50.163,-105.16524 2.1443,0.0505 -26.8836,69.07206 -57.866,138.21677 -30.9809,69.14141 -64.06,138.396 -62.6009,138.89591 1.7571,0.602 36.5224,-68.65742 69.2891,-137.91459 32.7864,-69.29863 63.4853,-138.71939 64.6905,-138.64738 1.5481,0.0925 -28.1082,69.8669 -59.5325,139.77961 -31.4029,69.86495 -64.618,139.96082 -62.9562,140.45744 2.0992,0.62734 37.418,-69.29905 70.8367,-139.20779 33.4434,-69.96055 65.0182,-139.97325 66.9394,-139.7776 2.4025,0.24467 -27.1578,70.79418 -58.9388,141.39386 -31.7744,70.5851 -65.9,141.17661 -64.8765,141.43235 0.5915,0.14778 9.7724,-17.3824 22.9085,-43.77261 13.5987,-27.31942 29.7318,-60.69279 46.7238,-96.8774 17.2041,-36.636 32.0044,-69.13534 44.5429,-96.96372 11.9143,-26.443 19.7228,-44.06906 20.0081,-44.03162 0.8811,0.11564 -29.5323,70.78508 -61.4545,141.6173 -31.9001,70.78335 -65.3273,141.7652 -63.0528,142.26135 1.2875,0.28084 11.0263,-17.20383 24.5989,-43.5999 13.9131,-27.05828 30.6057,-61.02468 47.6858,-97.01836 17.2785,-36.41166 32.4561,-69.60672 44.8798,-97.21226 11.9363,-26.52257 19.6944,-44.20669 19.8437,-44.18161 0.2329,0.0391 -7.2182,17.77948 -18.8317,44.36216 -12.1389,27.78543 -26.8935,60.81778 -43.7074,97.45459 -17.011,37.06617 -32.1843,69.24508 -45.5966,97.47044 -12.639,26.59781 -21.166,44.34493 -20.8298,44.40974 0.4054,0.0782 9.4905,-17.56408 22.6097,-44.07421 13.6914,-27.66605 29.6694,-60.71765 46.9075,-97.23783 17.7913,-37.69211 31.9025,-68.3869 45.1752,-97.199 12.1981,-26.47939 20.3648,-44.09249 21.0792,-43.95772 0.7846,0.14801 -6.2572,17.96879 -17.5619,44.6102 -11.6802,27.5265 -26.5266,61.23258 -43.0399,97.5766 -16.7912,36.95563 -32.0093,69.41805 -45.2732,97.51531 -12.5595,26.60501 -21.0217,44.35561 -20.5915,44.42636 0.5003,0.0823 9.6561,-17.54423 22.8508,-44.0249 13.7862,-27.66768 29.8064,-60.61589 47.1794,-97.11208 18.9571,-39.82389 31.1186,-66.07794 45.6557,-96.99588 12.412,-26.39826 20.8568,-43.91847 21.9385,-43.6763 2.4649,0.55182 -27.2134,71.35735 -59.111,142.16395 -31.8837,70.77555 -66.0921,141.45904 -64.8683,141.61158 1.5581,0.19422 36.8858,-70.2104 70.1843,-140.54455 33.3067,-70.35156 64.4621,-140.68488 65.4136,-140.43509 1.2707,0.33362 -28.9004,70.71781 -60.8615,141.17309 -31.9452,70.42015 -65.7804,140.80599 -64.0765,140.96723 2.0405,0.1931 37.4003,-69.74495 70.4362,-139.67843 33.0422,-69.94665 63.6316,-139.92828 63.7672,-139.88824 0.4482,0.13232 -30.0066,70.05705 -61.8701,140.11315 -31.8417,70.00807 -65.0538,140.06225 -62.8498,140.21334 2.6854,0.18411 38.092,-69.17047 71.0601,-138.52523 32.9727,-69.36427 63.3757,-138.75725 63.5555,-138.69747 0.4859,0.16153 -29.723,69.48564 -61.4263,138.92496 -31.6816,69.39176 -64.8081,138.79094 -63.0119,138.86474 2.2791,0.0936 37.1795,-68.67401 69.8183,-137.41634 32.6414,-68.74802 62.8883,-137.48782 63.2176,-137.36698 0.6293,0.23098 -29.2441,68.89321 -60.4958,137.65034 -31.2307,68.71071 -63.78,137.38695 -61.4992,137.41379 2.7639,0.0325 37.4362,-67.79746 69.8705,-135.55883 32.4351,-67.763 62.4999,-135.46223 63.1882,-135.17625 0.9801,0.40718 -28.2704,68.00151 -58.9935,135.63914 -30.7024,67.59225 -62.8046,135.07249 -60.7542,135.02462 2.5319,-0.0591 36.4822,-66.7004 68.3669,-133.23488 31.8831,-66.53132 61.5686,-132.94634 62.4403,-132.53709 1.154,0.54176 -27.4577,66.80143 -57.3847,133.05151 -29.9074,66.20643 -61.0447,132.22177 -58.4451,132.05662 3.0772,-0.1955 36.3947,-65.07364 67.5711,-129.83176 31.1724,-64.74976 60.0717,-129.35441 60.8002,-128.96113 0.9978,0.53862 -26.9496,64.94155 -56.124,129.32089 -29.1555,64.33756 -59.441,128.44562 -56.9805,128.18565 2.9339,-0.30998 35.1786,-63.23964 65.6335,-125.88855 30.4743,-62.68893 59.0671,-124.89572 60.5561,-123.96008 1.83,1.14997 -24.5566,63.0393 -52.1975,124.71771 -27.6231,61.63852 -56.3877,122.83108 -53.692,122.38803 3.1582,-0.51906 33.8837,-60.28819 62.8973,-119.71236 29.0305,-59.45879 56.2478,-118.3497 57.6552,-117.28547 1.7149,1.29679 -23.2668,59.7187 -49.4898,117.89496 -26.2063,58.13911 -53.5313,115.77734 -51.5036,115.32098 2.4787,-0.55784 31.1802,-56.98413 58.5134,-113.00079 27.3471,-56.04519 53.2186,-111.44382 54.7182,-110.08897 1.7757,1.60426 -21.5559,56.30599 -45.7313,110.57514 -24.1598,54.23416 -49.0325,107.76512 -45.9818,106.85286 3.4856,-1.04229 30.1386,-52.61311 55.314,-103.648 25.1857,-51.05576 48.784,-101.33296 50.029,-99.89238 1.4768,1.70885 -19.7241,51.11108 -42.1247,100.22625 -22.3732,49.05514 -45.9248,97.64311 -45.3285,97.42326 0.9361,-0.3451 24.7292,-48.39152 47.7185,-96.13957 22.9981,-47.76646 45.0784,-94.9856 45.9874,-93.76819 1.1202,1.50034 -19.0241,47.91252 -39.528,93.79352 -20.4906,45.85133 -41.2107,90.90274 -38.1072,89.53314 3.514,-1.55079 25.6066,-44.21217 46.522,-86.01361 20.918,-41.80664 40.5585,-82.52779 41.749,-80.22414 1.3509,2.61415 -15.2356,41.67835 -31.8619,79.72651 -16.6123,38.01636 -33.1416,74.76727 -29.5068,72.59585 4.0252,-2.4046 21.6185,-35.87603 37.9221,-68.65218 16.2868,-32.74251 31.215,-64.68882 31.4444,-63.875 0.3206,1.13724 -13.5869,32.27743 -27.561,62.9653 -13.9654,30.66882 -27.8971,60.67738 -26.2067,59.45616 2.0873,-1.5079 16.3198,-29.67031 29.8773,-56.93247 13.5529,-27.25312 26.3568,-53.44017 26.6613,-50.95215 0.3563,2.9108 -9.9381,26.93052 -19.3208,49.03845 -9.3638,22.06319 -17.7422,42.0756 -12.7303,36.74807 5.4536,-5.79693 13.3607,-19.88564 19.8907,-32.59431 6.5193,-12.68812 11.6304,-23.93085 11.6304,-23.93085 z m -350.6711,99.51339 c 0,0 -4.1236,7.32276 -5.1531,6.92131 -1.3732,-0.53546 -0.3649,-2.88159 -0.3649,-2.88159 0,0 -1.6831,3.16333 -0.079,3.78892 1.956,0.7628 5.5969,-7.82864 5.5969,-7.82864 z m 162.8091,253.12268 c 0,0 -4.4743,9.05683 -9.0368,18.15386 -4.5646,9.10093 -9.2054,18.2241 -9.3853,18.38 -0.5323,0.46151 4.0996,-9.32743 8.6916,-19.86556 4.5969,-10.54937 9.1386,-21.8142 8.6499,-24.36071 -0.5453,-2.84149 -7.8111,10.42572 -15.4506,24.64911 -7.6432,14.23042 -15.6454,29.37902 -17.2846,30.33552 -1.9017,1.10962 5.5849,-15.51172 13.1855,-32.88552 7.6054,-17.38482 15.2894,-35.45259 14.3672,-37.29093 -1.0152,-2.02369 -11.1273,17.28106 -21.6511,37.3172 -10.5244,20.03729 -21.4342,40.74471 -23.2729,41.53214 -2.0549,0.87999 8.0247,-21.21281 18.3023,-43.67563 10.2822,-22.47277 20.7211,-45.23243 20.3677,-45.73592 -0.4529,-0.6451 -11.7045,22.44637 -23.3042,45.81512 -11.597,23.3633 -23.5049,46.92484 -24.2183,47.19262 -0.914,0.34313 10.6119,-23.76333 21.8886,-48.24315 11.2819,-24.4912 22.2694,-49.2648 21.4261,-50.31289 -0.9436,-1.17263 -13.6001,24.2045 -26.4199,49.94587 -12.8168,25.7354 -25.7585,51.75144 -25.9852,51.8267 -0.4411,0.14642 12.3788,-26.08981 24.5541,-52.78269 12.1861,-26.71645 23.7152,-53.8188 22.1393,-55.52253 -1.6753,-1.81117 -16.0189,26.18118 -30.6408,54.7577 -14.6189,28.57052 -29.4779,57.63844 -30.5956,57.94836 -1.2786,0.35455 12.9087,-29.407 26.8114,-59.46521 13.9093,-30.07255 27.4823,-60.3365 26.7098,-61.05847 -0.8672,-0.81056 -15.7536,29.80444 -31.3467,60.78181 -15.587,30.96548 -31.8378,62.2008 -33.5802,62.57146 -1.8867,0.40132 13.2594,-31.84528 28.1614,-64.40424 14.9101,-32.57662 29.5236,-65.35853 28.6099,-66.11611 -1.003,-0.83166 -16.938,32.00101 -33.3066,65.11542 -16.357,33.09089 -33.117,66.39562 -33.6198,66.39046 -0.6646,-0.007 15.7416,-33.63908 31.4002,-67.50983 15.6711,-33.89791 30.5964,-67.95281 29.309,-68.94076 -1.3746,-1.05488 -18.0424,32.94578 -35.1973,67.27352 -17.1421,34.30231 -34.7439,68.86989 -35.6691,68.82172 -1.0348,-0.0539 15.8389,-35.1695 32.0175,-70.51116 16.1923,-35.37158 31.6518,-70.89369 30.1955,-71.91012 -1.5399,-1.07479 -18.8883,34.33302 -37.0561,70.04458 -18.154,35.6846 -37.1007,71.61404 -39.3268,71.44774 -2.3251,-0.17369 14.8472,-37.28869 31.677,-74.50562 16.8438,-37.2478 33.3119,-74.52793 32.2494,-75.18627 -1.1407,-0.70674 -18.9489,36.46809 -37.362,73.88407 -18.399,37.38716 -37.3762,74.95604 -38.1172,74.8933 -0.8861,-0.075 17.5156,-38.02033 35.0535,-76.13333 17.5505,-38.14012 34.2522,-76.36653 32.921,-77.13942 -1.4064,-0.8165 -19.7456,37.27045 -38.8389,75.60778 -19.0789,38.30817 -38.8862,76.80958 -40.3522,76.67622 -1.5518,-0.14115 17.0248,-39.3409 34.8035,-78.72013 17.7932,-39.41159 34.7555,-78.9364 32.9541,-79.88943 -1.8718,-0.9903 -20.9843,38.33709 -40.551,77.97733 -19.5522,39.61083 -39.536,79.48084 -40.0784,79.42875 -0.6796,-0.0653 18.8792,-40.17441 37.5665,-80.36094 18.6993,-40.21251 36.5515,-80.42447 35.7493,-80.82533 -0.8696,-0.43459 -19.6888,39.68552 -39.2273,79.98287 -19.5237,40.26691 -39.7414,80.65547 -40.2505,80.6056 -0.6454,-0.0632 19.1707,-40.66899 38.178,-81.30476 19.0193,-40.66124 37.2574,-81.27607 36.8254,-81.48471 -0.5488,-0.26505 -19.282,40.34749 -39.0223,80.99993 -19.7374,40.64636 -40.4283,81.35086 -41.5503,81.23934 -1.1948,-0.11877 18.5106,-41.29626 37.564,-82.48129 19.0679,-41.21656 37.4568,-82.38358 36.9029,-82.63903 -0.67,-0.30904 -19.685,40.84099 -39.6691,82.04468 -19.981,41.19733 -40.8765,82.46741 -41.8737,82.3667 -1.131,-0.11423 18.9419,-41.77738 37.8596,-83.6348 18.9294,-41.88328 36.7317,-83.88327 34.6035,-84.80043 -2.1883,-0.94313 -22.4191,40.81239 -43.0343,82.87386 -20.6008,42.03178 -41.5668,84.32209 -41.7797,84.30012 -0.3422,-0.0353 20.4787,-42.40036 40.0868,-84.89662 19.6195,-42.52102 38.0584,-85.09897 36.6159,-85.68394 -1.4997,-0.60821 -21.5776,41.80207 -42.7217,84.38379 -21.1292,42.55184 -43.3028,85.22766 -45.4664,85.00114 -2.2229,-0.23273 18.0098,-43.66526 37.6282,-87.10844 19.6322,-43.47394 38.6278,-86.91028 37.5548,-87.30439 -1.1262,-0.41366 -21.3289,42.89702 -42.2422,86.37874 -20.899,43.45207 -42.4891,87.03096 -42.7302,87.00548 -0.367,-0.0388 21.0528,-43.6899 41.0581,-87.50288 20.0158,-43.8362 38.6554,-87.76455 36.6107,-88.47387 -2.0959,-0.72704 -22.9898,42.965 -44.3697,86.90304 -21.3658,43.90923 -43.2013,88.02435 -43.4361,87.99939 -0.3585,-0.0381 21.313,-44.21633 41.7813,-88.46887 20.4785,-44.27452 39.7972,-88.55739 38.7044,-88.9147 -1.1417,-0.37332 -21.6681,43.78233 -43.0806,88.07924 -21.3986,44.26822 -43.6657,88.63811 -44.4947,88.5498 -0.9525,-0.10148 20.6067,-44.70462 41.0937,-89.36049 20.4966,-44.67698 39.968,-89.34334 38.8808,-89.67688 -1.1342,-0.34794 -21.7977,44.19246 -43.7178,88.82771 -21.9063,44.60725 -45.0516,89.27205 -47.2948,89.03285 -2.2901,-0.24421 18.7612,-45.52131 39.0903,-90.79197 20.3415,-45.2983 39.9452,-90.55599 38.6838,-90.89958 -1.3053,-0.35558 -22.269,44.75838 -44.2493,89.98764 -21.9673,45.20255 -44.9368,90.48843 -46.3043,90.34316 -1.4114,-0.14993 20.2589,-45.77495 40.8096,-91.44709 20.5625,-45.69839 39.9906,-91.41414 38.084,-91.87677 -1.9484,-0.47275 -23.3969,45.03082 -45.9211,90.65282 -22.512,45.59692 -46.0876,91.28527 -48.2695,91.05667 -2.2224,-0.23284 19.2587,-46.38844 39.8987,-92.53221 20.6507,-46.16763 40.4503,-92.30168 38.9322,-92.61076 -1.5575,-0.31713 -22.9476,45.65321 -45.4067,91.70993 -22.4479,46.03377 -45.9554,92.13293 -47.6637,91.95867 -1.7468,-0.1782 20.0941,-46.59012 40.8035,-93.01793 20.7189,-46.44919 40.2989,-92.89911 38.1416,-93.26013 -2.1954,-0.36742 -23.9986,45.86242 -46.3888,92.2176 -22.3804,46.33479 -45.3426,92.78056 -45.7286,92.74302 -0.503,-0.0489 22.1423,-46.53852 43.1712,-93.10795 21.0346,-46.58183 40.5178,-93.20624 38.06,-93.5868 -2.4949,-0.38629 -24.5023,46.00345 -47.301,92.49797 -22.7895,46.47575 -46.3645,93.04178 -47.8425,92.91427 -1.5139,-0.13062 20.6229,-46.94899 41.4922,-93.82293 20.8793,-46.89636 40.4787,-93.82327 38.0806,-94.28305 -2.4326,-0.46642 -24.5544,46.28906 -47.6486,93.19525 -23.0859,46.88944 -47.1282,93.89283 -49.1814,93.83843 -2.0861,-0.0553 20.06,-47.46902 41.4906,-94.8952 21.4398,-47.44643 42.1425,-94.85824 41.4664,-95.01088 -0.7845,-0.1771 -22.1661,47.26093 -45.0218,94.73935 -22.8552,47.47771 -47.0999,94.99797 -49.0766,94.98176 -2.0068,-0.0165 20.4498,-47.96836 42.04,-95.97844 21.5998,-48.0313 42.3053,-96.06145 41.1975,-96.34056 -1.1338,-0.28565 -23.069,47.7412 -46.2544,95.90328 -23.1757,48.14214 -47.5747,96.36048 -49.1912,96.35809 -1.6416,-0.002 21.319,-48.60732 43.206,-97.3061 21.8975,-48.72206 42.6885,-97.46896 41.2353,-97.87183 -1.4741,-0.40869 -23.8883,48.34103 -47.4596,97.26513 -23.5607,48.90216 -48.2487,97.91207 -49.6767,97.91399 -1.4469,0.002 21.9883,-49.37742 44.4021,-98.81889 22.4251,-49.46655 43.7932,-98.91918 42.8871,-99.18921 -1.0042,-0.29927 -23.3233,49.20555 -47.2138,98.78605 -23.8906,49.58067 -49.2603,99.23653 -51.4224,99.24017 -2.1761,0.004 21.3188,-50.24229 43.6677,-100.64086 22.3615,-50.42707 43.5355,-100.92032 41.5671,-101.55374 -1.9775,-0.63635 -25.3727,49.86282 -49.9681,100.6077 -24.5825,50.71816 -50.3298,101.60204 -52.055,101.60149 -1.7291,-5.5e-4 22.5419,-51.38533 45.5556,-102.90981 23.0276,-51.55569 44.7534,-103.15765 43.0082,-103.74863 -1.7469,-0.59154 -25.4458,51.01011 -50.539,102.85252 -25.0789,51.81275 -51.5133,103.77996 -53.5558,103.7712 -2.0367,-0.009 22.6563,-52.58766 46.3284,-105.23013 23.687,-52.67555 46.3083,-105.31816 45.4375,-105.61963 -0.9562,-0.331 -24.4819,52.37034 -49.7319,105.15027 -25.2496,52.77899 -52.1206,105.63937 -54.1617,105.6218 -2.0287,-0.0175 23.1009,-53.49368 47.1476,-107.03422 24.0623,-53.57521 46.9962,-107.11643 46.068,-107.4373 -1.0102,-0.34925 -24.904,53.24734 -50.5168,106.9251 -25.612,53.6762 -52.8373,107.43825 -54.7107,107.41213 -1.8534,-0.0258 23.7697,-54.3481 48.3267,-108.69363 24.5731,-54.38105 48.0356,-108.68832 47.5252,-108.86177 -0.5906,-0.20071 -24.5329,54.16474 -50.4489,108.56964 -25.915,54.40267 -53.6942,108.85147 -56.0011,108.80633 -2.2811,-0.0447 23.5109,-55.17005 48.2421,-110.32958 24.7475,-55.19578 48.3909,-110.33061 47.6431,-110.57538 -0.825,-0.27004 -25.2014,54.91302 -51.5244,110.14908 -26.3214,55.23287 -54.4784,110.52834 -56.7194,110.46714 -2.2088,-0.0603 24.0017,-55.98682 48.8071,-112.02227 24.8216,-56.07214 48.1954,-112.16269 46.3146,-112.73454 -1.8498,-0.5624 -27.2731,55.46177 -54.2343,111.71239 -26.9438,56.21422 -55.3902,112.57474 -57.1908,112.50306 -1.7594,-0.07 25.1003,-56.89568 50.4596,-113.79061 25.3753,-56.93096 49.2131,-113.85236 47.5985,-114.29402 -1.5766,-0.43126 -27.1393,56.41166 -54.3873,113.43463 -27.2306,56.98654 -56.1152,114.08355 -58.0784,113.97833 -1.9162,-0.1027 25.2003,-57.65794 50.6555,-115.29068 25.4705,-57.66737 49.2494,-115.34852 46.9981,-115.87616 -2.2068,-0.5172 -28.3452,57.01542 -55.71,114.75466 -27.3479,57.70377 -55.9002,115.56154 -56.5234,115.51731 -0.6966,-0.0494 27.4218,-58.01134 53.5714,-116.03513 26.1607,-58.04881 50.4472,-116.08447 48.8907,-116.4065 -1.6254,-0.33628 -27.4037,57.6242 -55.1001,115.62107 -27.6911,57.98573 -57.1884,116.04127 -59.4512,115.83945 -2.2081,-0.19694 25.1138,-58.59711 50.8375,-116.94025 25.7321,-58.36217 49.8715,-116.6786 47.7718,-116.80323 -2.0456,-0.12143 -28.2129,57.98248 -55.8288,116.10376 -27.6053,58.09908 -56.6694,116.23693 -58.0524,116.07237 -1.455,-0.17313 26.3115,-58.33938 52.2997,-116.47162 25.9898,-58.1357 50.3293,-116.22705 48.8115,-116.26764 -1.4647,-0.0392 -27.2301,57.86348 -54.4258,115.76226 -27.1859,57.87783 -55.8217,115.79408 -56.6286,115.67734 -0.8787,-0.12714 27.0331,-58.01854 52.8155,-115.87515 25.7822,-57.85592 49.5672,-115.6791 47.1559,-115.66639 -2.3604,0.0124 -28.37,57.47278 -55.4656,114.91247 -27.0859,57.41887 -55.2889,114.88363 -55.7406,114.80079 -0.524,-0.0961 27.3089,-57.5053 53.2498,-114.8815 25.939,-57.37197 50.1206,-114.72362 48.8975,-114.68354 -1.3037,0.0427 -26.4474,57.17289 -53.0752,114.27627 -26.6165,57.07928 -54.6234,114.20406 -55.0444,114.11547 -0.4938,-0.10391 27.1613,-57.15983 52.9969,-114.17846 25.8325,-57.01187 49.9822,-114.00671 48.9934,-113.95465 -1.0718,0.0564 -25.955,56.84559 -52.4605,113.57737 -26.4929,56.70482 -54.5192,113.43315 -55.3414,113.2331 -0.896,-0.21802 26.2907,-56.83075 51.4861,-113.34378 25.1904,-56.5019 48.5322,-112.93745 46.3417,-112.74552 -2.1503,0.18843 -27.3678,56.10184 -53.769,111.85251 -26.3903,55.72767 -54.026,111.42892 -55.0684,111.07796 -1.1183,-0.37647 25.3182,-55.86293 50.0217,-111.20271 24.6958,-55.32278 47.8062,-110.5499 46.1523,-110.3227 -1.6235,0.22302 -26.062,54.91534 -51.7376,109.34486 -25.6579,54.39221 -52.6502,108.7376 -53.6688,108.08024 -1.0912,-0.70417 24.4876,-54.7019 48.4511,-108.45656 23.9534,-53.73194 46.444,-107.28899 44.929,-106.99818 -1.4799,0.28405 -24.3081,51.20493 -46.5207,98.00547 -22.2914,46.96646 -43.7208,89.47845 -38.2278,73.77432 5.5713,-15.92799 25.474,-61.28668 40.5649,-97.38487 15.7393,-37.6493 28.68,-70.72558 25.7072,-69.84431 -3.149,0.93347 -16.8784,29.43145 -30.4596,57.20094 -13.5772,27.76135 -27.0467,54.89271 -28.1798,53.0522 -1.2196,-1.9809 9.7144,-28.19509 20.0285,-53.54561 10.3223,-25.37072 20.0839,-50.00409 17.761,-48.92432 -2.5267,1.17447 -13.3523,23.71156 -23.9791,45.16903 -10.6286,21.46105 -21.0872,41.91944 -21.994,38.95446 -0.9776,-3.19683 6.2022,-21.75665 12.5775,-38.66475 6.3851,-16.93409 12.0113,-32.30954 8.5075,-29.26759 -3.8211,3.31743 -9.9568,14.88538 -15.1685,25.58713 -5.2168,10.71209 -9.5267,20.59399 -9.5267,20.59399 0,0 4.6565,-10.04101 9.9955,-20.71897 5.3343,-10.66851 11.3687,-22.00822 14.3026,-24.55482 3.2826,-2.84934 -2.3778,12.43618 -8.7253,29.27655 -6.3378,16.8148 -13.4083,35.27788 -12.3761,38.65579 1.1267,3.68695 11.9426,-16.92833 22.6953,-38.65225 10.7499,-21.71817 21.4621,-44.61793 23.298,-45.47124 2.1506,-0.99956 -7.6584,23.56976 -17.9634,48.88844 -10.2967,25.29839 -21.1485,51.47266 -19.8507,53.58149 1.4471,2.35156 15.246,-24.87141 28.9104,-52.80862 13.6677,-27.94411 27.239,-56.69858 29.7555,-57.44452 2.8124,-0.83364 -9.9646,31.69369 -25.5771,69.05842 -14.9599,35.80279 -34.7805,81.15813 -40.7353,98.17076 -6.9372,19.81939 14.6306,-22.22338 37.6119,-70.57677 22.7902,-47.95131 46.1567,-101.00699 47.178,-101.20302 1.3648,-0.26196 -21.1932,53.26121 -45.148,106.96907 -23.9388,53.67186 -49.3889,107.77255 -48.284,108.48567 1.4368,0.92739 28.7425,-53.45718 54.4561,-107.93766 25.7391,-54.53461 49.8385,-109.32752 51.0027,-109.48744 1.5075,-0.20708 -21.6766,55.00011 -46.3788,110.30791 -24.7097,55.3248 -51.0851,110.80119 -49.8486,111.2175 1.5151,0.51011 29.4552,-55.21587 55.8842,-110.99609 26.4452,-55.81427 51.3013,-111.78492 53.007,-111.93438 2.0472,-0.17938 -21.3707,56.24118 -46.5696,112.73246 -25.2039,56.5024 -52.3318,113.10886 -51.3127,113.35684 1.3141,0.31976 29.6394,-56.42319 56.1642,-113.1655 26.5374,-56.76915 51.1843,-113.61823 51.6923,-113.64497 0.8479,-0.0446 -23.3788,56.93706 -49.221,113.9405 -25.8452,57.0102 -53.443,114.06242 -52.8243,114.19261 0.9202,0.19362 29.2232,-56.94014 55.8687,-114.05036 26.6566,-57.13424 51.5612,-114.31698 52.306,-114.34139 1.0833,-0.0355 -23.176,57.30456 -49.1254,114.6696 -25.9513,57.36925 -53.7277,114.77615 -53.0772,114.89545 0.9568,0.1755 29.4521,-57.29056 56.5638,-114.73342 27.1216,-57.4636 52.89,-114.97032 54.6978,-114.97984 2.2731,-0.012 -21.5906,57.80189 -47.3843,115.65298 -25.794,57.85177 -53.6503,115.7428 -52.643,115.88855 1.321,0.19114 30.2446,-57.7177 57.4524,-115.61056 27.216,-57.91032 52.6096,-115.85706 53.6578,-115.82903 1.3815,0.0369 -23.0374,58.12055 -49.0396,116.25329 -26.0006,58.12928 -53.7128,116.29735 -52.1277,116.48597 1.9032,0.22646 31.2507,-57.89534 58.8746,-116.00198 27.6309,-58.12126 53.4275,-116.27122 55.0626,-116.17416 1.9651,0.11666 -22.2543,58.42721 -47.9998,116.78843 -25.7371,58.34218 -53.0059,116.74636 -50.6659,116.95506 2.7901,0.24885 32.5531,-57.75422 60.2533,-115.72561 27.7055,-57.98247 53.2345,-115.96648 54.3538,-115.73491 1.4297,0.29582 -22.9369,58.32683 -49.1131,116.37978 -26.165,58.02797 -54.2347,116.00296 -53.405,116.06185 1.155,0.082 29.9697,-57.71704 57.3242,-115.40097 27.3714,-57.71953 53.2593,-115.27071 54.9646,-114.871 2.1259,0.49827 -21.7335,58.1759 -47.22,115.84876 -25.4712,57.63827 -52.5394,115.2082 -50.4892,115.31808 2.4994,0.13396 31.6419,-56.89556 58.8758,-113.85562 27.2371,-56.96665 52.4521,-113.88357 53.6447,-113.55734 1.4911,0.4079 -22.4274,57.32671 -47.8192,114.2647 -25.3758,56.90201 -52.1883,113.74453 -50.2939,113.81993 2.3404,0.0932 31.0411,-56.19325 57.9857,-112.37586 26.947,-56.18742 52.0271,-112.28546 53.4934,-111.8396 1.7588,0.53479 -21.6957,56.62358 -46.5343,112.704 -24.8223,56.04378 -50.9861,111.98878 -48.6415,112.05282 2.784,0.076 31.1925,-55.14041 57.5126,-110.33752 26.3217,-55.20028 50.442,-110.39076 50.7844,-110.2787 0.6268,0.20522 -23.0972,55.33883 -47.8618,110.54376 -24.7483,55.16873 -50.494,110.31388 -48.0766,110.36119 2.8519,0.0558 30.8811,-54.31136 56.7934,-108.67591 25.9134,-54.36677 49.5985,-108.73756 49.7089,-108.70005 0.3901,0.13259 -23.1531,54.43903 -47.7432,108.82974 -24.5742,54.35525 -50.1511,108.69791 -48.1611,108.72566 2.4199,0.0337 29.8944,-53.64548 55.5029,-107.2822 25.6093,-53.63827 49.2451,-107.23867 49.7763,-107.05503 0.8081,0.2794 -22.2064,53.82016 -46.2858,107.40536 -24.0638,53.5506 -49.1473,107.0475 -46.9816,107.06615 2.5892,0.0223 29.709,-52.75519 54.9544,-105.49394 25.2459,-52.73967 48.5127,-105.44337 48.99,-105.27812 0.7509,0.25997 -21.951,52.9024 -45.6549,105.58811 -23.6891,52.65269 -48.3358,105.25234 -46.1618,105.26165 2.5917,0.0111 29.2755,-51.87482 54.3499,-103.64752 25.0746,-51.77315 48.4416,-103.43441 49.7947,-102.9762 1.6249,0.55029 -20.1813,52.15233 -43.2257,103.71812 -23.0304,51.53463 -47.2546,102.93973 -45.3879,102.94032 2.2756,7.3e-4 28.2736,-50.80545 52.8518,-101.4848 24.5912,-50.70628 47.7262,-101.20513 49.22,-100.72439 1.8475,0.59452 -19.4069,51.08798 -41.7847,101.52477 -22.3652,50.40835 -45.8126,100.67371 -43.4988,100.66983 2.7131,-0.005 28.3356,-49.58782 52.2225,-99.13195 23.8868,-49.54397 45.9445,-99.04833 46.4614,-98.89427 0.7841,0.23368 -20.6641,49.68649 -43.105,99.16212 -22.4296,49.45059 -45.8165,98.84811 -44.2319,98.84598 1.979,-0.003 26.9217,-48.9445 50.4796,-97.81242 23.5578,-48.8678 45.6412,-97.66132 46.7038,-97.3667 1.3301,0.36879 -19.5407,49.11566 -41.4536,97.84615 -21.9023,48.70723 -44.814,97.32915 -43.0348,97.33178 2.1667,0.003 26.823,-48.15266 49.9971,-96.26376 23.1741,-48.11124 44.7784,-96.17811 45.4948,-95.99761 0.9836,0.24784 -19.8014,48.27748 -41.416,96.31629 -21.6049,48.0176 -44.0117,95.98512 -41.8678,96.00271 2.5251,0.0207 27.0298,-47.44298 49.8849,-94.89354 22.8555,-47.45127 43.9758,-94.89154 44.2592,-94.82757 0.5507,0.12433 -20.2309,47.5344 -41.6847,94.98697 -21.4447,47.43235 -43.5401,94.86024 -41.3181,94.91911 2.5968,0.0688 26.9029,-46.88587 49.9915,-93.75457 23.0969,-46.88553 44.9596,-93.64805 46.8837,-93.27911 2.2708,0.43541 -17.4057,47.35666 -38.2975,94.25624 -20.8818,46.87717 -42.9666,93.70773 -41.3207,93.84974 2.0061,0.17308 25.8495,-46.35295 48.6474,-92.82019 22.8072,-46.48602 44.5621,-92.89843 46.5408,-92.59205 2.3287,0.36058 -17.2314,46.97863 -38.2777,93.56224 -21.0407,46.57122 -43.633,93.07082 -42.9985,93.13251 0.9113,0.0886 24.1406,-46.31412 46.5294,-92.64028 22.3987,-46.34658 43.9508,-92.60183 45.6326,-92.32034 2.0288,0.33954 -17.6278,46.78281 -38.3585,93.23399 -20.7212,46.42983 -42.5093,92.85251 -40.6315,93.04407 2.2323,0.22773 26.0027,-45.81988 48.4574,-91.84136 22.4586,-46.0294 43.5316,-92.05645 44.6573,-91.82724 1.3915,0.28333 -18.4845,46.41057 -39.1473,92.58118 -20.6522,46.14675 -42.0815,92.31523 -39.7283,92.56179 2.7052,0.28343 26.5394,-45.34445 49.0562,-90.92499 22.5292,-45.60571 43.7279,-91.13643 45.1782,-90.7845 1.782,0.43242 -17.7223,46.14129 -38.2973,91.84371 -20.5631,45.67619 -42.1826,91.31633 -40.6404,91.48015 1.8903,0.20082 25.1151,-45.018 47.0858,-90.20106 21.9746,-45.19102 42.6287,-90.37015 43.5112,-90.12974 1.1383,0.31008 -18.5414,45.56088 -38.8957,90.86402 -20.3418,45.27551 -41.343,90.56938 -38.9222,90.82753 2.7659,0.29494 26.1627,-44.29538 48.0707,-88.87949 21.9118,-44.59182 42.2693,-89.20057 42.9848,-88.98107 0.9658,0.29632 -18.5814,44.95581 -39.0911,89.63855 -20.4964,44.65384 -41.9363,89.29123 -40.9266,89.39881 1.3517,0.14402 23.8681,-44.14714 45.2674,-88.39008 21.403,-44.25061 41.6255,-88.47604 42.3505,-88.23895 0.9724,0.31796 -18.422,44.59399 -38.9136,88.8748 -20.4816,44.25888 -42.1043,88.45676 -41.6149,88.50877 0.7577,0.0805 22.8403,-43.95173 44.2057,-87.83358 21.3796,-43.91086 42.0242,-87.6302 43.6423,-87.06885 1.9252,0.66789 -16.79,44.58946 -36.8192,88.43248 -20.0186,43.81986 -41.3899,87.49168 -40.8921,87.54427 0.7641,0.0807 22.5992,-43.41114 43.4967,-86.83368 20.9011,-43.42992 40.8041,-86.81264 41.5176,-86.55054 0.9544,0.35061 -18.1166,43.78023 -37.7623,87.26153 -19.6318,43.45059 -39.8164,86.90488 -37.4628,87.1513 2.6867,0.28129 25.1013,-42.29989 46.227,-84.81828 21.1292,-42.52534 40.912,-85.00874 42.002,-84.56665 1.3256,0.53765 -17.1885,43.10899 -36.8217,85.63837 -19.6218,42.50468 -40.3954,84.89334 -39.9221,84.94219 0.7363,0.076 21.9408,-42.11474 42.5367,-84.11043 20.6106,-42.02563 40.5915,-83.80751 42.3176,-83.06356 2.0124,0.86739 -15.8651,42.86091 -34.8083,84.75322 -18.9287,41.86011 -38.894,83.56097 -37.6955,83.68202 1.5211,0.15363 22.6521,-41.01114 42.6265,-82.16924 19.9775,-41.16437 38.7419,-82.34089 38.956,-82.24214 0.4397,0.20278 -18.0242,41.36346 -37.1062,82.58981 -19.0674,41.19489 -38.7264,82.39871 -37.4005,82.53051 1.6462,0.16364 22.5704,-40.43153 42.3,-81.03643 19.7326,-40.6109 38.215,-81.24954 38.3117,-81.20284 0.3187,0.15396 -17.9942,40.76254 -37.0277,81.43412 -19.0187,40.6402 -38.7305,81.28527 -38.015,81.35535 1.0338,0.10126 21.4832,-40.1749 40.9983,-80.39863 19.5179,-40.22961 38.0489,-80.42443 38.5182,-80.18984 0.6896,0.34464 -17.2374,40.55048 -35.9509,80.77377 -18.6989,40.19167 -38.1552,80.3403 -37.4037,80.4125 1.0675,0.10254 21.2801,-39.64981 40.8222,-79.2146 19.5568,-39.59455 38.4185,-78.94633 39.8451,-78.19148 1.69,0.89418 -15.347,40.4132 -33.1547,79.83637 -17.7932,39.39091 -36.3245,78.62007 -34.6411,78.77319 1.9924,0.18124 22.0237,-38.19355 41.0897,-76.45056 19.0807,-38.28656 37.1683,-76.39654 38.1381,-75.83344 1.2219,0.70954 -15.5544,38.93058 -33.1196,77.08361 -17.5507,38.1215 -35.857,76.10742 -34.8918,76.18914 1.2689,0.10744 20.4666,-37.32829 38.8505,-74.66021 18.3983,-37.36118 35.9541,-74.55738 36.6645,-74.11716 0.9549,0.59172 -15.5879,37.86712 -32.4468,75.12895 -16.8449,37.23106 -33.9734,74.37934 -31.5157,74.56294 2.7566,0.20593 21.917,-35.57779 40.0519,-71.19959 18.1489,-35.64925 35.2435,-71.07577 36.3652,-70.29273 1.3516,0.94351 -14.1828,36.46237 -30.3909,71.85028 -16.1945,35.3581 -33.0253,70.51015 -31.8565,70.571 1.4615,0.0761 19.2713,-34.33524 36.39,-68.56652 17.1316,-34.25727 33.5425,-68.27069 34.5092,-67.52872 1.1853,0.90974 -13.8158,34.9642 -29.5037,68.88115 -15.6752,33.88948 -31.9974,67.56165 -31.2384,67.56944 1.0502,0.0108 18.0132,-33.12883 34.3414,-66.13857 16.3402,-33.03388 32.0128,-65.86813 32.6167,-65.36731 0.8138,0.67494 -13.8831,33.47341 -28.8145,66.07877 -14.9235,32.58781 -30.029,64.87565 -27.9883,64.44158 2.3583,-0.50164 18.8028,-31.55764 34.3397,-62.40046 15.5322,-30.83345 30.1113,-61.42563 30.617,-60.95282 0.6762,0.63211 -12.9824,30.91839 -26.9148,61.02437 -13.9258,30.09175 -28.0738,59.89815 -26.6354,59.49932 1.7564,-0.48699 16.7992,-29.3572 31.3571,-57.78429 14.5613,-28.43378 28.5982,-56.33643 29.9064,-54.92177 1.4839,1.60466 -10.1326,28.73452 -22.3433,55.48934 -12.2,26.73131 -24.9822,53.01703 -24.3762,52.81588 0.886,-0.29406 14.0015,-26.09394 26.747,-51.66626 12.7487,-25.57895 25.0879,-50.84557 25.6826,-50.10631 0.756,0.93979 -10.3204,25.74532 -21.6287,50.27936 -11.3031,24.52277 -22.793,48.68329 -21.7097,48.27668 1.3899,-0.52167 13.4619,-23.84837 24.9781,-47.03046 11.511,-23.17179 22.4329,-46.16804 22.5668,-45.97728 0.2707,0.38584 -10.2594,23.18309 -20.5699,45.70386 -10.306,22.51092 -20.3515,44.66248 -18.1217,43.70769 2.5374,-1.08647 13.5873,-21.51155 24.0131,-41.33242 10.4257,-19.8207 20.1992,-38.97429 20.93,-37.51692 0.8508,1.69692 -6.9324,19.8211 -14.5725,37.26942 -7.6354,17.4373 -15.0923,34.12938 -12.9972,32.90703 2.4115,-1.40693 10.4898,-16.14426 17.9832,-30.05557 7.4905,-13.90603 14.3789,-26.94508 14.7653,-24.92906 0.4486,2.34061 -4.2134,13.70878 -8.8629,24.36157 -4.6458,10.64458 -9.2571,20.53023 -8.4892,19.8647 1.1372,-0.98563 5.8867,-10.33354 10.323,-19.45517 4.4338,-9.11651 8.5424,-17.98602 8.5424,-17.98602 z"
       style="fill:none;stroke:#000000;stroke-width:4.5;stroke-linecap:round;stroke-linejoin:round;stroke-miterlimit:4;stroke-dasharray:none;stroke-dashoffset:0;stroke-opacity:1" />
    <path
       inkscape:connector-curvature="0"
       id="path9212-2"
       d="m 1466.7412,510.80371 c 0,0 -5.8987,-20.55118 -13.8518,-42.9769 -7.967,-22.46485 -17.9448,-46.6735 -25.4933,-54.19209 -7.7824,-7.75155 -0.098,25.52048 8.2724,62.02267 8.3884,36.58086 17.3605,76.11632 14.2981,81.28496 -3.1202,5.26622 -17.49,-38.02005 -32.4053,-83.01029 -14.9183,-44.99903 -30.3152,-91.42844 -32.3256,-92.4924 -2.0777,-1.09963 10.8971,42.87044 22.6398,86.13849 11.7149,43.1654 22.2307,85.70564 18.0736,81.23307 -4.2638,-4.58739 -18.3558,-48.81723 -33.1928,-91.95529 -14.8868,-43.28324 -30.6116,-85.7722 -35.7023,-87.60368 -5.1977,-1.86995 5.2209,38.10966 15.1294,78.34664 9.9012,40.20705 19.2853,80.65382 14.5131,79.56852 -4.8667,-1.10679 -19.1536,-42.83085 -34.3038,-84.47288 -15.1589,-41.66593 -31.185,-83.26206 -36.978,-84.23248 -5.8879,-0.9863 4.5732,40.39439 15.4139,82.08422 10.8396,41.68551 22.0448,83.64035 20.3073,83.78077 -1.8195,0.14706 -14.8895,-41.99787 -28.7722,-84.23445 -13.8826,-42.23641 -28.5708,-84.53907 -30.9085,-84.70667 -2.4233,-0.17375 10.0593,42.47477 21.6812,85.37282 11.6248,42.90844 22.3707,86.01101 19.2776,86.79731 -3.1671,0.80512 -17.2681,-42.38964 -31.9185,-85.81848 -14.6458,-43.41484 -29.8315,-87.02756 -32.2507,-86.98831 -2.4938,0.0405 10.5018,44.50553 22.6889,89.30648 12.1959,44.83331 23.5537,89.91118 20.8507,91.33907 -2.7638,1.46001 -17.1635,-43.44544 -32.8912,-88.65882 -15.7159,-45.17976 -32.7437,-90.61113 -37.5414,-90.03485 -4.8488,0.58242 8.4845,49.79498 22.0897,98.83261 13.613,49.06566 27.4235,97.94546 27.4235,97.94546 0,0 -13.4968,-48.6889 -26.9021,-97.51059 -13.4029,-48.81279 -26.6505,-97.78511 -22.302,-98.30742 4.6726,-0.56124 21.6351,44.90008 37.3446,90.09101 15.7212,45.22446 30.1737,90.1226 33.0513,88.60267 3.1568,-1.66749 -7.936,-46.74887 -20.1071,-91.52482 -12.1622,-44.74324 -25.3719,-89.08868 -23.3954,-89.12074 2.2897,-0.0371 17.4062,43.59101 32.0449,87.01303 14.6435,43.43601 28.8,86.62977 32.0888,85.79376 3.579,-0.9098 -6.8937,-43.99313 -18.498,-86.86122 -11.6015,-42.85762 -24.3159,-85.44444 -22.4255,-85.30891 2.2044,0.15805 16.8205,42.46586 30.696,84.70723 13.8756,42.24153 27.0032,84.39124 28.9501,84.23389 2.2463,-0.18154 -8.6768,-42.0903 -19.4973,-83.74246 -10.8218,-41.65653 -21.5269,-83.01659 -16.19,-82.12253 5.6551,0.94734 21.603,42.5277 36.753,84.19144 15.1414,41.63984 29.4887,83.3755 34.4942,84.51392 5.328,1.21175 -3.7544,-39.12874 -13.6388,-79.31475 -9.8918,-40.21611 -20.5791,-80.25828 -15.9713,-78.6004 4.9425,1.77828 20.5634,44.16742 35.432,87.41342 14.8183,43.09999 28.9779,87.35851 33.4263,92.14554 4.8969,5.26959 -5.2873,-37.09311 -17.0222,-80.38246 -11.7507,-43.3475 -25.1815,-87.79611 -23.6568,-86.9891 1.8539,0.98128 17.2003,47.48518 32.1261,92.54234 14.9227,45.04785 29.3587,88.37638 32.5688,82.96035 3.417,-5.76525 -5.1865,-44.92731 -13.4664,-81.17037 -8.2626,-36.16748 -16.1002,-69.13632 -9.0748,-62.13726 7.3579,7.33024 17.2594,31.30046 25.1996,53.57139 7.9264,22.23259 13.8482,42.63754 13.8482,42.63754 z m -28.0108,61.50738 c 0,0 0.609,2.20929 0.609,2.20929 0,0 -0.609,-2.20929 -0.609,-2.20929 z m -72.7124,51.81977 c 0,0 -0.069,1.70372 -5.993,3.93745 -6.2789,2.36771 -8.0068,-4.17144 -12.9029,-4.74824 -5.2993,-0.6243 -2.4867,10.03028 -8.1613,11.57326 -6.0392,1.64211 -10.4998,-15.26651 -21.6822,-20.30416 -11.6263,-5.23767 -3.4166,25.79551 -10.6546,26.75654 -1.9177,0.25464 -7.8873,-17.16587 -16.1597,-43.41677 -8.273,-26.25275 -18.9028,-61.34143 -29.8725,-96.43236 -11.292,-36.12196 -21.9298,-69.15309 -31.183,-96.44588 -8.9048,-26.26495 -15.3481,-43.6889 -16.3187,-43.45733 -1.0875,0.25946 3.7849,17.97552 11.341,44.41932 8.7461,30.608 16.5765,57.43287 27.5498,96.73091 10.1561,36.37142 18.9249,68.99245 26.0225,96.55962 6.7779,26.3257 10.9517,43.87825 10.5098,43.9054 -0.5655,0.0348 -5.4827,-17.42353 -12.9073,-43.61733 -7.9251,-27.95994 -16.8817,-59.36202 -27.8389,-96.04557 -10.7376,-35.94851 -20.9707,-68.7918 -29.7934,-95.95898 -8.4894,-26.14062 -14.5363,-43.50323 -15.047,-43.35757 -0.6258,0.17845 4.545,17.71605 12.2219,43.93937 8.0933,27.64533 17.4134,59.68892 27.3593,95.98936 9.7349,35.53025 18.3851,69.07447 24.6368,95.87008 6.0987,26.14008 9.3647,43.56581 7.7543,43.5815 -3.2951,0.0321 -23.0701,-68.64205 -44.3801,-137.12936 -21.2946,-68.43774 -44.1636,-136.82868 -46.3891,-135.98239 -2.1377,0.81292 18.2122,69.12373 36.914,137.04175 18.7134,67.96029 35.8341,135.70993 34.3079,135.61186 -1.5814,-0.10162 -19.8802,-67.2907 -39.9637,-134.3425 -20.0673,-66.99766 -41.8228,-134.02044 -42.9446,-133.51877 -1.1717,0.524 19.3944,67.32777 38.0113,133.96415 18.6128,66.62137 35.4345,133.12035 33.9328,132.95977 -1.5624,-0.16707 -19.5156,-66.04609 -39.1324,-131.78275 -19.5995,-65.67886 -40.7743,-131.38873 -41.6877,-130.92856 -0.9671,0.48723 19.2203,65.94395 37.276,131.19454 18.05,65.22976 34.1267,130.3159 31.8031,129.95776 -2.392,-0.36866 -20.283,-64.39424 -40.4176,-127.62273 -20.1164,-63.1711 -42.3801,-125.71728 -46.8437,-122.8402 -4.4249,2.85212 11.9566,64.15587 27.3238,124.31352 15.3772,60.19714 29.8382,119.56308 27.0765,118.73701 -2.739,-0.81934 -19.3882,-58.60523 -37.4979,-115.21782 -18.1033,-56.59259 -37.7384,-112.29624 -41.4497,-108.85111 -3.716,3.4495 10.3501,57.13996 23.3763,109.29596 13.0362,52.19655 25.1417,103.21064 21.6539,101.51014 -3.5393,-1.72554 -18.0896,-50.12712 -32.7599,-97.72187 -14.6662,-47.58142 -29.5396,-94.67174 -30.2696,-93.70804 -0.8241,1.08793 12.7655,47.35923 24.6686,92.7269 11.8928,45.32815 22.2173,89.87121 18.2034,87.30508 -4.1056,-2.62475 -16.9393,-43.60416 -29.8138,-82.58743 -12.8809,-39.00281 -25.8639,-76.26627 -27.9441,-71.55677 -2.1513,4.87033 6.0029,38.39837 13.6281,69.82271 7.6364,31.47036 14.8294,61.11334 12.2718,58.44363 -2.7647,-2.88581 -11.0254,-29.18319 -18.9136,-53.55615 -7.8993,-24.4071 -15.4683,-47.06473 -15.988,-42.84178 -0.5706,4.63651 4.2407,24.01514 9.0418,42.09714 4.8129,18.12594 9.6477,35.07891 9.6477,35.07891 0,0 -4.6822,-17.33669 -9.3871,-35.5348 -4.6942,-18.15656 -9.4381,-37.28996 -9.02,-40.68119 0.4822,-3.91209 7.9523,18.65265 15.8099,42.93308 7.8471,24.24779 16.1252,50.3884 19.0719,53.46485 3.2848,3.42947 -3.7313,-26.56157 -11.4657,-58.39871 -7.7229,-31.78925 -16.25,-65.69904 -14.4079,-69.86762 2.004,-4.53475 14.8976,32.67953 27.7502,71.61288 12.8464,38.9145 25.7136,79.80596 29.9761,82.53131 4.6416,2.9678 -5.475,-41.81963 -17.423,-87.37076 -11.9584,-45.59047 -25.8655,-92.06269 -25.412,-92.66122 0.6377,-0.84157 15.4236,46.21274 30.0656,93.74511 14.6462,47.54601 29.2359,95.88627 32.9245,97.68481 4.0857,1.99216 -7.7957,-49.20947 -20.8698,-101.57278 -13.064,-52.32296 -27.4297,-106.15881 -24.117,-109.23333 3.6111,-3.35154 23.1618,52.3314 41.2432,108.88976 18.0878,56.57863 34.778,114.31751 37.6584,115.17917 3.3269,0.99523 -10.8966,-58.51039 -26.2947,-118.81949 -15.3882,-60.26996 -32.0486,-121.6577 -28.0557,-124.23103 4.3562,-2.80747 26.5373,59.72855 46.6337,122.87683 20.1146,63.20582 38.0485,127.19652 40.5761,127.5861 2.8667,0.44185 -12.9656,-64.75756 -31.026,-130.06471 -18.0663,-65.32806 -38.5175,-130.82661 -37.9994,-131.08759 0.8014,-0.40372 21.8942,65.29919 41.4746,130.96024 19.5932,65.70382 37.7365,131.58478 39.2915,131.75106 2.038,0.21794 -14.5366,-66.38312 -33.156,-133.06973 -18.6237,-66.70167 -39.4491,-133.53408 -38.7332,-133.85418 1.0081,-0.45078 22.6823,66.56791 42.731,133.55062 20.065,67.03692 38.4084,134.20052 40.1222,134.31064 2.0564,0.13214 -14.8135,-67.70588 -33.5298,-135.71879 -18.7047,-67.97094 -39.3101,-136.29826 -37.6361,-136.93481 2.1097,-0.80222 24.8988,67.58951 46.1757,136.01645 21.2924,68.47658 41.1123,137.12865 44.5374,137.09529 1.8701,-0.0182 -1.2017,-17.46222 -7.1709,-43.62405 -6.103,-26.74744 -14.7271,-60.45665 -24.4411,-95.93339 -9.8627,-36.02014 -19.4072,-68.66465 -27.5402,-95.99975 -7.7983,-26.2098 -13.15,-43.71269 -12.7628,-43.82312 0.4512,-0.12865 6.4487,17.24347 14.9013,43.3885 8.8012,27.22331 18.98,59.96253 29.7244,95.95948 10.9952,36.83663 19.8664,67.92013 27.8633,96.03036 7.45,26.18774 12.4108,43.63981 13.0404,43.60112 0.6982,-0.0429 -3.2825,-17.61776 -9.9309,-43.96445 -6.9041,-27.36034 -15.7344,-60.45667 -25.8234,-96.61076 -10.4696,-37.51834 -19.36,-67.9249 -27.7262,-96.72697 -7.6767,-26.42808 -12.7305,-44.1113 -11.8848,-44.31307 0.9102,-0.21715 7.304,17.2161 16.1724,43.48637 9.2325,27.34915 19.8154,60.27951 31.1153,96.451 10.9618,35.08942 21.5992,70.17373 29.8975,96.4204 8.2978,26.24483 14.3106,43.65756 16.2913,43.39457 8.2449,-1.0947 0.2187,-31.46086 10.6601,-26.75655 10.8854,4.90432 15.3954,22.01236 21.678,20.30416 6.6472,-1.80733 3.9397,-12.07089 8.1637,-11.57325 4.6272,0.54513 6.3856,7.20525 12.9019,4.74824 6.8715,-2.59099 5.7397,-4.89752 5.7397,-4.89752 z m 773.5315,-99.74184 c 0,0 -3.5168,-12.16945 -7.9641,-25.55337 -4.4552,-13.40774 -9.8173,-27.95445 -13.3197,-32.83049 -3.8272,-5.32825 1.1116,14.43792 6.1304,37.37564 5.0321,22.99892 10.0899,49.01897 7.2831,56.50447 -2.8927,7.71474 -14.5941,-24.63128 -26.3915,-59.18554 -11.8096,-34.59008 -23.6809,-71.21383 -25.1213,-72.23362 -1.576,-1.11588 9.6044,36.86938 20.4543,75.54748 10.8554,38.69721 21.2994,77.82393 20.4595,79.08658 -0.9419,1.41584 -12.8547,-38.83579 -26.7107,-80.26746 -13.8706,-41.47547 -29.6146,-83.99957 -35.706,-87.34765 -6.1874,-3.40083 6.0192,43.67352 18.4804,92.12652 12.4693,48.48428 25.0984,98.05408 23.2662,99.80053 -1.8657,1.77847 -17.0804,-49.02192 -33.3649,-100.63039 -16.2812,-51.59789 -33.556,-103.7296 -35.6097,-104.56086 -2.0903,-0.84606 13.8283,52.5389 28.3247,106.91433 14.5038,54.4036 27.4917,109.50036 23.8419,112.21879 -3.6601,2.72618 -21.3909,-54.09658 -40.7362,-112.0934 -19.3401,-57.98134 -40.2296,-116.88572 -45.2275,-118.24541 -4.9759,-1.35369 12.207,59.95475 28.1708,122.2379 15.9712,62.31224 30.6378,125.33142 26.3071,127.54464 -4.2906,2.19267 -24.0338,-61.90831 -45.0179,-126.8229 -20.9754,-64.88743 -43.1363,-130.37506 -46.0021,-130.81988 -2.7937,-0.43362 17.0502,66.11202 35.7838,132.90191 18.7418,66.81891 36.3095,133.66834 35.5316,133.9874 -0.8318,0.34115 -19.1333,-66.7213 -39.6469,-133.93452 -20.5186,-67.22966 -43.1048,-134.56079 -45.5227,-134.83919 -2.3359,-0.26897 18.2305,67.86033 37.5315,136.1552 19.3094,68.32506 37.2977,136.62706 36.6708,136.8544 -0.6768,0.24542 -19.2019,-68.21295 -39.9462,-136.77119 -20.748,-68.57043 -43.5673,-137.20412 -45.5564,-137.37033 -1.8984,-0.15864 19.23,69.06891 38.6948,138.48875 19.4735,69.45081 37.2336,138.92813 35.6777,139.42393 -1.6007,0.51007 -20.885,-69.15834 -42.5703,-138.9839 -21.6871,-69.83111 -45.631,-139.80272 -48.9856,-139.92677 -1.7153,-0.0634 2.7672,17.61745 10.0404,44.19289 7.2734,26.57596 17.2874,62.04804 26.9002,97.56962 9.8355,36.34471 18.6279,70.26954 25.2018,97.86663 6.377,26.77089 9.9734,44.75387 8.626,45.08391 -1.4652,0.35889 -7.2124,-17.28213 -15.4668,-43.92595 -9.2977,-30.01118 -18.004,-58.94297 -30.4178,-98.00244 -11.5496,-36.34018 -22.9846,-70.78164 -32.8573,-98.21569 -9.6409,-26.78977 -16.9982,-44.63644 -19.0415,-44.56567 -2.1679,0.0751 2.0852,18.19701 9.3146,45.34435 7.2292,27.14685 17.3817,63.31763 27.2902,99.48797 10.3691,37.85167 19.1402,70.65886 26.564,99.48525 6.9902,27.14272 11.3611,45.26755 10.9574,45.33621 -0.5245,0.0892 -5.5971,-17.94125 -13.3661,-45.01636 -8.1356,-28.3527 -17.8972,-61.93136 -29.4382,-99.32641 -11.3408,-36.74665 -22.6999,-71.6035 -32.4569,-99.27054 -9.5364,-27.04146 -16.7808,-45.00889 -18.5962,-44.84877 -1.9383,0.17096 2.5054,18.43568 9.8137,45.75254 9.4832,35.44591 17.6348,64.59745 27.118,100.04337 9.9076,37.17486 18.7673,71.91554 25.2985,100.0405 6.3425,27.3123 9.8175,45.57943 8.2103,45.74392 -1.7302,0.17709 -7.7017,-17.81321 -16.1491,-44.87102 -8.4478,-27.05925 -19.4261,-63.19035 -30.8946,-99.3021 -11.6841,-36.79085 -23.1835,-71.52503 -33.0941,-99.18596 -9.6681,-26.98422 -16.9894,-44.8507 -18.9133,-44.52259 -2.0437,0.34853 2.2635,18.61609 9.4653,45.83339 7.2013,27.21506 17.2433,63.37315 26.9477,99.49157 9.9946,37.19861 18.8087,71.11696 25.6562,99.25352 6.5846,27.05597 10.4394,45.09072 9.3928,45.11923 -1.1716,0.0319 -6.666,-17.86291 -14.6646,-44.70272 -8.7923,-29.50279 -17.7333,-59.96388 -29.5736,-98.37943 -11.2667,-36.55447 -22.2296,-70.67101 -31.6352,-98.17927 -9.1326,-26.70994 -15.8577,-44.39745 -17.0973,-44.10223 -1.3562,0.32301 3.3685,18.32019 10.8471,45.14702 7.4778,26.82385 17.6561,62.46841 27.4766,98.07127 10.1499,36.79737 18.9804,69.96952 26.043,97.82109 6.7598,26.65736 10.867,44.40972 10.2428,44.39646 -0.75,-0.0159 -5.8655,-17.69921 -13.5752,-44.17774 -8.092,-27.79163 -17.6547,-60.43749 -29.0211,-96.94407 -11.1249,-35.73075 -22.3243,-69.76938 -31.9355,-96.46742 -9.4191,-26.16447 -16.6405,-43.36368 -18.6724,-42.74779 -4.1262,1.2507 15.6338,71.15094 33.4035,140.47201 17.7769,69.34921 33.6176,138.29324 28.6964,137.77221 -4.8365,-0.51205 -25.0408,-67.8828 -46.1709,-134.87614 -21.1199,-66.96066 -43.2187,-133.73376 -45.2158,-132.88716 -2.056,0.87161 17.7631,67.20215 35.0593,133.07663 17.2898,65.84984 32.2229,131.31751 27.1242,130.34024 -5.1662,-0.9902 -11.3546,-15.13417 -17.0412,-27.65739 -5.689,-12.52852 -10.8667,-23.43154 -13.7729,-17.96633 -6.0744,11.42331 1.1847,38.67749 -9.4764,35.15718 -11.0875,-3.66115 -12.6509,-9.03839 -12.6509,-9.03839 0,0 1.5335,6.24332 12.905,9.99845 11.8016,3.8972 4.096,-25.02988 9.4833,-35.15717 2.8212,-5.30348 7.9278,5.58693 13.6013,18.06812 5.6713,12.47617 11.9006,26.53909 17.2038,27.55559 5.6471,1.08244 -9.0373,-64.48266 -26.3367,-130.40739 -17.3058,-65.94942 -37.3919,-132.33251 -35.7949,-133.00948 1.8826,-0.798 23.9,65.96814 45.0018,132.91303 21.112,66.97764 41.3617,134.32403 46.3321,134.85028 5.4571,0.57777 -10.1283,-68.43831 -27.907,-137.83765 -17.7715,-69.37136 -37.79,-139.2997 -34.138,-140.40657 1.9727,-0.59791 9.1445,16.60996 18.5267,42.77737 9.5784,26.71503 20.745,60.72279 31.8656,96.46274 11.384,36.58636 20.9018,69.05604 29.0457,96.92694 7.7356,26.47317 12.8955,44.15264 13.7109,44.16996 0.8861,0.0188 -3.0253,-17.74516 -9.6544,-44.41949 -6.8728,-27.6555 -15.7557,-61.27602 -25.8449,-97.87615 -10.7679,-39.06242 -19.0825,-67.82876 -27.659,-98.0873 -7.6013,-26.81778 -12.5093,-44.7875 -11.3949,-45.0529 1.1791,-0.28081 7.8543,17.41435 16.95,44.12754 9.3778,27.54161 20.2985,61.59682 31.5661,98.17821 11.9425,38.77221 20.6706,68.50848 29.599,98.36626 8.0245,26.83497 13.5631,44.72532 14.7994,44.69165 1.3051,-0.0355 -2.3545,-18.08435 -8.8077,-45.1548 -6.6699,-27.97987 -15.5087,-62.25546 -25.4532,-99.29168 -8.126,-30.264 -18.9991,-69.22886 -27.1252,-99.49286 -7.324,-27.20721 -11.8158,-45.45194 -10.0189,-45.75837 1.8623,-0.31759 9.1334,17.55578 18.7647,44.544 9.8804,27.68584 21.3435,62.37931 33.0266,99.19007 11.4608,36.11073 22.4472,72.2387 30.9209,99.29345 8.4733,27.0533 14.4885,45.03773 16.2822,44.85415 1.8609,-0.19045 -1.4202,-18.47614 -7.6306,-45.80029 -6.3728,-28.0384 -15.215,-62.98102 -25.0894,-100.05657 -9.6845,-36.36273 -19.8595,-72.71989 -27.2888,-100.02323 -7.4296,-27.30456 -12.0594,-45.55161 -10.3742,-45.70025 1.7521,-0.15453 8.9459,17.81834 18.4456,44.86416 9.7258,27.68926 21.0516,62.51366 32.3909,99.27943 11.5569,37.47134 21.2814,70.89916 29.466,99.32316 7.7951,27.07138 12.9111,45.09516 13.498,44.99534 0.6531,-0.11107 -3.5253,-18.25931 -10.3834,-45.41279 -7.1872,-28.45707 -16.0949,-62.0224 -26.3507,-99.48566 -9.8995,-36.16196 -20.1059,-72.31796 -27.4556,-99.44989 -7.3498,-27.13241 -11.7897,-45.23929 -9.8794,-45.30545 1.9789,-0.0685 9.2855,17.78299 18.8901,44.57787 9.8425,27.45872 21.2434,61.86637 32.7928,98.22931 11.3383,35.69861 22.1653,71.35953 30.447,98.00316 8.2806,26.6403 14.0709,44.27329 15.5974,43.89941 1.5922,-0.38997 -1.813,-18.40043 -8.0573,-45.17954 -6.4119,-27.49753 -15.1885,-61.62672 -24.9832,-97.84626 -10.4998,-38.82714 -18.7414,-67.62958 -27.0596,-97.51162 -7.393,-26.55854 -12.0639,-44.22931 -10.6122,-44.17563 3.223,0.11918 27.0939,70.10992 48.77,139.95182 21.6744,69.83634 41.0101,139.50719 42.7309,138.95885 2.0368,-0.64902 -15.4463,-70.10365 -34.8928,-139.50518 -19.4344,-69.35825 -40.9334,-138.53355 -39.4249,-138.40749 1.8554,0.15504 24.6029,68.81024 45.341,137.39425 20.7344,68.57179 39.3119,137.03576 40.1075,136.74727 1.1027,-0.39982 -16.6068,-68.67031 -35.8868,-136.93691 -19.2714,-68.2362 -40.0571,-136.27944 -38.2616,-136.0727 2.2828,0.26285 24.7983,67.61802 45.308,134.86362 20.5046,67.22916 38.8594,134.29939 39.8086,133.91009 1.2481,-0.51185 -16.0383,-67.31832 -34.7476,-134.06803 -18.7012,-66.72042 -38.761,-133.16987 -36.5152,-132.82127 2.7288,0.42356 24.8211,65.94041 45.7892,130.84781 20.9768,64.93446 40.7743,129.04625 45.18,126.79496 4.7896,-2.44748 -9.587,-65.38873 -25.5181,-127.60383 -15.9237,-62.18581 -33.316,-123.37727 -28.9105,-122.17871 4.8552,1.32094 25.681,60.26557 45.0181,118.2768 19.3423,58.02654 37.131,114.86897 40.9002,112.06202 4.0837,-3.04119 -8.6042,-58.01664 -23.0565,-112.27935 -14.4353,-54.19887 -30.6473,-107.49347 -29.067,-106.85377 1.9043,0.77083 19.1198,52.95164 35.4022,104.58927 16.2857,51.64802 31.5626,102.47894 33.532,100.60198 2.2455,-2.14001 -10.0703,-51.53643 -22.4758,-99.83604 -12.3975,-48.26834 -24.7899,-95.14564 -19.233,-92.09102 5.9336,3.26167 21.6262,45.85447 35.5049,87.3861 13.8776,41.52804 25.8718,81.74231 26.8788,80.22901 1.207,-1.81402 -8.9075,-40.70354 -19.68,-79.14503 -10.7574,-38.38773 -22.1595,-76.16611 -21.2033,-75.48902 1.2733,0.90164 13.1036,37.62382 24.9294,72.29295 11.8133,34.63248 23.5889,67.03903 26.5575,59.12621 3.1035,-8.27234 -1.5132,-33.66945 -6.3871,-56.15403 -4.8621,-22.43015 -9.9286,-41.79348 -7.0079,-37.72609 3.2752,4.56106 8.564,18.86931 13.003,32.11481 4.4312,13.22248 7.9891,25.30899 7.9891,25.30899 z m -345.6565,25.22523 c 0,0 -9.7012,-33.93483 -20.8116,-67.35078 -11.1024,-33.39189 -23.5775,-66.28246 -27.3166,-64.10637 -3.8549,2.24343 2.7925,30.91721 8.7455,58.47703 5.9551,27.56935 11.2391,54.08994 5.7733,52.07467 -5.6428,-2.08051 -15.0961,-25.73219 -24.1101,-48.15025 -9.0158,-22.42261 -17.6009,-43.65395 -20.7769,-40.91647 -3.3108,2.85368 0.9072,23.40967 4.7891,43.20083 3.8841,19.80294 7.4433,38.87711 3.3676,38.8261 -4.2545,-0.0532 -10.9839,-15.77028 -16.96,-31.19595 -5.9742,-15.42105 -11.1992,-30.56518 -12.0796,-29.44951 -1.0112,1.28156 2.9229,16.54275 6.3052,31.57133 3.3842,15.03748 6.2222,29.86313 3.3449,30.31814 -3.0524,0.4827 -8.0533,-11.13015 -13.0499,-21.08903 -4.9995,-9.96465 -9.9763,-18.25297 -12.8224,-11.15008 -5.9155,14.76372 1.9116,39.78833 1.9116,39.78833 0,0 -6.9458,-25.55488 -1.6247,-38.82827 2.7729,-6.91712 7.6859,1.38177 12.6705,11.30444 4.982,9.91724 10.0183,21.43707 13.1954,20.93467 3.3756,-0.5338 0.7303,-15.59733 -2.6819,-30.73422 -3.4103,-15.12842 -7.5921,-30.34924 -6.956,-31.15524 0.7867,-0.99678 5.9429,14.14677 11.9048,29.53754 5.9637,15.3955 12.7375,31.05304 17.1228,31.10792 4.5988,0.0575 1.2513,-19.19383 -2.6571,-39.087 -3.9062,-19.88166 -8.3839,-40.44039 -5.4834,-42.93994 3.0738,-2.64894 11.5808,18.55565 20.5814,40.94259 8.9987,22.38249 18.4997,45.98983 24.288,48.12413 6.0487,2.23033 0.9943,-24.41832 -4.9911,-52.10557 -5.9834,-27.67769 -12.9208,-56.45896 -9.5059,-58.44612 3.6292,-2.11188 16.0221,30.5384 27.0765,63.67438 11.0624,33.15977 20.7506,66.8227 20.7506,66.8227 z m 132.6216,301.88048 c 0,0 4.6538,16.58395 8.8226,33.67187 4.1733,17.10641 7.8568,34.67218 6.4926,36.72173 -1.4858,2.23208 -8.0223,-18.15298 -15.0291,-39.62503 -7.0127,-21.48974 -14.468,-43.95358 -16.9486,-45.96753 -2.6852,-2.18006 3.3392,21.91557 8.7042,47.36235 5.3668,25.4556 10.0376,52.15108 5.8576,55.21484 -4.2939,3.14725 -15.0482,-27.77 -26.8256,-60.3635 -11.7866,-32.61892 -24.5608,-66.75736 -30.9461,-70.17959 -6.5041,-3.48593 1.7133,33.0444 9.8037,70.91654 8.0909,37.87389 16.0055,76.95125 11.6534,78.56811 -4.4142,1.63994 -17.6971,-39.90705 -31.8214,-82.33323 -14.1299,-42.4427 -29.0603,-85.60013 -33.3947,-87.26367 -4.3866,-1.68359 7.1035,42.55897 18.5977,87.35541 11.4921,44.78824 22.9411,89.97983 22.3023,90.15333 -0.7439,0.20209 -12.8747,-45.30557 -27.2112,-91.27833 -14.3467,-46.00514 -30.8005,-92.37822 -36.0588,-94.06886 -5.2891,-1.70055 6.7149,45.41166 17.6662,92.97579 10.944,47.53232 20.8124,95.44768 15.5572,95.19442 -5.266,-0.25377 -20.7179,-49.65997 -37.3914,-99.27128 -16.6826,-49.63835 -34.5731,-99.42821 -40.1511,-100.58451 -5.584,-1.15755 7.0102,48.20711 18.9218,97.84258 11.9047,49.60681 23.115,99.45301 19.4397,99.11523 -3.6748,-0.33774 -18.6369,-50.78465 -35.1336,-101.33751 -16.506,-50.58164 -34.5394,-101.23885 -39.6084,-102.14113 -5.068,-0.9021 8.0737,49.27799 20.0035,99.61169 11.9232,50.30591 22.6272,100.74362 17.4928,100.21785 -5.128,-0.52513 -21.1689,-52.20291 -38.5004,-104.07743 -17.3466,-51.91958 -35.9653,-103.96636 -41.3017,-105.45479 -5.3244,-1.4851 8.3456,50.04753 20.8657,101.91876 12.5102,51.83079 23.8525,103.94801 18.9827,103.42988 -4.8456,-0.51555 -21.3726,-54.31905 -38.7582,-108.18956 -17.404,-53.92741 -35.6377,-107.82571 -38.5489,-108.81532 -2.8814,-0.97951 12.7332,52.64501 26.3967,106.50777 13.6502,53.81051 25.3255,107.77562 20.0404,107.21604 -5.2446,-0.55529 -22.5895,-56.51319 -40.8907,-112.55023 -18.3211,-56.0979 -37.5677,-112.17258 -40.8323,-113.26579 -3.2147,-1.07647 13.1042,54.70037 27.6978,110.7807 14.5792,56.0252 27.4058,112.26418 23.1378,111.83639 -4.209,-0.42188 -21.5573,-58.08452 -40.0675,-115.77463 -18.5275,-57.74405 -38.1924,-115.43423 -40.8652,-116.18087 -2.6077,-0.72845 14.6252,56.7397 29.7571,114.42889 15.1195,57.64218 28.1134,115.42059 23.3007,115.07755 -4.7411,-0.33793 -22.7613,-59.32823 -41.6365,-118.27808 -18.8876,-58.98896 -38.6114,-117.87962 -40.2696,-118.21384 -1.7223,-0.34715 16.6459,58.57333 32.6795,117.57343 16.0333,58.99903 29.8637,118.08087 26.0659,118.05112 -3.72,-0.0291 -21.4006,-59.48262 -40.123,-118.93656 -18.7246,-59.46087 -38.4866,-118.90786 -39.693,-118.95866 -1.2654,-0.0533 17.4882,59.40329 33.5355,118.8741 16.0473,59.47092 29.5246,118.95573 24.8129,118.95946 -4.6326,0.004 -22.7939,-59.5231 -41.7424,-119.04547 -18.9475,-59.51898 -38.6851,-119.04311 -39.7581,-119.01721 -1.1308,0.0273 17.6995,59.54659 34.1168,119.06003 16.4174,59.5136 30.5594,119.02085 27.1667,119.02488 -3.314,0.004 -20.7652,-59.32923 -39.7676,-118.59914 -18.9983,-59.25732 -39.5581,-118.48815 -42.4094,-118.21661 -2.7764,0.26441 14.8652,59.49339 30.9372,118.61292 16.0753,59.13182 30.5935,118.19379 28.1939,118.1856 -2.4604,-0.008 -19.1288,-58.76038 -38.2915,-117.24867 -19.1548,-58.46416 -40.6855,-116.73703 -45.9066,-115.66648 -5.1566,1.05734 10.7626,59.28427 25.9743,117.15476 15.2182,57.89514 29.7577,115.51955 28.1751,115.49512 -1.6519,-0.0255 -17.5158,-57.24503 -35.5481,-114.16777 -18.0206,-56.88605 -38.1083,-113.58535 -41.5842,-112.38694 -3.4263,1.18129 12.7338,57.80551 27.9321,113.99369 15.2084,56.22587 29.4979,112.14877 28.3183,112.11584 -1.257,-0.0351 -16.4712,-55.52256 -33.2869,-110.87261 -16.8017,-55.3036 -35.1236,-110.60914 -36.347,-110.0481 -1.2923,0.59264 15.6956,55.75982 30.1138,110.72404 14.4168,54.95931 26.3934,109.7304 21.1391,109.50628 -5.2264,-0.22292 -21.7078,-52.3958 -38.5456,-104.20986 -16.8195,-51.75762 -34.0523,-103.35399 -35.5747,-102.14163 -1.5124,1.2044 13.7204,52.70942 27.5226,103.64986 13.8196,51.00484 26.2786,101.67737 24.1898,101.53875 -2.0837,-0.13829 -16.2296,-49.29131 -31.8441,-97.06653 -15.5973,-47.72242 -32.7016,-94.26754 -36.1334,-88.92597 -3.4498,5.36953 8.1691,51.56056 18.6524,95.90649 10.509,44.45473 19.9957,87.4379 15.9856,86.93575 -4.1267,-0.51676 -11.7188,-21.53559 -18.9284,-41.2143 -7.2095,-19.67853 -14.0313,-38.03448 -15.8338,-33.22454 -1.9001,5.07016 1.4231,22.90003 4.2617,39.16216 2.8443,16.29428 5.2304,31.1238 1.9276,30.35397 -3.501,-0.81602 -7.9375,-11.17698 -11.5458,-21.32991 -3.6083,-10.15306 -6.3934,-20.10403 -6.3934,-20.10403 0,0 2.7819,10.17485 6.4193,20.5598 3.6374,10.3848 8.1354,20.9859 11.7747,21.83421 3.8584,0.89937 1.631,-14.32574 -1.2742,-30.84986 -2.8996,-16.4928 -6.5025,-34.38603 -4.8974,-38.66627 1.7299,-4.61298 8.4786,13.73589 15.6674,33.36012 7.1891,19.62512 14.8143,40.54505 19.0759,41.07872 4.55,0.56978 -4.7393,-42.68635 -15.2851,-87.29406 -10.5206,-44.50077 -22.4082,-90.72214 -19.3063,-95.54818 3.346,-5.20599 20.3698,41.33616 35.943,89.02159 15.5907,47.73898 29.7703,96.82379 31.987,96.9709 2.62,0.17388 -9.6109,-50.66428 -23.4471,-101.76057 -13.8379,-51.10289 -29.399,-102.48368 -28.2129,-103.42804 1.4191,-1.12986 18.5712,50.46419 35.3701,102.19947 16.8174,51.79199 33.3393,103.92347 38.6976,104.15203 5.7816,0.24661 -5.949,-54.62861 -20.3707,-109.64553 -14.423,-55.02187 -31.6646,-110.20029 -30.8261,-110.58479 1.1103,-0.50911 19.3513,54.7948 36.1342,110.08437 16.797,55.33613 32.0552,110.79759 33.4434,110.83634 1.7049,0.0476 -12.3321,-55.95613 -27.5408,-112.22603 -15.1985,-56.23248 -31.6105,-112.86355 -28.6519,-113.88351 3.3592,-1.15808 23.3661,55.54034 41.3686,112.41573 18.0142,56.91213 33.9232,114.11148 35.7059,114.13899 2.1059,0.0325 -12.1723,-57.64198 -27.3847,-115.56417 -15.206,-57.89763 -31.3744,-116.1284 -26.7054,-117.08572 5.0995,-1.04554 26.5495,57.22716 45.6872,115.68492 19.1455,58.48146 35.9968,117.22186 38.4515,117.23024 2.9211,0.01 -11.3283,-59.07607 -27.3928,-118.22035 -16.0612,-59.13202 -33.9495,-118.36185 -31.6779,-118.57818 2.7252,-0.25951 23.2045,58.9714 42.1867,118.22575 18.9862,59.26694 36.4857,118.5941 39.9299,118.59001 3.9134,-0.005 -9.9547,-59.51814 -26.358,-119.03471 -16.4032,-59.5164 -35.4788,-119.03538 -34.8648,-119.0502 0.9439,-0.0228 20.6012,59.50139 39.5332,119.01962 18.9331,59.52162 37.1439,119.04682 41.9066,119.04305 5.2323,-0.004 -7.9663,-59.47783 -23.9966,-118.94309 -16.0302,-59.46515 -35.0285,-118.92152 -34.2911,-118.89047 1.0743,0.0452 20.756,59.49173 39.4659,118.95373 18.7077,59.45507 36.439,118.91134 40.2894,118.9415 4.3191,0.0338 -9.22,-58.99183 -25.2289,-117.96381 -16.0093,-58.97303 -34.6213,-117.89556 -33.4564,-117.66075 1.5185,0.3061 21.1615,59.19211 40.0359,118.18569 18.8619,58.95449 36.9364,117.95886 41.8099,118.30624 5.3424,0.3808 -7.3531,-57.31751 -22.4468,-114.92923 -15.0961,-57.62102 -32.7223,-115.18338 -30.5525,-114.57722 2.5292,0.70658 22.1133,58.39022 40.6286,116.14083 18.498,57.69674 35.9026,115.37942 40.2449,115.81467 4.8016,0.48129 -7.7218,-55.65977 -22.2737,-111.64964 -14.5663,-56.04534 -31.1347,-111.84806 -28.5051,-110.96744 3.1181,1.04424 22.2844,57.11205 40.5944,113.21852 18.2902,56.04567 35.693,112.02805 41.071,112.59749 5.8195,0.61617 -5.5529,-53.24946 -19.1765,-107.02465 -13.6266,-53.78725 -29.6213,-107.52025 -27.206,-106.69915 2.7646,0.93988 20.9185,54.83127 38.3119,108.76741 17.3751,53.87933 33.9607,107.70769 38.9398,108.23746 5.4043,0.57503 -5.6411,-51.46238 -18.1286,-103.26771 -12.4973,-51.84597 -26.4196,-103.40649 -21.6674,-102.08092 5.193,1.44854 23.7322,53.48862 41.068,105.41466 17.3207,51.88103 33.4192,103.57875 38.6806,104.11755 5.6686,0.5805 -4.7476,-49.80801 -16.6533,-100.10314 -11.9124,-50.32299 -25.3077,-100.53022 -20.792,-99.72639 4.9308,0.87771 22.8848,51.52885 39.3792,102.11353 16.485,50.55591 31.503,101.01512 35.3109,101.3651 4.208,0.38675 -6.7125,-49.40164 -18.5982,-98.99192 -11.8926,-49.61904 -24.7394,-99.0079 -19.7131,-97.96589 5.4385,1.12743 23.2508,50.91417 39.9227,100.55811 16.6628,49.61693 32.1712,99.03757 37.5688,99.29769 5.7817,0.27863 -3.7884,-47.54376 -14.707,-95.03602 -10.9259,-47.52436 -23.1782,-94.64861 -18.4684,-93.13419 5.1133,1.64416 21.4961,48.03381 35.8367,94.0588 14.3306,45.99264 26.5204,91.52353 27.3861,91.28839 1.1253,-0.30565 -10.0237,-45.38416 -21.4782,-90.08269 -11.4567,-44.70703 -23.1723,-88.88301 -19.3766,-87.42606 4.1865,1.60692 19.0483,44.78645 33.1745,87.25431 14.1207,42.45135 27.4651,84.02664 31.9984,82.34259 4.8271,-1.79314 -2.775,-40.70452 -10.8193,-78.45101 -8.044,-37.74542 -16.4815,-74.18647 -10.5997,-71.03364 6.2294,3.3391 18.9425,37.51748 30.7322,70.17717 11.7806,32.6342 22.6024,63.59313 27.0062,60.36593 4.6165,-3.383 0.2849,-29.80201 -5.0131,-55.03873 -5.2964,-25.22915 -11.5233,-49.1632 -9.5225,-47.53846 2.3094,1.87535 9.715,24.40876 16.7416,45.96798 7.0208,21.54138 13.6351,41.996 15.2142,39.62457 1.7362,-2.60736 -2.0116,-20.41122 -6.3433,-37.61939 -4.3268,-17.18876 -9.2306,-33.73427 -9.2306,-33.73427 z"
       style="fill:none;stroke:#000000;stroke-width:4.5;stroke-linecap:round;stroke-linejoin:round;stroke-miterlimit:4;stroke-dasharray:none;stroke-dashoffset:0;stroke-opacity:1"
       inkscape:original-d="m 1272.5645,354.67468 c -107.5583,0 -194.7444,64.92045 -194.7444,145 0,80.07955 87.1861,145 194.7444,145 37.0822,0 71.6926,-7.73126 101.1951,-21.125 -4.0913,0.42618 -8.2575,0.6875 -12.537,0.6875 -42.8832,0 -77.6391,-22.27384 -77.6391,-49.71875 0,-27.44491 34.7559,-49.6875 77.6391,-49.6875 42.8831,0 77.5829,22.24259 77.5829,49.6875 v 0.65625 c 18.0505,-21.9915 28.5034,-47.8405 28.5034,-75.5 0,-80.07955 -87.1867,-145 -194.7444,-145 z m 632.2444,24.15625 c -129.6591,0 -234.7726,66.28337 -234.7726,148.03125 0,2.79744 0.095,5.55335 0.3375,8.3125 14.7559,-8.11949 32.6553,-12.875 52.0029,-12.875 50.341,0 91.1881,32.20882 91.1881,71.96875 0,23.27953 -13.9975,43.96542 -35.6993,57.125 36.5979,14.85842 80.1789,23.46875 126.9434,23.46875 129.6592,0 234.7727,-66.25212 234.7727,-148 0,-81.74788 -105.1134,-148.03125 -234.7727,-148.03125 z m -393.7051,330.96875 c -128.335,-0.52332 -166.1304,69.83336 -127.8432,124.6875 14.9598,21.43303 -38.6871,87.25054 -18.6649,96.8125 47.0845,22.48615 194.1678,16.49588 253.4376,17.84375 29.8422,0.67865 217.3754,24.56047 234.7727,20.40625 205.5835,-49.09003 45.661,-180.80913 -120.0288,-205.15625 -80.1569,-11.77855 -124.6175,-40.93111 -194.8005,-53.5 -9.3644,-0.69038 -18.3173,-1.05886 -26.8729,-1.09375 z"
       inkscape:path-effect="#path-effect15626-7" />
    <path
       inkscape:connector-curvature="0"
       id="path9212-2-8"
       d="m 1272.5645,354.67468 c -107.5583,0 -194.7444,64.92045 -194.7444,145 0,80.07955 87.1861,145 194.7444,145 37.0822,0 71.6926,-7.73126 101.1951,-21.125 -4.0913,0.42618 -8.2575,0.6875 -12.537,0.6875 -42.8832,0 -77.6391,-22.27384 -77.6391,-49.71875 0,-27.44491 34.7559,-49.6875 77.6391,-49.6875 42.8831,0 77.5829,22.24259 77.5829,49.6875 v 0.65625 c 18.0505,-21.9915 28.5034,-47.8405 28.5034,-75.5 0,-80.07955 -87.1867,-145 -194.7444,-145 z m 632.2444,24.15625 c -129.6591,0 -234.7726,66.28337 -234.7726,148.03125 0,2.79744 0.095,5.55335 0.3375,8.3125 14.7559,-8.11949 32.6553,-12.875 52.0029,-12.875 50.341,0 91.1881,32.20882 91.1881,71.96875 0,23.27953 -13.9975,43.96542 -35.6993,57.125 36.5979,14.85842 80.1789,23.46875 126.9434,23.46875 129.6592,0 234.7727,-66.25212 234.7727,-148 0,-81.74788 -105.1134,-148.03125 -234.7727,-148.03125 z m -393.7051,330.96875 c -128.335,-0.52332 -166.1304,69.83336 -127.8432,124.6875 14.9598,21.43303 -38.6871,87.25054 -18.6649,96.8125 47.0845,22.48615 194.1678,16.49588 253.4376,17.84375 29.8422,0.67865 217.3754,24.56047 234.7727,20.40625 205.5835,-49.09003 45.661,-180.80913 -120.0288,-205.15625 -80.1569,-11.77855 -124.6175,-40.93111 -194.8005,-53.5 -9.3644,-0.69038 -18.3173,-1.05886 -26.8729,-1.09375 z"
       style="fill:none;stroke:#000000;stroke-width:4.5;stroke-linecap:round;stroke-linejoin:round;stroke-miterlimit:4;stroke-dasharray:none;stroke-dashoffset:0;stroke-opacity:1" />
  </g>
</svg>
