<?xml version="1.0" encoding="UTF-8" standalone="no"?>
<!-- Created with Inkscape (http://www.inkscape.org/) -->

<svg
   xmlns:dc="http://purl.org/dc/elements/1.1/"
   xmlns:cc="http://creativecommons.org/ns#"
   xmlns:rdf="http://www.w3.org/1999/02/22-rdf-syntax-ns#"
   xmlns:svg="http://www.w3.org/2000/svg"
   xmlns="http://www.w3.org/2000/svg"
   xmlns:sodipodi="http://sodipodi.sourceforge.net/DTD/sodipodi-0.dtd"
   xmlns:inkscape="http://www.inkscape.org/namespaces/inkscape"
   width="3200"
   height="800"
   id="svg27345"
   version="1.1"
   inkscape:version="0.48.5 r10040"
   sodipodi:docname="ghost.svg">
  <sodipodi:namedview
     id="base"
     pagecolor="#ffffff"
     bordercolor="#666666"
     borderopacity="1.0"
     inkscape:pageopacity="0.0"
     inkscape:pageshadow="2"
     inkscape:zoom="0.38125"
     inkscape:cx="1282.623"
     inkscape:cy="400"
     inkscape:document-units="px"
     inkscape:current-layer="layer1"
     showgrid="false"
     inkscape:window-width="1436"
     inkscape:window-height="855"
     inkscape:window-x="0"
     inkscape:window-y="0"
     inkscape:window-maximized="1" />
  <defs
     id="defs27347">
    <inkscape:path-effect
       back_thickness="0.25"
       front_thickness="1"
       stroke_width_bottom="1"
       stroke_width_top="1"
       fat_output="false"
       bottom_smth_variation="0;1"
       top_smth_variation="0;1"
       scale_tb="2"
       scale_tf="2"
       scale_bb="2"
       scale_bf="2"
       top_tgt_variation="0;1"
       bottom_tgt_variation="0;1"
       top_edge_variation="0;1"
       bottom_edge_variation="0;1"
       bender="1102.5802,207.92952 , 5,0"
       do_bend="true"
       growth="0"
       dist_rdm="0;1"
       direction="1102.5802,202.92952 , 8.6938786,31.847318"
       is_visible="true"
       id="path-effect9226"
       effect="rough_hatches" />
    <inkscape:path-effect
       back_thickness="0.25"
       front_thickness="1"
       stroke_width_bottom="1"
       stroke_width_top="1"
       fat_output="false"
       bottom_smth_variation="0;1"
       top_smth_variation="0;1"
       scale_tb="2"
       scale_tf="2"
       scale_bb="2"
       scale_bf="2"
       top_tgt_variation="0;1"
       bottom_tgt_variation="0;1"
       top_edge_variation="0;1"
       bottom_edge_variation="0;1"
       bender="1341.2209,235.11642 , 5,0"
       do_bend="true"
       growth="0"
       dist_rdm="0;1"
       direction="1341.2209,230.11642 , -17.383184,23.488983"
       is_visible="true"
       id="path-effect9224"
       effect="rough_hatches" />
    <inkscape:path-effect
       back_thickness="0.25"
       front_thickness="1"
       stroke_width_bottom="1"
       stroke_width_top="1"
       fat_output="false"
       bottom_smth_variation="0;1"
       top_smth_variation="0;1"
       scale_tb="2"
       scale_tf="2"
       scale_bb="2"
       scale_bf="2"
       top_tgt_variation="0;1"
       bottom_tgt_variation="0;1"
       top_edge_variation="0;1"
       bottom_edge_variation="0;1"
       bender="1218.3764,536.18587 , 5,0"
       do_bend="true"
       growth="0"
       dist_rdm="0;1"
       direction="1218.3764,531.18587 , 8.1282013,-34.687207"
       is_visible="true"
       id="path-effect9222"
       effect="rough_hatches" />
    <inkscape:path-effect
       back_thickness="0.25"
       front_thickness="1"
       stroke_width_bottom="1"
       stroke_width_top="1"
       fat_output="false"
       bottom_smth_variation="0;1"
       top_smth_variation="0;1"
       scale_tb="2"
       scale_tf="2"
       scale_bb="2"
       scale_bf="2"
       top_tgt_variation="0;1"
       bottom_tgt_variation="0;1"
       top_edge_variation="0;1"
       bottom_edge_variation="0;1"
       bender="1540.8385,638.66418 , -6.041742,0"
       do_bend="true"
       growth="0"
       dist_rdm="0;1"
       direction="1540.8385,644.70668 , -15.509646,2.0138452"
       is_visible="true"
       id="path-effect3100"
       effect="rough_hatches" />
    <inkscape:path-effect
       effect="rough_hatches"
       id="path-effect3070"
       is_visible="true"
       direction="1542.7188,608.88122 , 26.788776,-3.1724596e-08"
       dist_rdm="0;1"
       growth="0"
       do_bend="true"
       bender="1542.7188,613.88122 , 5,0"
       bottom_edge_variation="0;1"
       top_edge_variation="0;1"
       bottom_tgt_variation="0;1"
       top_tgt_variation="0;1"
       scale_bf="2"
       scale_bb="2"
       scale_tf="2"
       scale_tb="2"
       top_smth_variation="0;1"
       bottom_smth_variation="0;1"
       fat_output="false"
       stroke_width_top="1"
       stroke_width_bottom="1"
       front_thickness="1"
       back_thickness="0.25" />
    <inkscape:perspective
       id="perspective27353"
       inkscape:persp3d-origin="372.04724 : 350.78739 : 1"
       inkscape:vp_z="744.09448 : 526.18109 : 1"
       inkscape:vp_y="0 : 1000 : 0"
       inkscape:vp_x="0 : 526.18109 : 1"
       sodipodi:type="inkscape:persp3d" />
  </defs>
  <metadata
     id="metadata27350">
    <rdf:RDF>
      <cc:Work
         rdf:about="">
        <dc:format>image/svg+xml</dc:format>
        <dc:type
           rdf:resource="http://purl.org/dc/dcmitype/StillImage" />
        <dc:title />
      </cc:Work>
    </rdf:RDF>
  </metadata>
  <g
     transform="translate(0,-252.36218)"
     id="layer1"
     inkscape:groupmode="layer"
     inkscape:label="Layer 1">
    <g
       id="g10312"
       transform="matrix(1.6418354,0,0,0.94284181,-569.52955,94.856674)">
      <path
         sodipodi:type="arc"
         style="fill:none;stroke:#000000;stroke-width:4.5;stroke-linecap:round;stroke-linejoin:round;stroke-miterlimit:4;stroke-opacity:1;stroke-dasharray:none;stroke-dashoffset:0"
         id="path9212"
         sodipodi:cx="1102.5802"
         sodipodi:cy="207.92952"
         sodipodi:rx="73.505348"
         sodipodi:ry="144.99686"
         d="m 1104.956,352.85207 c 0,0 7.8544,1.27382 22.8609,-9.61902 15.0064,-10.89283 -34.5354,9.38535 -43.3518,4.96809 -8.8164,-4.41727 55.8151,-15.17027 61.5934,-23.56002 5.7784,-8.38975 -69.9416,19.01564 -75.4886,13.70825 -5.547,-5.3074 81.0797,-22.04717 84.9211,-29.91428 1.9207,-3.93356 -20.6605,2.21135 -44.2547,8.62949 -23.5941,6.41813 -48.2025,13.1095 -50.292,10.26888 -4.1792,-5.68126 98.3284,-26.74932 101.1211,-34.33486 1.3964,-3.79277 -24.9046,3.36794 -51.9852,10.73767 -27.0807,7.36972 -54.9422,14.94847 -56.609,11.99178 -3.3337,-5.91339 111.3594,-30.30755 113.4345,-37.70132 1.0375,-3.69688 -28.1322,4.24874 -57.9182,12.35818 -29.7859,8.10945 -60.1889,16.38271 -61.548,13.34111 -1.359,-3.04161 29.0346,-11.31385 59.9463,-19.73153 30.9117,-8.41768 62.3411,-16.98081 63.1025,-20.60419 0.7613,-3.62338 -30.6576,4.93897 -62.5648,13.6297 -31.9072,8.69073 -64.3033,17.50984 -65.4161,14.39998 -1.1128,-3.10986 31.2748,-11.92835 64.0599,-20.86006 32.7851,-8.93172 65.9673,-17.97667 66.5003,-21.53946 0.5329,-3.5628 -32.6397,5.48168 -66.1932,14.62478 -33.5535,9.14311 -67.4884,18.38484 -68.3914,15.21657 -0.903,-3.16827 33.0237,-12.4096 67.2443,-21.73644 34.2205,-9.32685 68.7347,-18.7392 69.0692,-22.24952 0.3346,-3.51033 -34.1704,5.90173 -68.9617,15.38623 -34.7912,9.48449 -69.8691,19.04143 -70.585,15.82087 -0.7158,-3.22057 34.3539,-12.77723 69.6249,-22.39456 35.2709,-9.61732 70.743,-19.29531 70.899,-22.75851 0.1561,-3.46321 -35.3072,6.21459 -70.9701,15.94094 -35.6629,9.72634 -71.5257,19.50123 -72.0688,16.2322 -0.543,-3.26904 35.3117,-13.04374 71.2824,-22.85612 35.9706,-9.81237 72.057,-19.66241 72.048,-23.08211 -0.01,-3.4197 -36.0869,6.43024 -72.283,16.30629 -36.1961,9.87606 -72.5106,19.77823 -72.8893,16.46301 -0.3787,-3.31523 35.9279,-13.21739 72.269,-23.13516 36.3411,-9.91776 72.7167,-19.85114 72.5483,-23.22881 -0.1684,-3.37766 -36.5358,6.55567 -72.942,16.49336 -36.4061,9.93768 -72.851,19.87971 -73.0698,16.51942 -0.2189,-3.36028 36.2182,-13.30234 72.6097,-23.2382 36.3915,-9.93586 72.7375,-19.86552 72.4092,-23.20098 -0.3283,-3.33546 -36.6664,6.59421 -72.9636,16.50646 -36.2971,9.91225 -72.5531,19.80709 -72.6131,16.40196 -0.06,-3.40512 36.1883,-13.30005 72.3107,-23.16675 36.1224,-9.8667 72.119,-19.70517 71.6273,-22.99737 -0.4918,-3.2922 -36.4813,6.54641 -72.3479,16.34534 -35.8665,9.79893 -71.6099,19.55817 -71.5076,16.10723 0.1023,-3.45093 35.8381,-13.21035 71.3654,-22.91874 35.5272,-9.70838 70.8461,-19.36574 70.1832,-22.61255 -0.6628,-3.24682 -35.9753,6.41079 -71.0775,16.00509 -35.1023,9.5943 -69.9939,19.12529 -69.7175,15.62522 0.2764,-3.50008 35.161,-13.03134 69.7484,-22.48705 34.5875,-9.45572 68.8782,-18.83589 68.0315,-22.03377 -0.8467,-3.19788 -35.1318,6.18266 -69.1112,15.47412 -33.9794,9.29146 -67.6526,18.49383 -67.1839,14.93959 0.4687,-3.55424 34.1355,-12.75705 67.4076,-21.85712 33.272,-9.10008 66.1496,-18.09743 65.0987,-21.24076 -1.0508,-3.14332 -33.924,5.85459 -66.3837,14.73437 -32.4597,8.87978 -64.5053,17.64142 -63.8171,14.02553 0.6881,-3.6159 32.7284,-12.37823 64.2618,-21.00656 31.5334,-8.62833 62.5602,-17.12265 61.2729,-20.20251 -1.2873,-3.07987 -32.3115,5.41537 -62.7953,13.75826 -30.4839,8.3429 -60.4265,16.53347 -59.4767,12.84426 0.9498,-3.6892 30.8893,-11.88094 60.1861,-19.90081 29.2968,-8.01987 57.9513,-15.86786 56.3742,-18.86954 -1.5772,-3.00169 -30.2322,4.8479 -58.1885,12.50239 -27.9563,7.6545 -55.2128,15.1139 -53.9303,11.33184 2.5651,-7.56413 108.9971,-29.846576 105.0703,-35.640579 -1.9634,-2.897002 -27.589,4.125371 -52.299,10.893959 -24.7099,6.76859 -48.5029,13.2834 -46.7523,9.37128 3.5012,-7.82426 95.2002,-26.080069 90.0919,-31.552312 -5.1084,-5.472243 -86.7209,23.763812 -81.6298,15.499891 5.091,-8.263926 76.7986,-21.048252 69.2711,-25.858984 -7.5275,-4.810732 -65.0064,17.821877 -55.3259,8.295068 9.6805,-9.526809 40.8581,-14.640782 40.8581,-14.640782"
         transform="translate(0,252.36218)"
         inkscape:path-effect="#path-effect9226" />
      <path
         sodipodi:type="arc"
         style="fill:none;stroke:#000000;stroke-width:4.5;stroke-linecap:round;stroke-linejoin:round;stroke-miterlimit:4;stroke-opacity:1;stroke-dasharray:none;stroke-dashoffset:0"
         id="path9214"
         sodipodi:cx="1341.2209"
         sodipodi:cy="235.11642"
         sodipodi:rx="88.609192"
         sodipodi:ry="148.01762"
         d="m 1282.8364,346.46248 c 0,0 10.4938,8.75713 22.3808,17.65103 11.8869,8.8939 25.1664,17.92456 30.8087,18.47163 5.6423,0.54706 -8.9446,-10.38625 -25.6518,-22.88197 -16.7072,-12.49572 -35.5417,-26.55385 -38.2749,-32.2564 -2.7332,-5.70255 15.9793,8.24773 36.2501,23.39736 20.2709,15.14962 42.0899,31.4986 45.7942,30.59345 3.7043,-0.90516 -18.0567,-17.21115 -41.2026,-34.50369 -23.1458,-17.29254 -47.683,-35.57163 -49.2866,-40.42297 -1.6036,-4.85134 22.9276,13.40538 48.504,32.50095 25.5765,19.09556 52.1897,39.02998 55.1047,37.53401 2.915,-1.49596 -23.6838,-21.41709 -51.35,-42.06491 -27.6662,-20.64781 -56.4057,-42.02232 -57.416,-46.42505 -1.0103,-4.40273 27.7421,16.96294 57.2426,38.96574 29.5005,22.00279 59.7417,44.6427 62.1769,42.78847 2.4352,-1.85423 -27.8043,-24.48804 -58.917,-47.68366 -31.1127,-23.19561 -63.1038,-46.95303 -63.7168,-51.05448 -0.613,-4.10145 31.3972,19.65149 63.945,43.90229 32.5479,24.2508 65.6272,48.99945 67.7188,46.88941 2.0915,-2.11004 -30.9925,-26.85528 -64.8106,-52.04153 -33.8182,-25.18625 -68.3749,-50.8135 -68.6886,-54.68755 -0.3137,-3.87404 34.2647,21.75063 69.2168,47.76611 34.9521,26.01548 70.2728,52.42177 72.0937,50.11094 1.8208,-2.31082 -33.5087,-28.71498 -69.4627,-55.46394 -35.9539,-26.74897 -72.5359,-53.84275 -72.6078,-57.53284 -0.072,-3.69008 36.5328,23.40211 73.3761,50.79711 36.8434,27.39501 73.9211,55.09283 75.5145,52.61401 1.5934,-2.47882 -35.4967,-30.17548 -73.1177,-58.13565 -37.621,-27.96018 -75.776,-56.18387 -75.6414,-59.71673 0.1347,-3.53286 38.3126,24.68981 76.6132,53.13915 38.3005,28.44933 76.7205,57.12533 78.1135,54.49914 1.393,-2.6262 -37.0418,-31.30147 -75.9223,-60.16774 -38.8806,-28.86627 -78.2091,-57.92353 -77.8869,-61.31372 0.3222,-3.39019 39.6736,25.66644 79.044,54.8805 39.3705,29.21406 78.7577,58.58556 79.9674,55.82513 1.2097,-2.76044 -38.1944,-32.13144 -77.9632,-61.62666 -39.7689,-29.49521 -79.904,-59.11463 -79.4067,-62.37189 0.4972,-3.25725 40.6546,26.36179 80.7367,56.07349 40.0821,29.71171 80.0876,59.51608 81.1244,56.62947 1.0368,-2.88661 -38.9874,-32.69068 -79.2967,-62.55576 -40.3092,-29.86507 -80.9041,-59.79116 -80.2398,-62.92179 0.6643,-3.13063 41.2808,26.79528 81.7344,56.75174 40.4536,29.95645 80.744,59.94344 81.6131,56.93496 0.8691,-3.00849 -39.4416,-32.99536 -79.9566,-62.98194 -40.515,-29.98659 -81.2343,-59.97288 -80.4069,-62.98022 0.8274,-3.00734 41.5672,26.97897 82.0614,56.93483 40.4942,29.95585 80.7431,59.88126 81.4457,56.7521 0.7025,-3.12916 -39.5682,-33.05462 -79.9596,-62.91892 -40.3914,-29.86431 -80.9028,-59.66746 -79.9125,-62.55201 0.9903,-2.88455 41.5211,26.91879 81.726,56.63041 40.205,29.71162 80.0857,59.33152 80.619,56.0801 0.5333,-3.25143 -39.3704,-32.87159 -79.3063,-62.36871 -39.9359,-29.49712 -79.9025,-58.87121 -78.7454,-61.6305 1.157,-2.7593 41.1417,26.61516 80.7214,55.83491 39.5797,29.21975 78.7567,58.2848 79.1143,54.90667 0.3576,-3.37812 -38.8436,-32.44366 -77.9816,-61.32169 -39.1379,-28.87804 -78.2105,-57.56858 -76.8781,-60.19669 1.3324,-2.62811 40.4216,26.06301 79.025,54.53306 38.6034,28.47005 76.7243,56.71904 76.8953,53.20668 0.1711,-3.51236 -37.975,-31.76217 -75.953,-59.75552 -37.978,-27.99334 -75.7848,-55.73023 -74.2625,-58.21673 1.5224,-2.4865 39.3445,25.25126 76.5956,52.69614 37.2512,27.44487 73.9355,54.59685 73.9038,50.93877 -0.032,-3.65807 -36.7422,-30.81136 -73.1668,-57.63214 -36.4246,-26.82079 -72.5594,-53.30907 -70.8236,-55.63712 1.7359,-2.32806 37.8851,24.16201 73.3681,50.27777 35.4831,26.11576 70.305,51.85722 70.0409,48.03195 -0.2641,-3.82527 -35.1137,-29.56884 -69.5394,-54.89176 -34.4256,-25.32292 -68.4231,-50.22519 -66.4365,-52.36786 1.9866,-2.14267 35.9975,22.76241 69.2286,47.19601 33.2311,24.4336 65.6882,48.39573 65.1418,44.36718 -0.5464,-4.02854 -33.0332,-27.99428 -64.9274,-51.43102 -31.8941,-23.43673 -63.1908,-46.34447 -60.8917,-48.25702 2.299,-1.91255 33.6093,21.00005 63.9934,43.3179 30.3841,22.31784 59.8489,44.04094 58.938,39.74939 -0.9109,-4.29155 -30.4094,-26.02149 -59.0952,-47.07895 -28.6858,-21.05746 -56.5533,-41.442446 -53.8308,-43.044087 2.7225,-1.601641 30.6078,18.793267 57.3571,38.421637 26.7494,19.62837 52.3708,38.49021 50.9399,33.82244 -1.4309,-4.66777 -27.0976,-23.54549 -51.6308,-41.53609 -24.5333,-17.9906 -47.927,-35.094065 -44.5456,-36.213337 3.3813,-1.119272 26.8134,16.011837 48.7502,32.092877 21.9367,16.08103 42.3875,31.11199 40.0587,25.79241 -2.3287,-5.31958 -22.8803,-20.40828 -41.7035,-34.19716 -18.8232,-13.788892 -35.9114,-26.277976 -31.1639,-26.39834 4.7476,-0.120365 22.0928,12.559468 36.9501,23.44046 14.8573,10.881 27.2388,19.96315 22.1724,12.64743 -10.1326,-14.63144 -41.1401,-33.715377 -41.1401,-33.715377"
         transform="translate(0,252.36218)"
         inkscape:path-effect="#path-effect9224" />
      <path
         style="fill:none;stroke:#000000;stroke-width:4.5;stroke-linecap:butt;stroke-linejoin:miter;stroke-miterlimit:4;stroke-opacity:1;stroke-dasharray:none"
         d="m 1221.0688,422.02804 c 0,0 -0.6743,-1.06759 4.7222,0.19081 5.3965,1.25839 16.8696,4.84276 41.1287,14.14667 24.2591,9.3039 5.2027,4.85713 -22.508,-1.60813 -27.7108,-6.46527 -64.0934,-14.94903 -74.4343,-13.71911 -10.341,1.22993 23.8839,9.21034 63.3107,18.41095 39.4268,9.20061 84.0506,19.62142 94.592,25.73212 10.5414,6.1107 -33.8152,-4.25412 -82.6559,-15.65644 -48.8406,-11.40233 -102.177,-23.84215 -109.3864,-21.88146 -7.2093,1.9607 46.0043,14.37294 103.0558,27.69548 57.0515,13.32254 117.9345,27.55537 126.2739,33.15725 8.3394,5.60188 -52.4602,-8.61936 -116.9305,-23.68042 -64.4702,-15.06105 -132.6227,-30.96193 -138.6269,-28.71933 -6.0042,2.2426 62.1036,18.135 133.4406,34.80454 71.3369,16.66955 145.8956,34.11624 153.1416,39.46745 7.246,5.3512 -67.2542,-12.09095 -145.0196,-30.2698 -77.7653,-18.17886 -158.8077,-37.09442 -164.1225,-34.69003 -5.3149,2.40438 75.6993,21.31611 159.5607,40.92524 83.8613,19.60913 170.5617,39.91566 177.116,45.10965 6.5543,5.19398 -80.0925,-15.11024 -169.7578,-36.0846 -89.6653,-20.97437 -182.3613,-42.61888 -187.2137,-40.10548 -4.8524,2.51341 87.82,24.15584 183.0613,46.44057 95.2412,22.28473 193.0426,45.21176 199.1022,50.29434 6.0596,5.08258 -91.6879,-17.84308 -192.2892,-41.39095 -50.3006,-11.77394 -101.3104,-23.70342 -140.3186,-32.3652 -39.0082,-8.66178 -66.0066,-14.05585 -68.2631,-12.75896 -4.513,2.59378 98.9315,26.76261 204.7235,51.53229 52.896,12.38484 106.386,24.91989 147.3509,34.98338 40.965,10.06348 69.4097,17.6554 72.2482,20.15399 2.8384,2.49858 -22.7601,-2.59454 -62.918,-11.55666 -40.1578,-8.96211 -94.8854,-21.79322 -150.2913,-34.77062 -55.4059,-12.97739 -111.4903,-26.10107 -154.2658,-35.64832 -42.7755,-9.54725 -72.2323,-15.51808 -74.3569,-14.18978 -2.1246,1.32831 25.2034,8.62726 67.5208,18.98249 42.3173,10.35523 99.6175,23.76674 157.4667,37.32018 57.8492,13.55345 116.2471,27.24882 160.8404,38.17177 44.5933,10.92295 75.3879,19.07347 78.069,21.53722 2.681,2.46375 -25.4246,-3.22288 -69.2542,-13.05407 -43.8297,-9.83118 -103.3955,-23.80691 -163.6167,-37.92138 -60.2211,-14.11446 -121.0981,-28.36765 -167.4374,-38.75375 -46.3394,-10.3861 -78.1297,-16.90511 -80.1475,-15.5512 -2.0177,1.35391 27.7508,9.22672 73.6535,20.42647 45.9028,11.19974 107.9319,25.72641 170.4702,40.38804 62.5382,14.66163 125.5852,29.45821 173.6189,41.19777 48.0338,11.73956 81.0615,20.4221 83.6052,22.85564 5.0875,4.86708 -34.0323,-4.33048 -67.1775,-12.1185 -33.1452,-7.78802 -60.2997,-14.16648 -31.1987,-3.6612 29.1011,10.50528 56.2278,16.88377 77.298,21.83844 21.0702,4.95467 36.081,8.48552 40.9086,13.29552 4.8276,4.81 -11.007,1.08421 -23.2568,-1.79778 -12.2498,-2.88198 -20.9091,-4.92016 -1.7385,3.26507 19.1706,8.18523 28.9623,11.41058 33.9704,12.58963 5.0081,1.17904 5.2282,0.31178 5.2282,0.31178 M 1002.0589,494.87699 c 0,0 59.4731,12.99847 114.4469,25.87185 54.9737,12.87339 105.4493,25.62168 87.6993,25.12134 -17.75,-0.50035 -69.2206,-12.56573 -117.2497,-23.81349 -48.0291,-11.24776 -92.6092,-21.67791 -96.38655,-18.90779 -3.77734,2.77012 41.43665,13.35167 84.62885,23.46868 43.1922,10.11701 84.3655,19.76949 72.64,20.68148 -11.7256,0.91199 -52.8961,-8.74021 -92.0789,-17.91918 -39.1829,-9.17897 -76.37412,-17.8847 -80.00833,-15.07974 -3.63421,2.80495 33.62733,11.52955 69.26563,19.8799 35.6383,8.35034 69.655,16.32644 59.6173,17.63438 -10.0377,1.30794 -44.0509,-6.66795 -76.456,-14.26183 -32.40504,-7.59388 -63.1993,-14.80574 -66.70681,-11.96976 -3.5075,2.83599 27.30589,10.05431 56.69741,16.94345 29.3915,6.88914 57.3622,13.4491 48.2241,14.96837 -9.138,1.51927 -37.1053,-5.04054 -63.653,-11.26412 -26.54778,-6.22358 -51.67399,-12.11093 -55.06712,-9.24675 -6.78626,5.72835 100.49612,23.56158 83.39952,26.87769 -8.5482,1.65806 -31.08367,-3.62917 -52.31494,-8.60834 -21.23127,-4.97916 -41.15674,-9.65027 -44.44454,-6.75998 -6.57559,5.78058 79.69158,18.69113 63.46101,22.21142 -16.23062,3.5203 -70.03545,-16.43059 -76.41245,-10.60054 -6.377,5.83006 60.19852,14.12474 44.65595,17.80764 -15.54257,3.6829 -51.03277,-11.97756 -57.21652,-6.09922 -6.18375,5.87834 41.68264,9.78415 26.72746,13.60617 -14.95518,3.82203 -32.91292,-7.72824 -38.898,-1.80027 -5.98509,5.92798 23.94159,5.62199 9.54041,9.57544 -14.40118,3.95344 -15.53604,-3.64996 -21.28196,2.33724 -5.74593,5.9872 -0.0109,3.66627 -0.0109,3.66627"
         id="path9220"
         inkscape:connector-curvature="0"
         transform="translate(0,252.36218)"
         sodipodi:nodetypes="czczc"
         inkscape:path-effect="#path-effect9222"
         inkscape:original-d="m 880.05035,600.62933 c 0,0 165.39565,-180.73828 312.14595,-181.24607 146.7503,-0.50779 364.5061,233.60604 364.5061,233.60604 0,0 -205.4152,-97.44112 -336.3122,-106.73379 -130.897,-9.29267 -340.33985,54.37382 -340.33985,54.37382 z" />
    </g>
  </g>
</svg>
