<?xml version="1.0" encoding="UTF-8" standalone="no"?>
<!-- Created with Inkscape (http://www.inkscape.org/) -->

<svg
   xmlns:dc="http://purl.org/dc/elements/1.1/"
   xmlns:cc="http://creativecommons.org/ns#"
   xmlns:rdf="http://www.w3.org/1999/02/22-rdf-syntax-ns#"
   xmlns:svg="http://www.w3.org/2000/svg"
   xmlns="http://www.w3.org/2000/svg"
   xmlns:sodipodi="http://sodipodi.sourceforge.net/DTD/sodipodi-0.dtd"
   xmlns:inkscape="http://www.inkscape.org/namespaces/inkscape"
   width="3200"
   height="800"
   id="svg27345"
   version="1.1"
   inkscape:version="0.48.5 r10040"
   sodipodi:docname="jackolantern5-withfill.svg">
  <sodipodi:namedview
     id="base"
     pagecolor="#ffffff"
     bordercolor="#666666"
     borderopacity="1.0"
     inkscape:pageopacity="0.0"
     inkscape:pageshadow="2"
     inkscape:zoom="0.4284375"
     inkscape:cx="1317.5784"
     inkscape:cy="400"
     inkscape:document-units="px"
     inkscape:current-layer="layer1"
     showgrid="false"
     inkscape:window-width="1436"
     inkscape:window-height="855"
     inkscape:window-x="0"
     inkscape:window-y="0"
     inkscape:window-maximized="1" />
  <defs
     id="defs27347">
    <inkscape:path-effect
       effect="rough_hatches"
       id="path-effect29010"
       is_visible="true"
       direction="1516.8438,358.96195 , -26.528039,11.18847"
       dist_rdm="0;1"
       growth="0"
       do_bend="true"
       bender="1516.8438,363.96195 , 5,0"
       bottom_edge_variation="0;1"
       top_edge_variation="0;1"
       bottom_tgt_variation="0;1"
       top_tgt_variation="0;1"
       scale_bf="2"
       scale_bb="2"
       scale_tf="2"
       scale_tb="2"
       top_smth_variation="0;1"
       bottom_smth_variation="0;1"
       fat_output="false"
       stroke_width_top="1"
       stroke_width_bottom="1"
       front_thickness="1"
       back_thickness="0.25" />
    <inkscape:path-effect
       effect="rough_hatches"
       id="path-effect12466"
       is_visible="true"
       direction="1556.2948,627.991 , 23.491025,0"
       dist_rdm="0;1"
       growth="0"
       do_bend="true"
       bender="1556.2948,632.991 , 5,0"
       bottom_edge_variation="0;1"
       top_edge_variation="0;1"
       bottom_tgt_variation="0;1"
       top_tgt_variation="0;1"
       scale_bf="2"
       scale_bb="2"
       scale_tf="2"
       scale_tb="2"
       top_smth_variation="0;1"
       bottom_smth_variation="0;1"
       fat_output="false"
       stroke_width_top="1"
       stroke_width_bottom="1"
       front_thickness="1"
       back_thickness="0.25" />
    <inkscape:path-effect
       effect="rough_hatches"
       id="path-effect3100"
       is_visible="true"
       direction="1544.6875,629.74717 , 19.501848,0"
       dist_rdm="0;1"
       growth="0"
       do_bend="true"
       bender="1544.6875,634.74717 , 5,0"
       bottom_edge_variation="0;1"
       top_edge_variation="0;1"
       bottom_tgt_variation="0;1"
       top_tgt_variation="0;1"
       scale_bf="2"
       scale_bb="2"
       scale_tf="2"
       scale_tb="2"
       top_smth_variation="0;1"
       bottom_smth_variation="0;1"
       fat_output="false"
       stroke_width_top="1"
       stroke_width_bottom="1"
       front_thickness="1"
       back_thickness="0.25" />
    <inkscape:path-effect
       back_thickness="0.25"
       front_thickness="1"
       stroke_width_bottom="1"
       stroke_width_top="1"
       fat_output="false"
       bottom_smth_variation="0;1"
       top_smth_variation="0;1"
       scale_tb="2"
       scale_tf="2"
       scale_bb="2"
       scale_bf="2"
       top_tgt_variation="0;1"
       bottom_tgt_variation="0;1"
       top_edge_variation="0;1"
       bottom_edge_variation="0;1"
       bender="1542.7188,613.88122 , 5,0"
       do_bend="true"
       growth="0"
       dist_rdm="0;1"
       direction="1542.7188,608.88122 , 26.788776,-3.1724596e-08"
       is_visible="true"
       id="path-effect3070"
       effect="rough_hatches" />
    <inkscape:perspective
       sodipodi:type="inkscape:persp3d"
       inkscape:vp_x="0 : 526.18109 : 1"
       inkscape:vp_y="0 : 1000 : 0"
       inkscape:vp_z="744.09448 : 526.18109 : 1"
       inkscape:persp3d-origin="372.04724 : 350.78739 : 1"
       id="perspective27353" />
    <inkscape:path-effect
       effect="rough_hatches"
       id="path-effect29010-4"
       is_visible="true"
       direction="1516.8435,358.96194 , -26.528039,11.18847"
       dist_rdm="0;1"
       growth="0"
       do_bend="true"
       bender="1516.8435,363.96194 , 5,0"
       bottom_edge_variation="0;1"
       top_edge_variation="0;1"
       bottom_tgt_variation="0;1"
       top_tgt_variation="0;1"
       scale_bf="2"
       scale_bb="2"
       scale_tf="2"
       scale_tb="2"
       top_smth_variation="0;1"
       bottom_smth_variation="0;1"
       fat_output="false"
       stroke_width_top="1"
       stroke_width_bottom="1"
       front_thickness="1"
       back_thickness="0.25" />
  </defs>
  <metadata
     id="metadata27350">
    <rdf:RDF>
      <cc:Work
         rdf:about="">
        <dc:format>image/svg+xml</dc:format>
        <dc:type
           rdf:resource="http://purl.org/dc/dcmitype/StillImage" />
        <dc:title />
      </cc:Work>
    </rdf:RDF>
  </metadata>
  <g
     inkscape:label="2-black"
     inkscape:groupmode="layer"
     id="layer1"
     transform="translate(0,-252.36218)"
     style="display:inline">
    <path
       inkscape:connector-curvature="0"
       style="fill:none;stroke:#000000;stroke-width:0.99999994px;stroke-linecap:butt;stroke-linejoin:miter;stroke-opacity:1"
       d="m 1301.1562,120.53125 -0.4062,0.78125 -0.375,0.6875 c -23.8399,45.5437 -47.7107,91.0714 -71.5312,136.625 50.4786,0.5574 100.9582,1.09015 151.4374,1.59375 -26.4051,-46.5452 -52.7473,-93.1266 -79.125,-139.6875 z m 446.5313,1.1875 -0.5,0.75 -0.2187,0.34375 c -27.8631,42.9178 -55.7389,85.8271 -83.5938,128.75 58.8854,0.1263 117.7709,0.28035 176.6562,0.40625 -30.7967,-43.4056 -61.564,-86.8322 -92.3437,-130.25 z M 1528.625,270.875 l -0.4688,0.75 -0.3437,0.5 c -14.3283,21.7428 -28.6965,43.45975 -43,65.21875 26.7189,0.1152 53.4375,0.28995 80.1563,0.40625 -12.1474,-22.2736 -24.2148,-44.5912 -36.3438,-66.875 z m 379.625,57 -192.875,102 -26.2812,64.78125 -42.25,-54.4375 c 0,0 -105.8731,17.63661 -153.625,19.5 -47.7521,1.86339 -131.7188,-6.375 -131.7188,-6.375 l -45.5,53.875 -23,-72.625 -167.5625,-105.78125 c 0,0 57.8224,173.40316 131.4063,223.90625 73.5838,50.50309 173.6691,58.18352 260,53.5 86.3309,-4.68351 188.3768,-9.09399 259.0624,-65.6875 C 1846.5918,483.93775 1908.25,327.875 1908.25,327.875 z"
       transform="translate(0,252.36218)"
       id="path3090" />
  </g>
  <g
     style="display:inline"
     inkscape:groupmode="layer"
     id="layer2"
     inkscape:label="1-orange">
    <path
       inkscape:original-d="m 1301.1559,120.53125 -0.4062,0.78125 -0.375,0.6875 c -23.8399,45.5437 -47.7107,91.0714 -71.5312,136.62499 50.4786,0.5574 100.9582,1.09015 151.4374,1.59375 -26.4051,-46.54519 -52.7473,-93.12659 -79.125,-139.68749 z m 446.5313,1.1875 -0.5,0.75 -0.2187,0.34375 c -27.8631,42.9178 -55.7389,85.8271 -83.5938,128.74999 58.8854,0.1263 117.7709,0.28035 176.6562,0.40625 -30.7967,-43.40559 -61.564,-86.83219 -92.3437,-130.24999 z m -219.0625,149.15624 -0.4688,0.75 -0.3437,0.5 c -14.3283,21.7428 -28.6965,43.45975 -43,65.21875 26.7189,0.1152 53.4375,0.28995 80.1563,0.40625 -12.1474,-22.2736 -24.2148,-44.5912 -36.3438,-66.875 z m 379.625,57 -192.875,102 -26.2812,64.78125 -42.25,-54.4375 c 0,0 -105.8731,17.63661 -153.625,19.5 -47.7521,1.86339 -131.7188,-6.375 -131.7188,-6.375 l -45.5,53.875 -23,-72.625 -167.5625,-105.78125 c 0,0 57.8224,173.40316 131.4063,223.90625 73.5838,50.50309 173.6691,58.18352 260,53.5 86.3309,-4.68351 188.3768,-9.09399 259.0624,-65.6875 70.6856,-56.5935 132.3438,-212.65625 132.3438,-212.65625 z"
       inkscape:path-effect="#path-effect29010-4"
       id="path3480"
       d="m 1230.8647,258.6473 c 0,0 -2.6527,1.1904 0.9286,-5.65678 3.5812,-6.84719 2.2095,5.69145 8.4855,5.76029 3.138,0.0344 1.9207,-3.1174 0.3555,-7.127 -1.5652,-4.00959 -3.4826,-8.87696 -1.7052,-12.27365 1.7774,-3.39669 3.7159,1.47068 5.9657,7.19576 2.2498,5.72509 4.7978,12.30788 7.9357,12.34204 3.1379,0.0341 0.5959,-6.54859 -2.3317,-13.98252 -2.9276,-7.43392 -6.2508,-15.71903 -4.4864,-19.0896 1.7643,-3.37057 5.1234,4.91454 8.7449,14.05076 3.6216,9.13622 7.4868,19.12356 10.6246,19.15746 3.1378,0.0339 -0.7184,-9.95341 -5.0212,-20.78547 -4.3028,-10.83207 -9.0682,-22.50891 -7.3166,-25.85411 1.7515,-3.3452 6.567,8.33164 11.573,20.85319 5.0061,12.52154 10.1781,25.8878 13.3158,25.92142 3.1377,0.0336 -2.0224,-13.33259 -7.7131,-27.53734 -2.8453,-7.10237 -5.8189,-14.41438 -7.8747,-20.36587 -2.0558,-5.95149 -3.1896,-10.54245 -2.3201,-12.20272 1.739,-3.32055 8.0462,11.72274 14.4492,27.60451 3.2015,7.94089 6.4309,16.09139 9.2384,22.26085 2.8075,6.16945 5.202,10.35785 6.7708,10.37452 1.5688,0.0167 0.7438,-4.15503 -1.3616,-10.525 -2.1054,-6.36997 -5.5001,-14.93819 -9.0457,-23.71454 -3.5455,-8.77634 -7.2427,-17.7608 -9.8539,-24.96326 -2.6113,-7.20245 -4.1294,-12.62288 -3.2661,-14.27118 0.8634,-1.64829 3.2542,2.12386 6.4087,8.71028 3.1544,6.58642 7.0574,15.98711 10.9635,25.5959 3.9061,9.60879 7.8142,19.42569 11.1186,26.84452 3.3044,7.41883 6.0179,12.4396 7.5866,12.45614 1.5687,0.0165 0.4249,-4.98768 -2.1771,-12.60561 -2.602,-7.61792 -6.675,-17.84955 -10.9268,-28.28782 -4.2518,-10.43827 -8.6835,-21.08319 -11.8604,-29.5277 -3.1769,-8.44451 -5.0882,-14.68861 -4.231,-16.32525 0.8573,-1.63663 3.6369,2.97083 7.3588,10.80366 3.7218,7.83283 8.3658,18.89103 12.9826,30.15585 4.6167,11.26483 9.2049,22.73628 13.0051,31.39563 3.8002,8.65935 6.8298,14.50659 8.3984,14.52299 1.5687,0.0164 0.1089,-5.81444 -2.9887,-14.67149 -3.0975,-8.85706 -7.8502,-20.74033 -12.8143,-32.82882 -4.9641,-12.08849 -10.1409,-24.38218 -13.8934,-34.06008 -3.7526,-9.6779 -6.0658,-16.74 -5.2146,-18.3653 0.8513,-1.62529 4.0285,3.81152 8.3277,12.88198 4.2991,9.07045 9.6947,21.77455 15.028,34.68385 5.3334,12.9093 10.603,26.02379 14.898,35.91502 4.295,9.89123 7.6379,16.5592 9.2066,16.57546 1.5686,0.0163 -0.2046,-6.63545 -3.7967,-16.72304 -3.5921,-10.0876 -9.0258,-23.61108 -14.7081,-37.33837 -5.6824,-13.72729 -11.6146,-27.6584 -15.9527,-38.56124 -4.338,-10.90285 -7.0618,-18.77743 -6.2164,-20.39168 0.8454,-1.61425 4.4288,4.64608 9.3151,14.9456 4.8863,10.29953 11.0437,24.63824 17.0995,39.18075 6.0557,14.54251 12.0082,29.28882 16.797,40.40353 4.7888,11.1147 8.4424,18.59781 10.011,18.61392 1.5686,0.0161 -0.5152,-7.45087 -4.6009,-18.76063 -4.0857,-11.30976 -10.2018,-26.4623 -16.6082,-41.81728 -6.4064,-15.35499 -13.1044,-30.91242 -18.0376,-43.03199 -4.9332,-12.11957 -8.0758,-20.80126 -7.2363,-22.40476 0.8396,-1.60349 4.8376,5.4747 10.3206,16.99496 5.4831,11.52026 12.4125,27.48258 19.1965,43.64734 6.7839,16.16475 13.4205,32.53194 18.7022,44.86193 5.2817,12.32999 9.2435,20.62279 10.812,20.63875 1.5685,0.016 -1.1316,-9.0639 -6.0395,-22.39073 -4.9079,-13.32682 -12.0658,-30.90061 -19.2299,-47.87246 -7.164,-16.97185 -14.3283,-33.34177 -18.7945,-44.26088 -4.4663,-10.9191 -6.1802,-16.3874 -2.4403,-11.55599 3.74,4.83141 9.1463,15.13111 15.0941,27.86398 5.9477,12.73287 12.4217,27.89891 18.4611,42.46301 6.0394,14.56409 11.648,28.52624 16.1146,38.85131 4.4666,10.32508 7.8138,17.01309 9.3823,17.02891 1.5684,0.0158 0.2002,-5.57141 -2.4581,-13.33171 -2.6582,-7.76029 -6.6217,-17.69364 -10.1477,-26.37007 -3.5259,-8.67642 -6.6056,-16.09592 -7.3519,-18.82849 -0.7462,-2.73257 0.8739,-0.77822 6.5783,9.29304 5.7044,10.07126 9.946,18.19014 13.1281,24.70336 3.1822,6.51322 5.3037,11.42079 6.7299,15.06946 2.8525,7.29733 2.932,9.55903 2.932,9.55903 m 290.1066,-8.60121 c 0,0 -2.6706,1.15671 1.2463,-4.87849 3.9168,-6.0352 1.881,4.88518 8.1357,4.89895 6.2546,0.0138 -4.219,-10.93403 -0.3285,-16.92754 1.9453,-2.99676 3.6191,1.23857 5.5632,6.22485 1.9442,4.98628 4.1473,10.72352 7.2747,10.73057 3.1274,0.007 0.9294,-5.73016 -1.604,-12.21322 -2.5335,-6.48307 -5.4112,-13.712 -3.4789,-16.68839 1.9323,-2.9764 4.8417,4.25253 7.9791,12.22736 3.1374,7.97482 6.486,16.69554 9.6135,16.70273 3.1274,0.007 -0.2135,-8.7135 -3.944,-18.17512 -3.7305,-9.46161 -7.8645,-19.66415 -5.9449,-22.62064 1.9196,-2.9565 6.098,7.24604 10.4414,18.18952 4.3433,10.94349 8.8299,22.62792 11.9574,22.63522 3.1274,0.007 -1.3488,-11.67711 -6.2891,-24.0976 -2.4701,-6.21025 -5.0523,-12.60451 -6.7882,-17.81335 -1.7359,-5.20883 -2.6218,-9.23224 -1.6682,-10.70076 1.9071,-2.93704 7.3874,10.21953 12.9492,24.11221 2.781,6.94634 5.5858,14.07671 8.0742,19.47141 2.4884,5.39471 4.6683,9.05374 6.2321,9.05743 1.5637,0.004 0.9482,-3.65166 -0.8302,-9.22794 -1.7784,-5.57628 -4.7276,-13.0735 -7.8089,-20.75355 -3.0812,-7.68005 -6.2953,-15.54294 -8.5166,-21.85057 -2.2213,-6.30763 -3.4434,-11.05999 -2.496,-12.519 0.9475,-1.45901 3.1254,1.83435 5.9183,7.59531 2.7928,5.76097 6.1871,13.98953 9.5835,22.40094 3.3964,8.41141 6.7937,17.00565 9.7159,23.49798 2.9221,6.49232 5.3803,10.88272 6.9441,10.88643 1.5637,0.004 0.67,-4.38297 -1.5419,-11.05569 -2.212,-6.67272 -5.7536,-15.63147 -9.4521,-24.77189 -3.6985,-9.14043 -7.5548,-18.46254 -10.2711,-25.86196 -2.7162,-7.39942 -4.2828,-12.87616 -3.3414,-14.32587 0.9414,-1.4497 3.4593,2.57734 6.7485,9.43359 3.2891,6.85625 7.3317,16.54171 11.3496,26.40885 4.0178,9.86713 8.0096,19.91595 11.365,27.49891 3.3554,7.58296 6.0898,12.70007 7.6535,12.70379 1.5638,0.004 0.3941,-5.10966 -2.251,-12.87187 -2.6451,-7.7622 -6.7809,-18.17322 -11.1027,-28.76478 -4.3217,-10.59156 -8.8304,-21.36366 -12.051,-29.84802 -3.2207,-8.48436 -5.1399,-14.68097 -4.2044,-16.12157 0.9355,-1.4406 3.8015,3.31542 7.5964,11.26002 3.7948,7.9446 8.4958,19.07778 13.141,30.3915 4.6452,11.31372 9.2334,22.80798 13.0216,31.47473 3.7882,8.66676 6.7965,14.50601 8.3603,14.50973 1.5638,0.004 0.1202,-5.83182 -2.9576,-14.6767 -3.0777,-8.84487 -7.8097,-20.69908 -12.7606,-32.73271 -4.9509,-12.03364 -10.1219,-24.24669 -13.8562,-33.80926 -3.7342,-9.56258 -6.014,-16.47466 -5.0843,-17.90634 0.9297,-1.43169 4.1518,4.04871 8.4616,13.07486 4.3097,9.02616 9.6789,21.59806 14.9573,34.34939 5.2784,12.75133 10.4647,25.68208 14.6854,35.42592 4.2206,9.74385 7.5007,16.30078 9.0645,16.30447 1.5638,0.004 -0.1516,-6.54954 -3.6616,-16.4704 -3.51,-9.92087 -8.8399,-23.20936 -14.4257,-36.67618 -5.5859,-13.46683 -11.4291,-27.11199 -15.686,-37.74617 -4.2569,-10.63419 -6.905,-18.25742 -5.9811,-19.68037 0.924,-1.42296 4.5102,4.7773 9.3439,14.87834 4.8337,10.10104 10.8806,24.10286 16.798,38.283 5.9174,14.18014 11.7036,28.53861 16.3562,39.35296 4.6526,10.81435 8.2026,18.08457 9.7663,18.08823 1.5638,0.004 -0.4213,-7.26291 -4.3631,-18.25321 -3.9418,-10.9903 -9.8715,-25.70435 -16.098,-40.59565 -6.2265,-14.8913 -12.7513,-29.95986 -17.5399,-41.6592 -4.7886,-11.69934 -7.8127,-20.02945 -6.8943,-21.44386 0.9183,-1.41441 4.8762,5.50129 10.2428,16.67068 5.3665,11.16939 12.1008,26.59246 18.6628,42.19278 6.5619,15.60033 12.9499,31.37791 18.034,43.2563 5.0841,11.8784 8.9019,19.85762 10.4656,19.86122 1.5638,0.004 -1.0094,-8.81194 -5.7078,-21.65679 -4.6985,-12.84485 -11.5676,-29.71899 -18.387,-45.83257 -6.8194,-16.11358 -13.5804,-31.46659 -17.5768,-41.26918 -1.9982,-4.90129 -3.2979,-8.41497 -3.551,-9.94232 -0.2531,-1.52735 0.5433,-1.06835 2.7011,1.97571 4.3156,6.08813 9.7364,16.42842 15.3895,28.51451 5.6532,12.08608 11.5282,25.91795 16.9193,38.98925 5.3912,13.0713 10.3028,25.38203 14.2399,34.42582 3.9371,9.04379 6.9189,14.82063 8.4826,14.82417 1.5637,0.004 0.1399,-5.77504 -2.731,-14.10095 -2.8708,-8.32591 -7.2081,-19.19914 -11.3745,-29.38489 -4.1664,-10.18574 -8.1566,-19.684 -10.1298,-25.25997 -1.9733,-5.57596 -1.8996,-7.22963 2.0014,-1.7262 3.901,5.50344 7.6935,12.66054 11.2394,20.30073 3.5458,7.64019 6.8437,15.76347 9.8128,23.19925 5.9383,14.87156 10.5638,26.99313 13.6912,27.00005 1.5636,0.003 1.1849,-3.0286 -0.066,-7.26268 -1.2509,-4.23408 -3.3791,-9.67018 -5.2827,-14.47481 -1.9036,-4.80462 -3.5799,-8.97777 -3.8769,-10.68594 -0.2969,-1.70818 0.7961,-0.95138 4.381,4.1039 7.1698,10.11054 10.7045,17.19557 12.4694,21.75297 1.7649,4.55739 1.757,6.58714 1.757,6.58714 m -345.1628,85.4062 c 0,0 -0.877,-0.27882 -1.2429,-1.32183 -0.3659,-1.04301 -0.2174,-2.85019 1.7946,-5.90692 2.012,-3.05673 2.6768,-1.24608 3.6078,1.33261 0.931,2.5787 2.1001,5.92544 5.2302,5.94089 3.13,0.0155 1.9727,-3.33078 0.481,-7.42467 -1.4917,-4.0939 -3.3351,-8.93545 -1.3737,-11.9106 0.9807,-1.48758 1.9458,-1.02097 2.9357,0.51622 0.9898,1.53719 1.996,4.14497 3.0421,6.93973 1.0461,2.79476 2.1308,5.7765 3.3356,8.06163 1.2047,2.28512 2.5351,3.87363 4.1003,3.88191 3.1305,0.0166 0.9388,-6.32045 -1.7291,-13.38687 -1.334,-3.5332 -2.7841,-7.24876 -3.6744,-10.44363 -0.8902,-3.19488 -1.2173,-5.86908 -0.2602,-7.31957 0.9571,-1.45049 2.2567,-0.22678 3.7395,2.42523 1.4828,2.652 3.1329,6.7323 4.7837,10.99497 1.6507,4.26267 3.3001,8.70772 4.9088,12.08922 1.6087,3.38151 3.1886,5.69947 4.7539,5.70797 1.5653,0.009 1.5523,-2.30086 0.6602,-5.85823 -0.8921,-3.55737 -2.6752,-8.36275 -4.6208,-13.34626 -1.9456,-4.98351 -4.0554,-10.14515 -5.4694,-14.41507 -1.4141,-4.26992 -2.1238,-7.64811 -1.1889,-9.06471 0.9349,-1.41659 2.6002,0.54501 4.6113,4.28478 2.0112,3.73976 4.3427,9.25769 6.6205,14.95374 2.2778,5.69605 4.4993,11.57023 6.5108,16.02248 2.0115,4.45226 3.8333,7.4826 5.3986,7.49098 1.5652,0.008 1.3106,-3.01349 0.016,-7.63761 -1.2944,-4.62412 -3.6491,-10.85049 -6.2283,-17.25109 -2.5792,-6.40059 -5.3852,-12.97542 -7.3565,-18.29647 -1.9713,-5.32104 -3.0919,-9.38831 -2.1779,-10.77378 0.914,-1.38546 2.974,1.29634 5.5465,6.09887 2.5726,4.80253 5.6206,11.72579 8.5465,18.82322 2.9258,7.09742 5.7265,14.36903 8.1397,19.86825 2.4133,5.49923 4.4701,9.22608 6.0352,9.23401 1.5651,0.008 0.8916,-4.24802 -1.0168,-10.45264 -1.9085,-6.20462 -5.0923,-14.35793 -8.3632,-22.14474 -3.2709,-7.78681 -6.6213,-15.20711 -8.4326,-19.94574 -1.8112,-4.73863 -2.0278,-6.79558 0.9259,-3.85567 2.9538,2.9399 6.0676,7.93678 9.0431,13.77883 2.9755,5.84205 5.8035,12.52929 8.3338,18.84992 2.5303,6.32064 4.7667,12.27468 6.7461,16.65034 1.9793,4.37566 3.7186,7.17295 5.2835,7.18008 6.2592,0.0285 1.626,-4.26003 1.626,-4.26003 m -402.2326,81.68047 c 0,0 -15.5496,-29.06523 -25.0263,-65.06773 -2.3691,-9.00063 -0.4522,-6.40732 4.0286,2.96472 4.4808,9.37204 11.5087,25.52283 19.3131,43.63717 7.8044,18.11434 16.3804,38.19224 24.0706,55.41851 7.6902,17.22627 14.5015,31.60091 18.8734,38.30874 4.3719,6.70783 2.4958,0.33672 -2.6829,-12.90789 -5.1788,-13.24462 -13.6819,-33.36274 -22.5665,-54.14892 -8.8846,-20.78618 -18.1527,-42.24042 -24.6839,-58.15729 -6.5312,-15.91687 -10.3079,-26.29637 -8.1483,-24.93305 2.1595,1.36332 8.0359,12.97759 15.7462,29.83385 7.7103,16.85626 17.2411,38.95452 26.7632,61.2858 9.522,22.33128 19.0347,44.89559 26.8675,62.68398 7.8328,17.78838 13.9981,30.80083 16.8967,34.0284 2.8986,3.22757 -0.3569,-6.55732 -6.8077,-22.96506 -6.4508,-16.40773 -16.1185,-39.43831 -26.0053,-62.70213 -9.8868,-23.26382 -19.9934,-46.76088 -27.1146,-64.10157 -7.1213,-17.34069 -11.237,-28.525 -9.08,-27.16334 2.1569,1.36166 8.4132,13.88026 16.6446,32.00637 8.2314,18.12611 18.422,41.85973 28.5137,65.65143 10.0916,23.7917 20.0842,47.64148 28.1068,65.9999 8.0226,18.35843 14.0906,31.2255 16.4045,33.05179 2.3138,1.82629 -1.434,-9.21449 -8.3058,-26.71795 -6.8717,-17.50346 -16.8886,-41.4696 -27.058,-65.49403 -10.1693,-24.02443 -20.4913,-48.10714 -27.758,-65.84374 -7.2666,-17.7366 -11.4571,-29.12709 -9.3028,-27.76708 2.1543,1.36001 8.4828,14.08381 16.8059,32.4838 8.3231,18.4 18.6244,42.47619 28.7941,66.541 10.1698,24.06481 20.2081,48.11823 28.1991,66.47268 7.991,18.35445 13.9513,31.00993 16.0338,32.27884 2.0826,1.26892 -1.7907,-10.11764 -8.7231,-27.82635 -6.9323,-17.70871 -16.9442,-41.73956 -27.079,-65.75923 -10.1348,-24.01968 -20.3925,-48.02817 -27.6036,-65.69215 -7.211,-17.66398 -11.3548,-28.98346 -9.2031,-27.62509 2.1517,1.35836 8.4413,14.03345 16.7013,32.34553 8.2601,18.31207 18.4743,42.26114 28.5454,66.16747 10.071,23.90633 19.9992,47.76992 27.8791,65.91105 7.8799,18.14112 13.7282,30.55978 15.7061,31.57624 1.9779,1.01646 -1.8892,-10.38574 -8.7524,-27.976 -6.8633,-17.59026 -16.7423,-41.36858 -26.7282,-65.10437 -9.9859,-23.73579 -20.0784,-47.42904 -27.1612,-64.84916 -7.0828,-17.42013 -11.1359,-28.56713 -8.9868,-27.2104 2.1492,1.35672 8.3459,13.85882 16.4659,31.90084 8.1199,18.04201 18.1471,41.62394 28.0257,65.14031 9.8786,23.51638 19.6086,46.96721 27.3207,64.74703 7.712,17.77981 13.4223,29.88862 15.3241,30.72095 1.9018,0.83233 -1.904,-10.44414 -8.6299,-27.74235 -6.726,-17.2982 -16.3909,-40.61814 -26.148,-63.87272 -9.7571,-23.25459 -19.6063,-46.44384 -26.5024,-63.48066 -6.8961,-17.03683 -10.82,-27.92123 -8.6735,-26.56614 2.1466,1.35509 8.2119,13.59354 16.136,31.23211 7.9241,17.63857 17.6919,40.67727 27.3094,63.63286 9.6175,22.95559 19.085,45.82809 26.5863,63.13425 7.5014,17.30616 13.0523,29.04599 14.8956,29.73626 1.8433,0.69027 -1.8621,-10.35929 -8.401,-27.23732 -6.5389,-16.87802 -15.9288,-39.58451 -25.3973,-62.2081 -9.4685,-22.62359 -19.0153,-45.16428 -25.6805,-61.71071 -6.6651,-16.54643 -10.4305,-27.09859 -8.2866,-25.74513 2.144,1.35346 8.0484,13.25837 15.7343,30.39042 7.6859,17.13204 17.1389,39.49124 26.4428,61.75328 9.3038,22.26205 18.4586,44.42695 25.7156,61.17041 7.257,16.74346 12.6309,28.06548 14.4274,28.64177 1.7966,0.57628 -1.7791,-10.16945 -8.0925,-26.52772 -6.3134,-16.35827 -15.381,-38.32908 -24.5139,-60.20294 -9.133,-21.87387 -18.3311,-43.65079 -24.7305,-59.62128 -6.3994,-15.9705 -9.9832,-26.13456 -7.8418,-24.78272 2.1413,1.35184 7.8618,12.86722 15.276,29.41002 7.4141,16.5428 16.5086,38.11301 25.4568,59.57451 8.9482,21.4615 17.7504,42.81429 24.7356,58.92224 6.9852,16.10795 12.1672,26.97107 13.9252,27.45322 1.7581,0.48215 -1.6646,-9.89882 -7.7219,-25.65708 -6.0572,-15.75827 -14.7641,-36.89384 -23.5236,-57.9209 -8.7596,-21.02706 -17.5715,-41.94561 -23.677,-57.26983 -6.1056,-15.32423 -9.4892,-25.05414 -7.3503,-23.70391 4.2776,2.70045 11.4451,17.67477 17.4916,31.97398 6.0465,14.29921 10.9765,27.92331 10.9765,27.92331 m 44.2854,107.38202 c 0,0 -9.5295,-21.57661 -18.6551,-43.77232 -9.1256,-22.19571 -17.8537,-45.01054 -15.7623,-47.48698 2.0915,-2.47644 11.711,20.55741 21.5206,44.394 9.8096,23.8366 19.7993,48.47595 23.2216,49.21052 3.4224,0.73456 -6.5576,-23.90478 -17.0281,-49.34626 -10.4705,-25.44148 -21.4418,-51.68509 -19.3524,-54.15905 2.0894,-2.47396 13.0821,23.76856 24.211,50.78138 11.1289,27.01282 22.383,54.79593 25.7535,55.40316 3.3706,0.60723 -7.8737,-27.17588 -19.6383,-55.72867 -5.8822,-14.2764 -11.8886,-28.74521 -16.1736,-39.95386 -4.2851,-11.20865 -6.8429,-19.15714 -5.7993,-20.39288 2.0873,-2.47148 14.4068,26.85011 26.8069,56.91347 6.2001,15.03167 12.4266,30.24879 17.5077,41.76993 5.0811,11.52114 9.0241,19.34631 10.6867,19.59409 1.6626,0.24778 -0.617,-7.32961 -4.9409,-18.91222 -4.3239,-11.58261 -10.7,-27.17046 -17.2069,-42.94358 -6.5069,-15.77313 -13.145,-31.73154 -17.9078,-44.0553 -4.7628,-12.32376 -7.6433,-21.01286 -6.6007,-22.24736 1.0426,-1.23451 4.9688,6.21991 10.337,18.10834 5.3683,11.88843 12.1689,28.21087 18.9837,44.71241 6.8147,16.50153 13.6431,33.18217 19.1653,45.787 5.5222,12.60482 9.7471,21.13383 11.3896,21.33212 1.6426,0.19828 -0.939,-8.13244 -5.7117,-20.81714 -4.7728,-12.68471 -11.7459,-29.72339 -18.8578,-46.94101 -7.1118,-17.21763 -14.3628,-34.6142 -19.5898,-48.01468 -5.2269,-13.40049 -8.4213,-22.80488 -7.3797,-24.03815 1.0416,-1.23328 5.2808,6.93769 11.1111,19.8975 5.8302,12.9598 13.2401,30.70843 20.651,48.63047 7.411,17.92204 14.8225,36.01749 20.7721,49.67094 5.9496,13.65345 10.4478,22.86489 12.0724,23.0189 1.6246,0.15402 -1.278,-8.97709 -6.5153,-22.80055 -5.2373,-13.82346 -12.8202,-32.33927 -20.5204,-50.95465 -7.7002,-18.61538 -15.5177,-37.33033 -21.1037,-51.55207 -5.586,-14.22174 -8.9299,-23.95027 -7.6396,-24.59282 1.2903,-0.64254 5.9263,8.44332 12.203,22.44068 6.2768,13.99736 14.1821,32.90621 22.0472,51.90964 7.865,19.00344 15.6895,38.10145 21.9333,52.47714 6.2437,14.37568 10.9184,24.02904 12.5269,24.14316 1.6084,0.11411 -1.4173,-9.32545 -6.8132,-23.54016 -5.396,-14.21471 -13.1739,-33.20456 -21.0297,-52.19104 -7.8559,-18.98647 -15.7897,-37.96957 -21.3698,-52.17075 -5.5802,-14.20118 -8.7949,-23.62046 -7.1728,-23.4793 1.6221,0.14116 6.4585,9.70149 12.8462,23.96746 6.3876,14.26596 14.3151,33.23755 22.1603,52.20124 7.8452,18.96369 15.6081,37.91947 21.7923,52.15381 6.1842,14.23433 10.8012,23.74723 12.3951,23.82514 1.5938,0.0779 -1.4292,-9.3571 -6.813,-23.54536 -5.3838,-14.18826 -13.14,-33.12976 -20.9724,-52.06483 -7.8325,-18.93506 -15.7412,-37.86369 -21.3032,-52.02619 -5.562,-14.16251 -8.7657,-23.5589 -7.1486,-23.42948 1.6172,0.12942 6.4376,9.65513 12.8035,23.87371 6.366,14.21857 14.2661,33.13001 22.0833,52.03088 7.8172,18.90087 15.5515,37.79118 21.711,51.96749 6.1595,14.1763 10.7555,23.63862 12.3359,23.6835 1.5805,0.0449 -1.4349,-9.37253 -6.7998,-23.51653 -5.3648,-14.144 -13.0906,-33.01459 -20.8908,-51.87604 -7.8003,-18.86146 -15.6751,-37.71378 -21.2123,-51.82126 -5.5373,-14.10748 -8.7254,-23.47011 -7.1132,-23.35219 1.6123,0.11793 6.4123,9.59841 12.7501,23.75371 6.3377,14.1553 14.202,32.98542 21.9831,51.80262 7.781,18.81721 15.4789,37.62149 21.6081,51.72513 6.1292,14.10364 10.7009,23.50663 12.2692,23.52124 1.5682,0.0146 -1.4353,-9.37375 -6.7752,-23.45788 -5.34,-14.08414 -13.0277,-32.86406 -20.7883,-51.63259 -7.7605,-18.76853 -15.5939,-37.52567 -21.1007,-51.56425 -5.5069,-14.03858 -8.6759,-23.3586 -7.0688,-23.25289 1.6071,0.10571 6.3828,9.53138 12.6868,23.60958 6.304,14.0782 14.1252,32.80894 21.8633,51.52481 7.738,18.71587 15.3928,37.41686 21.4871,51.43558 6.0943,14.01871 10.6393,23.35514 12.1962,23.34187 1.557,-0.0133 -1.4309,-9.3629 -6.7411,-23.37415 -5.3101,-14.01124 -12.9536,-32.68408 -20.6682,-51.34375 -7.7147,-18.65967 -15.5005,-37.30617 -20.9725,-51.26472 -5.472,-13.95854 -8.619,-23.22914 -7.0177,-23.13702 1.6013,0.0921 6.3493,9.45479 12.615,23.44452 6.2658,13.98973 14.0382,32.60654 21.7278,51.20695 7.6895,18.60042 15.2962,37.18444 21.3521,51.10861 6.0559,13.92417 10.572,23.18848 12.1186,23.14948 1.5465,-0.039 -1.4231,-9.34225 -6.6996,-23.27039 -5.2765,-13.92814 -12.8709,-32.48119 -20.535,-51.0198 -7.6641,-18.53861 -15.3978,-37.06279 -20.8318,-50.93321 -5.4341,-13.87041 -8.5573,-23.08706 -6.9627,-23.01061 1.5947,0.0764 6.3124,9.36949 12.5365,23.26213 6.2241,13.89263 13.9437,32.38485 21.5809,50.85967 7.6373,18.47481 15.1924,36.93221 21.2074,50.7552 6.0151,13.82298 10.5011,23.01156 12.0381,22.94872 1.5369,-0.0629 -1.4123,-9.31415 -6.6526,-23.15214 -5.2404,-13.838 -12.7827,-32.26269 -20.3933,-50.67231 -7.6106,-18.40962 -15.2895,-36.80417 -20.6839,-50.58189 -5.3944,-13.77772 -8.4934,-22.93861 -6.9066,-22.8809 1.5867,0.0577 6.2721,9.27592 12.4523,23.06563 6.1803,13.78971 13.8447,32.15092 21.4279,50.49463 7.5831,18.34372 15.085,36.66993 21.0587,50.38966 5.9738,13.71972 10.4301,22.83295 11.9592,22.75068 1.5292,-0.0823 -1.3983,-9.27757 -6.6014,-23.02213 -5.2031,-13.74455 -12.6926,-32.03834 -20.2496,-50.31755 -7.5569,-18.27921 -15.1813,-36.54384 -20.5368,-50.23007 -5.3556,-13.68623 -8.4315,-22.79407 -6.8547,-22.7597 1.5769,0.0344 6.2297,9.17664 12.3673,22.86549 6.1376,13.68885 13.7495,31.92429 21.2822,50.14499 7.5327,18.2207 14.9863,36.42667 20.9244,50.0566 5.938,13.62993 10.3713,22.68381 11.8999,22.60033 1.5286,-0.0835 -1.3762,-9.22055 -6.5451,-22.87896 -5.169,-13.65842 -12.6127,-31.83818 -20.1245,-50.00704 -7.5119,-18.16885 -15.0917,-36.32681 -20.4171,-49.94161 -5.3254,-13.6148 -8.3858,-22.68646 -6.8219,-22.68271 1.5639,0.004 6.1883,9.07926 12.291,22.68493 6.1027,13.60566 13.6733,31.74147 21.1669,49.86581 7.4936,18.12433 14.9101,36.2372 20.8206,49.79696 5.9105,13.55976 10.3255,22.56643 11.8523,22.47838 1.5268,-0.0881 -1.3615,-9.18225 -6.5054,-22.77648 -5.1439,-13.59423 -12.5537,-31.68849 -20.033,-49.7767 -7.4793,-18.08821 -15.028,-36.17035 -20.3348,-49.74033 -5.3069,-13.56998 -8.3614,-22.62781 -6.8158,-22.66736 1.5456,-0.0396 6.1459,8.97881 12.2232,22.5226 6.0773,13.54379 13.621,31.61301 21.09,49.67513 7.4689,18.06213 14.8632,36.11717 20.7568,49.63261 5.8936,13.51544 10.297,22.49128 11.8204,22.39502 1.5235,-0.0963 -1.3569,-9.16865 -6.4883,-22.72913 -5.1313,-13.56049 -12.5239,-31.60907 -19.9881,-49.65771 -7.4642,-18.04865 -15.0001,-36.09735 -20.3039,-49.65808 -5.3038,-13.56073 -8.3652,-22.63348 -6.8438,-22.73023 1.5214,-0.0967 6.1046,8.87937 12.1696,22.39122 6.0651,13.51184 13.6014,31.55942 21.0656,49.60561 7.4641,18.04619 14.856,36.09099 20.7472,49.59728 5.8912,13.50628 10.2923,22.47405 11.811,22.36618 1.5187,-0.10786 -1.3642,-9.18408 -6.4975,-22.74599 -5.1334,-13.56192 -12.5275,-31.60953 -19.9945,-49.66019 -7.467,-18.05066 -15.0069,-36.10438 -20.3178,-49.6785 -5.3109,-13.57412 -8.3825,-22.66864 -6.8762,-22.80092 1.5064,-0.13228 6.0849,8.83006 12.1509,22.34031 6.0661,13.51026 13.6092,31.56842 21.081,49.62777 7.4717,18.05936 14.8722,36.11991 20.7686,49.63495 5.8963,13.51504 10.2992,22.48456 11.8119,22.36185 1.5127,-0.12271 -1.3779,-9.2152 -6.52,-22.79461 -5.1422,-13.57941 -12.5463,-31.64573 -20.0238,-49.71607 -7.4775,-18.07035 -15.0285,-36.14473 -20.3503,-49.74026 -5.3218,-13.59553 -8.4041,-22.71221 -6.9073,-22.86717 1.4968,-0.15495 6.0763,8.80687 12.149,22.32798 6.0726,13.5211 13.6276,31.60149 21.1114,49.68367 7.4838,18.08217 14.8963,36.16614 20.7999,49.69439 5.9036,13.52826 10.3088,22.50081 11.8142,22.36015 1.5055,-0.14065 -1.3948,-9.254 -6.5479,-22.85561 -5.1532,-13.6016 -12.5695,-31.69146 -20.0594,-49.78513 -7.4899,-18.09367 -15.0534,-36.19115 -20.3863,-49.808 -5.3329,-13.61685 -8.4251,-22.75306 -6.9352,-22.9242 1.4899,-0.17113 6.0725,8.79404 12.1528,22.32796 6.0803,13.53392 13.6476,31.63658 21.1432,49.74044 7.4957,18.10386 14.9197,36.2089 20.8295,49.74758 5.9099,13.53867 10.3164,22.51098 11.8133,22.34935 1.4969,-0.16162 -1.4131,-9.29564 -6.5766,-22.91723 -5.1635,-13.62159 -12.5908,-31.73074 -20.0913,-49.84264 -7.5005,-18.11189 -15.0742,-36.22652 -20.4162,-49.85905 -5.3419,-13.63254 -8.4417,-22.78298 -6.9571,-22.96649 1.4846,-0.18352 6.0696,8.7835 12.1558,22.32566 6.0862,13.54215 13.663,31.65945 21.1673,49.77649 7.5043,18.11703 14.9362,36.23381 20.8495,49.77494 5.9132,13.54113 10.3185,22.50661 11.8057,22.32104 1.4872,-0.18556 -1.4314,-9.33667 -6.6026,-22.97104 -5.1713,-13.63437 -12.6054,-31.75201 -20.1122,-49.87063 -7.5067,-18.11862 -15.0859,-36.23822 -20.4329,-49.87654 -5.3469,-13.63831 -8.4513,-22.79534 -6.9709,-22.98879 1.4804,-0.19346 6.0657,8.7702 12.1541,22.31123 6.0883,13.54103 13.669,31.65943 21.1765,49.77545 7.5074,18.11603 14.9416,36.22967 20.8536,49.7612 5.912,13.53152 10.3125,22.48092 11.7888,22.26845 1.4762,-0.21247 -1.4486,-9.37439 -6.6234,-23.01035 -5.1747,-13.63596 -12.6095,-31.74598 -20.1159,-49.85465 -7.5063,-18.10868 -15.0841,-36.21601 -20.4306,-49.84661 -5.3465,-13.6306 -8.4513,-22.78447 -6.9745,-22.98621 1.4768,-0.20175 6.0591,8.75047 12.1442,22.27713 6.0852,13.52666 13.6624,31.62777 21.1654,49.72379 7.5031,18.09603 14.9318,36.18698 20.8366,49.69334 5.9047,13.50636 10.2961,22.42813 11.7602,22.18578 1.4641,-0.24235 -1.4639,-9.40649 -6.6365,-23.02944 -5.1726,-13.62295 -12.6001,-31.7047 -20.0976,-49.78227 -7.4975,-18.07757 -15.0651,-36.15095 -20.4042,-49.75716 -5.3391,-13.60621 -8.4396,-22.74524 -6.9658,-22.95411 1.4737,-0.20887 6.0485,8.72139 12.1236,22.21707 6.075,13.49567 13.6395,31.55677 21.1288,49.60956 7.4893,18.0528 14.9034,36.0973 20.7935,49.5598 5.8902,13.46249 10.2672,22.34298 11.7179,22.06774 1.4507,-0.27524 -1.4764,-9.43098 -6.64,-23.02322 -5.1637,-13.59224 -12.5741,-31.62098 -20.0526,-49.64221 -7.4786,-18.02124 -15.0254,-36.03496 -20.3491,-49.59717 -5.3236,-13.56221 -8.414,-22.6729 -6.943,-22.88807 1.4711,-0.21517 6.0331,8.68045 12.0899,22.12546 6.0567,13.44502 13.5976,31.43942 21.0622,49.42183 7.4647,17.9824 14.8531,35.9528 20.7202,49.34979 5.8672,13.397 10.2238,22.22059 11.6598,21.90939 1.436,-0.31121 -1.4854,-9.44602 -6.6321,-22.98699 -5.1468,-13.54098 -12.5287,-31.48811 -19.9767,-49.42396 -7.4479,-17.93585 -14.9618,-35.86041 -20.2607,-49.35624 -5.2989,-13.49583 -8.3727,-22.56292 -6.9042,-22.78383 1.4686,-0.22091 6.0116,8.62537 12.0407,21.99716 6.0291,13.37179 13.5338,31.26909 20.9613,49.15021 7.4275,17.88111 14.7778,35.74605 20.6124,49.05312 5.8346,13.30707 10.1639,22.05628 11.5839,21.70593 1.42,-0.35035 -1.4903,-9.44991 -6.611,-22.91633 -5.1206,-13.46641 -12.4614,-31.29968 -19.8655,-49.11744 -7.4041,-17.81777 -14.8714,-35.62003 -20.1351,-49.02444 -5.2637,-13.40441 -8.3138,-22.41096 -6.8476,-22.63729 1.4663,-0.22634 5.9832,8.55398 11.9741,21.82722 5.9908,13.27324 13.4453,31.03941 20.8217,48.78477 7.3764,17.74536 14.6747,35.46991 20.466,48.65992 5.7912,13.19002 10.0859,21.8455 11.4885,21.45271 1.4026,-0.3928 -1.4905,-9.44106 -6.5749,-22.80699 -5.0845,-13.36593 -12.3698,-31.04953 -19.7154,-48.71301 -7.3455,-17.66348 -14.7511,-35.30683 -19.9681,-48.59227 -5.2169,-13.28543 -8.2354,-22.21294 -6.7716,-22.44473 1.4639,-0.23179 5.9468,8.46404 11.8878,21.61075 5.9409,13.14671 13.3297,30.7443 20.6395,48.31602 7.3099,17.57173 14.541,35.1176 20.2772,48.16086 5.7362,13.04326 9.9878,21.58392 11.3716,21.14524 1.3837,-0.43868 -1.4853,-9.41793 -6.5223,-22.65496 -5.037,-13.23703 -12.2513,-30.73183 -19.5222,-48.20159 -7.271,-17.46977 -14.5984,-34.91451 -19.7562,-48.05141 -5.1578,-13.1369 -8.1365,-21.96596 -6.6755,-22.20439 1.461,-0.23842 5.9012,8.35233 11.7794,21.34207 5.8783,12.98973 13.1845,30.37845 20.4113,47.73594 7.2269,17.35749 14.3743,34.68377 20.0429,47.54861 5.6686,12.86485 9.8684,21.26828 11.2318,20.78008 1.3633,-0.4882 -1.2958,-8.93896 -5.8804,-21.06462 -4.5846,-12.12567 -11.1027,-27.92624 -17.4181,-43.11406 -12.6308,-30.37564 -24.455,-58.30028 -17.6037,-49.47267 6.8513,8.82762 18.595,36.75275 29.1351,62.2002 10.5401,25.44745 19.904,48.41722 22.5866,47.3341 2.6826,-1.08312 -5.6904,-21.59163 -14.1759,-42.11162 -8.4855,-20.52 -17.0835,-41.05147 -14.4318,-42.18051 2.6517,-1.12903 11.2559,19.40297 19.7451,39.91772 8.4893,20.51476 16.8638,41.01226 19.4989,39.81424 2.635,-1.19802 -6.0162,-22.36098 -15.0531,-44.16992 -9.037,-21.80894 -18.4661,-44.26386 -16.9318,-48.04581 1.5343,-3.78195 10.989,18.67354 20.5674,41.74409 9.5783,23.07055 19.2722,46.75617 21.8558,45.43448 2.5837,-1.32169 -7.1145,-25.00731 -17.2147,-49.30578 -10.1002,-24.29847 -20.6092,-49.2098 -19.0785,-52.98292 1.5308,-3.77312 12.0679,21.13882 22.6847,46.63034 10.6168,25.49152 21.305,51.56263 23.8332,50.10783 2.5281,-1.45479 -8.166,-27.52589 -19.2785,-54.17438 -11.1126,-26.64849 -22.6508,-53.87437 -21.1236,-57.63872 1.5272,-3.76435 13.0958,23.46219 24.698,51.2303 11.6022,27.7681 23.2296,56.07777 25.6977,54.47966 2.4681,-1.5981 -9.2176,-30.02989 -21.2877,-58.87894 -6.0351,-14.42452 -12.1592,-28.95336 -16.5678,-40.28446 -4.4087,-11.33109 -7.0964,-19.46445 -6.2304,-21.09801 1.7321,-3.26713 14.22,25.9999 26.6452,55.64558 6.2126,14.82284 12.416,29.74034 17.3566,40.73307 4.9406,10.99273 8.6264,18.06068 9.828,17.18443 1.2016,-0.87626 -1.2353,-8.70054 -5.52,-19.9862 -4.2847,-11.28566 -10.4234,-26.0327 -16.599,-40.75445 -6.1755,-14.72174 -12.3878,-29.41821 -16.7471,-40.60273 -4.3592,-11.18452 -6.8592,-18.85709 -5.5848,-19.53106 1.2745,-0.67398 5.0507,6.32561 10.0388,17.14374 4.9882,10.81813 11.1807,25.4548 17.3107,40.05499 12.2601,29.20037 24.242,58.25482 26.5696,56.32317 1.1638,-0.96583 -1.2486,-8.71235 -5.4744,-19.83097 -4.2257,-11.11862 -10.2707,-25.60934 -16.3461,-40.06355 -12.1507,-28.90843 -24.4527,-57.67082 -21.9046,-59.01836 1.2741,-0.67378 4.9923,6.17939 9.8921,16.77129 4.8998,10.5919 10.974,24.92253 16.9821,39.20368 12.0164,28.56231 23.7424,56.92669 25.9821,54.78748 2.2397,-2.13921 -9.5033,-30.5036 -21.367,-58.66997 -11.8638,-28.16637 -23.8457,-56.13472 -21.2983,-57.48186 2.5473,-1.34715 14.5366,26.61953 26.2253,54.34396 11.6888,27.72443 23.0807,55.20661 25.2446,52.89048 2.1638,-2.31614 -9.2461,-29.79832 -20.745,-57.03815 -11.4989,-27.23984 -23.0836,-54.23732 -20.537,-55.58407 2.5466,-1.34674 14.1382,25.64943 25.4268,52.36497 11.2886,26.71553 22.2782,53.15043 24.3755,50.68113 2.0974,-2.4693 -8.9109,-28.9042 -19.9769,-55.05835 -11.066,-26.15416 -22.1864,-52.02758 -19.6405,-53.37392 2.5458,-1.34634 13.6727,24.52602 24.4972,50.08407 10.8246,25.55804 21.3513,50.80176 23.3894,48.19812 2.038,-2.60363 -8.5076,-27.84735 -19.0805,-52.77665 -10.5729,-24.9293 -21.1694,-49.54417 -18.6243,-50.89011 2.5451,-1.34595 13.1476,23.26807 23.4513,47.53788 10.3036,24.26981 20.3129,48.1954 22.2974,45.47261 1.9846,-2.72279 -8.0434,-26.64839 -18.0691,-50.22967 -10.0257,-23.58128 -20.0451,-46.81825 -17.5008,-48.1638 2.5444,-1.34554 12.5694,21.89073 22.3006,44.756 9.7312,22.86527 19.1734,45.35955 21.1093,42.53002 1.9358,-2.82953 -7.5248,-25.3238 -16.9541,-47.44698 -9.4293,-22.12319 -18.8235,-43.87527 -16.2799,-45.22042 2.5435,-1.34514 11.9429,20.40636 21.0548,41.76265 9.1119,21.35629 17.9411,42.31737 19.8321,39.39137 1.8911,-2.926 -6.956,-23.88707 -15.7439,-44.45284 -8.788,-20.56576 -17.5131,-40.73622 -14.9702,-42.08096 2.5428,-1.34475 11.2725,18.82522 19.7219,38.57789 8.4493,19.75267 16.623,39.08804 18.4724,36.07412 1.8493,-3.01393 -6.3413,-22.34931 -14.4462,-41.26729 -8.1049,-18.91798 -16.1204,-37.41856 -13.5783,-38.76291 2.542,-1.34435 10.5617,17.15583 18.3083,35.21841 7.7466,18.06259 15.2247,35.68758 17.035,32.59284 1.8104,-3.09474 -5.6836,-20.71972 -13.0665,-37.90701 -7.3829,-17.1873 -14.6514,-33.93689 -12.1101,-35.28084 2.5414,-1.34395 9.8135,15.40531 16.8197,31.69815 7.0061,16.29284 13.7506,32.12925 15.5241,28.95962 1.7734,-3.16963 -4.9858,-19.00605 -11.61,-34.38595 -6.6243,-15.3799 -13.1106,-30.30328 -10.57,-31.64683 2.5406,-1.34355 9.0301,13.57956 15.2601,28.02863 6.2301,14.44907 12.2047,28.4241 13.9429,25.18441 1.7383,-3.2397 -4.2496,-17.21473 -10.0804,-30.71563 -5.8307,-13.5009 -11.5016,-26.52767 -8.9618,-27.87083 2.5398,-1.34315 8.2135,11.68341 13.6333,24.21927 5.4199,12.53586 10.5896,24.58103 12.294,21.27509 1.7044,-3.30594 -3.4771,-15.35111 -8.4809,-26.90548 -5.0038,-11.55437 -9.8277,-22.61795 -7.2887,-23.96071 2.5391,-1.34275 7.3653,9.72068 11.9421,20.27746 4.5768,10.55677 8.9075,20.60689 10.5788,17.23747 1.6714,-3.36941 -2.6693,-13.41952 -6.8137,-22.96287 -4.1444,-9.54335 -8.0907,-18.57994 -5.5524,-19.9223 2.5383,-1.34236 6.4865,7.69418 10.1881,16.20847 3.7016,8.51428 7.1594,16.50633 8.798,13.07497 1.6387,-3.43135 -1.8272,-11.42339 -5.0802,-18.89309 -3.253,-7.46969 -6.2917,-14.41704 -3.7541,-15.75901 2.5375,-1.34196 5.5777,5.60547 8.3721,12.01502 2.7944,6.40955 5.3454,12.28121 6.9509,8.7877 3.2111,-6.98701 -10.2479,-23.48665 -5.1743,-26.16979 5.0737,-2.68314 8.3862,19.1843 11.5274,12.06601 3.1411,-7.11829 -6.4537,-14.74915 -1.3816,-17.4315 5.0721,-2.68235 4.5256,10.31939 7.5843,3.04294 3.0587,-7.27644 0.023,-7.06607 0.023,-7.06607"
       style="fill:none;stroke:#000000;stroke-width:0.99999994px;stroke-linecap:butt;stroke-linejoin:miter;stroke-opacity:1;display:inline"
       inkscape:connector-curvature="0" />
  </g>
</svg>
