<?xml version="1.0" encoding="UTF-8" standalone="no"?>
<!-- Created with Inkscape (http://www.inkscape.org/) -->

<svg
   xmlns:dc="http://purl.org/dc/elements/1.1/"
   xmlns:cc="http://creativecommons.org/ns#"
   xmlns:rdf="http://www.w3.org/1999/02/22-rdf-syntax-ns#"
   xmlns:svg="http://www.w3.org/2000/svg"
   xmlns="http://www.w3.org/2000/svg"
   xmlns:sodipodi="http://sodipodi.sourceforge.net/DTD/sodipodi-0.dtd"
   xmlns:inkscape="http://www.inkscape.org/namespaces/inkscape"
   width="3200"
   height="800"
   id="svg27345"
   version="1.1"
   inkscape:version="0.48.5 r10040"
   sodipodi:docname="jackolantern4.svg">
  <sodipodi:namedview
     id="base"
     pagecolor="#ffffff"
     bordercolor="#666666"
     borderopacity="1.0"
     inkscape:pageopacity="0.0"
     inkscape:pageshadow="2"
     inkscape:zoom="0.2884375"
     inkscape:cx="1600"
     inkscape:cy="400"
     inkscape:document-units="px"
     inkscape:current-layer="layer1"
     showgrid="false"
     inkscape:window-width="1436"
     inkscape:window-height="855"
     inkscape:window-x="0"
     inkscape:window-y="0"
     inkscape:window-maximized="1" />
  <defs
     id="defs27347">
    <inkscape:path-effect
       back_thickness="0.25"
       front_thickness="1"
       stroke_width_bottom="1"
       stroke_width_top="1"
       fat_output="false"
       bottom_smth_variation="0;1"
       top_smth_variation="0;1"
       scale_tb="2"
       scale_tf="2"
       scale_bb="2"
       scale_bf="2"
       top_tgt_variation="0;1"
       bottom_tgt_variation="0;1"
       top_edge_variation="0;1"
       bottom_edge_variation="0;1"
       bender="1556.2948,632.991 , 5,0"
       do_bend="true"
       growth="0"
       dist_rdm="0;1"
       direction="1556.2948,627.991 , 23.491025,0"
       is_visible="true"
       id="path-effect12466"
       effect="rough_hatches" />
    <inkscape:path-effect
       back_thickness="0.25"
       front_thickness="1"
       stroke_width_bottom="1"
       stroke_width_top="1"
       fat_output="false"
       bottom_smth_variation="0;1"
       top_smth_variation="0;1"
       scale_tb="2"
       scale_tf="2"
       scale_bb="2"
       scale_bf="2"
       top_tgt_variation="0;1"
       bottom_tgt_variation="0;1"
       top_edge_variation="0;1"
       bottom_edge_variation="0;1"
       bender="1544.6875,634.74717 , 5,0"
       do_bend="true"
       growth="0"
       dist_rdm="0;1"
       direction="1544.6875,629.74717 , 19.501848,0"
       is_visible="true"
       id="path-effect3100"
       effect="rough_hatches" />
    <inkscape:path-effect
       effect="rough_hatches"
       id="path-effect3070"
       is_visible="true"
       direction="1542.7188,608.88122 , 26.788776,-3.1724596e-08"
       dist_rdm="0;1"
       growth="0"
       do_bend="true"
       bender="1542.7188,613.88122 , 5,0"
       bottom_edge_variation="0;1"
       top_edge_variation="0;1"
       bottom_tgt_variation="0;1"
       top_tgt_variation="0;1"
       scale_bf="2"
       scale_bb="2"
       scale_tf="2"
       scale_tb="2"
       top_smth_variation="0;1"
       bottom_smth_variation="0;1"
       fat_output="false"
       stroke_width_top="1"
       stroke_width_bottom="1"
       front_thickness="1"
       back_thickness="0.25" />
    <inkscape:perspective
       id="perspective27353"
       inkscape:persp3d-origin="372.04724 : 350.78739 : 1"
       inkscape:vp_z="744.09448 : 526.18109 : 1"
       inkscape:vp_y="0 : 1000 : 0"
       inkscape:vp_x="0 : 526.18109 : 1"
       sodipodi:type="inkscape:persp3d" />
    <inkscape:path-effect
       back_thickness="0.25"
       front_thickness="1"
       stroke_width_bottom="1"
       stroke_width_top="1"
       fat_output="false"
       bottom_smth_variation="0;1"
       top_smth_variation="0;1"
       scale_tb="2"
       scale_tf="2"
       scale_bb="2"
       scale_bf="2"
       top_tgt_variation="0;1"
       bottom_tgt_variation="0;1"
       top_edge_variation="0;1"
       bottom_edge_variation="0;1"
       bender="1556.2948,632.991 , 5,0"
       do_bend="true"
       growth="0"
       dist_rdm="0;1"
       direction="1556.2948,627.991 , 23.491025,0"
       is_visible="true"
       id="path-effect12466-8"
       effect="rough_hatches" />
  </defs>
  <metadata
     id="metadata27350">
    <rdf:RDF>
      <cc:Work
         rdf:about="">
        <dc:format>image/svg+xml</dc:format>
        <dc:type
           rdf:resource="http://purl.org/dc/dcmitype/StillImage" />
        <dc:title />
      </cc:Work>
    </rdf:RDF>
  </metadata>
  <g
     transform="translate(0,-252.36218)"
     id="layer1"
     inkscape:groupmode="layer"
     inkscape:label="Layer 1">
    <path
       inkscape:original-d="m 1300.3841,374.3479 c -23.8399,45.5437 -47.7107,91.0714 -71.5313,136.625 50.4787,0.5574 100.9582,1.0902 151.4375,1.5938 -26.4052,-46.5452 -52.7473,-93.1266 -79.125,-139.6875 l -0.4227,0.7946 z m 446.5937,0.8125 c -27.863,42.9178 -55.7388,85.8271 -83.5937,128.75 58.8854,0.1263 117.7708,0.2804 176.6562,0.4063 -30.7967,-43.4056 -61.5641,-86.8322 -92.3438,-130.25 l -0.4942,0.7521 z m -219.1563,149.3125 c -14.3283,21.7428 -28.6965,43.4598 -43,65.2188 26.7189,0.1152 53.4375,0.2899 80.1563,0.4062 -12.1473,-22.2736 -24.2147,-44.5912 -36.3437,-66.875 l -0.4905,0.7546 z m 205.9482,153.4827 c -93.5625,24.16 -222.7471,72.1436 -382.126,36.8391 -159.3788,-35.3044 -160.9774,43.0286 -285.3669,178.3082 115.5523,-66.2387 246.7733,-49.4848 268.3184,-48.6796 13.3567,-19.2126 26.7134,-38.4252 40.0701,-57.6379 9.6128,26.4069 14.5466,22.7724 24.1506,49.1825 56.4835,-10.4572 87.7772,9.0113 134.6039,4.3093 46.8267,-4.702 127.4542,9.1764 155.9387,6.2702 12.6321,-25.2933 20.6079,-34.6114 33.2756,-59.887 10.8339,21.0415 22.442,43.1086 33.501,64.0324 109.405,10.3439 172.7084,12.0506 290.1778,28.3174 C 1923.8558,700.2211 1827.3323,653.7956 1733.7697,677.9556 z"
       inkscape:path-effect="#path-effect12466"
       sodipodi:nodetypes="cccccccccccccccccczzcccczccccz"
       inkscape:connector-curvature="0"
       id="path3090"
       d="m 1377.7639,512.54147 c 0,0 2.3738,-0.24971 -2.0762,-8.09659 -2.225,-3.92344 -2.2875,-1.90515 -2.3838,1.0881 -0.096,2.99325 -0.2365,6.96146 -2.5848,6.93786 -2.3482,-0.0236 -2.2042,-3.99169 -2.0497,-8.94875 0.1544,-4.95707 0.3133,-10.90311 -1.9422,-14.88261 -2.2554,-3.97949 -2.384,1.96655 -2.5788,8.90152 -0.1949,6.93498 -0.474,14.85888 -2.8223,14.83512 -2.3482,-0.0238 -2.0612,-7.94754 -1.8197,-16.87476 0.2415,-8.92722 0.4231,-18.85787 -1.8641,-22.89538 -2.2873,-4.0375 -2.4177,5.89315 -2.6794,16.8272 -0.2617,10.93404 -0.6816,22.87148 -3.0298,22.84756 -2.3483,-0.0239 -1.9164,-11.96124 -1.62,-24.91696 0.2964,-12.95573 0.4346,-26.92987 -1.8859,-31.02745 -2.3205,-4.09759 -2.3854,9.87655 -2.6811,24.86906 -0.1478,7.49626 -0.3514,15.24711 -0.8245,21.12088 -0.473,5.87377 -1.2074,9.87047 -2.3815,9.85843 -1.1741,-0.0121 -1.6132,-4.02076 -1.7203,-10.15704 -0.1072,-6.13628 0.1095,-14.40014 0.2684,-22.92249 0.1589,-8.52234 0.2591,-17.30317 0.01,-24.47339 -0.2499,-7.17023 -0.8436,-12.72985 -2.0213,-14.80977 -1.1776,-2.07993 -1.7498,1.39976 -2.0594,7.7885 -0.3097,6.38874 -0.3726,15.68653 -0.5202,25.2428 -0.1475,9.55626 -0.3811,19.371 -0.8913,26.79364 -0.5102,7.42264 -1.2839,12.45319 -2.4581,12.44106 -1.1741,-0.0121 -1.5735,-5.05476 -1.644,-12.7439 -0.07,-7.68914 0.1749,-18.02479 0.327,-28.62295 0.1521,-10.59817 0.2095,-21.45884 -0.094,-30.19803 -0.3035,-8.73919 -0.9575,-15.35689 -2.1534,-17.4691 -1.1958,-2.11222 -1.723,2.39326 -1.9786,10.33885 -0.2557,7.94559 -0.2622,19.33127 -0.3914,30.97946 -0.1293,11.64819 -0.3829,23.55888 -0.9264,32.55447 -0.5436,8.99559 -1.358,15.07608 -2.5321,15.06388 -1.1741,-0.0122 -1.5327,-6.10487 -1.5704,-15.3711 -0.038,-9.26623 0.2266,-21.70603 0.3535,-34.41253 0.1269,-12.70649 0.1148,-25.67967 -0.2664,-36.01266 -0.3812,-10.333 -1.1157,-18.0258 -2.3306,-20.17153 -1.2149,-2.14573 -1.6775,3.40134 -1.8551,12.92815 -0.1776,9.52682 -0.1004,23.03337 -0.1924,36.80661 -0.092,13.77323 -0.3553,27.81315 -0.9282,38.40669 -0.5729,10.59353 -1.4292,17.74069 -2.6033,17.7284 -1.1742,-0.0123 -1.4906,-7.17168 -1.4994,-18.04015 -0.01,-10.86847 0.2637,-25.44602 0.3462,-40.2946 0.082,-14.84858 -0.027,-29.96819 -0.5112,-41.92079 -0.4841,-11.9526 -1.3203,-20.73819 -2.5552,-22.91874 -1.2349,-2.18054 -1.6126,4.42451 -1.6869,15.55787 -0.074,11.13336 0.1154,26.79502 0.08,42.72771 -0.035,15.93269 -0.2969,32.1364 -0.895,44.35385 -0.5982,12.21744 -1.4978,20.44863 -2.6719,20.43627 -1.1741,-0.0124 -1.4329,-8.63169 -1.4127,-21.50436 0.02,-12.87266 0.2813,-29.99867 0.2861,-47.02441 0,-17.02574 -0.2461,-33.9512 -0.833,-46.42278 -0.5869,-12.47157 -1.4701,-20.48926 -2.6181,-19.69944 -1.148,0.78982 -1.4211,9.59733 -1.432,22.36353 -0.011,12.76621 0.2075,29.49112 0.1828,46.11575 -0.025,16.62462 -0.2917,33.14897 -0.8921,45.51405 -0.6004,12.36508 -1.4998,20.57089 -2.6739,20.55845 -1.1741,-0.0124 -1.4568,-8.06655 -1.4508,-20.00722 0.01,-11.94067 0.2676,-27.7679 0.3126,-43.32658 0.045,-15.55869 -0.1245,-30.84882 -0.619,-41.71529 -0.4946,-10.86648 -1.2766,-17.3093 -2.395,-15.17335 -1.1185,2.13595 -1.475,10.71472 -1.596,22.38062 -0.1211,11.6659 -0.028,26.41892 -0.1172,40.90339 -0.089,14.48447 -0.3593,28.70038 -0.9316,39.29204 -0.5722,10.59166 -1.4217,17.55908 -2.5959,17.54656 -1.1741,-0.0125 -1.5002,-6.99251 -1.521,-17.31981 -0.021,-10.3273 0.2389,-24.00192 0.3361,-37.40367 0.097,-13.40175 0.034,-26.53065 -0.3621,-35.76652 -0.3959,-9.23586 -1.0957,-14.5787 -2.2324,-12.40835 -1.1367,2.17036 -1.5911,9.68356 -1.8111,19.73174 -0.22,10.04818 -0.2203,22.63135 -0.3505,34.94164 -0.1303,12.3103 -0.389,24.34773 -0.9303,33.30444 -0.5413,8.95671 -1.3474,14.83269 -2.5215,14.8201 -1.1741,-0.0126 -1.5434,-5.90123 -1.5958,-14.58919 -0.052,-8.68796 0.1945,-20.17523 0.3254,-31.38508 0.131,-11.20985 0.1478,-22.14228 -0.1727,-29.72054 -0.3205,-7.57827 -0.9573,-11.80238 -2.1131,-9.59559 -1.1559,2.20679 -1.6897,8.63768 -1.9856,17.04192 -0.2959,8.40423 -0.363,18.7818 -0.5152,28.88194 -0.1522,10.10015 -0.3883,19.92285 -0.8936,27.21736 -0.5053,7.29451 -1.2682,12.06081 -2.4423,12.04815 -1.1741,-0.0127 -1.5864,-4.79171 -1.6755,-11.81282 -0.089,-7.0211 0.1336,-16.28426 0.279,-25.26515 0.1454,-8.9809 0.2151,-17.67953 -0.054,-23.57157 -0.2695,-5.89205 -0.8634,-8.9775 -2.0394,-6.73206 -1.1761,2.24545 -1.77,7.57636 -2.1174,14.30886 -0.3475,6.7325 -0.4533,14.86659 -0.6075,22.71841 -0.3084,15.70364 -0.8295,30.27818 -3.1777,30.2527 -1.1741,-0.0127 -1.6293,-3.66283 -1.7603,-8.98788 -0.1311,-5.32505 0.055,-12.32507 0.1948,-19.03768 0.2789,-13.42521 0.3701,-25.70077 -2.0245,-21.12763 -2.3946,4.57314 -2.5578,16.8487 -2.828,27.97456 -0.2702,11.12587 -0.6266,21.10204 -2.9748,21.07641 -2.3482,-0.0256 -2.0039,-10.00216 -1.7799,-18.80707 0.2241,-8.80492 0.3547,-16.43822 -2.0849,-11.77738 -2.4396,4.66083 -2.6158,12.29413 -2.8033,18.75578 -0.1876,6.46165 -0.3765,11.75165 -2.7247,11.72587 -2.3482,-0.0258 -2.1658,-5.31616 -2.0421,-9.41147 0.1237,-4.0953 0.2046,-6.99551 -2.2827,-2.2409 -4.9746,9.50921 -2.7198,11.57492 -2.7198,11.57492 m 606.0135,-6.69681 c 0,0 2.3346,0.67892 -2.1423,-5.63171 -4.4769,-6.31063 -0.2067,5.62669 -4.9045,5.61643 -2.3489,-0.005 -2.2329,-2.98684 -2.103,-6.76429 0.1299,-3.77744 0.2696,-8.35063 -1.9915,-11.5387 -2.2612,-3.18808 -2.3794,1.3851 -2.5489,6.754 -0.1695,5.36889 -0.4033,11.5335 -2.7522,11.52827 -2.3489,-0.005 -2.1093,-6.16978 -1.8959,-13.13846 0.2134,-6.96868 0.3904,-14.74149 -1.8942,-17.96325 -2.2846,-3.22175 -2.4247,4.55106 -2.6629,13.12798 -0.2381,8.57691 -0.5937,17.95794 -2.9426,17.95262 -2.3489,-0.005 -1.9844,-9.38628 -1.7111,-19.58002 0.2732,-10.19374 0.439,-21.20024 -1.8697,-24.45664 -2.3088,-3.25639 -2.4217,7.75011 -2.7046,19.56936 -0.2828,11.81926 -0.7613,24.45126 -3.1102,24.44587 -2.3489,-0.005 -1.8583,-12.63734 -1.5494,-26.09094 0.1544,-6.7268 0.2681,-13.65902 0.04,-19.32104 -0.2281,-5.66202 -0.7935,-10.05385 -1.9604,-11.69987 -2.3337,-3.29205 -2.3688,10.98322 -2.6715,26.08013 -0.1513,7.54845 -0.3656,15.30232 -0.85,21.16839 -0.4845,5.86607 -1.2297,9.84434 -2.4041,9.84161 -1.1745,-0.003 -1.603,-3.98371 -1.6999,-10.05768 -0.097,-6.07397 0.1287,-14.24092 0.2884,-22.61558 0.1596,-8.37465 0.2526,-16.95701 -0.01,-23.8618 -0.2591,-6.9048 -0.8628,-12.13202 -2.0426,-13.79639 -1.1797,-1.66437 -1.7453,1.89847 -2.0495,8.17878 -0.3043,6.28031 -0.3633,15.27808 -0.5117,24.48355 -0.1485,9.20547 -0.3875,18.61864 -0.9036,25.72976 -0.5162,7.11112 -1.2958,11.92018 -2.4702,11.91742 -1.1745,-0.003 -1.5684,-4.81455 -1.6339,-12.1359 -0.066,-7.32135 0.1838,-17.15226 0.3357,-27.19323 0.152,-10.04098 0.2053,-20.29201 -0.1017,-28.45363 -0.307,-8.16161 -0.9631,-14.2338 -2.1562,-15.91709 -1.1931,-1.68328 -1.7175,2.70564 -1.9735,10.23567 -0.2561,7.53004 -0.2656,18.20121 -0.3978,29.08244 -0.1323,10.88123 -0.3887,21.97252 -0.9338,30.34281 -0.545,8.3703 -1.3599,14.01959 -2.5344,14.01681 -1.1744,-0.003 -1.5329,-5.65482 -1.5699,-14.23775 -0.037,-8.58293 0.2289,-20.09675 0.3597,-31.82307 0.1307,-11.72632 0.125,-23.66513 -0.2475,-33.09806 -0.3725,-9.43293 -1.0957,-16.35997 -2.3026,-18.06274 -1.2069,-1.70277 -1.6758,3.5215 -1.8661,12.31555 -0.1903,8.79404 -0.1304,21.15785 -0.2327,33.73416 -0.1024,12.57632 -0.3687,25.36512 -0.9398,35.00916 -0.5711,9.64403 -1.4222,16.14329 -2.5966,16.14051 -1.1745,-0.003 -1.4966,-6.50482 -1.5079,-16.36397 -0.011,-9.85915 0.2635,-23.07543 0.3592,-36.50672 0.096,-13.43129 0.011,-27.07759 -0.4455,-37.79678 -0.4561,-10.71919 -1.2616,-18.51128 -2.4828,-20.23415 -1.2212,-1.72287 -1.6198,4.34635 -1.7262,14.41912 -0.1065,10.07277 0.043,24.14909 -0.015,38.44041 -0.058,14.29133 -0.3265,28.79767 -0.9207,39.73047 -0.5942,10.93281 -1.4825,18.29209 -2.6569,18.28929 -1.1744,-0.003 -1.4593,-7.36484 -1.4478,-18.51532 0.011,-11.15048 0.2872,-26.08938 0.3334,-41.24589 0.046,-15.15651 -0.139,-30.53063 -0.6975,-42.55151 -0.5586,-12.02089 -1.4621,-20.68856 -2.6981,-22.43217 -1.236,-1.74361 -1.549,5.18044 -1.5528,16.54712 -0,11.36668 0.2575,27.176 0.2581,43.20292 6e-4,16.02692 -0.2616,32.27144 -0.8758,44.50854 -0.6143,12.23709 -1.5406,20.46676 -2.715,20.46396 -1.1745,-0.003 -1.4317,-8.03082 -1.4091,-19.96375 0.023,-11.93294 0.2867,-27.77078 0.301,-43.3932 0.014,-15.62241 -0.2193,-31.02941 -0.7775,-42.10065 -0.5582,-11.07125 -1.3991,-17.80674 -2.5162,-16.08615 -1.1171,1.72059 -1.4122,10.17667 -1.4659,21.89278 -0.054,11.71612 0.1072,26.69227 0.049,41.45299 -0.058,14.76073 -0.3343,29.30604 -0.9279,40.16047 -0.5935,10.85442 -1.4744,18.01797 -2.6488,18.01519 -1.1745,-0.003 -1.4694,-7.16915 -1.4678,-17.8083 0,-10.63915 0.2696,-24.75108 0.3386,-38.64501 0.069,-13.89392 -0.059,-27.56985 -0.5189,-37.33698 -0.46,-9.76713 -1.2181,-15.62547 -2.3488,-13.88423 -1.1306,1.74124 -1.5199,9.34082 -1.6721,19.76057 -0.1523,10.41975 -0.088,23.65967 -0.1924,36.68158 -0.1048,13.02192 -0.3775,25.82584 -0.9471,35.37358 -0.5696,9.54774 -1.4126,15.83931 -2.5871,15.83653 -1.1744,-0.003 -1.5071,-6.29714 -1.5299,-15.62697 -0.023,-9.32982 0.2408,-21.6951 0.351,-33.83969 0.1102,-12.14459 0.069,-24.0685 -0.3101,-32.51557 -0.3789,-8.44708 -1.0684,-13.41732 -2.2131,-11.6546 -1.1447,1.76273 -1.6146,8.4957 -1.8482,17.60345 -0.2337,9.10775 -0.2457,20.59028 -0.383,31.85213 -0.1373,11.26184 -0.3986,22.303 -0.9405,30.52801 -0.5419,8.22501 -1.3473,13.63387 -2.5217,13.63112 -1.1745,-0.003 -1.5447,-5.4144 -1.5957,-13.41875 -0.051,-8.00435 0.2,-18.6014 0.3372,-28.97497 0.1373,-10.37357 0.1624,-20.52365 -0.153,-27.63407 -0.3154,-7.11042 -0.951,-11.18117 -2.1102,-9.39607 -1.1592,1.7851 -1.6955,7.64095 -1.993,15.42044 -0.2975,7.77949 -0.3659,17.48261 -0.5212,26.96226 -0.1554,9.47965 -0.3966,18.73581 -0.907,25.62139 -0.5105,6.88557 -1.2783,11.40055 -2.4527,11.39782 -1.1744,-0.003 -1.582,-4.52047 -1.6651,-11.18252 -0.083,-6.66205 0.1467,-15.4684 0.2963,-24.04837 0.1497,-8.57996 0.2206,-16.93352 -0.05,-22.68999 -0.2702,-5.75647 -0.8671,-8.91584 -2.0415,-7.10741 -1.1743,1.80842 -1.7623,6.77622 -2.1052,13.21051 -0.343,6.43429 -0.4468,14.33507 -0.6051,22.00946 -0.3168,15.34878 -0.8765,29.79199 -3.2254,29.78659 -1.1744,-0.003 -1.6193,-3.61488 -1.7383,-8.91709 -0.119,-5.30222 0.08,-12.29446 0.2271,-19.05726 0.2936,-13.52561 0.3699,-26.13348 -2.0102,-22.46793 -2.3801,3.66555 -2.5246,16.27342 -2.8162,27.96357 -0.2916,11.69016 -0.7091,22.46259 -3.058,22.45727 -2.3489,-0.005 -1.9432,-10.7779 -1.687,-20.62004 0.2561,-9.84214 0.3885,-18.75383 -2.0244,-15.03739 -2.4129,3.71644 -2.5941,12.62813 -2.828,20.60941 -0.234,7.98128 -0.5073,15.03213 -2.8562,15.0269 -2.3489,-0.005 -2.0834,-7.05625 -1.8977,-13.16353 0.1857,-6.10728 0.3095,-11.27082 -2.1376,-7.50113 -2.447,3.76969 -2.5995,8.93324 -2.7419,13.15308 -0.1424,4.21984 -0.2695,7.49597 -2.6184,7.49084 -4.6978,-0.0103 0.4667,-13.1052 -4.4988,-5.4542 -4.9656,7.65099 -2.5479,5.43891 -2.5479,5.43891 m -102.9369,79.67887 c 0,0 0.4895,1.62493 0.38,3.24712 -0.1095,1.62219 -0.8178,3.24163 -3.1661,3.23067 -2.3482,-0.011 -2.149,-2.58475 -1.9305,-6.17378 0.2186,-3.58902 0.4425,-8.19328 -1.7703,-12.26518 -1.1064,-2.03596 -1.7002,-1.90287 -2.0372,-0.55839 -0.3369,1.34447 -0.4275,3.90035 -0.5602,6.70998 -0.1327,2.80963 -0.3097,5.87301 -0.7582,8.23251 -0.4485,2.3595 -1.1624,4.01511 -2.3366,4.00919 -2.3482,-0.0118 -1.8362,-6.64286 -1.5083,-14.36142 0.164,-3.85928 0.2835,-7.99045 0.051,-11.70203 -0.2331,-3.71159 -0.8161,-7.0036 -1.9999,-9.18458 -1.1837,-2.18098 -1.7582,-1.06995 -2.0515,1.82301 -0.2932,2.89296 -0.3292,7.56784 -0.467,12.51457 -0.1377,4.94673 -0.3808,10.1653 -0.9112,14.14564 -0.5304,3.98034 -1.3313,6.72245 -2.5053,6.71624 -1.1741,-0.006 -1.5449,-2.75342 -1.5878,-7.01801 -0.043,-4.2646 0.2255,-10.04659 0.3638,-16.12235 0.1382,-6.07576 0.143,-12.44531 -0.2444,-17.88502 -0.3875,-5.4397 -1.157,-9.94958 -2.437,-12.30602 -1.28,-2.35643 -1.7477,-0.20299 -1.8818,4.35226 -0.1341,4.55526 0.02,11.51233 -0.03,18.76316 -0.05,7.25083 -0.3105,14.79542 -0.9068,20.52571 -0.5964,5.73029 -1.4945,9.64629 -2.6686,9.63993 -1.1741,-0.006 -1.4147,-4.33545 -1.3864,-10.72417 0.028,-6.38872 0.284,-14.83707 0.274,-23.08193 -0.01,-8.24487 -0.2815,-16.28626 -0.8544,-21.86106 -0.5729,-5.5748 -1.3972,-8.68301 -2.4649,-7.06153 -1.0678,1.62149 -1.3458,6.35118 -1.4054,12.53323 -0.06,6.18205 0.078,13.81647 0.01,21.2474 -0.072,7.43094 -0.3494,14.65839 -0.9353,20.02652 -0.5858,5.36813 -1.4521,8.87694 -2.6262,8.87057 -1.1741,-0.006 -1.4843,-3.52203 -1.4947,-8.68649 -0.011,-5.16447 0.2515,-11.97773 0.3393,-18.5793 0.088,-6.60158 0,-12.99145 -0.3984,-17.30914 -0.4033,-4.3177 -1.0926,-6.5632 -2.2059,-4.87602 -1.1133,1.68718 -1.5657,5.61986 -1.7966,10.56945 -0.2309,4.94959 -0.2515,10.91609 -0.3931,16.67092 -0.1416,5.75482 -0.4018,11.29797 -0.9377,15.40085 -0.5359,4.10288 -1.3315,6.7655 -2.5056,6.75927 -1.1741,-0.006 -1.5545,-2.67546 -1.6168,-6.56547 -0.062,-3.89002 0.1778,-9.00082 0.3167,-13.89018 0.1389,-4.88937 0.1795,-9.55731 -0.1131,-12.56159 -0.2927,-3.00429 -0.8971,-4.34494 -2.0621,-2.57972 -1.1649,1.76522 -1.7468,4.87108 -2.0905,8.53655 -0.3436,3.66548 -0.4529,7.89058 -0.6141,11.89428 -0.3222,8.00741 -0.8647,15.12923 -3.2129,15.11732 -1.1741,-0.006 -1.6256,-1.78988 -1.7548,-4.34635 -0.1291,-2.55647 0.057,-5.88548 0.194,-8.9816 0.1369,-3.09612 0.2269,-5.95935 -0.022,-7.58425 -0.2494,-1.62489 -0.8268,-2.01147 -2.0513,-0.15428 -2.4492,3.71437 -2.66,8.97502 -2.9054,13.3043 -0.2454,4.32929 -0.5048,7.72722 -2.8531,7.71615 -2.3483,-0.0111 -2.1033,-3.41168 -1.9563,-5.82568 0.1471,-2.414 0.2348,-3.84138 -2.3548,0.094 -2.5897,3.93539 -3.2959,5.36027 -3.3286,5.8013 -0.033,0.44102 0.5948,-0.1018 0.5948,-0.1018 m 559.3579,289.16145 c 0,0 2.316,1.89131 -2.2583,-4.72227 -4.5743,-6.61357 -0.084,4.39681 -4.7701,3.76115 -4.6858,-0.63566 0.1956,-10.37575 -4.3988,-16.83771 -2.2972,-3.23098 -2.36,0.81952 -2.4422,5.60026 -0.082,4.78074 -0.188,10.29173 -2.5311,9.98174 -2.3431,-0.30998 -2.2366,-5.82123 -2.1321,-12.04275 0.1044,-6.22151 0.2041,-13.15329 -2.1027,-16.30433 -2.3067,-3.15105 -2.3954,3.78072 -2.5161,11.42477 -0.1206,7.64405 -0.2787,16.0004 -2.6221,15.69852 -2.3434,-0.30188 -2.1839,-8.65849 -2.0448,-17.70636 0.1391,-9.04787 0.2537,-18.78701 -2.0619,-21.85397 -2.3157,-3.06695 -2.4153,6.67217 -2.5656,17.10466 -0.1502,10.43248 -0.358,21.55832 -2.7016,21.26478 -2.3436,-0.29353 -2.1341,-11.41962 -1.9689,-23.21702 0.1653,-11.79739 0.2805,-24.26608 -2.0435,-27.24479 -2.3239,-2.97871 -2.4206,9.48996 -2.5922,22.63207 -0.1717,13.14211 -0.4265,26.95766 -2.7703,26.67268 -2.3438,-0.28498 -2.0869,-14.10078 -1.9036,-28.56692 0.1834,-14.46614 0.2862,-29.58262 -2.0455,-32.46895 -2.3317,-2.88634 -2.4127,12.23013 -2.5981,27.99912 -0.1854,15.76899 -0.4845,32.1905 -2.8285,31.91424 -2.3441,-0.27626 -2.0425,-16.69802 -1.8485,-33.74819 0.1941,-17.05016 0.2728,-34.72873 -2.066,-37.5186 -2.3388,-2.78986 -2.3927,14.8887 -2.5849,33.19787 -0.1922,18.30917 -0.533,37.24894 -2.8773,36.9815 -2.3442,-0.26744 -2.0007,-19.20746 -1.8026,-38.75297 0.1981,-19.54551 0.2419,-39.6965 -2.1033,-42.38587 -2.3452,-2.68936 -2.3618,17.46162 -2.5545,38.22031 -0.1927,20.75869 -0.5726,42.12507 -2.9171,41.86648 -2.3445,-0.25859 -1.9616,-21.62521 -1.7655,-43.57342 0.098,-10.97411 0.1552,-22.09361 -0.1156,-30.7927 -0.2707,-8.6991 -0.8642,-14.97778 -2.0396,-16.27025 -2.3509,-2.58493 -2.3213,19.94487 -2.5089,43.05846 -0.094,11.5568 -0.2362,23.25954 -0.6587,32.04186 -0.4225,8.78232 -1.1177,14.64422 -2.2901,14.51933 -1.1723,-0.1249 -1.6495,-6.11175 -1.8124,-15.09916 -0.1628,-8.98742 -0.018,-20.97541 0.076,-33.10258 0.094,-12.12717 0.1383,-24.39352 -0.1474,-33.93766 -0.2857,-9.54414 -0.8945,-16.36607 -2.0725,-17.60441 -1.178,-1.23834 -1.7433,4.34526 -2.0367,13.40969 -0.2935,9.06442 -0.3245,21.60968 -0.4132,34.29466 -0.089,12.68498 -0.2355,25.50968 -0.6657,35.13299 -0.4301,9.62332 -1.1348,16.04524 -2.3072,15.92468 -1.1725,-0.12057 -1.6403,-6.66312 -1.7958,-16.48303 -0.1555,-9.8199 -0.01,-22.91716 0.081,-36.14715 0.088,-13.22998 0.1161,-26.59269 -0.1867,-36.9435 -0.3029,-10.3508 -0.9285,-17.6897 -2.1087,-18.87207 -1.1801,-1.18237 -1.7307,4.97417 -2.0075,14.86678 -0.2767,9.89262 -0.2907,23.52131 -0.3722,37.28326 -0.082,13.76194 -0.2309,27.65714 -0.6676,38.08275 -0.4366,10.42561 -1.1502,17.38165 -2.3227,17.26528 -1.1726,-0.11637 -1.6316,-7.18884 -1.7809,-17.80236 -0.1492,-10.61352 0,-24.7681 0.082,-39.04872 0.08,-14.28062 0.089,-28.68727 -0.2323,-39.80492 -0.3217,-11.11766 -0.9654,-18.94632 -2.1474,-20.07096 -1.182,-1.12464 -1.7163,5.57939 -1.9746,16.26102 -0.2583,10.68163 -0.2531,25.34086 -0.3256,40.12663 -0.072,14.78576 -0.223,29.69806 -0.6651,40.88583 -0.442,11.18777 -1.1639,18.651 -2.3365,18.53863 -1.1727,-0.11236 -1.6235,-7.68801 -1.7676,-19.05486 -0.144,-11.36685 0.01,-26.52489 0.078,-41.80205 0.07,-15.27715 0.059,-30.67342 -0.2826,-42.51671 -0.3421,-11.84329 -1.0047,-20.1336 -2.1882,-21.19885 -1.1835,-1.06524 -1.7004,6.15983 -1.9389,17.58985 -0.2384,11.43003 -0.2124,27.065 -0.2744,42.81955 -0.062,15.75455 -0.2122,31.62869 -0.6587,43.53703 -0.4466,11.90834 -1.1761,19.85089 -2.3488,19.74228 -1.1728,-0.10862 -1.616,-8.15982 -1.7558,-20.23831 -0.1398,-12.07849 0.011,-28.18425 0.07,-44.40198 0.059,-16.21773 0.027,-32.54741 -0.3368,-45.07375 -0.3635,-12.52633 -1.0454,-21.2493 -2.2301,-22.2536 -1.1847,-1.0043 -1.6834,6.71439 -1.901,18.85076 -0.2176,12.13638 -0.1697,28.69044 -0.2199,45.35689 -0.05,16.66645 -0.1991,33.44529 -0.6492,46.03123 -0.4501,12.58594 -1.1868,20.97897 -2.3596,20.8738 -1.1728,-0.10517 -1.6091,-8.60341 -1.7454,-21.35049 -0.1364,-12.74708 0.013,-29.74299 0.06,-46.8435 0.047,-17.10051 -0.01,-34.30561 -0.3936,-47.47106 -0.3853,-13.16545 -1.0869,-22.29125 -2.2724,-23.23317 -1.1856,-0.94191 -1.6656,7.24199 -1.8618,20.04129 -0.1962,12.7993 -0.1255,30.21399 -0.1632,47.73367 -0.038,17.51967 -0.1841,35.14431 -0.637,48.36352 -0.4529,13.21921 -1.1961,22.03297 -2.3689,21.93087 -1.1729,-0.1021 -1.6028,-9.018 -1.7366,-22.38931 -0.1338,-13.37131 0.013,-31.19803 0.047,-49.12176 0.034,-17.92373 -0.044,-35.94448 -0.4518,-49.70385 -0.4074,-13.75937 -1.1284,-23.25736 -2.3146,-24.13558 -1.1861,-0.87822 -1.6473,7.74156 -1.8218,21.15902 -0.1746,13.41746 -0.081,31.6326 -0.1055,49.94508 -0.025,18.31249 -0.1678,36.72232 -0.6228,50.52916 -0.4549,13.80685 -1.2039,23.01071 -2.3768,22.91126 -1.1729,-0.0994 -1.597,-9.4028 -1.729,-23.35271 -0.1319,-13.94992 0.011,-32.5464 0.032,-51.23212 0.021,-18.68573 -0.081,-37.46069 -0.5104,-51.76756 -0.4294,-14.30687 -1.1695,-24.14565 -2.3559,-24.95901 -1.1865,-0.81336 -1.6289,8.21207 -1.782,22.20166 -0.1531,13.98959 -0.037,32.94333 -0.048,51.98658 -0.011,19.04325 -0.1505,38.17602 -0.6068,52.52365 -0.4563,14.34764 -1.2105,23.91014 -2.3835,23.81287 -1.173,-0.0973 -1.5919,-9.75707 -1.7227,-24.23877 -0.1307,-14.48171 0.01,-33.78532 0.015,-53.17021 0.01,-19.38489 -0.1176,-38.85106 -0.5683,-53.65787 -0.4507,-14.80682 -1.2093,-24.95428 -2.3957,-25.70176 -1.1865,-0.74749 -1.6107,8.65251 -1.7428,23.16699 -0.1321,14.51448 0.01,34.14344 0.01,53.85389 0,19.71045 -0.1328,39.50239 -0.5899,54.34282 -0.457,14.84043 -1.2157,24.72935 -2.3888,24.63377 -1.173,-0.0956 -1.5875,-10.0801 -1.7176,-25.04568 -0.1301,-14.96557 0,-34.91219 -0,-54.93196 -0.01,-20.01977 -0.1534,-40.11268 -0.6247,-55.37083 -0.4712,-15.25816 -1.2473,-25.68156 -2.4335,-26.3623 -1.1861,-0.68075 -1.5928,9.06192 -1.7048,24.05295 -0.112,14.99103 0.048,35.23041 0.064,55.54309 0.015,20.31267 -0.1151,40.69864 -0.5723,55.98284 -0.4573,15.2842 -1.2199,25.46663 -2.3929,25.37222 -1.1731,-0.0944 -1.5837,-10.37125 -1.7138,-25.77175 -0.13,-15.40051 -7e-4,-35.92467 -0.02,-56.5137 -0.019,-20.58902 -0.1878,-41.24291 -0.6785,-56.90287 -0.4907,-15.65996 -1.283,-26.32599 -2.4687,-26.93929 -1.1856,-0.61331 -1.5758,9.43943 -1.6688,24.85766 -0.093,15.41824 0.088,36.20197 0.1156,57.05064 0.028,20.84868 -0.098,41.7623 -0.5545,57.44032 -0.4569,15.67802 -1.2228,26.12044 -2.3958,26.0267 -1.1731,-0.0937 -1.5806,-10.6299 -1.7111,-26.4155 -0.1304,-15.78561 -0.01,-36.82066 -0.038,-57.91215 -0.032,-21.0915 -0.2202,-42.23945 -0.7289,-58.25086 -0.5087,-16.01141 -1.3159,-26.88628 -2.5009,-27.43161 -1.1849,-0.54534 -1.5597,9.7842 -1.6352,25.57943 -0.076,15.79522 0.1241,37.05612 0.1639,58.37349 0.04,21.31738 -0.081,42.69122 -0.5367,58.71233 -0.4562,16.02111 -1.2246,26.68949 -2.3977,26.59592 -1.1731,-0.0936 -1.5781,-10.85551 -1.7094,-26.97562 -0.1313,-16.1201 -0.012,-37.59837 -0.056,-59.12456 -0.044,-21.5262 -0.2503,-43.10032 -0.7753,-59.41215 -0.5251,-16.31183 -1.3456,-27.36137 -2.5297,-27.83838 -1.184,-0.47701 -1.5449,10.09552 -1.6045,26.21678 -0.06,16.12126 0.1571,37.79124 0.2079,59.50911 0.051,21.71787 -0.064,43.48363 -0.5195,59.79646 -0.455,16.31283 -1.2253,27.17272 -2.3984,27.07886 -1.1731,-0.0939 -1.5763,-11.04764 -1.7088,-27.45102 -0.1326,-16.40338 -0.019,-38.25637 -0.073,-60.14869 -0.054,-21.89232 -0.2775,-43.82397 -0.817,-60.38467 -0.5395,-16.56069 -1.3716,-27.75043 -2.5546,-28.15894 -1.183,-0.4085 -1.5316,10.37275 -1.5772,26.7685 -0.046,16.39575 0.1863,38.40599 0.2471,60.45547 0.061,22.04948 -0.049,44.13819 -0.503,60.69089 -0.4536,16.55269 -1.225,27.56936 -2.3981,27.47475 -1.1731,-0.0946 -1.5752,-11.20588 -1.7094,-27.84083 -0.1342,-16.63495 -0.025,-38.79357 -0.09,-60.98286 -0.064,-22.18929 -0.3015,-44.40926 -0.8534,-61.1669 -0.5518,-16.75763 -1.3937,-28.05294 -2.5754,-28.39293 -1.1818,-0.33998 -1.5199,10.61535 -1.5535,27.23362 -0.034,16.61826 0.2111,38.89945 0.2808,61.21117 0.07,22.31172 -0.036,44.65397 -0.4876,61.39435 -0.4517,16.74038 -1.2237,27.8789 -2.3968,27.78316 -1.1731,-0.0957 -1.5746,-11.33 -1.7108,-28.1445 -0.1361,-16.8145 -0.032,-39.20925 -0.1049,-61.62599 -0.073,-22.41674 -0.3221,-44.85546 -0.8841,-61.75791 -0.5621,-16.90244 -1.4116,-28.26861 -2.5921,-28.54025 -1.1804,-0.27163 -1.5099,10.82291 -1.5337,27.61145 -0.024,16.78854 0.2315,39.27107 0.3086,61.7754 0.077,22.50433 -0.024,45.03047 -0.4734,61.90621 -0.4495,16.87574 -1.2213,28.10109 -2.3944,28.00387 -1.1731,-0.0972 -1.5748,-11.41979 -1.7132,-28.36168 -0.1384,-16.94189 -0.039,-39.50309 -0.119,-62.0776 -0.08,-22.5745 -0.3389,-45.16231 -0.9088,-62.1574 -0.5699,-16.99508 -1.4251,-28.39745 -2.6041,-28.60107 -1.1791,-0.20362 -1.5019,10.99513 -1.5183,27.9016 -0.016,16.90648 0.2471,39.52068 0.3304,62.14795 0.083,22.62728 -0.014,45.26764 -0.4606,62.22642 -0.4471,16.95879 -1.218,28.236 -2.3911,28.137 -1.1731,-0.099 -1.5758,-11.47521 -1.7166,-28.49233 -0.1409,-17.01711 -0.046,-39.67515 -0.1316,-62.33783 -0.086,-22.66267 -0.3518,-45.32999 -0.9272,-62.36566 -0.5754,-17.03568 -1.4341,-28.43972 -2.6117,-28.57585 -1.1776,-0.13612 -1.4958,11.1318 -1.5071,28.10394 -0.011,16.97214 0.2578,39.6485 0.3458,62.32924 0.088,22.68074 -0,45.36587 -0.4493,62.35556 -0.4445,16.98968 -1.2139,28.28393 -2.3869,28.1829 -1.1731,-0.10104 -1.5773,-11.49629 -1.7209,-28.53666 -0.1436,-17.04038 -0.053,-39.72588 -0.1427,-62.40742 -0.09,-22.68153 -0.3607,-45.3591 -0.9391,-62.38361 -0.5785,-17.02451 -1.4385,-28.39596 -2.6146,-28.46526 -1.1761,-0.0693 -1.4919,11.23285 -1.5005,28.21862 -0.01,16.98576 0.2635,39.65513 0.3548,62.32025 0.091,22.66513 0,45.32601 -0.4397,62.29479 -0.4416,16.96878 -1.2088,28.24547 -2.3818,28.14221 -1.1731,-0.10326 -1.5795,-11.48317 -1.7261,-28.49518 -0.1465,-17.012 -0.059,-39.65608 -0.152,-62.28767 -0.093,-22.6316 -0.3656,-45.25069 -0.9447,-62.21272 -0.5791,-16.96203 -1.4384,-28.26699 -2.613,-28.27031 -1.1746,-0.003 -1.49,11.29834 -1.4983,28.24608 -0.01,16.94773 0.2642,39.54155 0.3573,62.12259 0.093,22.58103 0.01,45.14927 -0.4317,62.04584 -0.4385,16.89657 -1.2029,28.12147 -2.3759,28.01583 -1.1731,-0.10565 -1.5823,-11.43616 -1.732,-28.36865 -0.1497,-16.93249 -0.066,-39.46696 -0.1598,-61.98051 -0.094,-22.51355 -0.3664,-45.00618 -0.9437,-61.85501 -0.5774,-16.84883 -1.4338,-28.05385 -2.607,-27.99217 -1.1732,0.0617 -1.4902,11.32838 -1.5007,28.18698 -0.01,16.8586 0.2601,39.3091 0.3535,61.73837 0.094,22.42927 0.01,44.83731 -0.4253,61.611 -0.4352,16.77368 -1.1963,27.91301 -2.3693,27.80487 -1.173,-0.10815 -1.5857,-11.3556 -1.7387,-28.15808 -0.153,-16.80248 -0.072,-39.16001 -0.1658,-61.48833 -0.094,-22.32831 -0.3633,-44.62742 -0.9366,-61.31306 -0.5733,-16.68564 -1.4249,-27.75782 -2.5967,-27.63229 -1.1717,0.12554 -1.4903,11.41846 -1.5042,28.2327 -0.014,16.81425 0.2513,39.14982 0.3419,61.36065 0.091,22.21083 0.01,44.29692 -0.4222,60.61222 -0.4294,16.3153 -1.1781,26.85979 -2.3408,25.98743 -1.1626,-0.87237 -1.5814,-12.28919 -1.7466,-28.91195 -0.1653,-16.62277 -0.1,-38.45148 -0.1992,-60.14764 -0.1,-21.69615 -0.3633,-43.25975 -0.9261,-59.35228 -0.5629,-16.09253 -1.4008,-26.71399 -2.5712,-26.52589 -1.1704,0.18811 -1.5084,10.8364 -1.5391,26.56639 -0.031,15.72999 0.2238,36.54168 0.3273,57.05658 0.1035,20.51491 0.057,40.73302 -0.3274,55.27587 -0.3847,14.54285 -1.0831,23.41044 -2.2345,21.22427 -1.1513,-2.18617 -1.6152,-13.23987 -1.8359,-28.57513 -0.2206,-15.33526 -0.214,-34.95207 -0.3365,-54.26446 -0.1225,-19.31238 -0.3729,-38.32033 -0.9075,-52.43787 -0.5347,-14.11754 -1.3352,-23.34466 -2.5043,-23.09539 -1.1692,0.24927 -1.5397,9.72585 -1.597,23.66214 -0.057,13.93629 0.1811,32.33228 0.3012,50.42037 0.1201,18.08808 0.123,35.86825 -0.2125,48.57291 -0.3356,12.70465 -0.9899,20.33378 -2.1489,18.11978 -1.159,-2.214 -1.6736,-12.05626 -1.9432,-25.55538 -0.2696,-13.49912 -0.3062,-30.6551 -0.44,-47.49654 -0.1337,-16.84144 -0.3635,-33.36834 -0.8686,-45.60931 -0.5051,-12.24096 -1.2715,-20.19599 -2.4396,-19.89367 -1.1681,0.30231 -1.5717,8.5599 -1.6586,20.63568 -0.087,12.07578 0.1301,27.96976 0.2579,43.54485 0.1279,15.5751 0.1679,30.83131 -0.1291,41.63157 -0.2969,10.80025 -0.9157,17.14455 -2.0827,14.89582 -1.167,-2.24874 -1.7237,-10.84157 -2.0317,-22.44635 -0.308,-11.60478 -0.3755,-26.22149 -0.5118,-40.518 -0.1362,-14.29651 -0.3402,-28.27281 -0.8138,-38.59675 -0.4735,-10.32394 -1.2066,-16.99552 -2.3746,-16.68259 -1.168,0.31294 -1.6132,6.88984 -1.7356,16.72015 -0.1224,9.83031 0.07,22.91402 0.2032,36.24057 0.1333,13.32656 0.2069,26.89595 -0.062,37.69761 -0.2689,10.80166 -0.8735,18.8356 -2.0527,21.09125 -1.1791,2.25564 -1.7459,-3.52255 -2.0467,-13.43868 -0.3008,-9.91612 -0.3488,-23.97017 -0.4711,-38.26624 -0.1223,-14.29606 -0.3195,-28.83414 -0.7947,-39.71831 -0.4752,-10.88417 -1.2166,-18.11444 -2.3847,-17.7949 -1.1681,0.31955 -1.5954,7.86459 -1.7042,19.12891 -0.1088,11.26433 0.09,26.24794 0.2106,41.44464 0.1205,15.1967 0.1618,30.60648 -0.1417,42.72315 -0.3035,12.11667 -0.9424,20.94023 -2.1281,22.96446 -1.1857,2.02424 -1.7248,-4.775 -1.9933,-16.09228 -0.2685,-11.31727 -0.2824,-27.15259 -0.3886,-43.20053 -0.1062,-16.04793 -0.3054,-32.30848 -0.7903,-44.47622 -0.4849,-12.16774 -1.2411,-20.24266 -2.4092,-19.91935 -1.1682,0.32332 -1.5811,8.71092 -1.6812,21.23912 -0.1001,12.52821 0.099,29.19702 0.201,46.08278 0.1017,16.88575 0.1048,33.98844 -0.2381,47.3844 -0.3429,13.39595 -1.0199,23.08517 -2.2126,25.14398 -1.1927,2.05881 -1.6996,-5.57152 -1.929,-18.15482 -0.2294,-12.58329 -0.2004,-30.11955 -0.2837,-47.87259 -0.083,-17.75304 -0.2795,-35.72285 -0.7716,-49.17326 -0.492,-13.45041 -1.2623,-22.38141 -2.4306,-22.05682 -1.1683,0.32459 -1.5663,9.61763 -1.6592,23.50067 -0.093,13.88303 0.1027,32.35606 0.1776,51.04061 0.075,18.68454 0.028,37.58062 -0.3637,52.30975 -0.3922,14.72913 -1.1152,25.29132 -2.3145,27.3081 -1.1993,2.01677 -1.6662,-6.52857 -1.8471,-20.4608 -0.1808,-13.93222 -0.099,-33.25133 -0.1515,-52.78208 -0.053,-19.53074 -0.2417,-39.27313 -0.7388,-54.05192 -0.4971,-14.77878 -1.2814,-24.59397 -2.4499,-24.27031 -1.1685,0.32366 -1.559,10.22563 -1.6525,24.8975 -0.093,14.67188 0.091,34.11366 0.1433,53.51695 0.052,19.40329 -0.028,38.76809 -0.4409,53.286 -0.4129,14.51791 -1.1395,24.18892 -2.3142,24.20465 -1.1748,0.0157 -1.623,-9.63952 -1.7975,-24.11116 -0.1745,-14.47165 -0.094,-33.75971 -0.1447,-53.00964 -0.05,-19.24993 -0.2308,-38.46173 -0.7165,-52.78085 -0.4857,-14.31912 -1.2571,-23.74557 -2.4258,-23.42479 -1.1687,0.32078 -1.5676,10.06669 -1.6708,24.50253 -0.1032,14.43585 0.071,33.56162 0.1173,52.6421 0.046,19.08048 -0.036,38.11567 -0.4475,52.37035 -0.4118,14.25469 -1.1353,23.72887 -2.3093,23.68734 -1.174,-0.0415 -1.6249,-9.55721 -1.8008,-23.78759 -0.1758,-14.23037 -0.095,-33.17546 -0.1401,-52.07584 -0.045,-18.90038 -0.2156,-37.75604 -0.6916,-51.80758 -0.4761,-14.05153 -1.2389,-23.29893 -2.4079,-22.98278 -1.1689,0.31615 -1.5766,9.87916 -1.6894,24.04139 -0.1129,14.16224 0.052,32.9237 0.093,51.63675 0.041,18.71305 -0.041,37.37769 -0.4504,51.34628 -0.4097,13.9686 -1.1293,23.24114 -2.3029,23.17001 -1.1736,-0.0711 -1.6281,-9.41477 -1.8064,-23.37083 -0.1783,-13.95607 -0.098,-32.52457 -0.1383,-51.04543 -0.04,-18.52087 -0.2012,-36.99409 -0.6678,-50.75961 -0.4666,-13.76552 -1.221,-22.82333 -2.3902,-22.51336 -1.1693,0.30996 -1.5856,9.67745 -1.7079,23.54883 -0.1222,13.87138 0.033,32.24666 0.07,50.57221 0.037,18.32555 -0.045,36.60138 -0.4514,50.27386 -0.4069,13.67247 -1.1222,22.7416 -2.2956,22.65376 -1.1734,-0.0878 -1.6321,-9.24477 -1.8132,-22.91185 -0.1812,-13.66709 -0.1017,-31.84433 -0.1379,-49.97279 -0.036,-18.12846 -0.1879,-36.20815 -0.6454,-49.68012 -0.4575,-13.47198 -1.2036,-22.33624 -2.3731,-22.03386 -1.1695,0.30238 -1.5943,9.46883 -1.7256,23.04237 -0.1314,13.57353 0.015,31.55413 0.047,49.4848 0.033,17.93068 -0.047,35.81142 -0.4511,49.18522 -0.4038,13.37381 -1.1147,22.24067 -2.288,22.1436 -1.1733,-0.0971 -1.6362,-9.06098 -1.8206,-22.43389 -0.1843,-13.37291 -0.1061,-31.15482 -0.1385,-48.8879 -0.032,-17.73308 -0.1753,-35.41734 -0.6241,-48.59495 -0.4487,-13.1776 -1.1869,-21.84856 -2.3567,-21.55503 -1.1698,0.29353 -1.6028,9.25788 -1.7428,22.53296 -0.14,13.27508 -0,30.86089 0.027,48.39736 0.029,17.53646 -0.05,35.02357 -0.4501,48.10125 -0.4005,13.07767 -1.107,21.74591 -2.2803,21.64463 -1.1733,-0.10129 -1.6406,-8.87078 -1.8281,-21.95031 -0.1876,-13.07954 -0.1108,-30.46914 -0.1398,-47.81062 -0.029,-17.34149 -0.1636,-34.63488 -0.6041,-47.52201 -0.4405,-12.88713 -1.1711,-21.36801 -2.3412,-21.08448 -1.1701,0.28353 -1.6108,9.04783 -1.7591,22.02844 -0.1482,12.98061 -0.019,30.17753 0.01,47.3263 0.026,17.14876 -0.051,34.24937 -0.4485,47.03737 -0.3973,12.788 -1.0995,21.26338 -2.2728,21.16169 -1.1733,-0.1017 -1.6449,-8.67875 -1.8357,-21.47008 -0.1907,-12.79133 -0.1154,-29.79696 -0.1412,-46.75581 -0.026,-16.95885 -0.1528,-33.87092 -0.5855,-46.47516 -0.4327,-12.60424 -1.1562,-20.90064 -2.3266,-20.62815 -1.1704,0.2725 -1.6184,8.8413 -1.7744,21.53505 -0.1559,12.69374 -0.034,29.51243 -0.011,46.28469 0.023,16.77226 -0.053,33.49809 -0.4468,46.00613 -0.3941,12.50803 -1.0923,20.79827 -2.2656,20.69935 -1.1733,-0.0989 -1.649,-8.48806 -1.8429,-20.99984 -0.1939,-12.51178 -0.12,-29.14619 -0.1429,-45.73568 -0.023,-16.58949 -0.1426,-33.13405 -0.5681,-45.46611 -0.4254,-12.33206 -1.1422,-20.45161 -2.3129,-20.1911 -1.1707,0.26051 -1.6257,8.64049 -1.7888,21.0581 -0.1631,12.41761 -0.048,28.87284 -0.028,45.28385 0.02,16.41102 -0.054,32.77781 -0.445,45.01855 -0.3912,12.24073 -1.0855,20.35541 -2.2589,20.26218 -1.1734,-0.0932 -1.653,-8.3011 -1.8498,-20.545 -0.1968,-12.24389 -0.1243,-28.52381 -0.1446,-44.76111 -0.02,-16.23731 -0.1332,-32.432 -0.5518,-44.50545 -0.4187,-12.07344 -1.1293,-20.02565 -2.3003,-19.77798 -1.171,0.24767 -1.6324,8.44745 -1.8022,20.60252 -0.1698,12.15507 -0.061,28.26542 -0.043,44.33425 0.018,16.06882 -0.055,32.09611 -0.4433,44.08505 -0.3884,11.98893 -1.0792,19.93951 -2.2527,19.8549 -1.1736,-0.0846 -1.6567,-8.11975 -1.8562,-20.11027 -0.1995,-11.99052 -0.1282,-27.9364 -0.146,-43.84245 -0.018,-15.90605 -0.1245,-31.77227 -0.5369,-43.60347 -0.4124,-11.8312 -1.1174,-19.62738 -2.2887,-19.39335 -1.1712,0.23403 -1.6385,8.26414 -1.8145,20.17311 -0.1759,11.90896 -0.073,27.69679 -0.058,43.44626 0.016,15.74947 -0.056,31.46058 -0.4419,43.21613 -0.3859,11.75554 -1.0736,19.55551 -2.2472,19.4827 -1.1737,-0.0728 -1.6601,-7.94559 -1.862,-19.70004 -0.2019,-11.75446 -0.1316,-27.39062 -0.1471,-42.99021 -0.015,-15.59959 -0.1163,-31.16263 -0.523,-42.77084 -0.4068,-11.60822 -1.1065,-19.26162 -2.2781,-19.04194 -1.1715,0.21967 -1.6442,8.09262 -1.8258,19.77488 -0.1816,11.68227 -0.084,27.17386 -0.071,42.63082 0.013,15.45696 -0.057,30.87929 -0.441,42.42303 -0.3838,11.54375 -1.0687,19.20891 -2.2426,19.15153 -1.1739,-0.0574 -1.6631,-7.77989 -1.867,-19.3186 -0.2039,-11.53871 -0.1344,-26.89361 -0.1476,-42.21577 -0.013,-15.32215 -0.1088,-30.61155 -0.5104,-42.01925 -0.4015,-11.4077 -1.0966,-18.9337 -2.2684,-18.72905 -1.1719,0.20465 -1.6494,7.93513 -1.8361,19.41341 -0.1867,11.47828 -0.094,26.70435 -0.083,41.90016 0.011,15.19581 -0.059,30.36136 -0.4407,41.71859 -0.3822,11.35724 -1.0648,18.90616 -2.2389,18.86872 -1.1742,-0.0374 -1.6658,-7.62378 -1.8712,-18.97043 -0.2055,-11.34664 -0.1364,-26.45359 -0.1474,-41.53223 -0.011,-15.07863 -0.1018,-30.12897 -0.4987,-41.36239 -0.3969,-11.23342 -1.0879,-18.64993 -2.26,-18.46092 -1.1721,0.18901 -1.6539,7.79431 -1.8451,19.09523 -0.1913,11.30091 -0.1032,26.29743 -0.094,41.26887 0.01,14.97144 -0.06,29.9178 -0.4413,41.1184 -0.381,11.20059 -1.062,18.65542 -2.2364,18.64378 -1.1744,-0.0116 -1.6679,-7.47807 -1.8744,-18.66038 -0.2065,-11.18232 -0.1373,-26.08051 -0.146,-40.95565 -0.01,-14.87514 -0.095,-29.72722 -0.488,-40.81732 -0.3928,-11.0901 -1.0803,-18.41822 -2.2526,-18.24541 -1.1724,0.1728 -1.6579,7.67341 -1.8532,18.82853 -0.1953,11.15511 -0.1113,25.96472 -0.1042,40.75553 0.01,14.79081 -0.063,29.56282 -0.4431,40.64271 -0.3805,11.0799 -1.0606,18.46768 -2.2354,18.49005 -1.1748,0.0224 -1.6695,-7.34303 -1.8763,-18.39396 -0.2068,-11.05093 -0.1369,-25.78739 -0.1433,-40.50713 -0.01,-14.71974 -0.089,-29.42277 -0.4781,-40.40684 -0.3892,-10.98407 -1.0737,-18.24919 -2.2463,-18.09311 -1.1727,0.15607 -1.6613,7.57679 -1.86,18.62437 -0.1988,11.04757 -0.1184,25.72201 -0.1136,40.38552 0,14.66351 -0.066,29.31609 -0.4467,40.31997 -0.3809,11.00387 -1.0609,18.35904 -2.2362,18.42772 -1.1754,0.0687 -1.6705,-7.21779 -1.8768,-18.17746 -0.2062,-10.95967 -0.1347,-25.59252 -0.1384,-40.2166 -0,-14.62409 -0.083,-29.2394 -0.4689,-40.16397 -0.3862,-10.92457 -1.0685,-18.1584 -2.2414,-18.01953 -1.1728,0.13887 -1.6638,7.515 -1.8654,18.50741 -0.2016,10.99242 -0.1245,25.60112 -0.1224,40.20512 0,14.60401 -0.071,29.20333 -0.4529,40.17697 -0.3822,10.97365 -1.0632,18.32163 -2.2389,18.42296 -1.1758,0.10134 -1.6702,-7.1453 -1.8749,-18.06467 -0.2047,-10.91937 -0.1306,-25.51148 -0.1314,-40.10111 -9e-4,-14.58963 -0.077,-29.17677 -0.4604,-40.0862 -0.3837,-10.90943 -1.0644,-18.14115 -2.2375,-18.01994 -1.1731,0.12121 -1.666,7.47404 -1.87,18.43682 -0.204,10.96278 -0.1299,25.5355 -0.1303,40.09648 -5e-4,14.56099 -0.075,29.11024 -0.4588,40.02608 -0.3833,10.91584 -1.0643,18.19827 -2.2392,18.2256 -1.1749,0.0273 -1.6687,-7.22774 -1.8726,-18.11929 -0.2038,-10.89154 -0.1287,-25.41956 -0.1277,-39.9381 0,-14.51854 -0.072,-29.02761 -0.4536,-39.88125 -0.3814,-10.85365 -1.0603,-18.05187 -2.2336,-17.94873 -1.1733,0.10314 -1.6682,7.40425 -1.8745,18.29535 -0.2063,10.8911 -0.1346,25.37218 -0.1365,39.83525 -0,14.46307 -0.077,28.90812 -0.4603,39.72717 -0.383,10.81905 -1.0629,18.01209 -2.2369,17.97113 -1.1741,-0.0409 -1.6684,-7.27494 -1.873,-18.09759 -0.2045,-10.82266 -0.1298,-25.23397 -0.128,-39.62958 0,-14.39561 -0.069,-28.77552 -0.4486,-39.53535 -0.3793,-10.75983 -1.0563,-17.89959 -2.2298,-17.81491 -1.1736,0.0847 -1.6706,7.30873 -1.8789,18.09099 -0.2084,10.78225 -0.1386,25.12271 -0.1409,39.4402 -0,14.31749 -0.077,28.61202 -0.4581,39.30242 -0.3813,10.6904 -1.059,17.77667 -2.2324,17.67764 -1.1734,-0.099 -1.6694,-7.28432 -1.8758,-18.00242 -0.2064,-10.71811 -0.1336,-24.96905 -0.1319,-39.19937 0,-14.23032 -0.068,-28.44003 -0.4453,-39.07569 -0.3774,-10.63566 -1.0524,-17.69728 -2.2262,-17.63142 -1.1738,0.0659 -1.6729,7.19283 -1.8831,17.83732 -0.2102,10.64449 -0.1417,24.8065 -0.1436,38.94247 -0,14.13597 -0.074,28.24589 -0.4527,38.7862 -0.3786,10.54031 -1.0535,17.51099 -2.2264,17.36849 -1.1729,-0.1425 -1.6714,-7.25568 -1.8807,-17.84237 -0.2092,-10.5867 -0.1392,-24.6469 -0.1384,-38.68346 8e-4,-14.03655 -0.068,-28.04946 -0.4435,-38.54154 -0.3758,-10.49209 -1.0488,-17.46336 -2.2228,-17.41665 -1.1741,0.0467 -1.6752,7.06408 -1.887,17.55338 -0.2118,10.4893 -0.1442,24.45051 -0.1449,38.38491 -7e-4,13.93439 -0.07,27.84196 -0.4451,38.22395 -0.3753,10.382 -1.047,17.23842 -2.2196,17.07053 -1.1727,-0.16789 -1.6743,-7.1922 -1.8869,-17.63252 -0.2126,-10.44032 -0.146,-24.29665 -0.1466,-38.12859 -6e-4,-13.83194 -0.068,-27.63949 -0.4429,-37.98224 -0.3745,-10.34275 -1.0458,-17.22071 -2.2201,-17.19346 -1.1742,0.0272 -1.6772,6.93181 -1.8903,17.26251 -0.213,10.33069 -0.1458,24.08751 -0.1449,37.81924 9e-4,13.73173 -0.065,27.43838 -0.4364,37.66873 -0.3719,10.23036 -1.0403,16.98442 -2.2129,16.81098 -1.1726,-0.17344 -1.6774,-7.10093 -1.8936,-17.39414 -0.2162,-10.29321 -0.1531,-23.95214 -0.1554,-37.58846 -0,-13.63631 -0.07,-27.25001 -0.4433,-37.45276 -0.3736,-10.20275 -1.0436,-16.99455 -2.218,-16.98706 -1.1745,0.007 -1.679,6.80618 -1.8929,16.99005 -0.2139,10.18388 -0.1467,23.75292 -0.144,37.30108 0,13.54817 -0.059,27.07545 -0.4277,37.17581 -0.3685,10.10035 -1.034,16.77377 -2.2068,16.61422 -1.1729,-0.15956 -1.6807,-6.99253 -1.9002,-17.15302 -0.2194,-10.16049 -0.1596,-23.64851 -0.1636,-37.11814 -0,-13.46964 -0.072,-26.9209 -0.4447,-37.00789 -0.373,-10.08699 -1.0421,-16.80971 -2.2168,-16.82227 -1.1747,-0.0126 -1.6803,6.69714 -1.8946,16.76069 -0.2143,10.06355 -0.1466,23.48097 -0.1422,36.88387 0,13.40291 -0.054,26.79131 -0.4199,36.79682 -0.3656,10.00552 -1.0288,16.62814 -2.202,16.49951 -1.1732,-0.12863 -1.6836,-6.87988 -1.9058,-16.93645 -0.2222,-10.05658 -0.1651,-23.41848 -0.1706,-36.7684 -0.01,-13.34993 -0.074,-26.68788 -0.4467,-36.69657 -0.373,-10.00868 -1.0417,-16.6881 -2.2166,-16.72094 -1.1749,-0.0329 -1.6811,6.61336 -1.8954,16.59589 -0.2142,9.98252 -0.1457,23.30136 -0.1396,36.61376 0.01,13.3124 -0.05,26.61837 -0.4137,36.57515 -0.3636,9.95678 -1.0254,16.56438 -2.1991,16.48005 -1.1736,-0.0843 -1.6858,-6.77626 -1.9098,-16.77005 -0.2241,-9.99378 -0.1689,-23.28943 -0.1758,-36.5812 -0.01,-13.29178 -0.076,-26.57969 -0.4494,-36.558 -0.3734,-9.97831 -1.0424,-16.64702 -2.2176,-16.70041 -1.1751,-0.0534 -1.6811,6.56172 -1.8948,16.51248 -0.2136,9.95076 -0.144,23.23717 -0.1365,36.52641 0.01,13.28925 -0.047,26.58132 -0.4096,36.54339 -0.3625,9.96207 -1.0238,16.59415 -2.1981,16.5634 -1.1742,-0.0308 -1.6872,-6.69357 -1.9121,-16.67514 -0.2249,-9.98156 -0.1706,-23.28187 -0.1785,-36.58761 -0.01,-13.30574 -0.078,-26.6169 -0.4527,-36.62016 -0.3745,-10.00327 -1.0445,-16.69864 -2.2199,-16.77279 -1.1754,-0.0742 -1.6806,6.54696 -1.893,16.52208 -0.2125,9.97513 -0.1413,23.30429 -0.1327,36.64626 0.01,13.34197 -0.045,26.69674 -0.4081,36.72311 -0.3625,10.02636 -1.0244,16.72431 -2.1993,16.75263 -1.1748,0.0283 -1.6876,-6.6413 -1.9122,-16.66762 -0.2245,-10.02631 -0.17,-23.40931 -0.1786,-36.80775 -0.01,-13.39843 -0.08,-26.8123 -0.4567,-36.90034 -0.3763,-10.08804 -1.048,-16.85025 -2.2237,-16.94539 -1.1756,-0.0951 -1.6792,6.57192 -1.8898,16.63162 -0.2106,10.05969 -0.1375,23.51204 -0.1282,36.98749 0.01,13.47546 -0.045,26.97403 -0.4091,37.12618 -0.3638,10.15214 -1.0275,16.95787 -2.2029,17.04764 -1.1755,0.0898 -1.687,-6.62618 -1.91,-16.75787 -0.2231,-10.13169 -0.1672,-23.67912 -0.1761,-37.25231 -0.01,-13.57319 -0.083,-27.17215 -0.4613,-37.40688 -0.3787,-10.23474 -1.053,-17.10526 -2.2289,-17.22158 -1.1759,-0.11632 -1.6771,6.63791 -1.8852,16.84413 -0.208,10.20622 -0.1326,23.86444 -0.123,37.55611 0.01,13.69167 -0.047,27.4168 -0.4129,37.75683 -0.3663,10.34002 -1.033,17.29496 -2.2092,17.44625 -1.1761,0.1513 -1.685,-6.65234 -1.9053,-16.9515 -0.2202,-10.29916 -0.1618,-24.09385 -0.1705,-37.92466 -0.01,-13.83081 -0.085,-27.69775 -0.4667,-38.14141 -0.3818,-10.44366 -1.0595,-17.46405 -2.2358,-17.60175 -1.1762,-0.13771 -1.6727,6.85837 -1.877,17.38648 -0.2043,10.52812 -0.1269,24.58827 -0.1186,38.57872 0.01,13.99044 -0.053,27.91119 -0.4201,38.16049 -0.3677,10.2493 -1.0313,16.82715 -2.1986,16.13182 -1.1672,-0.69533 -1.6731,-7.96851 -1.8959,-18.49711 -0.2227,-10.5286 -0.1711,-24.31262 -0.1854,-38.02964 -0.014,-13.71702 -0.095,-27.36703 -0.4779,-37.6276 -0.3834,-10.26057 -1.0608,-17.13171 -2.2373,-17.29099 -1.1765,-0.15927 -1.6799,6.23681 -1.887,15.7924 -0.2071,9.55559 -0.1268,22.27069 -0.1026,34.74944 0.048,24.95749 -0.1485,48.9696 -2.4679,44.8695 -1.1597,-2.05005 -1.6955,-9.0781 -1.9567,-18.47833 -0.2611,-9.40024 -0.2526,-21.17265 -0.29,-32.71144 -0.075,-23.07757 -0.3555,-45.22063 -2.7091,-45.58267 -1.1769,-0.18103 -1.6908,5.3352 -1.9038,13.57169 -0.2131,8.23649 -0.1318,19.19324 -0.093,29.89324 0.079,21.4 -0.023,41.77303 -2.3546,37.30308 -2.3314,-4.46996 -2.2754,-24.84296 -2.3738,-44.19995 -0.098,-19.35699 -0.3368,-37.69796 -2.6912,-38.10385 -2.3543,-0.40589 -2.1429,15.66161 -2.0375,32.67737 0.1053,17.01575 0.092,34.97975 -2.2622,38.36686 -2.3548,3.3871 -2.31,-14.57688 -2.4083,-33.50015 -0.098,-18.92327 -0.3557,-38.80583 -2.7107,-39.25589 -2.3551,-0.45006 -2.0863,19.43249 -1.9823,40.27774 0.1039,20.84525 0.028,42.65319 -2.3365,46.05392 -2.3642,3.40072 -2.249,-18.40721 -2.3399,-41.18895 -0.045,-11.39087 -0.1381,-23.02519 -0.5248,-31.87362 -0.3866,-8.84843 -1.0604,-14.91095 -2.2383,-15.15823 -2.3558,-0.49455 -2.0252,23.261 -1.9314,47.99381 0.047,12.36641 0.041,24.97713 -0.2859,34.92307 -0.327,9.94593 -0.9687,17.22707 -2.1556,18.93432 -1.1869,1.70726 -1.7265,-3.86865 -1.9779,-13.20857 -0.2514,-9.33992 -0.2254,-22.44387 -0.2628,-35.7927 -0.037,-13.34883 -0.1388,-26.94254 -0.54,-37.26201 -0.4012,-10.31947 -1.0928,-17.3647 -2.2708,-17.61654 -1.1781,-0.25184 -1.6633,6.54153 -1.8468,16.9804 -0.1835,10.43887 -0.075,24.52323 -0.038,38.85334 0.037,14.33012 0,28.90599 -0.355,40.3279 -0.3581,11.4219 -1.0315,19.68983 -2.2232,21.40406 -1.1917,1.71423 -1.7038,-4.83957 -1.9236,-15.64867 -0.2199,-10.80909 -0.1616,-25.87348 -0.1861,-41.18043 -0.024,-15.30695 -0.1326,-30.85646 -0.5479,-42.6358 -0.4152,-11.77934 -1.1253,-19.78851 -2.3031,-20.01477 -1.1778,-0.22626 -1.642,7.69697 -1.8106,19.7465 -0.1685,12.04954 -0.055,28.22538 -0.034,44.50433 0.021,16.27896 -0.052,32.66103 -0.4445,45.12303 -0.3928,12.462 -1.0932,21.00393 -2.2751,21.6026 -1.182,0.59867 -1.6611,-7.3447 -1.8521,-19.60884 -0.191,-12.26414 -0.1089,-28.84906 -0.1247,-45.53347 -0.016,-16.68441 -0.13,-33.46833 -0.5552,-46.13047 -0.4252,-12.66214 -1.1472,-21.20251 -2.3246,-21.39984 -1.1775,-0.19732 -1.6335,8.06112 -1.7952,20.55459 -0.1617,12.49347 -0.044,29.22196 -0.024,45.96472 0.019,16.74276 -0.06,33.4998 -0.4573,46.05036 -0.3974,12.55056 -1.0983,20.89465 -2.2719,20.81151 -1.1735,-0.0831 -1.6463,-8.51049 -1.8366,-21.11504 -0.1902,-12.60455 -0.112,-29.38629 -0.1329,-46.1782 -0.021,-16.79191 -0.141,-33.59399 -0.57,-46.23921 -0.429,-12.64522 -1.1528,-21.13359 -2.3299,-21.29807 -1.177,-0.16448 -1.6295,8.15909 -1.7871,20.73244 -0.1576,12.57335 -0.035,29.39648 -0.012,46.23113 0.023,16.83465 -0.054,33.68081 -0.4499,46.30023 -0.396,12.61942 -1.0965,21.01209 -2.2702,20.93974 -1.1736,-0.0723 -1.647,-8.53752 -1.8386,-21.20252 -0.1916,-12.665 -0.1158,-29.52983 -0.14,-46.4015 -0.024,-16.87167 -0.1485,-33.75019 -0.581,-46.44255 -0.4325,-12.69236 -1.1588,-21.19857 -2.3353,-21.32563 -1.1765,-0.12707 -1.6262,8.25199 -1.7805,20.88855 -0.1542,12.63657 -0.028,29.53065 -0,46.43361 0.026,16.90297 -0.049,33.81483 -0.4437,46.48697 -0.3948,12.67214 -1.0949,21.10455 -2.2688,21.04862 -1.1739,-0.0559 -1.6478,-8.54445 -1.8405,-21.25104 -0.1927,-12.70659 -0.1188,-29.63125 -0.1456,-46.55946 -0.027,-16.92821 -0.1544,-33.85996 -0.5894,-46.58074 -0.4351,-12.72078 -1.163,-21.23058 -2.3389,-21.31488 -1.1758,-0.0843 -1.6234,8.34117 -1.7753,21.02443 -0.1519,12.68325 -0.023,29.62431 0,46.57118 0.028,16.94687 -0.045,33.89957 -0.4392,46.60611 -0.3939,12.70654 -1.0937,21.16693 -2.2678,21.1292 -1.1741,-0.0377 -1.6485,-8.53607 -1.842,-21.26456 -0.1936,-12.72848 -0.121,-29.68711 -0.1495,-46.64543 -0.028,-16.95832 -0.1581,-33.91633 -0.5946,-46.64357 -0.4365,-12.72725 -1.1653,-21.22373 -2.3404,-21.25899 -1.1751,-0.0353 -1.6213,8.42594 -1.7719,21.13641 -0.1507,12.71046 -0.021,29.6702 0.01,46.632 0.029,16.9618 -0.043,33.92567 -0.4365,46.64442 -0.3933,12.71874 -1.093,21.19236 -2.2673,21.17366 -1.1743,-0.0187 -1.6491,-8.51127 -1.8432,-21.23828 -0.1941,-12.72702 -0.1221,-29.68848 -0.1513,-46.64496 -0.029,-16.95648 -0.1595,-33.90798 -0.5963,-46.61508 -0.4367,-12.7071 -1.1651,-21.1698 -2.3393,-21.14868 -1.1743,0.0211 -1.6201,8.50493 -1.7708,21.21882 -0.1507,12.71388 -0.021,29.65785 0.01,46.59928 0.029,16.94143 -0.043,33.88034 -0.436,46.5841 -0.393,12.70376 -1.0924,21.17239 -2.2669,21.17327 -1.1746,8.7e-4 -1.6498,-8.46716 -1.8441,-21.16433 -0.1943,-12.69717 -0.1224,-29.62347 -0.1512,-46.53912 -0.029,-16.91565 -0.1581,-33.82065 -0.5936,-46.47522 -0.4355,-12.65458 -1.1623,-21.05872 -2.3355,-20.97266 -1.1733,0.0861 -1.62,8.57626 -1.7722,21.26445 -0.1521,12.68819 -0.024,29.57438 0,46.45241 0.028,16.87804 -0.045,33.74794 -0.4376,46.40355 -0.393,12.65561 -1.0921,21.09695 -2.2669,21.11786 -1.1748,0.0209 -1.6505,-8.39984 -1.8447,-21.03267 -0.1943,-12.63283 -0.1217,-29.47774 -0.1487,-46.30516 -0.027,-16.82741 -0.1537,-33.63733 -0.5863,-46.20017 -0.4326,-12.56284 -1.1564,-20.8786 -2.3285,-20.7177 -1.1721,0.1609 -1.621,8.63755 -1.7764,21.2646 -0.1554,12.62705 -0.031,29.4045 -0.01,46.16701 0.025,16.76252 -0.048,33.5101 -0.4417,46.0774 -0.3932,12.56729 -1.0919,20.95431 -2.2669,20.99571 -1.1751,0.0414 -1.6514,-8.30459 -1.8453,-20.83143 -0.1939,-12.52684 -0.1199,-29.23453 -0.1439,-45.91651 -0.024,-16.68199 -0.1457,-33.33827 -0.5736,-45.76231 -0.4278,-12.42404 -1.147,-20.61584 -2.3178,-20.36884 -1.1709,0.247 -1.6235,8.68577 -1.7841,21.2089 -0.1605,12.52313 -0.043,29.1306 -0.022,45.715 0.021,16.58439 -0.054,33.14571 -0.4481,45.57651 -0.3937,12.43081 -1.0918,20.73111 -2.2671,20.79346 -1.1753,0.0624 -1.6524,-8.17598 -1.8458,-20.54698 -0.1934,-12.37099 -0.1173,-28.87464 -0.1366,-45.34288 -0.019,-16.46824 -0.1341,-32.90107 -0.5551,-45.13045 -0.4209,-12.22938 -1.1337,-20.25529 -2.3032,-19.9097 -1.1696,0.3456 -1.6277,8.7171 -1.7956,21.08518 -0.1679,12.36809 -0.059,28.73277 -0.043,45.06472 0.015,16.33196 -0.063,32.63119 -0.4571,44.8684 -0.3944,12.2372 -1.0916,20.41237 -2.2672,20.49621 -1.1756,0.0838 -1.6537,-8.00793 -1.8465,-20.16414 -0.1927,-12.1562 -0.1137,-28.37685 -0.1269,-44.55079 -0.013,-16.17394 -0.1184,-32.30117 -0.5302,-44.27054 -0.4118,-11.96937 -1.1162,-19.78087 -2.2845,-19.32337 -1.1682,0.45751 -1.6338,8.7265 -1.8113,20.87926 -0.1775,12.15277 -0.079,28.1893 -0.071,44.18187 0.01,15.99258 -0.073,31.9412 -0.4683,43.91815 -0.3951,11.97695 -1.0911,19.98222 -2.267,20.08809 -1.1758,0.10588 -1.6555,-7.79391 -1.8476,-19.66675 -0.192,-11.87283 -0.1095,-27.7187 -0.1149,-43.50498 -0.01,-15.78627 -0.099,-31.51295 -0.499,-43.14741 -0.4004,-11.63445 -1.0944,-19.17667 -2.2614,-18.59403 -1.167,0.58264 -1.6422,8.70748 -1.8318,20.57504 -0.1895,11.86756 -0.1052,27.47785 -0.1058,43.03137 -5e-4,15.55352 -0.086,31.05028 -0.4816,42.6908 -0.3958,11.64052 -1.09,19.42479 -2.2662,19.55334 -1.1761,0.12855 -1.6579,-7.52749 -1.8493,-19.0389 -0.1915,-11.51142 -0.105,-26.8782 -0.1012,-42.17112 0,-15.29293 -0.075,-30.51201 -0.4614,-41.728 -0.3866,-11.216 -1.0684,-18.42892 -2.2344,-17.70953 -1.1659,0.71938 -1.6528,8.65166 -1.8569,20.15492 -0.204,11.50326 -0.1358,26.5775 -0.1466,41.58081 -0.011,15.0033 -0.1004,29.93568 -0.4965,41.15521 -0.3962,11.21952 -1.088,18.7262 -2.2645,18.87812 -1.1765,0.15192 -1.661,-7.203 -1.8521,-18.26684 -0.1911,-11.06384 -0.1005,-25.8366 -0.086,-40.52036 0.014,-14.68375 -0.047,-29.2785 -0.4183,-39.98632 -0.3708,-10.70782 -1.0386,-17.52872 -2.2039,-16.66476 -1.1654,0.86395 -1.6661,8.54878 -1.8867,19.60104 -0.2206,11.05227 -0.1707,25.47198 -0.1928,39.8057 -0.022,14.33372 -0.1158,28.58145 -0.5119,39.28977 -0.3962,10.70831 -1.0849,17.87721 -2.2618,18.05327 -1.1768,0.17605 -1.6647,-6.81672 -1.856,-17.34178 -0.1913,-10.52505 -0.097,-24.5824 -0.071,-38.5355 0.026,-13.95309 -0.018,-27.80194 -0.371,-37.90999 -0.3535,-10.10805 -1.0061,-16.47532 -2.1715,-15.46525 -1.1654,1.01007 -1.6815,8.38737 -1.9203,18.89772 -0.2389,10.51036 -0.2086,24.15377 -0.2424,37.69605 -0.034,13.54228 -0.1314,26.98343 -0.527,37.08927 -0.3955,10.10584 -1.0802,16.87638 -2.2575,17.07742 -1.1773,0.20104 -1.6695,-6.3681 -1.8617,-16.26306 -0.1922,-9.89495 -0.094,-23.11573 -0.056,-36.21796 0.037,-13.10224 0.014,-26.08593 -0.3218,-35.50673 -0.3353,-9.4208 -0.9722,-15.27871 -2.1383,-14.12936 -1.1662,1.14935 -1.699,8.15657 -1.9569,18.03508 -0.2578,9.87851 -0.2476,22.62831 -0.293,35.26281 -0.045,12.6345 -0.146,25.1537 -0.54,34.57101 -0.3941,9.41732 -1.0741,15.73275 -2.2518,15.95971 -1.1777,0.22695 -1.675,-5.86089 -1.8691,-15.04077 -0.194,-9.17989 -0.093,-21.4518 -0.044,-33.59298 0.048,-12.14118 0.044,-24.15163 -0.2732,-32.80856 -0.3173,-8.65694 -0.9389,-13.96037 -2.1066,-12.68753 -1.1678,1.27285 -1.7177,7.84909 -1.9944,17.01335 -0.2767,9.16426 -0.2859,20.91653 -0.3418,32.54144 -0.1118,23.24981 -0.4376,45.99015 -2.7939,46.49796 -1.1782,0.2539 -1.6816,-5.30342 -1.8785,-13.6964 -0.197,-8.39298 -0.094,-19.62162 -0.036,-30.71036 0.1161,-22.17748 0.034,-43.79533 -2.3065,-41.04903 -2.3405,2.7463 -2.2874,24.36401 -2.4167,45.43613 -0.1293,21.07212 -0.4322,41.59866 -2.7896,42.16264 -2.3574,0.56397 -2.0546,-19.95907 -1.923,-39.89999 0.1316,-19.94093 0.1021,-39.29973 -2.2445,-36.40729 -2.3466,2.89244 -2.3447,22.25109 -2.4865,41.04228 -0.1418,18.79119 -0.4194,37.01494 -2.778,37.63758 -2.3586,0.62265 -2.0807,-17.5978 -1.939,-35.22795 0.1418,-17.63015 0.1567,-34.66998 -2.197,-31.6861 -2.3538,2.98388 -2.3936,20.02354 -2.5421,36.48824 -0.1486,16.46471 -0.399,32.35447 -2.7589,33.03856 -2.3599,0.68409 -2.1088,-15.20289 -1.9629,-30.50425 0.146,-15.30135 0.1952,-30.01708 -2.1661,-26.99047 -2.3613,3.02661 -2.4321,17.74214 -2.5812,31.88816 -0.1492,14.14602 -0.3709,27.72254 -2.7322,28.47114 -2.3614,0.7486 -2.1387,-12.82577 -1.9946,-25.82981 0.1441,-13.00404 0.2167,-25.43774 -2.1521,-22.4078 -2.3688,3.02995 -2.4596,15.46343 -2.6033,27.34355 -0.1437,11.88013 -0.3357,23.2069 -2.6987,24.02343 -2.363,0.81653 -2.1697,-10.5087 -2.0334,-21.2871 0.1364,-10.7784 0.2216,-21.00997 -2.1544,-18.00611 -2.3761,3.00385 -2.4761,13.23516 -2.6087,22.93758 -0.1325,9.70242 -0.2942,18.87593 -2.659,19.76419 -2.3649,0.88825 -2.2018,-8.28423 -2.0786,-16.93946 0.1233,-8.65523 0.2112,-16.79321 -2.1716,-13.83595 -2.3829,2.95726 -2.4823,11.09496 -2.5988,18.7344 -0.1164,7.63944 -0.2475,14.78062 -2.6144,15.74485 -2.3669,0.96423 -2.2345,-6.17631 -2.129,-12.83356 0.1054,-6.65726 0.1872,-12.83123 -2.2019,-9.93385 -2.3891,2.89737 -2.4794,9.07102 -2.5755,14.78157 -0.096,5.71055 -0.1966,10.95801 -2.5659,12.00298 -2.3692,1.04498 -2.2675,-4.20212 -2.1837,-9.00306 0.084,-4.80095 0.1519,-9.15574 -2.2429,-6.32615 -4.7896,5.65919 -0.3118,17.41774 -5.0556,19.67995 -4.7439,2.26222 0.2659,-14.02014 -4.534,-8.50455 -4.7999,5.5156 -0.2097,10.76514 -4.9597,13.21184 -4.7499,2.4467 0.1596,-7.69616 -4.6495,-2.32684 -4.8092,5.36932 -0.1003,4.77168 -4.8571,7.41679 -4.7569,2.64512 -2.3617,0.56421 -2.3617,0.56421"
       style="fill:none;stroke:#000000;stroke-width:0.99999994px;stroke-linecap:butt;stroke-linejoin:miter;stroke-opacity:1" />
    <path
       inkscape:connector-curvature="0"
       id="path3090-9"
       d="m 1301.0625,371.3125 c -24.4819,46.806 -48.9849,93.60123 -73.4687,140.40625 51.3956,0.54381 102.7914,1.08333 154.1874,1.59375 -26.9163,-47.37225 -53.7086,-94.81525 -80.625,-142.1875 -0.031,0.0625 -0.062,0.125 -0.094,0.1875 z m 446.5313,1.375 c -19.7733,30.25524 -39.4881,60.64812 -59.1611,91.00681 -8.606,13.2815 -17.2602,26.54774 -25.8389,39.83694 -0.3484,0.83842 0.6147,1.37988 1.3437,1.15625 8.756,-0.0824 17.5124,0.0725 26.2687,0.0364 50.4417,0.11273 100.8834,0.22657 151.325,0.3386 -12.0146,-17.25557 -24.2864,-34.33236 -36.3928,-51.52422 -19.0768,-27.04403 -38.3266,-53.96553 -57.4509,-80.97578 l -0.06,0.08 -0.034,0.045 z m -219.25,149.65625 c -2.2376,2.73277 -3.9571,5.89722 -6.0178,8.78217 -13.0165,19.76258 -26.0838,39.49229 -39.0135,59.31158 27.6353,0.14953 55.2707,0.28894 82.9063,0.40625 -8.4588,-16.13845 -17.3165,-32.07475 -25.9623,-48.11914 -3.6473,-6.71635 -7.3086,-13.42504 -10.9753,-20.13086 -0.246,-0.20182 -0.5862,-0.36687 -0.9374,-0.25 z m 247.375,148.96875 c -8.9315,0.2479 -17.852,1.09264 -26.6632,2.57457 -5.2978,0.89054 -10.534,2.09408 -15.7448,3.39237 -7.942,1.98928 -15.8105,4.25807 -23.7197,6.37202 -16.6716,4.55508 -33.323,9.18424 -50.0004,13.71747 -14.3958,3.73219 -28.794,7.46875 -43.2934,10.78137 -10.4792,2.38725 -20.9982,4.59731 -31.5582,6.59767 -12.9595,2.48523 -25.9817,4.65114 -39.0604,6.40553 -15.6358,2.0824 -31.3483,3.60285 -47.0965,4.50885 -8.815,0.49943 -17.6401,0.81199 -26.4695,0.86904 -14.9948,0.15506 -29.9966,-0.3189 -44.9523,-1.41075 -9.7044,-0.71427 -19.3889,-1.7117 -29.0407,-2.94655 -12.4359,-1.64586 -24.823,-3.67243 -37.1056,-6.22752 -9.3702,-1.89928 -18.6944,-4.0279 -28.1089,-5.70457 -7.3803,-1.29864 -14.8081,-2.32216 -22.2546,-3.1588 -7.8569,-0.87808 -15.7583,-1.37916 -23.6631,-1.48945 -10.6353,-0.0619 -21.2967,0.74817 -31.7442,2.77411 -8.3772,1.61229 -16.5671,4.1773 -24.3893,7.57754 -4.7051,2.15631 -9.4135,4.32796 -13.8148,7.06328 -4.0119,2.39581 -7.8518,5.06936 -11.5704,7.89757 -3.3462,2.77635 -6.711,5.60685 -9.9748,8.50873 -4.6279,4.08976 -9.007,8.45655 -13.2823,12.91092 -5.2415,5.56691 -10.2933,11.30947 -15.2032,17.17018 -4.0799,4.81931 -8.0375,9.73973 -12.071,14.59767 -0.8316,1.08275 -1.5734,2.10847 -2.4702,3.17005 -2.7663,3.47248 -5.5719,6.8773 -8.3111,10.3612 -0.6357,0.91261 -1.5254,1.87447 -2.2324,2.82557 -7.7363,10.02936 -15.6232,19.94348 -23.3371,29.98916 -0.822,1.18352 -2.0073,2.34955 -2.9305,3.56027 -1.9844,2.43871 -3.9149,4.98562 -5.875,7.46875 -0.7981,1.05845 -1.8178,2.22154 -2.7011,3.32022 -11.2279,13.66379 -22.6919,27.13575 -34.5205,40.2841 -2.3001,2.60016 -4.715,5.16694 -6.9971,7.73943 -0.3639,0.82735 0.7909,1.44744 1.4203,0.88361 2.4756,-1.33312 4.8937,-2.80689 7.3917,-4.11638 8.6702,-4.69787 17.5527,-9.03311 26.614,-12.93994 8.4059,-3.60367 16.9096,-6.98717 25.5583,-9.96656 9.4341,-3.25477 18.9974,-6.12796 28.6274,-8.74383 16.9475,-4.43888 34.1531,-7.90042 51.5,-10.34758 11.053,-1.52402 22.1516,-2.71944 33.2819,-3.50749 7.6152,-0.54288 15.2399,-0.94697 22.8729,-1.12597 17.4792,-0.50063 34.98,-0.13232 52.4299,0.97409 6.4655,0.40953 12.9297,0.9018 19.3973,1.2338 0.5467,-0.0664 0.9549,-0.35814 1.0573,-0.89451 12.9136,-18.56559 25.9698,-37.03302 38.6927,-55.73049 2.2106,5.47917 4.4679,10.95266 7.2813,16.15625 2.2836,4.2382 5.0177,8.23119 7.4898,12.36648 2.9142,4.66046 5.2344,9.65417 7.2054,14.78055 0.6739,1.69984 1.3348,3.40495 1.9298,5.13422 5.1054,-1.12743 10.2924,-1.86814 15.4932,-2.39809 8.6457,-0.84949 17.3482,-1.18744 26.0316,-0.83901 6.6423,0.22395 13.2608,0.89799 19.858,1.68043 10.5951,1.28059 21.1288,3.0158 31.7128,4.3793 6.0076,0.771 12.032,1.42323 18.083,1.73211 9.2996,0.55743 18.6248,0.0567 27.8885,-0.81749 6.905,-0.5728 13.8394,-0.63658 20.764,-0.62328 7.4817,0.0557 14.9624,0.26908 22.4334,0.67896 11.1196,0.55308 22.2134,1.50839 33.3109,2.38351 14.9531,1.19491 29.8918,2.57261 44.8526,3.66826 7.895,0.51589 15.8073,0.96246 23.7217,0.82818 2.4623,-0.0952 4.9305,-0.11568 7.3816,-0.39163 5.251,-10.12199 10.8276,-20.08606 16.7125,-29.85966 4.2303,-7.08914 8.4477,-14.19328 12.2194,-21.53492 1.3019,-2.4733 2.6159,-4.94067 3.8493,-7.44917 10.793,20.6977 21.6348,41.36989 32.4375,62.0625 0.3082,1.09679 1.6312,1.10623 2.5799,1.09073 14.0569,1.37019 28.1298,2.56365 42.202,3.76311 20.9422,1.84619 41.9076,3.41208 62.8589,5.14932 20.2126,1.65894 40.4281,3.28657 60.6246,5.13429 15.6583,1.40078 31.2943,3.04132 46.9266,4.70436 22.7178,2.48209 45.3944,5.32904 68.048,8.33801 3.2533,0.45081 6.5069,0.89902 9.76,1.35143 -9.901,-14.45901 -20.0292,-28.76687 -30.5695,-42.76817 -4.4432,-5.83221 -8.8843,-11.6669 -13.4305,-17.41933 -5.4116,-6.46102 -10.6735,-13.10972 -16.1386,-19.55091 -9.7432,-11.58779 -19.7376,-22.97483 -30.2951,-33.83097 -6.6417,-6.9239 -13.438,-13.70024 -20.4578,-20.24137 -6.3159,-5.88573 -12.8304,-11.55724 -19.4465,-17.10207 -5.0765,-4.20086 -10.1218,-8.38795 -15.4308,-12.29122 -3.6512,-2.71751 -7.4068,-5.29292 -11.1664,-7.85692 -9.2513,-6.21619 -18.8508,-11.93443 -28.8666,-16.8243 -10.1007,-5.10893 -20.6143,-9.39725 -31.4114,-12.79575 -8.776,-2.72554 -17.745,-4.87037 -26.8521,-6.13259 -7.38,-1.10408 -14.8291,-1.73896 -22.2905,-1.86905 -1.9942,-0.0685 -3.993,-0.0389 -5.9879,-0.005 z"
       style="fill:none;stroke:#000000;stroke-width:0.99999994px;stroke-linecap:butt;stroke-linejoin:miter;stroke-opacity:1" />
  </g>
</svg>
