<?xml version="1.0" encoding="UTF-8" standalone="no"?>
<!-- Created with Inkscape (http://www.inkscape.org/) -->

<svg
   xmlns:dc="http://purl.org/dc/elements/1.1/"
   xmlns:cc="http://creativecommons.org/ns#"
   xmlns:rdf="http://www.w3.org/1999/02/22-rdf-syntax-ns#"
   xmlns:svg="http://www.w3.org/2000/svg"
   xmlns="http://www.w3.org/2000/svg"
   xmlns:sodipodi="http://sodipodi.sourceforge.net/DTD/sodipodi-0.dtd"
   xmlns:inkscape="http://www.inkscape.org/namespaces/inkscape"
   width="3200"
   height="800"
   id="svg27345"
   version="1.1"
   inkscape:version="0.92.2 5c3e80d, 2017-08-06"
   sodipodi:docname="jackolantern-happy.svg">
  <sodipodi:namedview
     id="base"
     pagecolor="#ffffff"
     bordercolor="#666666"
     borderopacity="1.0"
     inkscape:pageopacity="0.0"
     inkscape:pageshadow="2"
     inkscape:zoom="0.365"
     inkscape:cx="1597.2603"
     inkscape:cy="400"
     inkscape:document-units="px"
     inkscape:current-layer="layer1"
     showgrid="false"
     inkscape:window-width="1680"
     inkscape:window-height="1005"
     inkscape:window-x="0"
     inkscape:window-y="1"
     inkscape:window-maximized="1" />
  <defs
     id="defs27347">
    <inkscape:path-effect
       effect="rough_hatches"
       id="path-effect29010"
       is_visible="true"
       direction="1516.8438,358.96195 , -26.528039,11.18847"
       dist_rdm="0;1"
       growth="0"
       do_bend="true"
       bender="1516.8438,363.96195 , 5,0"
       bottom_edge_variation="0;1"
       top_edge_variation="0;1"
       bottom_tgt_variation="0;1"
       top_tgt_variation="0;1"
       scale_bf="2"
       scale_bb="2"
       scale_tf="2"
       scale_tb="2"
       top_smth_variation="0;1"
       bottom_smth_variation="0;1"
       fat_output="false"
       stroke_width_top="1"
       stroke_width_bottom="1"
       front_thickness="1"
       back_thickness="0.25" />
    <inkscape:path-effect
       effect="rough_hatches"
       id="path-effect12466"
       is_visible="true"
       direction="1556.2948,627.991 , 23.491025,0"
       dist_rdm="0;1"
       growth="0"
       do_bend="true"
       bender="1556.2948,632.991 , 5,0"
       bottom_edge_variation="0;1"
       top_edge_variation="0;1"
       bottom_tgt_variation="0;1"
       top_tgt_variation="0;1"
       scale_bf="2"
       scale_bb="2"
       scale_tf="2"
       scale_tb="2"
       top_smth_variation="0;1"
       bottom_smth_variation="0;1"
       fat_output="false"
       stroke_width_top="1"
       stroke_width_bottom="1"
       front_thickness="1"
       back_thickness="0.25" />
    <inkscape:path-effect
       effect="rough_hatches"
       id="path-effect3100"
       is_visible="true"
       direction="1544.6875,629.74717 , 19.501848,0"
       dist_rdm="0;1"
       growth="0"
       do_bend="true"
       bender="1544.6875,634.74717 , 5,0"
       bottom_edge_variation="0;1"
       top_edge_variation="0;1"
       bottom_tgt_variation="0;1"
       top_tgt_variation="0;1"
       scale_bf="2"
       scale_bb="2"
       scale_tf="2"
       scale_tb="2"
       top_smth_variation="0;1"
       bottom_smth_variation="0;1"
       fat_output="false"
       stroke_width_top="1"
       stroke_width_bottom="1"
       front_thickness="1"
       back_thickness="0.25" />
    <inkscape:path-effect
       back_thickness="0.25"
       front_thickness="1"
       stroke_width_bottom="1"
       stroke_width_top="1"
       fat_output="false"
       bottom_smth_variation="0;1"
       top_smth_variation="0;1"
       scale_tb="2"
       scale_tf="2"
       scale_bb="2"
       scale_bf="2"
       top_tgt_variation="0;1"
       bottom_tgt_variation="0;1"
       top_edge_variation="0;1"
       bottom_edge_variation="0;1"
       bender="1542.7188,613.88122 , 5,0"
       do_bend="true"
       growth="0"
       dist_rdm="0;1"
       direction="1542.7188,608.88122 , 26.788776,-3.1724596e-08"
       is_visible="true"
       id="path-effect3070"
       effect="rough_hatches" />
    <inkscape:perspective
       sodipodi:type="inkscape:persp3d"
       inkscape:vp_x="0 : 526.18109 : 1"
       inkscape:vp_y="0 : 1000 : 0"
       inkscape:vp_z="744.09448 : 526.18109 : 1"
       inkscape:persp3d-origin="372.04724 : 350.78739 : 1"
       id="perspective27353" />
    <inkscape:path-effect
       effect="rough_hatches"
       id="path-effect29010-4"
       is_visible="true"
       direction="1516.8435,358.96194 , -26.528039,11.18847"
       dist_rdm="0;1"
       growth="0"
       do_bend="true"
       bender="1516.8435,363.96194 , 5,0"
       bottom_edge_variation="0;1"
       top_edge_variation="0;1"
       bottom_tgt_variation="0;1"
       top_tgt_variation="0;1"
       scale_bf="2"
       scale_bb="2"
       scale_tf="2"
       scale_tb="2"
       top_smth_variation="0;1"
       bottom_smth_variation="0;1"
       fat_output="false"
       stroke_width_top="1"
       stroke_width_bottom="1"
       front_thickness="1"
       back_thickness="0.25" />
  </defs>
  <metadata
     id="metadata27350">
    <rdf:RDF>
      <cc:Work
         rdf:about="">
        <dc:format>image/svg+xml</dc:format>
        <dc:type
           rdf:resource="http://purl.org/dc/dcmitype/StillImage" />
        <dc:title />
      </cc:Work>
    </rdf:RDF>
  </metadata>
  <g
     inkscape:label="2-black"
     inkscape:groupmode="layer"
     id="layer1"
     transform="translate(0,-252.36218)"
     style="display:inline">
    <path
       inkscape:connector-curvature="0"
       style="fill:none;stroke:#000000;stroke-width:0.99999994px;stroke-linecap:butt;stroke-linejoin:miter;stroke-opacity:1"
       d="m 1301.1562,120.53125 -0.4062,0.78125 -0.375,0.6875 c -23.8399,45.5437 -47.7107,91.0714 -71.5312,136.625 50.4786,0.5574 100.9582,1.09015 151.4374,1.59375 -26.4051,-46.5452 -52.7473,-93.1266 -79.125,-139.6875 z m 446.5313,1.1875 -0.5,0.75 -0.2187,0.34375 c -27.8631,42.9178 -55.7389,85.8271 -83.5938,128.75 58.8854,0.1263 117.7709,0.28035 176.6562,0.40625 -30.7967,-43.4056 -61.564,-86.8322 -92.3437,-130.25 z M 1528.625,270.875 l -0.4688,0.75 -0.3437,0.5 c -14.3283,21.7428 -28.6965,43.45975 -43,65.21875 26.7189,0.1152 53.4375,0.28995 80.1563,0.40625 -12.1474,-22.2736 -24.2148,-44.5912 -36.3438,-66.875 z m 379.625,57 -192.875,102 -26.2812,64.78125 -42.25,-54.4375 c 0,0 -105.8731,17.63661 -153.625,19.5 -47.7521,1.86339 -131.7188,-6.375 -131.7188,-6.375 l -45.5,53.875 -23,-72.625 -167.5625,-105.78125 c 0,0 57.8224,173.40316 131.4063,223.90625 73.5838,50.50309 173.6691,58.18352 260,53.5 86.3309,-4.68351 188.3768,-9.09399 259.0624,-65.6875 C 1846.5918,483.93775 1908.25,327.875 1908.25,327.875 Z"
       transform="translate(0,252.36218)"
       id="path3090" />
  </g>
  <g
     style="display:inline"
     inkscape:groupmode="layer"
     id="layer2"
     inkscape:label="1-orange">
    <path
       inkscape:original-d="m 1301.1559,120.53125 -0.4062,0.78125 -0.375,0.6875 c -23.8399,45.5437 -47.7107,91.0714 -71.5312,136.62499 50.4786,0.5574 100.9582,1.09015 151.4374,1.59375 -26.4051,-46.54519 -52.7473,-93.12659 -79.125,-139.68749 z m 446.5313,1.1875 -0.5,0.75 -0.2187,0.34375 c -27.8631,42.9178 -55.7389,85.8271 -83.5938,128.74999 58.8854,0.1263 117.7709,0.28035 176.6562,0.40625 -30.7967,-43.40559 -61.564,-86.83219 -92.3437,-130.24999 z m -219.0625,149.15624 -0.4688,0.75 -0.3437,0.5 c -14.3283,21.7428 -28.6965,43.45975 -43,65.21875 26.7189,0.1152 53.4375,0.28995 80.1563,0.40625 -12.1474,-22.2736 -24.2148,-44.5912 -36.3438,-66.875 z m 379.625,57 -192.875,102 -26.2812,64.78125 -42.25,-54.4375 c 0,0 -105.8731,17.63661 -153.625,19.5 -47.7521,1.86339 -131.7188,-6.375 -131.7188,-6.375 l -45.5,53.875 -23,-72.625 -167.5625,-105.78125 c 0,0 57.8224,173.40316 131.4063,223.90625 73.5838,50.50309 173.6691,58.18352 260,53.5 86.3309,-4.68351 188.3768,-9.09399 259.0624,-65.6875 70.6856,-56.5935 132.3438,-212.65625 132.3438,-212.65625 z"
       inkscape:path-effect="#path-effect29010-4"
       id="path3480"
       d="m 1230.8647,258.6473 c 0,0 -2.6546,1.19408 0.9286,-5.65678 3.5812,-6.84719 2.2095,5.69145 8.4855,5.76029 6.276,0.0688 -4.9044,-12.60727 -1.3497,-19.40065 1.7754,-3.39293 3.7144,1.46693 5.9657,7.19576 2.2498,5.72503 4.8026,12.30793 7.9357,12.34204 3.1395,0.0342 0.5959,-6.54861 -2.3317,-13.98252 -2.9242,-7.4254 -6.2463,-15.72755 -4.4864,-19.0896 1.7631,-3.36833 5.1225,4.91229 8.7449,14.05076 3.6216,9.13612 7.4966,19.12367 10.6246,19.15746 3.1428,0.0339 -0.7184,-9.95346 -5.0212,-20.78547 -4.2964,-10.81591 -9.0597,-22.52506 -7.3166,-25.85411 1.7521,-3.34635 6.5675,8.33279 11.573,20.85319 5.006,12.52137 10.1946,25.88797 13.3158,25.92142 3.1478,0.0337 -2.0224,-13.33269 -7.7131,-27.53734 -5.6805,-14.17926 -11.9204,-29.27353 -10.1948,-32.56859 1.7423,-3.32691 8.0487,11.7291 14.4492,27.60451 6.4028,15.88151 12.8964,32.60228 16.0092,32.63537 3.1545,0.0335 -3.3163,-16.68703 -10.4073,-34.23954 -7.0763,-17.51622 -14.8275,-35.97431 -13.12,-39.23444 1.7336,-3.30989 9.5654,15.10191 17.3722,34.30618 7.8121,19.21722 15.6025,39.26795 18.7052,39.30066 3.1628,0.0333 -4.6004,-20.01715 -13.1039,-40.89343 -8.4837,-20.82753 -17.7802,-42.6287 -16.0914,-45.85295 1.726,-3.29524 11.1169,18.45184 20.3414,40.95951 9.2333,22.52917 18.3125,45.8863 21.4035,45.91862 3.1728,0.0332 -5.8749,-23.32371 -15.803,-47.50031 -9.9023,-24.11385 -20.7774,-49.23791 -19.108,-52.42538 1.7194,-3.28285 12.7024,21.77951 23.3557,47.56583 10.6664,25.81798 21.0266,52.45858 24.1046,52.49048 3.1842,0.033 -7.1404,-26.60731 -18.5048,-54.06141 -11.3321,-27.37587 -23.8186,-55.80313 -22.1691,-58.95292 1.7139,-3.27267 14.3214,25.0855 26.4146,54.12635 12.1111,29.08427 23.7448,58.98599 26.808,59.01745 3.1973,0.0328 -8.3966,-29.86856 -21.2091,-60.57791 -12.7728,-30.61422 -26.9029,-62.32551 -25.2739,-65.43675 1.7093,-3.26459 15.9734,28.37039 29.5171,60.6423 13.5674,32.32859 26.4671,65.46966 29.5142,65.50068 3.2594,0.0332 -10.9418,-36.32073 -25.2694,-70.26319 -14.3308,-33.95 -28.7098,-65.47338 -21.2348,-55.81687 7.7157,9.96732 21.3501,40.89428 33.5552,70.32699 12.0787,29.12784 22.3947,55.84893 25.4969,55.88022 3.2011,0.0323 -5.554,-22.34958 -12.6058,-39.70178 -6.7656,-16.64825 -12.5815,-30.38257 -0.7736,-9.53545 22.7569,40.17808 22.79,49.33185 22.79,49.33185 m 290.1066,-8.60121 c 0,0 -2.673,1.16038 1.2463,-4.87849 3.9168,-6.0352 1.881,4.88518 8.1357,4.89895 6.2546,0.0138 -4.219,-10.93403 -0.3285,-16.92754 1.9433,-2.9938 3.6179,1.2356 5.5632,6.22485 1.9442,4.98627 4.1514,10.72352 7.2747,10.73057 6.2548,0.0141 -8.9475,-22.94882 -5.0829,-28.90161 1.9311,-2.97458 4.841,4.25072 7.9791,12.22736 3.1374,7.9748 6.4946,16.69556 9.6135,16.70273 3.1318,0.007 -0.2135,-8.71351 -3.944,-18.17512 -3.7256,-9.44909 -7.8564,-19.67667 -5.9449,-22.62064 1.9201,-2.9573 6.0984,7.24684 10.4414,18.18952 4.3433,10.94345 8.8443,22.62795 11.9574,22.63522 3.1363,0.007 -1.3488,-11.67713 -6.2891,-24.0976 -4.9324,-12.40068 -10.3507,-25.59688 -8.4564,-28.51411 1.9102,-2.94188 7.3893,10.22437 12.9492,24.11221 5.5619,13.89263 11.2005,28.52152 14.3063,28.52884 3.1424,0.007 -2.4766,-14.62142 -8.6391,-29.98149 -6.1511,-15.3317 -12.889,-31.47996 -11.0126,-34.36957 1.9015,-2.92827 8.7132,13.18368 15.5018,29.99625 6.7927,16.82274 13.563,34.37706 16.66,34.38441 3.1498,0.007 -3.597,-17.54678 -10.994,-35.82758 -7.3815,-18.24261 -15.4705,-37.32667 -13.6125,-40.18783 1.8938,-2.9164 10.0693,16.12516 18.0981,35.84244 8.0356,19.73417 15.9317,40.19535 19.0185,40.2027 3.1587,0.008 -4.7102,-20.4536 -13.3537,-41.63665 -8.6233,-21.13379 -18.0943,-43.13772 -16.2554,-45.96959 1.8873,-2.90625 11.4572,19.04914 20.7374,41.65152 9.2904,22.62731 18.3066,45.97715 21.3819,45.98446 3.169,0.008 -5.8164,-23.34224 -15.7182,-47.40941 -9.8765,-24.00568 -20.7599,-48.91382 -18.9405,-51.7156 1.8817,-2.89774 12.8763,21.95596 23.4189,47.42425 10.5568,25.50251 20.6875,51.72316 23.7499,51.73039 3.1806,0.008 -6.9157,-26.21306 -18.0873,-53.14658 -11.1407,-26.85865 -23.4663,-54.65564 -21.6671,-57.42654 1.8771,-2.89083 14.3259,24.84596 26.1419,53.16134 11.8347,28.3601 23.0743,57.43406 26.1225,57.44119 3.1935,0.007 -8.0081,-29.06641 -20.4611,-58.84886 -12.4156,-29.69305 -26.2127,-60.3638 -24.4342,-63.10306 1.8734,-2.88547 15.8055,27.71946 28.9056,58.86346 13.1238,31.20043 25.467,63.11053 28.4996,63.11752 3.2669,0.008 -10.4562,-35.26252 -24.0948,-67.48936 -13.5905,-32.11316 -27.1387,-61.52605 -18.4267,-49.23579 8.8976,12.55214 21.3716,40.98529 32.3088,67.50376 10.7822,26.14256 19.6166,49.24296 22.7225,49.24999 3.1921,0.007 -5.7728,-23.1145 -14.1055,-43.48584 -8.2779,-20.23736 -16.0255,-38.12717 -8.1284,-26.98617 7.8899,11.13083 15.0644,28.50446 21.0522,43.49998 5.9383,14.87156 10.5642,26.99313 13.6912,27.00005 3.1484,0.007 -1.5414,-12.12828 -5.3486,-21.73749 -3.7648,-9.50221 -6.7416,-16.79962 0.5041,-6.58204 14.3207,20.19453 14.2264,28.34011 14.2264,28.34011 m -345.1628,85.4062 c 0,0 -3.4801,-1.1033 0.5517,-7.22875 2.0047,-3.04566 2.6728,-1.25714 3.6078,1.33261 0.931,2.57867 2.1064,5.92547 5.2302,5.94089 6.2601,0.0309 -4.8155,-13.38496 -0.8927,-19.33527 1.9544,-2.96441 3.8815,1.85568 5.9778,7.45595 2.0922,5.58942 4.324,11.92707 7.4359,11.94354 3.1375,0.0166 0.9388,-6.32049 -1.7291,-13.38687 -2.657,-7.03753 -5.8297,-14.89109 -3.9346,-17.7632 1.9111,-2.89632 5.2198,4.89019 8.5232,13.4202 3.3014,8.52515 6.5679,17.78038 9.6627,17.79719 3.1501,0.0171 -0.069,-9.23757 -3.9606,-19.20449 -3.8713,-9.91603 -8.4945,-20.69757 -6.6583,-23.47978 1.8741,-2.83973 6.6788,7.85296 11.2318,19.23852 4.5555,11.39179 8.8369,23.49701 11.9094,23.51346 3.1676,0.017 -1.0537,-12.0877 -6.2121,-24.8887 -5.1275,-12.72442 -11.3118,-26.37608 -9.5344,-29.07025 1.8427,-2.79328 8.2505,10.74957 14.093,24.92209 5.8515,14.19442 11.1295,29.08684 14.1749,29.10226 3.2536,0.0165 -2.8385,-17.02439 -9.38,-32.59738 -6.5212,-15.52457 -13.4634,-29.73028 -7.5067,-23.80141 6.0716,6.04314 12.251,19.82415 17.3769,32.62875 5.0605,12.64119 8.9192,23.81625 12.0296,23.83042 6.2729,0.0286 1.626,-4.26003 1.626,-4.26003 m -402.2326,81.68047 c 0,0 -15.5496,-29.06533 -25.0263,-65.06773 -4.6876,-17.80866 7.6499,10.18061 23.3417,46.60189 15.483,35.93658 34.3906,80.60369 42.944,93.72725 8.7393,13.40875 -7.4773,-25.47753 -25.2494,-67.05681 -17.7843,-41.60772 -37.0953,-85.78162 -32.8322,-83.09034 4.3679,2.75747 23.4521,46.42626 42.5094,91.11965 19.001,44.56157 38.0577,90.35824 43.7642,96.71238 5.8467,6.51019 -13.0628,-39.19461 -32.813,-85.66719 -19.7887,-46.56328 -40.4521,-93.9526 -36.1946,-91.26491 4.3742,2.76142 24.9588,50.03631 45.1583,97.6578 20.1594,47.52705 39.955,95.45546 44.5113,99.05169 4.6827,3.696 -15.0435,-44.20655 -35.3638,-92.21198 -20.3534,-48.0837 -41.3142,-96.29599 -37.0608,-93.61082 4.3722,2.76017 25.2435,50.85504 45.6,99.0248 20.3236,48.0919 40.1298,96.25141 44.2329,98.75152 4.2187,2.57044 -15.5462,-45.57885 -35.8021,-93.58558 -20.2838,-48.07294 -41.0569,-96.00038 -36.8067,-93.31724 4.3671,2.75688 25.0876,50.66019 45.2467,98.513 20.1299,47.78367 39.6859,95.48336 43.5852,97.48729 4.007,2.05924 -15.52,-45.63512 -35.4806,-93.08037 -19.9853,-47.50376 -40.3952,-94.74083 -36.148,-92.05956 4.3605,2.7527 24.718,49.96914 44.4916,97.04115 19.7477,47.01027 38.8925,93.8258 42.6448,95.46798 3.852,1.68582 -15.2725,-45.12706 -34.7779,-91.61507 -19.527,-46.53959 -39.4208,-92.72658 -35.1759,-90.0468 4.3529,2.74793 24.1946,48.91603 43.4454,94.86497 19.2277,45.89373 37.8419,91.50743 41.4819,92.87051 3.7318,1.39744 -14.8684,-44.21514 -33.7983,-89.44542 -18.9488,-45.27553 -38.2101,-90.13442 -33.9671,-87.45584 4.3447,2.74274 23.5545,47.5838 42.1771,92.1437 18.602,44.51059 36.592,88.67311 40.143,89.81218 3.6349,1.16595 -14.3461,-42.99632 -32.6064,-86.73066 -18.2769,-43.77384 -36.8137,-87.08157 -32.5723,-84.404 4.3359,2.73725 22.8224,46.02796 40.7328,88.98453 17.8921,42.91264 35.1825,85.42152 38.6608,86.37546 3.5543,0.97477 -13.7308,-41.53434 -31.2455,-83.57798 -17.529,-42.07787 -35.2673,-83.65044 -31.0273,-80.97374 4.2853,2.70527 11.4431,17.66994 17.4916,31.97398 6.047,14.30022 10.9765,27.92331 10.9765,27.92331 m 44.2854,107.38202 c 0,0 -9.5284,-21.57388 -18.6551,-43.77232 -9.1217,-22.18624 -17.8457,-45.02001 -15.7623,-47.48698 2.0961,-2.48184 11.7132,20.56281 21.5206,44.394 9.8083,23.83351 19.8137,48.47904 23.2216,49.21052 3.4327,0.73678 -6.5585,-23.907 -17.0281,-49.34626 -10.4654,-25.42896 -21.4312,-51.69762 -19.3524,-54.15905 2.0957,-2.48144 13.0851,23.77605 24.211,50.78138 11.1276,27.00964 22.4006,54.7991 25.7535,55.40316 3.384,0.60965 -7.8747,-27.1783 -19.6383,-55.72867 -11.7582,-28.53749 -24.0472,-57.89056 -21.9729,-60.34674 2.0956,-2.48126 14.4108,26.8599 26.8069,56.91347 12.3989,30.06023 24.8902,60.87158 28.1944,61.36402 3.3419,0.49805 -9.1351,-30.31204 -22.1478,-61.8558 -13.0063,-31.52802 -26.5783,-63.8519 -24.5085,-66.30266 2.0955,-2.48127 15.6963,29.82993 29.3207,62.82075 13.6282,33.00012 27.2943,66.72549 30.5549,67.11912 3.3053,0.39901 -10.3467,-33.32534 -24.5695,-67.75815 -14.2149,-34.41394 -29.0346,-69.60761 -26.9695,-72.05283 2.0957,-2.48146 16.9465,32.69879 31.7621,68.52797 14.8208,35.84142 29.6233,72.38447 32.8445,72.68984 3.2741,0.3104 -11.6364,-36.52681 -27.0357,-73.7552 -15.3954,-37.21892 -31.3001,-74.87164 -28.7433,-76.14489 2.6005,-1.29502 18.5242,36.35339 34.2502,74.35032 15.7292,38.00477 31.2729,76.39417 34.4602,76.6203 3.2444,0.23018 -12.132,-37.7602 -27.8429,-75.7312 -15.7127,-37.97535 -31.7593,-75.92997 -28.5426,-75.65005 3.2725,0.28479 19.3152,38.23886 35.0065,76.1687 15.6898,37.92603 31.0272,75.82446 34.1874,75.97895 3.2149,0.15716 -12.1211,-37.74139 -27.7854,-75.61019 -15.6658,-37.87231 -31.6587,-75.71232 -28.4518,-75.45567 3.2623,0.26108 19.2515,38.1006 34.8868,75.90459 15.6341,37.80098 30.9129,75.56198 34.0469,75.65099 3.1879,0.0905 -12.0904,-37.67043 -27.6906,-75.39257 -15.6014,-37.72489 -31.523,-75.40733 -28.3255,-75.17345 3.2522,0.23788 19.1702,37.9199 34.7332,75.55633 15.562,37.63416 30.7672,75.2174 33.8773,75.24637 3.163,0.0295 -12.0425,-37.55365 -27.5635,-75.09047 -15.5218,-37.53881 -31.357,-75.02681 -28.1695,-74.81714 3.2415,0.21323 19.0733,37.70085 34.5501,75.13439 15.4761,37.43196 30.5952,74.80376 33.6833,74.77745 3.1402,-0.0267 -11.9799,-37.39834 -27.4093,-74.7179 -15.43,-37.32085 -31.1666,-74.58448 -27.9902,-74.40174 3.2295,0.1858 18.963,37.4491 34.3428,74.65147 15.3794,37.20147 30.4027,74.33546 33.4707,74.25809 3.1188,-0.0787 -11.9062,-37.21232 -27.2346,-74.29019 -15.3287,-37.07846 -30.958,-74.09548 -27.7945,-73.94382 3.2158,0.15417 18.8424,37.1709 34.1174,74.1218 15.275,36.95063 30.1962,73.82859 33.2455,73.70392 3.0991,-0.12672 -11.8242,-37.00417 -27.0459,-73.82445 -15.2216,-36.82016 -30.7387,-73.57729 -27.5905,-73.46279 3.1994,0.11636 18.7135,36.87189 33.8802,73.56026 15.1668,36.68873 29.9839,73.30357 33.0179,73.14034 3.083,-0.16586 -11.7365,-36.77992 -26.851,-73.33968 -15.1141,-36.55896 -30.5203,-73.05797 -27.3915,-72.98977 3.1791,0.0693 18.5838,36.56852 33.6495,73.01048 15.0659,36.44271 29.7909,72.82258 32.8243,72.65693 3.0816,-0.16829 -11.6455,-36.54695 -26.6696,-72.886 -15.0237,-36.33777 -30.3424,-72.63175 -27.239,-72.62432 3.1526,0.008 18.4707,36.302 33.4579,72.55074 14.9877,36.25003 29.643,72.45008 32.6729,72.27534 3.0776,-0.1775 -11.5793,-36.37538 -26.5384,-72.55318 -14.9583,-36.17579 -30.2177,-72.32919 -27.1506,-72.40769 3.1154,-0.0797 18.3755,36.0741 33.3132,72.19773 14.9385,36.12573 29.5538,72.21867 32.5772,72.02763 3.0708,-0.19402 -11.5473,-36.28805 -26.4764,-72.38684 -14.9278,-36.09577 -30.1667,-72.19633 -27.1477,-72.38831 3.0664,-0.19498 18.3075,35.90595 33.2352,71.99683 14.9289,36.09404 29.5441,72.17754 32.5582,71.96346 3.0612,-0.21742 -11.5573,-36.30316 -26.492,-72.40618 -14.9331,-36.09924 -30.183,-72.21695 -27.194,-72.47942 3.0361,-0.2666 18.2892,35.85141 33.2319,71.96808 14.9443,36.12061 29.5784,72.24032 32.5805,71.9968 3.0491,-0.24734 -11.588,-36.36806 -26.5438,-72.51068 -14.954,-36.13824 -30.2275,-72.29997 -27.2576,-72.60743 3.0166,-0.3123 18.2939,35.84969 33.2604,72.01165 14.9685,36.16652 29.6265,72.33368 32.6141,72.05454 3.0346,-0.28352 -11.6266,-36.45119 -26.6073,-72.64074 -14.9787,-36.18462 -30.2776,-72.39265 -27.3215,-72.7322 3.0029,-0.34491 18.3058,35.86333 33.296,72.0684 14.9924,36.21021 29.6721,72.41768 32.6428,72.09693 3.0176,-0.3258 -11.6658,-36.53352 -26.6679,-72.75987 -14.9998,-36.22086 -30.3189,-72.46144 -27.3733,-72.82554 2.9922,-0.36987 18.3156,35.87091 33.3231,72.10215 15.0098,36.23693 29.7037,72.46425 32.6552,72.09598 2.998,-0.37408 -11.7001,-36.60148 -26.7148,-72.84167 -15.0121,-36.23415 -30.341,-72.48151 -27.4038,-72.86533 2.9837,-0.38991 18.317,35.85763 33.3306,72.08668 15.0162,36.23532 29.7126,72.45132 32.6424,72.02965 2.976,-0.42833 -11.7252,-36.64427 -26.7393,-72.865 -15.0113,-36.21414 -30.3353,-72.43255 -27.4051,-72.83282 2.9765,-0.40661 18.3049,35.81199 33.3096,72.00092 15.0076,36.19576 29.6909,72.36011 32.5968,71.87912 2.9515,-0.48855 -11.7375,-36.65271 -26.7341,-72.81171 -14.9937,-36.15182 -30.2942,-72.29684 -27.37,-72.71127 2.9702,-0.42096 18.2752,35.72426 33.2524,71.82663 14.9803,36.10976 29.632,72.17385 32.5114,71.62754 2.9244,-0.55485 -11.7337,-36.61859 -26.6926,-72.66543 -14.9558,-36.03908 -30.211,-72.05828 -27.2921,-72.48524 2.9647,-0.43364 18.2242,35.58578 33.1521,71.54729 14.9312,35.96944 29.5294,71.87695 32.38,71.25918 2.8947,-0.62734 -11.7108,-36.53433 -26.6088,-72.41095 -14.8945,-35.86826 -30.0792,-71.70168 -27.1649,-72.14007 2.9595,-0.44518 18.1484,35.38848 33.002,71.14737 14.8571,35.76736 29.3772,71.45461 32.1963,70.75905 2.8623,-0.7062 -11.666,-36.39274 -26.4765,-72.03377 -14.8067,-35.63207 -29.8926,-71.21252 -26.9827,-71.66173 2.9544,-0.45607 18.0444,35.12466 32.7958,70.61199 14.7551,35.49634 29.1694,70.89258 31.9545,70.11263 2.8269,-0.79168 -11.5967,-36.18695 -26.2903,-71.52 -14.6896,-35.32348 -29.6454,-70.5769 -26.7397,-71.037 2.9493,-0.467 17.909,34.78674 32.5273,69.92677 14.6223,35.14957 28.9006,70.17736 31.6488,69.3061 2.7886,-0.88406 -11.4999,-35.91031 -26.0445,-70.85655 -14.5404,-34.93605 -29.3323,-69.78244 -26.4317,-70.2558 2.943,-0.48029 17.7386,34.36646 32.1907,69.07801 14.4564,34.72156 28.5663,69.29852 31.2747,68.32869 2.7495,-0.98457 -10.6643,-33.79487 -23.2985,-64.17868 -12.63,-30.37375 -24.4564,-58.30218 -17.6037,-49.47267 6.8985,8.8884 18.5698,36.69197 29.1351,62.2002 10.5408,25.44914 19.9082,48.41552 22.5866,47.3341 2.6898,-1.08602 -5.6892,-21.58873 -14.1759,-42.11162 -8.4842,-20.51694 -17.0763,-41.05453 -14.4318,-42.18051 2.6579,-1.13165 11.257,19.40558 19.7451,39.91772 8.4904,20.51747 16.8698,41.00955 19.4989,39.81424 2.6418,-1.20109 -6.0149,-22.35792 -15.0531,-44.16992 -9.0309,-21.7943 -18.4602,-44.27849 -16.9318,-48.04581 1.537,-3.78867 10.9918,18.68025 20.5674,41.74409 9.5801,23.07501 19.2809,46.75172 21.8558,45.43448 2.5921,-1.326 -7.1127,-25.003 -17.2147,-49.30578 -10.0929,-24.28085 -20.602,-49.22742 -19.0785,-52.98292 1.5344,-3.78213 12.0716,21.14782 22.6847,46.63034 10.6193,25.49738 21.3152,51.55677 23.8332,50.10783 2.5382,-1.46062 -8.1635,-27.52007 -19.2785,-54.17438 -11.104,-26.62784 -22.6424,-53.89502 -21.1236,-57.63872 1.5318,-3.77578 13.1005,23.47362 24.698,51.2303 11.6053,27.77559 23.2412,56.07028 25.6977,54.47966 2.4802,-1.60593 -9.2143,-30.02207 -21.2877,-58.87894 -12.0618,-28.82914 -24.5197,-58.13525 -22.7982,-61.38247 1.7389,-3.27995 14.2254,26.01272 26.6452,55.64558 12.429,29.65465 24.7937,59.66103 27.1846,57.9175 2.4167,-1.76242 -9.7637,-31.28724 -22.119,-60.74065 -12.348,-29.43621 -24.867,-58.79314 -22.3319,-60.13379 2.5614,-1.35454 15.0923,28.00494 27.3495,57.19873 12.2637,29.20886 24.2522,58.24633 26.5696,56.32317 2.3404,-1.94234 -9.6653,-30.97541 -21.8205,-59.89452 -12.1477,-28.90146 -24.4395,-57.67779 -21.9046,-59.01836 2.5602,-1.35392 14.8606,27.41904 26.8742,55.97497 12.0201,28.57103 23.7515,56.91797 25.9821,54.78748 2.2517,-2.15066 -9.4984,-30.49215 -21.367,-58.66997 -11.861,-28.15982 -23.8333,-56.14127 -21.2983,-57.48186 2.5587,-1.35319 14.5391,26.62558 26.2253,54.34396 11.6924,27.73305 23.0888,55.19799 25.2446,52.89048 2.1749,-2.32794 -9.2411,-29.78652 -20.745,-57.03815 -11.4963,-27.23377 -23.0722,-54.24339 -20.537,-55.58407 2.5573,-1.35239 14.1406,25.65509 25.4268,52.36497 11.2921,26.72379 22.2853,53.14217 24.3755,50.68113 2.1074,-2.4811 -8.9059,-28.8924 -19.9769,-55.05835 -11.0637,-26.14861 -22.1759,-52.03312 -19.6405,-53.37392 2.5556,-1.35155 13.6749,24.53123 24.4972,50.08407 10.8279,25.56573 21.3573,50.79407 23.3894,48.19812 2.047,-2.61514 -8.5027,-27.83585 -19.0805,-52.77665 -10.5707,-24.9243 -21.1599,-49.54917 -18.6243,-50.89011 2.554,-1.35067 13.1497,23.27279 23.4513,47.53788 10.3065,24.27677 20.3179,48.18844 22.2974,45.47261 1.9926,-2.73375 -8.0388,-26.63743 -18.0691,-50.22967 -10.0238,-23.57685 -20.0367,-46.82269 -17.5008,-48.1638 2.5523,-1.34975 12.5712,21.89494 22.3006,44.756 9.7338,22.87139 19.1776,45.35342 21.1093,42.53002 1.9428,-2.83974 -7.5204,-25.31359 -16.9541,-47.44698 -9.4276,-22.11932 -18.8162,-43.87914 -16.2799,-45.22042 2.5505,-1.34884 11.9444,20.41005 21.0548,41.76265 9.1141,21.3615 17.9445,42.31216 19.8321,39.39137 1.8971,-2.93532 -6.952,-23.87775 -15.7439,-44.45284 -8.7865,-20.56245 -17.5068,-40.73953 -14.9702,-42.08096 2.5488,-1.34793 11.2739,18.82839 19.7219,38.57789 8.4511,19.75693 16.6256,39.08378 18.4724,36.07412 1.8544,-3.02225 -6.3377,-22.34099 -14.4462,-41.26729 -8.1037,-18.91521 -16.1152,-37.42134 -13.5783,-38.76291 2.5471,-1.34702 10.5629,17.1585 18.3083,35.21841 7.7481,18.0659 15.2266,35.68426 17.035,32.59284 1.8146,-3.10197 -5.6805,-20.71249 -13.0665,-37.90701 -7.3819,-17.18504 -14.6471,-33.93915 -12.1101,-35.28084 2.5455,-1.34614 9.8145,15.4075 16.8197,31.69815 7.0072,16.29523 13.752,32.12686 15.5241,28.95962 1.7768,-3.17574 -4.9831,-18.99994 -11.61,-34.38595 -6.6235,-15.37812 -13.1072,-30.30505 -10.57,-31.64683 2.5439,-1.34528 9.0308,13.58129 15.2601,28.02863 6.2307,14.4506 12.2055,28.42257 13.9429,25.18441 1.741,-3.24467 -4.2474,-17.20976 -10.0804,-30.71563 -5.8301,-13.49956 -11.4991,-26.52901 -8.9618,-27.87083 2.5423,-1.34447 8.2141,11.68472 13.6333,24.21927 5.4202,12.53662 10.59,24.58027 12.294,21.27509 3.4087,-6.61188 -20.8477,-48.18067 -15.7696,-50.86619 2.5409,-1.3437 7.3657,9.72162 11.9421,20.27746 4.5768,10.55688 8.9075,20.60678 10.5788,17.23747 3.3427,-6.73882 -17.4427,-40.20044 -12.3661,-42.88517 5.0766,-2.68472 15.7088,36.14615 18.9861,29.28344 3.2774,-6.8627 -13.9095,-31.96816 -8.8343,-34.6521 5.0751,-2.68393 12.1119,27.78974 15.323,20.80272 3.2111,-6.98701 -10.2479,-23.48665 -5.1743,-26.16979 5.0737,-2.68314 8.3862,19.1843 11.5274,12.06601 3.1411,-7.11829 -6.4537,-14.74915 -1.3816,-17.4315 5.0721,-2.68235 4.5256,10.31939 7.5843,3.04294 3.0583,-7.27558 0.023,-7.06607 0.023,-7.06607"
       style="fill:none;stroke:#000000;stroke-width:0.99999994px;stroke-linecap:butt;stroke-linejoin:miter;stroke-opacity:1;display:inline"
       inkscape:connector-curvature="0" />
  </g>
</svg>
