<?xml version="1.0" encoding="UTF-8" standalone="no"?>
<!-- Created with Inkscape (http://www.inkscape.org/) -->

<svg
   xmlns:dc="http://purl.org/dc/elements/1.1/"
   xmlns:cc="http://creativecommons.org/ns#"
   xmlns:rdf="http://www.w3.org/1999/02/22-rdf-syntax-ns#"
   xmlns:svg="http://www.w3.org/2000/svg"
   xmlns="http://www.w3.org/2000/svg"
   xmlns:sodipodi="http://sodipodi.sourceforge.net/DTD/sodipodi-0.dtd"
   xmlns:inkscape="http://www.inkscape.org/namespaces/inkscape"
   width="3200"
   height="800"
   id="svg27345"
   version="1.1"
   inkscape:version="0.92.2 5c3e80d, 2017-08-06"
   sodipodi:docname="pumpkin_cute_mini.svg">
  <sodipodi:namedview
     id="base"
     pagecolor="#ffffff"
     bordercolor="#666666"
     borderopacity="1.0"
     inkscape:pageopacity="0.0"
     inkscape:pageshadow="2"
     inkscape:zoom="0.364375"
     inkscape:cx="1600"
     inkscape:cy="400"
     inkscape:document-units="px"
     inkscape:current-layer="layer1"
     showgrid="false"
     inkscape:window-width="1680"
     inkscape:window-height="1005"
     inkscape:window-x="0"
     inkscape:window-y="1"
     inkscape:window-maximized="1" />
  <defs
     id="defs27347">
    <inkscape:path-effect
       back_thickness="0.25"
       front_thickness="1"
       stroke_width_bottom="1"
       stroke_width_top="1"
       fat_output="false"
       bottom_smth_variation="0;1"
       top_smth_variation="0;1"
       scale_tb="2"
       scale_tf="2"
       scale_bb="2"
       scale_bf="2"
       top_tgt_variation="0;1"
       bottom_tgt_variation="0;1"
       top_edge_variation="0;1"
       bottom_edge_variation="0;1"
       bender="1497.375,690.51888 , 5,0"
       do_bend="true"
       growth="0"
       dist_rdm="0;1"
       direction="1497.375,685.51888 , 19.991088,10.19352"
       is_visible="true"
       id="path-effect16347"
       effect="rough_hatches" />
    <inkscape:path-effect
       effect="rough_hatches"
       id="path-effect15626"
       is_visible="true"
       direction="1608.7009,657.35466 , 24.749006,11.46771"
       dist_rdm="0;1"
       growth="0"
       do_bend="true"
       bender="1608.7009,662.35466 , 8.995122,0"
       bottom_edge_variation="0;1"
       top_edge_variation="0;1"
       bottom_tgt_variation="0;1"
       top_tgt_variation="0;1"
       scale_bf="2"
       scale_bb="2"
       scale_tf="2"
       scale_tb="2"
       top_smth_variation="0;1"
       bottom_smth_variation="0;1"
       fat_output="false"
       stroke_width_top="1"
       stroke_width_bottom="1"
       front_thickness="1"
       back_thickness="0.25" />
    <inkscape:path-effect
       back_thickness="0.25"
       front_thickness="1"
       stroke_width_bottom="1"
       stroke_width_top="1"
       fat_output="false"
       bottom_smth_variation="0;1"
       top_smth_variation="0;1"
       scale_tb="2"
       scale_tf="2"
       scale_bb="2"
       scale_bf="2"
       top_tgt_variation="0;1"
       bottom_tgt_variation="0;1"
       top_edge_variation="0;1"
       bottom_edge_variation="0;1"
       bender="1634.4066,839.91327 , 7.363669,0"
       do_bend="true"
       growth="0"
       dist_rdm="0;1"
       direction="1634.4066,834.91327 , 36.933417,5.0967598"
       is_visible="true"
       id="path-effect10393"
       effect="rough_hatches" />
    <inkscape:path-effect
       back_thickness="0.25"
       front_thickness="1"
       stroke_width_bottom="1"
       stroke_width_top="1"
       fat_output="false"
       bottom_smth_variation="0;1"
       top_smth_variation="0;1"
       scale_tb="2"
       scale_tf="2"
       scale_bb="2"
       scale_bf="2"
       top_tgt_variation="0;1"
       bottom_tgt_variation="0;1"
       top_edge_variation="0;1"
       bottom_edge_variation="0;1"
       bender="1773.2942,526.85659 , 7.363669,0"
       do_bend="true"
       growth="0"
       dist_rdm="0;1"
       direction="1773.2942,521.85659 , 38.977433,3.8225699"
       is_visible="true"
       id="path-effect10391"
       effect="rough_hatches" />
    <inkscape:path-effect
       back_thickness="0.25"
       front_thickness="1"
       stroke_width_bottom="1"
       stroke_width_top="1"
       fat_output="false"
       bottom_smth_variation="0;1"
       top_smth_variation="0;1"
       scale_tb="2"
       scale_tf="2"
       scale_bb="2"
       scale_bf="2"
       top_tgt_variation="0;1"
       bottom_tgt_variation="0;1"
       top_edge_variation="0;1"
       bottom_edge_variation="0;1"
       bender="1421.8401,247.32253 , 7.363669,0"
       do_bend="true"
       growth="0"
       dist_rdm="0;1"
       direction="1421.8401,242.32253 , 35.35754,7.6451397"
       is_visible="true"
       id="path-effect10389"
       effect="rough_hatches" />
    <inkscape:path-effect
       back_thickness="0.25"
       front_thickness="1"
       stroke_width_bottom="1"
       stroke_width_top="1"
       fat_output="false"
       bottom_smth_variation="0;1"
       top_smth_variation="0;1"
       scale_tb="2"
       scale_tf="2"
       scale_bb="2"
       scale_bf="2"
       top_tgt_variation="0;1"
       bottom_tgt_variation="0;1"
       top_edge_variation="0;1"
       bottom_edge_variation="0;1"
       bender="1102.5802,207.92952 , 5,0"
       do_bend="true"
       growth="0"
       dist_rdm="0;1"
       direction="1102.5802,202.92952 , 24.669602,4.0276901"
       is_visible="true"
       id="path-effect9226"
       effect="rough_hatches" />
    <inkscape:path-effect
       back_thickness="0.25"
       front_thickness="1"
       stroke_width_bottom="1"
       stroke_width_top="1"
       fat_output="false"
       bottom_smth_variation="0;1"
       top_smth_variation="0;1"
       scale_tb="2"
       scale_tf="2"
       scale_bb="2"
       scale_bf="2"
       top_tgt_variation="0;1"
       bottom_tgt_variation="0;1"
       top_edge_variation="0;1"
       bottom_edge_variation="0;1"
       bender="1341.2209,235.11642 , 5,0"
       do_bend="true"
       growth="0"
       dist_rdm="0;1"
       direction="1341.2209,230.11642 , 24.153697,4.0152439"
       is_visible="true"
       id="path-effect9224"
       effect="rough_hatches" />
    <inkscape:path-effect
       back_thickness="0.25"
       front_thickness="1"
       stroke_width_bottom="1"
       stroke_width_top="1"
       fat_output="false"
       bottom_smth_variation="0;1"
       top_smth_variation="0;1"
       scale_tb="2"
       scale_tf="2"
       scale_bb="2"
       scale_bf="2"
       top_tgt_variation="0;1"
       bottom_tgt_variation="0;1"
       top_edge_variation="0;1"
       bottom_edge_variation="0;1"
       bender="1222.4734,491.10713 , -5,0"
       do_bend="true"
       growth="0"
       dist_rdm="0;1"
       direction="1222.4734,496.10713 , -24.103925,-7.042235"
       is_visible="true"
       id="path-effect9222"
       effect="rough_hatches" />
    <inkscape:path-effect
       back_thickness="0.25"
       front_thickness="1"
       stroke_width_bottom="1"
       stroke_width_top="1"
       fat_output="false"
       bottom_smth_variation="0;1"
       top_smth_variation="0;1"
       scale_tb="2"
       scale_tf="2"
       scale_bb="2"
       scale_bf="2"
       top_tgt_variation="0;1"
       bottom_tgt_variation="0;1"
       top_edge_variation="0;1"
       bottom_edge_variation="0;1"
       bender="1540.8385,638.66418 , -6.041742,0"
       do_bend="true"
       growth="0"
       dist_rdm="0;1"
       direction="1540.8385,644.70668 , -15.509646,2.0138452"
       is_visible="true"
       id="path-effect3100"
       effect="rough_hatches" />
    <inkscape:path-effect
       effect="rough_hatches"
       id="path-effect3070"
       is_visible="true"
       direction="1542.7188,608.88122 , 26.788776,-3.1724596e-08"
       dist_rdm="0;1"
       growth="0"
       do_bend="true"
       bender="1542.7188,613.88122 , 5,0"
       bottom_edge_variation="0;1"
       top_edge_variation="0;1"
       bottom_tgt_variation="0;1"
       top_tgt_variation="0;1"
       scale_bf="2"
       scale_bb="2"
       scale_tf="2"
       scale_tb="2"
       top_smth_variation="0;1"
       bottom_smth_variation="0;1"
       fat_output="false"
       stroke_width_top="1"
       stroke_width_bottom="1"
       front_thickness="1"
       back_thickness="0.25" />
    <inkscape:perspective
       id="perspective27353"
       inkscape:persp3d-origin="372.04724 : 350.78739 : 1"
       inkscape:vp_z="744.09448 : 526.18109 : 1"
       inkscape:vp_y="0 : 1000 : 0"
       inkscape:vp_x="0 : 526.18109 : 1"
       sodipodi:type="inkscape:persp3d" />
    <inkscape:path-effect
       effect="rough_hatches"
       id="path-effect15626-7"
       is_visible="true"
       direction="1608.7009,657.35466 , 56.841189,-16.564469"
       dist_rdm="0;1"
       growth="0"
       do_bend="true"
       bender="1608.7009,662.35466 , 8.995122,0"
       bottom_edge_variation="0;1"
       top_edge_variation="0;1"
       bottom_tgt_variation="0;1"
       top_tgt_variation="0;1"
       scale_bf="2"
       scale_bb="2"
       scale_tf="2"
       scale_tb="2"
       top_smth_variation="0;1"
       bottom_smth_variation="0;1"
       fat_output="false"
       stroke_width_top="1"
       stroke_width_bottom="1"
       front_thickness="1"
       back_thickness="0.25" />
  </defs>
  <metadata
     id="metadata27350">
    <rdf:RDF>
      <cc:Work
         rdf:about="">
        <dc:format>image/svg+xml</dc:format>
        <dc:type
           rdf:resource="http://purl.org/dc/dcmitype/StillImage" />
        <dc:title />
      </cc:Work>
    </rdf:RDF>
  </metadata>
  <g
     transform="translate(0,-252.36218)"
     id="layer1"
     inkscape:groupmode="layer"
     inkscape:label="Layer 1"
     style="display:inline">
    <g
       transform="translate(80)"
       id="g10368">
      <path
         style="fill:none;stroke:#000000;stroke-width:4;stroke-linecap:round;stroke-linejoin:round;stroke-miterlimit:4;stroke-dasharray:none;stroke-dashoffset:0;stroke-opacity:1"
         d="m 1333.4375,397.42468 c -62.2788,0 -112.75,50.50241 -112.75,112.78125 0,62.27884 50.4712,112.75 112.75,112.75 62.2788,0 112.7813,-50.47116 112.7813,-112.75 0,-62.27884 -50.5025,-112.78125 -112.7813,-112.78125 z m 39.5,33.125 c 10.9076,0 19.75,8.8424 19.75,19.75 0,10.9076 -8.8424,19.75 -19.75,19.75 -10.9076,0 -19.75,-8.8424 -19.75,-19.75 0,-10.9076 8.8424,-19.75 19.75,-19.75 z"
         id="path15740"
         inkscape:connector-curvature="0" />
      <path
         style="fill:none;stroke:#000000;stroke-width:4;stroke-miterlimit:4;stroke-dasharray:none"
         d="m 1221.9785,494.02938 v 32.35234 m 6,23.42971 v -79.21506 m 6,-13.4895 V 563.2979 m 6,10.00137 V 447.10268 m 6,-8.02673 V 581.3234 m 6,6.70914 V 432.36439 m 6,-5.78643 v 167.23876 m 6,5.08833 V 421.48753 m 6,-4.48842 v 186.39241 m 6,3.70306 V 413.29433 m 6,-3.35851 v 200.51567 m 6,2.88997 V 407.04441 m 6,-2.37834 v 211.0525 m 6,2.18775 V 402.47716 m 6,-1.54329 v 218.51489 m 6,1.41009 V 399.52299 m 6,-0.91602 v 223.16736 m 6,0.7041 V 397.90247 m 6,-0.30307 v 225.18191 m 6,0.0464 V 397.55307 m 6,0.30306 v 224.66871 m 6,-0.61028 V 398.46677 m 6,0.91593 v 45.6813 m 0,175.93516 v -165.4637 m 6,-54.83817 v 34.80681 m 0,184.18121 V 465.09536 m 6,-62.855 v 29.63527 m 0,186.26746 V 468.72383 m 6,-64.39527 v 26.31785 m 0,185.40959 V 469.95305 m 6,-63.35346 v 24.68064 m 0,182.50592 V 469.31923 m 6,-59.82892 v 24.43163 m 0,176.97493 V 466.67752 m 6,-53.94599 v 27.74903 m 0,167.17666 V 460.1189 m 6,-43.74195 v 187.63656 m 6,-4.41317 v -178.8083 m 6,4.93873 v 168.9329 m 6,-5.60334 v -157.724 m 6,6.60153 v 144.52333 m 6,-7.90601 V 445.84647 m 6,9.57386 v 109.56376 m 6,-12.59071 v -84.37935 m 6,19.80125 v 44.78009 m -94.3646,89.06968 h -32.352 m -23.4298,-6 h 79.2149 m 13.4895,-6 h -106.1909 m -10.0014,-6 h 126.1965 m 8.0268,-6 h -142.2474 m -6.7092,-6 h 155.6681 m 5.7865,-6 h -167.2388 m -5.0883,-6 h 177.4175 m 4.4884,-6 h -186.3924 m -3.703,-6 h 193.8002 m 3.3585,-6 H 1233.192 m -2.89,-6 h 206.2971 m 2.3783,-6 h -211.0525 m -2.1878,-6 h 215.4292 m 1.5433,-6 h -218.5149 m -1.4101,-6 h 221.3359 m 0.916,-6 h -223.1674 m -0.7041,-6 h 224.576 m 0.3031,-6 h -225.182 m -0.046,-6 h 225.2747 m -0.3031,-6 h -224.6688 m 0.6103,-6 h 223.4479 m -0.916,-6 h -221.6165 m 1.3139,-6 h 218.988 m -1.543,-6 h -215.9028 m 2.0871,-6 h 211.7275 m -78.6461,-6 h -130.8116 m 155.3488,0 h 51.8378 m -81.3937,-6 h -122.9036 m 157.4782,0 h 43.9284 m -80.6264,-6 h -117.5406 m 156.362,0 h 38.5638 m -77.4589,-6 h -113.8231 m 152.7919,0 h 34.8447 m -72.013,-6 h -111.2105 m 146.5783,0 h 32.2301 m -63.0681,-6 h -110.8036 m 137.1118,0 h 31.8211 m -5.6055,-6 h -157.724 m 6.5991,-6 h 144.5233 m -7.9086,-6 h -128.7087 m 9.5711,-6 h 109.5637 m -12.5937,-6 h -84.3792 m 19.7981,-6 h 44.7798"
         id="path16312"
         inkscape:connector-curvature="0" />
      <path
         inkscape:connector-curvature="0"
         id="path16335"
         d="m 1659.6301,397.42468 c -62.2788,0 -112.75,50.50241 -112.75,112.78125 0,62.27884 50.4712,112.75 112.75,112.75 62.2788,0 112.7813,-50.47116 112.7813,-112.75 0,-62.27884 -50.5025,-112.78125 -112.7813,-112.78125 z m 39.5,33.125 c 10.9076,0 19.75,8.8424 19.75,19.75 0,10.9076 -8.8424,19.75 -19.75,19.75 -10.9076,0 -19.75,-8.8424 -19.75,-19.75 0,-10.9076 8.8424,-19.75 19.75,-19.75 z"
         style="fill:none;stroke:#000000;stroke-width:4;stroke-linecap:round;stroke-linejoin:round;stroke-miterlimit:4;stroke-dasharray:none;stroke-dashoffset:0;stroke-opacity:1" />
      <path
         inkscape:connector-curvature="0"
         id="path16337"
         d="m 1548.1711,494.02938 v 32.35234 m 6,23.42971 v -79.21506 m 6,-13.4895 V 563.2979 m 6,10.00137 V 447.10268 m 6,-8.02673 V 581.3234 m 6,6.70914 V 432.36439 m 6,-5.78643 v 167.23876 m 6,5.08833 V 421.48753 m 6,-4.48842 v 186.39241 m 6,3.70306 V 413.29433 m 6,-3.35851 v 200.51567 m 6,2.88997 V 407.04441 m 6,-2.37834 v 211.0525 m 6,2.18775 V 402.47716 m 6,-1.54329 v 218.51489 m 6,1.41009 V 399.52299 m 6,-0.91602 v 223.16736 m 6,0.7041 V 397.90247 m 6,-0.30307 v 225.18191 m 6,0.0464 V 397.55307 m 6,0.30306 v 224.66871 m 6,-0.61028 V 398.46677 m 6,0.91593 v 45.6813 m 0,175.93516 v -165.4637 m 6,-54.83817 v 34.80681 m 0,184.18121 V 465.09536 m 6,-62.855 v 29.63527 m 0,186.26746 V 468.72383 m 6,-64.39527 v 26.31785 m 0,185.40959 V 469.95305 m 6,-63.35346 v 24.68064 m 0,182.50592 V 469.31923 m 6,-59.82892 v 24.43163 m 0,176.97493 V 466.67752 m 6,-53.94599 v 27.74903 m 0,167.17666 V 460.1189 m 6,-43.74195 v 187.63656 m 6,-4.41317 v -178.8083 m 6,4.93873 v 168.9329 m 6,-5.60334 v -157.724 m 6,6.60153 v 144.52333 m 6,-7.90601 V 445.84647 m 6,9.57386 v 109.56376 m 6,-12.59071 v -84.37935 m 6,19.80125 v 44.78009 m -94.3646,89.06968 h -32.352 m -23.4298,-6 h 79.2149 m 13.4895,-6 h -106.1909 m -10.0014,-6 h 126.1965 m 8.0268,-6 h -142.2474 m -6.7092,-6 h 155.6681 m 5.7865,-6 h -167.2388 m -5.0883,-6 h 177.4175 m 4.4884,-6 h -186.3924 m -3.703,-6 h 193.8002 m 3.3585,-6 h -200.5156 m -2.89,-6 h 206.2971 m 2.3783,-6 h -211.0525 m -2.1878,-6 h 215.4292 m 1.5433,-6 h -218.5149 m -1.4101,-6 h 221.3359 m 0.916,-6 h -223.1674 m -0.7041,-6 h 224.576 m 0.3031,-6 h -225.182 m -0.046,-6 h 225.2747 m -0.3031,-6 h -224.6688 m 0.6103,-6 h 223.4479 m -0.916,-6 h -221.6165 m 1.3139,-6 h 218.988 m -1.543,-6 h -215.9028 m 2.0871,-6 h 211.7275 m -78.6461,-6 h -130.8116 m 155.3488,0 h 51.8378 m -81.3937,-6 h -122.9036 m 157.4782,0 h 43.9284 m -80.6264,-6 h -117.5406 m 156.362,0 h 38.5638 m -77.4589,-6 h -113.8231 m 152.7919,0 h 34.8447 m -72.013,-6 H 1570.236 m 146.5783,0 h 32.2301 m -63.0681,-6 h -110.8036 m 137.1118,0 h 31.8211 m -5.6055,-6 h -157.724 m 6.5991,-6 h 144.5233 m -7.9086,-6 h -128.7087 m 9.5711,-6 h 109.5637 m -12.5937,-6 h -84.3792 m 19.7981,-6 h 44.7798"
         style="fill:none;stroke:#000000;stroke-width:4;stroke-miterlimit:4;stroke-dasharray:none" />
      <path
         style="color:#000000;font-style:normal;font-variant:normal;font-weight:normal;font-stretch:normal;font-size:medium;line-height:normal;font-family:Sans;-inkscape-font-specification:Sans;text-indent:0;text-align:start;text-decoration:none;text-decoration-line:none;letter-spacing:normal;word-spacing:normal;text-transform:none;writing-mode:lr-tb;direction:ltr;baseline-shift:baseline;text-anchor:start;display:inline;overflow:visible;visibility:visible;fill:none;stroke:#000000;stroke-width:4;stroke-miterlimit:4;stroke-dasharray:none;stroke-opacity:1;marker:none;enable-background:accumulate"
         d="m 1990.9688,559.09375 c 0,0 -26.6484,65.40154 -70.7813,131.625 -44.1329,66.22346 -105.8132,135.11977 -179.9375,137.875 -71.9956,2.67611 -133.6728,-35.97179 -177.5625,-71.9375 -21.9449,-17.98286 -39.5867,-35.43725 -51.6563,-46.90625 -3.6743,-3.49152 -6.6332,-6.169 -9.125,-8.3125 -1.3113,1.88368 -2.7116,3.69242 -4.4687,5.84375 -4.3443,5.31897 -10.193,11.444 -17.4063,18.15625 -14.4264,13.4245 -34.292,29.22325 -57.7187,44.4375 -46.8534,30.42849 -107.84,58.71875 -167.875,58.71875 -31.706,0 -62.7634,-16.14226 -91.75,-39.1875 -28.9866,-23.04524 -56.1214,-53.31278 -79.5937,-83.46875 -46.9448,-60.31194 -79.3126,-120.46875 -79.3126,-120.46875 l 15.8438,-8.5625 c 0,0 31.8431,59.07043 77.6875,117.96875 22.9222,29.44916 49.3201,58.7789 76.5625,80.4375 27.2424,21.6586 55.1137,35.28125 80.5625,35.28125 54.2747,0 112.9686,-26.55793 158.0625,-55.84375 22.5469,-14.64291 41.7404,-29.89956 55.2812,-42.5 6.7705,-6.30022 12.133,-11.9534 15.7188,-16.34375 3.5858,-4.39035 5.0737,-8.4713 4.8125,-6.96875 0.3128,-1.79896 1.0694,-4.24254 3.3125,-6.34375 2.2431,-2.10121 5.628,-2.91955 7.875,-2.78125 4.494,0.27661 6.3382,1.9344 8.5625,3.46875 4.4485,3.0687 9.2081,7.54613 15.375,13.40625 12.3339,11.72023 29.4786,28.70835 50.6563,46.0625 42.3552,34.70831 100.3456,70.29565 165.4687,67.875 62.9944,-2.34153 122.7022,-65.4205 165.6563,-129.875 42.954,-64.4545 69.0937,-128.4375 69.0937,-128.4375 z"
         id="path16339"
         inkscape:connector-curvature="0"
         sodipodi:nodetypes="csssscssssssccsssssscssssssscc" />
      <path
         sodipodi:nodetypes="csssscssssssccsssssscssssssscc"
         inkscape:connector-curvature="0"
         id="path16345"
         d="m 1990.3024,558.82246 c 0,0 -9.0416,19.65986 -21.3174,44.28722 -12.3607,24.7976 -27.7167,54.05338 -40.4418,74.09555 -12.762,20.10032 2.719,-10.16511 20.1796,-44.92787 17.5829,-35.00612 37.4209,-75.14805 35.2851,-76.0176 -2.0808,-0.84717 -21.3131,38.20949 -42.2102,79.77332 -20.9829,41.73449 -43.3702,85.4216 -50.7124,94.68858 -6.991,8.82375 21.5797,-46.77813 45.1132,-93.57212 25.0481,-49.80539 39.8555,-80.17586 15.4746,-35.94627 -52.3744,95.01291 -74.6885,147.0891 -85.8222,158.83448 -5.5544,5.85969 5.362,-15.1653 15.4391,-34.7532 10.0901,-19.61327 19.2697,-37.63528 10.7598,-25.89652 -17.0755,23.55429 -37.2244,72.17874 -46.6102,80.51484 -4.6888,4.1643 2.9067,-10.39124 10.1063,-24.27862 7.2005,-13.88922 13.9931,-27.08222 7.9276,-20.20204 -12.1408,13.77156 -27.3674,52.71248 -35.6264,58.86588 -4.1272,3.075 1.8158,-8.27401 7.5139,-19.21144 5.6978,-10.9369 11.1474,-21.45358 6.1689,-16.71126 -9.9594,9.48697 -21.9118,42.01689 -29.3678,46.62403 -3.7264,2.30264 1.1644,-7.01315 5.8869,-16.04653 4.7221,-9.03259 9.2749,-17.7796 4.962,-14.33543 -8.6261,6.88859 -18.2859,34.95181 -25.1327,38.39164 -6.8469,3.43983 16.5425,-31.57448 8.8493,-26.49194 -7.6932,5.08254 -15.6833,29.90658 -22.0479,32.42572 -6.3647,2.51915 14.3767,-27.38679 7.3874,-23.6598 -6.9892,3.72699 -13.7428,26.16101 -19.7135,27.93032 -5.9706,1.7693 12.739,-24.23233 6.3074,-21.57463 -6.4315,2.65771 -12.2711,23.33064 -17.9122,24.47404 -5.6411,1.1434 11.4911,-21.8368 5.5166,-20.05261 -5.9744,1.78418 -11.1524,21.18585 -16.5125,21.79654 -5.3601,0.61069 10.5458,-20.02745 4.9555,-18.97573 -5.5903,1.05173 -10.3068,19.56959 -15.4331,19.73742 -5.1264,0.16783 9.8488,-18.6972 4.5877,-18.27222 -5.2612,0.42498 -9.7115,18.43507 -14.6944,18.33119 -4.9829,-0.10388 9.4584,-17.95411 4.4156,-17.94444 -5.0429,0.01 -9.3971,17.83785 -14.2508,17.48928 -4.8538,-0.34857 9.2099,-17.48344 4.3157,-17.75657 -4.8942,-0.27313 -9.1682,17.40567 -13.9035,16.83252 -4.7352,-0.57315 9.011,-17.10886 4.2506,-17.63671 -4.7603,-0.52785 -8.9847,17.06153 -13.6108,16.28125 -4.6261,-0.78028 8.8519,-16.81181 4.2129,-17.57078 -4.6391,-0.75896 -8.838,16.78872 -13.363,15.81655 -4.5261,-0.97239 8.7228,-16.57544 4.1967,-17.54783 -4.5284,-0.97 -8.7209,16.57408 -13.1521,15.42341 -4.4313,-1.15066 8.6248,-16.3954 4.1978,-17.55921 -4.4269,-1.1638 -8.6283,16.40715 -12.9721,15.08986 -4.3438,-1.31729 8.5461,-16.25539 4.2126,-17.59808 -4.3336,-1.34269 -8.5557,16.27954 -12.8179,14.80618 -4.2621,-1.47335 8.4852,-16.15039 4.2381,-17.65895 -4.2471,-1.50856 -8.4996,16.18448 -12.6852,14.56452 -4.1856,-1.61996 8.4388,-16.07442 4.272,-17.73742 -4.1669,-1.663 -8.4571,16.11645 -12.5708,14.35839 -4.1138,-1.75805 8.4046,-16.02258 4.3125,-17.82992 -4.0921,-1.80733 -8.4258,16.07096 -12.4719,14.18252 -4.0461,-1.88844 8.3804,-15.99092 4.3582,-17.93359 -4.0222,-1.94268 -8.4039,16.04432 -12.3862,14.03251 -3.9824,-2.01181 8.3645,-15.97614 4.4078,-18.04611 -3.9568,-2.06996 -8.3898,16.03354 -12.312,13.90478 -3.9221,-2.12876 8.3557,-15.9756 4.4604,-18.16561 -3.8953,-2.19001 -8.3821,16.03614 -12.2474,13.79634 -3.8653,-2.23979 8.3526,-15.98713 4.5151,-18.29061 -3.8374,-2.30349 -8.38,16.05016 -12.1914,13.70481 -3.8114,-2.34534 8.3544,-16.00901 4.5715,-18.41998 -3.7829,-2.41097 -8.3826,16.07401 -12.143,13.62826 -3.7605,-2.44576 8.3604,-16.03989 4.629,-18.55284 -3.7315,-2.51294 -8.3891,16.10649 -12.1014,13.56518 -3.7122,-2.54131 8.3703,-16.07874 4.6874,-18.68856 -3.6829,-2.60981 -8.3992,16.14668 -12.0658,13.51447 -3.6666,-2.6322 8.3833,-16.12486 4.7463,-18.82675 -3.6369,-2.70189 -8.4126,16.19398 -12.0361,13.47543 -3.6235,-2.71856 8.3995,-16.17788 4.8059,-18.96727 -3.5935,-2.78939 -8.4291,16.24814 -12.012,13.44776 -3.583,-2.80038 8.4188,-16.2377 4.8661,-19.11015 -3.551,-2.871 -8.4428,16.30262 -11.9937,13.43162 -3.545,-2.87757 8.4414,-16.30487 4.9266,-19.25501 -3.513,-2.94863 -8.4678,16.37515 -11.9808,13.42653 -3.5095,-2.95042 8.4664,-16.37738 4.9864,-19.39951 -3.4781,-3.02053 -8.4938,16.45031 -11.972,13.42978 -3.4764,-3.01869 8.4925,-16.45274 5.044,-19.5407 -3.4467,-3.0863 -8.5197,16.52594 -11.9664,13.43964 -3.4463,-3.08165 8.5184,-16.52866 5.0974,-19.67495 -3.4192,-3.14457 -8.5437,16.59878 -11.9629,13.45421 -3.4197,-3.13819 8.5426,-16.60195 5.1437,-19.79669 -3.3969,-3.19295 -8.5634,16.66398 -11.9604,13.47103 -3.3975,-3.18623 8.5627,-16.66795 5.1787,-19.8968 -3.3821,-3.22702 -8.5751,16.71392 -11.9572,13.4869 -3.382,-3.22173 8.5751,-16.71952 5.1939,-19.95922 -3.3794,-3.23785 -8.5722,16.73581 -11.9515,13.49796 -3.3774,-3.236 8.5723,-16.74173 5.1751,-19.95546 -3.3972,-3.21373 -8.5458,16.70626 -11.9463,13.51006 -3.4005,-3.1962 8.5648,-16.7547 5.0862,-19.8141 -3.4785,-3.0594 -6.9082,13.53246 -13.5372,16.64137 -6.6289,3.1089 10.0753,-19.73373 6.3514,-22.31547 -3.7239,-2.58175 -16.2466,31.80532 -26.0508,41.07356 -4.9042,4.63606 0.7649,-6.37154 6.9821,-18.5179 6.2182,-12.1482 12.9844,-25.44126 10.4327,-25.38533 -2.5447,0.0558 -9.2752,13.28866 -16.5021,27.40031 -7.2313,14.12023 -14.9482,29.09385 -19.3219,32.67395 -4.3605,3.56933 2.008,-8.75838 8.0509,-20.52143 6.0434,-11.76424 11.7543,-22.94667 6.2427,-17.0927 -11.0296,11.71484 -22.99,44.69732 -31.1599,50.74257 -4.0837,3.02168 1.0789,-6.93802 6.1145,-16.69822 5.0352,-9.75937 9.9423,-19.31603 5.4542,-15.48411 -8.9764,7.66406 -19.7256,38.20127 -27.503,43.47401 -3.8877,2.63568 0.7777,-6.33975 5.3567,-15.18625 4.5786,-8.84562 9.0703,-17.56083 4.9213,-14.40034 -8.2974,6.32062 -18.0475,34.84312 -25.5144,39.50658 -7.4669,4.66346 17.234,-33.2202 9.3736,-27.76328 -7.8604,5.45691 -16.8367,32.41886 -24.0372,36.56169 -7.2005,4.14284 16.184,-31.11957 8.6647,-26.33458 -7.5192,4.78498 -15.8625,30.47176 -22.823,34.1476 -6.9605,3.67584 15.3096,-29.37457 8.0814,-25.16034 -7.2282,4.21423 -15.0398,28.83188 -21.7797,32.08029 -6.7398,3.2484 14.5552,-27.87366 7.5799,-24.15341 -6.9753,3.72026 -14.3181,27.39842 -20.8523,30.25001 -6.5342,2.85159 13.8795,-26.53495 7.1321,-23.25814 -6.7474,3.2768 -13.665,26.10696 -20.0055,28.58628 -6.3406,2.47933 13.2599,-25.31321 6.7232,-22.44449 -6.5368,2.86872 -13.0627,24.92151 -19.2196,27.04879 -6.1568,2.12728 12.6841,-24.18285 6.3453,-21.69635 -6.3387,2.48649 -12.5012,23.82167 -18.4827,25.61393 -5.9816,1.79226 12.145,-23.12956 5.9947,-21.00579 -6.1503,2.12377 -11.9754,22.79636 -17.7889,24.26818 -5.8134,1.47181 11.6394,-22.14607 5.6704,-20.36999 -5.9691,1.77607 -11.4831,21.84032 -17.1347,23.00435 -5.6516,1.16403 11.1662,-21.22958 5.3727,-19.78943 -5.7935,1.44016 -11.0237,20.95215 -16.5191,21.8195 -5.4953,0.86734 10.7261,-20.38038 5.1036,-19.26684 -5.6224,1.11353 -10.5984,20.13302 -15.9425,20.71353 -5.3442,0.58051 10.3204,-19.60082 4.8654,-18.80652 -5.455,0.7943 -10.209,19.38599 -15.4065,19.68845 -5.1974,0.30246 9.9518,-18.8948 4.6613,-18.4139 -5.2905,0.48089 -9.8594,18.71769 -14.9118,18.74546 -5.0525,0.0278 9.6216,-18.26507 4.4934,-18.093 -5.1282,0.17208 -9.5496,18.12782 -14.3576,17.69269 -4.8081,-0.43512 9.1963,-17.45769 4.3096,-17.74514 -4.8867,-0.28745 -9.1126,17.30054 -13.7024,16.45164 -4.5897,-0.8489 8.8258,-16.75807 4.2192,-17.57878 -4.6065,-0.82071 -8.8051,16.72275 -13.2117,15.52606 -4.4065,-1.19669 8.6116,-16.3588 4.2209,-17.59089 -4.3907,-1.23208 -8.6244,16.38867 -12.8746,14.89455 -4.2501,-1.49413 8.4883,-16.1348 4.2711,-17.69846 -4.2171,-1.56365 -8.5189,16.19994 -12.6338,14.44787 -4.115,-1.75207 8.4198,-16.01735 4.3468,-17.85711 -4.0731,-1.83976 -8.4598,16.10149 -12.4566,14.12314 -3.9967,-1.97835 8.3858,-15.96722 4.4354,-18.04279 -3.9505,-2.07557 -8.4305,16.06151 -12.3229,13.88276 -3.8925,-2.17875 8.3742,-15.96162 4.5301,-18.24277 -3.8441,-2.28115 -8.4212,16.06157 -12.2211,13.70393 -3.7998,-2.35763 8.3784,-15.98764 4.6282,-18.45108 -3.7502,-2.46344 -8.4268,16.09136 -12.1439,13.57298 -3.717,-2.51838 8.3948,-16.03845 4.7286,-18.66591 -3.6663,-2.62746 -8.4446,16.14573 -12.0873,13.48212 -3.6426,-2.66361 8.4219,-16.11121 4.8317,-18.88813 -3.5901,-2.77692 -8.4735,16.22295 -12.0491,13.42753 -3.5756,-2.79542 8.4601,-16.2065 4.9383,-19.1188 -3.52,-2.91083 -8.5074,16.31581 -12.0274,13.40498 -3.5139,-2.91749 8.5064,-16.31863 5.046,-19.35355 -3.4585,-3.03332 -8.5576,16.43684 -12.0161,13.40352 -3.4568,-3.03155 8.5565,-16.43958 5.1522,-19.58726 -3.4024,-3.14597 -8.6098,16.56265 -12.0122,13.41668 -3.4037,-3.13816 8.6085,-16.56533 5.2557,-19.81745 -3.3528,-3.25211 -8.6589,16.67852 -12.0132,13.44029 -3.3543,-3.23823 8.6609,-16.69322 5.3556,-20.04267 -3.3052,-3.34944 -8.7095,16.80376 -12.0176,13.47124 -3.3082,-3.33252 8.7128,-16.82138 5.4517,-20.26208 -3.2611,-3.4407 -8.7595,16.92895 -12.0244,13.5073 -3.2649,-3.42165 8.7636,-16.94861 5.5437,-20.47535 -3.2199,-3.52674 -8.8083,17.05316 -12.0326,13.54697 -3.2242,-3.50618 8.813,-17.07423 5.6318,-20.68253 -3.1812,-3.6083 -8.8557,17.17586 -12.0417,13.58926 -3.1861,-3.58659 8.8607,-17.198 5.716,-20.88402 -3.1448,-3.68602 -8.9018,17.29698 -12.0517,13.6337 -3.1499,-3.66329 8.9072,-17.32009 5.797,-21.08054 -3.1102,-3.76045 -8.9466,17.41685 -12.0624,13.68023 -3.1157,-3.73661 8.9524,-17.441 5.8751,-21.2731 -3.0773,-3.8321 -8.9906,17.53612 -12.0739,13.72923 -3.0833,-3.8069 8.9968,-17.5616 5.951,-21.46303 -3.0457,-3.90144 -9.0341,17.6558 -12.0867,13.78141 -3.0526,-3.87439 9.0412,-17.68315 6.0254,-21.65133 -3.0158,-3.96817 -9.0779,17.77679 -12.101,13.83705 -3.0231,-3.93974 9.0854,-17.80545 6.0983,-21.83833 -2.987,-4.03287 -9.1213,17.89837 -12.116,13.89489 -2.9947,-4.00348 9.1291,-17.92795 6.1698,-22.02388 -2.9593,-4.09592 -9.1643,18.02022 -12.1316,13.9546 -2.9673,-4.06561 9.1724,-18.05067 6.2399,-22.2083 -2.9325,-4.15764 -9.2071,18.14254 -12.1478,14.01612 -2.9407,-4.12642 9.2154,-18.17387 6.309,-22.39217 -2.9064,-4.21831 -9.2496,18.26564 -12.1646,14.07945 -2.9149,-4.1862 9.2583,-18.29783 6.3774,-22.57612 -2.8808,-4.2783 -9.2922,18.38985 -12.1819,14.14463 -2.8896,-4.24522 9.3011,-18.42294 6.4455,-22.76092 -2.8557,-4.33798 -9.3351,18.51567 -12.1999,14.21183 -2.8648,-4.30383 9.3442,-18.54975 6.5137,-22.94757 -2.8306,-4.39783 -9.3785,18.64376 -12.2187,14.28132 -2.8402,-4.36245 9.388,-18.679 6.5827,-23.13744 -2.8053,-4.45845 -9.4229,18.77509 -12.2384,14.35355 -2.8155,-4.42153 9.433,-18.81171 6.6536,-23.33246 -2.7795,-4.52075 -9.4691,18.91113 -12.2596,14.42934 -2.7904,-4.48179 9.4799,-18.94956 6.7277,-23.53579 -2.7522,-4.58623 -9.5182,19.05437 -12.2827,14.51011 -2.7645,-4.54426 9.53,-19.09524 6.8079,-23.75319 -2.722,-4.65795 -9.5727,19.20961 -12.3094,14.5988 -2.7367,-4.61081 9.5858,-19.25356 6.9012,-23.99868 -2.6845,-4.74512 -9.6386,19.38937 -12.3437,14.70373 -2.705,-4.68563 11.3944,-22.95515 4.5152,-19.23738 -6.8793,3.71776 -7.2233,14.55798 -9.8841,9.77168 -2.6612,-4.78677 -0.4375,-4.1937 -0.4375,-4.1937"
         style="color:#000000;font-style:normal;font-variant:normal;font-weight:normal;font-stretch:normal;font-size:medium;line-height:normal;font-family:Sans;-inkscape-font-specification:Sans;text-indent:0;text-align:start;text-decoration:none;text-decoration-line:none;letter-spacing:normal;word-spacing:normal;text-transform:none;writing-mode:lr-tb;direction:ltr;baseline-shift:baseline;text-anchor:start;display:inline;overflow:visible;visibility:visible;fill:none;stroke:#000000;stroke-width:4;stroke-miterlimit:4;stroke-dasharray:none;stroke-opacity:1;marker:none;enable-background:accumulate"
         inkscape:path-effect="#path-effect16347"
         inkscape:original-d="m 1990.9688,559.09375 c 0,0 -26.6484,65.40154 -70.7813,131.625 -44.1329,66.22346 -105.8132,135.11977 -179.9375,137.875 -71.9956,2.67611 -133.6728,-35.97179 -177.5625,-71.9375 -21.9449,-17.98286 -39.5867,-35.43725 -51.6563,-46.90625 -3.6743,-3.49152 -6.6332,-6.169 -9.125,-8.3125 -1.3113,1.88368 -2.7116,3.69242 -4.4687,5.84375 -4.3443,5.31897 -10.193,11.444 -17.4063,18.15625 -14.4264,13.4245 -34.292,29.22325 -57.7187,44.4375 -46.8534,30.42849 -107.84,58.71875 -167.875,58.71875 -31.706,0 -62.7634,-16.14226 -91.75,-39.1875 -28.9866,-23.04524 -56.1214,-53.31278 -79.5937,-83.46875 -46.9448,-60.31194 -79.3126,-120.46875 -79.3126,-120.46875 l 15.8438,-8.5625 c 0,0 31.8431,59.07043 77.6875,117.96875 22.9222,29.44916 49.3201,58.7789 76.5625,80.4375 27.2424,21.6586 55.1137,35.28125 80.5625,35.28125 54.2747,0 112.9686,-26.55793 158.0625,-55.84375 22.5469,-14.64291 41.7404,-29.89956 55.2812,-42.5 6.7705,-6.30022 12.133,-11.9534 15.7188,-16.34375 3.5858,-4.39035 5.0737,-8.4713 4.8125,-6.96875 0.3128,-1.79896 1.0694,-4.24254 3.3125,-6.34375 2.2431,-2.10121 5.628,-2.91955 7.875,-2.78125 4.494,0.27661 6.3382,1.9344 8.5625,3.46875 4.4485,3.0687 9.2081,7.54613 15.375,13.40625 12.3339,11.72023 29.4786,28.70835 50.6563,46.0625 42.3552,34.70831 100.3456,70.29565 165.4687,67.875 62.9944,-2.34153 122.7022,-65.4205 165.6563,-129.875 42.954,-64.4545 69.0937,-128.4375 69.0937,-128.4375 z" />
    </g>
  </g>
</svg>
