<?xml version="1.0" encoding="UTF-8" standalone="no"?>
<!-- Created with Inkscape (http://www.inkscape.org/) -->

<svg
   xmlns:dc="http://purl.org/dc/elements/1.1/"
   xmlns:cc="http://creativecommons.org/ns#"
   xmlns:rdf="http://www.w3.org/1999/02/22-rdf-syntax-ns#"
   xmlns:svg="http://www.w3.org/2000/svg"
   xmlns="http://www.w3.org/2000/svg"
   xmlns:sodipodi="http://sodipodi.sourceforge.net/DTD/sodipodi-0.dtd"
   xmlns:inkscape="http://www.inkscape.org/namespaces/inkscape"
   sodipodi:docname="pumpkin_cute_mini2.svg"
   inkscape:version="0.48.5 r10040"
   version="1.1"
   id="svg27345"
   height="800"
   width="3200">
  <sodipodi:namedview
     id="base"
     pagecolor="#ffffff"
     bordercolor="#666666"
     borderopacity="1.0"
     inkscape:pageopacity="0.0"
     inkscape:pageshadow="2"
     inkscape:zoom="0.4184375"
     inkscape:cx="1600"
     inkscape:cy="400"
     inkscape:document-units="px"
     inkscape:current-layer="layer1"
     showgrid="false"
     inkscape:window-width="1436"
     inkscape:window-height="855"
     inkscape:window-x="0"
     inkscape:window-y="0"
     inkscape:window-maximized="1" />
  <defs
     id="defs27347">
    <inkscape:path-effect
       back_thickness="0.25"
       front_thickness="1"
       stroke_width_bottom="1"
       stroke_width_top="1"
       fat_output="false"
       bottom_smth_variation="0;1"
       top_smth_variation="0;1"
       scale_tb="2"
       scale_tf="2"
       scale_bb="2"
       scale_bf="2"
       top_tgt_variation="0;1"
       bottom_tgt_variation="0;1"
       top_edge_variation="0;1"
       bottom_edge_variation="0;1"
       bender="1497.375,690.51888 , 5,0"
       do_bend="true"
       growth="0"
       dist_rdm="0;1"
       direction="1497.375,685.51888 , 19.991088,10.19352"
       is_visible="true"
       id="path-effect16347"
       effect="rough_hatches" />
    <inkscape:path-effect
       effect="rough_hatches"
       id="path-effect15626"
       is_visible="true"
       direction="1608.7009,657.35466 , 24.749006,11.46771"
       dist_rdm="0;1"
       growth="0"
       do_bend="true"
       bender="1608.7009,662.35466 , 8.995122,0"
       bottom_edge_variation="0;1"
       top_edge_variation="0;1"
       bottom_tgt_variation="0;1"
       top_tgt_variation="0;1"
       scale_bf="2"
       scale_bb="2"
       scale_tf="2"
       scale_tb="2"
       top_smth_variation="0;1"
       bottom_smth_variation="0;1"
       fat_output="false"
       stroke_width_top="1"
       stroke_width_bottom="1"
       front_thickness="1"
       back_thickness="0.25" />
    <inkscape:path-effect
       back_thickness="0.25"
       front_thickness="1"
       stroke_width_bottom="1"
       stroke_width_top="1"
       fat_output="false"
       bottom_smth_variation="0;1"
       top_smth_variation="0;1"
       scale_tb="2"
       scale_tf="2"
       scale_bb="2"
       scale_bf="2"
       top_tgt_variation="0;1"
       bottom_tgt_variation="0;1"
       top_edge_variation="0;1"
       bottom_edge_variation="0;1"
       bender="1634.4066,839.91327 , 7.363669,0"
       do_bend="true"
       growth="0"
       dist_rdm="0;1"
       direction="1634.4066,834.91327 , 36.933417,5.0967598"
       is_visible="true"
       id="path-effect10393"
       effect="rough_hatches" />
    <inkscape:path-effect
       back_thickness="0.25"
       front_thickness="1"
       stroke_width_bottom="1"
       stroke_width_top="1"
       fat_output="false"
       bottom_smth_variation="0;1"
       top_smth_variation="0;1"
       scale_tb="2"
       scale_tf="2"
       scale_bb="2"
       scale_bf="2"
       top_tgt_variation="0;1"
       bottom_tgt_variation="0;1"
       top_edge_variation="0;1"
       bottom_edge_variation="0;1"
       bender="1773.2942,526.85659 , 7.363669,0"
       do_bend="true"
       growth="0"
       dist_rdm="0;1"
       direction="1773.2942,521.85659 , 38.977433,3.8225699"
       is_visible="true"
       id="path-effect10391"
       effect="rough_hatches" />
    <inkscape:path-effect
       back_thickness="0.25"
       front_thickness="1"
       stroke_width_bottom="1"
       stroke_width_top="1"
       fat_output="false"
       bottom_smth_variation="0;1"
       top_smth_variation="0;1"
       scale_tb="2"
       scale_tf="2"
       scale_bb="2"
       scale_bf="2"
       top_tgt_variation="0;1"
       bottom_tgt_variation="0;1"
       top_edge_variation="0;1"
       bottom_edge_variation="0;1"
       bender="1421.8401,247.32253 , 7.363669,0"
       do_bend="true"
       growth="0"
       dist_rdm="0;1"
       direction="1421.8401,242.32253 , 35.35754,7.6451397"
       is_visible="true"
       id="path-effect10389"
       effect="rough_hatches" />
    <inkscape:path-effect
       back_thickness="0.25"
       front_thickness="1"
       stroke_width_bottom="1"
       stroke_width_top="1"
       fat_output="false"
       bottom_smth_variation="0;1"
       top_smth_variation="0;1"
       scale_tb="2"
       scale_tf="2"
       scale_bb="2"
       scale_bf="2"
       top_tgt_variation="0;1"
       bottom_tgt_variation="0;1"
       top_edge_variation="0;1"
       bottom_edge_variation="0;1"
       bender="1102.5802,207.92952 , 5,0"
       do_bend="true"
       growth="0"
       dist_rdm="0;1"
       direction="1102.5802,202.92952 , 24.669602,4.0276901"
       is_visible="true"
       id="path-effect9226"
       effect="rough_hatches" />
    <inkscape:path-effect
       back_thickness="0.25"
       front_thickness="1"
       stroke_width_bottom="1"
       stroke_width_top="1"
       fat_output="false"
       bottom_smth_variation="0;1"
       top_smth_variation="0;1"
       scale_tb="2"
       scale_tf="2"
       scale_bb="2"
       scale_bf="2"
       top_tgt_variation="0;1"
       bottom_tgt_variation="0;1"
       top_edge_variation="0;1"
       bottom_edge_variation="0;1"
       bender="1341.2209,235.11642 , 5,0"
       do_bend="true"
       growth="0"
       dist_rdm="0;1"
       direction="1341.2209,230.11642 , 24.153697,4.0152439"
       is_visible="true"
       id="path-effect9224"
       effect="rough_hatches" />
    <inkscape:path-effect
       back_thickness="0.25"
       front_thickness="1"
       stroke_width_bottom="1"
       stroke_width_top="1"
       fat_output="false"
       bottom_smth_variation="0;1"
       top_smth_variation="0;1"
       scale_tb="2"
       scale_tf="2"
       scale_bb="2"
       scale_bf="2"
       top_tgt_variation="0;1"
       bottom_tgt_variation="0;1"
       top_edge_variation="0;1"
       bottom_edge_variation="0;1"
       bender="1222.4734,491.10713 , -5,0"
       do_bend="true"
       growth="0"
       dist_rdm="0;1"
       direction="1222.4734,496.10713 , -24.103925,-7.042235"
       is_visible="true"
       id="path-effect9222"
       effect="rough_hatches" />
    <inkscape:path-effect
       back_thickness="0.25"
       front_thickness="1"
       stroke_width_bottom="1"
       stroke_width_top="1"
       fat_output="false"
       bottom_smth_variation="0;1"
       top_smth_variation="0;1"
       scale_tb="2"
       scale_tf="2"
       scale_bb="2"
       scale_bf="2"
       top_tgt_variation="0;1"
       bottom_tgt_variation="0;1"
       top_edge_variation="0;1"
       bottom_edge_variation="0;1"
       bender="1540.8385,638.66418 , -6.041742,0"
       do_bend="true"
       growth="0"
       dist_rdm="0;1"
       direction="1540.8385,644.70668 , -15.509646,2.0138452"
       is_visible="true"
       id="path-effect3100"
       effect="rough_hatches" />
    <inkscape:path-effect
       effect="rough_hatches"
       id="path-effect3070"
       is_visible="true"
       direction="1542.7188,608.88122 , 26.788776,-3.1724596e-08"
       dist_rdm="0;1"
       growth="0"
       do_bend="true"
       bender="1542.7188,613.88122 , 5,0"
       bottom_edge_variation="0;1"
       top_edge_variation="0;1"
       bottom_tgt_variation="0;1"
       top_tgt_variation="0;1"
       scale_bf="2"
       scale_bb="2"
       scale_tf="2"
       scale_tb="2"
       top_smth_variation="0;1"
       bottom_smth_variation="0;1"
       fat_output="false"
       stroke_width_top="1"
       stroke_width_bottom="1"
       front_thickness="1"
       back_thickness="0.25" />
    <inkscape:perspective
       id="perspective27353"
       inkscape:persp3d-origin="372.04724 : 350.78739 : 1"
       inkscape:vp_z="744.09448 : 526.18109 : 1"
       inkscape:vp_y="0 : 1000 : 0"
       inkscape:vp_x="0 : 526.18109 : 1"
       sodipodi:type="inkscape:persp3d" />
    <inkscape:path-effect
       effect="rough_hatches"
       id="path-effect15626-7"
       is_visible="true"
       direction="1608.7009,657.35466 , 56.841189,-16.564469"
       dist_rdm="0;1"
       growth="0"
       do_bend="true"
       bender="1608.7009,662.35466 , 8.995122,0"
       bottom_edge_variation="0;1"
       top_edge_variation="0;1"
       bottom_tgt_variation="0;1"
       top_tgt_variation="0;1"
       scale_bf="2"
       scale_bb="2"
       scale_tf="2"
       scale_tb="2"
       top_smth_variation="0;1"
       bottom_smth_variation="0;1"
       fat_output="false"
       stroke_width_top="1"
       stroke_width_bottom="1"
       front_thickness="1"
       back_thickness="0.25" />
  </defs>
  <metadata
     id="metadata27350">
    <rdf:RDF>
      <cc:Work
         rdf:about="">
        <dc:format>image/svg+xml</dc:format>
        <dc:type
           rdf:resource="http://purl.org/dc/dcmitype/StillImage" />
        <dc:title />
      </cc:Work>
    </rdf:RDF>
  </metadata>
  <g
     transform="translate(0,-252.36218)"
     id="layer1"
     inkscape:groupmode="layer"
     inkscape:label="2-black"
     style="display:inline">
    <path
       style="font-size:medium;font-style:normal;font-variant:normal;font-weight:normal;font-stretch:normal;text-indent:0;text-align:start;text-decoration:none;line-height:normal;letter-spacing:normal;word-spacing:normal;text-transform:none;direction:ltr;block-progression:tb;writing-mode:lr-tb;text-anchor:start;baseline-shift:baseline;color:#000000;fill:none;stroke:#000000;stroke-width:4;stroke-miterlimit:4;stroke-opacity:1;stroke-dasharray:none;marker:none;visibility:visible;display:inline;overflow:visible;enable-background:accumulate;font-family:Sans;-inkscape-font-specification:Sans"
       d="m 1918.2188,602.3125 a 10.001,10.001 0 0 0 -8.0313,4.78125 c 0,0 -20.8798,32.9773 -51.25,70.0625 -30.3702,37.0852 -70.6718,77.87546 -105.75,92.9375 -34.6303,14.86971 -100.8791,16.49176 -157.2187,13.25 -56.3397,-3.24176 -103.1876,-10.5625 -103.1876,-10.5625 a 10.010854,10.010854 0 1 0 -3.0937,19.78125 c 0,0 47.7274,7.44556 105.1563,10.75 57.4288,3.30444 124.12,3.23281 166.2187,-14.84375 41.6508,-17.88421 82.1371,-60.51849 113.3437,-98.625 31.2067,-38.10651 52.6876,-72.0625 52.6876,-72.0625 a 10.001,10.001 0 0 0 -8.875,-15.46875 z"
       id="path17535"
       inkscape:connector-curvature="0" />
    <path
       inkscape:connector-curvature="0"
       id="path17615"
       d="m 1484.2405,775.5551 0,14.24914 m 6,2.83868 0,-19.89668 m 6,0.53892 0,20.23032 m 6,0.80251 0,-20.17988 m 6,0.77366 0,20.17867 m 6,0.77245 0,-20.17746 m 6,0.77366 0,20.17625 m 6,0.64616 0,-20.11751 m 6,0.63581 0,20.11665 m 6,0.63495 0,-20.1158 m 6,0.63581 0,20.11494 m 6,0.63494 0,-20.11407 m 6,0.63234 0,20.07312 m 6,0.50777 0,-20.07262 m 6,0.50827 0,20.07213 m 6,0.50072 0,-20.06457 m 6,0.4227 0,20.04478 m 6,0.40291 0,-20.04459 m 6,0.40309 0,20.04441 m 6,0.33801 0,-20.02936 m 6,0.27092 0,20.0467 m 6,0.28826 0,-20.06404 m 6,0.27093 0,20.08137 m 6,0.16292 0,-20.0979 m 6,0.11399 0,20.13526 m 6,0.15134 0,-20.17261 m 6,0.09 0,20.20108 m 6,-0.0254 0,-20.24018 m 6,-0.0645 0,20.27927 m 6,-0.0254 0,-20.31836 m 6,-0.16705 0,20.35973 m 6,-0.25101 0,-20.3855 m 6,-0.27677 0,20.41125 m 6,-0.25102 0,-20.43701 m 6,-0.51973 0,20.54827 m 6,-0.45918 0,-20.62989 m 6,-0.5408 0,20.55517 m 6,-0.6585 0,-20.56762 m 6,-0.78783 0,20.54466 m 6,-0.91217 0,-20.60384 m 6,-1.07833 0,20.65548 m 6,-1.22849 0,-20.65091 m 6,-1.48983 0,20.80348 m 6,-1.57053 0,-20.94381 m 6,-2.00259 0,21.14114 m 6,-2.01221 0,-21.52575 m 6,-2.85199 0,22.04193 m 6,-2.73576 0,-22.58314 m 6,-3.67252 0,23.214 m 6,-3.3394 0,-23.88063 m 6,-4.31464 0,24.55984 m 6,-4.01511 0,-25.14729 m 6,-4.9255 0,25.79315 m 6,-4.53959 0,-26.46517 m 6,-5.24887 0,26.88741 m 6,-5.20606 0,-27.43487 m 6,-5.75351 0,27.98231 m 6,-5.65097 0,-28.47995 m 6,-6.24128 0,28.93355 m 6,-5.99678 0,-29.45545 m 6,-6.6904 0,29.84162 m 6,-6.36875 0,-30.38486 m 6,-7.11548 0,30.74205 m 6,-6.7583 0,-31.31268 m 6,-7.50322 0,31.66874 m 6,-7.15004 0,-32.26806 m 6,-7.87564 0,32.64942 m 6,-7.53853 0,-33.39033 m 6,-8.27943 0,33.82704 m 6,-8.0218 0,-34.28184 m 6,-8.7962 0,34.79435 m 6,-8.28369 0,-35.54965 m 6,-4.3684 0,31.30691 m 6,-8.80236 0,-22.12744 m 6,6.37199 0,5.94577 m -207.2981,184.28936 -172.3897,0 m -51.4375,-6 249.5428,0 m 16.1751,-6 -280.2366,0 m -1.2811,-6 90.3081,0 m 203.1602,0 -71.455,0 m -219.1869,-6 29.7672,0 m 270.9264,0 -48.3309,0 m 17.6427,-6 39.4914,0 m 8.0429,-6 -35.7574,0 m 9.5926,-6 33.5684,0 m 6.915,-6 -31.9843,0 m 7.7764,-6 30.9959,0 m 6.2201,-6 -30.1129,0 m 6.9076,-6 29.4254,0 m 5.7583,-6 -28.7359,0 m 6.257,-6 28.1893,0 m 5.5076,-6 -27.7043,0 m 5.768,-6 27.2631,0 m 5.2953,-6 -26.8911,0 m 5.3808,-6 26.5453,0 m 5.0349,-6 -26.1993,0 m 5.0842,-6 25.9837,0 m 4.7974,-6 -25.7217,0 m 4.9062,-6 25.5382,0 m 4.5903,-6 -25.3305,0 m 4.7341,-6 25.1514,0 m 4.3459,-6 -24.9056,0 m 4.5543,-6 24.6972,0 m 4.3458,-6 -24.6949,0 m 4.3481,-6 24.6125,0 m 4.0898,-6 -24.3542,0 m 4.2385,-6 24.2055,0 m 3.9677,-6 -24.0805,0 m 4.0927,-6 22.6564,0 m -1.0186,-6 -17.7016,0"
       style="fill:none;stroke:#000000;stroke-width:4;stroke-miterlimit:4;stroke-dasharray:none" />
    <path
       style="fill:none;stroke:#000000;stroke-width:4;stroke-linecap:round;stroke-linejoin:round;stroke-miterlimit:4;stroke-opacity:1;stroke-dasharray:none;stroke-dashoffset:0"
       d="m 1333.4375,397.42468 c -62.2788,0 -112.75,50.50241 -112.75,112.78125 0,62.27884 50.4712,112.75 112.75,112.75 62.2788,0 112.7813,-50.47116 112.7813,-112.75 0,-62.27884 -50.5025,-112.78125 -112.7813,-112.78125 z m 39.5,33.125 c 10.9076,0 19.75,8.8424 19.75,19.75 0,10.9076 -8.8424,19.75 -19.75,19.75 -10.9076,0 -19.75,-8.8424 -19.75,-19.75 0,-10.9076 8.8424,-19.75 19.75,-19.75 z"
       id="path15740"
       inkscape:connector-curvature="0" />
    <path
       inkscape:connector-curvature="0"
       id="path16335"
       d="m 1659.6301,397.42468 c -62.2788,0 -112.75,50.50241 -112.75,112.78125 0,62.27884 50.4712,112.75 112.75,112.75 62.2788,0 112.7813,-50.47116 112.7813,-112.75 0,-62.27884 -50.5025,-112.78125 -112.7813,-112.78125 z m 39.5,33.125 c 10.9076,0 19.75,8.8424 19.75,19.75 0,10.9076 -8.8424,19.75 -19.75,19.75 -10.9076,0 -19.75,-8.8424 -19.75,-19.75 0,-10.9076 8.8424,-19.75 19.75,-19.75 z"
       style="fill:none;stroke:#000000;stroke-width:4;stroke-linecap:round;stroke-linejoin:round;stroke-miterlimit:4;stroke-opacity:1;stroke-dasharray:none;stroke-dashoffset:0" />
  </g>
  <g
     inkscape:groupmode="layer"
     id="layer5"
     inkscape:label="1-blue"
     style="display:inline">
    <path
       style="fill:none;stroke:#000000;stroke-width:4;stroke-miterlimit:4;stroke-dasharray:none"
       d="m 1226.2405,222.98437 0,69.71562 m 6,14.62748 0,-98.97366 m 6,-10.76299 0,120.49677 m 6,8.54937 0,-137.59817 m 6,-7.12361 0,151.84291 m 6,6.11692 0,-164.07907 m 6,-5.37048 0,174.81786 m 6,4.48647 0,-183.79274 m 6,-3.94867 0,191.68828 m 6,3.57554 0,-198.84104 m 6,-2.89141 0,204.62243 m 6,2.57821 0,-209.78017 m 6,-2.19681 0,214.17264 m 6,1.72375 0,-217.62108 m 6,-1.54329 0,220.7068 m 6,0.96475 0,-222.63685 m 6,-0.88205 0,224.40043 m 6,0.30289 0,-225.00639 m 6,-0.22195 0,225.45015 m 6,-0.30287 0,-224.84422 m 6,0.43311 0,223.97825 m 6,-0.91539 0,-222.14693 m 6,1.13293 0,36.97083 m 0,182.91088 0,-156.75372 m 6,-61.58492 0,30.85629 m 0,185.94013 0,-150.64003 m 6,-64.25742 0,27.12925 m 0,185.87026 0,-146.91402 m 6,-63.8891 0,24.99395 m 0,183.61393 0,-144.77987 m 6,-61.06377 0,24.32562 m 0,178.75517 0,-144.11293 m 6,-55.94525 0,26.28002 m 0,170.75704 0,-146.06882 m 6,-47.32283 0,189.74793 m 6,-4.16947 0,-181.40712 m 6,4.65883 0,172.09145 m 6,-5.45108 0,-161.18711 m 6,6.42123 0,148.34702 m 6,-7.49426 0,-133.35597 m 6,9.03737 0,115.28395 m 6,-11.43468 0,-92.41167 m 6,16.92343 0,58.56796 m -82.0964,80.15391 -53.4113,0 m -18.129,-6 89.6725,0 m 11.726,-6 -113.1216,0 m -9.2411,-6 131.6066,0 m 7.6546,-6 -146.9132,0 m -6.5458,-6 160.0071,0 m 5.4553,-6 -170.9154,0 m -4.7626,-6 180.4425,0 m 4.263,-6 -188.9666,0 m -3.6447,-6 196.2578,0 m 3.104,-6 -202.4643,0 m -2.8374,-6 208.1405,0 m 2.1968,-6 -212.533,0 m -1.9676,-6 216.4693,0 m 1.5433,-6 -219.555,0 m -1.1988,-6 221.9532,0 m 0.916,-6 -223.7847,0 m -0.4976,-6 224.7803,0 m 0.303,-6 -225.3862,0 m 0.1579,-6 225.0704,0 m -0.303,-6 -224.4646,0 m 0.8168,-6 222.8305,0 m -0.9159,-6 -220.9992,0 m 1.5251,-6 217.9481,0 m -1.655,-6 -214.6389,0 m 2.1952,-6 140.6113,0 m 69.636,0 -61.6384,0 m -146.1051,-6 127.6275,0 m 77.6109,0 -48.6533,0 m -153.6959,-6 120.9122,0 m 78.5463,0 -41.9365,0 m -154.028,-6 116.1085,0 m 76.3604,0 -37.1312,0 m -151.4823,-6 112.729,0 m 72.0273,0 -33.7499,0 m -146.5214,-6 110.7965,0 m 64.9878,0 -31.8154,0 m -138.7066,-6 111.5938,0 m 53.6638,0 -32.6106,0 m -126.6567,-6 153.2747,0 m -6.9661,-6 -139.3449,0 m 8.3433,-6 122.6556,0 m -10.4752,-6 -101.7081,0 m 14.1869,-6 73.3313,0 m -32.3514,-6 -8.6319,0"
       id="path17620"
       inkscape:connector-curvature="0" />
    <path
       style="fill:none;stroke:#000000;stroke-width:4;stroke-miterlimit:4;stroke-dasharray:none"
       d="m 1550.2405,230.95371 0,53.77814 m 6,18.04347 0,-89.86827 m 6,-11.70575 0,113.27683 m 6,9.22654 0,-131.73265 m 6,-7.64345 0,147.01701 m 6,6.5367 0,-160.0928 m 6,-5.45526 0,171.00112 m 6,4.75495 0,-180.51303 m 6,-4.25634 0,189.02383 m 6,3.64475 0,-196.31504 m 6,-3.09809 0,202.50971 m 6,2.83195 0,-208.17502 m 6,-2.19682 0,212.56749 m 6,1.96246 0,-216.49345 m 6,-1.54329 0,219.57917 m 6,1.19386 0,-221.96756 m 6,-0.91601 0,223.79905 m 6,0.4928 0,-224.78495 m 6,-0.30307 0,225.39091 m 6,-0.16258 0,-225.06565 m 6,0.30306 0,224.45971 m 6,-0.82154 0,-222.81615 m 6,0.91593 0,40.50311 m 0,180.48171 0,-160.28569 m 6,-59.16824 0,32.61029 m 0,185.3136 0,-152.39372 m 6,-63.86995 0,28.34352 m 0,186.26084 0,-148.12786 m 6,-64.28011 0,25.57556 m 0,184.63718 0,-145.36106 m 6,-62.34117 0,24.326 m 0,180.867 0,-144.11278 m 6,-58.1895 0,25.14164 m 0,174.27136 0,-144.92986 m 6,-50.98162 0,31.56272 m 0,160.8489 0,-151.3526 m 6,-37.19521 0,184.68577 m 6,-4.48501 0,-175.71381 m 6,5.27202 0,165.17191 m 6,-5.99931 0,-153.171 m 6,6.97726 0,139.21894 m 6,-8.35789 0,-122.50052 m 6,10.49542 0,101.51253 m 6,-14.21771 0,-73.07404 m 6,33.15522 0,6.76695 m -85.9038,106.05333 -53.4113,0 m -18.129,-6 89.6725,0 m 11.726,-6 -113.1216,0 m -9.2411,-6 131.6066,0 m 7.6546,-6 -146.9132,0 m -6.5458,-6 160.0071,0 m 5.4553,-6 -170.9154,0 m -4.7626,-6 180.4425,0 m 4.263,-6 -188.9666,0 m -3.6447,-6 196.2578,0 m 3.104,-6 -202.4643,0 m -2.8374,-6 208.1405,0 m 2.1968,-6 -212.533,0 m -1.9676,-6 216.4693,0 m 1.5433,-6 -219.555,0 m -1.1988,-6 221.9532,0 m 0.916,-6 -223.7847,0 m -0.4976,-6 224.7803,0 m 0.303,-6 -225.3862,0 m 0.1579,-6 225.0704,0 m -0.303,-6 -224.4646,0 m 0.8168,-6 222.8305,0 m -0.9159,-6 -220.9992,0 m 1.5251,-6 217.9481,0 m -1.655,-6 -214.6389,0 m 2.1952,-6 140.6113,0 m 69.636,0 -61.6384,0 m -146.1051,-6 127.6275,0 m 77.6109,0 -48.6533,0 m -153.6959,-6 120.9122,0 m 78.5463,0 -41.9365,0 m -154.028,-6 116.1085,0 m 76.3604,0 -37.1312,0 m -151.4823,-6 112.729,0 m 72.0273,0 -33.7499,0 m -146.5214,-6 110.7965,0 m 64.9878,0 -31.8154,0 m -138.7066,-6 111.5938,0 m 53.6638,0 -32.6106,0 m -126.6567,-6 153.2747,0 m -6.9661,-6 -139.3449,0 m 8.3433,-6 122.6556,0 m -10.4752,-6 -101.7081,0 m 14.1869,-6 73.3313,0 m -32.3514,-6 -8.6319,0"
       id="path17625"
       inkscape:connector-curvature="0" />
  </g>
</svg>
