<?xml version="1.0" encoding="UTF-8" standalone="no"?>
<!-- Created with Inkscape (http://www.inkscape.org/) -->

<svg
   xmlns:dc="http://purl.org/dc/elements/1.1/"
   xmlns:cc="http://creativecommons.org/ns#"
   xmlns:rdf="http://www.w3.org/1999/02/22-rdf-syntax-ns#"
   xmlns:svg="http://www.w3.org/2000/svg"
   xmlns="http://www.w3.org/2000/svg"
   xmlns:sodipodi="http://sodipodi.sourceforge.net/DTD/sodipodi-0.dtd"
   xmlns:inkscape="http://www.inkscape.org/namespaces/inkscape"
   sodipodi:docname="pumpkin_mini3B.svg"
   inkscape:version="0.48.5 r10040"
   version="1.1"
   id="svg27345"
   height="800"
   width="3200">
  <sodipodi:namedview
     id="base"
     pagecolor="#ffffff"
     bordercolor="#666666"
     borderopacity="1.0"
     inkscape:pageopacity="0.0"
     inkscape:pageshadow="2"
     inkscape:zoom="0.3428125"
     inkscape:cx="1600"
     inkscape:cy="400"
     inkscape:document-units="px"
     inkscape:current-layer="layer1"
     showgrid="false"
     inkscape:window-width="1436"
     inkscape:window-height="855"
     inkscape:window-x="0"
     inkscape:window-y="0"
     inkscape:window-maximized="1" />
  <defs
     id="defs27347">
    <inkscape:path-effect
       effect="rough_hatches"
       id="path-effect29641"
       is_visible="true"
       direction="1661.188,761.78041 , 44.263647,5.2074858"
       dist_rdm="0;1"
       growth="0"
       do_bend="true"
       bender="1661.188,766.78041 , 5,0"
       bottom_edge_variation="0;1"
       top_edge_variation="0;1"
       bottom_tgt_variation="0;1"
       top_tgt_variation="0;1"
       scale_bf="2"
       scale_bb="2"
       scale_tf="2"
       scale_tb="2"
       top_smth_variation="0;1"
       bottom_smth_variation="0;1"
       fat_output="false"
       stroke_width_top="1"
       stroke_width_bottom="1"
       front_thickness="1"
       back_thickness="0.25" />
    <inkscape:path-effect
       back_thickness="0.25"
       front_thickness="1"
       stroke_width_bottom="1"
       stroke_width_top="1"
       fat_output="false"
       bottom_smth_variation="0;1"
       top_smth_variation="0;1"
       scale_tb="2"
       scale_tf="2"
       scale_bb="2"
       scale_bf="2"
       top_tgt_variation="0;1"
       bottom_tgt_variation="0;1"
       top_edge_variation="0;1"
       bottom_edge_variation="0;1"
       bender="1497.375,690.51888 , 5,0"
       do_bend="true"
       growth="0"
       dist_rdm="0;1"
       direction="1497.375,685.51888 , 19.991088,10.19352"
       is_visible="true"
       id="path-effect16347"
       effect="rough_hatches" />
    <inkscape:path-effect
       effect="rough_hatches"
       id="path-effect15626"
       is_visible="true"
       direction="1608.7009,657.35466 , 24.749006,11.46771"
       dist_rdm="0;1"
       growth="0"
       do_bend="true"
       bender="1608.7009,662.35466 , 8.995122,0"
       bottom_edge_variation="0;1"
       top_edge_variation="0;1"
       bottom_tgt_variation="0;1"
       top_tgt_variation="0;1"
       scale_bf="2"
       scale_bb="2"
       scale_tf="2"
       scale_tb="2"
       top_smth_variation="0;1"
       bottom_smth_variation="0;1"
       fat_output="false"
       stroke_width_top="1"
       stroke_width_bottom="1"
       front_thickness="1"
       back_thickness="0.25" />
    <inkscape:path-effect
       back_thickness="0.25"
       front_thickness="1"
       stroke_width_bottom="1"
       stroke_width_top="1"
       fat_output="false"
       bottom_smth_variation="0;1"
       top_smth_variation="0;1"
       scale_tb="2"
       scale_tf="2"
       scale_bb="2"
       scale_bf="2"
       top_tgt_variation="0;1"
       bottom_tgt_variation="0;1"
       top_edge_variation="0;1"
       bottom_edge_variation="0;1"
       bender="1634.4066,839.91327 , 7.363669,0"
       do_bend="true"
       growth="0"
       dist_rdm="0;1"
       direction="1634.4066,834.91327 , 36.933417,5.0967598"
       is_visible="true"
       id="path-effect10393"
       effect="rough_hatches" />
    <inkscape:path-effect
       back_thickness="0.25"
       front_thickness="1"
       stroke_width_bottom="1"
       stroke_width_top="1"
       fat_output="false"
       bottom_smth_variation="0;1"
       top_smth_variation="0;1"
       scale_tb="2"
       scale_tf="2"
       scale_bb="2"
       scale_bf="2"
       top_tgt_variation="0;1"
       bottom_tgt_variation="0;1"
       top_edge_variation="0;1"
       bottom_edge_variation="0;1"
       bender="1773.2942,526.85659 , 7.363669,0"
       do_bend="true"
       growth="0"
       dist_rdm="0;1"
       direction="1773.2942,521.85659 , 38.977433,3.8225699"
       is_visible="true"
       id="path-effect10391"
       effect="rough_hatches" />
    <inkscape:path-effect
       back_thickness="0.25"
       front_thickness="1"
       stroke_width_bottom="1"
       stroke_width_top="1"
       fat_output="false"
       bottom_smth_variation="0;1"
       top_smth_variation="0;1"
       scale_tb="2"
       scale_tf="2"
       scale_bb="2"
       scale_bf="2"
       top_tgt_variation="0;1"
       bottom_tgt_variation="0;1"
       top_edge_variation="0;1"
       bottom_edge_variation="0;1"
       bender="1421.8401,247.32253 , 7.363669,0"
       do_bend="true"
       growth="0"
       dist_rdm="0;1"
       direction="1421.8401,242.32253 , 35.35754,7.6451397"
       is_visible="true"
       id="path-effect10389"
       effect="rough_hatches" />
    <inkscape:path-effect
       back_thickness="0.25"
       front_thickness="1"
       stroke_width_bottom="1"
       stroke_width_top="1"
       fat_output="false"
       bottom_smth_variation="0;1"
       top_smth_variation="0;1"
       scale_tb="2"
       scale_tf="2"
       scale_bb="2"
       scale_bf="2"
       top_tgt_variation="0;1"
       bottom_tgt_variation="0;1"
       top_edge_variation="0;1"
       bottom_edge_variation="0;1"
       bender="1102.5802,207.92952 , 5,0"
       do_bend="true"
       growth="0"
       dist_rdm="0;1"
       direction="1102.5802,202.92952 , 24.669602,4.0276901"
       is_visible="true"
       id="path-effect9226"
       effect="rough_hatches" />
    <inkscape:path-effect
       back_thickness="0.25"
       front_thickness="1"
       stroke_width_bottom="1"
       stroke_width_top="1"
       fat_output="false"
       bottom_smth_variation="0;1"
       top_smth_variation="0;1"
       scale_tb="2"
       scale_tf="2"
       scale_bb="2"
       scale_bf="2"
       top_tgt_variation="0;1"
       bottom_tgt_variation="0;1"
       top_edge_variation="0;1"
       bottom_edge_variation="0;1"
       bender="1341.2209,235.11642 , 5,0"
       do_bend="true"
       growth="0"
       dist_rdm="0;1"
       direction="1341.2209,230.11642 , 24.153697,4.0152439"
       is_visible="true"
       id="path-effect9224"
       effect="rough_hatches" />
    <inkscape:path-effect
       back_thickness="0.25"
       front_thickness="1"
       stroke_width_bottom="1"
       stroke_width_top="1"
       fat_output="false"
       bottom_smth_variation="0;1"
       top_smth_variation="0;1"
       scale_tb="2"
       scale_tf="2"
       scale_bb="2"
       scale_bf="2"
       top_tgt_variation="0;1"
       bottom_tgt_variation="0;1"
       top_edge_variation="0;1"
       bottom_edge_variation="0;1"
       bender="1222.4734,491.10713 , -5,0"
       do_bend="true"
       growth="0"
       dist_rdm="0;1"
       direction="1222.4734,496.10713 , -24.103925,-7.042235"
       is_visible="true"
       id="path-effect9222"
       effect="rough_hatches" />
    <inkscape:path-effect
       back_thickness="0.25"
       front_thickness="1"
       stroke_width_bottom="1"
       stroke_width_top="1"
       fat_output="false"
       bottom_smth_variation="0;1"
       top_smth_variation="0;1"
       scale_tb="2"
       scale_tf="2"
       scale_bb="2"
       scale_bf="2"
       top_tgt_variation="0;1"
       bottom_tgt_variation="0;1"
       top_edge_variation="0;1"
       bottom_edge_variation="0;1"
       bender="1540.8385,638.66418 , -6.041742,0"
       do_bend="true"
       growth="0"
       dist_rdm="0;1"
       direction="1540.8385,644.70668 , -15.509646,2.0138452"
       is_visible="true"
       id="path-effect3100"
       effect="rough_hatches" />
    <inkscape:path-effect
       effect="rough_hatches"
       id="path-effect3070"
       is_visible="true"
       direction="1542.7188,608.88122 , 26.788776,-3.1724596e-08"
       dist_rdm="0;1"
       growth="0"
       do_bend="true"
       bender="1542.7188,613.88122 , 5,0"
       bottom_edge_variation="0;1"
       top_edge_variation="0;1"
       bottom_tgt_variation="0;1"
       top_tgt_variation="0;1"
       scale_bf="2"
       scale_bb="2"
       scale_tf="2"
       scale_tb="2"
       top_smth_variation="0;1"
       bottom_smth_variation="0;1"
       fat_output="false"
       stroke_width_top="1"
       stroke_width_bottom="1"
       front_thickness="1"
       back_thickness="0.25" />
    <inkscape:perspective
       id="perspective27353"
       inkscape:persp3d-origin="372.04724 : 350.78739 : 1"
       inkscape:vp_z="744.09448 : 526.18109 : 1"
       inkscape:vp_y="0 : 1000 : 0"
       inkscape:vp_x="0 : 526.18109 : 1"
       sodipodi:type="inkscape:persp3d" />
    <inkscape:path-effect
       effect="rough_hatches"
       id="path-effect15626-7"
       is_visible="true"
       direction="1608.7009,657.35466 , 56.841189,-16.564469"
       dist_rdm="0;1"
       growth="0"
       do_bend="true"
       bender="1608.7009,662.35466 , 8.995122,0"
       bottom_edge_variation="0;1"
       top_edge_variation="0;1"
       bottom_tgt_variation="0;1"
       top_tgt_variation="0;1"
       scale_bf="2"
       scale_bb="2"
       scale_tf="2"
       scale_tb="2"
       top_smth_variation="0;1"
       bottom_smth_variation="0;1"
       fat_output="false"
       stroke_width_top="1"
       stroke_width_bottom="1"
       front_thickness="1"
       back_thickness="0.25" />
    <inkscape:path-effect
       effect="rough_hatches"
       id="path-effect29641-8"
       is_visible="true"
       direction="1661.1879,509.41823 , 44.263647,5.2074858"
       dist_rdm="0;1"
       growth="0"
       do_bend="true"
       bender="1661.1879,514.41823 , 5,0"
       bottom_edge_variation="0;1"
       top_edge_variation="0;1"
       bottom_tgt_variation="0;1"
       top_tgt_variation="0;1"
       scale_bf="2"
       scale_bb="2"
       scale_tf="2"
       scale_tb="2"
       top_smth_variation="0;1"
       bottom_smth_variation="0;1"
       fat_output="false"
       stroke_width_top="1"
       stroke_width_bottom="1"
       front_thickness="1"
       back_thickness="0.25" />
  </defs>
  <metadata
     id="metadata27350">
    <rdf:RDF>
      <cc:Work
         rdf:about="">
        <dc:format>image/svg+xml</dc:format>
        <dc:type
           rdf:resource="http://purl.org/dc/dcmitype/StillImage" />
        <dc:title />
      </cc:Work>
    </rdf:RDF>
  </metadata>
  <g
     transform="translate(0,-252.36218)"
     id="layer1"
     inkscape:groupmode="layer"
     inkscape:label="2-black"
     style="display:inline">
    <path
       sodipodi:type="spiral"
       style="fill:none;stroke:#000000;stroke-width:0.72041708px;stroke-linecap:butt;stroke-linejoin:miter;stroke-opacity:1"
       id="path28737"
       sodipodi:cx="1411.5353"
       sodipodi:cy="287.89603"
       sodipodi:expansion="1"
       sodipodi:revolution="10"
       sodipodi:radius="104.40989"
       sodipodi:argument="-250.54201"
       sodipodi:t0="0"
       d="m 1411.5353,287.89603 c 1.1105,1.1105 -0.9491,2.0448 -1.8458,1.84571 -2.4299,-0.53954 -2.8205,-3.65198 -1.8456,-5.53719 1.7437,-3.37219 6.2719,-3.76721 9.2286,-1.84566 4.3391,2.81996 4.7419,8.92738 1.8456,12.92008 -3.8603,5.32164 -11.5954,5.72866 -16.6115,1.84561 -6.3122,-4.88642 -6.7215,-14.26957 -1.8456,-20.30297 5.9054,-7.30725 16.9471,-7.71801 23.9944,-1.84556 8.3051,6.92047 8.7167,19.62666 1.8456,27.68586 -7.9331,9.30467 -22.3077,9.71694 -31.3773,1.84552 -10.3055,-8.94401 -10.7182,-24.98967 -1.8455,-35.06876 9.9538,-11.30721 27.6724,-11.72022 38.7602,-1.84547 12.3095,10.96285 12.7228,30.35566 1.8454,42.45166 -11.9712,13.31242 -33.0393,13.72584 -46.1431,1.84541 -14.3156,-12.97919 -14.7292,-35.72336 -1.8454,-49.83455 13.9868,-15.3192 38.4077,-15.73286 53.526,-1.84536 16.323,14.99406 16.7368,41.09214 1.8454,57.21744 -16.0012,17.32697 -43.7769,17.74079 -60.9089,1.84532 -18.3311,-17.00797 -18.745,-46.46164 -1.8453,-64.60034 18.0146,-19.3354 49.1466,-19.74933 68.2918,-1.84527 20.3398,19.02123 20.7537,51.83165 1.8452,71.98323 -20.0277,21.34432 -54.5168,21.75831 -75.6747,1.84522 -22.3489,-21.03403 -22.7629,-57.20202 -1.8452,-79.36612 22.0403,-23.35357 59.8873,-23.7676 83.0576,-1.84517 24.3583,23.04649 24.7723,62.57267 1.8451,86.74902 -24.0526,25.36308 -65.258,25.77714 -90.4404,1.84512 -26.3679,-25.0587 -26.782,-67.94354 -1.8451,-94.13192 26.0647,-27.37279 70.629,-27.78687 97.8233,-1.84507 28.3778,27.0707 28.7918,73.31458 1.8451,101.51481 -28.0766,29.38267 -76.0002,29.79676 -105.2063,1.84502 -30.3876,-29.08254 -30.8017,-78.68574 -1.845,-108.8977 30.0885,-31.39267 81.3714,-31.80676 112.5892,-1.84497 32.3977,31.09426 32.8118,84.05702 1.8449,116.28059 -32.1,33.40278 -86.7427,33.81687 -119.972,1.84493 -34.4079,-33.10588 -34.822,-89.4284 -1.8449,-123.66349 34.1116,-35.41297 92.1141,-35.82706 127.3549,-1.84488 36.4181,35.1174 36.8322,94.79985 1.8449,131.04639 -36.1232,37.42323 -97.4856,37.8373 -134.7378,1.84482 -38.4284,-37.12885 -38.8425,-100.17135 -1.8448,-138.42928 38.1345,-39.43354 102.8571,-39.84761 142.1207,-1.84477 40.4387,39.14025 40.8528,105.54292 1.8447,145.81217"
       transform="matrix(1.3874576,0,0,1.3887122,-570.67666,134.27201)" />
    <path
       transform="matrix(1.5045029,0,0,1.5058742,-330.77322,75.81766)"
       d="m 1411.5353,287.89603 c 1.1105,1.1105 -0.9491,2.0448 -1.8458,1.84571 -2.4299,-0.53954 -2.8205,-3.65198 -1.8456,-5.53719 1.7437,-3.37219 6.2719,-3.76721 9.2286,-1.84566 4.3391,2.81996 4.7419,8.92738 1.8456,12.92008 -3.8603,5.32164 -11.5954,5.72866 -16.6115,1.84561 -6.3122,-4.88642 -6.7215,-14.26957 -1.8456,-20.30297 5.9054,-7.30725 16.9471,-7.71801 23.9944,-1.84556 8.3051,6.92047 8.7167,19.62666 1.8456,27.68586 -7.9331,9.30467 -22.3077,9.71694 -31.3773,1.84552 -10.3055,-8.94401 -10.7182,-24.98967 -1.8455,-35.06876 9.9538,-11.30721 27.6724,-11.72022 38.7602,-1.84547 12.3095,10.96285 12.7228,30.35566 1.8454,42.45166 -11.9712,13.31242 -33.0393,13.72584 -46.1431,1.84541 -14.3156,-12.97919 -14.7292,-35.72336 -1.8454,-49.83455 13.9868,-15.3192 38.4077,-15.73286 53.526,-1.84536 16.323,14.99406 16.7368,41.09214 1.8454,57.21744 -16.0012,17.32697 -43.7769,17.74079 -60.9089,1.84532 -18.3311,-17.00797 -18.745,-46.46164 -1.8453,-64.60034 18.0146,-19.3354 49.1466,-19.74933 68.2918,-1.84527 20.3398,19.02123 20.7537,51.83165 1.8452,71.98323 -20.0277,21.34432 -54.5168,21.75831 -75.6747,1.84522 -22.3489,-21.03403 -22.7629,-57.20202 -1.8452,-79.36612 22.0403,-23.35357 59.8873,-23.7676 83.0576,-1.84517 24.3583,23.04649 24.7723,62.57267 1.8451,86.74902 -24.0526,25.36308 -65.258,25.77714 -90.4404,1.84512 -26.3679,-25.0587 -26.782,-67.94354 -1.8451,-94.13192 26.0647,-27.37279 70.629,-27.78687 97.8233,-1.84507 28.3778,27.0707 28.7918,73.31458 1.8451,101.51481 -28.0766,29.38267 -76.0002,29.79676 -105.2063,1.84502 -30.3876,-29.08254 -30.8017,-78.68574 -1.845,-108.8977 30.0885,-31.39267 81.3714,-31.80676 112.5892,-1.84497 32.3977,31.09426 32.8118,84.05702 1.8449,116.28059 -32.1,33.40278 -86.7427,33.81687 -119.972,1.84493 -34.4079,-33.10588 -34.822,-89.4284 -1.8449,-123.66349 34.1116,-35.41297 92.1141,-35.82706 127.3549,-1.84488 36.4181,35.1174 36.8322,94.79985 1.8449,131.04639 -36.1232,37.42323 -97.4856,37.8373 -134.7378,1.84482 -38.4284,-37.12885 -38.8425,-100.17135 -1.8448,-138.42928 38.1345,-39.43354 102.8571,-39.84761 142.1207,-1.84477 40.4387,39.14025 40.8528,105.54292 1.8447,145.81217"
       sodipodi:t0="0"
       sodipodi:argument="-250.54201"
       sodipodi:radius="104.40989"
       sodipodi:revolution="10"
       sodipodi:expansion="1"
       sodipodi:cy="287.89603"
       sodipodi:cx="1411.5353"
       id="path28739"
       style="fill:none;stroke:#000000;stroke-width:0.66436863px;stroke-linecap:butt;stroke-linejoin:miter;stroke-opacity:1"
       sodipodi:type="spiral" />
    <path
       style="fill:none;stroke:#000000;stroke-width:1px;stroke-linecap:butt;stroke-linejoin:miter;stroke-opacity:1"
       d="m 2217.5262,773.47341 c 0,0 1.2612,-1.16749 1.8593,-6.24926 0.5981,-5.08177 0.5372,-14.07782 -2.1538,-29.73492 -2.6911,-15.65711 -3.6947,-6.86332 -5.1367,5.64248 -1.442,12.5058 -3.3528,28.7236 -7.7449,27.91453 -4.3921,-0.80907 -2.4719,-17.02542 -0.1821,-37.0414 2.2898,-20.01598 4.9318,-43.83159 2.1805,-59.83918 -1.3757,-8.0038 -2.7084,-6.05179 -4.0736,1.35306 -1.3651,7.40486 -2.7724,20.26257 -4.3186,34.07019 -1.5461,13.80761 -3.2329,28.56513 -5.0926,39.7696 -1.8598,11.20448 -3.8863,18.85591 -6.0825,18.45135 -4.3923,-0.80912 -0.4506,-34.25369 3.4633,-69.56031 1.957,-17.65331 3.9129,-35.77213 4.9119,-50.50978 0.999,-14.73765 1.0463,-26.09413 -0.7729,-30.22277 -1.8191,-4.12864 -3.6764,3.0992 -5.6099,16.23804 -1.9334,13.13884 -3.9559,32.18868 -6.0946,51.70402 -2.1386,19.51534 -4.3944,39.49619 -6.6803,54.49706 -2.2859,15.00087 -4.5911,25.02176 -6.7874,24.61718 -2.1963,-0.40459 -2.16,-10.22409 -1.0586,-24.68081 1.1013,-14.45673 3.2588,-33.55068 5.3395,-52.50415 2.0806,-18.95347 4.0848,-37.76646 4.9781,-51.66128 0.8932,-13.89482 0.6849,-22.87147 -1.6326,-22.15224 -2.3175,0.71922 -4.4284,10.4151 -6.4698,24.52905 -2.0414,14.11396 -4.0214,32.646 -6.0436,51.03756 -2.0222,18.39156 -4.0864,36.64264 -6.2049,50.19468 -2.1184,13.55204 -4.2826,22.40504 -6.4791,22.00043 -2.1964,-0.4046 -2.2296,-9.66221 -1.2277,-23.27606 1.0019,-13.61386 3.0312,-31.58396 4.9908,-49.41358 1.9595,-17.82961 3.8496,-35.51872 4.6602,-48.5706 0.8107,-13.05187 0.5503,-21.4665 -1.7676,-20.74714 -2.318,0.71936 -4.3771,9.85335 -6.3358,23.1244 -1.9588,13.27106 -3.8242,30.67918 -5.7249,47.9468 -1.9008,17.26762 -3.8367,34.39475 -5.856,47.10381 -2.0193,12.70906 -4.1144,21.00006 -6.3109,20.59543 -2.1966,-0.40463 -2.299,-9.10025 -1.3962,-21.87112 0.9029,-12.77087 2.8041,-29.61698 4.6422,-46.32258 3.6762,-33.41119 7.0731,-66.26033 2.4364,-64.82135 -2.3184,0.71949 -4.325,9.29152 -6.2003,21.71956 -1.8753,12.42804 -3.6254,28.71209 -5.4045,44.85562 -3.5581,32.28706 -7.2572,64.01205 -11.6506,63.20275 -4.3934,-0.80931 -0.7028,-32.5343 2.7299,-63.69715 3.4327,-31.16286 6.6145,-61.76357 1.9769,-60.32433 -4.6375,1.43924 -7.8315,32.03996 -11.1456,62.07853 -3.3141,30.03856 -6.7416,59.51498 -11.1352,58.70563 -4.3936,-0.80935 -0.9741,-30.28577 2.2145,-59.19997 3.1886,-28.91421 6.1528,-57.2662 1.5144,-55.82669 -4.6384,1.43951 -7.6139,29.7915 -10.6833,57.58126 -3.0695,27.78976 -6.2267,55.0173 -10.6206,54.2079 -4.3939,-0.8094 -1.244,-28.03694 1.6999,-54.70218 2.9439,-26.66524 5.6879,-52.7682 1.0486,-51.32843 -4.6392,1.43977 -7.3935,27.54273 -10.2178,53.08337 -2.8242,25.54065 -5.7126,50.51899 -10.1068,49.70955 -4.3941,-0.80945 -1.5124,-25.78779 1.1862,-50.20376 2.6987,-24.41598 5.2198,-48.26958 0.5797,-46.82955 -4.6401,1.44004 -7.1707,25.29364 -9.7491,48.58486 -2.5784,23.29122 -5.1994,46.02006 -9.5938,45.21057 -4.3944,-0.80949 -1.7796,-23.53833 0.6732,-45.70472 2.4528,-22.1664 4.7485,-43.77034 0.1076,-42.33004 -4.641,1.44029 -6.7149,20.92387 -9.0425,41.96535 -2.3275,21.04149 -4.9189,43.64089 -10.2941,51.31284 -5.3753,7.67196 -2.7427,-14.92744 -0.041,-39.08469 2.7015,-24.15725 5.454,-49.87235 0.8122,-48.43178 -2.3209,0.72028 -4.7369,12.88803 -7.3028,31.09671 -2.5659,18.20868 -5.2947,42.45828 -8.2008,67.34226 -2.9061,24.88397 -5.9908,50.40233 -9.1208,71.14851 -3.1301,20.74619 -6.2953,36.7202 -9.2812,42.51549 -2.9859,5.7953 -2.7885,-4.38342 -1.0246,-22.86633 1.7639,-18.4829 5.069,-45.26999 8.3206,-72.69145 3.2516,-27.42145 6.4478,-55.47726 8.2201,-76.49761 1.7722,-21.02034 2.1419,-35.00522 -0.1794,-34.28481 -2.3214,0.72042 -4.9117,14.4574 -7.7018,34.53554 -2.7901,20.07813 -5.7967,46.49742 -8.8803,72.58243 -3.0837,26.08501 -6.2436,51.83575 -9.1511,70.57678 -2.9075,18.74104 -5.5441,30.47238 -7.5378,28.51859 -1.9936,-1.95379 -1.3569,-15.63891 0.4967,-35.02256 1.8536,-19.38364 4.9104,-44.46581 7.8233,-69.21369 2.913,-24.74788 5.683,-49.16146 7.1261,-67.20794 1.443,-18.04649 1.5743,-29.72586 -0.7475,-29.00531 -2.3217,0.72054 -4.7773,13.12046 -7.349,31.19276 -2.5718,18.07229 -5.2731,41.81697 -8.0291,65.22702 -2.756,23.41005 -5.5658,46.48548 -8.2016,63.2193 -2.6358,16.73381 -5.0826,27.126 -7.0789,25.16957 -1.9964,-1.95643 -1.5515,-14.30504 0.031,-31.68244 1.5824,-17.37739 4.2919,-39.78356 6.879,-61.8551 2.5872,-22.07153 5.0528,-43.80843 6.2767,-59.84727 1.2239,-16.03884 1.2183,-26.37963 -1.1038,-25.65895 -2.3222,0.72067 -4.6411,11.78214 -6.9932,27.84652 -2.3522,16.06438 -4.7483,37.13167 -7.1789,57.86398 -2.4306,20.73232 -4.895,41.12967 -7.2637,55.85417 -2.3687,14.7245 -4.6297,23.77615 -6.6288,21.81708 -1.999,-1.95908 -1.7419,-12.96981 -0.4259,-28.33887 1.316,-15.36906 3.6828,-35.09646 5.9464,-54.48887 2.2636,-19.39241 4.4246,-38.44983 5.4282,-52.47895 1.0037,-14.02911 0.8593,-23.02993 -1.4633,-22.30912 -2.3226,0.72081 -4.5028,10.44244 -6.6343,24.49681 -2.1314,14.05437 -4.222,32.44149 -6.3295,50.49329 -2.1074,18.0518 -4.2311,35.76828 -6.3374,48.48137 -2.1062,12.7131 -4.1857,20.42281 -6.1875,18.46107 -2.0018,-1.96174 -1.9283,-11.63319 -0.8741,-24.99183 1.0541,-13.35864 3.083,-30.40447 5.0254,-47.11496 3.8846,-33.42098 7.4009,-65.50062 2.7548,-64.05874 -2.323,0.72094 -4.3627,9.10132 -6.2722,21.14359 -1.9094,12.04227 -3.6945,27.74642 -5.4811,43.1149 -3.5733,30.73697 -7.1689,60.13126 -11.1779,56.20243 -4.009,-3.92883 -0.4441,-33.32312 2.8026,-61.37466 3.2467,-28.05154 6.1895,-54.76034 1.5426,-53.31819 -4.6469,1.44215 -7.6045,28.15095 -10.5407,53.51566 -2.9363,25.36472 -5.837,49.38535 -9.8515,45.45115 -4.0144,-3.93419 -1.1388,-27.95482 1.4746,-50.6313 2.6134,-22.67648 4.976,-44.0088 0.3282,-42.56639 -4.6478,1.44242 -7.0222,22.77474 -9.326,42.76157 -2.3038,19.98683 -4.5257,38.62815 -8.5457,34.68857 -4.02,-3.93959 -1.823,-22.53576 0.1505,-39.73201 1.9736,-17.19624 3.7327,-32.99255 -0.9403,-31.33241 -4.673,1.66015 -6.3238,16.41579 -7.9751,30.81082 -1.6513,14.39502 -3.3013,28.42944 -7.8145,28.64714 -4.5133,0.2177 -2.8637,-13.81672 -1.2935,-27.49042 1.5701,-13.6737 3.0629,-26.98669 -1.6112,-25.32614 -4.6742,1.66055 -6.2944,16.07314 -8.0434,31.22679 -1.7489,15.15366 -3.6301,31.04839 -8.6679,35.67321 -5.0377,4.62482 -3.1396,-11.26991 -1.2068,-27.9056 1.9328,-16.63569 3.8945,-34.01235 -0.7808,-32.35139 -4.6752,1.66095 -6.6401,19.03761 -8.754,37.15742 -2.1139,18.11981 -4.3811,36.98278 -9.4284,41.61637 -5.0473,4.63358 -2.76,-14.22939 -0.4576,-33.83542 2.3024,-19.60602 4.6131,-39.9551 -0.063,-38.29374 -4.6764,1.66135 -6.9907,22.01043 -9.478,43.10477 -2.4872,21.09434 -5.1525,42.93394 -10.2094,47.57634 -5.0569,4.64239 -2.3682,-17.1972 0.3122,-39.78196 2.6803,-22.58476 5.3448,-45.91467 0.6673,-44.25291 -4.6776,1.66177 -7.3463,24.99168 -10.2153,49.06897 -2.869,24.07728 -5.9445,48.90194 -11.0111,53.5532 -5.0665,4.65126 -1.9645,-20.1734 1.1024,-45.74533 3.0669,-25.57193 6.0901,-51.89114 1.4114,-50.22896 -4.6787,1.66217 -7.7067,27.98137 -10.966,55.05007 -3.2593,27.0687 -6.7571,54.8869 -11.8334,59.54708 -5.0762,4.66017 -1.5486,-23.15803 1.9133,-51.72563 3.462,-28.56761 6.8489,-57.88461 2.169,-56.22203 -4.6798,1.66257 -8.072,30.97957 -11.7302,61.04821 -3.6583,30.06864 -7.5906,60.88892 -12.6766,65.55806 -5.0861,4.66914 -1.1206,-26.15114 2.745,-57.72296 1.9328,-15.78591 3.8456,-31.7597 4.6808,-43.57915 0.8351,-11.81944 0.5999,-19.48454 -1.7406,-18.65304 -4.681,1.66298 -8.4423,33.98633 -12.5081,67.06349 -2.0329,16.53857 -4.1352,33.26559 -6.3766,46.44274 -2.2413,13.17715 -4.6164,22.80443 -7.1643,25.14351 -5.0958,4.67816 -0.6802,-29.15279 3.5978,-63.73742 2.139,-17.29232 4.2497,-34.77306 5.2293,-47.7228 0.9797,-12.94974 0.8367,-21.36848 -1.5044,-20.53678 -2.341,0.83169 -4.586,10.47244 -6.8113,24.41705 -2.2253,13.94461 -4.4385,32.19308 -6.6823,50.24022 -2.2438,18.04715 -4.5179,35.89296 -6.7763,49.03225 -2.2584,13.1393 -4.4927,21.57207 -6.6343,20.79314 -2.1416,-0.77894 -2.0506,-9.99065 -0.8931,-23.31807 1.1574,-13.32742 3.3744,-30.77055 5.5155,-48.01233 4.2822,-34.48355 8.2343,-68.16169 3.551,-66.49789 -2.3416,0.83189 -4.4885,9.57594 -6.5532,22.12959 -2.0647,12.55366 -4.0534,28.91691 -6.05,44.98723 -3.9932,32.14063 -8.0378,63.1095 -12.1318,60.08623 -4.094,-3.02327 -0.1604,-33.32068 3.5328,-63.11768 3.6931,-29.797 7.1512,-59.09358 2.7841,-60.11519 -4.3671,-1.02161 -7.8222,28.27497 -11.3825,57.07053 -3.5603,28.79556 -7.2197,57.0901 -11.317,54.06438 -4.0973,-3.02571 -0.4308,-31.52534 3.0405,-59.7292 3.4714,-28.20385 6.7504,-56.11192 2.479,-57.9545 -4.2715,-1.84258 -7.542,26.06549 -10.9287,53.67717 -3.3867,27.61167 -6.8861,54.92695 -10.9867,51.89879 -4.1007,-3.02816 -0.6192,-30.34344 2.6801,-57.36246 3.2994,-27.01902 6.4197,-53.74178 2.147,-55.58491 -4.2727,-1.84313 -7.3848,24.87963 -10.6005,51.30552 -3.2158,26.42589 -6.5318,52.55492 -10.6358,49.5243 -4.104,-3.03062 -0.8052,-29.15964 2.3244,-54.99193 3.1295,-25.83228 6.0925,-51.36784 1.8185,-53.21152 -4.274,-1.84368 -7.2292,23.69187 -10.276,48.93008 -3.0469,25.2382 -6.1821,50.17906 -10.2894,47.14598 -4.1073,-3.03308 -0.9885,-27.97394 1.9732,-52.61758 2.9617,-24.64365 5.7689,-48.99008 1.4936,-50.83432 -4.2752,-1.84424 -7.075,22.5022 -9.955,46.55081 -2.88,24.04861 -5.837,47.79939 -9.9477,44.76384 -4.1106,-3.03554 -1.1692,-26.78633 1.6267,-50.23942 2.796,-23.45309 5.4489,-46.6085 1.1724,-48.45329 -4.2766,-1.84479 -6.9225,21.31062 -9.6377,44.16771 -2.7151,22.8571 -5.4966,45.41589 -9.6106,42.37787 -4.114,-3.03802 -1.3474,-25.59681 1.2848,-47.85743 2.6323,-22.26062 5.1325,-44.22308 0.8546,-46.06842 -4.2778,-1.84535 -6.7713,20.11711 -9.3238,41.78077 -2.5524,21.66367 -5.1609,43.02854 -9.2783,39.98804 -4.1173,-3.0405 -1.5229,-24.40537 0.9477,-45.4716 2.4706,-21.06623 4.8196,-41.83381 0.5405,-43.67971 -4.2792,-1.8459 -6.6218,18.92168 -9.0136,39.38999 -2.3918,20.4683 -4.83,40.63734 -8.9507,37.59435 -4.1207,-3.04298 -1.6497,-23.60809 0.6205,-43.12751 2.2702,-19.51942 4.3473,-37.99315 -0.2687,-36.85339 -4.616,1.13976 -6.6655,19.30207 -8.6922,36.72949 -2.0266,17.42742 -4.0254,34.11996 -8.2979,32.32019 -4.2726,-1.79978 -2.2822,-18.49231 -0.4299,-34.44994 1.8524,-15.95762 3.5714,-31.18033 -1.0452,-30.04044 -4.6165,1.13989 -6.474,17.55193 -8.4392,34.41897 -1.9653,16.86703 -4.0411,34.18905 -8.8845,37.1489 -4.8434,2.95985 -2.7559,-14.36217 -0.6758,-32.13915 2.0802,-17.77698 4.1493,-36.00891 -0.4678,-34.86889 -4.6171,1.14002 -6.6887,19.37195 -8.8812,38.05942 -2.1926,18.68747 -4.5091,37.83046 -9.3562,40.79261 -4.8472,2.96214 -2.5177,-16.18085 -0.2085,-35.77935 2.3091,-19.59849 4.5941,-39.65249 -0.024,-38.51233 -4.6176,1.14015 -6.9053,21.19414 -9.3284,41.70421 -2.4231,20.51006 -4.9848,41.4762 -9.8357,44.44064 -4.8509,2.96444 -2.275,-18.00169 0.2665,-39.42387 2.5415,-21.42218 5.0443,-43.3004 0.4261,-42.16011 -4.6181,1.14028 -7.1239,23.0185 -9.7807,45.35333 -2.6568,22.33483 -5.4684,45.12628 -10.3231,48.09303 -4.8547,2.96674 -2.0276,-19.8247 0.7494,-43.07274 2.777,-23.24803 5.4994,-46.95264 0.8808,-45.81223 -4.6187,1.14042 -7.3443,24.84503 -10.2381,49.00681 -2.8939,24.16177 -5.9599,48.78071 -10.8184,51.74976 -4.8584,2.96906 -1.7757,-21.64988 1.2402,-46.72594 3.0158,-25.07606 5.9597,-50.60925 1.3405,-49.46871 -4.6192,1.14055 -7.5666,26.67374 -10.7007,52.66463 -3.134,25.9909 -6.4591,52.4395 -11.3214,55.41087 -4.8622,2.97137 -1.5192,-23.47723 1.7387,-50.3835 3.2579,-26.90628 6.4252,-54.27023 1.8055,-53.12955 -4.6197,1.14067 -7.7908,28.50462 -11.1684,56.32682 -3.3776,27.82221 -6.9663,56.10266 -11.8323,59.07635 -4.8661,2.97369 -1.2581,-25.30676 2.245,-54.04544 3.5032,-28.73868 6.896,-57.93557 2.2757,-56.79477 -4.6203,1.14081 -8.017,30.33771 -11.6413,59.99341 -3.6244,29.6557 -7.4814,59.7702 -12.3512,62.74622 -4.8698,2.97601 -0.9923,-27.13849 2.7594,-57.71176 3.7517,-30.57327 7.3718,-61.60531 2.751,-60.46437 -4.6208,1.14094 -8.2451,32.17298 -12.1195,63.66437 -3.8743,31.49139 -8.0042,63.44213 -12.8779,66.42048 -4.8737,2.97835 -0.722,-28.97239 3.2816,-61.38246 2.0018,-16.20503 3.9726,-32.52489 4.8559,-44.65086 0.8833,-12.12597 0.6863,-20.05805 -1.6244,-19.48751 -4.6213,1.14107 -8.475,34.01045 -12.6027,67.33973 -2.0639,16.66465 -4.1891,33.44427 -6.418,46.43031 -2.229,12.98604 -4.5559,22.17851 -6.9947,23.66885 -4.8775,2.98069 -0.4805,-30.54627 3.7792,-64.79533 2.1298,-17.12453 4.2317,-34.42959 5.2279,-47.44198 0.9963,-13.01238 0.8945,-21.73211 -1.3548,-21.68597 -2.2492,0.0461 -4.3965,8.812 -6.5395,22.02805 -2.1429,13.21606 -4.2891,30.88231 -6.5117,48.72924 -2.2225,17.84692 -4.5217,35.87452 -6.8873,49.81326 -2.3656,13.93875 -4.7907,23.78864 -7.2314,25.28015 -2.4406,1.49151 -2.44,-6.96354 -1.238,-20.53055 1.2019,-13.56701 3.5954,-32.24598 5.9624,-51.20231 2.367,-18.95633 4.7071,-38.19002 5.9018,-52.86647 1.1948,-14.67645 1.253,-24.79566 -0.9057,-25.52303 -2.1586,-0.72737 -4.3799,8.71968 -6.6897,23.36508 -2.3098,14.64541 -4.7184,34.48917 -7.2231,54.55523 -2.5046,20.06607 -5.1058,40.35444 -7.6918,55.88905 -2.586,15.53461 -5.1476,26.31547 -7.5313,27.36652 -2.3836,1.05106 -2.203,-8.67875 -0.7732,-23.91015 1.4298,-15.2314 4.0973,-35.96439 6.718,-56.9197 2.6207,-20.95531 5.1941,-42.13294 6.5561,-58.25361 1.362,-16.12068 1.5233,-27.1844 -0.6357,-27.91191 -2.1591,-0.7275 -4.4279,9.17696 -6.7865,24.29239 -2.3586,15.11542 -4.8182,35.44181 -7.3214,55.55814 -2.5032,20.11633 -5.0495,40.02261 -7.4636,54.29783 -2.4141,14.27522 -4.6839,22.91938 -6.6102,20.51146 -1.9263,-2.40792 -1.5885,-13.45999 -0.1797,-28.72913 1.4088,-15.26913 3.8811,-34.75533 6.2645,-54.03149 2.3835,-19.27616 4.6784,-38.34228 5.8261,-52.77128 1.1477,-14.42899 1.1562,-24.22086 -1.0032,-24.9485 -2.1595,-0.72764 -4.3262,8.33659 -6.5241,22.19142 -2.1978,13.85483 -4.4361,32.50027 -6.7071,50.93506 -2.271,18.43478 -4.5743,36.65892 -6.8023,49.67114 -2.228,13.01222 -4.3704,20.81252 -6.3007,18.39966 -1.9303,-2.41287 -1.7233,-12.62604 -0.5011,-26.63405 1.2223,-14.00801 3.4537,-31.81085 5.6071,-49.40306 2.1533,-17.5922 4.2288,-34.97378 5.2165,-48.13924 0.9877,-13.16546 0.8943,-22.11482 -1.2655,-22.84259 -2.1599,-0.72778 -4.2252,7.4938 -6.2638,20.08443 -2.0385,12.59063 -4.0583,29.55031 -6.1007,46.29872 -4.0848,33.49684 -8.2822,66.14865 -12.1508,61.31295 -1.9342,-2.41784 -1.8552,-11.78971 -0.8157,-24.53298 1.0395,-12.74327 3.0346,-28.85793 4.9614,-44.76135 3.8536,-31.80683 7.4097,-62.7687 3.0891,-64.22453 -4.3205,-1.45582 -7.8728,29.50605 -11.5076,59.62045 -3.6348,30.11441 -7.3408,59.38134 -11.2174,54.53563 -3.8765,-4.84571 -0.2035,-34.11264 3.2042,-62.53217 3.4077,-28.41953 6.5585,-55.99166 2.2372,-57.44775 -4.3214,-1.4561 -7.4689,26.11603 -10.6608,52.83823 -3.192,26.72221 -6.4183,52.59449 -10.303,47.7387 -3.8846,-4.85579 -0.6875,-30.72807 2.2815,-55.7505 2.9691,-25.02243 5.7175,-49.195 1.3954,-50.65137 -4.3222,-1.45637 -7.0677,22.7162 -9.8241,46.03639 -2.7564,23.32018 -5.5148,45.78797 -9.4075,40.92204 -3.8928,-4.86594 -1.1599,-27.33373 1.3779,-48.9492 2.5377,-21.61547 4.8865,-42.37861 0.5635,-43.83526 -4.3229,-1.45664 -6.5324,18.11552 -8.8582,38.02379 -2.3258,19.90828 -4.7708,40.15266 -9.2449,40.04046 -4.474,-0.11219 -2.0282,-20.35658 0.3744,-40.93714 2.4025,-20.58057 4.7591,-41.49731 0.4353,-42.95423 -4.3237,-1.45692 -6.738,20.0515 -9.3562,42.48801 -2.6181,22.43651 -5.4483,45.80111 -10.2098,48.05659 -4.7616,2.25548 -1.9167,-21.10912 0.9244,-45.4019 2.8412,-24.29278 5.6695,-49.51372 1.345,-50.97091 -4.3246,-1.45719 -7.141,23.76375 -10.1966,49.91312 -3.0555,26.14936 -6.3597,53.22715 -11.1234,55.48364 -4.7637,2.2565 -1.4424,-24.82129 1.8375,-52.82756 3.2799,-28.00628 6.508,-56.94104 2.1826,-58.39851 -4.3254,-1.45746 -7.5398,27.4773 -11.0341,57.34081 -3.4943,29.86351 -7.2793,60.65576 -12.0451,62.91327 -4.7659,2.25751 -0.9614,-28.53474 2.7586,-60.2558 1.86,-15.86054 3.7041,-31.95327 4.5328,-44.26309 0.8286,-12.30982 0.6478,-20.83672 -1.5153,-21.56559 -4.3262,-1.45773 -7.9345,31.19214 -11.8688,64.77108 -1.9672,16.78947 -4.0097,33.8112 -6.1673,46.91789 -2.1575,13.10668 -4.4237,22.29832 -6.8077,23.42758 -2.384,1.12926 -2.4994,-6.93311 -1.4995,-19.70743 0.9999,-12.77433 3.1066,-30.26062 5.1873,-47.97919 2.0808,-17.71857 4.135,-35.66942 5.1162,-49.37288 0.9812,-13.70347 0.8969,-23.15954 -1.2666,-23.88854 -2.1635,-0.72901 -4.4733,10.11762 -6.803,25.80845 -2.3298,15.69084 -4.6924,36.22588 -6.896,54.87371 -2.2035,18.64783 -4.2429,35.40845 -5.8011,43.55044 -1.5582,8.14198 -2.6122,7.66533 -2.9303,-8.16137 -0.6363,-31.6534 1.7409,-61.76479 4.2571,-83.96282 2.5162,-22.19804 5.1914,-36.48272 5.1914,-36.48272"
       id="path29639"
       inkscape:connector-curvature="0"
       sodipodi:nodetypes="cccccccccccccccc"
       inkscape:path-effect="#path-effect29641"
       inkscape:original-d="m 1111.7982,686.06438 239.5444,80.71603 210.9031,-52.07486 132.7909,57.28234 197.8845,-70.30106 302.0342,-93.73474 28.6412,166.63954 -197.8845,-36.4524 -31.245,151.01709 -130.1871,-127.5834 -158.8283,145.8096 -169.2433,-124.97966 -234.3369,143.20586 -104.1497,-130.18714 -98.9422,46.86737 z" />
  </g>
  <g
     style="display:inline"
     inkscape:groupmode="layer"
     id="layer3"
     inkscape:label="3-black">
    <path
       transform="matrix(1.1018518,0,0,1.1018518,-138.0289,-28.386886)"
       sodipodi:type="arc"
       style="color:#000000;fill:none;stroke:#000000;stroke-width:1.81512606;stroke-linecap:round;stroke-linejoin:miter;stroke-miterlimit:4;stroke-opacity:1;stroke-dasharray:none;stroke-dashoffset:0;marker:none;visibility:visible;display:inline;overflow:visible;enable-background:accumulate"
       id="path55320"
       sodipodi:cx="1387.7949"
       sodipodi:cy="281.85516"
       sodipodi:rx="140.60211"
       sodipodi:ry="140.60211"
       d="m 1528.397,281.85516 a 140.60211,140.60211 0 1 1 -281.2042,0 140.60211,140.60211 0 1 1 281.2042,0 z" />
    <path
       sodipodi:type="arc"
       style="color:#000000;fill:none;stroke:#000000;stroke-width:1.69696975;stroke-linecap:round;stroke-linejoin:miter;stroke-miterlimit:4;stroke-opacity:1;stroke-dasharray:none;stroke-dashoffset:0;marker:none;visibility:visible;display:inline;overflow:visible;enable-background:accumulate"
       id="path55322"
       sodipodi:cx="1786.1676"
       sodipodi:cy="263.62897"
       sodipodi:rx="145.8096"
       sodipodi:ry="145.8096"
       d="m 1931.9772,263.62897 a 145.8096,145.8096 0 1 1 -291.6192,0 145.8096,145.8096 0 1 1 291.6192,0 z"
       transform="matrix(1.1785714,0,0,1.1785714,-308.54353,-55.095315)" />
    <path
       style="fill:none;stroke:#000000;stroke-width:1px;stroke-linecap:butt;stroke-linejoin:miter;stroke-opacity:1"
       d="m 1111.7981,433.7022 239.5444,80.71603 210.9031,-52.07486 132.7909,57.28234 197.8845,-70.30106 302.0343,-93.73474 28.6412,166.63954 -197.8846,-36.4524 -31.245,151.01709 -130.1871,-127.5834 -158.8283,145.8096 -169.2433,-124.97966 -234.3369,143.20586 -104.1497,-130.18714 -98.9422,46.86737 z"
       id="path29639-5"
       inkscape:connector-curvature="0"
       sodipodi:nodetypes="cccccccccccccccc" />
  </g>
</svg>
