<?xml version="1.0" encoding="UTF-8" standalone="no"?>
<!-- Created with Inkscape (http://www.inkscape.org/) -->

<svg
   xmlns:dc="http://purl.org/dc/elements/1.1/"
   xmlns:cc="http://creativecommons.org/ns#"
   xmlns:rdf="http://www.w3.org/1999/02/22-rdf-syntax-ns#"
   xmlns:svg="http://www.w3.org/2000/svg"
   xmlns="http://www.w3.org/2000/svg"
   xmlns:sodipodi="http://sodipodi.sourceforge.net/DTD/sodipodi-0.dtd"
   xmlns:inkscape="http://www.inkscape.org/namespaces/inkscape"
   sodipodi:docname="pumpkin_crazyface.svg"
   inkscape:version="0.92.2 5c3e80d, 2017-08-06"
   version="1.1"
   id="svg27345"
   height="800"
   width="3200">
  <sodipodi:namedview
     id="base"
     pagecolor="#ffffff"
     bordercolor="#666666"
     borderopacity="1.0"
     inkscape:pageopacity="0.0"
     inkscape:pageshadow="2"
     inkscape:zoom="0.365"
     inkscape:cx="1597.2603"
     inkscape:cy="400"
     inkscape:document-units="px"
     inkscape:current-layer="layer1"
     showgrid="false"
     inkscape:window-width="1680"
     inkscape:window-height="1005"
     inkscape:window-x="0"
     inkscape:window-y="1"
     inkscape:window-maximized="1" />
  <defs
     id="defs27347">
    <inkscape:path-effect
       effect="rough_hatches"
       id="path-effect29641"
       is_visible="true"
       direction="1661.188,761.78041 , 44.263647,5.2074858"
       dist_rdm="0;1"
       growth="0"
       do_bend="true"
       bender="1661.188,766.78041 , 5,0"
       bottom_edge_variation="0;1"
       top_edge_variation="0;1"
       bottom_tgt_variation="0;1"
       top_tgt_variation="0;1"
       scale_bf="2"
       scale_bb="2"
       scale_tf="2"
       scale_tb="2"
       top_smth_variation="0;1"
       bottom_smth_variation="0;1"
       fat_output="false"
       stroke_width_top="1"
       stroke_width_bottom="1"
       front_thickness="1"
       back_thickness="0.25" />
    <inkscape:path-effect
       back_thickness="0.25"
       front_thickness="1"
       stroke_width_bottom="1"
       stroke_width_top="1"
       fat_output="false"
       bottom_smth_variation="0;1"
       top_smth_variation="0;1"
       scale_tb="2"
       scale_tf="2"
       scale_bb="2"
       scale_bf="2"
       top_tgt_variation="0;1"
       bottom_tgt_variation="0;1"
       top_edge_variation="0;1"
       bottom_edge_variation="0;1"
       bender="1497.375,690.51888 , 5,0"
       do_bend="true"
       growth="0"
       dist_rdm="0;1"
       direction="1497.375,685.51888 , 19.991088,10.19352"
       is_visible="true"
       id="path-effect16347"
       effect="rough_hatches" />
    <inkscape:path-effect
       effect="rough_hatches"
       id="path-effect15626"
       is_visible="true"
       direction="1608.7009,657.35466 , 24.749006,11.46771"
       dist_rdm="0;1"
       growth="0"
       do_bend="true"
       bender="1608.7009,662.35466 , 8.995122,0"
       bottom_edge_variation="0;1"
       top_edge_variation="0;1"
       bottom_tgt_variation="0;1"
       top_tgt_variation="0;1"
       scale_bf="2"
       scale_bb="2"
       scale_tf="2"
       scale_tb="2"
       top_smth_variation="0;1"
       bottom_smth_variation="0;1"
       fat_output="false"
       stroke_width_top="1"
       stroke_width_bottom="1"
       front_thickness="1"
       back_thickness="0.25" />
    <inkscape:path-effect
       back_thickness="0.25"
       front_thickness="1"
       stroke_width_bottom="1"
       stroke_width_top="1"
       fat_output="false"
       bottom_smth_variation="0;1"
       top_smth_variation="0;1"
       scale_tb="2"
       scale_tf="2"
       scale_bb="2"
       scale_bf="2"
       top_tgt_variation="0;1"
       bottom_tgt_variation="0;1"
       top_edge_variation="0;1"
       bottom_edge_variation="0;1"
       bender="1634.4066,839.91327 , 7.363669,0"
       do_bend="true"
       growth="0"
       dist_rdm="0;1"
       direction="1634.4066,834.91327 , 36.933417,5.0967598"
       is_visible="true"
       id="path-effect10393"
       effect="rough_hatches" />
    <inkscape:path-effect
       back_thickness="0.25"
       front_thickness="1"
       stroke_width_bottom="1"
       stroke_width_top="1"
       fat_output="false"
       bottom_smth_variation="0;1"
       top_smth_variation="0;1"
       scale_tb="2"
       scale_tf="2"
       scale_bb="2"
       scale_bf="2"
       top_tgt_variation="0;1"
       bottom_tgt_variation="0;1"
       top_edge_variation="0;1"
       bottom_edge_variation="0;1"
       bender="1773.2942,526.85659 , 7.363669,0"
       do_bend="true"
       growth="0"
       dist_rdm="0;1"
       direction="1773.2942,521.85659 , 38.977433,3.8225699"
       is_visible="true"
       id="path-effect10391"
       effect="rough_hatches" />
    <inkscape:path-effect
       back_thickness="0.25"
       front_thickness="1"
       stroke_width_bottom="1"
       stroke_width_top="1"
       fat_output="false"
       bottom_smth_variation="0;1"
       top_smth_variation="0;1"
       scale_tb="2"
       scale_tf="2"
       scale_bb="2"
       scale_bf="2"
       top_tgt_variation="0;1"
       bottom_tgt_variation="0;1"
       top_edge_variation="0;1"
       bottom_edge_variation="0;1"
       bender="1421.8401,247.32253 , 7.363669,0"
       do_bend="true"
       growth="0"
       dist_rdm="0;1"
       direction="1421.8401,242.32253 , 35.35754,7.6451397"
       is_visible="true"
       id="path-effect10389"
       effect="rough_hatches" />
    <inkscape:path-effect
       back_thickness="0.25"
       front_thickness="1"
       stroke_width_bottom="1"
       stroke_width_top="1"
       fat_output="false"
       bottom_smth_variation="0;1"
       top_smth_variation="0;1"
       scale_tb="2"
       scale_tf="2"
       scale_bb="2"
       scale_bf="2"
       top_tgt_variation="0;1"
       bottom_tgt_variation="0;1"
       top_edge_variation="0;1"
       bottom_edge_variation="0;1"
       bender="1102.5802,207.92952 , 5,0"
       do_bend="true"
       growth="0"
       dist_rdm="0;1"
       direction="1102.5802,202.92952 , 24.669602,4.0276901"
       is_visible="true"
       id="path-effect9226"
       effect="rough_hatches" />
    <inkscape:path-effect
       back_thickness="0.25"
       front_thickness="1"
       stroke_width_bottom="1"
       stroke_width_top="1"
       fat_output="false"
       bottom_smth_variation="0;1"
       top_smth_variation="0;1"
       scale_tb="2"
       scale_tf="2"
       scale_bb="2"
       scale_bf="2"
       top_tgt_variation="0;1"
       bottom_tgt_variation="0;1"
       top_edge_variation="0;1"
       bottom_edge_variation="0;1"
       bender="1341.2209,235.11642 , 5,0"
       do_bend="true"
       growth="0"
       dist_rdm="0;1"
       direction="1341.2209,230.11642 , 24.153697,4.0152439"
       is_visible="true"
       id="path-effect9224"
       effect="rough_hatches" />
    <inkscape:path-effect
       back_thickness="0.25"
       front_thickness="1"
       stroke_width_bottom="1"
       stroke_width_top="1"
       fat_output="false"
       bottom_smth_variation="0;1"
       top_smth_variation="0;1"
       scale_tb="2"
       scale_tf="2"
       scale_bb="2"
       scale_bf="2"
       top_tgt_variation="0;1"
       bottom_tgt_variation="0;1"
       top_edge_variation="0;1"
       bottom_edge_variation="0;1"
       bender="1222.4734,491.10713 , -5,0"
       do_bend="true"
       growth="0"
       dist_rdm="0;1"
       direction="1222.4734,496.10713 , -24.103925,-7.042235"
       is_visible="true"
       id="path-effect9222"
       effect="rough_hatches" />
    <inkscape:path-effect
       back_thickness="0.25"
       front_thickness="1"
       stroke_width_bottom="1"
       stroke_width_top="1"
       fat_output="false"
       bottom_smth_variation="0;1"
       top_smth_variation="0;1"
       scale_tb="2"
       scale_tf="2"
       scale_bb="2"
       scale_bf="2"
       top_tgt_variation="0;1"
       bottom_tgt_variation="0;1"
       top_edge_variation="0;1"
       bottom_edge_variation="0;1"
       bender="1540.8385,638.66418 , -6.041742,0"
       do_bend="true"
       growth="0"
       dist_rdm="0;1"
       direction="1540.8385,644.70668 , -15.509646,2.0138452"
       is_visible="true"
       id="path-effect3100"
       effect="rough_hatches" />
    <inkscape:path-effect
       effect="rough_hatches"
       id="path-effect3070"
       is_visible="true"
       direction="1542.7188,608.88122 , 26.788776,-3.1724596e-08"
       dist_rdm="0;1"
       growth="0"
       do_bend="true"
       bender="1542.7188,613.88122 , 5,0"
       bottom_edge_variation="0;1"
       top_edge_variation="0;1"
       bottom_tgt_variation="0;1"
       top_tgt_variation="0;1"
       scale_bf="2"
       scale_bb="2"
       scale_tf="2"
       scale_tb="2"
       top_smth_variation="0;1"
       bottom_smth_variation="0;1"
       fat_output="false"
       stroke_width_top="1"
       stroke_width_bottom="1"
       front_thickness="1"
       back_thickness="0.25" />
    <inkscape:perspective
       id="perspective27353"
       inkscape:persp3d-origin="372.04724 : 350.78739 : 1"
       inkscape:vp_z="744.09448 : 526.18109 : 1"
       inkscape:vp_y="0 : 1000 : 0"
       inkscape:vp_x="0 : 526.18109 : 1"
       sodipodi:type="inkscape:persp3d" />
    <inkscape:path-effect
       effect="rough_hatches"
       id="path-effect15626-7"
       is_visible="true"
       direction="1608.7009,657.35466 , 56.841189,-16.564469"
       dist_rdm="0;1"
       growth="0"
       do_bend="true"
       bender="1608.7009,662.35466 , 8.995122,0"
       bottom_edge_variation="0;1"
       top_edge_variation="0;1"
       bottom_tgt_variation="0;1"
       top_tgt_variation="0;1"
       scale_bf="2"
       scale_bb="2"
       scale_tf="2"
       scale_tb="2"
       top_smth_variation="0;1"
       bottom_smth_variation="0;1"
       fat_output="false"
       stroke_width_top="1"
       stroke_width_bottom="1"
       front_thickness="1"
       back_thickness="0.25" />
    <inkscape:path-effect
       effect="rough_hatches"
       id="path-effect29641-8"
       is_visible="true"
       direction="1661.1879,509.41823 , 44.263647,5.2074858"
       dist_rdm="0;1"
       growth="0"
       do_bend="true"
       bender="1661.1879,514.41823 , 5,0"
       bottom_edge_variation="0;1"
       top_edge_variation="0;1"
       bottom_tgt_variation="0;1"
       top_tgt_variation="0;1"
       scale_bf="2"
       scale_bb="2"
       scale_tf="2"
       scale_tb="2"
       top_smth_variation="0;1"
       bottom_smth_variation="0;1"
       fat_output="false"
       stroke_width_top="1"
       stroke_width_bottom="1"
       front_thickness="1"
       back_thickness="0.25" />
  </defs>
  <metadata
     id="metadata27350">
    <rdf:RDF>
      <cc:Work
         rdf:about="">
        <dc:format>image/svg+xml</dc:format>
        <dc:type
           rdf:resource="http://purl.org/dc/dcmitype/StillImage" />
        <dc:title />
      </cc:Work>
    </rdf:RDF>
  </metadata>
  <g
     transform="translate(0,-252.36218)"
     id="layer1"
     inkscape:groupmode="layer"
     inkscape:label="2-black"
     style="display:inline">
    <path
       sodipodi:type="spiral"
       style="fill:none;stroke:#000000;stroke-width:0.72041708px;stroke-linecap:butt;stroke-linejoin:miter;stroke-opacity:1"
       id="path28737"
       sodipodi:cx="1411.5353"
       sodipodi:cy="287.89603"
       sodipodi:expansion="1"
       sodipodi:revolution="10"
       sodipodi:radius="104.40989"
       sodipodi:argument="-250.54201"
       sodipodi:t0="0"
       d="m 1411.5353,287.89603 c 1.1105,1.1105 -0.9491,2.0448 -1.8458,1.84571 -2.4299,-0.53954 -2.8205,-3.65198 -1.8456,-5.53719 1.7437,-3.37219 6.2719,-3.76721 9.2286,-1.84566 4.3391,2.81996 4.7419,8.92738 1.8456,12.92008 -3.8603,5.32164 -11.5954,5.72866 -16.6115,1.84561 -6.3122,-4.88642 -6.7215,-14.26957 -1.8456,-20.30297 5.9054,-7.30725 16.9471,-7.71801 23.9944,-1.84556 8.3051,6.92047 8.7167,19.62666 1.8456,27.68586 -7.9331,9.30467 -22.3077,9.71694 -31.3773,1.84552 -10.3055,-8.94401 -10.7182,-24.98967 -1.8455,-35.06876 9.9538,-11.30721 27.6724,-11.72022 38.7602,-1.84547 12.3095,10.96285 12.7228,30.35566 1.8454,42.45166 -11.9712,13.31242 -33.0393,13.72584 -46.1431,1.84541 -14.3156,-12.97919 -14.7292,-35.72336 -1.8454,-49.83455 13.9868,-15.3192 38.4077,-15.73286 53.526,-1.84536 16.323,14.99406 16.7368,41.09214 1.8454,57.21744 -16.0012,17.32697 -43.7769,17.74079 -60.9089,1.84532 -18.3311,-17.00797 -18.745,-46.46164 -1.8453,-64.60034 18.0146,-19.3354 49.1466,-19.74933 68.2918,-1.84527 20.3398,19.02123 20.7537,51.83165 1.8452,71.98323 -20.0277,21.34432 -54.5168,21.75831 -75.6747,1.84522 -22.3489,-21.03403 -22.7629,-57.20202 -1.8452,-79.36612 22.0403,-23.35357 59.8873,-23.7676 83.0576,-1.84517 24.3583,23.04649 24.7723,62.57267 1.8451,86.74902 -24.0526,25.36308 -65.258,25.77714 -90.4404,1.84512 -26.3679,-25.0587 -26.782,-67.94354 -1.8451,-94.13192 26.0647,-27.37279 70.629,-27.78687 97.8233,-1.84507 28.3778,27.0707 28.7918,73.31458 1.8451,101.51481 -28.0766,29.38267 -76.0002,29.79676 -105.2063,1.84502 -30.3876,-29.08254 -30.8017,-78.68574 -1.845,-108.8977 30.0885,-31.39267 81.3714,-31.80676 112.5892,-1.84497 32.3977,31.09426 32.8118,84.05702 1.8449,116.28059 -32.1,33.40278 -86.7427,33.81687 -119.972,1.84493 -34.4079,-33.10588 -34.822,-89.4284 -1.8449,-123.66349 34.1116,-35.41297 92.1141,-35.82706 127.3549,-1.84488 36.4181,35.1174 36.8322,94.79985 1.8449,131.04639 -36.1232,37.42323 -97.4856,37.8373 -134.7378,1.84482 -38.4284,-37.12885 -38.8425,-100.17135 -1.8448,-138.42928 38.1345,-39.43354 102.8571,-39.84761 142.1207,-1.84477 40.4387,39.14025 40.8528,105.54292 1.8447,145.81217"
       transform="matrix(1.3874576,0,0,1.3887122,-570.67666,134.27201)" />
    <path
       transform="matrix(1.5045029,0,0,1.5058742,-330.77322,75.81766)"
       d="m 1411.5353,287.89603 c 1.1105,1.1105 -0.9491,2.0448 -1.8458,1.84571 -2.4299,-0.53954 -2.8205,-3.65198 -1.8456,-5.53719 1.7437,-3.37219 6.2719,-3.76721 9.2286,-1.84566 4.3391,2.81996 4.7419,8.92738 1.8456,12.92008 -3.8603,5.32164 -11.5954,5.72866 -16.6115,1.84561 -6.3122,-4.88642 -6.7215,-14.26957 -1.8456,-20.30297 5.9054,-7.30725 16.9471,-7.71801 23.9944,-1.84556 8.3051,6.92047 8.7167,19.62666 1.8456,27.68586 -7.9331,9.30467 -22.3077,9.71694 -31.3773,1.84552 -10.3055,-8.94401 -10.7182,-24.98967 -1.8455,-35.06876 9.9538,-11.30721 27.6724,-11.72022 38.7602,-1.84547 12.3095,10.96285 12.7228,30.35566 1.8454,42.45166 -11.9712,13.31242 -33.0393,13.72584 -46.1431,1.84541 -14.3156,-12.97919 -14.7292,-35.72336 -1.8454,-49.83455 13.9868,-15.3192 38.4077,-15.73286 53.526,-1.84536 16.323,14.99406 16.7368,41.09214 1.8454,57.21744 -16.0012,17.32697 -43.7769,17.74079 -60.9089,1.84532 -18.3311,-17.00797 -18.745,-46.46164 -1.8453,-64.60034 18.0146,-19.3354 49.1466,-19.74933 68.2918,-1.84527 20.3398,19.02123 20.7537,51.83165 1.8452,71.98323 -20.0277,21.34432 -54.5168,21.75831 -75.6747,1.84522 -22.3489,-21.03403 -22.7629,-57.20202 -1.8452,-79.36612 22.0403,-23.35357 59.8873,-23.7676 83.0576,-1.84517 24.3583,23.04649 24.7723,62.57267 1.8451,86.74902 -24.0526,25.36308 -65.258,25.77714 -90.4404,1.84512 -26.3679,-25.0587 -26.782,-67.94354 -1.8451,-94.13192 26.0647,-27.37279 70.629,-27.78687 97.8233,-1.84507 28.3778,27.0707 28.7918,73.31458 1.8451,101.51481 -28.0766,29.38267 -76.0002,29.79676 -105.2063,1.84502 -30.3876,-29.08254 -30.8017,-78.68574 -1.845,-108.8977 30.0885,-31.39267 81.3714,-31.80676 112.5892,-1.84497 32.3977,31.09426 32.8118,84.05702 1.8449,116.28059 -32.1,33.40278 -86.7427,33.81687 -119.972,1.84493 -34.4079,-33.10588 -34.822,-89.4284 -1.8449,-123.66349 34.1116,-35.41297 92.1141,-35.82706 127.3549,-1.84488 36.4181,35.1174 36.8322,94.79985 1.8449,131.04639 -36.1232,37.42323 -97.4856,37.8373 -134.7378,1.84482 -38.4284,-37.12885 -38.8425,-100.17135 -1.8448,-138.42928 38.1345,-39.43354 102.8571,-39.84761 142.1207,-1.84477 40.4387,39.14025 40.8528,105.54292 1.8447,145.81217"
       sodipodi:t0="0"
       sodipodi:argument="-250.54201"
       sodipodi:radius="104.40989"
       sodipodi:revolution="10"
       sodipodi:expansion="1"
       sodipodi:cy="287.89603"
       sodipodi:cx="1411.5353"
       id="path28739"
       style="fill:none;stroke:#000000;stroke-width:0.66436863px;stroke-linecap:butt;stroke-linejoin:miter;stroke-opacity:1"
       sodipodi:type="spiral" />
    <path
       style="fill:none;stroke:#000000;stroke-width:1px;stroke-linecap:butt;stroke-linejoin:miter;stroke-opacity:1"
       d="m 2217.5262,773.47341 c 0,0 5.0867,-4.6752 -0.2945,-35.98418 -2.6988,-15.7017 -3.6999,-6.81873 -5.1367,5.64248 -1.4418,12.50467 -3.3466,28.72473 -7.7449,27.91453 -8.7842,-1.61814 7.501,-64.8654 1.9984,-96.88058 -2.76,-16.05791 -5.3055,7.85834 -8.3922,35.42325 -3.0919,27.61168 -6.7635,59.03361 -11.1751,58.22095 -4.3794,-0.80672 -0.4504,-34.25608 3.4633,-69.56031 3.9194,-35.35637 7.7993,-72.42552 4.139,-80.73255 -3.6324,-8.24395 -7.4257,28.89804 -11.7045,67.94206 -4.2767,39.02573 -9.0482,79.92836 -13.4677,79.11424 -4.3699,-0.80499 0.1199,-39.2822 4.2809,-77.18496 4.1607,-37.90121 7.999,-75.25771 3.3455,-73.81352 -4.6119,1.43128 -8.4698,38.79066 -12.5134,75.56661 -4.0441,36.78001 -8.2742,73.00744 -12.684,72.19511 -4.3726,-0.80548 -0.1556,-37.03414 3.7631,-72.68964 3.9185,-35.6542 7.5446,-70.76148 2.8926,-69.31774 -4.6154,1.43235 -8.2599,36.54232 -12.0607,71.0712 -3.8013,34.53253 -7.7591,68.51122 -12.1669,67.69924 -4.3753,-0.80596 -0.4298,-34.7858 3.246,-68.1937 3.6757,-33.40684 7.0871,-66.26468 2.4364,-64.82135 -4.6186,1.43337 -8.0473,34.29373 -11.6048,66.57518 -3.5578,32.28471 -7.2445,64.0144 -11.6506,63.20275 -4.3777,-0.80642 -0.7025,-32.53719 2.7299,-63.69715 3.4322,-31.15913 6.6265,-61.76731 1.9769,-60.32433 -4.6217,1.43433 -7.8321,32.04487 -11.1456,62.07853 -3.3138,30.03655 -6.7307,59.51699 -11.1352,58.70563 -4.38,-0.80684 -0.9738,-30.28828 2.2145,-59.19997 3.1882,-28.91105 6.163,-57.26936 1.5144,-55.82669 -4.6247,1.43526 -7.6143,29.79575 -10.6833,57.58126 -3.0693,27.78806 -6.2175,55.01899 -10.6206,54.2079 -4.3822,-0.80724 -1.2438,-28.0391 1.6999,-54.70218 2.9436,-26.66261 5.6964,-52.77083 1.0486,-51.32843 -4.6275,1.43614 -7.3939,27.54637 -10.2178,53.08337 -2.824,25.53924 -5.705,50.5204 -10.1068,49.70955 -4.3841,-0.80761 -1.5122,-25.78962 1.1862,-50.20376 2.6984,-24.41382 5.2268,-48.27174 0.5797,-46.82955 -4.6302,1.43696 -7.1711,25.29671 -9.7491,48.58486 -2.5783,23.29008 -5.1932,46.02121 -9.5938,45.21057 -4.3861,-0.80796 -1.7794,-23.53987 0.6732,-45.70472 2.4526,-22.16467 4.7541,-43.77206 0.1076,-42.33004 -4.6366,1.43892 -6.7151,20.92524 -9.0425,41.96535 -2.3295,21.05954 -4.9062,43.62284 -10.2941,51.31284 -5.3757,7.67245 -2.7426,-14.92793 -0.041,-39.08469 2.7011,-24.15378 5.4652,-49.87582 0.8122,-48.43178 -4.6138,1.43189 -9.6925,48.67968 -15.5036,98.43897 -5.828,49.90378 -12.3602,101.93759 -18.402,113.664 -5.9525,11.55319 0.7883,-40.67747 7.296,-95.55778 6.5011,-54.82569 12.7388,-112.24045 8.0407,-110.78242 -4.5942,1.42579 -10.4166,54.96298 -16.5821,107.11797 -6.1643,52.14457 -12.6756,103.02839 -16.6889,99.09537 -3.9474,-3.8685 2.4987,-54.77957 8.32,-104.23625 5.8249,-49.48658 11.0517,-97.66352 6.3786,-96.21325 -4.6038,1.42876 -9.8676,49.612 -15.3781,96.41978 -5.5097,46.80048 -11.2678,92.32135 -15.2805,88.38887 -3.9602,-3.88102 1.7395,-49.42631 6.91,-93.53754 5.1735,-44.13598 9.84,-86.95466 5.1729,-85.50622 -4.6126,1.43147 -9.3121,44.25575 -14.1721,85.7105 -4.8595,41.45013 -9.8795,81.60392 -13.8925,77.67125 -3.9723,-3.89285 0.9962,-44.06823 5.5205,-82.82774 4.5266,-38.77956 8.627,-76.23494 3.9649,-74.78807 -4.6204,1.43392 -8.7497,38.8942 -12.9638,74.9901 -4.2137,36.09346 -8.511,70.87605 -12.5249,66.94244 -3.9836,-3.90399 0.2689,-38.7053 4.1513,-72.10679 3.8842,-33.41729 7.4128,-65.50431 2.7548,-64.05874 -4.6274,1.43609 -8.1807,33.52732 -11.7533,64.25849 -3.5725,30.73049 -7.1623,60.13773 -11.1779,56.20243 -3.9943,-3.91443 -0.4424,-33.33752 2.8026,-61.37466 3.2464,-28.04915 6.1973,-54.76274 1.5426,-53.31819 -4.6335,1.438 -7.605,28.1551 -10.5407,53.51566 -2.9358,25.36117 -5.8334,49.38889 -9.8515,45.45115 -4.0042,-3.92416 -1.1377,-27.96486 1.4746,-50.6313 2.6132,-22.67511 4.9804,-44.01017 0.3282,-42.56639 -4.6388,1.43965 -7.0225,22.77751 -9.326,42.76157 -2.3037,19.98548 -4.5243,38.6295 -8.5457,34.68857 -4.0134,-3.93318 -1.8223,-22.54217 0.1505,-39.73201 1.9735,-17.19561 3.7345,-32.99318 -0.9403,-31.33241 -4.669,1.65873 -6.3239,16.41721 -7.9751,30.81082 -1.6513,14.39515 -3.2987,28.42931 -7.8145,28.64714 -4.5102,0.21755 -2.8637,-13.81657 -1.2935,-27.49042 1.5701,-13.67306 3.0647,-26.98734 -1.6112,-25.32614 -9.3483,3.3211 -6.6358,57.65035 -16.7113,66.9 -5.0369,4.62408 -3.1397,-11.26917 -1.2068,-27.9056 1.9326,-16.63408 3.8991,-34.01396 -0.7808,-32.35139 -4.6709,1.65941 -6.6403,19.03915 -8.754,37.15742 -2.1147,18.12692 -4.3734,36.97567 -9.4284,41.61637 -5.0453,4.63173 -2.7602,-14.22754 -0.4576,-33.83542 2.3021,-19.6038 4.6193,-39.95732 -0.063,-38.29374 -4.6704,1.65922 -6.991,22.01257 -9.478,43.10477 -2.4883,21.10368 -5.1423,42.9246 -10.2094,47.57634 -5.0534,4.63916 -2.3686,-17.19397 0.3122,-39.78196 2.68,-22.58183 5.3531,-45.9176 0.6673,-44.25291 -4.6696,1.65894 -7.3467,24.99451 -10.2153,49.06897 -2.8704,24.08913 -5.9316,48.89009 -11.0111,53.5532 -5.0612,4.64638 -1.9651,-20.16852 1.1024,-45.74533 3.0665,-25.5682 6.1006,-51.89487 1.4114,-50.22896 -4.6685,1.65855 -7.7071,27.98498 -10.966,55.05007 -3.2611,27.08334 -6.7412,54.87226 -11.8334,59.54708 -5.0688,4.65336 -1.5495,-23.15122 1.9133,-51.72563 3.4614,-28.56297 6.8619,-57.88924 2.169,-56.22203 -4.6671,1.65807 -8.0725,30.98408 -11.7302,61.04821 -3.6604,30.08636 -7.5713,60.87121 -12.6766,65.55806 -5.0763,4.66013 -1.1217,-26.14212 2.745,-57.72296 3.865,-31.56618 7.637,-63.90082 2.9402,-62.23219 -4.6655,1.65748 -8.443,33.99183 -12.5081,67.06349 -4.0684,33.09823 -8.4221,66.88701 -13.5409,71.58625 -5.0833,4.66666 -0.6816,-29.14129 3.5978,-63.73742 4.2771,-34.5779 8.4261,-69.92972 3.7249,-68.25958 -4.6586,1.65506 -9.007,38.57132 -13.4936,74.65727 -4.4869,36.08899 -9.1129,71.38856 -13.4106,69.82539 -4.2635,-1.55073 0.341,-36.854 4.6224,-71.3304 4.2816,-34.47848 8.2486,-68.16676 3.551,-66.49789 -4.6632,1.65668 -8.6108,34.9833 -12.6032,67.11682 -3.9924,32.13414 -8.029,63.11599 -12.1318,60.08623 -4.0797,-3.01269 -0.159,-33.33126 3.5328,-63.11768 3.6934,-29.79977 7.163,-59.09081 2.7841,-60.11519 -4.355,-1.01876 -7.8219,28.27212 -11.3825,57.07053 -3.5596,28.78967 -7.2117,57.09599 -11.317,54.06438 -4.0848,-3.01647 -0.4296,-31.53458 3.0405,-59.7292 3.4719,-28.20867 6.7616,-56.10711 2.479,-57.9545 -4.2615,-1.83827 -7.5414,26.06118 -10.9287,53.67717 -3.386,27.60605 -6.8785,54.93258 -10.9867,51.89879 -4.0891,-3.01963 -0.6182,-30.35197 2.6801,-57.36246 3.3,-27.02344 6.43,-53.73736 2.147,-55.58491 -4.2636,-1.83919 -7.3843,24.87569 -10.6005,51.30552 -3.2152,26.42082 -6.525,52.55999 -10.6358,49.5243 -4.0933,-3.02276 -0.8042,-29.16749 2.3244,-54.99193 3.13,-25.83633 6.1019,-51.36379 1.8185,-53.21152 -4.2657,-1.8401 -7.2287,23.68829 -10.276,48.93008 -3.0463,25.23366 -6.176,50.1836 -10.2894,47.14598 -4.0975,-3.02588 -0.9876,-27.98114 1.9732,-52.61758 2.9621,-24.64733 5.7775,-48.9864 1.4936,-50.83432 -4.2677,-1.84099 -7.0746,22.49896 -9.955,46.55081 -2.8795,24.04457 -5.8316,47.80343 -9.9477,44.76384 -4.1017,-3.02897 -1.1684,-26.7929 1.6267,-50.23942 2.7964,-23.45643 5.4567,-46.60516 1.1724,-48.45329 -4.2698,-1.84187 -6.9221,21.3077 -9.6377,44.16771 -2.7147,22.85354 -5.4918,45.41945 -9.6106,42.37787 -4.1059,-3.03204 -1.3467,-25.60279 1.2848,-47.85743 2.6326,-22.26363 5.1395,-44.22006 0.8546,-46.06842 -4.2717,-1.84273 -6.771,20.11449 -9.3238,41.78077 -2.552,21.66055 -5.1567,43.03165 -9.2783,39.98804 -4.11,-3.0351 -1.5223,-24.41078 0.9477,-45.4716 2.4709,-21.06893 4.8259,-41.83111 0.5405,-43.67971 -4.2738,-1.84358 -6.6215,18.91936 -9.0136,39.38999 -2.3915,20.46561 -4.8263,40.64003 -8.9507,37.59435 -4.1131,-3.03742 -1.6491,-23.61365 0.6205,-43.12751 2.2701,-19.51856 4.3508,-37.994 -0.2687,-36.85339 -4.61,1.13828 -6.6657,19.30355 -8.6922,36.72949 -2.0265,17.42638 -4.0229,34.12101 -8.2979,32.32019 -4.2677,-1.7977 -2.282,-18.49439 -0.4299,-34.44994 1.8523,-15.95703 3.5738,-31.18092 -1.0452,-30.04044 -4.6126,1.13892 -6.4741,17.55291 -8.4392,34.41897 -1.9657,16.87064 -4.0351,34.18543 -8.8845,37.1489 -4.8406,2.95818 -2.7561,-14.3605 -0.6758,-32.13915 2.08,-17.77577 4.1542,-36.01013 -0.4678,-34.86889 -4.6122,1.13881 -6.6888,19.37316 -8.8812,38.05942 -2.1931,18.69182 -4.502,37.82611 -9.3562,40.79261 -4.8436,2.95994 -2.518,-16.17866 -0.2085,-35.77935 2.309,-19.59702 4.6001,-39.65396 -0.024,-38.51233 -4.6117,1.13869 -6.9055,21.1956 -9.3284,41.70421 -2.4237,20.51522 -4.9764,41.47104 -9.8357,44.44064 -4.8464,2.96165 -2.2753,-17.9989 0.2665,-39.42387 2.5413,-21.42043 5.0513,-43.30215 0.4261,-42.16011 -4.6111,1.13854 -7.1241,23.02024 -9.7807,45.35333 -2.6575,22.34086 -5.4586,45.12026 -10.3231,48.09303 -4.849,2.9633 -2.028,-19.82126 0.7494,-43.07274 2.7768,-23.24597 5.5078,-46.9547 0.8808,-45.81223 -4.6104,1.13837 -7.3446,24.84708 -10.2381,49.00681 -2.8947,24.16873 -5.9485,48.77375 -10.8184,51.74976 -4.8516,2.96489 -1.7762,-21.64571 1.2402,-46.72594 3.0155,-25.07367 5.9694,-50.61164 1.3405,-49.46871 -4.6096,1.13817 -7.5669,26.67612 -10.7007,52.66463 -3.135,25.99886 -6.4461,52.43155 -11.3214,55.41087 -4.8541,2.96641 -1.5198,-23.47227 1.7387,-50.3835 3.2575,-26.90353 6.4364,-54.27298 1.8055,-53.12955 -4.6087,1.13794 -7.7912,28.50736 -11.1684,56.32682 -3.3787,27.83123 -6.9515,56.09364 -11.8323,59.07635 -4.8566,2.96788 -1.2588,-25.30095 2.245,-54.04544 3.5028,-28.73554 6.9086,-57.9387 2.2757,-56.79477 -4.6077,1.1377 -8.0174,30.34083 -11.6413,59.99341 -3.6256,29.66585 -7.4647,59.76005 -12.3512,62.74622 -4.8588,2.96928 -0.9932,-27.13176 2.7594,-57.71176 3.7513,-30.56973 7.3861,-61.60885 2.751,-60.46437 -4.6066,1.13741 -8.2455,32.1765 -12.1195,63.66437 -3.8757,31.50274 -7.9857,63.43078 -12.8779,66.42048 -4.861,2.97063 -0.723,-28.96468 3.2816,-61.38246 4.0031,-32.40609 7.8689,-65.28342 3.2315,-64.13837 -4.6053,1.13711 -8.4755,34.0144 -12.6027,67.33973 -4.1293,33.34191 -8.5146,67.10586 -13.4127,70.09916 -4.8639,2.97239 -0.4815,-30.53798 3.7792,-64.79533 4.2595,-34.24867 8.3906,-69.22061 3.8731,-69.12795 -4.482,0.0919 -8.6061,35.06377 -13.0512,70.75729 -4.4469,35.70872 -9.213,72.09551 -14.1187,75.09341 -4.8653,2.97327 -0.011,-33.81044 4.7244,-71.73286 4.735,-37.92087 9.3377,-76.92656 4.9961,-78.3895 -4.2989,-1.44856 -8.9027,37.78201 -13.9128,77.92031 -5.0109,40.14514 -10.4262,81.14047 -15.2231,83.25557 -4.7457,2.09259 0.7022,-38.90972 5.9448,-80.82985 5.2425,-41.92022 10.267,-84.70091 5.9204,-86.16552 -4.2942,-1.44695 -9.1006,39.60981 -14.1079,79.85053 -5.0042,40.21549 -10.2074,79.6423 -14.0738,74.80929 -3.8291,-4.78632 1.3216,-44.23781 6.0848,-82.76062 4.7677,-38.55875 9.1609,-76.25806 4.8229,-77.71978 -4.2987,-1.44847 -8.6884,36.2501 -13.2312,73.12648 -4.5403,36.85583 -9.2314,72.91026 -13.103,68.0708 -3.8405,-4.80067 0.8024,-40.87776 5.106,-76.03711 4.3073,-35.18973 8.2865,-69.52096 3.951,-70.98183 -4.3029,-1.4499 -8.279,32.88066 -12.3645,66.38315 -4.0835,33.48621 -8.2737,66.15928 -12.1508,61.31295 -3.8518,-4.81475 0.2947,-37.50843 4.1457,-69.29433 3.8541,-31.81113 7.4224,-62.7644 3.0891,-64.22453 -4.3068,-1.45121 -7.8722,29.50144 -11.5076,59.62045 -3.6338,30.10653 -7.3345,59.38922 -11.2174,54.53563 -3.8628,-4.82857 -0.2015,-34.12979 3.2042,-62.53217 3.4081,-28.42292 6.5686,-55.98827 2.2372,-57.44775 -4.3105,-1.45243 -7.4684,26.11236 -10.6608,52.83823 -3.1913,26.71674 -6.4139,52.59996 -10.303,47.7387 -3.8736,-4.8421 -0.6859,-30.74177 2.2815,-55.7505 2.9694,-25.02501 5.7252,-49.19242 1.3954,-50.65137 -4.3138,-1.45354 -7.0673,22.71338 -9.8241,46.03639 -2.756,23.31677 -5.512,45.79139 -9.4075,40.92204 -3.8843,-4.85536 -1.1586,-27.34431 1.3779,-48.9492 2.5379,-21.61735 4.892,-42.37673 0.5635,-43.83526 -4.3186,-1.45518 -6.5322,18.11406 -8.8582,38.02379 -2.3258,19.90812 -4.7646,40.15282 -9.2449,40.04046 -4.4685,-0.11205 -2.0281,-20.35672 0.3744,-40.93714 2.4028,-20.58292 4.766,-41.49496 0.4353,-42.95423 -4.3191,-1.45534 -6.7378,20.04992 -9.3562,42.48801 -2.6187,22.44148 -5.4378,45.79614 -10.2098,48.05659 -4.7559,2.25277 -1.917,-21.10641 0.9244,-45.4019 2.8416,-24.29638 5.6802,-49.51012 1.345,-50.97091 -4.3178,-1.4549 -7.1407,23.76146 -10.1966,49.91312 -3.0563,26.15588 -6.3459,53.22063 -11.1234,55.48364 -4.7555,2.2526 -1.4429,-24.81739 1.8375,-52.82756 3.2804,-28.01092 6.5217,-56.93641 2.1826,-58.39851 -4.3161,-1.45432 -7.5394,27.47417 -11.0341,57.34081 -3.4952,29.87176 -7.2618,60.64751 -12.0451,62.91327 -4.7547,2.25223 -0.962,-28.52947 2.7586,-60.2558 3.7206,-31.72687 7.3609,-64.36514 3.0175,-65.82868 -4.314,-1.45362 -7.934,31.18803 -11.8688,64.77108 -3.9356,33.58913 -8.1855,68.07675 -12.975,70.34547 -4.7536,2.25167 -0.4744,-32.24263 3.6878,-67.68662 4.1623,-35.44424 8.1977,-71.79631 3.8496,-73.26142 -4.2848,-1.4438 -9.2902,43.37229 -13.699,80.68216 -4.4556,37.70689 -8.1034,66.63125 -8.7314,35.38907 -1.2725,-63.30627 9.4485,-120.44554 9.4485,-120.44554"
       id="path29639"
       inkscape:connector-curvature="0"
       sodipodi:nodetypes="cccccccccccccccc"
       inkscape:path-effect="#path-effect29641"
       inkscape:original-d="m 1111.7982,686.06438 239.5444,80.71603 210.9031,-52.07486 132.7909,57.28234 197.8845,-70.30106 302.0342,-93.73474 28.6412,166.63954 -197.8845,-36.4524 -31.245,151.01709 -130.1871,-127.5834 -158.8283,145.8096 -169.2433,-124.97966 -234.3369,143.20586 -104.1497,-130.18714 -98.9422,46.86737 z" />
  </g>
  <g
     style="display:inline"
     inkscape:groupmode="layer"
     id="layer3"
     inkscape:label="3-black">
    <path
       transform="matrix(1.1018518,0,0,1.1018518,-138.0289,-28.386886)"
       sodipodi:type="arc"
       style="color:#000000;fill:none;stroke:#000000;stroke-width:1.81512606;stroke-linecap:round;stroke-linejoin:miter;stroke-miterlimit:4;stroke-opacity:1;stroke-dasharray:none;stroke-dashoffset:0;marker:none;visibility:visible;display:inline;overflow:visible;enable-background:accumulate"
       id="path55320"
       sodipodi:cx="1387.7949"
       sodipodi:cy="281.85516"
       sodipodi:rx="140.60211"
       sodipodi:ry="140.60211"
       d="m 1528.397,281.85516 a 140.60211,140.60211 0 1 1 -281.2042,0 140.60211,140.60211 0 1 1 281.2042,0 z" />
    <path
       sodipodi:type="arc"
       style="color:#000000;fill:none;stroke:#000000;stroke-width:1.69696975;stroke-linecap:round;stroke-linejoin:miter;stroke-miterlimit:4;stroke-opacity:1;stroke-dasharray:none;stroke-dashoffset:0;marker:none;visibility:visible;display:inline;overflow:visible;enable-background:accumulate"
       id="path55322"
       sodipodi:cx="1786.1676"
       sodipodi:cy="263.62897"
       sodipodi:rx="145.8096"
       sodipodi:ry="145.8096"
       d="m 1931.9772,263.62897 a 145.8096,145.8096 0 1 1 -291.6192,0 145.8096,145.8096 0 1 1 291.6192,0 z"
       transform="matrix(1.1785714,0,0,1.1785714,-308.54353,-55.095315)" />
    <path
       style="fill:none;stroke:#000000;stroke-width:1px;stroke-linecap:butt;stroke-linejoin:miter;stroke-opacity:1"
       d="m 1111.7981,433.7022 239.5444,80.71603 210.9031,-52.07486 132.7909,57.28234 197.8845,-70.30106 302.0343,-93.73474 28.6412,166.63954 -197.8846,-36.4524 -31.245,151.01709 -130.1871,-127.5834 -158.8283,145.8096 -169.2433,-124.97966 -234.3369,143.20586 -104.1497,-130.18714 -98.9422,46.86737 z"
       id="path29639-5"
       inkscape:connector-curvature="0"
       sodipodi:nodetypes="cccccccccccccccc" />
  </g>
</svg>
