<?xml version="1.0" encoding="UTF-8" standalone="no"?>
<!-- Created with Inkscape (http://www.inkscape.org/) -->

<svg
   xmlns:dc="http://purl.org/dc/elements/1.1/"
   xmlns:cc="http://creativecommons.org/ns#"
   xmlns:rdf="http://www.w3.org/1999/02/22-rdf-syntax-ns#"
   xmlns:svg="http://www.w3.org/2000/svg"
   xmlns="http://www.w3.org/2000/svg"
   xmlns:sodipodi="http://sodipodi.sourceforge.net/DTD/sodipodi-0.dtd"
   xmlns:inkscape="http://www.inkscape.org/namespaces/inkscape"
   width="3200"
   height="800"
   id="svg2"
   version="1.1"
   inkscape:version="0.48.5 r10040"
   sodipodi:docname="pumpkin_mini4.svg">
  <sodipodi:namedview
     id="base"
     pagecolor="#ffffff"
     bordercolor="#666666"
     borderopacity="1.0"
     inkscape:pageopacity="0.0"
     inkscape:pageshadow="2"
     inkscape:zoom="0.3428125"
     inkscape:cx="1600"
     inkscape:cy="400"
     inkscape:document-units="px"
     inkscape:current-layer="layer1"
     showgrid="false"
     inkscape:window-width="1436"
     inkscape:window-height="855"
     inkscape:window-x="0"
     inkscape:window-y="0"
     inkscape:window-maximized="1" />
  <defs
     id="defs4" />
  <metadata
     id="metadata7">
    <rdf:RDF>
      <cc:Work
         rdf:about="">
        <dc:format>image/svg+xml</dc:format>
        <dc:type
           rdf:resource="http://purl.org/dc/dcmitype/StillImage" />
        <dc:title />
      </cc:Work>
    </rdf:RDF>
  </metadata>
  <g
     transform="translate(0,-252.36218)"
     id="layer1"
     inkscape:groupmode="layer"
     inkscape:label="Layer 1">
    <g
       transform="translate(520,0)"
       id="g69774">
      <path
         inkscape:connector-curvature="0"
         id="path69763"
         d="m 856.88348,388.50226 c 0,53.47386 -43.34913,96.823 -96.82299,96.823 -53.47387,0 -96.823,-43.34914 -96.823,-96.823 0,-53.47387 43.34913,-96.823 96.823,-96.823 34.59152,0 66.55541,18.45436 83.85117,48.4115 l -83.85117,48.4115 z"
         style="fill:none;stroke:#000000;stroke-width:4;stroke-linecap:round;stroke-linejoin:round;stroke-miterlimit:4;stroke-opacity:1;stroke-dashoffset:0"
         transform="matrix(0.97797404,0.20872657,-0.20872657,0.97797404,377.83181,-57.725505)" />
      <path
         inkscape:connector-curvature="0"
         id="path69777"
         transform="matrix(0.97797404,0.20872657,-0.20872657,0.97797404,377.83181,-57.725505)"
         d="m 663.73732,378.6037 12.38316,58.02043 m 8.92243,13.05968 -18.40894,-86.25382 m 3.72614,-11.28718 22.64565,106.10466 m 7.52384,6.50672 -25.96518,-121.65811 m 4.51575,-7.58749 28.68418,134.39775 m 7.02205,4.15562 -30.96888,-145.10257 m 4.90575,-5.76021 32.90132,154.15691 m 6.67503,2.52965 -34.53625,-161.81726 m 5.15114,-4.61041 35.94947,168.43876 m 6.47273,1.58181 -37.13146,-173.97691 m 5.38536,-3.51303 38.0878,178.4578 m 6.25667,0.56945 -38.88644,-182.19972 m 5.56317,-2.67992 39.52361,185.18517 m 6.06972,-0.3065 -39.94306,-187.15045 m 5.70568,-2.01215 40.25823,188.62717 m 5.9416,-0.90679 -40.38386,-189.21582 m 5.8819,-1.1865 19.91293,93.30066 m 20.43473,95.74553 -20.00123,-93.71437 m -14.40483,-96.23861 19.43341,91.05392 m 20.76756,97.30499 -19.66101,-92.1203 m -14.48218,-96.60105 18.83771,88.26282 m 20.99609,98.37575 -19.21648,-90.03752 m -14.51747,-96.76632 18.19994,85.27456 m 21.14755,99.08541 -18.69489,-87.59365 m -14.4528,-96.46332 17.46222,81.81802 m 21.23762,99.50743 -18.11191,-84.86213 m -14.29903,-95.74288 16.6354,77.94405 m 21.2065,99.36157 -17.40774,-81.56274 m -14.04973,-94.57481 15.71305,73.62245 m 21.08937,98.81275 -16.61755,-77.86039 m -13.69664,-92.92039 14.68691,68.81449 m 20.88685,97.86394 -15.74199,-73.75804 m -13.22907,-90.72964 13.54629,63.47021 m 20.56318,96.34737 -14.74527,-69.08794 m -12.63314,-87.93746 12.27731,57.52449 m 20.09221,94.14067 -13.60125,-63.7277 m -11.89053,-84.45802 10.86165,50.89152 m 19.47953,91.27 -12.31552,-57.7035 m -10.96279,-80.11116 9.26086,43.39112 m 18.68773,87.56006 -10.85066,-50.84002 m -9.78525,-74.59382 7.41026,34.72025 m 17.65822,82.73638 -9.1481,-42.86281 m -8.28978,-67.58696 5.24174,24.55986 m 16.29204,76.33524 -7.10887,-33.30814 m -6.25293,-58.04342 2.53184,11.86278 m 14.40542,67.49558 -4.5492,-21.31494 m 6.13514,0 0.68287,3.19955 m -72.71004,90.51518 -7.62755,1.62793 m -30.37261,0.34721 66.02526,-14.0916 m 11.48362,-8.58606 -91.76062,19.58425 m -10.46529,-3.90155 110.22387,-23.52481 m 6.1455,-7.44675 -124.97435,26.67296 m -7.36975,-4.56222 137.20493,-29.28331 m 3.91092,-6.96983 -147.49855,31.48025 m -5.53339,-4.95416 156.20743,-33.33896 m 2.43576,-6.65499 -163.57666,34.91176 m -4.43369,-5.18886 169.83161,-36.24674 m 1.40818,-6.43568 -175.19613,37.39168 M 676.73,437.62744 856.24436,399.31413 m 0.40735,-6.22207 -182.9408,39.0446 m -2.67992,-5.56316 178.38018,-38.07124 m -28.74574,0 -151.75837,32.38941 m -1.86672,-5.73672 124.87935,-26.65269 m -28.74574,0 -97.62905,20.83673 m -1.04075,-5.91301 110.58874,-23.60268 m 16.85834,-9.73317 -128.26118,27.37447 m -0.3065,-6.06972 145.42601,-31.03791 m 16.85833,-9.73317 -162.26647,34.63214 m 0.31317,-6.20198 178.81164,-38.16332 m -1.709,-5.77039 -176.18242,37.60218 m 1.25627,-6.40325 171.14548,-36.52716 m -4.26514,-5.22483 -165.21124,35.26062 m 2.42185,-6.65202 157.94327,-33.70944 m -5.48611,-4.96424 -149.46761,31.9005 m 3.69683,-6.92414 139.5543,-29.78473 m -7.07776,-4.62454 -127.87058,27.2911 m 5.82947,-7.3793 113.68985,-24.26455 m -9.97532,-4.00612 -96.12904,20.51658 m 10.34104,-8.34219 72.77356,-15.53188 m -21.88392,-1.4645 -31.97563,6.82447"
         style="fill:none;stroke:#000000;stroke-width:1" />
    </g>
    <g
       transform="translate(520,0)"
       id="g69779">
      <path
         inkscape:connector-curvature="0"
         id="path69765"
         d="m 856.88348,388.50226 c 0,53.47386 -43.34913,96.823 -96.82299,96.823 -53.47387,0 -96.823,-43.34914 -96.823,-96.823 0,-53.47387 43.34913,-96.823 96.823,-96.823 34.59152,0 66.55541,18.45436 83.85117,48.4115 l -83.85117,48.4115 z"
         style="fill:none;stroke:#000000;stroke-width:4;stroke-linecap:round;stroke-linejoin:round;stroke-miterlimit:4;stroke-opacity:1;stroke-dashoffset:0"
         transform="matrix(0.97797404,0.20872657,-0.20872657,0.97797404,653.00977,-57.725505)" />
      <path
         inkscape:connector-curvature="0"
         id="path69782"
         transform="matrix(0.97797404,0.20872657,-0.20872657,0.97797404,653.00977,-57.725505)"
         d="m 664.08772,376.30711 13.32854,62.44993 m 8.74528,12.22968 -19.06827,-89.34304 m 3.80212,-10.93117 23.15321,108.48276 m 7.48118,6.30684 -26.36771,-123.54413 m 4.54013,-7.47328 29.02792,136.00836 m 6.99316,4.02022 -31.25184,-146.42836 m 4.93253,-5.6347 33.15244,155.33348 m 6.65499,2.43576 -34.74404,-162.79081 m 5.17202,-4.51262 36.11396,169.20948 m 6.45223,1.48573 -37.27545,-174.65155 m 5.40456,-3.42303 38.21259,179.04244 m 6.23752,0.47976 -38.97396,-182.6098 m 5.56317,-2.67992 39.59301,185.51035 m 6.06972,-0.3065 -39.995,-187.39382 m 5.72286,-1.93168 40.27544,188.70783 m 5.9416,-0.9068 -40.40108,-189.29646 m 5.89912,-1.10586 19.84723,92.99285 m 20.48321,95.97269 -19.95749,-93.50948 m -14.42574,-96.33655 19.3621,90.7198 m 20.79887,97.4517 -19.6001,-91.83495 m -14.49115,-96.64304 18.75446,87.87276 m 21.0274,98.52244 -19.15558,-89.75216 m -14.51145,-96.73817 18.10171,84.81435 m 21.1614,99.1503 -18.61653,-87.22648 m -14.43447,-96.37749 17.35168,81.30014 m 21.23336,99.48744 -18.01544,-84.41009 m -14.26793,-95.59718 16.5121,77.3663 m 21.20222,99.34158 -17.31125,-81.1107 m -14.00525,-94.36638 15.57636,72.98196 m 21.06588,98.70276 -16.50186,-77.31834 m -13.63798,-92.64556 14.53604,68.10761 m 20.84251,97.65616 -15.60544,-73.11821 m -13.15523,-90.3837 13.38024,62.69221 m 20.51825,96.13686 -14.60813,-68.44537 m -12.54286,-87.51445 12.09482,56.66943 M 833.5102,451.481 820.06881,388.50226 m -11.78219,-83.95035 10.66109,49.95179 m 19.38511,90.82759 -12.12888,-56.82903 m -10.81145,-79.40205 9.0173,42.24996 m 18.56141,86.96822 -10.63213,-49.81613 m -9.6075,-73.76104 7.1403,33.45542 m 17.49237,81.95927 -8.89004,-41.65365 m -8.04313,-66.43128 4.90288,22.97212 m 16.07465,75.31665 -6.79927,-31.85749 m -5.89792,-56.38005 2.08463,9.76736 m 14.11637,66.14132 -4.16794,-19.52863 m 6.13513,0 0.003,0.0147 m -72.87086,93.70003 -7.62755,1.62793 m -30.37261,0.34721 66.02526,-14.0916 m 11.48362,-8.58606 -91.76062,19.58425 m -10.46529,-3.90155 110.22387,-23.52481 m 6.1455,-7.44675 -124.97435,26.67296 m -7.36975,-4.56222 137.20493,-29.28331 m 3.91092,-6.96983 -147.49855,31.48025 m -5.53339,-4.95416 156.20743,-33.33896 m 2.43576,-6.65499 -163.57666,34.91176 m -4.43369,-5.18886 169.83161,-36.24674 m 1.40818,-6.43568 -175.19613,37.39168 M 676.73,437.62744 856.24436,399.31413 m 0.40735,-6.22207 -182.9408,39.0446 m -2.67992,-5.56316 178.38018,-38.07124 m -28.74574,0 -151.75837,32.38941 m -1.86672,-5.73672 124.87935,-26.65269 m -28.74574,0 -97.62905,20.83673 m -1.04075,-5.91301 110.58874,-23.60268 m 16.85834,-9.73317 -128.26118,27.37447 m -0.3065,-6.06972 145.42601,-31.03791 m 16.85833,-9.73317 -162.26647,34.63214 m 0.31317,-6.20198 178.81164,-38.16332 m -1.709,-5.77039 -176.18242,37.60218 m 1.25627,-6.40325 171.14548,-36.52716 m -4.26514,-5.22483 -165.21124,35.26062 m 2.42185,-6.65202 157.94327,-33.70944 m -5.48611,-4.96424 -149.46761,31.9005 m 3.69683,-6.92414 139.5543,-29.78473 m -7.07776,-4.62454 -127.87058,27.2911 m 5.82947,-7.3793 113.68985,-24.26455 m -9.97532,-4.00612 -96.12904,20.51658 m 10.34104,-8.34219 72.77356,-15.53188 m -21.88392,-1.4645 -31.97563,6.82447"
         style="fill:none;stroke:#000000;stroke-width:1" />
    </g>
  </g>
</svg>
