<?xml version="1.0" encoding="UTF-8" standalone="no"?>
<!-- Created with Inkscape (http://www.inkscape.org/) -->

<svg
   xmlns:dc="http://purl.org/dc/elements/1.1/"
   xmlns:cc="http://creativecommons.org/ns#"
   xmlns:rdf="http://www.w3.org/1999/02/22-rdf-syntax-ns#"
   xmlns:svg="http://www.w3.org/2000/svg"
   xmlns="http://www.w3.org/2000/svg"
   xmlns:sodipodi="http://sodipodi.sourceforge.net/DTD/sodipodi-0.dtd"
   xmlns:inkscape="http://www.inkscape.org/namespaces/inkscape"
   sodipodi:docname="silly_pumpkin_face.svg"
   inkscape:version="0.92.2 5c3e80d, 2017-08-06"
   version="1.1"
   id="svg27345"
   height="1000"
   width="3200">
  <sodipodi:namedview
     id="base"
     pagecolor="#ffffff"
     bordercolor="#666666"
     borderopacity="1.0"
     inkscape:pageopacity="0.0"
     inkscape:pageshadow="2"
     inkscape:zoom="0.365"
     inkscape:cx="1597.2603"
     inkscape:cy="500"
     inkscape:document-units="px"
     inkscape:current-layer="layer1"
     showgrid="false"
     inkscape:window-width="1680"
     inkscape:window-height="1005"
     inkscape:window-x="0"
     inkscape:window-y="1"
     inkscape:window-maximized="1" />
  <defs
     id="defs27347">
    <inkscape:path-effect
       effect="rough_hatches"
       id="path-effect13882"
       is_visible="true"
       direction="1518.5156,534.49434 , 21.176263,32.221523"
       dist_rdm="0;1"
       growth="0"
       do_bend="true"
       bender="1518.5156,539.49434 , 5,0"
       bottom_edge_variation="0;1"
       top_edge_variation="0;1"
       bottom_tgt_variation="0;1"
       top_tgt_variation="0;1"
       scale_bf="2"
       scale_bb="2"
       scale_tf="2"
       scale_tb="2"
       top_smth_variation="0;1"
       bottom_smth_variation="0;1"
       fat_output="false"
       stroke_width_top="1"
       stroke_width_bottom="1"
       front_thickness="1"
       back_thickness="0.25" />
    <inkscape:path-effect
       back_thickness="0.25"
       front_thickness="1"
       stroke_width_bottom="1"
       stroke_width_top="1"
       fat_output="false"
       bottom_smth_variation="0;1"
       top_smth_variation="0;1"
       scale_tb="2"
       scale_tf="2"
       scale_bb="2"
       scale_bf="2"
       top_tgt_variation="0;1"
       bottom_tgt_variation="0;1"
       top_edge_variation="0;1"
       bottom_edge_variation="0;1"
       bender="1516.8549,539.496 , 9.0252956,0"
       do_bend="true"
       growth="0"
       dist_rdm="0;1"
       direction="1516.8549,532.04234 , 43.937738,-6.0041985"
       is_visible="true"
       id="path-effect6923"
       effect="rough_hatches" />
    <inkscape:perspective
       id="perspective27353"
       inkscape:persp3d-origin="372.04724 : 350.78739 : 1"
       inkscape:vp_z="744.09448 : 526.18109 : 1"
       inkscape:vp_y="0 : 1000 : 0"
       inkscape:vp_x="0 : 526.18109 : 1"
       sodipodi:type="inkscape:persp3d" />
    <inkscape:path-effect
       back_thickness="0.25"
       front_thickness="1"
       stroke_width_bottom="1"
       stroke_width_top="1"
       fat_output="false"
       bottom_smth_variation="0;1"
       top_smth_variation="0;1"
       scale_tb="2"
       scale_tf="2"
       scale_bb="2"
       scale_bf="2"
       top_tgt_variation="0;1"
       bottom_tgt_variation="0;1"
       top_edge_variation="0;1"
       bottom_edge_variation="0;1"
       bender="2307.5717,722.08937 , 6.3549325,0"
       do_bend="true"
       growth="0"
       dist_rdm="0;1"
       direction="2307.5717,718.28259 , 0.72996422,27.141174"
       is_visible="true"
       id="path-effect6923-5"
       effect="rough_hatches" />
    <inkscape:path-effect
       back_thickness="0.25"
       front_thickness="1"
       stroke_width_bottom="1"
       stroke_width_top="1"
       fat_output="false"
       bottom_smth_variation="0;1"
       top_smth_variation="0;1"
       scale_tb="2"
       scale_tf="2"
       scale_bb="2"
       scale_bf="2"
       top_tgt_variation="0;1"
       bottom_tgt_variation="0;1"
       top_edge_variation="0;1"
       bottom_edge_variation="0;1"
       bender="1516.8549,487.13381 , 9.0252956,0"
       do_bend="true"
       growth="0"
       dist_rdm="0;1"
       direction="1516.8549,479.68016 , 1.0366975,53.142279"
       is_visible="true"
       id="path-effect6923-54"
       effect="rough_hatches" />
    <inkscape:path-effect
       effect="rough_hatches"
       id="path-effect13882-4"
       is_visible="true"
       direction="1518.5156,534.49435 , -43.266783,32.221523"
       dist_rdm="0;1"
       growth="0"
       do_bend="true"
       bender="1518.5156,539.49435 , 5,0"
       bottom_edge_variation="0;1"
       top_edge_variation="0;1"
       bottom_tgt_variation="0;1"
       top_tgt_variation="0;1"
       scale_bf="2"
       scale_bb="2"
       scale_tf="2"
       scale_tb="2"
       top_smth_variation="0;1"
       bottom_smth_variation="0;1"
       fat_output="false"
       stroke_width_top="1"
       stroke_width_bottom="1"
       front_thickness="1"
       back_thickness="0.25" />
    <inkscape:path-effect
       back_thickness="0.25"
       front_thickness="1"
       stroke_width_bottom="1"
       stroke_width_top="1"
       fat_output="false"
       bottom_smth_variation="0;1"
       top_smth_variation="0;1"
       scale_tb="2"
       scale_tf="2"
       scale_bb="2"
       scale_bf="2"
       top_tgt_variation="0;1"
       bottom_tgt_variation="0;1"
       top_edge_variation="0;1"
       bottom_edge_variation="0;1"
       bender="1518.5156,539.49435 , 5,0"
       do_bend="true"
       growth="0"
       dist_rdm="0;1"
       direction="1518.5156,534.49435 , -43.266783,32.221523"
       is_visible="true"
       id="path-effect13882-4-5"
       effect="rough_hatches" />
    <inkscape:path-effect
       back_thickness="0.25"
       front_thickness="1"
       stroke_width_bottom="1"
       stroke_width_top="1"
       fat_output="false"
       bottom_smth_variation="0;1"
       top_smth_variation="0;1"
       scale_tb="2"
       scale_tf="2"
       scale_bb="2"
       scale_bf="2"
       top_tgt_variation="0;1"
       bottom_tgt_variation="0;1"
       top_edge_variation="0;1"
       bottom_edge_variation="0;1"
       bender="1518.5156,539.49434 , 5,0"
       do_bend="true"
       growth="0"
       dist_rdm="0;1"
       direction="1518.5156,534.49434 , 21.176263,32.221523"
       is_visible="true"
       id="path-effect13882-8"
       effect="rough_hatches" />
  </defs>
  <metadata
     id="metadata27350">
    <rdf:RDF>
      <cc:Work
         rdf:about="">
        <dc:format>image/svg+xml</dc:format>
        <dc:type
           rdf:resource="http://purl.org/dc/dcmitype/StillImage" />
        <dc:title />
      </cc:Work>
    </rdf:RDF>
  </metadata>
  <g
     transform="translate(0,-52.36218)"
     id="layer1"
     inkscape:groupmode="layer"
     inkscape:label="Layer 1"
     style="display:inline">
    <path
       inkscape:connector-curvature="0"
       style="opacity:0.66822426;fill:none;stroke:#000000;stroke-width:4;stroke-linecap:butt;stroke-linejoin:miter;stroke-miterlimit:4;stroke-dasharray:none;stroke-dashoffset:0;stroke-opacity:1"
       d="m 1810.6405,111.78317 c -152.5783,0 -276.2302,102.16582 -276.2302,228.17485 0,11.13519 0.954,22.08749 2.8205,32.79607 18.6116,-14.73898 43.8729,-23.80512 71.6944,-23.80512 57.2174,0 103.6218,38.32384 103.6218,85.57723 0,39.37932 -32.2432,72.5429 -76.0947,82.50257 47.5327,31.93374 108.1387,51.10408 174.1882,51.10408 152.5792,0 276.2872,-102.1658 276.2872,-228.17483 0,-126.00903 -123.7081,-228.17485 -276.2872,-228.17485 z m -672.4407,81.05844 c -104.396,0 -189.07988,69.89067 -189.07988,156.10736 0,85.58194 83.43218,155.08869 186.76738,156.10738 -27.1431,-15.42674 -44.9574,-41.26138 -44.9574,-70.53015 0,-47.25339 46.3482,-85.57723 103.5651,-85.57723 56.2949,0 102.1033,37.09405 103.5653,83.29454 18.453,-24.10656 29.1632,-52.66595 29.1632,-83.29454 0,-86.21669 -84.6278,-156.10736 -189.0237,-156.10736 z m 1237.0861,126.10644 c 0,0 -249.0362,315.99648 -408.846,395.13657 -159.8099,79.1401 -224.7806,37.17513 -448.557,48.02946 -223.7769,10.85435 -443.2642,3.2391 -611.6896,-89.49036 C 737.76827,579.89423 658.33608,443.3774 658.33608,443.3774 c 0,0 16.43662,279.21965 151.28666,366.76614 134.84962,87.54647 249.59496,118.98261 453.91586,133.18739 204.3208,14.20477 417.8707,44.5917 619.1916,2.18951 201.3208,-42.40218 299.3064,-78.23908 399.2003,-187.78537 99.8936,-109.54628 93.3554,-438.78702 93.3554,-438.78702 z"
       id="path6939" />
    <path
       inkscape:original-d="m 1807.0625,120.5625 c -71.4737,0.61758 -143.5889,25.56061 -196.5937,73.875 -41.3711,37.64502 -68.7807,92.72306 -67.2351,149.54116 0.046,4.46664 0.1438,8.96055 0.9538,13.36509 46.5504,-27.9067 111.722,-21.42016 150.9063,16.25 27.1679,25.34363 34.9929,70.81618 14.6252,102.71672 -11.8054,19.8218 -30.7825,34.92721 -52.1252,43.40828 97.0835,55.37595 224.9927,52.71398 319.0851,-7.75301 43.9522,-28.56051 79.9238,-71.14896 94.619,-122.18999 16.2501,-57.61831 2.4026,-122.76583 -35.9431,-168.64136 -37.893,-47.84511 -94.0646,-79.62767 -153.4996,-92.52728 -24.4979,-5.59273 -49.6613,-8.33615 -74.7927,-8.04461 z M 1135.5,201.625 c -54.1525,0.36459 -108.9802,22.00043 -145.09073,62.78224 -26.47916,30.26866 -39.11843,73.66802 -29.00302,113.18651 10.06067,40.43438 39.53315,73.86323 75.73965,93.30331 21.6095,11.86694 45.386,19.67386 69.8229,23.10294 -21.5938,-22.09906 -31.4193,-56.76676 -20.2188,-86.25 11.9834,-33.47074 43.755,-57.07345 77.9062,-64.34375 43.4533,-10.2943 92.9804,3.0374 122.3126,37.3125 6.9429,8.46769 12.4601,18.1301 15.8437,28.5625 24.3461,-43.17021 19.5297,-101.31125 -12.5807,-139.26206 -29.3775,-37.53106 -75.3466,-60.29158 -122.4185,-66.35469 -10.7057,-1.43614 -21.5077,-2.22503 -32.3133,-2.0395 z m 1229.25,144.5 c -92.8093,111.6862 -189.648,221.16698 -301.7616,313.99672 -54.3651,44.3636 -116.6113,79.89811 -184.7915,97.90411 -45.5428,12.46589 -93.2102,16.03642 -140.3088,14.13627 -71.5077,-1.33248 -143.0963,-5.9869 -214.5807,-1.3441 -95.6584,3.80444 -191.6432,6.7916 -287.1696,-1.36356 -97.0785,-7.74621 -194.3587,-25.87333 -284.11234,-64.57238 -106.16132,-46.7413 -199.11062,-121.6719 -270.30998,-212.94347 -3.76172,-4.86783 -7.44034,-9.79922 -11.09048,-14.75109 10.07063,80.86533 28.76266,161.73509 66.24579,234.51982 20.91723,40.14638 50.84806,76.6852 90.51273,99.3525 71.6415,45.5676 151.17021,79.48366 234.27268,97.06518 107.7954,23.71997 218.5396,26.44627 328.0939,36.22868 129.6997,10.77382 260.4213,21.06215 390.3526,7.89089 66.0457,-6.71721 131.0982,-20.80182 195.3676,-37.11163 40.6211,-10.50093 81.4337,-21.39056 120.3228,-37.51166 47.1839,-18.98066 92.1792,-44.54441 130.5369,-78.12405 31.1926,-26.3942 60.7806,-56.035 78.8888,-93.15348 23.3539,-46.86556 34.0597,-98.6664 43.5091,-149.86242 12.0691,-70.10562 16.6643,-141.29276 17.6783,-212.35633 -0.552,0.66667 -1.1041,1.33333 -1.6562,2 z"
       inkscape:path-effect="#path-effect13882-8"
       inkscape:connector-curvature="0"
       id="path13852"
       d="m 1956.0132,524.04284 c 0,0 25.9081,-12.32223 56.4394,-41.47511 15.2782,-14.58841 -6.0716,-0.6147 -34.4245,17.91751 -28.381,18.55064 -63.8216,41.69114 -76.7293,45.52848 -12.8932,3.83305 21.2311,-18.43247 59.7885,-43.63302 38.573,-25.21077 81.5243,-53.32419 86.5776,-61.23797 5.0464,-7.90282 -37.6262,20.05392 -83.9302,50.3288 -46.3065,30.27645 -96.239,62.86351 -105.3632,64.22918 -9.1032,1.36254 40.7384,-31.15439 93.4545,-65.6233 52.7337,-34.48033 108.2745,-70.87181 111.0694,-77.3155 2.7875,-6.42667 -52.6788,29.94212 -110.892,68.01732 -58.2073,38.07137 -119.1431,77.83364 -126.7005,78.17482 -7.5315,0.34002 53.3877,-39.40367 116.4312,-80.64172 63.0643,-41.2516 128.1817,-83.95395 129.7476,-89.59904 1.56,-5.62388 -63.515,37.07669 -130.854,81.13713 -67.3269,44.0526 -136.8931,89.44559 -143.5041,89.16731 -6.5815,-0.27703 62.9679,-45.65412 134.1512,-92.23481 71.2075,-46.59646 143.9775,-94.35256 144.7247,-99.4665 0.7437,-5.08955 -71.9933,42.67063 -146.6761,91.55444 -74.6657,48.87259 -151.249,98.84742 -157.1914,98.13112 -5.9105,-0.71244 70.6659,-50.68023 148.5205,-101.64623 77.8821,-50.98402 156.9728,-102.9231 157.1503,-107.66822 0.1766,-4.71817 -78.8847,47.22707 -159.6682,100.12397 -80.7619,52.88276 -163.2163,106.69513 -168.643,105.6405 -5.3928,-1.04805 77.0557,-54.85626 160.4991,-109.50202 83.4741,-54.66591 167.8765,-110.12801 167.6079,-114.58458 -0.2669,-4.42759 -84.6416,51.04134 -170.5641,107.32456 -85.897,56.26647 -173.3121,113.3254 -178.3174,111.99406 -4.9702,-1.32201 82.4383,-58.37839 170.6033,-116.13868 88.1987,-57.78238 177.0917,-116.22991 176.4492,-120.44473 -0.638,-4.18431 -89.5043,54.27012 -179.7728,113.42265 -90.2395,59.13349 -181.8526,118.94421 -186.4994,117.37725 -4.611,-1.55489 86.9941,-61.36416 179.148,-121.76112 92.1902,-60.42082 184.8723,-121.39387 183.9003,-125.39563 -0.9644,-3.97017 -93.6205,57.00955 -187.5505,118.58489 -93.8979,61.5543 -189.0431,123.68487 -193.3756,121.91121 -4.2966,-1.75895 90.8391,-63.88893 186.3374,-126.50212 95.537,-62.63858 191.3861,-125.72877 190.1121,-129.53502 -1.2631,-3.77405 -97.0869,59.32242 -194.0663,122.92102 -96.9447,63.57588 -195.0212,127.63657 -199.0717,125.67731 -4.0148,-1.94198 94.0507,-66.00286 192.3086,-130.45038 98.2985,-64.47416 196.7461,-129.3078 195.1862,-132.92853 -1.5437,-3.58299 -105.5592,64.92643 -205.0454,130.18567 -99.4319,65.22365 -194.296,127.18456 -175.5268,110.3266 18.6413,-16.74309 113.5954,-78.8708 202.6574,-137.34594 89.2274,-58.58378 172.985,-113.78402 171.1505,-117.21541 -1.8233,-3.41056 -88.0668,53.43101 -173.5399,109.56449 -85.4315,56.10614 -170.1103,111.51809 -167.3583,105.11163 2.7343,-6.3653 87.39,-61.79581 170.4468,-116.36329 83.1108,-54.60299 164.6934,-108.38752 162.5798,-111.63836 -2.1006,-3.23106 -83.8242,50.65738 -165.2277,104.15236 -81.3704,53.47324 -162.4316,106.56143 -161.9259,101.62119 0.5028,-4.91077 81.543,-58.00927 161.5274,-110.58772 80.0246,-52.60495 159.0311,-104.71352 156.6323,-107.77693 -2.385,-3.0458 -81.4082,49.08486 -160.2667,100.93532 -78.83,51.8318 -157.5033,103.38951 -158.0017,99.10451 -0.4956,-4.26081 78.1644,-55.82967 156.0067,-107.02583 77.8764,-51.21862 154.9601,-102.08015 152.4013,-105.03864 -2.5447,-2.94225 -79.6249,47.9279 -156.6591,98.60375 -77.0089,50.65918 -153.9776,101.12842 -155.1771,97.30101 -1.1931,-3.80665 75.7576,-54.28122 152.029,-104.46754 76.3012,-50.20595 151.9413,-100.13493 149.1621,-102.9486 -2.7645,-2.79878 -78.3939,47.1337 -154.0609,96.9326 -75.6444,49.78393 -151.3305,99.43745 -153.1362,96.0059 -1.7961,-3.41349 73.8737,-53.07122 148.9738,-102.50794 75.1264,-49.45409 149.6961,-98.69531 146.6943,-101.36267 -2.9863,-2.65361 -77.5406,46.58759 -152.2197,95.75657 -74.6585,49.15552 -149.4443,98.24076 -151.8597,95.20789 -2.4029,-3.01725 72.3684,-52.10578 146.6759,-101.03991 74.3308,-48.94951 148.2063,-97.74989 144.9772,-100.26775 -3.2128,-2.5051 -77.0968,46.31059 -151.1861,95.10965 -74.0708,48.78691 -148.3481,97.55798 -151.3407,94.90284 -2.9774,-2.6416 71.2872,-51.4153 145.1807,-100.09399 73.9142,-48.69236 147.4619,-97.29265 143.9975,-99.65579 -3.4469,-2.35125 -76.9795,46.24845 -150.7854,94.87742 -73.7892,48.61796 -147.8513,97.26496 -151.3684,94.95325 -3.4993,-2.29997 70.552,-50.94916 144.3061,-99.55166 73.7726,-48.61466 147.2498,-97.18375 143.5386,-99.38438 -3.6925,-2.18957 -77.152,46.37679 -150.9704,95.0289 -73.8036,48.64231 -147.9639,97.36882 -152.0813,95.45055 -4.0964,-1.90847 70.0554,-50.63682 143.9971,-99.3767 73.9577,-48.75051 147.7037,-97.51157 143.729,-99.5386 -3.9547,-2.01677 -77.6768,46.73713 -151.8787,95.6551 -74.1893,48.90961 -148.8535,97.97967 -153.7209,96.55339 -4.8422,-1.41889 69.8167,-50.49057 144.382,-99.65332 74.5788,-49.17162 149.0579,-98.43055 144.7959,-100.26834 -4.24,-1.8283 -78.6768,47.41107 -153.7952,96.94412 -75.1088,49.52673 -150.889,99.3396 -156.8434,98.6267 -5.9226,-0.70909 69.8577,-50.52363 145.7346,-100.56009 75.8868,-50.04306 151.8567,-100.29972 147.2736,-101.92603 -4.5587,-1.61763 -80.3922,48.55778 -157.3773,99.32957 -76.9823,50.76995 -155.0904,102.11783 -163.2247,102.83598 -8.0882,0.71406 70.0336,-50.63675 148.7,-102.51683 78.6701,-51.88254 157.8542,-104.27549 152.9002,-105.65798 -4.9251,-1.37443 -84.8395,51.51208 -166.6371,105.45749 -81.8077,53.95213 -165.4388,108.92091 -176.7831,111.7446 -11.2712,2.80549 72.3838,-52.16034 157.2706,-108.13619 84.8815,-55.97237 170.9352,-112.91839 165.6063,-114.05587 -5.2908,-1.12935 -88.6202,54.01985 -170.9331,108.3091 -82.2899,54.27407 -163.5936,107.71083 -163.5863,103.08067 0.01,-4.6021 81.297,-58.05517 160.8077,-110.50958 79.5394,-52.47337 157.3691,-103.99143 151.5784,-104.81827 -5.7576,-0.82211 -83.597,50.70042 -160.1182,101.18891 -76.5024,50.4761 -151.7162,99.94047 -151.1472,94.94006 0.5661,-4.97459 75.7696,-54.4583 148.9438,-102.75142 73.1998,-48.30994 144.4425,-95.47422 138.0407,-95.89409 -6.3711,-0.41785 -77.6326,46.7545 -147.194,92.66831 -69.5476,45.90469 -137.4219,90.57166 -136.1348,85.09744 1.2818,-5.45141 69.1512,-50.1416 134.6516,-93.38722 65.5224,-43.26016 128.7484,-85.12074 121.5125,-84.98569 -7.2085,0.13453 -70.4707,42.01204 -131.5178,82.32115 -61.0392,40.30385 -119.8845,79.05682 -117.5878,72.91596 2.2896,-6.12203 61.1635,-44.92034 117.142,-81.89405 55.997,-36.98595 109.1684,-72.19019 100.6232,-71.18531 -8.5223,1.00218 -61.7794,36.25303 -112.0101,69.43233 -50.2301,33.17891 -97.4451,64.29752 -93.4485,57.03328 3.9892,-7.25085 51.3436,-38.48764 94.7653,-67.17937 43.4376,-28.70214 83.0033,-54.89593 71.7762,-52.11286 -11.2102,2.7789 -51.2291,29.25856 -86.285,52.42211 -35.0684,23.17185 -65.1587,43.02221 -56.3609,32.58406 17.6236,-20.90947 102.2129,-72.18576 102.2129,-72.18576 m -393.4475,259.12741 c 0,0 7.1532,-0.0801 11.2461,-11.96063 4.0924,-11.87875 -12.6639,8.29499 -16.643,1.70458 -3.9791,-6.59041 20.5289,-13.44935 22.0521,-23.66227 1.5232,-10.21291 -25.9919,17.04573 -31.1301,11.20896 -5.1382,-5.83677 32.5817,-21.37562 32.5509,-30.58251 -0.031,-9.20689 -37.6994,24.75223 -43.8661,19.58538 -6.1666,-5.16685 43.803,-28.77153 42.6129,-37.22806 -0.5951,-4.22872 -12.7687,3.78499 -25.7156,12.29667 -12.947,8.51183 -26.6716,17.5239 -30.295,15.2926 -7.2459,-4.46198 54.805,-36.03595 52.64,-43.86071 -1.0826,-3.91252 -16.0202,5.93255 -31.7748,16.30001 -15.7542,10.36715 -32.3295,21.25849 -36.5795,19.43697 -8.4979,-3.64214 66.1829,-43.55787 63.1274,-50.80431 -1.5277,-3.62305 -19.3807,8.15675 -38.1517,20.51943 -18.7699,12.36198 -38.461,25.3079 -43.5154,24.01364 -10.1049,-2.58748 78.6116,-51.77984 74.6891,-58.46155 -1.961,-3.34035 -23.0652,10.59928 -45.302,25.25492 -22.2355,14.65483 -45.6048,30.02511 -51.8951,29.54201 -6.283,-0.48255 17.0888,-15.85337 41.3794,-31.86552 24.2951,-16.01509 49.4962,-32.66413 47.0894,-35.71785 -2.4042,-3.05024 -27.3686,13.45536 -54.1168,31.09384 -26.7496,17.63936 -55.2757,36.40434 -64.5441,37.87724 -9.2529,1.47044 19.3137,-17.31112 49.4562,-37.18682 30.1476,-19.879 61.8449,-40.83732 59.1971,-43.73693 -2.6415,-2.89269 -40.9654,21.30401 -78.7787,46.23296 -37.8005,24.92047 -75.1107,50.57619 -75.1107,50.57619 m -25.1289,135.66374 c 0,0 4.3106,1.76126 -0.661,-4.13382 -4.9722,-5.89582 -5.1387,3.34071 -15.3923,0.87862 -10.2535,-2.46208 10.429,-6.77985 6.579,-13.4116 -3.8499,-6.63175 -16.7988,10.92775 -25.9545,7.75059 -9.1556,-3.17715 22.0935,-14.37471 19.3753,-21.75086 -2.7181,-7.37616 -28.5108,18.56075 -36.779,14.80444 -8.2683,-3.75631 34.0207,-22.15388 32.6317,-30.40568 -1.3891,-8.2518 -40.8683,26.62894 -48.4162,22.40132 -7.5479,-4.22762 46.9122,-30.57725 47.4319,-40.08682 0.2599,-4.75545 -13.4618,4.20976 -28.1138,13.76896 -14.6522,9.55942 -30.2411,19.71613 -33.6233,17.34478 -6.7631,-4.74183 61.8816,-40.37602 66.167,-52.36446 2.1432,-5.99549 -16.0496,5.91151 -35.5682,18.66176 -19.5191,12.75052 -40.3771,26.35117 -43.4023,23.74433 -6.0481,-5.21167 75.9247,-49.57389 102.1607,-75.98958 13.1384,-13.22831 -13.8689,4.5066 -44.832,24.77526 -30.9877,20.28486 -66.05739,43.1776 -68.74934,40.34598 -2.67279,-2.81147 68.03754,-48.99277 138.16074,-95.08917 70.1697,-46.12704 139.7578,-92.17263 136.7659,-94.86586 -2.9616,-2.66588 -72.5225,43.38407 -142.4633,89.38001 -69.9005,45.96946 -140.18601,91.88875 -142.55415,88.82908 -2.3441,-3.02862 67.91075,-48.95505 137.41165,-94.68228 69.5468,-45.75746 138.3596,-91.32802 135.0259,-93.79608 -3.3004,-2.44346 -72.0901,43.13081 -141.0735,88.53594 -68.9444,45.37947 -138.09277,90.59763 -140.12072,87.31368 -2.00802,-3.25169 67.10852,-48.47889 135.30782,-93.38892 68.2438,-44.93934 135.604,-89.58237 131.9106,-91.8123 -3.6581,-2.20856 -70.9998,42.43767 -138.3293,86.79205 -67.2927,44.3302 -134.58789,88.37999 -136.25447,84.85765 -1.65107,-3.48957 65.61187,-47.55063 131.79117,-91.16849 66.2215,-43.64576 131.4061,-86.87728 127.3215,-88.84728 -4.0478,-1.95226 -69.2194,41.28225 -134.1454,84.08981 -64.8926,42.78553 -129.55781,85.15857 -130.82591,81.37318 -1.25721,-3.7529 63.37671,-46.14003 126.74821,-87.94382 63.4108,-41.82979 125.618,-83.11263 121.0899,-84.78693 -4.4909,-1.66053 -66.6947,39.62745 -128.381,80.33361 -61.6572,40.68695 -122.81747,80.80868 -123.62586,76.71959 -0.8022,-4.05777 60.32986,-44.19754 119.99326,-83.58968 59.6992,-39.41577 117.999,-78.12672 112.938,-79.44498 -5.0243,-1.30869 -63.3263,37.40639 -120.7671,75.34312 -57.4172,37.92109 -113.99407,75.08139 -114.18603,70.58497 -0.19072,-4.46715 56.36353,-41.65109 111.17503,-77.87167 54.8432,-36.24154 108.0222,-71.56806 102.2716,-72.42515 -5.7157,-0.85189 -58.9109,34.48284 -110.812,68.78988 -51.8846,34.296 -102.49322,67.58075 -101.91374,62.57372 0.57652,-4.98135 51.18864,-38.30816 99.71504,-70.40385 48.5536,-32.11368 95.1039,-63.04678 88.4965,-63.33066 -6.5766,-0.28256 -53.1701,30.67146 -97.901,60.2638 -44.7226,29.58688 -87.59275,57.82393 -85.90181,52.08016 1.68496,-5.72348 44.58951,-34.02351 84.81761,-60.65465 40.2505,-26.64595 77.9058,-51.67221 69.7492,-50.92212 -8.1313,0.74776 -45.9339,25.85765 -80.851,48.97634 -34.9211,23.12138 -66.94909,44.25263 -63.06859,37.0565 3.87406,-7.18418 36.28019,-28.60559 64.42299,-47.25373 28.1632,-18.66168 52.1285,-34.58809 39.4811,-30.84999 -25.2213,7.45446 -86.19755,52.48357 -86.19755,52.48357 M 2229.2011,797.05435 c 0,0 -81.0568,57.71819 -122.2303,75.47574 -20.5785,8.87523 15.8975,-14.99882 59.8182,-43.77488 43.941,-28.78946 95.2791,-62.45335 104.6706,-73.22474 9.3828,-10.76124 -41.2324,22.4512 -97.5769,59.37603 -56.3543,36.93132 -118.4245,77.56239 -131.7321,81.67083 -13.2838,4.10107 48.4782,-36.3142 114.5932,-79.64054 66.1306,-43.33657 136.544,-89.54139 140.9821,-97.07054 4.4284,-7.51271 -65.8457,38.62212 -140.3052,87.42495 -74.4618,48.80432 -153.069,100.24694 -164.8563,103.3573 -11.7534,3.1014 66.7484,-48.25865 148.7809,-102.02382 82.0495,-53.77631 167.5439,-109.90472 170.3916,-116.39573 2.8381,-6.46937 -82.6375,49.66902 -171.8021,108.11706 -89.1634,58.44727 -181.9586,119.16302 -193.0954,121.84453 -11.092,2.67072 81.7087,-58.0346 177.6491,-120.92323 95.9601,-62.9015 194.9563,-127.92181 197.0837,-133.94539 2.1179,-5.99626 -96.8681,59.04108 -199.2675,126.1726 -102.3943,67.12821 -208.1303,136.29976 -218.6208,138.55534 -10.4357,2.24379 95.3153,-66.92357 203.879,-138.09575 108.5867,-71.18724 219.8661,-144.30423 221.5398,-150.035 1.664,-5.6977 -109.5986,67.43339 -224.0591,142.4812 -114.4506,75.04137 -232.0152,151.94071 -241.8238,153.74723 -9.7451,1.79483 107.8368,-75.10248 227.9304,-153.8439 120.1208,-78.75924 242.6192,-159.27834 243.9916,-164.81622 1.3627,-5.49902 -121.1147,75.03261 -246.6181,157.33178 -125.4881,82.28907 -253.9086,166.28053 -263.0545,167.65069 -9.0752,1.35958 119.3623,-82.63052 250.0377,-168.32224 130.7077,-85.71286 263.5074,-173.03531 264.6789,-178.44613 1.1618,-5.36611 -131.6143,81.96826 -267.2821,170.94534 -135.6462,88.96295 -274.0825,179.49816 -282.6129,180.46305 -8.4539,0.95623 129.9976,-89.57767 270.442,-181.68944 140.4824,-92.13673 282.8016,-185.75255 283.8463,-191.08497 1.0348,-5.28174 -141.2481,88.33877 -286.3417,183.5123 -145.0659,95.15536 -292.8327,191.78791 -300.8881,192.43938 -7.973,0.6448 139.8163,-95.99224 289.3943,-194.11011 149.622,-98.14674 300.8665,-197.66907 301.809,-202.93915 0.9324,-5.21349 -150.2846,94.32032 -304.2693,195.34222 -153.9511,100.99983 -310.5515,203.4062 -318.2591,203.82745 -7.6192,0.41642 148.9869,-101.98423 307.1956,-205.78074 158.258,-103.8289 317.944,-208.94286 318.7303,-214.11497 0.7769,-5.11015 -158.8816,100.01613 -321.2674,206.56715 -162.3465,106.52527 -327.2942,214.38865 -334.7218,214.62401 -7.3331,0.23236 157.6277,-107.63085 324.0333,-216.8237 166.4606,-109.2289 334.1826,-219.67076 334.8599,-224.77593 0.6684,-5.03766 -167.0258,105.41721 -337.4319,217.24974 -170.3612,111.80309 -343.3,224.89187 -350.4989,224.97483 -7.0982,0.0818 165.8526,-113.00668 340.1056,-227.36863 174.3136,-114.40166 349.7372,-229.95436 350.3162,-234.99951 0.5707,-4.97213 -174.8247,110.5941 -352.9294,227.49911 -178.0543,116.87191 -358.6756,234.98534 -365.6858,234.94209 -6.9034,-0.0426 173.7289,-118.15561 355.5328,-237.49401 181.8699,-119.38175 364.7105,-239.86072 365.2005,-244.85198 0.4823,-4.91276 -182.3294,115.58015 -367.8587,237.37976 -185.4733,121.76286 -373.5137,244.72981 -380.3676,244.58143 -6.7812,-0.14681 82.2026,-58.32866 168.0997,-114.59272 85.886,-56.25676 168.7261,-110.61949 150.2264,-103.09154 -18.4424,7.50465 -101.3404,61.88254 -181.3421,114.2748 -80.0251,52.40767 -157.2233,102.87761 -163.8938,102.64339 -6.6524,-0.23358 71.231,-51.1558 147.787,-101.29038 76.5515,-50.13162 151.794,-99.48658 140.3207,-96.57086 -11.4428,2.90798 -86.6998,52.26435 -160.824,100.80278 -74.1303,48.54252 -147.1482,96.28148 -153.7081,95.97505 -6.5436,-0.30567 66.5917,-48.12358 138.9854,-95.52851 72.392,-47.40382 144.0519,-94.40038 134.9766,-93.05781 -9.0533,1.33932 -80.7184,48.33562 -151.8308,94.90002 -71.1144,46.56575 -141.6851,92.70606 -148.1536,92.34011 -6.4535,-0.3651 64.1568,-46.53278 134.3054,-92.46621 70.1483,-45.93325 139.8403,-91.63545 131.9479,-91.06869 -7.8742,0.56546 -77.5679,46.26711 -146.9861,91.72173 -69.4185,45.45485 -138.5662,90.66606 -144.9605,90.25176 -6.38,-0.41337 62.7845,-45.63683 131.6543,-90.73279 68.8705,-45.09634 137.449,-90.06691 130.2829,-89.97639 -7.1502,0.0903 -75.7286,45.06029 -144.1984,89.89434 -68.4691,44.83365 -136.8321,89.53313 -143.1677,89.08054 -6.3218,-0.4516 62.0677,-45.16953 130.2576,-89.82092 68.191,-44.65211 136.184,-89.23857 129.449,-89.4308 -6.7203,-0.19182 -74.7121,44.39408 -142.6919,88.90833 -67.9788,44.51353 -135.9469,88.9563 -142.2381,88.47463 -6.2775,-0.48063 61.6649,-44.90765 129.3937,-89.25808 67.7299,-44.35116 135.2478,-88.62674 128.4965,-88.80815 -6.7369,-0.18102 -74.2538,44.09404 -141.7454,88.28959 -67.4906,44.19483 -134.9572,88.31114 -141.217,87.80902 -6.2464,-0.50104 61.222,-44.61965 128.4798,-88.66268 67.2589,-44.04379 134.3087,-88.01299 127.595,-88.21906 -6.6994,-0.20562 -73.7482,43.76307 -140.7752,87.65544 -67.0258,43.89161 -134.0312,87.70783 -140.2723,87.1935 -6.2278,-0.51323 60.7793,-44.33172 127.5682,-88.06881 66.79,-43.73785 133.3635,-87.39536 126.6332,-87.59044 -6.7162,-0.19468 -73.2889,43.46244 -139.8268,87.03564 -66.5369,43.57245 -133.0404,87.062 -139.252,86.52847 -6.1986,-0.53241 60.3068,-44.02439 126.5699,-87.41826 66.2642,-43.3946 132.2881,-86.69236 125.4855,-86.83994 -6.7886,-0.14728 -72.8139,43.15144 -138.8001,86.36435 -65.9853,43.21227 -131.9328,86.33975 -138.2063,85.84677 -6.2607,-0.49197 59.6894,-43.62224 125.3808,-86.64268 65.6923,-43.02102 131.1282,-85.93359 124.1914,-85.99305 -6.9228,-0.0593 -72.3605,42.85427 -137.7327,85.66589 -65.3714,42.81111 -130.6789,85.52144 -136.9897,85.05295 -6.2982,-0.46755 59.0129,-43.18135 124.0245,-85.75731 65.0121,-42.57636 129.7274,-85.01655 122.5818,-84.9389 -7.1316,0.0775 -71.8492,42.51876 -136.4492,84.82528 -64.5994,42.30616 -129.0833,84.47912 -135.4056,84.0182 -6.3099,-0.46001 58.1795,-42.6377 122.2978,-84.62921 64.1186,-41.99171 127.8698,-83.79943 120.4176,-83.52053 -7.4379,0.27836 -71.1922,42.08717 -134.7447,83.70798 -63.5522,41.62065 -126.9056,83.05542 -133.2129,82.5849 -6.2954,-0.46964 56.9702,-41.84825 119.8492,-83.0283 62.8792,-41.18023 125.3755,-82.16413 117.8625,-81.84521 -7.4991,0.31834 -69.9985,41.3033 -132.2673,82.08357 -62.2686,40.78014 -124.3096,81.3578 -130.5763,80.86088 -6.2554,-0.49603 55.7915,-41.07879 117.4644,-81.46924 61.6732,-40.39068 122.9761,-80.59113 115.5418,-80.32372 -7.421,0.26695 -68.7266,40.46838 -129.8023,80.4676 -61.0754,39.99901 -121.9237,79.7979 -128.1256,79.25873 -6.1911,-0.53823 54.6537,-40.33616 115.1283,-79.94216 60.475,-39.6063 120.5832,-79.0227 113.2164,-78.79936 -7.3542,0.22295 -67.4649,39.64021 -127.338,78.85226 -59.8727,39.21178 -119.5105,78.22037 -125.6257,77.62459 -6.1048,-0.59479 53.5296,-39.60255 112.7979,-78.41906 59.2689,-38.8169 118.175,-77.4445 110.8995,-77.28092 -7.2635,0.16331 -66.1717,38.79165 -124.836,77.2126 -58.6637,38.42058 -117.0861,76.63572 -123.0953,75.97078 -5.9995,-0.66388 52.4196,-38.87832 110.4771,-76.90248 58.0582,-38.02465 115.7579,-75.86089 108.5947,-75.77079 -7.1519,0.09 -64.8533,37.92678 -122.3059,75.55488 -57.4518,37.62763 -114.6572,75.04837 -120.5444,74.30376 -5.8781,-0.74345 51.3241,-38.16365 108.1694,-75.39477 56.8463,-37.23172 113.3387,-74.27617 106.3054,-74.27111 -7.0227,0.005 -63.5165,37.04996 -119.7576,73.88558 -56.2402,36.83504 -112.2301,73.46255 -117.9826,72.6299 -5.7439,-0.83141 50.2429,-37.45854 105.8779,-73.89802 55.6362,-36.44018 110.9234,-72.69447 104.0342,-72.78375 -6.8793,-0.0892 -62.1675,36.16547 -117.2005,72.21098 -55.0319,36.04484 -109.811,71.88223 -115.419,70.95522 -5.6001,-0.9257 49.1759,-36.76286 103.6054,-72.414 54.4307,-35.65196 108.5178,-71.11957 101.7834,-71.31028 -6.7251,-0.19044 -60.8126,35.27738 -114.6436,70.53697 -53.8298,35.25881 -107.4051,70.31092 -112.862,69.28513 -5.4495,-1.0244 48.1228,-36.07643 101.3541,-70.94421 53.2327,-34.86872 106.1271,-69.55482 99.5552,-69.85199 -6.5632,-0.29678 -59.4577,34.38942 -112.0951,68.86882 -52.6361,34.47853 -105.0171,68.75169 -110.3188,67.62442 -5.2949,-1.12581 47.0832,-35.39901 99.1258,-69.48989 52.0442,-34.09191 103.7556,-68.00305 97.3511,-68.40988 -6.3964,-0.40632 -58.1213,33.5139 -109.5938,67.23198 -51.471,33.71713 -102.6913,67.23344 -107.8528,66.01451 -5.1552,-1.21743 46.0655,-34.73607 96.9574,-68.07501 50.8936,-33.34005 101.4608,-66.50189 95.2129,-67.0113 -6.2404,-0.5088 -56.8059,32.65225 -107.1089,65.60622 -50.3014,32.95295 -100.342,65.70007 -105.3158,64.35829 -4.9679,-1.34021 45.0616,-34.08223 94.7489,-66.63414 49.6892,-32.5531 99.0387,-64.91761 92.9155,-65.50876 -6.1161,-0.59047 -55.4639,31.77339 -104.5357,63.9229 -49.0701,32.14844 -97.8656,64.08374 -102.6695,62.63077 -4.7984,-1.45135 43.9941,-33.38691 92.4439,-65.13037 48.4518,-31.74473 96.5635,-63.29885 90.5985,-63.99365 -5.9585,-0.69404 -54.0684,30.85955 -101.9008,62.19943 -47.8307,31.33876 -95.38518,62.46491 -100.03389,60.91041 -4.64379,-1.55285 42.90759,-32.67934 90.11959,-63.6142 47.214,-30.93619 94.0911,-61.6822 88.2844,-62.48073 -5.8007,-0.79769 -52.6761,29.94788 -99.2755,60.48241 -46.5976,30.53337 -92.9206,60.8567 -97.42662,59.20876 -4.50151,-1.64629 41.81832,-31.97 87.80502,-62.10451 45.9887,-30.13587 91.6464,-60.08393 85.9972,-60.98573 -5.6436,-0.90092 -51.2996,29.04678 -96.6838,58.78767 -45.3824,29.73972 -90.49415,59.27352 -94.86799,57.53898 -4.3697,-1.7329 40.73894,-31.26713 85.52269,-60.6161 44.7859,-29.35036 89.2491,-58.51677 83.756,-59.52098 -5.4879,-1.00327 -49.9492,28.16284 -94.1448,57.12761 -44.1939,28.96359 -88.12307,57.72664 -92.37372,55.91133 -4.24681,-1.81368 39.67928,-30.57718 83.29052,-59.16054 43.6134,-28.58476 86.9139,-56.9906 81.5752,-58.09601 -5.334,-1.10444 -48.6327,27.30117 -91.6733,55.51183 -43.03886,28.20949 -85.82058,56.22474 -89.95573,54.33368 -4.13162,-1.88945 38.64704,-29.90519 81.12208,-57.74679 42.47725,-27.84302 84.65275,-55.51303 79.46605,-56.71818 -5.1824,-1.20413 -47.3559,26.46571 -89.28035,53.94771 -41.92265,27.48083 -83.59691,54.77444 -87.62324,52.81196 -4.02307,-1.9609 37.64817,-29.25503 79.02795,-56.38168 41.38194,-27.1281 82.47434,-54.08979 77.43704,-55.39299 -5.0333,-1.30216 -46.1236,25.6594 -86.97453,52.44074 -40.84916,26.78018 -81.45962,53.38067 -85.38292,51.35053 -3.92029,-2.02858 36.68715,-28.62961 77.01594,-55.07035 40.33101,-26.44218 80.38501,-52.72504 75.49421,-54.12447 -4.887,-1.39838 -44.93884,24.8844 -84.76183,50.99494 -39.82122,26.10938 -79.41409,52.04698 -83.23943,49.95246 -7.6483,-4.18772 158.22456,-103.74565 148.73386,-106.73198 -4.7437,-1.49266 -43.80421,24.14223 -82.64672,49.61308 -38.84078,25.4697 -77.46402,50.77576 -81.19584,48.61974 -7.46143,-4.31076 154.35266,-101.21966 145.14266,-104.39054 -4.60349,-1.58493 -42.72097,23.43386 -80.6317,48.29692 -37.90902,24.86194 -75.61164,49.56849 -79.25382,47.35349 -7.28235,-4.42878 150.67638,-98.8218 141.7407,-102.17311 -4.4665,-1.67515 -41.66642,22.74426 -78.69464,47.03183 -37.02656,24.28648 -73.88167,48.44138 -77.53252,46.23176 -7.29975,-4.41805 147.2923,-96.61542 138.62449,-100.14299 -4.33267,-1.76329 -40.79603,22.17554 -77.05159,45.95959 -36.25389,23.78296 -72.30023,47.41141 -75.67706,45.02192 -6.75201,-4.77781 144.02911,-94.48825 135.69234,-98.23363 -4.16726,-1.87219 -39.7462,21.48902 -75.08468,44.6749 -35.3368,23.18478 -70.43333,46.19447 -73.51902,43.61377 -6.16997,-5.16022 140.26885,-92.0353 132.17849,-95.94301 -4.04416,-1.95336 -38.60134,20.74005 -72.88378,43.23661 -34.28082,22.49549 -68.28704,44.79436 -71.11857,42.04663 -5.6619,-5.49434 135.91367,-89.19203 128.05542,-93.25273 -7.85825,-4.0607 -133.71118,87.7544 -138.9212,81.96261 -5.21001,-5.79178 131.06442,-86.02426 123.42576,-90.22979 -7.63866,-4.20552 -128.63103,84.43492 -133.43243,78.37389 -4.8014,-6.06103 125.79506,-82.58025 118.36499,-86.92344 -7.43008,-4.34319 -123.16272,80.86003 -127.58896,74.55154 -4.42625,-6.30849 120.16003,-78.89548 112.92883,-83.37001 -7.2312,-4.47454 -117.35229,77.05972 -121.42906,70.52046 -4.07677,-6.53925 114.19888,-74.99566 107.15797,-79.59596 -7.04091,-4.6003 -111.23269,73.0554 -114.97922,66.29785 -3.74652,-6.75755 107.93921,-70.89873 101.08097,-75.61985 -6.85823,-4.72112 -104.80708,68.84892 -108.25839,61.89592 -3.45132,-6.95299 101.40096,-66.61756 94.71863,-71.45511 -6.68233,-4.83755 -98.16935,64.50174 -101.42094,57.41587 -3.25158,-7.08586 94.73932,-62.25388 88.22689,-67.20396 -6.51243,-4.95008 -91.47787,60.11772 -94.53447,52.90199 -3.05659,-7.21572 88.02267,-57.85248 81.67478,-62.91164 -6.34788,-5.05916 -84.73076,55.69553 -87.5972,48.35303 -2.86644,-7.3425 81.24988,-53.41255 75.0618,-58.57772 -6.18808,-5.16518 -77.92761,51.23482 -80.60883,43.76869 -2.68123,-7.46612 74.42125,-48.93419 68.38876,-54.20266 -6.03249,-5.26847 -71.06934,46.73613 -73.57041,39.14961 -2.50107,-7.58653 67.53836,-44.41836 61.65775,-49.78775 -5.88062,-5.36938 -64.15816,42.2008 -66.48427,34.4972 -2.32611,-7.7036 60.60404,-39.86683 54.87203,-45.33502 -5.73201,-5.4682 -57.19746,37.63099 -59.35395,29.81374 -2.15649,-7.81726 53.62227,-35.28215 48.036,-40.84733 -5.58628,-5.56518 -50.19179,33.02962 -52.18417,25.10225 -1.99239,-7.92738 46.59818,-30.66761 41.15516,-36.3282 -5.44301,-5.66058 -43.14682,28.40036 -44.98078,20.36651 -1.83397,-8.03384 39.53801,-26.02725 34.23612,-31.78189 -5.30189,-5.75465 -36.06934,23.74757 -37.75078,15.61105 -1.68145,-8.13652 32.4491,-21.36583 27.28655,-27.21341 -5.16255,-5.84759 -28.96721,19.07638 -30.50226,10.84113 -1.53504,-8.23525 25.33987,-16.68882 20.31518,-22.62843 -5.02469,-5.93961 -21.8494,14.39266 -23.24442,6.06279 -1.39501,-8.32987 18.21986,-12.00248 13.33186,-18.03339 -4.888,-6.03092 -14.72602,9.70297 -15.98766,1.28278 -1.26163,-8.42019 11.08661,-7.30509 6.36071,-13.44412 -4.7259,-6.13903 -7.62145,5.02335 -8.75666,-3.48265 -1.13522,-8.5061 1.74823,-5.77965 1.74823,-5.77965 M 2360.838,461.26285 c 0,0 -75.6063,51.00754 -146.258,97.51538 -70.656,46.51063 -136.2755,88.48291 -115.8561,70.44454 20.3992,-18.02044 86.1795,-61.29416 146.7604,-101.19408 60.6259,-39.92956 116.1649,-76.55705 116.5335,-81.43324 0.3681,-4.86971 -55.6115,32.05026 -108.2372,66.71957 -52.6243,34.66845 -101.8617,67.06714 -87.7367,53.15057 28.2556,-27.83866 196.7089,-129.61567 197.3072,-139.27437 0.2991,-4.82744 -42.0265,23.09775 -81.5724,49.16706 -39.547,26.07003 -76.2911,50.27061 -64.6799,37.99751 23.2272,-24.55143 146.8491,-96.82224 147.3222,-106.40151 0.2365,-4.78873 -30.8084,15.70118 -59.38,34.5472 -28.5742,18.84772 -54.6573,36.04103 -44.4259,24.66758 20.4675,-22.75212 104.2776,-68.79311 104.6374,-78.30076 0.3598,-9.50765 -84.2659,55.61157 -65.5001,33.96466 18.7657,-21.64691 65.8585,-43.47145 66.116,-52.91469 0.2575,-9.44325 -47.4112,31.30777 -29.7333,10.36311 17.6779,-20.94466 29.9896,-19.80555 30.155,-29.19109 0.1655,-9.38554 -4.0207,-1.98179 -4.0207,-1.98179"
       style="opacity:0.66822426;fill:none;stroke:#000000;stroke-width:4;stroke-linecap:butt;stroke-linejoin:miter;stroke-miterlimit:4;stroke-dasharray:none;stroke-dashoffset:0;stroke-opacity:1" />
    <path
       inkscape:original-d="m 1807.0625,120.56251 c -71.4737,0.61758 -143.5889,25.56061 -196.5937,73.875 -41.3711,37.64502 -68.7807,92.72306 -67.2351,149.54116 0.046,4.46664 0.1438,8.96055 0.9538,13.36509 46.5504,-27.9067 111.722,-21.42016 150.9063,16.25 27.1679,25.34363 34.9929,70.81618 14.6252,102.71672 -11.8054,19.8218 -30.7825,34.92721 -52.1252,43.40828 97.0835,55.37595 224.9927,52.71398 319.0851,-7.75301 43.9522,-28.56051 79.9238,-71.14896 94.619,-122.18999 16.2501,-57.61831 2.4026,-122.76583 -35.9431,-168.64136 -37.893,-47.84511 -94.0646,-79.62767 -153.4996,-92.52728 -24.4979,-5.59273 -49.6613,-8.33615 -74.7927,-8.04461 z M 1135.5,201.62501 c -54.1525,0.36459 -108.9802,22.00043 -145.09073,62.78224 -26.47916,30.26866 -39.11843,73.66802 -29.00302,113.18651 10.06067,40.43438 39.53315,73.86323 75.73965,93.30331 21.6095,11.86694 45.386,19.67386 69.8229,23.10294 -21.5938,-22.09906 -31.4193,-56.76676 -20.2188,-86.25 11.9834,-33.47074 43.755,-57.07345 77.9062,-64.34375 43.4533,-10.2943 92.9804,3.0374 122.3126,37.3125 6.9429,8.46769 12.4601,18.1301 15.8437,28.5625 24.3461,-43.17021 19.5297,-101.31125 -12.5807,-139.26206 -29.3775,-37.53106 -75.3466,-60.29158 -122.4185,-66.35469 -10.7057,-1.43614 -21.5077,-2.22503 -32.3133,-2.0395 z m 1229.25,144.5 c -92.8093,111.6862 -189.648,221.16698 -301.7616,313.99672 -54.3651,44.3636 -116.6113,79.89811 -184.7915,97.90411 -45.5428,12.46589 -93.2102,16.03642 -140.3088,14.13627 -71.5077,-1.33248 -143.0963,-5.9869 -214.5807,-1.3441 -95.6584,3.80444 -191.6432,6.7916 -287.1696,-1.36356 -97.0785,-7.74621 -194.3587,-25.87333 -284.11234,-64.57238 -106.16132,-46.7413 -199.11062,-121.6719 -270.30998,-212.94347 -3.76172,-4.86783 -7.44034,-9.79922 -11.09048,-14.75109 10.07063,80.86533 28.76266,161.73509 66.24579,234.51982 20.91723,40.14638 50.84806,76.6852 90.51273,99.3525 71.6415,45.5676 151.17021,79.48366 234.27268,97.06518 107.7954,23.71997 218.5396,26.44627 328.0939,36.22868 129.6997,10.77382 260.4213,21.06215 390.3526,7.89089 66.0457,-6.71721 131.0982,-20.80182 195.3676,-37.11163 40.6211,-10.50093 81.4337,-21.39056 120.3228,-37.51166 47.1839,-18.98066 92.1792,-44.54441 130.5369,-78.12405 31.1926,-26.3942 60.7806,-56.035 78.8888,-93.15348 23.3539,-46.86556 34.0597,-98.6664 43.5091,-149.86242 12.0691,-70.10562 16.6643,-141.29276 17.6783,-212.35633 -0.552,0.66667 -1.1041,1.33333 -1.6562,2 z"
       inkscape:path-effect="#path-effect13882-4-5"
       inkscape:connector-curvature="0"
       id="path13852-7"
       d="m 1666.4387,515.75578 c 0,0 0.385,9.66734 20.083,18.16956 19.6989,8.50259 -15.0098,-20.41807 -6.1304,-26.63134 8.8794,-6.21327 25.6245,34.8566 42.6595,39.73764 17.0351,4.88104 -33.7589,-45.92302 -26.2145,-53.94198 7.5445,-8.01896 43.1696,58.71455 58.5989,61.40926 15.4293,2.6947 -51.0337,-69.40151 -45.0629,-79.54341 2.9857,-5.0715 18.1489,15.47544 34.3026,37.43051 16.1538,21.95519 33.2977,45.32147 40.4352,45.88922 7.1458,0.56841 -9.9197,-22.70185 -28.4746,-47.91682 -18.5486,-25.20644 -38.6098,-52.38452 -37.2156,-59.58908 1.3961,-7.21445 21.4729,19.94046 42.7882,48.88474 21.3162,28.94547 43.8686,59.68354 50.5553,59.64133 6.6982,-0.0423 -14.9241,-29.53243 -39.6362,-63.0811 -24.6826,-33.50875 -52.5512,-71.19566 -57.8748,-87.43184 -5.3323,-16.26298 22.5553,21.31298 53.2115,62.85938 30.6478,41.53497 64.0163,86.99617 70.3193,86.44645 6.3715,-0.55568 -55.8385,-85.31109 -119.4196,-170.9689 -63.5494,-85.61515 -128.5514,-172.23473 -124.9467,-176.30547 3.6661,-4.14018 68.7112,82.46168 133.5312,169.74862 64.8497,87.32686 129.5186,175.40563 135.4614,174.41892 6.0477,-1.00412 -58.6209,-89.08135 -124.5578,-177.85096 -65.9039,-88.72517 -133.1414,-178.22455 -129.2088,-181.8508 4.0044,-3.69238 71.2819,85.79367 138.1327,175.75523 66.8828,90.00472 133.3735,180.53715 139.0223,179.15332 5.754,-1.40961 -60.7434,-91.93975 -128.4167,-182.98386 -67.6389,-90.99788 -136.5027,-182.57109 -132.3025,-185.83566 4.2805,-3.32695 73.1809,88.23621 141.4867,180.09442 68.3399,91.90395 136.1098,184.13997 141.486,182.38742 5.48,-1.78641 -62.3042,-94.02087 -131.1682,-186.60251 -68.8287,-92.53412 -138.7687,-185.45502 -134.3134,-188.37671 4.5431,-2.97921 74.5158,89.9344 143.7463,182.97372 69.2658,93.08668 137.8034,186.31994 142.9209,184.21689 5.2185,-2.14455 -63.3398,-95.37542 -132.8737,-188.79262 -69.498,-93.36899 -139.9853,-186.94127 -135.2789,-189.52757 4.8004,-2.63794 75.3159,90.92942 144.9583,184.45936 69.6782,93.57796 138.4863,187.12268 143.3533,184.6796 4.9636,-2.49156 -63.8709,-96.03276 -133.5663,-189.60161 -69.6594,-93.52052 -140.1748,-187.06275 -135.2166,-189.31471 5.0572,-2.2969 75.5958,91.2424 145.1448,184.58396 69.5846,93.3893 138.1711,186.56829 142.7911,183.78943 4.7109,-2.83352 -63.9075,-96.00766 -133.2585,-189.04941 -69.3153,-92.99391 -139.3404,-185.8268 -134.1245,-187.73862 5.3184,-1.9494 75.3612,90.88235 144.3019,183.34527 68.9755,92.50971 136.829,184.6208 141.1714,181.464 4.4258,-3.21738 -63.4649,-95.32189 -131.9368,-187.11999 -68.4368,-91.75095 -137.4133,-183.14359 -131.9278,-184.70147 5.5899,-1.58754 74.5782,89.80553 142.3632,180.6571 67.8183,90.89627 134.4029,181.20535 138.47,177.67333 4.1419,-3.59707 -62.4847,-93.8978 -129.5231,-183.71091 -67.0042,-89.76742 -134.3614,-178.97381 -128.5868,-180.15371 5.8792,-1.20129 73.2422,88.00726 139.3052,176.49116 66.0941,88.52548 130.8483,176.26622 134.624,172.33726 3.8412,-3.99714 -60.9595,-91.72771 -125.9775,-178.77294 -64.9853,-87.00156 -130.1132,-173.22461 -124.0194,-173.98835 6.1969,-0.77666 71.3242,85.45014 135.0531,170.75039 63.7569,85.33767 126.0674,169.67621 129.5221,165.31014 3.5099,-4.43588 -58.8513,-88.76261 -121.2031,-172.17969 -62.321,-83.37596 -124.5433,-165.73162 -118.0841,-166.01972 6.5589,-0.29255 68.7739,82.06857 129.4816,163.27061 60.7317,81.23419 119.9018,161.22676 122.9866,156.35791 3.1291,-4.93864 -56.0967,-84.91899 -115.0464,-163.72921 -58.921,-78.7719 -117.4649,-156.24887 -110.5847,-155.9892 6.9741,0.26321 65.5044,77.74794 122.3972,153.79671 56.9121,76.0746 112.129,150.62441 114.7649,145.14686 2.6686,-5.54541 -52.6069,-80.08025 -107.2781,-153.11905 -54.6449,-73.00359 -108.5754,-144.3759 -101.1611,-143.42015 7.5,0.9668 61.4114,72.3511 113.5067,141.94145 52.1088,69.6083 102.3439,137.33207 104.3974,131.06756 2.0744,-6.32799 -48.2155,-74.02586 -97.4944,-139.81402 -49.2546,-65.75572 -97.384,-129.46267 -89.311,-127.64658 8.1473,1.8328 56.2529,65.55696 102.2656,126.98183 46.0191,61.43349 89.8937,120.4833 91.0496,113.01056 1.1646,-7.52932 -42.8035,-66.59876 -85.1587,-123.10146 -42.3321,-56.47199 -82.9371,-110.2402 -73.7898,-107.01357 9.207,3.24767 49.8092,57.0742 87.8206,107.78498 38.0077,50.70583 73.3881,98.22952 73.1184,88.84678 -0.2709,-9.42643 -35.8159,-57.06031 -68.7119,-100.91002 -32.8725,-43.81829 -62.9959,-83.73613 -51.6254,-77.57332 11.4102,6.18437 41.7696,46.49433 68.184,81.71431 26.3904,35.18789 48.8431,65.27464 44.7975,50.85219 -8.0754,-28.78823 -73.2428,-106.60957 -73.2428,-106.60957 M 1543.3589,349.4109 c 0,0 -0.5436,8.30849 9.3079,3.4693 9.8519,-4.83935 -10.0556,-13.51735 -8.5497,-29.54069 1.5058,-16.02335 18.387,24.68228 29.5403,21.59373 11.1532,-3.08855 -27.9001,-37.43426 -24.3903,-50.74282 3.5098,-13.30857 35.5002,47.59643 48.1744,46.55122 12.6742,-1.04522 -44.6093,-59.78433 -39.8109,-71.34821 2.399,-5.78169 15.5269,11.75158 29.8715,30.96031 14.3439,19.20789 29.9026,40.09232 37.3068,41.0087 7.4115,0.91728 -8.132,-19.95705 -24.8499,-42.34182 -16.7146,-22.38038 -34.6172,-46.2861 -31.7373,-51.40966 2.883,-5.12885 20.6467,18.56115 40.0544,44.5351 19.4043,25.96939 40.461,54.24015 50.1626,58.24996 9.718,4.01662 -11.3052,-24.2419 -34.0178,-54.64639 -22.7081,-30.3985 -47.1311,-62.97065 -43.8539,-67.55137 3.286,-4.59308 32.7908,32.47413 61.3205,70.67417 28.538,38.21101 56.0855,77.55667 56.0855,77.55667 m -678.3362,83.59625 c 0,0 -13.5673,-16.25509 -27.76041,-35.54577 -14.17564,-19.26696 -29.03367,-41.63827 -31.31026,-53.75357 -2.27741,-12.11966 16.14103,12.63438 37.46512,41.56116 21.29635,28.88908 45.47445,61.9508 55.31325,66.258 9.8926,4.33077 -13.8789,-28.28592 -40.1013,-63.87093 -26.19487,-35.54753 -54.96215,-74.20424 -53.91786,-81.76613 1.05163,-7.61507 29.80187,30.85753 59.92386,71.66899 30.1218,40.81121 61.6462,84.02774 69.695,85.89933 8.126,1.88953 -23.2918,-41.25863 -56.5837,-86.36158 -33.26418,-45.06551 -68.53015,-92.2386 -66.33082,-98.2117 2.22395,-6.03998 33.13103,35.19793 62.55142,74.90931 29.4429,39.74173 57.445,78.00199 55.4842,66.15845 -1.9718,-11.91026 -30.0335,-50.04875 -57.2391,-86.65217 -27.15053,-36.52934 -53.33832,-71.39144 -50.38348,-76.37857 2.97118,-5.01469 29.57258,30.34981 55.59978,65.30684 26.0453,34.98143 51.5207,69.55751 53.4656,63.08804 1.9557,-6.50557 -23.5662,-41.05125 -48.9601,-75.09347 -25.3662,-34.00516 -50.57594,-67.47261 -47.01121,-71.63643 3.58392,-4.18623 28.86161,29.32503 53.74331,62.63357 24.896,33.32782 49.3969,66.4526 52.5123,61.58983 3.132,-4.88856 -21.3987,-37.98809 -45.9538,-70.81201 -24.5351,-32.79735 -49.0805,-65.30227 -45.0707,-68.86874 4.0305,-3.58485 28.6173,28.93438 52.9131,61.3737 24.3076,32.45519 48.3244,64.83018 52.2221,61.0362 3.9178,-3.81359 -20.1282,-36.17926 -44.2833,-68.39374 -24.1398,-32.19413 -48.3812,-64.22832 -43.9843,-67.27722 4.4192,-3.06429 28.6889,28.97173 52.7434,61.02074 24.0643,32.0622 47.9137,64.13794 52.4551,61.219 4.5648,-2.93398 -19.3079,-35.00505 -43.3511,-67.01015 -24.0314,-31.98936 -48.2298,-63.90879 -43.4594,-66.46081 4.7944,-2.56489 29.0109,29.34784 53.0834,61.36654 24.0805,32.0293 48.0178,64.16676 53.1924,62.10432 5.2016,-2.07323 -18.753,-34.20968 -42.9417,-66.36166 -24.1799,-32.1403 -48.5939,-64.29613 -43.4476,-66.34963 5.1729,-2.06407 29.6154,30.10296 53.9862,62.47745 24.3766,32.38228 48.6839,64.977 54.5207,63.80725 5.8686,-1.17609 -18.4493,-33.773 -43.0728,-66.46968 -24.6177,-32.68892 -49.5441,-65.48124 -44.0003,-67.00935 5.5735,-1.53629 30.4953,31.22756 55.4542,64.35602 24.9618,33.13224 49.9666,66.63992 56.6508,66.6102 6.7227,-0.0299 -18.2828,-33.54292 -43.7064,-67.28464 -25.4213,-33.73871 -51.2686,-67.71468 -45.2796,-68.65533 6.0232,-0.94602 31.829,32.95608 57.8921,67.54057 26.0601,34.58038 52.3935,69.87002 60.4433,71.67852 8.101,1.82001 -18.2116,-33.47616 -45.176,-69.26996 -26.9675,-35.79793 -54.6032,-72.11091 -48.0793,-72.34518 6.563,-0.23568 33.6202,35.29014 62.0215,72.99522 28.3656,37.65755 58.1724,77.64034 71.1335,86.08096 13.0559,8.50241 -16.5931,-31.43776 -48.0619,-73.2982 -31.4817,-41.8777 -64.8221,-85.70603 -57.6458,-85.06625 7.2684,0.648 45.2712,50.62131 81.4856,98.89844 36.2268,48.29359 70.6227,94.81368 72.7571,88.63756 2.157,-6.24124 -32.3608,-52.77428 -65.8961,-97.41864 -33.507,-44.60685 -65.9027,-87.17358 -57.7694,-85.29457 8.2089,1.89644 40.5853,44.51278 70.7737,84.69778 30.1872,40.1835 58.1589,77.8744 58.961,69.91249 0.8074,-8.01371 -27.3462,-45.78469 -53.5133,-80.55916 -26.1382,-34.73614 -50.1672,-66.33673 -40.0139,-61.81799 10.2042,4.54144 34.4245,36.50231 55.2998,64.25479 20.845,27.71227 38.3751,51.22459 35.7246,38.66794 -5.2862,-25.04396 -55.3097,-82.44062 -55.3097,-82.44062 m 44.3543,167.31051 c 0,0 -3.5008,-4.74352 -3.5008,-4.74352 M 736.76451,711.50083 c 0,0 37.70185,59.82745 69.01891,83.95127 15.65991,12.06298 -5.19796,-16.11231 -31.61196,-51.69788 -26.38503,-35.54655 -58.39251,-78.57971 -64.68128,-96.03734 -6.29643,-17.47887 25.02287,24.53497 60.74922,72.62617 35.70544,48.06305 75.8188,102.22194 87.46397,108.8924 11.68312,6.6922 -28.17974,-47.19249 -71.96694,-106.14018 -43.75537,-58.90483 -91.56223,-123.02879 -94.99002,-136.60081 -3.44218,-13.62903 44.36086,50.38052 95.39852,119.04601 51.02926,68.65419 105.3474,142.05556 115.81572,147.15368 10.53271,5.12948 -43.67049,-68.18525 -101.30779,-145.73373 -57.59893,-77.49686 -118.80647,-159.44536 -120.99881,-171.32533 -2.2085,-11.96756 59.01926,69.88701 122.79963,155.65281 63.78244,85.76859 130.2107,175.59287 139.84403,179.57869 9.72284,4.02285 -56.62058,-85.75625 -126.13852,-179.23852 -69.47186,-93.42031 -142.33391,-190.81579 -143.81852,-201.71591 -1.50048,-11.01661 71.39567,86.29402 146.33792,187.01773 74.955,100.74084 152.08246,205.08436 161.07486,208.21924 9.09796,3.17169 -52.22172,-79.81756 -111.12292,-159.12047 -58.92619,-79.33657 -115.40728,-154.9685 -95.46427,-137.25045 20.05492,17.81746 76.3323,93.32172 129.70136,165.24816 53.30597,71.84142 103.54808,139.88284 112.08038,142.34951 8.5755,2.47915 -42.14951,-66.20894 -91.74047,-133.06573 -49.60705,-66.8785 -98.05761,-131.90251 -84.11607,-122.20373 14.00549,9.74325 62.37891,74.73128 109.17468,137.85499 46.77091,63.09018 91.91076,124.23803 100.02246,126.13332 8.1457,1.90325 -37.0867,-59.36921 -81.59944,-119.42775 -44.52308,-60.07243 -88.31128,-118.91447 -76.61307,-112.21987 11.74326,6.72039 55.4843,65.54098 98.14544,123.12365 42.64717,57.56387 84.18747,113.84964 92.05067,115.40638 7.8914,1.56233 -33.6837,-54.77157 -74.7744,-110.2448 -41.09789,-55.48285 -81.70086,-110.09353 -71.2953,-105.13279 10.44053,4.97741 51.01404,59.57713 90.783,113.28153 39.76,53.69248 78.6996,106.46566 86.3484,107.73042 7.6731,1.26876 -31.2957,-51.54534 -69.9459,-103.74648 -38.6553,-52.20793 -76.98461,-103.79481 -67.52565,-100.10557 9.48757,3.7004 47.79695,55.28041 85.50155,106.2156 37.6988,50.92731 74.7833,101.195 82.2643,102.23131 7.5026,1.0393 -29.5925,-49.24428 -66.4596,-99.05364 -36.8708,-49.81443 -73.5081,-99.14854 -64.6265,-96.23563 8.9062,2.921 45.5286,52.25024 81.6636,101.07898 36.1308,48.82307 71.7675,97.13543 79.1182,97.9943 7.3704,0.86116 -28.2726,-47.46102 -63.7532,-95.40983 -35.4833,-47.95269 -70.8,-95.52731 -62.3465,-93.1904 8.4753,2.34295 43.7806,49.9139 78.6853,97.09113 34.9016,47.173 69.3979,93.945 76.6496,94.6689 7.2698,0.72572 -27.2305,-46.05285 -61.6198,-92.53698 -34.3915,-46.48716 -68.6687,-92.67626 -60.5476,-90.78674 8.1411,1.89414 42.4094,48.08031 76.3459,93.95767 33.9341,45.87411 67.5331,91.43413 74.7126,92.05973 7.1967,0.6271 -26.4049,-44.93758 -59.9388,-90.27351 -33.5357,-45.33835 -67.0011,-90.44519 -59.1463,-88.91448 7.8731,1.53429 41.3315,46.63868 74.5155,91.50589 33.1822,44.86466 66.0878,89.48832 73.2193,90.04841 7.1478,0.56137 -25.7595,-44.06575 -58.6376,-88.52177 -32.8796,-44.45797 -65.7284,-88.7428 -58.0922,-87.50664 7.6534,1.23894 40.4964,45.52162 73.1156,89.63072 32.6175,44.10705 65.0096,88.03785 72.1154,88.56278 7.1214,0.5261 -25.2716,-43.40736 -57.6719,-87.22266 -32.4015,-43.81692 -64.809,-87.51431 -57.3553,-86.52417 7.47,0.99232 39.8728,44.68771 72.0977,88.26857 32.2237,43.57916 64.2684,87.04209 71.3698,87.56098 7.1168,0.52002 -24.9283,-42.945 -57.0163,-86.3425 -32.0889,-43.39888 -64.22,-86.72946 -56.9207,-85.94743 7.315,0.78371 39.4422,44.11235 71.4351,87.38349 31.9918,43.26969 63.8486,86.48102 70.9669,87.02281 7.1335,0.54295 -24.7238,-42.67088 -56.6595,-85.86653 -31.9366,-43.19686 -63.9514,-86.37534 -56.7816,-85.76776 7.1851,0.60888 39.1968,43.7854 71.1161,86.96065 31.9183,43.17393 63.7441,86.34653 70.9012,86.94103 7.1724,0.59578 -24.6449,-42.56747 -56.5739,-85.75773 -31.9299,-43.19139 -63.9717,-86.41015 -56.8973,-85.93105 7.0896,0.48013 39.1395,43.71141 71.1196,86.97237 31.9792,43.25978 63.8888,86.54962 71.0435,87.14101 7.1701,0.59266 -24.7387,-42.69853 -56.7866,-86.053 -32.0487,-43.35544 -64.2373,-86.77496 -57.2727,-86.44382 6.9796,0.33185 39.1682,43.75225 71.3096,87.23444 32.1407,43.48119 64.2349,87.02501 71.3764,87.59869 7.1571,0.57494 -24.9361,-42.97005 -57.1898,-86.60567 -32.2544,-43.63646 -64.6703,-87.3647 -57.8,-87.16044 6.8855,0.20471 39.3018,43.93382 71.6869,87.74811 32.3845,43.81345 64.7385,87.71325 71.8564,88.25515 7.1337,0.54309 -25.2192,-43.35775 -57.7485,-87.36843 -32.5297,-44.01138 -65.237,-88.13403 -58.4472,-88.03802 6.8051,0.0962 39.5132,44.2197 72.1997,88.44375 32.6859,44.22336 65.3511,88.5487 72.4355,89.04521 7.1002,0.49764 -25.5638,-43.82863 -58.4148,-88.27642 -32.8513,-44.44835 -65.8909,-89.01985 -59.1691,-89.01544 6.7371,0.004 39.7777,44.5767 72.8006,89.25759 33.0226,44.68036 66.0284,89.47086 73.0696,89.90909 7.0574,0.43925 -25.9474,-44.35211 -59.1445,-89.26971 -33.1974,-44.918 -66.5887,-89.96399 -59.9238,-90.03604 6.6805,-0.0722 40.073,44.97449 73.4466,90.13106 33.3733,45.1562 66.7288,90.42385 73.718,90.7917 7.0056,0.36871 -26.349,-44.89974 -59.8967,-90.29267 -33.5478,-45.3932 -67.2904,-90.91264 -60.6721,-91.04724 6.6342,-0.13491 40.3781,45.3852 74.0973,91.01017 33.7191,45.62479 67.4145,91.35597 74.3434,91.64224 6.9456,0.28696 -26.7491,-45.44499 -60.6332,-91.29366 -33.8843,-45.84879 -67.9594,-91.816 -61.378,-92.00014 6.5975,-0.18458 40.674,45.78323 74.7159,91.84515 34.042,46.06189 68.0501,92.21929 74.9113,92.41378 6.878,0.19496 -27.1298,-45.96317 -61.319,-92.2247 -34.1891,-46.26148 -68.5611,-92.62789 -62.0074,-92.84927 6.5699,-0.22193 40.9432,46.14501 75.2683,92.58996 34.3252,46.44512 68.6029,92.96941 75.3896,93.06295 6.8037,0.0938 -27.4739,-46.43124 -61.9209,-93.04111 -34.4468,-46.60967 -69.064,-93.30548 -62.5293,-93.55231 6.5511,-0.24745 41.1697,46.44882 75.723,93.20208 34.5536,46.75358 69.0425,93.565 75.7488,93.54949 6.7232,-0.0155 -27.7485,-46.80406 -62.391,-93.67766 -34.6421,-46.87311 -69.456,-93.83263 -63.0018,-94.18779 6.4707,-0.35606 41.2862,46.60383 76.0335,93.61835 34.7478,47.01514 69.4278,94.08573 76.0486,93.95412 6.6377,-0.13194 -28.0476,-47.20926 -62.8568,-94.30688 -34.8088,-47.09717 -69.7418,-94.21494 -63.1804,-94.42557 6.5782,-0.21117 41.5121,46.90694 76.3284,94.01346 34.8167,47.10711 69.5156,94.20248 76.0465,93.94878 6.5476,-0.25435 -28.1509,-47.34799 -62.9228,-94.39373 -34.7716,-47.04535 -69.6159,-94.04204 -62.9415,-94.10049 6.6914,-0.0586 41.5358,46.93837 76.2122,93.85444 34.6767,46.91661 69.1847,93.75112 75.6221,93.37031 6.4537,-0.38176 -28.0542,-47.2142 -62.5883,-93.93684 -34.5338,-46.72223 -69.0923,-93.33295 -62.3271,-93.26921 6.7822,0.0639 41.3402,46.67483 75.6855,93.14192 34.3458,46.46762 68.4777,92.7893 74.8187,92.27734 6.3567,-0.51322 -27.7755,-46.83254 -61.8912,-92.98778 -34.1154,-46.15477 -68.2122,-92.14298 -61.3817,-91.99162 6.8472,0.15173 40.9437,46.14124 74.789,91.93053 33.8458,45.78984 67.4385,91.37665 73.6775,90.72577 6.2539,-0.65243 -27.3396,-46.23666 -60.8786,-91.61011 -33.5386,-45.37288 -67.02,-90.53189 -60.1524,-90.33101 6.8837,0.20136 40.3627,45.35909 73.5569,90.26599 33.1947,44.90753 66.1025,89.56087 72.2289,88.75661 6.1404,-0.80609 -26.7687,-45.45671 -59.5893,-89.85632 -32.82,-44.39889 -65.5483,-88.54319 -58.6735,-88.33298 6.8903,0.21068 39.6162,44.35381 72.0353,88.21023 32.4197,43.85714 64.5304,87.42394 70.5583,86.48559 6.041,-0.94039 -26.0713,-44.50445 -58.0716,-87.79215 -31.9995,-43.2868 -63.8838,-86.29344 -57.0317,-86.11454 6.8665,0.17929 38.7484,43.18488 70.3126,85.88225 31.5647,42.6982 62.8094,85.08452 68.7516,84.02939 5.9543,-1.05732 -25.309,-43.46349 -56.4303,-85.55949 -31.1205,-42.09504 -62.0955,-83.87587 -55.2287,-83.67766 6.8805,0.1986 37.8531,41.97847 68.4908,83.42001 30.6383,41.44238 60.9395,82.5427 66.8074,81.38638 5.8792,-1.15856 -24.4239,-42.25582 -54.6193,-83.09661 -30.1944,-40.83949 -60.2784,-81.41925 -53.6452,-81.53631 6.6458,-0.11728 36.7286,40.46164 66.5226,80.75844 29.795,40.29796 59.2995,80.31096 65.1034,79.06769 5.8145,-1.24553 -23.6938,-41.25832 -53.1345,-81.07434 -29.4395,-39.8144 -58.8092,-79.42959 -52.417,-79.87185 6.4038,-0.44307 35.7734,39.17133 64.9037,78.56566 29.1313,39.39581 58.0222,78.56951 63.7717,77.25246 5.7597,-1.31937 -23.1349,-40.4929 -52.005,-79.53216 -28.8686,-39.03735 -57.7113,-77.93877 -51.5587,-78.70438 6.1633,-0.76694 35.0068,38.1337 63.6613,76.87902 28.6559,38.74707 57.122,77.33751 62.8262,75.95893 5.7138,-1.38091 -22.756,-39.9712 -51.2472,-78.49222 -28.4896,-38.51882 -57,-76.9675 -51.0856,-78.0542 5.9244,-1.08854 34.4371,37.36 62.8114,75.71968 28.3758,38.3617 56.6128,76.63384 62.278,75.20258 5.6746,-1.43365 -22.566,-39.70567 -50.8763,-77.97503 -28.3085,-38.26684 -56.6865,-76.53094 -51.0087,-77.93622 5.6874,-1.40764 34.0658,36.85229 62.3547,75.08878 28.2905,38.23878 56.4915,76.45396 62.1163,74.96829 5.6341,-1.48814 -22.5693,-39.70173 -50.8785,-77.96159 -28.3071,-38.25707 -56.7205,-76.56094 -51.228,-78.2157 5.5016,-1.65754 33.9208,36.64853 62.283,74.97555 28.364,38.32957 56.6712,76.68029 62.2441,75.12475 5.5823,-1.55815 -22.7294,-39.91013 -51.1829,-78.35602 -28.4511,-38.44276 -57.0449,-76.98057 -51.7454,-78.89474 5.3085,-1.91742 33.9086,36.62229 62.478,75.21986 28.5716,38.60041 57.1127,77.25916 62.6044,75.59404 5.501,-1.66796 -23.0446,-40.32768 -51.7571,-79.11357 -28.7098,-38.78236 -57.5878,-77.69248 -52.4649,-79.84361 5.1318,-2.15485 34.0167,36.75682 62.8856,75.74841 28.8714,38.99477 57.7271,78.0701 63.1102,76.25848 5.3925,-1.81478 -23.468,-40.89082 -52.5105,-80.11148 -29.0397,-39.21669 -58.263,-78.57991 -53.3028,-80.94918 4.969,-2.37347 34.1996,36.99092 63.4191,76.44417 29.2222,39.45682 58.4336,79.00317 63.6832,77.01145 5.259,-1.99528 -23.9575,-41.54212 -53.3624,-81.23978 -29.4017,-39.69321 -58.9936,-79.53931 -54.1845,-82.11083 4.8179,-2.57617 34.4086,37.25893 63.9956,77.19528 29.5899,39.94026 59.1764,79.98253 64.3142,77.84026 5.1473,-2.14618 -24.4445,-42.18872 -54.2343,-82.39226 -29.7861,-40.19862 -59.7722,-80.56053 -55.1042,-83.32079 4.6766,-2.76539 34.6697,37.59573 64.6564,78.05744 29.9899,40.46601 59.9738,81.03335 64.9713,78.70194 5.0068,-2.33577 -24.9828,-42.90316 -55.1709,-83.62936 -30.184,-40.72074 -60.5684,-81.60263 -56.0332,-84.54013 4.5437,-2.9431 34.9357,37.93794 65.3154,78.91445 30.3832,40.98123 60.7545,82.05865 65.6068,79.53187 4.8616,-2.53163 -25.5158,-43.60886 -56.0892,-84.83875 -30.5689,-41.2239 -61.3356,-82.60278 -56.9262,-85.70771 4.4181,-3.11098 35.1928,38.26697 65.9464,79.73097 30.7573,41.46911 61.4937,83.0249 66.1951,80.29517 4.7106,-2.73508 -26.0323,-44.29045 -56.9656,-85.9884 -30.9285,-41.69139 -62.0492,-83.5276 -57.7593,-86.79161 4.2984,-3.2705 35.4275,38.56472 66.5233,80.47221 31.0998,41.91301 62.1667,83.89884 66.7104,80.95714 4.5528,-2.94759 -26.5191,-44.93001 -57.7747,-87.04367 -31.2502,-42.10655 -62.6859,-84.34645 -58.5187,-87.7734 4.1757,-3.43389 35.6202,38.80497 67.0184,81.10065 31.4025,42.3016 62.7588,84.66046 67.1368,81.49617 4.3869,-3.17072 -26.9801,-45.53267 -58.5067,-87.99158 -31.521,-42.45131 -63.2029,-85.00111 -59.0977,-88.50955 4.1137,-3.51565 35.8046,39.03319 67.4192,81.6001 31.6192,42.57316 63.1622,85.16457 67.3651,81.76532 4.2115,-3.40622 -27.3396,-45.99622 -59.0197,-88.64093 -31.6742,-42.63669 -63.4781,-85.32889 -59.4206,-88.89941 4.066,-3.57789 35.8626,39.09121 67.5675,81.75841 31.7097,42.67364 63.3278,85.34544 67.4249,81.80513 4.1056,-3.5476 -27.5209,-46.21782 -59.2621,-88.92298 -31.735,-42.69685 -63.5851,-85.42908 -59.5733,-89.05921 4.02,-3.63764 35.8817,39.09681 67.6283,81.7982 31.7515,42.708 63.3879,85.38283 67.3478,81.65904 3.968,-3.73142 -27.6774,-46.40444 -59.4143,-89.0815 -31.7305,-42.66848 -63.5525,-85.34087 -59.5847,-89.02813 3.9759,-3.69488 35.8099,38.98033 67.4927,81.57331 31.6879,42.59979 63.2244,85.117 66.9952,81.14017 3.7785,-3.98491 -27.7675,-46.49998 -59.3679,-88.97036 -31.5938,-42.46149 -63.2412,-84.87728 -59.3156,-88.61919 3.9336,-3.74955 35.5937,38.67012 67.0515,80.93728 31.463,42.27411 62.7235,84.39504 66.2438,80.08277 3.5274,-4.32083 -27.7432,-46.43915 -59.0143,-88.44299 -31.2643,-41.99467 -62.5273,-83.87256 -58.6419,-87.66663 3.8931,-3.80163 35.1699,38.08196 66.1746,79.7162 31.01,41.64124 61.7476,83.03217 64.9398,78.2802 3.1983,-4.76101 -27.5503,-46.14864 -58.2243,-87.32547 -30.667,-41.1674 -61.256,-82.12001 -57.4089,-85.96376 3.8544,-3.85106 34.4578,37.10863 64.6958,77.68814 30.243,40.58638 60.1204,80.79148 62.8842,75.46564 2.7687,-5.3353 -27.1205,-45.53616 -56.8325,-85.39581 -29.7048,-39.85004 -59.2275,-79.35275 -55.4167,-83.2437 3.8175,-3.8978 33.346,35.60135 62.4427,74.62363 29.1016,39.02873 57.7715,77.57968 60.2084,71.81771 2.4408,-5.77126 -26.2411,-44.3173 -54.6662,-82.4245 -28.4181,-38.09783 -56.5733,-75.74946 -52.7969,-79.68504 3.7824,-3.94186 31.9434,33.70696 59.6113,70.7873 27.6723,37.08613 54.8519,73.60332 56.9776,67.42719 2.1287,-6.1849 -25.063,-42.69661 -51.9202,-78.67612 -26.8506,-35.97063 -53.36,-71.4009 -49.616,-75.37852 3.7493,-3.98323 30.2629,31.44294 56.2291,66.21746 25.9699,34.77952 51.3935,68.90753 53.2338,62.35294 1.8424,-6.56254 -23.5929,-40.6847 -48.6211,-74.18897 -25.0221,-33.49612 -49.63,-66.36589 -45.9165,-70.38295 3.718,-4.02188 28.3283,28.84226 52.3484,60.98628 24.0231,32.14808 47.4576,63.57688 49.057,56.70461 1.6009,-6.87913 -21.8448,-38.30193 -44.8206,-69.03513 -22.9705,-30.72598 -45.4643,-60.75414 -41.7792,-64.80795 3.6886,-4.05784 26.183,25.96311 48.0603,55.21686 21.8796,29.25684 43.1442,57.748 44.5676,50.646 2.8473,-14.20658 -85.2544,-113.97563 -77.9342,-122.15498 3.6614,-4.09111 23.9046,22.90955 43.5103,49.10502 19.6073,26.19763 38.5797,51.5922 39.8559,44.2997 2.5526,-14.58644 -76.0465,-101.58475 -68.7763,-109.82593 3.636,-4.12168 21.4931,19.68213 38.6763,42.62216 17.184,22.94127 33.6972,45.02157 34.7662,37.45911 2.1381,-15.12523 -66.1728,-88.32313 -58.9485,-96.62066 3.6128,-4.14953 18.907,16.22573 33.496,35.68634 14.5893,19.46104 28.4768,38.01075 29.3633,30.21222 1.773,-15.59637 -55.6355,-74.19679 -48.4531,-82.54517 7.1825,-8.34838 50.2253,66.94754 51.6372,50.88699 1.4118,-16.06055 -44.4552,-59.23607 -37.3105,-67.62976 7.1447,-8.39369 38.7209,51.56704 39.7807,35.05594 1.0598,-16.5111 -32.6365,-43.45033 -25.5254,-51.88375 7.111,-8.43342 26.583,35.36943 27.3058,18.42925 0.7227,-16.94018 -20.1953,-26.86338 -13.1137,-35.33092 7.0817,-8.46755 13.8333,18.38635 14.2407,1.04745 0.4073,-17.33883 -3.6316,-13.76372 -3.6316,-13.76372"
       style="opacity:0.66822426;fill:none;stroke:#000000;stroke-width:4;stroke-linecap:butt;stroke-linejoin:miter;stroke-miterlimit:4;stroke-dasharray:none;stroke-dashoffset:0;stroke-opacity:1" />
  </g>
</svg>
