<?xml version="1.0" encoding="UTF-8" standalone="no"?>
<!-- Created with Inkscape (http://www.inkscape.org/) -->

<svg
   xmlns:dc="http://purl.org/dc/elements/1.1/"
   xmlns:cc="http://creativecommons.org/ns#"
   xmlns:rdf="http://www.w3.org/1999/02/22-rdf-syntax-ns#"
   xmlns:svg="http://www.w3.org/2000/svg"
   xmlns="http://www.w3.org/2000/svg"
   xmlns:sodipodi="http://sodipodi.sourceforge.net/DTD/sodipodi-0.dtd"
   xmlns:inkscape="http://www.inkscape.org/namespaces/inkscape"
   sodipodi:docname="silly_pumpkin_face.svg"
   inkscape:version="0.48.5 r10040"
   version="1.1"
   id="svg27345"
   height="1000"
   width="3200">
  <sodipodi:namedview
     id="base"
     pagecolor="#ffffff"
     bordercolor="#666666"
     borderopacity="1.0"
     inkscape:pageopacity="0.0"
     inkscape:pageshadow="2"
     inkscape:zoom="0.4965625"
     inkscape:cx="1323.0963"
     inkscape:cy="500"
     inkscape:document-units="px"
     inkscape:current-layer="layer1"
     showgrid="false"
     inkscape:window-width="1436"
     inkscape:window-height="855"
     inkscape:window-x="0"
     inkscape:window-y="0"
     inkscape:window-maximized="1" />
  <defs
     id="defs27347">
    <inkscape:path-effect
       effect="rough_hatches"
       id="path-effect13882"
       is_visible="true"
       direction="1518.5156,534.49434 , 21.176263,32.221523"
       dist_rdm="0;1"
       growth="0"
       do_bend="true"
       bender="1518.5156,539.49434 , 5,0"
       bottom_edge_variation="0;1"
       top_edge_variation="0;1"
       bottom_tgt_variation="0;1"
       top_tgt_variation="0;1"
       scale_bf="2"
       scale_bb="2"
       scale_tf="2"
       scale_tb="2"
       top_smth_variation="0;1"
       bottom_smth_variation="0;1"
       fat_output="false"
       stroke_width_top="1"
       stroke_width_bottom="1"
       front_thickness="1"
       back_thickness="0.25" />
    <inkscape:path-effect
       back_thickness="0.25"
       front_thickness="1"
       stroke_width_bottom="1"
       stroke_width_top="1"
       fat_output="false"
       bottom_smth_variation="0;1"
       top_smth_variation="0;1"
       scale_tb="2"
       scale_tf="2"
       scale_bb="2"
       scale_bf="2"
       top_tgt_variation="0;1"
       bottom_tgt_variation="0;1"
       top_edge_variation="0;1"
       bottom_edge_variation="0;1"
       bender="1516.8549,539.496 , 9.0252956,0"
       do_bend="true"
       growth="0"
       dist_rdm="0;1"
       direction="1516.8549,532.04234 , 43.937738,-6.0041985"
       is_visible="true"
       id="path-effect6923"
       effect="rough_hatches" />
    <inkscape:perspective
       id="perspective27353"
       inkscape:persp3d-origin="372.04724 : 350.78739 : 1"
       inkscape:vp_z="744.09448 : 526.18109 : 1"
       inkscape:vp_y="0 : 1000 : 0"
       inkscape:vp_x="0 : 526.18109 : 1"
       sodipodi:type="inkscape:persp3d" />
    <inkscape:path-effect
       back_thickness="0.25"
       front_thickness="1"
       stroke_width_bottom="1"
       stroke_width_top="1"
       fat_output="false"
       bottom_smth_variation="0;1"
       top_smth_variation="0;1"
       scale_tb="2"
       scale_tf="2"
       scale_bb="2"
       scale_bf="2"
       top_tgt_variation="0;1"
       bottom_tgt_variation="0;1"
       top_edge_variation="0;1"
       bottom_edge_variation="0;1"
       bender="2307.5717,722.08937 , 6.3549325,0"
       do_bend="true"
       growth="0"
       dist_rdm="0;1"
       direction="2307.5717,718.28259 , 0.72996422,27.141174"
       is_visible="true"
       id="path-effect6923-5"
       effect="rough_hatches" />
    <inkscape:path-effect
       back_thickness="0.25"
       front_thickness="1"
       stroke_width_bottom="1"
       stroke_width_top="1"
       fat_output="false"
       bottom_smth_variation="0;1"
       top_smth_variation="0;1"
       scale_tb="2"
       scale_tf="2"
       scale_bb="2"
       scale_bf="2"
       top_tgt_variation="0;1"
       bottom_tgt_variation="0;1"
       top_edge_variation="0;1"
       bottom_edge_variation="0;1"
       bender="1516.8549,487.13381 , 9.0252956,0"
       do_bend="true"
       growth="0"
       dist_rdm="0;1"
       direction="1516.8549,479.68016 , 1.0366975,53.142279"
       is_visible="true"
       id="path-effect6923-54"
       effect="rough_hatches" />
    <inkscape:path-effect
       effect="rough_hatches"
       id="path-effect13882-4"
       is_visible="true"
       direction="1518.5156,534.49435 , -43.266783,32.221523"
       dist_rdm="0;1"
       growth="0"
       do_bend="true"
       bender="1518.5156,539.49435 , 5,0"
       bottom_edge_variation="0;1"
       top_edge_variation="0;1"
       bottom_tgt_variation="0;1"
       top_tgt_variation="0;1"
       scale_bf="2"
       scale_bb="2"
       scale_tf="2"
       scale_tb="2"
       top_smth_variation="0;1"
       bottom_smth_variation="0;1"
       fat_output="false"
       stroke_width_top="1"
       stroke_width_bottom="1"
       front_thickness="1"
       back_thickness="0.25" />
    <inkscape:path-effect
       back_thickness="0.25"
       front_thickness="1"
       stroke_width_bottom="1"
       stroke_width_top="1"
       fat_output="false"
       bottom_smth_variation="0;1"
       top_smth_variation="0;1"
       scale_tb="2"
       scale_tf="2"
       scale_bb="2"
       scale_bf="2"
       top_tgt_variation="0;1"
       bottom_tgt_variation="0;1"
       top_edge_variation="0;1"
       bottom_edge_variation="0;1"
       bender="1518.5156,539.49435 , 5,0"
       do_bend="true"
       growth="0"
       dist_rdm="0;1"
       direction="1518.5156,534.49435 , -43.266783,32.221523"
       is_visible="true"
       id="path-effect13882-4-5"
       effect="rough_hatches" />
    <inkscape:path-effect
       back_thickness="0.25"
       front_thickness="1"
       stroke_width_bottom="1"
       stroke_width_top="1"
       fat_output="false"
       bottom_smth_variation="0;1"
       top_smth_variation="0;1"
       scale_tb="2"
       scale_tf="2"
       scale_bb="2"
       scale_bf="2"
       top_tgt_variation="0;1"
       bottom_tgt_variation="0;1"
       top_edge_variation="0;1"
       bottom_edge_variation="0;1"
       bender="1518.5156,539.49434 , 5,0"
       do_bend="true"
       growth="0"
       dist_rdm="0;1"
       direction="1518.5156,534.49434 , 21.176263,32.221523"
       is_visible="true"
       id="path-effect13882-8"
       effect="rough_hatches" />
  </defs>
  <metadata
     id="metadata27350">
    <rdf:RDF>
      <cc:Work
         rdf:about="">
        <dc:format>image/svg+xml</dc:format>
        <dc:type
           rdf:resource="http://purl.org/dc/dcmitype/StillImage" />
        <dc:title />
      </cc:Work>
    </rdf:RDF>
  </metadata>
  <g
     transform="translate(0,-52.36218)"
     id="layer1"
     inkscape:groupmode="layer"
     inkscape:label="Layer 1">
    <path
       inkscape:connector-curvature="0"
       style="opacity:0.66822426;fill:none;stroke:#000000;stroke-width:4;stroke-linecap:butt;stroke-linejoin:miter;stroke-miterlimit:4;stroke-opacity:1;stroke-dasharray:none;stroke-dashoffset:0"
       d="m 1810.6405,111.78317 c -152.5783,0 -276.2302,102.16582 -276.2302,228.17485 0,11.13519 0.954,22.08749 2.8205,32.79607 18.6116,-14.73898 43.8729,-23.80512 71.6944,-23.80512 57.2174,0 103.6218,38.32384 103.6218,85.57723 0,39.37932 -32.2432,72.5429 -76.0947,82.50257 47.5327,31.93374 108.1387,51.10408 174.1882,51.10408 152.5792,0 276.2872,-102.1658 276.2872,-228.17483 0,-126.00903 -123.7081,-228.17485 -276.2872,-228.17485 z m -672.4407,81.05844 c -104.396,0 -189.07988,69.89067 -189.07988,156.10736 0,85.58194 83.43218,155.08869 186.76738,156.10738 -27.1431,-15.42674 -44.9574,-41.26138 -44.9574,-70.53015 0,-47.25339 46.3482,-85.57723 103.5651,-85.57723 56.2949,0 102.1033,37.09405 103.5653,83.29454 18.453,-24.10656 29.1632,-52.66595 29.1632,-83.29454 0,-86.21669 -84.6278,-156.10736 -189.0237,-156.10736 z m 1237.0861,126.10644 c 0,0 -249.0362,315.99648 -408.846,395.13657 -159.8099,79.1401 -224.7806,37.17513 -448.557,48.02946 -223.7769,10.85435 -443.2642,3.2391 -611.6896,-89.49036 C 737.76827,579.89423 658.33608,443.3774 658.33608,443.3774 c 0,0 16.43662,279.21965 151.28666,366.76614 134.84962,87.54647 249.59496,118.98261 453.91586,133.18739 204.3208,14.20477 417.8707,44.5917 619.1916,2.18951 201.3208,-42.40218 299.3064,-78.23908 399.2003,-187.78537 99.8936,-109.54628 93.3554,-438.78702 93.3554,-438.78702 z"
       id="path6939" />
    <path
       inkscape:original-d="m 1807.0625,120.5625 c -71.4737,0.61758 -143.5889,25.56061 -196.5937,73.875 -41.3711,37.64502 -68.7807,92.72306 -67.2351,149.54116 0.046,4.46664 0.1438,8.96055 0.9538,13.36509 46.5504,-27.9067 111.722,-21.42016 150.9063,16.25 27.1679,25.34363 34.9929,70.81618 14.6252,102.71672 -11.8054,19.8218 -30.7825,34.92721 -52.1252,43.40828 97.0835,55.37595 224.9927,52.71398 319.0851,-7.75301 43.9522,-28.56051 79.9238,-71.14896 94.619,-122.18999 16.2501,-57.61831 2.4026,-122.76583 -35.9431,-168.64136 -37.893,-47.84511 -94.0646,-79.62767 -153.4996,-92.52728 -24.4979,-5.59273 -49.6613,-8.33615 -74.7927,-8.04461 z M 1135.5,201.625 c -54.1525,0.36459 -108.9802,22.00043 -145.09073,62.78224 -26.47916,30.26866 -39.11843,73.66802 -29.00302,113.18651 10.06067,40.43438 39.53315,73.86323 75.73965,93.30331 21.6095,11.86694 45.386,19.67386 69.8229,23.10294 -21.5938,-22.09906 -31.4193,-56.76676 -20.2188,-86.25 11.9834,-33.47074 43.755,-57.07345 77.9062,-64.34375 43.4533,-10.2943 92.9804,3.0374 122.3126,37.3125 6.9429,8.46769 12.4601,18.1301 15.8437,28.5625 24.3461,-43.17021 19.5297,-101.31125 -12.5807,-139.26206 -29.3775,-37.53106 -75.3466,-60.29158 -122.4185,-66.35469 -10.7057,-1.43614 -21.5077,-2.22503 -32.3133,-2.0395 z m 1229.25,144.5 c -92.8093,111.6862 -189.648,221.16698 -301.7616,313.99672 -54.3651,44.3636 -116.6113,79.89811 -184.7915,97.90411 -45.5428,12.46589 -93.2102,16.03642 -140.3088,14.13627 -71.5077,-1.33248 -143.0963,-5.9869 -214.5807,-1.3441 -95.6584,3.80444 -191.6432,6.7916 -287.1696,-1.36356 -97.0785,-7.74621 -194.3587,-25.87333 -284.11234,-64.57238 -106.16132,-46.7413 -199.11062,-121.6719 -270.30998,-212.94347 -3.76172,-4.86783 -7.44034,-9.79922 -11.09048,-14.75109 10.07063,80.86533 28.76266,161.73509 66.24579,234.51982 20.91723,40.14638 50.84806,76.6852 90.51273,99.3525 71.6415,45.5676 151.17021,79.48366 234.27268,97.06518 107.7954,23.71997 218.5396,26.44627 328.0939,36.22868 129.6997,10.77382 260.4213,21.06215 390.3526,7.89089 66.0457,-6.71721 131.0982,-20.80182 195.3676,-37.11163 40.6211,-10.50093 81.4337,-21.39056 120.3228,-37.51166 47.1839,-18.98066 92.1792,-44.54441 130.5369,-78.12405 31.1926,-26.3942 60.7806,-56.035 78.8888,-93.15348 23.3539,-46.86556 34.0597,-98.6664 43.5091,-149.86242 12.0691,-70.10562 16.6643,-141.29276 17.6783,-212.35633 -0.552,0.66667 -1.1041,1.33333 -1.6562,2 z"
       inkscape:path-effect="#path-effect13882-8"
       inkscape:connector-curvature="0"
       id="path13852"
       d="m 1956.0132,524.04284 c 0,0 25.9133,-12.32717 56.4394,-41.47511 15.2631,-14.57397 -6.0495,-0.62914 -34.4245,17.91751 -28.3749,18.54665 -63.8351,41.69513 -76.7293,45.52848 -12.8942,3.83334 21.2316,-18.43276 59.7885,-43.63302 38.557,-25.20027 81.531,-53.33469 86.5776,-61.23797 5.0467,-7.90329 -37.6269,20.05439 -83.9302,50.3288 -46.3034,30.27441 -96.2526,62.86555 -105.3632,64.22918 -9.1105,1.36363 40.7401,-31.15548 93.4545,-65.6233 52.7145,-34.46781 108.2799,-70.88433 111.0694,-77.3155 2.7895,-6.43116 -52.6857,29.94662 -110.892,68.01732 -58.2062,38.0707 -119.1581,77.83431 -126.7005,78.17482 -7.5424,0.34051 53.3884,-39.40416 116.4312,-80.64172 63.0428,-41.23755 128.1856,-83.968 129.7476,-89.59904 1.562,-5.63105 -63.5259,37.08386 -130.854,81.13713 -33.664,22.02664 -67.8832,44.38787 -94.5205,61.20773 -26.6374,16.81987 -45.6861,28.09838 -48.9836,27.95958 -6.5948,-0.27759 62.967,-45.65356 134.1512,-92.23481 35.5921,-23.29062 71.5964,-46.88256 98.785,-65.28919 27.1885,-18.40663 45.5673,-31.62795 45.9397,-34.17731 0.3725,-2.54936 -17.6268,8.12059 -45.0531,25.53721 -27.4263,17.41662 -64.2886,41.57991 -101.623,66.01723 -37.3344,24.43731 -75.1413,49.14866 -104.3669,67.66139 -29.2257,18.51274 -49.8618,30.82686 -52.8245,30.46973 -2.9628,-0.35713 14.7077,-13.02673 42.8483,-31.97803 28.1406,-18.9513 66.7435,-44.18429 105.6722,-69.6682 38.9287,-25.48391 78.1829,-51.21873 107.7144,-71.1737 29.5315,-19.95496 49.3475,-34.13006 49.4359,-36.49452 0.088,-2.36446 -19.6334,9.445 -49.474,28.45634 -29.8407,19.01133 -69.8106,45.22456 -110.1942,71.66763 -40.3835,26.44308 -81.181,53.11601 -112.5722,73.04677 -31.3911,19.93076 -53.3662,33.11935 -56.0708,32.59373 -2.7046,-0.52562 16.5638,-14.23889 46.936,-34.65187 30.3721,-20.41299 71.839,-47.52568 113.5631,-74.85015 41.7241,-27.32447 83.7052,-54.86072 115.2075,-76.12079 31.5022,-21.26008 52.5342,-36.24399 52.4004,-38.46379 -0.1338,-2.2198 -21.2946,10.54354 -53.1612,30.89573 -31.8667,20.35219 -74.4508,48.29323 -117.4029,76.42883 -42.9521,28.13561 -86.2724,56.46577 -119.4931,77.59621 -33.2206,21.13044 -56.3305,35.06115 -58.8243,34.39785 -2.4937,-0.6633 18.1207,-15.25675 50.376,-36.90499 32.2552,-21.64823 76.1413,-50.35125 120.2273,-79.23369 44.086,-28.88243 88.3717,-57.94429 121.5401,-80.3102 33.1684,-22.36591 55.229,-38.03588 54.9091,-40.13453 -0.32,-2.09866 -22.696,11.47212 -56.2749,32.96001 -33.579,21.48788 -78.3736,50.89288 -123.4979,80.46264 -45.1244,29.56977 -90.5788,59.30431 -125.347,81.45129 -34.7682,22.14699 -58.8379,36.70642 -61.1524,35.92596 -2.3144,-0.78045 19.4392,-16.11999 53.2872,-38.81478 33.8479,-22.6948 79.7793,-52.74485 125.8608,-82.94634 46.0815,-30.20149 92.313,-60.55442 126.886,-83.85496 34.573,-23.30055 57.4981,-39.54871 57.0143,-41.54067 -0.4839,-1.99195 -23.8885,12.26387 -58.9131,34.71288 -35.0246,22.44901 -81.6829,53.09122 -128.6374,83.87201 -46.9545,30.7808 -94.2056,61.70019 -130.2748,84.70359 -36.0693,23.0034 -60.9435,38.0908 -63.1008,37.20762 -2.1574,-0.88319 20.5577,-16.85356 55.7456,-40.43072 35.188,-23.57716 82.837,-54.7611 130.5918,-86.0714 47.7548,-31.31031 95.6152,-62.74699 131.3602,-86.82963 35.7449,-24.08264 59.3859,-40.81124 58.7519,-42.70539 -0.6339,-1.89415 -24.9048,12.94002 -61.1395,36.19577 -36.2348,23.25575 -84.448,54.93308 -132.9268,86.72525 -48.4788,31.79218 -97.2236,63.6992 -134.3712,87.41433 -37.1476,23.71513 -62.684,39.23837 -64.7005,38.26298 -2.0165,-0.97539 21.5015,-17.47391 57.802,-41.78561 36.3005,-24.31171 85.3709,-56.43661 134.5066,-88.66477 49.1357,-32.22816 98.3364,-64.55957 135.04,-89.2843 36.7036,-24.72474 60.9223,-41.84279 60.1462,-43.64423 -0.7762,-1.80144 -27.1632,14.43514 -65.7943,39.277 -38.6311,24.84186 -89.5232,58.28899 -139.2511,90.90867 -49.7279,32.61967 -98.2901,64.41189 -132.0888,85.9439 -33.7987,21.53202 -52.8138,32.80383 -43.438,24.3827 9.3759,-8.42112 37.7506,-28.11403 74.9209,-53.02345 37.1704,-24.90942 83.13,-55.03534 127.7365,-84.32249 44.6065,-29.28715 87.8609,-57.73552 119.7235,-79.28985 31.8625,-21.55433 52.3417,-36.21461 51.427,-37.92556 -0.9147,-1.71096 -22.9299,11.64964 -55.4013,32.45323 -32.4714,20.80359 -75.4107,49.05019 -118.1386,77.11126 -42.728,28.06106 -85.2442,55.93659 -116.748,75.99804 -31.5038,20.06145 -51.9829,32.30883 -50.6103,29.11359 1.3725,-3.19524 23.2188,-18.6379 55.1025,-40.10583 31.8836,-21.46793 73.7968,-48.96113 115.3443,-76.25746 41.5475,-27.29634 82.7297,-54.3958 113.249,-75.07624 30.5194,-20.68044 50.3842,-34.94186 49.3308,-36.56212 -1.0534,-1.62026 -22.008,11.04645 -52.8753,30.80392 -30.8673,19.75746 -71.6579,46.60568 -112.3524,73.34844 -40.6946,26.74276 -81.2929,53.38005 -111.6665,72.71565 -30.3736,19.33561 -50.5116,31.36953 -50.2594,28.90554 0.2523,-2.46398 20.6388,-16.962 50.9581,-37.41848 30.3193,-20.45648 70.564,-46.87142 110.5693,-73.16924 40.0052,-26.29782 79.7712,-52.47853 109.2249,-72.46654 29.4538,-19.98802 48.6031,-33.78334 47.4074,-35.31039 -1.1957,-1.52705 -21.5462,10.74624 -51.4558,29.88156 -29.9095,19.13533 -69.3879,45.13269 -108.8109,71.05376 -39.4229,25.92107 -78.7901,51.76586 -108.3752,70.59605 -29.5851,18.83019 -49.3779,30.64579 -49.6265,28.50846 -0.2486,-2.13732 19.2939,-16.09128 48.6267,-35.91216 29.3327,-19.82087 68.4483,-45.50867 107.38,-71.11367 38.9316,-25.60499 77.6794,-51.12719 106.3639,-70.61687 28.6844,-19.48968 47.3131,-32.94684 46.0374,-34.42177 -1.2756,-1.47493 -21.1803,10.50895 -50.396,29.19509 -29.2157,18.68614 -67.7518,44.07454 -106.2631,69.40866 -38.5114,25.33412 -76.9978,50.61396 -106.0171,69.08298 -29.0192,18.46901 -48.5617,30.1272 -49.16,28.21803 -0.5984,-1.90918 18.3429,-15.47656 46.9653,-34.8414 28.6225,-19.36483 66.9191,-44.52713 105.0637,-69.62614 38.1446,-25.099 76.1372,-50.13472 104.2362,-69.24641 28.099,-19.11168 46.3116,-32.29933 44.9259,-33.70219 -1.3857,-1.40287 -20.9825,10.3823 -49.692,28.74217 -28.7095,18.35988 -66.5407,43.29446 -104.3689,68.19043 -37.8283,24.89597 -75.6535,49.75333 -104.2576,67.95876 -28.6041,18.20542 -47.9778,29.75891 -48.8786,28.04714 -0.9007,-1.71176 17.5699,-14.97706 45.6508,-33.99525 28.081,-19.0182 65.7653,-43.7893 103.323,-68.51269 37.5576,-24.72338 74.9886,-49.39904 102.6452,-68.22636 27.6566,-18.82732 45.5459,-31.8063 44.0491,-33.13631 -1.4967,-1.33001 -20.8802,10.31849 -49.2251,28.44481 -28.3448,18.12633 -65.6599,42.73047 -102.9946,67.31176 -37.3346,24.58129 -74.6888,49.13971 -103.021,67.17459 -28.3323,18.03488 -47.6338,29.5462 -48.8387,28.0333 -1.2049,-1.51291 16.8897,-14.53721 44.5715,-33.30113 27.6819,-18.76391 64.9441,-43.26743 102.1044,-67.73878 37.1602,-24.47135 74.2185,-48.91052 101.5736,-67.54574 27.355,-18.63522 45.0138,-31.46648 43.4036,-32.72201 -1.6102,-1.25552 -20.8826,10.32361 -49.0143,28.31576 -28.1318,17.99216 -65.1316,42.39733 -102.1718,66.79389 -37.0401,24.39656 -74.1206,48.7845 -102.3247,66.74219 -28.2041,17.95768 -47.5232,29.48511 -49.016,28.16065 -1.4929,-1.32446 16.3317,-14.17646 43.7638,-32.78309 27.432,-18.60663 64.4646,-42.96789 101.4169,-67.3109 36.9523,-24.34301 73.8243,-48.66776 101.0157,-67.20136 27.1915,-18.53359 44.7094,-31.27604 42.9818,-32.45443 -1.7275,-1.1784 -20.9704,10.3851 -49.0081,28.32113 -28.0377,17.93602 -64.8786,42.24458 -101.7773,66.55629 -36.8988,24.31171 -73.8554,48.62658 -102.0363,66.57525 -28.1809,17.94866 -47.5778,29.53112 -49.3321,28.378 -1.7544,-1.15313 15.8866,-13.88885 43.1831,-32.41238 27.2964,-18.52354 64.2412,-42.83489 101.123,-67.13928 36.8819,-24.30438 73.7006,-48.60179 100.8257,-67.09745 27.1252,-18.49566 44.5635,-31.18957 42.7129,-32.28693 -1.8506,-1.09737 -21.1365,10.49812 -49.188,28.44882 -28.0516,17.95069 -64.8771,42.2566 -101.7824,66.58008 -36.9053,24.32348 -73.8903,48.66452 -102.173,66.6855 -28.2826,18.02097 -47.8546,29.72187 -49.9083,28.76505 -2.0537,-0.95681 15.4635,-13.61473 42.7343,-32.12657 27.2708,-18.51185 64.2881,-42.87762 101.2628,-67.25013 36.9747,-24.37252 73.9069,-48.75178 101.0892,-67.2906 27.1823,-18.53883 44.6218,-31.23722 42.6398,-32.248 -1.982,-1.01078 -21.3989,10.6747 -49.5966,28.72702 -28.1978,18.05232 -65.1848,42.47149 -102.2821,66.92808 -37.0974,24.45659 -74.3051,48.95062 -102.8561,67.15265 -28.5511,18.20204 -48.4372,30.11209 -50.8648,29.40074 -2.4276,-0.71135 15.0303,-13.33304 42.4132,-31.92271 27.3828,-18.58967 64.6832,-43.14733 101.9688,-67.73061 37.2855,-24.58328 74.5562,-49.19218 101.9632,-67.88436 27.4071,-18.69217 44.9578,-31.46762 42.8327,-32.38398 -2.1251,-0.91636 -21.7918,10.93751 -50.3182,29.21156 -28.5264,18.27404 -65.9211,42.96825 -103.477,67.73256 -37.5558,24.76432 -75.2729,49.59874 -104.3546,68.15321 -29.0816,18.55447 -49.5195,30.82899 -52.4888,30.47349 -2.9692,-0.3555 14.4996,-12.98593 42.1925,-31.78228 27.693,-18.79635 65.6022,-43.75863 103.5421,-68.77781 37.9398,-25.01919 75.9102,-50.09529 103.813,-69.1193 27.9027,-19.024 45.7455,-31.99592 43.4606,-32.80673 -2.285,-0.81081 -22.3802,11.32963 -51.5288,30.01875 -29.1485,18.68912 -67.359,43.92692 -105.8485,69.31082 -38.4895,25.38389 -77.2582,50.91389 -107.4303,70.18741 -30.1722,19.27353 -51.7395,32.29057 -55.7944,32.64857 -4.055,0.35799 13.459,-12.30168 41.817,-31.53561 28.358,-19.23393 67.5512,-45.04214 106.883,-70.98122 39.3317,-25.93909 78.8018,-52.00905 107.8091,-71.76651 29.0073,-19.75746 47.5603,-33.20241 45.0911,-33.89147 -2.4691,-0.68906 -23.6758,12.18988 -54.4914,31.98381 -30.8156,19.79392 -71.2497,46.50282 -112.1457,73.47368 -40.8959,26.97087 -82.2541,54.20369 -114.8153,75.04547 -32.5612,20.84177 -56.3166,35.29249 -61.9678,36.69913 -5.6513,1.40665 12.4522,-11.63539 42.576,-32.02509 30.1238,-20.38971 72.2571,-48.12708 114.6946,-76.1111 42.4374,-27.98402 85.1788,-56.2147 116.632,-77.59102 31.4533,-21.37632 51.6287,-35.89827 48.9743,-36.46485 -2.6543,-0.56659 -24.8045,12.93933 -56.5833,33.37258 -31.7787,20.43324 -73.1963,47.79381 -114.3498,74.93652 -41.1536,27.14272 -82.0428,54.06758 -112.6546,73.62942 -30.6118,19.56184 -50.9353,31.76064 -50.9317,29.45125 0,-2.3094 20.3291,-16.81902 50.5901,-37.31017 30.2609,-20.49116 70.4496,-46.96385 110.2176,-73.19941 39.768,-26.23556 79.1156,-52.23398 107.788,-71.77658 28.6724,-19.54261 46.6779,-32.6294 43.7904,-33.04169 -2.8875,-0.4123 -23.782,12.26343 -53.5228,31.35298 -29.7407,19.08955 -68.3367,44.59293 -106.5954,69.83593 -38.2587,25.24301 -76.1799,50.22565 -104.4754,68.27372 -28.2955,18.04808 -46.9557,29.16159 -46.6718,26.66634 0.284,-2.49525 19.2271,-16.10585 47.2439,-35.13126 28.0167,-19.02542 65.1008,-43.46565 101.6999,-67.62016 36.5992,-24.15451 72.7139,-48.0233 98.871,-65.90582 26.157,-17.88253 42.3635,-29.7788 39.1697,-29.98827 -3.1939,-0.20947 -22.5974,11.47942 -49.9006,28.95978 -27.3033,17.48035 -62.5135,40.75217 -97.2934,63.70853 -69.5598,45.91272 -137.42,90.56363 -136.1348,85.09744 0.6426,-2.73309 17.9307,-15.2648 43.2438,-32.52078 25.3131,-17.25598 58.6464,-39.23624 91.4078,-60.86644 65.5227,-43.26038 128.7365,-85.12052 121.5125,-84.98569 -7.2241,0.13482 -70.4702,42.01175 -131.5178,82.32115 -61.0476,40.3094 -119.8824,79.05127 -117.5878,72.91596 2.2945,-6.1353 61.1434,-44.90707 117.142,-81.89405 55.9986,-36.98698 109.1597,-72.18916 100.6232,-71.18531 -8.5366,1.00386 -61.7768,36.25135 -112.0101,69.43233 -50.2333,33.18098 -97.444,64.29545 -93.4485,57.03328 3.9954,-7.26217 51.3264,-38.47631 94.7653,-67.17937 43.439,-28.70305 82.9996,-54.89502 71.7762,-52.11286 -11.2233,2.78216 -51.2242,29.2553 -86.285,52.42211 -35.0608,23.1668 -65.163,43.02726 -56.3609,32.58406 8.8021,-10.44321 34.3742,-28.48965 57.7255,-43.92529 23.3513,-15.43563 44.4874,-28.26047 44.4874,-28.26047 m -393.4475,259.12741 c 0,0 7.1538,-0.0819 11.2461,-11.96063 4.0924,-11.87875 -12.6639,8.29499 -16.643,1.70458 -3.9791,-6.59041 20.5289,-13.44935 22.0521,-23.66227 1.5232,-10.21291 -25.9919,17.04573 -31.1301,11.20896 -5.1382,-5.83677 32.5817,-21.37562 32.5509,-30.58251 -0.015,-4.60344 -9.4292,1.58462 -19.6204,8.27768 -10.1913,6.69306 -21.1623,13.89112 -24.2457,11.3077 -6.1666,-5.16685 43.803,-28.77153 42.6129,-37.22806 -0.595,-4.22827 -12.7681,3.78454 -25.7156,12.29667 -12.9474,8.51214 -26.6721,17.52359 -30.295,15.2926 -3.623,-2.23099 10.0942,-11.23998 24.4309,-20.66931 14.3366,-9.42934 29.2916,-19.27902 28.2091,-23.1914 -1.0825,-3.91237 -16.0199,5.9324 -31.7748,16.30001 -15.7549,10.3676 -32.3306,21.25804 -36.5795,19.43697 -4.2489,-1.82107 12.3218,-12.71054 29.5483,-24.05054 17.2265,-11.34001 35.1068,-23.13055 33.5791,-26.75377 -1.5278,-3.62322 -19.381,8.15692 -38.1517,20.51943 -18.7707,12.3625 -38.463,25.30738 -43.5154,24.01364 -5.0525,-1.29374 14.6377,-14.2387 35.0641,-27.69544 20.4264,-13.45674 41.5862,-27.42525 39.625,-30.76611 -1.9613,-3.34085 -23.066,10.59978 -45.302,25.25492 -22.236,14.65514 -45.6089,30.0248 -51.8951,29.54201 -6.2862,-0.48279 17.0884,-15.85313 41.3794,-31.86552 24.291,-16.01239 49.4941,-32.66683 47.0894,-35.71785 -2.4048,-3.05101 -27.3697,13.45613 -54.1168,31.09384 -26.7471,17.63771 -55.286,36.40599 -64.5441,37.87724 -9.258,1.47126 19.3149,-17.31194 49.4562,-37.18682 30.1413,-19.87488 61.8411,-40.84144 59.1971,-43.73693 -2.6441,-2.89548 -40.9696,21.3068 -78.7787,46.23296 -37.8091,24.92616 -75.1107,50.57619 -75.1107,50.57619 m -25.1289,135.66374 c 0,0 4.3112,1.76201 -0.661,-4.13382 -4.9722,-5.89582 -5.1387,3.34071 -15.3923,0.87862 -10.2535,-2.46208 10.429,-6.77985 6.579,-13.4116 -3.8499,-6.63175 -16.7988,10.92775 -25.9545,7.75059 -9.1556,-3.17715 22.0935,-14.37471 19.3753,-21.75086 -2.7181,-7.37616 -28.5108,18.56075 -36.779,14.80444 -8.2683,-3.75631 34.0207,-22.15388 32.6317,-30.40568 -0.6945,-4.1259 -10.8989,2.53133 -21.8852,9.69159 -10.9864,7.16026 -22.7571,14.82354 -26.531,12.70973 -3.774,-2.11381 7.9649,-9.75812 20.7018,-18.06268 12.7369,-8.30455 26.4703,-17.26936 26.7301,-22.02414 0.2599,-4.75479 -13.4608,4.2091 -28.1138,13.76896 -14.6529,9.55986 -30.2417,19.71569 -33.6233,17.34478 -3.3816,-2.37092 12.1085,-12.46492 28.9607,-23.46475 16.8522,-10.99983 35.0636,-22.90549 37.2063,-28.89971 2.1427,-5.99421 -16.0476,5.91022 -35.5682,18.66176 -19.5207,12.75153 -40.3782,26.35016 -43.4023,23.74433 -3.024,-2.60584 15.9829,-14.99931 39.0018,-30.04328 23.0189,-15.04398 50.0409,-32.73846 63.1589,-45.9463 6.559,-6.60393 3.0938,-5.48239 -5.878,-0.17373 -8.9717,5.30865 -23.4568,14.80443 -38.954,24.94899 -30.9942,20.28911 -66.06143,43.17334 -68.74934,40.34598 -1.34395,-1.41368 15.67074,-13.6579 41.78184,-31.31273 26.1112,-17.65484 61.3052,-40.72029 96.3789,-63.77644 35.0736,-23.05615 70.027,-46.10299 95.8185,-63.72061 25.7916,-17.61762 42.4351,-29.80601 40.9474,-31.14525 -1.4878,-1.33925 -19.6151,9.50992 -46.1144,26.44182 -26.4994,16.9319 -61.3881,39.94652 -96.3489,62.93819 -34.9608,22.99167 -69.9937,45.96039 -96.6017,62.80046 -26.6081,16.84007 -44.77375,27.55151 -45.95245,26.02862 -1.17869,-1.5229 15.80385,-13.75736 41.76395,-31.32916 25.96,-17.5718 60.8842,-40.48092 95.6477,-63.35312 34.7635,-22.8722 69.3664,-45.70747 94.8431,-63.13157 25.4767,-17.42409 41.8408,-29.43701 40.1828,-30.66451 -1.658,-1.22749 -19.6767,9.55809 -45.9056,26.32475 -26.2289,16.76665 -60.6849,39.51438 -95.1679,62.21119 -34.4829,22.6968 -68.9927,45.34267 -95.154,61.90562 -26.16136,16.56295 -43.95711,27.04297 -44.96672,25.40806 -1.00961,-1.63492 15.77195,-13.7501 41.32612,-31.07258 25.5542,-17.32248 59.8683,-39.85226 93.9817,-62.31634 34.1134,-22.46408 68.0264,-44.86247 92.9317,-61.92218 24.9054,-17.05971 40.8163,-28.78074 38.9789,-29.89012 -1.8375,-1.10937 -19.5832,9.50259 -45.2879,25.93492 -25.7047,16.43234 -59.3844,38.68503 -93.0414,60.85713 -33.657,22.1721 -67.291,44.2636 -92.737,60.37353 -25.44605,16.10993 -42.68749,26.23829 -43.51747,24.48412 -0.82998,-1.75418 15.57689,-13.63714 40.45917,-30.53614 24.8823,-16.899 58.2281,-38.81403 91.332,-60.63235 33.1038,-21.81832 65.966,-43.53992 90.0255,-60.05205 24.0595,-16.51213 39.3288,-27.81479 37.296,-28.79523 -2.0328,-0.98043 -19.3331,9.34228 -44.2434,25.25997 -24.9103,15.9177 -57.4456,37.43037 -89.902,58.82984 -32.4565,21.39948 -64.8338,42.68577 -89.2721,58.15069 -24.43833,15.46492 -40.92201,25.10847 -41.55381,23.22249 -0.6318,-1.88598 15.21567,-13.41622 39.13831,-29.70282 23.9227,-16.28661 55.9097,-37.32957 87.6099,-58.241 31.7002,-20.91143 63.1138,-41.69132 86.022,-57.45177 22.9083,-15.76046 37.3225,-26.50148 35.0679,-27.33516 -2.2547,-0.83369 -18.9235,9.07489 -42.7422,24.2793 -23.8187,15.20441 -54.8008,35.70465 -85.6388,56.05431 -30.838,20.34967 -61.5314,40.54874 -84.63124,55.15081 -23.09979,14.60207 -38.59165,23.60714 -38.99462,21.56878 -0.40297,-2.03836 14.68212,-13.08301 37.32203,-28.54445 22.63993,-15.46145 52.82523,-35.33969 82.67123,-55.04523 29.846,-19.70555 59.3532,-39.2384 80.7541,-54.00906 21.4008,-14.77066 34.7054,-24.77913 32.1839,-25.43592 -2.5216,-0.65679 -18.3481,8.69603 -40.7274,22.95453 -22.3793,14.25849 -51.323,33.42267 -80.0397,52.38859 -28.7167,18.96592 -57.2059,37.73358 -78.55248,51.19905 -21.34655,13.46547 -35.5378,21.62876 -35.63355,19.38592 -0.0958,-2.24284 13.99698,-12.65098 34.96168,-27.0283 20.96475,-14.37732 48.79355,-32.72381 76.21335,-50.84337 27.4198,-18.11956 54.4309,-36.01218 73.8585,-49.48174 19.4275,-13.46957 31.2803,-22.51607 28.4131,-22.94341 -2.8672,-0.42733 -17.5898,8.19407 -38.0865,21.21034 -20.4967,13.01627 -46.7771,30.42741 -72.7255,47.57954 -25.9485,17.15213 -51.5646,34.04525 -70.63089,46.02549 -19.06629,11.98025 -31.57211,19.04761 -31.28285,16.54823 0.28927,-2.49938 13.08751,-12.07207 31.87632,-25.03405 18.78882,-12.96198 43.56232,-29.31325 67.83872,-45.3698 48.5527,-32.11311 95.0906,-63.04735 88.4965,-63.33066 -3.2971,-0.14166 -16.5847,7.5264 -34.6426,18.92881 -18.058,11.40242 -40.8935,26.53919 -63.2584,41.33499 -44.7297,29.59158 -87.59137,57.81923 -85.90181,52.08016 1.68956,-5.73908 44.56591,-34.00791 84.81761,-60.65465 40.2517,-26.64675 77.897,-51.67141 69.7492,-50.92212 -8.1477,0.74928 -45.9316,25.85613 -80.851,48.97634 -34.9194,23.12022 -66.94972,44.25379 -63.06859,37.0565 3.88113,-7.19729 36.26039,-28.59248 64.42299,-47.25373 28.1625,-18.66124 52.13,-34.58853 39.4811,-30.84999 -12.6489,3.73854 -34.166,16.85943 -52.5543,29.04569 -18.3883,12.18626 -33.64325,23.43788 -33.64325,23.43788 M 2229.2011,797.05435 c 0,0 -20.2598,14.43237 -45.6732,31.08302 -25.4135,16.65065 -55.9834,35.51958 -76.5571,44.39272 -20.5736,8.87313 15.8943,-14.99672 59.8182,-43.77488 43.9238,-28.77817 95.2889,-62.46464 104.6706,-73.22474 9.3818,-10.76011 -41.2307,22.45006 -97.5769,59.37603 -56.3461,36.92597 -118.4418,77.56774 -131.7321,81.67083 -13.2903,4.10309 48.4813,-36.31622 114.5932,-79.64054 66.1119,-43.32432 136.5512,-89.55364 140.9821,-97.07054 4.4308,-7.51691 -65.8522,38.62632 -140.3052,87.42495 -74.4531,48.79862 -153.0906,100.25264 -164.8563,103.3573 -11.7658,3.10466 66.7534,-48.26192 148.7809,-102.02382 82.0275,-53.7619 167.5502,-109.91912 170.3916,-116.39573 2.8413,-6.47662 -82.6485,49.67627 -171.8021,108.11706 -89.1536,58.44079 -181.9855,119.16949 -193.0954,121.84453 -11.1099,2.67504 81.7152,-58.03892 177.6491,-120.92323 47.9669,-31.44216 96.7165,-63.42691 133.7291,-88.30191 37.0126,-24.87501 62.2939,-42.64028 63.3546,-45.64348 2.1214,-6.00639 -96.8835,59.05121 -199.2675,126.1726 -51.1919,33.5607 -103.2226,67.63734 -143.7743,93.60491 -40.5517,25.96756 -69.6171,43.82605 -74.8465,44.95043 -5.2294,1.12439 18.605,-15.60775 57.3147,-41.51689 38.7097,-25.90913 92.2862,-60.99526 146.5643,-96.57886 54.278,-35.5836 109.2572,-71.66467 150.8623,-99.56368 41.605,-27.899 69.8436,-47.61595 70.6775,-50.47132 0.8339,-2.85536 -26.5673,14.00624 -68.4829,40.96103 -41.9156,26.95479 -98.3559,64.00277 -155.5762,101.52017 -57.2203,37.5174 -115.221,75.50422 -160.1526,104.33668 -44.9316,28.83246 -76.7847,48.51057 -81.6712,49.41055 -4.8865,0.89998 22.0796,-17.87692 65.2757,-46.72086 43.1961,-28.84393 102.6118,-67.75489 162.6547,-107.12304 60.0429,-39.36814 120.7125,-79.19347 166.5265,-109.86612 45.814,-30.67266 76.7817,-52.19264 77.4651,-54.9501 0.6833,-2.75746 -29.5969,16.00467 -75.7343,45.74157 -46.1374,29.7369 -108.1442,70.44858 -170.8838,111.59021 -62.7396,41.14163 -126.2124,82.71322 -175.1556,114.16994 -48.9431,31.45672 -83.3453,52.79858 -87.8989,53.48075 -4.5535,0.68218 25.2951,-19.97665 72.6124,-51.51688 47.3173,-31.54023 112.0912,-73.96188 177.4253,-116.80536 65.3341,-42.84347 131.2279,-86.10878 180.9155,-119.33633 49.6877,-33.22755 83.1805,-56.41735 83.7634,-59.1098 0.5829,-2.69246 -32.3222,17.80431 -82.33,50.09397 -50.0078,32.28967 -117.1326,76.37224 -184.9521,120.85137 -67.8196,44.47914 -136.3344,89.35484 -188.9749,123.23079 -52.6405,33.87595 -89.3934,56.75215 -93.638,57.23226 -4.2445,0.48011 28.2639,-21.91531 79.3842,-55.94422 51.1203,-34.02891 120.8386,-79.69133 191.0578,-125.74522 70.2191,-46.05389 140.9386,-92.49927 194.2123,-128.0941 53.2737,-35.59484 89.1145,-60.33913 89.634,-62.99087 0.5195,-2.65173 -34.794,19.43839 -88.3727,54.08543 -53.5787,34.64703 -125.4388,81.85097 -197.969,129.42687 -72.5303,47.5759 -145.7312,95.52377 -201.823,131.65865 -56.0918,36.13488 -95.0593,60.45677 -99.0651,60.78073 -4.0057,0.32395 30.9583,-23.67488 85.6155,-60.01905 54.6573,-36.34417 128.9922,-85.03368 203.7788,-134.09106 74.7866,-49.05739 150.0245,-98.48265 206.6593,-136.29832 56.6348,-37.81568 94.6813,-64.02178 95.1497,-66.64083 0.4684,-2.61906 -37.1042,20.96718 -94.0407,57.83284 -56.9365,36.86566 -133.255,87.01075 -210.2286,137.50938 -76.9736,50.49864 -154.6028,101.35083 -213.9709,139.63069 -59.368,38.27987 -100.4577,63.98741 -104.2882,64.19676 -3.8304,0.20935 33.4271,-25.28728 91.4124,-63.81052 57.9852,-38.52324 136.6806,-90.0731 215.7832,-141.97022 79.1026,-51.89712 158.6119,-104.1415 218.417,-144.05378 59.8052,-39.91228 99.9228,-67.49247 100.3133,-70.06119 0.3905,-2.56873 -39.3313,22.44213 -99.4477,61.41063 -60.1164,38.96851 -140.6476,91.89466 -221.8197,145.15652 -81.1721,53.26185 -162.9855,106.85941 -225.4555,147.17072 -62.47,40.31132 -105.5773,67.33639 -109.2663,67.45329 -3.689,0.11689 35.7297,-26.79118 96.8646,-67.3774 61.135,-40.58622 143.967,-94.85059 227.1687,-149.4463 83.2017,-54.59572 166.7728,-109.52277 229.5987,-151.43436 62.8259,-41.9116 104.925,-70.80772 105.2612,-73.34157 0.3362,-2.53385 -41.4215,23.82796 -104.563,64.79855 -63.1414,40.97059 -147.6887,96.54995 -232.8689,152.45119 -85.1801,55.90124 -170.9936,112.12436 -236.4353,154.38247 -65.4417,42.2581 -110.4904,70.55118 -114.0636,70.59236 -3.5732,0.0412 37.9026,-28.21063 102.0461,-70.76791 64.1435,-42.55728 150.9334,-99.42003 238.0595,-156.60072 87.1262,-57.1807 174.588,-114.67936 240.3086,-158.50845 65.7207,-43.82908 109.7205,-73.98861 110.0076,-76.49106 0.2872,-2.50244 -43.4202,25.15427 -109.4614,68.04563 -66.0413,42.89136 -154.4406,101.01736 -243.468,159.45348 -89.0274,58.43613 -178.6834,117.18238 -246.9844,161.31423 -68.301,44.13185 -115.224,73.64931 -118.7014,73.62786 -3.4774,-0.0215 39.9684,-29.56028 107.0011,-74.01108 67.0328,-44.4508 157.6295,-103.81357 248.5317,-163.48293 90.9021,-59.66936 182.1094,-119.6453 250.6177,-165.32242 68.5083,-45.67713 114.3399,-77.05545 114.5828,-79.52956 0.2429,-2.47412 -45.3405,26.42979 -114.175,71.17274 -68.8345,44.74296 -160.9461,105.32495 -253.6837,166.20702 -92.7376,60.88206 -186.1017,122.0642 -257.1661,168.00743 -71.0643,45.94323 -119.8038,76.64756 -123.2015,76.574 -6.7954,-0.14711 82.2022,-58.32835 168.0997,-114.59272 85.8976,-56.26437 168.7074,-110.61188 150.2264,-103.09154 -18.481,7.52034 -101.3165,61.86685 -181.3421,114.2748 -80.0256,52.40795 -157.2312,102.87733 -163.8938,102.64339 -6.6626,-0.23393 71.2304,-51.15545 147.787,-101.29038 76.5565,-50.13493 151.7809,-99.48327 140.3207,-96.57086 -11.4602,2.91241 -86.6931,52.25991 -160.824,100.80278 -74.1309,48.54288 -147.1558,96.28113 -153.7081,95.97505 -6.5522,-0.30607 66.5911,-48.12318 138.9854,-95.52851 72.3943,-47.40533 144.0417,-94.39887 134.9766,-93.05781 -9.0651,1.34107 -80.7158,48.33387 -151.8308,94.90002 -71.115,46.56616 -141.6923,92.70565 -148.1536,92.34011 -6.4613,-0.36554 64.1561,-46.53233 134.3054,-92.46621 70.1492,-45.93387 139.8316,-91.63483 131.9479,-91.06869 -7.8836,0.56614 -77.5669,46.26643 -146.9861,91.72173 -69.4192,45.4553 -138.5731,90.66561 -144.9605,90.25176 -6.3874,-0.41384 62.7838,-45.63635 131.6543,-90.73279 68.8706,-45.09644 137.4412,-90.06681 130.2829,-89.97639 -7.1583,0.0904 -75.7285,45.06019 -144.1984,89.89434 -68.4699,44.83414 -136.8388,89.53265 -143.1677,89.08054 -6.3289,-0.45211 62.0669,-45.16903 130.2576,-89.82092 68.1907,-44.6519 136.1766,-89.23878 129.449,-89.4308 -6.7276,-0.19203 -74.7124,44.39429 -142.6919,88.90833 -67.9796,44.51404 -135.9536,88.95579 -142.2381,88.47463 -6.2844,-0.48117 61.6641,-44.90712 129.3937,-89.25808 67.7296,-44.35096 135.2406,-88.62694 128.4965,-88.80815 -6.7441,-0.18121 -74.2541,44.09424 -141.7454,88.28959 -67.4914,44.19536 -134.9638,88.31062 -141.217,87.80902 -6.2533,-0.50159 61.2212,-44.61911 128.4798,-88.66268 67.2585,-44.04358 134.3016,-88.01321 127.595,-88.21906 -6.7065,-0.20584 -73.7485,43.76329 -140.7752,87.65544 -67.0266,43.89214 -134.0376,87.7073 -140.2723,87.1935 -6.2346,-0.51379 60.7784,-44.33116 127.5682,-88.06881 66.7897,-43.73764 133.3565,-87.39556 126.6332,-87.59044 -6.7233,-0.19488 -73.2892,43.46264 -139.8268,87.03564 -66.5377,43.57299 -133.0467,87.06146 -139.252,86.52847 -6.2053,-0.53298 60.3059,-44.02382 126.5699,-87.41826 66.2639,-43.39445 132.2812,-86.69251 125.4855,-86.83994 -6.7956,-0.14743 -72.8141,43.15159 -138.8001,86.36435 -65.986,43.21276 -131.939,86.33925 -138.2063,85.84677 -6.2673,-0.49249 59.6886,-43.62172 125.3808,-86.64268 65.6922,-43.02096 131.1212,-85.93365 124.1914,-85.99305 -6.9298,-0.0594 -72.3606,42.85433 -137.7327,85.66589 -65.3721,42.81157 -130.6851,85.52098 -136.9897,85.05295 -6.3047,-0.46803 59.0122,-43.18087 124.0245,-85.75731 65.0122,-42.57644 129.7204,-85.01648 122.5818,-84.9389 -7.1387,0.0776 -71.8491,42.51868 -136.4492,84.82528 -64.6001,42.3066 -129.0893,84.47868 -135.4056,84.0182 -6.3162,-0.46048 58.1788,-42.63723 122.2978,-84.62921 64.119,-41.99197 127.8628,-83.79917 120.4176,-83.52053 -7.4453,0.27863 -71.1918,42.0869 -134.7447,83.70798 -63.5529,41.62108 -126.9113,83.05499 -133.2129,82.5849 -6.3016,-0.47009 56.9695,-41.84779 119.8492,-83.0283 62.8796,-41.18052 125.3688,-82.16385 117.8625,-81.84521 -7.5062,0.31864 -69.9981,41.303 -132.2673,82.08357 -62.2693,40.78058 -124.3151,81.35737 -130.5763,80.86088 -6.2613,-0.4965 55.7908,-41.07833 117.4644,-81.46924 61.6736,-40.39091 122.9696,-80.5909 115.5418,-80.32372 -7.4278,0.26719 -68.7263,40.46813 -129.8023,80.4676 -61.0761,39.99946 -121.9289,79.79745 -128.1256,79.25873 -6.1967,-0.53872 54.653,-40.33567 115.1283,-79.94216 60.4753,-39.60649 120.577,-79.02251 113.2164,-78.79936 -7.3607,0.22314 -67.4646,39.64001 -127.338,78.85226 -59.8734,39.21225 -119.5155,78.21989 -125.6257,77.62459 -6.1102,-0.59531 53.5288,-39.60203 112.7979,-78.41906 59.2691,-38.81703 118.1692,-77.44437 110.8995,-77.28092 -7.2696,0.16345 -66.1715,38.79151 -124.836,77.2126 -58.6645,38.42109 -117.0907,76.63521 -123.0953,75.97078 -6.0046,-0.66444 52.4188,-38.87777 110.4771,-76.90248 58.0583,-38.02472 115.7524,-75.86082 108.5947,-75.77079 -7.1576,0.09 -64.8532,37.92671 -122.3059,75.55488 -57.4526,37.62817 -114.6615,75.04782 -120.5444,74.30376 -5.8829,-0.74405 51.3231,-38.16305 108.1694,-75.39477 56.8463,-37.23172 113.3335,-74.27616 106.3054,-74.27111 -7.0282,0.005 -63.5165,37.04995 -119.7576,73.88558 -56.2411,36.83562 -112.2342,73.46196 -117.9826,72.6299 -5.7484,-0.83206 50.2419,-37.45789 105.8779,-73.89802 55.6361,-36.44012 110.9185,-72.69453 104.0342,-72.78375 -6.8844,-0.0892 -62.1676,36.16553 -117.2005,72.21098 -55.0329,36.04545 -109.8147,71.88161 -115.419,70.95522 -5.6043,-0.92639 49.1748,-36.76217 103.6054,-72.414 54.4305,-35.65183 108.5132,-71.1197 101.7834,-71.31028 -6.7298,-0.19058 -60.8128,35.27752 -114.6436,70.53697 -53.8308,35.25945 -107.4085,70.31027 -112.862,69.28513 -5.4534,-1.02513 48.1216,-36.07569 101.3541,-70.94421 53.2324,-34.86853 106.1228,-69.55501 99.5552,-69.85199 -6.5676,-0.29698 -59.458,34.38962 -112.0951,68.86882 -52.6372,34.47921 -105.0203,68.75101 -110.3188,67.62442 -5.2985,-1.12658 47.082,-35.39824 99.1258,-69.48989 52.0438,-34.09165 103.7516,-68.00331 97.3511,-68.40988 -6.4004,-0.40658 -58.1217,33.51416 -109.5938,67.23198 -51.4721,33.71783 -102.6943,67.23274 -107.8528,66.01451 -5.1586,-1.21824 46.0643,-34.73526 96.9574,-68.07501 50.8931,-33.33974 101.457,-66.5022 95.2129,-67.0113 -6.2442,-0.5091 -56.8063,32.65255 -107.1089,65.60622 -50.3025,32.95367 -100.3447,65.69935 -105.3158,64.35829 -4.971,-1.34106 45.0603,-34.08138 94.7489,-66.63414 49.6886,-32.55275 99.0351,-64.91795 92.9155,-65.50876 -6.1196,-0.59081 -55.4644,31.77373 -104.5357,63.9229 -49.0712,32.14918 -97.8681,64.083 -102.6695,62.63077 -4.8013,-1.45223 43.9927,-33.38603 92.4439,-65.13037 48.4512,-31.74435 96.5602,-63.29924 90.5985,-63.99365 -5.9617,-0.69442 -54.069,30.85992 -101.9008,62.19943 -47.8318,31.3395 -95.38741,62.46417 -100.03389,60.91041 -4.64649,-1.55375 42.90619,-32.67843 90.11959,-63.6142 47.2134,-30.93577 94.0881,-61.68262 88.2844,-62.48073 -5.8037,-0.7981 -52.6767,29.94829 -99.2755,60.48241 -46.5988,30.53412 -92.92262,60.85596 -97.42662,59.20876 -4.504,-1.6472 41.81692,-31.96909 87.80502,-62.10451 45.988,-30.13542 91.6436,-60.08438 85.9972,-60.98573 -5.6463,-0.90135 -51.3003,29.04721 -96.6838,58.78767 -45.3835,29.74045 -90.496,59.27279 -94.86799,57.53898 -4.372,-1.73381 40.73754,-31.26621 85.52269,-60.6161 44.7851,-29.34988 89.2464,-58.51725 83.756,-59.52098 -5.4904,-1.00373 -49.9499,28.1633 -94.1448,57.12761 -44.19501,28.96432 -88.12477,57.72592 -92.37372,55.91133 -4.24895,-1.81459 39.67789,-30.57627 83.29052,-59.16054 43.6126,-28.58426 86.9115,-56.9911 81.5752,-58.09601 -5.3363,-1.10491 -48.6334,27.30164 -91.6733,55.51183 -43.03994,28.2102 -85.82213,56.22403 -89.95573,54.33368 -4.1336,-1.89036 38.64566,-29.90429 81.12208,-57.74679 42.47645,-27.84249 84.65055,-55.51356 79.46605,-56.71818 -5.1845,-1.20462 -47.3566,26.46619 -89.28035,53.94771 -41.9237,27.48152 -83.59833,54.77375 -87.62324,52.81196 -4.0249,-1.9618 37.6468,-29.25413 79.02795,-56.38168 41.38114,-27.12756 82.47224,-54.09033 77.43704,-55.39299 -5.0352,-1.30266 -46.1243,25.65989 -86.97453,52.44074 -40.85019,26.78085 -81.46092,53.38 -85.38292,51.35053 -3.922,-2.02946 36.68581,-28.62873 77.01594,-55.07035 40.33011,-26.44162 80.38301,-52.72559 75.49421,-54.12447 -4.8887,-1.39888 -44.93961,24.8849 -84.76183,50.99494 -39.82222,26.11003 -79.41528,52.04632 -83.23943,49.95246 -3.82415,-2.09386 35.766,-28.03027 75.09174,-53.81651 39.32574,-25.78624 78.38742,-51.42231 73.64212,-52.91547 -4.7453,-1.49317 -43.80497,24.14273 -82.64672,49.61308 -38.84174,25.47034 -77.46512,50.77513 -81.19584,48.61974 -3.73071,-2.15538 34.88976,-27.4603 73.25927,-52.62273 38.36951,-25.16242 76.48839,-50.18237 71.88339,-51.76781 -4.60495,-1.58543 -42.72173,23.43436 -80.6317,48.29692 -37.90996,24.86256 -75.61265,49.56788 -79.25382,47.35349 -3.64117,-2.21439 34.05863,-26.91984 71.52098,-51.49061 37.46234,-24.57076 74.68756,-49.00685 70.21972,-50.6825 -4.46784,-1.67565 -41.66719,22.74476 -78.69464,47.03183 -37.02746,24.28707 -73.88264,48.44079 -77.53252,46.23176 -3.64988,-2.20903 33.20253,-26.36288 69.85453,-50.40543 36.652,-24.04254 73.10386,-47.97378 68.76996,-49.73756 -4.33391,-1.76379 -40.7968,22.17604 -77.05159,45.95959 -36.25479,23.78355 -72.30106,47.41082 -75.67706,45.02192 -3.37601,-2.38891 32.65915,-26.01097 68.46826,-49.50397 35.80911,-23.49301 71.39247,-46.85697 67.22408,-48.72966 -4.16838,-1.87269 -39.74697,21.48953 -75.08468,44.6749 -35.3377,23.18537 -70.43403,46.19388 -73.51902,43.61377 -3.08499,-2.58011 32.00848,-25.58893 66.83555,-48.4412 34.82708,-22.85226 69.38812,-45.54796 65.34294,-47.50181 -4.04518,-1.95385 -38.60209,20.74054 -72.88378,43.23661 -34.28169,22.49606 -68.28762,44.7938 -71.11857,42.04663 -2.83095,-2.74717 31.17193,-25.04518 64.87571,-47.16398 33.70378,-22.1188 67.10883,-44.0584 63.17971,-46.08875 -3.92913,-2.03035 -37.33053,19.90825 -70.42743,41.63046 -33.09691,21.72222 -65.88876,43.22804 -68.49377,40.33215 -2.60501,-2.89589 30.18368,-24.40196 62.6461,-45.70974 32.46242,-21.30778 64.59899,-42.41728 60.77966,-44.52005 -3.81933,-2.10276 -35.95261,19.00597 -67.75585,39.88276 -31.80324,20.87679 -63.27588,41.52164 -65.67658,38.49113 -2.4007,-3.03052 29.06869,-23.67558 60.18877,-44.10591 31.12008,-20.43033 61.89125,-40.64594 58.17622,-42.81753 -3.71504,-2.1716 -34.48323,18.04341 -64.89857,38.01276 -30.41535,19.96934 -60.47727,39.69303 -62.69039,36.53878 -2.21313,-3.15424 27.84553,-22.87811 57.53482,-42.37274 29.68929,-19.49462 59.00961,-38.76 55.39401,-40.99727 -3.6156,-2.23727 -32.9332,17.02766 -61.87712,36.0345 -28.94391,19.00684 -57.51355,37.75559 -59.55194,34.48596 -2.03838,-3.26962 26.52801,-22.01854 54.70711,-40.52508 28.1791,-18.50655 55.97131,-36.77073 52.45086,-39.07088 -3.52046,-2.30015 -31.31019,15.9637 -58.70671,33.95789 -27.39653,17.99419 -54.39924,35.71873 -56.27251,32.33996 -1.87326,-3.37878 25.12626,-21.10346 51.722,-38.57359 26.59574,-17.47013 52.78809,-34.6857 49.35897,-37.04626 -3.42911,-2.36056 -29.61447,14.85167 -55.39052,31.78491 -25.77605,16.93325 -51.14222,33.58751 -52.86787,30.11101 -1.72566,-3.4765 23.63739,-20.13089 48.58366,-36.52085 24.94627,-16.38996 49.47613,-32.51548 46.13497,-34.93426 -3.34116,-2.41877 -27.86905,13.70666 -51.98269,29.55106 -24.11363,15.84439 -47.81246,31.40775 -49.43825,27.86481 -1.62579,-3.54293 22.07006,-19.1064 45.3472,-34.4029 23.27713,-15.29649 46.13591,-30.32602 42.87969,-32.80106 -3.25622,-2.47504 -26.11309,12.55439 -48.55071,27.30061 -22.43763,14.74623 -44.45546,29.20924 -45.98376,25.60138 -3.05659,-7.21572 88.02267,-57.85248 81.67478,-62.91164 -3.17394,-2.52958 -24.34579,11.3943 -45.09342,25.03277 -20.74764,13.63846 -41.07056,26.99151 -42.50378,23.32026 -2.86644,-7.3425 81.24988,-53.41255 75.0618,-58.57772 -6.18808,-5.16518 -77.92761,51.23482 -80.60883,43.76869 -2.68123,-7.46612 74.42125,-48.93419 68.38876,-54.20266 -6.03249,-5.26847 -71.06934,46.73613 -73.57041,39.14961 -2.50107,-7.58653 67.53836,-44.41836 61.65775,-49.78775 -5.88062,-5.36938 -64.15816,42.2008 -66.48427,34.4972 -2.32611,-7.7036 60.60404,-39.86683 54.87203,-45.33502 -5.73201,-5.4682 -57.19746,37.63099 -59.35395,29.81374 -2.15649,-7.81726 53.62227,-35.28215 48.036,-40.84733 -5.58628,-5.56518 -50.19179,33.02962 -52.18417,25.10225 -1.99239,-7.92738 46.59818,-30.66761 41.15516,-36.3282 -5.44301,-5.66058 -43.14682,28.40036 -44.98078,20.36651 -1.83397,-8.03384 39.53801,-26.02725 34.23612,-31.78189 -5.30189,-5.75465 -36.06934,23.74757 -37.75078,15.61105 -1.68145,-8.13652 32.4491,-21.36583 27.28655,-27.21341 -5.16255,-5.84759 -28.96721,19.07638 -30.50226,10.84113 -1.53504,-8.23525 25.33987,-16.68882 20.31518,-22.62843 -5.02469,-5.93961 -21.8494,14.39266 -23.24442,6.06279 -1.39501,-8.32987 18.21986,-12.00248 13.33186,-18.03339 -4.888,-6.03092 -14.72602,9.70297 -15.98766,1.28278 -1.26163,-8.42019 11.08661,-7.30509 6.36071,-13.44412 -4.7259,-6.13903 -7.62145,5.02335 -8.75666,-3.48265 -1.13521,-8.50601 1.74823,-5.77965 1.74823,-5.77965 M 2360.838,461.26285 c 0,0 -75.6155,51.01359 -146.258,97.51538 -70.6425,46.50178 -136.2855,88.49176 -115.8561,70.44454 20.4295,-18.04722 86.1388,-61.26738 146.7604,-101.19408 60.6215,-39.9267 116.1651,-76.55992 116.5335,-81.43324 0.3683,-4.87332 -55.617,32.05387 -108.2372,66.71957 -52.6201,34.6657 -101.8644,67.0699 -87.7367,53.15057 14.1278,-13.91933 63.3439,-46.32325 109.0627,-76.45467 45.7189,-30.13142 87.9453,-57.99035 88.2445,-62.8197 0.2992,-4.82934 -42.0294,23.09966 -81.5724,49.16706 -39.543,26.06741 -76.2936,50.27323 -64.6799,37.99751 11.6136,-12.27571 48.3456,-36.48127 82.2129,-58.81531 33.8674,-22.33405 64.8728,-42.79657 65.1093,-47.5862 0.2366,-4.78963 -30.8098,15.70209 -59.38,34.5472 -28.5702,18.84512 -54.6596,36.04363 -44.4259,24.66758 20.4675,-22.75212 104.2776,-68.79311 104.6374,-78.30076 0.3598,-9.50765 -84.2659,55.61157 -65.5001,33.96466 18.7657,-21.64691 65.8585,-43.47145 66.116,-52.91469 0.2575,-9.44325 -47.4112,31.30777 -29.7333,10.36311 17.6779,-20.94466 29.9896,-19.80555 30.155,-29.19109 0.1655,-9.38555 -4.0207,-1.98179 -4.0207,-1.98179"
       style="opacity:0.66822426;fill:none;stroke:#000000;stroke-width:4;stroke-linecap:butt;stroke-linejoin:miter;stroke-miterlimit:4;stroke-opacity:1;stroke-dasharray:none;stroke-dashoffset:0" />
    <path
       inkscape:original-d="m 1807.0625,120.56251 c -71.4737,0.61758 -143.5889,25.56061 -196.5937,73.875 -41.3711,37.64502 -68.7807,92.72306 -67.2351,149.54116 0.046,4.46664 0.1438,8.96055 0.9538,13.36509 46.5504,-27.9067 111.722,-21.42016 150.9063,16.25 27.1679,25.34363 34.9929,70.81618 14.6252,102.71672 -11.8054,19.8218 -30.7825,34.92721 -52.1252,43.40828 97.0835,55.37595 224.9927,52.71398 319.0851,-7.75301 43.9522,-28.56051 79.9238,-71.14896 94.619,-122.18999 16.2501,-57.61831 2.4026,-122.76583 -35.9431,-168.64136 -37.893,-47.84511 -94.0646,-79.62767 -153.4996,-92.52728 -24.4979,-5.59273 -49.6613,-8.33615 -74.7927,-8.04461 z M 1135.5,201.62501 c -54.1525,0.36459 -108.9802,22.00043 -145.09073,62.78224 -26.47916,30.26866 -39.11843,73.66802 -29.00302,113.18651 10.06067,40.43438 39.53315,73.86323 75.73965,93.30331 21.6095,11.86694 45.386,19.67386 69.8229,23.10294 -21.5938,-22.09906 -31.4193,-56.76676 -20.2188,-86.25 11.9834,-33.47074 43.755,-57.07345 77.9062,-64.34375 43.4533,-10.2943 92.9804,3.0374 122.3126,37.3125 6.9429,8.46769 12.4601,18.1301 15.8437,28.5625 24.3461,-43.17021 19.5297,-101.31125 -12.5807,-139.26206 -29.3775,-37.53106 -75.3466,-60.29158 -122.4185,-66.35469 -10.7057,-1.43614 -21.5077,-2.22503 -32.3133,-2.0395 z m 1229.25,144.5 c -92.8093,111.6862 -189.648,221.16698 -301.7616,313.99672 -54.3651,44.3636 -116.6113,79.89811 -184.7915,97.90411 -45.5428,12.46589 -93.2102,16.03642 -140.3088,14.13627 -71.5077,-1.33248 -143.0963,-5.9869 -214.5807,-1.3441 -95.6584,3.80444 -191.6432,6.7916 -287.1696,-1.36356 -97.0785,-7.74621 -194.3587,-25.87333 -284.11234,-64.57238 -106.16132,-46.7413 -199.11062,-121.6719 -270.30998,-212.94347 -3.76172,-4.86783 -7.44034,-9.79922 -11.09048,-14.75109 10.07063,80.86533 28.76266,161.73509 66.24579,234.51982 20.91723,40.14638 50.84806,76.6852 90.51273,99.3525 71.6415,45.5676 151.17021,79.48366 234.27268,97.06518 107.7954,23.71997 218.5396,26.44627 328.0939,36.22868 129.6997,10.77382 260.4213,21.06215 390.3526,7.89089 66.0457,-6.71721 131.0982,-20.80182 195.3676,-37.11163 40.6211,-10.50093 81.4337,-21.39056 120.3228,-37.51166 47.1839,-18.98066 92.1792,-44.54441 130.5369,-78.12405 31.1926,-26.3942 60.7806,-56.035 78.8888,-93.15348 23.3539,-46.86556 34.0597,-98.6664 43.5091,-149.86242 12.0691,-70.10562 16.6643,-141.29276 17.6783,-212.35633 -0.552,0.66667 -1.1041,1.33333 -1.6562,2 z"
       inkscape:path-effect="#path-effect13882-4-5"
       inkscape:connector-curvature="0"
       id="path13852-7"
       d="m 1666.4387,515.75578 c 0,0 0.3841,9.66698 20.083,18.16956 19.6989,8.50259 -15.0098,-20.41807 -6.1304,-26.63134 4.4397,-3.10663 10.8554,5.60751 18.2817,15.70845 7.4263,10.10094 15.8603,21.58867 24.3778,24.02919 8.5176,2.44052 0.093,-9.04024 -9.5316,-22.13349 -9.625,-13.09325 -20.4551,-27.79901 -16.6829,-31.80849 3.7723,-4.00948 14.5907,10.66916 26.3699,26.687 11.7792,16.01785 24.5143,33.37491 32.229,34.72226 7.7146,1.34735 -5.0105,-16.00302 -18.9498,-34.95798 -13.9393,-18.95495 -29.0985,-39.51448 -26.1131,-44.58543 2.9854,-5.07094 18.1485,15.47489 34.3026,37.43051 16.1542,21.95562 33.2923,45.32103 40.4352,45.88922 7.143,0.56819 -9.9195,-22.70163 -28.4746,-47.91682 -18.555,-25.2152 -38.6115,-52.37577 -37.2156,-59.58908 1.3959,-7.21332 21.4721,19.93933 42.7882,48.88474 21.3161,28.94541 43.86,59.68359 50.5553,59.64133 6.6952,-0.0423 -14.9242,-29.53245 -39.6362,-63.0811 -24.712,-33.54865 -52.5381,-71.15576 -57.8748,-87.43184 -2.6683,-8.13803 2.9686,-2.80652 13.1101,9.75117 10.1414,12.55769 24.7781,32.34156 40.1014,53.10821 15.3233,20.76666 31.3319,42.51612 44.289,59.00498 12.957,16.48887 22.8693,27.71716 26.0303,27.44147 3.1609,-0.27568 -10.7854,-21.60453 -33.4776,-53.57115 -22.6921,-31.96662 -54.153,-74.57101 -85.942,-117.39775 -31.7889,-42.82674 -63.9063,-85.87584 -87.6561,-118.73189 -23.7498,-32.85604 -39.1099,-55.51904 -37.2906,-57.57358 1.8193,-2.05454 19.0036,18.55311 43.8329,50.58914 24.8293,32.03603 57.2767,75.50046 89.6983,119.15948 32.4216,43.65902 64.8168,87.51263 89.8208,120.32705 25.004,32.81442 42.6426,54.58964 45.6406,54.09187 2.998,-0.49777 -11.6432,-22.77025 -35.2847,-56.01342 -23.6415,-33.24317 -56.3078,-77.45702 -89.2731,-121.83754 -32.9653,-44.38051 -66.2298,-88.92768 -90.7931,-122.83749 -24.5633,-33.90981 -40.4014,-57.18225 -38.4157,-59.01331 1.9858,-1.83105 19.8144,19.6098 45.499,52.75739 25.6845,33.14759 59.197,78.00192 92.6337,122.99784 33.4366,44.99592 66.797,90.13343 92.4739,123.84737 25.6769,33.71394 43.6977,56.0043 46.5484,55.30595 2.8507,-0.69836 -12.3207,-23.68652 -36.6731,-57.87899 -24.3524,-34.19248 -57.9117,-79.58926 -91.7436,-125.10487 -33.8318,-45.51561 -67.9365,-91.15005 -93.0909,-125.81782 -25.1543,-34.66777 -41.3331,-58.36888 -39.2116,-60.01784 2.1216,-1.64895 20.4262,20.40284 46.7339,54.35278 26.3076,33.94993 60.5891,79.79802 94.7528,125.74164 34.1637,45.94363 68.2094,91.9828 94.3544,126.3149 26.1449,34.3321 44.4179,56.95715 47.1316,56.07252 2.7137,-0.88462 -12.8477,-24.39413 -37.7051,-59.25304 -24.8574,-34.85891 -59.0375,-81.06723 -93.4631,-127.34947 -34.4256,-46.28224 -69.097,-92.6384 -94.6382,-127.79301 -25.5412,-35.15461 -41.926,-59.10767 -39.6752,-60.5837 2.2508,-1.47602 20.8904,21.00079 47.6153,55.47991 26.725,34.47913 61.5056,80.96057 96.131,127.49381 34.6254,46.53324 69.0954,93.11827 95.5161,127.8046 26.4207,34.68632 44.8215,57.47392 47.4048,56.41229 2.5834,-1.06164 -13.2369,-24.91081 -38.4047,-60.16907 -25.1677,-35.25825 -59.7099,-81.92559 -94.469,-128.62355 -34.759,-46.69796 -69.735,-93.42655 -95.4661,-128.80729 -25.7311,-35.38075 -42.1905,-59.41366 -39.8128,-60.72028 2.3777,-1.30661 21.2184,21.41956 48.1634,56.16673 26.945,34.74716 61.9645,81.5153 96.7949,128.29263 34.8305,46.77732 69.4718,93.56382 95.9809,128.34769 26.509,34.78387 44.9157,57.56511 47.3724,56.33191 2.4567,-1.2332 -13.4966,-25.24768 -38.7861,-60.64682 -25.2894,-35.39914 -59.9419,-82.18294 -94.7802,-128.95479 -34.8383,-46.77185 -69.8624,-93.53174 -95.5899,-128.88307 -25.7274,-35.35132 -42.1313,-59.29407 -39.6267,-60.43164 2.5047,-1.13756 21.4162,21.66759 48.388,56.42756 26.9718,34.75996 61.9742,81.47473 96.7568,128.1564 34.7826,46.68167 69.3455,93.33023 95.7573,127.95777 26.4117,34.62754 44.7023,57.23407 47.0338,55.83166 2.3316,-1.40242 -13.6313,-25.4115 -38.856,-60.69662 -25.2247,-35.28511 -59.7376,-81.84626 -94.4025,-128.35279 -34.6648,-46.50653 -69.4813,-92.95844 -95.0115,-128.02509 -25.5301,-35.06665 -41.7471,-58.74805 -39.113,-59.71353 2.634,-0.96549 21.4877,21.75049 48.2926,56.26802 26.8049,34.51752 61.5321,80.83658 96.0093,127.07725 34.4772,46.24068 68.7046,92.40297 94.8231,126.60694 26.1185,34.20398 44.1576,56.44964 46.3483,54.85706 2.1907,-1.59257 -13.6623,-25.4311 -38.6318,-60.34222 -24.9695,-34.91112 -59.0811,-80.89483 -93.305,-126.77777 -34.224,-45.88294 -68.56,-91.6651 -93.6848,-126.17314 -25.1247,-34.50803 -41.012,-57.74193 -38.243,-58.52833 2.769,-0.7864 21.4274,21.6613 47.8585,55.66388 26.431,34.00259 60.6067,79.56007 94.5047,124.99322 33.898,45.43315 67.5186,90.74198 93.1417,124.24727 25.6232,33.5053 43.2775,55.20705 45.3283,53.42606 2.0507,-1.78099 -13.5581,-25.26421 -38.069,-59.52444 -24.5108,-34.26023 -57.948,-79.29746 -91.4541,-124.18647 -33.5061,-44.88902 -67.0807,-89.62982 -91.5855,-123.29717 -24.5047,-33.66736 -39.9146,-56.26128 -37.0013,-56.85654 2.9132,-0.59525 21.2379,21.40387 47.0837,54.61363 25.8457,33.20977 59.186,77.63019 92.2215,121.87753 33.0355,44.24733 65.7668,88.32159 90.6814,120.83905 24.9146,32.51745 42.0399,53.47809 43.9426,51.49821 1.9026,-1.97989 -13.326,-24.92116 -37.1665,-58.24344 -23.8406,-33.32228 -56.3159,-77.02557 -88.811,-120.5295 -32.495,-43.50393 -65.0093,-86.80851 -88.6644,-119.33336 -23.655,-32.52484 -38.4271,-54.26996 -35.355,-54.65499 3.0721,-0.38502 20.9174,20.97586 45.9521,53.09635 25.0346,32.1205 57.2341,75.0006 89.101,117.65404 31.867,42.65343 63.4019,85.08018 87.3744,116.29397 23.9725,31.21379 40.4082,51.21461 42.1477,49.01617 1.7395,-2.19844 -12.9633,-24.39884 -35.9034,-56.4719 -22.9402,-32.07305 -54.1384,-74.01876 -85.2997,-115.70779 -31.1613,-41.68904 -62.2851,-83.12142 -84.8346,-114.16781 -22.5495,-31.04639 -36.5029,-51.7068 -33.2495,-51.85191 3.2534,-0.14512 20.4611,20.37145 44.435,51.07483 23.9739,30.70339 54.6919,71.5936 85.0466,112.19578 30.3547,40.60217 60.3467,80.91633 83.1109,110.4676 22.7641,29.55127 38.3239,48.33965 39.8757,45.89031 1.5519,-2.44934 -12.4637,-23.68908 -34.2437,-54.16276 -21.78,-30.47369 -51.3428,-70.18132 -80.8027,-109.56645 -29.4599,-39.38513 -58.8162,-78.44776 -79.9678,-107.63144 -21.1516,-29.18368 -34.0788,-48.48842 -30.6169,-48.35776 3.4619,0.13066 19.8519,19.56812 42.4791,48.47877 22.6272,28.91066 51.4724,67.29451 79.9181,105.31794 28.4457,38.02344 56.4926,75.68647 77.736,103.15548 21.2435,27.46902 35.7043,44.74401 37.0289,41.99138 1.3247,-2.75263 -11.8199,-22.78273 -32.1366,-51.2495 -20.3167,-28.46678 -47.8209,-65.37023 -75.1415,-101.86955 -27.3206,-36.49933 -54.4568,-72.59454 -73.8527,-99.44483 -19.396,-26.85029 -31.0347,-44.45566 -27.3084,-43.97532 3.7263,0.48034 19.0923,18.56965 40.0301,45.2369 20.9378,26.66725 47.4313,61.91244 73.4766,96.70455 26.0454,34.79212 51.6436,69.13115 70.9695,93.98608 19.3258,24.85494 32.3972,40.22577 33.4279,37.08148 1.0308,-3.1443 -11.0177,-21.66061 -29.4897,-47.60945 -18.4721,-25.94883 -43.38,-59.33019 -68.0047,-92.20457 -24.6247,-32.87439 -48.9653,-65.24179 -66.1533,-89.16272 -17.1881,-23.92093 -27.2096,-39.39538 -23.1577,-38.48386 4.052,0.91153 18.1274,17.3032 36.9333,41.14389 18.8058,23.84068 42.3296,55.13038 65.3323,85.83794 23.0027,30.70755 45.4852,60.83298 62.3485,82.34512 16.8633,21.51214 28.1217,34.411 28.7011,30.66544 0.5794,-3.74557 -10.1179,-20.4048 -26.2594,-43.18571 -16.1416,-22.78091 -37.736,-51.68349 -58.8993,-79.91575 -21.1632,-28.23225 -41.8943,-55.79417 -56.1997,-75.89377 -14.3053,-20.09959 -22.1744,-32.73686 -17.5901,-31.1198 4.5843,1.61707 17.0477,15.889 33.1086,36.09382 16.061,20.20483 35.7114,46.34254 54.712,71.69116 38.0013,50.69724 73.3883,98.23811 73.1184,88.84678 -0.1349,-4.69567 -9.0872,-18.96952 -22.1215,-37.54628 -13.0344,-18.57676 -30.1556,-41.45643 -46.5904,-63.36374 -32.8697,-43.81463 -63.0026,-83.7398 -51.6254,-77.57332 11.3772,6.16647 41.7831,46.51223 68.184,81.71431 26.401,35.20207 48.8392,65.26046 44.7975,50.85219 -4.0416,-14.40828 -22.3085,-41.06067 -39.6118,-64.11099 -17.3032,-23.05032 -33.631,-42.49858 -33.631,-42.49858 M 1543.3589,349.4109 c 0,0 -0.5439,8.30865 9.3079,3.4693 9.8519,-4.83935 -10.0556,-13.51735 -8.5497,-29.54069 1.5058,-16.02335 18.387,24.68228 29.5403,21.59373 11.1532,-3.08855 -27.9001,-37.43426 -24.3903,-50.74282 1.7549,-6.65429 10.6486,5.24482 20.6706,18.67685 10.0219,13.43203 21.1667,28.39697 27.5038,27.87437 6.3371,-0.52261 -4.7922,-15.46869 -16.9281,-31.72961 -12.136,-16.26091 -25.282,-33.83666 -22.8828,-39.6186 2.3991,-5.78193 15.5271,11.75183 29.8715,30.96031 14.3444,19.20849 29.8977,40.09172 37.3068,41.0087 7.4091,0.91699 -8.1318,-19.95676 -24.8499,-42.34182 -16.7181,-22.38506 -34.6199,-46.28142 -31.7373,-51.40966 2.8826,-5.12823 20.6462,18.56053 40.0544,44.5351 19.4082,25.97458 40.4484,54.23496 50.1626,58.24996 9.7141,4.015 -11.304,-24.24028 -34.0178,-54.64639 -22.7137,-30.40611 -47.1366,-62.96305 -43.8539,-67.55137 3.2826,-4.58833 32.7873,32.46938 61.3205,70.67417 28.5333,38.20479 56.0855,77.55667 56.0855,77.55667 m -678.3362,83.59625 c 0,0 -13.5677,-16.25557 -27.76041,-35.54577 -14.19274,-19.2902 -29.0293,-41.61503 -31.31026,-53.75357 -1.14048,-6.06926 2.89191,-2.90595 9.882,5.38816 6.99009,8.29412 16.92803,21.71904 27.58312,36.173 10.65505,14.45396 22.02535,29.93695 31.95325,42.34721 9.9278,12.41025 18.4191,21.74778 23.36,23.91079 9.8818,4.32603 -13.8754,-28.28118 -40.1013,-63.87093 -13.113,-17.79487 -26.83941,-36.33538 -37.17362,-51.37768 -10.33421,-15.0423 -17.2693,-26.5864 -16.74424,-30.38845 0.52505,-3.80206 7.97323,3.90959 19.06054,17.67455 11.08731,13.76496 25.79832,33.58323 40.86332,53.99444 15.065,20.4112 30.4826,41.41534 43.1249,57.55202 12.6422,16.13668 22.5216,27.40591 26.5701,28.34731 4.0485,0.94139 -1.7679,-9.37158 -12.7601,-25.55861 -10.9923,-16.18703 -27.1751,-38.24813 -43.8236,-60.80297 -16.6484,-22.55485 -33.76359,-45.60345 -46.46422,-63.7655 -12.70064,-18.16205 -20.9744,-31.43756 -19.8666,-34.4462 1.1078,-3.00865 9.39172,5.78516 21.07705,20.29789 11.68532,14.51274 26.75577,34.74439 41.47437,54.61142 14.7186,19.86703 29.0864,39.36945 39.5185,52.4237 10.4321,13.05426 16.9467,19.66035 15.9657,13.73475 -0.981,-5.9256 -8.4888,-18.45255 -19.1569,-34.06615 -10.668,-15.6136 -24.5013,-34.31384 -38.0822,-52.58602 -13.5808,-18.27217 -26.90851,-36.11628 -36.48125,-50.01761 -9.57275,-13.90134 -15.38409,-23.85989 -13.90223,-26.36096 1.48187,-2.50106 8.876,5.08325 19.15388,17.66403 10.2779,12.58077 23.4276,30.15801 36.4459,47.64281 13.0182,17.48479 25.9053,34.87713 35.7705,47.08811 9.8651,12.21098 16.7209,19.24059 17.6951,15.99993 0.9742,-3.24067 -4.9138,-13.50954 -14.224,-27.22049 -9.3101,-13.71095 -22.0482,-30.86399 -34.7361,-47.87298 -12.6879,-17.00899 -25.3254,-33.87394 -34.3547,-47.00872 -9.02937,-13.13478 -14.44436,-22.53939 -12.65651,-24.62771 1.78786,-2.08832 9.00465,5.24054 18.88501,17.25625 9.8803,12.01571 22.4139,28.71826 34.8583,45.37732 12.4444,16.65906 24.7997,33.27463 34.4239,45.11638 9.6241,11.84175 16.5276,18.90968 18.0884,16.47345 1.5608,-2.43624 -3.7849,-11.93728 -12.5943,-24.93024 -8.8093,-12.99297 -21.088,-29.47785 -33.3595,-45.88177 -12.2715,-16.40392 -24.5357,-32.72686 -33.2397,-45.39595 -8.704,-12.66909 -13.8418,-21.68432 -11.831,-23.47279 2.0108,-1.78848 9.1668,5.44314 18.8571,17.17779 9.6902,11.73464 21.9051,27.97231 34.056,44.19591 12.1508,16.2236 24.2376,32.43314 33.7648,44.11154 9.5271,11.67839 16.5043,18.82564 18.4573,16.92466 1.9529,-1.90098 -3.075,-10.9487 -11.6143,-23.54654 -8.5392,-12.59783 -20.5958,-28.74578 -32.669,-44.8472 -12.0731,-16.10142 -24.1629,-32.15633 -32.6934,-44.56807 -8.5305,-12.41175 -13.4956,-21.18034 -11.2909,-22.70915 2.2048,-1.5288 9.379,5.71246 19.0085,17.34288 9.6294,11.63043 21.7051,27.65002 33.7349,43.67786 12.0297,16.02785 24.0135,32.06396 33.5487,43.72743 9.5351,11.66347 16.6307,18.95429 18.9064,17.49157 2.2758,-1.46273 -2.547,-10.21612 -10.9476,-22.6034 -8.4005,-12.38729 -20.3851,-28.40846 -32.4035,-44.40675 -12.0184,-15.99828 -24.0706,-31.97368 -32.5304,-44.26941 -8.4598,-12.29572 -13.3209,-20.91178 -10.929,-22.1914 2.3919,-1.27961 9.647,6.05593 19.3124,17.71443 9.6655,11.65849 21.7327,27.63993 33.771,43.65211 12.0384,16.01219 24.0479,32.05511 33.6859,43.83656 9.638,11.78146 16.913,19.30145 19.5065,18.26776 2.5935,-1.03369 -2.0904,-9.58757 -10.4495,-21.9013 -8.3591,-12.31372 -20.4,-28.38729 -32.4922,-44.46036 -12.0921,-16.07307 -24.2355,-32.14564 -32.7211,-44.45736 -8.4856,-12.31172 -13.3069,-20.86259 -10.7265,-21.89227 2.5805,-1.02967 9.9871,6.49488 19.7939,18.32426 9.8067,11.82938 22.0051,27.96358 34.1923,44.15319 12.1871,16.1896 24.363,32.43462 34.2128,44.48563 9.8498,12.05101 17.3819,19.90802 20.3079,19.32162 2.9261,-0.58641 -1.6816,-9.03048 -10.1019,-21.41462 -8.4203,-12.38414 -20.6604,-28.70836 -32.9709,-45.05506 -12.3105,-16.34671 -24.6915,-32.71589 -33.3107,-45.18998 -8.6192,-12.47409 -13.4696,-21.05308 -10.6896,-21.81937 2.78,-0.7663 10.4071,7.03966 20.4576,19.17872 10.0504,12.13906 22.5158,28.61122 34.9966,45.1773 12.4809,16.56607 24.9771,33.22608 35.1795,45.74083 10.2024,12.51476 18.1193,20.88427 21.4713,20.86937 3.3521,-0.0149 -1.2137,-8.40065 -9.7983,-21.00038 -8.5846,-12.59973 -21.1963,-29.41344 -33.9081,-46.28426 -12.7118,-16.87083 -25.5238,-33.79876 -34.4187,-46.62694 -8.8949,-12.82818 -13.8648,-21.5566 -10.8609,-22.02839 3.0038,-0.4718 10.9649,7.76662 21.4311,20.44634 10.4661,12.67973 23.4285,29.80077 36.461,47.09423 13.0325,17.29346 26.1347,34.75933 36.9755,48.12871 10.8408,13.36939 19.4284,22.64229 23.4678,23.54981 4.0395,0.90752 -0.5081,-7.46028 -9.4384,-20.5298 -8.9304,-13.06953 -22.2535,-30.84078 -35.7376,-48.74016 -13.484,-17.89938 -27.1293,-35.9269 -36.5989,-49.50896 -9.4696,-13.58206 -14.754,-22.71867 -11.4804,-22.83622 3.2736,-0.11756 11.6823,8.70483 22.8214,22.26982 11.1391,13.56499 24.9993,31.87258 39.2001,50.7254 14.2009,18.85282 28.7415,38.25088 41.3434,53.99683 12.602,15.74595 23.2726,27.83977 29.7901,32.08413 6.5174,4.24436 2.3715,-3.61166 -7.3342,-17.76303 -9.7056,-14.15138 -24.9881,-34.5981 -40.7277,-55.53517 -15.7395,-20.93707 -31.9374,-42.36447 -43.3197,-58.47718 -11.3822,-16.11272 -17.9343,-26.91075 -14.3261,-26.58907 3.6081,0.32167 14.9406,12.97816 29.888,31.5883 14.9475,18.61013 33.4921,43.1739 51.5976,67.31014 18.1055,24.13623 35.7731,47.84493 49.1632,64.74492 13.3901,16.89999 22.5231,26.99126 23.5939,23.89264 1.0709,-3.09862 -7.0124,-16.30319 -19.5634,-34.30815 -12.551,-18.00496 -29.5816,-40.81031 -46.3327,-63.11049 -16.7511,-22.30019 -33.2215,-44.0952 -44.4998,-60.07948 -11.2784,-15.98428 -17.3503,-26.15783 -13.2696,-25.21509 4.0807,0.94274 14.2408,12.07367 27.1445,27.99068 12.9038,15.917 28.5391,36.62008 43.6292,56.7071 15.09,20.08702 29.6363,39.55799 40.4999,53.01078 10.8636,13.45279 18.0596,20.8874 18.4611,16.90171 0.4016,-3.98568 -6.431,-15.44244 -16.6412,-30.24429 -10.2102,-14.80186 -23.8045,-32.94881 -36.8721,-50.31487 -26.1352,-34.73213 -50.1762,-66.34074 -40.0139,-61.81799 5.0811,2.26137 13.6999,11.39162 23.6483,23.42325 9.9483,12.03163 21.2209,26.96464 31.6515,40.83154 10.4306,13.86689 20.0212,26.66766 26.6731,34.43482 6.6519,7.76715 10.3745,10.5007 9.0515,4.23312 -2.6459,-12.53515 -16.4203,-33.1453 -29.5904,-50.62167 -13.1701,-17.47637 -25.7193,-31.81895 -25.7193,-31.81895 m 44.3543,167.31051 c 0,0 -3.5008,-4.74352 -3.5008,-4.74352 M 736.76451,711.50083 c 0,0 9.4316,14.95294 22.7701,32.92331 13.3385,17.97038 30.58008,38.9582 46.24881,51.02796 15.66873,12.06977 -5.203,-16.1191 -31.61196,-51.69788 -26.40896,-35.57878 -58.38089,-78.54747 -64.68128,-96.03734 -6.3004,-17.48987 25.03104,24.54597 60.74922,72.62617 35.71819,48.08021 75.78885,102.20478 87.46397,108.8924 11.67511,6.68761 -28.17633,-47.1879 -71.96694,-106.14018 -21.89531,-29.47614 -44.7731,-60.22148 -62.61785,-85.30021 -17.84475,-25.07873 -30.65228,-44.49086 -32.37217,-51.3006 -3.43977,-13.61947 44.35375,50.37096 95.39852,119.04601 25.52238,34.33752 51.86069,69.8462 73.11822,97.41036 21.25752,27.56417 37.44193,47.18383 42.6975,49.74332 5.25557,2.55949 -5.65748,-14.4842 -25.09014,-41.86263 -19.43266,-27.37843 -47.39509,-65.09161 -76.21765,-103.8711 -28.82255,-38.77949 -58.50627,-78.6253 -81.27687,-110.269 -22.77061,-31.6437 -38.62003,-55.08528 -39.72194,-61.05633 -1.1019,-5.97104 13.64989,11.49434 36.65399,41.17639 23.0041,29.68206 54.24598,71.58078 86.14564,114.47642 31.89965,42.89564 64.4559,86.78818 90.22793,120.45788 25.77204,33.66971 44.77203,57.11656 49.6161,59.12081 4.84407,2.00424 -9.30303,-19.43123 -33.35397,-53.05484 -24.05094,-33.62362 -58.02024,-79.43537 -92.78455,-126.18368 -34.7643,-46.74831 -70.32473,-94.43318 -97.40448,-131.80303 -27.07976,-37.36984 -45.66654,-64.42466 -46.41404,-69.91288 -0.74751,-5.48822 17.09825,16.07524 44.50293,51.60625 27.40469,35.531 64.34892,85.02954 101.83499,135.41148 37.48606,50.38193 75.51274,101.64727 105.2734,140.71186 29.76066,39.06458 51.27223,65.92843 55.80146,67.50738 4.52922,1.57896 -8.51573,-18.37199 -30.06177,-48.63226 C 928.14563,806.2566 898.08625,765.687 868.63053,726.02866 839.17482,686.37031 810.32387,647.62322 791.32245,621.00795 c -19.00143,-26.61526 -28.13888,-41.09871 -18.15619,-32.22974 9.9827,8.86896 29.09058,32.21927 52.35788,62.33321 23.2673,30.11394 50.68846,66.9915 77.34348,102.91495 26.65502,35.92345 52.54467,70.89279 72.83034,97.19029 20.28567,26.29749 34.97444,43.92315 39.25004,45.15922 4.2757,1.23608 -6.2554,-15.31441 -24.05781,-40.53189 -17.80243,-25.21748 -42.88459,-59.10196 -67.68266,-92.53384 -49.59613,-66.86378 -98.07877,-131.91723 -84.11607,-122.20373 6.98135,4.85674 22.5881,23.547 42.29098,48.90982 19.70289,25.36282 43.49685,57.39819 66.8837,88.94517 46.7737,63.09394 91.89466,124.23427 100.02246,126.13332 8.1277,1.89904 -37.0835,-59.36501 -81.59944,-119.42775 -44.51589,-60.06274 -88.32821,-118.92416 -76.61307,-112.21987 11.71513,6.70429 55.49623,65.55707 98.14544,123.12365 42.64917,57.56657 84.17387,113.84694 92.05067,115.40638 7.8768,1.55945 -33.6816,-54.76868 -74.7744,-110.2448 -41.09291,-55.47613 -81.71496,-110.10025 -71.2953,-105.13279 10.41965,4.96746 51.02141,59.58709 90.783,113.28153 39.7615,53.69445 78.6878,106.4637 86.3484,107.73042 7.6607,1.26671 -31.2942,-51.54329 -69.9459,-103.74648 -38.6518,-52.20318 -76.99678,-103.79955 -67.52565,-100.10557 9.47113,3.69398 47.80165,55.28682 85.50155,106.2156 37.6999,50.92879 74.7726,101.19352 82.2643,102.23131 7.4917,1.03778 -29.5914,-49.24276 -66.4596,-99.05364 -36.8682,-49.81088 -73.5189,-99.15209 -64.6265,-96.23563 8.8923,2.91646 45.532,52.25478 81.6636,101.07898 36.1316,48.82421 71.7578,97.1343 79.1182,97.9943 7.3605,0.86 -28.2718,-47.45987 -63.7532,-95.40983 -35.4813,-47.94997 -70.8098,-95.53003 -62.3465,-93.1904 8.4633,2.33962 43.7831,49.91723 78.6853,97.09113 34.9022,47.1739 69.3888,93.9441 76.6496,94.6689 7.2607,0.72481 -27.2299,-46.05194 -61.6198,-92.53698 -34.3899,-46.48504 -68.6778,-92.67838 -60.5476,-90.78674 8.1303,1.89164 42.4112,48.08281 76.3459,93.95767 33.9347,45.87485 67.5246,91.43339 74.7126,92.05973 7.1881,0.62635 -26.4044,-44.93684 -59.9388,-90.27351 -33.5344,-45.33668 -67.0097,-90.44685 -59.1463,-88.91448 7.8633,1.53238 41.3329,46.64059 74.5155,91.50589 33.1827,44.8653 66.0796,89.48768 73.2193,90.04841 7.1396,0.56073 -25.759,-44.06511 -58.6376,-88.52177 -32.8787,-44.45665 -65.7365,-88.74412 -58.0922,-87.50664 7.6444,1.23747 40.4975,45.52309 73.1156,89.63072 32.618,44.10763 65.0017,88.03727 72.1154,88.56278 7.1136,0.52552 -25.2712,-43.40678 -57.6719,-87.22266 -32.4007,-43.81588 -64.8168,-87.51535 -57.3553,-86.52417 7.4615,0.99119 39.8737,44.68885 72.0977,88.26857 32.2241,43.57973 64.2606,87.04153 71.3698,87.56098 7.1092,0.51946 -24.9279,-42.94445 -57.0163,-86.3425 -32.0883,-43.39806 -64.2276,-86.73028 -56.9207,-85.94743 7.3069,0.78284 39.4429,44.11322 71.4351,87.38349 31.9922,43.27027 63.8409,86.48043 70.9669,87.02281 7.126,0.54237 -24.7234,-42.67031 -56.6595,-85.86653 -31.9361,-43.19622 -63.9589,-86.37598 -56.7816,-85.76776 7.1773,0.60822 39.1973,43.78607 71.1161,86.96065 31.9187,43.17457 63.7363,86.34589 70.9012,86.94103 7.1649,0.59515 -24.6444,-42.56685 -56.5739,-85.75773 -31.9295,-43.19089 -63.9792,-86.41066 -56.8973,-85.93105 7.0819,0.47961 39.1399,43.71193 71.1196,86.97237 31.9797,43.26043 63.881,86.54897 71.0435,87.14101 7.1626,0.59204 -24.7382,-42.69791 -56.7866,-86.053 -32.0485,-43.35509 -64.2448,-86.77531 -57.2727,-86.44382 6.9721,0.33149 39.1684,43.75261 71.3096,87.23444 32.1412,43.48183 64.227,87.02437 71.3764,87.59869 7.1495,0.57433 -24.9356,-42.96944 -57.1898,-86.60567 -32.2542,-43.63624 -64.6778,-87.36493 -57.8,-87.16044 6.8779,0.20449 39.302,43.93405 71.6869,87.74811 32.3849,43.81407 64.7304,87.71264 71.8564,88.25515 7.126,0.5425 -25.2188,-43.35717 -57.7485,-87.36843 -32.5296,-44.01127 -65.2447,-88.13413 -58.4472,-88.03802 6.7976,0.0961 39.5133,44.21981 72.1997,88.44375 32.6864,44.22394 65.343,88.54812 72.4355,89.04521 7.0925,0.49709 -25.5634,-43.82808 -58.4148,-88.27642 -32.8513,-44.44835 -65.8987,-89.01986 -59.1691,-89.01544 6.7295,0.004 39.7777,44.57671 72.8006,89.25759 33.023,44.68088 66.0201,89.47034 73.0696,89.90909 7.0495,0.43875 -25.947,-44.35162 -59.1445,-89.26971 -33.1974,-44.91809 -66.5965,-89.9639 -59.9238,-90.03604 6.6728,-0.0721 40.0729,44.9744 73.4466,90.13106 33.3737,45.15665 66.7204,90.4234 73.718,90.7917 6.9975,0.36829 -26.3486,-44.89931 -59.8967,-90.29267 -33.548,-45.39336 -67.2984,-90.91248 -60.6721,-91.04724 6.6264,-0.13475 40.3779,45.38504 74.0973,91.01017 33.7194,45.62514 67.406,91.35562 74.3434,91.64224 6.9374,0.28662 -26.7489,-45.44465 -60.6332,-91.29366 -33.8844,-45.84901 -67.9675,-91.81577 -61.378,-92.00014 6.5896,-0.18436 40.6739,45.78301 74.7159,91.84515 34.0421,46.06214 68.0416,92.21905 74.9113,92.41378 6.8697,0.19473 -27.1296,-45.96293 -61.319,-92.2247 -34.1894,-46.26176 -68.5693,-92.62762 -62.0074,-92.84927 6.5619,-0.22166 40.943,46.14474 75.2683,92.58996 34.3253,46.44523 68.5944,92.96929 75.3896,93.06295 6.7953,0.0937 -27.4739,-46.43113 -61.9209,-93.04111 -34.447,-46.60998 -69.0724,-93.30517 -62.5293,-93.55231 6.543,-0.24714 41.1694,46.44852 75.723,93.20208 34.5536,46.75356 69.034,93.56502 75.7488,93.54949 6.7148,-0.0155 -27.7485,-46.80408 -62.391,-93.67766 -34.6424,-46.87357 -69.4643,-93.83217 -63.0018,-94.18779 6.4626,-0.35562 41.2859,46.60339 76.0335,93.61835 34.7477,47.01497 69.4194,94.0859 76.0486,93.95412 6.6292,-0.13177 -28.0477,-47.20943 -62.8568,-94.30688 -34.809,-47.09744 -69.7502,-94.21467 -63.1804,-94.42557 6.5699,-0.2109 41.5119,46.90667 76.3284,94.01346 34.8165,47.10679 69.5074,94.2028 76.0465,93.94878 6.5392,-0.25403 -28.1512,-47.34832 -62.9228,-94.39373 -34.7717,-47.04542 -69.6244,-94.04196 -62.9415,-94.10049 6.6829,-0.0585 41.5358,46.9383 76.2122,93.85444 34.6764,46.91613 69.1767,93.75159 75.6221,93.37031 6.4454,-0.38127 -28.0546,-47.21469 -62.5883,-93.93684 -34.5338,-46.72215 -69.1007,-93.33303 -62.3271,-93.26921 6.7736,0.0638 41.3402,46.67491 75.6855,93.14192 34.3453,46.467 68.47,92.78991 74.8187,92.27734 6.3487,-0.51257 -27.776,-46.83319 -61.8912,-92.98778 -34.1153,-46.15459 -68.2203,-92.14316 -61.3817,-91.99162 6.8387,0.15154 40.9439,46.14143 74.789,91.93053 33.8452,45.7891 67.4313,91.3774 73.6775,90.72577 6.2462,-0.65163 -27.3402,-46.23746 -60.8786,-91.61011 -33.5384,-45.37265 -67.0278,-90.53212 -60.1524,-90.33101 6.8754,0.20111 40.3628,45.35933 73.5569,90.26599 33.194,44.90665 66.0959,89.56175 72.2289,88.75661 6.133,-0.80513 -26.7694,-45.45767 -59.5893,-89.85632 -32.8198,-44.39866 -65.5558,-88.54342 -58.6735,-88.33298 6.8823,0.21043 39.6164,44.35405 72.0353,88.21023 32.419,43.85617 64.5242,87.42491 70.5583,86.48559 6.0341,-0.93932 -26.0721,-44.50553 -58.0716,-87.79215 -31.9994,-43.28661 -63.8908,-86.29363 -57.0317,-86.11454 6.859,0.17909 38.7486,43.18508 70.3126,85.88225 31.5639,42.69718 62.8037,85.08554 68.7516,84.02939 5.9478,-1.05616 -25.3099,-43.46464 -56.4303,-85.55949 -31.1204,-42.09485 -62.1021,-83.87606 -55.2287,-83.67766 6.8734,0.1984 37.8533,41.97867 68.4908,83.42001 30.6375,41.44134 60.9343,82.54374 66.8074,81.38638 5.8731,-1.15737 -24.4247,-42.25701 -54.6193,-83.09661 -30.1945,-40.8396 -60.2846,-81.41914 -53.6452,-81.53631 6.6394,-0.11716 36.7285,40.46153 66.5226,80.75844 29.7942,40.2969 59.2945,80.31202 65.1034,79.06769 5.8089,-1.24432 -23.6947,-41.25954 -53.1345,-81.07434 -29.4398,-39.8148 -58.815,-79.42919 -52.417,-79.87185 6.398,-0.44267 35.7731,39.17093 64.9037,78.56566 29.1305,39.39473 58.0175,78.57059 63.7717,77.25246 5.7543,-1.31814 -23.1358,-40.49413 -52.005,-79.53216 -28.8691,-39.03803 -57.7167,-77.9381 -51.5587,-78.70438 6.158,-0.76628 35.0063,38.13304 63.6613,76.87902 28.6551,38.74597 57.1175,77.3386 62.8262,75.95893 5.7087,-1.37967 -22.7569,-39.97245 -51.2472,-78.49222 -28.4904,-38.51978 -57.0052,-76.96655 -51.0856,-78.0542 5.9196,-1.08765 34.4364,37.35911 62.8114,75.71968 28.3749,38.36058 56.6084,76.63497 62.278,75.20258 5.6696,-1.43239 -22.567,-39.70694 -50.8763,-77.97503 -28.3094,-38.26808 -56.6915,-76.5297 -51.0087,-77.93622 5.6829,-1.40652 34.065,36.85117 62.3547,75.08878 28.2897,38.23761 56.4871,76.45513 62.1163,74.96829 5.6292,-1.48684 -22.5703,-39.70304 -50.8785,-77.96159 -28.3082,-38.25856 -56.7254,-76.55946 -51.228,-78.2157 5.4973,-1.65624 33.9198,36.64722 62.283,74.97555 28.3631,38.32833 56.6668,76.68153 62.2441,75.12475 5.5774,-1.55677 -22.7305,-39.9115 -51.1829,-78.35602 -28.4524,-38.44451 -57.0497,-76.97881 -51.7454,-78.89474 5.3043,-1.91592 33.9075,36.62079 62.478,75.21986 28.5706,38.59907 57.1083,77.2605 62.6044,75.59404 5.4961,-1.66646 -23.0457,-40.32918 -51.7571,-79.11357 -28.7113,-38.78438 -57.5927,-77.69045 -52.4649,-79.84361 5.1278,-2.15315 34.0154,36.75512 62.8856,75.74841 28.8702,38.99328 57.7227,78.07158 63.1102,76.25848 5.3876,-1.81311 -23.4692,-40.89249 -52.5105,-80.11148 -29.0414,-39.219 -58.2678,-78.57761 -53.3028,-80.94918 4.9651,-2.37157 34.1982,36.98903 63.4191,76.44417 29.2209,39.45515 58.4292,79.00484 63.6832,77.01145 5.254,-1.9934 -23.9589,-41.544 -53.3624,-81.23978 -29.4036,-39.69578 -58.9985,-79.53673 -54.1845,-82.11083 4.814,-2.57409 34.4071,37.25685 63.9956,77.19528 29.5885,39.93843 59.172,79.98436 64.3142,77.84026 5.1423,-2.14409 -24.446,-42.1908 -54.2343,-82.39226 -29.7882,-40.20147 -59.777,-80.55768 -55.1042,-83.32079 4.6728,-2.76311 34.668,37.59345 64.6564,78.05744 29.9884,40.46398 59.9695,81.03538 64.9713,78.70194 5.0018,-2.33343 -24.9845,-42.9055 -55.1709,-83.62936 -30.1863,-40.72386 -60.5732,-81.59951 -56.0332,-84.54013 4.5399,-2.94062 34.9338,37.93546 65.3154,78.91445 30.3815,40.97899 60.7502,82.06088 65.6068,79.53187 4.8566,-2.52901 -25.5177,-43.61147 -56.0892,-84.83875 -30.5714,-41.22729 -61.3404,-82.59939 -56.9262,-85.70771 4.4143,-3.10832 35.1909,38.26431 65.9464,79.73097 30.7554,41.46666 61.4895,83.02735 66.1951,80.29517 4.7056,-2.73218 -26.0345,-44.29335 -56.9656,-85.9884 -30.9312,-41.69504 -62.054,-83.52395 -57.7593,-86.79161 4.2947,-3.26766 35.4254,38.56187 66.5233,80.47221 31.0979,41.91035 62.1626,83.90151 66.7104,80.95714 4.5479,-2.94438 -26.5215,-44.93322 -57.7747,-87.04367 -31.2531,-42.11046 -62.6907,-84.34254 -58.5187,-87.7734 4.172,-3.43086 35.618,38.80193 67.0184,81.10065 31.4004,42.29871 62.7548,84.66335 67.1368,81.49617 4.382,-3.16718 -26.9827,-45.53621 -58.5067,-87.99158 -31.524,-42.45537 -63.2076,-84.99706 -59.0977,-88.50955 4.11,-3.51249 35.8023,39.03004 67.4192,81.6001 31.6169,42.57006 63.1584,85.16766 67.3651,81.76532 4.2067,-3.40234 -27.3425,-46.0001 -59.0197,-88.64093 -31.6773,-42.64084 -63.4829,-85.32475 -59.4206,-88.89941 4.0623,-3.57466 35.8602,39.08798 67.5675,81.75841 31.7073,42.67044 63.3241,85.34865 67.4249,81.80513 4.1009,-3.54353 -27.524,-46.2219 -59.2621,-88.92298 -31.7382,-42.70107 -63.5897,-85.42486 -59.5733,-89.05921 4.0164,-3.63435 35.8792,39.09352 67.6283,81.7982 31.749,42.70467 63.3844,85.38616 67.3478,81.65904 3.9634,-3.72711 -27.6806,-46.40875 -59.4143,-89.0815 -31.7337,-42.67275 -63.5571,-85.3366 -59.5847,-89.02813 3.9723,-3.69153 35.8074,38.97698 67.4927,81.57331 31.6853,42.59633 63.2211,85.12046 66.9952,81.14017 3.7741,-3.9803 -27.771,-46.50459 -59.3679,-88.97036 -31.597,-42.46577 -63.2457,-84.87301 -59.3156,-88.61919 3.9301,-3.74618 35.5912,38.66676 67.0515,80.93728 31.4603,42.27052 62.7205,84.39863 66.2438,80.08277 3.5233,-4.31586 -27.7469,-46.44412 -59.0143,-88.44299 -31.2675,-41.99887 -62.5316,-83.86835 -58.6419,-87.66663 3.8897,-3.79829 35.1674,38.07862 66.1746,79.7162 31.0072,41.63758 61.7452,83.03582 64.9398,78.2802 3.1947,-4.75562 -27.5543,-46.15402 -58.2243,-87.32547 -30.67,-41.17146 -61.26,-82.11595 -57.4089,-85.96376 3.8512,-3.84781 34.4554,37.10537 64.6958,77.68814 30.2403,40.58276 60.1185,80.79511 62.8842,75.46564 2.7656,-5.32948 -27.1248,-45.54199 -56.8325,-85.39581 -29.7077,-39.85383 -59.2312,-79.34897 -55.4167,-83.2437 3.8145,-3.89473 33.3437,35.59828 62.4427,74.62363 29.0991,39.02536 57.7701,77.58306 60.2084,71.81771 2.4383,-5.76535 -26.2455,-44.32321 -54.6662,-82.4245 -28.4207,-38.10129 -56.5766,-75.746 -52.7969,-79.68504 3.7797,-3.93904 31.9413,33.70414 59.6113,70.7873 27.67,37.08315 54.8509,73.6063 56.9776,67.42719 2.1267,-6.1791 -25.0673,-42.70241 -51.9202,-78.67612 -26.8529,-35.97371 -53.3629,-71.39782 -49.616,-75.37852 3.7469,-3.98071 30.261,31.44042 56.2291,66.21746 25.968,34.77705 51.3928,68.91 53.2338,62.35294 1.8409,-6.55706 -23.597,-40.69018 -48.6211,-74.18897 -25.0241,-33.49878 -49.6325,-66.36323 -45.9165,-70.38295 3.716,-4.01971 28.3267,28.84009 52.3484,60.98628 24.0217,32.14619 47.4572,63.57877 49.057,56.70461 1.5998,-6.87416 -21.8485,-38.30691 -44.8206,-69.03513 -22.9722,-30.72821 -45.4663,-60.75191 -41.7792,-64.80795 3.687,-4.05605 26.1817,25.96131 48.0603,55.21686 21.8786,29.25555 43.144,57.74929 44.5676,50.646 1.4237,-7.10329 -19.8537,-35.59719 -40.6086,-63.3377 -20.755,-27.7405 -40.9857,-54.7276 -37.3256,-58.81728 3.6601,-4.08967 23.9035,22.90812 43.5103,49.10502 19.6068,26.19691 38.5796,51.59292 39.8559,44.2997 1.2763,-7.29322 -17.7075,-32.68941 -36.1298,-57.29244 -18.4224,-24.60303 -36.2816,-48.4129 -32.6465,-52.53349 3.6351,-4.12059 21.4923,19.68104 38.6763,42.62216 17.1839,22.94111 33.6972,45.02172 34.7662,37.45911 1.0691,-7.56262 -15.4542,-29.6434 -31.362,-50.87072 -15.9078,-21.22732 -31.1987,-41.60118 -27.5865,-45.74994 3.6121,-4.14877 18.9065,16.22496 33.496,35.68634 14.5896,19.46138 28.4769,38.01041 29.3633,30.21222 0.8865,-7.79818 -13.0095,-26.34738 -26.2424,-43.99058 -13.233,-17.6432 -25.8019,-34.3804 -22.2107,-38.55459 3.5913,-4.17419 16.1628,12.56269 27.9972,28.33556 11.8345,15.77286 22.934,30.58171 23.64,22.55143 1.4118,-16.06055 -44.4552,-59.23607 -37.3105,-67.62976 7.1447,-8.39369 38.7209,51.56704 39.7807,35.05594 1.0598,-16.5111 -32.6365,-43.45033 -25.5254,-51.88375 7.111,-8.43342 26.583,35.36943 27.3058,18.42925 0.7227,-16.94018 -20.1953,-26.86338 -13.1137,-35.33092 7.0817,-8.46755 13.8333,18.38635 14.2407,1.04745 0.4073,-17.3389 -3.6316,-13.76372 -3.6316,-13.76372"
       style="opacity:0.66822426;fill:none;stroke:#000000;stroke-width:4;stroke-linecap:butt;stroke-linejoin:miter;stroke-miterlimit:4;stroke-opacity:1;stroke-dasharray:none;stroke-dashoffset:0" />
  </g>
</svg>
