<?xml version="1.0"?>
<svg xmlns:rdf="http://www.w3.org/1999/02/22-rdf-syntax-ns#" xmlns="http://www.w3.org/2000/svg" xmlns:cc="http://web.resource.org/cc/" xmlns:xlink="http://www.w3.org/1999/xlink" xmlns:dc="http://purl.org/dc/elements/1.1/" id="svg23820" viewBox="0 0 271.48 448.2" version="1.0">
  <g id="layer1" transform="translate(-214.4 -307.76)">
    <path id="rect24175" d="m336.97 389.3l-0.35 0.5c-7.9-0.4-19.22 2.39-27.22 6.93-21.1 11.99-21.51 39.52-19 61.5 1.64 14.33 31.95 25.82 11.66 34.41-14.9 6.3-17.81 29.3-32.31 28.34-15.14-0.99-35.34-12.67-46.53 2.97-13.36 18.66 12.36 48.61 31.81 37.81 17.93-9.94 21.73 8.3 29.56 19.44 13.4 19.07-6.88 28.17-14.91 41.1-10.76 17.34-12.08 37.4-13.75 56.93-1.77 20.77-0.99 47.1 18.75 59.5 24.65 15.48 54.59 13.5 82.29 12.44 24.52-0.94 55.49-6.34 66.53-30.06 6.17-13.27 5.77-36.81 4.4-52.06-1.65-18.47-2.31-33.19-15.34-46.69-10.85-11.24-28.94-19.94-22.16-36.31 5.26-12.71 15.81-26.48 32.85-20.54 19.41 6.78 36.48-20.08 33.4-35.5-3.45-17.33-30.16-8.5-44.28-7.5-18.49 1.32-18.92-23.56-35.5-29.12-15-5.03-5.24-13.88 0.94-23 9.81-14.47 10.08-36.12 2.84-53.22-7.57-17.89-24.69-28.03-43.68-27.87z" fill="#fff"/>
    <path id="path2160" d="m336.58 384.6c-20.41-1.02-41.6 9.18-49.19 28.24-6.61 16.61-7.09 38.08 1.1 54.6 4.8 9.69 21.44 19.15 4.21 25.39-14.02 5.07-15.37 33.18-33.41 20.63-14.21-9.87-38.74-3.86-43.93 14.85-6.52 23.47 21.65 50.19 43.7 36.59 14.69-9.06 16.51 14.04 23.66 22.57 10.46 12.49-16.9 25.76-21.85 41-7.02 21.59-12.51 44.64-10.47 67.25 1.52 16.89 4.63 35.75 20.39 46.06 19.64 12.85 44.38 13.51 67.12 14.09 15.99 0.4 32.08-0.33 47.89-3.75 19.24-4.16 36.92-16.24 43.12-35.51 6.9-21.44 5.98-44.54 1.97-65.88-6.17-32.78-30.45-39.89-36.87-56.79-4.2-11.08 12.74-28.95 32.23-23.54 18.89 5.23 33.13-16.81 35.5-33.93 2.86-20.59-23.44-27.64-37.84-21.55-19.5 8.23-23.65-11.76-35.03-20.26-8.03-6-20.09-8.81-8.74-19.95 20.21-19.82 12.89-60.45-9.07-79.37-9.28-8-22.17-11.33-34.24-10.55m0.12 4.51c19-0.15 36.12 9.98 43.7 27.87 7.24 17.1 6.97 38.75-2.84 53.22-6.18 9.12-15.95 17.96-0.95 22.99 16.58 5.56 17.01 30.47 35.51 29.15 14.11-1.01 40.83-9.86 44.28 7.48 3.08 15.41-13.97 42.29-33.39 35.51-17.04-5.95-27.6 7.82-32.86 20.52-6.78 16.38 11.31 25.07 22.16 36.31 13.03 13.51 13.69 28.22 15.35 46.69 1.36 15.26 1.75 38.8-4.42 52.07-11.03 23.72-41.99 29.13-66.52 30.07-27.69 1.06-57.65 3.03-82.29-12.45-19.74-12.4-20.52-38.72-18.75-59.49 1.67-19.53 3-39.6 13.76-56.95 8.02-12.93 28.31-22.02 14.91-41.09-7.83-11.14-11.64-29.37-29.56-19.42-19.46 10.79-45.16-19.17-31.81-37.83 11.2-15.64 31.39-3.96 46.52-2.97 14.51 0.95 17.43-22.04 32.33-28.35 20.28-8.58-10.03-20.06-11.67-34.39-2.52-21.98-2.12-49.54 18.98-61.52 8-4.54 19.34-7.31 27.24-6.91"/>
    <g id="g5216" stroke="#000" stroke-width="5" transform="translate(95.785 165.68)">
      <path id="rect3190" d="m193.7 151.99c-6.6-13.15 23.93-4.78 47.86-4.78s53.04-7.23 47.86 4.78c-10.74 24.88 0 93.32 0 93.32h-95.72s12.28-68.9 0-93.32z"/>
      <path id="path4162" d="m318.7 240.74c-35.95 5.85-34.56 12.85-77.14 12.85s-52.43-6.24-77.14-12.85c-10.38-2.78-1.74-6 14.82-8.52s41.03-0.34 62.32-0.34 44.87-1.49 60.98 1.38c16.11 2.86 24.75 6.08 16.16 7.48z"/>
    </g>
    <path id="path5428" d="m312.03 434.57c-1.17 0.01-2.37 0.23-3.41 0.81-0.54 0.79-0.8 1.75-1.47 2.46-0.85 2.13-2.24 2.63-1.17 5.23 0.7 1.84 1.22 4.18 3.16 4.93 2 0.69 4.11 1.18 6.23 1.03 1.88-0.84 3.18-2.78 3.31-4.83 0.42-1.7 0.64-3.45 0.72-5.2-0.35-0.91-1.16-1.61-2.1-1.85m-8.34 6.59c0.7-1.78 1.26-1.01 2.24-0.89 0.97 0.11 2.03 1.88 1.84 2.81-0.74 1.33-5.01 0.43-4.08-1.92z"/>
    <path id="path5690" d="m348.72 471.32c-0.8-2.63 2.64-5.43 4.6-3.42 1.57 1.69 0.79 5.37-1.64 5.43-1.07 0-3.37-1.21-2.81-2.61"/>
    <path id="path5692" d="m344.82 475.84c-0.49 1.26-3.47 1.04-4.2-1.66 0.01-3.14 0.91-1.88 1.68-2.45 0.86-0.63 2.04-0.59 3.08-0.25 0.8 0.64 1.1 3.09-0.56 4.36z"/>
    <path id="path5694" d="m333.11 477.32c-0.51-0.17-1.9-0.85-1.13-2.66-0.53-2.55 3.28-4.29 4.53-2.02 1.64 1.65 1.07 3.22-0.81 4.83-1.57-0.06-2.01 0.98-2.59-0.15z"/>
    <path id="path5700" d="m323.99 476.3c-0.01-1.41-0.33 0.34-0.47-2.78s4.63-3.73 5.49-0.92c0.73 2.07-0.98 5-3.16 4.26-1.25-0.37-1.16 0.84-1.86-0.56z"/>
    <path id="path5702" d="m315.1 470.27c-0.2-2.57 3.55-3.88 4.77-1.67 1.76 1.56 0.39 5.19-1.86 5.02-2.42 1.01-2.89-0.01-3.45-1.38"/>
    <path id="path5732" d="m289.24 468.16c6.4 9.42 7.93 10.34 14.84 14.38 4.92 2.08 10.07 4.19 16.95 5.66 12.32 2.51 33.1 0.95 44.64-3.61 6.41-2.31 8.48-5.13 13.32-7.64 11.14 1.02 12.8 15.74-1.52 21.05-5.01 4.99-14.41 10.31-29.62 13.41-9.73 2.04-21.14 1.74-28.36 0.03-17.68-2.84-25.86-8.97-29.24-15.22-2.75-4.98-3.95-10.14-5.7-15.23-0.43-4.17 1.35-8.51 4.69-12.83z" fill="#fe0000"/>
    <path id="path6712" d="m296.8 506.87c-0.92-0.25-1.11 3.77-1.66 5.96-1.68 5.64-3.23 14.88-3.5 23.07-0.46 12.77 0.8 21.13 2.47 25.87 2.11 8 3.32 21.76 6.59 22.78 0.13 0.28 0.76 0.46 1.63 0.57-0.5-1.31-1.04-2.74-1.6-4.35-1.61-4.67-3.28-9.96-3.34-13.47-0.02-0.4 0.13-0.8 0.41-1.09 0.27-0.29 0.66-0.46 1.06-0.47s0.8 0.16 1.09 0.44 0.44 0.66 0.44 1.06c0.04 2.49 1.6 7.95 3.19 12.53 0.7 2.03 1.37 3.84 1.93 5.31 0.73-0.08 1.45-0.23 2.16-0.43-0.59-1.55-1.37-3.62-2.16-5.88-1.61-4.67-3.28-9.96-3.34-13.47-0.02-0.39 0.14-0.8 0.41-1.09s0.63-0.45 1.03-0.47c0.41-0.02 0.8 0.12 1.09 0.41 0.3 0.28 0.47 0.68 0.47 1.09 0.04 2.49 1.57 7.95 3.16 12.53 0.74 2.14 1.48 4.06 2.06 5.56 0.92-0.72 1.5-1.67 1.47-2.93v-0.03c-0.36-0.98-0.74-2.03-1.13-3.13-1.61-4.67-3.28-9.96-3.34-13.47-0.02-0.77 0.55-1.43 1.31-1.53 0.43-0.05 0.87 0.09 1.19 0.38 0.32 0.28 0.5 0.69 0.5 1.12 0.04 2.49 1.6 7.95 3.19 12.53 0.2 0.59 0.39 1.1 0.59 1.66 3.04-2.55 0.29-8.53-0.59-12.91-0.55-4.27-1.59-6.32-1.85-11.84-0.66-9.99 0.85-25.41 3.52-35.09 0.51-0.93 1.91-4.01 1.08-4.07-1.48-0.74-4.04-1.12-8.47-2.62-3.88-1.32-8.66-3.83-11.06-4.53z" fill="#fe0000"/>
    <path id="path6716" d="m332.43 449.06c-6.4 2.69-10.25 4.74-15.22 8.06-4.96 3.33-12.2 6.63 0.53 5.25 12.76-1.39 5.4-0.49 15.04-2.31 9.58-1.8 5.94-13.65-0.35-11z" fill="#f00" fill-rule="evenodd"/>
    <path id="path8668" d="m289.38 387.7c-8.99 15.49 33.79 12.36 49.53 14.01 8.34 0.64 59.16 0.87 46.26-13.47-1.67-1-35.15 4.89-47.63 5.65-31.05-0.54-45.47-7.57-48.16-6.19z" fill="#f00" fill-rule="evenodd"/>
    <path id="path15646" stroke="#000" stroke-width="4.8263" d="m334.29 555.55c1.77 0.96 4.86 5.2 1.88 7.34-2.73 1.54-6.62-2-4.94-4.81 0.64-1.21 2.09-3.05 3.06-2.53z"/>
    <path id="path15648" stroke="#000" stroke-width="4.8263" d="m336.29 518.71c3.19 0.32 4.38 5.28 1.62 6.95-2.14 2.65-7.27-0.5-5.36-3.56 0.71-1.58 2.05-2.91 3.74-3.39z"/>
    <path id="path15650" stroke="#000" stroke-width="4.8263" d="m336.29 575.65c2.4-1.08 4.91 5.17 2.16 7.1-1.76 2.32-6.67 0.03-5.41-2.73 0.75-1.65 1.87-3.75 3.25-4.37z"/>
    <path id="path15652" stroke="#000" stroke-width="4.8263" d="m334.29 537.11c1.86-0.17 5.11 5.07 2.5 7.43-2.34 2.13-7.61-1.11-5.09-3.91 0.9-1.13 1.58-3.43 2.59-3.52z"/>
    <path id="path16822" d="m357.49 435.49c-1.08 0.53-0.18 0-3.16 0.68-2.98 0.67-5.29 3.54-5.32 6.59-0.51 1.94 1.02 4.7 3.01 4.55 1.18 0.14 1.77 1.02 3.04 1.33 0.75 0.87 2.24 0.94 3.07 0.15 1.18-0.65 2.26-1.46 3.52-1.96 1.06-0.95 1.12-2.38 1.37-3.52 0.97-1.16 0.12-3.33-1.36-5.21-1.55-1.95-3.09-3.15-4.17-2.61zm-4.44 8.8c-0.94-2.06 0.02-2.52 0.92-2.95s2.95 1.54 2.7 2.51c-1.69 0.78-2.69 2.5-3.62 0.44z"/>
    <path id="path18634" d="m284.56 312.75c-4.97 5.11 16.55 5.81 24.39 7.06 4.15 0.58 38.18 2.1 45.35-2.46-7.59-0.78-23.46 3.46-45.81-0.37-15.53-1.5-22.55-4.6-23.93-4.23z" fill="#fff" fill-rule="evenodd"/>
    <path id="path19610" d="m415.15 565.57c-4.09 16.01-4.19 22.14-10.02 34.26-6.59 13.02-22.75 35.3-16.18 36.65 9.78-0.16 7.48-3.23 10.59-9.59 6.35-8.76 13.21-25.89 17.41-43.92 4.9-14.16 2.58-3.86 4.49-16.39-3.01-1.71 5.5 1.16-6.29-1.01z" fill-rule="evenodd"/>
    <g id="g21876" transform="translate(373.01 26.517)">
      <path id="path20700" d="m58.594 335.06c-0.504 0.02-1.002 0.12-1.5 0.22 0.083 0.29 0.155 0.55 0.312 1 1.401 4 4.093 8.02 3.469 12.91-0.694 5.44-1.816 10.9-0.594 15.62 2.9 11.19 0.525 31.79-1.419 43.21h-1.562c2.451-12.08 3.252-27.56 1.45-42.96-0.605-5.16-0.125-10.58 0.562-15.97 0.569-4.45-1.946-8.26-3.406-12.43-0.129-0.37-0.201-0.7-0.281-0.97-4.487 1.63-8.099 6.28-6.906 11.15-0.083 10.2-1.038 20.43 0.187 30.6 3.287 10.53 1.356 15.58 3.656 25.31-0.568 4.91-2.099 10.06-0.343 14.91 5.119 3.63 8.188 7.93 14.156 7.06 6.792 1.06 7.701 2.8 14.813 2.56 5.625-3.11 8.588-9.78 8.218-16.06 4.129-19.39 18.374-32.62 23.474-51.72-0.09-3.17-1.25-6.07-3.07-8.53-1.75 1.67-3.3 3.47-4.06 5.84-1.66 5.17-2.96 10.68-6.281 14.69-7.152 8.63-13.971 31.36-18.719 41.91l-0.469-0.22c-0.032 0.07-0.061 0.14-0.093 0.22l-0.907-0.44c4.685-10.41 11.469-33.19 18.844-42.09 3.105-3.76 4.445-9.16 6.125-14.38 0.9-2.78 2.71-4.81 4.66-6.62-2.67-3.07-6.39-5.33-10.222-6.41-1.082-0.58-2.197-1.14-3.313-1.69-0.58 1.29-1.048 2.68-1.375 4.25-1.555 7.48-2.772 15.45-5.875 21.25-6.687 12.49-9.311 30.89-13.75 46.16l-0.469-0.35c-0.032 0.12-0.061 0.23-0.094 0.35l-0.874-0.63c4.38-15.06 7.01-33.58 13.906-46.47 2.907-5.43 4.148-13.25 5.718-20.81 0.343-1.64 0.828-3.11 1.407-4.44-4.063-1.93-8.326-3.61-12.688-4.68 0.596 4.54 1.685 9.29 0.157 14.37-1.954 6.5-4.317 12.93-4.219 18.91 0.232 14.18-5.597 29.22-8.438 43.09l-0.531-0.09c-0.007 0.03-0.025 0.06-0.031 0.09l-1-0.19c2.879-14.06 8.631-29.02 8.406-42.78-0.104-6.38 2.347-12.91 4.281-19.34 1.463-4.87 0.285-9.58-0.281-14.44-2.988-0.62-5.996-0.93-9.031-0.84 0.923 3.96 1.958 8.09 1 12.65-1.395 6.64-3.199 13.27-2.594 19.22 1.435 14.11-3.097 29.56-4.75 43.63l-0.562-0.07c-0.003 0.03 0.002 0.05 0 0.07l-1-0.13c1.675-14.25 6.141-29.62 4.75-43.31-0.646-6.35 1.243-13.05 2.624-19.63 0.898-4.27-0.16-8.25-1.093-12.34-1.906 0.15-3.82 0.45-5.719 0.97-1.454-0.89-3.06-1.25-4.656-1.19z"/>
      <path id="path21874" d="m43.497 445.33c-0.41-0.05 1.349-0.85 0.967-0.93 0.15-0.11 0.281-0.2 0.537-0.36 2.274-1.45 1.063-1.09 1.914-3.06 0.947-2.19 1.192-2.64 3.519-4.38 5.519-4.13 5.388-12.39 6.974-17.03l-0.464-0.04-0.361-0.04-0.464-0.05c-1.352 4.93-1.089 11.06-6.878 16.93-1.943 1.97-3.06 4.13-3.998 6.3-0.776 1.79 0.369 0.21-1.999 1.71-0.21 0.14-0.36 0.26-0.503 0.36-3.244-1.03-5.995-2.09-3.65-3.89 2.78-4 1.638-6.3 5.489-10.17 5.654-3.84 1.543-5.98 6.16-9.59 0.904-1.97 1.081-4.12 3.882-5.86 5.238-0.98 8.969-2.4 13.649-1.54 5.899 0.17 7.133-0.43 12.933 0.27 3.769 1.7 4.35 4.57 2.291 6.99-2.015 7.95 6.041 14.35 4.904 22.26-0.957 1.24 0.493 2.27-1.696 3.08-0.979-0.81-1.751-1.64-1.717-2.64 0.072-2.16 0.541-4.43-1.077-6.29-3.486-3.99-5.975-13.47-6.943-18.01l-0.447 0.05c-0.007-0.03-0.01-0.07-0.017-0.1l-0.869 0.1c0.955 4.47 3.398 13.97 6.993 18.09 1.516 1.74 1.108 3.97 1.035 6.15-0.039 1.17 0.89 2.12 1.989 3-3.053 0.97-6.755 1.53-10.218 1.62-1.053 0.14-2.129 0.26-3.204 0.38-0.118-0.56-0.116-1.14 0.054-1.78 0.807-3.06 2.032-6.29 1.092-8.82-2.024-5.47-2.262-12.89-1.657-19.25l-0.482 0.09c0.004-0.04 0.014-0.09 0.018-0.14l-0.896 0.17c-0.597 6.27-0.389 13.75 1.699 19.38 0.88 2.38-0.284 5.55-1.099 8.64-0.178 0.67-0.186 1.29-0.081 1.86-3.89 0.4-7.161 0.69-11.06 0.74 1.761-1.73 3.986-3.49 4.146-5.61 0.205-2.72 0.052-5.43 1.804-7.77 4.154-5.53-0.38-11.91 1.154-17.59h-0.464c0.003-0.02-0.003-0.03 0-0.04l-0.877-0.02c-1.555 5.75 2.936 12.11-1.093 17.47-1.869 2.49-1.671 5.25-1.874 7.94-0.153 2.03-2.44 3.77-4.266 5.62-2.64-0.01-4.403-0.95-6.881-1.25 1.869-1.47 3.074-2.2 3.558-4.06 0.705-2.72 1.069-5.47 3.231-7.75 5.126-5.4 1.777-11.83 4.344-17.48l-0.481-0.02c0.003-0.01 0.013-0.02 0.017-0.02l-0.86-0.04c-2.601 5.72 0.715 12.12-4.257 17.35-2.307 2.43-2.62 5.22-3.318 7.91-0.454 1.75-1.548 2.24-3.459 3.75-1.529-0.22-2.222-1.21-3.642-1.58-1.449 0.22-1.803-0.85-3.101-1.01z"/>
    </g>
    <path id="path21880" d="m431.43 475.91c-4.42 32.94 2.58 30.06-6.64 55.02 0.54 2.59 2.43 5.63 6.65 0.2 6.55-19.71 2.67-31.33 6.29-55.55 0.34-1.79-5.57-0.24-6.3 0.33z" fill-rule="evenodd"/>
  </g>
  <metadata>
    <rdf:RDF>
      <cc:Work>
        <dc:format>image/svg+xml</dc:format>
        <dc:type rdf:resource="http://purl.org/dc/dcmitype/StillImage"/>
        <cc:license rdf:resource="http://creativecommons.org/licenses/publicdomain/"/>
        <dc:publisher>
          <cc:Agent rdf:about="http://openclipart.org/">
            <dc:title>Openclipart</dc:title>
          </cc:Agent>
        </dc:publisher>
      </cc:Work>
      <cc:License rdf:about="http://creativecommons.org/licenses/publicdomain/">
        <cc:permits rdf:resource="http://creativecommons.org/ns#Reproduction"/>
        <cc:permits rdf:resource="http://creativecommons.org/ns#Distribution"/>
        <cc:permits rdf:resource="http://creativecommons.org/ns#DerivativeWorks"/>
      </cc:License>
    </rdf:RDF>
  </metadata>
</svg>
