<?xml version="1.0" encoding="UTF-8" standalone="no"?>
<!-- Created with Inkscape (http://www.inkscape.org/) -->

<svg
   xmlns:dc="http://purl.org/dc/elements/1.1/"
   xmlns:cc="http://creativecommons.org/ns#"
   xmlns:rdf="http://www.w3.org/1999/02/22-rdf-syntax-ns#"
   xmlns:svg="http://www.w3.org/2000/svg"
   xmlns="http://www.w3.org/2000/svg"
   xmlns:sodipodi="http://sodipodi.sourceforge.net/DTD/sodipodi-0.dtd"
   xmlns:inkscape="http://www.inkscape.org/namespaces/inkscape"
   width="3200"
   height="1000"
   id="svg10075"
   sodipodi:version="0.32"
   inkscape:version="0.46+devel r21303"
   sodipodi:docname="New document 2"
   inkscape:output_extension="org.inkscape.output.svg.inkscape"
   version="1.0">
  <sodipodi:namedview
     id="base"
     pagecolor="#ffffff"
     bordercolor="#666666"
     borderopacity="1.0"
     inkscape:pageopacity="0.0"
     inkscape:pageshadow="2"
     inkscape:zoom="0.5"
     inkscape:cx="587.00168"
     inkscape:cy="486.80014"
     inkscape:document-units="px"
     inkscape:current-layer="layer1"
     showgrid="false"
     inkscape:window-width="1280"
     inkscape:window-height="753"
     inkscape:window-x="-4"
     inkscape:window-y="-4" />
  <defs
     id="defs10077">
    <inkscape:perspective
       id="perspective10083"
       inkscape:persp3d-origin="372.04724 : 350.78739 : 1"
       inkscape:vp_z="744.09448 : 526.18109 : 1"
       inkscape:vp_y="0 : 1000 : 0"
       inkscape:vp_x="0 : 526.18109 : 1"
       sodipodi:type="inkscape:persp3d" />
    <inkscape:perspective
       sodipodi:type="inkscape:persp3d"
       inkscape:vp_x="0 : 0.5 : 1"
       inkscape:vp_y="0 : 1000 : 0"
       inkscape:vp_z="1 : 0.5 : 1"
       inkscape:persp3d-origin="0.5 : 0.33333333 : 1"
       id="perspective1617" />
    <inkscape:perspective
       sodipodi:type="inkscape:persp3d"
       inkscape:vp_x="0 : 0.5 : 1"
       inkscape:vp_y="0 : 1000 : 0"
       inkscape:vp_z="1 : 0.5 : 1"
       inkscape:persp3d-origin="0.5 : 0.33333333 : 1"
       id="perspective1631" />
    <inkscape:perspective
       sodipodi:type="inkscape:persp3d"
       inkscape:vp_x="0 : 0.5 : 1"
       inkscape:vp_y="0 : 1000 : 0"
       inkscape:vp_z="1 : 0.5 : 1"
       inkscape:persp3d-origin="0.5 : 0.33333333 : 1"
       id="perspective1645" />
  </defs>
  <metadata
     id="metadata10080">
    <rdf:RDF>
      <cc:Work
         rdf:about="">
        <dc:format>image/svg+xml</dc:format>
        <dc:type
           rdf:resource="http://purl.org/dc/dcmitype/StillImage" />
        <dc:title></dc:title>
      </cc:Work>
    </rdf:RDF>
  </metadata>
  <g
     id="layer1"
     inkscape:groupmode="layer"
     inkscape:label="Layer 1">
    <path
       transform="matrix(3.4449878,0,0,3.4449878,58.690677,74.044009)"
       id="path1651"
       d="m 198.66216,225.52757 c -1.5489,-21.0499 -6.92487,-50.22719 -10.16582,-55.1735 -1.96673,-3.00161 -5.97013,-3.27386 -5.20659,-0.35407 0.6818,2.6072 -0.90833,2.5812 -2.30997,-0.0378 -1.56747,-2.92885 -0.29339,-5.81833 2.95434,-6.7001 l 2.80704,-0.76213 -2.0045,-5.25 C 182.85607,152.32453 181,150.36484 181,153.30472 c 0,0.71759 -2.01968,4.17291 -4.48817,7.67848 -5.66763,8.04874 -6.72353,12.61721 -3.51643,15.21416 1.39007,1.12561 3.10906,1.62402 4.39398,1.27401 2.06713,-0.56308 2.07062,-0.54295 0.16949,0.97685 -3.20512,2.56224 -8.3189,1.49135 -11.27707,-2.36156 -2.20991,-2.87834 -1.48164,-10.16089 1.68563,-16.8559 4.31961,-9.13086 5.36742,-13.68611 4.05962,-17.6488 -1.30968,-3.96838 -4.5785,-7.19836 -8.1923,-8.09497 -3.50244,-0.86898 -9.21606,1.85971 -10.69619,5.10825 -1.5237,3.34416 -1.4521,3.63905 0.71651,2.95076 1.02029,-0.32383 2.9254,-0.19284 4.23358,0.29109 l 2.3785,0.87987 -2.26021,0.71736 c -1.24312,0.39455 -2.98014,1.81611 -3.86005,3.15901 -2.02775,3.09473 -3.8923,1.8086 -5.37826,-3.70982 -1.42961,-5.30916 0.21762,-11.02099 4.12698,-14.31051 2.41185,-2.02944 4.13744,-2.573 8.16821,-2.573 l 5.11036,0 -2.87418,-3 c -1.5808,-1.65 -3.26161,-3 -3.73513,-3 -0.47352,0 -3.26885,1.54032 -6.21184,3.42293 C 143.06338,130.13307 136.9171,143.85787 136.72514,161 l -0.10637,9.5 -1.36302,-4.5 c -3.05151,-10.07455 -2.76752,-22.02745 0.85533,-36 0.27516,-1.06125 -0.54843,-1.59067 -2.81571,-1.80997 -3.10298,-0.30015 -3.26158,-0.12569 -5,5.5 -2.49474,8.07318 -2.50753,33.68726 -0.0201,40.30997 l 1.69014,4.5 -3.04948,-3.5 c -3.71774,-4.267 -10.26872,-17.73705 -11.84072,-24.34676 -0.63399,-2.66573 -1.36933,-8.51573 -1.63409,-13 l -0.48138,-8.15324 1.44483,5 c 0.79466,2.75 2.31124,7.025 3.37019,9.5 l 1.92536,4.5 0.67196,-6 c 0.36957,-3.3 0.92071,-8.07517 1.22474,-10.6115 l 0.55279,-4.61149 -4.07479,-1.63041 C 115.83365,124.74988 114,123.82719 114,123.59619 c 0,-0.231 2.08215,-0.34714 4.62701,-0.25809 4.47419,0.15655 4.66953,0.0412 5.91466,-3.49282 l 1.28766,-3.65472 -3.66467,-0.6743 c -2.01556,-0.37087 -5.57716,-1.51345 -7.91466,-2.53905 l -4.25,-1.86475 -0.022,5.19377 c -0.0286,6.77487 -2.60259,12.20809 -8.23212,17.37683 -4.986993,4.57878 -12.358501,7.36435 -19.177421,7.24681 L 78.5,140.85974 83.561656,139.13208 C 91.383372,136.46234 98.085149,131 93.538955,131 91.295795,131 88,126.91644 88,124.13712 l 0,-2.48575 2.444637,2.29662 c 3.009664,2.82743 6.553005,2.23075 9.008636,-1.51702 4.017927,-6.13213 2.750447,-14.27552 -2.56458,-16.47708 -2.526517,-1.04651 -3.223927,-0.96048 -4.961547,0.61204 -3.171611,2.87027 -2.194243,6.68201 2.072854,8.08414 l 3.5,1.15007 -2.75,0.70834 C 88.38349,118.14835 83,114.3125 83,108.13636 c 0,-4.85566 3.560199,-8.717312 8.862738,-9.61317 l 3.7461,-0.632899 -3.304419,-6.565541 C 90.486989,87.713703 89,84.138388 89,83.379605 c 0,-1.96364 -0.729267,-1.761825 -6.10967,1.69077 -8.36906,5.370411 -14.9432,14.099321 -18.897909,25.091975 -1.626193,4.52022 -1.923135,4.87822 -1.938982,2.33765 -0.01029,-1.65 0.648475,-6.14983 1.463925,-9.99963 0.81545,-3.849791 1.472753,-8.574791 1.460674,-10.499996 -0.0287,-4.574183 -3.230474,-11.529923 -5.986164,-13.004723 -4.999315,-2.675552 -10.037012,2.087016 -6.427019,6.076013 C 53.94784,86.599845 54.012716,87 52.877494,87 c -2.396818,0 -5.612089,-2.806408 -6.284449,-5.4853 -0.748594,-2.982636 1.545651,-7.983377 4.351564,-9.485056 3.199515,-1.712328 10.043637,-1.200027 13.63695,1.020763 C 68.206603,75.290807 72,80.670471 72,83.570982 c 0,1.471863 0.741963,1.129052 3.75,-1.732622 2.0625,-1.962144 5.528598,-4.744391 7.70244,-6.182769 3.731035,-2.468737 3.936983,-2.866577 3.676518,-7.102131 C 86.753584,62.449327 88.79356,49.586812 91.1024,43.5 c 1.043125,-2.75 1.896818,-5.270295 1.897096,-5.600655 8.26e-4,-0.984558 -9.775292,0.862984 -16.621241,3.141169 C 72.870215,42.207915 70,43.493027 70,43.896318 c 0,0.403292 1.57808,1.485791 3.506845,2.405555 7.616991,3.63229 10.07535,14.269779 4.570078,19.77505 C 76.358592,67.795254 74.091768,69 72.576923,69 70,69 70,69 72,67 74.772888,64.227112 74.52232,60.388572 71.378219,57.474718 63.344974,50.029757 50.612558,56.574336 43.360642,71.876012 41.871383,75.018376 39.953974,81.908005 39.015308,87.489653 l -1.679959,9.989653 -0.63554,-5.366136 C 36.350262,89.161795 35.364435,85.678951 34.509082,84.373517 31.863006,80.335095 26.019731,81.758476 25.984687,86.45 25.972064,88.139945 25.799117,88.236545 25,87 c -3.832885,-5.930967 3.606878,-13.421495 9.955749,-10.023682 1.611023,0.862193 1.906426,0.428438 2.527129,-3.710705 C 38.470541,66.679399 41.536355,58.94012 45.11438,54.0008 l 3.049387,-4.209556 -4.831884,3.29303 C 36.364503,57.83269 25.454976,68.547117 20.507988,75.5 14.915627,83.35994 11.315776,90.581204 7.7960581,101 l -2.8715029,8.5 0.6152486,-6 C 6.3310584,95.783562 11.169539,81.201361 15.530814,73.389117 25.949157,54.727 43.130482,39.754446 62.488583,32.468076 72.813019,28.581969 82.005894,27.000663 94.315376,26.993411 l 11.184624,-0.0066 -3,-1.987916 C 98.889601,22.606516 91.696002,20.120461 85.236614,19.032806 81.136336,18.342386 81.776269,18.221031 90,18.129488 c 15.62671,-0.17395 29.13622,4.877968 38.75,14.490666 5.9403,5.939629 6.83033,8.32177 2,5.352899 -8.95161,-5.501937 -16.56829,-4.574609 -23.75,2.891556 -5.28966,5.499174 -7.891628,11.91603 -8.717546,21.49879 l -0.591542,6.863399 2.904548,-0.560791 c 6.20058,-1.197171 15.36102,-1.814596 17.38613,-1.171849 1.76287,0.559512 1.91107,0.930257 0.87221,2.182003 -0.68833,0.82938 -1.27452,3.932009 -1.30265,6.89473 -0.0445,4.687415 0.33833,5.776006 2.94885,8.38491 1.65,1.648981 4.50724,3.298707 6.34943,3.666059 l 3.34943,0.667913 -2.53315,-2.533159 c -3.56413,-3.564122 -4.3379,-8.71918 -2.01884,-13.449932 7.95995,-16.237855 38.77125,-9.331675 44.55949,9.98776 l 1.14553,3.823421 5.27812,-5.808931 5.27813,-5.808932 0.0459,4.144665 c 0.0552,4.982499 3.23673,15.595498 6.03922,20.145833 1.78985,2.906132 1.82099,3.178542 0.26664,2.332082 -2.60132,-1.41663 -7.80429,-7.190753 -9.57184,-10.62258 l -1.54513,-3 -1.66263,3.936044 c -1.61876,3.832165 -4.42811,15.531316 -4.46297,18.585366 -0.01,0.83678 2.27718,4.66178 5.08161,8.5 10.79173,14.76984 19.42703,36.51001 22.20973,55.91506 l 1.2815,8.93648 1.21101,-9.09569 c 2.51355,-18.87885 11.2382,-40.89035 22.09982,-55.75585 2.80443,-3.83822 5.09116,-7.66322 5.08161,-8.5 -0.0349,-3.05405 -2.84421,-14.753201 -4.46297,-18.585366 L 221.85704,88.5 l -1.54513,3 c -1.76755,3.431827 -6.97052,9.20595 -9.57184,10.62258 -1.55435,0.84646 -1.52321,0.57405 0.26664,-2.332082 2.80249,-4.550335 5.98401,-15.163334 6.03922,-20.145833 l 0.0459,-4.144665 5.27813,5.808932 5.27812,5.808931 1.14553,-3.823421 c 3.61628,-12.070094 17.8603,-20.629994 31.26198,-18.786793 12.71042,1.748131 19.12525,14.402388 11.27867,22.248965 l -2.53315,2.533159 3.34943,-0.667913 c 1.84219,-0.367352 4.69943,-2.017078 6.34943,-3.666059 2.61052,-2.608904 2.99336,-3.697495 2.94885,-8.38491 -0.0281,-2.962721 -0.61432,-6.06535 -1.30265,-6.89473 -1.03886,-1.251746 -0.89066,-1.622491 0.87221,-2.182003 2.02511,-0.642747 11.18555,-0.02532 17.38613,1.171849 l 2.90455,0.560791 -0.59154,-6.863399 C 299.89163,52.780639 297.28966,46.363783 292,40.864609 c -7.18171,-7.466165 -14.79839,-8.393493 -23.75,-2.891556 -4.83033,2.968871 -3.9403,0.58673 2,-5.352899 9.61378,-9.612698 23.12329,-14.664616 38.75,-14.490666 8.22373,0.09154 8.86366,0.212898 4.76339,0.903318 -6.45939,1.087655 -13.65299,3.57371 -17.26339,5.9661 l -3,1.987916 11.18462,0.0066 c 12.30949,0.0073 21.50236,1.588558 31.8268,5.474665 19.3581,7.28637 36.53942,22.258924 46.95777,40.921041 4.36127,7.812244 9.19975,22.394445 9.99101,30.110882 l 0.61524,6 -2.8715,-8.5 C 387.68422,90.581204 384.08437,83.35994 378.49201,75.5 373.54502,68.547117 362.6355,57.83269 355.66812,53.084274 l -4.83189,-3.29303 3.04939,4.209556 c 3.57802,4.93932 6.64384,12.678599 7.6315,19.264813 0.62071,4.139143 0.91611,4.572898 2.52713,3.710705 C 370.39312,73.578505 377.83288,81.069033 374,87 c -0.79912,1.236545 -0.97206,1.139945 -0.98469,-0.55 -0.035,-4.691524 -5.87832,-6.114905 -8.52439,-2.076483 -0.85536,1.305434 -1.84118,4.788278 -2.19073,7.739653 l -0.63554,5.366136 -1.67996,-9.989653 C 359.04603,81.908005 357.12862,75.018376 355.63936,71.876012 348.38744,56.574336 335.65503,50.029757 327.62178,57.474718 324.47768,60.388572 324.22711,64.227112 327,67 c 2,2 2,2 -0.57692,2 -1.51485,0 -3.78167,-1.204746 -5.5,-2.923077 -5.50527,-5.505271 -3.04692,-16.14276 4.57008,-19.77505 C 327.42192,45.382109 329,44.29961 329,43.896318 c 0,-0.403291 -2.87021,-1.688403 -6.37826,-2.855804 -6.84594,-2.278185 -16.62206,-4.125727 -16.62124,-3.141169 2.8e-4,0.33036 0.85397,2.850655 1.8971,5.600655 2.30884,6.086812 4.34882,18.949327 3.97344,25.05346 -0.26046,4.235554 -0.0545,4.633394 3.67652,7.102131 2.17384,1.438378 5.63994,4.220625 7.70244,6.182769 3.00804,2.861674 3.75,3.204485 3.75,1.732622 0,-2.900511 3.7934,-8.280175 7.41844,-10.520575 3.59331,-2.22079 10.43744,-2.733091 13.63695,-1.020763 2.80591,1.501679 5.10016,6.50242 4.35156,9.485056 C 351.7346,84.193592 348.51932,87 346.12251,87 c -1.13523,0 -1.07035,-0.400155 0.31264,-1.928336 3.60999,-3.988997 -1.42771,-8.751565 -6.42702,-6.076013 -2.75569,1.4748 -5.95747,8.43054 -5.98617,13.004723 -0.0121,1.925205 0.64523,6.650205 1.46068,10.499996 0.81545,3.8498 1.47421,8.34963 1.46392,9.99963 -0.0159,2.54057 -0.31279,2.18257 -1.93898,-2.33765 C 331.05287,99.169696 324.47873,90.440786 316.10967,85.070375 310.72927,81.61778 310,81.415965 310,83.379605 c 0,0.758783 -1.48699,4.334098 -3.30442,7.945145 l -3.30442,6.565541 3.7461,0.632899 C 312.4398,99.419048 316,103.2807 316,108.13636 c 0,6.17614 -5.38349,10.01199 -11.75,8.37212 l -2.75,-0.70834 3.5,-1.15007 c 4.2671,-1.40213 5.24447,-5.21387 2.07285,-8.08414 -1.73762,-1.57252 -2.43503,-1.65855 -4.96154,-0.61204 -3.60438,1.49299 -5.56486,5.8638 -4.78518,10.6684 1.29481,7.97899 6.74742,11.53615 11.22923,7.3257 L 311,121.65137 l 0,2.48575 c 0,2.77932 -3.29579,6.86288 -5.53896,6.86288 -4.54619,0 2.15559,5.46234 9.9773,8.13208 l 5.06166,1.72766 -4.0685,0.0701 c -6.81892,0.11754 -14.19043,-2.66803 -19.17742,-7.24681 -5.62953,-5.16874 -8.20347,-10.60196 -8.23212,-17.37683 l -0.022,-5.19377 -4.25,1.86475 c -2.3375,1.0256 -5.8991,2.16818 -7.91466,2.53905 l -3.66467,0.6743 1.28766,3.65472 c 1.24513,3.53402 1.44047,3.64937 5.91466,3.49282 2.54486,-0.0891 4.62701,0.0271 4.62701,0.25809 0,0.231 -1.83365,1.15369 -4.07479,2.05041 l -4.07479,1.63041 0.55279,4.61149 c 0.30403,2.53633 0.85517,7.3115 1.22474,10.6115 l 0.67196,6 1.92536,-4.5 c 1.05895,-2.475 2.57553,-6.75 3.37019,-9.5 l 1.44483,-5 -0.48138,8.15324 c -0.26476,4.48427 -1.0001,10.33427 -1.63409,13 -1.572,6.60971 -8.12298,20.07976 -11.84072,24.34676 l -3.04948,3.5 1.69014,-4.5 c 2.4874,-6.62271 2.47461,-32.23679 -0.0201,-40.30997 -1.73842,-5.62569 -1.89702,-5.80015 -5,-5.5 -2.26728,0.2193 -3.09087,0.74872 -2.81571,1.80997 3.62285,13.97255 3.90684,25.92545 0.85533,36 l -1.36302,4.5 -0.10637,-9.5 c -0.19195,-17.1421 -6.33823,-30.8669 -16.82788,-37.57704 C 242.50398,121.54032 239.70865,120 239.23513,120 c -0.47352,0 -2.15433,1.35 -3.73513,3 l -2.87418,3 5.11036,0 c 4.03077,0 5.75636,0.54356 8.16821,2.573 3.90936,3.28952 5.55659,9.00135 4.12698,14.31051 -1.48596,5.51842 -3.35051,6.80455 -5.37826,3.70982 -0.87991,-1.3429 -2.61693,-2.76446 -3.86005,-3.15901 l -2.26021,-0.71736 2.3785,-0.87987 c 1.30818,-0.48393 3.21329,-0.61492 4.23358,-0.29109 2.16861,0.68829 2.24021,0.3934 0.71651,-2.95076 -1.48013,-3.24854 -7.19375,-5.97723 -10.69619,-5.10825 -3.6138,0.89661 -6.88262,4.12659 -8.1923,8.09497 -1.3078,3.96269 -0.25999,8.51794 4.05962,17.6488 3.16727,6.69501 3.89554,13.97756 1.68563,16.8559 -2.95817,3.85291 -8.07195,4.9238 -11.27707,2.36156 -1.90113,-1.5198 -1.89764,-1.53993 0.16949,-0.97685 1.28492,0.35001 3.00391,-0.1484 4.39398,-1.27401 3.2071,-2.59695 2.1512,-7.16542 -3.51643,-15.21416 C 220.01968,157.47763 218,154.02231 218,153.30472 c 0,-2.93988 -1.85607,-0.98019 -3.73666,3.94528 l -2.0045,5.25 2.80704,0.76213 c 3.24773,0.88177 4.52181,3.77125 2.95434,6.7001 -1.40164,2.61897 -2.99177,2.64497 -2.30997,0.0378 0.76354,-2.91979 -3.23986,-2.64754 -5.20659,0.35407 -3.13506,4.7847 -7.76038,29.09939 -9.88232,51.94999 L 199.39595,235.5 198.66216,225.52757 z M 142.66779,119.67179 c 5.02349,-2.59775 11.88926,-10.87546 14.28473,-17.22237 4.23354,-11.216942 0.97827,-23.061519 -7.74266,-28.172321 -7.79491,-4.568123 -16.60986,-1.32698 -16.60986,6.10723 0,1.885826 0.5951,4.145826 1.32244,5.022223 1.73704,2.092998 7.90903,2.055938 10.24882,-0.06154 C 145.73522,83.929646 146,83.908234 146,85.197129 c 0,2.405095 -4.25116,8.055513 -7.92168,10.529074 -4.75221,3.202515 -14.40068,3.214543 -19.08761,0.0238 -5.1444,-3.502176 -9.08584,-9.040322 -9.7017,-13.631942 C 108.73757,78.006748 108.7295,78 104.36833,78 100.62223,78 100,78.293851 100,80.06295 c 0,6.161367 10.56231,20.59087 17.81941,24.34366 6.62083,3.42377 16.29923,3.81805 23.67304,0.96441 1.61299,-0.62422 1.39981,-0.0188 -1.11935,3.17895 C 137.65764,111.9969 132,122.04608 132,123.4224 c 0,0.62547 6.88939,-1.79672 10.66779,-3.75061 z m 121.76879,-1.82236 c -1.48383,-2.94218 -4.09819,-7.12694 -5.80968,-9.29946 -2.5202,-3.19905 -2.73301,-3.80379 -1.11935,-3.18085 7.39634,2.85531 17.04382,2.4656 23.65997,-0.95575 C 288.43671,100.65433 299,86.230057 299,80.06295 299,78.284639 298.3791,78 294.5,78 c -4.15671,0 -4.5,0.194507 -4.5,2.54966 0,5.049766 -5.64895,13.139437 -11.20034,16.039616 -4.37438,2.285286 -13.88763,1.826027 -17.87798,-0.863073 C 257.25116,93.252642 253,87.602224 253,85.197129 c 0,-1.288895 0.26478,-1.267483 1.82874,0.147883 2.33979,2.117478 8.51178,2.154538 10.24882,0.06154 0.72734,-0.876397 1.32244,-3.136397 1.32244,-5.022223 0,-7.43421 -8.81495,-10.675353 -16.60986,-6.10723 -8.73654,5.119952 -11.9753,16.949019 -7.72733,28.222901 3.07247,8.15419 10.4418,15.7435 18.41448,18.96416 3.28751,1.32803 6.13026,2.26162 6.31723,2.07465 0.18697,-0.18697 -0.8741,-2.74719 -2.35794,-5.68938 z M 197.96114,89.882238 c -3.1141,-9.435787 -13.30077,-20.160061 -24.39583,-25.683305 l -5.88651,-2.930366 4.55208,-4.552074 c 2.50364,-2.503641 6.82502,-5.85021 9.60307,-7.43682 l 5.051,-2.884746 -6.3009,-2.744968 c -3.46549,-1.509733 -7.57379,-4.073591 -9.12956,-5.697464 C 169.89872,36.328623 168.26001,35 167.81291,35 c -1.26197,0 -0.96041,5.995506 0.6051,12.030725 0.77991,3.00662 1.30266,5.581943 1.16166,5.722939 -0.141,0.140997 -1.43929,-1.917086 -2.8851,-4.573517 -5.33905,-9.809588 -7.0463,-23.115832 -4.55652,-35.513366 C 163.28202,6.9705236 165,4.9755876 165,9.3434495 c 0,2.7411865 3.01535,11.8499035 5.54285,16.7437195 3.18962,6.175843 12.76038,14.551338 19.39036,16.96875 l 6.027,2.197555 -4.50373,2.983148 c -5.05831,3.350489 -7.58549,6.887043 -5.43388,7.604244 0.72016,0.240055 2.92219,1.977435 4.89339,3.860844 3.26643,3.120945 3.36248,3.360808 1.08401,2.706947 -1.375,-0.394588 -3.99004,-1.05678 -5.81119,-1.471536 -3.27234,-0.745252 -3.2458,-0.69356 2.26151,4.404388 3.065,2.83717 6.81919,7.487921 8.34265,10.335002 l 2.76993,5.176511 2.86989,-5.481407 c 1.58738,-3.031865 5.30884,-7.655217 8.3276,-10.345797 5.42316,-4.83358 5.43645,-4.859545 2.09867,-4.099492 -1.84748,0.420694 -4.48406,1.087743 -5.85906,1.482331 -2.27847,0.653861 -2.18242,0.413998 1.08401,-2.706947 1.9712,-1.883409 4.17323,-3.620789 4.89339,-3.860844 2.15927,-0.719755 -0.38223,-4.258168 -5.48715,-7.639529 l -4.557,-3.018432 5.05385,-1.678621 C 214.56352,41.31995 222.14473,35.259025 226.48223,28.718055 230.14557,23.193715 234,13.260176 234,9.3434495 c 0,-4.3678619 1.71798,-2.3729259 2.86195,3.3233315 2.48978,12.397534 0.78253,25.703778 -4.55652,35.513366 -1.44581,2.656431 -2.7441,4.714514 -2.8851,4.573517 -0.141,-0.140996 0.38175,-2.716319 1.16166,-5.722939 C 232.1475,40.995506 232.44906,35 231.18709,35 c -0.4471,0 -2.08581,1.328623 -3.64158,2.952495 -1.55577,1.623873 -5.66407,4.187731 -9.12956,5.697464 l -6.3009,2.744968 5.051,2.884746 c 2.77805,1.58661 7.09943,4.933179 9.60307,7.43682 l 4.55208,4.552074 -5.88651,2.930366 c -11.01786,5.484814 -20.23027,15.061105 -24.1732,25.128011 l -1.89058,4.826945 -1.40977,-4.271651 z"
       style="fill:none;stroke:#000000;stroke-opacity:1" />
  </g>
</svg>
