<?xml version="1.0" encoding="UTF-8" standalone="no"?>
<!-- Created with Inkscape (http://www.inkscape.org/) -->

<svg
   xmlns:dc="http://purl.org/dc/elements/1.1/"
   xmlns:cc="http://creativecommons.org/ns#"
   xmlns:rdf="http://www.w3.org/1999/02/22-rdf-syntax-ns#"
   xmlns:svg="http://www.w3.org/2000/svg"
   xmlns="http://www.w3.org/2000/svg"
   xmlns:sodipodi="http://sodipodi.sourceforge.net/DTD/sodipodi-0.dtd"
   xmlns:inkscape="http://www.inkscape.org/namespaces/inkscape"
   width="3200"
   height="1000"
   id="svg10075"
   sodipodi:version="0.32"
   inkscape:version="0.47 r22583"
   sodipodi:docname="egg_bot_name3_layers.svg"
   inkscape:output_extension="org.inkscape.output.svg.inkscape"
   version="1.0">
  <sodipodi:namedview
     id="base"
     pagecolor="#ffffff"
     bordercolor="#666666"
     borderopacity="1.0"
     inkscape:pageopacity="0.0"
     inkscape:pageshadow="2"
     inkscape:zoom="0.18075417"
     inkscape:cx="1831.2537"
     inkscape:cy="15.567665"
     inkscape:document-units="px"
     inkscape:current-layer="layer2"
     showgrid="false"
     inkscape:window-width="1280"
     inkscape:window-height="774"
     inkscape:window-x="-4"
     inkscape:window-y="-4"
     inkscape:window-maximized="1" />
  <defs
     id="defs10077">
    <inkscape:perspective
       id="perspective10083"
       inkscape:persp3d-origin="372.04724 : 350.78739 : 1"
       inkscape:vp_z="744.09448 : 526.18109 : 1"
       inkscape:vp_y="0 : 1000 : 0"
       inkscape:vp_x="0 : 526.18109 : 1"
       sodipodi:type="inkscape:persp3d" />
    <inkscape:perspective
       id="perspective28957"
       inkscape:persp3d-origin="0.5 : 0.33333333 : 1"
       inkscape:vp_z="1 : 0.5 : 1"
       inkscape:vp_y="0 : 1000 : 0"
       inkscape:vp_x="0 : 0.5 : 1"
       sodipodi:type="inkscape:persp3d" />
    <inkscape:perspective
       id="perspective22676"
       inkscape:persp3d-origin="0.5 : 0.33333333 : 1"
       inkscape:vp_z="1 : 0.5 : 1"
       inkscape:vp_y="0 : 1000 : 0"
       inkscape:vp_x="0 : 0.5 : 1"
       sodipodi:type="inkscape:persp3d" />
    <inkscape:perspective
       id="perspective22639"
       inkscape:persp3d-origin="0.5 : 0.33333333 : 1"
       inkscape:vp_z="1 : 0.5 : 1"
       inkscape:vp_y="0 : 1000 : 0"
       inkscape:vp_x="0 : 0.5 : 1"
       sodipodi:type="inkscape:persp3d" />
    <inkscape:perspective
       id="perspective22608"
       inkscape:persp3d-origin="0.5 : 0.33333333 : 1"
       inkscape:vp_z="1 : 0.5 : 1"
       inkscape:vp_y="0 : 1000 : 0"
       inkscape:vp_x="0 : 0.5 : 1"
       sodipodi:type="inkscape:persp3d" />
    <inkscape:perspective
       id="perspective22577"
       inkscape:persp3d-origin="0.5 : 0.33333333 : 1"
       inkscape:vp_z="1 : 0.5 : 1"
       inkscape:vp_y="0 : 1000 : 0"
       inkscape:vp_x="0 : 0.5 : 1"
       sodipodi:type="inkscape:persp3d" />
    <inkscape:perspective
       id="perspective22540"
       inkscape:persp3d-origin="0.5 : 0.33333333 : 1"
       inkscape:vp_z="1 : 0.5 : 1"
       inkscape:vp_y="0 : 1000 : 0"
       inkscape:vp_x="0 : 0.5 : 1"
       sodipodi:type="inkscape:persp3d" />
    <inkscape:perspective
       id="perspective22509"
       inkscape:persp3d-origin="0.5 : 0.33333333 : 1"
       inkscape:vp_z="1 : 0.5 : 1"
       inkscape:vp_y="0 : 1000 : 0"
       inkscape:vp_x="0 : 0.5 : 1"
       sodipodi:type="inkscape:persp3d" />
    <inkscape:perspective
       id="perspective22472"
       inkscape:persp3d-origin="0.5 : 0.33333333 : 1"
       inkscape:vp_z="1 : 0.5 : 1"
       inkscape:vp_y="0 : 1000 : 0"
       inkscape:vp_x="0 : 0.5 : 1"
       sodipodi:type="inkscape:persp3d" />
    <inkscape:perspective
       id="perspective22441"
       inkscape:persp3d-origin="0.5 : 0.33333333 : 1"
       inkscape:vp_z="1 : 0.5 : 1"
       inkscape:vp_y="0 : 1000 : 0"
       inkscape:vp_x="0 : 0.5 : 1"
       sodipodi:type="inkscape:persp3d" />
    <inkscape:perspective
       id="perspective22214"
       inkscape:persp3d-origin="0.5 : 0.33333333 : 1"
       inkscape:vp_z="1 : 0.5 : 1"
       inkscape:vp_y="0 : 1000 : 0"
       inkscape:vp_x="0 : 0.5 : 1"
       sodipodi:type="inkscape:persp3d" />
    <inkscape:perspective
       id="perspective22141"
       inkscape:persp3d-origin="0.5 : 0.33333333 : 1"
       inkscape:vp_z="1 : 0.5 : 1"
       inkscape:vp_y="0 : 1000 : 0"
       inkscape:vp_x="0 : 0.5 : 1"
       sodipodi:type="inkscape:persp3d" />
    <inkscape:perspective
       id="perspective22110"
       inkscape:persp3d-origin="0.5 : 0.33333333 : 1"
       inkscape:vp_z="1 : 0.5 : 1"
       inkscape:vp_y="0 : 1000 : 0"
       inkscape:vp_x="0 : 0.5 : 1"
       sodipodi:type="inkscape:persp3d" />
    <inkscape:perspective
       id="perspective22057"
       inkscape:persp3d-origin="0.5 : 0.33333333 : 1"
       inkscape:vp_z="1 : 0.5 : 1"
       inkscape:vp_y="0 : 1000 : 0"
       inkscape:vp_x="0 : 0.5 : 1"
       sodipodi:type="inkscape:persp3d" />
    <inkscape:perspective
       id="perspective22026"
       inkscape:persp3d-origin="0.5 : 0.33333333 : 1"
       inkscape:vp_z="1 : 0.5 : 1"
       inkscape:vp_y="0 : 1000 : 0"
       inkscape:vp_x="0 : 0.5 : 1"
       sodipodi:type="inkscape:persp3d" />
    <inkscape:perspective
       id="perspective21989"
       inkscape:persp3d-origin="0.5 : 0.33333333 : 1"
       inkscape:vp_z="1 : 0.5 : 1"
       inkscape:vp_y="0 : 1000 : 0"
       inkscape:vp_x="0 : 0.5 : 1"
       sodipodi:type="inkscape:persp3d" />
    <inkscape:perspective
       id="perspective21950"
       inkscape:persp3d-origin="0.5 : 0.33333333 : 1"
       inkscape:vp_z="1 : 0.5 : 1"
       inkscape:vp_y="0 : 1000 : 0"
       inkscape:vp_x="0 : 0.5 : 1"
       sodipodi:type="inkscape:persp3d" />
    <inkscape:perspective
       id="perspective21917"
       inkscape:persp3d-origin="0.5 : 0.33333333 : 1"
       inkscape:vp_z="1 : 0.5 : 1"
       inkscape:vp_y="0 : 1000 : 0"
       inkscape:vp_x="0 : 0.5 : 1"
       sodipodi:type="inkscape:persp3d" />
    <inkscape:perspective
       id="perspective21886"
       inkscape:persp3d-origin="0.5 : 0.33333333 : 1"
       inkscape:vp_z="1 : 0.5 : 1"
       inkscape:vp_y="0 : 1000 : 0"
       inkscape:vp_x="0 : 0.5 : 1"
       sodipodi:type="inkscape:persp3d" />
    <inkscape:perspective
       id="perspective21855"
       inkscape:persp3d-origin="0.5 : 0.33333333 : 1"
       inkscape:vp_z="1 : 0.5 : 1"
       inkscape:vp_y="0 : 1000 : 0"
       inkscape:vp_x="0 : 0.5 : 1"
       sodipodi:type="inkscape:persp3d" />
    <inkscape:perspective
       id="perspective21783-6"
       inkscape:persp3d-origin="0.5 : 0.33333333 : 1"
       inkscape:vp_z="1 : 0.5 : 1"
       inkscape:vp_y="0 : 1000 : 0"
       inkscape:vp_x="0 : 0.5 : 1"
       sodipodi:type="inkscape:persp3d" />
    <inkscape:perspective
       id="perspective21783"
       inkscape:persp3d-origin="0.5 : 0.33333333 : 1"
       inkscape:vp_z="1 : 0.5 : 1"
       inkscape:vp_y="0 : 1000 : 0"
       inkscape:vp_x="0 : 0.5 : 1"
       sodipodi:type="inkscape:persp3d" />
    <inkscape:perspective
       id="perspective21651"
       inkscape:persp3d-origin="0.5 : 0.33333333 : 1"
       inkscape:vp_z="1 : 0.5 : 1"
       inkscape:vp_y="0 : 1000 : 0"
       inkscape:vp_x="0 : 0.5 : 1"
       sodipodi:type="inkscape:persp3d" />
    <inkscape:perspective
       id="perspective6460"
       inkscape:persp3d-origin="0.5 : 0.33333333 : 1"
       inkscape:vp_z="1 : 0.5 : 1"
       inkscape:vp_y="0 : 1000 : 0"
       inkscape:vp_x="0 : 0.5 : 1"
       sodipodi:type="inkscape:persp3d" />
    <inkscape:perspective
       id="perspective27353"
       inkscape:persp3d-origin="372.04724 : 350.78739 : 1"
       inkscape:vp_z="744.09448 : 526.18109 : 1"
       inkscape:vp_y="0 : 1000 : 0"
       inkscape:vp_x="0 : 526.18109 : 1"
       sodipodi:type="inkscape:persp3d" />
  </defs>
  <metadata
     id="metadata10080">
    <rdf:RDF>
      <cc:Work
         rdf:about="">
        <dc:format>image/svg+xml</dc:format>
        <dc:type
           rdf:resource="http://purl.org/dc/dcmitype/StillImage" />
        <dc:title />
      </cc:Work>
    </rdf:RDF>
  </metadata>
  <g
     style="display:inline"
     inkscape:label="Black"
     id="layer2"
     inkscape:groupmode="layer">
    <g
       id="g21639"
       transform="matrix(0,-0.88064013,1.4281517,0,808.51056,1799.375)"
       style="display:inline">
      <path
         sodipodi:nodetypes="cssssssssssccccsssssssscsssscsssccscssssss"
         id="path23525"
         d="m 1517.2893,810.05749 c 5.8803,-0.60227 11.5257,-1.33114 16.8327,-2.13757 18.1754,-2.76184 32.0295,-6.97787 45.1501,-11.02492 17.2734,-5.32741 30.6666,-11.29155 43.5843,-17.26278 15.8945,-7.3465 29.0443,-14.99805 41.4964,-22.70237 14.4927,-8.96936 26.9564,-18.14998 38.6256,-27.34449 13.0195,-10.26264 24.395,-20.62647 34.9718,-31.04373 11.4273,-11.2541 21.47,-22.57874 30.6658,-33.94502 9.6693,-11.95247 18.1677,-24.01146 25.7066,-36.04851 7.7456,-12.37953 14.388,-24.76761 20.0958,-37.20896 5.7821,-12.60533 10.5253,-25.21485 14.3541,-37.86149 3.8316,-12.64568 6.7116,-25.33784 8.6124,-38.00676 1.8958,-12.50058 2.8784,-24.99099 2.8708,-37.49915 0,-12.17165 -0.9545,-24.39334 -2.8708,-36.55611 -1.8953,-11.65937 -4.6451,-23.25709 -8.6124,-34.88806 -3.7503,-10.96585 -8.3427,-21.94703 -14.3541,-32.85687 -5.5634,-10.09317 -12.0245,-20.17456 -20.0958,-30.17332 -7.3242,-9.06845 -15.6945,-18.05653 -25.7066,-26.98183 -8.9566,-7.99064 -18.9341,-15.92802 -30.6658,-23.71804 -10.3817,-6.88798 -21.7389,-13.7703 -34.9718,-20.38147 -11.5502,-5.76659 -24.1199,-11.44424 -38.6256,-16.82733 -5.5973,-2.07719 -11.4323,-4.12078 -17.5506,-6.11682 -2.0681,-0.67469 -4.1686,-1.34392 -6.3035,-2.00696 m -286.5861,-5.07711 c -15.4966,4.09563 -29.0168,8.56893 -41.496,13.20089 -14.509,5.38326 -27.0838,11.06171 -38.6255,16.82733 -13.2392,6.61149 -24.5947,13.49349 -34.9719,20.38147 -11.7283,7.7897 -21.8345,15.72724 -30.796,23.71804 -10.0122,8.9253 -18.3854,17.91338 -25.7071,26.98183 -8.0596,9.99876 -14.4009,20.08031 -19.9655,30.17332 -6.0151,10.91 -10.6068,21.89102 -14.3537,32.85687 -3.969,11.63097 -6.7183,23.22869 -8.6128,34.88806 -1.9777,12.16261 -2.8504,24.38446 -2.8704,36.55611 0,12.50816 0.9545,24.99857 2.8704,37.49915 1.9095,12.66892 4.7887,25.36108 8.6128,38.00676 3.8317,12.64664 8.5574,25.256 14.3537,37.86149 5.7074,12.44086 12.2116,24.82911 19.9655,37.20896 7.5389,12.03705 16.0369,24.09604 25.7071,36.04851 9.2012,11.36628 19.3654,22.69092 30.796,33.94502 10.588,10.41726 21.9473,20.78077 34.9719,31.04373 11.6736,9.19418 24.1303,18.3753 38.6255,27.34449 12.455,7.70481 25.6031,15.35555 41.496,22.70237"
         style="fill:none;stroke:#000000;stroke-width:5.67238283;stroke-linejoin:round;stroke-miterlimit:4;stroke-opacity:1;stroke-dasharray:none" />
      <path
         style="font-size:123.06840515px;font-style:normal;font-variant:normal;font-weight:bold;font-stretch:normal;text-align:start;line-height:125%;writing-mode:lr-tb;text-anchor:start;fill:none;stroke:#000000;stroke-width:5.67238283;stroke-miterlimit:4;stroke-opacity:1;stroke-dasharray:none;font-family:Magneto;-inkscape-font-specification:Magneto Bold"
         d="m 1623.1085,236.31055 c 0,-22.24642 -14.3112,-56.64045 -64.6979,-56.64045 -13.9367,0 -27.1462,2.36997 -39.6536,5.54805 -10.7206,-21.45202 -41.8178,-50.63855 -87.2016,-50.63855 -42.525,0 -53.9906,27.03074 -53.9906,46.09924 l 0,79.63963 c 0,1.21661 0.091,2.46615 0.363,3.73232 l 0,9.63351 c -8.9457,-8.33474 -30.3999,-11.29784 -47.911,-11.29784 -26.0867,0 -41.1054,9.55523 -41.1054,23.85652 0,28.40407 43.9843,39.68594 88.6534,48.82282 l 0,17.29991 c -0.062,2.12076 0.057,4.25815 0.363,6.35503 l 0,29.7072 c -8.9457,-8.33458 -30.3999,-11.29784 -47.911,-11.29784 -26.0867,0 -41.1054,9.55539 -41.1054,23.85668 0,28.40391 43.9843,39.73629 88.6534,48.87318 l 0,17.24939 c -0.3573,12.31513 4.272,25.02553 27.8573,28.79949 l 0,-41.10607 90.7405,17.70339 0,-55.43012 c 0,-21.45186 -15.6911,-42.30913 -55.7146,-48.26794 -5.003,-0.79456 -9.9693,-1.21048 -14.9722,-1.21048 -7.572,0 -14.2454,0.94805 -20.0537,2.52184 l 0,-30.06033 90.7405,17.65288 0,-55.37961 c 0,-21.45202 -15.6911,-42.30913 -55.7146,-48.2681 -5.003,-0.7944 -9.9693,-1.21048 -14.9722,-1.21048 -7.572,0 -14.2454,0.94821 -20.0537,2.52184 l 0,-42.11465 c 0,-12.51365 -1.7637,-35.75977 30.3981,-35.75977 64.3235,0 59.663,43.47652 85.7498,43.47652 16.4382,0 30.3838,-6.15329 46.822,-6.15329 12.8647,0 26.7685,5.56564 26.7685,13.11357 l 0,11.55011 c -4.2883,-0.99324 -8.8804,-1.41223 -13.8833,-1.41223 -23.228,0 -41.8314,11.51912 -41.8314,25.62189 0,14.3013 18.6034,25.82364 41.8314,25.82364 22.1558,0 41.474,-10.34672 41.8313,-23.65494 l 0,-29.55596 z m 0,376.7629 -44.0091,-14.9293 0,113.43245 c 0,10.13013 -4.6126,22.84779 -26.7684,22.84779 -28.9456,0 -43.2476,-15.90769 -52.5387,-26.83238 -3.9309,-4.56836 -6.1291,-8.35637 -15.063,-10.54121 -1.072,-0.19868 -2.4668,-0.20175 -3.5388,-0.20175 -10.7206,0 -19.6429,7.76727 -33.937,7.76727 -36.8073,0 -41.8314,-31.00338 -41.8314,-46.09924 l 0,-4.9428 151.1737,29.80806 0,-34.95262 -179.031,-35.00314 0,50.48716 c 0,24.63011 11.8144,74.49523 70.7776,74.49523 15.0088,0 29.2389,-3.39435 42.1036,-7.56552 14.6514,16.68482 38.6316,42.51815 77.5831,42.51815 44.3117,0 55.0794,-20.69023 55.0794,-47.10798 l 0,-113.18017 z m -56.8942,308.52198 c -50.0294,-14.69865 -60.0458,-23.43996 -70.0517,-45.0905 l 0,-72.32637 c 0,-29.19863 -23.2179,-45.49351 -57.1665,-48.67159 -33.2338,-3.17808 -64.6923,9.94242 -64.335,45.69574 0.3574,25.62319 22.2189,44.51334 61.885,46.30098 9.2912,0.59588 26.3989,-2.39175 31.7592,-6.96028 l 0,45.69574 -62.8832,-12.30657 c -18.5823,-3.57529 -27.8573,2.78798 -27.8573,13.31531 l 0,49.42806 c 0,8.54117 4.6294,20.48622 27.8573,24.26019 l 0,-52.05078 62.8832,12.10483 0,6.35504 c 0,5.36292 2.1279,18.8498 27.8573,24.41141 l 0,-25.01665 70.0517,13.71881 0,-18.86337 z m -87.2016,-413.58176 -44.2814,-8.5239 0,65.31574 44.2814,8.57425 0,-65.36609 z m -10.7074,-211.48158 0,20.67909 -64.0628,-12.15519 0,-12.25622 c 2.7771,-3.50798 8.5024,-5.91346 19.7814,-3.98443 l 44.2814,7.71675 z m 0,114.79416 0,20.62873 -64.0628,-12.15535 0,-12.25606 c 2.7771,-3.50815 8.5024,-5.91362 19.7814,-3.98459 l 44.2814,7.76727 z m 0,385.28679 0,22.29307 -66.0591,-12.91182 c 0,0 -3.9573,-23.07262 21.4148,-18.1069 l 44.6443,8.72565 z m -95.3683,-496.49986 -57.5294,-11.70134 c 4.2882,-3.37676 11.0974,-5.54804 18.6018,-5.54804 16.4382,0 38.9276,8.50969 38.9276,17.24938 z m 0,114.74364 -57.5294,-11.70134 c 4.2882,-3.3766 11.0974,-5.54804 18.6018,-5.54804 16.4382,0 38.9276,8.50969 38.9276,17.24938 z"
         id="text9445" />
    </g>
  </g>
  <g
     style="display:inline"
     inkscape:label="Blue"
     id="layer3"
     inkscape:groupmode="layer">
    <path
       id="path22282"
       d="m 1007.9685,542.6679 c 0.1102,1.38368 0.3343,2.709 0.557,3.99646 l 48.7556,0 c -0.5711,-1.26618 -1.0936,-2.5883 -1.4681,-3.99646 l -47.8445,0 z m 0.6583,-12.67625 46.4267,0 c 0.094,-1.37119 0.2347,-2.69251 0.405,-3.99646 l -46.0724,0 c -0.3214,1.31364 -0.5357,2.64815 -0.7593,3.99646 z m 4.5566,29.38014 c 0.8637,1.42124 1.8047,2.74586 2.8352,3.99646 l 63.3875,0 c -0.5706,-0.15237 -1.155,-0.29884 -1.7214,-0.46829 -2.982,-0.89231 -5.8121,-2.06427 -8.4044,-3.52817 l -56.0969,0 z m 1.0126,-46.08413 44.3509,0 c 0.5185,-1.38127 1.1116,-2.708 1.7214,-3.99645 l -43.8446,0 c -0.7925,1.30884 -1.5309,2.63946 -2.2277,3.99645 z m 11.8977,-16.70388 42.6803,0 c 1.2434,-1.39377 2.5089,-2.74507 3.8478,-3.99646 l -42.5283,0 c -1.3689,1.29775 -2.7168,2.62248 -3.9998,3.99646 z m 8.0501,79.46082 c 4.3452,1.76714 8.9552,3.07547 13.6191,3.99646 l 444.3703,0 c 1.4721,-0.44501 2.8689,-0.98023 4.2021,-1.62356 1.331,-0.64233 2.613,-1.43943 3.8478,-2.3729 l -466.0393,0 z m 12.2015,-96.13353 44.3509,0 c 2.6318,-1.45402 5.1768,-2.74437 7.5944,-3.99646 l -45.2623,0 c -2.2343,1.25099 -4.4814,2.57931 -6.683,3.99646 z m 25.8714,-52.92187 c 0,0.94996 0.06,1.89832 0.1005,2.84128 l 37.3642,0 c -0.3137,-1.30344 -0.5815,-2.65334 -0.8101,-3.99645 l -36.6048,0 c -0.016,0.38925 -0.05,0.76012 -0.05,1.15517 z m 1.8227,15.54881 c 0.2957,1.33522 0.6046,2.67463 0.9619,3.99646 l 39.7943,0 c -0.3906,-1.32573 -0.8306,-2.65954 -1.2656,-3.99646 l -39.4906,0 z m 0.05,-29.38024 34.529,0 c 0.2368,-1.3499 0.5907,-2.68352 1.0125,-3.99646 l -34.1746,0 c -0.5106,1.28107 -0.9708,2.62198 -1.3669,3.99646 z m 5.2147,46.05285 c 0.2123,0.53153 0.3895,1.06296 0.6076,1.59239 l 1.0125,2.40407 35.2885,0 c 0.5121,-1.1278 0.7594,-2.35861 0.7594,-3.77785 0,-0.0729 6e-4,-0.14547 0,-0.21861 l -37.668,0 z m 4.1516,-62.75674 34.1746,0 c 1.1819,-1.07125 2.495,-2.05317 3.9996,-2.93499 0.6348,-0.37187 1.3541,-0.73115 2.0759,-1.06146 l -36.0985,0 c -1.457,1.25439 -2.8573,2.57522 -4.1516,3.99645 z m 27.7954,-16.70398 90.8788,0 c -2.2775,-1.78732 -4.7058,-3.10854 -7.1386,-3.99646 l -66.5264,0 c -5.7105,0.85944 -11.5617,2.16199 -17.2138,3.99646 z m 44.4522,29.41141 c 0.092,1.3632 0.2595,2.68762 0.5063,3.99646 l 58.0713,0 c 0.2454,-1.30744 0.4147,-2.63386 0.5063,-3.99646 l -59.0839,0 z m 1.5188,-12.70743 56.0462,0 c -0.4207,-1.38157 -0.9481,-2.7002 -1.5189,-3.99645 l -53.1096,0 -1.1646,3.1534 c -0.1021,0.27366 -0.1588,0.5648 -0.2531,0.84305 z m 4.1516,29.38015 c 0.9648,1.43323 2.0462,2.76584 3.1896,3.99645 l 41.3132,0 c 1.1563,-1.2356 2.2685,-2.55683 3.2402,-3.99645 l -47.743,0 z m 15.3405,118.20766 c 0,0.8953 0.05,1.75994 0.1005,2.62267 l 36.6553,0 c 0.1393,-0.68759 0.2568,-1.37488 0.4558,-2.09184 l 0.5568,-1.90462 -37.7185,0 c -0.016,0.4571 -0.05,0.91609 -0.05,1.37379 z m 2.0759,-14.05004 39.288,0 1.1139,-3.99646 -39.1868,0 c -0.429,1.29795 -0.8516,2.62308 -1.2151,3.99646 z m 0.8606,29.38014 c 0.1588,0.39685 0.2859,0.79999 0.4557,1.18655 l 1.2151,2.80991 36.7059,0 c -1.3048,-1.15728 -2.3629,-2.4806 -3.1895,-3.99646 l -35.1872,0 z m 6.1767,-46.08413 36.9591,0 1.1139,-3.99645 -35.339,0 c -0.9475,1.27237 -1.875,2.60009 -2.734,3.99645 z m 4.5061,114.83575 c 0,0.6842 0.024,1.33472 0.05,1.99823 l 15.543,0 c -0.3018,-1.29735 -0.4232,-2.64126 -0.5063,-3.99645 l -15.0367,0 c -0.016,0.6683 -0.05,1.3421 -0.05,1.99822 z m 1.4176,-14.70575 15.4417,0 c 0.4211,-1.34131 0.9199,-2.67633 1.4684,-3.99646 l -16.0495,0 c -0.3294,1.31443 -0.6069,2.64915 -0.8606,3.99646 z m 1.0126,29.38014 c 0.5289,1.42833 1.1496,2.74936 1.8226,3.99645 l 24.1499,0 -3.949,-3.09096 c -0.3714,-0.29074 -0.7127,-0.60066 -1.0632,-0.90549 l -20.9603,0 z m 4.8603,-46.05286 18.6315,0 c 1.1926,-1.42323 2.4506,-2.76784 3.8478,-3.99645 l -19.644,0 c -0.992,1.18994 -1.9539,2.52096 -2.8353,3.99645 z m 4.4047,-100.16116 105.3589,0 1.2656,-3.99646 -99.4352,0 c -2.25,1.05647 -4.4652,2.24241 -6.5818,3.59052 -0.2052,0.13088 -0.4034,0.27216 -0.6075,0.40594 z m 9.822,162.918 c 1.7076,0.28245 3.4881,0.40584 5.4174,0.40584 2.2262,1e-4 4.3615,-0.14197 6.3792,-0.40584 l -11.7966,0 z m 13.923,-12.70753 22.7831,0 c 1.2953,-1.25958 2.5693,-2.57691 3.797,-3.99645 l -25.2637,0 -1.3164,3.99645 z m 5.468,-16.67261 30.0736,0 c 0.7614,-1.29515 1.4995,-2.64385 2.2276,-3.99645 l -30.9849,0 -1.3163,3.99645 z m 5.5184,-16.70398 32.9088,0 c 0.5673,-1.31444 1.0719,-2.65465 1.6202,-3.99646 l -33.2126,0 -1.3164,3.99646 z m 5.5187,-16.67272 33.8201,0 c 0.4762,-1.33262 1.0029,-2.65334 1.4682,-3.99645 l -33.972,0 -1.3163,3.99645 z m 8.9107,-33.37669 35.187,0 0.7595,-2.49779 0.4556,-1.49867 -35.187,0 -1.2151,3.99646 z m 5.1641,-16.70389 35.2378,0 1.2656,-3.99646 -35.2883,0 -1.2151,3.99646 z m 5.1135,-16.67271 35.3897,0 1.2656,-3.99646 -35.4402,0 -1.2151,3.99646 z m 5.1641,-16.70399 35.491,0 1.2656,-3.99645 -35.5415,0 -1.2151,3.99645 z m 73.969,30.75403 c 0,0.8954 0.052,1.75994 0.1004,2.62267 l 36.6554,0 c 0.1393,-0.68759 0.2568,-1.37488 0.4556,-2.09184 l 0.557,-1.90462 -37.7187,0 c -0.016,0.4572 -0.05,0.91589 -0.05,1.37379 z m 2.0757,-14.05004 39.288,0 1.1139,-3.99646 -39.1868,0 c -0.4281,1.29795 -0.8517,2.62308 -1.2151,3.99646 z m 0.8101,29.38014 c 0.1587,0.39685 0.2857,0.79999 0.4557,1.18655 l 1.2151,2.80991 36.7566,0 c -1.3048,-1.15728 -2.3631,-2.4806 -3.1897,-3.99646 l -35.2377,0 z m 6.2274,-46.08413 37.0097,0 1.1138,-3.99645 -35.3895,0 c -0.9447,1.27237 -1.8778,2.60009 -2.734,3.99645 z m 4.5059,114.83575 c 0,0.6844 0.076,1.33452 0.1004,1.99823 l 15.4925,0 c -0.3018,-1.29735 -0.423,-2.64126 -0.5063,-3.99645 l -15.0367,0 c -0.016,0.6683 -0.05,1.3421 -0.05,1.99822 z m 1.367,-14.70575 15.4925,0 c 0.4209,-1.34131 0.9198,-2.67633 1.4682,-3.99646 l -16.1,0 c -0.3267,1.31443 -0.611,2.64915 -0.8607,3.99646 z m 1.0632,29.38014 c 0.5244,1.42773 1.1031,2.74976 1.7721,3.99645 l 24.2006,0 -3.9491,-3.09096 c -0.3713,-0.29074 -0.7128,-0.60066 -1.0632,-0.90549 l -20.9604,0 z m 4.8604,-46.05286 18.6314,0 c 1.179,-1.41664 2.4135,-2.77294 3.7973,-3.99645 l -19.5935,0 c -0.9985,1.19024 -1.9468,2.52006 -2.8352,3.99645 z m 4.354,-100.16116 105.4602,0 1.2657,-3.99646 -99.5365,0 c -2.253,1.05647 -4.4653,2.24241 -6.5818,3.59052 -0.2053,0.13088 -0.4036,0.27216 -0.6076,0.40594 z m 9.8728,162.918 c 1.7121,0.28245 3.4879,0.40584 5.4172,0.40584 2.2262,0 4.3622,-0.14207 6.3792,-0.40584 l -11.7964,0 z m 13.8723,-12.70753 22.8336,0 c 1.2945,-1.25948 2.5693,-2.57691 3.7972,-3.99645 l -25.3144,0 -1.3164,3.99645 z m 5.4679,-16.67261 30.1749,0 c 0.7627,-1.29415 1.4476,-2.64495 2.1769,-3.99645 l -31.0354,0 -1.3164,3.99645 z m 5.5185,-16.70398 32.9595,0 c 0.569,-1.31544 1.1207,-2.65355 1.6707,-3.99646 l -33.3138,0 -1.3164,3.99646 z m 5.5186,-16.67272 33.9214,0 c 0.477,-1.33262 1.0024,-2.65344 1.4682,-3.99645 l -34.0732,0 -1.3164,3.99645 z m 8.9613,-33.37669 35.1365,0 0.81,-2.49779 0.4558,-1.49867 -35.1872,0 -1.2151,3.99646 z m 5.1641,-16.70389 35.2885,0 1.2656,-3.99646 -35.339,0 -1.2151,3.99646 z m 5.1136,-16.67271 35.4403,0 1.2656,-3.99646 -35.4908,0 -1.2151,3.99646 z m 5.1642,-16.70399 35.5415,0 1.2657,-3.99645 -35.5921,0 -1.2151,3.99645 z m 100.3973,16.70399 78.7786,0 1.2656,-3.99646 -78.7786,0 -1.2656,3.99646 z m 5.2147,-16.70399 78.8293,0 1.2151,-3.99645 -78.7786,0 -1.2658,3.99645 z m 140.9004,-116.83378 224.2862,0 c -0.7156,-1.42683 -1.5187,-2.74996 -2.3796,-3.99645 l -219.7296,0 -2.177,3.99645 z m 9.1638,-16.70398 196.1365,0 c -4.5911,-1.83797 -9.7752,-3.14381 -15.543,-3.99646 l -178.4164,0 -2.1771,3.99646 z m 7.5943,200.29116 88.9551,0 c 6.7448,-0.9078 13.7343,-2.21204 20.6059,-3.99646 l -108.2952,0 -1.2658,3.99646 z m 5.3161,-16.67281 34.9845,0 0.8101,-2.52896 0.4557,-1.4675 -34.9846,0 -1.2657,3.99646 z m 5.2654,-16.70389 35.0858,0 1.2658,-3.99646 -35.0859,0 -1.2657,3.99646 z m 5.316,-16.67271 35.0859,0 1.2657,-3.99646 -35.0858,0 -1.2658,3.99646 z m 5.2654,-16.70399 35.1872,0 1.2656,-3.99645 -35.187,0 -1.2658,3.99645 z m 5.3161,-16.70388 35.1871,0 1.2658,-3.99646 -35.1872,0 -1.2657,3.99646 z m 5.2654,-16.67271 35.2378,0 1.3163,-3.99646 -35.2884,0 -1.2657,3.99646 z m 5.316,-16.70399 35.2884,0 1.2657,-3.99646 -35.2883,0 -1.2658,3.99646 z m 5.2654,-16.67261 35.339,0 1.3164,-3.99646 -35.3896,0 -1.2658,3.99646 z m 42.6803,116.83378 54.9323,0 c 1.8964,-1.2414 3.7059,-2.58981 5.4174,-3.99646 l -46.0218,0 c -4.6861,1.71738 -9.5051,3.02951 -14.3279,3.99646 z m 32.048,-68.37676 c 0,0.52853 0.062,1.05566 0.1523,1.59229 l 38.5287,0 c -0.5853,-1.34721 -1.1866,-2.67343 -1.8226,-3.99646 l -36.6554,0 c -0.016,0.025 -0.041,0.038 -0.05,0.0619 0,0.01 0,0.052 0,0.0619 -0.081,0.31452 -0.1523,1.36849 -0.1523,2.27928 z m 2.5315,51.67287 36.7566,0 c 0.743,-1.28386 1.4142,-2.61548 2.0251,-3.99646 l -35.592,0 c -0.9535,1.40306 -2.0305,2.73997 -3.1897,3.99646 z m 3.7465,-37.37315 c 0.7198,1.28096 1.4303,2.57951 2.0759,3.99645 l 35.6428,0 c -0.2572,-1.33791 -0.5212,-2.67403 -0.8608,-3.99645 l -36.8579,0 z m 4.4048,20.70044 34.0227,0 c 0.1523,-1.29665 0.2514,-2.63217 0.3037,-3.99646 l -33.9721,0 c -0.045,1.37278 -0.1555,2.7046 -0.3543,3.99646 z m 5.9235,-50.08058 26.6816,0 c 2.2757,-1.27178 4.582,-2.5984 6.936,-3.99646 l -26.6813,0 c -2.3831,1.44991 -4.7068,2.78653 -6.9363,3.99646 z m 22.2262,-70.74976 c 0.5207,0.25078 1.0126,0.50506 1.5189,0.78061 1.7155,0.93337 3.3245,2.01332 4.7591,3.21585 l 49.6669,0 c -0.1085,-1.37198 -0.2655,-2.72069 -0.4556,-3.99646 l -55.4893,0 z m 1.3164,54.04577 28.8585,0 c 1.6275,-1.29265 3.2149,-2.62187 4.7591,-3.99646 l -30.0231,0 c -1.1376,1.39207 -2.3365,2.72369 -3.5945,3.99646 z m 11.0371,-16.67261 34.2251,0 c 0.9366,-1.30005 1.8112,-2.63656 2.6327,-3.99646 l -35.6427,0 c -0.351,1.36449 -0.7357,2.7092 -1.2151,3.99646 z m 1.7719,-20.70044 c 0.3004,1.26987 0.4927,2.60549 0.6075,3.99645 l 39.9464,0 c 0.3476,-1.30984 0.6325,-2.63906 0.8606,-3.99645 l -41.4145,0 z m 30.2256,117.02121 c 0.066,1.28076 0.1838,2.55703 0.3543,3.80912 l 31.8457,0 c 0.149,-0.61146 0.3042,-1.2367 0.5063,-1.87334 l 0.6581,-2.12312 -33.3644,0 c 0,0.062 0,0.12519 0,0.18734 z m 1.0631,-12.86359 36.3516,0 1.2658,-3.99646 -36.7061,0 c -0.3469,1.31104 -0.6474,2.63397 -0.9113,3.99646 z m 3.1897,29.38014 c 0.6783,1.36749 1.3863,2.71549 2.2277,3.99646 l 31.5417,0 c -1.4343,-1.0178 -2.7453,-2.18077 -3.7465,-3.52808 -0.1134,-0.15206 -0.1974,-0.31312 -0.3038,-0.46838 l -29.7191,0 z m 2.7845,-46.08413 35.6428,0 1.2658,-3.99645 -34.4277,0 c -0.8898,1.28276 -1.7083,2.61947 -2.4809,3.99645 z m 13.0623,62.75694 c 2.5909,1.52925 5.4457,2.85607 8.6069,3.99646 l 55.5906,0 c 2.9731,-1.11491 5.7958,-2.45183 8.4551,-3.99646 l -72.6526,0 z m 2.4809,-79.46082 233.2982,0 c 1.4214,-1.08334 2.7841,-2.39867 4.1515,-3.99646 l -230.3617,0 c -2.5232,1.17806 -4.8685,2.51687 -7.088,3.99646 z m 50.5782,66.78447 34.0734,0 c 0.9727,-1.27587 1.8788,-2.6014 2.7339,-3.99646 l -35.5415,0 -1.2658,3.99646 z m 5.3161,-16.70389 37.0604,0 c 0.3741,-1.30155 0.7232,-2.62797 1.0126,-3.99646 l -36.8073,0 -1.2657,3.99646 z m 5.2654,-16.67271 33.972,0 c -0.099,-1.25749 -0.2554,-2.60519 -0.5063,-3.99646 l -32.2,0 -1.2657,3.99646 z m 5.316,-16.70399 23.5425,0 c -1.1558,-1.94407 -2.2779,-3.41257 -2.9872,-3.99645 l -19.2895,0 -1.2658,3.99645 z m 80.2975,50.08059 35.3897,0 0.7594,-2.49779 0.4557,-1.49867 -35.3897,0 -1.0126,3.1535 c 0,0.011 0,0.02 0,0.031 -0.087,0.28185 -0.1247,0.53652 -0.2025,0.81168 z m 0.2025,12.67635 c 0.3679,0.75543 0.7832,1.43663 1.2658,1.99823 0.6978,0.81178 1.4867,1.4673 2.329,1.99823 l 90.4738,0 c 1.2564,-0.453 2.4717,-1.00861 3.696,-1.68611 1.1362,-0.62854 2.2918,-1.40225 3.3921,-2.31035 l -101.1567,0 z m 5.0124,-29.38024 35.339,0 1.2656,-3.99646 -35.339,0 -1.2656,3.99646 z m 5.3159,-16.67271 35.2378,0 1.2658,-3.99646 -35.2378,0 -1.2658,3.99646 z m 5.3161,-16.70399 35.1365,0 1.2657,-3.99645 -35.1365,0 -1.2657,3.99645 z m 1.3669,-33.37659 44.7055,0 1.3163,-3.99646 -37.5666,0 c -2.6757,1.4616 -5.5132,2.77444 -8.4552,3.99646 z m 25.0107,-16.70399 25.0107,0 1.2658,-3.99646 -22.783,0 c -1.1576,1.39657 -2.3027,2.74167 -3.4935,3.99646 z m 12.4548,-16.67261 17.8721,0 1.2656,-3.99646 -16.7581,0 c -0.8008,1.37898 -1.5846,2.7102 -2.3796,3.99646 z m 9.2651,-16.70399 13.9229,0 1.2658,-3.99645 -13.2142,0 c -0.6717,1.36838 -1.3164,2.69531 -1.9745,3.99645 z"
       style="font-size:medium;font-style:normal;font-variant:normal;font-weight:normal;font-stretch:normal;text-indent:0;text-align:start;text-decoration:none;line-height:normal;letter-spacing:normal;word-spacing:normal;text-transform:none;direction:ltr;block-progression:tb;writing-mode:lr-tb;text-anchor:start;color:#000000;fill:none;stroke:#0d11ff;stroke-width:2.79901099;stroke-miterlimit:4;stroke-opacity:1;stroke-dasharray:none;marker:none;visibility:visible;display:inline;overflow:visible;enable-background:accumulate;font-family:Bitstream Vera Sans;-inkscape-font-specification:Bitstream Vera Sans" />
  </g>
  <g
     style="display:inline"
     inkscape:label="Yellow"
     id="layer4"
     inkscape:groupmode="layer">
    <g
       id="g21635"
       transform="matrix(0,-0.88064013,1.4281517,0,808.51056,1799.3749)">
      <path
         style="font-size:medium;font-style:normal;font-variant:normal;font-weight:normal;font-stretch:normal;text-indent:0;text-align:start;text-decoration:none;line-height:normal;letter-spacing:normal;word-spacing:normal;text-transform:none;direction:ltr;block-progression:tb;writing-mode:lr-tb;text-anchor:start;color:#000000;fill:none;stroke:#eeff08;stroke-width:5.67238283;stroke-miterlimit:4;stroke-opacity:1;stroke-dasharray:none;marker:none;visibility:visible;display:inline;overflow:visible;enable-background:accumulate;font-family:Bitstream Vera Sans;-inkscape-font-specification:Bitstream Vera Sans"
         d="m 1431.5721,119.58279 c -24.44,0 -42.9228,8.36505 -54.125,20.875 -11.2021,12.50995 -14.875,27.67561 -14.875,40.21875 l 0,43.125 c -13.1966,3.45363 -26.0817,7.29111 -38.3125,11.78125 l 0,-0.0312 c -0.1748,0.0575 -0.3256,0.12992 -0.5,0.1875 -5.7298,1.89188 -11.2563,3.81174 -16.5625,5.78125 -15.0835,5.59641 -28.1946,11.55666 -40.0937,17.5 -0.01,0.004 -0.023,-0.004 -0.031,0 -13.8806,6.93338 -25.7931,14.15364 -36.5313,21.28125 a 15.0015,15.0015 0 0 0 -0.031,0 c -12.3373,8.19419 -22.9841,16.60187 -32.4375,25.03125 -10.6355,9.48094 -19.607,19.05891 -27.4062,28.71875 a 15.0015,15.0015 0 0 0 -0.031,0.0312 c -8.7419,10.84514 -15.5561,21.73276 -21.4063,32.34375 -6.5124,11.81197 -11.4391,23.63958 -15.4062,35.25 -4.2681,12.50729 -7.2384,24.96345 -9.25,37.34375 -2.1206,13.04106 -3.0414,26.06159 -3.0625,38.9375 a 15.0015,15.0015 0 0 0 0,0.0312 c 0,13.26464 1.0372,26.49404 3.0625,39.71875 l -0.031,0 c 2.0216,13.4128 5.1008,26.8176 9.125,40.125 4.0181,13.26207 8.9779,26.51428 15.0625,39.75 0,0.008 0,0.0229 0,0.0312 5.9316,12.92731 12.739,25.91634 20.875,38.90625 7.8392,12.51658 16.7109,25.08423 26.7812,37.53125 9.5316,11.77445 20.0564,23.52064 31.9063,35.1875 10.8692,10.69392 22.6722,21.4508 36.2187,32.125 11.9354,9.40032 24.88,18.95668 40,28.3125 12.6799,7.84392 26.4657,15.90533 43.0938,23.59375 0.01,0.004 0.023,-0.004 0.031,0 1.1701,0.541 2.3068,1.03496 3.4062,1.53125 2.8655,1.67345 5.7543,3.30322 8.6875,4.84375 -0.01,0.579 -0.068,1.13284 -0.062,1.71875 a 15.0015,15.0015 0 0 0 0,0.0625 c 0.2375,17.02293 8.3095,33.07959 21.9688,43.71875 13.5986,10.59191 31.9828,16.31097 53.9375,17.34375 0.098,0.005 0.1831,0.0268 0.2812,0.0312 l 0,-0.0312 c 5.6267,0.33362 11.519,-0.26675 17.4688,-1.28125 l 0,6.8125 -45.0313,-8.8125 a 15.0015,15.0015 0 0 0 -0.031,0 c -11.3658,-2.18681 -21.6596,-1.97594 -30.75,2.84375 -9.0904,4.81969 -14.9375,15.52507 -14.9375,25.1875 l 0,49.4375 c 0,6.9727 2.1614,16.27918 9.0313,23.9375 6.8699,7.65832 17.4769,12.86183 31.4062,15.125 a 15.0015,15.0015 0 0 0 17.4063,-14.8125 l 0,-33.875 33.5937,6.4375 c 0.8389,4.5382 2.6634,10.02518 6.8125,15.28125 6.317,8.00231 16.9536,14.36333 32.1875,17.65625 a 15.0015,15.0015 0 0 0 18.1563,-14.65625 l 0,-6.8125 52.1875,10.21875 a 15.0015,15.0015 0 0 0 17.875,-14.71875 l 0,-18.875 a 15.0015,15.0015 0 0 0 -10.7815,-14.40615 c -24.5056,-7.19976 -38.3118,-12.86951 -45.9062,-17.96875 -6.7573,-4.53711 -9.6438,-8.492 -13.375,-16.15625 l 0,-46.125 c 9.9479,-1.13973 19.7496,-2.65743 29.25,-4.84375 0.2981,-0.0686 0.6086,-0.11792 0.9062,-0.1875 16.8902,-2.91282 30.3643,-6.95152 42.375,-10.65625 18.1966,-5.61212 32.3869,-11.93607 45.4375,-17.96875 16.642,-7.69197 30.4407,-15.74572 43.125,-23.59375 15.1149,-9.35443 28.065,-18.90851 40,-28.3125 13.5355,-10.6694 25.3515,-21.42164 36.2188,-32.125 11.8721,-11.69214 22.3129,-23.44571 31.8125,-35.1875 10.0788,-12.45865 18.9204,-25.03001 26.75,-37.53125 8.0894,-12.92911 15.0284,-25.92129 21,-38.9375 6.0586,-13.20808 11.0651,-26.44344 15.0937,-39.75 4.0369,-13.32312 7.0838,-26.73827 9.0938,-40.125 0,-0.0101 0,-0.0212 0,-0.0312 1.9986,-13.18837 3.0393,-26.39472 3.0312,-39.6875 0,-12.9593 -1.0253,-25.97644 -3.0625,-38.90625 a 15.0015,15.0015 0 0 0 0,-0.0625 c -2.0083,-12.35458 -4.9454,-24.81546 -9.2187,-37.34375 -3.9781,-11.63194 -8.9408,-23.45941 -15.4375,-35.25 -5.8915,-10.68834 -12.8483,-21.54851 -21.5625,-32.34375 a 15.0015,15.0015 0 0 0 0,-0.0312 c -7.7782,-9.6305 -16.711,-19.20542 -27.3438,-28.6875 -0.01,-0.005 0.01,-0.0262 0,-0.0312 -0.01,-0.005 -0.026,0.005 -0.031,0 -9.4081,-8.39224 -19.9797,-16.82134 -32.3437,-25.03125 a 15.0015,15.0015 0 0 0 -0.031,0 c -10.7481,-7.13103 -22.6474,-14.34485 -36.5313,-21.28125 a 15.0015,15.0015 0 0 0 -0.031,0 c -10.0565,-5.02085 -20.9541,-10.06565 -33.1875,-14.875 l 0,0.0312 c -12.2848,-5.3822 -25.3728,-10.09391 -38.875,-14.375 -1.1543,-12.9362 -5.7279,-27.44534 -16.625,-40 -12.7367,-14.67411 -33.9577,-25.125 -62.5625,-25.125 -11.4193,0 -22.2147,1.39965 -32.375,3.46875 -16.514,-24.14869 -49.189,-48.5625 -94.4687,-48.5625 z"
         id="path21548" />
      <path
         style="font-size:medium;font-style:normal;font-variant:normal;font-weight:normal;font-stretch:normal;text-indent:0;text-align:start;text-decoration:none;line-height:normal;letter-spacing:normal;word-spacing:normal;text-transform:none;direction:ltr;block-progression:tb;writing-mode:lr-tb;text-anchor:start;color:#000000;fill:none;stroke:#eeff08;stroke-width:5.67238283;stroke-miterlimit:4;stroke-opacity:1;stroke-dasharray:none;marker:none;visibility:visible;display:inline;overflow:visible;enable-background:accumulate;font-family:Bitstream Vera Sans;-inkscape-font-specification:Bitstream Vera Sans"
         d="m 1431.5722,104.58783 c -27.8627,0 -50.8572,9.70093 -65.3125,25.84375 -14.1342,15.78429 -18.6875,34.77865 -18.6875,50.25 l 0,31.75 c -2.7716,0.78634 -5.567,1.54161 -8.3125,2.375 -3.8305,1.16269 -7.5458,2.48234 -11.3125,3.75 l -8.375,2.75 c -1.2936,0.42552 -1.468,0.49678 -0.5313,0.1875 -5.8719,1.93881 -11.5522,3.92349 -17.0625,5.96875 -15.6313,5.79966 -29.215,11.96159 -41.4375,18.0625 -0.01,0.003 -0.1226,0.0616 -0.125,0.0625 -5e-4,2e-4 -0.031,-1e-4 -0.031,0 -2e-4,1e-4 -0.031,0 -0.031,0 -12.8988,6.44439 -23.9861,13.14147 -34.125,19.71875 l -0.25,0 -3.7812,2.5 c -12.9634,8.61001 -24.1628,17.45727 -34.0938,26.3125 -10.8257,9.65052 -19.9974,19.47526 -28.0625,29.34375 -0.021,0.0208 -0.042,0.0417 -0.062,0.0625 -0.027,0.0333 -0.067,0.0605 -0.094,0.0937 l -0.4375,0.4375 -0.5,0.59375 c -9.4301,11.69888 -16.7104,23.40666 -22.8437,34.53125 -7.0122,12.71843 -12.2809,25.3684 -16.4688,37.625 l 0,0.0312 c -4.5642,13.37506 -7.7439,26.66583 -9.875,39.78125 -2.264,13.9233 -3.2277,27.73803 -3.25,41.3125 0,0.0208 0,0.0417 0,0.0625 0,8.26054 0.5024,16.49289 1.25,24.71875 l -0.6562,0 2.5937,17.21875 c 2.1367,14.17604 5.4066,28.30041 9.625,42.25 3.8756,12.79177 8.6995,25.58821 14.4063,38.375 l 0,0.34375 1.375,2.9375 0,0.0312 c 6.1574,13.41952 13.2554,26.98152 21.7812,40.59375 8.144,13.00316 17.3776,26.09493 27.8438,39.03125 9.8596,12.17965 20.7587,24.35457 33.0312,36.4375 11.1544,10.9745 23.4012,22.13401 37.4688,33.21875 12.1949,9.6047 25.626,19.53622 41.375,29.28125 12.8026,7.91986 27.1127,16.26911 44.3125,24.25 0,-10e-6 0.061,0.0307 0.062,0.0312 l 0.125,0.0312 0.031,0.0312 c 0.065,0.0303 0.1221,0.0635 0.1875,0.0937 l 0.031,0 0.3125,0.1875 0.375,0.125 c 0.8163,0.37055 1.5623,0.70718 2.2187,1 0.293,0.17007 0.6115,0.3302 0.9063,0.5 1.8658,16.20942 9.312,31.2993 21,42.78125 -12.0715,8.29588 -18.5938,21.67867 -18.5938,35.78125 l 0,49.4375 c 0,10.0725 3.0159,22.94693 12.875,33.9375 9.7394,10.85711 23.8243,17.25271 40.1563,19.90625 8.7674,1.42387 17.4105,-0.95322 24.1875,-6.6875 l 0.062,-0.0625 c 6.779,-5.76882 10.5565,-13.94416 10.5625,-22.84375 0,-0.0105 0,-0.0207 0,-0.0312 l 0,-15.71875 6.875,1.3125 c 1.5618,3.7867 3.7218,7.72637 6.75,11.5625 8.9956,11.39555 23.0888,19.20014 40.8125,23.03125 8.9771,1.93106 18.0112,-0.23233 25.1562,-6 4.1385,-3.34067 7.0725,-7.60339 8.9375,-12.34375 l 36.5313,7.15625 c 8.9121,1.7393 17.8028,-0.50928 24.8125,-6.28125 7.0097,-5.77197 10.9345,-14.07597 10.9375,-23.15625 l 0,-18.875 c 0.01,-13.61118 -8.501,-24.98361 -21.5625,-28.8125 -23.9242,-7.02861 -36.8685,-12.75325 -41.7501,-16.03095 -3.9479,-2.65076 -5.0141,-4.08168 -6.75,-7.46875 l 0,-29.28125 c 5.8999,-0.91362 11.7838,-1.96826 17.625,-3.3125 -0.037,0.009 0.118,-0.006 0.094,0 17.849,-3.07818 32.1283,-7.39584 44.2188,-11.125 0.01,-0.003 0.021,0.003 0.031,0 19.1163,-5.89791 34.1024,-12.59557 47.2812,-18.6875 17.3952,-8.04011 31.8312,-16.44435 44.75,-24.4375 15.7411,-9.74197 29.1762,-19.66939 41.375,-29.28125 14.0502,-11.07511 26.3068,-22.22515 37.4688,-33.21875 12.3202,-12.1335 23.1362,-24.32288 32.9375,-36.4375 10.4841,-12.95969 19.6876,-26.05862 27.8125,-39.03125 8.4402,-13.48979 15.6757,-27.04437 21.9062,-40.625 6.3363,-13.81336 11.5845,-27.69117 15.8125,-41.65625 4.2398,-13.99281 7.4717,-28.11725 9.5937,-42.25 l 0.1563,-1.125 0,-0.25 c 1.9707,-13.4302 3.0379,-26.95443 3.0313,-40.5625 0,-0.0104 0,-0.0209 0,-0.0312 0,-13.20812 -1.0696,-26.46345 -3.0626,-39.625 l 0,-0.5625 -0.1874,-1.15625 c -2.1237,-13.06407 -5.2674,-26.36428 -9.8438,-39.78125 l 0,-0.0312 c -4.2067,-12.30029 -9.5153,-24.94871 -16.5,-37.625 -5.4541,-9.89486 -11.9024,-20.06591 -19.6875,-30.21875 l 0,-0.21875 -3.2187,-3.96875 -0.094,-0.125 -0.031,-0.0312 c -7.9801,-9.88049 -17.2197,-19.74669 -28,-29.46875 -0.023,-0.0204 -0.04,-0.0421 -0.062,-0.0625 -2e-4,-2.1e-4 0,-0.0312 0,-0.0312 -10e-5,-2e-5 -0.1446,-0.11627 -0.1563,-0.125 -0.079,-0.0713 -0.1393,-0.1475 -0.2187,-0.21875 0,0 -0.031,-0.031 -0.031,-0.0312 -0.091,-0.0814 -0.159,-0.16859 -0.25,-0.25 l -0.3125,-0.28125 0,-0.0312 c -0.1643,-0.14653 -0.3663,-0.29091 -0.5313,-0.4375 l -0.9375,-0.84375 -0.1562,-0.0937 c -9.4716,-8.34355 -20.055,-16.73602 -32.4063,-24.9375 l -3.7812,-2.5 -0.25,0 c -10.1482,-6.58177 -21.2132,-13.26833 -34.1251,-19.7191 l -3.1562,-1.5625 -0.1875,0 c -9.4796,-4.6539 -19.6425,-9.34189 -31.0938,-13.84375 l -5.5936,-2.1875 c -8.27,-3.42197 -16.7546,-6.58913 -25.4063,-9.5 -2.5978,-12.81701 -8.1444,-26.42047 -18.6562,-38.53125 -15.8321,-18.24035 -41.6479,-30.28125 -73.9063,-30.28125 -9.1532,0 -17.7152,0.95935 -25.9687,2.25 -20.1949,-24.81319 -54.5823,-47.07692 -100.1563,-47.3125 l 0,-0.0312 -0.375,0 c -0.1162,-2.9e-4 -0.2274,0 -0.3437,0 z"
         id="path21568" />
    </g>
  </g>
</svg>
