<?xml version="1.0" encoding="UTF-8" standalone="no"?>
<!-- Created with Inkscape (http://www.inkscape.org/) -->

<svg
   xmlns:dc="http://purl.org/dc/elements/1.1/"
   xmlns:cc="http://creativecommons.org/ns#"
   xmlns:rdf="http://www.w3.org/1999/02/22-rdf-syntax-ns#"
   xmlns:svg="http://www.w3.org/2000/svg"
   xmlns="http://www.w3.org/2000/svg"
   xmlns:sodipodi="http://sodipodi.sourceforge.net/DTD/sodipodi-0.dtd"
   xmlns:inkscape="http://www.inkscape.org/namespaces/inkscape"
   width="3200"
   height="1000"
   id="svg10075"
   sodipodi:version="0.32"
   inkscape:version="0.47 r22583"
   sodipodi:docname="LineDemo.svg"
   inkscape:output_extension="org.inkscape.output.svg.inkscape"
   version="1.0">
  <sodipodi:namedview
     id="base"
     pagecolor="#ffffff"
     bordercolor="#666666"
     borderopacity="1.0"
     inkscape:pageopacity="0.0"
     inkscape:pageshadow="2"
     inkscape:zoom="0.255625"
     inkscape:cx="1790.2652"
     inkscape:cy="454.61887"
     inkscape:document-units="px"
     inkscape:current-layer="layer1"
     showgrid="false"
     inkscape:window-width="1024"
     inkscape:window-height="574"
     inkscape:window-x="-4"
     inkscape:window-y="-4"
     inkscape:window-maximized="1" />
  <defs
     id="defs10077">
    <inkscape:perspective
       id="perspective10083"
       inkscape:persp3d-origin="372.04724 : 350.78739 : 1"
       inkscape:vp_z="744.09448 : 526.18109 : 1"
       inkscape:vp_y="0 : 1000 : 0"
       inkscape:vp_x="0 : 526.18109 : 1"
       sodipodi:type="inkscape:persp3d" />
    <inkscape:perspective
       sodipodi:type="inkscape:persp3d"
       inkscape:vp_x="0 : 0.5 : 1"
       inkscape:vp_y="0 : 1000 : 0"
       inkscape:vp_z="1 : 0.5 : 1"
       inkscape:persp3d-origin="0.5 : 0.33333333 : 1"
       id="perspective2822" />
    <inkscape:perspective
       sodipodi:type="inkscape:persp3d"
       inkscape:vp_x="0 : 0.5 : 1"
       inkscape:vp_y="0 : 1000 : 0"
       inkscape:vp_z="1 : 0.5 : 1"
       inkscape:persp3d-origin="0.5 : 0.33333333 : 1"
       id="perspective2844" />
  </defs>
  <metadata
     id="metadata10080">
    <rdf:RDF>
      <cc:Work
         rdf:about="">
        <dc:format>image/svg+xml</dc:format>
        <dc:type
           rdf:resource="http://purl.org/dc/dcmitype/StillImage" />
        <dc:title />
      </cc:Work>
    </rdf:RDF>
  </metadata>
  <g
     id="layer1"
     inkscape:groupmode="layer"
     inkscape:label="Layer 1">
    <path
       id="path2812"
       d="M 3.8822711,453.86292 543.74562,931.23718 1537.407,52.591795 2544.7609,943.34454 3201.9857,362.19323 2847.945,49.132561 1842.5473,938.15567 841.06165,52.591795 5.8382977,791.13821 168.18852,934.69642 1165.7622,52.591795 2159.4236,931.23718 3153.0849,52.591795 3205.8978,99.291451 2263.093,932.96679 1269.4315,54.321412 273.81394,934.69642 -1.9858085,690.82043 719.78799,52.591795 1715.4055,932.96679 2707.1111,56.051028 3201.9857,493.6441 2701.2429,936.42604 1703.6694,54.321412 706.09581,936.42604 1.9262446,313.76395 295.33023,54.321412 1288.9918,932.96679 2284.6092,52.591795 3200.0297,862.0525 3108.0964,943.34454 2100.7428,52.591795 1099.2571,938.15567 97.771548,52.591795 3.8822711,135.6134 907.56654,934.69642 1911.0082,47.402944 c 0,0 1007.4496,914.990036 1013.2218,895.941596 5.7721,-19.04855 279.7118,-247.33526 279.7118,-247.33526 L 2478.2559,54.321412 1486.5505,931.23718 496.80098,56.051028 5.8382977,490.18487"
       style="fill:none;stroke:#000000;stroke-width:0.94036329px;stroke-linecap:butt;stroke-linejoin:miter;stroke-opacity:1" />
    <path
       id="path2812-1"
       d="M 68.429939,449.78505 608.29329,927.15931 1601.9547,48.513924 2609.3086,939.26667 3266.5334,358.11536 2912.4927,45.05469 1907.095,934.0778 905.60932,48.513924 70.385966,787.06034 232.73619,930.61855 1230.3099,48.513924 2223.9713,927.15931 3217.6326,48.513924 3270.4455,95.21358 2327.6407,928.88892 1333.9792,50.243541 338.36161,930.61855 62.561859,686.74256 784.33566,48.513924 1779.9532,928.88892 2771.6588,51.973157 3266.5334,489.56623 2765.7906,932.34817 1768.2171,50.243541 770.64348,932.34817 66.473912,309.68608 359.8779,50.243541 1353.5395,928.88892 2349.1569,48.513924 3264.5774,857.97463 3172.6441,939.26667 2165.2905,48.513924 1163.8048,934.0778 162.31922,48.513924 68.429939,131.53553 972.11421,930.61855 1975.5559,43.325073 c 0,0 1007.4496,914.990037 1013.2218,895.941597 5.7721,-19.04855 279.7118,-247.33526 279.7118,-247.33526 L 2542.8036,50.243541 1551.0982,927.15931 561.34865,51.973157 70.385966,486.107"
       style="fill:none;stroke:#000000;stroke-width:0.94036329px;stroke-linecap:butt;stroke-linejoin:miter;stroke-opacity:1" />
    <path
       id="path2812-1-7"
       d="M -138.90503,449.78505 400.95832,927.15931 1394.6197,48.513924 2401.9736,939.26667 3059.1984,358.11536 2705.1577,45.05469 1699.76,934.0778 698.27435,48.513924 -136.949,787.06034 25.401224,930.61855 1022.9749,48.513924 2016.6363,927.15931 3010.2976,48.513924 3063.1105,95.21358 2120.3057,928.88892 1126.6442,50.243541 131.02664,930.61855 -144.77311,686.74256 577.00069,48.513924 1572.6182,928.88892 2564.3238,51.973157 3059.1984,489.56623 2558.4556,932.34817 1560.8821,50.243541 563.30851,932.34817 -140.86106,309.68608 152.54293,50.243541 1146.2045,928.88892 2141.8219,48.513924 3057.2424,857.97463 2965.3091,939.26667 1957.9555,48.513924 956.46981,934.0778 -45.015746,48.513924 -138.90503,131.53553 764.77924,930.61855 1768.2209,43.325073 c 0,0 1007.4496,914.990037 1013.2218,895.941597 5.7721,-19.04855 279.7118,-247.33526 279.7118,-247.33526 L 2335.4686,50.243541 1343.7632,927.15931 354.01368,51.973157 -136.949,486.107"
       style="fill:none;stroke:#000000;stroke-width:0.94036329px;stroke-linecap:butt;stroke-linejoin:miter;stroke-opacity:1" />
  </g>
</svg>
