<?xml version="1.0" encoding="utf-8"?>
<!-- Generator: Adobe Illustrator 12.0.1, SVG Export Plug-In . SVG Version: 6.00 Build 51448)  -->
<!DOCTYPE svg PUBLIC "-//W3C//DTD SVG 1.1//EN" "http://www.w3.org/Graphics/SVG/1.1/DTD/svg11.dtd" [
	<!ENTITY ns_svg "http://www.w3.org/2000/svg">
	<!ENTITY ns_xlink "http://www.w3.org/1999/xlink">
]>
<svg  version="1.1" id="Layer_1" xmlns="&ns_svg;" xmlns:xlink="&ns_xlink;" width="95.447" height="43.973"
	 viewBox="0 0 95.447 43.973" overflow="visible" enable-background="new 0 0 95.447 43.973" xml:space="preserve">
<path d="M95.141,21.447c-0.158-0.231-0.352-0.419-0.566-0.585c-0.377-0.287-0.826-0.512-1.346-0.71
	c-0.777-0.296-1.717-0.522-2.775-0.68c-0.293-0.043-0.594-0.08-0.902-0.112c0.703-0.577,1.324-1.155,1.842-1.716
	c0.492-0.534,0.893-1.052,1.188-1.559c0.145-0.254,0.266-0.506,0.354-0.762c0.088-0.258,0.145-0.524,0.145-0.807
	c0-0.155-0.018-0.315-0.061-0.476c-0.043-0.158-0.113-0.318-0.207-0.463c-0.105-0.16-0.24-0.3-0.387-0.407
	c-0.221-0.168-0.465-0.267-0.707-0.326c-0.244-0.061-0.492-0.085-0.75-0.085c-0.457,0-0.947,0.076-1.475,0.207
	c-0.791,0.197-1.668,0.524-2.602,0.965s-1.92,0.992-2.914,1.644c-1.889,1.241-3.23,2.854-4.109,4.153
	c-0.273,0.401-0.502,0.776-0.688,1.1c-0.35-0.28-0.795-0.449-1.279-0.449c-0.373,0-0.723,0.104-1.025,0.277
	c-0.129-0.233-0.283-0.451-0.459-0.651c0.803-0.396,1.525-0.982,2.051-1.732c1.754-2.693,1.092-5.824,0.018-7.932
	c-1.137-2.157-2.832-3.249-3.547-3.634c-0.695-0.409-2.528-1.167-4.792-1.083c-1.045,0.011-2.174,0.191-3.311,0.518
	c-0.067-0.822-0.274-1.743-0.742-2.708c-1.299-2.662-4.736-3.718-7.329-3.364c-2.635,0.267-5.111,1.16-6.879,2.468
	C50.124,3.83,49.176,5.229,48.7,5.854c-0.462,0.642-0.783,1.277-0.966,1.813c-0.184-0.536-0.504-1.172-0.966-1.813
	c-0.335-0.415-1.197-1.789-2.954-3.154c-1.766-1.386-4.384-2.369-7.161-2.631c-2.725-0.396-6.397,0.945-7.441,3.758
	c-0.336,0.852-0.5,1.632-0.566,2.326c-1.148-0.331-2.289-0.516-3.344-0.527c-2.265-0.084-4.098,0.674-4.792,1.083
	c-0.716,0.385-2.41,1.477-3.547,3.634c-1.075,2.107-1.736,5.238,0.017,7.932c0.525,0.75,1.249,1.337,2.051,1.732
	c-0.175,0.2-0.33,0.418-0.459,0.651c-0.301-0.174-0.651-0.277-1.026-0.277c-0.483,0-0.928,0.169-1.279,0.449
	c-0.186-0.323-0.414-0.698-0.686-1.1c-0.88-1.3-2.22-2.912-4.109-4.153c-0.995-0.651-1.981-1.203-2.914-1.644
	c-0.934-0.44-1.812-0.768-2.602-0.965c-0.528-0.131-1.017-0.207-1.478-0.207c-0.255,0-0.503,0.024-0.748,0.085
	c-0.243,0.06-0.486,0.158-0.707,0.326c-0.147,0.107-0.281,0.247-0.387,0.407c-0.095,0.145-0.163,0.305-0.208,0.463
	c-0.043,0.16-0.062,0.32-0.062,0.476c0,0.282,0.058,0.549,0.145,0.807c0.088,0.256,0.209,0.508,0.355,0.762
	c0.293,0.507,0.695,1.024,1.187,1.559c0.516,0.561,1.138,1.139,1.842,1.716c-0.309,0.032-0.611,0.069-0.902,0.112
	c-1.061,0.157-2,0.384-2.776,0.68c-0.52,0.198-0.969,0.423-1.345,0.71c-0.215,0.166-0.409,0.354-0.567,0.585
	C0.126,21.709-0.001,22.045,0,22.403c-0.001,0.359,0.126,0.695,0.306,0.956c0.18,0.265,0.407,0.472,0.66,0.655
	c0.507,0.36,1.139,0.628,1.886,0.854c0.722,0.218,1.558,0.391,2.472,0.511c-0.1,0.08-0.206,0.158-0.301,0.238
	c-0.838,0.692-1.53,1.379-2.042,2.041c-0.341,0.441-0.606,0.874-0.772,1.323c-0.093,0.259-0.156,0.527-0.156,0.814
	c-0.001,0.287,0.068,0.598,0.231,0.869l0.002,0.002C2.393,30.847,2.535,31,2.69,31.119c0.157,0.12,0.327,0.208,0.499,0.274
	c0.345,0.127,0.702,0.169,1.076,0.169c0.453,0,0.938-0.064,1.46-0.181c0.523-0.117,1.083-0.286,1.673-0.502
	c1.178-0.434,2.477-1.057,3.793-1.846c1.94-1.163,3.346-2.718,4.278-3.979c0.288-0.39,0.531-0.754,0.729-1.071
	c0.361,0.313,0.831,0.505,1.345,0.505c0.375,0,0.725-0.103,1.026-0.274c0.628,1.135,1.836,1.904,3.226,1.904
	c1.508,0,2.802-0.907,3.373-2.204c0.396,0.425,0.958,0.693,1.586,0.693c0.303,0,0.592-0.063,0.854-0.175
	c0.765,1.701,2.472,2.891,4.459,2.891c1.939,0,3.609-1.132,4.399-2.769c0.598,0.696,1.482,1.139,2.473,1.139
	c1.231,0,2.301-0.684,2.854-1.688c1.378,1.015,2.46,1.819,2.989,2.329c-0.262,0.478-0.412,1.027-0.412,1.611
	c0,1.504,0.989,2.779,2.352,3.207c-0.92,0.392-1.567,1.305-1.567,2.37c0,1.304,0.97,2.379,2.226,2.549
	c-0.51,0.727-1.295,2.101-1.295,3.678c0,2.332,0.77,4.223,1.718,4.223s1.718-1.891,1.718-4.223c0-1.592-0.8-2.978-1.309-3.696
	c1.193-0.225,2.096-1.271,2.096-2.53c0-1.065-0.646-1.979-1.567-2.37c1.363-0.428,2.352-1.703,2.352-3.207
	c0-0.584-0.15-1.134-0.412-1.612c0.39-0.373,1.496-1.191,2.988-2.295c0.561,0.987,1.619,1.655,2.836,1.655
	c0.989,0,1.874-0.442,2.471-1.139c0.791,1.637,2.462,2.769,4.401,2.769c1.986,0,3.694-1.189,4.458-2.891
	c0.263,0.111,0.552,0.175,0.854,0.175c0.627,0,1.19-0.269,1.586-0.693c0.571,1.297,1.865,2.204,3.373,2.204
	c1.389,0,2.598-0.77,3.225-1.904c0.303,0.172,0.652,0.274,1.025,0.274c0.516,0,0.986-0.191,1.346-0.505
	c0.199,0.317,0.441,0.682,0.73,1.071c0.934,1.261,2.338,2.815,4.277,3.979c1.316,0.789,2.615,1.412,3.793,1.846
	c0.59,0.216,1.15,0.385,1.674,0.502c0.521,0.116,1.006,0.181,1.461,0.181c0.373,0,0.73-0.042,1.076-0.169
	c0.172-0.066,0.342-0.154,0.498-0.274c0.156-0.119,0.297-0.272,0.404-0.451l0.002-0.002c0.164-0.271,0.232-0.582,0.23-0.869
	c0-0.287-0.061-0.556-0.154-0.814c-0.166-0.449-0.432-0.882-0.771-1.323c-0.514-0.662-1.205-1.349-2.043-2.041
	c-0.098-0.08-0.201-0.158-0.301-0.238c0.914-0.12,1.75-0.293,2.471-0.511c0.748-0.227,1.379-0.494,1.887-0.854
	c0.254-0.184,0.479-0.391,0.66-0.655c0.178-0.261,0.307-0.597,0.307-0.956C95.447,22.045,95.318,21.709,95.141,21.447z
	 M5.191,23.582c-0.979-0.147-1.82-0.363-2.427-0.605c-0.405-0.158-0.706-0.331-0.865-0.465c-0.053-0.044-0.088-0.08-0.11-0.108
	c0.035-0.041,0.1-0.104,0.201-0.177c0.26-0.19,0.743-0.417,1.371-0.604c1.191-0.36,2.899-0.606,4.793-0.629
	c0.886,0.561,1.793,0.983,2.664,1.303c-0.939,0.3-1.926,0.71-2.889,1.286c-0.121,0.073-0.234,0.146-0.352,0.218
	C6.725,23.769,5.918,23.694,5.191,23.582z M3.814,29.792L3.814,29.792l0.031,0.054L3.814,29.792z M10.289,27.523
	c-0.923,0.552-1.833,1.015-2.677,1.377c-0.844,0.36-1.622,0.618-2.269,0.763c-0.428,0.096-0.8,0.141-1.077,0.14
	c-0.16,0-0.289-0.015-0.374-0.035c-0.031-0.007-0.053-0.014-0.071-0.021c0.005-0.036,0.017-0.09,0.042-0.161
	c0.042-0.113,0.114-0.264,0.22-0.434c0.21-0.342,0.551-0.763,0.999-1.211c0.742-0.75,1.775-1.579,2.988-2.366
	c0.137,0,0.272,0.006,0.412,0.006c1.96,0,3.728-0.46,5.108-0.978C12.774,25.603,11.671,26.696,10.289,27.523z M8.678,19.229
	c-0.866-0.583-1.652-1.191-2.311-1.781c-0.73-0.651-1.312-1.283-1.696-1.816c-0.256-0.354-0.421-0.665-0.492-0.878
	c-0.03-0.083-0.043-0.149-0.048-0.192c0.062-0.02,0.179-0.04,0.346-0.039c0.259-0.001,0.624,0.047,1.05,0.155
	c0.428,0.106,0.919,0.27,1.451,0.484c1.065,0.432,2.288,1.076,3.524,1.887c1.432,0.938,2.538,2.165,3.32,3.244
	C12.457,19.761,10.672,19.263,8.678,19.229z M27.609,20.439c-0.262-0.113-0.551-0.176-0.854-0.176c-0.628,0-1.19,0.267-1.586,0.691
	c-0.24-0.547-0.611-1.022-1.07-1.392c0.092-0.091,0.182-0.185,0.267-0.289c0.789-1.037,0.871-2.197,0.532-3.115
	c-0.412-0.932-1.202-1.181-1.528-1.257c-0.088-0.024-0.184-0.036-0.281-0.045c-0.069-0.009-0.139-0.016-0.211-0.016
	c-0.394,0-0.751,0.156-1.018,0.405c-0.036,0.033-0.067,0.069-0.1,0.106c-0.014,0.016-0.029,0.033-0.042,0.051
	c-0.018,0.021-0.039,0.04-0.055,0.064c-0.004,0.008-0.008,0.017-0.013,0.025c-0.161,0.237-0.254,0.522-0.254,0.831
	c0,0.82,0.664,1.483,1.483,1.483c0.346,0,0.663-0.118,0.916-0.317c-0.075,0.38-0.259,0.778-0.593,1.082
	c-0.118,0.129-0.262,0.229-0.423,0.313c-0.313-0.086-0.64-0.135-0.98-0.135c-0.44,0-0.862,0.077-1.253,0.218
	c-0.876-0.251-1.722-0.794-2.189-1.588c-1.082-1.663-0.706-4.276,0.167-5.847c0.879-1.681,2.223-2.593,2.987-3.004
	c0.942-0.815,4.005-1.334,7.182-0.495c0.069,0.491,0.162,0.869,0.207,1.111c0.14,0.794,0.651,2.553,1.792,4.501
	c0.893,1.529,2.209,3.073,3.682,4.477c-0.685-0.367-1.469-0.578-2.302-0.578C30.081,17.547,28.374,18.734,27.609,20.439z
	 M39.283,19.194c-0.426-0.376-0.855-0.757-1.283-1.142c-3.18-2.73-5.138-6.286-5.784-8.436c0.083,0.057,0.165,0.112,0.247,0.169
	c4.255,2.632,6.353,7.145,6.551,7.887c0.216,0.572,0.409,1.114,0.585,1.57C39.494,19.223,39.389,19.207,39.283,19.194z
	 M49.414,25.038c-0.494-0.287-1.067-0.452-1.68-0.452c-0.613,0-1.185,0.165-1.68,0.452c-0.392-0.418-1.965-1.719-3.958-3.414
	c-0.215-0.836-0.755-1.543-1.476-1.977c-0.007-0.616-0.143-1.479-0.487-2.396c-0.475-1.55-2.935-6.549-7.607-9.38
	c-0.247-0.153-0.5-0.298-0.755-0.436c-0.118-0.813-0.137-1.783,0.244-2.697c0.506-1.332,2.371-2.282,4.554-2.187
	c2.186,0.067,4.399,0.688,5.872,1.657c1.509,0.958,2.433,2.146,2.862,2.719c0.972,1.341,1.985,2.384,2.432,2.131
	c0.446,0.253,1.459-0.79,2.431-2.131c0.299-0.38,1.161-1.563,2.672-2.586c1.473-1.033,3.797-1.728,6.103-1.792
	c2.306-0.098,4.214,0.977,4.596,2.399c0.303,0.858,0.277,1.755,0.176,2.469c-0.268,0.142-0.531,0.293-0.79,0.453
	c-4.673,2.831-7.133,7.83-7.608,9.38c-0.343,0.918-0.478,1.78-0.485,2.396c-0.742,0.445-1.29,1.179-1.493,2.048
	C51.541,23.197,50.046,24.404,49.414,25.038z M58.157,17.431c-0.626,0.598-1.271,1.188-1.914,1.759
	c-0.133,0.012-0.266,0.027-0.394,0.054c0.175-0.456,0.368-0.998,0.584-1.57c0.198-0.742,2.295-5.255,6.551-7.887
	c0.089-0.063,0.179-0.123,0.269-0.185C62.7,11.472,61.135,14.771,58.157,17.431z M74.902,18.97
	c-0.391-0.141-0.813-0.218-1.252-0.218c-0.34,0-0.669,0.049-0.98,0.135c-0.161-0.084-0.306-0.185-0.423-0.313
	c-0.333-0.304-0.518-0.702-0.593-1.082c0.252,0.199,0.569,0.317,0.915,0.317c0.819,0,1.483-0.663,1.483-1.483
	c0-0.309-0.094-0.594-0.254-0.831c-0.005-0.009-0.009-0.018-0.014-0.025c-0.017-0.024-0.037-0.044-0.055-0.064
	c-0.014-0.018-0.028-0.035-0.043-0.051c-0.032-0.037-0.063-0.073-0.1-0.106c-0.267-0.249-0.623-0.405-1.019-0.405
	c-0.071,0-0.142,0.007-0.21,0.016c-0.099,0.009-0.194,0.021-0.282,0.045c-0.326,0.076-1.116,0.325-1.528,1.257
	c-0.337,0.918-0.256,2.078,0.532,3.115c0.084,0.104,0.175,0.198,0.267,0.289c-0.46,0.369-0.829,0.845-1.07,1.392
	c-0.396-0.425-0.959-0.691-1.586-0.691c-0.303,0-0.592,0.063-0.854,0.176c-0.764-1.705-2.472-2.893-4.458-2.893
	c-0.787,0-1.529,0.19-2.187,0.52c1.23-1.189,2.354-2.479,3.203-3.802c1.312-2.033,2.011-4.017,2.175-5.117
	c0.055-0.276,0.139-0.656,0.202-1.114c3.171-0.832,6.226-0.315,7.165,0.498c0.764,0.411,2.11,1.323,2.989,3.004
	c0.873,1.57,1.248,4.184,0.166,5.847C76.625,18.176,75.779,18.719,74.902,18.97z M81.621,20.293c0.785-1.079,1.891-2.307,3.32-3.244
	c1.238-0.811,2.461-1.455,3.525-1.887c0.531-0.215,1.023-0.378,1.451-0.484c0.426-0.108,0.791-0.156,1.049-0.155
	c0.168-0.001,0.285,0.02,0.348,0.039c-0.006,0.043-0.018,0.109-0.047,0.192c-0.07,0.213-0.236,0.524-0.494,0.878
	c-0.381,0.533-0.965,1.165-1.693,1.816c-0.66,0.59-1.445,1.198-2.311,1.781C84.773,19.263,82.988,19.761,81.621,20.293z
	 M91.633,29.792l-0.031,0.054L91.633,29.792L91.633,29.792z M90.365,27.94c0.447,0.448,0.787,0.869,0.998,1.211
	c0.105,0.17,0.178,0.32,0.221,0.434c0.025,0.071,0.037,0.125,0.043,0.161c-0.018,0.008-0.043,0.015-0.072,0.021
	c-0.086,0.021-0.213,0.035-0.373,0.035c-0.277,0.001-0.648-0.044-1.078-0.14c-0.646-0.145-1.424-0.402-2.268-0.763
	c-0.844-0.362-1.756-0.825-2.678-1.377c-1.383-0.827-2.486-1.921-3.301-2.921c1.379,0.518,3.146,0.978,5.107,0.978
	c0.139,0,0.275-0.006,0.412-0.006C88.59,26.361,89.623,27.19,90.365,27.94z M93.547,22.512c-0.158,0.134-0.459,0.307-0.863,0.465
	c-0.609,0.242-1.449,0.458-2.428,0.605c-0.729,0.112-1.535,0.187-2.387,0.218c-0.119-0.071-0.232-0.145-0.352-0.218
	c-0.965-0.576-1.951-0.986-2.891-1.286c0.871-0.319,1.779-0.742,2.664-1.303c1.895,0.022,3.604,0.269,4.793,0.629
	c0.629,0.188,1.111,0.414,1.373,0.604c0.102,0.072,0.166,0.136,0.201,0.177C93.635,22.432,93.6,22.468,93.547,22.512z"/>
</svg>
