<?xml version="1.0" encoding="UTF-8" standalone="no"?>
<!-- Created with Inkscape (http://www.inkscape.org/) -->

<svg
   xmlns:dc="http://purl.org/dc/elements/1.1/"
   xmlns:cc="http://creativecommons.org/ns#"
   xmlns:rdf="http://www.w3.org/1999/02/22-rdf-syntax-ns#"
   xmlns:svg="http://www.w3.org/2000/svg"
   xmlns="http://www.w3.org/2000/svg"
   xmlns:sodipodi="http://sodipodi.sourceforge.net/DTD/sodipodi-0.dtd"
   xmlns:inkscape="http://www.inkscape.org/namespaces/inkscape"
   width="3200"
   height="1000"
   id="svg10075"
   sodipodi:version="0.32"
   inkscape:version="0.47 r22583"
   sodipodi:docname="New document 1"
   inkscape:output_extension="org.inkscape.output.svg.inkscape"
   version="1.0">
  <sodipodi:namedview
     id="base"
     pagecolor="#ffffff"
     bordercolor="#666666"
     borderopacity="1.0"
     inkscape:pageopacity="0.0"
     inkscape:pageshadow="2"
     inkscape:zoom="0.20417708"
     inkscape:cx="2216.8375"
     inkscape:cy="374.30143"
     inkscape:document-units="px"
     inkscape:current-layer="layer1"
     showgrid="false"
     inkscape:window-width="1024"
     inkscape:window-height="574"
     inkscape:window-x="-4"
     inkscape:window-y="-4"
     inkscape:window-maximized="1" />
  <defs
     id="defs10077">
    <inkscape:perspective
       id="perspective10083"
       inkscape:persp3d-origin="372.04724 : 350.78739 : 1"
       inkscape:vp_z="744.09448 : 526.18109 : 1"
       inkscape:vp_y="0 : 1000 : 0"
       inkscape:vp_x="0 : 526.18109 : 1"
       sodipodi:type="inkscape:persp3d" />
    <inkscape:perspective
       sodipodi:type="inkscape:persp3d"
       inkscape:vp_x="0 : 0.5 : 1"
       inkscape:vp_y="0 : 1000 : 0"
       inkscape:vp_z="1 : 0.5 : 1"
       inkscape:persp3d-origin="0.5 : 0.33333333 : 1"
       id="perspective2900" />
    <inkscape:perspective
       id="perspective3034"
       inkscape:persp3d-origin="0.5 : 0.33333333 : 1"
       inkscape:vp_z="1 : 0.5 : 1"
       inkscape:vp_y="0 : 1000 : 0"
       inkscape:vp_x="0 : 0.5 : 1"
       sodipodi:type="inkscape:persp3d" />
  </defs>
  <metadata
     id="metadata10080">
    <rdf:RDF>
      <cc:Work
         rdf:about="">
        <dc:format>image/svg+xml</dc:format>
        <dc:type
           rdf:resource="http://purl.org/dc/dcmitype/StillImage" />
        <dc:title></dc:title>
      </cc:Work>
    </rdf:RDF>
  </metadata>
  <g
     id="layer1"
     inkscape:groupmode="layer"
     inkscape:label="Layer 1">
    <path
       sodipodi:type="star"
       style="fill:none;stroke:#000000;stroke-opacity:1"
       id="use2954"
       sodipodi:sides="17"
       sodipodi:cx="1544.5887"
       sodipodi:cy="480.51947"
       sodipodi:r1="197.67586"
       sodipodi:r2="203.98409"
       sodipodi:arg1="-1.6233795"
       sodipodi:arg2="-1.4385799"
       inkscape:flatsided="true"
       inkscape:rounded="10"
       inkscape:randomized="0"
       d="m 1534.1991,283.11684 c 725.4528,-38.18181 -618.24577,-216.88331 72.0117,9.57699 690.2574,226.46029 -498.1498,-425.5738 63.6892,34.94388 561.839,460.51768 -310.7758,-576.78819 46.7653,55.59142 357.5411,632.37957 -81.4299,-650.10414 23.5254,68.73101 104.9552,718.83516 158.9136,-635.61992 -2.8918,72.58811 -161.8053,708.20805 377.7949,-535.291716 -28.9183,66.64178 -406.7132,601.93347 545.6529,-362.6694 -51.0393,51.69511 -596.6923,414.36446 639.8175,-141.06657 -66.2672,29.76672 -706.08466,170.83329 647.5712,99.58809 -72.5453,3.81818 -720.11642,-95.76991 567.8668,326.79286 -69.0257,-22.64603 -636.89252,-349.43885 411.4688,509.86239 -56.1839,-46.05177 -467.65272,-555.914133 199.4997,624.07216 -35.7541,-63.23796 -235.2538,-687.31014 -39.4129,653.99762 -10.4955,-71.88351 28.9174,-725.8811 -273.0027,595.59703 16.1805,-70.82081 289.1832,-666.41779 -469.72184,456.75773 40.6713,-60.19335 510.3932,-516.95107 -603.00247,256.2308 59.6692,-41.43645 662.6718,-297.6672403 -654.84427,21.09848 70.6085,-17.08332 z"
       transform="translate(-1215.5844,13.852814)"
       inkscape:tile-x0="6.8579723"
       inkscape:tile-y0="172.37392" />
    <path
       sodipodi:type="star"
       style="fill:none;stroke:#000000;stroke-opacity:1"
       id="use2956"
       sodipodi:sides="17"
       sodipodi:cx="1544.5887"
       sodipodi:cy="480.51947"
       sodipodi:r1="197.67586"
       sodipodi:r2="203.98409"
       sodipodi:arg1="-1.6233795"
       sodipodi:arg2="-1.4385799"
       inkscape:flatsided="true"
       inkscape:rounded="10"
       inkscape:randomized="0"
       d="m 1534.1991,283.11684 c 725.4528,-38.18181 -618.24577,-216.88331 72.0117,9.57699 690.2574,226.46029 -498.1498,-425.5738 63.6892,34.94388 561.839,460.51768 -310.7758,-576.78819 46.7653,55.59142 357.5411,632.37957 -81.4299,-650.10414 23.5254,68.73101 104.9552,718.83516 158.9136,-635.61992 -2.8918,72.58811 -161.8053,708.20805 377.7949,-535.291716 -28.9183,66.64178 -406.7132,601.93347 545.6529,-362.6694 -51.0393,51.69511 -596.6923,414.36446 639.8175,-141.06657 -66.2672,29.76672 -706.08466,170.83329 647.5712,99.58809 -72.5453,3.81818 -720.11642,-95.76991 567.8668,326.79286 -69.0257,-22.64603 -636.89252,-349.43885 411.4688,509.86239 -56.1839,-46.05177 -467.65272,-555.914133 199.4997,624.07216 -35.7541,-63.23796 -235.2538,-687.31014 -39.4129,653.99762 -10.4955,-71.88351 28.9174,-725.8811 -273.0027,595.59703 16.1805,-70.82081 289.1832,-666.41779 -469.72184,456.75773 40.6713,-60.19335 510.3932,-516.95107 -603.00247,256.2308 59.6692,-41.43645 662.6718,-297.6672403 -654.84427,21.09848 70.6085,-17.08332 z"
       transform="translate(-894.76754,13.852814)"
       inkscape:tile-x0="6.8579723"
       inkscape:tile-y0="172.37392" />
    <path
       sodipodi:type="star"
       style="fill:none;stroke:#000000;stroke-opacity:1"
       id="use2958"
       sodipodi:sides="17"
       sodipodi:cx="1544.5887"
       sodipodi:cy="480.51947"
       sodipodi:r1="197.67586"
       sodipodi:r2="203.98409"
       sodipodi:arg1="-1.6233795"
       sodipodi:arg2="-1.4385799"
       inkscape:flatsided="true"
       inkscape:rounded="10"
       inkscape:randomized="0"
       d="m 1534.1991,283.11684 c 725.4528,-38.18181 -618.24577,-216.88331 72.0117,9.57699 690.2574,226.46029 -498.1498,-425.5738 63.6892,34.94388 561.839,460.51768 -310.7758,-576.78819 46.7653,55.59142 357.5411,632.37957 -81.4299,-650.10414 23.5254,68.73101 104.9552,718.83516 158.9136,-635.61992 -2.8918,72.58811 -161.8053,708.20805 377.7949,-535.291716 -28.9183,66.64178 -406.7132,601.93347 545.6529,-362.6694 -51.0393,51.69511 -596.6923,414.36446 639.8175,-141.06657 -66.2672,29.76672 -706.08466,170.83329 647.5712,99.58809 -72.5453,3.81818 -720.11642,-95.76991 567.8668,326.79286 -69.0257,-22.64603 -636.89252,-349.43885 411.4688,509.86239 -56.1839,-46.05177 -467.65272,-555.914133 199.4997,624.07216 -35.7541,-63.23796 -235.2538,-687.31014 -39.4129,653.99762 -10.4955,-71.88351 28.9174,-725.8811 -273.0027,595.59703 16.1805,-70.82081 289.1832,-666.41779 -469.72184,456.75773 40.6713,-60.19335 510.3932,-516.95107 -603.00247,256.2308 59.6692,-41.43645 662.6718,-297.6672403 -654.84427,21.09848 70.6085,-17.08332 z"
       transform="translate(-573.95068,13.852814)"
       inkscape:tile-x0="6.8579723"
       inkscape:tile-y0="172.37392" />
    <path
       sodipodi:type="star"
       style="fill:none;stroke:#000000;stroke-opacity:1"
       id="use2960"
       sodipodi:sides="17"
       sodipodi:cx="1544.5887"
       sodipodi:cy="480.51947"
       sodipodi:r1="197.67586"
       sodipodi:r2="203.98409"
       sodipodi:arg1="-1.6233795"
       sodipodi:arg2="-1.4385799"
       inkscape:flatsided="true"
       inkscape:rounded="10"
       inkscape:randomized="0"
       d="m 1534.1991,283.11684 c 725.4528,-38.18181 -618.24577,-216.88331 72.0117,9.57699 690.2574,226.46029 -498.1498,-425.5738 63.6892,34.94388 561.839,460.51768 -310.7758,-576.78819 46.7653,55.59142 357.5411,632.37957 -81.4299,-650.10414 23.5254,68.73101 104.9552,718.83516 158.9136,-635.61992 -2.8918,72.58811 -161.8053,708.20805 377.7949,-535.291716 -28.9183,66.64178 -406.7132,601.93347 545.6529,-362.6694 -51.0393,51.69511 -596.6923,414.36446 639.8175,-141.06657 -66.2672,29.76672 -706.08466,170.83329 647.5712,99.58809 -72.5453,3.81818 -720.11642,-95.76991 567.8668,326.79286 -69.0257,-22.64603 -636.89252,-349.43885 411.4688,509.86239 -56.1839,-46.05177 -467.65272,-555.914133 199.4997,624.07216 -35.7541,-63.23796 -235.2538,-687.31014 -39.4129,653.99762 -10.4955,-71.88351 28.9174,-725.8811 -273.0027,595.59703 16.1805,-70.82081 289.1832,-666.41779 -469.72184,456.75773 40.6713,-60.19335 510.3932,-516.95107 -603.00247,256.2308 59.6692,-41.43645 662.6718,-297.6672403 -654.84427,21.09848 70.6085,-17.08332 z"
       transform="translate(-253.13382,13.852814)"
       inkscape:tile-x0="6.8579723"
       inkscape:tile-y0="172.37392" />
    <path
       sodipodi:type="star"
       style="fill:none;stroke:#000000;stroke-opacity:1"
       id="use2962"
       sodipodi:sides="17"
       sodipodi:cx="1544.5887"
       sodipodi:cy="480.51947"
       sodipodi:r1="197.67586"
       sodipodi:r2="203.98409"
       sodipodi:arg1="-1.6233795"
       sodipodi:arg2="-1.4385799"
       inkscape:flatsided="true"
       inkscape:rounded="10"
       inkscape:randomized="0"
       d="m 1534.1991,283.11684 c 725.4528,-38.18181 -618.24577,-216.88331 72.0117,9.57699 690.2574,226.46029 -498.1498,-425.5738 63.6892,34.94388 561.839,460.51768 -310.7758,-576.78819 46.7653,55.59142 357.5411,632.37957 -81.4299,-650.10414 23.5254,68.73101 104.9552,718.83516 158.9136,-635.61992 -2.8918,72.58811 -161.8053,708.20805 377.7949,-535.291716 -28.9183,66.64178 -406.7132,601.93347 545.6529,-362.6694 -51.0393,51.69511 -596.6923,414.36446 639.8175,-141.06657 -66.2672,29.76672 -706.08466,170.83329 647.5712,99.58809 -72.5453,3.81818 -720.11642,-95.76991 567.8668,326.79286 -69.0257,-22.64603 -636.89252,-349.43885 411.4688,509.86239 -56.1839,-46.05177 -467.65272,-555.914133 199.4997,624.07216 -35.7541,-63.23796 -235.2538,-687.31014 -39.4129,653.99762 -10.4955,-71.88351 28.9174,-725.8811 -273.0027,595.59703 16.1805,-70.82081 289.1832,-666.41779 -469.72184,456.75773 40.6713,-60.19335 510.3932,-516.95107 -603.00247,256.2308 59.6692,-41.43645 662.6718,-297.6672403 -654.84427,21.09848 70.6085,-17.08332 z"
       transform="translate(67.683,13.852814)"
       inkscape:tile-x0="6.8579723"
       inkscape:tile-y0="172.37392" />
    <path
       sodipodi:type="star"
       style="fill:none;stroke:#000000;stroke-opacity:1"
       id="use2964"
       sodipodi:sides="17"
       sodipodi:cx="1544.5887"
       sodipodi:cy="480.51947"
       sodipodi:r1="197.67586"
       sodipodi:r2="203.98409"
       sodipodi:arg1="-1.6233795"
       sodipodi:arg2="-1.4385799"
       inkscape:flatsided="true"
       inkscape:rounded="10"
       inkscape:randomized="0"
       d="m 1534.1991,283.11684 c 725.4528,-38.18181 -618.24577,-216.88331 72.0117,9.57699 690.2574,226.46029 -498.1498,-425.5738 63.6892,34.94388 561.839,460.51768 -310.7758,-576.78819 46.7653,55.59142 357.5411,632.37957 -81.4299,-650.10414 23.5254,68.73101 104.9552,718.83516 158.9136,-635.61992 -2.8918,72.58811 -161.8053,708.20805 377.7949,-535.291716 -28.9183,66.64178 -406.7132,601.93347 545.6529,-362.6694 -51.0393,51.69511 -596.6923,414.36446 639.8175,-141.06657 -66.2672,29.76672 -706.08466,170.83329 647.5712,99.58809 -72.5453,3.81818 -720.11642,-95.76991 567.8668,326.79286 -69.0257,-22.64603 -636.89252,-349.43885 411.4688,509.86239 -56.1839,-46.05177 -467.65272,-555.914133 199.4997,624.07216 -35.7541,-63.23796 -235.2538,-687.31014 -39.4129,653.99762 -10.4955,-71.88351 28.9174,-725.8811 -273.0027,595.59703 16.1805,-70.82081 289.1832,-666.41779 -469.72184,456.75773 40.6713,-60.19335 510.3932,-516.95107 -603.00247,256.2308 59.6692,-41.43645 662.6718,-297.6672403 -654.84427,21.09848 70.6085,-17.08332 z"
       transform="translate(388.4999,13.852814)"
       inkscape:tile-x0="6.8579723"
       inkscape:tile-y0="172.37392" />
    <path
       sodipodi:type="star"
       style="fill:none;stroke:#000000;stroke-opacity:1"
       id="use2966"
       sodipodi:sides="17"
       sodipodi:cx="1544.5887"
       sodipodi:cy="480.51947"
       sodipodi:r1="197.67586"
       sodipodi:r2="203.98409"
       sodipodi:arg1="-1.6233795"
       sodipodi:arg2="-1.4385799"
       inkscape:flatsided="true"
       inkscape:rounded="10"
       inkscape:randomized="0"
       d="m 1534.1991,283.11684 c 725.4528,-38.18181 -618.24577,-216.88331 72.0117,9.57699 690.2574,226.46029 -498.1498,-425.5738 63.6892,34.94388 561.839,460.51768 -310.7758,-576.78819 46.7653,55.59142 357.5411,632.37957 -81.4299,-650.10414 23.5254,68.73101 104.9552,718.83516 158.9136,-635.61992 -2.8918,72.58811 -161.8053,708.20805 377.7949,-535.291716 -28.9183,66.64178 -406.7132,601.93347 545.6529,-362.6694 -51.0393,51.69511 -596.6923,414.36446 639.8175,-141.06657 -66.2672,29.76672 -706.08466,170.83329 647.5712,99.58809 -72.5453,3.81818 -720.11642,-95.76991 567.8668,326.79286 -69.0257,-22.64603 -636.89252,-349.43885 411.4688,509.86239 -56.1839,-46.05177 -467.65272,-555.914133 199.4997,624.07216 -35.7541,-63.23796 -235.2538,-687.31014 -39.4129,653.99762 -10.4955,-71.88351 28.9174,-725.8811 -273.0027,595.59703 16.1805,-70.82081 289.1832,-666.41779 -469.72184,456.75773 40.6713,-60.19335 510.3932,-516.95107 -603.00247,256.2308 59.6692,-41.43645 662.6718,-297.6672403 -654.84427,21.09848 70.6085,-17.08332 z"
       transform="translate(709.3168,13.852814)"
       inkscape:tile-x0="6.8579723"
       inkscape:tile-y0="172.37392" />
    <path
       sodipodi:type="star"
       style="fill:none;stroke:#000000;stroke-opacity:1"
       id="use2968"
       sodipodi:sides="17"
       sodipodi:cx="1544.5887"
       sodipodi:cy="480.51947"
       sodipodi:r1="197.67586"
       sodipodi:r2="203.98409"
       sodipodi:arg1="-1.6233795"
       sodipodi:arg2="-1.4385799"
       inkscape:flatsided="true"
       inkscape:rounded="10"
       inkscape:randomized="0"
       d="m 1534.1991,283.11684 c 725.4528,-38.18181 -618.24577,-216.88331 72.0117,9.57699 690.2574,226.46029 -498.1498,-425.5738 63.6892,34.94388 561.839,460.51768 -310.7758,-576.78819 46.7653,55.59142 357.5411,632.37957 -81.4299,-650.10414 23.5254,68.73101 104.9552,718.83516 158.9136,-635.61992 -2.8918,72.58811 -161.8053,708.20805 377.7949,-535.291716 -28.9183,66.64178 -406.7132,601.93347 545.6529,-362.6694 -51.0393,51.69511 -596.6923,414.36446 639.8175,-141.06657 -66.2672,29.76672 -706.08466,170.83329 647.5712,99.58809 -72.5453,3.81818 -720.11642,-95.76991 567.8668,326.79286 -69.0257,-22.64603 -636.89252,-349.43885 411.4688,509.86239 -56.1839,-46.05177 -467.65272,-555.914133 199.4997,624.07216 -35.7541,-63.23796 -235.2538,-687.31014 -39.4129,653.99762 -10.4955,-71.88351 28.9174,-725.8811 -273.0027,595.59703 16.1805,-70.82081 289.1832,-666.41779 -469.72184,456.75773 40.6713,-60.19335 510.3932,-516.95107 -603.00247,256.2308 59.6692,-41.43645 662.6718,-297.6672403 -654.84427,21.09848 70.6085,-17.08332 z"
       transform="translate(1030.1336,13.852814)"
       inkscape:tile-x0="6.8579723"
       inkscape:tile-y0="172.37392" />
    <path
       sodipodi:type="star"
       style="fill:none;stroke:#000000;stroke-opacity:1"
       id="use2970"
       sodipodi:sides="17"
       sodipodi:cx="1544.5887"
       sodipodi:cy="480.51947"
       sodipodi:r1="197.67586"
       sodipodi:r2="203.98409"
       sodipodi:arg1="-1.6233795"
       sodipodi:arg2="-1.4385799"
       inkscape:flatsided="true"
       inkscape:rounded="10"
       inkscape:randomized="0"
       d="m 1534.1991,283.11684 c 725.4528,-38.18181 -618.24577,-216.88331 72.0117,9.57699 690.2574,226.46029 -498.1498,-425.5738 63.6892,34.94388 561.839,460.51768 -310.7758,-576.78819 46.7653,55.59142 357.5411,632.37957 -81.4299,-650.10414 23.5254,68.73101 104.9552,718.83516 158.9136,-635.61992 -2.8918,72.58811 -161.8053,708.20805 377.7949,-535.291716 -28.9183,66.64178 -406.7132,601.93347 545.6529,-362.6694 -51.0393,51.69511 -596.6923,414.36446 639.8175,-141.06657 -66.2672,29.76672 -706.08466,170.83329 647.5712,99.58809 -72.5453,3.81818 -720.11642,-95.76991 567.8668,326.79286 -69.0257,-22.64603 -636.89252,-349.43885 411.4688,509.86239 -56.1839,-46.05177 -467.65272,-555.914133 199.4997,624.07216 -35.7541,-63.23796 -235.2538,-687.31014 -39.4129,653.99762 -10.4955,-71.88351 28.9174,-725.8811 -273.0027,595.59703 16.1805,-70.82081 289.1832,-666.41779 -469.72184,456.75773 40.6713,-60.19335 510.3932,-516.95107 -603.00247,256.2308 59.6692,-41.43645 662.6718,-297.6672403 -654.84427,21.09848 70.6085,-17.08332 z"
       transform="translate(1350.9505,13.852814)"
       inkscape:tile-x0="6.8579723"
       inkscape:tile-y0="172.37392" />
    <path
       sodipodi:type="star"
       style="fill:none;stroke:#000000;stroke-opacity:1"
       id="use2972"
       sodipodi:sides="17"
       sodipodi:cx="1544.5887"
       sodipodi:cy="480.51947"
       sodipodi:r1="197.67586"
       sodipodi:r2="203.98409"
       sodipodi:arg1="-1.6233795"
       sodipodi:arg2="-1.4385799"
       inkscape:flatsided="true"
       inkscape:rounded="10"
       inkscape:randomized="0"
       d="m 1534.1991,283.11684 c 725.4528,-38.18181 -618.24577,-216.88331 72.0117,9.57699 690.2574,226.46029 -498.1498,-425.5738 63.6892,34.94388 561.839,460.51768 -310.7758,-576.78819 46.7653,55.59142 357.5411,632.37957 -81.4299,-650.10414 23.5254,68.73101 104.9552,718.83516 158.9136,-635.61992 -2.8918,72.58811 -161.8053,708.20805 377.7949,-535.291716 -28.9183,66.64178 -406.7132,601.93347 545.6529,-362.6694 -51.0393,51.69511 -596.6923,414.36446 639.8175,-141.06657 -66.2672,29.76672 -706.08466,170.83329 647.5712,99.58809 -72.5453,3.81818 -720.11642,-95.76991 567.8668,326.79286 -69.0257,-22.64603 -636.89252,-349.43885 411.4688,509.86239 -56.1839,-46.05177 -467.65272,-555.914133 199.4997,624.07216 -35.7541,-63.23796 -235.2538,-687.31014 -39.4129,653.99762 -10.4955,-71.88351 28.9174,-725.8811 -273.0027,595.59703 16.1805,-70.82081 289.1832,-666.41779 -469.72184,456.75773 40.6713,-60.19335 510.3932,-516.95107 -603.00247,256.2308 59.6692,-41.43645 662.6718,-297.6672403 -654.84427,21.09848 70.6085,-17.08332 z"
       transform="translate(1671.7673,13.852814)"
       inkscape:tile-x0="6.8579723"
       inkscape:tile-y0="172.37392" />
    <path
       sodipodi:type="star"
       style="fill:none;stroke:#000000;stroke-opacity:1"
       id="use2972-7"
       sodipodi:sides="17"
       sodipodi:cx="1544.5887"
       sodipodi:cy="480.51947"
       sodipodi:r1="197.67586"
       sodipodi:r2="203.98409"
       sodipodi:arg1="-1.6233795"
       sodipodi:arg2="-1.4385799"
       inkscape:flatsided="true"
       inkscape:rounded="10"
       inkscape:randomized="0"
       d="m 1534.1991,283.11684 c 725.4528,-38.18181 -618.24577,-216.88331 72.0117,9.57699 690.2574,226.46029 -498.1498,-425.5738 63.6892,34.94388 561.839,460.51768 -310.7758,-576.78819 46.7653,55.59142 357.5411,632.37957 -81.4299,-650.10414 23.5254,68.73101 104.9552,718.83516 158.9136,-635.61992 -2.8918,72.58811 -161.8053,708.20805 377.7949,-535.291716 -28.9183,66.64178 -406.7132,601.93347 545.6529,-362.6694 -51.0393,51.69511 -596.6923,414.36446 639.8175,-141.06657 -66.2672,29.76672 -706.08466,170.83329 647.5712,99.58809 -72.5453,3.81818 -720.11642,-95.76991 567.8668,326.79286 -69.0257,-22.64603 -636.89252,-349.43885 411.4688,509.86239 -56.1839,-46.05177 -467.65272,-555.914133 199.4997,624.07216 -35.7541,-63.23796 -235.2538,-687.31014 -39.4129,653.99762 -10.4955,-71.88351 28.9174,-725.8811 -273.0027,595.59703 16.1805,-70.82081 289.1832,-666.41779 -469.72184,456.75773 40.6713,-60.19335 510.3932,-516.95107 -603.00247,256.2308 59.6692,-41.43645 662.6718,-297.6672403 -654.84427,21.09848 70.6085,-17.08332 z"
       transform="translate(1973.296,16.022769)"
       inkscape:tile-x0="6.8579723"
       inkscape:tile-y0="172.37392" />
  </g>
</svg>
