<?xml version="1.0" encoding="UTF-8" standalone="no"?>
<!-- Created with Inkscape (http://www.inkscape.org/) -->

<svg
   xmlns:dc="http://purl.org/dc/elements/1.1/"
   xmlns:cc="http://creativecommons.org/ns#"
   xmlns:rdf="http://www.w3.org/1999/02/22-rdf-syntax-ns#"
   xmlns:svg="http://www.w3.org/2000/svg"
   xmlns="http://www.w3.org/2000/svg"
   xmlns:xlink="http://www.w3.org/1999/xlink"
   xmlns:sodipodi="http://sodipodi.sourceforge.net/DTD/sodipodi-0.dtd"
   xmlns:inkscape="http://www.inkscape.org/namespaces/inkscape"
   width="3200"
   height="1000"
   id="svg10075"
   sodipodi:version="0.32"
   inkscape:version="0.46+devel r21303"
   sodipodi:docname="two color ny skyline.svg"
   inkscape:output_extension="org.inkscape.output.svg.inkscape"
   version="1.0">
  <sodipodi:namedview
     id="base"
     pagecolor="#ffffff"
     bordercolor="#666666"
     borderopacity="1.0"
     inkscape:pageopacity="0.0"
     inkscape:pageshadow="2"
     inkscape:zoom="0.72301668"
     inkscape:cx="1840.357"
     inkscape:cy="396.56467"
     inkscape:document-units="px"
     inkscape:current-layer="layer1"
     showgrid="false"
     inkscape:window-width="1280"
     inkscape:window-height="753"
     inkscape:window-x="-4"
     inkscape:window-y="-4" />
  <defs
     id="defs10077">
    <inkscape:perspective
       id="perspective10083"
       inkscape:persp3d-origin="372.04724 : 350.78739 : 1"
       inkscape:vp_z="744.09448 : 526.18109 : 1"
       inkscape:vp_y="0 : 1000 : 0"
       inkscape:vp_x="0 : 526.18109 : 1"
       sodipodi:type="inkscape:persp3d" />
    <inkscape:perspective
       sodipodi:type="inkscape:persp3d"
       inkscape:vp_x="0 : 0.5 : 1"
       inkscape:vp_y="0 : 1000 : 0"
       inkscape:vp_z="1 : 0.5 : 1"
       inkscape:persp3d-origin="0.5 : 0.33333333 : 1"
       id="perspective4202" />
    <radialGradient
       r="1048.8756"
       cy="2269.5371"
       cx="333.272"
       gradientTransform="matrix(0.8196,0,0,0.8196,183.7752,194.9971)"
       gradientUnits="userSpaceOnUse"
       id="radialGradient3748"
       xlink:href="#SVGID_9_"
       inkscape:collect="always" />
    <radialGradient
       gradientUnits="userSpaceOnUse"
       gradientTransform="matrix(0.8196,0,0,0.8196,183.7752,194.9971)"
       r="1048.8756"
       cy="2269.5371"
       cx="333.272"
       id="SVGID_9_">
      <stop
         id="stop2771"
         style="stop-color:#7FCFD6"
         offset="0.3297" />
      <stop
         id="stop2773"
         style="stop-color:#81CED5"
         offset="0.3975" />
      <stop
         id="stop2775"
         style="stop-color:#8ACBD4"
         offset="0.422" />
      <stop
         id="stop2777"
         style="stop-color:#98C8D4"
         offset="0.4394" />
      <stop
         id="stop2779"
         style="stop-color:#A9C2D1"
         offset="0.4535" />
      <stop
         id="stop2781"
         style="stop-color:#BEBBCF"
         offset="0.4656" />
      <stop
         id="stop2783"
         style="stop-color:#D5AFCA"
         offset="0.4761" />
      <stop
         id="stop2785"
         style="stop-color:#E7A3C8"
         offset="0.4835" />
      <stop
         id="stop2787"
         style="stop-color:#E890AE"
         offset="0.503" />
      <stop
         id="stop2789"
         style="stop-color:#EA7A94"
         offset="0.5331" />
      <stop
         id="stop2791"
         style="stop-color:#EA637D"
         offset="0.5671" />
      <stop
         id="stop2793"
         style="stop-color:#EB4F6D"
         offset="0.6055" />
      <stop
         id="stop2795"
         style="stop-color:#EC3C62"
         offset="0.6504" />
      <stop
         id="stop2797"
         style="stop-color:#ED2C5B"
         offset="0.7059" />
      <stop
         id="stop2799"
         style="stop-color:#EE1F56"
         offset="0.7838" />
      <stop
         id="stop2801"
         style="stop-color:#ED1A55"
         offset="1" />
    </radialGradient>
    <radialGradient
       id="radialGradient4225"
       cx="333.272"
       cy="2269.5371"
       r="1048.8756"
       gradientTransform="matrix(0.8196,0,0,0.8196,183.7752,194.9971)"
       gradientUnits="userSpaceOnUse">
      <stop
         offset="0.3297"
         style="stop-color:#7FCFD6"
         id="stop4227" />
      <stop
         offset="0.3975"
         style="stop-color:#81CED5"
         id="stop4229" />
      <stop
         offset="0.422"
         style="stop-color:#8ACBD4"
         id="stop4231" />
      <stop
         offset="0.4394"
         style="stop-color:#98C8D4"
         id="stop4233" />
      <stop
         offset="0.4535"
         style="stop-color:#A9C2D1"
         id="stop4235" />
      <stop
         offset="0.4656"
         style="stop-color:#BEBBCF"
         id="stop4237" />
      <stop
         offset="0.4761"
         style="stop-color:#D5AFCA"
         id="stop4239" />
      <stop
         offset="0.4835"
         style="stop-color:#E7A3C8"
         id="stop4241" />
      <stop
         offset="0.503"
         style="stop-color:#E890AE"
         id="stop4243" />
      <stop
         offset="0.5331"
         style="stop-color:#EA7A94"
         id="stop4245" />
      <stop
         offset="0.5671"
         style="stop-color:#EA637D"
         id="stop4247" />
      <stop
         offset="0.6055"
         style="stop-color:#EB4F6D"
         id="stop4249" />
      <stop
         offset="0.6504"
         style="stop-color:#EC3C62"
         id="stop4251" />
      <stop
         offset="0.7059"
         style="stop-color:#ED2C5B"
         id="stop4253" />
      <stop
         offset="0.7838"
         style="stop-color:#EE1F56"
         id="stop4255" />
      <stop
         offset="1"
         style="stop-color:#ED1A55"
         id="stop4257" />
    </radialGradient>
    <inkscape:perspective
       sodipodi:type="inkscape:persp3d"
       inkscape:vp_x="0 : 0.5 : 1"
       inkscape:vp_y="0 : 1000 : 0"
       inkscape:vp_z="1 : 0.5 : 1"
       inkscape:persp3d-origin="0.5 : 0.33333333 : 1"
       id="perspective4633" />
    <inkscape:perspective
       sodipodi:type="inkscape:persp3d"
       inkscape:vp_x="0 : 0.5 : 1"
       inkscape:vp_y="0 : 1000 : 0"
       inkscape:vp_z="1 : 0.5 : 1"
       inkscape:persp3d-origin="0.5 : 0.33333333 : 1"
       id="perspective5349" />
    <inkscape:perspective
       sodipodi:type="inkscape:persp3d"
       inkscape:vp_x="0 : 0.5 : 1"
       inkscape:vp_y="0 : 1000 : 0"
       inkscape:vp_z="1 : 0.5 : 1"
       inkscape:persp3d-origin="0.5 : 0.33333333 : 1"
       id="perspective5814" />
    <inkscape:perspective
       id="perspective6418"
       inkscape:persp3d-origin="0.5 : 0.33333333 : 1"
       inkscape:vp_z="1 : 0.5 : 1"
       inkscape:vp_y="0 : 1000 : 0"
       inkscape:vp_x="0 : 0.5 : 1"
       sodipodi:type="inkscape:persp3d" />
  </defs>
  <metadata
     id="metadata10080">
    <rdf:RDF>
      <cc:Work
         rdf:about="">
        <dc:format>image/svg+xml</dc:format>
        <dc:type
           rdf:resource="http://purl.org/dc/dcmitype/StillImage" />
        <dc:title />
      </cc:Work>
    </rdf:RDF>
  </metadata>
  <g
     inkscape:label="pink sky"
     id="layer2"
     inkscape:groupmode="layer">
    <path
       style="opacity:0.22000001999999999;fill:none;stroke:#000000;stroke-width:3.06932902000000010;stroke-opacity:1"
       d="M 483.46875 82.4375 L 483.46875 129.8125 L 1085.4375 602.4375 L 1085.4375 614.75 L 483.46875 163.375 L 483.46875 207.125 L 1077.4375 625.125 C 1073.5741 625.38242 1068.1205 625.66362 1061.0938 625.8125 L 483.46875 238.21875 L 483.46875 278.90625 L 1039.7188 628.34375 C 1036.6222 630.0368 1033.9049 632.51454 1031.5625 635.46875 L 483.46875 307.9375 L 483.46875 346.09375 L 1024.5625 647.71875 C 1023.1376 651.03868 1021.9554 654.40186 1021 657.59375 L 483.46875 373.46875 L 483.46875 409.5 L 1017.7188 671.65625 C 1017.4315 673.35339 1017.2812 674.40625 1017.2812 674.40625 L 1018.0312 683.15625 L 483.46875 435.4375 L 483.46875 469.71875 L 1019.4062 698.71875 L 1020.3125 709.25 L 1018.7812 709.25 L 483.46875 494.46875 L 483.46875 527.28125 L 1010.3438 720.46875 L 1011 731.28125 L 993.75 725.40625 L 991.5 715.3125 L 980.90625 718.34375 L 980.90625 721 L 483.46875 551.0625 L 483.46875 582.6875 L 838.8125 692.25 L 785.125 691.375 L 483.46875 605.65625 L 483.46875 636.34375 L 703.65625 691.78125 L 703.65625 692.59375 L 664.25 692.59375 L 664.15625 699.9375 L 483.46875 658.6875 L 483.46875 688.59375 L 663.8125 724.09375 L 663.53125 741.75 L 533.96875 719.21875 L 533.96875 713.8125 L 524.875 713.8125 L 525.125 717.6875 L 483.46875 710.4375 L 483.46875 724.40625 L 480.9375 724.40625 L 480.9375 870.3125 L 2715.7188 870.3125 L 2715.7188 838.0625 L 2568 838.0625 L 2566.7812 833.28125 L 2713.1562 827.8125 L 2713.1562 789.15625 L 2497.8125 803.6875 L 2497.4375 779.90625 L 2713.1562 760.5 L 2713.1562 721.53125 L 2496.9375 747.5625 L 2496.5625 723.53125 L 2713.1562 692.5625 L 2713.1562 653.03125 L 2496.0312 690.78125 L 2496 688.0625 L 2485.4062 677.4375 L 2468.7188 676.6875 L 2468.5 671.75 L 2713.1562 623.59375 L 2713.1562 583.3125 L 2219.625 696 L 2214.0312 695.8125 L 2214.5938 685.59375 L 2231.0625 686.75 L 2231.0625 674.625 L 2713.1562 553.1875 L 2713.1562 511.875 L 2191.3125 660.15625 L 2186.1875 660.03125 L 2186.1875 661.625 L 2177.7812 664 L 2177.6562 664 L 2177.6562 664.03125 L 2161.1562 668.71875 L 2158.3438 668.5625 L 2158.3438 669.53125 L 2058.9062 697.78125 L 2058.9062 695.25 L 2046.4062 696.375 L 2046.625 701.28125 L 2037.5312 703.84375 L 2037.875 701.5 L 2027.0938 701.5 L 2026.8438 706.90625 L 2004.7188 713.1875 L 2004.75 705.46875 L 1999.8125 705.46875 L 2000 700.8125 L 2713.1562 480.90625 L 2713.1562 438.28125 L 1995.625 683.4375 L 1995.2812 672.90625 L 1986.5625 672.90625 L 1986.5625 672.6875 L 2713.1562 406.25 L 2713.1562 362.03125 L 1986.3438 653.65625 L 1986.1875 641.09375 L 1982.0312 641.09375 L 1982.0312 641.0625 L 2713.1562 328.65625 L 2713.1562 282.46875 L 1977.0938 623.5625 L 1977.0938 623.28125 L 1972.9375 623.28125 L 1972.9375 625.46875 L 1877.875 669.53125 L 1877.9375 664.5625 L 1875.8125 658.40625 L 2713.1562 247.53125 L 2713.1562 198.96875 L 1870.9375 644.1875 L 1868.5625 637.3125 L 1861.2188 637 L 2713.1562 162.09375 L 2713.1562 110.6875 L 1836.8438 634.375 L 1836.75 631.90625 L 1832.5 632.1875 L 1832.2188 627.9375 L 1828.25 627.4375 L 2695.8125 82.4375 L 2615.2188 82.4375 L 1827.8125 610.8125 L 1827.9062 597.84375 L 2560.2188 82.4375 L 2491.0312 82.4375 L 1732.375 651.28125 L 1732.3438 640.75 L 2443.4375 82.4375 L 2383.0938 82.4375 L 1732.2812 625.90625 L 1732.2188 614.5625 L 1732.125 614.5 L 2341.25 82.4375 L 2287.9062 82.4375 L 1720.5312 608.96875 L 1713.1875 605.46875 L 1711.6562 605.4375 L 2250.6562 82.4375 L 2202.875 82.4375 L 1695.625 605.1875 L 1684.3438 605 L 2169.3438 82.4375 L 2126.0625 82.4375 L 1649.875 627.59375 L 1644.5312 622.59375 L 2095.5625 82.4375 L 2056 82.4375 L 1634.875 618.78125 L 1625.5312 619.125 L 2027.9688 82.4375 L 1991.4688 82.4375 L 1613.4375 619.59375 L 1611.1875 619.6875 L 1599.2812 632.75 L 1599.2812 639.6875 L 1595.1562 645.53125 L 1590.7188 645.25 L 1590.7188 640.9375 L 1965.5 82.4375 L 1931.5312 82.4375 L 1590.7188 624.9375 L 1590.7188 612.125 L 1907.25 82.4375 L 1875.4062 82.4375 L 1583.1562 606.6875 L 1580.5 604.90625 L 1576.3438 604.90625 L 1852.5625 82.4375 L 1822.4688 82.4375 L 1566.0938 604.90625 L 1558.6875 604.90625 L 1800.8125 82.4375 L 1772.1875 82.4375 L 1548.9375 604.90625 L 1541.875 604.90625 L 1751.5 82.4375 L 1724.0938 82.4375 L 1532.5312 604.90625 L 1527.125 604.90625 L 1527.0625 619.84375 L 1509.0312 669 L 1509.0625 653.8125 L 1704.25 82.4375 L 1677.8438 82.4375 L 1509.0938 629.71875 L 1509.125 608.6875 L 1658.6562 82.4375 L 1633.0625 82.4375 L 1509.1562 574.25 L 1509.2188 542.9375 L 1614.375 82.4375 L 1589.4062 82.4375 L 1509.3125 489.375 L 1509.375 437.90625 L 1571.1875 82.4375 L 1546.6875 82.4375 L 1507.9375 353.34375 L 1497.7812 339.40625 L 1528.7188 82.4375 L 1504.5938 82.4375 L 1481.7188 336.84375 L 1469.6562 336.9375 L 1486.8438 82.4375 L 1462.875 82.4375 L 1453.375 337.0625 L 1441.375 337.15625 L 1445.2188 82.4375 L 1421.3438 82.4375 L 1425.1875 337.25 L 1418 337.3125 L 1418.1875 471.28125 L 1403.6875 82.4375 L 1379.7188 82.4375 L 1418.4688 656.59375 L 1418.5625 711.8125 L 1361.9688 82.4375 L 1337.8125 82.4375 L 1416.0312 732.1875 L 1412.7812 732.1875 L 1368.0312 419.21875 L 1368.0312 342.40625 L 1355.2812 330 L 1319.875 82.4375 L 1295.4062 82.4375 L 1313.4688 186.34375 L 1313.4688 266.90625 L 1277.1562 82.4375 L 1252.1875 82.4375 L 1307.1875 323.25 L 1294.2812 323.5625 L 1233.5312 82.4375 L 1207.9062 82.4375 L 1276.5625 324.03125 L 1267.4375 324.25 L 1267.4688 337.84375 L 1188.7188 82.4375 L 1162.3125 82.4375 L 1267.625 390.6875 L 1267.7188 424.03125 L 1142.4688 82.4375 L 1115.0312 82.4375 L 1267.8438 463.25 L 1267.9062 488.53125 L 1094.375 82.4375 L 1065.75 82.4375 L 1268 518.84375 L 1268.0312 538.84375 L 1044.0938 82.4375 L 1014 82.4375 L 1268.125 563.125 L 1268.1562 579.34375 L 991.15625 82.4375 L 959.3125 82.4375 L 1268.2188 599.34375 L 1268.25 612.875 L 935.03125 82.4375 L 901.0625 82.4375 L 1268.3125 629.6875 L 1268.3438 641.1875 L 875.09375 82.4375 L 838.59375 82.4375 L 1268.375 655.65625 L 1268.4062 665.5625 L 810.5625 82.4375 L 771 82.4375 L 1158.8125 546.84375 C 1153.3362 542.67859 1146.9921 539.90095 1139.8125 539.59375 L 740.5 82.4375 L 697.21875 82.4375 L 1123.8125 542.09375 C 1120.4115 543.33738 1117.2874 545.00263 1114.4375 546.96875 L 663.6875 82.4375 L 615.90625 82.4375 L 1104.3125 556.34375 C 1102.0946 559.00185 1100.0983 561.82107 1098.3438 564.71875 L 578.6875 82.4375 L 525.3125 82.4375 L 1092.0312 577.46875 C 1090.5592 581.07966 1089.3926 584.54609 1088.4688 587.625 L 483.46875 82.4375 z M 1322.4375 237.875 L 1337 321.625 L 1324.3125 321.9375 L 1323.0625 315.6875 L 1322.4375 237.875 z M 1368.0312 500.1875 L 1395.5938 658.75 L 1390.5625 658.5625 L 1368.0312 544.0625 L 1368.0312 500.1875 z M 1174.875 566.125 L 1268.4375 678.15625 L 1268.4688 686.84375 L 1184.8125 591.09375 C 1183.5207 585.08451 1180.2171 575.4561 1174.875 566.125 z M 1368.0312 589.75 L 1383.6875 658.3125 L 1378.5312 658.125 L 1368.0312 616.4375 L 1368.0312 589.75 z M 1818.7188 604.3125 L 1818.8125 616.84375 L 1816.3125 618.5 L 1814.3125 618.25 L 1814.25 619.90625 L 1804.875 626.1875 L 1804.7188 614.125 L 1818.7188 604.3125 z M 1677.4375 612.4375 L 1677.0938 624.3125 L 1662.5 639.34375 L 1657.125 634.34375 L 1677.4375 612.4375 z M 1190.9688 614.4375 L 1194.25 617.96875 L 1190.75 617.96875 L 1190.9688 614.4375 z M 1800.1875 617.34375 L 1799.875 629.53125 L 1732.4688 674.78125 L 1732.4375 665.03125 L 1800.1875 617.34375 z M 1194.7812 618.53125 L 1268.5 697.96875 L 1268.5312 705.75 L 1254.6875 691.5 L 1254.6562 689.84375 L 1243.3125 678.78125 L 1242.7188 679.1875 L 1204.9375 640.25 L 1204.9688 636.15625 L 1200.9688 636.15625 L 1195.9375 630.96875 L 1194.7812 618.53125 z M 1676.5938 639.4375 L 1676.5312 641.84375 L 1674.25 641.75 L 1676.5938 639.4375 z M 1854.875 640.53125 L 1854.9375 641 L 1854 641.03125 L 1854.875 640.53125 z M 1526.9375 642.15625 L 1526.8438 656.5625 L 1508.9688 698.40625 L 1509 686.84375 L 1526.9375 642.15625 z M 1845.8438 645.5625 L 1845.8438 646.125 L 1844.9062 646.09375 L 1845.8438 645.5625 z M 1368.0312 645.9375 L 1371.4375 657.875 L 1368.0312 657.75 L 1368.0312 645.9375 z M 1963.4688 649 L 1963.4688 649.03125 L 1963.375 649.03125 L 1963.4688 649 z M 1791.5625 650.5 L 1791.5312 661.46875 L 1741.0312 691.625 L 1741.0312 682.21875 L 1791.5625 650.5 z M 1959.25 650.8125 L 1959.0625 664.59375 L 1877.5625 697.3125 L 1877.6875 685.65625 L 1959.25 650.8125 z M 1204.8438 653.90625 L 1235.7812 683.9375 L 1231.6562 686.75 L 1231.6562 688.4375 L 1204.8125 663.5 L 1204.8438 653.90625 z M 1526.75 673.8125 L 1526.7188 685.1875 L 1508.9375 721.375 L 1508.9688 712.21875 L 1526.75 673.8125 z M 1791.4688 675.875 L 1791.4375 686.21875 L 1754.7812 705.59375 L 1754.6562 696.40625 L 1791.4688 675.875 z M 1204.7188 675.90625 L 1231.6562 699.4375 L 1231.6562 707.1875 L 1204.6562 684.65625 L 1204.7188 675.90625 z M 1399.4375 680.84375 L 1407.5 727.125 L 1404.125 727.34375 L 1399.6562 704.65625 L 1399.4375 680.84375 z M 1958.7812 682.875 L 1958.5938 696.09375 L 1946.375 700.25 L 1927.4688 700.9375 L 1927.4688 694.34375 L 1958.7812 682.875 z M 2374.125 690.34375 L 2374.9375 711.84375 L 2354.0625 715.46875 L 2346.0312 706.25 L 2293.8438 706.125 L 2374.125 690.34375 z M 2157.9688 693.03125 L 2157.7812 705.46875 L 2149.8125 705.46875 L 2149.8125 695.09375 L 2157.9688 693.03125 z M 1204.5938 696 L 1231.6562 717.25 L 1231.6562 721.96875 L 1229.0625 722.40625 L 1204.5625 704.0625 L 1204.5938 696 z M 2144.7188 696.375 L 2144.7188 708.3125 L 2140.875 714 L 2108.3438 721.40625 L 2108.3438 705.53125 L 2144.7188 696.375 z M 729.59375 698.3125 L 765.78125 707.4375 L 765.78125 709.25 L 753.65625 710.78125 L 753.46875 720.34375 L 730.125 715 L 729.59375 698.3125 z M 859.6875 698.6875 L 897.3125 710.28125 L 891.53125 710.78125 L 891.53125 719.875 L 885.46875 719.875 L 870.3125 715.59375 L 870.3125 707.75 L 859.6875 709.25 L 859.6875 698.6875 z M 1526.625 698.96875 L 1526.5938 708.1875 L 1520.8125 718.53125 L 1516.2812 718.53125 L 1526.625 698.96875 z M 1791.4062 699.84375 L 1791.375 709.625 L 1755.0312 726.46875 L 1754.9375 717.71875 L 1791.4062 699.84375 z M 1909.875 700.78125 L 1909.5 712.84375 L 1891.5938 718.96875 L 1891.2188 707.625 L 1909.875 700.78125 z M 1254.8438 702.40625 L 1268.5625 715.71875 L 1268.5625 722.6875 L 1254.9375 710.0625 L 1254.8438 702.40625 z M 2258.3438 713.125 L 2258.3438 723.09375 L 2231.625 722.53125 L 2231.5312 718.40625 L 2258.3438 713.125 z M 908.78125 713.84375 L 950.46875 726.6875 L 920.3125 725.9375 L 918.78125 718.34375 L 908.1875 716.84375 L 908.78125 713.84375 z M 1204.4688 714.53125 L 1218.5625 724.46875 L 1218.0312 731.0625 L 1217.9688 731.0625 L 1204.4375 722 L 1204.4688 714.53125 z M 1255.0938 719.90625 L 1268.5938 731.6875 L 1268.5938 732.1875 L 1261.4062 732.03125 L 1255.1875 726.84375 L 1255.0938 719.90625 z M 1791.3438 722.5625 L 1791.3125 727.34375 L 1778.9062 727.875 L 1791.3438 722.5625 z M 1512.4688 725.78125 L 1512.3438 727.625 L 1511.4688 727.625 L 1512.4688 725.78125 z M 2018.2812 728.21875 L 2018.1875 742 L 2004.5312 745.125 L 2004.5938 731.65625 L 2018.2812 728.21875 z M 1777.4062 728.5 L 1777.6562 736.4375 L 1773.125 736.4375 L 1773.3438 730.25 L 1777.4062 728.5 z M 1204.375 731.78125 L 1204.9688 732.125 L 1204.375 732.1875 L 1204.375 731.78125 z M 870.3125 733.78125 L 884.25 737.28125 L 883.96875 741.0625 L 876.375 742.59375 L 875.5625 748.21875 L 870.3125 747 L 870.3125 733.78125 z M 1763.875 734.28125 L 1763.75 740.71875 L 1755.2188 741.5625 L 1755.1875 738 L 1763.875 734.28125 z M 730.8125 737.28125 L 753.03125 741.65625 L 752.75 757.25 L 731.34375 753.53125 L 730.8125 737.28125 z M 2376.0312 740.75 L 2376.8438 762 L 2368.4375 763 L 2367.1875 742.03125 L 2376.0312 740.75 z M 574.0625 752.71875 L 663.21875 765.4375 L 662.96875 782.84375 L 621.8125 777.90625 L 621.8125 777.4375 L 613.125 776.84375 L 580.65625 772.9375 L 574.0625 752.71875 z M 2018.0625 760.4375 L 2018 768.34375 L 2004.375 769.125 L 2004.4062 763.125 L 2018.0625 760.4375 z M 870.3125 764.75 L 872.09375 765.09375 L 870.3125 772.90625 L 870.3125 764.75 z M 732.03125 775.28125 L 752.3125 778.1875 L 752.125 788.0625 L 732.4375 788.0625 L 732.03125 775.28125 z M 2536.3125 834.40625 L 2536.9062 836.53125 L 2514.4688 835.21875 L 2536.3125 834.40625 z "
       id="polygon2807" />
  </g>
  <g
     id="layer1"
     inkscape:groupmode="layer"
     inkscape:label="Layer 1">
    <path
       style="fill:none;stroke:#000000;stroke-opacity:1"
       transform="matrix(3.069329,0,0,3.069329,232.03737,-4582.2125)"
       d="m 81.088,1728.918 h 1.483 v -3.455 h 5.43 v 4.443 h 5.921 l -0.987,2.467 2.962,0.493 -0.492,-7.403 h 2.961 v 7.403 h 2.467 v -1.974 h 4.938 v 1.974 h 3.948 l 6.417,19.748 3.948,-0.496 -0.492,-6.416 7.403,0.492 v 2.469 h 5.924 v 1.974 h 5.431 l 1.974,1.978 0.493,-34.063 h 12.835 v -1.975 h 2.962 v 2.47 l 5.429,-0.495 0.989,31.102 h 6.415 l 0.494,-25.179 3.95,-0.492 v -5.925 l 30.605,0.494 v 5.431 l 3.455,-0.493 v 21.226 l 1.481,-6.419 0.494,-3.452 2.471,-0.496 0.491,-6.912 h 1.975 v -2.961 l 5.923,-0.492 -0.494,2.468 3.455,0.494 0.492,2.469 19.747,0.494 v -2.963 l 3.455,-0.988 0.989,4.444 h 2.466 l 0.493,1.974 h 2.471 l -0.496,-8.392 h 3.456 l -0.985,-11.354 c 0,0 1.974,-15.797 10.365,-15.797 8.391,0 11.846,-0.492 11.846,-0.492 v -7.899 c 0,0 2.961,-19.745 17.277,-19.745 10.244,0 15.303,15.306 15.303,18.265 0,2.962 0.062,4.137 0.062,4.137 h 1.851 l -0.185,3.145 h 1.296 l 0.553,5.925 h 2.777 l -0.187,31.284 4.444,-0.371 0.186,-2.221 4.258,-0.74 v -11.475 l 3.794,-2.593 3.702,3.605 0.187,13.703 4.348,0.091 -0.37,-132.909 14.993,-0.373 v -44.608 h 2.778 l 0.37,44.24 7.589,-0.185 7.036,6.847 v 102.738 l 10.179,0.37 0.186,22.397 2.779,-0.183 v 1.665 h 3.33 l -0.186,-128.653 25.362,-0.184 4.443,6.106 -0.185,121.248 h 1.111 l 0.184,-2.961 h 4.442 l 0.187,-37.022 h 17.399 l 3.33,2.222 v 10.92 l 2.78,0.187 v -4.256 l 3.885,-4.259 9.443,-0.37 7.958,7.406 3.888,0.183 0.371,-12.032 11.569,0.186 6.201,2.962 0.093,21.934 h 2.778 v 4.354 l 4.441,0.274 0.184,14.81 2.779,-0.277 0.093,-4.258 3.051,0.093 -0.091,2.778 h 1.48 l -0.092,-2.778 4.535,-0.185 0.093,-27.766 1.388,-0.373 v -2.591 l 1.296,-0.184 0.187,-8.054 h 1.387 l 0.092,7.777 2.87,0.091 0.184,-4.443 1.481,0.185 -0.092,-10.178 3.055,-0.094 -0.09,13.051 1.48,0.184 0.092,1.389 1.386,-0.093 0.186,4.535 2.779,0.094 v -1.572 l 2.96,-0.097 -0.185,-1.386 4.627,0.185 3.052,8.886 -0.151,12.835 4.442,0.245 0.247,7.406 2.715,-0.123 v -2.468 l 2.964,-0.249 0.244,-7.649 h 1.236 l -0.125,-2.713 h 4.566 v 4.561 l 10.118,-0.367 0.249,-16.411 1.355,-0.127 v -4.074 l 3.087,-0.244 v -4.073 h 1.357 v 4.196 h 1.48 l 0.125,1.604 h 1.356 l 0.124,10.366 h 2.839 l 0.244,7.283 h 1.361 l -0.125,3.33 h 1.605 l -0.125,20.732 4.443,-0.248 0.124,-17.769 2.653,-0.123 0.185,-3.888 h 3.516 l -0.369,2.593 h 3.331 l -0.185,-4.261 4.074,-0.367 v 1.665 l 16.104,0.183 v 7.408 l 8.329,0.184 3.519,-5.184 v -6.848 h 1.666 v 5.922 h 2.591 l 0.184,-12.031 6.294,0.37 v -1.851 l 2.779,0.185 v -1.482 l 7.219,0.186 0.185,2.778 h 7.219 v 5.74 l -5.369,-0.372 -0.185,3.331 5.554,0.184 0.186,8.519 8.698,0.184 v -5.553 l 28.57,0.062 6.662,7.649 0.742,12.587 h 2.715 l -1.234,-32.579 h 10.12 v -4.194 h 11.847 l -0.248,3.702 h 1.482 l 0.245,-2.223 7.406,0.248 0.242,5.183 5.434,0.245 3.454,3.456 0.741,47.637 12.585,0.738 -0.489,-1.728 10.114,0.246 0.498,1.976 h 48.127 v 10.511 H 81.088 v -47.538 z"
       id="path2929" />
    <g
       transform="matrix(1.6381285,0,0,1.6381285,-1246.6771,-554.24688)"
       style="font-size:32.07536697px;font-style:normal;font-variant:normal;font-weight:bold;font-stretch:normal;text-align:start;line-height:125%;writing-mode:lr-tb;text-anchor:start;fill:none;stroke:#000000;stroke-opacity:1;font-family:Aharoni;-inkscape-font-specification:Aharoni Bold"
       id="text6906">
      <path
         d="m 2056.9011,845.46119 c 0,2.22399 -0.6708,4.28351 -2.0125,6.17858 -1.3417,1.89508 -3.0567,3.20806 -5.1449,3.93895 -1.1068,0.38632 -2.2345,0.57948 -3.383,0.57948 l -8.2068,0 0,-21.37835 8.2068,0 c 2.0047,2e-5 3.8633,0.55862 5.5756,1.67581 1.681,1.0859 2.9705,2.53723 3.8685,4.35398 0.7309,1.50355 1.0963,3.05406 1.0963,4.65155 z m -5.7792,0 c 0,-1.47219 -0.4124,-2.75646 -1.2373,-3.8528 -1.0963,-1.45131 -2.7304,-2.17697 -4.9021,-2.17699 l -1.2686,0 0,12.07525 1.2686,0 c 2.1822,0 3.8162,-0.72566 4.9021,-2.17699 0.8249,-1.10676 1.2373,-2.39625 1.2373,-3.86847 z"
         id="path7421" />
      <path
         d="m 2070.8714,846.36958 c -0.7204,-0.34455 -1.4513,-0.51683 -2.1926,-0.51684 -1.6915,10e-6 -2.7878,0.68913 -3.289,2.06736 -0.1879,0.50118 -0.2819,1.17464 -0.2819,2.02037 l 0,6.21773 -5.1371,0 0,-14.53415 5.1371,0 0,2.3806 c 0.5429,-0.84573 1.1276,-1.45654 1.7541,-1.83243 0.8458,-0.50117 1.8481,-0.75176 3.0071,-0.75177 0.2714,1e-5 0.6056,0.0157 1.0023,0.047 z"
         id="path7423" />
      <path
         d="m 2089.5716,856.1582 -5.137,0 0,-1.61316 c -0.4908,0.61603 -0.9867,1.065 -1.4879,1.34691 -0.8771,0.49074 -1.8742,0.73611 -2.9914,0.73611 -1.8063,0 -3.4143,-0.62125 -4.8238,-1.86376 -1.6811,-1.48264 -2.5216,-3.44559 -2.5216,-5.88883 0,-2.485 0.8614,-4.46883 2.5842,-5.95149 1.3678,-1.17984 2.9392,-1.76977 4.7142,-1.76978 1.0337,1e-5 2.0047,0.21928 2.9131,0.65779 0.522,0.25061 1.0598,0.66303 1.6132,1.23729 l 0,-1.42523 5.137,0 z m -4.9804,-7.26707 c 0,-0.91882 -0.3237,-1.6993 -0.971,-2.34144 -0.6474,-0.64212 -1.4305,-0.96319 -2.3493,-0.9632 -1.0233,10e-6 -1.8638,0.38633 -2.5216,1.15897 -0.5325,0.62648 -0.7987,1.3417 -0.7987,2.14567 0,0.80398 0.2662,1.5192 0.7987,2.14566 0.6474,0.77266 1.4879,1.15898 2.5216,1.15898 0.9292,0 1.7149,-0.31845 2.3571,-0.95537 0.6421,-0.63691 0.9632,-1.42 0.9632,-2.34927 z"
         id="path7425" />
      <path
         d="m 2109.3838,855.15585 c 0,1.27382 -0.089,2.30228 -0.2662,3.08537 -0.282,1.25294 -1.0129,2.37537 -2.1927,3.36729 -1.4931,1.25294 -3.4769,1.87941 -5.9515,1.87942 -2.5894,-10e-6 -4.6515,-0.68391 -6.1864,-2.0517 -1.0232,-0.90839 -1.6758,-1.85854 -1.9577,-2.85045 -0.031,-0.10441 -0.073,-0.32368 -0.1253,-0.65779 l 5.7792,0 c 0.167,0.48029 0.3915,0.82485 0.6735,1.03368 0.4594,0.34455 1.0441,0.51683 1.7541,0.51683 1.1903,0 2.1039,-0.42287 2.7408,-1.2686 0.3967,-0.5325 0.5951,-1.29471 0.5951,-2.28662 l 0,-1.37824 c -0.616,0.56382 -1.1328,0.96059 -1.5505,1.19029 -0.8666,0.4803 -1.8898,0.72045 -3.0697,0.72045 -1.4826,0 -2.8087,-0.38111 -3.9781,-1.14331 -1.2007,-0.78309 -2.0621,-1.85331 -2.5842,-3.21067 -0.355,-0.91882 -0.5325,-1.91596 -0.5325,-2.99141 0,-2.38058 0.757,-4.31742 2.271,-5.81052 1.4095,-1.38867 3.1062,-2.08301 5.0901,-2.08302 1.0545,10e-6 1.9942,0.21405 2.8191,0.64213 0.4907,0.26104 1.0023,0.68913 1.5348,1.28427 l 0,-1.5192 5.1371,0 z m -4.8865,-6.31171 c 0,-0.92926 -0.3184,-1.72801 -0.9553,-2.39625 -0.637,-0.66823 -1.4201,-1.00235 -2.3493,-1.00236 -1.0337,1e-5 -1.8794,0.39678 -2.5372,1.1903 -0.5221,0.63692 -0.7831,1.37302 -0.7831,2.20831 0,0.92928 0.321,1.72542 0.9632,2.38843 0.6421,0.66302 1.4278,0.99453 2.3571,0.99452 0.9188,10e-6 1.6993,-0.3315 2.3414,-0.99452 0.6421,-0.66301 0.9632,-1.45915 0.9632,-2.38843 z"
         id="path7427" />
      <path
         d="m 2129.8225,848.89113 c -1e-4,2.01515 -0.6631,3.74317 -1.9891,5.18405 -1.6079,1.75413 -3.858,2.63119 -6.7502,2.63119 -2.9027,0 -5.158,-0.87706 -6.7659,-2.63119 -1.3261,-1.44088 -1.9891,-3.21066 -1.9891,-5.30935 0,-1.88984 0.6683,-3.56566 2.0047,-5.02743 1.6184,-1.76455 3.9207,-2.64683 6.9069,-2.64685 2.746,2e-5 4.9387,0.8823 6.578,2.64685 1.3364,1.44089 2.0046,3.15847 2.0047,5.15273 z m -5.3407,0 c 0,-0.9397 -0.3315,-1.73584 -0.9945,-2.38843 -0.6631,-0.65256 -1.4644,-0.97885 -2.4041,-0.97886 -1.065,1e-5 -1.9317,0.39678 -2.5999,1.1903 -0.5429,0.63692 -0.8144,1.36258 -0.8144,2.17699 0,0.82486 0.2715,1.55574 0.8144,2.19265 0.6682,0.79354 1.5349,1.1903 2.5999,1.1903 0.9501,0 1.7541,-0.32629 2.4119,-0.97887 0.6578,-0.65257 0.9867,-1.45393 0.9867,-2.40408 z"
         id="path7429" />
      <path
         d="m 2148.0998,856.1582 -5.1371,0 0,-7.36104 c 0,-1.28426 -0.1462,-2.13522 -0.4385,-2.55288 -0.4281,-0.61602 -1.0703,-0.92403 -1.9264,-0.92404 -0.7831,10e-6 -1.4409,0.26626 -1.9734,0.79875 -0.4803,0.4803 -0.7205,1.23207 -0.7205,2.2553 l 0,7.78391 -5.137,0 0,-14.53415 5.137,0 0,1.83243 c 0.5952,-0.6891 1.1434,-1.17462 1.6445,-1.45654 0.8144,-0.4594 1.8325,-0.68911 3.0541,-0.68912 1.5662,10e-6 2.84,0.42288 3.8215,1.2686 1.1172,0.96061 1.6758,2.40149 1.6758,4.32266 z"
         id="path7431" />
      <path
         d="m 2172.4226,856.1582 -5.9359,0 -1.3782,-3.72751 -7.6743,0 -1.4722,3.72751 -5.8732,0 8.2225,-21.37835 6.0611,0 z m -8.8176,-7.95619 -2.3023,-6.81288 -2.3336,6.81288 z"
         id="path7433" />
      <path
         d="m 2185.3279,846.36958 c -0.7205,-0.34455 -1.4513,-0.51683 -2.1927,-0.51684 -1.6914,10e-6 -2.7878,0.68913 -3.2889,2.06736 -0.188,0.50118 -0.282,1.17464 -0.282,2.02037 l 0,6.21773 -5.137,0 0,-14.53415 5.137,0 0,2.3806 c 0.543,-0.84573 1.1277,-1.45654 1.7542,-1.83243 0.8457,-0.50117 1.8481,-0.75176 3.007,-0.75177 0.2715,1e-5 0.6056,0.0157 1.0024,0.047 z"
         id="path7435" />
      <path
         d="m 2196.3068,845.85274 -2.9288,0 0,10.30546 -5.137,0 0,-10.30546 -1.6915,0 0,-4.22869 1.6915,0 0,-4.36964 5.137,0 0,4.36964 2.9288,0 z"
         id="path7437" />
    </g>
  </g>
</svg>
