<?xml version="1.0" encoding="UTF-8" standalone="no"?>
<!-- Created with Inkscape (http://www.inkscape.org/) -->

<svg
   xmlns:dc="http://purl.org/dc/elements/1.1/"
   xmlns:cc="http://creativecommons.org/ns#"
   xmlns:rdf="http://www.w3.org/1999/02/22-rdf-syntax-ns#"
   xmlns:svg="http://www.w3.org/2000/svg"
   xmlns="http://www.w3.org/2000/svg"
   xmlns:sodipodi="http://sodipodi.sourceforge.net/DTD/sodipodi-0.dtd"
   xmlns:inkscape="http://www.inkscape.org/namespaces/inkscape"
   width="3200"
   height="800"
   id="svg4957"
   version="1.1"
   inkscape:version="0.48.1 r9760"
   sodipodi:docname="SingleStar_filled.svg">
  <defs
     id="defs4959" />
  <sodipodi:namedview
     id="base"
     pagecolor="#ffffff"
     bordercolor="#666666"
     borderopacity="1.0"
     inkscape:pageopacity="0.0"
     inkscape:pageshadow="2"
     inkscape:zoom="0.3959375"
     inkscape:cx="1600"
     inkscape:cy="400"
     inkscape:document-units="px"
     inkscape:current-layer="1-default"
     showgrid="false"
     inkscape:window-width="1676"
     inkscape:window-height="1006"
     inkscape:window-x="0"
     inkscape:window-y="0"
     inkscape:window-maximized="1" />
  <metadata
     id="metadata4962">
    <rdf:RDF>
      <cc:Work
         rdf:about="">
        <dc:format>image/svg+xml</dc:format>
        <dc:type
           rdf:resource="http://purl.org/dc/dcmitype/StillImage" />
        <dc:title></dc:title>
      </cc:Work>
    </rdf:RDF>
  </metadata>
  <g
     inkscape:label="1-default"
     inkscape:groupmode="layer"
     id="1-default">
    <path
       style="font-size:medium;font-style:normal;font-variant:normal;font-weight:normal;font-stretch:normal;text-indent:0;text-align:start;text-decoration:none;line-height:normal;letter-spacing:normal;word-spacing:normal;text-transform:none;direction:ltr;block-progression:tb;writing-mode:lr-tb;text-anchor:start;baseline-shift:baseline;color:#000000;fill:none;fill-opacity:1;stroke:#0000ff;stroke-width:4;marker:none;visibility:visible;display:inline;overflow:visible;enable-background:accumulate;font-family:Sans;-inkscape-font-specification:Sans;stroke-miterlimit:4;stroke-dasharray:none;stroke-opacity:1"
       d="m 1522.4888,8.26016 -29.0187,49.511532 -75.2919,128.476708 -197.8529,0 -58.0083,0 28.9994,49.55985 98.849,168.88245 -96.2875,164.30055 -28.9993,49.51154 58.0084,0 192.4395,0 75.5821,129.1147 29.0088,49.55985 29.0187,-49.55985 75.5723,-129.1147 197.5532,0 58.0276,0 -29.0091,-49.51154 -98.8586,-168.67944 96.2875,-164.50356 29.0185,-49.55985 -58.0276,0 -192.7199,0 -75.2822,-128.476708 -29.009,-49.511532 z m 0,132.01463 26.9403,45.97361 -29.5117,0 -24.3691,0 26.9405,-45.97361 z m -244.1357,112.05342 101.1013,0 -35.7756,61.05326 -14.7993,25.25842 -50.5264,-86.31168 z m 178.4618,0 63.1025,0 68.2355,0 45.4419,77.55388 9.6762,16.50063 31.5995,53.91942 -34.1611,58.36599 -9.6761,16.52962 -45.2487,77.29288 -63.2958,0 -68.4384,0 -54.9152,-93.8225 -31.5996,-53.98709 34.1612,-58.29832 55.1181,-94.05451 z m 208.6889,0 95.9782,0 -47.9649,81.94245 -12.2378,-20.88919 -35.7755,-61.05326 z m 48.0615,214.02474 50.4782,86.13768 -100.8983,0 35.5724,-60.77293 14.8477,-25.36475 z m -384.7437,4.3789 12.286,20.98585 35.5725,60.77293 -95.7654,0 47.9069,-81.75878 z m 163.8654,147.77094 29.8018,0 24.659,0 -27.2304,46.51492 -27.2304,-46.51492 z"
       id="path13485"
       inkscape:connector-curvature="0" />
    <path
       style="font-size:medium;font-style:normal;font-variant:normal;font-weight:normal;font-stretch:normal;text-indent:0;text-align:start;text-decoration:none;line-height:normal;letter-spacing:normal;word-spacing:normal;text-transform:none;direction:ltr;block-progression:tb;writing-mode:lr-tb;text-anchor:start;baseline-shift:baseline;color:#000000;fill:none;stroke:#0000ff;stroke-width:4;stroke-miterlimit:4;stroke-opacity:1;stroke-dasharray:none;marker:none;visibility:visible;display:inline;overflow:visible;enable-background:accumulate;font-family:Sans;-inkscape-font-specification:Sans"
       d="m 1500.4688,61.78125 c -25.9543,44.14019 -51.6415,88.43811 -77.7813,132.46875 -82.125,0 -164.25,0 -246.375,0 41.0473,70.13642 82.1602,140.23474 123.0937,210.4375 -40.0998,68.64921 -80.327,137.22427 -120.5312,205.8125 80.3125,0 160.625,0 240.9375,0 33.5379,56.79356 66.7091,113.80349 100.0937,170.6875 C 1553.3867,724.3597 1586.4476,667.28508 1620,610.5 c 82.0313,0 164.0625,0 246.0938,0 -41.0706,-70.04555 -82.1939,-140.06049 -123.125,-210.1875 40.1136,-68.73052 80.3482,-137.39072 120.5624,-206.0625 -80.4166,0 -160.8333,0 -241.25,0 -33.439,-56.56119 -66.4633,-113.367193 -99.7812,-170 -7.3438,12.510417 -14.6875,25.020833 -22.0312,37.53125 z M 1523.375,126 c 13.334,22.61608 26.7576,45.49579 40.0625,68.25 -27.2917,0 -54.5833,0 -81.875,0 13.6407,-23.2426 27.2742,-46.48953 40.9375,-69.71875 l 0.5118,0.8591 0.3632,0.60965 z m -257.2812,118.34375 c 42.4583,0 84.9166,0 127.375,0 -21.5207,36.6833 -43.0207,73.37885 -64.5938,110.03125 -21.5689,-36.6427 -43.0949,-73.3108 -64.5312,-110.03125 l 1,0 0.75,0 z m 186.7812,0 c 46.5938,0 93.1875,0 139.7812,0 30.6027,51.92262 61.1236,103.89495 91.4688,155.96875 -31.1865,53.45099 -62.4059,106.88406 -93.8438,160.1875 -46.9062,0 -93.8124,0 -140.7187,0 -30.5258,-51.87905 -60.9396,-103.82531 -91.2813,-155.8125 31.2637,-53.49451 62.4972,-107.00817 94.0313,-160.34375 l 0.5625,0 z m 200.375,0 c 40.7396,0 81.4792,0 122.2188,0 -20.619,35.24492 -41.2284,70.49557 -61.9376,105.6875 -20.7353,-35.19488 -41.4481,-70.40323 -62.0312,-105.6875 l 1,0 0.75,0 z m 61.1875,207.71875 c 21.1627,36.02127 42.4192,72.30259 63.5937,108.4375 -42.9583,0 -85.9166,0 -128.875,0 21.3963,-36.67787 42.8777,-73.30599 64.4063,-109.90625 l 0.5118,0.8591 0.3632,0.60965 z m -384.75,4.375 c 20.3351,34.5414 40.6888,69.38649 61,104.0625 -41.2604,0 -82.5208,0 -123.7813,0 20.5613,-35.22051 41.2127,-70.38839 61.9063,-105.53125 l 0.5118,0.8591 0.3632,0.60965 z m 150.75,154.0625 c 26.9063,0 53.8125,0 80.7187,0 -13.7456,23.42963 -27.4817,46.86497 -41.25,70.28125 -13.849,-23.36272 -27.4551,-46.86826 -41.2187,-70.28125 l 1,0 0.75,0 z"
       id="path5554"
       inkscape:connector-curvature="0" />
    <path
       style="font-size:medium;font-style:normal;font-variant:normal;font-weight:normal;font-stretch:normal;text-indent:0;text-align:start;text-decoration:none;line-height:normal;letter-spacing:normal;word-spacing:normal;text-transform:none;direction:ltr;block-progression:tb;writing-mode:lr-tb;text-anchor:start;baseline-shift:baseline;color:#000000;fill:none;stroke:#0000ff;stroke-width:4;stroke-miterlimit:4;stroke-opacity:1;stroke-dasharray:none;marker:none;visibility:visible;display:inline;overflow:visible;enable-background:accumulate;font-family:Sans;-inkscape-font-specification:Sans"
       d="m 1507.4688,65.78125 c -26.7764,45.46785 -53.2374,91.27532 -80.2813,136.46875 -78.9583,0 -157.9167,0 -236.875,0 39.487,67.45624 79.1193,134.82803 118.3437,202.4375 -38.4001,66.05057 -77.1502,131.89682 -115.7812,197.8125 77.1458,0 154.2917,0 231.4375,0 32.1423,54.06511 63.7154,108.46653 95.5937,162.6875 32.0287,-54.12859 63.3741,-108.7008 95.5938,-162.6875 78.8646,0 157.7292,0 236.5938,0 -39.5032,-67.36956 -79.1395,-134.66152 -118.375,-202.1875 38.4186,-66.12904 77.1945,-132.04976 115.8124,-198.0625 -77.2499,0 -154.5,0 -231.75,0 -32.0368,-53.83663 -63.4579,-108.037133 -95.2812,-162 -5.0104,8.510417 -10.0208,17.020833 -15.0312,25.53125 z M 1523.375,110.25 c 17.9995,30.5338 36.0927,61.32784 54.0625,92 -36.625,0 -73.25,0 -109.875,0 18.3057,-31.16021 36.6091,-62.32192 54.9375,-93.46875 l 0.5118,0.8591 0.3632,0.60965 z m -271.2812,126.09375 c 51.7916,0 103.5833,0 155.375,0 -26.1861,44.60071 -52.3552,89.21149 -78.5938,133.78125 -26.2343,-44.56008 -52.4296,-89.14327 -78.5312,-133.78125 l 1,0 0.75,0 z m 196.2812,0 c 49.5937,0 99.1875,0 148.7812,0 32.3087,54.51699 64.429,109.1472 96.2188,163.96875 -32.6666,56.17791 -65.4125,112.31179 -98.5938,168.1875 -49.9062,0 -99.8124,0 -149.7187,0 -32.309,-54.42799 -64.1965,-109.10598 -96.0313,-163.8125 32.7308,-56.2292 65.5425,-112.41312 98.7813,-168.34375 l 0.5625,0 z m 190.875,0 c 50.0729,0 100.1458,0 150.2188,0 -25.2838,43.16264 -50.5633,86.32802 -75.9376,129.4375 -25.4008,-43.11224 -50.7831,-86.23557 -76.0312,-129.4375 l 1,0 0.75,0 z m 75.1875,199.96875 c 25.828,43.9387 51.7539,88.13491 77.5937,132.1875 -52.2916,0 -104.5833,0 -156.875,0 26.061,-44.5957 52.2127,-89.13842 78.4063,-133.65625 l 0.5118,0.8591 0.3632,0.60965 z m -384.75,4.375 c 25.0004,42.45895 50.0237,85.21881 75,127.8125 -50.5937,0 -101.1875,0 -151.7813,0 25.2263,-43.1382 50.5474,-86.22096 75.9063,-129.28125 l 0.5118,0.8591 0.3632,0.60965 z m 136.75,161.8125 c 36.2396,0 72.4792,0 108.7187,0 -18.4103,31.34743 -36.8169,62.69721 -55.25,94.03125 -18.5654,-31.24999 -36.8831,-62.64612 -55.2187,-94.03125 l 1,0 0.75,0 z"
       id="path5576"
       inkscape:connector-curvature="0" />
    <path
       style="font-size:medium;font-style:normal;font-variant:normal;font-weight:normal;font-stretch:normal;text-indent:0;text-align:start;text-decoration:none;line-height:normal;letter-spacing:normal;word-spacing:normal;text-transform:none;direction:ltr;block-progression:tb;writing-mode:lr-tb;text-anchor:start;baseline-shift:baseline;color:#000000;fill:none;stroke:#0000ff;stroke-width:4;stroke-miterlimit:4;stroke-opacity:1;stroke-dasharray:none;marker:none;visibility:visible;display:inline;overflow:visible;enable-background:accumulate;font-family:Sans;-inkscape-font-specification:Sans"
       d="m 1514.4688,69.78125 c -27.5204,46.8618 -54.8426,93.8834 -82.7813,140.46875 -75.7917,0 -151.5833,0 -227.375,0 38.0019,64.73211 75.9177,129.5152 113.5937,194.4375 -36.7997,63.39369 -73.92,126.60076 -111.0312,189.8125 73.9792,0 147.9583,0 221.9375,0 30.7126,51.33414 60.7259,103.15179 91.0937,154.71875 C 1550.3251,697.6774 1580.2232,645.80249 1611,594.5 c 75.6979,0 151.3958,0 227.0938,0 -38.0478,-64.6278 -75.9794,-129.32456 -113.625,-194.1875 36.8111,-63.47637 73.9545,-126.75931 111.0624,-190.0625 -74.0833,0 -148.1666,0 -222.25,0 -30.6688,-51.0952 -60.4704,-102.73149 -90.7812,-154.0625 -2.6771,4.53125 -5.3542,9.0625 -8.0312,13.59375 z M 1523.375,94.5 c 22.6654,38.45108 45.427,77.16042 68.0625,115.75 -45.9583,0 -91.9167,0 -137.875,0 22.9714,-39.07744 45.9434,-78.1547 68.9375,-117.21875 l 0.5118,0.859102 0.3632,0.609648 z m -285.2812,133.84375 c 61.1249,0 122.25,0 183.375,0 -30.8519,52.51785 -61.6893,105.04439 -92.5938,157.53125 -30.9,-52.47728 -61.7641,-104.97589 -92.5312,-157.53125 l 1,0 0.75,0 z m 205.7812,0 c 52.5938,0 105.1875,0 157.7812,0 34.0056,57.11645 67.6634,114.44102 100.9688,171.96875 -34.1902,58.8753 -68.4552,117.75147 -103.3438,176.1875 -52.9062,0 -105.8124,0 -158.7187,0 -34.0254,-56.9832 -67.4063,-114.41806 -100.7813,-171.8125 34.2286,-58.9462 68.624,-117.82363 103.5313,-176.34375 l 0.5625,0 z m 181.375,0 c 59.4063,0 118.8125,0 178.2188,0 -29.9493,51.08003 -59.8976,102.16075 -89.9376,153.1875 -30.0666,-51.02937 -60.1175,-102.06822 -90.0312,-153.1875 l 1,0 0.75,0 z m 89.1875,192.21875 c 30.4937,51.856 61.0882,103.96761 91.5937,155.9375 -61.6249,0 -123.25,0 -184.875,0 30.7264,-52.51318 61.5471,-104.97112 92.4063,-157.40625 l 0.5118,0.8591 0.3632,0.60965 z m -384.75,4.375 c 29.6661,50.37621 59.3581,101.05146 89,151.5625 -59.9271,0 -119.8542,0 -179.7813,0 29.8919,-51.05556 59.8816,-102.05378 89.9063,-153.03125 l 0.5118,0.8591 0.3632,0.60965 z m 122.75,169.5625 c 45.5729,0 91.1458,0 136.7187,0 -23.0759,39.26471 -46.1513,78.52993 -69.25,117.78125 -23.219,-39.1743 -46.2422,-78.46433 -69.2187,-117.78125 l 1,0 0.75,0 z"
       id="path5596"
       inkscape:connector-curvature="0" />
  </g>
</svg>
