<?xml version="1.0" encoding="UTF-8" standalone="no"?>
<!-- Created with Inkscape (http://www.inkscape.org/) -->

<svg
   xmlns:dc="http://purl.org/dc/elements/1.1/"
   xmlns:cc="http://creativecommons.org/ns#"
   xmlns:rdf="http://www.w3.org/1999/02/22-rdf-syntax-ns#"
   xmlns:svg="http://www.w3.org/2000/svg"
   xmlns="http://www.w3.org/2000/svg"
   xmlns:sodipodi="http://sodipodi.sourceforge.net/DTD/sodipodi-0.dtd"
   xmlns:inkscape="http://www.inkscape.org/namespaces/inkscape"
   width="3200"
   height="800"
   id="svg4957"
   version="1.1"
   inkscape:version="0.48.1 r9760"
   sodipodi:docname="New document 11">
  <defs
     id="defs4959" />
  <sodipodi:namedview
     id="base"
     pagecolor="#ffffff"
     bordercolor="#666666"
     borderopacity="1.0"
     inkscape:pageopacity="0.0"
     inkscape:pageshadow="2"
     inkscape:zoom="0.67789791"
     inkscape:cx="1618.8648"
     inkscape:cy="397.60395"
     inkscape:document-units="px"
     inkscape:current-layer="1-default"
     showgrid="false"
     inkscape:window-width="1676"
     inkscape:window-height="1006"
     inkscape:window-x="0"
     inkscape:window-y="0"
     inkscape:window-maximized="1" />
  <metadata
     id="metadata4962">
    <rdf:RDF>
      <cc:Work
         rdf:about="">
        <dc:format>image/svg+xml</dc:format>
        <dc:type
           rdf:resource="http://purl.org/dc/dcmitype/StillImage" />
        <dc:title></dc:title>
      </cc:Work>
    </rdf:RDF>
  </metadata>
  <g
     inkscape:label="1-default"
     inkscape:groupmode="layer"
     id="1-default">
    <path
       style="font-size:medium;font-style:normal;font-variant:normal;font-weight:normal;font-stretch:normal;text-indent:0;text-align:start;text-decoration:none;line-height:normal;letter-spacing:normal;word-spacing:normal;text-transform:none;direction:ltr;block-progression:tb;writing-mode:lr-tb;text-anchor:start;baseline-shift:baseline;color:#000000;fill:none;fill-opacity:1;stroke:#0000ff;stroke-width:4;marker:none;visibility:visible;display:inline;overflow:visible;enable-background:accumulate;font-family:Sans;-inkscape-font-specification:Sans;stroke-miterlimit:4;stroke-dasharray:none;stroke-opacity:1"
       d="m 1522.4888,8.26016 -29.0187,49.511532 -75.2919,128.476708 -197.8529,0 -58.0083,0 28.9994,49.55985 98.849,168.88245 -96.2875,164.30055 -28.9993,49.51154 58.0084,0 192.4395,0 75.5821,129.1147 29.0088,49.55985 29.0187,-49.55985 75.5723,-129.1147 197.5532,0 58.0276,0 -29.0091,-49.51154 -98.8586,-168.67944 96.2875,-164.50356 29.0185,-49.55985 -58.0276,0 -192.7199,0 -75.2822,-128.476708 -29.009,-49.511532 z m 0,132.01463 26.9403,45.97361 -29.5117,0 -24.3691,0 26.9405,-45.97361 z m -244.1357,112.05342 101.1013,0 -35.7756,61.05326 -14.7993,25.25842 -50.5264,-86.31168 z m 178.4618,0 63.1025,0 68.2355,0 45.4419,77.55388 9.6762,16.50063 31.5995,53.91942 -34.1611,58.36599 -9.6761,16.52962 -45.2487,77.29288 -63.2958,0 -68.4384,0 -54.9152,-93.8225 -31.5996,-53.98709 34.1612,-58.29832 55.1181,-94.05451 z m 208.6889,0 95.9782,0 -47.9649,81.94245 -12.2378,-20.88919 -35.7755,-61.05326 z m 48.0615,214.02474 50.4782,86.13768 -100.8983,0 35.5724,-60.77293 14.8477,-25.36475 z m -384.7437,4.3789 12.286,20.98585 35.5725,60.77293 -95.7654,0 47.9069,-81.75878 z m 163.8654,147.77094 29.8018,0 24.659,0 -27.2304,46.51492 -27.2304,-46.51492 z"
       id="path13485"
       inkscape:connector-curvature="0" />
    <path
       style="font-size:medium;font-style:normal;font-variant:normal;font-weight:normal;font-stretch:normal;text-indent:0;text-align:start;text-decoration:none;line-height:normal;letter-spacing:normal;word-spacing:normal;text-transform:none;direction:ltr;block-progression:tb;writing-mode:lr-tb;text-anchor:start;baseline-shift:baseline;color:#000000;fill:none;stroke:#0000ff;stroke-width:4;stroke-miterlimit:4;stroke-opacity:1;stroke-dasharray:none;marker:none;visibility:visible;display:inline;overflow:visible;enable-background:accumulate;font-family:Sans;-inkscape-font-specification:Sans"
       d="m 1496.9688,59.78125 c -25.5122,43.48843 -50.9151,87.04188 -76.5313,130.46875 -83.7083,0 -167.4167,0 -251.125,0 41.8041,71.49015 83.6974,142.92835 125.4687,214.4375 -40.935,69.95703 -81.9095,139.89139 -122.9062,209.8125 81.8958,0 163.7917,0 245.6875,0 34.2073,58.17418 68.2118,116.46863 102.3437,174.6875 34.1921,-58.1837 68.1171,-116.52458 102.3438,-174.6875 83.6146,0 167.2292,0 250.8438,0 -41.8482,-71.38709 -83.7326,-142.75326 -125.5,-214.1875 40.9367,-70.04545 81.9538,-140.0443 122.9374,-210.0625 -81.9999,0 -163.9999,0 -246,0 -34.1036,-57.94479 -67.9817,-116.023012 -102.0312,-174 -8.5104,14.510417 -17.0208,29.020833 -25.5312,43.53125 z m 26.4062,74.09375 c 10.988,18.66537 22.0814,37.58498 33.0625,56.375 -22.625,0 -45.25,0 -67.875,0 11.3086,-19.28349 22.6062,-38.57363 33.9375,-57.84375 l 0.5118,0.8591 0.3632,0.60965 z m -250.2812,114.46875 c 37.7916,0 75.5833,0 113.375,0 -19.1881,32.72452 -38.3533,65.46256 -57.5938,98.15625 -19.2438,-32.67953 -38.372,-65.42707 -57.5312,-98.15625 l 1,0 0.75,0 z m 182.0312,0 c 45.0938,0 90.1875,0 135.2812,0 29.7912,50.60098 59.458,101.27641 89.0938,151.96875 -30.4699,52.07371 -60.8956,104.17458 -91.4688,156.1875 -45.4062,0 -90.8125,0 -136.2187,0 -29.6981,-50.56688 -59.3012,-101.19087 -88.9063,-151.8125 30.5219,-52.13198 60.9792,-104.30309 91.6563,-156.34375 l 0.5625,0 z m 205.125,0 c 36.0729,0 72.1458,0 108.2188,0 -18.3004,31.27793 -36.5741,62.57161 -54.9376,93.8125 -18.4143,-31.22928 -36.6934,-62.5382 -55.0312,-93.8125 l 1,0 0.75,0 z m 54.1875,211.59375 c 18.8303,32.06232 37.7515,64.38656 56.5937,96.5625 -38.2916,0 -76.5833,0 -114.875,0 19.1191,-32.68666 38.2027,-65.39422 57.4063,-98.03125 l 0.5118,0.8591 0.3632,0.60965 z m -384.75,4.375 c 17.9546,30.61036 36.0095,61.47735 54,92.1875 -36.5938,0 -73.1875,0 -109.7813,0 18.284,-31.22934 36.5378,-62.47657 54.9063,-93.65625 l 0.5118,0.8591 0.3632,0.60965 z m 157.75,150.1875 c 22.2396,0 44.4792,0 66.7187,0 -11.4199,19.46683 -22.8015,38.95624 -34.25,58.40625 -11.4922,-19.41822 -22.7988,-38.94548 -34.2187,-58.40625 l 1,0 0.75,0 z"
       id="path5542"
       inkscape:connector-curvature="0" />
    <path
       style="font-size:medium;font-style:normal;font-variant:normal;font-weight:normal;font-stretch:normal;text-indent:0;text-align:start;text-decoration:none;line-height:normal;letter-spacing:normal;word-spacing:normal;text-transform:none;direction:ltr;block-progression:tb;writing-mode:lr-tb;text-anchor:start;baseline-shift:baseline;color:#000000;fill:none;stroke:#0000ff;stroke-width:4;stroke-miterlimit:4;stroke-opacity:1;stroke-dasharray:none;marker:none;visibility:visible;display:inline;overflow:visible;enable-background:accumulate;font-family:Sans;-inkscape-font-specification:Sans"
       d="m 1500.4688,61.78125 c -25.9543,44.14019 -51.6415,88.43811 -77.7813,132.46875 -82.125,0 -164.25,0 -246.375,0 41.0473,70.13642 82.1602,140.23474 123.0937,210.4375 -40.0998,68.64921 -80.327,137.22427 -120.5312,205.8125 80.3125,0 160.625,0 240.9375,0 33.5379,56.79356 66.7091,113.80349 100.0937,170.6875 C 1553.3867,724.3597 1586.4476,667.28508 1620,610.5 c 82.0313,0 164.0625,0 246.0938,0 -41.0706,-70.04555 -82.1939,-140.06049 -123.125,-210.1875 40.1136,-68.73052 80.3482,-137.39072 120.5624,-206.0625 -80.4166,0 -160.8333,0 -241.25,0 -33.439,-56.56119 -66.4633,-113.367193 -99.7812,-170 -7.3438,12.510417 -14.6875,25.020833 -22.0312,37.53125 z M 1523.375,126 c 13.334,22.61608 26.7576,45.49579 40.0625,68.25 -27.2917,0 -54.5833,0 -81.875,0 13.6407,-23.2426 27.2742,-46.48953 40.9375,-69.71875 l 0.5118,0.8591 0.3632,0.60965 z m -257.2812,118.34375 c 42.4583,0 84.9166,0 127.375,0 -21.5207,36.6833 -43.0207,73.37885 -64.5938,110.03125 -21.5689,-36.6427 -43.0949,-73.3108 -64.5312,-110.03125 l 1,0 0.75,0 z m 186.7812,0 c 46.5938,0 93.1875,0 139.7812,0 30.6027,51.92262 61.1236,103.89495 91.4688,155.96875 -31.1865,53.45099 -62.4059,106.88406 -93.8438,160.1875 -46.9062,0 -93.8124,0 -140.7187,0 -30.5258,-51.87905 -60.9396,-103.82531 -91.2813,-155.8125 31.2637,-53.49451 62.4972,-107.00817 94.0313,-160.34375 l 0.5625,0 z m 200.375,0 c 40.7396,0 81.4792,0 122.2188,0 -20.619,35.24492 -41.2284,70.49557 -61.9376,105.6875 -20.7353,-35.19488 -41.4481,-70.40323 -62.0312,-105.6875 l 1,0 0.75,0 z m 61.1875,207.71875 c 21.1627,36.02127 42.4192,72.30259 63.5937,108.4375 -42.9583,0 -85.9166,0 -128.875,0 21.3963,-36.67787 42.8777,-73.30599 64.4063,-109.90625 l 0.5118,0.8591 0.3632,0.60965 z m -384.75,4.375 c 20.3351,34.5414 40.6888,69.38649 61,104.0625 -41.2604,0 -82.5208,0 -123.7813,0 20.5613,-35.22051 41.2127,-70.38839 61.9063,-105.53125 l 0.5118,0.8591 0.3632,0.60965 z m 150.75,154.0625 c 26.9063,0 53.8125,0 80.7187,0 -13.7456,23.42963 -27.4817,46.86497 -41.25,70.28125 -13.849,-23.36272 -27.4551,-46.86826 -41.2187,-70.28125 l 1,0 0.75,0 z"
       id="path5554"
       inkscape:connector-curvature="0" />
    <path
       style="font-size:medium;font-style:normal;font-variant:normal;font-weight:normal;font-stretch:normal;text-indent:0;text-align:start;text-decoration:none;line-height:normal;letter-spacing:normal;word-spacing:normal;text-transform:none;direction:ltr;block-progression:tb;writing-mode:lr-tb;text-anchor:start;baseline-shift:baseline;color:#000000;fill:none;stroke:#0000ff;stroke-width:4;stroke-miterlimit:4;stroke-opacity:1;stroke-dasharray:none;marker:none;visibility:visible;display:inline;overflow:visible;enable-background:accumulate;font-family:Sans;-inkscape-font-specification:Sans"
       d="m 1503.9688,63.78125 c -26.3717,44.80645 -52.4294,89.7983 -79.0313,134.46875 -80.5417,0 -161.0833,0 -241.625,0 40.2313,68.81733 80.6757,137.51032 120.7187,206.4375 -39.2387,67.35644 -78.7421,134.55849 -118.1562,201.8125 78.7292,0 157.4583,0 236.1875,0 32.8122,55.44589 65.2492,111.11332 97.8437,166.6875 32.7449,-55.486 64.947,-111.29141 97.8438,-166.6875 80.4479,0 160.8958,0 241.3438,0 -40.2765,-68.71365 -80.6982,-137.34259 -120.75,-206.1875 39.2381,-67.44616 78.7508,-134.73226 118.1874,-202.0625 -78.8333,0 -157.6666,0 -236.5,0 -32.7305,-55.20344 -64.945,-110.711235 -97.5312,-166 -6.1771,10.510417 -12.3542,21.020833 -18.5312,31.53125 z m 19.4062,54.34375 c 15.6669,26.57542 31.4252,53.41142 47.0625,80.125 -31.9583,0 -63.9167,0 -95.875,0 15.9731,-27.20147 31.9417,-54.40565 47.9375,-81.59375 l 0.5118,0.8591 0.3632,0.60965 z m -264.2812,122.21875 c 47.125,0 94.2499,0 141.375,0 -23.8533,40.64205 -47.688,81.29514 -71.5938,121.90625 -23.9015,-40.60142 -47.7623,-81.22699 -71.5312,-121.90625 l 1,0 0.75,0 z m 191.5312,0 c 48.0938,0 96.1875,0 144.2812,0 31.4682,53.21249 62.7861,106.51531 93.8438,159.96875 -31.9398,54.80665 -63.8768,109.617 -96.2188,164.1875 -48.4062,0 -96.8125,0 -145.2187,0 -31.4246,-53.1494 -62.5688,-106.46516 -93.6563,-159.8125 32.0126,-54.85293 64.0006,-109.72196 96.4063,-164.34375 l 0.5625,0 z m 195.625,0 c 45.4063,0 90.8125,0 136.2188,0 -22.9513,39.20383 -45.8958,78.41178 -68.9376,117.5625 -23.0679,-39.15364 -46.1159,-78.31925 -69.0312,-117.5625 l 1,0 0.75,0 z m 68.1875,203.84375 c 23.4952,39.97997 47.0866,80.21863 70.5937,120.3125 -47.6249,0 -95.25,0 -142.875,0 23.7284,-40.63691 47.5453,-81.22214 71.4063,-121.78125 l 0.5118,0.8591 0.3632,0.60965 z m -384.75,4.375 c 22.6675,38.50011 45.3564,77.30255 68,115.9375 -45.9271,0 -91.8542,0 -137.7813,0 22.8936,-39.17947 45.8801,-78.30462 68.9063,-117.40625 l 0.5118,0.8591 0.3632,0.60965 z m 143.75,157.9375 c 31.5729,0 63.1458,0 94.7187,0 -16.0777,27.38866 -32.1495,54.78098 -48.25,82.15625 -16.2265,-27.29499 -32.1564,-54.7646 -48.2187,-82.15625 l 1,0 0.75,0 z"
       id="path5566"
       inkscape:connector-curvature="0" />
    <path
       style="font-size:medium;font-style:normal;font-variant:normal;font-weight:normal;font-stretch:normal;text-indent:0;text-align:start;text-decoration:none;line-height:normal;letter-spacing:normal;word-spacing:normal;text-transform:none;direction:ltr;block-progression:tb;writing-mode:lr-tb;text-anchor:start;baseline-shift:baseline;color:#000000;fill:none;stroke:#0000ff;stroke-width:4;stroke-miterlimit:4;stroke-opacity:1;stroke-dasharray:none;marker:none;visibility:visible;display:inline;overflow:visible;enable-background:accumulate;font-family:Sans;-inkscape-font-specification:Sans"
       d="m 1507.4688,65.78125 c -26.7764,45.46785 -53.2374,91.27532 -80.2813,136.46875 -78.9583,0 -157.9167,0 -236.875,0 39.487,67.45624 79.1193,134.82803 118.3437,202.4375 -38.4001,66.05057 -77.1502,131.89682 -115.7812,197.8125 77.1458,0 154.2917,0 231.4375,0 32.1423,54.06511 63.7154,108.46653 95.5937,162.6875 32.0287,-54.12859 63.3741,-108.7008 95.5938,-162.6875 78.8646,0 157.7292,0 236.5938,0 -39.5032,-67.36956 -79.1395,-134.66152 -118.375,-202.1875 38.4186,-66.12904 77.1945,-132.04976 115.8124,-198.0625 -77.2499,0 -154.5,0 -231.75,0 -32.0368,-53.83663 -63.4579,-108.037133 -95.2812,-162 -5.0104,8.510417 -10.0208,17.020833 -15.0312,25.53125 z M 1523.375,110.25 c 17.9995,30.5338 36.0927,61.32784 54.0625,92 -36.625,0 -73.25,0 -109.875,0 18.3057,-31.16021 36.6091,-62.32192 54.9375,-93.46875 l 0.5118,0.8591 0.3632,0.60965 z m -271.2812,126.09375 c 51.7916,0 103.5833,0 155.375,0 -26.1861,44.60071 -52.3552,89.21149 -78.5938,133.78125 -26.2343,-44.56008 -52.4296,-89.14327 -78.5312,-133.78125 l 1,0 0.75,0 z m 196.2812,0 c 49.5937,0 99.1875,0 148.7812,0 32.3087,54.51699 64.429,109.1472 96.2188,163.96875 -32.6666,56.17791 -65.4125,112.31179 -98.5938,168.1875 -49.9062,0 -99.8124,0 -149.7187,0 -32.309,-54.42799 -64.1965,-109.10598 -96.0313,-163.8125 32.7308,-56.2292 65.5425,-112.41312 98.7813,-168.34375 l 0.5625,0 z m 190.875,0 c 50.0729,0 100.1458,0 150.2188,0 -25.2838,43.16264 -50.5633,86.32802 -75.9376,129.4375 -25.4008,-43.11224 -50.7831,-86.23557 -76.0312,-129.4375 l 1,0 0.75,0 z m 75.1875,199.96875 c 25.828,43.9387 51.7539,88.13491 77.5937,132.1875 -52.2916,0 -104.5833,0 -156.875,0 26.061,-44.5957 52.2127,-89.13842 78.4063,-133.65625 l 0.5118,0.8591 0.3632,0.60965 z m -384.75,4.375 c 25.0004,42.45895 50.0237,85.21881 75,127.8125 -50.5937,0 -101.1875,0 -151.7813,0 25.2263,-43.1382 50.5474,-86.22096 75.9063,-129.28125 l 0.5118,0.8591 0.3632,0.60965 z m 136.75,161.8125 c 36.2396,0 72.4792,0 108.7187,0 -18.4103,31.34743 -36.8169,62.69721 -55.25,94.03125 -18.5654,-31.24999 -36.8831,-62.64612 -55.2187,-94.03125 l 1,0 0.75,0 z"
       id="path5576"
       inkscape:connector-curvature="0" />
    <path
       style="font-size:medium;font-style:normal;font-variant:normal;font-weight:normal;font-stretch:normal;text-indent:0;text-align:start;text-decoration:none;line-height:normal;letter-spacing:normal;word-spacing:normal;text-transform:none;direction:ltr;block-progression:tb;writing-mode:lr-tb;text-anchor:start;baseline-shift:baseline;color:#000000;fill:none;stroke:#0000ff;stroke-width:4;stroke-miterlimit:4;stroke-opacity:1;stroke-dasharray:none;marker:none;visibility:visible;display:inline;overflow:visible;enable-background:accumulate;font-family:Sans;-inkscape-font-specification:Sans"
       d="m 1510.9688,67.78125 c -27.1572,46.16821 -54.0133,92.54103 -81.5313,138.46875 -77.375,0 -154.75,0 -232.125,0 38.7662,66.0814 77.496,132.18483 115.9687,198.4375 -37.601,64.72145 -75.5363,129.2481 -113.4062,193.8125 75.5625,0 151.125,0 226.6875,0 31.4613,52.65797 62.1811,105.82401 93.3437,158.6875 C 1551.13,704.36 1581.7633,651.14295 1613.25,598.5 c 77.2812,0 154.5625,0 231.8438,0 -38.7936,-65.98807 -77.5333,-132.00835 -116,-198.1875 37.6061,-64.80784 75.6099,-129.38385 113.4374,-194.0625 -75.6666,0 -151.3333,0 -227,0 -31.3504,-52.4433 -61.9779,-105.38332 -93.0312,-158.03125 -3.8437,6.520833 -7.6875,13.041667 -11.5312,19.5625 z m 12.4062,34.59375 c 20.3326,34.49278 40.7598,69.24386 61.0625,103.875 -41.2917,0 -82.5833,0 -123.875,0 20.6385,-35.11886 41.2763,-70.23828 61.9375,-105.34375 l 0.5118,0.8591 0.3632,0.60965 z m -278.2812,129.96875 c 56.4583,0 112.9166,0 169.375,0 -28.519,48.55928 -57.0222,97.12796 -85.5938,145.65625 -28.5671,-48.51873 -57.097,-97.05949 -85.5312,-145.65625 l 1,0 0.75,0 z m 201.0312,0 c 51.0937,0 102.1875,0 153.2812,0 33.1442,55.82426 66.0912,111.76793 98.5938,167.96875 -33.4121,57.53823 -66.9293,115.01764 -100.9688,172.1875 -51.4062,0 -102.8124,0 -154.2187,0 -33.1848,-55.7117 -65.8205,-111.74889 -98.4063,-167.8125 33.4973,-57.57719 67.0617,-115.1178 101.1563,-172.34375 l 0.5625,0 z m 186.125,0 c 54.7396,0 109.4792,0 164.2188,0 -27.6165,47.12136 -55.2304,94.24439 -82.9376,141.3125 -27.7336,-47.07087 -55.4505,-94.15178 -83.0312,-141.3125 l 1,0 0.75,0 z m 82.1875,196.09375 c 28.1608,47.89738 56.4211,96.05123 84.5937,144.0625 -56.9583,0 -113.9166,0 -170.875,0 28.3936,-48.55452 56.8799,-97.05473 85.4063,-145.53125 l 0.5118,0.8591 0.3632,0.60965 z m -384.75,4.375 c 27.333,46.41752 54.691,93.13506 82,139.6875 -55.2604,0 -110.5208,0 -165.7813,0 27.559,-47.09696 55.2146,-94.13733 82.9063,-141.15625 l 0.5118,0.8591 0.3632,0.60965 z m 129.75,165.6875 c 40.9062,0 81.8125,0 122.7187,0 -20.7431,35.3061 -41.4841,70.61354 -62.25,105.90625 -20.8753,-35.22211 -41.5797,-70.54521 -62.2187,-105.90625 l 1,0 0.75,0 z"
       id="path5586"
       inkscape:connector-curvature="0" />
    <path
       style="font-size:medium;font-style:normal;font-variant:normal;font-weight:normal;font-stretch:normal;text-indent:0;text-align:start;text-decoration:none;line-height:normal;letter-spacing:normal;word-spacing:normal;text-transform:none;direction:ltr;block-progression:tb;writing-mode:lr-tb;text-anchor:start;baseline-shift:baseline;color:#000000;fill:none;stroke:#0000ff;stroke-width:4;stroke-miterlimit:4;stroke-opacity:1;stroke-dasharray:none;marker:none;visibility:visible;display:inline;overflow:visible;enable-background:accumulate;font-family:Sans;-inkscape-font-specification:Sans"
       d="m 1514.4688,69.78125 c -27.5204,46.8618 -54.8426,93.8834 -82.7813,140.46875 -75.7917,0 -151.5833,0 -227.375,0 38.0019,64.73211 75.9177,129.5152 113.5937,194.4375 -36.7997,63.39369 -73.92,126.60076 -111.0312,189.8125 73.9792,0 147.9583,0 221.9375,0 30.7126,51.33414 60.7259,103.15179 91.0937,154.71875 C 1550.3251,697.6774 1580.2232,645.80249 1611,594.5 c 75.6979,0 151.3958,0 227.0938,0 -38.0478,-64.6278 -75.9794,-129.32456 -113.625,-194.1875 36.8111,-63.47637 73.9545,-126.75931 111.0624,-190.0625 -74.0833,0 -148.1666,0 -222.25,0 -30.6688,-51.0952 -60.4704,-102.73149 -90.7812,-154.0625 -2.6771,4.53125 -5.3542,9.0625 -8.0312,13.59375 z M 1523.375,94.5 c 22.6654,38.45108 45.427,77.16042 68.0625,115.75 -45.9583,0 -91.9167,0 -137.875,0 22.9714,-39.07744 45.9434,-78.1547 68.9375,-117.21875 l 0.5118,0.859102 0.3632,0.609648 z m -285.2812,133.84375 c 61.1249,0 122.25,0 183.375,0 -30.8519,52.51785 -61.6893,105.04439 -92.5938,157.53125 -30.9,-52.47728 -61.7641,-104.97589 -92.5312,-157.53125 l 1,0 0.75,0 z m 205.7812,0 c 52.5938,0 105.1875,0 157.7812,0 34.0056,57.11645 67.6634,114.44102 100.9688,171.96875 -34.1902,58.8753 -68.4552,117.75147 -103.3438,176.1875 -52.9062,0 -105.8124,0 -158.7187,0 -34.0254,-56.9832 -67.4063,-114.41806 -100.7813,-171.8125 34.2286,-58.9462 68.624,-117.82363 103.5313,-176.34375 l 0.5625,0 z m 181.375,0 c 59.4063,0 118.8125,0 178.2188,0 -29.9493,51.08003 -59.8976,102.16075 -89.9376,153.1875 -30.0666,-51.02937 -60.1175,-102.06822 -90.0312,-153.1875 l 1,0 0.75,0 z m 89.1875,192.21875 c 30.4937,51.856 61.0882,103.96761 91.5937,155.9375 -61.6249,0 -123.25,0 -184.875,0 30.7264,-52.51318 61.5471,-104.97112 92.4063,-157.40625 l 0.5118,0.8591 0.3632,0.60965 z m -384.75,4.375 c 29.6661,50.37621 59.3581,101.05146 89,151.5625 -59.9271,0 -119.8542,0 -179.7813,0 29.8919,-51.05556 59.8816,-102.05378 89.9063,-153.03125 l 0.5118,0.8591 0.3632,0.60965 z m 122.75,169.5625 c 45.5729,0 91.1458,0 136.7187,0 -23.0759,39.26471 -46.1513,78.52993 -69.25,117.78125 -23.219,-39.1743 -46.2422,-78.46433 -69.2187,-117.78125 l 1,0 0.75,0 z"
       id="path5596"
       inkscape:connector-curvature="0" />
    <path
       style="font-size:medium;font-style:normal;font-variant:normal;font-weight:normal;font-stretch:normal;text-indent:0;text-align:start;text-decoration:none;line-height:normal;letter-spacing:normal;word-spacing:normal;text-transform:none;direction:ltr;block-progression:tb;writing-mode:lr-tb;text-anchor:start;baseline-shift:baseline;color:#000000;fill:none;stroke:#0000ff;stroke-width:4;stroke-miterlimit:4;stroke-opacity:1;stroke-dasharray:none;marker:none;visibility:visible;display:inline;overflow:visible;enable-background:accumulate;font-family:Sans;-inkscape-font-specification:Sans"
       d="m 1517.9688,71.78125 c -27.8417,47.60022 -55.7014,95.17746 -84.0313,142.46875 -74.2083,0 -148.4167,0 -222.625,0 37.1894,63.41097 74.366,126.83017 111.2187,190.4375 -36.0277,62.04887 -72.3003,123.95539 -108.6562,185.8125 72.3958,0 144.7917,0 217.1875,0 29.9626,50.00055 59.259,100.46568 88.8437,150.71875 29.6347,-50.22803 58.8039,-100.75787 88.8438,-150.71875 74.1146,0 148.2292,0 222.3438,0 -37.241,-63.30342 -74.4495,-126.62677 -111.25,-190.1875 36.0407,-62.13052 72.3337,-124.11465 108.6874,-186.0625 -72.4999,0 -145,0 -217.5,0 -29.9127,-49.77706 -59.0338,-100.0751 -88.5312,-150.125 -1.5104,2.552083 -3.0208,5.104167 -4.5312,7.65625 z m 5.4062,14.84375 c 24.9986,42.40988 50.094,85.07663 75.0625,127.625 -50.625,0 -101.25,0 -151.875,0 25.3044,-43.03597 50.6104,-86.07117 75.9375,-129.09375 l 0.5118,0.859102 0.3632,0.609648 z m -292.2812,137.71875 c 65.7916,0 131.5833,0 197.375,0 -33.185,56.47635 -66.3562,112.96092 -99.5938,169.40625 -33.2329,-56.43585 -66.4313,-112.89222 -99.5312,-169.40625 l 1,0 0.75,0 z m 210.5312,0 c 54.0938,0 108.1875,0 162.2812,0 34.8516,58.39131 69.2937,117.07965 103.3438,175.96875 -34.9316,60.2381 -69.9792,120.45314 -105.7188,180.1875 -54.4062,0 -108.8124,0 -163.2187,0 -34.8634,-58.28895 -69.0593,-117.04414 -103.1563,-175.8125 34.9928,-60.29538 70.1531,-120.52269 105.9063,-180.34375 l 0.5625,0 z m 176.625,0 c 64.0729,0 128.1458,0 192.2188,0 -32.2822,55.03865 -64.5648,110.07715 -96.9376,165.0625 -32.3996,-54.9879 -64.7846,-109.98462 -97.0312,-165.0625 l 1,0 0.75,0 z m 96.1875,188.34375 c 32.8267,55.81458 65.7553,111.88403 98.5937,167.8125 -66.2916,0 -132.5833,0 -198.875,0 33.0591,-56.47187 66.2142,-112.88753 99.4063,-169.28125 l 0.5118,0.8591 0.3632,0.60965 z m -384.75,4.375 c 31.9989,54.3347 64.0253,108.96782 96,163.4375 -64.5937,0 -129.1875,0 -193.7813,0 32.2248,-55.01413 64.5486,-109.97025 96.9063,-164.90625 l 0.5118,0.8591 0.3632,0.60965 z m 115.75,173.4375 c 50.2396,0 100.4792,0 150.7187,0 -25.4089,43.22326 -50.8183,86.44638 -76.25,129.65625 -25.5414,-43.1391 -50.9143,-86.37776 -76.2187,-129.65625 l 1,0 0.75,0 z"
       id="path5606"
       inkscape:connector-curvature="0" />
    <path
       style="font-size:medium;font-style:normal;font-variant:normal;font-weight:normal;font-stretch:normal;text-indent:0;text-align:start;text-decoration:none;line-height:normal;letter-spacing:normal;word-spacing:normal;text-transform:none;direction:ltr;block-progression:tb;writing-mode:lr-tb;text-anchor:start;baseline-shift:baseline;color:#000000;fill:none;stroke:#0000ff;stroke-width:4;stroke-miterlimit:4;stroke-opacity:1;stroke-dasharray:none;marker:none;visibility:visible;display:inline;overflow:visible;enable-background:accumulate;font-family:Sans;-inkscape-font-specification:Sans"
       d="m 1521.4688,73.78125 c -28.2062,48.28658 -56.5926,96.49438 -85.2813,144.46875 -72.625,0 -145.25,0 -217.875,0 36.3904,62.08197 72.8468,124.12619 108.8437,186.4375 -35.2168,60.7267 -70.7537,121.26719 -106.2812,181.8125 70.8125,0 141.625,0 212.4375,0 29.2674,48.64992 57.7303,97.80553 86.5937,146.71875 28.8494,-48.92135 57.3245,-98.07035 86.5938,-146.71875 72.5313,0 145.0625,0 217.5938,0 -36.4313,-61.98068 -72.8873,-123.94785 -108.875,-186.1875 35.2499,-60.79671 70.7464,-121.4502 106.3124,-182.0625 -70.9166,0 -141.8333,0 -212.75,0 -29.1399,-48.49686 -57.6231,-97.41273 -86.2812,-146.21875 -0.3438,0.583333 -0.6875,1.166667 -1.0312,1.75 z m 1.9062,4.96875 c 27.3316,46.36816 54.761,92.99326 82.0625,139.5 -55.2917,0 -110.5833,0 -165.875,0 27.6375,-46.99447 55.2773,-93.98767 82.9375,-140.96875 l 0.5118,0.859102 0.3632,0.609648 z m -299.2812,141.59375 c 70.4583,0 140.9166,0 211.375,0 -35.518,60.43486 -71.0231,120.87741 -106.5938,181.28125 -35.566,-60.39435 -71.0983,-120.8087 -106.5312,-181.28125 l 1,0 0.75,0 z m 215.2812,0 c 55.5938,0 111.1875,0 166.7812,0 35.6854,59.69944 70.9063,119.72933 105.7188,179.96875 -35.6662,61.60438 -71.5237,123.14344 -108.0938,184.1875 -55.9062,0 -111.8124,0 -167.7187,0 -35.6342,-59.57676 -70.7085,-119.63764 -105.5313,-179.8125 35.7057,-61.67485 71.699,-123.21143 108.2813,-184.34375 l 0.5625,0 z m 171.875,0 c 68.7396,0 137.4792,0 206.2188,0 -34.6151,58.99722 -69.2318,117.99364 -103.9376,176.9375 -34.7327,-58.94638 -69.4516,-117.90106 -104.0312,-176.9375 l 1,0 0.75,0 z m 103.1875,184.46875 c 35.1597,59.77313 70.4223,119.80049 105.5937,179.6875 -70.9583,0 -141.9166,0 -212.875,0 35.3921,-60.43043 70.8812,-120.804 106.4063,-181.15625 l 0.5118,0.8591 0.3632,0.60965 z m -384.75,4.375 c 34.3318,58.29316 68.6923,116.88423 103,175.3125 -69.2604,0 -138.5208,0 -207.7813,0 34.5577,-58.97274 69.2156,-117.88673 103.9063,-176.78125 l 0.5118,0.8591 0.3632,0.60965 z m 108.75,177.3125 c 54.9063,0 109.8125,0 164.7187,0 -27.7419,47.18178 -55.4853,94.36287 -83.25,141.53125 -27.8852,-47.0912 -55.5765,-94.29706 -83.2187,-141.53125 l 1,0 0.75,0 z"
       id="path5616"
       inkscape:connector-curvature="0" />
  </g>
</svg>
