<?xml version="1.0" encoding="UTF-8" standalone="no"?>
<!-- Created with Inkscape (http://www.inkscape.org/) -->

<svg
   xmlns:dc="http://purl.org/dc/elements/1.1/"
   xmlns:cc="http://creativecommons.org/ns#"
   xmlns:rdf="http://www.w3.org/1999/02/22-rdf-syntax-ns#"
   xmlns:svg="http://www.w3.org/2000/svg"
   xmlns="http://www.w3.org/2000/svg"
   xmlns:sodipodi="http://sodipodi.sourceforge.net/DTD/sodipodi-0.dtd"
   xmlns:inkscape="http://www.inkscape.org/namespaces/inkscape"
   width="3200"
   height="800"
   id="svg4957"
   version="1.1"
   inkscape:version="0.48.1 r9760"
   sodipodi:docname="SingleStar_partial_fill.svg">
  <defs
     id="defs4959" />
  <sodipodi:namedview
     id="base"
     pagecolor="#ffffff"
     bordercolor="#666666"
     borderopacity="1.0"
     inkscape:pageopacity="0.0"
     inkscape:pageshadow="2"
     inkscape:zoom="0.3959375"
     inkscape:cx="1600"
     inkscape:cy="400"
     inkscape:document-units="px"
     inkscape:current-layer="1-default"
     showgrid="false"
     inkscape:window-width="1676"
     inkscape:window-height="1006"
     inkscape:window-x="0"
     inkscape:window-y="0"
     inkscape:window-maximized="1" />
  <metadata
     id="metadata4962">
    <rdf:RDF>
      <cc:Work
         rdf:about="">
        <dc:format>image/svg+xml</dc:format>
        <dc:type
           rdf:resource="http://purl.org/dc/dcmitype/StillImage" />
        <dc:title></dc:title>
      </cc:Work>
    </rdf:RDF>
  </metadata>
  <g
     inkscape:label="1-default"
     inkscape:groupmode="layer"
     id="1-default">
    <path
       style="font-size:medium;font-style:normal;font-variant:normal;font-weight:normal;font-stretch:normal;text-indent:0;text-align:start;text-decoration:none;line-height:normal;letter-spacing:normal;word-spacing:normal;text-transform:none;direction:ltr;block-progression:tb;writing-mode:lr-tb;text-anchor:start;baseline-shift:baseline;color:#000000;fill:none;fill-opacity:1;stroke:#0000ff;stroke-width:4;marker:none;visibility:visible;display:inline;overflow:visible;enable-background:accumulate;font-family:Sans;-inkscape-font-specification:Sans;stroke-miterlimit:4;stroke-dasharray:none;stroke-opacity:1"
       d="m 1522.4888,8.26016 -29.0187,49.511532 -75.2919,128.476708 -197.8529,0 -58.0083,0 28.9994,49.55985 98.849,168.88245 -96.2875,164.30055 -28.9993,49.51154 58.0084,0 192.4395,0 75.5821,129.1147 29.0088,49.55985 29.0187,-49.55985 75.5723,-129.1147 197.5532,0 58.0276,0 -29.0091,-49.51154 -98.8586,-168.67944 96.2875,-164.50356 29.0185,-49.55985 -58.0276,0 -192.7199,0 -75.2822,-128.476708 -29.009,-49.511532 z m 0,132.01463 26.9403,45.97361 -29.5117,0 -24.3691,0 26.9405,-45.97361 z m -244.1357,112.05342 101.1013,0 -35.7756,61.05326 -14.7993,25.25842 -50.5264,-86.31168 z m 178.4618,0 63.1025,0 68.2355,0 45.4419,77.55388 9.6762,16.50063 31.5995,53.91942 -34.1611,58.36599 -9.6761,16.52962 -45.2487,77.29288 -63.2958,0 -68.4384,0 -54.9152,-93.8225 -31.5996,-53.98709 34.1612,-58.29832 55.1181,-94.05451 z m 208.6889,0 95.9782,0 -47.9649,81.94245 -12.2378,-20.88919 -35.7755,-61.05326 z m 48.0615,214.02474 50.4782,86.13768 -100.8983,0 35.5724,-60.77293 14.8477,-25.36475 z m -384.7437,4.3789 12.286,20.98585 35.5725,60.77293 -95.7654,0 47.9069,-81.75878 z m 163.8654,147.77094 29.8018,0 24.659,0 -27.2304,46.51492 -27.2304,-46.51492 z"
       id="path13485"
       inkscape:connector-curvature="0" />
  </g>
</svg>
