<?xml version="1.0" encoding="UTF-8" standalone="no"?>
<!-- Created with Inkscape (http://www.inkscape.org/) -->

<svg
   xmlns:dc="http://purl.org/dc/elements/1.1/"
   xmlns:cc="http://creativecommons.org/ns#"
   xmlns:rdf="http://www.w3.org/1999/02/22-rdf-syntax-ns#"
   xmlns:svg="http://www.w3.org/2000/svg"
   xmlns="http://www.w3.org/2000/svg"
   xmlns:xlink="http://www.w3.org/1999/xlink"
   xmlns:sodipodi="http://sodipodi.sourceforge.net/DTD/sodipodi-0.dtd"
   xmlns:inkscape="http://www.inkscape.org/namespaces/inkscape"
   inkscape:version="0.48.5 r10040"
   version="1.1"
   id="svg3063"
   height="800"
   width="3200"
   sodipodi:docname="Spherical_Dreidel_stretch.svg">
  <sodipodi:namedview
     id="base"
     pagecolor="#ffffff"
     bordercolor="#666666"
     borderopacity="1.0"
     inkscape:pageopacity="0.0"
     inkscape:pageshadow="2"
     inkscape:zoom="0.3071875"
     inkscape:cx="1600"
     inkscape:cy="400"
     inkscape:document-units="px"
     inkscape:current-layer="1-default"
     showgrid="false"
     inkscape:window-width="1440"
     inkscape:window-height="855"
     inkscape:window-x="0"
     inkscape:window-y="0"
     inkscape:window-maximized="0" />
  <defs
     id="defs3065">
    <inkscape:path-effect
       back_thickness="0.25"
       front_thickness="1"
       stroke_width_bottom="1"
       stroke_width_top="1"
       fat_output="false"
       bottom_smth_variation="0;1"
       top_smth_variation="0;1"
       scale_tb="2"
       scale_tf="2"
       scale_bb="2"
       scale_bf="2"
       top_tgt_variation="0;1"
       bottom_tgt_variation="0;1"
       top_edge_variation="0;1"
       bottom_edge_variation="0;1"
       bender="1514.096,406.81442 , 5,0"
       do_bend="true"
       growth="0"
       dist_rdm="0;1"
       direction="1514.096,401.81442 , 7.5634966,27.234043"
       is_visible="true"
       id="path-effect4677"
       effect="rough_hatches" />
    <inkscape:path-effect
       effect="rough_hatches"
       id="path-effect4116"
       is_visible="true"
       direction="1530.2773,-61.193203 , 20.946224,21.787234"
       dist_rdm="0;1"
       growth="0"
       do_bend="true"
       bender="1530.2773,-56.193203 , 5,0"
       bottom_edge_variation="0;1"
       top_edge_variation="0;1"
       bottom_tgt_variation="0;1"
       top_tgt_variation="0;1"
       scale_bf="2"
       scale_bb="2"
       scale_tf="2"
       scale_tb="2"
       top_smth_variation="0;1"
       bottom_smth_variation="0;1"
       fat_output="false"
       stroke_width_top="1"
       stroke_width_bottom="1"
       front_thickness="1"
       back_thickness="0.25" />
    <linearGradient
       gradientUnits="userSpaceOnUse"
       gradientTransform="scale(1.0944943,0.913664)"
       id="imagebot_25"
       y2="34.788584"
       xlink:href="#imagebot_35"
       x2="14.761634"
       y1="34.874969"
       x1="1.9698247" />
    <linearGradient
       id="imagebot_35">
      <stop
         id="imagebot_39"
         stop-color="#9a5723"
         offset="0" />
      <stop
         id="imagebot_38"
         stop-color="#db9762"
         offset="1" />
    </linearGradient>
    <linearGradient
       gradientUnits="userSpaceOnUse"
       x1="0.32040914"
       gradientTransform="scale(0.4868775,2.0539047)"
       id="imagebot_23"
       xlink:href="#imagebot_35"
       y1="14.783549"
       y2="14.783549"
       x2="6.4821495" />
    <linearGradient
       id="linearGradient3038">
      <stop
         id="stop3040"
         stop-color="#9a5723"
         offset="0" />
      <stop
         id="stop3042"
         stop-color="#db9762"
         offset="1" />
    </linearGradient>
    <linearGradient
       gradientUnits="userSpaceOnUse"
       x1="8.0067513"
       gradientTransform="scale(1.143535,0.87448136)"
       id="imagebot_21"
       xlink:href="#imagebot_35"
       y1="12.332888"
       y2="24.911909"
       x2="14.128051" />
    <linearGradient
       id="linearGradient3045">
      <stop
         id="stop3047"
         stop-color="#9a5723"
         offset="0" />
      <stop
         id="stop3049"
         stop-color="#db9762"
         offset="1" />
    </linearGradient>
    <linearGradient
       gradientUnits="userSpaceOnUse"
       gradientTransform="scale(0.77089087,1.2972005)"
       id="imagebot_19"
       y2="18.33567"
       xlink:href="#imagebot_35"
       x2="14.472001"
       y1="9.0848873"
       x1="-1.0948765" />
    <linearGradient
       id="linearGradient3052">
      <stop
         id="stop3054"
         stop-color="#9a5723"
         offset="0" />
      <stop
         id="stop3056"
         stop-color="#db9762"
         offset="1" />
    </linearGradient>
    <linearGradient
       gradientUnits="userSpaceOnUse"
       x1="2.9940445"
       gradientTransform="scale(1.0540926,0.9486833)"
       id="imagebot_17"
       xlink:href="#imagebot_35"
       y1="27.523834"
       y2="37.720842"
       x2="21.019093" />
    <linearGradient
       id="linearGradient3059">
      <stop
         id="stop3061"
         stop-color="#9a5723"
         offset="0" />
      <stop
         id="stop3063"
         stop-color="#db9762"
         offset="1" />
    </linearGradient>
    <linearGradient
       gradientUnits="userSpaceOnUse"
       x1="16.602846"
       gradientTransform="scale(0.92429937,1.0819006)"
       id="imagebot_15"
       xlink:href="#imagebot_35"
       y1="8.3322969"
       y2="13.339052"
       x2="28.298302" />
    <linearGradient
       id="linearGradient3066">
      <stop
         id="stop3068"
         stop-color="#9a5723"
         offset="0" />
      <stop
         id="stop3070"
         stop-color="#db9762"
         offset="1" />
    </linearGradient>
    <linearGradient
       gradientUnits="userSpaceOnUse"
       gradientTransform="scale(0.74442254,1.3433231)"
       id="imagebot_13"
       y2="13.40415"
       xlink:href="#imagebot_34"
       x2="4.4375336"
       y1="14.845891"
       x1="12.695371" />
    <linearGradient
       id="imagebot_34">
      <stop
         id="imagebot_37"
         stop-color="#7ed249"
         offset="0" />
      <stop
         id="imagebot_36"
         stop-color="#286325"
         offset="1" />
    </linearGradient>
    <linearGradient
       gradientUnits="userSpaceOnUse"
       gradientTransform="scale(0.92514559,1.0809109)"
       id="imagebot_11"
       y2="20.825971"
       xlink:href="#imagebot_34"
       x2="11.03502"
       y1="26.279815"
       x1="20.774028" />
    <linearGradient
       id="linearGradient3077">
      <stop
         id="stop3079"
         stop-color="#7ed249"
         offset="0" />
      <stop
         id="stop3081"
         stop-color="#286325"
         offset="1" />
    </linearGradient>
    <filter
       color-interpolation-filters="sRGB"
       id="imagebot_9"
       y="-0.17389999"
       width="1.306"
       height="1.3478"
       x="-0.153">
      <feGaussianBlur
         id="imagebot_33"
         stdDeviation="0.25713" />
    </filter>
    <filter
       color-interpolation-filters="sRGB"
       id="imagebot_7"
       y="-0.22465"
       width="1.427"
       height="1.4493001"
       x="-0.21352001">
      <feGaussianBlur
         id="imagebot_32"
         stdDeviation="0.25713" />
    </filter>
    <filter
       color-interpolation-filters="sRGB"
       id="imagebot_5"
       y="-0.061469998"
       width="1.2682"
       height="1.1229"
       x="-0.13411">
      <feGaussianBlur
         id="imagebot_31"
         stdDeviation="0.21961" />
    </filter>
    <filter
       color-interpolation-filters="sRGB"
       id="imagebot_3">
      <feGaussianBlur
         id="imagebot_30"
         stdDeviation="0.17322" />
    </filter>
    <inkscape:path-effect
       back_thickness="0.25"
       front_thickness="1"
       stroke_width_bottom="1"
       stroke_width_top="1"
       fat_output="false"
       bottom_smth_variation="0;1"
       top_smth_variation="0;1"
       scale_tb="2"
       scale_tf="2"
       scale_bb="2"
       scale_bf="2"
       top_tgt_variation="0;1"
       bottom_tgt_variation="0;1"
       top_edge_variation="0;1"
       bottom_edge_variation="0;1"
       bender="1522.2031,406.90626 , 5,0"
       do_bend="true"
       growth="0"
       dist_rdm="0;1"
       direction="1522.2031,401.90626 , 22.487883,24.510638"
       is_visible="true"
       id="path-effect3982"
       effect="rough_hatches" />
  </defs>
  <metadata
     id="metadata3068">
    <rdf:RDF>
      <cc:Work
         rdf:about="">
        <dc:format>image/svg+xml</dc:format>
        <dc:type
           rdf:resource="http://purl.org/dc/dcmitype/StillImage" />
        <dc:title />
      </cc:Work>
    </rdf:RDF>
  </metadata>
  <g
     inkscape:label="1-light blue"
     inkscape:groupmode="layer"
     id="1-default">
    <path
       inkscape:original-d="m 1886.5938,184.0625 c -18.8888,14.47576 -33.7779,37.89984 -29.34,62.52292 2.5797,21.68169 21.3714,36.64981 40.3616,44.44505 28.6641,10.35954 59.6467,10.18116 89.3613,15.55926 20.802,4.00715 44.127,12.67544 52.9145,33.74441 10.2484,23.23976 7.0659,49.31955 7.197,74.00729 -1.0955,34.38434 -16.5563,69.97799 -46.697,88.42457 -17.8388,11.57538 -38.1639,19.87155 -59.5985,20.7769 -30.8725,2.84265 -61.8716,3.87904 -92.8239,5.48835 -12.5834,30.02971 -26.2601,59.62606 -41.6876,88.28125 57.1672,-1.93316 114.3339,-3.88172 171.5,-5.84375 27.1438,-40.05453 52.2761,-81.59225 76.9063,-123.3125 6.7006,-2.02373 8.0965,6.13452 11.7143,9.92814 29.7899,42.70859 61.1324,84.4766 95.3794,123.66561 6.298,0.33107 12.7196,0.94223 15.9932,-5.53137 14.0391,-15.93292 18.3327,-38.79216 12.2812,-59.02882 -7.8508,-31.6743 -31.8838,-55.48615 -52.7326,-79.19319 -17.2347,-19.75985 -35.8416,-38.92229 -48.8266,-61.85378 -11.6451,-22.00945 -7.2373,-47.60291 -4.4223,-71.18815 2.7258,-26.61253 9.8997,-52.63106 11.4884,-79.26719 0.25,-20.54362 -13.2268,-41.70369 -33.6496,-47.0783 -30.5511,-9.48445 -63.047,-7.68756 -94.6004,-10.3592 -19.3906,-0.52485 -42.0144,-1.59308 -55.975,-16.96306 -2.6441,-3.03915 -4.6305,-6.65928 -5.8063,-10.50569 -6.3736,0.86685 -14.3428,-2.43787 -18.9374,3.28125 z m 855.0937,-0.40625 c -18.7601,11.90116 -32.4215,32.96447 -31.185,55.71818 -0.6024,18.70337 10.4971,36.21192 26.6935,45.15165 21.2026,14.5861 47.6683,15.64999 72.4649,17.45675 21.7025,2.54436 44.6998,-0.77159 65.2141,8.11092 10.7954,4.64789 15.9281,16.95132 13.6264,28.15438 -3.567,42.83967 -10.0555,85.6243 -9.1889,128.72062 2.3682,20.21316 5.7157,40.30276 8.875,60.40625 -65.1979,0 -130.3958,0 -195.5937,0 -11.5146,29.62834 -23.9967,58.95983 -37.9688,87.5 103.7083,0 207.4167,0 311.125,0 1.1398,-23.63712 4.0539,-48.11621 -4.2934,-70.8844 -10.2617,-34.61406 -25.849,-67.56027 -35.2521,-102.44596 -5.7669,-22.50658 -6.9479,-46.44978 -1.8815,-69.31189 5.247,-34.11728 17.52,-66.69097 23.191,-100.72693 3.2583,-16.69777 -1.3936,-36.00193 -16.6079,-45.41736 -26.5209,-16.86 -59.3494,-14.56415 -89.4267,-16.82949 -22.9007,-2.06738 -48.3295,1.30534 -68.4169,-12.16522 -5.5046,-3.95918 -9.8271,-9.71774 -11.5625,-16.3125 -6.6116,0.86403 -14.5899,-2.30722 -19.8125,2.875 z m -1749.65625,2.8125 c -19.80334,16.44385 -30.56379,44.23989 -23.95373,69.57485 4.25677,20.76151 21.88561,36.24791 41.82248,41.7801 32.0318,9.88236 66,5.51423 98.975,6.52005 95.6458,0 191.2917,0 286.9375,0 -22.2624,15.77561 -39.9668,38.01844 -48.8241,64.01987 -16.5552,46.44347 -9.897,96.7041 -3.4328,144.37516 3.2267,26.32982 11.1124,52.24063 10.5382,78.91747 -0.3828,9.20347 -2.2138,18.6606 -7.4688,26.46875 4.8067,3.64944 9.2748,8.49309 15.8064,5.84076 23.3927,-2.5762 50.2307,-9.63815 62.6179,-31.63715 12.612,-24.18975 5.6437,-52.53076 -1.3255,-77.28939 -12.1701,-42.03619 -23.7191,-84.62015 -28.1222,-128.34987 -1.3439,-31.22758 11.9941,-62.49742 35.6484,-82.93935 10.4591,-9.41167 15.6957,-23.13121 16.125,-36.96875 2.0873,-14.8145 5.2208,-33.70749 -8.4688,-44.15625 -19.0305,-11.07807 -41.9858,-11.08353 -63.3743,-11.75501 -101.3932,-0.21537 -202.7972,0.29919 -304.1844,-0.2567 -20.2076,-0.83604 -43.8214,-3.41623 -57.2841,-20.42465 -2.1703,-4.79389 -4.98,-7.37044 -10.5634,-5.96989 -3.96642,0.457 -8.65426,-1.45964 -11.46875,2.25 z M 77.53125,202 c -19.106238,22.95722 -21.976472,58.159 -6.846287,83.82852 15.459542,23.88726 44.639627,32.87918 71.127537,38.04648 -16.63227,37.33275 -22.82829,79.17758 -18.67054,119.75553 4.30633,39.73476 17.86988,77.70955 27.00945,116.40882 5.50325,23.91774 8.94694,48.4849 11.37984,72.9919 120.66667,0 241.33333,0 362,0 14.98052,-91.58137 62.98889,-175.03009 124.92393,-242.99353 21.46022,-23.90495 45.86535,-45.42512 64.84549,-71.48951 8.47149,-14.75974 13.24147,-32.24147 12.04308,-49.32946 -2.14057,-19.81174 -21.43607,-31.27338 -39.00689,-35.89599 -20.08586,-5.91644 -41.33553,-7.89304 -60.88411,-15.49552 -7.55881,-3.20043 -15.3286,-9.94541 -14.45275,-18.92099 -6.96763,0.53335 -15.01864,-2.14751 -20.07518,4.07676 -22.52082,16.59749 -41.42174,42.91232 -38.86232,72.07949 2.87066,21.19498 23.66398,33.10305 42.15625,39.21875 15.3437,5.6623 34.98576,5.3938 45.50957,19.76668 7.77414,12.3704 -1.94386,26.52896 -10.22546,35.81099 -17.52559,18.14554 -36.79223,34.49649 -54.20225,52.95011 -35.63305,36.52267 -70.93391,74.54496 -97.92561,118.09722 -1.47292,7.0583 -8.6911,4.05541 -13.875,4.625 -57.53125,0 -115.0625,0 -172.59375,0 34.42127,-40.88807 63.72631,-85.95045 87.61216,-133.65677 14.2297,-28.49046 26.61775,-57.87319 37.91909,-87.65573 21.64055,-0.16338 43.36372,-1.38207 64.59375,-5.8125 8.58625,-17.8653 9.93751,-40.18691 1.25289,-58.26819 -11.27727,-21.74876 -37.28744,-28.30151 -59.73076,-31.0542 -18.53865,-3.66406 -38.27152,-3.20979 -55.70952,-11.13068 -7.92079,-3.79871 -14.77058,-10.47636 -17.31261,-19.04693 -6.53223,0.92905 -14.86237,-2.70724 -19.23168,3.7129 -19.87213,17.39697 -31.11098,46.59436 -21.73707,72.19335 10.13559,24.16179 36.35806,35.43044 59.88579,42.4392 3.44231,2.33755 14.6756,0.64588 11.06559,6.35561 -33.06975,80.22392 -75.55355,157.7326 -135.26388,221.26769 -8.93737,1.53347 -19.13886,0.21849 -28.5625,0.65625 -31.75485,-34.37576 -52.5153,-79.28475 -54.32893,-126.37196 -1.58511,-31.51599 3.86104,-63.06308 15.61018,-92.31554 22.66007,-0.2181 45.1379,-3.63316 67.25,-8.40625 6.41523,-14.86991 3.32638,-32.18037 -1.81173,-47.0034 -8.7796,-24.13226 -33.92223,-37.38723 -58.1651,-40.70638 -24.92218,-4.70345 -52.4049,-2.712 -74.53922,-16.89838 -5.8739,-3.73336 -10.844494,-8.89986 -14.3277,-14.92309 -5.552687,1.20099 -13.549239,-2.63475 -17.262867,2.35648 L 77.53125,202 z m 994.87495,232.53125 c -26.4838,1.23611 -55.2958,10.82186 -69.5624,34.71875 -15.93202,24.6492 -14.74729,54.93294 -16.22896,83.08913 -1.24302,15.98034 -2.13095,32.34376 -7.24649,47.64768 -2.85638,7.79383 -7.91001,15.23357 -15.3996,19.13819 3.54826,5.58676 9.03713,6.35631 15.21875,5.40625 29.3751,-1.76966 60.4252,-7.58524 84.0313,-26.3125 10.8892,-8.90903 15.1039,-23.24231 13.5312,-36.90625 -0.085,-25.13251 -0.908,-50.42741 1.7865,-75.43807 2.1362,-17.44772 9.8694,-37.2162 27.8385,-43.49943 1.3906,-6.28595 -7.6021,-5.84817 -11.8549,-7.25159 -7.3102,-1.30876 -14.7398,-0.8561 -22.1139,-0.59216 z"
       inkscape:path-effect="#path-effect4677"
       inkscape:connector-curvature="0"
       id="path4228"
       d="m 2161.1777,621.05875 c 0,0 13.7103,-0.87109 19.1851,-8.23628 5.4749,-7.36519 -21.2492,5.88353 -25.3007,1.15615 -4.0515,-4.72739 30.5176,-8.44999 33.1276,-15.02324 2.61,-6.57324 -37.1785,10.2957 -41.1567,5.54736 -3.9782,-4.74833 43.6832,-12.09751 44.7199,-18.23613 1.0366,-6.13863 -48.6975,13.48765 -52.6067,8.71958 -3.9093,-4.76808 53.6129,-14.84982 53.5027,-20.67175 -0.1103,-5.82193 -57.4114,15.90353 -61.2559,11.11687 -3.8444,-4.78666 61.1367,-16.93635 60.0296,-22.48303 -1.107,-5.54668 -63.8735,17.69623 -67.6572,12.89208 -3.7837,-4.80415 66.4799,-18.41931 64.8061,-23.80977 -1.6739,-5.39046 -68.5893,19.0055 -72.3161,14.18491 -3.7267,-4.82058 70.635,-19.57339 68.3348,-24.79105 -2.3003,-5.21767 -72.061,19.97034 -75.7345,15.13434 -3.6735,-4.83601 73.4253,-20.34954 70.563,-25.41218 -2.8622,-5.06264 -74.236,20.57605 -77.8598,15.72559 -3.6237,-4.85046 74.9868,-20.78524 71.6416,-25.71471 -3.3451,-4.92946 -75.2649,20.86414 -78.8423,16.00017 -3.5774,-4.86397 75.4845,-20.92611 71.7505,-25.74845 -3.734,-4.82234 -75.3275,20.88437 -78.8619,16.0078 -3.5344,-4.87657 75.1133,-20.8261 71.0997,-25.57155 -4.0136,-4.74545 -74.6337,20.69487 -78.1282,15.80658 -3.4946,-4.88829 74.0984,-20.54752 69.9286,-25.25029 -4.1698,-4.70277 -73.4228,20.3619 -76.8807,15.46274 -3.4578,-4.89915 72.6932,-20.1606 68.5033,-24.85841 -4.1899,-4.69781 -71.9133,19.94599 -75.4324,15.06314 -3.519,-4.88285 71.2706,-19.76874 67.113,-24.47616 -4.1575,-4.70742 -71.9792,17.03712 -71.9792,17.03712 m -80.3946,115.95447 c 0,0 -7.6132,5.03289 -31.7195,5.85835 -24.1063,0.82545 34.15,-9.45603 38.8695,-16.61379 4.7194,-7.15775 -62.9759,17.43926 -87.0686,18.26091 -24.0926,0.82166 91.7857,-25.41802 96.3785,-32.54214 4.5927,-7.12411 -120.4712,33.36382 -144.5497,34.18153 -12.0392,0.40885 25.2572,-9.91741 66.1131,-21.23281 40.8558,-11.31539 85.269,-23.61992 87.5109,-27.16758 2.2418,-3.54766 -44.1052,9.29417 -92.0989,22.58731 -47.9937,13.29315 -97.6355,27.03762 -101.905,25.29523 -4.2696,-1.7424 45.3699,-15.48673 96.6078,-29.67933 51.2379,-14.19261 104.073,-28.83348 106.2683,-32.36895 2.1952,-3.53547 -49.1072,10.68221 -100.5432,24.93118 -51.436,14.24898 -103.0055,28.52926 -101.2532,25.11898 1.7522,-3.41028 53.3164,-17.69044 104.9636,-31.99935 51.6472,-14.30891 103.3775,-28.64657 105.5336,-32.17188 2.156,-3.52531 -49.5697,10.81253 -101.4405,25.18481 -51.8708,14.37228 -103.8869,28.779 -102.2191,25.39145 1.6678,-3.38754 53.6785,-17.79415 105.7849,-32.23312 52.1065,-14.43898 104.3086,-28.91033 106.4322,-32.42736 2.1236,-3.51703 -50.0738,10.95447 -102.4274,25.46338 -52.3537,14.50891 -104.8637,29.05524 -103.271,25.68785 1.5927,-3.36738 54.0973,-17.91359 106.7096,-32.49559 52.6123,-14.58201 105.3321,-29.19979 107.4298,-32.71032 2.0976,-3.51053 -50.6174,11.10739 -103.4993,25.76557 -52.8819,14.65818 -105.9309,29.35661 -104.4051,26.00711 1.5258,-3.3495 54.5694,-18.04783 107.732,-32.78522 53.1625,-14.73739 106.4439,-29.51384 108.5217,-33.01956 4.1556,-7.01146 -75.6986,20.99233 -56.0568,9.68741 19.6418,-11.30491 135.8049,-37.66942 131.6329,-42.37348 -4.1719,-4.70407 -114.3025,31.70919 -106.8681,23.78734 7.4345,-7.92184 102.6835,-28.48786 98.6014,-33.21749 -4.0821,-4.72963 -91.5035,25.38894 -87.0822,18.30137 4.4213,-7.08756 82.9884,-23.02774 79.0944,-27.81023 -3.8939,-4.78249 -74.7671,20.74872 -71.8425,14.07511 2.9245,-6.6736 67.9383,-18.85475 64.3208,-23.71461 -3.6176,-4.85986 -61.4363,17.05209 -59.5027,10.65227 1.9336,-6.39982 55.8766,-15.50976 52.6107,-20.46792 -3.266,-4.95816 -50.6973,14.07369 -49.5219,7.8832 1.1754,-6.1905 46.1746,-12.81877 43.4703,-17.9336 -2.7042,-5.11484 -42.3055,11.74605 -41.7679,5.73156 0.5376,-6.0145 39.1036,-10.85745 37.4746,-16.27166 -1.6289,-5.41422 -37.0352,10.2844 -36.9845,4.4041 0.051,-5.88031 35.3774,-9.82438 34.615,-15.48014 -0.7624,-5.65576 -34.5396,9.593 -34.4204,3.69267 0.1193,-5.90032 33.6814,-9.35489 33.605,-15.20215 -0.076,-5.84727 -33.4621,9.29527 -33.4672,3.42849 -0.01,-5.86678 33.4161,-9.28278 33.8316,-15.26769 0.4155,-5.98491 -33.8143,9.39467 -34.1279,3.61264 -0.3136,-5.78203 34.5714,-9.60532 35.266,-15.66883 0.6947,-6.06351 -35.5585,9.8809 -36.3553,4.23219 -0.7968,-5.64872 37.0908,-10.30707 37.8083,-16.37797 0.7174,-6.0709 -38.5852,10.72372 -40.0294,5.25403 -1.4442,-5.4697 40.6875,-11.30844 41.5469,-17.41986 0.8594,-6.11143 -42.9832,11.94795 -45.2069,6.6941 -2.2237,-5.25384 46.0804,-12.80943 47.12,-18.97202 1.0396,-6.16259 -49.2387,13.68895 -52.9302,8.84238 -3.6915,-4.84657 53.9851,-15.00922 55.0869,-21.1902 1.1018,-6.18099 -58.7212,16.32769 -64.3932,12.03116 -5.6721,-4.29653 65.5104,-18.21642 66.5513,-24.38154 1.0408,-6.16512 -72.1351,20.06042 -80.3611,16.47358 -8.2261,-3.58683 81.4162,-22.64268 82.277,-28.75877 0.8607,-6.1161 -90.351,25.12962 -102.0573,22.5103 -11.7063,-2.61933 102.9303,-28.62981 103.5043,-34.6672 0.574,-6.03738 -115.6767,32.17748 -130.3974,30.39634 -14.7207,-1.78114 131.2196,-36.50279 130.7345,-42.24647 -0.2426,-2.87183 -36.7188,7.27912 -74.8859,17.89748 -38.1671,10.61835 -78.0263,21.7041 -84.9853,20.70186 -6.959,-1.00224 32.8949,-12.08668 74.2595,-23.59507 41.3646,-11.5084 84.2391,-23.44075 83.3705,-26.13882 -0.8685,-2.69807 -43.7499,9.23724 -87.7955,21.49236 -44.0456,12.25513 -89.2564,24.83005 -94.7179,23.41121 -5.4614,-1.41885 39.7523,-13.99498 85.9435,-26.84771 46.1912,-12.85274 93.3593,-25.98208 91.8686,-28.50735 -1.4908,-2.52526 -48.6827,10.61174 -96.4742,23.91062 -47.7915,13.29889 -96.183,26.75965 -99.9951,24.88188 -3.8122,-1.87776 44.5969,-15.34408 93.3689,-28.91661 48.7721,-13.57254 97.907,-27.25129 95.6153,-29.55393 -2.2917,-2.30264 -51.4044,11.37088 -100.6778,25.0838 -49.2734,13.71292 -98.7076,27.46524 -101.5597,25.32017 -2.8521,-2.14507 46.6751,-15.9241 95.9285,-29.63231 49.2535,-13.70821 98.2333,-27.3456 94.3573,-29.20739 -3.876,-1.86178 -52.8476,11.77401 -101.3886,25.28469 -48.541,13.51067 -96.6509,26.89623 -98.7234,24.53399 -2.0726,-2.36224 45.9098,-15.71331 92.8974,-28.7924 46.9875,-13.07909 92.9808,-25.88621 86.9945,-27.16054 -5.9862,-1.27433 -51.977,11.53245 -96.8251,24.01658 -44.848,12.48414 -88.5525,24.64562 -89.8978,22.08068 -1.3454,-2.56494 42.3754,-14.732 84.3849,-26.4267 42.0095,-11.6947 82.3088,-22.91704 74.1719,-23.59254 -8.1369,-0.67549 -48.4372,10.54721 -86.8707,21.24675 -38.4334,10.69954 -74.9986,20.87592 -75.6153,18.1078 -1.2335,-5.53623 145.4019,-40.47989 127.4818,-41.37244 -17.9201,-0.89255 -128.7716,35.85189 -128.9638,30.0249 -0.1922,-5.82698 110.2232,-30.68895 94.4577,-32.18157 -15.7655,-1.49263 -94.6801,26.36302 -93.4144,20.12913 1.2657,-6.23389 78.2589,-21.79156 69.7468,-25.30445 -8.5122,-3.51289 -68.5431,19.08788 -65.4658,12.34836 3.0774,-6.73952 57.2476,-15.94308 52.2852,-20.44512 -4.9625,-4.50204 -49.3792,13.7534 -43.6322,6.26895 5.747,-7.48445 38.7664,-10.79789 36.4084,-16.02611 -2.358,-5.22823 -25.5554,4.17665 -25.5554,4.17665 m 61.875,335.04789 c 0,0 -106.9546,32.57316 -104.022,25.90584 2.9327,-6.66732 88.2547,-24.46287 61.7292,-22.96574 -26.5255,1.49712 -58.798,16.29886 -55.9709,9.65954 2.8271,-6.63932 17.1378,-7.67868 17.1378,-7.67868 m 1103.6031,86.35709 c 0,0 9.8671,0.19254 -11.2581,0.19254 -21.1251,0 11.4036,-3.15673 11.7463,-9.10062 0.3427,-5.9439 -32.8714,9.10062 -53.9965,9.10062 -21.1252,0 54.3614,-15.05065 54.6216,-20.97273 0.2602,-5.92207 -75.7468,20.97273 -96.8719,20.97273 -21.1251,0 97.1528,-26.90056 97.1588,-32.75323 0.01,-5.85268 -118.2839,32.75323 -139.4091,32.75323 -10.5626,0 24.306,-9.6528 61.7545,-20.02298 37.4486,-10.37019 77.4757,-21.45777 77.272,-24.32734 -0.2038,-2.86957 -40.2267,8.21801 -82.8538,20.02299 -42.6271,11.80497 -87.8604,24.32733 -98.423,24.32733 -10.5625,0 34.6759,-12.52354 82.4179,-25.74529 47.742,-13.22174 97.9858,-27.14169 97.5033,-29.93451 -0.4825,-2.79281 -50.7212,11.12714 -103.5022,25.74529 -52.7809,14.61815 -108.1067,29.93451 -118.6692,29.93451 -10.5626,0 44.7679,-15.31739 102.5082,-31.30937 57.7402,-15.99198 117.8881,-32.65857 117.0632,-35.35697 -0.8248,-2.6984 -60.9667,13.96819 -123.5746,31.30937 -62.6079,17.34119 -127.6845,35.35697 -138.2471,35.35697 -10.5626,0 54.5074,-18.01358 121.9708,-36.70003 67.4635,-18.68645 137.3181,-38.04577 136.4667,-40.73725 -0.8514,-2.69147 -71.6287,16.92545 -143.9467,36.95763 -72.3179,20.03219 -146.1785,40.47965 -153.0191,39.44926 -6.8406,-1.03038 67.0173,-21.4775 142.3131,-42.33542 75.2957,-20.85792 152.0275,-42.12664 151.1101,-44.80023 -0.9175,-2.67358 -75.5203,18.00671 -149.5449,38.51441 -74.0247,20.50771 -147.4703,40.84284 -145.8839,37.47893 1.5865,-3.3639 75.0233,-23.69869 147.7828,-43.85778 72.7595,-20.1591 144.8423,-40.14251 143.8785,-42.80366 -0.9638,-2.66115 -73.0418,17.32239 -144.5444,37.13489 -71.5026,19.81249 -142.4289,39.45395 -140.9119,36.10864 1.5169,-3.34531 57.4,-18.82265 110.241,-33.46368 52.8409,-14.64102 102.642,-28.44571 92.0795,-28.44571 -10.5626,0 -60.3654,13.80481 -107.1838,26.77745 -46.8185,12.97264 -90.6501,25.11312 -89.1956,21.78445 1.4545,-3.32866 45.2807,-15.46914 86.0896,-26.77745 40.8089,-11.30831 78.6021,-21.78445 68.0395,-21.78445 -10.5626,0 -48.3571,10.47625 -83.1727,20.12405 -34.8157,9.6478 -66.6505,18.46716 -65.2521,15.15338 2.7968,-6.62755 127.2996,-35.27743 106.1745,-35.27743 -21.1251,0 -103.3791,28.65025 -100.683,22.04931 2.6961,-6.60095 79.5579,-22.04931 58.4327,-22.04931 -21.1251,0 -55.7378,15.44871 -53.1319,8.87148 2.606,-6.57724 21.4442,-8.87148 21.4442,-8.87148 m 238.6513,-19.30927 c 0,0 -60.9333,19.82112 -61.8213,14.21111 -0.888,-5.61002 60.8369,-16.86673 58.8447,-22.17235 -1.9923,-5.30562 -59.7355,16.5631 -60.6215,10.95162 -0.8861,-5.61147 58.6242,-16.25586 56.6386,-21.56417 -1.9855,-5.30831 -57.5275,15.95347 -58.3896,10.33442 -0.8621,-5.61905 56.3991,-15.64135 54.4601,-20.96341 -1.9389,-5.32207 -55.325,15.34514 -56.1409,9.71236 -0.816,-5.63278 54.197,-15.03305 52.3444,-20.37993 -1.8525,-5.34687 -53.1632,14.74794 -53.9105,9.09518 -0.7473,-5.65275 52.053,-14.44068 50.3265,-19.82337 -1.7265,-5.38268 -51.2664,14.22407 -51.5427,8.43969 -0.2763,-5.78438 49.8113,-13.82101 48.2501,-19.25045 -1.5611,-5.42944 -48.4368,13.44121 -48.3707,7.56084 0.066,-5.88037 46.7805,-12.98221 45.5729,-18.51067 -1.2075,-5.52846 -45.5044,12.62961 -45.2898,6.707 0.2145,-5.92261 44.0798,-12.23475 43.2526,-17.86972 -0.8272,-5.63497 -43.0353,11.94636 -42.6932,5.98731 0.3421,-5.95905 41.8621,-11.62118 41.441,-17.36984 -0.4211,-5.74866 -41.096,11.40998 -40.6489,5.42073 0.4471,-5.98925 40.222,-11.16777 40.2457,-17.04095 0.024,-5.87318 -39.7956,11.05085 -39.2674,5.03803 0.5282,-6.01282 39.2827,-10.90887 39.8076,-16.92227 0.5249,-6.0134 -39.2762,10.90857 -38.692,4.87912 0.5842,-6.02945 39.2046,-10.8891 40.3124,-17.06552 1.1078,-6.17642 -39.725,11.03516 -39.1106,4.99626 0.6144,-6.0389 40.2133,-11.17125 41.3354,-17.35279 1.1222,-6.18154 -40.7177,11.31297 -40.0995,5.27193 0.6182,-6.04105 41.2302,-11.45582 42.6145,-17.71135 1.3843,-6.25553 -41.993,11.66938 -41.3973,5.63354 0.5956,-6.03585 42.7919,-11.89191 44.3634,-18.20063 1.5715,-6.30872 -43.7645,12.16388 -43.2177,6.14051 0.5469,-6.02336 44.8006,-12.4524 46.4724,-18.79018 1.6718,-6.33777 -45.724,12.71081 -45.4286,6.7563 0.2953,-5.95452 47.1123,-13.09738 48.7907,-19.43815 1.6783,-6.34076 -48.5264,13.4922 -50.6552,8.21068 -2.1288,-5.28153 52.345,-14.55466 53.9355,-20.8722 1.5906,-6.31754 -55.7393,15.50023 -61.2451,11.15699 -5.5058,-4.34323 62.8461,-17.47744 64.2605,-23.74715 1.4143,-6.26971 -69.8753,19.43416 -81.5418,16.80373 -11.6664,-2.63042 82.9649,-23.07588 84.126,-29.27628 1.1611,-6.2004 -96.4588,26.83113 -115.2517,26.18251 -18.7929,-0.64861 116.6428,-32.44693 117.0367,-38.43495 0.1969,-2.99401 -33.5135,6.38689 -69.3329,16.35186 -35.8195,9.96497 -73.7495,20.514 -81.9471,19.85625 -8.1976,-0.65776 29.7297,-11.20604 69.5815,-22.29319 39.8517,-11.08716 81.627,-22.71318 81.1725,-25.52641 -0.4545,-2.81322 -42.2849,8.82927 -85.5012,20.85331 -43.2164,12.02404 -87.8199,24.42963 -93.7551,23.1426 -5.9352,-1.28702 38.6754,-13.69494 84.467,-26.43609 45.7915,-12.74115 92.7632,-25.81554 91.6128,-28.43549 -1.1505,-2.61995 -48.0595,10.4381 -95.7073,23.69668 -47.6479,13.25858 -96.0352,26.71769 -100.0625,24.89985 -4.0274,-1.81784 44.3862,-15.28489 93.2586,-28.88502 48.8724,-13.60014 98.2034,-27.33336 96.0826,-29.68353 -2.1209,-2.35017 -51.3348,11.35144 -100.8374,25.12787 -49.5026,13.77642 -99.2942,27.62766 -102.4844,25.57674 -3.1903,-2.05092 46.5774,-15.89634 96.2387,-29.71777 49.6612,-13.82143 99.2162,-27.61886 95.6747,-29.57379 -3.5414,-1.95494 -53.0724,11.8366 -102.2834,25.53352 -49.211,13.69693 -98.1016,27.29924 -100.2776,24.96585 -2.176,-2.33339 46.7651,-15.95072 94.9605,-29.36586 48.1955,-13.41513 95.6458,-26.62807 90.5583,-28.15268 -5.0875,-1.52462 -52.5255,11.68541 -99.0729,24.64247 -46.5473,12.95706 -92.2032,25.66116 -93.6505,23.12469 -1.4474,-2.53648 44.2663,-15.25773 88.4113,-27.54688 44.145,-12.28915 86.7224,-24.1462 79.0615,-24.95425 -7.661,-0.80806 -50.2369,11.0487 -91.114,22.42854 -40.8771,11.37984 -80.054,22.28277 -80.8587,19.56703 -0.8046,-2.71574 38.0696,-13.53545 74.9296,-23.79761 36.86,-10.26216 71.7069,-19.96679 62.8879,-20.45237 -17.6379,-0.97115 -139.4501,38.82503 -139.6982,33.01375 -0.2481,-5.81128 121.8131,-33.91606 104.0989,-34.86601 -17.7142,-0.94996 -104.5449,29.10984 -103.909,23.05144 0.6359,-6.0584 86.5328,-24.09544 76.6761,-27.23392 -9.8567,-3.13847 -76.0972,21.19142 -73.835,14.67906 2.2621,-6.51237 64.1986,-17.87883 58.5779,-22.19756 -5.6207,-4.31873 -56.4771,15.73018 -51.7871,8.54032 4.6899,-7.18985 46.3539,-12.91123 43.5854,-18.02518 -2.7685,-5.11394 -39.9718,11.13534 -29.0147,2.19791 10.9571,-8.93743 18.8433,-8.19235 18.8433,-8.19235 M 1393.1781,617.29348 c 0,0 -3.4408,3.87715 -28.1852,4.8792 -24.7445,1.00205 45.1377,-12.49752 52.7093,-20.44482 7.5717,-7.9473 -72.291,20.01782 -69.1727,13.3051 3.1182,-6.71272 75.9951,-21.04502 78.6892,-27.6429 2.6942,-6.59788 -75.5888,20.93506 -74.3822,14.75053 1.2066,-6.18453 76.9677,-21.31835 78.0441,-27.46922 1.0763,-6.15087 -76.8985,21.30157 -76.8113,15.42602 0.087,-5.87555 77.8342,-21.56213 77.9123,-27.43744 0.078,-5.87531 -77.8584,21.5711 -78.2615,15.83043 -0.4031,-5.74067 78.3078,-21.69694 77.7193,-27.38847 -0.5885,-5.69154 -78.1381,21.65214 -78.8675,16.00095 -0.7295,-5.6512 78.257,-21.68641 77.2131,-27.25264 -1.0438,-5.56623 -77.957,21.60543 -78.8928,16.01052 -0.9358,-5.59491 77.8314,-21.57189 76.4883,-27.05604 -1.3432,-5.48414 -77.4378,21.46493 -78.4676,15.89519 -1.0298,-5.56974 77.1078,-21.37473 75.6004,-26.81419 -1.5073,-5.43946 -76.6438,21.24821 -77.6586,15.67343 -1.0148,-5.57479 76.1177,-21.10358 74.5628,-26.53071 -1.5548,-5.42713 -75.5915,20.95978 -76.4817,15.34954 -0.8901,-5.61024 74.9254,-20.77626 73.4009,-26.21264 -1.5246,-5.43639 -74.2551,20.59243 -75.0076,14.94313 -0.7525,-5.64931 73.4815,-20.37911 71.9991,-25.828 -1.4825,-5.44889 -72.7615,20.18143 -73.503,14.52815 -0.7414,-5.65328 72.019,-19.97663 70.5903,-25.4413 -1.4287,-5.46467 -71.3356,19.78909 -72.023,14.1199 -0.6874,-5.66918 70.5928,-19.58416 69.2298,-25.0679 -1.363,-5.48375 -69.9212,19.39981 -70.5234,13.70607 -0.6022,-5.69374 69.1589,-19.1894 67.8735,-24.69556 -1.2853,-5.50615 -68.4799,19.00297 -68.9646,13.27569 -0.4847,-5.72727 67.6777,-18.78142 66.4822,-24.31337 -1.1956,-5.53196 -66.9714,18.58735 -67.3041,12.81696 -0.3328,-5.77039 66.107,-18.34848 65.0136,-23.90968 -1.0933,-5.56121 -65.3514,18.14068 -65.4943,12.31663 -0.1429,-5.82404 64.3994,-17.87739 63.4209,-23.47138 -0.9785,-5.59398 -63.5695,17.64893 -63.4797,11.75932 0.09,-5.8896 62.4996,-17.35284 61.649,-22.98324 -0.8506,-5.6304 -61.566,17.09551 -61.1939,11.12651 0.3721,-5.96901 60.3416,-16.75643 59.6323,-22.42698 -0.7093,-5.67055 -59.2683,16.46024 -58.5545,10.39533 0.7138,-6.06492 57.6846,-16.02126 57.4481,-21.82409 -0.2365,-5.80283 -56.7445,15.762 -55.6161,9.58087 1.1284,-6.18113 55.4086,-15.39172 55.9428,-21.40967 0.5343,-6.01795 -54.8275,15.23218 -53.1921,8.90909 1.6354,-6.3231 53.7129,-14.92327 55.027,-21.15901 1.3142,-6.23573 -53.3932,14.83638 -51.161,8.34629 2.2322,-6.49009 52.4503,-14.57507 54.6943,-21.0704 2.244,-6.49532 -52.5421,14.60258 -49.3857,7.85441 3.1565,-6.74816 51.5795,-14.33574 55.043,-21.17129 3.4634,-6.83555 -51.9418,14.43852 -47.43,7.31228 4.5118,-7.12625 50.7684,-14.11302 56.107,-21.47135 5.3386,-7.35832 -51.7197,14.37976 -45.1724,6.6861 6.5472,-7.69366 50.3477,-13.99893 59.0644,-22.2984 8.7167,-8.29948 -52.9556,14.72678 -42.3887,5.91348 10.5669,-8.81329 50.6861,-14.09648 54.1958,-20.94929 3.5098,-6.85282 -50.6175,14.07913 -71.7427,14.07913 -21.1251,0 75.0679,-20.88065 76.4103,-27.13173 1.3423,-6.25107 -97.5354,27.13173 -118.6605,27.13173 -21.1252,0 119.5958,-33.26957 120.325,-39.3511 0.3646,-3.04077 -34.9863,6.79701 -73.0801,17.39497 -38.0939,10.59797 -78.9326,21.95613 -89.4952,21.95613 -10.5626,0 30.3168,-11.36921 73.8756,-23.48784 43.5589,-12.11862 89.7956,-24.98667 90.0035,-27.98435 0.2079,-2.99768 -46.0239,9.87037 -94.967,23.48784 -48.9431,13.61746 -100.5998,27.98435 -111.1624,27.98435 -10.5626,0 41.118,-14.37322 95.3256,-29.45574 54.2075,-15.08252 110.94,-30.87433 110.5696,-33.71152 -0.3705,-2.8372 -57.0972,12.95462 -116.3996,29.45573 -59.3025,16.50112 -121.1833,33.71153 -131.7459,33.71153 -10.5625,0 51.3553,-17.22039 115.5334,-35.07852 64.1781,-17.85812 130.6142,-36.35398 129.214,-38.90491 -1.4002,-2.55093 -67.8302,15.94493 -136.5883,35.07852 -68.7581,19.13359 -139.8468,38.90491 -150.4093,38.90491 -10.5626,0 60.6857,-19.8154 133.6291,-40.114 72.9433,-20.2986 147.5798,-41.08042 143.9586,-43.01325 -3.6211,-1.93283 -78.2875,18.85875 -154.7006,40.12377 -76.413,21.26502 -154.5749,43.00348 -164.997,42.96442 -10.4221,-0.0391 67.8153,-21.79832 147.144,-43.87504 79.3288,-22.07672 159.7475,-44.47091 153.8853,-45.77986 -5.8622,-1.30895 -86.2482,21.07721 -167.9408,43.81241 -81.6926,22.7352 -164.6933,45.81944 -175.5695,45.90666 -10.8762,0.0872 72.1004,-22.99008 155.4358,-46.18259 83.3355,-23.19251 167.0292,-46.50022 157.8082,-46.87381 -9.2211,-0.3736 -92.9957,22.95689 -176.4159,46.1732 -83.4201,23.21632 -166.4852,46.31846 -174.0625,45.48817 -7.5773,-0.83028 75.2313,-23.86172 157.2486,-46.68801 82.0173,-22.8263 163.2444,-45.44743 152.7165,-45.45711 -10.5278,-0.01 -91.6448,22.58063 -171.4779,44.79924 -79.8331,22.21861 -158.3806,44.06553 -163.5631,42.5691 -5.1825,-1.49644 73.3592,-23.34291 150.506,-44.81458 77.1468,-21.47167 152.9003,-42.56852 142.3276,-42.5657 -10.5727,0.003 -86.2772,21.08577 -160.2293,41.66855 -73.9521,20.58277 -146.14956,40.66537 -149.52996,38.6675 -3.3804,-1.99788 68.81026,-22.08003 139.15876,-41.66067 70.3485,-19.58064 138.8568,-38.65978 128.265,-38.65163 -10.5918,0.008 -79.0727,19.07936 -145.5342,37.57837 -66.4615,18.49902 -130.90116,36.42583 -133.26601,34.14517 -2.36485,-2.28065 62.06791,-20.20701 124.41501,-37.56166 62.347,-17.35465 122.6102,-34.13759 112.0255,-34.13141 -10.5848,0.006 -70.8401,16.78664 -128.8841,32.94377 -58.0439,16.15714 -113.87431,31.69096 -115.49828,29.20385 -1.62397,-2.48712 54.19988,-18.02048 107.76908,-32.93284 53.5693,-14.91235 104.8857,-29.20368 94.3341,-29.20673 -10.5516,-0.003 -61.8669,14.28768 -110.8068,27.9116 -48.9399,13.62391 -95.50251,26.58102 -96.46954,23.91072 -0.96702,-2.6703 45.58954,-15.62697 89.74934,-27.92089 44.1598,-12.29392 85.9243,-23.9251 75.431,-23.94439 -10.4933,-0.0193 -52.2316,11.60436 -91.4884,22.53354 -39.2568,10.92917 -76.03042,21.16387 -76.54297,18.36666 -1.02511,-5.59442 147.03897,-40.93718 126.21677,-41.02154 -20.8222,-0.0844 -127.24791,35.42883 -127.20989,29.53754 0.038,-5.89128 104.80989,-29.18248 89.99689,-30.94038 -14.8131,-1.75791 -89.97977,25.05494 -88.77517,18.83784 1.2046,-6.21711 74.43467,-20.7273 65.86967,-24.22554 -8.565,-3.49824 -64.7189,18.02345 -62.06407,11.40135 2.65483,-6.6221 53.73907,-14.9664 48.54987,-19.40536 -5.1893,-4.43896 -46.06324,12.83017 -41.15133,5.57809 4.9119,-7.25207 37.09073,-10.33145 32.49073,-14.93518 -4.6,-4.60373 -23.06958,3.48423 -23.06958,3.48423 M 512.54753,633.03125 c 0,0 10.96326,-0.11065 12.07576,-6.26742 1.11251,-6.15677 -22.63833,6.26742 -43.76346,6.26742 -21.12514,0 44.87508,-12.42394 46.20934,-18.64324 1.33425,-6.2193 -67.33448,18.64324 -88.45962,18.64324 -21.12514,0 89.79291,-24.86226 91.35635,-31.14618 1.56345,-6.28392 -112.48149,31.14618 -133.60663,31.14618 -21.12514,0 135.16901,-37.42979 136.96984,-43.78063 0.90041,-3.17542 -38.60859,7.76974 -80.99752,19.50875 -42.38892,11.73901 -87.66003,24.27188 -98.2226,24.27188 -10.56257,0 34.7093,-12.53278 82.86128,-25.86811 48.15198,-13.33532 99.18209,-27.47318 100.20571,-30.68333 1.02362,-3.21015 -50.00048,10.92771 -103.94436,25.86811 -53.94387,14.9404 -110.81034,30.68333 -121.3729,30.68333 -10.56257,0 46.3049,-15.74284 106.07494,-32.29726 59.77004,-16.55441 122.44008,-33.9204 123.59191,-37.16669 1.15184,-3.24629 -61.51073,14.11969 -127.13648,32.29726 -65.62574,18.17756 -134.21808,37.16669 -144.78065,37.16669 -10.56257,0 58.03103,-18.98903 129.54871,-38.79906 71.51768,-19.81003 145.95627,-40.44106 147.24192,-43.72507 1.28565,-3.284 -73.14396,17.34703 -150.58396,38.79906 -77.43999,21.45204 -157.89438,43.72507 -168.45695,43.72507 -10.56257,0 69.89335,-22.27292 153.29401,-45.3767 83.40066,-23.10379 169.74228,-47.03844 171.16802,-50.36192 1.42574,-3.32348 -84.90535,20.61118 -174.29805,45.3767 -89.39271,24.76553 -181.85169,50.36192 -192.41426,50.36192 -10.56257,0 81.8982,-25.59626 177.32365,-52.03376 95.42546,-26.4375 193.81117,-53.71623 195.38409,-57.08117 3.14582,-6.72988 -83.4668,23.14018 -79.68718,16.23621 3.77961,-6.90397 82.83086,-22.96548 86.28716,-29.78281 3.4563,-6.81732 -82.19686,22.79274 -77.28085,15.57224 4.91601,-7.22051 80.73468,-22.38887 84.51995,-29.29882 3.78526,-6.90995 -79.6052,22.07868 -74.16397,14.71097 5.44124,-7.36772 77.94636,-21.62011 82.08197,-28.62868 4.13562,-7.00858 -76.64025,21.26085 -70.67023,13.74484 5.97003,-7.51601 74.80247,-20.75247 79.31346,-27.86666 4.51098,-7.11419 -73.34048,20.34985 -66.85489,12.68912 6.48559,-7.66073 71.36185,-19.80219 76.27781,-27.03028 4.91595,-7.2281 -69.78604,19.36785 -62.82095,11.57231 6.96509,-7.79554 67.73204,-18.79905 73.08847,-26.15099 5.35644,-7.35194 -66.11334,18.35268 -58.73331,10.44016 7.38003,-7.91253 64.08377,-17.79042 69.92399,-25.27831 5.84023,-7.48788 -62.52986,17.36188 -54.83141,9.3591 7.69845,-8.00279 60.66412,-16.84488 67.04199,-24.48376 6.37786,-7.63887 -59.33475,16.47854 -51.47992,8.43043 7.85483,-8.0481 57.8481,-16.0666 64.83212,-23.87561 6.98402,-7.80901 -56.88479,15.80185 -48.1693,7.51273 8.71548,-8.28911 55.09636,-15.30589 62.69035,-23.28622 7.594,-7.98032 -53.84343,14.96059 -45.20312,6.69034 8.6403,-8.27025 52.89069,-14.69665 60.71499,-22.74287 7.8243,-8.04623 -51.62749,14.34829 -44.6847,6.54783 6.94279,-7.80046 52.59233,-14.61724 59.91341,-22.52545 7.32108,-7.90822 -53.08948,14.75791 -50.0833,8.05006 3.00617,-6.70785 57.44397,-15.96932 63.76441,-23.6011 6.32044,-7.63178 -60.777,16.89837 -61.33139,11.17922 -0.55439,-5.71916 68.28451,-18.98702 72.18499,-25.9474 3.90049,-6.96038 -72.6124,20.19285 -76.90523,15.51235 -4.29283,-4.6805 80.64506,-22.42808 82.93199,-28.94097 2.28694,-6.51289 -86.94729,24.18322 -95.32089,20.63702 -8.37361,-3.54621 97.58234,-27.14285 98.78545,-33.3554 1.20312,-6.21256 -108.09095,30.06832 -119.20116,27.28292 -11.11022,-2.78541 120.39391,-33.49262 120.65095,-39.44301 0.12852,-2.97519 -32.75514,6.17629 -66.71997,15.62609 -33.96483,9.4498 -69.01157,19.19792 -73.16786,17.41601 -8.31258,-3.56384 140.38123,-39.0583 139.2498,-44.62324 -0.56572,-2.78247 -37.43057,7.47869 -74.92399,17.91166 -37.49343,10.43296 -75.61589,21.03774 -78.64659,18.94249 -3.0307,-2.09524 35.09196,-12.70068 73.57384,-23.4094 38.48189,-10.70872 77.32282,-21.52073 75.77094,-24.02911 -1.55188,-2.50838 -40.38426,8.30207 -79.35412,19.14736 -38.96987,10.8453 -78.07732,21.72545 -80.12512,19.35647 -2.0478,-2.36898 37.06523,-13.25144 76.0248,-24.09463 38.95956,-10.84319 77.76574,-21.6471 75.14769,-23.85899 -2.61805,-2.21189 -41.41907,8.59127 -79.86131,19.2912 -38.44224,10.69992 -76.52541,21.29662 -77.655,18.67178 -2.25918,-5.24966 152.38973,-42.4173 144.50281,-46.10349 -3.94346,-1.8431 -40.63402,8.37362 -76.39818,18.32948 -35.76415,9.95585 -70.60122,19.65084 -70.79193,16.76428 -0.38142,-5.77311 138.9743,-38.68841 128.00125,-41.51553 -10.97305,-2.82712 -128.37734,35.74097 -127.5374,29.62688 0.83993,-6.11409 116.17859,-32.34658 104.20842,-34.89623 -11.97018,-2.54964 -103.4029,28.79175 -101.17721,22.29072 2.2257,-6.50103 88.96314,-24.77241 78.9206,-27.85915 -10.04254,-3.08674 -76.76027,21.37637 -72.76372,14.38092 3.99655,-6.99544 62.32506,-17.35726 56.84354,-21.71481 -5.48152,-4.35756 -53.0107,14.76504 -46.39051,7.03734 6.62018,-7.7277 40.89303,-11.39037 39.50935,-16.89018 -1.38369,-5.49981 -27.46612,4.70903 -27.46612,4.70903 M 468.90157,545.63824 c 0,0 -76.77242,22.01248 -153.6707,43.31456 -76.89827,21.30208 -153.91898,41.89375 -154.21768,39.05212 -0.29869,-2.84163 74.17022,-23.46005 146.0315,-43.36806 71.86128,-19.90801 141.11771,-39.10561 130.55514,-39.10561 -10.56257,0 -79.82009,19.1975 -146.56065,37.68729 -66.74056,18.48978 -130.96119,36.27184 -131.30041,33.44096 -0.33921,-2.83089 63.87474,-20.61295 125.5023,-37.68729 61.62755,-17.07434 120.67105,-33.44096 110.10848,-33.44096 -10.56257,0 -69.60694,16.36652 -126.13523,32.0284 -56.52829,15.66188 -110.53796,30.61912 -110.92336,27.80056 -0.38539,-2.81857 53.61869,-17.77581 105.05728,-32.02841 51.43859,-14.25259 100.3136,-27.80055 89.75103,-27.80055 -10.56257,0 -59.43823,13.54786 -105.80185,26.39455 -46.36363,12.84669 -90.21309,24.99222 -90.65038,22.18756 -0.43729,-2.80465 43.40767,-14.95018 84.70775,-26.39455 41.30008,-11.44436 80.05677,-22.18756 69.49421,-22.18756 -10.56257,0 -49.3197,10.7431 -85.57199,20.78891 -36.2523,10.04582 -69.99807,19.39435 -70.49307,16.60522 -0.98999,-5.57825 136.57512,-37.84698 142.74056,-45.41263 3.08272,-3.78282 -32.83748,6.17567 -69.67991,16.38688 -36.84243,10.21121 -74.6078,20.67514 -75.16647,17.90319 -1.11734,-5.54388 94.48438,-26.18534 73.57956,-26.24641 -20.90482,-0.0611 -74.69009,20.70064 -75.95758,15.19747 -1.2675,-5.50317 63.20685,-17.51867 59.19249,-22.26215 -4.01437,-4.74348 -60.47545,16.76326 -61.86629,11.29339 -1.39085,-5.46986 57.85505,-16.03773 54.20684,-20.88339 -3.64821,-4.84567 -55.60194,15.4147 -57.05958,9.96247 -1.45763,-5.45222 53.41358,-14.80875 50.11032,-19.75076 -3.30327,-4.94202 -51.57216,14.2997 -53.06275,8.85574 -1.49058,-5.44397 49.76098,-13.79817 46.78791,-18.83249 -2.97306,-5.03432 -48.28268,13.38968 -49.7726,7.94466 -1.48991,-5.44502 46.80045,-12.97923 44.14804,-18.10324 -2.65242,-5.12401 -45.64215,12.65938 -47.09782,7.20399 -1.45567,-5.45539 44.4458,-12.32811 42.10885,-17.54042 -2.33695,-5.21231 -43.56875,12.0862 -44.95646,6.61108 -1.38771,-5.47512 42.61945,-11.82337 40.59666,-17.12365 -2.02279,-5.30029 -41.98865,11.64972 -43.27433,6.14541 -1.28568,-5.50431 41.25104,-11.44555 39.54471,-16.83449 -1.70633,-5.38894 -40.83476,11.33139 -41.98381,5.78827 -1.14905,-5.54312 40.27653,-11.17694 38.89252,-16.6562 -1.38401,-5.47926 -40.04604,11.11433 -41.02312,5.52257 -0.97707,-5.59175 39.63768,-11.00143 38.5855,-16.5737 -1.05219,-5.57227 -39.56718,10.98323 -40.33597,5.33274 -0.7688,-5.6505 39.28184,-10.90446 38.57495,-16.57352 -0.70688,-5.66906 -39.35917,10.92731 -39.8457,5.1975 -0.48653,-5.7298 39.13628,-10.86585 38.79263,-16.63673 -0.34364,-5.77089 -39.28006,10.90719 -39.49298,5.10044 -0.21292,-5.80675 39.13398,-10.86706 39.05777,-16.71321 -0.0762,-5.84614 -39.272,10.90683 -39.20244,5.02063 0.0696,-5.8862 39.12456,-10.8663 39.37355,-16.8038 0.24898,-5.9375 -39.3058,10.91811 -38.94128,4.94895 0.36451,-5.96916 39.18804,-10.88582 39.77777,-16.91904 0.58973,-6.03322 -39.41566,10.95056 -38.73939,4.89373 0.67628,-6.05682 39.32622,-10.92613 40.27711,-17.06079 0.9509,-6.13466 -39.604,11.00485 -38.59372,4.85413 1.01027,-6.15072 39.54083,-10.98773 40.87958,-17.23131 1.33875,-6.24358 -39.87348,11.08176 -38.49995,4.82896 1.37353,-6.2528 39.83371,-11.07114 41.59532,-17.43343 1.7616,-6.36229 -40.22734,11.18218 -38.45184,4.81648 1.7755,-6.3657 40.20677,-11.1769 42.43767,-17.67088 2.23091,-6.49398 -40.66968,11.30728 -38.44027,4.81418 2.2294,-6.4931 42.04327,-14.62721 42.04327,-14.62721 m 69.34649,215.35585 c 0,0 57.69275,-13.06549 63.40489,-20.50711 5.71214,-7.44162 -59.64825,16.5381 -52.86935,8.80168 6.7789,-7.73642 58.57557,-16.24167 63.88747,-23.57391 5.3119,-7.33223 -57.12461,15.84192 -50.97105,8.27717 6.15356,-7.56474 56.27816,-15.60808 61.23242,-22.84267 4.95426,-7.23459 -55.0906,15.28117 -49.45234,7.85769 5.63825,-7.42348 54.40265,-15.0912 59.03406,-22.23774 4.63141,-7.14654 -53.4047,14.81671 -48.19992,7.51189 5.20477,-7.30482 52.82803,-14.65752 57.16542,-21.72396 4.33739,-7.06644 -51.96758,14.42105 -47.13343,7.21751 4.83414,-7.20353 51.46804,-14.28319 55.53561,-21.27619 4.06757,-6.993 -50.707,14.07419 -46.19394,6.95825 4.51306,-7.11593 50.25913,-13.9506 54.07741,-20.87582 3.81827,-6.92522 -49.56885,13.76113 -45.33696,6.72177 4.2319,-7.03936 49.15319,-13.64643 52.73974,-20.50871 3.58656,-6.86227 -48.51157,13.47038 -44.52809,6.49854 3.98349,-6.97183 48.11601,-13.3612 51.47975,-20.16297 3.36374,-6.80177 -47.4994,13.192 -43.73702,6.28014 3.76238,-6.91185 47.09743,-13.08099 50.27504,-19.83241 3.17762,-6.75143 -46.51532,12.92129 -42.95097,6.06305 3.56435,-6.85825 46.1261,-12.81379 49.1398,-19.52101 3.0137,-6.70721 -45.57774,12.66339 -42.19167,5.8533 3.38608,-6.8101 45.20317,-12.5599 48.07163,-19.22807 2.86846,-6.66818 -44.68755,12.41852 -41.46267,5.65186 3.22488,-6.76667 44.32916,-12.31949 47.06899,-18.95321 2.73983,-6.63373 -43.84586,12.18703 -40.76724,5.45967 3.07861,-6.72735 43.50529,-12.09291 46.13143,-18.69631 2.62613,-6.60341 -43.05437,11.96939 -40.10885,5.27771 2.94552,-6.69169 42.73336,-11.88067 45.25936,-18.45751 2.526,-6.57685 -42.31523,11.7662 -39.49108,5.10695 2.82415,-6.65925 111.44444,-30.99463 112.30498,-37.11123 0.86053,-6.1166 -106.6728,29.67097 -109.57832,24.60396 -2.90553,-5.06701 110.42454,-30.7166 110.25579,-36.54788 -0.16875,-5.83127 -117.9698,32.81812 -127.50575,29.59475 -9.53596,-3.22337 127.33845,-35.42644 126.18859,-40.98565 -0.57493,-2.7796 -34.49784,6.66165 -69.25357,16.33199 -34.75573,9.67033 -70.34486,19.56976 -74.20902,17.7065 -7.72832,-3.72652 142.32779,-39.60191 140.13129,-44.87067 -1.09825,-2.63438 -38.04608,7.65037 -75.4788,18.06694 -37.43272,10.41657 -75.35069,20.96497 -78.33919,18.85788 -2.9885,-2.10708 34.9284,-12.6558 73.09809,-23.27815 38.16968,-10.62234 76.59202,-21.3183 74.65605,-23.71986 -1.93596,-2.40156 -40.34976,8.2928 -78.84251,19.00579 -38.49275,10.713 -77.06451,21.44463 -79.26357,19.11762 -2.19906,-2.32701 36.39045,-13.06432 74.77275,-23.74731 38.3823,-10.68298 76.55748,-21.31164 73.57209,-23.42133 -2.98538,-2.10969 -41.15291,8.51747 -78.96191,19.04156 -37.80899,10.5241 -75.25916,20.94513 -76.75887,18.42317 -2.9994,-5.04391 149.88354,-41.72134 140.96682,-45.12088 -4.45836,-1.69977 -40.44803,8.32205 -75.52488,18.0869 -35.07686,9.76485 -69.24025,19.27272 -70.00217,16.54504 -1.52384,-5.45537 136.7838,-38.07984 123.6435,-40.30347 -13.1403,-2.22363 -125.16825,34.84838 -125.55747,29.07628 -0.38921,-5.7721 112.69539,-31.37741 98.13292,-33.2051 -14.56247,-1.8277 -98.53518,27.43666 -97.73654,21.33283 0.79865,-6.10383 82.58718,-22.99704 72.01201,-25.93539 -10.57518,-2.93835 -71.24969,19.84171 -69.07475,13.3535 2.17494,-6.4882 58.54357,-16.30404 52.62723,-20.54041 -5.91635,-4.23637 -50.55514,14.0809 -46.48726,7.06418 4.06788,-7.01671 40.70747,-11.33854 37.63487,-16.36771 -3.07259,-5.02918 -34.03709,9.48206 -26.13206,1.39484 7.90504,-8.08723 17.04294,-7.69078 17.04294,-7.69078 m 103.12762,124.18201 c 0,0 35.80161,-7.01908 37.91509,-13.48306 2.11348,-6.46398 -62.86784,14.54751 -62.86784,14.54751 m -175.8655,-9.84143 c 0,0 -22.55066,9.20944 -51.52679,11.39273 -28.97614,2.18329 52.69019,-14.65397 53.27918,-20.69432 0.58899,-6.04034 -110.67429,30.78025 -107.91967,24.13984 2.75462,-6.6404 108.43871,-30.16075 107.86855,-35.87964 -0.57016,-5.71888 -108.62552,30.21555 -119.64915,27.4062 -11.02363,-2.80934 119.04416,-33.11541 117.71631,-38.6244 -1.32785,-5.50899 -128.71309,35.80762 -137.35771,32.33632 -8.644613,-3.4713 136.06006,-37.85373 134.08962,-43.18476 -0.98521,-2.66552 -36.64449,7.25934 -72.89476,17.34573 -36.25027,10.0864 -73.091954,20.33433 -76.395026,18.31497 -6.606145,-4.03873 147.335876,-40.99635 144.095586,-45.97473 -1.62014,-2.48918 -39.27189,7.99179 -77.14997,18.53253 -37.87808,10.54074 -75.982644,21.14124 -78.45721,18.89114 -2.474566,-2.25011 35.63531,-12.85279 73.76643,-23.46466 38.13113,-10.61188 76.28348,-21.23294 73.93543,-23.51983 -2.34805,-2.28689 -40.48945,8.33184 -78.50691,18.9128 -38.01746,10.58096 -75.91089,21.12415 -77.711433,18.68619 -1.800542,-2.43797 36.106563,-12.98574 73.638383,-23.43227 37.53181,-10.44653 74.68853,-20.7918 71.42745,-22.82477 -3.26109,-2.03296 -40.3835,8.30335 -76.99091,18.49323 -36.6074,10.18987 -72.699403,20.23332 -73.851785,17.61462 -2.304763,-5.2374 144.511335,-40.22695 135.227295,-43.52425 -9.28404,-3.2973 -137.521921,38.28405 -138.93955,32.79891 -1.417629,-5.48514 129.43165,-36.03391 115.74457,-38.10529 -13.68707,-2.07139 -117.161832,32.62007 -117.733642,26.89857 -0.571809,-5.7215 102.967062,-28.66933 88.597362,-30.55071 -14.3697,-1.88138 -89.179459,24.83209 -88.86713,18.86345 0.312328,-5.96865 74.47977,-20.73986 64.78063,-23.92223 -9.69913,-3.18237 -64.495941,17.9613 -63.153297,11.70466 1.342644,-6.25664 53.668067,-14.94656 47.256377,-19.04499 -6.41168,-4.09843 -45.982783,12.80762 -43.243993,6.16093 2.73879,-6.64669 36.978543,-10.30005 32.970319,-15.06859 -4.008229,-4.76854 -30.463329,8.48654 -25.251722,1.1496 5.211606,-7.33694 15.146604,-7.16249 15.146604,-7.16249 m 960.054622,408.1831 c 0,0 -49.527,16.57936 -70.39249,16.50777 -10.43275,-0.0358 10.01057,-5.67239 33.85559,-12.25352 23.8451,-6.58112 51.087,-14.10678 54.3244,-17.92069 3.2373,-3.81391 -23.8193,3.66532 -50.5102,11.03575 -26.6909,7.37043 -53.01477,14.63205 -48.17762,10.38292 4.83715,-4.24912 30.94864,-11.45702 56.07142,-18.39865 25.1228,-6.94164 49.2578,-13.61701 50.2042,-16.8011 0.9464,-3.18408 -23.6489,3.62175 -48.2058,10.41033 -24.557,6.78858 -49.07531,13.55991 -47.86094,10.30681 1.21437,-3.2531 25.69294,-10.01682 49.86174,-16.70136 24.1688,-6.68454 48.0282,-13.28989 48.0693,-16.22625 0.041,-2.93637 -23.8532,3.68155 -47.6263,10.25964 -23.7731,6.57809 -47.42468,13.11635 -46.79104,10.02069 0.63364,-3.09566 24.19954,-9.61336 47.58694,-16.0877 23.3873,-6.47433 46.5962,-12.9053 46.5768,-15.82748 -0.019,-2.92219 -23.2279,3.51149 -46.364,9.91914 -23.136,6.40765 -46.19933,12.78927 -45.82665,9.76295 0.37268,-3.02632 23.42375,-9.40753 46.36125,-15.76311 22.9376,-6.35557 45.7616,-12.68551 45.7385,-15.60929 -0.023,-2.92379 -22.8444,3.40821 -45.6227,9.72252 -22.7784,6.3143 -45.5136,12.61092 -45.26567,9.61638 0.24794,-2.99455 22.97117,-9.29075 45.61757,-15.57131 22.6463,-6.28056 45.2157,-12.54547 45.2127,-15.47744 -0,-2.93197 -22.5542,3.33067 -45.0848,9.58195 -22.5307,6.25129 -45.04063,12.49123 -44.86448,9.51385 0.17615,-2.97737 22.67428,-9.21687 45.12488,-15.44876 22.4506,-6.2319 44.8535,-12.45618 44.8949,-15.40311 0.041,-2.94693 -22.3628,3.28048 -44.772,9.50368 -22.4091,6.2232 -44.82319,12.44218 -44.70576,9.47841 0.11744,-2.96378 22.51966,-9.1823 44.90666,-15.40215 22.3869,-6.21985 44.7585,-12.44103 44.8699,-15.41012 0.1115,-2.96909 -22.2551,3.25349 -44.6323,9.47348 -22.3773,6.21998 -44.76527,12.43737 -44.60101,9.45789 0.16427,-2.97947 22.54021,-9.19634 44.91371,-15.41812 22.3735,-6.22178 44.7446,-12.44847 44.9541,-15.44759 0.2095,-2.99911 -22.1571,3.22918 -44.5259,9.45252 -22.3688,6.22333 -44.73989,12.4417 -44.44336,9.42272 0.29652,-3.01898 22.63886,-9.23222 44.99446,-15.45476 22.3556,-6.22253 44.7246,-12.45435 45.1287,-15.51049 0.4042,-3.05613 -21.9622,3.17788 -44.3196,9.40383 -22.3575,6.22596 -44.70602,12.44385 -44.17032,9.3555 0.5357,-3.08836 22.85982,-9.30239 45.27942,-15.5486 22.4195,-6.24621 44.9345,-12.52461 45.9051,-15.74169 0.9705,-3.21709 -21.5458,3.06483 -44.0958,9.35045 -22.55,6.28563 -45.1336,12.57496 -44.19969,9.37271 0.93391,-3.20225 23.43509,-9.47165 46.22039,-15.82603 22.7854,-6.35438 45.8547,-12.79374 47.9776,-16.33592 2.123,-3.54217 -20.9585,2.90417 -44.1918,9.38691 -23.2332,6.48274 -46.61854,13.00188 -44.99924,9.60529 1.61929,-3.39659 25.34704,-10.01451 49.72704,-16.82099 24.3799,-6.80648 49.4115,-13.80151 53.6961,-17.95234 4.2847,-4.15082 -20.7992,2.86349 -46.2625,9.97676 -25.4632,7.11328 -51.307,14.32551 -48.417,10.57051 2.8901,-3.755 27.3603,-10.58821 49.0652,-16.6544 21.7049,-6.0662 40.6477,-11.36537 32.5406,-12.0523 -8.107,-0.68692 -25.3933,3.41039 -40.6629,7.67943 -15.2695,4.26905 -28.5231,8.70982 -28.5231,8.70982"
       style="font-size:585.97564697000018441px;font-style:normal;font-variant:normal;font-weight:normal;font-stretch:normal;text-align:start;line-height:125%;letter-spacing:0px;word-spacing:0px;writing-mode:lr-tb;text-anchor:start;fill:none;stroke:#00d4ff;stroke-width:5.09835195999999957;stroke-miterlimit:4;stroke-opacity:1;stroke-dasharray:none;font-family:New Peninim MT;-inkscape-font-specification:New Peninim MT" />
    <path
       style="fill:none;stroke:#00d4ff;stroke-width:5;stroke-linecap:butt;stroke-linejoin:miter;stroke-miterlimit:4;stroke-opacity:1;stroke-dasharray:none"
       d="m 802.5,4.32424 0,793.45939"
       id="path3184"
       inkscape:connector-curvature="0" />
    <path
       inkscape:connector-curvature="0"
       id="path3954"
       d="m 2.5,4.32424 0,793.45939"
       style="fill:none;stroke:#00d4ff;stroke-width:5;stroke-linecap:butt;stroke-linejoin:miter;stroke-miterlimit:4;stroke-opacity:1;stroke-dasharray:none" />
    <path
       style="fill:none;stroke:#00d4ff;stroke-width:5;stroke-linecap:butt;stroke-linejoin:miter;stroke-miterlimit:4;stroke-opacity:1;stroke-dasharray:none"
       d="m 1602.5,4.32424 0,793.45939"
       id="path3956"
       inkscape:connector-curvature="0" />
    <path
       inkscape:connector-curvature="0"
       id="path3958"
       d="m 2402.5,4.32424 0,793.45939"
       style="fill:none;stroke:#00d4ff;stroke-width:5;stroke-linecap:butt;stroke-linejoin:miter;stroke-miterlimit:4;stroke-opacity:1;stroke-dasharray:none" />
  </g>
  <g
     inkscape:groupmode="layer"
     id="layer1"
     inkscape:label="2-dark blue">
    <path
       inkscape:connector-curvature="0"
       style="font-size:585.97564697px;font-style:normal;font-variant:normal;font-weight:normal;font-stretch:normal;text-align:start;line-height:125%;letter-spacing:0px;word-spacing:0px;writing-mode:lr-tb;text-anchor:start;fill:none;stroke:#0000ff;stroke-width:5.09835196;stroke-miterlimit:4;stroke-opacity:1;stroke-dasharray:none;font-family:New Peninim MT;-inkscape-font-specification:New Peninim MT"
       d="m 1889.9062,178.78125 -4.5937,3.75 -4.5625,3.75 -3.9062,3.8125 -3.8438,3.84375 -3.1875,3.90625 -3.1563,3.90625 -2.5,3.96875 -2.5,4 -1.8124,4.0625 -1.8438,4.0625 -1.1562,4.15625 -1.1876,4.125 -0.6874,4.21875 -0.375,4.25 -0.063,4.28125 0.25,4.34375 0.375,2.625 0.3438,2.625 0.5938,2.5 0.5624,2.5 1.5938,4.75 2.0625,4.53125 2.4687,4.28125 2.9376,4.03125 3.3437,3.8125 3.8125,3.5625 4.2812,3.15625 4.25,3.15625 4.4063,2.5625 4.4063,2.59375 9.125,4.0625 9.4374,2.90625 11.4376,2.40625 15,2.4375 18.5624,2.5 22.1563,2.53125 9.625,1.59375 8.8125,1.9375 8.0312,2.3125 7.25,2.65625 6.4688,3.03125 5.6875,3.375 4.875,3.75 4.0937,4.125 3.4688,4.59375 1.5,2.59375 1.5,2.59375 1.25,2.875 1.25,2.875 1.0312,3.1875 1.0313,3.1875 0.7813,3.46875 0.8124,3.46875 0.5313,3.78125 0.5625,3.78125 0.3438,4.0625 0.3124,4.0625 0.125,4.375 0.094,4.34375 -0.031,4.375 0,4.40625 0,4.375 0,4.375 0,4.375 -0.094,4.28125 -0.094,4.25 -0.2812,4.125 -0.3125,4.09375 -0.4687,3.96875 -0.5,3.9375 -0.6876,3.78125 -0.6874,3.78125 -0.875,3.625 -0.875,3.625 -1.0938,3.46875 -1.0938,3.4375 -1.2812,3.3125 -1.3125,3.3125 -1.5,3.125 -1.4687,3.15625 -1.625,2.96875 -1.5938,3 -1.7812,2.8125 -1.8126,2.8125 -1.9374,2.65625 -1.9688,2.65625 -4.3125,5 -4.625,4.65625 -5.0313,4.375 -5.375,4 -5.75,3.71875 -5.625,3.1875 -5.625,3.1875 -10.75,5 -10.1562,3.59375 -4.875,1.28125 -4.75,0.90625 -11.5312,1.5 -16.0626,1.40625 -20.5312,1.375 -25.0625,1.3125 -35.3437,1.71875 -2.0313,4.875 -2.0625,4.84375 -2.0938,4.875 -2.0937,4.84375 -2.1563,4.875 -2.1562,4.84375 -2.2188,4.875 -2.2187,4.875 -2.25,4.84375 -2.2813,4.875 -2.3124,4.84375 -2.375,4.875 -2.375,4.84375 -2.4063,4.875 -2.4687,4.84375 -2.5,4.875 -2.5313,4.84375 -2.5625,4.875 -2.5938,4.84375 88.2188,-3 87.75,-3 3.3125,-4.9375 3.3125,-4.9375 3.2812,-4.9375 3.25,-4.90625 3.2188,-4.9375 3.1875,-4.9375 3.1875,-4.9375 3.125,-4.90625 3.125,-4.9375 3.125,-4.9375 3.0938,-4.9375 3.0624,-4.9375 3.0626,-4.90625 3.0312,-4.9375 3,-4.9375 3.0312,-4.9375 3,-4.9375 2.9688,-4.90625 2.9688,-4.9375 2.9687,-4.9375 2.9375,-4.9375 2.9375,-4.90625 2.9375,-4.9375 2.9375,-4.9375 2.9063,-4.9375 2.625,0 3.4374,4.9375 3.4376,4.96875 3.4687,4.9375 3.4687,4.9375 3.5313,4.96875 3.5,4.9375 3.5625,4.9375 3.5938,4.96875 3.5937,4.9375 3.625,4.9375 3.6563,4.96875 3.6874,4.9375 3.7188,4.9375 3.75,4.96875 3.7812,4.9375 3.8438,4.9375 3.8438,4.9375 3.9062,4.96875 3.9062,4.9375 4,4.9375 4,4.96875 4.0626,4.9375 4.125,4.9375 4.1562,4.96875 4.1875,4.9375 4.25,4.9375 4.3125,4.96875 12.8125,0 2.9063,-3.21875 2.9062,-3.21875 2.4062,-3.25 2.4376,-3.28125 1.9374,-3.375 1.9688,-3.34375 1.4688,-3.40625 1.5,-3.4375 1.0312,-3.5 1.0312,-3.5 0.5938,-3.5625 0.5938,-3.5625 0.1562,-3.65625 0.1562,-3.65625 -0.2812,-3.71875 -0.2812,-3.71875 -0.4063,-2.65625 -0.4063,-2.6875 -0.5624,-2.625 -0.5626,-2.625 -0.6874,-2.59375 -0.7188,-2.625 -0.8438,-2.5625 -0.8124,-2.5625 -1,-2.53125 -0.9688,-2.53125 -2.2188,-5 -2.5,-4.9375 -2.7812,-4.84375 -1.5938,-2.5625 -1.5624,-2.5625 -1.9688,-2.84375 -1.9688,-2.84375 -3.4062,-4.34375 -3.375,-4.34375 -3.3438,-4.375 -3.2812,-3.8125 -3.2812,-3.84375 -3.25,-3.8125 -3.25,-3.8125 -4,-4.40625 -3.9688,-4.375 -3.9688,-4.40625 -3.9374,-4.375 -3.8438,-4.34375 -3.8125,-4.34375 -3.8437,-4.34375 -3.7813,-4.34375 -4.0625,-4.90625 -4.0312,-4.90625 -4,-4.9375 -3.0313,-4.03125 -3,-4.03125 -3,-4.03125 -3.0313,-4.71875 -3.0312,-4.75 -1.8438,-4.125 -1.8437,-4.15625 -1.3437,-4.21875 -1.3126,-4.25 -0.7812,-4.34375 -0.7812,-4.375 -0.25,-4.4375 -0.2188,-4.46875 0.1875,-4.375 0.2187,-4.375 0.2188,-4.375 0.4375,-4.46875 0.4375,-4.46875 0.4688,-4.5 0.4374,-4.46875 0.625,-4.53125 0.5938,-4.53125 0.625,-4.53125 0.625,-4.53125 0.625,-4.5625 0.7188,-4.5625 0.75,-4.59375 0.75,-4.5625 0.75,-4.5625 0.7812,-4.59375 0.75,-4.5625 0.9062,-4.71875 0.9063,-4.71875 0.6875,-4.46875 0.6875,-4.46875 0.5,-4.21875 0.5313,-4.21875 0.2812,-4 0.3125,-3.96875 0,-4.71875 -0.5,-4.6875 -0.9375,-4.65625 -1.4375,-4.625 -1.9375,-4.625 -2.4062,-4.5625 -2.9376,-4.5625 -3.4062,-4.53125 -4.1562,-4.28125 -5.5,-3.78125 -6.8438,-3.34375 -8.1562,-2.875 -9.5313,-2.375 -10.8437,-1.9375 -12.2188,-1.46875 -13.5312,-0.96875 -45.7813,-2.59375 -12.625,-0.40625 -11.125,-1.3125 -9.6875,-2.125 -4.3125,-1.40625 -3.9375,-1.59375 -3.5938,-1.84375 -3.2187,-2.03125 -2.875,-2.25 -2.5313,-2.46875 -2.1874,-2.6875 -1.8126,-2.90625 -1.4374,-3.09375 -1.0938,-3.34375 -17.0938,0 z m 855.3438,0 -4.6875,3.21875 -4.6875,3.25 -3.9688,3.4375 -3.9687,3.46875 -3.3125,3.6875 -3.25,3.6875 -2.75,3.84375 -2.4375,3.96875 -2.0937,4.09375 -1.75,4.1875 -1.4063,4.3125 -1.0937,4.4375 -0.7813,4.53125 -0.4687,4.65625 -0.125,4.75 0.1562,4.90625 0.3125,2.8125 0.3125,2.84375 0.5938,2.6875 0.5624,2.6875 0.8438,2.53125 0.8125,2.5625 2.1875,4.78125 2.6875,4.53125 3.1563,4.25 3.6874,3.96875 4.2188,3.6875 4.6562,3.40625 4.75,3.09375 4.8438,2.8125 4.9688,2.5 5.0312,2.21875 5.1875,1.9375 5.25,1.625 5.4063,1.3125 13.1874,2.03125 17.2188,1.71875 21.1875,1.46875 25.2187,1.21875 9.9688,0.78125 8.625,1.53125 7.25,2.25 3.125,1.375 2.8125,1.59375 2.4375,1.75 2.125,1.9375 1.7812,2.125 1.4376,2.28125 1.0937,2.5 0.7813,2.65625 0.4374,2.84375 0.094,3.03125 -0.3125,4.5625 -0.2813,4.59375 -0.2812,4.5625 -0.5625,4.9375 -0.5625,4.9375 -0.5312,4.9375 -0.5313,4.9375 -0.5313,5 -0.5,5 -0.5,5 -0.5,5 -0.4687,5 -0.5,5 -0.4687,5 -0.4688,5 -0.3125,4.4375 -0.3437,4.4375 -0.3126,4.4375 -0.3124,4.4375 -0.2813,4.4375 -0.3125,4.46875 -0.2812,4.4375 -0.1563,4.4375 -0.125,4.40625 -0.125,4.4375 -0.125,4.4375 -0.094,4.4375 0.094,3.875 0.125,3.875 0.2813,2.75 0.2812,2.78125 0.6875,4.78125 0.6875,4.8125 0.6875,4.8125 0.7187,4.78125 0.7188,4.8125 0.7188,4.8125 0.7187,4.8125 0.75,4.78125 0.75,4.8125 0.75,4.8125 0.7813,4.78125 -194.625,0 -1.875,4.84375 -1.9063,4.8125 -1.9063,4.8125 -1.9374,4.8125 -1.9688,4.8125 -1.9688,4.8125 -2,4.8125 -2.0312,4.8125 -2.0625,4.8125 -2.0937,4.8125 -2.0938,4.8125 -2.125,4.8125 -2.1875,4.8125 -2.1875,4.8125 -2.2188,4.8125 -2.25,4.84375 -2.2812,4.8125 -2.3125,4.8125 -2.375,4.8125 316.2187,0 0.2188,-4.71875 0.2188,-4.75 0.2187,-4.71875 0.25,-4.71875 0.25,-4.71875 0.2187,-3.1875 0.2188,-3.15625 0.031,-3.46875 0.031,-3.5 -0.1875,-3.8125 -0.1562,-3.8125 -0.3438,-4.125 -0.3438,-4.125 -0.5624,-3.375 -0.5626,-3.34375 -1.0937,-4.28125 -1.0625,-4.25 -1.0625,-3.46875 -1.0313,-3.4375 -1.0312,-3.46875 -1.375,-4.0625 -1.375,-4.0625 -1.3438,-4.0625 -1.6562,-4.65625 -1.6562,-4.6875 -1.625,-4.65625 -1.4376,-3.96875 -1.4374,-3.96875 -1.4376,-3.9375 -1.4374,-3.96875 -1.75,-4.65625 -1.75,-4.625 -1.75,-4.65625 -1.7188,-4.625 -1.6875,-4.65625 -1.6875,-4.65625 -1.6875,-4.625 -1.6563,-4.65625 -1.1562,-3.8125 -1.1562,-3.78125 -1.1563,-3.8125 -1.125,-3.8125 -1.125,-4.90625 -1.0625,-4.90625 -1.0938,-4.9375 -0.6562,-4.75 -0.625,-4.75 -0.6562,-4.75 -0.2188,-4.59375 -0.2188,-4.59375 -0.2187,-4.59375 0.1563,-3.34375 0.125,-3.34375 0.4374,-4.125 0.4063,-4.125 0.6875,-4.25 0.6875,-4.25 0.6875,-4.25 0.7188,-4.25 0.7187,-4.21875 0.9687,-4.59375 1,-4.59375 1,-4.59375 1.0313,-4.5625 1.0313,-4.59375 1.0312,-4.59375 1.25,-4.8125 1.25,-4.84375 1.25,-4.8125 1.3125,-4.84375 1.2813,-4.8125 1.3124,-4.84375 1.3438,-4.8125 0.9688,-3.875 0.9687,-3.875 0.9687,-3.84375 0.75,-3.4375 0.75,-3.4375 0.75,-3.4375 0.7813,-4.53125 0.8125,-4.5 0.4375,-3.875 0.4375,-3.84375 0.094,-3.15625 0.062,-3.15625 -0.25,-2.96875 -0.2187,-2.96875 -0.5937,-2.78125 -0.5626,-2.78125 -0.9062,-2.625 -0.875,-2.59375 -2.5,-4.8125 -3.125,-4.4375 -3.8438,-4.09375 -4.5312,-3.6875 -5.2188,-3.34375 -5.9374,-2.96875 -6.625,-2.5625 -7.3126,-2.21875 -8.0312,-1.84375 -8.75,-1.46875 -9.4062,-1.09375 -10.125,-0.71875 -49.125,-2.59375 -12.5938,-0.40625 -11.0938,-1.3125 -9.625,-2.125 -4.25,-1.40625 -3.9062,-1.59375 -3.5312,-1.84375 -3.1563,-2.03125 -2.8125,-2.25 -2.4062,-2.46875 -2.0938,-2.6875 -1.6875,-2.90625 -1.3437,-3.09375 -0.9376,-3.34375 -17.7812,0 z m -1751.15625,3.4375 -3.3125,2.6875 -3.3125,2.65625 -3.03125,3.28125 -3.03125,3.28125 -2.78125,3.90625 -2.78125,3.90625 -2.53125,4.53125 -2.53125,4.53125 -2.0625,4.75 -1.65625,4.78125 -1.3125,4.8125 -0.90625,4.875 -0.53125,4.90625 -0.15625,4.9375 0.1875,5 0.28125,2.5 0.25,2.5 0.6875,3.40625 0.625,3.40625 0.96875,3.1875 0.96875,3.1875 1.25,2.96875 1.25,2.96875 1.5625,2.75 1.53125,2.75 1.875,2.53125 1.84375,2.53125 4.34375,4.625 4.9375,4.15625 5.5625,3.75 6.21875,3.28125 6.8125,2.875 7.4687,2.40625 8.125,2 8.75,1.53125 9.4063,1.09375 10.0625,0.65625 10.7188,0.21875 330.25,0 -3.4063,2.71875 -3.4063,2.6875 -3.2187,2.90625 -3.1875,2.90625 -3,3.09375 -2.9688,3.09375 -2.75,3.28125 -2.75,3.28125 -2.5624,3.5 -2.5,3.46875 -2.3126,3.6875 -2.3124,3.6875 -2.0938,3.875 -2.0625,3.875 -1.875,4.09375 -1.8437,4.0625 -1.6563,4.28125 -1.625,4.28125 -1.4063,4.46875 -1.4062,4.46875 -1.1875,4.65625 -1.1563,4.65625 -0.9687,4.875 -0.9375,4.84375 -0.4688,3.375 -0.5,3.375 -0.4687,3.375 -0.3125,3.5 -0.3438,3.5 -0.3124,3.5 -0.1563,3.65625 -0.1563,3.625 -0.1874,3.625 0,3.78125 0,3.75 0,3.78125 0.1874,4.625 0.2188,4.625 0.2188,4.65625 0.2187,4.625 0.375,4.53125 0.4063,4.5 0.375,4.5 0.4374,4.53125 0.4063,4.5 0.5313,4.4375 0.5312,4.4375 0.5625,4.4375 0.5625,4.4375 0.5625,4.4375 0.5937,4.4375 0.6563,4.375 0.6563,4.375 0.6874,4.375 0.7188,4.375 0.7188,4.375 0.7187,4.375 0.75,4.375 0.6875,4.09375 0.75,4.09375 0.7188,4.125 0.7812,4.09375 0.75,4.09375 0.5312,4 0.5313,4 0.5625,4 0.5625,4 0.2813,3.5625 0.2812,3.53125 0.031,3.3125 0.094,3.28125 -0.1562,3.09375 -0.125,3.09375 -0.375,2.84375 -0.3438,2.84375 -0.5938,2.625 -0.5624,2.625 -1.5938,4.78125 -2.0625,4.34375 -2.5,3.875 5.4687,4.0625 5.5313,4.09375 11,-1.125 10.1563,-1.625 9.3437,-2.15625 8.5,-2.6875 7.6563,-3.1875 6.8124,-3.71875 6,-4.25 5.1876,-4.75 2.1562,-2.65625 2.1875,-2.625 1.7813,-2.90625 1.7812,-2.90625 1.375,-3.15625 1.375,-3.15625 1,-3.4375 1,-3.40625 0.625,-3.6875 0.625,-3.6875 0.2812,-3.9375 0.25,-3.9375 -0.094,-4.1875 -0.094,-4.21875 -0.4376,-4.4375 -0.4062,-4.46875 -0.8438,-4.78125 -0.8124,-4.78125 -0.9376,-3.8125 -0.9062,-3.84375 -0.875,-3.8125 -1.2188,-4.5 -1.2187,-4.46875 -1.2187,-4.46875 -1.125,-3.84375 -1.1563,-3.84375 -1.125,-3.84375 -1.0937,-3.8125 -1.3126,-4.78125 -1.3124,-4.75 -1.2813,-4.78125 -1.25,-4.75 -1.25,-4.75 -1.2187,-4.78125 -1.1876,-4.75 -1.1874,-4.78125 -1.1563,-4.75 -1.0313,-4.75 -1.0624,-4.75 -1,-4.75 -1,-4.75 -0.9688,-4.78125 -0.9688,-4.75 -0.9374,-4.75 -0.8126,-4.71875 -0.75,-4.71875 -0.7812,-4.75 -0.7188,-4.71875 -0.7187,-4.71875 -0.4375,-4.125 -0.4375,-4.125 -0.125,-2.90625 -0.094,-2.90625 0.1874,-3.5625 0.1876,-3.59375 0.2187,-3.5625 0.5,-3.4375 0.5313,-3.4375 0.5312,-3.4375 1.2188,-4.9375 1.25,-4.9375 1.7187,-4.71875 1.7187,-4.75 2.1563,-4.5 2.2187,-4.5 2.625,-4.3125 2.6563,-4.28125 3.0937,-4.0625 3.125,-4.09375 3.5626,-3.875 3.5937,-3.84375 4.1563,-3.8125 3.6562,-3.875 3.1875,-3.96875 2.6875,-4.03125 2.2188,-4.125 1.75,-4.21875 1.25,-4.28125 0.75,-4.34375 0.5624,-4.625 0.5626,-4.625 0.5937,-4.625 0.625,-4.59375 0.3125,-3.59375 0.375,-3.625 -0.031,-3.25 0,-3.28125 -0.375,-2.96875 -0.3438,-2.9375 -0.75,-2.625 -0.7188,-2.65625 -2.25,-4.59375 -2.9687,-4 -3.7813,-3.3125 -4.5312,-2.6875 -5.2812,-2.21875 -6,-1.90625 -6.7188,-1.625 -7.4062,-1.34375 -8.125,-1.03125 -8.8126,-0.71875 -9.5312,-0.46875 -10.2188,-0.125 -295,0 -13.2812,-0.4375 -11.8438,-1.21875 -10.4062,-2.09375 -4.6875,-1.34375 -4.3125,-1.5625 -3.9688,-1.78125 -3.625,-1.96875 -3.2812,-2.1875 -2.9375,-2.375 -2.5625,-2.59375 -2.25,-2.8125 -1.9062,-3.03125 -1.5626,-3.21875 -17.68745,0 z M 79,196.90625 75.96875,200.75 l -3,3.8125 L 70.5,208.5 l -2.4375,3.9375 -1.90625,4.0625 -1.90625,4.0625 -1.375,4.15625 -1.375,4.1875 -0.875,4.3125 -0.84375,4.3125 -0.34375,4.40625 -0.375,4.4375 0.125,4.53125 0.125,4.53125 0.625,4.65625 0.59375,4.6875 0.65625,2.84375 0.625,2.875 0.875,2.71875 0.875,2.75 1.125,2.59375 1.09375,2.59375 2.6875,4.96875 3.1875,4.6875 3.65625,4.4375 4.125,4.15625 4.625,3.90625 5.125,3.65625 5.59375,3.40625 6.125,3.15625 6.59375,2.875 7.125,2.625 7.65625,2.34375 8.125,2.125 8.65625,1.84375 -1.46875,3.5625 -1.46875,3.53125 -1.5,3.5625 -1.25,3.65625 -1.28125,3.65625 -1.28125,3.625 -1.0625,3.75 -1.09375,3.75 -1.09375,3.75 -0.875,3.8125 -0.875,3.84375 -0.90625,3.84375 -0.65625,3.9375 -0.71875,3.90625 -0.71875,3.9375 -0.5,4.03125 -0.5,4.03125 -0.53125,4 -0.34375,4.125 -0.34375,4.125 -0.34375,4.125 -0.15625,4.21875 -0.15625,4.1875 -0.1875,4.21875 0.0625,3.59375 0.0625,3.5625 0.0312,3.5625 0.3125,3.875 0.28125,3.84375 0.28125,3.84375 0.53125,4.125 0.53125,4.125 0.5,4.15625 0.75,4.40625 0.75,4.40625 0.71875,4.40625 0.96875,4.65625 0.9375,4.6875 0.9375,4.6875 1.1875,4.96875 1.15625,4.96875 1.15625,4.96875 1.03125,3.90625 1.03125,3.9375 1,3.9375 1,3.90625 1.1875,4.15625 1.1875,4.125 1.15625,4.15625 1.15625,4.125 1.3125,4.65625 1.28125,4.65625 1.28125,4.6875 1.28125,4.65625 1.25,4.65625 0.96875,4.28125 0.9375,4.28125 0.9375,4.28125 0.9375,4.25 0.90625,4.28125 0.90625,4.28125 0.8125,4.6875 0.78125,4.65625 0.78125,4.6875 0.75,4.65625 0.75,4.6875 0.71875,4.65625 0.53125,4.34375 0.53125,4.34375 0.5,4.34375 0.5,4.34375 0.46875,4.34375 0.46875,4.34375 0.46875,4.34375 365.5,0 0.75,-4.21875 0.75,-4.21875 0.75,-4.21875 0.78125,-4.21875 0.9375,-4.21875 0.96875,-4.1875 0.96875,-4.21875 0.9375,-4.1875 1.15625,-4.1875 1.15625,-4.1875 1.15625,-4.1875 1.15625,-4.1875 1.3125,-4.1875 1.34375,-4.15625 1.34375,-4.15625 1.34375,-4.1875 1.53125,-4.15625 1.53125,-4.15625 1.53125,-4.125 1.53125,-4.15625 1.71875,-4.15625 1.71875,-4.125 1.71875,-4.125 1.71875,-4.15625 1.90625,-4.125 1.90625,-4.09375 1.90625,-4.125 1.90625,-4.125 2.09375,-4.09375 2.09375,-4.125 2.09375,-4.09375 2.09375,-4.09375 2.28125,-4.09375 2.28125,-4.09375 2.28125,-4.0625 2.3125,-4.09375 2.46875,-4.0625 2.46875,-4.09375 2.46875,-4.0625 2.5,-4.0625 2.6875,-4.0625 2.65625,-4.03125 2.6875,-4.0625 2.6875,-4.0625 2.875,-4.03125 2.875,-4.03125 2.90625,-4.03125 2.875,-4.03125 3.09375,-4.03125 3.09375,-4 3.09375,-4.03125 3.125,-4.03125 3.28125,-4 3.3125,-4 3.3125,-4 3.34375,-4 3.53125,-3.96875 3.53125,-4 3.5625,-3.96875 3.5625,-4 3.75,-3.96875 3.75,-3.96875 3.8125,-3.96875 3.8125,-3.96875 4.0625,-4.25 4.09375,-4.28125 4.125,-4.28125 4.15625,-4.25 4.40625,-4.75 4.4375,-4.78125 4.5,-4.75 3.3125,-3.84375 3.375,-3.8125 3.375,-3.84375 3.34375,-4.34375 3.34375,-4.34375 2.40625,-3.875 2.15625,-4.09375 1.9375,-4.34375 1.75,-4.53125 1.40625,-4.90625 1.4375,-4.90625 0.6875,-3.5625 0.6875,-3.5625 0.71875,-3.59375 0.28125,-2.625 0.28125,-2.625 0.0625,-2.5 0.0625,-2.5 -0.375,-4.78125 -0.84375,-4.53125 -1.34375,-4.28125 -1.84375,-4.0625 -2.34375,-3.84375 -2.875,-3.5625 -3.375,-3.34375 -3.90625,-3.125 -4.4375,-2.875 -4.96875,-2.625 -5.46875,-2.375 -6.03125,-2.15625 -6.59375,-1.90625 -7.09375,-1.6875 -18.03125,-4.0625 -18.125,-4.09375 -6.90625,-1.875 -5.9062,-2.15625 -4.90625,-2.5 -3.90625,-2.8125 -2.875,-3.09375 -1.84375,-3.40625 -0.8125,-3.71875 0.21875,-4.0625 -17.5,0 -5.125,3.875 -5.0625,3.875 -4.46875,4 -4.4375,4 -3.78125,4.09375 -3.78125,4.125 -3.1875,4.21875 -3.125,4.25 -2.53125,4.34375 -2.53125,4.375 -1.90625,4.46875 -1.875,4.46875 -1.3125,4.59375 -1.28125,4.59375 -0.6875,4.71875 -0.6875,4.71875 -0.15625,4.90625 0.375,4.6875 0.875,4.5 1.40625,4.3125 1.875,4.09375 2.40625,3.90625 2.875,3.71875 3.40625,3.5 3.875,3.3125 4.375,3.09375 4.875,2.9375 5.34375,2.71875 5.84375,2.5 6.3125,2.34375 6.84375,2.125 7.28125,1.90625 7.71875,1.71875 6.125,1.96875 5.28125,2.1875 4.4375,2.46875 3.5625,2.71875 2.71875,2.96875 1.90625,3.21875 1.03125,3.5 0.21875,3.75 -0.625,3.96875 -1.4375,4.21875 -2.25,4.46875 -3.09375,4.71875 -3.875,4.96875 -2.34375,2.59375 -2.34375,2.59375 -2.75,2.71875 -2.75,2.71875 -3.15625,2.84375 -3.125,2.84375 L 608.5,387.5 l -4.375,4.1875 -4.34375,4.1875 -4.34375,4.15625 -4.34375,4.1875 -4.3125,4.15625 -4.71875,4.71875 -4.6875,4.75 -4.65625,4.71875 -4.6875,4.71875 -4.625,4.71875 -4.1875,4.4375 -4.1875,4.4375 -4.15625,4.4375 -4.15625,4.4375 -4.15625,4.4375 -3.6875,4.125 -3.6875,4.15625 -3.6875,4.15625 -3.65625,4.15625 -3.6875,4.125 -4.03125,4.84375 -4,4.8125 -4.03125,4.84375 -4.03125,4.8125 -3.4375,4.46875 -3.4375,4.46875 -3.46875,4.46875 -3.4375,4.46875 -2.875,4.09375 -2.90625,4.125 -2.875,4.09375 -2.875,4.125 -2.46875,3.84375 -2.4375,3.84375 -2.1875,3.65625 -2.15625,3.65625 -178.40625,0 3.46875,-4.28125 3.4375,-4.28125 3.4375,-4.28125 3.375,-4.28125 3.375,-4.28125 3.375,-4.25 3.15625,-4.375 3.125,-4.34375 3.125,-4.34375 3.09375,-4.34375 3.09375,-4.34375 3.0625,-4.34375 2.875,-4.4375 2.875,-4.40625 2.84375,-4.4375 2.84375,-4.40625 2.8125,-4.4375 2.8125,-4.40625 2.65625,-4.5 2.59375,-4.5 2.625,-4.46875 2.59375,-4.5 2.59375,-4.5 2.59375,-4.46875 2.40625,-4.5625 2.375,-4.59375 2.40625,-4.5625 2.375,-4.5625 2.40625,-4.5625 2.375,-4.5625 2.1875,-4.625 2.21875,-4.625 2.1875,-4.65625 2.1875,-4.625 2.21875,-4.625 2.1875,-4.65625 2.03125,-4.6875 2,-4.71875 2.03125,-4.6875 2.03125,-4.71875 2.03125,-4.71875 2.03125,-4.6875 1.84375,-4.78125 1.84375,-4.78125 1.875,-4.78125 1.875,-4.78125 1.875,-4.78125 1.875,-4.78125 17.9375,-0.375 16.75,-1.125 15.5625,-1.875 14.34375,-2.625 1.53125,-3.28125 1.53125,-3.28125 1.125,-3.59375 1.15625,-3.59375 0.75,-3.90625 0.78125,-3.9375 0.375,-4.25 0.375,-4.21875 0,-3.25 0,-3.25 -0.21875,-3.0625 -0.25,-3.0625 -0.46875,-2.90625 -0.5,-2.90625 -0.75,-2.71875 -0.75,-2.71875 -1,-2.5625 -1,-2.53125 -2.53125,-4.78125 -3.0625,-4.40625 -3.5625,-4.0625 -4.125,-3.71875 -4.6875,-3.375 -5.1875,-3.03125 -5.75,-2.6875 -6.28125,-2.3125 -6.84375,-2 -7.34375,-1.65625 -7.90625,-1.28125 -19.125,-2.8125 -19.15625,-2.78125 -7.8125,-1.3125 -6.9375,-1.875 -6.09375,-2.375 -5.25,-2.90625 -4.40625,-3.4375 -3.53125,-3.9375 -2.71875,-4.5 -1.84375,-5 -17.4375,0 -3.8125,3.5625 -3.8125,3.53125 -3.25,3.65625 -3.25,3.65625 -2.6875,3.75 -2.65625,3.75 -2.15625,3.875 -2.125,3.875 -1.59375,3.96875 -1.59375,3.96875 -1.0625,4.0625 -1.0625,4.09375 -0.53125,4.1875 -0.53125,4.1875 -0.0312,4.28125 -0.0312,4.3125 0.28125,2.75 0.28125,2.71875 0.5625,2.625 0.5625,2.65625 0.8125,2.53125 0.84375,2.53125 2.21875,4.84375 2.75,4.625 3.3125,4.40625 3.875,4.21875 4.375,4 4.96875,3.78125 5.46875,3.59375 6.03125,3.34375 6.59375,3.15625 7.125,2.9375 7.6875,2.75 8.21875,2.5 8.78125,2.3125 -1.90625,4.46875 -1.90625,4.4375 -1.90625,4.46875 -1.90625,4.4375 -1.90625,4.46875 -1.90625,4.4375 -1.90625,4.46875 -2.03125,4.3125 -2,4.3125 -2.03125,4.3125 -2,4.3125 -2.03125,4.3125 -2,4.3125 -2.03125,4.3125 -2.5,4.84375 -2.46875,4.875 -2.5,4.875 -2.5,4.84375 -2.53125,4.875 -2.5,4.875 -2.65625,4.6875 -2.65625,4.71875 -2.65625,4.6875 -2.6875,4.6875 -2.65625,4.71875 -2.71875,4.6875 -2.8125,4.53125 -2.84375,4.53125 -2.84375,4.53125 -2.875,4.5625 -2.875,4.53125 -2.90625,4.53125 -3,4.40625 -3,4.40625 -3.03125,4.40625 -3.125,4.34375 -3.125,4.3125 -3.15625,4.34375 -3.21875,4.21875 -3.25,4.25 -3.25,4.25 -3.34375,4.15625 -3.375,4.15625 -3.375,4.1875 -3.5,4.0625 -3.46875,4.09375 -3.53125,4.0625 -3.59375,4 -3.625,4 -3.65625,4 -26.1875,0 -3.40625,-3.9375 -3.40625,-3.9375 -3.15625,-4 -3.15625,-3.96875 -2.90625,-4.03125 -2.90625,-4.03125 -2.6875,-4.0625 -2.65625,-4.0625 -2.4375,-4.09375 -2.40625,-4.125 -2.1875,-4.15625 -2.21875,-4.15625 -1.96875,-4.1875 -1.96875,-4.1875 -1.71875,-4.21875 -1.75,-4.25 -1.53125,-4.28125 -1.53125,-4.25 L 171.3125,465.25 170,460.9375 l -1.09375,-4.34375 -1.09375,-4.375 -0.875,-4.40625 -0.90625,-4.375 -0.65625,-4.46875 -0.6875,-4.4375 -0.46875,-4.46875 -0.46875,-4.5 -0.28125,-4.53125 -0.25,-4.53125 -0.0625,-4.5625 -0.0937,-4.5625 0.125,-3.34375 0.0937,-3.375 0.0625,-3.34375 0.40625,-5 0.34375,-5 0.625,-4.9375 0.59375,-4.96875 0.84375,-4.9375 0.8125,-4.9375 1.09375,-4.875 1.0625,-4.90625 1.3125,-4.875 1.28125,-4.84375 1.5625,-4.84375 1.53125,-4.8125 1.78125,-4.8125 1.78125,-4.78125 14.9375,-0.53125 16.1875,-1.625 17.4375,-2.6875 18.71875,-3.75 2.0625,-4.6875 0.6875,-2.75 0.6875,-2.75 0.3125,-3.15625 0.34375,-3.15625 -0.0625,-3.5625 -0.0312,-3.5625 -0.34375,-3.6875 -0.34375,-3.6875 -0.59375,-3.46875 -0.625,-3.46875 -0.84375,-3.28125 -0.84375,-3.28125 -1.09375,-3.0625 -1.125,-3.0625 -1.34375,-2.875 -1.375,-2.84375 -1.59375,-2.6875 -1.625,-2.65625 -3.71875,-4.90625 -4.21875,-4.5 L 225.25,245 l -5.1875,-3.6875 -5.71875,-3.25 -6.21875,-2.875 -6.65625,-2.46875 -7.1875,-2.03125 -7.65625,-1.625 -8.09375,-1.21875 -34.21875,-4.3125 -8.75,-1.53125 -7.90625,-2.0625 -7.15625,-2.5625 -6.34375,-3.0625 -5.5625,-3.59375 -4.8125,-4.09375 -4.03125,-4.59375 -1.625,-2.5625 -1.65625,-2.5625 -17.46875,0 z m 1004.3125,235.28125 -11.0937,0.34375 -10.4063,0.96875 -9.6875,1.625 -9.0312,2.28125 -8.3126,2.9375 -7.625,3.5625 -6.9687,4.21875 -6.2813,4.90625 -2.8124,2.75 -2.8126,2.78125 -2.4687,3.09375 -2.5,3.0625 -2.1563,3.4375 -2.18745,3.40625 -1.84375,3.75 -1.875,3.75 -1.53125,4.0625 -1.5625,4.0625 -1.25,4.40625 -1.25,4.375 -0.9375,4.71875 -0.96875,4.71875 -0.4375,3.375 -0.4375,3.34375 -0.46875,3.375 -0.1875,3.9375 -0.1875,3.90625 -0.21875,3.90625 -0.25,3.9375 -0.15625,4.5 -0.1875,4.5 -0.21875,4.53125 -0.21875,4.5 -0.25,4.5 -0.25,4.53125 -0.3125,4.5 -0.5625,4.8125 -0.625,4.8125 -0.625,4.8125 L 981.5,582 l -0.65625,4.8125 -0.65625,3.03125 -0.625,3 -0.8125,2.75 -0.84375,2.71875 -2,4.84375 -2.375,4.28125 -2.71875,3.65625 -3.0625,3.09375 -3.375,2.5 -3.75,1.90625 4.0625,4.0625 4.0625,4.09375 10.5625,-0.21875 10.28125,-0.6875 9.96875,-1.15625 9.6563,-1.59375 9.3437,-2.03125 9,-2.53125 8.625,-2.9375 8.2813,-3.4375 7.625,-3.8125 6.625,-4.09375 5.7187,-4.4375 4.7187,-4.75 1.9063,-2.5 1.9063,-2.53125 1.4062,-2.6875 1.4375,-2.65625 0.9687,-2.84375 0.9688,-2.8125 0.5,-3 0.5,-2.96875 0.062,-3.59375 0.062,-3.59375 -0.125,-4.625 -0.125,-4.59375 -0.125,-4.625 0.062,-4.375 0.031,-4.375 0.031,-4.375 0,-4.375 0.031,-4.375 0,-4.375 -0.031,-4.34375 0.1562,-4.46875 0.125,-4.4375 0.125,-4.4375 0.094,-4.46875 0.094,-4.4375 0.3437,-3.65625 0.3125,-3.6875 0.2812,-3.65625 0.875,-4.9375 0.8438,-4.90625 1.2188,-4.34375 1.2187,-4.34375 1.5,-3.90625 1.7187,-3.625 1.9063,-3.3125 2.0937,-3.03125 2.2813,-2.71875 2.5,-2.4375 2.7187,-2.15625 2.9063,-1.84375 3.0937,-1.59375 3.3126,-1.25 0.062,-3.21875 0.031,-3.21875 -5.4063,-2.25 -6,-1.625 -6.5624,-0.9375 -7.1563,-0.34375 z"
       id="path4228-0" />
  </g>
</svg>
