<?xml version="1.0" encoding="UTF-8" standalone="no"?>
<!-- Created with Inkscape (http://www.inkscape.org/) -->

<svg
   xmlns:dc="http://purl.org/dc/elements/1.1/"
   xmlns:cc="http://creativecommons.org/ns#"
   xmlns:rdf="http://www.w3.org/1999/02/22-rdf-syntax-ns#"
   xmlns:svg="http://www.w3.org/2000/svg"
   xmlns="http://www.w3.org/2000/svg"
   xmlns:sodipodi="http://sodipodi.sourceforge.net/DTD/sodipodi-0.dtd"
   xmlns:inkscape="http://www.inkscape.org/namespaces/inkscape"
   width="3200"
   height="800"
   id="svg27345"
   version="1.1"
   inkscape:version="0.48.5 r10040"
   sodipodi:docname="honeycomb_narrow_swirl_2.svg">
  <sodipodi:namedview
     id="base"
     pagecolor="#ffffff"
     bordercolor="#666666"
     borderopacity="1.0"
     inkscape:pageopacity="0.0"
     inkscape:pageshadow="2"
     inkscape:zoom="0.1365625"
     inkscape:cx="1600"
     inkscape:cy="400"
     inkscape:document-units="px"
     inkscape:current-layer="layer1"
     showgrid="false"
     inkscape:window-width="534"
     inkscape:window-height="442"
     inkscape:window-x="0"
     inkscape:window-y="0"
     inkscape:window-maximized="0" />
  <defs
     id="defs27347">
    <inkscape:perspective
       sodipodi:type="inkscape:persp3d"
       inkscape:vp_x="0 : 526.18109 : 1"
       inkscape:vp_y="0 : 1000 : 0"
       inkscape:vp_z="744.09448 : 526.18109 : 1"
       inkscape:persp3d-origin="372.04724 : 350.78739 : 1"
       id="perspective27353" />
    <inkscape:perspective
       id="perspective3138"
       inkscape:persp3d-origin="0.5 : 0.33333333 : 1"
       inkscape:vp_z="1 : 0.5 : 1"
       inkscape:vp_y="0 : 1000 : 0"
       inkscape:vp_x="0 : 0.5 : 1"
       sodipodi:type="inkscape:persp3d" />
  </defs>
  <metadata
     id="metadata27350">
    <rdf:RDF>
      <cc:Work
         rdf:about="">
        <dc:format>image/svg+xml</dc:format>
        <dc:type
           rdf:resource="http://purl.org/dc/dcmitype/StillImage" />
        <dc:title />
      </cc:Work>
    </rdf:RDF>
  </metadata>
  <g
     inkscape:label="1-red"
     inkscape:groupmode="layer"
     id="layer1"
     transform="translate(0,-252.36218)"
     style="display:inline">
    <path
       sodipodi:nodetypes="cssssccsssscssssccsssscssssccsssscssssccsssscssssccsssscssssccssssc"
       d="m 369.17939,537.52 c -15.0959,1.32871 -30.7838,7.53841 -43.9833,15.0112 -39.835,22.5524 -62.3208,75.6441 -36.4421,116.9237 15.9012,25.3643 51.7938,39.7615 78.0483,20.7525 14.2126,-10.2904 22.4353,-32.6202 9.3003,-47.1495 -5.7326,-6.3411 -18.231,-10.3338 -24.1557,-2.0523 -1.4601,3.3637 1.7709,2.5675 4.1718,1.7571 7.356,-3.4537 14.5224,4.3203 16.1168,10.9592 3.8395,15.9869 -11.4143,28.9893 -25.9129,30.9189 -28.3358,3.7712 -49.7745,-22.8846 -51.4858,-49.0239 -2.9405,-44.9145 39.3056,-77.5404 81.277,-78.3332 23.0037,-0.4345 47.0793,6.0013 67.5867,23.282 -6.1129,13.6661 -8.8637,30.4289 -8.9918,45.5964 -0.3865,45.7743 34.3493,91.7934 83.0379,90.0216 29.9167,-1.0887 60.3313,-24.974 56.9963,-57.2155 -1.8054,-17.4537 -17.0323,-35.7397 -36.1825,-31.6291 -8.3579,1.794 -18.0648,10.6216 -13.8552,19.8933 2.183,2.9463 3.109,-0.2499 3.6076,-2.7343 0.687,-8.0974 11.0027,-10.4166 17.5493,-8.478 15.7649,4.6684 19.3984,24.3797 13.8201,37.9007 -10.9019,26.4251 -44.7058,31.6637 -68.1988,20.0761 -40.3673,-19.9107 -47.4992,-72.8099 -27.2,-109.5546 11.1255,-20.139 28.7369,-37.7712 53.9562,-46.8907 8.7788,12.127 21.9204,22.8906 34.9918,30.5853 39.4484,23.2219 96.6701,16.1493 119.4799,-26.9021 14.0156,-26.453 8.5376,-64.7355 -21.0519,-77.968 -16.0181,-7.1633 -39.4676,-3.1195 -45.4828,15.5204 -2.6253,8.1351 0.1661,20.9554 10.3005,21.9456 3.6431,-0.4174 1.338,-2.8174 -0.5642,-4.4914 -6.669,-4.6437 -3.5197,-14.7369 1.4325,-19.4372 11.9253,-11.3185 30.8126,-4.6096 39.733,6.9818 17.4339,22.6539 5.0686,54.5483 -16.713,69.1 -37.4269,25.0038 -86.8048,4.7305 -108.4771,-31.2214 -11.8781,-19.7045 -18.3423,-43.7725 -13.6304,-70.173 14.8916,-1.5395 30.784,-7.5387 43.9835,-15.0115 39.835,-22.5524 62.3208,-75.6441 36.4421,-116.9237 -15.9012,-25.36431 -51.7938,-39.76153 -78.0483,-20.75246 -14.2126,10.29034 -22.4353,32.62016 -9.3003,47.14946 5.7326,6.3411 18.231,10.3338 24.1557,2.0523 1.4601,-3.3637 -1.7709,-2.5675 -4.1718,-1.7571 -7.356,3.4537 -14.5224,-4.3203 -16.1168,-10.9592 -3.8395,-15.98694 11.4143,-28.98934 25.9129,-30.91893 28.3358,-3.77115 49.7745,22.88463 51.4858,49.02393 2.9405,44.9145 -39.3056,77.5404 -81.277,78.3332 -23.0037,0.4345 -47.0793,-6.0013 -67.5869,-23.2819 6.1125,-13.6661 8.8633,-30.4289 8.9914,-45.5964 0.3865,-45.77434 -34.3493,-91.79346 -83.0379,-90.02165 -29.9167,1.08869 -60.3314,24.97398 -56.9963,57.21555 1.8054,17.4537 17.0323,35.7396 36.1825,31.6291 8.3579,-1.7941 18.0648,-10.6217 13.8552,-19.8933 -2.183,-2.9464 -3.109,0.2498 -3.6076,2.7343 -0.687,8.0973 -11.0027,10.4166 -17.5493,8.4779 -15.7649,-4.6683 -19.3984,-24.3797 -13.8202,-37.90065 10.902,-26.42509 44.706,-31.66366 68.1989,-20.07604 40.3673,19.9107 47.4992,72.80989 27.2,109.55459 -11.1255,20.139 -28.7369,37.7712 -53.9561,46.8909 -8.7788,-12.1268 -21.9205,-22.8904 -34.9919,-30.5851 -39.4484,-23.2219 -96.6701,-16.1494 -119.4799,26.902 -14.0155,26.453 -8.5376,64.7356 21.052,77.9681 16.018,7.1633 39.4675,3.1194 45.4828,-15.5204 2.6252,-8.1352 -0.1662,-20.9555 -10.3005,-21.9456 -3.6431,0.4173 -1.3381,2.8173 0.5642,4.4914 6.669,4.6436 3.5197,14.7369 -1.4326,19.4371 -11.9253,11.3186 -30.8126,4.6096 -39.733,-6.9817 -17.4338,-22.654 -5.0686,-54.5483 16.7131,-69.1 37.4268,-25.0038 86.8047,-4.7305 108.477,31.2214 11.8781,19.7045 18.5469,43.983 13.6308,70.1728 z"
       style="fill:none;stroke:#ff2323;stroke-width:4;stroke-linecap:butt;stroke-linejoin:miter;stroke-miterlimit:4;stroke-opacity:1;stroke-dasharray:none;display:inline"
       id="path3098"
       inkscape:connector-curvature="0" />
    <path
       id="path3102"
       style="fill:none;stroke:#ff2323;stroke-width:4;stroke-linecap:butt;stroke-linejoin:miter;stroke-miterlimit:4;stroke-opacity:1;stroke-dasharray:none;display:inline"
       d="m 902.84778,845.233 c -15.0959,1.3287 -30.7838,7.5384 -43.9833,15.0112 -39.835,22.55241 -62.3208,75.6441 -36.4421,116.92371 15.9012,25.36429 51.7938,39.76149 78.0483,20.75249 14.2126,-10.29039 22.4353,-32.62019 9.3003,-47.14949 -5.7326,-6.3411 -18.231,-10.3338 -24.1557,-2.0523 -1.4601,3.3637 1.7709,2.5675 4.1718,1.7571 7.356,-3.4537 14.5224,4.3203 16.1168,10.9592 3.8395,15.9869 -11.4143,28.9893 -25.9129,30.9189 -28.3358,3.77119 -49.7745,-22.8846 -51.4858,-49.0239 -2.9405,-44.9145 39.3056,-77.5404 81.277,-78.3332 23.0037,-0.4345 47.0793,6.0013 67.5867,23.282 -6.1129,13.6661 -8.8637,30.4289 -8.9918,45.5964 -0.3865,45.7743 34.34932,91.79339 83.03792,90.02159 29.9167,-1.0887 60.3313,-24.974 56.9963,-57.21549 -1.8054,-17.4537 -17.0323,-35.7397 -36.1825,-31.6291 -8.3579,1.794 -18.0648,10.6216 -13.8552,19.8933 2.183,2.9463 3.109,-0.2499 3.6076,-2.7343 0.687,-8.0974 11.0027,-10.4166 17.5493,-8.478 15.7649,4.6684 19.3984,24.3797 13.8201,37.9007 -10.9019,26.42509 -44.7058,31.66369 -68.1988,20.07609 -40.36732,-19.91069 -47.49922,-72.80989 -27.20002,-109.55459 11.12552,-20.139 28.73692,-37.7712 53.95622,-46.8907 8.7788,12.127 21.9204,22.8906 34.9918,30.5853 39.4484,23.2219 96.6701,16.1493 119.4799,-26.9021 14.0156,-26.453 8.5376,-64.7355 -21.0519,-77.968 -16.0181,-7.1633 -39.4676,-3.1195 -45.4828,15.5204 -2.6253,8.1351 0.1661,20.9554 10.3005,21.9456 3.6431,-0.4174 1.338,-2.8174 -0.5642,-4.4914 -6.669,-4.6437 -3.5197,-14.7369 1.4325,-19.4372 11.9253,-11.3185 30.8126,-4.6096 39.733,6.9818 17.4339,22.6539 5.0686,54.5483 -16.713,69.1 -37.4269,25.0038 -86.8048,4.7305 -108.4771,-31.2214 -11.8781,-19.7045 -18.3423,-43.7725 -13.6304,-70.173 14.8916,-1.5395 30.784,-7.5387 43.9835,-15.0115 39.835,-22.5524 62.3208,-75.6441 36.4421,-116.9237 -15.9012,-25.36431 -51.7938,-39.76153 -78.0483,-20.75246 -14.2126,10.29034 -22.4353,32.62016 -9.3003,47.14946 5.7326,6.3411 18.231,10.3338 24.1557,2.0523 1.4601,-3.3637 -1.7709,-2.5675 -4.1718,-1.7571 -7.356,3.4537 -14.5224,-4.3203 -16.1168,-10.9592 -3.8395,-15.98694 11.4143,-28.98934 25.9129,-30.91893 28.3358,-3.77115 49.7745,22.88463 51.4858,49.02393 2.9405,44.9145 -39.3056,77.5404 -81.277,78.3332 -23.0037,0.4345 -47.07932,-6.0013 -67.58692,-23.2819 6.1125,-13.6661 8.8633,-30.4289 8.9914,-45.5964 0.3865,-45.77434 -34.3493,-91.79346 -83.0379,-90.02165 -29.9167,1.08869 -60.3314,24.97398 -56.9963,57.21555 1.8054,17.4537 17.0323,35.7396 36.1825,31.6291 8.3579,-1.7941 18.0648,-10.6217 13.8552,-19.8933 -2.183,-2.9464 -3.109,0.2498 -3.6076,2.7343 -0.687,8.0973 -11.0027,10.4166 -17.5493,8.4779 -15.7649,-4.6683 -19.3984,-24.3797 -13.8202,-37.90065 10.902,-26.42509 44.706,-31.66366 68.1989,-20.07604 40.3673,19.9107 47.4992,72.80989 27.2,109.55459 -11.1255,20.139 -28.7369,37.7712 -53.9561,46.8909 -8.7788,-12.1268 -21.9205,-22.8904 -34.9919,-30.5851 -39.4484,-23.2219 -96.6701,-16.1494 -119.4799,26.902 -14.0155,26.453 -8.5376,64.7356 21.052,77.9681 16.018,7.1633 39.4675,3.1194 45.4828,-15.5204 2.6252,-8.1352 -0.1662,-20.9555 -10.3005,-21.9456 -3.6431,0.4173 -1.3381,2.8173 0.5642,4.4914 6.669,4.6436 3.5197,14.7369 -1.4326,19.4371 -11.9253,11.3186 -30.8126,4.6096 -39.733,-6.9817 -17.4338,-22.654 -5.0686,-54.5483 16.7131,-69.1 37.4268,-25.0038 86.8047,-4.7305 108.477,31.2214 11.8781,19.7045 18.5469,43.983 13.6308,70.1728 z"
       sodipodi:nodetypes="cssssccsssscssssccsssscssssccsssscssssccsssscssssccsssscssssccssssc"
       inkscape:connector-curvature="0" />
    <path
       sodipodi:nodetypes="cssssccsssscssssccsssscssssccsssscssssccsssscssssccsssscssssccssssc"
       d="m 1436.5163,537.52 c -15.0959,1.32871 -30.7838,7.53841 -43.9833,15.0112 -39.835,22.5524 -62.3208,75.6441 -36.4421,116.9237 15.9012,25.3643 51.7938,39.7615 78.0483,20.7525 14.2126,-10.2904 22.4353,-32.6202 9.3003,-47.1495 -5.7326,-6.3411 -18.231,-10.3338 -24.1557,-2.0523 -1.4601,3.3637 1.7709,2.5675 4.1718,1.7571 7.356,-3.4537 14.5224,4.3203 16.1168,10.9592 3.8395,15.9869 -11.4143,28.9893 -25.9129,30.9189 -28.3358,3.7712 -49.7745,-22.8846 -51.4858,-49.0239 -2.9405,-44.9145 39.3056,-77.5404 81.277,-78.3332 23.0037,-0.4345 47.0793,6.0013 67.5867,23.282 -6.1129,13.6661 -8.8637,30.4289 -8.9918,45.5964 -0.3865,45.7743 34.3493,91.7934 83.0379,90.0216 29.9167,-1.0887 60.3313,-24.974 56.9963,-57.2155 -1.8054,-17.4537 -17.0323,-35.7397 -36.1825,-31.6291 -8.3579,1.794 -18.0648,10.6216 -13.8552,19.8933 2.183,2.9463 3.109,-0.2499 3.6076,-2.7343 0.687,-8.0974 11.0027,-10.4166 17.5493,-8.478 15.7649,4.6684 19.3984,24.3797 13.8201,37.9007 -10.9019,26.4251 -44.7058,31.6637 -68.1988,20.0761 -40.3673,-19.9107 -47.4992,-72.8099 -27.2,-109.5546 11.1255,-20.139 28.7369,-37.7712 53.9562,-46.8907 8.7788,12.127 21.9204,22.8906 34.9918,30.5853 39.4484,23.2219 96.6701,16.1493 119.4799,-26.9021 14.0156,-26.453 8.5376,-64.7355 -21.0519,-77.968 -16.0181,-7.1633 -39.4676,-3.1195 -45.4828,15.5204 -2.6253,8.1351 0.1661,20.9554 10.3005,21.9456 3.6431,-0.4174 1.338,-2.8174 -0.5642,-4.4914 -6.669,-4.6437 -3.5197,-14.7369 1.4325,-19.4372 11.9253,-11.3185 30.8126,-4.6096 39.733,6.9818 17.4339,22.6539 5.0686,54.5483 -16.713,69.1 -37.4269,25.0038 -86.8048,4.7305 -108.4771,-31.2214 -11.8781,-19.7045 -18.3423,-43.7725 -13.6304,-70.173 14.8916,-1.5395 30.784,-7.5387 43.9835,-15.0115 39.835,-22.5524 62.3208,-75.6441 36.4421,-116.9237 -15.9012,-25.36431 -51.7938,-39.76153 -78.0483,-20.75246 -14.2126,10.29034 -22.4353,32.62016 -9.3003,47.14946 5.7326,6.3411 18.231,10.3338 24.1557,2.0523 1.4601,-3.3637 -1.7709,-2.5675 -4.1718,-1.7571 -7.356,3.4537 -14.5224,-4.3203 -16.1168,-10.9592 -3.8395,-15.98694 11.4143,-28.98934 25.9129,-30.91893 28.3358,-3.77115 49.7745,22.88463 51.4858,49.02393 2.9405,44.9145 -39.3056,77.5404 -81.277,78.3332 -23.0037,0.4345 -47.0793,-6.0013 -67.5869,-23.2819 6.1125,-13.6661 8.8633,-30.4289 8.9914,-45.5964 0.3865,-45.77434 -34.3493,-91.79346 -83.0379,-90.02165 -29.9167,1.08869 -60.3314,24.97398 -56.9963,57.21555 1.8054,17.4537 17.0323,35.7396 36.1825,31.6291 8.3579,-1.7941 18.0648,-10.6217 13.8552,-19.8933 -2.183,-2.9464 -3.109,0.2498 -3.6076,2.7343 -0.687,8.0973 -11.0027,10.4166 -17.5493,8.4779 -15.7649,-4.6683 -19.3984,-24.3797 -13.8202,-37.90065 10.902,-26.42509 44.706,-31.66366 68.1989,-20.07604 40.3673,19.9107 47.4992,72.80989 27.2,109.55459 -11.1255,20.139 -28.7369,37.7712 -53.9561,46.8909 -8.7788,-12.1268 -21.9205,-22.8904 -34.9919,-30.5851 -39.4484,-23.2219 -96.6701,-16.1494 -119.4799,26.902 -14.0155,26.453 -8.5376,64.7356 21.052,77.9681 16.018,7.1633 39.4675,3.1194 45.4828,-15.5204 2.6252,-8.1352 -0.1662,-20.9555 -10.3005,-21.9456 -3.6431,0.4173 -1.3381,2.8173 0.5642,4.4914 6.669,4.6436 3.5197,14.7369 -1.4326,19.4371 -11.9253,11.3186 -30.8126,4.6096 -39.733,-6.9817 -17.4338,-22.654 -5.0686,-54.5483 16.7131,-69.1 37.4268,-25.0038 86.8047,-4.7305 108.477,31.2214 11.8781,19.7045 18.5469,43.983 13.6308,70.1728 z"
       style="fill:none;stroke:#ff2323;stroke-width:4;stroke-linecap:butt;stroke-linejoin:miter;stroke-miterlimit:4;stroke-opacity:1;stroke-dasharray:none;display:inline"
       id="path3108"
       inkscape:connector-curvature="0" />
    <path
       id="path3114"
       style="fill:none;stroke:#ff2323;stroke-width:4;stroke-linecap:butt;stroke-linejoin:miter;stroke-miterlimit:4;stroke-opacity:1;stroke-dasharray:none;display:inline"
       d="m 1970.1846,845.233 c -15.0959,1.3287 -30.7838,7.5384 -43.9833,15.0112 -39.835,22.55241 -62.3208,75.6441 -36.4421,116.92371 15.9012,25.36429 51.7938,39.76149 78.0483,20.75249 14.2126,-10.29039 22.4353,-32.62019 9.3003,-47.14949 -5.7326,-6.3411 -18.231,-10.3338 -24.1557,-2.0523 -1.4601,3.3637 1.7709,2.5675 4.1718,1.7571 7.356,-3.4537 14.5224,4.3203 16.1168,10.9592 3.8395,15.9869 -11.4143,28.9893 -25.9129,30.9189 -28.3358,3.77119 -49.7745,-22.8846 -51.4858,-49.0239 -2.9405,-44.9145 39.3056,-77.5404 81.277,-78.3332 23.0037,-0.4345 47.0793,6.0013 67.5867,23.282 -6.1129,13.6661 -8.8637,30.4289 -8.9918,45.5964 -0.3865,45.7743 34.3493,91.79339 83.0379,90.02159 29.9167,-1.0887 60.3313,-24.974 56.9963,-57.21549 -1.8054,-17.4537 -17.0323,-35.7397 -36.1825,-31.6291 -8.3579,1.794 -18.0648,10.6216 -13.8552,19.8933 2.183,2.9463 3.109,-0.2499 3.6076,-2.7343 0.687,-8.0974 11.0027,-10.4166 17.5493,-8.478 15.7649,4.6684 19.3984,24.3797 13.8201,37.9007 -10.9019,26.42509 -44.7058,31.66369 -68.1988,20.07609 -40.3673,-19.91069 -47.4992,-72.80989 -27.2,-109.55459 11.1255,-20.139 28.7369,-37.7712 53.9562,-46.8907 8.7788,12.127 21.9204,22.8906 34.9918,30.5853 39.4484,23.2219 96.6701,16.1493 119.4799,-26.9021 14.0156,-26.453 8.5376,-64.7355 -21.0519,-77.968 -16.0181,-7.1633 -39.4676,-3.1195 -45.4828,15.5204 -2.6253,8.1351 0.1661,20.9554 10.3005,21.9456 3.6431,-0.4174 1.338,-2.8174 -0.5642,-4.4914 -6.669,-4.6437 -3.5197,-14.7369 1.4325,-19.4372 11.9253,-11.3185 30.8126,-4.6096 39.733,6.9818 17.4339,22.6539 5.0686,54.5483 -16.713,69.1 -37.4269,25.0038 -86.8048,4.7305 -108.4771,-31.2214 -11.8781,-19.7045 -18.3423,-43.7725 -13.6304,-70.173 14.8916,-1.5395 30.784,-7.5387 43.9835,-15.0115 39.835,-22.5524 62.3208,-75.6441 36.4421,-116.9237 -15.9012,-25.36431 -51.7938,-39.76153 -78.0483,-20.75246 -14.2126,10.29034 -22.4353,32.62016 -9.3003,47.14946 5.7326,6.3411 18.231,10.3338 24.1557,2.0523 1.4601,-3.3637 -1.7709,-2.5675 -4.1718,-1.7571 -7.356,3.4537 -14.5224,-4.3203 -16.1168,-10.9592 -3.8395,-15.98694 11.4143,-28.98934 25.9129,-30.91893 28.3358,-3.77115 49.7745,22.88463 51.4858,49.02393 2.9405,44.9145 -39.3056,77.5404 -81.277,78.3332 -23.0037,0.4345 -47.0793,-6.0013 -67.5869,-23.2819 6.1125,-13.6661 8.8633,-30.4289 8.9914,-45.5964 0.3865,-45.77434 -34.3493,-91.79346 -83.0379,-90.02165 -29.9167,1.08869 -60.3314,24.97398 -56.9963,57.21555 1.8054,17.4537 17.0323,35.7396 36.1825,31.6291 8.3579,-1.7941 18.0648,-10.6217 13.8552,-19.8933 -2.183,-2.9464 -3.109,0.2498 -3.6076,2.7343 -0.687,8.0973 -11.0027,10.4166 -17.5493,8.4779 -15.7649,-4.6683 -19.3984,-24.3797 -13.8202,-37.90065 10.902,-26.42509 44.706,-31.66366 68.1989,-20.07604 40.3673,19.9107 47.4992,72.80989 27.2,109.55459 -11.1255,20.139 -28.7369,37.7712 -53.9561,46.8909 -8.7788,-12.1268 -21.9205,-22.8904 -34.9919,-30.5851 -39.4484,-23.2219 -96.6701,-16.1494 -119.4799,26.902 -14.0155,26.453 -8.5376,64.7356 21.052,77.9681 16.018,7.1633 39.4675,3.1194 45.4828,-15.5204 2.6252,-8.1352 -0.1662,-20.9555 -10.3005,-21.9456 -3.6431,0.4173 -1.3381,2.8173 0.5642,4.4914 6.669,4.6436 3.5197,14.7369 -1.4326,19.4371 -11.9253,11.3186 -30.8126,4.6096 -39.733,-6.9817 -17.4338,-22.654 -5.0686,-54.5483 16.7131,-69.1 37.4268,-25.0038 86.8047,-4.7305 108.477,31.2214 11.8781,19.7045 18.5469,43.983 13.6308,70.1728 z"
       sodipodi:nodetypes="cssssccsssscssssccsssscssssccsssscssssccsssscssssccsssscssssccssssc"
       inkscape:connector-curvature="0" />
    <path
       sodipodi:nodetypes="cssssccsssscssssccsssscssssccsssscssssccsssscssssccsssscssssccssssc"
       d="m 2503.853,537.52 c -15.0959,1.32871 -30.7838,7.53841 -43.9833,15.0112 -39.835,22.5524 -62.3208,75.6441 -36.4421,116.9237 15.9012,25.3643 51.7938,39.7615 78.0483,20.7525 14.2126,-10.2904 22.4353,-32.6202 9.3003,-47.1495 -5.7326,-6.3411 -18.231,-10.3338 -24.1557,-2.0523 -1.4601,3.3637 1.7709,2.5675 4.1718,1.7571 7.356,-3.4537 14.5224,4.3203 16.1168,10.9592 3.8395,15.9869 -11.4143,28.9893 -25.9129,30.9189 -28.3358,3.7712 -49.7745,-22.8846 -51.4858,-49.0239 -2.9405,-44.9145 39.3056,-77.5404 81.277,-78.3332 23.0037,-0.4345 47.0793,6.0013 67.5867,23.282 -6.1129,13.6661 -8.8637,30.4289 -8.9918,45.5964 -0.3865,45.7743 34.3493,91.7934 83.0379,90.0216 29.9167,-1.0887 60.3313,-24.974 56.9963,-57.2155 -1.8054,-17.4537 -17.0323,-35.7397 -36.1825,-31.6291 -8.3579,1.794 -18.0648,10.6216 -13.8552,19.8933 2.183,2.9463 3.109,-0.2499 3.6076,-2.7343 0.687,-8.0974 11.0027,-10.4166 17.5493,-8.478 15.7649,4.6684 19.3984,24.3797 13.8201,37.9007 -10.9019,26.4251 -44.7058,31.6637 -68.1988,20.0761 -40.3673,-19.9107 -47.4992,-72.8099 -27.2,-109.5546 11.1255,-20.139 28.7369,-37.7712 53.9562,-46.8907 8.7788,12.127 21.9204,22.8906 34.9918,30.5853 39.4484,23.2219 96.6701,16.1493 119.4799,-26.9021 14.0156,-26.453 8.5376,-64.7355 -21.0519,-77.968 -16.0181,-7.1633 -39.4676,-3.1195 -45.4828,15.5204 -2.6253,8.1351 0.1661,20.9554 10.3005,21.9456 3.6431,-0.4174 1.338,-2.8174 -0.5642,-4.4914 -6.669,-4.6437 -3.5197,-14.7369 1.4325,-19.4372 11.9253,-11.3185 30.8126,-4.6096 39.733,6.9818 17.4339,22.6539 5.0686,54.5483 -16.713,69.1 -37.4269,25.0038 -86.8048,4.7305 -108.4771,-31.2214 -11.8781,-19.7045 -18.3423,-43.7725 -13.6304,-70.173 14.8916,-1.5395 30.784,-7.5387 43.9835,-15.0115 39.835,-22.5524 62.3208,-75.6441 36.4421,-116.9237 -15.9012,-25.36431 -51.7938,-39.76153 -78.0483,-20.75246 -14.2126,10.29034 -22.4353,32.62016 -9.3003,47.14946 5.7326,6.3411 18.231,10.3338 24.1557,2.0523 1.4601,-3.3637 -1.7709,-2.5675 -4.1718,-1.7571 -7.356,3.4537 -14.5224,-4.3203 -16.1168,-10.9592 -3.8395,-15.98694 11.4143,-28.98934 25.9129,-30.91893 28.3358,-3.77115 49.7745,22.88463 51.4858,49.02393 2.9405,44.9145 -39.3056,77.5404 -81.277,78.3332 -23.0037,0.4345 -47.0793,-6.0013 -67.5869,-23.2819 6.1125,-13.6661 8.8633,-30.4289 8.9914,-45.5964 0.3865,-45.77434 -34.3493,-91.79346 -83.0379,-90.02165 -29.9167,1.08869 -60.3314,24.97398 -56.9963,57.21555 1.8054,17.4537 17.0323,35.7396 36.1825,31.6291 8.3579,-1.7941 18.0648,-10.6217 13.8552,-19.8933 -2.183,-2.9464 -3.109,0.2498 -3.6076,2.7343 -0.687,8.0973 -11.0027,10.4166 -17.5493,8.4779 -15.7649,-4.6683 -19.3984,-24.3797 -13.8202,-37.90065 10.902,-26.42509 44.706,-31.66366 68.1989,-20.07604 40.3673,19.9107 47.4992,72.80989 27.2,109.55459 -11.1255,20.139 -28.7369,37.7712 -53.9561,46.8909 -8.7788,-12.1268 -21.9205,-22.8904 -34.9919,-30.5851 -39.4484,-23.2219 -96.6701,-16.1494 -119.4799,26.902 -14.0155,26.453 -8.5376,64.7356 21.052,77.9681 16.018,7.1633 39.4675,3.1194 45.4828,-15.5204 2.6252,-8.1352 -0.1662,-20.9555 -10.3005,-21.9456 -3.6431,0.4173 -1.3381,2.8173 0.5642,4.4914 6.669,4.6436 3.5197,14.7369 -1.4326,19.4371 -11.9253,11.3186 -30.8126,4.6096 -39.733,-6.9817 -17.4338,-22.654 -5.0686,-54.5483 16.7131,-69.1 37.4268,-25.0038 86.8047,-4.7305 108.477,31.2214 11.8781,19.7045 18.5469,43.983 13.6308,70.1728 z"
       style="fill:none;stroke:#ff2323;stroke-width:4;stroke-linecap:butt;stroke-linejoin:miter;stroke-miterlimit:4;stroke-opacity:1;stroke-dasharray:none;display:inline"
       id="path3120"
       inkscape:connector-curvature="0" />
    <path
       id="path3126"
       style="fill:none;stroke:#ff2323;stroke-width:4;stroke-linecap:butt;stroke-linejoin:miter;stroke-miterlimit:4;stroke-opacity:1;stroke-dasharray:none;display:inline"
       d="m 3037.5214,845.233 c -15.0959,1.3287 -30.7838,7.5384 -43.9833,15.0112 -39.835,22.55241 -62.3208,75.6441 -36.4421,116.92371 15.9012,25.36429 51.7938,39.76149 78.0483,20.75249 14.2126,-10.29039 22.4353,-32.62019 9.3003,-47.14949 -5.7326,-6.3411 -18.231,-10.3338 -24.1557,-2.0523 -1.4601,3.3637 1.7709,2.5675 4.1718,1.7571 7.356,-3.4537 14.5224,4.3203 16.1168,10.9592 3.8395,15.9869 -11.4143,28.9893 -25.9129,30.9189 -28.3358,3.77119 -49.7745,-22.8846 -51.4858,-49.0239 -2.9405,-44.9145 39.3056,-77.5404 81.277,-78.3332 23.0037,-0.4345 47.0793,6.0013 67.5867,23.282 -6.1129,13.6661 -8.8637,30.4289 -8.9918,45.5964 -0.3865,45.7743 34.3493,91.79339 83.0379,90.02159 29.9167,-1.0887 60.3313,-24.974 56.9963,-57.21549 -1.8054,-17.4537 -17.0323,-35.7397 -36.1825,-31.6291 -8.3579,1.794 -18.0648,10.6216 -13.8552,19.8933 2.183,2.9463 3.109,-0.2499 3.6076,-2.7343 0.687,-8.0974 11.0027,-10.4166 17.5493,-8.478 15.7649,4.6684 19.3984,24.3797 13.8201,37.9007 -10.9019,26.42509 -44.7058,31.66369 -68.1988,20.07609 -40.3673,-19.91069 -47.4992,-72.80989 -27.2,-109.55459 11.1255,-20.139 28.7369,-37.7712 53.9562,-46.8907 8.7788,12.127 21.9204,22.8906 34.9918,30.5853 39.4484,23.2219 96.6701,16.1493 119.4799,-26.9021 14.0156,-26.453 8.5376,-64.7355 -21.0519,-77.968 -16.0181,-7.1633 -39.4676,-3.1195 -45.4828,15.5204 -2.6253,8.1351 0.1661,20.9554 10.3005,21.9456 3.6431,-0.4174 1.338,-2.8174 -0.5642,-4.4914 -6.669,-4.6437 -3.5197,-14.7369 1.4325,-19.4372 11.9253,-11.3185 30.8126,-4.6096 39.733,6.9818 17.4339,22.6539 5.0686,54.5483 -16.713,69.1 -37.4269,25.0038 -86.8048,4.7305 -108.4771,-31.2214 -11.8781,-19.7045 -18.3423,-43.7725 -13.6304,-70.173 14.8916,-1.5395 30.784,-7.5387 43.9835,-15.0115 39.835,-22.5524 62.3208,-75.6441 36.4421,-116.9237 -15.9012,-25.36431 -51.7938,-39.76153 -78.0483,-20.75246 -14.2126,10.29034 -22.4353,32.62016 -9.3003,47.14946 5.7326,6.3411 18.231,10.3338 24.1557,2.0523 1.4601,-3.3637 -1.7709,-2.5675 -4.1718,-1.7571 -7.356,3.4537 -14.5224,-4.3203 -16.1168,-10.9592 -3.8395,-15.98694 11.4143,-28.98934 25.9129,-30.91893 28.3358,-3.77115 49.7745,22.88463 51.4858,49.02393 2.9405,44.9145 -39.3056,77.5404 -81.277,78.3332 -23.0037,0.4345 -47.0793,-6.0013 -67.5869,-23.2819 6.1125,-13.6661 8.8633,-30.4289 8.9914,-45.5964 0.3865,-45.77434 -34.3493,-91.79346 -83.0379,-90.02165 -29.9167,1.08869 -60.3314,24.97398 -56.9963,57.21555 1.8054,17.4537 17.0323,35.7396 36.1825,31.6291 8.3579,-1.7941 18.0648,-10.6217 13.8552,-19.8933 -2.183,-2.9464 -3.109,0.2498 -3.6076,2.7343 -0.687,8.0973 -11.0027,10.4166 -17.5493,8.4779 -15.7649,-4.6683 -19.3984,-24.3797 -13.8202,-37.90065 10.902,-26.42509 44.706,-31.66366 68.1989,-20.07604 40.3673,19.9107 47.4992,72.80989 27.2,109.55459 -11.1255,20.139 -28.7369,37.7712 -53.9561,46.8909 -8.7788,-12.1268 -21.9205,-22.8904 -34.9919,-30.5851 -39.4484,-23.2219 -96.6701,-16.1494 -119.4799,26.902 -14.0155,26.453 -8.5376,64.7356 21.052,77.9681 16.018,7.1633 39.4675,3.1194 45.4828,-15.5204 2.6252,-8.1352 -0.1662,-20.9555 -10.3005,-21.9456 -3.6431,0.4173 -1.3381,2.8173 0.5642,4.4914 6.669,4.6436 3.5197,14.7369 -1.4326,19.4371 -11.9253,11.3186 -30.8126,4.6096 -39.733,-6.9817 -17.4338,-22.654 -5.0686,-54.5483 16.7131,-69.1 37.4268,-25.0038 86.8047,-4.7305 108.477,31.2214 11.8781,19.7045 18.5469,43.983 13.6308,70.1728 z"
       sodipodi:nodetypes="cssssccsssscssssccsssscssssccsssscssssccsssscssssccsssscssssccssssc"
       inkscape:connector-curvature="0" />
  </g>
  <g
     inkscape:groupmode="layer"
     id="layer3"
     inkscape:label="3-blue"
     style="display:inline"
     transform="translate(0,-200)">
    <path
       sodipodi:nodetypes="cssssccsssscssssccsssscssssccsssscssssccsssscssssccsssscssssccssssc"
       d="m 547.06885,792.87082 c -15.0959,1.3287 -30.7838,7.5384 -43.9833,15.0112 -39.835,22.55241 -62.3208,75.6441 -36.4421,116.92371 15.9012,25.36429 51.7938,39.76149 78.0483,20.7525 14.2126,-10.2904 22.4353,-32.6202 9.3003,-47.1495 -5.7326,-6.3411 -18.231,-10.3338 -24.1557,-2.0523 -1.4601,3.3637 1.7709,2.5675 4.1718,1.7571 7.356,-3.4537 14.5224,4.3203 16.1168,10.9592 3.8395,15.9869 -11.4143,28.9893 -25.9129,30.9189 -28.3358,3.7712 -49.7745,-22.8846 -51.4858,-49.0239 -2.9405,-44.9145 39.3056,-77.5404 81.277,-78.3332 23.0037,-0.4345 47.0793,6.0013 67.5867,23.282 -6.1129,13.6661 -8.8637,30.4289 -8.9918,45.5964 -0.3865,45.7743 34.3493,91.7934 83.0379,90.0216 29.9167,-1.0887 60.3313,-24.974 56.9963,-57.2155 -1.8054,-17.4537 -17.0323,-35.7397 -36.1825,-31.6291 -8.3579,1.794 -18.0648,10.6216 -13.8552,19.8933 2.183,2.9463 3.109,-0.2499 3.6076,-2.7343 0.687,-8.0974 11.0027,-10.4166 17.5493,-8.478 15.7649,4.6684 19.3984,24.3797 13.8201,37.9007 -10.9019,26.4251 -44.7058,31.6637 -68.1988,20.0761 -40.3673,-19.9107 -47.4992,-72.8099 -27.2,-109.5546 11.1255,-20.139 28.7369,-37.7712 53.9562,-46.8907 8.7788,12.127 21.9204,22.8906 34.9918,30.5853 39.4484,23.2219 96.6701,16.1493 119.4799,-26.9021 14.01563,-26.453 8.53763,-64.7355 -21.0519,-77.968 -16.0181,-7.1633 -39.4676,-3.1195 -45.4828,15.5204 -2.6253,8.1351 0.1661,20.9554 10.3005,21.9456 3.6431,-0.4174 1.338,-2.8174 -0.5642,-4.4914 -6.669,-4.6437 -3.5197,-14.7369 1.4325,-19.4372 11.9253,-11.3185 30.8126,-4.6096 39.733,6.9818 17.43393,22.6539 5.0686,54.5483 -16.713,69.1 -37.4269,25.0038 -86.8048,4.7305 -108.4771,-31.2214 -11.8781,-19.7045 -18.3423,-43.7725 -13.6304,-70.173 14.8916,-1.5395 30.784,-7.5387 43.9835,-15.0115 39.835,-22.5524 62.3208,-75.6441 36.4421,-116.9237 -15.9012,-25.36431 -51.7938,-39.76153 -78.0483,-20.75246 -14.2126,10.29034 -22.4353,32.62016 -9.3003,47.14946 5.7326,6.3411 18.231,10.3338 24.1557,2.0523 1.4601,-3.3637 -1.7709,-2.5675 -4.1718,-1.7571 -7.356,3.4537 -14.5224,-4.3203 -16.1168,-10.9592 -3.8395,-15.98694 11.4143,-28.98934 25.9129,-30.91893 28.3358,-3.77115 49.7745,22.88463 51.4858,49.02393 2.9405,44.9145 -39.3056,77.5404 -81.277,78.3332 -23.0037,0.4345 -47.0793,-6.0013 -67.5869,-23.2819 6.1125,-13.6661 8.8633,-30.4289 8.9914,-45.5964 0.3865,-45.77434 -34.3493,-91.79346 -83.0379,-90.02165 -29.9167,1.08869 -60.3314,24.97398 -56.9963,57.21555 1.8054,17.4537 17.0323,35.7396 36.1825,31.6291 8.3579,-1.7941 18.0648,-10.6217 13.8552,-19.8933 -2.183,-2.9464 -3.109,0.2498 -3.6076,2.7343 -0.687,8.0973 -11.0027,10.4166 -17.5493,8.4779 -15.7649,-4.6683 -19.3984,-24.3797 -13.8202,-37.90065 10.902,-26.42509 44.706,-31.66366 68.1989,-20.07604 40.3673,19.9107 47.4992,72.80989 27.2,109.55459 -11.1255,20.139 -28.7369,37.7712 -53.9561,46.8909 -8.7788,-12.1268 -21.9205,-22.8904 -34.9919,-30.5851 -39.4484,-23.2219 -96.6701,-16.1494 -119.4799,26.902 -14.0155,26.453 -8.5376,64.7356 21.052,77.9681 16.018,7.1633 39.4675,3.1194 45.4828,-15.5204 2.6252,-8.1352 -0.1662,-20.9555 -10.3005,-21.9456 -3.6431,0.4173 -1.3381,2.8173 0.5642,4.4914 6.669,4.6436 3.5197,14.7369 -1.4326,19.4371 -11.9253,11.3186 -30.8126,4.6096 -39.733,-6.9817 -17.4338,-22.654 -5.0686,-54.5483 16.7131,-69.1 37.4268,-25.0038 86.8047,-4.7305 108.477,31.2214 11.8781,19.7045 18.5469,43.983 13.6308,70.1728 z"
       style="fill:none;stroke:#310fff;stroke-width:4;stroke-linecap:butt;stroke-linejoin:miter;stroke-miterlimit:4;stroke-opacity:1;stroke-dasharray:none;display:inline"
       id="path3096"
       inkscape:connector-curvature="0" />
    <path
       id="path3104"
       style="fill:none;stroke:#310fff;stroke-width:4;stroke-linecap:butt;stroke-linejoin:miter;stroke-miterlimit:4;stroke-opacity:1;stroke-dasharray:none;display:inline"
       d="m 1080.7373,485.15782 c -15.0959,1.32871 -30.7838,7.53841 -43.9833,15.0112 -39.83502,22.5524 -62.32082,75.6441 -36.4421,116.9237 15.9012,25.3643 51.7938,39.7615 78.0483,20.7525 14.2126,-10.2904 22.4353,-32.6202 9.3003,-47.1495 -5.7326,-6.3411 -18.231,-10.3338 -24.1557,-2.0523 -1.4601,3.3637 1.7709,2.5675 4.1718,1.7571 7.356,-3.4537 14.5224,4.3203 16.1168,10.9592 3.8395,15.9869 -11.4143,28.9893 -25.9129,30.9189 -28.3358,3.7712 -49.7745,-22.8846 -51.4858,-49.0239 -2.9405,-44.9145 39.3056,-77.5404 81.277,-78.3332 23.0037,-0.4345 47.0793,6.0013 67.5867,23.282 -6.1129,13.6661 -8.8637,30.4289 -8.9918,45.5964 -0.3865,45.7743 34.3493,91.7934 83.0379,90.0216 29.9167,-1.0887 60.3313,-24.974 56.9963,-57.2155 -1.8054,-17.4537 -17.0323,-35.7397 -36.1825,-31.6291 -8.3579,1.794 -18.0648,10.6216 -13.8552,19.8933 2.183,2.9463 3.109,-0.2499 3.6076,-2.7343 0.687,-8.0974 11.0027,-10.4166 17.5493,-8.478 15.7649,4.6684 19.3984,24.3797 13.8201,37.9007 -10.9019,26.4251 -44.7058,31.6637 -68.1988,20.0761 -40.3673,-19.9107 -47.4992,-72.8099 -27.2,-109.5546 11.1255,-20.139 28.7369,-37.7712 53.9562,-46.8907 8.7788,12.127 21.9204,22.8906 34.9918,30.5853 39.4484,23.2219 96.6701,16.1493 119.4799,-26.9021 14.0156,-26.453 8.5376,-64.7355 -21.0519,-77.968 -16.0181,-7.1633 -39.4676,-3.1195 -45.4828,15.5204 -2.6253,8.1351 0.1661,20.9554 10.3005,21.9456 3.6431,-0.4174 1.338,-2.8174 -0.5642,-4.4914 -6.669,-4.6437 -3.5197,-14.7369 1.4325,-19.4372 11.9253,-11.3185 30.8126,-4.6096 39.733,6.9818 17.4339,22.6539 5.0686,54.5483 -16.713,69.1 -37.4269,25.0038 -86.8048,4.7305 -108.4771,-31.2214 -11.8781,-19.7045 -18.3423,-43.7725 -13.6304,-70.173 14.8916,-1.5395 30.784,-7.5387 43.9835,-15.0115 39.835,-22.5524 62.3208,-75.6441 36.4421,-116.9237 -15.9012,-25.36431 -51.7938,-39.76153 -78.0483,-20.75246 -14.2126,10.29034 -22.4353,32.62016 -9.3003,47.14946 5.7326,6.3411 18.231,10.3338 24.1557,2.0523 1.4601,-3.3637 -1.7709,-2.5675 -4.1718,-1.7571 -7.356,3.4537 -14.5224,-4.3203 -16.1168,-10.9592 -3.8395,-15.98694 11.4143,-28.98934 25.9129,-30.91893 28.3358,-3.77115 49.7745,22.88463 51.4858,49.02393 2.9405,44.9145 -39.3056,77.5404 -81.277,78.3332 -23.0037,0.4345 -47.0793,-6.0013 -67.5869,-23.2819 6.1125,-13.6661 8.8633,-30.4289 8.9914,-45.5964 0.3865,-45.77434 -34.3493,-91.79346 -83.0379,-90.02165 -29.9167,1.08869 -60.3314,24.97398 -56.9963,57.21555 1.8054,17.4537 17.0323,35.7396 36.1825,31.6291 8.3579,-1.7941 18.0648,-10.6217 13.8552,-19.8933 -2.183,-2.9464 -3.109,0.2498 -3.6076,2.7343 -0.687,8.0973 -11.0027,10.4166 -17.5493,8.4779 -15.7649,-4.6683 -19.3984,-24.3797 -13.8202,-37.90065 10.902,-26.42509 44.706,-31.66366 68.1989,-20.07604 40.3673,19.9107 47.4992,72.80989 27.2,109.55459 -11.1255,20.139 -28.7369,37.7712 -53.9561,46.8909 -8.7788,-12.1268 -21.9205,-22.8904 -34.9919,-30.5851 -39.4484,-23.2219 -96.67012,-16.1494 -119.47992,26.902 -14.0155,26.453 -8.5376,64.7356 21.052,77.9681 16.018,7.1633 39.4675,3.1194 45.4828,-15.5204 2.6252,-8.1352 -0.1662,-20.9555 -10.3005,-21.9456 -3.6431,0.4173 -1.3381,2.8173 0.5642,4.4914 6.669,4.6436 3.5197,14.7369 -1.4326,19.4371 -11.9253,11.3186 -30.8126,4.6096 -39.733,-6.9817 -17.4338,-22.654 -5.0686,-54.5483 16.7131,-69.1 37.4268,-25.0038 86.80472,-4.7305 108.47702,31.2214 11.8781,19.7045 18.5469,43.983 13.6308,70.1728 z"
       sodipodi:nodetypes="cssssccsssscssssccsssscssssccsssscssssccsssscssssccsssscssssccssssc"
       inkscape:connector-curvature="0" />
    <path
       sodipodi:nodetypes="cssssccsssscssssccsssscssssccsssscssssccsssscssssccsssscssssccssssc"
       d="m 1614.4057,792.87082 c -15.0959,1.3287 -30.7838,7.5384 -43.9833,15.0112 -39.8351,22.55241 -62.3209,75.6441 -36.4422,116.92371 15.9013,25.36429 51.7939,39.76149 78.0484,20.7525 14.2126,-10.2904 22.4353,-32.6202 9.3003,-47.1495 -5.7326,-6.3411 -18.231,-10.3338 -24.1557,-2.0523 -1.4601,3.3637 1.7709,2.5675 4.1718,1.7571 7.356,-3.4537 14.5224,4.3203 16.1168,10.9592 3.8395,15.9869 -11.4143,28.9893 -25.9129,30.9189 -28.3358,3.7712 -49.7746,-22.8846 -51.4859,-49.0239 -2.9405,-44.9145 39.3057,-77.5404 81.2771,-78.3332 23.0037,-0.4345 47.0793,6.0013 67.5867,23.282 -6.1129,13.6661 -8.8637,30.4289 -8.9918,45.5964 -0.3865,45.7743 34.3493,91.7934 83.0379,90.0216 29.9167,-1.0887 60.3313,-24.974 56.9963,-57.2155 -1.8054,-17.4537 -17.0323,-35.7397 -36.1825,-31.6291 -8.3579,1.794 -18.0648,10.6216 -13.8552,19.8933 2.183,2.9463 3.109,-0.2499 3.6076,-2.7343 0.687,-8.0974 11.0027,-10.4166 17.5493,-8.478 15.7649,4.6684 19.3984,24.3797 13.8201,37.9007 -10.9019,26.4251 -44.7058,31.6637 -68.1988,20.0761 -40.3673,-19.9107 -47.4992,-72.8099 -27.2,-109.5546 11.1255,-20.139 28.7369,-37.7712 53.9562,-46.8907 8.7788,12.127 21.9204,22.8906 34.9918,30.5853 39.4484,23.2219 96.6701,16.1493 119.4799,-26.9021 14.0156,-26.453 8.5376,-64.7355 -21.0519,-77.968 -16.0181,-7.1633 -39.4676,-3.1195 -45.4828,15.5204 -2.6253,8.1351 0.1661,20.9554 10.3005,21.9456 3.6431,-0.4174 1.338,-2.8174 -0.5642,-4.4914 -6.669,-4.6437 -3.5197,-14.7369 1.4325,-19.4372 11.9253,-11.3185 30.8126,-4.6096 39.733,6.9818 17.4339,22.6539 5.0686,54.5483 -16.713,69.1 -37.4269,25.0038 -86.8048,4.7305 -108.4771,-31.2214 -11.8781,-19.7045 -18.3423,-43.7725 -13.6304,-70.173 14.8916,-1.5395 30.784,-7.5387 43.9835,-15.0115 39.835,-22.5524 62.3208,-75.6441 36.4421,-116.9237 -15.9012,-25.36431 -51.7938,-39.76153 -78.0483,-20.75246 -14.2126,10.29034 -22.4353,32.62016 -9.3003,47.14946 5.7326,6.3411 18.231,10.3338 24.1557,2.0523 1.4601,-3.3637 -1.7709,-2.5675 -4.1718,-1.7571 -7.356,3.4537 -14.5224,-4.3203 -16.1168,-10.9592 -3.8395,-15.98694 11.4143,-28.98934 25.9129,-30.91893 28.3358,-3.77115 49.7745,22.88463 51.4858,49.02393 2.9405,44.9145 -39.3056,77.5404 -81.277,78.3332 -23.0037,0.4345 -47.0793,-6.0013 -67.5869,-23.2819 6.1125,-13.6661 8.8633,-30.4289 8.9914,-45.5964 0.3865,-45.77434 -34.3493,-91.79346 -83.0379,-90.02165 -29.9167,1.08869 -60.3314,24.97398 -56.9963,57.21555 1.8054,17.4537 17.0323,35.7396 36.1825,31.6291 8.3579,-1.7941 18.0648,-10.6217 13.8552,-19.8933 -2.183,-2.9464 -3.109,0.2498 -3.6076,2.7343 -0.687,8.0973 -11.0027,10.4166 -17.5493,8.4779 -15.7649,-4.6683 -19.3984,-24.3797 -13.8202,-37.90065 10.902,-26.42509 44.706,-31.66366 68.1989,-20.07604 40.3673,19.9107 47.4992,72.80989 27.2,109.55459 -11.1255,20.139 -28.7369,37.7712 -53.9561,46.8909 -8.7788,-12.1268 -21.9205,-22.8904 -34.9919,-30.5851 -39.4485,-23.2219 -96.6702,-16.1494 -119.48,26.902 -14.0155,26.453 -8.5376,64.7356 21.052,77.9681 16.018,7.1633 39.4675,3.1194 45.4828,-15.5204 2.6252,-8.1352 -0.1662,-20.9555 -10.3005,-21.9456 -3.6431,0.4173 -1.3381,2.8173 0.5642,4.4914 6.669,4.6436 3.5197,14.7369 -1.4326,19.4371 -11.9253,11.3186 -30.8126,4.6096 -39.733,-6.9817 -17.4338,-22.654 -5.0686,-54.5483 16.7131,-69.1 37.4268,-25.0038 86.8048,-4.7305 108.4771,31.2214 11.8781,19.7045 18.5469,43.983 13.6308,70.1728 z"
       style="fill:none;stroke:#310fff;stroke-width:4;stroke-linecap:butt;stroke-linejoin:miter;stroke-miterlimit:4;stroke-opacity:1;stroke-dasharray:none;display:inline"
       id="path3110"
       inkscape:connector-curvature="0" />
    <path
       id="path3116"
       style="fill:none;stroke:#310fff;stroke-width:4;stroke-linecap:butt;stroke-linejoin:miter;stroke-miterlimit:4;stroke-opacity:1;stroke-dasharray:none;display:inline"
       d="m 2148.0741,485.15782 c -15.0959,1.32871 -30.7838,7.53841 -43.9833,15.0112 -39.8351,22.5524 -62.3209,75.6441 -36.4422,116.9237 15.9013,25.3643 51.7939,39.7615 78.0484,20.7525 14.2126,-10.2904 22.4353,-32.6202 9.3003,-47.1495 -5.7326,-6.3411 -18.231,-10.3338 -24.1557,-2.0523 -1.4601,3.3637 1.7709,2.5675 4.1718,1.7571 7.356,-3.4537 14.5224,4.3203 16.1168,10.9592 3.8395,15.9869 -11.4143,28.9893 -25.9129,30.9189 -28.3358,3.7712 -49.7746,-22.8846 -51.4859,-49.0239 -2.9405,-44.9145 39.3057,-77.5404 81.2771,-78.3332 23.0037,-0.4345 47.0793,6.0013 67.5867,23.282 -6.1129,13.6661 -8.8637,30.4289 -8.9918,45.5964 -0.3865,45.7743 34.3493,91.7934 83.0379,90.0216 29.9167,-1.0887 60.3313,-24.974 56.9963,-57.2155 -1.8054,-17.4537 -17.0323,-35.7397 -36.1825,-31.6291 -8.3579,1.794 -18.0648,10.6216 -13.8552,19.8933 2.183,2.9463 3.109,-0.2499 3.6076,-2.7343 0.687,-8.0974 11.0027,-10.4166 17.5493,-8.478 15.7649,4.6684 19.3984,24.3797 13.8201,37.9007 -10.9019,26.4251 -44.7058,31.6637 -68.1988,20.0761 -40.3673,-19.9107 -47.4992,-72.8099 -27.2,-109.5546 11.1255,-20.139 28.7369,-37.7712 53.9562,-46.8907 8.7788,12.127 21.9204,22.8906 34.9918,30.5853 39.4484,23.2219 96.6701,16.1493 119.4799,-26.9021 14.0156,-26.453 8.5376,-64.7355 -21.0519,-77.968 -16.0181,-7.1633 -39.4676,-3.1195 -45.4828,15.5204 -2.6253,8.1351 0.1661,20.9554 10.3005,21.9456 3.6431,-0.4174 1.338,-2.8174 -0.5642,-4.4914 -6.669,-4.6437 -3.5197,-14.7369 1.4325,-19.4372 11.9253,-11.3185 30.8126,-4.6096 39.733,6.9818 17.4339,22.6539 5.0686,54.5483 -16.713,69.1 -37.4269,25.0038 -86.8048,4.7305 -108.4771,-31.2214 -11.8781,-19.7045 -18.3423,-43.7725 -13.6304,-70.173 14.8916,-1.5395 30.784,-7.5387 43.9835,-15.0115 39.835,-22.5524 62.3208,-75.6441 36.4421,-116.9237 -15.9012,-25.36431 -51.7938,-39.76153 -78.0483,-20.75246 -14.2126,10.29034 -22.4353,32.62016 -9.3003,47.14946 5.7326,6.3411 18.231,10.3338 24.1557,2.0523 1.4601,-3.3637 -1.7709,-2.5675 -4.1718,-1.7571 -7.356,3.4537 -14.5224,-4.3203 -16.1168,-10.9592 -3.8395,-15.98694 11.4143,-28.98934 25.9129,-30.91893 28.3358,-3.77115 49.7745,22.88463 51.4858,49.02393 2.9405,44.9145 -39.3056,77.5404 -81.277,78.3332 -23.0037,0.4345 -47.0793,-6.0013 -67.5869,-23.2819 6.1125,-13.6661 8.8633,-30.4289 8.9914,-45.5964 0.3865,-45.77434 -34.3493,-91.79346 -83.0379,-90.02165 -29.9167,1.08869 -60.3314,24.97398 -56.9963,57.21555 1.8054,17.4537 17.0323,35.7396 36.1825,31.6291 8.3579,-1.7941 18.0648,-10.6217 13.8552,-19.8933 -2.183,-2.9464 -3.109,0.2498 -3.6076,2.7343 -0.687,8.0973 -11.0027,10.4166 -17.5493,8.4779 -15.7649,-4.6683 -19.3984,-24.3797 -13.8202,-37.90065 10.902,-26.42509 44.706,-31.66366 68.1989,-20.07604 40.3673,19.9107 47.4992,72.80989 27.2,109.55459 -11.1255,20.139 -28.7369,37.7712 -53.9561,46.8909 -8.7788,-12.1268 -21.9205,-22.8904 -34.9919,-30.5851 -39.4485,-23.2219 -96.6702,-16.1494 -119.48,26.902 -14.0155,26.453 -8.5376,64.7356 21.052,77.9681 16.018,7.1633 39.4675,3.1194 45.4828,-15.5204 2.6252,-8.1352 -0.1662,-20.9555 -10.3005,-21.9456 -3.6431,0.4173 -1.3381,2.8173 0.5642,4.4914 6.669,4.6436 3.5197,14.7369 -1.4326,19.4371 -11.9253,11.3186 -30.8126,4.6096 -39.733,-6.9817 -17.4338,-22.654 -5.0686,-54.5483 16.7131,-69.1 37.4268,-25.0038 86.8048,-4.7305 108.4771,31.2214 11.8781,19.7045 18.5469,43.983 13.6308,70.1728 z"
       sodipodi:nodetypes="cssssccsssscssssccsssscssssccsssscssssccsssscssssccsssscssssccssssc"
       inkscape:connector-curvature="0" />
    <path
       sodipodi:nodetypes="cssssccsssscssssccsssscssssccsssscssssccsssscssssccsssscssssccssssc"
       d="m 2681.7424,792.87082 c -15.0959,1.3287 -30.7838,7.5384 -43.9833,15.0112 -39.8351,22.55241 -62.3209,75.6441 -36.4422,116.92371 15.9013,25.36429 51.7939,39.76149 78.0484,20.7525 14.2126,-10.2904 22.4353,-32.6202 9.3003,-47.1495 -5.7326,-6.3411 -18.231,-10.3338 -24.1557,-2.0523 -1.4601,3.3637 1.7709,2.5675 4.1718,1.7571 7.356,-3.4537 14.5224,4.3203 16.1168,10.9592 3.8395,15.9869 -11.4143,28.9893 -25.9129,30.9189 -28.3358,3.7712 -49.7746,-22.8846 -51.4859,-49.0239 -2.9405,-44.9145 39.3057,-77.5404 81.2771,-78.3332 23.0037,-0.4345 47.0793,6.0013 67.5867,23.282 -6.1129,13.6661 -8.8637,30.4289 -8.9918,45.5964 -0.3865,45.7743 34.3493,91.7934 83.0379,90.0216 29.9167,-1.0887 60.3313,-24.974 56.9963,-57.2155 -1.8054,-17.4537 -17.0323,-35.7397 -36.1825,-31.6291 -8.3579,1.794 -18.0648,10.6216 -13.8552,19.8933 2.183,2.9463 3.109,-0.2499 3.6076,-2.7343 0.687,-8.0974 11.0027,-10.4166 17.5493,-8.478 15.7649,4.6684 19.3984,24.3797 13.8201,37.9007 -10.9019,26.4251 -44.7058,31.6637 -68.1988,20.0761 -40.3673,-19.9107 -47.4992,-72.8099 -27.2,-109.5546 11.1255,-20.139 28.7369,-37.7712 53.9562,-46.8907 8.7788,12.127 21.9204,22.8906 34.9918,30.5853 39.4484,23.2219 96.6701,16.1493 119.4799,-26.9021 14.0156,-26.453 8.5376,-64.7355 -21.0519,-77.968 -16.0181,-7.1633 -39.4676,-3.1195 -45.4828,15.5204 -2.6253,8.1351 0.1661,20.9554 10.3005,21.9456 3.6431,-0.4174 1.338,-2.8174 -0.5642,-4.4914 -6.669,-4.6437 -3.5197,-14.7369 1.4325,-19.4372 11.9253,-11.3185 30.8126,-4.6096 39.733,6.9818 17.4339,22.6539 5.0686,54.5483 -16.713,69.1 -37.4269,25.0038 -86.8048,4.7305 -108.4771,-31.2214 -11.8781,-19.7045 -18.3423,-43.7725 -13.6304,-70.173 14.8916,-1.5395 30.784,-7.5387 43.9835,-15.0115 39.835,-22.5524 62.3208,-75.6441 36.4421,-116.9237 -15.9012,-25.36431 -51.7938,-39.76153 -78.0483,-20.75246 -14.2126,10.29034 -22.4353,32.62016 -9.3003,47.14946 5.7326,6.3411 18.231,10.3338 24.1557,2.0523 1.4601,-3.3637 -1.7709,-2.5675 -4.1718,-1.7571 -7.356,3.4537 -14.5224,-4.3203 -16.1168,-10.9592 -3.8395,-15.98694 11.4143,-28.98934 25.9129,-30.91893 28.3358,-3.77115 49.7745,22.88463 51.4858,49.02393 2.9405,44.9145 -39.3056,77.5404 -81.277,78.3332 -23.0037,0.4345 -47.0793,-6.0013 -67.5869,-23.2819 6.1125,-13.6661 8.8633,-30.4289 8.9914,-45.5964 0.3865,-45.77434 -34.3493,-91.79346 -83.0379,-90.02165 -29.9167,1.08869 -60.3314,24.97398 -56.9963,57.21555 1.8054,17.4537 17.0323,35.7396 36.1825,31.6291 8.3579,-1.7941 18.0648,-10.6217 13.8552,-19.8933 -2.183,-2.9464 -3.109,0.2498 -3.6076,2.7343 -0.687,8.0973 -11.0027,10.4166 -17.5493,8.4779 -15.7649,-4.6683 -19.3984,-24.3797 -13.8202,-37.90065 10.902,-26.42509 44.706,-31.66366 68.1989,-20.07604 40.3673,19.9107 47.4992,72.80989 27.2,109.55459 -11.1255,20.139 -28.7369,37.7712 -53.9561,46.8909 -8.7788,-12.1268 -21.9205,-22.8904 -34.9919,-30.5851 -39.4485,-23.2219 -96.6702,-16.1494 -119.48,26.902 -14.0155,26.453 -8.5376,64.7356 21.052,77.9681 16.018,7.1633 39.4675,3.1194 45.4828,-15.5204 2.6252,-8.1352 -0.1662,-20.9555 -10.3005,-21.9456 -3.6431,0.4173 -1.3381,2.8173 0.5642,4.4914 6.669,4.6436 3.5197,14.7369 -1.4326,19.4371 -11.9253,11.3186 -30.8126,4.6096 -39.733,-6.9817 -17.4338,-22.654 -5.0686,-54.5483 16.7131,-69.1 37.4268,-25.0038 86.8048,-4.7305 108.4771,31.2214 11.8781,19.7045 18.5469,43.983 13.6308,70.1728 z"
       style="fill:none;stroke:#310fff;stroke-width:4;stroke-linecap:butt;stroke-linejoin:miter;stroke-miterlimit:4;stroke-opacity:1;stroke-dasharray:none;display:inline"
       id="path3122"
       inkscape:connector-curvature="0" />
    <path
       id="path3128"
       style="fill:none;stroke:#310fff;stroke-width:4;stroke-linecap:butt;stroke-linejoin:miter;stroke-miterlimit:4;stroke-opacity:1;stroke-dasharray:none;display:inline"
       d="m 13.400481,485.15782 c -15.0959,1.32871 -30.7838,7.53841 -43.9833,15.0112 -39.835003,22.5524 -62.3208,75.6441 -36.442103,116.9237 15.9012,25.3643 51.793803,39.7615 78.048303,20.7525 14.2126,-10.2904 22.4353,-32.6202 9.3003,-47.1495 -5.7326,-6.3411 -18.231,-10.3338 -24.1557,-2.0523 -1.4601,3.3637 1.7709,2.5675 4.1718,1.7571 7.356,-3.4537 14.5224,4.3203 16.1168,10.9592 3.8395,15.9869 -11.4143,28.9893 -25.9129,30.9189 -28.3358,3.7712 -49.774503,-22.8846 -51.485803,-49.0239 -2.9405,-44.9145 39.305603,-77.5404 81.277003,-78.3332 23.0037,-0.4345 47.0793,6.0013 67.5867,23.282 -6.1129,13.6661 -8.8637,30.4289 -8.9918,45.5964 -0.3865,45.7743 34.349299,91.7934 83.037899,90.0216 29.9167,-1.0887 60.3313,-24.974 56.9963,-57.2155 -1.8054,-17.4537 -17.0323,-35.7397 -36.1825,-31.6291 -8.3579,1.794 -18.0648,10.6216 -13.8552,19.8933 2.183,2.9463 3.109,-0.2499 3.6076,-2.7343 0.687,-8.0974 11.0027,-10.4166 17.5493,-8.478 15.7649,4.6684 19.3984,24.3797 13.8201,37.9007 -10.9019,26.4251 -44.7058,31.6637 -68.1988,20.0761 -40.367299,-19.9107 -47.499199,-72.8099 -27.2,-109.5546 11.1255,-20.139 28.7369,-37.7712 53.9562,-46.8907 8.7788,12.127 21.9204,22.8906 34.9918,30.5853 39.4484,23.2219 96.6701,16.1493 119.4799,-26.9021 14.0156,-26.453 8.5376,-64.7355 -21.0519,-77.968 -16.0181,-7.1633 -39.4676,-3.1195 -45.4828,15.5204 -2.6253,8.1351 0.1661,20.9554 10.3005,21.9456 3.6431,-0.4174 1.338,-2.8174 -0.5642,-4.4914 -6.669,-4.6437 -3.5197,-14.7369 1.4325,-19.4372 11.9253,-11.3185 30.8126,-4.6096 39.733,6.9818 17.4339,22.6539 5.0686,54.5483 -16.713,69.1 -37.4269,25.0038 -86.8048,4.7305 -108.4771,-31.2214 -11.8781,-19.7045 -18.3423,-43.7725 -13.6304,-70.173 14.8916,-1.5395 30.784,-7.5387 43.9835,-15.0115 39.835,-22.5524 62.3208,-75.6441 36.4421,-116.9237 -15.9012,-25.36431 -51.7938,-39.76153 -78.0483,-20.75246 -14.2126,10.29034 -22.4353,32.62016 -9.3003,47.14946 5.7326,6.3411 18.231,10.3338 24.1557,2.0523 1.4601,-3.3637 -1.7709,-2.5675 -4.1718,-1.7571 -7.356,3.4537 -14.5224,-4.3203 -16.1168,-10.9592 -3.8395,-15.98694 11.4143,-28.98934 25.9129,-30.91893 28.3358,-3.77115 49.7745,22.88463 51.4858,49.02393 2.9405,44.9145 -39.3056,77.5404 -81.277,78.3332 -23.0037,0.4345 -47.0793,-6.0013 -67.586899,-23.2819 6.1125,-13.6661 8.8633,-30.4289 8.9914,-45.5964 0.3865,-45.77433 -34.3493,-91.79346 -83.0379,-90.02165 -29.9167,1.08869 -60.3314,24.97398 -56.9963,57.21555 1.8054,17.4537 17.0323,35.7396 36.1825,31.6291 8.3579,-1.79409 18.0648,-10.6217 13.8552,-19.8933 -2.183,-2.9464 -3.109,0.2498 -3.6076,2.7343 -0.687,8.0973 -11.0027,10.4166 -17.5493,8.4779 -15.7649,-4.6683 -19.3984,-24.3797 -13.8202,-37.90065 10.902,-26.42509 44.706,-31.66366 68.1989,-20.07604 40.3673,19.9107 47.4992,72.80989 27.2,109.55459 -11.1255,20.139 -28.7369,37.7712 -53.9561,46.8909 -8.7788,-12.1268 -21.9205,-22.8904 -34.9919,-30.5851 -39.448403,-23.2219 -96.670101,-16.14939 -119.479901,26.90201 -14.0155,26.45299 -8.5376,64.73559 21.052,77.9681 16.018,7.1633 39.467498,3.11939 45.482798,-15.5204 2.6252,-8.1352 -0.1662,-20.9555 -10.3005,-21.9456 -3.643097,0.4173 -1.3381,2.81729 0.5642,4.4914 6.669,4.64359 3.5197,14.73689 -1.4326,19.43709 -11.925297,11.3186 -30.812598,4.6096 -39.732998,-6.98169 -17.4338,-22.654 -5.0686,-54.5483 16.7131,-69.10001 37.426798,-25.0038 86.804701,-4.7305 108.477001,31.2214 11.8781,19.7045 18.5469,43.983 13.6308,70.1728 z"
       sodipodi:nodetypes="cssssccsssscssssccsssscssssccsssscssssccsssscssssccsssscssssccssssc"
       inkscape:connector-curvature="0" />
  </g>
  <g
     inkscape:groupmode="layer"
     id="layer2"
     inkscape:label="2-black"
     style="display:inline"
     transform="translate(0,-200)">
    <path
       id="path3087"
       style="fill:none;stroke:#000000;stroke-width:4;stroke-linecap:butt;stroke-linejoin:miter;stroke-miterlimit:4;stroke-opacity:1;stroke-dasharray:none;display:inline"
       d="m 191.28994,792.87082 c -15.0959,1.3287 -30.7838,7.5384 -43.9833,15.0112 -39.835,22.55241 -62.320799,75.6441 -36.4421,116.92371 15.9012,25.36429 51.7938,39.76149 78.0483,20.7525 14.2126,-10.2904 22.4353,-32.6202 9.3003,-47.1495 -5.7326,-6.3411 -18.231,-10.3338 -24.1557,-2.0523 -1.4601,3.3637 1.7709,2.5675 4.1718,1.7571 7.356,-3.4537 14.5224,4.3203 16.1168,10.9592 3.8395,15.9869 -11.4143,28.9893 -25.9129,30.9189 -28.3358,3.7712 -49.7745,-22.8846 -51.4858,-49.0239 -2.9405,-44.9145 39.3056,-77.5404 81.277,-78.3332 23.0037,-0.4345 47.0793,6.0013 67.5867,23.282 -6.1129,13.6661 -8.8637,30.4289 -8.9918,45.5964 -0.3865,45.7743 34.3493,91.7934 83.0379,90.0216 29.9167,-1.0887 60.3313,-24.974 56.9963,-57.2155 -1.8054,-17.4537 -17.0323,-35.7397 -36.1825,-31.6291 -8.3579,1.794 -18.0648,10.6216 -13.8552,19.8933 2.183,2.9463 3.109,-0.2499 3.6076,-2.7343 0.687,-8.0974 11.0027,-10.4166 17.5493,-8.478 15.7649,4.6684 19.3984,24.3797 13.8201,37.9007 -10.9019,26.4251 -44.7058,31.6637 -68.1988,20.0761 -40.3673,-19.9107 -47.4992,-72.8099 -27.2,-109.5546 11.1255,-20.139 28.7369,-37.7712 53.9562,-46.8907 8.7788,12.127 21.9204,22.8906 34.9918,30.5853 39.4484,23.2219 96.6701,16.1493 119.4799,-26.9021 14.0156,-26.453 8.5376,-64.7355 -21.0519,-77.968 -16.0181,-7.1633 -39.4676,-3.1195 -45.4828,15.5204 -2.6253,8.1351 0.1661,20.9554 10.3005,21.9456 3.6431,-0.4174 1.338,-2.8174 -0.5642,-4.4914 -6.669,-4.6437 -3.5197,-14.7369 1.4325,-19.4372 11.9253,-11.3185 30.8126,-4.6096 39.733,6.9818 17.4339,22.6539 5.0686,54.5483 -16.713,69.1 -37.4269,25.0038 -86.8048,4.7305 -108.4771,-31.2214 -11.8781,-19.7045 -18.3423,-43.7725 -13.6304,-70.173 14.8916,-1.5395 30.784,-7.5387 43.9835,-15.0115 39.835,-22.5524 62.3208,-75.6441 36.4421,-116.9237 -15.9012,-25.36431 -51.7938,-39.76153 -78.0483,-20.75246 -14.2126,10.29034 -22.4353,32.62016 -9.3003,47.14946 5.7326,6.3411 18.231,10.3338 24.1557,2.0523 1.4601,-3.3637 -1.7709,-2.5675 -4.1718,-1.7571 -7.356,3.4537 -14.5224,-4.3203 -16.1168,-10.9592 -3.8395,-15.98694 11.4143,-28.98934 25.9129,-30.91893 28.3358,-3.77115 49.7745,22.88463 51.4858,49.02393 2.9405,44.9145 -39.3056,77.5404 -81.277,78.3332 -23.0037,0.4345 -47.0793,-6.0013 -67.5869,-23.2819 6.1125,-13.6661 8.8633,-30.4289 8.9914,-45.5964 0.3865,-45.77434 -34.3493,-91.79346 -83.0379,-90.02165 -29.9167,1.08869 -60.3314,24.97398 -56.9963,57.21555 1.8054,17.4537 17.0323,35.7396 36.1825,31.6291 8.3579,-1.7941 18.0648,-10.6217 13.8552,-19.8933 -2.183,-2.9464 -3.109,0.2498 -3.6076,2.7343 -0.687,8.0973 -11.0027,10.4166 -17.5493,8.4779 -15.7649,-4.6683 -19.3984,-24.3797 -13.8202,-37.90065 10.902,-26.42509 44.706,-31.66366 68.1989,-20.07604 40.3673,19.9107 47.4992,72.80989 27.2,109.55459 -11.1255,20.139 -28.7369,37.7712 -53.9561,46.8909 -8.7788,-12.1268 -21.9205,-22.8904 -34.9919,-30.5851 -39.4484,-23.2219 -96.670099,-16.1494 -119.479899,26.902 -14.0155,26.453 -8.5376,64.7356 21.052,77.9681 16.018,7.1633 39.4675,3.1194 45.482799,-15.5204 2.6252,-8.1352 -0.1662,-20.9555 -10.300499,-21.9456 -3.6431,0.4173 -1.3381,2.8173 0.5642,4.4914 6.668999,4.6436 3.5197,14.7369 -1.4326,19.4371 -11.9253,11.3186 -30.8126,4.6096 -39.733,-6.9817 -17.4338,-22.654 -5.0686,-54.5483 16.7131,-69.1 37.426799,-25.0038 86.804699,-4.7305 108.476999,31.2214 11.8781,19.7045 18.5469,43.983 13.6308,70.1728 z"
       sodipodi:nodetypes="cssssccsssscssssccsssscssssccsssscssssccsssscssssccsssscssssccssssc"
       inkscape:connector-curvature="0" />
    <path
       sodipodi:nodetypes="cssssccsssscssssccsssscssssccsssscssssccsssscssssccsssscssssccssssc"
       d="m 724.95832,485.15782 c -15.0959,1.32871 -30.7838,7.53841 -43.9833,15.0112 -39.835,22.5524 -62.3208,75.6441 -36.4421,116.9237 15.9012,25.3643 51.7938,39.7615 78.0483,20.7525 14.2126,-10.2904 22.4353,-32.6202 9.3003,-47.1495 -5.7326,-6.3411 -18.231,-10.3338 -24.1557,-2.0523 -1.4601,3.3637 1.7709,2.5675 4.1718,1.7571 7.356,-3.4537 14.5224,4.3203 16.1168,10.9592 3.8395,15.9869 -11.4143,28.9893 -25.9129,30.9189 -28.3358,3.7712 -49.7745,-22.8846 -51.4858,-49.0239 -2.9405,-44.9145 39.3056,-77.5404 81.277,-78.3332 23.0037,-0.4345 47.0793,6.0013 67.5867,23.282 -6.1129,13.6661 -8.8637,30.4289 -8.9918,45.5964 -0.3865,45.7743 34.3493,91.7934 83.03786,90.0216 29.9167,-1.0887 60.3313,-24.974 56.9963,-57.2155 -1.8054,-17.4537 -17.0323,-35.7397 -36.1825,-31.6291 -8.3579,1.794 -18.0648,10.6216 -13.8552,19.8933 2.183,2.9463 3.109,-0.2499 3.6076,-2.7343 0.687,-8.0974 11.0027,-10.4166 17.5493,-8.478 15.7649,4.6684 19.3984,24.3797 13.8201,37.9007 -10.9019,26.4251 -44.7058,31.6637 -68.19876,20.0761 -40.3673,-19.9107 -47.4992,-72.8099 -27.2,-109.5546 11.1255,-20.139 28.7369,-37.7712 53.95616,-46.8907 8.7788,12.127 21.9204,22.8906 34.9918,30.5853 39.4484,23.2219 96.67012,16.1493 119.48002,-26.9021 14.0156,-26.453 8.5376,-64.7355 -21.052,-77.968 -16.01812,-7.1633 -39.46762,-3.1195 -45.48282,15.5204 -2.6253,8.1351 0.1661,20.9554 10.3005,21.9456 3.6431,-0.4174 1.338,-2.8174 -0.5642,-4.4914 -6.669,-4.6437 -3.5197,-14.7369 1.4325,-19.4372 11.9253,-11.3185 30.81262,-4.6096 39.73302,6.9818 17.434,22.6539 5.0687,54.5483 -16.71302,69.1 -37.4269,25.0038 -86.8048,4.7305 -108.4771,-31.2214 -11.8781,-19.7045 -18.3423,-43.7725 -13.6304,-70.173 14.8916,-1.5395 30.784,-7.5387 43.9835,-15.0115 39.835,-22.5524 62.3208,-75.6441 36.4421,-116.9237 -15.9012,-25.36431 -51.7938,-39.76153 -78.0483,-20.75246 -14.2126,10.29034 -22.4353,32.62016 -9.3003,47.14946 5.7326,6.3411 18.231,10.3338 24.1557,2.0523 1.4601,-3.3637 -1.7709,-2.5675 -4.1718,-1.7571 -7.356,3.4537 -14.5224,-4.3203 -16.1168,-10.9592 -3.8395,-15.98694 11.4143,-28.98934 25.9129,-30.91893 28.3358,-3.77115 49.7745,22.88463 51.4858,49.02393 2.9405,44.9145 -39.3056,77.5404 -81.277,78.3332 -23.00366,0.4345 -47.07926,-6.0013 -67.58686,-23.2819 6.1125,-13.6661 8.8633,-30.4289 8.9914,-45.5964 0.3865,-45.77434 -34.3493,-91.79346 -83.0379,-90.02165 -29.9167,1.08869 -60.3314,24.97398 -56.9963,57.21555 1.8054,17.4537 17.0323,35.7396 36.1825,31.6291 8.3579,-1.7941 18.0648,-10.6217 13.8552,-19.8933 -2.183,-2.9464 -3.109,0.2498 -3.6076,2.7343 -0.687,8.0973 -11.0027,10.4166 -17.5493,8.4779 -15.7649,-4.6683 -19.3984,-24.3797 -13.8202,-37.90065 10.902,-26.42509 44.706,-31.66366 68.1989,-20.07604 40.3673,19.9107 47.4992,72.80989 27.2,109.55459 -11.1255,20.139 -28.7369,37.7712 -53.9561,46.8909 -8.7788,-12.1268 -21.9205,-22.8904 -34.9919,-30.5851 -39.4484,-23.2219 -96.6701,-16.1494 -119.4799,26.902 -14.0155,26.453 -8.5376,64.7356 21.052,77.9681 16.018,7.1633 39.4675,3.1194 45.4828,-15.5204 2.6252,-8.1352 -0.1662,-20.9555 -10.3005,-21.9456 -3.6431,0.4173 -1.3381,2.8173 0.5642,4.4914 6.669,4.6436 3.5197,14.7369 -1.4326,19.4371 -11.9253,11.3186 -30.8126,4.6096 -39.733,-6.9817 -17.4338,-22.654 -5.0686,-54.5483 16.7131,-69.1 37.4268,-25.0038 86.8047,-4.7305 108.477,31.2214 11.8781,19.7045 18.5469,43.983 13.6308,70.1728 z"
       style="fill:none;stroke:#000000;stroke-width:4;stroke-linecap:butt;stroke-linejoin:miter;stroke-miterlimit:4;stroke-opacity:1;stroke-dasharray:none;display:inline"
       id="path3100"
       inkscape:connector-curvature="0" />
    <path
       id="path3106"
       style="fill:none;stroke:#000000;stroke-width:4;stroke-linecap:butt;stroke-linejoin:miter;stroke-miterlimit:4;stroke-opacity:1;stroke-dasharray:none;display:inline"
       d="m 1258.6267,792.87082 c -15.0959,1.3287 -30.7838,7.5384 -43.9833,15.0112 -39.835,22.55241 -62.3208,75.6441 -36.4421,116.92371 15.9012,25.36429 51.7938,39.76149 78.0483,20.7525 14.2126,-10.2904 22.4353,-32.6202 9.3003,-47.1495 -5.7326,-6.3411 -18.231,-10.3338 -24.1557,-2.0523 -1.4601,3.3637 1.7709,2.5675 4.1718,1.7571 7.356,-3.4537 14.5224,4.3203 16.1168,10.9592 3.8395,15.9869 -11.4143,28.9893 -25.9129,30.9189 -28.3358,3.7712 -49.7745,-22.8846 -51.4858,-49.0239 -2.9405,-44.9145 39.3056,-77.5404 81.277,-78.3332 23.0037,-0.4345 47.0793,6.0013 67.5867,23.282 -6.1129,13.6661 -8.8637,30.4289 -8.9918,45.5964 -0.3865,45.7743 34.3493,91.7934 83.0379,90.0216 29.9167,-1.0887 60.3313,-24.974 56.9963,-57.2155 -1.8054,-17.4537 -17.0323,-35.7397 -36.1825,-31.6291 -8.3579,1.794 -18.0648,10.6216 -13.8552,19.8933 2.183,2.9463 3.109,-0.2499 3.6076,-2.7343 0.687,-8.0974 11.0027,-10.4166 17.5493,-8.478 15.7649,4.6684 19.3984,24.3797 13.8201,37.9007 -10.9019,26.4251 -44.7058,31.6637 -68.1988,20.0761 -40.3673,-19.9107 -47.4992,-72.8099 -27.2,-109.5546 11.1255,-20.139 28.7369,-37.7712 53.9562,-46.8907 8.7788,12.127 21.9204,22.8906 34.9918,30.5853 39.4484,23.2219 96.6701,16.1493 119.48,-26.9021 14.0156,-26.453 8.5376,-64.7355 -21.052,-77.968 -16.0181,-7.1633 -39.4676,-3.1195 -45.4828,15.5204 -2.6253,8.1351 0.1661,20.9554 10.3005,21.9456 3.6431,-0.4174 1.338,-2.8174 -0.5642,-4.4914 -6.669,-4.6437 -3.5197,-14.7369 1.4325,-19.4372 11.9253,-11.3185 30.8126,-4.6096 39.733,6.9818 17.434,22.6539 5.0687,54.5483 -16.713,69.1 -37.4269,25.0038 -86.8048,4.7305 -108.4771,-31.2214 -11.8781,-19.7045 -18.3423,-43.7725 -13.6304,-70.173 14.8916,-1.5395 30.784,-7.5387 43.9835,-15.0115 39.835,-22.5524 62.3208,-75.6441 36.4421,-116.9237 -15.9012,-25.36431 -51.7938,-39.76153 -78.0483,-20.75246 -14.2126,10.29034 -22.4353,32.62016 -9.3003,47.14946 5.7326,6.3411 18.231,10.3338 24.1557,2.0523 1.4601,-3.3637 -1.7709,-2.5675 -4.1718,-1.7571 -7.356,3.4537 -14.5224,-4.3203 -16.1168,-10.9592 -3.8395,-15.98694 11.4143,-28.98934 25.9129,-30.91893 28.3358,-3.77115 49.7745,22.88463 51.4858,49.02393 2.9405,44.9145 -39.3056,77.5404 -81.277,78.3332 -23.0037,0.4345 -47.0793,-6.0013 -67.5869,-23.2819 6.1125,-13.6661 8.8633,-30.4289 8.9914,-45.5964 0.3865,-45.77434 -34.3493,-91.79346 -83.0379,-90.02165 -29.9167,1.08869 -60.3314,24.97398 -56.9963,57.21555 1.8054,17.4537 17.0323,35.7396 36.1825,31.6291 8.3579,-1.7941 18.0648,-10.6217 13.8552,-19.8933 -2.183,-2.9464 -3.109,0.2498 -3.6076,2.7343 -0.687,8.0973 -11.0027,10.4166 -17.5493,8.4779 -15.7649,-4.6683 -19.3984,-24.3797 -13.8202,-37.90065 10.902,-26.42509 44.706,-31.66366 68.1989,-20.07604 40.3673,19.9107 47.4992,72.80989 27.2,109.55459 -11.1255,20.139 -28.7369,37.7712 -53.9561,46.8909 -8.7788,-12.1268 -21.9205,-22.8904 -34.9919,-30.5851 -39.4484,-23.2219 -96.6701,-16.1494 -119.4799,26.902 -14.0155,26.453 -8.5376,64.7356 21.052,77.9681 16.018,7.1633 39.4675,3.1194 45.4828,-15.5204 2.6252,-8.1352 -0.1662,-20.9555 -10.3005,-21.9456 -3.6431,0.4173 -1.3381,2.8173 0.5642,4.4914 6.669,4.6436 3.5197,14.7369 -1.4326,19.4371 -11.9253,11.3186 -30.8126,4.6096 -39.733,-6.9817 -17.4338,-22.654 -5.0686,-54.5483 16.7131,-69.1 37.4268,-25.0038 86.8047,-4.7305 108.477,31.2214 11.8781,19.7045 18.5469,43.983 13.6308,70.1728 z"
       sodipodi:nodetypes="cssssccsssscssssccsssscssssccsssscssssccsssscssssccsssscssssccssssc"
       inkscape:connector-curvature="0" />
    <path
       sodipodi:nodetypes="cssssccsssscssssccsssscssssccsssscssssccsssscssssccsssscssssccssssc"
       d="m 1792.2951,485.15782 c -15.0959,1.32871 -30.7838,7.53841 -43.9833,15.0112 -39.835,22.5524 -62.3208,75.6441 -36.4421,116.9237 15.9012,25.3643 51.7938,39.7615 78.0483,20.7525 14.2126,-10.2904 22.4353,-32.6202 9.3003,-47.1495 -5.7326,-6.3411 -18.231,-10.3338 -24.1557,-2.0523 -1.4601,3.3637 1.7709,2.5675 4.1718,1.7571 7.356,-3.4537 14.5224,4.3203 16.1168,10.9592 3.8395,15.9869 -11.4143,28.9893 -25.9129,30.9189 -28.3358,3.7712 -49.7745,-22.8846 -51.4858,-49.0239 -2.9405,-44.9145 39.3056,-77.5404 81.277,-78.3332 23.0037,-0.4345 47.0793,6.0013 67.5867,23.282 -6.1129,13.6661 -8.8637,30.4289 -8.9918,45.5964 -0.3865,45.7743 34.3493,91.7934 83.0379,90.0216 29.9167,-1.0887 60.3313,-24.974 56.9963,-57.2155 -1.8054,-17.4537 -17.0323,-35.7397 -36.1825,-31.6291 -8.3579,1.794 -18.0648,10.6216 -13.8552,19.8933 2.183,2.9463 3.109,-0.2499 3.6076,-2.7343 0.687,-8.0974 11.0027,-10.4166 17.5493,-8.478 15.7649,4.6684 19.3984,24.3797 13.8201,37.9007 -10.9019,26.4251 -44.7058,31.6637 -68.1988,20.0761 -40.3673,-19.9107 -47.4992,-72.8099 -27.2,-109.5546 11.1255,-20.139 28.7369,-37.7712 53.9562,-46.8907 8.7788,12.127 21.9204,22.8906 34.9918,30.5853 39.4484,23.2219 96.6701,16.1493 119.48,-26.9021 14.0156,-26.453 8.5376,-64.7355 -21.052,-77.968 -16.0181,-7.1633 -39.4676,-3.1195 -45.4828,15.5204 -2.6253,8.1351 0.1661,20.9554 10.3005,21.9456 3.6431,-0.4174 1.338,-2.8174 -0.5642,-4.4914 -6.669,-4.6437 -3.5197,-14.7369 1.4325,-19.4372 11.9253,-11.3185 30.8126,-4.6096 39.733,6.9818 17.434,22.6539 5.0687,54.5483 -16.713,69.1 -37.4269,25.0038 -86.8048,4.7305 -108.4771,-31.2214 -11.8781,-19.7045 -18.3423,-43.7725 -13.6304,-70.173 14.8916,-1.5395 30.784,-7.5387 43.9835,-15.0115 39.835,-22.5524 62.3208,-75.6441 36.4421,-116.9237 -15.9012,-25.36431 -51.7938,-39.76153 -78.0483,-20.75246 -14.2126,10.29034 -22.4353,32.62016 -9.3003,47.14946 5.7326,6.3411 18.231,10.3338 24.1557,2.0523 1.4601,-3.3637 -1.7709,-2.5675 -4.1718,-1.7571 -7.356,3.4537 -14.5224,-4.3203 -16.1168,-10.9592 -3.8395,-15.98694 11.4143,-28.98934 25.9129,-30.91893 28.3358,-3.77115 49.7745,22.88463 51.4858,49.02393 2.9405,44.9145 -39.3056,77.5404 -81.277,78.3332 -23.0037,0.4345 -47.0793,-6.0013 -67.5869,-23.2819 6.1125,-13.6661 8.8633,-30.4289 8.9914,-45.5964 0.3865,-45.77434 -34.3493,-91.79346 -83.0379,-90.02165 -29.9167,1.08869 -60.3314,24.97398 -56.9963,57.21555 1.8054,17.4537 17.0323,35.7396 36.1825,31.6291 8.3579,-1.7941 18.0648,-10.6217 13.8552,-19.8933 -2.183,-2.9464 -3.109,0.2498 -3.6076,2.7343 -0.687,8.0973 -11.0027,10.4166 -17.5493,8.4779 -15.7649,-4.6683 -19.3984,-24.3797 -13.8202,-37.90065 10.902,-26.42509 44.706,-31.66366 68.1989,-20.07604 40.3673,19.9107 47.4992,72.80989 27.2,109.55459 -11.1255,20.139 -28.7369,37.7712 -53.9561,46.8909 -8.7788,-12.1268 -21.9205,-22.8904 -34.9919,-30.5851 -39.4484,-23.2219 -96.6701,-16.1494 -119.4799,26.902 -14.0155,26.453 -8.5376,64.7356 21.052,77.9681 16.018,7.1633 39.4675,3.1194 45.4828,-15.5204 2.6252,-8.1352 -0.1662,-20.9555 -10.3005,-21.9456 -3.6431,0.4173 -1.3381,2.8173 0.5642,4.4914 6.669,4.6436 3.5197,14.7369 -1.4326,19.4371 -11.9253,11.3186 -30.8126,4.6096 -39.733,-6.9817 -17.4338,-22.654 -5.0686,-54.5483 16.7131,-69.1 37.4268,-25.0038 86.8047,-4.7305 108.477,31.2214 11.8781,19.7045 18.5469,43.983 13.6308,70.1728 z"
       style="fill:none;stroke:#000000;stroke-width:4;stroke-linecap:butt;stroke-linejoin:miter;stroke-miterlimit:4;stroke-opacity:1;stroke-dasharray:none;display:inline"
       id="path3112"
       inkscape:connector-curvature="0" />
    <path
       id="path3118"
       style="fill:none;stroke:#000000;stroke-width:4;stroke-linecap:butt;stroke-linejoin:miter;stroke-miterlimit:4;stroke-opacity:1;stroke-dasharray:none;display:inline"
       d="m 2325.9634,792.87082 c -15.0959,1.3287 -30.7838,7.5384 -43.9833,15.0112 -39.835,22.55241 -62.3208,75.6441 -36.4421,116.92371 15.9012,25.36429 51.7938,39.76149 78.0483,20.7525 14.2126,-10.2904 22.4353,-32.6202 9.3003,-47.1495 -5.7326,-6.3411 -18.231,-10.3338 -24.1557,-2.0523 -1.4601,3.3637 1.7709,2.5675 4.1718,1.7571 7.356,-3.4537 14.5224,4.3203 16.1168,10.9592 3.8395,15.9869 -11.4143,28.9893 -25.9129,30.9189 -28.3358,3.7712 -49.7745,-22.8846 -51.4858,-49.0239 -2.9405,-44.9145 39.3056,-77.5404 81.277,-78.3332 23.0037,-0.4345 47.0793,6.0013 67.5867,23.282 -6.1129,13.6661 -8.8637,30.4289 -8.9918,45.5964 -0.3865,45.7743 34.3493,91.7934 83.0379,90.0216 29.9167,-1.0887 60.3313,-24.974 56.9963,-57.2155 -1.8054,-17.4537 -17.0323,-35.7397 -36.1825,-31.6291 -8.3579,1.794 -18.0648,10.6216 -13.8552,19.8933 2.183,2.9463 3.109,-0.2499 3.6076,-2.7343 0.687,-8.0974 11.0027,-10.4166 17.5493,-8.478 15.7649,4.6684 19.3984,24.3797 13.8201,37.9007 -10.9019,26.4251 -44.7058,31.6637 -68.1988,20.0761 -40.3673,-19.9107 -47.4992,-72.8099 -27.2,-109.5546 11.1255,-20.139 28.7369,-37.7712 53.9562,-46.8907 8.7788,12.127 21.9204,22.8906 34.9918,30.5853 39.4484,23.2219 96.6701,16.1493 119.48,-26.9021 14.0156,-26.453 8.5376,-64.7355 -21.052,-77.968 -16.0181,-7.1633 -39.4676,-3.1195 -45.4828,15.5204 -2.6253,8.1351 0.1661,20.9554 10.3005,21.9456 3.6431,-0.4174 1.338,-2.8174 -0.5642,-4.4914 -6.669,-4.6437 -3.5197,-14.7369 1.4325,-19.4372 11.9253,-11.3185 30.8126,-4.6096 39.733,6.9818 17.434,22.6539 5.0687,54.5483 -16.713,69.1 -37.4269,25.0038 -86.8048,4.7305 -108.4771,-31.2214 -11.8781,-19.7045 -18.3423,-43.7725 -13.6304,-70.173 14.8916,-1.5395 30.784,-7.5387 43.9835,-15.0115 39.835,-22.5524 62.3208,-75.6441 36.4421,-116.9237 -15.9012,-25.36431 -51.7938,-39.76153 -78.0483,-20.75246 -14.2126,10.29034 -22.4353,32.62016 -9.3003,47.14946 5.7326,6.3411 18.231,10.3338 24.1557,2.0523 1.4601,-3.3637 -1.7709,-2.5675 -4.1718,-1.7571 -7.356,3.4537 -14.5224,-4.3203 -16.1168,-10.9592 -3.8395,-15.98694 11.4143,-28.98934 25.9129,-30.91893 28.3358,-3.77115 49.7745,22.88463 51.4858,49.02393 2.9405,44.9145 -39.3056,77.5404 -81.277,78.3332 -23.0037,0.4345 -47.0793,-6.0013 -67.5869,-23.2819 6.1125,-13.6661 8.8633,-30.4289 8.9914,-45.5964 0.3865,-45.77434 -34.3493,-91.79346 -83.0379,-90.02165 -29.9167,1.08869 -60.3314,24.97398 -56.9963,57.21555 1.8054,17.4537 17.0323,35.7396 36.1825,31.6291 8.3579,-1.7941 18.0648,-10.6217 13.8552,-19.8933 -2.183,-2.9464 -3.109,0.2498 -3.6076,2.7343 -0.687,8.0973 -11.0027,10.4166 -17.5493,8.4779 -15.7649,-4.6683 -19.3984,-24.3797 -13.8202,-37.90065 10.902,-26.42509 44.706,-31.66366 68.1989,-20.07604 40.3673,19.9107 47.4992,72.80989 27.2,109.55459 -11.1255,20.139 -28.7369,37.7712 -53.9561,46.8909 -8.7788,-12.1268 -21.9205,-22.8904 -34.9919,-30.5851 -39.4484,-23.2219 -96.6701,-16.1494 -119.4799,26.902 -14.0155,26.453 -8.5376,64.7356 21.052,77.9681 16.018,7.1633 39.4675,3.1194 45.4828,-15.5204 2.6252,-8.1352 -0.1662,-20.9555 -10.3005,-21.9456 -3.6431,0.4173 -1.3381,2.8173 0.5642,4.4914 6.669,4.6436 3.5197,14.7369 -1.4326,19.4371 -11.9253,11.3186 -30.8126,4.6096 -39.733,-6.9817 -17.4338,-22.654 -5.0686,-54.5483 16.7131,-69.1 37.4268,-25.0038 86.8047,-4.7305 108.477,31.2214 11.8781,19.7045 18.5469,43.983 13.6308,70.1728 z"
       sodipodi:nodetypes="cssssccsssscssssccsssscssssccsssscssssccsssscssssccsssscssssccssssc"
       inkscape:connector-curvature="0" />
    <path
       sodipodi:nodetypes="cssssccsssscssssccsssscssssccsssscssssccsssscssssccsssscssssccssssc"
       d="m 2859.6319,485.15782 c -15.0959,1.32871 -30.7838,7.53841 -43.9833,15.0112 -39.835,22.5524 -62.3208,75.6441 -36.4421,116.9237 15.9012,25.3643 51.7938,39.7615 78.0483,20.7525 14.2126,-10.2904 22.4353,-32.6202 9.3003,-47.1495 -5.7326,-6.3411 -18.231,-10.3338 -24.1557,-2.0523 -1.4601,3.3637 1.7709,2.5675 4.1718,1.7571 7.356,-3.4537 14.5224,4.3203 16.1168,10.9592 3.8395,15.9869 -11.4143,28.9893 -25.9129,30.9189 -28.3358,3.7712 -49.7745,-22.8846 -51.4858,-49.0239 -2.9405,-44.9145 39.3056,-77.5404 81.277,-78.3332 23.0037,-0.4345 47.0793,6.0013 67.5867,23.282 -6.1129,13.6661 -8.8637,30.4289 -8.9918,45.5964 -0.3865,45.7743 34.3493,91.7934 83.0379,90.0216 29.9167,-1.0887 60.3313,-24.974 56.9963,-57.2155 -1.8054,-17.4537 -17.0323,-35.7397 -36.1825,-31.6291 -8.3579,1.794 -18.0648,10.6216 -13.8552,19.8933 2.183,2.9463 3.109,-0.2499 3.6076,-2.7343 0.687,-8.0974 11.0027,-10.4166 17.5493,-8.478 15.7649,4.6684 19.3984,24.3797 13.8201,37.9007 -10.9019,26.4251 -44.7058,31.6637 -68.1988,20.0761 -40.3673,-19.9107 -47.4992,-72.8099 -27.2,-109.5546 11.1255,-20.139 28.7369,-37.7712 53.9562,-46.8907 8.7788,12.127 21.9204,22.8906 34.9918,30.5853 39.4484,23.2219 96.6701,16.1493 119.48,-26.9021 14.0156,-26.453 8.5376,-64.7355 -21.052,-77.968 -16.0181,-7.1633 -39.4676,-3.1195 -45.4828,15.5204 -2.6253,8.1351 0.1661,20.9554 10.3005,21.9456 3.6431,-0.4174 1.338,-2.8174 -0.5642,-4.4914 -6.669,-4.6437 -3.5197,-14.7369 1.4325,-19.4372 11.9253,-11.3185 30.8126,-4.6096 39.733,6.9818 17.434,22.6539 5.0687,54.5483 -16.713,69.1 -37.4269,25.0038 -86.8048,4.7305 -108.4771,-31.2214 -11.8781,-19.7045 -18.3423,-43.7725 -13.6304,-70.173 14.8916,-1.5395 30.784,-7.5387 43.9835,-15.0115 39.835,-22.5524 62.3208,-75.6441 36.4421,-116.9237 -15.9012,-25.36431 -51.7938,-39.76153 -78.0483,-20.75246 -14.2126,10.29034 -22.4353,32.62016 -9.3003,47.14946 5.7326,6.3411 18.231,10.3338 24.1557,2.0523 1.4601,-3.3637 -1.7709,-2.5675 -4.1718,-1.7571 -7.356,3.4537 -14.5224,-4.3203 -16.1168,-10.9592 -3.8395,-15.98694 11.4143,-28.98934 25.9129,-30.91893 28.3358,-3.77115 49.7745,22.88463 51.4858,49.02393 2.9405,44.9145 -39.3056,77.5404 -81.277,78.3332 -23.0037,0.4345 -47.0793,-6.0013 -67.5869,-23.2819 6.1125,-13.6661 8.8633,-30.4289 8.9914,-45.5964 0.3865,-45.77434 -34.3493,-91.79346 -83.0379,-90.02165 -29.9167,1.08869 -60.3314,24.97398 -56.9963,57.21555 1.8054,17.4537 17.0323,35.7396 36.1825,31.6291 8.3579,-1.7941 18.0648,-10.6217 13.8552,-19.8933 -2.183,-2.9464 -3.109,0.2498 -3.6076,2.7343 -0.687,8.0973 -11.0027,10.4166 -17.5493,8.4779 -15.7649,-4.6683 -19.3984,-24.3797 -13.8202,-37.90065 10.902,-26.42509 44.706,-31.66366 68.1989,-20.07604 40.3673,19.9107 47.4992,72.80989 27.2,109.55459 -11.1255,20.139 -28.7369,37.7712 -53.9561,46.8909 -8.7788,-12.1268 -21.9205,-22.8904 -34.9919,-30.5851 -39.4484,-23.2219 -96.6701,-16.1494 -119.4799,26.902 -14.0155,26.453 -8.5376,64.7356 21.052,77.9681 16.018,7.1633 39.4675,3.1194 45.4828,-15.5204 2.6252,-8.1352 -0.1662,-20.9555 -10.3005,-21.9456 -3.6431,0.4173 -1.3381,2.8173 0.5642,4.4914 6.669,4.6436 3.5197,14.7369 -1.4326,19.4371 -11.9253,11.3186 -30.8126,4.6096 -39.733,-6.9817 -17.4338,-22.654 -5.0686,-54.5483 16.7131,-69.1 37.4268,-25.0038 86.8047,-4.7305 108.477,31.2214 11.8781,19.7045 18.5469,43.983 13.6308,70.1728 z"
       style="fill:none;stroke:#000000;stroke-width:4;stroke-linecap:butt;stroke-linejoin:miter;stroke-miterlimit:4;stroke-opacity:1;stroke-dasharray:none;display:inline"
       id="path3124"
       inkscape:connector-curvature="0" />
  </g>
</svg>
