<?xml version="1.0" encoding="UTF-8" standalone="no"?>
<!-- Created with Inkscape (http://www.inkscape.org/) -->

<svg
   xmlns:dc="http://purl.org/dc/elements/1.1/"
   xmlns:cc="http://creativecommons.org/ns#"
   xmlns:rdf="http://www.w3.org/1999/02/22-rdf-syntax-ns#"
   xmlns:svg="http://www.w3.org/2000/svg"
   xmlns="http://www.w3.org/2000/svg"
   xmlns:sodipodi="http://sodipodi.sourceforge.net/DTD/sodipodi-0.dtd"
   xmlns:inkscape="http://www.inkscape.org/namespaces/inkscape"
   width="3200"
   height="800"
   id="svg2"
   version="1.1"
   inkscape:version="0.48.5 r10040"
   sodipodi:docname="kistka-test2.svg">
  <sodipodi:namedview
     id="base"
     pagecolor="#ffffff"
     bordercolor="#666666"
     borderopacity="1.0"
     inkscape:pageopacity="0.0"
     inkscape:pageshadow="2"
     inkscape:zoom="0.28639246"
     inkscape:cx="1855.2041"
     inkscape:cy="397.02031"
     inkscape:document-units="px"
     inkscape:current-layer="layer4"
     showgrid="false"
     inkscape:window-width="1436"
     inkscape:window-height="855"
     inkscape:window-x="0"
     inkscape:window-y="0"
     inkscape:window-maximized="1" />
  <defs
     id="defs4">
    <inkscape:path-effect
       scale_y_rel="false"
       prop_scale="1"
       strokepath="m 2,248.00001 3198.9911,0"
       endpoint_spacing_variation="0;1"
       endpoint_edge_variation="0;1"
       startpoint_spacing_variation="0;1"
       startpoint_edge_variation="0;1"
       count="26"
       is_visible="true"
       id="path-effect14085"
       effect="curvestitching" />
    <inkscape:path-effect
       steps="18"
       equidistant_spacing="true"
       trajectory="M 1601.4955,398.00003 1601.4956,-2"
       is_visible="true"
       id="path-effect14063"
       effect="interpolate" />
    <inkscape:path-effect
       steps="16"
       equidistant_spacing="true"
       trajectory="m 1601.4956,798.00002 -10e-5,-399.99999"
       is_visible="true"
       id="path-effect14061"
       effect="interpolate" />
    <inkscape:path-effect
       steps="7"
       equidistant_spacing="true"
       trajectory="M 1601.4955,398.00003 1601.4956,-2"
       is_visible="true"
       id="path-effect14044"
       effect="interpolate" />
    <inkscape:path-effect
       steps="7"
       equidistant_spacing="true"
       trajectory="m 1601.4956,798.00002 -10e-5,-399.99999"
       is_visible="true"
       id="path-effect14042"
       effect="interpolate" />
    <inkscape:path-effect
       steps="5"
       equidistant_spacing="true"
       trajectory="m 1601.4956,798.00002 -10e-5,-399.99999"
       is_visible="true"
       id="path-effect14025"
       effect="interpolate" />
    <inkscape:path-effect
       steps="5"
       equidistant_spacing="true"
       trajectory="M 1601.4955,398.00003 1601.4956,-2"
       is_visible="true"
       id="path-effect14022"
       effect="interpolate" />
    <inkscape:path-effect
       steps="6"
       equidistant_spacing="true"
       trajectory="m 1601.4956,1050.3622 -10e-5,-399.99999"
       is_visible="true"
       id="path-effect14006"
       effect="interpolate" />
    <inkscape:path-effect
       steps="6"
       equidistant_spacing="true"
       trajectory="m 1601.4955,650.36221 10e-5,-400.00003"
       is_visible="true"
       id="path-effect14003"
       effect="interpolate" />
  </defs>
  <metadata
     id="metadata7">
    <rdf:RDF>
      <cc:Work
         rdf:about="">
        <dc:format>image/svg+xml</dc:format>
        <dc:type
           rdf:resource="http://purl.org/dc/dcmitype/StillImage" />
        <dc:title></dc:title>
      </cc:Work>
    </rdf:RDF>
  </metadata>
  <g
     style="display:inline"
     transform="translate(0,-252.36218)"
     id="layer1"
     inkscape:groupmode="layer"
     inkscape:label="1-White">
    <path
       inkscape:connector-curvature="0"
       id="path7358"
       style="fill:none;stroke:#969696;stroke-width:5.1619339;stroke-linecap:butt;stroke-linejoin:miter;stroke-miterlimit:4;stroke-opacity:1;stroke-dasharray:none;display:inline"
       d="m 53.227945,307.92284 c 406.322425,0 -330.157855,694.83806 76.164555,694.83806 406.32241,0 -330.15755,-694.83806 76.16482,-694.83806 406.32239,7e-5 -330.15797,694.83796 76.16442,694.83806 406.32241,0 -330.157435,-694.83806 76.16496,-694.83806 406.32242,7e-5 -330.15808,694.83796 76.16432,694.83806 406.32239,0 -330.15731,-694.83806 76.16506,-694.83806 406.32244,1.2e-4 -330.15823,694.83786 76.16418,694.83806 406.32242,0 -330.15716,-694.83819 76.16523,-694.83806 406.32241,1.2e-4 -330.1584,694.83786 76.16402,694.83806 406.32239,0 -330.15702,-694.83819 76.16538,-694.83806 406.32241,1.2e-4 -330.15849,694.83786 76.16391,694.83806 406.3225,0 -330.15692,-694.83819 76.16546,-694.83806 406.32244,1.2e-4 -330.15867,694.83776 76.16374,694.83806 406.3224,10e-5 -330.15673,-694.83829 76.1657,-694.83806 406.3225,1.2e-4 -330.15892,694.83776 76.1635,694.83806 406.3224,2e-4 -330.15653,-694.83829 76.1659,-694.83806 406.3224,2.1e-4 -330.15914,694.83776 76.1634,694.83806 406.3225,2e-4 -330.1564,-694.83837 76.1661,-694.83806 406.3225,2.1e-4 -330.1594,694.83776 76.163,694.83806 406.3224,2e-4 -330.1562,-694.83837 76.1661,-694.83806 406.3225,3e-4 -330.1593,694.83766 76.1632,694.83806 406.3224,2e-4 -330.1564,-694.83837 76.166,-694.83806 406.3226,3e-4 -330.1593,694.83766 76.1631,694.83806 406.3225,2e-4 -330.1562,-694.83837 76.1662,-694.83806 406.3225,3e-4 -330.1594,694.83766 76.1632,694.83806 406.3223,2e-4 -330.1566,-694.83837 76.1662,-694.83806 406.3221,3e-4 -330.1596,694.83766 76.1627,694.83806 406.3225,2e-4 -330.1561,-694.83837 76.1664,-694.83806 406.3223,3e-4 -330.1594,694.83766 76.1628,694.83806 406.3225,2e-4 -330.1562,-694.83837 76.1662,-694.83806 406.3225,3e-4 -330.1593,694.83766 76.1632,694.83806 406.3224,2e-4 -330.1562,-694.83837 76.1662,-694.83806 406.3224,3e-4 -330.1595,694.83766 76.163,694.83806 406.3224,2e-4 -330.1565,-694.83837 76.1662,-694.83806 406.3222,3e-4 -330.1595,694.83766 76.1628,694.83806 406.3226,2e-4 -330.1563,-694.83837 76.1662,-694.83806 406.3224,3e-4 -330.1594,694.83766 76.1631,694.83806 406.3224,2e-4 -330.1561,-694.83837 76.1662,-694.83806 406.3224,3e-4 -330.1595,694.83766 76.1632,694.83806 406.3221,2e-4 -330.1565,-694.83837 76.166,-694.83806 406.3225,3e-4 -330.1593,694.83766 76.1629,694.83806 406.3225,2e-4 -330.1559,-694.83847 76.1666,-694.83806"
       sodipodi:nodetypes="cczzzzzzzzzzzzzzzzzzzzzzzzzzzzzzzzzzzzzzzzc" />
  </g>
  <g
     style="display:inline"
     inkscape:label="2-Yellow"
     id="layer2"
     inkscape:groupmode="layer">
    <path
       inkscape:connector-curvature="0"
       id="path7358-7"
       style="fill:none;stroke:#f6e619;stroke-width:5.1619339;stroke-linecap:butt;stroke-linejoin:miter;stroke-miterlimit:4;stroke-opacity:1;stroke-dasharray:none;display:inline"
       d="m 73.227945,55.560654 c 406.322425,0 -330.157855,694.838006 76.164555,694.838006 406.32241,0 -330.15755,-694.838006 76.16482,-694.838006 406.32239,8e-5 -330.15797,694.837946 76.16442,694.838006 406.32241,0 -330.157435,-694.838006 76.16496,-694.838006 406.32242,8e-5 -330.15808,694.837946 76.16432,694.838006 406.32239,0 -330.15731,-694.838006 76.16506,-694.838006 406.32244,1.28e-4 -330.15823,694.837856 76.16418,694.838006 406.32244,8e-5 -330.15716,-694.838136 76.16523,-694.838006 406.32241,1.28e-4 -330.1584,694.837856 76.16402,694.838006 406.32239,8e-5 -330.15702,-694.838136 76.16538,-694.838006 406.32241,1.28e-4 -330.15849,694.837856 76.16391,694.838006 406.3225,8e-5 -330.15692,-694.838136 76.16546,-694.838006 406.32244,1.28e-4 -330.15867,694.837736 76.16374,694.838006 406.3224,1.7e-4 -330.15673,-694.838232 76.1657,-694.838006 406.3225,1.28e-4 -330.15892,694.837736 76.1635,694.838006 406.3224,2.6e-4 -330.15653,-694.838232 76.1659,-694.838006 406.3224,2.23e-4 -330.15914,694.837736 76.1634,694.838006 406.3225,2.6e-4 -330.1564,-694.838311 76.1661,-694.838006 406.3225,2.23e-4 -330.1594,694.837736 76.163,694.838006 406.3224,2.6e-4 -330.1562,-694.838311 76.1661,-694.838006 406.3225,3.04e-4 -330.1593,694.837656 76.1632,694.838006 406.3224,2.6e-4 -330.1564,-694.838311 76.166,-694.838006 406.3226,3.04e-4 -330.1593,694.837656 76.1631,694.838006 406.3225,2.6e-4 -330.1562,-694.838311 76.1662,-694.838006 406.3225,3.04e-4 -330.1594,694.837656 76.1632,694.838006 406.3223,2.6e-4 -330.1566,-694.838311 76.1662,-694.838006 406.3221,3.04e-4 -330.1596,694.837656 76.1627,694.838006 406.3225,2.6e-4 -330.1561,-694.838311 76.1664,-694.838006 406.3223,3.04e-4 -330.1594,694.837656 76.1628,694.838006 406.3225,2.6e-4 -330.1562,-694.838311 76.1662,-694.838006 406.3225,3.04e-4 -330.1593,694.837656 76.1632,694.838006 406.3224,2.6e-4 -330.1562,-694.838311 76.1662,-694.838006 406.3224,3.04e-4 -330.1595,694.837656 76.163,694.838006 406.3224,2.6e-4 -330.1565,-694.838311 76.1662,-694.838006 406.3222,3.04e-4 -330.1595,694.837656 76.1628,694.838006 406.3226,2.6e-4 -330.1563,-694.838311 76.1662,-694.838006 406.3224,3.04e-4 -330.1594,694.837656 76.1631,694.838006 406.3224,2.6e-4 -330.1561,-694.838311 76.1662,-694.838006 406.3224,3.04e-4 -330.1595,694.837656 76.1632,694.838006 406.3221,2.6e-4 -330.1565,-694.838311 76.166,-694.838006 406.3225,3.04e-4 -330.1593,694.837656 76.1629,694.838006 406.3225,2.6e-4 -330.1559,-694.838409 76.1666,-694.838006"
       sodipodi:nodetypes="cczzzzzzzzzzzzzzzzzzzzzzzzzzzzzzzzzzzzzzzzc" />
    <path
       sodipodi:nodetypes="cczzzzzzzzzzzzzzzzzzzzzzzzzzzzzzzzzzzzzzzzc"
       d="m 33.227945,55.560654 c 406.322425,0 -330.157855,694.838006 76.164555,694.838006 406.32241,0 -330.15755,-694.838006 76.16482,-694.838006 406.32239,8e-5 -330.15797,694.837946 76.16442,694.838006 406.32241,0 -330.157435,-694.838006 76.16496,-694.838006 406.32242,8e-5 -330.15808,694.837946 76.16432,694.838006 406.32239,0 -330.15731,-694.838006 76.16506,-694.838006 406.32244,1.28e-4 -330.15823,694.837856 76.16418,694.838006 406.32244,8e-5 -330.15716,-694.838136 76.16523,-694.838006 406.32241,1.28e-4 -330.1584,694.837856 76.16402,694.838006 406.32239,8e-5 -330.15702,-694.838136 76.16538,-694.838006 406.32241,1.28e-4 -330.15849,694.837856 76.16391,694.838006 406.3225,8e-5 -330.15692,-694.838136 76.16546,-694.838006 406.32244,1.28e-4 -330.15867,694.837736 76.16374,694.838006 406.3224,1.7e-4 -330.15673,-694.838232 76.1657,-694.838006 406.3225,1.28e-4 -330.15892,694.837736 76.1635,694.838006 406.3224,2.6e-4 -330.15653,-694.838232 76.1659,-694.838006 406.3224,2.23e-4 -330.15914,694.837736 76.1634,694.838006 406.3225,2.6e-4 -330.1564,-694.838311 76.1661,-694.838006 406.3225,2.23e-4 -330.1594,694.837736 76.163,694.838006 406.3224,2.6e-4 -330.1562,-694.838311 76.1661,-694.838006 406.3225,3.04e-4 -330.1593,694.837656 76.1632,694.838006 406.3224,2.6e-4 -330.1564,-694.838311 76.166,-694.838006 406.3226,3.04e-4 -330.1593,694.837656 76.1631,694.838006 406.3225,2.6e-4 -330.1562,-694.838311 76.1662,-694.838006 406.3225,3.04e-4 -330.1594,694.837656 76.1632,694.838006 406.3223,2.6e-4 -330.1566,-694.838311 76.1662,-694.838006 406.3221,3.04e-4 -330.1596,694.837656 76.1627,694.838006 406.3225,2.6e-4 -330.1561,-694.838311 76.1664,-694.838006 406.3223,3.04e-4 -330.1594,694.837656 76.1628,694.838006 406.3225,2.6e-4 -330.1562,-694.838311 76.1662,-694.838006 406.3225,3.04e-4 -330.1593,694.837656 76.1632,694.838006 406.3224,2.6e-4 -330.1562,-694.838311 76.1662,-694.838006 406.3224,3.04e-4 -330.1595,694.837656 76.163,694.838006 406.3224,2.6e-4 -330.1565,-694.838311 76.1662,-694.838006 406.3222,3.04e-4 -330.1595,694.837656 76.1628,694.838006 406.3226,2.6e-4 -330.1563,-694.838311 76.1662,-694.838006 406.3224,3.04e-4 -330.1594,694.837656 76.1631,694.838006 406.3224,2.6e-4 -330.1561,-694.838311 76.1662,-694.838006 406.3224,3.04e-4 -330.1595,694.837656 76.1632,694.838006 406.3221,2.6e-4 -330.1565,-694.838311 76.166,-694.838006 406.3225,3.04e-4 -330.1593,694.837656 76.1629,694.838006 406.3225,2.6e-4 -330.1559,-694.838409 76.1666,-694.838006"
       style="fill:none;stroke:#f6e619;stroke-width:5.1619339;stroke-linecap:butt;stroke-linejoin:miter;stroke-miterlimit:4;stroke-opacity:1;stroke-dasharray:none;display:inline"
       id="path15361"
       inkscape:connector-curvature="0" />
  </g>
  <g
     style="display:inline"
     inkscape:label="3-Red"
     id="layer3"
     inkscape:groupmode="layer">
    <path
       inkscape:connector-curvature="0"
       id="path7358-3"
       style="fill:none;stroke:#f40000;stroke-width:5.1619339;stroke-linecap:butt;stroke-linejoin:miter;stroke-miterlimit:4;stroke-opacity:1;stroke-dasharray:none;display:inline"
       d="m 93.227945,55.560654 c 406.322425,0 -330.157855,694.838006 76.164555,694.838006 406.32241,0 -330.15755,-694.838006 76.16482,-694.838006 406.32239,8e-5 -330.15797,694.837946 76.16442,694.838006 406.32241,0 -330.157435,-694.838006 76.16496,-694.838006 406.32242,8e-5 -330.15808,694.837946 76.16432,694.838006 406.32239,0 -330.15731,-694.838006 76.16506,-694.838006 406.32244,1.28e-4 -330.15823,694.837856 76.16418,694.838006 406.32244,8e-5 -330.15716,-694.838136 76.16523,-694.838006 406.32241,1.28e-4 -330.1584,694.837856 76.16402,694.838006 406.32239,8e-5 -330.15702,-694.838136 76.16538,-694.838006 406.32241,1.28e-4 -330.15849,694.837856 76.16391,694.838006 406.3225,8e-5 -330.15692,-694.838136 76.1655,-694.838006 406.3224,1.28e-4 -330.15871,694.837736 76.1637,694.838006 406.3224,1.7e-4 -330.15673,-694.838232 76.1657,-694.838006 406.3225,1.28e-4 -330.15892,694.837736 76.1635,694.838006 406.3224,2.6e-4 -330.15653,-694.838232 76.1659,-694.838006 406.3224,2.23e-4 -330.15914,694.837736 76.1634,694.838006 406.3225,2.6e-4 -330.1564,-694.838311 76.1661,-694.838006 406.3225,2.23e-4 -330.1594,694.837736 76.163,694.838006 406.3224,2.6e-4 -330.1562,-694.838311 76.1661,-694.838006 406.3225,3.04e-4 -330.1593,694.837656 76.1632,694.838006 406.3224,2.6e-4 -330.1564,-694.838311 76.166,-694.838006 406.3226,3.04e-4 -330.1593,694.837656 76.1631,694.838006 406.3225,2.6e-4 -330.1562,-694.838311 76.1662,-694.838006 406.3225,3.04e-4 -330.1594,694.837656 76.1632,694.838006 406.3223,2.6e-4 -330.1566,-694.838311 76.1662,-694.838006 406.3221,3.04e-4 -330.1596,694.837656 76.1627,694.838006 406.3225,2.6e-4 -330.1561,-694.838311 76.1664,-694.838006 406.3223,3.04e-4 -330.1594,694.837656 76.1628,694.838006 406.3225,2.6e-4 -330.1562,-694.838311 76.1662,-694.838006 406.3225,3.04e-4 -330.1593,694.837656 76.1632,694.838006 406.3224,2.6e-4 -330.1562,-694.838311 76.1662,-694.838006 406.3224,3.04e-4 -330.1595,694.837656 76.163,694.838006 406.3224,2.6e-4 -330.1565,-694.838311 76.1662,-694.838006 406.3222,3.04e-4 -330.1595,694.837656 76.1628,694.838006 406.3226,2.6e-4 -330.1563,-694.838311 76.1662,-694.838006 406.3224,3.04e-4 -330.1594,694.837656 76.1631,694.838006 406.3224,2.6e-4 -330.1561,-694.838311 76.1662,-694.838006 406.3224,3.04e-4 -330.1595,694.837656 76.1632,694.838006 406.3221,2.6e-4 -330.1565,-694.838311 76.166,-694.838006 406.3225,3.04e-4 -330.1593,694.837656 76.1629,694.838006 406.3225,2.6e-4 -330.1559,-694.838409 76.1666,-694.838006"
       sodipodi:nodetypes="cczzzzzzzzzzzzzzzzzzzzzzzzzzzzzzzzzzzzzzzzc" />
    <path
       sodipodi:nodetypes="cczzzzzzzzzzzzzzzzzzzzzzzzzzzzzzzzzzzzzzzzc"
       d="m 13.227945,55.560654 c 406.322425,0 -330.157855,694.838006 76.164555,694.838006 406.32241,0 -330.15755,-694.838006 76.16482,-694.838006 406.32239,8e-5 -330.15797,694.837946 76.16442,694.838006 406.32241,0 -330.157435,-694.838006 76.16496,-694.838006 406.32242,8e-5 -330.15808,694.837946 76.16432,694.838006 406.32239,0 -330.15731,-694.838006 76.16506,-694.838006 406.32244,1.28e-4 -330.15823,694.837856 76.16418,694.838006 406.32244,8e-5 -330.15716,-694.838136 76.16523,-694.838006 406.32241,1.28e-4 -330.1584,694.837856 76.16402,694.838006 406.32239,8e-5 -330.15702,-694.838136 76.16538,-694.838006 406.32241,1.28e-4 -330.15849,694.837856 76.16391,694.838006 406.3225,8e-5 -330.15692,-694.838136 76.1655,-694.838006 406.3224,1.28e-4 -330.15871,694.837736 76.1637,694.838006 406.3224,1.7e-4 -330.15673,-694.838232 76.1657,-694.838006 406.3225,1.28e-4 -330.15892,694.837736 76.1635,694.838006 406.3224,2.6e-4 -330.15653,-694.838232 76.1659,-694.838006 406.3224,2.23e-4 -330.15914,694.837736 76.1634,694.838006 406.3225,2.6e-4 -330.1564,-694.838311 76.1661,-694.838006 406.3225,2.23e-4 -330.1594,694.837736 76.163,694.838006 406.3224,2.6e-4 -330.1562,-694.838311 76.1661,-694.838006 406.3225,3.04e-4 -330.1593,694.837656 76.1632,694.838006 406.3224,2.6e-4 -330.1564,-694.838311 76.166,-694.838006 406.3226,3.04e-4 -330.1593,694.837656 76.1631,694.838006 406.3225,2.6e-4 -330.1562,-694.838311 76.1662,-694.838006 406.3225,3.04e-4 -330.1594,694.837656 76.1632,694.838006 406.3223,2.6e-4 -330.1566,-694.838311 76.1662,-694.838006 406.3221,3.04e-4 -330.1596,694.837656 76.1627,694.838006 406.3225,2.6e-4 -330.1561,-694.838311 76.1664,-694.838006 406.3223,3.04e-4 -330.1594,694.837656 76.1628,694.838006 406.3225,2.6e-4 -330.1562,-694.838311 76.1662,-694.838006 406.3225,3.04e-4 -330.1593,694.837656 76.1632,694.838006 406.3224,2.6e-4 -330.1562,-694.838311 76.1662,-694.838006 406.3224,3.04e-4 -330.1595,694.837656 76.163,694.838006 406.3224,2.6e-4 -330.1565,-694.838311 76.1662,-694.838006 406.3222,3.04e-4 -330.1595,694.837656 76.1628,694.838006 406.3226,2.6e-4 -330.1563,-694.838311 76.1662,-694.838006 406.3224,3.04e-4 -330.1594,694.837656 76.1631,694.838006 406.3224,2.6e-4 -330.1561,-694.838311 76.1662,-694.838006 406.3224,3.04e-4 -330.1595,694.837656 76.1632,694.838006 406.3221,2.6e-4 -330.1565,-694.838311 76.166,-694.838006 406.3225,3.04e-4 -330.1593,694.837656 76.1629,694.838006 406.3225,2.6e-4 -330.1559,-694.838409 76.1666,-694.838006"
       style="fill:none;stroke:#f40000;stroke-width:5.1619339;stroke-linecap:butt;stroke-linejoin:miter;stroke-miterlimit:4;stroke-opacity:1;stroke-dasharray:none;display:inline"
       id="path15359"
       inkscape:connector-curvature="0" />
  </g>
  <g
     style="display:inline"
     inkscape:label="4-green"
     id="layer4"
     inkscape:groupmode="layer">
    <path
       inkscape:connector-curvature="0"
       id="path7358-78"
       style="fill:none;stroke:#00a02e;stroke-width:5.1619339;stroke-linecap:butt;stroke-linejoin:miter;stroke-miterlimit:4;stroke-opacity:1;stroke-dasharray:none;display:inline"
       d="m 113.22795,55.560654 c 406.32242,0 -330.15786,694.838006 76.16455,694.838006 406.32241,0 -330.15755,-694.838006 76.16482,-694.838006 406.32239,8e-5 -330.15797,694.837946 76.16442,694.838006 406.32241,0 -330.157435,-694.838006 76.16496,-694.838006 406.32242,8e-5 -330.15808,694.837946 76.16432,694.838006 406.32239,0 -330.15731,-694.838006 76.16506,-694.838006 406.32244,1.28e-4 -330.15823,694.837856 76.16418,694.838006 406.32244,8e-5 -330.15716,-694.838136 76.16523,-694.838006 406.32241,1.28e-4 -330.1584,694.837856 76.16402,694.838006 406.32239,8e-5 -330.15702,-694.838136 76.16538,-694.838006 406.32241,1.28e-4 -330.15849,694.837856 76.16391,694.838006 406.3225,8e-5 -330.15692,-694.838136 76.1655,-694.838006 406.3224,1.28e-4 -330.15871,694.837736 76.1637,694.838006 406.3224,1.7e-4 -330.15673,-694.838232 76.1657,-694.838006 406.3225,1.28e-4 -330.15892,694.837736 76.1635,694.838006 406.3224,2.6e-4 -330.15653,-694.838232 76.1659,-694.838006 406.3224,2.23e-4 -330.1591,694.837736 76.1634,694.838006 406.3225,2.6e-4 -330.1564,-694.838311 76.1661,-694.838006 406.3225,2.23e-4 -330.1594,694.837736 76.163,694.838006 406.3224,2.6e-4 -330.1562,-694.838311 76.1661,-694.838006 406.3225,3.04e-4 -330.1593,694.837656 76.1632,694.838006 406.3224,2.6e-4 -330.1564,-694.838311 76.166,-694.838006 406.3226,3.04e-4 -330.1593,694.837656 76.1631,694.838006 406.3225,2.6e-4 -330.1562,-694.838311 76.1662,-694.838006 406.3225,3.04e-4 -330.1594,694.837656 76.1632,694.838006 406.3223,2.6e-4 -330.1566,-694.838311 76.1662,-694.838006 406.3221,3.04e-4 -330.1596,694.837656 76.1627,694.838006 406.3225,2.6e-4 -330.1561,-694.838311 76.1664,-694.838006 406.3223,3.04e-4 -330.1594,694.837656 76.1628,694.838006 406.3225,2.6e-4 -330.1562,-694.838311 76.1662,-694.838006 406.3225,3.04e-4 -330.1593,694.837656 76.1632,694.838006 406.3224,2.6e-4 -330.1562,-694.838311 76.1662,-694.838006 406.3224,3.04e-4 -330.1595,694.837656 76.163,694.838006 406.3224,2.6e-4 -330.1565,-694.838311 76.1662,-694.838006 406.3222,3.04e-4 -330.1595,694.837656 76.1628,694.838006 406.3226,2.6e-4 -330.1563,-694.838311 76.1662,-694.838006 406.3224,3.04e-4 -330.1594,694.837656 76.1631,694.838006 406.3224,2.6e-4 -330.1561,-694.838311 76.1662,-694.838006 406.3224,3.04e-4 -330.1595,694.837656 76.1632,694.838006 406.3221,2.6e-4 -330.1565,-694.838311 76.166,-694.838006 406.3225,3.04e-4 -330.1593,694.837656 76.1629,694.838006 406.3225,2.6e-4 -330.1559,-694.838409 76.1666,-694.838006"
       sodipodi:nodetypes="cczzzzzzzzzzzzzzzzzzzzzzzzzzzzzzzzzzzzzzzzc" />
    <path
       sodipodi:nodetypes="cczzzzzzzzzzzzzzzzzzzzzzzzzzzzzzzzzzzzzzzzc"
       d="m -6.77205,55.560654 c 406.32242,0 -330.15786,694.838006 76.16455,694.838006 406.32241,0 -330.15755,-694.838006 76.16482,-694.838006 406.32239,8e-5 -330.15797,694.837946 76.16442,694.838006 406.32241,0 -330.15744,-694.838006 76.16496,-694.838006 406.32242,8e-5 -330.15808,694.837946 76.16432,694.838006 406.32239,0 -330.15731,-694.838006 76.16506,-694.838006 406.32244,1.28e-4 -330.15823,694.837856 76.16418,694.838006 406.32244,8e-5 -330.15716,-694.838136 76.16523,-694.838006 406.32241,1.28e-4 -330.1584,694.837856 76.16402,694.838006 406.32239,8e-5 -330.15702,-694.838136 76.16538,-694.838006 406.32241,1.28e-4 -330.15849,694.837856 76.16391,694.838006 406.3225,8e-5 -330.15692,-694.838136 76.1655,-694.838006 406.3224,1.28e-4 -330.15871,694.837736 76.1637,694.838006 406.3224,1.7e-4 -330.15673,-694.838232 76.1657,-694.838006 406.3225,1.28e-4 -330.15892,694.837736 76.1635,694.838006 406.3224,2.6e-4 -330.15653,-694.838232 76.1659,-694.838006 406.3224,2.23e-4 -330.1591,694.837736 76.1634,694.838006 406.3225,2.6e-4 -330.1564,-694.838311 76.1661,-694.838006 406.3225,2.23e-4 -330.1594,694.837736 76.163,694.838006 406.3224,2.6e-4 -330.1562,-694.838311 76.1661,-694.838006 406.3225,3.04e-4 -330.1593,694.837656 76.1632,694.838006 406.3224,2.6e-4 -330.1564,-694.838311 76.166,-694.838006 406.3226,3.04e-4 -330.1593,694.837656 76.1631,694.838006 406.3225,2.6e-4 -330.1562,-694.838311 76.1662,-694.838006 406.3225,3.04e-4 -330.1594,694.837656 76.1632,694.838006 406.3223,2.6e-4 -330.1566,-694.838311 76.1662,-694.838006 406.3221,3.04e-4 -330.1596,694.837656 76.1627,694.838006 406.3225,2.6e-4 -330.1561,-694.838311 76.1664,-694.838006 406.3223,3.04e-4 -330.1594,694.837656 76.1628,694.838006 406.3225,2.6e-4 -330.1562,-694.838311 76.1662,-694.838006 406.3225,3.04e-4 -330.1593,694.837656 76.1632,694.838006 406.3224,2.6e-4 -330.1562,-694.838311 76.1662,-694.838006 406.3224,3.04e-4 -330.1595,694.837656 76.163,694.838006 406.3224,2.6e-4 -330.1565,-694.838311 76.1662,-694.838006 406.3222,3.04e-4 -330.1595,694.837656 76.1628,694.838006 406.3226,2.6e-4 -330.1563,-694.838311 76.1662,-694.838006 406.3224,3.04e-4 -330.1594,694.837656 76.1631,694.838006 406.3224,2.6e-4 -330.1561,-694.838311 76.1662,-694.838006 406.3224,3.04e-4 -330.1595,694.837656 76.1632,694.838006 406.3221,2.6e-4 -330.1565,-694.838311 76.166,-694.838006 406.3225,3.04e-4 -330.1593,694.837656 76.1629,694.838006 406.3225,2.6e-4 -330.1559,-694.838409 76.1666,-694.838006"
       style="fill:none;stroke:#00a02e;stroke-width:5.1619339;stroke-linecap:butt;stroke-linejoin:miter;stroke-miterlimit:4;stroke-opacity:1;stroke-dasharray:none;display:inline"
       id="path15370"
       inkscape:connector-curvature="0" />
  </g>
</svg>
