<?xml version="1.0" encoding="UTF-8" standalone="no"?>
<!-- Created with Inkscape (http://www.inkscape.org/) -->

<svg
   xmlns:dc="http://purl.org/dc/elements/1.1/"
   xmlns:cc="http://creativecommons.org/ns#"
   xmlns:rdf="http://www.w3.org/1999/02/22-rdf-syntax-ns#"
   xmlns:svg="http://www.w3.org/2000/svg"
   xmlns="http://www.w3.org/2000/svg"
   xmlns:sodipodi="http://sodipodi.sourceforge.net/DTD/sodipodi-0.dtd"
   xmlns:inkscape="http://www.inkscape.org/namespaces/inkscape"
   sodipodi:docname="traditional2-layers.svg"
   inkscape:version="0.48.5 r10040"
   version="1.1"
   id="svg27345"
   height="800"
   width="3200">
  <sodipodi:namedview
     id="base"
     pagecolor="#ffffff"
     bordercolor="#666666"
     borderopacity="1.0"
     inkscape:pageopacity="0.0"
     inkscape:pageshadow="2"
     inkscape:zoom="0.1825"
     inkscape:cx="1600"
     inkscape:cy="400"
     inkscape:document-units="px"
     inkscape:current-layer="layer1"
     showgrid="false"
     inkscape:window-width="681"
     inkscape:window-height="442"
     inkscape:window-x="-3"
     inkscape:window-y="0"
     inkscape:window-maximized="0" />
  <defs
     id="defs27347">
    <inkscape:perspective
       id="perspective27353"
       inkscape:persp3d-origin="372.04724 : 350.78739 : 1"
       inkscape:vp_z="744.09448 : 526.18109 : 1"
       inkscape:vp_y="0 : 1000 : 0"
       inkscape:vp_x="0 : 526.18109 : 1"
       sodipodi:type="inkscape:persp3d" />
    <inkscape:perspective
       id="perspective6460"
       inkscape:persp3d-origin="0.5 : 0.33333333 : 1"
       inkscape:vp_z="1 : 0.5 : 1"
       inkscape:vp_y="0 : 1000 : 0"
       inkscape:vp_x="0 : 0.5 : 1"
       sodipodi:type="inkscape:persp3d" />
    <inkscape:perspective
       id="perspective23322"
       inkscape:persp3d-origin="0.5 : 0.33333333 : 1"
       inkscape:vp_z="1 : 0.5 : 1"
       inkscape:vp_y="0 : 1000 : 0"
       inkscape:vp_x="0 : 0.5 : 1"
       sodipodi:type="inkscape:persp3d" />
    <inkscape:perspective
       id="perspective23344"
       inkscape:persp3d-origin="0.5 : 0.33333333 : 1"
       inkscape:vp_z="1 : 0.5 : 1"
       inkscape:vp_y="0 : 1000 : 0"
       inkscape:vp_x="0 : 0.5 : 1"
       sodipodi:type="inkscape:persp3d" />
    <inkscape:perspective
       id="perspective23344-6"
       inkscape:persp3d-origin="0.5 : 0.33333333 : 1"
       inkscape:vp_z="1 : 0.5 : 1"
       inkscape:vp_y="0 : 1000 : 0"
       inkscape:vp_x="0 : 0.5 : 1"
       sodipodi:type="inkscape:persp3d" />
    <inkscape:perspective
       id="perspective23375"
       inkscape:persp3d-origin="0.5 : 0.33333333 : 1"
       inkscape:vp_z="1 : 0.5 : 1"
       inkscape:vp_y="0 : 1000 : 0"
       inkscape:vp_x="0 : 0.5 : 1"
       sodipodi:type="inkscape:persp3d" />
    <inkscape:perspective
       id="perspective23375-0"
       inkscape:persp3d-origin="0.5 : 0.33333333 : 1"
       inkscape:vp_z="1 : 0.5 : 1"
       inkscape:vp_y="0 : 1000 : 0"
       inkscape:vp_x="0 : 0.5 : 1"
       sodipodi:type="inkscape:persp3d" />
    <inkscape:perspective
       id="perspective23375-9"
       inkscape:persp3d-origin="0.5 : 0.33333333 : 1"
       inkscape:vp_z="1 : 0.5 : 1"
       inkscape:vp_y="0 : 1000 : 0"
       inkscape:vp_x="0 : 0.5 : 1"
       sodipodi:type="inkscape:persp3d" />
    <inkscape:perspective
       id="perspective23375-91"
       inkscape:persp3d-origin="0.5 : 0.33333333 : 1"
       inkscape:vp_z="1 : 0.5 : 1"
       inkscape:vp_y="0 : 1000 : 0"
       inkscape:vp_x="0 : 0.5 : 1"
       sodipodi:type="inkscape:persp3d" />
    <inkscape:perspective
       id="perspective23375-3"
       inkscape:persp3d-origin="0.5 : 0.33333333 : 1"
       inkscape:vp_z="1 : 0.5 : 1"
       inkscape:vp_y="0 : 1000 : 0"
       inkscape:vp_x="0 : 0.5 : 1"
       sodipodi:type="inkscape:persp3d" />
    <inkscape:perspective
       id="perspective23375-5"
       inkscape:persp3d-origin="0.5 : 0.33333333 : 1"
       inkscape:vp_z="1 : 0.5 : 1"
       inkscape:vp_y="0 : 1000 : 0"
       inkscape:vp_x="0 : 0.5 : 1"
       sodipodi:type="inkscape:persp3d" />
    <inkscape:perspective
       id="perspective23375-8"
       inkscape:persp3d-origin="0.5 : 0.33333333 : 1"
       inkscape:vp_z="1 : 0.5 : 1"
       inkscape:vp_y="0 : 1000 : 0"
       inkscape:vp_x="0 : 0.5 : 1"
       sodipodi:type="inkscape:persp3d" />
    <inkscape:perspective
       id="perspective23375-4"
       inkscape:persp3d-origin="0.5 : 0.33333333 : 1"
       inkscape:vp_z="1 : 0.5 : 1"
       inkscape:vp_y="0 : 1000 : 0"
       inkscape:vp_x="0 : 0.5 : 1"
       sodipodi:type="inkscape:persp3d" />
    <inkscape:perspective
       id="perspective23375-38"
       inkscape:persp3d-origin="0.5 : 0.33333333 : 1"
       inkscape:vp_z="1 : 0.5 : 1"
       inkscape:vp_y="0 : 1000 : 0"
       inkscape:vp_x="0 : 0.5 : 1"
       sodipodi:type="inkscape:persp3d" />
    <inkscape:perspective
       id="perspective23375-80"
       inkscape:persp3d-origin="0.5 : 0.33333333 : 1"
       inkscape:vp_z="1 : 0.5 : 1"
       inkscape:vp_y="0 : 1000 : 0"
       inkscape:vp_x="0 : 0.5 : 1"
       sodipodi:type="inkscape:persp3d" />
    <inkscape:perspective
       id="perspective23375-03"
       inkscape:persp3d-origin="0.5 : 0.33333333 : 1"
       inkscape:vp_z="1 : 0.5 : 1"
       inkscape:vp_y="0 : 1000 : 0"
       inkscape:vp_x="0 : 0.5 : 1"
       sodipodi:type="inkscape:persp3d" />
    <inkscape:perspective
       id="perspective23375-6"
       inkscape:persp3d-origin="0.5 : 0.33333333 : 1"
       inkscape:vp_z="1 : 0.5 : 1"
       inkscape:vp_y="0 : 1000 : 0"
       inkscape:vp_x="0 : 0.5 : 1"
       sodipodi:type="inkscape:persp3d" />
    <inkscape:perspective
       id="perspective23375-1"
       inkscape:persp3d-origin="0.5 : 0.33333333 : 1"
       inkscape:vp_z="1 : 0.5 : 1"
       inkscape:vp_y="0 : 1000 : 0"
       inkscape:vp_x="0 : 0.5 : 1"
       sodipodi:type="inkscape:persp3d" />
    <inkscape:perspective
       id="perspective23375-88"
       inkscape:persp3d-origin="0.5 : 0.33333333 : 1"
       inkscape:vp_z="1 : 0.5 : 1"
       inkscape:vp_y="0 : 1000 : 0"
       inkscape:vp_x="0 : 0.5 : 1"
       sodipodi:type="inkscape:persp3d" />
  </defs>
  <metadata
     id="metadata27350">
    <rdf:RDF>
      <cc:Work
         rdf:about="">
        <dc:format>image/svg+xml</dc:format>
        <dc:type
           rdf:resource="http://purl.org/dc/dcmitype/StillImage" />
        <dc:title />
      </cc:Work>
    </rdf:RDF>
  </metadata>
  <g
     style="display:inline"
     inkscape:label="1-Red"
     id="layer3"
     inkscape:groupmode="layer"
     transform="translate(0,-200)">
    <g
       style="stroke:#ff1717;stroke-opacity:1"
       id="g7818"
       transform="matrix(1,0,0,1.1875335,0,-52.547849)">
      <path
         sodipodi:nodetypes="ccccccccccccccccccccccccccccccccccccccccccccccccccccccccccc"
         id="path24415"
         d="M -1.3298023e-6,301.00532 55.168358,253.80158 l 55.168352,47.20374 55.16835,-47.20374 55.16836,47.20374 55.16837,-47.20374 55.16836,47.20374 55.16835,-47.20374 55.16836,47.20374 55.16836,-47.20374 55.16835,47.20374 55.16839,-47.20374 55.16839,47.20374 55.16838,-47.20374 55.16839,47.20374 55.16838,-47.20374 55.16839,47.20374 55.16839,-47.20374 55.16845,47.20374 55.16837,-47.20374 55.1683,47.20374 55.1683,-47.20374 55.1684,47.20374 55.1683,-47.20374 55.1683,47.20374 55.1683,-47.20374 55.1683,47.20374 55.1683,-47.20374 55.1683,47.20374 55.1684,-47.20374 55.1683,47.20374 55.1683,-47.20374 55.1683,47.20374 55.1684,-47.20374 55.1683,47.20374 55.1683,-47.20374 55.1684,47.20374 55.1683,-47.20374 55.1683,47.20374 55.1685,-47.20374 55.1684,47.20374 55.1684,-47.20374 55.1685,47.20374 55.1685,-47.20374 55.1684,47.20374 55.1684,-47.20374 55.1685,47.20374 55.1685,-47.20374 55.1684,47.20374 55.1685,-47.20374 55.1684,47.20374 55.1684,-47.20374 55.1685,47.20374 55.1685,-47.20374 55.1684,47.20374 55.1684,-47.20374 55.1685,47.20374 55.1684,-47.20374 55.1684,47.20374"
         style="fill:none;stroke:#ff1717;stroke-width:3.30353975;stroke-linecap:butt;stroke-linejoin:miter;stroke-miterlimit:4;stroke-opacity:1;stroke-dasharray:none;display:inline"
         inkscape:connector-curvature="0" />
      <path
         inkscape:connector-curvature="0"
         sodipodi:nodetypes="ccccccccccccccccccccccccccccccccccccccccccccccccccccccccccc"
         id="path23965"
         d="M -1.3298023e-6,253.80158 55.168358,301.00534 l 55.168352,-47.20376 55.16835,47.20376 55.16836,-47.20376 55.16837,47.20376 55.16836,-47.20376 55.16835,47.20376 55.16836,-47.20376 55.16836,47.20376 55.16835,-47.20376 55.16839,47.20376 55.16839,-47.20376 55.16838,47.20376 55.16839,-47.20376 55.16838,47.20376 55.16839,-47.20376 55.16839,47.20376 55.16845,-47.20376 55.16837,47.20376 55.1683,-47.20376 55.1683,47.20376 55.1684,-47.20376 55.1683,47.20376 55.1683,-47.20376 55.1683,47.20376 55.1683,-47.20376 55.1683,47.20376 55.1683,-47.20376 55.1684,47.20376 55.1683,-47.20376 55.1683,47.20376 55.1683,-47.20376 55.1684,47.20376 55.1683,-47.20376 55.1683,47.20376 55.1684,-47.20376 55.1683,47.20376 55.1683,-47.20376 55.1685,47.20376 55.1684,-47.20376 55.1684,47.20376 55.1685,-47.20376 55.1685,47.20376 55.1684,-47.20376 55.1684,47.20376 55.1685,-47.20376 55.1685,47.20376 55.1684,-47.20376 55.1685,47.20376 55.1684,-47.20376 55.1684,47.20376 55.1685,-47.20376 55.1685,47.20376 55.1684,-47.20376 55.1684,47.20376 55.1685,-47.20376 55.1684,47.20376 55.1684,-47.20376"
         style="fill:none;stroke:#ff1717;stroke-width:3.30353975;stroke-linecap:butt;stroke-linejoin:miter;stroke-miterlimit:4;stroke-opacity:1;stroke-dasharray:none;display:inline" />
    </g>
    <g
       style="stroke:#ff1717;stroke-opacity:1"
       transform="matrix(1,0,0,1.1875335,0,593.45215)"
       id="g7843">
      <path
         inkscape:connector-curvature="0"
         style="fill:none;stroke:#ff1717;stroke-width:3.30353975;stroke-linecap:butt;stroke-linejoin:miter;stroke-miterlimit:4;stroke-opacity:1;stroke-dasharray:none;display:inline"
         d="M -1.3298023e-6,301.00532 55.168358,253.80158 l 55.168352,47.20374 55.16835,-47.20374 55.16836,47.20374 55.16837,-47.20374 55.16836,47.20374 55.16835,-47.20374 55.16836,47.20374 55.16836,-47.20374 55.16835,47.20374 55.16839,-47.20374 55.16839,47.20374 55.16838,-47.20374 55.16839,47.20374 55.16838,-47.20374 55.16839,47.20374 55.16839,-47.20374 55.16845,47.20374 55.16837,-47.20374 55.1683,47.20374 55.1683,-47.20374 55.1684,47.20374 55.1683,-47.20374 55.1683,47.20374 55.1683,-47.20374 55.1683,47.20374 55.1683,-47.20374 55.1683,47.20374 55.1684,-47.20374 55.1683,47.20374 55.1683,-47.20374 55.1683,47.20374 55.1684,-47.20374 55.1683,47.20374 55.1683,-47.20374 55.1684,47.20374 55.1683,-47.20374 55.1683,47.20374 55.1685,-47.20374 55.1684,47.20374 55.1684,-47.20374 55.1685,47.20374 55.1685,-47.20374 55.1684,47.20374 55.1684,-47.20374 55.1685,47.20374 55.1685,-47.20374 55.1684,47.20374 55.1685,-47.20374 55.1684,47.20374 55.1684,-47.20374 55.1685,47.20374 55.1685,-47.20374 55.1684,47.20374 55.1684,-47.20374 55.1685,47.20374 55.1684,-47.20374 55.1684,47.20374"
         id="path7845"
         sodipodi:nodetypes="ccccccccccccccccccccccccccccccccccccccccccccccccccccccccccc" />
      <path
         style="fill:none;stroke:#ff1717;stroke-width:3.30353975;stroke-linecap:butt;stroke-linejoin:miter;stroke-miterlimit:4;stroke-opacity:1;stroke-dasharray:none;display:inline"
         d="M -1.3298023e-6,253.80158 55.168358,301.00534 l 55.168352,-47.20376 55.16835,47.20376 55.16836,-47.20376 55.16837,47.20376 55.16836,-47.20376 55.16835,47.20376 55.16836,-47.20376 55.16836,47.20376 55.16835,-47.20376 55.16839,47.20376 55.16839,-47.20376 55.16838,47.20376 55.16839,-47.20376 55.16838,47.20376 55.16839,-47.20376 55.16839,47.20376 55.16845,-47.20376 55.16837,47.20376 55.1683,-47.20376 55.1683,47.20376 55.1684,-47.20376 55.1683,47.20376 55.1683,-47.20376 55.1683,47.20376 55.1683,-47.20376 55.1683,47.20376 55.1683,-47.20376 55.1684,47.20376 55.1683,-47.20376 55.1683,47.20376 55.1683,-47.20376 55.1684,47.20376 55.1683,-47.20376 55.1683,47.20376 55.1684,-47.20376 55.1683,47.20376 55.1683,-47.20376 55.1685,47.20376 55.1684,-47.20376 55.1684,47.20376 55.1685,-47.20376 55.1685,47.20376 55.1684,-47.20376 55.1684,47.20376 55.1685,-47.20376 55.1685,47.20376 55.1684,-47.20376 55.1685,47.20376 55.1684,-47.20376 55.1684,47.20376 55.1685,-47.20376 55.1685,47.20376 55.1684,-47.20376 55.1684,47.20376 55.1685,-47.20376 55.1684,47.20376 55.1684,-47.20376"
         id="path7847"
         sodipodi:nodetypes="ccccccccccccccccccccccccccccccccccccccccccccccccccccccccccc"
         inkscape:connector-curvature="0" />
    </g>
  </g>
  <g
     style="display:inline"
     inkscape:label="2-orange"
     id="layer4"
     inkscape:groupmode="layer"
     transform="translate(0,-200)">
    <path
       id="path7796-4"
       style="fill:none;stroke:#ffc417;stroke-width:3.59999943;stroke-linecap:butt;stroke-linejoin:miter;stroke-miterlimit:4;stroke-opacity:1;stroke-dasharray:none;display:inline"
       d="m -0.3818686,346.58623 c 10.192107,0 17.3892926,-8.78776 27.5813996,-8.78776 10.192107,0 17.389284,8.78776 27.58139,8.78776 10.192106,0 17.389288,-8.78776 27.581398,-8.78776 10.192106,0 17.389272,8.78776 27.581391,8.78776 10.19211,0 17.38928,-8.78776 27.58139,-8.78776 10.19211,0 17.38929,8.78776 27.5814,8.78776 10.19211,0 17.38928,-8.78776 27.58139,-8.78776 10.19211,0 17.38928,8.78776 27.58139,8.78776 10.19211,0 17.38929,-8.78776 27.5814,-8.78776 10.19211,0 17.38928,8.78776 27.58139,8.78776 10.19211,0 17.38928,-8.78776 27.58139,-8.78776 10.19211,0 17.38929,8.78776 27.5814,8.78776 10.19211,0 17.38928,-8.78776 27.58139,-8.78776 10.19211,0 17.38928,8.78776 27.58139,8.78776 10.19211,0 17.38929,-8.78776 27.5814,-8.78776 10.19211,0 17.38928,8.78776 27.58139,8.78776 10.19211,0 17.38928,-8.78776 27.58139,-8.78776 10.19211,0 17.38929,8.78776 27.5814,8.78776 10.19211,0 17.38928,-8.78776 27.58139,-8.78776 10.19211,0 17.38929,8.78776 27.5814,8.78776 10.19211,0 17.38928,-8.78776 27.58139,-8.78776 10.19211,0 17.38928,8.78776 27.58139,8.78776 10.19211,0 17.38929,-8.78776 27.5814,-8.78776 10.19211,0 17.38928,8.78776 27.58139,8.78776 10.19211,0 17.38928,-8.78776 27.58139,-8.78776 10.19211,0 17.38929,8.78776 27.5814,8.78776 10.19211,0 17.38932,-8.78776 27.58143,-8.78776 10.19211,0 17.38931,8.78776 27.5814,8.78776 10.19209,-10e-6 17.38921,-8.78776 27.5813,-8.78776 10.19209,-1e-5 17.38929,8.78776 27.5814,8.78776 10.19211,0 17.38929,-8.78776 27.5814,-8.78776 10.19211,0 17.38929,8.78776 27.5814,8.78776 10.19211,0 17.38929,-8.78776 27.5814,-8.78776 10.19211,0 17.38929,8.78776 27.5814,8.78776 10.19211,0 17.38929,-8.78776 27.5814,-8.78776 10.19213,0 17.38933,8.78776 27.58142,8.78776 10.19208,0 17.38928,-8.78776 27.58138,-8.78776 10.1921,0 17.3893,8.78776 27.5814,8.78776 10.1921,0 17.3893,-8.78776 27.5814,-8.78776 10.1921,0 17.3893,8.78776 27.5814,8.78776 10.1921,0 17.3893,-8.78776 27.5814,-8.78776 10.1921,0 17.3893,8.78776 27.5814,8.78776 10.1921,0 17.3893,-8.78776 27.5814,-8.78776 10.1921,0 17.3893,8.78776 27.5814,8.78776 10.1921,-10e-6 17.3892,-8.78776 27.5813,-8.78776 10.1921,-1e-5 17.3893,8.78776 27.5814,8.78776 10.1921,0 17.3893,-8.78776 27.5814,-8.78776 10.1921,0 17.3893,8.78776 27.5814,8.78776 10.1921,0 17.3893,-8.78776 27.5814,-8.78776 10.1921,0 17.3893,8.78776 27.5814,8.78776 10.1921,0 17.3893,-8.78776 27.5814,-8.78776 10.1921,0 17.3893,8.78776 27.5814,8.78776 10.1921,0 17.3893,-8.78776 27.5814,-8.78776 10.1921,0 17.3893,8.78776 27.5814,8.78776 10.1921,0 17.3893,-8.78776 27.5814,-8.78776 10.1921,0 17.3893,8.78776 27.5814,8.78776 10.1921,0 17.3893,-8.78776 27.5814,-8.78776 10.1921,0 17.3893,8.78776 27.5814,8.78776 10.1921,0 17.3893,-8.78777 27.5814,-8.78776 10.1921,0 17.3892,8.78775 27.5813,8.78776 10.1921,0 17.3893,-8.78776 27.5814,-8.78776 10.1921,0 17.3893,8.78776 27.5814,8.78776 10.1921,0 17.3893,-8.78776 27.5814,-8.78776 10.1921,0 17.3893,8.78776 27.5814,8.78776 10.1921,0 17.3893,-8.78776 27.5814,-8.78776 10.1921,0 17.3893,8.78776 27.5814,8.78776 10.1921,0 17.3893,-8.78776 27.5814,-8.78776 10.1921,0 17.3893,8.78776 27.5814,8.78776 10.1921,0 17.3893,-8.78776 27.5814,-8.78776 10.1921,0 17.3893,8.78776 27.5814,8.78776 10.1921,0 17.3893,-8.78776 27.5814,-8.78776 10.1921,0 17.3893,8.78776 27.5814,8.78776 10.1921,0 17.3893,-8.78776 27.5814,-8.78776 10.1921,0 17.3893,8.78776 27.5814,8.78776 10.1921,0 17.3893,-8.78777 27.5814,-8.78776 10.1921,0 17.3892,8.78775 27.5813,8.78776 10.1921,0 17.3893,-8.78776 27.5814,-8.78776 10.1921,0 17.3893,8.78776 27.5814,8.78776 10.1921,0 17.3893,-8.78776 27.5814,-8.78776 10.1921,0 17.3893,8.78776 27.5814,8.78776 10.1921,0 17.3893,-8.78776 27.5814,-8.78776 10.1921,0 17.3893,8.78776 27.5814,8.78776 10.1921,0 17.3893,-8.78776 27.5814,-8.78776 10.1921,0 17.3893,8.78776 27.5814,8.78776 10.1921,0 17.3893,-8.78776 27.5814,-8.78776 10.1921,0 17.3893,8.78776 27.5814,8.78776 10.1921,0 17.3893,-8.78776 27.5814,-8.78776 10.1921,0 17.3893,8.78776 27.5814,8.78776 10.1921,0 17.3893,-8.78776 27.5814,-8.78776 10.1921,0 17.3893,8.78776 27.5814,8.78776 10.1921,-10e-6 17.3892,-8.78776 27.5813,-8.78776 10.1921,-1e-5 17.3893,8.78776 27.5814,8.78776 10.1921,0 17.3893,-8.78776 27.5814,-8.78776 10.1921,0 17.3893,8.78776 27.5814,8.78776 10.1921,0 17.3893,-8.78776 27.5814,-8.78776 10.1921,0 17.3893,8.78776 27.5814,8.78776 10.1921,0 17.3893,-8.78776 27.5814,-8.78776 10.1921,0 17.3893,8.78776 27.5814,8.78776 10.1921,0 17.3893,-8.78776 27.5814,-8.78776 10.1921,0 17.3893,8.78776 27.5814,8.78776 10.1921,0 17.3893,-8.78776 27.5814,-8.78776 10.1921,0 17.3893,8.78776 27.5814,8.78776 10.1921,0 17.3893,-8.78776 27.5814,-8.78776 10.1921,0 17.3893,8.78776 27.5814,8.78776 10.1921,0 17.3893,-8.78777 27.5814,-8.78776 10.1921,0 17.3892,8.78775 27.5813,8.78776 10.1921,0 17.3893,-8.78776 27.5814,-8.78776 10.1921,0 17.3893,8.78776 27.5814,8.78776 10.1921,0 17.3893,-8.78776 27.5814,-8.78776 10.1921,0 17.3893,8.78776 27.5814,8.78776 10.1921,0 17.3893,-8.78776 27.5814,-8.78776 10.1921,0 17.3893,8.78776 27.5814,8.78776 10.1921,0 17.3893,-8.78776 27.5814,-8.78776 10.1921,0 17.3893,8.78776 27.5814,8.78776 10.1921,0 17.3893,-8.78776 27.5814,-8.78776 10.1921,0 17.3893,8.78776 27.5814,8.78776"
       inkscape:connector-curvature="0"
       sodipodi:nodetypes="czzzzzzzzzzzzzzzzzzzzzzzzzzzzzzzzzzzzzzzzzzzzzzzzzzzzzzzzzzzzzzzzzzzzzzzzzzzzzzzzzzzzzzzzzzzzzzzzzzzzzzzzzzzzzzzzzzzc" />
    <path
       sodipodi:nodetypes="czzzzzzzzzzzzzzzzzzzzzzzzzzzzzzzzzzzzzzzzzzzzzzzzzzzzzzzzzzzzzzzzzzzzzzzzzzzzzzzzzzzzzzzzzzzzzzzzzzzzzzzzzzzzzzzzzzzc"
       inkscape:connector-curvature="0"
       d="m -0.3818686,207.16986 c 10.192107,0 17.3892926,8.78775 27.5813996,8.78775 10.192107,0 17.389284,-8.78775 27.58139,-8.78775 10.192106,0 17.389288,8.78775 27.581398,8.78775 10.192106,0 17.389272,-8.78775 27.581391,-8.78775 10.19211,0 17.38928,8.78775 27.58139,8.78775 10.19211,0 17.38929,-8.78775 27.5814,-8.78775 10.19211,0 17.38928,8.78775 27.58139,8.78775 10.19211,0 17.38928,-8.78775 27.58139,-8.78775 10.19211,0 17.38929,8.78775 27.5814,8.78775 10.19211,0 17.38928,-8.78775 27.58139,-8.78775 10.19211,0 17.38928,8.78775 27.58139,8.78775 10.19211,0 17.38929,-8.78775 27.5814,-8.78775 10.19211,0 17.38928,8.78775 27.58139,8.78775 10.19211,0 17.38928,-8.78775 27.58139,-8.78775 10.19211,0 17.38929,8.78775 27.5814,8.78775 10.19211,0 17.38928,-8.78775 27.58139,-8.78775 10.19211,0 17.38928,8.78775 27.58139,8.78775 10.19211,0 17.38929,-8.78775 27.5814,-8.78775 10.19211,0 17.38928,8.78775 27.58139,8.78775 10.19211,0 17.38929,-8.78775 27.5814,-8.78775 10.19211,0 17.38928,8.78775 27.58139,8.78775 10.19211,0 17.38928,-8.78775 27.58139,-8.78775 10.19211,0 17.38929,8.78775 27.5814,8.78775 10.19211,0 17.38928,-8.78775 27.58139,-8.78775 10.19211,0 17.38928,8.78775 27.58139,8.78775 10.19211,0 17.38929,-8.78775 27.5814,-8.78775 10.19211,0 17.38932,8.78775 27.58143,8.78775 10.19211,0 17.38931,-8.78775 27.5814,-8.78775 10.19209,2e-5 17.38921,8.78775 27.5813,8.78775 10.19209,1e-5 17.38929,-8.78775 27.5814,-8.78775 10.19211,0 17.38929,8.78775 27.5814,8.78775 10.19211,0 17.38929,-8.78775 27.5814,-8.78775 10.19211,0 17.38929,8.78775 27.5814,8.78775 10.19211,0 17.38929,-8.78775 27.5814,-8.78775 10.19211,0 17.38929,8.78775 27.5814,8.78775 10.19213,0 17.38933,-8.78775 27.58142,-8.78775 10.19208,0 17.38928,8.78775 27.58138,8.78775 10.1921,0 17.3893,-8.78775 27.5814,-8.78775 10.1921,0 17.3893,8.78775 27.5814,8.78775 10.1921,0 17.3893,-8.78775 27.5814,-8.78775 10.1921,0 17.3893,8.78775 27.5814,8.78775 10.1921,0 17.3893,-8.78775 27.5814,-8.78775 10.1921,0 17.3893,8.78775 27.5814,8.78775 10.1921,0 17.3893,-8.78775 27.5814,-8.78775 10.1921,2e-5 17.3892,8.78775 27.5813,8.78775 10.1921,1e-5 17.3893,-8.78775 27.5814,-8.78775 10.1921,0 17.3893,8.78775 27.5814,8.78775 10.1921,0 17.3893,-8.78775 27.5814,-8.78775 10.1921,0 17.3893,8.78775 27.5814,8.78775 10.1921,0 17.3893,-8.78775 27.5814,-8.78775 10.1921,0 17.3893,8.78775 27.5814,8.78775 10.1921,0 17.3893,-8.78775 27.5814,-8.78775 10.1921,0 17.3893,8.78775 27.5814,8.78775 10.1921,0 17.3893,-8.78775 27.5814,-8.78775 10.1921,0 17.3893,8.78775 27.5814,8.78775 10.1921,0 17.3893,-8.78775 27.5814,-8.78775 10.1921,0 17.3893,8.78775 27.5814,8.78775 10.1921,0 17.3893,-8.78775 27.5814,-8.78775 10.1921,0 17.3893,8.78776 27.5814,8.78775 10.1921,0 17.3892,-8.78773 27.5813,-8.78775 10.1921,0 17.3893,8.78775 27.5814,8.78775 10.1921,0 17.3893,-8.78775 27.5814,-8.78775 10.1921,0 17.3893,8.78775 27.5814,8.78775 10.1921,0 17.3893,-8.78775 27.5814,-8.78775 10.1921,0 17.3893,8.78775 27.5814,8.78775 10.1921,0 17.3893,-8.78775 27.5814,-8.78775 10.1921,0 17.3893,8.78775 27.5814,8.78775 10.1921,0 17.3893,-8.78775 27.5814,-8.78775 10.1921,0 17.3893,8.78775 27.5814,8.78775 10.1921,0 17.3893,-8.78775 27.5814,-8.78775 10.1921,0 17.3893,8.78775 27.5814,8.78775 10.1921,0 17.3893,-8.78775 27.5814,-8.78775 10.1921,0 17.3893,8.78775 27.5814,8.78775 10.1921,0 17.3893,-8.78775 27.5814,-8.78775 10.1921,0 17.3893,8.78776 27.5814,8.78775 10.1921,0 17.3892,-8.78773 27.5813,-8.78775 10.1921,0 17.3893,8.78775 27.5814,8.78775 10.1921,0 17.3893,-8.78775 27.5814,-8.78775 10.1921,0 17.3893,8.78775 27.5814,8.78775 10.1921,0 17.3893,-8.78775 27.5814,-8.78775 10.1921,0 17.3893,8.78775 27.5814,8.78775 10.1921,0 17.3893,-8.78775 27.5814,-8.78775 10.1921,0 17.3893,8.78775 27.5814,8.78775 10.1921,0 17.3893,-8.78775 27.5814,-8.78775 10.1921,0 17.3893,8.78775 27.5814,8.78775 10.1921,0 17.3893,-8.78775 27.5814,-8.78775 10.1921,0 17.3893,8.78775 27.5814,8.78775 10.1921,0 17.3893,-8.78775 27.5814,-8.78775 10.1921,0 17.3893,8.78775 27.5814,8.78775 10.1921,0 17.3893,-8.78775 27.5814,-8.78775 10.1921,2e-5 17.3892,8.78775 27.5813,8.78775 10.1921,1e-5 17.3893,-8.78775 27.5814,-8.78775 10.1921,0 17.3893,8.78775 27.5814,8.78775 10.1921,0 17.3893,-8.78775 27.5814,-8.78775 10.1921,0 17.3893,8.78775 27.5814,8.78775 10.1921,0 17.3893,-8.78775 27.5814,-8.78775 10.1921,0 17.3893,8.78775 27.5814,8.78775 10.1921,0 17.3893,-8.78775 27.5814,-8.78775 10.1921,0 17.3893,8.78775 27.5814,8.78775 10.1921,0 17.3893,-8.78775 27.5814,-8.78775 10.1921,0 17.3893,8.78775 27.5814,8.78775 10.1921,0 17.3893,-8.78775 27.5814,-8.78775 10.1921,0 17.3893,8.78775 27.5814,8.78775 10.1921,0 17.3893,-8.78775 27.5814,-8.78775 10.1921,0 17.3893,8.78776 27.5814,8.78775 10.1921,0 17.3892,-8.78773 27.5813,-8.78775 10.1921,0 17.3893,8.78775 27.5814,8.78775 10.1921,0 17.3893,-8.78775 27.5814,-8.78775 10.1921,0 17.3893,8.78775 27.5814,8.78775 10.1921,0 17.3893,-8.78775 27.5814,-8.78775 10.1921,0 17.3893,8.78775 27.5814,8.78775 10.1921,0 17.3893,-8.78775 27.5814,-8.78775 10.1921,0 17.3893,8.78775 27.5814,8.78775 10.1921,0 17.3893,-8.78775 27.5814,-8.78775 10.1921,0 17.3893,8.78775 27.5814,8.78775 10.1921,0 17.3893,-8.78775 27.5814,-8.78775"
       style="fill:none;stroke:#ffc417;stroke-width:3.59999943;stroke-linecap:butt;stroke-linejoin:miter;stroke-miterlimit:4;stroke-opacity:1;stroke-dasharray:none;display:inline"
       id="path7837" />
    <path
       sodipodi:nodetypes="czzzzzzzzzzzzzzzzzzzzzzzzzzzzzzzzzzzzzzzzzzzzzzzzzzzzzzzzzzzzzzzzzzzzzzzzzzzzzzzzzzzzzzzzzzzzzzzzzzzzzzzzzzzzzzzzzzzc"
       inkscape:connector-curvature="0"
       d="m -0.3818686,992.58623 c 10.192107,0 17.3892926,-8.78776 27.5813996,-8.78776 10.192107,0 17.389284,8.78776 27.58139,8.78776 10.192106,0 17.389288,-8.78776 27.581398,-8.78776 10.192106,0 17.389272,8.78776 27.581391,8.78776 10.19211,0 17.38928,-8.78776 27.58139,-8.78776 10.19211,0 17.38929,8.78776 27.5814,8.78776 10.19211,0 17.38928,-8.78776 27.58139,-8.78776 10.19211,0 17.38928,8.78776 27.58139,8.78776 10.19211,0 17.38929,-8.78776 27.5814,-8.78776 10.19211,0 17.38928,8.78776 27.58139,8.78776 10.19211,0 17.38928,-8.78776 27.58139,-8.78776 10.19211,0 17.38929,8.78776 27.5814,8.78776 10.19211,0 17.38928,-8.78776 27.58139,-8.78776 10.19211,0 17.38928,8.78776 27.58139,8.78776 10.19211,0 17.38929,-8.78776 27.5814,-8.78776 10.19211,0 17.38928,8.78776 27.58139,8.78776 10.19211,0 17.38928,-8.78776 27.58139,-8.78776 10.19211,0 17.38929,8.78776 27.5814,8.78776 10.19211,0 17.38928,-8.78776 27.58139,-8.78776 10.19211,0 17.38929,8.78776 27.5814,8.78776 10.19211,0 17.38928,-8.78776 27.58139,-8.78776 10.19211,0 17.38928,8.78776 27.58139,8.78776 10.19211,0 17.38929,-8.78776 27.5814,-8.78776 10.19211,0 17.38928,8.78776 27.58139,8.78776 10.19211,0 17.38928,-8.78776 27.58139,-8.78776 10.19211,0 17.38929,8.78776 27.5814,8.78776 10.19211,0 17.38932,-8.78776 27.58143,-8.78776 10.19211,0 17.38931,8.78776 27.5814,8.78776 10.19209,-10e-6 17.38921,-8.78776 27.5813,-8.78776 10.19209,-10e-6 17.38929,8.78776 27.5814,8.78776 10.19211,0 17.38929,-8.78776 27.5814,-8.78776 10.19211,0 17.38929,8.78776 27.5814,8.78776 10.19211,0 17.38929,-8.78776 27.5814,-8.78776 10.19211,0 17.38929,8.78776 27.5814,8.78776 10.19211,0 17.38929,-8.78776 27.5814,-8.78776 10.19213,0 17.38933,8.78776 27.58142,8.78776 10.19208,0 17.38928,-8.78776 27.58138,-8.78776 10.1921,0 17.3893,8.78776 27.5814,8.78776 10.1921,0 17.3893,-8.78776 27.5814,-8.78776 10.1921,0 17.3893,8.78776 27.5814,8.78776 10.1921,0 17.3893,-8.78776 27.5814,-8.78776 10.1921,0 17.3893,8.78776 27.5814,8.78776 10.1921,0 17.3893,-8.78776 27.5814,-8.78776 10.1921,0 17.3893,8.78776 27.5814,8.78776 10.1921,-10e-6 17.3892,-8.78776 27.5813,-8.78776 10.1921,-10e-6 17.3893,8.78776 27.5814,8.78776 10.1921,0 17.3893,-8.78776 27.5814,-8.78776 10.1921,0 17.3893,8.78776 27.5814,8.78776 10.1921,0 17.3893,-8.78776 27.5814,-8.78776 10.1921,0 17.3893,8.78776 27.5814,8.78776 10.1921,0 17.3893,-8.78776 27.5814,-8.78776 10.1921,0 17.3893,8.78776 27.5814,8.78776 10.1921,0 17.3893,-8.78776 27.5814,-8.78776 10.1921,0 17.3893,8.78776 27.5814,8.78776 10.1921,0 17.3893,-8.78776 27.5814,-8.78776 10.1921,0 17.3893,8.78776 27.5814,8.78776 10.1921,0 17.3893,-8.78776 27.5814,-8.78776 10.1921,0 17.3893,8.78776 27.5814,8.78776 10.1921,0 17.3893,-8.78777 27.5814,-8.78776 10.1921,0 17.3892,8.78775 27.5813,8.78776 10.1921,0 17.3893,-8.78776 27.5814,-8.78776 10.1921,0 17.3893,8.78776 27.5814,8.78776 10.1921,0 17.3893,-8.78776 27.5814,-8.78776 10.1921,0 17.3893,8.78776 27.5814,8.78776 10.1921,0 17.3893,-8.78776 27.5814,-8.78776 10.1921,0 17.3893,8.78776 27.5814,8.78776 10.1921,0 17.3893,-8.78776 27.5814,-8.78776 10.1921,0 17.3893,8.78776 27.5814,8.78776 10.1921,0 17.3893,-8.78776 27.5814,-8.78776 10.1921,0 17.3893,8.78776 27.5814,8.78776 10.1921,0 17.3893,-8.78776 27.5814,-8.78776 10.1921,0 17.3893,8.78776 27.5814,8.78776 10.1921,0 17.3893,-8.78776 27.5814,-8.78776 10.1921,0 17.3893,8.78776 27.5814,8.78776 10.1921,0 17.3893,-8.78777 27.5814,-8.78776 10.1921,0 17.3892,8.78775 27.5813,8.78776 10.1921,0 17.3893,-8.78776 27.5814,-8.78776 10.1921,0 17.3893,8.78776 27.5814,8.78776 10.1921,0 17.3893,-8.78776 27.5814,-8.78776 10.1921,0 17.3893,8.78776 27.5814,8.78776 10.1921,0 17.3893,-8.78776 27.5814,-8.78776 10.1921,0 17.3893,8.78776 27.5814,8.78776 10.1921,0 17.3893,-8.78776 27.5814,-8.78776 10.1921,0 17.3893,8.78776 27.5814,8.78776 10.1921,0 17.3893,-8.78776 27.5814,-8.78776 10.1921,0 17.3893,8.78776 27.5814,8.78776 10.1921,0 17.3893,-8.78776 27.5814,-8.78776 10.1921,0 17.3893,8.78776 27.5814,8.78776 10.1921,0 17.3893,-8.78776 27.5814,-8.78776 10.1921,0 17.3893,8.78776 27.5814,8.78776 10.1921,-10e-6 17.3892,-8.78776 27.5813,-8.78776 10.1921,-10e-6 17.3893,8.78776 27.5814,8.78776 10.1921,0 17.3893,-8.78776 27.5814,-8.78776 10.1921,0 17.3893,8.78776 27.5814,8.78776 10.1921,0 17.3893,-8.78776 27.5814,-8.78776 10.1921,0 17.3893,8.78776 27.5814,8.78776 10.1921,0 17.3893,-8.78776 27.5814,-8.78776 10.1921,0 17.3893,8.78776 27.5814,8.78776 10.1921,0 17.3893,-8.78776 27.5814,-8.78776 10.1921,0 17.3893,8.78776 27.5814,8.78776 10.1921,0 17.3893,-8.78776 27.5814,-8.78776 10.1921,0 17.3893,8.78776 27.5814,8.78776 10.1921,0 17.3893,-8.78776 27.5814,-8.78776 10.1921,0 17.3893,8.78776 27.5814,8.78776 10.1921,0 17.3893,-8.78777 27.5814,-8.78776 10.1921,0 17.3892,8.78775 27.5813,8.78776 10.1921,0 17.3893,-8.78776 27.5814,-8.78776 10.1921,0 17.3893,8.78776 27.5814,8.78776 10.1921,0 17.3893,-8.78776 27.5814,-8.78776 10.1921,0 17.3893,8.78776 27.5814,8.78776 10.1921,0 17.3893,-8.78776 27.5814,-8.78776 10.1921,0 17.3893,8.78776 27.5814,8.78776 10.1921,0 17.3893,-8.78776 27.5814,-8.78776 10.1921,0 17.3893,8.78776 27.5814,8.78776 10.1921,0 17.3893,-8.78776 27.5814,-8.78776 10.1921,0 17.3893,8.78776 27.5814,8.78776"
       style="fill:none;stroke:#ffc417;stroke-width:3.59999943;stroke-linecap:butt;stroke-linejoin:miter;stroke-miterlimit:4;stroke-opacity:1;stroke-dasharray:none;display:inline"
       id="path7849" />
    <path
       id="path7851"
       style="fill:none;stroke:#ffc417;stroke-width:3.59999943;stroke-linecap:butt;stroke-linejoin:miter;stroke-miterlimit:4;stroke-opacity:1;stroke-dasharray:none;display:inline"
       d="m -0.3818686,853.16986 c 10.192107,0 17.3892926,8.78775 27.5813996,8.78775 10.192107,0 17.389284,-8.78775 27.58139,-8.78775 10.192106,0 17.389288,8.78775 27.581398,8.78775 10.192106,0 17.389272,-8.78775 27.581391,-8.78775 10.19211,0 17.38928,8.78775 27.58139,8.78775 10.19211,0 17.38929,-8.78775 27.5814,-8.78775 10.19211,0 17.38928,8.78775 27.58139,8.78775 10.19211,0 17.38928,-8.78775 27.58139,-8.78775 10.19211,0 17.38929,8.78775 27.5814,8.78775 10.19211,0 17.38928,-8.78775 27.58139,-8.78775 10.19211,0 17.38928,8.78775 27.58139,8.78775 10.19211,0 17.38929,-8.78775 27.5814,-8.78775 10.19211,0 17.38928,8.78775 27.58139,8.78775 10.19211,0 17.38928,-8.78775 27.58139,-8.78775 10.19211,0 17.38929,8.78775 27.5814,8.78775 10.19211,0 17.38928,-8.78775 27.58139,-8.78775 10.19211,0 17.38928,8.78775 27.58139,8.78775 10.19211,0 17.38929,-8.78775 27.5814,-8.78775 10.19211,0 17.38928,8.78775 27.58139,8.78775 10.19211,0 17.38929,-8.78775 27.5814,-8.78775 10.19211,0 17.38928,8.78775 27.58139,8.78775 10.19211,0 17.38928,-8.78775 27.58139,-8.78775 10.19211,0 17.38929,8.78775 27.5814,8.78775 10.19211,0 17.38928,-8.78775 27.58139,-8.78775 10.19211,0 17.38928,8.78775 27.58139,8.78775 10.19211,0 17.38929,-8.78775 27.5814,-8.78775 10.19211,0 17.38932,8.78775 27.58143,8.78775 10.19211,0 17.38931,-8.78775 27.5814,-8.78775 10.19209,2e-5 17.38921,8.78775 27.5813,8.78775 10.19209,10e-6 17.38929,-8.78775 27.5814,-8.78775 10.19211,0 17.38929,8.78775 27.5814,8.78775 10.19211,0 17.38929,-8.78775 27.5814,-8.78775 10.19211,0 17.38929,8.78775 27.5814,8.78775 10.19211,0 17.38929,-8.78775 27.5814,-8.78775 10.19211,0 17.38929,8.78775 27.5814,8.78775 10.19213,0 17.38933,-8.78775 27.58142,-8.78775 10.19208,0 17.38928,8.78775 27.58138,8.78775 10.1921,0 17.3893,-8.78775 27.5814,-8.78775 10.1921,0 17.3893,8.78775 27.5814,8.78775 10.1921,0 17.3893,-8.78775 27.5814,-8.78775 10.1921,0 17.3893,8.78775 27.5814,8.78775 10.1921,0 17.3893,-8.78775 27.5814,-8.78775 10.1921,0 17.3893,8.78775 27.5814,8.78775 10.1921,0 17.3893,-8.78775 27.5814,-8.78775 10.1921,2e-5 17.3892,8.78775 27.5813,8.78775 10.1921,10e-6 17.3893,-8.78775 27.5814,-8.78775 10.1921,0 17.3893,8.78775 27.5814,8.78775 10.1921,0 17.3893,-8.78775 27.5814,-8.78775 10.1921,0 17.3893,8.78775 27.5814,8.78775 10.1921,0 17.3893,-8.78775 27.5814,-8.78775 10.1921,0 17.3893,8.78775 27.5814,8.78775 10.1921,0 17.3893,-8.78775 27.5814,-8.78775 10.1921,0 17.3893,8.78775 27.5814,8.78775 10.1921,0 17.3893,-8.78775 27.5814,-8.78775 10.1921,0 17.3893,8.78775 27.5814,8.78775 10.1921,0 17.3893,-8.78775 27.5814,-8.78775 10.1921,0 17.3893,8.78775 27.5814,8.78775 10.1921,0 17.3893,-8.78775 27.5814,-8.78775 10.1921,0 17.3893,8.78776 27.5814,8.78775 10.1921,0 17.3892,-8.78773 27.5813,-8.78775 10.1921,0 17.3893,8.78775 27.5814,8.78775 10.1921,0 17.3893,-8.78775 27.5814,-8.78775 10.1921,0 17.3893,8.78775 27.5814,8.78775 10.1921,0 17.3893,-8.78775 27.5814,-8.78775 10.1921,0 17.3893,8.78775 27.5814,8.78775 10.1921,0 17.3893,-8.78775 27.5814,-8.78775 10.1921,0 17.3893,8.78775 27.5814,8.78775 10.1921,0 17.3893,-8.78775 27.5814,-8.78775 10.1921,0 17.3893,8.78775 27.5814,8.78775 10.1921,0 17.3893,-8.78775 27.5814,-8.78775 10.1921,0 17.3893,8.78775 27.5814,8.78775 10.1921,0 17.3893,-8.78775 27.5814,-8.78775 10.1921,0 17.3893,8.78775 27.5814,8.78775 10.1921,0 17.3893,-8.78775 27.5814,-8.78775 10.1921,0 17.3893,8.78776 27.5814,8.78775 10.1921,0 17.3892,-8.78773 27.5813,-8.78775 10.1921,0 17.3893,8.78775 27.5814,8.78775 10.1921,0 17.3893,-8.78775 27.5814,-8.78775 10.1921,0 17.3893,8.78775 27.5814,8.78775 10.1921,0 17.3893,-8.78775 27.5814,-8.78775 10.1921,0 17.3893,8.78775 27.5814,8.78775 10.1921,0 17.3893,-8.78775 27.5814,-8.78775 10.1921,0 17.3893,8.78775 27.5814,8.78775 10.1921,0 17.3893,-8.78775 27.5814,-8.78775 10.1921,0 17.3893,8.78775 27.5814,8.78775 10.1921,0 17.3893,-8.78775 27.5814,-8.78775 10.1921,0 17.3893,8.78775 27.5814,8.78775 10.1921,0 17.3893,-8.78775 27.5814,-8.78775 10.1921,0 17.3893,8.78775 27.5814,8.78775 10.1921,0 17.3893,-8.78775 27.5814,-8.78775 10.1921,2e-5 17.3892,8.78775 27.5813,8.78775 10.1921,10e-6 17.3893,-8.78775 27.5814,-8.78775 10.1921,0 17.3893,8.78775 27.5814,8.78775 10.1921,0 17.3893,-8.78775 27.5814,-8.78775 10.1921,0 17.3893,8.78775 27.5814,8.78775 10.1921,0 17.3893,-8.78775 27.5814,-8.78775 10.1921,0 17.3893,8.78775 27.5814,8.78775 10.1921,0 17.3893,-8.78775 27.5814,-8.78775 10.1921,0 17.3893,8.78775 27.5814,8.78775 10.1921,0 17.3893,-8.78775 27.5814,-8.78775 10.1921,0 17.3893,8.78775 27.5814,8.78775 10.1921,0 17.3893,-8.78775 27.5814,-8.78775 10.1921,0 17.3893,8.78775 27.5814,8.78775 10.1921,0 17.3893,-8.78775 27.5814,-8.78775 10.1921,0 17.3893,8.78776 27.5814,8.78775 10.1921,0 17.3892,-8.78773 27.5813,-8.78775 10.1921,0 17.3893,8.78775 27.5814,8.78775 10.1921,0 17.3893,-8.78775 27.5814,-8.78775 10.1921,0 17.3893,8.78775 27.5814,8.78775 10.1921,0 17.3893,-8.78775 27.5814,-8.78775 10.1921,0 17.3893,8.78775 27.5814,8.78775 10.1921,0 17.3893,-8.78775 27.5814,-8.78775 10.1921,0 17.3893,8.78775 27.5814,8.78775 10.1921,0 17.3893,-8.78775 27.5814,-8.78775 10.1921,0 17.3893,8.78775 27.5814,8.78775 10.1921,0 17.3893,-8.78775 27.5814,-8.78775"
       inkscape:connector-curvature="0"
       sodipodi:nodetypes="czzzzzzzzzzzzzzzzzzzzzzzzzzzzzzzzzzzzzzzzzzzzzzzzzzzzzzzzzzzzzzzzzzzzzzzzzzzzzzzzzzzzzzzzzzzzzzzzzzzzzzzzzzzzzzzzzzzc" />
  </g>
  <g
     style="display:inline"
     transform="translate(0,-252.36218)"
     id="layer1"
     inkscape:groupmode="layer"
     inkscape:label="3-blue">
    <path
       sodipodi:nodetypes="czzzzzzzzzzzzzzzzzzzzzzzzzzzzzzzzzzzzzzzzzzzzzzzzzzzzzzzzzzzzzzzzzzzzzzzzzzzzzzzzzzzzzzzzzzzzzzzzzzzzzzzzzzzzzzzzzzzc"
       inkscape:connector-curvature="0"
       d="m -0.3818686,275.8791 c 10.192107,0 17.3892926,17.0981 27.5813996,17.0981 10.192107,0 17.389284,-17.0981 27.58139,-17.0981 10.192106,0 17.389288,17.0981 27.581398,17.0981 10.192106,0 17.389272,-17.0981 27.581391,-17.0981 10.19211,0 17.38928,17.0981 27.58139,17.0981 10.19211,0 17.38929,-17.0981 27.5814,-17.0981 10.19211,0 17.38928,17.0981 27.58139,17.0981 10.19211,0 17.38928,-17.0981 27.58139,-17.0981 10.19211,0 17.38929,17.0981 27.5814,17.0981 10.19211,0 17.38928,-17.0981 27.58139,-17.0981 10.19211,0 17.38928,17.0981 27.58139,17.0981 10.19211,0 17.38929,-17.0981 27.5814,-17.0981 10.19211,0 17.38928,17.0981 27.58139,17.0981 10.19211,0 17.38928,-17.0981 27.58139,-17.0981 10.19211,0 17.38929,17.0981 27.5814,17.0981 10.19211,0 17.38928,-17.0981 27.58139,-17.0981 10.19211,0 17.38928,17.0981 27.58139,17.0981 10.19211,0 17.38929,-17.0981 27.5814,-17.0981 10.19211,0 17.38928,17.0981 27.58139,17.0981 10.19211,0 17.38929,-17.0981 27.5814,-17.0981 10.19211,0 17.38928,17.0981 27.58139,17.0981 10.19211,0 17.38928,-17.0981 27.58139,-17.0981 10.19211,0 17.38929,17.0981 27.5814,17.0981 10.19211,0 17.38928,-17.0981 27.58139,-17.0981 10.19211,0 17.38928,17.0981 27.58139,17.0981 10.19211,0 17.38929,-17.0981 27.5814,-17.0981 10.19211,0 17.38932,17.0981 27.58143,17.0981 10.19211,0 17.38931,-17.09811 27.5814,-17.0981 10.19209,1e-5 17.38921,17.09809 27.5813,17.0981 10.19209,1e-5 17.38929,-17.0981 27.5814,-17.0981 10.19211,0 17.38929,17.0981 27.5814,17.0981 10.19211,0 17.38929,-17.0981 27.5814,-17.0981 10.19211,0 17.38929,17.0981 27.5814,17.0981 10.19211,0 17.38929,-17.0981 27.5814,-17.0981 10.19211,0 17.38929,17.0981 27.5814,17.0981 10.19213,0 17.38933,-17.0981 27.58142,-17.0981 10.19208,0 17.38928,17.0981 27.58138,17.0981 10.1921,0 17.3893,-17.0981 27.5814,-17.0981 10.1921,0 17.3893,17.0981 27.5814,17.0981 10.1921,0 17.3893,-17.0981 27.5814,-17.0981 10.1921,0 17.3893,17.0981 27.5814,17.0981 10.1921,0 17.3893,-17.0981 27.5814,-17.0981 10.1921,0 17.3893,17.0981 27.5814,17.0981 10.1921,0 17.3893,-17.09811 27.5814,-17.0981 10.1921,1e-5 17.3892,17.09809 27.5813,17.0981 10.1921,1e-5 17.3893,-17.0981 27.5814,-17.0981 10.1921,0 17.3893,17.0981 27.5814,17.0981 10.1921,0 17.3893,-17.0981 27.5814,-17.0981 10.1921,0 17.3893,17.0981 27.5814,17.0981 10.1921,0 17.3893,-17.0981 27.5814,-17.0981 10.1921,0 17.3893,17.0981 27.5814,17.0981 10.1921,0 17.3893,-17.0981 27.5814,-17.0981 10.1921,0 17.3893,17.0981 27.5814,17.0981 10.1921,0 17.3893,-17.0981 27.5814,-17.0981 10.1921,0 17.3893,17.0981 27.5814,17.0981 10.1921,0 17.3893,-17.0981 27.5814,-17.0981 10.1921,0 17.3893,17.0981 27.5814,17.0981 10.1921,0 17.3893,-17.0981 27.5814,-17.0981 10.1921,0 17.3893,17.09811 27.5814,17.0981 10.1921,-10e-6 17.3892,-17.09809 27.5813,-17.0981 10.1921,-10e-6 17.3893,17.0981 27.5814,17.0981 10.1921,0 17.3893,-17.0981 27.5814,-17.0981 10.1921,0 17.3893,17.0981 27.5814,17.0981 10.1921,0 17.3893,-17.0981 27.5814,-17.0981 10.1921,0 17.3893,17.0981 27.5814,17.0981 10.1921,0 17.3893,-17.0981 27.5814,-17.0981 10.1921,0 17.3893,17.0981 27.5814,17.0981 10.1921,0 17.3893,-17.0981 27.5814,-17.0981 10.1921,0 17.3893,17.0981 27.5814,17.0981 10.1921,0 17.3893,-17.0981 27.5814,-17.0981 10.1921,0 17.3893,17.0981 27.5814,17.0981 10.1921,0 17.3893,-17.0981 27.5814,-17.0981 10.1921,0 17.3893,17.0981 27.5814,17.0981 10.1921,0 17.3893,-17.0981 27.5814,-17.0981 10.1921,0 17.3893,17.09811 27.5814,17.0981 10.1921,-10e-6 17.3892,-17.09809 27.5813,-17.0981 10.1921,-10e-6 17.3893,17.0981 27.5814,17.0981 10.1921,0 17.3893,-17.0981 27.5814,-17.0981 10.1921,0 17.3893,17.0981 27.5814,17.0981 10.1921,0 17.3893,-17.0981 27.5814,-17.0981 10.1921,0 17.3893,17.0981 27.5814,17.0981 10.1921,0 17.3893,-17.0981 27.5814,-17.0981 10.1921,0 17.3893,17.0981 27.5814,17.0981 10.1921,0 17.3893,-17.0981 27.5814,-17.0981 10.1921,0 17.3893,17.0981 27.5814,17.0981 10.1921,0 17.3893,-17.0981 27.5814,-17.0981 10.1921,0 17.3893,17.0981 27.5814,17.0981 10.1921,0 17.3893,-17.0981 27.5814,-17.0981 10.1921,0 17.3893,17.0981 27.5814,17.0981 10.1921,0 17.3893,-17.09811 27.5814,-17.0981 10.1921,1e-5 17.3892,17.09809 27.5813,17.0981 10.1921,1e-5 17.3893,-17.0981 27.5814,-17.0981 10.1921,0 17.3893,17.0981 27.5814,17.0981 10.1921,0 17.3893,-17.0981 27.5814,-17.0981 10.1921,0 17.3893,17.0981 27.5814,17.0981 10.1921,0 17.3893,-17.0981 27.5814,-17.0981 10.1921,0 17.3893,17.0981 27.5814,17.0981 10.1921,0 17.3893,-17.0981 27.5814,-17.0981 10.1921,0 17.3893,17.0981 27.5814,17.0981 10.1921,0 17.3893,-17.0981 27.5814,-17.0981 10.1921,0 17.3893,17.0981 27.5814,17.0981 10.1921,0 17.3893,-17.0981 27.5814,-17.0981 10.1921,0 17.3893,17.0981 27.5814,17.0981 10.1921,0 17.3893,-17.0981 27.5814,-17.0981 10.1921,0 17.3893,17.09811 27.5814,17.0981 10.1921,-10e-6 17.3892,-17.09809 27.5813,-17.0981 10.1921,-10e-6 17.3893,17.0981 27.5814,17.0981 10.1921,0 17.3893,-17.0981 27.5814,-17.0981 10.1921,0 17.3893,17.0981 27.5814,17.0981 10.1921,0 17.3893,-17.0981 27.5814,-17.0981 10.1921,0 17.3893,17.0981 27.5814,17.0981 10.1921,0 17.3893,-17.0981 27.5814,-17.0981 10.1921,0 17.3893,17.0981 27.5814,17.0981 10.1921,0 17.3893,-17.0981 27.5814,-17.0981 10.1921,0 17.3893,17.0981 27.5814,17.0981 10.1921,0 17.3893,-17.0981 27.5814,-17.0981"
       style="fill:none;stroke:#00b2f8;stroke-width:3.59999871;stroke-linecap:butt;stroke-linejoin:miter;stroke-miterlimit:4;stroke-opacity:1;stroke-dasharray:none;display:inline"
       id="path7816" />
    <path
       inkscape:connector-curvature="0"
       sodipodi:nodetypes="cczzzzzzzzzzzzzzzzzzzzzzzzzzzzzzzzzzzzzzzzzzzzzzzzzzzzzzzzzzzzzzzzzzzzzzzzzz"
       d="m 3208.5897,421.60181 m -3208.73683018,0 C 231.17642,421.60182 -188.1094,886.32648 43.214146,886.32649 c 231.323534,3e-5 -187.962116,-464.7247 43.361414,-464.72468 231.32353,3e-5 -187.96235,464.72465 43.36119,464.72468 231.32354,4e-5 -187.962033,-464.72471 43.3615,-464.72468 231.32354,5e-5 -187.96241,464.72462 43.36113,464.72468 231.32353,4e-5 -187.961966,-464.72473 43.36156,-464.72468 231.32355,7e-5 -187.96249,464.7246 43.36105,464.72468 231.32354,5e-5 -187.96188,-464.72475 43.36165,-464.72468 231.32353,10e-5 -187.96258,464.72459 43.36096,464.72468 231.32354,8e-5 -187.9618,-464.72476 43.36174,-464.72468 231.32353,10e-5 -187.96264,464.72458 43.3609,464.72468 231.32353,9e-5 -187.96174,-464.72476 43.36178,-464.72468 231.32355,1.1e-4 -187.96274,464.72455 43.3608,464.72468 231.32353,1.2e-4 -187.96163,-464.7248 43.36191,-464.72468 231.32357,1.3e-4 -187.96287,464.72452 43.36066,464.72468 231.32357,1.4e-4 -187.9615,-464.72482 43.36203,-464.72468 231.32355,1.7e-4 -187.96298,464.7245 43.36057,464.72468 231.32358,1.7e-4 -187.96141,-464.72485 43.36214,-464.72468 231.32357,1.9e-4 -187.96311,464.72449 43.36043,464.72468 231.32354,1.8e-4 -187.96134,-464.72487 43.36214,-464.72468 231.3236,2e-4 -187.96309,464.72448 43.36049,464.72468 231.32351,2e-4 -187.96139,-464.72487 43.3621,-464.72468 231.32361,2e-4 -187.9631,464.72448 43.36044,464.72468 231.32357,2e-4 -187.96137,-464.72487 43.36217,-464.72468 231.3236,2e-4 -187.96308,464.72448 43.3605,464.72468 231.3235,2e-4 -187.9615,-464.72487 43.3622,-464.72468 231.3234,2e-4 -187.96328,464.72448 43.3602,464.72468 231.3236,2e-4 -187.96127,-464.72487 43.3623,-464.72468 231.3235,2e-4 -187.9631,464.72448 43.3603,464.72468 231.3236,2e-4 -187.9613,-464.72487 43.3622,-464.72468 231.3236,2e-4 -187.9631,464.72448 43.3605,464.72468 231.3235,2e-4 -187.9613,-464.72487 43.3622,-464.72468 231.3235,2e-4 -187.9632,464.72448 43.3604,464.72468 231.3235,2e-4 -187.9615,-464.72487 43.3622,-464.72468 231.3234,2e-4 -187.9632,464.72448 43.3603,464.72468 231.3236,2e-4 -187.9614,-464.72487 43.3622,-464.72468 231.3235,2e-4 -187.9632,464.72448 43.3604,464.72468 231.3235,2e-4 -187.9613,-464.72487 43.3622,-464.72468 231.3235,2e-4 -187.9632,464.72448 43.3605,464.72468 231.3234,2e-4 -187.9615,-464.72487 43.3621,-464.72468 231.3236,2e-4 -187.9631,464.72447 43.3603,464.72468 231.3236,2.1e-4 -187.9612,-464.72488 43.3624,-464.72468 231.3235,2.3e-4 -187.9632,464.72448 43.3603,464.72468 231.3237,2e-4 -187.9613,-464.72487 43.3622,-464.72468 231.3236,2e-4 -187.9631,464.72448 43.3604,464.72468 231.3236,2e-4 -187.9614,-464.72487 43.3622,-464.72468 231.3236,2e-4 -187.9631,464.72448 43.3605,464.72468 231.3235,2e-4 -187.9615,-464.72487 43.3622,-464.72468 231.3234,2e-4 -187.9633,464.72448 43.3604,464.72468 231.3235,2e-4 -187.9614,-464.72487 43.3621,-464.72468 231.3235,2e-4 -187.9632,464.72448 43.3604,464.72468 231.3234,2e-4 -187.9613,-464.72487 43.3621,-464.72468 231.3237,2e-4 -187.963,464.72448 43.3604,464.72468 231.3236,2e-4 -187.9614,-464.72487 43.3622,-464.72468 231.3236,2e-4 -187.963,464.72448 43.3605,464.72468 231.3236,2e-4 -187.9613,-464.72487 43.3623,-464.72468 231.3233,2e-4 -187.9634,464.72448 43.3602,464.72468 231.3235,2e-4 -187.9613,-464.72487 43.3623,-464.72468 231.3235,2e-4 -187.9632,464.72448 43.3604,464.72468 231.3234,2e-4 -187.9615,-464.72487 43.362,-464.72468 231.3236,2e-4 -187.963,464.72448 43.3605,464.72468 231.3236,2e-4 -187.9613,-464.72487 43.3623,-464.72468 231.3234,2e-4 -187.9633,464.72448 43.3603,464.72468 231.3235,2e-4 -187.9613,-464.72487 43.3622,-464.72468 231.3235,2e-4 -187.9632,464.72448 43.3604,464.72468 231.3235,2e-4 -187.9615,-464.72487 43.3622,-464.72468 231.3235,2e-4 -187.9632,464.72448 43.3603,464.72468 231.3236,2e-4 -187.9613,-464.72487 43.3622,-464.72468 231.3235,2e-4 -187.9632,464.72448 43.3605,464.72468 231.3235,2e-4 -187.9614,-464.72487 43.3621,-464.72468 231.3236,2e-4 -187.9631,464.72448 43.3605,464.72468 231.3234,2e-4 -187.9615,-464.72487 43.3621,-464.72468 231.3236,2e-4 -187.9631,464.72448 43.3603,464.72468 231.3237,2e-4 -187.9613,-464.72487 43.3624,-464.72468"
       style="fill:none;stroke:#00b2f8;stroke-width:3.96000004;stroke-linecap:butt;stroke-linejoin:miter;stroke-miterlimit:4;stroke-opacity:1;stroke-dasharray:none;display:inline"
       id="path23851" />
    <path
       id="path7796"
       style="fill:none;stroke:#00b2f8;stroke-width:3.59999895;stroke-linecap:butt;stroke-linejoin:miter;stroke-miterlimit:4;stroke-opacity:1;stroke-dasharray:none;display:inline"
       d="m -0.3818686,382.60134 c 10.192107,0 17.3892926,-17.09811 27.5813996,-17.09811 10.192107,0 17.389284,17.09811 27.58139,17.09811 10.192106,0 17.389288,-17.09811 27.581398,-17.09811 10.192106,0 17.389272,17.09811 27.581391,17.09811 10.19211,0 17.38928,-17.09811 27.58139,-17.09811 10.19211,0 17.38929,17.09811 27.5814,17.09811 10.19211,0 17.38928,-17.09811 27.58139,-17.09811 10.19211,0 17.38928,17.09811 27.58139,17.09811 10.19211,0 17.38929,-17.09811 27.5814,-17.09811 10.19211,0 17.38928,17.09811 27.58139,17.09811 10.19211,0 17.38928,-17.09811 27.58139,-17.09811 10.19211,0 17.38929,17.09811 27.5814,17.09811 10.19211,0 17.38928,-17.09811 27.58139,-17.09811 10.19211,0 17.38928,17.09811 27.58139,17.09811 10.19211,0 17.38929,-17.09811 27.5814,-17.09811 10.19211,0 17.38928,17.09811 27.58139,17.09811 10.19211,0 17.38928,-17.09811 27.58139,-17.09811 10.19211,0 17.38929,17.09811 27.5814,17.09811 10.19211,0 17.38928,-17.09811 27.58139,-17.09811 10.19211,0 17.38929,17.09811 27.5814,17.09811 10.19211,0 17.38928,-17.09811 27.58139,-17.09811 10.19211,0 17.38928,17.09811 27.58139,17.09811 10.19211,0 17.38929,-17.09811 27.5814,-17.09811 10.19211,0 17.38928,17.09811 27.58139,17.09811 10.19211,0 17.38928,-17.09811 27.58139,-17.09811 10.19211,0 17.38929,17.09811 27.5814,17.09811 10.19211,0 17.38932,-17.09811 27.58143,-17.09811 10.19211,0 17.38931,17.09812 27.5814,17.09811 10.19209,-10e-6 17.38921,-17.0981 27.5813,-17.09811 10.19209,-10e-6 17.38929,17.09811 27.5814,17.09811 10.19211,0 17.38929,-17.09811 27.5814,-17.09811 10.19211,0 17.38929,17.09811 27.5814,17.09811 10.19211,0 17.38929,-17.09811 27.5814,-17.09811 10.19211,0 17.38929,17.09811 27.5814,17.09811 10.19211,0 17.38929,-17.09811 27.5814,-17.09811 10.19213,0 17.38933,17.09811 27.58142,17.09811 10.19208,0 17.38928,-17.09811 27.58138,-17.09811 10.1921,0 17.3893,17.09811 27.5814,17.09811 10.1921,0 17.3893,-17.09811 27.5814,-17.09811 10.1921,0 17.3893,17.09811 27.5814,17.09811 10.1921,0 17.3893,-17.09811 27.5814,-17.09811 10.1921,0 17.3893,17.09811 27.5814,17.09811 10.1921,0 17.3893,-17.09811 27.5814,-17.09811 10.1921,0 17.3893,17.09812 27.5814,17.09811 10.1921,-10e-6 17.3892,-17.0981 27.5813,-17.09811 10.1921,-10e-6 17.3893,17.09811 27.5814,17.09811 10.1921,0 17.3893,-17.09811 27.5814,-17.09811 10.1921,0 17.3893,17.09811 27.5814,17.09811 10.1921,0 17.3893,-17.09811 27.5814,-17.09811 10.1921,0 17.3893,17.09811 27.5814,17.09811 10.1921,0 17.3893,-17.09811 27.5814,-17.09811 10.1921,0 17.3893,17.09811 27.5814,17.09811 10.1921,0 17.3893,-17.09811 27.5814,-17.09811 10.1921,0 17.3893,17.09811 27.5814,17.09811 10.1921,0 17.3893,-17.09811 27.5814,-17.09811 10.1921,0 17.3893,17.09811 27.5814,17.09811 10.1921,0 17.3893,-17.09811 27.5814,-17.09811 10.1921,0 17.3893,17.09811 27.5814,17.09811 10.1921,0 17.3893,-17.09812 27.5814,-17.09811 10.1921,1e-5 17.3892,17.0981 27.5813,17.09811 10.1921,1e-5 17.3893,-17.09811 27.5814,-17.09811 10.1921,0 17.3893,17.09811 27.5814,17.09811 10.1921,0 17.3893,-17.09811 27.5814,-17.09811 10.1921,0 17.3893,17.09811 27.5814,17.09811 10.1921,0 17.3893,-17.09811 27.5814,-17.09811 10.1921,0 17.3893,17.09811 27.5814,17.09811 10.1921,0 17.3893,-17.09811 27.5814,-17.09811 10.1921,0 17.3893,17.09811 27.5814,17.09811 10.1921,0 17.3893,-17.09811 27.5814,-17.09811 10.1921,0 17.3893,17.09811 27.5814,17.09811 10.1921,0 17.3893,-17.09811 27.5814,-17.09811 10.1921,0 17.3893,17.09811 27.5814,17.09811 10.1921,0 17.3893,-17.09811 27.5814,-17.09811 10.1921,0 17.3893,17.09811 27.5814,17.09811 10.1921,0 17.3893,-17.09812 27.5814,-17.09811 10.1921,1e-5 17.3892,17.0981 27.5813,17.09811 10.1921,1e-5 17.3893,-17.09811 27.5814,-17.09811 10.1921,0 17.3893,17.09811 27.5814,17.09811 10.1921,0 17.3893,-17.09811 27.5814,-17.09811 10.1921,0 17.3893,17.09811 27.5814,17.09811 10.1921,0 17.3893,-17.09811 27.5814,-17.09811 10.1921,0 17.3893,17.09811 27.5814,17.09811 10.1921,0 17.3893,-17.09811 27.5814,-17.09811 10.1921,0 17.3893,17.09811 27.5814,17.09811 10.1921,0 17.3893,-17.09811 27.5814,-17.09811 10.1921,0 17.3893,17.09811 27.5814,17.09811 10.1921,0 17.3893,-17.09811 27.5814,-17.09811 10.1921,0 17.3893,17.09811 27.5814,17.09811 10.1921,0 17.3893,-17.09811 27.5814,-17.09811 10.1921,0 17.3893,17.09812 27.5814,17.09811 10.1921,-10e-6 17.3892,-17.0981 27.5813,-17.09811 10.1921,-10e-6 17.3893,17.09811 27.5814,17.09811 10.1921,0 17.3893,-17.09811 27.5814,-17.09811 10.1921,0 17.3893,17.09811 27.5814,17.09811 10.1921,0 17.3893,-17.09811 27.5814,-17.09811 10.1921,0 17.3893,17.09811 27.5814,17.09811 10.1921,0 17.3893,-17.09811 27.5814,-17.09811 10.1921,0 17.3893,17.09811 27.5814,17.09811 10.1921,0 17.3893,-17.09811 27.5814,-17.09811 10.1921,0 17.3893,17.09811 27.5814,17.09811 10.1921,0 17.3893,-17.09811 27.5814,-17.09811 10.1921,0 17.3893,17.09811 27.5814,17.09811 10.1921,0 17.3893,-17.09811 27.5814,-17.09811 10.1921,0 17.3893,17.09811 27.5814,17.09811 10.1921,0 17.3893,-17.09812 27.5814,-17.09811 10.1921,1e-5 17.3892,17.0981 27.5813,17.09811 10.1921,1e-5 17.3893,-17.09811 27.5814,-17.09811 10.1921,0 17.3893,17.09811 27.5814,17.09811 10.1921,0 17.3893,-17.09811 27.5814,-17.09811 10.1921,0 17.3893,17.09811 27.5814,17.09811 10.1921,0 17.3893,-17.09811 27.5814,-17.09811 10.1921,0 17.3893,17.09811 27.5814,17.09811 10.1921,0 17.3893,-17.09811 27.5814,-17.09811 10.1921,0 17.3893,17.09811 27.5814,17.09811 10.1921,0 17.3893,-17.09811 27.5814,-17.09811 10.1921,0 17.3893,17.09811 27.5814,17.09811"
       inkscape:connector-curvature="0"
       sodipodi:nodetypes="czzzzzzzzzzzzzzzzzzzzzzzzzzzzzzzzzzzzzzzzzzzzzzzzzzzzzzzzzzzzzzzzzzzzzzzzzzzzzzzzzzzzzzzzzzzzzzzzzzzzzzzzzzzzzzzzzzzc" />
    <path
       id="path7839"
       style="fill:none;stroke:#00b2f8;stroke-width:3.59999871;stroke-linecap:butt;stroke-linejoin:miter;stroke-miterlimit:4;stroke-opacity:1;stroke-dasharray:none;display:inline"
       d="m -0.3818686,921.8791 c 10.192107,0 17.3892926,17.0981 27.5813996,17.0981 10.192107,0 17.389284,-17.0981 27.58139,-17.0981 10.192106,0 17.389288,17.0981 27.581398,17.0981 10.192106,0 17.389272,-17.0981 27.581391,-17.0981 10.19211,0 17.38928,17.0981 27.58139,17.0981 10.19211,0 17.38929,-17.0981 27.5814,-17.0981 10.19211,0 17.38928,17.0981 27.58139,17.0981 10.19211,0 17.38928,-17.0981 27.58139,-17.0981 10.19211,0 17.38929,17.0981 27.5814,17.0981 10.19211,0 17.38928,-17.0981 27.58139,-17.0981 10.19211,0 17.38928,17.0981 27.58139,17.0981 10.19211,0 17.38929,-17.0981 27.5814,-17.0981 10.19211,0 17.38928,17.0981 27.58139,17.0981 10.19211,0 17.38928,-17.0981 27.58139,-17.0981 10.19211,0 17.38929,17.0981 27.5814,17.0981 10.19211,0 17.38928,-17.0981 27.58139,-17.0981 10.19211,0 17.38928,17.0981 27.58139,17.0981 10.19211,0 17.38929,-17.0981 27.5814,-17.0981 10.19211,0 17.38928,17.0981 27.58139,17.0981 10.19211,0 17.38929,-17.0981 27.5814,-17.0981 10.19211,0 17.38928,17.0981 27.58139,17.0981 10.19211,0 17.38928,-17.0981 27.58139,-17.0981 10.19211,0 17.38929,17.0981 27.5814,17.0981 10.19211,0 17.38928,-17.0981 27.58139,-17.0981 10.19211,0 17.38928,17.0981 27.58139,17.0981 10.19211,0 17.38929,-17.0981 27.5814,-17.0981 10.19211,0 17.38932,17.0981 27.58143,17.0981 10.19211,0 17.38931,-17.09811 27.5814,-17.0981 10.19209,10e-6 17.38921,17.09809 27.5813,17.0981 10.19209,10e-6 17.38929,-17.0981 27.5814,-17.0981 10.19211,0 17.38929,17.0981 27.5814,17.0981 10.19211,0 17.38929,-17.0981 27.5814,-17.0981 10.19211,0 17.38929,17.0981 27.5814,17.0981 10.19211,0 17.38929,-17.0981 27.5814,-17.0981 10.19211,0 17.38929,17.0981 27.5814,17.0981 10.19213,0 17.38933,-17.0981 27.58142,-17.0981 10.19208,0 17.38928,17.0981 27.58138,17.0981 10.1921,0 17.3893,-17.0981 27.5814,-17.0981 10.1921,0 17.3893,17.0981 27.5814,17.0981 10.1921,0 17.3893,-17.0981 27.5814,-17.0981 10.1921,0 17.3893,17.0981 27.5814,17.0981 10.1921,0 17.3893,-17.0981 27.5814,-17.0981 10.1921,0 17.3893,17.0981 27.5814,17.0981 10.1921,0 17.3893,-17.09811 27.5814,-17.0981 10.1921,10e-6 17.3892,17.09809 27.5813,17.0981 10.1921,10e-6 17.3893,-17.0981 27.5814,-17.0981 10.1921,0 17.3893,17.0981 27.5814,17.0981 10.1921,0 17.3893,-17.0981 27.5814,-17.0981 10.1921,0 17.3893,17.0981 27.5814,17.0981 10.1921,0 17.3893,-17.0981 27.5814,-17.0981 10.1921,0 17.3893,17.0981 27.5814,17.0981 10.1921,0 17.3893,-17.0981 27.5814,-17.0981 10.1921,0 17.3893,17.0981 27.5814,17.0981 10.1921,0 17.3893,-17.0981 27.5814,-17.0981 10.1921,0 17.3893,17.0981 27.5814,17.0981 10.1921,0 17.3893,-17.0981 27.5814,-17.0981 10.1921,0 17.3893,17.0981 27.5814,17.0981 10.1921,0 17.3893,-17.0981 27.5814,-17.0981 10.1921,0 17.3893,17.09811 27.5814,17.0981 10.1921,-1e-5 17.3892,-17.09809 27.5813,-17.0981 10.1921,-10e-6 17.3893,17.0981 27.5814,17.0981 10.1921,0 17.3893,-17.0981 27.5814,-17.0981 10.1921,0 17.3893,17.0981 27.5814,17.0981 10.1921,0 17.3893,-17.0981 27.5814,-17.0981 10.1921,0 17.3893,17.0981 27.5814,17.0981 10.1921,0 17.3893,-17.0981 27.5814,-17.0981 10.1921,0 17.3893,17.0981 27.5814,17.0981 10.1921,0 17.3893,-17.0981 27.5814,-17.0981 10.1921,0 17.3893,17.0981 27.5814,17.0981 10.1921,0 17.3893,-17.0981 27.5814,-17.0981 10.1921,0 17.3893,17.0981 27.5814,17.0981 10.1921,0 17.3893,-17.0981 27.5814,-17.0981 10.1921,0 17.3893,17.0981 27.5814,17.0981 10.1921,0 17.3893,-17.0981 27.5814,-17.0981 10.1921,0 17.3893,17.09811 27.5814,17.0981 10.1921,-1e-5 17.3892,-17.09809 27.5813,-17.0981 10.1921,-10e-6 17.3893,17.0981 27.5814,17.0981 10.1921,0 17.3893,-17.0981 27.5814,-17.0981 10.1921,0 17.3893,17.0981 27.5814,17.0981 10.1921,0 17.3893,-17.0981 27.5814,-17.0981 10.1921,0 17.3893,17.0981 27.5814,17.0981 10.1921,0 17.3893,-17.0981 27.5814,-17.0981 10.1921,0 17.3893,17.0981 27.5814,17.0981 10.1921,0 17.3893,-17.0981 27.5814,-17.0981 10.1921,0 17.3893,17.0981 27.5814,17.0981 10.1921,0 17.3893,-17.0981 27.5814,-17.0981 10.1921,0 17.3893,17.0981 27.5814,17.0981 10.1921,0 17.3893,-17.0981 27.5814,-17.0981 10.1921,0 17.3893,17.0981 27.5814,17.0981 10.1921,0 17.3893,-17.09811 27.5814,-17.0981 10.1921,10e-6 17.3892,17.09809 27.5813,17.0981 10.1921,10e-6 17.3893,-17.0981 27.5814,-17.0981 10.1921,0 17.3893,17.0981 27.5814,17.0981 10.1921,0 17.3893,-17.0981 27.5814,-17.0981 10.1921,0 17.3893,17.0981 27.5814,17.0981 10.1921,0 17.3893,-17.0981 27.5814,-17.0981 10.1921,0 17.3893,17.0981 27.5814,17.0981 10.1921,0 17.3893,-17.0981 27.5814,-17.0981 10.1921,0 17.3893,17.0981 27.5814,17.0981 10.1921,0 17.3893,-17.0981 27.5814,-17.0981 10.1921,0 17.3893,17.0981 27.5814,17.0981 10.1921,0 17.3893,-17.0981 27.5814,-17.0981 10.1921,0 17.3893,17.0981 27.5814,17.0981 10.1921,0 17.3893,-17.0981 27.5814,-17.0981 10.1921,0 17.3893,17.09811 27.5814,17.0981 10.1921,-1e-5 17.3892,-17.09809 27.5813,-17.0981 10.1921,-10e-6 17.3893,17.0981 27.5814,17.0981 10.1921,0 17.3893,-17.0981 27.5814,-17.0981 10.1921,0 17.3893,17.0981 27.5814,17.0981 10.1921,0 17.3893,-17.0981 27.5814,-17.0981 10.1921,0 17.3893,17.0981 27.5814,17.0981 10.1921,0 17.3893,-17.0981 27.5814,-17.0981 10.1921,0 17.3893,17.0981 27.5814,17.0981 10.1921,0 17.3893,-17.0981 27.5814,-17.0981 10.1921,0 17.3893,17.0981 27.5814,17.0981 10.1921,0 17.3893,-17.0981 27.5814,-17.0981"
       inkscape:connector-curvature="0"
       sodipodi:nodetypes="czzzzzzzzzzzzzzzzzzzzzzzzzzzzzzzzzzzzzzzzzzzzzzzzzzzzzzzzzzzzzzzzzzzzzzzzzzzzzzzzzzzzzzzzzzzzzzzzzzzzzzzzzzzzzzzzzzzc" />
    <path
       sodipodi:nodetypes="czzzzzzzzzzzzzzzzzzzzzzzzzzzzzzzzzzzzzzzzzzzzzzzzzzzzzzzzzzzzzzzzzzzzzzzzzzzzzzzzzzzzzzzzzzzzzzzzzzzzzzzzzzzzzzzzzzzc"
       inkscape:connector-curvature="0"
       d="m -0.3818686,1028.6013 c 10.192107,0 17.3892926,-17.0981 27.5813996,-17.0981 10.192107,0 17.389284,17.0981 27.58139,17.0981 10.192106,0 17.389288,-17.0981 27.581398,-17.0981 10.192106,0 17.389272,17.0981 27.581391,17.0981 10.19211,0 17.38928,-17.0981 27.58139,-17.0981 10.19211,0 17.38929,17.0981 27.5814,17.0981 10.19211,0 17.38928,-17.0981 27.58139,-17.0981 10.19211,0 17.38928,17.0981 27.58139,17.0981 10.19211,0 17.38929,-17.0981 27.5814,-17.0981 10.19211,0 17.38928,17.0981 27.58139,17.0981 10.19211,0 17.38928,-17.0981 27.58139,-17.0981 10.19211,0 17.38929,17.0981 27.5814,17.0981 10.19211,0 17.38928,-17.0981 27.58139,-17.0981 10.19211,0 17.38928,17.0981 27.58139,17.0981 10.19211,0 17.38929,-17.0981 27.5814,-17.0981 10.19211,0 17.38928,17.0981 27.58139,17.0981 10.19211,0 17.38928,-17.0981 27.58139,-17.0981 10.19211,0 17.38929,17.0981 27.5814,17.0981 10.19211,0 17.38928,-17.0981 27.58139,-17.0981 10.19211,0 17.38929,17.0981 27.5814,17.0981 10.19211,0 17.38928,-17.0981 27.58139,-17.0981 10.19211,0 17.38928,17.0981 27.58139,17.0981 10.19211,0 17.38929,-17.0981 27.5814,-17.0981 10.19211,0 17.38928,17.0981 27.58139,17.0981 10.19211,0 17.38928,-17.0981 27.58139,-17.0981 10.19211,0 17.38929,17.0981 27.5814,17.0981 10.19211,0 17.38932,-17.0981 27.58143,-17.0981 10.19211,0 17.38931,17.0982 27.5814,17.0981 10.19209,0 17.38921,-17.0981 27.5813,-17.0981 10.19209,0 17.38929,17.0981 27.5814,17.0981 10.19211,0 17.38929,-17.0981 27.5814,-17.0981 10.19211,0 17.38929,17.0981 27.5814,17.0981 10.19211,0 17.38929,-17.0981 27.5814,-17.0981 10.19211,0 17.38929,17.0981 27.5814,17.0981 10.19211,0 17.38929,-17.0981 27.5814,-17.0981 10.19213,0 17.38933,17.0981 27.58142,17.0981 10.19208,0 17.38928,-17.0981 27.58138,-17.0981 10.1921,0 17.3893,17.0981 27.5814,17.0981 10.1921,0 17.3893,-17.0981 27.5814,-17.0981 10.1921,0 17.3893,17.0981 27.5814,17.0981 10.1921,0 17.3893,-17.0981 27.5814,-17.0981 10.1921,0 17.3893,17.0981 27.5814,17.0981 10.1921,0 17.3893,-17.0981 27.5814,-17.0981 10.1921,0 17.3893,17.0982 27.5814,17.0981 10.1921,0 17.3892,-17.0981 27.5813,-17.0981 10.1921,0 17.3893,17.0981 27.5814,17.0981 10.1921,0 17.3893,-17.0981 27.5814,-17.0981 10.1921,0 17.3893,17.0981 27.5814,17.0981 10.1921,0 17.3893,-17.0981 27.5814,-17.0981 10.1921,0 17.3893,17.0981 27.5814,17.0981 10.1921,0 17.3893,-17.0981 27.5814,-17.0981 10.1921,0 17.3893,17.0981 27.5814,17.0981 10.1921,0 17.3893,-17.0981 27.5814,-17.0981 10.1921,0 17.3893,17.0981 27.5814,17.0981 10.1921,0 17.3893,-17.0981 27.5814,-17.0981 10.1921,0 17.3893,17.0981 27.5814,17.0981 10.1921,0 17.3893,-17.0981 27.5814,-17.0981 10.1921,0 17.3893,17.0981 27.5814,17.0981 10.1921,0 17.3893,-17.0981 27.5814,-17.0981 10.1921,0 17.3892,17.0981 27.5813,17.0981 10.1921,10e-5 17.3893,-17.0981 27.5814,-17.0981 10.1921,0 17.3893,17.0981 27.5814,17.0981 10.1921,0 17.3893,-17.0981 27.5814,-17.0981 10.1921,0 17.3893,17.0981 27.5814,17.0981 10.1921,0 17.3893,-17.0981 27.5814,-17.0981 10.1921,0 17.3893,17.0981 27.5814,17.0981 10.1921,0 17.3893,-17.0981 27.5814,-17.0981 10.1921,0 17.3893,17.0981 27.5814,17.0981 10.1921,0 17.3893,-17.0981 27.5814,-17.0981 10.1921,0 17.3893,17.0981 27.5814,17.0981 10.1921,0 17.3893,-17.0981 27.5814,-17.0981 10.1921,0 17.3893,17.0981 27.5814,17.0981 10.1921,0 17.3893,-17.0981 27.5814,-17.0981 10.1921,0 17.3893,17.0981 27.5814,17.0981 10.1921,0 17.3893,-17.0981 27.5814,-17.0981 10.1921,0 17.3892,17.0981 27.5813,17.0981 10.1921,10e-5 17.3893,-17.0981 27.5814,-17.0981 10.1921,0 17.3893,17.0981 27.5814,17.0981 10.1921,0 17.3893,-17.0981 27.5814,-17.0981 10.1921,0 17.3893,17.0981 27.5814,17.0981 10.1921,0 17.3893,-17.0981 27.5814,-17.0981 10.1921,0 17.3893,17.0981 27.5814,17.0981 10.1921,0 17.3893,-17.0981 27.5814,-17.0981 10.1921,0 17.3893,17.0981 27.5814,17.0981 10.1921,0 17.3893,-17.0981 27.5814,-17.0981 10.1921,0 17.3893,17.0981 27.5814,17.0981 10.1921,0 17.3893,-17.0981 27.5814,-17.0981 10.1921,0 17.3893,17.0981 27.5814,17.0981 10.1921,0 17.3893,-17.0981 27.5814,-17.0981 10.1921,0 17.3893,17.0982 27.5814,17.0981 10.1921,0 17.3892,-17.0981 27.5813,-17.0981 10.1921,0 17.3893,17.0981 27.5814,17.0981 10.1921,0 17.3893,-17.0981 27.5814,-17.0981 10.1921,0 17.3893,17.0981 27.5814,17.0981 10.1921,0 17.3893,-17.0981 27.5814,-17.0981 10.1921,0 17.3893,17.0981 27.5814,17.0981 10.1921,0 17.3893,-17.0981 27.5814,-17.0981 10.1921,0 17.3893,17.0981 27.5814,17.0981 10.1921,0 17.3893,-17.0981 27.5814,-17.0981 10.1921,0 17.3893,17.0981 27.5814,17.0981 10.1921,0 17.3893,-17.0981 27.5814,-17.0981 10.1921,0 17.3893,17.0981 27.5814,17.0981 10.1921,0 17.3893,-17.0981 27.5814,-17.0981 10.1921,0 17.3893,17.0981 27.5814,17.0981 10.1921,0 17.3893,-17.0981 27.5814,-17.0981 10.1921,0 17.3892,17.0981 27.5813,17.0981 10.1921,10e-5 17.3893,-17.0981 27.5814,-17.0981 10.1921,0 17.3893,17.0981 27.5814,17.0981 10.1921,0 17.3893,-17.0981 27.5814,-17.0981 10.1921,0 17.3893,17.0981 27.5814,17.0981 10.1921,0 17.3893,-17.0981 27.5814,-17.0981 10.1921,0 17.3893,17.0981 27.5814,17.0981 10.1921,0 17.3893,-17.0981 27.5814,-17.0981 10.1921,0 17.3893,17.0981 27.5814,17.0981 10.1921,0 17.3893,-17.0981 27.5814,-17.0981 10.1921,0 17.3893,17.0981 27.5814,17.0981"
       style="fill:none;stroke:#00b2f8;stroke-width:3.59999895;stroke-linecap:butt;stroke-linejoin:miter;stroke-miterlimit:4;stroke-opacity:1;stroke-dasharray:none;display:inline"
       id="path7841" />
  </g>
</svg>
