<?xml version="1.0" encoding="UTF-8" standalone="no"?>
<!-- Created with Inkscape (http://www.inkscape.org/) -->

<svg
   xmlns:dc="http://purl.org/dc/elements/1.1/"
   xmlns:cc="http://creativecommons.org/ns#"
   xmlns:rdf="http://www.w3.org/1999/02/22-rdf-syntax-ns#"
   xmlns:svg="http://www.w3.org/2000/svg"
   xmlns="http://www.w3.org/2000/svg"
   xmlns:sodipodi="http://sodipodi.sourceforge.net/DTD/sodipodi-0.dtd"
   xmlns:inkscape="http://www.inkscape.org/namespaces/inkscape"
   sodipodi:docname="traditional3b.svg"
   inkscape:version="0.91 r13725"
   version="1.1"
   id="svg27345"
   height="800"
   width="3200">
  <sodipodi:namedview
     id="base"
     pagecolor="#ffffff"
     bordercolor="#666666"
     borderopacity="1.0"
     inkscape:pageopacity="0.0"
     inkscape:pageshadow="2"
     inkscape:zoom="0.26450996"
     inkscape:cx="1603.5121"
     inkscape:cy="391.23737"
     inkscape:document-units="px"
     inkscape:current-layer="layer2"
     showgrid="false"
     inkscape:window-width="1440"
     inkscape:window-height="855"
     inkscape:window-x="0"
     inkscape:window-y="0"
     inkscape:window-maximized="0" />
  <defs
     id="defs27347">
    <inkscape:perspective
       id="perspective27353"
       inkscape:persp3d-origin="372.04724 : 350.78739 : 1"
       inkscape:vp_z="744.09448 : 526.18109 : 1"
       inkscape:vp_y="0 : 1000 : 0"
       inkscape:vp_x="0 : 526.18109 : 1"
       sodipodi:type="inkscape:persp3d" />
    <inkscape:perspective
       id="perspective6460"
       inkscape:persp3d-origin="0.5 : 0.33333333 : 1"
       inkscape:vp_z="1 : 0.5 : 1"
       inkscape:vp_y="0 : 1000 : 0"
       inkscape:vp_x="0 : 0.5 : 1"
       sodipodi:type="inkscape:persp3d" />
    <inkscape:perspective
       id="perspective23322"
       inkscape:persp3d-origin="0.5 : 0.33333333 : 1"
       inkscape:vp_z="1 : 0.5 : 1"
       inkscape:vp_y="0 : 1000 : 0"
       inkscape:vp_x="0 : 0.5 : 1"
       sodipodi:type="inkscape:persp3d" />
    <inkscape:perspective
       id="perspective23344"
       inkscape:persp3d-origin="0.5 : 0.33333333 : 1"
       inkscape:vp_z="1 : 0.5 : 1"
       inkscape:vp_y="0 : 1000 : 0"
       inkscape:vp_x="0 : 0.5 : 1"
       sodipodi:type="inkscape:persp3d" />
    <inkscape:perspective
       id="perspective23344-6"
       inkscape:persp3d-origin="0.5 : 0.33333333 : 1"
       inkscape:vp_z="1 : 0.5 : 1"
       inkscape:vp_y="0 : 1000 : 0"
       inkscape:vp_x="0 : 0.5 : 1"
       sodipodi:type="inkscape:persp3d" />
    <inkscape:perspective
       id="perspective23375"
       inkscape:persp3d-origin="0.5 : 0.33333333 : 1"
       inkscape:vp_z="1 : 0.5 : 1"
       inkscape:vp_y="0 : 1000 : 0"
       inkscape:vp_x="0 : 0.5 : 1"
       sodipodi:type="inkscape:persp3d" />
    <inkscape:perspective
       id="perspective23375-0"
       inkscape:persp3d-origin="0.5 : 0.33333333 : 1"
       inkscape:vp_z="1 : 0.5 : 1"
       inkscape:vp_y="0 : 1000 : 0"
       inkscape:vp_x="0 : 0.5 : 1"
       sodipodi:type="inkscape:persp3d" />
    <inkscape:perspective
       id="perspective23375-9"
       inkscape:persp3d-origin="0.5 : 0.33333333 : 1"
       inkscape:vp_z="1 : 0.5 : 1"
       inkscape:vp_y="0 : 1000 : 0"
       inkscape:vp_x="0 : 0.5 : 1"
       sodipodi:type="inkscape:persp3d" />
    <inkscape:perspective
       id="perspective23375-91"
       inkscape:persp3d-origin="0.5 : 0.33333333 : 1"
       inkscape:vp_z="1 : 0.5 : 1"
       inkscape:vp_y="0 : 1000 : 0"
       inkscape:vp_x="0 : 0.5 : 1"
       sodipodi:type="inkscape:persp3d" />
    <inkscape:perspective
       id="perspective23375-3"
       inkscape:persp3d-origin="0.5 : 0.33333333 : 1"
       inkscape:vp_z="1 : 0.5 : 1"
       inkscape:vp_y="0 : 1000 : 0"
       inkscape:vp_x="0 : 0.5 : 1"
       sodipodi:type="inkscape:persp3d" />
    <inkscape:perspective
       id="perspective23375-5"
       inkscape:persp3d-origin="0.5 : 0.33333333 : 1"
       inkscape:vp_z="1 : 0.5 : 1"
       inkscape:vp_y="0 : 1000 : 0"
       inkscape:vp_x="0 : 0.5 : 1"
       sodipodi:type="inkscape:persp3d" />
    <inkscape:perspective
       id="perspective23375-8"
       inkscape:persp3d-origin="0.5 : 0.33333333 : 1"
       inkscape:vp_z="1 : 0.5 : 1"
       inkscape:vp_y="0 : 1000 : 0"
       inkscape:vp_x="0 : 0.5 : 1"
       sodipodi:type="inkscape:persp3d" />
    <inkscape:perspective
       id="perspective23375-4"
       inkscape:persp3d-origin="0.5 : 0.33333333 : 1"
       inkscape:vp_z="1 : 0.5 : 1"
       inkscape:vp_y="0 : 1000 : 0"
       inkscape:vp_x="0 : 0.5 : 1"
       sodipodi:type="inkscape:persp3d" />
    <inkscape:perspective
       id="perspective23375-38"
       inkscape:persp3d-origin="0.5 : 0.33333333 : 1"
       inkscape:vp_z="1 : 0.5 : 1"
       inkscape:vp_y="0 : 1000 : 0"
       inkscape:vp_x="0 : 0.5 : 1"
       sodipodi:type="inkscape:persp3d" />
    <inkscape:perspective
       id="perspective23375-80"
       inkscape:persp3d-origin="0.5 : 0.33333333 : 1"
       inkscape:vp_z="1 : 0.5 : 1"
       inkscape:vp_y="0 : 1000 : 0"
       inkscape:vp_x="0 : 0.5 : 1"
       sodipodi:type="inkscape:persp3d" />
    <inkscape:perspective
       id="perspective23375-03"
       inkscape:persp3d-origin="0.5 : 0.33333333 : 1"
       inkscape:vp_z="1 : 0.5 : 1"
       inkscape:vp_y="0 : 1000 : 0"
       inkscape:vp_x="0 : 0.5 : 1"
       sodipodi:type="inkscape:persp3d" />
    <inkscape:perspective
       id="perspective23375-6"
       inkscape:persp3d-origin="0.5 : 0.33333333 : 1"
       inkscape:vp_z="1 : 0.5 : 1"
       inkscape:vp_y="0 : 1000 : 0"
       inkscape:vp_x="0 : 0.5 : 1"
       sodipodi:type="inkscape:persp3d" />
    <inkscape:perspective
       id="perspective23375-1"
       inkscape:persp3d-origin="0.5 : 0.33333333 : 1"
       inkscape:vp_z="1 : 0.5 : 1"
       inkscape:vp_y="0 : 1000 : 0"
       inkscape:vp_x="0 : 0.5 : 1"
       sodipodi:type="inkscape:persp3d" />
    <inkscape:perspective
       id="perspective23375-88"
       inkscape:persp3d-origin="0.5 : 0.33333333 : 1"
       inkscape:vp_z="1 : 0.5 : 1"
       inkscape:vp_y="0 : 1000 : 0"
       inkscape:vp_x="0 : 0.5 : 1"
       sodipodi:type="inkscape:persp3d" />
  </defs>
  <metadata
     id="metadata27350">
    <rdf:RDF>
      <cc:Work
         rdf:about="">
        <dc:format>image/svg+xml</dc:format>
        <dc:type
           rdf:resource="http://purl.org/dc/dcmitype/StillImage" />
        <dc:title></dc:title>
      </cc:Work>
    </rdf:RDF>
  </metadata>
  <g
     transform="translate(0,-252.36218)"
     id="layer1"
     inkscape:groupmode="layer"
     inkscape:label="1-black"
     style="display:inline">
    <path
       id="path24419"
       d="m 3.1098966,1048.7291 3196.9737034,0"
       style="fill:none;stroke:#000000;stroke-width:4;stroke-linecap:butt;stroke-linejoin:miter;stroke-miterlimit:4;stroke-dasharray:none;stroke-opacity:1"
       inkscape:connector-curvature="0" />
    <path
       style="fill:none;stroke:#000000;stroke-width:4;stroke-linecap:butt;stroke-linejoin:miter;stroke-miterlimit:4;stroke-dasharray:none;stroke-opacity:1"
       d="m 3.1098966,273.52058 3196.9737034,0"
       id="path24423"
       inkscape:connector-curvature="0" />
    <g
       style="font-style:normal;font-variant:normal;font-weight:300;font-stretch:normal;font-size:164.3117981px;line-height:125%;font-family:Miso;-inkscape-font-specification:'Miso Light';text-align:start;letter-spacing:0;word-spacing:0;writing-mode:lr-tb;text-anchor:start;fill:none;stroke:#000000;stroke-width:4.56449986;stroke-miterlimit:4;stroke-dasharray:none;stroke-opacity:1"
       id="text6501"
       transform="matrix(1.032954,0,0,0.74345142,-1.827647,251.153)">
      <path
         d="m 193.56932,596.097 c 1.64311,-0.32862 2.46467,-1.3145 2.46467,-3.12192 l 0,-95.30085 c 0,-2.13605 -0.98587,-3.12192 -3.12192,-3.12192 -2.13605,0 -3.12192,0.98587 -3.12192,3.12192 l 0,81.49865 c -4.76504,-9.20145 -14.78807,-30.06907 -23.49659,-48.47198 -5.25797,-10.84456 -10.84459,-22.34641 -16.59549,-34.34116 -0.82156,-1.47881 -1.97175,-2.13606 -3.45055,-1.80743 -1.64312,0.32862 -2.46468,1.31449 -2.46468,3.12192 l 0,95.30085 c 0,2.13605 0.98588,3.12192 3.12193,3.12192 2.13605,0 3.12192,-0.98587 3.12192,-3.12192 l 0,-81.49866 c 4.43642,9.20145 14.78807,30.06908 23.49659,48.47198 5.25797,10.84457 10.84458,22.34642 16.59549,34.34117 0.82156,1.4788 1.97174,2.13605 3.45055,1.80743"
         style="fill:none;stroke:#000000;stroke-width:4.56449986;stroke-miterlimit:4;stroke-dasharray:none;stroke-opacity:1"
         id="path6506"
         inkscape:connector-curvature="0" />
      <path
         d="m 220.75779,517.39165 0,55.86601 c 0,12.652 10.18734,22.83934 22.83934,22.83934 12.65199,0 22.83934,-10.18734 22.83934,-22.83934 l 0,-55.86601 c 0,-12.652 -10.18735,-22.83934 -22.83934,-22.83934 -12.652,0 -22.83934,10.18734 -22.83934,22.83934 m 39.43483,0 0,55.86601 c 0,9.20145 -7.39404,16.59549 -16.59549,16.59549 -9.20145,0 -16.59549,-7.39404 -16.59549,-16.59549 l 0,-55.86601 c 0,-9.20145 7.39404,-16.59549 16.59549,-16.59549 9.20145,0 16.59549,7.39404 16.59549,16.59549"
         style="fill:none;stroke:#000000;stroke-width:4.56449986;stroke-miterlimit:4;stroke-dasharray:none;stroke-opacity:1"
         id="path6508"
         inkscape:connector-curvature="0" />
      <path
         d="m 327.14711,495.20956 -42.72107,0 c -1.80742,0 -3.12192,1.31449 -3.12192,3.12192 0,1.80743 1.3145,3.12192 3.12192,3.12192 l 18.23861,0 0,91.52168 c 0,1.80742 1.3145,3.12192 3.12193,3.12192 1.80743,0 3.28623,-1.3145 3.28623,-3.12192 l 0,-91.52168 18.0743,0 c 1.80743,0 3.28624,-1.31449 3.28624,-3.12192 0,-1.80743 -1.47881,-3.12192 -3.28624,-3.12192"
         style="fill:none;stroke:#000000;stroke-width:4.56449986;stroke-miterlimit:4;stroke-dasharray:none;stroke-opacity:1"
         id="path6510"
         inkscape:connector-curvature="0" />
      <path
         d="m 353.5782,596.097 c 1.80743,0 3.28623,-1.3145 3.28623,-3.12192 l 0,-95.30085 c 0,-1.80743 -1.4788,-3.12192 -3.28623,-3.12192 -1.80743,0 -3.12193,1.31449 -3.12193,3.12192 l 0,95.30085 c 0,1.80742 1.3145,3.12192 3.12193,3.12192"
         style="fill:none;stroke:#000000;stroke-width:4.56449986;stroke-miterlimit:4;stroke-dasharray:none;stroke-opacity:1"
         id="path6512"
         inkscape:connector-curvature="0" />
      <path
         d="m 398.14264,595.43975 c 10.02301,2.62899 20.53898,-1.64312 25.63264,-10.68026 1.15018,-1.80743 0.65725,-3.28624 -1.15018,-4.43642 -1.47881,-0.82156 -3.45055,-0.32863 -4.27211,1.15018 -3.77917,6.57246 -11.33752,9.69439 -18.56723,7.72265 -7.22971,-1.80742 -12.32339,-8.21559 -12.32339,-15.93824 l 0,-55.86601 c 0,-7.39403 5.09368,-14.13082 12.32339,-15.93825 7.22971,-1.97174 14.78806,1.15019 18.56723,7.72266 0.82156,1.4788 2.7933,1.97174 4.27211,1.15018 1.80743,-1.15018 2.30036,-2.62899 1.15018,-4.43642 -5.09366,-9.03714 -15.60963,-13.30925 -25.63264,-10.51595 -10.02301,2.62898 -16.92411,11.50183 -16.92411,22.01778 l 0,55.86601 c 0,10.51594 6.9011,19.38879 16.92411,22.18209"
         style="fill:none;stroke:#000000;stroke-width:4.56449986;stroke-miterlimit:4;stroke-dasharray:none;stroke-opacity:1"
         id="path6514"
         inkscape:connector-curvature="0" />
      <path
         d="m 449.53373,595.43975 32.86236,0 c 2.13605,0 3.12193,-0.98587 3.12193,-3.12192 0,-2.13605 -0.98588,-3.12193 -3.12193,-3.12193 l -29.74043,0 0,-42.39244 26.4542,0 c 2.13605,0 3.12192,-0.98587 3.12192,-3.12192 0,-2.13606 -0.98587,-3.12193 -3.12192,-3.12193 l -26.4542,0 0,-39.10621 29.74043,0 c 2.13605,0 3.12193,-0.98587 3.12193,-3.12192 0,-2.13605 -0.98588,-3.12192 -3.12193,-3.12192 l -32.86236,0 c -2.13605,0 -3.12192,0.98587 -3.12192,3.12192 l 0,93.98635 c 0,2.13605 0.98587,3.12192 3.12192,3.12192"
         style="fill:none;stroke:#000000;stroke-width:4.56449986;stroke-miterlimit:4;stroke-dasharray:none;stroke-opacity:1"
         id="path6516"
         inkscape:connector-curvature="0" />
      <path
         d="m 514.13906,591.33196 c 0,-2.62899 -2.13605,-4.76504 -4.92935,-4.76504 -2.62899,0 -4.76504,2.13605 -4.76504,4.76504 0,2.62898 2.13605,4.76504 4.76504,4.76504 2.7933,0 4.92935,-2.13606 4.92935,-4.76504 m -4.92935,-67.20353 c -2.62899,0 -4.76504,2.13606 -4.76504,4.76504 0,2.62899 2.13605,4.76505 4.76504,4.76505 2.7933,0 4.92935,-2.13606 4.92935,-4.76505 0,-2.62898 -2.13605,-4.76504 -4.92935,-4.76504"
         style="fill:none;stroke:#000000;stroke-width:4.56449986;stroke-miterlimit:4;stroke-dasharray:none;stroke-opacity:1"
         id="path6518"
         inkscape:connector-curvature="0" />
      <path
         d="m 608.91616,495.20956 -42.72107,0 c -1.80743,0 -3.12193,1.31449 -3.12193,3.12192 0,1.80743 1.3145,3.12192 3.12193,3.12192 l 18.23861,0 0,91.52168 c 0,1.80742 1.31449,3.12192 3.12192,3.12192 1.80743,0 3.28624,-1.3145 3.28624,-3.12192 l 0,-91.52168 18.0743,0 c 1.80742,0 3.28623,-1.31449 3.28623,-3.12192 0,-1.80743 -1.47881,-3.12192 -3.28623,-3.12192"
         style="fill:none;stroke:#000000;stroke-width:4.56449986;stroke-miterlimit:4;stroke-dasharray:none;stroke-opacity:1"
         id="path6520"
         inkscape:connector-curvature="0" />
      <path
         d="m 671.66018,540.55961 -33.02667,0 0,-42.88538 c 0,-1.80743 -1.47881,-3.12192 -3.28624,-3.12192 -1.80743,0 -3.12192,1.31449 -3.12192,3.12192 l 0,95.30085 c 0,1.80742 1.31449,3.12192 3.12192,3.12192 1.80743,0 3.28624,-1.3145 3.28624,-3.12192 l 0,-46.17162 33.02667,0 0,46.17162 c 0,1.80742 1.3145,3.12192 3.12192,3.12192 1.80743,0 3.28624,-1.3145 3.28624,-3.12192 l 0,-95.30085 c 0,-1.80743 -1.47881,-3.12192 -3.28624,-3.12192 -1.80742,0 -3.12192,1.31449 -3.12192,3.12192 l 0,42.88538"
         style="fill:none;stroke:#000000;stroke-width:4.56449986;stroke-miterlimit:4;stroke-dasharray:none;stroke-opacity:1"
         id="path6522"
         inkscape:connector-curvature="0" />
      <path
         d="m 707.55461,596.097 c 1.80743,0 3.28623,-1.3145 3.28623,-3.12192 l 0,-95.30085 c 0,-1.80743 -1.4788,-3.12192 -3.28623,-3.12192 -1.80743,0 -3.12193,1.31449 -3.12193,3.12192 l 0,95.30085 c 0,1.80742 1.3145,3.12192 3.12193,3.12192"
         style="fill:none;stroke:#000000;stroke-width:4.56449986;stroke-miterlimit:4;stroke-dasharray:none;stroke-opacity:1"
         id="path6524"
         inkscape:connector-curvature="0" />
      <path
         d="m 764.60676,586.23829 c -3.94348,3.12192 -8.87284,4.43642 -13.9665,3.28624 -5.09366,-1.15018 -8.87284,-3.94349 -11.50183,-8.3799 -1.15018,-1.47881 -2.7933,-1.97174 -4.2721,-1.15019 -1.80743,0.82156 -2.13605,2.79331 -1.3145,4.27211 3.45055,5.91522 9.20147,10.02302 15.93825,11.33751 6.57246,1.47881 13.47357,-0.16431 18.89585,-4.2721 5.42229,-4.10779 8.87284,-10.35165 9.36578,-17.08843 0.49293,-6.73678 -1.80744,-13.47357 -6.57248,-18.23861 l -26.28988,-27.11145 c -3.28624,-3.28623 -5.09367,-8.05128 -4.60073,-12.81632 0.49293,-4.60072 2.7933,-9.03715 6.57247,-11.83045 3.77917,-3.12192 8.54422,-3.94348 13.14494,-3.12192 4.76504,1.15018 8.70853,3.94349 11.1732,8.05128 0.82156,1.4788 2.79331,1.97174 4.27211,1.15018 1.64312,-1.15018 1.97174,-2.62899 1.15018,-4.43642 -3.28623,-5.7509 -8.87284,-9.53008 -15.28099,-10.84458 -6.40816,-1.31449 -13.14495,0.16432 -18.40292,4.1078 -5.09366,3.94348 -8.37991,10.02302 -8.87284,16.43118 -0.49294,6.57246 1.80743,12.98064 6.40816,17.74567 l 26.12557,26.94714 c 3.61486,3.77917 5.25798,8.3799 4.92936,13.47356 -0.49294,5.09367 -2.95762,9.36578 -6.9011,12.4877"
         style="fill:none;stroke:#000000;stroke-width:4.56449986;stroke-miterlimit:4;stroke-dasharray:none;stroke-opacity:1"
         id="path6526"
         inkscape:connector-curvature="0" />
      <path
         d="m 834.63951,595.43975 32.86236,0 c 2.13605,0 3.12192,-0.98587 3.12192,-3.12192 0,-2.13605 -0.98587,-3.12193 -3.12192,-3.12193 l -29.74044,0 0,-42.39244 26.4542,0 c 2.13605,0 3.12193,-0.98587 3.12193,-3.12192 0,-2.13606 -0.98588,-3.12193 -3.12193,-3.12193 l -26.4542,0 0,-39.10621 29.74044,0 c 2.13605,0 3.12192,-0.98587 3.12192,-3.12192 0,-2.13605 -0.98587,-3.12192 -3.12192,-3.12192 l -32.86236,0 c -2.13605,0 -3.12193,0.98587 -3.12193,3.12192 l 0,93.98635 c 0,2.13605 0.98588,3.12192 3.12193,3.12192"
         style="fill:none;stroke:#000000;stroke-width:4.56449986;stroke-miterlimit:4;stroke-dasharray:none;stroke-opacity:1"
         id="path6528"
         inkscape:connector-curvature="0" />
      <path
         d="m 889.87909,517.39165 0,55.86601 c 0,12.652 10.35166,22.83934 22.83934,22.83934 12.652,0 22.83934,-10.18734 22.83934,-22.83934 l 0,-26.28989 c 0,-2.13605 -0.98587,-3.12192 -3.12192,-3.12192 l -16.43118,0 c -1.80743,0 -3.12192,1.31449 -3.12192,3.12192 0,1.80743 1.31449,3.12193 3.12192,3.12193 l 13.30926,0 0,23.16796 c 0,9.20145 -7.39404,16.59549 -16.5955,16.59549 -9.03714,0 -16.59549,-7.39404 -16.59549,-16.59549 l 0,-55.86601 c 0,-7.39403 5.09368,-14.13082 12.32339,-15.93825 7.22971,-1.97174 14.95237,1.15019 18.73154,7.72266 0.82156,1.4788 2.7933,1.97174 4.27211,1.15018 1.64312,-1.15018 1.97174,-2.62899 1.15018,-4.43642 -5.25797,-9.03714 -15.77394,-13.30925 -25.79695,-10.51595 -9.8587,2.62898 -16.92412,11.50183 -16.92412,22.01778"
         style="fill:none;stroke:#000000;stroke-width:4.56449986;stroke-miterlimit:4;stroke-dasharray:none;stroke-opacity:1"
         id="path6530"
         inkscape:connector-curvature="0" />
      <path
         d="m 957.59351,517.39165 0,55.86601 c 0,12.652 10.35166,22.83934 22.83934,22.83934 12.652,0 22.83935,-10.18734 22.83935,-22.83934 l 0,-26.28989 c 0,-2.13605 -0.9859,-3.12192 -3.1219,-3.12192 l -16.43121,0 c -1.80743,0 -3.12193,1.31449 -3.12193,3.12192 0,1.80743 1.3145,3.12193 3.12193,3.12193 l 13.30925,0 0,23.16796 c 0,9.20145 -7.39404,16.59549 -16.59549,16.59549 -9.03714,0 -16.59549,-7.39404 -16.59549,-16.59549 l 0,-55.86601 c 0,-7.39403 5.09367,-14.13082 12.32338,-15.93825 7.22972,-1.97174 14.95238,1.15019 18.73155,7.72266 0.82156,1.4788 2.7933,1.97174 4.27211,1.15018 1.6431,-1.15018 1.9717,-2.62899 1.1502,-4.43642 -5.25799,-9.03714 -15.77396,-13.30925 -25.79697,-10.51595 -9.8587,2.62898 -16.92412,11.50183 -16.92412,22.01778"
         style="fill:none;stroke:#000000;stroke-width:4.56449986;stroke-miterlimit:4;stroke-dasharray:none;stroke-opacity:1"
         id="path6532"
         inkscape:connector-curvature="0" />
      <path
         d="m 1053.6363,498.49579 23.0037,95.30084 c 0.3286,1.47881 1.3145,2.30037 3.1219,2.30037 1.4788,0 2.4647,-0.82156 2.9576,-2.30037 2.7933,-11.99474 5.5866,-23.49659 8.2156,-34.17685 4.4364,-18.4029 9.6944,-38.94191 11.8304,-48.47198 2.1361,9.53007 7.2298,30.06908 11.6662,48.47198 2.629,10.68026 5.4223,22.18211 8.2156,34.17685 0.3286,1.47881 1.3145,2.30037 3.1219,2.30037 1.4788,0 2.4647,-0.82156 2.9576,-2.30037 l 23.0037,-95.30084 c 0.4929,-2.13605 -0.1643,-3.45055 -2.3004,-3.94348 -1.8074,-0.49294 -3.2862,0.65725 -3.7792,2.46468 -2.7933,11.99474 -5.5866,23.49659 -8.2156,34.17685 -4.4364,18.4029 -9.53,38.61328 -11.6661,48.30767 -2.1361,-9.69439 -7.394,-29.90477 -11.8304,-48.30767 -2.629,-10.68026 -5.4223,-22.18211 -8.2156,-34.17685 -0.3287,-1.64312 -1.3145,-2.46468 -2.9577,-2.46468 -1.8074,0 -2.7933,0.82156 -3.1219,2.46468 -2.7933,11.99474 -5.5866,23.49659 -8.2156,34.17685 -4.4364,18.4029 -9.5301,38.61328 -11.6661,48.30767 -2.1361,-9.69439 -7.394,-29.90477 -11.8305,-48.30767 -2.6289,-10.68026 -5.4222,-22.18211 -8.2155,-34.17685 -0.493,-1.80743 -1.9718,-2.95762 -3.7792,-2.46468 -1.8074,0.49293 -2.629,1.80743 -2.3004,3.94348"
         style="fill:none;stroke:#000000;stroke-width:4.56449986;stroke-miterlimit:4;stroke-dasharray:none;stroke-opacity:1"
         id="path6534"
         inkscape:connector-curvature="0" />
      <path
         d="m 1218.3101,592.15352 -26.2899,-95.30085 c -0.4929,-1.4788 -1.4788,-2.30036 -2.9576,-2.30036 -1.4788,0 -2.629,0.82156 -3.1219,2.30036 l -26.2899,95.30085 c -0.493,1.80742 0.4929,3.45054 2.3003,3.94348 1.8075,0.49293 3.2863,-0.49294 3.7792,-2.30037 0.493,-1.80742 1.1502,-3.77917 1.6431,-5.91522 1.1502,-3.77917 2.3004,-8.70853 4.1078,-14.78806 l 35.1628,0 c 1.8074,6.07953 2.7933,11.00889 3.9434,14.78806 0.493,2.13605 1.1502,4.1078 1.6432,5.91522 0.4929,1.80743 2.136,2.7933 3.9434,2.30037 1.8075,-0.49294 2.629,-2.13606 2.1361,-3.94348 m -13.4736,-25.30402 -31.5478,0 c 5.7509,-20.70327 13.1449,-47.32181 15.7739,-57.34482 2.629,10.02301 10.023,36.64155 15.7739,57.34482"
         style="fill:none;stroke:#000000;stroke-width:4.56449986;stroke-miterlimit:4;stroke-dasharray:none;stroke-opacity:1"
         id="path6536"
         inkscape:connector-curvature="0" />
      <path
         d="m 1265.2443,586.23829 c -3.9435,3.12192 -8.8729,4.43642 -13.9665,3.28624 -5.0937,-1.15018 -8.8729,-3.94349 -11.5019,-8.3799 -1.1501,-1.47881 -2.7933,-1.97174 -4.2721,-1.15019 -1.8074,0.82156 -2.136,2.79331 -1.3145,4.27211 3.4506,5.91522 9.2015,10.02302 15.9383,11.33751 6.5725,1.47881 13.4736,-0.16431 18.8958,-4.2721 5.4223,-4.10779 8.8729,-10.35165 9.3658,-17.08843 0.493,-6.73678 -1.8074,-13.47357 -6.5725,-18.23861 l -26.2898,-27.11145 c -3.2863,-3.28623 -5.0937,-8.05128 -4.6008,-12.81632 0.493,-4.60072 2.7933,-9.03715 6.5725,-11.83045 3.7792,-3.12192 8.5442,-3.94348 13.1449,-3.12192 4.7651,1.15018 8.7086,3.94349 11.1732,8.05128 0.8216,1.4788 2.7933,1.97174 4.2722,1.15018 1.6431,-1.15018 1.9717,-2.62899 1.1501,-4.43642 -3.2862,-5.7509 -8.8728,-9.53008 -15.281,-10.84458 -6.4081,-1.31449 -13.1449,0.16432 -18.4029,4.1078 -5.0936,3.94348 -8.3799,10.02302 -8.8728,16.43118 -0.493,6.57246 1.8074,12.98064 6.4081,17.74567 l 26.1256,26.94714 c 3.6149,3.77917 5.258,8.3799 4.9294,13.47356 -0.493,5.09367 -2.9576,9.36578 -6.9011,12.4877"
         style="fill:none;stroke:#000000;stroke-width:4.56449986;stroke-miterlimit:4;stroke-dasharray:none;stroke-opacity:1"
         id="path6538"
         inkscape:connector-curvature="0" />
      <path
         d="m 1335.277,595.43975 32.8623,0 c 1.8074,0 3.1219,-1.31449 3.1219,-3.12192 0,-1.80743 -1.3145,-3.12193 -3.1219,-3.12193 l -29.7404,0 0,-91.52167 c 0,-1.80743 -1.3145,-3.12192 -3.1219,-3.12192 -1.8075,0 -3.2863,1.31449 -3.2863,3.12192 l 0,94.6436 c 0,1.80743 1.4788,3.12192 3.2863,3.12192"
         style="fill:none;stroke:#000000;stroke-width:4.56449986;stroke-miterlimit:4;stroke-dasharray:none;stroke-opacity:1"
         id="path6540"
         inkscape:connector-curvature="0" />
      <path
         d="m 1440.7087,592.15352 -26.2899,-95.30085 c -0.493,-1.4788 -1.4788,-2.30036 -2.9576,-2.30036 -1.4789,0 -2.629,0.82156 -3.122,2.30036 l -26.2899,95.30085 c -0.4929,1.80742 0.493,3.45054 2.3004,3.94348 1.8074,0.49293 3.2862,-0.49294 3.7792,-2.30037 0.4929,-1.80742 1.1502,-3.77917 1.6431,-5.91522 1.1502,-3.77917 2.3004,-8.70853 4.1078,-14.78806 l 35.1627,0 c 1.8074,6.07953 2.7933,11.00889 3.9435,14.78806 0.4929,2.13605 1.1502,4.1078 1.6431,5.91522 0.4929,1.80743 2.1361,2.7933 3.9435,2.30037 1.8074,-0.49294 2.629,-2.13606 2.1361,-3.94348 m -13.4736,-25.30402 -31.5479,0 c 5.7509,-20.70327 13.145,-47.32181 15.774,-57.34482 2.6289,10.02301 10.023,36.64155 15.7739,57.34482"
         style="fill:none;stroke:#000000;stroke-width:4.56449986;stroke-miterlimit:4;stroke-dasharray:none;stroke-opacity:1"
         id="path6542"
         inkscape:connector-curvature="0" />
      <path
         d="m 1463.3247,596.097 c 1.8074,0 3.2862,-1.3145 3.2862,-3.12192 l 0,-95.30085 c 0,-1.80743 -1.4788,-3.12192 -3.2862,-3.12192 -1.8074,0 -3.1219,1.31449 -3.1219,3.12192 l 0,95.30085 c 0,1.80742 1.3145,3.12192 3.1219,3.12192"
         style="fill:none;stroke:#000000;stroke-width:4.56449986;stroke-miterlimit:4;stroke-dasharray:none;stroke-opacity:1"
         id="path6544"
         inkscape:connector-curvature="0" />
      <path
         d="m 1515.7761,495.20956 -19.7174,0 c -2.1361,0 -3.1219,0.98587 -3.1219,3.12192 l 0,93.98635 c 0,2.13605 0.9858,3.12192 3.1219,3.12192 l 19.7174,0 c 12.652,0 22.8394,-10.18734 22.8394,-22.83934 l 0,-54.55151 c 0,-12.652 -10.1874,-22.83934 -22.8394,-22.83934 m 16.5955,22.83934 0,54.55151 c 0,9.20145 -7.394,16.59549 -16.5955,16.59549 l -16.5955,0 0,-87.7425 16.5955,0 c 9.2015,0 16.5955,7.39404 16.5955,16.5955"
         style="fill:none;stroke:#000000;stroke-width:4.56449986;stroke-miterlimit:4;stroke-dasharray:none;stroke-opacity:1"
         id="path6546"
         inkscape:connector-curvature="0" />
      <path
         d="m 1594.6688,498.33148 0,93.98635 c 0,2.13605 0.9859,3.12192 3.122,3.12192 l 19.7174,0 c 12.652,0 22.8393,-10.18734 22.8393,-22.83934 l 0,-9.20146 c 0,-8.37989 -4.6007,-15.77393 -11.3375,-19.71741 6.7368,-3.94348 11.3375,-11.33753 11.3375,-19.71742 l 0,-5.91522 c 0,-12.652 -10.1873,-22.83934 -22.8393,-22.83934 l -19.7174,0 c -2.1361,0 -3.122,0.98587 -3.122,3.12192 m 39.4349,65.06747 0,9.20146 c 0,9.20145 -7.5584,16.59549 -16.5955,16.59549 l -16.5955,0 0,-42.39244 16.5955,0 c 9.0371,0 16.5955,7.39404 16.5955,16.59549 m 0,-45.35005 0,5.91522 c 0,9.20145 -7.5584,16.59549 -16.5955,16.59549 l -16.5955,0 0,-39.10621 16.5955,0 c 9.0371,0 16.5955,7.39404 16.5955,16.5955"
         style="fill:none;stroke:#000000;stroke-width:4.56449986;stroke-miterlimit:4;stroke-dasharray:none;stroke-opacity:1"
         id="path6548"
         inkscape:connector-curvature="0" />
      <path
         d="m 1660.1856,494.88093 c -1.4788,0.82156 -2.136,2.46468 -1.3144,4.27211 l 22.675,45.35005 0,48.47199 c 0,2.13605 0.9859,3.12192 3.1219,3.12192 2.1361,0 3.1219,-0.98587 3.1219,-3.12192 l 0,-48.47199 22.6751,-45.35005 c 0.8215,-1.80743 0.1643,-3.45055 -1.3145,-4.27211 -1.8075,-0.82156 -3.4506,-0.16431 -4.2721,1.3145 -3.122,6.07953 -5.9153,11.66614 -8.5443,16.92411 -4.6007,9.20145 -9.53,19.06017 -11.6661,23.49659 -2.136,-4.43642 -7.2297,-14.29514 -11.6661,-23.49659 -2.7933,-5.25797 -5.5866,-10.84458 -8.5442,-16.92411 -0.8216,-1.47881 -2.4647,-2.13606 -4.2722,-1.3145"
         style="fill:none;stroke:#000000;stroke-width:4.56449986;stroke-miterlimit:4;stroke-dasharray:none;stroke-opacity:1"
         id="path6550"
         inkscape:connector-curvature="0" />
      <path
         d="m 1813.9403,592.15352 -26.2898,-95.30085 c -0.493,-1.4788 -1.4789,-2.30036 -2.9577,-2.30036 -1.4788,0 -2.6289,0.82156 -3.1219,2.30036 l -26.2899,95.30085 c -0.4929,1.80742 0.493,3.45054 2.3004,3.94348 1.8074,0.49293 3.2862,-0.49294 3.7792,-2.30037 0.4929,-1.80742 1.1501,-3.77917 1.6431,-5.91522 1.1502,-3.77917 2.3004,-8.70853 4.1078,-14.78806 l 35.1627,0 c 1.8074,6.07953 2.7933,11.00889 3.9435,14.78806 0.4929,2.13605 1.1502,4.1078 1.6431,5.91522 0.4929,1.80743 2.1361,2.7933 3.9435,2.30037 1.8074,-0.49294 2.629,-2.13606 2.136,-3.94348 m -13.4735,-25.30402 -31.5479,0 c 5.7509,-20.70327 13.145,-47.32181 15.7739,-57.34482 2.629,10.02301 10.0231,36.64155 15.774,57.34482"
         style="fill:none;stroke:#000000;stroke-width:4.56449986;stroke-miterlimit:4;stroke-dasharray:none;stroke-opacity:1"
         id="path6552"
         inkscape:connector-curvature="0" />
      <path
         d="m 1879.8371,595.43975 c 10.0231,2.62899 20.539,-1.64312 25.6327,-10.68026 1.1502,-1.80743 0.6572,-3.28624 -1.1502,-4.43642 -1.4788,-0.82156 -3.4505,-0.32863 -4.2721,1.15018 -3.7792,6.57246 -11.3375,9.69439 -18.5672,7.72265 -7.2297,-1.80742 -12.3234,-8.21559 -12.3234,-15.93824 l 0,-55.86601 c 0,-7.39403 5.0937,-14.13082 12.3234,-15.93825 7.2297,-1.97174 14.788,1.15019 18.5672,7.72266 0.8216,1.4788 2.7933,1.97174 4.2721,1.15018 1.8074,-1.15018 2.3004,-2.62899 1.1502,-4.43642 -5.0937,-9.03714 -15.6096,-13.30925 -25.6327,-10.51595 -10.023,2.62898 -16.9241,11.50183 -16.9241,22.01778 l 0,55.86601 c 0,10.51594 6.9011,19.38879 16.9241,22.18209"
         style="fill:none;stroke:#000000;stroke-width:4.56449986;stroke-miterlimit:4;stroke-dasharray:none;stroke-opacity:1"
         id="path6554"
         inkscape:connector-curvature="0" />
      <path
         d="m 1967.5412,540.55961 -33.0267,0 0,-42.88538 c 0,-1.80743 -1.4788,-3.12192 -3.2862,-3.12192 -1.8075,0 -3.122,1.31449 -3.122,3.12192 l 0,95.30085 c 0,1.80742 1.3145,3.12192 3.122,3.12192 1.8074,0 3.2862,-1.3145 3.2862,-3.12192 l 0,-46.17162 33.0267,0 0,46.17162 c 0,1.80742 1.3145,3.12192 3.1219,3.12192 1.8074,0 3.2862,-1.3145 3.2862,-3.12192 l 0,-95.30085 c 0,-1.80743 -1.4788,-3.12192 -3.2862,-3.12192 -1.8074,0 -3.1219,1.31449 -3.1219,3.12192 l 0,42.88538"
         style="fill:none;stroke:#000000;stroke-width:4.56449986;stroke-miterlimit:4;stroke-dasharray:none;stroke-opacity:1"
         id="path6556"
         inkscape:connector-curvature="0" />
      <path
         d="m 2003.4355,596.097 c 1.8075,0 3.2863,-1.3145 3.2863,-3.12192 l 0,-95.30085 c 0,-1.80743 -1.4788,-3.12192 -3.2863,-3.12192 -1.8074,0 -3.1219,1.31449 -3.1219,3.12192 l 0,95.30085 c 0,1.80742 1.3145,3.12192 3.1219,3.12192"
         style="fill:none;stroke:#000000;stroke-width:4.56449986;stroke-miterlimit:4;stroke-dasharray:none;stroke-opacity:1"
         id="path6558"
         inkscape:connector-curvature="0" />
      <path
         d="m 2048,595.43975 c 10.023,2.62899 20.539,-1.64312 25.6326,-10.68026 1.1502,-1.80743 0.6573,-3.28624 -1.1502,-4.43642 -1.4788,-0.82156 -3.4505,-0.32863 -4.2721,1.15018 -3.7791,6.57246 -11.3375,9.69439 -18.5672,7.72265 -7.2297,-1.80742 -12.3234,-8.21559 -12.3234,-15.93824 l 0,-55.86601 c 0,-7.39403 5.0937,-14.13082 12.3234,-15.93825 7.2297,-1.97174 14.7881,1.15019 18.5672,7.72266 0.8216,1.4788 2.7933,1.97174 4.2721,1.15018 1.8075,-1.15018 2.3004,-2.62899 1.1502,-4.43642 -5.0936,-9.03714 -15.6096,-13.30925 -25.6326,-10.51595 -10.023,2.62898 -16.9241,11.50183 -16.9241,22.01778 l 0,55.86601 c 0,10.51594 6.9011,19.38879 16.9241,22.18209"
         style="fill:none;stroke:#000000;stroke-width:4.56449986;stroke-miterlimit:4;stroke-dasharray:none;stroke-opacity:1"
         id="path6560"
         inkscape:connector-curvature="0" />
      <path
         d="m 2144.0839,495.04524 c -1.4788,-1.15018 -3.2862,-0.65724 -4.4364,0.82156 l -36.9702,51.92253 0,-50.1151 c 0,-1.80743 -1.4788,-3.12192 -3.2862,-3.12192 -1.8074,0 -3.1219,1.31449 -3.1219,3.12192 l 0,95.30085 c 0,1.80742 1.3145,3.12192 3.1219,3.12192 1.8074,0 3.2862,-1.3145 3.2862,-3.12192 l 0,-34.34117 11.6662,-16.26687 24.9754,51.92253 c 0.8215,1.80743 2.4646,2.30036 4.2721,1.47881 1.4788,-0.65725 2.136,-2.62899 1.4788,-4.1078 l -26.6185,-55.20876 26.2899,-36.97016 c 1.1501,-1.31449 0.6572,-3.28623 -0.6573,-4.43642"
         style="fill:none;stroke:#000000;stroke-width:4.56449986;stroke-miterlimit:4;stroke-dasharray:none;stroke-opacity:1"
         id="path6562"
         inkscape:connector-curvature="0" />
      <path
         d="m 2168.7101,595.43975 32.8623,0 c 2.1361,0 3.1219,-0.98587 3.1219,-3.12192 0,-2.13605 -0.9858,-3.12193 -3.1219,-3.12193 l -29.7404,0 0,-42.39244 26.4542,0 c 2.136,0 3.1219,-0.98587 3.1219,-3.12192 0,-2.13606 -0.9859,-3.12193 -3.1219,-3.12193 l -26.4542,0 0,-39.10621 29.7404,0 c 2.1361,0 3.1219,-0.98587 3.1219,-3.12192 0,-2.13605 -0.9858,-3.12192 -3.1219,-3.12192 l -32.8623,0 c -2.1361,0 -3.122,0.98587 -3.122,3.12192 l 0,93.98635 c 0,2.13605 0.9859,3.12192 3.122,3.12192"
         style="fill:none;stroke:#000000;stroke-width:4.56449986;stroke-miterlimit:4;stroke-dasharray:none;stroke-opacity:1"
         id="path6564"
         inkscape:connector-curvature="0" />
      <path
         d="m 2275.708,596.097 c 1.6431,-0.32862 2.4647,-1.3145 2.4647,-3.12192 l 0,-95.30085 c 0,-2.13605 -0.9859,-3.12192 -3.122,-3.12192 -2.136,0 -3.1219,0.98587 -3.1219,3.12192 l 0,81.49865 c -4.765,-9.20145 -14.7881,-30.06907 -23.4966,-48.47198 -5.2579,-10.84456 -10.8446,-22.34641 -16.5955,-34.34116 -0.8215,-1.47881 -1.9717,-2.13606 -3.4505,-1.80743 -1.6431,0.32862 -2.4647,1.31449 -2.4647,3.12192 l 0,95.30085 c 0,2.13605 0.9859,3.12192 3.1219,3.12192 2.1361,0 3.122,-0.98587 3.122,-3.12192 l 0,-81.49866 c 4.4364,9.20145 14.788,30.06908 23.4966,48.47198 5.2579,10.84457 10.8445,22.34642 16.5954,34.34117 0.8216,1.4788 1.9718,2.13605 3.4506,1.80743"
         style="fill:none;stroke:#000000;stroke-width:4.56449986;stroke-miterlimit:4;stroke-dasharray:none;stroke-opacity:1"
         id="path6566"
         inkscape:connector-curvature="0" />
      <path
         d="m 2303.5536,602.66947 c -1.4789,0.65725 -2.3004,2.46468 -1.6432,3.94348 0.6573,1.47881 2.4647,2.30037 3.9435,1.64312 4.4364,-1.80743 7.0654,-5.91523 7.0654,-10.68026 l 0,-7.88697 c 0,-1.80743 -1.1502,-2.95761 -2.9576,-2.95761 l -5.258,0 c -1.8074,0 -2.9576,1.15018 -2.9576,2.95761 0,1.80743 1.1502,2.95761 2.9576,2.95761 l 2.3004,0 0,4.92936 c 0,2.46467 -1.1502,4.2721 -3.4505,5.09366"
         style="fill:none;stroke:#000000;stroke-width:4.56449986;stroke-miterlimit:4;stroke-dasharray:none;stroke-opacity:1"
         id="path6568"
         inkscape:connector-curvature="0" />
      <path
         d="m 2417.5552,596.097 c 1.6431,-0.32862 2.4646,-1.3145 2.4646,-3.12192 l 0,-95.30085 c 0,-2.13605 -0.9858,-3.12192 -3.1219,-3.12192 -2.136,0 -3.1219,0.98587 -3.1219,3.12192 l 0,81.49865 c -4.7651,-9.20145 -14.7881,-30.06907 -23.4966,-48.47198 -5.258,-10.84456 -10.8446,-22.34641 -16.5955,-34.34116 -0.8216,-1.47881 -1.9717,-2.13606 -3.4505,-1.80743 -1.6432,0.32862 -2.4647,1.31449 -2.4647,3.12192 l 0,95.30085 c 0,2.13605 0.9859,3.12192 3.1219,3.12192 2.1361,0 3.1219,-0.98587 3.1219,-3.12192 l 0,-81.49866 c 4.4364,9.20145 14.7881,30.06908 23.4966,48.47198 5.258,10.84457 10.8446,22.34642 16.5955,34.34117 0.8216,1.4788 1.9718,2.13605 3.4506,1.80743"
         style="fill:none;stroke:#000000;stroke-width:4.56449986;stroke-miterlimit:4;stroke-dasharray:none;stroke-opacity:1"
         id="path6570"
         inkscape:connector-curvature="0" />
      <path
         d="m 2444.7437,517.39165 0,55.86601 c 0,12.652 10.1874,22.83934 22.8394,22.83934 12.652,0 22.8393,-10.18734 22.8393,-22.83934 l 0,-55.86601 c 0,-12.652 -10.1873,-22.83934 -22.8393,-22.83934 -12.652,0 -22.8394,10.18734 -22.8394,22.83934 m 39.4348,0 0,55.86601 c 0,9.20145 -7.394,16.59549 -16.5954,16.59549 -9.2015,0 -16.5955,-7.39404 -16.5955,-16.59549 l 0,-55.86601 c 0,-9.20145 7.394,-16.59549 16.5955,-16.59549 9.2014,0 16.5954,7.39404 16.5954,16.59549"
         style="fill:none;stroke:#000000;stroke-width:4.56449986;stroke-miterlimit:4;stroke-dasharray:none;stroke-opacity:1"
         id="path6572"
         inkscape:connector-curvature="0" />
      <path
         d="m 2551.133,495.20956 -42.7211,0 c -1.8074,0 -3.1219,1.31449 -3.1219,3.12192 0,1.80743 1.3145,3.12192 3.1219,3.12192 l 18.2386,0 0,91.52168 c 0,1.80742 1.3145,3.12192 3.1219,3.12192 1.8074,0 3.2863,-1.3145 3.2863,-3.12192 l 0,-91.52168 18.0743,0 c 1.8074,0 3.2862,-1.31449 3.2862,-3.12192 0,-1.80743 -1.4788,-3.12192 -3.2862,-3.12192"
         style="fill:none;stroke:#000000;stroke-width:4.56449986;stroke-miterlimit:4;stroke-dasharray:none;stroke-opacity:1"
         id="path6574"
         inkscape:connector-curvature="0" />
      <path
         d="m 2657.3221,592.15352 -26.2899,-95.30085 c -0.493,-1.4788 -1.4788,-2.30036 -2.9576,-2.30036 -1.4789,0 -2.629,0.82156 -3.122,2.30036 l -26.2899,95.30085 c -0.4929,1.80742 0.493,3.45054 2.3004,3.94348 1.8074,0.49293 3.2862,-0.49294 3.7792,-2.30037 0.4929,-1.80742 1.1502,-3.77917 1.6431,-5.91522 1.1502,-3.77917 2.3004,-8.70853 4.1078,-14.78806 l 35.1627,0 c 1.8074,6.07953 2.7933,11.00889 3.9435,14.78806 0.4929,2.13605 1.1502,4.1078 1.6431,5.91522 0.493,1.80743 2.1361,2.7933 3.9435,2.30037 1.8074,-0.49294 2.629,-2.13606 2.1361,-3.94348 m -13.4736,-25.30402 -31.5479,0 c 5.7509,-20.70327 13.145,-47.32181 15.774,-57.34482 2.6289,10.02301 10.023,36.64155 15.7739,57.34482"
         style="fill:none;stroke:#000000;stroke-width:4.56449986;stroke-miterlimit:4;stroke-dasharray:none;stroke-opacity:1"
         id="path6576"
         inkscape:connector-curvature="0" />
      <path
         d="m 2708.2665,498.33148 0,93.98635 c 0,2.13605 0.9859,3.12192 3.1219,3.12192 l 19.7174,0 c 12.652,0 22.8394,-10.18734 22.8394,-22.83934 l 0,-9.20146 c 0,-8.37989 -4.6008,-15.77393 -11.3375,-19.71741 6.7367,-3.94348 11.3375,-11.33753 11.3375,-19.71742 l 0,-5.91522 c 0,-12.652 -10.1874,-22.83934 -22.8394,-22.83934 l -19.7174,0 c -2.136,0 -3.1219,0.98587 -3.1219,3.12192 m 39.4348,65.06747 0,9.20146 c 0,9.20145 -7.5583,16.59549 -16.5955,16.59549 l -16.5955,0 0,-42.39244 16.5955,0 c 9.0372,0 16.5955,7.39404 16.5955,16.59549 m 0,-45.35005 0,5.91522 c 0,9.20145 -7.5583,16.59549 -16.5955,16.59549 l -16.5955,0 0,-39.10621 16.5955,0 c 9.0372,0 16.5955,7.39404 16.5955,16.5955"
         style="fill:none;stroke:#000000;stroke-width:4.56449986;stroke-miterlimit:4;stroke-dasharray:none;stroke-opacity:1"
         id="path6578"
         inkscape:connector-curvature="0" />
      <path
         d="m 2783.4776,573.25766 0,-75.58343 c 0,-1.80743 -1.3145,-3.12192 -3.1219,-3.12192 -1.8075,0 -3.2863,1.31449 -3.2863,3.12192 l 0,75.58343 c 0,12.652 10.3517,22.83934 23.0037,22.83934 12.4877,0 22.8393,-10.18734 22.8393,-22.83934 l 0,-75.58343 c 0,-1.80743 -1.3145,-3.12192 -3.1219,-3.12192 -1.8074,0 -3.2863,1.31449 -3.2863,3.12192 l 0,75.58343 c 0,9.20145 -7.394,16.59549 -16.4311,16.59549 -9.2015,0 -16.5955,-7.39404 -16.5955,-16.59549"
         style="fill:none;stroke:#000000;stroke-width:4.56449986;stroke-miterlimit:4;stroke-dasharray:none;stroke-opacity:1"
         id="path6580"
         inkscape:connector-curvature="0" />
      <path
         d="m 2897.9746,596.097 c 1.6431,-0.32862 2.4647,-1.3145 2.4647,-3.12192 l 0,-95.30085 c 0,-2.13605 -0.9859,-3.12192 -3.122,-3.12192 -2.136,0 -3.1219,0.98587 -3.1219,3.12192 l 0,81.49865 c -4.765,-9.20145 -14.7881,-30.06907 -23.4966,-48.47198 -5.2579,-10.84456 -10.8446,-22.34641 -16.5955,-34.34116 -0.8215,-1.47881 -1.9717,-2.13606 -3.4505,-1.80743 -1.6431,0.32862 -2.4647,1.31449 -2.4647,3.12192 l 0,95.30085 c 0,2.13605 0.9859,3.12192 3.1219,3.12192 2.1361,0 3.122,-0.98587 3.122,-3.12192 l 0,-81.49866 c 4.4364,9.20145 14.788,30.06908 23.4966,48.47198 5.2579,10.84457 10.8445,22.34642 16.5954,34.34117 0.8216,1.4788 1.9718,2.13605 3.4506,1.80743"
         style="fill:none;stroke:#000000;stroke-width:4.56449986;stroke-miterlimit:4;stroke-dasharray:none;stroke-opacity:1"
         id="path6582"
         inkscape:connector-curvature="0" />
      <path
         d="m 2976.9214,596.097 c 1.6431,-0.32862 2.4646,-1.3145 2.4646,-3.12192 l 0,-95.30085 c 0,-2.13605 -0.9858,-3.12192 -3.1219,-3.12192 -2.136,0 -3.1219,0.98587 -3.1219,3.12192 l 0,81.49865 c -4.765,-9.20145 -14.7881,-30.06907 -23.4966,-48.47198 -5.258,-10.84456 -10.8446,-22.34641 -16.5955,-34.34116 -0.8215,-1.47881 -1.9717,-2.13606 -3.4505,-1.80743 -1.6431,0.32862 -2.4647,1.31449 -2.4647,3.12192 l 0,95.30085 c 0,2.13605 0.9859,3.12192 3.1219,3.12192 2.1361,0 3.1219,-0.98587 3.1219,-3.12192 l 0,-81.49866 c 4.4365,9.20145 14.7881,30.06908 23.4966,48.47198 5.258,10.84457 10.8446,22.34642 16.5955,34.34117 0.8216,1.4788 1.9718,2.13605 3.4506,1.80743"
         style="fill:none;stroke:#000000;stroke-width:4.56449986;stroke-miterlimit:4;stroke-dasharray:none;stroke-opacity:1"
         id="path6584"
         inkscape:connector-curvature="0" />
      <path
         d="m 3001.3164,494.88093 c -1.4788,0.82156 -2.1361,2.46468 -1.3145,4.27211 l 22.675,45.35005 0,48.47199 c 0,2.13605 0.9859,3.12192 3.1219,3.12192 2.1361,0 3.122,-0.98587 3.122,-3.12192 l 0,-48.47199 22.675,-45.35005 c 0.8216,-1.80743 0.1643,-3.45055 -1.3145,-4.27211 -1.8074,-0.82156 -3.4505,-0.16431 -4.2721,1.3145 -3.1219,6.07953 -5.9152,11.66614 -8.5442,16.92411 -4.6007,9.20145 -9.5301,19.06017 -11.6662,23.49659 -2.136,-4.43642 -7.2297,-14.29514 -11.6661,-23.49659 -2.7933,-5.25797 -5.5866,-10.84458 -8.5442,-16.92411 -0.8216,-1.47881 -2.4647,-2.13606 -4.2721,-1.3145"
         style="fill:none;stroke:#000000;stroke-width:4.56449986;stroke-miterlimit:4;stroke-dasharray:none;stroke-opacity:1"
         id="path6586"
         inkscape:connector-curvature="0" />
      <path
         d="m 3055.1287,591.33196 c 0,2.62898 2.1361,4.76504 4.7651,4.76504 2.6289,0 4.765,-2.13606 4.765,-4.76504 0,-2.62899 -2.1361,-4.76504 -4.765,-4.76504 -2.629,0 -4.7651,2.13605 -4.7651,4.76504"
         style="fill:none;stroke:#000000;stroke-width:4.56449986;stroke-miterlimit:4;stroke-dasharray:none;stroke-opacity:1"
         id="path6588"
         inkscape:connector-curvature="0" />
    </g>
  </g>
  <g
     inkscape:groupmode="layer"
     id="layer4"
     inkscape:label="2-Yellow"
     style="display:inline">
    <path
       inkscape:connector-curvature="0"
       id="path6497-4"
       style="display:inline;fill:none;stroke:#c2b335;stroke-width:10;stroke-linecap:round;stroke-linejoin:round;stroke-miterlimit:4;stroke-dasharray:none;stroke-opacity:1"
       d="m 3208.5897,652.05032 m -3208.73682624,0 C 231.17642,652.05032 -188.1094,494.20296 43.214147,494.20296 c 231.323533,0 -187.962117,157.84736 43.361405,157.84736 231.323538,-2e-5 -187.962342,-157.84734 43.361198,-157.84736 231.32354,0 -187.962032,157.84736 43.3615,157.84736 231.32354,-2e-5 -187.962409,-157.84734 43.36113,-157.84736 231.32353,0 -187.961965,157.84736 43.36156,157.84736 231.32355,-4e-5 -187.962498,-157.84732 43.36105,-157.84736 231.32354,-2e-5 -187.96188,157.84738 43.36165,157.84736 231.32353,-4e-5 -187.96258,-157.84732 43.36096,-157.84736 231.32354,-2e-5 -187.9618,157.84738 43.36174,157.84736 231.32353,-4e-5 -187.96264,-157.84732 43.3609,-157.84736 231.32353,-2e-5 -187.96174,157.84738 43.36178,157.84736 231.32355,-4e-5 -187.96274,-157.8473 43.3608,-157.84736 231.32353,-4e-5 -187.96163,157.8474 43.36191,157.84736 231.32357,-4e-5 -187.96287,-157.8473 43.36066,-157.84736 231.32357,-5e-5 -187.9615,157.8474 43.36203,157.84736 231.32355,-6e-5 -187.96298,-157.8473 43.36057,-157.84736 231.32354,-5e-5 -187.96141,157.84742 43.36214,157.84736 231.32357,-6e-5 -187.96311,-157.8473 43.36043,-157.84736 231.32354,-5e-5 -187.96134,157.84742 43.36214,157.84736 231.3236,-8e-5 -187.96309,-157.84728 43.36049,-157.84736 231.32351,-5e-5 -187.96139,157.84742 43.3621,157.84736 231.32361,-8e-5 -187.9631,-157.84728 43.36044,-157.84736 231.32357,-5e-5 -187.96137,157.84742 43.36217,157.84736 231.3236,-8e-5 -187.96308,-157.84728 43.3605,-157.84736 231.3235,-5e-5 -187.9615,157.84742 43.3622,157.84736 231.3234,-8e-5 -187.96328,-157.84728 43.3602,-157.84736 231.3236,-5e-5 -187.96127,157.84742 43.3623,157.84736 231.3235,-8e-5 -187.9631,-157.84728 43.3603,-157.84736 231.3236,-5e-5 -187.9613,157.84742 43.3622,157.84736 231.3236,-8e-5 -187.9631,-157.84728 43.3605,-157.84736 231.3235,-5e-5 -187.9613,157.84742 43.3622,157.84736 231.3235,-8e-5 -187.9632,-157.84728 43.3604,-157.84736 231.3235,-5e-5 -187.9615,157.84742 43.3622,157.84736 231.3234,-8e-5 -187.9632,-157.84728 43.3603,-157.84736 231.3236,-5e-5 -187.9614,157.84742 43.3622,157.84736 231.3235,-8e-5 -187.9632,-157.84728 43.3604,-157.84736 231.3235,-5e-5 -187.9613,157.84742 43.3622,157.84736 231.3235,-8e-5 -187.9632,-157.84728 43.3605,-157.84736 231.3234,-5e-5 -187.9615,157.84742 43.3621,157.84736 231.3236,-8e-5 -187.9631,-157.84728 43.3603,-157.84736 231.3236,-5e-5 -187.9612,157.84745 43.3624,157.84736 231.3235,-8e-5 -187.9632,-157.84728 43.3603,-157.84736 231.3237,-5e-5 -187.9613,157.84742 43.3622,157.84736 231.3236,-8e-5 -187.9631,-157.84728 43.3604,-157.84736 231.3236,-5e-5 -187.9614,157.84742 43.3622,157.84736 231.3236,-8e-5 -187.9631,-157.84728 43.3605,-157.84736 231.3235,-5e-5 -187.9615,157.84742 43.3622,157.84736 231.3234,-8e-5 -187.9633,-157.84728 43.3604,-157.84736 231.3235,-5e-5 -187.9614,157.84742 43.3621,157.84736 231.3235,-8e-5 -187.9632,-157.84728 43.3604,-157.84736 231.3234,-5e-5 -187.9613,157.84742 43.3621,157.84736 231.3237,-8e-5 -187.963,-157.84728 43.3604,-157.84736 231.3236,-5e-5 -187.9614,157.84742 43.3622,157.84736 231.3236,-8e-5 -187.963,-157.84728 43.3605,-157.84736 231.3236,-5e-5 -187.9613,157.84742 43.3623,157.84736 231.3233,-8e-5 -187.9634,-157.84728 43.3602,-157.84736 231.3235,-5e-5 -187.9613,157.84742 43.3623,157.84736 231.3235,-8e-5 -187.9632,-157.84728 43.3604,-157.84736 231.3234,-5e-5 -187.9615,157.84742 43.362,157.84736 231.3236,-8e-5 -187.963,-157.84728 43.3605,-157.84736 231.3236,-5e-5 -187.9613,157.84742 43.3623,157.84736 231.3234,-8e-5 -187.9633,-157.84728 43.3603,-157.84736 231.3235,-5e-5 -187.9613,157.84742 43.3622,157.84736 231.3235,-8e-5 -187.9632,-157.84728 43.3604,-157.84736 231.3235,-5e-5 -187.9615,157.84742 43.3622,157.84736 231.3235,-8e-5 -187.9632,-157.84728 43.3603,-157.84736 231.3236,-5e-5 -187.9613,157.84742 43.3622,157.84736 231.3235,-8e-5 -187.9632,-157.84728 43.3605,-157.84736 231.3235,-5e-5 -187.9614,157.84742 43.3621,157.84736 231.3236,-8e-5 -187.9631,-157.84728 43.3605,-157.84736 231.3234,-5e-5 -187.9615,157.84742 43.3621,157.84736 231.3236,-8e-5 -187.9631,-157.84728 43.3603,-157.84736 231.3237,-5e-5 -187.9613,157.84742 43.3624,157.84736"
       sodipodi:nodetypes="cczzzzzzzzzzzzzzzzzzzzzzzzzzzzzzzzzzzzzzzzzzzzzzzzzzzzzzzzzzzzzzzzzzzzzzzzzz" />
    <path
       sodipodi:nodetypes="cczzzzzzzzzzzzzzzzzzzzzzzzzzzzzzzzzzzzzzzzzzzzzzzzzzzzzzzzzzzzzzzzzzzzzzzzzz"
       d="m 3207.1723,165.47504 m -3208.7368147,0 c 231.3235447,0 -187.9622753,157.84735 43.3612737,157.84735 231.323531,0 -187.962119,-157.84735 43.361405,-157.84735 231.323536,2e-5 -187.962344,157.84734 43.361196,157.84735 231.32354,0 -187.96203,-157.84735 43.3615,-157.84735 231.32354,2e-5 -187.962407,157.84734 43.36113,157.84735 231.32353,0 -187.961963,-157.84735 43.36156,-157.84735 231.32355,3e-5 -187.962496,157.84732 43.36105,157.84735 231.32354,2e-5 -187.96188,-157.84738 43.36165,-157.84735 231.32353,3e-5 -187.96258,157.84732 43.36096,157.84735 231.32354,2e-5 -187.9618,-157.84738 43.36174,-157.84735 231.32353,3e-5 -187.96264,157.84732 43.3609,157.84735 231.32353,2e-5 -187.96174,-157.84738 43.36178,-157.84735 231.32355,3e-5 -187.96274,157.84729 43.3608,157.84735 231.32353,4e-5 -187.96163,-157.8474 43.36191,-157.84735 231.32357,3e-5 -187.96287,157.84729 43.36066,157.84735 231.32357,6e-5 -187.9615,-157.8474 43.36203,-157.84735 231.32355,5e-5 -187.96298,157.84729 43.36057,157.84735 231.32354,6e-5 -187.96141,-157.84742 43.36214,-157.84735 231.32356,5e-5 -187.96311,157.84729 43.36043,157.84735 231.32353,6e-5 -187.96134,-157.84742 43.36214,-157.84735 231.32359,7e-5 -187.96309,157.84727 43.36049,157.84735 231.3235,6e-5 -187.96139,-157.84742 43.3621,-157.84735 231.3236,7e-5 -187.9631,157.84727 43.36044,157.84735 231.32356,6e-5 -187.96137,-157.84742 43.36216,-157.84735 231.3236,7e-5 -187.96307,157.84727 43.3605,157.84735 231.3235,6e-5 -187.96149,-157.84742 43.3622,-157.84735 231.3234,7e-5 -187.96327,157.84727 43.3602,157.84735 231.3236,6e-5 -187.96126,-157.84742 43.3623,-157.84735 231.3235,7e-5 -187.9631,157.84727 43.3603,157.84735 231.3236,6e-5 -187.9613,-157.84742 43.3622,-157.84735 231.3236,7e-5 -187.9631,157.84727 43.3605,157.84735 231.3235,6e-5 -187.9613,-157.84742 43.3622,-157.84735 231.3235,7e-5 -187.9632,157.84727 43.3604,157.84735 231.3235,6e-5 -187.9615,-157.84742 43.3622,-157.84735 231.3234,7e-5 -187.9632,157.84727 43.3603,157.84735 231.3236,6e-5 -187.9614,-157.84742 43.3622,-157.84735 231.3235,7e-5 -187.9632,157.84727 43.3604,157.84735 231.3235,6e-5 -187.9613,-157.84742 43.3622,-157.84735 231.3235,7e-5 -187.9632,157.84727 43.3605,157.84735 231.3234,6e-5 -187.9615,-157.84742 43.3621,-157.84735 231.3236,7e-5 -187.9631,157.84727 43.3603,157.84735 231.3236,6e-5 -187.9612,-157.84744 43.3624,-157.84735 231.3235,7e-5 -187.9632,157.84727 43.3603,157.84735 231.3237,6e-5 -187.9613,-157.84742 43.3622,-157.84735 231.3236,7e-5 -187.9631,157.84727 43.3604,157.84735 231.3236,6e-5 -187.9614,-157.84742 43.3622,-157.84735 231.3236,7e-5 -187.9631,157.84727 43.3605,157.84735 231.3235,6e-5 -187.9615,-157.84742 43.3622,-157.84735 231.3234,7e-5 -187.9633,157.84727 43.3604,157.84735 231.3235,6e-5 -187.9614,-157.84742 43.3621,-157.84735 231.3235,7e-5 -187.9632,157.84727 43.3604,157.84735 231.3234,6e-5 -187.9613,-157.84742 43.3621,-157.84735 231.3237,7e-5 -187.963,157.84727 43.3604,157.84735 231.3236,6e-5 -187.9614,-157.84742 43.3622,-157.84735 231.3236,7e-5 -187.963,157.84727 43.3605,157.84735 231.3236,6e-5 -187.9613,-157.84742 43.3623,-157.84735 231.3233,7e-5 -187.9634,157.84727 43.3602,157.84735 231.3235,6e-5 -187.9613,-157.84742 43.3623,-157.84735 231.3235,7e-5 -187.9632,157.84727 43.3604,157.84735 231.3234,6e-5 -187.9615,-157.84742 43.362,-157.84735 231.3236,7e-5 -187.963,157.84727 43.3605,157.84735 231.3236,6e-5 -187.9613,-157.84742 43.3623,-157.84735 231.3234,7e-5 -187.9633,157.84727 43.3603,157.84735 231.3235,6e-5 -187.9613,-157.84742 43.3622,-157.84735 231.3235,7e-5 -187.9632,157.84727 43.3604,157.84735 231.3235,6e-5 -187.9615,-157.84742 43.3622,-157.84735 231.3235,7e-5 -187.9632,157.84727 43.3603,157.84735 231.3236,6e-5 -187.9613,-157.84742 43.3622,-157.84735 231.3235,7e-5 -187.9632,157.84727 43.3605,157.84735 231.3235,6e-5 -187.9614,-157.84742 43.3621,-157.84735 231.3236,7e-5 -187.9631,157.84727 43.3605,157.84735 231.3234,6e-5 -187.9615,-157.84742 43.3621,-157.84735 231.3236,7e-5 -187.9631,157.84727 43.3603,157.84735 231.3237,6e-5 -187.9613,-157.84742 43.3624,-157.84735"
       style="display:inline;fill:none;stroke:#c2b335;stroke-width:10;stroke-linecap:round;stroke-linejoin:round;stroke-miterlimit:4;stroke-dasharray:none;stroke-opacity:1"
       id="path7358-8"
       inkscape:connector-curvature="0" />
    <path
       id="path24407"
       d="m 3.1098966,111.91516 3196.9737034,0"
       style="display:inline;fill:none;stroke:#c2b335;stroke-width:4;stroke-linecap:butt;stroke-linejoin:miter;stroke-miterlimit:4;stroke-dasharray:none;stroke-opacity:1"
       inkscape:connector-curvature="0" />
    <path
       id="path24409"
       d="m 3.1098966,705.61017 3196.9737034,0"
       style="display:inline;fill:none;stroke:#c2b335;stroke-width:4;stroke-linecap:butt;stroke-linejoin:miter;stroke-miterlimit:4;stroke-dasharray:none;stroke-opacity:1"
       inkscape:connector-curvature="0" />
  </g>
  <g
     inkscape:groupmode="layer"
     id="layer3"
     inkscape:label="3-red"
     style="display:inline">
    <path
       style="display:inline;fill:none;stroke:#c93838;stroke-width:10;stroke-linecap:round;stroke-linejoin:round;stroke-miterlimit:4;stroke-dasharray:none;stroke-opacity:1"
       d="m 3.1098966,133.79304 3196.9737034,0"
       id="path24389"
       inkscape:connector-curvature="0" />
    <path
       style="display:inline;fill:none;stroke:#c93838;stroke-width:10;stroke-linecap:round;stroke-linejoin:round;stroke-miterlimit:4;stroke-dasharray:none;stroke-opacity:1"
       d="m 3.1098966,683.73233 3196.9737034,0"
       id="path24411"
       inkscape:connector-curvature="0" />
    <path
       style="display:inline;fill:none;stroke:#c93838;stroke-width:10;stroke-linecap:round;stroke-linejoin:round;stroke-miterlimit:4;stroke-dasharray:none;stroke-opacity:1"
       d="m 3.1098966,818.24472 3196.9737034,0"
       id="path24421"
       inkscape:connector-curvature="0" />
    <path
       id="path24425"
       d="m 3.1098966,-0.71947 3196.9737034,0"
       style="display:inline;fill:none;stroke:#c93838;stroke-width:10;stroke-linecap:round;stroke-linejoin:round;stroke-miterlimit:4;stroke-dasharray:none;stroke-opacity:1"
       inkscape:connector-curvature="0" />
    <path
       sodipodi:nodetypes="ccccccccccccccccccccccccccccccccccccccccccccccccccccccccccc"
       id="path24415"
       d="M 5.7774133e-7,735.54535 55.168358,785.37392 l 55.168352,-49.82857 55.16835,49.82857 55.16836,-49.82857 55.16837,49.82857 55.16836,-49.82857 55.16835,49.82857 55.16836,-49.82857 55.16836,49.82857 55.16835,-49.82857 55.16839,49.82857 55.16839,-49.82857 55.16838,49.82857 55.16839,-49.82857 55.16838,49.82857 55.16839,-49.82857 55.16839,49.82857 55.16842,-49.82857 55.1684,49.82857 55.1683,-49.82857 55.1683,49.82857 55.1684,-49.82857 55.1683,49.82857 55.1683,-49.82857 55.1683,49.82857 55.1683,-49.82857 55.1683,49.82857 55.1683,-49.82857 55.1684,49.82857 55.1683,-49.82857 55.1683,49.82857 55.1683,-49.82857 55.1684,49.82857 55.1683,-49.82857 55.1683,49.82857 55.1684,-49.82857 55.1683,49.82857 55.1683,-49.82857 55.1685,49.82857 55.1684,-49.82857 55.1684,49.82857 55.1685,-49.82857 55.1685,49.82857 55.1684,-49.82857 55.1684,49.82857 55.1685,-49.82857 55.1685,49.82857 55.1684,-49.82857 55.1685,49.82857 55.1684,-49.82857 55.1684,49.82857 55.1685,-49.82857 55.1685,49.82857 55.1684,-49.82857 55.1684,49.82857 55.1685,-49.82857 55.1684,49.82857 55.1684,-49.82857"
       style="display:inline;fill:none;stroke:#c93838;stroke-width:10;stroke-linecap:round;stroke-linejoin:round;stroke-miterlimit:4;stroke-dasharray:none;stroke-opacity:1"
       inkscape:connector-curvature="0" />
    <path
       style="display:inline;fill:none;stroke:#c93838;stroke-width:10;stroke-linecap:round;stroke-linejoin:round;stroke-miterlimit:4;stroke-dasharray:none;stroke-opacity:1"
       d="M 5.7774133e-7,81.979934 55.168358,32.151374 l 55.168352,49.82856 55.16835,-49.82856 55.16836,49.82856 55.16837,-49.82856 55.16836,49.82856 55.16835,-49.82856 55.16836,49.82856 55.16836,-49.82856 55.16835,49.82856 55.16839,-49.82856 55.16839,49.82856 55.16838,-49.82856 55.16839,49.82856 55.16838,-49.82856 55.16839,49.82856 55.16839,-49.82856 55.16842,49.82856 55.1684,-49.82856 55.1683,49.82856 55.1683,-49.82856 55.1684,49.82856 55.1683,-49.82856 55.1683,49.82856 55.1683,-49.82856 55.1683,49.82856 55.1683,-49.82856 55.1683,49.82856 55.1684,-49.82856 55.1683,49.82856 55.1683,-49.82856 55.1683,49.82856 55.1684,-49.82856 55.1683,49.82856 55.1683,-49.82856 55.1684,49.82856 55.1683,-49.82856 55.1683,49.82856 55.1685,-49.82856 55.1684,49.82856 55.1684,-49.82856 55.1685,49.82856 55.1685,-49.82856 55.1684,49.82856 55.1684,-49.82856 55.1685,49.82856 55.1685,-49.82856 55.1684,49.82856 55.1685,-49.82856 55.1684,49.82856 55.1684,-49.82856 55.1685,49.82856 55.1685,-49.82856 55.1684,49.82856 55.1684,-49.82856 55.1685,49.82856 55.1684,-49.82856 55.1684,49.82856"
       id="path7360"
       sodipodi:nodetypes="ccccccccccccccccccccccccccccccccccccccccccccccccccccccccccc"
       inkscape:connector-curvature="0" />
  </g>
  <g
     inkscape:groupmode="layer"
     id="layer2"
     inkscape:label="4-purple"
     style="display:inline">
    <path
       style="fill:none;stroke:#9c4bcc;stroke-width:10;stroke-linecap:round;stroke-linejoin:round;stroke-miterlimit:4;stroke-dasharray:none;stroke-opacity:1"
       d="M 5.2986416e-7,716.60317 55.168358,766.43172 l 55.168352,-49.82855 55.16835,49.82855 55.16836,-49.82855 55.16837,49.82855 55.16836,-49.82855 55.16835,49.82855 55.16836,-49.82855 55.16836,49.82855 55.16835,-49.82855 55.16839,49.82855 55.16839,-49.82855 55.16838,49.82855 55.16839,-49.82855 55.16838,49.82855 55.16839,-49.82855 55.16839,49.82855 55.16842,-49.82855 55.1684,49.82855 55.1683,-49.82855 55.1683,49.82855 55.1684,-49.82855 55.1683,49.82855 55.1683,-49.82855 55.1683,49.82855 55.1683,-49.82855 55.1683,49.82855 55.1683,-49.82855 55.1684,49.82855 55.1683,-49.82855 55.1683,49.82855 55.1683,-49.82855 55.1684,49.82855 55.1683,-49.82855 55.1683,49.82855 55.1684,-49.82855 55.1683,49.82855 55.1683,-49.82855 55.1685,49.82855 55.1684,-49.82855 55.1684,49.82855 55.1685,-49.82855 55.1685,49.82855 55.1684,-49.82855 55.1684,49.82855 55.1685,-49.82855 55.1685,49.82855 55.1684,-49.82855 55.1685,49.82855 55.1684,-49.82855 55.1684,49.82855 55.1685,-49.82855 55.1685,49.82855 55.1684,-49.82855 55.1684,49.82855 55.1685,-49.82855 55.1684,49.82855 55.1684,-49.82855"
       id="path24417"
       sodipodi:nodetypes="ccccccccccccccccccccccccccccccccccccccccccccccccccccccccccc"
       inkscape:connector-curvature="0" />
    <path
       inkscape:connector-curvature="0"
       sodipodi:nodetypes="ccccccccccccccccccccccccccccccccccccccccccccccccccccccccccc"
       id="path7362"
       d="M 5.2986416e-7,100.92214 55.168358,51.093584 l 55.168352,49.828556 55.16835,-49.828556 55.16836,49.828556 55.16837,-49.828556 55.16836,49.828556 55.16835,-49.828556 55.16836,49.828556 55.16836,-49.828556 55.16835,49.828556 55.16839,-49.828556 55.16839,49.828556 55.16838,-49.828556 55.16839,49.828556 55.16838,-49.828556 55.16839,49.828556 55.16839,-49.828556 55.16842,49.828556 55.1684,-49.828556 55.1683,49.828556 55.1683,-49.828556 55.1684,49.828556 55.1683,-49.828556 55.1683,49.828556 55.1683,-49.828556 55.1683,49.828556 55.1683,-49.828556 55.1683,49.828556 55.1684,-49.828556 55.1683,49.828556 55.1683,-49.828556 55.1683,49.828556 55.1684,-49.828556 55.1683,49.828556 55.1683,-49.828556 55.1684,49.828556 55.1683,-49.828556 55.1683,49.828556 55.1685,-49.828556 55.1684,49.828556 55.1684,-49.828556 55.1685,49.828556 55.1685,-49.828556 55.1684,49.828556 55.1684,-49.828556 55.1685,49.828556 55.1685,-49.828556 55.1684,49.828556 55.1685,-49.828556 55.1684,49.828556 55.1684,-49.828556 55.1685,49.828556 55.1685,-49.828556 55.1684,49.828556 55.1684,-49.828556 55.1685,49.828556 55.1684,-49.828556 55.1684,49.828556"
       style="fill:none;stroke:#9c4bcc;stroke-width:10;stroke-linecap:round;stroke-linejoin:round;stroke-miterlimit:4;stroke-dasharray:none;stroke-opacity:1" />
    <path
       inkscape:connector-curvature="0"
       id="path6497"
       style="fill:none;stroke:#9c4bcc;stroke-width:10;stroke-linecap:round;stroke-linejoin:round;stroke-miterlimit:4;stroke-dasharray:none;stroke-opacity:1"
       d="m 3252.5897,652.05032 m -3208.736826,0 c 231.323546,0 -187.962274,-157.84736 43.361274,-157.84736 231.323532,0 -187.962118,157.84736 43.361412,157.84736 231.32353,-2e-5 -187.96235,-157.84734 43.36119,-157.84736 231.32354,0 -187.962031,157.84736 43.3615,157.84736 231.32354,-2e-5 -187.962408,-157.84734 43.36113,-157.84736 231.32353,0 -187.961964,157.84736 43.36156,157.84736 231.32355,-4e-5 -187.96249,-157.84732 43.36105,-157.84736 231.32354,-2e-5 -187.96188,157.84738 43.36165,157.84736 231.32353,-4e-5 -187.96258,-157.84732 43.36096,-157.84736 231.32354,-2e-5 -187.9618,157.84738 43.36174,157.84736 231.32353,-4e-5 -187.96264,-157.84732 43.3609,-157.84736 231.32353,-2e-5 -187.96174,157.84738 43.36178,157.84736 231.32355,-4e-5 -187.96274,-157.8473 43.3608,-157.84736 231.32353,-4e-5 -187.96163,157.8474 43.36191,157.84736 231.32357,-4e-5 -187.96287,-157.8473 43.36066,-157.84736 231.32357,-5e-5 -187.9615,157.8474 43.36203,157.84736 231.32355,-6e-5 -187.96298,-157.8473 43.36057,-157.84736 231.32361,-5e-5 -187.96141,157.84742 43.36214,157.84736 231.32357,-6e-5 -187.96311,-157.8473 43.36043,-157.84736 231.32354,-5e-5 -187.96134,157.84742 43.36214,157.84736 231.3236,-8e-5 -187.96309,-157.84728 43.36049,-157.84736 231.32351,-5e-5 -187.96139,157.84742 43.3621,157.84736 231.32361,-8e-5 -187.9631,-157.84728 43.36051,-157.84736 231.3235,-5e-5 -187.96144,157.84742 43.3621,157.84736 231.3236,-8e-5 -187.96308,-157.84728 43.3605,-157.84736 231.3235,-5e-5 -187.9615,157.84742 43.3622,157.84736 231.3234,-8e-5 -187.96328,-157.84728 43.3602,-157.84736 231.3236,-5e-5 -187.9612,157.84742 43.3623,157.84736 231.3235,-8e-5 -187.9631,-157.84728 43.3603,-157.84736 231.3236,-5e-5 -187.9613,157.84742 43.3622,157.84736 231.3236,-8e-5 -187.9631,-157.84728 43.3605,-157.84736 231.3235,-5e-5 -187.9613,157.84742 43.3622,157.84736 231.3235,-8e-5 -187.9632,-157.84728 43.3604,-157.84736 231.3235,-5e-5 -187.9615,157.84742 43.3622,157.84736 231.3234,-8e-5 -187.9632,-157.84728 43.3603,-157.84736 231.3236,-5e-5 -187.9614,157.84742 43.3622,157.84736 231.3235,-8e-5 -187.9632,-157.84728 43.3604,-157.84736 231.3235,-5e-5 -187.9613,157.84742 43.3622,157.84736 231.3235,-8e-5 -187.9632,-157.84728 43.3605,-157.84736 231.3234,-5e-5 -187.9615,157.84742 43.3621,157.84736 231.3236,-8e-5 -187.9631,-157.84728 43.3603,-157.84736 231.3236,-5e-5 -187.9612,157.84745 43.3624,157.84736 231.3235,-8e-5 -187.9632,-157.84728 43.3603,-157.84736 231.3237,-5e-5 -187.9613,157.84742 43.3622,157.84736 231.3236,-8e-5 -187.9631,-157.84728 43.3604,-157.84736 231.3236,-5e-5 -187.9614,157.84742 43.3622,157.84736 231.3236,-8e-5 -187.9631,-157.84728 43.3605,-157.84736 231.3235,-5e-5 -187.9615,157.84742 43.3622,157.84736 231.3234,-8e-5 -187.9633,-157.84728 43.3604,-157.84736 231.3235,-5e-5 -187.9614,157.84742 43.3621,157.84736 231.3235,-8e-5 -187.9632,-157.84728 43.3604,-157.84736 231.3234,-5e-5 -187.9613,157.84742 43.3621,157.84736 231.3237,-8e-5 -187.963,-157.84728 43.3604,-157.84736 231.3236,-5e-5 -187.9614,157.84742 43.3622,157.84736 231.3236,-8e-5 -187.963,-157.84728 43.3605,-157.84736 231.3236,-5e-5 -187.9613,157.84742 43.3623,157.84736 231.3233,-8e-5 -187.9634,-157.84728 43.3602,-157.84736 231.3235,-5e-5 -187.9613,157.84742 43.3623,157.84736 231.3235,-8e-5 -187.9632,-157.84728 43.3604,-157.84736 231.3234,-5e-5 -187.9615,157.84742 43.362,157.84736 231.3236,-8e-5 -187.963,-157.84728 43.3605,-157.84736 231.3236,-5e-5 -187.9613,157.84742 43.3623,157.84736 231.3234,-8e-5 -187.9633,-157.84728 43.3603,-157.84736 231.3235,-5e-5 -187.9613,157.84742 43.3622,157.84736 231.3235,-8e-5 -187.9632,-157.84728 43.3604,-157.84736 231.3235,-5e-5 -187.9615,157.84742 43.3622,157.84736 231.3235,-8e-5 -187.9632,-157.84728 43.3603,-157.84736 231.3236,-5e-5 -187.9613,157.84742 43.3622,157.84736 231.3235,-8e-5 -187.9632,-157.84728 43.3605,-157.84736 231.3235,-5e-5 -187.9614,157.84742 43.3621,157.84736 231.3236,-8e-5 -187.9631,-157.84728 43.3605,-157.84736 231.3234,-5e-5 -187.9615,157.84742 43.3621,157.84736 231.3236,-8e-5 -187.9631,-157.84728 43.3603,-157.84736 231.3237,-5e-5 -187.9613,157.84742 43.3624,157.84736"
       sodipodi:nodetypes="cczzzzzzzzzzzzzzzzzzzzzzzzzzzzzzzzzzzzzzzzzzzzzzzzzzzzzzzzzzzzzzzzzzzzzzzzzz" />
    <path
       sodipodi:nodetypes="cczzzzzzzzzzzzzzzzzzzzzzzzzzzzzzzzzzzzzzzzzzzzzzzzzzzzzzzzzzzzzzzzzzzzzzzzzz"
       d="m 3250.5897,165.47504 m -3208.736826,0 c 231.323546,0 -187.962274,157.84735 43.361274,157.84735 231.323532,0 -187.962118,-157.84735 43.361412,-157.84735 231.32353,2e-5 -187.96235,157.84734 43.36119,157.84735 231.32354,0 -187.962031,-157.84735 43.3615,-157.84735 231.32354,2e-5 -187.962408,157.84734 43.36113,157.84735 231.32353,0 -187.961964,-157.84735 43.36156,-157.84735 231.32355,3e-5 -187.96249,157.84732 43.36105,157.84735 231.32354,2e-5 -187.96188,-157.84738 43.36165,-157.84735 231.32353,3e-5 -187.96258,157.84732 43.36096,157.84735 231.32354,2e-5 -187.9618,-157.84738 43.36174,-157.84735 231.32353,3e-5 -187.96264,157.84732 43.3609,157.84735 231.32353,2e-5 -187.96174,-157.84738 43.36178,-157.84735 231.32355,3e-5 -187.96274,157.84729 43.3608,157.84735 231.32353,4e-5 -187.96163,-157.8474 43.36191,-157.84735 231.32357,3e-5 -187.96287,157.84729 43.36066,157.84735 231.32357,6e-5 -187.9615,-157.8474 43.36203,-157.84735 231.32355,5e-5 -187.96298,157.84729 43.36057,157.84735 231.32361,6e-5 -187.96141,-157.84742 43.36214,-157.84735 231.32357,5e-5 -187.96311,157.84729 43.36043,157.84735 231.32354,6e-5 -187.96134,-157.84742 43.36214,-157.84735 231.3236,7e-5 -187.96309,157.84727 43.36049,157.84735 231.32351,6e-5 -187.96139,-157.84742 43.3621,-157.84735 231.32361,7e-5 -187.9631,157.84727 43.36051,157.84735 231.3235,6e-5 -187.96144,-157.84742 43.3621,-157.84735 231.3236,7e-5 -187.96308,157.84727 43.3605,157.84735 231.3235,6e-5 -187.9615,-157.84742 43.3622,-157.84735 231.3234,7e-5 -187.96328,157.84727 43.3602,157.84735 231.3236,6e-5 -187.9612,-157.84742 43.3623,-157.84735 231.3235,7e-5 -187.9631,157.84727 43.3603,157.84735 231.3236,6e-5 -187.9613,-157.84742 43.3622,-157.84735 231.3236,7e-5 -187.9631,157.84727 43.3605,157.84735 231.3235,6e-5 -187.9613,-157.84742 43.3622,-157.84735 231.3235,7e-5 -187.9632,157.84727 43.3604,157.84735 231.3235,6e-5 -187.9615,-157.84742 43.3622,-157.84735 231.3234,7e-5 -187.9632,157.84727 43.3603,157.84735 231.3236,6e-5 -187.9614,-157.84742 43.3622,-157.84735 231.3235,7e-5 -187.9632,157.84727 43.3604,157.84735 231.3235,6e-5 -187.9613,-157.84742 43.3622,-157.84735 231.3235,7e-5 -187.9632,157.84727 43.3605,157.84735 231.3234,6e-5 -187.9615,-157.84742 43.3621,-157.84735 231.3236,7e-5 -187.9631,157.84727 43.3603,157.84735 231.3236,6e-5 -187.9612,-157.84744 43.3624,-157.84735 231.3235,7e-5 -187.9632,157.84727 43.3603,157.84735 231.3237,6e-5 -187.9613,-157.84742 43.3622,-157.84735 231.3236,7e-5 -187.9631,157.84727 43.3604,157.84735 231.3236,6e-5 -187.9614,-157.84742 43.3622,-157.84735 231.3236,7e-5 -187.9631,157.84727 43.3605,157.84735 231.3235,6e-5 -187.9615,-157.84742 43.3622,-157.84735 231.3234,7e-5 -187.9633,157.84727 43.3604,157.84735 231.3235,6e-5 -187.9614,-157.84742 43.3621,-157.84735 231.3235,7e-5 -187.9632,157.84727 43.3604,157.84735 231.3234,6e-5 -187.9613,-157.84742 43.3621,-157.84735 231.3237,7e-5 -187.963,157.84727 43.3604,157.84735 231.3236,6e-5 -187.9614,-157.84742 43.3622,-157.84735 231.3236,7e-5 -187.963,157.84727 43.3605,157.84735 231.3236,6e-5 -187.9613,-157.84742 43.3623,-157.84735 231.3233,7e-5 -187.9634,157.84727 43.3602,157.84735 231.3235,6e-5 -187.9613,-157.84742 43.3623,-157.84735 231.3235,7e-5 -187.9632,157.84727 43.3604,157.84735 231.3234,6e-5 -187.9615,-157.84742 43.362,-157.84735 231.3236,7e-5 -187.963,157.84727 43.3605,157.84735 231.3236,6e-5 -187.9613,-157.84742 43.3623,-157.84735 231.3234,7e-5 -187.9633,157.84727 43.3603,157.84735 231.3235,6e-5 -187.9613,-157.84742 43.3622,-157.84735 231.3235,7e-5 -187.9632,157.84727 43.3604,157.84735 231.3235,6e-5 -187.9615,-157.84742 43.3622,-157.84735 231.3235,7e-5 -187.9632,157.84727 43.3603,157.84735 231.3236,6e-5 -187.9613,-157.84742 43.3622,-157.84735 231.3235,7e-5 -187.9632,157.84727 43.3605,157.84735 231.3235,6e-5 -187.9614,-157.84742 43.3621,-157.84735 231.3236,7e-5 -187.9631,157.84727 43.3605,157.84735 231.3234,6e-5 -187.9615,-157.84742 43.3621,-157.84735 231.3236,7e-5 -187.9631,157.84727 43.3603,157.84735 231.3237,6e-5 -187.9613,-157.84742 43.3624,-157.84735"
       style="fill:none;stroke:#9c4bcc;stroke-width:10;stroke-linecap:round;stroke-linejoin:round;stroke-miterlimit:4;stroke-dasharray:none;stroke-opacity:1"
       id="path7358"
       inkscape:connector-curvature="0" />
  </g>
</svg>
