<?xml version="1.0" encoding="UTF-8" standalone="no"?>
<!-- Created with Inkscape (http://www.inkscape.org/) -->

<svg
   xmlns:dc="http://purl.org/dc/elements/1.1/"
   xmlns:cc="http://creativecommons.org/ns#"
   xmlns:rdf="http://www.w3.org/1999/02/22-rdf-syntax-ns#"
   xmlns:svg="http://www.w3.org/2000/svg"
   xmlns="http://www.w3.org/2000/svg"
   xmlns:sodipodi="http://sodipodi.sourceforge.net/DTD/sodipodi-0.dtd"
   xmlns:inkscape="http://www.inkscape.org/namespaces/inkscape"
   sodipodi:docname="traditional4.svg"
   inkscape:version="0.48.5 r10040"
   version="1.1"
   id="svg27345"
   height="800"
   width="3200">
  <sodipodi:namedview
     id="base"
     pagecolor="#ffffff"
     bordercolor="#666666"
     borderopacity="1.0"
     inkscape:pageopacity="0.0"
     inkscape:pageshadow="2"
     inkscape:zoom="0.1171875"
     inkscape:cx="1600"
     inkscape:cy="400"
     inkscape:document-units="px"
     inkscape:current-layer="layer1"
     showgrid="false"
     inkscape:window-width="473"
     inkscape:window-height="442"
     inkscape:window-x="0"
     inkscape:window-y="0"
     inkscape:window-maximized="0" />
  <defs
     id="defs27347">
    <inkscape:perspective
       sodipodi:type="inkscape:persp3d"
       inkscape:vp_x="0 : 526.18109 : 1"
       inkscape:vp_y="0 : 1000 : 0"
       inkscape:vp_z="744.09448 : 526.18109 : 1"
       inkscape:persp3d-origin="372.04724 : 350.78739 : 1"
       id="perspective27353" />
    <inkscape:perspective
       sodipodi:type="inkscape:persp3d"
       inkscape:vp_x="0 : 0.5 : 1"
       inkscape:vp_y="0 : 1000 : 0"
       inkscape:vp_z="1 : 0.5 : 1"
       inkscape:persp3d-origin="0.5 : 0.33333333 : 1"
       id="perspective6460" />
    <inkscape:perspective
       sodipodi:type="inkscape:persp3d"
       inkscape:vp_x="0 : 0.5 : 1"
       inkscape:vp_y="0 : 1000 : 0"
       inkscape:vp_z="1 : 0.5 : 1"
       inkscape:persp3d-origin="0.5 : 0.33333333 : 1"
       id="perspective23322" />
    <inkscape:perspective
       sodipodi:type="inkscape:persp3d"
       inkscape:vp_x="0 : 0.5 : 1"
       inkscape:vp_y="0 : 1000 : 0"
       inkscape:vp_z="1 : 0.5 : 1"
       inkscape:persp3d-origin="0.5 : 0.33333333 : 1"
       id="perspective23344" />
    <inkscape:perspective
       sodipodi:type="inkscape:persp3d"
       inkscape:vp_x="0 : 0.5 : 1"
       inkscape:vp_y="0 : 1000 : 0"
       inkscape:vp_z="1 : 0.5 : 1"
       inkscape:persp3d-origin="0.5 : 0.33333333 : 1"
       id="perspective23344-6" />
    <inkscape:perspective
       sodipodi:type="inkscape:persp3d"
       inkscape:vp_x="0 : 0.5 : 1"
       inkscape:vp_y="0 : 1000 : 0"
       inkscape:vp_z="1 : 0.5 : 1"
       inkscape:persp3d-origin="0.5 : 0.33333333 : 1"
       id="perspective23375" />
    <inkscape:perspective
       sodipodi:type="inkscape:persp3d"
       inkscape:vp_x="0 : 0.5 : 1"
       inkscape:vp_y="0 : 1000 : 0"
       inkscape:vp_z="1 : 0.5 : 1"
       inkscape:persp3d-origin="0.5 : 0.33333333 : 1"
       id="perspective23375-0" />
    <inkscape:perspective
       sodipodi:type="inkscape:persp3d"
       inkscape:vp_x="0 : 0.5 : 1"
       inkscape:vp_y="0 : 1000 : 0"
       inkscape:vp_z="1 : 0.5 : 1"
       inkscape:persp3d-origin="0.5 : 0.33333333 : 1"
       id="perspective23375-9" />
    <inkscape:perspective
       sodipodi:type="inkscape:persp3d"
       inkscape:vp_x="0 : 0.5 : 1"
       inkscape:vp_y="0 : 1000 : 0"
       inkscape:vp_z="1 : 0.5 : 1"
       inkscape:persp3d-origin="0.5 : 0.33333333 : 1"
       id="perspective23375-91" />
    <inkscape:perspective
       sodipodi:type="inkscape:persp3d"
       inkscape:vp_x="0 : 0.5 : 1"
       inkscape:vp_y="0 : 1000 : 0"
       inkscape:vp_z="1 : 0.5 : 1"
       inkscape:persp3d-origin="0.5 : 0.33333333 : 1"
       id="perspective23375-3" />
    <inkscape:perspective
       sodipodi:type="inkscape:persp3d"
       inkscape:vp_x="0 : 0.5 : 1"
       inkscape:vp_y="0 : 1000 : 0"
       inkscape:vp_z="1 : 0.5 : 1"
       inkscape:persp3d-origin="0.5 : 0.33333333 : 1"
       id="perspective23375-5" />
    <inkscape:perspective
       sodipodi:type="inkscape:persp3d"
       inkscape:vp_x="0 : 0.5 : 1"
       inkscape:vp_y="0 : 1000 : 0"
       inkscape:vp_z="1 : 0.5 : 1"
       inkscape:persp3d-origin="0.5 : 0.33333333 : 1"
       id="perspective23375-8" />
    <inkscape:perspective
       sodipodi:type="inkscape:persp3d"
       inkscape:vp_x="0 : 0.5 : 1"
       inkscape:vp_y="0 : 1000 : 0"
       inkscape:vp_z="1 : 0.5 : 1"
       inkscape:persp3d-origin="0.5 : 0.33333333 : 1"
       id="perspective23375-4" />
    <inkscape:perspective
       sodipodi:type="inkscape:persp3d"
       inkscape:vp_x="0 : 0.5 : 1"
       inkscape:vp_y="0 : 1000 : 0"
       inkscape:vp_z="1 : 0.5 : 1"
       inkscape:persp3d-origin="0.5 : 0.33333333 : 1"
       id="perspective23375-38" />
    <inkscape:perspective
       sodipodi:type="inkscape:persp3d"
       inkscape:vp_x="0 : 0.5 : 1"
       inkscape:vp_y="0 : 1000 : 0"
       inkscape:vp_z="1 : 0.5 : 1"
       inkscape:persp3d-origin="0.5 : 0.33333333 : 1"
       id="perspective23375-80" />
    <inkscape:perspective
       sodipodi:type="inkscape:persp3d"
       inkscape:vp_x="0 : 0.5 : 1"
       inkscape:vp_y="0 : 1000 : 0"
       inkscape:vp_z="1 : 0.5 : 1"
       inkscape:persp3d-origin="0.5 : 0.33333333 : 1"
       id="perspective23375-03" />
    <inkscape:perspective
       sodipodi:type="inkscape:persp3d"
       inkscape:vp_x="0 : 0.5 : 1"
       inkscape:vp_y="0 : 1000 : 0"
       inkscape:vp_z="1 : 0.5 : 1"
       inkscape:persp3d-origin="0.5 : 0.33333333 : 1"
       id="perspective23375-6" />
    <inkscape:perspective
       sodipodi:type="inkscape:persp3d"
       inkscape:vp_x="0 : 0.5 : 1"
       inkscape:vp_y="0 : 1000 : 0"
       inkscape:vp_z="1 : 0.5 : 1"
       inkscape:persp3d-origin="0.5 : 0.33333333 : 1"
       id="perspective23375-1" />
    <inkscape:perspective
       sodipodi:type="inkscape:persp3d"
       inkscape:vp_x="0 : 0.5 : 1"
       inkscape:vp_y="0 : 1000 : 0"
       inkscape:vp_z="1 : 0.5 : 1"
       inkscape:persp3d-origin="0.5 : 0.33333333 : 1"
       id="perspective23375-88" />
    <inkscape:perspective
       sodipodi:type="inkscape:persp3d"
       inkscape:vp_x="0 : 0.5 : 1"
       inkscape:vp_y="0 : 1000 : 0"
       inkscape:vp_z="1 : 0.5 : 1"
       inkscape:persp3d-origin="0.5 : 0.33333333 : 1"
       id="perspective20946" />
    <inkscape:perspective
       sodipodi:type="inkscape:persp3d"
       inkscape:vp_x="0 : 0.5 : 1"
       inkscape:vp_y="0 : 1000 : 0"
       inkscape:vp_z="1 : 0.5 : 1"
       inkscape:persp3d-origin="0.5 : 0.33333333 : 1"
       id="perspective20993" />
    <inkscape:perspective
       sodipodi:type="inkscape:persp3d"
       inkscape:vp_x="0 : 0.5 : 1"
       inkscape:vp_y="0 : 1000 : 0"
       inkscape:vp_z="1 : 0.5 : 1"
       inkscape:persp3d-origin="0.5 : 0.33333333 : 1"
       id="perspective21027" />
    <inkscape:perspective
       id="perspective21360"
       inkscape:persp3d-origin="0.5 : 0.33333333 : 1"
       inkscape:vp_z="1 : 0.5 : 1"
       inkscape:vp_y="0 : 1000 : 0"
       inkscape:vp_x="0 : 0.5 : 1"
       sodipodi:type="inkscape:persp3d" />
    <inkscape:perspective
       id="perspective21385"
       inkscape:persp3d-origin="0.5 : 0.33333333 : 1"
       inkscape:vp_z="1 : 0.5 : 1"
       inkscape:vp_y="0 : 1000 : 0"
       inkscape:vp_x="0 : 0.5 : 1"
       sodipodi:type="inkscape:persp3d" />
  </defs>
  <metadata
     id="metadata27350">
    <rdf:RDF>
      <cc:Work
         rdf:about="">
        <dc:format>image/svg+xml</dc:format>
        <dc:type
           rdf:resource="http://purl.org/dc/dcmitype/StillImage" />
        <dc:title />
      </cc:Work>
    </rdf:RDF>
  </metadata>
  <g
     style="display:inline"
     inkscape:label="1-loops"
     inkscape:groupmode="layer"
     id="layer1"
     transform="translate(0,-252.36218)">
    <path
       inkscape:connector-curvature="0"
       id="path21344"
       style="fill:none;stroke:#00c0ff;stroke-width:4;stroke-linecap:butt;stroke-linejoin:miter;stroke-miterlimit:4;stroke-opacity:1;stroke-dasharray:none;display:inline"
       d="m -14.460898,684.63804 c 116.489288,3e-5 -94.653542,253.97036 21.8357542,253.97037 116.4892838,2e-5 -94.6534592,-253.97038 21.8358238,-253.97037 116.48928,3e-5 -94.653576,253.97034 21.835712,253.97037 116.489278,3e-5 -94.653416,-253.97038 21.835869,-253.97037 116.489279,3e-5 -94.653604,253.97034 21.83568,253.97037 116.489279,3e-5 -94.65338177,-253.9704 21.835889,-253.97037 116.4893,5e-5 -94.653637,253.97033 21.83564,253.97037 116.4893,4e-5 -94.653329,-253.97041 21.83596,-253.97037 116.48928,6e-5 -94.653698,253.97033 21.83559,253.97037 116.48929,5e-5 -94.653299,-253.97041 21.83599,-253.97037 116.48928,6e-5 -94.65374,253.97031 21.83556,253.97037 116.48928,6e-5 -94.61546,-253.97042 21.87381,-253.97037 116.48929,8e-5 -94.61548,253.97031 21.87381,253.97037 116.48928,7e-5 -94.61548,-253.97044 21.87381,-253.97037 116.4893,9e-5 -94.61547,253.9703 21.87381,253.97037 116.4893,8e-5 -94.61547,-253.97044 21.87381,-253.97037 116.4893,9e-5 -94.61548,253.97028 21.87381,253.97037 116.4893,9e-5 -94.61549,-253.97046 21.87381,-253.97037 116.48931,1.1e-4 -94.61548,253.97027 21.87381,253.97037 116.48928,10e-5 -94.61545,-253.97047 21.87381,-253.97037 116.48932,1.2e-4 -94.61549,253.97027 21.87381,253.97037 116.48929,1.1e-4 -94.61545,-253.97047 21.87381,-253.97037 116.48932,1.2e-4 -94.61549,253.97027 21.87381,253.97037 116.4893,1.1e-4 -94.61548,-253.97047 21.87381,-253.97037 116.48931,1.2e-4 -94.61554,253.97027 21.87378,253.97037 116.48926,1.1e-4 -94.61558,-253.97047 21.87378,-253.97037 116.48922,1.2e-4 -94.61548,253.97027 21.87378,253.97037 116.48931,1.1e-4 -94.61552,-253.97047 21.87378,-253.97037 116.48927,1.2e-4 -94.61543,253.97027 21.87378,253.97037 116.48932,1.1e-4 -94.61549,-253.97047 21.87378,-253.97037 116.48932,1.2e-4 -94.61553,253.97027 21.87378,253.97037 116.48927,1.1e-4 -94.61549,-253.97047 21.87378,-253.97037 116.48928,1.2e-4 -94.61554,253.97027 21.87378,253.97037 116.48926,1.1e-4 -94.61559,-253.97047 21.87378,-253.97037 116.48922,1.2e-4 -94.6155,253.97027 21.87377,253.97037 116.48933,1.1e-4 -94.61555,-253.97047 21.87378,-253.97037 116.48926,1.2e-4 -94.61553,253.97027 21.87378,253.97037 116.48928,1.1e-4 -94.61549,-253.97047 21.87378,-253.97037 116.48926,1.2e-4 -94.6156,253.97027 21.87378,253.97037 116.48921,1.1e-4 -94.61553,-253.97047 21.87378,-253.97037 116.48936,1.2e-4 -94.61545,253.97025 21.87378,253.97037 116.48928,1.2e-4 -94.61554,-253.97047 21.87378,-253.97037 116.48927,1.3e-4 -94.61548,253.97027 21.87378,253.97037 116.48939,1.1e-4 -94.61549,-253.97047 21.87378,-253.97037 116.48931,1.2e-4 -94.61549,253.97027 21.87374,253.97037 116.48937,1.1e-4 -94.61549,-253.97047 21.8738,-253.97037 116.48937,1.2e-4 -94.6155,253.97027 21.87377,253.97037 116.4893,1.1e-4 -94.61556,-253.97047 21.8739,-253.97037 116.4892,1.2e-4 -94.61566,253.97027 21.8737,253.97037 116.4892,1.1e-4 -94.61553,-253.97047 21.8738,-253.97037 116.4892,1.2e-4 -94.61547,253.97027 21.8738,253.97037 116.4892,1.1e-4 -94.6154,-253.97047 21.8738,-253.97037 116.4894,1.2e-4 -94.6154,253.97027 21.8738,253.97037 116.4893,1.1e-4 -94.6156,-253.97047 21.8737,-253.97037 116.4894,1.2e-4 -94.6155,253.97027 21.8738,253.97037 116.4893,1.1e-4 -94.6156,-253.97047 21.8738,-253.97037 116.4892,1.2e-4 -94.6155,253.97027 21.8738,253.97037 116.4893,1.1e-4 -94.6156,-253.97047 21.8738,-253.97037 116.4893,1.2e-4 -94.6156,253.97027 21.8737,253.97037 116.4892,1.1e-4 -94.6155,-253.97047 21.8738,-253.97037 116.4893,1.2e-4 -94.6155,253.97027 21.8738,253.97037 116.4892,1.1e-4 -94.6155,-253.97047 21.8738,-253.97037 116.4892,1.2e-4 -94.6156,253.97027 21.8738,253.97037 116.4892,1.1e-4 -94.6156,-253.97047 21.8737,-253.97037 116.4893,1.2e-4 -94.6155,253.97027 21.8738,253.97037 116.4893,1.1e-4 -94.6155,-253.97047 21.8738,-253.97037 116.4893,1.2e-4 -94.6155,253.97027 21.8738,253.97037 116.4894,1.1e-4 -94.6154,-253.97047 21.8738,-253.97037 116.4893,1.2e-4 -94.6157,253.97027 21.8737,253.97037 116.4893,1.1e-4 -94.6155,-253.97047 21.8738,-253.97037 116.4893,1.2e-4 -94.6156,253.97027 21.8738,253.97037 116.4891,1.1e-4 -94.6155,-253.97047 21.8738,-253.97037 116.4893,1.2e-4 -94.6154,253.97027 21.8737,253.97037 116.4894,1.1e-4 -93.9189,-253.97047 21.8738,-253.97037 116.2973,3e-5 -95.1201,253.97036 21.8738,253.97037 116.9939,2e-5 -95.1201,-253.97038 21.8738,-253.97037 116.9939,3e-5 -95.1201,253.97034 21.8738,253.97037 116.9939,3e-5 -95.1203,-253.97038 21.8737,-253.97037 116.9939,3e-5 -95.1202,253.97034 21.8738,253.97037 116.994,3e-5 -95.1201,-253.9704 21.8738,-253.97037 116.9939,5e-5 -95.1201,253.97033 21.8738,253.97037 116.9939,4e-5 -95.1201,-253.97041 21.8738,-253.97037 116.9939,6e-5 -95.1202,253.97033 21.8737,253.97037 116.9939,5e-5 -95.1202,-253.97041 21.8738,-253.97037 116.9939,6e-5 -95.1201,253.97031 21.8738,253.97037 116.994,6e-5 -95.1201,-253.97042 21.8738,-253.97037 116.994,8e-5 -95.1201,253.97031 21.8738,253.97037 116.9939,7e-5 -95.1202,-253.97044 21.8737,-253.97037 116.9939,9e-5 -95.1201,253.9703 21.8738,253.97037 116.9939,8e-5 -95.1201,-253.97044 21.8738,-253.97037 116.9939,9e-5 -95.1202,253.97028 21.8738,253.97037 116.9939,9e-5 -95.1201,-253.97046 21.8738,-253.97037 116.994,1.1e-4 -95.1202,253.97027 21.8737,253.97037 116.9939,10e-5 -95.1201,-253.97047 21.8738,-253.97037 116.9939,1.2e-4 -95.12,253.97027 21.8739,253.97037 116.9939,1.1e-4 -95.1201,-253.97047 21.8738,-253.97037 116.9939,1.2e-4 -95.1202,253.97027 21.8738,253.97037 116.9939,1.1e-4 -95.1201,-253.97047 21.8738,-253.97037 116.994,1.2e-4 -95.1202,253.97027 21.8737,253.97037 116.9939,1.1e-4 -95.1202,-253.97047 21.8738,-253.97037 116.9939,1.2e-4 -95.12,253.97027 21.8738,253.97037 116.994,1.1e-4 -95.1201,-253.97047 21.8738,-253.97037 116.9939,1.2e-4 -95.1202,253.97027 21.8737,253.97037 116.9939,1.1e-4 -95.1202,-253.97047 21.8738,-253.97037 116.994,1.2e-4 -95.1201,253.97027 21.8738,253.97037 116.994,1.1e-4 -95.1201,-253.97047 21.8738,-253.97037 116.9939,1.2e-4 -95.1202,253.97027 21.8738,253.97037 116.9938,1.1e-4 -95.1203,-253.97047 21.8737,-253.97037 116.9938,1.2e-4 -95.1201,253.97027 21.8738,253.97037 116.9939,1.1e-4 -95.1203,-253.97047 21.8738,-253.97037 116.9939,1.2e-4 -95.1201,253.97027 21.8738,253.97037 116.994,1.1e-4 -95.1201,-253.97047 21.8738,-253.97037 116.9939,1.2e-4 -95.1203,253.97027 21.8737,253.97037 116.9938,1.1e-4 -95.1201,-253.97047 21.8738,-253.97037 116.9939,1.2e-4 -95.1201,253.97025 21.8738,253.97037 116.9939,1.2e-4 -95.1202,-253.97047 21.8738,-253.97037 116.9939,1.3e-4 -95.1201,253.97027 21.8738,253.97037 116.9941,1.1e-4 -95.1202,-253.97047 21.8737,-253.97037 116.994,1.2e-4 -95.1201,253.97027 21.8738,253.97037 116.994,1.1e-4 -95.1201,-253.97047 21.8738,-253.97037 116.994,1.2e-4 -95.1201,253.97027 21.8738,253.97037 116.9939,1.1e-4 -95.1202,-253.97047 21.8738,-253.97037 116.9938,1.2e-4 -95.1204,253.97027 21.8737,253.97037 116.9939,1.1e-4 -95.1201,-253.97047 21.8738,-253.97037 116.994,1.2e-4 -95.1202,253.97027 21.8738,253.97037 116.9938,1.1e-4 -95.1201,-253.97047 21.8738,-253.97037 116.994,1.2e-4 -95.12,253.97027 21.8738,253.97037 116.9939,1.1e-4 -95.1202,-253.97047 21.8737,-253.97037 116.994,1.2e-4 -95.1202,253.97027 21.8738,253.97037 116.9939,1.1e-4 -95.1202,-253.97047 21.8738,-253.97037 116.9939,1.2e-4 -95.1201,253.97027 21.8738,253.97037 116.9939,1.1e-4 -95.1203,-253.97047 21.8737,-253.97037 116.9939,1.2e-4 -95.1201,253.97027 21.8738,253.97037 116.9938,1.1e-4 -95.1201,-253.97047 21.8738,-253.97037 116.994,1.2e-4 -95.1202,253.97027 21.8738,253.97037 116.9939,1.1e-4 -95.1203,-253.97047 21.8738,-253.97037 116.9938,1.2e-4 -95.1203,253.97027 21.8737,253.97037 116.9939,1.1e-4 -95.1201,-253.97047 21.8738,-253.97037 116.9939,1.2e-4 -95.1201,253.97027 21.8738,253.97037 116.9939,1.1e-4 -95.1201,-253.97047 21.8738,-253.97037 116.9939,1.2e-4 -95.1202,253.97027 21.8738,253.97037 116.994,1.1e-4 -95.0606,-253.97047 21.9333,-253.97037 116.9939,1.2e-4 -95.0641,253.97027 21.9299,253.97037 116.994,1.1e-4 -95.0631,-253.97047 21.9308,-253.97037 116.9939,1.2e-4 -95.064,253.97027 21.93,253.97037 116.9938,1.1e-4 -95.0632,-253.97047 21.9307,-253.97037 116.994,1.2e-4 -95.0639,253.97027 21.9299,253.97037 116.994,1.1e-4 -95.0631,-253.97047 21.931,-253.97037"
       sodipodi:nodetypes="cssssssssssssssssssssssssssssssssssssssssssssssssssssssssssssssssssssssssscsssssssssssssssssssssssssssssssssssssssssssssssssssssssssssssssssssssssssc" />
    <path
       inkscape:connector-curvature="0"
       sodipodi:nodetypes="cssssssssssssssssssssssssssssssssssssssssssssssssssssssssssssssssssssssssscsssssssssssssssssssssssssssssssssssssssssssssssssssssssssssssssssssssssssc"
       d="m -14.460898,601.3828 c 116.489288,-3e-5 -94.653542,-253.97036 21.8357542,-253.97037 116.4892838,-2e-5 -94.6534592,253.97038 21.8358238,253.97037 116.48928,-3e-5 -94.653576,-253.97034 21.835712,-253.97037 116.489278,-3e-5 -94.653416,253.97038 21.835869,253.97037 116.489279,-3e-5 -94.653604,-253.97034 21.83568,-253.97037 116.489279,-3e-5 -94.65338177,253.9704 21.835889,253.97037 116.4893,-5e-5 -94.653637,-253.97033 21.83564,-253.97037 116.4893,-4e-5 -94.653329,253.97041 21.83596,253.97037 116.48928,-6e-5 -94.653698,-253.97033 21.83559,-253.97037 116.48929,-5e-5 -94.653299,253.97041 21.83599,253.97037 116.48928,-6e-5 -94.65374,-253.97031 21.83556,-253.97037 116.48928,-6e-5 -94.61546,253.97042 21.87381,253.97037 116.48929,-8e-5 -94.61548,-253.97031 21.87381,-253.97037 116.48928,-7e-5 -94.61548,253.97044 21.87381,253.97037 116.4893,-9e-5 -94.61547,-253.9703 21.87381,-253.97037 116.4893,-8e-5 -94.61547,253.97044 21.87381,253.97037 116.4893,-9e-5 -94.61548,-253.97028 21.87381,-253.97037 116.4893,-9e-5 -94.61549,253.97046 21.87381,253.97037 116.48931,-1.1e-4 -94.61548,-253.97027 21.87381,-253.97037 116.48928,-10e-5 -94.61545,253.97047 21.87381,253.97037 116.48932,-1.2e-4 -94.61549,-253.97027 21.87381,-253.97037 116.48929,-1.1e-4 -94.61545,253.97047 21.87381,253.97037 116.48932,-1.2e-4 -94.61549,-253.97027 21.87381,-253.97037 116.4893,-1.1e-4 -94.61548,253.97047 21.87381,253.97037 116.48931,-1.2e-4 -94.61554,-253.97027 21.87378,-253.97037 116.48926,-1.1e-4 -94.61558,253.97047 21.87378,253.97037 116.48922,-1.2e-4 -94.61548,-253.97027 21.87378,-253.97037 116.48931,-1.1e-4 -94.61552,253.97047 21.87378,253.97037 116.48927,-1.2e-4 -94.61543,-253.97027 21.87378,-253.97037 116.48932,-1.1e-4 -94.61549,253.97047 21.87378,253.97037 116.48932,-1.2e-4 -94.61553,-253.97027 21.87378,-253.97037 116.48927,-1.1e-4 -94.61549,253.97047 21.87378,253.97037 116.48928,-1.2e-4 -94.61554,-253.97027 21.87378,-253.97037 116.48926,-1.1e-4 -94.61559,253.97047 21.87378,253.97037 116.48922,-1.2e-4 -94.6155,-253.97027 21.87377,-253.97037 116.48933,-1.1e-4 -94.61555,253.97047 21.87378,253.97037 116.48926,-1.2e-4 -94.61553,-253.97027 21.87378,-253.97037 116.48928,-1.1e-4 -94.61549,253.97047 21.87378,253.97037 116.48926,-1.2e-4 -94.6156,-253.97027 21.87378,-253.97037 116.48921,-1.1e-4 -94.61553,253.97047 21.87378,253.97037 116.48936,-1.2e-4 -94.61545,-253.97025 21.87378,-253.97037 116.48928,-1.2e-4 -94.61554,253.97047 21.87378,253.97037 116.48927,-1.3e-4 -94.61548,-253.97027 21.87378,-253.97037 116.48939,-1.1e-4 -94.61549,253.97047 21.87378,253.97037 116.48931,-1.2e-4 -94.61549,-253.97027 21.87374,-253.97037 116.48937,-1.1e-4 -94.61549,253.97047 21.8738,253.97037 116.48937,-1.2e-4 -94.6155,-253.97027 21.87377,-253.97037 116.4893,-1.1e-4 -94.61556,253.97047 21.8739,253.97037 116.4892,-1.2e-4 -94.61566,-253.97027 21.8737,-253.97037 116.4892,-1.1e-4 -94.61553,253.97047 21.8738,253.97037 116.4892,-1.2e-4 -94.61547,-253.97027 21.8738,-253.97037 116.4892,-1.1e-4 -94.6154,253.97047 21.8738,253.97037 116.4894,-1.2e-4 -94.6154,-253.97027 21.8738,-253.97037 116.4893,-1.1e-4 -94.6156,253.97047 21.8737,253.97037 116.4894,-1.2e-4 -94.6155,-253.97027 21.8738,-253.97037 116.4893,-1.1e-4 -94.6156,253.97047 21.8738,253.97037 116.4892,-1.2e-4 -94.6155,-253.97027 21.8738,-253.97037 116.4893,-1.1e-4 -94.6156,253.97047 21.8738,253.97037 116.4893,-1.2e-4 -94.6156,-253.97027 21.8737,-253.97037 116.4892,-1.1e-4 -94.6155,253.97047 21.8738,253.97037 116.4893,-1.2e-4 -94.6155,-253.97027 21.8738,-253.97037 116.4892,-1.1e-4 -94.6155,253.97047 21.8738,253.97037 116.4892,-1.2e-4 -94.6156,-253.97027 21.8738,-253.97037 116.4892,-1.1e-4 -94.6156,253.97047 21.8737,253.97037 116.4893,-1.2e-4 -94.6155,-253.97027 21.8738,-253.97037 116.4893,-1.1e-4 -94.6155,253.97047 21.8738,253.97037 116.4893,-1.2e-4 -94.6155,-253.97027 21.8738,-253.97037 116.4894,-1.1e-4 -94.6154,253.97047 21.8738,253.97037 116.4893,-1.2e-4 -94.6157,-253.97027 21.8737,-253.97037 116.4893,-1.1e-4 -94.6155,253.97047 21.8738,253.97037 116.4893,-1.2e-4 -94.6156,-253.97027 21.8738,-253.97037 116.4891,-1.1e-4 -94.6155,253.97047 21.8738,253.97037 116.4893,-1.2e-4 -94.6154,-253.97027 21.8737,-253.97037 116.4894,-1.1e-4 -93.9189,253.97047 21.8738,253.97037 116.2973,-3e-5 -95.1201,-253.97036 21.8738,-253.97037 116.9939,-2e-5 -95.1201,253.97038 21.8738,253.97037 116.9939,-3e-5 -95.1201,-253.97034 21.8738,-253.97037 116.9939,-3e-5 -95.1203,253.97038 21.8737,253.97037 116.9939,-3e-5 -95.1202,-253.97034 21.8738,-253.97037 116.994,-3e-5 -95.1201,253.9704 21.8738,253.97037 116.9939,-5e-5 -95.1201,-253.97033 21.8738,-253.97037 116.9939,-4e-5 -95.1201,253.97041 21.8738,253.97037 116.9939,-6e-5 -95.1202,-253.97033 21.8737,-253.97037 116.9939,-5e-5 -95.1202,253.97041 21.8738,253.97037 116.9939,-6e-5 -95.1201,-253.97031 21.8738,-253.97037 116.994,-6e-5 -95.1201,253.97042 21.8738,253.97037 116.994,-8e-5 -95.1201,-253.97031 21.8738,-253.97037 116.9939,-7e-5 -95.1202,253.97044 21.8737,253.97037 116.9939,-9e-5 -95.1201,-253.9703 21.8738,-253.97037 116.9939,-8e-5 -95.1201,253.97044 21.8738,253.97037 116.9939,-9e-5 -95.1202,-253.97028 21.8738,-253.97037 116.9939,-9e-5 -95.1201,253.97046 21.8738,253.97037 116.994,-1.1e-4 -95.1202,-253.97027 21.8737,-253.97037 116.9939,-10e-5 -95.1201,253.97047 21.8738,253.97037 116.9939,-1.2e-4 -95.12,-253.97027 21.8739,-253.97037 116.9939,-1.1e-4 -95.1201,253.97047 21.8738,253.97037 116.9939,-1.2e-4 -95.1202,-253.97027 21.8738,-253.97037 116.9939,-1.1e-4 -95.1201,253.97047 21.8738,253.97037 116.994,-1.2e-4 -95.1202,-253.97027 21.8737,-253.97037 116.9939,-1.1e-4 -95.1202,253.97047 21.8738,253.97037 116.9939,-1.2e-4 -95.12,-253.97027 21.8738,-253.97037 116.994,-1.1e-4 -95.1201,253.97047 21.8738,253.97037 116.9939,-1.2e-4 -95.1202,-253.97027 21.8737,-253.97037 116.9939,-1.1e-4 -95.1202,253.97047 21.8738,253.97037 116.994,-1.2e-4 -95.1201,-253.97027 21.8738,-253.97037 116.994,-1.1e-4 -95.1201,253.97047 21.8738,253.97037 116.9939,-1.2e-4 -95.1202,-253.97027 21.8738,-253.97037 116.9938,-1.1e-4 -95.1203,253.97047 21.8737,253.97037 116.9938,-1.2e-4 -95.1201,-253.97027 21.8738,-253.97037 116.9939,-1.1e-4 -95.1203,253.97047 21.8738,253.97037 116.9939,-1.2e-4 -95.1201,-253.97027 21.8738,-253.97037 116.994,-1.1e-4 -95.1201,253.97047 21.8738,253.97037 116.9939,-1.2e-4 -95.1203,-253.97027 21.8737,-253.97037 116.9938,-1.1e-4 -95.1201,253.97047 21.8738,253.97037 116.9939,-1.2e-4 -95.1201,-253.97025 21.8738,-253.97037 116.9939,-1.2e-4 -95.1202,253.97047 21.8738,253.97037 116.9939,-1.3e-4 -95.1201,-253.97027 21.8738,-253.97037 116.9941,-1.1e-4 -95.1202,253.97047 21.8737,253.97037 116.994,-1.2e-4 -95.1201,-253.97027 21.8738,-253.97037 116.994,-1.1e-4 -95.1201,253.97047 21.8738,253.97037 116.994,-1.2e-4 -95.1201,-253.97027 21.8738,-253.97037 116.9939,-1.1e-4 -95.1202,253.97047 21.8738,253.97037 116.9938,-1.2e-4 -95.1204,-253.97027 21.8737,-253.97037 116.9939,-1.1e-4 -95.1201,253.97047 21.8738,253.97037 116.994,-1.2e-4 -95.1202,-253.97027 21.8738,-253.97037 116.9938,-1.1e-4 -95.1201,253.97047 21.8738,253.97037 116.994,-1.2e-4 -95.12,-253.97027 21.8738,-253.97037 116.9939,-1.1e-4 -95.1202,253.97047 21.8737,253.97037 116.994,-1.2e-4 -95.1202,-253.97027 21.8738,-253.97037 116.9939,-1.1e-4 -95.1202,253.97047 21.8738,253.97037 116.9939,-1.2e-4 -95.1201,-253.97027 21.8738,-253.97037 116.9939,-1.1e-4 -95.1203,253.97047 21.8737,253.97037 116.9939,-1.2e-4 -95.1201,-253.97027 21.8738,-253.97037 116.9938,-1.1e-4 -95.1201,253.97047 21.8738,253.97037 116.994,-1.2e-4 -95.1202,-253.97027 21.8738,-253.97037 116.9939,-1.1e-4 -95.1203,253.97047 21.8738,253.97037 116.9938,-1.2e-4 -95.1203,-253.97027 21.8737,-253.97037 116.9939,-1.1e-4 -95.1201,253.97047 21.8738,253.97037 116.9939,-1.2e-4 -95.1201,-253.97027 21.8738,-253.97037 116.9939,-1.1e-4 -95.1201,253.97047 21.8738,253.97037 116.9939,-1.2e-4 -95.1202,-253.97027 21.8738,-253.97037 116.994,-1.1e-4 -95.0606,253.97047 21.9333,253.97037 116.9939,-1.2e-4 -95.0641,-253.97027 21.9299,-253.97037 116.994,-1.1e-4 -95.0631,253.97047 21.9308,253.97037 116.9939,-1.2e-4 -95.064,-253.97027 21.93,-253.97037 116.9938,-1.1e-4 -95.0632,253.97047 21.9307,253.97037 116.994,-1.2e-4 -95.0639,-253.97027 21.9299,-253.97037 116.994,-1.1e-4 -95.0631,253.97047 21.931,253.97037"
       style="fill:none;stroke:#00c0ff;stroke-width:4;stroke-linecap:butt;stroke-linejoin:miter;stroke-miterlimit:4;stroke-opacity:1;stroke-dasharray:none;display:inline"
       id="path21346" />
  </g>
  <g
     transform="translate(0,-200)"
     style="display:inline"
     inkscape:label="2-lines"
     id="layer3"
     inkscape:groupmode="layer">
    <path
       inkscape:connector-curvature="0"
       id="path24389"
       d="m 3.1098958,267.29849 3196.9737042,0"
       style="fill:none;stroke:#ff0000;stroke-width:4;stroke-linecap:round;stroke-linejoin:round;stroke-miterlimit:4;stroke-opacity:1;stroke-dasharray:none" />
    <path
       inkscape:connector-curvature="0"
       style="fill:none;stroke:#ff0000;stroke-width:4;stroke-linecap:round;stroke-linejoin:round;stroke-miterlimit:4;stroke-opacity:1;stroke-dasharray:none"
       d="m 3.1098958,913.99797 3196.9737042,0"
       id="path24409" />
    <path
       inkscape:connector-curvature="0"
       style="fill:none;stroke:#ff0000;stroke-width:4;stroke-linecap:round;stroke-linejoin:round;stroke-miterlimit:4;stroke-opacity:1;stroke-dasharray:none"
       d="m 3.1098958,576.77236 3196.9737042,0"
       id="path21348" />
    <path
       inkscape:connector-curvature="0"
       id="path21350"
       d="m 3.1098958,604.5241 3196.9737042,0"
       style="fill:none;stroke:#ff0000;stroke-width:4;stroke-linecap:round;stroke-linejoin:round;stroke-miterlimit:4;stroke-opacity:1;stroke-dasharray:none" />
  </g>
</svg>
