<?xml version="1.0"?>
<svg xmlns:rdf="http://www.w3.org/1999/02/22-rdf-syntax-ns#" xmlns="http://www.w3.org/2000/svg" xmlns:cc="http://creativecommons.org/ns#" xmlns:xlink="http://www.w3.org/1999/xlink" xmlns:dc="http://purl.org/dc/elements/1.1/" id="svg2" viewBox="0 0 990 765" version="1.1">
  <g id="layer1" transform="translate(0 -287.36)">
    <path id="path3011" d="m199.68 983.7c-1.3092-1.3093-2.3805-41.803-2.3805-89.986v-87.605l46.425 1.3955c50.857 1.5287 60.71 4.4847 76.163 22.85 10.685 12.698 16.855 40.989 12.754 58.473-6.7322 28.7-28.239 46.941-57.871 49.085l-19.783 1.431-0.98934 22.395-0.98933 22.395-25.474 0.97362c-14.011 0.53553-26.546-0.0975-27.855-1.4068zm47.575-29.11 0.99834-22.79h16.012c19.182 0 42.722-11.045 52.697-24.726 10.468-14.357 9.9464-53.794-0.91262-69.018-12.884-18.064-24.42-21.94-70.637-23.734l-41.36-1.6054v80.925c0 44.509 1.0792 82.005 2.3982 83.324s10.815 1.9521 21.102 1.4068l18.704-0.99139 0.99834-22.79zm2.9407-65.557c-1.238-1.238-2.2509-10.354-2.2509-20.258v-18.007h11.817c13.322 0 25.323 9.6006 25.323 20.258 0 9.7532-11.964 20.258-23.072 20.258-5.2615 0-10.579-1.0129-11.817-2.2509zm22.831-9.8075c2.9182-2.9181 5.3057-6.6304 5.3057-8.2494 0-3.8529-13.789-13.456-19.321-13.456-5.6683 0-5.7526 22.491-0.0928 24.775 6.9748 2.8144 8.5718 2.4669 14.108-3.0696zm107.09 102.99c-27.354-10.956-41.006-32.372-41.006-64.327 0-25.115 10.301-45.615 28.608-56.929 14.752-9.117 43.874-12.416 60.669-6.8737 16.385 5.4075 35.648 22.459 35.648 31.555 0 4.242-8.5933 15.881-21.102 28.581-15.299 15.534-18.608 20.311-12.033 17.373 13.025-5.8195 18.167-2.4135 22.532 14.925 6.1976 24.613 5.2054 28.958-7.8592 34.416-13.057 5.4555-53.078 6.238-65.457 1.2797zm60.041-6.9376c9.36-3.2629 10.596-4.9816 8.7815-12.211-1.1615-4.6275-3.0045-12.878-4.0958-18.334-1.5044-7.5222-3.3013-9.352-7.4336-7.5695-2.9973 1.2929-9.6278 3.068-14.735 3.9447-13.117 2.2517-12.02-5.3499 2.8301-19.612 6.6633-6.3995 16.717-17.397 22.342-24.438 10.057-12.591 10.122-12.92 3.9226-19.891-8.7814-9.8738-31.051-19.492-45.132-19.492-14.462 0-36.277 9.6839-46.2 20.508-14.739 16.079-18.959 43.592-9.9257 64.704 5.8904 13.767 21.873 28.893 34.532 32.681 14.198 4.2486 42.52 4.0989 55.114-0.29138zm-57.154-58.076c0-8.7914 12.782-22.535 20.959-22.535 9.8886 0 8.972 9.2469-1.9678 19.85-12.938 12.54-18.991 13.396-18.991 2.6846zm15.194-9.0294c3.3611-3.714 5.3514-6.7527 4.4229-6.7527-0.92848 0-4.4382 3.0387-7.7993 6.7527s-5.3514 6.7527-4.4229 6.7527c0.92847 0 4.4381-3.0387 7.7993-6.7527zm106.35 73.921c-11.116-4.484-26.295-19.09-32.961-31.717-8.0133-15.178-6.9878-47.421 2.0671-64.991 26.52-51.46 110.43-43.058 125.4 12.556 1.9983 7.421 3.2017 29.851 2.6743 49.845l-0.95887 36.353-43.893 0.67909c-24.141 0.37348-47.691-0.85318-52.333-2.7259zm40.516-21.588c0-18.382-0.10224-18.57-10.129-18.57-22.104 0-31.902-26.77-14.738-40.271 10.467-8.2335 17.301-8.669 26.555-1.6924 5.7976 4.3706 6.9915 10.205 8.4409 41.253l1.6882 36.162h37.14l0.97094-31.243c1.2017-38.668-2.981-54.95-17.965-69.935-29.265-29.265-79.031-21.218-98.215 15.881-6.5306 12.629-6.6254 42.986-0.17319 55.463 9.9021 19.149 30.271 31.47 52.076 31.501l14.349 0.0202v-18.57zm5.7946-10.973c-0.77359-5.1067-1.4066-0.92852-1.4066 9.285 0 10.213 0.63297 14.392 1.4066 9.2849 0.77362-5.1067 0.77362-13.463 0-18.57zm-2.4183-25.975c0-15.35-11.296-24.415-21.79-17.486-15.019 9.9184-7.1727 29.111 11.902 29.111 9.0185 0 9.8879-1.0222 9.8879-11.626zm98.154 56.357c-6.3674-3.2469-16.219-11.712-21.893-18.812-8.9984-11.26-10.477-16.102-11.578-37.908-1.1169-22.119-0.25118-26.725 7.5138-39.975 11.394-19.442 27.621-29.269 51.98-31.478 20.783-1.8846 43.14 4.6991 46.603 13.724 2.5121 6.5464-18.193 42.707-24.453 42.707-2.7303 0-7.8682-1.5542-11.418-3.4537-5.0281-2.691-7.9618-1.9453-13.283 3.3763-3.7566 3.7566-6.8301 8.8737-6.8301 11.371 0 8.774 11.842 15.684 25.437 14.843 12.57-0.77777 13.569-0.0634 22.479 16.068 5.1283 9.285 9.3597 18.858 9.4031 21.274 0.23498 13.097-52.851 19.028-73.961 8.2634zm61.307-7.0134c3.3058-3.3058 2.552-7.2129-3.6458-18.896-7.4946-14.128-8.3369-14.658-20.648-13.007-15.214 2.0407-27.124-7.2513-27.124-21.162 0-10.563 15.086-26.474 22.981-24.237 3.145 0.89129 7.9393 2.1856 10.654 2.8762 3.0919 0.78654 8.1376-4.7669 13.505-14.864 9.8786-18.583 8.3336-21.015-15.656-24.643-17.034-2.5765-34.648 2.7277-48.911 14.729-33.063 27.821-23.156 86.446 17.427 103.12 8.4459 3.4702 46.965 0.53636 51.418-3.9162zm51.561 7.317c-42.639-22.479-52.045-80.373-18.125-111.56 19.572-17.992 53.878-22.969 79.165-11.484 13.133 5.9646 28.434 21.144 28.434 28.208 0 1.8223-9.4125 14.152-20.917 27.4-11.504 13.247-18.797 22.187-16.206 19.866 2.5906-2.3212 8.1462-4.2204 12.346-4.2204 7.7599 0 10.698 6.4124 16.71 36.476 1.9915 9.9577 1.2262 11.174-9.973 15.854-16.277 6.801-58.106 6.4836-71.433-0.54198zm62.445-4.1593c10.215-2.8423 11.726-8.9654 6.7629-27.398-3.0333-11.265-4.9089-13.558-9.4836-11.594-9.8529 4.2294-24.272 5.7664-24.272 2.5872 0-1.6766 9.9836-13.987 22.186-27.357 25.153-27.56 25.779-32.717 5.4949-45.298-16.737-10.38-47.833-10.78-64.809-0.8317-41.484 24.309-38.676 86.765 4.7877 106.51 13.966 6.3429 42.794 7.988 59.334 3.3858zm-55.129-53.256c-7.1842-7.1842 8.6251-28.136 21.23-28.136 9.3105 0 8.692 4.8753-2.3788 18.75-9.0571 11.351-14.284 13.954-18.851 9.386zm14.631-16.319c2.3118-2.7855 3.4435-5.0645 2.515-5.0645s-3.5796 2.279-5.8914 5.0645-3.4435 5.0645-2.515 5.0645c0.92851 0 3.5796-2.279 5.8914-5.0645zm-652.75-27.56c-3.1956-3.1955-2.5163-84.328 0.85179-101.75 3.9802-20.589 14.407-30.22 37.989-35.091l19.682-4.0652v-86.434h148.56v145.18h-69.437c-41.408 0-72.073 1.4108-75.968 3.4951-5.8738 3.1435-6.5307 7.3892-6.5307 42.204v38.709h-26.448c-14.546 0-27.461-1.0129-28.699-2.2509zm45.018-40.107c0-33.301 0.53627-36.141 8.2874-43.893 8.2611-8.2612 8.5072-8.2874 77.656-8.2874h69.369v-128.3h-135.05v91.162h-11.926c-6.5591 0-17.249 2.2243-23.756 4.943-18.037 7.5362-21.716 20.125-21.716 74.293v45.689h37.14v-35.605zm60.774-114.78v-25.459l27.855 0.98065 27.855 0.98063 1.0544 16.658c1.9781 31.251 1.0105 32.299-29.818 32.299h-26.946v-25.459zm47.269-1.5516v-16.882h-40.516v33.764h40.516v-16.882zm68.957 69.761c-0.95371-2.4854-1.2859-16.539-0.7381-31.231l0.99592-26.712 14.349-1.0382 14.349-1.0382v-75.412c0-85.23-2.064-79.511 28.699-79.511 30.767 0 28.699-5.7426 28.699 79.705v75.607h37.14v-151.81l7.7375-1.942c4.2556-1.0681 16.79-1.4769 27.855-0.90842l20.117 1.0336 0.90747 76.812 0.9075 76.812h57.096l0.93201-51.489 0.93204-51.489 20.117-1.0336c37.506-1.9269 35.592-4.7993 35.592 53.431v50.581h20.082l0.932-51.489 0.93204-51.489 20.117-1.0336c37.506-1.9269 35.592-4.7993 35.592 53.431v50.581h20.082l0.93202-51.489 0.93202-51.489 23.094-1.0053c14.119-0.61462 24.944 0.53013 27.855 2.9457 3.8361 3.1837 4.7606 18.57 4.7606 79.229 0 41.403-0.92221 77.682-2.0494 80.619-1.8401 4.7952-24.781 5.3407-224.63 5.3407-182.79 0-222.89-0.80782-224.32-4.5189zm440.87-79.89v-74.28h-40.516v105.02l-17.726-1.0205-17.726-1.0205-0.93203-51.489-0.93202-51.489h-40.34v105.02l-17.726-1.0205-17.726-1.0205-0.93204-51.489-0.932-51.489h-36.964v46.993c0 25.846-0.92221 49.396-2.0494 52.333-1.6869 4.396-8.2566 5.3407-37.14 5.3407h-35.09v-155.31h-40.39l-0.90747 76.812-0.90747 76.812-63.306 0.9186-63.307 0.91856v43.744h435.54v-74.28zm-364.65-55.71v-69.215h-37.14v138.43h37.14v-69.215zm-72.029-84.971c-1.238-1.238-2.2509-39.283-2.2509-84.545v-82.294l27.855 0.98065 27.855 0.98063 0.90661 80.794c0.70005 62.385-0.0692 81.414-3.3763 83.513-5.1634 3.2774-47.805 3.7548-50.989 0.57096zm45.018-82.158v-74.28h-40.516v148.56h40.516v-74.28zm81.334 81.29c-4.0304-2.5514-3.3812-9.9398 4.2229-48.061 4.942-24.776 8.9843-46.891 8.9829-49.145-0.001-2.8668-9.8935-4.3885-32.922-5.0645l-32.919-0.96634-0.93206-51.489-0.93201-51.489h57.574v40.516h40.317c22.174 0 41.14 1.3322 42.147 2.9605 2.5716 4.161-24.908 156.49-29.159 161.64-4.0636 4.9191-48.963 5.7969-56.379 1.1022zm62.601-71.161c6.042-34.354 11.893-67.352 13.002-73.327l2.0163-10.865-39.805-0.9524-39.805-0.95236-1.6882-20.258-1.6882-20.258h-40.516l-0.94497 43.048-0.94493 43.048h33.97c25.655 0 34.405 1.1327 35.746 4.6273 0.9766 2.545-2.1098 24.909-6.8586 49.697-4.7489 24.788-8.6343 46.326-8.6343 47.86 0 1.5348 10.162 2.3414 22.583 1.7923l22.583-0.99834 10.985-62.462zm45.531 69.686c-2.7553-3.3199-3.6283-27.764-2.9862-83.613l0.90736-78.922 26.718-0.99602c19.094-0.71184 27.509 0.25153 29.491 3.3763 1.5255 2.4048 2.797 26.023 2.8254 52.485l0.0517 48.113h16.706l0.932-51.489 0.93204-51.489 27.855-0.98063 27.855-0.98065v104.94h20.082l0.932-51.489 0.93205-51.489h54.022v165.44l-101.68 0.89291c-83.478 0.73309-102.38 0.0529-105.57-3.7985zm202.19-79.815v-74.28h-40.516l-0.0517 48.113c-0.0269 26.462-1.3185 50.111-2.8669 52.552-1.8193 2.8688-8.0721 4.0634-17.674 3.3763l-14.859-1.0631-0.93204-51.489-0.932-51.489h-40.164l-0.932 51.489-0.93205 51.489h-33.764l-0.93204-51.489-0.932-51.489h-40.34v148.56h195.83v-74.28zm-604.37-1.6882v-82.721h145.18v165.44h-145.18v-82.72zm137.65-0.84408 0.90867-75.124h-131.81v73.717c0 40.544 1.0454 74.762 2.3231 76.04 1.2777 1.2777 30.525 1.9108 64.995 1.4068l62.672-0.91624 0.90867-75.124zm-87.006-0.8441v-33.763h43.892v67.526h-43.892v-33.763zm36.438 0.8441-0.98611-26.167h-27.01l-0.98609 26.167-0.98614 26.167h30.956l-0.98614-26.167z"/>
  </g>
  <metadata>
    <rdf:RDF>
      <cc:Work>
        <dc:format>image/svg+xml</dc:format>
        <dc:type rdf:resource="http://purl.org/dc/dcmitype/StillImage"/>
        <cc:license rdf:resource="http://creativecommons.org/licenses/publicdomain/"/>
        <dc:publisher>
          <cc:Agent rdf:about="http://openclipart.org/">
            <dc:title>Openclipart</dc:title>
          </cc:Agent>
        </dc:publisher>
      </cc:Work>
      <cc:License rdf:about="http://creativecommons.org/licenses/publicdomain/">
        <cc:permits rdf:resource="http://creativecommons.org/ns#Reproduction"/>
        <cc:permits rdf:resource="http://creativecommons.org/ns#Distribution"/>
        <cc:permits rdf:resource="http://creativecommons.org/ns#DerivativeWorks"/>
      </cc:License>
    </rdf:RDF>
  </metadata>
</svg>
