<?xml version="1.0"?>
<svg xmlns:rdf="http://www.w3.org/1999/02/22-rdf-syntax-ns#" xmlns="http://www.w3.org/2000/svg" xmlns:cc="http://web.resource.org/cc/" xmlns:xlink="http://www.w3.org/1999/xlink" xmlns:dc="http://purl.org/dc/elements/1.1/" id="svg2" viewBox="0 0 1052.7 743.12" version="1.0">
  <defs id="defs4">
    <linearGradient id="linearGradient9675">
      <stop id="stop9677" stop-color="#fff" stop-opacity=".12376" offset="0"/>
      <stop id="stop9679" stop-color="#00239a" stop-opacity="0" offset="1"/>
    </linearGradient>
    <linearGradient id="linearGradient10555">
      <stop id="stop10557" stop-color="#0b0b28" offset="0"/>
      <stop id="stop10559" offset="1"/>
    </linearGradient>
    <linearGradient id="linearGradient16277">
      <stop id="stop16285" stop-color="#ffef40" stop-opacity=".65882" offset="0"/>
      <stop id="stop16281" stop-color="#eeffca" stop-opacity="0" offset="1"/>
    </linearGradient>
    <linearGradient id="linearGradient11353">
      <stop id="stop11355" stop-color="#bfdfff" offset="0"/>
      <stop id="stop11357" stop-color="#fff" stop-opacity="0" offset="1"/>
    </linearGradient>
    <radialGradient id="radialGradient12590" xlink:href="#linearGradient11353" gradientUnits="userSpaceOnUse" cy="523.15" cx="-117.45" gradientTransform="matrix(1 0 0 .86775 0 69.184)" r="280.99"/>
    <radialGradient id="radialGradient12592" xlink:href="#linearGradient16277" gradientUnits="userSpaceOnUse" cy="541.06" cx="-634.03" gradientTransform="matrix(.46946 .015626 -.14933 4.4864 -255.58 -1876.4)" r="78.632"/>
    <radialGradient id="radialGradient12594" xlink:href="#linearGradient16277" gradientUnits="userSpaceOnUse" cy="541.06" cx="-634.03" gradientTransform="matrix(.47824 -.012162 .11392 4.4796 -392.45 -1890.4)" r="78.632"/>
    <radialGradient id="radialGradient12596" xlink:href="#linearGradient16277" gradientUnits="userSpaceOnUse" cy="541.06" cx="-634.03" gradientTransform="matrix(.46970 .0044930 -.042866 4.4813 -313.03 -1880.8)" r="78.632"/>
    <radialGradient id="radialGradient12670" gradientUnits="userSpaceOnUse" cy="1002.2" cx="190.33" r="139.68">
      <stop id="stop8206" stop-color="#1dbfff" stop-opacity=".51579" offset="0"/>
      <stop id="stop8208" stop-color="#0a3eff" stop-opacity="0" offset="1"/>
    </radialGradient>
    <radialGradient id="radialGradient12730" xlink:href="#linearGradient11353" gradientUnits="userSpaceOnUse" cy="552.56" cx="-44.94" gradientTransform="matrix(1 0 0 .88926 0 61.191)" r="26.008"/>
    <radialGradient id="radialGradient12738" gradientUnits="userSpaceOnUse" cy="-117.8" cx="-616.13" gradientTransform="matrix(1.3384 0 0 1.2621 208.53 30.87)" r="121.2">
      <stop id="stop4941" stop-color="#b7cde5" offset="0"/>
      <stop id="stop4943" stop-color="#3c7bcd" offset="1"/>
    </radialGradient>
    <radialGradient id="radialGradient12740" xlink:href="#linearGradient9675" gradientUnits="userSpaceOnUse" cy="838.65" cx="350.49" gradientTransform="matrix(.84638 -.014493 .0014391 .084046 52.637 786.74)" r="427.28"/>
    <radialGradient id="radialGradient12746" xlink:href="#linearGradient9675" gradientUnits="userSpaceOnUse" cy="838.65" cx="350.49" gradientTransform="matrix(1.1014 .0028985 -.0025632 .084038 -33.408 780.65)" r="427.28"/>
    <radialGradient id="radialGradient3506" gradientUnits="userSpaceOnUse" cy="138.12" cx="467.43" gradientTransform="matrix(1.1729 -.43233 .34585 .93829 -128.36 210.75)" r="7.5374">
      <stop id="stop3510" stop-color="#4a83ba" stop-opacity=".40099" offset="0"/>
      <stop id="stop3512" stop-color="#75a0d9" stop-opacity=".41089" offset="1"/>
    </radialGradient>
    <linearGradient id="linearGradient3118" y2="1421.4" xlink:href="#linearGradient10555" gradientUnits="userSpaceOnUse" x2="102.86" gradientTransform="matrix(.49696 0 0 .46824 891.96 -7.3833)" y1="1335.8" x1="111.13"/>
    <linearGradient id="linearGradient3121" y2="1367.2" xlink:href="#linearGradient10555" gradientUnits="userSpaceOnUse" x2="338.13" gradientTransform="matrix(.49696 0 0 .46824 891.96 -7.3833)" y1="1290.3" x1="341.06"/>
    <radialGradient id="radialGradient3124" gradientUnits="userSpaceOnUse" cy="707.21" cx="431.85" gradientTransform="matrix(.40065 -4.5998e-8 2.6825e-8 .20634 958.64 339.53)" r="579.82">
      <stop id="stop7356" stop-color="#0035dc" offset="0"/>
      <stop id="stop7358" stop-color="#141434" offset="1"/>
    </radialGradient>
  </defs>
  <g id="layer2" transform="translate(-838.88 32.513)">
    <use id="use6672" xlink:href="#path6605" transform="matrix(1.0423 -.28167 .28167 1.0423 -61.104 -346.62)" height="524.40942" width="744.09448" y="0" x="0"/>
    <g id="g2674" transform="matrix(2.0645 0 0 2.0645 -924.29 -721.18)">
      <rect id="rect9570" style="color:#000000" fill-rule="evenodd" height="359.71" width="509.92" y="333.58" x="854.05" fill="url(#radialGradient3124)"/>
      <path id="path10342" style="color:#000000" d="m1363.3 572.31c-26.5 2.95-48.1 6.3-77.3 20.91-39.1 19.51-72.8 39.9-128 26.32-55.2-13.57-81.5-33.6-148.8-25.12-50.62 6.37-122.04 13.98-154.49 17.37v81.5h508.59v-120.98z" fill-rule="evenodd" stroke="#000" stroke-width=".48239px" fill="url(#linearGradient3121)"/>
      <path id="path10340" d="m909.13 591.98c-27.86 0.23-47.69 7.3-54.42 9.33v91.98h508.59v-36.68c-0.9-0.07 0-0.01-20.7-1.51-26.3-1.9-109.2-24.75-196-13.33-86.9 11.42-91.6-0.63-161.7-33-28.45-13.15-54.46-16.97-75.77-16.79z" fill-rule="evenodd" stroke="#000" stroke-width=".48239px" fill="url(#linearGradient3118)"/>
      <path id="path2327" d="m1244.1 622.26c0.8-2.3-1.1-4.5-3.2-2.77-1.8 0.71-2.3-1.79-3.7-0.68-1.3-0.56 3.7-1.41 0.4-1.45-1.2 0.03-5.3 0.11-2.3-0.67 0.4-1.23-1 0.73-1.4-0.81-1.8-0.12-1.2-1.22-1.4-2.42 0.4 0.76 3.5 1.66 2.4 0.04-1.7 0.05-1.1-1.98-0.1-1.93-1.1 0.2-1.5 0.19-0.5-0.38-2-0.75 1-0.63-0.7-1.6 0.3-0.3 4.8 1.16 3.1-0.24-1.3-0.49-4.8-2.79-1.7-2.48 0.7-1.14-1.4-1.25-1-2.4-0.2-0.4 3.3 1.92 1.3-0.42-1.2-0.53-0.6-0.79-0.3-1.58 1.4-0.1 3-0.23 1.4-1.36-0.3-1.45 3.2 0.72 1.9-0.19-0.6-0.34-0.2-1.73-1.3-1.88 0.4 0.28 3.9 0.02 2.4-0.59-0.1-0.26 0.1-0.63-0.8-0.23-0.7-1.01-1.2-1.68 0.3-1.75 0-1.32-1.4-0.25-1.2-2 0.8 0.57 3.8 2.86 3.9 1.39-1.5 0.28-3.4-1.89-0.9-1.25 1.9 1.04 1.1-0.58 0.5-1.26-0.9 0.51-3.5 0.67-1.1-0.22 2.5-0.81-0.6-0.66-1-0.86 1.2 0.01 0.9-2.09 2.1-0.69 2.3-0.23-1.6-3.46 1.1-1.62 2.7 0.82-2.1-2.63-0.7-2.47 1.5 0.89 1.6-0.37 1.3-1.33 1-0.3 1.1-1.19 0.7-1.39 0.6-0.11 2.9-1.53 1.1-0.06-1.7 2.44 3.4-1.26 1.1 0.75-1.1 0.94-1.6 3.09 0.4 1.54 2.7-1.57-1.8 2.21 0.9 0.83 0.6 0.76-1.3 0.84-1 1.89-2.4 0.2 0.3 0.6 1.4-0.17-0.3 0.67-3.2 3.02-0.5 1.86 1.6-1.16 1.9-0.74 1.1 0.7-0.7 0.44-3.4 2.56-0.8 1.08 0.8-0.9 2.3-1.92 1.5-0.02 0.8 1.44-3.3 1.8-0.7 2.34 1.2-0.36 3.7-2.14 2.6-0.24-0.3 1.3-1.9 2.39 0.3 2-0.7 0.62-3.3 0.02-1.8 1.05-2 2.46 2.9 1 3.7 0.3-0.9 1.24-1.5 2.25-2.9 3.67 1.4 0.6 3.6-2.09 4-1.34 0.2 1.7-2.8 2.16-2.8 3.65 1.3 0.35 3.9-2.62 3-0.22 0 0.59-0.6 0.52-0.7 1.37-1.5 0.11-0.3 2.27 0.7 0.35 0.9-1.15 2.2-1.69 1.5 0.24 1.1 1.27-1.4 1.76-1 1.91-0.9 0.49-2.5 1.79-0.6 1.16 1.1-0.92 2.6-2.11 1.3 0.07 0.2 1.53-1.2 1.54-1.6 1.84 0.8 1.22 3.6-1.24 1.9 0.95-0.6 1.22-5.3 1.67-2 1.52 1.5 0.15 4.1-0.48 1.7 0.95-2 1.94-3.4 2.59-6.3 2.97 1.7 0.76 1 0.32-0.2 0.52 1.7 0.95-3.1-0.94-0.5 0.63-1.4 0.87-1.8-1.98-2.5 0.03-2.8-0.55 1.3 5.93-1.9 4.31 0.1-0.3 0.1-0.63 0.1-0.94zm-2.9-3.66c0.3-1.42-3.8 0.05-1.1 0.05 0.3 0 0.7 0 1.1-0.05zm-4.7-2.84c-0.9 0.24-0.2 1.06 0 0zm2.6-0.83c-0.2-1.21-4.4-0.31-2.1 0.12 0.7-0.01 1.4 0.09 2.1-0.12zm1.9 0.01c-0.5-0.64-0.7 0.73 0 0zm2.7-0.35c-0.4-0.34-0.6 0.58 0 0zm7.8-0.35c-0.7-0.85-0.7 0.85 0 0zm-15.2-0.24c-0.7-0.61-0.5 0.31 0 0zm15.3-0.28c-0.4-0.61-0.1 0.63 0 0zm-14.4-0.7c-0.8-0.87-0.6 0.6 0 0zm0.8-0.18c-0.5-0.4-0.3 0.62 0 0zm-3-0.2c1.3 0.26 2.3-0.73 0.2-0.34-0.6-0.11-1.3 0.62-0.2 0.34zm19-0.66c-1.5-0.49-1.3 0.79-0.1 0.04l0.1-0.04zm-18.1-0.7c-0.4-0.35-0.5 0.57 0 0zm0.9-2.45c-0.4-0.6-0.1 0.63 0 0zm0.3-0.85c-0.3-1.3-3.7-0.7-1.2-0.06 0.4 0.14 0.8 0.23 1.2 0.06zm18.5-0.9c-0.7-1.73-2.5 1.15 0 0zm-17.6-0.63c-0.9-0.31 0.1 0.42 0 0zm0.9-2.15c0.8-0.75-1.3 0.08-0.2-0.97-0.8 1.22-3.9-1.82-2.6 0.37 0.8 0.51 1.9 0.82 2.8 0.6zm10.8-2.09c-0.5-0.75-0.5 0.75 0 0zm-11.5-0.18c-0.1-0.76-0.9 0.67 0 0zm2.1-2.28c0.1-1.54-1.3 0.85 0 0zm1-0.34c-0.5-0.6-0.2 0.64 0 0zm7.4-1.04c-0.3-0.65-0.2 0.55 0 0zm-7.3-0.7c-0.1-0.61-0.6 0.7 0 0zm-1-0.22c-0.7-0.69-0.5 0.86 0 0zm-0.7-0.31c-0.7-0.89-0.9 1.04 0 0zm8.3-1.13c1.3-1.01-2.5 0.89 0 0zm-2.2-1.93c-0.9-0.51-0.3 0.68 0 0zm-2.4-2.57c-1.6-0.79-0.8 0.82 0 0zm-7.4 27.16c0.7-0.24 0.4 0.37 0 0zm3.3-28.13c-0.6-1.36 1.1 0.8 0 0zm2.8-5.28c0.8-0.82 1.5 0.35 0 0zm1.6-1.31c0.1-0.25 0.4-0.99 1-0.21-0.2 0.27-0.7 0.78-1 0.21zm0-1.23c0.1-1.51 1.8 1.55 0 0zm0.1-1.14c-0.7-1.19 1.2 0.36 0 0zm0.1-1.41c-0.2-1.63 0.6 0.75 0 0z"/>
      <g id="g11401" fill-rule="evenodd" transform="matrix(.23935 .13786 -.153 .21567 1095.5 302.71)">
        <path id="path11403" d="m23.888 766.01l-141.22-207.2-139.78 208.17 108.84-225.9-250.17-16.96 250.05-18.7-110.4-225.14 141.22 207.21 139.78-208.18-108.84 225.9 250.17 16.97-250.04 18.69 110.39 225.14z" style="color:#000000" fill="url(#radialGradient12590)" transform="matrix(.067658 0 0 .067658 -37.241 517.84)"/>
        <path id="path11405" opacity=".72692" style="color:#000000" d="m-555.4 541.06a78.632 352.35 0 1 1 -157.26 0 78.632 352.35 0 1 1 157.26 0z" transform="matrix(.065176 .034653 -.034653 .065176 15.133 539.27)" fill="url(#radialGradient12592)"/>
        <path id="path11407" opacity=".72692" style="color:#000000" d="m-555.4 541.06a78.632 352.35 0 1 1 -157.26 0 78.632 352.35 0 1 1 157.26 0z" transform="matrix(.064480 -.035931 .035931 .064480 -23.644 494.89)" fill="url(#radialGradient12594)"/>
        <path id="path11409" opacity=".72692" style="color:#000000" d="m-555.4 541.06a78.632 352.35 0 1 1 -157.26 0 78.632 352.35 0 1 1 157.26 0z" transform="matrix(-.00066754 -.073812 .073812 -.00066754 -85.3 506.9)" fill="url(#radialGradient12596)"/>
      </g>
      <g id="use11419" fill-rule="evenodd" transform="matrix(.23935 .13786 -.153 .21567 1216.8 284.27)">
        <path id="path10803" d="m23.888 766.01l-141.22-207.2-139.78 208.17 108.84-225.9-250.17-16.96 250.05-18.7-110.4-225.14 141.22 207.21 139.78-208.18-108.84 225.9 250.17 16.97-250.04 18.69 110.39 225.14z" style="color:#000000" fill="url(#radialGradient12590)" transform="matrix(.067658 0 0 .067658 -37.241 517.84)"/>
        <path id="path10805" opacity=".72692" style="color:#000000" d="m-555.4 541.06a78.632 352.35 0 1 1 -157.26 0 78.632 352.35 0 1 1 157.26 0z" transform="matrix(.065176 .034653 -.034653 .065176 15.133 539.27)" fill="url(#radialGradient12592)"/>
        <path id="path10807" opacity=".72692" style="color:#000000" d="m-555.4 541.06a78.632 352.35 0 1 1 -157.26 0 78.632 352.35 0 1 1 157.26 0z" transform="matrix(.064480 -.035931 .035931 .064480 -23.644 494.89)" fill="url(#radialGradient12594)"/>
        <path id="path10809" opacity=".72692" style="color:#000000" d="m-555.4 541.06a78.632 352.35 0 1 1 -157.26 0 78.632 352.35 0 1 1 157.26 0z" transform="matrix(-.00066754 -.073812 .073812 -.00066754 -85.3 506.9)" fill="url(#radialGradient12596)"/>
      </g>
      <g id="use11447" fill-rule="evenodd" transform="matrix(.23935 .13786 -.153 .21567 1302.8 378.88)">
        <path id="path10785" d="m23.888 766.01l-141.22-207.2-139.78 208.17 108.84-225.9-250.17-16.96 250.05-18.7-110.4-225.14 141.22 207.21 139.78-208.18-108.84 225.9 250.17 16.97-250.04 18.69 110.39 225.14z" style="color:#000000" fill="url(#radialGradient12590)" transform="matrix(.067658 0 0 .067658 -37.241 517.84)"/>
        <path id="path10787" opacity=".72692" style="color:#000000" d="m-555.4 541.06a78.632 352.35 0 1 1 -157.26 0 78.632 352.35 0 1 1 157.26 0z" transform="matrix(.065176 .034653 -.034653 .065176 15.133 539.27)" fill="url(#radialGradient12592)"/>
        <path id="path10789" opacity=".72692" style="color:#000000" d="m-555.4 541.06a78.632 352.35 0 1 1 -157.26 0 78.632 352.35 0 1 1 157.26 0z" transform="matrix(.064480 -.035931 .035931 .064480 -23.644 494.89)" fill="url(#radialGradient12594)"/>
        <path id="path10791" opacity=".72692" style="color:#000000" d="m-555.4 541.06a78.632 352.35 0 1 1 -157.26 0 78.632 352.35 0 1 1 157.26 0z" transform="matrix(-.00066754 -.073812 .073812 -.00066754 -85.3 506.9)" fill="url(#radialGradient12596)"/>
      </g>
      <g id="use11449" fill-rule="evenodd" transform="matrix(.23935 .13786 -.153 .21567 1150.7 334.5)">
        <path id="path10767" d="m23.888 766.01l-141.22-207.2-139.78 208.17 108.84-225.9-250.17-16.96 250.05-18.7-110.4-225.14 141.22 207.21 139.78-208.18-108.84 225.9 250.17 16.97-250.04 18.69 110.39 225.14z" style="color:#000000" fill="url(#radialGradient12590)" transform="matrix(.067658 0 0 .067658 -37.241 517.84)"/>
        <path id="path10769" opacity=".72692" style="color:#000000" d="m-555.4 541.06a78.632 352.35 0 1 1 -157.26 0 78.632 352.35 0 1 1 157.26 0z" transform="matrix(.065176 .034653 -.034653 .065176 15.133 539.27)" fill="url(#radialGradient12592)"/>
        <path id="path10771" opacity=".72692" style="color:#000000" d="m-555.4 541.06a78.632 352.35 0 1 1 -157.26 0 78.632 352.35 0 1 1 157.26 0z" transform="matrix(.064480 -.035931 .035931 .064480 -23.644 494.89)" fill="url(#radialGradient12594)"/>
        <path id="path10773" opacity=".72692" style="color:#000000" d="m-555.4 541.06a78.632 352.35 0 1 1 -157.26 0 78.632 352.35 0 1 1 157.26 0z" transform="matrix(-.00066754 -.073812 .073812 -.00066754 -85.3 506.9)" fill="url(#radialGradient12596)"/>
      </g>
      <g id="use11455" fill-rule="evenodd" transform="matrix(.16488 .10064 -.10540 .15744 1139.5 424.37)">
        <path id="path10749" d="m23.888 766.01l-141.22-207.2-139.78 208.17 108.84-225.9-250.17-16.96 250.05-18.7-110.4-225.14 141.22 207.21 139.78-208.18-108.84 225.9 250.17 16.97-250.04 18.69 110.39 225.14z" style="color:#000000" fill="url(#radialGradient12590)" transform="matrix(.067658 0 0 .067658 -37.241 517.84)"/>
        <path id="path10751" opacity=".72692" style="color:#000000" d="m-555.4 541.06a78.632 352.35 0 1 1 -157.26 0 78.632 352.35 0 1 1 157.26 0z" transform="matrix(.065176 .034653 -.034653 .065176 15.133 539.27)" fill="url(#radialGradient12592)"/>
        <path id="path10753" opacity=".72692" style="color:#000000" d="m-555.4 541.06a78.632 352.35 0 1 1 -157.26 0 78.632 352.35 0 1 1 157.26 0z" transform="matrix(.064480 -.035931 .035931 .064480 -23.644 494.89)" fill="url(#radialGradient12594)"/>
        <path id="path10755" opacity=".72692" style="color:#000000" d="m-555.4 541.06a78.632 352.35 0 1 1 -157.26 0 78.632 352.35 0 1 1 157.26 0z" transform="matrix(-.00066754 -.073812 .073812 -.00066754 -85.3 506.9)" fill="url(#radialGradient12596)"/>
      </g>
      <g id="use11459" fill-rule="evenodd" transform="matrix(.23935 .13786 -.153 .21567 1139.6 249.31)">
        <path id="path10565" d="m23.888 766.01l-141.22-207.2-139.78 208.17 108.84-225.9-250.17-16.96 250.05-18.7-110.4-225.14 141.22 207.21 139.78-208.18-108.84 225.9 250.17 16.97-250.04 18.69 110.39 225.14z" style="color:#000000" fill="url(#radialGradient12590)" transform="matrix(.067658 0 0 .067658 -37.241 517.84)"/>
        <path id="path10567" opacity=".72692" style="color:#000000" d="m-555.4 541.06a78.632 352.35 0 1 1 -157.26 0 78.632 352.35 0 1 1 157.26 0z" transform="matrix(.065176 .034653 -.034653 .065176 15.133 539.27)" fill="url(#radialGradient12592)"/>
        <path id="path10569" opacity=".72692" style="color:#000000" d="m-555.4 541.06a78.632 352.35 0 1 1 -157.26 0 78.632 352.35 0 1 1 157.26 0z" transform="matrix(.064480 -.035931 .035931 .064480 -23.644 494.89)" fill="url(#radialGradient12594)"/>
        <path id="path10571" opacity=".72692" style="color:#000000" d="m-555.4 541.06a78.632 352.35 0 1 1 -157.26 0 78.632 352.35 0 1 1 157.26 0z" transform="matrix(-.00066754 -.073812 .073812 -.00066754 -85.3 506.9)" fill="url(#radialGradient12596)"/>
      </g>
      <g id="use11463" fill-rule="evenodd" transform="matrix(.23935 .13786 -.153 .21567 1360.5 320.87)">
        <path id="path10731" d="m23.888 766.01l-141.22-207.2-139.78 208.17 108.84-225.9-250.17-16.96 250.05-18.7-110.4-225.14 141.22 207.21 139.78-208.18-108.84 225.9 250.17 16.97-250.04 18.69 110.39 225.14z" style="color:#000000" fill="url(#radialGradient12590)" transform="matrix(.067658 0 0 .067658 -37.241 517.84)"/>
        <path id="path10733" opacity=".72692" style="color:#000000" d="m-555.4 541.06a78.632 352.35 0 1 1 -157.26 0 78.632 352.35 0 1 1 157.26 0z" transform="matrix(.065176 .034653 -.034653 .065176 15.133 539.27)" fill="url(#radialGradient12592)"/>
        <path id="path10735" opacity=".72692" style="color:#000000" d="m-555.4 541.06a78.632 352.35 0 1 1 -157.26 0 78.632 352.35 0 1 1 157.26 0z" transform="matrix(.064480 -.035931 .035931 .064480 -23.644 494.89)" fill="url(#radialGradient12594)"/>
        <path id="path10737" opacity=".72692" style="color:#000000" d="m-555.4 541.06a78.632 352.35 0 1 1 -157.26 0 78.632 352.35 0 1 1 157.26 0z" transform="matrix(-.00066754 -.073812 .073812 -.00066754 -85.3 506.9)" fill="url(#radialGradient12596)"/>
      </g>
      <g id="use11465" fill-rule="evenodd" transform="matrix(.23935 .13786 -.153 .21567 1431.8 265.32)">
        <path id="path10713" d="m23.888 766.01l-141.22-207.2-139.78 208.17 108.84-225.9-250.17-16.96 250.05-18.7-110.4-225.14 141.22 207.21 139.78-208.18-108.84 225.9 250.17 16.97-250.04 18.69 110.39 225.14z" style="color:#000000" fill="url(#radialGradient12590)" transform="matrix(.067658 0 0 .067658 -37.241 517.84)"/>
        <path id="path10715" opacity=".72692" style="color:#000000" d="m-555.4 541.06a78.632 352.35 0 1 1 -157.26 0 78.632 352.35 0 1 1 157.26 0z" transform="matrix(.065176 .034653 -.034653 .065176 15.133 539.27)" fill="url(#radialGradient12592)"/>
        <path id="path10717" opacity=".72692" style="color:#000000" d="m-555.4 541.06a78.632 352.35 0 1 1 -157.26 0 78.632 352.35 0 1 1 157.26 0z" transform="matrix(.064480 -.035931 .035931 .064480 -23.644 494.89)" fill="url(#radialGradient12594)"/>
        <path id="path10719" opacity=".72692" style="color:#000000" d="m-555.4 541.06a78.632 352.35 0 1 1 -157.26 0 78.632 352.35 0 1 1 157.26 0z" transform="matrix(-.00066754 -.073812 .073812 -.00066754 -85.3 506.9)" fill="url(#radialGradient12596)"/>
      </g>
      <g id="use11467" fill-rule="evenodd" transform="matrix(.23935 .13786 -.153 .21567 1282.9 262.52)">
        <path id="path10695" d="m23.888 766.01l-141.22-207.2-139.78 208.17 108.84-225.9-250.17-16.96 250.05-18.7-110.4-225.14 141.22 207.21 139.78-208.18-108.84 225.9 250.17 16.97-250.04 18.69 110.39 225.14z" style="color:#000000" fill="url(#radialGradient12590)" transform="matrix(.067658 0 0 .067658 -37.241 517.84)"/>
        <path id="path10697" opacity=".72692" style="color:#000000" d="m-555.4 541.06a78.632 352.35 0 1 1 -157.26 0 78.632 352.35 0 1 1 157.26 0z" transform="matrix(.065176 .034653 -.034653 .065176 15.133 539.27)" fill="url(#radialGradient12592)"/>
        <path id="path10699" opacity=".72692" style="color:#000000" d="m-555.4 541.06a78.632 352.35 0 1 1 -157.26 0 78.632 352.35 0 1 1 157.26 0z" transform="matrix(.064480 -.035931 .035931 .064480 -23.644 494.89)" fill="url(#radialGradient12594)"/>
        <path id="path10701" opacity=".72692" style="color:#000000" d="m-555.4 541.06a78.632 352.35 0 1 1 -157.26 0 78.632 352.35 0 1 1 157.26 0z" transform="matrix(-.00066754 -.073812 .073812 -.00066754 -85.3 506.9)" fill="url(#radialGradient12596)"/>
      </g>
      <g id="use11439" fill-rule="evenodd" transform="matrix(.23935 .13786 -.153 .21567 1050.2 420.38)">
        <path id="path10677" d="m23.888 766.01l-141.22-207.2-139.78 208.17 108.84-225.9-250.17-16.96 250.05-18.7-110.4-225.14 141.22 207.21 139.78-208.18-108.84 225.9 250.17 16.97-250.04 18.69 110.39 225.14z" style="color:#000000" fill="url(#radialGradient12590)" transform="matrix(.067658 0 0 .067658 -37.241 517.84)"/>
        <path id="path10679" opacity=".72692" style="color:#000000" d="m-555.4 541.06a78.632 352.35 0 1 1 -157.26 0 78.632 352.35 0 1 1 157.26 0z" transform="matrix(.065176 .034653 -.034653 .065176 15.133 539.27)" fill="url(#radialGradient12592)"/>
        <path id="path10681" opacity=".72692" style="color:#000000" d="m-555.4 541.06a78.632 352.35 0 1 1 -157.26 0 78.632 352.35 0 1 1 157.26 0z" transform="matrix(.064480 -.035931 .035931 .064480 -23.644 494.89)" fill="url(#radialGradient12594)"/>
        <path id="path10683" opacity=".72692" style="color:#000000" d="m-555.4 541.06a78.632 352.35 0 1 1 -157.26 0 78.632 352.35 0 1 1 157.26 0z" transform="matrix(-.00066754 -.073812 .073812 -.00066754 -85.3 506.9)" fill="url(#radialGradient12596)"/>
      </g>
      <path id="path10551" d="m330.01 1002.2a139.68 139.68 0 1 1 -279.36 0 139.68 139.68 0 1 1 279.36 0z" fill="url(#radialGradient12670)" transform="matrix(.932 0 0 .77273 1017.5 -320.58)" fill-rule="evenodd"/>
      <g id="use11473" fill-rule="evenodd" transform="matrix(.43858 0 0 .39518 1284.4 141.52)">
        <path id="path10493" d="m23.888 766.01l-141.22-207.2-139.78 208.17 108.84-225.9-250.17-16.96 250.05-18.7-110.4-225.14 141.22 207.21 139.78-208.18-108.84 225.9 250.17 16.97-250.04 18.69 110.39 225.14z" style="color:#000000" fill="url(#radialGradient12590)" transform="matrix(.067658 0 0 .067658 -37.241 517.84)"/>
        <path id="path10495" opacity=".72692" style="color:#000000" d="m-555.4 541.06a78.632 352.35 0 1 1 -157.26 0 78.632 352.35 0 1 1 157.26 0z" transform="matrix(.065176 .034653 -.034653 .065176 15.133 539.27)" fill="url(#radialGradient12592)"/>
        <path id="path10497" opacity=".72692" style="color:#000000" d="m-555.4 541.06a78.632 352.35 0 1 1 -157.26 0 78.632 352.35 0 1 1 157.26 0z" transform="matrix(.064480 -.035931 .035931 .064480 -23.644 494.89)" fill="url(#radialGradient12594)"/>
        <path id="path10499" opacity=".72692" style="color:#000000" d="m-555.4 541.06a78.632 352.35 0 1 1 -157.26 0 78.632 352.35 0 1 1 157.26 0z" transform="matrix(-.00066754 -.073812 .073812 -.00066754 -85.3 506.9)" fill="url(#radialGradient12596)"/>
      </g>
      <g id="use11475" fill-rule="evenodd" transform="matrix(.20033 0 0 .17671 1173.3 467.77)">
        <path id="path10511" d="m23.888 766.01l-141.22-207.2-139.78 208.17 108.84-225.9-250.17-16.96 250.05-18.7-110.4-225.14 141.22 207.21 139.78-208.18-108.84 225.9 250.17 16.97-250.04 18.69 110.39 225.14z" style="color:#000000" fill="url(#radialGradient12590)" transform="matrix(.067658 0 0 .067658 -37.241 517.84)"/>
        <path id="path10513" opacity=".72692" style="color:#000000" d="m-555.4 541.06a78.632 352.35 0 1 1 -157.26 0 78.632 352.35 0 1 1 157.26 0z" transform="matrix(.065176 .034653 -.034653 .065176 15.133 539.27)" fill="url(#radialGradient12592)"/>
        <path id="path10515" opacity=".72692" style="color:#000000" d="m-555.4 541.06a78.632 352.35 0 1 1 -157.26 0 78.632 352.35 0 1 1 157.26 0z" transform="matrix(.064480 -.035931 .035931 .064480 -23.644 494.89)" fill="url(#radialGradient12594)"/>
        <path id="path10517" opacity=".72692" style="color:#000000" d="m-555.4 541.06a78.632 352.35 0 1 1 -157.26 0 78.632 352.35 0 1 1 157.26 0z" transform="matrix(-.00066754 -.073812 .073812 -.00066754 -85.3 506.9)" fill="url(#radialGradient12596)"/>
      </g>
      <g id="use11477" fill-rule="evenodd" transform="matrix(.23935 .13786 -.153 .21567 1418.4 417.05)">
        <path id="path10659" d="m23.888 766.01l-141.22-207.2-139.78 208.17 108.84-225.9-250.17-16.96 250.05-18.7-110.4-225.14 141.22 207.21 139.78-208.18-108.84 225.9 250.17 16.97-250.04 18.69 110.39 225.14z" style="color:#000000" fill="url(#radialGradient12590)" transform="matrix(.067658 0 0 .067658 -37.241 517.84)"/>
        <path id="path10661" opacity=".72692" style="color:#000000" d="m-555.4 541.06a78.632 352.35 0 1 1 -157.26 0 78.632 352.35 0 1 1 157.26 0z" transform="matrix(.065176 .034653 -.034653 .065176 15.133 539.27)" fill="url(#radialGradient12592)"/>
        <path id="path10663" opacity=".72692" style="color:#000000" d="m-555.4 541.06a78.632 352.35 0 1 1 -157.26 0 78.632 352.35 0 1 1 157.26 0z" transform="matrix(.064480 -.035931 .035931 .064480 -23.644 494.89)" fill="url(#radialGradient12594)"/>
        <path id="path10665" opacity=".72692" style="color:#000000" d="m-555.4 541.06a78.632 352.35 0 1 1 -157.26 0 78.632 352.35 0 1 1 157.26 0z" transform="matrix(-.00066754 -.073812 .073812 -.00066754 -85.3 506.9)" fill="url(#radialGradient12596)"/>
      </g>
      <path id="path10350" d="m1266.6 612.96c0.6-1.7-0.8-3.39-2.4-2.11-1.2 0.52-1.8-1.21-2.9-0.54-0.3-0.53 2.5-1.05 0.3-1.05-0.8-0.03-3.6 0.17-1.7-0.51 0.3-0.6-1.3 0.04-1.5-0.9-0.8 0.25-0.4-1.12-0.4-1.5 0.4 1.24 3.1 0.44 1.1-0.18-1.1-0.89 1.5-1.57-0.3-1.23 1.2-0.21-1-0.94 0.4-0.93-1.9-1.76 3.3 0.69 1.7-0.87-1.1-0.46-3.2-1.87-1.1-1.94 0.1-0.56-1.7-2.41 0-1.35 1.7 0.45-1.2-1.15-0.2-1.7 1-0.43 2.4-0.06 1.3-1.33 0.1-0.8 1.6 0.8 1.5-0.03-0.3 0.15-1-1.57-1-1.39 1.3 0.45 2.4-0.24 1.4-0.75-0.6 0.43-1.5-1.5-0.2-1.05 0.4-0.85-1.5-0.85-0.5-1.53 0.5 0.67 2.7 1.89 2.5 0.95-1 0.15-2.3-1.42-0.5-0.9 1.8 0.57 0.1-1.98-0.8-0.68-1.3-0.02 2.6-1.29 0-1.03-1.2 0.3 0.8-1.57 1.1-0.63 1.7-0.17-1-2.5 0.9-1.26 2 0.68-2.4-2.65 0-1.61 1-0.16 0-1.42 1-1.75-0.5-0.71 2.3-1.67 0.8-0.5-1 1.5 2.3-0.78 0.8 0.5-1.6 1.67 0 1.42 1 1.03-0.8 0.79-0.9 0.99 0.1 0.92-0.7 0.44-0.7 1.44-1.7 1.39 0.6 0.4 2.8-0.68 1.2 0.49-1.6 1.6 0.8 0.4 1.6 0.16 0 0.97-3.1 2.9-1 1.8 0.8-1 1.4-0.85 1.1 0.36 0.1 0.77-2.3 1.07-0.6 1.44 0.9-0.1 2.8-1.84 1.9 0.12-0.7 0.8-0.5 1.27 0.2 1.31-1.1 0.17-1.7 0.14-1.5 0.82-0.4 2.18 2.5 0.12 2.9 0.22-0.2 0.95-2.3 2.35-1.6 2.72 1.2-0.26 3.5-2.27 2.1 0.03-0.4 0.37-2.7 1.66-1 1.58 1-0.64 2.2-1.34 1.7 0.27-0.3 0.23-1.4 0.81-1 1.53 0.9-0.31 2.5-2.56 2.2-0.36 0.3 1.55-2.1 1.45-1.8 2.44 0.8 0.03 2.4-2.19 1.6-0.26 0 0.95-1.1 1.55-1.4 1.6 0.7 0.53 2.7-0.67 1.4 0.83-0.8 0.7-3.7 1.11-1.1 0.99 1-0.06 2.5-0.2 0.9 0.71-1 1.47-3.5 1.86-4.4 2.36 1.5 0.33-1.4 0.13 0 0.44-0.7 0.11-1.9-0.67-1 0.36-1.1 0.15-1.2-1.14-1.8-0.13-1.9 0.12 0.9 4.49-1.4 3.24 0.1-0.2 0.2-0.4 0.1-0.61zm-2.2-2.76c-0.2-1.23-2.8 0.3-0.5 0.03l0.2-0.01 0.3-0.02zm-3.5-2.15c-0.7 0.12-0.1 0.84 0 0zm2-0.63c-0.7-1.19-3.5 0.18-1.2 0.12 0.4 0 0.8-0.05 1.2-0.12zm1.4 0.01c-0.4-0.47-0.4 0.57 0 0zm2-0.26c-0.3-0.24-0.3 0.42 0 0zm5.9-0.27c-0.4-0.65-0.4 0.65 0 0zm-11.4-0.18c-0.7-0.5-0.5 0.27 0 0zm11.5-0.21c-0.3-0.5-0.1 0.5 0 0zm-10.9-0.53c-0.4-0.67-0.5 0.45 0 0zm0.6-0.14c-0.3-0.29-0.2 0.47 0 0zm-2.2-0.14c1.1 0.22 1.4-0.63 0-0.27-0.2-0.1-0.9 0.59 0 0.27zm14.3-0.5c-0.9-0.49-1.2 0.73 0 0zm-13.7-0.54c-0.3-0.23-0.3 0.42 0 0zm0.7-1.84c-0.3-0.5-0.1 0.5 0 0zm0.2-0.65c-0.4-1.16-2.6-0.25-0.6 0.05l0.3 0.02 0.3-0.07zm14-0.68c-0.5-1.27-1.8 0.91 0 0zm-13.3-0.48c-0.6-0.34 0 0.37 0 0zm0.7-1.62c0.1-0.24-0.7-0.61-0.3-0.59-0.6 0.32-3-1.22-1.6 0.28 0.6 0.32 1.3 0.43 1.9 0.31zm8.1-1.58c-0.3-0.5-0.2 0.49 0 0zm-8.6-0.13c-0.2-0.52-0.7 0.52 0 0zm1.6-1.73c0-1.11-0.9 0.62 0 0zm0.7-0.25c-0.4-0.5-0.1 0.5 0 0zm5.6-0.79c-0.2-0.47-0.1 0.39 0 0zm-5.5-0.53c-0.2-0.41-0.3 0.47 0 0zm-0.8-0.16c-0.5-0.53-0.3 0.64 0 0zm-0.5-0.24c-0.5-0.69-0.6 0.83 0 0zm6.3-0.85c0.8-0.72-1.7 0.65 0 0zm-1.7-1.46c-0.6-0.43-0.3 0.51 0 0zm-1.8-1.94c-0.9-0.69-0.8 0.68 0 0zm-5.6 20.52c0.5-0.24 0.3 0.29 0 0zm2.5-21.26c-0.5-0.97 0.8 0.55 0 0zm2.1-3.98c0.8-0.64 0.9 0.29 0 0zm1.2-1c0.1-0.24 0.5-0.82 0.8-0.14-0.1 0.32-0.6 0.42-0.8 0.14zm0-0.92c-0.1-1.3 1.5 1.27 0 0zm0.1-0.87c-0.5-0.9 0.8 0.32 0 0zm0.1-1.06c-0.2-1.36 0.5 0.56 0 0z"/>
      <path id="path10352" d="m1290.1 596.13c-1.1-3.15 2.2-3.63 4.2-2.65 1.2-1.26 4.1-0.56 1.1-1.78 0.4-0.89 6 0.46 3.2-1.37 2.2 1.23 4.2-4.29 1-1.84-2.4-0.03 2.3-2.02-0.5-2.71 1.7 0.38 0.1-0.35 1.1-0.93-0.9-0.79 0.7-1.39-1.4-0.82-3.1 0.85-1.2-0.79 0.3-1.44 2.8-1.47-2.3-1.35 0.7-3 0.7-1.74-3.1 1.15-1.2-1.08 2.5-1.92-3.6-1.17-1.1-3.22-1.5-0.3-2.6 1.2-1.4-0.79 2.6-1.72-3.4 0.05-1.2-1.8 1.6 0.27 1-1.85 0.3-1.91 1.6-0.72 1.1-2.22-0.4-0.51-1.5 1.25-3.2 0.43-0.7-0.13 1.7-1.99-4 0.86-1.2-1.99 1.5 0.86 2.9 0.06 0.4-0.47-0.4-0.95 2.9 0.04 0.6-1.42-1.8 0.57-1.8-0.9-1.4-1.85-3.2 1.78 0.4-1.32 0-1.94-2.4 1.01-1-3.35-3.4-3.23-0.5-0.25 1.9 2.35-0.4 1.06-2.4-1.78 2.9 3.73-0.6 1.7-2.2-1.3 1.4 2.06-1 1.05 0.8 1.37 3.2 2.33 0.1 1.65-1.2-0.66 2.8 2.88 0.1 1.56-3.5-2.04 0.8 2.39 0.4 2.11-1.3-1.16-3.2-2.16-2 0.47 3 1.58-0.7 1.42-1.9 0.33-1 0.56 2.2 3.41-0.4 2.76 1.8-0.06 2.9 1.22 1.7 2.34-2 0.17-4.8-2.1-2.3 0.68 1.1 1.07 2.2 2.71-0.1 1.5-1.1-1.35-3.4-1.21-1.4 0.51 1.6 0.56 2.8 3.14 0.2 1.54-2.9-1.64 0 1.79 0.1 2.55-0.9 0.66-3.4-3.36-2.8-0.33-1.2 1.26 4.7 3.78 1.2 2.62-2.3-2.43-1 2.39 0.7 2.19-1 0.81-3.6-0.81-1.5 1.33 1.4 0.76 4 1.25 1 1.09-4.4-0.66 1.6 3.23 3.2 3.42 0.9 0.28 2.6 0.2 0.9 0.8 1.2 0.14 1 0.26 2.3 0.23-1.3 1.64 1.8-1.23 2.2 0.43 1.4 0.64-0.8 6.11 1.3 3.75v-0.46zm2.8-3.54c0.3-1.61 3.5 0.52 0.6 0.04l-0.6-0.04zm4.5-2.75c0.8 0.1 0.3 1.09 0 0zm-2.5-0.81c1.1-1.6 4.3 0.42 1 0.13l-0.5-0.02-0.5-0.11zm-1.8 0.01c0.4-0.63 0.6 0.75 0 0zm-2.6-0.33c0.4-0.37 0.4 0.63 0 0zm-7.6-0.34c0.6-0.89 0.7 0.89 0 0zm14.7-0.24c0.6-0.68 0.6 0.37 0 0zm-14.8-0.27c0.4-0.64 0.2 0.63 0 0zm14-0.68c0.7-0.95 0.6 0.63 0 0zm-0.8-0.17c0.4-0.42 0.2 0.66 0 0zm2.9-0.19c-2.7 0.1-0.2-1.05 0.5 0.05l-0.5-0.05zm-18.4-0.64c1.4-0.59 1.3 0.89 0 0zm17.5-0.68c0.5-0.37 0.4 0.63 0 0zm-0.9-2.37c0.4-0.64 0.2 0.63 0 0zm-0.2-0.82c1.2-1.91 3.6 0.24 0 0zm-17.9-0.88c0.8-1.69 2 1.32 0 0zm16.9-0.61c0.9-0.46 0.1 0.48 0 0zm-0.8-2.07c0.2-1.1 1.3-0.58 3-1.29-0.1 1.26-2 1.46-3 1.29zm-10.4-2.03c0.4-0.69 0.4 0.71 0 0zm11.1-0.17c0.2-0.77 0.8 0.75 0 0zm-2.1-2.21c0-1.42 1.2 0.83 0 0zm-0.9-0.32c0.4-0.64 0.2 0.63 0 0zm-7.2-1.01c0.3-0.69 0.2 0.55 0 0zm7.1-0.68c0.2-0.62 0.5 0.76 0 0zm1-0.21c0.6-0.74 0.4 0.91 0 0zm0.7-0.3c0.6-0.83 0.6 1.02 0 0zm-8.1-1.1c-1-0.95 2.1 0.9 0 0zm2.2-1.86c0.8-0.55 0.3 0.68 0 0zm2.3-2.49c1.2-0.86 0.8 0.81 0 0zm7.1 26.28c-0.6-0.32-0.3 0.41 0 0zm-3.2-27.22c0.6-1.33-0.9 0.77 0 0zm-2.7-5.1c-0.4-0.76-1.8 0.34 0 0zm-1.6-1.28c-0.7-1.72-1.6 1.09 0 0zm0.1-1.18c-0.3-1.37-1.4 1.56 0 0zm-0.1-1.11c0.6-1.13-1.1 0.37 0 0zm-0.1-1.36c0.3-1.7-0.6 0.69 0 0z"/>
      <path id="path10354" d="m1213.5 622.79c-0.4-1.05 0.2-2.46 1.4-1.74 0.8 0.78 1.5-0.39 2-0.32 0.6 0.43 0.8-0.4 0-0.32-1.1-0.6 1.2-0.35 1.6-0.39 0.6-0.05 0.8-0.13 0.1-0.28-0.7-0.64 0.6 0.02 0.8-0.64 0.3-0.37 0.8-0.03 0.5-0.49 0.1-0.4 0.3-1.2-0.3-0.49-0.4 0.64-1.8-0.15-0.6-0.36 0.9-0.28-0.3-1.19-0.1-1 0.8 0.14 0.1-0.1 0.2-0.3 0.6-0.26 0-0.37 0-0.5 0.8-1.03-1.2 0.27-1.7-0.19 0.4-0.66 1.7-0.76 2-1.69-0.8 0.38-1.1-0.56-0.4-0.84 0.6-1.06-0.4-0.17-0.9-0.17 0.2-0.65 1.2-0.97 0.4-1.51-0.5-0.11-1.6-0.03-0.8-0.73 0.2-0.91-1.2 0.48-1.1-0.17 0.4 0.12 0.2-1.01 0.9-1.03-0.5-0.08-1.7 0.44-1.5-0.41 0.4 0.41 0-0.57 0.5-0.05 0.5-0.28 0.8-1.1-0.1-0.9-0.3-0.56 0.5-0.52 0.5-0.58 0.5-1.33-0.8 0.22-1.3 0.33-0.6 0.32-1.2-0.27-0.3-0.3 0.7 0.07 1.1-0.95 0.2-0.59-0.9 0.49-1-0.47-0.3-0.71 0.3 0.1 1.6 0.48 0.7-0.05-0.5-0.09-1.1-0.63-0.2-0.49 0.4 0.07 0.9-0.12 0.3-0.18-0.2-1.1-1.5 0.27-1.3-0.85 0.1-0.38 0.6-0.94 0-0.49-0.5 0.4-1.2 0.02-0.3-0.3 0.3-0.19 0.9-1.49 0.1-0.83-0.9 0.15 0-1.02-0.8-1.16-0.2-0.46 0.1-0.52-0.4-0.66-0.2-0.4-1-0.39-0.3-0.02 0.5 0.34 0.2 0.95-0.3 0.41-1.5-0.64 0.9 0.79 0.1 1.3-0.3-0.19-1.6-0.85-0.7-0.03 0.9 0.66-1.2-0.04-0.2 0.59 0.4 0.37 0.4 0.81 1 0.78-0.2 0.41-2-0.61-1 0.28 0.6 0.18 0.8 1.24 0 0.61-0.4-0.3-1.5-0.72-0.8 0.12 0.1 0.54 1.3 0.91 1.1 1.19-0.5 0.04-1.6-1.67-1.5-0.44-0.2 0.78 1.7 1.26 0.5 1.42-0.6 0.08-1.8-1.3-1.5-0.2 0 0.52 1.1 1.4 0.1 1.19-0.5 0.23 1.6 0.06 0.8 0.61 1 0.96-1.3 1.16-1.6 0.32-1.1-0.57 0.3 1.01 0.6 1.34 0.5 0.35 0.6 0.87-0.1 0.56-0.5-0.12-1.6-1.15-1.6-0.65 0.1 0.86 0.8 1.14 1.4 1.52 0.5 1.05-1 0.08-1.4-0.18-0.5-0.17-0.1 0.66-0.1 0.84 0.3-0.14 0.1 0.59 0.6 0.51 0.4 1.11-0.9 0.14-1.2-0.35-0.7-0.43-0.3 0.84-0.4 1.21 0.1 0.36 0.7 0.24 0.6 0.57 0.4-0.02 0.8 0.44 0.9 0.75-0.7 0.18-1.2-1.08-1.6-0.74 0.2 0.76 0.8 1.72 1.3 1.72-0.4 0.5-2-0.55-1.1 0.52 0.3 0.58 1.7 0.62 1.7 0.86-0.6 0.07-1.9-0.18-2.1 0.08 0.8 0.56 1.5 1.2 2.2 1.7 0.5 0.13 1.7 0.21 1.7 0.51-1.1 0.28 1 0.07 0 0.33 0.5 0.1 1.5-0.48 0.7 0.25 0.7 0.36 1-0.92 1.2-0.15 1.5 0.23 0.1 1.83 0.6 2.67 0.5 0.26 0.7-0.1 0.6-0.62zm1.6-2.07c-0.1-0.87 2 0.08 0.6 0.02-0.2 0.01-0.4 0-0.6-0.02zm2.6-1.61c0.6 0.09 0.1 0.63 0 0zm-1.4-0.47c0.3-0.79 2.5-0.08 1 0.08-0.3 0.02-0.7-0.02-1-0.08zm-1.1 0c0.3-0.36 0.3 0.43 0 0zm-1.5-0.2c0.2-0.16 0.2 0.31 0 0zm-4.5-0.19c0.4-0.49 0.4 0.48 0 0zm8.6-0.14c0.5-0.41 0.4 0.24 0 0zm-8.6-0.16c0.3-0.36 0.1 0.37 0 0zm8.2-0.4c0.3-0.5 0.3 0.34 0 0zm-0.5-0.1c0.3-0.23 0.1 0.37 0 0zm1.7-0.11c-0.5 0.23-1.3-0.38-0.4-0.21 0.3-0.15 1.1 0.35 0.4 0.21zm-10.8-0.37c0.7-0.37 0.9 0.54 0 0zm10.3-0.4c0.2-0.16 0.2 0.3 0 0zm-0.5-1.39c0.2-0.36 0 0.37 0 0zm-0.2-0.48c0.1-0.77 2-0.34 0.7-0.02-0.2 0.07-0.5 0.11-0.7 0.02zm-10.5-0.51c0.2-0.85 1.3 0.42 0.3 0.09-0.1-0.03-0.2 0-0.3-0.09zm10-0.36c0.4-0.22 0.1 0.24 0 0zm-0.5-1.22c-0.4-0.33 0.7-0.13 0.1-0.55 0.4 0.69 2-0.86 1.5 0.16-0.4 0.35-1 0.51-1.6 0.39zm-6.1-1.19c0.2-0.37 0.2 0.38 0 0zm6.5-0.09c0.1-0.37 0.4 0.38 0 0zm-1.2-1.3c0-0.91 0.7 0.51 0 0zm-0.5-0.19c0.2-0.36 0 0.37 0 0zm-4.3-0.59c0.2-0.37 0.1 0.3 0 0zm4.2-0.4c0.1-0.31 0.2 0.37 0 0zm0.6-0.12c0.3-0.39 0.2 0.48 0 0zm0.4-0.18c0.3-0.54 0.5 0.65 0 0zm-4.8-0.64c-0.5-0.48 1.2 0.42 0.1 0.04v-0.02l-0.1-0.02zm1.3-1.09c0.4-0.3 0.2 0.37 0 0zm1.4-1.46c0.6-0.45 0.6 0.46 0 0zm4.1 15.4c-0.4-0.14-0.1 0.18 0 0zm-1.8-15.95c0.3-0.74-0.6 0.42 0 0zm-1.6-2.99c-0.5-0.43-0.8 0.15 0 0zm-0.9-0.74c-0.3-0.17 0.1-0.27-0.3-0.35-0.6-0.02 0 0.78 0.3 0.35zm0-0.7c0.3-0.37-0.7-0.3-0.3 0.03-0.6 0.19 0.2 0.32 0.3-0.03zm-0.1-0.64c0.4-0.65-0.6 0.21 0 0zm0-0.81c0-0.85-0.4 0.33 0 0z"/>
      <g id="use10460" fill-rule="evenodd" transform="matrix(.23935 .13786 -.153 .21567 981.51 376.02)">
        <path id="path10641" d="m23.888 766.01l-141.22-207.2-139.78 208.17 108.84-225.9-250.17-16.96 250.05-18.7-110.4-225.14 141.22 207.21 139.78-208.18-108.84 225.9 250.17 16.97-250.04 18.69 110.39 225.14z" style="color:#000000" fill="url(#radialGradient12590)" transform="matrix(.067658 0 0 .067658 -37.241 517.84)"/>
        <path id="path10643" opacity=".72692" style="color:#000000" d="m-555.4 541.06a78.632 352.35 0 1 1 -157.26 0 78.632 352.35 0 1 1 157.26 0z" transform="matrix(.065176 .034653 -.034653 .065176 15.133 539.27)" fill="url(#radialGradient12592)"/>
        <path id="path10645" opacity=".72692" style="color:#000000" d="m-555.4 541.06a78.632 352.35 0 1 1 -157.26 0 78.632 352.35 0 1 1 157.26 0z" transform="matrix(.064480 -.035931 .035931 .064480 -23.644 494.89)" fill="url(#radialGradient12594)"/>
        <path id="path10647" opacity=".72692" style="color:#000000" d="m-555.4 541.06a78.632 352.35 0 1 1 -157.26 0 78.632 352.35 0 1 1 157.26 0z" transform="matrix(-.00066754 -.073812 .073812 -.00066754 -85.3 506.9)" fill="url(#radialGradient12596)"/>
      </g>
      <g id="use10527" fill-rule="evenodd" transform="matrix(.16488 .095992 -.10540 .15016 991.27 354.94)">
        <path id="path10623" d="m23.888 766.01l-141.22-207.2-139.78 208.17 108.84-225.9-250.17-16.96 250.05-18.7-110.4-225.14 141.22 207.21 139.78-208.18-108.84 225.9 250.17 16.97-250.04 18.69 110.39 225.14z" style="color:#000000" fill="url(#radialGradient12590)" transform="matrix(.067658 0 0 .067658 -37.241 517.84)"/>
        <path id="path10625" opacity=".72692" style="color:#000000" d="m-555.4 541.06a78.632 352.35 0 1 1 -157.26 0 78.632 352.35 0 1 1 157.26 0z" transform="matrix(.065176 .034653 -.034653 .065176 15.133 539.27)" fill="url(#radialGradient12592)"/>
        <path id="path10627" opacity=".72692" style="color:#000000" d="m-555.4 541.06a78.632 352.35 0 1 1 -157.26 0 78.632 352.35 0 1 1 157.26 0z" transform="matrix(.064480 -.035931 .035931 .064480 -23.644 494.89)" fill="url(#radialGradient12594)"/>
        <path id="path10629" opacity=".72692" style="color:#000000" d="m-555.4 541.06a78.632 352.35 0 1 1 -157.26 0 78.632 352.35 0 1 1 157.26 0z" transform="matrix(-.00066754 -.073812 .073812 -.00066754 -85.3 506.9)" fill="url(#radialGradient12596)"/>
      </g>
      <g id="use10529" fill-rule="evenodd" transform="matrix(.090728 .052258 -.057997 .081750 1016.9 312.72)">
        <path id="path10605" d="m23.888 766.01l-141.22-207.2-139.78 208.17 108.84-225.9-250.17-16.96 250.05-18.7-110.4-225.14 141.22 207.21 139.78-208.18-108.84 225.9 250.17 16.97-250.04 18.69 110.39 225.14z" style="color:#000000" fill="url(#radialGradient12590)" transform="matrix(.067658 0 0 .067658 -37.241 517.84)"/>
        <path id="path10607" opacity=".72692" style="color:#000000" d="m-555.4 541.06a78.632 352.35 0 1 1 -157.26 0 78.632 352.35 0 1 1 157.26 0z" transform="matrix(.065176 .034653 -.034653 .065176 15.133 539.27)" fill="url(#radialGradient12592)"/>
        <path id="path10609" opacity=".72692" style="color:#000000" d="m-555.4 541.06a78.632 352.35 0 1 1 -157.26 0 78.632 352.35 0 1 1 157.26 0z" transform="matrix(.064480 -.035931 .035931 .064480 -23.644 494.89)" fill="url(#radialGradient12594)"/>
        <path id="path10611" opacity=".72692" style="color:#000000" d="m-555.4 541.06a78.632 352.35 0 1 1 -157.26 0 78.632 352.35 0 1 1 157.26 0z" transform="matrix(-.00066754 -.073812 .073812 -.00066754 -85.3 506.9)" fill="url(#radialGradient12596)"/>
      </g>
      <g id="use10531" fill-rule="evenodd" transform="matrix(.23935 .19686 -.153 .30796 988.62 213.15)">
        <path id="path10587" d="m23.888 766.01l-141.22-207.2-139.78 208.17 108.84-225.9-250.17-16.96 250.05-18.7-110.4-225.14 141.22 207.21 139.78-208.18-108.84 225.9 250.17 16.97-250.04 18.69 110.39 225.14z" style="color:#000000" fill="url(#radialGradient12590)" transform="matrix(.067658 0 0 .067658 -37.241 517.84)"/>
        <path id="path10589" opacity=".72692" style="color:#000000" d="m-555.4 541.06a78.632 352.35 0 1 1 -157.26 0 78.632 352.35 0 1 1 157.26 0z" transform="matrix(.065176 .034653 -.034653 .065176 15.133 539.27)" fill="url(#radialGradient12592)"/>
        <path id="path10591" opacity=".72692" style="color:#000000" d="m-555.4 541.06a78.632 352.35 0 1 1 -157.26 0 78.632 352.35 0 1 1 157.26 0z" transform="matrix(.064480 -.035931 .035931 .064480 -23.644 494.89)" fill="url(#radialGradient12594)"/>
        <path id="path10593" opacity=".72692" style="color:#000000" d="m-555.4 541.06a78.632 352.35 0 1 1 -157.26 0 78.632 352.35 0 1 1 157.26 0z" transform="matrix(-.00066754 -.073812 .073812 -.00066754 -85.3 506.9)" fill="url(#radialGradient12596)"/>
      </g>
      <g id="g10533" fill-rule="evenodd" fill="url(#radialGradient12730)" transform="matrix(.43858 0 0 .39518 963.64 189.16)">
        <path id="path10535" d="m23.888 766.01l-141.22-207.2-139.78 208.17 108.84-225.9-250.17-16.96 250.05-18.7-110.4-225.14 141.22 207.21 139.78-208.18-108.84 225.9 250.17 16.97-250.04 18.69 110.39 225.14z" style="color:#000000" transform="matrix(.067658 0 0 .067658 -37.241 517.84)"/>
        <path id="path10537" opacity=".72692" d="m-555.4 541.06a78.632 352.35 0 1 1 -157.26 0 78.632 352.35 0 1 1 157.26 0z" style="color:#000000" transform="matrix(.065176 .034653 -.034653 .065176 15.133 539.27)"/>
        <path id="path10539" opacity=".72692" d="m-555.4 541.06a78.632 352.35 0 1 1 -157.26 0 78.632 352.35 0 1 1 157.26 0z" style="color:#000000" transform="matrix(.064480 -.035931 .035931 .064480 -23.644 494.89)"/>
        <path id="path10541" opacity=".72692" d="m-555.4 541.06a78.632 352.35 0 1 1 -157.26 0 78.632 352.35 0 1 1 157.26 0z" style="color:#000000" transform="matrix(-.00066754 -.073812 .073812 -.00066754 -85.3 506.9)"/>
      </g>
      <path id="path2999" d="m-482.08-122.68a121.2 121.2 0 1 1 -242.4 0 121.2 121.2 0 1 1 242.4 0z" fill="url(#radialGradient12738)" transform="matrix(.34617 0 0 .32616 1400.9 488.73)" fill-rule="evenodd"/>
      <path id="path3530" style="color:#000000" d="m476.74 140a7.5374 7.5374 0 1 1 -15.08 0 7.5374 7.5374 0 1 1 15.08 0z" fill-rule="evenodd" transform="matrix(1.078 0 0 1.078 668.06 314.08)" fill="url(#radialGradient3506)"/>
      <path id="path3534" style="color:#000000" d="m476.74 140a7.5374 7.5374 0 1 1 -15.08 0 7.5374 7.5374 0 1 1 15.08 0z" fill-rule="evenodd" transform="matrix(1.078 0 0 1.078 713 303.04)" fill="url(#radialGradient3506)"/>
      <path id="path7726" fill-opacity=".49057" d="m909.57 620.55c-2.1 4.12-4.62 4.78-7.37 3.2-4.35-2.43-9.74-0.38-14.84-1.23-2.41 1.17-7.19 0.6-6.57 1.66 6.78 0.71-4.59-0.12-6.34 0.54-0.74 0.97-4.68-0.04-4.07 0.79 3.45 0.47-3.66 0.94 1.49 0.81 1.95 1.57 6.25-0.96 9.53 1.18-3.28-0.02-7.98-0.69-11.09 0.69-0.37 0.04-7.5 0.34-1.94 0.62-5.17 1.35 8.4 0 6.87 0.93-3.09 0.14-7.3 0.58-6.93 1.2-3.46-0.36-3.54 0.74 0 0.54 2.77 1.5-6.08-0.44-6.15 2.01-2.45 0.07-6.75 0.86-1.79 0.61 2.91-0.4-2.42 1.13 2.22 0.42 2.43 0.52 7.15-0.55 11.01 0.53-1.7 1.27-8.79 0.79-12.78 2.03 5.83-0.12-7.57 1.07-0.59 0.7 5.06 0.08 8.09-0.48 14.16 0.36 1.36 0.78-6.51 0.75-8.68 1.17-3.07 0.47-9.44-0.04-9.08 1.27-4.46 1.1 7.68 0.61 9.96 0.88 4.02 0.28 1.01 0.05-1.02 0.83 2.66-0.4 8.68 1.69 2.58 0.68-3.65 0.03-11.9-0.74-12.83 1.75 2.06 0.7 9.6-0.01 7.16 1.82 1.81 0.4-5.47-1.01-7.01 0.38-3.5 1.26 7.23 0.97 0.88 1.43-6.98 1.89 9.48 2.16 1.25 2.5-6.08 1.1-1.03 3.7 1.82 3.41-3.58-1.85-7.31 2.2-1.95 2.49 4.81 2.14-6.5-0.89-1.58 1.94 3.2 0.37-4.08-0.08-1.06 2.93 3.41-1.75 3.45 2.65 7.07 1.82 1.06-1.74 2.47-0.7 2.37-1.96 6.12-0.44-5.06-1.42 1.18-1.42 3.03-0.34-2.97-1.53 1.78-1.1 1.72-0.07 11.95-1.7 5.4-1.54-3.78-0.69-6.58-0.06-10.47 0.1-3.98 0.97 5.35-1.43 7.12-1.38 4.43 0.63 11.22-0.03 14.16-0.66-1.02-0.25-3.29 0.06-0.91-0.38-3.06-0.21 0.98-0.98-2.91-0.42-4.41 0.84 3.4-1.11-1.35-0.28-1.8-0.45-6.25 0.12-6.78-0.34 3.78-1.24 8.29-0.38 11.65-0.71 2.52 0.57 8.34-0.2 3.36-1-4.07 0.85 1.63-1.05-2.07-0.59-1.5-1.53-9.06 0.25-9.87-0.48 5.42-1.21 10.9-0.95 16.32-1.22 1.46 0.07 8.33-0.26 3.93-1.35 1.45-1.66-5.48-0.78-8.35-1.22-4.99 0.09 6.01-1.54 8.28-0.61 2.74 0.55 2.02-0.68 2.86-0.43 3.62 0.41 9.32-0.78 4.2-1.71-2.87-0.4-4.22 0.27-0.52-0.75-1.97-0.35-7.68-0.16-2.91-0.78 2.61-0.01 11.85 0.13 7.48-0.64 4.75-0.95-4.17-0.29 1.53-1.08 1.52 0.1 9.68 0.82 6.38-1.31-1.93 0.6 0.95-0.97-2.29-0.29-2.6 0.37-5.3-0.23-1.27-0.48 3.79-0.67 9.72 0.44 12.15-0.72-4.03-0.8-1.07-0.65-0.95-1.01-4.37 0.25 0.33-0.47-0.99-0.51-2.01 0.7-6.88-0.4-1.97-0.48 4.28-0.24 8.55-0.58 12.79-0.58-3.26-0.02-1.76-0.91 0.36-1.16-2.76-0.81-6.03-0.27-6.48-1.26-4.84-0.05-7.43 0.2-13.02 0.06 5.24-0.81 10.6-1.55 15.91-1.03 2.47-1.21 6.61 0.12 7.02-0.9 7.42-0.57-7.2-0.19-0.25-0.6 4.64-1.05-9.59 0.39-3.69-1.59-1.91 0.44-8.64 0.48-7.97-0.2-2.51 0.66-7.82 0.79-2.26 0.13 4.66-1.68 14.18-0.57 16.18-1.26 2.35 0.54 6.87 0.04 1.96-0.3-2.5-0.67 7.57-0.37 1.45-0.78 3.37-0.4 2.5-0.43-0.37-0.5 3.01-0.38-2.9-0.37 1.07-0.62 2.56-0.44-4.63 0.03-0.66-0.6-2.84 0.02-1.52-0.38-3.39-0.46 2.67-0.73 9.14-0.25 9.75-0.98-1.36 0.01-2.76-0.15-0.49-0.51-1.57 0.02-6.48 0.95-3-0.05-2.5-0.24 2.89-0.98-0.71-0.43-1.9-0.67-8.95 1.53-5.71-0.42-3.1-0.35-7.65 0.96-8.25 0.44-1.86-0.68-8.47-0.83-12.65 0.16-7.46 1.99 7-3.58-0.22-2.82-2.08 0.04-4.16 0.08-6.24 0.12zm-26.79 6.41c0.72 0.42-1.38-0.03 0 0zm-8.66 4.4c1.88 0.18 6.1 0.49 1.58 0.52-2.54 0.16-7.53-0.07-2.27-0.45l0.69-0.07zm4.56 0.53c1.66-0.16 0.49 0.42 0 0zm-14.94 1.13c1.4 0.39-1.42 0.05 0 0zm54.99 4.75c-1.13 0.43-2.28 0.09 0 0zm-5.44 3.09c1.13 0.13-1.9 0.08 0 0zm-8.55 0.58c2.18 0.29-3.64 0.01 0 0zm-39.57 4.75c3.57 0.33 0.74 0.72 0 0zm29.5 1.66c-0.19 0.68-1.31-0.22 0 0zm-33.9 6.32c0.93 0.41-1.22 0.1 0 0zm6.1 0.06c-0.76 0.95-0.63 0.06 0 0zm-4.83 0.19c1.42 0.05-0.9 0.43 0 0zm1.18 0.31c0.72 0.43-1.4-0.03 0 0zm2.02 0.62c-2 2.3-2.42 0.36 0 0zm3.77 2.83c1.29 0.4-1.75 0.15 0 0zm-5.27 0.24c2.56 0.21-2.22 0.68 0 0zm-2.37 0.28c2.99 0.32-5.41 0.53 0 0zm-3.22 1.02c5.77 1.14-1.11 0.91 0 0zm-3.36 3.13c-0.8 2.35 5.18-0.38 0.53 0.07l-0.53-0.07zm1.84 1.22c-3.26-1.23-0.84 2.75-1.91 0.91-0.7-0.77 4.74-0.47 1.91-0.91z"/>
      <path id="path8700" fill-opacity=".57736" d="m1290.3 597.6c2.2-0.19 3.9 1.93 0.6 1.63-2.1 0.63-2.1 1.86 0 1.28-1.1 0.51-3.8 1.54-1 1.13-2.6 2.12 2.5 0.51 2.5 1.26 1.7 1.15 3.5 0.66 6 0.48 0.5 2.47 6.2 1.71 8.5 2.15 3-0.56 6.3 1 8.4 1.01 1.6-2.28 0.7 1.03 3.6-0.23-3.9 1.34 2.9-0.09 0.1 1.11 4.4-1.08 8.7 1.43 13 0.68-3.4-0.09 1.8-0.78-1.6-0.63-4.7 0.04 3-0.96-1.2-0.74 2.1-0.68-5.6-0.02-1.4-0.84-2.5 0.08-3.8-0.31-0.4-0.59-1.5-0.4-6.4-0.14-1.8-0.43 2-0.34-6.2-0.6-1.7-1.01 3.3-0.03-2.6-1.07-2-0.8-2.7 0.71-3.9-1.29-0.6-1 1.6-0.45-7.9-0.37-2.3-0.83 5-0.79-7.5-0.22-1.7-0.91 2.5-0.6-7-0.77-1.1-0.85 4.7-0.96-8.2-0.67-2.9-1.01 3.1-0.48-6.2-0.24-1.9-1.08-1.9-0.59-7.4 1.03-2.7-0.72-4.6-0.16-9.3 0.58-13.8 1.45-0.8 0.29-9.3-2.17-4.6-0.51zm1.7 1.83c0.8 1.07-2.8 0.23 0 0zm-0.6 2.05c-1.1 0.41-0.7-0.43 0 0zm2.9-0.46c-1 1.68-3.3 0.23 0 0zm1.5-0.51c-0.3 0.56-0.9-0.62 0 0zm2.4-0.63c-0.3 0.42-0.8-0.45 0 0zm6.5-2.03c-0.2 0.6-0.7-0.53 0 0zm-11.5 4.18c-0.2 0.65-0.7-0.29 0 0zm12.2-4.06c-0.2 0.45-0.5-0.54 0 0zm-10.5 4.11c0 0.61-1-0.47 0 0zm0.8-0.17c-0.3 0.44-0.6-0.53 0 0zm-2.1 0.87c2.6-0.9-0.7 0.62 0 0zm15.5-4.96c-1.2 0.8-1.2-0.25 0 0zm-13.4 5.11c-0.2 0.41-0.8-0.46 0 0zm3.4 0.43c-0.2 0.45-0.5-0.54 0 0zm1.1 0.18c0.2 1.54-2.2-0.13 0 0zm15.4-4.77c-0.3 1.23-1.4-0.58 0 0zm-13 4.93c-0.3 0.56-0.3-0.23 0 0zm3 0.37c0.9 1.55-3.4 0.85 0 0zm10.6-2.32c0.1 0.52-1.1-0.59 0 0zm-8.7 3.16c1.1 0.25-2.5-0.09 0 0zm4.1 0.06c1.1 0.41-1.5-0.03 0 0zm1.1-0.15c-0.2 0.44-0.5-0.54 0 0zm6.9-1.74c0.1 0.47-0.7-0.54 0 0zm-4.9 2.18c0.2 0.42-1.5-0.46 0 0zm-0.6 0.35c-0.3 0.56-0.7-0.62 0 0zm-0.2 0.28c-0.3 0.69-1.1-0.54 0 0zm7.7-1.94c1.8 0.04-2.9 0.34 0 0zm0.3 1.15c-0.3 0.57-0.5-0.49 0 0zm0.9 1.37c-0.3 0.81-1.3-0.33 0 0zm-34.9-5.67c0.7 0.31 0.2-0.41 0 0zm32.8 7.05c0.9 1.26 0.4-0.73 0 0zm7.9 0.74c0.5 0.2 1.3-0.6 0 0zm2.6-0.07c1.7 0.67 0.8-0.75 0 0zm1.3 0.36c1.5 0.93 0.4-1.06 0 0zm1.3 0.29c0.7 0.92 0.6-0.69 0 0zm1.6 0.37c0.7 0.49 0.7-0.3 0 0z"/>
      <path id="path9671" fill-opacity=".57736" d="m1267.3 614.27c1.6-0.03 2.6 1.54 0.3 1.16-2.4 0.72-0.1 0.83-0.3 1.03-0.9 0.18-2.2 0.79-0.5 0.6-1.9 1.35 1.7 0.49 1.7 1.01 1 0.97 2.7 0.35 4.1 0.77 0.2 1.29 3.2 1.16 4.5 1.79 2.5-0.11 4.8 0.09 6.6 1.26 1.1-0.16 1.4-1.37 1.5-0.04 1.5-0.83 1.9 0.55 0.3 0.31 1.3-0.18 1.8 0.24 1.8 0.35 2.9-0.3 5.9 1.57 8.5 1.14-1.4-0.08-0.7-0.3-0.1-0.38-1.7 0.03-3.1-0.52-0.6-0.54-1.7 0.03-0.7-0.35-1.2-0.37-2.2 0.03-1.6-0.38-1.3-0.45-2.1-0.16-1.5-0.31 0.2-0.44-1.2-0.26-4.4-0.41-1.3-0.35 1.4-0.13-4.2-0.73-1.1-0.79 2.3 0.14-1.8-0.87-1.4-0.66-1.8 0.36-2.6-1.1-0.3-0.73 1.2-0.23-5.5-0.65-1.5-0.69 3.4-0.31-5.1-0.52-1.3-0.72 2.4-0.16-4.8-0.91-0.6-0.66 3.4-0.44-6.3-0.91-1.7-0.85 1.1-0.14-4.4-0.6-1.5-0.82-1.3-0.51-5 0.3-2-0.67-3-0.08-6.4-0.48-9.2 0.52-0.2 0.23-5.5-2.02-3.6-0.78zm1.1 1.36c0.5 0.79-1.9 0.01 0 0zm-0.5 1.4c-0.8 0.23-0.5-0.34 0 0zm2.1-0.18c-0.9 1.12-2.4 0 0 0zm1-0.28c-0.2 0.38-0.6-0.47 0 0zm1.7-0.31c-0.2 0.28-0.6-0.37 0 0zm4.7-1.09c-0.2 0.41-0.5-0.41 0 0zm-8.3 2.33c-0.2 0.44-0.5-0.23 0 0zm8.7-2.21c-0.1 0.3-0.3-0.4 0 0zm-7.5 2.33c0 0.43-0.7-0.38 0 0zm0.6-0.08c-0.3 0.29-0.4-0.4 0 0zm-1.6 0.5c1.9-0.49-0.5 0.4 0 0zm11.1-2.67c-0.9 0.49-0.8-0.24 0 0zm-9.6 2.88c-0.2 0.29-0.6-0.37 0 0zm2.3 0.48c-0.1 0.3-0.3-0.4 0 0zm0.8 0.18c0 1.09-1.5-0.21 0 0zm11-2.55c-0.3 0.85-1-0.48 0 0zm-9.3 2.78c-0.3 0.37-0.3-0.17 0 0zm2.1 0.41c0.5 1.13-2.5 0.41 0 0zm7.5-1.08c0 0.37-0.8-0.47 0 0zm-6.3 1.76c0.7 0.23-1.7-0.18 0 0zm2.9 0.26c0.8 0.33-1.1-0.09 0 0zm0.7-0.06c-0.1 0.3-0.3-0.4 0 0zm5-0.86c0 0.33-0.5-0.41 0 0zm-3.6 1.27c0.1 0.3-1-0.4 0 0zm-0.4 0.22c-0.3 0.37-0.5-0.47 0 0zm-0.2 0.18c-0.2 0.46-0.8-0.43 0 0zm5.5-0.96c1.2 0.12-2 0.09 0 0zm0.2 0.81c-0.3 0.39-0.4-0.36 0 0zm0.5 1.01c-0.3 0.55-0.9-0.3 0 0zm-24-5.72c0.8 0.2 0.1-0.29 0 0zm22.5 6.57c0.5 0.92 0.3-0.49 0 0zm5.4 0.91c0.4 0.17 0.9-0.35 0 0zm1.9 0.09c1.1 0.55 0.5-0.48 0 0zm0.8 0.32c1 0.72 0.3-0.73 0 0zm0.9 0.27c0.5 0.67 0.5-0.45 0 0zm1.1 0.34c0.5 0.38 0.5-0.18 0 0z"/>
      <path id="path9673" d="m821.12 853.39a427.28 35.916 0 1 1 -854.56 0 427.28 35.916 0 1 1 854.56 0z" style="color:#000000" fill="url(#radialGradient12740)" transform="matrix(.49696 0 0 .62758 891.96 -149.09)"/>
      <path id="path9683" d="m821.12 853.39a427.28 35.916 0 1 1 -854.56 0 427.28 35.916 0 1 1 854.56 0z" style="color:#000000" fill="url(#radialGradient12740)" transform="matrix(.47680 0 0 .46824 970.06 17.553)"/>
      <path id="path9691" d="m821.12 853.39a427.28 35.916 0 1 1 -854.56 0 427.28 35.916 0 1 1 854.56 0z" style="color:#000000" fill="url(#radialGradient12746)" transform="matrix(.34139 0 0 .53906 1081.2 65.204)"/>
      <path id="path12055" fill-opacity=".57736" d="m1245 623.86c1.6-0.03 2.6 1.54 0.3 1.16-2.4 0.72-0.1 0.83-0.3 1.02-0.9 0.19-2.2 0.79-0.5 0.61-1.9 1.35 1.7 0.49 1.7 1.01 1 0.97 2.7 0.35 4.1 0.76 0.2 1.3 3.2 1.17 4.5 1.79 2.5-0.1 4.8 0.09 6.6 1.27 1.1-0.16 1.4-1.37 1.5-0.04 1.5-0.83 1.9 0.55 0.3 0.31 1.3-0.18 1.8 0.24 1.8 0.35 2.8-0.31 5.8 1.56 8.5 1.14-1.5-0.08-0.7-0.3-0.2-0.38-1.6 0.03-3-0.53-0.5-0.55-1.7 0.03-0.8-0.35-1.3-0.37-2.1 0.04-1.5-0.37-1.2-0.44-2.1-0.16-1.5-0.31 0.2-0.44-1.2-0.26-4.4-0.41-1.3-0.35 1.4-0.14-4.2-0.73-1.1-0.79 2.3 0.14-1.8-0.88-1.4-0.66-1.9 0.36-2.6-1.1-0.3-0.73 1.2-0.23-5.5-0.65-1.5-0.69 3.4-0.3-5.3-0.54-1.2-0.72 1.8-0.29-4.8-0.89-0.8-0.65 3.4-0.48-6.2-0.91-1.6-0.86 1.1-0.14-4.4-0.6-1.5-0.83-1.3-0.5-5 0.31-2-0.67-3-0.07-6.5-0.47-9.2 0.53-0.2 0.23-5.6-2.02-3.6-0.78zm1.1 1.35c0.5 0.8-2 0.02 0 0zm-0.5 1.41c-0.8 0.23-0.5-0.34 0 0zm2-0.18c-0.8 1.12-2.3 0 0 0zm1.1-0.28c-0.2 0.38-0.6-0.48 0 0zm1.7-0.31c-0.2 0.28-0.6-0.37 0 0zm4.7-1.09c-0.2 0.4-0.5-0.41 0 0zm-8.3 2.33c-0.2 0.44-0.5-0.23 0 0zm8.7-2.21c-0.1 0.3-0.3-0.4 0 0zm-7.5 2.33c0 0.43-0.7-0.38 0 0zm0.6-0.08c-0.3 0.29-0.5-0.4 0 0zm-1.6 0.5c1.9-0.49-0.5 0.4 0 0zm11.1-2.67c-0.9 0.49-0.8-0.24 0 0zm-9.6 2.88c-0.2 0.29-0.6-0.37 0 0zm2.3 0.48c-0.1 0.3-0.3-0.4 0 0zm0.8 0.18c0 1.09-1.5-0.21 0 0zm11-2.55c-0.3 0.85-1-0.48 0 0zm-9.3 2.78c-0.3 0.37-0.3-0.18 0 0zm2 0.41c0.6 1.13-2.4 0.41 0 0zm7.6-1.08c0 0.37-0.8-0.47 0 0zm-6.3 1.76c0.7 0.23-1.8-0.19 0 0zm2.9 0.25c0.8 0.34-1.1-0.08 0 0zm0.7-0.05c-0.1 0.3-0.3-0.4 0 0zm5-0.86c0 0.33-0.5-0.41 0 0zm-3.6 1.27c0.1 0.3-1-0.4 0 0zm-0.4 0.22c-0.3 0.37-0.5-0.48 0 0zm-0.2 0.18c-0.3 0.46-0.8-0.43 0 0zm5.5-0.97c1.2 0.13-2 0.1 0 0zm0.2 0.82c-0.3 0.38-0.4-0.36 0 0zm0.5 1.01c-0.3 0.54-0.9-0.3 0 0zm-24-5.73c0.6 0.22 0.1-0.28 0 0zm22.5 6.58c0.5 0.92 0.3-0.49 0 0zm5.4 0.91c0.4 0.17 0.9-0.35 0 0zm1.9 0.09c1.1 0.55 0.5-0.48 0 0zm0.8 0.31c1 0.73 0.3-0.72 0 0zm0.9 0.27c0.5 0.68 0.5-0.45 0 0zm1.1 0.34c0.5 0.38 0.5-0.17 0 0z"/>
      <path id="path12057" fill-opacity=".57736" d="m1213.6 623.69c2.1 0.45-0.1 0.78-0.5 1.2 1.4 0.17-1.5 0.66 0.1 0.59-0.8 0.8 1.8 0.56 2.3 1.03 2.1 0.3 4 1.58 6.4 1.32 1.6 0.69 2.8 0.31 4 0.68-1.4 0.53 2.1 0.3 2.9 0.77 1.3 0.5 3.6 0.59 2.6 0.18-1 0.04-1.1-0.48 0-0.34-1-0.19-3.4-0.69-1.5-0.81-0.9-0.17-2.3-0.22-0.7-0.27-0.9-0.23-2.2-0.48-0.4-0.51-0.8-0.34-3.8-0.61-1.5-0.9-1.2-0.22-2.6-0.38-0.5-0.46-0.4-0.24-3.1-0.27-1-0.44-1.3-0.43-2.1-0.33-0.2-0.48-0.4-0.37-3.7-0.38-1.5-0.48-0.3-0.13-2.4-0.34-1-0.49-0.6-0.26-3 0.11-1.3-0.43-2.3-0.39-4.6 0.3-6.8 0.13-0.2-0.03-2.4-0.97-1.4-0.29zm0.6 0.87c0.2 0.66-1-0.21 0 0zm-0.3 0.9c-0.4 0.2-0.3-0.25 0 0zm1.3-0.11c-0.6 0.76-1.2-0.18 0 0zm0.7-0.18c-0.2 0.25-0.3-0.37 0 0zm1.1-0.21c-0.2 0.21-0.3-0.3 0 0zm3-0.69c-0.1 0.28-0.3-0.32 0 0zm-5.3 1.49c-0.1 0.31-0.3-0.18 0 0zm5.6-1.42c-0.1 0.2-0.2-0.29 0 0zm-4.9 1.5c0 0.3-0.3-0.33 0 0zm0.4-0.05c-0.1 0.2-0.2-0.3 0 0zm-1 0.32c1.3-0.48-0.2 0.3 0 0zm7.2-1.72c-0.6 0.35-0.5-0.19 0 0zm-6.2 1.86c-0.2 0.21-0.4-0.32 0 0zm1.5 0.3c-0.1 0.2-0.2-0.29 0 0zm0.5 0.11c-0.1 0.7-0.9-0.23 0 0zm7.1-1.63c-0.2 0.53-0.6-0.33 0 0zm-6 1.79c-0.2 0.26-0.2-0.13 0 0zm1.3 0.26c0.1 0.86-1.4-0.02 0 0zm4.8-0.7c0 0.27-0.5-0.41 0 0zm-4 1.13c0.4 0.19-1.3-0.2 0 0zm1.8 0.17c0.5 0.23-0.7-0.09 0 0zm0.5-0.04c-0.1 0.2-0.1-0.29 0 0zm3.2-0.55c-0.1 0.22-0.3-0.33 0 0zm-2.3 0.82c0 0.22-0.6-0.38 0 0zm-0.3 0.13c-0.2 0.26-0.2-0.35 0 0zm-0.1 0.12c-0.2 0.33-0.4-0.36 0 0zm3.5-0.62c0.7 0.13-1.4 0 0 0zm0.2 0.53c-0.2 0.27-0.3-0.27 0 0zm0.3 0.64c-0.2 0.4-0.5-0.29 0 0zm-15.4-3.67c0.4 0.21 0.1-0.22 0 0zm14.4 4.22c0.3 0.65 0.3-0.32 0 0zm3.5 0.59c0.2 0.15 0.6-0.31 0 0zm1.2 0.05c0.7 0.39 0.4-0.32 0 0zm0.6 0.2c0.5 0.54 0.2-0.49 0 0zm0.5 0.18c0.3 0.48 0.4-0.32 0 0zm0.7 0.22c0.3 0.27 0.3-0.15 0 0z"/>
      <path id="path2652" d="m910.55 494.15c-0.41 2.26 0.97 7.89-2.67 4.01-0.52 0 4.45 8.55 1.05 5.44-0.41-2.73-1.86-2.62-3.06-1.84-4.1-1.59 1.01 3.74-0.66 4.38 3.2 0 2.13 2.26-0.33 1.1 3.94 5.35-5.05 0.8-5.12 2.18 3.8 1.62-2.53 1.22 0.79 2.85 5.33 1.86-3.56 2.24 0.45 3.61 1.9 0.65 5.96-0.89 4.61 1.4 2.54-0.23 2.43 1.74 4.85 0.16 1.24 5.53-10.89-1.74-8.79 1.66-2.52 0.1-6.35-3.79-8.2-0.7-5.47 0.41 1.32 2.21 2.74 1.92-4.49 3.61 5.85-1.38 1.27 1.6 0.78 3.73 8.39-2.72 3.48 1.64 1.95 2.32 9.1-2.79 9.5-1.61-2.57 3.88-7.46 3.94-11.12 2.85 2.43 2.57-4.22-0.79-6 1.19-2.46 0.05 0.34 1.99 0.1 2.38 2.78 0.77 7.28 3.62 1.56 2.72-2.48-0.03 1.34 4.46-2.71 1.85-2.05-1.13-0.95 1.97-3.78 0.6-2.57 0.63 4.08 3.45 5.6 3.85 2.95-0.06 5.97 4.99 7.48 3.63-3.8 3.2-8.87 0.26-13.09 2.01-1.76 1.34 4.44 4.07 4.97 4.32 6.13 2.7-7.6-0.21-6.71 2.26 3.77 2.25 7.14 5.12 11.09 1.93 1.33 0.97-2.35 0.67-0.8 3.02-3.9 1.77-11.29 2.05-13.5 4.13 3.21 3.11 6.78 3.46 10.81 4.08 2.11-0.77 1.28-1.38 3.11-0.91 1.51 0.83 2.68-2.16 4.39-0.14-1.82 1.95-11.5 1.64-5.34 3.96-5.09 1.42-10.61 0.32-15.78 1.44-3.02 1.37 3.54 1.06-0.12 2.77-1.58 1.94 5.98-0.1 4.93 2.12 2.47-0.43 3.66 0.6 5.61 0.1-0.14 2.67 2.84-0.9 3.3 1.49 2.54-0.37 6.33 1.17 1.99 2.11-4.62 1.18-9.13 0.7-13.33 0.83-2.73-0.92-6.46-0.22-1.59 1 3.93 0.46-3.74 0.77 1.06 1.76 0.75 2.29 4.84 0.48 6.44 2.41 3.62-1.77-1.19 1.77 2.45 0.93 3.88 0.72-6.36 3.8-8.6 2.23-2.28 0.15-5.17 0.09-6.68 0.9 4.06 1.85-7.01-0.64-2.5 1.61 2.75 0 3.26 0.36 1.6 2.57 1.28 2.29 9.68 1.39 4.88 3.75-2.31-0.16-5.64 1.2-1.25 1.41 3.46-0.95-3.01 2.77 1.19 1.69 1.23 1.91 3.37 0.33 4.08 1.58 2.9 1.39-7.91 0.57-9.15 1.24 4.2 1.59-5.8 1.75-0.75 2.88 1.7-0.43 5.07-0.99 2.14 1.37 2.31-0.77 3.49 0.73 4.23 1.41 1.33-1.13 3.39-1.08 1.93 1.18 2.31-0.94 5.08-4.27 3.9-0.93 4.58-1.57-2.42 2.87-4.24 1.03-3.67-0.51-6.57 0.59-8.54 1.96 4.75-0.24-5.25 3.13 0.02 2.41 3.02-1.33 1.7-0.13 1.77 1.23 1.78-0.83 0.2 1.95 2.72 0.32 2.23 0.87 5.09 0.07 7.64 0.48-2.8-0.16-7.17 2.7-1.69 1.7-3.73 2.12 0.55 2.32 2.43 1.01-2.41 4.29 5.88 1.51 6.15 1.96-0.43 3.07 4.1-3.12 3.73 1.16 3.66-1.2 6.57-1.9 9.07-4.24 1.75 1.95 3.98-5.79 5.38-1.09-0.27 3.18-4.05 8.84 2.31 7.15 3.04 0.21 6.24 0.59 4.31-3.34-0.99-4.09 1.86-1.05 2.94-0.97 2.72 2.86 8.22 1.8 11.28 1.21-0.42-2.65 2.47-0.67 3.8-0.99 1.32 1.46 3.93 1.59 4.83 1.11 2.3 1.61 0.45-5.07 2.79-1.4 1.7 0.95 5.01-0.1 5.93 0.54-0.18-2.04 2.09-1.03-0.21-2.64 0.69-0.09 5.87 2.25 3.11 0.11 4.69 0.1 2.95-1.93-0.67-1.4-2.65-0.23-7.38-1.63-4.28-2.44 0.68-0.66 4.41 0 1.63-1.39 1.88 0.84 4.55-1.16 1.04-1.18 2.16-0.24 2.09-2.26 5.02-1.32-3.48-1.46-1.19-1.41 0.18-1.9-2.63-0.17-6.23-1.51-1.16-1.66 5.04-2-1.04-1.06-2.62-1.02 2.69-3.3-4.05 1.44-6.13 0.23-3.65 0.29-11.9-3.31-12.04-4.59 1.25-0.23 5.02 2.86 3.87-0.16 3.71 3.23 5.83-2.55 9.46 1.29-4.94-5.67 12.67-1.66 4.68-4.78-0.95-0.51 9.25 0.01 2.53-1.32-2.25 0.26 3.16-1.71-0.31-1.21-6.2-0.59-11.74-0.19-18.1-2.41-3.99-0.81-3.59-2.92 0.23-1.87 4.86 1.16 6.41 0.31 10.96 0.33 1.01-3.19 11.42-1.25 7-5.39 2.33-1.29 5.19-1.96 0.76-1.39-4.26-0.11-9.31-0.6-12.84-2.55 0.91-2.05 7.13 1.4 4.42-1.41 1.54 0.22 4.37-0.47 1.16-1.1 2.79-0.23 7.42-4.8 1.6-2.7-2.95-1.74-11.05 1.12-11.21-2.67 4.28 0.82 8.94 0.13 9.07-5.35-2.95 0.39-7.55 3.12-9.46-0.35 1.28 0.87 4.01 0.21 1.95-1.49 2.24 0.49 3.43-3.66 0.34-1.68-2.3 0.44-10.49 0.59-8.58-1.6 2.13 0.75 7.11-0.25 3.33-2.31 2.65 0.92 8.15-2.07 7.28-3.95-1.93-2.17-4.38-0.57-6.46-0.98 2.62-1.71-0.02-0.62-0.76-1.93-2.01 3.74-11.54 0.16-9.71-1.15 4.4-0.01 7.6-0.11 11.64-1.33-1.14-2.95 7.28-4.17 1.03-4.85-1.37-2.85-7.67 2.26-6.23-2.36-3.78 3.01-11.89-0.45-12.78-2.29 3.59 1.11 4.45-0.1 7.46 0.59-0.37-1.26 2.7 2.31 3.93-0.58 3.01-0.11 0.73-4.49 4.16-2.23 0.86-1.92 5.68-2.88 0.97-2.93-1.36-1.33-4.26 1.59-4.52-1.24-3.21 2.97-8.9 2.13-10.86-1.45 1.83-0.16 6.13 2.61 6.11-0.79 1.78 1.8 5.63 1.24 1.93-0.65 2.46 1.79 5.63 0.11 5.25-1.46 5.93-0.72-2.98-2.8-4.76-1.35-2.19-4.68-8.35 2.06-9.48-1.75-1.17-0.6-7.13-3.2-4.53-4.07 0.39 1.77 2.93 3.97 2.81 0.75 1.5 4.28 4.03-1.41 6.39 2.17 1.07-2.33 4.82 0.84 5.89-2.46-2.19-1.76-8.25-3.62-8.74-3.13 2.28-1.89 4.06-2.6 0.22-3.11-0.46-1.41 7.18-2.12 1.93-4 3.86-1.41-1.27-2.74 0.96-4.79-4.18 0.15-6.18 2.9-8.82 6.23-3.07 0.57-2.62-8.53 0.95-5.24 3.83 0.21 2.75-2.78-0.25-2.9 1.55-0.18 6.88-0.38 2.45-1.62 3.19-3.11 0.04-1.52-2-1.08-1.38-1.99-3.9 5.6-2.97 0.26 0.69-2.23 5.1-6.45 0.22-3.26-2.1 0.16 0.78-3.68-2.02-4.37zm-2.57 11.43c2.64 0.27 2.05 5.81 0.91 1.62-0.15-0.56-1.16-0.91-0.91-1.62zm-0.93 4.78c2.8 0.06 3.42 4.1 0.55 1.3 0.03-0.01-1.42-1.23-0.55-1.3zm10.35 2.66c1.05 2.83-8.14 2.96-2.05 1.68 0.85-0.36 1.23-1.27 2.05-1.68zm-4.39 4.66c2.42 0.27 4.87 1.64 0.82 0.62l-0.82-0.62zm4.15 0.81c2.78-0.67-0.42 2.4 0 0zm5.71 1.19c1.23 0.81-1.72 0.4 0 0zm-8.91 5.21c1.48 2.19-0.93 4.7-0.21 0.81l0.21-0.81zm-2.89 4.35c1.13 0.72-1.72 0.57 0 0zm3.05 0.69c0.66 1.69-0.59 0.95 0 0zm-4.71 0.17c1.29 0.53-1.39 0.65 0 0zm-1.89 0.65c1.29 0.53-1.39 0.65 0 0zm-7.89 0.01c1.53 1.79 9.76-0.31 3.94 1.71-1.34 0.27-5.05 0.81-3.94-1.71zm34.76 17.26c1.39 0.61-0.87 0.87 0 0zm-31.67 3.91c-2.95 2.23-4.39 0.75 0 0zm32.71 13.91c3.91 0.43-4.02 0.4 0 0zm8.47 1.76c2.14-0.04-1.22 0.48 0 0zm0.1 8.12c2.62-0.17 0.66 1.3 0 0zm-65.98 13.16c0.81 0.91-2.43 0.26 0 0zm6.12 2.8c1.72 1.95 4.47 0.27 6.82 1.15 1.13 0.44-10.89 2.38-6.82-1.15zm8.81 0.35c1.26 0.59-2.54 0.35 0 0zm-3.85 13.43c1.13 0.73-1.72 0.58 0 0z"/>
      <path id="path2529" style="color:#000000" d="m476.74 140a7.5374 7.5374 0 1 1 -15.08 0 7.5374 7.5374 0 1 1 15.08 0z" fill-rule="evenodd" transform="matrix(.68632 0 0 .68632 853.28 333.6)" fill="url(#radialGradient3506)"/>
      <path id="path3514" style="color:#000000" d="m476.74 140a7.5374 7.5374 0 1 1 -15.08 0 7.5374 7.5374 0 1 1 15.08 0z" fill-rule="evenodd" transform="matrix(.68632 0 0 .68632 865.21 319.43)" fill="url(#radialGradient3506)"/>
      <path id="path3518" style="color:#000000" d="m476.74 140a7.5374 7.5374 0 1 1 -15.08 0 7.5374 7.5374 0 1 1 15.08 0z" fill-rule="evenodd" transform="matrix(.68632 0 0 .68632 891.3 326.92)" fill="url(#radialGradient3506)"/>
      <path id="path3522" style="color:#000000" d="m476.74 140a7.5374 7.5374 0 1 1 -15.08 0 7.5374 7.5374 0 1 1 15.08 0z" fill-rule="evenodd" transform="matrix(.51818 0 0 .68632 961.92 335.54)" fill="url(#radialGradient3506)"/>
      <path id="path3526" style="color:#000000" d="m476.74 140a7.5374 7.5374 0 1 1 -15.08 0 7.5374 7.5374 0 1 1 15.08 0z" fill-rule="evenodd" transform="matrix(.54785 0 0 .48851 900.66 382.61)" fill="url(#radialGradient3506)"/>
      <path id="path3538" style="color:#000000" d="m476.74 140a7.5374 7.5374 0 1 1 -15.08 0 7.5374 7.5374 0 1 1 15.08 0z" fill-rule="evenodd" transform="matrix(1.078 0 0 1.078 659.02 287.86)" fill="url(#radialGradient3506)"/>
      <path id="path3542" style="color:#000000" d="m476.74 140a7.5374 7.5374 0 1 1 -15.08 0 7.5374 7.5374 0 1 1 15.08 0z" fill-rule="evenodd" transform="matrix(1.078 0 0 1.078 690.23 271.41)" fill="url(#radialGradient3506)"/>
      <path id="path3550" style="color:#000000" d="m476.74 140a7.5374 7.5374 0 1 1 -15.08 0 7.5374 7.5374 0 1 1 15.08 0z" fill-rule="evenodd" transform="matrix(.77024 0 0 .77024 862.65 328.2)" fill="url(#radialGradient3506)"/>
      <path id="path4523" style="color:#000000" d="m476.74 140a7.5374 7.5374 0 1 1 -15.08 0 7.5374 7.5374 0 1 1 15.08 0z" fill-rule="evenodd" transform="matrix(.68632 0 0 .68632 877.87 384.91)" fill="url(#radialGradient3506)"/>
      <g id="g3126" transform="matrix(.49696 0 0 .46824 466.2 -2.8906)">
        <path id="path3128" d="m1477.5 916.8c0.2-0.01 0.4 0.01 0.6 0.08 0.1 0.08 0.2 0.17 0.3 0.27 0.2 0.13 0.3 0.31 0.4 0.47 0.3 0.38 0.6 0.69 1 0.9l0.1-0.08 0.1-0.12c0.1-0.1 0.2-0.22 0.2-0.34 0.3-0.44 0.7-0.73 1.2-0.93 0.1-0.06 0.4-0.06 0.5-0.02 0.1 0.01 0.1-0.01 0.2 0.02 0.2 0.08 0.4 0.25 0.5 0.45 0.1 0.11 0.1 0.24 0.1 0.38-0.1 0.31-0.1 0.54-0.2 0.83l-0.6 1.46v0.17c-0.1 0.22-0.2 0.48-0.3 0.7-0.3 0.65-0.8 1.25-1.2 1.84-0.4 0.63-0.8 1.23-1 1.92-0.1 0.22-0.2 0.5-0.2 0.73-0.1 0.26-0.2 0.57-0.2 0.84 0 0.64-0.1 1.1-0.1 1.62v0.09c0 0.32-0.1 0.7-0.1 1.08-0.1 0.19-0.2 0.29-0.2 0.43-0.1 0.27-0.1 0.59-0.2 0.84-0.1 0.11-0.1 0.18-0.2 0.28l0.4 0.52c0.1 0.18 0.2 0.36 0.4 0.48 0.2 0.21 0.3 0.4 0.5 0.59 0.2 0.21 0.4 0.42 0.7 0.61 0.1 0.06 0.2 0.17 0.3 0.22 0.2 0.06 0.4 0.1 0.6 0.09 0.3 0.02 0.5-0.02 0.8-0.12 0.3-0.09 0.6-0.16 0.8-0.26 0 0 0.1-0.06 0.2-0.1 0.1-0.07 0.3-0.1 0.4-0.18 0.1-0.07 0.2-0.15 0.4-0.22 0.1-0.11 0.3-0.23 0.4-0.35 0.2-0.17 0.4-0.27 0.5-0.39 0-0.04 0.2-0.17 0.3-0.32 0.3-0.23 0.5-0.43 0.7-0.68 0.4-0.58 0.9-1.25 1.2-1.95 0-0.1 0.1-0.25 0.2-0.38 0-0.18 0-0.3 0.1-0.48 0.1-0.5 0.3-0.98 0.5-1.5 0.1-0.23 0.2-0.43 0.4-0.57 0-0.12 0.1-0.2 0.2-0.29 0.1-0.17 0.2-0.32 0.4-0.44 0.1-0.12 0.3-0.25 0.4-0.33 0.2-0.12 0.3-0.13 0.5-0.11 0.1-0.01 0.1 0 0.2 0.02 0 0.05 0.1 0.09 0.2 0.11 0 0.06 0.1 0.1 0.1 0.17 0 0.17 0.1 0.23 0.1 0.28v0.19c0 0.19 0 0.37-0.1 0.58-0.2 0.77-0.4 1.55-0.7 2.33l-0.3 0.91c-0.1 0.23-0.1 0.54 0 0.81 0 0.08 0.1 0.17 0.1 0.26 0.1 0.09 0.2 0.2 0.3 0.24 0.2 0.05 0.3 0.06 0.4 0.08 0.2-0.01 0.4 0 0.6-0.03 0.3-0.04 0.5-0.14 0.8-0.25 0.5-0.22 1-0.42 1.5-0.72 0.4-0.22 0.9-0.43 1.3-0.57 0.1-0.05 0.2-0.05 0.3-0.01 0.1 0.06 0.2 0.14 0.3 0.2 0 0.05 0.1 0.08 0.1 0.17v0.39c0 0.14 0 0.25-0.1 0.38v0.1c-0.1 0.13-0.1 0.27-0.2 0.43v0.06c0 0.08 0 0.14-0.1 0.21 0 0.09-0.2 0.19-0.2 0.25-0.1 0.15-0.2 0.28-0.3 0.41-0.1 0.1-0.2 0.22-0.3 0.32-0.2 0.16-0.4 0.32-0.6 0.47-0.3 0.2-0.6 0.38-1 0.44-0.3 0.12-0.7 0.18-1 0.26-0.1 0.01-0.2 0.04-0.3 0.06-0.2-0.01-0.4-0.03-0.7-0.01-0.2 0.04-0.5 0.06-0.8 0.08-0.3 0.05-0.6 0.04-0.8 0.07-0.2 0.04-0.5 0.12-0.7 0.18-0.2 0.03-0.4 0.09-0.6 0.13-0.3 0.05-0.5 0.08-0.7 0.14-0.7 0.25-1.4 0.52-2 0.87-0.8 0.43-1.5 1.09-2 1.84-0.1 0.22-0.1 0.38-0.2 0.61-0.1 0.22-0.2 0.46-0.3 0.7-0.1 0.41-0.1 0.83-0.1 1.22-0.1 0.42-0.1 0.82-0.2 1.23 0 0.15 0 0.32-0.1 0.47-0.1 0.34-0.2 0.63-0.3 0.96 0 0.05-0.1 0.15-0.1 0.22-0.4 1.17-1.1 2.23-2.1 3.07l-0.9 0.79-1 0.75c-0.9 0.56-1.8 1.09-2.8 1.39-0.5 0.15-1.2 0.35-1.9 0.59-4.5 1.49-5.1 2.77-6.7 3.43l-0.2-0.18c0 0.38-0.1 0.61 0 0.65 0.3 0.22 2.7 6.9 3.7 10.41 1.8 6.12 3.8 8.56 7.1 8.76 1.9 0.12 5.1 2.43 6.6 4.79 0.7 1.04 5.2 2.28 9.3 2.52 1.4 0.09 2.8 0.27 3 0.38 0.3 0.11 2.8 0.24 5.7 0.33 2.8 0.09 6.7 0.33 8.5 0.5 1.8 0.18 3.6 0.26 4 0.17 1.1-0.23 2.3-1.74 3.8-4.96 0.7-1.63 1.7-3.19 2.4-3.7 1.7-1.31 5.4-2.74 6-2.34 0.7 0.47 0.5 0.93-1.3 2.32-1.7 1.36-3.1 3.55-2.9 4.63 0.1 0.39-0.1 0.98-0.4 1.34-1.5 1.59-1.6 2.85-0.6 6.35 1 3.25 0.9 3.36 0.2 6.31-1 3.85-0.7 5.65 1.2 7.12 1.5 1.07 5 1.87 7.3 1.64 1-0.09 1.5 0.19 3 2.03 1 1.2 2.6 2.7 3.5 3.3 2.4 1.6 7.9 3.9 8.8 3.8 0.4-0.1 1.4 0 2.2 0.3 1.5 0.6 4 2.5 3.7 3-0.1 0.1-1 0.4-1.9 0.6l-1.7 0.4 0.6 1.4c0.5 1.4 0.5 1.5-0.5 1.8-0.6 0.2-1.3 0.4-1.6 0.4-0.3-0.1-0.6 0-0.8 0-0.2 0.1-0.8-0.2-1.4-0.6-0.7-0.3-1.7-0.9-2.4-1.2-2.4-1-6.1-3.5-6.9-4.6-0.4-0.5-1.9-1.6-3.4-2.4-2.5-1.5-2.7-1.6-6.3-1.3-2 0.2-4.5 0.4-5.5 0.5-5.9 0.7-8.5-0.2-11.5-4-2.8-3.43-5.2-4.19-10.8-3.53-2.2 0.25-4.1 0.62-4.3 0.82-0.2 0.19-0.8 0.37-1.3 0.41-1.2 0.1-5.2-0.17-6.3-0.49-1.8-0.5-8.1-2.41-10.2-3.04-1.1-0.37-2.4-0.71-2.7-0.79-0.4-0.07-1.1-0.35-1.6-0.56-0.6-0.23-2.1-0.19-3.6 0.09-2.6 0.47-4.6 0.2-9.1-1.42-4.6-1.64-7.1-1.01-11.7 3.01-1.8 1.53-3.5 2.8-3.7 2.85s-1.1 0.95-1.9 1.95c-1.4 1.8-1.5 1.9-4.1 2.5l-2.8 0.5 1.4-2c0.7-1.2 1.6-2.3 2-2.5 0.4-0.22 1.2-1.05 1.8-1.87 0.7-0.81 2.1-2.11 3.3-2.87 1.3-0.76 2.2-1.49 2.1-1.68 0-0.47-0.5-0.35-4.4 1.37-4.4 1.94-6.9 2.51-9.3 2.06-1.1-0.2-1.9-0.51-1.9-0.65-0.2-0.68 6.3-3.37 9.5-3.95 2.9-0.54 8.5-2.42 10-3.41 1.5-1 1.2-0.95 9.6-1.17 1.5-0.05 3.1-0.29 3.5-0.52 1-0.63 0.9-2.13-0.3-4.53-0.6-1.17-1.3-2.62-1.6-3.26s-1.1-1.71-1.7-2.36c-2.1-2.34-2.2-3.32-0.9-7.98 1.1-4.08 1.1-4.31 0.4-5.77-0.4-0.84-1.1-1.77-1.5-2.08-0.8-0.6-6.4-2.14-7.1-1.99-0.6 0.12-1.1-0.69-1.3-2.02-0.4-1.88 0-2.23 3.4-3 2.4-0.54 4.9-1.38 6.7-2.13l-0.9-0.31-4.1-0.76c-0.7-0.14-1.5-0.3-2.3-0.42-0.7-0.08-1.3-0.27-1.9-0.56-0.4-0.21-0.7-0.41-1.1-0.67-0.3-0.21-0.4-0.6-0.2-0.94 0.1-0.31 0.3-0.56 0.7-0.6 0.4-0.07 0.8 0.03 1.2 0.19l-0.4-0.87-0.3-0.88-0.2-0.91c-0.2-1.21-0.4-2.45-0.3-3.67l-0.6-0.92c-0.2-0.24-0.3-0.52-0.3-0.83-0.1-0.31 0.1-0.66 0.4-0.74 0.3-0.11 0.6-0.06 0.9 0.17l1 0.73c0.4 0.28 0.8 0.49 1.2 0.65 0.3 0.12 0.6 0.21 0.9 0.27l-0.4-0.63-0.3-0.92-0.4-1.27-0.2-0.61c0-0.31 0.1-0.62 0.4-0.78 0.2-0.11 0.5-0.08 0.7 0.06 0.3 0.19 0.5 0.45 0.7 0.75 0.3 0.44 0.5 0.89 0.8 1.34 0.2 0.48 0.6 0.91 0.9 1.3 0.7 0.69 1.2 1.24 1.8 1.84 0.4 0.41 1 0.89 1.7 1.15 0 0.03 0.1 0.06 0.2 0.05 0.3 0.12 0.6 0.02 0.8-0.22 0.1-0.08 0.2-0.19 0.2-0.29 0.1-0.13 0.1-0.25 0-0.4 0-0.46 0-0.95 0.1-1.41 0.1-0.52 0.3-0.99 0.6-1.39 0.3-0.35 0.8-0.36 1.1 0.04 0.1 0.19 0.2 0.49 0.2 0.75-0.1 1.46-0.1 2.89-0.1 4.3l4.9 1.81 0.7-0.46 1.2-0.98c0.9-0.8 1.8-1.7 2.5-2.67 0.5-0.68 0.9-1.42 1.2-2.2 0.1-0.07 0.1-0.12 0.2-0.17 0.2-0.56 0.3-1.11 0.3-1.67 0-0.58 0-1.18-0.3-1.69-0.2-0.42-0.4-0.84-0.6-1.21-0.4-0.58-0.8-1.13-1.2-1.6-0.5-0.48-1.1-0.83-1.7-1.1-0.4-0.24-1-0.51-1.5-0.78-0.4-0.17-0.6-0.24-0.9-0.33-0.4-0.16-0.7-0.3-1.1-0.41-0.7-0.15-1.3-0.33-1.9-0.55l-0.9-0.23c-0.4-0.13-0.8-0.42-1.1-0.77-0.2-0.26-0.3-0.58-0.1-0.87 0.1-0.38 0.5-0.66 0.9-0.73 0.4-0.09 0.8-0.13 1.2-0.06 0.5 0.07 0.9 0.21 1.4 0.31l3.2-1.41-0.2-0.75c-0.2-0.83-0.4-1.7-0.4-2.57 0-0.32 0.3-0.59 0.5-0.75 0.2-0.12 0.5-0.11 0.7 0.01 0.3 0.09 0.5 0.26 0.6 0.48 0.1 0.3 0.2 0.63 0.3 0.93 0.1 0.42 0.3 0.8 0.5 1.16 0.1 0.36 0.3 0.67 0.5 0.98 0.1 0.2 0.3 0.42 0.4 0.61l0.3-0.01 0.5 0.09 1.5 0.45 1.5 0.5 1.8 0.52c0.6 0.2 1.2 0.27 1.7 0.2l0.3-0.31c0.2-0.2 0.3-0.42 0.3-0.62 0-0.05 0.1-0.06 0.1-0.11 0.1-0.24 0.1-0.46 0.2-0.68v-0.76c0-0.21 0-0.42-0.1-0.59 0-0.09-0.1-0.21-0.1-0.26-0.1-0.1-0.2-0.19-0.3-0.34-0.1-0.16-0.3-0.37-0.4-0.51-0.2-0.12-0.4-0.26-0.5-0.4l-0.8-0.69-0.6-0.52c-0.3-0.27-0.6-0.6-0.8-0.94-0.2-0.2-0.2-0.37-0.3-0.58s-0.1-0.5 0-0.71c0.3-0.4 0.8-0.55 1.3-0.31 1 0.52 1.8 1.16 2.6 1.96 0 0.04 0.1 0.11 0.2 0.15 0.1 0.02 0.1-0.01 0.2 0.02 0.4 0.01 0.8-0.19 1-0.56 0.1-0.22 0.2-0.45 0.3-0.67 0-0.02 0.1-0.03 0.1-0.05 0.1-0.26 0.1-0.5 0.1-0.77-0.1-0.18-0.1-0.43-0.3-0.6-0.1-0.28-0.3-0.52-0.5-0.79-0.4-0.43-0.7-0.91-0.9-1.41-0.1-0.21-0.1-0.41 0-0.6 0.1-0.17 0.3-0.32 0.4-0.44 0.1-0.07 0.3-0.07 0.4-0.07zm-9.7 13.32c-0.1 0.01-0.3 0.07-0.4 0.17-0.1 0.06-0.1 0.21 0 0.3 0.4 0.38 0.8 0.73 1.2 1.06 0.4 0.29 0.8 0.53 1.2 0.75 0.1 0.05 0.2 0.13 0.4 0.12 0.5 0.02 0.9 0.05 1.4 0.11 0.1-0.01 0.3-0.03 0.4 0.01v0.1c0.3 0.1 0.5 0.24 0.6 0.48 0.1 0.08 0.1 0.16 0.1 0.27s-0.1 0.29-0.2 0.39c0 0.02 0.1 0.05 0.1 0.05-0.1 0.22-0.3 0.41-0.4 0.66-0.1 0.17-0.1 0.36-0.1 0.53v0.35c0 0.26 0.1 0.59 0.2 0.85 0.2 0.78 0.3 1.58 0.2 2.41v0.49c0.5-0.14 0.9-0.29 1.4-0.53 0.2-0.14 0.5-0.31 0.7-0.41 0.2-0.06 0.4-0.1 0.6-0.02 0.3 0.12 0.6 0.44 0.5 0.8 0 0.14 0 0.35-0.1 0.47 0 0.1-0.1 0.14-0.1 0.23-0.2 0.25-0.4 0.42-0.6 0.56-0.5 0.3-0.9 0.64-1.4 0.99-0.4 0.34-0.9 0.7-1.3 1.08-0.9 0.69-1.7 1.45-2.4 2.27-0.5 0.51-0.9 1.07-1.4 1.6l-0.7 0.63 0.1 0.04c1.9-0.3 3.7-0.78 5.5-1.43 0.7-0.26 1.3-0.57 1.9-0.94 0.7-0.47 1.4-1.03 2-1.67 0.5-0.5 0.9-1.06 1.2-1.64 0.1-0.19 0.2-0.4 0.3-0.6 0.2-0.66 0.3-1.4 0.3-2.12 0.1-1.4-0.3-2.75-1.1-3.91-0.5-0.75-1.2-1.41-1.9-1.9-0.8-0.53-1.6-1-2.5-1.34-0.2-0.1-0.5-0.2-0.7-0.29-0.8-0.28-1.5-0.53-2.3-0.73-0.2-0.02-0.3-0.05-0.4-0.06-0.2-0.03-0.3-0.03-0.5-0.07 0 0-0.2 0.01-0.3 0.02-0.3-0.01-0.6-0.08-1-0.14-0.2-0.02-0.3-0.01-0.5 0.01zm-18.3 12.99c-0.2 0.81-0.2 1.62-0.1 2.4 0.2 0.98 0.7 1.92 1.3 2.68 0.2 0.19 0.5 0.4 0.7 0.56 0.2 0.1 0.4 0.14 0.6 0.24 0.1 0.04 0.2 0.09 0.3 0.13 0.1 0.03 0.1 0.04 0.1 0.06l0.4-0.02c0-0.31 0-0.61-0.2-0.91-0.2-0.4-0.4-0.85-0.4-1.31v-0.35c0.1-0.18 0.2-0.27 0.4-0.34 0.3-0.07 0.6-0.08 0.9 0.03 0.1 0.03 0.1 0.07 0.2 0.1 0.4 0.19 0.6 0.44 0.9 0.76 0.3 0.29 0.6 0.62 0.9 0.97 0.2 0.35 0.4 0.69 0.6 1.03l0.2 0.35c1.1 0.6 2.2 1.01 3.5 1.28l0.8 0.17 0.6 0.08c0-0.25 0-0.56-0.1-0.83-0.1-0.33-0.2-0.68-0.4-0.96-0.2-0.4-0.6-0.79-0.9-1.1-0.5-0.44-1-0.8-1.5-1.1-1-0.58-2-1.11-3-1.62l-0.6-0.27-0.5-0.21-1-0.4-2.3-0.9-1.4-0.52z"/>
        <path id="path3130" d="m1357.4 912.58c0.2-0.03 0.4-0.03 0.6 0.02 0.1 0.07 0.3 0.14 0.4 0.23 0.2 0.11 0.3 0.27 0.4 0.42 0.3 0.35 0.7 0.61 1.1 0.78l0.1-0.1 0.1-0.12c0.1-0.12 0.1-0.24 0.2-0.37 0.2-0.47 0.5-0.79 1-1.05 0.1-0.08 0.4-0.11 0.6-0.09 0 0.01 0.1-0.02 0.1 0 0.2 0.06 0.4 0.21 0.6 0.39 0 0.11 0.1 0.23 0.1 0.37 0 0.31-0.1 0.56-0.1 0.85l-0.4 1.52v0.16c-0.1 0.24-0.1 0.5-0.2 0.73-0.3 0.69-0.6 1.34-1 1.97-0.3 0.67-0.6 1.31-0.8 2.03-0.1 0.23-0.1 0.51-0.1 0.75-0.1 0.27-0.1 0.57-0.1 0.85 0 0.64 0 1.11 0.1 1.62-0.1-0.25 0-0.07 0 0.1v1.08c0 0.19-0.1 0.31-0.1 0.45 0 0.27-0.1 0.6-0.2 0.86 0 0.11 0 0.19-0.1 0.29l0.5 0.47c0.1 0.17 0.2 0.33 0.4 0.43 0.2 0.2 0.4 0.36 0.6 0.53 0.2 0.19 0.5 0.37 0.7 0.53 0.1 0.05 0.3 0.15 0.4 0.18 0.2 0.05 0.4 0.06 0.6 0.02 0.3-0.01 0.5-0.08 0.8-0.21 0.3-0.12 0.5-0.22 0.7-0.35 0.1 0 0.1-0.07 0.2-0.13 0.2-0.08 0.3-0.13 0.4-0.21 0.1-0.09 0.2-0.18 0.3-0.26 0.2-0.13 0.3-0.27 0.4-0.4 0.2-0.21 0.3-0.31 0.5-0.45 0-0.05 0.1-0.19 0.3-0.35 0.2-0.26 0.4-0.49 0.5-0.76 0.4-0.63 0.8-1.34 1-2.07 0-0.1 0.1-0.27 0.1-0.4 0.1-0.18 0.1-0.31 0.1-0.49 0.1-0.52 0.2-1.01 0.3-1.55 0.1-0.23 0.2-0.45 0.3-0.61 0.1-0.13 0.1-0.21 0.2-0.31 0.1-0.18 0.2-0.35 0.4-0.48 0.1-0.14 0.2-0.28 0.3-0.38 0.2-0.13 0.4-0.17 0.6-0.17 0-0.01 0.1-0.02 0.1 0 0.1 0.05 0.1 0.08 0.2 0.09 0.1 0.05 0.1 0.09 0.1 0.16 0.1 0.16 0.1 0.22 0.2 0.26v0.77c-0.1 0.79-0.3 1.59-0.4 2.4l-0.2 0.94c-0.1 0.23-0.1 0.55 0 0.8 0.1 0.09 0.1 0.17 0.2 0.25s0.2 0.17 0.4 0.2c0.1 0.04 0.2 0.03 0.3 0.03 0.2-0.03 0.4-0.03 0.6-0.09 0.3-0.07 0.5-0.2 0.7-0.33 0.5-0.29 1-0.54 1.5-0.9 0.4-0.26 0.8-0.53 1.2-0.72 0.1-0.06 0.2-0.07 0.3-0.04 0.1 0.05 0.2 0.12 0.3 0.17 0.1 0.04 0.1 0.07 0.1 0.15 0.1 0.13 0.1 0.28 0.1 0.39 0 0.14 0 0.25-0.1 0.39v0.1c0 0.13-0.1 0.29-0.1 0.45v0.28c-0.1 0.1-0.2 0.2-0.3 0.28 0 0.15-0.1 0.28-0.2 0.43-0.1 0.12-0.2 0.24-0.3 0.35-0.1 0.19-0.3 0.37-0.5 0.54-0.3 0.24-0.6 0.45-0.9 0.55-0.3 0.15-0.7 0.26-1 0.37l-0.3 0.09c-0.2 0.03-0.4 0.03-0.7 0.08-0.2 0.07-0.5 0.12-0.8 0.18-0.3 0.08-0.6 0.1-0.8 0.15-0.2 0.07-0.4 0.18-0.6 0.26-0.2 0.06-0.4 0.14-0.6 0.2-0.3 0.08-0.5 0.13-0.7 0.22-0.7 0.32-1.3 0.67-1.9 1.1-0.8 0.51-1.3 1.25-1.7 2.05-0.1 0.23-0.2 0.4-0.2 0.63-0.1 0.24-0.2 0.48-0.2 0.73v2.47c0 0.15 0 0.32-0.1 0.48 0 0.35-0.1 0.65-0.1 0.99-0.1 0.05-0.1 0.15-0.1 0.23-0.3 1.21-0.9 2.34-1.7 3.28l-0.9 0.9-0.9 0.86c-0.8 0.66-1.6 1.29-2.6 1.7-0.5 0.21-1.1 0.49-1.8 0.8-4.3 2-4.7 3.34-6.3 4.18l-0.2-0.15c0 0.38 0 0.61 0.1 0.65 0.4 0.18 3.5 6.53 4.9 9.9 2.5 5.88 4.7 8.08 8.1 7.89 1.9-0.1 5.3 1.82 7 4 0.8 0.96 5.5 1.67 9.6 1.44 1.4-0.09 2.8-0.06 3 0.02 0.3 0.09 2.8-0.08 5.7-0.32 2.8-0.24 6.6-0.44 8.4-0.48 1.9-0.03 3.6-0.16 4.1-0.29 1.1-0.36 2-1.99 3.1-5.37 0.6-1.7 1.4-3.37 2-3.95 1.6-1.51 5.1-3.35 5.8-3.02 0.7 0.38 0.5 0.86-1.1 2.45-1.5 1.55-2.7 3.89-2.3 4.94 0.1 0.38 0 0.98-0.3 1.37-1.3 1.75-1.2 3.02 0.2 6.38 1.3 3.12 1.3 3.23 0.8 6.25-0.5 3.94 0 5.69 2.1 6.93 1.5 0.9 5.1 1.29 7.4 0.79 1-0.2 1.5 0.02 3.3 1.67 1.1 1.07 2.8 2.37 3.8 2.85 2.5 1.32 8.3 3.03 9.2 2.74 0.4-0.14 1.4-0.09 2.2 0.1 1.6 0.39 4.2 2.06 4 2.53-0.1 0.17-0.9 0.55-1.8 0.85l-1.6 0.53 0.7 1.35c0.7 1.3 0.7 1.4-0.3 1.9-0.5 0.3-1.2 0.5-1.5 0.5s-0.7 0.1-0.8 0.2c-0.2 0-0.8-0.2-1.5-0.5s-1.8-0.7-2.5-0.9c-2.5-0.7-6.5-2.79-7.3-3.75-0.5-0.54-2.2-1.45-3.7-2.09-2.7-1.13-2.9-1.18-6.4-0.5-2.1 0.39-4.5 0.89-5.4 1.11-5.9 1.36-8.5 0.79-12-2.6-3.2-3.12-5.6-3.6-11.1-2.3-2.1 0.49-3.9 1.09-4.1 1.3-0.2 0.22-0.8 0.46-1.3 0.58-1.2 0.28-5.2 0.42-6.3 0.23-1.8-0.3-8.4-1.46-10.4-1.86-1.2-0.23-2.5-0.42-2.9-0.46-0.3-0.04-1.1-0.23-1.6-0.37-0.7-0.16-2.1 0.05-3.6 0.49-2.5 0.78-4.5 0.73-9.2-0.35-4.8-1.1-7.1-0.19-11.3 4.33-1.6 1.73-3.1 3.19-3.3 3.26-0.2 0.08-0.9 1.08-1.6 2.18-1.2 2-1.3 2.1-3.9 2.9l-2.6 0.9 1-2.2c0.6-1.2 1.4-2.4 1.8-2.7 0.4-0.28 1.1-1.2 1.6-2.08s1.8-2.34 3-3.23c1.1-0.89 1.9-1.73 1.8-1.91-0.1-0.46-0.5-0.29-4.2 1.87-4.2 2.44-6.6 3.29-9 3.12-1.1-0.08-2-0.29-2-0.43-0.2-0.66 5.9-4.07 9-5.02 2.9-0.87 8.2-3.39 9.5-4.54 1.4-1.16 1.1-1.07 9.4-2.27 1.6-0.22 3.1-0.63 3.4-0.91 0.9-0.74 0.7-2.22-0.8-4.47-0.7-1.09-1.6-2.44-2-3.05-0.3-0.6-1.2-1.58-1.9-2.15-2.3-2.08-2.6-3.04-1.8-7.83 0.6-4.18 0.6-4.41-0.3-5.78-0.5-0.78-1.3-1.62-1.7-1.89-0.9-0.5-6.6-1.4-7.3-1.15-0.5 0.17-1.1-0.56-1.5-1.86-0.6-1.82-0.3-2.22 3-3.37 2.3-0.82 4.8-1.94 6.5-2.9l-1-0.19-4.1-0.29c-0.8-0.06-1.6-0.12-2.4-0.15-0.7-0.01-1.3-0.13-1.9-0.34-0.4-0.17-0.8-0.32-1.2-0.53-0.4-0.18-0.5-0.55-0.4-0.92 0.1-0.31 0.4-0.59 0.7-0.67 0.4-0.12 0.8-0.06 1.2 0.05l-0.4-0.82-0.5-0.84-0.3-0.88c-0.3-1.17-0.6-2.39-0.7-3.62l-0.7-0.84c-0.2-0.22-0.3-0.48-0.4-0.78-0.1-0.31 0-0.68 0.3-0.79 0.3-0.14 0.6-0.13 0.9 0.06l1.1 0.61c0.4 0.24 0.9 0.4 1.3 0.51 0.3 0.09 0.6 0.14 0.9 0.16l-0.4-0.57-0.5-0.88-0.5-1.21-0.3-0.59c-0.1-0.3 0.1-0.63 0.3-0.82 0.2-0.14 0.5-0.14 0.7-0.02 0.3 0.16 0.6 0.38 0.8 0.66 0.4 0.4 0.7 0.83 0.9 1.24 0.4 0.45 0.7 0.84 1.2 1.18 0.7 0.62 1.3 1.1 1.9 1.63 0.4 0.37 1.1 0.77 1.8 0.95 0.1 0.02 0.1 0.04 0.2 0.03 0.3 0.08 0.6-0.06 0.8-0.32 0.1-0.09 0.1-0.21 0.2-0.31 0-0.13 0-0.25-0.1-0.4-0.1-0.45-0.1-0.94-0.1-1.41 0.1-0.53 0.3-1.02 0.5-1.45 0.3-0.39 0.8-0.45 1.1-0.09 0.1 0.18 0.3 0.47 0.3 0.73 0.1 1.46 0.2 2.88 0.4 4.28l5 1.24 0.7-0.54 1-1.11c0.9-0.9 1.6-1.89 2.2-2.94 0.5-0.74 0.8-1.52 1-2.33 0.1-0.07 0.1-0.14 0.1-0.19 0.2-0.58 0.2-1.13 0.2-1.7-0.1-0.57-0.2-1.16-0.5-1.64-0.2-0.4-0.5-0.78-0.8-1.13-0.4-0.53-0.8-1.04-1.3-1.45-0.6-0.43-1.2-0.71-1.8-0.91-0.5-0.18-1.1-0.38-1.7-0.59-0.3-0.12-0.6-0.17-0.8-0.23-0.4-0.11-0.8-0.21-1.2-0.27-0.7-0.08-1.3-0.18-2-0.33l-0.9-0.13c-0.4-0.08-0.8-0.32-1.2-0.64-0.2-0.23-0.3-0.54-0.2-0.85 0.1-0.39 0.4-0.71 0.8-0.83 0.4-0.13 0.8-0.22 1.2-0.19 0.5 0.01 1 0.09 1.5 0.14l3-1.77-0.3-0.72c-0.3-0.8-0.6-1.64-0.7-2.51 0-0.32 0.2-0.61 0.4-0.8 0.2-0.14 0.5-0.16 0.7-0.08 0.3 0.07 0.5 0.22 0.6 0.42 0.2 0.28 0.4 0.6 0.5 0.89 0.1 0.4 0.3 0.76 0.6 1.09 0.2 0.34 0.4 0.63 0.6 0.92 0.2 0.18 0.4 0.38 0.5 0.56l0.3-0.05 0.5 0.03 1.6 0.27 1.5 0.33 1.8 0.32c0.6 0.12 1.2 0.13 1.7-0.01l0.3-0.34c0.1-0.22 0.2-0.44 0.2-0.65 0.1-0.05 0.1-0.07 0.1-0.12 0-0.25 0.1-0.47 0.1-0.7 0-0.24 0-0.52-0.1-0.76 0-0.2 0-0.41-0.1-0.57 0-0.09-0.1-0.2-0.2-0.25-0.1-0.08-0.2-0.15-0.3-0.29-0.2-0.15-0.3-0.34-0.5-0.46-0.2-0.11-0.4-0.22-0.5-0.35l-0.9-0.59-0.6-0.45c-0.4-0.23-0.7-0.52-0.9-0.83-0.2-0.19-0.3-0.35-0.4-0.55s-0.2-0.48 0-0.71c0.2-0.44 0.7-0.64 1.2-0.46 1 0.41 1.9 0.95 2.8 1.65 0 0.04 0.1 0.1 0.2 0.13 0.1 0.01 0.1-0.02 0.2 0 0.4-0.04 0.8-0.29 1-0.68 0-0.23 0.1-0.47 0.2-0.7v-0.06c0.1-0.26 0.1-0.5 0-0.77 0-0.18-0.1-0.42-0.3-0.57-0.2-0.26-0.4-0.48-0.6-0.71-0.4-0.39-0.8-0.84-1.1-1.31-0.1-0.2-0.1-0.4 0-0.6 0.1-0.18 0.2-0.35 0.4-0.48 0.1-0.08 0.2-0.1 0.3-0.12zm-8.1 14.36c-0.1 0.02-0.3 0.09-0.3 0.21-0.1 0.07-0.1 0.22 0 0.3 0.4 0.33 0.8 0.63 1.3 0.91 0.4 0.25 0.8 0.44 1.3 0.61 0.1 0.03 0.2 0.1 0.3 0.08 0.5-0.04 1-0.07 1.5-0.06 0.1-0.02 0.2-0.06 0.4-0.03v0.09c0.3 0.07 0.5 0.19 0.6 0.41 0.1 0.07 0.2 0.15 0.2 0.26s-0.1 0.3-0.1 0.4v0.05c-0.1 0.23-0.2 0.43-0.3 0.69v0.9c0.1 0.25 0.2 0.57 0.3 0.82 0.3 0.75 0.4 1.54 0.5 2.36v0.5c0.5-0.19 0.9-0.41 1.3-0.69 0.3-0.17 0.5-0.37 0.8-0.49 0.1-0.09 0.3-0.15 0.5-0.1 0.4 0.09 0.6 0.39 0.6 0.75 0 0.14 0 0.35-0.1 0.48 0 0.1 0 0.15-0.1 0.24-0.1 0.26-0.2 0.45-0.4 0.62-0.5 0.36-0.9 0.74-1.3 1.14s-0.9 0.8-1.3 1.23c-0.7 0.78-1.4 1.64-2 2.53-0.4 0.56-0.8 1.17-1.3 1.75l-0.5 0.7v0.03c1.9-0.51 3.6-1.2 5.3-2.05 0.7-0.34 1.2-0.71 1.8-1.16 0.7-0.55 1.3-1.18 1.9-1.89 0.4-0.54 0.7-1.15 0.9-1.76 0.1-0.2 0.2-0.42 0.2-0.63 0.2-0.68 0.2-1.43 0.1-2.15-0.1-1.39-0.6-2.69-1.6-3.74-0.6-0.7-1.3-1.27-2-1.68-0.9-0.44-1.8-0.81-2.7-1.04-0.2-0.08-0.5-0.14-0.7-0.21-0.8-0.19-1.6-0.35-2.4-0.45-0.1-0.01-0.3-0.02-0.4-0.02-0.2-0.01-0.3 0-0.4-0.02-0.1 0.01-0.3 0.04-0.4 0.07-0.3 0.02-0.6-0.01-1-0.04-0.2 0.01-0.3 0.04-0.5 0.08zm-16.7 15c0 0.83 0 1.64 0.3 2.4 0.2 0.95 0.8 1.83 1.6 2.51 0.2 0.16 0.4 0.35 0.7 0.48 0.2 0.08 0.4 0.09 0.6 0.17 0.1 0.03 0.2 0.07 0.3 0.09s0.1 0.04 0.2 0.05l0.3-0.06c0-0.31-0.1-0.61-0.3-0.88-0.3-0.38-0.5-0.81-0.6-1.26v-0.35c0.1-0.19 0.2-0.3 0.4-0.39 0.3-0.1 0.6-0.15 0.9-0.07 0 0.02 0.1 0.06 0.2 0.08 0.4 0.15 0.7 0.37 1 0.65 0.3 0.26 0.7 0.54 0.9 0.87 0.3 0.32 0.5 0.63 0.8 0.94l0.2 0.33c1.2 0.47 2.4 0.75 3.6 0.88l0.9 0.06 0.6 0.02c0-0.26-0.1-0.56-0.2-0.82-0.1-0.32-0.3-0.65-0.5-0.91-0.3-0.36-0.7-0.71-1.1-0.98-0.5-0.38-1-0.69-1.6-0.92-1-0.47-2.1-0.88-3.2-1.26l-0.6-0.2-0.5-0.16-1-0.28-2.5-0.63-1.4-0.36z"/>
        <path id="path3132" d="m1240.2 913.07c0.2-0.04 0.4-0.06 0.6-0.03 0.1 0.06 0.3 0.12 0.4 0.2 0.2 0.09 0.3 0.25 0.5 0.38 0.3 0.33 0.7 0.55 1.1 0.68l0.1-0.1 0.1-0.13c0.1-0.12 0.1-0.25 0.1-0.38 0.2-0.49 0.5-0.84 0.9-1.13 0.2-0.1 0.4-0.14 0.6-0.14 0.1 0 0.1-0.03 0.2-0.01 0.2 0.04 0.4 0.17 0.5 0.34 0.1 0.1 0.2 0.22 0.2 0.36v0.85l-0.3 1.54v0.17c0 0.25 0 0.51-0.1 0.74-0.2 0.71-0.5 1.39-0.8 2.05-0.3 0.7-0.6 1.36-0.7 2.09v0.76c-0.1 0.27 0 0.58 0 0.85 0.1 0.63 0.1 1.1 0.2 1.61-0.1-0.25 0-0.08 0 0.09 0.1 0.32 0.1 0.7 0.1 1.08 0 0.19-0.1 0.32-0.1 0.46v0.87c0 0.11-0.1 0.19-0.1 0.3l0.5 0.42c0.1 0.17 0.2 0.32 0.4 0.4 0.2 0.18 0.4 0.33 0.7 0.48 0.2 0.18 0.5 0.33 0.7 0.46 0.1 0.05 0.3 0.13 0.4 0.16 0.2 0.03 0.4 0.02 0.6-0.03 0.3-0.04 0.5-0.13 0.8-0.28 0.2-0.15 0.5-0.26 0.7-0.42 0 0.01 0.1-0.07 0.2-0.14 0.1-0.09 0.2-0.15 0.3-0.24 0.1-0.1 0.2-0.2 0.3-0.29 0.2-0.14 0.3-0.29 0.4-0.44 0.2-0.21 0.3-0.33 0.4-0.48 0-0.05 0.2-0.2 0.3-0.37 0.2-0.28 0.3-0.53 0.5-0.81 0.3-0.66 0.6-1.39 0.8-2.14 0-0.1 0-0.27 0.1-0.41v-0.5c0-0.52 0.1-1.02 0.2-1.56 0-0.24 0.1-0.47 0.2-0.64 0.1-0.13 0.1-0.22 0.2-0.32 0-0.19 0.2-0.37 0.3-0.51 0.1-0.15 0.2-0.3 0.3-0.42 0.2-0.14 0.3-0.19 0.5-0.21 0.1-0.01 0.1-0.02 0.2-0.01 0.1 0.04 0.1 0.07 0.2 0.08 0.1 0.04 0.1 0.08 0.2 0.14 0 0.15 0.1 0.21 0.1 0.25 0 0.03 0.1 0.09 0.1 0.18v0.59c-0.1 0.8-0.1 1.6-0.2 2.42l-0.1 0.95c-0.1 0.24 0 0.56 0.1 0.8 0 0.08 0.1 0.16 0.2 0.23s0.2 0.16 0.3 0.17c0.2 0.03 0.3 0.01 0.4 0.01 0.2-0.05 0.4-0.07 0.6-0.14 0.2-0.1 0.4-0.25 0.7-0.4 0.5-0.33 0.9-0.62 1.3-1.01 0.4-0.3 0.8-0.6 1.2-0.83 0.1-0.06 0.2-0.09 0.3-0.07 0.1 0.05 0.2 0.11 0.3 0.15s0.1 0.06 0.2 0.14c0 0.12 0.1 0.27 0.1 0.38 0 0.14-0.1 0.26-0.1 0.39v0.11c0 0.14-0.1 0.29-0.1 0.46v0.28c0 0.1-0.1 0.22-0.2 0.29 0 0.16-0.1 0.3-0.2 0.45 0 0.13-0.1 0.26-0.2 0.38-0.2 0.2-0.4 0.39-0.5 0.58-0.3 0.26-0.6 0.49-0.9 0.63-0.3 0.17-0.6 0.31-0.9 0.45-0.1 0.03-0.2 0.07-0.3 0.11-0.2 0.05-0.4 0.07-0.7 0.14-0.2 0.09-0.5 0.16-0.8 0.25-0.2 0.1-0.5 0.15-0.8 0.22-0.1 0.08-0.4 0.21-0.6 0.31-0.2 0.07-0.4 0.17-0.6 0.25-0.2 0.1-0.4 0.17-0.6 0.27-0.6 0.38-1.3 0.79-1.8 1.26-0.7 0.58-1.2 1.36-1.5 2.19-0.1 0.23-0.2 0.4-0.2 0.65 0 0.24-0.1 0.49-0.1 0.73 0 0.42 0.1 0.84 0.1 1.24 0 0.42 0.1 0.81 0.1 1.23v0.48c0 0.35-0.1 0.65-0.1 1 0 0.05-0.1 0.16-0.1 0.24-0.2 1.23-0.7 2.41-1.4 3.41l-0.7 0.96-0.9 0.94c-0.7 0.72-1.6 1.43-2.5 1.92-0.4 0.24-1 0.57-1.7 0.95-4.1 2.35-4.4 3.72-5.9 4.69l-0.2-0.14c0 0.39 0.1 0.62 0.1 0.65 0.4 0.15 4.1 6.21 5.7 9.45 3 5.65 5.4 7.65 8.7 7.18 1.9-0.26 5.5 1.37 7.4 3.39 0.9 0.89 5.6 1.2 9.6 0.63 1.5-0.21 2.8-0.3 3.1-0.24 0.2 0.07 2.8-0.31 5.6-0.79s6.6-1.01 8.4-1.2c1.8-0.18 3.6-0.46 4-0.63 1-0.45 1.9-2.16 2.7-5.61 0.4-1.74 1.1-3.48 1.6-4.11 1.5-1.64 4.8-3.77 5.5-3.5 0.8 0.32 0.6 0.82-0.8 2.54-1.5 1.68-2.4 4.1-1.9 5.11 0.1 0.37 0.1 0.98-0.2 1.39-1.1 1.86-1 3.12 0.7 6.35 1.5 3 1.6 3.11 1.4 6.15-0.2 3.98 0.5 5.67 2.6 6.73 1.6 0.76 5.2 0.86 7.5 0.17 0.9-0.29 1.5-0.11 3.4 1.38 1.2 0.98 3 2.12 4 2.52 2.6 1.1 8.5 2.32 9.4 1.95 0.4-0.17 1.4-0.2 2.2-0.08 1.6 0.25 4.4 1.69 4.2 2.18-0.1 0.18-0.8 0.62-1.7 0.99l-1.6 0.67 0.8 1.3c0.8 1.24 0.9 1.35-0.1 1.9-0.5 0.32-1.1 0.59-1.4 0.63-0.3 0.05-0.7 0.17-0.8 0.24-0.2 0.06-0.9-0.08-1.5-0.31-0.7-0.23-1.9-0.56-2.6-0.71-2.6-0.53-6.7-2.24-7.6-3.13-0.5-0.5-2.3-1.26-3.9-1.77-2.8-0.89-2.9-0.94-6.4 0.05-2 0.55-4.4 1.26-5.3 1.56-5.7 1.84-8.3 1.49-12.1-1.59-3.5-2.83-5.9-3.11-11.3-1.34-2 0.66-3.8 1.41-4 1.64-0.1 0.22-0.7 0.52-1.2 0.69-1.2 0.37-5.1 0.84-6.3 0.75-1.8-0.14-8.4-0.75-10.5-0.97-1.3-0.12-2.5-0.21-2.9-0.22-0.4 0-1.1-0.13-1.7-0.23-0.6-0.11-2 0.23-3.5 0.8-2.5 0.98-4.4 1.1-9.2 0.42-4.8-0.69-7.1 0.41-10.9 5.27-1.4 1.86-2.8 3.42-3 3.52s-0.9 1.1-1.4 2.3c-1 2.1-1.2 2.2-3.7 3.3l-2.5 1 0.9-2.2c0.5-1.3 1.2-2.6 1.5-2.9 0.4-0.3 1-1.3 1.4-2.2 0.5-0.89 1.7-2.46 2.7-3.44 1-0.99 1.8-1.89 1.7-2.07-0.2-0.44-0.6-0.24-4.1 2.23-3.9 2.78-6.3 3.88-8.7 3.88-1.1 0-2-0.1-2-0.3-0.3-0.6 5.5-4.53 8.5-5.73 2.8-1.12 7.9-4.07 9.2-5.33 1.3-1.28 1-1.17 9.1-3.06 1.6-0.35 3-0.89 3.3-1.19 0.9-0.82 0.5-2.28-1.1-4.39-0.8-1.03-1.8-2.3-2.3-2.87-0.4-0.57-1.3-1.47-2-1.99-2.6-1.87-2.9-2.81-2.5-7.64 0.2-4.22 0.2-4.44-0.8-5.73-0.6-0.74-1.4-1.51-1.9-1.74-0.9-0.43-6.6-0.84-7.3-0.53-0.6 0.21-1.2-0.47-1.7-1.73-0.8-1.76-0.5-2.19 2.7-3.61 2.3-1.01 4.6-2.33 6.2-3.44l-1-0.1-4.1 0.05c-0.8 0.01-1.5 0.01-2.4 0.06-0.6 0.05-1.3-0.02-1.9-0.19-0.4-0.13-0.8-0.24-1.3-0.42-0.3-0.15-0.5-0.51-0.4-0.88 0.1-0.32 0.3-0.62 0.6-0.73 0.4-0.15 0.8-0.13 1.3-0.06l-0.6-0.77-0.5-0.8-0.3-0.86c-0.5-1.13-0.9-2.32-1.1-3.54l-0.8-0.77c-0.2-0.2-0.4-0.46-0.5-0.75-0.1-0.3 0-0.67 0.3-0.82 0.3-0.16 0.6-0.17 0.9-0.01l1.2 0.51c0.4 0.21 0.9 0.33 1.3 0.41 0.3 0.06 0.6 0.08 0.9 0.08l-0.5-0.54-0.5-0.84-0.6-1.15-0.3-0.57c-0.2-0.29 0-0.63 0.2-0.84 0.2-0.16 0.5-0.18 0.7-0.09 0.3 0.14 0.6 0.34 0.8 0.6 0.4 0.37 0.7 0.77 1.1 1.16 0.3 0.42 0.7 0.78 1.2 1.08 0.7 0.55 1.4 0.98 2 1.46 0.5 0.33 1.2 0.67 1.9 0.79 0.1 0.02 0.2 0.03 0.2 0.02 0.3 0.05 0.6-0.12 0.8-0.39 0.1-0.1 0.1-0.22 0.1-0.32 0.1-0.14 0-0.25 0-0.4-0.2-0.44-0.3-0.92-0.3-1.39 0-0.53 0.2-1.04 0.4-1.49 0.2-0.41 0.7-0.51 1.1-0.18 0.1 0.17 0.3 0.44 0.3 0.7 0.2 1.45 0.5 2.85 0.8 4.23l5.1 0.81 0.6-0.59 1-1.2c0.7-0.96 1.4-2.02 1.9-3.12 0.4-0.76 0.6-1.57 0.8-2.4 0-0.08 0.1-0.14 0.1-0.19 0.1-0.59 0.1-1.14 0-1.71s-0.3-1.14-0.6-1.59c-0.3-0.38-0.6-0.74-0.9-1.06-0.5-0.5-0.9-0.97-1.5-1.34s-1.2-0.6-1.8-0.75c-0.5-0.14-1.1-0.29-1.7-0.45-0.4-0.09-0.6-0.12-0.9-0.16-0.4-0.08-0.8-0.14-1.2-0.16-0.7-0.03-1.3-0.08-2-0.17l-0.9-0.05c-0.4-0.05-0.9-0.25-1.2-0.54-0.3-0.21-0.4-0.51-0.3-0.82 0.1-0.41 0.3-0.75 0.7-0.9 0.4-0.16 0.8-0.29 1.2-0.3 0.5-0.03 1 0.02 1.5 0.02l2.8-2.01-0.3-0.7c-0.5-0.77-0.8-1.59-0.9-2.44-0.1-0.32 0.1-0.63 0.3-0.83 0.2-0.16 0.5-0.21 0.7-0.14 0.3 0.04 0.5 0.18 0.6 0.37 0.2 0.26 0.4 0.57 0.6 0.84 0.1 0.39 0.4 0.73 0.6 1.05 0.3 0.32 0.5 0.59 0.8 0.85 0.1 0.17 0.3 0.35 0.5 0.52l0.3-0.07 0.5-0.02 1.6 0.14 1.5 0.2 1.8 0.16c0.6 0.08 1.3 0.03 1.8-0.15l0.2-0.36c0.1-0.23 0.2-0.46 0.2-0.67 0-0.05 0-0.08 0.1-0.13v-0.7c0-0.24-0.1-0.52-0.1-0.75-0.1-0.2-0.1-0.4-0.2-0.56-0.1-0.09-0.2-0.19-0.2-0.23-0.2-0.08-0.3-0.13-0.4-0.26-0.1-0.14-0.3-0.31-0.5-0.43-0.2-0.08-0.4-0.18-0.6-0.29l-0.9-0.52-0.7-0.39c-0.3-0.2-0.7-0.47-0.9-0.76-0.2-0.17-0.3-0.32-0.5-0.51-0.1-0.19-0.1-0.47 0-0.7 0.2-0.46 0.7-0.71 1.2-0.57 1 0.33 2 0.78 2.9 1.41 0 0.04 0.1 0.08 0.2 0.1 0.1 0.01 0.1-0.02 0.2-0.01 0.4-0.07 0.8-0.36 0.9-0.76 0.1-0.23 0.1-0.47 0.2-0.71v-0.06c0-0.27 0-0.51-0.1-0.77 0-0.18-0.1-0.41-0.3-0.55-0.2-0.23-0.4-0.44-0.7-0.65-0.4-0.36-0.8-0.77-1.2-1.21-0.1-0.19-0.1-0.39-0.1-0.6 0.1-0.18 0.2-0.36 0.4-0.5 0.1-0.1 0.2-0.13 0.3-0.16zm-6.9 14.99c-0.1 0.04-0.2 0.12-0.3 0.25-0.1 0.07 0 0.21 0.1 0.29 0.4 0.29 0.9 0.55 1.3 0.8 0.5 0.21 0.9 0.36 1.4 0.5 0.1 0.02 0.2 0.08 0.4 0.04 0.4-0.08 0.9-0.14 1.4-0.17 0.1-0.04 0.2-0.09 0.4-0.07v0.09c0.3 0.05 0.5 0.15 0.7 0.35 0.1 0.07 0.1 0.14 0.1 0.25s0 0.3-0.1 0.41c0 0.03 0.1 0.05 0.1 0.05-0.1 0.24-0.2 0.44-0.2 0.71-0.1 0.18 0 0.38 0 0.54v0.36c0.1 0.24 0.3 0.54 0.4 0.79 0.3 0.72 0.6 1.49 0.7 2.31l0.1 0.49c0.4-0.23 0.8-0.48 1.2-0.8 0.2-0.19 0.4-0.4 0.7-0.55 0.2-0.11 0.3-0.18 0.6-0.14 0.3 0.06 0.6 0.33 0.6 0.69v0.49c0 0.1-0.1 0.15-0.1 0.25-0.1 0.27-0.2 0.47-0.4 0.66-0.5 0.39-0.8 0.81-1.2 1.24s-0.8 0.87-1.1 1.33c-0.7 0.84-1.4 1.75-1.9 2.69-0.4 0.6-0.7 1.24-1.1 1.86l-0.5 0.74 0.1 0.02c1.8-0.66 3.5-1.5 5.1-2.49 0.6-0.39 1.1-0.81 1.7-1.3 0.6-0.61 1.2-1.29 1.6-2.04 0.4-0.58 0.7-1.21 0.9-1.84 0-0.2 0.1-0.43 0.1-0.64 0.1-0.7 0.1-1.44-0.1-2.15-0.2-1.37-0.9-2.62-1.9-3.6-0.6-0.64-1.4-1.15-2.2-1.49-0.8-0.37-1.8-0.66-2.7-0.82-0.2-0.05-0.5-0.1-0.8-0.14-0.8-0.12-1.6-0.22-2.4-0.25-0.1 0-0.3 0.01-0.4 0.02-0.1 0-0.2 0.02-0.4 0.01-0.1 0.02-0.2 0.06-0.3 0.09-0.4 0.05-0.7 0.06-1 0.05-0.2 0.02-0.4 0.07-0.6 0.12zm-15.3 16.36c0 0.83 0.1 1.63 0.4 2.37 0.4 0.92 1 1.75 1.8 2.37 0.3 0.14 0.5 0.31 0.8 0.41 0.2 0.07 0.4 0.07 0.6 0.13l0.3 0.06c0.1 0.02 0.1 0.02 0.2 0.03l0.3-0.09c0-0.3-0.1-0.59-0.3-0.85-0.3-0.35-0.6-0.76-0.7-1.2 0-0.12-0.1-0.22-0.1-0.35 0.1-0.19 0.2-0.31 0.4-0.42 0.2-0.12 0.5-0.2 0.8-0.15 0.1 0.02 0.2 0.05 0.3 0.06 0.3 0.12 0.7 0.32 1 0.57 0.4 0.23 0.7 0.48 1 0.78s0.6 0.59 0.8 0.88l0.3 0.31c1.2 0.37 2.4 0.55 3.7 0.57l0.9-0.01 0.5-0.03c0-0.26 0-0.56-0.2-0.81-0.2-0.3-0.3-0.62-0.6-0.86-0.3-0.34-0.7-0.65-1.1-0.88-0.6-0.34-1.1-0.6-1.7-0.78-1.1-0.38-2.2-0.71-3.3-0.99l-0.6-0.15-0.5-0.12-1.1-0.19-2.5-0.42-1.4-0.24z"/>
        <path id="path3134" d="m789.5 1002c-0.81 0-1.66 0.2-2.69 0.5-1.86 0.7-3.45 2.3-3.56 3.6s-0.74 2.3-1.41 2.2c-0.66 0-1.07 1-0.93 2.3 0.3 2.8-4.15 7.7-6.88 7.4-1.12-0.1-2.13 0.7-2.22 1.8-0.1 1.1-0.85 1.5-2.09 0.9-1.08-0.6-1.35-1.3-0.63-1.6 0.72-0.4-8.24-1.6-19.93-2.6-2.62-0.2-4.62-0.4-6.6-0.5v-0.1s-84.95-8.4-183.25-12.1c-24.57-0.9-47.05-1.4-66.9-1.6-19.86-0.1-37.1 0-51.29 0.2-28.37 0.5-44.46 1.4-44.46 1.4l-0.25 0.1s16.4 0.6 44.75 0.1c28.34-0.5 68.97-0.4 118.09 1.4 98.24 3.6 183.16 12.1 183.16 12.1 3.26 0.5 6.8 0.9 9.78 1.2 5.71 0.5 11.63 1.8 13.22 2.8 6.19 4 6.25 4.1 2.47 7.1-4.31 3.4-5.58 3.4-7 0.1-0.6-1.4-2.06-3-3.22-3.5-2.6-1.3-6.41 1.6-5.22 4 0.64 1.2 1.35 1.1 2.78-0.6 2.6-3 3.74-1.2 1.47 2.3-3.13 4.9-5.73 5.8-9.5 3.4-1.83-1.1-4.2-2.1-5.31-2.2-3.74-0.3-8.24 3.1-10.26 7.9-1.67 4-1.73 5.5-0.4 9.6 0.87 2.7 2.59 5.4 3.81 6s2.87 1.8 3.66 2.7c2.52 3 21.67 9.8 33.47 12 19.25 3.6 32.82 4.6 37.53 2.7 3.41-1.4 4.25-2.5 4.53-5.8 0.41-5-1.36-7.4-5.84-7.7-2.33-0.2-3.9 0.6-5.04 2.7-1.58 2.8-1.3 4.5 0.72 4.6 0.52 0.1 0.77-1 0.53-2.4-0.45-2.6 2.47-3.7 6.5-2.5 2.79 0.9 2.51 5.4-0.53 8.3-2.99 2.8-10.7 2.2-11.59-0.8-0.36-1.2-1.61-3.4-2.78-4.8-2.62-3.1-2.58-5.1 0.06-4.8 4.08 0.3 8.33-4.9 9.81-12 1.94-9.2 3.57-11.4 8.13-11 2.8 0.2 3.59-0.2 3.15-1.7-0.31-1.1-1.53-2-2.68-2.2-1.86-0.2-1.84-0.3 0.25-1.3 1.29-0.7 2.84-0.8 3.43-0.4 0.6 0.5 1.52 0 2.04-1.1 1.39-2.9 1.26-3.3-0.91-2.7-1.2 0.4-2.71-0.7-3.78-2.7-2.18-4-7.72-6.3-15.63-6.5-5.4-0.1-6.1-0.5-6.56-3.3-0.71-4.3 0.5-5.5 5.28-5.2 2.25 0.1 3.24-0.2 2.22-0.7s-2.1-1.3-2.41-1.8-2.28-2.1-4.43-3.4c-1.98-1.3-3.3-1.8-4.66-1.8zm-47.75 32.8h0.66c1.74 0.2 3.32 1.2 4.87 3 1.71 2 2.16 3.8 1.44 5.9-0.09 0.2-0.16 0.5-0.22 0.7h-0.03c-1.39 2.7-4.4 4.1-6.94 2.7-0.92-0.5-1.7-1.5-2.06-2.5-0.36-1.1-0.37-2.2 0.19-3.2 0.29-0.5 0.89-1 1.46-1.2 0.58-0.2 1.07-0.1 1.5 0.3 0.3 0.3 0.76 0.3 1.04 0s0.26-0.8-0.04-1.2c-0.41-0.4-0.89-0.7-1.4-0.8s-1.03 0-1.5 0.1c-0.95 0.3-1.78 1-2.28 2-0.82 1.4-0.81 3.1-0.32 4.6 0.5 1.4 1.49 2.7 2.76 3.4 2.79 1.5 5.97 0.4 7.93-1.9 0.21 0.1 0.48 0.1 0.81 0.1 2.5 0.2 2.26 3.6-0.31 4.4-1.07 0.3-2.81 2.2-3.87 4.1-2.14 4.1-3.32 3.7-10-3-4.61-4.7-4.09-12 1.06-15.4 1.99-1.3 3.69-2 5.25-2.1zm10.03 17.4c0.36 0 0.75 0 1.19 0.1 3.66 0.3 4.23 1 6.19 6.9 2.35 7.2 1.81 7.7-4.78 4.2-4.21-2.3-5.4-6.9-1.47-5.7 1.21 0.3 2.07 1.6 1.87 2.8s0.16 2.2 0.78 2.3c2.28 0.2 1.41-4.9-1-5.9-3.26-1.3-5.09-0.2-5.37 3.1-0.15 1.9-0.61 2.3-1.41 1.4-0.65-0.8-0.69-3.2-0.06-5.4 0.88-3.1 1.55-3.8 4.06-3.8zm8.91 2.1c0.99-0.1 2.72 0.4 5.47 1.2 3.02 0.9 3.73 1.6 3.06 3.3-0.49 1.2-0.13 2.8 0.78 3.7 2.34 2.3 6.3 0.9 5.78-2-0.33-1.9 0.25-2.2 4.5-1.7-0.09 1.9 0.33 0.1 0.47 0.1 0.27 0 0.49 0.1 0.78 0.1 4.95 0.7 6.67 1.6 8.59 4.5 1.33 2 3.06 3.3 3.82 2.9s1.81 0.2 2.34 1.2c1.54 3 0.99 4.3-0.97 2.4-1.23-1.2-1.82-1.4-1.9-0.4-4.66 2-11.34 0.2-15.16-0.7-1.48-0.2-3.05-0.3-4.37-0.7-4.59-1.3-8.09-4.8-7.91-8 0.05-0.9-0.46-1.9-1.13-2.4-0.8-0.6-0.91 0.2-0.25 2.5 1.23 4.3 1.2 4.7-0.25 4.5-0.63 0-2.14-2.5-3.37-5.4-1.52-3.6-1.94-5.1-0.28-5.1zm17.73 14.6c0.15 0 0.68 0 0.84 0.1 1.94-2.4 2.34-7.8 1.9-10.1-0.16 0-0.73 0-0.88-0.1-0.07 0.7-0.21 1.6-0.22 1.6-0.1 1-0.45 2.1-0.82 4.3-0.34 2-0.79 3.3-0.82 4.2zm-6.2-10.9c0.6 0 1.22 0.3 1.84 1 0.91 1.1 0.91 2-0.09 2.8-1 0.9-1.88 0.6-2.85-0.8-1.19-1.7-0.23-3 1.1-3zm19.44 2.6c0.73 0.1 1.58 1.1 1.9 2.2 0.9 3.1-0.37 3.3-1.9 0.4-0.86-1.7-0.84-2.6 0-2.6zm17.18 2.8c-0.31 0-0.8 0.6-1.37 1.8-0.49 1-0.34 1.9 0.34 1.9 0.68 0.1 1.35-0.7 1.44-1.8 0.1-1.2-0.09-1.9-0.41-1.9z" transform="translate(839.48 -33.371)"/>
      </g>
      <g id="g2661" fill-rule="evenodd" transform="matrix(.090728 .052258 -.057997 .081750 978.17 399.08)">
        <path id="path2663" d="m23.888 766.01l-141.22-207.2-139.78 208.17 108.84-225.9-250.17-16.96 250.05-18.7-110.4-225.14 141.22 207.21 139.78-208.18-108.84 225.9 250.17 16.97-250.04 18.69 110.39 225.14z" style="color:#000000" fill="url(#radialGradient12590)" transform="matrix(.067658 0 0 .067658 -37.241 517.84)"/>
        <path id="path2665" opacity=".72692" style="color:#000000" d="m-555.4 541.06a78.632 352.35 0 1 1 -157.26 0 78.632 352.35 0 1 1 157.26 0z" transform="matrix(.065176 .034653 -.034653 .065176 15.133 539.27)" fill="url(#radialGradient12592)"/>
        <path id="path2667" opacity=".72692" style="color:#000000" d="m-555.4 541.06a78.632 352.35 0 1 1 -157.26 0 78.632 352.35 0 1 1 157.26 0z" transform="matrix(.064480 -.035931 .035931 .064480 -23.644 494.89)" fill="url(#radialGradient12594)"/>
        <path id="path2669" opacity=".72692" style="color:#000000" d="m-555.4 541.06a78.632 352.35 0 1 1 -157.26 0 78.632 352.35 0 1 1 157.26 0z" transform="matrix(-.00066754 -.073812 .073812 -.00066754 -85.3 506.9)" fill="url(#radialGradient12596)"/>
      </g>
      <g id="g2679" fill-rule="evenodd" transform="matrix(.090728 .052258 -.057997 .081750 1071.6 399.08)">
        <path id="path2681" d="m23.888 766.01l-141.22-207.2-139.78 208.17 108.84-225.9-250.17-16.96 250.05-18.7-110.4-225.14 141.22 207.21 139.78-208.18-108.84 225.9 250.17 16.97-250.04 18.69 110.39 225.14z" style="color:#000000" fill="url(#radialGradient12590)" transform="matrix(.067658 0 0 .067658 -37.241 517.84)"/>
        <path id="path2683" opacity=".72692" style="color:#000000" d="m-555.4 541.06a78.632 352.35 0 1 1 -157.26 0 78.632 352.35 0 1 1 157.26 0z" transform="matrix(.065176 .034653 -.034653 .065176 15.133 539.27)" fill="url(#radialGradient12592)"/>
        <path id="path2685" opacity=".72692" style="color:#000000" d="m-555.4 541.06a78.632 352.35 0 1 1 -157.26 0 78.632 352.35 0 1 1 157.26 0z" transform="matrix(.064480 -.035931 .035931 .064480 -23.644 494.89)" fill="url(#radialGradient12594)"/>
        <path id="path2687" opacity=".72692" style="color:#000000" d="m-555.4 541.06a78.632 352.35 0 1 1 -157.26 0 78.632 352.35 0 1 1 157.26 0z" transform="matrix(-.00066754 -.073812 .073812 -.00066754 -85.3 506.9)" fill="url(#radialGradient12596)"/>
      </g>
      <g id="g2697" fill-rule="evenodd" transform="matrix(.090728 .052258 -.057997 .081750 1036 441.8)">
        <path id="path2699" d="m23.888 766.01l-141.22-207.2-139.78 208.17 108.84-225.9-250.17-16.96 250.05-18.7-110.4-225.14 141.22 207.21 139.78-208.18-108.84 225.9 250.17 16.97-250.04 18.69 110.39 225.14z" style="color:#000000" fill="url(#radialGradient12590)" transform="matrix(.067658 0 0 .067658 -37.241 517.84)"/>
        <path id="path2701" opacity=".72692" style="color:#000000" d="m-555.4 541.06a78.632 352.35 0 1 1 -157.26 0 78.632 352.35 0 1 1 157.26 0z" transform="matrix(.065176 .034653 -.034653 .065176 15.133 539.27)" fill="url(#radialGradient12592)"/>
        <path id="path2703" opacity=".72692" style="color:#000000" d="m-555.4 541.06a78.632 352.35 0 1 1 -157.26 0 78.632 352.35 0 1 1 157.26 0z" transform="matrix(.064480 -.035931 .035931 .064480 -23.644 494.89)" fill="url(#radialGradient12594)"/>
        <path id="path2705" opacity=".72692" style="color:#000000" d="m-555.4 541.06a78.632 352.35 0 1 1 -157.26 0 78.632 352.35 0 1 1 157.26 0z" transform="matrix(-.00066754 -.073812 .073812 -.00066754 -85.3 506.9)" fill="url(#radialGradient12596)"/>
      </g>
      <g id="g2715" fill-rule="evenodd" transform="matrix(.090728 .052258 -.057997 .081750 1313.7 330.71)">
        <path id="path2717" d="m23.888 766.01l-141.22-207.2-139.78 208.17 108.84-225.9-250.17-16.96 250.05-18.7-110.4-225.14 141.22 207.21 139.78-208.18-108.84 225.9 250.17 16.97-250.04 18.69 110.39 225.14z" style="color:#000000" fill="url(#radialGradient12590)" transform="matrix(.067658 0 0 .067658 -37.241 517.84)"/>
        <path id="path2719" opacity=".72692" style="color:#000000" d="m-555.4 541.06a78.632 352.35 0 1 1 -157.26 0 78.632 352.35 0 1 1 157.26 0z" transform="matrix(.065176 .034653 -.034653 .065176 15.133 539.27)" fill="url(#radialGradient12592)"/>
        <path id="path2721" opacity=".72692" style="color:#000000" d="m-555.4 541.06a78.632 352.35 0 1 1 -157.26 0 78.632 352.35 0 1 1 157.26 0z" transform="matrix(.064480 -.035931 .035931 .064480 -23.644 494.89)" fill="url(#radialGradient12594)"/>
        <path id="path2723" opacity=".72692" style="color:#000000" d="m-555.4 541.06a78.632 352.35 0 1 1 -157.26 0 78.632 352.35 0 1 1 157.26 0z" transform="matrix(-.00066754 -.073812 .073812 -.00066754 -85.3 506.9)" fill="url(#radialGradient12596)"/>
      </g>
      <g id="g2733" fill-rule="evenodd" transform="matrix(.090728 .052258 -.057997 .081750 1356.4 448.93)">
        <path id="path2735" d="m23.888 766.01l-141.22-207.2-139.78 208.17 108.84-225.9-250.17-16.96 250.05-18.7-110.4-225.14 141.22 207.21 139.78-208.18-108.84 225.9 250.17 16.97-250.04 18.69 110.39 225.14z" style="color:#000000" fill="url(#radialGradient12590)" transform="matrix(.067658 0 0 .067658 -37.241 517.84)"/>
        <path id="path2737" opacity=".72692" style="color:#000000" d="m-555.4 541.06a78.632 352.35 0 1 1 -157.26 0 78.632 352.35 0 1 1 157.26 0z" transform="matrix(.065176 .034653 -.034653 .065176 15.133 539.27)" fill="url(#radialGradient12592)"/>
        <path id="path2739" opacity=".72692" style="color:#000000" d="m-555.4 541.06a78.632 352.35 0 1 1 -157.26 0 78.632 352.35 0 1 1 157.26 0z" transform="matrix(.064480 -.035931 .035931 .064480 -23.644 494.89)" fill="url(#radialGradient12594)"/>
        <path id="path2741" opacity=".72692" style="color:#000000" d="m-555.4 541.06a78.632 352.35 0 1 1 -157.26 0 78.632 352.35 0 1 1 157.26 0z" transform="matrix(-.00066754 -.073812 .073812 -.00066754 -85.3 506.9)" fill="url(#radialGradient12596)"/>
      </g>
    </g>
  </g>
  <metadata>
    <rdf:RDF>
      <cc:Work>
        <dc:format>image/svg+xml</dc:format>
        <dc:type rdf:resource="http://purl.org/dc/dcmitype/StillImage"/>
        <cc:license rdf:resource="http://creativecommons.org/licenses/publicdomain/"/>
        <dc:publisher>
          <cc:Agent rdf:about="http://openclipart.org/">
            <dc:title>Openclipart</dc:title>
          </cc:Agent>
        </dc:publisher>
      </cc:Work>
      <cc:License rdf:about="http://creativecommons.org/licenses/publicdomain/">
        <cc:permits rdf:resource="http://creativecommons.org/ns#Reproduction"/>
        <cc:permits rdf:resource="http://creativecommons.org/ns#Distribution"/>
        <cc:permits rdf:resource="http://creativecommons.org/ns#DerivativeWorks"/>
      </cc:License>
    </rdf:RDF>
  </metadata>
</svg>
