<?xml version="1.0" encoding="UTF-8" standalone="no"?>
<!-- Created with Inkscape (http://www.inkscape.org/) -->

<svg
   xmlns:dc="http://purl.org/dc/elements/1.1/"
   xmlns:cc="http://creativecommons.org/ns#"
   xmlns:rdf="http://www.w3.org/1999/02/22-rdf-syntax-ns#"
   xmlns:svg="http://www.w3.org/2000/svg"
   xmlns="http://www.w3.org/2000/svg"
   xmlns:sodipodi="http://sodipodi.sourceforge.net/DTD/sodipodi-0.dtd"
   xmlns:inkscape="http://www.inkscape.org/namespaces/inkscape"
   width="3200"
   height="800"
   id="svg2"
   version="1.1"
   inkscape:version="0.92.2 5c3e80d, 2017-08-06"
   sodipodi:docname="helloworld2.svg">
  <sodipodi:namedview
     id="base"
     pagecolor="#ffffff"
     bordercolor="#666666"
     borderopacity="1.0"
     inkscape:pageopacity="0.0"
     inkscape:pageshadow="2"
     inkscape:zoom="0.2925"
     inkscape:cx="1596.5812"
     inkscape:cy="400"
     inkscape:document-units="px"
     inkscape:current-layer="layer1"
     showgrid="false"
     inkscape:window-width="1440"
     inkscape:window-height="856"
     inkscape:window-x="20"
     inkscape:window-y="20"
     inkscape:window-maximized="0" />
  <defs
     id="defs4" />
  <metadata
     id="metadata7">
    <rdf:RDF>
      <cc:Work
         rdf:about="">
        <dc:format>image/svg+xml</dc:format>
        <dc:type
           rdf:resource="http://purl.org/dc/dcmitype/StillImage" />
        <dc:title />
      </cc:Work>
    </rdf:RDF>
  </metadata>
  <g
     inkscape:label="Layer 1"
     inkscape:groupmode="layer"
     id="layer1"
     transform="translate(0,-252.36218)"
     style="display:inline">
    <g
       transform="matrix(1.398802,0,0,1.398802,-100.95374,-177.46631)"
       id="g7298">
      <g
         id="g7300"
         transform="matrix(1.2184724,0,0,1.2184724,-243.96665,-102.95877)">
        <path
           d="m 973.04978,567.50679 h 21.95321 v -39.5439 h 42.30401 v 39.5439 h 21.9532 v -94.26755 h -21.9532 v 38.01317 h -42.30401 v -38.01317 h -21.95321 v 94.26755"
           style="font-style:normal;font-variant:normal;font-weight:bold;font-stretch:normal;font-size:203.01472473px;line-height:125%;font-family:'URW Gothic L';-inkscape-font-specification:'URW Gothic L Semi-Bold';text-align:start;writing-mode:lr-tb;text-anchor:start;fill:none;stroke:#000000;stroke-width:0.36865345;stroke-opacity:1"
           id="path7302"
           inkscape:connector-curvature="0" />
        <path
           d="m 1081.9646,567.50679 h 63.6162 V 550.7963 h -41.663 v -21.94048 h 39.9004 v -16.71049 h -39.9004 v -22.1956 h 41.663 v -16.71049 h -63.6162 v 94.26755"
           style="font-style:normal;font-variant:normal;font-weight:bold;font-stretch:normal;font-size:203.01472473px;line-height:125%;font-family:'URW Gothic L';-inkscape-font-specification:'URW Gothic L Semi-Bold';text-align:start;writing-mode:lr-tb;text-anchor:start;fill:none;stroke:#000000;stroke-width:0.36865345;stroke-opacity:1"
           id="path7304"
           inkscape:connector-curvature="0" />
        <path
           d="m 1165.2155,567.50679 h 58.1681 V 550.7963 h -36.2148 v -77.55706 h -21.9533 v 94.26755"
           style="font-style:normal;font-variant:normal;font-weight:bold;font-stretch:normal;font-size:203.01472473px;line-height:125%;font-family:'URW Gothic L';-inkscape-font-specification:'URW Gothic L Semi-Bold';text-align:start;writing-mode:lr-tb;text-anchor:start;fill:none;stroke:#000000;stroke-width:0.36865345;stroke-opacity:1"
           id="path7306"
           inkscape:connector-curvature="0" />
        <path
           d="m 1235.6346,567.50679 h 58.168 V 550.7963 h -36.2148 v -77.55706 h -21.9532 v 94.26755"
           style="font-style:normal;font-variant:normal;font-weight:bold;font-stretch:normal;font-size:203.01472473px;line-height:125%;font-family:'URW Gothic L';-inkscape-font-specification:'URW Gothic L Semi-Bold';text-align:start;writing-mode:lr-tb;text-anchor:start;fill:none;stroke:#000000;stroke-width:0.36865345;stroke-opacity:1"
           id="path7308"
           inkscape:connector-curvature="0" />
        <path
           d="m 1362.459,471.58095 c -35.2533,0 -62.4946,21.30271 -62.4946,48.85585 0,27.17045 27.5618,48.72828 62.3343,48.72828 34.4521,0 61.0524,-21.30271 61.0524,-48.85584 0,-26.91534 -27.081,-48.72829 -60.8921,-48.72829 m -0.3205,16.83804 c 21.9532,0 39.0992,14.03173 39.0992,32.14537 0,18.11364 -16.6653,31.76268 -39.0992,31.76268 -22.4339,0 -40.0606,-14.03173 -40.0606,-31.89024 0,-18.2412 17.3062,-32.01781 40.0606,-32.01781"
           style="font-style:normal;font-variant:normal;font-weight:bold;font-stretch:normal;font-size:203.01472473px;line-height:125%;font-family:'URW Gothic L';-inkscape-font-specification:'URW Gothic L Semi-Bold';text-align:start;writing-mode:lr-tb;text-anchor:start;fill:none;stroke:#000000;stroke-width:0.36865345;stroke-opacity:1"
           id="path7310"
           inkscape:connector-curvature="0" />
      </g>
      <g
         id="g7312"
         transform="translate(-533.04013,142.81034)">
        <path
           d="m 1510.3853,567.50679 h 17.3062 l 19.5495,-62.37731 19.0689,62.37731 h 17.4664 l 34.6124,-94.26755 h -22.4339 l -20.9918,65.82146 -19.8701,-65.82146 h -16.0242 l -20.1906,65.82146 -20.8315,-65.82146 h -22.4339 l 34.7726,94.26755"
           style="font-style:normal;font-variant:normal;font-weight:bold;font-stretch:normal;font-size:203.01472473px;line-height:125%;font-family:'URW Gothic L';-inkscape-font-specification:'URW Gothic L Semi-Bold';text-align:start;writing-mode:lr-tb;text-anchor:start;fill:none;stroke:#000000;stroke-width:0.44919404;stroke-opacity:1"
           id="path7314"
           inkscape:connector-curvature="0" />
        <path
           d="m 1686.0736,471.58095 c -35.2533,0 -62.4946,21.30271 -62.4946,48.85585 0,27.17045 27.5618,48.72828 62.3344,48.72828 34.4521,0 61.0523,-21.30271 61.0523,-48.85584 0,-26.91534 -27.081,-48.72829 -60.8921,-48.72829 m -0.3205,16.83804 c 21.9532,0 39.0991,14.03173 39.0991,32.14537 0,18.11364 -16.6652,31.76268 -39.0991,31.76268 -22.4339,0 -40.0606,-14.03173 -40.0606,-31.89024 0,-18.2412 17.3062,-32.01781 40.0606,-32.01781"
           style="font-style:normal;font-variant:normal;font-weight:bold;font-stretch:normal;font-size:203.01472473px;line-height:125%;font-family:'URW Gothic L';-inkscape-font-specification:'URW Gothic L Semi-Bold';text-align:start;writing-mode:lr-tb;text-anchor:start;fill:none;stroke:#000000;stroke-width:0.44919404;stroke-opacity:1"
           id="path7316"
           inkscape:connector-curvature="0" />
        <path
           d="m 1764.2469,567.50679 h 21.9532 v -36.09975 l 31.087,36.09975 h 27.081 l -32.0485,-34.82414 c 9.1338,-1.78585 13.6206,-3.44415 18.7484,-6.88829 8.0121,-5.48512 12.1784,-13.01123 12.1784,-22.32317 0,-9.56706 -4.3265,-17.73098 -12.4989,-23.21609 -7.6916,-5.23 -16.1845,-7.01586 -32.369,-7.01586 h -34.1316 v 94.26755 m 21.9532,-49.23853 v -28.31853 h 9.7748 c 10.2555,0 15.864,0.89293 19.3894,3.31658 3.8457,2.42366 5.7687,6.12294 5.7687,10.71512 0,9.94975 -7.211,14.28683 -24.1966,14.28683 h -10.7363"
           style="font-style:normal;font-variant:normal;font-weight:bold;font-stretch:normal;font-size:203.01472473px;line-height:125%;font-family:'URW Gothic L';-inkscape-font-specification:'URW Gothic L Semi-Bold';text-align:start;writing-mode:lr-tb;text-anchor:start;fill:none;stroke:#000000;stroke-width:0.44919404;stroke-opacity:1"
           id="path7318"
           inkscape:connector-curvature="0" />
        <path
           d="m 1857.2001,567.50679 h 58.168 V 550.7963 h -36.2148 v -77.55706 h -21.9532 v 94.26755"
           style="font-style:normal;font-variant:normal;font-weight:bold;font-stretch:normal;font-size:203.01472473px;line-height:125%;font-family:'URW Gothic L';-inkscape-font-specification:'URW Gothic L Semi-Bold';text-align:start;writing-mode:lr-tb;text-anchor:start;fill:none;stroke:#000000;stroke-width:0.44919404;stroke-opacity:1"
           id="path7320"
           inkscape:connector-curvature="0" />
        <path
           d="m 1927.6191,567.50679 h 27.5616 c 17.9472,0 28.6834,-1.40317 38.298,-5.23 18.2676,-7.1434 29.0039,-22.70587 29.0039,-41.71243 0,-17.85852 -9.2941,-32.65562 -25.7991,-40.56439 -9.294,-4.46463 -23.3954,-6.76073 -41.9835,-6.76073 h -27.0809 v 94.26755 m 21.9532,-16.71049 v -60.84657 h 4.3265 c 13.941,0 21.4725,1.02049 28.3629,3.82683 11.217,4.59219 18.1074,14.66952 18.1074,26.7878 0,11.35291 -6.57,21.43025 -17.1459,26.02243 -6.57,2.9339 -15.7038,4.20951 -28.8437,4.20951 h -4.8072"
           style="font-style:normal;font-variant:normal;font-weight:bold;font-stretch:normal;font-size:203.01472473px;line-height:125%;font-family:'URW Gothic L';-inkscape-font-specification:'URW Gothic L Semi-Bold';text-align:start;writing-mode:lr-tb;text-anchor:start;fill:none;stroke:#000000;stroke-width:0.44919404;stroke-opacity:1"
           id="path7322"
           inkscape:connector-curvature="0" />
      </g>
    </g>
  </g>
</svg>
