<?xml version="1.0" encoding="UTF-8" standalone="no"?>
<!-- Created with Inkscape (http://www.inkscape.org/) -->

<svg
   xmlns:dc="http://purl.org/dc/elements/1.1/"
   xmlns:cc="http://creativecommons.org/ns#"
   xmlns:rdf="http://www.w3.org/1999/02/22-rdf-syntax-ns#"
   xmlns:svg="http://www.w3.org/2000/svg"
   xmlns="http://www.w3.org/2000/svg"
   xmlns:sodipodi="http://sodipodi.sourceforge.net/DTD/sodipodi-0.dtd"
   xmlns:inkscape="http://www.inkscape.org/namespaces/inkscape"
   width="3200"
   height="800"
   id="svg2"
   version="1.1"
   inkscape:version="0.48.0 r9654"
   sodipodi:docname="smiley_tut.svg">
  <sodipodi:namedview
     id="base"
     pagecolor="#ffffff"
     bordercolor="#666666"
     borderopacity="1.0"
     inkscape:pageopacity="0.0"
     inkscape:pageshadow="2"
     inkscape:zoom="0.3471875"
     inkscape:cx="1600"
     inkscape:cy="400"
     inkscape:document-units="px"
     inkscape:current-layer="layer1"
     showgrid="false"
     width="3200px"
     inkscape:window-width="1440"
     inkscape:window-height="889"
     inkscape:window-x="2"
     inkscape:window-y="0"
     inkscape:window-maximized="0" />
  <defs
     id="defs4">
    <inkscape:path-effect
       back_thickness="0.25"
       front_thickness="1"
       stroke_width_bottom="1"
       stroke_width_top="1"
       fat_output="false"
       bottom_smth_variation="0;1"
       top_smth_variation="0;1"
       scale_tb="2"
       scale_tf="2"
       scale_bb="2"
       scale_bf="2"
       top_tgt_variation="0;1"
       bottom_tgt_variation="0;1"
       top_edge_variation="0;1"
       bottom_edge_variation="0;1"
       bender="1329.8455,429.01309 , 5,0"
       do_bend="true"
       growth="0"
       dist_rdm="0;1"
       direction="1329.8455,424.01309 , 26.378233,33.346396"
       is_visible="true"
       id="path-effect2997"
       effect="rough_hatches" />
    <inkscape:path-effect
       back_thickness="0.25"
       front_thickness="1"
       stroke_width_bottom="1"
       stroke_width_top="1"
       fat_output="false"
       bottom_smth_variation="0;1"
       top_smth_variation="0;1"
       scale_tb="2"
       scale_tf="2"
       scale_bb="2"
       scale_bf="2"
       top_tgt_variation="0;1"
       bottom_tgt_variation="0;1"
       top_edge_variation="0;1"
       bottom_edge_variation="0;1"
       bender="1328.7968,438.39365 , 5,0"
       do_bend="true"
       growth="0"
       dist_rdm="0;1"
       direction="1328.7968,433.39365 , 27.801774,-8.6698582"
       is_visible="true"
       id="path-effect12399"
       effect="rough_hatches" />
    <inkscape:path-effect
       back_thickness="0.25"
       front_thickness="1"
       stroke_width_bottom="1"
       stroke_width_top="1"
       fat_output="false"
       bottom_smth_variation="0;1"
       top_smth_variation="0;1"
       scale_tb="2"
       scale_tf="2"
       scale_bb="2"
       scale_bf="2"
       top_tgt_variation="0;1"
       bottom_tgt_variation="0;1"
       top_edge_variation="0;1"
       bottom_edge_variation="0;1"
       bender="1329.8455,429.01309 , 5,0"
       do_bend="false"
       growth="0"
       dist_rdm="0;1"
       direction="1329.8455,424.01309 , 24.928389,53.644201"
       is_visible="true"
       id="path-effect12386"
       effect="rough_hatches" />
  </defs>
  <metadata
     id="metadata7">
    <rdf:RDF>
      <cc:Work
         rdf:about="">
        <dc:format>image/svg+xml</dc:format>
        <dc:type
           rdf:resource="http://purl.org/dc/dcmitype/StillImage" />
        <dc:title />
      </cc:Work>
    </rdf:RDF>
  </metadata>
  <g
     style="display:inline"
     transform="translate(0,-252.36213)"
     id="layer1"
     inkscape:groupmode="layer"
     inkscape:label="1-yellow">
    <path
       inkscape:path-effect="#path-effect2997"
       transform="translate(0,252.36213)"
       d="m 1479.1452,718.13475 c 0,0 21.4143,-15.49936 45.5303,-34.48567 24.116,-18.9863 50.9297,-41.45954 61.7742,-55.4073 10.8446,-13.94775 -20.9307,11.10142 -58.4802,40.67187 -37.5494,29.57046 -80.8878,63.66221 -93.0016,67.7996 -12.1137,4.1374 30.7153,-29.54359 77.786,-66.61132 47.0708,-37.06772 98.3723,-77.52218 103.4484,-86.93173 5.0761,-9.40955 -46.028,30.90799 -100.7726,74.02912 -54.7445,43.12113 -113.142,89.04584 -122.2905,90.85062 -9.1485,1.80478 49.1744,-44.05379 110.4646,-92.33213 61.2903,-48.27834 125.5375,-98.97645 128.6608,-106.85074 3.1234,-7.87429 -61.0513,42.78575 -128.0728,95.58968 -67.0215,52.80392 -136.9013,107.75173 -144.6465,108.45298 -7.7452,0.70125 62.1107,-54.22221 134.2644,-111.07239 72.1537,-56.85018 146.5954,-115.62706 148.6132,-122.63265 2.0178,-7.00559 -72.3783,51.75459 -149.1678,112.26907 -76.7896,60.51447 -155.9834,122.78324 -162.8514,122.7948 -6.8681,0.0116 72.3152,-62.24512 153.3498,-126.10879 81.0345,-63.86366 163.911,-129.33432 165.1787,-135.75073 1.2676,-6.41641 -81.5738,59.04597 -166.5028,125.99104 -42.4645,33.47253 -85.4451,67.31573 -118.599,92.7301 -33.154,25.41436 -56.4742,42.39987 -59.592,42.15704 -6.2357,-0.48568 80.7848,-68.90638 169.321,-138.69979 44.2681,-34.89671 88.9222,-70.13659 122.587,-97.39936 33.6647,-27.26277 56.3462,-46.54843 56.6999,-49.53669 0.3537,-2.98826 -21.9694,13.30783 -55.8659,39.40546 -33.8965,26.09763 -79.375,61.99681 -125.3111,98.21472 -45.9362,36.21792 -92.3302,72.75457 -127.969,100.12716 -35.6388,27.37259 -60.5141,45.58111 -63.3833,45.14276 -2.8692,-0.43835 19.1352,-19.08408 53.7269,-46.98198 34.5918,-27.8979 81.7631,-65.04797 129.2544,-102.49497 47.4913,-37.44701 95.3024,-75.19097 131.2614,-104.27664 35.9589,-29.08568 60.073,-49.51308 60.2046,-52.32699 0.1316,-2.8139 -23.8468,14.79871 -60.0933,42.763 -36.2466,27.96428 -84.7712,66.28026 -133.7075,104.87309 -48.9363,38.59283 -98.2846,77.46252 -136.0778,106.53424 -37.7932,29.07172 -64.0221,48.34548 -66.687,47.74644 -2.6649,-0.59904 20.8977,-20.47107 57.6953,-50.10902 36.7977,-29.63795 86.8216,-69.04182 137.1103,-108.70452 50.2887,-39.66269 100.8418,-79.58422 138.7962,-110.25751 37.9543,-30.67328 63.3182,-52.09831 63.2661,-54.76802 -0.052,-2.6697 -25.4644,16.085 -63.7522,45.67278 -38.2879,29.58778 -89.4622,70.00865 -141.0104,110.67128 -51.5482,40.66264 -103.4704,81.56705 -143.1425,112.12192 -39.6721,30.55486 -67.0837,50.76019 -69.5751,50.02466 -2.4915,-0.73554 22.4275,-21.67591 61.1477,-52.83177 38.7201,-31.15586 91.2319,-72.5272 143.9604,-114.12466 52.7285,-41.59747 105.6736,-83.42106 145.3689,-115.48141 39.6952,-32.06035 66.1498,-54.35746 65.9382,-56.90198 -0.2116,-2.54452 -26.8743,17.20761 -66.943,48.21369 -40.0687,31.00608 -93.5552,73.2661 -147.3829,115.73738 -53.8277,42.47127 -107.9968,85.15379 -149.3093,117.00487 -41.3124,31.85107 -69.7569,52.87069 -72.0972,52.01617 -2.3402,-0.85453 23.7628,-22.7283 64.1609,-55.21036 40.3981,-32.48205 95.0809,-75.57238 149.938,-118.85999 54.8572,-43.28762 109.8885,-86.77253 151.1012,-120.04376 41.2126,-33.27122 68.6166,-56.32875 68.2628,-58.76162 -0.3539,-2.43286 -28.1083,18.19145 -69.7303,50.43638 -41.622,32.24494 -97.124,76.11048 -152.9383,120.16008 -55.8142,44.04959 -111.9409,88.28323 -154.6816,121.26435 -42.7408,32.98112 -72.0836,54.70972 -74.2892,53.74924 -2.2057,-0.96049 24.9299,-23.64929 66.7896,-57.28794 41.8597,-33.63866 98.4321,-78.22717 155.1408,-122.98708 56.7088,-44.75992 113.5535,-89.69123 156.0836,-124.01549 42.53,-34.32426 70.756,-58.04147 70.2733,-60.37316 -0.4827,-2.33169 -29.1881,19.05355 -72.1601,52.37695 -42.9719,33.32341 -100.2237,78.58498 -157.7613,124.00594 -57.5376,45.42097 -115.3614,91.00132 -159.3389,124.96231 -43.9774,33.96098 -74.0957,56.30258 -76.1795,55.24604 -2.0838,-1.05654 25.9493,-24.45446 69.0756,-59.09696 43.1263,-34.64249 101.3341,-80.52957 159.6434,-126.56441 58.3094,-46.03485 116.7202,-92.21747 160.3855,-127.45106 43.6654,-35.2336 72.5969,-59.51817 71.9959,-61.75691 -0.6011,-2.23874 -30.1304,19.80688 -74.2678,54.06304 -44.1373,34.25616 -102.8967,80.72286 -161.9176,127.32628 -59.0209,46.60342 -118.3036,93.34356 -163.342,128.1466 -45.0383,34.80305 -75.8187,57.66899 -77.7904,56.52402 -1.9716,-1.14498 26.8356,-25.15572 71.0503,-60.66229 44.2147,-35.50658 103.8244,-82.50899 163.5038,-129.63732 59.6795,-47.12833 119.4285,-94.38257 164.0613,-130.39279 44.6328,-36.01023 74.1615,-60.77644 73.4504,-62.92872 -0.711,-2.15228 -30.9477,20.4615 -76.0806,55.5161 -45.1328,35.0546 -105.1762,82.55003 -165.4583,130.16105 -60.282,47.61103 -120.8029,95.33765 -166.7388,130.85463 -45.9358,35.51699 -77.2723,58.82435 -79.1394,57.59685 -1.867,-1.2275 27.6009,-25.76222 72.7386,-62.00326 45.1377,-36.24104 105.9324,-84.1884 166.7672,-132.2412 60.8349,-48.05279 121.7098,-96.21101 167.1531,-132.87377 45.4433,-36.66276 75.4677,-61.83006 74.6532,-63.901 -0.8145,-2.07094 -31.6505,21.02529 -77.6202,56.75295 -45.9697,35.72766 -107.0882,84.08675 -168.4234,132.54152 -61.3352,48.45477 -122.8872,97.00523 -169.5668,133.11563 -46.6796,36.11039 -78.472,59.78073 -80.2403,58.47526 -1.7683,-1.30546 28.2541,-26.28116 74.1597,-63.13497 45.9056,-36.85382 107.6811,-85.58576 169.4692,-134.40372 61.7881,-48.81796 123.5886,-97.72195 169.6941,-134.91985 46.1055,-37.1979 76.5291,-62.68972 75.6164,-64.68335 -0.9128,-1.99363 -32.2464,21.50446 -78.9034,57.78676 -46.6571,36.28231 -108.6529,85.34884 -170.8441,134.49208 -62.1913,49.14323 -124.5781,98.36318 -171.8553,134.95233 -47.2773,36.58915 -79.4298,60.5475 -81.1038,59.16755 -1.674,-1.37995 28.8027,-26.71817 75.3289,-64.06924 46.5262,-37.35107 109.0884,-86.715 171.6372,-136.14636 62.5488,-49.43136 125.084,-98.93016 171.7101,-136.55097 46.6261,-37.62082 77.3564,-63.36365 76.3494,-65.28309 -1.007,-1.91944 -32.7418,21.90389 -79.9434,58.62783 -47.2017,36.72393 -109.8859,86.34848 -172.7447,136.03147 -62.8588,49.683 -125.8921,99.42444 -173.6266,136.38217 -47.7345,36.95773 -80.1547,61.13175 -81.7378,59.6799 -1.5831,-1.45185 29.2521,-27.07766 76.2578,-64.81518 47.0057,-37.73752 110.1681,-87.58675 173.2924,-137.48545 63.1243,-49.8987 126.2105,-99.84686 173.2205,-137.78223 47.01,-37.93538 77.9575,-63.85798 76.8592,-65.70554 -1.0983,-1.84756 -33.1416,22.22742 -80.7505,59.28403 -47.6088,37.05661 -110.7992,87.09485 -174.1432,137.17379 -63.344,50.07894 -126.8417,100.19859 -174.8974,137.41802 -48.0558,37.21942 -80.6537,61.53863 -82.1482,60.01669 -1.4945,-1.52193 29.6069,-27.36303 76.9554,-65.37968 47.3485,-38.01664 110.9303,-88.20883 174.4503,-138.43295 63.5201,-50.22411 126.9785,-100.48014 174.2393,-138.62448 47.2608,-38.14433 78.3379,-64.17697 77.1505,-65.95428 -1.1875,-1.77732 -33.4496,22.47798 -81.3321,59.76123 -47.8824,37.28326 -111.4013,87.59446 -175.0528,137.92898 -63.6515,50.33451 -127.4357,100.69232 -175.6794,138.06879 -48.2437,37.37646 -80.931,61.77158 -82.3384,60.18069 -1.4074,-1.5909 29.8702,-27.57688 77.4281,-65.76774 47.5578,-38.19085 111.3818,-88.58657 175.1214,-138.99694 63.7397,-50.41037 127.3951,-100.83538 174.7759,-139.08481 47.3809,-38.24943 78.5012,-64.32328 77.226,-66.03132 -1.2753,-1.70804 -33.6686,22.65776 -81.6936,60.06352 -48.0249,37.40576 -111.6975,87.85149 -175.4816,138.30331 -63.784,50.45182 -127.6795,100.90972 -175.9797,138.33983 -48.3002,37.43011 -80.9892,61.83243 -82.3103,60.17308 -1.321,-1.65935 30.0447,-27.72101 77.6802,-65.98258 47.6356,-38.26156 111.5269,-88.72303 175.312,-139.18196 63.7851,-50.45894 127.464,-100.91536 174.8353,-139.16683 47.3712,-38.25147 78.4488,-64.29799 77.0863,-65.93715 -1.3626,-1.63916 -33.8006,22.76822 -81.8382,60.19333 -48.0376,37.4251 -111.6908,87.86792 -175.4337,138.29965 -63.7428,50.43173 -127.5752,100.85237 -175.8011,138.23309 -48.2258,37.38072 -80.829,61.72153 -82.0636,59.99361 -1.2346,-1.72791 30.1317,-27.79666 77.714,-66.02595 47.5824,-38.22929 111.3668,-88.61913 175.0237,-138.98924 63.6569,-50.3701 127.1862,-100.72047 174.4182,-138.87083 47.2319,-38.15035 78.1805,-64.10069 76.7305,-65.67074 -1.4501,-1.57005 -33.8467,22.81028 -81.7674,60.1516 -47.9206,37.34132 -111.3811,87.64363 -174.9087,137.91754 -63.5277,50.27392 -127.1224,100.51944 -175.1423,137.74719 -48.0199,37.22775 -80.449,61.43773 -81.5963,59.64054 -1.1473,-1.79718 30.1321,-27.80437 77.53,-65.898 47.3979,-38.09363 110.9004,-88.2737 174.2543,-138.41664 63.354,-50.14293 126.5593,-100.24873 173.5211,-138.19381 46.9618,-37.94509 77.694,-63.72947 76.1555,-65.22957 -1.5386,-1.50009 -33.8075,22.78424 -81.4806,59.93781 -47.673,37.15357 -110.7658,87.17637 -173.9024,137.15322 -63.1366,49.97684 -126.3169,99.90772 -173.9975,136.87745 -47.6807,36.96973 -79.846,60.9783 -80.9044,59.11052 -1.0585,-1.86777 30.0459,-27.74418 77.1265,-65.59746 47.0806,-37.85328 110.1238,-87.68343 172.9974,-137.45868 62.8736,-49.77526 125.5777,-99.49563 172.1362,-137.12935 46.5584,-37.63371 76.985,-63.18078 75.3561,-64.60944 -1.6289,-1.42865 -33.6826,22.68983 -80.9752,59.5499 -47.2927,36.86008 -109.8397,86.46174 -172.406,135.99943 -62.5663,49.5377 -125.1518,99.01143 -172.357,135.61565 -47.2051,36.60422 -79.0145,60.33893 -79.9816,58.39856 -0.9671,-1.94036 29.8726,-27.61551 76.5003,-65.12146 46.6277,-37.50596 109.03,-86.84272 171.2417,-136.10631 62.2117,-49.2636 124.2329,-98.45402 170.2511,-135.6673 46.0183,-37.21328 76.047,-62.44941 74.3251,-63.80441 -1.7219,-1.355 -33.471,22.52622 -80.2471,58.98426 -46.7761,36.45805 -108.5943,85.49291 -170.4059,134.4452 -61.8115,48.95228 -123.6164,97.82198 -170.2055,133.94969 -46.5891,36.12771 -77.9472,59.51343 -78.8196,57.49775 -0.8724,-2.01567 29.6107,-27.41717 75.6458,-64.46551 46.035,-37.04833 107.6091,-85.74349 168.9711,-134.34649 61.3621,-48.60299 122.5123,-97.11381 167.8484,-133.79347 45.3361,-36.67965 74.8712,-61.52814 73.0524,-62.80645 -1.8187,-1.27832 -33.171,22.29198 -79.2896,58.23557 -46.1186,35.94358 -107.0179,84.26046 -167.8833,132.4753 -60.8653,48.21485 -121.6965,96.32767 -167.523,131.86313 -45.8265,35.53547 -76.6336,58.49358 -77.4068,56.39903 -0.7732,-2.09456 29.2579,-27.14737 74.555,-63.62325 45.2971,-36.47589 105.8475,-84.37484 166.164,-132.16168 60.3166,-47.78683 120.3993,-95.46155 164.9045,-131.48896 44.5052,-36.02742 73.4457,-60.40752 71.5252,-61.60514 -1.9206,-1.19761 -32.7803,21.98504 -78.0939,57.29656 -45.3135,35.31151 -105.095,82.75188 -164.8132,130.06971 -59.7181,47.31782 -119.3728,94.51309 -164.2826,129.33441 -44.9098,34.82132 -75.0604,57.26867 -75.7288,55.09067 -0.6684,-2.17801 28.8112,-26.80356 73.2176,-62.58624 44.4064,-35.78267 103.7276,-82.72248 162.7919,-129.529 59.0643,-46.80652 117.872,-93.47975 161.3889,-128.72928 43.5169,-35.24952 71.7553,-59.07535 69.7265,-60.18706 -2.0288,-1.11171 -32.295,21.60261 -76.6478,56.15772 -44.3528,34.55512 -102.8056,80.95102 -161.1635,127.20249 -58.3578,46.25146 -116.6206,92.35849 -160.4496,126.33583 -43.829,33.97735 -73.2106,55.82502 -73.767,53.55778 -0.5563,-2.26725 28.2664,-26.3824 71.6198,-61.34349 43.3534,-34.96109 101.2264,-80.76813 158.8181,-126.41915 57.5918,-45.65102 114.9025,-91.14603 157.2625,-125.48305 42.36,-34.33703 69.7808,-57.51607 67.6353,-58.53518 -2.1454,-1.0191 -31.7109,21.1411 -74.9364,54.8069 -43.2255,33.66581 -100.1239,78.83722 -156.8928,123.84055 -56.7689,45.00332 -113.4083,89.83856 -155.98,122.83203 -42.5716,32.99346 -71.0624,54.14515 -71.4976,51.78136 -0.4351,-2.36379 27.618,-25.87957 69.7442,-59.88097 42.1261,-34.0014 98.3148,-78.48843 154.196,-122.79471 55.8812,-44.30629 111.4552,-88.43183 152.4753,-121.71027 41.02,-33.27843 67.497,-55.70976 65.2241,-56.62761 -2.2729,-0.91785 -31.0223,20.59595 -72.9404,53.22859 -41.9181,32.63265 -97.0168,76.38413 -151.9483,119.94165 -54.9316,43.55751 -109.6957,86.92106 -150.8172,118.77783 -41.1214,31.85677 -68.5879,52.20676 -68.8903,49.73716 -0.3023,-2.4696 26.8593,-25.28959 67.5682,-58.18076 40.709,-32.89117 94.9556,-75.85351 148.8658,-118.60783 53.9102,-42.75432 107.4844,-85.3006 146.963,-117.35963 39.4787,-32.05904 64.8722,-53.63083 62.4577,-54.43615 -2.4145,-0.80533 -30.2222,19.96155 -70.6352,51.40316 -40.4129,31.44161 -93.4421,73.55795 -146.2622,115.45155 -52.82,41.8936 -105.4306,83.56446 -144.8883,114.11509 -39.4577,30.55064 -65.751,49.98106 -65.9057,47.39378 -0.1548,-2.58728 25.9814,-24.60552 65.0632,-56.21989 39.0819,-31.61437 91.1003,-72.82488 142.75,-113.79672 51.6496,-40.97184 102.9306,-81.705 140.6426,-112.36468 37.7119,-30.65968 61.8642,-51.24587 59.2894,-51.92376 -2.5747,-0.67789 -29.3019,19.23097 -67.9893,49.30554 -38.6873,30.07457 -89.345,70.31486 -139.7461,110.29982 -50.4012,39.98497 -100.5456,79.71461 -138.0986,108.7679 -37.5531,29.05329 -62.5043,47.43023 -62.492,44.70978 0.012,-2.72046 24.9737,-23.81858 62.1922,-53.96865 37.2184,-30.15008 86.6859,-69.3521 135.747,-108.28034 49.0611,-38.92824 97.716,-77.58271 133.404,-106.63766 35.688,-29.05496 58.4174,-48.51041 55.6571,-49.04063 -2.7604,-0.53022 -28.2511,18.39593 -64.9626,46.90359 -36.7115,28.50766 -84.6528,66.59683 -132.2827,104.39265 -47.63,37.79582 -94.9485,75.29828 -130.3178,102.63253 -35.3693,27.33424 -58.7801,44.50027 -58.5713,41.62322 0.2088,-2.87705 23.8266,-22.92119 58.91,-51.39119 35.0834,-28.46999 81.6256,-65.36585 127.7162,-101.94635 46.0906,-36.5805 91.7299,-72.84564 125.0911,-100.05421 33.3612,-27.20856 54.4518,-45.36055 51.4701,-45.71474 -2.9816,-0.35418 -27.0554,17.44498 -61.497,44.1511 -34.4417,26.70612 -79.2591,62.3192 -123.6997,97.59282 -44.4406,35.27362 -88.5042,70.20779 -121.3539,95.55611 -32.8498,25.34832 -54.4774,41.11078 -54.0268,38.04099 0.4505,-3.06979 22.5277,-21.90363 55.1523,-48.43617 32.6246,-26.53254 75.7907,-60.76377 118.4485,-94.62834 85.3156,-67.72915 168.5717,-133.99164 162.0613,-134.26463 -3.2552,-0.13649 -25.696,16.36309 -57.5096,40.98183 -31.8137,24.61874 -73.0066,57.35664 -113.7414,89.69677 -81.4696,64.68027 -161.1274,127.7695 -159.6018,121.13232 1.5257,-6.63717 81.1728,-69.73749 158.4545,-131.10442 77.2817,-61.36693 152.2076,-121.00048 144.9819,-120.7041 -7.2257,0.29637 -82.1777,59.94595 -154.8924,117.68956 -72.7146,57.74361 -143.1808,113.58125 -140.7885,106.25376 2.3923,-7.32749 72.8631,-63.18828 140.5304,-116.93452 67.6673,-53.74623 132.5412,-105.37793 124.2671,-104.24725 -8.2741,1.13068 -73.2011,52.79811 -135.2457,102.08039 -62.0446,49.28228 -121.1948,96.1794 -117.4429,87.76946 3.7518,-8.40993 62.9545,-55.36797 118.5995,-99.57676 55.6449,-44.20878 107.7428,-85.66832 97.6382,-83.08126 -10.1046,2.58706 -62.3667,44.16856 -110.5513,82.45069 -48.1845,38.28213 -92.2784,73.2649 -85.761,62.65451 6.5173,-10.61039 51.0123,-45.93044 90.0388,-76.94492 39.0265,-31.01447 72.5964,-57.72336 57.431,-51.11145 -15.1653,6.61191 -45.4325,29.32158 -71.9284,50.37828 -26.496,21.0567 -49.218,40.46042 -49.218,40.46042"
       sodipodi:ry="325.327"
       sodipodi:rx="325.327"
       sodipodi:cy="429.01309"
       sodipodi:cx="1329.8455"
       id="path11496"
       style="fill:none;stroke:#d3d520;stroke-width:4;stroke-linecap:round;stroke-linejoin:round;stroke-miterlimit:4;stroke-opacity:1;stroke-dasharray:none;stroke-dashoffset:0"
       sodipodi:type="arc" />
  </g>
  <g
     style="display:inline"
     inkscape:label="2-black"
     id="layer6"
     inkscape:groupmode="layer">
    <path
       inkscape:connector-curvature="0"
       id="path11500"
       d="m 1234.0312,217.9375 c -25.9844,0 -47.0624,51.14484 -47.0624,114.25 0,63.10516 21.078,114.28125 47.0624,114.28125 25.9845,0 47.0626,-51.17609 47.0626,-114.28125 0,-63.10516 -21.0781,-114.25 -47.0626,-114.25 z m 192.2188,0 c -25.9845,0 -47.0312,51.14484 -47.0312,114.25 0,63.10516 21.0467,114.28125 47.0312,114.28125 25.9845,0 47.0625,-51.17609 47.0625,-114.28125 0,-63.10516 -21.078,-114.25 -47.0625,-114.25 z m -329.3438,229.875 c 0,0 141.4869,212.34254 244.6563,211.03125 103.1694,-1.31129 219.125,-198.9375 219.125,-198.9375 0,0 -146.094,112.12177 -232.5625,110.21875 -86.4685,-1.90302 -231.2188,-122.3125 -231.2188,-122.3125 z"
       style="fill:none;stroke:#000000;stroke-width:4;stroke-linecap:round;stroke-linejoin:round;stroke-miterlimit:4;stroke-opacity:1;stroke-dasharray:none;stroke-dashoffset:0" />
    <path
       inkscape:connector-curvature="0"
       inkscape:original-d="m 1234.0312,217.9375 c -25.9844,0 -47.0624,51.14484 -47.0624,114.25 0,63.10516 21.078,114.28125 47.0624,114.28125 25.9845,0 47.0626,-51.17609 47.0626,-114.28125 0,-63.10516 -21.0781,-114.25 -47.0626,-114.25 z m 192.2188,0 c -25.9845,0 -47.0312,51.14484 -47.0312,114.25 0,63.10516 21.0467,114.28125 47.0312,114.28125 25.9845,0 47.0625,-51.17609 47.0625,-114.28125 0,-63.10516 -21.078,-114.25 -47.0625,-114.25 z m -329.3438,229.875 c 0,0 141.4869,212.34254 244.6563,211.03125 103.1694,-1.31129 219.125,-198.9375 219.125,-198.9375 0,0 -146.094,112.12177 -232.5625,110.21875 -86.4685,-1.90302 -231.2188,-122.3125 -231.2188,-122.3125 z"
       inkscape:path-effect="#path-effect12399"
       style="fill:none;stroke:#000000;stroke-width:4;stroke-linecap:round;stroke-linejoin:round;stroke-miterlimit:4;stroke-opacity:1;stroke-dasharray:none;stroke-dashoffset:0"
       d="m 1264.5168,245.14855 c 0,0 2.3112,4.69757 5.1932,13.54016 2.882,8.84258 6.333,21.83019 8.5643,38.41026 1.1157,8.29004 0.3368,8.25245 -1.5766,3.43327 -1.9134,-4.81918 -4.9742,-14.41995 -8.4716,-25.2563 -3.4974,-10.83635 -7.4347,-22.90828 -11.0275,-32.66975 -3.5929,-9.76148 -6.835,-17.21251 -8.8907,-18.80707 -4.1112,-3.18911 4.4484,22.45572 13.6855,51.06927 4.6186,14.30678 9.4094,29.35574 12.9813,41.91373 3.5719,12.55798 5.9311,22.625 5.7506,26.96789 -0.1806,4.34289 -2.6885,-1.33008 -6.4871,-12.28341 -3.7986,-10.95332 -8.9071,-27.18699 -14.283,-43.96549 -5.3759,-16.77849 -11.0212,-34.10181 -15.729,-47.23443 -4.7079,-13.13262 -8.4631,-22.07455 -9.9936,-22.09025 -1.5305,-0.0157 0.6885,8.88975 4.7774,22.46144 4.0889,13.57169 10.0325,31.80962 15.9949,50.45886 5.9625,18.64924 11.9425,37.7098 16.2721,52.92675 4.3296,15.21695 7.0213,26.5903 6.4911,29.86513 -0.5302,3.27483 -3.7342,-4.81351 -8.3978,-18.74168 -4.6635,-13.92816 -10.8114,-33.69617 -17.1932,-53.78069 -6.3819,-20.08453 -12.9991,-40.48556 -18.3704,-55.6798 -5.3713,-15.19423 -9.4745,-25.18166 -10.7524,-24.43895 -1.2779,0.7427 1.5428,11.46635 6.3517,27.29673 4.8089,15.83038 11.5869,36.76747 18.2928,57.93704 6.7059,21.16958 13.3388,42.57163 18.0763,59.33193 4.7374,16.7603 7.5967,28.87884 6.8506,31.48139 -0.7461,2.60255 -4.3376,-6.90962 -9.4724,-22.56117 -5.1347,-15.65155 -11.8407,-37.44248 -18.7582,-59.39744 -6.9174,-21.95497 -14.0471,-44.07396 -19.7551,-60.38165 -5.708,-16.30768 -9.9678,-26.80405 -11.0653,-25.51377 -1.0975,1.29028 2.0583,13.07481 7.2406,30.15459 5.1824,17.07979 12.3704,39.45483 19.4239,61.92614 7.0535,22.47131 13.9723,45.03888 18.864,62.50374 4.8917,17.46486 7.7768,29.82699 6.861,31.88742 -0.9158,2.06042 -4.706,-8.24025 -10.0464,-24.74006 -5.3404,-16.4998 -12.2603,-39.19873 -19.3633,-61.93481 -7.1031,-22.73608 -14.3895,-45.5093 -20.1701,-62.15771 -5.7807,-16.6484 -10.0266,-27.17197 -10.9715,-25.40874 -0.9448,1.76323 2.3477,14.05024 7.6327,31.58566 5.2849,17.53542 12.541,40.31925 19.6197,63.07611 7.0786,22.75687 13.9798,45.48676 18.8095,62.91432 4.8297,17.42756 7.6092,29.55278 6.5374,31.10028 -1.0718,1.5475 -4.916,-9.03131 -10.2431,-25.63017 -5.3271,-16.59887 -12.1653,-39.21781 -19.1456,-61.75055 -6.9803,-22.53275 -14.1023,-44.97932 -19.7095,-61.23346 -5.6072,-16.25414 -9.6706,-26.31585 -10.4663,-24.07889 -0.7958,2.23696 2.4615,14.53812 7.6025,31.79361 5.141,17.25549 12.1463,39.46531 18.9446,61.5196 6.7983,22.05429 13.3902,43.95305 17.9432,60.58642 4.553,16.63336 7.0877,28.00133 5.8514,28.99404 -1.2363,0.99271 -5.0044,-9.38664 -10.1071,-25.3397 -5.1027,-15.95306 -11.5646,-37.47983 -18.1088,-58.78193 -6.5441,-21.30211 -13.1695,-42.37955 -18.3412,-57.43398 -5.1717,-15.05443 -8.863,-24.08583 -9.4891,-21.29585 -0.6261,2.78997 2.4278,14.61776 7.1691,30.80893 4.7413,16.19118 11.1543,36.74574 17.3382,56.98926 6.1838,20.24352 12.1394,40.176 16.1662,55.12301 4.0268,14.94702 6.1426,24.90857 4.7049,25.21023 -1.4378,0.30167 -4.9945,-9.36987 -9.6345,-23.82324 -4.64,-14.45337 -10.3824,-33.68858 -16.1187,-52.51428 -5.7363,-18.82569 -11.4649,-37.24186 -15.8739,-50.05716 -4.409,-12.8153 -7.4763,-20.02972 -7.8658,-16.45191 -0.3895,3.57781 2.2801,14.39212 6.3162,28.55188 4.0362,14.15976 9.4289,31.66498 14.562,48.6246 5.133,16.95962 10.008,33.37366 13.1478,45.35105 3.1398,11.9774 4.5576,19.51817 2.8038,18.73126 -1.7537,-0.78691 -4.9442,-9.16554 -8.7993,-20.96483 -3.8551,-11.79929 -8.3858,-27.01924 -12.7607,-41.48879 -4.3749,-14.46956 -8.5916,-28.18871 -11.6952,-36.98641 -3.1036,-8.7977 -5.0785,-12.67394 -4.9822,-7.45767 0.096,5.21628 2.2327,14.57191 5.1519,25.35777 2.9193,10.78585 6.6183,23.00193 9.894,33.93909 3.2758,10.93716 6.131,20.5954 7.4194,26.26558 1.2884,5.67018 1.0184,7.3523 -1.9815,2.33722 -5.9997,-10.03015 -10.0437,-21.06916 -12.6006,-29.60064 -2.5568,-8.53147 -3.6198,-14.55541 -3.6198,-14.55541 m 279.9566,-80.89994 c 0,0 -4.1724,-15.53233 -9.6119,-32.31257 -5.4396,-16.78024 -12.1599,-34.80839 -16.8666,-39.80004 -4.7066,-4.99165 2.5924,16.9022 10.853,42.42478 4.1304,12.76129 8.5005,26.42976 11.8107,38.09833 3.3102,11.66856 5.565,21.33721 5.5223,26.09886 -0.043,4.76164 -2.2946,-0.0518 -5.7823,-9.96761 -3.4877,-9.9158 -8.2286,-24.93393 -13.2523,-40.58163 -5.0236,-15.6477 -10.3322,-31.92497 -14.811,-44.35903 -4.4789,-12.43407 -8.1149,-21.02494 -9.7318,-21.29983 -1.617,-0.2749 0.3942,8.01104 4.2326,20.81227 3.8384,12.80124 9.49,30.11778 15.1898,47.90409 5.6999,17.7863 11.4465,36.04238 15.6271,50.7227 4.1806,14.68031 6.8062,25.78487 6.3438,29.26812 -0.4624,3.48326 -3.531,-4.1241 -8.0256,-17.45803 -4.4947,-13.33392 -10.439,-32.39441 -16.6235,-51.81739 -6.1844,-19.42298 -12.6106,-39.20845 -17.8521,-53.99236 -5.2415,-14.7839 -9.2778,-24.56623 -10.6086,-23.98293 -1.3309,0.5833 1.3702,10.94054 6.038,26.32021 4.6679,15.37968 11.2842,35.78181 17.8477,56.4549 6.5636,20.67309 13.0732,41.61715 17.7359,58.08069 4.6626,16.46353 7.4944,28.44655 6.7956,31.19757 -0.6989,2.75102 -4.2149,-6.47613 -9.2608,-21.79143 -5.0459,-15.3153 -11.6491,-36.71874 -18.4695,-58.3203 -6.8204,-21.60156 -13.8588,-43.40124 -19.5095,-59.50901 -5.6506,-16.10777 -9.8878,-26.52363 -11.026,-25.35756 -1.1381,1.16608 1.9549,12.74512 7.0719,29.59457 5.117,16.84944 12.2371,38.96929 19.2362,61.21697 6.999,22.24769 13.8765,44.62321 18.7508,61.984 4.8743,17.3608 7.7652,29.70687 6.8892,31.89565 -0.8761,2.18878 -4.6315,-7.96692 -9.9423,-24.32852 -5.3107,-16.3616 -12.2059,-38.92911 -19.2922,-61.56396 -7.0862,-22.63485 -14.3639,-45.33704 -20.1491,-61.96801 -5.7853,-16.63097 -10.0497,-27.19071 -11.0307,-25.54067 -0.9811,1.65004 2.2942,13.85952 7.5767,31.3503 5.2826,17.49078 12.5511,40.26287 19.6513,63.03813 7.1002,22.77525 14.0321,45.55369 18.8962,63.05716 4.864,17.50347 7.6817,29.73199 6.6484,31.40741 -1.0333,1.67543 -4.8762,-8.87821 -10.2255,-25.51874 -5.3493,-16.64053 -12.2338,-39.36794 -19.2718,-62.04006 -7.0381,-22.67212 -14.2296,-45.28895 -19.9019,-61.7083 -5.6724,-16.41935 -9.7965,-26.64124 -10.6294,-24.52347 -0.8329,2.11777 2.4484,14.45928 7.6472,31.85141 5.1988,17.39213 12.2951,39.83489 19.1907,62.15518 6.8956,22.32028 13.591,44.51808 18.2327,61.4203 4.6417,16.90221 7.2506,28.50884 6.0571,29.64678 -1.1936,1.13793 -4.9921,-9.33393 -10.1698,-25.51665 -5.1777,-16.18273 -11.7604,-38.07632 -18.4421,-59.78186 -6.6817,-21.70554 -13.4617,-43.22303 -18.7663,-58.65354 -5.3047,-15.43051 -9.1066,-24.77405 -9.7776,-22.13169 -0.671,2.64236 2.4488,14.63338 7.3133,31.1644 4.8646,16.53102 11.4573,37.60204 17.826,58.4044 6.3687,20.80236 12.5145,41.33606 16.6971,56.79244 4.1826,15.45638 6.4208,25.83543 5.0387,26.32851 -1.3822,0.49307 -5.0039,-9.40179 -9.7821,-24.31218 -4.7783,-14.91038 -10.7339,-34.8363 -16.7085,-54.40533 -5.9746,-19.56903 -11.9669,-38.78118 -16.5996,-52.26403 -4.6327,-13.48286 -7.8823,-21.23643 -8.3403,-17.88831 -0.4581,3.34813 2.3235,14.46487 6.5655,29.22898 4.242,14.76411 9.9329,33.1756 15.3744,51.11323 5.4416,17.93763 10.6353,35.4014 14.0388,48.27009 3.4036,12.86868 5.0316,21.14227 3.3779,20.69954 -1.6538,-0.44273 -4.9477,-9.1912 -9.0328,-21.77521 -4.0851,-12.584 -8.9744,-29.00355 -13.7556,-44.78842 -4.7812,-15.78487 -9.4522,-30.93507 -12.955,-40.9804 -3.5029,-10.04533 -5.8202,-14.98578 -5.8961,-10.35115 -0.076,4.63463 2.1809,14.31029 5.4091,26.03924 3.2281,11.72895 7.423,25.51117 11.2824,38.35893 7.7189,25.69552 14.1006,47.65316 9.3888,41.97091 -4.7119,-5.68225 -10.7905,-23.77111 -15.7927,-40.4394 -5.0022,-16.66829 -8.913,-31.91602 -8.913,-31.91602 m 177.5025,102.2684 c 0,0 1.8739,-3.54504 -3.0259,0.0742 -4.8998,3.6192 1.0592,3.18104 -2.9585,9.4986 -4.0176,6.31757 -1.9426,-5.88321 -6.8788,-2.35656 -4.9362,3.52665 2.8598,8.67054 -1.226,14.83395 -4.0858,6.16341 -3.7106,-11.30824 -8.6773,-7.85769 -4.9668,3.45054 4.591,14.02002 0.4439,20.04635 -2.0736,3.01317 -3.4167,-1.13585 -4.875,-5.6158 -1.4582,-4.47995 -3.0336,-9.29083 -5.5313,-7.6014 -4.9955,3.37888 6.2589,19.24335 2.0532,25.13743 -2.1029,2.94704 -3.8491,-2.49259 -5.7129,-8.25548 -1.8638,-5.76289 -3.8477,-11.84906 -6.3595,-10.19509 -2.5118,1.65396 -0.5316,7.74019 1.5303,14.13311 2.062,6.39293 4.2045,13.09256 2.0728,15.97333 -2.1317,2.88077 -4.2647,-3.8188 -6.5192,-10.83409 -2.2546,-7.01529 -4.6335,-14.3463 -7.1595,-12.72843 -2.5259,1.61787 -0.1513,8.94903 2.2942,16.57893 2.4455,7.62989 4.9605,15.55853 2.7999,18.37138 -2.1606,2.81285 -4.6644,-5.11569 -7.2951,-13.35232 -2.6307,-8.23663 -5.3912,-16.78135 -7.9315,-15.20086 -2.5404,1.58049 0.2152,10.12541 3.0297,18.96076 2.8144,8.83535 5.686,17.96112 3.4962,20.70332 -2.1897,2.7422 -5.0488,-6.38344 -8.041,-15.80932 -2.9923,-9.42588 -6.1207,-19.15199 -8.6759,-17.61074 -2.5552,1.54125 0.5679,11.26762 3.7367,21.27565 3.1688,10.00804 6.3813,20.29774 4.1617,22.96565 -2.2196,2.66791 -5.4184,-7.62162 -8.7575,-18.20323 -3.339,-10.58161 -6.8217,-21.4553 -9.3923,-19.95569 -2.5706,1.4996 0.9062,12.37359 4.4145,23.51996 3.5084,11.14638 7.0461,22.56513 4.7959,25.15425 -2.2503,2.58912 -5.7732,-8.82943 -9.4443,-20.53151 -3.6712,-11.70209 -7.494,-23.68771 -10.0808,-22.23273 -2.5869,1.45497 1.2297,13.44095 5.0628,25.68943 3.833,12.24848 7.6801,24.75946 5.3981,27.26441 -2.282,2.50495 -6.1134,-10.00578 -10.1016,-22.79106 -3.9882,-12.78528 -8.1367,-25.84513 -10.7408,-24.43841 -2.604,1.40672 1.538,14.46699 5.6806,27.77919 4.1426,13.3122 8.2831,26.87634 5.968,29.2908 -2.3151,2.41445 -6.4392,-11.14939 -10.7292,-24.97832 -4.29,-13.82893 -8.7495,-27.92295 -11.3719,-26.56887 -2.6224,1.35407 1.8303,15.4486 6.267,29.78374 4.4366,14.33515 8.8545,28.91092 6.5047,31.22749 -2.3498,2.31657 -6.7508,-12.25883 -11.327,-27.08935 -4.5762,-14.83052 -9.3314,-29.91615 -11.9737,-28.62002 -2.6422,1.29612 2.106,16.38233 6.821,31.69703 4.715,15.31469 9.394,30.85787 7.0075,33.06794 -2.3866,2.21007 -7.0483,-13.33267 -11.8949,-29.12 -4.8465,-15.78732 -9.8816,-31.81925 -12.5456,-30.58755 -2.6639,1.23169 2.3642,17.26429 7.3415,33.51234 4.9772,16.24805 9.9009,32.71155 7.4753,34.80502 -2.4256,2.09348 -7.332,-14.36946 -12.4326,-31.06595 -5.1006,-16.6965 -10.3994,-33.62654 -13.0874,-32.46726 -2.6879,1.15928 2.604,18.09013 7.8271,35.22241 5.2232,17.13228 10.3749,34.46599 7.9073,36.43102 -2.4675,1.96502 -7.602,-15.368 -12.9402,-32.92305 -5.3383,-17.55505 -10.8841,-35.33214 -13.5989,-34.25525 -2.7147,1.07689 2.8244,18.85493 8.2767,36.81938 5.4524,17.96445 10.8153,36.1153 8.3024,37.93779 -2.5129,1.8225 -7.8591,-16.32745 -13.4182,-34.68757 -5.559,-18.36013 -11.3348,-36.93043 -14.0801,-35.94864 -2.7454,0.98179 3.0241,19.55325 8.6889,38.29504 5.6647,18.74179 11.2221,37.65391 8.6596,39.31703 -2.5626,1.66312 -8.1039,-17.24782 -13.867,-36.357 -5.7631,-19.10919 -11.7516,-38.41663 -14.5324,-37.54652 -2.7808,0.87012 3.2021,20.17897 9.0625,39.64111 5.8604,19.46213 11.5958,39.07756 8.9784,40.56082 -2.6175,1.48326 -8.3378,-18.13054 -14.2884,-37.93112 -5.9506,-19.80059 -12.135,-39.78795 -14.9579,-39.05182 -2.8229,0.73614 3.3569,20.72526 9.3968,40.84989 6.0399,20.12462 11.9375,40.38475 9.2586,41.66288 -2.6789,1.27814 -8.5628,-18.97967 -14.6854,-39.41427 -6.1226,-20.4346 -12.4872,-41.04599 -15.3615,-40.47503 -2.8743,0.57095 3.4871,21.18459 9.6919,41.91578 6.2047,20.73119 12.2507,41.57993 9.5018,42.62112 -2.7489,1.04118 -8.7827,-19.80404 -15.0641,-40.81963 -6.2813,-21.01558 -12.8136,-42.20153 -15.7532,-41.84178 -2.9396,0.35976 3.5913,21.54863 9.9499,42.83835 6.3585,21.28973 12.5427,42.6803 9.7127,43.44346 -2.8301,0.76316 -9.004,-20.6216 -15.4361,-42.17829 -3.2161,-10.77834 -6.49,-21.59966 -9.3475,-29.71696 -2.8576,-8.1173 -5.2921,-13.53059 -6.8057,-13.49285 -3.0273,0.0755 3.6682,21.80803 10.1773,43.62934 3.2545,10.91066 6.4697,21.8435 8.4961,30.10247 2.0264,8.25898 2.8705,13.8441 1.4073,14.05931 -2.9264,0.43042 -9.2413,-21.47841 -15.8276,-43.56842 -3.2931,-11.045 -6.6469,-22.1353 -9.5798,-30.50113 -2.933,-8.36583 -5.4383,-14.00719 -7.0089,-14.15433 -1.5706,-0.14714 -0.6349,5.34864 1.5244,13.67569 2.1594,8.32704 5.5353,19.48535 8.8689,30.66326 3.3335,11.17792 6.6246,22.37544 8.692,30.78091 2.0673,8.40548 2.9178,14.0189 1.3954,14.02862 -1.5225,0.01 -3.8957,-5.59475 -6.7333,-14.02659 -2.8376,-8.43184 -6.1468,-19.69105 -9.5172,-30.99082 -3.3704,-11.29978 -6.8022,-22.64011 -9.8072,-31.2342 -3.005,-8.59408 -5.5763,-14.44192 -7.1987,-14.7567 -1.6224,-0.31477 -0.6726,5.21825 1.5315,13.68029 2.2041,8.46205 5.6547,19.85311 9.0581,31.25443 3.4034,11.40131 6.7596,22.81287 8.8567,31.3159 2.0972,8.50303 2.9429,14.09753 1.3505,13.86473 -1.5924,-0.2328 -4.0313,-6.06069 -6.9326,-14.70039 -2.9012,-8.6397 -6.2717,-20.0912 -9.7015,-31.57122 -3.4297,-11.48002 -6.9186,-22.98857 -9.9776,-31.74235 -3.0589,-8.75378 -5.681,-14.7528 -7.3488,-15.21378 -1.6679,-0.46097 -0.7124,5.07692 1.5206,13.61362 2.233,8.53669 5.7353,20.07219 9.1858,31.60642 3.4504,11.53423 6.8488,23.0672 8.9592,31.59884 2.1103,8.53164 2.9406,14.06195 1.2792,13.59086 -1.6614,-0.47108 -4.1546,-6.47294 -7.1018,-15.24764 -2.9473,-8.77471 -6.3554,-20.32226 -9.8193,-31.88474 -3.4639,-11.56248 -6.9836,-23.13989 -10.075,-31.9743 -3.0914,-8.83441 -5.7476,-14.92583 -7.4561,-15.51634 -1.7084,-0.5905 -0.759,4.9103 1.4832,13.44959 2.2421,8.53929 5.7687,20.11707 9.239,31.68053 3.4703,11.56346 6.8845,23.1126 8.9885,31.5946 2.1041,8.482 2.9065,13.89686 1.1767,13.19176 -1.7298,-0.70509 -4.2642,-6.82541 -7.2371,-15.65345 -2.973,-8.82804 -6.3912,-20.36381 -9.8604,-31.8998 -3.4693,-11.536 -6.9896,-23.07221 -10.0893,-31.90116 -3.0997,-8.82894 -5.7722,-14.95061 -7.5176,-15.6575 -1.7454,-0.7069 -0.8163,4.70781 1.4122,13.16899 2.2286,8.46117 5.7482,19.96882 9.2079,31.44781 3.4597,11.47899 6.8596,22.92932 8.9352,31.27586 2.0757,8.34654 2.8357,13.5893 1.0375,12.65313 -1.7982,-0.93617 -4.3592,-7.11537 -7.3354,-15.9084 -2.9761,-8.79302 -6.3735,-20.19986 -9.816,-31.59127 -3.4424,-11.39142 -6.9298,-22.76742 -10.0115,-31.49877 -3.0816,-8.73136 -5.7512,-14.81806 -7.5307,-15.63089 -1.7796,-0.81282 -0.8871,4.46104 1.3023,12.75619 2.1895,8.29514 5.6677,19.61156 9.0829,30.88384 3.4153,11.27229 6.7677,22.50044 8.7904,30.61905 2.0226,8.1186 2.724,13.12766 0.8566,11.96176 -1.8674,-1.1659 -4.4395,-7.34109 -7.3941,-16.00496 -2.9546,-8.66387 -6.2972,-19.81642 -9.6774,-30.93702 -3.3802,-11.12061 -6.7979,-22.20928 -9.8328,-30.7454 -3.0349,-8.53613 -5.6811,-14.5197 -7.4926,-15.43011 -1.8114,-0.91041 -0.9741,4.16281 1.1481,12.19747 2.1222,8.03466 5.5212,19.03078 8.8549,29.96617 6.6675,21.87078 13.0494,43.49866 9.1731,40.70627 -3.8763,-2.79238 -10.2877,-24.42101 -16.8459,-45.85221 -6.5583,-21.4312 -13.26,-42.66499 -16.9435,-44.66771 -3.6835,-2.00272 3.0351,19.23159 9.4582,40.1519 6.4231,20.92032 12.5575,41.52665 8.5344,38.26798 -4.023,-3.25867 -10.1904,-23.86557 -16.4611,-44.20135 -6.2708,-20.33579 -12.6407,-40.40048 -16.3825,-42.57473 -3.7417,-2.17426 2.645,17.89135 8.7342,37.56642 6.0891,19.67508 11.8886,38.95963 7.7112,35.22327 -4.1773,-3.73636 -10.0124,-23.02132 -15.9013,-41.95669 -5.8888,-18.93537 -11.8264,-37.52116 -15.625,-39.85918 -3.7986,-2.33802 2.1556,16.24922 7.8112,34.36275 5.6556,18.11352 11.0218,35.75333 6.6796,31.52045 -4.3423,-4.23288 -9.7457,-21.87294 -15.1471,-39.0789 -5.4015,-17.20597 -10.7956,-33.97784 -14.6503,-36.47436 -3.8547,-2.49651 1.5552,14.27757 6.6653,30.48618 5.1101,16.2086 9.9306,31.85172 5.4088,27.09328 -4.5218,-4.75844 -9.3795,-20.40163 -14.174,-35.51832 -4.7945,-15.11669 -9.5203,-29.70688 -13.4314,-32.35933 -3.9111,-2.65244 0.8293,11.94113 5.266,25.86577 4.4367,13.92463 8.5805,27.18032 3.8584,21.8521 -4.722,-5.32822 -8.9014,-18.58372 -12.9508,-31.20948 -4.0494,-12.62576 -7.964,-24.62177 -11.9328,-27.43101 -3.9688,-2.80924 -0.041,9.19223 3.5725,20.40415 3.6136,11.21192 6.9242,21.6343 1.9714,15.66687 -4.9529,-5.96743 -8.2948,-16.38917 -11.435,-26.06212 -3.1402,-9.67295 -6.0752,-18.59712 -10.105,-21.56941 -4.0299,-2.97228 -1.0831,5.96191 1.5263,13.9576 2.6094,7.99569 4.8921,15.05288 -0.341,8.32658 -10.4661,-13.45259 -9.2421,-28.22144 -17.4386,-34.52865 -4.0983,-3.15361 -2.3373,2.14258 -0.9658,6.28841 1.3715,4.14582 2.3635,7.14128 -3.2537,-0.61381 -5.6171,-7.75508 -7.6648,-11.59349 -8.2992,-13.49312 -0.6345,-1.89963 0.1409,-1.86049 0.1409,-1.86049"
       id="path12397" />
  </g>
</svg>
