<?xml version="1.0"?>
<svg xmlns:rdf="http://www.w3.org/1999/02/22-rdf-syntax-ns#" xmlns="http://www.w3.org/2000/svg" xmlns:cc="http://creativecommons.org/ns#" xmlns:xlink="http://www.w3.org/1999/xlink" xmlns:dc="http://purl.org/dc/elements/1.1/" id="svg4397" viewBox="0 0 147.89 169.57" version="1.1">
  <defs id="defs4399">
    <radialGradient id="radialGradient3982" gradientUnits="userSpaceOnUse" cy="289.2" cx="258.21" gradientTransform="matrix(1.0877 -.98246 .67029 .74210 -218.75 329.02)" r="6.7732">
      <stop id="stop3898" stop-color="#ff2a2a" offset="0"/>
      <stop id="stop3900" stop-color="#a00" offset="1"/>
    </radialGradient>
    <radialGradient id="radialGradient3988" gradientUnits="userSpaceOnUse" cy="289.2" cx="258.21" gradientTransform="matrix(1.0877 -.98246 .67029 .74210 -218.75 329.02)" r="6.7732">
      <stop id="stop3942" stop-color="#06f" offset="0"/>
      <stop id="stop3944" stop-color="#025" offset="1"/>
    </radialGradient>
    <radialGradient id="radialGradient4395" gradientUnits="userSpaceOnUse" cy="390.29" cx="-218.24" gradientTransform="matrix(.59145 -.47820 .71771 .88769 -368.24 -58.292)" r="32.887">
      <stop id="stop4576" stop-color="#fea" offset="0"/>
      <stop id="stop4580" stop-color="#ffce0d" offset=".65105"/>
      <stop id="stop4578" stop-color="#d4aa00" offset="1"/>
    </radialGradient>
    <radialGradient id="radialGradient4586" gradientUnits="userSpaceOnUse" cy="372.63" cx="304.23" gradientTransform="matrix(.98297 -.89906 .88782 .97064 -291.93 298.52)" r="73.946">
      <stop id="stop3888" stop-color="#002b11" offset="0"/>
      <stop id="stop3890" stop-color="#008033" offset="1"/>
    </radialGradient>
  </defs>
  <g id="layer1" transform="translate(-168.91 -453.29)">
    <g id="g3962" transform="translate(-94.919 204.82)">
      <path id="path3440" style="color:#000000" fill="url(#radialGradient4586)" d="m338.56 267.76c4.89 5.2743-5.4985 10.207-4.5773 8.2898 2.5702 6.8623-3.5007-2.0028-3.8947-4.6654-1.4455-3.9022-1.0115 2.6508-1.7737-1.7088 1.7678 3.0308-1.5129 4.5355-2.093 0.84753-0.12703 3.44-1.4246 9.0212-1.0559 2.3113 0.81297 4.1702-4.1004 10.998-5.4854 3.4405-0.34989-1.4808-3.4-6.004-3.0826-1.7863-3.3696-5.5395 2.0072 6.9748-2.5475 1.4515-2.8719-4.4383 2.6301 6.4233-1.4093 0.23331-1.9895-2.1046 6.9282 11.375-1.7424 7.1761-3.9649-3.3534-8.7957-9.7762-6.7347-1.0285-0.63614 3.9285-3.1543-5.8372-2.3312 1.3132-1.1327 0.51588-1.7634-3.814-1.0275 1.1018 1.3308 5.8168-2.5019-6.8576-0.86935-0.007 2.3435 8.3529-4.1653-0.70086-4.4248 1.2388-1.7114-1.7434-3.026 0.9292-3.4855 0.38909 1.7609 3.058-0.28314 3.6036-2.1014 1.3932 2.9705 2.576 3.6494 4.7435-0.2091 1.4374-2.8242-1.0895 1.2529 2.4826-1.5868 0.97469 2.9572 1.8944 5.1929 8.879 0.66238 3.5469-2.9468-4.1212 0.76641 2.6428-2.3066-1.5615 2.2468 2.712-5.4476-0.98319-0.93318 2.8427-4.9764-3.331 4.1931 6.0797-2.5248 1.1893-2.7655-1.0891 3.098 6.9975-2.2302 1.8971-3.9193-0.00094 5.7878 5.3213-1.1056 4.3047-6.3765-2.8445 0.0602 1.9857-1.736 2.0828-7.0976-3.7063 5.1494 7.0907-2.7067 3.2333-3.7433-0.73611 1.652 3.3653-2.6548 1.8288 2.452 3.494 3.8349 5.2634-1.2818 4.1938-0.84924 0.4435 6.6784 3.0756 0.14252 2.7034-4.9808-0.1127 1.8447 0.43519-1.7546 0.77889 2.5089 0.0843 11.051 2.5318 4.0146 3.3233-2.5528-0.65777-4.9355-3.6658-1.7721-0.27609-2.8121-1.6381-1.8896 0.0394-2.1618 0.10164-2.394-0.0597-2.0228 1.3193-2.0013 2.5736-4.106-0.35184 6.2339 3.0728-0.65026 2.9287 1.4978-0.0993 7.979 0.62284 3.8872 2.6412 5.8119-0.31682-6.6432 2.777-3.743 1.7596-0.96653 0.98472-3.9406 2.2959 0.0367 2.7013-5.7289 0.13266 7.1195 1.5787-1.2164 1.8695-2.9081 0.52936 8.1468 0.70144 1.1134 1.4522-6.7285 0.26099 11.011 4.5939 1.9854 4.4514-4.2938-0.47905-2.2177-0.37283-1.44 1.2466-0.62184 0.86793-6.0063 1.599-1.9227 1.4283-4.1305 0.74434 4.6646 1.3485-1.1847 2.1462 3.9992-1.6605 10.333 2.5364 2.6759 2.1316-2.7622-0.0238 3.4994 0.60299-0.99753 1.6478-5.9831 2.5596 9.1778-0.2722 1.7303 2.8105-5.4048 3.7409 0.67229-0.21987 2.9189 2.2689-2.6874 0.5228-7.6221 3.76-1.9515 2.1579 5.2425 2.3352-8.0742 6.7503 0.24513 5.6872 7.2663 0.18696-6.6259 4.7424 2.0434 3.3156 2.754 1.101-5.0927 1.3802 0.0825 2.2606 0.067 2.0408-2.947 1.8404 1.2627 1.8557 6.9361 0.49968-5.9084 4.6823 0.34379 3.8468-4.3693 3.9622 8.055-3.9264 2.82 2.0425-4.0222 0.77003-2.1946 4.0682 0.80067 1.4947-2.6073 3.5622-2.8292 3.8369 0.95999 0.83175 4.748-2.1597-4.7439 7.7143 1.1503 2.2077 3.9111-4.4011 5.401-0.51951 1.041 1.7408-4.3396 2.0357 0.9421 0.003-1.8525 2.4463 3.3304-0.60122 9.3284-1.2916 2.7147 1.8706 1.687 0.34571-2.4057 5.328 1.7211 1.868 4.0683-4.153 4.276 0.26431 0.17744 1.6457 3.9213-1.2857 0.0515 0.40504 1.9195 0.38857 6.2274-0.80082-2.9138 1.8676 2.0538 2.1465-1.4697 4.6672-0.17375-0.64432 1.5554 0.0141-4.2482 4.5769 0.44058 1.8736 1.8924 2.9742-3.8026 5.752 4.7655-6.2588 2.4164 0.52603-4.8385 2.3261 4.2714-0.75817-0.73239 4.2397 1.4904-2.4679 3.5106-5.056 1.2594-0.14697-0.66647 1.7589 5.5644-9.2356 2.185-0.77564-3.9817 10.63 4.4546-10.321 3.5035-0.44942-0.36163 1.1757-4.1797 5.3421-0.76536 2.8957-2.4684 8.5294 3.6952-6.4146 3.1379 1.1029-1.8303 7.5875 2.5457 0.64056 5.7572 0.51277 1.4038 3.9921-1.4636 5.7693 1.5324 7.152 1.4713-4.9715 6.4213-3.6032 1.9749 0.67985 3.5131-4.3953 1.79 6.2758 4.664 1.1326 2.9287-5.6711 4.2386-2.5596 4.0386 1.6291 2.217-4.8198 1.6724 4.2822 3.1923-1.2516 1.7379-4.7978 0.61888 8.4767 2.6666 1.3902 0.72281 2.7531 4.4599 3.1308 5.032-2.3166-1.1566 3.77-0.54886 4.3882 0.78745 1.8555 2.9404 5.7362 0.45821-1.3506 2.4909-0.20002 0.6664 2.6525 2.8462 6.3083 2.3388 1.3036 1.6846-0.14067 2.3644 5.7804 2.4034 1.6528 0.94014 4.9582 2.0124-4.6137 2.8552 0.82403-1.5048-6.7207 1.9181 4.4609 1.1169-1.5956 2.5902 5.408 4.0739-9.2521 5.0619-0.76802 0.0925 1.6974 0.71083-0.29999 2.1407 1.6842-1.3063-6.8469 0.57917-1.8012 1.0416-1.6774 3.036 2.8435 0.72128 0.78692 1.2104-1.9068 2.852 7.058-1.5593-7.9937 2.1554-0.69596 0.62891 3.9183 2.1627 2.9805 1.546-0.0516 2.2867 3.7945 2.5193 2.7624 3.332 1.1208 2.3656-0.55931 3.811 2.0802 3.8252-2.2408 2.0228 5.8488 0.96143-6.4865 2.5364 0.29046-1.8412-5.1908 5.5158 3.6849 1.4132-2.8019-1.1946-4.0786 6.4392 4.4428 3.502-0.70267 2.6949 2.8086 2.8993 2.2326 3.053 0.28909 0.76583 1.8161 0.86699-0.56039 2.7606-0.58766-2.2898-1.5824 2.9862-0.73052 1.2054-1.2349 1.5968-1.8117-2.8264-4.8228 1.1168-2.245 3.735 4.7599-2.2946-8.113 1.9248-1.7675-0.3487 1.3714 2.2722-1.2022 1.9928-0.12294-4.1996-4.4374 5.2938 2.3428 2.6164-1.8239 2.5526 2.1826-0.092-2.7059 2.784-0.52607-2.3639-3.1129 1.9252 0.726-1.297-2.6518 5.7731 4.0782-4.3385-4.7894 0.66544-2.0759 2.0505 2.058-0.30818-0.99949 3.176 1.6324 0.57437-1.9853-3.0123-4.2905 1.6444-1.9163-3.5391-4.1021-0.48756-5.2431 3.2404-3.2844-3.6879-3.0013 4.2603 0.85099 0.1786-3.4512-5.0834-4.8319 9.5658 1.6427 2.4218-4.7501 9.0462 3.0948-7.275-4.2745 0.28062-3.8954 3.9311 2.5781 0.69931-0.70678 5.0188 0.24431-5.1977-2.7964 4.0941-0.72595-0.99662-3.9052 5.1052 0.95982 0.61121-1.7233 1.2559-1.3726 2.0101 0.84879 4.1203 0.31345 1.1401-1.1443 2.7212 1.8643-7.6365-6.4505-0.44153-3.8236 6.3099 1.6814 1.3788-1.9077 0.26076-1.9171 4.77 2.4059 2.4895-2.8768 3.0942-2.567 2.5221-0.0689-5.6236-2.1088 1.1255-1.3593 1.785 0.11308-8.7823-1.9729-1.2452-1.9369 6.1133-0.66558-6.408-0.41636-1.9605-2.4437-8.8949-0.56503 11.864-3.2052 1.3047-2.4883-3.1205-1.5046 10.392-2.0542 1.5226-2.0411 7.6982-2.4904-1.2543-0.1724-3.3481-2.2254 3.4598-2.2834-2.7057-0.71861 1.8169-1.9804 6.9829-0.58274 1.7078 0.73022 1.3082-2.2515 8.0112 2.5058-8.0678-4.0844 1.2095-3.8281 5.4353 2.2412-5.9826-2.5787 0.17257-1.8975 4.152 1.7836-6.0036-4.4701 1.338-2.1322-3.5832-2.0173-2.0851-3.0585 1.2746-3.2242-5.7886-0.90802 3.0882-2.8429-3.2735-2.8887 3.5044 1.2725-2.7105-2.8164 1.402-2.7966-5.0202 1.6816-4.8111-0.41012-0.43754-2.1233 1.6477 0.0515-10.645 3.1611-3.4276-0.23289 6.5819-2.783 2.1604-1.8895 0.12214-3.5025 3.9877-2.918 3.0606-2.0607-0.88169-0.76108 0.95192-1.4027 5.8958-5.3535 1.2199-2.9561 6.2897-4.1368-8.4642 4.2563-2.9895-3.2034 5.5272-1.4496-1.8109 0.30039 1.4145-2.9014 2.7253-2.5406-3.7488 2.0705 0.10553-1.527 1.3415-0.60595-9.5607 5.1739-5.1119-0.1019 1.7783-1.26 6.0482-1.7341 1.5617-1.3964 3.6102-6.0055 0.67745 0.31518-2.5581-0.56331-0.27647-3.0131-1.9156 1.1475 0.0484-2.8287 1.6316-1.5673 4.8115-1.907 0.95735-1.1175 4.3382-2.5356-0.60135 0.22724 1.6165-2.6973-1.9959 1.8128-10.209 2.4976-5.2041-2.6828 3.3036-4.587-1.2856-2.4051-2.9967-2.5335 4.4242-2.8022-1.8434-1.4819 1.3684-4.339-2.8037 3.3451-2.9806 2.3168-1.0818-0.43859-1.086 1.4616-5.8688 6.2436-4.6747 1.5574 0.21856 7.8938-7.4584-0.34487-2.2886-3.7415 3.6586-2.582 0.71325-5.0185-1.6833-1.4719 4.0285-8.0918-4.9171 5.0453-4.0078-0.94755 1.0988 5.1035-4.974 4.6481-3.1595 1.9947-1.3446-0.8219-0.0233-5.5419 3.4598-6.7381-4.8128 3.6361-1.5114-1.4685-1.1688-1.413-4.2378 4.0812 0.12225-7.3735-3.4881-1.7361-2.7685 1.1467-9.6273 8.5909-6.0968 1.3374 1.1407-1.6188 3.9492-5.229 0.53499-2.3693 2.153-3.1239 0.67286-1.387 0.0632-1.9698 1.3865-4.9909-3.3422-0.503-1.9496-3.3163-1.5102 3.8416-4.5028 6.4807-3.3135 0.56386-0.0595-4.5293-2.583 12.329-4.5109 4.097 0.85439-3.9466-0.73227-8.4023-2.5153-8.5887 0.0351 4.3522-2.4362 5.0982-1.0441 0.21733-1.4899 0.64733-6.5128 7.6989-3.2875 0.45841-1.7001 1.6041-2.777 1.8978-0.92926-0.88774-1.4529 3.0913-6.2196 6.9003-4.7241 0.6079-1.202-6.6794-0.0398 7.3256-1.1011-0.13296-1.082-7.8748 0.20262 10.165-3.0138 1.0123-1.0113-2.9043-0.82491-5.3907-3.0161-2.0864-0.80127-4.3955-1.8604 1.5268-2.3134-2.7118l-0.25194-1.2921 0.00045-0.0003zm4.25 2.5c0.55847 3.6669-2.0421 4.5733 0 0zm-13.406 0.90625c1.554 3.225-0.26239 1.9029 0 0zm10.938 0.21875c1.5165 2.5247-1.2671 3.7987 0 0zm-13.656 0.875c2.2366 2.2811-0.60051 5.1892 0 0zm16.344 0.1875c1.5531 2.4164-1.443 3.917 0 0zm-13.844 0.78125c2.0943 1.8204-0.70593 2.1249 0 0zm-11.844 0.375c1.6975 2.0361-0.88151 3.6039 0 0zm43.188 0.0937c0.55455 2.052-2.4958 2.1488 0 0zm-4.25 0.34375c1.0852 3.4469-3.6025 5.8605 0 0zm-16.688 0.25c1.3087 1.598-1.3941 5.265-0.58609 1.5614l0.58609-1.5614zm2.7188 0.59375c4.1215 3.2179-2.2284 5.2146 0 0zm-13.281 0.0312c2.2815 1.0693-1.0805 3.0412 0 0zm-2.5312 0.3125c3.1223 0.43897 0.0707 3.8446 0 0zm17.781 0.3125c3.594 2.9725 0.88011 5.0907 0 0zm-25.688 0.625c1.9963 1.6414-0.087 4.2485 0 0zm32.594 0.15625 0.14514 0.33747-0.14514-0.33747zm7.8125 0c0.76012 1.731-1.8132 1.0966 0 0zm-32.562 0.0625c3.3662 4.2101-2.2334 6.996 0 0zm33.688 0.15625c0.13167 3.0799-1.1702 2.0547 0 0zm-9.0625 0.0625c0.29404 1.5402-2.3813 2.7281 0 0zm-20.594 0.6875c1.155 0.68492-0.83541 0.98712 0 0zm24 0.3125c3.7897 3.36-3.2543 3.8173 0 0zm15.281 0.0625c0.36813 3.0118-3.6349 3.9974 0 0zm-18.031 0.1875c2.1701 2.9953-3.5799 1.77 0 0zm-36.062 0.0937c2.0268 0.34451 0.16413 2.871 0 0zm2 0.15625 0.10598 0.21567-0.10598-0.21567zm11.031 0.25c0.98276 1.7571-1.3499 2.403 0 0zm14.969 0.125c1.5118 6.028-1.4266 4.0176 0 0zm-39.875 0.0312c2.3307 3.8761 0.0456 3.8774 0 0zm13.906 0c0.98015 0.14867-0.6409 0.85978 0 0zm12.594 0.125 0.25503 0.26458-0.25503-0.26458zm14.719 0.0625c4.0401 3.3615-0.2448 5.6085 0 0zm-5.9375 0.15625c0.45307 0.6036-0.69669 0.007 0 0zm-5.9375 0.0312c2.5079 0.80881 1.3496 3.6157 0 0zm25.562 0.0312c0.68585 1.7581-1.1626 1.106 0 0zm-1.2812 0.15625c-0.27223 0.59904-0.21234 0.46726 0 0zm-39.656 0.21875c0.0977 0.93537 0.20034 1.9188 0 0zm-2.5 0.25c2.7306 1.3139 0.0967 1.7679 0 0zm36.969 0c0.0476 1.894-2.9222 0.70805 0 0zm-45.781 0.46875c2.2292 2.0876 0.71826 2.506 0 0zm30.312 0c0.32375 0.92123-0.96954 0.0942 0 0zm-31.625 0.21875c1.9958 1.2195-0.23373 2.7282 0 0zm47.938 0.125-0.0428 0.12056 0.0428-0.12056zm-34.219 0.0312c0.81322 0.33179-0.52386 0.79101 0 0zm12.281 0.0937c1.3392 0.85602-0.012 2.4198 0 0zm6.9062 0.0625c0.93152 0.97143-1.3235 0.68891 0 0zm15.156 0.0312c0.38047 1.2577-1.5121-0.33933 0 0zm-34.062 0.34375 0.0674 0.15331-0.0674-0.15331zm48.062 0.0312c0.0281 3.0213-3.2405 2.4596 0 0zm-13.75 0.125c2.8272 3.5474-4.5222 1.2236 0 0zm-17.844 0.21875c0.52356 0.38344-0.72383 0.12781 0 0zm-14.625 0.0625c1.0306 0.15852-0.1413 1.3888 0 0zm8.9688 0.3125c2.6342 2.1462-1.5669 4.2018 0 0zm38.656 0.0625c0.35755 1.7676-2.809 1.3106 0 0zm-49.656 0.0312c1.6209 0.25352-1.2281 1.2016 0 0zm58.656 0.3125-0.12968 0.25404 0.12968-0.25404zm-58 0.0937c3.4437 3.1384 0.71484 5.2972 0 0zm-13.938 0.125c1.7968 0.5361-0.69937 2.1775 0 0zm34.344 0.34375c2.7481 1.0754-0.0734 1.7461 0 0zm-23.938 0.125c2.3121 2.5181-3.1796 2.7335 0 0zm-8.9062 0.1875c1.9452 0.50992-0.34491 1.932 0 0zm69.438 0.53125c-0.53725 5.8028-4.5898 2.3522 0 0zm-13.406 0.28125c-0.92123 2.9059-3.5284 0.43592 0 0zm-57.062 0.1875c1.514 0.65699-0.79134 2.5447 0 0zm58.594 0.4375 0.007 0.12044-0.007-0.12044zm-57.156 0.15625c3.0006-0.2972-0.71395 3.181 0 0zm47.75 0.0312c0.95406 1.2864-1.9213 0.94433 0 0zm-51.906 0.375c2.36-0.35787 0.74159 1.9098 0 0zm8.625 0.125c0.98904-0.43999 0.19097 0.84518 0 0zm-3.1562 0.0312c2.258 0.9139-1.3272 1.5376 0 0zm4.0625 0.34375c0.56002-0.41375 0.10557 0.49869 0 0zm-11.094 0.0625c3.438 2.7412 0.0283 5.5365 0 0zm-9.875 0.125c1.7196 0.187 3.4525 4.0567 0.94306 1.2947l-0.94306-1.2947zm11.812 0.53125c4.2347 3.0084-0.64663 5.0474 0 0zm2.9375 0c0.50244 0.10868-0.39352 0.45149 0 0zm-12 0.0937c2.6214 1.0717 0.93853 3.5181 0 0zm79.062 0c2.4207 2.7381-2.9094 3.1235 0 0zm-23.438 0.0312c0.98009 0.32291-0.74524 0.86955 0 0zm-36.125 0.9375c0.62609-0.56198 0.21049 0.57651 0 0zm58.312 0.28125c0.16503 5.7291-5.9042 2.1594 0 0zm-79.531 0.125c3.0644 1.4211 2.5982 5.5984 0.39953 0.98268l-0.39953-0.98268zm15.344 0.0937c1.0728 0.12612-0.74166 0.94014 0 0zm0.96875 0.34375c4.0592 1.1161-2.9564 3.2143 0 0zm55.719 1.25c0.53555 2.2549-2.3564 1.2338 0 0zm-66.781 0.40625c0.89459-0.2165 0.19124 0.89032 0 0zm-1.3125 1.3438c1.9389 0.76113-0.59707 2.7666 0 0zm-5.9062 0.0625c2.7455 1.4506 1.6343 2.2935 0 0zm14.688 1.125c0.47432 0.17566-0.47586 0.41103 0 0zm-10.281 0.28125c2.0314 0.35882-0.10473 1.5519 0 0zm-10.562 0.90625c1.0732 1.4312 1.2369 1.6495 0 0zm11.75 0.0625c0.90668 0.0363-0.38078 0.76256 0 0zm-4.1875 0.15625c4.7888 1.5106 0.17624 5.3462 0 0zm-6.6875 0.375c3.2011 0.80428 2.1042 4.0192 0 0zm98.344 0c-0.30238 2.1488-2.6995 0.45512 0 0zm-11.969 0.125c-0.006 3.169-3.5919-0.64566 0 0zm-71.219 0.375c0.81148 0.73067 0.889 0.80047 0 0zm29.562 0.0937c1.6436 1.6179-1.6052 0.59669 0 0zm53.969 0.875c0.72774 2.3327-2.0779 1.9443 0 0zm-89.406 0.0937c2.7564 0.91538-1.5344 2.682 0 0zm87.906 0.21875c-0.48033 0.75261-0.78541-0.71753 0 0zm-0.125 0.21875c-0.33546 2.7965-1.8056 0.11778 0 0zm-70.031 0.21875c0.56207 1.7695-2.6793 1.5522 0 0zm37.75 0.0625-0.0627 0.098 0.0627-0.098zm-67.938 0.34375c3.907 0.55983 2.5206 4.6906 0 0zm97.531 0c-0.10927 1.7979-2.1864-0.29913 0 0zm-6.0938 0.0937c-0.38219 0.49994-0.32946 0.43096 0 0zm-38.344 0.0937c-0.35372 1.4451-2.1704 0.49505 0 0zm-47.312 1.0312c1.7397-0.57312 0.3096 1.5554 0 0zm48.5 0.0937c3.8669 3.9069-5.3202 1.4038 0 0zm-45.438 0.0312c0.60409 0.16238 0.52796 0.14192 0 0zm92.812 0.125c-0.23527 1.8308-1.6456-1.0413 0 0zm-4.9375 0.15625c-1.0674 0.0638-1.2344 0.0738 0 0zm-20.5 0.0937c-0.30461 0.54393-0.26885 0.48008 0 0zm-32.062 0.40625c4.2747 0.64442-1.864 4.0959 0 0zm22.219 0.0625-0.03 0.0898 0.03-0.0898zm-59.906 0.0312 0.21369 0.004-0.21369-0.004zm26 0.1875c2.909 3.3474-4.4214 2.048 0 0zm69.094 0.15625c2.2195 5.5779-5.7933 0.27978 0 0zm-41 0.0625c0.71227 2.1256-2.3242 0.11711 0 0zm35.562 0c0.20389 3.4443-2.9045-0.3636 0 0zm-24.281 0.0312c2.2638 2.5267-3.3656 1.9134 0 0zm-69.719 0.0625c4.91-2.2966 2.7344 4.6503 0 0zm112.91 0.0625l-6.375 6.5938c-1.4169-4.086 3.6476-5.4178 6.375-6.5938zm-77.312 0.21875c5.1355 3.5855-5.295 4.8435 0 0zm25.406 0.21875c0.75354 1.2806-2.0786-0.66664 0 0zm46.094 0.0937c0.31265 2.3532-2.5221 0.93093 0 0zm-53.594 0.1875c-0.85221 1.3036-2.6944 0.26176 0 0zm36.25 0.3125c1.7931 0.83094-1.344 0.65685 0 0zm-44.969 0.0625c-0.35365 1.6079-2.3616 0.87771 0 0zm8.75 0.0937c-0.59864 0.98308-2.4105 0.39796 0 0zm7.4062 0.1875c-1.133 0.3796-0.81587 0.27334 0 0zm-62.531 0.0312c0.77495-0.47552 0.10149 0.7883 0 0zm55.344 0c-0.69144 1.1635-2.3131 0.20849 0 0zm-8.3438 0.0625c0.46496 2.1926-2.6542-0.10343 0 0zm34.281 0.0625c1.6303 0.55684-1.1266 1.4385 0 0zm-17.844 0.0625c5.6778 7.4454-6.6008 3.3996 0 0zm-57.844 0.0312c-1.7008 1.648-2.2729-1.6077 0 0zm-5.3438 0.0625c2.3641-0.65184 1.4754 2.7406 0 0zm55.062 0.0312c1.8062 3.7952-3.7543 0.28924 0 0zm-7.5312 0.25-1.235 0.89072 1.235-0.89072zm0.25 0.15625c3.0037 4.0963-4.6729 0.9689 0 0zm9.375 0c0.27616 3.2051-1.202 1.9918 0 0zm-16.188 0.0625c1.4878 1.1042-1.0385 3.0491 0 0zm9.8438 0.0937c2.6828 1.41 4.1292 3.7972 0.6993 0.67377l-0.6993-0.67377zm20.188 0.34375c0.40559 3.9269-3.4613-0.5556 0 0zm32.844 0.125c-1.7334 2.4262-1.8775-0.28801 0 0zm4.0625 0.0937c0.99944 5.9058-5.9946-0.0527 0 0zm-105.59 0.0625c-0.56266 1.9382-1.7304-1.8675 0 0zm46.781 0.0937c0.56532 2.492-0.46599 1.6045 0 0zm-53.688 0.0312c1.0818-0.67059 2.6126 2.0529 0.84331 0.70995l-0.84331-0.70995zm81.156 0c1.6399 1.2971-1.4908 1.3518 0 0zm-38.125 0.125c-0.49092 0.60478-2.3279 2.8679 0 0zm19.844 0.0312c3.089 3.5042-3.2791 4.687 0 0zm14.25 0.34375c0.7414 2.2366-2.4482 0.52979 0 0zm-28.656 0.0625c4.3518-2.8222 4.6021 10.302 5.3921 4.2287 0.45726 7.8414 1.7261-2.648 2.5174-3.7217 3.5644 3.0001 2.9562 6.0415 3.2813 5.9643 2.0563-5.8748 0.8489 1.5313 1.5126-0.43504 2.4378-5.4303 0.72348 4.972 1.9229 0.21526-0.33717 4.6638-0.0942-5.6569 4.0088-3.3982 0.0649-1.3796 0.16249 8.8035 1.3806 3.0562-1.9228 4.3879 1.1928-0.40968-0.18789 2.6166 0.78297-0.50381 4.274-6.0438 3.4516-0.56807-3.1783 4.5536 4.2591-4.8072 1.163 1.0381-1.5823 3.1068 3.8143-4.8104 0.22444 0.82452 3.2331-0.56752 6.5614-9.4885 5.9039-1.4911-1.2013 4.9801-3.8567 3.6489 0.82965 0.72722 3.5417-0.53959-0.0171 7.1682 3.1499 3.9643-5.8506 6.4266 5.9416-4.429 2.6644 3.1697-6.3344 5.08 7.541-2.5954 1.0604 3.4033-0.29421 0.55109 9.113-3.8025 3.2896 1.3775-5.8164 1.6372 5.2211-0.76951-0.41831 3.2068-3.9943 0.90698 8.8527-2.3828 1.9814 1.2597-4.8162 1.5978 1.5193-0.23353-2.2436 1.0626 3.2554-1.2723 8.0371 0.62527 2.4513 2.3205-3.7024 1.0122 2.1453-0.0791-0.92735 0.81375 3.6254-0.23505 4.2325 0.29083 0.20962 0.84033 4.2373 0.043 2.7419 1.1374 0.94135 1.4535 6.2183 0.0285-0.0164 0.74663 0.27308 1.197 4.2786 0.1909 1.4153 0.47328-0.252 0.98036 4.949 0.10348 4.0192 2.1756-0.4788 1.5949 2.5056 0.31108 3.7136 1.0857 0.48386 0.77407 3.194-0.30102 5.6074 2.8526 5.452 2.0623 3.6181-2.2924-3.6376 7.8548 1.4994 1.6888-1.8866 2.8318-2.0888 3.1268 0.76043 1.02-1.4796 4.0977-8.9936 3.5533-7.2918 3.5065-2.9184-0.17477 5.957 1.8281-0.73664 1.1345 7.3362 1.8861 0.38642 2.3991 1.0993 2.6958 3.8369 1.1581-4.0795-0.71567-0.61829 0.9925-4.553-1.5461 8.632 4.6459 1.8364 1.8108-7.6809-3.4688 7.3567 4.836-0.0829 1.2594-7.6668-2.6492 2.856 0.60831 1.6422 2.8825-1.6881 0.52445-7.8679-4.0924-3.7738-0.91657-3.9156-1.6976-2.6763-0.60819 0.29301 2.1983-5.0053-3.1723-0.66633 0.45979-2.0883 0.41207-4.5314-3.9315 3.5897 4.02-1.3663 1.4954-4.3053-3.3345 2.8985 4.0231-1.2603 0.33945-3.9491-3.201 3.9728 6.6809-2.3372 1.0381-0.17899 1.6762 2.6765 3.313-0.69898 0.65004 1.8601 2.7192 1.4359 4.0935-0.72896 2.0652 1.6056 3.5145 1.7802 2.4344-0.25679 1.3631 2.2689 5.44-3.5228-3.2943-0.65293 1.7195-3.6426-4.654 0.59081 3.6977-2.279-0.74874 1.3129 2.7577-1.702-1.2311 0.40399 3.3694-2.3704-5.3526 0.9498 4.1809-2.2453-0.38686-1.3074-3.3438 1.166 4.6978-1.4188-0.8088 1.4105 3.8811-0.4496 0.0283-0.63026 1.0165-0.88585-0.70646 1.1906 2.8347-0.51982-0.576-0.11491 2.5883-1.2711-2.1932-0.34447 1.1857-3.1162-2.0029 1.0073 4.9818-1.7678 0.60212 0.49483 2.5882 0.27906 4.3853-1.1255 0.6723 1.0821 5.3751-0.31098 3.6167-1.5979 1.4216 0.9025 6.0611-1.9776-4.2474-1.192 1.3334 0.42143 5.2092-1.7836-4.498-1.4016 0.30387-0.33555-5.4963-0.36202 4.0313-1.1102-1.2554 0.77862 6.8748-1.937-2.8827-1.1586 1.2878-0.67873-1.1496-0.42266-1.4709-0.90656 1.8264-1.2497-5.6912-1.0638 6.1168-2.8038-0.39786-1.0442-4.3731-1.097 2.9324-1.1026-2.5467-0.45053 2.7969-0.55455-0.99544-1.2423 3.222-0.039-4.9948-1.0082-1.6226-1.9464 0.34861 0.55058-6.1758-1.5358 3.3045-1.2512-2.1228 0.3393 5.0605-4.3624 2.0732-1.595-1.3173-1.1414 4.156-0.69516-1.638-2.1673 3.0651 0.0554-3.8591 0.19831-2.581-1.4343-0.63262 1.7429-6.656-1.1155 1.6254-1.4049 0.53667 1.7858-5.2447-0.25205-0.9924-2.2782 0.0242 1.4806-4.3837 0.24701-5.0136-2.6065-1.3043-0.98047-1.3471 1.3189-5.3741-1.4738-1.0794-4.9964 5.7024 0.0555-7.2853-3.657-1.9388 0.29131-4.3714 1.7785-1.9582-1.5786-1.2047 0.2361-2.4049 1.3362-3.3823-0.83241-1.2844 2.8129-4.3587-1.6581 0.96865 0.75546-2.3621-5.3003 4.7853-0.43617-1.5316-2.2713-0.71027-3.8447 3.1406-1.7259 0.0381 0.36906-1.7653-4.1888 2.716 2.1849-2.7041-2.3461 1.1881-6.9489 3.6795-1.0873-4.059-1.2366-3.4133-4.1008 2.1408-4.5 0.43692-0.71917-1.6616-3.6522 1.3146-5.7791 1.0321-1.1477-1.2362-1.5977 0.29953-4.1862 0.0784-0.72674-0.93482-5.564 0.59883 2.5476-1.7476-2.8145-0.55525-2.0526-1.284 3.5305-2.2884 0.31393-1.8775 2.026-0.8599-6.0173 0.0839-1.0695-1.7929 4.27-1.4255-7.1025 0.29689-0.51927-1.7556 4.9305-1.2757-5.5781-0.0176-0.11465-1.6874 3.6733-1.0402-4.1822 0.38302 0.3795-1.0756-3.5906 0.18432-5.6678-1.1948-0.57848-1.4967 0.65749-0.74948-4.0819-0.97728 0.19102-1.7247-5.5732-0.3414-2.418-1.3171-0.42928-1.6631-3.9208 0.007-4.3212-2.5289 0.0462-2.2719-7.4022-0.84597 5.5227-0.20995-1.8594-1.2408-5.3668-1.7809 5.1368-2.7872-1.1307-3.6137 2.8243 0.33503 4.2213 0.79059 0.81333-0.82916 8.4653 2.1537-6.5951-4.4609 1.04-3.5007 3.0967 0.70143-3.9671-3.0748 1.2958-0.74633 4.9528 1.2956-3.5277-2.8787 1.109-1.0295-6.8066-4.2211 1.9443-0.98095 0.44184-2.4392-4.1748-2.5413-2.3414-2.4821 0.79664-0.57715-3.3697-2.2757-2.9627-4.6355 0.95537-2.172-3.0589-2.6876-1.451-1.6437 0.33281-0.95038-3.5554-3.3191-1.0953-3.1238 1.2749-1.404-2.7825-2.8462-2.3386-2.9358 0.62777-0.39922-0.5277-2.1055 1.9907 1.7288-0.83858-1.2162-3.5087-3.2959 3.7962-0.29991-0.22917-3.4815 0.98368-1.4311 4.666 3.9462 1.3983-0.61707 0.0829-1.2265 3.1166 2.2922 0.57728-1.1908 3.8836 3.24 0.48086 0.76866 0.77304-1.7326 1.7416 0.78976 2.7492 2.9205 2.5061 1.1063 2.2892 3.7533-2.4389-5.0434 1.4598 0.4435-3.2611-3.8469 3.2506 0.81461 0.38215-2.6457 2.0092-0.13931-2.7122-7.0145-0.16946-4.7899-1.8165-3.6288 4.8508-1.0714 5.758 2.6422-0.69715-1.842 0.0868-10.58 2.869-2.7846 0.80515 1.356-0.4621-3.0385 0.91522 0.79153-0.16074-4.5413 0.39412-2.0132 1.3381-0.88818-1.06-5.7956 1.8005 4.3434 0.6502-3.0713-0.22287-1.7953-0.55403-3.5756-0.77592-5.3707zm-41.062 0.15625c1.4136 1.4587-1.6487 0.38448 0 0zm36.156 0c3.3202 2.9696-3.2989 2.077 0 0zm-38.344 0.0937c1.023 1.7859-3.2252-1.8076 0 0zm3.8438 0c2.6907-0.21858 0.72129 1.9754 0 0zm49.688 0.0625c0.81966 0.66403 0.98453 0.79759 0 0zm-12.531 0.375c1.7024 2.5521-0.69843 2.6529 0 0zm-38.406 0.15625c0.88785 0.43773-0.43149 1.0444 0 0zm65.344 0.0937c2.3019 1.1594-0.94584 3.0033 0 0zm-71.656 0.0937c3.3312 0.19662 2.7354 3.0894 0 0zm-4 0.3125 0.34019 0.12547-0.34019-0.12547zm60.219 0.0625c2.1997 1.0128 0.58953 1.1355 0 0zm18.406 0.125c2.4668-1.4449-0.64903 1.3292 0 0zm38.906 0.1875c0.24911 4.9177-4.8778 2.9844 0 0zm-54.08 0.35c1.421 0.0374-0.66637 1.2459 0 0zm49.781 0c0.91041 0.14989 1.9922 0.328 0 0zm-34.875 0.0312c2.032 0.81126-2.0664 1.0109 0 0zm-77.688 0.0312c1.2197 0.29793 1.5005 2.4336 0 0zm111.34 0.0625c5.4707 1.5422-3.744 4.8725 0 0zm-55.781 0.0312 0.1571 0.0854-0.1571-0.0854zm27.438 0.0937c3.2622 0.6166-1.223 3.5785 0 0zm-8.7188 0.0625c2.6951 2.3508-0.50637 1.6261 0 0zm13.594 0.15625c5.6406-1.8789-0.41834 5.8138 0 0zm-86.438 0.1875c2.396-0.42398 1.4037 2.4746 0 0zm48.156 0c0.16743 0.9028 0.37431 2.0184 0 0zm42.844 0c2.8938-0.37216-1.5584 2.1962 0 0zm14.312 0.0937c0.92544 1.819-1.8965 0.71019 0 0zm-35.344 0.21875c-0.64261 1.6344-0.76387 1.9428 0 0zm-27.969 0.21875c2.8585 0.43139 2.0545 1.0132 0 0zm-35.312 0.0937c0.93372-0.78689 0.13927 0.99878 0 0zm-0.15625 0.0312c-0.44403 0.7479-0.63135-1.1228 0 0zm61.875 0.21875c0.41454 0.46306 0.36801 0.41108 0 0zm-34.656 0.0625c1.7409-0.80499 0.0139 1.6092 0 0zm13.125 0.125c0.70748 0.28582 0.43946 0.17754 0 0zm-45.281 0.0312c-0.73699 0.12421-0.37526 0.0632 0 0zm1.0625 0c2.268 1.096-1.428 0.86876-0.84321 0.0486l0.84321-0.0486zm72.5 0.0312c1.6972 1.2885-1.9803 1.5681 0 0zm-39.438 0.15625c1.0299 0.75481-1.658 0.46119 0 0zm37.25 0.0625c0.58271 0.96441 0.54498 0.90197 0 0zm-36.5 0.0625c-0.31691 0.68805-0.18789 0.40793 0 0zm72.031 0.0312c0.89662 2.2845-2.4584 2.055 0 0zm-71.531 0.0625c4.8167-1.4593 3.7582 4.1632 0 0zm5.6562 0c2.1568 0.14375 2.1847 1.1196 0 0zm5.7188 0c0.75011-0.0785-0.35954 0.72672 0 0zm33.656 0.25c0.56285-0.76416 0.42684 0.6288 0 0zm-35.031 0.0312c1.9499-0.31368-0.35584 1.6265 0 0zm22.312 0.0312c0.63714 0.20305-0.50891 0.43894 0 0zm-20.875 0.125c0.5093-0.25011-0.0489 0.55193 0 0zm33.656 0.0937c0.5838-0.14406-0.36126 0.58087 0 0zm-78.094 0.125c1.0589 3.3007-2.8424-1.7766 0 0zm1.4688 0.0625c0.93784-0.31876 0.12867 0.92205 0 0zm69.031 0c2.0312 1.4406-1.1051 1.3706 0 0zm-78.594 0.21875c2.9681 0.15664 7.7973 4.445 2.1396 1.8255l-1.1471-0.82214-0.9925-1.0034zm48.406 0c1.4094 0.35663 1.9388 0.49057 0 0zm40.031 0c1.3031 0.7828-1.0545 2.3115 0 0zm2.25 0.375c4.3982-1.9863 1.7327 3.5678 0 0zm31.188 0c-1.411 0.51206-1.8538 0.67275 0 0zm-41.656 0.0625c-0.55946 0.91462-0.64252 1.0504 0 0zm-68.5 0.21875c2.0479 0.66036-1.7243 1.0708 0 0zm-0.78125 0.125c1.2273 0.91071-1.1761 0.1416 0 0zm76.406 0.0312-0.0137 0.09 0.0137-0.09zm36.375 0.0625c-0.40721 6.6993-7.9081 3.47 0 0zm-36.469 0.0625c3.2941 4.008-1.9388 6.547 0 0zm-78.156 0.15625c1.1848 1.741-2.3258-0.90759 0 0zm34.719 0 1.464 0.25971-1.464-0.25971zm44.812 0.1875c1.7826 2.9665-0.75986 4.2571 0 0zm-48.156 0.0312c3.9798-0.0464 4.9937 1.3175 0 0zm56.844 0.21875c2.9554 0.55371-2.4712 0.55534 0 0zm-99.438 0.15625c2.7387 1.1352 3.2577 3.7788 0 0zm92.906 0.125c3.2802-0.73882-1.0379 3.1568 0 0zm29.25 0.1875c-0.10488 0.90666-0.80869-0.23463 0 0zm-18.969 0.1875c1.6155-0.33827-0.71434 1.2845 0 0zm-101.53 0.0312c2.7871 1.4332 1.4507 2.2547 0 0zm118.31 0.4375c-0.89145 0.70544-0.79684 0.63058 0 0zm-116.69 0.0625c2.7384 0.003 2.2078 3.0605 0 0zm94.281 0.25c4.338-1.2294 0.3408 3.3807 0 0zm-4.5625 0.21875c0.50761-0.0725-0.33755 0.44619 0 0zm-58.531 0.0312c1.4411-1.0768 0.91166 1.1831 0 0zm5.0938 0.0625c0.47559 0.595 0.2924 0.36581 0 0zm-27.375 0.21875c1.0597 0.37302 1.0067 0.35434 0 0zm106.34 0.0937c2.0567-0.82239 0.47101 1.661 0 0zm-112.19 0.0937c1.0451-0.48913 0.33097 0.98878 0 0zm82.5 0.4375c1.2764 2.299-0.0509 2.1364 0 0zm27.188 0c2.4377 0.99292-1.9301 2.0904 0 0zm-108.06 0.0625c4.4207 0.38361-2.4453 1.1637 0 0zm88.906 0.3125c4.084-0.92089 1.1901 3.7446 0 0zm-1.375 0.0625c0.71649 1.292-1.5449-0.1999 0 0zm-89.438 0.0312c2.9841 0.79744 0.012 1.8842 0 0zm3.5625 0.125c0.89514-0.0229-0.47553 0.87224 0 0zm31.125 0.0625c-0.15434 0.59561-0.74817-0.78796 0 0zm77.656 0.0312c1.3784 0.0359-1.2346 1.0243 0 0zm-108.19 0.0625 0.10213 0.0787-0.10213-0.0787zm84.594 0.1875c4.3854 6.157-6.0612 4.3456 0 0zm9.9688 0.3125-0.10209 0.0787 0.10209-0.0787zm-63.531 0.0937c4.3388 0.66517-1.6064 1.3365 0 0zm-1.375 0.1875c0.59605 0.87964 0.70058 1.0339 0 0zm-2.0938 0.125c0.81484 2.3811-2.2125-1.4763 0 0zm54.219 0.0625c0.1218 1.0669-1.2239 0.084 0 0zm4.7812 0.0312c3.6159-0.49228 0.0129 3.1214 0 0zm-53.781 0.0625c0.32879 0.53053 0.28884 0.46607 0 0zm80.688 0.34375c-1.9362 5.0629-6.1076 0.0361 0 0zm2.3125 0.125c-0.22114 3.0959-3.0161 2.5757 0 0zm-23.156 0.0937c3.9498-0.77694-0.69997 2.0804 0 0zm-60.844 0.0312c1.8536 0.83598-1.6847 0.4037 0 0zm-1.4688 0.1875c0.93482-0.0536-0.2579 1.0885 0 0zm56.219 0.21875c1.4904-0.72443 0.29159 1.2664 0 0zm-57.969 0.0312c-0.81002 1.6334-2.6026-1.9585 0 0zm57.938 0.25c1.6302 0.12228-1.2104 1.2583 0 0zm-93.156 0.0625c0.77984-0.36455 0.28201 0.73016 0 0zm1.0938 0.28125c1.4675 0.55284-3.3607 0.1559 0 0zm34.656 0.0312c2.614 3.0066-3.2921-0.54672 0 0zm-33.438 0.28125c1.1572 2.1101-2.1165-0.95561 0 0zm96.031 0.15625c2.1137-0.57226-0.81276 1.6498 0 0zm5.4375 0c0.53598 1.361-1.7024-0.61065 0 0zm11.062 0c0.43704 0.49076-0.62478 0.0312 0 0zm-83 0.21875c1.7479 0.10078-0.12378 1.2978 0 0zm94.062 0.125c-0.15621 1.5793-2.7934 0.48024 0 0zm-125.72 0.0937c0.97977 1.1743-2.2507-0.74901 0 0zm30.125 0.0312c3.5324 0.80265-2.8272 0.44954 0 0zm65.469 0.0312c0.20421 6.0909-6.4293 2.2484 0 0zm-62.094 0.21875c0.64575-0.19676-0.0914 0.55192 0 0zm-6.5312 0.28125 0.0376 0.30992-0.0376-0.30992zm7.0312 0.25c1.1243 0.007-0.11911 0.85516 0 0zm-5.875 0.1875 0.0233 0.10332-0.0233-0.10332zm4.7812 0.0625c1.6359-0.0666-0.66331 0.84402 0 0zm-1.3438 0.3125c0.33401 1.5923-2.6966-1.4678 0 0zm70.875 0c1.1647-0.34419 0.0414 1.2945 0 0zm24.156 0.40625c-1.0819 5.7918-5.3473 1.2747 0 0zm-27.625 0.0312c3.9444 2.3186-3.6998 0.63529 0 0zm-69.781 0.125c-0.76117 0.20435-0.54517 0.14636 0 0zm3.2188 0.28125c2.9794 1.672-2.7072 0.45288 0 0zm91.875 0.3125c-0.0646 2.33-2.9842 0.99941 0 0zm-4.25 0.1875-0.11713 0.0681 0.11713-0.0681zm-89.812 0.0937c5.0118-0.58762-2.2542 1.8577 0 0zm67.156 0.1875c1.628 0.0184 1.2423 2.7023 0 0zm20.094 0.0937c1.4246 3.2592-3.5395-0.14741 0 0zm-84.062 0.0625c0.0181 1.6919-2.5279-1.357 0 0zm-30 0.125c-0.29679 1.9948-2.1689-0.93592 0 0zm93.844 0.25c2.3008-0.23934-0.10916 1.8632 0 0zm-95.281 0.28125c1.5088 1.3004-1.4971 0.22436 0 0zm29.438 0.0312c-0.74567 0.27894-0.5523 0.2066 0 0zm-29.969 0.15625c0.60653 1.5036-2.1631-0.81324 0 0zm100.88 0.15625c0.16904 1.2737-1.2282-0.69554 0 0zm-5.2188 0.0312c0.2513 0.75024 0.1824 0.54456 0 0zm-71.906 0.0312c-0.46373-1.1359-1.1085-2.7153 0 0zm0.75 0.0625c0.77152 0.29955-0.78913 0.51159 0 0zm-25.312 0.0312c-0.13389 0.71531-0.79221-0.71641 0 0zm3.9062 0.0625c0.11368 0.91752-1.505-0.93445 0 0zm117.84 0.0312c1.7876-0.38754-0.58005 1.5498 0 0zm-26.156 0.0312c-0.11658 0.9561-0.22308 1.8295 0 0zm7.9375 0c2.1467 0.34878-1.6168 0.89761 0 0zm-112.12 0.0625c4.4426-0.10619 3.3608 2.338 0 0zm130.09 0.59375c2.1608-0.25234-1.0783 1.4345 0 0zm-125.53 0.0312c0.67017 0.37983 0.43759 0.24801 0 0zm124.31 0.1875c0.0613 0.73339-0.81606-0.35179 0 0zm-91.344 0.0625c0.9507-0.50688 0.0586 0.83334 0 0zm69.344 0.125c1.7619 0.99765-1.6335 0.22541 0 0zm24.562 0.1562 0.14068 0.0777-0.14068-0.0777zm-25.188 0.0937c1.872 5.7588-6.6077 0.55052 0 0zm-70.062 0.15625c-0.41409 1.3385-1.8919-0.83802 0 0zm72.562 0.0312c1.2296-0.41995-0.16991 1.117 0 0zm6.5938 0.125c0.24395 1.6044-2.0274-0.53542 0 0zm-78.438 0.375c5.8479 1.6819-3.1112 2.0339 0 0zm-36.594 0.15625c2.442-0.94852 1.3712 1.3171 0 0zm135.38 0-0.0938 0.10165 0.0938-0.10165zm-31.719 0.0625c0.32716 2.8653-1.3646 1.7158 0 0zm29.594 0.0937c-0.87444 1.8586-1.8266-0.76428 0 0zm-2 0.125c0.10846 1.9338-3.0855 0.80438 0 0zm-1.75 0.125c0.52798 1.6919-1.4891-0.23347 0 0zm-128.03 0.375c3.9078 0.0879 2.8668 2.4832 0 0zm32.781 0.0312c2.1966 0.20162 0.48836 1.6986 0 0zm101.5 0c-0.66645 2.552-3.2066 1.0895 0 0zm-25.094 0.0312c0.52222 0.39334 0.41315 0.31119 0 0zm16.688 0.0312c-0.19179 0.7699-0.14052 0.56407 0 0zm-121.88 0.34375c2.3178-0.63711 1.8566 2.0332 0 0zm27.344 0.1875c5.5959 1.0283-3.9925 2.6652 0 0zm75.969 0.0312-0.12843 0.0588 0.12843-0.0588zm19.875 0.125c0.52656 0.84154-1.1331 0.44835 0 0zm-18.531 0.0312c0.56321 0.4246 0.36825 0.27762 0 0zm-1.9688 0.0312c2.5625 1.8477-2.6217 0.40121 0 0zm-76.5 0.28125c0.96921 0.48137-0.7716 0.41543 0 0zm4.75 0.25-0.15562 0.12312 0.15562-0.12312zm71.031 0c1.92 0.48745-1.4483 1.3735 0 0zm-70.781 0.15625c1.3968 0.58452-1.6299 0.4093 0 0zm-6.5938 0.65625c0.99821-0.0682 0.16594 0.75111 0 0zm5.4062 0c-0.50308 1.4491-2.4958-0.20133 0 0zm0.53125 0.3125c-0.88359 2.2474-2.6095-0.64453 0 0zm-29.062 0.125c2.7796-0.54462-0.67095 1.343 0 0zm24 0c0.62395-0.19401-0.25675 0.51642 0 0zm-3.7188 0.34375c1.678 0.83078-1.0598 1.2292 0 0zm111.53 0.0937c-1.1452 1.5731-5.1282-0.47419-1.6146-0.30962l1.6146 0.30962zm-28.844 0.59375c0.95505-0.11939-0.25189 0.53284 0 0zm1.6875 0.0937c2.0771 0.11964-0.87582 1.3403 0 0zm-2.25 0.0312c1.93 3.6105-4.3867 1.1642 0 0zm-75.812 0.15625c-0.28652 0.7541-1.0197-0.5816 0 0zm74.156 0.25c0.99069 4.9322-5.4461 0.8269 0 0zm25.938 0.0312c5.2663-3.3422-1.1558 3.4786 0 0zm-0.875 0.0625c-0.46119 2.598-1.8668 0.52995 0 0zm-125.28 0.4375c4.5868 1.348-2.3489 2.3723 0 0zm-0.875 0.5c-0.22863 3.4756-4.0596-0.89843 0 0zm104.19 0c1.2638 0.56396-1.4689 0.49028 0 0zm-78.406 0.0937c4.8332 0.46584-2.8445 2.3543 0 0zm73.219 0.0625c0.2703 1.0015-1.2848 2.1822 0 0zm-101.25 0.59375c-0.64178 1.2573-2.2677 0.24933 0 0zm125.75 0c0.0226 1.8663-2.9746 0.38348 0 0zm-95.688 0.28125c-0.61878 0.47635-0.42839 0.32978 0 0zm0.3125 0.125c-0.0263 1.7483-3.0543-0.30913 0 0zm98.062 0.8125c3.9669 1.7109-3.3103-0.12917 0 0zm-23.094 0.59375-0.34105 0.0594 0.34105-0.0594zm-108.72 0.0312c-1.275 1.3209-2.6436-1.5808 0 0zm107.47 0.125c-1.2011 1.2277-2.5668-0.55138 0 0zm-79.344 0.21875c0.5076-0.28929-0.0269 0.66461 0 0zm0.40625 0.15625 0.11385 0.0914-0.11385-0.0914zm0.1875 0.0625c0.52677-0.50973 0.13605 0.58615 0 0zm-28.812 0.3125 0.30974 0.001-0.30974-0.001zm111.19 0.0937c-0.29795 1.6624-1.4522-0.88099 0 0zm-85.375 0.0312c2.1319 1.093-1.3964 1.5198 0 0zm83.375 0.15625c-0.96197 2.3667-2.8402-0.9985 0 0zm-82.469 0.15625c1.1072 0.2894-0.82826 1.0287 0 0zm4.2812 0c2.3308-1.0035 0.68157 1.6838 0 0zm76.062 0.0625c-0.78909 2.5617-3.2396-0.86247 0 0zm-79.656 0.125c0.35637-0.1543-0.15383 0.35638 0 0zm-24.625 0.0312c0.30589 1.645-2.5541-1.95 0 0zm0.71875 0.40625c0.29226 0.26917-0.57713-0.0549 0 0zm26.312 0.3125c2.4336 3.3171-4.6957-0.15191 0 0zm101.31 0.0312c0.70586-0.79174 0.36619 0.86857 0 0zm-0.5625 0.21875 0.032 0.0624-0.032-0.0624zm3.875 0.125c6.0352-1.4272 2.8261 3.0397-0.23105 0.53144l0.23105-0.53144zm-102.84 0.1875c1.2818 3.0773-3.6793 0.0928 0 0zm78.562 0c-0.68097 1.1933-1.2336-0.80246 0 0zm-1.8125 0.0937c-1.0508 1.6043-3.0356-1.2828 0 0zm-105.41 0.5625c-0.52724 0.34989-0.45047 0.29895 0 0zm128.44 0.6875c4.4418-1.5962 0.69123 3.277 0 0zm-22.031 0.0937c-0.75815 1.0031-1.2622-0.67734 0 0zm-1.6875 0.0625c-1.0822 1.5667-2.6441-1.653 0 0zm-102 0.25c3.4474-0.33271 0.90065 4.3201 0 0zm-1.5 0.1249c-1.4252 3.6992-4.3491-0.93556 0 0zm-2.5312 0.1875c-0.48812 1.9281-2.8539-0.31135 0 0zm3.625 0c2.2648 1.3676 0.19832 3.2965 0 0zm-4.0312 0.0625c-1.921 1.6564-2.966-0.99099 0 0zm136.19 0.0312c5.9006 0.37402-6.4924 1.972 0 0zm-132.78 0.34375c4.9742 2.1057-4.272 2.5814 0 0zm102.94 0.21875c4.572-0.51226-3.039 1.6643 0 0zm2.5938 0c1.9566 1.3704-2.3039 0.55077 0 0zm0.25 0c1.4625-0.1895-0.0275 2.0463 0 0zm1.1875 0c0.42352-0.4601 0.0349 0.58602 0 0zm15.969 0.5c1.4306-0.48399 2.2945 1.4161 0 0zm-97.031 0.65625c1.6012-0.51333 0.62372 0.97378 0 0zm102.28 0.28125c1.0326-1.317 0.48663 0.95889 0 0zm-100.88 0.0312c1.071-0.55651-0.37643 0.86882 0 0zm100.34 0.1875c0.27996 0.8478-1.2322-0.55734 0 0zm-25.969 0.28125c1.4044-1.3458 0.69813 1.2139 0 0zm29.594 0.0312c5.2204 1.7844-5.0591 0.25694 0 0zm-105.69 0.15625c0.77417 0.1378 0.55005 0.0979 0 0zm1.0625 0.15625c0.61309-0.40675-0.15769 0.57193 0 0zm-8.6875 0.15625c1.0773 1.3237-1.752 0.36241 0 0zm3.3438 0c1.1298 0.69689-2.133 0.26495 0 0zm1.7188 0.21875c1.1144 0.23081-1.222 0.62053 0 0zm1.2812 0.21875c1.3521 2.874-3.6955 0.47431 0 0zm-1.5312 0.0625c-0.2272 0.59802-0.18869 0.49665 0 0zm3.1875 0.1875c-0.48673 0.61113-0.3376 0.42389 0 0zm0.46875 0.0625c1.5872 3.0273-3.522 0.43449 0 0zm101.03 0.28125c4.3298-0.89624 2.1753 3.1502 0 0zm-19.844 0.0312c-0.72975 0.81096-0.80133 0.8905 0 0zm-85.5 0.0937c0.14251 1.0111-1.2247-0.0188 0 0zm109 0.6875c1.705 0.94267-3.2181 0.68132 0 0zm-24.344 0.0625c0.45731 0.60224-0.80399 0.0509 0 0zm-84.125 0.375c0.58106 0.26032-0.58298 0.19473 0 0zm101.25 0.1875c1.7896 0.57405 0.75616 2.3048 0 0zm-17.719 0.0312c0.45412 1.1436-1.5761-0.0288 0 0zm19.688 0.0937c4.5887-1.6624 1.7151 4.9676 0 0zm-129.94 0.15625c-2.0508 1.0956-3.0974 0.0461 0 0zm2.1562 0.5c-1.9606 1.8613-4.0904-0.73383 0 0zm6.125 0.125c0.43135 1.0718-1.5519-0.96403 0 0zm125.44 0.125c0.0353 1.1943-1.7884 0.22831 0 0zm0.90625 0.21875c1.77 3.0198-3.8279 0.17173 0 0zm-24.219 0.40625c-0.4313 0.45747-0.37378 0.39646 0 0zm-106.34 0.0937c0.0147 1.8766-2.2829-0.39762 0 0zm109.41 0.0312c-0.20351 0.59073-0.17835 0.51769 0 0zm-108.22 0.125c0.12987 0.74002-0.7805-0.0987 0 0zm113 0c1.9352 2.9703-2.9225 1.7145 0 0zm-8.25 0.0937c-2.0914 3.0076-4.3013 3.5084 0 0zm-103.53 0.25c4.4411-0.29529-0.39874 2.4871 0 0zm-1.8125 0.1875c0.35212 0.91957-1.2146-0.33664 0 0zm19.531 0.125c2.1634-1.0644-0.865 1.7429 0 0zm2.9062 0.0937c1.8113 0.19041-2.4957 1.3301 0 0zm1.4375 0.0312c2.3398 2.057-3.2222 0.55693 0 0zm1.4688 0.0625c3.3532 1.4186-3.531 1.4508 0 0zm1.4062 0.0312c0.4993 1.7915-2.9414 1.5168 0 0zm89.344 0.28125c3.7333 4.4047-2.817 6.1256 0 0zm-94.094 0.125c0.87234 0.17541-0.62714 0.64872 0 0zm85 0.125c0.95057 0.29119-0.67371 0.54535 0 0zm-85.125 0.0312c1.0584 0.81585-1.3372 0.45912 0 0zm-23.188 0.34375c-0.44362 2.7998-3.2237 0.95678 0 0zm107.84 0c1.0121 0.52692-0.97615 0.48621 0 0zm-85.062 0.1875c0.88472 0.49729-1.0582 0.24703 0 0zm84.625 0.1875c0.83988 1.5606-2.4614 0.44906 0 0zm-1.4688 0.0312c-1.4885 2.0083-2.3353 1.5694 0 0zm-104.69 0.0312c1.6938 0.80774-3.5616 0.53852 0 0zm127.41 0c0.8308 0.19117-0.6806 0.40626 0 0zm-17.125 0.125c1.9343 2.0545 1.2688 4.2032 0 0zm9.9062 0.125c1.8043 1.46 1.3966 3.7675 0 0zm2.9375 0c1.5902-0.34498-0.40723 1.6846 0 0zm5.5938 0.0312c2.7309-0.73898 1.303 2.18 0 0zm-23.344 0.28125c0.21297 1.9345-3.2608 0.92206 0 0zm-78.562 0.625c-0.17929 2.9424-3.3063-0.58044 0 0zm-2 0.0937c-0.64527 2.6742-2.836-1.0517 0 0zm-22.656 0.0312c-0.47618 2.6352-2.7425-0.79296 0 0zm20.406 0.0312c-0.13153 2.0097-2.3332-1.0462 0 0zm-5.5625 0.25 0.0779 0.0285-0.0779-0.0285zm110.53 0.0937c3.4502-0.99325 1.0692 3.8313 0 0zm-0.3125 0.15625c4.7369 2.0198-3.9957 3.3234 0 0zm-127.19 0.0625c2.8824 0.71273-2.152 0.64106 0 0zm-0.78125 0.21875c0.58816 0.86666-1.5286-0.6364 0 0zm107.78 0.28125c0.81171 1.169-1.5721-0.23356 0 0zm23.219 0.1875c0.89133 3.6361-4.3738 0.53347 0 0zm-133.62 0.25c-0.3775 1.1788-1.123-0.87884 0 0zm0.4375 0.0625c3.0899-0.0196 1.1931 1.2585 0 0zm30.469 0.0312c-0.0389 2.2583-1.8553-0.26953 0 0zm-1 0.0937c0.21591 1.9351-1.4993-0.37221 0 0zm-0.90625 0.0937c-0.13127 2.0802-2.2666-0.7595 0 0zm75.406 0.0625c1.4453-0.66678-0.29736 0.9465 0 0zm24.875 0c3.4878 1.6732-2.1312 2.5609 0 0zm-102.56 0.125c-0.88679 0.31451-1.8164 0.64422 0 0zm78.5 0.15625c1.3316-0.91586 0.47718 1.1238 0 0zm-81.594 0.28125c0.54552-0.0337-0.31252 0.33759 0 0zm98.906 0c-0.16712 0.74255-0.10226 0.45434 0 0zm5.6875 0.5625c2.2162 0.58047-0.96612 1.7004 0 0zm-98.188 0.3125c-0.37857 3.1658-1.8823 0.35566 0 0zm-1.125 0.125c0.0932 1.9173-1.5417 0.45563 0 0zm76.875 0.0312c-0.31661 1.6804-2.2268 0.20896 0 0zm-77.906 0.0937c-0.23008 2.8057-2.1022 0.63949 0 0zm78.719 0.21875c7.8108 2.2543-5.3312 2.306 0 0zm24.281 0c0.76035 1.8732-2.4473 0.0231 0 0zm-105.97 0.3c0.85552 1.8071-2.296 0.17281 0 0zm-22.062 0.0312c-1.4426 2.4123-3.1897-0.43744 0 0zm124.34 0c2.3328 1.8859-2.8843 1.3336 0 0zm-18.656 0.5625c1.6243 0.86541-0.54838 1.9959 0 0zm23.125 0.25c0.0137 0.95305-1.1677-0.067 0 0zm-22.312 0.0625c1.3424 0.69565-0.60612 1.9337 0 0zm20.281 0.0312c0.3803 1.4044-1.6976-0.27838 0 0zm-107.84 0.0937c0.4175 0.84971-1.2334-0.13544 0 0zm81.688 0.15625c1.7354 0.30332-1.4196 0.65668 0 0zm-96.781 0.21875c-0.18729 0.9182-0.88204-0.63645 0 0zm97.469 0.0937c2.6452 0.43332 1.4001 1.5504 0 0zm7.2812 0.21875c1.7953 0.31008-0.30623 2.9045 0 0zm17.156 0.1875-0.0895 0.0988 0.0895-0.0988zm-96.844 0.125c-0.40353 0.91902-0.6985 1.5908 0 0zm-0.28125 0.0625c-0.14215 2.9326-3.1738-0.60519 0 0zm-1.6562 0.34375c0.21066 2.2194-2.0145-0.13911 0 0zm105.47 0.15625c-2.1568 1.4834-2.0302-0.67778 0 0zm-131.5 0.0312c5.7587 1.2145-1.9956 3.4887 0 0zm24.344 0.1875c0.14058 1.3454-1.1474 0.18624 0 0zm-25.406 0.0625c-0.4141 2.4112-2.7802 0.7898 0 0zm2.2812 0.0312c1.1092-0.58706 0.40737 1.1735 0 0zm-3.6875 0.5c0.1552 1.71-2.8543 0.74249 0 0zm1.625 0.28125c3.3513 0.0883-1.1633 1.9411 0 0zm-2.5938 0.0625c-0.91048 1.7853-2.3071-0.80029 0 0zm24.625 0.0937c0.53708 0.0572-0.4196 0.30684 0 0zm-2.5625 0.15625-0.0843 0.045 0.0843-0.045zm8.25 0.0937c0.19036 3.0316-3.2571-0.0173 0 0zm101.72 0.125c-1.2569 1.5886-2.491-1.3023 0 0zm-1.9375 0.28125c1.2609 0.84187-1.8123 0.0545 0 0zm-101.62 0.0625c0.41622 1.9714-2.4247 0.61297 0 0zm-18.188 0.25c0.35491 0.42313-0.65323 0.0437 0 0zm-9.1562 0.75c2.3778 1.8999-3.5501 0.61494 0 0zm31.281 0.0312c0.30501 4.4918-4.953-0.7356 0 0zm-5.0312 0.1875 0.053 0.0744-0.053-0.0744zm78.625 0.28125 0.0908 0.12179-0.0908-0.12179zm22.188 0.34375c-0.30144 0.85991-0.70257-0.68094 0 0zm-120.75 0.15625 0.11727 0.0423-0.11727-0.0423zm21.844 0.0312c0.55188 2.8636-3.3588 0.75557 0 0zm97.938 0.15625c-0.81368 0.70881-0.91883 0.80041 0 0zm-124.28 0.0312c-2.5385 2.3807-4.8485 0.87602 0 0zm2.7812 0.0937c-0.15626 1.8025-2.1508-0.44927 0 0zm123.16 0.1875c3.8144 1.9107-2.0878 2.7748 0 0zm-121.97 0.0312c0.75297 1.1336-1.8364 0.20711 0 0zm20.281 0.15625c0.0773 0.49404-0.46396-0.30933 0 0zm-23 0.3125c3.5039 2.0941-3.4054 0.0424 0 0zm22.5 0.0312c1.2481 0.6355-2.006 1.1264 0 0zm101.19 0.21875c1.5958 1.3738-1.9877 0.22649 0 0zm-125.12 0.4375c-0.18258 1.2606-1.2514-0.77876 0 0zm30.406 0.125c0.72734 2.0024-2.04 0.49259 0 0zm73.812 0.28125c1.1783 1.3238-1.4156 0.31456 0 0zm-109.11 0.42c2.0754 1.5447-3.6102-0.0943 0 0zm33.531 0.0312c-0.28393 3.1452-3.9469-0.24085 0 0zm70 0.1875c-0.0719 0.66162-0.56091-0.47351 0 0zm-100.91 0.0312c4.4015-1.137-1.3178 1.4774 0 0zm2.0625 0.1875c1.345-0.8871 0.66943 0.79906 0 0zm99.438 0.0937c0.2297 0.86546-1.115-0.62004 0 0zm-67.469 0.125c0.53557 1.0316-1.1818-0.0501 0 0zm65.656 0.0625c-0.0957 0.93645-1.0422-0.69772 0 0zm-66.062 0.125c-0.0251 1.5308-2.15-0.37912 0 0zm97.281 0.0937c-0.86016 1.5076-3.0043-0.74865 0 0zm-30.812 0.125c0.98452 0.89232-1.5091-0.139 0 0zm2.125 0c1.8031-0.41703-0.0229 1.3098 0 0zm-100.84 0.375c1.9062 0.63584-3.6629 1.273 0 0zm30.812 0.0625c-0.0425 1.1711-1.2117-0.45243 0 0zm68.562 0.0625c2.5835-0.41068-0.50823 1.4372 0 0zm-73.719 0.0312c0.68781 1.3532-1.6211-0.3006 0 0zm-22.875 0.0624c0.5893 0.45955 0.29921 0.23333 0 0zm30.375 0c0.77989 1.7432-1.6238 0.0671 0 0zm-30.062 0.0312c1.0837-0.5671 0.574 0.99309 0 0zm-0.375 0.125c1.5911-0.47463 0.13419 1.3396 0 0zm2.25 0.0312c2.3551-0.39352-1.3689 1.1708 0 0zm27.469 0.1875c-0.15845 0.74808-0.0996 0.47036 0 0zm-29.875 0.0312c3.0077 1.9546-3.0556 1.4165 0 0zm95.438 0c1.8493 3.0837-3.3723-0.86394 0 0zm-96.156 0.0312c-1.077 3.703-4.4566-0.14679 0 0zm30.188 0.15625c0.17507 1.6989-2.443-0.12209 0 0zm-3.2188 0.1875-0.17874 0.095 0.17874-0.095zm-20.406 0.34375c0.67861 0.48885-0.92222 0.23185 0 0zm119.34 0.0937 0.34486 0.0606-0.34486-0.0606zm-97.281 0.125c0.38202 1.2713-1.3636-0.31119 0 0zm2.4688 0.25c0.92717 1.4226-1.3496 0.69645 0 0zm66.531 0.0625c-0.7323 1.3768-1.9665-0.72078 0 0zm26.969 0.71875 0.0876 0.007-0.0876-0.007zm2.7812 0.0312c1.4746-0.9683 0.69822 1.6993 0 0zm-100.88 0.0312c0.20472 0.5213-0.54406-0.21338 0 0zm68.219 0.0312c1.3068-0.27376-0.21942 0.80115 0 0zm31.125 0c4.2485 0.32494-2.0162 1.6406 0 0zm-3 0.0937c1.5562-0.31033-0.47195 0.76387 0 0zm5.7812 0.1875c2.7307-0.45598 1.0104 2.611 0 0zm-129.47 0.1875c3.7999-0.67163-2.8721 1.8505 0 0zm26.281 0.0312c-0.3331 0.74379-1.0231-0.60964 0 0zm-23 0.0625c2.9633 0.38387-3.0739 0.77035 0 0zm25.781 0.15625c0.86554 1.1605-1.2094 0.22596 0 0zm99.094 0.21875c0.41362 0.0775-0.31778 0.0829 0 0zm-33.906 0.1875c-0.25376 1.2997-1.2102-0.8475 0 0zm-65.562 0.1875c0.85861-0.0318-0.4211 0.71427 0 0zm65.906 0.1875c0.81668 1.5215-2.2464-0.90797 0 0zm29 0.21875c4.572-1.6472-1.3633 1.8454 0 0zm-94.969 0.0312c0.39994-0.12714-0.18621 0.33862 0 0zm97.688 0.125c5.0843 0.5023-3.5534 1.8436 0.00002 0h-0.00002zm-99.562 0.125c0.32667 1.1849-1.2557-0.50779 0 0zm73.969 0.0937c0.75269 0.76651-0.92403 0.0348 0 0zm-5.5 0.0625c0.20883 1.3067-1.8769-1.1008 0 0zm-64.906 0.21875c0.85269 1.8728-1.6273 0.10749 0 0zm-30.094 0.0312c-0.29265 3.8293-4.271-0.22027 0 0zm1.125 0c4.4123-2.0429-0.97494 3.8552 0 0zm23.969 0.375c2.4062-0.21934-1.5566 1.1669 0 0zm70.625 0.125c4.6722 1.369-2.2373 0.55279 0 0zm-66.281 0.40625c2.2002 0.54786-1.8059 1.3129 0 0zm62.438 0.21875c3.089 2.6526-3.2963-0.30727 0 0zm-59.125 0.34375c1.5354 3.3054-2.881 2.0832 0 0zm-24.844 0.53125c-0.48514 1.5739-2.0631-1.167 0 0zm-2.3438 0.3125c0.59068 1.3105-1.6285-0.39823 0 0zm85.281 0.40625c-0.35474 0.73407-0.67211-0.96655 0 0zm-84.281 0.0625c1.3528-0.0705-0.94042 0.99903 0 0zm18.969 0 0.0327 0.0705-0.0327-0.0705zm-20.688 0.0312c1.2168 2.5518-2.9531 0.062 0 0zm-2.375 0.28125c-1.5279 2.5761-2.3683 0.50777 0 0zm88.688 0.0312c-0.41706 0.54177-0.50302-0.78699 0 0zm-1.3125 0.125c-0.48578 1.0828-0.99035-1.0579 0 0zm3.8438 0.15625c-0.50092 0.88611-0.87392-0.83969 0 0zm30.969 0.0312c2.9721 0.77566-2.5886 0.55368 0 0zm-118.38 0.0312c0.55997 0.31452-0.82468 0.25916 0 0zm85.156 0.0625c1.2693 0.55421-1.0019 0.23956 0 0zm-1.3438 0.0937c1.0061 1.4514-2.2022-0.78978 0 0zm-53.188 0.15625c-0.14061 2.8122-3.032 1.0686 0 0zm2.1562 0.125c0.0376 0.67682 0.0272 0.49083 0 0zm-9.8125 0.0625c1.2964 0.2023-0.9405 0.67185 0 0zm-26.188 0.0937c0.0471 1.1101-1.2167-0.40121 0 0zm35.844 0 0.055 0.27445-0.055-0.27445zm-0.15625 0.15625c1.8428 3.1681-3.808 1.6738 0 0zm54.875 0.125c0.74673 0.0269 0.37802 0.0136 0 0zm-1.7188 0.0625c0.54793-0.30085 0.0323 0.64892 0 0zm-59.938 0.0625c0.73082 0.28946 0.51858 0.2054 0 0zm58.031 0c1.1784-0.98326 0.38892 1.4114 0 0zm-58.062 0.375c1.0033-0.49294-0.38862 0.92698 0 0zm-24.656 0.0625c0.1128 1.4032-1.4172-0.69808 0 0zm117.81 0.34375 0.11932 0.005-0.11932-0.005zm-34.406 0.0625c1.622-0.45301 0.42701 2.4183 0 0zm2.0312 0 0.1875 0.21875-0.1875-0.21875zm32.906 0c2.8823-0.58622 1.3198 1.5342 0 0zm-116.09 0.0625c0.59861 1.4688-1.7221-0.22233 0 0zm-3.0938 0.0625c0.22214 2.7721-3.368 0.76172 0 0zm34.688 0.0312c0.18557 1.5889-2.1876 0.47512 0 0zm-4.0312 0.375c1.4116 3.2232-3.7164 0.90473 0 0zm4.9375 0.0625c2.0333 1.7513-1.4806 2.1669 0 0zm-33.562 0.375c2.0616 0.94121-3.0068 0.43603 0 0zm115.97 0c1.4682-0.66756 1.0251 1.8973 0 0zm-90.594 0.1875c0.83248 0.24066-0.77899 0.38095 0 0zm7.5625 0.15625c2.2715 3.0322-3.5011 2.3209 0 0zm43.375 0 0.17404 0.0374-0.17404-0.0374zm0.0625 0.15625c2.0003-1.1636 0.6353 1.4942 0 0zm-56.031 0.1875 0.0908 0.12179-0.0908-0.12179zm92.25 0.0312c3.4461-0.14943 0.38821 2.3743 0 0zm-116.69 0.0625c-0.0183 1.8722-3.0905 0.45482 0 0zm118.28 0.0625c2.2916-0.97008 1.7217 2.2589 0 0zm-87.281 0.40625c2.7387-1.6436-0.17971 1.9019 0 0zm48.719 0 0.12187 0.0628-0.12187-0.0628zm-40.688 0.0937c1.8124 2.166-1.141 1.4039 0 0zm81.5 0.0937c4.332 0.79678-0.51451 2.6239 0 0zm-40.656 0.0937c0.64734 0.1932-0.47359 0.73007 0 0zm-51.938 0.0312c0.25908 0.3672-0.48632-0.0588 0 0zm53.25 0.125c2.4046-0.7178 0.5247 1.6383 0 0zm-50.344 0.28125c1.5527-0.56991-0.62959 1.3904 0 0zm82.312 0.0625c2.717-0.32824 1.0224 1.1677-0.33105 0.30473l0.33105-0.30473zm-106.25 0.0312c0.30551 1.1341-1.03-0.19569 0 0zm31.5 0.0937c1.7363 1.669-1.0661 1.2443 0 0zm2.3125 0c2.0832 2.0349-0.43573 1.7141 0 0zm73.531 0.0937c1.7797-1.5438 0.28787 1.5014 0 0zm-109.72 0.25c0.81219 0.89931-1.3528-0.0471 0 0zm35.906 0.0937c2.1166 1.7903-0.40772 3.4469 0 0zm-5.3125 0.0312c1.2347 1.5304-1.9535 0.5163 0 0zm40.625 0.0937 0.0859 0.14471-0.0859-0.14471zm-46.344 0.15625c1.0458 0.29337-0.95304 0.84479 0 0zm-32.094 0.15625-0.30891 0.0889 0.30891-0.0889zm40.438 0c1.7028 2.3319-2.9366 1.9994 0 0zm80.344 0c3.2402-1.6016 0.88538 1.6328 0 0zm1.625 0.4375c5.6048 2.4156-3.4963 1.4548 0 0zm-3.0938 0.0312c1.7869 0.36746-1.0432 0.42773 0 0zm-76.844 0.0625c1.5769 2.9352-0.22619 2.3726 0 0zm-5.4688 0.0312c2.8116-0.84742-0.66263 2.4214 0 0zm10.25 0c2.006 1.3895-0.37313 2.882 0 0zm29.844 0.125c1.9398-0.67925 0.15846 2.0655 0 0zm39.75 0.53125c0.64439 0.36016-1.2559-0.10288 0 0zm-31.438 0.0625c0.44033-0.31559-0.0759 0.51996 0 0zm-75.688 0.0625c0.30197 0.65112-0.79828-0.19486 0 0zm76 0c1.3225-1.076-0.12686 1.1718 0 0zm-38.906 0.0625c1.6453 0.75895-0.29218 3.4538 0 0zm-16.469 0.0937c0.80095 0.87569-1.2315 0.76875 0 0zm11.469 0c1.3651 1.9053-0.415 1.6068 0 0zm35.594 0.0312c2.1306-0.35236-0.16155 1.665 0 0zm-3.3125 0.28125c0.96504-0.53469 0.22654 0.92432 0 0zm-64.938 0.0937c2.1776 2.6091-3.4452 1.0695 0 0zm26.719 0c1.3416 2.3101-2.6406 0.83432 0 0zm39.562 0c1.0193 0.36584 1.1405 0.40937 0 0zm-25.125 0.125c2.4626 1.4953-0.23355 1.587 0 0zm22.094 0.0625c1.5413-0.82976 0.27067 1.4639 0 0zm1.7812 0 0.20914 0.0956-0.20914-0.0956zm-27.781 0.125c3.4628 2.3174-2.4578 3.7864 0 0zm27.844 0.0937c0.9197-0.49698 0.0665 0.94743 0 0zm-63.531 0.0625c0.74764 0.60951-1.1013 0.38986 0 0zm30.375 0.15625c2.0619 2.0018-2.7352 1.5972 0 0zm9 0.0312c0.30196 0.54455 0.26678 0.48109 0 0zm3.9688 0.0937c0.40593 0.51696 0.31738 0.40419 0 0zm17 0.0312c0.91044 0.53304-0.50122 1.2238 0 0zm-17.031 0.0625c1.7941 0.62823-1.3557 1.506 0 0zm-15.688 0.0312c1.1288 1.271-1.803 0.41754 0 0zm34.219 0.0625c1.3169-0.47699 0.22473 1.219 0 0zm1.8125 0.0312 0.36585 0.12765-0.36585-0.12765zm1.3438 0 0.27045 0.0966-0.27045-0.0966zm-25.781 0.0625 0.76343 1.2751-0.76343-1.2751zm66.562 0.125c0.57776 0.71444 1.2872 1.5917 0 0zm-43.812 0.34375c2.0577-0.15176-0.48269 2.3112 0 0zm-17.406 0.0312c1.3155 0.086-0.51461 1.0685 0 0zm12.625 0.0312c0.97768-0.35355-0.0215 0.93569 0 0zm2.0312 0.0312c1.2626-0.44375-0.13421 1.1815 0 0zm-62.469 0.0937c0.39468 1.2773-1.6232-0.0394 0 0zm57.812 0c0.97495 0.63849 0.77689 0.50878 0 0zm-11.5 0.0312c1.1066 1.5789-2.0972 1.5894 0 0zm3.5 0.0312c2.0912 1.1946 0.26968 1.903 0 0zm8 0.0937c0.50289 0.36926 0.44313 0.32539 0 0zm-4.5938 0.0937c1.7593 0.5192-1.0789 1.2997 0 0zm7.2812 0c0.89577-0.38571 0.0107 0.84492 0 0zm-8.4062 0.0625 0.21398 0.18686-0.21398-0.18686zm5.7188 0.0625c3.133 0.77071 0.5302 1.6476 0 0zm-49.344 0.0625c0.9584 1.5453-1.5497 0.11617 0 0zm39.188 0.0312c1.5836 0.44789-1.1226 1.1945 0 0zm4.4375 0.0312c1.2625 0.77155-1.3527 1.0394 0 0zm-15.938 0.0312c0.50455 0.13941-0.42366 0.47528 0 0zm26.375 0c0.78666-0.38555 0.13138 0.74974 0 0zm-28.812 0.0312c0.40322-0.67444 0.32338 0.72949 0 0zm30.156 0.0625 0.0569 0.11462-0.0569-0.11462zm-14.188 0.0937c2.9772 1.3745-0.22624 1.9371 0 0zm10.844 0 0.1875 0.0937-0.1875-0.0937zm6.7812 0c1.3787 0.22703-0.82499 1.4107 0 0zm-25.438 0.0625c2.3511 1.6982-0.38879 1.5354 0 0zm-35.344 0.1875c0.29445 1.5539-1.6314-1.271 0 0zm27.625 0c-0.0443 1.5744-1.7576-1.4087 0 0zm23.688 0.0625c2.3641 0.41574 0.85322 2.7638 0 0zm-56.094 0.0312c-0.89848 0.87729-2.2648 0.0508 0 0zm35.844 0.0625 0.11739 0.36927-0.11739-0.36927zm15.5 0.28125c1.4784 0.45581-1.1461 1.4017 0 0zm15.812 0c1.9042-0.39218-0.24528 1.5278 0 0zm38.844 0-1.2689-0.82289 1.2689 0.82289zm-60.344 0.0312c1.1352 1.2931-1.8868 2.028 0 0zm-42.781 0.0312c0.85941 2.4481-1.6924 1.0961 0 0zm-4.8438 0.0625c0.25816 1.5108-1.4864-0.50572 0 0zm5.9688 0.1875c1.5828-0.7871-0.61186 1.4824 0 0zm-6.8125 0.0312c-0.74762 1.8648-2.341-0.472 0 0zm70.906 0.0937c0.32006 0.82726-1.3203-0.29482 0 0zm39.531 0.0312c0.96261-0.6764 0.2277 0.93522 0 0zm-75 0.0312c0.4687 1.7826-2.0468-1.126 0 0zm35.688 0.15625c0.35418 0.46678-0.65569-0.0333 0 0zm-18.219 0.0625 0.14554 0.26378-0.14554-0.26378zm-20.469 0.125c0.36767 0.40845-0.61621 0.0126 0 0zm-2.5625 0.0625c-0.13208 0.97503-0.78876-0.83187 0 0zm29.031 0c3.413 0.11118 0.54529 4.1505 0 0zm52.25 0c3.2984 0.0405-0.14311 1.971 0 0zm-60.75 0.125c2.0132 0.69027-0.11694 1.7052 0 0zm61.75 0c2.6589 0.45303 1.3742 3.1265 0 0zm-8.5938 0.1875-0.26886 0.067 0.26886-0.067zm-30.438 0.21875c0.39181 0.23964-0.41103 0.13801 0 0zm-20.312 0.0625c0.55329 0.36947-0.6521 0.36415 0 0zm-43.562 0.0312c0.48284 1.0935-1.0762-0.054 0 0zm-5.0938 0.0937-0.0911 0.13527 0.0911-0.13527zm57.656 0.0312c0.97389 0.19519-0.67865 0.87676 0 0zm-19.688 0.0937c1.4338 1.1319-1.7812 0.56211 0 0zm-38.125 0.0625c0.28688 0.95137-1.2494-0.22476 0 0zm101.19 0.28125c0.59308 2.1346-1.9266-1.0912 0 0zm-55 0.0625c2.9431 1.1855-1.992 2.8589 0 0zm56.562 0.125c2.7067-0.49761 0.71503 1.5676 0 0zm-100.03 0.0625c3.4845 2.0544-3.2624 2.3574 0 0zm98.719 0.125c1.1033 0.13572-0.58159 0.90902 0 0zm-51.594 0.15625c0.61166-0.0238-0.21738 0.51553 0 0zm-48.219 0.0625c2.0797 4.1426-4.2249 2.0826 0 0zm53.312 0.0625c0.8313 0.69506 0.92875 0.77654 0 0zm-16.281 0.125c1.0932 1.2412-1.9819-0.25052 0 0zm66 0.28125c0.30545 2.0402-3.2936-2.055 0 0zm-46.719 0.0312 0.0682 0.16974-0.0682-0.16974zm2.2812 0.0937 0.0715 0.14264-0.0715-0.14264zm45.5 0.0312c0.75817-0.50301 0.23933 0.75694 0 0zm-76.844 0.0312c-0.31687 0.96038-0.91077-0.77341 0 0zm79.594 0.1875c3.1697 0.37358 1.0099 1.625 0 0zm-50.438 0.0312-0.0207 0.12261 0.0207-0.12261zm44.25 0-0.0811 0.0524 0.0811-0.0524zm-55.062 0.0625c0.8256 2.2471-2.5101-0.26404 0 0zm57.906 0.125c-0.46618 1.8419-2.746-2.1008 0 0zm0.375 0.46875c-1.3528 1.7744-2.2595-2.073 0 0zm-73.062 0.0937c-0.15435 0.46491-0.46745-0.47488 0 0zm73.375 0.28125c4.2109 1.9174-0.0657 2.3565-1.087 0.10119l1.087-0.10119zm-99.75 0.875c0.32555 0.81647-1.0424-0.0605 0 0zm3.9375 0.0312c0.58269 3.0259-3.1434-0.32794 0 0zm22.781 0.21875c1.0986 1.5491-1.6078 0.0888 0 0zm-30.531 0.1875c0.0271 0.66475-0.50767-0.28917 0 0zm99.812 0.0312c1.5908-0.8877 0.39761 1.2972 0 0zm3.0625 0.125c3.1291 0.83416 1.5854 1.679 0 0zm-103.59 0.0937c-0.59121 1.5843-1.9592-0.26503 0 0zm101.94 0.375c1.2633 0.76994-2.1482-0.41547 0 0zm0.5625 0.25c4.0897 1.1366-1.6226 0.98769 0 0zm-100.47 0.125c-0.40953 0.5916-0.25352 0.36623 0 0zm-1.375 0.0937c0.50223 1.3855-1.2593 0.14166 0 0zm3.5938 0.28125c1.147 5.7846-4.9973 2.2204 0 0zm94 0.0937c1.1627 1.1323-2.1308-0.43742 0 0zm-91.875 0.0937c3.5515-1.2523-1.053 2.3127 0 0zm93.5 0.15625c1.35-0.50632 0.26007 1.2659 0 0zm2.8438 0.59375c2.6938 0.86573 1.6656 1.4687 0 0zm-3.875 0.0312c3.2681 1.0685-0.69673 2.749 0 0zm-4.0312 0.21875c1.7204 1.3933-1.8138 0.00024 0 0zm-0.6875 0.0312c0.44267 0.35248-0.45516 0.0641 0 0zm0.96875 0.125c2.8262 0.12054-0.11451 3.287 0 0zm-92.812 0.0312c1.8282 3.1781-5.5453 5.4476-1.074 1.1476l1.074-1.1476zm4.9688 1c-0.17649 2.4455-2.7053 1.6692 0 0zm87.594 1.0625c2.7507-0.009 0.4604 1.6638 0 0zm2.9688 0.25c0.39645 0.69182 0.29507 0.51491 0 0zm-75.875 0.21875c0.60667 0.45243-0.53856 0.28058 0 0zm-10.562 0.0937c2.8649 1.3924-1.7288 2.9405 0 0zm6.5312 0.25c0.3097 0.47805-0.70797 0.0843 0 0zm-3.5 0.6875c1.1075 1.4056-1.8833 1.0804 0 0zm-8.7812 0.0625c0.0191 1.132 0.0192 1.1343 0 0zm4.9375 0.21875c1.0812 3.7133-0.13534 5.0118 0 0zm9.8438 0.875c0.48082-0.28364-0.036 0.53459 0 0zm-1.7188 0.125c0.88976 1.2003-2.0707-0.1664 0 0zm72.5 0.15625 0.18118 0.12533-0.18118-0.12533zm4.0312 0.0625 0.11536 0.0661-0.11536-0.0661zm-80.312 0.0937c0.45269 3.1933-3.0568-0.92682 0 0zm80.469 0.125 0.0944 0.0808-0.0944-0.0808zm-83.25 0.0937c1.7154 1.7063-1.4181 1.089 0 0zm79.67 0.48c0.68725 0.35141 0.453 0.23163 0 0zm-70.781 0.21875c0.25139 0.99427-0.81505-0.40248 0 0zm-1.8125 0.21875c0.46569 1.9868-1.9563-0.9103 0 0zm-2.1562 0.34375c0.29669 1.0428 0.33097 1.1633 0 0zm78.656 0.0625c0.92939 0.0828 0.39589 1.3057 0 0zm-70.312 0.0625c-1.4211 0.83415-0.88931-0.21942 0 0zm-11.594 0.125c0.29261-0.30087-0.0207 0.32485 0 0zm-0.8125 0.0937c-0.18104 1.0144-0.23284 1.3047 0 0zm73.312 0 0.11624 0.10093-0.11624-0.10093zm7.25 0.125c0.30238 0.69131 0.17386 0.39748 0 0zm-4.9688 0.0937c1.855 0.18052 0.30918 1.1174 0 0zm3.0312 0c0.60611 0.35165 0.41782 0.24241 0 0zm2.6875 0.125c2.4138 0.57068 0.75226 3.5793 0 0zm-2.25 0.28125c2.2108 0.21489 0.80873 2.6411 0 0zm-72.531 0.0312c-0.47327 2.0532-1.4658-0.7154 0 0zm66.656 0.25c4.4858-0.61143-0.12871 4.8576 0 0zm9.9688 0c0.78968 0.61671 1.3721 1.0715 0 0zm-78.625 0.0625c1.5228 1.2523-1.0316 1.1741 0 0zm-2.9062 0.0312c0.0326 0.9097-0.99069-0.36446 0 0zm-0.0625 0.28125c-0.2826 0.87159-0.64629 1.9933 0 0zm75.219 0.0937c0.71458-0.0482-0.27913 0.84593 0 0zm-73.938 0.125c2.4522 5.0281-4.2731 4.034 0 0zm9.4375 0.15625c0.53678 3.606-3.4256-0.1871 0 0zm68.875 0.21875c1.6861 0.50421-0.1437 1.9113 0 0zm-77.406 0.34375c0.69625 0.0888-0.42286 0.48313 0 0zm1.1562 0.15625c0.24723 0.8809-0.7413-0.2887 0 0zm4.8125 0.0625c2.544 2.1951-2.5417 2.5767 0 0zm-5.9062 0.125c0.84664 0.45933-0.58825 1.0565 0 0zm79.781 0.21875c0.29338 0.64313 0.19068 0.41801 0 0zm-66.781 0.0312c-0.53758 0.33128-0.46145 0.28436 0 0zm57 0c3.2695 0.38281 1.717 3.8083 0 0zm9.9688 0.0937c0.33036 0.68839 0.20602 0.4293 0 0zm-75.938 0.21875c1.9399 4.9653-4.1153 4.7155 0 0zm73.875 0.375c1.001 0.0923 0.72137 1.6542 0 0zm-0.46875 0.15625c0.57993 0.48603 0.34098 0.28577 0 0zm-8.3438 0.15625c1.3298 0.85417-0.49902 1.1497 0 0zm-57.5 0.46875c1.0173 1.679-2.024 0.50376 0 0zm-5.0312 0.28125c-0.39108 2.3688-1.631-0.24953 0 0zm1.6875 0.125c0.46261 0.54261-0.69023 0.11013 0 0zm-10.656 0.53125c0.88316 1.2179-1.7477 1.1962 0 0zm71.062 0.0937c0.3985 1.0241 0.42969 1.1042 0 0zm-1.5625 0.0625c0.52392 0.57958 0.36341 0.40202 0 0zm-59.688 0.1875c1.7724 3.3466-3.8681 1.6578 0 0zm-2.3438 0.0312c1.0859 1.1751-1.5174 0.87814 0 0zm64.5 0.4375c2.1202 0.8932-0.31572 2.484 0 0zm-56.656 0.34375c-1.88 5.6628-4.293 2.2604 0 0zm54.281 0.34375c2.0771 0.69357-0.18107 1.8824 0 0zm-69.594 0.0625c-1.2645 1.2516-1.4707 1.4557 0 0zm60.812 0.125c0.80561 0.19893-0.48539 0.50968 0 0zm2.9062 0.0312c1.7036-0.25538 0.1068 1.4991 0 0zm-1.8438 0.0937c1.6037 0.0263-0.77725 1.7576 0 0zm9.5312 0.0625c1.6613 0.59956-0.30884 1.8908 0 0zm-2.8438 0.0312c0.98924 0.22693 0.009 1.388 0 0zm-60.438 0.0312c1.1143 5.838-5.3268 4.1339 0 0zm11.438 0.34375c1.7938 1.909-1.7817 2.6717 0 0zm-1.4688 0.0937c-0.01 0.75502-0.73106-0.15625 0 0zm4.2812 0.0937c1.2602 0.51435-0.67402 0.80677 0 0zm38.469 0.0937 0.16066 0.19732-0.16066-0.19732zm3.5312 0.0625c2.5492 1.1602 0.72193 3.5383 0 0zm-46.25 0.15625c1.7699 1.6502-1.3123 1.4787 0 0zm52.906 0.0312c1.4179 0.80562-0.43353 1.6315 0 0zm-55 0.125c-0.46135 0.60172-0.27531 0.35908 0 0zm45.906 0c2.3318 1.5054-0.36683 3.5372 0 0zm-9.6875 0.125c2.7688 2.4173-0.42313 4.6821 0 0zm2.6562 0.0312c0.80523 0.39629-0.48248 0.52207 0 0zm14.938 0.0625c2.6738 1.049 0.83121 3.4128 0 0zm-1.0938 0.125c1.667 0.44285-0.17642 2.9706 0 0zm-52.969 0.125c-0.95638 3.8494-4.9227 5.0626-0.92445 1.0252 0.30815-0.34172 0.6163-0.68344 0.92445-1.0252zm24.062 0.0625c0.59169 0.40712-0.86712 0.27345 0 0zm9.2812 0.28125c0.94342-0.0881-0.1764 0.70922 0 0zm10.844 0.15625c0.10691 0.69084 0.074 0.47797 0 0zm-19.625 0.0312c0.68851 0.63262-0.81403 0.11679 0 0zm28.125 0.25 0.11522 0.31875-0.11522-0.31875zm-51.219 0.0312c2.8513 2.4967-2.5394 7.575 0 0zm43.625 0.0937c1.6239 0.31025-0.8014 1.3617 0 0zm-29.312 0.21875c0.98234 0.19563-0.48834 0.6532 0 0zm27.531 0.0312c1.4606 2.4188-0.89176 1.7058 0 0zm0.90625 0.15625 0.11416 0.0868-0.11416-0.0868zm-20.594 0.0937c2.33 0.17927-0.42208 1.6565 0 0zm20.594 0.15625c1.0966 2.5332-0.23104 4.1163 0 0zm7.6875 0 0.24924 0.30926-0.24924-0.30926zm-26.062 0.15625c0.75183 0.52469-0.74517 0.23536 0 0zm27 0.1875 0.24938 0.3057-0.24938-0.3057zm-48.25 0.0312c2.2772 3.0863-3.7875 2.9357 0 0zm37 0.0937c0.76683 2.8134-0.41921 2.2683 0 0zm-30.469 0.125c-0.67962 3.1068-1.935 2.1219 0 0zm41.375 0c0.87282 0.22699-0.33998 0.85097 0 0zm-18.375 0.1875c1.9991 0.22938-0.0135 1.7881 0 0zm-18.812 0.0312c3.5525 3.1422 0.58037 5.4638 0 0zm-18.594 0.0625c0.61483 0.61006-0.89696 0.43756 0 0zm9.6875 0.0312c2.5161 2.911-3.3638 3.4161 0 0zm32.438 0.125c2.2349 2.7679-1.3775 7.3128 0 0zm14.094 0c1.2222 0.41176-0.25396 1.4255 0 0zm-20.125 0.0312c1.1164-0.34567-0.0471 0.94647 0 0zm-7.4688 0.0312c1.4653 0.77476-1.6905 1.7036 0 0zm-1.8438 0.1875c1.56 0.61072-0.86472 2.2953 0 0zm4.8438 0.125c1.7607 0.88815-0.74907 2.548 0 0zm14.031 0.0625c1.5293 2.737-0.61861 4.5539 0 0zm-5.875 0.65625c2.141 2.0996-0.001 2.3017 0 0zm-1.7812 0.0937c1.3729 0.0954-0.61507 1.4328 0 0zm2.875 0.0312c1.2224 0.1352-0.70748 1.1677 0 0zm-12.656 0.15625c1.8932 3.4854-2.1386 4.7571 0 0zm-21.469 0.0625c1.3107 1.5976-1.6664 1.7997 0 0zm10.906 0c1.8453 1.3694-0.83872 1.8448 0 0zm16.906 0.0312c0.37136 0.65752 0.18541 0.32664 0 0zm-4.8438 0.125c0.59013 0.559-0.72202 0.31407 0 0zm-6.7812 0.0312c1.4198 0.8067-0.82289 1.7635 0 0zm-24.75 0.15625c0.61784 1.3223-1.3254 1.7683 0 0zm0.53125 0.0937c-0.0903 0.63516-0.0748 0.526 0 0zm8.5 0.125c0.66162 0.0718-0.47351 0.56091 0 0zm7.125 0.0937c-0.71834 1.643-0.82464 1.8861 0 0zm4.5625 0.15625c3.4313 1.2116-0.42709 7.7827-0.0193 1.578l0.0193-1.578zm15.938 0 0.0931 0.1436-0.0931-0.1436zm-5.3438 0.125c0.0713 4.1609-1.9685 5.9759 0 0zm-16.656 0.125c0.98209-0.0308-0.1141 0.7745 0 0zm0.0312 0.375c0.69508 0.49857-0.76153 0.60819 0 0zm12.75 0c1.4305 1.4913-0.0345 2.9382 0 0zm-14.875 0.125c-0.9178 3.0327-1.6052 2.01 0 0zm1.3438 0.46875c0.9427 2.3063-1.823 2.4018 0 0zm1.5 0c0.34278 2.4278-1.4398 1.4018 0 0zm31.531 0.0937c0.34862 0.59451 0.24233 0.41326 0 0zm-46.156 0.28125c-0.14996 1.1601-0.11763 0.90996 0 0zm25 0.3125c1.0163 2.1114-1.4236 2.8393 0 0zm-1.9062 1c0.9683 0.93498-0.6124 1.9703 0 0zm5.2812 0.0625c1.2721 1.2322-0.5004 2.684 0 0zm-4.7188 1.8125c-0.21219 0.74599-0.14287 0.50228 0 0zm0.46875 0.0937c1.0181 0.91183-0.6322 1.9706 0 0zm-0.90625 1.1562c0.0495 0.70529 0.0322 0.45817 0 0z"/>
      <path id="path3904" fill-rule="evenodd" fill="url(#radialGradient3982)" transform="matrix(-1 0 0 1 553.98 43.254)" d="m264.27 291.5c0 3.7408-3.0325 6.7732-6.7732 6.7732-3.7408 0-6.7732-3.0325-6.7732-6.7732s3.0325-6.7732 6.7732-6.7732c3.7408 0 6.7732 3.0325 6.7732 6.7732z"/>
      <path id="path3908" fill-rule="evenodd" fill="url(#radialGradient3982)" transform="matrix(0 1 -1 0 577.52 112.19)" d="m264.27 291.5c0 3.7408-3.0325 6.7732-6.7732 6.7732-3.7408 0-6.7732-3.0325-6.7732-6.7732s3.0325-6.7732 6.7732-6.7732c3.7408 0 6.7732 3.0325 6.7732 6.7732z"/>
      <path id="path3936" fill-rule="evenodd" fill="url(#radialGradient3982)" transform="matrix(.70908 .70513 -.70513 .70908 351.28 -3.8432)" d="m264.27 291.5c0 3.7408-3.0325 6.7732-6.7732 6.7732-3.7408 0-6.7732-3.0325-6.7732-6.7732s3.0325-6.7732 6.7732-6.7732c3.7408 0 6.7732 3.0325 6.7732 6.7732z"/>
      <path id="path3946" fill-rule="evenodd" fill="url(#radialGradient3988)" transform="matrix(-1 0 0 1 529.49 36.121)" d="m264.27 291.5c0 3.7408-3.0325 6.7732-6.7732 6.7732-3.7408 0-6.7732-3.0325-6.7732-6.7732s3.0325-6.7732 6.7732-6.7732c3.7408 0 6.7732 3.0325 6.7732 6.7732z"/>
      <path id="path3950" fill-rule="evenodd" fill="url(#radialGradient3988)" transform="matrix(-1 0 0 1 561.19 109.32)" d="m264.27 291.5c0 3.7408-3.0325 6.7732-6.7732 6.7732-3.7408 0-6.7732-3.0325-6.7732-6.7732s3.0325-6.7732 6.7732-6.7732c3.7408 0 6.7732 3.0325 6.7732 6.7732z"/>
      <path id="path3954" fill-rule="evenodd" fill="url(#radialGradient3988)" transform="matrix(-1 0 0 1 650.33 93.372)" d="m264.27 291.5c0 3.7408-3.0325 6.7732-6.7732 6.7732-3.7408 0-6.7732-3.0325-6.7732-6.7732s3.0325-6.7732 6.7732-6.7732c3.7408 0 6.7732 3.0325 6.7732 6.7732z"/>
      <path id="path3958" fill-rule="evenodd" fill="url(#radialGradient3988)" transform="matrix(-1 0 0 1 657.29 20.99)" d="m264.27 291.5c0 3.7408-3.0325 6.7732-6.7732 6.7732-3.7408 0-6.7732-3.0325-6.7732-6.7732s3.0325-6.7732 6.7732-6.7732c3.7408 0 6.7732 3.0325 6.7732 6.7732z"/>
      <path id="path3912" fill-rule="evenodd" fill="url(#radialGradient3988)" transform="matrix(-1 0 0 1 636.91 60.755)" d="m264.27 291.5c0 3.7408-3.0325 6.7732-6.7732 6.7732-3.7408 0-6.7732-3.0325-6.7732-6.7732s3.0325-6.7732 6.7732-6.7732c3.7408 0 6.7732 3.0325 6.7732 6.7732z"/>
      <path id="path3916" fill-rule="evenodd" fill="url(#radialGradient3982)" transform="matrix(.88968 .45658 -.45658 .88968 261.32 30.327)" d="m264.27 291.5c0 3.7408-3.0325 6.7732-6.7732 6.7732-3.7408 0-6.7732-3.0325-6.7732-6.7732s3.0325-6.7732 6.7732-6.7732c3.7408 0 6.7732 3.0325 6.7732 6.7732z"/>
      <path id="path3928" fill-rule="evenodd" fill="url(#radialGradient3982)" transform="translate(113.12 79.14)" d="m264.27 291.5c0 3.7408-3.0325 6.7732-6.7732 6.7732-3.7408 0-6.7732-3.0325-6.7732-6.7732s3.0325-6.7732 6.7732-6.7732c3.7408 0 6.7732 3.0325 6.7732 6.7732z"/>
      <path id="path3932" fill-rule="evenodd" fill="url(#radialGradient3982)" transform="translate(143.54 58.939)" d="m264.27 291.5c0 3.7408-3.0325 6.7732-6.7732 6.7732-3.7408 0-6.7732-3.0325-6.7732-6.7732s3.0325-6.7732 6.7732-6.7732c3.7408 0 6.7732 3.0325 6.7732 6.7732z"/>
      <path id="path3920" fill-rule="evenodd" fill="url(#radialGradient3982)" transform="translate(122.16 35.649)" d="m264.27 291.5c0 3.7408-3.0325 6.7732-6.7732 6.7732-3.7408 0-6.7732-3.0325-6.7732-6.7732s3.0325-6.7732 6.7732-6.7732c3.7408 0 6.7732 3.0325 6.7732 6.7732z"/>
      <path id="path3924" fill-rule="evenodd" fill="url(#radialGradient3982)" transform="translate(123.11 .95063)" d="m264.27 291.5c0 3.7408-3.0325 6.7732-6.7732 6.7732-3.7408 0-6.7732-3.0325-6.7732-6.7732s3.0325-6.7732 6.7732-6.7732c3.7408 0 6.7732 3.0325 6.7732 6.7732z"/>
      <path id="path3894" fill-rule="evenodd" fill="url(#radialGradient3982)" transform="matrix(-1 0 0 1 546.61 8.318)" d="m264.27 291.5c0 3.7408-3.0325 6.7732-6.7732 6.7732-3.7408 0-6.7732-3.0325-6.7732-6.7732s3.0325-6.7732 6.7732-6.7732c3.7408 0 6.7732 3.0325 6.7732 6.7732z"/>
      <path id="path3546" style="color:#000000" d="m-184.42 413.3c-0.90349 1.3479-20.377-7.754-21.62-6.7109-1.1964 1.0039 5.6214 20.96 4.1214 21.394-1.5585 0.4518-10.626-19.038-12.248-19.038-1.5618 0.00001-9.1663 19.669-10.595 19.038-1.4843-0.6557 4.0977-21.414 2.8546-22.457-1.1964-1.0039-19.665 9.1756-20.354 7.7738-0.71557-1.4564 16.904-13.77 16.622-15.368-0.27121-1.538-20.962-5.6115-20.589-7.1279 0.388-1.5756 21.8 0.31691 22.612-1.0884 0.78086-1.3525-12.451-17.773-11.19-18.694 1.31-0.9576 16.496 14.256 18.021 13.701 1.4676-0.53416 1.8862-21.618 3.4445-21.514 1.6191 0.10849 3.4735 21.524 4.9983 22.079 1.4676 0.53414 15.341-15.348 16.467-14.266 1.1705 1.1238-11.175 18.721-10.363 20.127 0.78088 1.3525 21.617-1.8964 21.785-0.34368 0.1743 1.6133-20.594 7.1584-20.876 8.7564-0.27118 1.538 17.779 12.443 16.909 13.74z" transform="matrix(1.3636 .047259 -.047259 1.3636 646.92 -236.48)" stroke="#d4aa00" stroke-width=".36645" fill="url(#radialGradient4395)"/>
    </g>
  </g>
  <metadata>
    <rdf:RDF>
      <cc:Work>
        <dc:format>image/svg+xml</dc:format>
        <dc:type rdf:resource="http://purl.org/dc/dcmitype/StillImage"/>
        <cc:license rdf:resource="http://creativecommons.org/licenses/publicdomain/"/>
        <dc:publisher>
          <cc:Agent rdf:about="http://openclipart.org/">
            <dc:title>Openclipart</dc:title>
          </cc:Agent>
        </dc:publisher>
      </cc:Work>
      <cc:License rdf:about="http://creativecommons.org/licenses/publicdomain/">
        <cc:permits rdf:resource="http://creativecommons.org/ns#Reproduction"/>
        <cc:permits rdf:resource="http://creativecommons.org/ns#Distribution"/>
        <cc:permits rdf:resource="http://creativecommons.org/ns#DerivativeWorks"/>
      </cc:License>
    </rdf:RDF>
  </metadata>
</svg>
