<?xml version="1.0"?>
<svg xmlns:rdf="http://www.w3.org/1999/02/22-rdf-syntax-ns#" xmlns="http://www.w3.org/2000/svg" xmlns:cc="http://creativecommons.org/ns#" xmlns:xlink="http://www.w3.org/1999/xlink" xmlns:dc="http://purl.org/dc/elements/1.1/" id="svg7870" viewBox="0 0 716.38 753.51" version="1.1">
  <defs id="defs7872">
    <linearGradient id="linearGradient6815" y2="5972.8" xlink:href="#linearGradient6807" gradientUnits="userSpaceOnUse" x2="1183.9" gradientTransform="matrix(.97560 0 0 1 29.634 0)" y1="5958.7" x1="1152.1"/>
    <linearGradient id="linearGradient6807">
      <stop id="stop6809" stop-color="#0f0" offset="0"/>
      <stop id="stop6811" stop-color="#0f0" stop-opacity="0" offset="1"/>
    </linearGradient>
    <linearGradient id="linearGradient6837" y2="5931.9" xlink:href="#linearGradient6807" gradientUnits="userSpaceOnUse" x2="1263.2" gradientTransform="matrix(1 0 0 .96924 0 183.52)" y1="5881.4" x1="1275.3"/>
    <filter id="filter6855" color-interpolation-filters="sRGB">
      <feGaussianBlur id="feGaussianBlur6857" stdDeviation="1.1416628"/>
    </filter>
    <filter id="filter6865" color-interpolation-filters="sRGB">
      <feGaussianBlur id="feGaussianBlur6867" stdDeviation="0.646063"/>
    </filter>
    <filter id="filter6873" color-interpolation-filters="sRGB">
      <feGaussianBlur id="feGaussianBlur6875" stdDeviation="0.703236"/>
    </filter>
    <linearGradient id="linearGradient6965" y2="5864.7" gradientUnits="userSpaceOnUse" x2="1136.4" gradientTransform="matrix(.97042 0 0 .94649 32.953 315.93)" y1="5808.7" x1="1183.9">
      <stop id="stop6961" stop-color="#fff" offset="0"/>
      <stop id="stop6963" stop-color="#fff" stop-opacity="0" offset="1"/>
    </linearGradient>
    <filter id="filter6983" color-interpolation-filters="sRGB">
      <feGaussianBlur id="feGaussianBlur6985" stdDeviation="0.40815333"/>
    </filter>
    <linearGradient id="linearGradient7007" y2="5981.6" gradientUnits="userSpaceOnUse" x2="1190.7" gradientTransform="matrix(.98918 0 0 .98512 12.989 89.475)" y1="5945.9" x1="1143.6">
      <stop id="stop7003" stop-color="#fff" offset="0"/>
      <stop id="stop7005" stop-color="#fff" stop-opacity="0" offset="1"/>
    </linearGradient>
    <linearGradient id="linearGradient6994" y2="5936.6" gradientUnits="userSpaceOnUse" x2="1262.1" y1="5879.5" x1="1267.1">
      <stop id="stop6990" stop-color="#fff" offset="0"/>
      <stop id="stop6992" stop-color="#fff" stop-opacity="0" offset="1"/>
    </linearGradient>
    <radialGradient id="radialGradient7014" gradientUnits="userSpaceOnUse" cy="5821.8" cx="1242.2" gradientTransform="matrix(.81633 -.12244 .14682 .97885 -627.87 275.24)" r="24.749">
      <stop id="stop6891" stop-color="#f00" offset="0"/>
      <stop id="stop6893" stop-color="#f00" stop-opacity="0" offset="1"/>
    </radialGradient>
    <linearGradient id="linearGradient7016" y2="5762.2" gradientUnits="userSpaceOnUse" x2="1236.9" gradientTransform="translate(2.0203 66.67)" y1="5740" x1="1249.6">
      <stop id="stop6910" stop-color="#fff" offset="0"/>
      <stop id="stop6912" stop-color="#fff" stop-opacity="0" offset="1"/>
    </linearGradient>
    <filter id="filter9219" color-interpolation-filters="sRGB">
      <feGaussianBlur id="feGaussianBlur9221" stdDeviation="3.0743041"/>
    </filter>
  </defs>
  <g id="layer1" transform="translate(-18.239 120.57)">
    <g id="g8607" opacity=".88938" filter="url(#filter9219)" transform="matrix(2.177 -.65086 -.64497 -2.1969 1397.6 13813)">
      <path id="path8705" d="m1236.3 5804.6c-3.8966 0.4148-7.99 1.0217-11.031 3.6874 0.178 14.298 15.827 25.647 29.5 21.219 1.969-0.7446 4.9542-1.1862 5.875-3.1562-0.4196-12.204-12.025-22.666-24.344-21.75z"/>
      <path id="path8703" d="m1262.2 5827.6c0 13.529-11.08 24.496-24.749 24.496-13.668 0-24.749-10.967-24.749-24.496s11.08-24.496 24.749-24.496c13.668 0 24.749 10.967 24.749 24.496z"/>
      <path id="path8701" d="m1262.2 5827.6c0 13.529-11.08 24.496-24.749 24.496-13.668 0-24.749-10.967-24.749-24.496s11.08-24.496 24.749-24.496c13.668 0 24.749 10.967 24.749 24.496z"/>
      <path id="path8699" d="m1225.7 5769.4c-4.1348 0.4234-8.4783 1.0428-11.706 3.7633 0.1889 14.592 16.795 26.175 31.303 21.656 2.0894-0.7599 5.257-1.2106 6.2341-3.2211-0.4453-12.455-12.76-23.133-25.831-22.198z"/>
      <path id="path8697" d="m1253.1 5792.8c0 13.807-11.758 25-26.261 25-14.504 0-26.261-11.193-26.261-25s11.757-25 26.261-25 26.261 11.193 26.261 25z"/>
      <path id="path8695" d="m1253.1 5792.8c0 13.807-11.758 25-26.261 25-14.504 0-26.261-11.193-26.261-25s11.757-25 26.261-25 26.261 11.193 26.261 25z"/>
      <path id="path8693" d="m1197 5799.6c-3.8966 0.4148-7.99 1.0217-11.031 3.6874 0.178 14.298 15.827 25.647 29.5 21.219 1.969-0.7446 4.9542-1.1862 5.875-3.1562-0.4196-12.204-12.025-22.666-24.344-21.75z"/>
      <path id="path8691" d="m1222.9 5822.6c0 13.529-11.08 24.496-24.749 24.496-13.668 0-24.749-10.967-24.749-24.496s11.08-24.496 24.749-24.496c13.668 0 24.749 10.967 24.749 24.496z"/>
      <path id="path8689" d="m1222.9 5822.6c0 13.529-11.08 24.496-24.749 24.496-13.668 0-24.749-10.967-24.749-24.496s11.08-24.496 24.749-24.496c13.668 0 24.749 10.967 24.749 24.496z"/>
      <path id="path8687" d="m1317.3 5777.8c-0.099 0.039-0.1833 0.2741-0.2647 0.8382-2.1879 6.1449-4.8151 15.002-12.616 15.881-8.2257-0.9849-12.135-9.5073-15.969-15.66 0.2315 8.526-0.1582 20.006-8.999 24.13-8.7705 3.3052-19.351-0.196-27.482 4.9847-4.9219 2.4333-9.9407 4.7332-14.822 7.2345 0.6483 0.3275 1.2933 0.6474 1.9409 0.9705 4.566 0.034 9.0936 1.1383 11.91 4.9406 0.3344 0.3947 0.66 0.7811 0.9706 1.191 14.888 6.7998 29.312 12.265 42.569 15.969 25.885 7.2324 69.797 2.478 105.17-3.529-1.3088-2.9424-1.7985-6.1789-0.8822-9.6608 0.5012-2.071 1.9068-4.7588-1.147-2.4263-5.9419 3.3272-14.174 1.3312-17.292-4.3671-3.3252-5.3239-4.5941-11.778-4.2349-17.998-3.6181 6.1329-13.118 10.172-19.189 4.7643-4.5108-3.3221-6.6112-9.2217-8.5139-14.072-4.0449 3.9901-6.5499 12.122-13.763 11.16-9.0995-2.343-12.792-12.326-15.881-20.116-0.4975-0.5113-1.0717-4.4053-1.4999-4.2348z"/>
      <path id="path8685" d="m1225.4 5825.1c-3.1827 1.6985-6.5757 3.5552-10.734 5.8234-8.6361 4.71-10.975 13.946-17.803 18.078-10.814 6.5443-27.071-10.647-26.007-8.6046 21.104 40.511-17.629 22.815-17.629 22.815 17.562 21.844 14.017 32.709 5.8908 33.549-3.5362 0.3655-12.629-0.621-11.258 1.1731 16.877 22.085-1.4861 29.362-11.433 25.944 11.377 4.7518 27.98 24.781 6.1089 33.114 1.5779 0.4995 3.1263 1.0075 4.6256 1.6513 21.657-14.265 41.778-32.037 55.941-53.886 21.572-33.279 26.625-54.732 25.309-68.444-0.014-0.044-0.035-0.086-0.044-0.1299-0.1171-0.6723-0.1906-1.3077-0.2181-1.912-0.014-0.056 0.014-0.1171 0-0.1739-0.5464-3.529-1.5347-6.5202-2.7491-8.9955z"/>
      <path id="path8683" d="m1131.8 5683.6c-0.1775-0.016-0.3533 0.092-0.5885 0.2831-5.7917 3.9502-13.321 5.4029-20.308 5.0959 9.0383 22.584 21.736 46.538 38.891 63.651 21.463 21.41 47.508 42.078 73.998 59.168h0.041c1.3058 0.142 2.1546 0.099 1.8921-0.4246-6.682-5.7245-5.932-15.527-4.0785-23.403 0.2087-2.0425-3.2396-2.1847-3.6998-4.3409-3.5178-5.6888 0.6698-12.305 2.7751-16.703-4.556 1.6936-10.918-0.7655-10.385-6.3227-0.5652-6.8001 2.3804-13.113 4.5827-19.345-5.0997 3.4301-14.252 4.7747-17.028-2.2648-3.6545-8.1376-1.3035-18.002 0.1262-26.093-4.8104 4.9462-14.979 4.4609-17.364-2.7366-3.29-5.8547-3.7923-12.829-4.3305-19.487-4.1419 5.4201-8.6234 13.332-16.439 12.598-4.1753-1.2304-5.3266-6.1788-6.6852-9.8614-6.0249 3.9795-16.111 3.3604-18.878-4.1991-1.2554-0.9077-1.2809-5.5076-2.5227-5.6151z"/>
      <path id="path8681" d="m1224.9 5835.1c-0.054 2.4421-0.061 4.8849-0.055 7.3274-0.058 2.7828 0.1059 5.5733-0.075 8.3516-0.1773 2.8362-0.9015 5.5796-1.6061 8.3177-1.0644 3.7419-2.1121 7.4842-3.3477 11.174-1.2425 4.0781-2.7658 8.0377-4.4675 11.943-1.4241 3.2669-2.7728 6.5599-4.2268 9.8134-1.5307 3.6842-3.3435 7.2368-5.2688 10.727-1.6492 3.0903-3.0803 6.2869-4.617 9.4333-1.3311 2.4277-2.7269 4.8307-3.873 7.3533-0.6431 1.623-1.7248 2.999-2.6311 4.4708-1.081 2.0011-2.2744 3.9151-3.6638 5.7167-1.6049 1.9736-2.8574 4.1994-4.2383 6.3307-1.362 1.9997-2.4538 4.1614-3.4319 6.3695-0.9586 2.149-1.948 4.2729-2.8019 6.467-0.7751 1.9311-1.6857 3.7993-2.5069 5.7095-0.8104 2.1001-1.7528 4.1478-2.5406 6.2583-1.0408 1.9652-1.6756 4.1186-2.6901 6.0907-0.7367 1.4809-1.4447 2.9862-2.0991 4.5075-0.215 0.7698-0.6153 1.4646-0.9803 2.1691l-4.8869-0.2346c0.3626-0.6938 0.7829-1.3657 0.9787-2.1321 0.6534-1.538 1.3828-3.0512 2.1078-4.5518 1.0869-1.9157 1.6695-4.0891 2.7453-6.0189 0.7679-2.1213 1.6843-4.1838 2.4978-6.2857 0.8193-1.9089 1.7351-3.7731 2.5321-5.6924 0.8627-2.1993 1.819-4.3438 2.8079-6.4881 0.9839-2.2295 2.0587-4.4255 3.4267-6.4491 1.4102-2.1298 2.6695-4.3652 4.2518-6.3719 1.4109-1.758 2.5674-3.661 3.6118-5.656 0.8534-1.4905 2.0037-2.8128 2.663-4.4175 1.1665-2.5267 2.5739-4.9402 3.9384-7.3631 1.5527-3.1536 2.9851-6.3646 4.6628-9.455 1.9309-3.4664 3.7442-7.0029 5.2235-10.689 1.4619-3.2549 2.8273-6.5458 4.2764-9.8071 1.7028-3.8898 3.2601-7.82 4.4536-11.902 1.2442-3.6702 2.2966-7.3948 3.2895-11.14 0.6893-2.7113 1.4115-5.4221 1.5739-8.2303 0.1968-2.7677 0.056-5.546 0.095-8.3187 0-2.4425 0-4.8853-0.055-7.3274h4.928z"/>
      <path id="path8679" d="m1252.5 5815.7c0.5997 0.016 1.2001-0.014 1.7996 0 2.047 0.059 4.0956 0.086 6.1401 0.204 1.8104 0.1045 3.6607 0.731 5.4203 1.1221 5.0982 1.0562 10.137 2.3834 15.163 3.7375 3.6212 0.9557 7.0383 2.4894 10.618 3.5706 3.5039 1.162 7.0611 2.151 10.414 3.7142 2.8657 1.3906 5.7941 2.6174 8.7615 3.7717 3.0686 1.1928 6.0668 2.5382 9.1719 3.6363 3.2878 1.4898 6.6431 2.7994 10.103 3.8316 3.9405 1.2333 7.9178 2.3352 11.845 3.6141 3.7851 1.13 7.665 1.893 11.551 2.5796 3.4853 0.6663 7.0386 0.6588 10.56 0.9555 3.0506 0.3434 6.1151 0.4921 9.1821 0.5782 2.7612 0.062 5.5233 0.065 8.2851 0.062h1.7082c4.9681 0.1313 10.002-0.3495 14.928 0.4427 1.2 0.2212 2.4014 0.4317 3.6059 0.626 0 0-4.8129 0.681-4.8129 0.681-1.1833-0.2038-2.3641-0.4218-3.5469-0.6286-2.9694-0.4408-1.1165-0.066 1.5352-0.3715 0.5845-0.068-1.1763-0.0009-1.7645-0.0007-1.7262 0.0003-3.4526 0-5.179 0-3.7558 0-7.5117 0.014-11.268 0-2.7452 0-5.4908-0.014-8.2354-0.085-3.0644-0.097-6.1244-0.2689-9.1732-0.6038-3.5153-0.2649-7.0551-0.3234-10.527-1.0072-3.8873-0.7066-7.7722-1.47-11.55-2.645-3.9336-1.2705-7.9148-2.3755-11.862-3.6029-3.4608-1.0689-6.8146-2.4026-10.133-3.8506-3.1029-1.1132-6.1021-2.4731-9.1807-3.6494-2.9654-1.1587-5.8904-2.4033-8.7529-3.8001-3.3586-1.4996-6.8899-2.5139-10.381-3.6559-3.5557-1.1159-6.9853-2.594-10.591-3.5589-5.0156-1.3905-10.059-2.7021-15.166-3.7132-0.1822-0.04-3.5626-0.783-3.8702-0.8381-0.5406-0.097-2.1699-0.12-1.6317-0.2285 4.8807-0.9863 4.1139 0.1256 1.712-0.1313 0 0-4.8777-0.7726-4.8777-0.7726z"/>
      <path id="path8677" d="m1117.2 5697.1c1.8142 1.1518 3.4736 2.466 5.0667 3.9056 1.803 1.7115 4.0266 2.8329 5.9567 4.3642 1.986 1.7816 3.719 3.8214 5.4813 5.8193 2.562 2.8111 5.4153 5.3338 7.9846 8.1351 2.6188 2.9459 5.0494 6.0584 7.382 9.2342 1.9146 2.5866 4.0593 4.9995 6.2291 7.374 2.0582 2.1006 3.7372 4.5245 5.5719 6.8116 1.8599 2.565 3.6379 5.1822 5.4 7.8152 1.974 2.7524 3.9251 5.5138 5.8875 8.2749 2.0255 3.1065 4.3262 6.003 6.7183 8.8296 2.4528 2.7245 5.0405 5.322 7.7828 7.7547 2.7665 2.289 5.693 4.3724 8.6176 6.452 2.7576 1.9055 5.2094 4.1922 7.8199 6.2883 1.977 1.5321 3.8674 3.2066 6.0242 4.4851 1.299 1.2402 3.0285 1.6586 4.5592 2.4616 1.8309 0.7005 3.4869 1.5602 5.0507 2.7494 1.4405 0.9512 2.8374 1.9752 4.1821 3.0577l-4.8284 0.4336c-1.3454-1.0718-2.7355-2.0895-4.1712-3.0379-1.593-1.1233-3.3037-1.9054-5.0955-2.6567-1.5911-0.7117-3.1779-1.3794-4.5374-2.5136-2.1064-1.3556-4.0109-3.0018-5.9753-4.5504-2.5886-2.0918-5.0068-4.3924-7.7672-6.2649-2.9311-2.0949-5.8884-4.1629-8.6319-6.5038-2.7313-2.4699-5.3429-5.0667-7.7886-7.8215-2.3856-2.8465-4.6701-5.7752-6.7324-8.8679-1.9641-2.7635-3.9255-5.5255-5.8927-8.2861-1.7797-2.6135-3.5226-5.2514-5.429-7.7758-1.8084-2.2917-3.5075-4.6813-5.5475-6.7807-2.1734-2.3856-4.3147-4.8157-6.2142-7.4274-2.2986-3.1714-4.7198-6.2634-7.3334-9.182-2.607-2.7877-5.4757-5.3164-8.0486-8.1397-1.7744-1.9733-3.5104-4.0056-5.5378-5.7262-1.9597-1.4908-4.1239-2.7008-5.932-4.3998-1.6198-1.4305-3.3389-2.7033-5.1689-3.8543l4.9174-0.4574z"/>
      <path id="path8675" d="m1317.1 5778.7c-2.188 6.1449-4.8151 14.984-12.616 15.862-8.2257-0.9848-12.135-9.496-15.969-15.649 0.2315 8.526-0.1582 19.991-8.999 24.114-8.7705 3.3051-19.367-0.1919-27.499 4.9889-5.7095 2.8228-11.534 5.4425-17.144 8.4365 5.839-0.6352 12.482-0.3014 16.189 4.7031 3.2742 3.8654 5.3606 8.5028 7.1022 13.212 4.8886-1.7944 9.4945 1.9532 10.234 6.4989 1.0751 3.8969 1.1996 7.9614 1.3674 11.972 2.0899-3.5431 6.6126-8.9073 11.161-5.6439 5.9782 6.042 6.8027 15.316 8.8225 23.259 2.5311-4.9877 5.8166-12.233 12.749-11.63 7.7792 2.303 11.015 10.657 14.557 17.102 1.4934 1.5786 2.9499 10.388 4.0375 6.1489 1.3404-5.2601 6.331-11.285 12.505-8.9279 8.0995 3.0865 13.396 10.544 18.66 17.017 0.8153-6.8354-0.2038-15.171 4.6318-20.608 4.5627-3.3452 9.8372 2.1523 12.837 4.6603 2.3886-5.3026 7.8048-11.464 14.469-9.2352 3.6567 0.7148 7.1004 4.5064 9.4401 5.7295 3.2263-9.2132 11.617-16.636 20.998-19.882 5.3535-0.2243-0.433-1.9827-2.382-3.4632-7.8242-4.6029-15.931-12.489-13.366-22.233 0.5012-2.071 1.9068-4.7696-1.147-2.437-5.9419 3.3272-14.174 1.3372-17.292-4.3611-3.3252-5.3238-4.5941-11.781-4.2349-18-3.6181 6.1328-13.118 10.196-19.189 4.7886-4.5107-3.3221-6.6112-9.2163-8.5139-14.067-4.0449 3.9903-6.5499 12.121-13.763 11.159-9.0995-2.343-12.792-12.348-15.881-20.138-0.6123-0.6293-1.3306-6.3861-1.7646-3.3777z"/>
      <path id="path8673" d="m1141.6 5956.9c9.482 3.0141 18.666 6.5763 14.375 34.95 3.3708-9.8473 25.712-13.849 32.611-9.1124-3.0668-17.609 4.9936-19.914 16.208-17.88-3.9757-22.122 9.938-12.517 23.336-3.8255-9.568-28.622-3.8689-36.912 13.39-29.806-17.437-26.777-16.782-39.166 6.8599-33.273-15.677-16.656-23.748-29.396-2.7651-27.176-17.194-12.484-14.555-17.259-9.9985-21.289-14.372-21.269-4.2787-23.998-0.4686-31.489-1.9002 0.7497-10.138 5.1604-20.628 10.905-8.7306 4.7812-11.062 14.169-17.964 18.364-10.932 6.643-27.402-10.798-26.326-8.7238 21.335 41.123-17.795 23.168-17.795 23.168 17.754 22.174 14.138 33.199 5.9232 34.052-3.5749 0.3712-12.725-0.6321-11.339 1.1892 17.69 23.244-2.9458 30.322-12.657 25.901 11.475 3.916 30.061 25.314 7.2375 34.046z"/>
      <path id="path8671" d="m1401.1 5817.7c-3.2173 9.6539-5.8113 19.379 19.806 32.347-10.015-2.9338-26.616 13.339-26.891 21.846-12.474-12.82-19.163-7.4507-24.212 3.0748-15.598-16.208-16.108 0.9793-17.053 17.204-17.537-24.654-27.678-24.741-32.218-6.2246-11.336-30.132-21.793-36.809-31.133-13.685-4.165-22.766-9.6929-36.915-20.427-18.146 0.1312-21.597-5.3255-22.183-11.322-20.738-8.6927-24.369-16.941-17.554-25.304-18.748 1.7445-1.1454 10.251-5.4345 21.187-10.822 9.1016-4.4834 18.122-0.952 25.655-4.2551 11.93-5.2313 7.6016-29.115 8.6436-27.01 20.662 41.742 29.457-1.3131 29.457-1.3131 7.4068 27.713 18.525 31.129 24.127 24.785 2.4378-2.7609 7.0905-10.966 7.7421-8.75 8.3144 28.284 26.397 15.224 28.608 4.559-3.6755 11.84 2.6036 39.792 23.337 25.876z"/>
      <path id="path8669" d="m1138.9 5956.9c9.7192 3.0141 19.133 6.5763 14.735 34.95 3.4551-9.8473 26.355-13.849 33.427-9.1124-3.1435-17.609 5.1185-19.914 16.614-17.88-4.0752-22.122 10.187-12.517 23.92-3.8255-9.8073-28.622-3.9657-36.912 13.725-29.806-17.873-26.777-17.202-39.166 7.0314-33.273-16.069-16.656-24.342-29.396-2.8343-27.176-17.623-12.484-14.919-17.259-10.249-21.289-14.732-21.269-4.3857-23.998-0.4803-31.489-1.9477 0.7497-10.392 5.1604-21.144 10.905-8.9489 4.7812-11.338 14.169-18.414 18.364-11.205 6.643-28.087-10.798-26.984-8.7238 21.868 41.123-18.24 23.168-18.24 23.168 18.198 22.174 14.491 33.199 6.0713 34.052-3.6644 0.3711-13.043-0.6321-11.623 1.1891 18.133 23.244-3.0194 30.322-12.974 25.901 11.762 3.916 30.812 25.314 7.4185 34.046z"/>
      <path id="path8613" d="m1095.9 5720.2c7.9878-6.3045 15.494-13.011 1.1961-37.91 6.7619 7.9488 29.57 3.4568 34.469-3.5039 3.3921 17.563 11.93 16.746 21.928 10.718 4.1439 22.11 14.003 8.0217 23.698-5.0229 1.1294 30.234 9.559 35.872 23.516 22.885-7.0606 31.411-1.9836 42.731 18.515 28.526-9.013 21.317-12.157 36.178 7.1173 26.38-11.962 17.981-7.7228 21.466-1.9167 23.55-6.1077 25.142 4.5281 23.972 10.864 29.56-2.0869 0-11.552-1.083-23.65-2.5816-10.069-1.2473-15.672-9.15-23.781-10.523-12.844-2.1742-22.333 20.167-22.049 17.835 5.6359-46.234-25.345-15.069-25.345-15.069 9.0177-27.232 1.5975-36.189-6.5667-33.96-3.553 0.97-11.946 5.2756-11.274 3.0654 8.5722-28.207-13.711-27.214-21.413-19.512 9.5703-7.88 19.662-34.693-5.3073-34.438z"/>
    </g>
    <g id="g7042" transform="matrix(3.0731 -.91045 -.91045 -3.0731 2014.6 19490)">
      <path id="path6795" fill="#035c00" d="m1106.4 5845.8c5.6586-4.4661 10.976-9.2169 0.8473-26.856 4.7902 5.631 20.948 2.4488 24.418-2.4822 2.403 12.442 8.4517 11.863 15.534 7.5928 2.9356 15.663 9.9199 5.6826 16.788-3.5583 0.8001 21.418 6.7717 25.412 16.659 16.212-5.0018 22.252-1.4052 30.271 13.116 20.208-6.3849 15.101-8.6119 25.629 5.042 18.688-8.4743 12.738-5.4709 15.207-1.3578 16.683-4.3268 17.811 3.2077 16.982 7.6959 20.94-1.4784 0-8.1834-0.7672-16.754-1.8288-7.1331-0.8836-11.102-6.4819-16.847-7.4545-9.0985-1.5402-15.821 14.286-15.62 12.635 3.9925-32.752-17.954-10.675-17.954-10.675 6.3882-19.291 1.1317-25.636-4.6519-24.057-2.517 0.6872-8.4624 3.7373-7.9866 2.1716 6.0726-19.982-9.7129-19.278-15.169-13.822 6.7797-5.5823 13.929-24.577-3.7597-24.396z"/>
      <path id="path6797" fill="#035c00" d="m1136.9 6013.5c6.8852 2.1352 13.554 4.6587 10.438 24.758 2.4476-6.9759 18.67-9.8106 23.68-6.4553-2.2269-12.474 3.626-14.107 11.769-12.666-2.8869-15.672 7.2163-8.867 16.945-2.71-6.9476-20.276-2.8093-26.148 9.7232-21.114-12.661-18.969-12.186-27.746 4.9811-23.571-11.384-11.8-17.244-20.824-2.0078-19.251-12.485-8.8437-10.568-12.227-7.2602-15.081-10.436-15.067-3.1069-17.001-0.3403-22.307-1.3797 0.5311-7.3615 3.6557-14.978 7.7253-6.3395 3.3871-8.0323 10.038-13.044 13.009-7.9379 4.706-19.897-7.6491-19.116-6.18 15.492 29.132-12.921 16.412-12.921 16.412 12.892 15.708 10.266 23.519 4.301 24.123-2.5959 0.2629-9.2401-0.4478-8.2337 0.8424 12.846 16.467-2.139 21.481-9.1909 18.349 8.3324 2.7741 21.828 17.932 5.2553 24.118z"/>
      <path id="path6799" fill="#035c00" d="m1322.6 5914.9c-2.2792 6.8389-4.1168 13.729 14.031 22.915-7.0948-2.0783-18.855 9.4495-19.05 15.476-8.8368-9.0816-13.576-5.2781-17.152 2.1782-11.05-11.482-11.411 0.6938-12.081 12.188-12.424-17.466-19.608-17.527-22.824-4.4096-8.0308-21.346-15.439-26.076-22.055-9.6945-2.9505-16.128-6.8665-26.151-14.471-12.855 0.093-15.299-3.7726-15.715-8.0207-14.691-6.158-17.263-12.002-12.436-17.926-13.281 1.2358-0.8114 7.2618-3.8498 15.009-7.666 6.4477-3.1761 12.838-0.6744 18.174-3.0144 8.4511-3.7059 5.385-20.625 6.1232-19.134 14.638 29.57 20.868-0.9302 20.868-0.9302 5.2471 19.632 13.124 22.052 17.092 17.558 1.727-1.9559 5.023-7.7686 5.4846-6.1986 5.89 20.036 18.7 10.785 20.266 3.2296-2.6038 8.3872 1.8444 28.189 16.532 18.33z"/>
      <path id="path6803" fill="url(#linearGradient6815)" d="m1138.8 6013.5c6.7171 2.1352 13.224 4.6587 10.183 24.758 2.3879-6.9759 18.214-9.8106 23.102-6.4553-2.1725-12.474 3.5375-14.107 11.482-12.666-2.8164-15.672 7.0402-8.867 16.532-2.71-6.778-20.276-2.7407-26.148 9.4859-21.114-12.352-18.969-11.888-27.746 4.8596-23.571-11.106-11.8-16.823-20.824-1.9588-19.251-12.18-8.8437-10.311-12.227-7.083-15.081-10.182-15.067-3.0311-17.001-0.332-22.307-1.3461 0.5311-7.1819 3.6557-14.613 7.7253-6.1848 3.3871-7.8363 10.038-12.726 13.009-7.7442 4.706-19.412-7.6491-18.65-6.18 15.114 29.132-12.606 16.412-12.606 16.412 12.577 15.708 10.015 23.519 4.196 24.123-2.5325 0.2629-9.0146-0.4478-8.0328 0.8424 12.532 16.467-2.0868 21.481-8.9666 18.349 8.1291 2.7741 21.295 17.932 5.1271 24.118z"/>
      <path id="path6805" fill="url(#linearGradient6837)" d="m1263.1 5887.2c-1.55 4.3531-3.4111 10.615-8.9375 11.237-5.8271-0.6976-8.5968-6.727-11.312-11.086 0.164 6.0399-0.1121 14.162-6.375 17.083-6.2131 2.3414-13.72-0.1359-19.48 3.5342-4.0447 1.9997-8.1709 3.8555-12.145 5.9765 4.1364-0.45 8.8424-0.2135 11.469 3.3317 2.3195 2.7383 3.7975 6.0235 5.0313 9.3592 3.4631-1.2712 6.726 1.3836 7.25 4.6039 0.7616 2.7606 0.8498 5.6399 0.9687 8.4809 1.4805-2.51 4.6844-6.31 7.9063-3.9982 4.235 4.2802 4.8191 10.85 6.25 16.477 1.793-3.5333 4.1205-8.6659 9.0313-8.2385 5.5108 1.6315 7.8028 7.5495 10.312 12.116 1.058 1.1183 2.0898 7.3593 2.8602 4.3559 0.9496-3.7263 4.485-7.9941 8.8586-6.3246 5.7378 2.1865 9.4898 7.4692 13.219 12.055 0.5776-4.8423-0.1444-10.747 3.2812-14.599 3.2323-2.3698 6.9688 1.5247 9.0938 3.3014 1.6921-3.7564 5.529-8.1212 10.25-6.5423 2.5904 0.5064 5.03 3.1924 6.6874 4.0588 2.2856-6.5267 8.2297-11.785 14.875-14.084 3.7925-0.1589-0.3067-1.4046-1.6874-2.4534-5.5428-3.2607-11.285-8.8474-9.4688-15.75 0.3551-1.4671 1.3508-3.3788-0.8125-1.7264-4.2093 2.357-10.041 0.9473-12.25-3.0894-2.3556-3.7715-3.2545-8.3456-3-12.752-2.5631 4.3446-9.2926 7.2233-13.594 3.3923-3.1954-2.3534-4.6834-6.5289-6.0313-9.965-2.8655 2.8267-4.64 8.5864-9.75 7.9054-6.4462-1.6598-9.0619-8.7476-11.25-14.266-0.4337-0.4458-0.9426-4.524-1.25-2.3928z"/>
      <path id="path6841" filter="url(#filter6855)" d="m1121.5 5829.4c1.2852 0.8159 2.4608 1.7469 3.5893 2.7667 1.2773 1.2125 2.8525 2.0069 4.2198 3.0917 1.4069 1.2621 2.6346 2.7071 3.883 4.1224 1.815 1.9914 3.8363 3.7785 5.6564 5.763 1.8552 2.0869 3.577 4.2918 5.2295 6.5416 1.3563 1.8324 2.8756 3.5417 4.4127 5.2238 1.4581 1.4881 2.6475 3.2052 3.9472 4.8254 1.3176 1.8171 2.5771 3.6711 3.8254 5.5364 1.3984 1.9498 2.7806 3.906 4.1708 5.862 1.4349 2.2007 3.0647 4.2526 4.7593 6.255 1.7376 1.93 3.5707 3.7701 5.5134 5.4935 1.9598 1.6215 4.033 3.0974 6.1048 4.5706 1.9535 1.3499 3.6904 2.9698 5.5397 4.4547 1.4005 1.0854 2.7397 2.2716 4.2676 3.1773 0.9202 0.8786 2.1454 1.175 3.2298 1.7438 1.297 0.4963 2.4701 1.1053 3.5779 1.9477 1.0205 0.6739 2.0101 1.3993 2.9627 2.1661l-3.4205 0.3072c-0.9531-0.7593-1.9379-1.4802-2.9549-2.1521-1.1285-0.7957-2.3404-1.3498-3.6097-1.882-1.1272-0.5042-2.2513-0.9772-3.2144-1.7807-1.4922-0.9603-2.8413-2.1265-4.2329-3.2235-1.8338-1.4819-3.5469-3.1116-5.5024-4.4381-2.0764-1.4841-4.1714-2.9491-6.1149-4.6074-1.9349-1.7497-3.785-3.5893-5.5175-5.5408-1.69-2.0165-3.3084-4.0912-4.7693-6.2821-1.3914-1.9577-2.7809-3.9143-4.1745-5.87-1.2607-1.8514-2.4954-3.7201-3.8459-5.5084-1.2811-1.6235-2.4848-3.3163-3.9299-4.8035-1.5397-1.69-3.0566-3.4115-4.4022-5.2617-1.6284-2.2466-3.3436-4.437-5.1951-6.5046-1.8468-1.9748-3.879-3.7662-5.7017-5.7662-1.257-1.3979-2.4868-2.8376-3.923-4.0565-1.3883-1.0561-2.9214-1.9133-4.2023-3.1169-1.1475-1.0134-2.3653-1.915-3.6617-2.7304l3.4835-0.324z" fill="#004100"/>
      <path id="path6843" filter="url(#filter6865)" d="m1217.3 5913.4c0.4248 0.011 0.8501-0.01 1.2748 0 1.4501 0.042 2.9014 0.061 4.3497 0.1445 1.2825 0.074 2.5933 0.5178 3.8398 0.7949 3.6116 0.7482 7.1813 1.6884 10.742 2.6477 2.5653 0.677 4.986 1.7635 7.5216 2.5294 2.4822 0.8232 5.0021 1.5238 7.3771 2.6312 2.0301 0.9851 4.1046 1.8542 6.2067 2.6719 2.1738 0.845 4.2978 1.7981 6.4975 2.576 2.3291 1.0554 4.706 1.9831 7.1568 2.7143 2.7915 0.8737 5.6091 1.6543 8.3909 2.5603 2.6814 0.8005 5.43 1.341 8.183 1.8274 2.469 0.472 4.9862 0.4667 7.4807 0.6769 2.1611 0.2433 4.332 0.3486 6.5047 0.4096 1.9561 0.044 3.9128 0.046 5.8693 0.044h1.2101c3.5194 0.093 7.0856-0.2476 10.575 0.3136 0.8501 0.1567 1.7012 0.3058 2.5545 0.4435 0 0-3.4095 0.4824-3.4095 0.4824-0.8383-0.1444-1.6748-0.2988-2.5127-0.4453-2.1035-0.3123-0.7909-0.047 1.0876-0.2632 0.414-0.048-0.8333-0.0006-1.25-0.0005-1.2229 0.0002-2.4459 0-3.6689 0-2.6606 0-5.3213 0.01-7.982 0-1.9447 0-3.8897-0.01-5.834-0.06-2.1709-0.069-4.3386-0.1905-6.4984-0.4277-2.4903-0.1877-4.9979-0.2291-7.4577-0.7135-2.7538-0.5006-5.5059-1.0414-8.1821-1.8738-2.7866-0.9-5.6069-1.6828-8.4028-2.5523-2.4516-0.7572-4.8275-1.702-7.178-2.7278-2.1981-0.7886-4.3228-1.752-6.5037-2.5853-2.1007-0.8208-4.1728-1.7025-6.2006-2.692-2.3793-1.0623-4.8809-1.7809-7.354-2.5899-2.5189-0.7905-4.9485-1.8376-7.5029-2.5211-3.5531-0.9851-7.1257-1.9142-10.744-2.6305-0.1291-0.028-2.5238-0.5547-2.7417-0.5937-0.383-0.069-1.5372-0.085-1.1559-0.1619 3.4575-0.6987 2.9143 0.089 1.2128-0.093l-3.4554-0.5473z" fill="#004100"/>
      <path id="path6845" filter="url(#filter6873)" d="m1197.8 5927.2c-0.038 1.73-0.043 3.4605-0.039 5.1908-0.041 1.9714 0.075 3.9482-0.053 5.9164-0.1256 2.0092-0.6386 3.9526-1.1378 5.8923-0.754 2.6508-1.4962 5.3019-2.3715 7.9159-0.8802 2.889-1.9593 5.694-3.1648 8.4603-1.0089 2.3143-1.9643 4.6471-2.9943 6.9519-1.0844 2.6099-2.3686 5.1266-3.7325 7.5994-1.1683 2.1892-2.1821 4.4537-3.2707 6.6826-0.943 1.7198-1.9318 3.4221-2.7437 5.2092-0.4556 1.1497-1.2219 2.1245-1.8639 3.1671-0.7658 1.4176-1.6112 2.7735-2.5955 4.0498-1.1369 1.3981-2.0242 2.9749-3.0024 4.4847-0.9649 1.4166-1.7383 2.948-2.4312 4.5122-0.6791 1.5224-1.38 3.027-1.9849 4.5813-0.5491 1.368-1.1942 2.6915-1.7759 4.0447-0.5741 1.4877-1.2417 2.9383-1.7998 4.4334-0.7373 1.3922-1.187 2.9177-1.9057 4.3147-0.5219 1.0491-1.0234 2.1155-1.487 3.1932-0.1523 0.5453-0.4359 1.0375-0.6945 1.5366l-3.4619-0.1662c0.2569-0.4915 0.5546-0.9675 0.6933-1.5104 0.4629-1.0895 0.9796-2.1615 1.4932-3.2245 0.77-1.3571 1.1827-2.8968 1.9448-4.2639 0.544-1.5027 1.1932-2.9638 1.7695-4.4528 0.5804-1.3523 1.2291-2.6729 1.7937-4.0326 0.6112-1.558 1.2886-3.0772 1.9892-4.5962 0.697-1.5794 1.4584-3.1351 2.4275-4.5686 0.999-1.5088 1.8911-3.0924 3.012-4.5139 0.9995-1.2454 1.8188-2.5935 2.5586-4.0068 0.6046-1.0559 1.4195-1.9926 1.8865-3.1294 0.8264-1.7899 1.8234-3.4997 2.79-5.2161 1.1-2.234 2.1147-4.5087 3.3032-6.698 1.3679-2.4556 2.6524-4.9609 3.7004-7.5722 1.0356-2.3058 2.0029-4.6371 3.0294-6.9474 1.2063-2.7556 2.3095-5.5398 3.155-8.4314 0.8814-2.6 1.6269-5.2385 2.3303-7.8918 0.4883-1.9207 0.9999-3.8411 1.115-5.8304 0.1394-1.9607 0.04-3.9289 0.067-5.8931 0-1.7303 0-3.4608-0.039-5.1908h3.4911z" fill="#004100"/>
      <path id="path6801" filter="url(#filter6983)" d="m1129.2 5824c-0.128-0.01-0.2548 0.058-0.4245 0.1775-4.1774 2.4762-9.6078 3.3869-14.647 3.1944 6.5191 14.157 15.678 29.173 28.051 39.901 15.481 13.421 34.266 26.377 53.373 37.091 0.01 0.0009 0.021-0.0009 0.03 0 0.9418 0.089 1.554 0.062 1.3647-0.2662-4.8196-3.5885-4.2786-9.7334-2.9417-14.671 0.1505-1.2804-2.3367-1.3695-2.6686-2.7212-2.5373-3.5661 0.4831-7.7138 2.0016-10.47-3.2861 1.0616-7.8751-0.4799-7.4905-3.9635-0.4077-4.2628 1.7169-8.2199 3.3054-12.127-3.6783 2.1502-10.279 2.9931-12.282-1.4197-2.6359-5.1012-0.9402-11.285 0.091-16.357-3.4696 3.1006-10.804 2.7964-12.525-1.7155-2.373-3.6701-2.7353-8.0421-3.1235-12.216-2.9874 3.3977-6.2198 8.3572-11.857 7.8973-3.0116-0.7713-3.842-3.8733-4.8219-6.1818-4.3456 2.4946-11.621 2.1065-13.616-2.6323-0.9055-0.569-0.9239-3.4525-1.8196-3.5199z" fill="url(#linearGradient6965)" transform="matrix(.98216 0 0 1.1301 22.798 -761.75)"/>
      <path id="path6996" fill="url(#linearGradient7007)" d="m1198.1 5920.1c-2.2547 1.2032-4.6583 2.5185-7.6043 4.1253-6.1179 3.3366-7.775 9.8794-12.612 12.807-7.6604 4.636-19.177-7.5427-18.424-6.0956 14.95 28.698-12.488 16.162-12.488 16.162 12.441 15.475 9.9295 23.171 4.1731 23.766-2.5051 0.259-8.9465-0.4399-7.9752 0.8311 11.956 15.645-1.0528 20.8-8.099 18.379 8.0594 3.3662 19.821 17.555 4.3276 23.458 1.1178 0.3538 2.2147 0.7137 3.2768 1.1698 15.342-10.106 29.596-22.696 39.629-38.174 15.282-23.575 18.862-38.772 17.929-48.486-0.01-0.031-0.025-0.061-0.031-0.092-0.083-0.4763-0.135-0.9264-0.1545-1.3545-0.01-0.04 0.01-0.083 0-0.1232-0.3871-2.5-1.0872-4.619-1.9475-6.3725z"/>
      <path id="path6954" fill="url(#linearGradient6994)" d="m1263.2 5886.6c-0.07 0.028-0.1299 0.1942-0.1875 0.5938-1.55 4.3531-3.4111 10.628-8.9375 11.25-5.8271-0.6977-8.5968-6.7351-11.312-11.094 0.164 6.0399-0.1121 14.172-6.375 17.094-6.2131 2.3414-13.708-0.1389-19.469 3.5312-3.4867 1.7238-7.0421 3.353-10.5 5.125 0.4593 0.232 0.9162 0.4586 1.375 0.6875 3.2346 0.024 6.442 0.8064 8.4374 3.5 0.2369 0.2796 0.4676 0.5533 0.6876 0.8437 10.547 4.817 20.765 8.6885 30.156 11.313 18.337 5.1235 49.445 1.7554 74.5-2.5-0.9272-2.0844-1.2741-4.3772-0.625-6.8438 0.3551-1.4671 1.3508-3.3712-0.8125-1.7188-4.2093 2.357-10.041 0.943-12.25-3.0937-2.3556-3.7715-3.2545-8.344-3-12.75-2.5631 4.3446-9.2927 7.206-13.594 3.375-3.1955-2.3534-4.6834-6.5327-6.0313-9.9687-2.8655 2.8266-4.64 8.5872-9.75 7.9062-6.4462-1.6598-9.0619-8.7316-11.25-14.25-0.3524-0.3622-0.7592-3.1208-1.0625-3z"/>
      <g id="g7009" transform="matrix(.70841 0 0 .70841 302.18 1790)">
        <path id="path6877" fill="#800000" d="m1262.2 5827.6a24.749 24.496 0 1 1 -49.497 0 24.749 24.496 0 1 1 49.497 0z"/>
        <path id="path6879" fill="url(#radialGradient7014)" d="m1262.2 5827.6a24.749 24.496 0 1 1 -49.497 0 24.749 24.496 0 1 1 49.497 0z"/>
        <path id="path6928" fill="url(#linearGradient7016)" d="m1236.3 5804.6c-3.8966 0.4148-7.99 1.0217-11.031 3.6874 0.178 14.298 15.827 25.647 29.5 21.219 1.969-0.7446 4.9542-1.1862 5.875-3.1562-0.4196-12.204-12.025-22.666-24.344-21.75z"/>
      </g>
      <g id="g7018" transform="matrix(.75170 0 0 .72299 268.97 1684)">
        <path id="path7020" fill="#800000" d="m1262.2 5827.6a24.749 24.496 0 1 1 -49.497 0 24.749 24.496 0 1 1 49.497 0z"/>
        <path id="path7022" fill="url(#radialGradient7014)" d="m1262.2 5827.6a24.749 24.496 0 1 1 -49.497 0 24.749 24.496 0 1 1 49.497 0z"/>
        <path id="path7024" fill="url(#linearGradient7016)" d="m1236.3 5804.6c-3.8966 0.4148-7.99 1.0217-11.031 3.6874 0.178 14.298 15.827 25.647 29.5 21.219 1.969-0.7446 4.9542-1.1862 5.875-3.1562-0.4196-12.204-12.025-22.666-24.344-21.75z"/>
      </g>
      <g id="g7030" transform="matrix(.70841 0 0 .70841 330.04 1793.6)">
        <path id="path7032" fill="#800000" d="m1262.2 5827.6a24.749 24.496 0 1 1 -49.497 0 24.749 24.496 0 1 1 49.497 0z"/>
        <path id="path7034" fill="url(#radialGradient7014)" d="m1262.2 5827.6a24.749 24.496 0 1 1 -49.497 0 24.749 24.496 0 1 1 49.497 0z"/>
        <path id="path7036" fill="url(#linearGradient7016)" d="m1236.3 5804.6c-3.8966 0.4148-7.99 1.0217-11.031 3.6874 0.178 14.298 15.827 25.647 29.5 21.219 1.969-0.7446 4.9542-1.1862 5.875-3.1562-0.4196-12.204-12.025-22.666-24.344-21.75z"/>
      </g>
    </g>
  </g>
  <metadata>
    <rdf:RDF>
      <cc:Work>
        <dc:format>image/svg+xml</dc:format>
        <dc:type rdf:resource="http://purl.org/dc/dcmitype/StillImage"/>
        <cc:license rdf:resource="http://creativecommons.org/licenses/publicdomain/"/>
        <dc:publisher>
          <cc:Agent rdf:about="http://openclipart.org/">
            <dc:title>Openclipart</dc:title>
          </cc:Agent>
        </dc:publisher>
      </cc:Work>
      <cc:License rdf:about="http://creativecommons.org/licenses/publicdomain/">
        <cc:permits rdf:resource="http://creativecommons.org/ns#Reproduction"/>
        <cc:permits rdf:resource="http://creativecommons.org/ns#Distribution"/>
        <cc:permits rdf:resource="http://creativecommons.org/ns#DerivativeWorks"/>
      </cc:License>
    </rdf:RDF>
  </metadata>
</svg>
