<?xml version="1.0"?>
<svg xmlns:rdf="http://www.w3.org/1999/02/22-rdf-syntax-ns#" xmlns="http://www.w3.org/2000/svg" xmlns:cc="http://web.resource.org/cc/" xmlns:dc="http://purl.org/dc/elements/1.1/" id="svg2" viewBox="0 0 572.39 408.72" version="1.0">
  <path id="path2528" d="m416.21 0.010007c-15.21 2.1137-25.94 16.304-32.33 29.271 4.74 11-6.26 18.645-12.32 25.624 5.14 4.127 13.47 4.627 2.19 5.985-12.75 5.803 2.66 21.844-11.84 24.862-7.44 10.266-17.6 25.988-10.59 38.458 8.31 10.22-4.67 21.88-10.22 30.25-14.67 4.5-13.33 25.45-29.36 26.05-16.8-2.95-8.78-26.84-16.96-38.32-1.64-3.86-4.48-13.48-5.37-10.29-0.59-12.56 4.66-34.103-12.12-37.715-12.34-4.728-25.27-11.646-37.32-14.378 6.03-10.384 14.81-19.95 17.85-32.02-2.02-15.506-23.73-0.91-33.84-1.915-15.89 0.891-29.89 8.888-45.25 11.724-9.93-3.318-22.04 2.849-14.18 14.17 1.97 11.01 16.69 13.994 20.6 19.756-19.39 8.648-36.03 23.948-46.74 42.318-2.05 14.59-21.47 19.44-20.19 35.69-1.27 15.56 8.22 29.19 10.77 44.2 4.19 13.93 7.35 29.13 2.01 43.23-4.38 17.35-7.71 35.13-7.45 53.08-23.02 4.64-48.637 2.22-68.155-11.75-16.973-10.37-31.74-23.91-48.185-34.97-12.674-3.44-5.8382 12.41-0.6184 16.59 6.6604 13 7.9894 30.73 21.798 38.58 14.97 5.73 30.714 9.39 45.823 14.89 23.462 6.84 48.157 12.44 72.627 8.16 16.43-2.15 32.33 4.21 48.72 2.44 15.14-2.08 13.86 18.96-0.48 18.34-13.38 2.91-27.45 3-40.77 0.15-15.59-0.89-31.19 2.64-46.71-0.36-18.069-2.21-38.456-5.98-49.445-22.19-4.509-11.31-29.325-19.1-24.18-0.02 4.569 14.61 10.65 28.79 16.953 42.71 9.259 14.02 29.066 8.17 43.409 10.35 30.063 2.54 60.393 1.49 90.243 6.44 17.77 1.03 35.46 3.4 53.22 3.98 13.64-0.42 27 3.86 40.65 1.42 24.93-3.05 49.86-6.55 74.28-12.55 5.23-1.81 14.08-4.12 11.6-5.92 16.92-3.16 34.15-8.11 51.32-11.57 11.37-2.01 21.99-6.05 32.46-10.59 12.72-2.78 23.94-9.57 36.44-13.1 17.66-7.26 32.7-20.32 43.26-36.11 10.96-12.37 18.5-28.9 15.77-45.68 0.12-21.6-30.8-33.6-45.71-18.6-10.71 12.59 2.5 24.79 12.78 29.73-1.97 12.15-11.8 22.59-21.47 29.91-24.29 16.79-52.73 25.92-80.21 35.99-14.28 4.46-29.7 6.76-44.59 5.64-9.33-1.64-16.92-15.86-2.71-15.96 15.43-1.33 29.52-8.01 44.29-11.98 12.52 0.44 31.45 0.92 32.86-15.05-4.49-3.86-13.87-10.95-1.05-9.56 16.15 0.34 24.08-16.19 31.48-27.86 7.66-12.09 8.1-28.47-3.2-37.26-1.89-11.58 11.9-15.61 17.45-23.62 8.6-9.35 17.82-18.67 29.83-23.47 10.53-8.63 9.69-23.91 14.91-35.55 4.55-22.42-11.33-46.78-34.1-50.68-15.23-3.936-32.15-3.276-46.25 4.05-15.04-1.6-5.6-23.503-11.68-30.976 6.4-10.247 1.58-29.638 19.91-23.523 9.8-6.257 25.91 8.942 31.01-6.315 3.94-16.032-18.05-21.173-27.22-13.534-13.96-5.133-20.71-19.557-32.38-27.644-3.42-1.9795-7.36-3.1388-11.32-3.008zm-85.29 341.23c12.69 7.41-4.06 13.91-11.98 14.16-15.59 3.09-31.37 4.84-47.01 7.5-14.33-0.03-29.89 2.23-43.42-2.96-6.25-6.15-6.15-20.48 5.76-16.18 20.85 0.16 41.77 4.57 62.52 0.66 11.27-1.23 23.55 1.01 34.13-3.18z"/>
  <path id="path2526" fill="#fff" d="m395.48 42.265c11.31 8.788 28.51 14.976 34.39 27.385-9.56-0.197-25.47-15.631-39.79-13.828-16.57 0.636-1.74-12.791 5.4-13.557z"/>
  <path id="path2407" d="m564.2 390.65c1.33-0.49-1.41-1.02 0 0z"/>
  <path id="path2405" d="m565.64 393.72l0.15-0.65-0.15 0.65z"/>
  <path id="path2403" d="m571 406.06c4.97 10.66-5.43-15.1-0.27-0.72l0.25 0.66 0.02 0.06z"/>
  <path id="path2437" fill="#f00" d="m362.77 130.01c-7.53 8.04-9.96 19.7-17.35 27.73 9.29 5.52 21.84 7.68 29.93 16.61 7.91 9.93 19.41 11.08 26.34-0.46 10.3-4.99 0.23-18.25 7.5-22.08 5.96 4.97 3.48 2.33 7.43-3.38 9.78-10.86 2.7 10.78-1.07 13.87-6.33 13.14-19.09 21.64-27.62 32.01 6.98 5.84 16.98 15.88 14.17 24.76 9.48 1.17 21.12 7.19 29.1 0.6 10.24-9.39 17.27-21.61 28.06-30.43 5.15-9.11 4.82-20.72 5.13-31.23 0.27-14.57-11.65-25.51-21.38-34.7-12.34-7.41-21.89 11.35-33.73 5.19-10.29-7.71-21.07 0.5-32.1-0.91-5.32-1.2-9.63 1.73-14.41 2.42z"/>
  <path id="path2419" fill="#fc0" d="m10.624 274.88c8.547 11.48 7.404 34.06 22.846 37.6 30.484 8.65 60.467 22.32 92.74 22.07 13.31 2.02 0.58-12.69-4.22-16.64-14.47 3.94-30.13 2.27-44.691-1.03-26.359-7.67-46.338-27.61-67.464-44.05-0.1053 0.7 0.623 1.37 0.789 2.05z"/>
  <path id="path2415" fill="#ffd42a" d="m41.131 340.71c5.84 14.76 10.044 32.83 21.254 43.81 11.812 2.99 24.305 0.28 36.38 2.2 17.815 1.53 35.735 1.61 53.535 2.24 15.34 1.34 30.45 4.25 45.68 6.15 15.63 0.2 30.87 4.15 46.55 2.77 16.05 2.47 32.11 2.1 48.1-1.32 18.88-0.93 37.09-6.95 55.61-10.04 29.3-12.63 61.34-15.79 91.54-25.5 23.28-6.77 45.36-17.44 64.54-32.33 11.95-7.41 19.67-19.99 23.67-33.18 6.53-12.54 14.21-32.72-0.11-42.74-10.57-9.64-37.71 4.64-22.18 16.45 8.97 3.23 21.14 7.51 11.41 18-5.04 10.07-12.06 20.26-19.84 22.89-3.66 2.42-11.06 9.03-2.35 3.9-22.95 17-50.24 26.35-76.85 35.82-13.01 4.25-26.02 8.43-39.88 7.61-12.35 1.25-29.45 2.06-30.39-14.49-7.05-9.32-8.7 5.31-7.29 11.04-12.57 7.99-30.52 8.17-45.59 10.61-18.26 3.77-37 4.85-55.57 3.06-11.73 2.53-23.43-5.28-18.45-18.16 0.02-9.79-10.51-3.86-9.35-1.75 0.9 3.72 0.71 20.42-11.63 19.28-15.34 3.41-31.08 5.05-46.72 2.71-16.43-2.34-33.01 1.87-49.35-1.68-17.579-2.87-36.79-6.28-48.766-20.88-2.807-3.14-18.427-24.07-13.953-6.47z"/>
  <path id="path2395" fill="#217821" d="m123.61 182.64c9.42 7.89 9.04 21.68 13.2 32.42 5.62 15.8 4.5 33-1.08 48.62-3.65 15.76-7.3 32.13-4.02 48.33 0.59 16.67 19.65 21.28 33.12 22.81 34.62 7.35 70.19-0.33 105.04 4.7 17.54 0.48 34.91-2.95 52.44-2.76 21.51-1.99 42.37-7.91 63.45-12.33 11.36-6.27 24.67-8.22 37.44-7.62 13.27-7.29-11.23-14.4-5.24-25.53 4.13-15.95 14.48-29.52 23.13-43.3 9.88-10.88 18.11-23.05 27.65-34.21 12.85-9.76 22.16-24.58 37.72-30.41 8.71-3.96 6.54-16.48-3.94-10-12.4 3.44-32.11 2.5-36.43 16.51-10.82 9.93-20.27 20.91-29.5 32.32-9.82 13.01-23.24-0.47-35.34 5.07-13.52-3.65-27.96-8.09-42.08-5.22-13.43-1.47-27.14-4.73-38.97-11.27-9.12-12.36-22.99-12.52-36.65-9.99-29.43-0.71-56.99-11.79-85.04-19.32-14.46-3.8-30.39-4.46-42.33-14.58-7.83-8.34-31.63-18.87-31.3-0.14-0.45 5.29-1.95 10.56-1.27 15.9z"/>
  <path id="path2389" fill="#ffe680" d="m137.94 149.94c9.3 5.26 18.97 9.92 27.1 16.98 11.52 6.08 24.99 6.31 37.38 9.79 23.62 4.3 45.84 14.26 69.79 16.89 9.17 0.63 27.37 5.01 24.85-9.34 0.94-11.08-2.54-26.4-7.12-37.84-7.89-13.31-1.37-30.57-9.36-43.21-11.17-7.1-24.09-11.111-35.62-17.688-9.03-2.697-10.75 7.475-19.33 2.15-11.95 1.543-23.16-2.535-31.47 7.514-11.31 5.314-23.89 8.074-32.24 18.504-11 9.4-20.36 22.8-24.01 36.22l0.03 0.03z"/>
  <path id="path2373" fill="#fea" d="m170.28 70.018c2.59 9.779 20.24 21.079 26.85 16.293 9.17-7.001 22.51 2.434 31.5-5.118 10.46-9.096 19.48-21.148 22.24-34.964-10.46 0.201-20.01 5.659-30.61 5.464-14.88 0.412-27.33 11.399-42.07 10.479-5.52-0.792-15.09 0.321-7.91 7.846z"/>
  <path id="path2333" fill="#ffd5d5" d="m300.92 192.26c7.59 3.39 21.12 2.4 16.87-8.79-7.6-2.02-15.03 2.14-16.87 8.79z"/>
  <path id="path2327" fill="#f00" d="m320.29 201.79c7.64 7.98 25.13 14.18 32.8 10.38-3.34-12.12 24.18-16.1 8.36-21.2-10.56-3.69-24.88-17.57-34.24-11.77-3.87 6.58-8.98 14.67-6.92 22.59z"/>
  <path id="path2303" fill="#fff" d="m355.88 114.23c0.02 20.21 19.93 2.04 30.78 6.46 11.38 0.45 21.64-2.29 31.68 3.74 6.91-6.95 22.87-6.3 17.37-19.66-0.03-7.659-21.17 11.66-13.35-1.77 6.77-2.33 11.94-7.085 8.83-12.929 6.32-7.432-6.74-10.112-5.23-14.926-8.31-1.559-9.05 14.547-19.74 15.242-9.72 2.923-21.01 3.689-30.93 1.103-5.43-4.583-16.55 6.653-11.82 10.85-2.91 3.5-8.74 6.5-7.59 11.89z"/>
  <path id="path2299" fill="#ffd5d5" d="m361.66 215.75c10.51-5.94 26.64 6.15 34.14 0.09-2.43-11.64-12.22-20.65-23.62-15.05-10.3-2.27-12.35 9.76-12.27 15l1.75-0.04z"/>
  <path id="path2291" fill="#ffd5d5" d="m373.73 72.924c4.63-4.441 21.66-1.243 9.54 3.214-14.26 4.132-0.35 18.143 6.73 8.907-7.3-5.095-5.16-11.305 3.03-6.387 6.77 11.364 31.66-2.335 18.81-9.976-10.19-4.884-22.66-12.147-32.35-4.097-3.66 0.769-8.05 4.146-5.76 8.339z"/>
  <path id="path2289" d="m393.3 67.606c12.34-11.032 2.4 15.892 0 0z"/>
  <path id="path2519" fill="#f00" d="m417.33 6.9499c-13.84 1.8254-21.95 15.403-27.53 26.856 10.96 3.741 22.23 11.849 32.42 18.857 6.27 9.296 16.64 2.914 11.46-6.722-1.98-10.337 7.84-11.248 11.54-2.926 7.01 4.179 25.17-0.061 14.33-5.111-12.28-3.155-20.79-14.112-29.16-22.947-3.31-3.913-7.56-8.0628-13.06-8.0071z"/>
  <path id="path2279" fill="#fff" d="m467.77 35.002c-10.65 11.015 21.98 15.149 9.78 0.244-2.31-3.792-7.36-3.925-9.78-0.244z"/>
  <path id="path2271" d="m393.42 87.767c1.21-0.746-1.21-0.402 0 0z"/>
  <path id="path2243" fill="#ffd42a" d="m426.91 292.73c15.24 4.54 26.27-9.33 32.81-20.96 7.09-7.54 13.99-35.29-3-31.03-10.56 10.03-17.06 23.65-24.73 35.9-2.09 4.74-6.11 11.42-5.08 16.09z"/>
  <path id="path2233" fill="#fc0" d="m441.93 117.69c11.14 2.44 15.99 14.49 23.08 22.14 7.98 10.18 0.19 26.05 5.91 34.89 11.44-4.13 22.65-8.28 35.18-8.58 13.99-1.59 16.88-17.64 14.31-29.02-3.63-17.15-18.95-30.82-36.58-31.91-13.36-2.76-26.87 1.23-39.01 6.59-2.06 0.92-4.37 3.56-2.89 5.89z"/>
  <metadata>
    <rdf:RDF>
      <cc:Work>
        <dc:format>image/svg+xml</dc:format>
        <dc:type rdf:resource="http://purl.org/dc/dcmitype/StillImage"/>
        <cc:license rdf:resource="http://creativecommons.org/licenses/publicdomain/"/>
        <dc:publisher>
          <cc:Agent rdf:about="http://openclipart.org/">
            <dc:title>Openclipart</dc:title>
          </cc:Agent>
        </dc:publisher>
      </cc:Work>
      <cc:License rdf:about="http://creativecommons.org/licenses/publicdomain/">
        <cc:permits rdf:resource="http://creativecommons.org/ns#Reproduction"/>
        <cc:permits rdf:resource="http://creativecommons.org/ns#Distribution"/>
        <cc:permits rdf:resource="http://creativecommons.org/ns#DerivativeWorks"/>
      </cc:License>
    </rdf:RDF>
  </metadata>
</svg>
