<?xml version="1.0"?>
<svg xmlns:rdf="http://www.w3.org/1999/02/22-rdf-syntax-ns#" xmlns="http://www.w3.org/2000/svg" xmlns:cc="http://creativecommons.org/ns#" xmlns:dc="http://purl.org/dc/elements/1.1/" id="svg2" viewBox="0 0 389.04 953.91" version="1.1">
  <defs id="defs4">
    <filter id="filter5953" y="-.84185" width="2.9427" x="-.97136" height="2.6837">
      <feGaussianBlur id="feGaussianBlur5955" stdDeviation="4.7006602"/>
    </filter>
    <filter id="filter5957" y="-.84185" width="2.9427" x="-.97136" height="2.6837">
      <feGaussianBlur id="feGaussianBlur5959" stdDeviation="4.7006602"/>
    </filter>
    <filter id="filter5973" y="-.3328" width="1.768" x="-.384" height="1.6656">
      <feGaussianBlur id="feGaussianBlur5975" stdDeviation="1.8582908"/>
    </filter>
  </defs>
  <g id="layer1" transform="translate(-199.69 -181.91)">
    <rect id="rect5977" style="color:#000000" fill-rule="evenodd" rx="0" transform="translate(199.69 181.91)" ry="15.152" height="303.76" width="91.127" stroke="#000" y="287.43" x="143.84" stroke-width="1px" fill="#000080"/>
    <rect id="rect5239" style="color:#000000" fill-rule="evenodd" rx="15.152" ry="15.152" height="63.64" width="57.579" stroke="#000" y="630.12" x="227.28" stroke-width="2.5" fill="#ff0"/>
    <path id="path5252" stroke="#000" stroke-width="2.5" fill="#fff" d="m301.09 340.2c-15.835 2.2296-31.29-13.625-46.609-4.2278 3.948 9.1849 4.448 26.523-10.322 19.757-17.257 3.2209-0.72898 25.465-14.674 30.115-8.8454 6.5647-22.667 15.733-17.202 28.571 10.08 6.8999 17.346 19.814 7.4786 30.724-3.086 14.809 15.971 13.417 23.101 11.953 4.3323 9.149 6.9757 35.873 21.598 21.284 6.4176-14.83 23.651-7.4885 33.268-16.265 15.857-9.3315 22.862-28.131 16.492-45.467-6.9399-19.278 14.034-31.731 12.877-50.203-0.01-13.942-11.534-27.029-26.007-26.241z"/>
    <path id="path5254" stroke="#000" stroke-width="2.5" fill="#fff" d="m477.8 340.2c15.835 2.2296 31.29-13.625 46.609-4.2278-3.948 9.1849-4.448 26.523 10.322 19.757 17.257 3.2209 0.72898 25.465 14.674 30.115 8.8454 6.5647 22.667 15.733 17.202 28.571-10.08 6.8999-17.346 19.814-7.4786 30.724 3.086 14.809-15.971 13.417-23.101 11.953-4.3323 9.149-6.9757 35.873-21.598 21.284-6.4176-14.83-23.651-7.4885-33.268-16.265-15.857-9.3315-22.862-28.131-16.492-45.467 6.9399-19.278-14.034-31.731-12.877-50.203 0.01-13.942 11.534-27.029 26.007-26.241z"/>
    <path id="path5214" stroke="#000" stroke-width="2.5" fill="#e9afaf" d="m388.91 284.66c-50.21 0-90.906 53.135-90.906 118.69 0 18.255 3.173 35.55 8.8125 51h164.19c5.6395-15.45 8.8125-32.745 8.8125-51 0-65.552-40.696-118.69-90.906-118.69z"/>
    <path id="path3003" stroke="#000" stroke-width="2.5" fill="#000080" d="m305.97 454.72c-14.465 21.237-23.125 48.126-23.125 77.406 0 34.499 11.995 65.705 31.375 88.219h149.38c19.38-22.514 31.375-53.719 31.375-88.219 0-29.281-8.6602-56.169-23.125-77.406h-165.88z"/>
    <rect id="rect3005" style="color:#000000" fill-rule="evenodd" ry="15.152" height="43.437" width="162.63" stroke="#000" y="620.02" x="307.59" stroke-width="2.5"/>
    <rect id="rect5713" style="color:#000000" fill-rule="evenodd" rx="25.697" ry="15.152" height="153.61" width="76.515" stroke="#000" y="702.34" x="303.2" stroke-width="2.5" fill="#fff"/>
    <rect id="rect5719" style="color:#000000" fill-rule="evenodd" rx="25.697" ry="15.152" height="153.61" width="76.515" stroke="#000" y="900.58" x="303.2" stroke-width="2.5"/>
    <rect id="rect5717" style="color:#000000" fill-rule="evenodd" rx="13.043" ry="15.152" height="51.334" width="76.515" stroke="#000" y="853.13" x="303.2" stroke-width="2.5" fill="#ff0"/>
    <path id="path5725" stroke="#ff0" transform="matrix(.65407 0 0 .65407 108.28 631.01)" fill="#ff0" d="m347.33 487.48c0 5.6159-4.5526 10.168-10.168 10.168-5.6159 0-10.168-4.5526-10.168-10.168 0-5.6159 4.5526-10.168 10.168-10.168 5.6159 0 10.168 4.5526 10.168 10.168z"/>
    <path id="path5727" stroke="#ff0" transform="matrix(.65407 0 0 .65407 108.28 649.99)" fill="#ff0" d="m347.33 487.48c0 5.6159-4.5526 10.168-10.168 10.168-5.6159 0-10.168-4.5526-10.168-10.168 0-5.6159 4.5526-10.168 10.168-10.168 5.6159 0 10.168 4.5526 10.168 10.168z"/>
    <path id="path5729" stroke="#ff0" transform="matrix(.65407 0 0 .65407 108.28 668.84)" fill="#ff0" d="m347.33 487.48c0 5.6159-4.5526 10.168-10.168 10.168-5.6159 0-10.168-4.5526-10.168-10.168 0-5.6159 4.5526-10.168 10.168-10.168 5.6159 0 10.168 4.5526 10.168 10.168z"/>
    <path id="path5731" stroke="#ff0" transform="matrix(.65407 0 0 .65407 108.28 688.14)" fill="#ff0" d="m347.33 487.48c0 5.6159-4.5526 10.168-10.168 10.168-5.6159 0-10.168-4.5526-10.168-10.168 0-5.6159 4.5526-10.168 10.168-10.168 5.6159 0 10.168 4.5526 10.168 10.168z"/>
    <path id="path5733" stroke="#ff0" transform="matrix(.65407 0 0 .65407 108.28 705.73)" fill="#ff0" d="m347.33 487.48c0 5.6159-4.5526 10.168-10.168 10.168-5.6159 0-10.168-4.5526-10.168-10.168 0-5.6159 4.5526-10.168 10.168-10.168 5.6159 0 10.168 4.5526 10.168 10.168z"/>
    <path id="path5735" stroke="#ff0" transform="matrix(.65407 0 0 .65407 108.28 613.3)" fill="#ff0" d="m347.33 487.48c0 5.6159-4.5526 10.168-10.168 10.168-5.6159 0-10.168-4.5526-10.168-10.168 0-5.6159 4.5526-10.168 10.168-10.168 5.6159 0 10.168 4.5526 10.168 10.168z"/>
    <path id="path5737" stroke="#ff0" transform="matrix(.65407 0 0 .65407 134.19 631.01)" fill="#ff0" d="m347.33 487.48c0 5.6159-4.5526 10.168-10.168 10.168-5.6159 0-10.168-4.5526-10.168-10.168 0-5.6159 4.5526-10.168 10.168-10.168 5.6159 0 10.168 4.5526 10.168 10.168z"/>
    <path id="path5739" stroke="#ff0" transform="matrix(.65407 0 0 .65407 134.19 649.99)" fill="#ff0" d="m347.33 487.48c0 5.6159-4.5526 10.168-10.168 10.168-5.6159 0-10.168-4.5526-10.168-10.168 0-5.6159 4.5526-10.168 10.168-10.168 5.6159 0 10.168 4.5526 10.168 10.168z"/>
    <path id="path5741" stroke="#ff0" transform="matrix(.65407 0 0 .65407 134.19 668.84)" fill="#ff0" d="m347.33 487.48c0 5.6159-4.5526 10.168-10.168 10.168-5.6159 0-10.168-4.5526-10.168-10.168 0-5.6159 4.5526-10.168 10.168-10.168 5.6159 0 10.168 4.5526 10.168 10.168z"/>
    <path id="path5743" stroke="#ff0" transform="matrix(.65407 0 0 .65407 134.19 688.14)" fill="#ff0" d="m347.33 487.48c0 5.6159-4.5526 10.168-10.168 10.168-5.6159 0-10.168-4.5526-10.168-10.168 0-5.6159 4.5526-10.168 10.168-10.168 5.6159 0 10.168 4.5526 10.168 10.168z"/>
    <path id="path5745" stroke="#ff0" transform="matrix(.65407 0 0 .65407 134.19 705.73)" fill="#ff0" d="m347.33 487.48c0 5.6159-4.5526 10.168-10.168 10.168-5.6159 0-10.168-4.5526-10.168-10.168 0-5.6159 4.5526-10.168 10.168-10.168 5.6159 0 10.168 4.5526 10.168 10.168z"/>
    <path id="path5747" stroke="#ff0" transform="matrix(.65407 0 0 .65407 134.19 613.3)" fill="#ff0" d="m347.33 487.48c0 5.6159-4.5526 10.168-10.168 10.168-5.6159 0-10.168-4.5526-10.168-10.168 0-5.6159 4.5526-10.168 10.168-10.168 5.6159 0 10.168 4.5526 10.168 10.168z"/>
    <path id="path5749" stroke="#ff0" stroke-width="2.5" fill="none" d="m326.86 932.43 26.865 17.91-25.586 19.189 25.906 18.55-25.266 18.87 24.626 17.91"/>
    <path id="path5751" stroke="#ff0" stroke-width="2.5" fill="none" d="m354.05 932.43-26.865 17.91 25.586 19.189-25.906 18.55 25.266 18.87-24.626 17.91"/>
    <rect id="rect5775" style="color:#000000" fill-rule="evenodd" rx="25.697" ry="15.152" height="153.61" width="76.515" stroke="#000" y="702.34" x="399.15" stroke-width="2.5" fill="#fff"/>
    <rect id="rect5777" style="color:#000000" fill-rule="evenodd" rx="25.697" ry="15.152" height="153.61" width="76.515" stroke="#000" y="900.58" x="399.15" stroke-width="2.5"/>
    <rect id="rect5779" style="color:#000000" fill-rule="evenodd" rx="13.043" ry="15.152" height="51.334" width="76.515" stroke="#000" y="853.13" x="399.15" stroke-width="2.5" fill="#ff0"/>
    <path id="path5783" stroke="#ff0" transform="matrix(.65407 0 0 .65407 204.23 631.01)" fill="#ff0" d="m347.33 487.48c0 5.6159-4.5526 10.168-10.168 10.168-5.6159 0-10.168-4.5526-10.168-10.168 0-5.6159 4.5526-10.168 10.168-10.168 5.6159 0 10.168 4.5526 10.168 10.168z"/>
    <path id="path5785" stroke="#ff0" transform="matrix(.65407 0 0 .65407 204.23 649.99)" fill="#ff0" d="m347.33 487.48c0 5.6159-4.5526 10.168-10.168 10.168-5.6159 0-10.168-4.5526-10.168-10.168 0-5.6159 4.5526-10.168 10.168-10.168 5.6159 0 10.168 4.5526 10.168 10.168z"/>
    <path id="path5787" stroke="#ff0" transform="matrix(.65407 0 0 .65407 204.23 668.84)" fill="#ff0" d="m347.33 487.48c0 5.6159-4.5526 10.168-10.168 10.168-5.6159 0-10.168-4.5526-10.168-10.168 0-5.6159 4.5526-10.168 10.168-10.168 5.6159 0 10.168 4.5526 10.168 10.168z"/>
    <path id="path5789" stroke="#ff0" transform="matrix(.65407 0 0 .65407 204.23 688.14)" fill="#ff0" d="m347.33 487.48c0 5.6159-4.5526 10.168-10.168 10.168-5.6159 0-10.168-4.5526-10.168-10.168 0-5.6159 4.5526-10.168 10.168-10.168 5.6159 0 10.168 4.5526 10.168 10.168z"/>
    <path id="path5791" stroke="#ff0" transform="matrix(.65407 0 0 .65407 204.23 705.73)" fill="#ff0" d="m347.33 487.48c0 5.6159-4.5526 10.168-10.168 10.168-5.6159 0-10.168-4.5526-10.168-10.168 0-5.6159 4.5526-10.168 10.168-10.168 5.6159 0 10.168 4.5526 10.168 10.168z"/>
    <path id="path5793" stroke="#ff0" transform="matrix(.65407 0 0 .65407 204.23 613.3)" fill="#ff0" d="m347.33 487.48c0 5.6159-4.5526 10.168-10.168 10.168-5.6159 0-10.168-4.5526-10.168-10.168 0-5.6159 4.5526-10.168 10.168-10.168 5.6159 0 10.168 4.5526 10.168 10.168z"/>
    <path id="path5795" stroke="#ff0" transform="matrix(.65407 0 0 .65407 230.13 631.01)" fill="#ff0" d="m347.33 487.48c0 5.6159-4.5526 10.168-10.168 10.168-5.6159 0-10.168-4.5526-10.168-10.168 0-5.6159 4.5526-10.168 10.168-10.168 5.6159 0 10.168 4.5526 10.168 10.168z"/>
    <path id="path5797" stroke="#ff0" transform="matrix(.65407 0 0 .65407 230.13 649.99)" fill="#ff0" d="m347.33 487.48c0 5.6159-4.5526 10.168-10.168 10.168-5.6159 0-10.168-4.5526-10.168-10.168 0-5.6159 4.5526-10.168 10.168-10.168 5.6159 0 10.168 4.5526 10.168 10.168z"/>
    <path id="path5799" stroke="#ff0" transform="matrix(.65407 0 0 .65407 230.13 668.84)" fill="#ff0" d="m347.33 487.48c0 5.6159-4.5526 10.168-10.168 10.168-5.6159 0-10.168-4.5526-10.168-10.168 0-5.6159 4.5526-10.168 10.168-10.168 5.6159 0 10.168 4.5526 10.168 10.168z"/>
    <path id="path5801" stroke="#ff0" transform="matrix(.65407 0 0 .65407 230.13 688.14)" fill="#ff0" d="m347.33 487.48c0 5.6159-4.5526 10.168-10.168 10.168-5.6159 0-10.168-4.5526-10.168-10.168 0-5.6159 4.5526-10.168 10.168-10.168 5.6159 0 10.168 4.5526 10.168 10.168z"/>
    <path id="path5803" stroke="#ff0" transform="matrix(.65407 0 0 .65407 230.13 705.73)" fill="#ff0" d="m347.33 487.48c0 5.6159-4.5526 10.168-10.168 10.168-5.6159 0-10.168-4.5526-10.168-10.168 0-5.6159 4.5526-10.168 10.168-10.168 5.6159 0 10.168 4.5526 10.168 10.168z"/>
    <path id="path5805" stroke="#ff0" transform="matrix(.65407 0 0 .65407 230.13 613.3)" fill="#ff0" d="m347.33 487.48c0 5.6159-4.5526 10.168-10.168 10.168-5.6159 0-10.168-4.5526-10.168-10.168 0-5.6159 4.5526-10.168 10.168-10.168 5.6159 0 10.168 4.5526 10.168 10.168z"/>
    <path id="path5807" stroke="#ff0" stroke-width="2.5" fill="none" d="m422.81 932.43 26.865 17.91-25.586 19.189 25.906 18.55-25.266 18.87 24.626 17.91"/>
    <path id="path5809" stroke="#ff0" stroke-width="2.5" fill="none" d="m449.99 932.43-26.865 17.91 25.586 19.189-25.906 18.55 25.266 18.87-24.626 17.91"/>
    <path id="path5209" stroke="#000" stroke-width="2.5" fill="#000080" d="m312.09 655.25c-13.551 15.658-21.656 35.54-21.656 57.188 0 7.4839 0.98488 14.757 2.8125 21.719h191.38c1.827-6.9605 2.7812-14.236 2.7812-21.719 0-21.645-8.1154-41.531-21.656-57.188h-153.66z"/>
    <path id="path5703" stroke-linejoin="round" d="m384.72 183.16c-14.517 0-26.281 11.764-26.281 26.281 0 2.1792 0.25014 4.319 0.75 6.3438-25.754 5.1136-43.781 16.806-43.781 30.406 0 18.311 32.655 33.156 72.906 33.156s72.875-14.845 72.875-33.156c0-14.789-21.294-27.322-50.688-31.594 0.33-1.6634 0.5-3.396 0.5-5.1562 0-14.517-11.764-26.281-26.281-26.281z" stroke="#000" stroke-width="2.5" fill="#000080"/>
    <path id="rect5216" style="color:#000000" d="m298.5 248.5h180.82l-18 77.665h-144.82z" fill-rule="evenodd" stroke="#000" stroke-width="2.5" fill="#000080"/>
    <rect id="rect5220" style="color:#000000" fill-rule="evenodd" rx="15.152" ry="15.152" height="106.07" width="57.579" stroke="#000" y="523.04" x="227.28" stroke-width="2.5" fill="#000080"/>
    <rect id="rect5218" style="color:#000000" fill-rule="evenodd" rx="15.152" ry="15.152" height="64.65" width="77.782" stroke="#000" y="469.5" x="217.18" stroke-width="2.5" fill="#ff0"/>
    <rect id="rect5224" style="color:#000000" fill-rule="evenodd" rx="15.152" ry="15.152" height="200.01" width="58.589" stroke="#000" y="522.03" x="491.94" stroke-width="2.5" fill="#000080"/>
    <path id="path5226" d="m296.98 660.42c0 17.853-14.472 32.325-32.325 32.325s-32.325-14.472-32.325-32.325 14.472-32.325 32.325-32.325 32.325 14.472 32.325 32.325z" transform="translate(257.08 94.954)" stroke="#000" stroke-width="2.5" fill="#e9afaf"/>
    <rect id="rect5228" style="color:#000000" fill-rule="evenodd" rx="15.152" ry="15.152" height="64.65" width="77.782" stroke="#000" y="469.5" x="482.85" stroke-width="2.5" fill="#ff0"/>
    <path id="rect5234" style="color:#000000" d="m484.48 676.61h76.629l-4 55.538h-68.629z" fill-rule="evenodd" stroke="#000" stroke-width="2.5" fill="#ff0"/>
    <rect id="rect5243" style="color:#000000" fill-rule="evenodd" rx="0" ry="7.5761" height="19.193" width="71.721" stroke="#000" y="610.93" x="220.21" stroke-width="2.5"/>
    <rect id="rect5245" style="color:#000000" fill-rule="evenodd" rx="0" ry="7.5761" transform="rotate(90)" height="19.193" width="59.288" stroke="#000" y="-265.67" x="692.75" stroke-width="2.5"/>
    <path id="path5943" stroke="#ff0" stroke-width="6.25" fill="#ff0" d="m305.99 459.13 164.83-0.4467"/>
    <g id="g5706" transform="translate(-1.7593 9.5587)">
      <rect id="rect5274" style="color:#000000" fill-rule="evenodd" rx="0" ry="5.304" height="24.122" width="79.294" stroke="#f00" y="449.61" x="350.9" stroke-width="1.0934" fill="#f00"/>
      <path id="path5263" stroke="#000" stroke-width="2.5" fill="#fff" d="m355.14 451.91v8.875c-0.069 0.41665-0.125 0.84443-0.125 1.2812 0 4.1935 3.3236 7.5938 7.4062 7.5938 4.0827 0 7.375-3.4002 7.375-7.5938 0-0.6499-0.0692-1.2729-0.21875-1.875v-8.2812h-14.438z"/>
      <path id="path5268" stroke="#000" stroke-width="2.5" fill="#fff" d="m373.87 451.91v8.875c-0.069 0.41665-0.125 0.84443-0.125 1.2812 0 4.1935 3.3236 7.5938 7.4062 7.5938 4.0827 0 7.375-3.4002 7.375-7.5938 0-0.6499-0.0692-1.2729-0.21875-1.875v-8.2812h-14.438z"/>
      <path id="path5270" stroke="#000" stroke-width="2.5" fill="#fff" d="m392.74 451.91v8.875c-0.069 0.41665-0.125 0.84443-0.125 1.2812 0 4.1935 3.3236 7.5938 7.4062 7.5938 4.0827 0 7.375-3.4002 7.375-7.5938 0-0.6499-0.0692-1.2729-0.21875-1.875v-8.2812h-14.438z"/>
      <path id="path5272" stroke="#000" stroke-width="2.5" fill="#fff" d="m411.07 451.91v8.875c-0.069 0.41665-0.125 0.84443-0.125 1.2812 0 4.1935 3.3236 7.5938 7.4062 7.5938 4.0827 0 7.375-3.4002 7.375-7.5938 0-0.6499-0.0692-1.2729-0.21875-1.875v-8.2812h-14.438z"/>
    </g>
    <path id="path5276" stroke="#ff0" transform="translate(-4)" fill="#ff0" d="m347.33 487.48c0 5.6159-4.5526 10.168-10.168 10.168-5.6159 0-10.168-4.5526-10.168-10.168 0-5.6159 4.5526-10.168 10.168-10.168 5.6159 0 10.168 4.5526 10.168 10.168z"/>
    <path id="path5278" stroke="#ff0" transform="translate(-4 29.97)" fill="#ff0" d="m347.33 487.48c0 5.6159-4.5526 10.168-10.168 10.168-5.6159 0-10.168-4.5526-10.168-10.168 0-5.6159 4.5526-10.168 10.168-10.168 5.6159 0 10.168 4.5526 10.168 10.168z"/>
    <path id="path5280" stroke="#ff0" transform="translate(-4 60.208)" fill="#ff0" d="m347.33 487.48c0 5.6159-4.5526 10.168-10.168 10.168-5.6159 0-10.168-4.5526-10.168-10.168 0-5.6159 4.5526-10.168 10.168-10.168 5.6159 0 10.168 4.5526 10.168 10.168z"/>
    <path id="path5282" stroke="#ff0" transform="translate(-4 91.248)" fill="#ff0" d="m347.33 487.48c0 5.6159-4.5526 10.168-10.168 10.168-5.6159 0-10.168-4.5526-10.168-10.168 0-5.6159 4.5526-10.168 10.168-10.168 5.6159 0 10.168 4.5526 10.168 10.168z"/>
    <path id="path5284" stroke="#ff0" transform="translate(107.36)" fill="#ff0" d="m347.33 487.48c0 5.6159-4.5526 10.168-10.168 10.168-5.6159 0-10.168-4.5526-10.168-10.168 0-5.6159 4.5526-10.168 10.168-10.168 5.6159 0 10.168 4.5526 10.168 10.168z"/>
    <path id="path5286" stroke="#ff0" transform="translate(107.36 29.97)" fill="#ff0" d="m347.33 487.48c0 5.6159-4.5526 10.168-10.168 10.168-5.6159 0-10.168-4.5526-10.168-10.168 0-5.6159 4.5526-10.168 10.168-10.168 5.6159 0 10.168 4.5526 10.168 10.168z"/>
    <path id="path5288" stroke="#ff0" transform="translate(107.36 60.208)" fill="#ff0" d="m347.33 487.48c0 5.6159-4.5526 10.168-10.168 10.168-5.6159 0-10.168-4.5526-10.168-10.168 0-5.6159 4.5526-10.168 10.168-10.168 5.6159 0 10.168 4.5526 10.168 10.168z"/>
    <path id="path5290" stroke="#ff0" transform="translate(107.36 91.248)" fill="#ff0" d="m347.33 487.48c0 5.6159-4.5526 10.168-10.168 10.168-5.6159 0-10.168-4.5526-10.168-10.168 0-5.6159 4.5526-10.168 10.168-10.168 5.6159 0 10.168 4.5526 10.168 10.168z"/>
    <path id="path5371" stroke="#fff" stroke-width="2.6628" fill="#fff" d="m394.61 609.86c3.5029 7.3661 12.742-1.1059 7.1083-6.388-1.9352-4.3466 3.9957-11.836 5.8749-4.375-0.1784 4.3062 7.6493 10.713 6.5023 2.6826-1.8732-7.8177 8.6965-11.576 9.4082-2.4413 0.15701 4.448 8.0778 12.983 9.0618 4.7703-0.73923-4.7534-6.1885-15.207 1.9213-15.566 3.5578 1.5794 4.1947 12.591 8.9539 7.4582-2.1468-4.9362-6.9156-15.927 2.2722-16.114-0.76816-6.7487-6.4027-13.28-1.0922-19.768 0.62098-8.1174-3.884-16.174-0.3926-24.2 2.615-7.5157-2.138-14.38-2.383-21.78 0.7185-7.1402-5.0843-11.717-6.7538-18.082-1.7156-5.6502-2.2744-13.694-8.7652-15.879-7.941-2.4217-16.363-0.78419-24.493-1.8244-16.621-0.44275-33.255 0.0615-49.844 1.1146-7.4759 2.76-7.431 11.776-10.109 18.023-3.4384 4.9476-5.6347 10.653-6.3498 16.662-0.19059 5.0369-2.968 9.4403-3.0014 14.458-0.17712 6.8022 3.7686 13.546 1.3203 20.237-1.3133 6.3496-0.97267 13.191 1.8382 19.108-2.7382 5.1014-5.5082 12.956 2.029 14.531 2.4536 4.8149-7.3543 12.393-0.35119 14.799 1.2036-5.5601 10.448-13.165 10.499-3.0866-0.79702 4.0499-6.311 14.906 1.7489 13.33 4.6342-3.6138 3.3214-14.523 11.028-13.438 3.9595 1.9031-0.0296 15.168 6.9956 10.288-1.5742-5.5053 8.8354-13.156 8.139-4.0586-1.7423 4.3694-1.6276 17.132 5.6008 12.042 1.869-3.1543 0.61737-14.763 7.467-11.587 6.6845-4.5661 5.8612 6.549 5.7673 9.0839z"/>
    <path id="path5324" stroke="#fff" stroke-width="1px" fill="#fff" d="m317.13 357.73s15.402-9.594 43.637-3.2324c5.3334 1.2017-5.0101 24.243-19.394 27.152-14.384 2.9091-24.243-23.919-24.243-23.919z"/>
    <path id="path5311" stroke-linejoin="round" d="m345.86 367.1c0 3.5704-1.4472 6.4647-3.2324 6.4647s-3.2323-2.8943-3.2323-6.4647 1.4472-6.4647 3.2323-6.4647c1.7852 0 3.2324 2.8944 3.2324 6.4647z" transform="translate(-2.8724)" stroke="#00f" stroke-width="12.5" fill="#00f"/>
    <path id="path5313" stroke-linejoin="round" d="m343.6 365.49c0 0.89258-0.57887 1.6162-1.2929 1.6162-0.71407 0-1.2929-0.72359-1.2929-1.6162 0-0.89259 0.57887-1.6162 1.2929-1.6162 0.71407 0 1.2929 0.72359 1.2929 1.6162z" transform="translate(-2.8724)" stroke="#000" stroke-width="12.5"/>
    <path id="path5317" stroke="#fff" stroke-width="1px" fill="none" d="m317.13 357.73s15.402-9.594 43.637-3.2324c5.3334 1.2017-5.0101 24.243-19.394 27.152-14.384 2.9091-24.243-23.919-24.243-23.919z"/>
    <path id="path5380" stroke="#fff" stroke-width="2.5" fill="#fff" d="m310.5 347.95c14.853-8.8928 48.492-20.908 61.507-10.449 0.75976 0.67355 1.9025 1.5098 1.7205 2.5068-0.50917 2.7888-4.2092 4.4411-6.98 4.859-8.5613 2.6378-38.732 0.1265-56.032 2.9554z"/>
    <path id="path5416" stroke="#fff" stroke-width="1px" fill="#fff" d="m461.52 357.73s-15.402-9.594-43.637-3.2324c-5.3334 1.2017 5.0101 24.243 19.394 27.152 14.384 2.9091 24.243-23.919 24.243-23.919z"/>
    <path id="path5410" stroke-linejoin="round" d="m345.86 367.1c0 3.5704-1.4472 6.4647-3.2324 6.4647s-3.2323-2.8943-3.2323-6.4647 1.4472-6.4647 3.2323-6.4647c1.7852 0 3.2324 2.8944 3.2324 6.4647z" transform="matrix(-1 0 0 1 781.52 0)" stroke="#00f" stroke-width="12.5" fill="#00f"/>
    <path id="path5412" stroke-linejoin="round" d="m343.6 365.49c0 0.89258-0.57887 1.6162-1.2929 1.6162-0.71407 0-1.2929-0.72359-1.2929-1.6162 0-0.89259 0.57887-1.6162 1.2929-1.6162 0.71407 0 1.2929 0.72359 1.2929 1.6162z" transform="matrix(-1 0 0 1 781.52 0)" stroke="#000" stroke-width="12.5"/>
    <path id="path5414" stroke="#fff" stroke-width="1px" fill="none" d="m461.52 357.73s-15.402-9.594-43.637-3.2324c-5.3334 1.2017 5.0101 24.243 19.394 27.152 14.384 2.9091 24.243-23.919 24.243-23.919z"/>
    <path id="path5418" stroke="#fff" stroke-width="2.5" fill="#fff" d="m468.15 347.95c-14.853-8.8928-48.492-20.908-61.507-10.449-0.75976 0.67355-1.9025 1.5098-1.7205 2.5068 0.50917 2.7888 4.2092 4.4411 6.98 4.859 8.5613 2.6378 38.732 0.1265 56.032 2.9554z"/>
    <path id="path5651" stroke-linejoin="round" d="m337.52 362.23c0 0.57737-0.46805 1.0454-1.0454 1.0454-0.57738 0-1.0454-0.46806-1.0454-1.0454 0-0.57737 0.46805-1.0454 1.0454-1.0454 0.57737 0 1.0454 0.46806 1.0454 1.0454z" stroke="#fff" stroke-width="2.5" fill="#fff"/>
    <path id="path5653" stroke-linejoin="round" d="m337.52 362.23c0 0.57737-0.46805 1.0454-1.0454 1.0454-0.57738 0-1.0454-0.46806-1.0454-1.0454 0-0.57737 0.46805-1.0454 1.0454-1.0454 0.57737 0 1.0454 0.46806 1.0454 1.0454z" transform="translate(100.06)" stroke="#fff" stroke-width="2.5" fill="#fff"/>
    <path id="path5222" d="m296.98 660.42c0 17.853-14.472 32.325-32.325 32.325s-32.325-14.472-32.325-32.325 14.472-32.325 32.325-32.325 32.325 14.472 32.325 32.325z" transform="translate(-8.5863)" stroke="#000" stroke-width="2.5" fill="#e9afaf"/>
    <rect id="rect5665" style="color:#000000" fill-rule="evenodd" rx="9.1784" ry="15.152" height="30.467" width="59.739" stroke="#ff0" y="621.65" x="362.61" stroke-width="6.25"/>
    <path id="path5699" stroke="#ff0" transform="translate(52.154 -195.35)" fill="#ff0" d="m347.33 487.48c0 5.6159-4.5526 10.168-10.168 10.168-5.6159 0-10.168-4.5526-10.168-10.168 0-5.6159 4.5526-10.168 10.168-10.168 5.6159 0 10.168 4.5526 10.168 10.168z"/>
    <path id="path5701" stroke-linejoin="round" d="m388.39 194.61-1.0337 13.759-10.01-9.4963-13.405 3.2688 5.9381-12.455-7.2513-11.739 13.68 1.7987 8.9238-10.524 2.5168 13.567 12.766 5.235z" transform="matrix(.96309 -.26919 .26919 .96309 -30.442 130.36)" stroke="#000" stroke-width="2.5" fill="#ff0"/>
    <rect id="rect5723" style="color:#000000" fill-rule="evenodd" rx="0" ry="15.152" height="43.232" width="388.04" stroke="#000" y="1092.1" x="200.19" stroke-width="1px"/>
    <path id="rect5847" style="color:#000000" d="m538.59 688.73c-4.3911 0-7.9375 6.7619-7.9375 15.156v25.531h19.188v-25.531c0-8.3944-3.5151-15.156-7.9062-15.156z" fill-rule="evenodd" stroke="#000080" stroke-width="2.5" fill="#000080"/>
    <path id="path5858" stroke-linejoin="round" d="m512.01 701.7c0 2.3021-1.8662 4.1683-4.1683 4.1683s-4.1683-1.8662-4.1683-4.1683 1.8662-4.1683 4.1683-4.1683 4.1683 1.8662 4.1683 4.1683z" transform="translate(32.304 -1.9946)" stroke="#ff0" stroke-width="2.5" fill="#ff0"/>
    <g id="g5860" transform="matrix(1 0 0 -1 -1.7593 908.6)">
      <rect id="rect5862" style="color:#000000" fill-rule="evenodd" rx="0" ry="5.304" height="24.122" width="79.294" stroke="#f00" y="449.61" x="350.9" stroke-width="1.0934" fill="#f00"/>
      <path id="path5864" stroke="#000" stroke-width="2.5" fill="#fff" d="m355.14 451.91v8.875c-0.069 0.41665-0.125 0.84443-0.125 1.2812 0 4.1935 3.3236 7.5938 7.4062 7.5938 4.0827 0 7.375-3.4002 7.375-7.5938 0-0.6499-0.0692-1.2729-0.21875-1.875v-8.2812h-14.438z"/>
      <path id="path5866" stroke="#000" stroke-width="2.5" fill="#fff" d="m373.87 451.91v8.875c-0.069 0.41665-0.125 0.84443-0.125 1.2812 0 4.1935 3.3236 7.5938 7.4062 7.5938 4.0827 0 7.375-3.4002 7.375-7.5938 0-0.6499-0.0692-1.2729-0.21875-1.875v-8.2812h-14.438z"/>
      <path id="path5868" stroke="#000" stroke-width="2.5" fill="#fff" d="m392.74 451.91v8.875c-0.069 0.41665-0.125 0.84443-0.125 1.2812 0 4.1935 3.3236 7.5938 7.4062 7.5938 4.0827 0 7.375-3.4002 7.375-7.5938 0-0.6499-0.0692-1.2729-0.21875-1.875v-8.2812h-14.438z"/>
      <path id="path5870" stroke="#000" stroke-width="2.5" fill="#fff" d="m411.07 451.91v8.875c-0.069 0.41665-0.125 0.84443-0.125 1.2812 0 4.1935 3.3236 7.5938 7.4062 7.5938 4.0827 0 7.375-3.4002 7.375-7.5938 0-0.6499-0.0692-1.2729-0.21875-1.875v-8.2812h-14.438z"/>
    </g>
    <path id="path5292" stroke="#fff" stroke-width="2.5" fill="#fff" d="m359.52 419.94c-7.6225 1.7974-11.042 4.7857-25.095 8.4116-10.125 3.3566-35.749 6.8243-24.717 9.7134 2.4332 0.43797 22.101 1.5305 26.332 2.2652 4.3014 0.74686 17.97 4.0368 25.199 5.1724 0.0762 0.012 0.20662 0.0195 0.28125 0.0312 1.9087 0.38488 3.738 0.58453 5.5312 0.5937 10.659 0 19.281-6.101 19.281-13.625s-8.6222-13.625-19.281-13.625c-2.7421-0.083-5.0976 0.38905-7.5312 1.0626z"/>
    <path id="path5306" stroke="#fff" stroke-width="2.5" fill="#fff" d="m417.21 419.94c7.6225 1.7974 11.042 4.7857 25.095 8.4116 10.125 3.3566 35.749 6.8243 24.717 9.7134-2.4332 0.43797-22.101 1.5305-26.332 2.2652-4.3014 0.74686-17.97 4.0368-25.199 5.1724-0.0762 0.012-0.20662 0.0195-0.28125 0.0312-1.9087 0.38488-3.738 0.58453-5.5312 0.5937-10.659 0-19.281-6.101-19.281-13.625s8.6222-13.625 19.281-13.625c2.7421-0.083 5.0976 0.38905 7.5312 1.0626z"/>
    <g id="g5876" stroke-width="2.5" transform="matrix(1 0 0 -1 -42.378 1199.3)">
      <path id="path5872" style="color:#000000" d="m538.59 688.73c-4.3911 0-7.9375 6.7619-7.9375 15.156v25.531h19.188v-25.531c0-8.3944-3.5151-15.156-7.9062-15.156z" fill-rule="evenodd" stroke="#000080" fill="#000080"/>
      <path id="path5874" stroke-linejoin="round" d="m512.01 701.7c0 2.3021-1.8662 4.1683-4.1683 4.1683s-4.1683-1.8662-4.1683-4.1683 1.8662-4.1683 4.1683-4.1683 4.1683 1.8662 4.1683 4.1683z" transform="translate(32.304 -1.9946)" stroke="#ff0" fill="#ff0"/>
    </g>
    <g id="g5880" stroke-width="2.5" transform="matrix(1 0 0 -1 -19.452 1199.3)">
      <path id="path5882" style="color:#000000" d="m538.59 688.73c-4.3911 0-7.9375 6.7619-7.9375 15.156v25.531h19.188v-25.531c0-8.3944-3.5151-15.156-7.9062-15.156z" fill-rule="evenodd" stroke="#000080" fill="#000080"/>
      <path id="path5884" stroke-linejoin="round" d="m512.01 701.7c0 2.3021-1.8662 4.1683-4.1683 4.1683s-4.1683-1.8662-4.1683-4.1683 1.8662-4.1683 4.1683-4.1683 4.1683 1.8662 4.1683 4.1683z" transform="translate(32.304 -1.9946)" stroke="#ff0" fill="#ff0"/>
    </g>
    <g id="g5886" stroke-width="2.5" transform="matrix(1 0 0 -1 3.4736 1199.3)">
      <path id="path5888" style="color:#000000" d="m538.59 688.73c-4.3911 0-7.9375 6.7619-7.9375 15.156v25.531h19.188v-25.531c0-8.3944-3.5151-15.156-7.9062-15.156z" fill-rule="evenodd" stroke="#000080" fill="#000080"/>
      <path id="path5890" stroke-linejoin="round" d="m512.01 701.7c0 2.3021-1.8662 4.1683-4.1683 4.1683s-4.1683-1.8662-4.1683-4.1683 1.8662-4.1683 4.1683-4.1683 4.1683 1.8662 4.1683 4.1683z" transform="translate(32.304 -1.9946)" stroke="#ff0" fill="#ff0"/>
    </g>
    <g id="g5892" stroke-width="2.5" transform="matrix(1 0 0 -1 -307.76 1199.3)">
      <path id="path5894" style="color:#000000" d="m538.59 688.73c-4.3911 0-7.9375 6.7619-7.9375 15.156v25.531h19.188v-25.531c0-8.3944-3.5151-15.156-7.9062-15.156z" fill-rule="evenodd" stroke="#000080" fill="#000080"/>
      <path id="path5896" stroke-linejoin="round" d="m512.01 701.7c0 2.3021-1.8662 4.1683-4.1683 4.1683s-4.1683-1.8662-4.1683-4.1683 1.8662-4.1683 4.1683-4.1683 4.1683 1.8662 4.1683 4.1683z" transform="translate(32.304 -1.9946)" stroke="#ff0" fill="#ff0"/>
    </g>
    <g id="g5898" stroke-width="2.5" transform="matrix(1 0 0 -1 -284.83 1199.3)">
      <path id="path5900" style="color:#000000" d="m538.59 688.73c-4.3911 0-7.9375 6.7619-7.9375 15.156v25.531h19.188v-25.531c0-8.3944-3.5151-15.156-7.9062-15.156z" fill-rule="evenodd" stroke="#000080" fill="#000080"/>
      <path id="path5902" stroke-linejoin="round" d="m512.01 701.7c0 2.3021-1.8662 4.1683-4.1683 4.1683s-4.1683-1.8662-4.1683-4.1683 1.8662-4.1683 4.1683-4.1683 4.1683 1.8662 4.1683 4.1683z" transform="translate(32.304 -1.9946)" stroke="#ff0" fill="#ff0"/>
    </g>
    <g id="g5904" stroke-width="2.5" transform="matrix(1 0 0 -1 -261.91 1199.3)">
      <path id="path5906" style="color:#000000" d="m538.59 688.73c-4.3911 0-7.9375 6.7619-7.9375 15.156v25.531h19.188v-25.531c0-8.3944-3.5151-15.156-7.9062-15.156z" fill-rule="evenodd" stroke="#000080" fill="#000080"/>
      <path id="path5908" stroke-linejoin="round" d="m512.01 701.7c0 2.3021-1.8662 4.1683-4.1683 4.1683s-4.1683-1.8662-4.1683-4.1683 1.8662-4.1683 4.1683-4.1683 4.1683 1.8662 4.1683 4.1683z" transform="translate(32.304 -1.9946)" stroke="#ff0" fill="#ff0"/>
    </g>
    <rect id="rect5910" style="color:#000000" fill-rule="evenodd" ry="4.863" height="12.505" width="69.472" stroke="#000" y="457.68" x="220.23" stroke-width="2.5" fill="#000080"/>
    <rect id="rect5912" style="color:#000000" fill-rule="evenodd" ry="4.863" height="12.505" width="69.472" stroke="#000" y="457.4" x="486.17" stroke-width="2.5" fill="#000080"/>
    <path id="path5920" fill="#000080" d="m551.5 471.39 0.3982 25.485s5.973 4.7784 6.7694 10.353c0.79639 5.5748 2.3892-26.679 2.3892-26.679l-7.5657-8.7603"/>
    <path id="path5922" fill="#000080" d="m491.77 471.79-0.3982 25.485s-5.973 4.7784-6.7694 10.353c-0.79639 5.5748-2.3892-26.679-2.3892-26.679l7.5657-8.7603"/>
    <rect id="rect5924" style="color:#000000" rx="15.152" ry="15.152" height="64.65" width="77.782" stroke="#000" y="469.5" x="482.85" stroke-width="2.5" fill="none"/>
    <g id="g5932" transform="translate(-265.6)">
      <path id="path5926" fill="#000080" d="m551.5 471.39 0.3982 25.485s5.973 4.7784 6.7694 10.353c0.79639 5.5748 2.3892-26.679 2.3892-26.679l-7.5657-8.7603"/>
      <path id="path5928" fill="#000080" d="m491.77 471.79-0.3982 25.485s-5.973 4.7784-6.7694 10.353c-0.79639 5.5748-2.3892-26.679-2.3892-26.679l7.5657-8.7603"/>
      <rect id="rect5930" style="color:#000000" rx="15.152" ry="15.152" height="64.65" width="77.782" stroke="#000" y="469.5" x="482.85" stroke-width="2.5" fill="none"/>
    </g>
    <path id="rect5247" style="color:#000000" d="m278.07 281.05v329.57h-43.607v-247.18c0.78462-60.376 16.837-63.2 43.607-82.393z" fill-rule="evenodd" stroke="#000" stroke-width="2.5" fill="#666"/>
    <path id="path5937" d="m342.87 1048.4c-24.882 0-45.297 19.168-47.264 43.543h94.491c-1.9675-24.376-22.345-43.543-47.227-43.543z"/>
    <path id="path5941" d="m439.23 1048.4c-24.882 0-45.297 19.168-47.264 43.543h94.491c-1.9675-24.376-22.345-43.543-47.227-43.543z"/>
    <path id="path5945" stroke="#ff0" stroke-width="6.25" fill="#ff0" d="m295.27 728.93 187.17-0.4467"/>
    <path id="rect5308" style="color:#000000" d="m378.03 355.47h20.687l2 58.829h-24.687z" fill-rule="evenodd" stroke="#000" stroke-width="2.5" fill="#fff"/>
    <path id="path5947" opacity=".59615" stroke-linejoin="round" d="m195.65 222.66a5.8071 6.7005 0 1 1 -11.614 0 5.8071 6.7005 0 1 1 11.614 0z" transform="matrix(1.6968 0 0 1 66.081 184.59)" filter="url(#filter5973)" stroke="#f00" stroke-width="6.25" fill="#f00"/>
    <path id="path5949" opacity=".59615" stroke-linejoin="round" d="m195.65 222.66a5.8071 6.7005 0 1 1 -11.614 0 5.8071 6.7005 0 1 1 11.614 0z" transform="matrix(1.6968 0 0 1 8.903 181.01)" filter="url(#filter5953)" stroke="#f00" stroke-width="6.25" fill="#f00"/>
    <path id="path5951" opacity=".59615" stroke-linejoin="round" d="m195.65 222.66a5.8071 6.7005 0 1 1 -11.614 0 5.8071 6.7005 0 1 1 11.614 0z" transform="matrix(1.6968 0 0 1 124.15 181.01)" filter="url(#filter5957)" stroke="#f00" stroke-width="6.25" fill="#f00"/>
  </g>
  <metadata>
    <rdf:RDF>
      <cc:Work>
        <dc:format>image/svg+xml</dc:format>
        <dc:type rdf:resource="http://purl.org/dc/dcmitype/StillImage"/>
        <cc:license rdf:resource="http://creativecommons.org/licenses/publicdomain/"/>
        <dc:publisher>
          <cc:Agent rdf:about="http://openclipart.org/">
            <dc:title>Openclipart</dc:title>
          </cc:Agent>
        </dc:publisher>
      </cc:Work>
      <cc:License rdf:about="http://creativecommons.org/licenses/publicdomain/">
        <cc:permits rdf:resource="http://creativecommons.org/ns#Reproduction"/>
        <cc:permits rdf:resource="http://creativecommons.org/ns#Distribution"/>
        <cc:permits rdf:resource="http://creativecommons.org/ns#DerivativeWorks"/>
      </cc:License>
    </rdf:RDF>
  </metadata>
</svg>
