<?xml version="1.0"?>
<svg xmlns:rdf="http://www.w3.org/1999/02/22-rdf-syntax-ns#" xmlns="http://www.w3.org/2000/svg" xmlns:cc="http://web.resource.org/cc/" xmlns:xlink="http://www.w3.org/1999/xlink" xmlns:dc="http://purl.org/dc/elements/1.1/" id="svg2" viewBox="0 0 744.09 1052.4">
  <defs id="defs4">
    <linearGradient id="linearGradient3833" x1="630.85" gradientUnits="userSpaceOnUse" y1="455.88" gradientTransform="matrix(3.7435 0 0 3.7435 -2040 -1505.4)" x2="667.77" y2="455.88">
      <stop id="stop3829" stop-color="#ff0" offset="0"/>
      <stop id="stop3831" stop-color="#ff0" stop-opacity="0" offset="1"/>
    </linearGradient>
    <radialGradient id="radialGradient7580" gradientUnits="userSpaceOnUse" cy="445.95" cx="652.86" gradientTransform="matrix(1 0 0 .85523 0 64.56)" r="46.78">
      <stop id="stop7572" stop-color="#fd5" offset="0"/>
      <stop id="stop7574" stop-color="#fd5" stop-opacity="0" offset="1"/>
    </radialGradient>
  </defs>
  <g id="layer1">
    <path id="path6683" d="m616.98 471.6a46.786 40 0 1 1 1 0.99" fill-rule="evenodd" transform="matrix(4.9193 0 0 4.7255 -2810.4 -1904)" stroke-width="0" fill="url(#radialGradient7580)"/>
    <path id="path2928" stroke-linejoin="round" d="m450.65 959.63l11.34-605.05s105.89-37.82-15.12-41.6-143.7-3.78-143.7-3.78 2.35 11.93 6.13 19.5c3.78 7.56 13.99 10.04 13.99 10.04l17.69 4.49v608.83l109.67 7.57z" stroke-opacity=".9875" fill-rule="evenodd" stroke="#000" stroke-width="3.7435px" fill="#fff"/>
    <path id="path2932" stroke="#000" stroke-width="3.7435px" fill="none" d="m400.56 311.13c5.89-14.75 5.81-29.71 0.72-50.08"/>
    <path id="path2930" stroke="#000" stroke-width="3.6369px" fill="none" d="m461.8 354.04c-21.41 88.89-4.29 186.43-18.56 103.18-14.26-83.26-3.56-121.1-14.26-83.26-10.7 37.85-3.57 90.82-14.27 37.85-10.7-52.98 1.43-85.51-9.27-43.89-10.7 41.63-10.37 101.88-26.9 28.99-11.06-48.78 39.24-49.19-7.13-52.97-46.37-3.79-31.6-0.25-31.6-0.25l-14.5-4.63"/>
    <path id="path2936" d="m366.03 296.64c1.09 5.49 20.74 15.74 44.24 13.7 23.55-2.05 42.87-12.64 45.59-31.69 6.52-45.62-1.11-82.36-34.04-105.88-29.88-21.35-18.9-4.83-18.9-45.38 0-36.246 18.44-56.253-15.13-22.69-19.62 19.62-38.42 33.65-49.16 60.51-13.98 34.96-15.13 53.78-15.13 94.54 0 16.62 18.41 17.36 29.46 20.12 8.06 2.02 11.97 11.27 13.07 16.77z" fill-rule="evenodd" stroke="#000" stroke-width="3.7435px" fill="url(#linearGradient3833)"/>
    <path id="path5632" stroke-width="0" fill-rule="evenodd" fill="#17280b" d="m453.11 933.63c2.32-0.69 2.96 0.97 4.61 2.15 5.21 5.05 8.98 11.26 13.29 17.06 4.29 6.77 5.19 14.6 6.08 22.35 0.06 3.66 1 7.23 1.78 10.79l-20.72 11.96c-0.4-3.66-0.72-7.36-1.43-10.98-2.42-7.12-6.12-13.65-9.27-20.52-2.88-6.61-6.86-12.76-8.18-20-0.9-1.12-0.51-3.45-2.65-3.28l16.49-9.53z"/>
    <path id="path5634" stroke-width="0" fill-rule="evenodd" fill="#17280b" d="m461.72 936.32c5.33-0.68 9.17 1.41 13.65 3.94 14.12 8.98 23.71 22.3 32.65 36.1 5.42 8.96 8.45 18.89 10.92 28.94 2.36 6.3 3.65 12.8 4.88 19.3l-21.65 12.5c-2.22-6.3-3.92-12.6-4.93-19.3-4.06-9.7-11.57-16.5-19.09-24.2-10.02-12.73-18.07-25.98-24.27-40.93-2.88-3.03-5.09-5.51-9.18-6.53l17.02-9.82z"/>
    <path id="path5636" stroke-width="0" fill-rule="evenodd" fill="#17280b" d="m459.8 918.93c6.61-1.6 13.2-1.47 19.86-0.39 10.32 2.1 18.43 8.69 26.83 14.57 14.88 6.48 28.93 14.03 41.44 24.41 9.56 9.46 15.25 21.19 18.42 34.07l0.21 3.72-21.44 12.39c-0.51-1-1.01-2-1.52-3-6.35-11.57-16.66-20.44-25.79-29.79-11.18-9.81-23.24-18.6-34.37-28.49-8.98-4.97-17.71-10.48-27.26-14.33-4.25-1.35-8.81-1.94-12.88-3.64l16.5-9.52z"/>
    <path id="path5638" stroke-width="0" fill-rule="evenodd" fill="#17280b" d="m473.73 913.44c12.81-1.69 25.59-3.62 38.37-5.6 25.27-3.83 50.69-5.95 76.23-6 10.59 0 20.79-1.55 30.9 2.21 4.15 1.17 6.74 3.84 9.66 6.6l-18.67 10.78c-4.56-1.73-9.07-3.63-14.1-4.04-12.83-2.24-25.38-1.49-38.03 1.9-25.91 4.7-52.21 8.43-78.61 7.39-7.65-0.44-15.44-0.98-22.73-3.44l16.98-9.8z"/>
    <path id="path5640" stroke-width="0" fill-rule="evenodd" fill="#17280b" d="m456.53 907.04c17.2-6.73 33.95-14.42 50.34-22.92 27.52-14.36 57.06-23.73 87.48-29.4 15.08-3.63 26.65 0.25 38.07 9.53 4.08 3.86 5.58 8.28 6.35 13.62 0.02 0.62 0.04 1.24 0.05 1.85l-18.95 10.94c-0.09-0.57-0.19-1.14-0.29-1.71-2.18-5.45-3.85-9.26-9.94-11.54-16.84-6.95-34.71-6.08-52.15-1.41-28.09 7.19-56.43 14.45-82.81 26.71-11.67 5.98-23.56 12.52-36.56 14.96l18.41-10.63z"/>
    <path id="path5642" stroke-width="0" fill-rule="evenodd" fill="#112b00" d="m538.39 902.09c-4.99 2.09-10.1 3.84-15.3 5.31-19.48 5.13-39.68 6.16-59.68 7.49-13.43 1.24-26.97 1.19-40.16 4.07-4.89-4.25 13.64-8.66 19.73-6.58 7.74-0.17 15.42-0.6 23.17-0.4 9.41 1.73 14.06 7.51 17.49 15.99 2.92 7.44 2.96 15.39 3.65 23.23 0.35 5.87-0.15 11.7-0.72 17.53-8.65 20.57-26.93 16.52-40.27 5.38-16.62-19.48-20.33-44.78-25.69-68.92-4.26-19.86-16.43-10.42 10.28-23.76-3.97 9.09-6.11 18.5-7.3 28.3-1.72 10.88-0.85 21.91-2.49 32.77-0.9 8.82-5.06 15.51-10.53 22.03-67.53 41.57-11.01-2.28-18.63 12.8-4.75 11.8-9.78 23.57-14.83 35.17-33.11 22.6-4.57-3.5 5.01-12.2 15.79-14.72 33.62-26.64 52.03-37.72 60.01-39.41 49.69-22.01 16.15-12.9-6.63 2.04-13.39 3.46-20.23 4.56-14.24-0.44-23.71-9.76-31.26-20.97-5.66-9.2-8.13-18.57-7.8-29.13-2.41-8.63-21.24 0.72-28.24 2.69-13.58 2.7-25.84 9.04-38.49 14.36 7.34-4.22-31.03 13.44-23.57 9.44 21.64-11.61 25.66-16.18 16.65-7.38-5.09 6.05-9.04 12.68-11.03 20.09 1 4.46 3.05 8.6 4.89 12.71 3.03 2.41 6.84 2.17 10.6 2.22 6.65 0.46 12.14-3.26 18.01-6 15.8-9.33 34.69-11.63 50.74-20.03-42.8 28.82-7.82-1.9 0.14-13.82-25.59 5.91-50.19 14.72-73.64 26.46-15.65 7.97-30.39 17.55-46.41 24.8-7.16 4.15-14.73 6.63-19.09 4.85 0.31-9.08 6.22-17.27 11.28-24.74 12.01-12.66 28.71-20.54 45.73-24.12 17.46-3.37 35.2-2.85 52.85-2.05 10 0.54 35.37 2.15-11.43 9.79-9.98 1.63-19.5-5.35-29.22-8.14-32.33-4.43-62.47-18.11-94.12-24.95-14.26-0.83-28.9-1.47-42.97 1.5-6.68 1.67-13.03 4.35-19.17 7.39 16.02-11.75 25.38-8.94 45.13-10.1 20.15-1.09 40.32-0.08 60.48-0.47 24.75-1.29 49.35-4.17 74.15-4.62 10.5 0.38 17.72 3.68 22.48 11.38-12.67 10.21-20.89 13.62-34.86 13.23-7.85-1.28-15.67-3.01-23.58-4.22-6.75-1.56-13.64-2.19-20.45-3.42-14.28-0.3-28.68 0.97-42.88 2.58-14.48-1.08-55.47 20.25-12.46-2.66-4.45 4.97-8.06 9.29-4.6 14.97 9.29 2.51 19.25 1.57 28.79 1.21 13.37 1.07 26-2.45 38.95-4.97 12.34-2.73 25.52-2.37 37.71-3.43-20.84 15.17-37.9 7.15-60.38 7.79-22.01 9.1 19.94-24.68 3.37-0.26-2.32 6.94-3.91 14.33-3.97 21.5 19.37-7.09 38.29-15.48 57.96-21.97 23.34-7.73 42.34-21.99 67.09-25.39 14.39 0.27 30.58 4.26 33.59 20.17 0.26 6.7-2.65 9.87-7.56 13.63-19.76 13.3-41.61 21.44-63.63 29.91-3.14 1.32-12.27 5.86-9.44 3.95 48.33-32.67-1.72 21.04-12.23 35.68-13.04 20.9-29.46 33.3-49.38 43.2 3.55-10.3 11.12-18.8 18.38-26.8 19.45-17.8 42.87-30.37 65.11-44.23 9.22-6.72 18.55-17.42 2.44-19.98-27.94 2.19-55.65 6.99-83.67 8.79 2.06-2.86-33.56 6.51-33.35 6.39 23.81-13.87 25.3-18.63 18.16-6.3-3.77 12.03-12.44 29.12 6.09 28.9 16.85-1.99 32.87-7.95 49.2-12.31-7.28 8.86-21.97 8.27-39.76 10.24-31.36 3.9-62.93 4.51-94.46 3.25-16.78-0.73-33.51 1-50.28 0.86 1.32-7.03 12.07-8.87 30.93-20.47 6.55-4.02-13.3 7.67-20.1 11.25-2.53 1.34 4.87-3 7.3-4.5 30.55-19 62.03-36.3 95.78-48.76 11.35-4.34 23.4-5.57 35.42-6.42 15.48-1.5 30.95-3.05 46.43-4.46 19.53-1.02 38.91-3.52 58.37-5.35 18.75-1.49 37.25 2.53 55.95 1.71 15.03-4.01 30.32-7.13 45.33-11.24 8.55-2.66 17.19-4.97 25.43-8.36 35.81-22.92-31.55 24.94 6.43-4.51 4.59-4.47 11.36-8.16 5.25-13.15-4.19-2.08-8.7-3.1-13.2-4.17-5.48-0.75-10.37 2.13-15.14 4.58-14.96 6.5-30.61 11.19-45.26 18.36 7.17-4.09 14.18-8.51 21.53-12.29 4.19-2.16-7.52 5.73-11.59 8.1-8.43 4.73-16.85 9.46-25.27 14.19-0.17-0.63-0.12-1.28-0.18-1.91 0.79-4.66 4.54-7.71 7.8-10.88 12.68-8.06 25.83-15.24 39.3-21.84-3.71 2.23 15.67-7.31 11.92-5.13-6.05 3.41-12.09 6.83-18.14 10.24 0.75-0.63 1.5-1.27 2.26-1.91 4.07-4.35 8.42-8.37 12.9-12.3 5.63-6.16-6.53 0.67-8.73 1.63-13.46 5.36-27.28 9.71-41.01 14.3-19.44 4.84-38.09 13.61-58.07 16.17-5.36 0.22 9.7-4.66 14.8-6.34 4.67 4.46 9.89 0.98 15.61-0.81 7.31-2.06 14.22-5.19 21.25-7.99 7.73-3.08 15.65-5.6 23.47-8.43 6.41-2.75 13.11-4.02 19.95-5.05 15-4.49-10.83 20.41-11.61 2.77-1.3-5.32-3.98-9.84-5.66-15.06-0.41-5-1.93-9.05-4.41-13.05 26.48-20.7 16.81-11.85 10.19-0.66-2.4 3.15-5.31 6.34-8.13 9.05-1.23 2.61-3.4 4.47-5.3 6.53-6.09 3.87-11.87 8.06-17.32 12.77 0.07 3.6-2.65 3.14 3.33 2.44 28.9-15.23-22.52 14.75-0.22 0.69 13.02-7.99-9.12 5.56 27.49-15.98 6.07-3.57-24.5 13.92-18.33 10.51 24.45-13.55 16.28-18.07 25.99-8.87 3.08 6.11 2.98 12.9 3.18 19.57 2.81 11.66-1.14 21.02-9.31 29.47l-26.29 15.18c7.66-9.57 14.45-19.98 14.72-32.6-0.59-6.56-1.41-13.13-3.29-19.5-3.75-5.97 21.23-18.29 15.07-14.84-7.62 4.26-15.15 8.7-22.66 13.16-5.25 3.11 28.44-16.73 15.91-9.07-13.33 8.24-26.43 17.29-40.99 23.1-1.66-0.59-3.86 0.72-3.82-2.16 4.82-4.71 10.16-8.79 16.19-12.13 2.94-2.49 5.96-4.85 8.1-8.14 1.73-3.75 0.15-1.13 2.74-5.93 7.82-10.8 17.15-20.14 31.08-23.17 4 3 6.86 5.64 7.69 11.16 1.09 5.48 1.18 11.09 3.94 16.05 0.69 14.55-16.88 19.54-29.88 21.18-7.12 1.03-14.08 2.34-20.65 5.46-7.91 2.93-15.94 5.55-23.8 8.62-7 2.67-13.9 5.63-21.05 7.87-4.92 0.87-8.33 2.55-12.08-1.23 3.57-3.01 18.33-18.24 30.08-19.56 21.49-7.42 43.05-14.77 65.13-20.25 9.7-2.21 19.77-3.55 28.99-7.36 2.96-1.21 6.26-3.81 7.46-0.9-3.89 4.02-8.34 7.65-12.14 11.86-12.21 7.45-24.17 16-37.82 20.92-26.51 12.91 13.18-7.13 3.01-2.59-4.2 3.82-8.22 7.76-11.11 12.79-32.57 23.5-8.66 4.28 26.14-14.22 12.46-6.19 25.49-10.71 38.82-14.64 4.08-1.71 7.79-3.59 12.35-2.98 4.84 0.45 9.68 0.85 13.69 3.9 3.09 4.87 3.41 6.24-1.31 10.87-15.4 12.87-34.18 21.56-51.89 30.75-9.59 4.23-19.53 7.43-29.5 10.71-14.92 4.97-30.07 9.09-45.65 11.43-22.28 3.24-44.73 5.36-67.28 4.83-16.27-1.75-32.19-3.92-48.45-0.38-14.9 1.85-29.9 3.06-44.9 3.58-14.09 0.27-27.37 2.69-40.13 9.14-14.24 6.05-75.49 39.33-22.3 6.22 3.55-2.21-7.21 4.24-10.82 6.36-48.99 29.65-55.98 29.78-23.64 16.91 19.89-2.73 39.87-4.72 59.87-6.4 29.5-2.92 59.63-5.49 88.99-0.09 24.74 7.93-0.66 12.63-16.43 22.2-15.56 6.24-32.15 12.44-49.08 12.24-15.3-4.4-13.39-15.28-7.19-28.27 16.88-24.02 53.39-33.77 81.11-38.14 21.89-2.21 46.04-6.06 67.38 0.61 6.28 3.75 12.79 8.11 5.67 15.3-21.37 14.01-44.04 26.28-63.37 43.2-11.7 10.7-22.66 21.9-32.07 34.8-27.66 18-22.82 14.3-11.73-8 24.68-36.54 50.72-67.27 94.89-81.89 9.91-3.44 53.73-20.52 11.05 0.44 5.66-3.98 9.28-5.92 6.91-13.25-13.82-11.4-30.07-13.6-48.08-11.81-23.24 3.47-42.06 15.29-63.8 23.49-14.3 5.13-28.93 11.53-43.89 13.84-4.51-5.57-2.29-12.64 1.56-20.11 9.41-15.14 27.13-23.54 44.37-27.29 17.01-1.84 53.67-0.12 12.61 19.79-12.76 7.36-29.47 3.73-43.58 6.82-12.25 1.69-24.45 4.49-36.89 3.77-7.74-0.63-15.98-0.51-22.78-4.67-3.59-4.95-2.24-8.1 1.37-13.11 21.34-13.04 40.27-25.74 65.64-28.04 11.24-0.5 22.04 0.5 32.96 3.14 7.63 0.28 15.2 0.83 22.74 2.1 7.41 1.24 14.3 3.84 21.62 5.36 14.52 0.17 17.23-2.15-4.27 9.35-12.59-2.64-25.46-3.22-38.3-2.24-23.77 2.09-47.59 3.49-71.46 3.07-19.28-0.38-38.59 0.8-57.82-1.07-19.85-3.06-25.08-5.24 4.14-18.35 7.4-3.79 15.02-7.03 22.96-9.58 16.85-4.76 34.15-7.37 51.72-6.54 34.21 0.64 70.17 2.38 99.59 21.79 22.77 22.68-2.01 35.69-25.61 36.6-16.84 0.74-33.67 1.71-50.51 0.7-25.31 0.93 24.21-18.78 1.54-3.17-4.05 8.98-8.07 18.04-13.76 26.17 4.99-0.67 19.94-4.36 27.77-9.86 18.4-8.68 35.6-19.54 53.61-28.96 17.76-8.97 38.26-20.36 58.1-17.49 4.21 13.43-35.9 35.08-47.64 41.24-14.93 7.96-31.64 11.57-47.25 18.03-4.35 1.58-8.43 3.56-13.18 3.21-3.53-0.38-6.99-0.34-9.98-2.58-2.98-3.66-5.53-6.96-6.19-11.96 0.53-6.81 2.86-12.73 7.52-18.06 16.13-16.03 38.8-24.18 59.54-32.45 12.12-4.7 24.06-9.9 36.64-13.28 7.36-2.01 16.56-5.72 21.95 0.93 3.35 9.33 7.39 18.23 15 24.97 7.44 8.3 13.43 22.11 23.67 25.37 7.44-1.57 14.66-3.89 22.07-5.63 26.14 2.24-63.32 40.3-0.21 3.64 2.17-1.27-4.33 2.54-6.49 3.81-18.87 11.43-36.94 24.05-53.58 38.58-17.2 15.37-32.77 31.58-54.6 40.88-4.16-10.1 1.41-21.6 7.44-30.92 18.2-21.97 56.46-31.93 23.48-15.61 5.42-6.38 8.58-12.02 8.43-20.81 0.26-10.76 1.08-21.52 1.62-32.27 1.69-10.93 4.22-21.88 11.37-30.65 20.6-13.24 23.04-20.64 38.51-4.42 15.66 19.19 25.87 41.86 30.31 66.26 2.32 20.86 7.85 14.09-13.83 29.18-0.13 0.08 4.43-4.08 2.05-4.5-0.6-5.44-1.05-10.88-1.36-16.34-0.79-7.67-2.7-15.06-4.94-22.48-3.72-7.84-7.59-15.44-16.93-16.32-6.67 0.26-13.33 0.28-19.82-1.53-10.91-8.59 12.6-10.78 21.37-17.14 16.36-6.84 34.14-9.52 51.73-10.76 16.02-0.73 32.02-0.16 47.99-0.74 3.52-0.71 7.05-1.35 10.47-2.52l-17.25 9.96z"/>
    <path id="path5644" stroke-width="0" fill-rule="evenodd" fill="#112b00" d="m403.37 915.29c29.76-22.67 13.02-0.74 6.33 8.47-2.75 3.74-5.72 7.32-8.7 10.88l-21.63 12.48c2.02-3.1 4.07-6.19 6.03-9.33 9.75-14.62 17.95-25.08 35.19-32.44l-17.22 9.94z"/>
    <path id="path5646" stroke-width="0" fill-rule="evenodd" fill="#250" d="m403.62 894.24c-7.67 18.42-26.57 30.35-42.22 41.81-15.05 10.02-7.69 5.26-22.05 14.31l-32.09 18.52c10.43-6.8 4.91-3.11 16.53-11.12 21.4-16.16 42.18-33.23 60.83-52.55l19-10.97z"/>
    <path id="path5648" stroke-width="0" fill-rule="evenodd" fill="#250" d="m481.84 917.01c9.1 7.5 12.46 18.75 17.15 29.12 3.07 5.35 5.05 11.17 6.97 17l-25.19 14.55c-2.27-5.69-4.79-11.25-7.19-16.88-5.75-10.37-10.66-20.75-10.6-32.9l18.86-10.89z"/>
    <path id="path5650" stroke-width="0" fill-rule="evenodd" fill="#250" d="m458.46 870.8c3.28-1.16 5.48-0.01 8.49 0.86 9.03 7 12.07 18.31 15.09 28.9 2.23 12.05 5.43 24.02 7.05 36.16l-24.71 14.27c-3.01-11.65-5-23.58-9.13-34.96-2.83-11.05-4.78-22.27-7.44-33.32-1.91-1-3.33-2.44-5.84-2.39l16.49-9.52z"/>
    <path id="path5652" stroke-width="0" fill-rule="evenodd" fill="#250" d="m445.9 893.07c0.2 14.58-8.34 28.73-14.88 41.56-6.65 13.8-14.81 26.85-20.08 41.26l-21.91 12.66c1.09-11.94 3.17-23.65 8.49-34.58 8.42-17.8 19.16-33.88 29.95-50.26l18.43-10.64z"/>
    <path id="path5654" stroke-width="0" fill-rule="evenodd" fill="#250" d="m447.77 902.88c11.48 8.92 17.62 23.5 22.68 36.76 4.09 10.45 4.77 21.1 4.05 32.04l-21.37 12.34c-4.34-8.94-9.44-17.44-14.66-25.92-6.96-14.53-11.68-29.64-7.2-45.69l16.5-9.53z"/>
    <path id="path5656" stroke-width="0" fill-rule="evenodd" fill="#250" d="m442.71 887.45c-0.44 5.33-3.81 10.02-6.26 14.7-10.21 15.2-25.68 26.28-40.5 36.72-16.12 10.44-3.92 2.71-37.49 21.73l25.79-14.89c-21.89 13.01-26.78 16.38-15.46 8.84 14.95-11.3 28.95-24.13 41.96-37.56 5.04-6.18 11.04-11.92 14.24-19.31l17.72-10.23z"/>
    <path id="path5658" stroke-width="0" fill-rule="evenodd" fill="#250" d="m392.11 922.11c-1.34-0.89-45.25 23.57-44.9 23.39 22.8-11.94 39.04-22.76 11.36-5.06-19.92 12.88-38.48 27.67-57.96 41.19l-29.32 16.93c14.64-11.29 28.81-23.23 44.33-33.32 30.35-19.32 60.62-40.52 94.19-53.34l-17.7 10.21z"/>
    <path id="path5660" stroke-width="0" fill-rule="evenodd" fill="#250" d="m399.34 960.92c39.24-24.63-9.34 8.97-16.51 14.14l-37.48 21.65c22.81-16.66 46.4-32.24 71.24-45.75l-17.25 9.96z"/>
    <path id="path5662" stroke-width="0" fill-rule="evenodd" fill="#250" d="m371.53 908.95c-3.46 8.96-9.23 17.01-14.74 24.86-5.38 7.82-11.84 14.63-18.93 20.87-12.96 10.12-27.8 17.42-42.05 25.43-3.74 1.5-7.74 2.23-11.65 3.1-3.44 1.26-6.75 2.85-10.11 4.29-1.73 0.9-3.58 0.86-5.45 1.17l19.54-11.28c1.43-0.22 3.3 0.65 4.65-0.7 3.51-1.56 6.96-3.28 10.58-4.57 4.54-1.09 9.12-2.09 13.37-4.09-2.52 1.52-25.99 16.34-1.83-0.1 7.08-5.43 12.29-12.54 17.27-19.92 6.52-9.54 11.99-19.92 20.35-28.09l19-10.97z"/>
    <path id="path5664" stroke-width="0" fill-rule="evenodd" fill="#250" d="m336.53 935.1c-13.81 8.79-28.41 17.12-43.67 23.57-13.34 2.75-62.12 31.13-12.88 3.24-2.26 1.4-4.53 2.8-6.8 4.2l-26.97 15.57c1.76-1.11 3.53-2.22 5.29-3.33 21.97-12.83 42.76-26.81 67.08-34.54 19.15-7.58 18.96-9.83 1.35 0.87l16.6-9.58z"/>
    <path id="path5666" stroke-width="0" fill-rule="evenodd" fill="#250" d="m309.78 970.11c-7.33 1.5-14.77 2.23-22.15 3.4-10.39 1.98-20.49 5.23-30.79 7.66l-1.95 0.3 20.95-12.1c1.33-0.49 2.67-0.99 4.01-1.49 10.11-3.05 20.25-6.49 30.79-7.65 5.43-0.44 11.03-1.58 16.36-0.06l-17.22 9.94z"/>
    <path id="path5668" stroke-width="0" fill-rule="evenodd" fill="#250" d="m336.52 950.05c-25.73 4.6-51.73 7.4-77.5 11.88-20.01 3.16-39.84 7.58-59.32 13.18l30.09-17.37c23.04-8.96 46.69-16.54 71.24-20.07 17.07-2.13 36.72-5.51 52.71 2.44l-17.22 9.94z"/>
    <path id="path5670" stroke-width="0" fill-rule="evenodd" fill="#250" d="m339.56 916.12c-15.93 0.67-31.87 0.89-47.82 1.56-15.12 0.41-30.23 1.42-45.36 1.18l28.2-16.29c16.11-1.64 32.29-2.87 48.49-2.98 10.85 0.28 25.05-0.4 33.62 6.64l-17.13 9.89z"/>
    <path id="path5672" stroke-width="0" fill-rule="evenodd" fill="#250" d="m300.42 905.93c-8.34 2.15-16.38 5.22-24.65 7.67-23.09 6.32-46.92 9.29-70.66 11.94l38.93-22.48c19.61-2.26 39.26-3.35 58.9-5.14 4.92-0.44 9.83-1.64 14.7-1.93l-17.22 9.94z"/>
    <path id="path5674" stroke-width="0" fill-rule="evenodd" fill="#250" d="m289.69 932.5c-24.47 16.74-52.46 22.96-81.29 26.92-8.12 0.72-16.21 1.7-24.36 2.1l24.42-14.09c10.82-2.16 21.66-4.29 32.42-6.76 10.81-2.27 72.62-17.72 31.35 1.91l17.46-10.08z"/>
    <path id="path5676" stroke-width="0" fill-rule="evenodd" fill="#250" d="m319.14 936.68c-16.92 7.62-33.81 15.27-51.12 21.97-16.42 5.81-33.07 10.87-49.73 15.93l33.06-19.09c17.63-6.71 35.45-12.87 53.57-18.15 10.44-3.56 20.81-7.73 31.44-10.6l-17.22 9.94z"/>
    <path id="path5678" stroke-width="0" fill-rule="evenodd" fill="#250" d="m305.15 936.32c-29.58 12.58-60.26 21.72-91.67 28.33-14.6 2.91-29.39 4.67-44.24 5.52l30.85-17.81c17.87-3.62 35.83-6.85 53.61-10.93 24.26-5.73 48.26-13.25 72.81-17.44l-21.36 12.33z"/>
    <path id="path5680" stroke-width="0" fill-rule="evenodd" fill="#250" d="m399.72 952.69c-0.61 7.36-5.46 14.25-8.9 20.84-5.37 7.15-9.57 15.94-17.31 20.77l-19.67 11.4c3.72-5.85 7.35-11.76 11.37-17.39 5.45-8.85 10.91-17.78 17.53-25.81l16.98-9.81z"/>
    <path id="path5682" stroke-width="0" fill-rule="evenodd" fill="#250" d="m368.97 913.92c4.71 13.42-2.38 29.03-7.06 41.78-1.83 3.79-3.66 7.59-5.48 11.38l-34.31 19.81c1.37-3.53 2.74-7.06 4.1-10.59 7.96-17.84 15.9-35.68 25.77-52.58l16.98-9.8z"/>
    <path id="path5684" stroke-width="0" fill-rule="evenodd" fill="#250" d="m366.77 939.68c2.66 6.59 2.08 13.82 1.5 20.75-0.09 5.68-0.64 11.29-1.38 16.91l-24.49 14.13c0.09-5.76 0.48-11.47 1.76-17.12 1.4-8.13 3-16.24 4.67-24.31l17.94-10.36z"/>
    <path id="path5686" stroke-width="0" fill-rule="evenodd" fill="#250" d="m388.94 952.35c6.6 7.57 5.2 16.83 3.16 26.14l-27.51 15.88c3.21-10.75 4.67-21.77 7.85-32.49l16.5-9.53z"/>
    <path id="path5688" stroke-width="0" fill-rule="evenodd" fill="#250" d="m394.87 906.58c9.14 7.08 9.55 20.89 9.78 31.53-1 12.49-0.48 26.41-7.02 37.51l-21.04 12.15c-2.93-9.75-3.5-20.97-3.01-31.72 0.41-13.3 2.27-26.69 4.27-39.64l17.02-9.83z"/>
    <path id="path5690" stroke-width="0" fill-rule="evenodd" fill="#250" d="m412.23 900.07c9.71 3.16 14.01 13.19 17.25 22.08 1.71 10.32 4.33 19.59 9 28.9 2.59 5.21 3.72 10.54 4.1 16.28l-23.19 13.39c-2.98-4.81-4.43-9.87-5.6-15.42-2.11-9.99-5.35-19.12-10.86-27.82-4.02-8.91-6.28-18.12-7.68-27.61l16.98-9.8z"/>
    <path id="path5692" stroke-width="0" fill-rule="evenodd" fill="#250" d="m459.6 881.37c14.76-0.05 29.46 1.25 44.03 3.56 10.82 1.83 21.11 5.15 30.59 10.66l-23.98 13.85c-12.43-3.07-24.85-6.1-37.73-6.55-11.03-1.87-21.6-4.12-30.4-11.43l17.49-10.09z"/>
    <path id="path5694" stroke-width="0" fill-rule="evenodd" fill="#250" d="m474.11 880.11c12.72-8.98 23.65-13.74 37.99-16.56 3.52-0.5 7.08-0.53 10.62-0.74l-21.54 12.44c-3.63 0.23-7.27 0.37-10.88 0.89-10.12 1.58-31.88 10.67 1.8-6.41l-17.99 10.38z"/>
    <path id="path5696" stroke-width="0" fill-rule="evenodd" fill="#250" d="m447.77 865.45c4.25-0.75 8.58-0.85 12.88-1.34 10.74-0.53 21.42-1.86 32.14-2.76 5.02-0.61 10.07-0.64 15.12-0.71l-21.13 12.2c-6.18 0.96-12.35 1.99-18.57 2.7-9.51 1.12-19.16 1.93-28.69 0.77-2.73-0.39-5.68-0.51-8.25-1.34l16.5-9.52z"/>
    <path id="path5698" stroke-width="0" fill-rule="evenodd" fill="#250" d="m465.15 850.74c2.21-0.07 4.27-0.7 6.41-1.14 7.01-1.87 14.14-3.28 21.22-4.86 3.94-0.87 7.71-2.28 11.5-3.61l-20.75 11.98c-4.01 1.41-7.98 2.98-12.13 3.98-6.07 1.64-12.08 3.19-18.44 3.24-1.41 0.01-2.93 0.62-4.31-0.06l16.5-9.53z"/>
    <path id="path5702" stroke-width="0" fill-rule="evenodd" fill="#250" d="m446.87 872.75c3.52 6.72 2.21 14.22 1.71 21.48-1 5.67-1.9 11.36-2.8 17.04l-21.87 12.63c0.31-5.37 0.63-10.73 1.14-16.08 0.97-8.33 1.56-16.83 4.12-24.85l17.7-10.22z"/>
    <path id="path5704" stroke-width="0" fill-rule="evenodd" fill="#250" d="m488.61 868.27c-39.27 22.8-1.43-0.12 12.8-6.54l-23.18 13.38c-24.57 10.61 64.75-36.2-8.02 3.79l18.4-10.63z"/>
    <path id="path5706" stroke-width="0" fill-rule="evenodd" fill="#250" d="m490.55 864.42c-7.27 2.08-14.43 4.66-21.74 6.75 2.19-2.76-13 5.41-9.92 3.68 6.23-3.45 12.47-6.91 18.71-10.36-0.8 0.71-1.6 1.43-2.4 2.15l-20.79 12c11.99-7.48 23.8-17.11 37.82-20.99 4.91-1.41 10.23-3.25 15.3-3.04l-16.98 9.81z"/>
    <path id="path5708" stroke-width="0" fill-rule="evenodd" fill="#250" d="m331.39 900.54c-4.77 5.8-11.6 9.91-17.77 14.2-13.25 8.54-57.73 33.27-13.81 8.28l-18.27 10.55c64.93-37.98-19.12 11.62 8.5-5.22 8.18-5.9 16.37-11.8 24.33-17.99l17.02-9.82z"/>
    <path id="path5710" stroke-width="0" fill-rule="evenodd" fill="#250" d="m374.31 913.92c-4.42 7.16-12.86 12.68-19.54 18.04-2.83 2.13-5.67 4.27-8.5 6.4l-32.28 18.63c2.84-2.13 5.67-4.26 8.5-6.39 11.79-8.64 23.99-17.14 34.85-26.88l16.97-9.8z"/>
    <path id="path5712" stroke-width="0" fill-rule="evenodd" fill="#250" d="m369.45 905.72c15.97-11.75 19.64-12.89 16.41 2.65-3.51 11-9.74 21.02-17.31 29.69-12.27 12.1-27.82 21.02-43.97 26.9-7.34 2.68-14.99 4.13-22.6 5.73-5.91 1.05-11.41 3.18-16.99 5.31-0.71-0.39-1.42-0.79-2.13-1.18l20.24-11.69c0.93 0.27 1.87 0.53 2.8 0.8 5.44-2.1 10.91-3.94 16.64-5.11 8.44-2.54 16.93-4.86 25.39-7.34 8.6-2.92-26.13 19.4-3.02 0.23 7.25-8.59 11.34-19.64 16.78-29.39 6.27-15.26 6.84-18.23 24.26-26.12l-16.5 9.52z"/>
    <path id="path5714" stroke-width="0" fill-rule="evenodd" fill="#250" d="m354.23 908.36c-1.21 11.58 35.35-16.47-19.39 15.02-20.34 6.75-41.79 8.26-62.98 10.12-2.44 0.17-4.87 0.34-7.3 0.5l29.21-16.86c3.25-0.64 6.5-1.28 9.75-1.92 16.7-2.73 33.76-5.93 50.59-2.97-17.69 10.26-16.81 15.47-16.48 5.7l16.6-9.59z"/>
    <path id="path5716" stroke-width="0" fill-rule="evenodd" fill="#250" d="m243.19 915.39c-7.96 2.29-16.35 2.64-24.58 3.08-1.61-0.01-3.22-0.02-4.83-0.04l23.78-13.72c1.72-0.06 3.45-0.11 5.17-0.17 5.82 0.14 11.73 0.14 17.48 1.03l-17.02 9.82z"/>
    <path id="path5718" stroke-width="0" fill-rule="evenodd" fill="#250" d="m313.23 899.39c-6.66 1.42-13.43 1.13-20.18 0.97-5.51 0.1-10.99 0.52-16.51 0.45l22.63-13.06c5-0.07 9.95 0.32 14.95 0.44 5.61-0.12 11.41-0.81 16.81 0.98l-17.7 10.22z"/>
    <path id="path5720" stroke-width="0" fill-rule="evenodd" fill="#250" d="m314.07 895.17c-3.2 0.54-6.44 0.49-9.67 0.56-1.97-0.1-3.9-0.44-5.85-0.65l19.31-11.16c1.82 0.3 3.59 0.93 5.46 0.88 2.58 0.06 5.2-0.1 7.73 0.56l-16.98 9.81z"/>
    <path id="path5722" stroke-width="0" fill-rule="evenodd" fill="#250" d="m326.4 891.53c2.22-6.78 2.36-8.35-2.78-12.71-9.9-3.24-19.77-5.92-29.27-10.28l29-16.74c8.07 3.75 15.68 7.91 21.69 14.65 3.17 5.55 3.84 8.69-0.01 14.33l-18.63 10.75z"/>
    <path id="path5724" stroke-width="0" fill-rule="evenodd" fill="#250" d="m295.02 886.93c-18.95 3.81-37.72 3.08-56.67 0.13l35.6-20.56c12.76 1.97 27.86 2.61 38.4 10.42l-17.33 10.01z"/>
    <path id="path5726" stroke-width="0" fill-rule="evenodd" fill="#250" d="m324.49 881.62c-9.11 7.2-14.95 9.69-24.29 12.02-5.38 1.19-10.84 1.2-16.32 1.08-6.17 0.72-11.82-0.64-17.63-2.31l21.55-12.45c5.34 1.2 10.7 2.97 16.16 3.16 4.98-0.23 9.95-0.33 14.93-0.27 14.01-2.79-10 4.24-10.99 8.36l16.59-9.59z"/>
    <path id="path5728" stroke-width="0" fill-rule="evenodd" fill="#250" d="m315.13 900.58c-4.69 0.63-9.43 0.67-14.15 1.06-5.04 0.47-10.07 0.33-15.12 0.19l21.53-12.43c4.83-0.12 9.65-0.34 14.48 0.18 3.49 0.41 7.08 0.35 10.48 1.06l-17.22 9.94z"/>
    <path id="path5730" stroke-width="0" fill-rule="evenodd" fill="#112b00" d="m383.43 889.67c1.23 1.93 0.89 4.44 0.96 6.68 2.36 7.07 0.42 14.16-1.44 21.1-1.23 6.14-2.57 12.24-4.33 18.25l-19.86 11.46c0.97-5.63 1.6-11.17 1.96-16.88 1.12-7.93 2.86-15.64 5.25-23.29 0.09-2.62-0.13-5.34 0.96-7.79l16.5-9.53z"/>
    <path id="path5734" stroke-width="0" fill-rule="evenodd" fill="#112b00" d="m442.26 905.72c0.47 1.63 1.67 2.79 2.6 4.19 3.44 6.63 5.18 13.93 7.8 20.89 2.78 10.89 3.72 22.1 5.92 33.1 0.19 1.48 0.37 2.97 0.55 4.46l-22.81 13.17c-0.43-1.34-0.86-2.69-1.28-4.04-2.66-10.75-6.85-21.15-7.18-32.37 0.01-8.2-1.79-16.13-1.87-24.32-0.24-1.86-0.48-3.78-0.23-5.56l16.5-9.52z"/>
    <path id="path5736" stroke-width="0" fill-rule="evenodd" fill="#112b00" d="m460.36 867.98c11.57-1.93 18.92 10.48 24.81 18.48 6.01 9.26 9.41 18.95 11.26 29.69l-29.02 16.75c-6.79-8.26-12.27-16.92-15.29-27.36-1.8-8.36-0.87-23.12-8.74-27.75l16.98-9.81z"/>
    <path id="path5738" stroke-width="0" fill-rule="evenodd" fill="#112b00" d="m452.82 891.92c2.78 15.85-7.59 30.84-15.75 43.9-11.89 21.65-23.77 26.29-46.76 39.28l23.65-13.65c-38.51 22.91-14.99 9.1-8.74-7.24 9.74-17.02 19.09-34.29 28.7-51.38l18.9-10.91z"/>
    <path id="path5740" stroke-width="0" fill-rule="evenodd" fill="#112b00" d="m389.93 914.47c-27.78 9.93-57.49 11.4-86.65 13.32-4.33 0.3-8.67 0.6-13 0.91l37.78-21.81c5.14-0.77 10.28-1.54 15.42-2.31 21.49-1.57 43.5-4.17 64.88-0.76l-18.43 10.65z"/>
    <path id="path5742" stroke-width="0" fill-rule="evenodd" fill="#112b00" d="m353.9 908.61c-20.26 7.76-42.01 10.61-63.54 11.83-14.11-0.61-47.38 19.81-1.91-5.32l-26.81 15.48c20.81-12.36 38.89-26.36 62.97-29.93 15.35-1.79 31.09-3.96 46.51-2.01l-17.22 9.95z"/>
    <path id="path5744" stroke-width="0" fill-rule="evenodd" fill="#112b00" d="m303.2 875.49c-15.25 11.73-32.34 20.49-50.88 25.15-7.12 1.77-14.43 2.07-21.72 2.49-3.31 0.32-6.62 0.04-9.92-0.06l20.93-12.09c3.53-0.15 7.06-0.4 10.59-0.32 8.23-0.47 16.42-1.4 24.31-3.98 42.96-12.23-26.11 16.94 7.03 0.16l19.66-11.35z"/>
    <path id="path5746" stroke-width="0" fill-rule="evenodd" fill="#112b00" d="m541.36 866.79c4.64-0.9 9.41-1 14.12-1.32 10.63-1.02 21.31-1.34 31.97-0.78 1.24 0.11 2.49 0.21 3.73 0.31l-22.68 13.09c-1.6 0.11-3.2 0.21-4.8 0.31-9.76 0.44-19.58 0.52-29.29-0.77-3.15-0.28-6.62-0.2-9.55-1.32l16.5-9.52z"/>
    <path id="path6659" stroke-width="0" fill-rule="evenodd" fill="#ffd42a" d="m395.42 107.15c0.17 2.17-1.21 3.84-2.06 5.65-1.65 2.24-3.58 4.19-5.45 6.2-2.13 2.24-4.59 4.07-6.89 6.11-2.18 1.67-3.14 4.08-4.32 6.56-1.36 3.11-3.04 6.04-4.63 9.01-0.9 3.18-2.37 5.91-4.2 8.6-1.4 2.01-3.18 3.65-4.83 5.41-1.32 1.76-2.53 3.61-3.75 5.45-1.54 2.16-2.53 4.66-3.6 7.13-0.69 3.08-1.43 6.16-2.15 9.24-0.15 3.09-0.43 6.08-1.04 9.12-0.55 2.62-1.71 5.04-2.7 7.49-0.67 1.98-0.59 4.08-0.72 6.14 0.39 2.62 0.19 5.29 0.13 7.93 0.63 2.77 0.67 5.62 0.81 8.44-0.19 2.49 0.22 4.83 0.55 7.25 0.38 2.59 0.38 5.21 0.44 7.81 0.18 2.69 0.28 5.39 0.35 8.08 0.06 2.89-0.12 5.77-0.24 8.66 0.32 2.75 0.11 5.53 0.02 8.3-0.69 2.38 0.41 3.65 1.07 5.37 2.19 1.1 4.37 2.19 6.52 3.4 1.99 1.41 4.2 1.8 6.46 2.27 0.81-0.16 2.45 0.57 2.53 0.59-4.02 2.51-8.05 5.02-12.07 7.53-2.2-0.65-2.56-2.53-3.45-4.69-1.3-4.8-1.87-9.75-2.74-14.66-0.3-3.11-1.38-5.92-2.43-8.77-0.69-2.78-1.66-5.41-2.71-8.04-1.19-4.88-0.55-9.97-0.45-14.95 0.31-4.58-0.27-9.17-0.52-13.74-0.21-6.24-0.04-12.35-0.72-18.55-0.56-4.98-0.53-9.93-0.06-14.89 0.43-2.8 2-4.38 3.71-6.27 2-1.46 2.84-3.57 3.86-5.79 1.05-2.86 2.73-5.35 4.28-7.9 1.39-2.84 2.61-5.76 4.03-8.59 1.68-2.55 3.92-4.5 6.1-6.5 3.33-2.85 7.04-5.15 10.66-7.53 45.59-32.61-3.88 7.87 6.22-5.47 0.05-0.39 0.09-0.78 0.14-1.16l13.57-8.62c-0.22 0.49-0.44 0.99-0.66 1.49-7.88 5.77-32.6 23.26-4.88 4.62-3.68 2.43-7.39 4.84-10.84 7.64-2.28 1.95-4.63 3.78-6.16 6.54-1.51 3.02-3.09 5.98-4.63 8.98-1.46 2.6-2.94 5.19-4.27 7.88-1.14 2.2-2.12 4.42-4.06 5.92-1.68 1.85-3.23 3.13-3.24 5.98 0.81 4.5 1.59 8.99 2.21 13.52 0.52 6.24 0.78 12.53 0.35 18.78-0.25 4.79-0.85 9.61-0.51 14.4 0.22 4.96 0.99 9.91 0.55 14.89-0.09 3.3 0.09 5.73 1.65 8.71 1.05 2.77 2.02 5.51 3.34 8.19 1.8 4.81 3.13 9.5 2.51 14.81 0.02 2.24-0.27 4.39 1.1 6.18-8.46 5.47-8.74 8.08-15.62 7.86-2.42-0.36-4.85-0.6-7.07-1.88-1.81-1.35-3.68-2.61-5.41-4.11-1.06-1.68-2.16-2.45-1.73-4.95-0.1-2.77-0.3-5.56 0.02-8.33-0.12-2.78-0.3-5.57-0.23-8.36 0.06-2.81 0.2-5.63 0.22-8.43-0.22-2.53-0.45-5.06-0.81-7.58-0.06-2.46-0.08-4.93-0.35-7.38-0.35-2.8-0.86-5.62-0.78-8.45-0.08-2.71-0.29-5.44 0.16-8.12 0.14-2.05 0.1-4.13 0.68-6.12 0.76-2.26 1.64-4.49 1.81-6.93 0.62-3.14 1.37-6.23 1.55-9.45 0.45-3.05 0.78-6.17 1.87-9.05 1.27-2.49 2.4-5.08 3.99-7.37 1.32-1.94 2.65-3.87 4.11-5.69 1.41-1.53 2.89-3.02 3.97-4.86 1.72-2.85 3.25-5.83 4.66-8.89 1.21-2.9 2.47-5.76 3.9-8.55 1.43-2.44 2.83-4.92 4.82-6.87 2.3-2.04 4.68-3.97 6.89-6.12 1.88-2 3.84-3.94 5.47-6.2 1.26-2.28 2.46-4.64 3.87-6.81l11.83-7.51z"/>
    <path id="path6661" stroke-width="0" fill-rule="evenodd" fill="#fff6d5" d="m395.37 307.25c-5.95 0.44-9.3-2.41-13.53-6.03-3.47-4.26-4.65-9.07-5.32-14.36-1.07-6.62-2.56-13.26-3.42-19.95-0.13-5.75-0.53-11.16-2.58-16.41-4.2-5.75-5.47-12.25-6.45-19.13l22.39-12.93c1.91 6.76 3.43 13.47 4.12 20.48 1.5 5.05 3.47 9.99 4.78 15.14 1.05 7.23 1.46 14.31 0.54 21.62 1.51 5 3.11 9.67 7.13 13.31 2.84 3.23 5.54 6.53 9.56 8.32l-17.22 9.94z"/>
    <path id="path6667" stroke-width="0" fill-rule="evenodd" fill="#fc0" d="m444.24 287.61c-19.17 11.89-16.19 11.93-16.58-2.85-1.3-10.21-0.2-20.41 1.18-30.53-0.19-5.94-0.45-11.89-0.86-17.82-0.25-2.97-1.78-5.48-2.88-7.98l18.81-10.86c1.18 2.53 2.45 5.03 3.51 7.62 1.7 5.42 3.08 10.77 3.13 16.5 1.75 9.94 2.35 19.9-0.05 29.88-3.52 15.42-4.38 16.68-22.76 25.56l16.5-9.52z"/>
    <path id="path6669" stroke-width="0" fill-rule="evenodd" fill="#fea" d="m382.12 289.3c-4.21-8.76-1.3-18.34-1.44-27.6-0.2-6.5-1.19-12.9-2.22-19.29 0.23-4.65-0.18-9.09-0.76-13.65-0.96-4.16-1.82-8.16-2.13-12.42-0.25-5.8-0.85-11.55-0.9-17.38 0.04-2.99 0.4-5.97 0.67-8.95l20.04-11.57c0.27 2.72 0.63 5.44 0.66 8.18-0.04 6.08-0.73 12.14-0.5 18.2 0.23 4.34-0.3 8.76 1.32 12.88 0.87 4.2 1.64 8.42 2.44 12.68 0.76 6.31 2.33 12.32 3.49 18.56 1.37 9.66 2.76 19.46-0.8 28.89l-19.87 11.47z"/>
  </g>
  <metadata>
    <rdf:RDF>
      <cc:Work>
        <dc:format>image/svg+xml</dc:format>
        <dc:type rdf:resource="http://purl.org/dc/dcmitype/StillImage"/>
        <cc:license rdf:resource="http://creativecommons.org/licenses/publicdomain/"/>
        <dc:publisher>
          <cc:Agent rdf:about="http://openclipart.org/">
            <dc:title>Openclipart</dc:title>
          </cc:Agent>
        </dc:publisher>
      </cc:Work>
      <cc:License rdf:about="http://creativecommons.org/licenses/publicdomain/">
        <cc:permits rdf:resource="http://creativecommons.org/ns#Reproduction"/>
        <cc:permits rdf:resource="http://creativecommons.org/ns#Distribution"/>
        <cc:permits rdf:resource="http://creativecommons.org/ns#DerivativeWorks"/>
      </cc:License>
    </rdf:RDF>
  </metadata>
</svg>
