<?xml version="1.0"?>
<svg xmlns:rdf="http://www.w3.org/1999/02/22-rdf-syntax-ns#" xmlns="http://www.w3.org/2000/svg" xmlns:cc="http://creativecommons.org/ns#" xmlns:dc="http://purl.org/dc/elements/1.1/" id="svg1901" viewBox="0 0 288.57 768.8" version="1.0">
  <g id="layer1" transform="translate(634.28 21.938)">
    <g id="g3288">
      <path id="path2380" stroke-width="16" stroke="#000" stroke-linecap="round" d="m-490-13.938c-74.94 0-136.28 61.383-136.28 136.32v584.26c-0.16 11.51 5.93 22.07 15.87 27.87 9.95 5.81 22.31 5.81 32.25 0 9.95-5.8 16.04-16.58 15.88-28.09v-584.04c0-40.327 31.97-72.318 72.28-72.318s72.28 31.991 72.28 72.318c-0.16 11.51 5.93 22.07 15.88 27.87 9.94 5.8 22.3 5.8 32.25 0 9.94-5.8 16.03-16.58 15.87-28.09 0-74.934-61.34-136.1-136.28-136.1zm40.56 40.219c6.23 2.64 12.15 5.879 17.69 9.625-5.55-3.754-11.45-6.981-17.69-9.625z"/>
      <path id="path2391" d="m-490-13.938c-74.94 0-136.28 61.383-136.28 136.32v584.26c-0.16 11.51 5.93 22.07 15.87 27.87 9.95 5.81 22.31 5.81 32.25 0 9.95-5.8 16.04-16.58 15.88-28.09v-584.04c0-40.327 31.97-72.318 72.28-72.318s72.28 31.991 72.28 72.318c-0.16 11.51 5.93 22.07 15.88 27.87 9.94 5.8 22.3 5.8 32.25 0 9.94-5.8 16.03-16.58 15.87-28.09 0-74.934-61.34-136.1-136.28-136.1z" stroke="#fff" stroke-linecap="round" stroke-width="6" fill="#f00"/>
      <path id="path2393" fill-rule="evenodd" fill="#fff" d="m-503.03-13.281c-17.19 1.653-33.49 6.5019-48.25 14-17.2 22.271-37.14 41.664-59.06 57.875-7.97 14.913-13.21 31.462-15.13 48.966 49.19-27.919 91.95-68.982 122.44-120.84zm35.87 1.281c-12.27 23.511-26.78 45.191-43.09 64.875 6.41-1.829 13.2-2.813 20.25-2.813 7.12 0 13.97 1.012 20.44 2.876 12.47-17.371 23.73-35.953 33.56-55.688-9.85-4.2756-20.29-7.4-31.16-9.25zm58.82 25.344c-9.75 19.514-20.76 37.996-32.91 55.375 8.52 7.741 15.17 17.497 19.19 28.593 13.94-19.003 26.6-39.284 37.81-60.781-7.06-8.665-15.15-16.469-24.09-23.187zm43.34 54.75c-14.3 25.259-30.51 48.846-48.38 70.656 2.75 4.68 6.67 8.66 11.54 11.5 5.29 3.09 11.28 4.51 17.22 4.31 10.77-13.55 20.98-27.71 30.53-42.5-1.16-15.51-4.95-30.313-10.91-43.966zm-194.38 33.746c-20.77 17.09-43.25 31.68-66.9 43.6v36.72c22.32-10.19 43.76-22.55 64-36.91v-22.87c0-7.16 1.03-14.04 2.9-20.54zm-2.9 82.97c-20.43 13.02-41.85 24.25-64 33.5v35.75c22.02-8.5 43.42-18.75 64-30.68v-38.57zm0 76.31c-20.68 11.04-42.08 20.51-64 28.38v35.19c21.85-7.34 43.23-16.17 64-26.44v-37.13zm0 73.82c-20.84 9.61-42.21 17.88-64 24.75v34.81c21.74-6.47 43.1-14.27 64-23.31v-36.25zm0 72.25c-20.94 8.54-42.3 15.88-64 22v34.56c21.66-5.8 43.02-12.78 64-20.87v-35.69zm0 71.15c-21.01 7.7-42.37 14.33-64 19.85v34.37c21.61-5.26 42.96-11.56 64-18.9v-35.32zm0 70.44c-21.06 7.02-42.42 13.03-64 18.06v34.25c21.56-4.82 42.92-10.59 64-17.31v-35zm0 69.88c-21.1 6.45-42.45 11.99-64 16.62v34.13c21.53-4.46 42.89-9.8 64-16v-34.75zm0 69.4c-21.13 5.98-42.48 11.15-64 15.44v3.12c-0.16 11.43 5.84 21.92 15.66 27.76 14.51-3.08 28.96-6.53 43.31-10.35 3.3-5.18 5.12-11.29 5.03-17.62v-18.35z"/>
      <path id="path2481" d="m-490-13.938c-74.94 0-136.28 61.383-136.28 136.32v584.26c-0.16 11.51 5.93 22.07 15.87 27.87 9.95 5.81 22.31 5.81 32.25 0 9.95-5.8 16.04-16.58 15.88-28.09v-584.04c0-40.327 31.97-72.318 72.28-72.318s72.28 31.991 72.28 72.318c-0.16 11.51 5.93 22.07 15.88 27.87 9.94 5.8 22.3 5.8 32.25 0 9.94-5.8 16.03-16.58 15.87-28.09 0-74.934-61.34-136.1-136.28-136.1z" stroke="#000" stroke-linecap="round" stroke-width="12" fill="none"/>
      <path id="path3283" opacity=".15311" transform="translate(-634.28 -21.938)" d="m218.94 30.375c25.63 24.772 41.62 59.455 41.62 97.715 0.17 11.52-5.93 22.29-15.87 28.1-7.49 4.37-16.34 5.43-24.5 3.22 2.75 5.23 6.94 9.68 12.25 12.78 9.94 5.8 22.3 5.8 32.25 0 9.94-5.81 16.04-16.58 15.87-28.1 0-47.428-24.57-89.338-61.62-113.72zm-94.66 25.625c-40.314 0-72.28 31.991-72.28 72.31v584.03c0.163 11.52-5.931 22.29-15.875 28.1-7.478 4.36-16.312 5.45-24.469 3.25 2.748 5.21 6.922 9.66 12.219 12.75 9.944 5.8 22.306 5.8 32.25 0 9.944-5.81 16.038-16.58 15.875-28.1v-584.03c0-40.32 31.97-72.31 72.28-72.31 12.6 0 24.38 3.13 34.63 8.656-13.19-15.158-32.67-24.656-54.63-24.656z"/>
    </g>
  </g>
  <metadata>
    <rdf:RDF>
      <cc:Work>
        <dc:format>image/svg+xml</dc:format>
        <dc:type rdf:resource="http://purl.org/dc/dcmitype/StillImage"/>
        <cc:license rdf:resource="http://creativecommons.org/licenses/publicdomain/"/>
        <dc:publisher>
          <cc:Agent rdf:about="http://openclipart.org/">
            <dc:title>Openclipart</dc:title>
          </cc:Agent>
        </dc:publisher>
      </cc:Work>
      <cc:License rdf:about="http://creativecommons.org/licenses/publicdomain/">
        <cc:permits rdf:resource="http://creativecommons.org/ns#Reproduction"/>
        <cc:permits rdf:resource="http://creativecommons.org/ns#Distribution"/>
        <cc:permits rdf:resource="http://creativecommons.org/ns#DerivativeWorks"/>
      </cc:License>
    </rdf:RDF>
  </metadata>
</svg>
