<?xml version="1.0"?>
<svg xmlns:rdf="http://www.w3.org/1999/02/22-rdf-syntax-ns#" xmlns="http://www.w3.org/2000/svg" xmlns:cc="http://creativecommons.org/ns#" xmlns:dc="http://purl.org/dc/elements/1.1/" id="svg2" viewBox="0 0 391.11 376.83" version="1.1">
  <g id="layer1" transform="translate(-157.3 -346.81)">
    <path id="path2831-1" stroke="#000" stroke-width="1.3737px" d="m426.07 388.89c-2.7251-0.49547-8.4998 9.2725-8.4998 9.2725s-5.8857 22.881-9.7018 22.881c-3.816 0-5.8916-5.5388-4.8509-9.7018 1.0407-4.1629 6.5634-8.668 2.7474-9.0149-3.816-0.34692-7.2943 7.2838-7.6412 8.6715-1.0097 4.0386 5.5726 21.493 2.1035 22.881-3.4691 1.3876-8.3326-1.0105-12.149-7.2548-3.816-6.2444-7.6412-10.407-7.6412-12.836 0-2.4284 1.3876-3.1372 0-2.7903-1.3876 0.34692-2.7509 2.448-2.404 6.6109s5.5597 11.785 8.6819 16.295c3.1222 4.5098 10.382 5.5504 10.035 14.57-0.3469 9.0197-7.2653 21.141-6.2246 31.896 1.5008 15.508 12.492 23.267 12.492 23.267l-6.6109-1.0732-0.34342 2.7903s5.2024 1.7496 8.6715 2.7903 5.5377 1.0303 5.5377 1.0303l4.8509 1.0303s-5.1804 1.0303-6.568 1.0303 1.7171 1.76 1.7171 1.76l12.492-1.0303 9.3583 3.8206-0.34343 10.732-13.522 1.3737s-12.146 4.185-16.656 2.1035c-4.5098-2.0815-21.152-12.159-30.865-11.118-9.7135 1.0407-17.687 1.4096-21.85 2.1035-4.1629 0.69381-39.567-2.107-45.117-1.76-5.5506 0.34691-11.07 0.34342-15.926 0.34342-4.8568 0-17.012-3.7881-24.297-2.7474-7.2851 1.0407-21.85 5.1943-21.85 5.1943s-8.683-3.8346-11.805-2.4469c-3.1222 1.3876-6.9544 5.2372-6.9544 5.2372l-3.0908 2.7474-0.34342 1.76 7.3407-0.98735c-1.0947 0.2462-3.1039 1.0497-1.803 3.3913 1.7346 3.1222 3.8206 5.5807 3.8206 5.5807s-3.1407-0.36326-2.4469 5.8812c0.69383 6.2444 4.504 17.361 4.8509 19.79 0.34691 2.4284 3.8346 11.789 2.4469 17.686-1.3876 5.8975-20.477 27.045-20.477 27.045l-2.0606 29.835-4.8509 30.865 0.34342 3.4772-0.0549 5.9909 15.981 4.1915s2.4319-2.5527-0.34342-5.6749-3.4772-4.8509-3.4772-4.8509l0.72978-29.835s-0.35279-14.229 4.8509-20.82c5.2037-6.5913 6.9114-7.9846 6.9114-7.9846l18.416-15.583 0.34342 0.68685-9.3583 12.492s-3.8276 1.0314-3.1338 5.1943c0.69383 4.163 12.471 12.493 14.553 16.656 2.0815 4.1629 20.133 25.671 20.133 25.671l-0.34343 6.568 5.1943 5.2372 0.68685 3.4342 2.1035 3.8206 10.732-0.34343s0.35736-1.0128-1.0303-2.7474c-1.3876-1.7346-3.1338-2.7903-3.1338-2.7903l-0.68685-6.6109-1.7171-2.404-0.34343-5.5377-25.328-30.908s-2.4469-0.67399-2.4469-6.2246 3.8206-7.9846 3.8206-7.9846l14.939-15.969s13.873 7.6273 26.014 9.0149c12.142 1.3876 36.403-3.0908 36.403-3.0908l5.5377-0.34342s-4.1431 15.238-6.2246 23.911c-2.0815 8.6728-3.8206 16.313-3.8206 16.313s-9.7133 12.486-12.836 17.343c-3.1222 4.8568-8.328 10.775-8.328 10.775l0.0549 4.1485-3.532 7.3801 14.662 2.0606-2.5137-8.0514 2.8297 2.088s1.3214-10.411 6.872-19.431c5.5506-9.0197 10.411-13.187 12.492-16.656 2.0815-3.4691 6.2616-19.43 11.118-25.328 4.8568-5.8975 6.612-11.805 10.775-11.805 4.1629 0 2.404 7.9846 2.404 7.9846s6.9334 30.533 9.0149 33.656c2.0815 3.1222 2.7903 5.8812 2.7903 5.8812s3.4772 21.876 3.4772 23.61c0 1.7346-2.5137 7.6806-2.5137 7.6806l14.978 3.1731 0.37087-8.4497s-2.4225 0.003-4.8509-4.5074c-2.4284-4.5098-5.5876-23.919-4.8938-27.388 0.69381-3.4691 1.0767-6.2536 0.72978-7.6412-0.3469-1.3876-3.8346-22.535-2.4469-27.045 1.3876-4.5099 2.0606-9.0149 2.0606-9.0149l6.9544-3.1338 10.423-8.4832s7.7752-8.179 9.8567-7.1383 15.285-8.2993 16.672-8.2993l12.67-4.6955 4.1385-1.2002 3.8485-1.0488s8.9811-5.2337 16.613-5.5806c7.6321-0.34691 15.626 0.72978 15.626 0.72978s2.7694 3.8171 4.8509 4.164c2.0815 0.34692 7.6412-3.8206 7.6412-3.8206s6.2385-6.619 4.8509-10.088c-1.3876-3.4691-3.1338-5.1943-3.1338-5.1943l-30.865-17.343-3.4772-2.7903-0.34342-2.0606 7.9846-0.34342s3.8263-3.3249 9.7238-8.702c7.5108-9.2738 5.6575-9.8034 15.793-13.494 0.34692-1.3876 9.873-2.7705 8.1385-4.505-1.7346-1.7346-5.5377-6.6109-5.5377-6.6109l-0.34343-5.1943-3.4772 2.404v3.1338l-0.34343 2.7903-2.1035 1.0303s-5.1769-2.7729-6.9114-4.5074c-1.7346-1.7346-2.7903-3.1338-2.7903-3.1338l-3.4772 5.9241h-2.404l2.7474-6.2675s-3.7962 5.2013-6.2246 4.5074c-2.4284-0.69383 3.4552-11.075 1.3737-11.075s-3.8032 6.2246-5.5377 6.2246c-1.7346 0-2.1035-9.3583-2.1035-9.3583s1.745-4.164-1.0303-4.164-4.511 5.9101-4.164 7.2978c0.34691 1.3876 0.36086 12.131-1.3737 13.866-1.7346 1.7346-16.313 10.045-16.313 10.045l-6.2246-3.4772s-2.4574-1.0244-1.4166-5.8812c1.0407-4.8568 8.3581-18.74 13.909-24.984 5.5506-6.2444 20.463-25.31 21.85-27.045 1.3877-1.7346 5.5388-8.6795 7.2734-11.455 1.4824-2.3718 3.8265-9.0219 1.3981-9.0219s-4.164 5.5377-4.164 5.5377-3.1163 5.5552-4.8509 3.8206 1.3737-5.1943 1.3737-5.1943 4.8509-7.6458 4.8509-11.462c0-3.816-4.49-10.746-6.2246-9.3583-1.7346 1.3876 1.3737 6.6109 1.3737 6.6109s0.35739 6.2106-1.0303 7.5983c-1.3876 1.3876-3.1558 3.4841-5.2372 2.7903-2.0815-0.69382-2.0606-2.404-2.0606-2.404l0.68685-19.79s2.085-4.164-0.34342-4.164-3.8102 6.916-4.8509 10.732 1.0152 18.413-1.76 18.76c-2.7753 0.34691-6.568-4.164-6.568-4.164s-12.832-17.337-13.179-22.194c-0.19929-2.7898-1.4166 3.8206-1.4166 3.8206s-1.0233-5.2117-1.7171-3.4772c-0.69383 1.7346-8.3211 7.6238-9.0149 9.3583-0.69383 1.7346-0.008 3.8276-3.4772 3.1338-3.4691-0.69381-2.0606-8.6715-2.0606-8.6715s6.2246-13.541 6.2246-15.969c0-0.19989-0.33346-0.22453-0.51513-0.25757h0.00003-0.00003zm9.53 18.287 2.1035 6.9544s-5.5806 2.4354-5.5806-0.68685 3.4772-6.2675 3.4772-6.2675zm5.1943 13.522s11.826 10.422 9.7447 15.626c-2.0815 5.2037-2.7903 4.164-2.7903 4.164l-21.85-11.805s4.852-4.49 9.0149-6.2246 5.8812-1.76 5.8812-1.76zm-22.537 14.939 20.477 9.7018s5.8812 1.7542 5.8812 6.6109c0 4.8568-0.32948 12.815-1.7171 14.896-1.3876 2.0815-12.138 21.872-13.179 23.954-1.0407 2.0815-2.7973 5.8927-2.1035 9.0149 0.69381 3.1222 0.004 5.8881-0.34343 5.1943 0 0-9.7015-2.8505-22.537-11.118-6.9436-4.4725-4.8171-17.579-4.5075-19.747l9.7018-24.641 5.1943-11.118 3.1338-2.7474zm65.576 57.571-1.7415 7.98-4.5075 0.68685-2.404 2.7903-5.2372 5.5377s-1.3563 1.7496-3.0908 2.7903c-1.7346 1.0407-4.5074 1.3737-4.5074 1.3737l-3.1338 0.34342-2.4469-0.34342-3.1338-1.3737-4.8509-2.7903 14.596-6.9114 7.6412-2.1035 6.2246-1.3737 6.5924-6.6064z"/>
  </g>
  <metadata>
    <rdf:RDF>
      <cc:Work>
        <dc:format>image/svg+xml</dc:format>
        <dc:type rdf:resource="http://purl.org/dc/dcmitype/StillImage"/>
        <cc:license rdf:resource="http://creativecommons.org/licenses/publicdomain/"/>
        <dc:publisher>
          <cc:Agent rdf:about="http://openclipart.org/">
            <dc:title>Openclipart</dc:title>
          </cc:Agent>
        </dc:publisher>
      </cc:Work>
      <cc:License rdf:about="http://creativecommons.org/licenses/publicdomain/">
        <cc:permits rdf:resource="http://creativecommons.org/ns#Reproduction"/>
        <cc:permits rdf:resource="http://creativecommons.org/ns#Distribution"/>
        <cc:permits rdf:resource="http://creativecommons.org/ns#DerivativeWorks"/>
      </cc:License>
    </rdf:RDF>
  </metadata>
</svg>
