<?xml version="1.0" encoding="UTF-8" standalone="no"?>
<!-- Created with Inkscape (http://www.inkscape.org/) -->

<svg
   xmlns:dc="http://purl.org/dc/elements/1.1/"
   xmlns:cc="http://creativecommons.org/ns#"
   xmlns:rdf="http://www.w3.org/1999/02/22-rdf-syntax-ns#"
   xmlns:svg="http://www.w3.org/2000/svg"
   xmlns="http://www.w3.org/2000/svg"
   xmlns:sodipodi="http://sodipodi.sourceforge.net/DTD/sodipodi-0.dtd"
   xmlns:inkscape="http://www.inkscape.org/namespaces/inkscape"
   width="3200"
   height="800"
   id="svg3008"
   version="1.1"
   inkscape:version="0.48.1 r9760"
   sodipodi:docname="CandyCane1x4.svg">
  <defs
     id="defs3010" />
  <sodipodi:namedview
     id="base"
     pagecolor="#ffffff"
     bordercolor="#666666"
     borderopacity="1.0"
     inkscape:pageopacity="0.0"
     inkscape:pageshadow="2"
     inkscape:zoom="0.3953125"
     inkscape:cx="1698.6561"
     inkscape:cy="400"
     inkscape:document-units="px"
     inkscape:current-layer="layer1"
     showgrid="false"
     inkscape:window-width="1676"
     inkscape:window-height="1006"
     inkscape:window-x="0"
     inkscape:window-y="0"
     inkscape:window-maximized="1" />
  <metadata
     id="metadata3013">
    <rdf:RDF>
      <cc:Work
         rdf:about="">
        <dc:format>image/svg+xml</dc:format>
        <dc:type
           rdf:resource="http://purl.org/dc/dcmitype/StillImage" />
        <dc:title></dc:title>
      </cc:Work>
    </rdf:RDF>
  </metadata>
  <g
     inkscape:label="1-Black"
     inkscape:groupmode="layer"
     id="1-default"
     style="display:inline">
    <path
       style="font-size:medium;font-style:normal;font-variant:normal;font-weight:normal;font-stretch:normal;text-indent:0;text-align:start;text-decoration:none;line-height:normal;letter-spacing:normal;word-spacing:normal;text-transform:none;direction:ltr;block-progression:tb;writing-mode:lr-tb;text-anchor:start;baseline-shift:baseline;color:#000000;fill:none;stroke:#000000;stroke-width:5;stroke-miterlimit:4;stroke-opacity:1;stroke-dasharray:none;marker:none;visibility:visible;display:inline;overflow:visible;enable-background:accumulate;font-family:Sans;-inkscape-font-specification:Sans"
       d="M 463.0098,16.736045 C 426.48596,1.9849732 384.56787,3.0777278 347.87906,21.550291 311.19025,40.022853 280.39671,74.945375 260.76792,123.5465 L 3.4822705,760.589 c -3.48741408,8.29502 2.704329,14.58599 12.3671135,17.10771 9.662781,2.52173 23.603431,22.29928 36.311801,16.95569 12.708369,-5.34359 11.234415,-0.1624 14.485804,-8.55274 L 323.93264,149.05716 c 14.70035,-36.39825 34.90806,-56.771298 54.59761,-66.684756 19.68945,-9.913503 39.5588,-10.310897 58.96889,-2.471641 20.76835,8.387821 34.83673,21.439917 42.03077,40.699177 7.19404,19.25926 8.00588,47.44514 -8.34452,87.92895 l -17.53858,43.42574 c -3.48742,8.29502 -3.50435,17.98683 -0.046,26.29401 3.45835,8.30717 13.0555,6.87786 21.39904,10.24761 8.34353,3.36975 15.43501,11.22785 23.69245,7.6524 8.25745,-3.57546 14.86785,-10.29301 18.11924,-18.68335 l 17.53858,-43.42575 C 555.24327,182.30781 557.73343,135.2591 543.34687,96.744968 528.96032,58.230839 498.17539,30.938554 463.0098,16.736045 z"
       id="path3814"
       inkscape:connector-curvature="0"
       sodipodi:nodetypes="sssczzcssssscssscsss" />
    <path
       sodipodi:nodetypes="sssczzcssssscssscsss"
       inkscape:connector-curvature="0"
       id="path3912"
       d="M 1263.0098,16.736045 C 1226.4859,1.9849732 1184.5678,3.0777278 1147.879,21.550291 1111.1902,40.022853 1080.3967,74.945375 1060.7679,123.5465 L 803.48225,760.589 c -3.48741,8.29502 2.70433,14.58599 12.36711,17.10771 9.66279,2.52173 23.60344,22.29928 36.3118,16.95569 12.70837,-5.34359 11.23442,-0.1624 14.48581,-8.55274 l 257.28563,-637.0425 c 14.7004,-36.39825 34.9081,-56.771298 54.5976,-66.684756 19.6895,-9.913503 39.5588,-10.310897 58.9689,-2.471641 20.7684,8.387821 34.8368,21.439917 42.0308,40.699177 7.194,19.25926 8.0059,47.44514 -8.3445,87.92895 l -17.5386,43.42574 c -3.4874,8.29502 -3.5044,17.98683 -0.046,26.29401 3.4583,8.30717 13.0555,6.87786 21.399,10.24761 8.3435,3.36975 15.435,11.22785 23.6925,7.6524 8.2574,-3.57546 14.8678,-10.29301 18.1192,-18.68335 l 17.5386,-43.42575 c 20.8932,-51.73174 23.3833,-98.78045 8.9968,-137.294582 -14.3866,-38.514129 -45.1715,-65.806414 -80.3371,-80.008923 z"
       style="font-size:medium;font-style:normal;font-variant:normal;font-weight:normal;font-stretch:normal;text-indent:0;text-align:start;text-decoration:none;line-height:normal;letter-spacing:normal;word-spacing:normal;text-transform:none;direction:ltr;block-progression:tb;writing-mode:lr-tb;text-anchor:start;baseline-shift:baseline;color:#000000;fill:none;stroke:#000000;stroke-width:5;stroke-miterlimit:4;stroke-opacity:1;stroke-dasharray:none;marker:none;visibility:visible;display:inline;overflow:visible;enable-background:accumulate;font-family:Sans;-inkscape-font-specification:Sans" />
    <path
       style="font-size:medium;font-style:normal;font-variant:normal;font-weight:normal;font-stretch:normal;text-indent:0;text-align:start;text-decoration:none;line-height:normal;letter-spacing:normal;word-spacing:normal;text-transform:none;direction:ltr;block-progression:tb;writing-mode:lr-tb;text-anchor:start;baseline-shift:baseline;color:#000000;fill:none;stroke:#000000;stroke-width:5;stroke-miterlimit:4;stroke-opacity:1;stroke-dasharray:none;marker:none;visibility:visible;display:inline;overflow:visible;enable-background:accumulate;font-family:Sans;-inkscape-font-specification:Sans"
       d="M 2063.0098,16.736045 C 2026.4859,1.9849732 1984.5678,3.0777278 1947.879,21.550291 1911.1902,40.022853 1880.3967,74.945375 1860.7679,123.5465 L 1603.4823,760.589 c -3.4875,8.29502 2.7043,14.58599 12.3671,17.10771 9.6627,2.52173 23.6034,22.29928 36.3118,16.95569 12.7083,-5.34359 11.2344,-0.1624 14.4858,-8.55274 l 257.2856,-637.0425 c 14.7004,-36.39825 34.9081,-56.771298 54.5976,-66.684756 19.6895,-9.913503 39.5588,-10.310897 58.9689,-2.471641 20.7684,8.387821 34.8368,21.439917 42.0308,40.699177 7.194,19.25926 8.0059,47.44514 -8.3445,87.92895 l -17.5386,43.42574 c -3.4874,8.29502 -3.5044,17.98683 -0.046,26.29401 3.4583,8.30717 13.0555,6.87786 21.399,10.24761 8.3435,3.36975 15.435,11.22785 23.6925,7.6524 8.2574,-3.57546 14.8678,-10.29301 18.1192,-18.68335 l 17.5386,-43.42575 c 20.8932,-51.73174 23.3833,-98.78045 8.9968,-137.294582 -14.3866,-38.514129 -45.1715,-65.806414 -80.3371,-80.008923 z"
       id="path3936"
       inkscape:connector-curvature="0"
       sodipodi:nodetypes="sssczzcssssscssscsss" />
    <path
       sodipodi:nodetypes="sssczzcssssscssscsss"
       inkscape:connector-curvature="0"
       id="path3960"
       d="M 2863.0098,16.736045 C 2826.486,1.9849732 2784.5679,3.0777278 2747.8791,21.550291 2711.1902,40.022853 2680.3967,74.945375 2660.7679,123.5465 L 2403.4823,760.589 c -3.4874,8.29502 2.7043,14.58599 12.3671,17.10771 9.6628,2.52173 23.6034,22.29928 36.3118,16.95569 12.7084,-5.34359 11.2344,-0.1624 14.4858,-8.55274 l 257.2856,-637.0425 c 14.7004,-36.39825 34.9081,-56.771298 54.5977,-66.684756 19.6894,-9.913503 39.5587,-10.310897 58.9688,-2.471641 20.7684,8.387821 34.8368,21.439917 42.0308,40.699177 7.1941,19.25926 8.0059,47.44514 -8.3445,87.92895 l -17.5386,43.42574 c -3.4874,8.29502 -3.5043,17.98683 -0.046,26.29401 3.4584,8.30717 13.0555,6.87786 21.399,10.24761 8.3436,3.36975 15.435,11.22785 23.6925,7.6524 8.2574,-3.57546 14.8678,-10.29301 18.1192,-18.68335 l 17.5386,-43.42575 c 20.8932,-51.73174 23.3833,-98.78045 8.9968,-137.294582 -14.3866,-38.514129 -45.1715,-65.806414 -80.3371,-80.008923 z"
       style="font-size:medium;font-style:normal;font-variant:normal;font-weight:normal;font-stretch:normal;text-indent:0;text-align:start;text-decoration:none;line-height:normal;letter-spacing:normal;word-spacing:normal;text-transform:none;direction:ltr;block-progression:tb;writing-mode:lr-tb;text-anchor:start;baseline-shift:baseline;color:#000000;fill:none;stroke:#000000;stroke-width:5;stroke-miterlimit:4;stroke-opacity:1;stroke-dasharray:none;marker:none;visibility:visible;display:inline;overflow:visible;enable-background:accumulate;font-family:Sans;-inkscape-font-specification:Sans" />
    <g
       id="g6033"
       transform="translate(399.99998,0)">
      <path
         style="font-size:medium;font-style:normal;font-variant:normal;font-weight:normal;font-stretch:normal;text-indent:0;text-align:start;text-decoration:none;line-height:normal;letter-spacing:normal;word-spacing:normal;text-transform:none;direction:ltr;block-progression:tb;writing-mode:lr-tb;text-anchor:start;baseline-shift:baseline;color:#000000;fill:none;stroke:#000000;stroke-width:5;stroke-miterlimit:4;stroke-opacity:1;stroke-dasharray:none;marker:none;visibility:visible;display:inline;overflow:visible;enable-background:accumulate;font-family:Sans;-inkscape-font-specification:Sans"
         d="M 463.0098,16.736045 C 426.48596,1.9849732 384.56787,3.0777278 347.87906,21.550291 311.19025,40.022853 280.39671,74.945375 260.76792,123.5465 L 3.4822705,760.589 c -3.48741408,8.29502 2.704329,14.58599 12.3671135,17.10771 9.662781,2.52173 23.603431,22.29928 36.311801,16.95569 12.708369,-5.34359 11.234415,-0.1624 14.485804,-8.55274 L 323.93264,149.05716 c 14.70035,-36.39825 34.90806,-56.771298 54.59761,-66.684756 19.68945,-9.913503 39.5588,-10.310897 58.96889,-2.471641 20.76835,8.387821 34.83673,21.439917 42.03077,40.699177 7.19404,19.25926 8.00588,47.44514 -8.34452,87.92895 l -17.53858,43.42574 c -3.48742,8.29502 -3.50435,17.98683 -0.046,26.29401 3.45835,8.30717 13.0555,6.87786 21.39904,10.24761 8.34353,3.36975 15.43501,11.22785 23.69245,7.6524 8.25745,-3.57546 14.86785,-10.29301 18.11924,-18.68335 l 17.53858,-43.42575 C 555.24327,182.30781 557.73343,135.2591 543.34687,96.744968 528.96032,58.230839 498.17539,30.938554 463.0098,16.736045 z"
         id="path6025"
         inkscape:connector-curvature="0"
         sodipodi:nodetypes="sssczzcssssscssscsss" />
      <path
         sodipodi:nodetypes="sssczzcssssscssscsss"
         inkscape:connector-curvature="0"
         id="path6027"
         d="M 1263.0098,16.736045 C 1226.4859,1.9849732 1184.5678,3.0777278 1147.879,21.550291 1111.1902,40.022853 1080.3967,74.945375 1060.7679,123.5465 L 803.48225,760.589 c -3.48741,8.29502 2.70433,14.58599 12.36711,17.10771 9.66279,2.52173 23.60344,22.29928 36.3118,16.95569 12.70837,-5.34359 11.23442,-0.1624 14.48581,-8.55274 l 257.28563,-637.0425 c 14.7004,-36.39825 34.9081,-56.771298 54.5976,-66.684756 19.6895,-9.913503 39.5588,-10.310897 58.9689,-2.471641 20.7684,8.387821 34.8368,21.439917 42.0308,40.699177 7.194,19.25926 8.0059,47.44514 -8.3445,87.92895 l -17.5386,43.42574 c -3.4874,8.29502 -3.5044,17.98683 -0.046,26.29401 3.4583,8.30717 13.0555,6.87786 21.399,10.24761 8.3435,3.36975 15.435,11.22785 23.6925,7.6524 8.2574,-3.57546 14.8678,-10.29301 18.1192,-18.68335 l 17.5386,-43.42575 c 20.8932,-51.73174 23.3833,-98.78045 8.9968,-137.294582 -14.3866,-38.514129 -45.1715,-65.806414 -80.3371,-80.008923 z"
         style="font-size:medium;font-style:normal;font-variant:normal;font-weight:normal;font-stretch:normal;text-indent:0;text-align:start;text-decoration:none;line-height:normal;letter-spacing:normal;word-spacing:normal;text-transform:none;direction:ltr;block-progression:tb;writing-mode:lr-tb;text-anchor:start;baseline-shift:baseline;color:#000000;fill:none;stroke:#000000;stroke-width:5;stroke-miterlimit:4;stroke-opacity:1;stroke-dasharray:none;marker:none;visibility:visible;display:inline;overflow:visible;enable-background:accumulate;font-family:Sans;-inkscape-font-specification:Sans" />
      <path
         style="font-size:medium;font-style:normal;font-variant:normal;font-weight:normal;font-stretch:normal;text-indent:0;text-align:start;text-decoration:none;line-height:normal;letter-spacing:normal;word-spacing:normal;text-transform:none;direction:ltr;block-progression:tb;writing-mode:lr-tb;text-anchor:start;baseline-shift:baseline;color:#000000;fill:none;stroke:#000000;stroke-width:5;stroke-miterlimit:4;stroke-opacity:1;stroke-dasharray:none;marker:none;visibility:visible;display:inline;overflow:visible;enable-background:accumulate;font-family:Sans;-inkscape-font-specification:Sans"
         d="M 2063.0098,16.736045 C 2026.4859,1.9849732 1984.5678,3.0777278 1947.879,21.550291 1911.1902,40.022853 1880.3967,74.945375 1860.7679,123.5465 L 1603.4823,760.589 c -3.4875,8.29502 2.7043,14.58599 12.3671,17.10771 9.6627,2.52173 23.6034,22.29928 36.3118,16.95569 12.7083,-5.34359 11.2344,-0.1624 14.4858,-8.55274 l 257.2856,-637.0425 c 14.7004,-36.39825 34.9081,-56.771298 54.5976,-66.684756 19.6895,-9.913503 39.5588,-10.310897 58.9689,-2.471641 20.7684,8.387821 34.8368,21.439917 42.0308,40.699177 7.194,19.25926 8.0059,47.44514 -8.3445,87.92895 l -17.5386,43.42574 c -3.4874,8.29502 -3.5044,17.98683 -0.046,26.29401 3.4583,8.30717 13.0555,6.87786 21.399,10.24761 8.3435,3.36975 15.435,11.22785 23.6925,7.6524 8.2574,-3.57546 14.8678,-10.29301 18.1192,-18.68335 l 17.5386,-43.42575 c 20.8932,-51.73174 23.3833,-98.78045 8.9968,-137.294582 -14.3866,-38.514129 -45.1715,-65.806414 -80.3371,-80.008923 z"
         id="path6029"
         inkscape:connector-curvature="0"
         sodipodi:nodetypes="sssczzcssssscssscsss" />
      <path
         sodipodi:nodetypes="sssczzcssssscssscsss"
         inkscape:connector-curvature="0"
         id="path6031"
         d="M 2863.0098,16.736045 C 2826.486,1.9849732 2784.5679,3.0777278 2747.8791,21.550291 2711.1902,40.022853 2680.3967,74.945375 2660.7679,123.5465 L 2403.4823,760.589 c -3.4874,8.29502 2.7043,14.58599 12.3671,17.10771 9.6628,2.52173 23.6034,22.29928 36.3118,16.95569 12.7084,-5.34359 11.2344,-0.1624 14.4858,-8.55274 l 257.2856,-637.0425 c 14.7004,-36.39825 34.9081,-56.771298 54.5977,-66.684756 19.6894,-9.913503 39.5587,-10.310897 58.9688,-2.471641 20.7684,8.387821 34.8368,21.439917 42.0308,40.699177 7.1941,19.25926 8.0059,47.44514 -8.3445,87.92895 l -17.5386,43.42574 c -3.4874,8.29502 -3.5043,17.98683 -0.046,26.29401 3.4584,8.30717 13.0555,6.87786 21.399,10.24761 8.3436,3.36975 15.435,11.22785 23.6925,7.6524 8.2574,-3.57546 14.8678,-10.29301 18.1192,-18.68335 l 17.5386,-43.42575 c 20.8932,-51.73174 23.3833,-98.78045 8.9968,-137.294582 -14.3866,-38.514129 -45.1715,-65.806414 -80.3371,-80.008923 z"
         style="font-size:medium;font-style:normal;font-variant:normal;font-weight:normal;font-stretch:normal;text-indent:0;text-align:start;text-decoration:none;line-height:normal;letter-spacing:normal;word-spacing:normal;text-transform:none;direction:ltr;block-progression:tb;writing-mode:lr-tb;text-anchor:start;baseline-shift:baseline;color:#000000;fill:none;stroke:#000000;stroke-width:5;stroke-miterlimit:4;stroke-opacity:1;stroke-dasharray:none;marker:none;visibility:visible;display:inline;overflow:visible;enable-background:accumulate;font-family:Sans;-inkscape-font-specification:Sans" />
    </g>
  </g>
  <g
     inkscape:groupmode="layer"
     id="layer1"
     inkscape:label="2-Red"
     style="display:inline">
    <g
       id="g6039">
      <path
         sodipodi:nodetypes="cczzcccccccccccccczscc"
         inkscape:connector-curvature="0"
         d="m 53.220468,647.30719 14.680157,-36.34825 c 0,0 -4.844056,19.99635 -4.648687,39.4445 0.195373,19.44813 10.445945,55.87878 10.604402,75.98648 0.158457,20.1077 -2.829035,34.8802 -2.829035,34.8802 l -3.213463,7.95658 2.323312,-44.05556 -4.838463,-35.8118 -5.707687,-32.94955 4.057245,-34.92192 -3.429415,8.49128 -1.994412,42.29558 7.648474,50.85799 -2.825538,57.89585 -1.512442,-59.97275 -6.039768,-42.03884 1.294266,-40.54654 -3.429415,8.49127 c 0,0 -1.679919,14.73559 -1.551057,29.245 0.128761,14.50936 6.857292,47.3831 9.145796,75.43082 1.459188,17.88363 -1.120835,37.3476 -1.120835,37.3476 l 10.622622,-26.30175"
         style="fill:none;stroke:#ff0000;stroke-width:5;stroke-linecap:round;stroke-linejoin:round;stroke-miterlimit:4;stroke-opacity:1;stroke-dasharray:none"
         id="path3841" />
      <path
         id="path3850"
         style="fill:none;stroke:#ff0000;stroke-width:5;stroke-linecap:round;stroke-linejoin:round;stroke-miterlimit:4;stroke-opacity:1;stroke-dasharray:none"
         d="m 109.40853,508.18485 13.93114,-34.49368 c 0,0 -4.45512,19.03334 -3.91659,37.63182 0.53853,18.59847 11.36119,53.61262 11.87476,72.84105 0.51357,19.22845 -2.19082,33.29999 -2.19082,33.29999 l -3.04951,7.55061 1.52616,-42.0818 -5.43831,-34.32657 -6.25061,-31.60526 3.40951,-33.31812 -3.25444,8.05803 -1.23079,40.40486 8.49479,48.7625 -1.77959,55.30607 -2.56415,-57.36872 -6.74135,-40.30172 0.56665,-38.74495 -3.25444,8.05803 c 0,0 -1.40683,14.05942 -1.02183,27.93463 0.3849,13.87515 7.64771,45.42602 10.41675,72.28392 1.76559,17.12497 -0.45113,35.6894 -0.45113,35.6894 l 10.08063,-24.95977"
         inkscape:connector-curvature="0"
         sodipodi:nodetypes="cczzcccccccccccccczscc" />
      <path
         sodipodi:nodetypes="cczzcccccccccccccczscc"
         inkscape:connector-curvature="0"
         d="m 168.94318,360.77629 15.05467,-37.27554 c 0,0 -5.03852,20.47784 -5.01473,40.35083 0.0238,19.87297 9.98832,57.01186 9.96922,77.55919 -0.0191,20.54734 -3.14814,35.67032 -3.14814,35.67032 l -3.29544,8.15954 2.72189,-45.04242 -4.53854,-36.55442 -5.43623,-33.62168 4.38111,-35.72383 -3.5169,8.7079 -2.37622,43.24094 7.22532,51.90573 -3.34851,59.19074 -0.98659,-61.27477 -5.68898,-42.90739 1.65807,-41.44734 -3.5169,8.7079 c 0,0 -1.81647,15.07368 -1.81567,29.90019 6.9e-4,14.82646 6.46209,48.36162 8.51032,77.00426 1.30599,18.26295 -1.45568,38.17669 -1.45568,38.17669 l 10.89361,-26.97274"
         style="fill:none;stroke:#ff0000;stroke-width:5;stroke-linecap:round;stroke-linejoin:round;stroke-miterlimit:4;stroke-opacity:1;stroke-dasharray:none"
         id="path3852" />
      <path
         id="path3854"
         style="fill:none;stroke:#ff0000;stroke-width:5;stroke-linecap:round;stroke-linejoin:round;stroke-miterlimit:4;stroke-opacity:1;stroke-dasharray:none"
         d="m 219.10437,236.57656 13.93114,-34.49367 c 0,0 -4.45512,19.03333 -3.91659,37.63181 0.53854,18.59847 11.3612,53.61262 11.87477,72.84106 0.51356,19.22844 -2.19083,33.29998 -2.19083,33.29998 l -3.0495,7.55061 1.52616,-42.0818 -5.43832,-34.32657 -6.2506,-31.60526 3.4095,-33.31811 -3.25443,8.05803 -1.2308,40.40485 8.49479,48.7625 -1.77959,55.30607 -2.56415,-57.36871 -6.74134,-40.30172 0.56664,-38.74496 -3.25443,8.05803 c 0,0 -1.40683,14.05942 -1.02183,27.93463 0.3849,13.87516 7.6477,45.42602 10.41675,72.28392 1.76558,17.12498 -0.45114,35.68941 -0.45114,35.68941 l 10.08063,-24.95977"
         inkscape:connector-curvature="0"
         sodipodi:nodetypes="cczzcccccccccccccczscc" />
      <path
         sodipodi:nodetypes="ccszzccccccczcccccccczscc"
         inkscape:connector-curvature="0"
         d="m 281.10743,95.637535 21.93168,-32.571568 c 0,0 -4.2343,5.719433 -7.81177,14.04004 -2.63445,6.127288 -4.91277,13.665127 -4.88168,21.368312 0.0311,7.703181 9.33024,52.134171 9.36589,70.914221 0.0356,18.78001 -2.80196,32.59421 -2.80196,32.59421 l -3.00856,7.44922 2.38585,-41.16133 -4.26712,-33.42217 -5.08477,-30.74398 2.80985,-19.518243 11.64722,-20.49911 c 0,0 -5.82694,6.399385 -7.91004,9.155093 -2.08311,2.755707 -6.73485,9.325602 -6.73485,9.325602 l -1.16026,36.362268 6.77686,47.46006 -2.9253,54.09117 -1.06552,-56.00715 -5.34121,-39.23171 3.69904,-43.188576 -5.3664,8.926971 c 0,0 -1.7572,18.105765 -1.71817,31.657035 0.039,13.55127 6.06604,44.21882 8.02319,70.40325 1.24793,16.69556 -1.23948,34.8894 -1.23948,34.8894 l 9.94529,-24.62467"
         style="fill:none;stroke:#ff0000;stroke-width:5;stroke-linecap:round;stroke-linejoin:round;stroke-miterlimit:4;stroke-opacity:1;stroke-dasharray:none"
         id="path3856" />
      <path
         id="path3858"
         style="fill:none;stroke:#ff0000;stroke-width:5;stroke-linecap:round;stroke-linejoin:round;stroke-miterlimit:4;stroke-opacity:1;stroke-dasharray:none"
         d="m 11.28079,756.82102 3.030356,19.71619 -7.4724534,-4.18074 4.2439194,-17.31284"
         inkscape:connector-curvature="0"
         sodipodi:nodetypes="cccc" />
      <path
         id="path3860"
         style="fill:none;stroke:#ff0000;stroke-width:5;stroke-linecap:round;stroke-linejoin:round;stroke-miterlimit:4;stroke-opacity:1;stroke-dasharray:none"
         d="m 422.76628,12.872748 c -7.27452,-0.64947 -17.52276,-2.333102 -22.29829,1.446936 -20.02228,15.8489 29.47365,-6.5518703 17.13947,1.903255 -9.42877,6.463555 -19.20002,27.135253 -24.44573,35.676668 -5.2457,8.541415 -19.4008,26.340856 -19.4008,26.340856 l -5.63338,-1.249436 22.69637,-27.8323 11.33194,-23.692251 c 2.37836,-4.422068 15.47448,-13.234219 13.99085,-12.835974 -17.72185,5.163893 -17.59879,4.450197 -27.68792,32.876646 l -29.68631,39.174427 26.60493,-42.603948 c 20.28779,-34.1546592 8.97502,-13.099621 10.29723,-22.85144 -6.41127,14.106237 -16.61472,29.986414 -25.12916,46.564558 -7.64886,14.892752 -19.61218,30.927133 -19.61218,30.927133 0,0 7.06806,-7.728244 10.74786,-10.646739 3.67977,-2.918435 10.93334,-6.98095 10.93334,-6.98095"
         inkscape:connector-curvature="0"
         sodipodi:nodetypes="csszcccccccccsczc" />
      <path
         sodipodi:nodetypes="ccszzccccccczccccccccczsczc"
         inkscape:connector-curvature="0"
         d="m 517.53687,68.92654 15.78337,17.747711 c 0,0 -2.70814,-3.431087 -7.07536,-6.302078 -3.21612,-2.11421 -7.3317,-3.9247 -11.92848,-3.837661 -4.59663,0.087 -32.61938,8.077068 -43.81909,8.256321 -11.19978,0.179115 -12.98148,-1.294382 -12.98148,-1.294382 l -7.21391,-4.409785 21.42868,2.88336 20.62789,-3.770522 20.65823,-3.957539 9.67721,1.688345 9.35316,8.603066 c 0,0 -2.44058,-4.707498 -4.45675,-8.079841 -2.01627,-3.372388 -4.9715,-6.22625 -4.9715,-6.22625 l -4.22374,2.635116 -15.48334,-0.07187 -29.41078,5.943226 -30.57776,-2.46827 32.38036,-0.8238 24.26867,-4.698766 12.09069,-1.040713 10.77177,0.272453 c 0,0 -7.05165,-4.644176 -20.74967,-2.032431 -13.69782,2.611831 -27.36102,5.333824 -43.29229,7.149896 -10.15818,1.157899 -20.59079,-0.739243 -20.59079,-0.739243 0,0 8.77713,3.504924 12.30812,5.337938 3.53109,1.833053 7.21762,4.213222 7.21762,4.213222"
         style="fill:none;stroke:#ff0000;stroke-width:5;stroke-linecap:round;stroke-linejoin:round;stroke-miterlimit:4;stroke-opacity:1;stroke-dasharray:none"
         id="path3862" />
      <path
         id="path3866"
         style="fill:none;stroke:#ff0000;stroke-width:5;stroke-linecap:round;stroke-linejoin:round;stroke-miterlimit:4;stroke-opacity:1;stroke-dasharray:none"
         d="m 538.32685,191.76205 -6.76855,31.3689 c 0,0 1.51576,-5.73615 1.51556,-12.54596 -4e-5,-5.01477 -0.82255,-10.61166 -3.67797,-14.9293 -2.85545,-4.31757 -27.1139,-23.80051 -34.04103,-34.3503 -6.92697,-10.54987 -6.64993,-13.60517 -6.64993,-13.60517 l -0.30592,-10.94374 10.29103,23.14282 15.91821,16.27691 16.1081,16.1345 4.29283,10.80533 -2.25313,16.83429 c 0,0 2.84947,-6.65026 4.72829,-11.6709 1.87947,-5.02045 2.716,-10.46367 2.716,-10.46367 l -4.97027,-1.6249 -9.28303,-14.8779 -23.21683,-22.68716 -16.19665,-31.51468 20.30846,30.22117 18.96896,18.90885 8.25624,10.61235 6.25397,10.55451 c 0,0 0.007,-11.00338 -10.66246,-21.71318 -10.66962,-10.70947 -21.41933,-21.28491 -32.70673,-34.86053 -7.19706,-8.6563 -11.75425,-20.37574 -11.75425,-20.37574 0,0 2.08096,11.60967 2.52971,16.66795 0.44868,5.05846 0.48882,10.76706 0.48882,10.76706"
         inkscape:connector-curvature="0"
         sodipodi:nodetypes="ccszzccccccczccccccccczsczc" />
      <path
         sodipodi:nodetypes="ccccccsccccccccccccccccccc"
         inkscape:connector-curvature="0"
         id="path3872"
         d="m 480.1571,200.80041 -4.03919,10.00108 -0.92056,34.33411 11.0162,33.53019 3.64504,12.87496 5.6504,2.28206 c -6.0582,-18.93251 -14.72153,-40.89113 -16.48089,-54.25726 -2.55506,-19.41291 1.129,-38.76514 1.129,-38.76514 z m -7.29446,18.06116 -3.25527,8.06008 2.12212,26.8004 10.39732,34.69603 1.82672,0.73777 -8.55625,-28.36585 z m -1.13315,34.86048 -5.37517,-18.0124 c -0.0329,1.90207 -0.2089,14.83182 1.53781,28.24806 0.64609,4.96379 2.54962,12.25317 4.97315,20.71987 l 5.73525,2.31632 -5.78089,-19.82163 z m -5.37517,-18.0124 c 0.003,-0.15069 -0.002,-0.72792 -0.002,-0.72792 l 12.71863,-31.49148 z"
         style="fill:none;stroke:#ff0000;stroke-width:5;stroke-linecap:round;stroke-linejoin:round;stroke-miterlimit:4;stroke-opacity:1;stroke-dasharray:none" />
      <path
         id="path3914"
         style="fill:none;stroke:#ff0000;stroke-width:5;stroke-linecap:round;stroke-linejoin:round;stroke-miterlimit:4;stroke-opacity:1;stroke-dasharray:none"
         d="m 853.22045,647.30719 14.68016,-36.34825 c 0,0 -4.84406,19.99635 -4.64869,39.4445 0.19537,19.44813 10.44594,55.87878 10.6044,75.98648 0.15846,20.1077 -2.82903,34.8802 -2.82903,34.8802 l -3.21347,7.95658 2.32331,-44.05556 -4.83846,-35.8118 -5.70769,-32.94955 4.05725,-34.92192 -3.42942,8.49128 -1.99441,42.29558 7.64848,50.85799 -2.82554,57.89585 -1.51244,-59.97275 -6.03977,-42.03884 1.29426,-40.54654 -3.42941,8.49127 c 0,0 -1.67992,14.73559 -1.55106,29.245 0.12876,14.50936 6.85729,47.3831 9.1458,75.43082 1.45919,17.88363 -1.12084,37.3476 -1.12084,37.3476 l 10.62263,-26.30175"
         inkscape:connector-curvature="0"
         sodipodi:nodetypes="cczzcccccccccccccczscc" />
      <path
         sodipodi:nodetypes="cczzcccccccccccccczscc"
         inkscape:connector-curvature="0"
         d="m 909.40851,508.18485 13.93114,-34.49368 c 0,0 -4.45512,19.03334 -3.91659,37.63182 0.53853,18.59847 11.36119,53.61262 11.87476,72.84105 0.51357,19.22845 -2.19082,33.29999 -2.19082,33.29999 l -3.04951,7.55061 1.52616,-42.0818 -5.43831,-34.32657 -6.25061,-31.60526 3.40951,-33.31812 -3.25444,8.05803 -1.23079,40.40486 8.49479,48.7625 -1.77959,55.30607 -2.56415,-57.36872 -6.74135,-40.30172 0.56665,-38.74495 -3.25444,8.05803 c 0,0 -1.40683,14.05942 -1.02183,27.93463 0.3849,13.87515 7.64771,45.42602 10.41675,72.28392 1.76559,17.12497 -0.45113,35.6894 -0.45113,35.6894 l 10.08063,-24.95977"
         style="fill:none;stroke:#ff0000;stroke-width:5;stroke-linecap:round;stroke-linejoin:round;stroke-miterlimit:4;stroke-opacity:1;stroke-dasharray:none"
         id="path3916" />
      <path
         id="path3918"
         style="fill:none;stroke:#ff0000;stroke-width:5;stroke-linecap:round;stroke-linejoin:round;stroke-miterlimit:4;stroke-opacity:1;stroke-dasharray:none"
         d="m 968.94316,360.77629 15.05467,-37.27554 c 0,0 -5.03852,20.47784 -5.01473,40.35083 0.0238,19.87297 9.98832,57.01186 9.96922,77.55919 -0.0191,20.54734 -3.14814,35.67032 -3.14814,35.67032 l -3.29544,8.15954 2.72189,-45.04242 -4.53854,-36.55442 -5.43623,-33.62168 4.38111,-35.72383 -3.5169,8.7079 -2.37622,43.24094 7.22532,51.90573 -3.34851,59.19074 -0.98659,-61.27477 -5.68898,-42.90739 1.65807,-41.44734 -3.5169,8.7079 c 0,0 -1.81647,15.07368 -1.81567,29.90019 6.9e-4,14.82646 6.46209,48.36162 8.51032,77.00426 1.30599,18.26295 -1.45568,38.17669 -1.45568,38.17669 l 10.89361,-26.97274"
         inkscape:connector-curvature="0"
         sodipodi:nodetypes="cczzcccccccccccccczscc" />
      <path
         sodipodi:nodetypes="cczzcccccccccccccczscc"
         inkscape:connector-curvature="0"
         d="m 1019.1044,236.57656 13.9311,-34.49367 c 0,0 -4.4551,19.03333 -3.9166,37.63181 0.5385,18.59847 11.3612,53.61262 11.8748,72.84106 0.5135,19.22844 -2.1909,33.29998 -2.1909,33.29998 l -3.0495,7.55061 1.5262,-42.0818 -5.4383,-34.32657 -6.2506,-31.60526 3.4095,-33.31811 -3.2545,8.05803 -1.2308,40.40485 8.4948,48.7625 -1.7795,55.30607 -2.5642,-57.36871 -6.7413,-40.30172 0.5666,-38.74496 -3.2544,8.05803 c 0,0 -1.4069,14.05942 -1.0219,27.93463 0.3849,13.87516 7.6477,45.42602 10.4168,72.28392 1.7656,17.12498 -0.4511,35.68941 -0.4511,35.68941 l 10.0806,-24.95977"
         style="fill:none;stroke:#ff0000;stroke-width:5;stroke-linecap:round;stroke-linejoin:round;stroke-miterlimit:4;stroke-opacity:1;stroke-dasharray:none"
         id="path3920" />
      <path
         id="path3922"
         style="fill:none;stroke:#ff0000;stroke-width:5;stroke-linecap:round;stroke-linejoin:round;stroke-miterlimit:4;stroke-opacity:1;stroke-dasharray:none"
         d="m 1081.1074,95.637535 21.9317,-32.571568 c 0,0 -4.2343,5.719433 -7.8118,14.04004 -2.6344,6.127288 -4.9128,13.665127 -4.8817,21.368312 0.031,7.703181 9.3303,52.134171 9.3659,70.914221 0.036,18.78001 -2.8019,32.59421 -2.8019,32.59421 l -3.0086,7.44922 2.3859,-41.16133 -4.2672,-33.42217 -5.0847,-30.74398 2.8098,-19.518243 11.6472,-20.49911 c 0,0 -5.8269,6.399385 -7.91,9.155093 -2.0831,2.755707 -6.7348,9.325602 -6.7348,9.325602 l -1.1603,36.362268 6.7768,47.46006 -2.9252,54.09117 -1.0656,-56.00715 -5.3412,-39.23171 3.6991,-43.188576 -5.3664,8.926971 c 0,0 -1.7572,18.105765 -1.7182,31.657035 0.039,13.55127 6.066,44.21882 8.0232,70.40325 1.2479,16.69556 -1.2395,34.8894 -1.2395,34.8894 l 9.9453,-24.62467"
         inkscape:connector-curvature="0"
         sodipodi:nodetypes="ccszzccccccczcccccccczscc" />
      <path
         sodipodi:nodetypes="cccc"
         inkscape:connector-curvature="0"
         d="m 811.28077,756.82102 3.03036,19.71619 -7.47246,-4.18074 4.24392,-17.31284"
         style="fill:none;stroke:#ff0000;stroke-width:5;stroke-linecap:round;stroke-linejoin:round;stroke-miterlimit:4;stroke-opacity:1;stroke-dasharray:none"
         id="path3924" />
      <path
         sodipodi:nodetypes="csszcccccccccsczc"
         inkscape:connector-curvature="0"
         d="m 1222.7663,12.872748 c -7.2746,-0.64947 -17.5228,-2.333102 -22.2983,1.446936 -20.0223,15.8489 29.4736,-6.5518703 17.1394,1.903255 -9.4287,6.463555 -19.2,27.135253 -24.4457,35.676668 -5.2457,8.541415 -19.4008,26.340856 -19.4008,26.340856 l -5.6334,-1.249436 22.6964,-27.8323 11.3319,-23.692251 c 2.3784,-4.422068 15.4745,-13.234219 13.9909,-12.835974 -17.7219,5.163893 -17.5988,4.450197 -27.6879,32.876646 l -29.6863,39.174427 26.6049,-42.603948 c 20.2878,-34.1546592 8.975,-13.099621 10.2972,-22.85144 -6.4112,14.106237 -16.6147,29.986414 -25.1291,46.564558 -7.6489,14.892752 -19.6122,30.927133 -19.6122,30.927133 0,0 7.068,-7.728244 10.7478,-10.646739 3.6798,-2.918435 10.9334,-6.98095 10.9334,-6.98095"
         style="fill:none;stroke:#ff0000;stroke-width:5;stroke-linecap:round;stroke-linejoin:round;stroke-miterlimit:4;stroke-opacity:1;stroke-dasharray:none"
         id="path3926" />
      <path
         id="path3928"
         style="fill:none;stroke:#ff0000;stroke-width:5;stroke-linecap:round;stroke-linejoin:round;stroke-miterlimit:4;stroke-opacity:1;stroke-dasharray:none"
         d="m 1317.5368,68.92654 15.7834,17.747711 c 0,0 -2.7081,-3.431087 -7.0753,-6.302078 -3.2162,-2.11421 -7.3317,-3.9247 -11.9285,-3.837661 -4.5966,0.087 -32.6194,8.077068 -43.8191,8.256321 -11.1998,0.179115 -12.9815,-1.294382 -12.9815,-1.294382 l -7.2139,-4.409785 21.4287,2.88336 20.6279,-3.770522 20.6582,-3.957539 9.6772,1.688345 9.3532,8.603066 c 0,0 -2.4406,-4.707498 -4.4568,-8.079841 -2.0163,-3.372388 -4.9715,-6.22625 -4.9715,-6.22625 l -4.2237,2.635116 -15.4834,-0.07187 -29.4107,5.943226 -30.5778,-2.46827 32.3804,-0.8238 24.2686,-4.698766 12.0907,-1.040713 10.7718,0.272453 c 0,0 -7.0517,-4.644176 -20.7497,-2.032431 -13.6978,2.611831 -27.361,5.333824 -43.2923,7.149896 -10.1581,1.157899 -20.5908,-0.739243 -20.5908,-0.739243 0,0 8.7772,3.504924 12.3082,5.337938 3.5311,1.833053 7.2176,4.213222 7.2176,4.213222"
         inkscape:connector-curvature="0"
         sodipodi:nodetypes="ccszzccccccczccccccccczsczc" />
      <path
         sodipodi:nodetypes="ccszzccccccczccccccccczsczc"
         inkscape:connector-curvature="0"
         d="m 1338.3268,191.76205 -6.7685,31.3689 c 0,0 1.5157,-5.73615 1.5155,-12.54596 0,-5.01477 -0.8225,-10.61166 -3.6779,-14.9293 -2.8555,-4.31757 -27.1139,-23.80051 -34.0411,-34.3503 -6.9269,-10.54987 -6.6499,-13.60517 -6.6499,-13.60517 l -0.3059,-10.94374 10.291,23.14282 15.9182,16.27691 16.1081,16.1345 4.2929,10.80533 -2.2532,16.83429 c 0,0 2.8495,-6.65026 4.7283,-11.6709 1.8795,-5.02045 2.716,-10.46367 2.716,-10.46367 l -4.9703,-1.6249 -9.283,-14.8779 -23.2168,-22.68716 -16.1967,-31.51468 20.3085,30.22117 18.969,18.90885 8.2562,10.61235 6.254,10.55451 c 0,0 0.01,-11.00338 -10.6625,-21.71318 -10.6696,-10.70947 -21.4193,-21.28491 -32.7067,-34.86053 -7.1971,-8.6563 -11.7543,-20.37574 -11.7543,-20.37574 0,0 2.081,11.60967 2.5297,16.66795 0.4487,5.05846 0.4889,10.76706 0.4889,10.76706"
         style="fill:none;stroke:#ff0000;stroke-width:5;stroke-linecap:round;stroke-linejoin:round;stroke-miterlimit:4;stroke-opacity:1;stroke-dasharray:none"
         id="path3930" />
      <path
         style="fill:none;stroke:#ff0000;stroke-width:5;stroke-linecap:round;stroke-linejoin:round;stroke-miterlimit:4;stroke-opacity:1;stroke-dasharray:none"
         d="m 1280.1571,200.80041 -4.0392,10.00108 -0.9206,34.33411 11.0162,33.53019 3.6451,12.87496 5.6504,2.28206 c -6.0582,-18.93251 -14.7216,-40.89113 -16.4809,-54.25726 -2.5551,-19.41291 1.129,-38.76514 1.129,-38.76514 z m -7.2945,18.06116 -3.2552,8.06008 2.1221,26.8004 10.3973,34.69603 1.8267,0.73777 -8.5562,-28.36585 z m -1.1331,34.86048 -5.3752,-18.0124 c -0.033,1.90207 -0.2089,14.83182 1.5378,28.24806 0.6461,4.96379 2.5496,12.25317 4.9732,20.71987 l 5.7352,2.31632 -5.7809,-19.82163 z m -5.3752,-18.0124 c 0,-0.15069 0,-0.72792 0,-0.72792 l 12.7186,-31.49148 z"
         id="path3932"
         inkscape:connector-curvature="0"
         sodipodi:nodetypes="ccccccsccccccccccccccccccc" />
      <path
         sodipodi:nodetypes="cczzcccccccccccccczscc"
         inkscape:connector-curvature="0"
         d="m 1653.2204,647.30719 14.6802,-36.34825 c 0,0 -4.8441,19.99635 -4.6487,39.4445 0.1954,19.44813 10.446,55.87878 10.6044,75.98648 0.1585,20.1077 -2.829,34.8802 -2.829,34.8802 l -3.2135,7.95658 2.3233,-44.05556 -4.8384,-35.8118 -5.7077,-32.94955 4.0572,-34.92192 -3.4294,8.49128 -1.9944,42.29558 7.6485,50.85799 -2.8256,57.89585 -1.5124,-59.97275 -6.0398,-42.03884 1.2943,-40.54654 -3.4294,8.49127 c 0,0 -1.6799,14.73559 -1.5511,29.245 0.1288,14.50936 6.8573,47.3831 9.1458,75.43082 1.4592,17.88363 -1.1208,37.3476 -1.1208,37.3476 l 10.6226,-26.30175"
         style="fill:none;stroke:#ff0000;stroke-width:5;stroke-linecap:round;stroke-linejoin:round;stroke-miterlimit:4;stroke-opacity:1;stroke-dasharray:none"
         id="path3938" />
      <path
         id="path3940"
         style="fill:none;stroke:#ff0000;stroke-width:5;stroke-linecap:round;stroke-linejoin:round;stroke-miterlimit:4;stroke-opacity:1;stroke-dasharray:none"
         d="m 1709.4085,508.18485 13.9311,-34.49368 c 0,0 -4.4551,19.03334 -3.9165,37.63182 0.5385,18.59847 11.3612,53.61262 11.8747,72.84105 0.5136,19.22845 -2.1908,33.29999 -2.1908,33.29999 l -3.0495,7.55061 1.5262,-42.0818 -5.4384,-34.32657 -6.2506,-31.60526 3.4095,-33.31812 -3.2544,8.05803 -1.2308,40.40486 8.4948,48.7625 -1.7796,55.30607 -2.5641,-57.36872 -6.7414,-40.30172 0.5667,-38.74495 -3.2545,8.05803 c 0,0 -1.4068,14.05942 -1.0218,27.93463 0.3849,13.87515 7.6477,45.42602 10.4167,72.28392 1.7656,17.12497 -0.4511,35.6894 -0.4511,35.6894 l 10.0806,-24.95977"
         inkscape:connector-curvature="0"
         sodipodi:nodetypes="cczzcccccccccccccczscc" />
      <path
         sodipodi:nodetypes="cczzcccccccccccccczscc"
         inkscape:connector-curvature="0"
         d="m 1768.9432,360.77629 15.0546,-37.27554 c 0,0 -5.0385,20.47784 -5.0147,40.35083 0.024,19.87297 9.9883,57.01186 9.9692,77.55919 -0.019,20.54734 -3.1481,35.67032 -3.1481,35.67032 l -3.2955,8.15954 2.7219,-45.04242 -4.5385,-36.55442 -5.4362,-33.62168 4.3811,-35.72383 -3.5169,8.7079 -2.3762,43.24094 7.2253,51.90573 -3.3485,59.19074 -0.9866,-61.27477 -5.689,-42.90739 1.6581,-41.44734 -3.5169,8.7079 c 0,0 -1.8165,15.07368 -1.8157,29.90019 7e-4,14.82646 6.4621,48.36162 8.5103,77.00426 1.306,18.26295 -1.4557,38.17669 -1.4557,38.17669 l 10.8936,-26.97274"
         style="fill:none;stroke:#ff0000;stroke-width:5;stroke-linecap:round;stroke-linejoin:round;stroke-miterlimit:4;stroke-opacity:1;stroke-dasharray:none"
         id="path3942" />
      <path
         id="path3944"
         style="fill:none;stroke:#ff0000;stroke-width:5;stroke-linecap:round;stroke-linejoin:round;stroke-miterlimit:4;stroke-opacity:1;stroke-dasharray:none"
         d="m 1819.1044,236.57656 13.9311,-34.49367 c 0,0 -4.4551,19.03333 -3.9166,37.63181 0.5385,18.59847 11.3612,53.61262 11.8748,72.84106 0.5135,19.22844 -2.1909,33.29998 -2.1909,33.29998 l -3.0495,7.55061 1.5262,-42.0818 -5.4383,-34.32657 -6.2506,-31.60526 3.4095,-33.31811 -3.2545,8.05803 -1.2308,40.40485 8.4948,48.7625 -1.7795,55.30607 -2.5642,-57.36871 -6.7413,-40.30172 0.5666,-38.74496 -3.2544,8.05803 c 0,0 -1.4069,14.05942 -1.0219,27.93463 0.3849,13.87516 7.6477,45.42602 10.4168,72.28392 1.7656,17.12498 -0.4511,35.68941 -0.4511,35.68941 l 10.0806,-24.95977"
         inkscape:connector-curvature="0"
         sodipodi:nodetypes="cczzcccccccccccccczscc" />
      <path
         sodipodi:nodetypes="ccszzccccccczcccccccczscc"
         inkscape:connector-curvature="0"
         d="m 1881.1074,95.637535 21.9317,-32.571568 c 0,0 -4.2343,5.719433 -7.8118,14.04004 -2.6344,6.127288 -4.9128,13.665127 -4.8817,21.368312 0.031,7.703181 9.3303,52.134171 9.3659,70.914221 0.036,18.78001 -2.8019,32.59421 -2.8019,32.59421 l -3.0086,7.44922 2.3859,-41.16133 -4.2672,-33.42217 -5.0847,-30.74398 2.8098,-19.518243 11.6472,-20.49911 c 0,0 -5.8269,6.399385 -7.91,9.155093 -2.0831,2.755707 -6.7348,9.325602 -6.7348,9.325602 l -1.1603,36.362268 6.7768,47.46006 -2.9252,54.09117 -1.0656,-56.00715 -5.3412,-39.23171 3.6991,-43.188576 -5.3664,8.926971 c 0,0 -1.7572,18.105765 -1.7182,31.657035 0.039,13.55127 6.066,44.21882 8.0232,70.40325 1.2479,16.69556 -1.2395,34.8894 -1.2395,34.8894 l 9.9453,-24.62467"
         style="fill:none;stroke:#ff0000;stroke-width:5;stroke-linecap:round;stroke-linejoin:round;stroke-miterlimit:4;stroke-opacity:1;stroke-dasharray:none"
         id="path3946" />
      <path
         id="path3948"
         style="fill:none;stroke:#ff0000;stroke-width:5;stroke-linecap:round;stroke-linejoin:round;stroke-miterlimit:4;stroke-opacity:1;stroke-dasharray:none"
         d="m 1611.2808,756.82102 3.0303,19.71619 -7.4724,-4.18074 4.2439,-17.31284"
         inkscape:connector-curvature="0"
         sodipodi:nodetypes="cccc" />
      <path
         id="path3950"
         style="fill:none;stroke:#ff0000;stroke-width:5;stroke-linecap:round;stroke-linejoin:round;stroke-miterlimit:4;stroke-opacity:1;stroke-dasharray:none"
         d="m 2022.7663,12.872748 c -7.2746,-0.64947 -17.5228,-2.333102 -22.2983,1.446936 -20.0223,15.8489 29.4736,-6.5518703 17.1394,1.903255 -9.4287,6.463555 -19.2,27.135253 -24.4457,35.676668 -5.2457,8.541415 -19.4008,26.340856 -19.4008,26.340856 l -5.6334,-1.249436 22.6964,-27.8323 11.3319,-23.692251 c 2.3784,-4.422068 15.4745,-13.234219 13.9909,-12.835974 -17.7219,5.163893 -17.5988,4.450197 -27.6879,32.876646 l -29.6863,39.174427 26.6049,-42.603948 c 20.2878,-34.1546592 8.975,-13.099621 10.2972,-22.85144 -6.4112,14.106237 -16.6147,29.986414 -25.1291,46.564558 -7.6489,14.892752 -19.6122,30.927133 -19.6122,30.927133 0,0 7.068,-7.728244 10.7478,-10.646739 3.6798,-2.918435 10.9334,-6.98095 10.9334,-6.98095"
         inkscape:connector-curvature="0"
         sodipodi:nodetypes="csszcccccccccsczc" />
      <path
         sodipodi:nodetypes="ccszzccccccczccccccccczsczc"
         inkscape:connector-curvature="0"
         d="m 2117.5368,68.92654 15.7834,17.747711 c 0,0 -2.7081,-3.431087 -7.0753,-6.302078 -3.2162,-2.11421 -7.3317,-3.9247 -11.9285,-3.837661 -4.5966,0.087 -32.6194,8.077068 -43.8191,8.256321 -11.1998,0.179115 -12.9815,-1.294382 -12.9815,-1.294382 l -7.2139,-4.409785 21.4287,2.88336 20.6279,-3.770522 20.6582,-3.957539 9.6772,1.688345 9.3532,8.603066 c 0,0 -2.4406,-4.707498 -4.4568,-8.079841 -2.0163,-3.372388 -4.9715,-6.22625 -4.9715,-6.22625 l -4.2237,2.635116 -15.4834,-0.07187 -29.4107,5.943226 -30.5778,-2.46827 32.3804,-0.8238 24.2686,-4.698766 12.0907,-1.040713 10.7718,0.272453 c 0,0 -7.0517,-4.644176 -20.7497,-2.032431 -13.6978,2.611831 -27.361,5.333824 -43.2923,7.149896 -10.1581,1.157899 -20.5908,-0.739243 -20.5908,-0.739243 0,0 8.7772,3.504924 12.3082,5.337938 3.5311,1.833053 7.2176,4.213222 7.2176,4.213222"
         style="fill:none;stroke:#ff0000;stroke-width:5;stroke-linecap:round;stroke-linejoin:round;stroke-miterlimit:4;stroke-opacity:1;stroke-dasharray:none"
         id="path3952" />
      <path
         id="path3954"
         style="fill:none;stroke:#ff0000;stroke-width:5;stroke-linecap:round;stroke-linejoin:round;stroke-miterlimit:4;stroke-opacity:1;stroke-dasharray:none"
         d="m 2138.3268,191.76205 -6.7685,31.3689 c 0,0 1.5157,-5.73615 1.5155,-12.54596 0,-5.01477 -0.8225,-10.61166 -3.6779,-14.9293 -2.8555,-4.31757 -27.1139,-23.80051 -34.0411,-34.3503 -6.9269,-10.54987 -6.6499,-13.60517 -6.6499,-13.60517 l -0.3059,-10.94374 10.291,23.14282 15.9182,16.27691 16.1081,16.1345 4.2929,10.80533 -2.2532,16.83429 c 0,0 2.8495,-6.65026 4.7283,-11.6709 1.8795,-5.02045 2.716,-10.46367 2.716,-10.46367 l -4.9703,-1.6249 -9.283,-14.8779 -23.2168,-22.68716 -16.1967,-31.51468 20.3085,30.22117 18.969,18.90885 8.2562,10.61235 6.254,10.55451 c 0,0 0.01,-11.00338 -10.6625,-21.71318 -10.6696,-10.70947 -21.4193,-21.28491 -32.7067,-34.86053 -7.1971,-8.6563 -11.7543,-20.37574 -11.7543,-20.37574 0,0 2.081,11.60967 2.5297,16.66795 0.4487,5.05846 0.4889,10.76706 0.4889,10.76706"
         inkscape:connector-curvature="0"
         sodipodi:nodetypes="ccszzccccccczccccccccczsczc" />
      <path
         sodipodi:nodetypes="ccccccsccccccccccccccccccc"
         inkscape:connector-curvature="0"
         id="path3956"
         d="m 2080.1571,200.80041 -4.0392,10.00108 -0.9206,34.33411 11.0162,33.53019 3.6451,12.87496 5.6504,2.28206 c -6.0582,-18.93251 -14.7216,-40.89113 -16.4809,-54.25726 -2.5551,-19.41291 1.129,-38.76514 1.129,-38.76514 z m -7.2945,18.06116 -3.2552,8.06008 2.1221,26.8004 10.3973,34.69603 1.8267,0.73777 -8.5562,-28.36585 z m -1.1331,34.86048 -5.3752,-18.0124 c -0.033,1.90207 -0.2089,14.83182 1.5378,28.24806 0.6461,4.96379 2.5496,12.25317 4.9732,20.71987 l 5.7352,2.31632 -5.7809,-19.82163 z m -5.3752,-18.0124 c 0,-0.15069 0,-0.72792 0,-0.72792 l 12.7186,-31.49148 z"
         style="fill:none;stroke:#ff0000;stroke-width:5;stroke-linecap:round;stroke-linejoin:round;stroke-miterlimit:4;stroke-opacity:1;stroke-dasharray:none" />
      <path
         id="path3962"
         style="fill:none;stroke:#ff0000;stroke-width:5;stroke-linecap:round;stroke-linejoin:round;stroke-miterlimit:4;stroke-opacity:1;stroke-dasharray:none"
         d="m 2453.2205,647.30719 14.6801,-36.34825 c 0,0 -4.844,19.99635 -4.6487,39.4445 0.1954,19.44813 10.446,55.87878 10.6044,75.98648 0.1585,20.1077 -2.829,34.8802 -2.829,34.8802 l -3.2135,7.95658 2.3234,-44.05556 -4.8385,-35.8118 -5.7077,-32.94955 4.0572,-34.92192 -3.4294,8.49128 -1.9944,42.29558 7.6485,50.85799 -2.8255,57.89585 -1.5125,-59.97275 -6.0398,-42.03884 1.2943,-40.54654 -3.4294,8.49127 c 0,0 -1.6799,14.73559 -1.5511,29.245 0.1288,14.50936 6.8573,47.3831 9.1458,75.43082 1.4592,17.88363 -1.1208,37.3476 -1.1208,37.3476 l 10.6226,-26.30175"
         inkscape:connector-curvature="0"
         sodipodi:nodetypes="cczzcccccccccccccczscc" />
      <path
         sodipodi:nodetypes="cczzcccccccccccccczscc"
         inkscape:connector-curvature="0"
         d="m 2509.4085,508.18485 13.9312,-34.49368 c 0,0 -4.4552,19.03334 -3.9166,37.63182 0.5385,18.59847 11.3612,53.61262 11.8747,72.84105 0.5136,19.22845 -2.1908,33.29999 -2.1908,33.29999 l -3.0495,7.55061 1.5262,-42.0818 -5.4383,-34.32657 -6.2506,-31.60526 3.4095,-33.31812 -3.2545,8.05803 -1.2308,40.40486 8.4948,48.7625 -1.7796,55.30607 -2.5641,-57.36872 -6.7414,-40.30172 0.5667,-38.74495 -3.2545,8.05803 c 0,0 -1.4068,14.05942 -1.0218,27.93463 0.3849,13.87515 7.6477,45.42602 10.4168,72.28392 1.7656,17.12497 -0.4512,35.6894 -0.4512,35.6894 l 10.0807,-24.95977"
         style="fill:none;stroke:#ff0000;stroke-width:5;stroke-linecap:round;stroke-linejoin:round;stroke-miterlimit:4;stroke-opacity:1;stroke-dasharray:none"
         id="path3964" />
      <path
         id="path3966"
         style="fill:none;stroke:#ff0000;stroke-width:5;stroke-linecap:round;stroke-linejoin:round;stroke-miterlimit:4;stroke-opacity:1;stroke-dasharray:none"
         d="m 2568.9432,360.77629 15.0547,-37.27554 c 0,0 -5.0386,20.47784 -5.0148,40.35083 0.024,19.87297 9.9883,57.01186 9.9692,77.55919 -0.019,20.54734 -3.1481,35.67032 -3.1481,35.67032 l -3.2954,8.15954 2.7218,-45.04242 -4.5385,-36.55442 -5.4362,-33.62168 4.3811,-35.72383 -3.5169,8.7079 -2.3762,43.24094 7.2253,51.90573 -3.3485,59.19074 -0.9866,-61.27477 -5.689,-42.90739 1.6581,-41.44734 -3.5169,8.7079 c 0,0 -1.8165,15.07368 -1.8157,29.90019 7e-4,14.82646 6.4621,48.36162 8.5103,77.00426 1.306,18.26295 -1.4557,38.17669 -1.4557,38.17669 l 10.8937,-26.97274"
         inkscape:connector-curvature="0"
         sodipodi:nodetypes="cczzcccccccccccccczscc" />
      <path
         sodipodi:nodetypes="cczzcccccccccccccczscc"
         inkscape:connector-curvature="0"
         d="m 2619.1044,236.57656 13.9311,-34.49367 c 0,0 -4.4551,19.03333 -3.9166,37.63181 0.5386,18.59847 11.3612,53.61262 11.8748,72.84106 0.5136,19.22844 -2.1908,33.29998 -2.1908,33.29998 l -3.0495,7.55061 1.5261,-42.0818 -5.4383,-34.32657 -6.2506,-31.60526 3.4095,-33.31811 -3.2544,8.05803 -1.2308,40.40485 8.4948,48.7625 -1.7796,55.30607 -2.5642,-57.36871 -6.7413,-40.30172 0.5666,-38.74496 -3.2544,8.05803 c 0,0 -1.4068,14.05942 -1.0218,27.93463 0.3849,13.87516 7.6477,45.42602 10.4167,72.28392 1.7656,17.12498 -0.4511,35.68941 -0.4511,35.68941 l 10.0806,-24.95977"
         style="fill:none;stroke:#ff0000;stroke-width:5;stroke-linecap:round;stroke-linejoin:round;stroke-miterlimit:4;stroke-opacity:1;stroke-dasharray:none"
         id="path3968" />
      <path
         id="path3970"
         style="fill:none;stroke:#ff0000;stroke-width:5;stroke-linecap:round;stroke-linejoin:round;stroke-miterlimit:4;stroke-opacity:1;stroke-dasharray:none"
         d="m 2681.1074,95.637535 21.9317,-32.571568 c 0,0 -4.2343,5.719433 -7.8118,14.04004 -2.6344,6.127288 -4.9127,13.665127 -4.8816,21.368312 0.031,7.703181 9.3302,52.134171 9.3659,70.914221 0.035,18.78001 -2.802,32.59421 -2.802,32.59421 l -3.0086,7.44922 2.3859,-41.16133 -4.2671,-33.42217 -5.0848,-30.74398 2.8098,-19.518243 11.6473,-20.49911 c 0,0 -5.827,6.399385 -7.9101,9.155093 -2.0831,2.755707 -6.7348,9.325602 -6.7348,9.325602 l -1.1603,36.362268 6.7769,47.46006 -2.9253,54.09117 -1.0656,-56.00715 -5.3412,-39.23171 3.6991,-43.188576 -5.3664,8.926971 c 0,0 -1.7572,18.105765 -1.7182,31.657035 0.039,13.55127 6.066,44.21882 8.0232,70.40325 1.2479,16.69556 -1.2395,34.8894 -1.2395,34.8894 l 9.9453,-24.62467"
         inkscape:connector-curvature="0"
         sodipodi:nodetypes="ccszzccccccczcccccccczscc" />
      <path
         sodipodi:nodetypes="cccc"
         inkscape:connector-curvature="0"
         d="m 2411.2808,756.82102 3.0303,19.71619 -7.4724,-4.18074 4.2439,-17.31284"
         style="fill:none;stroke:#ff0000;stroke-width:5;stroke-linecap:round;stroke-linejoin:round;stroke-miterlimit:4;stroke-opacity:1;stroke-dasharray:none"
         id="path3972" />
      <path
         sodipodi:nodetypes="csszcccccccccsczc"
         inkscape:connector-curvature="0"
         d="m 2822.7663,12.872748 c -7.2745,-0.64947 -17.5228,-2.333102 -22.2983,1.446936 -20.0223,15.8489 29.4736,-6.5518703 17.1395,1.903255 -9.4288,6.463555 -19.2001,27.135253 -24.4458,35.676668 -5.2457,8.541415 -19.4008,26.340856 -19.4008,26.340856 l -5.6333,-1.249436 22.6963,-27.8323 11.332,-23.692251 c 2.3783,-4.422068 15.4744,-13.234219 13.9908,-12.835974 -17.7218,5.163893 -17.5988,4.450197 -27.6879,32.876646 l -29.6863,39.174427 26.6049,-42.603948 c 20.2878,-34.1546592 8.975,-13.099621 10.2972,-22.85144 -6.4112,14.106237 -16.6147,29.986414 -25.1291,46.564558 -7.6489,14.892752 -19.6122,30.927133 -19.6122,30.927133 0,0 7.0681,-7.728244 10.7479,-10.646739 3.6797,-2.918435 10.9333,-6.98095 10.9333,-6.98095"
         style="fill:none;stroke:#ff0000;stroke-width:5;stroke-linecap:round;stroke-linejoin:round;stroke-miterlimit:4;stroke-opacity:1;stroke-dasharray:none"
         id="path3974" />
      <path
         id="path3976"
         style="fill:none;stroke:#ff0000;stroke-width:5;stroke-linecap:round;stroke-linejoin:round;stroke-miterlimit:4;stroke-opacity:1;stroke-dasharray:none"
         d="m 2917.5369,68.92654 15.7833,17.747711 c 0,0 -2.7081,-3.431087 -7.0753,-6.302078 -3.2161,-2.11421 -7.3317,-3.9247 -11.9285,-3.837661 -4.5966,0.087 -32.6194,8.077068 -43.8191,8.256321 -11.1998,0.179115 -12.9815,-1.294382 -12.9815,-1.294382 l -7.2139,-4.409785 21.4287,2.88336 20.6279,-3.770522 20.6582,-3.957539 9.6772,1.688345 9.3532,8.603066 c 0,0 -2.4406,-4.707498 -4.4568,-8.079841 -2.0162,-3.372388 -4.9715,-6.22625 -4.9715,-6.22625 l -4.2237,2.635116 -15.4833,-0.07187 -29.4108,5.943226 -30.5778,-2.46827 32.3804,-0.8238 24.2687,-4.698766 12.0906,-1.040713 10.7718,0.272453 c 0,0 -7.0516,-4.644176 -20.7497,-2.032431 -13.6978,2.611831 -27.361,5.333824 -43.2922,7.149896 -10.1582,1.157899 -20.5908,-0.739243 -20.5908,-0.739243 0,0 8.7771,3.504924 12.3081,5.337938 3.5311,1.833053 7.2176,4.213222 7.2176,4.213222"
         inkscape:connector-curvature="0"
         sodipodi:nodetypes="ccszzccccccczccccccccczsczc" />
      <path
         sodipodi:nodetypes="ccszzccccccczccccccccczsczc"
         inkscape:connector-curvature="0"
         d="m 2938.3268,191.76205 -6.7685,31.3689 c 0,0 1.5158,-5.73615 1.5156,-12.54596 -10e-5,-5.01477 -0.8226,-10.61166 -3.678,-14.9293 -2.8555,-4.31757 -27.1139,-23.80051 -34.041,-34.3503 -6.927,-10.54987 -6.65,-13.60517 -6.65,-13.60517 l -0.3059,-10.94374 10.291,23.14282 15.9183,16.27691 16.1081,16.1345 4.2928,10.80533 -2.2531,16.83429 c 0,0 2.8494,-6.65026 4.7282,-11.6709 1.8795,-5.02045 2.716,-10.46367 2.716,-10.46367 l -4.9702,-1.6249 -9.2831,-14.8779 -23.2168,-22.68716 -16.1966,-31.51468 20.3084,30.22117 18.969,18.90885 8.2562,10.61235 6.254,10.55451 c 0,0 0.01,-11.00338 -10.6625,-21.71318 -10.6696,-10.70947 -21.4193,-21.28491 -32.7067,-34.86053 -7.1971,-8.6563 -11.7542,-20.37574 -11.7542,-20.37574 0,0 2.0809,11.60967 2.5297,16.66795 0.4486,5.05846 0.4888,10.76706 0.4888,10.76706"
         style="fill:none;stroke:#ff0000;stroke-width:5;stroke-linecap:round;stroke-linejoin:round;stroke-miterlimit:4;stroke-opacity:1;stroke-dasharray:none"
         id="path3978" />
      <path
         style="fill:none;stroke:#ff0000;stroke-width:5;stroke-linecap:round;stroke-linejoin:round;stroke-miterlimit:4;stroke-opacity:1;stroke-dasharray:none"
         d="m 2880.1571,200.80041 -4.0392,10.00108 -0.9206,34.33411 11.0163,33.53019 3.645,12.87496 5.6504,2.28206 c -6.0582,-18.93251 -14.7215,-40.89113 -16.4809,-54.25726 -2.5551,-19.41291 1.129,-38.76514 1.129,-38.76514 z m -7.2945,18.06116 -3.2552,8.06008 2.1221,26.8004 10.3973,34.69603 1.8267,0.73777 -8.5562,-28.36585 z m -1.1331,34.86048 -5.3752,-18.0124 c -0.033,1.90207 -0.2089,14.83182 1.5378,28.24806 0.6461,4.96379 2.5497,12.25317 4.9732,20.71987 l 5.7352,2.31632 -5.7809,-19.82163 z m -5.3752,-18.0124 c 0,-0.15069 0,-0.72792 0,-0.72792 l 12.7186,-31.49148 z"
         id="path3980"
         inkscape:connector-curvature="0"
         sodipodi:nodetypes="ccccccsccccccccccccccccccc" />
    </g>
    <g
       id="g6081"
       transform="translate(400.00031,0)">
      <path
         id="path6083"
         style="fill:none;stroke:#ff0000;stroke-width:5;stroke-linecap:round;stroke-linejoin:round;stroke-miterlimit:4;stroke-opacity:1;stroke-dasharray:none"
         d="m 53.220468,647.30719 14.680157,-36.34825 c 0,0 -4.844056,19.99635 -4.648687,39.4445 0.195373,19.44813 10.445945,55.87878 10.604402,75.98648 0.158457,20.1077 -2.829035,34.8802 -2.829035,34.8802 l -3.213463,7.95658 2.323312,-44.05556 -4.838463,-35.8118 -5.707687,-32.94955 4.057245,-34.92192 -3.429415,8.49128 -1.994412,42.29558 7.648474,50.85799 -2.825538,57.89585 -1.512442,-59.97275 -6.039768,-42.03884 1.294266,-40.54654 -3.429415,8.49127 c 0,0 -1.679919,14.73559 -1.551057,29.245 0.128761,14.50936 6.857292,47.3831 9.145796,75.43082 1.459188,17.88363 -1.120835,37.3476 -1.120835,37.3476 l 10.622622,-26.30175"
         inkscape:connector-curvature="0"
         sodipodi:nodetypes="cczzcccccccccccccczscc" />
      <path
         sodipodi:nodetypes="cczzcccccccccccccczscc"
         inkscape:connector-curvature="0"
         d="m 109.40853,508.18485 13.93114,-34.49368 c 0,0 -4.45512,19.03334 -3.91659,37.63182 0.53853,18.59847 11.36119,53.61262 11.87476,72.84105 0.51357,19.22845 -2.19082,33.29999 -2.19082,33.29999 l -3.04951,7.55061 1.52616,-42.0818 -5.43831,-34.32657 -6.25061,-31.60526 3.40951,-33.31812 -3.25444,8.05803 -1.23079,40.40486 8.49479,48.7625 -1.77959,55.30607 -2.56415,-57.36872 -6.74135,-40.30172 0.56665,-38.74495 -3.25444,8.05803 c 0,0 -1.40683,14.05942 -1.02183,27.93463 0.3849,13.87515 7.64771,45.42602 10.41675,72.28392 1.76559,17.12497 -0.45113,35.6894 -0.45113,35.6894 l 10.08063,-24.95977"
         style="fill:none;stroke:#ff0000;stroke-width:5;stroke-linecap:round;stroke-linejoin:round;stroke-miterlimit:4;stroke-opacity:1;stroke-dasharray:none"
         id="path6085" />
      <path
         id="path6087"
         style="fill:none;stroke:#ff0000;stroke-width:5;stroke-linecap:round;stroke-linejoin:round;stroke-miterlimit:4;stroke-opacity:1;stroke-dasharray:none"
         d="m 168.94318,360.77629 15.05467,-37.27554 c 0,0 -5.03852,20.47784 -5.01473,40.35083 0.0238,19.87297 9.98832,57.01186 9.96922,77.55919 -0.0191,20.54734 -3.14814,35.67032 -3.14814,35.67032 l -3.29544,8.15954 2.72189,-45.04242 -4.53854,-36.55442 -5.43623,-33.62168 4.38111,-35.72383 -3.5169,8.7079 -2.37622,43.24094 7.22532,51.90573 -3.34851,59.19074 -0.98659,-61.27477 -5.68898,-42.90739 1.65807,-41.44734 -3.5169,8.7079 c 0,0 -1.81647,15.07368 -1.81567,29.90019 6.9e-4,14.82646 6.46209,48.36162 8.51032,77.00426 1.30599,18.26295 -1.45568,38.17669 -1.45568,38.17669 l 10.89361,-26.97274"
         inkscape:connector-curvature="0"
         sodipodi:nodetypes="cczzcccccccccccccczscc" />
      <path
         sodipodi:nodetypes="cczzcccccccccccccczscc"
         inkscape:connector-curvature="0"
         d="m 219.10437,236.57656 13.93114,-34.49367 c 0,0 -4.45512,19.03333 -3.91659,37.63181 0.53854,18.59847 11.3612,53.61262 11.87477,72.84106 0.51356,19.22844 -2.19083,33.29998 -2.19083,33.29998 l -3.0495,7.55061 1.52616,-42.0818 -5.43832,-34.32657 -6.2506,-31.60526 3.4095,-33.31811 -3.25443,8.05803 -1.2308,40.40485 8.49479,48.7625 -1.77959,55.30607 -2.56415,-57.36871 -6.74134,-40.30172 0.56664,-38.74496 -3.25443,8.05803 c 0,0 -1.40683,14.05942 -1.02183,27.93463 0.3849,13.87516 7.6477,45.42602 10.41675,72.28392 1.76558,17.12498 -0.45114,35.68941 -0.45114,35.68941 l 10.08063,-24.95977"
         style="fill:none;stroke:#ff0000;stroke-width:5;stroke-linecap:round;stroke-linejoin:round;stroke-miterlimit:4;stroke-opacity:1;stroke-dasharray:none"
         id="path6089" />
      <path
         id="path6091"
         style="fill:none;stroke:#ff0000;stroke-width:5;stroke-linecap:round;stroke-linejoin:round;stroke-miterlimit:4;stroke-opacity:1;stroke-dasharray:none"
         d="m 281.10743,95.637535 21.93168,-32.571568 c 0,0 -4.2343,5.719433 -7.81177,14.04004 -2.63445,6.127288 -4.91277,13.665127 -4.88168,21.368312 0.0311,7.703181 9.33024,52.134171 9.36589,70.914221 0.0356,18.78001 -2.80196,32.59421 -2.80196,32.59421 l -3.00856,7.44922 2.38585,-41.16133 -4.26712,-33.42217 -5.08477,-30.74398 2.80985,-19.518243 11.64722,-20.49911 c 0,0 -5.82694,6.399385 -7.91004,9.155093 -2.08311,2.755707 -6.73485,9.325602 -6.73485,9.325602 l -1.16026,36.362268 6.77686,47.46006 -2.9253,54.09117 -1.06552,-56.00715 -5.34121,-39.23171 3.69904,-43.188576 -5.3664,8.926971 c 0,0 -1.7572,18.105765 -1.71817,31.657035 0.039,13.55127 6.06604,44.21882 8.02319,70.40325 1.24793,16.69556 -1.23948,34.8894 -1.23948,34.8894 l 9.94529,-24.62467"
         inkscape:connector-curvature="0"
         sodipodi:nodetypes="ccszzccccccczcccccccczscc" />
      <path
         sodipodi:nodetypes="cccc"
         inkscape:connector-curvature="0"
         d="m 11.28079,756.82102 3.030356,19.71619 -7.4724534,-4.18074 4.2439194,-17.31284"
         style="fill:none;stroke:#ff0000;stroke-width:5;stroke-linecap:round;stroke-linejoin:round;stroke-miterlimit:4;stroke-opacity:1;stroke-dasharray:none"
         id="path6093" />
      <path
         sodipodi:nodetypes="csszcccccccccsczc"
         inkscape:connector-curvature="0"
         d="m 422.76628,12.872748 c -7.27452,-0.64947 -17.52276,-2.333102 -22.29829,1.446936 -20.02228,15.8489 29.47365,-6.5518703 17.13947,1.903255 -9.42877,6.463555 -19.20002,27.135253 -24.44573,35.676668 -5.2457,8.541415 -19.4008,26.340856 -19.4008,26.340856 l -5.63338,-1.249436 22.69637,-27.8323 11.33194,-23.692251 c 2.37836,-4.422068 15.47448,-13.234219 13.99085,-12.835974 -17.72185,5.163893 -17.59879,4.450197 -27.68792,32.876646 l -29.68631,39.174427 26.60493,-42.603948 c 20.28779,-34.1546592 8.97502,-13.099621 10.29723,-22.85144 -6.41127,14.106237 -16.61472,29.986414 -25.12916,46.564558 -7.64886,14.892752 -19.61218,30.927133 -19.61218,30.927133 0,0 7.06806,-7.728244 10.74786,-10.646739 3.67977,-2.918435 10.93334,-6.98095 10.93334,-6.98095"
         style="fill:none;stroke:#ff0000;stroke-width:5;stroke-linecap:round;stroke-linejoin:round;stroke-miterlimit:4;stroke-opacity:1;stroke-dasharray:none"
         id="path6095" />
      <path
         id="path6097"
         style="fill:none;stroke:#ff0000;stroke-width:5;stroke-linecap:round;stroke-linejoin:round;stroke-miterlimit:4;stroke-opacity:1;stroke-dasharray:none"
         d="m 517.53687,68.92654 15.78337,17.747711 c 0,0 -2.70814,-3.431087 -7.07536,-6.302078 -3.21612,-2.11421 -7.3317,-3.9247 -11.92848,-3.837661 -4.59663,0.087 -32.61938,8.077068 -43.81909,8.256321 -11.19978,0.179115 -12.98148,-1.294382 -12.98148,-1.294382 l -7.21391,-4.409785 21.42868,2.88336 20.62789,-3.770522 20.65823,-3.957539 9.67721,1.688345 9.35316,8.603066 c 0,0 -2.44058,-4.707498 -4.45675,-8.079841 -2.01627,-3.372388 -4.9715,-6.22625 -4.9715,-6.22625 l -4.22374,2.635116 -15.48334,-0.07187 -29.41078,5.943226 -30.57776,-2.46827 32.38036,-0.8238 24.26867,-4.698766 12.09069,-1.040713 10.77177,0.272453 c 0,0 -7.05165,-4.644176 -20.74967,-2.032431 -13.69782,2.611831 -27.36102,5.333824 -43.29229,7.149896 -10.15818,1.157899 -20.59079,-0.739243 -20.59079,-0.739243 0,0 8.77713,3.504924 12.30812,5.337938 3.53109,1.833053 7.21762,4.213222 7.21762,4.213222"
         inkscape:connector-curvature="0"
         sodipodi:nodetypes="ccszzccccccczccccccccczsczc" />
      <path
         sodipodi:nodetypes="ccszzccccccczccccccccczsczc"
         inkscape:connector-curvature="0"
         d="m 538.32685,191.76205 -6.76855,31.3689 c 0,0 1.51576,-5.73615 1.51556,-12.54596 -4e-5,-5.01477 -0.82255,-10.61166 -3.67797,-14.9293 -2.85545,-4.31757 -27.1139,-23.80051 -34.04103,-34.3503 -6.92697,-10.54987 -6.64993,-13.60517 -6.64993,-13.60517 l -0.30592,-10.94374 10.29103,23.14282 15.91821,16.27691 16.1081,16.1345 4.29283,10.80533 -2.25313,16.83429 c 0,0 2.84947,-6.65026 4.72829,-11.6709 1.87947,-5.02045 2.716,-10.46367 2.716,-10.46367 l -4.97027,-1.6249 -9.28303,-14.8779 -23.21683,-22.68716 -16.19665,-31.51468 20.30846,30.22117 18.96896,18.90885 8.25624,10.61235 6.25397,10.55451 c 0,0 0.007,-11.00338 -10.66246,-21.71318 -10.66962,-10.70947 -21.41933,-21.28491 -32.70673,-34.86053 -7.19706,-8.6563 -11.75425,-20.37574 -11.75425,-20.37574 0,0 2.08096,11.60967 2.52971,16.66795 0.44868,5.05846 0.48882,10.76706 0.48882,10.76706"
         style="fill:none;stroke:#ff0000;stroke-width:5;stroke-linecap:round;stroke-linejoin:round;stroke-miterlimit:4;stroke-opacity:1;stroke-dasharray:none"
         id="path6099" />
      <path
         style="fill:none;stroke:#ff0000;stroke-width:5;stroke-linecap:round;stroke-linejoin:round;stroke-miterlimit:4;stroke-opacity:1;stroke-dasharray:none"
         d="m 480.1571,200.80041 -4.03919,10.00108 -0.92056,34.33411 11.0162,33.53019 3.64504,12.87496 5.6504,2.28206 c -6.0582,-18.93251 -14.72153,-40.89113 -16.48089,-54.25726 -2.55506,-19.41291 1.129,-38.76514 1.129,-38.76514 z m -7.29446,18.06116 -3.25527,8.06008 2.12212,26.8004 10.39732,34.69603 1.82672,0.73777 -8.55625,-28.36585 z m -1.13315,34.86048 -5.37517,-18.0124 c -0.0329,1.90207 -0.2089,14.83182 1.53781,28.24806 0.64609,4.96379 2.54962,12.25317 4.97315,20.71987 l 5.73525,2.31632 -5.78089,-19.82163 z m -5.37517,-18.0124 c 0.003,-0.15069 -0.002,-0.72792 -0.002,-0.72792 l 12.71863,-31.49148 z"
         id="path6101"
         inkscape:connector-curvature="0"
         sodipodi:nodetypes="ccccccsccccccccccccccccccc" />
      <path
         sodipodi:nodetypes="cczzcccccccccccccczscc"
         inkscape:connector-curvature="0"
         d="m 853.22045,647.30719 14.68016,-36.34825 c 0,0 -4.84406,19.99635 -4.64869,39.4445 0.19537,19.44813 10.44594,55.87878 10.6044,75.98648 0.15846,20.1077 -2.82903,34.8802 -2.82903,34.8802 l -3.21347,7.95658 2.32331,-44.05556 -4.83846,-35.8118 -5.70769,-32.94955 4.05725,-34.92192 -3.42942,8.49128 -1.99441,42.29558 7.64848,50.85799 -2.82554,57.89585 -1.51244,-59.97275 -6.03977,-42.03884 1.29426,-40.54654 -3.42941,8.49127 c 0,0 -1.67992,14.73559 -1.55106,29.245 0.12876,14.50936 6.85729,47.3831 9.1458,75.43082 1.45919,17.88363 -1.12084,37.3476 -1.12084,37.3476 l 10.62263,-26.30175"
         style="fill:none;stroke:#ff0000;stroke-width:5;stroke-linecap:round;stroke-linejoin:round;stroke-miterlimit:4;stroke-opacity:1;stroke-dasharray:none"
         id="path6103" />
      <path
         id="path6105"
         style="fill:none;stroke:#ff0000;stroke-width:5;stroke-linecap:round;stroke-linejoin:round;stroke-miterlimit:4;stroke-opacity:1;stroke-dasharray:none"
         d="m 909.40851,508.18485 13.93114,-34.49368 c 0,0 -4.45512,19.03334 -3.91659,37.63182 0.53853,18.59847 11.36119,53.61262 11.87476,72.84105 0.51357,19.22845 -2.19082,33.29999 -2.19082,33.29999 l -3.04951,7.55061 1.52616,-42.0818 -5.43831,-34.32657 -6.25061,-31.60526 3.40951,-33.31812 -3.25444,8.05803 -1.23079,40.40486 8.49479,48.7625 -1.77959,55.30607 -2.56415,-57.36872 -6.74135,-40.30172 0.56665,-38.74495 -3.25444,8.05803 c 0,0 -1.40683,14.05942 -1.02183,27.93463 0.3849,13.87515 7.64771,45.42602 10.41675,72.28392 1.76559,17.12497 -0.45113,35.6894 -0.45113,35.6894 l 10.08063,-24.95977"
         inkscape:connector-curvature="0"
         sodipodi:nodetypes="cczzcccccccccccccczscc" />
      <path
         sodipodi:nodetypes="cczzcccccccccccccczscc"
         inkscape:connector-curvature="0"
         d="m 968.94316,360.77629 15.05467,-37.27554 c 0,0 -5.03852,20.47784 -5.01473,40.35083 0.0238,19.87297 9.98832,57.01186 9.96922,77.55919 -0.0191,20.54734 -3.14814,35.67032 -3.14814,35.67032 l -3.29544,8.15954 2.72189,-45.04242 -4.53854,-36.55442 -5.43623,-33.62168 4.38111,-35.72383 -3.5169,8.7079 -2.37622,43.24094 7.22532,51.90573 -3.34851,59.19074 -0.98659,-61.27477 -5.68898,-42.90739 1.65807,-41.44734 -3.5169,8.7079 c 0,0 -1.81647,15.07368 -1.81567,29.90019 6.9e-4,14.82646 6.46209,48.36162 8.51032,77.00426 1.30599,18.26295 -1.45568,38.17669 -1.45568,38.17669 l 10.89361,-26.97274"
         style="fill:none;stroke:#ff0000;stroke-width:5;stroke-linecap:round;stroke-linejoin:round;stroke-miterlimit:4;stroke-opacity:1;stroke-dasharray:none"
         id="path6107" />
      <path
         id="path6109"
         style="fill:none;stroke:#ff0000;stroke-width:5;stroke-linecap:round;stroke-linejoin:round;stroke-miterlimit:4;stroke-opacity:1;stroke-dasharray:none"
         d="m 1019.1044,236.57656 13.9311,-34.49367 c 0,0 -4.4551,19.03333 -3.9166,37.63181 0.5385,18.59847 11.3612,53.61262 11.8748,72.84106 0.5135,19.22844 -2.1909,33.29998 -2.1909,33.29998 l -3.0495,7.55061 1.5262,-42.0818 -5.4383,-34.32657 -6.2506,-31.60526 3.4095,-33.31811 -3.2545,8.05803 -1.2308,40.40485 8.4948,48.7625 -1.7795,55.30607 -2.5642,-57.36871 -6.7413,-40.30172 0.5666,-38.74496 -3.2544,8.05803 c 0,0 -1.4069,14.05942 -1.0219,27.93463 0.3849,13.87516 7.6477,45.42602 10.4168,72.28392 1.7656,17.12498 -0.4511,35.68941 -0.4511,35.68941 l 10.0806,-24.95977"
         inkscape:connector-curvature="0"
         sodipodi:nodetypes="cczzcccccccccccccczscc" />
      <path
         sodipodi:nodetypes="ccszzccccccczcccccccczscc"
         inkscape:connector-curvature="0"
         d="m 1081.1074,95.637535 21.9317,-32.571568 c 0,0 -4.2343,5.719433 -7.8118,14.04004 -2.6344,6.127288 -4.9128,13.665127 -4.8817,21.368312 0.031,7.703181 9.3303,52.134171 9.3659,70.914221 0.036,18.78001 -2.8019,32.59421 -2.8019,32.59421 l -3.0086,7.44922 2.3859,-41.16133 -4.2672,-33.42217 -5.0847,-30.74398 2.8098,-19.518243 11.6472,-20.49911 c 0,0 -5.8269,6.399385 -7.91,9.155093 -2.0831,2.755707 -6.7348,9.325602 -6.7348,9.325602 l -1.1603,36.362268 6.7768,47.46006 -2.9252,54.09117 -1.0656,-56.00715 -5.3412,-39.23171 3.6991,-43.188576 -5.3664,8.926971 c 0,0 -1.7572,18.105765 -1.7182,31.657035 0.039,13.55127 6.066,44.21882 8.0232,70.40325 1.2479,16.69556 -1.2395,34.8894 -1.2395,34.8894 l 9.9453,-24.62467"
         style="fill:none;stroke:#ff0000;stroke-width:5;stroke-linecap:round;stroke-linejoin:round;stroke-miterlimit:4;stroke-opacity:1;stroke-dasharray:none"
         id="path6111" />
      <path
         id="path6113"
         style="fill:none;stroke:#ff0000;stroke-width:5;stroke-linecap:round;stroke-linejoin:round;stroke-miterlimit:4;stroke-opacity:1;stroke-dasharray:none"
         d="m 811.28077,756.82102 3.03036,19.71619 -7.47246,-4.18074 4.24392,-17.31284"
         inkscape:connector-curvature="0"
         sodipodi:nodetypes="cccc" />
      <path
         id="path6115"
         style="fill:none;stroke:#ff0000;stroke-width:5;stroke-linecap:round;stroke-linejoin:round;stroke-miterlimit:4;stroke-opacity:1;stroke-dasharray:none"
         d="m 1222.7663,12.872748 c -7.2746,-0.64947 -17.5228,-2.333102 -22.2983,1.446936 -20.0223,15.8489 29.4736,-6.5518703 17.1394,1.903255 -9.4287,6.463555 -19.2,27.135253 -24.4457,35.676668 -5.2457,8.541415 -19.4008,26.340856 -19.4008,26.340856 l -5.6334,-1.249436 22.6964,-27.8323 11.3319,-23.692251 c 2.3784,-4.422068 15.4745,-13.234219 13.9909,-12.835974 -17.7219,5.163893 -17.5988,4.450197 -27.6879,32.876646 l -29.6863,39.174427 26.6049,-42.603948 c 20.2878,-34.1546592 8.975,-13.099621 10.2972,-22.85144 -6.4112,14.106237 -16.6147,29.986414 -25.1291,46.564558 -7.6489,14.892752 -19.6122,30.927133 -19.6122,30.927133 0,0 7.068,-7.728244 10.7478,-10.646739 3.6798,-2.918435 10.9334,-6.98095 10.9334,-6.98095"
         inkscape:connector-curvature="0"
         sodipodi:nodetypes="csszcccccccccsczc" />
      <path
         sodipodi:nodetypes="ccszzccccccczccccccccczsczc"
         inkscape:connector-curvature="0"
         d="m 1317.5368,68.92654 15.7834,17.747711 c 0,0 -2.7081,-3.431087 -7.0753,-6.302078 -3.2162,-2.11421 -7.3317,-3.9247 -11.9285,-3.837661 -4.5966,0.087 -32.6194,8.077068 -43.8191,8.256321 -11.1998,0.179115 -12.9815,-1.294382 -12.9815,-1.294382 l -7.2139,-4.409785 21.4287,2.88336 20.6279,-3.770522 20.6582,-3.957539 9.6772,1.688345 9.3532,8.603066 c 0,0 -2.4406,-4.707498 -4.4568,-8.079841 -2.0163,-3.372388 -4.9715,-6.22625 -4.9715,-6.22625 l -4.2237,2.635116 -15.4834,-0.07187 -29.4107,5.943226 -30.5778,-2.46827 32.3804,-0.8238 24.2686,-4.698766 12.0907,-1.040713 10.7718,0.272453 c 0,0 -7.0517,-4.644176 -20.7497,-2.032431 -13.6978,2.611831 -27.361,5.333824 -43.2923,7.149896 -10.1581,1.157899 -20.5908,-0.739243 -20.5908,-0.739243 0,0 8.7772,3.504924 12.3082,5.337938 3.5311,1.833053 7.2176,4.213222 7.2176,4.213222"
         style="fill:none;stroke:#ff0000;stroke-width:5;stroke-linecap:round;stroke-linejoin:round;stroke-miterlimit:4;stroke-opacity:1;stroke-dasharray:none"
         id="path6117" />
      <path
         id="path6119"
         style="fill:none;stroke:#ff0000;stroke-width:5;stroke-linecap:round;stroke-linejoin:round;stroke-miterlimit:4;stroke-opacity:1;stroke-dasharray:none"
         d="m 1338.3268,191.76205 -6.7685,31.3689 c 0,0 1.5157,-5.73615 1.5155,-12.54596 0,-5.01477 -0.8225,-10.61166 -3.6779,-14.9293 -2.8555,-4.31757 -27.1139,-23.80051 -34.0411,-34.3503 -6.9269,-10.54987 -6.6499,-13.60517 -6.6499,-13.60517 l -0.3059,-10.94374 10.291,23.14282 15.9182,16.27691 16.1081,16.1345 4.2929,10.80533 -2.2532,16.83429 c 0,0 2.8495,-6.65026 4.7283,-11.6709 1.8795,-5.02045 2.716,-10.46367 2.716,-10.46367 l -4.9703,-1.6249 -9.283,-14.8779 -23.2168,-22.68716 -16.1967,-31.51468 20.3085,30.22117 18.969,18.90885 8.2562,10.61235 6.254,10.55451 c 0,0 0.01,-11.00338 -10.6625,-21.71318 -10.6696,-10.70947 -21.4193,-21.28491 -32.7067,-34.86053 -7.1971,-8.6563 -11.7543,-20.37574 -11.7543,-20.37574 0,0 2.081,11.60967 2.5297,16.66795 0.4487,5.05846 0.4889,10.76706 0.4889,10.76706"
         inkscape:connector-curvature="0"
         sodipodi:nodetypes="ccszzccccccczccccccccczsczc" />
      <path
         sodipodi:nodetypes="ccccccsccccccccccccccccccc"
         inkscape:connector-curvature="0"
         id="path6121"
         d="m 1280.1571,200.80041 -4.0392,10.00108 -0.9206,34.33411 11.0162,33.53019 3.6451,12.87496 5.6504,2.28206 c -6.0582,-18.93251 -14.7216,-40.89113 -16.4809,-54.25726 -2.5551,-19.41291 1.129,-38.76514 1.129,-38.76514 z m -7.2945,18.06116 -3.2552,8.06008 2.1221,26.8004 10.3973,34.69603 1.8267,0.73777 -8.5562,-28.36585 z m -1.1331,34.86048 -5.3752,-18.0124 c -0.033,1.90207 -0.2089,14.83182 1.5378,28.24806 0.6461,4.96379 2.5496,12.25317 4.9732,20.71987 l 5.7352,2.31632 -5.7809,-19.82163 z m -5.3752,-18.0124 c 0,-0.15069 0,-0.72792 0,-0.72792 l 12.7186,-31.49148 z"
         style="fill:none;stroke:#ff0000;stroke-width:5;stroke-linecap:round;stroke-linejoin:round;stroke-miterlimit:4;stroke-opacity:1;stroke-dasharray:none" />
      <path
         id="path6123"
         style="fill:none;stroke:#ff0000;stroke-width:5;stroke-linecap:round;stroke-linejoin:round;stroke-miterlimit:4;stroke-opacity:1;stroke-dasharray:none"
         d="m 1653.2204,647.30719 14.6802,-36.34825 c 0,0 -4.8441,19.99635 -4.6487,39.4445 0.1954,19.44813 10.446,55.87878 10.6044,75.98648 0.1585,20.1077 -2.829,34.8802 -2.829,34.8802 l -3.2135,7.95658 2.3233,-44.05556 -4.8384,-35.8118 -5.7077,-32.94955 4.0572,-34.92192 -3.4294,8.49128 -1.9944,42.29558 7.6485,50.85799 -2.8256,57.89585 -1.5124,-59.97275 -6.0398,-42.03884 1.2943,-40.54654 -3.4294,8.49127 c 0,0 -1.6799,14.73559 -1.5511,29.245 0.1288,14.50936 6.8573,47.3831 9.1458,75.43082 1.4592,17.88363 -1.1208,37.3476 -1.1208,37.3476 l 10.6226,-26.30175"
         inkscape:connector-curvature="0"
         sodipodi:nodetypes="cczzcccccccccccccczscc" />
      <path
         sodipodi:nodetypes="cczzcccccccccccccczscc"
         inkscape:connector-curvature="0"
         d="m 1709.4085,508.18485 13.9311,-34.49368 c 0,0 -4.4551,19.03334 -3.9165,37.63182 0.5385,18.59847 11.3612,53.61262 11.8747,72.84105 0.5136,19.22845 -2.1908,33.29999 -2.1908,33.29999 l -3.0495,7.55061 1.5262,-42.0818 -5.4384,-34.32657 -6.2506,-31.60526 3.4095,-33.31812 -3.2544,8.05803 -1.2308,40.40486 8.4948,48.7625 -1.7796,55.30607 -2.5641,-57.36872 -6.7414,-40.30172 0.5667,-38.74495 -3.2545,8.05803 c 0,0 -1.4068,14.05942 -1.0218,27.93463 0.3849,13.87515 7.6477,45.42602 10.4167,72.28392 1.7656,17.12497 -0.4511,35.6894 -0.4511,35.6894 l 10.0806,-24.95977"
         style="fill:none;stroke:#ff0000;stroke-width:5;stroke-linecap:round;stroke-linejoin:round;stroke-miterlimit:4;stroke-opacity:1;stroke-dasharray:none"
         id="path6125" />
      <path
         id="path6127"
         style="fill:none;stroke:#ff0000;stroke-width:5;stroke-linecap:round;stroke-linejoin:round;stroke-miterlimit:4;stroke-opacity:1;stroke-dasharray:none"
         d="m 1768.9432,360.77629 15.0546,-37.27554 c 0,0 -5.0385,20.47784 -5.0147,40.35083 0.024,19.87297 9.9883,57.01186 9.9692,77.55919 -0.019,20.54734 -3.1481,35.67032 -3.1481,35.67032 l -3.2955,8.15954 2.7219,-45.04242 -4.5385,-36.55442 -5.4362,-33.62168 4.3811,-35.72383 -3.5169,8.7079 -2.3762,43.24094 7.2253,51.90573 -3.3485,59.19074 -0.9866,-61.27477 -5.689,-42.90739 1.6581,-41.44734 -3.5169,8.7079 c 0,0 -1.8165,15.07368 -1.8157,29.90019 7e-4,14.82646 6.4621,48.36162 8.5103,77.00426 1.306,18.26295 -1.4557,38.17669 -1.4557,38.17669 l 10.8936,-26.97274"
         inkscape:connector-curvature="0"
         sodipodi:nodetypes="cczzcccccccccccccczscc" />
      <path
         sodipodi:nodetypes="cczzcccccccccccccczscc"
         inkscape:connector-curvature="0"
         d="m 1819.1044,236.57656 13.9311,-34.49367 c 0,0 -4.4551,19.03333 -3.9166,37.63181 0.5385,18.59847 11.3612,53.61262 11.8748,72.84106 0.5135,19.22844 -2.1909,33.29998 -2.1909,33.29998 l -3.0495,7.55061 1.5262,-42.0818 -5.4383,-34.32657 -6.2506,-31.60526 3.4095,-33.31811 -3.2545,8.05803 -1.2308,40.40485 8.4948,48.7625 -1.7795,55.30607 -2.5642,-57.36871 -6.7413,-40.30172 0.5666,-38.74496 -3.2544,8.05803 c 0,0 -1.4069,14.05942 -1.0219,27.93463 0.3849,13.87516 7.6477,45.42602 10.4168,72.28392 1.7656,17.12498 -0.4511,35.68941 -0.4511,35.68941 l 10.0806,-24.95977"
         style="fill:none;stroke:#ff0000;stroke-width:5;stroke-linecap:round;stroke-linejoin:round;stroke-miterlimit:4;stroke-opacity:1;stroke-dasharray:none"
         id="path6129" />
      <path
         id="path6131"
         style="fill:none;stroke:#ff0000;stroke-width:5;stroke-linecap:round;stroke-linejoin:round;stroke-miterlimit:4;stroke-opacity:1;stroke-dasharray:none"
         d="m 1881.1074,95.637535 21.9317,-32.571568 c 0,0 -4.2343,5.719433 -7.8118,14.04004 -2.6344,6.127288 -4.9128,13.665127 -4.8817,21.368312 0.031,7.703181 9.3303,52.134171 9.3659,70.914221 0.036,18.78001 -2.8019,32.59421 -2.8019,32.59421 l -3.0086,7.44922 2.3859,-41.16133 -4.2672,-33.42217 -5.0847,-30.74398 2.8098,-19.518243 11.6472,-20.49911 c 0,0 -5.8269,6.399385 -7.91,9.155093 -2.0831,2.755707 -6.7348,9.325602 -6.7348,9.325602 l -1.1603,36.362268 6.7768,47.46006 -2.9252,54.09117 -1.0656,-56.00715 -5.3412,-39.23171 3.6991,-43.188576 -5.3664,8.926971 c 0,0 -1.7572,18.105765 -1.7182,31.657035 0.039,13.55127 6.066,44.21882 8.0232,70.40325 1.2479,16.69556 -1.2395,34.8894 -1.2395,34.8894 l 9.9453,-24.62467"
         inkscape:connector-curvature="0"
         sodipodi:nodetypes="ccszzccccccczcccccccczscc" />
      <path
         sodipodi:nodetypes="cccc"
         inkscape:connector-curvature="0"
         d="m 1611.2808,756.82102 3.0303,19.71619 -7.4724,-4.18074 4.2439,-17.31284"
         style="fill:none;stroke:#ff0000;stroke-width:5;stroke-linecap:round;stroke-linejoin:round;stroke-miterlimit:4;stroke-opacity:1;stroke-dasharray:none"
         id="path6133" />
      <path
         sodipodi:nodetypes="csszcccccccccsczc"
         inkscape:connector-curvature="0"
         d="m 2022.7663,12.872748 c -7.2746,-0.64947 -17.5228,-2.333102 -22.2983,1.446936 -20.0223,15.8489 29.4736,-6.5518703 17.1394,1.903255 -9.4287,6.463555 -19.2,27.135253 -24.4457,35.676668 -5.2457,8.541415 -19.4008,26.340856 -19.4008,26.340856 l -5.6334,-1.249436 22.6964,-27.8323 11.3319,-23.692251 c 2.3784,-4.422068 15.4745,-13.234219 13.9909,-12.835974 -17.7219,5.163893 -17.5988,4.450197 -27.6879,32.876646 l -29.6863,39.174427 26.6049,-42.603948 c 20.2878,-34.1546592 8.975,-13.099621 10.2972,-22.85144 -6.4112,14.106237 -16.6147,29.986414 -25.1291,46.564558 -7.6489,14.892752 -19.6122,30.927133 -19.6122,30.927133 0,0 7.068,-7.728244 10.7478,-10.646739 3.6798,-2.918435 10.9334,-6.98095 10.9334,-6.98095"
         style="fill:none;stroke:#ff0000;stroke-width:5;stroke-linecap:round;stroke-linejoin:round;stroke-miterlimit:4;stroke-opacity:1;stroke-dasharray:none"
         id="path6135" />
      <path
         id="path6137"
         style="fill:none;stroke:#ff0000;stroke-width:5;stroke-linecap:round;stroke-linejoin:round;stroke-miterlimit:4;stroke-opacity:1;stroke-dasharray:none"
         d="m 2117.5368,68.92654 15.7834,17.747711 c 0,0 -2.7081,-3.431087 -7.0753,-6.302078 -3.2162,-2.11421 -7.3317,-3.9247 -11.9285,-3.837661 -4.5966,0.087 -32.6194,8.077068 -43.8191,8.256321 -11.1998,0.179115 -12.9815,-1.294382 -12.9815,-1.294382 l -7.2139,-4.409785 21.4287,2.88336 20.6279,-3.770522 20.6582,-3.957539 9.6772,1.688345 9.3532,8.603066 c 0,0 -2.4406,-4.707498 -4.4568,-8.079841 -2.0163,-3.372388 -4.9715,-6.22625 -4.9715,-6.22625 l -4.2237,2.635116 -15.4834,-0.07187 -29.4107,5.943226 -30.5778,-2.46827 32.3804,-0.8238 24.2686,-4.698766 12.0907,-1.040713 10.7718,0.272453 c 0,0 -7.0517,-4.644176 -20.7497,-2.032431 -13.6978,2.611831 -27.361,5.333824 -43.2923,7.149896 -10.1581,1.157899 -20.5908,-0.739243 -20.5908,-0.739243 0,0 8.7772,3.504924 12.3082,5.337938 3.5311,1.833053 7.2176,4.213222 7.2176,4.213222"
         inkscape:connector-curvature="0"
         sodipodi:nodetypes="ccszzccccccczccccccccczsczc" />
      <path
         sodipodi:nodetypes="ccszzccccccczccccccccczsczc"
         inkscape:connector-curvature="0"
         d="m 2138.3268,191.76205 -6.7685,31.3689 c 0,0 1.5157,-5.73615 1.5155,-12.54596 0,-5.01477 -0.8225,-10.61166 -3.6779,-14.9293 -2.8555,-4.31757 -27.1139,-23.80051 -34.0411,-34.3503 -6.9269,-10.54987 -6.6499,-13.60517 -6.6499,-13.60517 l -0.3059,-10.94374 10.291,23.14282 15.9182,16.27691 16.1081,16.1345 4.2929,10.80533 -2.2532,16.83429 c 0,0 2.8495,-6.65026 4.7283,-11.6709 1.8795,-5.02045 2.716,-10.46367 2.716,-10.46367 l -4.9703,-1.6249 -9.283,-14.8779 -23.2168,-22.68716 -16.1967,-31.51468 20.3085,30.22117 18.969,18.90885 8.2562,10.61235 6.254,10.55451 c 0,0 0.01,-11.00338 -10.6625,-21.71318 -10.6696,-10.70947 -21.4193,-21.28491 -32.7067,-34.86053 -7.1971,-8.6563 -11.7543,-20.37574 -11.7543,-20.37574 0,0 2.081,11.60967 2.5297,16.66795 0.4487,5.05846 0.4889,10.76706 0.4889,10.76706"
         style="fill:none;stroke:#ff0000;stroke-width:5;stroke-linecap:round;stroke-linejoin:round;stroke-miterlimit:4;stroke-opacity:1;stroke-dasharray:none"
         id="path6139" />
      <path
         style="fill:none;stroke:#ff0000;stroke-width:5;stroke-linecap:round;stroke-linejoin:round;stroke-miterlimit:4;stroke-opacity:1;stroke-dasharray:none"
         d="m 2080.1571,200.80041 -4.0392,10.00108 -0.9206,34.33411 11.0162,33.53019 3.6451,12.87496 5.6504,2.28206 c -6.0582,-18.93251 -14.7216,-40.89113 -16.4809,-54.25726 -2.5551,-19.41291 1.129,-38.76514 1.129,-38.76514 z m -7.2945,18.06116 -3.2552,8.06008 2.1221,26.8004 10.3973,34.69603 1.8267,0.73777 -8.5562,-28.36585 z m -1.1331,34.86048 -5.3752,-18.0124 c -0.033,1.90207 -0.2089,14.83182 1.5378,28.24806 0.6461,4.96379 2.5496,12.25317 4.9732,20.71987 l 5.7352,2.31632 -5.7809,-19.82163 z m -5.3752,-18.0124 c 0,-0.15069 0,-0.72792 0,-0.72792 l 12.7186,-31.49148 z"
         id="path6141"
         inkscape:connector-curvature="0"
         sodipodi:nodetypes="ccccccsccccccccccccccccccc" />
      <path
         sodipodi:nodetypes="cczzcccccccccccccczscc"
         inkscape:connector-curvature="0"
         d="m 2453.2205,647.30719 14.6801,-36.34825 c 0,0 -4.844,19.99635 -4.6487,39.4445 0.1954,19.44813 10.446,55.87878 10.6044,75.98648 0.1585,20.1077 -2.829,34.8802 -2.829,34.8802 l -3.2135,7.95658 2.3234,-44.05556 -4.8385,-35.8118 -5.7077,-32.94955 4.0572,-34.92192 -3.4294,8.49128 -1.9944,42.29558 7.6485,50.85799 -2.8255,57.89585 -1.5125,-59.97275 -6.0398,-42.03884 1.2943,-40.54654 -3.4294,8.49127 c 0,0 -1.6799,14.73559 -1.5511,29.245 0.1288,14.50936 6.8573,47.3831 9.1458,75.43082 1.4592,17.88363 -1.1208,37.3476 -1.1208,37.3476 l 10.6226,-26.30175"
         style="fill:none;stroke:#ff0000;stroke-width:5;stroke-linecap:round;stroke-linejoin:round;stroke-miterlimit:4;stroke-opacity:1;stroke-dasharray:none"
         id="path6143" />
      <path
         id="path6145"
         style="fill:none;stroke:#ff0000;stroke-width:5;stroke-linecap:round;stroke-linejoin:round;stroke-miterlimit:4;stroke-opacity:1;stroke-dasharray:none"
         d="m 2509.4085,508.18485 13.9312,-34.49368 c 0,0 -4.4552,19.03334 -3.9166,37.63182 0.5385,18.59847 11.3612,53.61262 11.8747,72.84105 0.5136,19.22845 -2.1908,33.29999 -2.1908,33.29999 l -3.0495,7.55061 1.5262,-42.0818 -5.4383,-34.32657 -6.2506,-31.60526 3.4095,-33.31812 -3.2545,8.05803 -1.2308,40.40486 8.4948,48.7625 -1.7796,55.30607 -2.5641,-57.36872 -6.7414,-40.30172 0.5667,-38.74495 -3.2545,8.05803 c 0,0 -1.4068,14.05942 -1.0218,27.93463 0.3849,13.87515 7.6477,45.42602 10.4168,72.28392 1.7656,17.12497 -0.4512,35.6894 -0.4512,35.6894 l 10.0807,-24.95977"
         inkscape:connector-curvature="0"
         sodipodi:nodetypes="cczzcccccccccccccczscc" />
      <path
         sodipodi:nodetypes="cczzcccccccccccccczscc"
         inkscape:connector-curvature="0"
         d="m 2568.9432,360.77629 15.0547,-37.27554 c 0,0 -5.0386,20.47784 -5.0148,40.35083 0.024,19.87297 9.9883,57.01186 9.9692,77.55919 -0.019,20.54734 -3.1481,35.67032 -3.1481,35.67032 l -3.2954,8.15954 2.7218,-45.04242 -4.5385,-36.55442 -5.4362,-33.62168 4.3811,-35.72383 -3.5169,8.7079 -2.3762,43.24094 7.2253,51.90573 -3.3485,59.19074 -0.9866,-61.27477 -5.689,-42.90739 1.6581,-41.44734 -3.5169,8.7079 c 0,0 -1.8165,15.07368 -1.8157,29.90019 7e-4,14.82646 6.4621,48.36162 8.5103,77.00426 1.306,18.26295 -1.4557,38.17669 -1.4557,38.17669 l 10.8937,-26.97274"
         style="fill:none;stroke:#ff0000;stroke-width:5;stroke-linecap:round;stroke-linejoin:round;stroke-miterlimit:4;stroke-opacity:1;stroke-dasharray:none"
         id="path6147" />
      <path
         id="path6149"
         style="fill:none;stroke:#ff0000;stroke-width:5;stroke-linecap:round;stroke-linejoin:round;stroke-miterlimit:4;stroke-opacity:1;stroke-dasharray:none"
         d="m 2619.1044,236.57656 13.9311,-34.49367 c 0,0 -4.4551,19.03333 -3.9166,37.63181 0.5386,18.59847 11.3612,53.61262 11.8748,72.84106 0.5136,19.22844 -2.1908,33.29998 -2.1908,33.29998 l -3.0495,7.55061 1.5261,-42.0818 -5.4383,-34.32657 -6.2506,-31.60526 3.4095,-33.31811 -3.2544,8.05803 -1.2308,40.40485 8.4948,48.7625 -1.7796,55.30607 -2.5642,-57.36871 -6.7413,-40.30172 0.5666,-38.74496 -3.2544,8.05803 c 0,0 -1.4068,14.05942 -1.0218,27.93463 0.3849,13.87516 7.6477,45.42602 10.4167,72.28392 1.7656,17.12498 -0.4511,35.68941 -0.4511,35.68941 l 10.0806,-24.95977"
         inkscape:connector-curvature="0"
         sodipodi:nodetypes="cczzcccccccccccccczscc" />
      <path
         sodipodi:nodetypes="ccszzccccccczcccccccczscc"
         inkscape:connector-curvature="0"
         d="m 2681.1074,95.637535 21.9317,-32.571568 c 0,0 -4.2343,5.719433 -7.8118,14.04004 -2.6344,6.127288 -4.9127,13.665127 -4.8816,21.368312 0.031,7.703181 9.3302,52.134171 9.3659,70.914221 0.035,18.78001 -2.802,32.59421 -2.802,32.59421 l -3.0086,7.44922 2.3859,-41.16133 -4.2671,-33.42217 -5.0848,-30.74398 2.8098,-19.518243 11.6473,-20.49911 c 0,0 -5.827,6.399385 -7.9101,9.155093 -2.0831,2.755707 -6.7348,9.325602 -6.7348,9.325602 l -1.1603,36.362268 6.7769,47.46006 -2.9253,54.09117 -1.0656,-56.00715 -5.3412,-39.23171 3.6991,-43.188576 -5.3664,8.926971 c 0,0 -1.7572,18.105765 -1.7182,31.657035 0.039,13.55127 6.066,44.21882 8.0232,70.40325 1.2479,16.69556 -1.2395,34.8894 -1.2395,34.8894 l 9.9453,-24.62467"
         style="fill:none;stroke:#ff0000;stroke-width:5;stroke-linecap:round;stroke-linejoin:round;stroke-miterlimit:4;stroke-opacity:1;stroke-dasharray:none"
         id="path6151" />
      <path
         id="path6153"
         style="fill:none;stroke:#ff0000;stroke-width:5;stroke-linecap:round;stroke-linejoin:round;stroke-miterlimit:4;stroke-opacity:1;stroke-dasharray:none"
         d="m 2411.2808,756.82102 3.0303,19.71619 -7.4724,-4.18074 4.2439,-17.31284"
         inkscape:connector-curvature="0"
         sodipodi:nodetypes="cccc" />
      <path
         id="path6155"
         style="fill:none;stroke:#ff0000;stroke-width:5;stroke-linecap:round;stroke-linejoin:round;stroke-miterlimit:4;stroke-opacity:1;stroke-dasharray:none"
         d="m 2822.7663,12.872748 c -7.2745,-0.64947 -17.5228,-2.333102 -22.2983,1.446936 -20.0223,15.8489 29.4736,-6.5518703 17.1395,1.903255 -9.4288,6.463555 -19.2001,27.135253 -24.4458,35.676668 -5.2457,8.541415 -19.4008,26.340856 -19.4008,26.340856 l -5.6333,-1.249436 22.6963,-27.8323 11.332,-23.692251 c 2.3783,-4.422068 15.4744,-13.234219 13.9908,-12.835974 -17.7218,5.163893 -17.5988,4.450197 -27.6879,32.876646 l -29.6863,39.174427 26.6049,-42.603948 c 20.2878,-34.1546592 8.975,-13.099621 10.2972,-22.85144 -6.4112,14.106237 -16.6147,29.986414 -25.1291,46.564558 -7.6489,14.892752 -19.6122,30.927133 -19.6122,30.927133 0,0 7.0681,-7.728244 10.7479,-10.646739 3.6797,-2.918435 10.9333,-6.98095 10.9333,-6.98095"
         inkscape:connector-curvature="0"
         sodipodi:nodetypes="csszcccccccccsczc" />
      <path
         sodipodi:nodetypes="ccszzccccccczccccccccczsczc"
         inkscape:connector-curvature="0"
         d="m 2917.5369,68.92654 15.7833,17.747711 c 0,0 -2.7081,-3.431087 -7.0753,-6.302078 -3.2161,-2.11421 -7.3317,-3.9247 -11.9285,-3.837661 -4.5966,0.087 -32.6194,8.077068 -43.8191,8.256321 -11.1998,0.179115 -12.9815,-1.294382 -12.9815,-1.294382 l -7.2139,-4.409785 21.4287,2.88336 20.6279,-3.770522 20.6582,-3.957539 9.6772,1.688345 9.3532,8.603066 c 0,0 -2.4406,-4.707498 -4.4568,-8.079841 -2.0162,-3.372388 -4.9715,-6.22625 -4.9715,-6.22625 l -4.2237,2.635116 -15.4833,-0.07187 -29.4108,5.943226 -30.5778,-2.46827 32.3804,-0.8238 24.2687,-4.698766 12.0906,-1.040713 10.7718,0.272453 c 0,0 -7.0516,-4.644176 -20.7497,-2.032431 -13.6978,2.611831 -27.361,5.333824 -43.2922,7.149896 -10.1582,1.157899 -20.5908,-0.739243 -20.5908,-0.739243 0,0 8.7771,3.504924 12.3081,5.337938 3.5311,1.833053 7.2176,4.213222 7.2176,4.213222"
         style="fill:none;stroke:#ff0000;stroke-width:5;stroke-linecap:round;stroke-linejoin:round;stroke-miterlimit:4;stroke-opacity:1;stroke-dasharray:none"
         id="path6157" />
      <path
         id="path6159"
         style="fill:none;stroke:#ff0000;stroke-width:5;stroke-linecap:round;stroke-linejoin:round;stroke-miterlimit:4;stroke-opacity:1;stroke-dasharray:none"
         d="m 2938.3268,191.76205 -6.7685,31.3689 c 0,0 1.5158,-5.73615 1.5156,-12.54596 -10e-5,-5.01477 -0.8226,-10.61166 -3.678,-14.9293 -2.8555,-4.31757 -27.1139,-23.80051 -34.041,-34.3503 -6.927,-10.54987 -6.65,-13.60517 -6.65,-13.60517 l -0.3059,-10.94374 10.291,23.14282 15.9183,16.27691 16.1081,16.1345 4.2928,10.80533 -2.2531,16.83429 c 0,0 2.8494,-6.65026 4.7282,-11.6709 1.8795,-5.02045 2.716,-10.46367 2.716,-10.46367 l -4.9702,-1.6249 -9.2831,-14.8779 -23.2168,-22.68716 -16.1966,-31.51468 20.3084,30.22117 18.969,18.90885 8.2562,10.61235 6.254,10.55451 c 0,0 0.01,-11.00338 -10.6625,-21.71318 -10.6696,-10.70947 -21.4193,-21.28491 -32.7067,-34.86053 -7.1971,-8.6563 -11.7542,-20.37574 -11.7542,-20.37574 0,0 2.0809,11.60967 2.5297,16.66795 0.4486,5.05846 0.4888,10.76706 0.4888,10.76706"
         inkscape:connector-curvature="0"
         sodipodi:nodetypes="ccszzccccccczccccccccczsczc" />
      <path
         sodipodi:nodetypes="ccccccsccccccccccccccccccc"
         inkscape:connector-curvature="0"
         id="path6161"
         d="m 2880.1571,200.80041 -4.0392,10.00108 -0.9206,34.33411 11.0163,33.53019 3.645,12.87496 5.6504,2.28206 c -6.0582,-18.93251 -14.7215,-40.89113 -16.4809,-54.25726 -2.5551,-19.41291 1.129,-38.76514 1.129,-38.76514 z m -7.2945,18.06116 -3.2552,8.06008 2.1221,26.8004 10.3973,34.69603 1.8267,0.73777 -8.5562,-28.36585 z m -1.1331,34.86048 -5.3752,-18.0124 c -0.033,1.90207 -0.2089,14.83182 1.5378,28.24806 0.6461,4.96379 2.5497,12.25317 4.9732,20.71987 l 5.7352,2.31632 -5.7809,-19.82163 z m -5.3752,-18.0124 c 0,-0.15069 0,-0.72792 0,-0.72792 l 12.7186,-31.49148 z"
         style="fill:none;stroke:#ff0000;stroke-width:5;stroke-linecap:round;stroke-linejoin:round;stroke-miterlimit:4;stroke-opacity:1;stroke-dasharray:none" />
    </g>
  </g>
</svg>
