<?xml version="1.0" encoding="UTF-8" standalone="no"?>
<!-- Created with Inkscape (http://www.inkscape.org/) -->

<svg
   xmlns:dc="http://purl.org/dc/elements/1.1/"
   xmlns:cc="http://creativecommons.org/ns#"
   xmlns:rdf="http://www.w3.org/1999/02/22-rdf-syntax-ns#"
   xmlns:svg="http://www.w3.org/2000/svg"
   xmlns="http://www.w3.org/2000/svg"
   xmlns:sodipodi="http://sodipodi.sourceforge.net/DTD/sodipodi-0.dtd"
   xmlns:inkscape="http://www.inkscape.org/namespaces/inkscape"
   width="3200"
   height="1000"
   id="svg2"
   version="1.1"
   inkscape:version="0.47pre4 "
   sodipodi:docname="New document 1">
  <defs
     id="defs4">
    <pattern
       inkscape:stockid="Stripes 1:1"
       id="Strips1_1"
       patternTransform="matrix(-1.424281e-4,-0.57256707,-91.26479,0.02270244,534.57273,610.94026)"
       height="1"
       width="2"
       patternUnits="userSpaceOnUse"
       inkscape:collect="always">
      <rect
         id="rect4374"
         height="2"
         width="1"
         y="-0.5"
         x="0"
         style="fill:black;stroke:none" />
    </pattern>
    <inkscape:perspective
       sodipodi:type="inkscape:persp3d"
       inkscape:vp_x="0 : 526.18109 : 1"
       inkscape:vp_y="0 : 1000 : 0"
       inkscape:vp_z="744.09448 : 526.18109 : 1"
       inkscape:persp3d-origin="372.04724 : 350.78739 : 1"
       id="perspective10" />
    <inkscape:perspective
       id="perspective2824"
       inkscape:persp3d-origin="0.5 : 0.33333333 : 1"
       inkscape:vp_z="1 : 0.5 : 1"
       inkscape:vp_y="0 : 1000 : 0"
       inkscape:vp_x="0 : 0.5 : 1"
       sodipodi:type="inkscape:persp3d" />
    <inkscape:perspective
       id="perspective2840"
       inkscape:persp3d-origin="0.5 : 0.33333333 : 1"
       inkscape:vp_z="1 : 0.5 : 1"
       inkscape:vp_y="0 : 1000 : 0"
       inkscape:vp_x="0 : 0.5 : 1"
       sodipodi:type="inkscape:persp3d" />
    <inkscape:perspective
       id="perspective2854"
       inkscape:persp3d-origin="0.5 : 0.33333333 : 1"
       inkscape:vp_z="1 : 0.5 : 1"
       inkscape:vp_y="0 : 1000 : 0"
       inkscape:vp_x="0 : 0.5 : 1"
       sodipodi:type="inkscape:persp3d" />
    <inkscape:perspective
       id="perspective2871"
       inkscape:persp3d-origin="0.5 : 0.33333333 : 1"
       inkscape:vp_z="1 : 0.5 : 1"
       inkscape:vp_y="0 : 1000 : 0"
       inkscape:vp_x="0 : 0.5 : 1"
       sodipodi:type="inkscape:persp3d" />
  </defs>
  <sodipodi:namedview
     id="base"
     pagecolor="#ffffff"
     bordercolor="#666666"
     borderopacity="1.0"
     inkscape:pageopacity="0.0"
     inkscape:pageshadow="2"
     inkscape:zoom="0.35355339"
     inkscape:cx="1344.9497"
     inkscape:cy="479.02321"
     inkscape:document-units="px"
     inkscape:current-layer="layer1"
     showgrid="false"
     inkscape:window-width="1415"
     inkscape:window-height="732"
     inkscape:window-x="1359"
     inkscape:window-y="4"
     inkscape:window-maximized="0" />
  <metadata
     id="metadata7">
    <rdf:RDF>
      <cc:Work
         rdf:about="">
        <dc:format>image/svg+xml</dc:format>
        <dc:type
           rdf:resource="http://purl.org/dc/dcmitype/StillImage" />
        <dc:title></dc:title>
      </cc:Work>
    </rdf:RDF>
  </metadata>
  <g
     inkscape:label="Layer 1"
     inkscape:groupmode="layer"
     id="layer1"
     transform="translate(0,-52.362183)">
    <path
       style="fill:url(#Strips1_1);fill-opacity:1"
       d="m 755.84808,1043.1706 c -2.02023,-0.5279 -3.67315,-1.3702 -3.67315,-1.8717 0,-5.567 9.06359,-63.23189 10.55527,-67.1553 1.09442,-2.87853 1.85082,-5.90934 1.68089,-6.73511 -0.16992,-0.82576 0.24238,-2.91818 0.91624,-4.64981 0.67386,-1.73162 2.80154,-13.06592 4.72819,-25.18731 1.92665,-12.1214 4.35883,-22.35375 5.40486,-22.73854 1.04602,-0.38482 1.90186,-4.81557 1.90186,-9.84613 0,-5.03053 0.83563,-9.6629 1.85695,-10.29409 2.22249,-1.37359 4.34895,-11.11592 5.44839,-24.96164 0.85105,-10.71779 6.78475,-22.58732 9.27629,-18.55592 0.78621,1.27211 4.09177,-3.7982 7.34569,-11.26735 3.25392,-7.46918 6.75762,-13.58031 7.786,-13.58031 1.02837,0 1.63364,-0.7267 1.34503,-1.61489 -0.78807,-2.42528 8.15829,-13.14028 9.69134,-11.60724 0.73046,0.73046 1.35918,-0.48223 1.39716,-2.69485 0.038,-2.21264 3.81607,-7.77572 8.39577,-12.36242 4.5797,-4.58667 8.32673,-9.43009 8.32673,-10.76315 0,-1.33304 4.95875,-7.89043 11.01945,-14.57197 22.65721,-24.97816 24.77334,-27.29556 28.86807,-31.61357 2.30465,-2.43032 4.19028,-5.3297 4.19028,-6.44304 0,-1.11336 2.3563,-4.07306 5.23623,-6.57712 4.76263,-4.14105 5.16419,-5.77172 4.43972,-18.02866 -0.43808,-7.41171 -1.5122,-14.63383 -2.38694,-16.04919 -2.44247,-3.952 -7.08915,5.95243 -7.42891,15.83476 l -0.28866,8.39577 -2.07792,-7.3463 c -3.70122,-13.08531 -5.82486,-17.07912 -8.27602,-15.56421 -1.71568,1.06035 -1.96099,-1.80056 -0.88964,-10.37537 1.17348,-9.39222 0.79727,-12.52139 -1.82008,-15.13875 -1.81463,-1.81462 -3.29933,-5.45221 -3.29933,-8.08355 0,-7.21067 4.10433,-17.51927 7.49297,-18.81961 4.20123,-1.61216 3.9756,-15.1534 -0.2797,-16.78632 -1.93847,-0.74386 -2.63348,-2.30764 -1.6982,-3.82096 0.87079,-1.40895 2.29498,-6.37438 3.16488,-11.03427 3.09311,-16.56926 7.27986,-28.30607 11.82208,-33.14103 2.53341,-2.6967 9.43563,-14.30639 15.33826,-25.79932 5.90264,-11.49293 13.10785,-24.40217 16.01158,-28.6872 3.80874,-5.62053 5.36164,-10.84969 5.57429,-18.77058 l 0.29477,-10.97963 -7.87103,-1.90261 c -4.32907,-1.04645 -7.87104,-2.72797 -7.87104,-3.73672 0,-4.84103 10.95807,-20.12194 25.18731,-35.1234 11.20687,-11.81506 18.6945,-22.27648 25.99019,-36.31243 5.63645,-10.84381 14.54388,-24.43865 19.79426,-30.21074 24.56554,-27.00645 71.96634,-74.51248 74.34754,-74.51248 0.6144,0 1.6633,2.08872 2.3309,4.64159 0.8051,3.07864 -0.1727,5.93325 -2.9036,8.47754 -4.9472,4.60901 -5.4239,8.82075 -0.7973,7.0454 1.826,-0.70073 4.6596,-1.27404 6.2968,-1.27404 1.6372,0 2.9767,-1.04473 2.9767,-2.3216 0,-1.27687 2.4035,-4.21216 5.341,-6.52284 3.107,-2.44391 5.0824,-5.88621 4.7227,-8.22952 -0.388,-2.52702 1.25,-4.98505 4.395,-6.59555 3.3453,-1.71307 5.1854,-4.66242 5.5305,-8.86411 0.2844,-3.46325 3.9316,-12.68592 8.105,-20.49483 4.1733,-7.80891 7.5879,-14.75661 7.5879,-15.43932 0,-0.68271 -2.7403,1.69216 -6.0895,5.2775 -7.6191,8.15622 -11.511,8.5467 -7.4421,0.74672 1.656,-3.17466 3.0168,-7.89728 3.0239,-10.49472 0.01,-2.59744 0.8938,-4.72262 1.9704,-4.72262 2.5265,0 4.1594,-5.2967 5.3938,-17.49582 0.578,-5.71187 0.1275,-9.79044 -1.0814,-9.79044 -1.1396,0 -2.072,-1.94479 -2.072,-4.32176 0,-2.37697 0.8886,-3.77259 1.9746,-3.10138 1.178,0.72802 1.4692,-1.89407 0.7219,-6.49929 -0.9583,-5.9054 -0.6296,-7.33455 1.3987,-6.08101 1.9505,1.2055 2.2783,0.46303 1.2398,-2.80888 -1.0612,-3.34359 -0.6633,-4.16037 1.6032,-3.29063 3.4169,1.31116 6.5551,-4.57745 3.4592,-6.49083 -1.2377,-0.76495 -1.029,-3.01381 0.542,-5.83931 3.1231,-5.61698 3.1655,-5.80898 3.4909,-15.80252 0.2151,-6.6081 1.3014,-8.5469 6.0344,-10.76991 3.1747,-1.49108 4.6722,-3.11126 3.328,-3.6004 -1.7279,-0.62872 -1.8778,-2.8547 -0.5113,-7.59584 1.5284,-5.30346 1.2274,-7.22616 -1.4392,-9.19052 -4.507,-3.32012 -1.5705,-7.58779 4.4316,-6.44042 3.4663,0.66262 6.8482,-1.20213 12.222,-6.73918 8.2358,-8.48584 8.6877,-13.25001 1.7197,-18.13059 -4.329,-3.03211 -4.9323,-2.91967 -8.7201,1.62524 -2.2382,2.6855 -4.1009,5.48847 -4.1393,6.22884 -0.038,0.74036 -4.5563,6.0308 -10.0398,11.75652 -5.4835,5.72572 -12.0237,12.91229 -14.5338,15.97016 -5.043,6.14358 -11.1782,7.39132 -11.1782,2.27336 0,-6.05595 4.3009,-11.4062 9.1692,-11.4062 2.8884,0 4.8237,-1.26314 4.8237,-3.14842 0,-1.73162 -0.8203,-3.14841 -1.823,-3.14841 -2.4974,0 2.1881,-8.4999 7.5645,-13.72286 2.4219,-2.35269 8.4371,-8.72823 13.3671,-14.16787 4.9301,-5.439634 9.7425,-9.890245 10.6942,-9.890245 0.9517,0 3.4399,-1.889049 5.5294,-4.197886 2.0895,-2.308838 4.8994,-4.197887 6.2443,-4.197887 1.345,0 6.3412,-3.334695 11.1028,-7.410435 4.7616,-4.07574 14.0497,-9.795175 20.6403,-12.709857 l 11.983,-5.299422 231.7687,-1.221179 c 196.9703,-1.037828 231.6904,-0.784026 231.2474,1.690406 -1.0341,5.776166 4.9459,13.887473 12.7898,17.348197 8.2851,3.655352 12.8278,9.701234 7.2893,9.701234 -1.6954,0 -3.0825,0.944524 -3.0825,2.098943 0,1.912632 2.9266,2.94197 6.746,2.37268 0.8243,-0.122851 1.0214,1.02046 0.438,2.540708 -0.5834,1.52025 1.3397,4.566672 4.2734,6.769832 2.9338,2.203161 5.3341,5.817591 5.3341,8.032061 0,2.21448 2.1986,6.94905 4.8857,10.52127 11.3999,15.15466 15.5941,27.95841 10.4022,31.7548 -3.0679,2.24332 -4.3288,0.6234 -10.4184,-13.38495 -7.0467,-16.20974 -17.4631,-29.93977 -17.4631,-23.01831 0,1.89958 -0.5733,4.94781 -1.2741,6.77386 -0.8663,2.25753 -0.027,3.398 2.6237,3.56356 3.517,0.2197 3.5389,0.33725 0.2246,1.20338 -2.0203,0.52794 -3.6732,2.89533 -3.6732,5.26088 0,3.58511 -0.524,3.86608 -3.1484,1.68803 -1.7316,-1.43712 -3.1484,-3.76956 -3.1484,-5.1832 0,-1.41364 -1.6529,-4.5795 -3.6732,-7.03524 -2.0202,-2.45574 -6.0218,-7.68131 -8.8923,-11.61238 -6.2348,-8.538101 -13.6642,-9.356271 -14.3082,-1.57569 -0.229,2.76748 0.3932,6.07413 1.3827,7.34811 2.0699,2.66501 12.5856,39.71109 13.4013,47.21223 0.3,2.7588 -0.399,5.31295 -1.5534,5.67589 -2.1189,0.66617 -11.5442,-12.4663 -11.5442,-16.08477 0,-1.07437 -1.0765,-1.9534 -2.3923,-1.9534 -1.3158,0 -3.5683,-1.60824 -5.0056,-3.57387 -2.2312,-3.0514 -2.6234,-2.20758 -2.6829,5.77209 -0.1242,16.65279 -0.3847,18.79121 -2.2883,18.79121 -3.4597,0 -9.4888,-20.33177 -6.3518,-21.42002 0.9812,-0.34038 2.419,-6.0499 3.1951,-12.68781 1.2381,-10.58862 0.9654,-12.06892 -2.2228,-12.06892 -1.9986,0 -4.1278,1.88905 -4.7316,4.19789 -0.6038,2.30883 -1.8685,4.19788 -2.8105,4.19788 -0.942,0 -2.3485,2.00308 -3.1255,4.45129 -0.777,2.44821 -4.0193,8.35149 -7.2051,13.1184 -3.1857,4.7669 -7.4534,11.41008 -9.4836,14.76262 -3.2018,5.28709 -3.9503,5.63285 -5.6437,2.60705 -1.0737,-1.91865 -1.413,-4.36088 -0.754,-5.42716 1.4438,-2.33606 -7.2116,-8.80524 -9.7128,-7.25946 -0.9684,0.59853 -2.7626,-1.54681 -3.9871,-4.76744 -1.2245,-3.22062 -3.1343,-6.41681 -4.244,-7.10265 -1.1097,-0.68583 -2.1568,-4.9484 -2.3268,-9.47238 -0.2796,-7.43606 -3.3967,-13.50393 -6.9371,-13.50393 -2.4285,0 -7.1785,5.76494 -5.847,7.09643 0.7146,0.71464 0.3075,1.29935 -0.9046,1.29935 -1.2122,0 -2.699,-1.89295 -3.3041,-4.20655 -1.4924,-5.70704 -7.7853,-3.17152 -7.7853,3.13683 0,6.07204 -8.0105,8.69571 -11.5926,3.7969 -1.3547,-1.85268 -3.5576,-2.69209 -4.8953,-1.86534 -1.4153,0.87468 -2.9444,-0.0882 -3.6572,-2.30302 -0.6737,-2.0934 -1.9982,-5.69523 -2.9433,-8.00407 -0.945,-2.30883 -2.2984,-5.98599 -3.0075,-8.17145 -1.7173,-5.29328 -2.6374,-3.93931 -3.9182,5.76631 -1.4931,11.31412 -4.478,13.49353 -7.7295,5.64363 -1.6005,-3.86376 -4.7222,-6.95594 -7.803,-7.72918 -5.7109,-1.43333 -8.2283,0.32913 -9.4124,6.58964 -0.5234,2.76724 -2.3811,4.14108 -5.4511,4.03122 -2.5614,-0.0917 -4.6571,0.61673 -4.6571,1.57421 0,0.95748 -1.0003,1.74087 -2.2228,1.74087 -1.2226,0 -1.6391,-0.94453 -0.9256,-2.09895 0.7134,-1.15442 0.3397,-2.09894 -0.8305,-2.09894 -2.0302,0 -4.2593,8.22704 -4.9763,18.36575 -0.3729,5.27461 -7.8364,6.83663 -7.8364,1.64008 0,-1.96406 -1.2192,-2.61467 -3.3602,-1.79309 -1.8481,0.7092 -4.2051,-0.0288 -5.2377,-1.64008 -4.6947,-7.3255 -10.6352,-26.84362 -10.6386,-34.95418 0,-11.387031 -2.2193,-10.014253 -5.9508,3.68892 -2.8573,10.49292 -6.2968,15.86427 -6.2968,9.83348 0,-3.49806 -9.9174,-21.822562 -12.762,-23.580672 -2.3498,-1.452225 -2.4182,-0.62347 -1.9571,23.717172 0.2946,15.54872 -0.2259,19.41522 -2.6138,19.41522 -1.9949,0 -2.8581,-2.07761 -2.6082,-6.27791 0.2145,-3.60544 -1.1193,-7.6289 -3.1333,-9.45151 -3.1699,-2.86872 -4.0463,-2.56807 -9.1229,3.12949 -3.0888,3.46671 -6.4522,6.3031 -7.4743,6.3031 -2.3779,0 -4.4062,-5.28056 -4.4062,-11.47116 0,-3.59885 -1.4665,-5.11134 -5.7498,-5.93014 -3.1623,-0.60452 -7.2009,-0.32246 -8.9747,0.62681 -3.8593,2.06546 -10.4628,-1.1812 -10.4628,-5.14414 0,-1.55076 -1.494,-3.39287 -3.3201,-4.09359 -4.6284,-1.77607 -5.524,-1.59857 -4.0411,0.80086 0.7354,1.18981 -0.1072,1.54169 -1.975,0.82491 -1.7916,-0.68749 -3.2575,-2.56572 -3.2575,-4.17384 0,-1.60812 -1.8103,-2.92385 -4.023,-2.92385 -2.2126,0 -4.4993,-1.180659 -5.0816,-2.623682 -0.5823,-1.443023 -1.1332,-0.2364 -1.2244,2.681392 -0.1662,5.3186 -4.4351,12.94404 -10.5431,18.83277 -1.7962,1.73163 -5.0674,6.69039 -7.2694,11.01946 -4.8326,9.50065 -7.5405,10.06597 -7.5405,1.5742 0,-3.46325 -0.8903,-6.29683 -1.9784,-6.29683 -1.0882,0 -1.6147,1.88905 -1.17,4.19789 0.5186,2.69307 -0.3214,4.19789 -2.3433,4.19789 -1.7335,0 -2.5639,0.95119 -1.8454,2.11376 0.7185,1.16257 -0.1648,2.67833 -1.963,3.36836 -1.7982,0.69002 -2.7469,2.10013 -2.1082,3.13359 0.6387,1.03345 0.1053,1.879 -1.1854,1.879 -1.2906,0 -1.775,0.925 -1.0762,2.05556 0.6987,1.13057 0.084,4.20027 -1.366,6.82157 -1.45,2.6213 -2.3968,5.94666 -2.104,7.38968 0.2928,1.44302 -0.9816,2.62368 -2.8319,2.62368 -1.8504,0 -2.7806,0.94452 -2.0671,2.09894 0.7135,1.15442 0.4115,2.09894 -0.671,2.09894 -1.0825,0 -3.1488,2.85053 -4.592,6.3345 -1.4431,3.48397 -6.4807,9.38725 -11.1946,13.11839 -4.7139,3.73115 -7.8424,5.60325 -6.9522,4.16022 0.8903,-1.44302 1.135,-2.62368 0.5438,-2.62368 -0.5912,0 -2.6591,3.3385 -4.5954,7.41888 -4.1974,8.84533 -11.369,13.78758 -11.369,7.83481 0,-2.08147 2.2322,-7.07346 4.9606,-11.0933 2.7284,-4.01984 7.0845,-12.03142 9.6803,-17.80352 2.5958,-5.77209 6.9752,-15.48146 9.7319,-21.57636 2.7568,-6.09491 5.0124,-11.99819 5.0124,-13.1184 0,-1.12021 1.5052,-2.03674 3.3449,-2.03674 1.8397,0 3.8389,-1.88905 4.4427,-4.19788 0.6037,-2.30884 1.8551,-4.19789 2.7807,-4.19789 2.6749,0 10.4211,-13.70574 10.4211,-18.43859 0,-2.36498 1.1806,-4.73287 2.6237,-5.26198 2.0366,-0.74676 2.0627,-1.55816 0.1167,-3.62634 -3.7829,-4.020454 -13.5636,0.81062 -21.4111,10.57588 -3.5841,4.46 -6.5166,8.58945 -6.5166,9.17654 0,0.58708 -3.3059,6.54575 -7.3464,13.24147 -4.0404,6.69572 -8.4171,15.47987 -9.7259,19.52034 -1.3088,4.04046 -6.0314,13.6505 -10.4947,21.35563 -4.4633,7.70514 -8.1151,15.28798 -8.1151,16.85076 0,3.72821 -13.8929,32.66726 -17.2968,36.02929 -1.4537,1.43584 -4.394,3.27413 -6.534,4.08508 -2.4384,0.92402 -3.4207,2.69997 -2.6312,4.75723 1.4555,3.79299 -2.3178,11.99635 -4.8095,10.45634 -2.7917,-1.72533 -11.0857,7.39925 -9.7915,10.77193 0.7521,1.96003 -0.3084,3.52287 -2.8398,4.18485 -3.274,0.85618 -23.2633,31.13509 -23.2633,35.23827 0,3.42428 4.6688,0.24253 6.859,-4.67441 3.2532,-7.30296 24.4605,-35.63017 31.6617,-42.29126 l 5.4432,-5.03502 -1.8191,6.34288 c -1.0005,3.48858 -3.4038,8.76151 -5.3408,11.71761 -3.6067,5.50452 -12.0795,31.07691 -10.7403,32.4161 1.5689,1.56885 26.4098,-44.44172 26.4098,-48.9164 0,-0.73526 2.0155,-4.16735 4.4789,-7.62686 3.4069,-4.78452 4.9026,-5.61565 6.2489,-3.47243 0.9736,1.54968 1.2557,4.47052 0.6271,6.49075 -1.4239,4.57568 2.4172,4.90148 4.1626,0.35307 0.7008,-1.82605 1.2741,-5.61696 1.2741,-8.42425 0,-2.8073 1.0913,-7.21654 2.4252,-9.79832 1.3338,-2.58177 3.0794,-6.11093 3.8791,-7.84255 0.7997,-1.73163 3.5745,-4.22392 6.1662,-5.53843 2.5917,-1.31451 6.484,-5.30339 8.6494,-8.86418 2.1655,-3.56079 6.3427,-7.07792 9.2828,-7.81584 2.9402,-0.73792 7.2198,-3.72422 9.5104,-6.63622 2.2906,-2.912 4.3085,-4.45877 4.4844,-3.43728 0.8582,4.98566 0.7705,8.2516 -0.2473,9.20357 -2.4618,2.30285 -6.3692,10.61846 -6.3692,13.55481 0,5.08154 -10.882,27.60783 -11.9566,24.7509 -1.1781,-3.13185 -8.2438,-3.49959 -10.0823,-0.52473 -0.7135,1.15442 -0.3266,2.09894 0.8597,2.09894 1.1863,0 1.5829,1.49598 0.8812,3.3244 -1.0271,2.67662 -1.6215,2.77887 -3.0504,0.52474 -1.1721,-1.84911 -1.7856,-0.40045 -1.8068,4.2667 -0.028,6.04131 0.5772,6.90701 4.1686,5.96784 2.3105,-0.60419 3.6715,-0.24209 3.0246,0.80467 -0.647,1.04676 -2.4586,1.9032 -4.0259,1.9032 -3.9358,0 -5.1964,4.79488 -1.9314,7.3463 2.1356,1.66879 1.616,4.67984 -2.5352,14.6926 -2.8717,6.92651 -6.207,14.57823 -7.4119,17.00381 -1.2048,2.42558 -2.466,7.1482 -2.8026,10.49471 -0.3367,3.34652 -1.2834,8.99685 -2.1039,12.5563 -1.1858,5.14388 -0.8064,6.47175 1.8489,6.47175 1.8375,0 3.3409,-1.11298 3.3409,-2.47328 0,-1.36031 2.0265,-4.27259 4.5033,-6.47174 4.4687,-3.96776 4.4849,-3.9635 2.1157,0.55484 -3.1126,5.93585 1.1735,7.88589 6.7098,3.05282 3.3003,-2.88105 3.8146,-2.91872 3.4245,-0.25086 -0.8919,6.09846 0.065,10.48575 2.2871,10.48575 1.2368,0 3.6656,1.41679 5.3973,3.14842 1.7316,1.73162 2.1808,3.14841 0.9983,3.14841 -1.1826,0 -2.061,2.12518 -1.9521,4.72262 0.5867,13.99038 -0.3103,16.13802 -8.4814,20.30658 -4.4472,2.26879 -9.8782,3.6784 -12.0689,3.13242 -2.558,-0.63751 -7.2681,1.84451 -13.1645,6.93701 -5.0497,4.36133 -11.1191,8.42801 -13.4875,9.03706 -2.3684,0.60905 -4.7348,2.39345 -5.2588,3.96533 -0.565,1.69498 -0.01,2.2725 1.3752,1.41924 1.2804,-0.79128 4.4067,-0.32616 6.9474,1.0336 4.3594,2.3331 4.4091,2.62616 0.8827,5.20477 -3.8469,2.81292 -2.9044,7.23453 1.53,7.17753 1.502,-0.0189 1.2431,-0.84426 -0.6486,-2.06681 -2.6907,-1.73883 -2.6144,-2.03933 0.5247,-2.06681 4.1954,-0.0367 5.0099,5.3755 1.0495,6.97355 -1.5765,0.63611 -1.1671,1.12482 1.0255,1.22438 2.007,0.0911 5.5841,1.81863 7.9492,3.83886 3.7536,3.20639 9.1578,3.67315 42.5276,3.67315 21.0251,0 42.2417,0.8291 47.148,1.84247 l 8.9205,1.84247 0,-8.64153 c 0,-4.75283 -1.7668,-13.29133 -3.9262,-18.97445 -3.5642,-9.38032 -3.6368,-10.93045 -0.7873,-16.81406 3.0781,-6.3555 9.4167,-8.65877 12.0598,-4.38218 2.0997,3.39742 7.3601,2.47829 6.0064,-1.04947 -1.5503,-4.0399 4.1916,-4.19478 8.1661,-0.22028 1.7293,1.72934 5.2279,2.48846 8.5457,1.85425 3.3107,-0.6329 5.7253,-0.11146 5.8799,1.26975 0.2713,2.42365 0.9363,5.38459 1.8228,8.11573 0.281,0.86582 0.4104,2.24862 0.2875,3.07288 -0.1228,0.82427 1.2102,0.94855 2.9624,0.27618 1.7766,-0.68176 2.7151,-2.7373 2.1217,-4.64709 -0.5853,-1.88352 -0.3773,-4.45196 0.4622,-5.70765 2.0976,-3.13759 10.702,-5.09848 12.1428,-2.76725 0.6465,1.04605 -0.5332,1.92291 -2.6216,1.94858 -3.1742,0.039 -2.9363,0.70818 1.4503,4.07944 4.6832,3.59918 5.2173,5.45591 4.9681,17.2696 -0.8223,38.97019 -1.5132,50.17983 -3.1557,51.1949 -0.9968,0.61608 -1.8124,3.31971 -1.8124,6.00808 0,5.84658 -12.092,23.96558 -23.3738,35.02405 -11.9007,11.66502 -27.9787,15.42016 -42.2181,9.86035 -5.2583,-2.05308 -7.2622,-6.99995 -6.0207,-14.8628 0.1367,-0.86582 -0.8116,-1.57421 -2.1074,-1.57421 -1.6277,0 -1.5483,-0.97315 0.257,-3.14841 2.1066,-2.53826 2.0547,-3.15465 -0.2677,-3.18055 -2.4058,-0.0269 -2.3978,-0.33793 0.049,-1.88712 1.6112,-1.02023 2.3681,-3.31801 1.6819,-5.10616 -1.0319,-2.68904 -6.5641,-3.36079 -31.9949,-3.885 -16.911,-0.34857 -31.1831,0.0747 -31.7157,0.94043 -0.9394,1.52696 3.8934,2.42798 9.2648,1.72731 1.4516,-0.18933 4.1524,0.50255 6.0019,1.53754 3.0608,1.71292 3.0496,2.00188 -0.1245,3.21994 -1.918,0.736 -2.9542,0.47577 -2.3028,-0.57826 0.6545,-1.059 -3.2879,-1.86453 -8.8115,-1.80043 -5.4977,0.0638 -14.3679,-0.47828 -19.7116,-1.20462 -7.2968,-0.99184 -10.3656,-0.53761 -12.3259,1.82446 -3.2838,3.95676 -7.8156,3.95355 -23.1363,-0.0168 -8.0549,-2.08723 -13.8636,-2.52769 -17.0945,-1.29622 -5.9793,2.27909 -14.5438,10.63975 -18.5311,18.09011 -2.5234,4.71503 -2.5299,5.7971 -0.044,7.33361 2.1155,1.30743 2.3042,2.56698 0.6872,4.5861 -1.2261,1.53101 -1.5388,4.67271 -0.6948,6.98155 0.8441,2.30884 0.7881,6.81355 -0.1244,10.01047 -1.0013,3.50813 -0.8804,5.33135 0.3049,4.59876 1.0803,-0.66761 2.0291,-0.44972 2.1087,0.48423 0.7081,8.31467 2.0182,14.11671 3.421,15.15088 1.4349,1.05781 1.7858,11.53554 0.8718,26.02627 -0.1318,2.08836 -1.1367,3.24255 -2.2332,2.56488 -1.0965,-0.67768 -3.0798,0.79735 -4.4073,3.27784 -1.5384,2.87467 -1.6087,4.01253 -0.1939,3.13811 1.2209,-0.75453 0.8747,1.22064 -0.7692,4.38924 -2.3128,4.45805 -2.4115,6.12804 -0.4361,7.38327 1.4041,0.89217 1.7288,1.63661 0.7216,1.65428 -1.0072,0.0168 -0.6534,1.45127 0.7861,3.18575 1.5329,1.84707 2.106,5.70967 1.3833,9.32319 -0.6786,3.39326 0.2997,11.18323 2.174,17.31108 4.0823,13.34619 4.2217,14.07146 5.7289,29.80524 0.6516,6.80179 2.2165,13.61014 3.4776,15.12964 1.2611,1.51949 2.7575,11.53905 3.3253,22.26565 0.5679,10.72661 1.2775,24.22554 1.577,29.99764 0.8513,16.40886 3.6486,35.30455 5.8534,39.53928 3.1056,5.96511 4.083,13.98376 1.7045,13.98376 -3.8339,0 -2.2661,8.06866 4.136,21.28503 6.8251,14.08953 14.5874,22.68021 29.7474,32.92205 5.3827,3.63639 10.2669,7.8037 10.8538,9.26064 0.7423,1.84281 1.1175,1.89511 1.2328,0.1719 0.1154,-1.72732 2.0075,-1.94895 6.2501,-0.73217 3.9706,1.13874 6.9179,0.91161 8.4832,-0.6537 1.5862,-1.58617 2.9024,-1.67919 3.8855,-0.2746 0.8178,1.16827 4.0843,3.2653 7.2589,4.66009 3.1747,1.39477 5.7721,4.02873 5.7721,5.85324 0,1.82451 0.9446,2.73354 2.099,2.02006 1.1544,-0.71347 2.0989,0.16729 2.0989,1.95729 0,1.78998 1.8891,4.43423 4.1979,5.87612 2.324,1.45135 4.1979,4.8948 4.1979,7.71391 0,2.80076 0.6143,4.47797 1.3651,3.72713 1.5811,-1.58105 11.2285,8.22947 11.2285,11.41829 0,3.39481 4.4706,6.93183 15.4369,12.21319 7.6856,3.7014 10.5811,4.27353 11.7833,2.32825 1.1478,-1.8571 3.6457,-0.77753 8.9237,3.85662 4.0314,3.53961 8.0554,5.74875 8.9421,4.90922 0.8868,-0.83954 0.9515,0.62246 0.144,3.24891 -1.0473,3.40587 -0.6706,4.60974 1.3135,4.19788 1.6841,-0.3496 3.0527,1.79164 3.4683,5.42632 1.1169,9.76739 9.7748,23.05174 18.1429,27.83754 l 7.7916,4.45612 -15.4094,-1.06137 -15.4095,-1.06137 5.8803,5.52576 c 3.2341,3.03916 7.2483,5.64383 8.9205,5.78813 4.9399,0.42632 6.035,0.75413 9.1918,2.75184 5.0569,3.20011 23.6511,3.71481 35.8273,0.99173 40.9692,-9.16239 59.9751,-15.05834 78.9918,-24.50453 11.3894,-5.65751 28.4149,-13.34903 37.8346,-17.09226 24.119,-9.58457 58.9801,-29.42271 81.6619,-46.47077 47.0478,-35.36188 72.0599,-74.80406 93.7722,-147.87158 2.728,-9.18045 3.8772,-10.5668 9.1766,-11.07027 9.6979,-0.92133 15.506,-2.52805 15.1247,-4.18397 -0.1948,-0.84552 0.8891,-4.09552 2.4084,-7.22221 3.3543,-6.90296 -0.1727,-22.41856 -6.3716,-28.02836 -2.7917,-2.52652 -3.5399,-5.30527 -2.7126,-10.07506 1.1695,-6.74325 6.8829,-26.29209 8.5304,-29.18756 2.4097,-4.23491 17.756,14.92848 23.8888,29.83055 7.2942,17.72409 13.6812,26.48703 11.8995,16.32586 -1.0087,-5.7523 -0.9537,-5.78505 4.1272,-2.45596 8.085,5.29755 7.975,1.98535 -0.1398,-4.20405 -7.9871,-6.09204 -13.6328,-17.82926 -14.899,-30.97423 -0.5989,-6.21785 -0.1954,-7.82916 1.5292,-6.10474 4.1231,4.12319 7.9821,2.75388 6.7068,-2.37982 -1.0601,-4.26755 -0.3056,-4.79858 7.831,-5.51098 22.8028,-1.99652 21.2863,-2.69694 24.4286,11.28307 1.5569,6.92652 5.0544,17.31628 7.7724,23.08838 2.7179,5.77209 5.6245,12.38376 6.4591,14.6926 3.2993,9.12742 3.2152,-5.24329 -0.1165,-19.89164 -3.7581,-16.52315 -4.1285,-21.79595 -1.413,-20.1177 1.0392,0.6423 1.5774,-2.19048 1.196,-6.29502 -0.9243,-9.9444 2.7377,-10.99423 13.8596,-3.9733 4.917,3.10394 11.3804,6.37875 14.3632,7.27731 2.9827,0.89855 7.3122,2.34288 9.621,3.20959 2.3089,0.8667 0.4198,-1.05419 -4.1978,-4.26866 -4.6177,-3.21447 -9.6411,-7.61912 -11.1631,-9.7881 -1.522,-2.16901 -3.4215,-3.53935 -4.221,-3.04519 -2.1209,1.31077 -7.7338,-3.36249 -9.4154,-7.8392 -2.446,-6.51155 0.6433,-7.98052 7.1058,-3.37881 3.3822,2.40834 6.1495,3.4257 6.1495,2.26081 0,-1.16489 -0.9445,-2.70174 -2.099,-3.41521 -3.572,-2.20765 -2.323,-4.92018 2.6237,-5.69788 2.5975,-0.40835 9.3189,1.65114 14.9365,4.57664 7.4174,3.86284 10.4823,4.6008 11.1943,2.69545 1.1061,-2.9597 8.3023,-3.58888 9.3763,-0.81979 0.3848,0.99213 5.2557,3.80337 10.8242,6.24717 5.5685,2.4438 9.5745,5.33329 8.9022,6.42109 -0.6723,1.08779 1.6861,2.6166 5.2409,3.39737 4.0901,0.89832 6.0792,2.42037 5.4173,4.14524 -0.5753,1.49913 1.2434,4.87641 4.0415,7.50511 2.7981,2.62867 4.7272,5.13972 4.2868,5.58008 -0.4404,0.44036 4.0499,5.89387 9.9783,12.11892 7.7531,8.14106 10.9079,13.1876 11.2384,17.97738 0.2527,3.66251 2.1418,7.93531 4.1979,9.49512 2.0561,1.55981 2.6501,2.86604 1.32,2.90277 -4.6649,0.12867 -9.7917,23.15512 -5.1555,23.15512 1.0293,0 2.492,-2.47276 3.2506,-5.49503 0.7585,-3.02227 1.9986,-4.87559 2.7557,-4.11852 2.9126,2.9127 2.6746,12.36141 -0.4308,17.10092 -1.7872,2.72752 -3.2493,7.44376 -3.2493,10.48082 0,10.88735 -14.8003,24.01097 -27.0787,24.01097 -7.6183,0 -5.272,-6.27578 2.4161,-6.46254 3.7519,-0.0911 5.6357,-0.64385 4.1862,-1.22828 -1.8177,-0.73289 -1.1978,-2.22665 1.9977,-4.81424 4.5576,-3.69051 4.4466,-3.73459 -6.8098,-2.70411 -6.2936,0.57613 -12.5442,1.92231 -13.8901,2.99149 -1.6602,1.31879 -2.887,0.55836 -3.8146,-2.36441 -1.8108,-5.70535 -4.8234,-5.48492 -5.6612,0.41422 -0.613,4.31576 -1.7557,4.71133 -13.2644,4.59161 -6.9265,-0.072 -13.0659,0.48213 -13.6431,1.23149 -0.5772,0.74939 -5.6522,-0.24763 -11.2778,-2.2156 l -10.2283,-3.57811 9.8959,-1.484 c 13.7505,-2.062 9.9187,-4.33381 -6.0965,-3.61457 -9.8951,0.44437 -14.8531,-0.36931 -19.5111,-3.20198 -3.4347,-2.08878 -6.1472,-4.63016 -6.0277,-5.64756 0.3061,-2.60728 -13.0194,-9.42788 -21.5437,-11.02707 -3.9325,-0.73774 -8.9883,-3.17971 -11.2352,-5.42659 -2.2469,-2.24689 -4.6876,-3.48294 -5.4238,-2.74676 -0.7362,0.73619 -0.011,2.15969 1.6142,3.16336 2.3245,1.43665 2.4165,2.47088 0.4323,4.86166 -1.9992,2.40891 -1.7543,3.95829 1.1844,7.49354 4.9149,5.91247 26.7687,16.85451 36.8972,18.47412 4.724,0.75539 7.0387,1.93397 5.575,2.83855 -1.662,1.02718 -0.2678,2.86705 4.15,5.47658 6.5191,3.85081 6.5554,3.95714 1.8076,5.29471 -4.6393,1.30701 -4.6075,1.37386 0.7486,1.57421 3.8783,0.14503 8.231,3.20531 14.1933,9.97886 9.396,10.67442 9.8746,13.56057 1.3191,7.95476 -3.0223,-1.98023 -6.1094,-2.98608 -6.8603,-2.23521 -1.7162,1.7162 11.937,15.99496 15.2942,15.99496 3.3232,0 8.1683,6.01972 6.327,7.86098 -0.8045,0.80448 -2.3414,0.0732 -3.4154,-1.62494 -1.0739,-1.69819 -2.0394,-2.1431 -2.1454,-0.98869 -0.106,1.15442 -0.5098,3.75636 -0.8973,5.78209 -0.3876,2.02573 -0.032,3.26749 0.7899,2.75946 0.8221,-0.50805 2.6362,0.90424 4.0314,3.1384 2.0505,3.28323 1.9791,4.06213 -0.3723,4.06213 -1.6001,0 -4.1183,-1.45682 -5.596,-3.23737 -1.9644,-2.36692 -3.3032,-2.61111 -4.9796,-0.90817 -1.6628,1.68919 -1.253,3.09724 1.4915,5.12432 2.7939,2.06349 3.0686,3.05007 1.0495,3.76921 -3.5911,1.27908 -1.536,3.3766 4.16,4.24587 2.4976,0.38117 5.2738,1.49848 6.1694,2.48293 0.8955,0.98444 0.4476,1.11046 -0.9954,0.28004 -4.5798,-2.63556 -2.8402,0.59339 3.6732,6.81791 3.4632,3.30966 6.2968,6.54866 6.2968,7.19778 0,0.6491 -2.8787,1.81246 -6.3971,2.58525 -5.2082,1.14388 -5.9406,1.95514 -3.9409,4.36464 1.3509,1.6278 3.3526,2.95962 4.4481,2.95962 3.4022,0 9.271,6.91891 6.6187,7.80301 -1.3102,0.43672 -1.8613,2.78551 -1.2248,5.2195 0.7519,2.87543 0.3571,3.93092 -1.1273,3.01354 -2.8618,-1.76872 -5.2627,1.97958 -6.0862,9.50214 -0.3485,3.18345 -0.8816,6.8862 -1.1847,8.22834 -0.3031,1.34213 0.6303,2.87335 2.0741,3.40273 1.6878,0.61885 2.1664,-0.23271 1.3405,-2.38512 -0.9467,-2.4669 -0.3808,-3.00075 2.151,-2.02921 5.1074,1.95989 -0.3459,7.73817 -5.97,6.32583 -4.2089,-1.05694 -4.2198,-0.99775 -0.3492,1.89527 3.5731,2.67067 3.6326,3.12545 0.5632,4.30329 -2.6542,1.01851 -2.9484,2.22106 -1.2978,5.30512 1.5814,2.95496 1.4355,3.99641 -0.5632,4.02021 -2.0897,0.025 -2.0575,0.43772 0.1429,1.83202 2.144,1.35856 2.2907,2.82694 0.5986,5.98871 -1.233,2.30386 -1.6454,4.78529 -0.9164,5.5143 0.729,0.72898 0.1902,1.32544 -1.1971,1.32544 -1.8436,0 -1.9378,1.09277 -0.3498,4.0599 3.1753,5.93315 2.8337,6.43481 -4.3811,6.43481 -5.3294,0 -6.1054,0.54029 -4.1536,2.89205 1.8859,2.27242 1.4905,3.12993 -1.8457,4.00235 -3.3966,0.88823 -4.0944,2.49424 -3.4885,8.02882 0.4166,3.80517 1.8351,7.2777 3.1522,7.71674 3.4553,1.15175 2.9456,9.97195 -0.7537,13.04208 -1.7316,1.43712 -3.1484,4.6697 -3.1484,7.1835 0,2.51382 -1.1338,5.7044 -2.5196,7.09021 -1.3867,1.38667 -2.382,7.23829 -2.2135,13.01345 0.2937,10.06535 -1.693,13.27986 -4.9504,8.00946 -1.0555,-1.70785 -2.0321,-1.21583 -3.1247,1.57421 -2.8573,7.29647 -2.0211,9.30516 3.8877,9.33805 3.1746,0.0168 7.1889,0.94773 8.9205,2.0668 2.5329,1.63693 2.201,2.04095 -1.6981,2.06681 -2.7281,0.0189 -4.2728,0.96033 -3.534,2.15572 0.7293,1.18009 -1.5471,2.69551 -5.1235,3.41079 -3.5398,0.70797 -6.554,2.58591 -6.6983,4.17324 -0.1444,1.58733 -0.4315,4.0667 -0.6381,5.50974 -0.5053,3.5283 6.2025,9.97 10.3818,9.97 1.848,0 2.7986,0.9084 2.1124,2.0187 -0.7987,1.2924 -3.1582,1.2924 -6.5573,0 -6.6981,-2.5466 -7.7012,-2.5334 -6.0859,0.08 0.7135,1.1544 0.4176,2.0989 -0.6573,2.0989 -3.1057,0 -5.1791,17.2293 -2.2885,19.0158 1.6959,1.0481 1.1659,2.2169 -1.7014,3.7514 -2.9292,1.5676 -19.601,1.5885 -56.1909,0.07 -28.6143,-1.1873 -71.7573,-1.8526 -95.8734,-1.4786 -36.9642,0.5734 -43.7563,0.2132 -43.2677,-2.2944 0.3188,-1.6359 1.7609,-3.3678 3.2047,-3.8485 1.7505,-0.5828 2.1757,0.4082 1.2762,2.9745 -1.2976,3.7024 -1.1981,3.7057 2.6223,0.087 2.9056,-2.7525 3.9711,-6.6948 3.9711,-14.6926 0,-10.797 0.084,-10.9388 6.8188,-11.5883 8.8521,-0.8536 13.1629,-7.76086 7.515,-12.04141 -2.1115,-1.60032 -2.8945,-2.95415 -1.7401,-3.00854 1.1544,-0.0544 0.7486,-0.95342 -0.9018,-1.99784 -3.6593,-2.31578 -4.9839,-9.09409 -1.5536,-7.95064 1.3505,0.45013 2.4554,2.14358 2.4554,3.76321 0,1.61961 1.6529,3.26308 3.6731,3.65214 2.0203,0.38906 3.6732,-0.24274 3.6732,-1.40402 0,-1.16126 1.8466,-2.69748 4.1035,-3.41381 3.3832,-1.0738 3.7608,-2.20397 2.1509,-6.43828 -1.7062,-4.48768 -1.3632,-5.14427 2.718,-5.2026 4.5588,-0.0651 4.573,-0.14063 0.5964,-3.14842 -4.0831,-3.08828 -14.0569,-4.19081 -16.4313,-1.81638 -0.6959,0.69592 -0.4444,3.42451 0.559,6.06355 1.5597,4.10243 1.2405,4.64559 -2.2016,3.74546 -2.2142,-0.57904 -5.5631,-0.46288 -7.442,0.25813 -2.754,1.05679 -2.9181,1.91104 -0.8467,4.40692 2.238,2.69664 1.6593,2.78446 -4.4863,0.68081 -3.8806,-1.32834 -7.7627,-3.44111 -8.6269,-4.69504 -0.8642,-1.25393 -0.9392,1.00502 -0.1667,5.01987 0.7725,4.01486 3.3686,8.94219 5.7692,10.94962 2.4005,2.00743 3.2996,3.6813 1.9979,3.71971 -1.3016,0.0384 -3.5338,-1.33657 -4.9604,-3.05548 -4.0001,-4.81982 -6.9081,-1.33629 -5.6022,6.71104 1.0154,6.2568 0.7474,6.8937 -1.9565,4.6497 -4.9648,-4.1204 -7.9768,0.7996 -7.7968,12.7353 0.087,5.7824 -0.5458,10.5134 -1.4067,10.5134 -0.8609,0 -1.114,2.3613 -0.5622,5.2474 0.787,4.1172 0.1593,5.2117 -2.9148,5.0816 -2.2107,-0.093 -2.7746,-0.627 -1.2942,-1.2243 4.2306,-1.7071 3.0285,-4.3501 -2.6236,-5.7687 -2.8861,-0.7244 -5.2474,-2.2435 -5.2474,-3.376 0,-1.1324 -1.1806,-2.0275 -2.6237,-1.9891 -1.443,0.038 -0.5344,1.8136 2.0191,3.9449 l 4.6427,3.8751 -4.3374,3.9261 c -4.14,3.7475 -11.2218,3.9525 -155.6457,4.5049 l -151.3083,0.5788 6.1759,-6.2926 c 3.3968,-3.4609 7.1992,-6.3188 8.4498,-6.3508 1.2506,-0.032 5.0287,-2.8657 8.3958,-6.2969 3.367,-3.4311 7.2846,-6.2647 8.7056,-6.2968 1.421,-0.032 3.1763,-2.4196 3.9007,-5.3056 0.7243,-2.8861 2.6871,-5.2474 4.3617,-5.2474 1.6746,0 2.461,-0.9445 1.7475,-2.0989 -0.7134,-1.1545 -0.4115,-2.099 0.671,-2.099 1.0825,0 3.1419,-2.8336 4.5764,-6.29683 1.4345,-3.46326 3.6743,-6.31129 4.9773,-6.32896 1.3732,-0.0189 1.1531,-0.80226 -0.5236,-1.86429 -1.5909,-1.00768 -2.3184,-2.76111 -1.6167,-3.89654 1.4794,-2.39372 -3.4773,-6.74707 -36.4201,-31.98671 -13.2758,-10.1715 -30.7916,-25.43101 -38.924,-33.91004 -16.8729,-17.59221 -37.0822,-34.0267 -51.1406,-41.58831 -5.2994,-2.85035 -10.2974,-6.22589 -11.1067,-7.50119 -0.8094,-1.27531 -5.3056,-3.58409 -9.9916,-5.13063 -7.0567,-2.32893 -9.4064,-2.33755 -13.6802,-0.0502 -4.8618,2.60196 -5.0865,3.50159 -3.8852,15.56043 0.7013,7.03936 3.0346,23.66084 5.1853,36.93666 2.1507,13.27581 4.3058,26.97142 4.7892,30.43467 1.3817,9.89948 3.4593,18.52378 5.5618,23.08838 3.2852,7.13227 12.7113,33.24246 14.3972,39.87996 0.8797,3.4632 4.1056,11.2242 7.1688,17.2465 3.0631,6.0223 5.5694,11.9256 5.5694,13.1184 0,2.1495 -433.12857,2.858 -441.30277,0.7218 z m 253.44732,-9.0479 c -0.7134,-1.1544 -2.6582,-2.0989 -4.3217,-2.0989 -1.6635,0 -3.0246,0.9445 -3.0246,2.0989 0,1.1545 1.9448,2.099 4.3218,2.099 2.377,0 3.738,-0.9445 3.0245,-2.099 z m 1.8794,-8.0565 c -4.5815,-0.999 -6.5599,1.6145 -2.9235,3.862 1.9374,1.1973 3.6007,0.9667 4.6066,-0.6389 0.9374,-1.4962 0.2565,-2.8002 -1.6831,-3.2231 z m -213.47129,-23.0518 c -3.92233,-0.7554 -4.92913,-4.57368 -1.20598,-4.57368 1.31072,0 1.85968,-1.85108 1.24549,-4.19974 -0.74322,-2.84207 0.60268,-5.53768 4.16333,-8.33849 5.87623,-4.62225 9.39776,-16.6879 7.67376,-26.29222 -0.62166,-3.46326 -1.09294,-9.58562 -1.0473,-13.60524 0.0457,-4.01963 -1.39646,-8.9432 -3.20469,-10.94129 -1.80822,-1.99807 -2.71679,-5.12056 -2.01904,-6.9389 0.73757,-1.92206 -0.0345,-3.80611 -1.84438,-4.50061 -1.71216,-0.65703 -3.11303,-2.98258 -3.11303,-5.16792 0,-2.19939 -1.46094,-3.97332 -3.27229,-3.97332 -1.79975,0 -2.68599,0.94864 -1.9694,2.1081 0.82728,1.33858 -1.42607,1.67441 -6.17296,0.92001 -5.55513,-0.88286 -7.47583,-0.43795 -7.47583,1.73171 0,1.60588 1.65291,2.8448 3.67315,2.75314 2.02023,-0.0917 3.67315,0.77787 3.67315,1.93229 0,1.15442 -0.7786,1.83941 -1.73022,1.52219 -0.95163,-0.31719 -1.12789,0.39786 -0.39171,1.58905 0.73619,1.19117 -0.13813,2.7324 -1.94292,3.42497 -1.8048,0.69257 -3.28145,3.46372 -3.28145,6.15813 0,2.69442 -0.92998,5.47369 -2.06662,6.17616 -2.21769,1.37061 -0.85873,18.01918 1.62325,19.88636 2.37519,1.78685 2.41488,8.98343 0.0737,13.35805 -1.52571,2.8508 -1.48408,3.60332 0.14367,2.59729 1.26045,-0.77898 3.95213,-0.44942 5.9815,0.73237 3.5037,2.04036 3.50454,2.15194 0.0166,2.21253 -2.02023,0.0351 -3.67315,1.17012 -3.67315,2.52224 0,1.35212 -1.65291,4.34586 -3.67315,6.65273 -3.42638,3.91255 -3.4309,4.10607 -0.0672,2.88063 1.98327,-0.72254 4.21916,-0.3215 4.96866,0.89121 0.74949,1.21273 3.61332,1.77472 6.36405,1.24887 6.52288,-1.24692 6.39507,0.13475 -0.24604,2.6597 -6.03622,2.29498 -6.99387,7.70508 -1.5742,8.89328 2.02023,0.4429 5.97891,-0.194 8.79708,-1.4154 4.01162,-1.7385 4.35335,-2.369 1.5742,-2.9042 z m 849.49889,-37.33187 c 1.826,-0.70071 3.3201,-2.58976 3.3201,-4.19788 0,-1.60811 0.8446,-2.92385 1.8769,-2.92385 1.0323,0 1.7407,-2.36064 1.5742,-5.24587 -0.1665,-2.88525 -1.0111,-5.24656 -1.8769,-5.24736 -0.8658,-8.1e-4 -1.5742,-1.51932 -1.5742,-3.37447 0,-2.04831 1.1682,-2.92469 2.9747,-2.23147 1.6361,0.62782 3.5282,-0.30088 4.2047,-2.06378 1.9007,-4.95324 -0.6464,-7.20748 -5.042,-4.46234 -2.1807,1.36184 -3.5591,3.13257 -3.0632,3.93498 0.7626,1.23388 -5.2175,4.69084 -7.0202,4.05822 -0.3299,-0.11565 -2.2105,1.40031 -4.1792,3.36901 -2.5881,2.58808 -2.858,3.81993 -0.9745,4.44777 1.4327,0.47757 2.6049,3.46575 2.6049,6.6404 0,7.86829 1.5574,9.45217 7.1747,7.29664 z m 20.1116,-32.30905 c 0,-1.15442 -1.4725,-2.09894 -3.2723,-2.09894 -1.7997,0 -2.6885,0.94452 -1.9751,2.09894 0.7135,1.15442 2.1861,2.09895 3.2723,2.09895 1.0863,0 1.9751,-0.94453 1.9751,-2.09895 z m -7.4587,-6.20355 c 2.7442,-2.2775 2.8965,-3.23495 0.7365,-4.63067 -2.0036,-1.29467 -1.4753,-2.10148 1.9996,-3.05377 2.5974,-0.71181 4.7226,-2.22962 4.7226,-3.37292 0,-1.14329 1.5774,-1.47339 3.5053,-0.73358 5.8544,2.24652 7.2345,-3.50038 2.1702,-9.03693 l -4.626,-5.05743 6.8215,1.29935 c 3.7519,0.71465 6.8216,0.45568 6.8216,-0.57544 0,-1.03115 0.5733,-3.36885 1.274,-5.19489 0.9134,-2.38009 0.022,-3.32009 -3.1484,-3.32009 -2.4323,0 -4.4224,1.00028 -4.4224,2.22283 0,1.22255 -0.9445,1.63906 -2.099,0.92559 -1.1544,-0.71347 -2.0989,-0.36264 -2.0989,0.77961 0,1.14227 -2.0397,2.37867 -4.5326,2.74756 -4.3552,0.64446 -5.8745,3.75366 -6.6527,13.61494 -0.5723,7.25237 -3.1397,8.07287 -8.7547,2.79785 -2.8769,-2.70275 -5.9429,-4.15138 -6.8133,-3.21915 -0.8703,0.9322 -0.502,2.08316 0.8184,2.55767 1.3205,0.47452 1.9187,2.70652 1.3294,4.96001 -0.5902,2.2572 -0.019,4.09724 1.2723,4.09724 1.2891,0 2.3438,1.33321 2.3438,2.9627 0,3.56136 4.5676,3.18426 9.3328,-0.77048 z m 9.9996,-16.05565 c -2.2229,-2.40504 -2.1513,-2.92811 0.4009,-2.92811 3.5653,0 6.314,3.42841 3.914,4.88201 -0.8846,0.53582 -2.8263,-0.34345 -4.3149,-1.9539 z m -0.442,-20.76913 c 0,-1.73163 -1.3871,-3.14841 -3.0825,-3.14841 -1.8777,0 -2.6103,1.23058 -1.8744,3.14841 0.6645,1.73163 2.0517,3.14841 3.0826,3.14841 1.0309,0 1.8743,-1.41678 1.8743,-3.14841 z m 11.2584,-2.0869 c -0.6619,-1.72499 -2.0645,-2.60424 -3.1168,-1.9539 -2.2009,1.36024 -0.4341,5.09027 2.4112,5.09027 1.05,0 1.3676,-1.41137 0.7056,-3.13637 z m 10.8316,-4.20993 c -0.4473,-4.81313 0.2147,-7.3463 1.9199,-7.3463 2.4557,0 7.4743,-8.45819 7.4743,-12.59702 0,-1.04762 -2.5492,-4.45391 -5.6648,-7.56952 l -5.6647,-5.66477 -1.8565,5.56935 c -1.021,3.06316 -2.778,5.56936 -3.9043,5.56936 -1.1264,0 -1.5254,0.84556 -0.8867,1.87901 0.6388,1.03344 -0.3572,2.46171 -2.2132,3.17392 -2.3666,0.90815 -2.9584,2.69777 -1.9815,5.99202 0.7661,2.58342 1.6642,6.06271 1.9957,7.73175 0.3316,1.66906 1.9371,3.46047 3.5678,3.98092 1.6308,0.52048 3.7204,2.22459 4.6436,3.78693 2.6614,4.50417 3.3032,3.37916 2.5704,-4.50565 z m 16.8261,-29.13085 c 0.047,-3.28096 1.5577,-7.0417 3.3567,-8.35722 3.6146,-2.64303 3.904,-3.40541 3.904,-10.28433 0,-2.60924 2.2253,-7.14397 4.9451,-10.07716 3.7209,-4.01278 4.7002,-7.00207 3.9557,-12.07454 -0.7657,-5.21678 -0.3145,-6.48246 1.9948,-5.59627 1.9841,0.76137 4.5274,-1.94463 7.5885,-8.07388 2.5324,-5.07048 4.6043,-9.96897 4.6043,-10.88556 0,-0.91658 2.5299,-6.95254 5.622,-13.41323 5.8706,-12.26603 6.1232,-13.06325 8.2481,-26.03015 1.0397,-6.34504 0.5038,-8.58788 -2.6076,-10.912 -3.8938,-2.90861 -13.3615,-3.49556 -13.3615,-0.82835 0,0.76798 2.1252,1.97874 4.7226,2.69055 3.4402,0.94276 3.9909,1.76731 2.0279,3.03629 -1.6166,1.04509 -2.1007,3.29032 -1.2098,5.61182 1.1644,3.0344 0.7267,3.57876 -2.0279,2.52173 -3.3769,-1.29582 -4.3638,0.75955 -4.0767,8.49025 0.054,1.44302 -1.2701,2.62368 -2.9416,2.62368 -1.6715,0 -2.4553,0.94452 -1.7418,2.09894 0.7134,1.15442 0.1788,2.09894 -1.188,2.09894 -1.6625,0 -2.0521,2.16527 -1.1771,6.54067 1.1577,5.78842 0.8258,6.41451 -2.886,5.44386 -2.3068,-0.60324 -4.1942,-0.24071 -4.1942,0.80563 0,1.04635 -1.4918,1.90244 -3.3152,1.90244 -2.6357,0 -3.0206,1.39805 -1.8778,6.82157 0.7906,3.75186 2.2824,7.71886 3.3152,8.81556 2.2908,2.43249 2.4808,7.45125 0.2822,7.45125 -0.8776,0 -4.1423,-2.36131 -7.2547,-5.24736 -6.6421,-6.15889 -7.9412,-6.45427 -7.9412,-1.8056 0,1.89296 -1.6529,4.66902 -3.6732,6.16899 -3.0494,2.26415 -3.2395,3.43792 -1.1194,6.91253 2.1427,3.51151 1.9737,4.33763 -1.0494,5.13171 -3.3453,0.87868 -3.3403,0.96385 0.07,1.18991 2.0202,0.13391 3.6731,1.188 3.6731,2.34242 0,1.15442 -0.7084,1.98709 -1.5742,1.85038 -0.8658,-0.13664 -3.4633,-0.0972 -5.7721,0.0879 -3.3542,0.26892 -2.7214,1.18353 3.1484,4.55084 6.2822,3.60383 6.5609,4.05407 1.9241,3.10825 -4.1529,-0.84712 -5.4223,-0.26317 -5.4223,2.4943 0,1.9802 1.3291,4.92951 2.9537,6.55403 2.3926,2.39267 2.4364,3.27336 0.2303,4.63682 -1.5721,0.9716 -3.3987,0.6208 -4.3208,-0.82976 -1.0245,-1.61148 -1.6091,-0.93552 -1.6297,1.88443 -0.017,2.41853 1.8569,6.10688 4.1658,8.19635 2.3088,2.08948 4.1979,5.1387 4.1979,6.77604 0,1.70917 1.5643,2.67158 3.6731,2.25983 2.4414,-0.47669 3.7019,-2.71759 3.7588,-6.68257 z m -2.1846,-47.48057 c 0.7135,-1.15442 2.6583,-2.09894 4.3218,-2.09894 1.6635,0 3.0245,0.94452 3.0245,2.09894 0,1.15442 -1.9447,2.09894 -4.3217,2.09894 -2.377,0 -3.738,-0.94452 -3.0246,-2.09894 z m -912.98454,48.68106 c -0.64624,-0.64624 -2.33989,-0.001 -3.76368,1.43311 -2.05752,2.07296 -1.81643,2.31405 1.17498,1.17499 2.07002,-0.78821 3.23493,-1.96186 2.5887,-2.6081 z M 1840.4768,809.53584 c -0.7135,-1.15442 -2.2417,-2.09894 -3.3962,-2.09894 -1.1544,0 -1.5152,0.94452 -0.8017,2.09894 0.7135,1.15442 2.2417,2.09895 3.3962,2.09895 1.1544,0 1.5152,-0.94453 0.8017,-2.09895 z m -24.1379,-34.47883 c 0,-0.8821 -12.4323,-7.50003 -14.0894,-7.50003 -0.468,0 -0.2262,1.01071 0.5372,2.24604 1.9837,3.2097 13.5522,7.69464 13.5522,5.25399 z m -12.0318,-13.97428 c -0.8343,-3.19025 -1.5963,-3.64377 -2.8135,-1.67443 -1.8063,2.92275 -0.6801,6.04974 2.1791,6.04974 0.9782,0 1.2637,-1.96889 0.6344,-4.37531 z m 10.4576,-1.21266 c -1.443,-0.58227 -3.8043,-0.58227 -5.2473,0 -1.443,0.58226 -0.2624,1.05868 2.6237,1.05868 2.886,0 4.0667,-0.47642 2.6236,-1.05868 z m -84.4866,-8.39418 c 0,-1.34087 -1.6487,-2.12153 -3.669,-1.7348 -2.0202,0.38675 -4.8538,0.77543 -6.2968,0.86376 -1.443,0.0884 -2.6237,1.06708 -2.6237,2.17503 0,1.10795 2.8317,1.81634 6.2927,1.5742 3.461,-0.24213 6.2945,-1.5373 6.2968,-2.87819 z m 77.6651,-7.00728 c 2.5459,-1.6453 2.2447,-2.0408 -1.5742,-2.06681 -2.5975,-0.0177 -4.7227,0.91239 -4.7227,2.06681 0,2.62981 2.2275,2.62981 6.2969,0 z m -58.7704,-15.77217 c 0,-3.24119 -3.1313,-7.3162 -5.6219,-7.3162 -2.6038,0 -2.5694,-0.50432 0.2246,-3.29835 1.8141,-1.81407 3.2983,-4.14216 3.2983,-5.17349 0,-3.36746 -7.2935,-5.87935 -15.8016,-5.44204 -9.1824,0.47197 -13.1899,4.07739 -5.7125,5.13935 5.2735,0.74896 5.9227,2.53691 2.2535,6.2062 -4.1477,4.14768 3.0132,9.86683 12.8183,10.23759 4.6977,0.17757 8.5413,0.0189 8.5413,-0.35306 z m -18.8905,-7.3162 c 0,-1.15442 0.4165,-2.09895 0.9256,-2.09895 0.5091,0 1.5093,0.94453 2.2228,2.09895 0.7135,1.15441 0.297,2.09894 -0.9256,2.09894 -1.2225,0 -2.2228,-0.94453 -2.2228,-2.09894 z m 5.5378,-5.24736 c 1.3515,-3.52201 4.1097,-4.11842 5.8704,-1.2694 0.6388,1.03343 -0.3273,2.45022 -2.1467,3.14841 -4.7272,1.81402 -5.0738,1.63915 -3.7237,-1.87901 z m -25.1279,-6.29683 c 0,-1.73163 -1.3751,-3.14842 -3.0556,-3.14842 -2.4781,0 -2.5618,0.59503 -0.4427,3.14842 1.4371,1.73163 2.8122,3.14841 3.0556,3.14841 0.2435,0 0.4427,-1.41678 0.4427,-3.14841 z m 164.8107,-0.38434 c -1.5152,-0.60632 -3.3255,-0.53177 -4.023,0.16561 -0.6974,0.69746 0.5423,1.19354 2.7549,1.1024 2.4451,-0.10074 2.9425,-0.59807 1.2681,-1.26809 z m 1.1807,-3.90632 c 9.1146,-2.0008 4.6,-5.15435 -7.3463,-5.13148 -16.1955,0.0311 -27.81,2.10797 -27.8158,4.97414 0,2.3347 24.7387,2.44542 35.1621,0.15742 z m -143.5125,-4.73448 c 0.5706,-0.92337 -0.7064,-2.76796 -2.8379,-4.09911 -3.0279,-1.89092 -4.1142,-1.79814 -4.967,0.42417 -0.6003,1.56443 -0.5269,3.40902 0.1631,4.09909 1.8023,1.8023 6.4242,1.54577 7.6417,-0.42415 z m -30.4757,-2.28881 c 1.7298,-1.09609 2.0292,-2.31035 0.7625,-3.09318 -1.1468,-0.70879 -3.2523,0.11776 -4.6789,1.83658 -2.8323,3.41267 -0.6111,4.12535 3.9164,1.2566 z m 48.9699,-18.45559 c -1.5152,-0.60632 -3.3256,-0.53177 -4.023,0.16561 -0.6975,0.69745 0.5422,1.19354 2.7549,1.1024 2.4451,-0.10075 2.9425,-0.59807 1.2681,-1.2681 z m -859.71024,-9.38522 c 0.8852,-1.43227 0.58,-1.85609 -0.74633,-1.03639 -1.23418,0.76278 -2.72234,0.20024 -3.30701,-1.2499 -0.64131,-1.5907 -1.12877,-1.17956 -1.22874,1.0364 -0.1874,4.1537 3.01858,4.91232 5.28208,1.24989 z m 932.77964,-67.56602 c 0,-0.3983 -2.1252,-2.52348 -4.7226,-4.72262 l -4.7226,-3.99847 3.9984,4.72262 c 3.7576,4.43809 5.4468,5.67815 5.4468,3.99847 z m -13.6431,-7.67162 c -0.7135,-1.15442 -1.7138,-2.09894 -2.2228,-2.09894 -0.5091,0 -0.9256,0.94452 -0.9256,2.09894 0,1.15442 1.0002,2.09895 2.2228,2.09895 1.2225,0 1.6391,-0.94453 0.9256,-2.09895 z M 911.27852,567.18288 c 1.49139,-3.27322 1.60965,-5.63411 0.32209,-6.42986 -1.83161,-1.13201 -2.7283,0.39027 -5.28887,8.97858 -1.42189,4.76914 2.56462,2.72344 4.96678,-2.54872 z M 1314.6154,443.51779 c 2.7439,-7.25065 0.2763,-7.96007 -7.3787,-2.12132 -3.9582,3.0191 -6.7563,6.20204 -6.2179,7.07321 1.9057,3.08347 11.9385,-0.57045 13.5966,-4.95189 z m -198.1819,-14.41537 c 0.7835,-2.59744 2.647,-7.5562 4.1413,-11.01945 8.5714,-19.86513 19.402,-61.91882 15.9467,-61.91882 -0.7243,0 -2.5441,4.01423 -4.044,8.92051 -1.4999,4.90627 -6.1714,19.78253 -10.3811,33.05835 -4.2097,13.27581 -7.699,24.76753 -7.7539,25.53715 -0.055,0.76959 -0.8083,2.10767 -1.6741,2.97348 -2.2231,2.22308 -1.9586,7.1714 0.3832,7.1714 1.0767,0 2.5985,-2.12518 3.3819,-4.72262 z m 189.4779,-5.93657 c 2.9883,-4.78498 0.3064,-10.33024 -4.9961,-10.33024 -3.9013,0 -6.0047,4.14699 -3.4162,6.73549 1.1945,1.19448 1.6724,3.47352 1.0619,5.06447 -1.7571,4.57878 4.3336,3.36096 7.3504,-1.46972 z M 988.13109,402.28259 c 3.36704,-3.43119 5.49802,-6.86241 4.73549,-7.62496 -1.80498,-1.80499 -9.80794,5.44336 -9.80794,8.88312 0,1.45652 -1.18065,3.12462 -2.62368,3.70689 -1.44302,0.58226 -1.67915,1.107 -0.52473,1.16606 1.15442,0.0592 4.8538,-2.69993 8.22086,-6.13111 z m 36.90641,-45.19285 c 0,-0.50908 -0.9445,-0.92559 -2.0989,-0.92559 -1.1545,0 -2.099,1.00027 -2.099,2.22282 0,1.22255 0.9445,1.63906 2.099,0.92559 1.1544,-0.71347 2.0989,-1.71374 2.0989,-2.22282 z m 5.2474,-5.12348 c 0.7134,-1.15442 0.3526,-2.09894 -0.8018,-2.09894 -1.1544,0 -2.6827,0.94452 -3.3961,2.09894 -0.7135,1.15442 -0.3527,2.09894 0.8017,2.09894 1.1544,0 2.6827,-0.94452 3.3962,-2.09894 z m 115.1932,-15.85109 c 0.7168,-1.86789 0.3649,-2.71041 -0.8249,-1.97506 -1.1412,0.70528 -2.0749,2.17114 -2.0749,3.25743 0,3.01918 1.5045,2.35388 2.8998,-1.28237 z m 64.2664,-14.28511 c 0,-1.12617 0.6215,-1.42611 1.3811,-0.6665 1.5889,1.58896 7.0146,-2.3839 7.0146,-5.13633 0,-1.01307 -1.4167,-1.84194 -3.1484,-1.84194 -1.959,0 -3.1484,-1.98233 -3.1484,-5.24736 0,-7.56976 -5.4091,-6.55336 -8.3778,1.57421 -5.857,16.03521 -6.1237,18.08783 -2.461,18.94199 3.4924,0.81443 8.7399,-3.76311 8.7399,-7.62407 z m -64.6538,-6.97301 c -2.0422,-0.81823 -1.7773,-1.79598 1.0462,-3.86056 2.0796,-1.52064 2.997,-3.54894 2.0386,-4.50734 -0.9584,-0.95837 -3.0821,0.0894 -4.7193,2.32851 -3.9539,5.40725 -3.7542,7.50164 0.6963,7.30086 2.3728,-0.10705 2.705,-0.55362 0.9382,-1.26147 z m 5.8834,-18.63666 c 0,-0.50908 -0.9446,-0.92559 -2.099,-0.92559 -1.1544,0 -2.0989,1.00027 -2.0989,2.22282 0,1.22255 0.9445,1.63907 2.0989,0.92559 1.1544,-0.71347 2.099,-1.71374 2.099,-2.22282 z m 6.2968,-15.74207 c 0,-1.22255 -0.9445,-1.63907 -2.0989,-0.92559 -1.1545,0.71347 -2.099,1.71374 -2.099,2.22282 0,0.50908 0.9445,0.92559 2.099,0.92559 1.1544,0 2.0989,-1.00027 2.0989,-2.22282 z m 85.0072,-22.9645 c -0.7135,-1.15441 -1.7138,-2.09894 -2.2228,-2.09894 -0.5091,0 -0.9256,0.94453 -0.9256,2.09894 0,1.15442 1.0002,2.09895 2.2228,2.09895 1.2225,0 1.6391,-0.94453 0.9256,-2.09895 z m -120.6023,-34.79507 c 1.5925,-2.97543 4.5856,-6.3145 6.6516,-7.42015 2.0659,-1.10565 3.7562,-2.9685 3.7562,-4.13967 0,-3.72575 -5.7716,0.91093 -11.3257,9.09866 -2.9367,4.32907 -4.5829,7.87103 -3.6583,7.87103 0.9245,0 2.9838,-2.43444 4.5762,-5.40987 z m 146.8391,-12.21535 c 0,-0.62343 -1.4168,-0.58984 -3.1484,0.0746 -1.7317,0.66449 -3.1485,2.59136 -3.1485,4.28194 0,2.6659 0.4178,2.65599 3.1485,-0.0746 1.7316,-1.73163 3.1484,-3.6585 3.1484,-4.28194 z m 4.1979,-10.96751 c 0,-2.35152 -3.9419,-0.28934 -5.0709,2.65283 -1.1054,2.88074 -0.7983,3.01059 1.8744,0.79246 1.758,-1.45905 3.1965,-3.00944 3.1965,-3.44529 z M 1135.232,184.05082 c 0.7135,-1.15442 -0.1196,-2.09894 -1.8512,-2.09894 -1.7316,0 -3.7322,0.94452 -4.4456,2.09894 -0.7135,1.15442 0.1196,2.09894 1.8512,2.09894 1.7316,0 3.7321,-0.94452 4.4456,-2.09894 z m 14.9112,-35.11357 c -0.6974,-0.69746 -1.1935,0.54223 -1.1024,2.75486 0.1008,2.44515 0.5981,2.94251 1.2681,1.26811 0.6064,-1.51517 0.5318,-3.32551 -0.1656,-4.02297 z m 404.5319,-44.27994 c -0.6565,-2.51032 -2.028,-4.56421 -3.0478,-4.56421 -2.1846,0 -2.5178,11.23026 -0.3961,13.35195 2.3396,2.33965 4.7472,-3.80376 3.4439,-8.78774 z m -373.515,4.77202 c 0.7168,-1.86791 0.3649,-2.71042 -0.8249,-1.97507 -1.1412,0.70529 -2.0749,2.17114 -2.0749,3.25743 0,3.01918 1.5045,2.35388 2.8998,-1.28236 z m 225.4633,-26.562341 c 0.3453,-1.779313 -0.8354,-3.79658 -2.6237,-4.482815 -2.4125,-0.925772 -3.2514,0.134345 -3.2514,4.108693 0,5.771882 4.7687,6.075551 5.8751,0.374122 z m 404.4682,955.453611 c -0.7135,-1.1544 -0.1814,-2.0989 1.1826,-2.0989 1.8967,0 1.9019,-0.6963 0.022,-2.9616 -1.6802,-2.0245 -1.7615,-3.3919 -0.257,-4.3217 1.2105,-0.7481 2.2009,-3.1261 2.2009,-5.2843 0,-2.1583 1.4842,-5.4084 3.2983,-7.2224 1.8141,-1.8141 2.782,-3.2984 2.1509,-3.2984 -0.6311,0 -0.2572,-2.3414 0.8308,-5.2032 1.0881,-2.8618 2.1955,-8.42784 2.4609,-12.36901 0.3083,-4.57741 1.3936,-6.81611 3.0048,-6.19784 4.3757,1.67909 5.6429,-3.66452 1.5829,-6.67449 -3.5657,-2.6435 -3.6035,-3.10419 -0.462,-5.63243 2.7851,-2.24136 6.4442,-11.69693 6.3451,-16.39659 -0.013,-0.57721 1.296,-2.50593 2.9069,-4.28602 3.6905,-4.07793 3.0249,-14.82865 -1.1292,-18.23774 -2.7986,-2.2967 -2.7986,-2.82776 0,-4.77956 1.7316,-1.20767 5.5885,-1.753 8.5707,-1.21181 3.778,0.6856 5.4223,0.0663 5.4223,-2.04197 0,-1.6643 -1.3063,-3.02599 -2.9029,-3.02599 -2.1319,0 -2.365,-0.96119 -0.8776,-3.61895 1.2937,-2.3118 1.2987,-4.97649 0.015,-7.37743 -1.4872,-2.77881 -1.1673,-4.08247 1.2274,-5.0014 1.7814,-0.68359 3.2389,-2.82071 3.2389,-4.74918 0,-1.92846 1.4704,-5.60552 3.2675,-8.1712 1.7971,-2.56571 2.7043,-4.66493 2.0162,-4.66493 -0.6882,0 -0.038,-1.29844 1.4441,-2.88541 4.2849,-4.58699 6.8889,-1.92755 7.2476,7.4019 0.3189,8.29427 3.6251,13.00547 8.0635,11.49031 1.1545,-0.3941 1.972,-2.24262 1.8168,-4.10782 -0.4688,-5.63395 6.9555,-0.26579 8.13,5.87842 0.7976,4.17197 0.1617,5.31098 -2.9654,5.31098 -3.2617,0 -3.5948,0.72092 -1.8443,3.99185 1.8022,3.36731 1.5097,3.82799 -1.8693,2.94436 -2.8766,-0.75224 -3.86,-0.0552 -3.489,2.4728 0.6768,4.61105 4.9464,7.1261 9.8988,5.83099 2.6804,-0.70094 3.9656,0.0625 3.9656,2.35621 0,1.86628 0.7435,3.39322 1.6523,3.39322 0.9087,0 1.7912,1.84507 1.9611,4.10018 0.363,4.81886 -7.4909,8.21018 -9.9182,4.2827 -1.2115,-1.96024 -1.8498,-1.88984 -2.7207,0.30013 -0.7207,1.81227 -1.2104,1.32223 -1.3357,-1.33671 -0.1553,-3.29501 -0.6006,-3.56166 -2.0704,-1.2398 -1.03,1.62693 -1.3867,4.22437 -0.7928,5.77209 0.6742,1.75688 -0.4501,2.81401 -2.9928,2.81401 -2.2399,0 -4.0726,1.42226 -4.0726,3.16061 0,2.79021 0.5809,2.77999 4.9568,-0.0873 5.2523,-3.44145 8.3683,-2.56222 12.8283,3.61971 1.5085,2.09091 4.3421,3.81609 6.2968,3.83377 3.0856,0.0279 3.139,0.32571 0.4058,2.25873 -2.2498,1.59108 -2.4333,2.51924 -0.6427,3.25189 1.3782,0.56391 1.9855,2.38104 1.3496,4.0381 -0.6358,1.65703 -0.3466,3.0128 0.6427,3.0128 0.9893,0 1.7988,2.83357 1.7988,6.29683 0,3.46325 -0.1994,6.29683 -0.443,6.29683 -0.2436,0 -2.3518,-2.04891 -4.6848,-4.55309 -3.1998,-3.43455 -3.6724,-5.23932 -1.9237,-7.3463 1.77,-2.13385 1.4959,-2.79313 -1.1622,-2.79313 -2.8374,0 -3.0617,-0.7802 -1.2159,-4.22903 1.8041,-3.37105 1.5632,-4.49768 -1.1875,-5.5532 -5.4675,-2.09808 -7.6363,3.80295 -3.1976,8.70031 4.1165,4.54186 3.67,9.47769 -0.8573,9.47769 -3.3663,0 -1.8811,7.20951 2.1794,10.57941 3.8969,3.23422 1.3747,8.7296 -3.3224,7.23877 -2.075,-0.65856 -4.3382,-0.28245 -5.0293,0.83583 -0.6911,1.1182 0.598,2.6218 2.8647,3.3412 6.6684,2.1165 2.9496,6.7469 -4.6656,5.8093 -3.7076,-0.4565 -8.1578,-1.357 -9.8895,-2.0011 -1.7316,-0.6442 -5.5097,-1.4203 -8.3957,-1.7249 l -5.2474,-0.5537 5.3576,2.4055 c 7.9979,3.5908 16.6845,11.023 16.6572,14.2517 -0.013,1.5654 -3.7913,4.6512 -8.3957,6.8571 -8.3352,3.9934 -10.7432,8.3256 -5.748,10.3412 1.5673,0.6324 1.1448,1.1254 -1.0495,1.2244 -2.0778,0.094 -3.7789,-1.4297 -3.9166,-3.5075 -0.2319,-3.4982 -0.2892,-3.4982 -1.2034,0 -0.8177,3.1292 -3.5612,3.6732 -18.5232,3.6732 -9.6597,0 -18.1469,-0.9445 -18.8604,-2.099 z m 38.8304,-14.6926 c 0,-1.1544 -1.4725,-2.0989 -3.2723,-2.0989 -1.7997,0 -2.6885,0.9445 -1.975,2.0989 0.7134,1.1545 2.186,2.099 3.2723,2.099 1.0863,0 1.975,-0.9445 1.975,-2.099 z m -12.5936,-7.3463 c -1.4372,-1.7316 -3.5575,-3.1484 -4.7119,-3.1484 -1.1709,0 -0.9436,1.3922 0.514,3.1484 1.4371,1.7317 3.5575,3.1484 4.7119,3.1484 1.1708,0 0.9435,-1.3921 -0.514,-3.1484 z m 26.4509,-18.17228 c -3.9339,-5.61642 -4.3933,-8.94926 -0.9393,-6.81458 1.5485,0.95704 1.8515,0.57249 0.8393,-1.06523 -0.8712,-1.40959 -2.1109,-2.036 -2.7549,-1.392 -0.644,0.644 -2.5747,0.006 -4.2905,-1.41809 -2.6471,-2.19692 -2.8948,-1.88086 -1.6354,2.08684 1.5531,4.89351 10.0617,15.48534 11.3803,14.16664 0.4196,-0.4196 -0.7502,-2.9232 -2.5995,-5.56358 z m 6.1935,-1.58838 c -0.6525,-1.05581 10e-5,-2.39804 1.4503,-2.9827 1.5907,-0.64131 1.1796,-1.12877 -1.0364,-1.22874 -3.7167,-0.16771 -4.8386,2.16705 -2.2738,4.73181 2.0436,2.04366 3.238,1.70949 1.8599,-0.52037 z m -1.2641,-13.93295 c -3.7898,-4.03402 -4.3743,-5.76533 -2.3655,-7.00684 2.0779,-1.28423 1.9143,-2.27443 -0.7397,-4.4771 -4.6842,-3.8875 -7.679,0.95487 -4.4003,7.11499 4.4312,8.32582 5.749,9.72686 9.1485,9.72686 2.6922,0 2.3538,-1.10348 -1.643,-5.35791 z m -20.8856,-7.48349 c 0,-1.15441 -0.9445,-1.5152 -2.099,-0.80173 -1.1544,0.71347 -2.0989,2.24174 -2.0989,3.39615 0,1.15442 0.9445,1.51521 2.0989,0.80174 1.1545,-0.71348 2.099,-2.24174 2.099,-3.39616 z m -2.858,-7.09856 c -0.6645,-1.73163 -0.1043,-3.14841 1.2447,-3.14841 1.8346,0 1.818,-0.63489 -0.066,-2.51873 -1.876,-1.87598 -3.1255,-1.91199 -4.8964,-0.14105 -2.7485,2.74854 -0.9905,8.95665 2.5363,8.95665 1.3142,0 1.8458,-1.41679 1.1813,-3.14842 z m 21.7485,-5.37124 c 0,-1.22255 -0.9445,-1.63906 -2.099,-0.92559 -1.1544,0.71348 -2.0989,1.71375 -2.0989,2.22283 0,0.50907 0.9445,0.92559 2.0989,0.92559 1.1545,0 2.099,-1.00027 2.099,-2.22283 z m -1.9742,-22.69347 c 5.8061,-2.02401 8.8131,-8.66679 3.9232,-8.66679 -3.3164,0 -8.2831,5.5486 -6.5717,7.34162 0.8108,0.84948 -1.5562,0.89551 -5.2601,0.10222 l -6.7343,-1.44227 3.5654,6.96916 c 3.1703,6.19675 3.6398,6.46368 4.2355,2.40839 0.4175,-2.8422 2.9957,-5.37153 6.842,-6.71238 z m 3.0236,-23.35939 c -0.7134,-1.15442 -2.4221,-2.08448 -3.797,-2.06681 -1.502,0.0189 -1.2431,0.84426 0.6486,2.06681 4.0324,2.6059 4.759,2.6059 3.1484,0 z m 82.0812,114.91716 c -0.6973,-4.9063 -1.2671,-11.1938 -1.2662,-13.9722 0,-6.7457 -16.6784,-28.97145 -18.9657,-25.27038 -2.1244,3.43729 -20.5364,3.91939 -21.82,0.57135 -0.5197,-1.35546 1.49,-4.89927 4.4659,-7.87515 5.0508,-5.05083 5.5894,-5.16634 8.0971,-1.73675 1.4776,2.02067 3.4721,2.88575 4.4323,1.92238 0.9602,-0.96337 -0.191,-3.32319 -2.5583,-5.24406 -2.3673,-1.92087 -5.4723,-7.74284 -6.9001,-12.93772 -3.1449,-11.44339 -4.8525,-36.12424 -2.3941,-34.60487 3.4421,2.12732 4.3684,-3.26063 1.1192,-6.50983 -1.8158,-1.81584 -2.8147,-4.08925 -2.2197,-5.05199 0.595,-0.96275 -0.1047,-2.14978 -1.5549,-2.63787 -2.0805,-0.70021 -2.0452,-1.60416 0.1677,-4.2852 1.5424,-1.8688 2.0959,-4.54421 1.2299,-5.94538 -1.1061,-1.78981 -0.4603,-2.12004 2.1712,-1.11024 2.9397,1.12806 3.5227,0.58458 2.7094,-2.52564 -0.8219,-3.14287 -0.1547,-3.73244 3.2236,-2.84898 2.8813,0.75348 3.7741,0.32771 2.7585,-1.31555 -0.826,-1.33625 -2.8627,-2.42957 -4.5262,-2.42957 -1.6635,0 -3.1463,-1.18065 -3.2952,-2.62368 -0.1488,-1.44302 -0.498,-4.98499 -0.7758,-7.87103 -0.2778,-2.88605 -1.2213,-9.26159 -2.0965,-14.16787 -1.2374,-6.93602 -0.9481,-8.93604 1.3005,-8.99034 1.7569,-0.0424 0.8693,-1.75304 -2.2614,-4.35837 -2.8343,-2.35869 -6.3621,-7.75828 -7.8394,-11.99909 -3.314,-9.51285 -3.3483,-8.76002 0.3991,-8.76002 1.7316,0 3.1484,-1.59732 3.1484,-3.54959 0,-3.09521 0.3945,-3.02804 3.0817,0.52474 4.5902,6.0688 3.8604,1.66593 -0.8174,-4.93118 -2.2179,-3.12791 -4.6628,-8.79579 -5.4332,-12.59529 -1.3646,-6.73047 -1.2473,-6.87188 4.5573,-5.49663 7.246,1.71675 15.4148,8.78252 15.371,13.29542 -0.028,2.90172 -0.2816,2.9212 -2.0668,0.15889 -3.407,-5.27198 -2.5382,1.58833 1.1984,9.4626 2.0527,4.32582 5.3785,7.47096 8.811,8.33247 3.9107,0.98151 4.7176,1.87587 2.7754,3.07621 -1.9243,1.1893 -2.0478,2.11913 -0.4152,3.12807 3.3595,2.07628 2.8523,5.38583 -0.8254,5.38583 -1.7317,0 -3.1484,1.41679 -3.1484,3.14841 0,3.68457 -2.8609,4.01165 -8.5338,0.97564 -4.3883,-2.34853 -4.7214,-1.99335 -2.8078,2.99349 0.6887,1.79466 4.4924,3.87087 8.4527,4.61381 3.9603,0.74296 8.1194,3.06788 9.2426,5.16646 2.5936,4.84619 2.6241,13.77465 0.064,18.55921 -1.0882,2.03331 -2.3119,6.18586 -2.7193,9.2279 -0.4073,3.04204 -1.341,6.13131 -2.0747,6.86502 -0.7337,0.73372 -0.823,2.66578 -0.1983,4.29347 1.427,3.7187 -4.7593,13.42171 -8.5572,13.42171 -1.5607,0 -3.5516,-3.0697 -4.4241,-6.82156 -1.1007,-4.73316 -1.8736,-5.68197 -2.5247,-3.09916 -0.5161,2.04733 1.1076,7.9486 3.6081,13.1139 2.5004,5.16531 4.7405,10.715 4.978,12.33266 0.2374,1.61763 1.6008,4.34993 3.0298,6.07176 1.429,1.72182 2.8044,6.06559 3.0564,9.65281 0.844,12.01237 9.0983,6.60516 15.6637,-10.26098 2.4716,-6.3493 4.8716,-13.43324 5.3333,-15.74207 0.7397,-3.69889 1.122,-3.51177 3.2168,1.5742 3.4057,8.269 4.1003,7.19073 2.9668,-4.60587 -1.4693,-15.29133 1.1345,-30.13486 5.0243,-28.6422 1.7071,0.65512 2.645,0.44844 2.0839,-0.45927 -1.5862,-2.56667 2.1717,-7.39579 4.5915,-5.90026 1.4689,0.90782 1.4836,3.78402 0.046,8.99028 -1.4286,5.17396 -1.4181,9.18229 0.033,12.3659 1.1804,2.59079 1.6303,6.68339 0.9997,9.0947 -0.6305,2.41131 -0.4819,7.92649 0.3303,12.25598 l 1.4768,7.87179 2.9594,-7.03834 c 1.6274,-3.87108 2.9591,-10.18 2.9591,-14.01978 0,-9.91772 3.7097,-10.9513 5.4392,-1.51544 0.7993,4.36114 2.8523,9.81841 4.5622,12.12725 2.1574,2.91321 2.754,3.13949 1.9493,0.7394 -1.5984,-4.76792 -4.5186,-33.60648 -3.7942,-37.4709 0.9559,-5.09976 4.8916,-8.02579 4.2348,-3.14842 -0.3109,2.30884 1.6194,8.72451 4.2895,14.25705 8.5717,17.76065 3.7186,33.96394 -16.3215,54.49282 l -11.7908,12.07844 -1.2931,25.70254 c -1.339,26.61676 -5.3052,41.44466 -11.0856,41.44466 -1.9725,0 -3.479,-3.1232 -4.3031,-8.9205 z m -31.3385,-91.11093 c -0.7596,-0.75961 -0.2086,-2.88479 1.2244,-4.72262 2.3053,-2.95655 2.1822,-3.00963 -1.0677,-0.46087 -4.2093,3.30114 -4.8179,6.56457 -1.2244,6.56457 1.3468,0 1.8273,-0.62149 1.0677,-1.38108 z m 11.1762,-26.95465 c 0,-1.73162 -0.9446,-3.14841 -2.099,-3.14841 -1.1544,0 -2.0989,1.41679 -2.0989,3.14841 0,1.73163 0.9445,3.14842 2.0989,3.14842 1.1544,0 2.099,-1.41679 2.099,-3.14842 z m -71.3641,122.91208 c 0,-1.2226 0.9445,-2.2229 2.0989,-2.2229 1.1545,0 2.099,0.4166 2.099,0.9256 0,0.5091 -0.9445,1.5094 -2.099,2.2229 -1.1544,0.7134 -2.0989,0.2969 -2.0989,-0.9256 z m 38.8304,-46.30066 c -0.7134,-1.15441 -0.2969,-2.09894 0.9256,-2.09894 1.2226,0 2.2229,0.94453 2.2229,2.09894 0,1.15442 -0.4166,2.09895 -0.9256,2.09895 -0.5091,0 -1.5094,-0.94453 -2.2229,-2.09895 z m 6.5131,-14.34277 c -0.5946,-0.96203 0.2527,-1.74913 1.8827,-1.74913 1.6301,0 2.4773,0.7871 1.8827,1.74913 -0.5945,0.96201 -1.4417,1.74912 -1.8827,1.74912 -0.4409,0 -1.2882,-0.78711 -1.8827,-1.74912 z m -17.7085,-18.98036 c -2.2818,-1.44647 -2.2225,-1.99618 0.3207,-2.9721 1.7162,-0.65859 4.8651,0.12446 6.9976,1.74008 3.7364,2.83087 3.7248,2.93875 -0.3207,2.97211 -2.3089,0.0189 -5.4578,-0.764 -6.9976,-1.74009 z m 1.5896,-27.08734 c -0.088,-0.82959 -0.485,-3.21596 -0.8816,-5.30307 -0.4948,-2.60445 0.3709,-3.58445 2.7602,-3.12432 4.5836,0.88274 5.6804,7.09668 1.5335,8.68801 -1.7883,0.68623 -3.3238,0.56894 -3.4121,-0.26062 z m 108.3308,-31.55266 c -1.608,-11.53432 -0.2466,-16.20415 3.1558,-10.82429 2.3323,3.68801 2.3606,11.96851 0.061,17.78023 -1.2714,3.21258 -2.0263,1.57994 -3.2163,-6.95594 z m -118.1402,-0.85316 c -2.5974,-1.25271 -4.7226,-3.5321 -4.7226,-5.06531 0,-1.53324 -2.2721,-3.35793 -5.049,-4.05491 -5.0281,-1.26197 -8.2197,-7.211 -5.7132,-10.64932 2.3443,-3.2159 10.8791,-7.22939 12.8212,-6.02915 1.0999,0.6798 0.9927,3.73563 -0.2568,7.32008 -1.7331,4.97139 -1.4067,7.16871 1.6996,11.44136 2.1144,2.90853 4.794,4.95972 5.9545,4.55819 1.1605,-0.40152 3.3229,0.5684 4.8054,2.15539 2.2215,2.37814 2.0351,2.86044 -1.0605,2.74336 -2.0658,-0.0781 -5.8811,-1.16699 -8.4786,-2.41969 z m 87.0624,-11.30003 c -0.8418,-0.84176 -1.5017,-3.49823 -1.4666,-5.90328 0.059,-4.03751 0.2312,-4.08509 2.2475,-0.62055 2.3479,4.0344 1.7473,9.052 -0.7809,6.52383 z m 37.2937,-10.06813 c -1.0638,-3.90844 -0.734,-7.56734 0.921,-10.21744 1.7257,-2.76322 1.8815,-4.82543 0.4711,-6.2358 -2.4443,-2.44432 -1.241,-7.18302 5.7351,-22.58515 3.5909,-7.92815 1.4387,23.64617 -2.4321,35.68203 l -3.0377,9.44525 -1.6574,-6.08889 z m -36.5595,-4.23092 c -0.091,-2.21262 0.4049,-3.45232 1.1024,-2.75487 0.6975,0.69746 0.772,2.5078 0.1656,4.02299 -0.67,1.67439 -1.1674,1.17704 -1.2681,-1.26812 z m 26.5293,-19.59013 c 0.6841,-4.32907 2.0415,-8.18588 3.0165,-8.57068 0.9749,-0.38482 1.7726,-2.03774 1.7726,-3.67315 0,-1.63543 0.9446,-2.97351 2.099,-2.97351 2.8043,0 2.6956,0.90507 -1.5422,12.8367 -4.3263,12.181 -7.089,13.4113 -5.3459,2.38064 z m -97.4739,-26.18606 c -1.1615,-1.47094 -2.1704,-4.09119 -2.2418,-5.82282 -0.071,-1.73163 -0.691,-5.74586 -1.3767,-8.92051 -0.6856,-3.17465 -0.4459,-5.77209 0.5328,-5.77209 1.8141,0 7.4153,20.97219 5.9836,22.40386 -0.4323,0.43228 -1.7363,-0.41752 -2.8979,-1.88844 z m -43.7376,-11.84326 c 1.5783,-1.57962 3.9048,-2.23229 5.17,-1.45035 4.013,2.48015 2.4876,4.93873 -2.8696,4.62506 -4.3733,-0.25603 -4.7278,-0.74531 -2.3004,-3.17471 z m 69.3892,-13.68356 c -4.6177,-1.44739 -8.868,-2.67128 -9.4452,-2.71974 -0.5772,-0.0485 -4.3553,-2.10336 -8.3958,-4.56642 -6.4951,-3.95941 -6.7847,-4.47921 -2.4998,-4.48614 2.6656,-0.004 4.314,-0.86946 3.6631,-1.92255 -2.0687,-3.3472 4.7576,-1.17511 9.3401,2.97202 4.3975,3.97966 4.4028,3.97568 2.2516,-1.68251 -1.186,-3.11941 -1.5611,-5.67164 -0.8335,-5.67164 0.7275,0 -0.3041,-1.79766 -2.2925,-3.99481 -4.5265,-5.00176 -6.1608,-24.02058 -1.9243,-22.3949 1.5345,0.58886 2.79,0.10012 2.79,-1.08629 0,-1.18632 0.8353,-1.6407 1.8562,-1.00974 2.3058,1.42506 17.0343,41.17343 17.0343,45.97114 0,4.06594 -0.3952,4.0862 -11.5442,0.59158 z m -620.8218,-10.42704 c -4.1617,-4.49048 -6.4915,-5.43549 -10.7596,-4.36425 -3.0592,0.76779 -5.4477,0.47484 -5.4477,-0.66814 0,-1.11947 -2.1631,-1.62191 -4.8068,-1.11655 -5.807,1.11009 -10.6236,-6.41714 -10.3463,-16.16881 0.1001,-3.51844 -0.7,-5.85217 -1.7778,-5.18605 -1.0778,0.66612 -2.1035,-0.49753 -2.2793,-2.58589 -0.1759,-2.08837 -0.424,-4.91103 -0.5515,-6.27257 -0.1274,-1.36154 -0.9282,-3.17188 -1.7793,-4.02298 -0.8511,-0.85108 -1.5474,-3.27905 -1.5474,-5.3955 0,-2.11643 -0.9209,-3.84806 -2.0465,-3.84806 -1.1462,0 -1.5022,-2.72096 -0.8094,-6.18537 0.8722,-4.36068 -0.1423,-8.41733 -3.4389,-13.75135 l -4.6761,-7.566 13.1757,-11.9607 c 25.9424,-23.55023 36.4262,-27.66915 48.5154,-19.06092 3.6901,2.62758 5.9676,3.57739 5.0611,2.11071 -1.2606,-2.03968 -0.7328,-2.17276 2.2447,-0.566 2.1411,1.15537 5.4724,2.58412 7.403,3.17497 2.3506,0.71939 3.1365,2.50356 2.3789,5.40058 -0.6437,2.4616 -0.1211,4.32628 1.2124,4.32628 1.2891,0 2.3438,2.83357 2.3438,6.29683 0,3.46325 0.7862,6.29683 1.7471,6.29683 0.961,0 2.6139,4.48649 3.6732,9.96998 l 1.926,9.96998 14.6926,0.1125 c 9.8061,0.0751 16.4377,1.2411 19.9399,3.50593 6.2297,4.02869 27.2508,5.16846 51.0319,2.76693 13.7053,-1.384 17.7694,-1.03824 24.7394,2.10478 9.341,4.2122 7.7077,7.16552 -3.9929,7.21977 -3.8126,0.0168 -13.5535,1.53817 -21.6464,3.37888 -13.6153,3.09674 -15.5216,3.08278 -25.5177,-0.1868 -7.5,-2.45314 -14.0376,-3.1294 -21.3819,-2.21181 -5.8183,0.72695 -11.5232,1.38113 -12.6776,1.45371 -1.1545,0.0726 -4.5767,1.41324 -7.605,2.97924 -3.0282,1.56598 -6.1867,2.17652 -7.0188,1.35676 -0.8321,-0.81979 -1.0365,1.56482 -0.4542,5.29909 1.2051,7.72951 -0.3452,15.69416 -2.7638,14.19933 -3.0766,-1.90141 -6.3142,4.67359 -6.8292,13.86881 l -0.5163,9.22011 -11.5442,-0.72055 c -6.3493,-0.3963 -12.9216,-1.48846 -14.605,-2.42702 -1.9578,-1.0915 -3.9425,-0.50077 -5.5073,1.63921 -2.1696,2.96717 -3.0473,2.69726 -7.7582,-2.38589 z m 691.1364,-3.32679 c 0,-1.51396 -1.3654,-2.14938 -3.1484,-1.46516 -1.7316,0.66448 -3.2574,0.0571 -3.3905,-1.34964 -0.1331,-1.4068 -0.3733,-3.50234 -0.5337,-4.65676 -0.3488,-2.51139 -6.6719,-19.79633 -11.5018,-31.44143 -1.9055,-4.59417 -3.1773,-9.23397 -2.8262,-10.31062 0.351,-1.07665 -0.4983,-4.70159 -1.8875,-8.05541 -1.8459,-4.45626 -2.9979,-5.35339 -4.2793,-3.33251 -1.2408,1.95672 -1.7629,1.38438 -1.7857,-1.95729 -0.018,-2.59744 0.9124,-4.72262 2.0668,-4.72262 2.923,0 2.6303,-7.02487 -0.4197,-10.07492 -3.6986,-3.69853 -5.6289,-3.07265 -4.4482,1.44226 0.5696,2.17856 0.01,4.59562 -1.246,5.37124 -1.255,0.77562 -2.2818,0.59052 -2.2818,-0.41133 0,-1.00187 -3.2234,-7.17442 -7.163,-13.71678 -4.3016,-7.14356 -6.734,-13.53537 -6.0892,-16.00113 0.8453,-3.23243 0.2185,-3.88224 -2.9465,-3.05459 -2.9429,0.7696 -5.6061,-1.23713 -9.9383,-7.4885 -3.2549,-4.69691 -6.7342,-8.53982 -7.7316,-8.53982 -0.9974,0 -1.8135,-1.47254 -1.8135,-3.2723 0,-1.82732 1.0104,-2.64786 2.2881,-1.85819 2.2682,1.4018 -6.8964,-13.85259 -12.1491,-20.2221 -1.5029,-1.82253 -2.7326,-5.42344 -2.7326,-8.00203 l 0,-4.68835 10.4947,5.71194 c 5.7721,3.14155 10.4947,6.52635 10.4947,7.52173 0,0.99538 5.1823,7.2208 11.5162,13.83428 6.334,6.61348 11.5289,13.09499 11.5442,14.40337 0.015,1.30837 1.7052,2.81747 3.7551,3.35354 2.0518,0.53655 3.8915,3.15631 4.0928,5.82803 0.2011,2.66935 1.1523,5.41064 2.1138,6.0917 0.9615,0.68109 4.9921,6.43322 8.9568,12.78252 3.9647,6.3493 7.873,12.02592 8.6852,12.61469 0.8122,0.58878 2.1262,3.65848 2.9201,6.82157 0.8342,3.3238 2.8976,5.76462 4.889,5.78319 2.9915,0.0279 3.0307,0.30032 0.2972,2.06681 -2.0989,1.35644 -2.2738,2.04538 -0.5247,2.06681 1.443,0.0168 2.3875,1.21279 2.0989,2.65581 -0.2886,1.44303 0.7271,2.36383 2.2571,2.04622 1.9098,-0.39643 2.359,0.75514 1.4328,3.67315 -0.9339,2.94236 -0.4066,4.25061 1.7132,4.25061 3.7859,0 6.6461,10.30455 3.6827,13.26793 -1.4887,1.48869 -1.9008,0.78934 -1.3181,-2.23651 0.4855,-2.52098 -0.4325,-4.89383 -2.1481,-5.55215 -2.2932,-0.88 -2.9959,0.85673 -2.9959,7.40482 0,6.47432 0.7153,8.28 2.9416,7.42568 4.0033,-1.53619 5.882,6.49021 2.8179,12.03845 -1.3314,2.4108 -2.7614,6.72753 -3.1777,9.59274 -0.8259,5.68463 -2.5818,8.65056 -2.5818,4.36105 z m -31.4841,-82.77652 c 0,-0.43584 -1.4384,-1.98623 -3.1965,-3.44528 -2.6727,-2.21813 -2.9798,-2.08829 -1.8744,0.79247 1.129,2.94215 5.0709,5.00434 5.0709,2.65281 z m -105.27,65.26823 c -1.9092,-1.40631 -5.4512,-3.94609 -7.8711,-5.64397 -6.4152,-4.50112 -5.385,-7.00121 1.3724,-3.33039 9.3165,5.06107 16.7133,11.5743 13.1183,11.55136 -1.7316,-0.0105 -4.7104,-1.17071 -6.6196,-2.577 z m -465.1178,-36.57183 c -2.5974,-0.50031 -4.7226,-1.85119 -4.7226,-3.002 0,-2.99011 11.0479,-1.28967 12.082,1.8596 0.4738,1.44303 0.074,2.49506 -0.8876,2.33785 -0.962,-0.15721 -3.8743,-0.69517 -6.4718,-1.19545 z m 428.0398,-6.09009 c -4.9859,-2.98799 -8.6452,-5.85263 -8.132,-6.36588 1.1396,-1.13962 24.5434,9.03813 24.5434,10.67333 0,2.81009 -8.0687,0.69232 -16.4114,-4.30745 z m -50.7548,-27.06119 c -2.14,-2.57857 -1.9966,-3.14841 0.7925,-3.14841 1.873,0 3.4054,1.41679 3.4054,3.14841 0,1.73163 -0.3566,3.14842 -0.7925,3.14842 -0.4358,0 -1.9683,-1.41679 -3.4054,-3.14842 z m 213.8244,-44.60254 c -2.6108,-3.32905 -2.5365,-3.40329 0.7925,-0.79247 3.4963,2.74199 4.6082,4.46562 2.8807,4.46562 -0.4358,0 -2.0888,-1.65291 -3.6732,-3.67315 z m -629.58,-17.13871 c -5.1041,-3.36559 -15.4018,-8.17175 -22.8836,-10.68036 -7.4818,-2.5086 -15.5102,-5.57035 -17.841,-6.80387 -9.2987,-4.92127 -16.3185,-16.70324 -16.1586,-27.12061 0.1845,-12.01263 21.9059,-48.15429 39.7558,-66.14847 16.0565,-16.18627 19.1323,-18.17712 23.1072,-14.9565 1.9169,1.55316 2.7627,1.70258 1.9489,0.34429 -0.8715,-1.45444 0.6234,-2.91713 3.7949,-3.71313 2.8781,-0.72235 5.2329,-2.15146 5.2329,-3.17581 0,-3.18288 8.4171,0.15931 10.5801,4.20099 4.3679,8.16143 -0.9826,31.07234 -10.576,45.28713 -4.6917,6.95175 -5.8619,10.19883 -4.0739,11.30388 4.4175,2.73016 -0.1826,6.53924 -6.2798,5.20005 -11.6388,-2.5563 -19.5589,10.82121 -22.5371,38.06643 -1.0764,9.84784 -0.7159,11.1173 4.0428,14.23531 2.8735,1.88281 9.9692,3.98522 15.7682,4.67201 9.2984,1.10128 10.8257,0.72149 12.9329,-3.21585 2.537,-4.74042 0.7952,-10.13576 -5.664,-17.54362 -4.2215,-4.84159 -0.5127,-9.42112 9.0886,-11.22235 8.1816,-1.53486 18.3932,3.77923 27.0642,14.08411 8.3435,9.91564 7.1653,13.61377 -4.7881,15.02946 -13.7655,1.63034 -24.9762,7.27681 -26.4997,13.34716 -1.6195,6.4524 -4.7802,6.21749 -16.0147,-1.19025 z m 559.0085,-10.08097 c -2.9607,-1.062 -3.6219,-6.88814 -0.7818,-6.88814 2.7498,0 7.0177,5.77522 5.0816,6.8762 -0.9219,0.52419 -2.8568,0.52956 -4.2998,0.0126 z m -454.2425,-6.15357 c -5.1376,-1.43134 -6.766,-7.45778 -2.6391,-9.76731 1.9152,-1.07174 7.6658,-2.11506 12.7793,-2.31847 9.1651,-0.36457 9.2884,-0.27903 8.6721,6.01542 -0.5585,5.70401 -1.409,6.4204 -7.9715,6.71456 -4.0405,0.18114 -8.9188,-0.10872 -10.8408,-0.6442 z m 442.5835,-5.05231 c -0.7182,-2.74663 -0.2345,-4.01991 1.3294,-3.49923 3.019,1.00512 4.5943,7.81697 1.8078,7.81697 -1.1045,0 -2.5162,-1.94299 -3.1372,-4.31774 z m 53.6138,-7.57508 c -2.4203,-0.97507 -7.9448,-9.09661 -6.1878,-9.09661 0.4166,0 2.9758,2.36131 5.6871,5.24736 5.0474,5.37272 5.0897,5.69804 0.5007,3.84925 z m -206.0005,-7.5224 c -1.1109,-2.969 -0.9282,-5.25574 0.4922,-6.15834 3.4272,-2.17797 5.608,0.0609 5.608,5.75748 0,6.42824 -3.7527,6.67485 -6.1002,0.40086 z m 39.849,-0.34983 c -0.091,-2.21263 0.405,-3.45232 1.1024,-2.75487 0.6975,0.69746 0.772,2.5078 0.1656,4.02298 -0.67,1.67439 -1.1674,1.17705 -1.2681,-1.26811 z m 165.6508,-1.22438 c -2.8861,-2.2575 -4.2131,-4.12554 -2.949,-4.15121 1.2641,-0.0256 4.0079,1.84237 6.0974,4.15121 4.7859,5.28839 3.6124,5.28839 -3.1484,0 z m -84.6769,-5.75832 c -11.2603,-6.266 -10.0147,-9.1378 1.5775,-3.63695 7.2699,3.44978 13.9516,9.44273 10.4181,9.3442 -1.0071,-0.0281 -6.4052,-2.59635 -11.9956,-5.70725 z m -126.1313,-4.09055 c -1.7097,-4.45539 -1.6122,-4.56243 3.0455,-3.34439 5.9222,1.54866 6.9657,4.12444 2.1782,5.37638 -2.397,0.62685 -4.5204,-0.19919 -5.2237,-2.03199 z m 91.186,-4.78847 c -2.3579,-1.49073 -2.5355,-2.57481 -0.7192,-4.39109 1.8163,-1.81628 2.9961,-1.31967 4.7789,2.01154 2.5267,4.72109 1.0308,5.59788 -4.0597,2.37955 z m 15.7245,-3.99504 c -8.1602,-5.08534 -19.3956,-17.04965 -16.0109,-17.04965 1.4386,0 1.992,-1.00892 1.2299,-2.24203 -0.7621,-1.23313 -2.6064,-1.77361 -4.0983,-1.2011 -1.492,0.57253 -4.9384,-1.3882 -7.6588,-4.35713 l -4.946,-5.39811 6.9902,1.33308 c 3.8446,0.73321 6.6553,0.63313 6.2459,-0.22238 -3.2962,-6.88791 -10.0091,-16.7932 -14.8103,-21.85348 -3.1747,-3.34592 -5.7721,-7.0251 -5.7721,-8.17595 0,-7.54767 17.8291,-0.33942 24.5567,9.92819 1.8441,2.81447 6.0771,6.52595 9.4067,8.24773 3.3295,1.72179 5.5989,3.86642 5.0431,4.76584 -0.5559,0.89942 0.3577,4.27299 2.0303,7.49684 3.3229,6.40499 4.0372,13.77744 1.3347,13.77744 -2.5717,0 -13.9767,-12.45078 -14.0411,-15.32858 -0.091,-4.08731 -9.3473,-20.35345 -11.5815,-20.35345 -3.056,0 -2.5743,1.55945 3.0294,9.80603 2.7972,4.11641 4.6674,8.57464 4.1561,9.9072 -0.5114,1.33256 5.7008,9.37657 13.8047,17.87556 8.1039,8.49902 14.7344,15.79722 14.7344,16.21824 0,2.15961 -8.113,0.27198 -13.6431,-3.17429 z m -110.913,-3.42409 c -2.7611,-2.01897 -3.3177,-3.79243 -1.9547,-6.22803 1.6239,-2.90181 2.2844,-2.57414 4.467,2.21613 3.1083,6.82196 2.55,7.71353 -2.5123,4.0119 z m 71.8503,1.77545 c -1.8594,-0.49696 -4.4501,-3.25059 -5.7571,-6.11917 -2.131,-4.67695 -1.9986,-4.99819 1.2818,-3.11055 2.0119,1.15778 6.0194,3.99998 8.9055,6.31597 5.0933,4.08736 3.6103,5.06276 -4.4302,2.91375 z m 54.8048,-0.70841 c 0,-1.15442 0.4165,-2.09894 0.9256,-2.09894 0.5091,0 1.5093,0.94452 2.2228,2.09894 0.7135,1.15442 0.297,2.09894 -0.9256,2.09894 -1.2225,0 -2.2228,-0.94452 -2.2228,-2.09894 z m -503.7463,-2.09894 c 0,-1.15442 0.9445,-2.09895 2.099,-2.09895 1.1544,0 2.0989,0.94453 2.0989,2.09895 0,1.15441 -0.9445,2.09894 -2.0989,2.09894 -1.1545,0 -2.099,-0.94453 -2.099,-2.09894 z m 456.5201,-6.29683 c -0.7135,-1.15442 -0.3527,-2.09895 0.8017,-2.09895 1.1544,0 2.6827,0.94453 3.3962,2.09895 0.7134,1.15442 0.3526,2.09894 -0.8018,2.09894 -1.1544,0 -2.6827,-0.94452 -3.3961,-2.09894 z m 0,-23.08838 c -0.7135,-1.15442 -0.3527,-2.09894 0.8017,-2.09894 1.1544,0 2.6827,0.94452 3.3962,2.09894 0.7134,1.15442 0.3526,2.09895 -0.8018,2.09895 -1.1544,0 -2.6827,-0.94453 -3.3961,-2.09895 z m -29.0354,-3.49824 c -0.7696,-0.7696 -1.3993,-2.37529 -1.3993,-3.56821 0,-1.31519 0.9776,-1.19127 2.4837,0.31485 1.3661,1.36607 1.9958,2.97176 1.3993,3.5682 -0.5964,0.59646 -1.7141,0.45478 -2.4837,-0.31484 z m 25.887,-1.52455 c 0,-0.45371 1.4167,-1.36857 3.1484,-2.03308 1.7316,-0.66448 3.1484,-0.29326 3.1484,0.82491 0,1.11819 -1.4168,2.03308 -3.1484,2.03308 -1.7317,0 -3.1484,-0.37122 -3.1484,-0.82491 z m -6.2548,-4.37172 c -1.6555,-1.99481 -1.8148,-3.19914 -0.4229,-3.19914 2.5366,0 5.4941,3.98211 4.0385,5.43773 -0.5283,0.5283 -2.1553,-0.47907 -3.6156,-2.23859 z m -9.4873,-7.39703 c -0.7135,-1.15442 -0.3527,-2.09894 0.8017,-2.09894 1.1544,0 2.6827,0.94452 3.3962,2.09894 0.7134,1.15442 0.3527,2.09894 -0.8018,2.09894 -1.1544,0 -2.6826,-0.94452 -3.3961,-2.09894 z m -2.099,-6.29683 c -0.7134,-1.15442 -0.3526,-2.09894 0.8018,-2.09894 1.1544,0 2.6827,0.94452 3.3961,2.09894 0.7135,1.15442 0.3527,2.09894 -0.8017,2.09894 -1.1544,0 -2.6827,-0.94452 -3.3962,-2.09894 z m 46.1768,-4.19789 c -2.0895,-2.30883 -3.0932,-4.19788 -2.2306,-4.19788 0.8627,0 3.97,1.88905 6.9052,4.19788 3.434,2.70122 4.2293,4.19789 2.2306,4.19789 -1.7084,0 -4.8157,-1.88905 -6.9052,-4.19789 z m -21.3971,-2.96985 c -3.2391,-2.78784 -5.4163,-5.54335 -4.8382,-6.12335 0.578,-0.58003 4.1348,1.70094 7.9041,5.06877 8.2139,7.33911 5.3716,8.31675 -3.0659,1.05458 z m -261.9602,-37.09786 c -18.0153,-3.25898 -24.8073,-7.52168 -31.076,-19.50344 -3.2388,-6.19052 -7.9251,-12.16413 -10.4139,-13.27468 l -4.5251,-2.01916 5.3467,-5.34674 c 2.9407,-2.94073 10.6059,-6.87564 17.0337,-8.74426 12.58,-3.65708 31.9818,-4.61617 30.0468,-1.4853 -0.6499,1.05172 5.4582,4.44949 13.5736,7.55057 8.1155,3.1011 15.9116,6.73263 17.3248,8.0701 1.4131,1.33745 5.4029,3.41832 8.8661,4.62412 3.8865,1.35315 6.1867,3.54931 6.0091,5.73719 -0.1582,1.94962 0.4239,3.10496 1.2937,2.5674 0.8698,-0.53756 3.3606,1.01975 5.5351,3.4607 2.1745,2.44094 6.9034,5.68706 10.5087,7.21358 6.3299,2.68021 10.6144,10.20781 7.0603,12.4044 -0.953,0.58896 -3.1582,-0.35462 -4.9004,-2.09687 -1.7422,-1.74222 -5.1445,-3.1677 -7.5605,-3.1677 -2.603,0 -5.3303,-2.05751 -6.6937,-5.0498 -1.2654,-2.77739 -5.4958,-6.7704 -9.4007,-8.87337 l -7.1,-3.82356 -6.4608,7.83808 c -10.1005,12.25372 -20.4867,16.44789 -34.4675,13.91874 z m 23.5637,-26.27331 c -0.7391,-0.73905 -3.0109,-0.704 -5.0486,0.0779 -3.1424,1.20582 -3.2384,1.70992 -0.6328,3.32029 3.2177,1.98867 8.1301,-0.94958 5.6814,-3.39823 z m 0.5741,-7.12198 c 0,-1.15442 -1.9447,-2.09895 -4.3217,-2.09895 -2.377,0 -3.738,0.94453 -3.0246,2.09895 0.7135,1.15442 2.6583,2.09894 4.3218,2.09894 1.6635,0 3.0245,-0.94452 3.0245,-2.09894 z m 228.0352,-1.04947 c -1.7316,-1.73163 -4.1604,-3.14842 -5.3973,-3.14842 -1.2369,0 -2.2489,-1.47253 -2.2489,-3.27229 0,-1.79976 0.9446,-2.68854 2.099,-1.97507 1.1544,0.71348 2.0989,0.29696 2.0989,-0.92559 0,-1.22255 -1.2593,-2.22282 -2.7986,-2.22282 -1.5392,0 -2.9443,-1.18066 -3.1224,-2.62368 -1.442,-11.68045 -1.2672,-13.08426 1.5537,-12.47524 2.3495,0.50728 2.4549,0.0126 0.4989,-2.34519 -1.9384,-2.33555 -1.7867,-3.56383 0.6941,-5.62279 2.7467,-2.27956 3.1743,-1.45654 3.1743,6.10996 0,6.41897 1.3955,10.24931 5.2474,14.40343 5.5853,6.02355 6.5834,9.8758 3.1142,12.01991 -1.1733,0.7251 -1.5898,2.19764 -0.9256,3.27229 1.8632,3.01482 -0.4804,2.31279 -3.9877,-1.1945 z m -30.5212,-45.65201 c -1.2161,-3.75187 -1.8842,-9.65514 -1.4846,-13.1184 0.3996,-3.46325 -0.038,-8.33198 -0.972,-10.81938 -0.9342,-2.48741 -0.8928,-7.21004 0.092,-10.49471 1.3488,-4.49877 1.835,-4.91061 1.9709,-1.66934 0.099,2.36656 1.3004,5.42281 2.6693,6.79166 1.3688,1.36887 2.7219,6.51653 3.0068,11.43924 0.2849,4.92273 0.9829,12.49238 1.5512,16.82145 1.3258,10.09924 -3.6523,10.86375 -6.8335,1.04948 z m 16.9874,-36.20677 c -0.043,-3.46326 0.3926,-5.13414 0.9676,-3.7131 0.5749,1.42105 0.6099,4.25463 0.078,6.29683 -0.5322,2.04221 -1.0026,0.87952 -1.0454,-2.58373 z m -435.9398,-7.3463 c -0.7135,-1.15442 -0.297,-2.09895 0.9256,-2.09895 1.2225,0 2.2228,0.94453 2.2228,2.09895 0,1.15442 -0.4165,2.09894 -0.9256,2.09894 -0.5091,0 -1.5093,-0.94452 -2.2228,-2.09894 z m -92.4771,-7.31182 c -3.9939,-3.05245 -3.9825,-3.13979 0.5788,-4.42451 2.5592,-0.72082 5.2203,-3.09764 5.9136,-5.28184 1.5814,-4.98281 4.634,-5.14535 5.5983,-0.29811 0.9163,4.6059 -2.8311,13.08019 -5.7938,13.10202 -1.2224,0.008 -4.056,-1.38488 -6.2969,-3.09756 z m 527.438,-0.93678 c -0.5826,-2.22788 -0.3171,-7.18663 0.5899,-11.01945 1.5049,-6.3594 1.6679,-6.00522 1.8639,4.05071 0.2234,11.45693 -0.6393,13.90711 -2.4538,6.96874 z m -515.7702,-0.14717 c 0,-1.15442 1.361,-2.09895 3.0245,-2.09895 1.6635,0 3.6083,0.94453 4.3218,2.09895 0.7135,1.15441 -0.6476,2.09894 -3.0246,2.09894 -2.3769,0 -4.3217,-0.94453 -4.3217,-2.09894 z m -36.3182,-43.44718 c -3.0044,-0.77905 -3.276,-1.59427 -1.3172,-3.95441 3.5924,-4.32863 8.2502,-3.63713 8.2502,1.22484 0,4.2899 -0.3636,4.43305 -6.933,2.72957 z m 9.0319,-16.05022 c 0,-2.24039 6.895,-14.06714 7.7201,-13.24202 1.0821,1.08209 -5.1215,13.96901 -6.7245,13.96901 -0.5476,0 -0.9956,-0.32714 -0.9956,-0.72699 z m 523.046,-23.41085 c -0.043,-3.46326 0.3926,-5.13415 0.9676,-3.7131 0.5749,1.42105 0.6099,4.25462 0.078,6.29683 -0.5321,2.04221 -1.0025,0.87952 -1.0453,-2.58373 z m -518.816,-23.61311 c -0.018,-2.59745 0.9124,-4.72263 2.0669,-4.72263 2.6298,0 2.6298,2.22749 0,6.29683 -1.6453,2.54594 -2.0408,2.24469 -2.0669,-1.5742 z m 521.4689,-2.76333 c -0.7609,-1.23122 -0.9334,-2.68874 -0.3832,-3.23894 0.5502,-0.55019 1.5597,0.45718 2.2433,2.23859 1.4192,3.69856 0.2097,4.34913 -1.8601,1.00035 z M 1651.746,142.35367 c -0.9041,-1.46297 -1.0771,-3.22679 -0.3843,-3.9196 1.8785,-1.87847 3.9267,0.88429 2.9121,3.92806 -0.711,2.13289 -1.2054,2.13124 -2.5278,-0.008 z m -7.0083,-17.63381 c -5.5704,-12.9208 -5.7523,-14.40031 -1.5736,-12.79676 1.725,0.66194 2.5946,2.08017 1.9324,3.15161 -0.6622,1.07145 0.76,5.27683 3.1604,9.34529 4.5556,7.721 5.4575,11.38 2.7903,11.31931 -0.8658,-0.0197 -3.7051,-4.97846 -6.3095,-11.01945 z"
       id="path2879" />
  </g>
</svg>
