<?xml version="1.0" encoding="UTF-8" standalone="no"?>
<!-- Created with Inkscape (http://www.inkscape.org/) -->
<svg
   xmlns:dc="http://purl.org/dc/elements/1.1/"
   xmlns:cc="http://creativecommons.org/ns#"
   xmlns:rdf="http://www.w3.org/1999/02/22-rdf-syntax-ns#"
   xmlns:svg="http://www.w3.org/2000/svg"
   xmlns="http://www.w3.org/2000/svg"
   xmlns:sodipodi="http://sodipodi.sourceforge.net/DTD/sodipodi-0.dtd"
   xmlns:inkscape="http://www.inkscape.org/namespaces/inkscape"
   width="1000"
   height="1000"
   id="svg2"
   sodipodi:version="0.32"
   inkscape:version="0.46+devel r20880"
   version="1.0"
   sodipodi:docname="face.svg"
   inkscape:output_extension="org.inkscape.output.svg.inkscape">
  <defs
     id="defs4">
    <inkscape:perspective
       sodipodi:type="inkscape:persp3d"
       inkscape:vp_x="0 : 526.18109 : 1"
       inkscape:vp_y="0 : 1000 : 0"
       inkscape:vp_z="744.09448 : 526.18109 : 1"
       inkscape:persp3d-origin="372.04724 : 350.78739 : 1"
       id="perspective10" />
    <inkscape:perspective
       id="perspective3619"
       inkscape:persp3d-origin="0.5 : 0.33333333 : 1"
       inkscape:vp_z="1 : 0.5 : 1"
       inkscape:vp_y="0 : 1000 : 0"
       inkscape:vp_x="0 : 0.5 : 1"
       sodipodi:type="inkscape:persp3d" />
    <inkscape:perspective
       id="perspective4012"
       inkscape:persp3d-origin="0.5 : 0.33333333 : 1"
       inkscape:vp_z="1 : 0.5 : 1"
       inkscape:vp_y="0 : 1000 : 0"
       inkscape:vp_x="0 : 0.5 : 1"
       sodipodi:type="inkscape:persp3d" />
    <inkscape:perspective
       id="perspective4036"
       inkscape:persp3d-origin="0.5 : 0.33333333 : 1"
       inkscape:vp_z="1 : 0.5 : 1"
       inkscape:vp_y="0 : 1000 : 0"
       inkscape:vp_x="0 : 0.5 : 1"
       sodipodi:type="inkscape:persp3d" />
  </defs>
  <sodipodi:namedview
     id="base"
     pagecolor="#ffffff"
     bordercolor="#666666"
     borderopacity="1.0"
     inkscape:pageopacity="0.0"
     inkscape:pageshadow="2"
     inkscape:zoom="0.49497475"
     inkscape:cx="658.01983"
     inkscape:cy="395.03915"
     inkscape:document-units="px"
     inkscape:current-layer="layer1"
     showgrid="false"
     inkscape:window-width="1280"
     inkscape:window-height="998"
     inkscape:window-x="1276"
     inkscape:window-y="-4" />
  <metadata
     id="metadata7">
    <rdf:RDF>
      <cc:Work
         rdf:about="">
        <dc:format>image/svg+xml</dc:format>
        <dc:type
           rdf:resource="http://purl.org/dc/dcmitype/StillImage" />
        <dc:title></dc:title>
      </cc:Work>
    </rdf:RDF>
  </metadata>
  <g
     inkscape:label="Layer 1"
     inkscape:groupmode="layer"
     id="layer1">
    <flowRoot
       xml:space="preserve"
       id="flowRoot2802"
       style="fill:black;fill-opacity:1;stroke:none;font-family:Bitstream Vera Sans;font-style:normal;font-weight:normal;font-size:40px"><flowRegion
         id="flowRegion2804"><rect
           id="rect2806"
           width="300"
           height="88.571426"
           x="371.42856"
           y="394.28571" /></flowRegion><flowPara
         id="flowPara2808"></flowPara></flowRoot>    <path
       style="font-size:medium;font-style:normal;font-variant:normal;font-weight:normal;font-stretch:normal;text-indent:0;text-align:start;text-decoration:none;line-height:normal;letter-spacing:normal;word-spacing:normal;text-transform:none;direction:ltr;block-progression:tb;writing-mode:lr-tb;text-anchor:start;color:#000000;fill:#000000;fill-opacity:1;stroke:none;stroke-width:3.62432313;marker:none;visibility:visible;display:inline;overflow:visible;enable-background:accumulate;font-family:Bitstream Vera Sans;-inkscape-font-specification:Bitstream Vera Sans"
       d="m 481.69465,708.35195 c -29.69133,0 -56.58212,8.09325 -76.20671,21.3597 -19.62458,13.26644 -32.23893,31.96443 -32.23893,53.25002 0,21.28559 12.61435,39.94094 32.23893,53.20739 19.62459,13.26644 46.51538,21.3597 76.20671,21.3597 29.69133,0 56.58212,-8.09326 76.2067,-21.3597 19.62459,-13.26645 32.26964,-31.9218 32.26964,-53.20739 0,-21.28559 -12.64505,-39.98358 -32.26964,-53.25002 -19.62458,-13.26645 -46.51537,-21.3597 -76.2067,-21.3597 z m 0,4.94556 c 29.22287,0 55.68786,8.05755 74.67152,20.89072 18.98366,12.83317 30.24319,30.23236 30.24319,48.77344 0,18.5411 -11.25953,35.89763 -30.24319,48.7308 -18.98366,12.83318 -45.44865,20.89073 -74.67152,20.89073 -29.22286,0 -55.65717,-8.05755 -74.64082,-20.89073 -18.98365,-12.83317 -30.24319,-30.1897 -30.24319,-48.7308 0,-18.54108 11.25954,-35.94027 30.24319,-48.77344 18.98365,-12.83317 45.41796,-20.89072 74.64082,-20.89072 z"
       id="path3592" />
    <path
       style="font-size:medium;font-style:normal;font-variant:normal;font-weight:normal;font-stretch:normal;text-indent:0;text-align:start;text-decoration:none;line-height:normal;letter-spacing:normal;word-spacing:normal;text-transform:none;direction:ltr;block-progression:tb;writing-mode:lr-tb;text-anchor:start;color:#000000;fill:#000000;fill-opacity:1;fill-rule:nonzero;stroke:none;stroke-width:5;marker:none;visibility:visible;display:inline;overflow:visible;enable-background:accumulate;font-family:Bitstream Vera Sans;-inkscape-font-specification:Bitstream Vera Sans"
       d="m 513.55855,740.39263 c -11.91549,0 -21.71875,6.67605 -21.71875,14.92252 0,8.24647 9.80326,14.92252 21.71875,14.92252 11.91549,0 21.6875,-6.67605 21.6875,-14.92252 0,-8.24647 -9.77201,-14.92252 -21.6875,-14.92252 z m 0,3.52154 c 9.28439,0 16.6875,5.10913 16.6875,11.40098 0,6.29185 -7.40311,11.40098 -16.6875,11.40098 -9.28439,0 -16.71875,-5.10913 -16.71875,-11.40098 0,-6.29185 7.43436,-11.40098 16.71875,-11.40098 z"
       id="path3596" />
    <path
       style="font-size:medium;font-style:normal;font-variant:normal;font-weight:normal;font-stretch:normal;text-indent:0;text-align:start;text-decoration:none;line-height:normal;letter-spacing:normal;word-spacing:normal;text-transform:none;direction:ltr;block-progression:tb;writing-mode:lr-tb;text-anchor:start;color:#000000;fill:#000000;fill-opacity:1;stroke:none;stroke-width:5;marker:none;visibility:visible;display:inline;overflow:visible;enable-background:accumulate;font-family:Bitstream Vera Sans;-inkscape-font-specification:Bitstream Vera Sans"
       d="m 552.4648,787.73532 c 0,0 -17.50416,19.30172 -44.09375,28.85461 -13.29479,4.77644 -28.68783,7.13749 -45.5625,3.63159 -16.87467,-3.50591 -35.45657,-12.97115 -54.68751,-32.33213 l -4.09375,2.02488 c 19.65993,19.79287 39.11531,29.88106 57.37501,33.67472 18.25969,3.79365 35.11315,1.19405 49.21875,-3.8737 28.21119,-10.13548 46.0625,-30.08714 46.0625,-30.08714 l -4.21875,-1.89283 z"
       id="path3633" />
    <path
       style="font-size:medium;font-style:normal;font-variant:normal;font-weight:normal;font-stretch:normal;text-indent:0;text-align:start;text-decoration:none;line-height:normal;letter-spacing:normal;word-spacing:normal;text-transform:none;direction:ltr;block-progression:tb;writing-mode:lr-tb;text-anchor:start;color:#000000;fill:#000000;fill-opacity:1;stroke:none;stroke-width:5;marker:none;visibility:visible;display:inline;overflow:visible;enable-background:accumulate;font-family:Bitstream Vera Sans;-inkscape-font-specification:Bitstream Vera Sans"
       d="m 443.18354,739.88641 c -12.21297,0 -22.3125,6.61696 -22.3125,14.85649 0,8.23953 10.09953,14.83448 22.3125,14.83448 12.21298,0 22.31251,-6.59495 22.31251,-14.83448 0,-8.23953 -10.09953,-14.85649 -22.31251,-14.85649 z m 0,3.52154 c 9.68119,0 17.31251,5.1267 17.31251,11.33495 0,6.20825 -7.63132,11.31294 -17.31251,11.31294 -9.68118,0 -17.3125,-5.10469 -17.3125,-11.31294 0,-6.20825 7.63132,-11.33495 17.3125,-11.33495 z"
       id="path3929" />
    <g
       style="font-size:40px;font-style:normal;font-weight:normal;line-height:125%;fill:#000000;fill-opacity:1;stroke:none;font-family:Bitstream Vera Sans"
       id="text3957">
      <path
         d="m 194.45914,291.27603 c 1.45312,-0.98437 4.07812,-1.6875 7.875,-2.10937 2.95311,-0.14062 4.71092,-0.39844 5.27343,-0.77344 0.37499,-0.28125 0.65624,-0.63281 0.84375,-1.05469 0.70311,-1.73437 1.21874,-6.4453 1.54688,-14.13281 0.42186,-9.98435 1.10154,-23.2734 2.03906,-39.86719 0.74998,-12.65618 1.12498,-20.55461 1.125,-23.69531 l 0,-1.82813 c -3.37501,-0.70304 -8.71876,-1.45303 -16.03125,-2.25 -0.46875,-0.70303 -0.70313,-1.24209 -0.70312,-1.61718 -1e-5,-0.23429 0.16406,-0.65616 0.49218,-1.26563 0.79688,-0.28116 1.40625,-0.42178 1.82813,-0.42187 0.37499,9e-5 1.19531,0.0938 2.46094,0.28125 2.29686,0.32821 5.46092,0.49227 9.49218,0.49218 1.31249,9e-5 3.56248,-0.0937 6.75,-0.28125 2.24998,-0.14053 3.5156,-0.21084 3.79688,-0.21093 0.74997,9e-5 1.61716,0.11727 2.60156,0.35156 0.46872,0.46884 0.82028,0.91415 1.05469,1.33594 l 2.95312,6.60937 19.89844,44.01563 8.22656,18.49218 c 6.51556,-12.89059 11.57806,-24.35151 15.1875,-34.38281 0.2343,-0.74994 0.51555,-1.42963 0.84375,-2.03906 0.4218,-0.79682 0.82024,-1.68744 1.19532,-2.67188 0.37492,-0.98431 1.89835,-4.73431 4.57031,-11.25 1.07804,-2.62492 1.94523,-4.87492 2.60156,-6.75 2.67179,-7.49991 4.2421,-11.78897 4.71094,-12.86718 0.89053,-0.32804 1.66397,-0.4921 2.32031,-0.49219 0.74991,9e-5 1.71084,0.047 2.88281,0.14062 2.62491,0.14072 6.89053,0.21103 12.79688,0.21094 3.65614,9e-5 6.65613,-0.0468 9,-0.14062 0.0936,0.51571 0.14051,0.89071 0.14062,1.125 -1.1e-4,0.32821 -0.0704,0.77352 -0.21093,1.33593 -1.50012,0.79697 -3.30481,1.24228 -5.41407,1.33594 -4.17198,0.23446 -6.82041,0.56259 -7.94531,0.98438 -1.1251,0.42196 -1.83995,0.96102 -2.14453,1.61718 -0.30479,0.65634 -0.57432,2.81258 -0.80859,6.46875 l 0.0703,3.23438 -0.0703,3.375 c -1.1e-4,7.03131 0.18739,18.8438 0.5625,35.4375 l -0.0703,13.78125 0.0703,8.85937 c -1.1e-4,3.46876 0.16396,5.51954 0.49218,6.15235 0.32803,0.63282 1.26552,1.23047 2.8125,1.79297 2.53115,0.84375 6.65614,1.71094 12.375,2.60156 0.32801,0.23438 0.49207,0.53906 0.49219,0.91406 -1.2e-4,0.42188 -0.0236,0.89063 -0.0703,1.40625 l -3.23438,0 c -2.76573,0 -5.76573,-0.082 -9,-0.24609 -3.23447,-0.16406 -4.96885,-0.2461 -5.20312,-0.2461 -9.60947,0 -15.98446,0.0937 -19.125,0.28125 -1.92196,0.14063 -3.1407,0.21094 -3.65625,0.21094 -0.3282,0 -0.67977,-0.0937 -1.05469,-0.28125 l 0,-0.91406 c -8e-5,-0.42188 0.0702,-0.86719 0.21094,-1.33594 1.5468,-0.65625 3.65617,-1.10156 6.32812,-1.33594 2.95304,-0.79687 5.10929,-1.64062 6.46875,-2.53125 0.42179,-1.78124 0.63273,-5.41405 0.63282,-10.89843 l -0.21094,-14.20313 c -9e-5,-1.54684 0.0819,-4.42965 0.24609,-8.64844 0.16397,-4.2187 0.24601,-11.08588 0.2461,-20.60156 -9e-5,-7.54681 -0.18759,-13.26555 -0.5625,-17.15625 -0.79697,1.6407 -2.36728,5.2032 -4.71094,10.6875 l -1.05469,2.67188 -0.14062,0.42187 -10.40625,24.60938 -3.72657,9.49218 -4.85156,11.53125 c -2.10944,5.29689 -3.91412,9.98439 -5.41406,14.0625 -0.65631,1.87501 -1.19537,3.35157 -1.61719,4.42969 l -1.61719,-0.0703 c -5.29692,-15.46874 -11.61332,-31.33591 -18.94921,-47.60156 -7.33597,-16.26557 -12.4805,-26.99993 -15.4336,-32.20313 -0.37502,2.0157 -0.7969,7.87507 -1.26562,17.57813 -0.6094,11.81255 -0.91409,24.82035 -0.91407,39.02343 -2e-5,4.45315 0.32811,9.46877 0.98438,15.04688 0.18748,1.59375 0.86716,2.77735 2.03906,3.55078 1.17185,0.77344 4.19529,1.20703 9.07031,1.30078 1.87497,0 3.65622,0.14063 5.34375,0.42188 0.32809,0.70312 0.49215,1.21875 0.49219,1.54687 -4e-5,0.23438 -0.11722,0.63281 -0.35156,1.19531 l -21.86719,-0.77343 c -1.59376,0 -4.07814,0.11718 -7.45312,0.35156 -1.87501,0.14062 -4.57032,0.23437 -8.08594,0.28125 z"
         style="font-size:144px;font-variant:normal;font-stretch:normal;text-align:center;line-height:125%;writing-mode:lr-tb;text-anchor:middle;font-family:Garamond;-inkscape-font-specification:Garamond"
         id="path3966" />
      <path
         d="m 370.73257,283.33072 c 0.2812,0.60938 0.42182,1.0547 0.42188,1.33594 -6e-5,0.70313 -0.56256,1.94532 -1.6875,3.72656 -1.45318,2.34375 -3.07037,4.05469 -4.85156,5.13281 -1.12505,0.70313 -2.67193,1.05469 -4.64063,1.05469 -3.37504,0 -5.90629,-1.03125 -7.59375,-3.09375 -1.03129,-1.21875 -1.75785,-3.39843 -2.17969,-6.53906 l -7.875,5.48437 c -2.76565,1.59375 -4.87502,2.60156 -6.32812,3.02344 -2.34377,0.60937 -5.15627,0.91406 -8.4375,0.91406 -2.39064,0 -4.27735,-0.71484 -5.66016,-2.14453 -1.38282,-1.42969 -2.07422,-3.26953 -2.07422,-5.51953 0,-3.23437 1.98046,-7.10155 5.94141,-11.60156 3.96092,-4.49998 9.33982,-8.17967 16.13672,-11.03907 4.78122,-2.01559 7.7109,-3.30465 8.78906,-3.86718 0.0937,-1.54684 0.14059,-3.23434 0.14063,-5.0625 -4e-5,-5.95308 -0.83207,-9.98433 -2.4961,-12.09375 -1.66409,-2.10933 -4.043,-3.16401 -7.13672,-3.16407 -3.23439,6e-5 -6.25783,1.26568 -9.07031,3.79688 -1.73439,1.5938 -3.04689,4.59379 -3.9375,9 -0.28126,1.21879 -0.82032,2.53129 -1.61719,3.9375 -2.01563,1.31253 -3.63282,1.96878 -4.85156,1.96875 -1.03126,3e-5 -1.96875,-0.30465 -2.8125,-0.91406 -0.46875,-0.32809 -0.70313,-0.70309 -0.70312,-1.125 -10e-6,-1.21872 1.30077,-3.97262 3.90234,-8.26172 2.60155,-4.28902 5.8828,-7.49995 9.84375,-9.63281 3.96092,-2.13276 7.41794,-3.19917 10.37109,-3.19922 4.03122,5e-5 7.03122,0.36333 9,1.08984 1.96871,0.72662 3.70309,2.00396 5.20313,3.83203 1.49996,1.82818 2.41402,3.82036 2.74219,5.97656 0.18745,1.0313 0.2812,4.71098 0.28125,11.03907 l -0.21094,11.17968 0.0703,8.15625 c -4e-5,1.07814 -0.0235,1.99221 -0.0703,2.74219 -0.0469,1.35939 -0.0704,2.3672 -0.0703,3.02344 -5e-5,1.54688 0.44526,2.78907 1.33593,3.72656 0.89058,0.93751 1.94527,1.40626 3.16407,1.40625 1.78119,1e-5 3.30463,-0.89062 4.57031,-2.67187 l 0.84375,-1.125 c 0.23432,-0.14062 0.74994,-0.30468 1.54687,-0.49219 z m -20.67187,-2.03906 c 0.32809,-5.95311 0.49215,-10.14842 0.49219,-12.58594 -4e-5,-1.2656 -0.0704,-2.97654 -0.21094,-5.13281 -3.14066,1.12502 -6.46878,2.83596 -9.98438,5.13281 -3.51564,2.2969 -6.3047,4.94533 -8.36718,7.94531 -1.50002,2.15627 -2.25002,4.19533 -2.25,6.11719 -2e-5,1.82813 0.62107,3.35157 1.86328,4.57031 1.24217,1.21876 2.80076,1.82813 4.67578,1.82813 1.4531,0 3.21091,-0.51562 5.27344,-1.54688 2.71872,-1.35937 5.55465,-3.46874 8.50781,-6.32812 z"
         style="font-size:144px;font-variant:normal;font-stretch:normal;text-align:center;line-height:125%;writing-mode:lr-tb;text-anchor:middle;font-family:Garamond;-inkscape-font-specification:Garamond"
         id="path3968" />
      <path
         d="m 375.86539,292.89322 -0.14063,-2.03906 c 0.375,-0.28125 0.72656,-0.45703 1.05469,-0.52735 0.32812,-0.0703 1.51171,-0.17578 3.55078,-0.3164 2.03905,-0.14063 3.3164,-0.59766 3.83203,-1.3711 0.51561,-0.77343 0.77343,-3.97265 0.77344,-9.59765 l 0.14062,-27.77344 -0.14062,-4.92188 c -10e-6,-0.42182 0.0469,-1.99213 0.14062,-4.71093 0.0937,-1.26558 0.14062,-2.78901 0.14063,-4.57032 l -0.28125,-12.23437 0.0703,-10.6875 c -1e-5,-2.57804 -0.36329,-4.23039 -1.08984,-4.95703 -0.72658,-0.72648 -3.29298,-1.39445 -7.69922,-2.00391 l 0,-0.84375 c 0,-0.28116 0.0234,-0.6796 0.0703,-1.19531 2.67187,-0.56241 5.03906,-1.26554 7.10156,-2.10938 1.07812,-0.46866 3.8203,-1.92178 8.22657,-4.35937 l 2.17968,0 c -0.0469,1.07822 -0.0703,1.73447 -0.0703,1.96875 l 0,6.11719 -0.0703,3.02343 0.21094,5.55469 -0.0703,8.36719 0.0703,13.92187 -0.21094,17.29688 0,5.34375 c -2e-5,0.65628 0.0234,1.57034 0.0703,2.74219 l 0.77344,0.0703 c 1.59373,3e-5 3.21091,-0.58591 4.85156,-1.75781 7.35934,-5.24997 11.97653,-8.82418 13.85156,-10.72266 1.87496,-1.89839 2.81246,-3.26949 2.8125,-4.11328 -4e-5,-0.51558 -0.30473,-1.17183 -0.91406,-1.96875 -1.40629,-0.74995 -2.9766,-1.26558 -4.71094,-1.54688 -0.51566,-0.0937 -1.07816,-0.21088 -1.6875,-0.35156 -0.84378,-0.23432 -1.54691,-0.39839 -2.10937,-0.49219 l -0.14063,-0.70312 c -3e-5,-0.32807 0.11716,-0.79682 0.35157,-1.40625 7.4062,-0.2812 13.85151,-0.42182 19.33593,-0.42188 3.0937,6e-5 6.39838,0.0704 9.91407,0.21094 l 0,0.91406 c -7e-5,0.32818 -0.11725,0.75006 -0.35157,1.26563 -0.70318,0.14067 -1.80474,0.35161 -3.30468,0.63281 -2.90631,0.4688 -5.10943,1.12505 -6.60938,1.96875 -3.60942,1.92192 -7.33598,4.61723 -11.17969,8.08594 -2.29691,2.06254 -4.2891,3.79691 -5.97656,5.20312 l -2.53125,2.17969 c 0.18747,0.32816 0.49215,0.7266 0.91406,1.19531 0.18747,0.18754 0.56247,0.60941 1.125,1.26563 0.56247,0.65628 1.57028,1.75784 3.02344,3.30469 5.06246,5.34377 8.81245,9.46876 11.25,12.375 0.79683,0.93751 1.68745,1.96876 2.67188,3.09375 3.65619,4.07813 5.789,6.35156 6.39843,6.82031 1.31244,0.84375 3.25775,1.5 5.83594,1.96875 1.21869,0.23438 2.27337,0.44531 3.16406,0.63281 0.18744,0.5625 0.28119,1.00782 0.28125,1.33594 l -0.0703,0.70312 c -3.32819,-0.28125 -5.71881,-0.42187 -7.17187,-0.42187 l -1.26563,0 -19.54687,0.5625 c -0.75004,0.0937 -1.26567,0.14062 -1.54688,0.14062 -0.46879,0 -0.96097,-0.0937 -1.47656,-0.28125 -0.14066,-0.375 -0.21098,-0.70312 -0.21094,-0.98437 l 0,-0.49219 c 0.28121,-0.42187 0.53903,-0.67968 0.77344,-0.77344 4.64058,-0.37499 7.33589,-0.67968 8.08594,-0.91406 0.42183,-0.0937 0.82026,-0.35156 1.19531,-0.77344 -5e-5,-0.79687 -0.67973,-2.08593 -2.03906,-3.86718 -1.35942,-1.78124 -4.75786,-5.6953 -10.19532,-11.74219 -3.46878,-3.84373 -5.70706,-6.08201 -6.71484,-6.71484 -1.00784,-0.63279 -2.40237,-0.9492 -4.18359,-0.94922 l -2.67188,0 c -0.18752,1.68752 -0.28127,5.55471 -0.28125,11.60156 -2e-5,5.62501 0.46873,9.23438 1.40625,10.82812 0.5156,0.89063 1.73435,1.45313 3.65625,1.6875 1.92185,0.23438 3.16403,0.58594 3.72656,1.05469 0.37497,0.28125 0.60935,0.9375 0.70313,1.96875 -2.81253,-0.0469 -5.17971,-0.0703 -7.10156,-0.0703 -3.09377,0 -6.46877,0.0703 -10.125,0.21094 -2.20314,0.0937 -3.93751,0.14062 -5.20313,0.14062 -0.93751,0 -2.48438,-0.0234 -4.64062,-0.0703 z"
         style="font-size:144px;font-variant:normal;font-stretch:normal;text-align:center;line-height:125%;writing-mode:lr-tb;text-anchor:middle;font-family:Garamond;-inkscape-font-specification:Garamond"
         id="path3970" />
      <path
         d="m 495.25601,255.76822 -28.19531,0.21094 -5.34375,0 c -2.15627,3e-5 -4.35939,0.0938 -6.60938,0.28125 -0.42189,1.40628 -0.63282,2.36722 -0.63281,2.88281 l 0.0703,0.70312 0,0.70313 -0.0703,3.44531 c -1e-5,2.8594 0.90233,6.36331 2.70703,10.51172 1.80467,4.14845 4.38279,7.31251 7.73438,9.49219 3.35153,2.17969 7.53512,3.33985 12.55078,3.48047 2.67183,-0.14062 4.80464,-0.46875 6.39844,-0.98438 1.5937,-0.51562 3.8437,-1.71093 6.75,-3.58594 l 5.0625,-4.14843 0.42187,2.8125 c -5e-5,0.32813 -0.0235,0.67969 -0.0703,1.05468 -2.10943,2.67189 -4.7813,5.01563 -8.01563,7.03125 -3.23442,2.01563 -6.51566,3.49219 -9.84375,4.42969 -1.59378,0.42187 -4.21878,0.63281 -7.875,0.63281 -3.32815,0 -6.60939,-0.67968 -9.84375,-2.03906 -4.78126,-2.0625 -8.54298,-5.3789 -11.28515,-9.94922 -2.7422,-4.5703 -4.11329,-10.11326 -4.11328,-16.6289 -10e-6,-2.06247 0.38671,-4.71091 1.16015,-7.94532 0.77343,-3.23433 2.16796,-6.67964 4.1836,-10.33593 1.35936,-2.48433 3.02342,-4.52339 4.99218,-6.11719 2.81249,-2.24995 5.27342,-3.82026 7.38282,-4.71094 3.04685,-1.26557 6.5859,-1.89838 10.61718,-1.89844 4.35934,6e-5 7.92184,0.79694 10.6875,2.39063 3.74996,2.10943 6.55073,4.82817 8.40235,8.15625 1.85151,3.32817 2.77729,6.37504 2.77734,9.14062 z m -39.23437,-2.53125 3.30468,0 c 2.39061,4e-5 9.5156,-0.37496 21.375,-1.125 1.87496,-0.0937 3.0234,-0.28121 3.44532,-0.5625 0.8437,-0.89058 1.26558,-1.68746 1.26562,-2.39063 -4e-5,-1.45308 -0.46879,-3.10542 -1.40625,-4.95703 -0.93754,-1.85151 -2.37895,-3.2812 -4.32422,-4.28906 -1.94535,-1.00776 -4.20706,-1.51166 -6.78515,-1.51172 -5.43753,6e-5 -9.7969,2.03912 -13.07813,6.11719 -2.53127,3.09379 -3.79689,6.00004 -3.79687,8.71875 z"
         style="font-size:144px;font-variant:normal;font-stretch:normal;text-align:center;line-height:125%;writing-mode:lr-tb;text-anchor:middle;font-family:Garamond;-inkscape-font-specification:Garamond"
         id="path3972" />
      <path
         d="m 507.70132,244.23697 c 0,-1.7812 0.73828,-3.42182 2.21485,-4.92188 1.47655,-1.49994 3.17577,-2.24994 5.09765,-2.25 2.06249,6e-5 3.86717,0.7735 5.41407,2.32032 1.54685,1.54692 2.32029,3.32817 2.32031,5.34375 -2e-5,2.29692 -0.89065,4.38285 -2.67188,6.25781 -1.17189,1.31254 -2.90626,1.96879 -5.20312,1.96875 -2.06251,4e-5 -3.77345,-0.74996 -5.13281,-2.25 -1.35939,-1.49996 -2.03907,-3.65621 -2.03907,-6.46875 z m 0.35157,42.82031 c -10e-6,-2.06249 0.76171,-3.86718 2.28515,-5.41406 1.52343,-1.54686 3.29296,-2.3203 5.3086,-2.32031 1.92185,1e-5 3.5742,0.72657 4.95703,2.17968 1.38279,1.45314 2.07419,3.28126 2.07422,5.48438 -3e-5,2.20313 -0.71487,4.05469 -2.14453,5.55469 -1.42971,1.5 -3.15237,2.24999 -5.16797,2.25 -2.34377,-10e-6 -4.14845,-0.87891 -5.41407,-2.63672 -1.26563,-1.75781 -1.89844,-3.45703 -1.89843,-5.09766 z"
         style="font-size:144px;font-variant:normal;font-stretch:normal;text-align:center;line-height:125%;writing-mode:lr-tb;text-anchor:middle;font-family:Garamond;-inkscape-font-specification:Garamond"
         id="path3974" />
      <path
         d="m 568.66226,291.48697 c 1.73437,-0.75 3.75,-1.24219 6.04688,-1.47656 3.32811,-0.375 5.81248,-1.17187 7.45312,-2.39063 1.26561,-2.57812 1.89842,-9.14061 1.89844,-19.6875 l 0,-11.10937 0.14062,-6.67969 -0.14062,-4.92188 0.14062,-9.07031 -0.21093,-22.85156 c -2e-5,-2.57804 -0.37502,-4.26554 -1.125,-5.0625 -1.07814,-1.17179 -3.93751,-2.24991 -8.57813,-3.23438 -1.92188,-0.42178 -3.09375,-0.8085 -3.51562,-1.16015 -0.42188,-0.35148 -0.67969,-1.01944 -0.77344,-2.00391 1.07812,-0.23428 1.82812,-0.35147 2.25,-0.35156 l 4.99219,0 2.60156,-0.0703 c 1.73436,9e-5 3.65623,0.18759 5.76562,0.5625 4.31248,0.28134 8.74216,0.42196 13.28907,0.42187 1.31246,9e-5 3.18746,-0.0702 5.625,-0.21094 6.4687,-0.3749 11.10932,-0.5624 13.92187,-0.5625 5.67182,1e-4 11.02728,0.56259 16.06641,1.6875 5.03899,1.12509 10.23039,3.21103 15.57422,6.25782 3.32804,1.92195 6.73819,4.95711 10.23047,9.10547 3.49209,4.1485 6.14052,8.67194 7.94531,13.57031 1.80458,4.89849 2.70693,10.41802 2.70703,16.55859 -10e-5,5.48442 -0.9962,10.92191 -2.98828,16.3125 -1.99229,5.39065 -4.76963,10.06643 -8.33203,14.02735 -3.56259,3.96094 -7.17196,6.9375 -10.82813,8.92968 -3.65633,1.99219 -9.23445,3.71485 -16.73437,5.16797 -3.09382,0.5625 -8.6485,0.84375 -16.66407,0.84375 -5.29691,0 -9.60941,-0.16406 -12.9375,-0.49219 -1.31253,-0.1875 -2.71878,-0.28125 -4.21875,-0.28125 -0.2344,0 -0.49221,0.0234 -0.77343,0.0703 l -28.6875,0.49218 -0.14063,-0.5625 c -0.0937,-0.23437 -0.14062,-0.49218 -0.14062,-0.77343 z m 35.78906,-2.74219 c 3.56246,1.21875 7.17183,1.82813 10.82813,1.82813 4.73432,0 9.37494,-0.73828 13.92187,-2.21485 4.54681,-1.47655 8.56634,-3.56249 12.0586,-6.25781 3.49211,-2.6953 6.3632,-5.74217 8.61328,-9.14062 2.24991,-3.39842 3.84366,-6.45701 4.78125,-9.17579 1.31241,-3.98434 1.96866,-9.16402 1.96875,-15.53906 -9e-5,-6.0937 -1.28915,-12.28119 -3.86719,-18.5625 -1.78133,-4.35931 -4.91024,-8.53118 -9.38672,-12.51562 -4.47663,-3.9843 -9.76178,-6.90226 -15.85547,-8.75391 -6.0938,-1.85148 -12.67973,-2.77726 -19.75781,-2.77734 -4.87503,8e-5 -8.48441,0.53915 -10.82812,1.61718 -0.28128,0.28134 -0.56253,0.60946 -0.84375,0.98438 -0.28128,1.17196 -0.42191,2.25008 -0.42188,3.23437 -3e-5,0.60946 0.0234,1.33602 0.0703,2.17969 0.1406,5.43758 0.21091,9.79695 0.21094,13.07813 l -0.0703,15.96093 c -3e-5,23.43753 0.43356,36.48049 1.30078,39.12891 0.86716,2.64845 3.29294,4.95704 7.27734,6.92578 z"
         style="font-size:144px;font-variant:normal;font-stretch:normal;text-align:center;line-height:125%;writing-mode:lr-tb;text-anchor:middle;font-family:Garamond;-inkscape-font-specification:Garamond"
         id="path3976" />
      <path
         d="m 735.23257,283.33072 c 0.2812,0.60938 0.42182,1.0547 0.42188,1.33594 -6e-5,0.70313 -0.56256,1.94532 -1.6875,3.72656 -1.45318,2.34375 -3.07037,4.05469 -4.85156,5.13281 -1.12505,0.70313 -2.67193,1.05469 -4.64063,1.05469 -3.37504,0 -5.90629,-1.03125 -7.59375,-3.09375 -1.03129,-1.21875 -1.75785,-3.39843 -2.17969,-6.53906 l -7.875,5.48437 c -2.76565,1.59375 -4.87502,2.60156 -6.32812,3.02344 -2.34377,0.60937 -5.15627,0.91406 -8.4375,0.91406 -2.39064,0 -4.27735,-0.71484 -5.66016,-2.14453 -1.38282,-1.42969 -2.07422,-3.26953 -2.07422,-5.51953 0,-3.23437 1.98046,-7.10155 5.94141,-11.60156 3.96092,-4.49998 9.33982,-8.17967 16.13672,-11.03907 4.78122,-2.01559 7.7109,-3.30465 8.78906,-3.86718 0.0937,-1.54684 0.14059,-3.23434 0.14063,-5.0625 -4e-5,-5.95308 -0.83207,-9.98433 -2.4961,-12.09375 -1.66409,-2.10933 -4.043,-3.16401 -7.13672,-3.16407 -3.23439,6e-5 -6.25783,1.26568 -9.07031,3.79688 -1.73439,1.5938 -3.04689,4.59379 -3.9375,9 -0.28126,1.21879 -0.82032,2.53129 -1.61719,3.9375 -2.01563,1.31253 -3.63282,1.96878 -4.85156,1.96875 -1.03126,3e-5 -1.96875,-0.30465 -2.8125,-0.91406 -0.46875,-0.32809 -0.70313,-0.70309 -0.70312,-1.125 -1e-5,-1.21872 1.30077,-3.97262 3.90234,-8.26172 2.60155,-4.28902 5.8828,-7.49995 9.84375,-9.63281 3.96092,-2.13276 7.41794,-3.19917 10.37109,-3.19922 4.03122,5e-5 7.03122,0.36333 9,1.08984 1.96871,0.72662 3.70309,2.00396 5.20313,3.83203 1.49996,1.82818 2.41402,3.82036 2.74219,5.97656 0.18745,1.0313 0.2812,4.71098 0.28125,11.03907 l -0.21094,11.17968 0.0703,8.15625 c -4e-5,1.07814 -0.0235,1.99221 -0.0703,2.74219 -0.0469,1.35939 -0.0704,2.3672 -0.0703,3.02344 -5e-5,1.54688 0.44526,2.78907 1.33593,3.72656 0.89058,0.93751 1.94527,1.40626 3.16407,1.40625 1.78119,1e-5 3.30463,-0.89062 4.57031,-2.67187 l 0.84375,-1.125 c 0.23432,-0.14062 0.74994,-0.30468 1.54687,-0.49219 z m -20.67187,-2.03906 c 0.32809,-5.95311 0.49215,-10.14842 0.49219,-12.58594 -4e-5,-1.2656 -0.0704,-2.97654 -0.21094,-5.13281 -3.14066,1.12502 -6.46878,2.83596 -9.98438,5.13281 -3.51564,2.2969 -6.3047,4.94533 -8.36718,7.94531 -1.50002,2.15627 -2.25002,4.19533 -2.25,6.11719 -2e-5,1.82813 0.62107,3.35157 1.86328,4.57031 1.24217,1.21876 2.80076,1.82813 4.67578,1.82813 1.4531,0 3.21091,-0.51562 5.27344,-1.54688 2.71872,-1.35937 5.55465,-3.46874 8.50781,-6.32812 z"
         style="font-size:144px;font-variant:normal;font-stretch:normal;text-align:center;line-height:125%;writing-mode:lr-tb;text-anchor:middle;font-family:Garamond;-inkscape-font-specification:Garamond"
         id="path3978" />
      <path
         d="m 737.41226,237.48697 c 1.03125,-0.0937 1.89844,-0.14057 2.60156,-0.14063 l 3.375,0 4.57032,-0.14062 5.97656,0.21094 4.85156,-0.14063 c 2.5781,6e-5 4.89841,0.16412 6.96094,0.49219 0.18747,0.4688 0.28122,0.8438 0.28125,1.125 l -0.0703,0.5625 c -0.98441,0.4688 -2.50784,0.79693 -4.57032,0.98437 -2.90627,0.23443 -4.9922,0.75006 -6.25781,1.54688 l -0.14062,0.77344 c -2e-5,0.4688 0.18748,1.17192 0.5625,2.10937 0.23435,0.56255 0.53904,1.4063 0.91406,2.53125 1.03123,3.46879 3.25779,10.17191 6.67969,20.10938 2.48434,7.17189 4.78122,13.33595 6.89062,18.49218 1.31247,-2.81249 2.81247,-6.37498 4.5,-10.6875 l 5.97656,-16.66406 c 1.31246,-3.65621 2.32027,-7.31246 3.02344,-10.96875 0.2812,-1.45308 0.42183,-2.60151 0.42188,-3.44531 -5e-5,-0.70308 -0.30474,-1.35933 -0.91407,-1.96875 -0.60942,-0.60932 -1.82817,-1.12495 -3.65625,-1.54688 -3.32816,-0.84369 -5.13285,-1.37104 -5.41406,-1.58203 -0.28129,-0.21088 -0.44535,-0.66791 -0.49219,-1.37109 0.28122,-0.23432 0.60934,-0.42182 0.98438,-0.5625 l 4.35937,0 4.71094,0.0703 7.03125,-0.0703 4.5,0.0703 1.125,-0.0703 c 0.32807,5e-5 0.86713,0.0469 1.61719,0.14062 0.46869,0.23443 0.70306,0.60943 0.70312,1.125 -6e-5,0.46881 -0.21099,0.89068 -0.63281,1.26563 l -1.40625,0.21094 c -2.71881,0.37505 -4.80474,1.07817 -6.25781,2.10937 -0.79693,0.56255 -1.47662,1.73443 -2.03906,3.51563 -0.18755,0.65629 -0.49224,1.50004 -0.91407,2.53125 -0.23442,0.56254 -0.57426,1.50004 -1.01953,2.8125 -0.44536,1.31254 -1.01958,2.85941 -1.72265,4.64062 l -0.84375,1.96875 -0.0703,0.35156 -11.95312,31.5 -8.71875,23.69532 c -0.56253,1.17185 -1.21878,2.62497 -1.96875,4.35937 -1.78127,3.3281 -2.83596,5.15622 -3.16406,5.48438 -1.40627,1.73434 -2.62502,2.95309 -3.65625,3.65625 l -3.58594,1.54687 c -0.70314,0.18747 -1.45314,0.28122 -2.25,0.28125 -2.10939,-3e-5 -3.65626,-0.45706 -4.64063,-1.37109 -0.98438,-0.9141 -1.47656,-2.168 -1.47656,-3.76172 0,-1.50003 0.72656,-2.8594 2.17969,-4.07813 0.46874,-0.14065 0.93749,-0.32815 1.40625,-0.5625 l 0.91406,-0.21093 c 4.17186,0.74997 6.77342,1.12497 7.80469,1.125 0.98436,-0.51565 1.71092,-1.12503 2.17969,-1.82813 2.29685,-3.42189 4.2656,-7.2422 5.90625,-11.46094 1.64059,-4.21876 2.46091,-7.05469 2.46093,-8.50781 -2e-5,-1.59375 -0.6094,-3.91406 -1.82812,-6.96094 l -7.80469,-20.67187 c -1.07814,-2.67185 -4.28908,-11.39059 -9.63281,-26.15625 -0.32813,-0.93745 -0.75001,-1.64058 -1.26563,-2.10938 l -4.78125,-1.75781 -1.47656,-0.28125 c -0.79687,-0.32807 -1.19531,-0.79682 -1.19531,-1.40625 z"
         style="font-size:144px;font-variant:normal;font-stretch:normal;text-align:center;line-height:125%;writing-mode:lr-tb;text-anchor:middle;font-family:Garamond;-inkscape-font-specification:Garamond"
         id="path3980" />
      <path
         d="m 396.32632,386.12759 c 0.37495,3.09384 0.56245,4.87509 0.5625,5.34375 l -0.28125,6.25782 c -0.0938,2.67194 -0.21099,4.38288 -0.35156,5.13281 -0.42193,0.18757 -0.77349,0.28132 -1.05469,0.28125 l -0.63281,-0.14063 c -1.50005,-6.56242 -4.04302,-11.34366 -7.6289,-14.34375 -3.58598,-2.99991 -7.95707,-4.49991 -13.11329,-4.5 -5.34377,9e-5 -9.72658,1.50009 -13.14843,4.5 -3.42189,3.00009 -5.13283,6.49227 -5.13282,10.47657 -1e-5,3.04694 1.1953,5.836 3.58594,8.36718 2.39061,2.53132 8.50779,6.32819 18.35156,11.39063 7.49996,3.89067 12.86714,7.06645 16.10157,9.52734 3.23432,2.46098 5.67181,5.30864 7.3125,8.54297 1.64056,3.23441 2.46087,6.84378 2.46093,10.82813 -6e-5,5.01564 -1.30084,9.72657 -3.90234,14.13281 -2.60162,4.40626 -6.10552,7.72266 -10.51172,9.94922 -4.40629,2.22656 -10.24222,3.33984 -17.50781,3.33984 -6.32815,0 -12.39846,-1.00781 -18.21094,-3.02344 -3.42188,-1.21874 -5.50782,-2.20312 -6.25781,-2.95312 -0.75001,-0.75 -1.12501,-1.54687 -1.125,-2.39063 -10e-6,-0.51561 0.0469,-1.17186 0.14062,-1.96875 0.65625,-5.53123 1.00781,-10.0781 1.05469,-13.64062 0.0937,-2.2031 0.25781,-3.49216 0.49219,-3.86719 0.18749,-0.3281 0.53905,-0.49216 1.05469,-0.49219 0.42186,3e-5 0.76171,0.15237 1.01953,0.45704 0.2578,0.30471 0.43358,0.87893 0.52734,1.72265 0.51562,5.76564 3.18749,10.92189 8.01563,15.46875 4.78122,4.54688 10.19528,6.82032 16.24218,6.82031 3.70309,10e-6 7.11324,-0.77343 10.23047,-2.32031 3.11714,-1.54687 5.55464,-3.78515 7.3125,-6.71484 1.75776,-2.92968 2.63667,-5.77733 2.63672,-8.54297 -5e-5,-3.79685 -1.33599,-7.2656 -4.00781,-10.40625 -2.67192,-3.14059 -8.03911,-6.80856 -16.10156,-11.00391 -8.06253,-4.19527 -13.31252,-7.25386 -15.75,-9.17578 -3.93752,-3.14057 -6.89064,-6.46869 -8.85938,-9.98437 -1.45313,-2.71869 -2.17969,-5.88275 -2.17969,-9.49219 0,-6.51555 2.57812,-12.03508 7.73438,-16.55859 5.15623,-4.52335 12.07028,-6.78507 20.74219,-6.78516 4.78121,9e-5 8.9062,0.53915 12.375,1.61719 2.5312,0.84384 5.13276,2.22665 7.80468,4.14843 z"
         style="font-size:144px;font-variant:normal;font-stretch:normal;text-align:center;line-height:125%;writing-mode:lr-tb;text-anchor:middle;font-family:Garamond;-inkscape-font-specification:Garamond"
         id="path3982" />
      <path
         d="m 410.31851,471.27603 c 1.45312,-0.98437 4.07812,-1.6875 7.875,-2.10937 2.95312,-0.14062 4.71093,-0.39844 5.27344,-0.77344 0.37498,-0.28125 0.65623,-0.63281 0.84375,-1.05469 0.70311,-1.73437 1.21873,-6.4453 1.54687,-14.13281 0.42186,-9.98435 1.10155,-23.2734 2.03907,-39.86719 0.74998,-12.65618 1.12498,-20.55461 1.125,-23.69531 l 0,-1.82813 c -3.37502,-0.70304 -8.71876,-1.45303 -16.03125,-2.25 -0.46876,-0.70303 -0.70313,-1.24209 -0.70313,-1.61718 0,-0.23429 0.16406,-0.65616 0.49219,-1.26563 0.79687,-0.28116 1.40624,-0.42178 1.82812,-0.42187 0.375,9e-5 1.19531,0.0938 2.46094,0.28125 2.29687,0.32821 5.46093,0.49227 9.49219,0.49218 1.31248,9e-5 3.56248,-0.0937 6.75,-0.28125 2.24997,-0.14053 3.5156,-0.21084 3.79687,-0.21093 0.74998,9e-5 1.61716,0.11727 2.60157,0.35156 0.46872,0.46884 0.82028,0.91415 1.05468,1.33594 l 2.95313,6.60937 19.89844,44.01563 8.22656,18.49218 c 6.51556,-12.89059 11.57805,-24.35151 15.1875,-34.38281 0.2343,-0.74994 0.51555,-1.42963 0.84375,-2.03906 0.4218,-0.79682 0.82023,-1.68744 1.19531,-2.67188 0.37492,-0.98431 1.89836,-4.73431 4.57031,-11.25 1.07804,-2.62492 1.94523,-4.87492 2.60157,-6.75 2.67178,-7.49991 4.24209,-11.78897 4.71093,-12.86718 0.89054,-0.32804 1.66397,-0.4921 2.32032,-0.49219 0.7499,9e-5 1.71084,0.047 2.88281,0.14062 2.6249,0.14072 6.89052,0.21103 12.79687,0.21094 3.65614,9e-5 6.65614,-0.0468 9,-0.14062 0.0936,0.51571 0.14051,0.89071 0.14063,1.125 -1.2e-4,0.32821 -0.0704,0.77352 -0.21094,1.33593 -1.50012,0.79697 -3.3048,1.24228 -5.41406,1.33594 -4.17198,0.23446 -6.82042,0.56259 -7.94531,0.98438 -1.12511,0.42196 -1.83995,0.96102 -2.14453,1.61718 -0.30479,0.65634 -0.57433,2.81258 -0.8086,6.46875 l 0.0703,3.23438 -0.0703,3.375 c -1e-4,7.03131 0.1874,18.8438 0.5625,35.4375 l -0.0703,13.78125 0.0703,8.85937 c -10e-5,3.46876 0.16396,5.51954 0.49219,6.15235 0.32802,0.63282 1.26552,1.23047 2.8125,1.79297 2.53114,0.84375 6.65614,1.71094 12.375,2.60156 0.32801,0.23438 0.49207,0.53906 0.49219,0.91406 -1.2e-4,0.42188 -0.0236,0.89063 -0.0703,1.40625 l -3.23437,0 c -2.76574,0 -5.76574,-0.082 -9,-0.24609 -3.23448,-0.16406 -4.96885,-0.2461 -5.20313,-0.2461 -9.60946,0 -15.98446,0.0937 -19.125,0.28125 -1.92195,0.14063 -3.1407,0.21094 -3.65625,0.21094 -0.3282,0 -0.67976,-0.0937 -1.05468,-0.28125 l 0,-0.91406 c -8e-5,-0.42188 0.0702,-0.86719 0.21093,-1.33594 1.5468,-0.65625 3.65617,-1.10156 6.32813,-1.33594 2.95304,-0.79687 5.10929,-1.64062 6.46875,-2.53125 0.42178,-1.78124 0.63272,-5.41405 0.63281,-10.89843 l -0.21094,-14.20313 c -9e-5,-1.54684 0.0819,-4.42965 0.2461,-8.64844 0.16397,-4.2187 0.246,-11.08588 0.24609,-20.60156 -9e-5,-7.54681 -0.18759,-13.26555 -0.5625,-17.15625 -0.79696,1.6407 -2.36727,5.2032 -4.71094,10.6875 l -1.05468,2.67188 -0.14063,0.42187 -10.40625,24.60938 -3.72656,9.49218 -4.85156,11.53125 c -2.10944,5.29689 -3.91413,9.98439 -5.41407,14.0625 -0.65631,1.87501 -1.19537,3.35157 -1.61718,4.42969 l -1.61719,-0.0703 c -5.29693,-15.46874 -11.61333,-31.33591 -18.94922,-47.60156 -7.33597,-16.26557 -12.48049,-26.99993 -15.43359,-32.20313 -0.37503,2.0157 -0.7969,7.87507 -1.26563,17.57813 -0.60939,11.81255 -0.91408,24.82035 -0.91406,39.02343 -2e-5,4.45315 0.3281,9.46877 0.98437,15.04688 0.18748,1.59375 0.86717,2.77735 2.03907,3.55078 1.17185,0.77344 4.19528,1.20703 9.07031,1.30078 1.87496,0 3.65621,0.14063 5.34375,0.42188 0.32809,0.70312 0.49215,1.21875 0.49219,1.54687 -4e-5,0.23438 -0.11723,0.63281 -0.35157,1.19531 l -21.86718,-0.77343 c -1.59377,0 -4.07814,0.11718 -7.45313,0.35156 -1.87501,0.14062 -4.57032,0.23437 -8.08594,0.28125 z"
         style="font-size:144px;font-variant:normal;font-stretch:normal;text-align:center;line-height:125%;writing-mode:lr-tb;text-anchor:middle;font-family:Garamond;-inkscape-font-specification:Garamond"
         id="path3984" />
      <path
         d="m 530.41226,471.27603 c 1.45312,-0.98437 4.07812,-1.6875 7.875,-2.10937 2.95312,-0.14062 4.71093,-0.39844 5.27344,-0.77344 0.37498,-0.28125 0.65623,-0.63281 0.84375,-1.05469 0.70311,-1.73437 1.21873,-6.4453 1.54687,-14.13281 0.42186,-9.98435 1.10155,-23.2734 2.03907,-39.86719 0.74998,-12.65618 1.12498,-20.55461 1.125,-23.69531 l 0,-1.82813 c -3.37502,-0.70304 -8.71876,-1.45303 -16.03125,-2.25 -0.46876,-0.70303 -0.70313,-1.24209 -0.70313,-1.61718 0,-0.23429 0.16406,-0.65616 0.49219,-1.26563 0.79687,-0.28116 1.40624,-0.42178 1.82812,-0.42187 0.375,9e-5 1.19531,0.0938 2.46094,0.28125 2.29687,0.32821 5.46093,0.49227 9.49219,0.49218 1.31248,9e-5 3.56248,-0.0937 6.75,-0.28125 2.24997,-0.14053 3.5156,-0.21084 3.79687,-0.21093 0.74998,9e-5 1.61716,0.11727 2.60157,0.35156 0.46872,0.46884 0.82028,0.91415 1.05468,1.33594 l 2.95313,6.60937 19.89844,44.01563 8.22656,18.49218 c 6.51556,-12.89059 11.57805,-24.35151 15.1875,-34.38281 0.2343,-0.74994 0.51555,-1.42963 0.84375,-2.03906 0.4218,-0.79682 0.82023,-1.68744 1.19531,-2.67188 0.37492,-0.98431 1.89836,-4.73431 4.57031,-11.25 1.07804,-2.62492 1.94523,-4.87492 2.60157,-6.75 2.67178,-7.49991 4.24209,-11.78897 4.71093,-12.86718 0.89054,-0.32804 1.66397,-0.4921 2.32032,-0.49219 0.7499,9e-5 1.71084,0.047 2.88281,0.14062 2.6249,0.14072 6.89052,0.21103 12.79687,0.21094 3.65614,9e-5 6.65614,-0.0468 9,-0.14062 0.0936,0.51571 0.14051,0.89071 0.14063,1.125 -1.2e-4,0.32821 -0.0704,0.77352 -0.21094,1.33593 -1.50012,0.79697 -3.3048,1.24228 -5.41406,1.33594 -4.17198,0.23446 -6.82042,0.56259 -7.94531,0.98438 -1.12511,0.42196 -1.83995,0.96102 -2.14453,1.61718 -0.30479,0.65634 -0.57433,2.81258 -0.8086,6.46875 l 0.0703,3.23438 -0.0703,3.375 c -10e-5,7.03131 0.1874,18.8438 0.5625,35.4375 l -0.0703,13.78125 0.0703,8.85937 c -10e-5,3.46876 0.16396,5.51954 0.49219,6.15235 0.32802,0.63282 1.26552,1.23047 2.8125,1.79297 2.53114,0.84375 6.65614,1.71094 12.375,2.60156 0.32801,0.23438 0.49207,0.53906 0.49219,0.91406 -1.2e-4,0.42188 -0.0236,0.89063 -0.0703,1.40625 l -3.23437,0 c -2.76574,0 -5.76574,-0.082 -9,-0.24609 -3.23448,-0.16406 -4.96885,-0.2461 -5.20313,-0.2461 -9.60946,0 -15.98446,0.0937 -19.125,0.28125 -1.92195,0.14063 -3.1407,0.21094 -3.65625,0.21094 -0.3282,0 -0.67976,-0.0937 -1.05468,-0.28125 l 0,-0.91406 c -8e-5,-0.42188 0.0702,-0.86719 0.21093,-1.33594 1.5468,-0.65625 3.65617,-1.10156 6.32813,-1.33594 2.95304,-0.79687 5.10929,-1.64062 6.46875,-2.53125 0.42178,-1.78124 0.63272,-5.41405 0.63281,-10.89843 l -0.21094,-14.20313 c -9e-5,-1.54684 0.0819,-4.42965 0.2461,-8.64844 0.16397,-4.2187 0.246,-11.08588 0.24609,-20.60156 -9e-5,-7.54681 -0.18759,-13.26555 -0.5625,-17.15625 -0.79696,1.6407 -2.36727,5.2032 -4.71094,10.6875 l -1.05468,2.67188 -0.14063,0.42187 -10.40625,24.60938 -3.72656,9.49218 -4.85156,11.53125 c -2.10944,5.29689 -3.91413,9.98439 -5.41407,14.0625 -0.65631,1.87501 -1.19537,3.35157 -1.61718,4.42969 l -1.61719,-0.0703 c -5.29693,-15.46874 -11.61333,-31.33591 -18.94922,-47.60156 -7.33597,-16.26557 -12.48049,-26.99993 -15.43359,-32.20313 -0.37503,2.0157 -0.7969,7.87507 -1.26563,17.57813 -0.60939,11.81255 -0.91408,24.82035 -0.91406,39.02343 -2e-5,4.45315 0.3281,9.46877 0.98437,15.04688 0.18748,1.59375 0.86717,2.77735 2.03907,3.55078 1.17185,0.77344 4.19528,1.20703 9.07031,1.30078 1.87496,0 3.65621,0.14063 5.34375,0.42188 0.32809,0.70312 0.49215,1.21875 0.49219,1.54687 -4e-5,0.23438 -0.11723,0.63281 -0.35157,1.19531 l -21.86718,-0.77343 c -1.59377,0 -4.07814,0.11718 -7.45313,0.35156 -1.87501,0.14062 -4.57032,0.23437 -8.08594,0.28125 z"
         style="font-size:144px;font-variant:normal;font-stretch:normal;text-align:center;line-height:125%;writing-mode:lr-tb;text-anchor:middle;font-family:Garamond;-inkscape-font-specification:Garamond"
         id="path3986" />
      <path
         d="m 308.36539,563.10416 c 0.84374,-0.14054 1.3828,-0.21085 1.61718,-0.21094 1.59375,9e-5 4.21875,0.0938 7.875,0.28125 1.92186,0.047 3.23436,0.0704 3.9375,0.0703 1.03124,9e-5 3.21092,-0.0937 6.53907,-0.28125 l 11.95312,-0.70312 c 3.14059,-0.28116 6.79684,-0.42179 10.96875,-0.42188 7.35932,9e-5 13.21869,1.04306 17.57813,3.12891 4.3593,2.08602 7.72258,5.35555 10.08984,9.80859 2.36711,4.4532 3.5507,8.88288 3.55078,13.28906 -8e-5,7.35944 -2.5782,13.71099 -7.73437,19.05469 -5.15632,5.34379 -12.09381,8.01566 -20.8125,8.01563 -2.43755,3e-5 -4.47661,-0.24606 -6.11719,-0.73828 -1.64067,-0.49215 -3.51566,-1.44137 -5.625,-2.84766 -0.89066,-0.60933 -1.42972,-1.24215 -1.61719,-1.89844 0.18747,-0.32808 0.44528,-0.56245 0.77344,-0.70312 0.65621,4e-5 1.3359,0.14067 2.03906,0.42187 1.59371,0.56254 3.60934,0.84379 6.04688,0.84375 3.70307,4e-5 7.20698,-0.91402 10.51172,-2.74219 3.30463,-1.82807 5.80072,-4.42963 7.48828,-7.80468 1.68743,-3.37495 2.53118,-6.93744 2.53125,-10.6875 -7e-5,-3.65619 -0.89069,-7.20696 -2.67188,-10.65235 -1.78131,-3.44523 -4.12506,-6.19914 -7.03125,-8.26172 -1.64068,-1.17179 -4.16021,-2.15616 -7.55859,-2.95312 -3.39848,-0.79679 -6.0352,-1.19523 -7.91016,-1.19531 -5.81253,8e-5 -9.25784,0.42196 -10.33594,1.26562 l -0.0703,0.98438 0.28125,7.94531 -0.0703,1.40625 c -0.0938,1.2657 -0.14065,3.21101 -0.14063,5.83594 -2e-5,9.56256 0.1406,15.51568 0.42188,17.85937 l 0,3.9375 0.91406,32.13281 c -3e-5,0.46877 -0.0586,1.33596 -0.17578,2.60157 -0.11722,1.26563 -0.17581,2.36719 -0.17578,3.30468 -3e-5,2.25001 0.18747,3.96095 0.5625,5.13282 1.12497,0.32813 4.40621,1.10156 9.84375,2.32031 2.53121,0.60938 3.91402,0.96094 4.14844,1.05469 0.37495,0.14062 0.70308,0.44531 0.98437,0.91406 -0.18754,0.70312 -0.43364,1.16015 -0.73828,1.37109 -0.30473,0.21094 -0.90239,0.31641 -1.79297,0.31641 -0.56254,0 -1.87504,-0.11719 -3.9375,-0.35156 -4.03128,-0.42188 -7.19534,-0.63282 -9.49219,-0.63282 l -12.375,0.49219 -7.38281,-0.21094 c -0.46876,0 -1.82813,0.0469 -4.07812,0.14063 l -0.0703,-1.82813 9.14063,-1.75781 c 1.49998,-0.42187 2.41404,-0.84374 2.74219,-1.26562 0.46873,-0.65625 0.7031,-1.94531 0.70312,-3.86719 -2e-5,-0.42187 0.0234,-1.33593 0.0703,-2.74219 0.0469,-0.98436 0.0703,-2.34374 0.0703,-4.07812 -2e-5,-5.53123 -0.2344,-17.32028 -0.70313,-35.36719 -0.18752,-8.43744 -0.28127,-17.01556 -0.28125,-25.73438 l 0,-1.19531 c -2e-5,-3.37492 -0.51564,-5.50773 -1.54687,-6.39844 -1.73439,-1.54679 -6.07033,-2.81241 -13.00782,-3.79687 -0.23437,-0.51554 -0.35156,-0.93741 -0.35156,-1.26563 0,-0.37491 0.14062,-0.82022 0.42188,-1.33593 z"
         style="font-size:144px;font-variant:normal;font-stretch:normal;text-align:center;line-height:125%;writing-mode:lr-tb;text-anchor:middle;font-family:Garamond;-inkscape-font-specification:Garamond"
         id="path3988" />
      <path
         d="m 396.25601,566.47916 c -1e-5,-1.54679 0.59765,-2.88273 1.79297,-4.00782 1.1953,-1.1249 2.63671,-1.6874 4.32422,-1.6875 1.73436,10e-5 3.25779,0.63291 4.57031,1.89844 1.31248,1.26572 1.96873,2.62509 1.96875,4.07813 -2e-5,1.45321 -0.65627,2.8243 -1.96875,4.11328 -1.31252,1.28914 -2.83595,1.93367 -4.57031,1.93359 -1.73439,8e-5 -3.18751,-0.58586 -4.35938,-1.75781 -1.17188,-1.17179 -1.75782,-2.69523 -1.75781,-4.57031 z m -5.90625,36.42187 0.0703,-2.03906 c 3.04687,-0.89057 4.6875,-1.4062 4.92188,-1.54688 1.68749,-0.74994 3.45702,-1.89838 5.30859,-3.44531 1.85155,-1.54681 3.41014,-3.28119 4.67578,-5.20312 0.56248,-0.0937 1.0078,-0.14057 1.33594,-0.14063 l 0.84375,0.0703 c 0.18748,2.25006 0.28123,3.89069 0.28125,4.92188 -2e-5,0.23443 -0.0469,1.28912 -0.14062,3.16406 l 0,3.72656 0.0703,20.25 -0.21094,21.44532 c -0.0469,1.73438 0.23436,2.94141 0.84375,3.62109 0.60935,0.67969 2.41404,1.44141 5.41406,2.28516 1.87498,0.51562 3.28122,0.96094 4.21875,1.33593 0.1406,0.32813 0.21091,0.60938 0.21094,0.84375 -3e-5,0.28125 -0.11722,0.63282 -0.35156,1.05469 -1.82816,-0.0469 -4.1719,-0.16406 -7.03125,-0.35156 -3.89065,-0.32813 -6.46877,-0.49219 -7.73438,-0.49219 -0.60939,0 -4.35938,0.11719 -11.25,0.35156 -1.40625,0.0469 -2.76562,0.16407 -4.07812,0.35157 -0.23438,0 -0.60938,-0.0703 -1.125,-0.21094 -0.23438,-0.32813 -0.35156,-0.60938 -0.35156,-0.84375 0,-0.65625 0.44531,-1.17187 1.33593,-1.54688 0.1875,-0.0937 2.57813,-0.63281 7.17188,-1.61718 1.49999,-0.28125 2.48436,-0.75 2.95312,-1.40625 0.79687,-0.98437 1.1953,-2.55468 1.19532,-4.71094 0.0937,-3.60936 0.14061,-13.49998 0.14062,-29.67188 -1e-5,-3.23433 -0.14064,-5.24995 -0.42187,-6.04687 -0.23439,-0.56245 -0.85548,-1.20699 -1.86328,-1.93359 -1.00783,-0.72652 -3.15236,-1.4648 -6.4336,-2.21485 z"
         style="font-size:144px;font-variant:normal;font-stretch:normal;text-align:center;line-height:125%;writing-mode:lr-tb;text-anchor:middle;font-family:Garamond;-inkscape-font-specification:Garamond"
         id="path3990" />
      <path
         d="m 456.86539,651.48697 c 1.73437,-0.75 3.74999,-1.24219 6.04687,-1.47656 3.32812,-0.375 5.81249,-1.17187 7.45313,-2.39063 1.26561,-2.57812 1.89842,-9.14061 1.89843,-19.6875 l 0,-11.10937 0.14063,-6.67969 -0.14063,-4.92188 0.14063,-9.07031 -0.21094,-22.85156 c -2e-5,-2.57804 -0.37501,-4.26554 -1.125,-5.0625 -1.07814,-1.17179 -3.93751,-2.24991 -8.57812,-3.23438 -1.92188,-0.42178 -3.09376,-0.8085 -3.51563,-1.16015 -0.42188,-0.35148 -0.67969,-1.01944 -0.77344,-2.00391 1.07813,-0.23428 1.82812,-0.35147 2.25,-0.35156 l 4.99219,0 2.60156,-0.0703 c 1.73436,9e-5 3.65624,0.18759 5.76563,0.5625 4.31248,0.28134 8.74216,0.42196 13.28906,0.42187 1.31247,9e-5 3.18747,-0.0702 5.625,-0.21094 6.46871,-0.3749 11.10933,-0.5624 13.92188,-0.5625 5.67181,10e-5 11.02728,0.56259 16.0664,1.6875 5.03899,1.12509 10.23039,3.21103 15.57422,6.25782 3.32804,1.92195 6.73819,4.95711 10.23047,9.10547 3.49209,4.1485 6.14053,8.67194 7.94531,13.57031 1.80459,4.89849 2.70693,10.41802 2.70703,16.55859 -10e-5,5.48442 -0.99619,10.92191 -2.98828,16.3125 -1.99228,5.39065 -4.76962,10.06643 -8.33203,14.02735 -3.56259,3.96094 -7.17196,6.9375 -10.82812,8.92968 -3.65633,1.99219 -9.23445,3.71485 -16.73438,5.16797 -3.09381,0.5625 -8.64849,0.84375 -16.66406,0.84375 -5.29692,0 -9.60941,-0.16406 -12.9375,-0.49219 -1.31253,-0.1875 -2.71878,-0.28125 -4.21875,-0.28125 -0.23441,0 -0.49222,0.0234 -0.77344,0.0703 l -28.6875,0.49218 -0.14062,-0.5625 c -0.0937,-0.23437 -0.14063,-0.49218 -0.14063,-0.77343 z m 35.78906,-2.74219 c 3.56246,1.21875 7.17183,1.82813 10.82812,1.82813 4.73433,0 9.37495,-0.73828 13.92188,-2.21485 4.54681,-1.47655 8.56633,-3.56249 12.05859,-6.25781 3.49211,-2.6953 6.3632,-5.74217 8.61328,-9.14062 2.24992,-3.39842 3.84367,-6.45701 4.78125,-9.17579 1.31242,-3.98434 1.96866,-9.16402 1.96875,-15.53906 -9e-5,-6.0937 -1.28915,-12.28119 -3.86718,-18.5625 -1.78134,-4.35931 -4.91024,-8.53118 -9.38672,-12.51562 -4.47664,-3.9843 -9.76179,-6.90226 -15.85547,-8.75391 -6.0938,-1.85148 -12.67974,-2.77726 -19.75781,-2.77734 -4.87504,8e-5 -8.48441,0.53915 -10.82813,1.61718 -0.28128,0.28134 -0.56253,0.60946 -0.84375,0.98438 -0.28128,1.17196 -0.4219,2.25008 -0.42187,3.23437 -3e-5,0.60946 0.0234,1.33602 0.0703,2.17969 0.1406,5.43758 0.21091,9.79695 0.21094,13.07813 l -0.0703,15.96093 c -2e-5,23.43753 0.43357,36.48049 1.30079,39.12891 0.86715,2.64845 3.29293,4.95704 7.27734,6.92578 z"
         style="font-size:144px;font-variant:normal;font-stretch:normal;text-align:center;line-height:125%;writing-mode:lr-tb;text-anchor:middle;font-family:Garamond;-inkscape-font-specification:Garamond"
         id="path3992" />
      <path
         d="m 623.4357,643.33072 c 0.28119,0.60938 0.42182,1.0547 0.42187,1.33594 -5e-5,0.70313 -0.56255,1.94532 -1.6875,3.72656 -1.45317,2.34375 -3.07036,4.05469 -4.85156,5.13281 -1.12505,0.70313 -2.67192,1.05469 -4.64062,1.05469 -3.37505,0 -5.90629,-1.03125 -7.59375,-3.09375 -1.03129,-1.21875 -1.75785,-3.39843 -2.17969,-6.53906 l -7.875,5.48437 c -2.76565,1.59375 -4.87502,2.60156 -6.32813,3.02344 -2.34377,0.60937 -5.15626,0.91406 -8.4375,0.91406 -2.39063,0 -4.27735,-0.71484 -5.66015,-2.14453 -1.38282,-1.42969 -2.07423,-3.26953 -2.07422,-5.51953 -10e-6,-3.23437 1.98046,-7.10155 5.94141,-11.60156 3.96092,-4.49998 9.33982,-8.17967 16.13671,-11.03907 4.78122,-2.01559 7.71091,-3.30465 8.78907,-3.86718 0.0937,-1.54684 0.14058,-3.23434 0.14062,-5.0625 -4e-5,-5.95308 -0.83207,-9.98433 -2.49609,-12.09375 -1.6641,-2.10933 -4.043,-3.16401 -7.13672,-3.16407 -3.2344,6e-5 -6.25783,1.26568 -9.07031,3.79688 -1.73439,1.5938 -3.04689,4.59379 -3.9375,9 -0.28127,1.21879 -0.82033,2.53129 -1.61719,3.9375 -2.01564,1.31253 -3.63282,1.96878 -4.85156,1.96875 -1.03126,3e-5 -1.96876,-0.30465 -2.8125,-0.91406 -0.46876,-0.32809 -0.70313,-0.70309 -0.70313,-1.125 0,-1.21872 1.30078,-3.97262 3.90235,-8.26172 2.60155,-4.28902 5.88279,-7.49995 9.84375,-9.63281 3.96091,-2.13276 7.41794,-3.19917 10.37109,-3.19922 4.03122,5e-5 7.03121,0.36333 9,1.08984 1.96871,0.72662 3.70308,2.00396 5.20312,3.83203 1.49996,1.82818 2.41402,3.82036 2.74219,5.97656 0.18746,1.0313 0.28121,4.71098 0.28125,11.03907 l -0.21094,11.17968 0.0703,8.15625 c -5e-5,1.07814 -0.0235,1.99221 -0.0703,2.74219 -0.0469,1.35939 -0.0703,2.3672 -0.0703,3.02344 -4e-5,1.54688 0.44527,2.78907 1.33594,3.72656 0.89058,0.93751 1.94526,1.40626 3.16406,1.40625 1.7812,10e-6 3.30464,-0.89062 4.57031,-2.67187 l 0.84375,-1.125 c 0.23432,-0.14062 0.74995,-0.30468 1.54688,-0.49219 z m -20.67188,-2.03906 c 0.32809,-5.95311 0.49215,-10.14842 0.49219,-12.58594 -4e-5,-1.2656 -0.0703,-2.97654 -0.21094,-5.13281 -3.14065,1.12502 -6.46878,2.83596 -9.98437,5.13281 -3.51565,2.2969 -6.30471,4.94533 -8.36719,7.94531 -1.50001,2.15627 -2.25001,4.19533 -2.25,6.11719 -10e-6,1.82813 0.62108,3.35157 1.86328,4.57031 1.24217,1.21876 2.80076,1.82813 4.67578,1.82813 1.45311,0 3.21092,-0.51562 5.27344,-1.54688 2.71872,-1.35937 5.55466,-3.46874 8.50781,-6.32812 z"
         style="font-size:144px;font-variant:normal;font-stretch:normal;text-align:center;line-height:125%;writing-mode:lr-tb;text-anchor:middle;font-family:Garamond;-inkscape-font-specification:Garamond"
         id="path3994" />
      <path
         d="m 625.61539,597.48697 c 1.03125,-0.0937 1.89843,-0.14057 2.60156,-0.14063 l 3.375,0 4.57031,-0.14062 5.97656,0.21094 4.85157,-0.14063 c 2.5781,6e-5 4.89841,0.16412 6.96093,0.49219 0.18748,0.4688 0.28123,0.8438 0.28125,1.125 l -0.0703,0.5625 c -0.9844,0.4688 -2.50784,0.79693 -4.57031,0.98437 -2.90627,0.23443 -4.99221,0.75006 -6.25781,1.54688 l -0.14063,0.77344 c -2e-5,0.4688 0.18748,1.17192 0.5625,2.10937 0.23436,0.56255 0.53904,1.4063 0.91406,2.53125 1.03123,3.46879 3.25779,10.17191 6.67969,20.10938 2.48435,7.17189 4.78122,13.33595 6.89063,18.49218 1.31246,-2.81249 2.81246,-6.37498 4.5,-10.6875 l 5.97656,-16.66406 c 1.31245,-3.65621 2.32027,-7.31246 3.02344,-10.96875 0.2812,-1.45308 0.42182,-2.60151 0.42187,-3.44531 -5e-5,-0.70308 -0.30473,-1.35933 -0.91406,-1.96875 -0.60942,-0.60932 -1.82817,-1.12495 -3.65625,-1.54688 -3.32817,-0.84369 -5.13285,-1.37104 -5.41406,-1.58203 -0.28129,-0.21088 -0.44535,-0.66791 -0.49219,-1.37109 0.28121,-0.23432 0.60934,-0.42182 0.98437,-0.5625 l 4.35938,0 4.71094,0.0703 7.03125,-0.0703 4.5,0.0703 1.125,-0.0703 c 0.32806,5e-5 0.86712,0.0469 1.61718,0.14062 0.46869,0.23443 0.70307,0.60943 0.70313,1.125 -6e-5,0.46881 -0.211,0.89068 -0.63281,1.26563 l -1.40625,0.21094 c -2.71881,0.37505 -4.80475,1.07817 -6.25782,2.10937 -0.79692,0.56255 -1.47661,1.73443 -2.03906,3.51563 -0.18755,0.65629 -0.49224,1.50004 -0.91406,2.53125 -0.23443,0.56254 -0.57427,1.50004 -1.01953,2.8125 -0.44536,1.31254 -1.01958,2.85941 -1.72266,4.64062 l -0.84375,1.96875 -0.0703,0.35156 -11.95313,31.5 -8.71875,23.69532 c -0.56252,1.17185 -1.21877,2.62497 -1.96875,4.35937 -1.78127,3.3281 -2.83595,5.15622 -3.16406,5.48438 -1.40627,1.73434 -2.62502,2.95309 -3.65625,3.65625 l -3.58594,1.54687 c -0.70313,0.18747 -1.45313,0.28122 -2.25,0.28125 -2.10938,-3e-5 -3.65625,-0.45706 -4.64062,-1.37109 -0.98438,-0.9141 -1.47657,-2.168 -1.47656,-3.76172 -1e-5,-1.50003 0.72655,-2.8594 2.17968,-4.07813 0.46875,-0.14065 0.9375,-0.32815 1.40625,-0.5625 l 0.91407,-0.21093 c 4.17186,0.74997 6.77342,1.12497 7.80468,1.125 0.98436,-0.51565 1.71092,-1.12503 2.17969,-1.82813 2.29685,-3.42189 4.2656,-7.2422 5.90625,-11.46094 1.6406,-4.21876 2.46091,-7.05469 2.46094,-8.50781 -3e-5,-1.59375 -0.6094,-3.91406 -1.82813,-6.96094 l -7.80468,-20.67187 c -1.07815,-2.67185 -4.28908,-11.39059 -9.63282,-26.15625 -0.32813,-0.93745 -0.75,-1.64058 -1.26562,-2.10938 l -4.78125,-1.75781 -1.47656,-0.28125 c -0.79688,-0.32807 -1.19532,-0.79682 -1.19532,-1.40625 z"
         style="font-size:144px;font-variant:normal;font-stretch:normal;text-align:center;line-height:125%;writing-mode:lr-tb;text-anchor:middle;font-family:Garamond;-inkscape-font-specification:Garamond"
         id="path3996" />
    </g>
    <rect
       style="fill:none;stroke:#000000;stroke-width:5;stroke-miterlimit:4;stroke-opacity:1;stroke-dasharray:none"
       id="rect3998"
       width="711.1474"
       height="721.2489"
       x="145.46196"
       y="165.614" />
  </g>
</svg>
