<?xml version="1.0" encoding="UTF-8" standalone="no"?>
<!-- Created with Inkscape (http://www.inkscape.org/) -->

<svg
   xmlns:dc="http://purl.org/dc/elements/1.1/"
   xmlns:cc="http://creativecommons.org/ns#"
   xmlns:rdf="http://www.w3.org/1999/02/22-rdf-syntax-ns#"
   xmlns:svg="http://www.w3.org/2000/svg"
   xmlns="http://www.w3.org/2000/svg"
   xmlns:sodipodi="http://sodipodi.sourceforge.net/DTD/sodipodi-0.dtd"
   xmlns:inkscape="http://www.inkscape.org/namespaces/inkscape"
   width="3200"
   height="1000"
   id="svg10075"
   sodipodi:version="0.32"
   inkscape:version="0.47 r22583"
   sodipodi:docname="Spirals.svg"
   inkscape:output_extension="org.inkscape.output.svg.inkscape"
   version="1.0">
  <sodipodi:namedview
     id="base"
     pagecolor="#ffffff"
     bordercolor="#666666"
     borderopacity="1.0"
     inkscape:pageopacity="0.0"
     inkscape:pageshadow="2"
     inkscape:zoom="0.090377085"
     inkscape:cx="5386.2472"
     inkscape:cy="1817.9944"
     inkscape:document-units="px"
     inkscape:current-layer="layer1"
     showgrid="false"
     inkscape:window-width="1280"
     inkscape:window-height="774"
     inkscape:window-x="-4"
     inkscape:window-y="-4"
     inkscape:window-maximized="1" />
  <defs
     id="defs10077">
    <inkscape:perspective
       id="perspective10083"
       inkscape:persp3d-origin="372.04724 : 350.78739 : 1"
       inkscape:vp_z="744.09448 : 526.18109 : 1"
       inkscape:vp_y="0 : 1000 : 0"
       inkscape:vp_x="0 : 526.18109 : 1"
       sodipodi:type="inkscape:persp3d" />
  </defs>
  <metadata
     id="metadata10080">
    <rdf:RDF>
      <cc:Work
         rdf:about="">
        <dc:format>image/svg+xml</dc:format>
        <dc:type
           rdf:resource="http://purl.org/dc/dcmitype/StillImage" />
        <dc:title />
      </cc:Work>
    </rdf:RDF>
  </metadata>
  <g
     id="layer1"
     inkscape:groupmode="layer"
     inkscape:label="Layer 1">
    <path
       inkscape:tile-y0="59.196799"
       inkscape:tile-x0="7.8347791"
       inkscape:tile-h="861.21201"
       inkscape:tile-w="875.9906"
       inkscape:tile-cy="489.8028"
       inkscape:tile-cx="445.83008"
       transform="matrix(2.8051286,0,0,2.8051286,-376.30809,-802.6822)"
       d="m 302.70238,460.37857 c 2.79496,7.21972 -1.58806,15.20613 -8.65612,17.76364 -8.60453,3.11347 -18.00386,-2.12772 -20.90919,-10.5706 -3.43674,-9.98719 2.6665,-20.80476 12.48508,-24.05472 11.36859,-3.76302 23.60777,3.20469 27.20027,14.39955 4.09129,12.74919 -3.74249,26.41224 -16.31403,30.34581 -14.12926,4.42097 -29.21777,-4.27999 -33.49135,-18.22851 -4.75167,-15.50895 4.81728,-32.02409 20.14298,-36.63689 16.88837,-5.08314 34.83102,5.35441 39.78244,22.05745 5.4152,18.26759 -5.89142,37.63843 -23.97194,42.92798 -19.64663,5.74773 -40.44621,-6.42831 -46.07352,-25.8864 -6.08062,-21.02556 6.96514,-43.25431 27.80088,-49.21907 22.40439,-6.41381 46.06267,7.5019 52.36461,29.71536 6.74726,23.78314 -8.0386,48.87122 -31.62983,55.51015 -25.16182,7.08091 -51.67996,-8.57526 -58.65569,-33.54431 -7.41474,-26.54043 9.11188,-54.48885 35.45878,-61.80123 27.91901,-7.74871 57.29787,9.64847 64.94678,37.37326 8.08281,29.29755 -10.18504,60.107 -39.28774,68.09232 -30.67605,8.41702 -62.91623,-10.72158 -71.23786,-41.20221 -8.75132,-32.05453 11.25809,-65.72555 43.11668,-74.38341 33.43298,-9.08571 68.53494,11.79459 77.52895,45.03116 9.42018,34.8114 -12.33107,71.34439 -46.94563,80.67449 -36.18981,9.7547 -74.1539,-12.86754 -83.82003,-48.86011 -10.08929,-37.56819 13.40399,-76.96346 50.77458,-86.96557 38.94656,-10.42392 79.77307,13.94044 90.11112,52.68906 10.7586,40.32492 -14.47688,82.58272 -54.60354,93.25666 -41.70327,11.09332 -85.39242,-15.0133 -96.4022,-56.51801 -11.42808,-43.08161 15.54971,-88.20215 58.43249,-99.54775 44.45992,-11.76287 91.0119,16.08612 102.69328,60.34696 12.0977,45.83824 -16.62252,93.82169 -62.26143,105.83883 -47.21655,12.43255 -96.6315,-17.15892 -108.98438,-64.17591 -12.76742,-48.59485 17.69532,-99.44133 66.09039,-112.12991 49.97314,-13.10233 102.25119,18.23169 115.27546,68.00486 13.43725,51.35142 -18.76808,105.06107 -69.91934,118.421 -52.72971,13.77219 -107.87097,-19.30446 -121.56654,-71.83381 -14.10716,-54.10799 19.84082,-110.68089 73.74829,-124.71209 55.48625,-14.44214 113.49081,20.37719 127.85762,75.66276 14.77713,56.86452 -20.91355,116.30076 -77.57723,131.00317 -58.24278,15.11214 -119.11072,-21.44992 -134.14872,-79.49171 -15.44716,-59.62103 21.98628,-121.92069 81.40619,-137.29426 60.99929,-15.78219 124.73067,22.52264 140.4398,83.32067 16.11724,62.37754 -23.05899,127.54067 -85.23514,143.58534 -63.75578,16.4523 -130.35067,-23.59534 -146.73088,-87.14961 -16.78737,-65.13403 24.13169,-133.16069 89.06409,-149.87643 66.51227,-17.12245 135.97071,24.66803 153.02197,90.97856 17.45753,67.89051 -25.20438,138.78075 -92.89304,156.16752 -69.26875,17.79263 -141.59079,-25.74073 -159.31306,-94.80752 -18.12774,-70.64698 26.27706,-144.40084 96.72199,-162.4586 72.02521,-18.46284 147.2109,26.8134 165.60414,98.63647 C 442.94078,504.2364 396.79307,580.85392 323.59187,599.58264 248.8102,618.71573 170.76084,571.69657 151.69665,497.11722 132.22842,420.95733 180.11905,341.47612 256.07654,322.07646 333.61465,302.2731 414.52772,351.0352 434.26285,428.37082 454.40135,507.28716 404.76777,589.6321 326.054,609.70268 245.75945,630.17633 161.98264,579.67127 141.57661,499.57936 120.7678,417.90658 172.14434,332.6979 253.6144,311.95642 c 83.051,-21.14397 169.69157,31.10406 190.76848,113.95227 3.06463,12.04628 4.70445,24.45081 4.87889,36.87949"
       sodipodi:t0="0.079401903"
       sodipodi:argument="-95.810501"
       sodipodi:radius="158.81306"
       sodipodi:revolution="15.248142"
       sodipodi:expansion="1"
       sodipodi:cy="463.35956"
       sodipodi:cx="290.44974"
       id="path8913"
       style="fill:none;stroke:#000000;stroke-width:1px;stroke-linecap:butt;stroke-linejoin:miter;stroke-opacity:1"
       sodipodi:type="spiral" />
    <path
       sodipodi:type="spiral"
       style="fill:none;stroke:#000000;stroke-width:1px;stroke-linecap:butt;stroke-linejoin:miter;stroke-opacity:1"
       id="use9001"
       sodipodi:cx="290.44974"
       sodipodi:cy="463.35956"
       sodipodi:expansion="1"
       sodipodi:revolution="15.248142"
       sodipodi:radius="158.81306"
       sodipodi:argument="-95.810501"
       sodipodi:t0="0.079401903"
       d="m 302.70238,460.37857 c 2.79496,7.21972 -1.58806,15.20613 -8.65612,17.76364 -8.60453,3.11347 -18.00386,-2.12772 -20.90919,-10.5706 -3.43674,-9.98719 2.6665,-20.80476 12.48508,-24.05472 11.36859,-3.76302 23.60777,3.20469 27.20027,14.39955 4.09129,12.74919 -3.74249,26.41224 -16.31403,30.34581 -14.12926,4.42097 -29.21777,-4.27999 -33.49135,-18.22851 -4.75167,-15.50895 4.81728,-32.02409 20.14298,-36.63689 16.88837,-5.08314 34.83102,5.35441 39.78244,22.05745 5.4152,18.26759 -5.89142,37.63843 -23.97194,42.92798 -19.64663,5.74773 -40.44621,-6.42831 -46.07352,-25.8864 -6.08062,-21.02556 6.96514,-43.25431 27.80088,-49.21907 22.40439,-6.41381 46.06267,7.5019 52.36461,29.71536 6.74726,23.78314 -8.0386,48.87122 -31.62983,55.51015 -25.16182,7.08091 -51.67996,-8.57526 -58.65569,-33.54431 -7.41474,-26.54043 9.11188,-54.48885 35.45878,-61.80123 27.91901,-7.74871 57.29787,9.64847 64.94678,37.37326 8.08281,29.29755 -10.18504,60.107 -39.28774,68.09232 -30.67605,8.41702 -62.91623,-10.72158 -71.23786,-41.20221 -8.75132,-32.05453 11.25809,-65.72555 43.11668,-74.38341 33.43298,-9.08571 68.53494,11.79459 77.52895,45.03116 9.42018,34.8114 -12.33107,71.34439 -46.94563,80.67449 -36.18981,9.7547 -74.1539,-12.86754 -83.82003,-48.86011 -10.08929,-37.56819 13.40399,-76.96346 50.77458,-86.96557 38.94656,-10.42392 79.77307,13.94044 90.11112,52.68906 10.7586,40.32492 -14.47688,82.58272 -54.60354,93.25666 -41.70327,11.09332 -85.39242,-15.0133 -96.4022,-56.51801 -11.42808,-43.08161 15.54971,-88.20215 58.43249,-99.54775 44.45992,-11.76287 91.0119,16.08612 102.69328,60.34696 12.0977,45.83824 -16.62252,93.82169 -62.26143,105.83883 -47.21655,12.43255 -96.6315,-17.15892 -108.98438,-64.17591 -12.76742,-48.59485 17.69532,-99.44133 66.09039,-112.12991 49.97314,-13.10233 102.25119,18.23169 115.27546,68.00486 13.43725,51.35142 -18.76808,105.06107 -69.91934,118.421 -52.72971,13.77219 -107.87097,-19.30446 -121.56654,-71.83381 -14.10716,-54.10799 19.84082,-110.68089 73.74829,-124.71209 55.48625,-14.44214 113.49081,20.37719 127.85762,75.66276 14.77713,56.86452 -20.91355,116.30076 -77.57723,131.00317 -58.24278,15.11214 -119.11072,-21.44992 -134.14872,-79.49171 -15.44716,-59.62103 21.98628,-121.92069 81.40619,-137.29426 60.99929,-15.78219 124.73067,22.52264 140.4398,83.32067 16.11724,62.37754 -23.05899,127.54067 -85.23514,143.58534 -63.75578,16.4523 -130.35067,-23.59534 -146.73088,-87.14961 -16.78737,-65.13403 24.13169,-133.16069 89.06409,-149.87643 66.51227,-17.12245 135.97071,24.66803 153.02197,90.97856 17.45753,67.89051 -25.20438,138.78075 -92.89304,156.16752 -69.26875,17.79263 -141.59079,-25.74073 -159.31306,-94.80752 -18.12774,-70.64698 26.27706,-144.40084 96.72199,-162.4586 72.02521,-18.46284 147.2109,26.8134 165.60414,98.63647 C 442.94078,504.2364 396.79307,580.85392 323.59187,599.58264 248.8102,618.71573 170.76084,571.69657 151.69665,497.11722 132.22842,420.95733 180.11905,341.47612 256.07654,322.07646 333.61465,302.2731 414.52772,351.0352 434.26285,428.37082 454.40135,507.28716 404.76777,589.6321 326.054,609.70268 245.75945,630.17633 161.98264,579.67127 141.57661,499.57936 120.7678,417.90658 172.14434,332.6979 253.6144,311.95642 c 83.051,-21.14397 169.69157,31.10406 190.76848,113.95227 3.06463,12.04628 4.70445,24.45081 4.87889,36.87949"
       transform="matrix(2.8051286,0,0,2.8051286,-69.96182,-802.6822)"
       inkscape:tile-x0="7.8347791"
       inkscape:tile-y0="59.196799" />
    <path
       sodipodi:type="spiral"
       style="fill:none;stroke:#000000;stroke-width:1px;stroke-linecap:butt;stroke-linejoin:miter;stroke-opacity:1"
       id="use9003"
       sodipodi:cx="290.44974"
       sodipodi:cy="463.35956"
       sodipodi:expansion="1"
       sodipodi:revolution="15.248142"
       sodipodi:radius="158.81306"
       sodipodi:argument="-95.810501"
       sodipodi:t0="0.079401903"
       d="m 302.70238,460.37857 c 2.79496,7.21972 -1.58806,15.20613 -8.65612,17.76364 -8.60453,3.11347 -18.00386,-2.12772 -20.90919,-10.5706 -3.43674,-9.98719 2.6665,-20.80476 12.48508,-24.05472 11.36859,-3.76302 23.60777,3.20469 27.20027,14.39955 4.09129,12.74919 -3.74249,26.41224 -16.31403,30.34581 -14.12926,4.42097 -29.21777,-4.27999 -33.49135,-18.22851 -4.75167,-15.50895 4.81728,-32.02409 20.14298,-36.63689 16.88837,-5.08314 34.83102,5.35441 39.78244,22.05745 5.4152,18.26759 -5.89142,37.63843 -23.97194,42.92798 -19.64663,5.74773 -40.44621,-6.42831 -46.07352,-25.8864 -6.08062,-21.02556 6.96514,-43.25431 27.80088,-49.21907 22.40439,-6.41381 46.06267,7.5019 52.36461,29.71536 6.74726,23.78314 -8.0386,48.87122 -31.62983,55.51015 -25.16182,7.08091 -51.67996,-8.57526 -58.65569,-33.54431 -7.41474,-26.54043 9.11188,-54.48885 35.45878,-61.80123 27.91901,-7.74871 57.29787,9.64847 64.94678,37.37326 8.08281,29.29755 -10.18504,60.107 -39.28774,68.09232 -30.67605,8.41702 -62.91623,-10.72158 -71.23786,-41.20221 -8.75132,-32.05453 11.25809,-65.72555 43.11668,-74.38341 33.43298,-9.08571 68.53494,11.79459 77.52895,45.03116 9.42018,34.8114 -12.33107,71.34439 -46.94563,80.67449 -36.18981,9.7547 -74.1539,-12.86754 -83.82003,-48.86011 -10.08929,-37.56819 13.40399,-76.96346 50.77458,-86.96557 38.94656,-10.42392 79.77307,13.94044 90.11112,52.68906 10.7586,40.32492 -14.47688,82.58272 -54.60354,93.25666 -41.70327,11.09332 -85.39242,-15.0133 -96.4022,-56.51801 -11.42808,-43.08161 15.54971,-88.20215 58.43249,-99.54775 44.45992,-11.76287 91.0119,16.08612 102.69328,60.34696 12.0977,45.83824 -16.62252,93.82169 -62.26143,105.83883 -47.21655,12.43255 -96.6315,-17.15892 -108.98438,-64.17591 -12.76742,-48.59485 17.69532,-99.44133 66.09039,-112.12991 49.97314,-13.10233 102.25119,18.23169 115.27546,68.00486 13.43725,51.35142 -18.76808,105.06107 -69.91934,118.421 -52.72971,13.77219 -107.87097,-19.30446 -121.56654,-71.83381 -14.10716,-54.10799 19.84082,-110.68089 73.74829,-124.71209 55.48625,-14.44214 113.49081,20.37719 127.85762,75.66276 14.77713,56.86452 -20.91355,116.30076 -77.57723,131.00317 -58.24278,15.11214 -119.11072,-21.44992 -134.14872,-79.49171 -15.44716,-59.62103 21.98628,-121.92069 81.40619,-137.29426 60.99929,-15.78219 124.73067,22.52264 140.4398,83.32067 16.11724,62.37754 -23.05899,127.54067 -85.23514,143.58534 -63.75578,16.4523 -130.35067,-23.59534 -146.73088,-87.14961 -16.78737,-65.13403 24.13169,-133.16069 89.06409,-149.87643 66.51227,-17.12245 135.97071,24.66803 153.02197,90.97856 17.45753,67.89051 -25.20438,138.78075 -92.89304,156.16752 -69.26875,17.79263 -141.59079,-25.74073 -159.31306,-94.80752 -18.12774,-70.64698 26.27706,-144.40084 96.72199,-162.4586 72.02521,-18.46284 147.2109,26.8134 165.60414,98.63647 C 442.94078,504.2364 396.79307,580.85392 323.59187,599.58264 248.8102,618.71573 170.76084,571.69657 151.69665,497.11722 132.22842,420.95733 180.11905,341.47612 256.07654,322.07646 333.61465,302.2731 414.52772,351.0352 434.26285,428.37082 454.40135,507.28716 404.76777,589.6321 326.054,609.70268 245.75945,630.17633 161.98264,579.67127 141.57661,499.57936 120.7678,417.90658 172.14434,332.6979 253.6144,311.95642 c 83.051,-21.14397 169.69157,31.10406 190.76848,113.95227 3.06463,12.04628 4.70445,24.45081 4.87889,36.87949"
       transform="matrix(2.8051286,0,0,2.8051286,348.71068,-802.6822)"
       inkscape:tile-x0="7.8347791"
       inkscape:tile-y0="59.196799" />
    <path
       sodipodi:type="spiral"
       style="fill:none;stroke:#000000;stroke-width:1px;stroke-linecap:butt;stroke-linejoin:miter;stroke-opacity:1"
       id="use9005"
       sodipodi:cx="290.44974"
       sodipodi:cy="463.35956"
       sodipodi:expansion="1"
       sodipodi:revolution="15.248142"
       sodipodi:radius="158.81306"
       sodipodi:argument="-95.810501"
       sodipodi:t0="0.079401903"
       d="m 302.70238,460.37857 c 2.79496,7.21972 -1.58806,15.20613 -8.65612,17.76364 -8.60453,3.11347 -18.00386,-2.12772 -20.90919,-10.5706 -3.43674,-9.98719 2.6665,-20.80476 12.48508,-24.05472 11.36859,-3.76302 23.60777,3.20469 27.20027,14.39955 4.09129,12.74919 -3.74249,26.41224 -16.31403,30.34581 -14.12926,4.42097 -29.21777,-4.27999 -33.49135,-18.22851 -4.75167,-15.50895 4.81728,-32.02409 20.14298,-36.63689 16.88837,-5.08314 34.83102,5.35441 39.78244,22.05745 5.4152,18.26759 -5.89142,37.63843 -23.97194,42.92798 -19.64663,5.74773 -40.44621,-6.42831 -46.07352,-25.8864 -6.08062,-21.02556 6.96514,-43.25431 27.80088,-49.21907 22.40439,-6.41381 46.06267,7.5019 52.36461,29.71536 6.74726,23.78314 -8.0386,48.87122 -31.62983,55.51015 -25.16182,7.08091 -51.67996,-8.57526 -58.65569,-33.54431 -7.41474,-26.54043 9.11188,-54.48885 35.45878,-61.80123 27.91901,-7.74871 57.29787,9.64847 64.94678,37.37326 8.08281,29.29755 -10.18504,60.107 -39.28774,68.09232 -30.67605,8.41702 -62.91623,-10.72158 -71.23786,-41.20221 -8.75132,-32.05453 11.25809,-65.72555 43.11668,-74.38341 33.43298,-9.08571 68.53494,11.79459 77.52895,45.03116 9.42018,34.8114 -12.33107,71.34439 -46.94563,80.67449 -36.18981,9.7547 -74.1539,-12.86754 -83.82003,-48.86011 -10.08929,-37.56819 13.40399,-76.96346 50.77458,-86.96557 38.94656,-10.42392 79.77307,13.94044 90.11112,52.68906 10.7586,40.32492 -14.47688,82.58272 -54.60354,93.25666 -41.70327,11.09332 -85.39242,-15.0133 -96.4022,-56.51801 -11.42808,-43.08161 15.54971,-88.20215 58.43249,-99.54775 44.45992,-11.76287 91.0119,16.08612 102.69328,60.34696 12.0977,45.83824 -16.62252,93.82169 -62.26143,105.83883 -47.21655,12.43255 -96.6315,-17.15892 -108.98438,-64.17591 -12.76742,-48.59485 17.69532,-99.44133 66.09039,-112.12991 49.97314,-13.10233 102.25119,18.23169 115.27546,68.00486 13.43725,51.35142 -18.76808,105.06107 -69.91934,118.421 -52.72971,13.77219 -107.87097,-19.30446 -121.56654,-71.83381 -14.10716,-54.10799 19.84082,-110.68089 73.74829,-124.71209 55.48625,-14.44214 113.49081,20.37719 127.85762,75.66276 14.77713,56.86452 -20.91355,116.30076 -77.57723,131.00317 -58.24278,15.11214 -119.11072,-21.44992 -134.14872,-79.49171 -15.44716,-59.62103 21.98628,-121.92069 81.40619,-137.29426 60.99929,-15.78219 124.73067,22.52264 140.4398,83.32067 16.11724,62.37754 -23.05899,127.54067 -85.23514,143.58534 -63.75578,16.4523 -130.35067,-23.59534 -146.73088,-87.14961 -16.78737,-65.13403 24.13169,-133.16069 89.06409,-149.87643 66.51227,-17.12245 135.97071,24.66803 153.02197,90.97856 17.45753,67.89051 -25.20438,138.78075 -92.89304,156.16752 -69.26875,17.79263 -141.59079,-25.74073 -159.31306,-94.80752 -18.12774,-70.64698 26.27706,-144.40084 96.72199,-162.4586 72.02521,-18.46284 147.2109,26.8134 165.60414,98.63647 C 442.94078,504.2364 396.79307,580.85392 323.59187,599.58264 248.8102,618.71573 170.76084,571.69657 151.69665,497.11722 132.22842,420.95733 180.11905,341.47612 256.07654,322.07646 333.61465,302.2731 414.52772,351.0352 434.26285,428.37082 454.40135,507.28716 404.76777,589.6321 326.054,609.70268 245.75945,630.17633 161.98264,579.67127 141.57661,499.57936 120.7678,417.90658 172.14434,332.6979 253.6144,311.95642 c 83.051,-21.14397 169.69157,31.10406 190.76848,113.95227 3.06463,12.04628 4.70445,24.45081 4.87889,36.87949"
       transform="matrix(2.8051286,0,0,2.8051286,646.85971,-802.6822)"
       inkscape:tile-x0="7.8347791"
       inkscape:tile-y0="59.196799" />
    <path
       sodipodi:type="spiral"
       style="fill:none;stroke:#000000;stroke-width:1px;stroke-linecap:butt;stroke-linejoin:miter;stroke-opacity:1"
       id="use9007"
       sodipodi:cx="290.44974"
       sodipodi:cy="463.35956"
       sodipodi:expansion="1"
       sodipodi:revolution="15.248142"
       sodipodi:radius="158.81306"
       sodipodi:argument="-95.810501"
       sodipodi:t0="0.079401903"
       d="m 302.70238,460.37857 c 2.79496,7.21972 -1.58806,15.20613 -8.65612,17.76364 -8.60453,3.11347 -18.00386,-2.12772 -20.90919,-10.5706 -3.43674,-9.98719 2.6665,-20.80476 12.48508,-24.05472 11.36859,-3.76302 23.60777,3.20469 27.20027,14.39955 4.09129,12.74919 -3.74249,26.41224 -16.31403,30.34581 -14.12926,4.42097 -29.21777,-4.27999 -33.49135,-18.22851 -4.75167,-15.50895 4.81728,-32.02409 20.14298,-36.63689 16.88837,-5.08314 34.83102,5.35441 39.78244,22.05745 5.4152,18.26759 -5.89142,37.63843 -23.97194,42.92798 -19.64663,5.74773 -40.44621,-6.42831 -46.07352,-25.8864 -6.08062,-21.02556 6.96514,-43.25431 27.80088,-49.21907 22.40439,-6.41381 46.06267,7.5019 52.36461,29.71536 6.74726,23.78314 -8.0386,48.87122 -31.62983,55.51015 -25.16182,7.08091 -51.67996,-8.57526 -58.65569,-33.54431 -7.41474,-26.54043 9.11188,-54.48885 35.45878,-61.80123 27.91901,-7.74871 57.29787,9.64847 64.94678,37.37326 8.08281,29.29755 -10.18504,60.107 -39.28774,68.09232 -30.67605,8.41702 -62.91623,-10.72158 -71.23786,-41.20221 -8.75132,-32.05453 11.25809,-65.72555 43.11668,-74.38341 33.43298,-9.08571 68.53494,11.79459 77.52895,45.03116 9.42018,34.8114 -12.33107,71.34439 -46.94563,80.67449 -36.18981,9.7547 -74.1539,-12.86754 -83.82003,-48.86011 -10.08929,-37.56819 13.40399,-76.96346 50.77458,-86.96557 38.94656,-10.42392 79.77307,13.94044 90.11112,52.68906 10.7586,40.32492 -14.47688,82.58272 -54.60354,93.25666 -41.70327,11.09332 -85.39242,-15.0133 -96.4022,-56.51801 -11.42808,-43.08161 15.54971,-88.20215 58.43249,-99.54775 44.45992,-11.76287 91.0119,16.08612 102.69328,60.34696 12.0977,45.83824 -16.62252,93.82169 -62.26143,105.83883 -47.21655,12.43255 -96.6315,-17.15892 -108.98438,-64.17591 -12.76742,-48.59485 17.69532,-99.44133 66.09039,-112.12991 49.97314,-13.10233 102.25119,18.23169 115.27546,68.00486 13.43725,51.35142 -18.76808,105.06107 -69.91934,118.421 -52.72971,13.77219 -107.87097,-19.30446 -121.56654,-71.83381 -14.10716,-54.10799 19.84082,-110.68089 73.74829,-124.71209 55.48625,-14.44214 113.49081,20.37719 127.85762,75.66276 14.77713,56.86452 -20.91355,116.30076 -77.57723,131.00317 -58.24278,15.11214 -119.11072,-21.44992 -134.14872,-79.49171 -15.44716,-59.62103 21.98628,-121.92069 81.40619,-137.29426 60.99929,-15.78219 124.73067,22.52264 140.4398,83.32067 16.11724,62.37754 -23.05899,127.54067 -85.23514,143.58534 -63.75578,16.4523 -130.35067,-23.59534 -146.73088,-87.14961 -16.78737,-65.13403 24.13169,-133.16069 89.06409,-149.87643 66.51227,-17.12245 135.97071,24.66803 153.02197,90.97856 17.45753,67.89051 -25.20438,138.78075 -92.89304,156.16752 -69.26875,17.79263 -141.59079,-25.74073 -159.31306,-94.80752 -18.12774,-70.64698 26.27706,-144.40084 96.72199,-162.4586 72.02521,-18.46284 147.2109,26.8134 165.60414,98.63647 C 442.94078,504.2364 396.79307,580.85392 323.59187,599.58264 248.8102,618.71573 170.76084,571.69657 151.69665,497.11722 132.22842,420.95733 180.11905,341.47612 256.07654,322.07646 333.61465,302.2731 414.52772,351.0352 434.26285,428.37082 454.40135,507.28716 404.76777,589.6321 326.054,609.70268 245.75945,630.17633 161.98264,579.67127 141.57661,499.57936 120.7678,417.90658 172.14434,332.6979 253.6144,311.95642 c 83.051,-21.14397 169.69157,31.10406 190.76848,113.95227 3.06463,12.04628 4.70445,24.45081 4.87889,36.87949"
       transform="matrix(2.8051286,0,0,2.8051286,1153.5795,-802.6822)"
       inkscape:tile-x0="7.8347791"
       inkscape:tile-y0="59.196799" />
    <path
       sodipodi:type="spiral"
       style="fill:none;stroke:#000000;stroke-width:1px;stroke-linecap:butt;stroke-linejoin:miter;stroke-opacity:1"
       id="use9009"
       sodipodi:cx="290.44974"
       sodipodi:cy="463.35956"
       sodipodi:expansion="1"
       sodipodi:revolution="15.248142"
       sodipodi:radius="158.81306"
       sodipodi:argument="-95.810501"
       sodipodi:t0="0.079401903"
       d="m 302.70238,460.37857 c 2.79496,7.21972 -1.58806,15.20613 -8.65612,17.76364 -8.60453,3.11347 -18.00386,-2.12772 -20.90919,-10.5706 -3.43674,-9.98719 2.6665,-20.80476 12.48508,-24.05472 11.36859,-3.76302 23.60777,3.20469 27.20027,14.39955 4.09129,12.74919 -3.74249,26.41224 -16.31403,30.34581 -14.12926,4.42097 -29.21777,-4.27999 -33.49135,-18.22851 -4.75167,-15.50895 4.81728,-32.02409 20.14298,-36.63689 16.88837,-5.08314 34.83102,5.35441 39.78244,22.05745 5.4152,18.26759 -5.89142,37.63843 -23.97194,42.92798 -19.64663,5.74773 -40.44621,-6.42831 -46.07352,-25.8864 -6.08062,-21.02556 6.96514,-43.25431 27.80088,-49.21907 22.40439,-6.41381 46.06267,7.5019 52.36461,29.71536 6.74726,23.78314 -8.0386,48.87122 -31.62983,55.51015 -25.16182,7.08091 -51.67996,-8.57526 -58.65569,-33.54431 -7.41474,-26.54043 9.11188,-54.48885 35.45878,-61.80123 27.91901,-7.74871 57.29787,9.64847 64.94678,37.37326 8.08281,29.29755 -10.18504,60.107 -39.28774,68.09232 -30.67605,8.41702 -62.91623,-10.72158 -71.23786,-41.20221 -8.75132,-32.05453 11.25809,-65.72555 43.11668,-74.38341 33.43298,-9.08571 68.53494,11.79459 77.52895,45.03116 9.42018,34.8114 -12.33107,71.34439 -46.94563,80.67449 -36.18981,9.7547 -74.1539,-12.86754 -83.82003,-48.86011 -10.08929,-37.56819 13.40399,-76.96346 50.77458,-86.96557 38.94656,-10.42392 79.77307,13.94044 90.11112,52.68906 10.7586,40.32492 -14.47688,82.58272 -54.60354,93.25666 -41.70327,11.09332 -85.39242,-15.0133 -96.4022,-56.51801 -11.42808,-43.08161 15.54971,-88.20215 58.43249,-99.54775 44.45992,-11.76287 91.0119,16.08612 102.69328,60.34696 12.0977,45.83824 -16.62252,93.82169 -62.26143,105.83883 -47.21655,12.43255 -96.6315,-17.15892 -108.98438,-64.17591 -12.76742,-48.59485 17.69532,-99.44133 66.09039,-112.12991 49.97314,-13.10233 102.25119,18.23169 115.27546,68.00486 13.43725,51.35142 -18.76808,105.06107 -69.91934,118.421 -52.72971,13.77219 -107.87097,-19.30446 -121.56654,-71.83381 -14.10716,-54.10799 19.84082,-110.68089 73.74829,-124.71209 55.48625,-14.44214 113.49081,20.37719 127.85762,75.66276 14.77713,56.86452 -20.91355,116.30076 -77.57723,131.00317 -58.24278,15.11214 -119.11072,-21.44992 -134.14872,-79.49171 -15.44716,-59.62103 21.98628,-121.92069 81.40619,-137.29426 60.99929,-15.78219 124.73067,22.52264 140.4398,83.32067 16.11724,62.37754 -23.05899,127.54067 -85.23514,143.58534 -63.75578,16.4523 -130.35067,-23.59534 -146.73088,-87.14961 -16.78737,-65.13403 24.13169,-133.16069 89.06409,-149.87643 66.51227,-17.12245 135.97071,24.66803 153.02197,90.97856 17.45753,67.89051 -25.20438,138.78075 -92.89304,156.16752 -69.26875,17.79263 -141.59079,-25.74073 -159.31306,-94.80752 -18.12774,-70.64698 26.27706,-144.40084 96.72199,-162.4586 72.02521,-18.46284 147.2109,26.8134 165.60414,98.63647 C 442.94078,504.2364 396.79307,580.85392 323.59187,599.58264 248.8102,618.71573 170.76084,571.69657 151.69665,497.11722 132.22842,420.95733 180.11905,341.47612 256.07654,322.07646 333.61465,302.2731 414.52772,351.0352 434.26285,428.37082 454.40135,507.28716 404.76777,589.6321 326.054,609.70268 245.75945,630.17633 161.98264,579.67127 141.57661,499.57936 120.7678,417.90658 172.14434,332.6979 253.6144,311.95642 c 83.051,-21.14397 169.69157,31.10406 190.76848,113.95227 3.06463,12.04628 4.70445,24.45081 4.87889,36.87949"
       transform="matrix(2.8051286,0,0,2.8051286,1423.7985,-802.6822)"
       inkscape:tile-x0="7.8347791"
       inkscape:tile-y0="59.196799" />
    <path
       sodipodi:type="spiral"
       style="fill:none;stroke:#000000;stroke-width:1px;stroke-linecap:butt;stroke-linejoin:miter;stroke-opacity:1"
       id="use9011"
       sodipodi:cx="290.44974"
       sodipodi:cy="463.35956"
       sodipodi:expansion="1"
       sodipodi:revolution="15.248142"
       sodipodi:radius="158.81306"
       sodipodi:argument="-95.810501"
       sodipodi:t0="0.079401903"
       d="m 302.70238,460.37857 c 2.79496,7.21972 -1.58806,15.20613 -8.65612,17.76364 -8.60453,3.11347 -18.00386,-2.12772 -20.90919,-10.5706 -3.43674,-9.98719 2.6665,-20.80476 12.48508,-24.05472 11.36859,-3.76302 23.60777,3.20469 27.20027,14.39955 4.09129,12.74919 -3.74249,26.41224 -16.31403,30.34581 -14.12926,4.42097 -29.21777,-4.27999 -33.49135,-18.22851 -4.75167,-15.50895 4.81728,-32.02409 20.14298,-36.63689 16.88837,-5.08314 34.83102,5.35441 39.78244,22.05745 5.4152,18.26759 -5.89142,37.63843 -23.97194,42.92798 -19.64663,5.74773 -40.44621,-6.42831 -46.07352,-25.8864 -6.08062,-21.02556 6.96514,-43.25431 27.80088,-49.21907 22.40439,-6.41381 46.06267,7.5019 52.36461,29.71536 6.74726,23.78314 -8.0386,48.87122 -31.62983,55.51015 -25.16182,7.08091 -51.67996,-8.57526 -58.65569,-33.54431 -7.41474,-26.54043 9.11188,-54.48885 35.45878,-61.80123 27.91901,-7.74871 57.29787,9.64847 64.94678,37.37326 8.08281,29.29755 -10.18504,60.107 -39.28774,68.09232 -30.67605,8.41702 -62.91623,-10.72158 -71.23786,-41.20221 -8.75132,-32.05453 11.25809,-65.72555 43.11668,-74.38341 33.43298,-9.08571 68.53494,11.79459 77.52895,45.03116 9.42018,34.8114 -12.33107,71.34439 -46.94563,80.67449 -36.18981,9.7547 -74.1539,-12.86754 -83.82003,-48.86011 -10.08929,-37.56819 13.40399,-76.96346 50.77458,-86.96557 38.94656,-10.42392 79.77307,13.94044 90.11112,52.68906 10.7586,40.32492 -14.47688,82.58272 -54.60354,93.25666 -41.70327,11.09332 -85.39242,-15.0133 -96.4022,-56.51801 -11.42808,-43.08161 15.54971,-88.20215 58.43249,-99.54775 44.45992,-11.76287 91.0119,16.08612 102.69328,60.34696 12.0977,45.83824 -16.62252,93.82169 -62.26143,105.83883 -47.21655,12.43255 -96.6315,-17.15892 -108.98438,-64.17591 -12.76742,-48.59485 17.69532,-99.44133 66.09039,-112.12991 49.97314,-13.10233 102.25119,18.23169 115.27546,68.00486 13.43725,51.35142 -18.76808,105.06107 -69.91934,118.421 -52.72971,13.77219 -107.87097,-19.30446 -121.56654,-71.83381 -14.10716,-54.10799 19.84082,-110.68089 73.74829,-124.71209 55.48625,-14.44214 113.49081,20.37719 127.85762,75.66276 14.77713,56.86452 -20.91355,116.30076 -77.57723,131.00317 -58.24278,15.11214 -119.11072,-21.44992 -134.14872,-79.49171 -15.44716,-59.62103 21.98628,-121.92069 81.40619,-137.29426 60.99929,-15.78219 124.73067,22.52264 140.4398,83.32067 16.11724,62.37754 -23.05899,127.54067 -85.23514,143.58534 -63.75578,16.4523 -130.35067,-23.59534 -146.73088,-87.14961 -16.78737,-65.13403 24.13169,-133.16069 89.06409,-149.87643 66.51227,-17.12245 135.97071,24.66803 153.02197,90.97856 17.45753,67.89051 -25.20438,138.78075 -92.89304,156.16752 -69.26875,17.79263 -141.59079,-25.74073 -159.31306,-94.80752 -18.12774,-70.64698 26.27706,-144.40084 96.72199,-162.4586 72.02521,-18.46284 147.2109,26.8134 165.60414,98.63647 C 442.94078,504.2364 396.79307,580.85392 323.59187,599.58264 248.8102,618.71573 170.76084,571.69657 151.69665,497.11722 132.22842,420.95733 180.11905,341.47612 256.07654,322.07646 333.61465,302.2731 414.52772,351.0352 434.26285,428.37082 454.40135,507.28716 404.76777,589.6321 326.054,609.70268 245.75945,630.17633 161.98264,579.67127 141.57661,499.57936 120.7678,417.90658 172.14434,332.6979 253.6144,311.95642 c 83.051,-21.14397 169.69157,31.10406 190.76848,113.95227 3.06463,12.04628 4.70445,24.45081 4.87889,36.87949"
       transform="matrix(2.8051286,0,0,2.8051286,1823.6021,-802.6822)"
       inkscape:tile-x0="7.8347791"
       inkscape:tile-y0="59.196799" />
    <path
       sodipodi:type="spiral"
       style="fill:none;stroke:#000000;stroke-width:1px;stroke-linecap:butt;stroke-linejoin:miter;stroke-opacity:1"
       id="use9013"
       sodipodi:cx="290.44974"
       sodipodi:cy="463.35956"
       sodipodi:expansion="1"
       sodipodi:revolution="15.248142"
       sodipodi:radius="158.81306"
       sodipodi:argument="-95.810501"
       sodipodi:t0="0.079401903"
       d="m 302.70238,460.37857 c 2.79496,7.21972 -1.58806,15.20613 -8.65612,17.76364 -8.60453,3.11347 -18.00386,-2.12772 -20.90919,-10.5706 -3.43674,-9.98719 2.6665,-20.80476 12.48508,-24.05472 11.36859,-3.76302 23.60777,3.20469 27.20027,14.39955 4.09129,12.74919 -3.74249,26.41224 -16.31403,30.34581 -14.12926,4.42097 -29.21777,-4.27999 -33.49135,-18.22851 -4.75167,-15.50895 4.81728,-32.02409 20.14298,-36.63689 16.88837,-5.08314 34.83102,5.35441 39.78244,22.05745 5.4152,18.26759 -5.89142,37.63843 -23.97194,42.92798 -19.64663,5.74773 -40.44621,-6.42831 -46.07352,-25.8864 -6.08062,-21.02556 6.96514,-43.25431 27.80088,-49.21907 22.40439,-6.41381 46.06267,7.5019 52.36461,29.71536 6.74726,23.78314 -8.0386,48.87122 -31.62983,55.51015 -25.16182,7.08091 -51.67996,-8.57526 -58.65569,-33.54431 -7.41474,-26.54043 9.11188,-54.48885 35.45878,-61.80123 27.91901,-7.74871 57.29787,9.64847 64.94678,37.37326 8.08281,29.29755 -10.18504,60.107 -39.28774,68.09232 -30.67605,8.41702 -62.91623,-10.72158 -71.23786,-41.20221 -8.75132,-32.05453 11.25809,-65.72555 43.11668,-74.38341 33.43298,-9.08571 68.53494,11.79459 77.52895,45.03116 9.42018,34.8114 -12.33107,71.34439 -46.94563,80.67449 -36.18981,9.7547 -74.1539,-12.86754 -83.82003,-48.86011 -10.08929,-37.56819 13.40399,-76.96346 50.77458,-86.96557 38.94656,-10.42392 79.77307,13.94044 90.11112,52.68906 10.7586,40.32492 -14.47688,82.58272 -54.60354,93.25666 -41.70327,11.09332 -85.39242,-15.0133 -96.4022,-56.51801 -11.42808,-43.08161 15.54971,-88.20215 58.43249,-99.54775 44.45992,-11.76287 91.0119,16.08612 102.69328,60.34696 12.0977,45.83824 -16.62252,93.82169 -62.26143,105.83883 -47.21655,12.43255 -96.6315,-17.15892 -108.98438,-64.17591 -12.76742,-48.59485 17.69532,-99.44133 66.09039,-112.12991 49.97314,-13.10233 102.25119,18.23169 115.27546,68.00486 13.43725,51.35142 -18.76808,105.06107 -69.91934,118.421 -52.72971,13.77219 -107.87097,-19.30446 -121.56654,-71.83381 -14.10716,-54.10799 19.84082,-110.68089 73.74829,-124.71209 55.48625,-14.44214 113.49081,20.37719 127.85762,75.66276 14.77713,56.86452 -20.91355,116.30076 -77.57723,131.00317 -58.24278,15.11214 -119.11072,-21.44992 -134.14872,-79.49171 -15.44716,-59.62103 21.98628,-121.92069 81.40619,-137.29426 60.99929,-15.78219 124.73067,22.52264 140.4398,83.32067 16.11724,62.37754 -23.05899,127.54067 -85.23514,143.58534 -63.75578,16.4523 -130.35067,-23.59534 -146.73088,-87.14961 -16.78737,-65.13403 24.13169,-133.16069 89.06409,-149.87643 66.51227,-17.12245 135.97071,24.66803 153.02197,90.97856 17.45753,67.89051 -25.20438,138.78075 -92.89304,156.16752 -69.26875,17.79263 -141.59079,-25.74073 -159.31306,-94.80752 -18.12774,-70.64698 26.27706,-144.40084 96.72199,-162.4586 72.02521,-18.46284 147.2109,26.8134 165.60414,98.63647 C 442.94078,504.2364 396.79307,580.85392 323.59187,599.58264 248.8102,618.71573 170.76084,571.69657 151.69665,497.11722 132.22842,420.95733 180.11905,341.47612 256.07654,322.07646 333.61465,302.2731 414.52772,351.0352 434.26285,428.37082 454.40135,507.28716 404.76777,589.6321 326.054,609.70268 245.75945,630.17633 161.98264,579.67127 141.57661,499.57936 120.7678,417.90658 172.14434,332.6979 253.6144,311.95642 c 83.051,-21.14397 169.69157,31.10406 190.76848,113.95227 3.06463,12.04628 4.70445,24.45081 4.87889,36.87949"
       transform="matrix(2.8051286,0,0,2.8051286,2103.1654,-802.6822)"
       inkscape:tile-x0="7.8347791"
       inkscape:tile-y0="59.196799" />
  </g>
</svg>
