<?xml version="1.0"?>
<svg xmlns:rdf="http://www.w3.org/1999/02/22-rdf-syntax-ns#" xmlns="http://www.w3.org/2000/svg" xmlns:cc="http://creativecommons.org/ns#" xmlns:dc="http://purl.org/dc/elements/1.1/" id="svg2" viewBox="0 0 88.271 62.334" version="1.1">
  <g id="layer1" transform="translate(-288.15 -418.76)">
    <path id="rect2837" d="m329.57 420.79c-9.0409 0.13903-11.968 1.9314-12.419 7.2177-0.24734 2.8963 0.25902 3.8942 3.6235 7.1593 5.1328 4.9813 3.8949 4.8252-3.0683-0.4091-5.7663-4.3346-9.0641-5.7278-11.426-4.8216-1.8701 0.71764-3.9225 4.2379-4.5878 7.8606-0.26245 1.4294-0.75976 2.8345-0.75976 2.8345s1.6456 0.20455 2.9222 0.20455c1.8271 0 3.3538 0.80362 4.6755 2.4838 2.8795 3.6607 2.0441 4.5677-3.9157 4.2079-7.6824-0.46376-12.245 2.5906-13.442 8.971-1.6848 8.9806 10.234 18.088 27.673 21.127 8.9102 1.5528 19.291 1.9339 20.017 0.75976 0.26278-0.4252-1.6154-3.0551-4.1495-5.8443s-4.6058-5.2657-4.617-5.5229c-0.0326-0.74828 25.573-0.55298 26.738 0.20455 0.6645 0.43217 1.248-0.26007 1.578-1.8702 0.2881-1.406 2.4752-5.4433 4.8508-8.971 2.3755-3.5277 4.1398-6.5845 3.9157-6.8086-0.22412-0.22412-2.3547 0.0729-4.7339 0.6721-4.4619 1.1235-14.942 0.84171-16.218-0.43833-1.8274-1.8339 10.574-8.6479 20.572-11.309 3.4917-0.9293 6.5412-1.9703 6.7502-2.3085 0.20901-0.33818-3.8655-2.6934-9.0295-5.2307-2.1998-1.0809-4.2133-2.1805-5.932-3.1852-0.008-0.004-0.0208 0.004-0.0292 0-11.377-5.5621-18.42-6.8526-27.088-6.984-0.0195-0.00029-0.039 0.00028-0.0584 0-0.63615-0.005-1.2568-0.009-1.841 0zm-1.5195 2.8345c4.5772-0.00093 10.453 0.55487 16.89 2.6299 5.143 1.6578 10.327 3.885 10.841 4.2664 0.5143 0.38131 3.1442 1.4469 5.8443 2.3962 2.7001 0.94923 4.9092 1.993 4.9092 2.3085 0 0.31548-2.2092 1.1303-4.9092 1.8117-10.238 2.5838-19.96 9.0612-19.257 12.828 0.53838 2.8832 6.2075 5.1865 11.543 4.6754 2.5715-0.24634 5.517-0.79556 6.5456-1.1981 1.8251-0.71423 1.84-0.65806 0.20455 1.578-0.92176 1.2602-2.3164 3.752-3.0975 5.5521l-1.4318 3.2728-12.653 0.263c-9.8645 0.19961-13.291-0.0584-15.517-1.1689-1.5711-0.78376-3.0308-1.4318-3.2436-1.4318-1.0524 0 1.342 4.6816 4.5586 8.9418 1.9853 2.6295 3.5943 5.067 3.5943 5.406 0 0.90441-5.1739 0.58195-12.624-0.78899-11.579-2.1308-22.337-7.9634-25.306-13.705-3.3082-6.3974 1.2323-10.308 12.185-10.491 5.8756-0.0981 6.6233-0.31317 6.8671-2.0163 0.4274-2.9858-4.9763-9.7892-7.7729-9.7892-1.3375 0-2.4254-0.23377-2.4254-0.23377s0.5038-2.7453 1.5487-4.2371c2.0494-2.926 4.289-2.6002 8.971 1.315 7.4105 6.1968 12.945 7.5792 12.945 3.2144 0-1.0323-1.4728-3.2128-3.2728-4.8508-3.6042-3.2797-4.3247-7.1876-1.7533-9.3217 1.0093-0.83762 3.0688-1.2265 5.8151-1.2273zm-20.893 10.666c-1.4085 0-1.9066 1.9799-0.78898 3.0975 0.87266 0.87266 2.1916-0.19109 2.1916-1.7533 0-0.74109-0.6312-1.3442-1.4026-1.3442z" fill="#2a7fff"/>
  </g>
  <metadata>
    <rdf:RDF>
      <cc:Work>
        <dc:format>image/svg+xml</dc:format>
        <dc:type rdf:resource="http://purl.org/dc/dcmitype/StillImage"/>
        <cc:license rdf:resource="http://creativecommons.org/licenses/publicdomain/"/>
        <dc:publisher>
          <cc:Agent rdf:about="http://openclipart.org/">
            <dc:title>Openclipart</dc:title>
          </cc:Agent>
        </dc:publisher>
      </cc:Work>
      <cc:License rdf:about="http://creativecommons.org/licenses/publicdomain/">
        <cc:permits rdf:resource="http://creativecommons.org/ns#Reproduction"/>
        <cc:permits rdf:resource="http://creativecommons.org/ns#Distribution"/>
        <cc:permits rdf:resource="http://creativecommons.org/ns#DerivativeWorks"/>
      </cc:License>
    </rdf:RDF>
  </metadata>
</svg>
