<?xml version="1.0"?>
<svg xmlns:rdf="http://www.w3.org/1999/02/22-rdf-syntax-ns#" xmlns="http://www.w3.org/2000/svg" xmlns:cc="http://creativecommons.org/ns#" xmlns:dc="http://purl.org/dc/elements/1.1/" id="svg2" viewBox="0 0 280 280" version="1.1">
  <g id="g3609" stroke="#999">
    <path id="rect2845" fill="#f9cd23" d="m12.5 11.5v256h256v-256h-256zm17 17h222v222h-222v-222z"/>
    <rect id="rect2840" height="222" width="222" y="28.507" x="29.505" fill="#387ada"/>
    <path id="path2824" stroke-width="1.001px" fill="#fff" d="m126.27 69.501c-0.45572-0.000734-0.91814 0.01499-1.3743 0.03133-5.7118 0.20457-11.425 1.7629-16.898 4.9812-19.508 4.6331-44.508 14.662-64.498 24.687 0.67138 2.3773 2.8433 2.1207 4.6851 2.4436 19.347-8.154 35.724-16.521 59.908-24.328l0.29331 2.4979c-18.569 6.053-38.03 15.784-57.29 23.895 0.20177 2.3561 1.9741 3.1369 4.9662 2.6942l53.571-24.542 0.63004 2.287-52.14 23.101c-0.37165 1.6632 1.2224 1.8478 3.3108 1.6604l51.035-22.067 1.9692 1.9233-50.724 21.585c0.36698 1.3265 0.81578 2.5892 3.915 1.7842l48.464-21.302 2.0614 1.4724-48.225 21.366c-0.43913 2.0519 1.6289 1.8685 3.9355 1.4724l46.757-20.363 2.6861 1.0338-47.788 20.551c0.451 2.7343 2.1263 3.188 4.7476 1.8797l47.819-20.332 1.6554 2.0676-46.976 19.925c0.19891 2.0874 1.8823 2.6859 4.5601 2.287l45.485-20.528c0.65649 1.1276 1.6911 2.0747 2.0668 3.2283l-44.459 18.96c-0.83307 2.2389 1.8241 2.9058 3.2796 2.193l42.447-17.763c1.3107 1.2821 1.2294 2.9133 1.0307 4.5739l-39.011 16.165c0.1009 0.0884 0.23185 0.1699 0.31234 0.25063 5.9064 2.2274 15.444 0.003 14.992 10.025-12.211 7.8941-44.336-0.62256-65.997-0.62657-2.5209 15.521 25.725 9.1696 32.527 9.2878-26.989 8.0648-31.435 1.0937-27.249 9.0392 7.1859-0.17247 27.464-3.3257 33.014-6.6102-13.323 11.461-31.234 10.405-31.234 11.529 0 0-0.34447 3.7363 1.9053 4.4799 7.4 0.25377 24.456-6.0466 33.271-13.735 0.76815-0.67005 2.792-0.18684 3.4289 0.60889-9.0834 10.972-29.176 15.6-35.802 17.302-1.7103 0.43936-0.58815 4.2779 1.5384 5.1232 3.1683 1.215 26.876-7.5138 38.636-20.921 0.83293-0.9496 3.2724 1.0652 4.3742 1.7054-24.986 21.666-44.211 22.372-42.353 24.13 0.42467 1.7196 0.40696 5.3025 5.4639 3.5194 26.194-9.2362 41.76-26.707 42.603-26.504 18.62 4.4885 38.91 5.0234 55.846-3.2894-1.1891 3.6504-6.4392 7.3883-6.6528 12.375 10.682-4.0113 21.848-9.9631 32.952-15.664 1.6456 0.35815 2.629 1.159 3.1234 2.2869-12.743 6.5368-25.356 13.861-38.511 17.92-2.0159 1.5434-2.872 3.4744-3.0297 5.639 13.689-4.6877 27.833-12.566 41.947-20.238l0.81744 2.8646c-14.848 7.6402-29.697 15.596-44.545 20.694-2.5618 1.8901-2.5198 3.7802-3.0297 5.6704 16.289-5.4833 32.578-14.007 48.867-22.492l1.0361 2.8127c-17.249 8.5614-34.498 16.712-51.746 23.094-1.9633 1.8009-3.2104 4.0328-3.6231 6.7669 18.927-7.386 37.67-16.071 56.159-26.535l1.4368 1.8484c-20.263 11.59-39.759 21.889-59.157 27.569-3.5399 2.8028-4.3234 5.8821-4.81 8.9912 22.323-9.3491 44.72-20.269 66.006-33.613l2.8612 1.8693c-24.4 16.062-46.826 27.572-70.897 35.472-3.6424 2.1098-3.0287 5.1682-4.1854 7.8321 9.4045-2.7291 77.409-21.464 93.702-62.656 5.2776-13.343-5.717-21.895-20.802-20.677-8.4592 1.3519-13.053 8.9955-21.995 6.8658 11.25-9.1414 15.271-17.053 15.936-32.148 0.41648-9.449 5.8465-8.883 9.7762-10.025-3.1822-8.8317-15.723-10.999-22.797-7.8281-8.6854 4.0983-17.62 19.615-23.835 21.205 1.6672-8.3536 11.187-15.18 4.9974-25.062-7.75-12.372-23.04-19.646-37.17-19.668zm68.144 26.29c1.143 0 2.643 0.76791 2.643 1.857s-1.6163 1.2737-2.7593 1.2737-2.5266-0.5346-2.5266-1.6237 1.5-1.507 2.643-1.507z"/>
    <path id="path2828" d="m207.7 116.44c2.0844 0.47597 4.1203-1.8953 4.2925-3.7225-0.74831-5.3211 0.15074-11.505 2.5311-15.233 4.6131 4.5083 10.725 4.9698 15.834 0.86954-4.0643-3.7952-9.7294-4.4379-14.854-4.5332 1.3233-1.451 4.1627-6.5096 6.086-8.1765 2.1006 6.23 9.3487 10.573 15.912 7.7958-1.4642-6.1497-7.1125-9.5364-12.952-10.249 2.4756-0.93004 6.7066-3.1348 8.044-5.2833 1.4507-1.5666 3.172-7.1598 1.7185-10.406-1.9732 0.95617-4.3882 0.69386-6.115 2.2244-2.9888 1.4042-3.8081 4.7287-4.8449 7.4548-0.6475 1.0531-0.90354 3.4139-1.9564 3.593-0.1475-2.1396-0.74573-4.3023-1.5737-6.3633-0.83351-1.5253-2.1476-2.8525-3.5697-3.9101-1.6686-1.1855-3.6199-1.9687-5.5785-2.5489-0.64071 1.7605-0.36484 3.8938-0.0321 5.7498 0.50296 2.4051 1.0474 4.9488 2.9561 6.7486 1.1448 1.7232 3.8083 2.9649 4.3507 4.6495-1.5359 1.8214-3.1749 3.6264-4.8383 5.3025 1.1317-5.0915-3.3967-12.08-9.1514-11.243-1.0917 2.1398 0.0589 4.4465 0.47379 6.6025 0.79101 2.3938 1.886 4.8364 4.0672 6.3806 1.3076 1.0259 3.3379 0.93995 2.0554 2.6778-1.9437 6.568-6.5996 12.376-6.2055 17.945-0.26423 2.2441 1.2081 3.3479 3.3498 3.6752h-0.00003z" fill="#fefefe"/>
  </g>
  <metadata>
    <rdf:RDF>
      <cc:Work>
        <dc:format>image/svg+xml</dc:format>
        <dc:type rdf:resource="http://purl.org/dc/dcmitype/StillImage"/>
        <cc:license rdf:resource="http://creativecommons.org/licenses/publicdomain/"/>
        <dc:publisher>
          <cc:Agent rdf:about="http://openclipart.org/">
            <dc:title>Openclipart</dc:title>
          </cc:Agent>
        </dc:publisher>
      </cc:Work>
      <cc:License rdf:about="http://creativecommons.org/licenses/publicdomain/">
        <cc:permits rdf:resource="http://creativecommons.org/ns#Reproduction"/>
        <cc:permits rdf:resource="http://creativecommons.org/ns#Distribution"/>
        <cc:permits rdf:resource="http://creativecommons.org/ns#DerivativeWorks"/>
      </cc:License>
    </rdf:RDF>
  </metadata>
</svg>
