<?xml version="1.0"?>
<svg xmlns:rdf="http://www.w3.org/1999/02/22-rdf-syntax-ns#" xmlns="http://www.w3.org/2000/svg" xmlns:cc="http://creativecommons.org/ns#" xmlns:dc="http://purl.org/dc/elements/1.1/" id="svg2" viewBox="0 0 366.77 354.89" version="1.1">
  <title id="title3761">Dove with Olive Branch</title>
  <g id="layer1" transform="translate(125.9 -597.17)">
    <path id="path2830" d="m315.66 3.9375c-2.2099-0.056566-6.389 2.0743-9.3125 4.9688-5.2199 5.168-8.4283 16.236-6.3125 21.75 0.77629 2.023 5.6229 0.52479 10.094-3.0938 5.4698-4.427 8.1439-10.313 7.6875-17-0.21028-3.0806-0.63741-5.8874-0.96875-6.2188-0.26155-0.26155-0.67752-0.3932-1.1875-0.40625zm-37.47 5.7813c-1.7743-0.15835-2.1718 1.8924-2.1562 6.6875 0.0259 7.9559 2.2554 13.467 6.9375 17.156 6.2384 4.9153 9.0245 3.036 8.8438-5.9688-0.10971-5.4656-3.8705-12.028-8.75-15.344-2.2748-1.5458-3.8104-2.4362-4.875-2.5312zm-240.35 13.937c-3.9521 0.05002-1.5485 4.2529 5.9062 19.25 18.488 37.193 29.686 53.807 56.375 83.719 19.717 22.098 38.387 37.336 56.406 46 6.1015 2.9336 11.39 5.3215 11.75 5.3125 0.36041-0.009 3.4544-1.0439 6.8438-2.2812l6.1562-2.25-14.125-8.5312c-27.17-16.47-59.86-46.95-81.9-76.38-8.606-11.492-27.25-41.542-27.25-43.906 0-0.38907 9.9857-0.40912 22.219-0.03125 13.549 0.41855 34.876 0.219 54.562-0.53125l32.31-1.22 6.91 2.876c12.889 5.4154 18.748 12.403 20.375 24.312 5.1804 37.933 10.058 50.188 23.688 59.25 6.3898 4.2484 8.9586 4.5335 17.188 2.0312 4.9919-1.518 6.3443-2.4994 10.969-8.125 2.8969-3.5241 7.5716-8.3592 10.406-10.75 5.0607-4.2682 5.3007-4.3513 13.188-4.6875 9.7106-0.41387 14.71 1.0166 24.719 7.1875 3.9008 2.405 7.4429 4.375 7.875 4.375 0.43208 0 4.5554 1.4063 9.1875 3.0938l8.4375 3.0625-10.53 7.18c-15.824 10.845-21.989 18.3-39.406 47.438-13.854 23.176-19.548 31.004-27.938 38.531-6.3909 5.7342-22.287 16.062-24.719 16.062-0.36364 0-6.3405 2.1928-13.312 4.875-6.972 2.6822-13.581 4.8948-14.656 4.9062-4.961 0.0529-28.352 5.0617-35.75 7.6562-12.676 4.4456-13.604 4.8483-21.438 9.6875-13.84 8.56-28.42 23.93-37.27 39.28l-2.562 4.44 3.562 2.19c1.9497 1.1996 3.6294 2.202 3.75 2.2188 0.12062 0.0168 0.93197-1.4087 1.8125-3.1562 3.8346-7.6106 15.26-21 23.594-27.688 13.561-10.883 22.172-15.79 30.656-17.438 18.317-3.5568 23.676-4.4931 28.969-5.0938 8.0372-0.91218 27.654-7.5796 37.406-12.719 12.146-6.4006 22.696-14.391 30.75-23.281 6.541-7.2206 18.735-25.336 24-35.656 6.1933-12.14 24.801-33.893 37.312-43.625l5.5-4.2812 2.6875 6.3438c1.4843 3.4925 2.4644 6.5981 2.1875 6.875-0.27687 0.27686 0.084 2.4018 0.78125 4.7188 1.7464 5.8029 1.2152 21.127-0.96875 28.344-1.6839 5.5649-1.681 5.8333 0 7.0625 1.1565 0.84565 2.15 0.97135 2.9062 0.34375 4.1566-3.4497 5.909-28.363 2.9688-42.031-1.0066-4.6795-3.789-13.225-4.7188-14.438-0.69146-0.90197 0.60276-1.9193 5-3.9062 5.8799-2.6569 5.968-2.7224 6-6.7188l0.0312-4.0625-9.0625-2.125c-13.201-3.1352-16.384-5.113-21.688-13.25-4.8264-7.4053-11.873-23.317-13.844-31.281-0.26613-1.0754-0.79321-3.0307-1.1562-4.375-1.0751-3.981-0.5173-18.434 0.84375-21.812 0.69283-1.7198 2.3364-4.828 3.625-6.9062 1.626-2.6222 2.0199-4.1051 1.3125-4.8125-3.2472-3.2472-9.4275 9.9274-10.469 22.281-0.50977 6.0478-0.15749 8.1831 3 18.5 2.0438 6.6779 5.826 15.988 8.875 21.75l5.3438 10.094s-4.1343-1.947-11.344-5.5c-7.2094-3.5535-21.222-6.4375-29.219-3.5625-7.9971 2.875-14.788 7.5042-21.062 13.531-4.5706 4.3904-9.3351 8.5363-10.594 9.1875-5.1466 2.6626-11.125-3.4689-16.281-16.625-2.53-6.455-5.57-21.628-7.41-37.09-1.86-15.674-9.17-26.27-20.94-30.406-3.17-1.114-7.4-2.87-9.44-3.906-3.39-1.734-6.06-1.891-33.31-1.938-27.05-0.047-42.48-0.611-75.56-2.781-6.453-0.424-15.87-1.754-20.938-2.938-4.56-1.065-7.672-1.897-9.468-1.875zm228.72 17.469c-1.3686 0.07973-2.4231 0.37729-2.75 0.90625-1.0233 1.6558 1.3953 8.5997 4.125 11.844 1.4423 1.7141 4.3894 3.9191 6.5625 4.9062 4.8444 2.2005 9.2008 2.3762 9.9688 0.375 1.2912-3.3649-5.5226-14.08-10.625-16.719-1.8972-0.98126-5.0003-1.4454-7.2812-1.3125zm49.125 2.5938c-5.4684-0.23015-12.942 4.698-16.312 11.25-1.8293 3.5563-2.5072 9.5866-1.2188 10.875 0.98701 0.98703 2.6019 0.80723 7.2812-0.84375 7.0052-2.4716 12.303-8.8376 14.031-16.844 0.59392-2.7516 0.37735-3.2967-1.5938-4.0312-0.68236-0.25427-1.4063-0.37337-2.1875-0.40625zm3.9062 30.594c-2.0235 0-8.2438 9.2092-9.25 13.688-1.0056 4.4755 0.10754 12.982 2.0312 15.375 1.415 1.7606 5.2365-1.0803 8.1562-6.0625 1.7226-2.9394 2.4062-5.5624 2.4062-9.2188 0-6.3366-1.8104-13.781-3.3438-13.781zm-48.312 3.375c-2.663 0.05093-5.0263 0.46533-6.25 1.1875-2.3006 1.3577 5.053 10.186 10.5 12.625 4.05 1.8137 12.233 1.7473 14.906-0.125 1.9955-1.3977 2.0731-1.7334 0.8125-4.1562-2.3064-4.4327-5.9616-7.089-11.844-8.625-2.4933-0.65109-5.462-0.95718-8.125-0.90625zm3.0625 39.719c-1.7627-0.14011-3.65 0.62485-5.125 2.5-2.548 3.2392-2.5607 5.6893-0.0625 8.1875 3.6572 3.6572 10.75 1.3514 10.75-3.5 0-4.1991-2.6247-6.954-5.5625-7.1875zm-143 58.781c-0.44652 0.16675-2.5689 2.4499-4.7188 5.0625-3.202 3.8912-5.4734 5.4054-12.562 8.4375-17.68 7.5622-19.845 7.9498-43.375 7.5938-18.733-0.28344-22.813-0.67628-37.625-3.4688-22.891-4.3156-21.659-4.4653-22.5 2.7812-1.3614 11.73 0.83636 34.956 5.5312 58.594 3.0684 15.449 13.318 34.905 26.688 50.625 8.5425 10.045 25.051 22.704 38.312 29.375 6.4261 3.2326 9.8241 4.4656 10.219 3.7188 0.68826-1.3026 3.0337-15.425 2.625-15.812-0.15151-0.14368-5.0216-2.7114-10.844-5.7188-23.94-12.366-41.764-33.341-49.5-58.281-3.1649-10.203-4.9315-25.199-4.9375-41.781v-10.031h4.6562c2.5542 0.004 9.8803 0.66647 16.312 1.4688 12.644 1.5771 32.793 1.7987 44.531 0.5 16.736-1.8516 22.704-4.8844 39.875-20.375l8.0938-7.3125-5-2.8438c-2.7413-1.5656-5.3347-2.698-5.7812-2.5312zm159.06 14.594c-0.0675-0.004-0.10632 0.008-0.125 0.0312-2.0873 2.6363-4.6611 8.8482-3.9375 9.5 4.5979 4.142 19.375 7.9768 30.719 7.9688 11.33-0.008 22.939 1.6286 27.281 3.8438 5.8407 2.9797 6.4875 6.1058 6.3125 30.844-0.0979 13.836-0.85041 26.576-2.2812 39.094-2.6542 23.221-5.567 44.505-6.1875 45.125-0.74617 0.74619-21.26-9.8202-37.844-19.5-19.763-11.535-32.833-23.378-47.562-43.031-5.5624-7.422-10.117-13.781-10.125-14.156-0.008-0.37493-0.37937-1.2983-0.84375-2.0312-0.6807-1.0744-1.7326-0.82208-5.375 1.3125-2.4848 1.4562-4.5312 2.8546-4.5312 3.0938 0 1.3976 5.0033 9.7863 10.094 16.969 18.151 25.61 49.303 50.388 88.125 70.062 12.96 6.5678 19.793 9.5613 20.188 8.8125 1.9755-3.7461 12.625-99.903 12.625-114.03 0-19.222-3.3265-28.258-12.531-34.094-4.5485-2.8835-4.7158-2.9071-23.156-3.5312-22.241-0.75285-31.963-1.9745-36.969-4.625-1.7953-0.95056-3.4021-1.6272-3.875-1.6562z" transform="translate(-131.06 598.23)"/>
  </g>
  <metadata>
    <rdf:RDF>
      <cc:Work>
        <dc:format>image/svg+xml</dc:format>
        <dc:type rdf:resource="http://purl.org/dc/dcmitype/StillImage"/>
        <cc:license rdf:resource="http://creativecommons.org/licenses/publicdomain/"/>
        <dc:publisher>
          <cc:Agent rdf:about="http://openclipart.org/">
            <dc:title>Openclipart</dc:title>
          </cc:Agent>
        </dc:publisher>
      </cc:Work>
      <cc:License rdf:about="http://creativecommons.org/licenses/publicdomain/">
        <cc:permits rdf:resource="http://creativecommons.org/ns#Reproduction"/>
        <cc:permits rdf:resource="http://creativecommons.org/ns#Distribution"/>
        <cc:permits rdf:resource="http://creativecommons.org/ns#DerivativeWorks"/>
      </cc:License>
    </rdf:RDF>
  </metadata>
</svg>
