<?xml version="1.0"?>
<svg xmlns:rdf="http://www.w3.org/1999/02/22-rdf-syntax-ns#" xmlns="http://www.w3.org/2000/svg" xmlns:cc="http://creativecommons.org/ns#" xmlns:dc="http://purl.org/dc/elements/1.1/" id="svg2" viewBox="0 0 511.27 559.14" version="1.1">
  <g id="layer1" transform="translate(434.61 -156.69)">
    <g id="g2837">
      <path id="path2832" fill="#00f" d="m-237.04 703.47c-16.737-2.4092-10.164-22.509-35.092-13.479-24.927 9.0296-15.237-25.701-31.095-17.735-18.51 9.2993-23.327 4.9831-27.282-8.524-5.028-17.169-0.091-18.445-25.097-15.8-21.796-10.414 6.5051-32.157-26.812-31.927-23.034-26.074 29.127-35.14 45.535-43.938 24.312-7.2821 51.553-14.913 69.001-34.346 19.736-19.196 38.352-43.089 44.24-68.162 4.4881-19.114-38.327-22.446-57.087-27.169-22.563 1.9963-41.402-14.467-43.894-36.149-15.144-9.7339-32.897-16.941-27.012-38.122-15.44-9.8981-47.548-15.354-40.233-39.963 7.765-23.769-25.608-32.9-28.586-54.782-2.5866-14.064-10.031-46.546 16.343-30.641 35.15 21.198 80.383 10.675 120.43 17.331 34.521 1.5263 74.104 5.1538 98.477 32.212 22.732 21.995 9.7152 54.701 19.706 81.156 17.762 32.64 41.141-13.636 43.604-32.576 7.936-21.249 8.1-49.584 29.3-62.68 19.227-15.715 46.164-7.5215 61.432 9.1481 9.9649 13.009 37.052 31.312 35.442 36.996-28.185 4.3751-55.307 30.365-44.321 61.579 8.3184 41.635 12.869 95.859-0.84834 127.41-13.717 31.555-27.51 41.378-47.939 54.201-16.187 10.16-39.161 12.571-55.188 15.537-15.019 2.7794-42.034-0.0971-55.282 12.279-11.227 21.009-12.917 45.758-18.233 68.71-6.4071 11.284-3.5512 41.727-19.504 39.43zm236.67-409.1c-18.32-10.91-31.288-31.72-51.534-37.04 3.3408-20.159 15.834-38.529 35.866-45.04 25.365-10.527 51.534-19.815 73.853-36.698 14.45-21.162 5.5288 14.058-2.9036 23.317-18.602 20.425-20.739 54.357-39.04 77.623-2.409 4.3283-9.54 23.96-16.242 17.838z"/>
      <path id="path2835" transform="matrix(.57143 0 0 .57143 -272.78 211.25)" fill="#fff" d="m401.12 155.3a9.518 9.518 0 1 1 -19.036 0 9.518 9.518 0 1 1 19.036 0z"/>
    </g>
  </g>
  <metadata>
    <rdf:RDF>
      <cc:Work>
        <dc:format>image/svg+xml</dc:format>
        <dc:type rdf:resource="http://purl.org/dc/dcmitype/StillImage"/>
        <cc:license rdf:resource="http://creativecommons.org/licenses/publicdomain/"/>
        <dc:publisher>
          <cc:Agent rdf:about="http://openclipart.org/">
            <dc:title>Openclipart</dc:title>
          </cc:Agent>
        </dc:publisher>
      </cc:Work>
      <cc:License rdf:about="http://creativecommons.org/licenses/publicdomain/">
        <cc:permits rdf:resource="http://creativecommons.org/ns#Reproduction"/>
        <cc:permits rdf:resource="http://creativecommons.org/ns#Distribution"/>
        <cc:permits rdf:resource="http://creativecommons.org/ns#DerivativeWorks"/>
      </cc:License>
    </rdf:RDF>
  </metadata>
</svg>
