<?xml version="1.0" encoding="UTF-8" standalone="no"?>
<!-- Created with Inkscape (http://www.inkscape.org/) -->

<svg
   xmlns:dc="http://purl.org/dc/elements/1.1/"
   xmlns:cc="http://creativecommons.org/ns#"
   xmlns:rdf="http://www.w3.org/1999/02/22-rdf-syntax-ns#"
   xmlns:svg="http://www.w3.org/2000/svg"
   xmlns="http://www.w3.org/2000/svg"
   xmlns:sodipodi="http://sodipodi.sourceforge.net/DTD/sodipodi-0.dtd"
   xmlns:inkscape="http://www.inkscape.org/namespaces/inkscape"
   width="3200"
   height="800"
   id="svg9241"
   version="1.1"
   inkscape:version="0.92.2 5c3e80d, 2017-08-06"
   sodipodi:docname="Kinara_1.svg">
  <defs
     id="defs9243">
    <inkscape:path-effect
       effect="rough_hatches"
       id="path-effect4548"
       is_visible="true"
       direction="1622.5,646.43146 , -2.0543749,49.938338"
       dist_rdm="75;1"
       growth="0"
       do_bend="true"
       bender="1622.5,651.43146 , 5,0"
       bottom_edge_variation="0;1"
       top_edge_variation="0;1"
       bottom_tgt_variation="0;1"
       top_tgt_variation="0;1"
       scale_bf="1"
       scale_bb="1"
       scale_tf="1"
       scale_tb="1"
       top_smth_variation="0;1"
       bottom_smth_variation="0;1"
       fat_output="true"
       stroke_width_top="1"
       stroke_width_bottom="1"
       front_thickness="1"
       back_thickness="0.25" />
    <inkscape:path-effect
       effect="rough_hatches"
       id="path-effect4535"
       is_visible="true"
       direction="1622.5,646.50236 , 6.5171736,81.32815"
       dist_rdm="75;1"
       growth="0"
       do_bend="true"
       bender="1622.5,651.50236 , 5,0"
       bottom_edge_variation="0;1"
       top_edge_variation="0;1"
       bottom_tgt_variation="0;1"
       top_tgt_variation="0;1"
       scale_bf="1"
       scale_bb="1"
       scale_tf="1"
       scale_tb="1"
       top_smth_variation="0;1"
       bottom_smth_variation="0;1"
       fat_output="true"
       stroke_width_top="1"
       stroke_width_bottom="1"
       front_thickness="1"
       back_thickness="0.25" />
    <inkscape:path-effect
       effect="rough_hatches"
       id="path-effect4390"
       is_visible="true"
       direction="1252.0469,404.37969 , 8.4926297,27.098173"
       dist_rdm="75;1"
       growth="0"
       do_bend="true"
       bender="1252.0469,410.06248 , 5,0"
       bottom_edge_variation="0;1"
       top_edge_variation="0;1"
       bottom_tgt_variation="0;1"
       top_tgt_variation="0;1"
       scale_bf="1"
       scale_bb="1"
       scale_tf="1"
       scale_tb="1"
       top_smth_variation="0;1"
       bottom_smth_variation="0;1"
       fat_output="true"
       stroke_width_top="1"
       stroke_width_bottom="1"
       front_thickness="1"
       back_thickness="0.25" />
    <inkscape:path-effect
       effect="rough_hatches"
       id="path-effect4388"
       is_visible="true"
       direction="1622.5156,404.38896 , 9.4712241,32.805411"
       dist_rdm="75;1"
       growth="0"
       do_bend="true"
       bender="1622.5156,410.07176 , 5,0"
       bottom_edge_variation="0;1"
       top_edge_variation="0;1"
       bottom_tgt_variation="0;1"
       top_tgt_variation="0;1"
       scale_bf="1"
       scale_bb="1"
       scale_tf="1"
       scale_tb="1"
       top_smth_variation="0;1"
       bottom_smth_variation="0;1"
       fat_output="true"
       stroke_width_top="1"
       stroke_width_bottom="1"
       front_thickness="1"
       back_thickness="0.25" />
    <inkscape:path-effect
       effect="rough_hatches"
       id="path-effect4386"
       is_visible="true"
       direction="1992.9531,404.38105 , 14.71236,27.098173"
       dist_rdm="75;1"
       growth="0"
       do_bend="true"
       bender="1992.9531,410.06385 , 5,0"
       bottom_edge_variation="0;1"
       top_edge_variation="0;1"
       bottom_tgt_variation="0;1"
       top_tgt_variation="0;1"
       scale_bf="1"
       scale_bb="1"
       scale_tf="1"
       scale_tb="1"
       top_smth_variation="0;1"
       bottom_smth_variation="0;1"
       fat_output="true"
       stroke_width_top="1"
       stroke_width_bottom="1"
       front_thickness="1"
       back_thickness="0.25" />
    <inkscape:path-effect
       effect="rough_hatches"
       id="path-effect4225"
       is_visible="true"
       direction="1622.5,692.57812 , -3.9562475,-44.574734"
       dist_rdm="75;1"
       growth="0"
       do_bend="true"
       bender="1622.5,697.57812 , 5,0"
       bottom_edge_variation="0;1"
       top_edge_variation="0;1"
       bottom_tgt_variation="0;1"
       top_tgt_variation="0;1"
       scale_bf="1"
       scale_bb="1"
       scale_tf="1"
       scale_tb="1"
       top_smth_variation="0;1"
       bottom_smth_variation="0;1"
       fat_output="true"
       stroke_width_top="1"
       stroke_width_bottom="1"
       front_thickness="1"
       back_thickness="0.25" />
    <inkscape:path-effect
       effect="rough_hatches"
       id="path-effect4205"
       is_visible="true"
       direction="1622.5,692.57812 , 97.632681,87.076225"
       dist_rdm="75;1"
       growth="0"
       do_bend="true"
       bender="1622.5,697.57812 , 5,0"
       bottom_edge_variation="0;1"
       top_edge_variation="0;1"
       bottom_tgt_variation="0;1"
       top_tgt_variation="0;1"
       scale_bf="1"
       scale_bb="1"
       scale_tf="1"
       scale_tb="1"
       top_smth_variation="0;1"
       bottom_smth_variation="0;1"
       fat_output="true"
       stroke_width_top="1"
       stroke_width_bottom="1"
       front_thickness="1"
       back_thickness="0.25" />
    <inkscape:path-effect
       effect="rough_hatches"
       id="path-effect10313"
       is_visible="true"
       direction="1225.4709,423.05679 , 20.609465,23.442394"
       dist_rdm="75;1"
       growth="0"
       do_bend="true"
       bender="1225.4709,428.84871 , 5.7882254,0"
       bottom_edge_variation="0;1"
       top_edge_variation="0;1"
       bottom_tgt_variation="0;1"
       top_tgt_variation="0;1"
       scale_bf="1"
       scale_bb="1"
       scale_tf="1"
       scale_tb="1"
       top_smth_variation="0;1"
       bottom_smth_variation="0;1"
       fat_output="true"
       stroke_width_top="1"
       stroke_width_bottom="1"
       front_thickness="1"
       back_thickness="0.25" />
    <inkscape:path-effect
       back_thickness="0.25"
       front_thickness="1"
       stroke_width_bottom="1"
       stroke_width_top="1"
       fat_output="true"
       bottom_smth_variation="0;1"
       top_smth_variation="0;1"
       scale_tb="1"
       scale_tf="1"
       scale_bb="1"
       scale_bf="1"
       top_tgt_variation="0;1"
       bottom_tgt_variation="0;1"
       top_edge_variation="0;1"
       bottom_edge_variation="0;1"
       bender="816.78915,559.13191 , 16.410236,3.8861493"
       do_bend="true"
       growth="0"
       dist_rdm="75;1"
       direction="816.78915,554.2479 , 26.171192,3.4543549"
       is_visible="true"
       id="path-effect10263"
       effect="rough_hatches" />
    <inkscape:path-effect
       back_thickness="0.25"
       front_thickness="1"
       stroke_width_bottom="1"
       stroke_width_top="1"
       fat_output="true"
       bottom_smth_variation="0;1"
       top_smth_variation="0;1"
       scale_tb="1"
       scale_tf="1"
       scale_bb="1"
       scale_bf="1"
       top_tgt_variation="0;1"
       bottom_tgt_variation="0;1"
       top_edge_variation="0;1"
       bottom_edge_variation="0;1"
       bender="2178.5749,571.80262 , 16.410236,3.8861493"
       do_bend="true"
       growth="0"
       dist_rdm="75;1"
       direction="2178.5749,566.91862 , 26.171192,3.4543549"
       is_visible="true"
       id="path-effect10227"
       effect="rough_hatches" />
    <inkscape:path-effect
       effect="rough_hatches"
       id="path-effect10225"
       is_visible="true"
       direction="1993.3517,566.91862 , 26.171192,3.4543549"
       dist_rdm="75;1"
       growth="0"
       do_bend="true"
       bender="1993.3517,571.80262 , 16.410236,3.8861493"
       bottom_edge_variation="0;1"
       top_edge_variation="0;1"
       bottom_tgt_variation="0;1"
       top_tgt_variation="0;1"
       scale_bf="1"
       scale_bb="1"
       scale_tf="1"
       scale_tb="1"
       top_smth_variation="0;1"
       bottom_smth_variation="0;1"
       fat_output="true"
       stroke_width_top="1"
       stroke_width_bottom="1"
       front_thickness="1"
       back_thickness="0.25" />
    <inkscape:path-effect
       effect="rough_hatches"
       id="path-effect10223"
       is_visible="true"
       direction="1808.1285,566.91862 , 26.171192,3.4543549"
       dist_rdm="75;1"
       growth="0"
       do_bend="true"
       bender="1808.1285,571.80262 , 16.410236,3.8861493"
       bottom_edge_variation="0;1"
       top_edge_variation="0;1"
       bottom_tgt_variation="0;1"
       top_tgt_variation="0;1"
       scale_bf="1"
       scale_bb="1"
       scale_tf="1"
       scale_tb="1"
       top_smth_variation="0;1"
       bottom_smth_variation="0;1"
       fat_output="true"
       stroke_width_top="1"
       stroke_width_bottom="1"
       front_thickness="1"
       back_thickness="0.25" />
    <inkscape:path-effect
       back_thickness="0.25"
       front_thickness="1"
       stroke_width_bottom="1"
       stroke_width_top="1"
       fat_output="true"
       bottom_smth_variation="0;1"
       top_smth_variation="0;1"
       scale_tb="1"
       scale_tf="1"
       scale_bb="1"
       scale_bf="1"
       top_tgt_variation="0;1"
       bottom_tgt_variation="0;1"
       top_edge_variation="0;1"
       bottom_edge_variation="0;1"
       bender="1622.9053,571.80262 , 16.410236,3.8861493"
       do_bend="true"
       growth="0"
       dist_rdm="75;1"
       direction="1622.9053,566.91862 , 26.171192,3.4543549"
       is_visible="true"
       id="path-effect10221"
       effect="rough_hatches" />
    <inkscape:path-effect
       effect="rough_hatches"
       id="path-effect10083"
       is_visible="true"
       direction="1437.6821,566.91862 , 26.171192,3.4543549"
       dist_rdm="75;1"
       growth="0"
       do_bend="true"
       bender="1437.6821,571.80262 , 16.410236,3.8861493"
       bottom_edge_variation="0;1"
       top_edge_variation="0;1"
       bottom_tgt_variation="0;1"
       top_tgt_variation="0;1"
       scale_bf="1"
       scale_bb="1"
       scale_tf="1"
       scale_tb="1"
       top_smth_variation="0;1"
       bottom_smth_variation="0;1"
       fat_output="true"
       stroke_width_top="1"
       stroke_width_bottom="1"
       front_thickness="1"
       back_thickness="0.25" />
    <inkscape:path-effect
       back_thickness="0.25"
       front_thickness="1"
       stroke_width_bottom="1"
       stroke_width_top="1"
       fat_output="true"
       bottom_smth_variation="0;1"
       top_smth_variation="0;1"
       scale_tb="1"
       scale_tf="1"
       scale_bb="1"
       scale_bf="1"
       top_tgt_variation="0;1"
       bottom_tgt_variation="0;1"
       top_edge_variation="0;1"
       bottom_edge_variation="0;1"
       bender="1252.4588,571.80262 , 16.410236,3.8861493"
       do_bend="true"
       growth="0"
       dist_rdm="75;1"
       direction="1252.4588,566.91862 , 26.171192,3.4543549"
       is_visible="true"
       id="path-effect10081"
       effect="rough_hatches" />
    <inkscape:path-effect
       back_thickness="0.25"
       front_thickness="1"
       stroke_width_bottom="1"
       stroke_width_top="1"
       fat_output="true"
       bottom_smth_variation="0;1"
       top_smth_variation="0;1"
       scale_tb="1"
       scale_tf="1"
       scale_bb="1"
       scale_bf="1"
       top_tgt_variation="0;1"
       bottom_tgt_variation="0;1"
       top_edge_variation="0;1"
       bottom_edge_variation="0;1"
       bender="1067.2356,571.80262 , 16.410236,3.8861493"
       do_bend="true"
       growth="0"
       dist_rdm="75;1"
       direction="1067.2356,566.91862 , 26.171192,3.4543549"
       is_visible="true"
       id="path-effect10011"
       effect="rough_hatches" />
    <inkscape:path-effect
       effect="rough_hatches"
       id="path-effect9921"
       is_visible="true"
       direction="594.77367,553.25669 , 22.607267,2.9820466"
       dist_rdm="75;1"
       growth="0"
       do_bend="true"
       bender="594.77367,557.47291 , 14.175533,3.3548025"
       bottom_edge_variation="0;1"
       top_edge_variation="0;1"
       bottom_tgt_variation="0;1"
       top_tgt_variation="0;1"
       scale_bf="1"
       scale_bb="1"
       scale_tf="1"
       scale_tb="1"
       top_smth_variation="0;1"
       bottom_smth_variation="0;1"
       fat_output="true"
       stroke_width_top="1"
       stroke_width_bottom="1"
       front_thickness="1"
       back_thickness="0.25" />
    <inkscape:path-effect
       effect="rough_hatches"
       id="path-effect9921-4"
       is_visible="true"
       direction="1002.0124,646.91862 , 26.171192,3.4543549"
       dist_rdm="75;1"
       growth="0"
       do_bend="true"
       bender="1002.0124,651.80262 , 16.410236,3.8861493"
       bottom_edge_variation="0;1"
       top_edge_variation="0;1"
       bottom_tgt_variation="0;1"
       top_tgt_variation="0;1"
       scale_bf="1"
       scale_bb="1"
       scale_tf="1"
       scale_tb="1"
       top_smth_variation="0;1"
       bottom_smth_variation="0;1"
       fat_output="true"
       stroke_width_top="1"
       stroke_width_bottom="1"
       front_thickness="1"
       back_thickness="0.25" />
    <inkscape:path-effect
       effect="rough_hatches"
       id="path-effect4388-5"
       is_visible="true"
       direction="1622.5156,404.38896 , -4.7968725,27.098172"
       dist_rdm="75;1"
       growth="0"
       do_bend="true"
       bender="1622.5156,410.07176 , 5,0"
       bottom_edge_variation="0;1"
       top_edge_variation="0;1"
       bottom_tgt_variation="0;1"
       top_tgt_variation="0;1"
       scale_bf="1"
       scale_bb="1"
       scale_tf="1"
       scale_tb="1"
       top_smth_variation="0;1"
       bottom_smth_variation="0;1"
       fat_output="true"
       stroke_width_top="1"
       stroke_width_bottom="1"
       front_thickness="1"
       back_thickness="0.25" />
  </defs>
  <sodipodi:namedview
     id="base"
     pagecolor="#ffffff"
     bordercolor="#666666"
     borderopacity="1.0"
     inkscape:pageopacity="0.0"
     inkscape:pageshadow="2"
     inkscape:zoom="0.3675"
     inkscape:cx="1597.2789"
     inkscape:cy="400"
     inkscape:document-units="px"
     inkscape:current-layer="layer3"
     showgrid="false"
     inkscape:window-width="1680"
     inkscape:window-height="1005"
     inkscape:window-x="0"
     inkscape:window-y="1"
     inkscape:window-maximized="1" />
  <metadata
     id="metadata9246">
    <rdf:RDF>
      <cc:Work
         rdf:about="">
        <dc:format>image/svg+xml</dc:format>
        <dc:type
           rdf:resource="http://purl.org/dc/dcmitype/StillImage" />
        <dc:title />
      </cc:Work>
    </rdf:RDF>
  </metadata>
  <g
     inkscape:label="1-black"
     inkscape:groupmode="layer"
     id="1-default"
     style="display:inline">
    <path
       style="color:#000000;fill:none;stroke:#000000;stroke-width:5.33047533;stroke-linecap:square;stroke-linejoin:round;stroke-miterlimit:4;stroke-opacity:1;stroke-dashoffset:0;marker:none;visibility:visible;display:inline;overflow:visible;enable-background:accumulate"
       d="m 1616.1916,591.02238 c 0,0 29.9029,-8.46997 29.9029,-12.94963 0,-5.11749 -46.1913,8.16872 -46.1913,3.05124 -10e-5,-5.63744 46.1918,-18.92712 46.1917,-24.56456 0,-3.57377 -46.1933,9.71954 -46.1933,6.14577 0,-2.67121 46.1927,-15.96498 46.1927,-18.63619 0,-4.31151 -46.1921,8.98461 -46.1921,4.6731 -10e-5,-5.20544 46.1928,-18.50446 46.1927,-23.7099 0,-5.76745 -46.1927,7.53489 -46.1927,1.76743 -10e-5,-4.22035 46.1919,-17.52652 46.1918,-21.74687 0,-2.38269 -46.1933,10.92481 -46.1933,8.54212 -10e-5,-3.26637 46.1938,-16.57502 46.1937,-19.84139 0,-3.34991 -46.194,9.96156 -46.194,6.61165 0,-3.22568 46.194,-16.53835 46.1939,-19.76403 0,-4.69178 -46.1933,8.62331 -46.1933,3.93153 -10e-5,-5.09819 46.1937,-18.41661 46.1936,-23.5148 0,-3.48758 -46.1949,9.83389 -46.1949,6.34631 -10e-5,-1.86511 46.1942,-15.18773 46.1941,-17.05284 0,-1.30378 -46.1944,12.01982 -46.1944,10.71605 -10e-5,-2.64611 46.1951,-15.97001 46.195,-18.61612 0,-3.34329 -46.195,9.98353 -46.195,6.64024 -10e-5,-2.25091 46.1945,-15.57904 46.1945,-17.82995 0,-1.55412 -46.1949,11.77538 -46.1949,10.22126 0,-1.53336 46.1949,-14.86327 46.1949,-16.39662 0,-1.40865 -46.1951,11.9227 -46.1951,10.51405 0,-1.85637 46.1953,-15.18787 46.1952,-17.04424 0,-4.35455 -46.1941,8.97869 -46.1941,4.62415 -10e-5,-4.55292 46.1943,-17.88996 46.1942,-22.44287 0,-4.23134 -46.1948,9.10743 -46.1948,4.87609 -10e-5,-4.53404 46.1951,-17.87607 46.195,-22.41011 0,-2.37892 -46.1964,10.96566 -46.1964,8.58674 0,-2.55641 46.1965,-15.90097 46.1965,-18.45739 0,-4.00478 -46.1962,9.34265 -46.1962,5.33787 -10e-5,-3.161 46.1958,-16.51067 46.1958,-19.67166 0,-2.17153 -46.1965,11.17974 -46.1965,9.00821 0,0.62067 46.1966,-17.61706 46.1966,-18.23772 0,-0.86534 -46.1967,7.31088 -46.1967,8.17622 0,1.98719 46.1978,-19.57122 46.1977,-21.55842 0,-2.91998 -46.1982,3.31961 -46.1982,6.23959 0,0.36002 46.197,-15.78087 46.197,-16.14089 0,1.50192 -46.1961,7.57535 -46.1961,6.07342 0,-1.26653 46.1962,-23.17049 46.1963,-21.90396 0,-1.01215 -46.1976,7.58871 -46.1976,8.60085 0,1.81129 46.1984,-18.70104 46.1983,-20.51234 0,-0.61581 -46.1978,2.43526 -46.1978,3.05107 0,0.5182 46.1981,-23.76115 46.1981,-24.27935 0,-1.98403 -46.1992,2.6351 -46.1992,4.61913 0,-0.7568 46.1979,-18.19387 46.1979,-17.43707 0,0.13576 -46.1982,9.91517 -46.1982,9.77941 0,-0.63166 46.1982,-17.40313 46.1982,-16.77147 0,0.0105 -46.1984,10.45991 -46.1984,10.44945 0,0.17273 46.1986,-17.2908 46.1986,-17.46352 0,0.22979 -46.1985,7.94382 -46.1985,7.71404 0,0.16275 46.1988,-20.46091 46.1988,-20.62366 0,0.0208 -46.1987,5.02011 -46.1987,4.99927 -10e-5,-4.60697 2.7796,-5.54339 2.7796,-5.54339 0,0 -3.7368,0.95263 -3.7368,5.82077 0,1.06559 46.1988,-3.93369 46.1988,-4.99927 -10e-5,3.61893 -46.1991,17.00473 -46.1992,20.62366 0,2.83463 46.1986,-10.54867 46.1986,-7.71404 -10e-5,2.04056 -46.1989,15.42296 -46.1989,17.46352 0,1.05468 46.1986,-9.39477 46.1986,-10.44945 0,-0.8927 -46.1986,15.87878 -46.1986,16.77147 0,1.79969 46.1984,-11.5791 46.1984,-9.77941 10e-5,-1.01779 -46.1983,16.41928 -46.1983,17.43707 0,-0.94019 46.1993,-5.55933 46.1993,-4.61913 0,0.2573 -46.1986,24.53664 -46.1986,24.27935 0,0.42755 46.1979,-2.62351 46.1979,-3.05107 0,1.55051 -46.1988,22.06284 -46.1988,20.51234 0,0.0309 46.1978,-8.56997 46.1978,-8.60085 0,-1.52725 -46.1966,20.37672 -46.1967,21.90396 0,3.64339 46.1962,-9.7168 46.1962,-6.07342 -10e-5,1.39061 -46.1973,14.75028 -46.1973,16.14089 0,3.55976 46.1983,-9.79934 46.1983,-6.23959 -10e-5,4.10162 -46.1981,17.4568 -46.1982,21.55842 0,2.58882 46.1969,-10.76504 46.1969,-8.17622 -1e-4,2.44274 -46.1969,15.79498 -46.197,18.23772 0,2.17134 46.1967,-11.17955 46.1967,-9.00821 -10e-5,3.16094 -46.1961,16.51071 -46.1962,19.67166 0,4.00463 46.1963,-9.3425 46.1963,-5.33786 0,2.55635 -46.1968,15.90103 -46.1969,18.45738 0,-0.82337 46.1966,-9.41012 46.1966,-8.58674 0,-0.94144 -46.1955,21.46867 -46.1955,22.41011 0,1.63452 46.195,-3.24158 46.195,-4.87609 -10e-5,4.55287 -46.1946,17.88999 -46.1947,22.44287 0,4.3544 46.1942,-8.97856 46.1942,-4.62415 0,0.73417 -46.1956,17.77842 -46.1956,17.04424 0,1.40845 46.1953,-11.9225 46.1953,-10.51405 0,1.5333 -46.1952,14.86332 -46.1952,16.39662 0,1.55392 46.1951,-11.77518 46.1951,-10.22126 0,-0.51456 -46.1949,17.31539 -46.1949,17.82995 0,-0.18771 46.1951,-6.82794 46.1951,-6.64024 0,2.64606 -46.1953,15.97006 -46.1953,18.61612 0,1.30357 46.1946,-12.01962 46.1946,-10.71605 0,1.86506 -46.1944,15.18778 -46.1945,17.05284 0,-0.60362 46.195,-6.94993 46.195,-6.34631 10e-5,-0.61729 -46.194,22.89752 -46.194,23.5148 0,1.41338 46.1934,-2.51815 46.1934,-3.93153 0,0.44248 -46.1943,20.20652 -46.1943,19.76403 0,3.34975 46.1941,-9.9614 46.1941,-6.61165 -10e-5,3.26632 -46.1941,16.57507 -46.1942,19.84139 0,0.62295 46.1935,-7.91916 46.1935,-8.54211 10e-5,-2.07131 -46.1922,19.67555 -46.1923,21.74686 0,5.76735 46.1928,-7.53478 46.1928,-1.76743 0,0.0378 -46.1932,23.74766 -46.1932,23.7099 0,4.31137 46.1922,-8.98447 46.1922,-4.6731 0,0.78424 -46.1931,19.42044 -46.1931,18.63619 0,-1.29767 46.1934,-7.44344 46.1934,-6.14577 -10e-5,5.6374 -46.1921,18.92715 -46.1922,24.56456 0,1.28592 46.1914,-1.76532 46.1914,-3.05124 -10e-5,4.22041 -28.9386,12.67225 -28.9386,12.67225 z"
       id="path4324"
       inkscape:connector-curvature="0"
       inkscape:path-effect="#path-effect4388"
       inkscape:original-d="m 1633.1562,229.04553 c -8.7774,2.48211 -16.2221,14.11979 -26.0624,9.73179 -2.9187,-0.20676 -5.3289,-2.56768 -8.1563,-3.0545 0,117.79957 0,235.59915 0,353.39873 15.5892,2.84676 31.5534,2.53243 47.1563,-0.0355 0,-118.80591 -1e-4,-237.61181 0,-356.41772 -4.1424,-1.91095 -8.4018,-3.96942 -12.9376,-3.62278 z" />
    <g
       id="g9977"
       transform="matrix(1.157645,0,0,1.3165713,378.6988,-113.40962)">
      <path
         style="color:#000000;fill:none;stroke:#000000;stroke-width:4.31773567;stroke-linecap:square;stroke-linejoin:round;stroke-miterlimit:4;stroke-opacity:1;stroke-dashoffset:0;marker:none;visibility:visible;display:inline;overflow:visible;enable-background:accumulate"
         d="m 571.47461,261.14851 c 0,0 9.41806,4.78496 15.17211,4.29713 5.75405,-0.48783 10.93213,-7.44531 16.49784,-7.98039 5.56569,-0.53507 14.2392,3.68326 14.2392,3.68326 l 0,274.72601 c 0,0 -16.08062,2.02276 -23.76112,1.99941 -7.6805,-0.0234 -22.14803,-1.99941 -22.14803,-1.99941 z"
         id="path9979"
         inkscape:connector-curvature="0"
         sodipodi:nodetypes="czzcczcc" />
      <path
         style="fill:none;stroke:#000000;stroke-width:4.31773567;stroke-linecap:butt;stroke-linejoin:miter;stroke-miterlimit:4;stroke-opacity:1;stroke-dasharray:none"
         d="m 594.84574,260.39263 0,-11.0393"
         id="path9981"
         inkscape:connector-curvature="0" />
    </g>
    <g
       id="g10013"
       transform="matrix(1.157645,0,0,1.3165713,563.92201,-113.40962)">
      <path
         style="color:#000000;fill:none;stroke:#000000;stroke-width:4.31773567;stroke-linecap:square;stroke-linejoin:round;stroke-miterlimit:4;stroke-opacity:1;stroke-dashoffset:0;marker:none;visibility:visible;display:inline;overflow:visible;enable-background:accumulate"
         d="m 571.47461,261.14851 c 0,0 9.41806,4.78496 15.17211,4.29713 5.75405,-0.48783 10.93213,-7.44531 16.49784,-7.98039 5.56569,-0.53507 14.2392,3.68326 14.2392,3.68326 l 0,274.72601 c 0,0 -16.08062,2.02276 -23.76112,1.99941 -7.6805,-0.0234 -22.14803,-1.99941 -22.14803,-1.99941 z"
         id="path10015"
         inkscape:connector-curvature="0"
         sodipodi:nodetypes="czzcczcc" />
      <path
         style="fill:none;stroke:#000000;stroke-width:4.31773567;stroke-linecap:butt;stroke-linejoin:miter;stroke-miterlimit:4;stroke-opacity:1;stroke-dasharray:none"
         d="m 594.84574,260.39263 0,-11.0393"
         id="path10017"
         inkscape:connector-curvature="0" />
    </g>
    <g
       transform="matrix(1.157645,0,0,1.3165713,749.14522,-113.40962)"
       id="g10025">
      <path
         sodipodi:nodetypes="czzcczcc"
         inkscape:connector-curvature="0"
         id="path10027"
         d="m 571.47461,261.14851 c 0,0 9.41806,4.78496 15.17211,4.29713 5.75405,-0.48783 10.93213,-7.44531 16.49784,-7.98039 5.56569,-0.53507 14.2392,3.68326 14.2392,3.68326 l 0,274.72601 c 0,0 -16.08062,2.02276 -23.76112,1.99941 -7.6805,-0.0234 -22.14803,-1.99941 -22.14803,-1.99941 z"
         style="color:#000000;fill:none;stroke:#000000;stroke-width:4.31773567;stroke-linecap:square;stroke-linejoin:round;stroke-miterlimit:4;stroke-opacity:1;stroke-dashoffset:0;marker:none;visibility:visible;display:inline;overflow:visible;enable-background:accumulate" />
      <path
         inkscape:connector-curvature="0"
         id="path10029"
         d="m 594.84574,260.39263 0,-11.0393"
         style="fill:none;stroke:#000000;stroke-width:4.31773567;stroke-linecap:butt;stroke-linejoin:miter;stroke-miterlimit:4;stroke-opacity:1;stroke-dasharray:none" />
    </g>
    <path
       sodipodi:nodetypes="czzcczcc"
       inkscape:connector-curvature="0"
       id="path10087"
       d="m 1595.9332,230.41102 c 0,0 10.9028,6.29974 17.5639,5.65748 6.6612,-0.64226 12.6556,-9.80228 19.0987,-10.50676 6.4431,-0.70445 16.4839,4.84928 16.4839,4.84928 l 0,361.69639 c 0,0 -18.6156,2.66311 -27.5069,2.63236 -8.8913,-0.0308 -25.6396,-2.63236 -25.6396,-2.63236 z"
       style="color:#000000;fill:none;stroke:#000000;stroke-width:5.33047533;stroke-linecap:square;stroke-linejoin:round;stroke-miterlimit:4;stroke-opacity:1;stroke-dashoffset:0;marker:none;visibility:visible;display:inline;overflow:visible;enable-background:accumulate" />
    <path
       inkscape:connector-curvature="0"
       id="path10089"
       d="m 1622.9887,229.41585 0,-14.53402"
       style="fill:none;stroke:#000000;stroke-width:5.33047533;stroke-linecap:butt;stroke-linejoin:miter;stroke-miterlimit:4;stroke-opacity:1;stroke-dasharray:none" />
    <g
       transform="matrix(1.157645,0,0,1.3165713,1119.5916,-113.40962)"
       id="g10097">
      <path
         sodipodi:nodetypes="czzcczcc"
         inkscape:connector-curvature="0"
         id="path10099"
         d="m 571.47461,261.14851 c 0,0 9.41806,4.78496 15.17211,4.29713 5.75405,-0.48783 10.93213,-7.44531 16.49784,-7.98039 5.56569,-0.53507 14.2392,3.68326 14.2392,3.68326 l 0,274.72601 c 0,0 -16.08062,2.02276 -23.76112,1.99941 -7.6805,-0.0234 -22.14803,-1.99941 -22.14803,-1.99941 z"
         style="color:#000000;fill:none;stroke:#000000;stroke-width:4.31773567;stroke-linecap:square;stroke-linejoin:round;stroke-miterlimit:4;stroke-opacity:1;stroke-dashoffset:0;marker:none;visibility:visible;display:inline;overflow:visible;enable-background:accumulate" />
      <path
         inkscape:connector-curvature="0"
         id="path10101"
         d="m 594.84574,260.39263 0,-11.0393"
         style="fill:none;stroke:#000000;stroke-width:4.31773567;stroke-linecap:butt;stroke-linejoin:miter;stroke-miterlimit:4;stroke-opacity:1;stroke-dasharray:none" />
    </g>
    <g
       transform="matrix(1.157645,0,0,1.3165713,1304.8148,-113.40962)"
       id="g10109">
      <path
         sodipodi:nodetypes="czzcczcc"
         inkscape:connector-curvature="0"
         id="path10111"
         d="m 571.47461,261.14851 c 0,0 9.41806,4.78496 15.17211,4.29713 5.75405,-0.48783 10.93213,-7.44531 16.49784,-7.98039 5.56569,-0.53507 14.2392,3.68326 14.2392,3.68326 l 0,274.72601 c 0,0 -16.08062,2.02276 -23.76112,1.99941 -7.6805,-0.0234 -22.14803,-1.99941 -22.14803,-1.99941 z"
         style="color:#000000;fill:none;stroke:#000000;stroke-width:4.31773567;stroke-linecap:square;stroke-linejoin:round;stroke-miterlimit:4;stroke-opacity:1;stroke-dashoffset:0;marker:none;visibility:visible;display:inline;overflow:visible;enable-background:accumulate" />
      <path
         inkscape:connector-curvature="0"
         id="path10113"
         d="m 594.84574,260.39263 0,-11.0393"
         style="fill:none;stroke:#000000;stroke-width:4.31773567;stroke-linecap:butt;stroke-linejoin:miter;stroke-miterlimit:4;stroke-opacity:1;stroke-dasharray:none" />
    </g>
    <g
       id="g10121"
       transform="matrix(1.157645,0,0,1.3165713,1490.0381,-113.40962)">
      <path
         style="color:#000000;fill:none;stroke:#000000;stroke-width:4.31773567;stroke-linecap:square;stroke-linejoin:round;stroke-miterlimit:4;stroke-opacity:1;stroke-dashoffset:0;marker:none;visibility:visible;display:inline;overflow:visible;enable-background:accumulate"
         d="m 571.47461,261.14851 c 0,0 9.41806,4.78496 15.17211,4.29713 5.75405,-0.48783 10.93213,-7.44531 16.49784,-7.98039 5.56569,-0.53507 14.2392,3.68326 14.2392,3.68326 l 0,274.72601 c 0,0 -16.08062,2.02276 -23.76112,1.99941 -7.6805,-0.0234 -22.14803,-1.99941 -22.14803,-1.99941 z"
         id="path10123"
         inkscape:connector-curvature="0"
         sodipodi:nodetypes="czzcczcc" />
      <path
         style="fill:none;stroke:#000000;stroke-width:4.31773567;stroke-linecap:butt;stroke-linejoin:miter;stroke-miterlimit:4;stroke-opacity:1;stroke-dasharray:none"
         d="m 594.84574,260.39263 0,-11.0393"
         id="path10125"
         inkscape:connector-curvature="0" />
    </g>
    <path
       inkscape:connector-curvature="0"
       style="color:#000000;fill:none;stroke:#000000;stroke-width:5.54065704;stroke-linecap:round;stroke-linejoin:round;stroke-miterlimit:4;stroke-opacity:1;stroke-dashoffset:0;marker:none;visibility:visible;display:inline;overflow:visible;enable-background:accumulate"
       d="m 991.625,583.84375 50.1562,135.96875 1161.4688,0 50.125,-135.96875 -48.625,0 0,8.25 c 0,0 -18.6087,2.68699 -27.5,2.65625 -8.8913,-0.0308 -25.6564,-2.65625 -25.6562,-2.65625 l 0,-8.25 -132.0626,0 0,8.25 c 0,0 -18.6086,2.68699 -27.5,2.65625 -8.8913,-0.0308 -25.6562,-2.65625 -25.6562,-2.65625 l 0,-8.25 -132.0625,0 0,8.25 c 0,0 -18.6399,2.68699 -27.5313,2.65625 -8.8913,-0.0308 -25.6248,-2.65625 -25.625,-2.65625 l 0,-8.25 -132.0624,0 0,8.25 c 0,0 -18.64,2.687 -27.5313,2.65625 -8.8913,-0.0308 -25.625,-2.65625 -25.625,-2.65625 l 0,-8.25 -132.0937,0 0,8.25 c -1e-4,0 -18.6087,2.68699 -27.5,2.65625 -8.8915,-0.0308 -25.6252,-2.65625 -25.625,-2.65625 l 0,-8.25 -132.0938,0 0,8.25 c 0,0 -18.6087,2.68699 -27.5,2.65625 -8.8913,-0.0308 -25.625,-2.65625 -25.625,-2.65625 l 0,-8.25 -132.0938,0 0,8.25 c 0,0 -18.6086,2.68699 -27.5,2.65625 -8.8912,-0.0308 -25.6562,-2.65625 -25.6562,-2.65625 l 0,-8.25 -48.625,0 z"
       id="rect10265-5" />
  </g>
  <g
     inkscape:groupmode="layer"
     id="layer2"
     inkscape:label="2-Red"
     style="display:inline">
    <g
       id="g9989"
       transform="matrix(1.157645,0,0,1.1583839,378.6988,-73.965056)">
      <path
         style="fill:none;stroke:#ff0000;stroke-width:4.31773567;stroke-linecap:butt;stroke-linejoin:miter;stroke-miterlimit:4;stroke-opacity:1;stroke-dasharray:none"
         d="m 591.28893,244.79829 c -5.93537,-9.69057 -7.79455,-27.01777 -4.37031,-38.14014 1.58269,-5.14076 5.41086,-8.50158 5.41086,-14.03932"
         id="path9991"
         inkscape:connector-curvature="0" />
      <path
         style="fill:none;stroke:#ff0000;stroke-width:4.31773567;stroke-linecap:butt;stroke-linejoin:miter;stroke-miterlimit:4;stroke-opacity:1;stroke-dasharray:none"
         d="m 591.51954,244.50013 c 19.28963,-11.26657 3.26347,-16.77067 1.49806,-24.47764 -1.32174,-5.7701 -2.09729,-11.5965 -2.09729,-17.5641"
         id="path9993"
         inkscape:connector-curvature="0" />
      <path
         inkscape:connector-curvature="0"
         id="path9995"
         d="m 594.84574,248.39263 0,-11.0393"
         style="fill:none;stroke:#ff0000;stroke-width:4.31773567;stroke-linecap:butt;stroke-linejoin:miter;stroke-miterlimit:4;stroke-opacity:1;stroke-dasharray:none" />
    </g>
    <g
       id="g10037"
       transform="matrix(1.157645,0,0,1.1583839,563.92201,-73.965056)">
      <path
         style="fill:none;stroke:#ff0000;stroke-width:4.31773567;stroke-linecap:butt;stroke-linejoin:miter;stroke-miterlimit:4;stroke-opacity:1;stroke-dasharray:none"
         d="m 591.28893,244.79829 c -5.93537,-9.69057 -7.79455,-27.01777 -4.37031,-38.14014 1.58269,-5.14076 5.41086,-8.50158 5.41086,-14.03932"
         id="path10039"
         inkscape:connector-curvature="0" />
      <path
         style="fill:none;stroke:#ff0000;stroke-width:4.31773567;stroke-linecap:butt;stroke-linejoin:miter;stroke-miterlimit:4;stroke-opacity:1;stroke-dasharray:none"
         d="m 591.51954,244.50013 c 19.28963,-11.26657 3.26347,-16.77067 1.49806,-24.47764 -1.32174,-5.7701 -2.09729,-11.5965 -2.09729,-17.5641"
         id="path10041"
         inkscape:connector-curvature="0" />
      <path
         inkscape:connector-curvature="0"
         id="path10043"
         d="m 594.84574,248.39263 0,-11.0393"
         style="fill:none;stroke:#ff0000;stroke-width:4.31773567;stroke-linecap:butt;stroke-linejoin:miter;stroke-miterlimit:4;stroke-opacity:1;stroke-dasharray:none" />
    </g>
    <g
       transform="matrix(1.157645,0,0,1.1583839,749.14522,-73.965056)"
       id="g10045">
      <path
         inkscape:connector-curvature="0"
         id="path10047"
         d="m 591.28893,244.79829 c -5.93537,-9.69057 -7.79455,-27.01777 -4.37031,-38.14014 1.58269,-5.14076 5.41086,-8.50158 5.41086,-14.03932"
         style="fill:none;stroke:#ff0000;stroke-width:4.31773567;stroke-linecap:butt;stroke-linejoin:miter;stroke-miterlimit:4;stroke-opacity:1;stroke-dasharray:none" />
      <path
         inkscape:connector-curvature="0"
         id="path10049"
         d="m 591.51954,244.50013 c 19.28963,-11.26657 3.26347,-16.77067 1.49806,-24.47764 -1.32174,-5.7701 -2.09729,-11.5965 -2.09729,-17.5641"
         style="fill:none;stroke:#ff0000;stroke-width:4.31773567;stroke-linecap:butt;stroke-linejoin:miter;stroke-miterlimit:4;stroke-opacity:1;stroke-dasharray:none" />
      <path
         style="fill:none;stroke:#ff0000;stroke-width:4.31773567;stroke-linecap:butt;stroke-linejoin:miter;stroke-miterlimit:4;stroke-opacity:1;stroke-dasharray:none"
         d="m 594.84574,248.39263 0,-11.0393"
         id="path10051"
         inkscape:connector-curvature="0" />
    </g>
    <g
       id="g10133"
       transform="matrix(1.157645,0,0,1.1583839,934.3685,-73.965056)">
      <path
         style="fill:none;stroke:#ff0000;stroke-width:4.31773567;stroke-linecap:butt;stroke-linejoin:miter;stroke-miterlimit:4;stroke-opacity:1;stroke-dasharray:none"
         d="m 591.28893,244.79829 c -5.93537,-9.69057 -7.79455,-27.01777 -4.37031,-38.14014 1.58269,-5.14076 5.41086,-8.50158 5.41086,-14.03932"
         id="path10135"
         inkscape:connector-curvature="0" />
      <path
         style="fill:none;stroke:#ff0000;stroke-width:4.31773567;stroke-linecap:butt;stroke-linejoin:miter;stroke-miterlimit:4;stroke-opacity:1;stroke-dasharray:none"
         d="m 591.51954,244.50013 c 19.28963,-11.26657 3.26347,-16.77067 1.49806,-24.47764 -1.32174,-5.7701 -2.09729,-11.5965 -2.09729,-17.5641"
         id="path10137"
         inkscape:connector-curvature="0" />
      <path
         inkscape:connector-curvature="0"
         id="path10139"
         d="m 594.84574,248.39263 0,-11.0393"
         style="fill:none;stroke:#ff0000;stroke-width:4.31773567;stroke-linecap:butt;stroke-linejoin:miter;stroke-miterlimit:4;stroke-opacity:1;stroke-dasharray:none" />
    </g>
    <g
       transform="matrix(1.157645,0,0,1.1583839,1119.5916,-73.965056)"
       id="g10141">
      <path
         inkscape:connector-curvature="0"
         id="path10143"
         d="m 591.28893,244.79829 c -5.93537,-9.69057 -7.79455,-27.01777 -4.37031,-38.14014 1.58269,-5.14076 5.41086,-8.50158 5.41086,-14.03932"
         style="fill:none;stroke:#ff0000;stroke-width:4.31773567;stroke-linecap:butt;stroke-linejoin:miter;stroke-miterlimit:4;stroke-opacity:1;stroke-dasharray:none" />
      <path
         inkscape:connector-curvature="0"
         id="path10145"
         d="m 591.51954,244.50013 c 19.28963,-11.26657 3.26347,-16.77067 1.49806,-24.47764 -1.32174,-5.7701 -2.09729,-11.5965 -2.09729,-17.5641"
         style="fill:none;stroke:#ff0000;stroke-width:4.31773567;stroke-linecap:butt;stroke-linejoin:miter;stroke-miterlimit:4;stroke-opacity:1;stroke-dasharray:none" />
      <path
         style="fill:none;stroke:#ff0000;stroke-width:4.31773567;stroke-linecap:butt;stroke-linejoin:miter;stroke-miterlimit:4;stroke-opacity:1;stroke-dasharray:none"
         d="m 594.84574,248.39263 0,-11.0393"
         id="path10147"
         inkscape:connector-curvature="0" />
    </g>
    <g
       transform="matrix(1.157645,0,0,1.1583839,1304.8148,-73.965056)"
       id="g10149">
      <path
         inkscape:connector-curvature="0"
         id="path10151"
         d="m 591.28893,244.79829 c -5.93537,-9.69057 -7.79455,-27.01777 -4.37031,-38.14014 1.58269,-5.14076 5.41086,-8.50158 5.41086,-14.03932"
         style="fill:none;stroke:#ff0000;stroke-width:4.31773567;stroke-linecap:butt;stroke-linejoin:miter;stroke-miterlimit:4;stroke-opacity:1;stroke-dasharray:none" />
      <path
         inkscape:connector-curvature="0"
         id="path10153"
         d="m 591.51954,244.50013 c 19.28963,-11.26657 3.26347,-16.77067 1.49806,-24.47764 -1.32174,-5.7701 -2.09729,-11.5965 -2.09729,-17.5641"
         style="fill:none;stroke:#ff0000;stroke-width:4.31773567;stroke-linecap:butt;stroke-linejoin:miter;stroke-miterlimit:4;stroke-opacity:1;stroke-dasharray:none" />
      <path
         style="fill:none;stroke:#ff0000;stroke-width:4.31773567;stroke-linecap:butt;stroke-linejoin:miter;stroke-miterlimit:4;stroke-opacity:1;stroke-dasharray:none"
         d="m 594.84574,248.39263 0,-11.0393"
         id="path10155"
         inkscape:connector-curvature="0" />
    </g>
    <g
       id="g10157"
       transform="matrix(1.157645,0,0,1.1583839,1490.0381,-73.965056)">
      <path
         style="fill:none;stroke:#ff0000;stroke-width:4.31773567;stroke-linecap:butt;stroke-linejoin:miter;stroke-miterlimit:4;stroke-opacity:1;stroke-dasharray:none"
         d="m 591.28893,244.79829 c -5.93537,-9.69057 -7.79455,-27.01777 -4.37031,-38.14014 1.58269,-5.14076 5.41086,-8.50158 5.41086,-14.03932"
         id="path10159"
         inkscape:connector-curvature="0" />
      <path
         style="fill:none;stroke:#ff0000;stroke-width:4.31773567;stroke-linecap:butt;stroke-linejoin:miter;stroke-miterlimit:4;stroke-opacity:1;stroke-dasharray:none"
         d="m 591.51954,244.50013 c 19.28963,-11.26657 3.26347,-16.77067 1.49806,-24.47764 -1.32174,-5.7701 -2.09729,-11.5965 -2.09729,-17.5641"
         id="path10161"
         inkscape:connector-curvature="0" />
      <path
         inkscape:connector-curvature="0"
         id="path10163"
         d="m 594.84574,248.39263 0,-11.0393"
         style="fill:none;stroke:#ff0000;stroke-width:4.31773567;stroke-linecap:butt;stroke-linejoin:miter;stroke-miterlimit:4;stroke-opacity:1;stroke-dasharray:none" />
    </g>
    <path
       style="color:#000000;fill:none;stroke:#ff0000;stroke-width:5.33047533;stroke-linecap:square;stroke-linejoin:round;stroke-miterlimit:4;stroke-opacity:1;stroke-dashoffset:0;marker:none;visibility:visible;display:inline;overflow:visible;enable-background:accumulate"
       d="m 1070.5576,592.20219 c 0,0 20.8491,-6.37605 20.8491,-10.14777 0,-4.16312 -40.7713,8.56231 -44.277,5.25242 -3.8172,-3.60401 44.2773,-18.61796 44.2773,-23.25999 0,-2.04243 -48.199,7.02505 -48.199,9.06749 0,0.89553 48.1986,-18.62661 48.1985,-19.52213 0,0.0857 -48.1982,7.92152 -48.1982,7.83584 0,0.27084 48.1987,-23.49843 48.1987,-23.76927 0,-0.1924 -48.1988,5.21302 -48.1988,5.40542 0,-1.49416 48.1981,-23.62127 48.1981,-22.12711 0,-0.43586 -48.1992,10.64048 -48.1992,11.07634 10e-5,0.78351 48.1996,-19.74937 48.1995,-20.53287 0,-1.10569 -48.1997,8.35588 -48.1997,9.46156 0,0.60974 48.1997,-19.85893 48.1997,-20.46867 0,0.22498 -48.1993,7.44468 -48.1993,7.2197 0,-0.27702 48.1995,-23.88517 48.1995,-23.60815 0,-1.46321 -48.2005,7.77846 -48.2005,9.24166 0,-0.28665 48.2,-18.48789 48.2,-18.20124 0,-0.57548 -48.2003,12.32333 -48.2003,12.89882 1e-4,1.30643 48.2007,-18.20326 48.2007,-19.50969 0,-1.1155 -48.2007,8.37335 -48.2007,9.48885 -10e-5,-0.19091 48.2003,-19.04327 48.2003,-18.85236 0,-0.78471 -48.2006,11.70121 -48.2006,12.48591 0,0.37493 48.2006,-17.2784 48.2006,-17.65332 0,-0.87187 -48.2008,11.8594 -48.2008,12.73127 10e-5,0.85402 48.2009,-17.34149 48.2009,-18.19552 0,0.84366 -48.2002,8.64728 -48.2002,7.80362 0,-1.07026 48.2003,-23.78357 48.2003,-22.71331 0,0.40831 -48.2008,8.42395 -48.2008,8.01564 0,-0.54777 48.2009,-23.23428 48.2009,-22.68651 0,-1.6484 -48.2019,9.47286 -48.2019,11.12126 0,1.40407 48.202,-17.97579 48.202,-19.37986 0,-0.58529 -48.2019,7.81855 -48.2019,8.40384 0,-0.51355 48.2016,-20.90994 48.2016,-20.39638 0,-0.70743 -48.2021,10.76796 -48.2021,11.47538 10e-5,0.54136 48.2022,-18.65575 48.2022,-19.19711 0,-0.81225 -48.2023,9.96765 -48.2023,10.7799 0,1.68459 48.203,-20.29104 48.203,-21.97563 0,-2.53115 -48.2034,6.6295 -48.2034,9.16065 0,0.32328 48.2025,-17.12078 48.2025,-17.44406 0,1.16806 -48.2019,10.19043 -48.2019,9.02238 0,-1.03735 48.202,-23.30307 48.2021,-22.26571 0,-0.93505 -48.2031,10.20253 -48.2031,11.13757 -1e-4,-2.9888 48.2036,-18.11321 48.2036,-21.10201 0,-4.31599 -48.2033,10.81212 -48.2033,6.49613 -10e-5,-4.56145 48.2035,-19.69234 48.2034,-24.25379 0,-3.66287 -48.2043,11.47209 -48.2043,7.80921 0,-1.69737 48.2035,-16.83379 48.2035,-18.53116 0,-1.50551 -48.2037,13.6317 -48.2037,12.12619 0,-1.41809 48.2037,-16.55665 48.2037,-17.97474 0,-1.22614 -48.2038,13.91315 -48.2038,12.687 -1e-4,-1.70682 48.2039,-16.84706 48.2039,-18.55389 0,-2.37106 -48.2039,12.77067 -48.2039,10.3996 -1e-4,-3.0269 48.2042,-18.17062 48.2041,-21.19752 0,-3.50811 -48.2041,11.63804 -48.2041,8.12993 -1e-4,-2.52901 48.2038,-17.6781 48.2038,-20.20712 0,-2.33724 -48.2042,12.81252 -48.2042,10.47528 0,-3.52699 48.2047,-18.67927 48.2046,-22.20625 0,-3.68507 -48.2048,11.46998 -48.2048,7.78492 -10e-5,-3.10803 48.2046,-18.26582 48.2045,-21.37385 0,-2.43512 -48.2051,12.72453 -48.2051,10.2894 0,-2.01517 48.205,-17.17648 48.205,-19.19166 0,-2.88168 -48.2047,12.2807 -48.2047,9.39902 -1e-4,-4.14998 48.2131,-19.31783 47.9272,-24.11605 -0.309,-5.18556 -47.9281,9.79872 -47.9281,8.31744 -1e-4,-1.8758 12.6752,-5.99578 12.6752,-5.99578 0,0 -13.6257,4.15603 -13.6257,6.29484 0,2.53334 47.6809,-12.4701 47.9283,-8.31744 0.2704,4.53999 -47.9278,19.70315 -47.9278,24.11605 0,1.92566 48.2049,-7.47336 48.2049,-9.39902 0,2.01511 -48.2053,17.17656 -48.2054,19.19166 0,0.63922 48.2054,-9.65019 48.2054,-10.2894 0,-0.9179 -48.205,20.45594 -48.205,21.37385 0,3.68485 48.2049,-11.46978 48.2049,-7.78492 0,-0.18292 -48.205,22.02333 -48.205,22.20625 0,2.337 48.2044,-12.81228 48.2044,-10.47528 0,-1.56448 -48.2043,18.64264 -48.2043,20.20712 0,3.5079 48.2043,-11.63783 48.2043,-8.12994 -10e-5,3.02684 -48.2045,18.17069 -48.2046,21.19753 0,2.37083 48.2041,-12.77043 48.2041,-10.3996 0,1.70676 -48.2043,16.84713 -48.2043,18.55389 0,0.9705 48.2041,-11.71651 48.2041,-12.687 0,1.41802 -48.204,16.55672 -48.204,17.97474 0,1.50526 48.2039,-13.63145 48.2039,-12.12619 0,-0.87337 -48.2039,17.6578 -48.2039,18.53116 0,3.66267 48.2045,-11.47188 48.2045,-7.80921 -10e-5,4.56139 -48.2039,19.69239 -48.204,24.25379 0,0.44578 48.2034,-6.05035 48.2034,-6.49613 0,1.27501 -48.204,22.37702 -48.204,21.10201 0,0.11406 48.2033,-11.02352 48.2033,-11.13757 -1e-4,3.57184 -48.2025,18.69387 -48.2026,22.26571 0,3.04774 48.2021,-12.07012 48.2021,-9.02238 0,1.16333 -48.2028,16.28073 -48.2029,17.44406 0,-1.48255 48.2036,-10.6432 48.2036,-9.16065 -10e-5,3.4314 -48.2034,18.54423 -48.2035,21.97563 0,2.16578 48.2026,-12.94568 48.2026,-10.7799 0,0.27931 -48.2026,19.47643 -48.2026,19.19711 0,1.81655 48.2023,-13.29194 48.2023,-11.47539 0,-0.77554 -48.202,19.62084 -48.202,20.39639 0,0.46255 48.202,-7.94129 48.202,-8.40384 0,1.14214 -48.2024,20.52201 -48.2024,19.37986 0,-0.6008 48.2022,-11.72206 48.2022,-11.12126 0,-0.80964 -48.2014,21.87688 -48.2014,22.68651 0,1.45558 48.2009,-6.56006 48.2009,-8.01564 10e-5,-1.33203 -48.2007,21.38127 -48.2008,22.71331 0,3.64332 48.2004,-11.44693 48.2004,-7.80362 0,0.59233 -48.2013,18.78785 -48.2013,18.19552 0,1.17848 48.2011,-13.90975 48.2011,-12.73127 0,0.11326 -48.2011,17.76658 -48.2011,17.65332 0,0.26188 48.201,-12.22403 48.201,-12.48591 0,-0.45254 -48.2008,18.39982 -48.2008,18.85236 0,2.79743 48.2009,-12.28628 48.2009,-9.48885 0,2.21422 -48.201,17.29547 -48.2011,19.50969 0,0.47071 48.2006,-12.42811 48.2006,-12.89882 -10e-5,1.56066 -48.2004,16.64058 -48.2005,18.20124 0,2.91832 48.2008,-12.15998 48.2008,-9.24166 -10e-5,4.26623 -48.2,19.34191 -48.2001,23.60815 0,3.92608 48.1995,-11.14578 48.1995,-7.2197 0,2.6994 -48.2001,17.76927 -48.2001,20.46867 0,-0.0603 48.1999,-9.52191 48.1999,-9.46156 0,0.5222 -48.1999,21.05507 -48.1999,20.53287 0,1.99387 48.1994,-13.07021 48.1994,-11.07634 10e-5,-1.7554 -48.1986,20.37171 -48.1986,22.12711 0,0.85234 48.1989,-4.55308 48.1989,-5.40542 0,0.01 -48.1992,23.77898 -48.1992,23.76927 0,3.60838 48.1984,-11.44423 48.1984,-7.83584 0,0.63448 -48.199,20.15661 -48.199,19.52213 0,-0.99839 48.1992,-10.06587 48.1992,-9.06749 -10e-5,4.38099 -48.3026,19.4599 -44.2778,23.25999 4.3363,4.09421 44.2772,-8.37182 44.2771,-5.25243 -10e-5,3.5108 -19.891,9.84872 -19.891,9.84872 z m -7.3081,-355.93118 c 0,0 22.1962,-6.98558 22.1962,-6.98558 0,0 -22.1962,6.98558 -22.1962,6.98558 z m 198.1632,355.63759 c 0,0 15.213,-4.61701 15.213,-8.90964 0,-4.68402 -39.8372,7.74969 -43.7692,4.57288 -4.2814,-3.45911 43.769,-18.45923 43.769,-22.38881 0,-0.34865 -48.167,6.74574 -48.167,7.09439 0,-1.38915 48.1665,-21.68371 48.1665,-20.29456 0,0.49411 -48.167,11.29169 -48.167,10.79758 0,-3.93094 48.1679,-18.9761 48.1678,-22.90704 0,-1.16584 -48.168,5.72454 -48.168,6.89038 -10e-5,-0.54675 48.1674,-21.11462 48.1674,-20.56787 0,-0.69662 -48.168,10.54243 -48.168,11.23904 -10e-5,-3.37705 48.1688,-18.43069 48.1687,-21.80774 0,-5.02955 -48.1682,10.02822 -48.1682,4.99867 -10e-5,-4.90884 48.1683,-19.97006 48.1682,-24.87889 0,-1.14096 -48.1691,5.6003 -48.1691,6.74125 0,-1.22622 48.1682,-20.6669 48.1682,-19.44069 0,1.26942 -48.1682,11.09292 -48.1682,9.8235 0,0.50647 48.1692,-24.14522 48.1692,-24.65169 0,-5.01777 -48.1694,10.05724 -48.1694,5.03947 -10e-5,-0.49496 48.1689,-24.06043 48.1689,-23.56548 0,-0.10572 -48.1695,6.90424 -48.1695,7.00997 -10e-5,-4.716 48.17,-19.8001 48.1699,-24.5161 0,-4.7519 -48.1703,10.33612 -48.1703,5.58422 -10e-5,-4.62216 48.1703,-19.71319 48.1702,-24.33535 0,-3.52494 -48.1711,11.56998 -48.1711,8.04503 0,1.51826 48.1713,-21.01278 48.1713,-22.53104 0,-3.86626 -48.1716,11.23406 -48.1716,7.3678 -10e-5,-3.38721 48.1713,-18.48886 48.1712,-21.87607 0,-3.15221 -48.1716,11.95302 -48.1716,8.8008 0,-3.42332 48.1719,-18.52949 48.1718,-21.95281 0,-2.99626 -48.1722,12.11407 -48.1722,9.11781 10e-5,1.37095 48.172,-18.82527 48.1719,-20.19622 0,-2.36857 -48.1721,12.74543 -48.1721,10.37686 0,1.99111 48.1725,-18.75129 48.1724,-20.7424 0,-2.76211 -48.1727,12.35607 -48.1727,9.59396 0,-2.125 48.1724,-17.24297 48.1723,-19.36797 0,-3.02442 -48.1723,12.0966 -48.1723,9.07218 0,0.027 48.1721,-20.18419 48.1721,-20.21122 0,0.85479 -48.1716,8.33961 -48.1716,7.48483 0,-1.64128 48.1715,-23.6235 48.1715,-21.98222 0,0.42695 -48.1723,10.34333 -48.1723,9.91638 -10e-5,-2.41437 48.1723,-17.54655 48.1723,-19.96091 0,-1.22653 -48.1729,13.90669 -48.1729,12.68017 0,2.12487 48.1739,-19.36109 48.1738,-21.48596 0,-3.42997 -48.174,11.70812 -48.174,8.27815 0,0.35911 48.1732,-18.61488 48.1732,-18.97399 0,0.81195 -48.1727,8.98685 -48.1727,8.1749 0,-0.30461 48.1731,-24.21688 48.1731,-23.91227 0,-0.99835 -48.174,7.1975 -48.174,8.19586 -1e-4,-3.12612 48.1739,-18.27505 48.1738,-21.40117 0,-3.70406 -48.1738,11.44747 -48.1738,7.74341 -1e-4,-2.96041 48.1736,-18.11497 48.1735,-21.07538 0,-1.5172 -48.1743,13.63883 -48.1743,12.12164 0,-1.14075 48.1743,-16.29736 48.1742,-17.4381 0,-2.55868 -48.1738,12.59869 -48.1738,10.04 -10e-5,-3.97622 43.3692,-17.62432 40.7175,-18.43898 -3.286,-1.00952 -14.2654,2.97218 -14.2654,2.97218 0,0 11.7213,-3.16281 13.3153,-2.67312 2.2286,0.68469 -40.718,14.19976 -40.718,18.43898 0,2.07509 48.1741,-7.96491 48.1741,-10.04 0,-0.26255 -48.1746,17.17554 -48.1746,17.43809 0,0.28071 48.1745,-11.84093 48.1745,-12.12163 0,2.96035 -48.1739,18.11503 -48.1739,21.07538 0,3.70385 48.1739,-11.44726 48.1739,-7.74341 0,3.12606 -48.1742,18.27511 -48.1743,21.40117 0,3.47541 48.1742,-11.67127 48.1742,-8.19586 0,-0.5674 -48.1736,23.34487 -48.1736,23.91227 0,1.86291 48.1729,-6.31199 48.1729,-8.1749 0,0.0964 -48.1737,19.07039 -48.1737,18.97399 0,-1.21455 48.1742,-9.4927 48.1742,-8.27815 0,3.17619 -48.1742,18.30977 -48.1742,21.48596 0,0.48132 48.1731,-12.19885 48.1731,-12.68018 -10e-5,2.41431 -48.1727,17.54662 -48.1727,19.96092 0,2.60633 48.1725,-12.52272 48.1725,-9.91638 -10e-5,3.42682 -48.1719,18.55539 -48.172,21.98222 0,3.81959 48.1718,-11.30442 48.1718,-7.48483 0,2.54423 -48.1725,17.66699 -48.1725,20.21122 0,3.02419 48.1725,-12.09638 48.1725,-9.07218 -10e-5,2.12493 -48.1727,17.24304 -48.1728,19.36797 0,2.76188 48.1729,-12.35584 48.1729,-9.59396 0,1.72882 -48.1729,22.47121 -48.1729,20.7424 0,-0.88969 48.1724,-11.26655 48.1724,-10.37686 0,1.10872 -48.1724,21.30494 -48.1723,20.19622 0,-1.16872 48.1724,-10.28653 48.1724,-9.11781 -10e-5,3.42326 -48.1722,18.52955 -48.1723,21.95281 0,-0.47053 48.1718,-9.27133 48.1718,-8.8008 -10e-5,3.38715 -48.1717,18.48892 -48.1717,21.87607 0,3.86606 48.1717,-11.23386 48.1717,-7.3678 0,1.25627 -48.1718,23.78731 -48.1718,22.53104 0,-0.6707 48.1713,-8.71573 48.1713,-8.04503 0,-0.0337 -48.1707,24.30162 -48.1707,24.33535 0,4.75172 48.1704,-10.33594 48.1704,-5.58422 -10e-5,4.71594 -48.1703,19.80015 -48.1705,24.5161 0,0.94116 48.1697,-6.0688 48.1697,-7.00997 -10e-5,4.24349 -48.1694,19.32198 -48.1695,23.56547 0,0.37491 48.1696,-4.66455 48.1696,-5.03946 0,0.24491 -48.1698,24.8966 -48.1698,24.65169 0,2.62193 48.1684,-12.44542 48.1684,-9.8235 0,2.18656 -48.1686,17.25413 -48.1686,19.44069 0,4.16168 48.1692,-10.90294 48.1692,-6.74126 0,-0.25971 -48.1687,24.61919 -48.1687,24.8789 0,5.02938 48.1683,-10.02806 48.1683,-4.99867 0,1.51356 -48.1692,23.3213 -48.1692,21.80774 0,1.90673 48.1682,-13.14577 48.1682,-11.23904 -10e-5,2.75823 -48.1678,17.80963 -48.1679,20.56787 0,4.07914 48.1683,-10.96952 48.1683,-6.89038 0,0.66128 -48.1683,23.56831 -48.1683,22.90704 0,1.53843 48.1672,-9.25915 48.1672,-10.79759 0,2.626 -48.1669,17.66858 -48.167,20.29457 0,3.97233 48.1672,-11.06673 48.1672,-7.09439 -10e-5,3.66854 -48.2838,18.7415 -43.7695,22.38881 4.8637,3.92961 43.7693,-8.2132 43.7692,-4.57288 -10e-5,4.03171 -14.2548,8.61058 -14.2548,8.61058 z m -24.8538,-354.2642 c 0,0 -8.1084,2.02542 -8.1084,0.61395 0,-1.80606 2.6814,-2.78146 2.6814,-2.78146 0,0 -3.6318,1.01141 -3.6318,3.08052 0,2.46369 9.0588,-0.91301 9.0588,-0.91301 z m 216.7548,353.64419 c 0,0 8.5304,-2.53159 8.5304,-5.52154 0,-3.38131 -30.012,5.98528 -38.4904,4.93938 -9.377,-1.15676 38.4906,-16.09777 38.4906,-19.93998 0,-2.92124 -48.1673,12.11635 -48.1673,9.19511 0,-3.18236 48.1675,-18.22092 48.1675,-21.40327 0,-4.03403 -48.1674,11.00802 -48.1674,6.974 -1e-4,-4.21732 48.1676,-19.26179 48.1675,-23.47911 0,-4.21814 -48.1679,10.83002 -48.1679,6.61188 -10e-5,-4.42771 48.1681,-19.47825 48.168,-23.90596 0,-4.45465 -48.1684,10.59993 -48.1684,6.14527 -10e-5,-4.28164 48.1684,-19.33864 48.1683,-23.62028 0,-3.3693 -48.169,11.69162 -48.169,8.32231 -10e-5,-2.09069 48.1684,-17.15262 48.1684,-19.24331 0,-3.35231 -48.1681,11.71123 -48.1681,8.35892 0,-4.04898 48.1684,-19.11585 48.1683,-23.16483 0,-3.31022 -48.169,11.7594 -48.169,8.44918 -10e-5,-2.82305 48.1689,-17.89467 48.1688,-20.71772 0,-3.28489 -48.1688,11.78867 -48.1688,8.50379 -10e-5,-4.18241 48.1694,-19.25873 48.1693,-23.44114 0,-2.80748 -48.1702,12.27252 -48.1702,9.46504 -10e-5,-3.12166 48.1705,-18.20175 48.1704,-21.32341 0,-3.69678 -48.1706,11.38769 -48.1706,7.69091 0,-1.58831 48.1697,-16.67422 48.1697,-18.26253 0,-1.98061 -48.1697,13.10579 -48.1697,11.12518 0,-3.02664 48.17,-18.11532 48.17,-21.14196 0,-3.10561 -48.1702,11.98532 -48.1702,8.87971 -10e-5,-3.37628 48.1704,-18.46943 48.1703,-21.8457 0,-2.18273 -48.1709,12.91337 -48.1709,10.73065 -10e-5,-1.31953 48.1706,-16.41579 48.1706,-17.73532 0,-2.05195 -48.1706,13.0458 -48.1706,10.99385 0,-1.65949 48.1705,-16.75893 48.1705,-18.41842 0,-2.67995 -48.1702,12.41997 -48.1702,9.74001 0,-3.43908 48.1704,-18.54245 48.1704,-21.98154 0,-2.18388 -48.1712,12.92136 -48.1712,10.73748 -10e-5,-2.76879 48.1715,-17.87504 48.1714,-20.64384 0,-2.91745 -48.1716,12.19191 -48.1716,9.27446 -1e-4,-1.87026 48.1713,-16.98097 48.1712,-18.85124 0,-2.34176 -48.1712,12.77007 -48.1712,10.42831 -1e-4,-2.77841 48.1714,-17.89253 48.1714,-20.67094 0,-2.95349 -48.1716,12.16242 -48.1716,9.20893 0,0.85708 48.1723,-22.85891 48.1723,-23.71599 0,-1.80888 -48.1729,5.83192 -48.1729,7.6408 0,-0.1128 48.1721,-19.66174 48.1721,-19.54893 0,0.0338 -48.1722,10.10459 -48.1722,10.07082 0,0.3243 48.1725,-21.36126 48.1725,-21.68556 0,-0.17597 -48.1725,7.3117 -48.1725,7.48766 -1e-4,-1.17883 48.1721,-22.03241 48.1722,-20.85358 0,-0.45557 -48.173,11.43912 -48.173,11.89469 0,0.0268 48.1729,-18.27855 48.1729,-18.30535 0,-0.87515 -48.1731,12.00028 -48.1731,12.87543 0,1.11955 48.1734,-17.55551 48.1734,-18.67507 0,-1.37369 -48.1735,9.94768 -48.1735,11.32137 0,0.84871 48.1734,-17.84712 48.1734,-18.69583 0,0.61089 -48.1729,8.48921 -48.1729,7.87832 0,-1.82694 48.1727,-22.59176 48.1727,-20.76483 0,0.6024 -48.1734,11.78923 -48.1734,11.18684 10e-5,1.04233 48.1743,-22.14274 48.1743,-23.18508 0,-1.8911 -48.1748,6.13244 -48.1748,8.02355 0,-0.51573 48.1739,-18.77233 48.1739,-18.2566 0,1.22402 -48.1735,11.06925 -48.1735,9.84523 0,-1.6271 48.1735,-22.07584 48.1735,-20.44873 0,0.13021 -48.1742,12.20126 -48.1742,12.07104 -10e-5,-2.0682 46.6654,-16.75277 43.4907,-18.01571 -3.7281,-1.48304 -20.1496,4.21109 -20.1496,4.21109 0,0 16.9482,-4.80756 19.1994,-3.91203 2.8055,1.11605 -43.4911,15.68452 -43.4911,18.01571 0,1.54324 48.1745,-13.61428 48.1745,-12.07105 0,2.64558 -48.1739,17.80317 -48.174,20.44874 0,2.65413 48.1738,-12.49936 48.1738,-9.84523 -10e-5,1.55153 -48.1743,16.70506 -48.1743,18.2566 0,3.5641 48.1749,-11.58765 48.1749,-8.02355 -10e-5,4.01852 -48.1747,19.16656 -48.1748,23.18507 0,1.9793 48.1736,-13.16612 48.1736,-11.18683 0,2.80961 -48.173,17.95522 -48.1731,20.76483 0,3.63152 48.1731,-11.50984 48.1731,-7.87832 -1e-4,1.77798 -48.1739,16.91785 -48.1739,18.69583 0,1.90884 48.1737,-13.23021 48.1737,-11.32137 0,1.76901 -48.1737,16.90606 -48.1737,18.67507 0,1.13047 48.1734,-14.0059 48.1734,-12.87543 0,1.58488 -48.1733,16.72047 -48.1733,18.30535 0,1.61964 48.1732,-13.51433 48.1732,-11.89469 -10e-5,2.86009 -48.1726,17.9935 -48.1727,20.85358 0,3.82108 48.1727,-11.30874 48.1727,-7.48766 0,3.27899 -48.1729,18.40657 -48.173,21.68556 0,2.52708 48.1725,-12.5979 48.1725,-10.07083 -10e-5,2.21249 -48.1726,17.33645 -48.1726,19.54894 0,3.74064 48.1731,-11.38143 48.1731,-7.6408 0,0.59472 -48.1729,24.31071 -48.1729,23.71599 0,1.14411 48.1718,-8.06483 48.1718,-9.20893 0,-0.57561 -48.1718,20.09533 -48.1719,20.67094 0,1.40566 48.1716,-9.02264 48.1716,-10.42831 0,-0.54083 -48.1717,18.31041 -48.1717,18.85124 0,-0.1129 48.1718,-9.38737 48.1718,-9.27446 0,0.65479 -48.1719,21.29864 -48.1719,20.64384 0,0.32334 48.1715,-10.41414 48.1715,-10.73748 0,-1.18552 -48.1709,20.79602 -48.1709,21.98154 0,2.33773 48.1704,-7.40227 48.1704,-9.74001 0,-0.92416 -48.1709,17.49425 -48.1709,18.41842 0,0.92482 48.1708,-10.06902 48.1708,-10.99385 0,0.20059 -48.171,17.93591 -48.171,17.73532 0,-0.6707 48.1712,-11.40135 48.1712,-10.73065 0,-0.13009 -48.1708,21.71562 -48.1708,21.8457 0,0.79361 48.1704,-8.0861 48.1704,-8.87971 0,-0.32187 -48.1704,20.82009 -48.1704,21.14196 0,1.76062 48.1699,-9.36456 48.1699,-11.12518 0,-0.97565 -48.1701,17.28689 -48.1701,18.26253 0,-0.73994 48.1707,-8.43085 48.1707,-7.69091 0,1.7077 -48.1709,23.03112 -48.1709,21.32341 0,-1.00095 48.1704,-10.466 48.1704,-9.46505 0,0.0184 -48.1698,23.45952 -48.1698,23.44115 0,1.27153 48.169,-7.23226 48.169,-8.50379 10e-5,-0.41733 -48.1692,20.30039 -48.1693,20.71772 0,0.32253 48.1693,-8.12665 48.1693,-8.44918 0,-0.66912 -48.1688,22.49571 -48.1688,23.16483 0,1.75793 48.1682,-6.60099 48.1682,-8.35892 0,-0.10412 -48.1688,19.13919 -48.1688,19.24331 -10e-5,-0.78229 48.1692,-9.1046 48.1692,-8.32231 0,0.26188 -48.1688,23.88216 -48.1688,23.62028 0,-0.043 48.1685,-6.18822 48.1685,-6.14527 0,0.46176 -48.1686,24.36772 -48.1685,23.90596 0,0.13957 48.168,-6.47231 48.168,-6.61188 0,0.25295 -48.1681,23.73206 -48.168,23.47911 0,0.32194 48.1675,-6.65206 48.1675,-6.97401 0,0.92132 -48.1679,22.3246 -48.1679,21.40328 0,-0.26871 48.1675,-9.46381 48.1675,-9.19511 -10e-5,3.58121 -48.4672,18.70931 -38.4911,19.93998 10.8748,1.34153 38.4906,-7.27706 38.4905,-4.93938 0,2.72904 -7.5722,5.22248 -7.5722,5.22248 z M 1423.8623,238.2442 c 0,0 -10.1929,2.68133 -10.1929,1.04229 -10e-5,-2.03361 3.6958,-3.32824 3.6958,-3.32824 0,0 -4.6462,1.33064 -4.6462,3.6273 0,2.69123 11.1433,-1.34135 11.1433,-1.34135 z"
       id="path9979-4"
       inkscape:connector-curvature="0"
       inkscape:path-effect="#path-effect4390"
       inkscape:original-d="m 1076.9688,227.94449 c -8.5936,2.46864 -15.5109,13.93196 -25.1876,9.73179 -3.0562,-0.003 -8.1991,-4.38959 -9.5312,-2.59278 0,118.33234 0,236.66468 0,354.99702 16.2411,3.09407 32.8976,2.74872 49.1562,0 0,-119.4097 1e-4,-238.8194 0,-358.22911 -4.5052,-2.02082 -9.4124,-4.51466 -14.4374,-3.90692 z m 185.2187,0 c -8.5485,2.48135 -15.4896,13.94303 -25.1563,9.73179 -3.0562,-0.003 -8.1991,-4.38959 -9.5312,-2.59278 0,118.33234 0,236.66468 0,354.99702 16.2315,3.10183 32.8746,2.73351 49.125,0 0,-119.4097 0,-238.8194 0,-358.22911 -4.5052,-2.02082 -9.4125,-4.51466 -14.4375,-3.90692 z m 185.2187,0 c -8.5485,2.48135 -15.4895,13.94303 -25.1562,9.73179 -3.0563,-0.003 -8.1991,-4.38959 -9.5312,-2.59278 -1e-4,118.33234 0,236.66468 0,354.99702 16.2315,3.10183 32.8746,2.73351 49.125,0 0,-119.4097 -1e-4,-238.8194 0,-358.22911 -4.5053,-2.02082 -9.4125,-4.51466 -14.4376,-3.90692 z" />
    <path
       style="color:#000000;fill:none;stroke:#ff0000;stroke-width:5.54065704000000014;stroke-linecap:round;stroke-linejoin:round;stroke-miterlimit:4;stroke-opacity:1;stroke-dashoffset:0;marker:none;visibility:visible;display:inline;overflow:visible;enable-background:accumulate"
       d="m 2201.9792,714.66325 c 0,0 -32.1604,2.06937 -151.3842,2.06937 -123.9176,0 159.0079,-22.61008 164.2121,-36.73804 2.6738,-7.25868 -156.0857,1.92813 -334.237,12.92587 -178.1699,10.9989 -375.8108,23.81217 -450.4051,23.81217 -76.8932,0 123.2979,-19.06749 342.5207,-38.67454 219.2666,-19.61097 457.4246,-39.74974 458.221,-41.9119 0.8658,-2.35027 -263.2219,17.81244 -528.0786,38.56901 -264.7894,20.75129 -530.4133,42.09731 -530.4133,42.09731 0,0 265.2662,-21.06726 529.7627,-41.66944 264.5644,-20.60748 528.4083,-40.74984 527.7331,-38.917 -0.7489,2.03281 -239.6886,22.17165 -459.3585,41.81491 -219.6265,19.63938 -419.8446,38.77153 -341.387,38.77153 80.8528,0 278.3958,-12.5552 454.9553,-23.42506 176.5436,-10.86887 332.1725,-20.05534 329.6885,-13.31298 -5.1097,13.86988 -291.2611,36.73804 -164.2137,36.73804 131.7429,0 152.384,-2.14925 152.384,-2.14925 z m 36.7596,-99.79313 c 0,0 -298.3711,23.82418 -598.0141,46.30789 -299.5766,22.47872 -600.246,43.61014 -602.2352,38.21279 -2.0538,-5.57255 281.2517,-31.1117 551.3776,-55.77183 270.2116,-24.66796 527.4279,-48.4723 475.8497,-50.61436 -53.0769,-2.20429 -312.8257,15.43113 -560.2949,31.95319 -247.4662,16.52186 -482.5797,31.92685 -485.0365,25.26067 -2.5234,-6.84666 141.2431,-21.90406 279.5432,-35.44544 138.3297,-13.54428 271.2832,-25.58011 247.854,-26.39814 -50.12,-1.74992 -80.4162,1.18806 -80.4162,1.18806 0,0 38.03,-2.55338 79.4224,-1.10818 22.3379,0.77993 -110.6401,12.75487 -248.7087,26.27821 -138.0389,13.52044 -281.2594,28.59691 -278.6915,35.56537 2.636,7.1532 239.8112,-8.16566 488.2703,-24.7667 248.4599,-16.60109 508.1151,-34.48001 557.0638,-32.44716 50.546,2.09919 -206.696,25.84281 -476.6614,50.49107 -269.8794,24.64042 -552.6692,50.20107 -550.5709,55.89512 2.1681,5.88327 303.0912,-15.26765 602.8782,-37.88812 299.8522,-22.62539 598.3702,-46.71244 598.3702,-46.71244 z m 8.8556,-24.04078 c 0,0 -42.4133,3.4082 -42.4133,3.4082 0,0 42.4133,-3.4082 42.4133,-3.4082 z m -838.2477,3.39603 c 0,0 -99.4382,7.86399 -199.1955,15.09215 -99.7517,7.22775 -199.7941,13.81846 -200.7329,11.27131 -2.0124,-5.46038 227.1564,-23.86417 171.4657,-28.87697 -57.9107,-5.21263 -83.8778,-2.6221 -83.8778,-2.6221 0,0 30.8792,-1.97905 82.8838,2.70198 54.2142,4.87992 -173.5691,23.17264 -171.467,28.87697 1.1184,3.03495 101.4104,-3.57554 201.368,-10.94532 99.9627,-7.37017 199.5557,-15.49802 199.5557,-15.49802 z m -52.3698,-7.30252 c 0,0 -76.6403,6.15931 -76.6403,6.15931 0,0 76.6403,-6.15931 76.6403,-6.15931 z m -318.2852,6.85312 c 0,0 -39.03242,3.13611 -39.03242,3.13611 0,0 39.03242,-3.13611 39.03242,-3.13611 z"
       id="path4509"
       inkscape:connector-curvature="0"
       inkscape:path-effect="#path-effect4535"
       inkscape:original-d="m 1033.2188,586.375 c -12.4029,1.06596 -24.8558,0.21432 -37.2813,0.4375 15.9687,43.33333 31.9375,86.66667 47.9063,130 385.7812,0 771.5624,0 1157.3437,0 15.9583,-43.32292 31.9167,-86.64583 47.875,-129.96875 -13.5833,0.0216 -27.167,-0.0545 -40.75,0.0625 1.0322,6.6874 -6.3746,10.44003 -12.0313,9.40625 -15.1836,2.11931 -31.0438,1.74089 -45.875,-1.71875 -1.5603,-2.7481 -0.4778,-9.30362 -5.4681,-8.21612 -40.6035,1.17684 -81.231,0.004 -121.8443,0.52862 1.0322,6.6874 -6.3746,10.44003 -12.0313,9.40625 -15.1836,2.11931 -31.0438,1.74089 -45.875,-1.71875 -1.5603,-2.7481 -0.4779,-9.30362 -5.4682,-8.21612 -40.6139,1.14016 -81.2513,0.0805 -121.8755,0.46612 1.1538,6.66391 -6.3529,10.54928 -12,9.4375 -15.1744,2.17061 -31.0513,1.78815 -45.875,-1.6875 -1.5604,-2.7481 -0.4779,-9.30362 -5.4682,-8.21612 -40.614,1.14016 -81.2513,0.0805 -121.8756,0.46612 1.1539,6.66391 -6.3528,10.54928 -12,9.4375 -15.1744,2.17061 -31.0512,1.78815 -45.875,-1.6875 -1.5603,-2.7481 -0.4779,-9.30362 -5.4682,-8.21612 -40.6139,1.17683 -81.2518,0.004 -121.8756,0.52862 1.0349,6.65559 -6.3619,10.47425 -12,9.375 -15.1743,2.17061 -31.0512,1.78815 -45.875,-1.6875 -1.5603,-2.7481 -0.4778,-9.30362 -5.4681,-8.21612 -40.6139,1.17683 -81.2518,0.004 -121.8756,0.52862 1.0348,6.65559 -6.3619,10.47425 -12,9.375 -15.1744,2.17061 -31.0512,1.78815 -45.875,-1.6875 -1.5603,-2.7481 -0.4779,-9.30362 -5.4682,-8.21612 -40.6139,1.17683 -81.2518,0.004 -121.8755,0.52862 1.0322,6.6874 -6.3746,10.44003 -12.0313,9.40625 -15.1836,2.11931 -31.0438,1.74089 -45.875,-1.71875 -1.7129,-2.99157 -0.3674,-9.5797 -5.8437,-8.21875 z" />
  </g>
  <g
     inkscape:groupmode="layer"
     id="layer3"
     inkscape:label="3-Yellow"
     style="display:inline">
    <g
       id="g9997"
       transform="matrix(1.157645,0,0,1.1583839,378.6988,-73.965056)">
      <path
         style="fill:none;stroke:#ffe400;stroke-width:4.31773567;stroke-linecap:butt;stroke-linejoin:miter;stroke-miterlimit:4;stroke-dasharray:none;stroke-opacity:1"
         d="m 588.70698,245.05619 c -17.50797,-25.42349 -22.99211,-70.88192 -12.89139,-100.06177 4.66856,-13.48694 15.96077,-22.30416 15.96077,-36.83255"
         id="path9999"
         inkscape:connector-curvature="0" />
      <path
         style="fill:none;stroke:#ffe400;stroke-width:4.31773567;stroke-linecap:butt;stroke-linejoin:miter;stroke-miterlimit:4;stroke-dasharray:none;stroke-opacity:1"
         d="m 596.68737,244.44232 c 39.52269,-37.0147 6.68654,-55.09759 3.06938,-80.41775 -2.70812,-18.95683 -4.29713,-38.09863 -4.29713,-57.70433"
         id="path10001"
         inkscape:connector-curvature="0" />
      <path
         inkscape:connector-curvature="0"
         id="path10003"
         d="m 589.96319,245.05619 c -10.34249,-19.95117 -13.58214,-55.62482 -7.61534,-78.52381 2.75786,-10.58392 9.42851,-17.50326 9.42851,-28.90447"
         style="fill:none;stroke:#ffe400;stroke-width:4.31773567;stroke-linecap:butt;stroke-linejoin:miter;stroke-miterlimit:4;stroke-dasharray:none;stroke-opacity:1" />
      <path
         inkscape:connector-curvature="0"
         id="path10005"
         d="m 590.36503,244.44233 c 33.61254,-23.19588 5.68665,-34.52783 2.61039,-50.39513 -2.30315,-11.87961 -3.65455,-23.87514 -3.65455,-36.16138"
         style="fill:none;stroke:#ffe400;stroke-width:4.31773567;stroke-linecap:butt;stroke-linejoin:miter;stroke-miterlimit:4;stroke-dasharray:none;stroke-opacity:1" />
    </g>
    <g
       id="g10053"
       transform="matrix(1.157645,0,0,1.1583839,563.92201,-73.965056)">
      <path
         style="fill:none;stroke:#ffe400;stroke-width:4.31773567;stroke-linecap:butt;stroke-linejoin:miter;stroke-miterlimit:4;stroke-dasharray:none;stroke-opacity:1"
         d="m 588.70698,245.05619 c -17.50797,-25.42349 -22.99211,-70.88192 -12.89139,-100.06177 4.66856,-13.48694 15.96077,-22.30416 15.96077,-36.83255"
         id="path10055"
         inkscape:connector-curvature="0" />
      <path
         style="fill:none;stroke:#ffe400;stroke-width:4.31773567;stroke-linecap:butt;stroke-linejoin:miter;stroke-miterlimit:4;stroke-dasharray:none;stroke-opacity:1"
         d="m 596.68737,244.44232 c 39.52269,-37.0147 6.68654,-55.09759 3.06938,-80.41775 -2.70812,-18.95683 -4.29713,-38.09863 -4.29713,-57.70433"
         id="path10057"
         inkscape:connector-curvature="0" />
      <path
         inkscape:connector-curvature="0"
         id="path10059"
         d="m 589.96319,245.05619 c -10.34249,-19.95117 -13.58214,-55.62482 -7.61534,-78.52381 2.75786,-10.58392 9.42851,-17.50326 9.42851,-28.90447"
         style="fill:none;stroke:#ffe400;stroke-width:4.31773567;stroke-linecap:butt;stroke-linejoin:miter;stroke-miterlimit:4;stroke-dasharray:none;stroke-opacity:1" />
      <path
         inkscape:connector-curvature="0"
         id="path10061"
         d="m 590.36503,244.44233 c 33.61254,-23.19588 5.68665,-34.52783 2.61039,-50.39513 -2.30315,-11.87961 -3.65455,-23.87514 -3.65455,-36.16138"
         style="fill:none;stroke:#ffe400;stroke-width:4.31773567;stroke-linecap:butt;stroke-linejoin:miter;stroke-miterlimit:4;stroke-dasharray:none;stroke-opacity:1" />
    </g>
    <g
       transform="matrix(1.157645,0,0,1.1583839,749.14522,-73.965056)"
       id="g10067">
      <path
         inkscape:connector-curvature="0"
         id="path10069"
         d="m 588.70698,245.05619 c -17.50797,-25.42349 -22.99211,-70.88192 -12.89139,-100.06177 4.66856,-13.48694 15.96077,-22.30416 15.96077,-36.83255"
         style="fill:none;stroke:#ffe400;stroke-width:4.31773567;stroke-linecap:butt;stroke-linejoin:miter;stroke-miterlimit:4;stroke-dasharray:none;stroke-opacity:1" />
      <path
         inkscape:connector-curvature="0"
         id="path10071"
         d="m 596.68737,244.44232 c 39.52269,-37.0147 6.68654,-55.09759 3.06938,-80.41775 -2.70812,-18.95683 -4.29713,-38.09863 -4.29713,-57.70433"
         style="fill:none;stroke:#ffe400;stroke-width:4.31773567;stroke-linecap:butt;stroke-linejoin:miter;stroke-miterlimit:4;stroke-dasharray:none;stroke-opacity:1" />
      <path
         style="fill:none;stroke:#ffe400;stroke-width:4.31773567;stroke-linecap:butt;stroke-linejoin:miter;stroke-miterlimit:4;stroke-dasharray:none;stroke-opacity:1"
         d="m 589.96319,245.05619 c -10.34249,-19.95117 -13.58214,-55.62482 -7.61534,-78.52381 2.75786,-10.58392 9.42851,-17.50326 9.42851,-28.90447"
         id="path10073"
         inkscape:connector-curvature="0" />
      <path
         style="fill:none;stroke:#ffe400;stroke-width:4.31773567;stroke-linecap:butt;stroke-linejoin:miter;stroke-miterlimit:4;stroke-dasharray:none;stroke-opacity:1"
         d="m 590.36503,244.44233 c 33.61254,-23.19588 5.68665,-34.52783 2.61039,-50.39513 -2.30315,-11.87961 -3.65455,-23.87514 -3.65455,-36.16138"
         id="path10075"
         inkscape:connector-curvature="0" />
    </g>
    <g
       id="g10165"
       transform="matrix(1.157645,0,0,1.1583839,934.3685,-73.965056)">
      <path
         style="fill:none;stroke:#ffe400;stroke-width:4.31773567;stroke-linecap:butt;stroke-linejoin:miter;stroke-miterlimit:4;stroke-dasharray:none;stroke-opacity:1"
         d="m 588.70698,245.05619 c -17.50797,-25.42349 -22.99211,-70.88192 -12.89139,-100.06177 4.66856,-13.48694 15.96077,-22.30416 15.96077,-36.83255"
         id="path10167"
         inkscape:connector-curvature="0" />
      <path
         style="fill:none;stroke:#ffe400;stroke-width:4.31773567;stroke-linecap:butt;stroke-linejoin:miter;stroke-miterlimit:4;stroke-dasharray:none;stroke-opacity:1"
         d="m 596.68737,244.44232 c 39.52269,-37.0147 6.68654,-55.09759 3.06938,-80.41775 -2.70812,-18.95683 -4.29713,-38.09863 -4.29713,-57.70433"
         id="path10169"
         inkscape:connector-curvature="0" />
      <path
         inkscape:connector-curvature="0"
         id="path10171"
         d="m 589.96319,245.05619 c -10.34249,-19.95117 -13.58214,-55.62482 -7.61534,-78.52381 2.75786,-10.58392 9.42851,-17.50326 9.42851,-28.90447"
         style="fill:none;stroke:#ffe400;stroke-width:4.31773567;stroke-linecap:butt;stroke-linejoin:miter;stroke-miterlimit:4;stroke-dasharray:none;stroke-opacity:1" />
      <path
         inkscape:connector-curvature="0"
         id="path10173"
         d="m 590.36503,244.44233 c 33.61254,-23.19588 5.68665,-34.52783 2.61039,-50.39513 -2.30315,-11.87961 -3.65455,-23.87514 -3.65455,-36.16138"
         style="fill:none;stroke:#ffe400;stroke-width:4.31773567;stroke-linecap:butt;stroke-linejoin:miter;stroke-miterlimit:4;stroke-dasharray:none;stroke-opacity:1" />
    </g>
    <g
       transform="matrix(1.157645,0,0,1.1583839,1119.5916,-73.965056)"
       id="g10179">
      <path
         inkscape:connector-curvature="0"
         id="path10181"
         d="m 588.70698,245.05619 c -17.50797,-25.42349 -22.99211,-70.88192 -12.89139,-100.06177 4.66856,-13.48694 15.96077,-22.30416 15.96077,-36.83255"
         style="fill:none;stroke:#ffe400;stroke-width:4.31773567;stroke-linecap:butt;stroke-linejoin:miter;stroke-miterlimit:4;stroke-dasharray:none;stroke-opacity:1" />
      <path
         inkscape:connector-curvature="0"
         id="path10183"
         d="m 596.68737,244.44232 c 39.52269,-37.0147 6.68654,-55.09759 3.06938,-80.41775 -2.70812,-18.95683 -4.29713,-38.09863 -4.29713,-57.70433"
         style="fill:none;stroke:#ffe400;stroke-width:4.31773567;stroke-linecap:butt;stroke-linejoin:miter;stroke-miterlimit:4;stroke-dasharray:none;stroke-opacity:1" />
      <path
         style="fill:none;stroke:#ffe400;stroke-width:4.31773567;stroke-linecap:butt;stroke-linejoin:miter;stroke-miterlimit:4;stroke-dasharray:none;stroke-opacity:1"
         d="m 589.96319,245.05619 c -10.34249,-19.95117 -13.58214,-55.62482 -7.61534,-78.52381 2.75786,-10.58392 9.42851,-17.50326 9.42851,-28.90447"
         id="path10185"
         inkscape:connector-curvature="0" />
      <path
         style="fill:none;stroke:#ffe400;stroke-width:4.31773567;stroke-linecap:butt;stroke-linejoin:miter;stroke-miterlimit:4;stroke-dasharray:none;stroke-opacity:1"
         d="m 590.36503,244.44233 c 33.61254,-23.19588 5.68665,-34.52783 2.61039,-50.39513 -2.30315,-11.87961 -3.65455,-23.87514 -3.65455,-36.16138"
         id="path10187"
         inkscape:connector-curvature="0" />
    </g>
    <g
       transform="matrix(1.157645,0,0,1.1583839,1304.8148,-73.965056)"
       id="g10193">
      <path
         inkscape:connector-curvature="0"
         id="path10195"
         d="m 588.70698,245.05619 c -17.50797,-25.42349 -22.99211,-70.88192 -12.89139,-100.06177 4.66856,-13.48694 15.96077,-22.30416 15.96077,-36.83255"
         style="fill:none;stroke:#ffe400;stroke-width:4.31773567;stroke-linecap:butt;stroke-linejoin:miter;stroke-miterlimit:4;stroke-dasharray:none;stroke-opacity:1" />
      <path
         inkscape:connector-curvature="0"
         id="path10197"
         d="m 596.68737,244.44232 c 39.52269,-37.0147 6.68654,-55.09759 3.06938,-80.41775 -2.70812,-18.95683 -4.29713,-38.09863 -4.29713,-57.70433"
         style="fill:none;stroke:#ffe400;stroke-width:4.31773567;stroke-linecap:butt;stroke-linejoin:miter;stroke-miterlimit:4;stroke-dasharray:none;stroke-opacity:1" />
      <path
         style="fill:none;stroke:#ffe400;stroke-width:4.31773567;stroke-linecap:butt;stroke-linejoin:miter;stroke-miterlimit:4;stroke-dasharray:none;stroke-opacity:1"
         d="m 589.96319,245.05619 c -10.34249,-19.95117 -13.58214,-55.62482 -7.61534,-78.52381 2.75786,-10.58392 9.42851,-17.50326 9.42851,-28.90447"
         id="path10199"
         inkscape:connector-curvature="0" />
      <path
         style="fill:none;stroke:#ffe400;stroke-width:4.31773567;stroke-linecap:butt;stroke-linejoin:miter;stroke-miterlimit:4;stroke-dasharray:none;stroke-opacity:1"
         d="m 590.36503,244.44233 c 33.61254,-23.19588 5.68665,-34.52783 2.61039,-50.39513 -2.30315,-11.87961 -3.65455,-23.87514 -3.65455,-36.16138"
         id="path10201"
         inkscape:connector-curvature="0" />
    </g>
    <g
       id="g10207"
       transform="matrix(1.157645,0,0,1.1583839,1490.0381,-73.965056)">
      <path
         style="fill:none;stroke:#ffe400;stroke-width:4.31773567;stroke-linecap:butt;stroke-linejoin:miter;stroke-miterlimit:4;stroke-dasharray:none;stroke-opacity:1"
         d="m 588.70698,245.05619 c -17.50797,-25.42349 -22.99211,-70.88192 -12.89139,-100.06177 4.66856,-13.48694 15.96077,-22.30416 15.96077,-36.83255"
         id="path10209"
         inkscape:connector-curvature="0" />
      <path
         style="fill:none;stroke:#ffe400;stroke-width:4.31773567;stroke-linecap:butt;stroke-linejoin:miter;stroke-miterlimit:4;stroke-dasharray:none;stroke-opacity:1"
         d="m 596.68737,244.44232 c 39.52269,-37.0147 6.68654,-55.09759 3.06938,-80.41775 -2.70812,-18.95683 -4.29713,-38.09863 -4.29713,-57.70433"
         id="path10211"
         inkscape:connector-curvature="0" />
      <path
         inkscape:connector-curvature="0"
         id="path10213"
         d="m 589.96319,245.05619 c -10.34249,-19.95117 -13.58214,-55.62482 -7.61534,-78.52381 2.75786,-10.58392 9.42851,-17.50326 9.42851,-28.90447"
         style="fill:none;stroke:#ffe400;stroke-width:4.31773567;stroke-linecap:butt;stroke-linejoin:miter;stroke-miterlimit:4;stroke-dasharray:none;stroke-opacity:1" />
      <path
         inkscape:connector-curvature="0"
         id="path10215"
         d="m 590.36503,244.44233 c 33.61254,-23.19588 5.68665,-34.52783 2.61039,-50.39513 -2.30315,-11.87961 -3.65455,-23.87514 -3.65455,-36.16138"
         style="fill:none;stroke:#ffe400;stroke-width:4.31773567;stroke-linecap:butt;stroke-linejoin:miter;stroke-miterlimit:4;stroke-dasharray:none;stroke-opacity:1" />
    </g>
    <path
       style="color:#000000;display:inline;overflow:visible;visibility:visible;fill:none;stroke:#ffff00;stroke-width:5.54065704;stroke-linecap:round;stroke-linejoin:round;stroke-miterlimit:4;stroke-dashoffset:0;stroke-opacity:1;marker:none;enable-background:accumulate"
       d="m 1095.9802,714.8125 c 0,0 -50.7213,-2.59293 -52.8336,-8.3315 -2.2534,-6.12161 348.5601,8.3315 553.7087,8.3315 107.1392,0 -33.3865,-7.99771 -201.1017,-16.89847 -167.7018,-8.90004 -362.6394,-18.70526 -363.9687,-22.31672 -1.3998,-3.80277 282.8374,6.02387 569.4033,16.5621 286.5734,10.5385 575.4331,21.78737 583.8796,20.83045 9.6703,-1.09556 -279.6773,-13.76334 -571.8611,-26.73767 -292.1526,-12.97296 -587.1741,-26.25379 -588.0262,-28.56856 -0.9226,-2.5065 294.147,8.3996 589.6022,19.03934 295.4633,10.64003 591.3328,21.01432 592.647,17.44565 1.3826,-3.75479 -295.7972,-17.89625 -593.9039,-32.00062 -298.063,-14.1023 -597.0527,-28.16753 -598.3749,-31.75955 -1.3928,-3.78358 298.8416,6.69704 599.6684,17.03686 300.8281,10.33986 602.2599,20.53926 603.8602,16.19346 1.6688,-4.53194 -301.3527,-19.2976 -605.1931,-33.27837 -303.7988,-13.97885 -608.3699,-27.17103 -608.8762,-28.54642 -0.5767,-1.56674 304.4879,10.19575 609.6593,21.90145 305.1899,11.70642 610.4915,23.35621 611.1501,21.56763 0.7271,-1.97449 -280.0444,-14.52336 -554.7856,-26.9669 -274.7157,-12.44239 -543.3759,-24.77833 -517.6873,-26.32119 55.0933,-3.30889 67.8183,-2.91127 67.8183,-2.91127 0,0 -11.2557,-0.58708 -68.8189,2.87017 -30.6284,1.83954 237.9453,14.42201 513.8488,26.91339 275.9285,12.4925 559.1709,24.89316 558.6254,26.3747 -0.6132,1.66533 -305.9373,-10.04785 -611.1517,-21.7552 -305.1958,-11.70664 -610.2822,-23.40747 -609.6588,-21.71389 0.6931,1.88275 305.1785,15.3217 608.8816,29.29686 303.7449,13.97708 606.6763,28.4892 605.1892,32.52793 -1.5548,4.2225 -303.0089,-6.04032 -603.8615,-16.38113 -300.8513,-10.34077 -601.1075,-20.7597 -599.6679,-16.84919 1.5092,4.09977 300.4118,18.41194 598.3793,32.51056 298.0112,14.10068 595.1019,27.98841 593.9011,31.24962 -1.2686,3.44527 -297.1605,-6.9925 -592.6483,-17.63347 -295.4797,-10.64068 -590.5712,-21.48505 -589.6018,-18.85152 1.0392,2.82289 294.4399,16.28765 585.7318,29.22536 291.3233,12.93911 580.5824,25.35291 574.1569,26.08087 -7.6353,0.86501 -296.5179,-10.44737 -583.3069,-20.9947 -286.7816,-10.54706 -571.4236,-20.32771 -569.977,-16.39785 1.5166,4.11988 190.3673,13.92512 354.981,22.69805 164.6272,8.77364 305.0645,16.51714 210.0905,16.51714 -199.0664,0 -556.0561,-14.70753 -553.709,-8.3315 2.4867,6.75494 53.8314,8.3726 53.8314,8.3726 z m -59.6063,-121.90877 c 0,0 -36.58553,-1.50278 -36.58553,-1.50278 0,0 36.58553,1.50278 36.58553,1.50278 z m 1194.452,37.68789 c 0,0 -193.189,-8.06832 -385.7702,-16.513 -192.5676,-8.44409 -384.5415,-17.26525 -381.7502,-18.76862 6.2315,-3.35622 134.9299,1.80628 134.9299,1.80628 0,0 -129.2681,-5.43576 -135.9305,-1.84738 -3.6533,1.96764 188.5678,10.79911 381.6001,19.13738 193.0458,8.33886 386.9209,16.18534 386.9209,16.18534 z M 1412.44,596.9571 c 0,0 -120.5504,-5.45214 -73.2838,-6.74672 52.746,-1.44466 66.8412,-0.99065 66.8412,-0.99065 0,0 -11.447,-0.59506 -67.8419,0.94955 -61.8634,1.69437 74.2845,6.78782 74.2845,6.78782 z m 821.0989,26.26687 c 0,0 -148.5309,-6.23099 -295.7999,-13.01403 -147.2602,-6.78264 -293.2739,-14.11802 -288.0202,-16.3251 11.319,-4.75517 127.8462,-0.0945 127.8462,-0.0945 0,0 -116.9864,-4.92929 -128.8469,0.0534 -6.3371,2.66227 139.9239,10.00793 287.7047,16.68704 147.7893,6.6795 297.1161,12.6932 297.1161,12.6932 z m 3.881,-10.53933 c 0,0 -394.4545,-16.71228 -298.5424,-20.13104 100.8573,-3.59503 209.0194,0.72291 209.0194,0.72291 0,0 -105.9065,-4.47512 -210.0201,-0.76401 -108.9406,3.88315 299.5431,20.17214 299.5431,20.17214 z m 5.7063,-15.49619 c 0,0 -36.6162,-1.50421 -36.6162,-1.50421 0,0 36.6162,1.50421 36.6162,1.50421 z"
       id="path4509-3"
       inkscape:connector-curvature="0"
       inkscape:path-effect="#path-effect4548"
       inkscape:original-d="m 1218.9062,588.1875 c -39.9073,1.75363 -79.9529,-0.2494 -119.9062,0.96875 -0.9721,8.13059 -10.597,10.11426 -17.3932,9.57213 -14.7364,1.27447 -30.5923,1.97234 -44.4506,-3.35338 -1.6831,-2.528 0.087,-8.9589 -5.0312,-6.9375 -11.0812,0.94022 -22.2105,0.28132 -33.3125,0.3125 15.4688,42.02083 30.9375,84.04167 46.4063,126.0625 384.8645,0 769.7291,0 1154.5937,0 15.4583,-41.97917 30.9167,-83.95833 46.375,-125.9375 -11.9476,0.10503 -23.9051,-0.38297 -35.8437,0.25 -0.9433,8.1585 -10.5911,10.14531 -17.3932,9.60338 -14.7169,1.25288 -30.4338,1.98531 -44.3568,-3.32213 -1.401,-2.11989 -0.3535,-8.59499 -4.5938,-7 -39.6156,1.25794 -79.2569,-0.33498 -118.875,0.75 -0.9721,8.13059 -10.597,10.11426 -17.3932,9.57213 -14.7168,1.25288 -30.4338,1.98531 -44.3568,-3.32213 -1.4172,-2.17209 -0.3471,-8.59333 -4.5938,-7 -39.6166,1.2418 -79.2548,-0.27191 -118.875,0.6875 -0.9291,8.24149 -10.5782,10.14929 -17.3931,9.60338 -14.7156,1.36398 -30.4255,1.98203 -44.3569,-3.29088 -1.4009,-2.11989 -0.3534,-8.59499 -4.5937,-7 -39.6166,1.2418 -79.2548,-0.27191 -118.875,0.6875 -0.9262,8.22648 -10.5545,10.15059 -17.3622,9.60082 -14.7256,1.36567 -30.4464,1.98816 -44.3878,-3.28832 -1.4172,-2.17209 -0.3471,-8.59333 -4.5937,-7 -39.626,1.258 -79.2778,-0.33506 -118.9063,0.75 -0.9653,8.12618 -10.5781,10.10918 -17.3619,9.54088 -14.7156,1.36398 -30.4255,1.98203 -44.3568,-3.29088 -1.401,-2.11989 -0.3535,-8.59499 -4.5938,-7 -39.626,1.258 -79.2777,-0.33506 -118.9062,0.75 -0.9653,8.12618 -10.5781,10.10918 -17.362,9.54088 -14.7155,1.36398 -30.4254,1.98203 -44.3568,-3.29088 -1.5057,-1.87063 -0.2245,-7.4511 -3.5938,-7.21875 z" />
  </g>
  <g
     inkscape:groupmode="layer"
     id="layer1"
     inkscape:label="4-green"
     style="display:inline">
    <path
       style="color:#000000;fill:none;stroke:#008800;stroke-width:5.33047533;stroke-linecap:square;stroke-linejoin:round;stroke-miterlimit:4;stroke-opacity:1;stroke-dashoffset:0;marker:none;visibility:visible;display:inline;overflow:visible;enable-background:accumulate"
       d="m 1831.7098,590.18064 c 0,0 0.6034,-0.1836 0.6034,-4.60447 0,-4.84454 -20.278,6.08574 -29.3497,5.75081 -9.8073,-0.36209 29.3501,-21.47409 29.3501,-26.92023 0,-2.35339 -48.2722,16.64878 -48.2722,19.00217 -10e-5,-2.62909 48.2717,-28.66742 48.2716,-31.29652 0,-4.24298 -48.2713,21.80403 -48.2713,17.56104 0,0.30877 48.2719,-35.99591 48.2719,-36.30467 0,-0.17914 -48.2722,14.53394 -48.2722,14.71308 -10e-5,-4.15443 48.2714,-30.237 48.2713,-34.39142 0,-0.46502 -48.2729,20.92903 -48.2729,21.39405 0,0.91127 48.2733,-31.61516 48.2733,-32.52643 0,-1.25373 -48.2737,18.24734 -48.2737,19.50107 -2e-4,-3.17808 48.2737,-29.28383 48.2736,-32.46192 0,-4.62247 -48.2733,21.49218 -48.2733,16.86971 0,-0.33604 48.2736,-36.50966 48.2736,-36.17363 0,-1.67566 -48.2752,17.58542 -48.2752,19.26108 0,-1.83818 48.2745,-27.9794 48.2745,-29.81758 0,-1.28554 -48.2748,24.85944 -48.2748,23.57389 -10e-5,-2.60949 48.2754,-28.75535 48.2753,-31.36484 0,-1.26658 -48.2756,18.29623 -48.2756,19.56281 0,-0.23622 48.2751,-30.83582 48.2751,-30.59959 0,-0.87653 -48.2755,22.22358 -48.2755,23.10011 -10e-5,-1.51235 48.2756,-27.67974 48.2755,-29.1921 0,-0.97931 -48.2758,22.41389 -48.2758,23.39321 10e-5,0.99518 48.276,-28.84084 48.276,-29.83602 0,1.04212 -48.2751,18.63236 -48.2751,17.59024 -10e-5,-1.27204 48.2751,-36.44642 48.2752,-35.17438 0,0.52914 -48.2761,18.37907 -48.2761,17.84992 -2e-4,-4.47391 48.2764,-30.68483 48.2762,-35.15874 0,-2.34895 -48.2777,23.8713 -48.2777,21.52235 10e-5,1.64532 48.2779,-29.62334 48.2778,-31.26866 0,-0.64286 -48.2777,17.68017 -48.2777,18.32303 -10e-5,-0.61692 48.2773,-33.09623 48.2773,-32.47931 0,-2.14462 -48.2782,24.09973 -48.2782,21.95511 10e-5,0.62778 48.2783,-30.44459 48.2783,-31.07237 0,-0.91072 -48.2786,20.22954 -48.2786,21.14026 10e-5,1.97847 48.2797,-32.3842 48.2796,-34.36267 0,-2.94091 -48.2803,16.29646 -48.2803,19.23737 0,-1.3741 48.2791,-27.64796 48.2791,-29.02207 0,1.42743 -48.2783,20.5066 -48.2783,19.07918 0,-1.2357 48.2785,-35.96324 48.2785,-34.72754 0,-1.05646 -48.28,20.53037 -48.28,21.58682 10e-5,1.80575 48.2808,-31.55865 48.2807,-33.3644 0,-0.66568 -48.2805,15.44518 -48.2805,16.11086 -2e-4,-5.39212 48.281,-31.71455 48.2808,-37.10666 0,-2.01886 -48.2822,15.6552 -48.2822,17.67406 0,-0.73377 48.2809,-31.08907 48.2809,-30.3553 0,0.0782 -48.2812,22.86254 -48.2812,22.78435 0,-0.61024 48.2812,-30.31352 48.2812,-29.70328 0,-0.0456 -48.2815,23.40636 -48.2815,23.45202 0,0.18562 48.2817,-30.20804 48.2817,-30.39367 0,-2.80467 -48.2817,23.55644 -48.2817,20.75178 -2e-4,-3.5811 48.2821,-29.94938 48.282,-33.53048 0,-4.15104 -48.2822,22.22595 -48.2822,18.07492 -10e-5,-1.55156 48.2817,-33.92299 48.2818,-32.37143 0,0.89549 -48.2824,21.7535 -48.2824,20.85802 -2e-4,-4.09098 42.4629,-27.30614 26.0647,-22.59557 -18.0545,5.18636 -26.0643,9.56515 -26.0593,5.52573 0.01,-4.4696 -0.1327,-4.5377 -0.1327,-4.5377 0,0 -0.734,0.25857 -0.74,5.01484 -0.01,5.18623 12.4203,-1.60775 26.0595,-5.52573 15.2947,-4.39352 -26.0655,18.21832 -26.0655,22.59557 0,2.04104 48.2831,-18.81697 48.2831,-20.85802 10e-5,-1.83788 -48.2829,30.53355 -48.283,32.37143 0,1.10873 48.2829,-16.9662 48.2829,-18.07492 0,-0.10955 -48.2832,33.42093 -48.2832,33.53048 0,1.31518 48.2824,-19.4366 48.2824,-20.75178 0,-0.10039 -48.2827,30.29328 -48.2827,30.39367 0,1.09824 48.2823,-22.35378 48.2823,-23.45202 10e-5,-0.89618 -48.2822,28.8071 -48.2823,29.70328 0,1.22177 48.2821,-21.56257 48.2821,-22.78435 10e-5,-1.01962 -48.2819,29.33567 -48.282,30.3553 0,-0.87575 48.2828,-18.54981 48.2828,-17.67406 0,0.24325 -48.2822,37.34991 -48.2821,37.10666 0,0.47649 48.2811,-15.63437 48.2811,-16.11086 -10e-5,1.52031 -48.282,34.88471 -48.2819,33.3644 0,0.085 48.2807,-21.50179 48.2807,-21.58682 10e-5,-1.52099 -48.2796,33.20655 -48.2797,34.72754 0,2.56823 48.279,-16.51094 48.279,-19.07918 0,0.0849 -48.2801,29.10701 -48.2801,29.02207 0,-1.80056 48.2809,-21.03793 48.2809,-19.23737 0,1.69347 -48.2808,36.05614 -48.2808,34.36267 0,0.22897 48.2794,-20.91129 48.2794,-21.14026 0,0.34291 -48.2794,31.41528 -48.2794,31.07237 0,0.35252 48.2789,-21.60259 48.2789,-21.95511 10e-5,-0.90167 -48.2785,31.57764 -48.2785,32.47931 0,0.49581 48.2784,-17.82722 48.2784,-18.32303 0,1.36073 -48.279,32.62939 -48.2789,31.26866 0,-0.7583 48.2785,-22.28064 48.2785,-21.52235 0,-0.94069 -48.2775,34.21805 -48.2775,35.15874 0,1.66657 48.2767,-16.18336 48.2767,-17.84992 10e-5,-1.5563 -48.2764,33.61809 -48.2764,35.17438 0,2.17873 48.2757,-15.41151 48.2757,-17.59024 0,0.71109 -48.277,30.54711 -48.277,29.83602 0,0.15686 48.2766,-23.23635 48.2766,-23.39321 0,0.14627 -48.2766,29.33837 -48.2766,29.1921 0,0.25937 48.2764,-22.84074 48.2764,-23.10011 -10e-5,2.21906 -48.2761,28.38053 -48.2762,30.59959 0,3.29608 48.2763,-22.85889 48.2763,-19.56281 -10e-5,2.60929 -48.2764,28.75555 -48.2765,31.36484 0,1.28468 48.2756,-24.85856 48.2756,-23.57389 0,1.83798 -48.2754,27.97961 -48.2755,29.81758 0,3.4374 48.2759,-22.69847 48.2759,-19.26108 -2e-4,5.02349 -48.2747,31.15014 -48.2749,36.17363 0,4.62171 48.2739,-21.49142 48.2739,-16.86971 -10e-5,3.1779 -48.2747,29.28403 -48.2748,32.46192 0,3.29952 48.2744,-22.80059 48.2744,-19.50107 -10e-5,3.21734 -48.2743,29.30909 -48.2744,32.52643 0,2.34586 48.2736,-23.73991 48.2736,-21.39405 -10e-5,4.15424 -48.2723,30.23717 -48.2725,34.39142 0,5.67736 48.2727,-20.39044 48.2727,-14.71308 -2e-4,5.12365 -48.273,31.18102 -48.2732,36.30467 0,4.24222 48.2719,-21.80326 48.2719,-17.56104 -10e-5,2.6289 -48.2726,28.66763 -48.2727,31.29652 0,3.51661 48.2729,-22.51878 48.2729,-19.00217 -2e-4,5.16345 -39.6487,26.54004 -29.3511,26.92023 11.0332,0.40734 29.3501,-9.46558 29.3499,-5.75081 -1e-4,4.13843 0.2818,4.12733 0.2818,4.12733 z m 179.345,0.8628 c 0,0 6.4767,-3.3494 6.4767,-6.46406 0,-3.53833 -19.7697,7.11817 -21.9994,7.15677 -3.0417,0.0527 22,-13.44607 22.0001,-18.58395 0,-5.56176 -42.0736,17.12412 -45.0063,13.72491 -3.1821,-3.68838 45.0055,-29.68081 45.0055,-32.16569 0,1.0777 -48.2705,19.14708 -48.2705,18.06938 0,-0.22251 48.2712,-36.80862 48.2712,-36.58611 0,-0.11775 -48.2719,15.24762 -48.2719,15.36537 0,-0.51942 48.2718,-36.87131 48.2718,-36.3519 0,-0.36331 -48.2729,16.36582 -48.2729,16.72913 0,-1.6474 48.2721,-33.93159 48.2722,-32.28419 0,0.63003 -48.273,21.72937 -48.273,21.09935 10e-5,1.07691 48.2741,-34.2971 48.2741,-35.37401 0,-1.32672 -48.2746,15.17793 -48.2746,16.50465 -2e-4,-3.25118 48.2738,-29.38104 48.2737,-32.63222 0,-2.24866 -48.2746,23.88726 -48.2746,21.6386 -10e-5,-3.98323 48.2758,-30.12148 48.2757,-34.10472 0,-5.93196 -48.2752,20.221 -48.2752,14.28904 -3e-4,-5.79072 48.2752,-31.95582 48.275,-37.74654 0,-4.91127 -48.2765,21.26728 -48.2765,16.35601 -1e-4,-2.57958 48.2755,-28.76674 48.2754,-31.34632 0,-3.09407 -48.2754,23.09436 -48.2754,20.00028 -2e-4,-5.6552 48.2769,-31.85486 48.2767,-37.51006 0,-5.92507 -48.2773,20.28907 -48.2773,14.364 -2e-4,-5.0113 48.2768,-31.23739 48.2766,-36.24869 0,-4.76712 -48.2775,21.46863 -48.2775,16.70151 -2e-4,-5.5723 48.2783,-31.81872 48.2781,-37.39102 0,-5.61615 -48.2789,20.64432 -48.2789,15.02816 -2e-4,-5.46385 48.279,-31.73496 48.2788,-37.19882 0,-4.16849 -48.2803,22.11657 -48.2803,17.94808 -10e-5,-4.3972 48.2806,-30.6858 48.2805,-35.08299 0,-4.57373 -48.2811,21.73065 -48.2811,17.15691 -10e-5,-4.00756 48.2808,-30.31661 48.2806,-34.32416 0,-3.73039 -48.2812,22.5915 -48.2812,18.86112 -2e-4,-4.05199 48.2816,-30.37715 48.2815,-34.42914 0,-3.54741 -48.2822,22.79276 -48.2822,19.24534 -10e-5,-3.01093 48.2819,-29.35169 48.2818,-32.36263 0,-2.80512 -48.2823,23.54816 -48.2823,20.74304 -10e-5,-3.33351 48.2828,-29.68626 48.2827,-33.01977 0,-3.27216 -48.2832,23.09613 -48.2832,19.82396 -10e-5,-2.51763 48.2827,-28.88514 48.2826,-31.40277 0,-3.58281 -48.2827,22.79564 -48.2827,19.21283 -10e-5,-3.01404 48.2825,-29.39823 48.2824,-32.41227 0,-4.52532 -48.2819,21.86535 -48.2819,17.34004 -2e-4,-6.01566 18.1902,-15.96064 13.7506,-15.63636 -5.3468,0.39053 -13.7517,4.98594 -13.7518,1.34248 -2e-4,-4.07317 0.3706,-4.41955 0.3706,-4.41955 0,0 -1.2433,0.53705 -1.2433,4.89669 0,4.78933 10.824,-1.12863 13.7518,-1.34248 3.8349,-0.28011 -13.7511,9.3344 -13.7511,15.63636 0,2.20628 48.2825,-15.13376 48.2825,-17.34004 -10e-5,3.01384 -48.2834,29.39843 -48.2835,32.41227 0,3.58199 48.2834,-22.79482 48.2834,-19.21283 -10e-5,2.51742 -48.2837,28.88535 -48.2838,31.40278 0,3.27133 48.2839,-23.0953 48.2839,-19.82397 -10e-5,2.06066 -48.2839,35.08044 -48.2839,33.01977 0,-1.10319 48.283,-21.84623 48.283,-20.74304 0,1.32595 -48.283,33.68858 -48.2829,32.36263 0,-1.43331 48.2829,-20.67865 48.2829,-19.24534 -10e-5,1.35703 -48.2828,35.78617 -48.2828,34.42914 0,-0.6068 48.282,-19.46792 48.282,-18.86112 -1e-4,0.75771 -48.2819,35.08187 -48.2818,34.32416 0,-0.89535 48.2816,-18.05226 48.2816,-17.15691 -10e-5,4.39701 -48.2816,30.68597 -48.2817,35.08299 0,4.1677 48.2809,-22.11578 48.2809,-17.94808 0,-0.025 -48.2801,37.17381 -48.2801,37.19882 0,5.61543 48.2795,-20.64358 48.2795,-15.02816 -2e-4,5.57214 -48.2794,31.81888 -48.2796,37.39102 0,1.06164 48.2782,-15.63987 48.2782,-16.70151 -2e-4,5.01113 -48.2778,31.23756 -48.278,36.24869 0,0.39243 48.2779,-13.97157 48.2779,-14.364 0,0.30403 -48.2781,37.8141 -48.2781,37.51006 0,2.68311 48.2761,-17.31717 48.2761,-20.00028 -10e-5,2.57937 -48.2763,28.76695 -48.2764,31.34632 0,4.91052 48.2771,-21.26653 48.2771,-16.35601 -2e-4,5.79057 -48.2763,31.95597 -48.2765,37.74654 0,0.57615 48.2758,-13.71288 48.2758,-14.28904 -10e-5,1.79862 -48.277,35.90334 -48.2769,34.10472 0,0.36131 48.2753,-21.2773 48.2753,-21.6386 0,-0.9389 -48.2748,31.69332 -48.2749,32.63222 0,4.80792 48.2753,-21.31257 48.2753,-16.50465 -2e-4,4.63274 -48.2752,30.74126 -48.2754,35.37401 0,1.76325 48.2738,-19.33609 48.2738,-21.09935 0,-1.93064 -48.2733,30.35355 -48.2734,32.28419 0,4.67871 48.2735,-21.40784 48.2735,-16.72913 -2e-4,5.13684 -48.2729,31.21506 -48.2731,36.3519 0,5.34944 48.2725,-20.71482 48.2725,-15.36537 0,-0.50531 -48.2726,36.0808 -48.2726,36.58611 0,3.98576 48.2712,-22.05514 48.2712,-18.06938 -10e-5,2.20208 -48.355,28.28454 -45.0067,32.16569 3.5979,4.17032 45.0069,-18.15633 45.0068,-13.72491 -2e-4,4.8553 -25.5838,18.64599 -22.0008,18.58395 4.3951,-0.0761 21.9998,-9.56528 21.9997,-7.15677 -10e-5,2.8322 -5.5916,5.98692 -5.5916,5.98692 z m -20.7631,-355.32689 c 0,0 14.3757,-7.86227 14.3757,-7.86227 0,0 -14.3757,7.86227 -14.3757,7.86227 z m 200.6052,355.92177 c 0,0 11.8532,-6.24757 11.8532,-7.77009 0,-1.94622 -17.8997,7.70224 -27.6083,7.46565 -10.4605,-0.25493 27.6083,-20.78021 27.6083,-22.89603 0,-2.53979 -44.6713,21.54814 -46.2423,20.45619 -1.9143,-1.33053 46.2434,-27.30137 46.2434,-33.0764 0,-1.07781 -48.272,14.72463 -48.272,15.80245 0,-0.40755 48.2712,-34.58196 48.2713,-34.17441 0,-3.6529 -48.2721,22.41016 -48.2721,18.75726 1e-4,0.67629 48.2725,-34.0523 48.2725,-34.7286 0,-1.96881 -48.2734,17.18991 -48.2734,19.15871 0,-0.1438 48.2726,-29.77555 48.2726,-29.63174 0,-0.72047 -48.2729,22.70099 -48.2729,23.42146 0,1.95495 48.2737,-30.12199 48.2737,-32.07695 0,-3.29065 -48.2741,22.81257 -48.2741,19.52192 -10e-5,-2.02071 48.2735,-28.12589 48.2734,-30.14661 0,-0.39378 -48.2736,20.83554 -48.2736,21.22933 -10e-5,-2.99471 48.2739,-29.11039 48.2738,-32.10509 0,-4.17327 -48.2737,21.95048 -48.2737,17.77722 -1e-4,-4.6769 48.2742,-30.81105 48.274,-35.48794 0,-3.44934 -48.2752,22.69561 -48.2752,19.24627 -2e-4,-3.75828 48.2756,-29.90661 48.2754,-33.66489 0,-0.80547 -48.2755,15.82692 -48.2755,16.63239 -2e-4,-4.98169 48.2759,-31.15116 48.2757,-36.13284 0,-1.02177 -48.2765,15.19324 -48.2765,16.21502 -1e-4,-5.23257 48.2769,-31.42362 48.2767,-36.65619 0,-5.26561 -48.2774,20.93995 -48.2774,15.67434 0,0.60869 48.2773,-35.72947 48.2773,-36.33816 0,-3.98486 -48.2785,22.2433 -48.2785,18.25844 -10e-5,-2.47246 48.2776,-28.70416 48.2775,-31.17662 0,-3.96447 -48.2771,22.27298 -48.2771,18.30851 0,-0.4922 48.2775,-36.32033 48.2775,-35.82813 0,-0.80829 -48.2787,17.61718 -48.2787,18.42547 0,-0.19509 48.2784,-33.14246 48.2784,-32.94737 0,0.31429 -48.2786,18.81245 -48.2786,18.49816 -2e-4,-4.95106 48.2795,-31.23428 48.2793,-36.18534 0,-2.37639 -48.2807,17.27001 -48.2807,19.6464 1e-4,2.32145 48.2811,-31.37099 48.281,-33.69244 0,-4.37912 -48.2813,21.93339 -48.2813,17.55427 0,-0.85702 48.28,-30.93627 48.28,-30.07925 0,-2.34576 -48.2801,23.97358 -48.2801,21.62781 -1e-4,-3.58569 48.2807,-29.91325 48.2805,-33.49894 0,-3.68003 -48.2809,22.65565 -48.2809,18.97562 0,0.14581 48.2811,-34.20048 48.2811,-34.34629 0,-1.98869 -48.2822,19.18934 -48.2822,21.17803 0,-1.56444 48.2818,-27.91927 48.2817,-29.48372 0,-0.0977 -48.2817,21.39724 -48.2817,21.49498 0,-0.7965 48.2816,-31.09674 48.2816,-30.30024 0,1.57715 -48.2812,21.59125 -48.2812,20.0141 -1e-4,-4.0777 48.2816,-30.45816 48.2815,-34.53587 0,-0.81179 -48.2828,20.39415 -48.2828,21.20594 -1e-4,-2.20793 48.4223,-28.67559 44.1715,-30.7119 -4.6698,-2.237 -44.1719,19.36073 -44.1719,17.2293 -10e-5,-2.56098 12.0611,-9.15481 9.6662,-9.72081 -2.9432,-0.69556 -10.5395,4.03018 -10.5395,4.03018 0,0 8.1869,-3.9028 9.6668,-3.55304 2.0291,0.47954 -9.6665,6.87347 -9.6665,9.72081 0,3.27689 40.62,-18.93109 44.1725,-17.2293 3.9714,1.9025 -44.1726,28.21776 -44.1726,30.7119 0,2.5898 48.2836,-23.79573 48.2836,-21.20594 -2e-4,4.07752 -48.2826,30.45835 -48.2828,34.53587 0,3.1761 48.282,-23.1902 48.282,-20.0141 -1e-4,1.96677 -48.2826,28.33346 -48.2827,30.30024 0,2.43174 48.2825,-23.92672 48.2825,-21.49498 -1e-4,1.56423 -48.2827,27.9195 -48.2828,29.48372 0,2.58726 48.2829,-23.76529 48.2829,-21.17803 -10e-5,4.00114 -48.2822,30.34516 -48.2823,34.34629 0,3.67922 48.2816,-22.65484 48.2816,-18.97562 -1e-4,3.5855 -48.2816,29.91344 -48.2817,33.49894 0,2.34491 48.2809,-23.97272 48.2809,-21.62781 -10e-5,1.8806 -48.2811,28.19865 -48.2811,30.07925 0,4.37834 48.2819,-21.93261 48.2819,-17.55427 -1e-4,3.69765 -48.282,29.9948 -48.2822,33.69244 0,3.32422 48.2814,-22.97062 48.2814,-19.6464 0,0.0363 -48.2806,36.22166 -48.2806,36.18534 0,1.45485 48.2793,-17.04331 48.2793,-18.49816 0,-0.48015 -48.2796,32.46722 -48.2796,32.94737 0,0.33159 48.2794,-18.09388 48.2794,-18.42547 0,-0.77707 -48.2788,35.05106 -48.2788,35.82813 0,2.02916 48.2778,-16.27935 48.2778,-18.30851 0,-0.10989 -48.2787,31.06674 -48.2787,31.17662 0,-0.97495 48.2791,-19.23339 48.2791,-18.25844 0,0.32418 -48.2786,36.66234 -48.2785,36.33816 0,-0.10091 48.2779,-15.77525 48.2779,-15.67434 0,0.56032 -48.278,37.2165 -48.278,36.65619 0,0.11483 48.2771,-16.10019 48.2771,-16.21502 0,0.31329 -48.2771,36.44613 -48.2771,36.13284 0,0.33021 48.2762,-16.30217 48.2762,-16.63239 0,1.10164 -48.2767,34.76654 -48.2767,33.66489 0,-0.3669 48.276,-19.61318 48.276,-19.24627 0,-0.43563 -48.2753,35.05231 -48.2753,35.48794 0,1.36469 48.2744,-16.41253 48.2744,-17.77722 -10e-5,0.23923 -48.2751,32.34432 -48.2751,32.10509 0,0.7398 48.2744,-20.48952 48.2744,-21.22933 0,0.10532 -48.2745,30.25192 -48.2745,30.14661 0,-0.94974 48.2748,-20.47166 48.2748,-19.52192 0,1.67174 -48.2749,33.74869 -48.2749,32.07695 0,0.41219 48.2738,-23.00927 48.2738,-23.42146 0,-0.42693 -48.2736,29.20481 -48.2736,29.63174 0,-0.83653 48.2741,-19.99525 48.2741,-19.15871 -1e-4,0.39332 -48.2738,35.12192 -48.2738,34.7286 0,0.70745 48.2728,-18.04981 48.2728,-18.75726 0,-0.69034 -48.2725,33.48406 -48.2725,34.17441 0,0.0529 48.2725,-15.7495 48.2725,-15.80245 -2e-4,5.49224 -48.3876,31.58681 -46.2446,33.0764 2.4863,1.72819 46.2432,-21.86542 46.2431,-20.45619 0,1.83318 -38.5709,22.62889 -27.6091,22.89603 11.7137,0.28546 27.6085,-8.28201 27.6085,-7.46565 -10e-5,1.24005 -10.9681,7.29295 -10.9681,7.29295 z"
       id="path10099-6"
       inkscape:connector-curvature="0"
       inkscape:path-effect="#path-effect4386"
       inkscape:original-d="m 1817.8438,227.94449 c -8.5486,2.48135 -15.4896,13.94303 -25.1563,9.73179 -3.0563,-0.003 -8.1991,-4.38959 -9.5313,-2.59278 0,118.33234 1e-4,236.66468 0,354.99702 16.2419,3.10512 32.8956,2.73126 49.1563,0 0,-119.4097 0,-238.8194 0,-358.22911 -4.5243,-2.07975 -9.446,-4.49693 -14.4687,-3.90692 z m 185.2187,0 c -8.5485,2.48135 -15.4896,13.94303 -25.1563,9.73179 -3.0562,-0.003 -8.1991,-4.38959 -9.5312,-2.59278 0,118.33234 0,236.66468 0,354.99702 16.2411,3.09407 32.8976,2.74872 49.1562,0 1e-4,-119.4097 0,-238.8194 0,-358.22911 -4.5243,-2.07975 -9.4459,-4.49693 -14.4687,-3.90692 z m 185.2187,0 c -8.5485,2.48135 -15.4895,13.94303 -25.1562,9.73179 -3.0563,-0.003 -8.1991,-4.38959 -9.5312,-2.59278 -1e-4,118.33234 0,236.66468 0,354.99702 16.241,3.09407 32.8976,2.74872 49.1562,0 0,-119.4097 0,-238.8194 0,-358.22911 -4.5243,-2.07975 -9.446,-4.49693 -14.4688,-3.90692 z" />
  </g>
</svg>
