<?xml version="1.0" encoding="UTF-8" standalone="no"?>
<!-- Created with Inkscape (http://www.inkscape.org/) -->

<svg
   xmlns:dc="http://purl.org/dc/elements/1.1/"
   xmlns:cc="http://creativecommons.org/ns#"
   xmlns:rdf="http://www.w3.org/1999/02/22-rdf-syntax-ns#"
   xmlns:svg="http://www.w3.org/2000/svg"
   xmlns="http://www.w3.org/2000/svg"
   xmlns:sodipodi="http://sodipodi.sourceforge.net/DTD/sodipodi-0.dtd"
   xmlns:inkscape="http://www.inkscape.org/namespaces/inkscape"
   width="3200"
   height="800"
   id="svg27345"
   version="1.1"
   inkscape:version="0.48+devel+osxmenu r12773"
   sodipodi:docname="hearts.svg">
  <sodipodi:namedview
     id="base"
     pagecolor="#ffffff"
     bordercolor="#666666"
     borderopacity="1.0"
     inkscape:pageopacity="0.0"
     inkscape:pageshadow="2"
     inkscape:zoom="0.329375"
     inkscape:cx="1600"
     inkscape:cy="400"
     inkscape:document-units="px"
     inkscape:current-layer="layer1"
     showgrid="false"
     inkscape:window-width="1436"
     inkscape:window-height="855"
     inkscape:window-x="1"
     inkscape:window-y="23"
     inkscape:window-maximized="0" />
  <defs
     id="defs27347">
    <inkscape:path-effect
       effect="rough_hatches"
       id="path-effect31017"
       is_visible="true"
       direction="1625.1104,648.38996 , 33.717778,21.252372"
       dist_rdm="0;1"
       growth="0"
       do_bend="true"
       bender="1625.1104,653.38996 , 5,0"
       bottom_edge_variation="0;1"
       top_edge_variation="0;1"
       bottom_tgt_variation="0;1"
       top_tgt_variation="0;1"
       scale_bf="2"
       scale_bb="2"
       scale_tf="2"
       scale_tb="2"
       top_smth_variation="0;1"
       bottom_smth_variation="0;1"
       fat_output="false"
       stroke_width_top="1"
       stroke_width_bottom="1"
       front_thickness="1"
       back_thickness="0.25" />
    <inkscape:perspective
       id="perspective27353"
       inkscape:persp3d-origin="372.04724 : 350.78739 : 1"
       inkscape:vp_z="744.09448 : 526.18109 : 1"
       inkscape:vp_y="0 : 1000 : 0"
       inkscape:vp_x="0 : 526.18109 : 1"
       sodipodi:type="inkscape:persp3d" />
  </defs>
  <metadata
     id="metadata27350">
    <rdf:RDF>
      <cc:Work
         rdf:about="">
        <dc:format>image/svg+xml</dc:format>
        <dc:type
           rdf:resource="http://purl.org/dc/dcmitype/StillImage" />
        <dc:title></dc:title>
      </cc:Work>
    </rdf:RDF>
  </metadata>
  <g
     transform="translate(0,-252.36218)"
     id="layer1"
     inkscape:groupmode="layer"
     inkscape:label="Layer 1">
    <path
       sodipodi:nodetypes="czczc"
       inkscape:connector-curvature="0"
       id="path30810"
       d="m 332.28567,794.91067 c 0,0 46.82689,-77.29315 95.41468,-34.66117 48.58779,42.63199 -95.41468,156.51415 -95.41468,156.51415 0,0 -137.11705,-116.1426 -88.49094,-156.51415 48.62608,-40.37156 88.49094,34.66117 88.49094,34.66117 z"
       style="fill:none;fill-rule:evenodd;stroke:#000000;stroke-width:0.99999994px;stroke-linecap:butt;stroke-linejoin:miter;stroke-opacity:1" />
    <path
       style="fill:none;fill-rule:evenodd;stroke:#000000;stroke-width:1px;stroke-linecap:butt;stroke-linejoin:miter;stroke-opacity:1"
       d="m 131.58353,396.73863 c 0,0 12.87,-118.52974 94.72841,-94.64482 81.85842,23.88492 -26.76981,240.34645 -26.76981,240.34645 0,0 -228.684419,-62.42197 -193.0720808,-137.80713 C 42.082339,329.248 131.58353,396.73863 131.58353,396.73863 Z"
       id="path30812"
       inkscape:connector-curvature="0"
       sodipodi:nodetypes="czczc" />
    <path
       sodipodi:nodetypes="czczc"
       inkscape:connector-curvature="0"
       id="path30814"
       d="m 731.93292,438.8117 c 0,0 91.42523,-76.52688 133.88232,-2.57633 42.45709,73.95057 -185.87089,154.70958 -185.87089,154.70958 0,0 -121.59373,-203.48963 -43.67535,-233.15252 77.91833,-29.6629 95.66392,81.01927 95.66392,81.01927 z"
       style="fill:none;fill-rule:evenodd;stroke:#000000;stroke-width:1px;stroke-linecap:butt;stroke-linejoin:miter;stroke-opacity:1" />
    <path
       style="fill:none;fill-rule:evenodd;stroke:#000000;stroke-width:0.99999994px;stroke-linecap:butt;stroke-linejoin:miter;stroke-opacity:1"
       d="m 1107.9372,469.00666 c 0,0 46.8269,-77.29315 95.4147,-34.66117 48.5878,42.63199 -95.4147,156.51415 -95.4147,156.51415 0,0 -137.11704,-116.1426 -88.4909,-156.51415 48.626,-40.37156 88.4909,34.66117 88.4909,34.66117 z"
       id="path30816"
       inkscape:connector-curvature="0"
       sodipodi:nodetypes="czczc" />
    <path
       sodipodi:nodetypes="czczc"
       inkscape:connector-curvature="0"
       id="path30818"
       d="m 495.23766,560.25978 c 0,0 46.8269,-77.29315 95.4147,-34.66117 48.5878,42.63199 -95.4147,156.51415 -95.4147,156.51415 0,0 -137.11704,-116.1426 -88.4909,-156.51415 48.626,-40.37156 88.4909,34.66117 88.4909,34.66117 z"
       style="fill:none;fill-rule:evenodd;stroke:#000000;stroke-width:0.99999994px;stroke-linecap:butt;stroke-linejoin:miter;stroke-opacity:1" />
    <path
       style="fill:none;fill-rule:evenodd;stroke:#000000;stroke-width:0.99999994px;stroke-linecap:butt;stroke-linejoin:miter;stroke-opacity:1"
       d="m 775.51511,886.16379 c 0,0 46.8269,-77.29315 95.4147,-34.66117 48.5878,42.63199 -95.4147,156.51418 -95.4147,156.51418 0,0 -137.11704,-116.14263 -88.4909,-156.51418 48.626,-40.37156 88.4909,34.66117 88.4909,34.66117 z"
       id="path30820"
       inkscape:connector-curvature="0"
       sodipodi:nodetypes="czczc" />
    <path
       sodipodi:nodetypes="czczc"
       inkscape:connector-curvature="0"
       id="path30822"
       d="m 1533.1122,381.91785 c 0,0 25.2308,-41.60802 51.4103,-18.65861 26.1796,22.94942 -51.4103,84.25386 -51.4103,84.25386 0,0 -73.8799,-62.52127 -47.6797,-84.25386 26.2001,-21.7326 47.6797,18.65861 47.6797,18.65861 z"
       style="fill:none;fill-rule:evenodd;stroke:#000000;stroke-width:0.99999994px;stroke-linecap:butt;stroke-linejoin:miter;stroke-opacity:1" />
    <path
       sodipodi:nodetypes="czczc"
       inkscape:connector-curvature="0"
       id="path30824"
       d="m 1279.2116,852.1466 c 0,0 12.87,-118.52974 94.7284,-94.64482 81.8585,23.88492 -26.7698,240.34647 -26.7698,240.34647 0,0 -228.6844,-62.42199 -193.072,-137.80715 35.6122,-75.38513 125.1134,-7.8945 125.1134,-7.8945 z"
       style="fill:none;fill-rule:evenodd;stroke:#000000;stroke-width:1px;stroke-linecap:butt;stroke-linejoin:miter;stroke-opacity:1" />
    <path
       sodipodi:nodetypes="czczc"
       inkscape:connector-curvature="0"
       id="path30818-9"
       d="m 2052.1756,554.25958 c 0,0 68.4009,-112.9418 139.3741,-50.64737 70.9731,62.29444 -139.3741,228.70057 -139.3741,228.70057 0,0 -200.2896,-169.70912 -129.2604,-228.70057 71.029,-58.99147 129.2604,50.64737 129.2604,50.64737 z"
       style="fill:none;fill-rule:evenodd;stroke:#000000;stroke-width:1px;stroke-linecap:butt;stroke-linejoin:miter;stroke-opacity:1" />
    <path
       sodipodi:nodetypes="czczc"
       inkscape:connector-curvature="0"
       id="path30818-0"
       d="m 2507.5639,389.67944 c 0,0 46.8269,-77.29315 95.4147,-34.66117 48.5878,42.63199 -95.4147,156.51414 -95.4147,156.51414 0,0 -137.1171,-116.14259 -88.4909,-156.51414 48.626,-40.37156 88.4909,34.66117 88.4909,34.66117 z"
       style="fill:none;fill-rule:evenodd;stroke:#000000;stroke-width:0.99999994px;stroke-linecap:butt;stroke-linejoin:miter;stroke-opacity:1" />
    <path
       sodipodi:nodetypes="czczc"
       inkscape:connector-curvature="0"
       id="path30818-5"
       d="m 3142.0989,857.23162 c 0,0 46.8269,-77.29315 95.4147,-34.66117 48.5878,42.63199 -95.4147,156.51414 -95.4147,156.51414 0,0 -137.117,-116.14259 -88.4909,-156.51414 48.626,-40.37156 88.4909,34.66117 88.4909,34.66117 z"
       style="fill:none;fill-rule:evenodd;stroke:#000000;stroke-width:0.99999994px;stroke-linecap:butt;stroke-linejoin:miter;stroke-opacity:1" />
    <path
       sodipodi:nodetypes="czczc"
       inkscape:connector-curvature="0"
       id="path30818-7"
       d="m 3057.0895,456.47261 c 0,0 46.8269,-77.29315 95.4147,-34.66117 48.5878,42.63199 -95.4147,156.51414 -95.4147,156.51414 0,0 -137.1171,-116.14259 -88.4909,-156.51414 48.626,-40.37156 88.4909,34.66117 88.4909,34.66117 z"
       style="fill:none;fill-rule:evenodd;stroke:#000000;stroke-width:0.99999994px;stroke-linecap:butt;stroke-linejoin:miter;stroke-opacity:1" />
    <path
       sodipodi:nodetypes="czczc"
       inkscape:connector-curvature="0"
       id="path30822-3"
       d="m 1658.9688,929.04718 c 0,0 25.2308,-41.60802 51.4103,-18.65861 26.1796,22.94942 -51.4103,84.25386 -51.4103,84.25386 0,0 -73.8799,-62.52127 -47.6797,-84.25386 26.2001,-21.7326 47.6797,18.65861 47.6797,18.65861 z"
       style="fill:none;fill-rule:evenodd;stroke:#000000;stroke-width:0.99999994px;stroke-linecap:butt;stroke-linejoin:miter;stroke-opacity:1" />
    <path
       sodipodi:nodetypes="czczc"
       inkscape:connector-curvature="0"
       id="path30822-7"
       d="m 2214.5666,844.03769 c 0,0 25.2308,-41.60802 51.4103,-18.65861 26.1796,22.94942 -51.4103,84.25386 -51.4103,84.25386 0,0 -73.8799,-62.52127 -47.6797,-84.25386 26.2001,-21.7326 47.6797,18.65861 47.6797,18.65861 z"
       style="fill:none;fill-rule:evenodd;stroke:#000000;stroke-width:0.99999994px;stroke-linecap:butt;stroke-linejoin:miter;stroke-opacity:1" />
    <path
       sodipodi:nodetypes="czczc"
       inkscape:connector-curvature="0"
       id="path30822-0"
       d="m 1983.8265,376.48551 c 0,0 25.2308,-41.60802 51.4103,-18.65861 26.1796,22.94942 -51.4103,84.25386 -51.4103,84.25386 0,0 -73.8799,-62.52127 -47.6797,-84.25386 26.2001,-21.7326 47.6797,18.65861 47.6797,18.65861 z"
       style="fill:none;fill-rule:evenodd;stroke:#000000;stroke-width:0.99999994px;stroke-linecap:butt;stroke-linejoin:miter;stroke-opacity:1" />
    <path
       sodipodi:nodetypes="czczc"
       inkscape:connector-curvature="0"
       id="path30822-76"
       d="m 2348.1529,497.92763 c 0,0 25.2308,-41.60802 51.4103,-18.65861 26.1796,22.94942 -51.4103,84.25386 -51.4103,84.25386 0,0 -73.8799,-62.52127 -47.6797,-84.25386 26.2001,-21.7326 47.6797,18.65861 47.6797,18.65861 z"
       style="fill:none;fill-rule:evenodd;stroke:#000000;stroke-width:0.99999994px;stroke-linecap:butt;stroke-linejoin:miter;stroke-opacity:1" />
    <path
       sodipodi:nodetypes="czczc"
       inkscape:connector-curvature="0"
       id="path30822-4"
       d="m 2673.0106,922.97507 c 0,0 25.2308,-41.60802 51.4103,-18.65861 26.1796,22.94942 -51.4103,84.25386 -51.4103,84.25386 0,0 -73.8799,-62.52127 -47.6797,-84.25386 26.2001,-21.7326 47.6797,18.65861 47.6797,18.65861 z"
       style="fill:none;fill-rule:evenodd;stroke:#000000;stroke-width:0.99999994px;stroke-linecap:butt;stroke-linejoin:miter;stroke-opacity:1" />
    <path
       sodipodi:nodetypes="czczc"
       inkscape:connector-curvature="0"
       id="path30822-8"
       d="m 2764.0922,598.11739 c 0,0 25.2308,-41.60802 51.4103,-18.65861 26.1796,22.94942 -51.4103,84.25386 -51.4103,84.25386 0,0 -73.8799,-62.52127 -47.6797,-84.25386 26.2001,-21.7326 47.6797,18.65861 47.6797,18.65861 z"
       style="fill:none;fill-rule:evenodd;stroke:#000000;stroke-width:0.99999994px;stroke-linecap:butt;stroke-linejoin:miter;stroke-opacity:1" />
    <path
       sodipodi:nodetypes="czczc"
       inkscape:connector-curvature="0"
       id="path30822-34"
       d="m 2870.354,340.05287 c 0,0 25.2308,-41.60802 51.4103,-18.65861 26.1796,22.94942 -51.4103,84.25386 -51.4103,84.25386 0,0 -73.8799,-62.52127 -47.6797,-84.25386 26.2001,-21.7326 47.6797,18.65861 47.6797,18.65861 z"
       style="fill:none;fill-rule:evenodd;stroke:#000000;stroke-width:0.99999994px;stroke-linecap:butt;stroke-linejoin:miter;stroke-opacity:1" />
    <path
       sodipodi:nodetypes="czczc"
       inkscape:connector-curvature="0"
       id="path30822-81"
       d="m 1864.5891,754.83199 c 0,0 9.1165,-47.79865 41.6609,-35.43343 32.5446,12.36518 -18.7596,96.90103 -18.7596,96.90103 0,0 -91.059,-32.79327 -74.095,-62.30562 16.9639,-29.51233 51.1937,0.83802 51.1937,0.83802 z"
       style="fill:none;fill-rule:evenodd;stroke:#000000;stroke-width:0.99999994px;stroke-linecap:butt;stroke-linejoin:miter;stroke-opacity:1" />
    <path
       sodipodi:nodetypes="czczc"
       inkscape:connector-curvature="0"
       id="path30822-6"
       d="m 1585.2338,588.28671 c 0,0 43.8814,-21.02946 53.2433,12.50263 9.362,33.5321 -89.1248,42.4087 -89.1248,42.4087 0,0 -27.6467,-92.75135 6.1742,-96.61235 33.8207,-3.86105 29.7073,41.70102 29.7073,41.70102 z"
       style="fill:none;fill-rule:evenodd;stroke:#000000;stroke-width:0.99999994px;stroke-linecap:butt;stroke-linejoin:miter;stroke-opacity:1" />
    <path
       sodipodi:nodetypes="czczc"
       inkscape:connector-curvature="0"
       id="path30822-04"
       d="m 1027.4698,658.83845 c 0,0 25.2308,-41.60802 51.4103,-18.65861 26.1796,22.94942 -51.4103,84.25386 -51.4103,84.25386 0,0 -73.87992,-62.52127 -47.67972,-84.25386 26.20012,-21.7326 47.67972,18.65861 47.67972,18.65861 z"
       style="fill:none;fill-rule:evenodd;stroke:#000000;stroke-width:0.99999994px;stroke-linecap:butt;stroke-linejoin:miter;stroke-opacity:1" />
    <path
       sodipodi:nodetypes="czczc"
       inkscape:connector-curvature="0"
       id="path30818-93"
       d="m 2429.164,808.8412 c 0,0 78.7995,-44.24503 100.1193,16.77731 21.3198,61.02234 -160.0806,89.30183 -160.0806,89.30183 0,0 -62.216,-168.58047 -0.019,-179.79798 62.1974,-11.21763 59.9798,73.71884 59.9798,73.71884 z"
       style="fill:none;fill-rule:evenodd;stroke:#000000;stroke-width:0.99999994px;stroke-linecap:butt;stroke-linejoin:miter;stroke-opacity:1" />
    <path
       sodipodi:nodetypes="czczc"
       inkscape:connector-curvature="0"
       id="path30822-8-9"
       d="m 2957.5837,944.45793 c 0,0 35.135,-33.66529 54.487,-4.72499 19.3522,28.94033 -71.4548,68.08766 -71.4548,68.08766 0,0 -55.1927,-79.5042 -24.2626,-93.71977 30.9301,-14.21561 41.2304,30.3571 41.2304,30.3571 z"
       style="fill:none;fill-rule:evenodd;stroke:#000000;stroke-width:0.99999994px;stroke-linecap:butt;stroke-linejoin:miter;stroke-opacity:1" />
    <path
       style="fill:none;fill-rule:evenodd;stroke:#000000;stroke-width:0.99999994px;stroke-linecap:butt;stroke-linejoin:miter;stroke-opacity:1"
       d="m 212.29196,513.74268 c 0,0 -13.41749,28.02599 -21.34383,25.65448 -7.78951,-2.33056 32.07346,-49.49802 43.51635,-82.26581 5.7579,-16.48828 -6.99933,3.66772 -22.17824,27.34168 -15.23194,23.75668 -33.10309,51.32146 -37.02404,50.06434 -3.88844,-1.24669 13.90669,-28.64702 33.06874,-58.60121 19.22278,-30.04911 39.62806,-62.3879 42.15279,-73.98611 2.50649,-11.51444 -17.82824,21.02284 -40.15002,56.08325 -22.3192,35.05639 -46.68954,72.69427 -50.5776,71.36089 -3.82872,-1.31303 20.51386,-38.8755 45.45221,-78.11659 25.00333,-39.34334 50.42533,-80.11023 50.76831,-88.34332 0.33774,-8.10704 -24.98877,32.78238 -52.01451,75.45527 -26.99519,42.62466 -55.67848,86.98299 -59.52947,85.57264 -3.77014,-1.38073 24.89594,-45.70279 53.56484,-91.03675 28.72572,-45.42381 57.32493,-91.67276 56.04993,-97.35652 -1.24802,-5.56354 -29.75532,40.74925 -59.70765,88.22929 -29.91256,47.41699 -61.23572,95.9253 -65.04515,94.4376 -3.71436,-1.45058 27.58509,-49.9368 58.43617,-98.90047 30.89525,-49.03375 61.27237,-98.44425 58.72931,-102.09383 -2.47994,-3.559 -32.78608,45.87648 -64.27799,95.94039 -31.45448,50.00439 -64.06767,100.5833 -67.82832,99.01357 -3.65896,-1.52728 28.92612,-52.10008 60.72663,-102.70512 31.83147,-50.6543 62.866,-101.32309 59.28824,-103.28865 -3.48309,-1.91355 -34.47972,48.76285 -66.38597,99.5871 -31.8774,50.7783 -64.65996,101.69572 -68.361953,100.0345 -3.601077,-1.61594 29.120013,-52.49391 60.858863,-103.09346 31.7606,-50.63421 62.56577,-101.02857 58.29252,-101.85064 -4.16064,-0.8004 -34.9558,49.59552 -66.42221,99.78879 -31.44617,50.161 -63.580735,100.15163 -67.209174,98.37926 -3.532727,-1.72561 28.602804,-51.78995 59.575524,-101.23404 30.98533,-49.46423 60.87166,-98.39922 55.84042,-97.9668 -4.90559,0.42161 -34.81642,49.35904 -65.09721,97.70203 -30.2716,48.32831 -60.954902,96.14036 -64.495027,94.23787 -3.490904,-1.87604 11.734306,-25.61185 26.816963,-49.40141 15.091124,-23.80291 30.037034,-47.65602 26.671954,-49.83343 -3.34537,-2.16466 -18.27136,21.69162 -33.409823,45.5964 -15.131609,23.89394 -30.475656,47.83597 -33.886838,45.78866 -3.390823,-2.03509 11.935959,-25.98172 27.042583,-49.86235 15.114796,-23.89355 30.011248,-47.72355 26.449548,-49.59 -3.54072,-1.85545 -18.424686,21.98229 -33.4359,45.73671 -15.004613,23.74398 -30.136903,47.40634 -33.415207,45.14791 -3.259259,-2.24531 11.853575,-25.9143 26.663555,-49.37701 14.817666,-23.47487 29.339276,-46.75262 25.563072,-48.2763 -3.754839,-1.51507 -18.269271,21.77014 -32.797422,44.80789 -14.522201,23.02832 -29.058942,45.81312 -32.144972,43.25006 -3.069493,-2.54932 11.453184,-25.35568 25.56535,-47.76106 14.119127,-22.41644 27.840439,-44.44891 23.77455,-45.50571 -4.045089,-1.05139 -17.771187,20.99607 -31.343145,42.56094 -13.567319,21.5575 -26.981202,42.63822 -29.777675,39.61648 C 16.517238,451.67605 29.922552,430.55733 42.747617,410.1521 55.578675,389.73734 67.848886,370.01043 63.298151,369.73833 58.766399,369.46737 46.46264,389.23845 34.617376,408.09528 22.774075,426.94897 11.390698,444.89394 9.1726803,440.9551 6.9616628,437.0287 18.397859,418.93719 28.858755,402.25781 39.325313,385.5694 48.842492,370.26053 43.137135,371.85428 37.447401,373.44367 27.556894,389.3113 19.143372,402.72455 10.719803,416.15381 3.8008244,427.1013 4.24445,418.9305 5.1331027,402.56308 21.50473,383.88981 21.50473,383.88981 m 112.59797,0.75896 c 0,0 14.58604,-21.48856 27.06458,-41.71042 12.48123,-20.22621 22.88709,-39.20358 15.10602,-34.18441 -15.49279,9.99358 -34.74161,48.79666 -34.74161,48.79666 M 2926.6285,333.87288 c 0,0 -4.0561,8.81038 -11.2906,20.41789 -7.2977,11.70878 -17.63,25.92427 -29.9508,37.23282 -12.4525,11.42945 -0.9296,-5.32436 11.5545,-24.87601 12.6785,-19.85607 26.422,-42.91367 23.1297,-45.61388 -3.1496,-2.58323 -15.0545,17.87401 -27.9843,38.40957 -12.8881,20.46952 -26.8039,41.02316 -29.7332,38.30251 -2.8311,-2.62949 11.0157,-23.37182 23.3986,-43.23083 12.4174,-19.91426 23.506,-39.12248 18.6449,-38.96004 -4.7253,0.1579 -15.8802,19.37169 -27.3553,37.81643 -11.4648,18.4284 -23.2621,36.15248 -26.0791,33.24928 -2.7423,-2.8263 8.838,-20.61362 18.1967,-35.73104 9.4344,-15.23971 16.7151,-27.79029 7.8712,-20.7546 -8.8285,7.02347 -16.6808,19.86443 -23.0219,29.92348 -6.3961,10.14639 -11.367,17.70828 -14.0532,14.61036 -2.6819,-3.09287 3.9972,-13.50191 10.4044,-23.85322 6.4262,-10.38203 12.5824,-20.70916 9.6658,-23.79181 -2.8978,-3.0627 -8.983,7.29953 -15.256,17.56152 -6.2685,10.2546 -12.7167,20.40074 -15.1987,16.86893 -2.4664,-3.50968 3.9339,-13.77003 9.7855,-23.47207 5.8664,-9.7266 11.218,-18.93995 7.381,-20.47849 -3.8125,-1.52875 -9.1969,7.77619 -14.3115,16.32896 -5.1188,8.55965 -9.9209,16.31641 -11.8083,11.72572 -3.7602,-9.14591 12.7456,-29.37134 12.7456,-29.37134 m -221.6563,69.02285 c 0,0 -7.3075,13.81395 -18.086,31.01623 -10.8311,17.28636 -24.9952,37.71008 -38.5291,51.34927 -13.5658,13.67129 1.7575,-9.85009 19.236,-37.52981 17.6027,-27.87637 37.35,-60.01665 35.3227,-64.56645 -1.9789,-4.4414 -22.0488,28.60684 -44.2229,63.73898 -22.1997,35.17265 -46.36,72.14172 -53.5325,75.74448 -6.9662,3.49909 17.3004,-33.35725 41.624,-71.81032 24.3331,-38.46808 48.5293,-78.2748 45.2159,-80.75155 -3.1991,-2.39126 -26.3713,35.91305 -50.5369,74.25552 -24.1193,38.26898 -49.2374,76.58682 -52.2232,73.85513 -2.8898,-2.6439 22.1674,-41.01763 45.9684,-78.88851 23.8444,-37.93984 46.4951,-75.46545 42.4881,-76.75793 -3.8863,-1.25351 -26.512,36.27319 -49.8517,73.47867 -23.3055,37.15101 -47.3473,74.0287 -50.2756,71.20487 -2.8401,-2.73878 21.165,-39.73512 43.6714,-75.70339 22.5322,-36.00949 43.6917,-71.16624 38.4833,-70.43198 -5.069,0.7146 -26.2883,35.87767 -47.6998,70.10257 -21.4016,34.20903 -43.0498,67.59377 -45.9104,64.67235 -2.7864,-2.84551 19.0295,-36.70719 38.6935,-68.20159 19.6835,-31.52563 37.3791,-60.88424 29.0213,-54.87976 -8.2156,5.90233 -26.2175,35.39643 -43.1441,62.39161 -16.9739,27.07072 -33.0173,51.92229 -35.8063,48.91723 -2.7689,-2.9833 9.185,-21.59896 21.0136,-40.37327 11.8481,-18.8053 23.5595,-37.75368 21.1662,-41.55734 -2.3764,-3.77691 -14.0361,15.19282 -26.0578,34.35104 -12.0103,19.14006 -24.3859,38.47106 -27.0987,35.3259 -2.6916,-3.12065 9.6418,-22.46345 21.7266,-41.79282 12.104,-19.36001 23.9582,-38.70479 21.225,-41.98257 -2.7125,-3.25296 -14.5224,16.10759 -26.5906,35.48163 -12.0568,19.35547 -24.3719,38.7248 -26.9817,35.39664 -2.5895,-3.3023 9.6811,-22.69109 21.5882,-41.87697 11.9249,-19.2144 23.4959,-38.23955 20.411,-40.95713 -3.0618,-2.69716 -14.5995,16.33911 -26.2575,35.18543 -11.6476,18.82978 -23.4124,37.46861 -25.8803,33.89387 -2.4504,-3.54928 9.274,-22.22481 20.493,-40.4296 11.2339,-18.22891 21.9855,-36.01883 18.4019,-37.91747 -3.5593,-1.88579 -14.3033,15.92412 -24.9386,33.22833 -10.6286,17.29314 -21.1408,34.07729 -23.3616,30.08462 -2.2085,-3.97039 8.2843,-20.83576 18.0468,-36.78123 9.7738,-15.96382 18.8534,-31.05643 14.4429,-31.57305 -4.3881,-0.514 -13.5082,14.63025 -22.0972,28.68232 -8.5892,14.05259 -16.6308,27.00207 -18.3063,22.10116 -1.6708,-4.887 6.4924,-18.1568 13.3303,-29.39148 6.8488,-11.25258 12.4091,-20.51234 5.867,-17.46874 -13.0365,6.06505 -22.5903,29.42219 -22.5903,29.42219 m -369.5754,-11.87832 c 0,0 -6.6621,13.29104 -16.1303,28.38499 -9.5334,15.19796 -21.6802,31.85416 -31.3757,39.1241 -9.6016,7.1996 2.977,-11.10795 16.0468,-31.64119 13.136,-20.63732 26.6179,-43.42933 23.0996,-45.71901 -3.3752,-2.19652 -15.2393,18.23796 -28.0456,38.63742 -12.7676,20.33774 -26.4781,40.64993 -29.3908,37.90017 -2.816,-2.65848 10.8714,-23.2482 22.979,-42.71903 12.1378,-19.51961 22.8569,-38.12697 17.4886,-37.06465 -5.2278,1.03453 -16.0845,19.65953 -27.0196,37.2388 -10.9375,17.58314 -21.9783,34.21538 -24.7752,31.28376 -2.7515,-2.88406 6.4387,-16.99478 14.4017,-29.75751 7.9825,-12.79395 14.834,-24.34837 8.8811,-22.27595 -5.8979,2.05322 -12.9014,13.64734 -19.3075,23.88222 -6.4192,10.25573 -12.2385,19.19003 -14.9019,16.02787 -2.6528,-3.14964 4.0406,-13.6292 10.42,-23.98399 6.3981,-10.38494 12.4891,-20.65454 9.4465,-23.53497 -3.0224,-2.86135 -9.0515,7.44303 -15.2164,17.57046 -6.1608,10.12081 -12.4442,20.051 -14.8656,16.4082 -2.4072,-3.62144 3.8414,-13.69562 9.4706,-23.06964 5.643,-9.39706 10.7065,-18.1468 6.6108,-19.23453 -4.0709,-1.08114 -9.226,7.82903 -13.9443,15.74295 -4.7272,7.92908 -8.9561,14.79311 -10.5497,9.6955 -3.1933,-10.21474 9.7028,-24.30042 9.7028,-24.30042 M 870.50169,457.26676 c 0,0 -21.02725,40.84905 -39.92367,55.65685 -9.42894,7.38879 0.79294,-8.593 12.74928,-27.48945 11.97455,-18.92524 25.6508,-40.73868 23.67953,-45.15714 -1.96192,-4.39753 -15.42278,17.18552 -30.48524,41.01879 -15.07692,23.85614 -31.71822,49.88111 -39.40748,54.4818 -7.63684,4.56933 9.0601,-21.41651 26.75596,-49.37641 17.70546,-27.97507 36.34197,-57.84057 33.63082,-61.10636 -2.68549,-3.2349 -21.23886,26.61177 -41.21652,58.20276 -19.98987,31.6103 -41.34619,64.85071 -48.44697,68.49984 -7.01745,3.60631 14.43919,-29.66485 36.46523,-64.45539 22.02988,-34.7966 44.55,-71.00961 41.22798,-73.31725 -3.27502,-2.275 -25.73061,33.93634 -49.52149,71.53333 -23.80289,37.61595 -48.87114,76.48591 -55.65965,79.62295 -6.67795,3.08596 18.48715,-35.81399 43.84981,-75.85243 25.35829,-40.03153 50.84072,-81.10429 46.83793,-82.32939 -3.92934,-1.20263 -29.36845,39.87208 -56.02507,81.95761 -26.6707,42.10775 -54.49054,85.10129 -61.03964,87.84745 -6.41781,2.69111 21.48993,-40.33073 49.24597,-84.10603 27.74157,-43.75246 55.27878,-88.1883 50.52732,-88.21098 -4.64901,-0.0222 -32.16827,44.41063 -60.73235,89.44472 -28.5831,45.06408 -58.16011,90.63811 -64.49984,93.04825 -6.19623,2.3556 23.45056,-43.23802 52.60497,-89.15265 29.12883,-45.87436 57.74611,-92.04452 52.11191,-90.64063 -5.49823,1.37001 -33.5211,46.51857 -61.31318,90.29198 -27.78532,43.76276 -55.4126,86.28997 -57.60834,82.36403 -2.15208,-3.84787 25.41176,-46.4433 51.20321,-87.11988 25.81104,-40.70745 49.99824,-79.70025 43.27212,-76.49727 -6.61567,3.15039 -30.91422,42.17457 -54.4735,79.30149 -23.57007,37.14393 -46.47996,72.54359 -48.61549,68.52996 -2.10651,-3.95911 20.64822,-39.27359 41.52069,-72.20027 20.88943,-32.95343 40.00886,-63.66404 32.09848,-58.54913 -7.83433,5.06573 -27.09508,35.83218 -45.09405,64.18104 -18.01974,28.38159 -34.84442,54.47768 -36.91507,50.36638 -2.0571,-4.08438 16.49525,-32.96936 34.90408,-62.05908 18.4409,-29.1404 36.72104,-58.46109 35.22051,-63.67032 -1.48755,-5.16417 -19.71614,24.18483 -38.41772,53.81923 -18.68142,29.60246 -37.83928,59.49232 -39.84994,55.25014 -1.99156,-4.20189 17.11972,-34.10011 35.93997,-63.99625 18.85157,-29.94592 37.40823,-59.88436 35.4705,-64.41557 -1.91983,-4.48936 -20.43133,25.47095 -39.29634,55.51379 -18.84466,30.01044 -38.04371,60.1043 -39.97613,55.71998 -1.91386,-4.34218 17.24569,-34.46431 35.98387,-64.37856 18.76749,-29.96105 37.12343,-59.72844 34.76471,-63.59517 -2.33682,-3.83082 -20.65597,25.9526 -39.19117,55.61005 -18.51631,29.62725 -37.24799,59.12991 -39.09164,54.58653 -1.8267,-4.50162 16.86195,-34.03409 35.00073,-63.12801 18.16467,-29.13543 35.80312,-57.86634 32.97162,-60.97242 -2.80661,-3.07879 -20.41956,25.66273 -38.06689,54.02461 -17.63165,28.33668 -35.29558,56.29606 -37.00864,51.527 -1.69906,-4.73011 15.92442,-32.72923 32.85761,-60.00954 16.95467,-27.31491 33.25538,-53.96299 29.86972,-56.16404 -3.35967,-2.18415 -19.65063,24.47277 -35.73744,50.43217 -16.07609,25.9421 -31.94381,51.18905 -33.46715,46.09843 -1.51346,-5.05759 14.31928,-30.3561 29.2943,-54.58038 14.99162,-24.25113 29.17039,-47.49144 25.10203,-48.56686 -4.04421,-1.06904 -18.23548,22.18708 -31.90099,44.32009 -13.66136,22.12629 -26.78866,43.12849 -28.00114,37.51798 -1.20744,-5.58723 11.8949,-26.65527 23.90528,-46.15613 12.02246,-19.52046 22.99775,-37.53543 18.02464,-37.11456 -4.95507,0.41935 -16.00267,18.52064 -26.0157,34.78938 -10.01741,16.27588 -18.98143,30.7041 -19.41808,23.81298 -0.87069,-13.7411 36.17036,-58.72938 22.71207,-52.24602 -13.32586,6.41956 -21.36073,27.16789 -21.36073,27.16789 m 951.24701,31.33348 c 0,0 6.8837,-8.74053 13.2677,-18.91367 6.4123,-10.21825 12.2314,-21.74375 10.9211,-27.53331 -1.3015,-5.75115 -11.5664,11.78112 -23.5769,30.79809 -12.0167,19.02677 -25.8387,39.5371 -30.8193,39.7911 -4.814,0.24551 8.787,-19.80381 21.7427,-40.33933 12.9739,-20.56444 25.2173,-41.50789 21.3886,-43.19523 -3.7021,-1.63149 -15.4321,18.62063 -27.9663,38.66575 -12.501,19.99202 -25.8061,39.79522 -28.6925,37.00032 -2.792,-2.70344 10.5811,-22.95733 22.1209,-41.58049 11.5706,-18.67297 21.4957,-35.93705 15.0127,-32.90989 -6.3458,2.96311 -16.5702,20.30388 -26.3519,35.99345 -9.8116,15.73744 -19.2417,29.99189 -22.0088,27.02173 -2.751,-2.95299 3.7248,-12.90506 10.0578,-22.98243 6.3524,-10.10836 12.551,-20.32745 9.9974,-23.96945 -2.5395,-3.62178 -8.649,6.6405 -15.0697,16.99928 -6.4164,10.35166 -13.1508,20.8074 -15.7712,17.53697 -2.6023,-3.24785 4.0602,-13.75436 10.3449,-24.02639 6.3023,-10.30091 12.2415,-20.3872 8.9986,-22.93907 -3.2212,-2.53475 -9.1146,7.58718 -15.054,17.40453 -5.9366,9.81278 -11.8982,19.29879 -14.2179,15.46938 -2.3078,-3.80987 3.647,-13.49794 8.8429,-22.20601 5.2085,-8.72924 9.7067,-16.54072 5.0829,-16.70326 -4.6107,-0.16208 -9.5576,6.37098 -13.4499,12.94536 -3.89,6.57061 -6.7378,13.18886 -6.7378,13.18886 m 1643.2245,128.90255 c 0,0 8.612,-11.6519 17.3487,-25.56139 8.7607,-13.94758 17.5663,-30.04146 18.4086,-39.11409 0.8432,-9.08182 -11.9957,12.00937 -28.2384,37.88684 -16.3859,26.10538 -35.9878,56.5934 -47.849,67.44474 -11.6947,10.69893 8.1735,-19.57267 29.4853,-53.2569 21.375,-33.78398 44.0443,-70.8542 41.2927,-74.25121 -2.6587,-3.28216 -25.8095,34.86637 -50.1257,73.31904 -24.2633,38.3692 -49.6875,77.02946 -52.707,74.35339 -2.9208,-2.58867 22.3773,-41.18907 46.5308,-79.49452 24.2049,-38.38708 47.2946,-76.52137 43.7494,-78.58595 -3.4358,-2.00084 -26.4711,36.14135 -50.409,74.19854 -23.8953,37.98956 -48.7041,75.91728 -51.6678,73.14934 -2.8701,-2.68055 21.8784,-40.67453 45.2917,-77.99942 23.4503,-37.38397 45.6512,-74.21995 41.2686,-74.87992 -4.2546,-0.6407 -26.4558,36.19446 -49.2087,72.51495 -22.7262,36.27787 -46.0359,72.1095 -48.9395,69.2486 -2.8202,-2.77879 20.4707,-38.769 42.1117,-73.39557 21.6598,-34.65669 41.8204,-68.15572 35.8293,-66.10278 -5.8458,2.00317 -26.1225,35.5233 -46.2573,67.71065 -20.1404,32.19634 -40.2149,63.2159 -43.0506,60.26293 -2.7609,-2.87495 18.5104,-36.03694 36.1201,-64.25133 17.7745,-28.47842 31.6931,-51.55622 17.2736,-35.58291 -14.4692,16.0283 -29.2886,39.82862 -41.007,58.36476 -11.8191,18.69533 -20.7829,32.56407 -23.531,29.52509 -2.7416,-3.03186 9.4129,-22.01201 21.3925,-41.0845 11.9991,-19.10356 23.8155,-38.28899 21.2879,-41.88671 -2.5091,-3.5714 -14.2764,15.63331 -26.3682,34.95982 -12.0802,19.30791 -24.4868,38.73908 -27.1626,35.52766 -2.6547,-3.18619 9.7077,-22.63072 21.7761,-41.99053 12.0871,-19.38982 23.883,-38.69904 21.0154,-41.76467 -2.8458,-3.04225 -14.6013,16.2809 -26.5659,35.54211 -11.9533,19.24314 -24.1145,38.42417 -26.6736,35.00737 -2.5396,-3.39083 9.5846,-22.60745 21.2925,-41.52579 11.7248,-18.94536 23.0483,-37.61322 19.7859,-40.04163 -3.2386,-2.41066 -14.5356,16.26755 -25.8767,34.6496 -11.3319,18.36719 -22.7031,36.4366 -25.0964,32.73403 -2.3774,-3.678 8.9597,-21.798 19.7202,-39.30502 10.774,-17.52889 20.9997,-34.48361 17.1508,-35.94041 -3.8249,-1.44771 -14.0563,15.53204 -24.0467,31.82469 -9.9858,16.28513 -19.7203,31.87798 -21.7817,27.61888 -2.0517,-4.23926 7.6825,-19.94858 16.538,-34.44754 8.8657,-14.51545 16.8923,-27.87276 11.9455,-27.49042 -4.9267,0.38079 -13.0639,13.88196 -20.3541,25.82937 -7.2958,11.95677 -13.7193,22.33824 -14.8437,16.52645 -2.2492,-11.62567 17.9623,-37.20337 17.9623,-37.20337 M 1176.622,524.65541 c 0,0 8.3498,-11.24559 16.86,-24.79488 8.5333,-13.58608 17.149,-29.36746 18.1053,-38.62182 0.9577,-9.2678 -11.7367,11.585 -27.8594,37.27385 -16.2678,25.92 -35.7825,56.28161 -47.677,67.18714 -11.7298,10.75461 8.0356,-19.3658 29.2602,-52.91389 21.2889,-33.64967 43.8899,-70.60457 41.1541,-74.02689 -2.6436,-3.307 -25.7912,34.83428 -50.1086,73.28681 -24.2645,38.36882 -49.694,77.03528 -52.714,74.36007 -2.9213,-2.5878 22.379,-41.18926 46.5363,-79.49864 24.2089,-38.39119 47.3037,-76.53179 43.7648,-78.60689 -3.4296,-2.01101 -26.4696,36.13762 -50.4148,74.20453 -23.9025,37.99912 -48.7208,75.93935 -51.6852,73.17254 -2.8708,-2.67939 21.8875,-40.68586 45.3125,-78.02784 23.4623,-37.40131 45.6765,-74.25838 41.3042,-74.93567 -4.2445,-0.65749 -26.4584,36.19877 -49.2286,72.54577 -22.7433,36.30403 -46.0744,72.16666 -48.9789,69.30709 -2.821,-2.77738 20.4906,-38.79697 42.157,-73.46335 21.6854,-34.69676 41.8758,-68.24559 35.9089,-66.23331 -5.8217,1.96334 -26.1265,35.53267 -46.2994,67.78121 -20.1781,32.25679 -40.2996,63.34749 -43.1357,60.39484 -2.7604,-2.87386 18.6137,-36.19588 36.2858,-64.51252 17.8429,-28.59024 31.7754,-51.69712 17.2265,-35.50871 -14.6049,16.25062 -29.4584,40.10137 -41.1714,58.62692 -11.8148,18.68661 -20.7379,32.49039 -23.4862,29.45238 -2.7421,-3.03104 9.4082,-22.00316 21.3846,-41.06921 11.9959,-19.09712 23.8103,-38.27757 21.2862,-41.88061 -2.5057,-3.5767 -14.2709,15.62306 -26.3615,34.94634 -12.0791,19.30469 -24.4856,38.73439 -27.1623,35.52466 -2.6557,-3.18451 9.7068,-22.62766 21.7764,-41.98803 12.0883,-19.39041 23.8866,-38.702 21.0227,-41.77358 -2.8421,-3.04816 -14.5998,16.27738 -26.5681,35.54328 -11.9571,19.24781 -24.1236,38.43583 -26.6845,35.02222 -2.5415,-3.38763 9.5883,-22.61161 21.3031,-41.53976 11.7316,-18.9552 23.0632,-37.63518 19.8048,-40.07011 -3.2346,-2.41711 -14.5389,16.27227 -25.8891,34.66797 -11.341,18.38079 -22.7233,36.4663 -25.1184,32.76689 -2.3791,-3.67482 8.9688,-21.81061 19.742,-39.33724 10.7868,-17.54856 21.0271,-34.52662 17.1855,-35.9956 -3.8176,-1.45981 -14.0634,15.54342 -24.072,31.86483 -10.0039,16.3138 -19.7605,31.94067 -21.8269,27.69006 -2.0568,-4.23071 7.6986,-19.97254 16.5802,-34.51338 8.8918,-14.55735 16.9494,-27.96587 12.0199,-27.61252 -4.9094,0.35191 -13.0736,13.89844 -20.4019,25.90802 -7.3338,12.01862 -13.8069,22.47923 -14.9538,16.70446 -2.2939,-11.55013 18.206,-37.60234 18.206,-37.60234 m 1342.3961,113.76218 c 0,0 9.1184,-12.00046 17.37,-25.11385 8.2876,-13.17066 15.6171,-27.31919 13.5438,-31.87959 -2.0365,-4.47949 -13.7586,15.52762 -26.812,36.10162 -13.0088,20.50365 -27.3859,41.59927 -30.3565,38.94502 -2.867,-2.56164 11.21,-23.44747 24.033,-43.8531 12.8695,-20.47975 24.557,-40.57649 20.5528,-41.93055 -3.8846,-1.31359 -15.5212,18.78785 -27.8792,38.58369 -12.3284,19.74845 -25.3787,39.21583 -28.2506,36.39717 -2.7779,-2.7263 10.4514,-22.83795 21.6315,-40.90816 11.2218,-18.13764 20.5741,-34.41901 13.1907,-29.82187 -7.2629,4.52209 -17.0538,20.9619 -26.0021,35.26941 -8.9983,14.38747 -17.2486,26.87013 -19.997,23.87772 -2.7376,-2.98076 3.8043,-13.06617 10.1744,-23.23854 6.3896,-10.20351 12.5988,-20.48285 9.9666,-24.00719 -2.6168,-3.50386 -8.7404,6.81698 -15.1514,17.19408 -6.4065,10.36963 -13.1041,20.79961 -15.697,17.47665 -2.5753,-3.30028 4.0504,-13.78676 10.2647,-23.97772 6.2313,-10.21903 12.07,-20.16787 8.7156,-22.53322 -3.3319,-2.34952 -9.1348,7.63695 -14.9303,17.24404 -5.7937,9.60404 -11.5544,18.80178 -13.8117,14.85955 -2.2468,-3.92387 3.5381,-13.38081 8.4692,-21.67057 4.9437,-8.31082 9.0855,-15.51917 4.102,-15.05117 -4.9734,0.46703 -9.5071,6.27076 -12.8669,11.95544 -3.3589,5.68313 -5.5516,11.25382 -5.5516,11.25382 m -93.6699,58.97183 c 0,0 -8.7673,16.01613 -21.3362,36.04212 -12.609,20.0899 -28.9124,43.99907 -43.91,60.10402 -15.025,16.13444 2.7839,-11.63279 23.612,-44.68417 20.9352,-33.22135 44.8681,-71.77602 43.9816,-78.06633 -0.874,-6.20109 -24.3528,31.92023 -50.9385,74.15155 -26.6784,42.37847 -56.1795,88.35094 -67.5762,98.5879 -11.1858,10.04749 18.6377,-36.00879 49.9252,-85.53949 31.3089,-49.56469 63.8598,-102.32247 61.227,-105.84796 -2.5508,-3.41567 -36.3701,51.60061 -71.533,107.24619 -35.1188,55.57567 -71.5466,111.71478 -75.3456,110.19527 -3.6776,-1.47094 32.6794,-57.5365 68.1743,-113.75975 35.5369,-56.28968 70.1758,-112.6853 66.8914,-115.14855 -3.1802,-2.38512 -37.5978,53.74234 -73.0087,109.90934 -35.3626,56.09044 -71.725,112.2324 -74.7304,109.49343 -2.9094,-2.65144 33.4049,-58.81966 68.5239,-114.59807 35.166,-55.85306 69.1773,-111.37591 65.4498,-113.1098 -3.6129,-1.68055 -37.5953,53.84477 -72.4027,109.18519 -34.7666,55.27549 -70.3789,110.40513 -73.3482,107.60853 -2.8776,-2.71018 32.6896,-57.88095 66.9357,-112.39741 34.2824,-54.57429 67.3203,-108.6055 62.9796,-109.32571 -4.2135,-0.6991 -37.2502,53.33177 -70.8585,106.86744 -33.579,53.48902 -67.7698,106.5584 -70.6998,103.70305 -2.8457,-2.77312 31.3096,-55.91037 63.9732,-108.00009 32.6865,-52.12608 63.9987,-103.37343 58.7265,-102.54849 -5.1325,0.80306 -36.4879,52.05471 -68.0215,102.34504 -31.5221,50.27187 -63.2902,99.70929 -66.175,96.79155 -2.8116,-2.84373 28.978,-52.4543 58.9452,-100.29041 29.9758,-47.84983 58.2869,-94.1458 51.2643,-90.42897 -6.8716,3.63692 -35.3149,49.97351 -63.2373,94.49791 -27.9407,44.55358 -55.4755,87.50743 -58.3079,84.52477 -2.7683,-2.91523 26.1399,-48.22159 51.0114,-87.91654 24.9899,-39.88395 45.8278,-73.86915 29.5542,-55.08702 -16.2352,18.73791 -37.8411,53.38154 -55.8825,81.9734 -18.1606,28.78057 -33.0776,52.06287 -35.8421,49.02162 -2.7544,-3.03016 14.8777,-30.67369 32.3575,-58.44389 17.499,-27.80052 34.8372,-55.71582 32.4124,-59.44113 -2.4064,-3.69718 -19.7083,24.22951 -37.3645,52.33226 -17.6426,28.08111 -35.64,56.33726 -38.3629,53.19078 -2.7012,-3.12143 15.2663,-31.38392 32.9993,-59.65698 17.7519,-28.30304 35.2669,-56.61312 32.6119,-59.97963 -2.6342,-3.34009 -20.1179,24.98146 -37.8872,53.3615 -17.7556,28.35834 -35.797,56.77527 -38.4555,53.51743 -2.6372,-3.23165 15.3724,-31.65698 33.0735,-59.97631 17.7191,-28.34827 35.1333,-56.59569 32.2589,-59.61621 -2.8517,-2.99674 -20.2388,25.25985 -37.8309,53.45064 -17.579,28.16991 -35.3632,56.27564 -37.9363,52.87282 -2.5528,-3.37611 15.2008,-31.49711 32.563,-59.36727 17.3789,-27.89706 34.377,-55.55861 31.2355,-58.15032 -3.1176,-2.57198 -20.0947,25.09642 -37.1671,52.54224 -17.0607,27.427 -34.217,54.63488 -36.6799,51.04778 -2.4449,-3.56083 14.6817,-30.79043 31.321,-57.58647 16.6542,-26.81987 32.8395,-53.23242 29.3626,-55.27827 -3.4527,-2.03153 -19.6248,24.38524 -35.7432,50.37627 -16.109,25.97573 -32.1643,51.53092 -34.48,47.69969 -2.3009,-3.80668 13.7314,-29.39862 29.1521,-54.30832 15.433,-24.92948 30.2806,-49.21357 26.3433,-50.50346 -3.9136,-1.28215 -18.7659,23.01608 -33.3457,46.59192 -14.5736,23.56587 -28.8736,46.41536 -30.9466,42.18592 -2.0626,-4.20823 12.224,-27.11441 25.7023,-48.94846 13.4878,-21.8495 26.2,-42.67193 21.5522,-42.78988 -4.6272,-0.11743 -17.3705,20.73822 -29.4883,40.38105 -12.1167,19.64098 -23.6034,38.0728 -25.2204,33.09846 -1.612,-4.95925 9.9139,-23.53566 20.2101,-40.25774 10.3042,-16.73502 19.4119,-31.65818 13.305,-29.37564 -6.093,2.2773 -15.4374,17.53843 -23.2654,30.24898 -7.8378,12.72638 -14.1374,22.88241 -13.9857,15.02869 0.3039,-15.73004 15.5304,-32.87918 15.5304,-32.87918 M 598.56496,559.44547 c 0,0 -5.76644,11.28397 -15.10439,26.19702 -9.37844,14.97772 -22.22871,33.3971 -36.34389,47.98734 -14.19596,14.67374 0.0717,-7.26124 16.68623,-33.58124 16.76,-26.55042 35.90659,-57.67574 34.07271,-62.53479 -1.79442,-4.75448 -20.94892,26.78619 -42.47634,60.91979 -21.58137,34.21915 -45.33966,70.64851 -53.72918,76.09917 -8.16391,5.30408 15.80901,-31.06776 40.14967,-69.52022 24.35015,-38.46744 48.84623,-78.7305 45.57408,-81.28376 -3.15579,-2.46246 -26.34427,35.85471 -50.5419,74.23234 -24.1507,38.30318 -49.31489,76.67532 -52.30475,73.95054 -2.89357,-2.63704 22.20725,-41.0596 46.06697,-79.00893 23.90423,-38.0201 46.62535,-75.6493 42.68479,-77.05342 -3.82127,-1.36161 -26.51295,36.26939 -49.94656,73.6132 -23.39818,37.28735 -47.55877,74.3318 -50.49149,71.51478 -2.84372,-2.73154 21.27661,-39.8869 43.92213,-76.06761 22.67277,-36.22422 43.99165,-71.64247 38.90717,-71.11738 -4.94639,0.51082 -26.31643,35.93415 -47.93241,70.48236 -21.60354,34.52831 -43.50392,68.28863 -46.36961,65.37396 -2.79027,-2.83795 19.23158,-36.99841 39.20338,-68.98399 19.98879,-32.01281 38.0955,-62.06257 30.19357,-56.81524 -7.75679,5.15096 -26.13186,35.30864 -43.60321,63.18907 -17.51133,27.94422 -34.25058,53.86787 -37.04638,50.86977 -2.7738,-2.9745 9.13329,-21.50757 20.925,-40.21209 11.81122,-18.73546 23.49493,-37.62585 21.12806,-41.46967 -2.35039,-3.81704 -13.98202,15.09512 -25.9824,34.20846 -11.98905,19.0953 -24.35064,38.39446 -27.06997,35.26123 -2.69821,-3.10889 9.62136,-22.41948 21.70141,-41.73005 12.09928,-19.3413 23.95683,-38.67964 21.24927,-41.99764 -2.6871,-3.29292 -14.49966,16.06158 -26.57944,35.4435 -12.06819,19.36331 -24.4039,38.75452 -27.02256,35.44197 -2.59824,-3.28672 9.69197,-22.69502 21.62809,-41.91704 11.95398,-19.25076 23.56272,-38.32759 20.50868,-41.09514 -3.03102,-2.74669 -14.60572,16.34216 -26.31338,35.2591 -11.69726,18.90014 -23.52463,37.62749 -26.00474,34.0738 -2.46226,-3.52811 9.32482,-22.2915 20.61861,-40.60807 11.3089,-18.34108 22.1465,-36.26573 18.60793,-38.23895 -3.51433,-1.9597 -14.34253,15.98483 -25.08417,33.45383 -10.73448,17.45737 -21.3752,34.43621 -23.62191,30.48693 -2.23383,-3.92663 8.38446,-20.98107 18.29587,-37.16197 9.92291,-16.19969 19.17418,-31.57349 14.84879,-32.23272 -4.30273,-0.65578 -13.5876,14.76247 -22.38667,29.15301 -8.79863,14.3898 -17.09606,27.74203 -18.83751,22.95057 -1.73606,-4.77662 6.6563,-18.40515 13.80663,-30.1481 7.16068,-11.75994 13.11757,-21.68007 6.86925,-19.12487 -12.42025,5.07917 -24.53574,32.61091 -24.53574,32.61091 m 1224.88805,74.66479 c 0,0 18.1102,-20.38208 14.0164,-28.92399 -2.0378,-4.25191 -7.1622,3.94697 -13.4196,13.6248 -6.2725,9.70136 -13.703,20.87856 -19.6697,22.70094 -5.9163,1.807 1.597,-9.35115 9.3754,-21.35433 7.784,-12.01161 15.7881,-24.82442 11.9978,-26.3689 -3.7496,-1.52794 -11.6583,11.26527 -20.3591,24.72889 -8.7035,13.46778 -18.1864,27.56346 -23.681,28.66121 -5.4182,1.08248 4.1127,-12.99827 13.3205,-27.21167 9.2011,-14.20306 18.0726,-28.53309 12.9374,-27.89749 -5.0638,0.62676 -13.9491,14.94538 -23.2449,29.26184 -9.3021,14.32606 -19.0144,28.64887 -24.2257,29.33201 -5.1571,0.67603 3.5053,-12.02404 12.5181,-25.82328 9.0369,-13.83633 18.3214,-28.64782 15.866,-32.38006 -2.4197,-3.67808 -11.3897,10.88338 -20.5799,25.12662 -9.1798,14.22715 -18.5421,28.09472 -19.8052,22.94836 -1.2508,-5.09603 8.6293,-20.05559 17.9272,-34.75894 9.3535,-14.79131 18.1462,-29.35751 16.2227,-34.10664 -1.9029,-4.69841 -10.571,9.94465 -19.5341,24.36064 -8.9571,14.40637 -18.1741,28.54302 -19.1597,22.78364 -0.9762,-5.70403 8.0694,-19.95811 16.0636,-33.05149 8.0341,-13.15855 15.1237,-25.30666 11.449,-27.12465 -3.6389,-1.80028 -10.7699,10.43778 -17.3747,21.36766 -6.6264,10.96561 -12.5911,20.4549 -12.8668,13.33569 -0.5546,-14.32353 17.61,-37.29549 17.61,-37.29549 m 1263.2045,45.26418 c 0,0 -3.945,8.61979 -11.0719,20.05732 -7.1881,11.53567 -17.4203,25.60898 -29.7884,36.99816 -12.5088,11.51876 -1.0643,-5.12812 11.3563,-24.58236 12.6185,-19.76441 26.3254,-42.75481 23.0449,-45.47396 -3.1388,-2.60168 -15.0441,17.85388 -27.9778,38.39321 -12.8921,20.47312 -26.8156,41.03568 -29.7461,38.31695 -2.8322,-2.62759 11.0203,-23.37488 23.4134,-43.24781 12.4277,-19.92848 23.5301,-39.15846 18.6877,-39.02918 -4.7069,0.12567 -15.873,19.36098 -27.3679,37.83728 -11.4844,18.45924 -23.3096,36.22317 -26.1271,33.32072 -2.7418,-2.82447 8.9154,-20.72946 18.3182,-35.92129 9.4819,-15.31973 16.7723,-27.89549 7.8368,-20.70104 -8.9239,7.18504 -16.8034,20.06456 -23.1415,30.11616 -6.3945,10.14105 -11.3368,17.65675 -14.0241,14.56142 -2.683,-3.0905 3.9949,-13.4957 10.4027,-23.84594 6.4268,-10.38097 12.5852,-20.70956 9.6738,-23.80053 -2.8926,-3.07099 -8.9798,7.29292 -15.2566,17.55931 -6.2722,10.25898 -12.7263,20.41242 -15.2097,16.88346 -2.4677,-3.50682 3.9377,-13.77317 9.7971,-23.48624 5.8741,-9.7377 11.2357,-18.96689 7.4087,-20.52259 -3.8027,-1.54579 -9.1957,7.77379 -14.3251,16.35003 -5.1333,8.58285 -9.9566,16.37224 -11.8541,11.7991 -3.7795,-9.10845 12.8561,-29.55427 12.8561,-29.55427 m -1644.2244,83.63481 c 0,0 -6.9496,19.5873 -33.6543,45.74528 -13.7188,13.43797 -3.6349,-1.33634 7.6736,-19.07844 11.5911,-18.18544 24.7246,-40.10762 21.6612,-43.18206 -2.9366,-2.94727 -14.8368,17.46168 -27.8295,38.05075 -12.9492,20.52024 -26.9972,41.22508 -29.9387,38.52543 -2.8422,-2.60851 11.0953,-23.42543 23.6404,-43.50066 12.5832,-20.13612 23.8895,-39.68373 19.3309,-40.05811 -4.4275,-0.3636 -15.7576,19.18564 -27.5514,38.13075 -11.7765,18.91716 -24.0233,37.2789 -26.857,34.40053 -2.7415,-2.78476 10.0158,-22.36551 20.0455,-38.61258 10.1736,-16.47999 17.567,-29.35663 7.3278,-19.89774 -10.3039,9.51868 -18.5651,22.92667 -24.8541,32.85691 -6.362,10.04537 -10.8796,16.87721 -13.5813,13.81929 -2.70025,-3.05624 3.9526,-13.39036 10.364,-23.71268 6.4305,-10.35332 12.618,-20.69315 9.79,-23.91578 -2.8102,-3.20229 -8.9217,7.17456 -15.2539,17.50121 -6.32758,10.31902 -12.87149,20.58335 -15.38871,17.1178 -2.50092,-3.4431 3.9843,-13.79866 9.96608,-23.68445 5.99733,-9.91149 11.52043,-19.39238 7.84763,-21.21462 -3.649,-1.81039 -9.17622,7.73395 -14.52976,16.6644 -5.35523,8.93324 -10.49784,17.21106 -12.5359,12.88161 -2.03107,-4.31458 3.32418,-13.18371 7.43307,-20.14192 4.12691,-6.98873 7.05707,-12.11402 0.60749,-9.09357 -12.92485,6.05292 -11.8503,12.16608 -11.8503,12.16608 m 913.1041,164.809 c 0,0 2.8839,2.68479 -4.5527,-0.23322 -3.7189,-1.45922 2.8655,-11.12547 10.8671,-23.33299 8.0576,-12.29293 17.3424,-26.87162 19.8006,-38.58277 2.479,-11.81034 -6.6008,3.3097 -17.4648,20.37964 -10.9644,17.22757 -24.2102,37.03902 -27.896,35.39969 -3.5807,-1.59261 9.2845,-20.82125 21.651,-40.41309 12.4117,-19.66353 24.2528,-39.5945 21.4352,-42.95025 -2.7522,-3.27775 -14.4344,16.70676 -27.2116,37.14574 -12.7461,20.38915 -26.5958,41.22514 -30.1537,39.40115 -3.4536,-1.77051 10.2229,-22.48941 22.7889,-42.7021 12.5855,-20.24409 24.1259,-40.06672 19.4372,-40.2017 -4.5705,-0.13157 -16.1339,19.69307 -28.1423,39.04643 -11.9966,19.33429 -24.4516,38.24354 -27.8482,36.18585 -3.3564,-2.03336 2.884,-11.57133 8.9753,-21.14587 6.1011,-9.58989 12.0502,-19.2128 8.721,-21.49282 -3.3116,-2.26803 -9.2231,7.38363 -15.2954,16.99926 -6.0678,9.60858 -12.2949,19.17996 -15.4136,16.71609 -3.1021,-2.4508 3.0888,-12.06674 8.9159,-21.36567 5.8355,-9.31223 11.3221,-18.32603 7.3938,-19.63902 -3.9075,-1.30607 -9.4271,7.79102 -14.7578,16.34481 -5.3304,8.55321 -10.4509,16.54467 -12.9168,13.02443 -2.4558,-3.50586 3.163,-12.4533 7.4224,-19.36137 4.2791,-6.94011 7.2261,-11.84774 -0.1565,-7.43419 -14.8359,8.86946 -10.28,9.0762 -10.28,9.0762 m 63.4089,-26.9705 c 0.02,-0.002 -6.4388,10.83926 -6.4591,10.84134 m 657.0091,109.22418 c 0,0 6.3754,-2.55115 -14.3062,14.99159 -10.386,8.80968 -5.6366,1.46719 1.1672,-9.17199 6.8337,-10.68603 15.7253,-24.70562 14.0093,-29.48438 -1.7111,-4.76503 -9.9448,8.34057 -19.5252,23.36624 -9.5908,15.04185 -20.5251,31.97644 -27.1849,34.95037 -6.6257,2.95873 4.3746,-13.97751 16.172,-32.45779 11.8068,-18.49509 24.3594,-38.47449 21.6249,-41.67615 -2.7149,-3.17883 -15.1806,16.78053 -28.7474,38.06986 -13.5718,21.29711 -28.2223,43.86806 -34.321,45.95134 -6.0397,2.06315 8.6785,-20.52091 23.7132,-44.09242 15.0385,-23.57732 30.3453,-48.0833 26.727,-49.89307 -3.5774,-1.78937 -18.8258,22.70973 -34.9983,48.08728 -16.1757,25.38258 -33.2465,51.5823 -39.065,53.21936 -5.742,1.61553 11.3786,-24.58558 28.445,-51.34145 17.0633,-26.7509 34.0415,-54.01876 29.5997,-54.51189 -4.3789,-0.48614 -21.333,26.77956 -39.0209,54.50966 -17.693,27.73822 -36.0978,55.89748 -41.7286,57.23906 -5.5449,1.32113 12.8974,-26.84082 30.982,-55.16444 18.0749,-28.30844 35.7842,-56.76914 30.5405,-55.96961 -5.1626,0.78715 -22.8848,29.24592 -41.1057,57.75833 -18.2307,28.52771 -36.9561,57.10121 -42.4246,58.19436 -5.3823,1.07591 13.3798,-27.52243 31.5166,-55.87133 18.1226,-28.32673 35.6346,-56.42085 29.5257,-54.22563 -6.007,2.15857 -24.2902,31.37355 -42.0631,59.08842 -17.779,27.72448 -35.0979,54.05648 -37.4885,50.49721 -2.3683,-3.52592 13.1811,-27.27246 28.8191,-51.67209 15.6827,-24.46935 31.3914,-49.50398 30.6662,-55.95464 -0.7178,-6.38583 -16.1607,18.43409 -32.2444,43.6788 -16.0602,25.20774 -32.7787,50.85914 -34.3143,45.9514 -1.5174,-4.84939 15.2165,-30.65998 31.6006,-56.50872 16.4342,-25.92776 32.5066,-51.87688 31.1606,-57.39844 -1.3307,-5.45901 -17.32,20.53177 -33.8031,46.67347 -16.4564,26.09949 -33.4111,52.35504 -34.8263,47.21457 -1.3976,-5.07661 15.485,-31.38017 31.7603,-57.32098 16.32,-26.01229 32.0583,-51.69884 29.876,-55.8988 -2.1568,-4.15078 -17.8383,21.56267 -33.7451,47.02763 -15.8834,25.42759 -31.9843,50.60113 -33.2514,45.18368 -1.2528,-5.35674 14.7694,-30.58541 29.9676,-55.03538 15.2346,-24.5085 29.7024,-48.32036 26.6705,-51.13613 -3.0001,-2.78633 -17.4433,21.04104 -31.7603,44.15363 -14.3025,23.08935 -28.4608,45.45047 -29.4937,39.61548 -1.0243,-5.78628 13.0582,-28.21449 26.117,-49.39955 13.0857,-21.22884 25.2216,-41.3192 21.2965,-42.64865 -3.895,-1.31923 -16.0521,18.80072 -27.6288,37.62891 -11.5753,18.82584 -22.5395,36.3323 -23.1556,29.7743 -0.6137,-6.53148 10.2837,-24.11001 19.9286,-39.87651 9.6631,-15.79614 18.1393,-29.87095 13.2263,-29.54323 -4.8933,0.3264 -13.5773,14.69425 -20.8806,26.65039 -7.3232,11.9888 -13.1913,21.4741 -12.1858,12.19865 2.018,-18.6145 16.3331,-34.54034 16.3331,-34.54034 M 437.07979,785.54736 c 0,0 -9.41682,17.29222 -22.20708,37.6849 -12.85624,20.49789 -28.90173,43.77172 -41.73881,56.26629 -12.80944,12.46765 4.09114,-13.41064 22.88614,-43.15745 18.89438,-29.90413 39.61446,-63.68523 37.32036,-67.80975 -2.23051,-4.0102 -23.73338,31.39822 -46.92163,68.09244 -23.17212,36.66869 -47.96133,74.47731 -53.19251,75.13988 -5.06836,0.64195 19.68313,-37.01737 43.96098,-75.44233 24.29967,-38.45949 48.01114,-77.52657 44.62676,-79.87279 -3.27321,-2.26914 -26.41241,36.00263 -50.51762,74.27422 -24.06,38.19982 -49.093,76.41397 -52.07178,73.67073 -2.8835,-2.6555 22.08955,-40.92998 45.78247,-78.65244 23.73436,-37.78844 46.25824,-75.12356 42.1407,-76.23022 -3.99449,-1.07359 -26.50067,36.26175 -49.67362,73.21897 -23.14094,36.90618 -46.97363,73.48816 -49.89424,70.65263 -2.83384,-2.7513 20.96589,-39.4613 43.22493,-75.0492 22.28251,-35.62542 43.1585,-70.31454 37.73165,-69.21171 -5.28536,1.07409 -26.23723,35.7734 -47.28684,69.42363 -21.04411,33.64142 -42.24629,66.35949 -45.09857,63.427 -2.77948,-2.85762 18.71027,-36.24949 37.81774,-66.85424 19.13624,-30.65084 36.03548,-58.67327 26.68342,-51.02246 -9.22035,7.54306 -26.51174,35.76968 -42.36455,61.0185 -15.91516,25.34813 -30.56521,48.04656 -33.34226,45.0298 -2.76028,-2.99854 9.26465,-21.74112 21.14823,-40.62125 11.9031,-18.91118 23.65458,-37.94593 21.21841,-41.68403 -2.41878,-3.71144 -14.1194,15.34404 -26.17041,34.56703 -12.03951,19.20464 -24.43242,38.57891 -27.13383,35.41337 -2.68028,-3.14077 9.66949,-22.52702 21.75614,-41.8774 12.10569,-19.38084 23.9482,-38.72585 21.17225,-41.93645 -2.75483,-3.1862 -14.55426,16.17404 -26.59683,35.52405 -12.03108,19.33156 -24.30496,38.65308 -26.8989,35.29723 -2.5739,-3.32992 9.65787,-22.67611 21.50997,-41.79056 11.8695,-19.14253 23.37072,-38.06921 20.23261,-40.70049 -3.11471,-2.61166 -14.58496,16.32641 -26.1528,35.0428 -11.55791,18.70032 -23.20983,37.1778 -25.65536,33.56462 -2.42847,-3.58795 9.18478,-22.10612 20.27142,-40.11136 11.10106,-18.02866 21.70022,-35.57844 18.03823,-37.34672 -3.63779,-1.7566 -14.23374,15.81522 -24.68246,32.8286 -10.44256,17.00332 -20.7295,33.44442 -22.90514,29.37613 -2.16408,-4.04667 8.10949,-20.58025 17.61092,-36.11139 9.51226,-15.54882 18.28987,-30.14542 13.72702,-30.40657 -4.5411,-0.2599 -13.37229,14.40269 -21.58906,27.85373 -8.21849,13.45387 -15.80415,25.68306 -17.35189,20.57048 -1.54404,-5.10037 6.22304,-17.74894 12.49169,-28.0555 6.28113,-10.32709 11.09592,-18.34535 3.94269,-14.28777 -14.30383,8.11366 -18.76968,23.15048 -18.76968,23.15048 M 1364.811,957.80091 c 0,0 -20.3192,38.79638 -28.2698,36.39438 -7.7163,-2.3312 37.9815,-58.74282 48.3875,-89.94125 5.2364,-15.69933 -8.6886,6.34349 -24.9609,31.74895 -16.3162,25.47394 -35.1717,54.5617 -39.0885,53.29467 -3.8807,-1.25536 14.9072,-30.1926 34.952,-61.5569 20.1074,-31.46209 41.2842,-65.08221 43.4892,-76.19225 2.1865,-11.01686 -18.9147,22.79193 -41.9624,59.02043 -23.0402,36.21674 -48.0779,74.89179 -51.9615,73.54865 -3.8212,-1.32153 21.187,-39.92106 46.7072,-80.10658 25.5848,-40.28708 51.5089,-81.91123 51.6248,-89.78977 0.1139,-7.75103 -25.7138,33.98726 -53.2092,77.42689 -27.4629,43.38811 -56.5769,88.42064 -60.4229,87.00051 -3.7629,-1.38944 25.3284,-46.38027 54.3578,-92.30885 29.0847,-46.01619 57.9853,-92.79384 56.5329,-98.19494 -1.4209,-5.28367 -30.2317,41.55212 -60.4555,89.48285 -30.1838,47.86728 -61.7457,96.75428 -65.5489,95.25579 -3.7069,-1.46053 27.8258,-50.31995 58.862,-99.59685 31.0787,-49.34439 61.5987,-99.01636 58.9157,-102.43945 -2.6156,-3.33704 -33.0684,46.35698 -64.6738,96.61658 -31.5687,50.20133 -64.2652,100.9191 -68.019,99.33828 -3.6517,-1.53786 29.0118,-52.24453 60.8561,-102.93349 31.8738,-50.7358 62.9226,-101.44549 59.2304,-103.22358 -3.5942,-1.7309 -34.6093,48.98498 -66.4989,99.79305 -31.8619,50.76416 -64.5971,101.61804 -68.2904,99.94358 -3.5929,-1.62895 29.0794,-52.44325 60.7534,-102.949 31.6948,-50.53911 62.4217,-100.81334 58.0841,-101.52897 -4.2238,-0.69685 -34.9435,49.5787 -66.3082,99.61735 -31.3454,50.00778 -63.3552,99.81496 -66.9733,98.02711 -3.5232,-1.74095 28.4965,-51.63826 59.3146,-100.84238 30.8289,-49.22141 60.5269,-97.85036 55.3283,-97.14102 -5.0703,0.69183 -34.8009,49.32467 -64.8373,97.27893 -30.0297,47.9436 -60.4123,95.29672 -63.9395,93.37586 -3.4792,-1.89466 11.7759,-25.68361 26.8786,-49.51166 15.1111,-23.84137 30.0676,-47.71901 26.6779,-49.85764 -3.3698,-2.12607 -18.3064,21.75388 -33.4459,45.66697 -15.1327,23.90228 -30.4683,47.83755 -33.8655,45.76806 -3.3771,-2.05714 11.941,-25.99723 27.0289,-49.85501 15.096,-23.87062 29.9643,-47.66221 26.3761,-49.48652 -3.5671,-1.81359 -18.4234,21.98549 -33.3939,45.68196 -14.964,23.68611 -30.0428,47.27159 -33.2995,44.97902 -3.238,-2.27934 11.821,-25.87178 26.5655,-49.23733 14.7522,-23.3776 29.1974,-46.5384 25.3918,-48.0148 -3.7844,-1.46811 -18.2235,21.70077 -32.6592,44.59789 -14.4298,22.88787 -28.8569,45.50818 -31.9123,42.89667 -3.0394,-2.59773 11.373,-25.23949 25.3577,-47.44854 13.9915,-22.21992 27.5687,-44.02524 23.4548,-45.00443 -4.0932,-0.97429 -17.6788,20.84992 -31.0812,42.15062 -13.3979,21.2937 -26.6131,42.06987 -29.3568,38.96454 -2.7317,-3.09169 10.477,-23.9102 23.0741,-43.95819 12.6029,-20.05736 24.6147,-39.37097 19.9754,-39.49966 -4.6207,-0.12817 -16.6755,19.24217 -28.2119,37.6114 -11.5349,18.36698 -22.5492,35.73781 -24.6415,31.59936 -2.0861,-4.12634 9.0048,-21.68353 19.0189,-37.65511 10.02,-15.98103 18.9896,-30.40903 12.9796,-28.32422 -6.0012,2.08174 -15.1373,14.85457 -22.8122,27.0993 -7.6755,12.24582 -13.8971,23.97316 -13.8971,23.97316 m 132.0367,-45.27438 c 0,0 13.7741,-20.22346 25.0767,-38.55398 11.3106,-18.34336 20.1685,-34.78527 10.8614,-27.26835 -18.623,15.0409 -25.3143,33.51084 -25.3143,33.51084 m 1923.0006,104.11121 c 0,0 24.3687,-31.13704 28.3032,-52.81905 1.9834,-10.93011 -9.5709,8.04255 -24.7652,32.27116 -15.3594,24.49198 -34.2376,53.93441 -46.3903,65.26065 -12.0027,11.18641 6.974,-17.77091 27.5269,-50.26979 20.6261,-32.6146 42.7005,-68.68031 40.0821,-72.28919 -2.5324,-3.49038 -25.647,34.58007 -49.9633,73.01407 -24.2622,38.34867 -49.7201,77.04345 -52.7443,74.37509 -2.9252,-2.58101 22.3885,-41.18544 46.5718,-79.51949 24.2357,-38.41713 47.3664,-76.60023 43.8749,-78.754 -3.3835,-2.08716 -26.4565,36.10486 -50.453,74.23921 -23.953,38.06534 -48.839,76.09336 -51.8075,73.3331 -2.8743,-2.6727 21.9518,-40.76531 45.4608,-78.22798 23.5475,-37.52403 45.8584,-74.53197 41.5649,-75.34209 -4.1672,-0.78628 -26.4724,36.22098 -49.368,72.75946 -22.8672,36.49299 -46.3544,72.58074 -49.2635,69.72805 -2.8247,-2.76986 20.6377,-39.00394 42.4883,-73.95808 21.8708,-34.98647 42.2756,-68.89303 36.4804,-67.16955 -5.651,1.68061 -26.1574,35.60304 -46.6044,68.29113 -20.4488,32.69099 -40.9089,64.29315 -43.7507,61.34774 -2.7683,-2.86922 18.5031,-35.99191 36.6397,-65.04718 18.227,-29.20008 33.3186,-54.21869 20.9523,-41.60381 -12.3089,12.55642 -28.0862,38.05989 -41.3998,59.17837 -13.41,21.2714 -24.5997,38.59823 -27.3565,35.56604 -2.7473,-3.02165 9.3693,-21.93139 21.3216,-40.94783 11.9718,-19.04753 23.7706,-38.19016 21.2723,-41.83299 -2.4802,-3.61636 -14.2292,15.54587 -26.3112,34.84462 -12.0704,19.28023 -24.4761,38.69864 -27.1602,35.502 -2.663,-3.17154 9.6989,-22.60298 21.7765,-41.96531 12.0964,-19.39249 23.9104,-38.7187 21.072,-41.83063 -2.8169,-3.08821 -14.5895,16.25214 -26.5827,35.54794 -11.9819,19.2776 -24.1835,38.51058 -26.7558,35.11664 -2.5527,-3.36798 9.6111,-22.63433 21.3706,-41.62446 11.7765,-19.01748 23.1625,-37.77792 19.9396,-40.27085 -3.1993,-2.47456 -14.5566,16.29522 -25.9753,34.79279 -11.4093,18.4823 -22.8756,36.69091 -25.2861,33.01766 -2.3941,-3.64845 9.0366,-21.90449 19.9074,-39.58094 10.8846,-17.69882 21.2364,-34.85538 17.4502,-36.41675 -3.7621,-1.55144 -14.1158,15.62764 -24.2603,32.16344 -10.1393,16.52742 -20.0598,32.40688 -22.161,28.21434 -2.0911,-4.1721 7.8238,-20.15851 16.8974,-35.00685 9.0838,-14.86516 17.3655,-28.64404 12.552,-28.48514 -4.7927,0.15822 -13.1622,14.04865 -20.7688,26.51058 -7.6108,12.46889 -14.4362,23.49117 -15.7233,17.94788 -2.5719,-11.07641 19.9331,-40.42822 19.9331,-40.42822 m -794.4383,20.59011 c 0,0 -4.8705,10.21332 -12.9028,23.07782 -8.1086,12.98647 -19.1935,28.26367 -31.1776,38.99801 -12.0527,10.79582 0.07,-6.7734 13.0402,-27.06774 13.1393,-20.55871 27.1699,-44.14353 23.7894,-46.70079 -3.2308,-2.44406 -15.1282,18.01663 -28.0221,38.51554 -12.8533,20.43424 -26.705,40.91358 -29.6289,38.18348 -2.8262,-2.6389 10.9728,-23.33782 23.2726,-43.08198 12.3327,-19.79704 23.3101,-38.82694 18.2956,-38.39221 -4.8769,0.42281 -15.9419,19.46097 -27.2541,37.64656 -11.3057,18.17531 -22.8743,35.5715 -25.6847,32.6589 -2.7446,-2.84434 8.1881,-19.63901 17.1731,-34.12557 9.0363,-14.56943 16.2237,-26.88737 8.1557,-21.1926 -8.0287,5.66698 -15.6511,18.1781 -22.0154,28.29633 -6.4077,10.18714 -11.6166,18.13346 -14.2951,15.01534 -2.6725,-3.11112 4.0143,-13.54794 10.4155,-23.90544 6.42,-10.38806 12.5579,-20.70176 9.6006,-23.71947 -2.9381,-2.998 -9.0075,7.35011 -15.2483,17.57371 -6.2365,10.21642 -12.6348,20.29837 -15.098,16.73212 -2.4481,-3.54432 3.9082,-13.75288 9.693,-23.35817 5.7993,-9.62934 11.0631,-18.70319 7.1437,-20.09837 -3.8949,-1.38642 -9.2089,7.79839 -14.2026,16.15759 -4.9992,8.36841 -9.6269,15.85537 -11.4302,11.11934 -3.6,-9.45488 11.8413,-27.87039 11.8413,-27.87039 M 867.87538,909.8954 c 0,0 4.08724,-4.65645 3.29117,-3.38148 -0.63654,1.01949 -6.59687,8.73235 -26.17505,32.19622 -20.26349,24.28522 -10.09537,8.57594 3.43345,-12.85698 13.95477,-22.10775 32.01729,-51.31516 30.93838,-57.40035 -1.05987,-5.97785 -17.51992,21.11347 -36.97682,52.03088 -19.57387,31.10328 -41.85584,65.4795 -52.90491,75.00075 -10.82289,9.32636 11.91007,-25.135 35.68219,-62.64911 23.80757,-37.57005 48.4454,-77.96641 45.3303,-80.78977 -2.99996,-2.719 -26.20814,35.58634 -50.47801,74.0309 -24.22089,38.36695 -49.5046,76.87404 -52.50725,74.17064 -2.90537,-2.61591 22.30183,-41.14782 46.31118,-79.28901 24.05707,-38.21699 46.96142,-76.10752 43.20474,-77.8197 -3.64171,-1.65979 -26.50484,36.23507 -50.18593,73.93699 -23.64224,37.64007 -48.11835,75.12155 -51.06469,72.32576 -2.85514,-2.70925 21.56879,-40.277 44.58314,-77.01435 23.0459,-36.78773 44.78784,-72.89328 40.03606,-72.93002 -4.61795,-0.0357 -26.38662,36.0708 -48.54596,71.47244 -22.14011,35.37092 -44.71269,70.12582 -47.59439,67.23334 -2.8028,-2.81327 19.80531,-37.82304 40.58034,-71.08547 20.79044,-33.28712 39.91385,-65.04704 33.02218,-61.48405 -6.74405,3.48667 -26.05383,35.30209 -44.85366,65.33659 -18.82232,30.07042 -37.2367,58.56393 -40.05128,55.58643 -2.76724,-2.9274 14.38558,-29.66277 29.46802,-53.73319 15.10968,-24.1139 28.23097,-45.63674 19.06267,-38.35649 -9.10329,7.22864 -22.50942,28.89481 -34.40772,47.78313 -11.93683,18.94951 -22.45775,35.30389 -25.18782,32.21488 -2.71744,-3.07473 9.54634,-22.26657 21.59796,-41.49849 12.07101,-19.26285 23.92523,-38.55952 21.29521,-41.9986 -2.61036,-3.41337 -14.41767,15.90072 -26.51783,35.28352 -12.0885,19.36413 -24.4709,38.79785 -27.11508,35.53034 -2.62344,-3.24189 9.71362,-22.69049 21.72248,-41.99775 12.02713,-19.33663 23.73233,-38.54069 20.76046,-41.44028 -2.94928,-2.87755 -14.61875,16.34129 -26.45526,35.4366 -11.82569,19.07787 -23.81629,38.03162 -26.3302,34.53667 -2.49531,-3.4691 9.45654,-22.4591 20.94934,-41.06924 11.50865,-18.63583 22.57723,-36.91809 19.16494,-39.10011 -3.38815,-2.16658 -14.44084,16.13328 -25.46764,34.0407 -11.01868,17.89424 -22.00547,35.39373 -24.32128,31.5605 -2.30156,-3.80963 8.65599,-21.37117 18.96886,-38.18309 10.3252,-16.83202 20.03807,-32.95851 15.93996,-33.99854 -4.07472,-1.0341 -13.80616,15.12413 -23.16965,30.41994 -9.36105,15.29181 -18.34126,29.7138 -20.24209,25.18723 -1.89356,-4.50928 7.12525,-19.1139 15.09167,-32.18027 7.97616,-13.08235 14.94029,-24.67771 9.36738,-23.2483 -5.55518,1.42486 -12.83556,13.48172 -18.769,23.21383 -5.94943,9.75833 -10.50267,17.13716 -10.41931,9.33706 0.16718,-15.64443 8.29434,-21.34861 8.29434,-21.34861 m 2043.05813,63.10134 c 0,0 -4.4195,9.43519 -12.0075,21.60021 -7.6572,12.27593 -18.3201,26.95902 -30.4854,38.00334 -12.2681,11.13761 -0.4854,-5.97038 12.2093,-25.84414 12.8772,-20.15955 26.7422,-43.44062 23.4114,-46.07813 -3.1852,-2.52221 -15.0879,17.93793 -28.003,38.45893 -12.874,20.45555 -26.7628,40.9782 -29.6899,38.25373 -2.8292,-2.63331 10.9979,-23.35826 23.3463,-43.16984 12.3823,-19.86578 23.4247,-38.99994 18.4989,-38.72266 -4.7893,0.26959 -15.907,19.41047 -27.314,37.7471 -11.3984,18.32283 -23.0999,35.90978 -25.9141,33.00253 -2.7432,-2.83397 8.5706,-20.21308 17.7759,-35.07158 9.2701,-14.96293 16.5151,-27.42191 7.9898,-20.93772 -8.4985,6.46385 -16.2567,19.1705 -22.6081,29.2552 -6.4017,10.16459 -11.4716,17.88629 -14.1544,14.77964 -2.6777,-3.1008 4.0051,-13.52221 10.4101,-23.87676 6.424,-10.3852 12.5729,-20.7073 9.6392,-23.76275 -2.9147,-3.03561 -8.9935,7.32111 -15.2533,17.56747 -6.2553,10.23905 -12.6829,20.3588 -15.1571,16.81273 -2.4588,-3.52403 3.9243,-13.76472 9.7486,-23.42758 5.8391,-9.6872 11.1543,-18.84285 7.2811,-20.31852 -3.8486,-1.46632 -9.2037,7.78855 -14.2676,16.2601 -5.0686,8.4794 -9.7973,16.12265 -11.6501,11.47229 -3.6947,-9.27306 12.37,-28.74835 12.37,-28.74835 m -944.4411,64.89222 c 0,0 6.4308,-8.06835 12.4362,-17.64245 6.0317,-9.61594 11.547,-20.61791 10.4132,-26.69088 -1.1289,-6.04617 -11.1105,11.00531 -22.9194,29.72016 -11.8283,18.74548 -25.546,39.14573 -30.9049,39.95029 -5.1825,0.7781 8.3304,-19.11873 21.3046,-39.66882 12.9898,-20.57498 25.3337,-41.67026 21.5342,-43.4135 -3.6716,-1.68451 -15.4155,18.58884 -27.9768,38.67124 -12.5275,20.02839 -25.8723,39.88304 -28.7605,37.09111 -2.7935,-2.7005 10.6065,-22.98286 22.2013,-41.68986 11.625,-18.75563 21.6316,-36.15936 15.2705,-33.34578 -6.2228,2.75238 -16.5112,20.225 -26.4124,36.11205 -9.9282,15.93027 -19.5261,30.43494 -22.2955,27.46758 -2.7526,-2.94935 3.7109,-12.87732 10.0363,-22.9365 6.3449,-10.09013 12.54,-20.2964 9.9991,-23.9571 -2.5269,-3.64056 -8.6327,6.60924 -15.0534,16.96212 -6.4163,10.34585 -13.1551,20.80295 -15.7804,17.54181 -2.6071,-3.2386 4.0604,-13.74658 10.3556,-24.02979 6.3128,-10.31221 12.2673,-20.41861 9.0417,-22.9991 -3.2041,-2.56317 -9.1116,7.57921 -15.0731,17.42814 -5.9587,9.84415 -11.9509,19.37338 -14.2792,15.55998 -2.3163,-3.79369 3.6647,-13.51679 8.9016,-22.28883 5.2495,-8.79332 9.8027,-16.69718 5.2354,-16.95876 -4.5408,-0.26005 -9.4401,8.18536 -13.4298,14.89696 -4.0214,6.76484 -7.0004,11.62926 -7.3829,4.47342 -0.7711,-14.42556 2.2698,-11.77843 2.2698,-11.77843 m 1403.7924,31.26679 c 0,0 -3.2105,7.17674 -8.6161,15.75064 -5.4223,8.60045 -12.999,18.51495 -21.4193,24.12531 -8.4175,5.60855 -0.901,-5.6799 7.5255,-18.92522 8.4631,-13.30297 17.7736,-28.54248 14.557,-31.12429 -3.1695,-2.54389 -12.2311,12.60087 -22.8057,29.27599 -10.6066,16.72571 -22.6486,34.79583 -29.8431,38.35563 -7.044,3.4852 5.3401,-14.74328 17.5268,-33.81045 12.1716,-19.04345 24.0943,-38.88747 19.09,-38.51471 -4.8544,0.36158 -16.5004,19.70541 -28.2087,38.03902 -11.7029,18.3251 -23.4734,35.69954 -25.764,32.07986 -2.2431,-3.54471 9.335,-21.0154 18.9724,-36.21438 9.685,-15.27416 17.5723,-28.41602 9.9948,-23.67889 -7.5204,4.70142 -15.7549,17.97873 -22.7739,28.94818 -7.0589,11.0318 -12.9373,19.86896 -15.0912,16.00185 -2.149,-3.8584 5.3371,-15.37002 12.5752,-26.89753 7.2657,-11.57151 14.2785,-23.15294 12.063,-27.37102 -2.2018,-4.19178 -9.1185,7.44586 -16.3196,19.08326 -7.1971,11.63107 -14.6778,23.26116 -16.6811,19.02257 -1.9891,-4.20854 5.4204,-15.94899 12.2551,-27.15622 6.8571,-11.24409 13.1766,-22.00637 9.8666,-24.44283 -3.2866,-2.41919 -9.5845,8.39059 -15.728,18.57215 -6.1457,10.18529 -12.0883,19.68659 -13.6808,14.66911 -1.5877,-5.00253 4.3449,-14.75201 9.2054,-22.93042 4.8762,-8.20483 8.7415,-14.91604 3.4863,-13.97408 -10.3979,1.86376 -16.2595,19.58287 -16.2595,19.58287"
       id="path30958"
       inkscape:connector-curvature="0"
       inkscape:path-effect="#path-effect31017"
       inkscape:original-d="m 203.60156,299.43945 c -12.05592,0.32043 -23.92442,4.8605 -33.14291,12.64478 -9.61273,7.9231 -16.71573,18.46573 -22.21418,29.55695 -7.14416,14.47069 -11.69052,30.0877 -14.71266,45.90203 -0.62005,3.34026 -1.10801,6.7143 -1.56306,10.08765 -13.43521,-9.66739 -28.19288,-17.57773 -43.875253,-22.92217 -11.049211,-3.69122 -22.741996,-5.94644 -34.431321,-5.04288 -9.507649,0.77412 -18.946076,3.86927 -26.655678,9.59605 -8.91692,6.50735 -15.481408,15.77036 -20.1244071,25.69234 -2.3722202,5.10391 -3.7914177,10.66625 -3.6578293,16.31647 0.09258,7.92292 3.0134622,15.53365 7.2212034,22.16654 4.91695,7.81069 11.432772,14.46067 18.367981,20.4886 11.124267,9.59218 23.591441,17.46971 36.341512,24.69602 19.365804,10.85763 39.702382,19.89333 60.303142,28.11529 23.19519,9.20606 46.84301,17.24051 70.79444,24.2388 1.00892,0.28927 2.01784,0.57855 3.02676,0.86783 13.52077,-27.80642 25.47055,-56.37161 35.70782,-85.5466 7.17982,-20.67941 13.39891,-41.74395 17.51775,-63.26318 2.61037,-13.97511 4.29395,-28.22784 3.6924,-42.47147 -0.46312,-9.11532 -1.96633,-18.29558 -5.70637,-26.6757 -3.28804,-7.26053 -8.61005,-13.79967 -15.66848,-17.67531 -6.3143,-3.54747 -13.49189,-5.1537 -20.59014,-6.19108 -3.52057,-0.47635 -7.07916,-0.66941 -10.63072,-0.58096 z m 2701.22654,15.55469 c -6.5553,0.14158 -12.6777,3.20513 -17.7871,7.15095 -6.5121,5.06326 -11.8989,11.44596 -16.3867,18.33343 -0.7565,0.25094 -1.0007,-0.67733 -1.2831,-1.16254 -4.52,-7.46421 -10.1143,-14.51281 -17.4269,-19.40978 -4.8372,-3.22653 -10.8099,-5.18149 -16.6445,-4.1474 -5.6913,1.00124 -10.8993,4.17406 -14.706,8.47753 -2.963,3.79436 -3.5932,8.94341 -2.6156,13.54887 1.2896,7.13555 4.9427,13.55672 8.7722,19.62807 7.2097,11.14064 16.183,20.99484 25.4061,30.48177 5.8507,5.93035 11.9322,11.61548 18.2048,17.09519 14.301,-11.69884 27.8834,-24.36572 39.7266,-38.58419 5.5708,-6.81903 10.7415,-14.10681 14.1801,-22.26364 1.8369,-4.56765 3.0278,-9.62112 1.9638,-14.53009 -0.8103,-3.52001 -3.0368,-6.63771 -5.9355,-8.78283 -4.3256,-3.55608 -9.8005,-5.94295 -15.4682,-5.83534 z m -333.9922,27.71289 c -10.0651,0.36241 -19.6389,4.46195 -27.9139,10.02538 -11.8034,7.94039 -21.5522,18.5663 -29.9795,29.95143 -1.9036,2.58353 -3.6744,5.26125 -5.4054,7.96264 -6.9987,-12.44682 -15.8058,-23.99169 -26.6475,-33.32746 -7.3005,-6.16184 -15.844,-11.28616 -25.3349,-13.06316 -6.9658,-1.30157 -14.2945,-0.64877 -20.8723,1.96321 -6.56,2.52396 -12.5529,6.50519 -17.6423,11.35114 -4.7037,4.7507 -7.5262,11.25896 -7.8063,17.93432 -0.5359,8.74108 2.0685,17.30496 5.4018,25.28641 5.0036,11.77552 12.0425,22.53471 19.5501,32.84862 12.6271,17.17788 27.081,32.90728 42.0702,48.02255 10.0933,10.10006 20.5451,19.84818 31.3222,29.21484 19.8974,-16.18589 38.8598,-33.52745 56.5259,-52.11896 11.9662,-12.69367 23.3273,-26.06204 32.9019,-40.66815 5.5658,-8.61996 10.492,-17.77312 13.4511,-27.63672 1.8459,-6.41254 2.7249,-13.30686 1.3208,-19.89815 -1.2752,-5.88036 -4.5773,-11.26503 -9.1518,-15.16258 -4.149,-3.68565 -8.8288,-6.80289 -13.886,-9.09621 -5.6084,-2.48081 -11.7473,-3.81023 -17.9041,-3.58915 z m -552.6504,8.71485 c -6.9019,0.20789 -13.2987,3.58977 -18.5694,7.86952 -6.1177,4.94436 -11.2063,11.05031 -15.4911,17.61876 -0.7559,0.24869 -0.9984,-0.67784 -1.2799,-1.16209 -4.7516,-7.83603 -10.6849,-15.22755 -18.5393,-20.12519 -4.7985,-2.89716 -10.6322,-4.51699 -16.2162,-3.3048 -5.4057,1.138 -10.3589,4.1987 -14.002,8.33491 -2.9378,3.72521 -3.6069,8.80809 -2.6692,13.365 1.2412,7.18523 4.9064,13.63458 8.7456,19.73433 7.2542,11.23378 16.3027,21.16758 25.6039,30.71694 5.8064,5.88083 11.8445,11.51524 18.0641,16.95457 14.3136,-11.70662 27.9002,-24.37979 39.7487,-38.60897 5.5503,-6.79226 10.6911,-14.04788 14.1282,-22.16185 1.8553,-4.59307 3.0706,-9.67699 1.9927,-14.6166 -0.8077,-3.48598 -2.9796,-6.55983 -5.8313,-8.69145 -4.374,-3.62758 -9.9443,-6.05695 -15.6848,-5.92308 z m -1357.67183,1.83203 c -9.91691,0.26577 -19.71951,2.78962 -28.65638,7.07075 -7.87985,4.10238 -14.02269,11.28091 -17.09702,19.59343 -3.78561,9.73563 -4.38112,20.36231 -3.87245,30.70857 0.79762,15.00021 4.14704,29.72414 8.2232,44.13751 6.41496,22.21337 15.07222,43.70194 24.53873,64.77056 10.23758,22.62059 21.63087,44.72065 33.90889,66.29319 0.86977,1.50072 1.73955,3.00144 2.60933,4.50216 28.55529,-10.50023 56.5256,-22.59412 83.71338,-36.2566 20.30096,-10.27418 40.14923,-21.54713 58.68571,-34.77153 11.17752,-8.04648 21.87827,-16.89604 31.02625,-27.22313 6.18818,-7.08684 11.65821,-15.02605 14.74847,-23.96465 2.4216,-7.12019 3.0477,-14.98367 0.97211,-22.26526 -1.95821,-7.07655 -6.04575,-13.32528 -10.46621,-19.09872 -6.30305,-8.06942 -14.54624,-14.79859 -24.16721,-18.46083 -10.43596,-4.03711 -21.96985,-4.5841 -32.95382,-2.79399 -13.88425,2.15842 -27.07918,7.5304 -39.47492,14.03239 -10.39589,5.51156 -20.28657,11.99035 -29.51549,19.28349 -0.25384,0.32359 -0.9437,0.80498 -1.19398,0.28417 -0.50435,-1.87889 -0.73815,-3.82109 -1.22339,-5.70743 -3.15582,-14.30347 -8.00936,-28.28592 -14.82158,-41.27503 -5.70566,-10.68777 -12.99364,-20.76461 -22.67936,-28.16057 -6.86664,-5.21093 -14.98486,-8.92477 -23.53609,-10.115 -2.89931,-0.4432 -5.83605,-0.62736 -8.76817,-0.58348 z m 906.95703,3.59961 c -6.9019,0.20789 -13.2988,3.58977 -18.5694,7.86952 -6.1157,4.94672 -11.2068,11.05026 -15.4892,17.62071 -0.7571,0.25177 -1.0004,-0.67754 -1.2831,-1.16254 -4.5368,-7.49247 -10.1581,-14.56607 -17.5097,-19.46578 -4.875,-3.22872 -10.8999,-5.16133 -16.7586,-4.05838 -5.5908,1.03336 -10.6928,4.16804 -14.4525,8.3742 -2.9624,3.73411 -3.6448,8.84541 -2.7082,13.4208 1.2644,7.24971 4.9728,13.75456 8.859,19.90291 7.3537,11.33279 16.5064,21.3504 25.9222,30.98089 5.6726,5.72132 11.5705,11.2124 17.636,16.51962 14.3403,-11.73137 27.9642,-24.43119 39.8247,-38.70287 5.5968,-6.85673 10.7789,-14.18665 14.1873,-22.40643 1.7849,-4.48401 2.9102,-9.49557 1.8578,-14.28838 -0.8165,-3.52594 -3.028,-6.59887 -5.9065,-8.74467 -4.3572,-3.59131 -9.8959,-5.99107 -15.6098,-5.8596 z M 3120.3672,409.5 c -10.067,0.36278 -19.6382,4.45755 -27.914,10.02272 -11.846,7.96823 -21.6288,18.64481 -30.0709,30.07442 -1.8711,2.54696 -3.6143,5.18441 -5.3198,7.84427 -6.9622,-12.38696 -15.7217,-23.87611 -26.4883,-33.18946 -7.1026,-6.02871 -15.3614,-11.06941 -24.5575,-13.01366 -7.2072,-1.53642 -14.8707,-0.96385 -21.7406,1.74478 -6.3632,2.44528 -12.1949,6.25979 -17.2099,10.8751 -4.7494,4.60307 -7.8103,10.95809 -8.2407,17.56366 -0.7214,8.27861 1.4856,16.46885 4.5,24.10447 4.7905,12.07928 11.8751,23.07166 19.4259,33.58148 12.2857,16.95316 26.4256,32.47528 41.0804,47.38023 10.6897,10.80997 21.8001,21.20851 33.2717,31.18191 19.8974,-16.1859 38.8598,-33.52745 56.5258,-52.11896 11.9658,-12.69403 23.3275,-26.06193 32.9019,-40.66815 5.5622,-8.61708 10.4931,-17.7722 13.4512,-27.63672 1.8446,-6.41219 2.7259,-13.30546 1.3206,-19.89615 -1.2749,-5.88004 -4.573,-11.26696 -9.1498,-15.16247 -4.206,-3.73104 -8.9245,-6.87266 -14.06,-9.17436 -5.5591,-2.43213 -11.6342,-3.73308 -17.726,-3.51311 z m -1949.1231,12.53516 c -10.0901,0.35651 -19.6856,4.45979 -27.9735,10.04781 -11.867,7.97964 -21.6394,18.67221 -30.0953,30.1196 -1.8482,2.52593 -3.5859,5.13068 -5.2612,7.77399 -6.9923,-12.42528 -15.7753,-23.94949 -26.5965,-33.28463 -7.0911,-5.99589 -15.335,-11.00163 -24.4907,-12.92638 -6.9285,-1.46521 -14.2872,-1.00961 -20.9388,1.47236 -6.7996,2.46427 -12.9648,6.48811 -18.2333,11.41972 -4.5902,4.53271 -7.5121,10.75257 -7.9712,17.19377 -0.7428,8.17684 1.4004,16.27393 4.3428,23.83353 4.7527,12.1332 11.8491,23.17325 19.4015,33.72264 12.3314,17.04174 26.5292,32.64332 41.2518,47.61977 10.6918,10.8089 21.8001,21.20375 33.2715,31.17774 20.168,-16.40858 39.3791,-34.00106 57.2464,-52.88564 11.7486,-12.51376 22.8854,-25.69284 32.2944,-40.07788 5.5778,-8.65348 10.5007,-17.86207 13.4279,-27.77672 1.9058,-6.75517 2.7354,-14.06569 0.8958,-20.94755 -1.4797,-5.46603 -4.749,-10.41378 -9.092,-14.04128 -4.4666,-3.89744 -9.5071,-7.19486 -15.0077,-9.44307 -5.203,-2.09463 -10.8393,-3.19758 -16.4719,-2.99778 z m 1211.2637,50.82812 c -6.9011,0.20878 -13.297,3.59087 -18.5669,7.87019 -6.1149,4.94677 -11.2064,11.04959 -15.4878,17.62005 -0.7607,0.25348 -1.0015,-0.6873 -1.2818,-1.1621 -4.4883,-7.40697 -10.0283,-14.40568 -17.2625,-19.29823 -4.8166,-3.26062 -10.7685,-5.25592 -16.6134,-4.29504 -5.7525,0.96551 -11.0363,4.14313 -14.8763,8.49 -2.9933,3.78694 -3.6183,8.95698 -2.6424,13.57129 1.2796,7.08824 4.8912,13.46036 8.6844,19.49032 7.2882,11.29435 16.3934,21.27798 25.7485,30.87659 5.7702,5.84063 11.7704,11.43642 17.9506,16.83888 14.3033,-11.70062 27.8883,-24.36931 39.7354,-38.59469 5.5538,-6.79899 10.7087,-14.06347 14.1452,-22.19179 1.8482,-4.55672 3.0407,-9.62164 2.0119,-14.50844 -0.8082,-3.57106 -3.0292,-6.69232 -5.9489,-8.85901 -4.358,-3.58568 -9.8952,-5.98589 -15.596,-5.84802 z m -237.8418,12.53711 c -12.7344,0.4175 -25.0264,4.95169 -35.8788,11.45576 -14.4374,8.5874 -26.7716,20.27882 -37.7357,32.91524 -6.9109,8.01435 -13.262,16.50423 -18.9011,25.45908 -8.504,-15.18893 -18.9778,-29.31347 -31.3216,-41.60152 -9.3828,-9.23123 -20.0968,-17.37144 -32.3551,-22.37322 -9.7604,-3.95081 -20.5961,-5.63926 -31.0595,-3.901 -10.6661,1.67812 -20.6608,6.51407 -29.3178,12.86421 -5.1496,3.75891 -10.1147,8.00178 -13.5157,13.46128 -3.7599,5.86023 -5.9027,12.69472 -6.2727,19.63464 -0.674,10.30337 1.6986,20.5264 5.1304,30.17332 5.2053,14.53278 12.9566,27.98853 21.385,40.85834 12.6662,19.19163 27.3275,36.99097 42.6394,54.11325 19.5502,21.77668 40.4285,42.33903 62.0767,62.0195 4.1799,3.77309 8.3985,7.49297 12.6519,11.17893 24.0031,-19.44819 46.9645,-40.18505 68.8425,-61.9927 17.1126,-17.14647 33.4898,-35.09175 48.2449,-54.33287 10.1514,-13.33693 19.5227,-27.36366 26.7433,-42.5228 4.7037,-10.03836 8.4304,-20.69467 9.4439,-31.78458 0.7176,-8.41605 -0.4195,-17.14398 -4.4119,-24.66835 -3.0417,-5.90667 -7.6661,-10.86149 -12.8819,-14.91908 -9.1466,-7.43086 -19.9248,-13.16794 -31.615,-15.19404 -3.9048,-0.69125 -7.9143,-0.96953 -11.8912,-0.84339 z M 558.51367,513.28711 c -10.12966,0.36397 -19.76118,4.51048 -28.07337,10.13036 -11.85827,8.01226 -21.63213,18.72689 -30.07822,30.1962 -1.80729,2.47617 -3.50237,5.03242 -5.15114,7.6168 -6.98006,-12.41986 -15.7649,-23.94113 -26.58174,-33.26857 -7.16327,-6.07556 -15.52065,-11.12171 -24.80852,-13.00972 -7.16458,-1.45302 -14.76105,-0.83873 -21.56233,1.88718 -6.52264,2.52564 -12.45828,6.47661 -17.52005,11.28456 -4.76902,4.79757 -7.59144,11.40496 -7.84364,18.15626 -0.48264,8.75511 2.14678,17.32152 5.50883,25.30546 5.01083,11.74382 12.05871,22.47531 19.55072,32.76168 12.56496,17.0716 26.92961,32.71789 41.83193,47.74899 10.13648,10.15251 20.63696,19.94815 31.46386,29.36072 19.89928,-16.18428 38.86093,-33.52767 56.52779,-52.11896 11.9658,-12.69403 23.32749,-26.06193 32.9019,-40.66815 5.56586,-8.61997 10.49203,-17.77312 13.45117,-27.63672 1.84585,-6.41255 2.72491,-13.30686 1.32077,-19.89815 -1.27522,-5.88036 -4.5773,-11.26503 -9.15178,-15.16258 -4.17459,-3.70633 -8.8837,-6.84295 -13.97785,-9.13578 -5.58118,-2.45487 -11.68705,-3.76924 -17.80833,-3.54958 z m 1000.62693,33.56836 c -4.1668,-0.029 -8.5804,0.87063 -11.7207,3.80078 -3.992,3.65953 -5.8841,8.97874 -6.9207,14.16408 -1.9028,9.67184 -1.3686,19.62966 -0.4496,29.38866 1.5869,15.36826 4.8515,30.52168 8.831,45.42981 0.2774,1.00516 0.5549,2.01033 0.8323,3.0155 18.4193,-1.98706 36.7719,-5.1514 54.4991,-10.61365 8.4696,-2.6935 16.8591,-6.00072 24.223,-11.05557 4.006,-2.83574 7.751,-6.49941 9.403,-11.21331 1.089,-3.18704 0.9509,-6.72274 -0.1628,-9.87877 -1.7669,-5.98313 -5.5806,-11.54913 -11.1903,-14.47703 -5.8851,-3.15134 -12.8016,-3.53672 -19.3251,-2.81044 -7.7862,0.86838 -15.3355,3.27611 -22.4762,6.46869 0.6086,-9.40813 -0.198,-19.08974 -3.88,-27.84731 -2.2798,-5.19025 -6.08,-10.01029 -11.3741,-12.34604 -3.2016,-1.45901 -6.7714,-2.0787 -10.2889,-2.0254 z m 1239.4258,26.20312 c -6.5553,0.14158 -12.6777,3.20513 -17.7872,7.15095 -6.5126,5.06244 -11.8991,11.44722 -16.3866,18.33343 -0.7607,0.25348 -1.0015,-0.68729 -1.2818,-1.16209 -4.4883,-7.40697 -10.0283,-14.40569 -17.2625,-19.29823 -4.8166,-3.26062 -10.7685,-5.25593 -16.6135,-4.29505 -5.7652,0.96566 -11.0511,4.15808 -14.9008,8.51123 -2.9656,3.79495 -3.5947,8.94454 -2.6177,13.55198 1.2851,7.10997 4.9125,13.5 8.7233,19.54478 7.2347,11.21079 16.2705,21.11937 25.5419,30.65146 5.8213,5.90171 11.8799,11.55108 18.1181,17.00764 14.3605,-11.74792 27.9983,-24.47114 39.8779,-38.7667 5.5103,-6.76857 10.6252,-13.99825 14.0289,-22.08499 1.8412,-4.57415 3.0325,-9.63852 1.9584,-14.55318 -0.8254,-3.53094 -3.0383,-6.61071 -5.9302,-8.75589 -4.3256,-3.55608 -9.8005,-5.94295 -15.4682,-5.83534 z m -1736.7402,60.7168 c -6.9013,0.20825 -13.2974,3.59008 -18.5675,7.86953 -6.1166,4.94468 -11.2042,11.04987 -15.4872,17.61875 -0.7607,0.25348 -1.0015,-0.68729 -1.2818,-1.16209 -4.7516,-7.83602 -10.6849,-15.22754 -18.5394,-20.12518 -4.7985,-2.89778 -10.63197,-4.51614 -16.2163,-3.30541 -5.37528,1.12873 -10.29408,4.16886 -13.93969,8.25757 -2.98209,3.72222 -3.67877,8.84934 -2.73181,13.44302 1.22666,7.10806 4.83032,13.49961 8.62382,19.53867 7.18543,11.18559 16.16294,21.07554 25.39988,30.58073 5.9063,6.00081 12.053,11.74815 18.3923,17.28636 14.3009,-11.69884 27.8834,-24.36572 39.7265,-38.58419 5.5709,-6.81903 10.7416,-14.10681 14.1802,-22.26365 1.8256,-4.5381 3.0115,-9.55149 1.9845,-14.43267 -0.7905,-3.56469 -3.0358,-6.7226 -5.9662,-8.8877 -4.3546,-3.5794 -9.8856,-5.96433 -15.5773,-5.83374 z m 833.4492,84.08789 c -6.789,0.1368 -13.116,3.90594 -17.3884,9.05135 -5.7365,6.6727 -9.1812,14.9685 -11.6372,23.32732 -0.5085,1.81865 -0.9409,3.64996 -1.3455,5.49828 -7.2055,-6.04983 -15.4799,-11.16801 -24.6874,-13.38935 -5.8442,-1.35203 -12.4191,-0.99862 -17.5726,2.3192 -4.5284,2.86553 -8.0204,7.29613 -10.0359,12.22145 -1.3149,3.60563 -0.9373,7.6422 0.5785,11.11201 2.1619,5.13811 6.0599,9.28307 10.095,13.01828 7.0152,6.33807 15.0976,11.34171 23.2794,16.00449 12.381,6.92618 25.3745,12.71815 38.5891,17.84402 0.7083,0.27109 1.4167,0.54217 2.125,0.81326 9.4672,-16.26512 17.9439,-33.18307 24.0773,-51.00191 2.7417,-8.22204 4.9499,-16.72102 5.1966,-25.42578 0.06,-4.79165 -0.6498,-9.80473 -3.351,-13.87531 -2.0242,-2.98634 -5.2106,-5.06526 -8.6394,-6.0403 -2.9892,-1.00188 -6.1259,-1.52564 -9.2835,-1.47701 z m 483.5703,16.75 c -6.3067,0.28891 -12.8311,0.98181 -18.4444,4.10211 -5.9616,3.27665 -10.3091,8.93516 -12.9214,15.11965 -3.7784,8.73512 -4.9163,18.30139 -5.3249,27.73631 -0.5216,14.48143 1.1832,28.94215 3.4747,43.21268 3.3442,20.16271 8.3826,40.00166 14.1394,59.59709 2.999,10.0747 6.2637,20.06898 9.7641,29.98021 25.0372,-4.26158 49.8395,-9.95845 74.1409,-17.34347 16.4075,-5.04558 32.6108,-10.94822 47.9485,-18.7019 9.3451,-4.78979 18.4289,-10.366 26.1043,-17.56798 5.3203,-5.08756 9.9926,-11.22471 11.8949,-18.44325 1.3709,-5.16392 1.1444,-10.72889 -0.5886,-15.79142 -1.6097,-5.03392 -3.9925,-9.8141 -6.9171,-14.21059 -4.8479,-7.0436 -11.8236,-12.67954 -19.9479,-15.474 -9.7484,-3.51011 -20.4048,-3.54509 -30.5585,-2.00782 -13.281,2.01853 -26.0815,6.57917 -38.164,12.38988 -1.6069,0.79576 -3.1994,1.61957 -4.7816,2.46305 0.034,-14.03842 -1.8874,-28.16076 -6.5471,-41.42903 -3.1033,-8.62303 -7.6235,-16.93631 -14.3954,-23.23064 -5.5516,-5.15423 -12.6118,-8.66824 -20.1102,-9.797 -2.8838,-0.47884 -5.8366,-0.6501 -8.7657,-0.60388 z M 395.55859,747.9375 c -10.06551,0.36326 -19.64048,4.46133 -27.91531,10.02623 -11.87153,7.98666 -21.66342,18.68547 -30.12475,30.15059 -1.84981,2.52152 -3.57264,5.13287 -5.26072,7.76459 -6.88799,-12.26421 -15.56059,-23.65227 -26.16797,-32.91602 -7.04606,-6.04886 -15.236,-11.11155 -24.36718,-13.18359 -7.25913,-1.62816 -15.00317,-1.15654 -21.95972,1.53422 -6.45153,2.41758 -12.34861,6.2683 -17.42919,10.91498 -4.80609,4.61949 -7.89299,11.0307 -8.31771,17.68757 -0.70006,8.23401 1.48382,16.38378 4.48127,23.98122 4.64637,11.74128 11.47064,22.47153 18.77421,32.71254 12.52326,17.41722 27.0018,33.33359 42.02988,48.59897 10.60939,10.70581 21.62225,21.01221 32.99548,30.90058 19.95962,-16.23257 38.97338,-33.63445 56.68668,-52.28791 11.96278,-12.70518 23.32439,-26.08559 32.87895,-40.70842 5.47853,-8.51322 10.32728,-17.54662 13.27014,-27.26983 1.92902,-6.64664 2.84304,-13.81447 1.2345,-20.63915 -1.36373,-5.65379 -4.5924,-10.81449 -9.01847,-14.58121 -4.14901,-3.68565 -8.82879,-6.80289 -13.88601,-9.09621 -5.60845,-2.48081 -11.74733,-3.81023 -17.90408,-3.58915 z m 955.79101,6.90625 c -12.1777,0.29547 -24.1807,4.90383 -33.4564,12.81033 -9.3471,7.75597 -16.3036,18.00852 -21.7273,28.79709 -7.2775,14.58284 -11.9101,30.34705 -14.9731,46.31492 -0.6368,3.40084 -1.1369,6.83706 -1.5971,10.27297 -13.4352,-9.66739 -28.1929,-17.57773 -43.8752,-22.92217 -11.0511,-3.69207 -22.746,-5.9467 -34.4372,-5.0428 -9.6051,0.7809 -19.1409,3.94044 -26.8889,9.77132 -8.815,6.51417 -15.3258,15.73642 -19.9268,25.60799 -2.3508,5.08178 -3.7494,10.61693 -3.6171,16.23718 0.1,7.95896 3.0462,15.60511 7.2839,22.25551 4.9647,7.84672 11.5366,14.52764 18.5295,20.58067 11.3264,9.72084 24.0181,17.68767 36.9936,24.99562 18.8009,10.46809 38.5024,19.24049 58.459,27.23846 23.2217,9.25493 46.9019,17.32681 70.8847,24.36889 1.3017,0.37408 2.6034,0.74815 3.905,1.12222 13.2391,-27.22523 24.9671,-55.18108 35.0661,-83.7189 7.5601,-21.56102 14.0945,-43.53266 18.3333,-66.00283 2.5451,-13.94509 4.1836,-28.16476 3.4752,-42.3644 -0.5128,-8.84083 -2.0227,-17.73176 -5.6515,-25.86013 -3.3082,-7.27482 -8.6217,-13.81335 -15.6876,-17.69605 -6.3686,-3.588 -13.641,-5.16033 -20.8023,-6.21004 -3.4098,-0.4455 -6.8518,-0.63139 -10.2898,-0.55585 z m 1854.0215,55.41602 c -10.0652,0.36241 -19.6389,4.46194 -27.9139,10.02537 -11.8029,7.9411 -21.5529,18.56569 -29.9793,29.95162 -1.9021,2.58501 -3.6748,5.26183 -5.4076,7.96246 -6.9796,-12.41932 -15.764,-23.93708 -26.5697,-33.26232 -7.0142,-5.93443 -15.1465,-10.89628 -24.1963,-12.88252 -7.3235,-1.61145 -15.1253,-1.05019 -22.0868,1.71742 -6.5602,2.52352 -12.5527,6.50539 -17.6423,11.35114 -4.7029,4.74977 -7.5247,11.25645 -7.8063,17.93041 -0.5334,8.7413 2.0632,17.30817 5.4025,25.28834 4.9896,11.75275 12.015,22.48919 19.5005,32.78619 12.3589,16.81594 26.4672,32.24895 41.112,47.07331 10.4014,10.46555 21.1917,20.54893 32.3274,30.2285 19.8993,-16.18429 38.861,-33.52767 56.5278,-52.11896 11.9658,-12.69404 23.3275,-26.06194 32.9019,-40.66815 5.5659,-8.61997 10.4921,-17.77312 13.4512,-27.63672 1.8458,-6.41255 2.7249,-13.30686 1.3208,-19.89815 -1.2753,-5.88037 -4.5773,-11.26503 -9.1518,-15.16259 -4.149,-3.68564 -8.8288,-6.80289 -13.886,-9.0962 -5.6081,-2.48183 -11.7476,-3.80973 -17.9041,-3.58915 z m -956.7383,8.73046 c -7.04,0.2983 -13.4943,3.86278 -18.8185,8.29768 -5.8781,4.86054 -10.7886,10.80184 -14.9491,17.17498 -0.7556,0.24739 -1.0004,-0.67637 -1.2811,-1.16254 -4.7594,-7.85605 -10.7139,-15.25999 -18.5919,-20.15973 -4.7896,-2.87213 -10.599,-4.47802 -16.1625,-3.27041 -5.3753,1.12873 -10.2941,4.16886 -13.9397,8.25757 -2.9821,3.72222 -3.6788,8.84934 -2.7318,13.44302 1.2267,7.10806 4.8303,13.49961 8.6238,19.53867 7.1855,11.18559 16.163,21.07554 25.3999,30.58073 5.9063,6.0008 12.053,11.74815 18.3923,17.28636 14.3009,-11.69884 27.8834,-24.36573 39.7266,-38.58419 5.5708,-6.81903 10.7415,-14.10682 14.1801,-22.26365 1.8256,-4.5381 3.0115,-9.55149 1.9845,-14.43267 -0.7919,-3.56578 -3.0278,-6.71021 -5.9617,-8.88456 -4.4379,-3.64427 -10.072,-6.05486 -15.8709,-5.82126 z M 838.82422,839.19141 c -10.09056,0.35677 -19.68712,4.45949 -27.97545,10.04781 -11.86709,7.97964 -21.6394,18.67221 -30.09537,30.1196 -1.84817,2.52593 -3.58589,5.13068 -5.26121,7.77399 -7.02441,-12.481 -15.86333,-24.0696 -26.75,-33.41211 -6.99813,-5.88608 -15.10631,-10.80399 -24.11986,-12.75451 -7.29443,-1.58886 -15.05843,-1.01686 -21.98879,1.73726 -6.56002,2.52395 -12.55282,6.50518 -17.6423,11.35113 -4.70288,4.74977 -7.52471,11.25645 -7.80636,17.93041 -0.53517,8.73656 2.06412,17.29727 5.3965,25.27473 4.96829,11.70712 11.95852,22.40603 19.40888,32.66701 12.58361,17.1416 26.98245,32.84584 41.92853,47.92669 10.17561,10.21279 20.7282,20.04274 31.60855,29.50788 19.89929,-16.18426 38.86093,-33.52764 56.52779,-52.11893 11.9658,-12.69404 23.32749,-26.06193 32.9019,-40.66815 5.56587,-8.61997 10.49204,-17.77312 13.45117,-27.63672 1.84459,-6.4122 2.72585,-13.30546 1.3206,-19.89616 -1.27492,-5.88004 -4.57307,-11.26695 -9.14979,-15.16247 -4.20546,-3.7293 -8.92164,-6.87188 -14.05611,-9.1724 -5.54943,-2.43014 -11.61685,-3.72932 -17.69868,-3.51506 z m 1868.54488,58.7207 c -6.9019,0.20789 -13.2987,3.58977 -18.5694,7.86953 -6.1177,4.94436 -11.2063,11.0503 -15.4911,17.61875 -0.7559,0.24869 -0.9984,-0.67783 -1.2799,-1.16209 -4.7516,-7.83602 -10.6849,-15.22754 -18.5393,-20.12518 -4.7985,-2.89778 -10.632,-4.51614 -16.2163,-3.30541 -5.3744,1.13064 -10.2974,4.16662 -13.9397,8.25952 -2.9891,3.72718 -3.6779,8.85424 -2.7314,13.441 1.2412,7.18523 4.9064,13.63457 8.7456,19.73433 7.2542,11.23376 16.3026,21.16761 25.6039,30.7169 5.8067,5.88064 11.8448,11.51483 18.0641,16.9546 14.364,-11.75115 28.0104,-24.47332 39.8839,-38.77463 5.5521,-6.80635 10.6956,-14.10294 14.0932,-22.24084 1.7917,-4.49898 2.9402,-9.4662 1.9131,-14.29411 -0.7962,-3.54241 -3.0243,-6.67612 -5.9269,-8.83276 -4.3572,-3.59132 -9.8958,-5.99108 -15.6098,-5.85961 z m -1014.0449,6.07227 c -6.9011,0.20877 -13.297,3.59086 -18.5669,7.87018 -6.1184,4.94338 -11.2013,11.05286 -15.4897,17.6181 -0.7559,0.24869 -0.9984,-0.67784 -1.2799,-1.16209 -4.7509,-7.8365 -10.6852,-15.22727 -18.5394,-20.12519 -4.7987,-2.89719 -10.6318,-4.51644 -16.2163,-3.3054 -5.3752,1.12872 -10.294,4.16885 -13.9396,8.25756 -2.9819,3.72223 -3.6788,8.84908 -2.733,13.44289 1.2389,7.15828 4.8866,13.58649 8.7023,19.66957 7.2216,11.18018 16.2067,21.08453 25.4629,30.59085 5.8642,5.94788 11.9622,11.64828 18.25,17.14353 14.3325,-11.72555 27.949,-24.41879 39.8065,-38.67997 5.5541,-6.80588 10.7087,-14.08079 14.1253,-22.22463 1.8264,-4.55927 3.0083,-9.60349 1.9356,-14.49838 -0.8258,-3.52663 -3.0326,-6.60566 -5.9218,-8.74901 -4.358,-3.58567 -9.8952,-5.98589 -15.596,-5.84801 z m 1233.9942,7.83203 c -5.0093,0.26917 -10.0321,1.81368 -14.1009,4.80963 -3.7212,3.01319 -5.4847,7.83966 -5.6729,12.51539 -0.4905,7.1329 1.3501,14.14547 3.458,20.88884 4.1902,12.91004 10.4772,25.01087 17.1204,36.80371 3.9769,6.93671 8.2142,13.71202 12.668,20.35352 16.9606,-7.65297 33.4772,-16.44586 48.6697,-27.21889 6.9728,-5.04182 13.6716,-10.62782 19.0067,-17.433 3.0623,-4.03779 5.6469,-8.78063 5.7989,-13.95669 0.067,-3.58734 -1.3206,-7.09728 -3.5478,-9.88744 -3.4975,-4.86934 -8.6755,-8.7557 -14.6693,-9.79606 -6.346,-1.16901 -12.8455,0.44157 -18.6478,2.99002 -7.4366,3.26475 -14.1052,8.04802 -20.0928,13.49347 -2.2888,-8.89722 -5.9693,-17.62105 -11.9004,-24.71289 -3.654,-4.26614 -8.5947,-7.73305 -14.209,-8.60352 -1.2845,-0.19168 -2.5821,-0.27875 -3.8808,-0.24609 z" />
  </g>
</svg>
