<?xml version="1.0"?>
<svg xmlns:rdf="http://www.w3.org/1999/02/22-rdf-syntax-ns#" xmlns="http://www.w3.org/2000/svg" xmlns:cc="http://web.resource.org/cc/" xmlns:dc="http://purl.org/dc/elements/1.1/" id="svg2541" viewBox="0 0 709.55 501.58" version="1.0">
  <g id="layer1" transform="translate(-88.439 -281.61)">
    <g id="g3451" transform="matrix(1.9831 0 0 1.8883 323.71 270.91)">
      <path id="path3270" fill="#d40000" d="m-78.99 72.606c-1.329 0.037-2.704 0.208-3.949 0.368-3.058 0.788-5.805 0.232-9.237-0.201-4.557 0.353-9.234 1.79-11.074 6.359-3.41 6.466 5.278 12.082 2.47 18.808 0.16 6.1-8.65 13.39-1.5 17.94 5.657 2.78 2.929 9.29 4.415 14.22 0.517 5.65 0.503 11.34 0.201 17h-0.101l-0.769 2.41c0.231 3.75 0.181 6.96 0.2 9.91-0.404 0.49-0.6 0.89-0.903 1.34 0.486-0.02 0.552-0.02 1.037-0.04l0.168 0.57 0.2 3.05c0.226 1.22 0.36 3.44 1.239 5.02h-0.302l1.272 1.61h23.929l0.469-1.95c-0.155 0.01-0.178 0.03-0.335 0.04 1.032-1.72 1.004-5.72 1.004-5.72h0.669l0.134-0.61-0.736-2.34-1.071-0.03-0.97-2.01v-10.31c0.838-3.83-1.943-9.22 0.602-12.88 0.592-5.19-1.551-13.42 5.555-14.16 4.548-5.81-3.409-11.44-3.246-17.57-0.345-5.391-3.845-10.266-2.945-15.731 0.793-4.425 2.646-10.109-1.037-13.621-1.083-1.233-3.173-1.536-5.389-1.472z"/>
      <g id="g2243" transform="matrix(.97373 -.22769 .22769 .97373 -145.96 32.272)">
        <path id="path13120" d="m76.178-4.509c-0.407 0.0295-0.007 3.2545-2.55 2.0835-0.184 0.2348 2.147 0.8919-2.728 3.8178-3.362 4.7722-5.174 11.473-11.504 13.56-5.856 0.702-11.287 2.964-15.021 7.986-3.35 3.849-8.885 9.082-5.969 14.562 2.993 3.217 8.128 10.437 2.094 12.719l1.826 0.634s-0.259 5.091 1.049 5.209c0.972 0.089 2.436-4.787 2.436-4.787l1.72-0.4s0.585-0.084 0.657-0.094c-1.158-0.288-1.972-0.872-1.5-2.656 4.486-2.72 10.789 1.371 14.75-2.875 3.683-4.411 9.743-7.552 10.312-13.844 3.171-5.533 10.18-10.49 10.981-17.53 0.495-5.2892-3.291-6.906-0.543-12.095 1.027-4.0804-0.891 0.9233-0.555-2.2026-0.937-0.7581-4.233-4.176-5.455-4.0874z" transform="matrix(1.071 0 0 1.071 0 -.0024023)"/>
        <path id="path12073" fill="#ffba00" d="m61 49.04c1.577-1.53 3.58-2.605 4.978-4.314-1.166-0.756 0.319-0.36-1.327-0.205-1.145 0.456-0.735-0.679 0.605-1.163 4.717-2.188 5.259-2.312 8.006-7.049 1.168-2.117 1.357-4.684 2.996-6.565 1.572-2.102-0.224-5.922 2.288-6.699 3.275-2.568 9.293-4.906 8.231-9.02-0.955-2.858-3.7-5.5586-2.503-8.778 1.825-2.491-1.332-6.379-3.156-5.1162-1.982 0.85352-4.711 3.8702-5.333 6.3364-1.188 2.7901-3.293 5.2088-5.925 7.1668-3.477 3.525-6.165 7.116-11.121 7.567-0.775 0.188-2.593-0.465-1.145-1.177-3.859 1.031-5.67 4.992-8.763 7.174-2.287 1.984-4.216 4.455-5.249 7.323-1.27 1.595-0.629 3.929 0.256 5.565 1.741 2.343 1.764-1.882 2.448-2.96 1.112-3.185 3.097-6.141 6-7.933 1.727-1.751 4.364-3.37 6.842-2.144 2.182 1.283 4.52-0.88 5.971-2.404 1.584-1.796 1.44-0.967 3.726-1.832 1.995-0.619 2.295 0.145 3.38-1.343 2.688-0.222 2.222 0.953 1.503 2.51-0.736 1.937 0.758 0.823-0.396 2.509-1.366 1.729-2.835 3.392-3.952 5.301 0.294 2.638 0.642 6.013-1.785 7.801-2.271 0.994-4.431 2.224-6.332 3.865-1.966 1.52-4.079 3.028-6.572 3.494 1.859 1.24 4.137 1.799 6.329 2.09z"/>
        <path id="path12075" fill="#ff0017" d="m51 44.04c2.275-2.058 5.462-2.308 8.247-3.269 2.05-0.334 3.954-1.399 5.329-2.957 0.634-0.711 1.197-1.49 1.694-2.297 0.628-1.457-0.63-3.101 0.283-4.506 0.44-0.584 0.287-1.434 0.791-2.025 0.899-1.482-1.408 1.717-1.016-0.066 0.138-0.715-2.127-0.024-2.47 0.089-2.455 1.756 0.629 0.043-1.835 1.787-2.122 0.625-4.099-1.334-6.219-0.626-0.826 0.323-1.474 0.963-2.188 1.474-2.536 2.133-4.06 5.428-4.024 8.742 0.043 1.277 0.355 2.545 0.915 3.693 0.165-0.013 0.329-0.026 0.493-0.039z"/>
      </g>
      <path id="path2234" d="m-78.99 72.606c-1.329 0.037-2.704 0.208-3.949 0.368-3.058 0.788-5.805 0.232-9.237-0.201-4.557 0.353-9.234 1.79-11.074 6.359-3.41 6.466 5.278 12.082 2.47 18.808 0.16 6.1-8.65 13.39-1.5 17.94 5.657 2.78 2.929 9.29 4.415 14.22 0.517 5.65 0.503 11.34 0.201 17h-0.101l-0.769 2.41c0.231 3.75 0.181 6.96 0.2 9.91-0.404 0.49-0.6 0.89-0.903 1.34 0.486-0.02 0.552-0.02 1.037-0.04l0.168 0.57 0.2 3.05c0.226 1.22 0.36 3.44 1.239 5.02h-0.302l1.272 1.61h23.929l0.469-1.95c-0.155 0.01-0.178 0.03-0.335 0.04 1.032-1.72 1.004-5.72 1.004-5.72h0.669l0.134-0.61-0.736-2.34-1.071-0.03-0.97-2.01v-10.31c0.838-3.83-1.943-9.22 0.602-12.88 0.592-5.19-1.551-13.42 5.555-14.16 4.548-5.81-3.409-11.44-3.246-17.57-0.345-5.391-3.845-10.266-2.945-15.731 0.793-4.425 2.646-10.109-1.037-13.621-1.083-1.233-3.173-1.536-5.389-1.472zm0.168 2.476c3.2-0.155 6.621 1.116 3.48 9.973-2.369 6.894 2.775 13.097 3.581 19.745-2.489 5.05 7.886 11.19 1.807 14.06-4.937-2.18-1.687-9.43-3.815-13.56-1.222-4.71-2.345-10.893-7.296-12.949-5.994 0.299-4.606 8.669-5.421 12.989-0.598 6.33-0.182 12.9 2.342 18.81 2.406 5.71-1.48 11.12-1.104 16.63 0.942 2.65-0.984 9.8-3.815 6.86 1.28-6.78 4.302-13.3 4.317-20.25-1.024-6.13-5.459-11.72-3.949-18.2 0.115-5.08 1.443-14.095-3.548-16.337-5.827 2.666-2.379 10.147-3.447 14.957 0.202 3.92-7.67 7.34-6.02 1.58 2.624-6.72 6.165-14.259 3.075-21.456-4.455-4.822-1.016-12.526 5.556-12.584 0.244-0.036 6.933 0.512 10.676 0.234 0.735-0.074 2.126-0.431 3.581-0.502zm-9.036 2.544c-4.804 0-8.702 1.356-8.702 3.012s3.898 3.012 8.702 3.012 8.734-1.356 8.734-3.012-3.93-3.012-8.734-3.012zm5.957 19.143c4.256 1.769 4.739 7.831 5.79 11.811 0.686 8.48 2.022 16.94 1.271 25.47-0.113 4.35-0.182 8.7-0.267 13.05h-0.101c-0.15 7.47-0.288 14.95-0.435 22.33-5.971 0.12-11.934-0.19-17.905-0.07-0.069-0.95 0.248-1.95-0.368-2.78-0.62-0.85-0.714-1.82-0.636-2.84 0.248-1.27-0.46-2.31-1.004-3.38v-11.98c0.344-2.27-0.141-6.65 0.067-8 0.185-7.34-0.582-14.65-1.372-21.92 1.065-5.64 5.941-10.43 3.614-16.5 2.432-5.895 1.06 3.3 0.971 5.22-0.389 6.21 0.793 12.43 3.112 18.17 1.196 6.94 0.131 14.31-3.514 20.38-2.297 7.09 11.077 8.69 10.743 1.21 0.042-5.41 0.232-10.75 1.339-16.07 0.621-5.24 0.424-10.98-2.644-15.49 1.703-6.11-2.117-12.85 1.339-18.611z"/>
      <path id="path3221" fill="#d40000" d="m-34.496 73.571c-1.329 0.038-2.704 0.208-3.949 0.368-3.058 0.789-5.805 0.233-9.237-0.201-4.557 0.354-9.235 1.79-11.078 6.359-3.404 6.466 5.282 12.083 2.477 18.809 0.157 6.094-8.655 13.384-1.506 17.934 5.66 2.78 2.932 9.3 4.418 14.23 0.517 5.64 0.503 11.34 0.2 17h-0.1l-0.77 2.41c0.232 3.74 0.182 6.95 0.201 9.9-0.404 0.49-0.6 0.9-0.903 1.34 0.486-0.01 0.552-0.01 1.037-0.03l0.167 0.57 0.201 3.04c0.226 1.23 0.36 3.45 1.238 5.02h-0.301l1.272 1.61h23.929l0.469-1.94c-0.156 0.01-0.178 0.02-0.335 0.03 1.032-1.72 1.004-5.72 1.004-5.72h0.669l0.134-0.6-0.736-2.34-1.071-0.04-0.971-2.01v-10.3c0.839-3.83-1.942-9.22 0.603-12.89 0.592-5.19-1.551-13.42 5.555-14.16 4.548-5.81-3.409-11.44-3.246-17.57-0.346-5.385-3.845-10.26-2.945-15.725 0.793-4.426 2.646-10.109-1.038-13.621-1.083-1.233-3.172-1.536-5.388-1.473z"/>
      <g id="g3223" transform="matrix(.97373 -.22769 .22769 .97373 -101.47 33.238)">
        <path id="path3225" d="m87.094-5.8438c-0.407 0.0296-0.807 0.1219-1.188 0.2813-3.203 5.5893-10.625 4.1991-15.5 7.125-3.362 4.7722-3.857 12.32-10.187 14.406-5.857 0.703-12.11 1.948-15.844 6.97-3.35 3.849-8.885 9.082-5.969 14.562 2.993 3.217 8.128 10.437 2.094 12.719l1.826 0.634s-0.259 5.091 1.049 5.209c0.972 0.089 2.436-4.787 2.436-4.787l1.72-0.4s0.585-0.084 0.657-0.094c-1.158-0.288-1.972-0.872-1.5-2.656 4.486-2.72 10.789 1.371 14.75-2.875 3.683-4.411 9.743-7.552 10.312-13.844 3.171-5.533 11.512-7.115 12.312-14.156 0.495-5.289-4.622-10.28-1.874-15.469 1.027-4.0804 8.007-3.3739 8.343-6.4998-0.936-0.7581-2.216-1.2135-3.437-1.125z" transform="matrix(1.071 0 0 1.071 0 -.0024023)"/>
        <path id="path3227" fill="#ffba00" d="m61 49.04c1.577-1.53 3.58-2.605 4.978-4.314-1.166-0.756 0.89-0.101-0.757 0.055-1.144 0.455 2.182-2.9 3.521-3.384 4.718-2.188 1.773-0.351 4.52-5.088 1.168-2.117 1.357-4.684 2.996-6.565 1.572-2.102 3.802-3.719 6.315-4.495 3.274-2.569 5.266-7.11 4.204-11.224-0.955-2.858-3.7-5.5586-2.503-8.778 1.825-2.491-1.451-3.5594-3.275-2.2966-1.982 0.8536-4.592 1.0506-5.214 3.5168-1.188 2.7901-1.279 6.3108-3.911 8.2688-3.478 3.525-8.179 6.014-13.135 6.465-0.775 0.188-2.593-0.465-1.145-1.177-3.859 1.031-5.67 4.992-8.763 7.174-2.287 1.984-4.216 4.455-5.249 7.323-1.27 1.595-0.629 3.929 0.256 5.565 1.741 2.343 1.764-1.882 2.448-2.96 1.112-3.185 3.097-6.141 6-7.933 1.727-1.751 4.364-3.37 6.842-2.144 2.182 1.283 4.52-0.88 5.971-2.404 1.584-1.796 3.307-3.558 5.594-4.423 1.995-0.619 3.6-2.2 4.685-3.687 2.688-0.223 2.049 3.309 1.33 4.866-0.736 1.937-2.242 3.402-3.396 5.088-1.366 1.729-2.835 3.392-3.952 5.301 0.294 2.638 0.642 6.013-1.785 7.801-2.271 0.994-4.431 2.224-6.332 3.865-1.966 1.52-4.079 3.028-6.572 3.494 1.859 1.24 4.137 1.799 6.329 2.09z"/>
        <path id="path3229" fill="#ff0017" d="m51.914 43.37c2.274-2.058 4.548-1.638 7.333-2.599 2.05-0.334 3.954-1.399 5.329-2.957 0.634-0.711 1.197-1.49 1.694-2.297 0.628-1.457-0.63-3.101 0.283-4.506 0.44-0.584 0.287-1.434 0.791-2.025 0.899-1.482 2.702-2.368 3.094-4.152 0.138-0.715-0.839 0.403-1.182 0.517-2.456 1.755-4.769 3.701-7.233 5.445-2.122 0.625-4.099-1.334-6.219-0.626-0.826 0.323-1.474 0.963-2.188 1.474-2.536 2.133-4.06 5.428-4.024 8.742 0.043 1.277 0.451 1.053 1.012 2.202 0.164-0.013 1.166 0.169 1.31 0.782z"/>
      </g>
      <path id="path3231" d="m-34.496 73.571c-1.329 0.038-2.704 0.208-3.949 0.368-3.058 0.789-5.805 0.233-9.237-0.201-4.557 0.354-9.235 1.79-11.078 6.359-3.404 6.466 5.282 12.083 2.477 18.809 0.157 6.094-8.655 13.384-1.506 17.934 5.66 2.78 2.932 9.3 4.418 14.23 0.517 5.64 0.503 11.34 0.2 17h-0.1l-0.77 2.41c0.232 3.74 0.182 6.95 0.201 9.9-0.404 0.49-0.6 0.9-0.903 1.34 0.486-0.01 0.552-0.01 1.037-0.03l0.167 0.57 0.201 3.04c0.226 1.23 0.36 3.45 1.238 5.02h-0.301l1.272 1.61h23.929l0.469-1.94c-0.156 0.01-0.178 0.02-0.335 0.03 1.032-1.72 1.004-5.72 1.004-5.72h0.669l0.134-0.6-0.736-2.34-1.071-0.04-0.971-2.01v-10.3c0.839-3.83-1.942-9.22 0.603-12.89 0.592-5.19-1.551-13.42 5.555-14.16 4.548-5.81-3.409-11.44-3.246-17.57-0.346-5.385-3.845-10.26-2.945-15.725 0.793-4.426 2.646-10.109-1.038-13.621-1.083-1.233-3.172-1.536-5.388-1.473zm0.167 2.477c3.201-0.155 6.622 1.115 3.481 9.973-2.369 6.894 2.775 13.096 3.581 19.749-2.489 5.05 7.886 11.19 1.807 14.05-4.938-2.17-1.687-9.43-3.815-13.55-1.222-4.72-2.345-10.898-7.296-12.953-5.994 0.298-4.607 8.673-5.421 12.983-0.598 6.34-0.183 12.9 2.342 18.81 2.405 5.72-1.48 11.12-1.104 16.63 0.942 2.66-0.984 9.8-3.815 6.86 1.28-6.77 4.301-13.3 4.317-20.24-1.024-6.14-5.46-11.73-3.949-18.21 0.115-5.07 1.443-14.089-3.548-16.331-5.827 2.666-2.38 10.141-3.447 14.961 0.202 3.91-7.675 7.34-6.024 1.57 2.628-6.71 6.169-14.253 3.079-21.451-4.46-4.821-1.016-12.526 5.555-12.584 0.244-0.035 6.933 0.512 10.677 0.235 0.735-0.074 2.126-0.432 3.58-0.502zm-9.036 2.543c-4.804 0-8.701 1.356-8.701 3.012s3.897 3.012 8.701 3.012 8.735-1.356 8.735-3.012-3.931-3.012-8.735-3.012zm5.958 19.143c4.256 1.77 4.739 7.836 5.789 11.816 0.686 8.48 2.023 16.94 1.272 25.47-0.113 4.35-0.182 8.7-0.268 13.05h-0.1c-0.15 7.47-0.288 14.94-0.435 22.32-5.971 0.12-11.934-0.19-17.905-0.07-0.069-0.95 0.248-1.95-0.368-2.77-0.62-0.86-0.715-1.83-0.636-2.85 0.247-1.26-0.46-2.3-1.004-3.38v-11.98c0.344-2.26-0.141-6.64 0.067-8 0.184-7.33-0.582-14.64-1.372-21.92 1.065-5.63 5.941-10.43 3.614-16.5 2.432-5.89 1.06 3.31 0.971 5.22-0.39 6.22 0.793 12.44 3.112 18.18 1.196 6.94 0.13 14.3-3.514 20.38-2.297 7.09 11.077 8.68 10.743 1.2 0.041-5.41 0.232-10.75 1.339-16.06 0.621-5.24 0.423-10.99-2.644-15.5 1.703-6.11-2.118-12.84 1.339-18.606z"/>
      <path id="path3233" fill="#d40000" d="m8.6125 73.144c-1.3296 0.038-2.7042 0.209-3.9492 0.368-3.0584 0.789-5.8049 0.233-9.2369-0.2-4.5575 0.353-9.2354 1.79-11.077 6.358-3.405 6.466 5.281 12.083 2.476 18.809 0.157 6.101-8.654 13.391-1.506 17.941 5.6604 2.78 2.933 9.29 4.418 14.22 0.5175 5.65 0.5029 11.34 0.201 17h-0.101l-0.769 2.41c0.232 3.75 0.182 6.96 0.2 9.91-0.404 0.49-0.6 0.89-0.903 1.34 0.486-0.02 0.553-0.02 1.037-0.04l0.168 0.57 0.2 3.05c0.226 1.22 0.3605 3.44 1.2387 5.02h-0.3012l1.2718 1.6h23.929l0.469-1.94c-0.155 0.01-0.178 0.03-0.335 0.04 1.033-1.72 1.004-5.73 1.004-5.73h0.67l0.133-0.6-0.736-2.34-1.071-0.03-0.97-2.01v-10.31c0.838-3.83-1.943-9.22 0.602-12.89 0.592-5.18-1.551-13.41 5.556-14.15 4.547-5.81-3.41-11.44-3.247-17.57-0.345-5.392-3.845-10.267-2.945-15.732 0.793-4.426 2.646-10.109-1.037-13.621-1.083-1.233-3.173-1.536-5.3885-1.473z"/>
      <g id="g3235" transform="matrix(.97373 -.22769 .22769 .97373 -58.358 32.811)">
        <path id="path3237" d="m80.335-5.657c-0.407 0.0295-3.017-2.5156-3.398-2.3562-3.204 5.5893-1.656 6.6498-6.531 9.5757-3.362 4.7722-5.39 10.312-11.72 12.398-5.857 0.703-10.577 3.956-14.311 8.978-3.35 3.849-8.885 9.082-5.969 14.562 2.993 3.217 8.128 10.437 2.094 12.719l1.826 0.634s-0.259 5.091 1.049 5.209c0.972 0.089 2.436-4.787 2.436-4.787l1.72-0.4s0.585-0.084 0.657-0.094c-1.158-0.288-1.972-0.872-1.5-2.656 4.486-2.72 10.789 1.371 14.75-2.875 3.683-4.411 9.743-7.552 10.312-13.844 3.171-5.533 10.787-9.052 11.587-16.093 0.495-5.289-3.897-8.343-1.149-13.532 1.027-4.0804-1.038-3.4862-0.702-6.612-0.936-0.7582 0.07-0.9146-1.151-0.826z" transform="matrix(1.071 0 0 1.071 0 -.0024023)"/>
        <path id="path3239" fill="#ffba00" d="m61 49.04c1.577-1.53 3.58-2.605 4.978-4.314-1.166-0.756-3.597 0.743-5.244 0.898-1.144 0.455 1.668-2.624 3.007-3.108 4.718-2.188 6.774-1.47 9.521-6.207 1.168-2.117 1.357-4.684 2.996-6.565 1.572-2.102 2.623-6.77 5.136-7.547 3.274-2.569 4.34-5.307 3.278-9.421-0.955-2.8581-1.595-4.3096-0.398-7.529 1.825-2.491 0.342-9.0698-1.482-7.807-1.982 0.8535-6.385 6.561-7.007 9.0272-1.188 2.7901-1.279 6.3108-3.911 8.2688-3.478 3.525-4.876 3.758-9.832 4.209-0.775 0.188-5.896 1.791-4.448 1.079-3.859 1.031-5.67 4.992-8.763 7.174-2.287 1.984-4.216 4.455-5.249 7.323-1.27 1.595-0.629 3.929 0.256 5.565 1.741 2.343 1.764-1.882 2.448-2.96 1.112-3.185 3.097-6.141 6-7.933 1.727-1.751 4.364-3.37 6.842-2.144 2.182 1.283 4.52-0.88 5.971-2.404 1.584-1.796 3.307-3.558 5.594-4.423 1.995-0.619 4.776-1.294 5.861-2.782 2.688-0.222 0.873 2.404 0.154 3.961-0.736 1.937-2.242 3.402-3.396 5.088-1.366 1.729-2.835 3.392-3.952 5.301 0.294 2.638 0.642 6.013-1.785 7.801-2.271 0.994-4.431 2.224-6.332 3.865-1.966 1.52-4.079 3.028-6.572 3.494 1.859 1.24 4.137 1.799 6.329 2.09z"/>
        <path id="path3241" fill="#ff0017" d="m51 44.04c2.275-2.058 5.462-2.308 8.247-3.269 2.05-0.334 3.954-1.399 5.329-2.957 0.634-0.711 1.197-1.49 1.694-2.297 0.628-1.457-0.63-3.101 0.283-4.506 0.44-0.584 0.287-1.434 0.791-2.025 0.899-1.482 1.58 0.271 1.972-1.512 0.138-0.716-0.18-1.336-0.524-1.222-2.455 1.755-4.305 2.8-6.769 4.544-2.122 0.625-4.099-1.334-6.219-0.626-0.826 0.323-1.474 0.963-2.188 1.474-2.536 2.133-4.06 5.428-4.024 8.742 0.043 1.277 0.355 2.545 0.915 3.693 0.165-0.013 0.329-0.026 0.493-0.039z"/>
      </g>
      <path id="path3243" d="m8.6125 73.144c-1.3296 0.038-2.7042 0.209-3.9492 0.368-3.0584 0.789-5.8049 0.233-9.2369-0.2-4.5575 0.353-9.2354 1.79-11.077 6.358-3.405 6.466 5.281 12.083 2.476 18.809 0.157 6.101-8.654 13.391-1.506 17.941 5.6604 2.78 2.933 9.29 4.418 14.22 0.5175 5.65 0.5029 11.34 0.201 17h-0.101l-0.769 2.41c0.232 3.75 0.182 6.96 0.2 9.91-0.404 0.49-0.6 0.89-0.903 1.34 0.486-0.02 0.553-0.02 1.037-0.04l0.168 0.57 0.2 3.05c0.226 1.22 0.3605 3.44 1.2387 5.02h-0.3012l1.2718 1.6h23.929l0.469-1.94c-0.155 0.01-0.178 0.03-0.335 0.04 1.033-1.72 1.004-5.73 1.004-5.73h0.67l0.133-0.6-0.736-2.34-1.071-0.03-0.97-2.01v-10.31c0.838-3.83-1.943-9.22 0.602-12.89 0.592-5.18-1.551-13.41 5.556-14.15 4.547-5.81-3.41-11.44-3.247-17.57-0.345-5.392-3.845-10.267-2.945-15.732 0.793-4.426 2.646-10.109-1.037-13.621-1.083-1.233-3.173-1.536-5.3885-1.473zm0.1673 2.477c3.2002-0.155 6.6212 1.115 3.4802 9.973-2.3686 6.894 2.775 13.096 3.581 19.746-2.488 5.05 7.886 11.19 1.808 14.06-4.938-2.18-1.687-9.43-3.816-13.56-1.222-4.71-2.344-10.894-7.2955-12.95-5.994 0.299-4.6068 8.67-5.4217 12.99-0.59779 6.33-0.18207 12.9 2.3427 18.8 2.4053 5.72-1.4804 11.12-1.1044 16.64 0.9419 2.65-0.984 9.8-3.8153 6.86 1.2803-6.78 4.3018-13.3 4.3173-20.25-1.0241-6.13-5.4594-11.72-3.9491-18.21 0.11487-5.07 1.4436-14.086-3.5476-16.328-5.8264 2.666-2.3798 10.148-3.4471 14.958 0.2019 3.91-7.6753 7.34-6.0243 1.57 2.628-6.71 6.1696-14.25 3.079-21.448-4.46-4.821-1.016-12.526 5.5558-12.583 0.2439-0.036 6.9329 0.511 10.676 0.234 0.7355-0.074 2.1264-0.432 3.581-0.502zm-9.0362 2.543c-4.804 0-8.7014 1.356-8.7014 3.012s3.8974 3.012 8.7014 3.012c4.8041 0 8.735-1.356 8.735-3.012s-3.9309-3.012-8.735-3.012zm5.9572 19.144c4.2563 1.769 4.7392 7.832 5.7902 11.812 0.686 8.48 2.022 16.94 1.271 25.47-0.113 4.35-0.182 8.7-0.267 13.05h-0.101c-0.15 7.47-0.288 14.95-0.435 22.32-5.9711 0.13-11.933-0.18-17.905-0.06-0.0685-0.95 0.2482-1.96-0.3679-2.78-0.6195-0.85-0.7144-1.83-0.6359-2.84 0.2474-1.27-0.4598-2.31-1.004-3.38v-11.99c0.3438-2.26-0.1407-6.64 0.0669-7.99 0.1846-7.34-0.5822-14.65-1.3721-21.93 1.0654-5.63 5.9414-10.43 3.6144-16.5 2.4318-5.887 1.0594 3.31 0.9706 5.23-0.3893 6.21 0.7936 12.43 3.1124 18.17 1.196 6.94 0.1302 14.3-3.514 20.38-2.2969 7.09 11.077 8.69 10.743 1.2 0.0414-5.4 0.2315-10.74 1.3386-16.06 0.621-5.24 0.4237-10.98-2.6439-15.49 1.7033-6.11-2.1174-12.85 1.3387-18.612z"/>
      <path id="path3245" fill="#24221c" d="m55.135 72.717c-1.329 0.038-2.704 0.209-3.949 0.369-3.058 0.788-5.805 0.232-9.237-0.201-4.557 0.353-9.235 1.79-11.077 6.359-3.405 6.465 5.281 12.082 2.476 18.808 0.157 6.098-8.654 13.388-1.506 17.938 5.66 2.78 2.932 9.29 4.418 14.22 0.517 5.65 0.503 11.35 0.201 17.01h-0.101l-0.77 2.41c0.232 3.74 0.182 6.95 0.201 9.9-0.404 0.49-0.6 0.89-0.903 1.34 0.486-0.01 0.552-0.02 1.037-0.03l0.167 0.57 0.201 3.04c0.226 1.22 0.36 3.45 1.239 5.02h-0.302l1.272 1.61h23.929l0.469-1.94c-0.155 0.01-0.178 0.02-0.335 0.03 1.032-1.72 1.004-5.72 1.004-5.72h0.669l0.134-0.61-0.736-2.34-1.071-0.03-0.971-2.01v-10.31c0.839-3.82-1.942-9.22 0.603-12.88 0.592-5.19-1.551-13.42 5.555-14.16 4.548-5.81-3.409-11.44-3.246-17.57-0.345-5.389-3.845-10.264-2.945-15.729 0.793-4.426 2.646-10.109-1.037-13.621-1.084-1.233-3.173-1.536-5.389-1.473z"/>
      <g id="g3247" transform="matrix(.97373 -.22769 .22769 .97373 -11.835 32.384)">
        <path id="path3249" d="m76.192-0.028689c-0.407 0.029514-0.759 1.4289 0.794-1.1403-3.204 5.5893-1.705-0.1944-6.58 2.7315-3.362 4.7722-4.273 10.572-10.603 12.66-5.857 0.702-11.694 3.694-15.428 8.716-3.35 3.849-10.114 8.795-7.197 14.275 2.992 3.217 9.356 10.724 3.322 13.006l1.826 0.634s-0.259 5.091 1.049 5.209c0.972 0.089 2.436-4.787 2.436-4.787l1.72-0.4s0.585-0.084 0.657-0.094c-1.158-0.288-1.972-0.872-1.5-2.656 4.486-2.72 10.789 1.371 14.75-2.875 3.683-4.411 9.743-7.552 10.312-13.844 3.171-5.533 11.512-7.115 12.312-14.156 0.495-5.289-4.607-9.3342-1.86-14.523 1.028-4.0806 0.159-1.8443 0.495-4.9701-0.937-0.7582-5.153 1.5674-6.505 2.2144z" transform="matrix(1.071 0 0 1.071 0 -.0024023)"/>
        <path id="path3251" fill="#ffba00" d="m61 49.04c1.577-1.53 3.58-2.605 4.978-4.314-1.166-0.756-1.536 1.099-3.182 1.254-1.145 0.455-1.369-1.206-0.029-1.69 4.718-2.188 7.748-3.244 10.495-7.981 1.168-2.117 1.357-4.684 2.996-6.565 1.572-2.102 3.802-3.719 6.315-4.495 3.274-2.569 5.266-7.11 4.204-11.224-0.955-2.858-2.498-0.988-1.301-4.2072 1.826-2.4911 0.279-9.3371-1.545-8.0743-1.983 0.8535-7.524 2.2575-8.146 4.7237-1.188 2.7901-1.279 6.3108-3.911 8.2688-3.478 3.525-8.179 6.014-13.135 6.465-0.775 0.188-2.593-0.465-1.145-1.177-3.859 1.031-5.67 4.992-8.763 7.174-2.287 1.984-5.201 4.351-6.234 7.219-1.269 1.595 0.356 4.033 1.241 5.669 1.741 2.343 0.468-2.815 1.152-3.894 1.112-3.184 4.393-5.207 7.296-6.999 1.727-1.751 4.364-3.37 6.842-2.144 2.182 1.283 4.52-0.88 5.971-2.404 1.584-1.796 3.307-3.558 5.594-4.423 1.995-0.619 0.811 0.555 1.896-0.933 2.688-0.222 4.838 0.555 4.119 2.112-0.736 1.937-2.242 3.402-3.396 5.088-1.366 1.729-2.835 3.392-3.952 5.301 0.294 2.638 0.642 6.013-1.785 7.801-2.271 0.994-4.431 2.224-6.332 3.865-1.966 1.52-4.079 3.028-6.572 3.494 1.859 1.24 4.137 1.799 6.329 2.09z"/>
        <path id="path3253" fill="#ff0017" d="m51 44.04c2.275-2.058 5.462-2.308 8.247-3.269 2.05-0.334 3.954-1.399 5.329-2.957 0.634-0.711 1.197-1.49 1.694-2.297 0.628-1.457 0.686-2.793 1.599-4.198 0.44-0.585-1.029-1.742-0.525-2.333 0.899-1.482 4.623-1.414 5.016-3.198 0.137-0.715-2.761-0.551-3.104-0.437-2.456 1.755-4.769 3.701-7.233 5.445-2.122 0.625-4.099-1.334-6.219-0.626-0.826 0.323-1.474 0.963-2.188 1.474-2.536 2.133-4.06 5.428-4.024 8.742 0.043 1.277 0.355 2.545 0.915 3.693 0.165-0.013 0.329-0.026 0.493-0.039z"/>
      </g>
      <path id="path3255" d="m55.135 72.717c-1.329 0.038-2.704 0.209-3.949 0.369-3.058 0.788-5.805 0.232-9.237-0.201-4.557 0.353-9.235 1.79-11.077 6.359-3.405 6.465 5.281 12.082 2.476 18.808 0.157 6.098-8.654 13.388-1.506 17.938 5.66 2.78 2.932 9.29 4.418 14.22 0.517 5.65 0.503 11.35 0.201 17.01h-0.101l-0.77 2.41c0.232 3.74 0.182 6.95 0.201 9.9-0.404 0.49-0.6 0.89-0.903 1.34 0.486-0.01 0.552-0.02 1.037-0.03l0.167 0.57 0.201 3.04c0.226 1.22 0.36 3.45 1.239 5.02h-0.302l1.272 1.61h23.929l0.469-1.94c-0.155 0.01-0.178 0.02-0.335 0.03 1.032-1.72 1.004-5.72 1.004-5.72h0.669l0.134-0.61-0.736-2.34-1.071-0.03-0.971-2.01v-10.31c0.839-3.82-1.942-9.22 0.603-12.88 0.592-5.19-1.551-13.42 5.555-14.16 4.548-5.81-3.409-11.44-3.246-17.57-0.345-5.389-3.845-10.264-2.945-15.729 0.793-4.426 2.646-10.109-1.037-13.621-1.084-1.233-3.173-1.536-5.389-1.473zm0.168 2.477c3.2-0.155 6.621 1.115 3.48 9.973-2.369 6.894 2.775 13.097 3.581 19.743-2.489 5.05 7.886 11.2 1.807 14.06-4.938-2.18-1.687-9.43-3.815-13.56-1.222-4.71-2.345-10.891-7.296-12.947-5.994 0.299-4.606 8.667-5.421 12.987-0.598 6.34-0.182 12.9 2.342 18.81 2.406 5.72-1.48 11.12-1.104 16.63 0.942 2.65-0.984 9.8-3.815 6.86 1.28-6.77 4.301-13.3 4.317-20.25-1.024-6.13-5.459-11.72-3.949-18.2 0.115-5.08 1.443-14.093-3.548-16.335-5.827 2.666-2.38 10.145-3.447 14.955 0.202 3.92-7.675 7.34-6.024 1.58 2.628-6.71 6.169-14.257 3.079-21.455-4.46-4.821-1.016-12.526 5.556-12.583 0.244-0.036 6.932 0.512 10.676 0.234 0.735-0.074 2.126-0.432 3.581-0.502zm-9.037 2.543c-4.804 0-8.701 1.357-8.701 3.013s3.897 3.012 8.701 3.012 8.735-1.356 8.735-3.012-3.931-3.013-8.735-3.013zm5.958 19.144c4.256 1.769 4.739 7.829 5.789 11.809 0.687 8.49 2.023 16.95 1.272 25.47-0.113 4.35-0.182 8.7-0.268 13.06h-0.1c-0.15 7.46-0.288 14.94-0.435 22.32-5.971 0.12-11.934-0.19-17.905-0.07-0.069-0.95 0.248-1.95-0.368-2.78-0.62-0.85-0.714-1.82-0.636-2.84 0.247-1.26-0.46-2.31-1.004-3.38v-11.98c0.344-2.27-0.141-6.65 0.067-8 0.184-7.34-0.582-14.65-1.372-21.92 1.065-5.64 5.941-10.43 3.614-16.5 2.432-5.893 1.06 3.3 0.971 5.22-0.389 6.21 0.793 12.44 3.112 18.17 1.196 6.95 0.13 14.31-3.514 20.38-2.297 7.1 11.077 8.69 10.743 1.21 0.042-5.41 0.232-10.75 1.339-16.07 0.621-5.24 0.424-10.98-2.644-15.49 1.703-6.11-2.118-12.84 1.339-18.609z"/>
      <path id="path3257" fill="#0a0" d="m104.14 73.628c-1.33 0.038-2.71 0.208-3.95 0.368-3.062 0.788-5.808 0.232-9.24-0.201-4.558 0.353-9.235 1.79-11.078 6.359-3.404 6.466 5.281 12.082 2.476 18.808 0.157 6.098-8.654 13.388-1.506 17.938 5.661 2.78 2.933 9.29 4.418 14.22 0.518 5.65 0.503 11.35 0.201 17.01h-0.1l-0.77 2.41c0.232 3.74 0.182 6.95 0.201 9.9-0.404 0.49-0.601 0.89-0.904 1.34 0.486-0.01 0.553-0.02 1.037-0.03l0.168 0.57 0.201 3.04c0.225 1.22 0.36 3.45 1.238 5.02h-0.301l1.271 1.61h23.928l0.47-1.94c-0.16 0.01-0.18 0.02-0.33 0.03 1.03-1.72 1-5.72 1-5.72h0.67l0.13-0.61-0.73-2.34-1.07-0.03-0.98-2.01v-10.31c0.84-3.82-1.94-9.21 0.61-12.88 0.59-5.19-1.55-13.42 5.55-14.16 4.55-5.81-3.41-11.44-3.24-17.57-0.35-5.389-3.85-10.264-2.95-15.729 0.79-4.425 2.65-10.109-1.04-13.621-1.08-1.233-3.17-1.536-5.38-1.472z"/>
      <g id="g3259" transform="matrix(.97373 -.22769 .22769 .97373 37.165 33.294)">
        <path id="path3261" d="m87.094-5.8438c-0.407 0.0296-21.595 5.3923-21.976 5.5518-3.204 5.5892 3.144 5.7695-1.73 8.6954-3.362 4.7726 2.752 4.2046-3.578 6.2916-5.857 0.702-9.85 2.358-13.584 7.379-3.35 3.85-10.736 9.946-7.82 15.426 2.993 3.217 8.128 10.437 2.094 12.719l1.826 0.634s-0.259 5.091 1.049 5.209c0.972 0.089 2.436-4.787 2.436-4.787l1.72-0.4s0.585-0.084 0.657-0.094c-1.158-0.288-1.972-0.872-1.5-2.656 4.486-2.72 10.789 1.371 14.75-2.875 3.683-4.411 9.743-7.552 10.312-13.844 3.171-5.533 11.512-7.115 12.312-14.156 0.495-5.289-4.622-10.28-1.874-15.469 1.027-4.0804 5.363-1.6362 5.699-4.762-0.937-0.7582 0.428-2.9513-0.793-2.8628z" transform="matrix(1.071 0 0 1.071 0 -.0024023)"/>
        <path id="path3263" fill="#ffba00" d="m61 49.04c1.577-1.53 3.58-2.605 4.978-4.314-1.166-0.756-3.123 2.494-4.77 2.649-1.145 0.455-2.15-1.641-0.81-2.125 4.717-2.188 10.117-4.204 12.864-8.941 1.168-2.117 1.357-4.684 2.996-6.565 1.572-2.102 3.802-3.719 6.315-4.495 3.274-2.569 5.266-7.11 4.204-11.224-0.955-2.858-3.7-5.5586-2.503-8.778 1.825-2.491 2.152-7.6373 0.328-6.3745-1.982 0.85351-11.332 0.73633-11.954 3.2025-1.188 2.7901 0.781 10.451-1.851 12.409-1.944-1.416-7.102 6.266-12.058 6.717-0.775 0.188-4.178 3.075-2.729 2.364-3.86 1.031-4.086 1.451-7.179 3.633-2.287 1.984-4.216 4.455-5.249 7.323-1.27 1.595-0.556 0.918 0.329 2.554 1.741 2.343 1.691 1.129 2.375 0.051 1.112-3.185 3.097-6.141 6-7.933 1.727-1.751 4.364-3.37 6.842-2.144 2.182 1.283 4.52-0.88 5.971-2.404 1.584-1.796 3.307-3.558 5.594-4.423 1.995-0.619 1.923 1.193 3.008-0.295 2.689-0.222 1.331 3.142 0.613 4.7-0.736 1.936 0.152 0.176-1.002 1.862-1.366 1.729-2.835 3.392-3.952 5.301 0.294 2.638 0.642 6.013-1.785 7.801-2.271 0.994-4.431 2.224-6.332 3.865-1.966 1.52-4.079 3.028-6.572 3.494 1.859 1.24 4.137 1.799 6.329 2.09z"/>
        <path id="path3265" fill="#ff0017" d="m51 44.04c2.275-2.058 5.462-2.308 8.247-3.269 2.05-0.334 3.954-1.399 5.329-2.957 0.634-0.711 1.197-1.49 1.694-2.297 0.628-1.457-0.63-3.101 0.283-4.506 0.44-0.584 0.287-1.434 0.791-2.025 0.899-1.482 2.702-2.368 3.094-4.152 0.138-0.715-1.692-0.805-2.035-0.692-2.456 1.756-3.916 4.91-6.38 6.654-2.122 0.625-4.099-1.334-6.219-0.626-0.826 0.323-1.474 0.963-2.188 1.474-2.536 2.133-4.06 5.428-4.024 8.742 0.043 1.277 0.355 2.545 0.915 3.693 0.165-0.013 0.329-0.026 0.493-0.039z"/>
      </g>
      <path id="path3267" d="m104.14 73.628c-1.33 0.038-2.71 0.208-3.95 0.368-3.062 0.788-5.808 0.232-9.24-0.201-4.558 0.353-9.235 1.79-11.078 6.359-3.404 6.466 5.281 12.082 2.476 18.808 0.157 6.098-8.654 13.388-1.506 17.938 5.661 2.78 2.933 9.29 4.418 14.22 0.518 5.65 0.503 11.35 0.201 17.01h-0.1l-0.77 2.41c0.232 3.74 0.182 6.95 0.201 9.9-0.404 0.49-0.601 0.89-0.904 1.34 0.486-0.01 0.553-0.02 1.037-0.03l0.168 0.57 0.201 3.04c0.225 1.22 0.36 3.45 1.238 5.02h-0.301l1.271 1.61h23.928l0.47-1.94c-0.16 0.01-0.18 0.02-0.33 0.03 1.03-1.72 1-5.72 1-5.72h0.67l0.13-0.61-0.73-2.34-1.07-0.03-0.98-2.01v-10.31c0.84-3.82-1.94-9.21 0.61-12.88 0.59-5.19-1.55-13.42 5.55-14.16 4.55-5.81-3.41-11.44-3.24-17.57-0.35-5.389-3.85-10.264-2.95-15.729 0.79-4.425 2.65-10.109-1.04-13.621-1.08-1.233-3.17-1.536-5.38-1.472zm0.16 2.476c3.2-0.155 6.62 1.116 3.48 9.973-2.37 6.894 2.78 13.097 3.58 19.743-2.48 5.05 7.89 11.2 1.81 14.06-4.94-2.18-1.69-9.43-3.81-13.55-1.23-4.72-2.35-10.901-7.3-12.957-5.993 0.299-4.606 8.667-5.421 12.987-0.598 6.34-0.182 12.9 2.343 18.81 2.408 5.72-1.481 11.12-1.105 16.63 0.942 2.65-0.984 9.8-3.815 6.86 1.28-6.77 4.302-13.3 4.317-20.25-1.024-6.13-5.459-11.72-3.949-18.2 0.115-5.08 1.444-14.093-3.547-16.335-5.827 2.666-2.38 10.145-3.448 14.965 0.202 3.91-7.675 7.33-6.024 1.57 2.628-6.71 6.17-14.257 3.079-21.454-4.459-4.822-1.015-12.526 5.556-12.584 0.244-0.035 6.933 0.512 10.674 0.234 0.74-0.073 2.13-0.431 3.58-0.502zm-9.033 2.544c-4.804 0-8.702 1.356-8.702 3.012s3.898 3.012 8.702 3.012c4.803 0 8.733-1.356 8.733-3.012s-3.93-3.012-8.733-3.012zm5.953 19.143c4.26 1.769 4.74 7.829 5.79 11.809 0.69 8.49 2.03 16.95 1.28 25.47-0.12 4.35-0.19 8.7-0.27 13.06h-0.1c-0.15 7.46-0.29 14.94-0.44 22.32-5.97 0.12-11.931-0.19-17.903-0.07-0.068-0.95 0.248-1.95-0.368-2.78-0.619-0.85-0.714-1.82-0.636-2.84 0.248-1.26-0.459-2.31-1.004-3.38v-11.98c0.344-2.27-0.14-6.65 0.067-8 0.185-7.33-0.582-14.65-1.372-21.92 1.066-5.64 5.942-10.43 3.615-16.5 2.431-5.893 1.059 3.3 0.97 5.22-0.389 6.21 0.794 12.44 3.113 18.17 1.196 6.95 0.13 14.31-3.514 20.38-2.297 7.1 11.072 8.69 10.742 1.21 0.04-5.41 0.23-10.75 1.34-16.07 0.62-5.24 0.42-10.98-2.645-15.49 1.705-6.11-2.117-12.84 1.335-18.609z"/>
      <path id="path3269" fill="#0a0" d="m153.3 74.851c-1.33 0.038-2.7 0.209-3.95 0.369-3.05 0.788-5.8 0.232-9.23-0.201-4.56 0.353-9.24 1.79-11.08 6.359-3.41 6.465 5.28 12.082 2.48 18.812 0.15 6.09-8.66 13.38-1.51 17.93 5.66 2.78 2.93 9.3 4.42 14.23 0.51 5.64 0.5 11.34 0.2 17h-0.1l-0.77 2.41c0.23 3.75 0.18 6.95 0.2 9.91-0.41 0.48-0.6 0.89-0.9 1.33 0.48-0.01 0.55-0.01 1.03-0.03l0.17 0.57 0.2 3.05c0.23 1.22 0.36 3.44 1.24 5.02 0 0-0.29-0.01-0.3 0l1.27 1.6h23.93l0.47-1.94c-0.16 0.01-0.18 0.02-0.34 0.03 1.03-1.72 1.01-5.72 1.01-5.72h0.67l0.13-0.6-0.74-2.34-1.07-0.04-0.97-2.01v-10.3c0.84-3.83-1.94-9.22 0.6-12.89 0.6-5.19-1.55-13.42 5.56-14.15 4.55-5.81-3.41-11.45-3.25-17.58-0.34-5.38-3.84-10.26-2.94-15.725 0.79-4.425 2.64-10.109-1.04-13.621-1.08-1.233-3.17-1.536-5.39-1.473z"/>
      <g id="g3271" transform="matrix(.97373 -.22769 .22769 .97373 86.333 34.518)">
        <path id="path3273" d="m74.289 6.5949c0.175-1.9549-4.126 3.2334-1.589-0.5195-3.204 5.5896 0.165-1.6421-4.709 1.2838-3.362 4.7718-1.442 6.5228-7.772 8.6098-5.857 0.702-12.11 1.947-15.844 6.969-3.35 3.849-8.885 9.082-5.969 14.562 2.993 3.217 8.128 10.437 2.094 12.719l1.826 0.634s-0.259 5.091 1.049 5.209c0.972 0.089 2.436-4.787 2.436-4.787l1.72-0.4s0.585-0.084 0.657-0.094c-1.158-0.288-1.972-0.872-1.5-2.656 4.486-2.72 10.789 1.371 14.75-2.875 3.683-4.411 9.743-7.552 10.312-13.844 3.171-5.533 11.512-7.115 12.312-14.156 0.495-5.289-4.135-0.27-1.388-5.459 1.028-4.0808-0.858-2.738-0.522-5.8638-0.937-0.7582-6.316-1.8187-7.863 0.6677z" transform="matrix(1.071 0 0 1.071 0 -.0024023)"/>
        <path id="path3275" fill="#ffba00" d="m61 49.04c1.577-1.53 3.58-2.605 4.978-4.314-1.166-0.756 1.05-1.325-0.597-1.169-1.144 0.455 0.342-0.428 1.682-0.912 4.717-2.188 3.452-1.599 6.199-6.336 1.168-2.117 1.357-4.684 2.996-6.565 1.572-2.102 3.802-3.719 6.315-4.495 3.274-2.569 4.702-4.698 3.64-8.812-0.955-2.858 0.261-5.164-0.641-8.1107 1.826-2.491-5.193 1.1167-7.017 2.3797-1.983 0.853-3.219-2.6657-3.841-0.2-1.188 2.791-0.208 2.272-2.84 4.23-3.478 3.525-8.179 6.014-13.135 6.465-0.775 0.188-2.593-0.465-1.145-1.177-3.859 1.031-5.67 4.992-8.763 7.174-2.287 1.984-4.216 4.455-5.249 7.323-1.27 1.595-0.629 3.929 0.256 5.565 1.741 2.343 1.764-1.882 2.448-2.96 1.112-3.185 3.097-6.141 6-7.933 1.727-1.751 4.364-3.37 6.842-2.144 2.182 1.283 4.52-0.88 5.971-2.404 1.584-1.796 3.307-3.558 5.594-4.423 1.995-0.619 3.6-2.2 4.685-3.687 2.688-0.223 2.049 3.309 1.33 4.866-0.736 1.937-2.242 3.402-3.396 5.088-1.366 1.729-2.835 3.392-3.952 5.301 0.294 2.638 0.642 6.013-1.785 7.801-2.271 0.994-4.431 2.224-6.332 3.865-1.966 1.52-4.079 3.028-6.572 3.494 1.859 1.24 4.137 1.799 6.329 2.09z"/>
        <path id="path3277" fill="#ff0017" d="m51 44.04c2.275-2.058 5.462-2.308 8.247-3.269 2.05-0.334 3.954-1.399 5.329-2.957 0.634-0.711 1.197-1.49 1.694-2.297 0.628-1.457-0.63-3.101 0.283-4.506 0.44-0.584 0.287-1.434 0.791-2.025 0.899-1.482 2.702-2.368 3.094-4.152 0.138-0.715-0.839 0.403-1.182 0.517-2.456 1.755-4.769 3.701-7.233 5.445-2.122 0.625-4.099-1.334-6.219-0.626-0.826 0.323-1.474 0.963-2.188 1.474-2.536 2.133-4.06 5.428-4.024 8.742 0.043 1.277 0.355 2.545 0.915 3.693 0.165-0.013 0.329-0.026 0.493-0.039z"/>
      </g>
      <path id="path3279" d="m153.3 74.851c-1.33 0.038-2.7 0.209-3.95 0.369-3.05 0.788-5.8 0.232-9.23-0.201-4.56 0.353-9.24 1.79-11.08 6.359-3.41 6.465 5.28 12.082 2.48 18.812 0.15 6.09-8.66 13.38-1.51 17.93 5.66 2.78 2.93 9.3 4.42 14.23 0.51 5.64 0.5 11.34 0.2 17h-0.1l-0.77 2.41c0.23 3.75 0.18 6.95 0.2 9.91-0.41 0.48-0.6 0.89-0.9 1.33 0.48-0.01 0.55-0.01 1.03-0.03l0.17 0.57 0.2 3.05c0.23 1.22 0.36 3.44 1.24 5.02 0 0-0.29-0.01-0.3 0l1.27 1.6h23.93l0.47-1.94c-0.16 0.01-0.18 0.02-0.34 0.03 1.03-1.72 1.01-5.72 1.01-5.72h0.67l0.13-0.6-0.74-2.34-1.07-0.04-0.97-2.01v-10.3c0.84-3.83-1.94-9.22 0.6-12.89 0.6-5.19-1.55-13.42 5.56-14.15 4.55-5.81-3.41-11.45-3.25-17.58-0.34-5.38-3.84-10.26-2.94-15.725 0.79-4.425 2.64-10.109-1.04-13.621-1.08-1.233-3.17-1.536-5.39-1.473zm0.17 2.477c3.2-0.155 6.62 1.115 3.48 9.973-2.37 6.894 2.78 13.099 3.58 19.749-2.49 5.05 7.89 11.19 1.81 14.05-4.94-2.17-1.69-9.43-3.82-13.55-1.22-4.72-2.34-10.897-7.29-12.953-6 0.299-4.61 8.673-5.42 12.983-0.6 6.34-0.19 12.9 2.34 18.81 2.4 5.72-1.48 11.12-1.11 16.63 0.95 2.66-0.98 9.8-3.81 6.86 1.28-6.77 4.3-13.3 4.32-20.24-1.03-6.14-5.46-11.73-3.95-18.21 0.11-5.07 1.44-14.089-3.55-16.331-5.83 2.666-2.38 10.141-3.45 14.961 0.2 3.91-7.67 7.34-6.02 1.57 2.63-6.71 6.17-14.253 3.08-21.451-4.46-4.821-1.02-12.525 5.55-12.583 0.25-0.036 6.94 0.512 10.68 0.234 0.73-0.074 2.13-0.432 3.58-0.502zm-9.04 2.544c-4.8 0-8.7 1.356-8.7 3.012s3.9 3.012 8.7 3.012c4.81 0 8.74-1.356 8.74-3.012s-3.93-3.012-8.74-3.012zm5.96 19.143c4.26 1.765 4.74 7.835 5.79 11.815 0.69 8.48 2.02 16.94 1.27 25.47-0.11 4.35-0.18 8.7-0.27 13.05h-0.1c-0.15 7.47-0.28 14.94-0.43 22.32-5.97 0.12-11.93-0.19-17.91-0.06-0.06-0.96 0.25-1.96-0.36-2.78-0.62-0.86-0.72-1.83-0.64-2.85 0.25-1.26-0.46-2.3-1-3.38v-11.98c0.34-2.26-0.14-6.64 0.06-8 0.19-7.33-0.58-14.64-1.37-21.92 1.07-5.63 5.94-10.43 3.62-16.5 2.43-5.889 1.06 3.31 0.97 5.22-0.39 6.22 0.79 12.44 3.11 18.18 1.19 6.94 0.13 14.3-3.52 20.38-2.29 7.09 11.08 8.68 10.75 1.2 0.04-5.41 0.23-10.75 1.34-16.06 0.62-5.24 0.42-10.99-2.65-15.5 1.71-6.11-2.12-12.84 1.34-18.605z"/>
      <path id="path3281" fill="#0a0" d="m204.52 75.705c-1.33 0.037-2.7 0.205-3.95 0.363-3.06 0.777-5.8 0.229-9.24-0.198-4.55 0.348-9.23 1.764-11.07 6.267-3.41 6.372 5.28 11.908 2.47 18.533 0.16 6.01-8.65 13.2-1.5 17.68 5.66 2.74 2.93 9.16 4.41 14.02 0.52 5.57 0.51 11.18 0.21 16.76h-0.1l-0.77 2.37c0.23 3.69 0.18 6.85 0.2 9.76-0.41 0.49-0.6 0.88-0.91 1.32 0.49-0.01 0.56-0.02 1.04-0.03l0.17 0.56 0.2 3c0.22 1.21 0.36 3.4 1.24 4.95h-0.3l1.27 1.58h23.93l0.46-1.91c-0.15 0.01-0.17 0.02-0.33 0.03 1.03-1.69 1-5.64 1-5.64h0.67l0.14-0.59-0.74-2.31-1.07-0.03-0.97-1.98v-10.16c0.84-3.77-1.94-9.08 0.6-12.7 0.59-5.11-1.55-13.22 5.56-13.95 4.55-5.73-3.41-11.28-3.25-17.32-0.34-5.31-3.84-10.114-2.94-15.5 0.79-4.361 2.64-9.962-1.04-13.424-1.08-1.215-3.17-1.513-5.39-1.451z"/>
      <g id="g3283" transform="matrix(.97373 -.22769 .22769 .97373 137.55 35.372)">
        <path id="path3285" d="m82.066-7.0195c-0.407 0.0295-1.765-0.1021-2.146 0.0573-3.203 5.5893-4.639 5.5988-9.514 8.5247-3.362 4.7722-8.198 9.2845-14.528 11.372-5.856 0.702-7.769 4.982-11.503 10.004-3.35 3.849-8.885 9.082-5.969 14.562 2.993 3.217 8.128 10.437 2.094 12.719l1.826 0.634s-0.259 5.091 1.049 5.209c0.972 0.089 2.436-4.787 2.436-4.787l1.72-0.4s0.585-0.084 0.657-0.094c-1.158-0.288-1.972-0.872-1.5-2.656 4.486-2.72 10.789 1.371 14.75-2.875 3.683-4.411 9.743-7.552 10.312-13.844 3.171-5.533 11.512-7.115 12.312-14.156 0.495-5.289-4.622-10.28-1.874-15.469 1.027-4.0804 1.207-3.449 1.543-6.5748-0.937-0.7582-0.444-2.3142-1.665-2.2257z" transform="matrix(1.071 0 0 1.071 0 -.0024023)"/>
        <path id="path3287" fill="#ffba00" d="m61 49.04c1.577-1.53 3.58-2.605 4.978-4.314-1.166-0.756-3.597 0.743-5.244 0.898-1.144 0.455-1.676 0.11-0.336-0.374 4.717-2.188 10.117-4.204 12.864-8.941 1.168-2.117 1.357-4.684 2.996-6.565 1.572-2.102 3.802-3.719 6.315-4.495 3.274-2.569 5.266-7.11 4.204-11.224-0.955-2.858-3.7-5.5586-2.503-8.778 1.825-2.491 0.431-5.8238-1.393-4.561-1.983 0.8535-6.474 3.315-7.096 5.7812-1.188 2.7901-5.339 4.0088-7.971 5.9668-3.477 3.525-2.767 4.846-7.722 5.297 0.124-3.658-3.946 3.005-2.498 2.293-3.859 1.031-5.67 4.992-8.763 7.174-2.287 1.984-4.216 4.455-5.249 7.323-1.27 1.595-0.629 3.929 0.256 5.565 1.741 2.343 1.764-1.882 2.448-2.96 1.112-3.185 3.097-6.141 6-7.933 1.727-1.751 4.364-3.37 6.842-2.144 2.182 1.283 1.879-2.309 3.33-3.833 1.584-1.795 4.12-4.72 6.406-5.585 1.996-0.619 5.429 0.391 6.514-1.096 2.688-0.223 2.049 3.309 1.33 4.866-0.736 1.937-2.242 3.402-3.396 5.088-1.366 1.729-2.835 3.392-3.952 5.301 0.294 2.638 0.642 6.013-1.785 7.801-2.271 0.994-4.431 2.224-6.332 3.865-1.966 1.52-4.079 3.028-6.572 3.494 1.859 1.24 4.137 1.799 6.329 2.09z"/>
        <path id="path3289" fill="#ff0017" d="m51 44.04c2.275-2.058 5.462-2.308 8.247-3.269 2.05-0.334 3.954-1.399 5.329-2.957 0.634-0.711 1.197-1.49 1.694-2.297 0.628-1.457-0.63-3.101 0.283-4.506 0.44-0.584 0.287-1.434 0.791-2.025 0.899-1.482 2.702-2.368 3.094-4.152 0.138-0.715-0.256-3.246-0.599-3.133-2.822-1.305-5.625 6.205-8.089 7.95-2.122 0.624-3.826-0.189-5.946 0.519-0.826 0.323-1.474 0.963-2.188 1.474-2.536 2.133-4.06 5.428-4.024 8.742 0.043 1.277 0.355 2.545 0.915 3.693 0.165-0.013 0.329-0.026 0.493-0.039z"/>
      </g>
      <path id="path3291" d="m204.52 75.705c-1.33 0.037-2.7 0.205-3.95 0.363-3.06 0.777-5.8 0.229-9.24-0.198-4.55 0.348-9.23 1.764-11.07 6.267-3.41 6.372 5.28 11.908 2.47 18.533 0.16 6.01-8.65 13.2-1.5 17.68 5.66 2.74 2.93 9.16 4.41 14.02 0.52 5.57 0.51 11.18 0.21 16.76h-0.1l-0.77 2.37c0.23 3.69 0.18 6.85 0.2 9.76-0.41 0.49-0.6 0.88-0.91 1.32 0.49-0.01 0.56-0.02 1.04-0.03l0.17 0.56 0.2 3c0.22 1.21 0.36 3.4 1.24 4.95h-0.3l1.27 1.58h23.93l0.46-1.91c-0.15 0.01-0.17 0.02-0.33 0.03 1.03-1.69 1-5.64 1-5.64h0.67l0.14-0.59-0.74-2.31-1.07-0.03-0.97-1.98v-10.16c0.84-3.77-1.94-9.08 0.6-12.7 0.59-5.11-1.55-13.22 5.56-13.95 4.55-5.73-3.41-11.28-3.25-17.32-0.34-5.31-3.84-10.114-2.94-15.5 0.79-4.361 2.64-9.962-1.04-13.424-1.08-1.215-3.17-1.513-5.39-1.451zm0.17 2.441c3.2-0.153 6.62 1.099 3.48 9.829-2.37 6.794 2.77 12.905 3.58 19.455-2.49 4.98 7.89 11.04 1.81 13.86-4.94-2.15-1.69-9.3-3.82-13.36-1.22-4.65-2.34-10.739-7.29-12.765-6 0.295-4.61 8.545-5.43 12.795-0.59 6.25-0.18 12.72 2.35 18.54 2.4 5.64-1.48 10.96-1.11 16.39 0.94 2.62-0.98 9.66-3.81 6.76 1.28-6.67 4.3-13.11 4.31-19.95-1.02-6.05-5.46-11.56-3.94-17.94 0.11-5 1.44-13.891-3.55-16.1-5.83 2.627-2.38 10-3.45 14.74 0.2 3.86-7.67 7.23-6.02 1.55 2.62-6.61 6.17-14.045 3.08-21.139-4.46-4.751-1.02-12.344 5.55-12.401 0.24-0.035 6.93 0.504 10.68 0.231 0.73-0.073 2.12-0.426 3.58-0.495zm-9.04 2.506c-4.8 0-8.7 1.337-8.7 2.969s3.9 2.968 8.7 2.968c4.81 0 8.74-1.336 8.74-2.968s-3.93-2.969-8.74-2.969zm5.96 18.867c4.26 1.741 4.74 7.721 5.79 11.641 0.68 8.36 2.02 16.7 1.27 25.1-0.11 4.29-0.18 8.58-0.27 12.87h-0.1c-0.15 7.36-0.29 14.72-0.43 22-5.97 0.12-11.94-0.19-17.91-0.07-0.07-0.94 0.25-1.93-0.37-2.74-0.62-0.84-0.71-1.8-0.63-2.8 0.25-1.25-0.46-2.27-1.01-3.33v-11.81c0.35-2.23-0.14-6.55 0.07-7.88 0.19-7.23-0.58-14.44-1.37-21.61 1.06-5.55 5.94-10.28 3.61-16.26 2.44-5.805 1.06 3.26 0.97 5.15-0.39 6.12 0.8 12.25 3.12 17.91 1.19 6.84 0.13 14.1-3.52 20.08-2.29 6.99 11.08 8.56 10.75 1.19 0.04-5.33 0.23-10.59 1.33-15.83 0.63-5.17 0.43-10.83-2.64-15.27 1.7-6.02-2.12-12.66 1.34-18.341z"/>
      <path id="path3363" stroke="#000" stroke-width="1.4928" d="m136.9 265.69c-6.56-9.3-28.75-18.01-54.449-21.38-5.588-0.73-19.721-1.35-31.407-1.37-17.444-0.03-23.539 0.38-34.063 2.29-14.854 2.69-41.982 12.34-51.169 18.2-6.33 4.04-16.84 5.85-16.84 3.32 0-2.4 21.179-10.77 38.465-17.05 21.68-7.88 27.004-9.3 35.002-9.3 3.673 0 8.49-0.52 10.705-1.16 8.032-2.33 31.971-1.09 54.85 2.85 11.685 2 24.156 4.64 27.716 5.86 9.38 3.21 19.9 9.26 25.51 14.66 2.92 2.81 6.4 4.83 8.63 5.01 5.37 0.41 24.56-0.66 26.03-1.45 1.95-1.06-4.79-13.63-10.85-20.25-20.14-22.01-34.52-29.45-57.02-29.49-6.5-0.02-10.753-0.48-11.214-1.23-0.456-0.74-3.902-1.13-8.929-1.02l-8.187 0.19 9.237-2.6c5.081-1.43 10.692-3.29 12.473-4.14 1.78-0.84 3.23-1.22 3.23-0.83 0 1.95 31.9-12.37 63.74-28.6 6.78-3.47 8.26-3.77 18.1-3.78 8.47-0.01 10.41 0.27 9.24 1.33-3.46 3.14-42.9 20.28-68.91 29.95-11.42 4.24-22.07 8.28-18.04 7.78 14.12-1.73 74-21.88 93.28-31.41 5.87-2.89 13.08-6.26 16.02-7.48l5.36-2.21-150.38 0.05c-82.712 0.03-157.66-0.23-166.55-0.57-13.47-0.51-16.16-0.37-16.16 0.85 0 1.31 6.13 3.08 9.695 2.8 0.762-0.06 1.386 0.57 1.386 1.39 0 0.83 0.785 1.5 1.746 1.5 0.96 0 5.324 2.08 9.699 4.62 15.823 9.17 42.19 16.9 97.374 28.54 8.329 1.76 1.414 2.75-9.5186 1.37-9.0196-1.14-10.623-1.14-10.623 0.04 0.0001 0.76-2.2864 2.16-5.0804 3.1-30.642 10.34-58.254 28.81-64.379 43.08l-2.258 5.25h13.811c13.794 0 22.024 1.26 19.976 3.06-0.596 0.52-10.683 3.06-21.182 3.06-18.869 0-18.093-2.14-19.25-4.64-1.602-3.45 11.451-20.18 21.208-27.17 21.288-15.27 43.349-26.31 52.564-26.31 5.5687 0 2.486-1.65-6.251-3.35-10.252-2-51.075-14.28-61.041-18.37-3.649-1.5-13.51-6.39-21.916-10.86-22.43-11.95-23.65-11.59 36.268-10.67 54.616 0.84 183.77 0.73 258.41-0.21 43.1-0.54 48.34-0.44 47.37 0.92-1.41 2-52.26 22.73-73.67 30.04-9.14 3.13-19.07 8.41-26.18 10.36-11.41 3.13-12.52 4.06-9.45 5.04 15.49 4.94 28.59 13.45 37.94 23.6 6.48 7.04 21.08 29.44 19.88 30.49-0.68 0.6-10.49 1.01-23.89 1.01h-22.74l-3.32-4.71zm2.49-67.47c8.5-3.14 23.22-9.63 38.63-17.05 6.49-3.13 7.16-3.77 3.96-3.77-3.98 0-7.1 1.26-27.46 11.08-6.62 3.19-15.35 7.39-19.42 9.34-9.21 4.41-7.13 4.61 4.29 0.4zm11.91 66.93c-0.99-0.68-2.8-3.44-4-6.12-3.34-7.4-10.09-13.82-21.58-20.54-11.23-6.56-33.446-15.17-44.075-17.06-6.249-1.12-7.816-2.02-5.591-3.23 2.25-1.22 18.655 1.67 31.036 5.45 18.16 5.56 24.43 8.14 36.95 15.19 13.34 7.51 28.94 23.65 25.21 26.08-2.77 1.81-15.44 1.97-17.95 0.23zm11.57-4.44c-3.99-11.5-29.74-27.81-53.55-33.91l-5.62-1.44 5.54 2.23c21.02 8.47 45.26 26.09 45.26 32.89 0 2.09 1.03 2.89 4.16 3.22 2.28 0.24 4.46 0.49 4.82 0.57 0.37 0.07 0.09-1.53-0.61-3.56zm-235.6 1.52c0-0.7 2.205-4.32 4.9-8.04 7.331-10.11 30.069-23.46 52.924-31.06 17.731-5.9 53.023-10.87 53.023-7.48 0 0.95-3.636 2.17-9.68 3.24-44.002 7.79-73.523 22.03-81.677 39.41-2.152 4.58-2.202 4.61-10.826 4.91-6.101 0.21-8.664-0.07-8.664-0.98zm15.601-6.9c4.609-9.87 20.046-19.97 42.739-27.98 14.613-5.15 14.222-6.53-0.521-1.83-15.902 5.06-37.176 17.03-45.379 25.53-7.958 8.25-8.396 9.61-2.935 9.17 2.989-0.24 4.486-1.44 6.096-4.89zm83.011-44.96c-14.53-1.56-42.612-10.08-77.012-23.37-6.502-2.51-14.018-5.18-16.701-5.93-4.805-1.35-4.826-1.4-1.439-3.52 4.205-2.62 18.165-3.08 19.889-0.65 0.585 0.83 1.789 1.5 2.675 1.5 0.887 0 5.162 2.1 9.502 4.65 8.477 5 29.713 13 55.539 20.92 8.834 2.72 16.068 5.5 16.075 6.18 0.007 0.69-0.195 1.21-0.449 1.15s-3.89-0.48-8.079-0.93zm-50.578-17.41c0-0.24-4.794-2.43-10.652-4.87-5.859-2.45-11.819-5.62-13.245-7.06-1.754-1.78-4.111-2.63-7.294-2.63-4.124 0-4.37 0.18-1.997 1.46 2.746 1.48 31.879 13.53 32.726 13.54 0.254 0 0.462-0.19 0.462-0.44zm72.811 16.51c-3.448-3.48-4.296-14.39-5.583-24.32l-1.265-9.75h12.281c12.083-0.07 12.246 0.21 11.24 3.78-0.388 1.37-3.895 6.54-4.728 13.95-1.977 17.6-7.02 21.33-11.945 16.34zm6.662-19.16c1.018-4.62 2.406-10.93 2.416-9.15 0.007 1.18-0.536-1.44-6.433-0.93-2.053 0.18-0.72 1.9-0.486 6.49 0.352 6.86 0.69 13.06 1.898 12.41 0.415-0.22 1.588-4.19 2.605-8.82z"/>
      <path id="path3377" d="m217.12 216.1c-1.18-0.6-3.23-2.06-4.57-3.24-5.7-5.02-15.31-10.26-22.25-12.15-6.56-1.78-21.11-4.5-31.07-5.8-14.78-1.93-27.04-2.25-33.67-0.89-1.6 0.33-5.71 0.79-9.14 1.03-3.44 0.24-7.14 0.65-8.23 0.91-9.572 2.31-39.134 13.32-47.533 17.71l-3.2 1.67-4.266-0.34c-2.346-0.19-8.058-0.44-12.693-0.55l-6.79 1.08-2.632-1.81c1.909-4.04 5.348-8.01 8.848-11.63 9.022-9.32 24.382-18.48 42.04-25.07 6.289-2.34 7.466-2.91 8.126-3.92 0.608-0.93 1.254-0.95 7.068-0.26 4.532 0.54 11.732 0.72 12.142 0.32 0.14-0.14 0.03-0.43-0.26-0.63-0.54-0.4-1.27-0.57-18.219-4.32-26.264-5.81-43.342-10.65-54.833-15.56-1.766-0.75-5.473-2.56-8.238-4.01-5.695-3-7.831-3.99-8.624-4.01-0.33-0.01-0.721-0.43-0.982-1.05-0.395-0.95-0.573-1.05-2.041-1.23-0.884-0.11-2.156-0.28-2.826-0.36-1.42-0.19-3.9225-1.35-3.8732-1.79 0.074-0.67 2.7422-0.73 20.326-0.45 10.055 0.16 54.368 0.29 98.47 0.29 53.13 0 80.26 0.11 80.39 0.31 0.11 0.19 3.8 0.31 10.05 0.31s9.94-0.12 10.06-0.31 3.95-0.3 10.49-0.3h10.31l0.47 0.72 0.47 0.72-4.47 0.16c-2.79 0.11-5.06 0.35-6.03 0.65-0.86 0.27-7.03 3.17-13.71 6.46-18.81 9.24-34.65 16.49-40.32 18.44-0.9 0.32-2.11 0.57-2.68 0.57s-2.76 0.63-4.87 1.39c-2.1 0.76-6.43 2.13-9.63 3.05-3.19 0.91-5.87 1.73-5.95 1.81-0.09 0.09 2.65 0.16 6.07 0.16 5.51 0 6.37 0.07 7.53 0.6 1.52 0.69 2.81 0.83 11.36 1.21 13.29 0.6 21.41 3.58 31.44 11.55 3.31 2.63 12.01 11.21 14.29 14.08 3.46 4.38 6.89 10.53 7.47 13.42 0.12 0.62 0.02 0.86-0.42 1-1.28 0.41-7.01 0.81-13.96 0.98l-7.31 0.18-2.13-1.1zm16.79-0.36c0.86-0.24 1.73-0.63 1.93-0.88 1.61-1.93-5.83-10.54-14.76-17.12-4.71-3.46-13.94-8.44-20.26-10.93-4.17-1.64-13.76-4.78-18.9-6.19-10.55-2.91-21.32-4.5-22.48-3.34-1.08 1.08-0.34 1.46 5.12 2.69 5 1.12 9.98 2.66 15.94 4.91 13.69 5.18 23.14 10.29 29.6 16 3.29 2.91 5.32 5.51 7.62 9.8 1.91 3.55 2.65 4.53 3.82 5 1.96 0.8 9.55 0.84 12.37 0.06zm-182.75-2.28c1.805-0.39 2.32-0.91 4.107-4.16 2.471-4.49 5.612-7.98 10.301-11.44 7.7-5.68 17.636-10.24 31.043-14.24 6.93-2.06 10.96-3.04 20.87-5.05 8.45-1.7 10.55-2.27 11.42-3.07 0.85-0.79-0.15-1.17-3.42-1.28-7.02-0.24-23.35 2.31-34.702 5.43-16.489 4.52-35.806 14.56-44.936 23.36-2.314 2.23-6.819 8.7-6.819 9.8 0 0.34 0.24 0.69 0.533 0.76 1.093 0.29 10.157 0.2 11.603-0.11zm74.851-42.49c0-1.15-1.88-1.89-18.13-7.13-21.749-7.03-32.428-11.22-42.348-16.64-1.928-1.06-4.121-2.09-4.875-2.31-0.755-0.21-1.803-0.76-2.331-1.21-2.77-2.37-13.659-1.78-17.484 0.94-0.515 0.37-0.895 0.88-0.845 1.15 0.063 0.32 1.919 1.08 5.729 2.36 3.101 1.04 9.545 3.37 14.321 5.17 26.544 10 44.893 15.55 57.433 17.36 8.46 1.21 8.53 1.22 8.53 0.31zm16.13 0.12c2.18-1.71 3.32-4.88 4.59-12.67 0.81-4.96 1.39-6.96 3.24-11.1 1.4-3.13 1.45-3.73 0.36-4.45-0.74-0.48-1.84-0.55-9.91-0.65l-9.07-0.11 0.15 0.87c0.08 0.48 0.63 4.65 1.22 9.25 1.8 14.08 2.55 16.69 5.39 18.79 1.24 0.91 2.92 0.94 4.03 0.07z" fill="#502d16" transform="matrix(1.2317 0 0 1.2317 -120.8 0)"/>
      <path id="path3379" d="m44.04 210.72c-0.509-0.83 5.028-6.99 9.149-10.19 10.08-7.81 23.882-14.73 36.822-18.44 7.348-2.11 6.235-1.41-3.875 2.45-3.875 1.48-8.293 3.23-9.817 3.9-12.369 5.43-20.864 11.81-24.651 18.51-1.92 3.4-2.845 4.09-5.512 4.09-1.054 0-2.007-0.14-2.116-0.32z" fill="#a05a2c" transform="matrix(1.2317 0 0 1.2317 -120.8 0)"/>
      <path id="path3381" d="m70.711 154.18c-8.091-3.28-19.248-8.06-19.934-8.53-0.546-0.38-0.55-0.42-0.052-0.61 0.767-0.29 4.219 0.08 5.44 0.59 0.571 0.24 1.685 0.93 2.474 1.53 2.232 1.71 4.92 3.11 11.857 6.19 3.523 1.56 6.476 2.91 6.561 3 0.49 0.49-1.335-0.14-6.346-2.17z" fill="#a05a2c" transform="matrix(1.2317 0 0 1.2317 -120.8 0)"/>
      <path id="path3383" d="m140.05 161.11c-0.42-0.68-1.57-13.83-1.25-14.34 0.29-0.47 3.05-0.4 4.26 0.11l1.03 0.43-0.43 1.77c-1.67 7.05-2.93 11.87-3.15 12.09-0.14 0.14-0.35 0.12-0.46-0.06z" fill="#a05a2c" transform="matrix(1.2317 0 0 1.2317 -120.8 0)"/>
      <path id="path3385" d="m203.56 163.05c0-0.21 4.37-2.38 16.94-8.4 19.32-9.26 22.23-10.45 25.16-10.28l1.62 0.1-6.55 3.23c-11.79 5.82-24.65 11.41-32.26 14.01-4.34 1.48-4.91 1.63-4.91 1.34z" fill="#a05a2c" transform="matrix(1.2317 0 0 1.2317 -120.8 0)"/>
      <path id="path3387" d="m227.32 214.04c-2.5-0.35-3.43-1-3.7-2.63-0.33-1.87-0.99-2.93-3.55-5.62-6.41-6.74-19.89-15.43-31.81-20.51-1.13-0.48-1.99-0.93-1.93-0.99 0.23-0.23 5.86 1.54 10.22 3.21 4.47 1.71 10.31 4.49 14.78 7.02 10.3 5.86 18.44 13.77 19.24 18.73 0.21 1.31 0.3 1.28-3.25 0.79z" fill="#784421" transform="matrix(1.2317 0 0 1.2317 -120.8 0)"/>
      <path id="path3389" fill="#502d16" d="m110.23 212.38c1.14-0.52 4.85-2.01 8.26-3.31 24.28-9.25 44.61-17.58 60.23-24.67 15.84-7.2 19.19-9.15 16.79-9.78-0.36-0.09 3.18-0.19 7.88-0.21l8.53-0.04 0.23-0.94 0.24-0.94 4.93 0.02c4.52 0.02 4.84 0.07 3.8 0.55-0.61 0.29-3.91 1.78-7.31 3.32-3.41 1.53-9.07 4.13-12.57 5.77-8.1 3.8-16.99 7.38-29.93 12.07-22.67 8.22-48.95 16.41-59.66 18.59-3.75 0.76-3.9 0.71-1.42-0.43z"/>
      <path id="path3393" d="m256.66 141.88c-0.44-0.26-1.42-0.33-4.2-0.38l-2.35 0.03-1.42-0.52 0.25-0.68 11.2-0.23 10.62 0.23 0.72-0.06c1.76 0.64-1.99 1.97-2.4 2.6l-3.12-0.23c-2.57 0-1.67 0.94-8.87-0.43-0.08-0.02-0.43 0.28-0.2-0.1l-0.23-0.23z" fill="#502d16" transform="matrix(1.2317 0 0 1.2317 -120.8 0)"/>
    </g>
  </g>
  <metadata>
    <rdf:RDF>
      <cc:Work>
        <dc:format>image/svg+xml</dc:format>
        <dc:type rdf:resource="http://purl.org/dc/dcmitype/StillImage"/>
        <cc:license rdf:resource="http://creativecommons.org/licenses/publicdomain/"/>
        <dc:publisher>
          <cc:Agent rdf:about="http://openclipart.org/">
            <dc:title>Openclipart</dc:title>
          </cc:Agent>
        </dc:publisher>
      </cc:Work>
      <cc:License rdf:about="http://creativecommons.org/licenses/publicdomain/">
        <cc:permits rdf:resource="http://creativecommons.org/ns#Reproduction"/>
        <cc:permits rdf:resource="http://creativecommons.org/ns#Distribution"/>
        <cc:permits rdf:resource="http://creativecommons.org/ns#DerivativeWorks"/>
      </cc:License>
    </rdf:RDF>
  </metadata>
</svg>
