<?xml version="1.0" encoding="UTF-8" standalone="no"?>
<!-- Created with Inkscape (http://www.inkscape.org/) -->

<svg
   xmlns:dc="http://purl.org/dc/elements/1.1/"
   xmlns:cc="http://creativecommons.org/ns#"
   xmlns:rdf="http://www.w3.org/1999/02/22-rdf-syntax-ns#"
   xmlns:svg="http://www.w3.org/2000/svg"
   xmlns="http://www.w3.org/2000/svg"
   xmlns:sodipodi="http://sodipodi.sourceforge.net/DTD/sodipodi-0.dtd"
   xmlns:inkscape="http://www.inkscape.org/namespaces/inkscape"
   width="3200"
   height="800"
   id="svg3168"
   version="1.1"
   inkscape:version="0.48.1 r9760"
   sodipodi:docname="Reindeer_santa_1_outline.svg">
  <sodipodi:namedview
     id="base"
     pagecolor="#ffffff"
     bordercolor="#666666"
     borderopacity="1.0"
     inkscape:pageopacity="0.0"
     inkscape:pageshadow="2"
     inkscape:zoom="0.3946875"
     inkscape:cx="1600"
     inkscape:cy="400"
     inkscape:document-units="px"
     inkscape:current-layer="layer3"
     showgrid="false"
     inkscape:window-width="1676"
     inkscape:window-height="1006"
     inkscape:window-x="0"
     inkscape:window-y="0"
     inkscape:window-maximized="1" />
  <defs
     id="defs3170">
    <inkscape:path-effect
       back_thickness="0.25"
       front_thickness="1"
       stroke_width_bottom="1"
       stroke_width_top="1"
       fat_output="false"
       bottom_smth_variation="0;1"
       top_smth_variation="0;1"
       scale_tb="2"
       scale_tf="2"
       scale_bb="2"
       scale_bf="2"
       top_tgt_variation="0;1"
       bottom_tgt_variation="0;1"
       top_edge_variation="0;1"
       bottom_edge_variation="0;1"
       bender="1967.7265,282.28914 , 4.2381517,0.2278096"
       do_bend="true"
       growth="0"
       dist_rdm="0;1"
       direction="1967.9543,278.05098 , 10.413108,10.054937"
       is_visible="true"
       id="path-effect6545"
       effect="rough_hatches" />
    <inkscape:path-effect
       back_thickness="0.25"
       front_thickness="1"
       stroke_width_bottom="1"
       stroke_width_top="1"
       fat_output="false"
       bottom_smth_variation="0;1"
       top_smth_variation="0;1"
       scale_tb="2"
       scale_tf="2"
       scale_bb="2"
       scale_bf="2"
       top_tgt_variation="0;1"
       bottom_tgt_variation="0;1"
       top_edge_variation="0;1"
       bottom_edge_variation="0;1"
       bender="2739.2992,288.65858 , 4.2147202,0.49996055"
       do_bend="true"
       growth="0"
       dist_rdm="0;1"
       direction="2739.7991,284.44386 , 9.7447496,10.703945"
       is_visible="true"
       id="path-effect6541"
       effect="rough_hatches" />
    <inkscape:path-effect
       back_thickness="0.25"
       front_thickness="1"
       stroke_width_bottom="1"
       stroke_width_top="1"
       fat_output="false"
       bottom_smth_variation="0;1"
       top_smth_variation="0;1"
       scale_tb="2"
       scale_tf="2"
       scale_bb="2"
       scale_bf="2"
       top_tgt_variation="0;1"
       bottom_tgt_variation="0;1"
       top_edge_variation="0;1"
       bottom_edge_variation="0;1"
       bender="482.2741,547.04608 , -11.938562,24.197951"
       do_bend="true"
       growth="0"
       dist_rdm="0;1"
       direction="483.484,540.83618 , 15.053133,2.3677559"
       is_visible="true"
       id="path-effect6411"
       effect="rough_hatches" />
    <inkscape:path-effect
       effect="rough_hatches"
       id="path-effect5349"
       is_visible="true"
       direction="1213.8031,302.91659 , 11.105269,9.2848045"
       dist_rdm="0;1"
       growth="0"
       do_bend="true"
       bender="1213.8788,307.16018 , 4.2435939,-0.0757482"
       bottom_edge_variation="0;1"
       top_edge_variation="0;1"
       bottom_tgt_variation="0;1"
       top_tgt_variation="0;1"
       scale_bf="2"
       scale_bb="2"
       scale_tf="2"
       scale_tb="2"
       top_smth_variation="0;1"
       bottom_smth_variation="0;1"
       fat_output="false"
       stroke_width_top="1"
       stroke_width_bottom="1"
       front_thickness="1"
       back_thickness="0.25" />
  </defs>
  <metadata
     id="metadata3173">
    <rdf:RDF>
      <cc:Work
         rdf:about="">
        <dc:format>image/svg+xml</dc:format>
        <dc:type
           rdf:resource="http://purl.org/dc/dcmitype/StillImage" />
        <dc:title></dc:title>
      </cc:Work>
    </rdf:RDF>
  </metadata>
  <g
     id="1-default"
     inkscape:groupmode="layer"
     inkscape:label="1-black">
    <path
       style="fill:none;stroke:#000000;stroke-width:3.99999976;stroke-linecap:round;stroke-linejoin:round;stroke-miterlimit:4;stroke-opacity:1;stroke-dasharray:none"
       d="M 2038.5938 4.53125 C 2038.3229 4.5376845 2038.0636 4.547804 2037.9062 4.59375 C 2037.2901 4.604517 2037.3125 4.530062 2036.6875 4.65625 C 2035.4287 5.02378 2034.1375 5.893746 2033.4375 7 C 2032.7772 7.5873561 2032.7181 8.3490715 2032.6562 9.15625 C 2033.1312 10.990431 2033.0162 12.281131 2033.5 14 L 2036.5312 22.71875 L 2036.4688 23.71875 C 2036.9833 25.034028 2037.4855 26.559737 2038 27.875 C 2039.5482 31.76316 2042.3137 35.442172 2044.5 39.03125 C 2046.6687 42.85095 2048.8625 46.521826 2049.7812 50.59375 C 2050.2958 51.909025 2050.789 53.548937 2050.6875 54.875 C 2051.1844 56.420896 2051.6506 58.25582 2051.5312 59.8125 C 2051.2488 63.502454 2051.6359 66.220671 2051.4062 69.21875 L 2051.4062 69.71875 C 2051.2647 71.563695 2051.699 73.809093 2051.5312 76 C 2052.059 77.142302 2052.6244 77.786571 2052.5625 78.59375 C 2053.0548 80.197279 2052.9049 82.011764 2053.4062 83.5 C 2053.9695 84.181072 2053.9636 84.595346 2054.5312 85.21875 L 2051.8438 88.03125 C 2051.1525 89.022189 2050.4638 90.026838 2049.1875 90.625 C 2047.8712 91.742047 2047.1512 92.779506 2045.8438 93.78125 C 2044.5278 94.898314 2043.2003 96.013864 2041.2812 96.96875 C 2040.6432 97.26784 2040.0088 97.852323 2039.375 98.09375 C 2038.1251 98.345973 2036.875 98.495108 2035.6562 98.34375 C 2033.812 98.31849 2032.6035 97.998359 2030.8125 97.28125 C 2029.0171 96.621789 2027.2417 96.076496 2026.0625 95.40625 C 2026.0625 95.40625 2025.4692 94.996225 2024.875 94.71875 C 2024.2943 94.268311 2023.0765 94.008104 2022.5 93.5 C 2021.9192 93.049565 2021.3489 92.528552 2020.1562 92.03125 C 2019.593 91.350189 2018.4024 90.582465 2017.8438 89.84375 C 2016.6953 88.769901 2015.5275 88.08247 2014.9688 87.34375 C 2014.9917 87.113385 2013.8267 86.28668 2013.2812 85.375 C 2011.5476 83.908375 2010.3942 82.660085 2009.2812 81.125 C 2007.0902 77.593565 2004.3386 73.488937 2002.8125 69.3125 C 2002.8575 68.735976 2002.3043 67.82762 2001.75 67.03125 C 2001.83 65.993458 2001.8757 65.303378 2001.3438 64.21875 C 2000.9527 61.289118 1999.9626 58.435541 1998.9688 55.34375 C 1998.4586 53.970832 1997.9428 52.744629 1996.7812 51.84375 C 1996.8343 51.151861 1996.2593 50.659503 1995.6875 50.09375 C 1995.1508 49.066767 1994.5769 48.160573 1993.4062 47.375 C 1992.8476 46.636289 1991.7014 45.789358 1991.125 45.28125 C 1989.9545 44.495681 1989.3574 44.384643 1988.125 44.40625 C 1987.5177 44.30169 1987.4955 44.36885 1986.875 44.4375 C 1986.849 44.725572 1986.2143 44.931539 1985.5938 45 C 1985.5648 45.345803 1984.9371 45.50266 1984.9062 45.90625 C 1984.8302 46.886364 1984.2096 47.211716 1984.1875 47.5 L 1984.0938 48.5625 C 1984.0097 49.65797 1983.9185 50.711139 1984.4375 51.96875 C 1985.3211 56.501929 1986.228 61.081076 1987.7188 65.71875 L 1989.125 71.09375 C 1989.6352 72.466672 1989.5122 74.271407 1988.7812 75.78125 C 1988.7462 76.242518 1988.1022 76.731104 1988.0625 77.25 C 1987.411 77.722042 1986.7233 78.316242 1986.0938 78.5 C 1984.8483 78.694577 1984.2768 78.681536 1983.6562 78.75 C 1982.4372 78.598672 1981.1789 78.54785 1979.9688 78.28125 C 1978.1512 77.910076 1976.9741 77.274772 1975.1875 76.5 C 1972.2261 74.997318 1969.2697 73.588918 1966.3438 71.625 C 1963.9941 70.169172 1961.0101 68.744592 1958.625 67.75 C 1958.0356 67.414885 1957.4419 67.347488 1956.8125 67.53125 C 1956.1744 67.83034 1955.5446 68.263415 1954.9062 68.5625 C 1954.8802 68.85058 1954.2585 68.949845 1954.2188 69.46875 L 1954.0312 71.71875 C 1953.9693 72.525904 1953.9147 73.172398 1954.4688 73.96875 L 1954.4062 74.5625 C 1954.9606 75.358879 1954.8966 76.124419 1955.4375 77.09375 L 1955.4375 77.4375 C 1955.4025 77.898759 1955.3557 78.268278 1955.9375 78.71875 C 1955.8985 79.237687 1957.089 79.904082 1957.0625 80.25 C 1957.6079 81.16168 1958.1332 81.953638 1958.6875 82.75 C 1959.2551 83.373414 1959.8388 84.126587 1960.4062 84.75 C 1961.5592 85.76619 1962.7176 86.760198 1963.875 87.71875 C 1965.6217 89.0124 1967.3921 90.185413 1969.8125 90.71875 C 1971.5947 91.551173 1974.0127 92.116961 1975.8125 92.71875 C 1976.4198 92.823314 1976.9906 93.025327 1977.5938 93.1875 C 1978.8213 93.22348 1980.0801 93.212851 1981.9062 93.46875 C 1983.1121 93.793083 1984.924 94.056629 1986.75 94.3125 C 1988.5632 94.741333 1990.4149 94.79584 1991.625 95.0625 C 1992.8308 95.386837 1994.6156 95.997862 1995.8125 96.4375 C 1997.0225 96.704151 1998.2318 97.144426 1999.4375 97.46875 C 2001.2507 97.897591 2002.4594 98.185353 2003.6562 98.625 C 2007.8278 100.39434 2011.9842 102.26344 2015.5 104.5625 C 2020.2038 107.4165 2024.1788 111.56657 2026.9062 116.125 C 2027.4209 117.44026 2027.3649 118.34582 2027.875 119.71875 C 2028.3897 121.03402 2028.9005 122.47567 2029.4062 123.90625 C 2029.8368 126.31696 2029.6405 128.7202 2029.4688 130.96875 C 2029.8952 133.43714 2029.7254 135.74552 2030.1562 138.15625 C 2030.0902 139.02109 2030.0171 139.99458 2030.5625 140.90625 C 2031.0243 142.91339 2031.503 144.64429 2031.9688 146.59375 C 2031.9427 146.88184 2032.4997 147.50266 2032.4688 147.90625 C 2034.399 154.83933 2038.2226 161.28217 2043.9688 166.59375 L 2049.125 171.5625 L 2054.9062 176.34375 C 2060.1647 179.99414 2065.4528 183.4893 2071.4375 185.6875 C 2074.4298 186.78658 2078.6052 188.25705 2082.7812 189.96875 C 2109.6505 200.66778 2112.7539 208.35133 2122.25 212.90625 L 2123.5625 211.96875 C 2123.3945 214.15965 2123.9101 215.53496 2123.2812 215.71875 C 2121.349 216.84661 2103.6982 254.2315 2096.0312 274 C 2082.318 308.44171 2069.0247 321.54928 2048.75 321.15625 C 2041.7732 321.03773 2031.6061 325.23787 2022.375 331.375 C 2002.5004 331.70226 1982.6543 332.02411 1962.7812 332.4375 C 1943.1615 332.83206 1923.524 333.23861 1903.9062 333.71875 C 1883.2381 334.26289 1862.574 334.75458 1841.9062 335.3125 C 1828.8366 335.6499 1815.7558 336.02341 1802.6875 336.40625 C 1800.8211 332.7329 1798.8978 328.4489 1796.9062 323.5 C 1793.3439 313.77421 1787.9006 304.29964 1783.8438 301.03125 C 1774.0231 292.68191 1752.0655 282.7249 1748.2188 284.75 C 1743.7291 287.13183 1744.7279 289.8613 1755.125 298.71875 C 1764.9237 307.35637 1772.5128 320.64818 1770.8125 326.78125 C 1770.0285 328.98295 1770.9802 332.50261 1772.6562 334.71875 C 1773.4016 335.58688 1774.0721 336.41129 1774.6875 337.25 C 1731.5816 338.6066 1688.4698 340.07854 1645.375 341.75 C 1629.3502 342.41282 1613.3361 342.96181 1597.3125 343.65625 C 1578.209 344.44851 1559.1018 345.23463 1540 346.0625 C 1506.0459 347.60765 1472.0742 349.09944 1438.125 350.75 C 1434.4574 350.92495 1430.7924 351.10253 1427.125 351.28125 C 1426.8157 345.57809 1425.0852 338.38518 1422.0938 328.09375 C 1415.4602 304.46874 1415.4455 303.10871 1419.7812 294.6875 C 1422.2587 289.84236 1426.5686 284.49925 1429.0312 282.71875 C 1433.9562 279.27336 1468.3972 270.54913 1472.6875 271.4375 C 1476.3651 272.1494 1479.4229 267.46577 1480.6875 259.78125 C 1483.1944 248.92247 1480.775 246.89827 1459.9375 242.34375 C 1445.2286 239.14921 1429.8967 234.20331 1418.875 229.8125 L 1424.4062 228.0625 L 1449.5938 223.78125 C 1453.8921 222.99274 1458.8073 222.10736 1463.7188 221.4375 C 1468.0155 220.99593 1471.6858 219.90886 1475.375 218.25 C 1477.8349 217.04772 1479.6636 215.92888 1482.125 214.4375 C 1483.9713 213.23221 1484.6238 210.972 1483.4062 209 C 1482.8015 207.20447 1481.5777 205.71205 1479.125 205.46875 C 1476.6728 205.05197 1474.2086 205.61813 1471.75 206.53125 L 1474.25 201.53125 L 1476.0938 196.46875 L 1477.3438 191.21875 C 1478.6049 184.22812 1479.8916 177.02622 1479.3125 169.96875 L 1483 164.6875 C 1484.2339 163.30574 1484.8349 161.69879 1484.8438 159.90625 C 1485.466 158.11674 1484.2758 156.06535 1482.4375 155.59375 C 1480.6002 154.94869 1478.7534 155.24157 1476.9062 156.5625 L 1470.75 160.75 C 1468.2882 162.35705 1465.8334 163.55559 1463.375 164.46875 C 1462.4795 164.80137 1461.5826 165.09296 1460.6875 165.34375 L 1447.3438 182.15625 L 1453.4688 179.90625 L 1462.0625 176.9375 C 1463.2666 181.62721 1463.2606 186.33652 1462.625 190.84375 C 1461.3704 196.50444 1458.2961 201.90469 1454.5938 206.28125 C 1453.3615 207.37389 1451.4817 208.61207 1450.25 209.53125 C 1449.0203 210.10349 1447.7923 210.33402 1446.5625 210.90625 C 1445.9479 211.13454 1445.3332 211.39671 1444.7188 211.625 C 1444.1043 211.79547 1444.1255 211.85311 1444.125 211.96875 L 1441.6562 211.84375 C 1441.6662 210.05123 1441.6704 208.32246 1442.9062 206.59375 C 1444.1445 204.28681 1445.3934 201.69111 1445.4062 199.03125 L 1445.4375 197 C 1444.8289 195.95618 1444.1938 195.41077 1442.9688 195 C 1441.1302 194.58621 1439.3124 194.52919 1437.4688 195.15625 C 1436.8544 195.32673 1436.8333 195.57954 1436.2188 195.75 C 1433.7595 196.83664 1432.5371 198.28365 1430.6875 200.125 C 1428.8389 201.79287 1426.9754 203.67269 1425.125 205.6875 C 1423.8881 207.70531 1422.6429 209.665 1421.4062 211.625 L 1420.1875 213.65625 C 1413.422 217.09262 1406.6707 219.41531 1398.6875 220.9375 L 1393.75 221.875 L 1390.0938 222.34375 C 1390.1037 220.89816 1390.0984 219.08948 1390.7188 217.53125 C 1391.3414 215.62608 1391.9526 213.61306 1393.1875 212 C 1394.4257 209.69307 1396.9007 207.43976 1398.75 205.65625 C 1401.8299 203.12704 1404.8928 201.06344 1407.9688 199.34375 C 1414.1201 196.02002 1420.2881 193.01271 1426.4375 190.09375 L 1430.125 188.5625 L 1433.2188 187.34375 L 1439.3438 185.03125 L 1445.9688 182.65625 L 1459.4062 165.65625 C 1458.8827 165.78023 1458.3671 165.90401 1457.8438 166 L 1460.3125 162.375 L 1462.1562 157.0625 L 1464.6562 149.71875 L 1465.9062 146.21875 C 1465.9162 144.42623 1465.3363 142.62168 1463.5 141.6875 C 1462.2762 141.04544 1460.4184 141.22771 1459.1875 142.03125 C 1457.3415 143.12089 1456.1106 144.5838 1454.875 146.3125 C 1453.0222 148.84772 1451.7595 151.46945 1449.9062 154.0625 C 1448.666 156.83201 1446.2263 159.3164 1444.375 161.5625 C 1440.0609 165.5313 1436.9792 168.67363 1433.2812 172.125 C 1430.8157 174.48376 1427.1143 177.26762 1422.8125 178.75 C 1422.8125 178.9234 1422.1756 179.09209 1421.5625 179.03125 C 1419.7186 179.71613 1417.8767 179.11248 1416.6562 177.71875 C 1416.045 177.25316 1415.466 176.60947 1415.4688 176.03125 C 1414.859 175.27654 1414.8519 174.58308 1415.4688 173.71875 C 1415.4817 171.05887 1415.4717 168.22539 1414.875 165.5625 C 1414.2762 162.55268 1413.0792 159.82195 1411.25 157.5 C 1409.4194 155.46716 1406.3518 155.41479 1404.5 157.71875 C 1403.8811 158.81439 1403.2574 160.5591 1403.25 162.0625 C 1403.8222 170.50773 1403.7892 178.75316 1403.75 186.90625 L 1373.625 197.21875 L 1369.3438 194.5625 L 1362.0312 188.84375 C 1356.5323 184.19084 1351.0171 178.9424 1346.75 173.3125 C 1343.7016 169.36549 1341.2561 165.08173 1339.4375 160.5625 C 1338.826 160.15472 1338.8309 159.85462 1338.2188 159.5625 C 1337.0077 156.31837 1336.4216 153.17562 1336.4375 149.9375 C 1336.4535 146.58374 1336.4889 143.09623 1338.3438 140.15625 C 1339.5827 137.73367 1340.7939 135.28972 1342.0312 133.15625 C 1344.5016 129.81451 1347.0014 126.67444 1349.4688 123.96875 C 1352.5494 121.20824 1356.2177 119.19946 1359.9062 117.65625 C 1362.3672 116.2805 1366.0499 114.73371 1369.125 113.1875 C 1371.5838 112.21651 1372.8445 111.8239 1374.6875 111.3125 C 1377.1461 110.39933 1378.9804 109.59279 1381.4375 108.96875 C 1385.7362 108.12241 1389.4065 107.09785 1393.0938 105.84375 L 1398.625 104.53125 C 1401.0828 103.79154 1403.5247 102.13981 1405.375 100.125 C 1406.6093 98.6276 1407.2499 96.776641 1406.0312 95.09375 C 1405.4282 92.893457 1402.9833 91.260531 1400.5312 90.84375 C 1398.0799 90.311332 1395.6124 90.075981 1393.1562 90.46875 C 1390.0872 90.858486 1387.6328 91.655536 1384.5625 92.21875 L 1366.7188 84.6875 L 1352.7188 102.34375 C 1353.2302 102.72854 1353.2051 103.54353 1352.625 104.03125 C 1350.1603 106.21653 1347.6821 108.22884 1345.2188 110.125 C 1342.7568 111.78987 1340.3039 113.17741 1337.8438 114.4375 C 1337.2288 114.72362 1336.6328 115.18884 1335.4062 115.125 C 1332.3381 115.2257 1329.8505 115.35557 1326.7812 115.6875 C 1326.1681 115.6266 1324.9584 115.49072 1324.3438 115.71875 L 1324.3438 116.3125 C 1322.5006 116.88172 1321.2452 117.70899 1320.625 119.09375 C 1320.0091 119.55333 1320.0344 119.98894 1320.0312 120.625 C 1320.0312 121.26107 1320.6393 122.32502 1321.25 122.90625 C 1321.25 123.02185 1320.625 123.1875 1320.625 123.1875 C 1321.2324 124.46262 1322.4561 125.55141 1323.0625 127 C 1323.6712 127.986 1323.6609 129.07949 1323.6562 130.0625 L 1323.6562 132.125 C 1323.6463 133.62839 1323.027 135.53083 1322.4062 137.03125 C 1321.1573 141.53547 1320.5037 146.13514 1321.0938 150.9375 L 1321.0938 153.78125 C 1318.0302 152.95672 1315.5607 152.05904 1312.5 150.65625 C 1311.277 149.84072 1309.4742 148.86548 1308.25 148.28125 C 1307.0249 147.92829 1305.7916 147.66841 1304.5625 148.125 C 1302.7185 148.80986 1300.8342 150.66536 1301.4375 152.75 C 1301.4375 153.55954 1301.4567 154.77186 1302.0625 155.46875 C 1302.0625 156.047 1302.6588 156.29208 1302.6562 156.8125 C 1303.8764 158.26409 1305.1208 159.24696 1306.3438 160.0625 C 1309.4029 161.81222 1311.8487 163.80492 1314.9062 165.84375 C 1317.3507 167.82177 1320.4005 169.91569 1322.8438 172.125 C 1328.3456 176.14185 1333.2285 180.54996 1337.5 185.3125 C 1340.553 188.27653 1343.0099 191.54533 1346.0625 194.625 L 1350.3125 198.25 L 1349.7188 198.5 C 1338.0707 196.70823 1327.0247 193.87507 1316 190.0625 C 1311.713 188.53806 1308.0456 186.71999 1304.375 184.5625 C 1300.0937 181.82378 1295.8192 178.59371 1292.1562 174.875 C 1289.1029 171.96879 1286.6365 168.70652 1284.8125 165.34375 C 1284.2042 164.2421 1283.6079 163.03446 1283 161.875 C 1281.7917 158.05263 1281.1986 153.75704 1281.2188 149.59375 C 1280.645 141.49547 1283.153 133.71475 1288.0938 127.03125 C 1291.1825 122.70951 1295.4729 118.90607 1299.7812 116.09375 C 1304.7042 113.05312 1309.6254 110.34522 1315.1562 108.40625 C 1316.3863 107.83402 1318.2393 107.2644 1319.4688 106.75 C 1324.3846 105.15497 1328.7114 103.7262 1333.625 102.59375 C 1334.8525 102.48407 1335.4488 102.30482 1336.0625 102.25 C 1337.2905 102.08252 1337.9283 102.10028 1339.1562 101.875 C 1339.1562 101.875 1340.3556 101.93913 1340.9688 102 C 1342.8096 101.9512 1344.6693 101.58492 1347.125 101.25 C 1347.4319 101.2226 1347.6884 101.16405 1347.9375 101.15625 C 1348.6855 101.13285 1349.2366 101.18998 1350.1562 101.28125 C 1350.6164 101.32685 1351.429 101.56011 1352.0625 101.90625 L 1352.0938 101.90625 L 1365.9688 84.375 L 1364.9688 83.96875 L 1366.2188 79.65625 C 1367.4693 74.862915 1368.7256 69.811887 1368.75 64.78125 C 1368.76 62.930896 1366.9413 61.368677 1365.7188 60.4375 C 1364.4952 59.737605 1362.6679 59.780906 1361.4375 60.46875 C 1359.5947 60.980144 1358.3382 61.949642 1357.7188 63.21875 C 1357.0966 64.95045 1356.4659 66.862043 1355.8438 68.59375 C 1355.2185 71.019326 1353.9871 73.205607 1352.75 75.28125 C 1352.1263 77.359891 1350.9233 79.150978 1349.6875 80.9375 C 1349.0684 82.090967 1347.8064 83.37311 1347.1875 84.46875 L 1345.3438 84.40625 L 1342.2812 84.90625 L 1333.0625 87.4375 L 1323.8438 90.3125 L 1312.8125 93.25 C 1309.1258 94.388446 1305.4406 94.79478 1302.375 94.375 L 1300.5312 92.53125 C 1299.31 91.368778 1298.6819 90.125226 1298.6875 88.96875 C 1298.6975 88.679571 1298.0922 88.601624 1298.0938 88.3125 C 1297.4869 86.921737 1297.4823 85.650123 1296.875 84.375 L 1296.9062 79.96875 C 1296.9162 78.754455 1296.9133 77.542491 1297.5312 76.5625 C 1297.5312 76.042106 1298.1548 75.351624 1298.1562 75.0625 C 1298.7725 74.487268 1299.3824 73.989343 1300 73.125 C 1300.6182 72.202822 1301.8513 70.994025 1302.4688 70.1875 C 1303.699 69.499626 1304.945 68.681534 1305.5625 67.875 L 1310.4688 63.9375 L 1314.1875 60.9375 C 1316.0356 59.385272 1317.8572 57.491238 1319.0938 55.53125 C 1320.3265 54.380787 1320.3494 53.367543 1320.9688 52.15625 C 1321.5883 50.944957 1321.6075 49.279802 1321 48.0625 C 1319.1708 45.740556 1316.1055 44.877257 1313.0312 46.25 C 1306.8816 49.226795 1301.9618 52.898147 1297.0312 57.5 C 1297.0213 57.731384 1296.396 58.11546 1295.7812 58.34375 C 1295.1672 58.456364 1295.1768 58.298212 1294.5625 58.46875 C 1292.1081 58.5146 1289.6541 57.332967 1288.4375 55.1875 C 1287.8303 53.912376 1287.2323 52.587622 1286.625 51.3125 C 1286.625 51.196893 1285.9994 51.146895 1286 51.03125 C 1285.3939 49.524831 1285.3986 48.12374 1285.4062 46.5625 C 1286.0249 45.524689 1286.0182 44.101988 1287.25 43.125 C 1287.8715 41.508939 1289.1405 40.117723 1290.375 38.5625 C 1292.8412 36.088102 1294.6964 33.322667 1295.9375 30.4375 C 1296.5569 29.226208 1296.545 28.070399 1295.9375 26.96875 C 1295.3286 25.982743 1294.1103 25.103133 1293.5 24.40625 C 1292.8885 23.998485 1291.6448 24.002997 1291.0312 24 L 1291.0625 23.96875 C 1290.756 23.95279 1290.4318 23.96126 1290.125 23.96875 C 1289.2047 23.99138 1288.2656 24.138454 1287.3438 24.4375 C 1286.7281 24.897083 1286.1476 25.39351 1285.5312 25.96875 C 1284.3004 26.714445 1283.6493 27.765331 1283.0312 28.6875 C 1281.18 30.875791 1279.3349 32.641468 1276.875 33.84375 L 1276.25 33.375 L 1275.6562 32.71875 C 1275.0454 32.137511 1274.4341 31.412641 1274.4375 30.71875 C 1272.6095 28.165508 1270.1869 26.483986 1267.125 25.3125 C 1266.5131 24.962554 1264.6457 24.927953 1264.0312 25.15625 C 1263.4173 25.21104 1263.4269 25.141953 1262.8125 25.3125 C 1261.5832 25.769081 1260.3692 26.721536 1259.75 27.875 C 1259.1334 28.508056 1259.129 29.284216 1259.125 30.09375 C 1259.73 31.889278 1259.7071 33.195114 1260.3125 34.875 L 1263.9375 43.34375 L 1263.9688 44.3125 C 1264.5762 45.587621 1265.174 47.099888 1265.7812 48.375 C 1267.6034 52.142541 1270.6564 55.638903 1273.0938 59.0625 C 1275.5298 62.717399 1277.9488 66.19167 1279.1562 70.1875 C 1279.7635 71.462624 1280.3815 73.07632 1280.375 74.40625 C 1280.9812 75.912667 1281.5702 77.720025 1281.5625 79.28125 C 1281.5445 82.981959 1282.1398 85.649417 1282.125 88.65625 L 1282.125 89.15625 C 1282.115 91.006603 1282.7293 93.208961 1282.7188 95.40625 C 1283.3267 96.507903 1283.9416 97.096709 1283.9375 97.90625 C 1284.5432 99.470483 1284.5185 101.33266 1285.125 102.78125 C 1285.7355 103.42031 1285.7643 103.82502 1286.375 104.40625 L 1283.9062 107.375 C 1283.2876 108.41282 1282.6678 109.46838 1281.4375 110.15625 C 1280.2044 111.36454 1279.5449 112.46986 1278.3125 113.5625 C 1277.0798 114.77078 1275.8459 115.97287 1274 117.0625 C 1273.3848 117.40645 1272.8024 118.02639 1272.1875 118.3125 C 1270.9588 118.65344 1269.7265 118.87634 1268.5 118.8125 C 1266.6587 118.91915 1265.4314 118.71224 1263.5938 118.125 C 1261.7559 117.59558 1259.9116 117.17798 1258.6875 116.59375 C 1258.6875 116.59375 1258.0812 116.23429 1257.4688 116 C 1256.8573 115.59223 1255.6114 115.40309 1255 114.9375 C 1254.3885 114.52973 1253.7875 114.06703 1252.5625 113.65625 C 1251.952 113.0172 1250.735 112.32189 1250.125 111.625 C 1248.9028 110.63599 1247.7038 110.04064 1247.0938 109.34375 C 1247.1037 109.11236 1245.8591 108.37036 1245.25 107.5 C 1243.416 106.16106 1242.1573 104.98285 1240.9375 103.53125 C 1238.4996 100.16548 1235.4769 96.275406 1233.6562 92.21875 C 1233.6562 91.640513 1233.0473 90.785958 1232.4375 90.03125 C 1232.4475 88.990423 1232.4193 88.293828 1231.8125 87.25 C 1231.2131 84.355815 1230.0248 81.575334 1228.8125 78.5625 C 1228.2055 77.229563 1227.598 76.065536 1226.375 75.25 C 1226.375 74.556129 1225.7672 74.085924 1225.1562 73.5625 C 1224.5476 72.576507 1223.9113 71.699882 1222.6875 71 C 1222.0776 70.303111 1220.8925 69.559351 1220.2812 69.09375 C 1219.0575 68.393866 1218.4464 68.327852 1217.2188 68.4375 C 1216.6055 68.37662 1216.5828 68.449658 1215.9688 68.5625 C 1215.9588 68.85167 1215.3641 69.074856 1214.75 69.1875 C 1214.75 69.534476 1214.127 69.751486 1214.125 70.15625 C 1214.115 71.139264 1213.5014 71.492127 1213.5 71.78125 L 1213.5 72.875 C 1213.49 73.973639 1213.4862 75.001455 1214.0938 76.21875 C 1215.2992 80.677162 1216.5253 85.199517 1218.3438 89.71875 L 1220.125 95 C 1220.7321 96.332935 1220.7146 98.129265 1220.0938 99.6875 C 1220.0938 100.15009 1219.5025 100.66709 1219.5 101.1875 C 1218.8839 101.70491 1218.2398 102.33421 1217.625 102.5625 C 1216.3967 102.8456 1215.8328 102.88735 1215.2188 103 C 1213.9921 102.9362 1212.7261 102.99192 1211.5 102.8125 C 1209.6607 102.5722 1208.4313 101.98882 1206.5938 101.34375 C 1203.5325 100.05661 1200.4964 98.905971 1197.4375 97.15625 C 1194.9897 95.872124 1191.9189 94.634037 1189.4688 93.8125 C 1188.857 93.520374 1188.2396 93.521718 1187.625 93.75 C 1187.0098 94.093946 1186.4277 94.531053 1185.8125 94.875 C 1185.8025 95.164179 1185.19 95.323335 1185.1875 95.84375 L 1185.1562 98.09375 C 1185.1562 98.903277 1185.1403 99.557802 1185.75 100.3125 L 1185.75 100.90625 C 1186.3598 101.66097 1186.3599 102.44682 1186.9688 103.375 L 1186.9688 103.71875 C 1186.9688 104.18133 1186.9467 104.561 1187.5625 104.96875 C 1187.5625 105.48915 1188.7829 106.05932 1188.7812 106.40625 C 1189.3905 107.27661 1190.0152 108.02655 1190.625 108.78125 C 1191.2357 109.36249 1191.8268 110.07501 1192.4375 110.65625 C 1193.66 111.58743 1194.9021 112.50164 1196.125 113.375 C 1197.9598 114.54047 1199.7976 115.57856 1202.25 115.9375 C 1204.0871 116.6404 1206.5368 116.99716 1208.375 117.46875 C 1208.9883 117.52965 1209.6055 117.7251 1210.2188 117.84375 C 1211.4458 117.79185 1212.6914 117.68783 1214.5312 117.8125 C 1215.7573 118.04979 1217.5666 118.15657 1219.4062 118.28125 C 1221.2456 118.57936 1223.0864 118.53928 1224.3125 118.71875 C 1225.5385 118.95606 1227.3998 119.42831 1228.625 119.78125 C 1229.851 119.96073 1231.0554 120.3252 1232.2812 120.5625 C 1234.1204 120.86063 1235.3372 121.02205 1236.5625 121.375 C 1240.8499 122.8416 1245.1413 124.42691 1248.8125 126.46875 C 1253.7083 128.97918 1257.985 132.83572 1261.0312 137.1875 C 1261.6387 138.46261 1261.643 139.3858 1262.25 140.71875 C 1262.8573 141.99386 1263.487 143.39048 1264.0938 144.78125 C 1264.6956 147.155 1264.6672 149.55739 1264.6562 151.8125 C 1265.2579 154.24409 1265.2418 156.56373 1265.8438 158.9375 C 1265.8438 159.80485 1265.8318 160.7859 1266.4375 161.65625 C 1267.0416 163.62525 1267.646 165.30757 1268.25 167.21875 C 1268.24 167.50793 1268.8457 168.06398 1268.8438 168.46875 C 1271.2647 175.24611 1275.545 181.42529 1281.6562 186.3125 L 1287.1562 190.90625 L 1293.25 195.28125 C 1298.7559 198.5464 1304.2798 201.6415 1310.4062 203.40625 C 1313.4695 204.28861 1317.7435 205.43497 1322.0312 206.84375 C 1349.5966 215.5946 1353.265 223.04184 1363.0625 226.90625 L 1364.3125 225.875 C 1364.3015 228.0723 1364.8643 229.39672 1364.25 229.625 C 1362.4033 230.88811 1347.5153 269.45274 1341.2812 289.71875 C 1330.0654 325.05266 1317.7197 339.06763 1297.4688 340.125 C 1288.0704 340.63831 1273.4546 349.38491 1263.2812 359.875 C 1249.9729 360.6408 1236.6549 361.40844 1223.3438 362.125 C 1202.1318 363.3086 1180.9285 364.68385 1159.7188 365.90625 C 1134.6907 367.45772 1109.6798 368.96906 1084.6562 370.59375 C 1074.0973 371.27063 1063.5271 371.96896 1052.9688 372.65625 C 1050.8961 369.18814 1048.7153 365.13481 1046.4375 360.46875 C 1042.1889 351.02251 1036.0927 341.97001 1031.8125 339 C 1021.4201 331.37408 998.78588 323.01758 995.09375 325.3125 C 990.7859 328.00918 991.99622 330.65849 1003 338.75 C 1013.3911 346.66504 1021.9136 359.35482 1020.6562 365.59375 C 1020.0316 367.84586 1021.2322 371.3156 1023.0625 373.40625 C 1023.4405 373.78765 1023.7761 374.15545 1024.125 374.53125 C 1007.5617 375.62841 990.99805 376.73631 974.4375 377.875 C 942.80825 380.02414 911.21184 382.25501 879.59375 384.5625 C 838.66598 387.47498 797.74808 390.65229 756.84375 393.875 C 732.99123 395.68012 709.14985 397.69451 685.3125 399.6875 C 679.86685 400.16459 674.40027 400.57389 668.96875 401.09375 C 668.41871 401.23209 668.26374 401.91381 667.625 401.75 C 663.86797 401.85909 660.10035 402.16092 656.34375 402.34375 C 644.60714 403.13919 632.88887 404.05473 621.15625 404.90625 C 603.29581 406.3346 585.42815 407.86761 567.59375 409.59375 C 553.95599 410.99286 540.31197 412.4332 526.71875 414.21875 C 520.94207 415.03401 515.16903 415.77363 509.46875 417.03125 C 508.11416 417.41479 506.64031 417.6485 505.40625 418.3125 C 504.95472 418.84381 505.13022 419.71345 505.78125 419.96875 C 506.58 420.50368 507.81725 420.91037 507.78125 422.0625 C 507.81345 423.10421 506.95849 424.01462 506.4375 424.71875 C 505.80024 425.6009 504.7443 426.04871 503.84375 426.71875 C 501.18329 428.53875 497.97007 429.89427 494.6875 429.5 C 493.44987 429.29184 492.30414 428.67496 491.4375 427.78125 C 490.97276 427.1657 490.44164 426.34308 490.25 425.5 C 489.56703 423.39008 489.73064 421.04977 488.65625 419.0625 C 487.64312 417.14175 485.97393 415.67218 484.3125 414.34375 C 481.93552 412.89804 479.10451 412.15494 476.3125 412.28125 C 473.62329 412.42894 470.89984 412.20538 468.34375 411.3125 C 462.66221 409.54506 457.82993 405.93338 453.125 402.40625 C 452.16464 401.67233 451.13765 400.65665 450.1875 399.78125 C 448.23417 397.87428 446.304 395.944 444.59375 393.8125 C 443.79945 392.6448 442.76399 391.38013 441.90625 390.15625 C 440.12506 387.64406 438.41704 385.06679 437.0625 382.3125 C 435.11539 378.33101 433.74268 373.8832 434.15625 369.40625 C 434.64238 365.85145 434.30443 362.06896 432.59375 358.875 C 431.72299 357.75978 430.75673 356.49359 429.3125 356.125 C 427.95933 355.90311 426.411 356.20022 425.28125 355.25 C 423.59052 354.32 422.70082 352.49995 421.8125 350.875 C 420.52436 348.24963 420.07323 345.34278 419.75 342.46875 C 419.12166 339.47544 417.64443 336.7059 415.59375 334.46875 C 413.31649 331.88108 410.70466 329.5273 407.96875 327.46875 C 404.20814 324.80249 399.94474 322.92151 395.53125 321.625 C 390.32436 320.29909 384.96471 319.16293 379.5625 319.34375 C 374.69585 319.51553 369.91961 320.79779 365.4375 322.65625 C 357.91706 325.8585 350.95343 330.17435 344 334.4375 C 339.72635 337.10117 335.5809 339.95438 331.59375 343.03125 C 329.15023 345.1719 326.46744 347.15896 324.40625 349.71875 C 323.78334 350.55123 322.99792 351.38963 322.09375 352.0625 C 321.02951 352.80674 319.83347 353.72742 318.6875 354.5 C 315.39978 356.7403 311.88366 358.61251 308.34375 360.40625 C 307.66361 360.90114 307.01246 361.81701 307.5 362.65625 C 308.5941 364.12644 310.61603 364.12594 312.28125 364.375 C 318.13312 365.07964 324.03493 364.57691 329.90625 364.5 C 335.70059 364.4734 341.65854 364.63587 347.15625 366.65625 C 348.91739 367.31731 350.53809 368.27408 352 369.46875 C 352.46616 369.8076 353.13319 370.32621 353.40625 370.875 C 354.93666 372.9431 356.06331 375.31824 356.46875 377.875 C 357.26531 382.31164 356.71131 386.8542 356.125 391.28125 C 355.5012 395.11928 354.8416 399.01503 353.34375 402.625 C 352.72294 403.92762 351.84737 405.23134 351.0625 406.34375 C 350.19636 407.37864 348.91999 408.0497 347.78125 408.78125 C 343.98609 410.83683 339.59651 411.2897 335.375 411.8125 C 328.71613 412.50283 322.0302 412.56259 315.34375 412.6875 C 306.23988 412.90258 297.12191 413.5088 288.09375 414.71875 C 278.17493 415.99525 268.36135 418.13149 258.875 421.3125 C 252.03019 423.70543 245.31716 426.60971 239.125 430.375 C 236.73976 431.84496 234.42384 433.38896 232.3125 435.21875 C 228.61003 438.26057 225.29987 441.75176 222.28125 445.46875 C 220.21256 447.92376 218.77677 450.87758 216.90625 453.5 C 215.87037 455.15977 214.49906 456.75899 213.375 458.25 C 212.21173 459.47371 211.03892 460.5945 209.71875 461.5625 C 207.34123 463.24934 204.86145 464.98492 201.9375 465.53125 C 199.67941 466.0932 197.37726 465.50423 195.1875 464.9375 C 192.53237 464.31915 189.79642 463.60029 187.0625 464 C 185.76594 464.29598 184.67187 465.55579 184.78125 466.9375 C 184.71855 469.84756 186.11941 472.5111 187.15625 475.15625 C 188.3906 477.91482 189.74501 480.63425 191.125 483.3125 C 192.41546 485.32077 194.16469 487.02153 196.0625 488.4375 C 198.51262 489.83655 201.82039 489.90891 204.125 488.15625 C 206.73908 486.74863 209.83403 487.11029 212.6875 487.3125 C 217.64165 487.78773 222.26677 489.80232 226.6875 491.96875 C 229.02391 493.0515 231.31848 494.33501 233.5 495.625 C 233.64928 496.11474 232.83535 496.12151 232.5 496.25 C 229.00519 497.20838 225.24206 496.84535 221.84375 498.21875 C 218.86346 499.26916 215.96822 500.75468 213.75 503.03125 C 212.4295 504.21712 211.21769 505.55239 210.21875 507 C 208.64701 509.68072 207.75552 512.88591 208.25 516 C 208.5121 517.02173 208.973 517.91775 209.71875 518.5625 C 211.5455 520.17956 214.13059 520.61468 216.5 520.875 C 222.75242 521.56259 229.0205 520.6365 235.28125 520.6875 C 240.1962 520.7766 245.20338 521.60987 249.59375 523.90625 C 251.38583 524.85296 253.06206 526.00301 254.65625 527.25 C 255.79061 528.05818 256.96632 529.17906 257.875 530.34375 C 258.75265 531.5464 259.78307 532.91069 260.65625 534.21875 C 262.93616 537.67954 264.90489 541.33117 266.4375 545.1875 C 269.8518 553.36159 272.15943 561.94851 274.40625 570.5 C 276.19336 577.45601 277.532 584.50321 279.40625 591.4375 C 280.99678 597.32328 282.96099 603.11899 285.375 608.71875 C 287.21998 613.08797 289.41419 617.31521 291.6875 621.46875 C 294.52025 626.2503 297.59573 630.92654 301.375 635 C 303.76434 637.87766 306.42184 640.51959 309.21875 643 C 311.81267 645.34953 314.52385 647.55071 317.625 649.21875 C 322.73369 651.96301 328.32904 654.14112 334.1875 654.40625 C 336.76704 654.67523 339.35947 654.31201 341.9375 654.28125 C 344.10785 654.37565 346.32232 654.95291 348.03125 656.34375 C 348.57183 656.70007 348.91054 657.53726 349.25 658.15625 C 350.06622 659.75449 349.71572 661.63715 349.34375 663.3125 C 348.61812 665.92401 347.4214 668.38297 345.96875 670.65625 C 344.10218 673.6169 341.89142 676.33786 339.78125 679.125 C 338.96868 680.1948 337.86492 681.32216 336.9375 682.40625 C 334.35961 685.37186 331.87454 688.39817 329.75 691.71875 C 326.30112 696.745 323.39725 702.12236 321.0625 707.75 C 320.65186 708.91594 320.20047 710.08253 319.65625 711.1875 C 319.75045 711.7354 319.00045 711.74473 318.875 712.21875 C 318.22892 713.16643 317.64497 714.2132 316.71875 714.8125 C 314.10116 716.81932 311.27312 718.58918 308.1875 719.78125 C 303.13208 721.71752 297.78422 722.79465 292.40625 723.3125 C 285.69974 723.89542 278.91668 723.68824 272.28125 722.53125 C 266.25902 721.37082 260.20581 719.68129 254.96875 716.40625 C 253.14482 715.27991 251.35803 713.98963 249.75 712.6875 C 248.34689 711.34089 246.98022 709.94713 245.75 708.4375 C 245.53388 708.00374 244.96682 707.551 244.71875 707.09375 C 243.5231 705.24163 242.07805 703.4849 241 701.53125 C 238.05921 696.73798 236.1864 691.26697 235.6875 685.65625 C 235.3177 681.10909 236.0297 676.28859 238.59375 672.4375 C 239.4179 671.24776 240.21507 670.0215 241.34375 669.21875 C 243.65065 667.42087 246.35776 666.12571 249.25 665.625 C 255.1381 664.19966 261.20723 663.24483 267.28125 663.5 C 271.3634 663.70496 275.48619 664.43144 279.15625 666.28125 C 280.66707 667.08237 282.10814 668.09032 283.40625 669.21875 C 284.0859 670.31503 285.12744 671.44119 285.59375 672.75 C 286.72058 675.42247 286.60759 678.39725 286.0625 681.1875 C 285.54473 684.64128 285.30074 688.27712 286.34375 691.65625 C 286.64363 692.61205 287.06325 693.56183 287.875 694.15625 C 288.30457 694.57984 289.16582 694.70507 289.84375 694.6875 C 292.69267 694.575 295.68175 694.00351 298 692.25 C 299.22728 691.13629 300.36927 689.79999 300.75 688.125 C 301.58867 685.05756 301.10987 681.79727 300.28125 678.78125 C 299.18416 675.1145 297.42881 671.68491 295.65625 668.3125 C 294.0582 665.23311 292.0275 662.42322 289.625 659.9375 C 287.2028 657.46379 284.53252 655.0913 281.28125 653.78125 C 277.13839 651.88242 272.5723 651.06693 268.03125 651.0625 C 263.30767 651.0502 258.58004 651.59103 253.9375 652.4375 C 248.61533 653.44892 243.35605 655.31951 238.9375 658.5 C 236.85617 660.2569 234.85053 662.18001 233.15625 664.34375 C 231.42908 666.40166 230.40678 668.98382 229.40625 671.46875 C 227.65005 676.23565 226.92414 681.31599 226.75 686.375 C 226.57162 691.7229 227.08421 697.07796 227.78125 702.375 C 228.49883 707.03393 229.77547 711.71255 232.375 715.6875 C 234.41186 718.43438 237.01589 720.79667 239.71875 722.875 C 243.16678 725.23166 247.0298 726.9135 250.8125 728.65625 C 255.5709 730.71431 260.51064 732.38184 265.625 733.28125 C 268.65789 733.8358 271.72522 734.22351 274.78125 734.625 C 280.94235 735.35605 287.14448 735.70492 293.34375 735.90625 C 306.29792 736.29855 319.25287 735.89373 332.1875 735.15625 C 343.56275 734.52563 354.91195 733.57664 366.25 732.46875 C 380.32887 731.06199 394.38861 729.52575 408.40625 727.59375 C 416.65159 726.51584 424.90185 725.42542 433.125 724.1875 C 446.59663 722.24307 460.04037 720.15771 473.46875 717.9375 C 483.71067 716.22871 493.96715 714.53906 504.125 712.375 C 511.63235 710.85005 519.11718 709.17843 526.5625 707.375 C 537.94568 704.66858 549.2575 701.69205 560.53125 698.5625 C 578.84761 693.33339 597.1157 687.93487 615.15625 681.8125 C 627.06723 677.80956 638.88938 673.52891 650.5625 668.875 C 659.85348 665.19251 669.06836 661.30639 677.9375 656.6875 C 681.34531 654.91366 684.81111 653.08362 687.875 650.78125 C 688.98166 650.00739 690.05922 648.90097 691.125 647.9375 C 692.65948 646.45085 694.1245 644.82381 695.84375 643.65625 C 698.71942 641.50336 701.58456 639.32743 704.625 637.40625 C 708.1962 635.0878 711.93939 633.02605 715.75 631.15625 C 717.55256 630.01963 719.00698 628.4534 720.53125 626.96875 C 722.84502 624.46648 725.07097 621.90401 727 619.09375 C 731.38472 612.63909 734.82455 605.59212 737.53125 598.28125 C 739.08342 594.15644 740.40486 589.96151 741.59375 585.71875 C 743.18137 580.07213 744.04092 574.1834 743.8125 568.3125 C 743.56845 563.09893 742.2736 557.97378 740.5625 553.0625 C 738.71147 547.66417 736.45662 542.41233 734.03125 537.25 C 731.80611 532.80297 729.27371 528.50016 726.21875 524.5625 C 723.99576 521.82062 721.71643 519.05745 719.21875 516.53125 C 715.82248 512.92307 711.98064 509.72413 708.125 506.65625 C 704.10048 503.74507 699.8084 501.22136 695.25 499.25 C 689.86062 496.9101 684.10114 495.22386 678.21875 494.8125 C 673.38154 494.36013 668.51143 495.13089 663.9375 496.71875 C 655.95659 499.31129 648.25692 502.78432 640.84375 506.6875 C 638.18426 508.04269 635.62968 509.57492 632.9375 510.875 C 628.51456 512.8894 623.75707 514.37627 618.875 514.59375 C 613.89613 514.75559 608.91068 513.44156 604.59375 511 C 602.29868 509.63376 600.11928 508.04136 598 506.40625 C 597.01356 505.70152 595.98541 504.6877 595.0625 503.78125 C 593.19648 501.97989 591.50788 500.02165 589.8125 498.0625 C 589.049 496.98407 588.0784 495.79032 587.25 494.65625 C 583.96289 490.23838 580.81243 485.68448 578.1875 480.84375 C 576.52542 477.70372 575.11992 474.29851 574.90625 470.71875 C 574.81945 469.46241 575.04233 468.04358 575.90625 467.1875 C 576.61664 466.42387 577.9416 466.26509 578.96875 466.625 C 581.28997 467.21886 583.18914 468.80855 585.125 470.15625 C 586.62432 471.14091 587.91775 472.58496 589.21875 473.90625 C 591.83067 476.65136 594.36625 479.48655 597.375 481.8125 C 599.40271 483.30138 602.34311 483.99843 604.6875 482.75 C 606.0214 481.77218 607.14434 480.45076 608.0625 479.0625 C 609.71976 476.22125 610.12324 472.7181 609.375 469.53125 C 608.64954 466.62027 607.16172 463.91694 605 461.84375 C 602.60527 459.33527 599.96709 456.99177 596.78125 455.5625 C 592.22919 453.40704 587.11094 452.20934 582.0625 452.71875 C 578.08299 453.10987 574.32655 454.71718 571 456.875 C 568.11596 458.97415 565.51577 461.48803 563.03125 464.0625 C 560.58187 466.76993 558.11131 469.51923 556.53125 472.84375 C 554.7769 476.29418 553.17753 479.85888 550.84375 482.96875 C 550.09304 483.99578 549.4454 485.11876 548.5 485.84375 C 547.78027 486.38441 547.12346 486.85132 546.3125 487.3125 C 544.03874 488.72682 541.20993 489.03171 538.625 488.40625 C 533.4208 487.26484 528.87836 484.31396 524.4375 481.5 C 517.52921 477.02853 511.07372 471.91592 504.53125 466.9375 C 503.46203 466.09677 502.2997 464.99288 501.28125 463.96875 C 500.3426 463.07158 499.79053 462.00814 499.03125 460.9375 C 498.08557 459.53129 497.58026 457.65615 498.40625 456.0625 C 498.9514 454.7419 499.9294 453.59762 500.75 452.53125 C 502.03723 451.27765 503.3765 450.10037 504.8125 449.125 C 505.97633 448.35947 506.95557 447.59162 508.125 446.8125 C 515.0071 442.13659 522.20907 437.95468 529.28125 433.59375 C 534.35741 430.9262 539.98936 429.5531 545.5 428.09375 C 555.89304 425.4378 566.43221 423.52272 577.03125 421.90625 C 585.44397 420.58769 593.9019 419.61559 602.375 418.78125 C 613.80264 417.78477 625.25137 416.69994 636.65625 415.46875 C 645.12423 414.56173 653.58095 413.52705 662.03125 412.46875 C 671.5839 411.11575 681.20938 410.52596 690.8125 409.65625 C 703.02007 408.63716 715.22932 407.60535 727.4375 406.59375 C 750.89589 404.64315 774.34241 402.80365 797.8125 401 C 829.34192 398.57175 860.89348 396.1385 892.4375 393.90625 C 921.63025 391.79443 950.80119 389.71383 980 387.6875 C 996.66074 386.54005 1013.3361 385.44513 1030 384.34375 C 1031.6072 390.40606 1030.3354 397.89449 1026.5625 410.125 C 1020.3358 428.8876 1020.9762 429.51482 1025.1875 446.59375 C 1031.2138 468.88583 1029.2917 479.27575 1017.5938 487.71875 C 1008.361 493.86081 986.88518 498.39902 972.78125 497 C 966.64877 496.44957 963.56695 498.06178 954.3125 508.65625 C 948.14371 515.56503 938.28857 524.18262 932.75 527.625 C 917.98107 536.80467 884.17487 549.91776 878.65625 549.3125 C 876.20495 548.72226 870.07278 549.28934 865.15625 551 C 855.93699 554.42436 840.54859 565.31857 842.375 568.21875 C 842.98561 568.79999 848.48405 570.56649 854 571.75 L 864.40625 574.125 L 860.6875 582.1875 C 857.58053 590.26777 857.59227 590.86027 863.71875 592.625 C 867.39402 593.79949 871.69074 594.99099 873.53125 595 C 875.37443 594.43078 877.21043 594.994 878.4375 595 C 879.66164 595.58425 883.33904 593.85741 887.03125 591.5625 C 891.33407 589.84882 897.50959 586.43241 901.8125 584.71875 C 916.56474 579.00847 939.31094 564.64905 944.25 558.3125 C 946.71807 555.43334 955.96257 549.11208 965.1875 544.53125 C 980.56738 535.93281 981.79738 535.37593 1003.875 537.21875 C 1016.1392 538.43528 1031.4616 539.67299 1037.5938 540.28125 C 1073.7704 544.50608 1089.7378 539.38275 1108.25 517.5 C 1125.5246 497.75063 1140.2878 493.42172 1174.625 497.40625 C 1188.1149 498.91791 1199.7475 501.11877 1200.9688 502.28125 C 1202.1904 503.3859 1205.8712 504.4412 1208.9375 504.6875 C 1216.2967 505.30178 1240.8675 503.84856 1247.625 502.03125 C 1258.682 499.19412 1297.3488 488.32979 1310.25 484.75 C 1317.0089 482.64355 1325.0009 480.73483 1326.8438 480.28125 C 1329.2996 479.88851 1333.6141 478.29303 1336.6875 477.09375 C 1340.3749 475.78184 1349.5867 476.05464 1358.7812 477.71875 C 1374.7189 480.51454 1386.9717 479.0135 1414.625 469.78125 C 1442.8921 460.43633 1458.2051 464.14807 1486.3125 487.53125 C 1497.3124 496.4323 1507.7433 503.82988 1508.9688 504.125 C 1510.1942 504.42013 1515.6515 509.66236 1520.5312 515.46875 C 1529.0694 525.91901 1529.691 526.48375 1545.625 530.03125 L 1562.8125 533.03125 L 1554.25 521.4375 C 1549.9892 514.47767 1544.511 508.04349 1542.0625 506.875 C 1539.6149 505.59086 1534.7204 500.79079 1531.0625 496.03125 C 1526.7909 491.32652 1518.2469 483.74312 1510.9062 479.3125 C 1502.9524 474.87887 1497.4437 470.65814 1498.0625 469.5625 C 1498.0765 466.84479 1501.1533 467.56224 1525.0312 477.625 C 1551.9702 488.9749 1567.2945 492.34248 1582.0312 489.8125 C 1588.7852 488.68906 1593.6836 486.90328 1593.6875 486.09375 C 1594.9338 482.16777 1555.1469 466.41861 1535.5312 462.96875 C 1517.755 459.75919 1483.4559 448.73832 1474.2812 442.96875 C 1465.1071 437.14136 1466.9339 437.43064 1415.4062 435.90625 C 1406.2051 435.5721 1396.385 434.1232 1393.9375 432.78125 C 1387.8202 429.10834 1388.4766 420.46659 1395.9062 406.625 C 1399.6202 399.87767 1403.954 391.50419 1405.8125 387.8125 C 1407.6711 384.12082 1412.6133 377.92801 1416.3125 374.1875 C 1420.8895 369.42739 1423.9216 365.65738 1425.5938 361.5625 C 1453.4511 360.2063 1481.3254 358.88031 1509.1875 357.625 C 1531.8152 356.6471 1554.4308 355.63521 1577.0625 354.75 C 1600.5053 353.74209 1623.9598 352.88828 1647.4062 351.96875 C 1691.2716 350.31805 1735.1239 348.77331 1779 347.4375 C 1779.6965 353.34042 1777.8413 360.5064 1773.5312 371.59375 C 1765.9791 389.86321 1766.5516 390.5387 1769.5312 407.875 C 1773.9486 430.54084 1771.3028 440.78987 1759.0312 448.375 C 1749.383 453.84133 1727.6241 456.80993 1713.6562 454.40625 C 1707.5789 453.41882 1704.3943 454.81296 1694.4062 464.71875 C 1687.7594 471.16887 1677.333 479.02487 1671.5625 482.0625 C 1656.1751 490.1629 1621.4924 500.87322 1616.0312 499.875 C 1613.6283 499.11102 1607.4637 499.20766 1602.4375 500.5625 C 1592.997 503.31904 1576.8856 513.10167 1578.5 516.125 C 1579.0675 516.74841 1584.4265 518.89396 1589.8438 520.46875 L 1600.0625 523.59375 L 1595.7812 531.375 C 1592.1046 539.21249 1592.0465 539.80182 1598.0312 542 C 1601.6131 543.43422 1605.821 544.92193 1607.6562 545.0625 C 1609.5354 544.62649 1611.339 545.34377 1612.5625 545.4375 C 1613.7417 546.10776 1617.5282 544.61885 1621.375 542.59375 C 1625.7893 541.19205 1632.1794 538.24544 1636.5938 536.84375 C 1651.7164 532.2027 1675.4643 519.49851 1680.8438 513.53125 C 1683.5113 510.83589 1693.1587 505.19089 1702.6875 501.28125 C 1718.6427 493.80427 1719.9232 493.33362 1741.8125 496.75 C 1753.9584 498.84015 1769.1458 501.17368 1775.2188 502.21875 C 1811.001 509.01897 1827.3146 505.03463 1847.3438 484.53125 C 1865.986 466.06734 1881.0041 462.78973 1914.9688 469.21875 C 1928.316 471.69089 1939.7712 474.75318 1940.9062 476 C 1942.0457 477.18915 1945.6153 478.50388 1948.6562 478.96875 C 1955.9526 480.10755 1980.5674 480.42334 1987.4375 479.09375 C 1998.6691 477.05434 2038.032 468.96087 2051.1562 466.3125 C 2058.0484 464.69463 2066.1608 463.35193 2068.0312 463.03125 C 2070.5089 462.81507 2074.9112 461.539 2078.0625 460.5625 C 2081.8343 459.51755 2091.0104 460.43286 2100.0625 462.75 C 2115.7595 466.67798 2128.1012 466.07552 2156.3438 458.84375 C 2185.2065 451.5435 2200.1986 456.35482 2226.5625 481.6875 C 2236.898 491.35214 2246.7675 499.46177 2247.9688 499.84375 C 2249.1699 500.22573 2254.2666 505.85963 2258.7188 512 C 2266.488 523.0339 2267.0479 523.635 2282.6875 528.3125 L 2299.5938 532.53125 L 2291.9062 520.34375 C 2288.1539 513.09713 2283.1399 506.30928 2280.7812 504.96875 C 2278.4316 503.51292 2273.9021 498.3526 2270.5938 493.34375 C 2266.6694 488.34569 2258.6926 480.19404 2251.6875 475.25 C 2244.071 470.25911 2238.8981 465.64236 2239.5938 464.59375 C 2239.8014 461.88396 2242.8088 462.81851 2265.9062 474.5625 C 2291.9648 487.80915 2306.995 492.25125 2321.875 490.78125 C 2328.692 490.14351 2333.7195 488.71343 2333.7812 487.90625 C 2335.3052 484.07941 2296.7251 465.53081 2277.4062 460.6875 C 2259.905 456.21537 2226.4887 442.78567 2217.75 436.375 C 2209.0159 429.90667 2210.818 430.29782 2159.5312 425.09375 C 2150.3774 424.10268 2140.6891 421.98223 2138.3438 420.46875 C 2132.5048 416.36792 2133.7873 407.77505 2142.1875 394.5 C 2146.3743 388.03544 2151.2886 380.01813 2153.4062 376.46875 C 2155.5239 372.91937 2160.9179 367.09149 2164.875 363.625 C 2173.8889 355.50196 2177.4768 350.30419 2177.2812 340.125 C 2200.1297 339.99029 2222.9637 339.91355 2245.8125 339.875 C 2267.3708 339.871 2288.942 339.7829 2310.5 339.9375 C 2332.7437 340.07538 2354.9756 340.12122 2377.2188 340.34375 C 2406.9922 340.58842 2436.7614 340.93829 2466.5312 341.46875 C 2483.9857 341.74751 2501.454 342.05053 2518.9062 342.4375 C 2528.1997 342.62927 2537.4877 342.81197 2546.7812 343 C 2546.6805 348.63601 2544.3615 355.36077 2539.75 365.28125 C 2531.0384 383.02707 2531.5793 383.75794 2533.4375 401.25 C 2536.3877 424.15304 2533.1091 434.18871 2520.375 440.96875 C 2510.3952 445.80313 2488.4718 447.3597 2474.6875 444.0625 C 2468.6861 442.68618 2465.4172 443.88222 2454.8125 453.125 C 2447.7645 459.13419 2436.8603 466.3086 2430.9062 468.96875 C 2415.0296 476.06257 2379.7294 484.50371 2374.3438 483.15625 C 2371.995 482.2393 2365.853 481.97128 2360.75 483 C 2351.1518 485.14356 2334.4272 493.84784 2335.8438 496.96875 C 2336.3699 497.62737 2341.5703 500.1425 2346.875 502.0625 L 2356.875 505.8125 L 2352.0938 513.3125 C 2347.9205 520.89726 2347.8566 521.45265 2353.6875 524.03125 C 2357.1697 525.69291 2361.2402 527.46043 2363.0625 527.71875 C 2364.9659 527.40453 2366.7225 528.23401 2367.9375 528.40625 C 2369.0712 529.15098 2372.9684 527.92971 2376.9375 526.15625 C 2381.4329 525.04141 2388.0046 522.48982 2392.5 521.375 C 2407.8899 517.71634 2432.3729 506.57762 2438.125 500.96875 C 2440.9604 498.45057 2450.9581 493.44484 2460.7188 490.15625 C 2477.1218 483.72109 2478.4382 483.30765 2500.0625 488.125 C 2512.0487 490.99213 2527.0382 494.31645 2533.0312 495.75 C 2568.3018 504.83784 2584.8497 501.92252 2606.1562 482.75 C 2625.9477 465.52351 2641.1443 463.212 2674.625 471.8125 C 2687.7856 475.13809 2699.0099 478.93275 2700.0625 480.25 C 2701.1232 481.50999 2704.6203 483.02797 2707.625 483.6875 C 2714.833 485.29328 2739.371 487.19741 2746.3125 486.3125 C 2757.6519 484.99979 2797.4515 479.48616 2810.7188 477.6875 C 2817.7007 476.51633 2825.8628 475.66845 2827.75 475.46875 C 2830.2365 475.41245 2834.7299 474.45926 2837.9375 473.6875 C 2841.7686 472.88733 2850.8656 474.38662 2859.75 477.28125 C 2875.1618 482.21081 2887.507 482.40006 2916.1562 477 C 2945.4288 471.57149 2960.1015 477.30516 2984.7812 504.28125 C 2994.4736 514.59071 3003.7945 523.35403 3004.9688 523.8125 C 3006.1429 524.27096 3010.8582 530.17972 3014.9062 536.59375 C 3021.9495 548.10456 3022.4749 548.76366 3037.7812 554.4375 L 3054.4062 559.71875 L 3047.5 547.0625 C 3044.2216 539.58952 3039.6425 532.48948 3037.375 531 C 3035.1239 529.39605 3030.9479 523.96128 3027.9688 518.75 C 3024.374 513.50986 3016.9225 504.85315 3010.25 499.46875 C 3002.9702 493.99825 2998.1135 489.0642 2998.875 488.0625 C 2999.2566 485.37168 3002.2057 486.48205 3024.5 499.6875 C 3049.6525 514.58296 3064.3688 520.00979 3079.3125 519.5 C 3086.1564 519.30209 3091.2614 518.20779 3091.375 517.40625 C 3093.1418 513.68536 3055.8422 492.70097 3036.875 486.625 C 3019.6976 481.03634 2987.1832 465.45952 2978.875 458.5 C 2970.575 451.48324 2972.377 452.02361 2921.5312 443.53125 C 2912.4603 441.95341 2902.9306 439.19247 2900.6875 437.53125 C 2895.1243 433.06331 2896.9508 424.5822 2906.1875 411.875 C 2910.7815 405.69315 2916.1895 397.9683 2918.5312 394.5625 C 2920.8729 391.15668 2926.6092 385.70476 2930.7812 382.5 C 2945.4361 370.91126 2946.865 365.3925 2942.75 337.59375 C 2939.3788 313.28777 2939.5632 311.97479 2945 304.21875 C 2948.1111 299.75398 2953.0999 295.05538 2955.7812 293.625 C 2961.1276 290.87872 2996.4008 286.88224 3000.5312 288.34375 C 3004.0784 289.5474 3007.7684 285.3173 3010.0625 277.875 C 3014.0178 267.45606 3011.8717 265.11723 2991.8438 257.78125 C 2977.7033 252.62311 2963.2001 245.65628 2952.875 239.8125 L 2958.5938 238.8125 L 2984.125 238 C 2988.4906 237.8012 2993.4806 237.59193 2998.4375 237.59375 C 3002.7545 237.73847 3006.5576 237.14367 3010.4375 236 C 3013.0376 235.14212 3015.0155 234.26912 3017.6562 233.125 C 3019.6489 232.181 3020.564 230.02502 3019.625 227.90625 C 3019.2691 226.04533 3018.2722 224.41716 3015.875 223.84375 C 3013.5019 223.09855 3010.9971 223.33467 3008.4375 223.90625 L 3011.5625 219.28125 L 3014.0938 214.5 L 3016.0312 209.46875 C 3018.2281 202.71348 3020.4612 195.7896 3020.8438 188.71875 L 3025.25 183.96875 C 3026.6597 182.76693 3027.4671 181.24356 3027.7188 179.46875 C 3028.5777 177.78005 3027.6639 175.59133 3025.9062 174.875 C 3024.1732 173.98693 3022.3215 174.03528 3020.3125 175.09375 L 3013.625 178.40625 C 3010.9681 179.6649 3008.3719 180.52212 3005.8125 181.09375 C 3004.8802 181.30196 3003.952 181.46656 3003.0312 181.59375 L 2987.5312 196.4375 L 2993.9375 195.0625 L 3002.8438 193.28125 C 3003.4014 198.09086 3002.7716 202.74547 3001.5312 207.125 C 2999.5212 212.56349 2995.6987 217.50922 2991.4375 221.34375 C 2990.0684 222.25933 2988.0637 223.22495 2986.7188 223.96875 C 2985.4228 224.36908 2984.1711 224.41218 2982.875 224.8125 C 2982.2352 224.9554 2981.6085 225.13833 2980.9688 225.28125 C 2980.3369 225.36685 2980.3287 225.41675 2980.3125 225.53125 L 2977.875 225.09375 C 2978.1266 223.31895 2978.3851 221.57656 2979.8438 220.03125 C 2981.3832 217.91337 2982.9705 215.53984 2983.3438 212.90625 L 2983.625 210.90625 C 2983.1635 209.78959 2982.6267 209.16672 2981.4688 208.59375 C 2979.7033 207.93466 2977.9116 207.62854 2976 208 C 2975.3682 208.0857 2975.3195 208.32063 2974.6875 208.40625 C 2972.1037 209.14965 2970.6758 210.395 2968.5938 211.96875 C 2966.5363 213.37075 2964.45 215.00449 2962.3438 216.75 C 2960.8448 218.58159 2959.3345 220.35065 2957.8438 222.125 L 2956.3438 223.96875 C 2949.175 226.4567 2942.1783 227.85483 2934.0625 228.28125 L 2929.0625 228.5625 L 2925.375 228.5 C 2925.5781 227.06874 2925.8302 225.27226 2926.6562 223.8125 C 2927.5314 222.00928 2928.4018 220.11835 2929.8438 218.6875 C 2931.3832 216.56963 2934.1449 214.67274 2936.2188 213.15625 C 2939.613 211.0677 2942.9382 209.44329 2946.2188 208.15625 C 2952.7638 205.69669 2959.2618 203.52754 2965.75 201.46875 L 2969.625 200.4375 L 2972.8438 199.65625 L 2979.2188 198.21875 L 2986.125 196.75 L 3001.7188 181.75 C 3001.1833 181.8019 3000.6565 181.8508 3000.125 181.875 L 3003.0625 178.625 L 3005.625 173.59375 L 3009.0938 166.65625 L 3010.8125 163.34375 C 3011.0641 161.56894 3010.7239 159.70563 3009.0312 158.53125 C 3007.9057 157.72928 3006.0472 157.65191 3004.7188 158.28125 C 3002.742 159.1107 3001.3021 160.42342 2999.8438 161.96875 C 2997.6645 164.22954 2996.0937 166.61948 2993.9062 168.9375 C 2992.302 171.5134 2989.5136 173.65048 2987.375 175.625 C 2982.5629 178.97264 2979.1002 181.67528 2974.9688 184.59375 C 2972.2063 186.59667 2968.1817 188.83293 2963.7188 189.71875 C 2963.6988 189.89097 2963.0367 189.9871 2962.4375 189.84375 C 2960.5177 190.27246 2958.7702 189.45249 2957.75 187.90625 C 2957.2076 187.36214 2956.7002 186.63502 2956.7812 186.0625 C 2956.2793 185.23212 2956.3962 184.52271 2957.125 183.75 C 2957.4981 181.11638 2957.8592 178.31347 2957.625 175.59375 C 2957.4395 172.53056 2956.6226 169.6734 2955.125 167.125 C 2953.5867 164.86286 2950.5531 164.37446 2948.4062 166.40625 C 2947.6447 167.40793 2946.8048 169.07396 2946.5938 170.5625 C 2946.0163 179.00737 2944.8625 187.17743 2943.7188 195.25 L 2912.4688 201.375 L 2908.5938 198.15625 L 2902.0938 191.5 C 2897.276 186.1449 2892.5586 180.21869 2889.0938 174.0625 C 2886.6083 169.73884 2884.752 165.16148 2883.5625 160.4375 C 2883.012 159.95064 2883.067 159.65362 2882.5 159.28125 C 2881.7397 155.90294 2881.5768 152.67486 2882.0312 149.46875 C 2882.5021 146.14817 2883.0139 142.72403 2885.25 140.0625 C 2886.8057 137.83013 2888.3288 135.57113 2889.8438 133.625 C 2892.7443 130.64883 2895.6264 127.87767 2898.4375 125.53125 C 2901.8639 123.21365 2905.7928 121.71669 2909.6562 120.6875 C 2912.2809 119.6579 2916.1501 118.61527 2919.4062 117.5 C 2921.974 116.87114 2923.2609 116.6632 2925.1562 116.40625 C 2927.7159 115.83464 2929.6374 115.2541 2932.1562 114.96875 C 2936.53 114.71271 2940.3019 114.24291 2944.125 113.5 L 2949.7812 112.9375 C 2952.3167 112.53766 2954.9875 111.21426 2957.0938 109.46875 C 2958.5195 108.15241 2959.3856 106.42624 2958.4062 104.59375 C 2958.1069 102.33204 2955.9042 100.3702 2953.5312 99.625 C 2951.1746 98.76533 2948.7679 98.193665 2946.2812 98.25 C 2943.1876 98.22026 2940.6496 98.670513 2937.5312 98.8125 L 2920.875 88.96875 L 2904.5938 104.5625 C 2905.0484 105.01303 2904.9224 105.78292 2904.2812 106.1875 C 2901.5431 108.01865 2898.8226 109.7051 2896.125 111.25 C 2893.4601 112.56591 2890.8583 113.58489 2888.25 114.5 C 2887.602 114.70016 2886.9252 115.07319 2885.7188 114.84375 C 2882.6651 114.52777 2880.1797 114.33702 2877.0938 114.25 C 2876.4945 114.1066 2875.3274 113.82616 2874.6875 113.96875 L 2874.5938 114.53125 C 2872.6905 114.84548 2871.3646 115.49329 2870.5625 116.78125 C 2869.8901 117.15314 2869.8393 117.62024 2869.75 118.25 C 2869.661 118.87978 2870.0987 119.99763 2870.625 120.65625 C 2870.611 120.77106 2870 120.84375 2870 120.84375 C 2870.4289 122.18941 2871.4705 123.45135 2871.875 124.96875 C 2872.3446 126.02814 2872.2004 127.08922 2872.0625 128.0625 L 2871.7812 130.09375 C 2871.5705 131.58232 2870.6934 133.37879 2869.875 134.78125 C 2868.0272 139.07469 2866.7536 143.56823 2866.6875 148.40625 L 2866.3125 151.21875 C 2863.3889 149.98669 2861.0613 148.77333 2858.2188 146.96875 C 2857.1175 145.99502 2855.4463 144.77598 2854.3125 144.03125 C 2853.1465 143.51554 2851.9672 143.08918 2850.6875 143.375 C 2848.7678 143.80369 2846.6535 145.38408 2846.9688 147.53125 C 2846.8549 148.33274 2846.7092 149.53943 2847.2188 150.3125 C 2847.1368 150.88497 2847.6981 151.20348 2847.625 151.71875 C 2848.6372 153.32227 2849.7113 154.46378 2850.8125 155.4375 C 2853.6063 157.58561 2855.7781 159.87816 2858.5312 162.3125 C 2860.6851 164.60349 2863.4098 167.105 2865.5312 169.625 C 2870.4381 174.35031 2874.6945 179.39008 2878.2812 184.6875 C 2880.9044 188.03787 2882.8927 191.5976 2885.5 195.0625 L 2889.2188 199.25 L 2888.5938 199.40625 C 2877.296 196.05269 2866.7501 191.74003 2856.3438 186.46875 C 2852.3029 184.37749 2848.9069 182.1037 2845.5625 179.46875 C 2841.6918 176.17516 2837.9066 172.36825 2834.7812 168.1875 C 2832.1499 164.89437 2830.1641 161.32891 2828.8125 157.75 C 2828.3591 156.57609 2827.9139 155.29364 2827.4688 154.0625 C 2826.7895 150.11167 2826.7908 145.7784 2827.375 141.65625 C 2827.9037 133.55489 2831.4492 126.17113 2837.25 120.21875 C 2840.8959 116.35539 2845.6629 113.20261 2850.3125 111 C 2855.6021 108.65448 2860.851 106.6404 2866.5938 105.46875 C 2867.8899 105.06847 2869.7747 104.74932 2871.0625 104.40625 C 2876.1493 103.49205 2880.6344 102.64371 2885.6562 102.1875 C 2886.8873 102.2451 2887.5096 102.15867 2888.125 102.1875 C 2889.3644 102.18798 2889.9716 102.30677 2891.2188 102.25 C 2891.2188 102.25 2892.432 102.48161 2893.0312 102.625 C 2894.8618 102.82606 2896.7404 102.6866 2899.2188 102.6875 C 2899.5266 102.702 2899.7833 102.69275 2900.0312 102.71875 C 2900.7755 102.79685 2901.3199 102.94124 2902.2188 103.15625 C 2902.6683 103.26378 2903.4504 103.5712 2904.0312 104 L 2920.1875 88.53125 L 2919.25 88 L 2921.0625 83.875 C 2922.951 79.295315 2924.8879 74.480936 2925.5938 69.5 C 2925.8538 67.667989 2924.2413 65.869492 2923.1562 64.78125 C 2922.0388 63.922026 2920.2186 63.735221 2918.9062 64.25 C 2917.0111 64.506969 2915.6607 65.264043 2914.875 66.4375 C 2914.0239 68.068931 2913.1322 69.899801 2912.2812 71.53125 C 2911.3331 73.849729 2909.8195 75.86113 2908.3125 77.75 C 2907.413 79.724964 2905.9665 81.334909 2904.5 82.9375 C 2903.7304 83.996448 2902.3241 85.092074 2901.5625 86.09375 L 2899.75 85.75 L 2896.625 85.84375 L 2887.1562 87.125 L 2877.625 88.6875 L 2866.2812 90.125 C 2862.4743 90.753395 2858.7929 90.643793 2855.8125 89.8125 L 2854.2188 87.75 C 2853.1662 86.432762 2852.7439 85.113791 2852.9062 83.96875 C 2852.9502 83.682919 2852.3344 83.536259 2852.375 83.25 C 2851.9622 81.789829 2852.1476 80.533152 2851.7188 79.1875 L 2852.3438 74.8125 C 2852.5145 73.610263 2852.6925 72.418467 2853.4375 71.53125 C 2853.5095 71.015893 2854.2094 70.411259 2854.25 70.125 C 2854.9386 69.638592 2855.6147 69.241439 2856.3438 68.46875 C 2857.0813 67.638838 2858.4664 66.590415 2859.1875 65.875 C 2860.4996 65.360177 2861.8414 64.715423 2862.5625 64 L 2867.9688 60.75 L 2872.0312 58.3125 C 2874.0727 57.025 2876.1657 55.36812 2877.6562 53.59375 C 2879.0336 52.620947 2879.1597 51.647435 2879.9375 50.53125 C 2880.7155 49.415075 2880.9686 47.75718 2880.5312 46.46875 C 2879.0336 43.920356 2876.1069 42.618977 2872.875 43.5625 C 2866.3787 45.678556 2861.0086 48.671181 2855.5 52.5625 C 2855.463 52.790929 2854.7961 53.107103 2854.1562 53.25 C 2853.5327 53.27838 2853.5692 53.101774 2852.9375 53.1875 C 2850.4995 52.900356 2848.2271 51.415531 2847.3125 49.125 C 2846.8836 47.779359 2846.4601 46.3769 2846.0312 45.03125 C 2846.0453 44.91643 2845.4525 44.77074 2845.4688 44.65625 C 2845.0723 43.08159 2845.25 41.702047 2845.4688 40.15625 C 2846.2222 39.211825 2846.4285 37.801072 2847.7812 37 C 2848.6161 35.483066 2850.0348 34.248602 2851.4688 32.875 C 2854.2474 30.757596 2856.4732 28.284139 2858.0938 25.59375 C 2858.8717 24.477565 2859.0154 23.330091 2858.5625 22.15625 C 2858.0929 21.096839 2857.0102 20.085651 2856.5 19.3125 C 2855.9494 18.825648 2854.7013 18.648603 2854.0938 18.5625 L 2854.125 18.53125 C 2853.8235 18.47391 2853.5238 18.440349 2853.2188 18.40625 C 2852.3038 18.303962 2851.36 18.32862 2850.4062 18.5 C 2849.7341 18.871937 2849.0636 19.294834 2848.375 19.78125 C 2847.0545 20.353293 2846.2998 21.295085 2845.5625 22.125 C 2843.4318 24.042268 2841.3502 25.548383 2838.75 26.40625 L 2838.1875 25.875 L 2837.6875 25.125 C 2837.161 24.466348 2836.6526 23.655779 2836.75 22.96875 C 2835.2848 20.191356 2833.1249 18.200573 2830.25 16.625 C 2829.6912 16.195378 2827.8586 15.919573 2827.2188 16.0625 C 2826.6031 16.03361 2826.6004 15.945524 2825.9688 16.03125 C 2824.6889 16.317044 2823.3636 17.097315 2822.5938 18.15625 C 2821.8971 18.699915 2821.7698 19.479721 2821.6562 20.28125 C 2822.0123 22.142189 2821.8152 23.40982 2822.1875 25.15625 L 2824.6562 34.0625 L 2824.5312 35.03125 C 2824.9603 36.37691 2825.3523 37.96686 2825.7812 39.3125 C 2827.0761 43.292191 2829.6115 47.121466 2831.5625 50.84375 C 2833.4809 54.795038 2835.4389 58.596163 2836.0938 62.71875 C 2836.5226 64.064402 2836.9054 65.745714 2836.7188 67.0625 C 2837.1152 68.637158 2837.4692 70.485468 2837.25 72.03125 C 2836.7307 75.69539 2836.9534 78.42916 2836.5312 81.40625 L 2836.4688 81.90625 C 2836.2087 83.738262 2836.527 86.011915 2836.2188 88.1875 C 2836.6719 89.36138 2837.1762 90.042224 2837.0625 90.84375 C 2837.4506 92.475624 2837.1891 94.295095 2837.5938 95.8125 C 2838.1121 96.528398 2838.0675 96.935126 2838.5938 97.59375 L 2835.75 100.21875 C 2834.9964 101.16317 2834.2184 102.11017 2832.9062 102.625 C 2831.5208 103.65506 2830.7441 104.64693 2829.375 105.5625 C 2827.9899 106.5926 2826.6015 107.63929 2824.625 108.46875 C 2823.9689 108.72617 2823.3042 109.23734 2822.6562 109.4375 C 2821.3927 109.6088 2820.1441 109.69817 2818.9375 109.46875 C 2817.0988 109.32492 2815.8975 108.92458 2814.1562 108.09375 C 2812.407 107.32017 2810.6648 106.65096 2809.5312 105.90625 C 2809.5312 105.90625 2808.9501 105.47137 2808.375 105.15625 C 2807.8245 104.66939 2806.6364 104.32538 2806.0938 103.78125 C 2805.5431 103.29439 2805.0018 102.72923 2803.8438 102.15625 C 2803.3254 101.44037 2802.1975 100.61687 2801.6875 99.84375 C 2800.6106 98.698255 2799.5101 97.929381 2799 97.15625 C 2799.037 96.927815 2797.9231 96.007374 2797.4375 95.0625 C 2795.8018 93.487396 2794.7306 92.165998 2793.7188 90.5625 C 2791.7595 86.897442 2789.2856 82.640953 2788.0312 78.375 C 2788.1132 77.802538 2787.5956 76.861626 2787.0938 76.03125 C 2787.24 75.000726 2787.336 74.304097 2786.875 73.1875 C 2786.6732 70.238784 2785.8553 67.336816 2785.0625 64.1875 C 2784.6417 62.784612 2784.2262 61.536232 2783.125 60.5625 C 2783.222 59.87542 2782.6593 59.351368 2782.125 58.75 C 2781.6555 57.690625 2781.1488 56.734245 2780.0312 55.875 C 2779.5213 55.101888 2778.4487 54.200384 2777.9062 53.65625 C 2776.7886 52.797015 2776.1998 52.651459 2774.9688 52.59375 C 2774.3695 52.450343 2774.3424 52.50265 2773.7188 52.53125 C 2773.6748 52.817072 2773.03 52.971594 2772.4062 53 C 2772.3553 53.343235 2771.7131 53.474232 2771.6562 53.875 C 2771.5177 54.848219 2770.8531 55.119981 2770.8125 55.40625 L 2770.6875 56.46875 C 2770.5336 57.556577 2770.3755 58.586611 2770.8125 59.875 C 2771.4027 64.45563 2771.9981 69.088532 2773.1875 73.8125 L 2774.25 79.28125 C 2774.6709 80.684148 2774.4204 82.477803 2773.5938 83.9375 C 2773.5287 84.395561 2772.8543 84.828483 2772.7812 85.34375 C 2772.1006 85.772904 2771.39 86.325866 2770.75 86.46875 C 2769.4947 86.582814 2768.9049 86.534098 2768.2812 86.5625 C 2767.0745 86.333075 2765.8468 86.21889 2764.6562 85.875 C 2762.8664 85.387683 2761.7018 84.669343 2759.9688 83.78125 C 2757.1101 82.091186 2754.2623 80.491817 2751.4688 78.34375 C 2749.2175 76.739788 2746.3475 75.114709 2744.0312 73.96875 C 2743.4646 73.596416 2742.8587 73.513355 2742.2188 73.65625 C 2741.5628 73.91367 2740.9061 74.27384 2740.25 74.53125 C 2740.206 74.817081 2739.573 74.890974 2739.5 75.40625 L 2739.1875 77.65625 C 2739.0736 78.457739 2738.9669 79.075903 2739.4688 79.90625 L 2739.375 80.5 C 2739.877 81.330384 2739.7725 82.122882 2740.25 83.125 L 2740.1875 83.4375 C 2740.1225 83.895553 2740.0737 84.263057 2740.625 84.75 C 2740.553 85.265357 2741.7049 86.000253 2741.6562 86.34375 C 2742.1418 87.288623 2742.6231 88.138382 2743.125 88.96875 C 2743.6513 89.627383 2744.1612 90.403868 2744.6875 91.0625 C 2745.7725 92.150742 2746.8753 93.218984 2747.9688 94.25 C 2749.6287 95.653332 2751.3064 96.937073 2753.6875 97.625 C 2755.4125 98.570338 2757.8052 99.283687 2759.5625 100 C 2760.1618 100.14342 2760.7211 100.39312 2761.3125 100.59375 C 2762.5353 100.70863 2763.7879 100.75221 2765.5938 101.125 C 2766.7764 101.52624 2768.5692 101.90845 2770.375 102.28125 C 2772.1569 102.82583 2773.997 103.03106 2775.1875 103.375 C 2776.3699 103.77624 2778.115 104.48428 2779.2812 105 C 2780.4716 105.34393 2781.6301 105.88004 2782.8125 106.28125 C 2784.5944 106.82584 2785.8025 107.14052 2786.9688 107.65625 C 2791.0179 109.69027 2795.0456 111.85454 2798.4062 114.375 C 2802.9167 117.52566 2806.6027 121.90057 2809.0312 126.625 C 2809.4603 127.97064 2809.3605 128.9096 2809.7812 130.3125 C 2810.2103 131.65815 2810.6185 133.10235 2811.0312 134.5625 C 2811.3059 136.99591 2810.9727 139.39218 2810.6562 141.625 C 2810.923 144.11569 2810.5999 146.41031 2810.875 148.84375 C 2810.7535 149.70255 2810.6082 150.68014 2811.0938 151.625 C 2811.4255 153.65769 2811.7856 155.39961 2812.125 157.375 C 2812.081 157.66084 2812.6194 158.318 2812.5625 158.71875 C 2814.0427 165.76164 2817.4511 172.45479 2822.8438 178.125 L 2827.6562 183.40625 L 2833.125 188.5625 C 2838.1377 192.54359 2843.1692 196.35889 2849 198.9375 C 2851.9154 200.22679 2856.0053 201.96073 2860.0625 203.9375 C 2886.1879 216.34277 2888.7853 224.18742 2897.9688 229.34375 L 2899.3438 228.5 C 2899.0352 230.67557 2899.4516 232.07579 2898.8125 232.21875 C 2896.8117 233.21997 2876.7976 269.39062 2867.875 288.625 C 2851.9748 322.11327 2837.8638 334.35266 2817.6562 332.65625 C 2810.1494 332.04417 2798.6088 336.19929 2788.4062 342.5 C 2759.1492 340.91237 2729.8982 339.35567 2700.625 338.09375 C 2684.7472 337.3722 2668.8533 336.71159 2652.9688 336.15625 C 2634.474 335.48477 2615.9973 334.78579 2597.5 334.1875 C 2588.9219 333.92588 2580.3285 333.68798 2571.75 333.4375 C 2569.9221 329.34869 2568.0673 324.51906 2566.1875 318.8125 C 2563.2581 308.8777 2558.432 299.05384 2554.5938 295.53125 C 2545.3306 286.56747 2524.0316 275.22654 2520.0625 277 C 2515.429 279.0881 2516.288 281.86709 2526.0938 291.375 C 2535.3166 300.62504 2542.0288 314.364 2539.9375 320.375 C 2539.0135 322.5217 2539.7513 326.11813 2541.2812 328.4375 C 2542.3679 329.88163 2543.2635 331.26022 2544.0312 332.625 C 2520.146 332.10301 2496.2628 331.70098 2472.375 331.3125 C 2443.0057 330.81822 2413.6533 330.48658 2384.2812 330.21875 C 2338.2384 329.79857 2292.1695 329.58717 2246.125 329.4375 C 2224.5563 329.3764 2203.0057 329.33695 2181.4375 329.53125 C 2179.6773 329.54314 2177.9164 329.5503 2176.1562 329.5625 C 2175.5937 326.18095 2174.8448 322.4373 2173.9062 318.0625 C 2168.9785 294.02371 2169.0731 292.68346 2174 284.59375 C 2176.8175 279.93811 2181.51 274.91239 2184.0938 273.3125 C 2189.2524 270.22799 2224.1905 263.96346 2228.4062 265.15625 C 2232.0235 266.12924 2235.4394 261.69945 2237.25 254.125 C 2240.5269 243.47321 2238.2397 241.28247 2217.7812 235.25 C 2203.3383 231.01213 2188.3984 224.98 2177.7188 219.8125 L 2183.375 218.4375 L 2208.7812 215.96875 C 2213.1249 215.48955 2218.1158 214.9733 2223.0625 214.65625 C 2227.3798 214.52298 2231.1078 213.70338 2234.9062 212.3125 C 2237.4457 211.28915 2239.3757 210.28037 2241.9375 208.96875 C 2243.8652 207.89853 2244.6358 205.67897 2243.5625 203.625 C 2243.0876 201.79083 2241.9604 200.26177 2239.5312 199.84375 C 2237.1152 199.25275 2234.6426 199.63998 2232.125 200.375 L 2234.9688 195.5625 L 2237.1875 190.625 L 2238.8125 185.46875 C 2240.5702 178.58616 2242.3543 171.51831 2242.2812 164.4375 L 2246.3438 159.40625 C 2247.6732 158.11624 2248.3943 156.56858 2248.5312 154.78125 C 2249.2798 153.0408 2248.2374 150.9143 2246.4375 150.3125 C 2244.651 149.53774 2242.7805 149.68949 2240.8438 150.875 L 2234.4062 154.59375 C 2231.8358 156.02069 2229.2987 157.07742 2226.7812 157.8125 C 2225.8643 158.08025 2224.942 158.31385 2224.0312 158.5 L 2209.5312 174.28125 L 2215.8125 172.5 L 2224.5938 170.15625 C 2225.4596 174.92004 2225.1125 179.61224 2224.1562 184.0625 C 2222.5001 189.61902 2219.037 194.77432 2215.0312 198.875 C 2213.724 199.87675 2211.7943 200.98372 2210.5 201.8125 C 2209.2326 202.29536 2207.9863 202.4234 2206.7188 202.90625 C 2206.0894 203.09002 2205.4417 203.31623 2204.8125 203.5 C 2204.1873 203.6261 2204.1963 203.69719 2204.1875 203.8125 L 2201.7188 203.5 C 2201.8556 201.7127 2202.0188 199.97969 2203.375 198.34375 C 2204.775 196.13124 2206.172 193.62089 2206.375 190.96875 L 2206.5625 188.96875 C 2206.0301 187.88409 2205.4426 187.30979 2204.25 186.8125 C 2202.4458 186.26834 2200.6338 186.06884 2198.75 186.5625 C 2198.125 186.68862 2198.0938 186.9364 2197.4688 187.0625 C 2194.9381 187.97056 2193.6015 189.29558 2191.625 191 C 2189.6619 192.53145 2187.6771 194.31012 2185.6875 196.1875 C 2184.3094 198.11172 2182.9361 199.97717 2181.5625 201.84375 L 2180.1875 203.75 C 2173.1936 206.69393 2166.2904 208.5524 2158.2188 209.5 L 2153.25 210.09375 L 2149.5312 210.28125 C 2149.6418 208.83988 2149.7696 207.04112 2150.5 205.53125 C 2151.2573 203.67547 2152.028 201.70815 2153.375 200.1875 C 2154.775 197.97499 2157.403 195.928 2159.375 194.28125 C 2162.6278 191.97869 2165.8402 190.1204 2169.0312 188.625 C 2175.4044 185.74952 2181.7513 183.15939 2188.0938 180.6875 L 2191.9062 179.4375 L 2195.0625 178.4375 L 2201.3438 176.59375 L 2208.125 174.6875 L 2222.75 158.71875 C 2222.2189 158.80495 2221.685 158.87917 2221.1562 158.9375 L 2223.875 155.5 L 2226.0938 150.34375 L 2229.125 143.1875 L 2230.5938 139.78125 C 2230.7306 137.99393 2230.296 136.1568 2228.5312 135.09375 C 2227.3565 134.36584 2225.5039 134.41154 2224.2188 135.125 C 2222.2996 136.07988 2220.9497 137.4578 2219.5938 139.09375 C 2217.5646 141.49003 2216.1275 143.98357 2214.0938 146.4375 C 2212.6586 149.11125 2210.0385 151.42325 2208.0312 153.53125 C 2203.4444 157.1815 2200.154 160.10305 2196.2188 163.28125 C 2193.5909 165.45771 2189.7093 167.95394 2185.3125 169.125 C 2185.3025 169.29818 2184.6384 169.41701 2184.0312 169.3125 C 2182.1431 169.8638 2180.3676 169.16491 2179.25 167.6875 C 2178.6737 167.17942 2178.1434 166.4828 2178.1875 165.90625 C 2177.6332 165.10988 2177.6662 164.41174 2178.3438 163.59375 C 2178.5467 160.94159 2178.7528 158.10526 2178.3438 155.40625 C 2177.9617 152.36132 2176.9709 149.57177 2175.3125 147.125 C 2173.6318 144.96649 2170.5429 144.67807 2168.5312 146.84375 C 2167.8355 147.89235 2167.1148 149.59472 2167 151.09375 C 2166.967 159.55828 2166.3408 167.77682 2165.7188 175.90625 L 2134.9375 184.0625 L 2130.8438 181.0625 L 2123.9375 174.875 C 2118.7853 169.84089 2113.6976 164.23305 2109.8438 158.3125 C 2107.0853 154.15767 2104.9284 149.66892 2103.4375 145.03125 C 2102.8567 144.58081 2102.9022 144.30389 2102.3125 143.96875 C 2101.3364 140.64635 2100.9713 137.44746 2101.2188 134.21875 C 2101.4749 130.87475 2101.7522 127.39361 2103.8125 124.59375 C 2105.2214 122.26594 2106.6133 119.9458 2108 117.90625 C 2110.703 114.74966 2113.4081 111.77239 2116.0625 109.25 C 2119.3327 106.71679 2123.1481 104.96309 2126.9375 103.6875 C 2129.4905 102.4912 2133.2598 101.22868 2136.4375 99.90625 C 2138.9595 99.113524 2140.2501 98.815835 2142.125 98.4375 C 2144.6426 97.702421 2146.5046 97.009296 2149 96.5625 C 2153.3482 96.025641 2157.1076 95.299799 2160.875 94.3125 L 2166.4688 93.375 C 2168.9731 92.812894 2171.5417 91.346127 2173.5312 89.46875 C 2174.8695 88.063419 2175.6577 86.265701 2174.5625 84.5 C 2174.1184 82.262229 2171.7598 80.466009 2169.3438 79.875 C 2166.9367 79.168702 2164.5092 78.752571 2162.0312 78.96875 C 2158.9421 79.138081 2156.4466 79.751468 2153.3438 80.09375 L 2136.0625 71.3125 L 2120.8438 87.9375 C 2121.3263 88.357861 2121.2701 89.148768 2120.6562 89.59375 C 2118.0417 91.597242 2115.4051 93.441033 2112.8125 95.15625 C 2110.2378 96.64086 2107.7002 97.825256 2105.1562 98.90625 C 2104.5224 99.147676 2103.875 99.557603 2102.6562 99.40625 C 2099.5887 99.28735 2097.1164 99.263338 2094.0312 99.375 C 2093.4241 99.270445 2092.2232 99.066534 2091.5938 99.25 L 2091.5312 99.8125 C 2089.6521 100.2485 2088.3739 101.00687 2087.6562 102.34375 C 2087.0091 102.75813 2086.9862 103.20954 2086.9375 103.84375 C 2086.8895 104.47797 2087.4012 105.5641 2087.9688 106.1875 C 2087.9587 106.30295 2087.3437 106.40625 2087.3438 106.40625 C 2087.8583 107.72153 2088.9987 108.91802 2089.5 110.40625 C 2090.0367 111.43325 2089.9501 112.51985 2089.875 113.5 L 2089.75 115.53125 C 2089.6354 117.03029 2088.8515 118.89155 2088.125 120.34375 C 2086.5573 124.74716 2085.5986 129.29274 2085.8438 134.125 L 2085.625 136.96875 C 2082.6282 135.92731 2080.2338 134.868 2077.2812 133.25 C 2076.1197 132.34912 2074.3668 131.23275 2073.1875 130.5625 C 2071.9908 130.12286 2070.79 129.7887 2069.5312 130.15625 C 2067.6431 130.70754 2065.6411 132.4088 2066.0938 134.53125 C 2066.0318 135.33841 2065.9731 136.54256 2066.5312 137.28125 C 2066.4862 137.85778 2067.071 138.16859 2067.0312 138.6875 C 2068.1444 140.22259 2069.276 141.28663 2070.4375 142.1875 C 2073.3637 144.15144 2075.6898 146.27905 2078.5938 148.53125 C 2080.8906 150.67894 2083.7834 152.99668 2086.0625 155.375 C 2091.2631 159.77488 2095.8299 164.50678 2099.75 169.5625 C 2102.5833 172.73719 2104.769 176.17874 2107.5938 179.46875 L 2111.5938 183.40625 L 2110.9688 183.625 C 2099.4787 181.00512 2088.6615 177.37221 2077.9375 172.78125 C 2073.7705 170.95425 2070.257 168.88313 2066.75 166.46875 C 2062.6754 163.43097 2058.6378 159.90856 2055.25 155.9375 C 2052.4123 152.82046 2050.204 149.39081 2048.625 145.90625 C 2048.097 144.76394 2047.5859 143.51245 2047.0625 142.3125 C 2046.1306 138.41354 2045.8383 134.08869 2046.1562 129.9375 C 2046.1662 121.81891 2049.219 114.21946 2054.625 107.90625 C 2058.0147 103.81638 2062.5642 100.34089 2067.0625 97.84375 C 2072.1902 95.162832 2077.3133 92.819867 2082.9688 91.28125 C 2084.2366 90.798415 2086.1119 90.362693 2087.375 89.9375 C 2092.3924 88.697982 2096.7992 87.59079 2101.7812 86.8125 C 2103.0134 86.79085 2103.6339 86.66706 2104.25 86.65625 C 2105.4869 86.577 2106.1028 86.636909 2107.3438 86.5 C 2107.3438 86.5 2108.549 86.645466 2109.1562 86.75 C 2110.9959 86.8329 2112.8703 86.564757 2115.3438 86.40625 C 2115.6519 86.40085 2115.9072 86.39622 2116.1562 86.40625 C 2116.9039 86.43633 2117.4642 86.530754 2118.375 86.6875 C 2118.8306 86.76588 2119.6115 87.046952 2120.2188 87.4375 L 2120.25 87.4375 L 2135.3438 70.9375 L 2134.4062 70.46875 L 2135.9375 66.25 C 2137.5275 61.558324 2139.1474 56.641023 2139.5312 51.625 C 2139.673 49.780055 2137.9341 48.07869 2136.7812 47.0625 C 2135.6109 46.276932 2133.8078 46.183125 2132.5312 46.78125 C 2130.6566 47.159594 2129.3336 48.028427 2128.625 49.25 C 2127.8806 50.932795 2127.1193 52.817191 2126.375 54.5 C 2125.5779 56.87467 2124.1948 58.955606 2122.8125 60.9375 C 2122.0418 62.966239 2120.7041 64.681395 2119.3438 66.375 C 2118.6438 67.481262 2117.3206 68.638907 2116.625 69.6875 L 2114.7812 69.5 L 2111.6875 69.78125 L 2102.3125 71.65625 L 2092.9062 73.84375 L 2081.6875 76 C 2077.9288 76.87198 2074.2152 77.012855 2071.1875 76.375 L 2069.5 74.40625 C 2068.365 73.159444 2067.8179 71.871861 2067.9062 70.71875 C 2067.9322 70.43067 2067.3529 70.319529 2067.375 70.03125 C 2066.8691 68.60066 2066.9521 67.346525 2066.4375 66.03125 L 2066.7812 61.625 C 2066.8742 60.414265 2066.9698 59.214556 2067.6562 58.28125 C 2067.6953 57.762313 2068.3528 57.100779 2068.375 56.8125 C 2069.0309 56.282802 2069.6659 55.849232 2070.3438 55.03125 C 2071.0262 54.155622 2072.3577 53.010318 2073.0312 52.25 C 2074.3077 51.651837 2075.6077 50.947826 2076.2812 50.1875 L 2081.4688 46.59375 L 2085.375 43.875 C 2087.3293 42.458856 2089.2828 40.679082 2090.6562 38.8125 C 2091.9682 37.753113 2092.0455 36.757661 2092.75 35.59375 C 2093.4545 34.429845 2093.613 32.757637 2093.0938 31.5 C 2091.4352 29.053228 2088.4458 27.975538 2085.2812 29.125 C 2078.9345 31.654554 2073.7469 34.981143 2068.5 39.21875 C 2068.477 39.449109 2067.8481 39.784985 2067.2188 39.96875 C 2066.5983 40.03718 2066.5937 39.87381 2065.9688 40 C 2063.5174 39.870274 2061.1539 38.5082 2060.0938 36.28125 C 2059.5792 34.965981 2059.0771 33.627773 2058.5625 32.3125 C 2058.5725 32.197042 2057.9599 32.084052 2057.9688 31.96875 C 2057.4718 30.422852 2057.5682 29.025445 2057.6875 27.46875 C 2058.3787 26.477813 2058.4827 25.042683 2059.7812 24.15625 C 2060.5167 22.588758 2061.8762 21.306742 2063.2188 19.84375 C 2065.8556 17.551986 2067.8995 14.914063 2069.3438 12.125 C 2070.0482 10.96109 2070.1211 9.8297777 2069.5938 8.6875 C 2069.057 7.6604916 2067.9339 6.6762287 2067.375 5.9375 C 2066.7943 5.4870692 2065.518 5.4218488 2064.9062 5.375 L 2064.9375 5.34375 C 2064.6329 5.305922 2064.3377 5.264411 2064.0312 5.25 C 2063.1116 5.206776 2062.1595 5.2988692 2061.2188 5.53125 C 2060.5718 5.9456526 2059.9372 6.407795 2059.2812 6.9375 C 2058.0003 7.5933003 2057.3074 8.5931244 2056.625 9.46875 C 2054.6221 11.519103 2052.6334 13.164151 2050.0938 14.1875 L 2049.5312 13.6875 L 2048.9688 12.96875 C 2048.401 12.345328 2047.822 11.566872 2047.875 10.875 C 2046.2342 8.1976095 2043.9391 6.3561273 2040.9688 4.96875 C 2040.5298 4.6741584 2039.4064 4.5119464 2038.5938 4.53125 z M 2009.4688 342.03125 C 2008.3181 343.23666 2007.2275 344.45303 2006.25 345.6875 C 2001.5089 351.35568 1973.4676 356.41223 1948.2812 355.875 C 1939.6774 355.73795 1931.0222 356.11575 1929.75 356.65625 C 1927.8664 357.14991 1912.4982 356.71481 1894.7188 355.875 C 1877.551 355.08202 1853.617 354.64445 1842.5312 354.78125 C 1831.4407 354.97567 1820.3759 354.58131 1817.9688 353.875 C 1814.9798 353.04449 1811.9774 350.6821 1808.875 346.59375 C 1823.0725 346.19903 1837.2715 345.80935 1851.4688 345.40625 C 1866.6942 344.98156 1881.9293 344.64456 1897.1562 344.28125 C 1920.5979 343.75559 1944.0569 343.20549 1967.5 342.75 C 1981.4906 342.51244 1995.4782 342.27093 2009.4688 342.03125 z M 2577.3125 343.625 C 2596.1189 343.98076 2614.942 344.29764 2633.75 344.5625 C 2660.8122 344.97177 2687.8736 345.36559 2714.9375 345.65625 C 2737.5089 345.91879 2760.0841 346.18736 2782.6562 346.375 C 2779.28 348.88142 2776.1886 351.59984 2773.6562 354.40625 C 2768.5602 359.75771 2740.2558 363 2715.1562 360.84375 C 2706.5792 360.15354 2697.898 359.9487 2696.5938 360.40625 C 2694.6822 360.77771 2679.3761 359.38803 2661.6875 357.40625 C 2644.6064 355.51059 2620.7591 353.51409 2609.6875 352.9375 C 2598.6074 352.41811 2587.6067 351.32844 2585.25 350.46875 C 2582.5548 349.52931 2579.9207 347.30644 2577.3125 343.625 z M 1252.9375 370.65625 C 1243.5176 375.7982 1220.7575 380.88002 1199.7188 381.9375 C 1191.1273 382.41586 1182.5427 383.40119 1181.3125 384.03125 C 1179.469 384.6583 1164.1065 385.34794 1146.3125 385.78125 C 1129.132 386.21758 1105.2351 387.47732 1094.1875 388.40625 C 1083.1392 389.39301 1072.0764 389.81368 1069.625 389.28125 C 1066.5077 388.65106 1063.2651 386.41791 1059.7812 382.375 C 1062.562 382.19487 1065.3442 382.02299 1068.125 381.84375 C 1107.3404 379.39295 1146.5526 376.76624 1185.7812 374.53125 C 1208.1673 373.24113 1230.5512 371.94182 1252.9375 370.65625 z M 670.53125 511.5 C 671.07738 511.48483 671.61066 511.48094 672.15625 511.5 C 675.92604 511.60337 679.66994 512.3511 683.28125 513.40625 C 689.22202 515.14841 694.83474 517.83108 700.1875 520.90625 C 703.72096 522.94294 707.16638 525.14478 710.40625 527.625 C 711.98307 528.7361 713.338 529.91325 714.71875 531.28125 C 716.18786 532.68538 717.53294 534.20367 718.8125 535.78125 C 719.54371 537.00577 720.63797 538.23435 721.40625 539.53125 C 724.25044 543.70413 726.60163 548.21442 728.0625 553.0625 C 730.20954 559.98689 730.99971 567.34919 730.1875 574.5625 C 729.49481 581.02575 727.61782 587.36163 724.8125 593.21875 C 722.55887 597.80267 719.6213 602.02441 716.5 606.0625 C 715.87733 606.90631 715.26643 607.65314 714.5 608.46875 C 709.38494 613.91587 703.68528 618.76168 698.21875 623.84375 C 694.82865 626.95761 691.26609 629.88098 687.71875 632.8125 C 686.94188 633.33811 686.11111 634.15427 685.21875 634.65625 C 684.70878 635.07539 684.23977 635.39535 683.75 635.875 C 682.55724 636.63114 681.23933 637.60475 680 638.4375 C 676.29366 640.95995 672.35693 643.42924 667.84375 644.125 C 665.364 644.46407 662.72915 643.91696 660.75 642.34375 C 659.34189 641.57673 658.14967 640.54311 657.125 639.25 C 655.75894 637.46298 654.39647 635.38097 653.15625 633.40625 C 650.81056 629.54617 648.63688 625.57802 645.90625 621.96875 C 644.27073 620.02672 642.69934 617.95526 640.90625 616.125 C 638.36858 613.19259 635.54218 610.52881 632.5 608.125 C 630.59119 606.5397 628.26119 605.4593 625.875 604.75 C 624.7213 604.36751 623.59822 603.8519 622.5625 603.28125 C 621.75902 603.15004 621.41524 602.31523 620.6875 602 C 619.71368 601.34267 618.72479 600.67417 618.125 599.71875 C 616.25944 597.29659 614.58404 594.54467 614.4375 591.40625 C 614.24918 588.77489 615.12065 586.08826 616.84375 584.09375 C 617.1403 583.5416 617.83591 583.23004 618.375 582.78125 C 620.68364 581.12999 623.57359 580.5802 626.375 580.6875 C 627.378 580.6455 628.39542 580.52913 629.375 580.3125 C 630.41918 581.02189 631.1692 582.08705 632.15625 582.875 C 635.4228 585.91227 638.91266 588.78788 643 590.65625 C 648.35385 593.27243 654.20711 595.0041 660.1875 595.1875 C 667.05541 595.50215 673.99314 593.8814 680 590.53125 C 682.53346 589.18735 684.62063 587.19046 686.6875 585.21875 C 689.26908 582.54242 691.79976 579.77711 693.5 576.4375 C 695.48491 572.69473 696.98588 568.62858 697.53125 564.40625 C 698.3809 558.87814 697.9173 553.09378 695.75 547.90625 C 694.49924 544.91081 692.96636 541.96179 690.65625 539.65625 C 688.47939 537.30575 686.08958 535.05892 683.125 533.75 C 679.37039 531.95305 675.12331 531.36701 671 531.65625 C 668.27705 531.97054 665.62259 533.08498 663.4375 534.6875 C 662.19647 535.73181 660.81224 536.756 660.125 538.25 C 659.38517 540.05791 659.44308 542.30101 660.5625 543.90625 C 662.1979 545.98765 665.59769 546.37537 667.6875 544.75 C 669.37162 543.18785 671.66051 542.03413 674.03125 542.21875 C 676.38421 542.32814 678.54051 543.42003 680.4375 544.75 C 681.75769 545.61635 682.9981 546.36013 684 547.59375 C 684.72051 548.62492 685.57185 549.82557 686.15625 551.03125 C 688.25694 555.27088 688.47655 560.28803 687.25 564.8125 C 686.35222 568.56075 684.21878 571.8536 681.9375 574.90625 C 681.07112 576.18293 680.02657 577.29998 678.75 578.25 C 677.89226 578.85618 677.03956 579.54591 676.25 580.09375 C 672.95895 582.44223 669.04884 583.85854 665.03125 584.375 C 659.05819 585.17906 652.86692 583.92761 647.5625 581.125 C 645.10536 579.83317 642.79704 578.07383 640.625 576.46875 C 639.30168 575.34031 637.9566 574.07269 636.9375 572.78125 C 635.77661 571.19914 634.42433 569.50817 633.375 567.75 C 632.71762 566.5958 631.81297 565.57725 631.53125 564.25 C 630.35084 560.62527 628.95043 556.98562 628.875 553.125 C 628.6168 548.36481 629.70361 543.52883 631.96875 539.34375 C 633.68926 536.14026 635.85807 533.20094 638.09375 530.34375 C 638.31853 529.98365 638.7189 529.54103 638.96875 529.1875 C 641.41266 526.50401 644.01605 523.93554 646.84375 521.65625 C 647.94547 520.9052 649.13729 519.91519 650.3125 519.125 C 654.92563 515.86415 660.08213 513.21988 665.65625 512.09375 C 667.25643 511.74475 668.89286 511.54551 670.53125 511.5 z M 612.9375 611.65625 C 613.67203 612.21059 614.6835 611.75047 615.5 612.03125 C 619.17961 612.26398 623.01451 613.03617 626 615.3125 C 626.8627 615.81413 627.7983 616.69838 628.40625 617.46875 C 629.89074 619.85982 631.57163 622.1841 632.46875 624.875 C 634.29661 629.31023 635.66632 633.91673 636.71875 638.59375 C 638.04166 644.64962 638.57497 650.93463 637.71875 657.09375 C 637.27656 659.60767 636.62028 662.18743 635 664.21875 C 634.62346 664.77728 633.77009 665.36308 633.25 665.75 C 632.43116 666.36098 631.23935 666.99765 630.28125 666.34375 C 628.94668 665.06793 628.49844 663.05784 628.09375 661.25 C 627.27206 656.95995 627.35244 652.53346 626 648.34375 C 625.26748 645.9613 624.2389 643.5829 622.8125 641.5625 C 621.70942 640.22685 620.44975 639.02539 619.125 637.90625 C 617.48943 636.46399 615.2691 635.86189 613.1875 635.3125 C 607.78273 634.13139 602.19312 635.19554 596.96875 636.71875 C 594.745 637.4243 592.53369 638.27939 590.53125 639.46875 C 588.90015 640.76077 587.30649 642.18647 585.96875 643.8125 C 584.39781 645.54129 583.11214 647.53031 582.1875 649.6875 C 580.67162 652.98908 579.49592 656.48709 579.1875 660.125 C 578.91666 663.2632 579.08849 666.59684 580.5625 669.4375 C 581.20842 670.55486 582.19836 671.4908 583.25 672.21875 C 584.83319 673.04804 586.72663 673.21789 588.46875 672.90625 C 589.58496 672.61135 590.47999 671.82679 591.1875 670.96875 C 591.67371 670.37098 592.21543 669.51279 592.5 668.6875 C 593.43495 666.13282 593.61585 663.345 593.28125 660.65625 C 593.11956 658.52451 592.66521 656.33328 593.375 654.25 C 594.09061 651.64008 595.55757 649.2711 597.40625 647.3125 C 597.98568 646.75479 598.5122 646.32868 599.21875 645.9375 C 600.66929 645.01688 602.15693 644.13028 603.84375 643.71875 C 606.58265 643.01811 609.43391 642.30451 612.28125 642.5625 C 613.87991 642.76069 615.46565 643.32167 616.6875 644.375 C 618.12933 646.02379 618.51559 648.32573 618.09375 650.4375 C 617.11351 655.17889 614.14203 659.13784 611.21875 662.875 C 610.5347 663.77325 609.51399 664.6761 608.6875 665.5625 C 607.4665 666.77109 606.19193 667.87446 604.84375 668.84375 C 601.54061 671.34164 598.06165 673.58552 594.40625 675.53125 C 590.15058 677.77589 585.72536 679.7837 581.34375 681.78125 C 576.47625 683.8732 571.58975 685.97692 566.40625 687.15625 C 564.27087 687.50864 561.76821 687.75953 559.96875 686.3125 C 558.64 684.96313 558.24721 682.78556 558.375 680.875 C 558.5014 677.58516 559.26968 674.36941 560.0625 671.1875 C 561.87102 664.33323 564.26271 657.63724 566.5625 650.9375 C 568.9671 644.32465 571.35542 637.68589 574.28125 631.28125 C 575.01568 629.71775 575.84077 628.19293 576.6875 626.71875 C 576.7631 626.27185 576.76457 625.92965 577.25 625.71875 C 578.29086 624.00579 579.53692 622.1759 580.71875 620.625 C 581.56343 619.65934 582.47719 618.64951 583.53125 618.03125 C 585.49897 616.64963 587.55484 615.35685 589.875 614.65625 C 595.20655 612.86863 600.86774 612.70973 606.40625 612.0625 C 608.30057 611.78539 610.22181 611.89808 612.125 611.8125 C 612.40009 611.7899 612.67031 611.71608 612.9375 611.65625 z M 555.3125 623.625 C 557.43887 623.73104 559.996 623.78569 561.46875 625.4375 C 561.6121 625.79571 562.24582 626.02595 562.09375 626.5625 C 562.26002 627.34317 562.50166 628.12915 562.34375 628.9375 C 562.21418 632.7349 560.6861 636.27977 559.4375 639.8125 C 556.58189 647.04488 553.37344 654.15672 549.8125 661.0625 C 547.24148 665.87318 544.52887 670.62433 541.46875 675.15625 C 540.24228 676.93589 538.93508 678.79133 537.625 680.40625 C 536.96685 681.158 536.34545 681.81167 535.5 682.28125 C 534.66798 682.92251 533.66548 683.37453 532.59375 683.3125 C 531.09184 683.42402 529.31778 683.64283 528.125 682.53125 C 527.61734 681.73487 527.30647 680.56207 527.4375 679.53125 C 527.76182 675.21182 529.07002 671.05336 530.25 666.90625 C 531.91538 660.70571 534.29573 654.67273 535.3125 648.3125 C 535.57943 646.40434 535.86619 644.33021 535.125 642.5 C 534.71919 641.74627 533.80188 641.429 532.96875 641.65625 C 530.73251 641.95738 529.28385 643.86265 527.8125 645.40625 C 526.42209 646.80055 525.29584 648.47507 524.625 650.34375 C 523.41948 653.09276 523.19813 656.13124 523.375 659.09375 C 523.09675 664.17988 521.36172 669.16405 518.5625 673.40625 C 517.25927 675.49695 515.75507 677.44294 514.3125 679.4375 C 513.46951 680.48933 512.38318 681.63847 511.375 682.65625 C 509.84685 684.18947 508.2423 685.6346 506.5625 687 C 505.38857 687.75663 504.09147 688.72372 502.875 689.5625 C 497.22461 693.60759 491.08787 696.95862 484.59375 699.4375 C 477.91475 702.02373 470.94475 703.78545 463.84375 704.71875 C 458.47995 705.40518 453.09187 705.98809 447.71875 706.59375 C 447.55727 706.14076 447.65677 705.50977 447.4375 705.03125 C 445.82239 696.6642 444.03598 688.33198 442.75 679.90625 C 441.38537 670.58649 439.06299 661.42073 437.9375 652.0625 C 437.8388 651.28932 437.73394 650.41632 437.53125 649.75 C 437.74397 649.41714 437.3865 648.77521 437.96875 648.96875 C 442.88332 648.52181 447.82935 647.90446 452.78125 648.0625 C 455.13699 648.21744 457.79245 648.11459 459.6875 649.75 C 460.56069 650.84426 460.75928 652.53204 460.53125 653.96875 C 460.08552 657.43249 459.03291 660.98001 459.90625 664.46875 C 460.47348 666.54018 461.40574 668.52216 462.90625 670.0625 C 464.78462 672.07039 466.90397 673.93098 469.5 674.9375 C 474.28912 677.09598 479.67434 677.78094 484.875 677.1875 C 489.36701 676.61775 493.7847 675.07967 497.46875 672.4375 C 498.89117 671.19647 500.3607 669.92582 501.5625 668.4375 C 503.39859 666.26562 504.50846 663.53231 505.21875 660.78125 C 506.07981 657.33753 506.10029 653.62644 505.0625 650.21875 C 504.53302 650.0146 505.128 649.24972 504.625 648.96875 C 503.68401 646.4634 502.66059 643.67055 503.53125 641 C 503.90668 640.00814 504.4555 639.11027 505.09375 638.34375 C 506.28164 637.17102 507.72599 636.371 509.1875 635.5 C 513.8704 633.02324 519.02481 631.60219 524.125 630.25 C 532.09691 628.17472 540.00566 625.7927 548.125 624.34375 C 550.50581 623.98392 552.89622 623.59147 555.3125 623.625 z M 485.625 644.75 C 488.00155 644.701 490.32634 645.58419 492.1875 647.03125 C 492.61199 647.26941 493.09331 647.78613 493.3125 648.25 C 493.82925 648.74797 494.01956 649.72228 494.6875 650.1875 C 494.7788 650.74153 494.743 651.30896 494.96875 651.84375 C 495.44397 654.95794 494.04991 657.9668 492.28125 660.4375 C 491.44987 661.67206 490.53589 662.80255 489.65625 663.9375 C 488.42051 665.49862 486.788 666.49047 485.09375 667.53125 C 482.65719 669.04333 479.28431 668.75314 477.0625 666.96875 C 476.01755 666.26543 475.04926 665.65061 474.125 664.875 C 473.46815 664.39413 472.68888 663.56022 472.28125 662.84375 C 471.34782 661.50187 470.59582 659.9282 470.71875 658.25 C 470.71575 656.34916 471.6373 654.64721 472.6875 653.125 C 473.86477 651.46718 474.88599 649.81487 476.53125 648.5625 C 477.9666 647.65399 479.44182 646.37932 481.09375 645.6875 C 482.53658 645.13248 484.07042 644.74777 485.625 644.75 z M 429.40625 650.21875 C 429.57421 651.06115 429.20393 651.8937 429.25 652.75 C 429.03038 657.75164 429.1722 662.78356 429.4375 667.78125 C 429.90426 674.13808 430.68276 680.46251 431.90625 686.71875 C 433.17674 693.14084 434.97332 699.50687 437.78125 705.4375 C 438.24578 706.45844 438.71942 707.46439 439.21875 708.46875 C 428.73907 710.64697 418.25704 712.82618 407.625 714.125 C 398.24851 715.29759 388.75268 715.82856 379.3125 715.21875 C 371.53327 714.7029 363.77433 713.30495 356.46875 710.53125 C 355.73947 710.50625 355.7026 709.92932 355.65625 709.34375 C 355.45517 708.05165 354.69913 706.62553 353.28125 706.4375 C 350.80561 706.24076 348.65172 707.7907 346.90625 709.34375 C 345.09605 710.81299 343.37791 712.38551 341.59375 713.875 C 340.05221 714.65807 338.80144 715.95806 337.21875 716.6875 C 336.20342 717.23726 334.84484 717.79974 333.78125 717.125 C 332.66241 716.38334 332.64281 714.76493 332.75 713.5 C 332.89507 712.9205 332.78256 712.24186 332.9375 711.71875 C 333.3989 711.36473 333.17073 710.83505 333.40625 710.34375 C 334.06965 708.0799 334.88484 705.84623 335.90625 703.71875 C 337.02704 701.51104 338.24671 699.35215 339.5625 697.25 C 339.87141 696.74822 340.47864 696.43412 341 696.03125 C 342.35446 694.98325 344.195 695.04314 345.75 695.5625 C 348.02054 696.37524 350.26849 697.86892 352.78125 697.4375 C 357.68376 697.18664 362.28621 695.09357 366.59375 692.90625 C 369.12573 691.5173 371.45367 689.84099 373.5 687.8125 C 375.90759 685.71236 378.07077 683.21807 379.9375 680.75 C 381.16571 679.14142 382.27566 677.3667 383.53125 675.75 C 384.91187 673.89221 386.2669 671.97992 387.65625 670.21875 C 389.88583 667.59518 392.31783 664.92143 394.96875 662.84375 C 399.12262 659.63316 403.62413 656.79855 408.5625 654.96875 C 414.73372 652.56185 421.27991 651.3514 427.8125 650.40625 C 428.32985 650.35965 428.94171 650.20688 429.40625 650.21875 z M 366.125 659.25 C 367.18629 659.234 368.35145 659.52694 368.96875 660.375 C 370.06458 662.33184 369.34259 664.62049 368.6875 666.59375 C 367.02233 671.69555 363.94393 676.16665 360.84375 680.5 C 360.09366 681.51196 359.29176 682.49763 358.25 683.3125 C 357.51112 683.79944 356.65473 684.48841 355.71875 684.78125 C 354.70113 685.33259 353.55595 684.3428 353.46875 683.3125 C 352.69325 680.22828 353.68831 677.08028 354.3125 674.0625 C 355.1264 670.78957 356.4329 667.6213 358.5 664.9375 C 358.88051 664.3709 359.2573 663.94587 359.65625 663.375 C 360.04884 662.91616 360.71484 662.18796 361.21875 661.84375 C 362.77873 660.85379 364.24754 659.55653 366.125 659.25 z "
       id="path3128-7" />
  </g>
  <g
     inkscape:groupmode="layer"
     id="layer3"
     inkscape:label="2-red" />
</svg>
