<?xml version="1.0" encoding="UTF-8" standalone="no"?>
<!-- Created with Inkscape (http://www.inkscape.org/) -->

<svg
   xmlns:dc="http://purl.org/dc/elements/1.1/"
   xmlns:cc="http://creativecommons.org/ns#"
   xmlns:rdf="http://www.w3.org/1999/02/22-rdf-syntax-ns#"
   xmlns:svg="http://www.w3.org/2000/svg"
   xmlns="http://www.w3.org/2000/svg"
   xmlns:sodipodi="http://sodipodi.sourceforge.net/DTD/sodipodi-0.dtd"
   xmlns:inkscape="http://www.inkscape.org/namespaces/inkscape"
   width="3200"
   height="800"
   id="svg4770"
   version="1.1"
   inkscape:version="0.48.1 r9760"
   sodipodi:docname="Reindeer_1.svg">
  <sodipodi:namedview
     id="base"
     pagecolor="#ffffff"
     bordercolor="#666666"
     borderopacity="1.0"
     inkscape:pageopacity="0.0"
     inkscape:pageshadow="2"
     inkscape:zoom="0.4284375"
     inkscape:cx="1600"
     inkscape:cy="400"
     inkscape:document-units="px"
     inkscape:current-layer="1-default"
     showgrid="false"
     inkscape:window-width="1676"
     inkscape:window-height="1006"
     inkscape:window-x="0"
     inkscape:window-y="0"
     inkscape:window-maximized="1" />
  <defs
     id="defs4772">
    <inkscape:path-effect
       back_thickness="0.25"
       front_thickness="1"
       stroke_width_bottom="1"
       stroke_width_top="1"
       fat_output="false"
       bottom_smth_variation="0;1"
       top_smth_variation="0;1"
       scale_tb="2"
       scale_tf="2"
       scale_bb="2"
       scale_bf="2"
       top_tgt_variation="0;1"
       bottom_tgt_variation="0;1"
       top_edge_variation="0;1"
       bottom_edge_variation="0;1"
       bender="1499.7997,389.90615 , 5,0"
       do_bend="true"
       growth="0"
       dist_rdm="0;1"
       direction="1499.7997,384.90615 , 12.885364,11.169793"
       is_visible="true"
       id="path-effect5349"
       effect="rough_hatches" />
  </defs>
  <metadata
     id="metadata4775">
    <rdf:RDF>
      <cc:Work
         rdf:about="">
        <dc:format>image/svg+xml</dc:format>
        <dc:type
           rdf:resource="http://purl.org/dc/dcmitype/StillImage" />
        <dc:title />
      </cc:Work>
    </rdf:RDF>
  </metadata>
  <g
     id="1-default"
     inkscape:groupmode="layer"
     inkscape:label="1-black">
    <g
       id="g5365"
       transform="matrix(1.125134,0,0,1.125134,-171.70097,-48.801732)">
      <path
         style="fill:none;stroke:#000000;stroke-width:3.55513191;stroke-linecap:round;stroke-linejoin:round;stroke-miterlimit:4;stroke-opacity:1;stroke-dasharray:none"
         d="m 1595.5625,57.9375 c -1.0845,0.0073 -2.1892,0.167144 -3.2813,0.5 -0.7347,0.528387 -1.4493,1.116651 -2.1874,1.78125 -1.4654,0.852455 -2.2214,2.051798 -2.9688,3.125 -2.2265,2.538603 -4.4522,4.604337 -7.375,5.96875 l -0.7188,-0.5625 -0.6874,-0.8125 c -0.7073,-0.697469 -1.4249,-1.557758 -1.4063,-2.375 -2.0995,-3.045825 -4.9181,-5.087013 -8.5,-6.53125 -0.7133,-0.425055 -2.8964,-0.474735 -3.625,-0.21875 -0.7242,0.05163 -0.7103,-0.06296 -1.4375,0.125 -1.4576,0.511946 -2.934,1.623134 -3.6875,2.96875 -0.7396,0.732694 -0.7596,1.640307 -0.7813,2.59375 0.6748,2.12762 0.6348,3.664831 1.3126,5.65625 l 4.0937,10.0625 0,1.15625 c 0.6886,1.514698 1.374,3.297814 2.0625,4.8125 2.067,4.475988 5.5761,8.634948 8.375,12.71875 2.7926,4.35622 5.5993,8.51804 6.9375,13.25 0.6885,1.5147 1.3481,3.43365 1.3125,5 0.6823,1.78711 1.3544,3.91124 1.3125,5.75 -0.099,4.35858 0.5494,7.52115 0.4687,11.0625 l 0,0.59375 c -0.05,2.17928 0.6213,4.7871 0.5626,7.375 0.693,1.31039 1.3968,2.0153 1.375,2.96875 0.6805,1.8552 0.6285,4.031 1.3124,5.75 0.7057,0.76557 0.6992,1.24004 1.4063,1.9375 l -2.9687,3.46875 c -0.7505,1.20941 -1.5052,2.43439 -2.9688,3.21875 -1.4778,1.39728 -2.2442,2.67642 -3.7188,3.9375 -1.4774,1.39728 -2.959,2.78661 -5.1562,4.03125 -0.7318,0.39219 -1.4572,1.11342 -2.1875,1.4375 -1.4544,0.37574 -2.9003,0.63223 -4.3437,0.53125 -2.171,0.0869 -3.6291,-0.20717 -5.7813,-0.9375 -2.1537,-0.66224 -4.2892,-1.19236 -5.7187,-1.90625 0,0 -0.7211,-0.42991 -1.4376,-0.71875 -0.7116,-0.49316 -2.1647,-0.71999 -2.875,-1.28125 -0.7117,-0.49315 -1.4094,-1.08415 -2.8437,-1.59375 -0.7056,-0.76556 -2.1398,-1.60383 -2.8437,-2.4375 -1.4188,-1.19062 -2.8273,-1.91633 -3.5313,-2.75 0.012,-0.27242 -1.4258,-1.18077 -2.125,-2.21875 -2.1321,-1.61566 -3.5624,-3.01456 -4.9687,-4.75 -2.8007,-4.0157 -6.2845,-8.65225 -8.3438,-13.46875 0.016,-0.68102 -0.7038,-1.72323 -1.4062,-2.625 0.028,-1.22585 0.038,-2.03897 -0.6563,-3.28125 -0.6452,-3.42158 -2.0104,-6.70703 -3.375,-10.28125 -0.6869,-1.58279 -1.3579,-2.98244 -2.7813,-3.96875 0.018,-0.81723 -0.6977,-1.37063 -1.4062,-2 -0.6962,-1.17417 -1.4171,-2.2124 -2.8438,-3.0625 -0.7038,-0.83367 -2.1022,-1.75123 -2.8124,-2.3125 -1.4266,-0.8501 -2.1455,-0.94709 -3.5938,-0.84375 -0.721,-0.0846 -0.7432,0.005 -1.4688,0.125 -0.012,0.3405 -0.7431,0.59898 -1.4687,0.71875 -0.012,0.40861 -0.7392,0.64828 -0.75,1.125 -0.027,1.15775 -0.7423,1.56573 -0.75,1.90625 l -0.031,1.28125 c -0.029,1.29395 -0.065,2.52216 0.625,3.96875 1.3261,5.27678 2.6718,10.60744 4.7188,15.96875 l 2,6.25 c 0.687,1.58279 0.6394,3.70891 -0.125,5.53125 -0.012,0.54483 -0.7361,1.13708 -0.75,1.75 -0.7366,0.59649 -1.4899,1.33778 -2.2188,1.59375 -1.4527,0.30764 -2.1493,0.34897 -2.875,0.46875 -1.4435,-0.10094 -2.9033,-0.0754 -4.3437,-0.3125 -2.1615,-0.32171 -3.5993,-1.01406 -5.75,-1.8125 -3.5787,-1.58044 -7.1525,-3.03099 -10.7187,-5.15625 -2.8562,-1.564 -6.4439,-3.07457 -9.3126,-4.09375 -0.7145,-0.35695 -1.4274,-0.38097 -2.1562,-0.125 -0.7318,0.39219 -1.4556,0.92031 -2.1875,1.3125 -0.012,0.34051 -0.7361,0.51207 -0.75,1.125 l -0.062,2.65625 c -0.022,0.95343 -0.046,1.72324 0.6562,2.625 L 1471,146.375 c 0.7024,0.90178 0.6774,1.83142 1.375,2.9375 l 0,0.40625 c -0.012,0.54482 -0.025,0.9756 0.6875,1.46875 -0.013,0.61292 1.4156,1.31015 1.4063,1.71875 0.6992,1.03798 1.3913,1.94199 2.0937,2.84375 0.7071,0.69747 1.4179,1.55253 2.125,2.25 1.4204,1.12251 2.8592,2.22683 4.2813,3.28125 2.1366,1.41135 4.2752,2.6819 7.1562,3.15625 2.1491,0.86654 5.0323,1.34338 7.1875,1.9375 0.7211,0.0846 1.4366,0.31611 2.1563,0.46875 1.4464,-0.0353 2.898,-0.15431 5.0624,0.0312 1.4391,0.30528 3.5857,0.50197 5.75,0.6875 2.1601,0.38981 4.3409,0.35658 5.7813,0.59375 1.439,0.30529 3.5955,0.90226 5.0313,1.34375 1.4402,0.23717 2.8735,0.69472 4.3124,1 2.1601,0.38982 3.5955,0.621 5.0313,1.0625 5.0192,1.81761 10.0312,3.76779 14.3125,6.25 5.7138,3.0599 10.6595,7.68511 14.1562,12.875 0.6886,1.51468 0.6881,2.6047 1.375,4.1875 0.6886,1.51469 1.3772,3.1616 2.0626,4.8125 0.659,2.80863 0.5916,5.6565 0.5312,8.3125 0.6576,2.87675 0.5909,5.5976 1.25,8.40625 -0.023,1.02154 -0.043,2.18079 0.6562,3.21875 0.6701,2.33193 1.3288,4.32993 2,6.59375 -0.012,0.34052 0.6985,1.02328 0.6876,1.5 2.709,8.03376 7.6232,15.39626 14.7187,21.28125 l 6.375,5.5 7.0937,5.28125 c 6.4166,3.96168 12.8522,7.73005 20.0313,9.9375 3.5895,1.10371 8.6043,2.56299 13.625,4.3125 32.2845,10.88693 36.4161,19.71098 47.875,24.46875 l 1.5,-1.1875 c -0.059,2.58791 0.6032,4.18153 -0.125,4.4375 -2.2018,1.44895 -20.5747,46.54157 -28.3437,70.28125 -13.9538,41.38298 -28.781,57.64908 -52.6563,58.46875 -13.7472,0.50494 -37.2337,15.7368 -48.4375,31.5625 -5.2189,6.96762 -37.9004,14.66441 -67.5625,15.625 -10.1298,0.38281 -20.2877,1.37749 -21.75,2.09375 -2.1846,0.69982 -20.2819,1.17623 -41.25,1.3125 -20.2456,0.15272 -48.4365,1.13811 -61.4687,2 -13.0342,0.92999 -26.0613,1.17867 -28.9376,0.5 -7.9125,-1.74716 -16.3478,-12.23065 -26.6874,-34.40625 -4.8056,-11.21578 -11.8022,-22.00547 -16.7813,-25.59375 -12.0806,-9.20086 -38.5716,-19.53174 -42.9687,-16.90625 -5.1308,3.08577 -3.7597,6.23788 9.0312,16 12.073,9.54137 21.8311,24.67779 20.2188,32 -0.7831,2.63957 0.5756,6.71775 2.6874,9.21875 10.5924,11.07487 11.1112,19.67218 3.3438,43.34375 -7.7288,21.96901 -7.0075,22.73217 -2.4062,42.9375 6.6295,26.3839 4.1749,38.58244 -9.7813,48.28125 -11.0041,7.04044 -36.4168,11.91314 -53,9.96875 -7.2117,-0.77728 -10.8767,1.0594 -22,13.34375 -7.4113,8.00796 -19.1852,17.93677 -25.7813,21.875 -17.5889,10.50196 -57.6999,25.26645 -64.1874,24.4375 -2.8749,-0.74677 -10.1106,-0.2241 -15.9376,1.6875 -10.9311,3.83962 -29.2777,16.35806 -27.1874,19.8125 0.707,0.69747 7.1528,2.89627 13.625,4.40625 l 12.2187,3 -4.5625,9.4375 c -3.8295,9.4522 -3.8353,10.13631 3.3438,12.34375 4.3043,1.46067 9.3323,2.95069 11.5,3 2.183,-0.63172 4.336,0.0921 5.7812,0.125 1.4296,0.7139 5.8216,-1.24951 10.2188,-3.875 5.1042,-1.92803 12.4269,-5.82198 17.5312,-7.75 17.4963,-6.41579 44.6117,-22.85895 50.5625,-30.21875 2.9676,-3.33939 13.9754,-10.57958 24.9375,-15.78125 18.2963,-9.8045 19.753,-10.44729 45.7188,-7.8125 14.4201,1.69077 32.4462,3.46712 39.6562,4.3125 42.5227,5.73693 61.4537,0.0421 83.7188,-25.34375 20.7625,-22.89901 38.2326,-27.69645 78.5937,-22.28125 15.8575,2.06416 29.5234,4.91757 30.9375,6.3125 1.4157,1.32682 5.7059,2.64542 9.3125,3 8.6552,0.87827 37.6273,-0.31401 45.625,-2.3125 13.0834,-3.10928 58.885,-15.08595 74.1563,-19.03125 8.0054,-2.339 17.4449,-4.44199 19.625,-4.9375 2.901,-0.41097 8.0109,-2.18328 11.6562,-3.53125 4.3709,-1.46774 15.2049,-0.96591 26,1.1875 18.7137,3.62817 33.2026,2.13675 65.9688,-8.15625 33.4914,-10.41278 51.4471,-5.72708 84.0624,22.40625 12.7693,10.71557 24.8753,19.65786 26.3126,20.03125 1.4372,0.37339 7.7806,6.65198 13.4062,13.59375 9.8371,12.48858 10.5564,13.174 29.25,17.6875 l 20.1562,3.875 -9.8124,-13.84375 c -4.8723,-8.28737 -11.2032,-15.9472 -14.0626,-17.375 -2.856,-1.56401 -8.5103,-7.34822 -12.7187,-13.03125 -4.9325,-5.63137 -14.8532,-14.72072 -23.4063,-20.09375 -9.2754,-5.38948 -15.6581,-10.50373 -14.9062,-11.78125 0.073,-3.20083 3.6802,-2.29218 31.5938,10.0625 31.492,13.9351 49.4637,18.23265 66.875,15.5625 7.9789,-1.18126 13.7908,-3.17156 13.8124,-4.125 1.5506,-4.5981 -44.9991,-23.99283 -68.0312,-28.46875 -20.8707,-4.15419 -61.0336,-17.85505 -71.7188,-24.84375 -10.6835,-7.05681 -8.5266,-6.6836 -69.1874,-9.5625 -10.8308,-0.58705 -22.3641,-2.4929 -25.2188,-4.125 -7.1281,-4.45484 -6.1672,-14.63385 2.875,-30.78125 4.5165,-7.8694 9.7957,-17.62824 12.0625,-21.9375 2.2667,-4.30926 8.2204,-11.48444 12.6563,-15.8125 15.536,-15.59086 16.4216,-22.23798 7.75,-54.1875 -7.3168,-27.96669 -7.284,-29.54706 -2,-39.375 3.02,-5.65487 8.218,-11.86083 11.1562,-13.90625 5.8734,-3.95468 46.5903,-13.51158 51.625,-12.375 4.3168,0.91585 8.0365,-4.53772 9.6875,-13.5625 3.1812,-12.73755 0.3542,-15.16601 -24.0937,-20.96875 -17.258,-4.07201 -35.2039,-10.22145 -48.0938,-15.625 l 6.5625,-1.96875 29.75,-4.5 c 5.0795,-0.83838 10.8884,-1.783 16.6875,-2.46875 5.0703,-0.42977 9.4322,-1.62364 13.8125,-3.5 2.9227,-1.36441 5.1007,-2.67008 8.0313,-4.375 2.2,-1.38085 2.9862,-4.02665 1.5937,-6.375 -0.6746,-2.12762 -2.0848,-3.8806 -4.9687,-4.21875 -2.8796,-0.54246 -5.7725,0.0699 -8.6876,1.09375 l 3.0313,-5.84375 2.2813,-5.9375 1.5937,-6.15625 c 1.6325,-8.20755 3.2837,-16.64379 2.75,-24.96875 l 4.4687,-6.15625 c 1.4824,-1.60159 2.2332,-3.48255 2.2813,-5.59375 0.7705,-2.09473 -0.5947,-4.53087 -2.75,-5.125 -2.1506,-0.79843 -4.3279,-0.4858 -6.5313,1.03125 l -7.3437,4.78125 c -2.9335,1.84113 -5.8664,3.2261 -8.7813,4.25 -1.0617,0.37295 -2.1279,0.69218 -3.1874,0.96875 l -16.0626,19.5 7.2813,-2.5 10.1875,-3.3125 c 1.3197,5.54919 1.2184,11.07943 0.375,16.375 -1.5968,6.64119 -5.3596,12.95407 -9.8125,18.03125 -1.4745,1.26108 -3.6862,2.66197 -5.1563,3.71875 -1.4605,0.64816 -2.9144,0.88309 -4.375,1.53125 -0.7287,0.25597 -1.4588,0.55653 -2.1874,0.8125 -0.7274,0.18787 -0.7157,0.27005 -0.7188,0.40625 l -2.9062,-0.1875 c 0.048,-2.11117 0.1017,-4.17729 1.5937,-6.1875 1.507,-2.69124 3.0226,-5.71104 3.0937,-8.84375 l 0.063,-2.375 c -0.6949,-1.24228 -1.4095,-1.89666 -2.8438,-2.40625 -2.1568,-0.52604 -4.3152,-0.63734 -6.5,0.0625 -0.7272,0.18788 -0.7414,0.46839 -1.4688,0.65625 -2.9195,1.22822 -4.4077,2.90126 -6.625,5.03125 -2.2125,1.92567 -4.4344,4.13447 -6.6562,6.46875 -1.4994,2.35072 -3.0022,4.62363 -4.5,6.90625 l -1.5,2.34375 c -8.0411,3.90536 -16.0336,6.53115 -25.4688,8.15625 l -5.8124,1 -4.3438,0.46875 c 0.039,-1.70256 0.08,-3.83391 0.8438,-5.65625 0.7735,-2.23095 1.5428,-4.59474 3.0312,-6.46875 1.507,-2.69123 4.4718,-5.28188 6.6875,-7.34375 3.6809,-2.91433 7.3408,-5.2891 11,-7.25 7.3154,-3.78559 14.6329,-7.22238 21.9375,-10.53125 L 1757,254.75 l 3.6562,-1.375 7.2813,-2.5625 7.8437,-2.6875 16.1876,-19.71875 c -0.6193,0.13503 -1.2254,0.27294 -1.8438,0.375 l 2.9688,-4.21875 2.3124,-6.21875 3.0938,-8.59375 1.5312,-4.125 c 0.048,-2.11118 -0.6068,-4.23605 -2.75,-5.375 -1.428,-0.782 -3.5957,-0.60808 -5.0624,0.3125 -2.1973,1.24464 -3.6959,2.95854 -5.1876,4.96875 -2.2356,2.94721 -3.7626,5.98469 -6,9 -1.5192,3.23605 -4.4595,6.11206 -6.6874,8.71875 -5.1649,4.58404 -8.8531,8.23122 -13.2813,12.21875 -2.9537,2.72647 -7.3706,5.90689 -12.4687,7.5625 0,0.20431 -0.7479,0.39705 -1.4688,0.3125 -2.1863,0.76793 -4.3419,0.0423 -5.75,-1.625 -0.7101,-0.56125 -1.3904,-1.35023 -1.375,-2.03125 -0.7024,-0.90177 -0.6833,-1.71366 0.062,-2.71875 0.071,-3.13273 0.1202,-6.47583 -0.5313,-9.625 -0.642,-3.55777 -1.988,-6.78908 -4.0937,-9.5625 -2.1135,-2.43291 -5.7391,-2.58113 -7.9687,0.0937 -0.752,1.27752 -1.5223,3.32309 -1.5626,5.09375 0.4964,9.95942 0.2807,19.67878 0.063,29.28125 l -35.6876,11.53125 -5,-3.25 -8.5,-6.875 c -6.3792,-5.59614 -12.7484,-11.87273 -17.6562,-18.59375 -3.5076,-4.71316 -6.2967,-9.82619 -8.3438,-15.1875 -0.7116,-0.49316 -0.6913,-0.83055 -1.4062,-1.1875 -1.3583,-3.84663 -1.993,-7.59249 -1.9062,-11.40625 0.09,-3.94995 0.1908,-8.04483 2.4374,-11.46875 1.5102,-2.82744 2.9977,-5.66932 4.5,-8.15625 2.9801,-3.8842 5.9746,-7.55242 8.9376,-10.6875 3.6868,-3.18675 8.0604,-5.47859 12.4374,-7.21875 2.9276,-1.56871 7.3142,-3.30591 10.9688,-5.0625 2.9166,-1.092 4.3809,-1.53014 6.5625,-2.09375 2.9151,-1.02391 5.0928,-1.94162 8,-2.625 5.0812,-0.90649 9.4431,-2.00661 13.8125,-3.40625 l 6.5312,-1.4375 c 2.9106,-0.8196 5.8408,-2.72822 8.0626,-5.0625 1.4853,-1.73779 2.275,-3.8984 0.875,-5.90625 -0.664,-2.60434 -3.5268,-4.58253 -6.4063,-5.125 -2.8762,-0.67866 -5.755,-1.00474 -8.6563,-0.59375 -3.6233,0.39453 -6.5279,1.27616 -10.1562,1.875 l -20.875,-9.21875 -16.875,20.5 c 0.5943,0.46398 0.5689,1.40648 -0.125,1.96875 -2.9491,2.52216 -5.9024,4.8496 -8.8438,7.03125 -2.9349,1.90924 -5.8569,3.47375 -8.7812,4.90625 -0.7303,0.32408 -1.4629,0.85098 -2.9062,0.75 -3.6161,0.0541 -6.5341,0.17356 -10.1563,0.5 -0.7209,-0.0846 -2.1462,-0.25562 -2.875,0 l -0.031,0.6875 c -2.1829,0.63172 -3.6466,1.56947 -4.4062,3.1875 -0.7351,0.52838 -0.7329,1.06337 -0.75,1.8125 -0.017,0.74914 0.6679,1.99004 1.375,2.6875 0,0.1362 -0.7188,0.3125 -0.7188,0.3125 0.6886,1.5147 2.0975,2.8435 2.7813,4.5625 0.6963,1.17418 0.6513,2.46725 0.625,3.625 l -0.031,2.40625 c -0.04,1.77066 -0.8309,3.99575 -1.5937,5.75 -1.5658,5.27913 -2.4065,10.70603 -1.8125,16.375 l -0.062,3.34375 c -3.5912,-1.03561 -6.4868,-2.1271 -10.0625,-3.84375 -1.4234,-0.98631 -3.5391,-2.19236 -4.9688,-2.90625 -1.4356,-0.4415 -2.8863,-0.76196 -4.3437,-0.25 -2.1863,0.76791 -4.4168,2.90687 -3.75,5.375 -0.022,0.95344 -0.047,2.38508 0.6563,3.21875 -0.016,0.68103 0.7014,0.98081 0.6874,1.59375 1.4066,1.73543 2.8267,2.91994 4.25,3.90625 3.5665,2.12527 6.4102,4.50298 9.9688,6.96875 2.8376,2.38124 6.3874,4.90885 9.2188,7.5625 6.396,4.84701 12.0688,10.14428 17,15.84375 3.5337,3.55543 6.3441,7.46462 9.875,11.15625 l 4.9374,4.375 -0.7187,0.28125 c -13.6822,-2.35538 -26.6257,-5.93373 -39.5313,-10.65625 -5.0174,-1.88572 -9.2843,-4.10033 -13.5624,-6.71875 -4.9853,-3.31588 -9.9513,-7.23032 -14.1876,-11.6875 -3.5353,-3.48733 -6.3596,-7.37574 -8.4374,-11.375 -0.6933,-1.31039 -1.371,-2.74652 -2.0626,-4.125 -1.3428,-4.52766 -1.9551,-9.5966 -1.8437,-14.5 -0.5057,-9.5508 2.6024,-18.66907 8.5625,-26.4375 3.729,-5.02551 8.8663,-9.40303 14,-12.625 5.8625,-3.47796 11.7257,-6.55118 18.2812,-8.71875 1.4608,-0.64815 3.6348,-1.29495 5.0938,-1.875 5.8239,-1.77538 10.9386,-3.36318 16.75,-4.59375 1.4481,-0.10338 2.1822,-0.29208 2.9062,-0.34375 1.45,-0.17144 2.1738,-0.13547 3.625,-0.375 0,0 1.4353,0.10293 2.1563,0.1875 2.1693,-0.0188 4.3504,-0.43839 7.25,-0.78125 0.3621,-0.0258 0.6751,-0.0585 0.9687,-0.0625 0.8815,-0.0119 1.5437,0.0607 2.625,0.1875 0.5409,0.0634 1.4798,0.32897 2.2188,0.75 l 0.031,0 16.7188,-20.34375 -1.1562,-0.5 1.5624,-5.0625 c 1.5737,-5.61964 3.1468,-11.51257 3.2813,-17.4375 0.05,-2.17928 -2.0796,-4.06499 -3.5,-5.1875 -1.4264,-0.85011 -3.5676,-0.84682 -5.0313,-0.0625 -2.1814,0.56361 -3.681,1.67443 -4.4374,3.15625 -0.7692,2.02664 -1.5435,4.28585 -2.3126,6.3125 -0.7875,2.84387 -2.2804,5.39367 -3.7812,7.8125 -0.7783,2.43526 -2.2568,4.51544 -3.75,6.59375 -0.7534,1.34562 -2.248,2.81624 -3,4.09375 l -2.1562,-0.125 -3.625,0.53125 -10.9063,2.8125 -10.9375,3.15625 -13.0625,3.25 c -4.3664,1.26343 -8.7105,1.65265 -12.3125,1.09375 l -2.125,-2.1875 c -1.4141,-1.39492 -2.1248,-2.88794 -2.0938,-4.25 0.012,-0.34051 -0.6952,-0.44073 -0.6874,-0.78125 -0.6856,-1.6509 -0.6553,-3.14155 -1.3438,-4.65625 l 0.125,-5.1875 c 0.033,-1.43015 0.064,-2.85869 0.8125,-4 0.013,-0.61292 0.7422,-1.40948 0.75,-1.75 0.7381,-0.66459 1.4731,-1.2449 2.2187,-2.25 0.7475,-1.07321 2.2245,-2.46925 2.9688,-3.40625 1.4636,-0.78436 2.9432,-1.71924 3.6875,-2.65625 l 5.875,-4.5625 4.4375,-3.4375 c 2.2094,-1.78947 4.4086,-3.998633 5.9062,-6.28125 1.4763,-1.329176 1.4949,-2.492527 2.25,-3.90625 0.7552,-1.413722 0.8153,-3.397146 0.125,-4.84375 -2.1058,-2.773411 -5.6938,-3.864779 -9.3437,-2.3125 -7.3061,3.376984 -13.1894,7.620774 -19.0937,12.9375 -0.012,0.272413 -0.74,0.712777 -1.4688,0.96875 -0.7256,0.119735 -0.7103,-0.06296 -1.4375,0.125 -2.8919,0.0024 -5.7684,-1.447337 -7.1563,-4 -0.6884,-1.514698 -1.3739,-3.079052 -2.0624,-4.59375 0,-0.136213 -0.722,-0.238799 -0.7188,-0.375 -0.6823,-1.787112 -0.6357,-3.411222 -0.5938,-5.25 0.7504,-1.209403 0.7786,-2.906382 2.25,-4.03125 0.7661,-1.890443 2.2632,-3.506603 3.75,-5.3125 2.9569,-2.86267 5.1963,-6.065239 6.7188,-9.4375 0.7551,-1.413722 0.7867,-2.783371 0.094,-4.09375 -0.6964,-1.17419 -2.1084,-2.22883 -2.8126,-3.0625 -0.7116,-0.49315 -2.1836,-0.514821 -2.9062,-0.53125 l 0.031,-0.03125 c -0.3607,-0.02524 -0.7322,-0.03368 -1.0937,-0.03125 z"
         id="path3128"
         inkscape:connector-curvature="0" />
      <path
         style="fill:none;stroke:#000000;stroke-width:3.55513191;stroke-linecap:round;stroke-linejoin:round;stroke-miterlimit:4;stroke-opacity:1;stroke-dasharray:none"
         d="m 1899.5259,658.43765 c 0,0 0.9493,1.49767 -2.9601,0.80563 -3.9095,-0.69204 1.9603,-2.24532 -0.017,-5.15056 -1.9775,-2.90525 -3.891,4.45717 -7.6912,3.64005 -3.8003,-0.81712 5.7171,-6.54922 3.7413,-9.45689 -1.9758,-2.90768 -7.5225,8.61793 -11.2539,7.72191 -3.7314,-0.89603 9.2815,-10.63346 7.2802,-13.51232 -2.0014,-2.87886 -11.0708,12.68412 -14.4629,11.39932 -3.392,-1.2848 12.6312,-14.4726 10.245,-16.91083 -2.3862,-2.43823 -13.5359,15.51017 -16.4024,13.62316 -2.8665,-1.88701 13.7566,-15.76385 11.2229,-18.03317 -2.5338,-2.26931 -14.1637,16.23124 -16.3792,13.59816 -2.2156,-2.63309 13.8647,-15.88964 11.5334,-18.39128 -2.3314,-2.50163 -13.7332,15.74002 -15.9368,13.09287 -2.2037,-2.64714 13.6199,-15.61113 11.3704,-18.20701 -2.2494,-2.59589 -13.5624,15.54648 -15.8722,13.02067 -2.3098,-2.52581 13.6439,-15.64082 11.3154,-18.14635 -2.3286,-2.50553 -13.6211,15.61576 -16.0366,13.21077 -2.4155,-2.405 13.7002,-15.70731 11.1853,-17.99946 -2.5149,-2.29215 -13.5575,15.54489 -16.2011,13.40109 -2.6436,-2.1438 13.7688,-15.78804 10.9348,-17.71441 -2.8341,-1.92637 -13.6796,15.68665 -16.4387,13.675 -2.7591,-2.01165 13.6706,-15.67707 10.8966,-17.67251 -2.774,-1.99544 -13.6465,15.65038 -16.3738,13.60212 -2.7273,-2.04826 13.5723,-15.56601 10.6637,-17.40724 -2.9086,-1.84124 -13.3824,15.34908 -16.15,13.34678 -2.7676,-2.0023 13.2079,-15.14951 10.4216,-17.13131 -2.7862,-1.9818 -13.2786,15.23154 -15.9183,13.08237 -2.6397,-2.14918 13.242,-15.19031 10.7058,-17.45915 -2.5363,-2.26883 -13.3489,15.31388 -15.9722,13.14564 -2.6233,-2.16824 12.3752,-16.78715 12.3752,-16.78715 m 110.059,18.72536 c 0,0 2.0476,0.23993 -3.7565,1.72013 -5.8042,1.48021 2.3375,-2.68099 -0.636,-4.44757 -2.9735,-1.76658 -5.1243,5.87739 -10.0229,6.31889 -4.8985,0.4415 7.0519,-8.08844 3.9286,-9.68331 -3.1233,-1.59487 -8.7955,10.08858 -13.0788,9.82443 -4.2833,-0.26414 9.957,-11.42107 6.6641,-12.82147 -3.293,-1.4004 -10.9135,12.51849 -14.8076,11.80799 -3.8941,-0.7105 11.519,-13.21342 8.1952,-14.57845 -3.3239,-1.36503 -12.0711,13.84707 -15.7713,12.91407 -3.7001,-0.93299 12.4486,-14.28048 9.078,-15.59198 -3.3706,-1.31151 -12.7696,14.64922 -16.309,13.53184 -3.5394,-1.11738 12.9397,-14.84484 9.5124,-16.09134 -3.4273,-1.24649 -13.0499,14.97175 -16.4981,13.74959 -3.4481,-1.22217 13.0713,-14.99665 9.5782,-16.16775 -3.4931,-1.1711 -13.0246,14.94365 -16.3959,13.63321 -3.3712,-1.31044 12.9123,-14.81521 9.3133,-15.86482 -3.599,-1.04961 -12.683,14.55265 -15.9901,13.16851 -3.3071,-1.38415 12.3862,-14.21258 8.6895,-15.15007 -3.6968,-0.93749 -11.988,13.7561 -15.2678,12.34044 -3.2797,-1.41565 11.5655,-13.27158 7.8126,-14.14466 -3.7529,-0.87307 -11.0888,12.72501 -14.359,11.29831 -3.2702,-1.42671 10.5791,-12.14042 6.8901,-13.08694 -3.6889,-0.94652 -10.1568,11.65621 -13.4453,10.25049 -3.2886,-1.40572 9.7588,-11.19975 6.131,-12.21656 -3.6278,-1.0168 -9.4159,10.80663 -12.7515,9.45473 -3.3355,-1.35191 9.1259,-10.47403 5.5411,-11.5402 -3.5849,-1.06617 -8.8718,10.18278 -12.2929,8.92899 -3.4211,-1.2538 8.7114,-9.99896 5.1852,-11.13249 -3.5262,-1.13353 -10.736,9.73271 -10.736,9.73271 m 5.465,-11.45414 c 0,0 -24.9226,31.19036 -27.5308,29.00458 -2.6082,-2.18579 25.7761,-29.58099 22.31,-30.78356 -3.4662,-1.20257 -24.9188,28.5985 -27.5093,26.3921 -2.5905,-2.2064 24.0424,-27.59381 20.6241,-28.85141 -3.4183,-1.25761 -23.1518,26.573 -25.9483,24.60272 -2.7965,-1.97029 22.5281,-25.85816 19.1659,-27.1802 -3.3623,-1.32205 -21.9656,25.21362 -24.9628,23.47348 -2.9972,-1.74014 21.596,-24.79038 18.3068,-26.19633 -3.2893,-1.40594 -21.3073,24.45997 -24.4791,22.92008 -3.1718,-1.5399 21.1841,-24.31946 18.0123,-25.86038 -3.1718,-1.54093 -21.1726,24.30727 -24.5219,22.97103 -3.3494,-1.33625 21.345,-24.50616 18.3337,-26.23155 -3.0113,-1.72539 -21.671,24.88147 -25.3457,23.91852 -3.6746,-0.96294 22.5726,-25.91761 19.3175,-27.36308 -3.2552,-1.44547 -22.9746,26.37995 -27.1081,25.94364 -4.1334,-0.4363 23.7477,-27.2683 19.7282,-27.83579 -4.0196,-0.56749 -23.8518,27.38821 -28.4708,27.50917 -4.619,0.12096 24.4429,-28.06711 20.2295,-28.41201 -4.2133,-0.3449 -24.8325,28.51462 -30.0401,29.3112 -5.2076,0.79658 25.806,-29.63223 21.5087,-29.88069 -4.2973,-0.24846 -26.7324,30.69576 -32.6074,32.25836 -5.875,1.56259 28.3181,-32.51607 23.9924,-32.73184 -4.3258,-0.21576 -29.9587,34.39917 -36.0298,36.18666 -6.0711,1.78748 31.7031,-36.40139 27.3806,-36.62094 -4.3225,-0.21956 -33.4887,38.45085 -39.3347,39.97979 -5.8459,1.52894 35.0114,-40.19833 30.6993,-40.42985 -4.3121,-0.23153 -36.5536,41.96838 -42.0278,43.07065 -5.4742,1.10227 37.7149,-43.30119 33.4202,-43.5527 -4.2947,-0.2515 -38.9142,44.67762 -43.8737,45.18925 -4.9595,0.51163 39.5589,-45.41757 35.3561,-45.77461 -4.2029,-0.35703 -40.3093,46.279 -44.7706,46.21895 -4.4612,-0.06 40.5549,-46.56122 36.5683,-47.16665 -3.9866,-0.60543 -40.9963,47.06853 -45.0662,46.55944 -4.07,-0.50909 41.0597,-47.14203 37.4054,-48.12928 -3.6542,-0.98724 -41.4452,47.58559 -45.3994,46.94368 -3.9542,-0.64191 41.5806,-47.74182 39.2279,-50.22462 -2.3527,-2.4828 -43.153,49.54937 -47.2235,49.04089 -4.0705,-0.50849 44.6475,-51.26691 44.1858,-55.92329 -0.4617,-4.65639 -48.2237,55.37742 -52.6421,55.26822 -2.2092,-0.0546 10.705,-14.87338 24.5474,-30.77057 13.8424,-15.89719 28.6116,-32.87281 30.1547,-37.24108 1.5431,-4.36827 -13.1213,12.49185 -28.9143,30.63235 -15.793,18.1405 -32.7169,37.56139 -35.6301,38.31464 -2.9133,0.75325 14.2673,-18.95977 33.0873,-40.57846 18.82,-21.61869 39.276,-45.14305 42.9911,-52.01247 3.7151,-6.86943 -16.8249,16.76245 -39.0404,42.28818 -22.2155,25.52572 -46.1114,52.94529 -48.9835,53.65125 -2.8721,0.70595 26.6691,-33.18752 57.0129,-68.06595 30.3438,-34.87843 61.4871,-70.74182 62.0382,-73.97569 0.5511,-3.23387 -30.5798,32.62323 -62.6362,69.4747 -32.0565,36.85148 -65.0421,74.69733 -67.9471,75.44098 -2.9049,0.74365 29.9819,-36.98572 63.4464,-75.45587 33.4645,-38.47015 67.5042,-77.68109 67.1741,-79.90058 -0.3302,-2.21948 -34.3653,36.9923 -69.1193,76.94785 -34.7539,39.95554 -70.2295,80.65483 -73.1448,81.41036 -2.9154,0.75553 32.5562,-39.93612 68.5663,-81.33567 36.01,-41.39956 72.5558,-83.50701 72.1007,-85.58309 -0.4551,-2.07608 -36.9958,40.03184 -74.2357,82.84839 -37.2399,42.81656 -75.1817,86.34175 -78.0997,87.10023 -2.918,0.75847 35.0249,-42.76459 73.4839,-86.98276 38.4591,-44.21818 77.4315,-89.13147 76.9291,-91.15344 -0.5024,-2.02198 -39.4696,42.89177 -79.1345,88.49951 -39.6649,45.60775 -80.0303,91.90949 -82.9445,92.6635 -2.9141,0.75401 37.4514,-45.54432 78.3174,-92.53302 40.866,-46.98869 82.2296,-94.66774 81.7142,-96.67517 -0.5154,-2.00744 -41.875,45.67382 -83.9367,94.04074 -42.0617,48.36693 -84.8287,97.41952 -87.7266,98.15475 -2.8978,0.73523 39.8709,-48.31565 83.128,-98.05702 43.2571,-49.74136 86.9995,-100.17321 86.5005,-102.1999 -0.4991,-2.0267 -44.2363,48.4064 -88.6951,99.53317 -44.4588,51.12678 -89.6425,102.94722 -92.5515,103.69523 -2.909,0.748 42.2668,-51.05939 87.9409,-103.58362 45.6741,-52.52422 91.8431,-105.76529 91.424,-107.88465 -0.419,-2.11936 -46.5825,51.12329 -93.4988,105.07995 -46.9163,53.95666 -94.5889,108.62732 -97.4881,109.364 -2.8992,0.73669 44.7489,-53.90148 92.9754,-109.36501 48.2265,-55.46353 97.0273,-111.75243 96.9939,-114.31723 -0.033,-2.56479 -48.8472,53.74921 -98.4988,110.85691 -49.6517,57.10771 -100.1452,115.00912 -102.934,115.61914 -2.7888,0.61003 48.4254,-58.76132 100.174,-118.28517 51.7487,-59.52385 104.0309,-119.20021 104.0309,-119.20021 m 71.9224,-36.13378 c 0,0 -3.6736,6.84888 -8.4212,7.11909 -4.7476,0.27021 10.1489,-11.72101 10.3888,-17.21278 0.24,-5.49178 -15.1305,17.47622 -20.5309,18.50024 -5.4004,1.02402 20.3156,-23.46638 17.2958,-25.19237 -3.0199,-1.726 -22.7137,26.23656 -28.3268,27.50618 -5.6132,1.26962 25.3119,-29.23804 21.8231,-30.42221 -3.4889,-1.18417 -27.3951,31.64431 -33.2946,33.24442 -5.8995,1.60011 29.7477,-34.36156 26.0533,-35.30826 -3.6945,-0.9467 -31.6885,36.60326 -38.3413,39.07294 -6.6529,2.46968 34.6478,-40.02073 30.9546,-40.96888 -0.9233,-0.23704 -17.5196,18.29738 -42.0092,46.2401 -24.4897,27.94271 -56.8808,65.29371 -89.3662,102.68981 -32.4855,37.39611 -65.0654,74.83732 -89.8442,102.96046 -24.7788,28.12313 -41.7485,46.9282 -42.9848,47.05201 -1.2364,0.12382 14.4967,-18.55711 38.6969,-46.66344 24.2002,-28.10634 56.8594,-65.63807 89.5028,-103.21587 32.6434,-37.5778 65.2711,-75.20167 89.4975,-103.49226 24.2264,-28.29059 40.0595,-47.24791 39.1428,-47.49261 -0.9166,-0.24471 -17.6619,18.46296 -42.3761,46.66597 -24.7141,28.20301 -57.4055,65.90136 -90.1863,103.63802 -32.7809,37.73667 -65.6513,75.51164 -90.6333,103.86788 -24.9821,28.35625 -42.0677,47.29378 -43.25,47.35554 -1.1822,0.0618 14.7209,-18.81369 39.1459,-47.17802 24.4251,-28.36432 57.3637,-66.21752 90.281,-104.11124 32.9172,-37.89372 65.8129,-75.82796 90.2425,-104.35437 24.4296,-28.52641 40.4013,-47.64499 39.4999,-47.90738 -0.9013,-0.26239 -17.7744,18.59407 -42.688,47.02856 -24.9136,28.43449 -57.8762,66.447 -90.9283,104.49669 -33.052,38.04969 -66.1936,76.13656 -91.3734,104.71978 -25.1798,28.58322 -42.3895,47.66278 -43.5485,47.69785 -1.159,0.0351 14.8923,-19.00997 39.5269,-47.61492 24.6346,-28.60496 57.8441,-66.76982 91.0306,-104.97439 33.1864,-38.20457 66.3497,-76.44886 90.9838,-105.21265 24.6341,-28.7638 40.7473,-48.04711 39.8634,-48.32973 -0.8839,-0.28261 -17.8812,18.71873 -42.9893,47.37905 -25.108,28.66032 -58.3353,66.9796 -91.6502,105.33286 -33.3148,38.35326 -66.7173,76.74049 -92.0825,105.53669 -25.3653,28.79621 -42.6847,48.00139 -43.8037,47.99055 -1.1189,-0.0108 15.0813,-19.22647 39.917,-48.06258 24.8357,-28.83611 58.2985,-67.29269 91.7343,-105.78544 33.4357,-38.49274 66.8444,-77.02165 91.6651,-106.0024 24.8208,-28.98074 41.062,-48.41333 40.1932,-48.71345 -0.8688,-0.30011 -17.9825,18.83706 -43.2661,47.70164 -25.2837,28.86458 -58.7459,67.45657 -92.2823,106.06608 -33.5363,38.60952 -67.1468,77.23656 -92.6322,106.17125 -25.4854,28.9347 -42.8371,48.17704 -43.8261,48.01715 -0.989,-0.15988 15.3738,-19.56222 40.3806,-48.59566 25.0069,-29.03345 58.6494,-67.69801 92.25,-106.38235 33.6006,-38.68435 67.1594,-77.38847 92.0928,-106.50104 24.9334,-29.11257 41.25,-48.63359 40.3968,-48.95173 -0.8532,-0.31814 -18.0063,18.86587 -43.3466,47.79769 -25.3403,28.93183 -58.8766,67.61147 -92.4663,106.2846 -33.5896,38.67313 -67.2328,77.33976 -92.6916,106.24555 -25.4589,28.90579 -42.7247,48.05074 -43.5303,47.68054 -0.8055,-0.3702 15.6545,-19.88545 40.7048,-48.97091 25.0502,-29.08545 58.6824,-67.74111 92.2516,-106.39211 33.5692,-38.651 67.0754,-77.29735 91.9674,-106.3642 24.8921,-29.06685 41.1783,-48.5542 40.338,-48.88719 -0.8404,-0.33299 -17.9734,18.82902 -43.2986,47.74553 -25.3253,28.91652 -58.8517,67.58755 -92.4493,106.27259 -33.5977,38.68504 -67.2666,77.38411 -92.782,106.3567 -25.5153,28.97259 -42.8683,48.21871 -43.8042,47.99787 -0.9358,-0.22085 15.3853,-19.73959 40.3527,-48.89348 24.9674,-29.15389 58.5725,-67.94293 92.2354,-106.70437 33.6629,-38.76143 67.3836,-77.49526 92.6768,-106.53873 25.2932,-29.04347 42.1674,-48.39658 42.1674,-48.39658 m 75.1811,-24.3087 c 0,0 -2.2304,5.19127 -9.4545,8.32641 -7.224,3.13514 9.207,-10.65106 4.9173,-10.9102 -4.2896,-0.25913 -11.536,13.3451 -16.7436,14.14776 -5.2076,0.80265 9.766,-11.2967 8.8297,-15.43586 -0.9363,-4.13916 -14.0349,16.23584 -19.2259,17.01918 -5.1909,0.78333 22.688,-26.24802 24.4777,-33.54449 1.7897,-7.29648 -29.6663,34.32519 -34.8588,35.11036 -5.1925,0.78517 36.6735,-42.43605 37.4981,-48.61761 0.8246,-6.18156 -17.5956,20.37065 -15.7993,13.06644 1.7963,-7.3042 16.2773,-18.84663 16.8336,-24.71934 0.5563,-5.8727 -15.4916,17.94072 -15.8128,13.08611 -0.3211,-4.85461 23.7042,-27.45806 20.1631,-28.58499 -3.5411,-1.12694 -19.2054,22.24903 -22.8004,21.18514 -3.595,-1.0639 15.0032,-17.38004 7.4208,-13.82455 -7.5824,3.55549 -15.3377,15.15245 -15.3377,15.15245 m -7.9309,40.52715 c 0,0 -9.4243,13.51119 -14.6376,14.32039 -5.2133,0.80919 10.4177,-12.04939 6.3672,-12.58513 -4.0505,-0.53573 -11.5924,13.40808 -16.7325,14.13252 -5.1401,0.72444 11.9443,-13.81354 15.9286,-23.64673 3.9844,-9.83319 -23.9698,25.11623 -23.9698,25.11623 m 25.6034,-34.84188 c 0,0 -18.7241,21.84279 -46.9224,54.59583 -28.1983,32.75304 -65.8819,76.41635 -103.7624,120.05739 -37.8805,43.64104 -75.9579,87.25981 -104.8234,119.9238 -28.8655,32.66399 -48.5081,54.37319 -49.4812,54.19508 -0.9731,-0.17811 17.7564,-22.29615 46.1928,-55.27818 28.4364,-32.98203 66.5686,-76.82804 104.4414,-120.46208 37.8728,-43.63404 75.4864,-87.05611 103.0076,-119.19027 27.5212,-32.13415 44.9615,-52.98039 42.5218,-51.46275 -9.7588,6.07055 -11.1494,10.29051 -11.1494,10.29051 m -8.0004,9.25552 c 0,0 -17.4751,20.38434 -43.7949,50.95141 -26.3197,30.56707 -61.4937,71.31686 -96.8577,112.04774 -35.3641,40.73089 -70.9183,81.44287 -97.8937,111.93432 -26.9754,30.49144 -45.3623,50.76236 -46.3588,50.61113 -1.9931,-0.30248 38.6548,-46.91945 78.8176,-93.0925 40.1628,-46.17305 79.8426,-91.90217 76.3074,-90.42894 -3.5352,1.47322 -43.2193,47.20269 -82.6199,92.497 -39.4006,45.29431 -78.5161,90.15347 -80.5397,89.8861 -2.0237,-0.26738 37.1764,-45.22491 76.1583,-90.03801 38.9818,-44.81311 77.7461,-89.4818 75.22,-89.1715 -2.526,0.3103 -41.2893,44.97677 -80.0287,89.51068 -38.7394,44.53391 -77.4542,88.93526 -79.5193,88.7153 -2.065,-0.21996 36.7594,-44.74788 75.2754,-89.02533 38.5159,-44.27744 76.7245,-88.3044 73.789,-87.52244 -2.9354,0.78196 -41.1434,44.80597 -79.2356,88.59497 -38.0921,43.78899 -76.0674,87.34298 -78.1864,87.18491 -2.119,-0.15808 35.9317,-43.80007 73.1836,-86.62254 37.2519,-42.82247 73.7084,-84.82542 68.7433,-81.70538 -4.9651,3.12003 -41.4256,45.11889 -77.278,86.32753 -35.8524,41.20864 -71.0938,81.62705 -73.315,81.58617 -2.2211,-0.0409 29.5083,-36.43279 60.7334,-72.31397 31.225,-35.88119 61.9474,-71.25167 57.9515,-69.24969 -3.9958,2.00198 -34.718,37.3677 -65.0976,72.27462 -30.3796,34.90693 -60.4152,69.35505 -62.8174,69.52184 -2.4023,0.16679 27.7676,-34.4356 57.7391,-68.87303 29.9716,-34.43744 59.7453,-68.70993 56.7704,-67.88335 -2.9749,0.82658 -32.7296,35.07538 -62.4802,69.25778 -29.7507,34.1824 -59.4971,68.29839 -62.243,68.85934 -2.7459,0.56095 27.0128,-33.56821 56.7247,-67.70504 29.7119,-34.13682 59.3769,-68.2813 56.6594,-67.75098 -2.7176,0.53032 -32.3787,34.66966 -62.3226,69.07183 -29.9439,34.40217 -60.1713,69.06719 -63.8074,70.64888 -3.6361,1.58169 26.6032,-33.09358 57.0499,-68.07096 30.4466,-34.97739 61.0995,-70.2569 58.5185,-69.88369 -2.5811,0.37322 -33.304,35.73523 -66.2368,73.56502 -32.9327,37.82979 -68.0827,78.12737 -79.2785,88.3717 -11.1958,10.24434 23.9766,-30.05197 61.2368,-72.8351 37.2601,-42.78313 76.597,-88.0531 74.0822,-87.75608 -2.5149,0.29702 -40.6387,44.17322 -79.0584,88.28726 -38.4198,44.11405 -77.1366,88.46594 -80.4833,89.71435 -3.3466,1.24841 35.381,-43.11242 74.2524,-87.74262 38.8713,-44.6302 77.8852,-89.52977 75.4799,-89.35884 -2.4053,0.17093 -41.3721,45.01625 -80.4938,89.93327 -39.1218,44.91702 -78.3988,89.90573 -81.0552,90.36345 -2.6564,0.45772 36.6251,-44.53491 75.8846,-89.6092 39.2595,-45.0743 78.4967,-90.23026 76.126,-90.09924 -2.3706,0.13103 -41.5891,45.26532 -80.89,90.38674 -39.3008,45.12142 -78.684,90.22998 -81.0102,90.30953 -2.3263,0.0796 37.0714,-45.04556 76.3453,-90.13585 39.274,-45.09028 78.4242,-90.14573 75.9772,-89.92684 -2.447,0.21889 -41.594,45.26991 -80.7691,90.24646 -39.1752,44.97656 -78.3783,89.87864 -80.5662,89.79965 -2.1878,-0.079 37.0071,-44.97206 76.0148,-89.75629 39.0077,-44.78423 77.8287,-89.45963 75.2623,-89.10328 -2.5665,0.35634 -41.386,45.0289 -80.18,89.56722 -38.794,44.53832 -77.5619,88.94241 -79.6611,88.76182 -2.0991,-0.18058 36.6789,-44.59689 75.3074,-88.94539 38.6285,-44.34851 77.1077,-88.6292 74.7721,-88.53855 -2.3356,0.0906 -40.8094,44.36476 -79.3053,88.56099 -38.4958,44.19622 -77.0134,88.31457 -79.0774,88.09371 -2.064,-0.22086 36.4643,-44.35209 74.8443,-88.41566 38.38,-44.06358 76.612,-88.05951 74.3119,-88.00976 -2.3,0.0497 -40.5321,44.04556 -78.7938,87.97329 -38.2616,43.92772 -76.5524,87.78735 -78.6148,87.5647 -2.0625,-0.22265 36.2217,-44.07536 74.3623,-87.86438 38.1405,-43.78901 76.1375,-87.51433 73.8528,-87.48219 -2.2847,0.0321 -40.2819,43.75735 -78.3113,87.41883 -38.0293,43.66149 -76.0906,87.25924 -78.1529,87.03646 -2.0623,-0.22279 35.9997,-43.82202 73.9216,-87.36054 37.922,-43.53852 75.7041,-87.01633 73.4298,-86.99626 -2.2742,0.0201 -40.0564,43.49777 -77.8727,86.91514 -37.8164,43.41737 -75.6666,86.77441 -77.7303,86.55314 -2.0636,-0.22126 35.7874,-43.57978 73.4971,-86.87509 37.7097,-43.29531 75.2784,-86.52742 72.9941,-86.49586 -2.2842,0.0316 -39.8529,43.26355 -77.4531,86.43314 -37.6001,43.16959 -75.2314,86.27678 -77.2978,86.05869 -2.0664,-0.21808 35.5647,-43.32577 73.0494,-86.36313 37.4846,-43.03737 74.8231,-86.00441 72.5114,-85.94121 -2.3117,0.0632 -39.6504,43.03014 -77.0135,85.92797 -37.3631,42.89783 -74.7505,85.72656 -76.8211,85.51334 -2.0707,-0.21322 35.3171,-43.04311 72.5605,-85.80383 37.2434,-42.76071 74.3427,-85.45224 72.0307,-85.38873 -2.3119,0.0635 -39.4125,42.7562 -76.5385,85.3821 -37.126,42.62589 -74.2771,85.18499 -76.3561,84.9813 -2.079,-0.2037 35.0721,-42.76333 72.0794,-85.25333 37.0074,-42.48999 73.8713,-84.91034 71.5494,-84.83545 -2.3219,0.0749 -39.1768,42.48462 -76.0732,84.84721 -36.8964,42.3626 -73.8341,84.67806 -75.9917,84.56442 -2.1576,-0.11365 34.7803,-42.42968 71.5905,-84.69352 36.8103,-42.26383 73.4931,-84.47546 71.1536,-84.38028 -2.3395,0.0952 -39.01,42.29235 -75.7823,84.51245 -36.7723,42.2201 -73.6465,84.46311 -76.0664,84.64994 -2.4198,0.18683 34.4553,-42.05682 71.2619,-84.3159 36.8065,-42.25908 73.5445,-84.5336 71.179,-84.40853 -2.3655,0.12507 -24.5331,25.63278 -45.9982,50.29987 -21.4651,24.66709 -42.2256,48.49356 -41.6618,45.25615 0.5637,-3.2374 21.3177,-27.06159 41.3182,-50.04852 20.0005,-22.98693 39.2491,-45.13659 36.8953,-45.02496 -2.3539,0.11163 -21.672,22.34037 -40.4654,43.94056 -18.7934,21.60018 -37.0606,42.5718 -37.2248,40.16921 -0.1642,-2.4026 18.0984,-23.37228 35.7964,-43.71541 17.698,-20.34313 34.8325,-40.05969 32.4856,-39.95604 -2.3468,0.10366 -19.4894,19.82876 -36.1565,38.98738 -16.667,19.15862 -32.8576,37.75075 -33.2316,35.58846 -0.3739,-2.16229 15.8081,-20.74725 31.4949,-38.78059 15.6868,-18.03333 30.8793,-35.51504 28.5841,-35.47081 -2.2952,0.0442 -17.4934,17.53188 -32.2454,34.49103 -14.752,16.95915 -29.0571,33.38978 -29.5119,31.31994 -0.4549,-2.06985 13.8366,-18.48706 27.6982,-34.4239 13.8616,-15.93684 27.2941,-31.3933 25.1662,-31.54163 -2.1279,-0.14832 -15.5659,15.31419 -28.5972,30.29696 -13.0314,14.98277 -25.6554,29.48579 -26.1129,27.4185 -0.9149,-4.1346 50.3757,-57.92161 47.4706,-59.77259 -2.905,-1.85098 -48.4837,55.75093 -49.1131,51.28731 -0.6294,-4.46361 46.4139,-53.37517 44.0419,-55.83987 -2.372,-2.46469 -45.0298,51.78865 -43.4723,44.80981 1.5576,-6.97884 41.0954,-47.26884 38.873,-49.9061 -2.2223,-2.63727 -36.8974,42.44697 -34.2246,34.18266 2.6729,-8.2643 31.9176,-36.72248 30.0392,-39.7561 -1.8784,-3.03361 -27.1835,31.28119 -25.8129,24.51173 1.3706,-6.76946 24.0008,-27.62162 22.3294,-30.89405 -1.6715,-3.27243 -21.0049,24.17736 -21.2664,19.28407 -0.2616,-4.89329 19.6074,-22.57084 17.9992,-25.91673 -1.6081,-3.3459 -18.3417,21.11639 -19.7207,17.50833 -1.379,-3.60806 18.1249,-20.86837 16.4811,-24.17383 -1.6437,-3.30547 -17.8729,20.58044 -20.0478,17.88793 -2.1748,-2.69251 18.4149,-21.20589 16.6423,-24.36346 -1.7727,-3.15756 -18.8367,21.69353 -20.7928,18.74882 -1.9562,-2.94472 19.0228,-21.90947 17.0909,-24.88402 -1.932,-2.97455 -18.7913,21.64503 -18.8537,16.51868 -0.062,-5.12634 16.9072,-19.47651 14.8685,-22.32842 -2.0387,-2.85192 -15.2514,17.57104 -16.7805,14.13315 -1.5291,-3.43789 14.8345,-17.092 12.0015,-19.02896 -2.8329,-1.93696 -13.3572,15.39126 -15.3639,12.50294 -2.0066,-2.88831 12.5493,-14.46096 9.6139,-16.28007 -2.9354,-1.8191 -11.7104,13.49537 -13.9304,10.85239 -2.2199,-2.64298 10.9952,-12.67166 7.9208,-14.33064 -3.0745,-1.65899 -10.1445,11.69209 -12.5401,9.25121 -2.3956,-2.44088 9.4828,-10.92995 6.2338,-12.38781 -3.249,-1.45786 -8.6342,9.95236 -11.1684,7.671 -2.5343,-2.28135 7.9182,-9.12749 4.5162,-10.40905 -3.402,-1.28155 -7.0639,8.14316 -9.6824,5.95868 -2.6186,-2.18449 6.2843,-7.24482 2.7101,-8.32793 -3.5742,-1.08312 -5.6397,6.50207 -7.7622,3.7454 -2.1224,-2.75666 2.1681,-5.10164 2.1681,-5.10164 m 535.289,-170.01408 c 0,0 -3.4386,6.59601 -9.8641,8.80992 -6.4255,2.21391 19.5379,-22.62981 22.8181,-31.66238 3.2803,-9.03258 -29.1416,33.75831 -35.8492,36.29849 -6.7075,2.54019 40.793,-47.26052 37.9404,-49.18623 -2.8525,-1.92572 -11.1363,10.29295 -11.1363,10.29295 m -48.1066,76.6037 c 0,0 -24.6718,29.18837 -48.7341,56.9782 -24.0624,27.78984 -47.5113,54.18114 -44.918,48.58699 2.5932,-5.59415 25.1835,-31.6557 46.3727,-56.13226 21.1892,-24.47655 40.9806,-47.36812 38.0789,-46.6223 -2.9016,0.74582 -22.8239,23.78617 -41.6361,45.51749 -18.8121,21.73131 -36.5112,42.1536 -34.877,37.66329 1.6342,-4.49031 19.3509,-24.93909 35.9911,-44.16478 16.6402,-19.22569 32.2059,-37.2283 29.6015,-36.82626 -2.6045,0.40203 -18.2023,18.44027 -32.7568,35.25689 -14.5545,16.81663 -28.0636,32.41164 -26.4363,27.92722 3.2545,-8.96883 52.6343,-60.81883 50.601,-63.6873 -2.0334,-2.86847 -47.2572,54.61552 -43.5697,45.14212 3.6875,-9.47341 43.755,-53.18742 43.755,-53.18742 m 64.5705,-59.07589 c 0,0 -21.4546,27.46181 -29.0505,31.02994 -7.5958,3.56813 14.6533,-16.96683 7.7457,-14.19432 -6.9077,2.77251 -15.2455,17.65135 -23.5602,22.05077 -8.3148,4.39943 17.0247,-19.70937 13.978,-21.40804 -1.5234,-0.84934 -19.9619,20.50321 -37.5048,40.79666 -17.5428,20.29345 -34.1878,39.5278 -32.0442,34.44207 2.1437,-5.08573 18.6539,-24.17041 34.5547,-42.56837 15.9009,-18.39797 31.1933,-36.1092 30.9558,-38.44803 -0.475,-4.67765 -9.9,11.46502 -9.8065,6.12985 0.093,-5.33518 10.0591,-11.65027 9.3722,-16.08371 -0.6868,-4.43343 -9.3465,10.82708 -9.3553,5.60884 -0.01,-5.21825 8.5526,-9.90808 6.7127,-13.00631 -1.8398,-3.09824 -7.0612,8.18184 -6.6601,2.48719 0.4012,-5.69465 2.8601,-5.92933 2.8601,-5.92933 m -174.7658,238.38869 c 0,0 -1.6989,1.95632 -1.6989,1.95632 m 166.0247,-202.11262 c 0,0 -40.2122,49.13419 -40.005,43.67537 0.2071,-5.45882 36.896,-42.68871 30.6264,-40.65594 -6.2697,2.03278 -31.5015,36.44832 -35.1709,35.47203 -3.6694,-0.9763 28.8786,-33.41299 22.6974,-31.48282 -6.1812,1.93016 -26.0118,30.09591 -28.876,28.18828 -2.8643,-1.90763 21.666,-25.06734 18.3638,-26.46949 -3.3021,-1.40216 -21.2069,24.53731 -24.0954,22.65753 -2.8885,-1.87977 21.0485,-24.35506 18.4394,-26.55966 -2.609,-2.20459 -21.3125,24.66205 -24.3945,23.00589 -3.0819,-1.65615 21.8013,-25.22876 19.2062,-27.44978 -2.5951,-2.22102 -22.2878,25.7932 -25.4689,24.25163 -3.1811,-1.54157 11.9414,-13.81791 7.954,-14.42692 -3.9874,-0.609 -11.1411,12.89228 -14.4204,11.46411 -3.2792,-1.42816 10.5351,-12.19124 6.7058,-12.98326 -3.8293,-0.79202 -9.9893,11.56 -13.3871,10.26895 -3.3979,-1.29105 9.5677,-11.07243 5.8719,-12.01906 -3.6958,-0.94663 -9.2888,10.75 -12.7122,9.48851 -3.4235,-1.26149 9.0194,-10.43853 5.4188,-11.49534 -3.6007,-1.05682 -8.8541,10.24754 -12.4026,9.13069 -3.5485,-1.11686 8.8045,-10.19043 5.2773,-11.33234 -3.5271,-1.14191 -8.8537,10.24778 -12.3688,9.09215 -3.5151,-1.15563 8.8172,-10.2058 5.3978,-11.47252 -3.4194,-1.26671 -8.9691,10.38193 -12.2343,8.93708 -3.2652,-1.44486 8.8182,-10.20758 5.5556,-11.65593 -3.2626,-1.44834 -8.7564,10.1365 -11.7934,8.4273 -3.037,-1.70919 8.5326,-9.87771 5.4077,-11.48563 -3.1249,-1.60793 -8.4481,9.78043 -11.3577,7.92364 -2.9096,-1.85679 8.2256,-9.52318 5.6132,-11.7247 -2.6125,-2.20153 -8.5312,9.87755 -11.2764,7.83023 -2.7452,-2.04733 8.658,-10.02489 6.1036,-12.29382 -2.5545,-2.26893 -9.1016,10.53918 -11.7784,8.41245 -2.6768,-2.12672 9.2176,-10.67397 6.7788,-13.0772 -2.4387,-2.40322 -9.4323,10.92356 -11.9486,8.61069 -2.5163,-2.31286 9.4997,-11.0021 7.2362,-13.60867 -2.2634,-2.60657 -9.7104,11.24705 -11.7814,8.41816 -2.071,-2.8289 9.3222,-10.79792 7.5768,-14.00502 -1.7455,-3.2071 -9.6486,11.1771 -11.5731,8.17805 -1.9245,-2.99905 9.7965,-11.34914 8.4898,-15.06523 -1.3067,-3.71608 -10.4591,12.11819 -11.9567,8.62399 -1.4975,-3.4942 10.7397,-12.44398 10.3378,-17.20966 -0.4019,-4.76568 -11.8193,13.69695 -13.0167,9.85433 -1.1975,-3.84261 12.5087,-14.4969 12.806,-20.0745 0.2972,-5.5776 -14.0448,16.2798 -14.752,11.86821 -0.7072,-4.41159 13.7774,-15.96997 18.5746,-26.76893 4.7972,-10.79897 -19.1764,22.23519 -19.4447,17.31359 -0.2683,-4.92159 52.4931,-60.9046 47.8783,-60.78706 -4.6148,0.11755 -48.284,56.02465 -49.7232,52.45972 -1.4392,-3.56492 44.9441,-52.15137 42.591,-54.66017 -2.3532,-2.50879 -43.6202,50.61971 -45.6587,47.74914 -2.0385,-2.87057 16.1204,-18.70059 10.9556,-17.945 -5.1648,0.75558 -13.083,15.17754 -15.4855,12.72886 -2.4026,-2.44869 10.577,-12.27056 6.8355,-13.16653 -3.7414,-0.89597 -9.238,10.71774 -11.8169,8.4734 -2.579,-2.24434 8.1225,-9.42397 4.8298,-10.84061 -3.2928,-1.41665 -7.5022,8.70462 -10.7013,7.17959 -3.1992,-1.52503 7.346,-8.52378 4.3936,-10.33553 -2.9524,-1.81174 -7.5615,8.77422 -10.8533,7.35661 -3.2919,-1.41761 8.0701,-9.36471 5.5072,-11.6288 -2.5629,-2.26408 -8.7735,10.18148 -12.359,9.1046 -3.5855,-1.07688 9.7886,-11.35998 7.3204,-13.73423 -2.4682,-2.37425 -10.9808,12.7442 -14.7189,11.84435 -3.7382,-0.89984 12.2427,-14.20931 9.9309,-16.76543 -2.3118,-2.55611 -13.5995,15.78482 -17.5699,15.15451 -3.9705,-0.63031 15.1982,-17.6411 13.3123,-20.6921 -1.886,-3.051 -17.3472,20.1365 -21.4893,19.70546 -4.1422,-0.43105 19.676,-22.84077 18.0727,-26.22062 -1.6032,-3.37984 -22.4198,26.02739 -26.4293,25.44233 -4.0095,-0.58505 11.6237,-13.492 6.8487,-13.18846 -4.7751,0.30354 -10.7425,12.46921 -14.4437,11.52636 -3.7012,-0.94286 9.7288,-11.29269 6.1101,-12.33159 -3.6188,-1.0389 -9.7389,11.30466 -12.6625,9.45928 -2.9237,-1.84538 9.1285,-10.59658 5.8895,-12.07645 -3.239,-1.47986 -8.8402,10.2624 -11.4323,8.03201 -2.5922,-2.23039 8.2156,-9.5377 5.0517,-11.10492 -3.1639,-1.56721 -7.5933,8.81594 -9.5805,5.88283 -1.9871,-2.93312 6.4392,-7.47629 3.1735,-8.92536 -3.2657,-1.44907 -5.5193,3.78825 -5.5193,3.78825 m 200.4323,107.77216 c 0,0 -7.7018,11.52813 -10.1953,9.18993 -2.4936,-2.3382 8.8932,-10.29527 6.4115,-12.64789 -2.4818,-2.35262 -8.9425,10.35306 -11.3168,7.87642 -2.3742,-2.47664 8.8433,-10.23872 6.5143,-12.76857 -2.3289,-2.52986 -8.8722,10.27313 -11.1461,7.67999 -2.2739,-2.59314 8.8214,-10.21479 6.5639,-12.82772 -2.2576,-2.61292 -8.8213,10.21548 -11.1263,7.65799 -2.305,-2.55748 8.8634,-10.26483 6.6619,-12.94298 -2.2016,-2.67815 -8.952,10.36819 -11.3739,7.94584 -2.422,-2.42235 9.2783,-10.74675 7.6743,-14.11764 -1.604,-3.37089 -10.1044,11.7047 -12.6529,9.42853 -2.5484,-2.27616 11.2635,-13.04814 9.348,-16.05874 -1.9154,-3.01059 -11.9044,13.7918 -14.515,11.58739 -2.6106,-2.2044 12.406,-14.37354 11.7063,-18.79381 -0.6996,-4.42028 -14.3201,16.59307 -16.9389,14.39792 -2.6188,-2.19514 16.0952,-18.65104 16.4109,-24.24949 0.3156,-5.59844 -18.93,21.93883 -21.652,19.86286 -2.7219,-2.07596 24.6677,-31.20945 24.6677,-31.20945 m 79.4174,-45.01482 c 0,0 3.1437,-1.02956 -4.8908,3.05796 -8.0345,4.08753 5.8475,-6.78906 3.0685,-8.80328 -2.779,-2.01422 -10.0154,11.62809 -15.761,13.05818 -5.7455,1.43008 12.9078,-14.9863 8.5153,-15.12689 -4.3926,-0.14058 -14.1617,16.44187 -20.0362,18.0215 -5.8745,1.57963 15.1788,-17.62229 9.9464,-16.78761 -5.2324,0.83467 -15.7545,18.29027 -22.6324,21.03421 -6.8779,2.74395 17.7789,-20.63942 14.5393,-22.11885 -3.2396,-1.47943 -21.5448,25.01095 -29.155,28.60412 -7.6102,3.59317 25.8512,-30.009 22.5767,-31.44805 -1.6373,-0.71952 -17.3299,17.50524 -32.6304,35.25773 -15.3005,17.7525 -30.208,35.03273 -30.2146,32.42416 -0.01,-2.60858 14.8985,-19.88881 29.3833,-36.69679 14.4847,-16.80798 28.5499,-33.14369 26.9127,-33.86323 -3.2746,-1.43908 -17.5313,17.73616 -17.5313,17.73616 m -43.0703,60.43064 c 0,0 -5.7251,9.25008 -8.479,7.21089 -2.7538,-2.0392 6.7577,-7.83157 3.3912,-9.16108 -3.3666,-1.3295 -6.16,7.13929 -9.0101,5.21139 -2.8501,-1.92791 5.632,-6.52753 2.5659,-8.20549 -3.066,-1.67796 -5.9898,6.9429 -6.7175,2.55468 -0.7277,-4.38821 0.5617,-3.26711 0.5617,-3.26711 m 55.8914,-49.12467 c 0,0 -34.2088,42.30299 -32.0077,34.51636 2.201,-7.78663 24.6243,-28.56627 17.8697,-25.96574 -6.7545,2.60053 -15.8339,18.37017 -16.6188,14.04483 -0.7849,-4.32534 10.8047,-12.53567 6.1586,-12.38194 -4.646,0.15372 -8.417,7.14759 -8.417,7.14759 m 48.246,-45.52826 c 0,0 -13.3165,18.08535 -17.8179,18.07119 -4.5014,-0.0142 18.8692,-21.91331 20.628,-29.20145 1.7589,-7.28814 -25.4461,29.55498 -30.1417,29.7663 -4.6956,0.21132 32.6659,-37.94438 31.2678,-41.56561 -1.398,-3.62123 -16.407,19.06651 -11.8376,8.51174 4.5694,-10.55478 7.7808,-11.66586 7.7808,-11.66586 m -417.9225,498.21684 c 0,0 -42.3653,51.15317 -49.527,54.18657 -7.1617,3.03339 45.6922,-52.37644 39.522,-50.47628 -6.1702,1.90015 -47.2289,54.13427 -55.3037,58.21272 -4.0373,2.03923 8.2719,-12.05724 20.9118,-26.54343 12.6399,-14.48619 25.61,-29.36209 22.9344,-28.88172 -5.3513,0.96075 -48.8476,55.98613 -64.838,69.12537 -7.9952,6.56962 6.9027,-10.48312 23.1612,-29.11096 16.2584,-18.62784 33.8744,-38.83079 31.3828,-38.56159 -2.4915,0.2692 -19.6727,19.97442 -37.4095,40.29512 -17.7368,20.3207 -36.0303,41.25687 -40.6737,43.98795 -4.6434,2.73109 13.6508,-18.2022 32.5141,-39.81102 18.8632,-21.60882 38.294,-43.89317 36.0119,-43.86421 -2.282,0.029 -21.7674,22.37661 -41.6766,45.18277 -19.9091,22.80616 -40.2428,46.07082 -44.128,47.93382 -3.8852,1.86299 16.4577,-21.40925 37.2176,-45.18831 20.7599,-23.77906 41.9358,-48.06493 39.8222,-48.22919 -2.1136,-0.16425 -23.211,24.03242 -44.7149,48.66344 -21.504,24.63103 -43.4155,49.6964 -47.0476,51.26953 -3.6321,1.57313 20.1301,-25.60816 42.0713,-50.7396 21.9412,-25.13145 42.0671,-48.21306 31.287,-38.44057 -10.7801,9.7725 -30.9096,32.84391 -49.3377,53.94289 -18.4282,21.09898 -35.1521,40.22551 -39.0551,42.10824 -3.903,1.88273 12.4571,-16.82692 28.7273,-35.45196 16.2702,-18.62505 32.4507,-37.16549 28.2553,-34.94434 -4.1953,2.22114 -20.0893,20.43084 -35.4909,38.06018 -15.4017,17.62934 -30.3101,34.67831 -32.4792,34.578 -2.1691,-0.10031 12.7766,-17.19239 27.3279,-33.84809 14.5513,-16.6557 28.709,-32.87502 25.016,-31.22981 -3.6929,1.64521 -17.8071,17.81288 -31.4614,33.44085 -13.6542,15.62796 -26.8477,30.71622 -28.6554,30.20261 -3.6154,-1.02723 52.7131,-60.3327 45.8671,-57.66125 -6.8459,2.67145 -49.5146,56.67076 -52.8253,55.29493 -3.3106,-1.37582 45.9545,-52.59505 39.5387,-50.41656 -6.4159,2.1785 -42.0815,48.16405 -37.2868,37.51442 4.7946,-10.64964 30.8019,-35.25689 25.08,-33.87325 -5.7219,1.38363 -22.977,26.30241 -26.6167,25.30232 -3.6397,-1.00009 21.1707,-24.2346 16.7643,-24.3574 -4.4063,-0.1228 -20.4287,23.38565 -24.142,22.46973 -3.7133,-0.91592 19.8739,-22.75073 13.9529,-21.13924 -5.921,1.61149 -17.6748,20.23316 -21.2986,19.21486 -3.6238,-1.01831 15.6151,-17.87474 5.3895,-11.33551 -10.2257,6.53924 -10.6865,9.64923 -10.6865,9.64923 m 599.9325,-556.39302 c 0,0 -11.8755,16.41135 -17.2986,17.4672 -5.423,1.05584 15.0384,-17.4632 9.2201,-15.94787 -5.8182,1.51533 -14.6949,17.06382 -20.8122,18.92549 -6.1172,1.86167 14.9993,-17.41632 9.0966,-15.80308 -5.9027,1.61324 -15.1381,17.57689 -22.1336,20.45772 -6.9955,2.88082 16.1781,-18.78323 10.3821,-17.294 -5.796,1.48922 -14.3257,16.63422 -28.8497,28.25025 -14.524,11.61603 20.2764,-26.15658 20.2764,-26.15658 m -17.881,-5.44298 c 0,0 -11.0328,15.43121 -12.4176,11.79861 -1.3847,-3.63261 11.4572,-13.30397 10.6558,-17.61598 -0.8013,-4.31201 -11.8477,13.75953 -12.9353,9.78098 -1.0875,-3.97855 12.5818,-17.23524 12.5818,-17.23524 M 1629.66,89.555776 c 0,0 -11.4625,13.326774 -11.4625,13.326774 m 9.357,-16.127152 c 0,0 -40.6253,49.836082 -40.8155,44.814382 -0.1903,-5.0217 40.9911,-47.642795 31.673,-42.055917 -9.318,5.586877 -31.6759,36.816417 -32.2531,32.242907 -0.5772,-4.57351 18.2733,-21.2367 13.7752,-21.25473 -4.4981,-0.018 -14.4097,16.74776 -15.5759,12.85779 -1.1663,-3.88997 11.151,-12.96087 8.683,-15.33907 -2.468,-2.378202 -9.9029,11.51137 -11.4809,8.09917 -1.5779,-3.4122 9.3246,-10.839713 7.5598,-14.035915 -1.7648,-3.196202 -9.1147,10.596925 -11.0192,7.563785 -1.9045,-3.033145 4.8101,-5.588884 13.9729,-21.497323 9.1629,-15.908439 -15.9124,18.504793 -17.9504,15.626456 -2.0381,-2.878337 26.9944,-31.399949 23.8418,-32.983747 -3.1527,-1.583797 -25.915,30.146188 -27.8125,27.103937 -1.8975,-3.042251 17.1467,-19.945098 11.0461,-18.098682 -6.1006,1.846415 -13.1128,15.253307 -14.4026,11.503715 -1.2898,-3.749592 10.0683,-11.712163 8.0275,-14.589348 -2.0409,-2.877185 -9.2989,10.818342 -10.7243,7.225781 -1.4255,-3.592561 8.4088,-9.7835 5.4899,-11.639204 -2.9189,-1.855703 -7.0047,8.150594 -7.9988,4.055477 -0.9942,-4.095117 2.0858,-5.053241 2.0858,-5.053241 M 1524.0239,133.639 c 0,0 -10.1945,14.45948 -10.2253,9.25403 -0.031,-5.20545 9.6598,-11.21838 8.4683,-15.07746 -1.1916,-3.85908 -9.026,10.48382 -10.228,6.63753 -1.2019,-3.8463 9.1111,-10.58343 7.2948,-13.71734 -1.8163,-3.13392 -8.5129,9.88987 -9.6983,6.0235 -1.1854,-3.86637 7.8674,-9.14053 5.502,-11.63685 -2.3654,-2.49633 -6.6784,7.76004 -7.7645,3.77748 -1.086,-3.98257 3.8519,-7.09857 3.8519,-7.09857"
         id="path5299"
         inkscape:connector-curvature="0"
         inkscape:path-effect="#path-effect5349"
         inkscape:original-d="m 1595.1562,60.03125 c -1.8333,0.05852 -3.0835,1.722755 -4.5312,2.46875 -2.2707,2.238415 -4.3041,4.727842 -6.8054,6.726953 -1.1426,1.108499 -2.5742,2.298252 -4.2938,2.041894 -0.9586,-0.05724 -1.7674,-0.754851 -2.1946,-1.461169 -0.8778,-1.076038 -1.9814,-2.067347 -2.7062,-3.151428 -0.5318,-0.486783 -0.6651,-1.318034 -1.1288,-1.83875 -0.9596,-0.735198 -2.1148,-1.225093 -2.9962,-2.03625 -1.3191,-0.757242 -2.7541,-1.916745 -4.4125,-2.03125 -1.49,-0.06291 -2.9719,0.688476 -3.9789,1.641421 -0.4575,0.511218 -0.9398,1.013441 -1.0461,1.733579 0.7227,4.357447 2.4779,8.435752 4.1121,12.510244 1.2033,2.864262 1.6277,6.069813 3.423,8.664345 3.4147,6.25984 8.3118,11.578796 11.5899,17.919161 1.7774,3.60818 3.4837,7.29401 4.5216,11.19804 0.9903,3.71663 1.7828,7.51974 1.7964,11.38237 0.2532,4.57879 0.1742,9.18948 0.8287,13.73596 0.2265,1.39494 0.7361,2.70745 1.2897,3.99774 0.6324,1.72625 0.6396,3.61085 1.2443,5.33663 0.5005,1.26904 1.6632,2.31391 1.5068,3.78676 -0.059,1.05937 -0.5755,1.98888 -1.3795,2.65239 -2.8043,3.63686 -6.3249,6.61464 -9.5348,9.8738 -1.7312,1.65002 -3.5339,3.23947 -5.4295,4.66131 -2.9946,1.58772 -6.5213,1.58035 -9.8077,1.2154 -5.7692,-0.79186 -11.0994,-3.35736 -16.227,-5.97636 -1.4936,-0.83796 -2.5747,-2.20463 -3.9653,-3.20779 -4.6346,-4.03524 -9.1675,-8.22309 -13.125,-12.9375 -1.2718,-1.50331 -2.3532,-3.24181 -3.327,-4.9639 -1.1041,-2.05956 -2.0998,-4.1732 -3.0523,-6.30417 -0.5447,-0.9279 -1.1813,-1.79775 -1.3229,-2.90752 -0.2582,-2.32062 -1.2501,-4.46325 -1.8587,-6.70115 -0.871,-3.00203 -1.9308,-5.99627 -3.736,-8.5719 -0.4225,-0.8278 -1.1401,-1.42396 -1.6718,-2.20761 -0.4251,-0.78472 -1.1591,-1.48315 -1.5313,-2.21875 -0.7653,-0.8967 -1.9209,-1.35621 -2.7327,-2.18917 -0.9988,-0.67785 -2.0028,-1.67589 -3.2673,-1.99833 -0.8315,-0.1828 -1.663,0.33741 -2.2187,0.78125 -0.5532,0.74946 -0.7317,1.74195 -0.7813,2.6625 -0.079,1.62492 0.6939,3.11576 1.0095,4.6806 1.6884,6.59437 3.94,13.02335 5.88,19.54332 0.6695,2.06989 1.1055,4.28674 0.6165,6.44706 -0.244,1.411 -0.7424,2.89353 -1.7054,3.95202 -1.1495,1.03989 -2.3456,2.32597 -4.0318,2.277 -4.0226,0.54052 -8.1974,0.17775 -11.9848,-1.33376 -7.1194,-2.68364 -13.6333,-6.72438 -20.722,-9.48064 -0.5203,-0.13799 -1.1245,-0.61888 -1.5496,-0.065 -0.4015,0.32571 -0.9093,0.59149 -1.2662,0.91051 -0.57,1.66821 0.2147,3.38134 0.7137,4.96715 0.7104,1.64369 1.0545,3.50243 2.2589,4.87672 0.7383,1.0128 1.7994,2.04252 2.625,3.09375 0.7409,0.98528 1.5703,1.93318 2.6875,2.5 0.8385,0.75128 1.6683,1.45045 2.6356,1.98525 2.5555,1.73084 5.1928,3.49431 8.274,4.09937 3.5185,0.82892 7.0077,1.94637 10.6517,2.04353 2.9351,0.0811 5.8504,0.52575 8.7769,0.76825 3.694,0.38934 7.3771,0.92774 10.9696,1.8902 3.04,0.78025 6.1323,1.36207 9.1371,2.27236 4.1659,1.26171 8.1371,3.06262 12.0467,4.95723 1.9962,0.96862 4.118,1.82649 5.8612,3.17905 3.9911,3.37157 7.709,7.07555 11.0222,11.11726 0.899,1.31636 1.2595,2.97999 1.8399,4.47621 0.6228,1.79793 1.4846,3.51356 2.068,5.3214 0.9875,3.48231 0.5849,7.15189 1.0165,10.71407 0.4174,5.73365 1.9616,11.32001 3.9816,16.68133 0.9517,2.70896 2.1341,5.35872 3.6424,7.7859 2.1299,3.43831 4.44,6.76338 6.9203,9.95859 0.6344,0.8359 1.6061,1.67202 2.4283,2.44816 2.0992,1.92883 4.3323,3.91338 6.5405,5.58309 1.3893,0.95012 2.9638,1.60553 4.2188,2.75 4.917,3.65838 10.1899,6.80959 15.6076,9.66592 3.1758,1.75994 6.6807,2.83473 10.1129,3.98872 4.8192,1.52968 9.6894,2.91068 14.4052,4.74742 4.363,1.57863 8.7252,3.1683 12.9613,5.06842 4.5533,1.96747 9.0047,4.17721 13.356,6.54429 3.386,1.89097 6.575,4.11305 9.7954,6.26902 2.4952,1.68788 5.0686,3.32311 7.6366,4.84121 0.4487,-0.0927 0.694,-0.61631 1.2239,-0.57664 1.3414,-0.1974 2.7471,0.8371 2.7076,2.25387 -0.013,1.61004 0.3896,3.24554 -0.1074,4.82708 -0.4704,1.58608 -1.4841,2.94625 -2.2617,4.39908 -1.5357,2.47951 -2.5092,5.24984 -3.7305,7.89216 -4.9774,11.44139 -9.4751,23.08362 -13.9458,34.72998 -5.0788,13.18745 -9.3352,26.68241 -14.673,39.77101 -2.3431,5.65537 -5.0736,11.15036 -7.8712,16.58581 -1.376,2.54709 -2.8672,5.06482 -4.8419,7.18015 -2.6137,3.05606 -5.3501,6.00603 -8.2857,8.75654 -1.8194,1.7549 -3.7227,3.43879 -5.7456,4.93096 -4.354,2.29826 -8.9738,4.2648 -13.8577,5.09335 -4.4785,0.90556 -9.1316,0.70479 -13.5529,1.94962 -4.115,1.06861 -7.965,2.93798 -11.6261,5.05841 -6.7431,3.86397 -13.0046,8.49162 -19.2133,13.14862 -0.8885,0.68511 -1.7562,1.71655 -2.6645,2.50821 -1.4897,1.51293 -3.0805,3.01744 -4.2427,4.71604 -1.3806,2.29518 -3.4388,4.04642 -5.2358,6.01251 -1.1792,1.1869 -2.491,2.29694 -4.1343,2.75643 -3.7044,1.53602 -7.4373,3.01686 -11.2991,4.11518 -4.4623,1.36603 -9.0187,2.40376 -13.5889,3.33488 -7.1205,1.3691 -14.3164,2.30495 -21.508,3.21382 -8.0888,0.88722 -16.2221,1.24489 -24.3428,1.70655 -5.0191,0.30808 -10.0163,0.88454 -14.9844,1.6568 -7.2366,0.9982 -14.561,0.75212 -21.8431,1.02997 -11.3195,0.24976 -22.6444,0.15099 -33.9619,0.50785 -13.6492,0.3573 -27.3018,0.70984 -40.9327,1.53316 -7.3099,0.32486 -14.617,0.72973 -21.9303,0.96337 -4.0264,0.0881 -8.0697,0.14796 -12.0825,-0.22782 -2.3314,-0.2885 -4.7211,-1.01882 -6.5615,-2.4832 -3.7756,-3.59827 -7.3702,-7.39614 -10.5938,-11.5 -2.4021,-2.83203 -3.9878,-6.26571 -5.7101,-9.54527 -3.8752,-7.59647 -7.1895,-15.47796 -11.626,-22.76497 -2.4856,-4.20925 -5.3728,-8.16591 -8.2315,-12.12286 -1.2073,-0.90682 -2.6566,-1.82655 -3.9606,-2.74684 -4.9604,-3.39572 -10.1897,-6.38876 -15.6122,-8.97346 -5.9386,-2.70143 -12.0918,-4.97149 -18.4011,-6.62612 -1.3195,-0.17569 -2.6292,-0.44277 -3.9585,-0.53298 -0.8068,0.50687 -1.8145,0.76004 -2.4062,1.53125 -0.3049,0.66551 0.3651,1.04643 0.664,1.56448 0.9449,1.21754 1.6351,2.6637 2.8048,3.68552 0.4813,0.24354 0.9622,0.81099 1.4374,1.09375 0.8771,0.79275 1.9115,1.44763 2.7618,2.28581 5.4473,4.48634 10.6448,9.31554 15.1148,14.79101 1.3931,1.71756 2.8812,3.38878 4.1547,5.17318 1.2714,2.22263 2.2035,4.6279 3.3125,6.9375 1.1953,2.84059 1.9755,5.94505 1.5644,9.04112 -0.1498,1.774 -0.3514,3.76645 0.7958,5.27175 1.2517,2.28119 3.1232,4.29526 4.4836,6.40588 0.9246,1.26644 2.2253,2.22514 2.8081,3.71014 1.4012,2.89964 2.55,5.96446 2.8998,9.18547 0.817,6.38122 -0.4567,12.79386 -2.0391,18.95703 -1.7961,6.55605 -4.0585,12.96906 -6.1177,19.44352 -1.0452,3.52429 -2.1193,7.07768 -2.5347,10.73957 -0.498,4.98815 0.7941,9.89393 1.8123,14.73327 1.4388,6.45935 3.0253,12.89629 4.0359,19.44008 0.8812,6.10308 1.4059,12.37138 0.2498,18.47554 -0.6734,3.44202 -1.8092,6.83419 -3.6144,9.84663 -1.4785,2.00585 -3.4124,3.64098 -5.167,5.41626 -1.9246,1.77887 -3.7742,3.68292 -5.9795,5.08172 -5.4638,2.80584 -11.3347,4.72347 -17.2637,6.27371 -5.4841,1.32792 -11.067,2.19365 -16.677,2.77272 -6.0537,0.72324 -12.1842,0.84725 -18.2587,0.32299 -2.8608,-0.36993 -6.0292,-0.31927 -8.4667,1.41385 -1.6804,1.07915 -3.2029,2.39694 -4.9687,3.34375 -1.0692,0.78178 -2.1011,1.94681 -3.1099,2.92242 -4.3656,4.4307 -8.6012,8.9968 -13.1802,13.21048 -4.9013,4.26804 -9.9162,8.40147 -14.9912,12.46085 -1.1162,0.96625 -2.3966,1.79302 -3.7369,2.4337 -3.2411,1.64361 -6.5257,3.23646 -9.7911,4.84397 -5.7216,2.67369 -11.4988,5.23416 -17.3359,7.64448 -7.8345,3.13043 -15.7315,6.13122 -23.8048,8.59308 -3.2932,0.94169 -6.5764,2.03505 -9.9875,2.45352 -2.5269,0.26578 -5.0628,0.0992 -7.5938,0 -3.8384,0.14273 -7.6439,0.88361 -11.2587,2.18361 -4.265,1.49801 -8.1175,3.90106 -11.9246,6.29714 -3.7283,2.34053 -7.4059,4.76843 -10.8685,7.49176 -0.6983,0.44793 -1.2569,0.96594 -1.5974,1.7357 -0.5455,0.5472 -0.5347,0.91844 0.2738,1.07769 3.3939,1.32751 6.9458,2.19769 10.4648,3.12398 4.1925,1.06479 8.4242,2.0086 12.5632,3.26265 1.1431,0.33241 1.5796,1.64494 1.2653,2.73803 -0.3388,1.6674 -1.3907,3.07221 -2.0627,4.61455 -1.8682,3.8599 -3.7302,7.77462 -4.7926,11.94364 0.2596,0.65322 0.8276,0.92139 1.4971,1.23317 4.2345,1.62547 8.5846,2.99657 13.0341,3.89183 2.3977,0.13078 4.8087,0.2058 7.1985,0.35019 2.7852,-0.29377 5.0424,-2.08895 7.5678,-3.11816 8.6131,-4.20153 17.4905,-7.82479 26.2826,-11.62643 4.9907,-2.18322 9.6375,-5.03453 14.4257,-7.61943 5.7228,-3.26483 11.4226,-6.58735 16.8379,-10.34762 3.3956,-2.31603 6.655,-4.82315 9.9375,-7.2948 0.9345,-0.83043 1.9663,-1.89079 2.9637,-2.7826 2.0443,-1.9552 4.2261,-3.75575 6.4617,-5.4627 2.8301,-1.94173 5.9019,-3.5014 8.9184,-5.1297 5.7524,-2.90867 11.5303,-5.79952 17.2519,-8.78073 4.6332,-2.24288 9.5837,-4.09112 14.7777,-4.30757 7.056,-0.58943 14.1122,0.3416 21.1297,0.99374 16.5652,1.676 33.1124,3.52388 49.6687,5.28362 8.6195,0.91383 17.3163,1.40197 25.9748,0.79547 5.8243,-0.45976 11.5782,-1.72395 17.1083,-3.59657 3.4643,-1.17622 6.7087,-2.88342 9.75,-4.90507 4.2814,-2.74853 8.3714,-5.77734 12.4639,-8.79539 0.8976,-0.74772 1.8212,-1.80223 2.7066,-2.68949 5.5644,-5.69904 10.7798,-11.7705 16.9129,-16.88472 2.1358,-1.80264 4.2439,-3.67621 6.4888,-5.31103 2.4005,-1.48001 4.9736,-2.66715 7.5773,-3.75154 3.5536,-1.44322 7.1434,-2.84987 10.9142,-3.61729 4.9583,-1.08935 10.0394,-1.52641 15.1055,-1.71021 8.4381,-0.21845 16.8625,0.57182 25.2378,1.51739 7.2533,0.88207 14.4914,1.91198 21.6861,3.18551 4.1419,0.84692 8.3177,1.6311 12.3386,2.95477 2.7391,1.0459 5.2236,2.79845 8.1777,3.22212 4.831,0.73918 9.7428,0.63346 14.6166,0.58105 6.4718,-0.12942 12.9385,-0.45719 19.3981,-0.86104 5.6004,-0.39373 11.1707,-1.22905 16.6082,-2.63814 11.3873,-2.82168 22.7298,-5.82071 34.1066,-8.68488 15.0824,-3.868 30.1387,-7.83765 45.2224,-11.70028 4.9412,-1.26896 9.908,-2.43806 14.8545,-3.6833 4.1969,-1.23717 8.3063,-3.11292 12.7481,-3.21017 3.7723,-0.0979 7.5509,0.0107 11.3007,0.4532 7.5568,0.80571 14.9859,2.57221 22.5771,3.08965 6.2249,0.41142 12.4916,-0.0466 18.643,-1.03779 8.5482,-1.44219 16.9487,-3.63697 25.2623,-6.07167 6.9281,-1.98096 13.7845,-4.2541 20.8354,-5.7732 7.8421,-1.6796 15.9504,-2.37041 23.9425,-1.51098 5.2744,0.54742 10.4298,1.98922 15.3269,4.00097 7.1129,2.98157 13.9981,6.60953 20.1308,11.31857 4.7514,4.09345 9.6011,8.1511 14.45,12.15975 2.0118,1.62751 3.9969,3.28776 6.0187,4.90275 1.1633,0.74547 2.4458,1.68801 3.6354,2.53791 5.3804,3.88771 10.563,8.05047 16.0834,11.74334 3.5926,3.06045 6.9428,6.46783 10.1465,9.95445 3.6692,3.98334 6.9606,8.29261 10.5031,12.38268 0.7157,0.772 1.5291,1.20259 2.3925,1.81367 2.6402,1.75888 5.2957,3.57536 8.3667,4.49196 3.5825,1.20108 7.2985,1.93856 10.964,2.83627 4.4909,1.02626 9.0218,1.91199 13.5647,2.64597 0.4229,0.11351 1.2962,0.38804 0.636,-0.19555 -5.055,-7.25036 -9.8719,-14.66571 -15.0423,-21.8357 -0.5339,-0.80125 -1.3921,-1.62997 -2.3103,-2.13775 -0.9969,-0.64867 -1.9172,-1.49389 -2.779,-2.14866 -3.8467,-3.33881 -7.2286,-7.15795 -10.5507,-11.00667 -2.7114,-3.1368 -5.4334,-6.27665 -8.5143,-9.06139 -1.8589,-1.7191 -3.7736,-3.43919 -5.7438,-4.91623 -2.4096,-1.28922 -4.401,-3.20731 -6.6741,-4.70197 -3.9747,-2.7727 -8.2797,-5.11995 -12.1152,-8.05858 -2.4319,-2.2868 -5.194,-4.3023 -7.2623,-6.9196 -0.8471,-1.64594 -0.2214,-3.94763 1.3997,-4.84403 0.9869,-0.60347 2.1675,-0.21563 3.2559,-0.25185 3.6199,0.34104 6.8996,2.06665 10.2823,3.26752 8.1468,3.23442 16.1221,6.88058 24.1846,10.31672 9.2847,4.03319 18.7614,7.65724 28.4835,10.49374 5.6524,1.52064 11.378,2.87363 17.2174,3.41149 5.6253,0.50272 11.3212,0.22161 16.8655,-0.85486 3.0762,-0.55175 6.1356,-1.25847 9.0734,-2.33788 -5.9873,-3.97681 -12.3174,-7.4362 -18.9839,-10.13481 -8.827,-3.75144 -17.7647,-7.2555 -26.8781,-10.25265 -8.2048,-2.75227 -16.6444,-4.7075 -25.0733,-6.63036 -6.915,-1.69583 -13.7624,-3.66151 -20.5757,-5.72479 -9.4658,-2.96825 -18.8677,-6.16032 -28.1059,-9.77914 -7.6714,-3.02511 -15.3001,-6.29399 -22.2996,-10.68294 -1.3775,-1.00477 -2.8486,-1.87152 -4.4905,-2.36658 -3.2734,-1.05153 -6.72,-1.38761 -10.1226,-1.77544 -5.6968,-0.63102 -11.4269,-0.85018 -17.1439,-1.21694 -11.2364,-0.56324 -22.4747,-1.1039 -33.7043,-1.79139 -6.1587,-0.39547 -12.3356,-0.9493 -18.3722,-2.26996 -2.0874,-0.49017 -4.1767,-1.0543 -6.1876,-1.78125 -1.3132,-0.73213 -2.1214,-2.08269 -3.226,-3.08747 -1.4357,-1.32195 -1.9616,-3.31122 -2.171,-5.20506 -0.6949,-5.14551 0.5767,-10.32352 2.475,-15.082 2.067,-5.17135 4.8509,-10.01494 7.3582,-14.9795 3.2811,-6.27528 6.6725,-12.50333 10.2091,-18.64403 1.7408,-3.0664 4.3581,-5.45955 6.553,-8.19569 3.3525,-3.77107 6.8421,-7.41713 10.2705,-11.11875 0.2657,-0.64895 1.0123,-1.0171 1.2209,-1.72354 1.8667,-3.0712 4.1942,-5.89046 5.6618,-9.18248 1.7549,-4.64106 1.7796,-9.74839 0.9923,-14.59398 -0.822,-5.55904 -2.1398,-11.02969 -3.4577,-16.48792 -1.9265,-7.64783 -3.9823,-15.26537 -5.7309,-22.95637 -0.9332,-4.21318 -1.5651,-8.53078 -1.4417,-12.85458 0.2222,-4.59502 2.6592,-8.64221 4.6048,-12.67636 0.9249,-1.75599 1.9953,-3.43859 3.4317,-4.80602 2.6077,-3.00514 5.2662,-6.01822 8.402,-8.48222 4.9217,-2.45886 10.2713,-3.87725 15.556,-5.32016 4.9912,-1.43875 10.0616,-2.58447 15.1246,-3.74024 4.7807,-0.98389 9.5428,-2.11249 14.3831,-2.7626 2.6165,-0.30734 5.2454,-0.47232 7.8781,-0.53853 0.9178,-0.21133 1.7852,-0.59445 2.375,-1.28125 0.4905,-0.90258 1.2463,-1.88328 1.7544,-2.86796 1.8622,-3.34901 2.5058,-7.20119 3.2714,-10.91551 0.316,-1.56328 0.6165,-3.199 0.082,-4.75431 -0.3267,-1.09106 -0.9667,-2.08692 -1.6702,-2.96222 -0.8888,-0.56974 -1.849,-1.02617 -2.7397,-1.5928 -3.82,-2.08569 -8.0545,-3.19559 -12.2514,-4.23888 -9.8107,-2.56043 -19.6867,-4.91142 -29.3296,-8.06823 -7.6584,-2.39517 -15.196,-5.16989 -22.6409,-8.15943 -1.187,-0.53129 -2.396,-1.06447 -3.5384,-1.65941 -0.9413,-0.91986 -0.7385,-2.72322 0.3437,-3.4375 0.8179,-0.60001 1.9911,-0.54298 2.9138,-0.98747 5.608,-1.68599 11.4927,-1.98534 17.2308,-3.00907 12.4805,-1.95339 24.9857,-3.76462 37.4652,-5.7128 4.2353,-0.86469 8.4869,-2.08586 12.123,-4.48943 1.8821,-1.20676 3.92,-2.25703 5.7672,-3.45748 0.7552,-0.91324 0.3691,-2.33523 -0.375,-3.09375 -0.5503,-0.89156 -0.9121,-1.8564 -1.966,-2.22888 -2.294,-1.16775 -4.9209,-0.41507 -7.2721,0.14818 -1.0949,0.22896 -2.4441,0.7976 -3.3869,-0.0443 -1.0569,-0.85775 -0.7931,-2.50182 -0.3124,-3.625 0.6704,-1.42005 1.564,-2.72133 2.23,-4.15186 1.8496,-3.65107 3.0234,-7.5995 3.8699,-11.59152 1.8775,-7.79918 3.242,-15.78351 3.0875,-23.83162 0.038,-1.51455 0.292,-3.07188 1.215,-4.3145 1.1518,-1.73696 2.5587,-3.28875 3.675,-5.05192 1.021,-1.46236 2.1779,-3.15126 1.86,-5.02733 -0.4327,-1.34974 -1.8116,-2.10609 -3.2187,-2.03125 -1.9519,0.35804 -3.2556,2.00293 -4.9481,2.92279 -5.1638,3.50565 -10.7813,6.34913 -16.7394,8.23346 -0.627,0.28764 -1.1801,0.51846 -1.5312,1.09375 -0.6684,0.75024 -1.1163,1.46413 -1.8455,2.15473 -1.5896,1.95532 -3.2352,3.89112 -4.6987,5.85886 -1.0187,1.18965 -1.8853,2.3673 -2.8929,3.61088 -0.768,0.74927 -0.2779,0.60054 0.441,0.28846 3.3952,-1.2123 6.8233,-2.35775 10.3398,-3.16293 1.6567,0.0909 2.4221,1.93014 2.3125,3.40625 0.5837,3.8409 0.8522,7.74688 0.5001,11.62403 -0.3253,4.04592 -1.4952,7.98976 -3.2059,11.66191 -1.164,2.45348 -2.2874,5.00135 -4.1467,7.00326 -1.6959,1.88869 -3.3578,3.81899 -5.1974,5.5692 -1.2015,1.1259 -2.4382,2.20906 -4.0126,2.7666 -2.4332,1.00233 -4.9472,1.81496 -7.4375,2.65625 -1.6661,0.25129 -3.6053,0.42629 -5.0312,-0.59375 -1.0164,-1.0079 -0.6311,-2.62421 -0.5607,-3.92317 0.4594,-3.99578 3.335,-7.14997 4.2806,-11.0009 0.2804,-1.08739 0.4502,-2.34455 0.03,-3.38843 -0.8759,-0.88608 -2.2115,-1.08552 -3.4063,-1.25 -2.7982,-0.0601 -5.0436,1.86187 -7.2467,3.32701 -1.1637,0.83695 -2.3837,1.60845 -3.3974,2.5304 -1.7025,1.71248 -3.5774,3.26422 -5.1372,5.11134 -0.3913,0.60643 -0.8783,1.37003 -1.2351,2.08345 -1.7402,3.13359 -3.7864,6.1102 -6.4095,8.56116 -1.1913,1.00378 -2.8134,1.38967 -4.198,2.11166 -6.9819,2.93901 -14.2943,5.11134 -21.7716,6.34252 -3.4764,0.57974 -6.9708,1.13389 -10.4847,1.38707 -1.1655,-0.0679 -2.2958,-1.10589 -2.03,-2.33578 -0.2269,-4.44779 1.5925,-8.68486 3.6113,-12.53756 1.4625,-1.93346 3.278,-3.63766 4.933,-5.43231 2.537,-2.538 5.2218,-4.96038 8.0864,-7.09422 2.6612,-1.84953 5.6979,-3.03083 8.5538,-4.54203 7.4292,-3.68206 14.8663,-7.38028 22.5671,-10.46705 6.5615,-2.63562 13.3094,-4.80063 19.9711,-7.13941 0.6995,-0.66625 1.0693,-1.64402 1.9062,-2.25 3.8438,-4.75 7.6876,-9.5 11.5313,-14.25 -0.5387,-1.23245 0,-2.71374 0.875,-3.625 0.6582,-1.23109 1.5913,-2.53162 2.3342,-3.80355 1.0128,-1.86066 1.4249,-3.99131 2.2285,-5.95051 1.4238,-3.77257 2.8841,-7.53728 4.2186,-11.33969 -0.4409,-1.23825 -0.9541,-2.51671 -2.2813,-2.96875 -1.2199,-0.4904 -2.1527,0.70447 -3.1145,1.24297 -0.779,0.44855 -1.546,0.76706 -2.001,1.5923 -0.5583,0.77953 -1.0253,1.61228 -1.697,2.28973 -0.7247,1.23148 -1.6612,2.57474 -2.4631,3.85211 -1.6744,2.51963 -3.2194,5.17975 -5.1358,7.50279 -3.9401,4.37785 -8.0767,8.57972 -12.46,12.51555 -4.0415,3.7075 -8.0456,7.52805 -12.3359,10.91187 -2.2151,1.18999 -4.5782,2.1049 -6.8915,3.08841 -2.5257,0.85696 -5.4534,1.07506 -7.9012,-0.12073 -1.4438,-1.22586 -2.8177,-2.59784 -3.8219,-4.18513 -0.6952,-1.51949 -0.3924,-3.24905 0.05,-4.78946 0.2915,-3.02913 -0.082,-6.09461 -0.6799,-9.06384 -0.66,-2.69542 -2.0318,-5.1326 -3.6159,-7.38522 -0.3622,-0.79709 -1.2179,-1.23756 -2.0945,-1.4201 -1.6719,0.0801 -2.7227,1.75424 -3.1039,3.22693 -0.7578,3.50696 -0.1903,7.11604 -0.2336,10.66682 -0.043,5.13417 0.1303,10.2716 -0.047,15.40564 -0.068,1.85691 -0.096,3.73464 -0.3064,5.57324 -0.6922,1.71401 -2.7655,1.98874 -4.343,2.52606 -10.3672,3.23454 -20.6426,6.7617 -31.0544,9.85334 -1.2176,0.5148 -2.6356,0.72605 -3.8432,0.0605 -1.6705,-0.67487 -3.1423,-1.72581 -4.4417,-2.9509 -0.8822,-0.62612 -1.862,-1.44161 -2.6914,-2.24545 -5.1418,-4.49082 -10.5013,-8.76815 -15.1842,-13.75264 -3.9108,-4.15369 -7.5931,-8.51368 -11.2453,-12.89476 -1.7414,-2.46483 -2.8303,-5.3634 -4.2155,-8.05539 -0.6555,-1.43455 -1.1594,-2.9552 -1.9407,-4.31961 -1.3003,-0.96979 -1.9917,-2.53756 -2.345,-4.10881 -1.0783,-5.43507 -1.5325,-11.08175 -0.5369,-16.57108 0.6035,-3.47282 2.3863,-6.58575 3.9638,-9.68518 0.9238,-1.69242 1.7683,-3.45665 3.1099,-4.84995 2.8915,-3.33644 5.6556,-6.78784 8.6832,-10.00373 1.4425,-1.42485 2.9592,-2.82308 4.575,-4.01363 1.8972,-1.12039 3.9836,-1.89784 5.9449,-2.91077 7.7693,-3.68261 15.6248,-7.28921 23.9016,-9.6878 5.7502,-1.67379 11.6209,-2.88957 17.4107,-4.41545 2.7976,-0.7432 5.6354,-1.3669 8.3844,-2.27358 1.558,-0.54244 2.8459,-1.55563 4.1563,-2.52402 0.728,-0.56997 1.5889,-0.8898 1.9359,-1.78687 0.4509,-0.56991 0.9588,-1.09579 1.0662,-1.88788 -0.2029,-1.05962 -0.948,-1.92408 -1.5312,-2.8125 -0.4755,-0.81949 -1.5636,-1.32323 -2.4063,-1.84375 -3.5288,-1.56327 -7.5723,-1.62928 -11.3174,-0.88981 -2.5493,0.45863 -5.0686,1.23493 -7.6701,1.32731 -1.548,0.0971 -3.047,-0.35648 -4.4108,-1.06125 -1.8533,-0.87736 -3.7413,-1.67208 -5.6422,-2.43483 -3.6532,-1.60548 -7.3063,-3.21095 -10.9595,-4.81642 -5.0625,5.89583 -10.125,11.79167 -15.1875,17.6875 0.3889,1.24698 -0.1158,2.77372 -0.9062,3.625 -0.6593,0.77846 -1.5163,1.1925 -2.2935,1.90924 -1.5551,1.34602 -3.3797,2.59006 -4.9362,3.83313 -0.663,0.67417 -1.4828,1.22892 -2.1766,1.75763 -1.7017,1.52207 -3.9684,2.22382 -5.9621,3.30832 -2.1166,0.9842 -4.2392,2.26445 -6.6487,2.22342 -3.8778,0.39267 -7.7866,0.26742 -11.6705,0.59326 -0.6583,0.76382 -1.6039,1.13115 -2.5122,1.52069 -0.5732,0.29811 -1.0338,0.67949 -1.3628,1.29181 -0.2584,0.22056 -0.6102,0.52677 -0.4687,0.875 0.835,0.70912 0.9925,1.88786 1.0313,2.9375 0.5249,1.02909 1.4499,1.6294 1.8138,2.77391 1.401,3.65036 1.1976,7.71919 0.2836,11.46116 -0.9527,3.65661 -2.4299,7.21111 -2.683,11.01872 -0.2811,2.84396 -0.2003,5.70314 -0.102,8.55246 -0.051,1.14746 0.047,2.46887 -0.5937,3.44375 -0.8091,1.13124 -2.4332,0.83165 -3.5949,0.49963 -1.8999,-0.70114 -3.7899,-1.43034 -5.6804,-2.1577 -3.0443,-1.22023 -6.0032,-2.66412 -8.756,-4.43568 -1.2915,-0.70377 -2.7302,0.38949 -3.6807,1.07037 -1.3049,1.13112 -1.0289,3.0937 -0.3224,4.48502 0.4218,0.89834 0.9874,1.91894 1.6594,2.53836 3.4031,2.29077 6.8302,4.56197 10.0625,7.09375 0.922,0.74955 1.8929,1.63401 2.8007,2.30735 2.1435,1.41777 3.9179,3.31102 5.9421,4.90682 6.2054,5.24233 12.5749,10.34527 18.0671,16.35821 4.7102,4.99296 8.918,10.4604 13.9174,15.17707 0.6718,0.58954 1.2323,1.24507 1.9915,1.62555 0.6964,0.7066 1.7768,1.40173 1.55,2.56798 -0.1186,1.4344 -1.6199,2.36367 -2.9933,2.0778 -3.5557,-0.33192 -6.9956,-1.35554 -10.5033,-1.98031 -8.9656,-1.9495 -17.7607,-4.61673 -26.4365,-7.58827 -5.4204,-1.92242 -10.6871,-4.26846 -15.7732,-6.9522 -2.2228,-1.14788 -4.1503,-2.74508 -5.9916,-4.4161 -4.3221,-3.65951 -8.5464,-7.46163 -12.3611,-11.65436 -1.6068,-1.92886 -3.3729,-3.73042 -4.8075,-5.77694 -1.4907,-2.83307 -2.8835,-5.75727 -3.9519,-8.78524 -1.1908,-4.28609 -1.37,-8.7663 -1.5861,-13.18601 -0.069,-5.79326 0.3561,-11.72941 2.5676,-17.14847 1.168,-3.06868 2.6024,-6.04074 4.3414,-8.82009 2.5151,-3.18749 5.4412,-6.08584 8.3221,-8.96539 2.3832,-2.20334 4.8325,-4.39479 7.3831,-6.3685 2.9313,-1.93265 6.1852,-3.28343 9.2998,-4.88948 8.2707,-3.93555 16.961,-6.93181 25.8169,-9.24266 4.0944,-1.045 8.2553,-1.92356 12.49,-2.09213 2.899,-0.19584 5.8146,-0.14094 8.6936,-0.57938 2.3045,-0.24773 4.6657,-0.41396 6.94,0.1435 1.1746,-0.9448 1.9908,-2.26583 2.9996,-3.37956 2.8954,-3.47334 5.743,-6.98578 8.5941,-10.49544 0.2665,-0.46158 0.8503,-0.98793 1.1511,-1.55067 0.5202,-0.67216 1.1134,-1.33381 1.6926,-1.98058 -0.4005,-1.2217 -0.017,-2.48989 0.4149,-3.63941 1.4464,-4.90737 2.7776,-9.8652 3.656,-14.90796 0.2111,-1.5641 0.5122,-3.16501 0.3703,-4.73754 -0.3049,-1.07372 -0.9616,-1.94602 -1.6774,-2.71259 -0.9493,-0.80074 -2.354,-1.54378 -3.54,-0.76444 -1.155,0.54426 -2.3825,0.99233 -3.1925,1.94944 -0.6841,1.26505 -1.324,2.78468 -1.8192,4.22143 -0.9165,2.7546 -1.9412,5.47773 -3.3201,8.03874 -1.2378,2.41576 -2.3448,4.90231 -3.7483,7.22237 -1.5342,2.2498 -3.2374,4.3898 -5.168,6.28582 -1.3976,0.64446 -3.0083,0.22398 -4.4698,0.62017 -4.7597,0.73872 -9.3167,2.37181 -13.9953,3.4751 -6.1604,1.64065 -12.2787,3.44197 -18.4769,4.94047 -4.1909,1.00464 -8.4,2.15118 -12.7274,2.3209 -1.7337,-0.0237 -3.5313,0.0484 -5.2039,-0.43319 -1.5018,-0.61983 -2.1066,-2.35816 -3.4583,-3.227 -1.3795,-1.05838 -1.7481,-2.84051 -2.4193,-4.36956 -2.0867,-4.91888 -1.9906,-10.47896 -0.9119,-15.62762 0.3304,-1.32962 1.0667,-2.4842 2.1388,-3.33003 2.5191,-2.54309 4.7444,-5.39612 7.6109,-7.5751 1.0502,-0.92684 2.3741,-1.60667 3.3475,-2.52612 1.3022,-0.99747 2.4989,-1.91001 3.7129,-3.03876 1.4987,-1.34096 3.276,-2.55004 4.8237,-3.723962 0.6524,-0.591449 1.2853,-1.006914 1.8971,-1.554908 1.1988,-1.661313 2.5115,-3.477196 3.7531,-5.208365 0.753,-1.194194 1.5415,-2.550304 1.4344,-4.010385 -0.3946,-1.245314 -1.624,-1.67101 -2.6544,-2.289392 -1.1905,-0.658325 -2.6322,-0.480979 -3.78,0.175431 -2.7135,1.24502 -5.1965,2.934685 -7.7341,4.500556 -3.5986,2.333942 -7.0435,4.893428 -10.4565,7.488405 -0.9044,0.59929 -1.7725,1.73385 -3,1.90625 -1.7086,0.31349 -3.4941,0.1599 -5.1875,-0.1875 -1.4962,-0.384045 -2.9271,-1.10846 -3.8956,-2.324573 -0.9547,-0.931444 -1.9595,-1.870914 -2.4258,-3.154208 -0.6887,-1.566861 -1.5179,-3.070256 -2.402,-4.520804 -0.9706,-2.536997 -0.784,-5.398804 -0.062,-7.974259 0.7654,-2.283165 2.082,-4.340167 3.7855,-6.026156 1.2325,-1.488261 2.736,-2.689922 3.625,-4.375 1.5969,-2.59802 3.5708,-4.979536 4.918,-7.716945 0.4697,-0.759329 -0.1442,-1.475499 -0.5252,-2.091248 -0.3693,-0.819114 -1.1166,-1.357391 -1.8616,-1.723057 -0.8707,-0.507917 -1.9028,-0.473433 -2.875,-0.40625 z" />
    </g>
  </g>
</svg>
