<?xml version="1.0" encoding="UTF-8" standalone="no"?>
<!-- Created with Inkscape (http://www.inkscape.org/) -->

<svg
   xmlns:dc="http://purl.org/dc/elements/1.1/"
   xmlns:cc="http://creativecommons.org/ns#"
   xmlns:rdf="http://www.w3.org/1999/02/22-rdf-syntax-ns#"
   xmlns:svg="http://www.w3.org/2000/svg"
   xmlns="http://www.w3.org/2000/svg"
   xmlns:sodipodi="http://sodipodi.sourceforge.net/DTD/sodipodi-0.dtd"
   xmlns:inkscape="http://www.inkscape.org/namespaces/inkscape"
   width="3200"
   height="800"
   id="svg4770"
   version="1.1"
   inkscape:version="0.48.1 r9760"
   sodipodi:docname="Reindeer_2_outline.svg">
  <sodipodi:namedview
     id="base"
     pagecolor="#ffffff"
     bordercolor="#666666"
     borderopacity="1.0"
     inkscape:pageopacity="0.0"
     inkscape:pageshadow="2"
     inkscape:zoom="0.5040625"
     inkscape:cx="1600"
     inkscape:cy="400"
     inkscape:document-units="px"
     inkscape:current-layer="1-default"
     showgrid="false"
     inkscape:window-width="1676"
     inkscape:window-height="1006"
     inkscape:window-x="0"
     inkscape:window-y="0"
     inkscape:window-maximized="1" />
  <defs
     id="defs4772">
    <inkscape:path-effect
       back_thickness="0.25"
       front_thickness="1"
       stroke_width_bottom="1"
       stroke_width_top="1"
       fat_output="false"
       bottom_smth_variation="0;1"
       top_smth_variation="0;1"
       scale_tb="2"
       scale_tf="2"
       scale_bb="2"
       scale_bf="2"
       top_tgt_variation="0;1"
       bottom_tgt_variation="0;1"
       top_edge_variation="0;1"
       bottom_edge_variation="0;1"
       bender="1515.7747,389.89493 , 5.62567,0"
       do_bend="true"
       growth="0"
       dist_rdm="0;1"
       direction="1515.7747,384.26926 , 14.497761,12.567514"
       is_visible="true"
       id="path-effect5349"
       effect="rough_hatches" />
  </defs>
  <metadata
     id="metadata4775">
    <rdf:RDF>
      <cc:Work
         rdf:about="">
        <dc:format>image/svg+xml</dc:format>
        <dc:type
           rdf:resource="http://purl.org/dc/dcmitype/StillImage" />
        <dc:title></dc:title>
      </cc:Work>
    </rdf:RDF>
  </metadata>
  <g
     id="1-default"
     inkscape:groupmode="layer"
     inkscape:label="1-black">
    <path
       inkscape:connector-curvature="0"
       id="path3128"
       d="m 1623.5206,16.385719 c -1.2202,0.0082 -2.4631,0.18806 -3.6919,0.562567 -0.8266,0.594506 -1.6306,1.256382 -2.4611,2.004145 -1.6487,0.959126 -2.4993,2.308548 -3.3403,3.516044 -2.5051,2.856268 -5.0093,5.180496 -8.2978,6.715643 l -0.8088,-0.632887 -0.7734,-0.914172 c -0.7958,-0.784746 -1.6032,-1.752686 -1.5823,-2.672193 -2.3622,-3.426961 -5.5335,-5.723571 -9.5636,-7.348532 -0.8026,-0.478243 -3.2588,-0.53414 -4.0786,-0.246123 -0.8148,0.05809 -0.7992,-0.07084 -1.6174,0.140642 -1.64,0.576008 -3.3011,1.826243 -4.1489,3.340242 -0.8322,0.824379 -0.8547,1.845565 -0.8791,2.918316 0.7592,2.393858 0.7142,4.123426 1.4768,6.364039 l 4.606,11.321661 0,1.300936 c 0.7748,1.704238 1.5459,3.710483 2.3206,5.414708 2.3257,5.036086 6.2739,9.715473 9.423,14.310298 3.142,4.901331 6.3,9.583936 7.8056,14.908025 0.7747,1.704241 1.5168,3.863317 1.4768,5.62567 0.7676,2.010738 1.5238,4.400669 1.4767,6.469521 -0.1114,4.903986 0.6181,8.462301 0.5273,12.446791 l 0,0.66805 c -0.056,2.45198 0.6991,5.38613 0.633,8.29787 0.7798,1.47436 1.5716,2.26748 1.5471,3.34024 0.7657,2.08735 0.7071,4.53541 1.4766,6.46952 0.794,0.86137 0.7867,1.39521 1.5823,2.17994 l -3.3402,3.90281 c -0.8444,1.36075 -1.6935,2.73902 -3.3403,3.62153 -1.6627,1.57213 -2.525,3.01133 -4.1841,4.43021 -1.6623,1.57213 -3.3293,3.13531 -5.8014,4.5357 -0.8234,0.44127 -1.6396,1.25275 -2.4613,1.61738 -1.6364,0.42276 -3.2632,0.71134 -4.8872,0.59773 -2.4427,0.0978 -4.0832,-0.2331 -6.5048,-1.05482 -2.4232,-0.7451 -4.8259,-1.34156 -6.4343,-2.14478 0,0 -0.8113,-0.48371 -1.6175,-0.80869 -0.8006,-0.55487 -2.4355,-0.81009 -3.2347,-1.44158 -0.8008,-0.55486 -1.5858,-1.21981 -3.1996,-1.79318 -0.7939,-0.86136 -2.4075,-1.80453 -3.1995,-2.74252 -1.5963,-1.3396 -3.1811,-2.15613 -3.9732,-3.09412 0.014,-0.3065 -1.6042,-1.32852 -2.3909,-2.49639 -2.3989,-1.81783 -4.0082,-3.39178 -5.5905,-5.34438 -3.1511,-4.5182 -7.0709,-9.73494 -9.3878,-15.15415 0.018,-0.76624 -0.7919,-1.93887 -1.5822,-2.95348 0.031,-1.37924 0.043,-2.29411 -0.7384,-3.691844 -0.726,-3.849736 -2.262,-7.546308 -3.7974,-11.567784 -0.7728,-1.780851 -1.5278,-3.355645 -3.1293,-4.465376 0.02,-0.919493 -0.785,-1.542142 -1.5822,-2.250268 -0.7833,-1.321099 -1.5944,-2.489246 -3.1996,-3.445723 -0.7919,-0.93799 -2.3653,-1.970368 -3.1643,-2.601872 -1.6052,-0.956477 -2.414,-1.065603 -4.0435,-0.949332 -0.8113,-0.09519 -0.8362,0.0056 -1.6526,0.140642 -0.013,0.383108 -0.8361,0.673932 -1.6525,0.80869 -0.014,0.459741 -0.8317,0.729402 -0.8439,1.265776 -0.03,1.302623 -0.8352,1.761656 -0.8438,2.144786 l -0.035,1.441578 c -0.033,1.455867 -0.073,2.837768 0.7032,4.465376 1.492,5.937084 3.0061,11.934791 5.3093,17.966981 l 2.2503,7.03209 c 0.7729,1.78085 0.7194,4.17302 -0.1407,6.2234 -0.014,0.613 -0.8282,1.27936 -0.8438,1.96898 -0.8288,0.67113 -1.6764,1.50518 -2.4965,1.79318 -1.6345,0.34614 -2.4182,0.39264 -3.2347,0.52741 -1.6242,-0.11357 -3.2667,-0.0848 -4.8873,-0.3516 -2.432,-0.36197 -4.0497,-1.14096 -6.4695,-2.03931 -4.0265,-1.77821 -8.0475,-3.41027 -12.06,-5.80147 -3.2136,-1.75971 -7.2502,-3.4593 -10.4779,-4.60602 -0.8039,-0.40162 -1.606,-0.42864 -2.426,-0.14064 -0.8234,0.44127 -1.6378,1.03547 -2.4613,1.47674 -0.014,0.38312 -0.8282,0.57615 -0.8438,1.26577 l -0.07,2.98864 c -0.025,1.07274 -0.052,1.93888 0.7383,2.95348 l -0.036,0.77353 c 0.7903,1.01462 0.7622,2.06059 1.5471,3.30508 l 0,0.45708 c -0.014,0.613 -0.028,1.09768 0.7735,1.65254 -0.015,0.68962 1.5928,1.4741 1.5823,1.93383 0.7867,1.16787 1.5654,2.185 2.3557,3.1996 0.7956,0.78475 1.5953,1.7468 2.3909,2.53155 1.5982,1.26297 3.217,2.50548 4.817,3.69185 2.404,1.58795 4.8102,3.01749 8.0517,3.5512 2.4181,0.97497 5.662,1.51148 8.0869,2.17995 0.8114,0.0952 1.6164,0.35566 2.4262,0.5274 1.6274,-0.0397 3.2606,-0.17362 5.6958,0.0351 1.6192,0.34348 4.0344,0.56478 6.4696,0.77353 2.4304,0.43859 4.8841,0.4012 6.5047,0.66805 1.6191,0.34349 4.0454,1.01516 5.6609,1.51189 1.6204,0.26685 3.2331,0.78166 4.852,1.12514 2.4304,0.4386 4.0454,0.69871 5.6609,1.19545 5.6473,2.04506 11.2864,4.23927 16.1035,7.03209 6.4288,3.4428 11.9933,8.64678 15.9276,14.4861 0.7748,1.70422 0.7742,2.93064 1.5471,4.7115 0.7747,1.70423 1.5495,3.55722 2.3207,5.41471 0.7414,3.16008 0.6656,6.36432 0.5976,9.35267 0.7399,3.23673 0.6649,6.29805 1.4064,9.45816 -0.026,1.14937 -0.048,2.45368 0.7384,3.62153 0.7539,2.62373 1.495,4.87175 2.2502,7.41885 -0.014,0.38313 0.7859,1.15133 0.7737,1.6877 3.048,9.03906 8.5771,17.32286 16.5605,23.94426 l 7.1727,6.18823 7.9814,5.94212 c 7.2195,4.45742 14.4604,8.69734 22.5379,11.18102 4.0386,1.24182 9.681,2.8837 15.3299,4.85214 36.3244,12.24925 40.973,22.17749 53.8658,27.53062 l 1.6877,-1.3361 c -0.066,2.91175 0.6787,4.70479 -0.1406,4.99279 -2.4774,1.63026 -23.1493,52.3655 -31.8905,79.07582 -15.6999,46.5614 -32.3825,64.86294 -59.2454,65.78518 -15.4674,0.56812 -41.8929,17.70601 -54.4987,35.51204 -5.8719,7.83951 -42.643,16.49943 -76.0168,17.58022 -11.3974,0.43071 -22.8264,1.54986 -24.4717,2.35575 -2.458,0.78739 -22.8198,1.32342 -46.4118,1.47674 -22.779,0.17183 -54.4975,1.28052 -69.1605,2.25027 -14.6652,1.04636 -29.3224,1.32616 -32.5587,0.56256 -8.9026,-1.96579 -18.3934,-13.76112 -30.0269,-38.71164 -5.4069,-12.61926 -13.279,-24.7591 -18.8812,-28.7964 -13.5923,-10.3522 -43.3982,-21.97582 -48.3455,-19.02179 -5.7729,3.4719 -4.2302,7.01845 10.1613,18.00214 13.5837,10.73532 24.5629,27.76582 22.7488,36.00429 -0.8811,2.96987 0.6477,7.55837 3.0237,10.37233 11.9179,12.46071 12.5016,22.13384 3.7622,48.76752 -8.6959,24.71808 -7.8843,25.57674 -2.7072,48.31044 7.459,29.68543 4.6973,43.41042 -11.0053,54.32288 -12.3811,7.92144 -40.9738,13.40388 -59.6321,11.21618 -8.1142,-0.87454 -12.2378,1.19197 -24.753,15.01351 -8.3387,9.01002 -21.5859,20.18127 -29.0074,24.6123 -19.7899,11.81612 -64.9201,28.42814 -72.2194,27.49547 -3.2347,-0.84022 -11.3758,-0.25215 -17.932,1.89866 -12.2989,4.32009 -32.9413,18.40501 -30.5894,22.29172 0.7955,0.78474 8.0478,3.25869 15.3299,4.95762 l 13.7477,3.3754 -5.1334,10.61845 c -4.3087,10.63499 -4.3152,11.40471 3.7622,13.88837 4.8429,1.64345 10.5001,3.31993 12.939,3.37541 2.4562,-0.71077 4.8786,0.10362 6.5047,0.14064 1.6085,0.80323 6.5501,-1.40587 11.4975,-4.3599 5.7429,-2.16929 13.9819,-6.5505 19.7249,-8.71978 19.6857,-7.21863 50.1942,-25.71939 56.8896,-34.00015 3.339,-3.75726 15.7242,-11.90344 28.0581,-17.75602 20.5857,-11.03137 22.2247,-11.7546 51.4397,-8.79011 16.2246,1.90235 36.5064,3.90098 44.6186,4.85214 47.8437,6.45482 69.1436,0.0474 94.1948,-28.51511 23.3606,-25.76446 43.0168,-31.16222 88.4285,-25.06939 17.8418,2.32245 33.2178,5.53292 34.8088,7.1024 1.5929,1.49285 6.4199,2.97646 10.4778,3.37541 9.7383,0.98817 42.3358,-0.35331 51.3343,-2.60188 14.7205,-3.49835 66.2535,-16.97371 83.4357,-21.4127 9.0072,-2.63169 19.6279,-4.99784 22.0808,-5.55535 3.264,-0.4624 9.0133,-2.45648 13.1148,-3.97313 4.9178,-1.65141 17.1075,-1.08678 29.2535,1.3361 21.0554,4.08217 37.3573,2.40413 74.2237,-9.17688 37.6823,-11.71577 57.8849,-6.44373 94.5815,25.21004 14.3671,12.05645 27.988,22.11772 29.6052,22.53784 1.617,0.42011 8.7542,7.48436 15.0837,15.29479 11.0681,14.05132 11.8774,14.82251 32.9102,19.9008 l 22.6784,4.3599 -11.0402,-15.57608 c -5.482,-9.3244 -12.6051,-17.94273 -15.8223,-19.5492 -3.2134,-1.75972 -9.5753,-8.26773 -14.3103,-14.6619 -5.5497,-6.33605 -16.7118,-16.56278 -26.3352,-22.60816 -10.4361,-6.06389 -17.6175,-11.81811 -16.7715,-13.25549 0.082,-3.60136 4.1407,-2.57901 35.5473,11.32166 35.4327,15.67886 55.6533,20.51418 75.2433,17.5099 8.9774,-1.32908 15.5165,-3.56843 15.5408,-4.64118 1.7447,-5.17348 -50.63,-26.99515 -76.5442,-32.03116 -23.4823,-4.67402 -68.671,-20.08932 -80.6933,-27.95254 -12.0203,-7.93986 -9.5935,-7.51995 -77.8451,-10.7591 -12.1861,-0.66051 -25.1626,-2.80484 -28.3745,-4.64118 -8.02,-5.01229 -6.9389,-16.46504 3.2348,-34.63303 5.0816,-8.85413 11.0215,-19.83413 13.5719,-24.68262 2.5503,-4.8485 9.2491,-12.92154 14.24,-17.79118 17.4801,-17.54181 18.4765,-25.02071 8.7198,-60.9682 -8.2323,-31.46628 -8.1954,-33.2444 -2.2502,-44.30215 3.3979,-6.36249 9.2463,-13.34503 12.5522,-15.6464 6.6083,-4.44954 52.4203,-15.20234 58.085,-13.92353 4.857,1.03045 9.0422,-5.10555 10.8998,-15.25963 3.5792,-14.33145 0.3985,-17.0638 -27.1087,-23.59266 -19.4175,-4.58155 -39.6091,-11.5005 -54.1119,-17.58021 l 7.3836,-2.21511 33.4728,-5.06311 c 5.7151,-0.94328 12.2509,-2.00611 18.7757,-2.77767 5.7047,-0.48355 10.6124,-1.82681 15.5409,-3.93797 3.2884,-1.53514 5.7389,-3.0042 9.0363,-4.92246 2.4752,-1.55364 3.3598,-4.53052 1.7931,-7.17273 -0.759,-2.39386 -2.3457,-4.36619 -5.5905,-4.74666 -3.2399,-0.61034 -6.4948,0.0787 -9.7747,1.23062 l 3.4106,-6.575 2.5668,-6.68049 1.7931,-6.9266 c 1.8368,-9.2346 3.6946,-18.7265 3.0941,-28.09319 l 5.0279,-6.92661 c 1.6679,-1.802 2.5127,-3.91834 2.5668,-6.29372 0.8669,-2.35685 -0.6691,-5.09783 -3.0941,-5.76631 -2.4197,-0.89834 -4.8695,-0.54659 -7.3486,1.16029 l -8.2627,5.37955 c -3.3005,2.07152 -6.6004,3.6298 -9.8801,4.78182 -1.1945,0.41962 -2.3942,0.7788 -3.5862,1.08997 l -18.0726,21.94012 8.1924,-2.81284 11.4623,-3.727 c 1.4849,6.24358 1.3709,12.46584 0.4219,18.42407 -1.7966,7.47222 -6.0302,14.57506 -11.0403,20.28757 -1.659,1.41888 -4.1475,2.99507 -5.8016,4.18409 -1.6432,0.72927 -3.2791,0.99359 -4.9224,1.72286 -0.8199,0.288 -1.6414,0.62617 -2.4611,0.91417 -0.8185,0.21138 -0.8053,0.30385 -0.8088,0.45709 l -3.2699,-0.21096 c 0.054,-2.37535 0.1145,-4.70002 1.7932,-6.96177 1.6956,-3.02801 3.4008,-6.42569 3.4808,-9.9504 l 0.071,-2.6722 c -0.7819,-1.39773 -1.5859,-2.13399 -3.1997,-2.70735 -2.4267,-0.59187 -4.8552,-0.71709 -7.3133,0.0703 -0.8182,0.21139 -0.8342,0.527 -1.6526,0.73837 -3.2849,1.38191 -4.9593,3.2643 -7.4541,5.66083 -2.4893,2.16664 -4.9892,4.65183 -7.4891,7.27821 -1.687,2.64487 -3.3778,5.2022 -5.0631,7.77046 l -1.6877,2.63703 c -9.0473,4.39405 -18.0399,7.34842 -28.6558,9.17687 l -6.5397,1.12514 -4.8874,0.5274 c 0.044,-1.9156 0.09,-4.31366 0.9494,-6.36404 0.8703,-2.51011 1.7359,-5.16969 3.4105,-7.27821 1.6956,-3.02799 5.0314,-5.94282 7.5244,-8.2627 4.1415,-3.27901 8.2593,-5.95094 12.3764,-8.15722 8.2308,-4.2593 16.464,-8.12615 24.6827,-11.84907 l 4.922,-1.93377 4.1137,-1.54705 8.1924,-2.88316 8.8252,-3.0238 18.2133,-22.18623 c -0.6968,0.15192 -1.3788,0.30709 -2.0746,0.42192 l 3.3403,-4.74666 2.6018,-6.99693 3.4809,-9.66912 1.7228,-4.64117 c 0.054,-2.37536 -0.6827,-4.76613 -3.0941,-6.0476 -1.6067,-0.87985 -4.0456,-0.68417 -5.6959,0.35161 -2.4722,1.40038 -4.1583,3.32875 -5.8367,5.59051 -2.5154,3.316 -4.2334,6.73357 -6.7508,10.1262 -1.7093,3.64099 -5.0175,6.87689 -7.5242,9.80976 -5.8112,5.15766 -9.961,9.26123 -14.9433,13.74773 -3.3233,3.06765 -8.2929,6.64605 -14.0289,8.50883 0,0.22988 -0.8415,0.44673 -1.6526,0.3516 -2.4599,0.86403 -4.8852,0.0476 -6.4696,-1.82834 -0.7989,-0.63148 -1.5643,-1.51919 -1.547,-2.28543 -0.7903,-1.01461 -0.7688,-1.92809 0.07,-3.05895 0.08,-3.52475 0.1353,-7.28618 -0.5977,-10.82942 -0.7224,-4.00297 -2.2368,-7.63862 -4.606,-10.75909 -2.378,-2.73735 -6.4573,-2.90412 -8.9659,0.10542 -0.8461,1.43738 -1.7127,3.73892 -1.7581,5.73115 0.5585,11.20569 0.3158,22.14127 0.071,32.94533 l -40.1533,12.9742 -5.6257,-3.65668 -9.5636,-7.7353 c -7.1775,-6.2964 -14.3437,-13.35841 -19.8656,-20.92046 -3.9466,-5.30293 -7.0847,-11.05578 -9.3879,-17.08797 -0.8007,-0.55487 -0.7778,-0.93448 -1.5822,-1.3361 -1.5283,-4.32797 -2.2424,-8.54257 -2.1447,-12.83356 0.1012,-4.44422 0.2147,-9.05151 2.7424,-12.90388 1.6992,-3.18125 3.3728,-6.37874 5.0631,-9.17687 3.353,-4.37025 6.7222,-8.49749 10.056,-12.02487 4.1481,-3.58552 9.069,-6.16415 13.9937,-8.12206 3.294,-1.76501 8.2295,-3.71959 12.3414,-5.69599 3.2816,-1.22865 4.9291,-1.72162 7.3837,-2.35575 3.2799,-1.15204 5.7301,-2.18458 9.0011,-2.95348 5.717,-1.01992 10.6247,-2.2577 15.5409,-3.83249 l 7.3484,-1.61738 c 3.2749,-0.92216 6.5717,-3.06961 9.0715,-5.69599 1.6712,-1.95524 2.5597,-4.38622 0.9845,-6.64532 -0.747,-2.93023 -3.9681,-5.15596 -7.2079,-5.76631 -3.2361,-0.76359 -6.4752,-1.13047 -9.7395,-0.66805 -4.0767,0.4439 -7.3448,1.43585 -11.4271,2.10963 l -23.4872,-10.372333 -18.9866,23.065243 c 0.6687,0.52204 0.6401,1.58248 -0.1406,2.21511 -3.3182,2.83777 -6.641,5.45645 -9.9505,7.9111 -3.3022,2.14815 -6.5898,3.90843 -9.88,5.52019 -0.8217,0.36463 -1.646,0.95747 -3.2699,0.84385 -4.0686,0.0609 -7.3517,0.19528 -11.4272,0.56257 -0.8111,-0.0952 -2.4147,-0.28761 -3.2347,0 l -0.035,0.77353 c -2.4561,0.71077 -4.1029,1.76586 -4.9576,3.58636 -0.8271,0.5945 -0.8246,1.19643 -0.8438,2.03931 -0.019,0.84288 0.7514,2.23906 1.547,3.02379 0,0.15325 -0.8087,0.35161 -0.8087,0.35161 0.7747,1.70424 2.3599,3.19932 3.1293,5.13342 0.7834,1.32111 0.7328,2.77599 0.7032,4.07861 l -0.035,2.70736 c -0.045,1.99223 -0.9348,4.49575 -1.7931,6.46952 -1.7617,5.93973 -2.7076,12.04572 -2.0393,18.42407 l -0.07,3.76216 c -4.0405,-1.1652 -7.2985,-2.39327 -11.3216,-4.32473 -1.6015,-1.10973 -3.982,-2.4667 -5.5906,-3.26992 -1.6152,-0.49675 -3.2475,-0.85731 -4.8872,-0.28129 -2.4599,0.86401 -4.9695,3.27062 -4.2193,6.0476 -0.025,1.07275 -0.053,2.68353 0.7384,3.62153 -0.018,0.76625 0.7892,1.10354 0.7735,1.79318 1.5826,1.95259 3.1804,3.28532 4.7818,4.39505 4.0128,2.39122 7.2123,5.06646 11.2162,7.84078 3.1927,2.67921 7.1867,5.52311 10.3724,8.50883 7.1964,5.45353 13.579,11.41367 19.1273,17.82634 3.9759,4.00033 7.1379,8.3987 11.1107,12.55227 l 5.5552,4.92246 -0.8086,0.31645 c -15.3943,-2.65012 -29.9575,-6.67624 -44.478,-11.98971 -5.6453,-2.12169 -10.4461,-4.61342 -15.2595,-7.55949 -5.6092,-3.73081 -11.1966,-8.13508 -15.963,-13.15001 -3.9777,-3.92371 -7.1554,-8.29869 -9.4932,-12.7984 -0.7801,-1.47436 -1.5426,-3.0902 -2.3207,-4.64118 -1.5108,-5.09422 -2.1998,-10.79746 -2.0744,-16.31444 -0.569,-10.74593 2.928,-21.0052 9.6339,-29.74573 4.1957,-5.65437 9.9758,-10.57967 15.7519,-14.20482 6.5961,-3.91317 13.193,-7.37095 20.5688,-9.80976 1.6436,-0.72925 4.0897,-1.45699 5.7312,-2.10962 6.5527,-1.99754 12.3074,-3.78403 18.846,-5.16859 1.6293,-0.11631 2.4553,-0.32863 3.2699,-0.38676 1.6314,-0.1929 2.4458,-0.15242 4.0786,-0.42193 0,0 1.6149,0.11581 2.4261,0.21096 2.4408,-0.0212 4.8948,-0.49324 8.1573,-0.87901 0.4074,-0.029 0.7595,-0.0658 1.0899,-0.0703 0.9918,-0.0134 1.7368,0.0683 2.9534,0.21097 0.6086,0.0713 1.665,0.37013 2.4965,0.84385 l 0.035,0 18.8109,-22.889449 -1.3009,-0.562567 1.7579,-5.695991 c 1.7706,-6.322848 3.5406,-12.953183 3.6919,-19.619524 0.056,-2.451982 -2.3398,-4.573658 -3.938,-5.836632 -1.6049,-0.956488 -4.014,-0.952786 -5.6609,-0.07032 -2.4543,0.634137 -4.1416,1.883958 -4.9926,3.551204 -0.8655,2.280242 -1.7367,4.822156 -2.602,7.102408 -0.8861,3.199735 -2.5658,6.068602 -4.2544,8.79011 -0.8757,2.739994 -2.5392,5.080475 -4.2192,7.418852 -0.8477,1.514003 -2.5293,3.168647 -3.3754,4.606017 l -2.426,-0.140641 -4.0787,0.597727 -12.271,3.164436 -12.3062,3.55121 -14.697,3.65668 c -4.9128,1.42153 -9.8005,1.85945 -13.8532,1.23062 l -2.3909,-2.46123 c -1.5911,-1.56948 -2.3907,-3.24932 -2.3558,-4.78182 0.014,-0.38312 -0.7822,-0.49588 -0.7735,-0.87901 -0.7714,-1.85749 -0.7373,-3.534667 -1.5119,-5.238908 l 0.1406,-5.836632 c 0.037,-1.609111 0.072,-3.21641 0.9142,-4.500536 0.015,-0.689618 0.8351,-1.585854 0.8438,-1.968985 0.8305,-0.747753 1.6575,-1.400679 2.4964,-2.531551 0.841,-1.207505 2.5028,-2.778238 3.3403,-3.832488 1.6467,-0.88251 3.3115,-1.934375 4.1489,-2.988637 l 6.6102,-5.133424 4.9928,-3.867648 c 2.4858,-2.013394 4.9602,-4.498998 6.6452,-7.067248 1.6611,-1.495501 1.682,-2.804427 2.5316,-4.395055 0.8497,-1.590627 0.9173,-3.822244 0.1406,-5.449868 -2.3693,-3.120459 -6.4063,-4.348394 -10.5129,-2.601872 -8.2203,3.799559 -14.8398,8.574392 -21.483,14.556421 -0.013,0.306501 -0.8326,0.80197 -1.6526,1.089974 -0.8164,0.134718 -0.7992,-0.07084 -1.6173,0.140641 -3.2538,0.0027 -6.4903,-1.628448 -8.0518,-4.500536 -0.7746,-1.704238 -1.5459,-3.464346 -2.3205,-5.168584 0,-0.153258 -0.8124,-0.268681 -0.8088,-0.421925 -0.7676,-2.010741 -0.7152,-3.838082 -0.6681,-5.906954 0.8443,-1.36074 0.8761,-3.270069 2.5316,-4.535696 0.8619,-2.127002 2.5464,-3.945398 4.2192,-5.977275 3.3269,-3.220887 5.8466,-6.824206 7.5596,-10.618452 0.8496,-1.590626 0.8851,-3.131665 0.1057,-4.606017 -0.7835,-1.321121 -2.3722,-2.507732 -3.1645,-3.445723 -0.8007,-0.55486 -2.4569,-0.579242 -3.2699,-0.597727 l 0.035,-0.03516 c -0.4058,-0.0284 -0.8238,-0.03789 -1.2306,-0.03516 z"
       style="fill:none;stroke:#000000;stroke-width:3.99999976;stroke-linecap:round;stroke-linejoin:round;stroke-miterlimit:4;stroke-opacity:1;stroke-dasharray:none" />
  </g>
  <g
     inkscape:groupmode="layer"
     id="layer2"
     inkscape:label="2-Red (nose)" />
</svg>
