<?xml version="1.0" encoding="UTF-8" standalone="no"?>
<!-- Created with Inkscape (http://www.inkscape.org/) -->

<svg
   xmlns:dc="http://purl.org/dc/elements/1.1/"
   xmlns:cc="http://creativecommons.org/ns#"
   xmlns:rdf="http://www.w3.org/1999/02/22-rdf-syntax-ns#"
   xmlns:svg="http://www.w3.org/2000/svg"
   xmlns="http://www.w3.org/2000/svg"
   xmlns:sodipodi="http://sodipodi.sourceforge.net/DTD/sodipodi-0.dtd"
   xmlns:inkscape="http://www.inkscape.org/namespaces/inkscape"
   width="3200"
   height="800"
   id="svg6551"
   version="1.1"
   inkscape:version="0.48.1 r9760"
   sodipodi:docname="MerryChristmas_1_Filled.svg">
  <sodipodi:namedview
     id="base"
     pagecolor="#ffffff"
     bordercolor="#666666"
     borderopacity="1.0"
     inkscape:pageopacity="0.0"
     inkscape:pageshadow="2"
     inkscape:zoom="0.54057415"
     inkscape:cx="1776.2085"
     inkscape:cy="406.62983"
     inkscape:document-units="px"
     inkscape:current-layer="1-default"
     showgrid="false"
     inkscape:window-width="1676"
     inkscape:window-height="1006"
     inkscape:window-x="0"
     inkscape:window-y="0"
     inkscape:window-maximized="1" />
  <defs
     id="defs6553">
    <inkscape:path-effect
       back_thickness="0.25"
       front_thickness="1"
       stroke_width_bottom="1"
       stroke_width_top="1"
       fat_output="false"
       bottom_smth_variation="0;1"
       top_smth_variation="0;1"
       scale_tb="2"
       scale_tf="2"
       scale_bb="2"
       scale_bf="2"
       top_tgt_variation="0;1"
       bottom_tgt_variation="0;1"
       top_edge_variation="0;1"
       bottom_edge_variation="0;1"
       bender="1685.2611,361.62319 , 5,0"
       do_bend="true"
       growth="0"
       dist_rdm="0;1"
       direction="1685.2611,356.62319 , 28.130286,24.048505"
       is_visible="true"
       id="path-effect7740"
       effect="rough_hatches" />
  </defs>
  <metadata
     id="metadata6556">
    <rdf:RDF>
      <cc:Work
         rdf:about="">
        <dc:format>image/svg+xml</dc:format>
        <dc:type
           rdf:resource="http://purl.org/dc/dcmitype/StillImage" />
        <dc:title></dc:title>
      </cc:Work>
    </rdf:RDF>
  </metadata>
  <g
     id="1-default"
     inkscape:groupmode="layer"
     inkscape:label="1-default">
    <path
       style="font-size:446.24008179px;font-style:normal;font-variant:normal;font-weight:500;font-stretch:normal;text-align:start;line-height:89.99999762%;letter-spacing:0px;word-spacing:0px;writing-mode:lr-tb;text-anchor:start;fill:none;stroke:#007400;stroke-width:4;stroke-miterlimit:4;stroke-opacity:1;stroke-dasharray:none;font-family:GoudyMedieval;-inkscape-font-specification:GoudyMedieval Medium"
       d="m 1095.8125,5.931365 c -29.3836,7.72169 -59.3692,14.445912 -89.875,14.78125 -5.4249,-0.447908 -14.72365,-1.797532 -15.75,5.65625 -2.13286,6.349567 2.7823,13.634338 9.78125,12.78125 8.66545,1.011971 18.26265,-1.25744 26.37505,1.625 1.3039,5.560078 -4.5185,9.821243 -5.6351,15.073905 -29.40563,64.40143 -57.30638,129.43044 -83.61495,195.14484 -24.01608,-60.14074 -48.45728,-120.15785 -76.6951,-178.452704 -5.74551,-11.414019 -12.04168,-22.544024 -19.5549,-32.859791 8.62028,-5.380356 19.07897,-6.481246 28.1875,-10.375 3.32368,-4.439066 -2.36867,-9.126303 -3.40625,-13.40625 -3.93191,-4.875517 -10.04456,0.595262 -14.84375,0.90625 -17.18144,4.36245 -32.4989,16.28596 -50.99987,14.703371 -18.96409,0.606913 -39.04128,-2.123939 -57.03138,4.921629 -5.43222,2.791728 -1.43327,10.179512 3.5,10.59375 12.8265,1.241214 25.96392,-1.652255 38.78125,-0.21875 7.76399,0.797256 15.56801,6.064754 15.625,14.5 0.69063,11.808413 -2.53772,23.465784 -3.06017,35.249281 -7.82844,68.683664 -13.51272,137.750194 -26.06483,205.781974 -0.69895,4.26957 -2.19752,8.91851 -7.1875,9.34375 -11.47271,4.33229 -25.30477,5.93196 -34.21875,15 -2.41885,6.39675 5.84408,13.43865 11.96875,10.1875 9.03639,-3.06725 17.14909,-9.03573 27.0625,-8.4375 20.42501,-1.28335 40.1229,9.60358 60.5,5.84375 5.59209,-1.82451 9.81435,-9.54854 7.1875,-14.4375 -16.04861,-4.25329 -32.26427,-7.82198 -48.4375,-11.5625 8.08633,-73.74476 15.27613,-147.86645 27.84375,-220.906255 0.83394,-3.243177 3.5388,2.538247 4.94574,3.430207 10.53731,14.453438 17.06712,31.627308 25.12393,47.606168 20.53461,45.07332 38.39848,91.39294 54.46158,138.27613 4.59193,15.61367 5.91647,32.40472 12.8125,47.1875 3.48801,4.01465 9.53318,0.7726 11,-3.65625 11.40136,-18.16201 17.90776,-38.9311 27.02805,-58.37106 22.38846,-51.90916 41.95586,-105.0446 66.5349,-155.98081 2.6549,-5.01936 5.4459,-10.001288 9.0308,-14.429385 10.7643,27.559135 9.2658,57.789775 10.8954,86.874135 1.0229,36.0452 -1.0659,72.30343 3.9483,108.12587 0.4919,10.4801 0.712,24.35834 -10.375,29.5 -7.5532,4.25416 -16.6186,4.54036 -24.75,6.71875 -2.2295,3.62752 1.0574,8.43667 3.75,11.0625 7.7112,5.04406 17.2446,0.0598 25.375,-1.375 11.4989,-3.74332 23.9112,-10.22369 36.0095,-5.13599 19.2637,3.83474 38.3278,10.48421 58.1155,9.26099 6.0782,-2.86811 4.569,-13.50723 -1.375,-15.8125 -10.1134,-3.81208 -21.3671,-3.18072 -31.9869,-5.12988 -3.9168,-0.88566 -10.2687,-0.87809 -9.2547,-6.62811 -6.2151,-46.56176 -7.9833,-93.57743 -11.6907,-140.37883 -2.8643,-45.05282 -6.5236,-90.228253 -5.7864,-135.363185 0.7915,-4.674506 7.4469,-3.762367 10.8125,-5.5625 7.8693,-2.422479 16.6241,-3.033763 23.9375,-6.65625 5.2024,-6.302987 -0.8329,-16.682825 -9,-15 z m 757.4687,141.343745 c -8.4915,1.45047 -18.0521,8.3136 -16.305,18.06174 -1.0052,36.63087 -7.613,74.48747 -27.445,105.78202 -1.2405,2.52406 -3.0847,3.00044 -4.0937,-0.0625 -16.6632,-25.06942 -21.8126,-56.02869 -38.0017,-81.49004 -9.6878,-17.23668 -25.175,-31.32589 -44.3728,-36.8906 -8.4946,-3.89428 -19.1812,-3.82377 -26.188,3.00563 -5.8318,4.29178 -12.6955,8.85634 -16,15.28125 2.915,7.97052 13.1274,7.08907 19.4688,10.71875 26.6763,11.37541 39.0952,39.90922 50.8375,64.71472 11.6766,24.99416 23.2697,50.32514 31.2562,76.72279 -1.5653,5.85282 -6.1257,10.28773 -8.2069,16.06254 -18.3725,34.23737 -36.7134,68.49227 -55.1056,102.71871 5.7321,13.14461 20.7749,17.55218 31.9688,24.71875 7.2895,1.22334 11.981,-6.67033 17.4916,-9.90689 3.9836,-3.04378 9.9049,-6.977 9.6958,-12.21811 -6.9345,-7.19599 -14.9754,-13.34008 -22.3124,-20.15625 32.2544,-63.33936 68.0494,-125.18613 92.9644,-191.94065 8.7375,-24.56293 16.0208,-50.47952 14.7856,-76.77811 -0.9203,-4.82675 -5.3141,-8.88639 -10.4376,-8.34375 z m -395.9374,1.1875 c -14.0396,3.54263 -24.8556,13.85904 -37.0663,21.07776 -5.2318,3.26594 -10.3997,8.2527 -16.465,9.26599 -4.5056,-3.46481 -1.047,-10.11001 -1.6875,-14.96875 0.8488,-5.47602 -0.7419,-13.70253 -7.7188,-13.53125 -13.0327,-0.23833 -24.7385,6.43385 -37.3124,8.5625 -10.0753,2.78612 -21.7398,0.65677 -31.0626,5.78125 -4.0506,4.62629 1.2285,11.14497 6.1876,11.9375 8.3068,2.82983 19.6715,5.81995 21.0624,16.03125 4.3859,19.62546 1.045,40.00709 1.7578,59.96847 -0.1721,26.00335 -2.3021,52.33013 1.4922,78.12529 1.0317,4.61687 6.0953,6.76306 10.2813,4.90625 13.1093,-2.93682 24.0128,-11.68419 34.4063,-19.65625 4.9861,-6.99449 0.9216,-16.49941 2.2488,-24.43746 -0.01,-29.2917 -0.1763,-58.58409 0.1262,-87.87505 10.6698,-9.23638 21.8068,-18.39628 34.5624,-24.3125 12.1902,-0.53548 18.4007,13.90326 30.0626,14.5 8.3441,-0.67903 9.9284,-10.73748 14.0118,-16.31443 2.5703,-5.29672 6.462,-10.8777 7.3319,-16.46682 -6.0983,-8.26246 -17.5791,-8.95546 -26.6875,-12.03125 -1.8005,-0.45692 -3.6703,-0.71164 -5.5312,-0.5625 z m 178.4687,0 c -14.0396,3.54263 -24.8555,13.85904 -37.0662,21.07776 -5.2318,3.26594 -10.3997,8.2527 -16.4651,9.26599 -4.5056,-3.46481 -1.0469,-10.11001 -1.6874,-14.96875 0.8552,-5.48594 -0.7559,-13.73019 -7.75,-13.53125 -13.6479,-0.15532 -25.8386,6.92991 -39.1563,8.96875 -9.4558,2.36346 -20.6239,0.3552 -29.25,5.5 -4.1787,5.06913 2.0089,11.45473 7.1877,12.15981 8.0998,2.62817 18.8119,5.87141 20.1248,15.68394 4.3859,19.62546 1.0449,40.00709 1.7577,59.96847 -0.172,26.00335 -2.302,52.33013 1.4923,78.12529 1.0317,4.61687 6.0952,6.76306 10.2812,4.90625 13.0613,-2.92971 23.9903,-11.64243 34.375,-19.625 4.9617,-7.02833 0.9421,-16.51549 2.2489,-24.46871 -0.01,-29.2917 -0.1763,-58.58409 0.1261,-87.87505 10.7083,-9.26087 21.7606,-18.30558 34.5626,-24.3125 12.111,-0.43116 18.2242,13.43153 29.6874,14.5 8.3517,-0.10327 10.0396,-10.1843 14.064,-15.63258 2.6684,-5.49415 6.4782,-11.17491 7.811,-16.86742 -5.682,-8.5305 -17.3813,-9.02278 -26.3437,-12.21875 -1.9659,-0.42332 -3.9764,-0.84044 -6,-0.65625 z m -404.9375,3.625 c -27.1357,-0.0101 -57.2753,10.58709 -70.7188,35.625 -13.1236,26.30454 -15.6588,57.05725 -11.6874,85.90626 4.7992,27.56652 23.3552,53.9316 51.0312,61.84375 19.6465,6.37808 40.152,-0.44867 58.3548,-8.0761 9.8763,-3.07189 19.0996,-7.94975 25.5282,-16.24437 5.1264,-5.73182 12.0075,-11.17115 14.992,-18.05453 -0.699,-5.60949 -7.6117,-10.05782 -12.4062,-5.75 -14.0696,8.20366 -26.6937,22.96278 -44.5313,21.34375 -21.2033,0.0116 -41.3377,-14.3125 -47.6875,-34.40625 -3.1647,-8.66523 -5.5406,-18.55562 -3.4062,-27.68751 7.5731,-11.71537 21.4192,-16.68606 32.7187,-24.0625 26.9002,-14.90091 56.3195,-26.24081 81.125,-44.46875 2.0106,-5.78016 -4.6066,-11.54569 -10.0625,-8.71875 -4.8676,0.70896 -8.8888,6.1821 -13.7812,5.125 -12.6635,-7.7499 -23.1621,-20.53356 -38.9063,-21.90625 -3.5028,-0.4556 -7.0348,-0.55027 -10.5625,-0.46875 z m -14.0938,19.8125 c 9.5518,5.58175 17.407,14.35002 23.6563,23.46875 -0.5705,2.45414 -5.529,2.75969 -7.25,4.75 -13.6811,7.72154 -27.6908,14.96143 -42.3437,20.6875 3.2764,-15.03458 6.1141,-31.10516 15.2812,-43.71875 2.8246,-2.93106 6.3826,-5.15203 10.6562,-5.1875 z M 889.6875,420.15012 c -24.69895,2.46853 -48.10502,12.31506 -69.5625,24.34375 -31.48867,19.87864 -58.52449,50.96248 -64.8125,88.65625 -5.5419,34.21068 -0.40883,69.21907 7.21683,102.68699 6.80294,26.04067 17.52927,52.45577 37.40817,71.21926 30.86449,26.5761 73.29581,33.86185 112.96875,32.625 28.60374,-0.36185 57.18998,-4.97533 84.78125,-11.53125 2.0614,22.83403 0.92472,46.19795 0.625,69.21875 5.6887,-1.39433 12.4914,1.90601 17.5313,-1.40625 4.0191,-10.90377 1.5602,-22.98149 2.9939,-34.3742 0.7832,-27.41164 0.07,-54.83412 0.2873,-82.2508 -10.472,-0.99283 -18.9673,6.84545 -28.25,10.4375 -19.4783,9.9678 -38.01021,22.81302 -59.0617,28.97747 -37.09506,1.16251 -71.05768,-20.87232 -92.6255,-49.66459 -22.68992,-29.34766 -36.67061,-66.05905 -39.09405,-103.18788 2.03048,-34.94468 15.47138,-68.87639 35.21875,-97.5 8.30185,-11.95896 22.17342,-22.64974 37.65625,-19.34375 22.17391,3.66541 40.7949,18.13714 57.03125,32.9375 9.66685,9.19896 18.74119,19.03341 28.78125,27.8125 21.5482,-18.34337 43.15635,-36.61676 64.74995,-54.90625 -1.4547,-5.55842 -5.8545,-12.93957 -12.5624,-11.34375 -9.7423,6.50781 -18.58424,14.56094 -29.31255,19.46875 -14.78146,-3.97078 -23.76709,-17.70572 -36.40625,-25.34375 -15.03373,-11.37324 -33.59021,-18.51875 -52.6875,-17.59375 -0.95954,-0.0217 -1.91706,0.01 -2.875,0.0625 z m 210.0313,8.4375 c -20.534,2.72825 -40.5161,10.17198 -60.5938,13.875 -2.9771,3.95715 3.0074,6.74642 5.6562,8.5 11.2044,6.34491 23.3957,16.20398 23.1838,30.33216 4.2956,44.16987 1.26,88.60087 1.5752,132.88623 -0.5093,43.05134 -2.0493,86.23825 -0.509,129.21911 2.372,4.28119 7.9988,-0.12198 11.3126,-0.6875 11.5917,-3.94484 23.027,-8.87839 33.1562,-15.71875 2.5632,-43.04804 -2.3838,-86.29349 0.3125,-129.25 5.2351,-5.91454 13.6689,-7.8433 20.1563,-12.1875 7.4239,-4.50094 16.3667,-6.74349 24.6874,-4 15.4994,3.10051 26.5818,17.24091 28.5863,32.56389 9.1924,38.33024 5.3861,78.19743 6.5387,117.21736 0.3607,5.35015 6.1843,9.9919 11.3137,6.71767 16.4079,-6.29956 29.1789,-18.96042 45.1551,-26.18642 5.1519,-2.92495 13.8388,-6.73712 12.1875,-14.03125 -1.5364,-4.36754 -7.1886,-10.78052 -11.4375,-5.40625 -6.3856,4.52678 -12.8949,11.38887 -20.3438,12.15625 0.2268,-24.29966 0.491,-48.98257 -1.6347,-73.33401 -2.1332,-17.50082 -4.6255,-35.79303 -13.1957,-51.40796 -8.6589,-11.83671 -22.8999,-18.29403 -36.4196,-22.94554 -21.3756,-5.70646 -44.4315,1.08857 -61.1331,15.06072 -3.2921,1.76101 -9.233,8.97232 -8.2731,1.03303 -2.7151,-31.15005 -0.8509,-62.49059 -1.0277,-93.7179 -0.1001,-15.72321 0.9441,-31.79906 -0.066,-47.31335 -2.0514,-2.83158 -5.8922,-3.57453 -9.1874,-3.375 z m 443.8124,18.9375 c -11.3489,0.97876 -27.1816,0.92935 -31.5937,13.875 -4.4375,10.66233 -7.1522,22.14143 -13.9687,31.625 -3.4599,4.99352 0.267,11.26724 5.6874,12.53125 8.6024,2.53248 16.545,-4.1143 23.6563,-7.96875 12.3989,-8.78009 23.8868,-20.56347 28.8437,-35.125 2.379,-6.35575 -1.0951,-14.80597 -8.5624,-14.84375 -1.3461,-0.16983 -2.7099,-0.13923 -4.0626,-0.0937 z m 271.5313,75.53125 c -25.0015,16.28053 -50.0221,32.5752 -75.0625,48.8125 6.7399,11.47846 20.8776,14.63118 29.875,23.59375 4.0552,7.67467 0.9697,16.93307 2.3426,25.24914 0.6239,30.18102 0.5382,60.39575 0.9699,90.56336 9.3094,24.27556 36.1025,37.30078 61.3125,36.375 24.0569,-0.39514 47.0022,-10.08978 67.625,-21.6875 4.377,-3.15285 3.5942,-11.27251 -2.4375,-11.78125 -8.6203,-0.61007 -15.9986,5.12685 -24.3125,6.59375 -17.7305,4.62971 -39.1118,-0.96825 -50.1562,-16.15625 -10.3766,-17.51058 -5.756,-39.15444 -6.9575,-58.62491 0.2121,-19.58063 -1.2735,-39.51673 1.6137,-58.87509 1.287,-3.91399 6.316,-0.0261 9.0311,-1.4411 23.1332,-0.38816 46.7106,0.49478 69.5627,-1.9964 6.8985,-1.79224 8.9764,-10.10316 6.1562,-16.09375 -2.237,-3.09151 -1.2039,-9.39857 -4.6514,-10.34812 -25.3231,-2.88663 -51.0194,2.0689 -76.1924,-0.12063 -5.3114,-1.85831 -1.6248,-9.32615 -2.6562,-13.34375 0.1757,-7.37524 -0.5895,-15.2726 -5.2188,-21.28125 l -0.832,0.5547 -0.012,0.008 z m -293.125,15.09375 c -23.8883,2.2025 -46.5565,10.64367 -69.75,16.25 -3.8111,5.53448 -0.01,12.45764 5.625,14.6875 9.9499,4.68093 22.1321,8.95989 25.5,20.6875 5.7088,19.95331 2.8392,41.2163 3.6403,61.74998 0.033,28.90661 -0.4032,57.91407 0.9847,86.75002 3.3465,6.52493 12.3853,4.10573 16.7187,0.0312 18.4349,-9.77093 34.4355,-23.49073 52.8126,-33.21875 4.879,-2.76202 11.4802,-9.31817 6.625,-14.9375 -5.4788,-4.99752 -12.5046,1.45921 -17.625,3.78125 -4.4827,2.52895 -9.2835,5.01499 -14.375,5.75 0.277,-50.00247 -0.6884,-100.07744 0.6562,-150.03125 -0.1959,-5.98149 -4.0643,-12.38684 -10.8125,-11.5 z m 166.0937,7.8125 c -29.7558,2.93858 -61.7212,8.26481 -84.9863,28.48913 -11.9297,10.46917 -18.791,27.31128 -14.0137,43.01087 2.2935,13.00642 9.4674,28.30912 24.2188,30.0625 19.7633,4.81735 40.6809,0.95537 60.375,5.71875 12.4439,5.1635 21.4168,16.90598 26,29.3125 4.4778,16.17664 -6.8943,37.48545 -25.125,36.875 -19.0699,-0.74058 -34.3939,-14.63473 -46.408,-28.21672 -3.9183,-3.94555 -6.6239,-10.06057 -10.3732,-13.18953 -17.0425,3.09939 -30.6098,22.76747 -22.7813,39.46875 8.1413,18.81154 30.7589,24.89666 49.6875,24.65625 29.7525,-0.3525 58.4692,-14.70787 78.4059,-36.31213 10.8542,-13.91705 16.5338,-32.22496 15.0003,-49.84412 -3.1616,-16.99784 -15.8331,-32.95591 -33.2187,-36.71875 -22.165,-5.90498 -46.2617,-3.61856 -67.625,-12.125 -9.4075,-2.48717 -12.084,-13.37461 -9.8125,-21.71875 1.352,-9.88317 8.2552,-18.689 18.125,-21.25 10.7912,-2.94723 25.2365,-3.50965 31.875,7.21875 5.3414,5.89246 6.1327,17.66314 15.625,18.46875 11.9302,0.0402 24.422,-9.00698 26.3438,-20.96875 1.7809,-12.71146 -10.9905,-21.5475 -22.375,-22.59375 -2.9577,-0.4087 -5.9577,-0.505 -8.9376,-0.34375 z m 902.625,0 c -29.4695,2.89962 -60.9902,8.16391 -84.2812,27.8125 -12.2453,10.43409 -19.6083,27.43799 -14.8039,43.41808 2.2679,13.09118 9.415,28.55666 24.2727,30.33192 19.7633,4.81735 40.6809,0.95537 60.375,5.71875 12.4438,5.1635 21.4167,16.90598 26,29.3125 4.4778,16.17664 -6.8944,37.48545 -25.125,36.875 -19.0691,-0.74783 -34.3659,-14.66759 -46.4081,-28.21672 -3.8906,-3.89673 -6.6174,-10.06939 -10.3732,-13.18953 -17.0424,3.09939 -30.6097,22.76747 -22.7813,39.46875 8.1414,18.81154 30.7589,24.89666 49.6876,24.65625 29.7524,-0.3525 58.4691,-14.70787 78.4059,-36.31213 10.8541,-13.91705 16.5338,-32.22496 15.0003,-49.84412 -3.1617,-16.99784 -15.8331,-32.95591 -33.2188,-36.71875 -22.5843,-6.07116 -47.1323,-3.41971 -68.8437,-12.6875 -10.8622,-3.80732 -10.6361,-17.8474 -7.0313,-26.625 4.21,-14.77469 21.8754,-19.27386 35.4376,-17.0625 11.9274,1.43922 16.2401,14.3753 21.5,23.25 4.8675,5.96736 13.4137,3.8229 19.25,0.65625 10.3438,-4.53021 18.4734,-17.76842 12.1874,-28.46875 -5.6391,-9.91673 -18.5113,-12.99162 -29.25,-12.375 z m -411.6874,8.21875 c -21.5774,2.02479 -39.2989,15.92668 -58.6032,24.54477 -4.9701,1.74488 -10.4081,8.41888 -15.5844,3.95523 -13.3723,-7.72363 -20.5415,-25.81346 -37.4062,-27.03125 -21.5029,-1.86798 -40.0054,11.61422 -58.3066,20.82209 -6.7642,3.84303 -13.6564,7.55823 -21.0059,10.14666 -12.5006,-8.97272 -23.3932,-23.20452 -39.9687,-23.84375 -13.8922,3.2291 -25.0151,12.92683 -35.8126,21.5625 -1.6771,4.63455 5.4281,5.63457 7.875,8.21875 14.8936,9.64382 24.0748,26.77048 23.6982,44.65356 2.6492,34.70934 0.1815,69.62303 2.0831,104.31519 0.1185,4.08761 4.4137,6.3128 7.7813,4.21875 12.6891,-3.74475 24.8408,-10.43548 35.0624,-18.625 3.7665,-7.99402 1.7597,-17.44642 2.8198,-26.03044 0.7561,-26.04056 -0.073,-52.24812 0.7135,-78.18916 5.4732,-16.46812 19.0897,-29.83142 36.0306,-34.12465 8.0298,-3.54059 20.0194,-5.27075 25.0611,3.90675 7.9672,12.45784 10.756,27.73463 13.6644,42.11139 4.2675,23.48829 1.5101,47.48321 2.1214,71.20099 -0.1127,13.36464 -0.2509,26.72916 -0.3482,40.09387 15.1704,-0.002 29.0903,-7.98707 41.5,-15.5 4.9144,-19.54715 1.9009,-40.03713 2.7968,-59.99994 0.147,-17.17012 -1.3221,-34.55525 0.4219,-51.59381 5.9491,-15.55049 22.4714,-23.42608 37.2005,-28.71699 6.7046,-2.81344 15.9093,-1.70304 19.237,5.77949 12.0939,19.93393 14.1017,44.05659 16.4929,66.77749 2.1796,18.55956 -1.3995,36.86212 -3.4304,55.19126 -0.3702,6.86949 -1.4696,14.88708 2.1875,20.90625 6.038,4.46143 13.8016,-1.08427 19.6411,-3.34602 16.4495,-8.92031 34.0515,-15.56822 50.1401,-25.02898 4.713,-2.6804 10.633,-10.51385 4.8126,-14.90625 -8.167,-4.69864 -16.0698,3.55466 -22.5166,7.43414 -3.0224,1.77336 -7.6745,5.32802 -10.5147,4.69086 0.843,-26.53967 10.2282,-52.53046 6.9687,-79.28125 -2.458,-24.19305 -12.4922,-48.14843 -29.8136,-65.28511 -6.6374,-6.30867 -15.7259,-9.78224 -24.9988,-9.02739 z m 184.875,0.40625 c -26.4346,1.93973 -53.5516,8.13892 -75.9376,22.6875 -7.525,4.56294 -12.8037,14.78787 -7.7812,23.03125 6.082,13.13671 22.6634,18.95542 36.0281,14.05253 6.8052,-2.14415 15.3517,-5.00726 18.5657,-11.70878 0.3031,-6.65692 -8.0341,-7.39321 -12.0626,-10.25 -2.9882,-3.07331 3.3591,-4.36496 5.0256,-5.4035 9.4585,-5.31236 20.9019,-7.85124 31.1769,-3.32298 15.787,5.13343 29.2989,19.31729 29.9851,36.41397 1.5309,9.0115 -5.6036,16.28052 -13.3386,19.52459 -24.9987,13.46857 -54.5066,17.98797 -77.2552,35.75666 -13.4511,9.0572 -24.7724,24.15114 -22.5732,41.18405 1.0834,11.61526 10.056,21.82317 21.8857,23.12845 17.5501,3.89258 36.6012,4.13683 53.7675,-1.25802 12.8143,-4.85348 21.716,-16.24868 34.1388,-21.55448 8.627,-0.94116 13.6978,7.9672 20.3437,11.9375 13.6508,10.52677 31.874,14.14165 48.7813,12.1875 9.1135,-1.79606 17.2158,-7.23019 24.0312,-13.25 3.7863,-3.58682 3.2899,-11.32644 -2.625,-12.3125 -9.6798,-2.36603 -19.4977,-5.47115 -27.8125,-11.03125 -8.4223,-7.12844 -8.7318,-19.64834 -9,-29.9375 0.4592,-24.82381 0.2871,-49.66764 0.094,-74.5 1.6963,-15.36027 -11.8829,-25.79387 -24.3985,-31.43884 -16.0129,-7.36951 -33.1107,-14.33695 -51.0389,-13.93616 z m -959.4688,1.34375 c -14.3425,3.67013 -25.399,14.2231 -37.8512,21.68678 -4.9461,3.05692 -9.8897,7.77112 -15.6488,8.68822 -4.6037,-3.44046 -1.0448,-10.16401 -1.7188,-15.03125 0.8705,-5.45487 -0.7624,-13.63243 -7.7187,-13.5 -13.3693,-0.13682 -25.3717,6.68588 -38.3125,8.8125 -9.7802,2.46858 -21.2007,0.49207 -30.125,5.625 -3.9476,4.64611 1.3868,11.05873 6.3125,11.84375 8.7,2.8012 20.4818,6.42336 21.3484,17.25598 3.8611,19.87552 0.7514,40.37845 1.3598,60.52482 -0.2942,24.97753 -1.8174,50.22375 1.1981,75.0317 0.5635,5.14365 5.8586,8.42228 10.625,6.21875 13.1092,-2.93682 24.0127,-11.68419 34.4062,-19.65625 4.9862,-6.9945 0.9217,-16.49941 2.2488,-24.43746 -0.01,-29.2917 -0.1762,-58.58408 0.1262,-87.87504 10.6699,-9.23639 21.8068,-18.39629 34.5625,-24.3125 12.0286,-0.47668 18.2455,13.3988 29.5625,14.53125 8.6351,-0.15314 10.4253,-10.52866 14.4777,-16.22231 2.5871,-5.28495 6.2992,-10.79724 7.4911,-16.30894 -5.6821,-8.5305 -17.3814,-9.02279 -26.3438,-12.21875 -1.9659,-0.42332 -3.9764,-0.84044 -6,-0.65625 z m 982.2188,99.3125 c 4.9652,20.74131 -3.7986,45.16858 -22.7188,55.78125 -9.6409,5.83264 -24.7688,9.69943 -33.0938,0 -7.3413,-7.29433 -6.5582,-20.90013 2.3438,-26.78125 15.9836,-12.6886 34.4237,-22.00427 53.3125,-29.53125 l 0.1563,0.53125 z"
       id="path7786"
       inkscape:connector-curvature="0" />
    <g
       transform="matrix(1.0145491,0,0,1.014593,379.80246,0.9994565)"
       id="text7142"
       style="font-size:446.24008179px;font-style:normal;font-variant:normal;font-weight:500;font-stretch:normal;text-align:start;line-height:89.99999762%;letter-spacing:0px;word-spacing:0px;writing-mode:lr-tb;text-anchor:start;fill:none;stroke:#007400;stroke-width:3.9425528;stroke-miterlimit:4;stroke-opacity:1;stroke-dasharray:none;font-family:GoudyMedieval;-inkscape-font-specification:GoudyMedieval Medium">
      <path
         inkscape:connector-curvature="0"
         id="path7657"
         style="fill:none;stroke:#007400;stroke-width:3.9425528;stroke-miterlimit:4;stroke-opacity:1;stroke-dasharray:none"
         d="m 675.02747,317.74835 c -3.57023,-0.89248 -10.71006,0.59499 -21.41952,4.4624 -10.41255,3.56992 -18.44487,5.50362 -24.09697,5.80112 -5.65263,0.59498 -9.0738,-2.5287 -10.26352,-9.37104 16.65936,-2.37994 27.07161,-6.3961 31.2368,-12.04848 4.16462,-5.65236 5.35459,-16.21336 3.56993,-31.68305 -1.78525,-15.76709 -2.67773,-27.51806 -2.67745,-35.25297 -2.8e-4,-56.22611 -1.04151,-94.00773 -3.12368,-113.34498 -2.08273,-19.63434 -5.35516,-33.319026 -9.81728,-41.054085 -5.95013,7.140073 -12.79248,19.486035 -20.52704,37.037925 -7.73508,17.5523 -20.52728,48.04534 -38.37665,91.47922 -17.8498,43.13661 -29.89827,71.39845 -36.14545,84.78561 -5.95004,13.38722 -10.41243,19.93207 -13.3872,19.63457 -1.19014,0 -2.38011,-1.18997 -3.56992,-3.56992 -1.19013,-2.67743 -2.6776,-7.73481 -4.4624,-15.17217 -1.48762,-7.73479 -3.42133,-16.0646 -5.80112,-24.98944 -1.19013,-5.65232 -5.50378,-18.29578 -12.94096,-37.93041 -7.43747,-19.93195 -15.76728,-41.2027 -24.98945,-63.81233 -9.2224,-22.60932 -18.59343,-43.28509 -28.11312,-62.02737 -9.22238,-18.741852 -16.06472,-28.70787 -20.52705,-29.898085 -2.08251,3.570159 -6.54491,32.129495 -13.3872,85.678095 -6.5449,53.54891 -11.75103,99.5116 -15.6184,137.88819 4.16486,0.89249 9.22225,2.08247 15.17216,3.56992 6.2473,1.18998 17.40329,3.86742 33.46801,8.03232 -9e-5,5.94987 -2.38003,9.51978 -7.13984,10.70976 -4.75997,1.18997 -11.00733,1.04122 -18.74209,-0.44624 -7.73488,-1.48747 -15.61844,-2.97493 -23.65072,-4.4624 -13.98221,-2.08245 -25.1382,-1.04123 -33.46801,3.12368 -8.32981,4.46239 -13.38719,5.94986 -15.17216,4.4624 -4.75988,-3.86742 -5.65236,-6.84235 -2.67744,-8.9248 2.67745,-2.37994 9.07355,-5.20613 19.18832,-8.47856 10.11476,-3.27242 15.76713,-5.20612 16.95713,-5.80112 2.37992,-1.18996 5.5036,-15.32088 9.37104,-42.39281 3.86738,-27.07181 7.88353,-59.49856 12.04848,-97.28034 4.16486,-37.78147 7.73478,-70.654452 10.70976,-98.619058 1.18992,-10.709495 -1.04128,-17.700583 -6.6936,-20.973284 -5.35492,-3.272147 -11.89977,-4.610866 -19.63456,-4.01616 -7.73485,0.297773 -15.46967,0.595266 -23.20449,0.89248 -7.43733,0.297773 -10.70975,-1.784679 -9.81728,-6.247361 0.89249,-0.892194 3.71867,-1.933419 8.47856,-3.123681 4.75989,-1.487176 12.7922,-2.230909 24.09697,-2.2312 19.93201,2.91e-4 32.27797,-0.297202 37.03792,-0.892481 4.75983,-0.892187 10.26345,-2.825892 16.51089,-5.801121 6.54476,-3.272126 17.40326,-6.990789 32.57552,-11.156002 3.8673,6.545158 5.65226,10.412568 5.35488,11.602242 -1.1e-4,0.892777 -2.97505,1.934003 -8.9248,3.123681 -5.65248,1.190267 -12.64356,4.016451 -20.97328,8.478562 11.60214,13.684968 30.79044,52.35907 57.56497,116.022423 26.77423,63.66369 40.16142,96.53668 40.16161,98.61906 0.5948,-1.78489 7.13964,-17.99826 19.63456,-48.64017 12.792,-30.93916 26.47668,-62.91967 41.05409,-95.94162 14.57691,-33.319011 23.5017,-53.102301 26.7744,-59.349931 4.75962,-8.032039 3.86714,-12.048195 -2.67744,-12.048483 -6.54512,-0.297205 -13.8337,-0.445952 -21.86576,-0.44624 -7.73507,-0.297205 -10.41251,-4.164615 -8.03232,-11.602242 0.29725,-1.784659 1.33847,-2.677138 3.12368,-2.67744 2.0822,-0.297191 6.39585,-0.297191 12.94096,0 6.54459,3.02e-4 13.08944,-0.445938 19.63456,-1.338721 16.65934,-2.379641 27.81533,-4.164599 33.46801,-5.354881 5.94955,-1.189663 12.34565,-2.677129 19.18832,-4.4624 6.84201,-1.7846457 10.85817,-2.8258715 12.04848,-3.123681 1.48713,-0.5946698 3.56958,-0.4459232 6.24737,0.4462401 1.78461,0.5953021 2.97458,2.3802606 3.56992,5.3548809 0.59463,2.975242 -0.1491,5.057693 -2.2312,6.247361 -4.76024,0.892784 -11.0076,2.380249 -18.74209,4.462401 -7.73515,1.785258 -12.34629,3.272724 -13.83344,4.462401 -2.97525,2.38024 -1.33904,49.681641 4.90864,141.904345 6.24703,92.22301 10.41194,138.78068 12.49472,139.67315 3.27209,1.18998 9.96569,2.37996 20.08081,3.56992 10.4119,0.89249 17.25424,2.08246 20.52704,3.56992 3.56954,1.48747 4.61077,5.05739 3.12368,10.70976 -1.19035,3.86741 -23.05609,0.59498 -65.59729,-9.81728" />
      <path
         inkscape:connector-curvature="0"
         id="path7659"
         style="fill:none;stroke:#007400;stroke-width:3.9425528;stroke-miterlimit:4;stroke-opacity:1;stroke-dasharray:none"
         d="m 758.09089,237.87137 c 2.08245,-33.02164 10.41225,-55.77987 24.98945,-68.27473 14.87462,-12.49456 34.21167,-18.74191 58.01121,-18.74208 8.03222,1.7e-4 14.57707,1.33889 19.63456,4.01616 5.05727,2.38011 10.56089,6.09878 16.51088,11.156 5.94974,5.05754 9.9659,7.58623 12.04849,7.58608 0.29735,1.5e-4 2.3798,-1.04107 6.24736,-3.12368 4.16475,-2.0823 7.28843,-3.12352 9.37104,-3.12368 2.97477,1.6e-4 4.46224,2.08261 4.4624,6.24736 -1.6e-4,0.59514 -7.43749,5.20628 -22.31201,13.83344 -5.94999,3.27256 -17.55222,9.22243 -34.80672,17.84961 -17.2547,8.32992 -30.93938,15.916 -41.05409,22.75824 -10.11482,6.54494 -15.17221,12.19731 -15.17216,16.95712 -5e-5,16.6597 4.90859,30.93936 14.72592,42.83905 10.11471,11.60227 24.09688,17.40338 41.94657,17.40337 8.03221,1e-5 16.957,-3.71865 26.7744,-11.15601 10.11464,-7.73479 16.21325,-11.6022 18.29585,-11.60224 1.78481,4e-5 3.12353,0.74378 4.01616,2.2312 0.89233,1.48751 1.48731,2.82623 1.78496,4.01616 -2.3801,2.67748 -5.05754,5.65241 -8.03232,8.9248 -2.97508,3.27245 -7.88372,8.32984 -14.72593,15.17217 -5.65249,2.97494 -14.27979,6.54486 -25.88192,10.70976 -11.60234,4.4624 -21.41961,6.69359 -29.45185,6.6936 -11.00732,-10e-6 -22.01456,-3.27243 -33.02176,-9.81728 -11.00729,-6.84234 -19.78333,-17.2546 -26.32817,-31.23681 -6.54486,-14.27963 -9.2223,-31.38548 -8.03232,-51.31761 m 67.38225,-71.39841 c -8.92486,1.6e-4 -15.61846,6.69375 -20.0808,20.0808 -4.46245,13.08984 -7.28864,24.09708 -8.47856,33.02177 4.16486,-0.89238 14.13087,-5.35477 29.89808,-13.3872 15.76706,-8.0322 23.65063,-12.64334 23.65073,-13.83345 -10e-5,-2.37981 -3.71877,-7.28844 -11.156,-14.72592 -7.43742,-7.43718 -12.04856,-11.15584 -13.83345,-11.156" />
      <path
         inkscape:connector-curvature="0"
         id="path7661"
         style="fill:none;stroke:#007400;stroke-width:3.9425528;stroke-miterlimit:4;stroke-opacity:1;stroke-dasharray:none"
         d="m 1010.5414,177.62896 c 1.1899,1.5e-4 9.2222,-5.05723 24.097,-15.17216 14.8745,-10.1146 24.0968,-15.17199 27.6668,-15.17216 2.0824,-0.29732 7.2885,0.89265 15.6184,3.56992 8.6272,2.67761 13.3871,5.35505 14.2797,8.03232 -2.3801,4.76005 -5.5038,10.70991 -9.371,17.8496 -3.5701,7.13998 -6.3963,10.85865 -8.4786,11.156 -3.2725,0.89262 -7.7349,-1.04109 -13.3872,-5.80112 -5.6525,-5.05724 -11.4536,-7.88342 -17.4033,-8.47856 -2.0826,-0.29734 -8.7762,3.71882 -20.0808,12.04848 -11.0074,8.03246 -16.511,12.6436 -16.5109,13.83345 l 0,106.65138 c -0.5951,2.67745 -6.2475,7.28859 -16.95715,13.83344 -10.41231,6.54485 -17.99839,9.22229 -22.75825,8.03232 -2.67746,-0.59499 -4.16493,-8.03232 -4.4624,-22.312 -0.29752,-14.57715 -0.14877,-35.69916 0.44624,-63.3661 0.59496,-27.66677 0.44622,-43.7314 -0.44624,-48.19392 -1.48749,-8.62717 -4.01618,-13.98205 -7.58608,-16.06465 -3.56993,-2.3798 -8.32982,-4.46225 -14.27968,-6.24736 -5.94987,-2.0823 -8.47856,-4.75974 -7.58608,-8.03232 0.29749,-0.89232 1.18997,-1.63605 2.67744,-2.2312 1.48746,-0.59482 3.86741,-1.04106 7.13984,-1.33872 3.27242,-0.29733 7.43732,-0.74357 12.49472,-1.33872 10.11475,-1.7848 19.33703,-4.01599 27.66689,-6.6936 8.62725,-2.67727 14.27962,-3.71849 16.95715,-3.12368 3.8673,0.59516 5.6523,3.12385 5.3549,7.58608 -10e-5,4.46256 -0.1489,8.92496 -0.4463,13.3872 -0.2976,4.46255 1.4874,6.99124 5.3549,7.58608" />
      <path
         inkscape:connector-curvature="0"
         id="path7663"
         style="fill:none;stroke:#007400;stroke-width:3.9425528;stroke-miterlimit:4;stroke-opacity:1;stroke-dasharray:none"
         d="m 1186.4477,177.62896 c 1.1899,1.5e-4 9.2222,-5.05723 24.097,-15.17216 14.8745,-10.1146 24.0968,-15.17199 27.6669,-15.17216 2.0823,-0.29732 7.2884,0.89265 15.6184,3.56992 8.6271,2.67761 13.387,5.35505 14.2796,8.03232 -2.3801,4.76005 -5.5037,10.70991 -9.371,17.8496 -3.5701,7.13998 -6.3963,10.85865 -8.4786,11.156 -3.2725,0.89262 -7.7349,-1.04109 -13.3872,-5.80112 -5.6525,-5.05724 -11.4536,-7.88342 -17.4033,-8.47856 -2.0826,-0.29734 -8.7762,3.71882 -20.0808,12.04848 -11.0074,8.03246 -16.511,12.6436 -16.5109,13.83345 l 0,106.65138 c -0.5951,2.67745 -6.2474,7.28859 -16.9571,13.83344 -10.4124,6.54485 -17.9984,9.22229 -22.7583,8.03232 -2.6775,-0.59499 -4.1649,-8.03232 -4.4624,-22.312 -0.2975,-14.57715 -0.1488,-35.69916 0.4463,-63.3661 0.5949,-27.66677 0.4462,-43.7314 -0.4463,-48.19392 -1.4875,-8.62717 -4.0162,-13.98205 -7.5861,-16.06465 -3.5699,-2.3798 -8.3298,-4.46225 -14.2796,-6.24736 -5.9499,-2.0823 -8.4786,-4.75974 -7.5861,-8.03232 0.2975,-0.89232 1.1899,-1.63605 2.6774,-2.2312 1.4875,-0.59482 3.8674,-1.04106 7.1399,-1.33872 3.2724,-0.29733 7.4373,-0.74357 12.4947,-1.33872 10.1147,-1.7848 19.337,-4.01599 27.6669,-6.6936 8.6272,-2.67727 14.2796,-3.71849 16.9571,-3.12368 3.8673,0.59516 5.6523,3.12385 5.3549,7.58608 -10e-5,4.46256 -0.1489,8.92496 -0.4463,13.3872 -0.2975,4.46255 1.4874,6.99124 5.3549,7.58608" />
      <path
         inkscape:connector-curvature="0"
         id="path7665"
         style="fill:none;stroke:#007400;stroke-width:3.9425528;stroke-miterlimit:4;stroke-opacity:1;stroke-dasharray:none"
         d="m 1284.3642,166.9192 c 3.2725,-3.56976 8.0323,-7.73466 14.2797,-12.49472 6.2473,-4.75972 11.751,-6.54468 16.5109,-5.35488 19.6345,4.76006 34.2117,13.8336 43.7315,27.22064 9.8172,13.38734 18.742,31.23692 26.7744,53.54881 8.3297,22.01458 15.4696,35.99676 21.4195,41.94657 8.3297,-8.92474 15.6183,-24.09689 21.8658,-45.51649 6.2472,-21.4194 9.3709,-44.47512 9.371,-69.16721 -10e-5,-2.08229 2.0824,-4.61098 6.2474,-7.58608 4.4623,-3.27225 8.3297,-4.16473 11.6022,-2.67744 3.5698,1.19015 5.206,5.5038 4.9087,12.94096 -0.8927,19.9322 -5.5038,41.50045 -13.8335,64.70481 -8.0324,22.90707 -19.6347,49.5327 -34.8067,79.87698 -15.1722,30.34431 -34.658,68.12593 -58.4574,113.34498 l 22.7582,20.0808 c -10e-5,2.08234 -3.57,5.801 -10.7098,11.156 -6.8424,5.65225 -11.0073,8.47843 -12.4947,8.47856 -4.4624,-2.08258 -10.4123,-5.35501 -17.8496,-9.81728 -7.4373,-4.46252 -11.8997,-8.77617 -13.3872,-12.94096 l 62.4736,-116.46866 c -0.2975,-3.56991 -4.165,-14.42841 -11.6022,-32.57553 -7.4374,-18.14704 -15.0235,-35.25289 -22.7583,-51.31761 -7.7348,-16.06453 -13.9822,-27.22053 -18.742,-33.468 -7.4374,-9.81715 -14.131,-16.362 -20.0808,-19.63457 -5.9499,-3.56977 -11.8998,-6.24721 -17.8496,-8.03232 -6.2474,-1.78481 -9.3711,-3.86726 -9.3711,-6.24736" />
      <path
         sodipodi:nodetypes="cscccccccccccccccccsccccccccscsccc"
         inkscape:connector-curvature="0"
         id="path7667"
         style="fill:none;stroke:#007400;stroke-width:3.9425528;stroke-miterlimit:4;stroke-opacity:1;stroke-dasharray:none"
         d="m 370.24549,566.30406 c -2.67744,-35.9965 4.61114,-65.29957 21.86577,-87.90929 17.25457,-22.60923 37.33535,-38.8226 60.24241,-48.64017 22.90688,-9.81698 40.45897,-14.72561 52.65633,-14.72592 15.4695,3.1e-4 27.96421,2.82649 37.48416,8.47856 9.8171,5.35517 19.63437,12.34626 29.45185,20.97328 9.81706,8.62758 17.10564,12.94123 21.86576,12.94096 0.89225,2.7e-4 4.90841,-2.37967 12.04849,-7.13984 7.13959,-5.05711 12.9407,-9.22201 17.40336,-12.49472 3.86715,2.9e-4 6.84208,2.97522 8.9248,8.9248 l -61.58113,52.21009 c -0.89269,-0.59476 -5.35508,-4.90841 -13.3872,-12.94096 -8.03251,-8.32957 -15.61858,-15.4694 -22.75825,-21.41953 -7.14,-6.24709 -15.7673,-12.04821 -25.88192,-17.40336 -10.11491,-5.3546 -19.93218,-8.03203 -29.45185,-8.03232 -11.89984,2.9e-4 -23.35332,8.0326 -34.36048,24.09696 -10.70984,15.7674 -19.18839,33.91448 -25.43569,54.44129 -5.94992,20.52723 -8.18111,36.29437 -6.6936,47.30145 5.94981,41.05421 21.12196,75.41466 45.51649,103.08146 24.69183,27.66692 53.25117,41.50034 85.67809,41.50033 4.46222,10e-6 18.89064,-6.69358 43.28529,-20.0808 24.39421,-13.68465 38.07889,-20.08075 41.05409,-19.18833 -2.6e-4,9.22234 -2.6e-4,22.46079 0,39.71537 0.29723,17.25461 -2.6e-4,35.69919 -0.89248,55.33377 -0.59525,19.6345 -1.93397,17.45178 -4.01616,17.45184 l -11.60224,0 c 0.29724,-13.38725 0.44599,-18.19561 0.44624,-38.42512 -2.5e-4,-19.93206 -0.74398,-29.89808 -2.2312,-29.89809 -0.59524,10e-6 -6.09886,1.18998 -16.51089,3.56992 -10.41248,2.37995 -21.71722,4.31366 -33.91424,5.80112 -11.89992,1.48747 -26.62583,2.2312 -44.17777,2.2312 -40.45921,0 -73.3322,-10.11476 -98.61906,-30.34432 -11.0073,-9.22226 -20.97331,-24.6919 -29.89808,-46.40897 -8.62733,-22.01441 -14.13095,-49.68127 -16.51089,-83.00066" />
      <path
         inkscape:connector-curvature="0"
         id="path7669"
         style="fill:none;stroke:#007400;stroke-width:3.9425528;stroke-miterlimit:4;stroke-opacity:1;stroke-dasharray:none"
         d="m 836.81124,693.92873 c -1.9e-4,5.05741 8.62711,0.74376 25.88192,-12.94097 4.75968,3.86746 6.54464,6.99114 5.35488,9.37105 -0.89269,2.37998 -5.50383,5.80115 -13.83344,10.26352 -8.03251,4.16493 -12.7924,6.84236 -14.27968,8.03232 -3.8676,2.67745 -8.33,5.65238 -13.38721,8.9248 -4.76006,2.97494 -9.22245,5.35488 -13.3872,7.13984 -3.86757,1.48747 -6.54501,0.74374 -8.03232,-2.2312 -0.89263,-1.48746 -1.33887,-7.73482 -1.33872,-18.74208 0.29734,-11.30472 0.44609,-21.41948 0.44624,-30.34433 -1.5e-4,-30.93923 -2.52884,-55.63115 -7.58608,-74.07585 -4.76003,-18.74194 -17.40349,-28.85671 -37.93041,-30.34433 -2.67754,-0.59483 -9.22239,1.78512 -19.63456,7.13984 -10.41235,5.35503 -16.21346,8.92495 -17.40337,10.70977 -1.19004,1.78509 -1.33878,21.71713 -0.44624,59.79617 0.89242,38.07919 0.89242,60.83741 0,68.27473 -3.56998,2.08246 -9.0736,4.90865 -16.51088,8.47856 -7.13988,3.27243 -14.8747,6.09861 -23.20448,8.47856 -0.59502,-1.48747 -0.89251,-10.41226 -0.89248,-26.7744 -3e-5,-16.65959 0.29746,-45.07018 0.89248,-85.23186 0.59496,-40.16146 0.89245,-72.29071 0.89248,-96.38786 -3e-5,-33.61651 -1.4875,-53.99479 -4.4624,-61.13489 -1.48749,-3.86714 -4.16493,-7.43706 -8.03233,-10.70976 -3.86742,-3.56964 -7.88358,-6.54457 -12.04848,-8.9248 -3.86741,-2.37966 -6.09861,-4.01587 -6.6936,-4.90864 -0.89247,-1.18969 0.14875,-1.78467 3.12368,-1.78496 4.4624,-0.5947 12.64346,-2.5284 24.54321,-5.80112 11.8997,-3.27213 20.82449,-5.35458 26.7744,-6.24736 5.94981,-1.18967 9.81722,-0.44594 11.60224,2.2312 -0.29755,24.39473 -0.59505,54.73902 -0.89248,91.03297 -6e-5,36.29437 1.04117,54.2927 3.12368,53.99505 4.75983,-3.56976 11.30468,-8.1809 19.63457,-13.83344 8.32972,-5.6522 19.18822,-8.77588 32.57552,-9.37104 13.38707,-0.8923 28.11298,4.61132 44.17777,16.51088 5.9497,4.16507 10.4121,12.34613 13.3872,24.54321 3.27225,11.89986 5.3547,24.24582 6.24736,37.03792 0.8923,12.49481 1.33854,26.32824 1.33873,41.50033 -1.9e-4,15.17221 -1.9e-4,23.94825 0,26.32817" />
      <path
         inkscape:connector-curvature="0"
         id="path7671"
         style="fill:none;stroke:#007400;stroke-width:3.9425528;stroke-miterlimit:4;stroke-opacity:1;stroke-dasharray:none"
         d="m 958.33906,579.24503 c 1.1899,1.4e-4 9.22221,-5.05724 24.09697,-15.17217 14.87455,-10.1146 24.09687,-15.17198 27.66687,-15.17216 2.0823,-0.29732 7.2885,0.89266 15.6184,3.56992 8.6272,2.67761 13.3871,5.35505 14.2797,8.03232 -2.3801,4.76006 -5.5038,10.70992 -9.371,17.84961 -3.5701,7.13998 -6.3963,10.85864 -8.4786,11.156 -3.2726,0.89261 -7.735,-1.04109 -13.3872,-5.80112 -5.6525,-5.05725 -11.45362,-7.88343 -17.40337,-8.47857 -2.08256,-0.29734 -8.77616,3.71882 -20.08081,12.04849 -11.00733,8.03245 -16.51095,12.64359 -16.51088,13.83344 l 0,106.65138 c -0.59506,2.67745 -6.24743,7.2886 -16.95712,13.83344 -10.41232,6.54485 -17.99839,9.22229 -22.75825,8.03232 -2.67747,-0.59499 -4.16493,-8.03232 -4.4624,-22.312 -0.29752,-14.57714 -0.14877,-35.69915 0.44624,-63.36609 0.59496,-27.66678 0.44621,-43.73141 -0.44624,-48.19393 -1.48749,-8.62717 -4.01618,-13.98205 -7.58608,-16.06464 -3.56994,-2.3798 -8.32983,-4.46226 -14.27968,-6.24737 -5.94987,-2.0823 -8.47856,-4.75973 -7.58608,-8.03232 0.29749,-0.89232 1.18997,-1.63605 2.67744,-2.2312 1.48746,-0.59482 3.86741,-1.04106 7.13984,-1.33872 3.27242,-0.29733 7.43732,-0.74357 12.49472,-1.33872 10.11475,-1.78479 19.33703,-4.01599 27.66689,-6.6936 8.62725,-2.67727 14.27962,-3.71849 16.95712,-3.12368 3.86734,0.59516 5.6523,3.12385 5.35488,7.58608 -7e-5,4.46256 -0.14882,8.92496 -0.44624,13.3872 -0.29756,4.46255 1.4874,6.99124 5.35488,7.58609" />
      <path
         inkscape:connector-curvature="0"
         id="path7673"
         style="fill:none;stroke:#007400;stroke-width:3.9425528;stroke-miterlimit:4;stroke-opacity:1;stroke-dasharray:none"
         d="m 1110.1485,474.37861 c 3.2723,-8.03207 5.5035,-13.98193 6.6936,-17.84961 1.4874,-3.86714 2.9748,-6.54458 4.4624,-8.03232 1.4874,-1.78468 4.3136,-3.1234 8.4785,-4.01616 4.4624,-1.18969 9.5197,-1.93342 15.1722,-2.2312 8.0322,-0.8922 12.3459,1.04151 12.941,5.80112 0.8923,4.76017 -1.1901,10.85878 -6.2474,18.29584 -5.0575,7.1401 -11.4536,13.68495 -19.1883,19.63457 -7.7349,5.9501 -15.1722,9.37127 -22.312,10.26352 -4.165,-1.78473 -6.5449,-3.42094 -7.1399,-4.90864 -0.595,-1.78473 0,-4.16467 1.785,-7.13984 2.0824,-2.97469 3.8674,-6.24712 5.3549,-9.81728 m -51.7639,72.73713 c 8.9248,-2.37977 20.527,-5.50344 34.8067,-9.37104 14.5772,-3.86723 25.1382,-5.94968 31.6831,-6.24736 4.1648,-0.2973 6.8423,0.89267 8.0323,3.56992 1.4874,2.67763 1.9336,6.69378 1.3387,12.04848 -0.2975,5.05756 -0.4463,8.92497 -0.4462,11.60224 l 0,132.08707 c 4.1648,3e-5 9.9659,-2.08242 17.4034,-6.24737 7.4372,-4.46235 11.8996,-6.09856 13.3872,-4.90864 6.2472,4.16495 0.8923,10.56105 -16.0647,19.18833 -4.165,2.37997 -10.4123,6.54487 -18.7421,12.49472 -8.0324,5.65238 -15.4697,10.26352 -22.312,13.83344 -1.19,1.18997 -3.2724,2.2312 -6.2473,3.12368 -2.6775,1.18997 -5.0575,0.44624 -7.1399,-2.2312 -0.595,-0.89248 -0.8925,-32.72424 -0.8925,-95.49538 0,-6.54475 0,-13.38709 0,-20.52704 0,-7.13972 -0.4462,-13.68457 -1.3387,-19.63456 -0.595,-6.24722 -1.9337,-11.15586 -4.0161,-14.72593 -2.38,-4.46224 -5.5037,-7.73467 -9.3711,-9.81728 -3.5699,-2.37978 -7.5861,-4.46223 -12.0485,-6.24736 -4.1649,-2.08228 -6.8423,-3.86724 -8.0323,-5.35488 -1.4874,-1.78479 -1.4874,-4.16473 0,-7.13984" />
      <path
         inkscape:connector-curvature="0"
         id="path7675"
         style="fill:none;stroke:#007400;stroke-width:3.9425528;stroke-miterlimit:4;stroke-opacity:1;stroke-dasharray:none"
         d="m 1197.6431,619.40663 c -7.1398,-16.957 -6.8423,-31.23667 0.8925,-42.83905 8.0323,-11.60208 20.2295,-20.37812 36.5917,-26.32816 16.6595,-5.94969 34.8066,-9.66835 54.4413,-11.156 10.1146,-0.29731 17.7007,1.78514 22.7582,6.24736 5.0573,4.16508 6.991,9.22246 5.8011,15.17216 -0.8926,5.95003 -5.2062,11.00741 -12.9409,15.17216 -5.355,2.3801 -9.3712,3.27258 -12.0485,2.67745 -2.6776,-0.89234 -4.9088,-3.27228 -6.6936,-7.13985 -1.7851,-3.86725 -4.0163,-7.58592 -6.6936,-11.156 -2.38,-3.86724 -6.0987,-6.39593 -11.156,-7.58608 -7.1399,-2.08228 -15.1722,-1.48729 -24.097,1.78496 -8.9248,2.9751 -14.4284,9.81744 -16.5109,20.52704 -2.3799,11.60239 0.1487,19.33721 7.5861,23.20449 7.4373,3.86754 20.2295,6.69372 38.3767,8.47856 18.147,1.78508 31.0879,4.16502 38.8229,7.13984 7.7346,2.97504 14.577,10.11488 20.527,21.41953 6.2472,11.30482 5.0572,26.92321 -3.5699,46.8552 -5.6525,13.08974 -18.891,24.98947 -39.7154,35.69921 -20.5271,10.41227 -41.2029,13.3872 -62.0274,8.9248 -11.8997,-2.97493 -20.527,-8.32981 -25.8819,-16.06464 -5.0574,-8.0323 -5.9499,-16.06461 -2.6774,-24.09697 3.5699,-8.32976 10.4122,-13.98213 20.527,-16.95712 8.0323,12.49477 17.5521,22.60953 28.5594,30.34433 11.0072,7.73484 21.2707,11.15601 30.7906,10.26352 9.8171,-0.89246 17.1057,-6.99107 21.8657,-18.29584 4.7598,-11.00722 3.2723,-21.86571 -4.4624,-32.57553 -7.7349,-11.00718 -15.4697,-17.25453 -23.2045,-18.74208 -5.0574,-1.18989 -14.8747,-1.93362 -29.4518,-2.2312 -14.2797,-0.5949 -24.8407,-1.78488 -31.6831,-3.56992 -6.5448,-2.08237 -11.4535,-7.13975 -14.7259,-15.17217" />
      <path
         inkscape:connector-curvature="0"
         id="path7677"
         style="fill:none;stroke:#007400;stroke-width:3.9425528;stroke-miterlimit:4;stroke-opacity:1;stroke-dasharray:none"
         d="m 1343.5255,563.18038 71.3984,-46.40897 c 2.0824,2.97514 3.2723,6.9913 3.5699,12.04849 0.2974,4.76008 0.2974,9.22248 0,13.3872 -10e-5,4.16508 1.0412,6.69378 3.1237,7.58608 5.0573,1.19015 15.1721,1.33889 30.3443,0.44624 15.1721,-1.1898 30.6417,-1.1898 46.409,0 -2e-4,0.59516 0.7436,3.12385 2.2312,7.58608 1.7848,4.46256 1.9335,8.18123 0.4462,11.156 -1.4876,2.6776 -5.8013,4.16506 -12.9409,4.4624 -27.3696,0.59514 -44.6241,0.89264 -51.7639,0.89248 -6.8424,1.6e-4 -12.6435,1.6e-4 -17.4034,0 -2.0825,2.3801 -3.1237,10.26367 -3.1236,23.65073 -10e-5,13.38731 -10e-5,28.26197 0,44.62401 -10e-5,15.46972 0.2974,26.62571 0.8924,33.468 0.595,6.5449 2.9749,13.08975 7.1399,19.63457 4.4623,6.54487 11.8996,11.45351 22.312,14.72592 10.1147,2.97494 19.0394,3.42118 26.7744,1.33872 8.0322,-2.37993 14.4283,-4.46238 19.1883,-6.24736 4.7598,-1.78494 7.8834,-0.89246 9.3711,2.67744 1.1898,2.67745 -4.1651,6.69361 -16.0647,12.04848 -11.8998,5.35488 -22.7583,9.22229 -32.5755,11.60224 -17.5522,3.56991 -33.4681,2.52869 -47.7477,-3.12368 -13.9822,-5.65237 -23.9483,-15.46964 -29.8981,-29.45184 0,-17.55207 -0.1488,-39.86405 -0.4462,-66.93602 -0.2975,-27.36927 -0.7438,-42.09517 -1.3387,-44.17776 -0.8926,-3.86728 -5.2062,-7.73469 -12.941,-11.60225 -7.4373,-3.86726 -13.0897,-8.32965 -16.9571,-13.3872" />
      <path
         inkscape:connector-curvature="0"
         id="path7679"
         style="fill:none;stroke:#007400;stroke-width:3.9425528;stroke-miterlimit:4;stroke-opacity:1;stroke-dasharray:none"
         d="m 1799.7792,558.71798 c 11.8995,13.98234 19.4856,28.5595 22.7583,43.73153 3.2721,14.87478 4.3133,27.22074 3.1237,37.03793 -0.8928,9.81735 -2.529,21.71708 -4.9087,35.6992 -2.3802,13.98223 -2.9752,22.16329 -1.7849,24.54321 3.8671,-0.59496 9.8169,-3.71864 17.8496,-9.37104 8.032,-5.65234 13.3868,-6.69356 16.0646,-3.12368 3.8671,5.35491 -6.8427,13.23848 -32.1293,23.65072 -0.8928,0.29751 -4.7602,2.23121 -11.6022,5.80112 -6.5452,3.56993 -12.3463,6.39611 -17.4034,8.47856 -4.7601,1.78496 -8.1813,2.2312 -10.2635,1.33872 -3.5702,-1.78496 -3.2727,-16.51087 0.8925,-44.17777 1.4872,-7.73477 1.3384,-20.52698 -0.4463,-38.37664 -1.4877,-18.147 -4.9089,-34.06288 -10.2635,-47.74769 -5.0576,-13.68455 -11.6025,-19.93191 -19.6345,-18.74209 -10.115,1.48762 -20.3786,5.95001 -30.7906,13.38721 -10.115,7.43746 -15.1724,15.32103 -15.1722,23.65072 0.2973,27.36948 0.4461,50.72268 0.4463,70.05969 -2e-4,19.0396 -0.8927,30.34434 -2.6775,33.91425 -3.8676,2.08246 -9.2224,4.7599 -16.0646,8.03232 -6.8425,3.56992 -13.8336,5.50362 -20.9733,5.80112 0.2973,-24.39444 0.4461,-47.45015 0.4462,-69.16721 0.2974,-21.71693 -0.5951,-34.95538 -2.6774,-39.71537 -0.8926,-9.22218 -3.8676,-20.22943 -8.9248,-33.02176 -4.76,-13.08956 -12.6436,-18.14695 -23.6507,-15.17217 -16.6598,4.16506 -28.1132,10.56116 -34.3605,19.18833 -6.2474,8.32994 -9.8174,15.02353 -10.7098,20.0808 0.2975,15.17226 0.2975,34.65806 0,58.45745 0,23.50201 -0.7438,37.18669 -2.2312,41.05409 0,1.18998 -5.2062,4.61115 -15.6184,10.26352 -10.1148,5.65237 -17.5521,8.47856 -22.312,8.47856 -1.19,-2.08246 -1.785,-6.6936 -1.7849,-13.83344 -10e-5,-7.43732 -10e-5,-15.91587 0,-25.43568 -10e-5,-34.21168 -0.4463,-56.67241 -1.3388,-67.38226 -0.595,-11.00714 -3.1237,-20.22943 -7.586,-27.66688 -4.4625,-7.4372 -12.4948,-14.72578 -24.097,-21.86577 2.6774,-2.97478 8.3298,-7.28843 16.9571,-12.94096 8.6273,-5.6522 14.8747,-8.32964 18.7421,-8.03232 6.5448,0.89265 13.3872,4.31382 20.527,10.26352 7.1398,5.95002 12.6434,10.41242 16.5109,13.38721 1.4874,0.29763 8.3298,-2.82604 20.5271,-9.37105 12.1971,-6.84218 22.3119,-12.04831 30.3443,-15.6184 8.0322,-3.86724 15.6183,-5.80094 22.7582,-5.80112 7.4372,1.8e-4 12.7921,1.3389 16.0647,4.01616 3.2722,2.67761 8.0321,7.28875 14.2797,13.83344 6.2471,6.24752 11.602,9.96618 16.0646,11.156 7.4371,-4.16475 22.1631,-11.75082 44.1778,-22.75824 22.0142,-11.30457 38.9713,-9.96585 50.8713,4.01616" />
      <path
         inkscape:connector-curvature="0"
         id="path7681"
         style="fill:none;stroke:#007400;stroke-width:3.9425528;stroke-miterlimit:4;stroke-opacity:1;stroke-dasharray:none"
         d="m 1875.0408,590.40103 c -4.1649,-7.73469 -1.785,-14.72578 7.1398,-20.97329 9.2223,-6.54469 21.4195,-11.75082 36.5917,-15.6184 15.4696,-4.16473 28.4106,-6.24718 38.8229,-6.24736 11.8997,1.8e-4 26.6256,4.01633 44.1778,12.04848 17.5519,7.73499 26.328,16.95727 26.3282,27.66689 l 0,86.12433 c 0.2973,2.97499 1.3385,7.13989 3.1236,12.49472 1.7848,5.05743 4.9085,8.77609 9.3711,11.15601 8.0321,3.56994 14.4282,6.09863 19.1883,7.58608 5.0572,1.18999 7.8834,2.08247 8.4786,2.67744 0.5947,0.595 0.8922,1.93372 0.8924,4.01616 -2e-4,2.37996 -3.5701,5.80113 -10.7097,10.26352 -7.14,4.16491 -12.4949,6.24736 -16.0647,6.24736 -13.6848,0 -24.0971,-1.48747 -31.2368,-4.4624 -6.8425,-3.27242 -13.2386,-7.43732 -19.1883,-12.49472 -5.6525,-5.05737 -9.9661,-7.58606 -12.941,-7.58608 -3.57,2e-5 -8.4786,2.52871 -14.7259,7.58608 -5.9499,5.0574 -12.346,9.37105 -19.1883,12.94096 -6.5449,3.27243 -16.2135,4.90864 -29.0056,4.90864 -16.3622,0 -28.1132,-2.08245 -35.253,-6.24736 -6.8423,-4.46239 -10.2635,-11.60223 -10.2635,-21.41952 0,-12.49469 6.2474,-23.35319 18.7421,-32.57553 12.4947,-9.51972 24.3944,-16.06457 35.6992,-19.63456 8.6272,-3.27235 17.552,-6.69352 26.7744,-10.26352 9.5197,-3.56983 16.957,-7.2885 22.312,-11.15601 5.3548,-3.86731 8.0322,-8.3297 8.0323,-13.3872 -10e-5,-13.98206 -4.9087,-24.84056 -14.7259,-32.57552 -9.8174,-7.73468 -20.2296,-11.60209 -31.2368,-11.60225 -2.0825,1.6e-4 -6.6937,1.48762 -13.8334,4.4624 -6.8424,2.67759 -10.2636,4.90879 -10.2636,6.69361 0,2.38008 2.0824,4.31379 6.2474,5.80112 4.4623,1.4876 6.6935,3.42131 6.6936,5.80112 -10e-5,1.78509 -3.4212,4.31378 -10.2635,7.58608 -6.8424,3.27255 -13.9823,4.46252 -21.4196,3.56992 -7.4373,-1.18985 -13.5359,-5.65225 -18.2958,-13.3872 m 103.9739,51.31761 c -14.8747,5.65245 -29.1544,12.79228 -42.839,21.41952 -13.3873,8.32987 -20.0809,15.61845 -20.0808,21.86576 -10e-5,11.00729 4.4623,18.14712 13.3872,21.41953 8.9247,2.97495 19.0395,0.595 30.3443,-7.13984 10.4122,-7.13981 16.957,-16.80834 19.6346,-29.00561 2.6773,-12.19716 2.5286,-21.71694 -0.4463,-28.55936" />
      <path
         inkscape:connector-curvature="0"
         id="path7683"
         style="fill:none;stroke:#007400;stroke-width:3.9425528;stroke-miterlimit:4;stroke-opacity:1;stroke-dasharray:none"
         d="m 2087.3014,619.40663 c -7.1398,-16.957 -6.8423,-31.23667 0.8925,-42.83905 8.0323,-11.60208 20.2295,-20.37812 36.5917,-26.32816 16.6596,-5.94969 34.8066,-9.66835 54.4413,-11.156 10.1147,-0.29731 17.7007,1.78514 22.7582,6.24736 5.0573,4.16508 6.991,9.22246 5.8012,15.17216 -0.8926,5.95003 -5.2063,11.00741 -12.941,15.17216 -5.355,2.3801 -9.3712,3.27258 -12.0485,2.67745 -2.6775,-0.89234 -4.9087,-3.27228 -6.6936,-7.13985 -1.785,-3.86725 -4.0162,-7.58592 -6.6936,-11.156 -2.38,-3.86724 -6.0987,-6.39593 -11.156,-7.58608 -7.1399,-2.08228 -15.1722,-1.48729 -24.0969,1.78496 -8.9249,2.9751 -14.4285,9.81744 -16.5109,20.52704 -2.38,11.60239 0.1487,19.33721 7.5861,23.20449 7.4372,3.86754 20.2294,6.69372 38.3766,8.47856 18.147,1.78508 31.0879,4.16502 38.8229,7.13984 7.7347,2.97504 14.577,10.11488 20.527,21.41953 6.2472,11.30482 5.0573,26.92321 -3.5699,46.8552 -5.6525,13.08974 -18.891,24.98947 -39.7154,35.69921 -20.5271,10.41227 -41.2029,13.3872 -62.0273,8.9248 -11.8998,-2.97493 -20.5271,-8.32981 -25.882,-16.06464 -5.0574,-8.0323 -5.9498,-16.06461 -2.6774,-24.09697 3.5699,-8.32976 10.4122,-13.98213 20.5271,-16.95712 8.0322,12.49477 17.552,22.60953 28.5593,30.34433 11.0072,7.73484 21.2707,11.15601 30.7906,10.26352 9.8172,-0.89246 17.1057,-6.99107 21.8657,-18.29584 4.7598,-11.00722 3.2723,-21.86571 -4.4624,-32.57553 -7.7349,-11.00718 -15.4697,-17.25453 -23.2044,-18.74208 -5.0575,-1.18989 -14.8748,-1.93362 -29.4519,-2.2312 -14.2797,-0.5949 -24.8407,-1.78488 -31.683,-3.56992 -6.5449,-2.08237 -11.4535,-7.13975 -14.726,-15.17217" />
    </g>
  </g>
</svg>
