<?xml version="1.0" encoding="UTF-8" standalone="no"?>
<!-- Created with Inkscape (http://www.inkscape.org/) -->

<svg
   xmlns:dc="http://purl.org/dc/elements/1.1/"
   xmlns:cc="http://creativecommons.org/ns#"
   xmlns:rdf="http://www.w3.org/1999/02/22-rdf-syntax-ns#"
   xmlns:svg="http://www.w3.org/2000/svg"
   xmlns="http://www.w3.org/2000/svg"
   xmlns:sodipodi="http://sodipodi.sourceforge.net/DTD/sodipodi-0.dtd"
   xmlns:inkscape="http://www.inkscape.org/namespaces/inkscape"
   width="3200"
   height="800"
   id="svg2"
   version="1.1"
   inkscape:version="0.91 r13725"
   sodipodi:docname="Baseball_Template.svg">
  <sodipodi:namedview
     id="base"
     pagecolor="#ffffff"
     bordercolor="#666666"
     borderopacity="1.0"
     inkscape:pageopacity="0.0"
     inkscape:pageshadow="2"
     inkscape:zoom="0.318125"
     inkscape:cx="1600"
     inkscape:cy="400"
     inkscape:document-units="px"
     inkscape:current-layer="layer3"
     showgrid="false"
     inkscape:window-width="1440"
     inkscape:window-height="856"
     inkscape:window-x="6"
     inkscape:window-y="0"
     inkscape:window-maximized="0" />
  <defs
     id="defs4" />
  <metadata
     id="metadata7">
    <rdf:RDF>
      <cc:Work
         rdf:about="">
        <dc:format>image/svg+xml</dc:format>
        <dc:type
           rdf:resource="http://purl.org/dc/dcmitype/StillImage" />
        <dc:title></dc:title>
      </cc:Work>
    </rdf:RDF>
  </metadata>
  <g
     style="display:inline"
     transform="translate(0,-252.36218)"
     id="layer1"
     inkscape:groupmode="layer"
     inkscape:label="1- Drawing">
    <g
       id="flowRoot3795"
       style="font-style:normal;font-variant:normal;font-weight:normal;font-stretch:normal;font-size:40px;line-height:125%;font-family:Surfboard;-inkscape-font-specification:Surfboard;text-align:start;letter-spacing:0px;word-spacing:0px;writing-mode:lr-tb;text-anchor:start;display:inline;fill:#0000ff;fill-opacity:1;stroke:none"
       transform="matrix(0,-2.9342025,2.9342025,0,-326.8313,4681.6767)">
      <path
         inkscape:connector-curvature="0"
         id="path3137"
         style="font-size:42.60101318px;fill:#0000ff"
         d="m 1310.1042,324.99318 -1.4697,3.95913 -1.4697,3.98423 -1.4698,4.01047 -1.4697,4.03784 -0.8944,-0.43831 -0.8945,-0.44055 1.4851,-4.06594 1.485,-4.03733 1.4851,-4.00991 1.485,-3.98365 1.4851,-3.95855 1.485,-3.93456 1.4851,-3.91168 -1.6901,0.2855 -1.6901,0.284 -1.6901,0.28257 -0.5539,-1.97907 1.4379,-0.28153 1.4379,-0.28241 1.4379,-0.28335 1.4379,-0.28434 1.5656,-0.20663 1.5656,-0.2086 1.3524,-0.003 1.3525,-0.005 1.3044,0.21788 1.23,0.44344 1.1556,0.66808 1.0812,0.89202 0.9135,1.05407 0.6525,1.15578 0.3915,1.25935 0.1305,1.36476 -0.1625,1.80843 -0.4873,1.61552 -0.8121,1.42432 -1.137,1.23399 -1.1262,0.75833 -1.3765,0.68109 -1.6267,0.60342 -0.9385,0.26239 -0.9385,0.2626 -1.6615,0.26585 -1.6615,0.26534 -1.6615,0.26492 -1.6615,0.26455 -0.299,-1.29569 m 13.5898,-8.52772 -0.1039,-1.09849 -0.3115,-0.98399 -0.5192,-0.87062 -0.7269,-0.7583 -0.7693,-0.50186 -0.9023,-0.38489 -1.0355,-0.2681 -1.1685,-0.15141 -1.0547,0.0886 -1.0282,0.17424 -1.0282,0.1736 -1.5618,4.07655 -1.5619,4.10056 -1.5618,4.12582 1.3953,-0.19271 1.3954,-0.19327 1.3953,-0.19385 1.3953,-0.19449 1.661,-0.35789 1.4481,-0.4533 1.2353,-0.54772 1.0223,-0.64148 1.0437,-0.96499 0.7455,-1.14572 0.4473,-1.32694 0.1492,-1.5094 0,0" />
      <path
         inkscape:connector-curvature="0"
         id="path3139"
         style="font-size:42.60101318px;fill:#0000ff"
         d="m 1339.863,320.46316 1.0648,1.72872 -1.5443,0.98495 -1.5444,0.98634 -1.5443,0.98798 -1.5443,0.98986 -1.1609,0.81144 -1.1609,0.81297 -0.9052,0.69374 -0.9053,0.69496 -1.5875,1.34632 -1.3759,1.3092 -1.1641,1.27135 -0.9525,1.23263 -0.7409,1.19289 -0.5292,1.15206 -0.3175,1.11006 -0.1058,1.06691 0.2132,0.89254 0.5967,0.32123 0.6096,-0.0779 0.764,-0.25223 0.9955,-0.51285 0.9955,-0.51158 1.5606,-1.0068 1.4432,-1.09333 1.326,-1.17987 1.2086,-1.2665 0.8841,-1.14997 0.884,-1.14769 0.9055,-1.47258 0.9055,-1.46973 1.6823,-3.13095 1.6823,-3.12078 1.6199,1.00203 -0.9586,1.89433 -0.9586,1.8976 -0.916,2.14664 -0.9159,2.15067 -0.8733,2.40083 -0.8733,2.4056 -1.6613,5.31903 -0.9373,-0.27403 -0.9374,-0.27499 1.6615,-5.40032 -1.3659,1.36926 -1.3287,1.18771 -1.2913,1.00522 -1.254,0.82178 -1.2168,0.63733 -1.1795,0.45188 -1.1421,0.26542 -1.1049,0.078 -0.5888,-0.0783 -0.5302,-0.2167 -0.4715,-0.35542 -0.4129,-0.49436 -0.3822,-0.71927 -0.2243,-0.76198 -0.075,-0.84915 0.1065,-1.21832 0.3195,-1.24719 0.5325,-1.27474 0.7456,-1.30098 0.9585,-1.32603 1.1716,-1.35001 1.3845,-1.3731 1.5976,-1.3955 1.6349,-1.24661 1.1742,-0.81231 1.1743,-0.81071 1.376,-0.89224 1.376,-0.89061 1.376,-0.88916 1.376,-0.88788 1.376,-0.8868 0,0" />
      <path
         inkscape:connector-curvature="0"
         id="path3141"
         style="font-size:42.60101318px;fill:#0000ff"
         d="m 1341.5415,341.42074 -0.9159,-0.26961 -0.916,-0.27043 1.2301,-3.67057 1.23,-3.66118 1.4111,-3.68377 1.4111,-3.67451 1.5921,-3.69644 1.5921,-3.68797 1.1821,-2.47435 1.1821,-2.4711 1.1821,-2.4682 1.6615,0.90452 -1.4777,3.25073 -1.4777,3.25532 -1.4937,3.52926 -1.4936,3.53606 -1.4883,3.77583 -1.4882,3.7849 -1.4616,3.99012 -1.4616,4.00139 0,0" />
      <path
         inkscape:connector-curvature="0"
         id="path3143"
         style="font-size:42.60101318px;fill:#0000ff"
         d="m 1352.4595,342.02729 -0.9036,-0.0957 -0.7946,-0.27537 -0.6856,-0.45525 -0.5765,-0.63527 -0.4567,-0.76135 -0.3262,-0.83335 -0.1957,-0.90506 -0.065,-0.97651 0.205,-2.28 0.615,-2.40225 1.025,-2.52237 1.4351,-2.64077 0.9219,-1.42281 0.9339,-1.22973 0.9458,-1.03713 0.9579,-0.84501 0.9698,-0.65332 0.9818,-0.46204 0.9939,-0.27117 1.0058,-0.0806 0.9174,0.10355 0.8349,0.28314 0.7522,0.46279 0.6696,0.64252 0.5497,0.766 0.3927,0.83334 0.2356,0.90095 0.079,0.96882 -0.2023,2.32382 -0.607,2.36421 -1.0542,2.49035 -1.544,2.70248 -0.9547,1.39646 -0.968,1.21013 -0.9813,1.02364 -0.9946,0.83697 -1.0079,0.65007 -1.0211,0.4629 -1.0345,0.2754 -1.0477,0.0876 0,0 m -2.1295,-5.00227 0.1172,1.08144 0.3515,1.09413 0.2663,0.48179 0.3302,0.34513 0.3942,0.20849 0.4582,0.0719 0.8586,-0.0809 0.8506,-0.25533 0.8426,-0.4295 0.8346,-0.60341 0.8266,-0.77709 0.8186,-0.95057 0.8105,-1.12387 0.8026,-1.29702 1.2678,-2.43462 0.9056,-2.28095 0.5434,-2.12815 0.1811,-1.9761 -0.1332,-1.19717 -0.3995,-0.85865 -0.2997,-0.30251 -0.3662,-0.21803 -0.9322,-0.1828 -0.8379,0.0729 -0.8312,0.24084 -0.8246,0.4091 -0.8179,0.57761 -0.8114,0.74641 -0.8047,0.91552 -1.5896,2.33966 -1.2303,2.30244 -0.8788,2.18696 -0.5273,2.07026 -0.1757,1.95209 0,0" />
      <path
         inkscape:connector-curvature="0"
         id="path3145"
         style="font-size:42.60101318px;fill:#0000ff"
         d="m 1404.191,307.32249 -0.468,4.12691 -0.2243,2.80708 -0.075,2.43356 -0.5538,9.30426 1.4698,-0.16506 1.4697,-0.16733 0.086,1.99021 -1.4697,0.1215 -1.4698,0.11951 0.2022,5.33141 0.6065,7.79305 -0.9581,0.13811 -0.9582,0.13756 -0.6397,-7.01277 -0.2132,-6.30253 -1.704,0.13397 -1.7039,0.13143 -1.704,0.12893 -1.704,0.12647 -1.7039,0.12406 -1.704,0.12169 -1.5774,1.70587 -1.5774,1.70152 -1.6653,1.67414 -1.6654,1.67042 -1.1688,1.09601 -1.1688,1.09461 -1.1689,1.09337 -1.2274,1.07639 -1.2275,1.07538 -1.2274,1.07453 -1.3208,-1.49039 1.5976,-1.36747 1.5976,-1.36892 1.5549,-1.41846 1.5549,-1.42054 1.5123,-1.47066 1.5123,-1.47337 1.4696,-1.52402 1.4696,-1.52733 -1.4554,0.0992 -1.4555,0.0975 -1.4554,0.0959 -1.4554,0.0943 -1.4555,0.0928 -1.4554,0.0912 -0.086,-1.95975 1.5276,-0.086 1.5276,-0.0879 1.5276,-0.0897 1.5275,-0.0916 1.5276,-0.0935 1.5276,-0.0955 1.5276,-0.0974 1.1537,-1.40265 1.1537,-1.40557 1.1538,-1.40871 1.1608,-1.53359 1.1609,-1.53734 1.1608,-1.54129 1.1928,-1.69322 1.1929,-1.69806 1.1928,-1.70316 1.2496,-1.88318 1.2496,-1.88957 1.2496,-1.89628 0,0 m -2.7263,7.83498 -1.0172,1.51377 -1.0173,1.5099 -1.0703,1.47518 -1.0704,1.47146 -1.1235,1.43673 -1.1235,1.43318 -1.1767,1.39848 -1.1766,1.39515 1.6529,-0.12828 1.6529,-0.13075 1.653,-0.13324 1.6529,-0.13578 1.6529,-0.13837 0.1277,-5.75957 0.3832,-5.20786 0,0" />
      <path
         inkscape:connector-curvature="0"
         id="path3147"
         style="font-size:42.60101318px;fill:#0000ff"
         d="m 1408.1055,341.40662 -0.9159,-0.25072 -0.9159,-0.25047 1.23,-3.69792 1.2301,-3.70881 1.4111,-3.76031 1.411,-3.77458 1.5922,-3.83203 1.5921,-3.85053 1.1821,-2.60761 1.1821,-2.61796 1.1821,-2.62873 1.6615,0.7801 -1.4777,3.46275 -1.4777,3.44479 -1.4937,3.70226 -1.4936,3.68468 -1.4883,3.90258 -1.4882,3.88602 -1.4617,4.06579 -1.4616,4.0507 0,0" />
      <path
         inkscape:connector-curvature="0"
         id="path3149"
         style="font-size:42.60101318px;fill:#0000ff"
         d="m 1429.0784,309.41796 1.6615,0.94875 -1.3102,2.22056 -1.3101,2.20738 -0.9481,1.70401 -0.9481,1.69712 1.6899,-0.32302 1.6899,-0.32815 1.6899,-0.33341 1.6899,-0.33881 1.6899,-0.34435 1.6899,-0.35004 0.2561,2.07435 -1.6372,0.32667 -1.6371,0.32159 -1.6372,0.31664 -1.6372,0.3118 -1.6372,0.3071 -1.6371,0.3025 -1.6372,0.29802 -0.9719,2.14053 -0.9719,2.13256 -0.8706,2.1458 -0.8707,2.13907 -1.5388,4.30294 -1.3363,4.32661 1.4631,-1.25943 1.463,-1.2662 1.5349,-1.17557 1.5349,-1.18291 1.6068,-1.09274 1.6067,-1.10064 1.6786,-1.0109 1.6785,-1.01934 0.8529,1.7665 -1.1224,0.62829 -1.1223,0.62473 -1.1304,0.7307 -1.1303,0.72685 -1.1383,0.83208 -1.1383,0.82797 -1.1463,0.93251 -1.1463,0.92822 -1.175,1.07092 -1.1751,1.06625 -1.175,1.06175 -1.4806,1.46511 -1.4805,1.45801 -1.4806,1.45125 1.611,-6.02211 0.9254,-2.9283 0.9254,-2.93672 1.0452,-2.8528 1.0452,-2.86277 1.165,-2.78144 1.1651,-2.79316 -1.2641,0.19414 -1.2641,0.19179 -1.2641,0.18948 -0.1703,-1.93129 1.6758,-0.30171 1.6758,-0.30625 1.6758,-0.31089 1.0383,-1.94261 1.0383,-1.95084 1.5391,-2.65306 1.5391,-2.67109 0,0" />
      <path
         inkscape:connector-curvature="0"
         id="path3151"
         style="font-size:42.60101318px;fill:#0000ff"
         d="m 1438.4104,341.47742 -0.9037,-0.0773 -0.7946,-0.27012 -0.6855,-0.46207 -0.5765,-0.65345 -0.4568,-0.78802 -0.3262,-0.86634 -0.1958,-0.94515 -0.065,-1.02462 0.205,-2.40824 0.615,-2.56302 1.0251,-2.72561 1.435,-2.89765 0.9219,-1.58294 0.9339,-1.38631 0.9459,-1.18869 0.9579,-0.99001 0.9698,-0.7902 0.9818,-0.58919 0.9938,-0.38689 1.0058,-0.1832 0.9175,0.025 0.8349,0.22933 0.7522,0.43506 0.6696,0.64193 0.5497,0.7911 0.3927,0.88158 0.2356,0.97143 0.079,1.06035 -0.2023,2.57415 -0.607,2.64187 -1.0542,2.79596 -1.544,3.03313 -0.9547,1.56305 -0.9681,1.35273 -0.9813,1.14389 -0.9946,0.93654 -1.0078,0.73066 -1.0212,0.52624 -1.0344,0.32327 -1.0477,0.12174 0,0 m -2.1295,-5.23378 0.1172,1.13926 0.3514,1.14516 0.2663,0.50122 0.3303,0.35491 0.3942,0.20843 0.4582,0.0616 0.8586,-0.11403 0.8506,-0.30082 0.8425,-0.48871 0.8346,-0.67769 0.8266,-0.86779 0.8186,-1.05901 0.8106,-1.25136 0.8026,-1.44485 1.2678,-2.71664 0.9056,-2.5449 0.5433,-2.36442 0.1812,-2.17618 -0.1332,-1.29888 -0.3996,-0.9043 -0.2996,-0.30401 -0.3662,-0.20538 -0.9323,-0.116 -0.8378,0.15359 -0.8313,0.33407 -0.8246,0.51352 -0.8179,0.69195 -0.8114,0.86943 -0.8047,1.04599 -1.5896,2.61828 -1.2303,2.53218 -0.8787,2.37238 -0.5273,2.21978 -0.1757,2.0732 0,0" />
    </g>
    <g
       id="flowRoot3795-2"
       style="font-style:normal;font-variant:normal;font-weight:normal;font-stretch:normal;font-size:40px;line-height:125%;font-family:Surfboard;-inkscape-font-specification:Surfboard;text-align:start;letter-spacing:0px;word-spacing:0px;writing-mode:lr-tb;text-anchor:start;display:inline;fill:#0000ff;fill-opacity:1;stroke:none"
       transform="matrix(0,-2.6095821,2.6095821,0,-108.01482,4339.9441)">
      <path
         inkscape:connector-curvature="0"
         id="path3112"
         style="font-size:47.90039062px;fill:#0000ff"
         d="m 1317.8849,313.97323 -1.8749,4.88396 -1.8748,4.93662 -1.8749,4.99149 -1.8749,5.04868 -1.8749,5.10821 -1.8748,5.17019 -1.8749,5.2347 1.9159,-0.36792 1.916,-0.35982 1.9159,-0.35193 1.4249,-0.10564 1.4249,-0.10275 1.4249,-0.0999 1.4329,0.0113 1.433,0.0132 1.4329,0.0151 -0.1915,2.406 -1.301,0.0161 -1.301,0.018 -1.301,0.02 -1.6684,0.13816 -1.6684,0.14246 -1.6684,0.14685 -1.6288,0.2862 -1.6288,0.29194 -1.4849,0.44803 -1.4848,0.45472 -0.288,0.83488 -0.9575,-0.43533 -1.5816,0.68177 -0.5263,-2.44624 1.6767,-0.6836 1.7304,-4.8422 1.7304,-4.78531 1.7304,-4.73044 1.7305,-4.67758 1.7304,-4.62664 1.7304,-4.57756 1.7304,-4.5303 1.7304,-4.48482 0.9816,0.45591 0.9816,0.4535" />
      <path
         inkscape:connector-curvature="0"
         id="path3114"
         style="font-size:47.90039062px;fill:#0000ff"
         d="m 1333.9954,325.06171 1.0058,0.46193 1.0057,0.4603 -1.6207,3.98779 -1.6206,4.01793 -1.6207,4.04922 -1.6207,4.0817 -1.6206,4.1154 -1.6207,4.15033 -1.0057,-0.3788 -1.0057,-0.37966 1.6206,-4.18016 1.6207,-4.14418 1.6206,-4.10946 1.6207,-4.07598 1.6206,-4.04372 1.6207,-4.01265 m 4.7904,-5.27007 -1.0298,-0.44602 -1.0299,-0.44772 1.1972,-2.68931 1.1972,-2.67554 1.0065,0.53468 1.0064,0.53258 -1.1738,2.58931 -1.1738,2.60202" />
      <path
         inkscape:connector-curvature="0"
         id="path3116"
         style="font-size:47.90039062px;fill:#0000ff"
         d="m 1350.1878,312.45338 1.8682,1.20437 -1.4731,2.39691 -1.4732,2.40947 -1.066,1.88203 -1.066,1.88958 1.9001,-0.29436 1.9001,-0.29127 1.9001,-0.28829 1.9001,-0.28544 1.9001,-0.28267 1.9001,-0.28002 0.288,2.29056 -1.8408,0.27084 -1.8409,0.27354 -1.8408,0.27631 -1.8408,0.27919 -1.8408,0.28217 -1.8409,0.28523 -1.8408,0.28842 -1.0928,2.43325 -1.0928,2.44393 -0.979,2.47889 -0.9789,2.489 -1.7303,5.05368 -1.5025,5.13374 1.6451,-1.55459 1.6451,-1.54185 1.7258,-1.41904 1.7258,-1.40722 1.8066,-1.28545 1.8066,-1.27462 1.8874,-1.154 1.8874,-1.14417 0.959,1.97511 -1.262,0.70768 -1.262,0.7118 -1.271,0.83989 -1.2709,0.84482 -1.2799,0.97439 -1.2799,0.98024 -1.2889,1.1114 -1.2888,1.11826 -1.3212,1.29725 -1.3213,1.30566 -1.3212,1.31429 -1.6648,1.82591 -1.6647,1.84165 -1.6648,1.85795 1.8115,-7.28185 1.0404,-3.51377 1.0405,-3.49732 1.1753,-3.37507 1.1752,-3.35783 1.3101,-3.23344 1.31,-3.21581 -1.4214,0.19603 -1.4213,0.19795 -1.4214,0.19992 -0.1915,-2.26937 1.8843,-0.30896 1.8842,-0.30541 1.8843,-0.30198 1.1674,-2.18914 1.1674,-2.1792 1.7306,-2.92382 1.7306,-2.90535 0,0" />
      <path
         inkscape:connector-curvature="0"
         id="path3118"
         style="font-size:47.90039062px;fill:#0000ff"
         d="m 1371.9862,312.38821 1.8682,1.17115 -1.4731,2.32102 -1.4731,2.32896 -1.0661,1.81666 -1.066,1.82154 1.9001,-0.27147 1.9001,-0.26923 1.9001,-0.26705 1.9001,-0.26496 1.9001,-0.26298 1.9001,-0.26106 0.288,2.23354 -1.8408,0.25008 -1.8409,0.25205 -1.8408,0.25409 -1.8408,0.25623 -1.8408,0.25844 -1.8409,0.26072 -1.8408,0.26309 -1.0928,2.341 -1.0928,2.34805 -0.9789,2.38 -0.979,2.38676 -1.7302,4.84143 -1.5026,4.9124 1.6451,-1.46246 1.6451,-1.45347 1.7258,-1.33669 1.7258,-1.32841 1.8066,-1.21235 1.8066,-1.2048 1.8874,-1.08953 1.8874,-1.08272 0.959,1.93194 -1.262,0.66756 -1.262,0.67044 -1.2709,0.79329 -1.271,0.79673 -1.2799,0.92056 -1.2799,0.92465 -1.2888,1.04956 -1.2889,1.05438 -1.3212,1.22448 -1.3212,1.23037 -1.3213,1.23647 -1.6647,1.71813 -1.6648,1.72931 -1.6647,1.74092 1.8114,-6.94834 1.0405,-3.35554 1.0404,-3.3443 1.1753,-3.2291 1.1752,-3.21745 1.3101,-3.10089 1.31,-3.08912 -1.4214,0.1761 -1.4213,0.17755 -1.4214,0.17904 -0.1915,-2.18582 1.8843,-0.28236 1.8842,-0.27972 1.8843,-0.27719 1.1674,-2.10718 1.1674,-2.10068 1.7306,-2.82281 1.7306,-2.81101 0,0" />
      <path
         inkscape:connector-curvature="0"
         id="path3120"
         style="font-size:47.90039062px;fill:#0000ff"
         d="m 1379.5584,346.77594 -1.0298,-0.25713 -1.0299,-0.25662 1.383,-4.18144 1.3831,-4.16905 1.5866,-4.20097 1.5866,-4.18805 1.7902,-4.21779 1.7902,-4.205 1.3291,-2.82377 1.3291,-2.81829 1.3292,-2.81322 1.8682,0.96065 -1.6616,3.69901 -1.6615,3.70695 -1.6794,4.01791 -1.6794,4.02836 -1.6734,4.30012 -1.6735,4.3131 -1.6434,4.54496 -1.6434,4.56028 0,0" />
      <path
         inkscape:connector-curvature="0"
         id="path3122"
         style="font-size:47.90039062px;fill:#0000ff"
         d="m 1401.367,326.64975 -0.1794,-0.63482 -0.2243,-0.18157 -0.314,-0.091 -0.65,0.12364 -0.7994,0.36486 -1.0236,0.72711 -1.0236,0.7282 -1.6411,1.52904 -1.4731,1.67549 -1.3054,1.82174 -1.1375,1.96768 -0.9219,2.0582 -0.6585,2.09271 -0.3951,2.12592 -0.1317,2.15787 0.063,0.92758 0.1886,0.65933 0.3142,0.39108 0.44,0.12301 0.7873,-0.13288 0.925,-0.36691 1.0627,-0.60017 1.2004,-0.83251 1.1225,-0.91318 0.8292,-0.84369 0.5358,-0.77529 0.2424,-0.70767 1.0299,-0.3256 1.0298,-0.32451 -0.4861,1.43364 -0.7407,1.36263 -0.9953,1.29252 -1.2497,1.22348 -1.3966,1.04551 -1.4356,0.75757 -1.4748,0.4693 -1.5139,0.18055 -0.5981,-0.0794 -0.5505,-0.26746 -0.5028,-0.45583 -0.455,-0.64442 -0.5032,-1.2566 -0.1678,-1.38617 0.065,-1.19997 0.1954,-1.27818 0.7814,-2.78913 1.3024,-3.09585 1.8233,-3.39762 1.1219,-1.78704 1.1143,-1.54777 1.1069,-1.30911 1.0993,-1.07102 1.0919,-0.83346 1.0844,-0.59635 1.0769,-0.35965 1.0694,-0.12332 0.64,0.0652 0.5546,0.20222 0.4694,0.33913 0.384,0.47596 0.2986,0.61276 0.2133,0.74953 0.1707,1.90947 -0.064,0.80237 -0.1931,0.80018 -0.3218,0.79812 -0.4505,0.79622 -1.2873,1.58761 -1.8022,1.58306 -1.5685,1.11906 -1.6884,1.02155 -1.8083,0.92461 -0.964,0.41358 -0.9641,0.4147 -0.9107,-1.96339 1.2975,-0.65076 1.2975,-0.64866 1.2974,-0.64665 1.3831,-0.87667 1.383,-0.87435 1.6973,-1.41446 1.2124,-1.46791 0.4243,-0.7546 0.3031,-0.76861 0.1819,-0.78278 0.061,-0.79706 0,0" />
      <path
         inkscape:connector-curvature="0"
         id="path3124"
         style="font-size:47.90039062px;fill:#0000ff"
         d="m 1434.7356,313.55709 -1.8749,4.27964 -1.8748,4.27241 -1.8749,4.2664 -1.8748,4.26157 -1.8749,4.25793 -1.8748,4.25549 -1.8749,4.25421 1.9159,-0.0976 1.916,-0.0945 1.9159,-0.0915 1.4249,0.0652 1.4249,0.067 1.4248,0.0688 1.433,0.16701 1.4329,0.16903 1.433,0.1711 -0.1915,2.11725 -1.301,-0.13804 -1.3011,-0.13628 -1.301,-0.13452 -1.6684,-0.0743 -1.6684,-0.0716 -1.6684,-0.0689 -1.6288,0.0541 -1.6288,0.0565 -1.4849,0.20368 -1.4848,0.2056 -0.2879,0.6696 -0.9575,-0.48485 -1.5817,0.37646 -0.5262,-2.10843 1.6766,-0.37716 1.7304,-3.89143 1.7304,-3.8914 1.7304,-3.8923 1.7305,-3.89412 1.7304,-3.89686 1.7304,-3.90053 1.7304,-3.90513 1.7304,-3.91065 0.9816,0.41037 0.9816,0.41086" />
      <path
         inkscape:connector-curvature="0"
         id="path3126"
         style="font-size:47.90039062px;fill:#0000ff"
         d="m 1455.3485,326.98526 -0.1794,-0.65198 -0.2243,-0.19035 -0.314,-0.0999 -0.65,0.11131 -0.7994,0.35309 -1.0237,0.71499 -1.0236,0.71398 -1.641,1.50619 -1.4732,1.65191 -1.3053,1.79771 -1.1375,1.94366 -0.9219,2.03642 -0.6585,2.07642 -0.3951,2.11737 -0.1317,2.15937 0.063,0.93375 0.1885,0.6709 0.3143,0.40819 0.44,0.14552 0.7873,-0.0943 0.925,-0.3234 1.0627,-0.55286 1.2004,-0.78281 1.1225,-0.87082 0.8292,-0.8165 0.5358,-0.76203 0.2424,-0.70721 1.0299,-0.28636 1.0298,-0.28613 -0.4861,1.43711 -0.7407,1.35116 -0.9953,1.26489 -1.2497,1.17868 -1.3966,0.98702 -1.4356,0.6906 -1.4748,0.3955 -1.5139,0.10171 -0.5981,-0.11115 -0.5505,-0.29705 -0.5028,-0.48282 -0.455,-0.66851 -0.5033,-1.28242 -0.1677,-1.39446 0.065,-1.19715 0.1954,-1.26998 0.7814,-2.75977 1.3024,-3.05533 1.8233,-3.35447 1.1219,-1.76691 1.1143,-1.53132 1.1069,-1.29516 1.0993,-1.05841 1.0919,-0.82101 1.0844,-0.58295 1.0769,-0.34415 1.0694,-0.10461 0.64,0.079 0.5546,0.21725 0.4694,0.35566 0.384,0.49416 0.2986,0.63266 0.2133,0.7711 0.1707,1.95684 -0.064,0.81886 -0.1931,0.81283 -0.3218,0.80647 -0.4505,0.79984 -1.2873,1.57895 -1.8022,1.55041 -1.5685,1.08034 -1.6884,0.97218 -1.8083,0.86485 -0.964,0.37921 -0.9641,0.37925 -0.9107,-2.01035 1.2975,-0.60697 1.2975,-0.60718 1.2974,-0.60746 1.3831,-0.83986 1.383,-0.84091 1.6973,-1.38396 1.2124,-1.45906 0.4243,-0.75747 0.3031,-0.77586 0.1819,-0.79404 0.061,-0.81193 0,0" />
      <path
         inkscape:connector-curvature="0"
         id="path3128"
         style="font-size:47.90039062px;fill:#0000ff"
         d="m 1474.1269,323.74766 1.1972,1.99043 -1.7364,1.15193 -1.7365,1.14681 -1.7364,1.142 -1.7365,1.13751 -1.3053,0.92719 -1.3053,0.92467 -1.0178,0.7856 -1.0179,0.78405 -1.785,1.51084 -1.547,1.45993 -1.309,1.41017 -1.071,1.36141 -0.833,1.31354 -0.595,1.26651 -0.357,1.22031 -0.119,1.17493 0.2397,0.98954 0.671,0.36979 0.6854,-0.0701 0.859,-0.25907 1.1193,-0.54313 1.1194,-0.54348 1.7547,-1.08529 1.6228,-1.19223 1.4909,-1.30004 1.3589,-1.40851 0.9941,-1.28976 0.994,-1.29277 1.0182,-1.66988 1.0181,-1.67433 1.8916,-3.59308 1.8915,-3.61295 1.8214,1.15769 -1.0778,2.20155 -1.0779,2.19424 -1.0299,2.47137 -1.0298,2.46386 -0.982,2.74024 -0.9819,2.73264 -1.8679,6.00931 -1.0539,-0.35721 -1.054,-0.35502 1.8682,-6.07655 -1.5359,1.51567 -1.4939,1.30225 -1.452,1.09045 -1.4101,0.88011 -1.3681,0.67105 -1.3262,0.46314 -1.2842,0.25624 -1.2423,0.0502 -0.6621,-0.10498 -0.5961,-0.25502 -0.5302,-0.40492 -0.4642,-0.55477 -0.4298,-0.79953 -0.2521,-0.84137 -0.084,-0.9334 0.1198,-1.33582 0.3592,-1.36653 0.5988,-1.39814 0.8382,-1.4306 1.0778,-1.46393 1.3173,-1.49816 1.5568,-1.5334 1.7963,-1.56974 1.8383,-1.41341 1.3203,-0.92723 1.3204,-0.92969 1.5472,-1.02914 1.5472,-1.03266 1.5471,-1.0364 1.5472,-1.04037 1.5472,-1.04456 0,0" />
      <path
         inkscape:connector-curvature="0"
         id="path3130"
         style="font-size:47.90039062px;fill:#0000ff"
         d="m 1491.1496,327.24621 -1.7124,1.36924 -1.7124,1.36092 -1.7124,1.35299 -1.1271,0.9973 -1.1271,0.99367 -1.0223,0.98214 -1.0223,0.97902 -1.3411,1.45335 -1.3411,1.44754 -1.9159,2.62847 -0.6706,1.21551 -0.4789,1.15125 -0.2874,1.08806 -0.096,1.02586 0.066,0.48887 0.1976,0.35828 0.3294,0.22789 0.4611,0.0975 0.815,-0.0111 0.8164,-0.13381 1.6375,-0.63779 1.6436,-1.13504 1.6495,-1.63706 1.1882,-1.53172 1.2183,-1.88206 1.2485,-2.23539 1.2786,-2.59195 1.7001,-3.92455 1.7001,-3.95105 0.9582,0.50184 0.9582,0.50434 -1.7245,4.34196 -1.7244,4.31154 -1.7245,4.28248 -1.7244,4.25471 -1.7245,4.22826 -1.7244,4.20305 -0.6586,1.43837 -0.7305,1.30199 -0.8022,1.16588 -0.8741,1.03019 -1.1646,1.09701 -1.1944,0.75049 -1.2241,0.40625 -1.254,0.0643 -1.0015,-0.19432 -0.8968,-0.40664 -0.792,-0.61865 -0.6872,-0.83052 -0.5554,-0.96239 -0.3967,-1.01489 -0.2381,-1.06828 -0.079,-1.12254 0.1315,-1.69009 0.3947,-1.37435 0.9582,0.61223 0.9582,0.61508 -0.478,1.8725 0.1557,1.31458 0.4671,1.3385 0.3442,0.59695 0.4101,0.4396 0.4758,0.28218 0.5416,0.12462 1.0207,-0.10697 1.0506,-0.48226 1.0807,-0.85956 1.1106,-1.23909 1.5451,-2.55466 1.665,-3.55159 1.0773,-2.73021 1.0774,-2.7403 -0.9923,0.93008 -0.9923,0.92746 -0.9654,0.6436 -0.9654,0.6422 -0.9453,0.43059 -0.9319,0.29004 -0.9184,0.15022 -0.905,0.011 -1.5087,-0.2602 -1.0776,-0.55694 -0.3772,-0.39004 -0.2694,-0.46466 -0.1616,-0.53951 -0.054,-0.61464 0.098,-1.18475 0.2941,-1.24533 0.4903,-1.30704 0.6864,-1.36992 0.8825,-1.43409 1.0786,-1.49962 1.3727,-1.59789 1.3728,-1.60433 1.1075,-1.11836 1.1075,-1.12214 1.2153,-1.11545 1.2153,-1.11979 1.3232,-1.11395 1.3231,-1.11893 1.4309,-1.11403 1.4309,-1.11974 1.2455,1.90821" />
      <path
         inkscape:connector-curvature="0"
         id="path3132"
         style="font-size:47.90039062px;fill:#0000ff"
         d="m 1494.9868,345.86118 1.2484,-1.0368 1.2484,-1.04134 1.1705,-1.09737 1.1705,-1.10232 1.0927,-1.15874 1.0927,-1.164 1.0149,-1.22066 1.0148,-1.22616 1.8741,-2.57143 1.7183,-2.69605 1.5627,-2.82016 1.407,-2.94321 0.9823,0.56094 0.9824,0.56444 -1.8968,5.03932 -1.8969,4.98878 -1.8968,4.94043 -1.8969,4.89422 -1.8968,4.85009 -1.0299,-0.58503 -1.0298,-0.58091 1.5325,-3.91473 1.5324,-3.94254 1.5325,-3.97142 -1.6031,1.7485 -1.6031,1.73632 -1.8397,1.66562 -1.8396,1.65374 -1.3841,1.0566 -1.3842,1.05163 -1.3841,1.04687 -1.5418,1.00267 -1.5418,0.99835 -1.5418,0.99428 1.8121,-4.28331 1.8122,-4.31367 1.8121,-4.34553 1.8122,-4.37892 1.8121,-4.41388 1.8122,-4.45046 1.054,0.54468 1.054,0.54798 -1.5902,3.93094 -1.5901,3.90169 -1.5902,3.87354 -1.5901,3.8465 -1.5902,3.82051" />
      <path
         inkscape:connector-curvature="0"
         id="path3134"
         style="font-size:47.90039062px;fill:#0000ff"
         d="m 1524.2989,329.60635 -0.1794,-0.76171 -0.2243,-0.22901 -0.314,-0.12771 -0.65,0.10325 -0.7994,0.3757 -1.0237,0.78145 -1.0236,0.777 -1.641,1.65218 -1.4732,1.81535 -1.3053,1.97899 -1.1375,2.14351 -0.9219,2.25184 -0.6585,2.30605 -0.3951,2.36479 -0.1317,2.4284 0.063,1.05904 0.1885,0.77253 0.3143,0.48647 0.44,0.20028 0.7873,-0.0425 0.925,-0.29142 1.0627,-0.54234 1.2004,-0.79587 1.1225,-0.90634 0.8292,-0.87054 0.5358,-0.83286 0.2424,-0.79319 1.0299,-0.25388 1.0298,-0.25455 -0.4861,1.61889 -0.7407,1.49673 -0.9953,1.37244 -1.2497,1.24694 -1.3966,1.00953 -1.4356,0.66354 -1.4748,0.322 -1.5139,-0.015 -0.5981,-0.17662 -0.5505,-0.38169 -0.5028,-0.58604 -0.4551,-0.78986 -0.5032,-1.48223 -0.1677,-1.57993 0.065,-1.34048 0.1954,-1.41367 0.7814,-3.05338 1.3024,-3.36698 1.8233,-3.69784 1.1218,-1.95152 1.1144,-1.69259 1.1068,-1.43116 1.0994,-1.16718 1.0919,-0.90061 1.0844,-0.63137 1.0769,-0.35944 1.0694,-0.0848 0.64,0.11278 0.5546,0.27021 0.4694,0.42822 0.384,0.58656 0.2986,0.74497 0.2133,0.90317 0.1707,2.27894 -0.064,0.9477 -0.1931,0.93406 -0.3218,0.91931 -0.4505,0.90351 -1.2873,1.75599 -1.8023,1.68284 -1.5685,1.14591 -1.6884,1.00739 -1.8082,0.87059 -0.964,0.36858 -0.9641,0.36727 -0.9107,-2.33564 1.2975,-0.60966 1.2974,-0.613 1.2975,-0.61647 1.383,-0.88074 1.3831,-0.88686 1.6973,-1.50068 1.2124,-1.62179 0.4243,-0.85488 0.3031,-0.88319 0.1819,-0.91063 0.061,-0.93707 0,0" />
    </g>
    <g
       id="text3844"
       style="font-style:normal;font-variant:normal;font-weight:normal;font-stretch:normal;font-size:134.88522339px;line-height:125%;font-family:Surfboard;-inkscape-font-specification:Surfboard;text-align:start;letter-spacing:0px;word-spacing:0px;writing-mode:lr-tb;text-anchor:start;display:inline;fill:#0000ff;fill-opacity:1;stroke:none"
       transform="matrix(0,-1.0241006,0.97646658,0,228.56465,249.68919)">
      <path
         inkscape:connector-curvature="0"
         id="path3097"
         style="font-size:139.60670471px;fill:#0000ff"
         d="m -607.37442,2280.4614 0.21376,-4.7063 0.64126,-4.7976 1.06877,-4.883 1.49629,-4.963 1.92379,-5.0375 2.35131,-5.1066 2.77882,-5.171 3.20633,-5.2306 3.17124,-4.4473 3.17124,-4.4274 3.37228,-3.8902 3.37228,-3.8737 3.57333,-3.3423 3.57333,-3.3295 3.77437,-2.8045 3.77438,-2.7956 3.69859,-2.0485 3.69859,-2.0447 3.69942,-1.5144 3.69997,-1.1636 3.26348,-0.5909 3.26349,-0.5943 3.26921,-0.401 3.26921,-0.4053 3.26921,-0.4095 1.25684,6.2156 -3.44354,0.2886 -3.44353,0.2836 -3.44353,0.2785 -3.0723,0.5134 -3.07231,0.5105 -3.64724,1.0924 -3.68185,1.5498 -3.71644,2.0108 -3.75104,2.4759 -3.2723,2.6529 -3.27231,2.6608 -3.1152,3.2162 -3.11519,3.2273 -2.95809,3.7883 -2.95808,3.8027 -2.80098,4.3687 -2.80098,4.3862 -2.59555,4.9555 -2.59556,4.9753 -3.70793,9.4988 -1.29778,4.5766 -0.92698,4.4555 -0.55618,4.3301 -0.1854,4.2001 0.19631,3.634 0.58894,3.1672 0.98157,2.6975 1.3742,2.226 1.76682,1.7538 2.15946,1.2815 2.55208,0.8104 2.94471,0.3409 3.34811,-0.05 3.20419,-0.3809 3.06027,-0.7093 2.91635,-1.0354 2.77243,-1.3594 2.62851,-1.6818 2.48459,-2.0027 2.34066,-2.3225 2.64359,-3.2805 3.18469,-4.8024 3.99632,-7.0732 3.99633,-7.0383 2.79273,1.7519 2.79273,1.7433 -2.52593,4.2719 -2.52594,4.2846 -4.40639,6.9153 -3.7609,5.2538 -3.11544,3.5743 -2.7285,2.4905 -2.88121,2.1503 -3.03392,1.8085 -3.18662,1.4649 -3.33933,1.1193 -3.49204,0.7713 -3.64475,0.4206 -3.79746,0.067 -4.38548,-0.5413 -3.80046,-1.3594 -3.21545,-2.183 -2.63043,-3.0095 -2.04568,-3.6639 -1.46121,-4.1424 -0.87672,-4.6159 -0.29224,-5.0825 0,0" />
      <path
         inkscape:connector-curvature="0"
         id="path3099"
         style="font-size:139.60670471px;fill:#0000ff"
         d="m -510.61941,2254.5946 -4.81645,12.513 -4.81645,12.5686 -4.81644,12.6281 -4.81645,12.6918 -2.93119,-1.3663 -2.9312,-1.3723 4.86666,-12.7684 4.86666,-12.7009 4.86666,-12.6377 4.86666,-12.5785 4.86666,-12.5234 4.86666,-12.4724 4.86666,-12.4253 -4.15395,0.7627 -4.15394,0.7571 -4.15395,0.7516 -4.15395,0.7462 -1.81495,-6.1847 4.71207,-0.9807 4.71207,-0.9874 4.71206,-0.9945 4.71207,-1.0017 3.42044,-0.5125 3.42043,-0.5172 3.42044,-0.5219 4.55386,-0.2879 4.31003,0.044 4.2748,0.5811 4.03091,1.3017 3.78703,2.0214 3.54314,2.7406 2.99346,3.2725 2.1382,3.6205 1.28294,3.9735 0.42769,4.3306 -0.53233,5.7637 -0.66538,2.6592 -0.93151,2.5114 -1.19765,2.3636 -1.46379,2.2159 -3.72599,3.9883 -3.69066,2.4713 -4.51078,2.2348 -2.66544,0.9982 -2.66544,0.9976 -3.0755,0.8772 -3.0755,0.8761 -4.35589,0.7347 -4.35589,0.7311 -4.35589,0.7275 -4.3559,0.7241 -4.35589,0.7208 -0.97991,-4.0667 m 44.53457,-27.7408 -0.34035,-3.4811 -1.02092,-3.1009 -1.70151,-2.7232 -2.38208,-2.3485 -2.5209,-1.5302 -2.95704,-1.1479 -3.39318,-0.767 -3.82931,-0.3875 -3.45634,0.3619 -3.36947,0.6286 -3.36947,0.6244 -3.83867,9.7249 -3.83867,9.751 -3.83868,9.779 -3.83867,9.809 4.57254,-0.6696 4.57254,-0.6741 4.57253,-0.6788 4.57254,-0.6836 2.72162,-0.608 2.72161,-0.6093 4.74561,-1.5127 4.04798,-1.8043 3.35035,-2.0934 3.4203,-3.1252 2.4431,-3.6848 1.46587,-4.2441 0.48867,-4.8046 0,0" />
      <path
         inkscape:connector-curvature="0"
         id="path3101"
         style="font-size:139.60670471px;fill:#0000ff"
         d="m -476.75729,2302.9931 4.76177,-10.648 4.76177,-10.6187 4.76178,-10.5923 4.76177,-10.5691 4.76177,-10.5488 4.76177,-10.5316 4.76177,-10.5172 4.76178,-10.5059 4.76177,-10.4974 2.86303,1.1153 2.86303,1.1098 -3.87382,8.7101 -3.87383,8.7141 -3.87382,8.7198 -3.87382,8.727 4.60686,-2.7809 4.60687,-2.7842 4.60687,-2.7882 4.60687,-2.7928 4.60686,-2.7983 4.60687,-2.8043 4.60687,-2.8112 4.60686,-2.8188 4.60687,-2.8271 4.60687,-2.836 4.60686,-2.8458 4.60687,-2.8563 4.60687,-2.8674 3.48931,5.2895 -4.87528,3.016 -4.87527,3.0037 -4.87528,2.992 -4.87527,2.9814 -4.87528,2.9716 -4.87527,2.9627 -4.87528,2.9545 -4.87527,2.9473 -4.87528,2.9408 -4.87527,2.9353 -4.87528,2.9305 -4.87527,2.9267 -4.87528,2.9235 3.64281,9.2727 4.01801,9.0143 4.39319,8.7551 4.76838,8.4955 2.57179,4.1202 2.57178,4.116 2.75938,3.9907 2.75939,3.987 2.94698,3.8618 2.94697,3.8587 3.13458,3.734 3.13457,3.7314 -4.60982,3.9079 -3.15384,-3.7627 -3.15385,-3.7656 -2.9707,-3.8797 -2.97071,-3.8832 -2.78758,-3.9978 -2.78757,-4.0018 -2.60444,-4.1167 -2.60444,-4.1213 -4.84261,-8.477 -4.47634,-8.7164 -4.11006,-8.9555 -3.7438,-9.1936 -4.46752,9.7873 -4.46752,9.8037 -4.46751,9.8226 -4.46752,9.8439 -4.46751,9.8677 -2.7906,-1.1636 -2.7906,-1.1669" />
      <path
         inkscape:connector-curvature="0"
         id="path3103"
         style="font-size:139.60670471px;fill:#0000ff"
         d="m -377.96577,2270.565 3.30433,0.15 3.30433,0.1471 3.30434,0.144 4.39734,0.7045 4.39734,0.6998 -1.39743,6.162 -3.59442,-0.4638 -3.59441,-0.4665 -3.59442,-0.4695 -3.75132,-0.2278 -3.75132,-0.2312 -3.64749,0.2184 -3.6475,0.2149 -4.24074,0.6302 -4.24075,0.6258 -0.83931,-6.1448 4.39838,-0.6246 4.39839,-0.6298 4.39733,-0.2166 4.39733,-0.2221 0,0" />
      <path
         inkscape:connector-curvature="0"
         id="path3105"
         style="font-size:139.60670471px;fill:#0000ff"
         d="m -315.66083,2256.1033 -4.81645,12.5616 -4.81644,12.5204 -4.81645,12.4831 -4.81645,12.4493 -2.93119,-1.2406 -2.9312,-1.2402 4.86666,-12.4773 4.86666,-12.5089 4.86666,-12.5441 4.86667,-12.5832 4.86666,-12.626 4.86666,-12.6725 4.86666,-12.723 -4.15395,1.1617 -4.15395,1.1499 -4.15394,1.1386 -4.15395,1.1275 -1.81496,-5.8553 4.71206,-1.4318 4.71207,-1.447 4.71207,-1.4626 4.71207,-1.4788 3.42044,-0.8661 3.42044,-0.8744 3.42044,-0.8829 4.55385,-0.7738 4.31003,-0.4181 4.27479,0.1259 4.03092,0.8832 3.78702,1.646 3.54315,2.4141 2.99345,3.027 2.13821,3.482 1.28294,3.937 0.4277,4.3894 -0.53234,5.9423 -0.66538,2.7756 -0.93151,2.6436 -1.19765,2.5104 -1.46379,2.3761 -3.72599,4.3449 -3.69066,2.7804 -4.51078,2.584 -2.66544,1.1939 -2.66544,1.1886 -3.0755,1.091 -3.0755,1.085 -4.3559,1.0243 -4.35589,1.0144 -4.35589,1.005 -4.35589,0.9958 -4.35589,0.9867 -0.97991,-3.9321 m 44.53458,-31.2378 -0.34035,-3.5108 -1.02093,-3.0563 -1.70151,-2.6004 -2.38208,-2.145 -2.5209,-1.2948 -2.95704,-0.8588 -3.39317,-0.4261 -3.82932,0 -3.45634,0.715 -3.36947,0.9693 -3.36946,0.961 -3.83868,10.0301 -3.83867,9.9957 -3.83868,9.9634 -3.83867,9.9328 4.57254,-0.9738 4.57253,-0.9841 4.57254,-0.9946 4.57254,-1.0054 2.72162,-0.8023 2.72161,-0.8067 4.74561,-1.8668 4.04798,-2.1211 3.35036,-2.372 3.4203,-3.4362 2.44309,-3.9416 1.46588,-4.4406 0.48867,-4.9324 0,0" />
      <path
         inkscape:connector-curvature="0"
         id="path3107"
         style="font-size:139.60670471px;fill:#0000ff"
         d="m -276.35385,2284.5089 0.21375,-4.399 0.64127,-4.5248 1.06877,-4.6535 1.49629,-4.7859 1.92379,-4.9221 2.35131,-5.0628 2.77882,-5.2086 3.20633,-5.3601 3.17124,-4.6545 3.17124,-4.6746 3.37228,-4.2271 3.37228,-4.2484 3.57333,-3.8017 3.57333,-3.8241 3.77437,-3.3782 3.77438,-3.4014 3.69859,-2.6792 3.69859,-2.6996 3.69942,-2.1928 3.69997,-1.8589 3.26349,-1.2123 3.26348,-1.2239 3.26921,-1.0364 3.26921,-1.0477 3.26921,-1.059 1.25684,6.1674 -3.44354,0.9401 -3.44353,0.9286 -3.44353,0.9174 -3.0723,1.0818 -3.0723,1.0718 -3.64725,1.7515 -3.68184,2.1998 -3.71645,2.6445 -3.75103,3.0859 -3.27231,3.1535 -3.27231,3.1354 -3.1152,3.6266 -3.11519,3.6085 -2.95809,4.0993 -2.95808,4.0815 -2.80098,4.572 -2.80097,4.5546 -2.59556,5.0384 -2.59556,5.0221 -3.70793,9.3692 -1.29777,4.4358 -0.92699,4.2745 -0.55618,4.116 -0.1854,3.9603 0.19632,3.4 0.58893,2.9375 0.98157,2.4762 1.3742,2.0154 1.76683,1.5547 2.15945,1.0933 2.55208,0.6307 2.94471,0.1662 3.34812,-0.2287 3.20419,-0.5413 3.06026,-0.8555 2.91635,-1.171 2.77243,-1.4877 2.62851,-1.8056 2.48459,-2.1246 2.34066,-2.4445 2.64359,-3.4305 3.18468,-5.0115 3.99633,-7.3974 3.99633,-7.4429 2.79273,1.4872 2.79273,1.4909 -2.52593,4.5596 -2.52594,4.5412 -4.40639,7.2884 -3.7609,5.5065 -3.11544,3.7483 -2.7285,2.6252 -2.88121,2.2795 -3.03392,1.9351 -3.18662,1.5921 -3.33933,1.2507 -3.49204,0.911 -3.64475,0.5729 -3.79746,0.2368 -4.38548,-0.3156 -3.80046,-1.1103 -3.21545,-1.9006 -2.63043,-2.6881 -2.04568,-3.313 -1.46121,-3.7769 -0.87672,-4.2426 -0.29224,-4.711 0,0" />
      <path
         inkscape:connector-curvature="0"
         id="path3109"
         style="font-size:139.60670471px;fill:#0000ff"
         d="m -160.89114,2195.516 -4.7813,12.764 -4.7813,12.6332 -4.7813,12.5078 -4.7813,12.3873 -4.7813,12.2718 -4.7813,12.1612 -4.7813,12.0553 -4.7813,11.9538 4.18803,-0.4191 4.18804,-0.4252 4.18803,-0.4316 4.18803,-0.438 4.15287,-0.022 4.15287,-0.025 4.15287,-0.029 4.17632,0.2769 4.17632,0.2759 4.17633,0.2749 -0.55812,6.909 -3.79181,-0.2158 -3.79181,-0.2164 -3.7918,-0.217 -4.86261,0.027 -4.8626,0.023 -4.8626,0.019 -4.74723,0.3915 -4.74722,0.3847 -4.32755,0.8172 -4.32755,0.8084 -0.83931,2.1285 -2.7906,-1.4229 -4.60982,1.3231 -1.53376,-6.5176 2.44337,-0.6747 2.44337,-0.6782 4.48295,-11.0183 4.48295,-11.1019 4.48294,-11.1891 4.48295,-11.2801 4.48295,-11.3748 4.48295,-11.4734 4.48295,-11.5759 4.48295,-11.6827 4.48295,-11.7935 2.8609,0.9138 2.8609,0.9141" />
    </g>
    <g
       id="text3844-1"
       style="font-style:normal;font-variant:normal;font-weight:normal;font-stretch:normal;font-size:134.88522339px;line-height:125%;font-family:Surfboard;-inkscape-font-specification:Surfboard;text-align:start;letter-spacing:0px;word-spacing:0px;writing-mode:lr-tb;text-anchor:start;display:inline;fill:#0000ff;fill-opacity:1;stroke:none"
       transform="matrix(0,-1.0241006,0.97646658,0,228.56465,249.68919)">
      <path
         inkscape:connector-curvature="0"
         id="path3088"
         style="font-size:139.60670471px;fill:#0000ff"
         d="m -439.8468,2367.8934 2.09264,0.1636 1.95367,0.5152 1.8147,0.8665 1.67574,1.2173 1.40537,1.49 1.00385,1.6842 0.60234,1.8787 0.20083,2.0733 -0.43853,3.6191 -1.3155,4.0682 -2.19249,4.5202 -3.06946,4.9759 -3.94644,5.4373 -4.82343,5.9058 -2.8502,3.1888 -2.8502,3.1954 -3.2887,3.433 -3.28869,3.4422 -4.81594,4.7381 -4.81594,4.7595 -3.30362,3.058 -3.30361,3.0688 -3.30362,3.0798 -3.44353,3.0022 -3.44352,3.0145 -3.44352,3.0276 -3.63026,2.9908 -3.63026,3.0057 -3.63025,3.0211 4.29348,-0.7527 4.29347,-0.7413 4.29348,-0.7301 4.29348,-0.7192 3.58304,-0.3843 3.58304,-0.3774 3.58304,-0.3707 4.46752,-0.159 4.46752,-0.1494 4.46752,-0.14 4.46752,-0.1305 4.46751,-0.1212 0,6.1843 -3.36657,0.1658 -3.36657,0.1714 -3.36657,0.1772 -3.49172,0.3284 -3.49171,0.3349 -3.49172,0.3415 -3.61686,0.4947 -3.61686,0.5023 -3.61685,0.51 -3.74201,0.6656 -3.742,0.6744 -3.74201,0.6834 -3.8874,0.8487 -3.88741,0.8593 -3.8874,0.8698 -4.05303,1.046 -4.05302,1.0585 -4.05303,1.0713 -4.21865,1.2521 -4.21865,1.2671 -4.21865,1.2824 -4.38428,1.4687 -4.38428,1.4866 -4.38428,1.5052 3.71918,-2.57 3.71918,-2.5509 3.71918,-2.5324 3.71918,-2.5143 3.79334,-2.7819 3.79334,-2.7633 3.79333,-2.7453 3.79334,-2.7277 3.8675,-2.9928 3.8675,-2.975 3.86749,-2.9578 3.8675,-2.9412 3.94166,-3.2044 3.94166,-3.1876 3.94165,-3.1717 3.94166,-3.1563 3.44664,-2.9189 3.44664,-2.9077 3.44663,-2.8969 4.48063,-4.0565 4.48063,-4.0392 3.79131,-3.7571 3.7913,-3.7454 3.10198,-3.4716 3.10197,-3.464 4.82531,-6.3879 3.44665,-5.854 2.06801,-5.3298 0.51701,-2.4706 0.17234,-2.3418 -0.35792,-1.837 -1.07366,-1.3071 -1.78937,-0.777 -2.50511,-0.2462 -4.10845,0.6001 -4.37097,1.7478 -4.63351,2.9002 -2.44801,2.0274 -2.44802,2.0311 -3.80435,3.6979 -3.59503,3.9524 -3.38573,4.207 -3.17641,4.4618 -3.00149,0.1322 -3.00149,0.1347 3.4829,-5.3502 3.88339,-5.1286 4.2839,-4.9059 4.6844,-4.6822 2.96686,-2.4385 2.96686,-2.4331 2.82734,-1.7409 2.82734,-1.7373 2.68782,-1.0479 2.68783,-1.0456 2.58318,-0.5297 2.51343,-0.186 0,0" />
      <path
         inkscape:connector-curvature="0"
         id="path3090"
         style="font-size:139.60670471px;fill:#0000ff"
         d="m -429.37033,2434.0738 0.25736,-6.0506 0.77207,-5.9692 1.28679,-5.886 1.8015,-5.801 2.31623,-5.7143 2.83094,-5.6257 3.34566,-5.5356 3.86038,-5.4443 4.55755,-5.4536 4.73635,-4.7222 2.45759,-1.9968 2.45758,-1.9954 2.54699,-1.6322 2.54698,-1.6311 2.63639,-1.2681 2.6364,-1.2672 2.72579,-0.9042 2.7258,-0.9035 2.8152,-0.5405 2.8152,-0.5398 2.90461,-0.1767 2.90461,-0.1758 2.82,0.2441 2.82001,0.2451 2.59767,0.7216 2.59768,0.7228 4.75069,2.401 4.30603,3.3586 3.57314,4.1055 2.55227,4.6387 1.53138,5.1694 0.51051,5.6969 -0.50611,7.562 -1.51821,7.8196 -2.53029,8.0743 -3.54239,8.3271 -4.3541,8.0753 -2.48259,3.661 -2.48259,3.6611 -2.78813,3.2865 -2.78813,3.2878 -3.09367,2.9153 -3.09367,2.918 -3.57707,2.8215 -3.61195,2.4466 -3.64682,2.0722 -3.6817,1.6986 -3.71659,1.3255 -3.75145,0.9528 -3.78634,0.5806 -3.82122,0.2084 -3.07193,-0.2504 -3.07193,-0.2456 -2.81011,-0.65 -2.63556,-0.9191 -2.46101,-1.1893 -2.28647,-1.4602 -2.11192,-1.732 -1.93737,-2.0045 -2.99164,-4.3359 -2.13689,-4.9968 -1.28213,-5.6592 -0.42737,-6.3211 0,0 m 6.83803,-0.5114 0.27053,4.8491 0.81162,4.3347 1.3527,3.8203 1.89378,3.3064 2.79272,3.2089 3.35084,2.279 3.90898,1.3525 4.4671,0.4301 2.53806,-0.1834 2.53806,-0.1803 2.48354,-0.5152 2.48355,-0.5122 4.85804,-1.692 4.74901,-2.3578 4.63997,-3.0249 4.53094,-3.6941 4.4219,-4.365 4.31287,-5.0382 3.76249,-5.1067 3.26083,-5.1245 2.75917,-5.1439 2.25751,-5.164 1.75585,-5.1846 1.25418,-5.2049 0.75252,-5.2247 0.25086,-5.2434 -0.33595,-4.647 -1.00775,-4.275 -1.67954,-3.9016 -2.35133,-3.5268 -2.94468,-2.9228 -3.45937,-2.091 -3.97407,-1.2595 -4.48875,-0.4282 -2.62878,0.1562 -2.62877,0.157 -2.54583,0.4831 -2.54583,0.4838 -2.46288,0.8097 -2.46288,0.8104 -4.75987,2.2732 -4.59396,2.9265 -4.42808,3.5802 -4.26218,4.2345 -4.09628,4.8898 -3.46895,4.9112 -3.00642,4.997 -2.5439,5.0817 -2.08137,5.1653 -1.61884,5.2476 -1.15631,5.3286 -0.69379,5.4082 -0.23126,5.4867 0,0" />
      <path
         inkscape:connector-curvature="0"
         id="path3092"
         style="font-size:139.60670471px;fill:#0000ff"
         d="m -281.42165,2340.996 -4.71171,10.3684 -4.71171,10.3278 -4.71172,10.2901 -4.71171,10.2554 -4.71171,10.2236 -4.71171,10.1948 -4.71172,10.1689 -4.71171,10.1457 -4.71171,10.1255 -4.71171,10.108 -4.71172,10.0934 -4.71171,10.0815 -2.79273,-1.3332 -2.79273,-1.3278 4.46763,-9.6291 4.46762,-9.6381 4.46762,-9.6494 4.46763,-9.6631 4.46762,-9.6792 4.46763,-9.6977 4.46762,-9.7187 4.46762,-9.7421 -3.09776,2.408 -3.09776,2.405 -3.21998,2.2148 -3.21998,2.2127 -3.34219,2.0239 -3.34219,2.0228 -3.46441,1.8352 -3.46442,1.835 -2.65,-5.6547 4.00483,-1.9615 4.00482,-1.9618 3.91749,-2.5443 3.91748,-2.5465 3.83016,-3.1326 3.83015,-3.1372 3.74282,-3.727 3.74282,-3.7341 4.45002,-5.0199 2.7661,-3.3978 2.7661,-3.4041 4.77031,-6.3229 4.77031,-6.3463 4.7703,-6.3714 0,0" />
      <path
         inkscape:connector-curvature="0"
         id="path3094"
         style="font-size:139.60670471px;fill:#0000ff"
         d="m -216.16847,2364.1134 -4.49285,3.0164 -4.49284,2.9993 -4.49285,2.9832 -4.49285,2.968 -4.49285,2.9536 -4.49284,2.94 -4.49285,2.9273 -4.49285,2.9155 -4.49284,2.9044 -4.49285,2.8942 -4.49285,2.8847 4.60981,-0.1471 3.3503,0.3126 3.35029,0.3164 2.93175,0.7238 2.93175,0.7284 2.65263,1.0918 2.51313,1.4108 2.37362,1.7307 2.23412,2.0515 2.06097,2.2739 1.78617,2.4656 1.51139,2.6563 1.23659,2.8459 0.9618,3.034 0.68701,3.2208 0.54965,6.9946 -0.3163,4.6339 -0.94883,4.4019 -1.58138,4.1654 -2.21391,3.926 -2.84644,3.6845 -3.47899,3.4428 -4.11152,3.2019 -4.74407,2.9635 -4.42843,2.2457 -4.48953,1.901 -4.55064,1.5595 -4.61175,1.2212 -4.67285,0.8859 -4.73396,0.5535 -4.79507,0.2241 -4.85618,-0.1028 -2.63393,-0.2513 -2.63393,-0.2472 -4.70508,-0.8944 -4.1423,-1.2932 -3.57952,-1.6946 -3.01673,-2.0988 -2.45396,-2.5058 -1.89117,-2.9153 -1.3284,-3.3272 3.21026,-0.5206 3.21025,-0.5171 0.46252,2.4152 1.38758,2.1529 2.31263,1.8941 3.23769,1.6397 2.79219,0.8192 2.79219,0.8246 2.93173,0.3744 2.93174,0.3795 4.21438,-0.065 4.21438,-0.056 4.19682,-0.6223 4.19681,-0.6161 4.17924,-1.1871 4.17925,-1.1837 4.16168,-1.7602 4.16168,-1.76 4.54835,-2.5393 3.94191,-2.7382 3.33546,-2.9393 2.72902,-3.1412 2.12257,-3.3432 1.51614,-3.5439 0.90969,-3.7423 0.30325,-3.9372 -0.46683,-5.081 -1.40037,-4.6767 -2.33392,-4.2638 -3.26746,-3.8436 -3.91327,-3.1958 -4.27112,-2.3274 -4.62898,-1.4636 -2.49341,-0.3034 -2.49342,-0.3011 -2.72204,0.052 -2.72205,0.054 -2.86183,0.3388 -2.86184,0.34 -3.00162,0.6236 -3.00162,0.6243 -3.14141,0.9066 -3.14141,0.9067 -4.49478,1.6102 -4.49478,1.6097 -4.49479,1.6098 -4.49478,1.6101 -4.49479,1.611 4.8761,-3.0721 4.87609,-3.0759 4.8761,-3.0808 4.87609,-3.0866 4.8761,-3.0933 4.87609,-3.1009 4.8761,-3.1096 4.87609,-3.1192 4.8761,-3.1297 4.87609,-3.1413 4.8761,-3.154 4.87609,-3.1675 4.8761,-3.1822 4.87609,-3.1979 -4.74668,0.034 -4.74668,0.036 -4.74669,0.039 -4.74668,0.042 -4.74669,0.044 -4.74668,0.047 -4.74668,0.05 -4.74669,0.053 0,-6.3094 4.6285,-0.075 4.6285,-0.073 4.62849,-0.071 4.6285,-0.069 4.6285,-0.068 4.62849,-0.066 4.6285,-0.064 4.6285,-0.062 4.62849,-0.06 4.6285,-0.058 4.6285,-0.056 4.6285,-0.054 4.62849,-0.053" />
    </g>
  </g>
  <g
     style="display:inline"
     inkscape:label="2 - drawing"
     id="layer3"
     inkscape:groupmode="layer">
    <g
       transform="matrix(3.5542344,0,0,2.9342025,-3327.2151,-486.34695)"
       style="font-style:normal;font-variant:normal;font-weight:normal;font-stretch:normal;font-size:40px;line-height:125%;font-family:Surfboard;-inkscape-font-specification:Surfboard;text-align:start;letter-spacing:0px;word-spacing:0px;writing-mode:lr-tb;text-anchor:start;display:inline;fill:#ff0000;fill-opacity:1;stroke:none"
       id="flowRoot3795-1">
      <path
         d="m 1299.9662,342.30659 0.065,-1.61278 0.1957,-1.67405 0.3261,-1.73179 0.4566,-1.78575 0.5871,-1.83574 0.7175,-1.88159 0.848,-1.92321 0.9784,-1.96057 0.9677,-1.68479 0.9677,-1.66895 1.029,-1.49091 1.0291,-1.47641 1.0904,-1.30037 1.0904,-1.28736 1.1517,-1.1136 1.1518,-1.1022 1.1286,-0.84315 1.1286,-0.83491 1.129,-0.59512 1.129,-0.58939 0.9958,-0.32092 0.9959,-0.31815 0.9976,-0.25126 0.9976,-0.2491 0.9976,-0.247 0.3835,1.98792 -1.0508,0.21549 -1.0508,0.21758 -1.0508,0.21974 -0.9375,0.28637 -0.9375,0.2888 -1.113,0.50766 -1.1235,0.66573 -1.1341,0.82611 -1.1446,0.98892 -0.9985,1.03287 -0.9986,1.04212 -0.9506,1.22601 -0.9506,1.23671 -0.9027,1.42285 -0.9026,1.43491 -0.8548,1.62309 -0.8547,1.63642 -0.792,1.82294 -0.7921,1.83711 -0.6223,1.75108 -0.5091,1.69381 -0.396,1.63319 -0.2829,1.56943 -0.1697,1.5027 -0.057,1.43327 0.06,1.21456 0.1797,1.02797 0.2996,0.84023 0.4193,0.65206 0.5392,0.46422 0.6589,0.27742 0.7788,0.0924 0.8986,-0.0902 0.9997,-0.29566 0.9997,-0.29104 0.9119,-0.48746 0.9119,-0.48199 0.846,-0.62678 0.8021,-0.7209 0.7582,-0.81476 0.7142,-0.90841 0.8067,-1.23917 0.9718,-1.76688 1.2194,-2.55051 1.2195,-2.5242 0.8522,0.43977 0.8522,0.43799 -0.7708,1.52824 -0.7708,1.538 -1.3446,2.51208 -1.1476,1.94288 -0.9507,1.36063 -0.8326,0.98542 -0.8792,0.88677 -0.9258,0.78788 -0.9724,0.68867 -1.019,0.58899 -1.0656,0.48873 -1.1122,0.38774 -1.1588,0.28587 -1.3382,0.12999 -1.1597,-0.18143 -0.9812,-0.49886 -0.8027,-0.82069 -0.6242,-1.08652 -0.4459,-1.29397 -0.2675,-1.49986 -0.089,-1.70291 0,0"
         style="font-size:42.60101318px;fill:#ff0000"
         id="path3171"
         inkscape:connector-curvature="0" />
      <path
         d="m 1324.3362,346.07854 -0.9037,0.0243 -0.7946,-0.18828 -0.6855,-0.40295 -0.5765,-0.61914 -0.4568,-0.77798 -0.3262,-0.87846 -0.1958,-0.97831 -0.065,-1.07715 0.051,-1.25828 0.1537,-1.30588 0.2563,-1.3519 0.3587,-1.39619 1.0251,-2.91784 0.7176,-1.54011 0.7175,-1.53188 0.9219,-1.65772 0.9339,-1.43707 0.9458,-1.21842 0.9579,-1.00176 0.9698,-0.78708 0.9818,-0.57433 0.9938,-0.3635 1.0058,-0.15453 0.9175,0.0525 0.8349,0.25243 0.7522,0.45094 0.6696,0.64838 0.5497,0.78703 0.3926,0.86771 0.2357,0.94907 0.079,1.0314 -0.051,1.24143 -0.1517,1.25998 -0.2529,1.27963 -0.3541,1.30049 -0.4659,1.34641 -0.5883,1.4178 -0.772,1.52562 -0.772,1.53324 -0.9547,1.60865 -0.968,1.41785 -0.9813,1.22581 -0.9946,1.03246 -1.0079,0.83766 -1.0212,0.64129 -1.0344,0.44326 -1.0477,0.24339 0,0 m -2.1295,-5.22717 0.1172,1.18106 0.3514,1.16166 0.2663,0.49529 0.3303,0.33494 0.3942,0.17501 0.4582,0.0158 0.8586,-0.20616 0.8506,-0.39367 0.8425,-0.57974 0.8346,-0.76441 0.8266,-0.9478 0.8186,-1.12995 0.8106,-1.31096 0.8026,-1.49087 1.2678,-2.75664 0.9056,-2.54023 0.5434,-2.33509 0.1358,-1.0935 0.045,-1.04542 -0.1332,-1.27801 -0.1665,-0.49583 -0.233,-0.40057 -0.2997,-0.30531 -0.3662,-0.20993 -0.9323,-0.1326 -0.8378,0.13862 -0.8312,0.32242 -0.8246,0.50762 -0.818,0.69421 -0.8114,0.88224 -0.8047,1.07172 -0.7981,1.26269 -0.7915,1.45515 -1.2303,2.6648 -0.8787,2.5154 -0.5273,2.35457 -0.1318,1.11372 -0.044,1.0698 0,0"
         style="font-size:42.60101318px;fill:#ff0000"
         id="path3173"
         inkscape:connector-curvature="0" />
      <path
         d="m 1351.8446,321.56558 1.0647,1.68372 -1.2355,0.87826 -1.2354,0.88364 -1.2355,0.88923 -1.2355,0.89506 -1.2354,0.90114 -1.1609,0.91964 -1.1609,0.92577 -0.9052,0.78614 -0.9053,0.79036 -0.7938,0.76007 -0.7937,0.76372 -1.3759,1.4744 -1.1641,1.42142 -0.9526,1.36495 -0.7408,1.30511 -0.5292,1.24212 -0.3175,1.17628 -0.1058,1.10798 0.2132,0.89139 0.5968,0.25974 0.6095,-0.15042 0.764,-0.3454 0.9955,-0.63571 0.9956,-0.6308 0.7803,-0.59712 0.7802,-0.59384 0.7217,-0.63093 0.7216,-0.62795 1.3259,-1.32834 1.2086,-1.39928 0.884,-1.24723 0.8841,-1.24147 0.9055,-1.56994 0.9055,-1.56317 1.1215,-2.20293 1.1216,-2.19215 1.1215,-2.18182 0.8099,0.45661 0.81,0.4559 -0.9586,1.97849 -0.9586,1.9861 -0.916,2.24 -0.9159,2.24866 -0.8733,2.50395 -0.8733,2.51361 -0.8306,2.77018 -0.8306,2.78076 -0.9374,-0.19263 -0.9373,-0.19178 0.8307,-2.82979 0.8308,-2.81859 -1.366,1.51523 -1.3286,1.3342 -1.2914,1.15133 -1.254,0.96657 -1.2168,0.77989 -1.1794,0.59126 -1.1422,0.40067 -1.1048,0.20815 -0.5889,-0.0106 -0.5302,-0.15895 -0.4715,-0.30806 -0.4129,-0.45775 -0.3822,-0.69274 -0.2242,-0.75618 -0.075,-0.86431 0.1065,-1.26601 0.3195,-1.32061 0.5325,-1.37243 0.7456,-1.42114 0.9585,-1.46652 1.1716,-1.50839 1.3845,-1.54668 0.7988,-0.79261 0.7988,-0.78874 0.8174,-0.71306 0.8175,-0.70955 1.1743,-0.93107 1.1743,-0.92469 1.376,-1.01888 1.376,-1.01114 1.376,-1.00373 1.376,-0.99666 1.376,-0.98992 0,0"
         style="font-size:42.60101318px;fill:#ff0000"
         id="path3175"
         inkscape:connector-curvature="0" />
      <path
         d="m 1352.9692,339.63985 0.091,0.74431 0.2715,0.51872 0.4526,0.29323 0.6336,0.0684 0.7986,-0.14602 0.7986,-0.14454 0.8629,-0.34314 0.8629,-0.34095 0.9396,-0.53302 0.6894,-0.57248 0.4391,-0.61334 0.1889,-0.65531 0.9159,0.28433 0.9159,0.28495 -0.4602,0.87295 -0.6148,0.80829 -0.7695,0.74452 -0.924,0.68167 -1.0014,0.57755 -1.0012,0.43105 -1.0012,0.28394 -1.0011,0.13616 -0.8986,3.3e-4 -0.7788,-0.11856 -0.6589,-0.23837 -0.5392,-0.35889 -0.4193,-0.4799 -0.2996,-0.60115 -0.1797,-0.72239 -0.06,-0.84339 0.1385,-1.31415 0.4154,-1.56073 0.6923,-1.80387 0.9692,-2.0427 1.1529,-2.0917 1.2434,-1.95406 1.334,-1.81645 0.7122,-0.84065 0.7123,-0.83833 0.7787,-0.77417 0.7787,-0.77188 0.7175,-0.55387 0.7175,-0.55234 1.3127,-0.6703 1.1903,-0.23749 0.649,0.0341 0.5625,0.12911 0.476,0.2238 0.3894,0.31832 0.3029,0.41274 0.2163,0.50711 0.1298,0.60152 0.043,0.69602 -0.088,1.35668 -0.2636,1.26947 -0.4392,1.18304 -0.6148,1.09748 -0.81,-0.51744 -0.8099,-0.51767 0.9907,-2.58633 0.2476,-0.90441 0.083,-0.64655 -0.1063,-0.59163 -0.1328,-0.15659 -0.186,-0.0637 -0.7404,0.11313 -0.7936,0.30977 -0.8468,0.5072 -0.9,0.70554 -0.9533,0.90494 -1.0064,1.1056 -1.0863,1.40661 -1.0863,1.4125 -0.9504,1.45662 -0.9505,1.46219 -1.3578,2.56263 -0.4752,1.14399 -0.3394,1.05069 -0.2036,0.95627 -0.068,0.86096 0,0"
         style="font-size:42.60101318px;fill:#ff0000"
         id="path3177"
         inkscape:connector-curvature="0" />
      <path
         d="m 1371.2405,332.36124 0.7484,-0.88897 0.7484,-0.88719 0.8183,-0.87334 0.8183,-0.87152 0.8882,-0.85742 0.8882,-0.85558 0.9581,-0.8413 0.9582,-0.83948 1.028,-0.82506 1.0281,-0.8233 1.0979,-0.80878 1.098,-0.80714 1.1679,-0.7926 1.1679,-0.79109 1.2378,-0.77658 1.2378,-0.77528 -1.3073,2.53563 -1.3073,2.53782 -1.2594,2.72951 -1.2594,2.7329 -1.2114,2.92573 -1.2114,2.93032 -1.1635,3.12423 -1.1635,3.12999 -0.9588,-0.25813 -0.9588,-0.25683 0.8946,-2.48872 0.8947,-2.48476 0.852,-2.20315 0.852,-2.20022 0.8202,-1.94645 0.8202,-1.94428 0.7991,-1.71792 0.799,-1.71632 -1.0986,0.81283 -1.0987,0.81464 -1.0487,0.89216 -1.0487,0.89419 -0.9988,0.97185 -0.9989,0.97409 -0.9489,1.05187 -0.9489,1.05432 -0.899,1.1322 -0.8989,1.13483 -0.8491,1.21279 -0.8491,1.21558 -0.7992,1.29357 -0.7992,1.29649 -0.7492,1.37446 -0.7493,1.37749 -0.8945,-0.35291 -0.8944,-0.35221 1.2861,-3.21655 1.286,-3.20514 1.0242,-2.37699 1.0242,-2.371 1.0241,-2.36538 1.191,-2.60394 1.1909,-2.59769 1.191,-2.592 1.3577,-2.8286 1.3578,-2.82291 1.3577,-2.818 0.8951,0.44638 0.8951,0.44627 -1.3328,2.83958 -1.3327,2.84384 -1.3328,2.84882 -1.3327,2.85458 -1.3328,2.86107 -1.3327,2.86833 -1.3328,2.87637"
         style="font-size:42.60101318px;fill:#ff0000"
         id="path3179"
         inkscape:connector-curvature="0" />
      <path
         d="m 1397.1498,335.58672 0.065,-1.30693 0.1957,-1.3388 0.3261,-1.3708 0.4566,-1.40293 0.5871,-1.43514 0.7175,-1.46746 0.8479,-1.49994 0.9784,-1.5326 0.9677,-1.31892 0.9677,-1.31987 1.0291,-1.17837 1.029,-1.17949 1.0904,-1.03796 1.0904,-1.03921 1.1518,-0.89757 1.1517,-0.89893 1.1286,-0.68384 1.1287,-0.68498 1.1289,-0.48041 1.129,-0.48125 0.9958,-0.25081 0.9959,-0.25113 0.9976,-0.19323 0.9976,-0.19344 0.9976,-0.1937 0.3835,1.8358 -1.0508,0.15403 -1.0508,0.154 -1.0507,0.15398 -0.9376,0.21691 -0.9375,0.21674 -1.1129,0.40085 -1.1235,0.53516 -1.1341,0.66902 -1.1446,0.80249 -0.9986,0.8399 -0.9985,0.83881 -0.9507,0.99143 -0.9506,0.99034 -0.9026,1.14275 -0.9027,1.14169 -0.8547,1.29397 -0.8547,1.29301 -0.792,1.44401 -0.7921,1.44316 -0.6223,1.38075 -0.5091,1.33911 -0.396,1.29759 -0.2829,1.25622 -0.1697,1.21498 -0.057,1.17388 0.06,1.01232 0.1797,0.87958 0.2996,0.74707 0.4193,0.61482 0.5391,0.48287 0.659,0.35122 0.7787,0.21992 0.8986,0.089 0.9997,-0.0669 0.9997,-0.0653 0.9119,-0.2514 0.9119,-0.25039 0.846,-0.39053 0.8021,-0.48415 0.7582,-0.57816 0.7142,-0.67251 0.8067,-0.95321 0.9719,-1.40137 1.2194,-2.07539 1.2195,-2.07946 0.8522,0.50478 0.8522,0.50683 -0.7708,1.26608 -0.7708,1.26434 -1.3446,2.02892 -1.1476,1.5308 -0.9507,1.03501 -0.8326,0.71709 -0.8792,0.61579 -0.9258,0.51495 -0.9724,0.4146 -1.019,0.31477 -1.0656,0.21547 -1.1122,0.11672 -1.1588,0.0185 -1.3382,-0.14911 -1.1597,-0.3744 -0.9812,-0.60049 -0.8027,-0.82739 -0.6242,-1.00701 -0.4459,-1.13929 -0.2675,-1.2722 -0.089,-1.40559 0,0"
         style="font-size:42.60101318px;fill:#ff0000"
         id="path3181"
         inkscape:connector-curvature="0" />
      <path
         d="m 1424.9286,327.19351 0.8838,-0.83169 0.8839,-0.83365 0.9478,-0.73654 0.9478,-0.73844 1.0117,-0.64096 1.0117,-0.64275 1.0757,-0.54477 1.0757,-0.54638 0.7671,1.90864 -1.0742,0.54084 -1.0743,0.53932 -0.9651,0.59235 -0.9651,0.59084 -0.856,0.64375 -0.856,0.64229 -0.7468,0.69516 -0.7469,0.69378 -1.0573,1.23738 -1.0413,1.46553 -1.0252,1.69268 -1.0091,1.91896 -1.2355,2.63708 -1.2355,2.62901 -1.2355,2.62158 -0.873,-0.48239 -0.873,-0.47983 1.3774,-3.27307 1.3775,-3.28322 1.3774,-3.29434 1.3774,-3.30646 1.3775,-3.31959 1.3774,-3.33374 0.8522,0.40017 0.8522,0.40203 -0.8522,2.22139 -0.8522,2.21504"
         style="font-size:42.60101318px;fill:#ff0000"
         id="path3183"
         inkscape:connector-curvature="0" />
      <path
         d="m 1446.6984,322.40965 1.0648,1.86857 -1.2355,0.81345 -1.2354,0.8089 -1.2355,0.80458 -1.2355,0.8005 -1.2355,0.79663 -1.1609,0.81384 -1.1609,0.81039 -0.9052,0.6902 -0.9053,0.68804 -0.7938,0.66531 -0.7937,0.66354 -1.3759,1.28687 -1.1641,1.24643 -0.9526,1.20732 -0.7408,1.16946 -0.5292,1.13278 -0.3175,1.0973 -0.1058,1.06306 0.2132,0.90612 0.5968,0.35779 0.6095,-0.0409 0.764,-0.20668 0.9955,-0.45618 0.9956,-0.45652 0.7803,-0.46403 0.7803,-0.46471 0.7216,-0.51552 0.7216,-0.51648 1.3259,-1.13664 1.2086,-1.24236 0.884,-1.14802 0.8841,-1.15236 0.9055,-1.49971 0.9055,-1.50624 1.1215,-2.16326 1.1216,-2.17597 1.1215,-2.18923 0.8099,0.55912 0.81,0.56256 -0.9586,2.00312 -0.9586,1.99234 -0.9159,2.24562 -0.916,2.23451 -0.8733,2.4866 -0.8733,2.47533 -0.8306,2.7265 -0.8306,2.71521 -0.9374,-0.3729 -0.9373,-0.36937 0.8307,-2.74274 0.8308,-2.75371 -1.3659,1.33187 -1.3287,1.13594 -1.2913,0.94239 -1.2541,0.75099 -1.2167,0.56148 -1.1795,0.37365 -1.1421,0.1873 -1.1049,0.002 -0.5889,-0.11805 -0.5302,-0.25164 -0.4715,-0.38504 -0.4128,-0.51837 -0.3823,-0.73877 -0.2242,-0.77069 -0.075,-0.8488 0.1065,-1.20762 0.3195,-1.22892 0.5325,-1.25155 0.7456,-1.27544 0.9585,-1.30058 1.1716,-1.32698 1.3845,-1.35471 0.7988,-0.69107 0.7988,-0.69288 0.8174,-0.62053 0.8175,-0.62223 1.1743,-0.81365 1.1743,-0.81705 1.376,-0.90366 1.376,-0.90849 1.376,-0.91363 1.376,-0.91908 1.376,-0.92487 0,0"
         style="font-size:42.60101318px;fill:#ff0000"
         id="path3185"
         inkscape:connector-curvature="0" />
      <path
         d="m 1455.4479,323.61011 0.8945,0.51131 0.8945,0.51531 -1.2355,3.00296 -1.2354,2.97833 -1.2355,2.95468 -1.2354,2.93201 -1.2355,2.91026 -1.2354,2.88944 -1.2355,2.86952 -0.8944,-0.52687 -0.8945,-0.52249 1.2354,-2.86839 1.2355,-2.88764 1.2354,-2.90776 1.2355,-2.9288 1.2354,-2.95074 1.2355,-2.97364 1.2354,-2.99749 m 4.2604,-4.51637 -0.9159,-0.48088 -0.9159,-0.47709 1.0648,-2.43926 1.0647,-2.4582 0.8951,0.53708 0.8951,0.54113 -1.0439,2.39792 -1.044,2.3793"
         style="font-size:42.60101318px;fill:#ff0000"
         id="path3187"
         inkscape:connector-curvature="0" />
      <path
         d="m 1470.6576,326.96784 -1.1888,0.94 -1.1888,0.93169 -1.0956,0.92081 -1.0956,0.91363 -1.0024,0.90432 -1.0024,0.89813 -0.9092,0.8902 -0.9092,0.88486 -1.1928,1.31939 -1.1927,1.30933 -0.9372,1.2265 -0.7668,1.1712 -0.5963,1.11807 -0.426,1.06693 -0.2556,1.01766 -0.085,0.9702 0.059,0.46963 0.1758,0.35426 0.2929,0.23923 0.4101,0.12433 0.7248,0.0454 0.7261,-0.0711 0.7282,-0.24748 0.7282,-0.24785 0.7308,-0.48563 0.7309,-0.48742 0.7335,-0.72802 0.7335,-0.73132 1.0567,-1.39518 1.0836,-1.73668 1.1103,-2.08354 1.1372,-2.43627 1.008,-2.47564 1.008,-2.49637 1.008,-2.51775 0.8522,0.53947 0.8522,0.54447 -1.3146,3.56705 -1.3145,3.52672 -1.3146,3.48798 -1.3146,3.4508 -1.3146,3.41513 -1.3145,3.38094 -1.3146,3.34815 -0.5857,1.32724 -0.6497,1.18725 -0.7135,1.04781 -0.7773,0.90916 -1.0358,0.94494 -1.0623,0.60931 -1.0887,0.2778 -1.1152,-0.0495 -0.8908,-0.27155 -0.7975,-0.46223 -0.7044,-0.65236 -0.6111,-0.84226 -0.494,-0.95449 -0.3529,-0.99013 -0.2117,-1.02742 -0.071,-1.0663 0.117,-1.58718 0.3511,-1.27114 0.8522,0.6467 0.8522,0.65203 -0.4251,1.73897 0.1384,1.25739 0.4154,1.30548 0.3062,0.59389 0.3646,0.45068 0.4232,0.30735 0.4817,0.16376 0.9078,-0.0153 0.9344,-0.36966 0.9611,-0.72763 0.9877,-1.08961 1.3742,-2.31745 0.7404,-1.63397 0.7404,-1.64235 0.9582,-2.54485 0.9581,-2.56286 -0.8825,0.82424 -0.8825,0.81981 -0.8586,0.54719 -0.8586,0.54492 -0.8408,0.34281 -0.8287,0.20911 -0.8168,0.0767 -0.8049,-0.0546 -1.3418,-0.35416 -0.5271,-0.2704 -0.4313,-0.33289 -0.3354,-0.3957 -0.2396,-0.45886 -0.1438,-0.52247 -0.048,-0.58658 0.087,-1.11787 0.2616,-1.16378 0.4361,-1.21173 0.6104,-1.26179 0.7849,-1.31409 0.9592,-1.36879 1.2209,-1.45064 1.2209,-1.4619 0.985,-1.01438 0.985,-1.02095 1.0808,-1.0121 1.0809,-1.01956 1.1767,-1.01208 1.1768,-1.02057 1.2726,-1.01459 1.2726,-1.02425 1.1077,1.92219"
         style="font-size:42.60101318px;fill:#ff0000"
         id="path3189"
         inkscape:connector-curvature="0" />
    </g>
    <g
       transform="matrix(3.5542344,0,0,2.9342025,-3312.1684,-635.59869)"
       style="font-style:normal;font-variant:normal;font-weight:normal;font-stretch:normal;font-size:40px;line-height:125%;font-family:Surfboard;-inkscape-font-specification:Surfboard;text-align:start;letter-spacing:0px;word-spacing:0px;writing-mode:lr-tb;text-anchor:start;display:inline;fill:#ff0000;fill-opacity:1;stroke:none"
       id="flowRoot3795-1-1">
      <path
         d="m 1308.1021,306.90162 -0.1703,-2.33914 1.4058,0.19312 1.4058,0.18579 1.4059,0.17864 1.4058,0.1716 1.4058,0.16473 1.4058,0.15797 1.4058,0.15135 1.4059,0.14484 1.4058,0.13845 1.4058,0.13218 1.4058,0.12599 1.4058,0.11992 1.4059,0.11394 1.4058,0.10806 1.4058,0.10225 0.086,2.19144 -1.3259,-0.085 -1.326,-0.0898 -1.3259,-0.0948 -1.3259,-0.0998 -1.3259,-0.10488 -1.326,-0.11003 -1.3259,-0.11527 -1.3259,-0.1206 -1.3018,3.27437 -1.3018,3.30229 -1.3018,3.33147 -1.3018,3.36194 -1.3019,3.39373 -1.3018,3.42688 -1.3018,3.46143 -1.3018,3.49743 -1.3018,3.53491 -0.8944,-0.47806 -0.8945,-0.48263 1.2638,-3.4579 1.2638,-3.42129 1.2639,-3.38607 1.2638,-3.35222 1.2638,-3.3197 1.2638,-3.28847 1.2639,-3.25847 1.2638,-3.22972 1.2638,-3.20213 -1.3775,-0.13913 -1.3774,-0.14524 -1.3775,-0.15146 -1.3775,-0.15781 -1.3774,-0.16427 -1.3775,-0.17086"
         style="font-size:42.60101318px;fill:#ff0000"
         id="path3154"
         inkscape:connector-curvature="0" />
      <path
         d="m 1327.7242,329.82452 0.7484,-0.88172 0.7484,-0.87852 0.8183,-0.85473 0.8183,-0.85162 0.8882,-0.8279 0.8882,-0.82495 0.9581,-0.8014 0.9582,-0.79871 1.028,-0.77547 1.0281,-0.7731 1.098,-0.7503 1.0979,-0.74832 1.1679,-0.72607 1.1679,-0.72457 1.2379,-0.703 1.2378,-0.70203 -1.3073,2.54556 -1.3073,2.55748 -1.2594,2.77374 -1.2594,2.78803 -1.2114,3.00741 -1.2114,3.02401 -1.1635,3.24634 -1.1635,3.26519 -0.9588,-0.34327 -0.9588,-0.34589 0.8946,-2.60416 0.8946,-2.59199 0.852,-2.28676 0.8521,-2.27719 0.8202,-2.00338 0.8201,-1.99583 0.7991,-1.75237 0.7991,-1.7464 -1.0986,0.75962 -1.0987,0.76183 -1.0487,0.84966 -1.0487,0.85262 -0.9989,0.9416 -0.9988,0.9453 -0.9489,1.03536 -0.9489,1.03973 -0.899,1.13075 -0.899,1.13576 -0.8491,1.22761 -0.8491,1.23317 -0.7991,1.32573 -0.7992,1.33178 -0.7493,1.42489 -0.7492,1.43134 -0.8945,-0.47739 -0.8945,-0.48098 1.2861,-3.38876 1.2861,-3.36156 1.0241,-2.47543 1.0242,-2.46068 1.0242,-2.44645 1.1909,-2.67607 1.191,-2.6594 1.1909,-2.64345 1.3578,-2.86617 1.3577,-2.84839 1.3578,-2.83158 0.8951,0.59297 0.8951,0.58833 -1.3328,2.857 -1.3327,2.87308 -1.3328,2.8901 -1.3328,2.90807 -1.3328,2.92702 -1.3327,2.94696 -1.3328,2.96793"
         style="font-size:42.60101318px;fill:#ff0000"
         id="path3156"
         inkscape:connector-curvature="0" />
      <path
         d="m 1356.5041,320.19929 1.0647,1.75654 -1.2355,0.76509 -1.2354,0.76538 -1.2355,0.76586 -1.2355,0.76651 -1.2354,0.76735 -1.1609,0.78831 -1.1609,0.78964 -0.9052,0.67588 -0.9053,0.67709 -0.7938,0.65741 -0.7937,0.65868 -1.3759,1.28463 -1.1641,1.25266 -0.9526,1.2199 -0.7408,1.18607 -0.5292,1.15098 -0.3175,1.11448 -0.1058,1.07645 0.2132,0.90792 0.5967,0.33897 0.6096,-0.0645 0.764,-0.23729 0.9955,-0.49534 0.9955,-0.49409 0.7803,-0.49108 0.7803,-0.49005 0.7216,-0.53584 0.7216,-0.5348 1.326,-1.15996 1.2086,-1.24918 0.884,-1.13826 0.8841,-1.13561 0.9055,-1.46128 0.9055,-1.45788 1.1215,-2.07424 1.1216,-2.06871 1.1215,-2.0636 0.8099,0.51941 0.81,0.5171 -0.9586,1.88169 -0.9586,1.88549 -0.916,2.13685 -0.9159,2.14175 -0.8733,2.39473 -0.8733,2.4007 -0.8306,2.65518 -0.8306,2.66218 -0.9374,-0.29131 -0.9373,-0.29299 0.8307,-2.70442 0.8308,-2.69689 -1.366,1.35075 -1.3286,1.1693 -1.2914,0.98668 -1.254,0.80285 -1.2168,0.61774 -1.1795,0.43133 -1.1421,0.24359 -1.1049,0.0545 -0.5888,-0.0924 -0.5302,-0.2313 -0.4715,-0.37059 -0.4129,-0.51016 -0.3822,-0.73746 -0.2242,-0.77713 -0.075,-0.86174 0.1065,-1.23075 0.3195,-1.25393 0.5325,-1.27534 0.7456,-1.29516 0.9585,-1.31358 1.1716,-1.33087 1.3845,-1.34735 0.7988,-0.68239 0.7988,-0.681 0.8174,-0.60652 0.8174,-0.6055 1.1743,-0.78694 1.1743,-0.78554 1.376,-0.86272 1.376,-0.86158 1.3761,-0.86068 1.376,-0.86004 1.376,-0.85964 0,0"
         style="font-size:42.60101318px;fill:#ff0000"
         id="path3158"
         inkscape:connector-curvature="0" />
      <path
         d="m 1362.3999,330.35777 1.2593,-1.15141 1.2592,-1.15025 1.2593,-1.14936 1.2504,-1.01465 1.2505,-1.01461 1.2504,-1.01479 1.2416,-0.88153 1.2416,-0.8824 1.2416,-0.88349 1.2328,-0.75137 1.2327,-0.75301 1.2328,-0.75479 -1.2833,2.91251 -1.2834,2.91371 -1.2833,2.91559 -1.2833,2.9182 -1.2834,2.92151 -1.2833,2.92554 -1.2834,2.93028 -1.2833,2.93576 -0.8945,-0.35857 -0.8944,-0.35985 1.3276,-3.03404 1.3276,-3.02757 1.3276,-3.0219 1.3276,-3.01702 1.3276,-3.01296 1.3276,-3.00966 -1.1508,0.79122 -1.1508,0.79042 -1.0988,0.87632 -1.0989,0.87609 -1.047,0.96283 -1.047,0.96316 -0.9951,1.05067 -0.995,1.05155 -0.9432,1.13978 -0.9432,1.14116 -0.8913,1.23005 -0.8913,1.23189 -0.8394,1.32135 -0.8393,1.32361 -0.7875,1.41356 -0.7875,1.41618 -0.8736,-0.41338 -0.8737,-0.41508 1.2234,-2.81724 1.2234,-2.80852 1.2234,-2.80048 1.2233,-2.79307 1.2234,-2.78633 1.2234,-2.78022 1.2234,-2.77475 0.873,0.37945 0.873,0.37739 -1.3062,2.96823 -1.3061,2.97392 -1.3062,2.98037"
         style="font-size:42.60101318px;fill:#ff0000"
         id="path3160"
         inkscape:connector-curvature="0" />
      <path
         d="m 1372.8955,340.73315 1.4059,-2.55708 1.4059,-2.55443 1.406,-2.55253 1.2497,-2.46604 1.2497,-2.46545 1.2497,-2.46542 1.0934,-2.38029 1.0935,-2.38096 1.0935,-2.38206 1.4058,-3.44633 1.4059,-3.44966 0.9159,0.34073 0.9159,0.33888 -1.0546,2.64016 -1.0545,2.63769 -1.0546,2.63565 -0.7629,1.74819 -0.7629,1.74747 -0.7442,1.59527 -0.7442,1.59484 1.2544,-0.66026 1.2545,-0.66238 1.2544,-0.66465 1.2544,-0.6671 1.2545,-0.66967 1.2544,-0.67242 1.2544,-0.67531 1.2545,-0.67836 1.2544,-0.68157 0.9802,1.69422 -1.3349,0.70302 -1.3349,0.69948 -1.3349,0.69611 -1.3349,0.69293 -1.3348,0.68992 -1.3349,0.6871 -1.3349,0.68446 -1.3349,0.682 -1.3349,0.6797 0.4738,1.90822 0.5697,1.92666 0.7136,1.95437 0.7137,1.95345 0.9373,2.05415 0.9372,2.05317 1.1926,2.21737 1.1926,2.21669 -0.8093,0.42745 -0.8093,0.42702 -1.121,-1.99668 -1.121,-1.99756 -0.9344,-1.98788 -0.9345,-1.98904 -0.7639,-2.00045 -0.764,-2.00166 -1.2191,-4.0692 -1.4059,2.64285 -1.4059,2.64314 -1.2213,2.20098 -1.2213,2.20215 -1.2213,2.20381 -0.8737,-0.52183 -0.8736,-0.52303"
         style="font-size:42.60101318px;fill:#ff0000"
         id="path3162"
         inkscape:connector-curvature="0" />
      <path
         d="m 1408.909,338.55296 1.1994,-0.93151 1.1994,-0.93543 1.1488,-0.98215 1.1488,-0.98635 1.0982,-1.03323 1.0982,-1.03772 1.0476,-1.0847 1.0477,-1.08943 0.997,-1.13647 0.9971,-1.14141 0.9465,-1.18844 0.9465,-1.19354 0.8959,-1.24052 0.8959,-1.24574 0.8453,-1.29257 0.8453,-1.29788 0.8307,0.47166 0.8308,0.47196 -1.4058,2.99537 -1.4058,2.97613 -1.4059,2.9579 -1.4058,2.94065 -1.4058,2.92435 -1.4058,2.90903 -1.4058,2.89462 -1.4058,2.88114 -1.4059,2.86857 -1.4058,2.85689 -1.4058,2.84611 -1.4058,2.83619 -0.8516,-0.40897 -0.8516,-0.40826 1.401,-2.81129 1.4011,-2.82049 1.4011,-2.83054 1.401,-2.84145 1.4011,-2.85325 1.401,-2.86591 1.4011,-2.87949 1.401,-2.89398 1.4011,-2.90937 -0.7369,0.83178 -0.7369,0.82908 -0.8155,0.83974 -0.8154,0.8368 -1.2444,1.13701 -1.2443,1.13116 -1.2444,1.12561 -1.0903,0.86503 -1.0903,0.86148 -1.0903,0.8581 -1.0903,0.85488 -1.2474,0.87473 -1.2474,0.87121 -1.2474,0.86789 -1.2474,0.86478 1.3328,-3.22733 1.3327,-3.2368 1.3328,-3.24716 1.3328,-3.2584 1.3327,-3.27052 1.3328,-3.28356 1.3328,-3.2975 0.9159,0.27995 0.9159,0.27918 -1.4056,3.45478 -1.4057,3.43857 -1.4056,3.42341 -1.4057,3.40933 -1.4056,3.39629"
         style="font-size:42.60101318px;fill:#ff0000"
         id="path3164"
         inkscape:connector-curvature="0" />
      <path
         d="m 1429.1746,341.40765 -0.9036,-0.0628 -0.7946,-0.25251 -0.6856,-0.44129 -0.5765,-0.62942 -0.4567,-0.76228 -0.3262,-0.84031 -0.1957,-0.91873 -0.065,-0.99769 0.051,-1.15545 0.1537,-1.19337 0.2562,-1.23209 0.3588,-1.27168 1.025,-2.66628 0.7176,-1.41675 0.7175,-1.42164 0.9219,-1.55239 0.9339,-1.36141 0.9458,-1.16961 0.9579,-0.97692 0.9698,-0.78324 0.9819,-0.5885 0.9938,-0.3926 1.0058,-0.19545 0.9175,0.008 0.8348,0.20756 0.7522,0.40879 0.6696,0.6113 0.5497,0.75861 0.3927,0.84978 0.2356,0.9405 0.078,1.03039 -0.051,1.24506 -0.1517,1.26476 -0.2529,1.28333 -0.3541,1.30071 -0.4659,1.34042 -0.5883,1.40206 -0.772,1.49411 -0.772,1.48746 -0.9547,1.5387 -0.968,1.33368 -0.9813,1.13013 -0.9946,0.92803 -1.0079,0.72735 -1.0211,0.52806 -1.0345,0.33016 -1.0477,0.13356 0,0 m -2.1295,-5.06956 0.1172,1.10832 0.3515,1.11106 0.2663,0.48477 0.3302,0.34137 0.3942,0.19774 0.4582,0.0538 0.8586,-0.12301 0.8506,-0.30517 0.8426,-0.48834 0.8346,-0.67253 0.8266,-0.85779 0.8186,-1.04412 0.8105,-1.23155 0.8026,-1.42009 1.2678,-2.6667 0.9056,-2.49376 0.5434,-2.31167 0.1358,-1.08499 0.045,-1.03657 -0.1332,-1.26157 -0.1665,-0.48489 -0.233,-0.38751 -0.2997,-0.29018 -0.3662,-0.19304 -0.9322,-0.096 -0.8379,0.16403 -0.8312,0.33898 -0.8246,0.51297 -0.8179,0.68602 -0.8114,0.85821 -0.8047,1.02958 -0.7981,1.2002 -0.7915,1.3701 -1.2303,2.48118 -0.8788,2.32111 -0.5273,2.16842 -0.1318,1.02883 -0.044,0.99276 0,0"
         style="font-size:42.60101318px;fill:#ff0000"
         id="path3166"
         inkscape:connector-curvature="0" />
      <path
         d="m 1442.3691,337.10658 1.1103,-1.06476 1.1103,-1.07293 1.041,-1.1163 1.041,-1.12459 0.9719,-1.16764 0.9718,-1.17597 0.9025,-1.21856 0.9026,-1.22684 0.8334,-1.26882 0.8333,-1.27696 0.7642,-1.31816 0.7641,-1.32607 1.3898,-2.74031 1.2513,-2.8335 0.8737,0.32879 0.8736,0.32945 -1.4058,3.98629 -1.4058,3.94191 -1.4058,3.8993 -1.4059,3.85842 -1.4058,3.81925 -1.4058,3.7817 -0.9159,-0.37362 -0.9159,-0.37212 1.3629,-3.65581 1.3629,-3.68993 1.3629,-3.72551 -0.9505,1.18684 -0.9505,1.17817 -0.9505,1.16974 -1.0907,1.14855 -1.0908,1.13934 -1.0907,1.1304 -1.231,1.10696 -1.2309,1.09747 -1.231,1.08832 -1.3712,1.06309 -1.3713,1.05361 -1.3712,1.04453 1.3814,-3.39423 1.3815,-3.42094 1.3814,-3.44889 1.3814,-3.47814 1.3814,-3.50869 1.3815,-3.54059 1.3814,-3.57387 0.9374,0.32918 0.9373,0.32948 -1.1785,3.07752 -1.1786,3.0522 -1.1785,3.02779 -1.1785,3.00425 -1.1786,2.98153 -1.1785,2.95967"
         style="font-size:42.60101318px;fill:#ff0000"
         id="path3168"
         inkscape:connector-curvature="0" />
    </g>
  </g>
  <g
     style="display:inline"
     inkscape:label="8 - Registration"
     id="layer4"
     inkscape:groupmode="layer">
    <circle
       r="3.9032347"
       cy="442.5"
       cx="1467.5"
       transform="matrix(0.56342743,0,0,0.56342743,773.17024,14.68336)"
       id="path10575-4"
       style="display:inline;fill:none;stroke:#ff00ff;stroke-width:1.99986601;stroke-linecap:butt;stroke-linejoin:miter;stroke-miterlimit:4;stroke-dasharray:none;stroke-opacity:1" />
    <circle
       r="3.9032347"
       cy="442.5"
       cx="1467.5"
       transform="matrix(0.50987446,0,0,0.50987446,851.75922,313.93564)"
       id="path10575-4-5"
       style="display:inline;fill:none;stroke:#ff00ff;stroke-width:1.99986601;stroke-linecap:butt;stroke-linejoin:miter;stroke-miterlimit:4;stroke-dasharray:none;stroke-opacity:1" />
    <circle
       r="3.9032347"
       cy="442.5"
       cx="1467.5"
       transform="matrix(0,0.50987446,-0.50987446,0,552.46332,-348.24077)"
       id="path10575-2-9"
       style="display:inline;fill:none;stroke:#ff00ff;stroke-width:1.99986601;stroke-linecap:butt;stroke-linejoin:miter;stroke-miterlimit:4;stroke-dasharray:none;stroke-opacity:1" />
    <circle
       r="3.9032347"
       cy="442.5"
       cx="1467.5"
       transform="matrix(0,0.50987446,-0.50987446,0,3098.7756,-348.24077)"
       id="path10575-2-9-9"
       style="display:inline;fill:none;stroke:#ff00ff;stroke-width:1.99986601;stroke-linecap:butt;stroke-linejoin:miter;stroke-miterlimit:4;stroke-dasharray:none;stroke-opacity:1" />
  </g>
  <g
     style="display:inline"
     inkscape:groupmode="layer"
     id="layer2"
     inkscape:label="9 - Safe area">
    <path
       style="color:#000000;font-style:normal;font-variant:normal;font-weight:normal;font-stretch:normal;font-size:medium;line-height:normal;font-family:Sans;-inkscape-font-specification:Sans;text-indent:0;text-align:start;text-decoration:none;text-decoration-line:none;letter-spacing:normal;word-spacing:normal;text-transform:none;direction:ltr;block-progression:tb;writing-mode:lr-tb;baseline-shift:baseline;text-anchor:start;display:inline;overflow:visible;visibility:visible;fill:none;stroke:#00ffff;stroke-width:2.4053793;stroke-opacity:1;marker:none;enable-background:accumulate"
       d="m 1062.7866,628.4986 c -75.0131,28.3107 -237.7364,57.7987 -334.3952,57.7987 -262.3703,0 -412.18872,-134.4436 -412.18872,-284.2594 0,-149.8157 149.81842,-288.3352 412.18872,-288.3352 95.0822,0 256.4471,33.0305 329.9593,60.3698 151.7269,58.5431 334.1,82.3853 531.7837,82.3853 195.7417,0 399.0001,-23.1725 550.858,-80.7773 76.102,-28.9485 212.6134,-61.9778 310.6938,-61.9778 263.6891,0 432.1111,138.2178 432.1111,288.7868 0,150.569 -168.422,283.8078 -432.1111,283.8078 -99.7027,0 -257.5283,-28.6135 -334.3024,-58.3529 -151.1251,-56.94149 -332.707,-79.4231 -527.2494,-79.4231 -195.065,0 -375.8537,22.6602 -527.0247,79.99061"
       id="path4084-1"
       inkscape:connector-curvature="0"
       sodipodi:nodetypes="cssscscssscsc" />
  </g>
  <g
     style="display:inline"
     inkscape:label="10 - Stiching"
     id="layer5"
     inkscape:groupmode="layer">
    <path
       sodipodi:nodetypes="cssscscssscsc"
       inkscape:connector-curvature="0"
       id="path4084"
       d="m 1013.3775,709.6287 c -82.67882,38.78529 -181.77532,61.36528 -288.31198,61.36528 -289.18225,0 -523.58743,-166.36752 -523.58743,-371.61269 0,-205.24517 234.40518,-371.612669 523.58743,-371.612669 104.79886,0 202.39816,21.849304 283.42268,59.303777 167.2323,80.203092 369.6885,127.123062 587.5738,127.123062 215.745,0 416.3699,-46.00257 583.7466,-124.920189 83.8791,-39.658996 184.3741,-62.797378 292.4776,-62.797378 290.636,0 526.2357,167.245007 526.2357,373.522077 0,206.27705 -235.5997,373.52213 -526.2357,373.52213 -109.8915,0 -211.9208,-23.91009 -296.5404,-64.65253 -166.5687,-78.00898 -366.0222,-123.52177 -580.4453,-123.52177 -214.999,0 -414.9475,45.75752 -581.5669,124.29926"
       style="color:#000000;font-style:normal;font-variant:normal;font-weight:normal;font-stretch:normal;font-size:medium;line-height:normal;font-family:Sans;-inkscape-font-specification:Sans;text-indent:0;text-align:start;text-decoration:none;text-decoration-line:none;letter-spacing:normal;word-spacing:normal;text-transform:none;direction:ltr;block-progression:tb;writing-mode:lr-tb;baseline-shift:baseline;text-anchor:start;display:inline;overflow:visible;visibility:visible;fill:none;stroke:#008080;stroke-width:2.95619392;stroke-miterlimit:4;stroke-dasharray:none;stroke-opacity:1;marker:none;enable-background:accumulate" />
  </g>
</svg>
