<?xml version="1.0" encoding="UTF-8" standalone="no"?>
<!-- Created with Inkscape (http://www.inkscape.org/) -->

<svg
   xmlns:dc="http://purl.org/dc/elements/1.1/"
   xmlns:cc="http://creativecommons.org/ns#"
   xmlns:rdf="http://www.w3.org/1999/02/22-rdf-syntax-ns#"
   xmlns:svg="http://www.w3.org/2000/svg"
   xmlns="http://www.w3.org/2000/svg"
   xmlns:sodipodi="http://sodipodi.sourceforge.net/DTD/sodipodi-0.dtd"
   xmlns:inkscape="http://www.inkscape.org/namespaces/inkscape"
   height="800"
   width="3200"
   id="svg2"
   sodipodi:version="0.32"
   inkscape:version="0.48.5 r10040"
   sodipodi:docname="Egg_Egg_2.svg"
   inkscape:output_extension="org.inkscape.output.svg.inkscape"
   version="1.0">
  <sodipodi:namedview
     id="base"
     pagecolor="#ffffff"
     bordercolor="#666666"
     borderopacity="1.0"
     inkscape:pageopacity="0.0"
     inkscape:pageshadow="2"
     inkscape:cx="1600"
     inkscape:cy="400"
     inkscape:zoom="0.149375"
     inkscape:document-units="px"
     inkscape:current-layer="layer2"
     inkscape:window-width="575"
     inkscape:window-height="442"
     inkscape:window-x="0"
     inkscape:window-y="23"
     width="940.24px"
     height="850px"
     showgrid="false"
     inkscape:window-maximized="0" />
  <defs
     id="defs4" />
  <metadata
     id="metadata7">
    <rdf:RDF>
      <cc:Work
         rdf:about="">
        <dc:format>image/svg+xml</dc:format>
        <dc:type
           rdf:resource="http://purl.org/dc/dcmitype/StillImage" />
        <dc:title />
      </cc:Work>
    </rdf:RDF>
  </metadata>
  <g
     transform="translate(0,-50)"
     inkscape:label="2-Black"
     id="layer2"
     inkscape:groupmode="layer"
     style="display:inline">
    <path
       sodipodi:nodetypes="cssssssssssssssssssssssssssssssssssscssssssssssssssssssssssssssssssssssscc"
       inkscape:connector-curvature="0"
       id="path9394-7"
       d="m 1610.0102,123.69983 c 0,-0.28637 1.8136,-0.58431 5.3766,-0.89272 3.621,-0.31342 9.1716,-0.51041 16.3322,-0.4243 7.2563,0.0872 16.5293,0.69168 27.1486,1.86506 10.7401,1.18672 23.6912,3.39657 37.2197,6.94367 13.659,3.58133 29.303,8.72412 44.8498,15.47421 15.6416,6.79128 33.0121,16.57902 47.9118,28.4725 14.9786,11.9564 30.1648,28.2078 40.4517,45.83819 10.3162,17.68059 41.092,6.09804 67.6057,9.50655 26.5361,3.4114 56.2444,9.74546 83.0612,19.7867 26.7878,10.03035 55.9724,25.10909 78.1903,43.81273 22.1946,18.68405 36.5124,46.22746 45.5193,73.10545 8.9937,26.83915 9.7141,62.85364 -4.9604,89.84684 -14.5916,26.8406 -58.8794,37.07203 -64.4435,67.63442 -5.532,30.38713 15.6285,58.03401 20.5056,89.88985 4.833,31.56724 -2.5184,70.39484 -20.1793,100.12252 -17.4705,29.40683 -50.1387,59.56663 -85.9227,76.50772 -35.257,16.69158 -82.7459,21.23456 -124.571,22.89125 -41.1765,1.63101 -84.1394,-23.91648 -118.3007,-44.03735 -34.1621,-20.12132 -67.1306,-15.27742 -108.235,-12.69517 -41.7731,2.62427 -88.9772,-3.7482 -126.7992,-16.20507 -38.3282,-12.62361 -82.3912,-30.69941 -106.449,-56.79216 -24.3314,-26.3895 -28.1742,-61.81504 -52.5386,-86.6437 -24.5991,-25.0682 -68.6573,-23.25657 -98.7661,-41.7352 -30.2925,-18.59141 -59.2723,-50.8271 -62.4748,-80.07794 -3.2196,-29.40559 16.5604,-67.92856 46.0062,-81.99267 29.5296,-14.10416 69.3304,-18.44613 55.8423,-42.0494 -13.4995,-23.62337 -13.6153,-58.35298 3.3184,-78.04914 16.9152,-19.6748 45.7644,-34.5871 70.6835,-42.70169 24.8928,-8.10608 53.5387,-12.47037 77.4979,-11.48262 23.9244,0.98632 20.7924,-21.04709 33.4238,-34.69067 12.56,-13.56643 28.8186,-24.91319 43.4607,-33.04917 14.5581,-8.08935 30.1069,-14.0098 43.4778,-18.26154 13.2499,-4.21322 26.1946,-6.6611 36.8478,-8.32073 10.5381,-1.64172 19.9308,-2.34583 27.1893,-2.54103 7.1518,-0.19233 12.6979,-0.12069 16.3237,0.136 3.5695,0.25273 5.3931,0.52224 5.3964,0.80861 0,0.28638 -1.8139,0.58386 -5.3771,0.8914 -3.621,0.31252 -8.9181,0.79449 -16.0208,1.53963 -7.1978,0.75512 -15.7659,1.91648 -26.1461,4.08734 -10.4983,2.19553 -22.0377,4.84104 -35.027,9.54018 -13.1145,4.74447 -26.5856,10.31289 -40.7772,18.81821 -14.2781,8.55723 -27.5939,18.22072 -39.6714,32.07871 -12.1414,13.9313 -17.1453,39.64993 -41.0866,39.12728 -24.0094,-0.52415 -48.974,-0.65769 -73.6975,7.86071 -24.7444,8.52563 -52.3155,24.13826 -68.8461,44.06439 -16.5126,19.90451 -14.4933,44.37742 -0.6039,67.81959 13.8751,23.41759 -34.2841,39.65556 -63.57,54.02112 -29.2436,14.34477 -40.2783,49.40783 -36.7106,78.7888 3.5476,29.21484 26.758,45.07025 57.2172,63.46258 30.2846,18.28688 76.0599,19.44223 100.846,44.38847 24.5613,24.72025 29.0192,60.50718 53.508,86.82208 24.2244,26.03092 58.4851,39.86244 96.8977,52.40754 37.847,12.36033 79.7864,24.45101 121.059,18.68132 45.708,-6.38972 90.07,-6.00379 124.0884,14.23365 34.0448,20.25315 65.6969,42.02218 106.8771,40.43956 41.8501,-1.60837 79.8699,-3.52186 115.2049,-20.13793 35.8079,-16.83846 65.4541,-44.82281 83.0677,-74.13666 17.8139,-29.64723 26.9931,-59.04274 22.3979,-90.61714 -4.6397,-31.87901 -26.7166,-62.39179 -20.8941,-92.74277 5.8579,-30.53623 52.0481,-48.22391 66.9615,-74.95711 14.9923,-26.87465 11.1133,-53.9059 2.5059,-80.82748 -8.6321,-26.99818 -19.2318,-47.03345 -41.1305,-65.99281 -21.9174,-18.97549 -44.3748,-32.27927 -70.9791,-42.68219 -26.5755,-10.39165 -59.1202,-14.4109 -85.6257,-17.82219 -26.4778,-3.40772 -67.8216,0.70394 -77.6081,-17.15038 -9.7724,-17.82849 -21.9223,-31.36826 -36.4756,-43.67409 -14.4709,-12.23625 -28.9853,-20.90076 -44.3185,-28.14174 -15.2453,-7.19947 -29.1822,-12.2995 -42.6298,-16.38754 -13.3257,-4.051 -24.9495,-6.54481 -35.5856,-8.27553 -10.5213,-1.71204 -19.1927,-2.81682 -26.4115,-3.46535 -7.1125,-0.63898 -12.4161,-0.99857 -16.0418,-1.25437 -3.5696,-0.25185 -5.3933,-0.52091 -5.3967,-0.80728 l 0,0"
       style="fill:none;stroke:#000000;stroke-width:4;stroke-miterlimit:4;stroke-dasharray:none;stroke-opacity:1" />
  </g>
  <g
     style="display:inline"
     transform="translate(117.765,-99.6707)"
     inkscape:groupmode="layer"
     id="layer1"
     inkscape:label="1-yellow">
    <g
       transform="matrix(1.0615746,0,0,0.84817779,1014.9653,151.61082)"
       id="g3985"
       style="display:inline;stroke:#fdfd00;stroke-width:4.21542406;stroke-miterlimit:4;stroke-dasharray:none;stroke-opacity:1">
      <circle
         d="m -300,372.36218 c 0,100.98922 -81.86793,182.85715 -182.85715,182.85715 -100.98921,0 -182.85714,-81.86793 -182.85714,-182.85715 0,-100.98921 81.86793,-182.85714 182.85714,-182.85714 100.98922,0 182.85715,81.86793 182.85715,182.85714 z"
         r="182.85715"
         cy="372.36218"
         cx="-482.85715"
         style="fill:none;stroke:#fdfd00;stroke-width:5.0087533;stroke-linecap:round;stroke-miterlimit:4;stroke-dasharray:none;stroke-opacity:1"
         id="path2199-5"
         transform="matrix(0.906429,0,0,0.781429,928.41522,123.827)" />
      <path
         id="path3988"
         transform="matrix(0.906429,0,0,0.781429,928.41522,123.827)"
         d="m -567.73246,210.46197 -87.84401,101.89583 m -8.67789,37.21271 132.15219,-153.29169 m 28.17402,-5.53415 -161.59376,187.44284 m 2.40497,24.357 183.60411,-212.97404 m 21.94258,1.6941 -200.6303,232.72379 m 6.79299,19.26706 213.84304,-248.05008 m 18.39622,5.80774 -223.78225,259.5792 m 9.77656,15.80624 231.13187,-268.1045 m 15.75731,8.86878 -235.87319,273.60425 m 12.20058,12.99445 238.38839,-276.52179 m 13.4713,11.52047 -238.5435,276.70171 m 14.45292,10.38182 236.53577,-274.37281 m 11.19053,14.16607 -232.11351,269.24316 m 16.82379,7.6317 225.36479,-261.41489 m 8.61717,17.15108 -215.82579,250.35 m 19.73515,4.25463 203.23752,-235.74807 m 5.33773,20.95511 -187.04103,216.96074 m 23.9117,-0.59002 166.06568,-192.6301 m -0.55657,27.79228 -138.17354,160.27624 m 33.66788,-11.90682 97.70034,-113.32882 m -347.86577,7.73337 87.84401,101.89583 m 35.63029,14.18315 -132.15219,-153.29169 m -1.26754,-28.617 161.59375,187.44284 m 24.41532,1.1742 -183.60411,-212.97404 m 4.91639,-21.44385 200.6303,232.72379 m 20.00573,-3.94077 -213.84304,-248.05008 m 8.45701,-17.33686 223.78225,259.5792 m 17.12618,-7.28094 -231.13187,-268.1045 m 11.01599,-14.36853 235.87319,273.60425 m 14.71578,-10.07691 -238.38839,-276.52179 m 13.31619,-11.70039 238.5435,276.70171 m 12.44519,-12.71072 -236.53577,-274.37281 m 15.6128,-9.03642 232.1135,269.24316 m 10.07507,-15.45997 -225.36479,-261.41489 m 18.15617,-6.08619 215.82579,250.35 m 7.14688,-18.85656 -203.23752,-235.74807 m 21.53422,-2.16778 187.04103,216.96074 m 2.93635,-23.74062 -166.06568,-192.6301 m 27.33557,4.56158 138.17354,160.27624 m -6.80532,-35.0406 -97.70034,-113.32882"
         style="fill:none;stroke:#fdfd00;stroke-width:5.0087533;stroke-miterlimit:4;stroke-dasharray:none;stroke-opacity:1"
         inkscape:connector-curvature="0" />
    </g>
  </g>
</svg>
