<?xml version="1.0" encoding="UTF-8" standalone="no"?>
<!-- Created with Inkscape (http://www.inkscape.org/) -->

<svg
   xmlns:dc="http://purl.org/dc/elements/1.1/"
   xmlns:cc="http://creativecommons.org/ns#"
   xmlns:rdf="http://www.w3.org/1999/02/22-rdf-syntax-ns#"
   xmlns:svg="http://www.w3.org/2000/svg"
   xmlns="http://www.w3.org/2000/svg"
   xmlns:sodipodi="http://sodipodi.sourceforge.net/DTD/sodipodi-0.dtd"
   xmlns:inkscape="http://www.inkscape.org/namespaces/inkscape"
   width="3200"
   height="800"
   id="svg27345"
   version="1.1"
   inkscape:version="0.48.0 r9654"
   sodipodi:docname="gears2.svg">
  <sodipodi:namedview
     id="base"
     pagecolor="#ffffff"
     bordercolor="#666666"
     borderopacity="1.0"
     inkscape:pageopacity="0.0"
     inkscape:pageshadow="2"
     inkscape:zoom="0.210425"
     inkscape:cx="1141.9626"
     inkscape:cy="476.92857"
     inkscape:document-units="px"
     inkscape:current-layer="layer1"
     showgrid="false"
     inkscape:window-width="1676"
     inkscape:window-height="1006"
     inkscape:window-x="0"
     inkscape:window-y="0"
     inkscape:window-maximized="0" />
  <defs
     id="defs27347">
    <inkscape:perspective
       id="perspective27353"
       inkscape:persp3d-origin="372.04724 : 350.78739 : 1"
       inkscape:vp_z="744.09448 : 526.18109 : 1"
       inkscape:vp_y="0 : 1000 : 0"
       inkscape:vp_x="0 : 526.18109 : 1"
       sodipodi:type="inkscape:persp3d" />
  </defs>
  <metadata
     id="metadata27350">
    <rdf:RDF>
      <cc:Work
         rdf:about="">
        <dc:format>image/svg+xml</dc:format>
        <dc:type
           rdf:resource="http://purl.org/dc/dcmitype/StillImage" />
        <dc:title />
      </cc:Work>
    </rdf:RDF>
  </metadata>
  <g
     transform="translate(0,-252.36218)"
     id="layer1"
     inkscape:groupmode="layer"
     inkscape:label="Layer 1">
    <path
       style="fill:none;stroke:#000000;stroke-width:0.69738591"
       d="m 492.00106,616.37313 6.1139,-0.49236 16.3022,2.67028 22.6594,9.48096 0,15.88228 -22.6594,9.48096 -16.3022,2.67029 -6.1139,-0.49236 -3.2206,24.46291 6.0331,1.10675 15.0552,6.79881 19.4341,15.0231 -4.1111,15.34039 -24.3409,3.29376 -16.438,-1.64025 -5.778,-2.05799 -9.4426,22.79614 5.5409,2.63056 12.783,10.46357 14.8835,19.54075 -7.941,13.75384 -24.3647,-3.1187 -15.4534,-5.83852 -5.0482,-3.48345 -15.0211,19.57563 4.6718,3.97511 9.6394,13.41561 9.3184,22.72642 -11.2308,11.2307 -22.7264,-9.31847 -13.4155,-9.63927 -3.9751,-4.6718 -19.5757,15.02101 3.4834,5.04836 5.8386,15.45339 3.1186,24.36458 -13.7538,7.94112 -19.5408,-14.88361 -10.4635,-12.78308 -2.6305,-5.54074 -22.7962,9.44261 2.0579,5.77784 1.6404,16.43809 -3.2939,24.34086 -15.3403,4.11109 -15.0231,-19.43405 -6.7989,-15.05517 -1.1066,-6.03309 -24.4629,3.22054 0.4923,6.11397 -2.6703,16.3021 -9.4809,22.65946 -15.8824,0 -9.481,-22.65946 -2.6702,-16.3021 0.4923,-6.11397 -24.4629,-3.22054 -1.1067,6.03309 -6.7988,15.05517 -15.0231,19.43405 -15.3404,-4.11109 -3.2938,-24.34086 1.6403,-16.43809 2.058,-5.77784 -22.7962,-9.44261 -2.6305,5.54074 -10.4636,12.78308 -19.5408,14.88361 -13.7537,-7.94112 3.1186,-24.36458 5.8386,-15.45339 3.4833,-5.04836 -19.5756,-15.02101 -3.975,4.6718 -13.4157,9.63927 -22.7264,9.31847 -11.2307,-11.2307 9.3185,-22.72642 9.6393,-13.41561 4.6717,-3.97511 -15.021,-19.57563 -5.0483,3.48345 -15.4533,5.83852 -24.3647,3.1187 -7.941,-13.75384 14.8835,-19.54075 12.783,-10.46357 5.5409,-2.63056 -9.4427,-22.79614 -5.7779,2.05799 -16.438,1.64025 -24.3408,-3.29376 -4.1112,-15.34039 19.4341,-15.0231 15.0552,-6.79881 6.0331,-1.10675 -3.2206,-24.46291 -6.114,0.49236 -16.302,-2.67029 -22.6595,-9.48096 0,-15.88228 22.6595,-9.48096 16.302,-2.67028 6.114,0.49236 3.2206,-24.46291 -6.0331,-1.10675 -15.0552,-6.79883 -19.4341,-15.02308 4.1112,-15.34039 24.3408,-3.29377 16.438,1.64026 5.7779,2.05799 9.4427,-22.79615 -5.5409,-2.63055 -12.783,-10.46358 -14.8835,-19.54076 7.941,-13.75384 24.3647,3.11872 15.4533,5.83851 5.0483,3.48344 15.021,-19.57562 -4.6717,-3.97511 -9.6393,-13.41561 -9.3185,-22.72642 11.2307,-11.23069 22.7264,9.31847 13.4157,9.63927 3.975,4.67179 19.5756,-15.02101 -3.4833,-5.04837 -5.8386,-15.45337 -3.1186,-24.36458 13.7537,-7.94114 19.5408,14.88362 10.4636,12.78309 2.6305,5.54073 22.7962,-9.4426 -2.058,-5.77785 -1.6403,-16.43808 3.2938,-24.34087 15.3404,-4.11109 15.0231,19.43405 6.7988,15.05518 1.1067,6.03308 24.4629,-3.22053 -0.4923,-6.11398 2.6702,-16.30209 9.481,-22.65947 15.8824,0 9.4809,22.65947 2.6703,16.30209 -0.4923,6.11398 24.4629,3.22053 1.1066,-6.03308 6.7989,-15.05518 15.0231,-19.43405 15.3403,4.11109 3.2939,24.34087 -1.6404,16.43808 -2.0579,5.77785 22.7962,9.4426 2.6305,-5.54073 10.4635,-12.78309 19.5408,-14.88362 13.7538,7.94114 -3.1186,24.36458 -5.8386,15.45337 -3.4834,5.04837 19.5757,15.02101 3.9751,-4.67179 13.4155,-9.63927 22.7264,-9.31847 11.2308,11.23069 -9.3184,22.72642 -9.6394,13.41561 -4.6718,3.97511 15.0211,19.57562 5.0482,-3.48344 15.4534,-5.83851 24.3647,-3.11872 7.941,13.75384 -14.8835,19.54076 -12.783,10.46358 -5.5409,2.63055 9.4426,22.79615 5.778,-2.05799 16.438,-1.64026 24.3409,3.29377 4.1111,15.34039 -19.4341,15.02308 -15.0552,6.79883 -6.0331,1.10675 z"
       id="path3297"
       inkscape:connector-curvature="0" />
    <path
       style="fill:none;stroke:#000000;stroke-width:0.69738591"
       d="m 1553.4067,616.37313 6.114,-0.49236 16.302,2.67028 22.6595,9.48096 0,15.88228 -22.6595,9.48096 -16.302,2.67029 -6.114,-0.49236 -3.2205,24.46291 6.033,1.10675 15.0552,6.79881 19.4341,15.0231 -4.1112,15.34039 -24.3408,3.29376 -16.4381,-1.64025 -5.7779,-2.05799 -9.4426,22.79614 5.5408,2.63056 12.7831,10.46357 14.8836,19.54075 -7.9411,13.75384 -24.3646,-3.1187 -15.4534,-5.83852 -5.0484,-3.48345 -15.0209,19.57563 4.6718,3.97511 9.6392,13.41561 9.3185,22.72642 -11.2307,11.2307 -22.7265,-9.31847 -13.4156,-9.63927 -3.975,-4.6718 -19.5757,15.02101 3.4834,5.04836 5.8386,15.45339 3.1187,24.36458 -13.7538,7.94112 -19.5409,-14.88361 -10.4635,-12.78308 -2.6305,-5.54074 -22.7962,9.44261 2.058,5.77784 1.6403,16.43809 -3.2938,24.34086 -15.3405,4.11109 -15.023,-19.43405 -6.7988,-15.05517 -1.1067,-6.03309 -24.4629,3.22054 0.4924,6.11397 -2.6703,16.3021 -9.4811,22.65946 -15.8822,0 -9.481,-22.65946 -2.6704,-16.3021 0.4925,-6.11397 -24.4629,-3.22054 -1.1068,6.03309 -6.7987,15.05517 -15.0231,19.43405 -15.3405,-4.11109 -3.2938,-24.34086 1.6403,-16.43809 2.0581,-5.77784 -22.7963,-9.44261 -2.6305,5.54074 -10.4635,12.78308 -19.5408,14.88361 -13.7539,-7.94112 3.1187,-24.36458 5.8386,-15.45339 3.4834,-5.04836 -19.5757,-15.02101 -3.975,4.6718 -13.4156,9.63927 -22.7265,9.31847 -11.2306,-11.2307 9.3184,-22.72642 9.6392,-13.41561 4.6718,-3.97511 -15.0209,-19.57563 -5.0484,3.48345 -15.4534,5.83852 -24.3646,3.1187 -7.941,-13.75384 14.8835,-19.54075 12.7831,-10.46357 5.5408,-2.63056 -9.4426,-22.79614 -5.7779,2.05799 -16.4381,1.64025 -24.3408,-3.29376 -4.1112,-15.34039 19.4341,-15.0231 15.0552,-6.79881 6.033,-1.10675 -3.2205,-24.46291 -6.114,0.49236 -16.302,-2.67029 -22.6595,-9.48096 0,-15.88228 22.6595,-9.48096 16.302,-2.67028 6.114,0.49236 3.2205,-24.46291 -6.033,-1.10675 -15.0552,-6.79883 -19.4341,-15.02308 4.1112,-15.34039 24.3408,-3.29377 16.4381,1.64026 5.7779,2.05799 9.4426,-22.79615 -5.5408,-2.63055 -12.7831,-10.46358 -14.8835,-19.54076 7.941,-13.75384 24.3646,3.11872 15.4534,5.83851 5.0484,3.48344 15.0209,-19.57562 -4.6718,-3.97511 -9.6392,-13.41561 -9.3184,-22.72642 11.2306,-11.23069 22.7265,9.31847 13.4156,9.63927 3.975,4.67179 19.5757,-15.02101 -3.4834,-5.04837 -5.8386,-15.45337 -3.1187,-24.36458 13.7539,-7.94114 19.5408,14.88362 10.4635,12.78309 2.6305,5.54073 22.7963,-9.4426 -2.0581,-5.77785 -1.6403,-16.43808 3.2938,-24.34087 15.3405,-4.11109 15.0231,19.43405 6.7987,15.05518 1.1068,6.03308 24.4629,-3.22053 -0.4925,-6.11398 2.6704,-16.30209 9.481,-22.65947 15.8822,0 9.4811,22.65947 2.6703,16.30209 -0.4924,6.11398 24.4629,3.22053 1.1067,-6.03308 6.7988,-15.05518 15.023,-19.43405 15.3405,4.11109 3.2938,24.34087 -1.6403,16.43808 -2.058,5.77785 22.7962,9.4426 2.6305,-5.54073 10.4635,-12.78309 19.5409,-14.88362 13.7538,7.94114 -3.1187,24.36458 -5.8386,15.45337 -3.4834,5.04837 19.5757,15.02101 3.975,-4.67179 13.4156,-9.63927 22.7265,-9.31847 11.2307,11.23069 -9.3185,22.72642 -9.6392,13.41561 -4.6718,3.97511 15.0209,19.57562 5.0484,-3.48344 15.4534,-5.83851 24.3646,-3.11872 7.9411,13.75384 -14.8836,19.54076 -12.7831,10.46358 -5.5408,2.63055 9.4426,22.79615 5.7779,-2.05799 16.4381,-1.64026 24.3408,3.29377 4.1112,15.34039 -19.4341,15.02308 -15.0552,6.79883 -6.033,1.10675 z"
       id="path2831"
       inkscape:connector-curvature="0" />
    <path
       id="path2841"
       d="m 2083.1141,588.42204 6.0061,-1.24452 16.5072,0.63416 23.6578,6.60654 1.9638,15.76041 -21.3134,12.20989 -15.8468,4.66543 -6.1279,0.26737 -0.1712,24.67339 6.1235,0.35231 15.7804,4.88519 21.1425,12.50493 -2.183,15.731 -23.7468,6.27805 -16.5147,0.40477 -5.9879,-1.3278 -6.5517,23.78874 5.8235,1.92529 13.9788,8.80275 17.1854,17.55057 -6.1796,14.63017 -24.5633,-0.0822 -16.0566,-3.88302 -5.4404,-2.83252 -12.4853,21.28265 5.1275,3.36696 11.2239,12.12086 12.0569,21.39987 -9.7558,12.53312 -23.7043,-6.43703 -14.5045,-7.90656 -4.5222,-4.14445 -17.5682,17.32612 4.081,4.57893 7.7043,14.61292 6.1073,23.79201 -12.6664,9.58076 -21.231,-12.35334 -11.964,-11.39125 -3.2953,-5.17298 -21.4538,12.18873 2.7566,5.47904 3.6601,16.10915 -0.2588,24.56135 -14.7144,5.97626 -17.3108,-17.42744 -8.6081,-14.09902 -1.8442,-5.84995 -23.877,6.22047 1.2445,6.00619 -0.6341,16.50717 -6.6066,23.65784 -15.7603,1.96373 -12.2099,-21.31334 -4.6654,-15.84686 -0.2675,-6.12793 -24.6734,-0.17117 -0.3523,6.12364 -4.8851,15.78026 -12.505,21.14243 -15.731,-2.18282 -6.278,-23.74685 -0.4048,-16.51475 1.3279,-5.98797 -23.7889,-6.55157 -1.9252,5.82346 -8.8028,13.97874 -17.5505,17.18548 -14.6302,-6.17965 0.082,-24.56322 3.883,-16.05669 2.8324,-5.44035 -21.2826,-12.48535 -3.3668,5.12743 -12.121,11.22405 -21.3998,12.05692 -12.5332,-9.75594 6.437,-23.70419 7.9066,-14.5045 4.1445,-4.52222 -17.3261,-17.56819 -4.579,4.08091 -14.6128,7.70441 -23.7921,6.10728 -9.5808,-12.66646 12.3534,-21.23105 11.3913,-11.96383 5.1729,-3.29542 -12.1888,-21.45372 -5.4789,2.75657 -16.1092,3.66011 -24.5614,-0.25891 -5.9761,-14.71439 17.4274,-17.31068 14.0989,-8.6081 5.85,-1.84421 -6.2205,-23.87701 -6.0061,1.24452 -16.5073,-0.63417 -23.6578,-6.60654 -1.9637,-15.7604 21.3133,-12.20988 15.8469,-4.66544 6.1279,-0.26737 0.1712,-24.67339 -6.1236,-0.3523 -15.7803,-4.88519 -21.1424,-12.50495 2.1829,-15.73099 23.7467,-6.27805 16.5147,-0.40477 5.988,1.32781 6.5517,-23.78875 -5.8235,-1.92529 -13.9788,-8.80275 -17.1854,-17.55056 6.1796,-14.63018 24.5632,0.0822 16.0567,3.88302 5.4404,2.83253 12.4853,-21.28265 -5.1274,-3.36697 -11.2241,-12.12085 -12.0569,-21.39987 9.7559,-12.53312 23.7043,6.43703 14.5044,7.90656 4.5223,4.14444 17.5682,-17.32612 -4.081,-4.57894 -7.7043,-14.61291 -6.1073,-23.79201 12.6663,-9.58076 21.2311,12.35335 11.9639,11.39125 3.2954,5.17296 21.4538,-12.18872 -2.7566,-5.47904 -3.6602,-16.10915 0.2589,-24.56134 14.7144,-5.97627 17.3108,17.42744 8.6081,14.09903 1.8441,5.84995 23.877,-6.22048 -1.2445,-6.00619 0.6342,-16.50717 6.6066,-23.65784 15.7603,-1.96373 12.2099,21.31335 4.6654,15.84686 0.2675,6.12793 24.6733,0.17116 0.3523,-6.12363 4.8852,-15.78026 12.505,-21.14244 15.731,2.18282 6.2781,23.74685 0.4047,16.51475 -1.3279,5.98797 23.7888,6.55157 1.9253,-5.82346 8.8028,-13.97874 17.5505,-17.18547 14.6301,6.17964 -0.082,24.56322 -3.883,16.05669 -2.8325,5.44034 21.2827,12.48537 3.3669,-5.12743 12.1209,-11.22405 21.3997,-12.05692 12.5333,9.75593 -6.4371,23.70419 -7.9066,14.5045 -4.1443,4.52223 17.326,17.56818 4.5789,-4.0809 14.6129,-7.70441 23.7921,-6.10728 9.5807,12.66644 -12.3533,21.23107 -11.3914,11.96382 -5.1729,3.29542 12.1888,21.45373 5.479,-2.75657 16.1092,-3.66012 24.5613,0.25892 5.9762,14.71439 -17.4274,17.31067 -14.0989,8.60811 -5.8501,1.84421 z"
       style="fill:none;stroke:#000000;stroke-width:0.69738591"
       inkscape:connector-curvature="0" />
    <path
       id="path2845"
       d="m 2621.6027,616.37313 6.1139,-0.49236 16.3022,2.67028 22.6594,9.48096 0,15.88228 -22.6594,9.48096 -16.3022,2.67029 -6.1139,-0.49236 -3.2206,24.46291 6.0331,1.10675 15.0552,6.79881 19.4341,15.0231 -4.1111,15.34039 -24.3409,3.29376 -16.438,-1.64025 -5.778,-2.05799 -9.4426,22.79614 5.5409,2.63056 12.783,10.46357 14.8835,19.54075 -7.941,13.75384 -24.3647,-3.1187 -15.4534,-5.83852 -5.0482,-3.48345 -15.0211,19.57563 4.6718,3.97511 9.6394,13.41561 9.3184,22.72642 -11.2308,11.2307 -22.7264,-9.31847 -13.4155,-9.63927 -3.9751,-4.6718 -19.5757,15.02101 3.4834,5.04836 5.8386,15.45339 3.1186,24.36458 -13.7538,7.94112 -19.5408,-14.88361 -10.4635,-12.78308 -2.6305,-5.54074 -22.7962,9.44261 2.0579,5.77784 1.6404,16.43809 -3.2939,24.34086 -15.3403,4.11109 -15.0231,-19.43405 -6.7989,-15.05517 -1.1066,-6.03309 -24.4629,3.22054 0.4923,6.11397 -2.6703,16.3021 -9.4809,22.65946 -15.8824,0 -9.481,-22.65946 -2.6702,-16.3021 0.4923,-6.11397 -24.4629,-3.22054 -1.1067,6.03309 -6.7988,15.05517 -15.0231,19.43405 -15.3404,-4.11109 -3.2938,-24.34086 1.6403,-16.43809 2.058,-5.77784 -22.7962,-9.44261 -2.6305,5.54074 -10.4636,12.78308 -19.5408,14.88361 -13.7537,-7.94112 3.1186,-24.36458 5.8386,-15.45339 3.4833,-5.04836 -19.5756,-15.02101 -3.975,4.6718 -13.4157,9.63927 -22.7264,9.31847 -11.2307,-11.2307 9.3185,-22.72642 9.6393,-13.41561 4.6717,-3.97511 -15.021,-19.57563 -5.0483,3.48345 -15.4533,5.83852 -24.3647,3.1187 -7.941,-13.75384 14.8835,-19.54075 12.783,-10.46357 5.5409,-2.63056 -9.4427,-22.79614 -5.7779,2.05799 -16.438,1.64025 -24.3408,-3.29376 -4.1112,-15.34039 19.4341,-15.0231 15.0552,-6.79881 6.0331,-1.10675 -3.2206,-24.46291 -6.114,0.49236 -16.302,-2.67029 -22.6595,-9.48096 0,-15.88228 22.6595,-9.48096 16.302,-2.67028 6.114,0.49236 3.2206,-24.46291 -6.0331,-1.10675 -15.0552,-6.79883 -19.4341,-15.02308 4.1112,-15.34039 24.3408,-3.29377 16.438,1.64026 5.7779,2.05799 9.4427,-22.79615 -5.5409,-2.63055 -12.783,-10.46358 -14.8835,-19.54076 7.941,-13.75384 24.3647,3.11872 15.4533,5.83851 5.0483,3.48344 15.021,-19.57562 -4.6717,-3.97511 -9.6393,-13.41561 -9.3185,-22.72642 11.2307,-11.23069 22.7264,9.31847 13.4157,9.63927 3.975,4.67179 19.5756,-15.02101 -3.4833,-5.04837 -5.8386,-15.45337 -3.1186,-24.36458 13.7537,-7.94114 19.5408,14.88362 10.4636,12.78309 2.6305,5.54073 22.7962,-9.4426 -2.058,-5.77785 -1.6403,-16.43808 3.2938,-24.34087 15.3404,-4.11109 15.0231,19.43405 6.7988,15.05518 1.1067,6.03308 24.4629,-3.22053 -0.4923,-6.11398 2.6702,-16.30209 9.481,-22.65947 15.8824,0 9.4809,22.65947 2.6703,16.30209 -0.4923,6.11398 24.4629,3.22053 1.1066,-6.03308 6.7989,-15.05518 15.0231,-19.43405 15.3403,4.11109 3.2939,24.34087 -1.6404,16.43808 -2.0579,5.77785 22.7962,9.4426 2.6305,-5.54073 10.4635,-12.78309 19.5408,-14.88362 13.7538,7.94114 -3.1186,24.36458 -5.8386,15.45337 -3.4834,5.04837 19.5757,15.02101 3.9751,-4.67179 13.4155,-9.63927 22.7264,-9.31847 11.2308,11.23069 -9.3184,22.72642 -9.6394,13.41561 -4.6718,3.97511 15.0211,19.57562 5.0482,-3.48344 15.4534,-5.83851 24.3647,-3.11872 7.941,13.75384 -14.8835,19.54076 -12.783,10.46358 -5.5409,2.63055 9.4426,22.79615 5.778,-2.05799 16.438,-1.64026 24.3409,3.29377 4.1111,15.34039 -19.4341,15.02308 -15.0552,6.79883 -6.0331,1.10675 z"
       style="fill:none;stroke:#000000;stroke-width:0.69738591"
       inkscape:connector-curvature="0" />
    <path
       style="fill:none;stroke:#000000;stroke-width:0.69738591"
       d="m 3147.1258,588.42204 6.0063,-1.24452 16.5071,0.63416 23.6578,6.60654 1.9637,15.76041 -21.3133,12.20989 -15.8468,4.66543 -6.128,0.26737 -0.1712,24.67339 6.1236,0.35231 15.7803,4.88519 21.1426,12.50493 -2.1829,15.731 -23.7469,6.27805 -16.5147,0.40477 -5.988,-1.3278 -6.5516,23.78874 5.8235,1.92529 13.9788,8.80275 17.1854,17.55057 -6.1796,14.63017 -24.5633,-0.0822 -16.0567,-3.88302 -5.4403,-2.83252 -12.4854,21.28265 5.1276,3.36696 11.2239,12.12086 12.0569,21.39987 -9.7559,12.53312 -23.7043,-6.43703 -14.5044,-7.90656 -4.5223,-4.14445 -17.5681,17.32612 4.081,4.57893 7.7043,14.61292 6.1073,23.79201 -12.6664,9.58076 -21.2311,-12.35334 -11.9639,-11.39125 -3.2954,-5.17298 -21.4537,12.18873 2.7566,5.47904 3.6601,16.10915 -0.2588,24.56135 -14.7144,5.97626 -17.3108,-17.42744 -8.6081,-14.09902 -1.8442,-5.84995 -23.877,6.22047 1.2445,6.00619 -0.6341,16.50717 -6.6066,23.65784 -15.7604,1.96373 -12.2099,-21.31334 -4.6654,-15.84686 -0.2674,-6.12793 -24.6733,-0.17117 -0.3524,6.12364 -4.8852,15.78026 -12.5049,21.14243 -15.731,-2.18282 -6.278,-23.74685 -0.4048,-16.51475 1.3279,-5.98797 -23.7889,-6.55157 -1.9252,5.82346 -8.8028,13.97874 -17.5505,17.18548 -14.6302,-6.17965 0.082,-24.56322 3.883,-16.05669 2.8324,-5.44035 -21.2825,-12.48535 -3.367,5.12743 -12.1209,11.22405 -21.3998,12.05692 -12.5332,-9.75594 6.4371,-23.70419 7.9065,-14.5045 4.1445,-4.52222 -17.3262,-17.56819 -4.5789,4.08091 -14.6129,7.70441 -23.792,6.10728 -9.5808,-12.66646 12.3533,-21.23105 11.3914,-11.96383 5.1729,-3.29542 -12.1887,-21.45372 -5.479,2.75657 -16.1093,3.66011 -24.5613,-0.25891 -5.9762,-14.71439 17.4274,-17.31068 14.099,-8.6081 5.85,-1.84421 -6.2205,-23.87701 -6.0062,1.24452 -16.5072,-0.63417 -23.6578,-6.60654 -1.9637,-15.7604 21.3133,-12.20988 15.8469,-4.66544 6.1279,-0.26737 0.1712,-24.67339 -6.1236,-0.3523 -15.7803,-4.88519 -21.1424,-12.50495 2.1829,-15.73099 23.7467,-6.27805 16.5147,-0.40477 5.988,1.32781 6.5516,-23.78875 -5.8234,-1.92529 -13.9788,-8.80275 -17.1855,-17.55056 6.1797,-14.63018 24.5632,0.0822 16.0568,3.88302 5.4402,2.83253 12.4854,-21.28265 -5.1275,-3.36697 -11.224,-12.12085 -12.0569,-21.39987 9.7559,-12.53312 23.7043,6.43703 14.5044,7.90656 4.5223,4.14444 17.5682,-17.32612 -4.081,-4.57894 -7.7043,-14.61291 -6.1073,-23.79201 12.6663,-9.58076 21.2311,12.35335 11.9639,11.39125 3.2954,5.17296 21.4537,-12.18872 -2.7565,-5.47904 -3.6602,-16.10915 0.2589,-24.56134 14.7144,-5.97627 17.3107,17.42744 8.6081,14.09903 1.8442,5.84995 23.877,-6.22048 -1.2445,-6.00619 0.6341,-16.50717 6.6067,-23.65784 15.7603,-1.96373 12.2099,21.31335 4.6654,15.84686 0.2674,6.12793 24.6734,0.17116 0.3523,-6.12363 4.8852,-15.78026 12.505,-21.14244 15.731,2.18282 6.2781,23.74685 0.4046,16.51475 -1.3278,5.98797 23.7888,6.55157 1.9253,-5.82346 8.8027,-13.97874 17.5506,-17.18547 14.6301,6.17964 -0.082,24.56322 -3.8831,16.05669 -2.8324,5.44034 21.2827,12.48537 3.3669,-5.12743 12.1208,-11.22405 21.3998,-12.05692 12.5332,9.75593 -6.437,23.70419 -7.9065,14.5045 -4.1445,4.52223 17.3261,17.56818 4.5789,-4.0809 14.6129,-7.70441 23.792,-6.10728 9.5808,12.66644 -12.3533,21.23107 -11.3914,11.96382 -5.1729,3.29542 12.1888,21.45373 5.479,-2.75657 16.1092,-3.66012 24.5613,0.25892 5.9763,14.71439 -17.4275,17.31067 -14.099,8.60811 -5.85,1.84421 z"
       id="path2849"
       inkscape:connector-curvature="0" />
    <path
       id="path2877"
       d="m 1017.5156,588.42204 6.0061,-1.24452 16.5073,0.63416 23.6578,6.60653 1.9637,15.76041 -21.3134,12.2099 -15.8468,4.66542 -6.1279,0.26737 -0.1712,24.6734 6.1237,0.35231 15.7802,4.88518 21.1424,12.50494 -2.1828,15.731 -23.7469,6.27804 -16.5147,0.40478 -5.9879,-1.3278 -6.5517,23.78874 5.8235,1.92529 13.9789,8.80275 17.1854,17.55057 -6.1797,14.63017 -24.5633,-0.0822 -16.0567,-3.88303 -5.44021,-2.83251 -12.48541,21.28265 5.12746,3.36697 11.224,12.12085 12.05686,21.39986 -9.7558,12.53313 -23.70431,-6.43703 -14.50447,-7.90655 -4.52222,-4.14447 -17.56821,17.32613 4.08094,4.57893 7.70439,14.61292 6.10731,23.79201 -12.6664,9.58075 -21.23109,-12.35333 -11.96388,-11.39125 -3.2954,-5.17298 -21.45374,12.18873 2.75656,5.47904 3.66013,16.10916 -0.25892,24.56133 -14.7144,5.97627 -17.31063,-17.42744 -8.60812,-14.09902 -1.8442,-5.84995 -23.877,6.22047 1.24451,6.00619 -0.63415,16.50717 -6.60654,23.65784 -15.7604,1.96373 -12.2099,-21.31334 -4.66543,-15.84685 -0.26737,-6.12794 -24.67339,-0.17117 -0.35231,6.12364 -4.88519,15.78026 -12.50494,21.14243 -15.731,-2.18283 -6.27803,-23.74684 -0.40479,-16.51475 1.32781,-5.98797 -23.78875,-6.55158 -1.92529,5.82347 -8.80275,13.97874 -17.55057,17.18547 -14.63017,-6.17964 0.0823,-24.56323 3.88303,-16.05668 2.83252,-5.44035 -21.28265,-12.48535 -3.36698,5.12743 -12.12084,11.22404 -21.39987,12.05694 -12.53312,-9.75595 6.43702,-23.7042 7.90655,-14.50449 4.14448,-4.52223 -17.32613,-17.56818 -4.57894,4.08091 -14.61291,7.70441 -23.79202,6.10727 -9.58075,-12.66646 12.35334,-21.23105 11.39125,-11.96382 5.17297,-3.29543 -12.18872,-21.45372 -5.47905,2.75658 -16.10916,3.66011 -24.56132,-0.25891 -5.97628,-14.71439 17.42744,-17.31069 14.09903,-8.6081 5.84995,-1.8442 -6.22047,-23.87702 -6.0062,1.24453 -16.50717,-0.63417 -23.65783,-6.60654 -1.96373,-15.7604 21.31334,-12.20989 15.84684,-4.66543 6.12796,-0.26737 0.17115,-24.67339 -6.12363,-0.35231 -15.78027,-4.88518 -21.14242,-12.50495 2.18282,-15.73099 23.74684,-6.27805 16.51476,-0.40478 5.98796,1.32781 6.55158,-23.78875 -5.82347,-1.92528 -13.97874,-8.80275 -17.18546,-17.55056 6.17963,-14.63018 24.56323,0.0822 16.05669,3.88303 5.44034,2.83252 12.48536,-21.28265 -5.12744,-3.36697 -11.22403,-12.12085 -12.05694,-21.39986 9.75594,-12.53313 23.7042,6.43704 14.50449,7.90655 4.52223,4.14445 17.56819,-17.32612 -4.08091,-4.57894 -7.70441,-14.61291 -6.10727,-23.79201 12.66645,-9.58076 21.23106,12.35334 11.96381,11.39126 3.29543,5.17296 21.45373,-12.18873 -2.75658,-5.47904 -3.66012,-16.10915 0.25892,-24.56133 14.71438,-5.97628 17.3107,17.42744 8.6081,14.09903 1.84419,5.84995 23.87703,-6.22047 -1.24454,-6.0062 0.63417,-16.50716 6.60654,-23.65784 15.7604,-1.96374 12.2099,21.31335 4.66542,15.84686 0.26737,6.12794 24.67339,0.17115 0.35232,-6.12362 4.88518,-15.78027 12.50494,-21.14243 15.73099,2.18282 6.27805,23.74684 0.40478,16.51475 -1.3278,5.98797 23.78874,6.55158 1.92528,-5.82346 8.80272,-13.97874 17.5506,-17.18547 14.63023,6.17964 -0.0828,24.56322 -3.88298,16.05668 -2.83249,5.44034 21.28262,12.48537 3.36696,-5.12742 12.12091,-11.22405 21.39988,-12.05693 12.53303,9.75594 -6.43696,23.70419 -7.90657,14.50449 -4.14445,4.52224 17.32615,17.56817 4.57885,-4.0809 14.6129,-7.7044 23.79208,-6.10728 9.5807,12.66644 -12.3533,21.23107 -11.39122,11.96382 -5.17304,3.29542 12.18875,21.45373 5.47901,-2.75658 16.1092,-3.66011 24.5614,0.25892 5.9762,14.71438 -17.4275,17.31069 -14.0989,8.6081 -5.85,1.84421 z"
       style="fill:none;stroke:#000000;stroke-width:0.69738591"
       inkscape:connector-curvature="0" />
  </g>
</svg>
