<?xml version="1.0" encoding="UTF-8" standalone="no"?>
<!-- Created with the Eggbot TSP art toolkit (http://egg-bot.com) -->

<svg
   xmlns:dc="http://purl.org/dc/elements/1.1/"
   xmlns:cc="http://creativecommons.org/ns#"
   xmlns:rdf="http://www.w3.org/1999/02/22-rdf-syntax-ns#"
   xmlns:svg="http://www.w3.org/2000/svg"
   xmlns="http://www.w3.org/2000/svg"
   xmlns:sodipodi="http://sodipodi.sourceforge.net/DTD/sodipodi-0.dtd"
   xmlns:inkscape="http://www.inkscape.org/namespaces/inkscape"
   height="800"
   width="3200"
   id="svg2"
   version="1.1"
   inkscape:version="0.92.2 5c3e80d, 2017-08-06"
   sodipodi:docname="Mona Lisa TSP art.svg">
  <title
     id="title2989">Mona Lisa TSP art</title>
  <defs
     id="defs12" />
  <sodipodi:namedview
     showgrid="false"
     showborder="true"
     inkscape:showpageshadow="false"
     id="namedview4"
     inkscape:zoom="0.18125"
     inkscape:cx="1600"
     inkscape:cy="400"
     inkscape:window-width="1084"
     inkscape:window-height="604"
     inkscape:window-x="40"
     inkscape:window-y="40"
     inkscape:window-maximized="0"
     inkscape:current-layer="svg2" />
  <metadata
     id="metadata6">
    <rdf:RDF>
      <cc:Work
         rdf:about="">
        <dc:format>image/svg+xml</dc:format>
        <dc:type
           rdf:resource="http://purl.org/dc/dcmitype/StillImage" />
        <dc:subject>
          <rdf:Bag>
            <rdf:li>Egg-Bot</rdf:li>
            <rdf:li>Eggbot</rdf:li>
            <rdf:li>TSP</rdf:li>
            <rdf:li>TSP art</rdf:li>
          </rdf:Bag>
        </dc:subject>
        <dc:description>TSP art created with the Eggbot TSP art toolkit (http://egg-bot.com)</dc:description>
        <dc:title>Mona Lisa TSP art</dc:title>
        <dc:creator>
          <cc:Agent>
            <dc:title>Dan Newman</dc:title>
          </cc:Agent>
        </dc:creator>
        <cc:license
           rdf:resource="" />
      </cc:Work>
    </rdf:RDF>
  </metadata>
  <g
     transform="matrix(2.1213155,0,0,-2.1213155,1261.2383,787.08428)"
     id="g8"
     style="stroke-width:0.4714056">
    <path
       style="fill:none;stroke:#000000;stroke-width:0.4714056"
       d="m 21,364 2,-1 2,1 1,-2 -2,-1 v -2 -2 -2 l 1,-1 h 2 l 2,-2 1,-2 h 2 v -2 l 1,-2 2,2 v 2 l -1,2 v 2 l -2,-1 -2,1 -1,2 v 2 l -2,-1 -1,2 2,1 1,2 -1,2 h 3 l 1,-2 -1,-2 1,-2 v -2 h 2 l 1,2 2,-1 v -2 l 1,-2 2,-1 v 4 l -1,3 -2,1 h -3 l 1,2 -1,2 h 3 l 2,-1 1,-1 h 3 3 l 3,-1 4,-1 1,-3 4,1 2,-4 1,-5 -5,-1 -1,4 -4,1 -2,3 -1,1 -3,1 h -3 l 1,-3 1,-2 2,-2 1,-2 h 3 l 2,-1 -2,-4 4,-1 h 4 l 5,-1 1,-4 4,-3 -6,-3 -3,2 -2,4 h -5 l -3,2 -2,4 -3,-1 -1,3 -1,2 -1,1 -3,1 v -3 l 1,-3 -3,1 v -3 l 3,-1 2,-1 3,-1 1,-2 2,-2 3,-2 h 4 l 1,-3 4,-3 5,-2 4,1 -1,-8 4,-3 3,-6 4,-1 h 8 l -8,-6 4,-3 4,1 6,-1 8,2 8,-4 v 9 h 9 v -9 l 8,3 6,-1 3,-3 6,-3 6,1 6,-3 -5,-6 3,-2 -1,-4 2,-2 3,2 2,-1 1,-4 -2,1 -1,-3 2,-1 2,-1 3,-1 -1,3 3,-1 2,1 -2,2 -2,1 -1,2 v 3 l -2,2 -3,1 v 4 h 5 l 2,-3 2,-2 v -3 l 2,-2 1,-2 1,-2 -1,-3 1,-2 2,-2 2,-1 1,-1 2,-1 3,1 -2,2 v 2 h -3 l -1,1 -1,2 v 2 l 3,-1 3,-1 v 3 l -2,2 -2,3 -2,-3 -2,3 -1,2 -1,3 -1,4 -2,2 -3,3 -3,6 -6,3 -6,2 -6,6 -5,3 -8,-3 -3,7 -6,1 h -6 l -4,5 -5,3 h -5 l 3,-12 -5,-1 -6,6 -6,-2 -2,5 -3,2 -1,6 6,1 8,1 9,3 8,-1 7,1 1,-8 7,-4 5,-4 9,6 7,2 4,-9 7,-3 8,-8 3,-4 3,-1 7,1 3,-6 v -5 h 4 l 3,-2 3,-3 1,-4 3,-2 h 3 l 3,-2 4,1 1,4 h -4 l -1,4 -3,-1 -3,2 1,6 -6,2 -1,7 -4,2 -1,5 h -6 l -2,5 -4,1 -4,3 -4,-1 -5,5 -3,11 10,4 6,-1 1,9 6,2 v -6 l 1,-5 6,-2 3,-3 4,1 -1,5 -5,4 v 7 l 5,-4 4,-2 2,-5 v -4 l 4,2 3,1 -1,4 -3,1 3,4 -4,1 -3,4 -3,3 7,4 2,-4 2,-3 5,-1 4,2 -1,3 -3,-1 -2,3 -1,3 5,1 1,-2 4,2 v -3 l 1,-2 2,-1 2,-2 2,-2 3,-1 1,-2 v -3 l -1,-3 2,-2 2,-3 1,-3 2,-1 -1,-3 1,-1 1,-3 v -3 l -4,-1 -1,3 -1,2 -3,-3 -4,1 -2,2 v 4 l -3,1 -2,3 -1,3 4,1 1,-3 3,-1 2,-2 v -3 l 2,-2 3,3 -1,3 -1,2 -2,2 -2,2 -2,2 3,2 v 3 l -3,-1 -1,3 -2,2 -2,-1 1,-4 v -4 l -3,1 -2,4 -3,-1 v -4 l 1,-3 -1,-4 2,-3 2,-3 2,-2 2,-4 h -3 -4 l -2,4 -2,2 -2,2 -5,-2 2,-4 3,-3 2,-4 h 4 4 v -3 l 3,-3 4,-1 1,4 -3,3 2,3 4,-1 2,-1 4,-1 3,1 2,-3 v -4 l 2,-6 -3,2 -4,1 v 4 h -5 l -1,-5 1,-3 4,-2 5,-2 h 4 l -1,-4 h 4 v -4 l 1,-4 h 4 l -1,-3 -1,-3 3,-1 1,3 3,-3 1,-2 1,-1 h 3 l -1,-3 1,-2 3,-1 v 2 3 l 1,3 -1,1 -3,1 -2,2 -2,1 -1,3 v 3 l -3,1 -2,1 -1,4 h 4 l 3,-2 3,-3 v -3 l 4,1 -1,-3 1,-3 3,-1 2,-2 1,-1 2,3 1,-2 1,-2 v -3 h 3 l -1,-2 v -2 h 3 v -2 l 2,-1 -1,-3 -1,1 -3,1 -1,1 -2,1 v 2 l -1,2 -1,2 -1,1 h -3 v -3 l 2,-2 -2,-1 2,-1 1,-2 v -2 h 3 l 2,-1 v -2 -2 h 3 v 3 l 2,-1 1,-2 v -2 l 2,-1 1,-2 2,2 -1,2 -1,2 -1,2 v 2 l 1,2 -1,2 -1,2 h 3 v 2 l 1,2 2,-1 v -2 l 2,-1 -1,-2 -2,1 v -2 l 2,-1 -1,-2 h -2 l 1,-2 v -2 l 1,-2 1,-2 -1,-2 -2,-1 v -2 -2 l 1,-1 -3,-1 1,-2 h 2 l -1,-3 -3,-1 -1,2 -1,2 v 3 l 2,2 -1,2 -2,2 -1,-4 -1,2 -2,-1 v 3 l 2,2 -2,1 -3,-1 -1,2 -1,1 v 2 h -2 -2 v 3 l -2,2 -2,1 -1,-3 2,-1 v -2 -2 l -1,-2 -3,1 -1,-2 2,-1 -1,-2 2,-1 1,-2 h -4 l -2,2 v 2 l -1,2 1,2 1,2 h 3 l -1,2 -1,2 v 2 l 2,2 -3,1 -1,2 -1,2 -3,3 v -3 l -3,1 -1,2 h -3 l -2,2 2,4 -2,1 -2,2 -1,4 -4,-1 -2,4 -2,3 h -5 l -3,3 -2,4 -4,1 -3,3 -5,-2 v 5 l -5,-1 -1,3 -1,4 -3,3 -2,3 -2,4 -4,-2 -6,2 -3,2 h -7 l -6,-3 7,-2 3,-4 6,2 1,-5 4,2 3,-1 4,-3 -6,-3 5,-2 1,-4 1,-5 5,2 1,-5 v -6 l 4,-3 4,3 -1,4 v 5 l 6,-3 2,-3 3,-3 h 5 l 2,-3 2,-3 h 4 l 2,-4 1,-3 -3,-3 -1,3 -2,2 h -4 l -2,2 -1,4 h -4 l -4,2 -5,-3 2,-3 2,-2 3,1 2,-2 2,-3 2,-2 2,-1 v 4 l 4,-2 -1,-3 h 3 l 1,-1 2,-2 2,-1 2,-1 1,-2 1,-2 2,-1 1,-2 1,-2 h 3 l -1,2 2,1 v 2 l -3,-1 -1,2 2,1 -2,2 -2,-2 -1,2 -1,3 -3,1 -1,3 2,1 2,-2 h 3 v -3 l 3,-1 v 2 h 3 l 1,-2 -2,-2 2,-1 2,1 -1,-3 1,-1 -1,-2 -1,-2 -1,-2 1,-2 v -2 l 1,-2 2,-1 1,-2 h 3 l 1,-1 v -3 l 4,1 -2,-4 h 4 v -3 l 3,1 1,-3 h 3 l -1,-3 1,-2 2,-2 3,-1 h 3 v -2 l 1,-1 2,-2 v -3 l 1,-1 v -2 l 1,-2 -2,-1 -2,1 v 2 l -1,3 v 2 l -2,1 -2,2 -3,1 -3,1 -2,1 -1,3 -2,2 -2,1 -4,2 -2,3 -2,4 -2,1 -1,3 -2,-2 -1,2 1,2 -1,2 -1,2 v 2 l -2,1 -1,-2 -1,-2 h 2 v -2 l 1,-1 -1,-2 1,-2 1,-3 -3,1 -1,2 -1,2 v 2 l -1,1 -1,2 1,2 -1,2 h 2 l -1,2 -1,2 -2,1 -1,2 -2,2 -1,-2 1,-2 1,-2 2,-1 -1,-2 1,-2 -1,-2 1,-2 1,-2 1,-2 -1,-2 1,-1 1,-2 2,-2 -4,-3 3,-3 5,-2 v 5 l 2,4 2,-3 2,-4 3,-2 3,-2 3,-2 2,-4 1,-2 1,-3 -4,-1 3,-3 2,-2 2,3 1,-3 1,-1 1,-2 1,-2 2,-2 v -3 l -2,1 -2,-1 -1,2 -1,2 -2,2 -4,1 -3,1 v 3 l -4,1 -5,4 3,-1 5,2 1,4 h -4 l -4,2 -3,1 h -5 l -4,2 h -3 l -1,3 -2,2 -2,1 -2,2 -1,2 -1,2 v 2 3 l 2,-1 1,2 v 2 l 1,2 2,-2 v -2 l -1,-2 1,-2 h -3 v -2 l 3,-1 h 3 v 3 l -1,2 1,2 -1,2 -1,2 -1,2 -2,1 1,2 2,-1 v 3 h -2 v 2 l -1,2 -1,2 1,2 -1,2 -2,-1 -1,2 -3,1 -3,1 -3,2 -2,2 -3,1 -5,2 1,-3 1,-3 h 3 l 1,-2 h 3 l -1,-3 -1,-3 h 2 v -2 l -2,-1 2,-1 2,-1 1,2 v 2 2 l -1,2 2,1 3,-1 v -2 l -1,-2 v -2 l -1,-2 h 2 l 2,-1 v 2 3 l 1,1 1,-2 1,-2 v -2 -2 h -2 l 1,-2 1,-2 -1,-2 -1,-2 h -2 l -1,1 h -3 v 2 l -1,2 h 3 l 1,-2 2,1 -1,2 -1,2 h -2 l -2,1 v -2 h -3 v 2 l -2,1 h -2 l -2,2 2,2 -1,1 v 2 l 1,2 -2,1 h -3 l -1,1 -1,2 -1,3 h -3 l 1,-3 -4,-1 v 3 l -3,1 -2,1 -3,-2 -1,3 -3,1 -1,3 -2,3 -4,1 -3,1 -2,3 -2,4 h -4 l 1,-6 1,-3 2,-2 3,-1 1,-3 2,-2 1,5 2,-2 1,-3 2,-2 2,-1 v -3 l 1,-3 1,-2 v -3 l -4,-2 v 4 l -2,1 2,2 -2,1 v 2 l -2,3 -1,-3 -1,-3 1,-2 1,-3 -1,-4 v -4 l 1,-2 -1,-2 -3,1 -1,2 -1,2 v 4 l -5,2 1,-2 v -4 h -3 l -3,1 2,1 -1,2 1,2 v 2 l -1,2 -2,2 -2,-1 1,-2 1,-2 -1,-3 -1,1 -1,2 h -2 v -2 -2 l 1,-1 2,-1 -1,-2 1,-2 2,1 1,-2 3,-1 3,1 -1,-3 2,-1 2,2 3,-1 -1,-3 -4,-1 -3,1 h -3 l -1,2 -2,1 -3,1 -2,2 v 2 2 l -2,2 v 2 2 l -2,2 h 2 l 3,1 -1,2 -2,1 -2,-1 -1,2 -2,2 -1,2 -3,1 -1,2 -2,3 -4,3 -7,2 h -8 l 1,-9 h -4 l -3,4 -3,5 -4,3 -5,3 h -7 l -5,-1 -7,-1 -3,3 2,-9 3,-3 6,1 6,1 5,-1 1,-5 5,1 3,-5 3,-4 -2,-5 4,-1 3,-1 1,-4 5,-1 2,-2 h 3 v -3 l 3,3 1,-2 1,-1 -2,-2 2,-1 -2,-2 -1,-2 v -2 l 1,-1 1,-2 1,-3 2,-1 v -3 l 2,-1 1,3 2,-1 v -3 l 2,1 1,-2 h 3 l -1,4 -1,2 -2,1 -3,1 -1,1 v 2 l -3,-2 v 2 2 l -2,1 1,2 h 2 l 2,-1 2,-1 2,-1 v -2 l 1,-1 3,-1 2,-2 v -3 l 1,-2 1,-3 3,1 v 4 l -1,3 4,2 -3,2 -1,3 -1,2 -2,-1 v -4 l -3,1 -1,3 -2,1 -1,1 v 2 l -1,2 -2,1 -1,-4 -2,1 v 2 2 2 l -2,1 1,2 -1,2 -2,1 -1,-3 -3,1 v 3 h -4 l -1,1 -1,4 -4,1 5,4 4,-4 3,-1 2,-2 1,-1 h 3 l 1,-2 1,-2 v -2 l 1,-2 2,-1 1,-1 1,-2 1,-2 1,-2 h 3 l -1,2 -1,2 -1,2 v 2 2 l -2,-1 -2,1 2,2 v 2 l -2,-1 v 2 l -2,1 2,2 -1,1 h -3 v 3 l -3,-1 -2,2 -2,2 -4,5 h 5 l 4,-2 1,-3 h 4 l 1,-2 1,-1 2,-2 v -2 l 1,-2 1,-2 v -2 l 2,-2 v -2 -2 l 1,-2 2,-2 2,-2 3,-1 v -3 h 3 l 2,-4 2,-3 4,-2 4,-3 4,-2 2,-4 2,-3 2,-2 3,2 v 3 l -3,1 v 4 l -1,3 -3,2 -5,2 -1,6 5,-1 5,-1 v 2 2 l -2,1 2,1 v 2 l 1,2 1,2 -2,2 -1,-2 -1,-2 -1,-2 -4,1 2,1 1,2 1,2 -1,3 h 3 3 l 1,-2 1,-1 1,-2 2,-1 v 3 2 l -1,2 4,2 -4,3 v 3 l -1,1 -1,2 -2,2 2,1 h 3 l 1,-2 2,-1 v -2 -2 l 2,-1 2,2 -1,3 2,1 1,-2 2,-1 2,1 1,-2 v -2 h -3 l -2,1 -1,-3 3,-1 2,-1 2,-2 3,-1 1,-2 2,-1 2,-1 v -2 -2 l -1,-2 -2,1 -2,1 2,1 -1,2 h -2 l -1,-2 -1,-2 h -2 v 2 l 1,2 1,2 -1,1 -2,1 -2,1 -3,1 -3,-1 -1,-2 -1,-2 1,-2 1,-2 h -2 l 1,-2 -1,-2 v -2 h 3 v 2 l 2,1 -1,1 1,2 1,2 -2,1 -1,1 1,2 2,-1 h 2 l 1,-2 -1,-2 v -2 l -1,-2 -1,-3 1,-2 1,-2 1,-2 -4,1 -2,2 h -3 l -1,1 -2,1 v 2 l 1,2 -1,1 v 2 l -2,1 -1,-2 v -2 -2 -2 -2 -2 h 3 l -1,-3 4,2 1,-1 3,-2 4,-1 2,-2 3,1 1,-2 1,-2 1,-3 1,-1 2,4 v 3 l -1,2 -2,2 -1,3 -2,-1 -2,3 3,1 2,1 -2,1 h -2 l -3,-1 v 2 l 1,2 2,-1 2,1 h 2 l 2,-1 1,-1 1,-2 -2,-1 2,-2 1,-2 1,-3 v -3 l 1,-2 -2,-3 3,-1 v -5 l -3,2 -3,-1 -5,-2 -1,3 v 3 l -2,2 -4,1 1,-4 2,-2 -3,-2 -3,2 -1,1 v 3 l 1,4 h -4 l -4,-1 3,-3 v -3 l -1,-4 5,-1 1,-9 4,-9 3,-3 h 7 l 4,-4 4,-3 3,-4 2,-4 h 5 l 1,-4 2,-3 v -3 -3 l -4,-2 -2,2 1,4 -2,3 -2,1 -4,1 -3,2 -2,5 -9,2 3,-3 1,-6 1,-5 4,-2 4,-1 h 4 l -3,-5 2,-2 3,1 v -4 l 2,-3 3,-1 v -3 l 1,-2 3,1 -1,-3 2,-1 2,-1 1,3 h 3 v 3 h -3 l -1,2 -3,1 4,2 -2,1 -3,1 h -3 l -1,3 3,2 h 3 l 1,-2 2,-1 4,2 -1,1 -2,2 -2,2 v 3 4 l -1,3 -1,3 -1,4 h -4 l -2,3 v 5 l -2,3 -1,5 h -6 l -6,8 5,1 9,-2 h 5 v -6 l 1,-4 4,-1 -4,-3 1,-4 4,-1 4,-1 v 4 l -3,2 3,3 -2,4 -2,3 1,5 -2,1 -2,5 -4,2 h -4 l -2,3 -1,4 -3,3 v 3 3 l -1,3 -1,3 v 3 2 h -2 v 2 l 2,1 h 2 l 2,-1 -1,-2 v -2 -3 l 1,-3 2,-3 v -3 l 1,-2 3,1 1,-4 3,-1 4,-2 4,-2 v -4 l 3,-2 4,-1 4,-1 2,-3 v -3 l 2,-2 3,-1 -1,5 3,-1 2,-2 v -3 l 3,-1 v -2 h 3 l 2,3 1,-1 v -2 l 2,-1 1,-2 v -2 -2 l 1,-2 v -2 -2 l -1,-2 v -2 l 2,1 1,-2 -2,-1 v -2 l 1,-1 -2,-2 -1,-2 2,-1 1,2 2,-1 -1,-2 2,-1 1,-2 1,-1 h 2 l -1,-2 v -2 l -1,-2 1,-2 -2,-1 -2,1 1,2 -1,1 1,2 -1,2 -1,2 -2,1 -2,1 -1,-2 1,-1 2,-1 1,-2 -1,-2 -1,-2 2,-1 v -2 l 2,-1 -1,-2 -2,1 -1,-2 2,-1 1,-2 -1,-2 2,-1 -3,-1 2,-1 v -2 -2 l 1,-2 1,-2 1,-2 1,2 v 2 l -1,2 -1,2 1,2 1,2 v 2 l -1,1 2,1 v 2 l -3,-1 1,2 1,2 2,-1 1,2 1,2 -1,2 1,2 v 2 l 1,2 -1,2 -2,1 -2,1 -1,2 1,2 -1,1 -2,1 1,2 2,-1 2,-1 1,-2 -1,-2 2,-1 2,-1 1,-2 h 2 v 2 2 h 3 v 2 l -2,1 1,1 -1,2 1,2 -1,2 h 2 v 2 h -3 l -1,2 -1,2 v 2 2 2 l 1,2 -1,2 h -3 l 1,-2 -1,-2 v -2 -2 l 1,-2 v -2 l 1,-2 1,-2 1,-2 -1,-2 1,-2 -1,-2 -1,-2 -1,2 v 2 l -1,2 -1,2 h 2 l -1,2 -1,2 -1,2 v 2 l -1,2 -1,-2 -1,-2 1,-2 1,-2 v -2 h -2 l -1,2 -1,2 -1,2 1,2 1,2 -2,1 v 2 2 l -1,2 v 2 l -2,1 1,2 v 2 l -1,1 v 2 2 l -2,1 -1,3 -1,2 -1,2 -1,2 -3,1 v 4 l 3,-1 2,-1 2,-2 1,-2 v -3 l 1,-2 1,-1 3,1 -1,-3 1,-2 -1,-2 2,-1 -1,-2 v -2 l 1,-1 v -3 l 1,-2 v -2 l 2,-1 v 2 l 1,2 -1,2 -1,1 v 3 l 2,-1 2,-1 1,2 -1,1 -2,1 -1,1 -1,2 v 2 l -1,2 v 2 l 2,-1 1,-2 2,-1 -1,-2 h 2 v -2 l 2,-1 1,-2 -1,-2 h 2 l 1,-2 1,-2 -2,-2 1,-2 v -2 -2 l 1,-2 1,2 1,2 v 2 l -1,2 h 2 v 2 l -1,2 -1,2 -1,2 -1,2 -1,2 1,2 h -3 l 1,2 h 2 v 2 2 l 1,2 1,2 v 2 l -1,1 1,3 -2,-1 -1,-2 v -3 l -2,-1 -1,2 -1,-2 1,-2 h 2 l -1,-2 -1,-2 -2,1 -1,2 -1,1 v 2 l 1,2 h -2 v 2 l -1,2 1,2 -2,1 -1,2 -1,2 v 2 l 1,2 -1,2 1,2 h -3 l -2,-1 1,-3 v -2 h -3 l -1,2 -1,2 2,3 -3,1 -2,1 -1,2 v 3 l -3,-1 -1,2 -1,2 -3,1 3,2 -2,1 -1,2 -2,1 2,2 1,2 2,-2 1,-2 2,-1 1,-1 v -3 l 2,-2 h 3 v -2 -3 l 2,-2 3,-1 h 2 2 l 2,-1 1,2 -1,2 v 2 l 1,2 v 2 2 l -1,2 h 2 l 1,2 2,-2 -1,-2 v -2 -2 l -1,-2 v -2 l 1,-2 v -2 l -2,-1 -1,-2 v -2 -2 l 2,-1 v -2 h -3 l 1,-2 2,-1 1,-1 -1,-3 1,-1 2,-1 1,2 -1,2 1,2 1,-2 2,1 v 2 l -3,1 h -2 l 1,2 v 2 l -2,1 2,2 -2,1 2,1 1,2 2,-1 v -2 l -1,-2 1,-2 v -2 l 2,-1 1,2 2,-1 -1,-2 2,-1 -2,-1 1,-1 1,-2 -1,-2 1,-2 v -2 l -1,-2 -1,-2 v -2 -2 -2 l -1,-2 1,-2 h 2 l -1,-2 1,-2 1,-2 h 2 l -1,-2 v -2 l -1,-2 v -2 l -1,-2 -1,-2 1,-2 v -2 l -1,-2 -1,-2 1,-2 1,-2 -1,-2 1,-2 h -3 v -2 -2 l 1,-2 1,-2 v -2 h -2 l -1,2 -1,2 -1,2 -2,-1 v -2 l 1,-1 1,-2 h -3 v -2 -2 l -1,-2 -1,-2 v -2 l -1,-2 v -2 l -1,-2 -1,-2 1,-2 1,-2 v -2 l -1,-2 -1,-2 v -2 l 2,-2 1,2 v 2 l 1,2 1,2 v 2 l -2,2 v 2 l 1,2 v 2 l 1,2 2,-2 v -2 l 1,-2 h -2 v -2 l 2,-1 v -2 l -1,-2 -1,-2 v -2 l -1,-2 v -2 l 1,-2 2,-1 1,-2 v -2 l 1,-2 -1,-2 h 2 v -2 -2 l -1,-2 h -2 v 2 l -1,1 -2,1 v 2 h 2 v 2 l -1,2 v 2 l -2,-1 v 2 2 l -2,1 -1,-2 v -2 -2 l 1,-2 h 2 l -2,-2 v -2 l 1,-2 2,-1 v -2 l 1,-2 h -2 v -2 l -1,-2 v -2 l -1,-2 -2,1 v 2 l 1,2 -1,1 v 2 l 2,1 v 2 h -2 v 2 l -1,2 v 2 2 l -1,2 v 2 2 l 1,2 v 2 l -1,2 -1,2 -2,-2 1,-2 v -2 l -1,-2 -1,2 -1,2 -1,2 v 2 h 2 l 1,2 -1,2 -1,2 -1,2 v 2 l -1,1 -1,2 -2,1 1,2 2,-1 1,2 -2,1 -1,2 1,2 1,2 -1,1 -1,2 1,2 1,2 -2,1 -2,-1 v 2 h -2 l -2,1 -2,-1 1,-2 2,-1 v -2 l 3,1 -1,-2 1,-2 v -2 -2 l -1,-2 1,-1 -1,-2 -1,-2 1,-2 -1,-2 2,-1 1,2 1,-3 -1,-2 h 2 l 1,-2 1,-2 -3,-1 v 2 h -2 l -1,2 -1,2 -2,1 -1,2 1,2 -1,1 v 2 l 1,2 v 2 l 1,2 v 2 2 l -2,1 -1,2 -2,2 -1,1 v 2 l -1,3 3,-1 v 2 2 h -2 v 3 h 3 l 1,2 -2,2 -2,-1 -1,2 -1,2 v 3 l -1,2 h 4 l 2,-2 -2,-1 2,-2 2,-1 2,-1 1,-1 v -2 l -2,-2 1,-2 -2,-1 1,-2 1,-1 h 2 l 2,2 -1,1 v 2 2 l 2,1 v 2 l -1,1 v 2 2 l 1,2 v 2 2 l -1,2 v 2 l -1,2 h -3 v -2 -2 l 1,-1 1,-3 v -2 l -1,-3 -1,1 -1,2 v 2 l -2,1 -2,1 h -3 l -2,2 3,1 h 3 l 1,3 -3,3 v -3 h -3 v 3 l -2,1 -3,1 -3,-1 -1,3 v 4 l -2,2 h -4 v -4 l 1,-3 1,-3 v -3 h 4 3 l 2,-1 v -3 -3 l -3,1 -2,2 h -4 v -3 l 1,-3 2,1 3,-1 3,-1 1,-2 h -4 -4 v -3 h 3 3 l 2,-1 1,-2 1,-2 v -3 l -2,-2 1,-2 1,-2 v -3 l -2,-1 -1,2 -1,2 -1,2 -1,2 -1,2 4,1 -1,2 h -3 l -1,2 -2,-4 -2,2 -1,2 -1,3 v 3 l -3,1 -3,1 2,-4 1,-3 v -3 l 1,-2 -1,-3 1,-2 3,3 1,-3 2,1 1,-2 1,-2 2,-2 -2,-1 -3,1 -2,2 -1,-4 3,-1 1,-1 1,-3 2,1 1,3 2,-1 v -3 l 1,-2 v -2 l 1,-2 h -3 v -2 -2 l 2,-1 v -2 h -3 v -2 l -2,-1 -1,-3 3,1 v -2 l 1,-1 -1,-3 v -2 l -1,-2 1,-2 2,1 -1,-3 v -3 l -1,1 h -3 v 3 l -1,2 1,3 v 3 l -1,1 -2,2 v 3 l -1,1 -1,2 v 2 l 3,-1 2,-1 1,3 -1,1 v 2 l -1,2 2,1 2,2 -2,1 -3,-1 -1,3 -2,2 -3,1 v -3 l 2,-2 1,-2 1,-2 1,-3 h -2 l -2,-2 -2,1 -1,-3 2,-2 -3,-1 1,-2 h 3 l 1,-2 1,-2 1,-2 1,-2 -3,-1 v -3 l 2,1 v -3 l 1,-2 1,-2 3,-1 2,-1 v -2 l 2,-1 1,-2 h 2 v -3 h 2 v -2 l -1,-2 1,-2 2,2 1,-2 2,-1 2,-1 2,-1 1,2 -1,1 -2,1 v 2 h -2 l -1,1 1,2 h -2 v 2 l -2,1 -1,2 -2,1 -1,2 2,1 -2,1 v 2 2 l 1,2 v 2 2 l -2,1 2,2 -1,1 v 2 2 l -1,2 h 3 l -1,2 2,1 v 2 l -1,1 -1,2 h 2 l 1,3 -1,1 v 2 l 1,3 -2,-1 -1,2 v 2 h 3 l 2,-1 1,-2 1,-2 -2,-1 1,-2 v -2 l -1,-2 v -2 -2 -2 l 1,-1 -2,-1 -2,-2 1,-2 v -2 -2 l 1,-2 -1,-2 h 3 2 v -2 l 2,-1 h 2 l 1,-2 v -2 -2 l 2,-1 1,-1 1,-2 1,-2 h 2 v 2 l -1,2 v 2 l -2,1 -2,1 1,2 -1,2 -1,2 -1,1 h -2 l 1,2 -2,1 h -2 l -2,1 v 2 l 1,2 -2,1 2,2 2,-1 1,-2 -1,-2 h 2 l 1,-1 2,-1 1,-1 1,-2 1,-2 1,-2 v -2 l 1,-2 2,2 1,-2 v -2 -2 l 1,-2 v -2 -2 l 1,-2 -1,-2 v -2 -2 -2 l -1,-2 v -2 l 1,-2 1,2 1,2 2,-1 v -2 -1 l -2,-1 2,-1 -1,-2 1,-2 1,-2 2,-1 1,1 -1,2 -1,2 1,2 v 2 2 l 1,3 1,-1 1,-2 v -2 l -1,-2 v -2 l 1,-2 1,-2 h 2 v 2 l -1,2 v 2 l 1,2 v 2 l -1,2 1,2 v 2 l -2,-1 h -2 v 2 l 1,2 2,-1 v 2 2 h 3 v -2 -2 l 1,-2 v -2 h 2 l 1,2 -1,2 1,2 -1,1 v 2 l -2,1 1,2 v 2 2 l 1,2 h -2 l -1,2 h 3 v 2 l 1,2 v 2 h 2 v 2 h -3 v 2 l -1,2 -2,-1 -1,-2 1,-1 1,-2 v -2 l -1,-2 -1,2 -1,2 -2,1 v 2 l 1,2 -1,2 h 3 l -1,2 1,2 v 2 l -1,2 2,1 v 2 h -2 v 2 l -1,2 -1,1 1,2 -3,-1 v 2 l 1,2 2,-1 1,2 -2,1 v 2 h 2 l 2,-1 1,-2 -1,-2 2,-1 -2,-1 1,-1 -1,-2 1,-2 2,-1 v -2 l -1,-2 2,-1 -2,-1 v -2 l -1,-2 h 2 l 1,-1 1,-2 1,-2 2,2 1,-2 v -2 -2 h 2 l 1,2 v 2 l -1,2 1,2 v 2 l -1,2 1,2 v 2 l -1,2 1,2 v 2 l 1,2 -1,1 v 2 l -2,1 -1,2 v 2 2 2 2 l -1,2 h 2 v 2 l 1,2 v 2 l -1,1 2,1 -1,2 1,2 v 2 l 1,2 -1,1 v 2 l -2,1 2,2 -1,1 v 2 l -2,1 -1,-2 v -2 l -1,-2 v -2 h 2 v -2 l -2,-1 2,-1 v -2 -2 l -1,-2 -1,-2 1,-2 -1,-2 -2,-2 1,-2 v -2 -2 -2 -2 l 1,-2 v -2 h 2 v -2 -2 -2 -2 -2 -2 l -1,-2 1,-2 v -2 h -2 l -1,2 -1,2 1,2 v 2 2 2 l -1,1 -2,1 1,2 2,-1 -1,3 -1,2 -1,2 v 2 2 l 1,2 -1,2 -1,2 v 2 h 2 l 1,2 -1,2 1,2 1,2 v 2 l -2,-2 -1,2 1,2 1,2 -1,2 v 2 l 1,2 v 2 l 1,2 1,2 v 2 l 1,2 2,-1 v -2 l 1,-1 2,-1 1,-1 1,-2 -1,-2 v -2 l 1,-2 1,-2 -1,-2 3,1 v 3 l -1,2 v 2 l 1,2 -1,2 v 2 2 l -2,-1 -2,1 -1,2 v 2 h -2 -2 l -1,2 -2,-2 -1,2 1,2 v 2 l 1,2 -2,-1 h -2 l 1,2 v 2 2 2 l 2,1 1,2 h -2 l 1,2 -1,2 1,2 1,2 h -2 l 1,2 -1,2 1,2 -1,1 -2,1 h -2 l -2,1 1,2 v 2 l -1,2 -2,1 h -2 l -1,2 v 2 l 1,2 v 2 2 l 1,2 2,-1 1,2 -2,1 h -3 v 2 l 1,2 v 2 2 l 1,2 v 2 l 1,2 2,-1 1,2 -2,1 v 2 2 l 1,2 2,-1 v -2 -2 l 2,2 1,-2 -1,-2 -1,-2 v -2 l 1,-2 2,-1 -1,-2 h -2 l -1,1 -1,2 -1,2 -1,-2 v -2 -2 l -1,-2 1,-1 h 2 l 1,2 2,-1 -1,-2 v -2 l 1,-1 -1,-2 v -2 l -2,2 -2,-1 v -2 l -1,-2 v -2 l 2,-1 v 2 l 1,2 2,-1 v -2 l -1,-2 1,-2 v -2 l 1,-2 1,-1 h 2 l 1,2 -2,1 v 2 l -1,2 1,2 v 2 l -1,2 1,2 v 2 l 1,2 1,2 h -2 l 1,2 v 2 l 1,2 1,2 1,2 -1,2 -1,-2 h -2 v 2 2 h 3 l -1,2 -1,2 v 2 l -2,1 -1,1 -2,1 v 2 l 1,2 1,2 -1,2 1,2 -1,1 -2,1 v -3 l -2,1 -1,2 v 2 2 2 l 1,2 2,-1 1,2 2,-1 h 2 l 1,-2 v -2 l -2,1 -2,1 -2,-1 v -2 l 1,-1 h 2 2 v -2 l 1,-2 2,-1 -1,-2 -2,1 v -3 l -1,-2 v -2 l 2,-1 2,-1 1,-2 v -2 l 1,-2 1,-2 v -2 l 1,-2 1,-2 h -2 l -1,-2 -1,-2 v -2 l 1,-2 -1,-2 -1,-2 2,-1 v -2 l -2,1 -1,-2 1,-2 2,1 1,-2 -1,-2 -2,1 -1,-2 1,-2 2,1 v -2 -2 l 1,-2 h -3 v -2 l 1,-2 -1,-2 1,-2 1,-2 -1,-2 -1,-2 1,-2 1,-2 -1,-2 -1,-2 -2,-1 1,-2 2,1 v -2 l 1,-2 -1,-2 v -2 l 2,-1 h 2 l -1,2 v 2 l 1,1 -1,2 v 2 l -1,2 1,2 v 2 2 l -1,2 1,2 v 2 2 l -1,2 1,2 -1,2 h 2 l 2,-2 1,-2 h -2 l 1,-2 v -2 -2 l 1,-2 h -2 l 1,-2 v -2 -2 l -1,-2 h 2 l -1,-2 v -2 l 1,-2 -1,-2 v -2 -2 l 1,-2 v -2 h 2 l 1,2 -1,2 v 2 2 l 1,2 -1,2 v 2 l 1,2 -1,2 v 2 2 l 1,2 -1,2 v 2 2 l 1,2 -1,2 v 2 2 l -2,-1 -2,1 -1,2 v 2 2 h 2 l 1,-2 v -2 h 2 l 1,2 -1,2 v 2 2 l -2,-1 -3,-1 1,2 -1,2 v 2 2 l -1,2 v 2 l 1,2 -1,1 v 2 l 1,2 2,-1 v -2 l 1,-2 -1,-2 v -2 -2 l 1,-2 v -2 h 2 l 1,2 -1,2 v 2 2 l 1,2 -1,2 v 2 l 1,2 -1,2 -2,-2 -1,2 1,2 -2,1 v 2 l -1,2 -1,2 -1,2 v 2 l -1,2 -2,1 -1,1 1,2 2,-1 v 3 l 1,2 1,-2 1,-2 1,2 2,1 1,2 -1,2 -2,-2 -1,1 1,2 -1,2 h -2 v -2 l -1,-2 -2,1 v 2 l 1,2 v 2 l -1,2 -1,2 -1,1 h -2 l 1,2 -1,2 -2,1 -1,2 v 2 l -1,2 h -2 v -2 -2 l 1,-2 1,-2 2,-1 -1,-2 -2,1 -1,-2 h -3 l 1,2 1,2 -1,2 -1,2 v 2 l -1,1 -2,1 -2,1 -1,-2 1,-1 2,-1 1,-2 v -2 l 1,-1 -1,-2 -1,-2 1,-2 h 2 l -1,-2 v -2 -2 -2 l 1,-2 v -2 h 2 l 1,-2 h 2 l -1,-2 -1,-2 v -2 l -2,1 v 2 2 l -2,1 -1,-2 v -2 -2 l 1,-2 h 2 l -1,-2 v -2 -2 l -1,-2 -1,-2 v -2 l -1,-2 v -2 -2 l -1,-2 -1,2 -1,2 v 2 l 1,2 1,2 v 2 l 1,2 v 2 2 l -2,-1 -1,2 2,1 -1,2 v 2 2 l 1,2 1,2 v 2 l -1,2 v 2 l -2,-1 -2,1 -1,2 -2,1 v -2 -2 l 1,-1 2,-1 2,-1 1,-2 h -3 l 1,-2 -1,-2 v -2 l 1,-2 -1,-2 h -2 v 2 l -1,2 v 2 l 1,2 -1,1 1,2 -2,1 -2,1 v 2 l -2,1 -1,2 h 3 v 2 l -1,1 h -3 l 1,2 v 3 l -2,1 1,3 3,-1 1,-2 v -2 l 1,-1 2,2 -1,3 2,2 1,-1 v -2 l 1,-2 -1,-2 -2,-1 v -2 l 3,1 1,-2 1,-2 h 2 v 2 l -1,2 -1,2 1,2 v 2 l -1,1 1,2 -2,1 -2,1 v 2 l 1,2 -2,1 -1,2 1,2 v 2 2 l -1,2 -2,-2 v -2 -2 -2 l -1,-2 2,-1 v -2 -2 l -1,-2 -2,1 v 2 l -2,-1 -1,2 -3,1 -1,2 -2,1 -2,-3 2,-2 3,-1 v -3 l -3,1 -3,1 v -3 l 3,-1 2,-1 1,-2 1,-2 -1,-3 1,-2 v -2 l 2,-2 -2,-1 1,-3 2,2 1,-2 h 2 v -2 -2 -2 l 1,-2 v -2 -2 l -1,-2 h -3 l 1,2 v 2 l -1,2 -2,-1 -1,3 h 3 v 2 l -1,1 h -2 l -2,1 v 2 h -3 l -1,-3 -3,1 v 3 l -1,4 -3,2 -3,2 -2,3 -3,2 -2,1 -4,-2 -2,3 4,2 -4,2 v 3 h -3 l 1,4 -2,2 -1,3 2,3 -1,2 2,4 h -3 l -1,3 h 3 l 1,3 v 3 l -1,2 -1,2 -1,2 -2,-1 1,-4 1,-3 h -3 l -1,3 -1,2 -2,2 v 3 l 3,-1 v 3 l -2,1 -1,2 v 3 l -1,2 -2,-4 -2,1 -1,2 -2,2 -1,2 -1,2 h 5 v -3 h 3 l 1,3 h 3 v -2 l 1,-2 1,-2 -1,-3 h 3 v -2 -3 l 2,1 2,2 v 2 2 l -1,2 -2,-1 -1,3 -1,3 h 2 l 2,-1 v -2 l 2,4 2,-1 1,-1 -2,-2 1,-2 v -2 l 1,-2 -1,-2 h 3 v -2 l 2,-1 2,1 -1,2 -1,3 -2,1 2,2 -2,1 v 2 3 l 2,-1 3,1 v -2 l -2,-1 2,-1 v -2 l -1,-2 1,-2 1,-2 h 3 l -1,2 -1,2 1,2 v 2 2 2 h 3 v -2 -2 -2 l -1,-2 1,-2 2,-1 -2,-2 1,-2 1,-1 1,-2 -2,-1 v -2 h 2 l -1,-2 h 2 l 1,-1 2,-1 1,-2 -1,-2 1,-1 h 2 l 1,-2 v -2 h -3 l -1,1 -2,1 -2,1 1,2 1,2 -2,1 -2,-2 -1,2 -1,2 -2,1 1,2 v 2 l 1,2 -1,2 -2,1 -2,-2 2,-1 -1,-3 -1,1 -2,1 h -3 l -1,1 -2,2 h -3 l 1,-2 1,-2 1,-2 v -3 -3 -2 l 3,1 2,-1 1,-2 -3,-1 h -3 l -1,-3 1,-3 -2,-3 2,-2 2,-1 -1,-3 3,-1 -1,-4 4,-1 2,-1 2,-2 2,-2 1,-3 2,-2 2,-2 2,-1 1,-3 2,-2 2,1 -1,3 v 3 l -1,1 v 3 l -3,-1 v 3 h -3 v 3 l -1,2 3,3 -2,1 h -3 l -1,-3 -2,4 -3,-1 v 3 l -2,2 v 3 l -3,1 1,3 -1,2 3,1 1,-3 2,1 1,-2 2,-2 -3,-2 3,-1 1,-2 2,1 3,-1 2,-1 1,3 -3,1 -2,2 v 2 l -2,1 -1,2 v 2 h -3 l -1,2 -1,3 -2,2 -2,1 -1,2 v 2 l 3,-1 2,-1 1,-2 2,-1 v -2 -2 h 3 l 2,-4 3,-1 1,-2 v -2 l 2,-1 1,3 h 2 v -3 -2 h 3 l 1,-2 1,-2 2,-1 v 3 2 2 l -2,1 -2,1 v 2 2 2 l -1,2 -1,2 -1,1 -1,2 -1,2 -2,1 -1,2 v 2 l -1,2 -1,2 v 2 l 1,2 -1,1 -2,1 1,2 v 2 2 2 h 3 v -2 -2 l -1,-2 h 2 v -2 l 1,-2 -1,-2 v -2 -2 l 2,-2 v -2 l 2,-1 1,-1 v 3 2 l -2,1 v 2 2 l 1,2 -1,2 v 2 l -1,2 v 2 2 h 3 v -2 -2 -2 l 1,-2 1,-2 2,-1 1,-2 h -2 l -2,1 -1,-2 2,-2 h 2 l -1,-2 v -2 l -1,-2 -1,-2 1,-2 1,-2 1,-2 1,-2 v -2 -2 l 1,-2 2,2 v 2 2 l -1,2 -1,2 1,2 h -2 l -1,2 1,2 2,-1 2,1 v -2 l 1,-2 -1,-2 1,-2 v -2 l 1,-2 h 2 v 2 2 l -1,2 1,2 -1,2 v 2 l -1,2 h 2 l 1,2 v 2 l -2,-1 -2,1 -1,-2 -1,-2 h -2 v 2 l 1,2 1,2 -1,1 v 2 l -1,2 -2,1 -1,2 v 2 2 2 h 3 v -2 -2 l -1,-2 h 2 l 1,-2 2,2 -1,2 v 2 2 h 3 v -2 -2 -2 l -1,-2 -1,-2 v -2 l 1,-2 h 2 v 2 2 l 1,2 2,-1 1,-1 -1,-2 v -2 h 2 l 1,2 1,2 -1,2 v 2 l -1,2 -1,-2 h -2 v 2 2 2 l 3,-2 v 2 h 3 v -2 -2 l 1,-2 h 2 v 2 2 2 h 3 v -2 -2 -2 l 1,-2 2,-1 1,-2 2,1 -1,2 -1,2 h -2 l 1,2 v 2 2 h 3 3 v -2 h -3 v -2 l 1,-2 1,-2 1,2 v 2 h 3 v 2 2 h 3 v -2 -2 l 1,-2 h -2 -2 l -1,-2 2,-1 2,1 v -2 -2 l 1,-2 v -2 h 2 l 1,2 -1,2 v 2 2 l 1,2 -1,2 v 2 2 h 3 v -2 -2 -2 -2 -2 -2 -2 -2 -2 -2 -2 -2 -2 -2 -2 h -2 l -1,2 v 2 l 1,2 -1,2 v 2 2 l -2,-1 -2,1 -1,2 -1,-2 v -2 l 2,-1 1,-1 1,-2 -1,-2 h -2 l -1,1 v 2 l -2,1 -1,-2 -2,-1 -1,2 -1,-2 -2,1 1,2 1,2 2,-1 2,1 v 2 l 1,2 v 2 h 3 l -1,2 -1,1 -2,1 -1,-2 -2,-1 h -2 l -1,-2 h 3 l 1,-1 v -2 h -3 l -2,1 -1,-2 1,-1 -1,-2 -1,-2 h -2 v 2 l -1,1 1,2 1,2 1,2 -2,1 v 2 l 3,-1 v 2 l -2,1 -1,2 h -3 l 1,-2 -1,-2 -1,-2 2,-1 v -2 l -1,-2 -2,1 v 2 h -3 v -2 l -1,-2 -1,-2 v -2 -2 -2 l 1,-2 v -2 -2 l -2,-2 1,-2 v -2 -2 l -1,-2 2,-1 1,2 2,-2 1,2 2,-1 -1,-2 2,-1 2,1 -1,2 v 2 l -2,1 1,2 -1,2 -2,1 v -3 l -1,-2 -2,1 1,2 -1,2 1,2 1,2 v 2 l -1,2 v 2 2 2 l 1,2 2,-1 v -2 l 1,-1 -1,-2 -1,-2 2,-2 v -2 l -1,-2 2,-1 1,2 1,2 v 2 l -2,1 1,2 2,-1 2,1 2,-1 1,-1 v -2 l -3,1 v -2 l -1,-2 -1,-2 -1,-2 1,-2 1,-1 v -2 -2 l 2,-1 1,-1 v -2 l 1,-2 -1,-2 h 2 l 1,-2 1,-2 h 3 l -1,-2 1,-2 1,-2 v -2 h 2 l 2,-1 1,-2 2,1 v 2 2 l 1,2 -1,2 v 2 2 l 1,2 -1,2 v 2 l 1,2 -1,2 v 2 l 1,2 -1,2 v 2 l -2,2 v -2 l -1,-2 1,-2 -1,-2 v -2 l 1,-2 -1,-2 v -2 l 1,-2 -1,-2 v -2 -2 l 1,-2 v -2 h -2 l -1,2 -1,2 1,2 -1,2 1,2 v 2 l -1,2 1,2 -1,1 -2,1 -1,-2 v -2 l 1,-2 v -2 l -1,-2 -1,2 -1,2 -1,2 v 2 l 1,2 -1,1 2,1 -1,2 -2,-1 -2,-2 v 2 2 l 3,1 1,2 h -2 l -2,-1 h -2 v 2 l 2,1 1,2 2,-1 h 2 l -1,2 v 2 2 h 2 l 2,-1 -1,-2 v -2 -2 -2 l -1,-2 1,-2 1,-2 h 2 v 2 l -1,2 1,2 v 2 l 1,2 -1,1 v 2 l 2,1 1,-2 1,-2 2,-1 2,1 v -2 -2 -2 -2 -2 -2 -2 -2 -2 -2 -2 -2 -2 -2 -2 -2 -2 -2 h -3 l 1,-2 h 2 v -2 l -2,-1 2,-1 v -2 -2 -2 -2 l 2,-1 -3,-1 1,-2 v -2 -2 h -2 l -1,2 v 2 l -1,2 1,2 -2,1 2,1 v 2 2 l -2,-1 -1,-2 h -3 l 1,-2 1,-2 v -2 l 1,-1 v -2 l 1,-2 1,-2 2,-1 2,1 v -2 -2 -2 -2 -2 -2 -2 -2 -2 -2 -2 -2 -2 -2 -2 -2 -2 -2 -2 -2 -2 -2 -2 -2 -2 -2 -2 -2 -2 -2 -2 -2 -2 -2 -2 -2 -2 -2 -2 -2 -2 -2 -2 -2 -2 -2 -2 -2 -2 -2 -2 -2 l -2,-1 2,-1 v -2 -2 -2 -2 -2 -2 h -2 l -1,2 v 2 l 1,2 -1,2 v 2 l -2,-4 -1,2 1,2 v 2 l 1,2 2,2 -1,2 v 2 l 1,2 -1,2 v 2 h -2 l -1,-2 1,-2 -1,-2 v -2 l 1,-2 h -2 v -2 l -1,-2 v -2 l -1,-2 1,-2 v -2 h 2 v -2 l 1,-2 1,-2 -1,-2 v -2 l -1,-2 1,-2 -1,-2 v -2 l 1,-2 -1,-2 v -2 l 1,-2 -1,-2 v -2 -2 l 1,-2 v -2 h -2 l -1,-2 2,-1 -1,-2 -2,1 -1,-2 v -2 l 1,-2 1,-2 1,-2 v -2 h -2 l -1,2 -1,2 -1,2 -1,2 v 2 l 1,2 1,2 1,2 -1,1 3,1 -1,2 -2,-1 -2,1 -1,-2 v -2 -2 l -1,-2 v -2 l -1,-2 1,-2 1,-2 1,-2 -1,-2 h 2 l -1,-2 -1,-2 v -2 -2 -2 -2 h 3 l -1,-2 v -2 l 1,-2 -1,-2 1,-2 1,-2 -1,-2 v -2 -2 -2 l 1,-2 v -2 h 2 l -1,-2 h 3 l 1,-2 v -2 h 2 l 1,2 -1,2 v 2 2 l -2,-1 -2,1 -1,2 v 2 2 2 l 2,-2 1,-2 v -2 h 2 l 1,2 -1,2 v 2 2 l -2,-1 -2,1 -1,2 v 2 l -1,1 v 3 2 l 1,2 -1,2 h -2 v 2 2 2 l 1,2 2,-1 2,1 1,-2 -1,-2 -2,1 v -2 l 2,-1 v -2 l 1,-2 -1,-1 v -2 l -1,-2 1,-1 1,-2 v -2 h 2 l 1,2 -1,2 v 2 2 l 1,2 -1,2 v 2 2 l 1,2 -1,2 -2,2 1,2 -1,2 -1,2 v 2 l -1,1 2,1 2,-2 1,2 -1,2 v 2 2 l 1,2 -1,2 v 2 2 l 1,2 -1,2 v 2 l 1,2 -1,2 v 2 l 1,2 -1,2 v 2 l 1,3 2,1 v -2 -2 -2 -2 -2 -2 -2 -2 -2 -2 -2 -2 -2 -2 -2 -2 -2 -2 -2 -2 h -3 l 1,-2 h 2 v -2 l -2,-1 2,-1 v -2 -2 -2 -2 -2 -2 -2 -2 -2 -2 -2 -2 -2 -2 -2 -2 -2 -2 -2 -2 -2 -2 -2 -2 -2 -2 -2 -2 -2 -2 -2 -2 -2 -2 -2 -2 h -2 l -1,2 v 2 l 1,2 -1,2 v 2 l 1,2 -1,2 v 2 2 l -2,-1 -1,-3 -1,-2 h 2 l -1,-2 v -2 l 1,-2 -1,-2 v -2 l 1,-2 1,-2 2,-1 2,1 v -2 -2 h -3 l 1,-2 h 2 V 24 22 20 18 16 14 12 10 8 6 4 2 0 h -3 v 2 l 1,2 -1,2 v 2 l 1,2 -1,2 v 2 l 1,2 -1,2 v 2 l -2,1 2,1 v 2 h -2 v 2 l -1,2 1,2 h -2 l -1,1 -2,1 1,2 2,-1 -1,3 -1,2 -1,1 2,1 -1,2 v 2 l -1,2 1,2 -1,2 h 2 l 1,2 -1,2 v 2 2 2 l 2,-2 1,-2 v -2 h 2 l 1,2 -1,2 v 2 2 l -2,-1 -2,1 -1,2 v 2 l -2,-1 -1,2 -2,1 1,2 -1,2 -1,2 v 2 l -2,1 1,2 h 2 l -1,2 1,2 -2,1 1,2 v 2 l -3,-1 v 2 l 2,1 v 2 h -2 v 2 2 l 1,2 -1,2 h -3 l 1,-2 -1,-2 v -2 -2 l 1,-2 -1,-2 v -2 l 2,-1 1,-1 v -3 l -1,-2 -1,-2 -2,1 -1,1 1,2 h 2 l -1,2 -2,1 -1,1 -2,1 -3,-1 1,-1 2,-1 1,-2 -1,-2 1,-2 1,-2 v -2 -2 -2 -2 l -1,-2 v -2 l 1,-1 -2,-1 1,-2 2,-1 -2,-1 2,-1 v -2 -2 h 2 l -1,-2 1,-2 1,-2 1,-2 -1,-2 1,-2 -1,-2 v -2 h 2 l 1,2 1,2 1,2 h -2 l 1,2 -1,2 1,2 h -2 l -1,2 1,2 -2,2 v 2 2 l -1,2 -1,2 1,2 -1,2 h 2 l 1,2 -2,1 2,1 -2,1 v 2 2 h 3 v -2 l 1,-1 1,-2 v -2 l -1,-2 -1,-2 -1,-2 1,-2 v -2 l 1,-2 v -2 h 2 l 1,2 -1,2 v 2 l -1,2 1,3 1,-1 1,-2 h 2 l -1,-2 v -2 -2 -2 l 1,-2 h -3 l -2,-1 2,-1 1,-2 -1,-2 1,-2 1,-2 -1,-2 -1,-2 -1,-2 h 3 l -1,-2 -1,-2 1,-2 -1,-2 3,1 v -2 l 2,-1 v -2 l 1,-2 -1,-2 v -2 h 2 l 1,-2 -1,-2 v -2 l 1,-2 -1,-2 V 6 l 1,-2 -1,-2 V 0 h -2 l -1,2 1,2 v 2 l -1,2 1,2 v 2 l -1,2 1,2 h -3 v 2 2 l 1,2 -1,1 v 2 l -2,1 -1,-2 h -2 v 2 2 l 1,2 v 2 2 h -3 v -2 -2 l -1,-2 v -2 -2 l 1,-2 2,-1 2,1 v -2 -2 l 1,-2 1,-2 1,-2 v -2 l -1,-2 1,-2 V 4 l -1,-2 1,-2 h -4 l 1,2 v 2 2 h -3 V 4 2 l -2,-1 v 2 l -1,2 h -2 l 1,-2 -1,-3 h -3 l 1,2 -1,2 -2,1 v 2 h -2 v 2 l 2,1 h 2 l 2,-1 -1,-2 h 2 l 2,1 h 2 l -1,2 -2,1 -2,1 -2,1 2,1 v 2 h -2 v 2 l -1,2 1,2 h 2 v -2 l 1,-2 2,-1 v -2 -2 l 2,1 1,-2 1,-2 1,-2 2,2 -1,2 -1,2 -1,2 -1,2 -1,1 -2,1 v 2 l -2,2 v 2 l 1,2 v 2 2 2 l -1,2 v 2 l 1,2 -1,1 v 2 l 1,1 -1,2 -1,2 -1,2 -1,2 v 2 l -1,1 -1,2 v 2 l -1,2 1,2 v 2 l 1,2 v 2 l -1,2 h 2 l -1,2 v 2 h -2 l 1,2 -1,2 1,2 -2,1 -1,-2 h -2 l -1,1 v 2 l 2,1 v 2 h -2 v 2 l -1,2 -1,1 -1,-3 v -2 l 1,-2 -1,-2 v -2 l 1,-2 -1,-2 -2,1 -1,2 -1,-2 1,-2 1,-1 -1,-2 1,-2 -1,-2 2,-1 1,2 1,-2 2,1 1,2 -2,1 -2,1 1,2 2,-1 v 3 l 1,2 2,-1 -1,-2 1,-2 1,-1 -1,-2 1,-2 -2,-1 2,-1 -1,-2 v -2 l -2,2 -3,1 1,-1 -1,-2 2,-1 1,-1 2,-1 v -2 l 1,-2 v -2 l 1,-1 1,-2 1,-2 1,-2 1,-2 -1,-2 h -2 v 2 l -1,2 -1,1 v 2 h -2 v 2 l -1,2 v 2 l -1,2 -2,-2 v 2 2 l -2,1 -1,2 v 2 l -1,1 -2,1 v 2 2 l -1,2 v 2 l -1,2 1,2 1,2 1,2 h 2 v 2 l -1,2 v 2 l 1,2 v 2 l 3,1 -2,1 -1,2 -1,2 v 2 l 1,2 v 2 2 l -2,1 v 2 l 2,-1 1,2 -1,2 -2,-1 -2,1 -1,-2 -2,1 v 2 l 2,1 -1,2 h -2 l -1,2 -1,2 -2,-1 -1,2 3,1 -1,1 -1,2 -3,1 -1,1 -2,-2 1,-2 h 2 l -1,-2 v -2 l 1,-1 v -2 l 3,1 v -2 -1 h 3 l -1,-2 v -2 l 2,-1 v -2 l 3,1 v -2 -2 h 2 l 1,-2 -2,-1 -2,1 -1,-2 v -2 l 3,1 -1,-2 2,-1 -1,-2 h 2 l -1,-2 v -2 l -1,-2 -2,1 v 2 2 l -1,2 -1,-2 -2,1 1,2 -1,2 v 2 h -2 -2 l -1,1 v 2 h -3 v -2 l 1,-2 v -2 h 2 2 l 1,-1 -1,-2 h -3 l 1,-2 -1,-2 1,-2 1,-2 v -2 h 2 v -2 l -2,-1 2,-1 2,-1 1,-1 v 3 2 2 l -2,1 -1,2 -1,2 1,2 2,-1 1,-1 v -2 l 2,-1 1,-2 2,1 1,-2 -3,-1 1,-1 -1,-2 -1,-2 -1,-2 1,-2 -2,-1 2,-1 1,-2 v -2 -2 l 1,-2 -2,-1 1,-1 h 3 l 1,-2 v -2 h 2 v -2 -2 -2 l 2,-1 1,2 1,-2 v -2 l 2,-2 v -2 l 2,-1 v -2 l 1,-2 2,-1 2,1 v -2 -2 l 1,-2 1,-2 -1,-2 v -2 l -1,-2 v -2 h -3 v -2 h -2 l 1,-2 1,-2 v -2 l 1,-2 -1,-2 h -2 v 2 l -1,2 v 2 l -1,2 -2,1 v -2 -2 l 1,-2 v -2 l 1,-2 V 9 7 l 1,-2 1,-1 3,-1 -1,-2 h -3 l -2,1 -1,1 v 2 h -2 l 1,2 v 2 2 l -1,2 v 2 l -1,2 v 2 2 h -3 l -1,2 -1,2 v 2 l 1,2 1,2 -1,2 -2,1 -1,1 v 2 l 3,-1 2,-1 1,-2 1,-2 2,2 -1,2 -1,2 -2,1 h -2 l -1,1 -2,1 1,2 2,-1 1,2 -3,1 v 2 l 1,2 2,-1 v -2 h 2 l 1,-2 -1,-2 1,-1 h 2 v -2 l 1,-2 1,-2 v -2 l -1,-2 1,-2 -1,-2 h -2 v 2 l -2,1 -1,-2 v -2 l 1,-1 2,-1 2,1 2,-1 1,2 v 2 l 3,-1 1,2 -2,1 -2,1 1,2 h 2 l 1,-2 1,2 -1,2 -1,2 -2,-2 -1,2 1,2 h -2 v 2 l -1,2 -1,1 -1,2 v 2 l -2,1 -1,1 -2,1 -1,1 v 2 l 1,2 -2,1 -1,2 v 2 h -3 v -2 -2 h 2 v -2 l -2,-1 2,-1 v -2 l -1,-2 -1,-2 v -2 -2 l -1,-2 1,-2 -1,-2 v -2 l -1,-2 -1,-2 -1,-2 2,-2 1,2 1,2 1,2 2,-1 -1,-2 -1,-2 v -2 l 1,-2 1,-2 -1,-2 1,-2 1,2 h 2 v -2 l -1,-2 h 2 v -2 l 1,-2 V 9 7 L 278,5 V 3 l 2,-1 V 0 h -3 l -3,1 1,2 v 2 l 1,2 v 2 l 1,2 -2,1 -1,1 -1,2 -2,1 -1,1 v 2 l 1,2 v 2 l -2,1 -1,-2 v -2 l -1,-2 h -2 v 2 2 l 1,2 v 2 l -1,2 v 2 h -3 v -2 l 1,-2 v -2 l -1,-2 v -2 -2 l 1,-2 2,-1 2,1 2,-2 2,-1 1,-2 -1,-2 h 2 V 7 L 272,5 V 3 l -1,-2 -2,1 -1,1 -1,-3 -2,1 v 2 l -1,2 -1,-2 -1,-3 -1,1 h -3 l -2,1 -2,-2 -1,2 v 2 2 2 l 1,2 -2,1 2,1 -1,2 1,2 2,-1 1,-1 V 12 10 L 256,8 V 6 l -1,-2 h 3 l 2,-1 1,2 -2,1 v 2 h 2 l 2,-1 h 3 l 1,-2 3,1 -1,1 -1,2 1,2 -2,2 h -2 l 1,-2 -1,-2 -2,1 -1,1 h -2 v 2 l 2,1 -2,1 v 2 h -2 l 1,2 -2,1 -1,-2 h -3 l 1,2 -1,1 2,1 -2,1 1,2 v 2 l -2,1 -1,-2 -2,1 -1,2 -1,2 1,2 1,2 v 2 l 2,1 v 2 h -2 v 2 l -2,1 1,2 v 2 h -2 l 1,2 -1,2 1,2 -2,1 -1,2 -2,1 v -2 l 1,-2 v -2 l 1,-2 -1,-2 1,-2 1,-1 -2,-2 2,-1 1,-1 1,-2 -2,-1 1,-2 -1,-2 -1,2 h -3 v -2 l 1,-1 2,-1 1,-2 1,-2 1,-2 1,-1 h 3 l -1,-2 v -2 -2 l 1,-2 v -2 l -1,-2 -1,-2 1,-2 V 6 h -2 l -1,2 -1,2 1,2 1,2 v 2 l -1,2 v 2 2 h -2 l -2,-1 v -2 l 1,-1 1,-2 1,-2 -2,-2 -1,-2 1,-2 -1,-2 h 2 l 1,-2 2,-1 2,1 V 2 l 1,-2 h -3 -2 l -1,2 -2,1 -1,-2 -2,1 1,2 v 2 2 l -1,2 1,2 v 2 h 2 l -1,2 -2,2 -1,-2 -2,1 v 2 l 1,2 2,-1 v 2 l -2,1 -1,2 1,3 2,-1 v -2 h 2 l 1,-2 1,2 -1,2 -1,2 -2,1 -1,1 -1,2 v 2 l -1,2 1,2 1,-2 h 3 l 1,2 -2,1 -1,1 1,2 v 2 l -1,2 -2,1 3,1 -2,1 1,2 -1,2 v 2 2 3 l 2,1 v -2 l 2,-1 1,2 v 2 l -1,2 h 2 l 2,1 1,2 2,2 -1,1 1,2 v 2 h -2 l -1,-3 -1,-2 -1,-2 -2,-1 h -2 l 1,2 1,2 -3,-1 v 2 l -1,1 -3,-1 -1,1 -2,1 h -3 l 1,-2 2,-2 2,-1 2,1 1,-2 -2,-1 v -2 h 2 l 2,-1 -2,-1 -2,-2 v -2 -2 l -1,-2 1,-1 1,-2 -1,-2 -1,-2 1,-2 2,-1 v -2 l -1,-2 -2,1 v 2 l -2,-1 h -2 v 2 l 2,1 -2,1 v 2 l 2,1 1,2 h -2 l -1,1 -3,1 h -2 l 1,-3 2,-1 -2,-1 v -2 l 1,-1 v -2 -2 l 1,-2 h 2 2 l 2,-1 -1,-2 1,-2 v -2 l 1,-2 -1,-2 1,-1 -2,-1 1,-2 v -2 -2 l -1,-2 v -2 l 1,-2 1,-2 2,1 v -2 l -3,-1 2,-1 1,-2 V 6 4 h -2 l 1,-2 1,-2 h -3 l -1,2 -1,2 2,2 v 2 l -2,1 -1,2 1,2 -1,2 -1,2 v 2 l 1,2 v 2 2 l -1,2 -2,1 -1,1 -1,2 -1,2 1,3 2,-1 v -2 -1 l 2,-1 1,-2 1,2 -1,2 v 2 l -1,2 -2,1 h -3 v 2 l -1,2 v 2 l -2,1 1,2 v 2 2 2 2 l 1,2 1,2 2,-2 2,1 v -2 l 2,-1 1,2 v 2 2 l 1,2 -2,1 1,2 h -3 l 1,2 -1,2 -2,-1 -1,2 v 2 2 2 l 1,3 h -3 l -1,1 v 3 l 3,1 1,-2 2,-1 h 3 v -2 l -2,-1 v -2 h 2 2 l 1,-1 2,-1 2,1 2,-1 1,-2 2,1 -1,2 -1,2 -1,1 v 2 l -3,-1 -1,-2 -2,2 1,2 -1,2 h 3 l 2,-1 2,1 -1,2 -1,2 -2,-1 -2,2 2,1 -2,2 -2,-1 -1,-3 1,-2 -2,-1 h -3 l 1,3 -2,1 -3,1 v -3 l -3,1 -1,2 v 3 3 h 3 v -3 h 3 l 2,-1 2,-1 1,3 -1,2 -1,2 -2,-1 -1,3 h -3 l -3,-1 -2,2 -1,2 h -4 l -1,-3 3,-2 1,-2 v -3 l 1,-3 -3,-1 -2,2 v 3 l -2,2 -3,1 h -4 l -2,3 v 4 l 4,-2 3,-1 1,4 -3,2 v 4 l -1,3 v 3 l -3,1 -2,1 -3,3 4,1 v 4 l -4,-1 -3,-1 -1,3 -1,3 -3,2 3,3 -4,2 -3,1 -3,3 -4,-1 -1,6 -5,-2 -2,5 v 5 l 6,-2 7,4 2,-6 2,-3 3,-3 3,-3 3,-2 v -4 l 1,-3 1,-3 4,1 v 4 l 4,2 v -4 l 2,-1 2,-2 3,-1 2,-2 2,-1 v -4 h -3 l -3,2 -2,2 -4,1 v -3 l 1,-3 4,-1 v -4 l 4,2 4,1 2,-1 v -3 h 3 l 3,-1 v 3 l -2,2 v 3 h -3 v 3 3 l -1,2 -2,1 -2,2 -3,1 v 3 h -3 l -1,4 2,4 2,-2 2,-1 2,-2 v -3 l 2,-1 2,-2 4,1 -1,-3 1,-2 1,-2 -1,-3 3,-1 -1,-3 3,-1 h 3 l -1,3 h 3 l 2,-1 -1,-3 1,-1 -1,-3 -3,1 -3,1 -1,-3 3,-1 1,-2 1,-1 3,2 2,-2 -2,-1 1,-2 1,-3 1,-2 v -3 h -3 l -1,2 v 3 l -2,2 h -3 l -1,1 -1,2 -2,2 -3,-2 -1,2 h -3 -3 l -1,3 h -3 l -3,-3 2,-2 2,-2 h 3 3 l 2,-2 1,-2 3,3 1,-3 h 3 l 1,-2 2,1 v -3 l 1,-2 1,-2 2,-1 1,3 2,-1 1,-2 -2,-2 2,-1 1,-2 1,-2 1,-2 v -2 l -1,-2 2,-1 -1,-2 2,-1 2,1 v 2 2 l -1,1 -1,3 h 2 3 l -1,-2 2,-1 -1,-2 v -2 -2 l 1,-1 -1,-2 v -2 l -1,-2 v -2 l 1,-2 -1,-2 -2,2 -1,-2 -2,-1 v -2 l -1,-2 1,-1 v -2 l 2,-1 1,2 v 2 l -1,2 2,1 1,-2 2,-1 1,-3 -2,1 -1,-2 1,-1 2,-1 v -2 l 2,-1 1,2 -1,2 v 2 l 1,2 -1,1 -1,2 -2,1 1,2 1,2 -1,2 v 2 l 1,2 v 2 l 1,2 v 2 l -1,2 1,2 v 2 l -1,1 v 2 l 2,1 1,-2 1,-2 v -2 l -1,-2 1,-2 v -2 l -1,-2 v -2 l -1,-2 v -2 h 2 l 1,2 1,2 v 2 l 1,2 2,-1 v -2 l -1,-2 -1,-2 v -2 l 1,-1 h 2 2 l -1,-2 -1,-2 v -3 h -2 v 2 2 l -2,1 -2,2 -2,-1 v -2 l 1,-1 h 2 v -2 -2 l -1,-2 v -2 -2 l 1,-2 -2,-1 1,-1 v -2 -2 l -1,-2 h -2 l -1,1 -2,1 v 2 l 3,-1 v 2 l -2,1 -2,1 -1,2 -2,2 -1,-2 1,-2 1,-2 v -1 -2 l 1,-2 2,-1 v -2 h 2 l 1,-1 1,-2 v -2 l -2,-2 -1,2 v 2 h -2 l -1,-1 -1,-2 -1,-2 1,-1 2,2 1,-2 h 2 v -2 l 1,-2 v -2 l 1,-2 h 2 v 2 2 l -1,2 v 2 2 h 2 v 2 2 l -1,2 -1,2 h 3 v 2 l 1,2 v 2 2 l 1,2 -1,2 v 2 2 h 2 l 1,-2 v -2 l 1,-2 -1,-2 v -2 l -1,-2 v -2 -2 -2 h -2 l 1,-2 v -2 -2 h 2 l 1,2 v 2 l 1,2 v 2 2 2 l 1,2 v 2 l 1,2 -2,2 1,2 -1,2 v 2 2 l 1,2 1,2 1,2 -1,2 v 2 l -2,-1 h -2 l 1,2 1,2 v 2 l -1,2 -2,1 h -2 l -1,2 1,2 -1,2 v 2 l -1,2 -1,2 1,2 v 2 l -2,1 v 2 2 l -1,2 v 2 2 l -1,2 v 2 l -1,2 -1,2 -2,1 -2,2 -2,2 -2,1 -1,-3 2,-1 v -2 l 1,-2 2,1 2,-2 1,-2 -3,1 -3,-1 -1,-3 1,-1 v -3 l 1,-2 v -2 l 1,-2 h 2 v 3 3 l -1,2 v 3 l 2,-1 h 2 v -2 -2 -2 l 1,-1 v -2 l -1,-2 2,-1 1,-1 -3,-1 1,-2 -3,-1 -1,1 v 2 2 l -3,-1 v -3 h -2 l -1,2 v 2 2 l -1,2 v 2 3 l -1,3 -1,2 2,1 v 2 2 l -2,1 -2,2 2,1 1,3 -2,1 3,2 -2,1 -1,2 v 3 l -3,1 v -3 h -4 l -1,1 h -3 l 1,3 -1,2 -1,2 v 4 h -3 -3 l 1,3 -3,1 -2,3 -3,3 -4,1 -4,5 -1,3 h -7 l 2,-4 2,-4 h 4 l -1,-5 -2,-4 -3,-1 v 4 l -3,2 -2,3 -3,4 -1,6 -3,2 -4,3 -6,-2 -5,-1 -5,1 -2,4 -1,4 -2,4 -3,4 -5,-1 -1,4 -4,1 v -4 l -1,-3 1,-2 h 3 4 v -3 l 2,-1 -1,-5 2,-2 3,-4 -4,-1 v -4 l 4,-2 -4,-1 -1,-3 2,-2 h 4 l 1,-4 5,-2 2,-4 5,1 3,-2 h 4 l -1,-4 4,-1 1,-3 1,-3 v -3 l 3,1 1,-2 1,-3 2,-1 4,-1 1,-5 -5,1 h -4 l -3,2 v 4 l -3,1 -3,1 -3,1 -1,3 h 3 l 3,-1 v 3 l -2,2 h -3 l -1,3 -4,2 -3,-1 3,-3 v -3 l 1,-2 1,-3 h -3 l -2,-2 -1,3 v 3 l -1,2 -2,1 v 4 l -3,2 v 4 l -4,1 -1,4 -3,3 -2,1 1,3 v 2 2 l -1,2 -2,1 -1,-3 v -2 -2 l 1,-1 -1,-2 1,-2 2,-1 1,-1 1,-2 h -4 l 1,-2 3,-1 -2,-2 2,-1 h 3 l 1,-3 3,-3 -4,-2 1,-3 3,1 2,-2 1,-2 2,-2 -3,-1 -3,1 -1,2 -3,-1 -2,2 -1,3 1,4 -2,2 h -3 l 1,-4 h -3 l -1,4 -2,-1 -1,2 -1,2 v 2 l -3,-1 v 2 h -2 v 2 l -2,1 -1,-2 v -2 l 1,-1 2,-1 1,-2 2,-1 1,-3 2,-2 2,-2 2,-2 3,1 v -3 l 2,-2 1,-2 h 3 3 l 2,-1 v -2 -2 -2 l 1,-2 1,-3 1,-2 2,-2 2,-2 1,-3 2,-2 v -3 l 1,-2 2,-2 2,-1 h 3 l 1,-3 2,-3 h 3 l -1,4 -1,3 -1,3 -1,1 -2,2 -3,-3 -1,4 -1,3 -2,3 -1,2 -2,3 -1,3 h -3 l -1,2 v 2 2 l 1,3 h 2 3 l 2,2 1,-2 2,-1 1,3 3,-1 v -3 l 3,1 v -4 l 3,-1 2,-3 5,1 v -3 l 1,-4 2,-4 2,-2 4,1 2,-1 1,-3 2,-2 2,-2 3,-1 2,3 2,-2 v -3 l -2,-2 -2,1 -3,1 v -3 l 2,-2 1,-3 v -3 l -3,1 v -3 l 1,-2 3,1 -1,-2 v -2 -3 l -2,1 -2,-1 v 3 l -1,1 -1,2 v 3 l -1,3 3,1 -1,2 -1,3 -1,3 -1,2 -2,2 -2,3 -5,-1 -2,1 -1,3 -2,3 -2,2 -2,2 -3,2 -2,2 -2,3 -3,1 -1,2 -3,1 h -2 l -2,1 v -2 -2 h 2 l 2,-1 2,-3 2,-2 2,-2 v -3 l 4,1 -1,-4 h 3 l 3,-2 1,-3 v -3 l 1,-3 v -3 l 2,-1 2,-2 2,-4 -2,1 -4,1 v -3 l 2,-2 1,-2 3,1 1,-2 1,-2 v -3 l -3,1 -2,2 -1,-3 v -3 l 3,1 1,-2 2,1 v -3 l 1,-1 1,-2 1,-2 v -2 l 1,-2 2,-1 v -2 -2 -2 l -1,-2 h 2 l 2,1 1,2 -1,1 v 2 2 l -1,2 -2,1 2,2 -1,1 -2,1 -1,3 -1,2 1,3 -1,1 v 3 3 l -1,2 -1,2 1,3 -2,2 -1,3 -2,2 -2,3 4,1 2,-1 2,-2 1,-3 1,-1 1,-2 -1,-3 1,-3 v -3 -2 l 1,-2 1,-2 -1,-2 -1,-2 1,-2 1,-1 2,-1 1,-2 v -2 -2 l 1,-2 2,1 h 2 v 2 l -2,1 -1,2 h 3 l -1,2 -3,1 -1,2 -2,1 2,2 2,-1 1,-2 2,-1 1,2 -1,2 2,1 -1,2 1,2 1,2 1,2 -1,2 -1,1 v 2 2 l -1,2 2,1 3,-1 v -2 -2 -2 l 1,-2 v -2 l 3,-1 1,-2 1,-2 v -2 l -2,1 -2,1 v 2 l -2,1 -1,-2 v -2 -2 l -1,-2 -1,-2 -1,-2 1,-1 v -2 -2 -2 l -2,-2 2,-1 1,-1 1,-2 -2,-1 1,-2 h 2 v -2 l -1,-2 1,-2 1,-2 -1,-2 1,-1 h 2 l 2,-1 v -2 -2 l -1,-2 v -2 -2 h 2 v -2 l -1,-2 1,-2 1,-2 1,-1 -2,-1 -1,-2 2,-1 1,-2 h -3 l -1,1 -2,2 -1,-2 -2,1 1,2 -1,2 1,2 2,-1 1,-2 1,2 -1,2 -2,1 2,2 h -2 l -2,1 v 2 h 3 l -1,2 1,2 v 2 2 h -2 l -2,2 v -2 l 1,-2 v -2 l -1,-2 -2,1 -2,1 2,1 -1,1 v 2 2 2 h 2 l 1,2 -1,2 -2,-2 -1,2 1,2 2,1 -2,1 v 2 l -1,2 1,2 -2,1 -1,1 h -2 l 1,-3 -1,-2 2,-1 v -2 -2 l -1,-2 1,-2 v -2 -2 -2 -2 l -1,-2 1,-3 h 2 l 2,-1 v -2 l 1,-2 1,-1 -1,-2 -1,-2 1,-2 -2,-1 1,-2 1,-1 -3,1 h -3 v 2 2 l 2,-1 1,2 -2,1 v 2 h 3 l -1,2 -1,2 -1,-2 -1,2 h -2 l 1,2 v 2 l -1,2 v 2 2 2 l 1,2 -1,2 -1,2 1,2 v 3 l -2,-1 h -2 l 1,-2 -1,-2 1,-2 1,-2 h -2 l 1,-2 v -2 -2 -2 l -1,-2 h 2 v -2 l -1,-2 -2,1 -1,1 -1,2 1,2 1,2 -1,2 v 2 l -1,2 1,2 v 3 l -1,2 -1,1 -1,2 1,2 v 2 2 l -1,2 -2,1 v 2 2 l -2,2 -2,2 v -3 -2 l 1,-1 -2,-2 2,-1 1,-1 2,-1 v -2 -2 l -1,-2 -2,1 v 2 l -1,2 h -3 v 2 l -1,2 1,3 v 2 2 2 l -2,1 v 3 l -1,2 1,3 -1,2 -1,3 -1,3 -2,-5 -1,3 -1,3 h -3 l 1,3 -2,2 -2,1 -3,1 -2,2 -1,2 -2,1 v 3 l -2,2 -1,2 -1,2 -2,2 -1,3 1,3 -1,2 -1,2 v 2 2 h -3 v -2 -2 l 1,-2 1,-2 h -3 l -1,2 -1,2 v 2 2 h -3 v -2 -2 l 1,-2 1,-2 1,-2 3,-1 1,-3 v -3 l 2,-1 1,-4 h -3 v -3 l 2,-1 4,2 v -3 l 1,-2 2,-1 3,-2 v -3 l 3,1 3,-1 -3,-3 3,-1 2,-2 2,-1 v -3 l 2,-2 h 3 l -1,-3 v -3 l 1,-1 1,-2 2,-2 -2,-1 1,-2 v -2 l 1,-2 1,-2 -1,-3 2,-1 2,1 v -2 l 1,-2 2,-1 h 3 l -1,-2 1,-1 h 2 l 1,-2 -2,-1 v -2 l 1,-2 v -2 l 1,-2 h -2 l 1,-2 -1,-2 1,-2 v -2 l 2,-1 2,-1 V 9 h 3 v 2 l 2,-1 V 8 6 L 212,4 V 2 0 h -3 v 2 2 l 1,2 h -2 l -1,1 -2,1 v 2 l -2,-1 -1,-2 -1,-2 h 2 l 1,-1 h 2 V 2 0 l -2,1 -2,1 -2,-2 -1,1 v 2 l -1,2 1,2 1,2 v 2 h 2 l -1,2 v 2 l -2,1 2,2 -1,1 1,2 v 2 2 l -1,2 v 2 h -2 l 1,2 -1,2 -2,1 v -3 l -2,1 -1,-2 2,-1 1,-2 1,-1 2,-1 -1,-2 v -2 l -1,-2 v -2 -2 l 1,-2 -1,-2 V 9 l -1,-2 -1,-2 1,-2 V 1 h -2 l -1,2 -1,2 -1,-4 h -2 l 1,2 -1,2 v 2 l -1,2 v 2 l -1,2 1,2 v 2 l 1,2 1,2 1,-2 v -2 -2 l 1,-2 h -2 l 1,-2 V 9 l 1,-2 2,1 v 1 2 l 1,2 -1,2 v 2 2 l -1,2 h 2 v 2 l -1,2 -1,2 -2,1 -1,2 h -2 l -2,1 v -2 -2 h 2 l 1,-1 2,-1 1,-2 h -3 l -2,1 h -2 v -2 l 2,-1 -1,-2 -2,1 -1,-2 -1,-2 3,1 v -2 l -1,-2 -2,1 -1,-2 2,-1 h 2 V 9 l 1,-2 V 5 l -1,-2 h 2 l -1,-2 -3,-1 -1,1 v 2 l 1,2 1,2 -2,1 -1,1 -2,1 -1,1 -1,2 -1,-2 -2,1 1,2 -1,2 v 2 l -1,1 -2,1 v 2 2 l 1,2 -1,2 v 2 2 l -1,2 -2,-1 v 2 2 l -1,2 -1,2 -3,1 h -3 v -3 l 3,-1 2,-2 -2,-1 1,-2 1,-1 1,-2 h 2 v -2 l -2,-1 3,-1 -1,-2 v -2 -2 l 1,-2 2,-1 v -2 l 1,-1 -1,-2 1,-2 2,-1 V 7 l 1,-1 2,-1 v 3 l 2,-1 1,-2 -1,-2 V 1 h -3 v 2 l -2,1 -1,-2 V 0 h -3 v 2 h -2 l -2,2 -1,-2 1,-2 h -3 l -1,2 1,2 1,2 h -3 l -1,-2 -1,-2 1,-2 h -3 l -1,2 1,2 1,2 1,2 -1,1 -2,1 -2,1 -1,-2 1,-1 1,-2 V 4 l -2,-2 1,-2 h -3 l -1,2 h -2 l -2,1 V 1 l -3,-1 -1,1 1,2 1,2 v 2 l 1,2 h 2 V 7 5 h 3 l 2,-1 v 2 l -2,1 v 2 l 1,2 -2,1 -1,1 -1,2 h -3 l 1,-2 1,-2 h -3 l -1,2 -1,2 1,2 v 2 l -2,1 -1,-2 v -2 l -2,1 v 2 2 l -2,1 -1,2 v 2 l -2,1 v 2 l -2,1 -2,1 h -4 l 1,-2 2,-1 2,-1 1,-2 1,-1 1,-2 v -2 h 2 v -2 -2 l -2,1 -2,1 -1,-2 1,-2 h 2 v -2 l -2,-1 V 9 h 2 l 2,1 V 8 l 2,-1 2,-2 v 2 l -1,2 v 2 l -2,1 v 2 h 2 l 2,-1 1,-2 V 9 h 2 L 141,7 V 5 l -1,-2 -1,-2 h -3 l 1,2 -2,1 -1,1 -2,1 h -2 V 4 l 2,-1 1,-2 h -3 l -3,-1 1,2 -1,2 1,2 -1,2 v 2 l 1,2 -1,2 -1,2 -1,1 2,1 -2,1 1,2 3,-1 v 2 l -2,1 v 2 l -2,1 h -2 l -1,2 -1,1 v 2 l -2,1 -2,-2 1,-2 1,-2 2,-1 1,-2 h 2 l -1,-2 -1,-2 v -2 l 1,-2 1,-2 1,-1 -1,-2 V 8 l 1,-2 -1,-2 1,-2 -1,-2 -2,1 -2,1 -1,-2 h -3 -2 v 2 h 3 v 2 l -1,1 1,2 2,-1 1,-2 h 2 v 2 l -1,2 -2,1 v 2 h 3 l -1,2 -1,2 -1,2 v 2 l 1,2 -1,2 -2,1 -1,1 v 2 l -2,1 -1,-2 v -2 l -1,-2 -1,-2 v -2 h 2 l 1,2 1,2 2,-1 -1,-2 v -2 l 1,-2 1,-2 -1,-2 -1,-2 -2,2 1,2 v 2 l -2,1 -2,-1 v -2 l 1,-1 -1,-2 2,-1 1,-2 -1,-2 -1,-2 -1,-2 -2,2 -1,-2 -2,1 1,2 1,2 2,-1 1,2 -2,1 -1,2 v 2 l -2,-1 -2,1 -1,-2 1,-2 h 2 l -1,-2 -1,-2 -2,2 -1,2 -1,1 v 2 l 1,2 2,1 v 2 h -2 l -2,-1 -1,-2 -1,2 1,2 -1,2 2,1 2,-1 1,2 1,-2 2,1 v -2 l 1,-2 v -2 h 2 l 1,2 -1,2 v 2 l 1,2 1,2 v 2 l 1,2 v 2 l -2,-1 -2,1 -1,1 v 2 l -2,1 -1,2 -1,2 -2,-1 v 2 2 l -1,2 h -2 v -2 -2 -2 l 2,-2 2,-1 v -2 h 2 v -2 l -2,-1 v -2 l 1,-1 h 2 l 1,2 2,-1 v -2 -3 l -1,1 -2,1 -2,-1 -2,1 -1,-2 h -2 v 2 l 1,2 v 2 l 1,2 -1,2 -1,1 -1,2 -2,1 -2,1 v 2 l 2,-1 v 2 2 2 2 l 1,2 2,-1 v -2 l 2,1 h 3 v -3 l 1,-1 1,-2 1,-2 1,-2 2,2 2,-2 -2,-1 1,-2 v -1 h 3 l 2,-2 2,2 -1,2 -2,1 1,3 -2,1 -2,2 -3,1 -1,2 -1,4 -1,3 1,4 5,2 -3,3 -3,2 -2,4 h -4 l 1,-4 1,-4 v -3 -3 -3 l -3,1 -1,2 v 3 l -1,2 v 3 l -1,2 v 3 l -3,1 h -3 l -3,1 v -3 l 2,-2 h 3 l 2,-3 -1,-3 -3,-1 v 2 2 l -3,1 v -2 -2 -2 l 2,-1 -1,-2 -2,1 v -3 l -1,-2 -2,1 1,2 -1,2 -1,2 h 2 v 2 2 2 l 1,2 -1,2 -1,2 h -3 l 1,-2 1,-2 -1,-2 v -2 -2 h -3 v 2 2 l 1,2 -1,2 -1,1 v 2 l 2,2 -2,1 v 2 l 1,3 -3,1 -1,2 -1,2 -1,3 -3,1 v -3 l 1,-2 1,-2 1,-2 1,-2 1,-1 v -2 l 1,-2 -1,-2 v -2 l -1,-2 h 3 v -2 l -1,-2 v -2 l -1,-2 h -2 v 2 2 l 1,2 h -2 l -1,2 1,2 v 2 l 1,2 -1,2 -1,2 -1,2 -1,2 -2,-1 -2,1 -1,1 -1,2 2,1 2,-1 1,-1 -1,4 -1,1 v 3 3 l -3,1 -3,1 -2,1 -2,1 v 2 2 h 3 l 3,-1 -2,-2 3,-1 3,-1 3,-3 1,-2 3,-1 v 4 l 3,-1 1,-3 v -3 l 1,-3 1,-2 3,-3 -1,-3 h 3 l -1,-3 h 3 l 2,1 v 3 l -2,2 -1,3 -2,1 v 3 l -2,1 v 4 l -1,4 3,1 h 4 l 2,-3 -4,-2 2,-3 1,-3 1,-3 2,-2 1,-3 1,-3 4,-1 v 3 l -1,3 v 3 l -3,2 -1,6 2,-2 4,-1 5,-1 2,-3 -4,-3 1,-4 3,-1 1,4 3,-3 1,-5 5,-1 h 5 l -1,-6 7,3 -1,-9 5,-1 3,-4 -5,-2 -4,1 -5,1 -1,4 -6,-2 v -4 l 2,-2 2,-2 4,1 4,-2 1,-3 -5,1 1,-3 1,-2 3,-1 4,1 1,-1 h 3 l 2,-2 3,-1 -1,3 3,-1 v 3 l -3,1 -3,1 -2,2 -3,-1 2,4 5,1 2,-3 3,1 1,-3 2,-3 -1,-3 2,-1 2,-1 1,-2 h 2 v -2 -2 l 2,-1 v -2 -2 l -2,1 -1,2 -2,1 v 2 l -1,1 h -3 l 1,2 -2,1 -3,-1 1,-1 v -2 -2 l 2,-1 1,2 1,-2 1,-1 2,-1 1,-2 v -2 l 2,1 2,-1 1,-2 2,-2 v 2 2 l -1,2 1,2 v 2 2 2 h -2 l 1,2 -2,1 2,2 -2,2 -2,-2 -2,2 v 3 l -2,2 -1,3 -1,4 -3,1 -3,3 v 5 l 5,-1 2,-3 3,-3 v -4 l 1,-3 3,-1 -1,-3 h 3 l 2,1 v -3 l 1,-2 v -2 l 1,-1 v -2 l -1,-2 2,-1 -1,-2 v -2 l -1,-2 1,-2 2,-1 -2,-1 v -2 l 2,-1 h 2 l 1,-2 2,-2 1,2 -1,2 v 2 h -3 l 1,2 v 2 l -1,1 h -2 l 1,2 v 2 l 1,2 h 2 v -2 l 1,-1 v -2 l 1,-2 v -2 h 2 v -2 -2 l 1,-2 -1,-1 1,-1 1,-2 2,-1 2,-1 v 2 2 h -2 v 2 l -1,2 v 2 2 l -2,2 -1,2 v 2 2 l -1,1 -1,2 1,2 -2,1 -1,1 -1,-3 -2,-1 v 2 2 l -1,2 h 3 l 1,3 h -3 l -2,1 1,3 -2,1 v 3 l -3,-2 -3,2 v 3 h 4 l -2,3 -2,2 -2,1 -1,4 h 4 l 4,-2 1,-3 1,-2 2,-2 1,-3 3,1 h 3 l 1,-2 3,-1 1,-2 1,-2 1,-1 v -2 l 2,-1 v -2 -2 l 1,-1 h 2 l 1,-2 -1,-2 -1,1 -2,1 v -3 -2 -2 l 2,2 1,-2 1,-1 -1,-2 v -2 l 2,-2 v 2 l 1,2 1,2 1,2 h -3 v 2 l 1,2 2,-2 1,2 v 2 l -1,1 -2,1 -1,2 -2,1 2,1 -2,2 -1,1 -1,2 v 2 l -2,1 v 2 l -1,2 h -3 l -1,3 -3,1 h -3 l -2,2 -1,3 -2,3 -3,1 -2,2 -4,1 -3,4 -3,-5 -3,3 -7,-2 -3,4 -1,5 h -4 l -2,2 -3,1 3,3 -1,2 -1,2 -2,2 2,1 3,2 -1,2 -1,3 v 4 l 4,-2 1,-3 1,-3 2,-1 3,2 v -3 l 2,-1 1,-2 1,-3 -3,1 -2,-2 -2,1 -1,2 3,1 -3,1 -2,1 -3,-1 1,-2 1,-2 1,-2 2,-2 3,-1 3,2 1,-2 1,-3 3,1 2,-3 3,3 1,3 3,-3 1,-2 1,-4 h 4 l 2,-2 4,-1 1,-3 2,-2 v -3 l 3,-1 2,-2 2,4 3,-1 -1,-3 v -2 l 2,-2 3,-1 -1,-3 3,1 v -3 l -2,-2 2,-1 1,-2 2,-1 v -2 -2 l 2,-1 1,2 v 2 l 2,-1 1,2 2,-1 v -2 l 1,-1 2,2 1,2 -2,1 -2,1 -1,1 -1,2 2,1 -2,1 1,2 -1,3 -1,4 -2,1 -1,3 1,3 h -3 v 3 l -2,2 -2,2 -2,1 -2,2 -1,3 -2,-3 -2,3 2,4 h -3 l -1,2 -2,2 -2,1 -3,1 h -3 l -1,2 -1,1 h -3 v 3 l -1,2 -1,3 h 3 l 3,1 -1,-3 v -3 l 4,-2 v 3 l -1,2 1,3 -1,3 h -3 -3 l -1,2 3,1 v 2 l -1,2 -1,2 v 2 l -1,2 4,2 -2,1 -1,2 -2,2 -2,2 -2,2 -2,2 v 3 l -2,1 -1,2 -2,1 -2,2 -1,-2 1,-2 2,-2 2,-2 v -3 l 1,-2 1,-2 2,-1 3,-2 v -3 l -3,1 -2,1 -1,-3 2,-1 1,-1 3,1 v -2 l 1,-1 1,-2 1,-2 h -3 l -1,-1 1,-2 v -3 l -1,-3 -3,1 -1,1 -2,3 4,1 -1,2 v 2 l 2,1 -2,1 -2,1 -1,-2 v -2 l -2,-2 -1,2 -1,1 h -2 v -3 l 1,-3 3,-2 v -3 -3 l 1,-2 3,3 1,-2 3,2 v -3 l 2,-1 -2,-2 3,-1 2,-2 1,-1 3,-1 1,-2 1,-2 3,3 2,-2 -2,-3 2,-1 h 3 l 1,-3 1,-3 3,-1 2,-1 3,-2 2,-2 v -3 l 2,-2 1,-2 1,-3 h 3 v -2 l 1,-2 -1,-2 v -2 l -1,-2 2,-1 -1,-2 -3,1 -1,2 1,2 v 2 2 l -2,2 -2,2 -2,1 v 3 l -2,4 -2,2 -2,1 -3,-3 v 4 l -2,1 -2,2 v 3 h -4 l -2,3 h -3 l -1,3 -1,2 h -3 l -1,2 -1,1 -1,2 -2,1 v 2 l -2,1 -1,-3 1,-3 1,-1 -2,-3 -3,1 1,3 -1,2 v 2 l -1,2 -1,2 -1,3 -1,3 -4,-2 v 4 l -3,3 -1,2 -1,1 v 2 l -2,1 -1,3 -1,3 -1,3 -2,2 h -5 l -1,-4 2,-1 v -3 l 3,1 1,-3 1,-2 1,-1 2,-2 -5,-2 -2,4 -1,2 -4,2 -2,3 -1,3 h -4 l -3,2 -1,-4 -1,-3 -1,-2 1,-1 2,-2 1,-5 5,1 -1,4 -2,2 -2,1 v 2 l 2,2 2,-2 1,-2 2,-1 2,-1 1,-2 v -5 -5 l 4,1 1,-3 2,-2 -3,-2 -3,1 -2,1 v -4 l 2,-2 2,-2 2,1 1,-3 -2,-4 h -4 l -1,4 -3,4 -2,3 1,4 1,4 h -4 l -2,-5 -4,2 -4,3 -4,2 -4,2 -1,3 -2,2 -2,-5 -2,1 v 4 l -1,3 4,1 h 3 l 2,1 1,-3 2,-1 v -3 h 6 l -2,3 1,3 1,3 v 2 4 h -4 v -3 l 1,-2 v -2 -2 l -3,1 v 2 l -2,1 v 3 l -2,-1 -3,1 1,-4 h -3 -3 l 1,3 v 3 l -1,2 2,5 -3,1 -2,-4 -1,1 -1,3 1,3 3,1 -2,3 -2,2 -1,3 v 3 l -2,2 -1,3 1,4 3,4 2,-3 -1,-4 5,2 4,-1 2,-4 6,2 -3,4 -4,2 -4,1 2,5 -4,-1 -1,4 -5,1 -2,-6 -3,3 -1,4 -3,3 3,5 -1,4 -3,3 -4,1 -4,2 -3,3 -2,4 -3,5 4,1 5,-2 v 5 l -3,2 -4,2 -1,-4 -4,1 h -3 l -2,3 h -3 l -1,3 -1,3 v 3 h -3 l -1,2 -2,-1 -2,1 v 2 h 3 v 2 2 2 l -1,2 v 2 2 l 1,2 v 2 2 l 1,2 -1,2 -2,1 2,1 -1,1 v 2 l 1,2 v 2 l -1,2 2,1 1,-2 1,-2 v -2 l -1,-2 2,-1 2,-1 h 3 l 1,-2 2,-2 1,-3 -4,-2 2,-2 3,-1 2,-2 2,-3 1,-5 -4,1 -5,-1 1,4 -2,-1 -2,4 v 3 l -1,3 1,3 -1,3 -3,1 1,-3 -1,-3 v -3 l -1,-3 1,-2 1,-3 v -3 l 1,-2 4,-2 4,-1 -3,-4 2,-1 2,-3 h 3 l 1,6 5,3 1,-4 3,-3 3,-2 1,-4 2,-4 -2,-6 h 4 l 2,-3 4,-6 3,-4 -1,-6 h 4 l 3,-3 3,-3 4,-1 3,-2 -1,-4 3,-1 3,-3 3,-1 1,-2 v -3 h 3 v -4 l -2,-7 h -5 l -2,4 -4,-1 h -4 l -3,3 -4,2 v -4 l 2,-3 2,-3 3,-1 -1,-4 4,2 4,-2 1,-4 -4,-2 -2,3 -3,-3 1,-3 3,-1 3,1 4,2 5,2 -2,6 h 5 l 3,-4 4,-1 2,-3 5,2 4,-1 1,3 -2,2 -3,1 3,4 2,-2 1,2 -1,2 -2,1 v 2 h 2 l 2,-1 1,-2 1,-2 -1,-2 -1,-2 1,-3 v -3 l 2,-1 1,-3 v -3 -3 l 1,-3 3,-2 -1,-2 4,-2 -1,1 1,2 1,2 -2,1 -1,2 -2,1 1,3 3,-1 3,1 -1,-3 1,-1 1,-2 h 3 v 2 l -1,2 2,3 -1,2 -1,3 h -3 l 1,-3 h -3 -3 l 1,3 h -3 v 3 l -3,1 -1,3 1,2 1,2 1,2 h -2 l -1,2 -1,2 -2,1 -2,1 -1,2 -1,2 -2,2 4,1 1,3 3,-1 v 3 h 3 l 1,-2 v -2 h 2 v -2 l 1,-1 -1,-2 1,-2 -1,-2 -2,2 -1,2 -1,1 v 2 h -3 l -1,-2 1,-1 1,-2 2,-1 1,-2 1,-1 2,-1 1,-2 -1,-2 -1,-2 -1,-2 1,-1 3,-2 2,-1 h 3 l 2,1 -2,2 v 2 l -2,1 -1,-3 -2,1 v 2 l 1,2 2,1 -1,1 -1,2 -1,2 1,2 v 3 l 1,2 v 2 l -1,1 1,2 -3,1 -1,2 h 3 l 2,-1 1,3 -1,1 h -3 -4 -3 l -4,-2 -2,6 3,1 h 5 l 4,-1 h 3 3 l 3,2 2,-2 2,-1 3,-1 -1,-3 2,-2 -1,-2 v -2 h 3 v -2 l 1,-2 1,-2 -1,-2 h -2 v 2 l -1,2 -1,2 -2,-2 -2,1 1,2 v 2 2 l -1,2 -1,2 -3,1 v -3 -2 l 2,-1 v -3 l -2,1 -2,1 v -2 -2 l -1,-2 -1,-2 1,-2 -1,-2 1,-1 h 2 l 1,2 1,2 -2,1 1,2 1,2 1,-2 1,-1 h 2 2 v -2 l 1,-2 2,-1 2,1 1,-3 1,-1 3,-1 v 3 l -2,1 v 2 2 l 1,1 -1,2 -1,2 v 2 2 l -2,1 2,2 -3,1 v 3 l 3,-1 1,3 h 3 l 3,-1 v 3 l -2,2 v 3 l -2,1 1,3 h -3 l -2,-1 -2,2 -1,2 v 3 l 2,5 -1,3 -1,2 -1,2 -2,3 v 4 l -2,3 -4,-2 1,-2 1,-3 2,-3 v -3 l 2,-3 v -3 -3 h -4 v 3 l -1,4 -1,3 -2,1 v 4 l -4,1 -1,-4 1,-2 v -4 l 4,-2 -1,-4 2,-3 2,-1 1,-3 3,3 v -3 l 2,-1 1,-3 h 4 l 2,-3 -3,-1 h -3 l -3,2 -3,2 -4,-1 -4,-1 -4,1 -3,1 -6,3 -3,2 -4,-1 h -7 l -2,-6 -5,1 -2,-4 3,-2 4,-2 5,-1 4,-2 2,-4 -4,-2 -4,2 v -5 l 3,-1 1,-2 h 3 l 1,-2 1,-1 h -4 l 1,-2 1,-2 v -2 l -4,-1 -1,4 v 3 l -4,-2 2,4 -2,1 -2,2 v 2 l -1,2 v 3 l -3,-2 v 3 l -1,2 -2,2 -3,1 v 4 l 1,4 -3,1 -5,1 -3,4 -1,6 -4,1 -3,5 1,8 -3,1 -5,4 -3,4 -2,6 -2,4 8,2 3,-4 4,-1 1,-6 5,1 4,-3 5,-3 4,-2 5,3 4,-1 4,-1 4,-6 h -5 l -7,-2 -3,2 -5,-5 -2,4 h -7 l 2,-4 3,-7 2,-4 3,-2 5,-1 3,1 -2,4 -4,1 v 5 h 6 5 l 1,-5 4,2 h 7 6 l 3,-3 v -4 l 3,-2 4,-1 3,1 -3,3 -2,3 -1,3 -3,3 -3,3 -5,4 4,2 5,1 v 5 l -2,3 -3,2 -1,4 3,6 3,-3 v -4 l 3,-1 1,-3 2,-2 4,2 -1,3 -1,4 h -3 l -1,4 -1,3 -2,2 -4,1 h -5 l -6,3 -5,1 1,-5 1,-4 3,1 2,-5 -1,-7 -6,2 h -5 l -5,1 -4,-2 -3,4 -4,3 -4,5 4,1 h 6 l 4,-1 1,-5 h 6 l -1,4 -1,4 -1,5 3,1 -3,3 -3,2 -3,1 -2,2 v 4 l 1,4 h -3 l -2,1 v 2 2 l 3,-1 2,-1 3,-1 1,-3 -1,-4 2,-2 5,-1 -1,4 -1,3 3,1 3,-3 1,-3 -2,-5 4,-1 h 7 4 5 v -4 l 2,-2 h 3 v -3 l 2,-2 1,-2 1,-3 3,-1 v -3 l 1,-3 2,-1 h 3 l 1,-3 2,-1 -1,-5 3,-2 1,-4 h 4 l 4,-1 2,-2 5,-3 4,-3 2,-2 1,-5 4,2 3,-2 h 4 l 6,4 4,-3 4,-1 2,-4 4,-1 4,-2 3,-4 2,-3 2,-1 3,-2 1,-3 3,-1 1,-3 3,-2 2,-2 3,-1 v -3 l 1,-2 1,-2 1,-3 2,3 2,-1 2,-1 1,3 -2,2 h -3 l -1,2 v 3 l 1,3 -3,-1 -1,2 h -3 v 3 l -3,-1 v 3 3 h -3 l -1,3 -2,1 -3,2 -2,3 -1,3 -4,2 -5,2 -1,6 -3,4 -2,6 -6,-2 -7,-1 v -6 l -7,1 -2,5 1,5 -6,-1 -3,1 -4,3 h -5 -4 l -2,3 -2,2 1,4 -1,3 -2,1 v 4 l -3,1 -2,-4 -2,2 v 4 l -3,1 -2,2 -1,3 -1,2 -1,3 -2,1 -2,1 v 3 l -3,2 -2,3 v 5 l -3,2 -5,-3 -1,8 7,1 h 4 v -4 l 2,-4 1,-2 1,-2 1,-2 1,-2 1,-2 1,-2 h 3 l 2,-2 -3,-1 2,-2 1,-1 v -3 l 2,-2 4,-2 -1,3 v 3 l -2,1 v 4 l 3,-1 2,-1 1,-3 v -3 l 1,-3 2,1 1,-4 2,-3 3,-2 -1,-4 1,-3 6,1 v 6 l 6,-5 4,-2 4,-3 6,-3 6,1 -3,10 -1,5 -5,4 -3,5 -1,4 v 4 l -3,2 -2,-5 -2,-7 -2,6 -2,4 4,2 -1,3 -4,2 -3,3 -1,-4 3,-3 -4,-2 h -4 v -4 h 4 l 2,-3 1,-7 h -4 l -2,3 -2,3 -3,2 v 3 3 h -3 l -1,1 h -3 -3 l -1,2 h -3 l -1,2 -1,2 -1,2 -1,2 -1,2 -2,2 v 3 l 1,3 -1,2 -3,1 -3,2 h -4 l -4,2 -3,1 -2,3 -3,4 -4,3 4,2 -3,3 h -5 l -3,4 h -4 l 2,-5 1,-3 3,-1 v -3 l 1,-3 2,-2 4,-1 1,-4 -4,-2 -1,3 h -3 l 1,-3 1,-3 h 3 l 3,1 3,-3 -3,-5 -2,2 -2,2 -3,-3 -2,2 -3,1 h -3 l -1,1 v 2 l -2,1 -1,-2 -2,-1 v 2 l -1,2 2,1 -2,1 1,3 3,-2 3,-1 1,-2 2,-2 h 3 l -1,3 -1,3 -1,2 -3,-1 -2,2 -1,2 -1,1 -1,2 -2,-2 h -3 l 2,3 -1,2 -2,-1 v 3 3 3 h 3 v -3 l 1,-2 2,1 v -3 l 1,-1 2,-2 2,-2 1,-2 2,-1 3,-1 -2,4 -1,2 -2,2 -2,2 v 3 l -2,2 -1,2 1,4 -4,-1 h -3 l -1,3 -3,1 -1,4 -4,2 v 5 l -2,4 -3,5 -1,4 -2,6 -6,2 -3,2 -2,1 v 5 l -1,3 -3,3 -4,1 v 4 h -4 l -1,-3 1,-3 4,-3 1,-3 2,-4 h -4 l 1,-5 4,-1 1,-4 h 5 l 4,-1 2,-4 1,-7 4,-4 1,-5 1,-4 1,-3 3,3 2,-4 3,-1 v -3 l -1,-3 v -2 l 1,-2 v -2 -3 l -3,1 v 3 l -1,2 v 3 3 l -2,2 -1,-4 -3,1 -1,2 -2,2 -1,3 -2,4 -2,3 -3,2 -3,2 -5,4 6,3 -2,4 -4,-1 -2,4 h -3 l -1,2 -1,3 -2,2 -3,-3 2,-3 -3,-1 -3,2 -2,2 -3,1 -3,1 v -2 l 1,-2 v -2 l 3,1 v -3 l 2,-1 3,-1 -1,-3 h -3 l -2,-1 -1,3 -2,2 -1,-2 1,-2 h -3 l -1,2 1,2 v 2 l 1,2 -1,2 v 2 2 l -1,2 1,2 2,-1 1,-2 1,3 -1,2 h -2 l -1,2 3,1 -2,1 v 2 l -1,2 -1,2 -1,1 -1,-2 1,-2 -1,-2 1,-1 -1,-2 1,-2 -1,-2 -1,-2 1,-2 v -2 -2 l 1,-2 -1,-2 v -2 l -1,-2 1,-2 1,-2 -1,-2 1,-2 1,-2 1,-2 2,-2 v -2 l 2,-1 1,-2 h -3 l -2,1 -1,2 v 2 h -2 v 2 l -1,2 -1,2 v 2 2 l -1,2 -1,1 1,2 -2,1 -1,-2 v -3 -2 l 1,-1 v -2 l 1,-2 1,-2 v -2 h -2 l -1,2 -2,1 1,2 -1,2 h -2 v -2 l -1,-2 1,-2 v -2 l 2,1 1,-2 1,-2 v -2 l 1,-2 v -2 l -1,-2 v -2 l 1,-2 2,-1 v -2 l 1,-1 v -2 -2 l 1,-2 1,2 1,2 v 2 2 l 1,2 h -2 l -1,1 1,2 -3,-1 v 2 2 l 1,2 -1,2 v 2 l -1,2 h 3 l 1,-2 v -2 h 2 v -2 l -2,-1 v -2 h 2 l 1,-2 1,-1 1,2 2,-2 h 2 l 1,-2 v -3 l 2,1 1,-2 -3,-2 2,-1 1,-1 2,-1 2,1 -1,2 h 3 l 2,-2 1,-2 2,-1 1,2 1,3 -2,-1 -1,2 -1,2 -3,1 -2,-1 -1,2 -2,2 -1,2 -1,2 h -3 l -2,1 -2,1 v 2 l 2,-1 h 3 l 1,3 -1,3 -2,2 -1,3 -2,1 -1,2 -1,2 1,2 2,-1 1,-3 3,2 v -3 l 1,-2 2,-1 1,-2 4,2 v 3 l -4,1 v 3 h 4 v 3 l 2,4 3,-2 2,-2 -3,-3 2,-3 4,-3 2,-4 -1,-5 2,-3 4,5 2,-2 4,-1 2,-4 h -3 l -4,1 v -4 l 3,-1 3,-1 2,-1 1,3 4,-2 3,-1 v -2 l 1,-2 -3,-3 -1,3 -1,2 -2,1 v -3 l -2,1 -2,-2 -1,2 -2,2 h -3 -3 l -1,2 v 3 h -3 l -3,2 -3,2 -3,2 4,2 1,4 -3,3 -2,-4 h -3 l -3,-1 v -4 l 2,-2 2,-3 3,-2 3,-1 2,-2 2,-1 1,-2 2,-1 h 3 v -2 l 2,-1 1,3 2,-1 1,-3 h 4 l 3,-3 3,-2 2,-1 v 4 l 2,-1 h 3 l 1,-3 -1,-2 -1,2 h -2 l -1,-2 1,-1 v -2 l 2,-1 1,2 1,-2 v -2 -1 l 2,-1 -1,-2 h 3 v 2 l -1,2 v 2 l -1,2 v 2 l 1,2 -1,3 3,-1 1,-2 -1,-2 v -2 l 1,-2 v -2 l 1,-2 v -2 -2 l 1,-2 1,-3 1,-2 1,-2 v -4 l 2,-2 3,-2 -6,-2 -2,2 -3,-1 -2,2 -2,1 -3,2 -1,2 -2,1 -5,2 v -4 l 1,-2 1,-1 h 3 l 2,-1 1,-1 2,-2 2,-3 -5,-5 -2,4 -1,3 -2,2 -4,-2 -1,3 -1,2 v 3 h -3 l -2,3 5,2 -2,4 h -3 l -2,2 v 3 l -1,3 -1,2 1,2 h 2 l 2,-2 1,-3 2,-2 3,-1 1,-2 3,-2 3,-3 4,1 1,-3 1,-2 1,-2 2,-1 3,-1 v 3 l -2,1 v 3 l -1,3 -1,3 h -3 l -3,-1 -2,1 -1,1 -2,1 -1,2 -1,1 -1,2 -2,1 v 3 h 2 l 1,-1 1,-2 2,-2 1,-2 2,-1 2,-1 v 2 l -1,2 -1,1 -2,1 -1,2 -1,2 -1,2 h -2 l -1,1 -2,1 -3,1 1,-3 2,-1 -2,-2 -2,1 -1,1 h -2 v 2 l -1,2 h -3 v 3 l -2,1 v 2 l -3,-1 v -2 l -1,-2 -2,-1 1,-2 2,1 2,2 v -4 h 3 l 1,-2 -2,-1 v -2 l 1,-1 -2,-2 2,-2 -3,-1 1,-2 2,-1 -1,-4 h -3 l -2,2 -1,3 v 2 l 2,1 1,2 -1,1 1,2 v 2 l -2,1 -2,1 -1,-2 1,-2 1,-1 -1,-3 -2,1 -1,1 v 2 l -1,2 1,2 1,2 -1,2 -2,1 -1,2 -3,-1 1,-1 1,-2 2,-1 -1,-2 -2,1 -1,-2 2,-1 1,-2 v -2 -2 l 2,-1 2,-1 -1,-2 1,-2 1,-2 1,-3 1,-3 h 4 l 4,2 -1,-4 2,-1 1,-2 4,-1 v -4 l -4,2 -2,-7 -5,3 2,5 -3,2 -2,1 -3,2 -1,3 -1,1 -1,2 -1,3 v 4 l -2,-1 -1,2 v 2 2 2 l -2,1 -1,2 1,2 1,2 -4,-2 1,2 v 1 2 l -2,1 -2,1 v 2 h -2 l 1,2 v 2 2 l -2,1 -1,-2 v -2 -2 l -1,-2 -1,-2 v -2 h 2 l 1,2 2,-1 v -2 h 2 l -1,-2 v -2 l 1,-1 2,-1 1,-2 1,-2 v -2 -3 l -3,1 v 3 l -1,1 v 2 l -2,1 h -3 l 1,2 v 2 l -1,2 -2,-1 v -2 -2 l -1,-2 v -2 -2 -2 l -1,-2 v -2 l -1,-2 1,-2 -1,-2 3,1 -1,-2 v -2 -2 -2 h -2 l -1,2 v 2 l -2,1 -1,-2 v -2 l 1,-1 -1,-2 -1,-2 -1,2 -1,2 v 2 l 1,2 v 2 l -1,1 1,2 h 2 l 1,-2 1,2 -1,2 1,2 -1,2 2,1 v 2 2 2 l 1,2 v 2 2 l 1,2 -1,2 -2,-2 -1,2 v 2 l -1,2 v 2 l -1,2 v 2 h -2 v 2 l -1,2 v 2 l 1,2 v 2 2 l -1,2 -2,1 -1,-2 1,-1 v -2 -2 l -1,-2 1,-2 v -2 -2 l 1,-2 2,-1 v -2 -2 l 1,-1 v -2 l 1,-2 1,-2 h 2 l -1,-3 -2,1 -1,-2 2,-1 1,-1 -1,-3 v -2 h -3 l 1,-2 1,-2 -1,-2 -2,2 v 2 l -2,1 v 2 l 1,2 2,-1 1,2 -2,1 -1,2 1,2 1,2 h -2 l 1,2 -1,2 -1,2 -2,1 2,1 v 2 h -2 v 2 l -1,2 v 2 l -2,1 2,1 -1,2 1,2 -1,1 1,2 -1,2 H 5 l -1,-2 h 2 l -1,-2 -1,-2 2,-1 -1,-2 -2,1 v -2 l 1,-2 2,-1 -1,-2 h 2 v -2 l 1,-2 -1,-2 1,-2 h 2 l 1,-2 -2,-1 1,-1 1,-2 -1,-2 1,-2 -1,-2 -1,1 -2,1 1,2 -1,1 v 2 3 l -2,2 -1,-2 1,-2 -1,-2 v -2 -2 l 1,-2 2,-1 v -2 h 2 l 1,-2 v -2 l 1,-1 2,-1 v -2 l -1,-2 v -2 l 1,-1 -1,-2 v -2 l 1,-2 1,-2 -1,-2 1,-2 2,2 1,-2 2,-1 2,2 -2,1 1,2 1,2 2,-1 -1,-2 2,-1 v -2 -2 l -2,1 -1,-2 1,-2 -1,-2 v -2 h 2 v -2 l 2,1 h 2 l 1,-2 1,-2 1,-2 -2,-1 3,-2 2,-2 1,-2 2,-1 3,-1 2,-2 v -4 l 2,-1 1,-4 3,-4 4,-3 v -4 l 6,2 1,-4 -4,-2 3,-4 1,-3 2,-3 2,-3 2,-3 v -3 l -1,-4 2,-2 1,-4 v -3 l 2,-1 1,-3 1,-2 -4,-1 v -3 l 2,-1 2,-3 3,-3 1,-3 h -3 l 2,-4 v -3 h -4 l -1,3 -2,3 3,3 -3,1 v 3 l -3,1 v 4 l -1,1 -2,2 1,3 3,-1 -2,4 v 3 l -2,2 h -3 -3 l -2,1 h -3 l -3,1 1,3 3,-1 -2,4 -2,1 -1,2 v 3 l -1,2 -3,1 v 3 l -1,2 -2,4 -2,2 -2,1 1,3 -1,3 -2,1 h -2 l -1,2 -1,1 -2,1 1,2 2,-1 1,2 v 2 l -3,-1 1,2 -1,2 -1,2 -1,2 -2,1 v -2 -2 l -1,-2 h 2 l 1,-1 -1,-2 v -2 l -1,-2 1,-2 2,-1 v -2 l 1,-1 h 2 l 2,-1 1,-1 v -2 l -1,-2 1,-2 h 2 l 1,-2 2,-1 v -2 l 1,-3 h -2 l -1,-2 2,-1 v -2 l 3,1 2,-2 -3,-1 1,-2 2,-1 2,-2 -1,-3 -2,1 -1,2 h -2 l -2,1 1,2 -1,2 -2,1 v 2 l -2,2 -1,-2 v -2 l 1,-2 2,-1 -1,-2 -2,1 -1,-2 -1,-2 v -2 l -1,-2 2,-1 -2,-2 1,-1 v -2 l -1,-2 -2,1 v -2 -2 -2 l 2,-1 v 2 l 1,2 2,-1 v -2 l -1,-2 h 2 v -2 -2 l -1,-2 1,-1 1,-2 -2,-1 2,-1 1,-2 -1,-2 -2,-1 3,-1 -2,-1 v -2 l -1,-2 -1,-2 v -2 l 1,-2 v -2 l -1,-2 v -2 -2 l 1,-1 v -2 l 2,-1 2,-1 2,-1 1,1 -1,2 -1,2 -2,-1 v 2 l 1,2 h -2 v 2 l 2,1 -1,1 -1,2 v 2 2 l 1,2 v 2 l 2,1 2,-1 -1,-2 -1,-2 v -2 -2 l 2,-1 v -2 l -1,-2 1,-2 1,-2 1,-2 1,-2 h 2 v 2 l -1,2 1,2 h -2 l -1,2 1,2 v 2 l 1,2 h -2 l -1,1 v 2 l 1,2 2,-2 2,-1 1,2 -2,1 v 2 l -1,2 -1,-2 -2,2 -2,1 -1,2 1,2 -1,2 h 2 l 1,2 -1,2 -2,-2 -1,2 1,2 -1,1 -1,2 1,2 -1,2 v 2 l 2,2 1,-2 v -2 l 1,-2 -1,-2 h 2 v -2 l 1,-1 1,-2 1,-2 -1,-2 -1,-2 -1,-2 2,-1 1,2 1,2 2,1 -1,2 v 2 l -1,2 -1,2 v 2 l -1,2 -1,1 v 2 l -1,2 v 2 h -2 l 1,2 1,2 -2,1 -2,1 v -2 -2 l -1,-2 -1,-2 -2,1 1,2 v 2 2 l 1,2 -2,1 1,2 v 2 h 3 l 1,-1 -1,-2 2,-1 1,2 1,-2 1,-1 1,-2 2,2 2,-1 1,-1 1,-2 1,-3 1,-2 2,-1 1,3 -2,2 v 3 l 3,-1 2,-1 h 3 l -2,-3 2,-1 -4,-2 v -3 l 2,1 1,-3 1,-2 1,-1 v -3 l 3,-1 -1,-3 1,-1 1,-3 2,-2 1,-4 3,-1 1,-3 3,3 1,-3 v -4 h -4 -3 l -1,3 -3,-1 -1,3 v 3 l -1,2 -2,3 -2,2 v 3 l -1,2 h -3 l 1,3 -1,2 -1,1 -1,2 -1,2 -3,1 -2,2 v 3 l -1,2 h -3 l 1,-2 v -2 l 1,-2 1,-2 1,-2 2,-1 -2,-1 1,-2 h 3 l 1,-3 h -3 v -2 l 2,-1 1,-2 2,1 1,-2 -1,-3 h 3 l 2,-2 1,-3 h -3 l -2,2 -1,-3 -2,1 v 2 l -2,1 -1,2 2,1 -2,2 -2,-1 -1,-2 1,-2 1,-2 1,-1 1,-2 2,-1 -3,-1 2,-1 1,-1 v -2 l 2,-1 1,-1 2,-1 2,-1 2,-1 1,-2 v -2 l -1,-2 -2,-2 1,-2 -1,-2 1,-1 h 2 l 2,-1 1,-1 h 2 l 1,-2 1,-2 v -2 l -1,-2 -1,-2 1,-2 1,-2 v -2 -2 l 1,-2 2,-1 2,1 1,-2 -1,-2 h -2 l -1,1 -2,1 h -3 l 1,2 v 2 l -1,2 v 2 l -1,2 -1,-2 -2,-1 -1,2 -1,-2 -2,1 -1,1 v 2 2 l 1,2 -1,2 -1,2 2,1 2,-1 v -2 l 1,-1 h 2 l -1,-2 -2,-1 v -2 h 2 l 2,1 1,2 1,2 v 2 l -1,1 h -2 l -1,2 -2,1 h -3 l -2,-1 v 2 l 1,2 -1,2 h 2 l -1,2 -2,1 h -2 l -2,-1 v 2 3 l 1,2 2,-1 -1,-2 h 2 l 2,1 v -2 l 2,-1 1,2 v 2 l -2,1 -2,1 -2,1 h -2 l -1,2 -1,1 v 2 l -2,1 -1,-2 v -2 l -1,-2 h 3 v -2 l -1,-2 1,-2 -1,-2 v -2 -2 l -3,-1 v 2 l -2,1 -1,-2 -2,1 v -2 l 2,-1 2,-1 1,-1 h 2 l 1,2 2,-1 1,2 v 2 h 2 l 1,-2 -1,-2 v -2 l 1,-2 1,-2 1,-2 -1,-2 1,-2 -1,-2 -1,-2 1,-1 h 2 l 2,-1 1,-1 2,-1 1,2 2,-1 v -2 l -2,-1 1,-2 1,-1 -1,-2 v -2 l 1,-2 -1,-2 -2,-1 h -2 l -1,-2 1,-2 1,-1 1,3 h 2 v -2 l -1,-2 h 2 v -2 l 1,-1 -1,-2 v -2 -2 h 2 l 1,2 v 2 l 1,2 -1,2 v 2 l 1,2 h -2 l -1,2 1,2 1,2 -1,2 v 2 l 1,2 2,-1 v -2 h 2 l 1,-1 -1,-2 h -2 l 1,-2 -2,-1 2,-1 1,-2 -1,-2 v -2 -3 -2 l -1,-3 h 2 l 2,-1 1,-2 -1,-2 h 2 v -2 l 2,-1 -2,-2 -1,1 -2,1 -1,1 v 2 2 l -2,1 -1,-2 v -2 l -2,1 v 3 L 62,21 V 19 17 15 13 11 L 63,10 62,8 V 6 4 h 2 l 1,2 v 2 l 1,2 v 2 l -1,1 -1,2 2,1 2,-2 1,-2 h 2 l 2,-1 1,-2 1,-2 2,1 -1,2 v 1 l -1,2 2,1 v 2 l 1,2 -2,1 -1,2 -1,2 -1,2 -2,1 -1,1 3,1 v 2 h -2 l -1,1 1,2 v 2 l 2,1 1,-2 v -2 l 2,-1 v -2 l -1,-2 1,-2 1,-2 1,-2 2,-1 v 2 2 l -1,1 -1,2 1,2 v 2 l 2,1 -2,2 -2,-1 v 2 l 1,2 h -2 v 2 l 1,1 1,3 -2,1 -1,-2 -1,-2 -1,-2 h -2 v 2 l 1,2 1,2 v 2 h 2 v 2 l 1,2 -1,2 v 2 h 2 l 1,-2 1,-2 -1,-2 v -2 h 2 v -2 -2 -2 -2 l 1,-2 1,-2 2,-2 -1,-2 1,-2 -3,1 v -2 l 2,-1 V 24 22 20 L 81,18 80,16 V 14 L 79,12 V 10 L 80,8 79,6 77,5 79,4 81,3 82,5 v 2 l 1,1 -1,2 v 2 l 1,2 v 2 l 1,2 1,2 1,2 v 2 2 l 1,2 2,-1 v -2 -2 l 2,-1 v 2 l 1,2 v 2 l -1,1 1,2 -2,1 -1,-2 h -3 l 1,2 v 2 h -2 l -1,2 v 2 l -1,1 v 2 2 2 l 2,-1 v -2 l 2,-1 1,2 v 2 2 h -2 l 1,2 3,1 -1,1 1,2 2,1 1,-2 v -2 l -1,-2 -2,-1 1,-2 v -2 -2 h -2 v -2 l -3,-1 2,-1 1,-1 1,-2 h 2 l 2,-1 1,-2 1,-1 -1,-2 v -2 l -1,-2 v -2 l 1,-2 h -2 v -2 l 2,-1 -1,-2 -2,1 -1,-2 v -2 l 3,1 1,-1 2,-1 1,-2 -1,-2 1,-1 2,-1 1,-2 2,-1 1,-2 h -3 L 99,1 98,3 96,4 V 1 l -2,1 -1,1 1,2 V 7 L 95,9 93,10 92,8 91,6 V 4 1 l -2,1 -1,2 v 2 l 1,2 1,2 h -2 v 2 2 l 1,2 1,2 v 2 H 88 L 87,18 86,16 85,14 V 12 10 L 86,8 85,6 V 4 L 84,3 86,2 87,0 H 84 L 82,1 H 79 L 77,2 76,0 74,1 75,3 74,5 72,6 71,7 V 9 L 69,10 68,8 V 6 L 67,4 h 3 L 72,3 71,1 69,2 H 67 V 0 H 64 V 2 H 61 V 0 h -3 v 2 l -1,2 h 2 v 2 2 2 2 2 2 2 2 l 1,2 -1,2 h -3 l 1,-2 v -2 l -1,-2 h -2 v 2 2 2 l -2,1 v 2 h -2 l -1,-2 1,-2 1,-1 v -2 -2 l 1,-2 2,-1 2,1 V 14 12 10 8 6 L 54,4 55,2 V 0 H 53 L 52,2 50,0 h -2 l 1,2 -1,2 -1,2 2,2 1,2 1,-2 -1,-2 1,-2 2,2 1,2 -1,2 v 2 l -2,2 -1,-2 -1,2 v 2 l -1,2 -2,1 2,1 -1,1 v 2 l -1,2 1,2 -1,2 v 2 l 1,2 -1,2 h 2 v 2 2 2 l -2,1 -1,2 1,2 2,-2 1,2 2,-1 -1,-2 1,-2 v -2 -2 -2 l -1,-2 -1,-2 v -2 l 2,1 h 2 l 2,-1 v -2 h 2 l 2,-1 v 2 2 l -1,1 -2,1 h -2 l -1,1 1,2 -1,2 1,2 v 2 l -1,2 1,2 -1,2 -2,1 h -2 l -1,1 1,2 h 3 l 1,-1 2,-1 1,-2 v -2 -2 l 1,-2 2,1 v 3 2 l -1,2 -1,2 -2,1 -2,1 -2,1 -2,-1 -1,2 v 2 l 1,2 -1,2 h 2 l -1,2 1,2 h -2 l 1,2 -1,2 -1,2 -1,-2 -2,1 -1,-2 v -2 l 3,1 -1,-2 1,-2 -1,-2 v -2 l 1,-1 -2,-1 1,-2 1,-2 v -2 l -1,-2 -1,-2 -1,2 v 2 2 l -1,2 -1,2 1,2 v 2 l 1,2 -2,1 -1,-2 -1,-2 v -2 l -2,1 v 2 h -2 l -2,1 v 2 l 1,2 v 2 l 1,2 2,-1 v -2 l -1,-2 v -2 l 2,1 2,2 v 2 1 l -1,2 -2,1 h -2 l -1,2 v 2 2 h -2 l -1,1 -2,1 -1,2 -1,1 v 2 2 2 l 1,2 v 2 l -1,2 v 2 l 1,2 1,2 v 2 2 2 l 2,1 -2,1 v 2 2 l -2,1 -1,-2 v -2 -2 -2 -2 -2 -2 l -1,-2 -1,-2 v -2 l 2,-1 -1,-3 -1,1 -2,1 -1,1 v 2 h -2 l -2,1 1,2 2,-1 2,1 1,2 v 2 2 2 h -3 v -2 l 1,-2 -1,-2 h -2 v 2 l -1,2 v 2 l 1,2 -1,2 1,2 h 2 v -2 l 1,-2 h 2 v 2 2 l 1,2 h -3 l 1,2 1,2 2,-1 1,-1 h 3 v 2 l -1,1 -2,1 h -2 l -1,2 v 2 2 l -1,1 -2,1 -1,-2 h -2 l -1,-2 2,-1 2,1 v -2 l 1,-2 -1,-2 -1,-2 -1,-2 -2,1 -2,-2 1,-1 -1,-2 1,-2 -1,-2 v -2 l 1,-2 v -2 -2 l -1,-2 -2,1 v 2 2 2 l -1,2 1,2 v 2 l -1,2 1,2 1,2 -1,2 -2,1 -1,1 v 2 l 2,1 1,-2 2,-1 1,-2 2,1 1,2 -2,1 -2,1 v 2 2 2 2 l -1,2 1,2 -2,1 2,1 v 2 l -1,1 -2,-2 -1,2 -1,2 -1,2 1,2 -1,2 -2,-2 -1,-2 1,-2 1,-2 1,-2 1,-2 v -2 l 1,-1 1,-2 v -2 -2 -2 H 9 l -2,-2 -1,2 -2,1 v -2 -2 l 2,-1 -2,-1 v -2 h 2 l 2,-1 2,-1 -1,-2 -1,-2 1,-2 v -2 l -1,-2 1,-2 v -2 -2 -2 H 7 v -2 l 2,-2 1,2 2,-1 v -2 h 2 l 1,2 2,-1 1,-1 -1,-2 -1,-2 v -2 l -1,-2 v -2 l -1,-2 h -2 l -1,1 -2,1 -1,1 v 2 L 6,86 4,85 5,83 4,81 5,80 h 2 l 2,-1 1,-2 1,-1 h 2 l 1,2 2,-2 1,2 v 2 l 1,2 2,-1 v -2 l -1,-2 -1,-2 1,-2 -1,-2 v -2 l 1,-2 v -2 l -1,-2 -2,2 -1,-2 1,-2 1,-2 -1,-2 1,-2 -1,-2 -1,-2 v -2 l 1,-2 v -2 l 1,-1 h 2 v -2 l -2,-1 2,-1 v -2 -2 l 2,-1 h 2 l -1,2 v 2 2 2 2 l -2,1 -1,2 -1,1 v 2 2 h 3 v -2 l 1,-1 v -2 l 2,-1 1,-2 v -1 h 3 l 1,2 -2,1 -1,2 -2,1 2,2 v 2 l -2,-1 -1,2 -1,2 -2,-2 -1,2 1,2 -1,2 h 2 v 2 l 1,2 -1,2 v 2 2 2 2 l 1,2 1,2 -1,2 -1,2 v 2 l -3,-1 1,2 v 2 l 1,2 2,-1 v -2 h 2 v -2 -2 l 1,-2 1,-2 1,-1 2,-1 1,-2 1,-1 1,-2 v -2 l -1,-2 v -2 l -1,-2 h -2 v 2 2 l 1,2 -2,1 2,1 -2,1 v 2 l -2,2 -1,-2 v -2 -2 -2 l 2,-1 -2,-1 1,-2 -1,-2 2,-1 -2,-1 -1,-2 h 2 v -2 l 2,-1 2,-1 v -2 l -1,-2 1,-1 1,-2 2,-1 -1,-2 -1,-2 1,-2 v -2 l 1,-1 -1,-2 v -2 l -2,-1 -1,2 v 2 2 2 l -2,1 -2,-1 1,-2 v -2 -2 l -1,-2 h 2 l -1,-2 1,-2 h -2 l -2,1 -1,2 -2,1 v -2 -2 l 1,-1 2,-1 1,-1 3,1 -1,-2 v -2 l 1,-2 1,-1 -1,-2 h 3 l -1,-2 -1,-2 1,-2 1,-2 1,2 v 2 l 1,2 v 2 l 1,2 -1,1 -2,1 -1,1 v 2 l 1,2 v 2 l -1,2 h 3 v -2 l 1,-2 -1,-2 1,-2 1,2 h 3 l -1,-2 1,-1 h 2 l 2,-1 1,-1 1,3 -2,1 -1,1 1,2 v 2 2 l 1,2 -1,2 v 2 l 2,2 -2,1 -1,1 -1,-2 -1,-2 v -2 l -1,-2 h 2 l -1,-2 v -2 -2 h -2 l -1,2 v 2 l -1,2 1,2 v 2 l 1,2 1,2 h -2 l -1,2 1,2 1,2 1,-2 v -2 h 3 v 2 l -1,2 -1,2 1,2 -1,2 -2,1 v -3 l -1,-2 -2,1 1,2 -1,1 v 2 l -1,2 -2,1 -1,1 v 2 l 2,1 1,-2 2,-1 1,-1 1,-2 h 2 l 2,-1 1,-2 v -2 -2 l 1,-2 1,-2 1,-1 -1,-2 2,-1 1,-2 v -2 h -2 v -2 l 1,-2 -1,-2 v -2 l 1,-2 h -2 l 1,-2 1,-2 v -2 l -1,-2 1,-2 2,-1 v -2 l 1,-2 V 10 L 46,8 h -2 v 2 2 l -1,2 -1,1 -1,2 -2,-2 v -2 l -1,-2 3,1 V 10 L 42,8 V 6 L 44,5 45,4 46,2 44,1 H 42 V 3 L 40,4 39,6 V 8 L 37,9 36,7 35,5 h 2 L 36,3 37,2 h 2 V 0 h -4 -3 l 1,2 -1,1 v 2 l 1,2 1,2 1,2 1,2 v 2 l 1,2 2,1 -2,1 -2,1 -1,-2 V 16 L 33,14 V 12 L 32,10 31,8 30,6 29,4 V 2 0 h -3 -3 -2 l 1,3 v 2 h -2 v 2 2 l -1,2 v 2 l -1,2 1,2 1,-1 1,-2 1,-2 1,-2 V 8 h 2 L 24,6 V 3 l 2,-1 v 2 l 1,2 1,2 -2,2 -1,2 -1,2 1,2 h -2 v 2 l -1,1 1,2 -1,2 h -2 v 2 l -2,1 -2,1 h -2 l -1,-2 -2,2 -1,-2 v -2 l 1,-2 -1,-2 -1,-2 v -2 l 1,-1 v -2 l 2,-1 1,2 v 2 l -1,2 1,2 1,2 -1,2 2,1 h 2 v -2 l 3,-1 -1,-2 -2,1 -1,-2 -2,-1 1,-2 1,-2 -1,-2 1,-1 2,-1 -1,-2 V 5 L 18,3 19,2 18,0 15,1 V 3 L 14,5 V 7 L 13,9 12,7 11,5 12,3 V 1 H 9 V 3 L 8,5 9,7 10,9 8,10 6,9 V 7 L 5,5 6,3 V 1 H 4 1 L 3,3 1,4 V 7 L 3,6 v 2 l 1,2 H 1 v 2 2 l 1,2 2,-1 v -2 l 1,-1 h 2 v 3 L 6,17 4,18 3,19 H 1 v 2 2 2 l 1,2 v 2 L 4,30 6,29 5,27 4,25 v -2 -1 l 2,-1 1,-2 1,2 -1,2 v 2 l 1,2 1,2 h 2 l -1,2 1,2 -1,2 v 2 L 9,39 H 7 V 37 35 L 8,33 7,31 6,33 4,34 3,32 1,31 v 3 2 h 3 v 2 L 3,39 H 1 v 2 2 2 2 3 l 2,-1 1,-2 v -2 -2 -1 l 2,-1 h 2 l -1,2 v 2 2 l -1,2 -1,2 1,2 v 2 L 7,57 4,56 3,54 v -2 l -2,1 v 3 2 h 3 v 2 2 L 2,61 v 2 2 2 H 4 L 5,65 6,64 8,63 9,62 7,61 v -2 h 2 l 1,-2 -1,-2 v -2 l 1,-1 -2,-1 1,-2 1,-2 v -2 -1 l 2,-1 -1,-2 1,-2 1,-2 v -2 l 1,-2 -1,-2 1,-2 2,1 v 2 l 1,2 -1,2 v 2 l -1,1 -1,2 1,2 -2,2 v 2 l -1,2 v 2 l 1,2 -1,2 h 2 l -1,2 1,2 h -2 l 1,2 -2,1 2,2 -1,1 -2,1 H 8 l -1,1 v 2 l -2,1 -1,1 -2,-2 -1,2 1,2 -1,2 2,1 2,-1 v -2 l 2,-1 2,-1 1,-2 2,1 v -2 l 2,-1 h 2 l -1,2 v 2 l 1,2 -2,1 -1,-2 -2,1 -2,1 -1,1 -1,2 -2,1 H 2 l -1,1 v 2 l 1,2 -1,2 2,2 -2,1 v 2 l 1,2 2,-1 v -2 l 2,-1 h 2 l 2,-1 1,-2 1,-2 1,2 v 2 l 1,3 -2,-1 -2,1 -1,1 H 7 L 6,93 4,94 H 2 l -2,2 v 2 2 2 l 3,-1 v -2 -2 h 2 l 1,2 v 2 2 H 4 l -2,1 -1,1 v 2 3 l -1,2 h 3 v -3 l 1,-2 1,-2 1,2 v 2 l -1,2 1,2 v 2 l -3,-1 -1,1 -1,2 v 2 3 2 l 1,2 v 2 h 2 l 2,-1 2,-1 v 2 2 H 6 l -1,1 H 3 l -3,-1 v 2 2 2 l 3,-1 v -2 h 3 v 2 l -1,2 -1,2 -1,-2 -1,2 -1,2 h 2 l -1,2 v 2 l 2,1 -2,1 -1,2 v 2 2 2 l 1,2 -1,2 h 2 l -1,2 v 2 l -2,1 2,2 -1,1 v 2 2 2 2 2 l 1,2 v 2 l -2,1 2,2 2,-1 1,-2 v -2 l -1,-2 v -2 -2 -2 -2 h 2 l -1,-2 -1,-2 1,-2 v -2 l 1,-2 -1,-2 -1,-2 v -2 l 2,-1 -2,-1 v -2 l 2,-1 1,2 2,-1 v 3 l 2,-1 1,-2 -1,-2 1,-1 h 2 l -1,-2 -2,-1 1,-2 2,1 2,-1 1,-1 v -2 -2 -2 l -1,-2 v -2 l 1,-2 2,2 v 2 l 1,2 v 2 2 2 2 l -2,1 -2,1 1,2 2,-1 v 3 l 2,-1 2,-1 v 2 l -1,2 h -2 l -1,1 h -2 l -1,-3 -1,1 -1,2 1,2 h -3 l -2,1 -1,1 H 7 l 1,2 2,1 2,-2 2,-1 1,2 -2,1 v 2 l 1,2 v 2 l 1,2 2,-1 2,-1 -2,-1 -1,-2 v -2 l 2,-1 v -2 l -1,-1 1,-2 2,1 1,2 v 2 2 l -2,1 2,1 1,2 2,-1 v -2 h 2 l 1,-2 h -3 v -2 l -1,-2 v -2 l 1,-1 h 2 l -1,-2 1,-2 v -2 l -1,-2 h -3 v -2 l 1,-2 v -2 l -1,-2 1,-2 -1,-2 v -2 l 2,-1 1,2 v 2 l 1,1 -1,2 1,2 v 2 l -1,2 h 2 l 1,2 1,2 v 2 l -1,2 1,2 1,2 h -2 l -2,1 1,2 h 2 l 2,-1 2,-2 1,2 -1,2 -1,1 -2,1 -1,1 v 2 l -2,1 -1,1 3,1 -1,1 -2,1 -2,-2 -1,2 v 2 2 h -2 v 2 l -1,2 -2,1 1,2 2,-1 v 2 l -2,1 v 2 l 1,2 v 2 2 2 h 2 v 2 l 1,2 2,-2 v -2 l 2,-1 v -2 l 2,-2 1,-2 2,-1 1,-2 1,-2 -2,-2 v -2 l 2,-1 h 3 v -3 l 1,-2 1,-2 1,-2 2,-1 v -3 h 3 v -3 -3 l 3,-1 1,-3 v -3 l 2,-2 v -3 l 3,1 v -3 h 3 l 2,-1 v 5 l -2,2 -2,2 -2,2 -1,3 v 4 h -3 v 4 l -3,4 -2,3 -1,3 -2,1 -1,3 -3,2 v 3 3 l -2,2 h -3 l -1,2 -1,2 -1,2 -1,2 -2,1 -1,2 1,2 -1,2 h -2 v -2 l -1,-2 -2,1 v 2 2 l -1,1 -1,2 v 2 l 1,2 -1,2 -2,1 h -2 v -2 l 2,-1 -1,-2 -2,1 -1,-2 v -2 l -1,-2 v -2 -2 l -1,-2 -1,-2 2,-1 1,2 1,2 1,2 v 2 2 l 1,2 1,-2 1,-2 v -2 l -1,-2 2,-1 2,-1 -1,-2 -2,1 -2,1 -1,-2 1,-1 2,-1 v -2 -2 -2 h -2 l 1,-2 v -2 -2 l -1,-2 1,-2 2,-1 v -2 l 1,-2 2,-1 v -3 l -2,1 -2,1 -1,1 v 2 2 h -3 v 2 2 2 2 2 l -1,2 -1,2 h 3 v 2 h -2 v 2 H 9 v -2 l -1,-2 1,-2 1,-2 v -2 -2 -2 -2 -2 l 2,-2 1,-1 v -2 l -1,-2 -1,-2 v -2 l -1,-2 H 8 v 2 2 l -1,2 h 2 l 1,2 -1,1 v 2 l -2,1 v 1 2 2 l 1,2 -1,2 v 2 l -1,2 -2,1 H 2 l -1,2 v 2 2 2 2 l 1,2 2,-1 v -2 -2 -2 -2 l 2,-1 v 2 l 1,2 -1,2 1,2 1,2 v 2 l -2,-1 -2,1 H 2 l -1,2 2,2 -1,1 v 2 l 1,2 -3,-1 v 2 2 l 3,-1 v 2 l 1,2 H 2 l -2,3 2,-1 2,1 v 2 H 2 l -1,1 v 2 3 l 2,-1 1,-2 2,1 v -2 l 1,-2 v -2 l -1,-2 2,-1 -2,-2 v -2 l 2,-1 -2,-1 -1,-2 h 2 l -1,-2 -1,-2 1,-1 h 2 l 1,2 v 2 l 1,2 1,2 v 2 l -2,1 2,1 -1,2 -1,2 h 2 l -1,2 -1,2 v 2 2 l -2,1 2,1 1,2 v 2 H 8 l -2,-1 v -2 l -1,-2 -2,1 -2,1 2,1 v 2 H 0 l 1,2 -1,4 2,-1 2,-1 v -2 l 2,-1 1,2 v 2 l -3,1 v 2 H 2 v 2 l -1,2 v 2 2 l 1,2 v 3 l -1,2 -1,3 3,-1 1,-1 1,2 -2,1 v 2 H 1 l 1,2 -1,2 -1,3 v 2 l 2,2 -1,1 v 2 l 1,2 -1,2 h 3 l -1,2 -2,1 -1,2 1,2 v 2 l 1,2 v 3 l -1,2 v 3 2 2 2 l 1,2 -1,2 h 2 l 1,2 -1,1 v 2 H 1 v 3 3 3 l 3,-1 2,1 1,-2 h 2 l 2,-1 -1,-2 1,-1 -1,-2 -2,1 -1,2 -2,1 -1,1 -1,-3 2,-1 1,-2 2,-1 -1,-2 -1,-2 -1,-2 -1,-2 v -2 -2 -2 l 1,-2 H 3 l 1,-2 v -2 l 1,-2 -1,-2 3,1 v -2 l -1,-2 -2,1 -1,-2 2,-1 1,-2 1,-1 2,-1 1,2 v 2 H 8 l 1,2 1,2 v 2 l -1,2 -2,1 v 2 l 1,2 2,-1 v -2 l 2,1 v -3 l 2,1 1,2 -1,2 -2,1 1,2 2,-1 1,2 -1,2 -2,-1 v 2 2 l 1,2 -2,1 -1,-2 -1,-2 v -2 -2 -2 H 7 v 2 2 2 l 1,2 1,2 1,2 1,2 2,-1 1,-1 3,1 -1,-2 1,-2 -1,-2 1,-1 1,-2 1,-2 h 2 v 2 l -1,2 v 2 2 l -1,1 1,2 v 2 l 1,1 -2,1 1,2 v 2 l 1,2 -1,2 -2,1 -2,-2 2,-1 -1,-2 v -2 l -1,-2 1,-2 h -2 l -2,1 1,2 v 2 l 1,2 -2,1 -2,1 -1,1 -2,1 -1,2 -3,-2 -1,2 -1,3 h 4 l -1,3 -1,2 -1,2 -1,2 -1,4 3,-1 2,-1 1,-2 3,-1 v 3 3 H 7 l -2,1 2,3 1,-1 h 3 l 2,-1 1,-1 -1,-2 v -2 l 1,-2 -1,-2 -2,-2 H 8 l 1,-3 v -3 l 1,-2 2,-1 1,-1 h 2 l 1,2 v 2 h -2 -2 l 1,3 v 2 l 2,1 1,2 1,2 -1,2 v 2 l 1,2 v 2 l -1,1 -3,1 v 2 l -2,-1 -2,1 v 3 H 6 l -3,5 h 4 l 4,3 h 3 l 2,-3 h 2 v -2 -2 l -2,1 -2,1 -3,1 1,-4 1,-1 3,1 v -2 -2 l 2,1 1,-2 1,-2 v -2 l -1,-2 v -2 -2 -2 l -1,-2 -1,-2 -2,-1 2,-1 2,-2 v -2 l 2,-1 1,2 2,1 h 2 l 1,-2 1,-2 1,-2 1,-2 1,-2 1,-2 1,-2 v -3 l 1,-2 2,-1 3,-1 v 4 l -2,2 1,3 -2,1 -1,2 -1,2 -2,1 -1,2 h 3 l -1,3 -3,-1 -1,2 -1,2 -2,1 2,1 -2,1 1,2 2,-1 1,2 -2,1 1,2 -2,1 1,2 h 2 l 1,-2 1,-2 1,-2 -1,-2 -1,-2 v -2 l 2,-1 2,1 -1,2 1,2 3,-1 1,-2 -1,-3 -2,-1 2,-2 -1,-3 2,-2 2,-2 v -3 l 1,-2 3,-1 1,4 -1,3 -3,3 -1,3 v 3 l 3,3 -2,2 -1,3 h -3 l -1,1 -1,2 -2,1 -1,2 -1,2 -2,1 v 2 l -2,1 -1,2 -1,2 h -3 l 1,-2 1,-2 v -2 h 2 v -2 l -2,-1 v -2 -2 -2 l -1,-2 -1,-2 v -2 l -1,-2 -2,1 v 2 l 1,2 1,2 v 2 2 2 l 1,2 -1,2 v 2 l -1,2 -1,2 1,2 v 2 2 2 l -1,1 h -2 v 2 z"
       id="path10"
       inkscape:connector-curvature="0" />
  </g>
</svg>
