<?xml version="1.0" encoding="UTF-8" standalone="no"?>
<!-- Created with Inkscape (http://www.inkscape.org/) -->

<svg
   xmlns:dc="http://purl.org/dc/elements/1.1/"
   xmlns:cc="http://creativecommons.org/ns#"
   xmlns:rdf="http://www.w3.org/1999/02/22-rdf-syntax-ns#"
   xmlns:svg="http://www.w3.org/2000/svg"
   xmlns="http://www.w3.org/2000/svg"
   xmlns:sodipodi="http://sodipodi.sourceforge.net/DTD/sodipodi-0.dtd"
   xmlns:inkscape="http://www.inkscape.org/namespaces/inkscape"
   width="3200"
   height="800"
   id="svg10075"
   sodipodi:version="0.32"
   inkscape:version="0.48.5 r10040"
   sodipodi:docname="Notebook_paper.svg"
   inkscape:output_extension="org.inkscape.output.svg.inkscape"
   version="1.0">
  <sodipodi:namedview
     id="base"
     pagecolor="#ffffff"
     bordercolor="#666666"
     borderopacity="1.0"
     inkscape:pageopacity="0.0"
     inkscape:pageshadow="2"
     inkscape:zoom="0.3853125"
     inkscape:cx="868.52298"
     inkscape:cy="500"
     inkscape:document-units="px"
     inkscape:current-layer="layer7"
     showgrid="false"
     inkscape:window-width="1440"
     inkscape:window-height="855"
     inkscape:window-x="0"
     inkscape:window-y="0"
     inkscape:window-maximized="0" />
  <defs
     id="defs10077">
    <inkscape:perspective
       id="perspective10083"
       inkscape:persp3d-origin="372.04724 : 350.78739 : 1"
       inkscape:vp_z="744.09448 : 526.18109 : 1"
       inkscape:vp_y="0 : 1000 : 0"
       inkscape:vp_x="0 : 526.18109 : 1"
       sodipodi:type="inkscape:persp3d" />
    <inkscape:perspective
       sodipodi:type="inkscape:persp3d"
       inkscape:vp_x="0 : 0.5 : 1"
       inkscape:vp_y="0 : 1000 : 0"
       inkscape:vp_z="1 : 0.5 : 1"
       inkscape:persp3d-origin="0.5 : 0.33333333 : 1"
       id="perspective2822" />
    <inkscape:perspective
       sodipodi:type="inkscape:persp3d"
       inkscape:vp_x="0 : 0.5 : 1"
       inkscape:vp_y="0 : 1000 : 0"
       inkscape:vp_z="1 : 0.5 : 1"
       inkscape:persp3d-origin="0.5 : 0.33333333 : 1"
       id="perspective2844" />
    <inkscape:perspective
       id="perspective27575"
       inkscape:persp3d-origin="0.5 : 0.33333333 : 1"
       inkscape:vp_z="1 : 0.5 : 1"
       inkscape:vp_y="0 : 1000 : 0"
       inkscape:vp_x="0 : 0.5 : 1"
       sodipodi:type="inkscape:persp3d" />
    <inkscape:perspective
       id="perspective27645"
       inkscape:persp3d-origin="0.5 : 0.33333333 : 1"
       inkscape:vp_z="1 : 0.5 : 1"
       inkscape:vp_y="0 : 1000 : 0"
       inkscape:vp_x="0 : 0.5 : 1"
       sodipodi:type="inkscape:persp3d" />
    <inkscape:perspective
       id="perspective27738"
       inkscape:persp3d-origin="0.5 : 0.33333333 : 1"
       inkscape:vp_z="1 : 0.5 : 1"
       inkscape:vp_y="0 : 1000 : 0"
       inkscape:vp_x="0 : 0.5 : 1"
       sodipodi:type="inkscape:persp3d" />
    <inkscape:perspective
       sodipodi:type="inkscape:persp3d"
       inkscape:vp_x="0 : 0.5 : 1"
       inkscape:vp_y="0 : 1000 : 0"
       inkscape:vp_z="1 : 0.5 : 1"
       inkscape:persp3d-origin="0.5 : 0.33333333 : 1"
       id="perspective48285" />
    <inkscape:perspective
       sodipodi:type="inkscape:persp3d"
       inkscape:vp_x="0 : 0.5 : 1"
       inkscape:vp_y="0 : 1000 : 0"
       inkscape:vp_z="1 : 0.5 : 1"
       inkscape:persp3d-origin="0.5 : 0.33333333 : 1"
       id="perspective48424" />
    <inkscape:perspective
       sodipodi:type="inkscape:persp3d"
       inkscape:vp_x="0 : 0.5 : 1"
       inkscape:vp_y="0 : 1000 : 0"
       inkscape:vp_z="1 : 0.5 : 1"
       inkscape:persp3d-origin="0.5 : 0.33333333 : 1"
       id="perspective48450" />
  </defs>
  <metadata
     id="metadata10080">
    <rdf:RDF>
      <cc:Work
         rdf:about="">
        <dc:format>image/svg+xml</dc:format>
        <dc:type
           rdf:resource="http://purl.org/dc/dcmitype/StillImage" />
        <dc:title />
      </cc:Work>
    </rdf:RDF>
  </metadata>
  <g
     transform="translate(0,-200)"
     inkscape:groupmode="layer"
     id="layer6"
     inkscape:label="2-light blue"
     style="display:inline">
    <path
       inkscape:connector-curvature="0"
       id="path27565-3"
       d="m 0.27058039,936.29833 1799.45881961,0"
       style="fill:none;stroke:#8d97ff;stroke-width:1px;stroke-linecap:butt;stroke-linejoin:miter;stroke-opacity:1;display:inline" />
    <path
       inkscape:connector-curvature="0"
       style="fill:none;stroke:#8d97ff;stroke-width:1px;stroke-linecap:butt;stroke-linejoin:miter;stroke-opacity:1;display:inline"
       d="m 0.27058039,895.93291 1799.45881961,0"
       id="path48438" />
    <path
       inkscape:connector-curvature="0"
       id="path48440"
       d="m 0.27058039,855.56752 1799.45881961,0"
       style="fill:none;stroke:#8d97ff;stroke-width:1px;stroke-linecap:butt;stroke-linejoin:miter;stroke-opacity:1;display:inline" />
    <path
       inkscape:connector-curvature="0"
       id="path27565-3-9"
       d="m 0.27058039,815.20211 1799.45881961,0"
       style="fill:none;stroke:#8d97ff;stroke-width:1px;stroke-linecap:butt;stroke-linejoin:miter;stroke-opacity:1;display:inline" />
    <path
       inkscape:connector-curvature="0"
       style="fill:none;stroke:#8d97ff;stroke-width:1px;stroke-linecap:butt;stroke-linejoin:miter;stroke-opacity:1;display:inline"
       d="m 0.27058039,774.8367 1799.45881961,0"
       id="path48438-0" />
    <path
       inkscape:connector-curvature="0"
       id="path48440-5"
       d="m 0.27058039,734.47127 1799.45881961,0"
       style="fill:none;stroke:#8d97ff;stroke-width:1px;stroke-linecap:butt;stroke-linejoin:miter;stroke-opacity:1;display:inline" />
    <path
       inkscape:connector-curvature="0"
       style="fill:none;stroke:#8d97ff;stroke-width:1px;stroke-linecap:butt;stroke-linejoin:miter;stroke-opacity:1;display:inline"
       d="m 0.27058039,694.10586 1799.45881961,0"
       id="path48470" />
    <path
       inkscape:connector-curvature="0"
       id="path48472"
       d="m 0.27058039,653.74049 1799.45881961,0"
       style="fill:none;stroke:#8d97ff;stroke-width:1px;stroke-linecap:butt;stroke-linejoin:miter;stroke-opacity:1;display:inline" />
    <path
       inkscape:connector-curvature="0"
       style="fill:none;stroke:#8d97ff;stroke-width:1px;stroke-linecap:butt;stroke-linejoin:miter;stroke-opacity:1;display:inline"
       d="m 0.27058039,613.37502 1799.45881961,0"
       id="path48474" />
    <path
       inkscape:connector-curvature="0"
       id="path48476"
       d="m 0.27058039,573.00961 1799.45881961,0"
       style="fill:none;stroke:#8d97ff;stroke-width:1px;stroke-linecap:butt;stroke-linejoin:miter;stroke-opacity:1;display:inline" />
    <path
       inkscape:connector-curvature="0"
       style="fill:none;stroke:#8d97ff;stroke-width:1px;stroke-linecap:butt;stroke-linejoin:miter;stroke-opacity:1;display:inline"
       d="m 0.27058039,532.64416 1799.45881961,0"
       id="path48478" />
    <path
       inkscape:connector-curvature="0"
       id="path48480"
       d="m 0.27058039,492.27879 1799.45881961,0"
       style="fill:none;stroke:#8d97ff;stroke-width:1px;stroke-linecap:butt;stroke-linejoin:miter;stroke-opacity:1;display:inline" />
    <path
       inkscape:connector-curvature="0"
       style="fill:none;stroke:#8d97ff;stroke-width:1px;stroke-linecap:butt;stroke-linejoin:miter;stroke-opacity:1;display:inline"
       d="m 0.27058039,451.91341 1799.45881961,0"
       id="path48482" />
    <path
       inkscape:connector-curvature="0"
       id="path48484"
       d="m 0.27058039,411.54801 1799.45881961,0"
       style="fill:none;stroke:#8d97ff;stroke-width:1px;stroke-linecap:butt;stroke-linejoin:miter;stroke-opacity:1;display:inline" />
    <path
       inkscape:connector-curvature="0"
       style="fill:none;stroke:#8d97ff;stroke-width:1px;stroke-linecap:butt;stroke-linejoin:miter;stroke-opacity:1;display:inline"
       d="m 0.27058039,371.18263 1799.45881961,0"
       id="path48486" />
    <path
       inkscape:connector-curvature="0"
       id="path48488"
       d="m 0.27058039,330.81713 1799.45881961,0"
       style="fill:none;stroke:#8d97ff;stroke-width:1px;stroke-linecap:butt;stroke-linejoin:miter;stroke-opacity:1;display:inline" />
    <path
       inkscape:connector-curvature="0"
       style="fill:none;stroke:#8d97ff;stroke-width:1px;stroke-linecap:butt;stroke-linejoin:miter;stroke-opacity:1;display:inline"
       d="m 0.27058039,290.45173 1799.45881961,0"
       id="path48490" />
    <path
       inkscape:connector-curvature="0"
       id="path48492"
       d="m 0.27058039,250.08635 1799.45881961,0"
       style="fill:none;stroke:#8d97ff;stroke-width:1px;stroke-linecap:butt;stroke-linejoin:miter;stroke-opacity:1;display:inline" />
  </g>
  <g
     transform="translate(0,-200)"
     inkscape:groupmode="layer"
     id="layer8"
     inkscape:label="4-black"
     style="display:inline">
    <path
       transform="matrix(0.85705567,0,0,0.65787044,13.942647,166.18407)"
       d="m 97.401634,235.04083 c -0.46089,0.46089 -0.848658,-0.39388 -0.76603,-0.76603 0.223917,-1.00849 1.515671,-1.17061 2.298091,-0.76603 1.399565,0.72371 1.563525,2.60302 0.766029,3.83015 -1.170355,1.80087 -3.705115,1.96808 -5.362212,0.76603 -2.208649,-1.60214 -2.377595,-4.81245 -0.766028,-6.89427 2.027992,-2.61976 5.922279,-2.78968 8.426336,-0.76603 3.03274,2.45091 3.20325,7.03352 0.76602,9.9584 -2.872176,3.44686 -8.145621,3.61775 -11.49045,0.76602 -3.861736,-3.29242 -4.032876,-9.25832 -0.766027,-13.02251 3.712003,-4.27712 10.371427,-4.44844 14.554577,-0.76603 4.69286,4.13111 4.86431,11.48484 0.76603,16.08664 -4.54988,5.10887 -12.598475,5.28043 -17.618702,0.76602 -5.525085,-4.96839 -5.696722,-13.71227 -0.766025,-19.15075 5.386715,-5.94147 14.826217,-6.11316 20.682817,-0.76603 6.35796,5.80489 6.52971,15.94028 0.76603,22.21488 -6.22294,6.77457 -17.054423,6.94635 -23.746944,0.76602 -7.191251,-6.64089 -7.363073,-18.16863 -0.766023,-25.279 7.058765,-7.608 19.282917,-7.77985 26.811057,-0.76602 8.02482,7.47657 8.19669,20.39725 0.76603,28.34312 -7.89433,8.44168 -21.511626,8.61357 -29.875186,0.76602 -8.85858,-8.31202 -9.03049,-22.62603 -0.766022,-31.40724 8.729691,-9.27552 23.740478,-9.44744 32.939308,-0.76602 9.69248,9.14732 9.86442,24.85496 0.76602,34.47136 -9.56492,10.10948 -25.969461,10.28143 -36.003428,0.76602 -10.526499,-9.98248 -10.698457,-27.08398 -0.76602,-37.53548 10.400035,-10.94354 28.198518,-11.11551 39.067548,-0.76602 11.36059,10.81756 11.53257,29.31308 0.76602,40.59961 -11.23507,11.77767 -30.42766,11.94965 -42.13167,0.76602 -12.194759,-11.65257 -12.366746,-31.54225 -0.766018,-43.66373 12.07004,-12.61186 32.656848,-12.78386 45.195788,-0.76602 13.02897,12.48751 13.20097,33.77146 0.76602,46.72785 -12.90496,13.4461 -34.886086,13.6181 -48.259911,0.76602 -8.012955,-7.70036 -11.891224,-19.03951 -10.368801,-30.03762"
       sodipodi:t0="0"
       sodipodi:argument="-22.776546"
       sodipodi:radius="35.31657"
       sodipodi:revolution="8.1499996"
       sodipodi:expansion="1"
       sodipodi:cy="235.04083"
       sodipodi:cx="97.401634"
       id="path48496"
       style="fill:none;stroke:#000000;stroke-width:1.3317579px;stroke-linecap:butt;stroke-linejoin:miter;stroke-opacity:1"
       sodipodi:type="spiral" />
    <path
       sodipodi:type="spiral"
       style="fill:none;stroke:#000000;stroke-width:1.3317579px;stroke-linecap:butt;stroke-linejoin:miter;stroke-opacity:1"
       id="path48498"
       sodipodi:cx="97.401634"
       sodipodi:cy="235.04083"
       sodipodi:expansion="1"
       sodipodi:revolution="8.1499996"
       sodipodi:radius="35.31657"
       sodipodi:argument="-22.776546"
       sodipodi:t0="0"
       d="m 97.401634,235.04083 c -0.46089,0.46089 -0.848658,-0.39388 -0.76603,-0.76603 0.223917,-1.00849 1.515671,-1.17061 2.298091,-0.76603 1.399565,0.72371 1.563525,2.60302 0.766029,3.83015 -1.170355,1.80087 -3.705115,1.96808 -5.362212,0.76603 -2.208649,-1.60214 -2.377595,-4.81245 -0.766028,-6.89427 2.027992,-2.61976 5.922279,-2.78968 8.426336,-0.76603 3.03274,2.45091 3.20325,7.03352 0.76602,9.9584 -2.872176,3.44686 -8.145621,3.61775 -11.49045,0.76602 -3.861736,-3.29242 -4.032876,-9.25832 -0.766027,-13.02251 3.712003,-4.27712 10.371427,-4.44844 14.554577,-0.76603 4.69286,4.13111 4.86431,11.48484 0.76603,16.08664 -4.54988,5.10887 -12.598475,5.28043 -17.618702,0.76602 -5.525085,-4.96839 -5.696722,-13.71227 -0.766025,-19.15075 5.386715,-5.94147 14.826217,-6.11316 20.682817,-0.76603 6.35796,5.80489 6.52971,15.94028 0.76603,22.21488 -6.22294,6.77457 -17.054423,6.94635 -23.746944,0.76602 -7.191251,-6.64089 -7.363073,-18.16863 -0.766023,-25.279 7.058765,-7.608 19.282917,-7.77985 26.811057,-0.76602 8.02482,7.47657 8.19669,20.39725 0.76603,28.34312 -7.89433,8.44168 -21.511626,8.61357 -29.875186,0.76602 -8.85858,-8.31202 -9.03049,-22.62603 -0.766022,-31.40724 8.729691,-9.27552 23.740478,-9.44744 32.939308,-0.76602 9.69248,9.14732 9.86442,24.85496 0.76602,34.47136 -9.56492,10.10948 -25.969461,10.28143 -36.003428,0.76602 -10.526499,-9.98248 -10.698457,-27.08398 -0.76602,-37.53548 10.400035,-10.94354 28.198518,-11.11551 39.067548,-0.76602 11.36059,10.81756 11.53257,29.31308 0.76602,40.59961 -11.23507,11.77767 -30.42766,11.94965 -42.13167,0.76602 -12.194759,-11.65257 -12.366746,-31.54225 -0.766018,-43.66373 12.07004,-12.61186 32.656848,-12.78386 45.195788,-0.76602 13.02897,12.48751 13.20097,33.77146 0.76602,46.72785 -12.90496,13.4461 -34.886086,13.6181 -48.259911,0.76602 -8.012955,-7.70036 -11.891224,-19.03951 -10.368801,-30.03762"
       transform="matrix(0.85705567,0,0,0.65787044,13.942647,447.7361)" />
    <path
       transform="matrix(0.85705567,0,0,0.65787044,13.942647,729.28819)"
       d="m 97.401634,235.04083 c -0.46089,0.46089 -0.848658,-0.39388 -0.76603,-0.76603 0.223917,-1.00849 1.515671,-1.17061 2.298091,-0.76603 1.399565,0.72371 1.563525,2.60302 0.766029,3.83015 -1.170355,1.80087 -3.705115,1.96808 -5.362212,0.76603 -2.208649,-1.60214 -2.377595,-4.81245 -0.766028,-6.89427 2.027992,-2.61976 5.922279,-2.78968 8.426336,-0.76603 3.03274,2.45091 3.20325,7.03352 0.76602,9.9584 -2.872176,3.44686 -8.145621,3.61775 -11.49045,0.76602 -3.861736,-3.29242 -4.032876,-9.25832 -0.766027,-13.02251 3.712003,-4.27712 10.371427,-4.44844 14.554577,-0.76603 4.69286,4.13111 4.86431,11.48484 0.76603,16.08664 -4.54988,5.10887 -12.598475,5.28043 -17.618702,0.76602 -5.525085,-4.96839 -5.696722,-13.71227 -0.766025,-19.15075 5.386715,-5.94147 14.826217,-6.11316 20.682817,-0.76603 6.35796,5.80489 6.52971,15.94028 0.76603,22.21488 -6.22294,6.77457 -17.054423,6.94635 -23.746944,0.76602 -7.191251,-6.64089 -7.363073,-18.16863 -0.766023,-25.279 7.058765,-7.608 19.282917,-7.77985 26.811057,-0.76602 8.02482,7.47657 8.19669,20.39725 0.76603,28.34312 -7.89433,8.44168 -21.511626,8.61357 -29.875186,0.76602 -8.85858,-8.31202 -9.03049,-22.62603 -0.766022,-31.40724 8.729691,-9.27552 23.740478,-9.44744 32.939308,-0.76602 9.69248,9.14732 9.86442,24.85496 0.76602,34.47136 -9.56492,10.10948 -25.969461,10.28143 -36.003428,0.76602 -10.526499,-9.98248 -10.698457,-27.08398 -0.76602,-37.53548 10.400035,-10.94354 28.198518,-11.11551 39.067548,-0.76602 11.36059,10.81756 11.53257,29.31308 0.76602,40.59961 -11.23507,11.77767 -30.42766,11.94965 -42.13167,0.76602 -12.194759,-11.65257 -12.366746,-31.54225 -0.766018,-43.66373 12.07004,-12.61186 32.656848,-12.78386 45.195788,-0.76602 13.02897,12.48751 13.20097,33.77146 0.76602,46.72785 -12.90496,13.4461 -34.886086,13.6181 -48.259911,0.76602 -8.012955,-7.70036 -11.891224,-19.03951 -10.368801,-30.03762"
       sodipodi:t0="0"
       sodipodi:argument="-22.776546"
       sodipodi:radius="35.31657"
       sodipodi:revolution="8.1499996"
       sodipodi:expansion="1"
       sodipodi:cy="235.04083"
       sodipodi:cx="97.401634"
       id="path48500"
       style="fill:none;stroke:#000000;stroke-width:1.3317579px;stroke-linecap:butt;stroke-linejoin:miter;stroke-opacity:1"
       sodipodi:type="spiral" />
  </g>
  <g
     transform="translate(0,-200)"
     inkscape:groupmode="layer"
     id="layer7"
     inkscape:label="3-pink"
     style="display:inline">
    <path
       inkscape:connector-curvature="0"
       sodipodi:nodetypes="cc"
       id="path48494"
       d="m 185.30067,238.40261 0,719.03591"
       style="fill:none;stroke:#ff1515;stroke-width:1px;stroke-linecap:butt;stroke-linejoin:miter;stroke-opacity:1" />
  </g>
</svg>
