<?xml version="1.0" encoding="UTF-8" standalone="no"?>
<!-- Created with Inkscape (http://www.inkscape.org/) -->

<svg
   xmlns:dc="http://purl.org/dc/elements/1.1/"
   xmlns:cc="http://creativecommons.org/ns#"
   xmlns:rdf="http://www.w3.org/1999/02/22-rdf-syntax-ns#"
   xmlns:svg="http://www.w3.org/2000/svg"
   xmlns="http://www.w3.org/2000/svg"
   xmlns:sodipodi="http://sodipodi.sourceforge.net/DTD/sodipodi-0.dtd"
   xmlns:inkscape="http://www.inkscape.org/namespaces/inkscape"
   width="3200"
   height="800"
   id="svg4072"
   version="1.1"
   inkscape:version="0.48.1 r9760"
   sodipodi:docname="help.svg">
  <sodipodi:namedview
     id="base"
     pagecolor="#ffffff"
     bordercolor="#666666"
     borderopacity="1.0"
     inkscape:pageopacity="0.0"
     inkscape:pageshadow="2"
     inkscape:zoom="0.3071875"
     inkscape:cx="1600"
     inkscape:cy="400"
     inkscape:document-units="px"
     inkscape:current-layer="1-default"
     showgrid="false"
     inkscape:window-width="1396"
     inkscape:window-height="1001"
     inkscape:window-x="0"
     inkscape:window-y="0"
     inkscape:window-maximized="0" />
  <defs
     id="defs4074">
    <inkscape:path-effect
       effect="rough_hatches"
       id="path-effect4955"
       is_visible="true"
       direction="1630.8724,397.51826 , 88.376959,75.821651"
       dist_rdm="0;1"
       growth="0"
       do_bend="true"
       bender="1630.8724,402.51826 , 5,0"
       bottom_edge_variation="0;1"
       top_edge_variation="0;1"
       bottom_tgt_variation="0;1"
       top_tgt_variation="0;1"
       scale_bf="1"
       scale_bb="1"
       scale_tf="1"
       scale_tb="1"
       top_smth_variation="0;1"
       bottom_smth_variation="0;1"
       fat_output="true"
       stroke_width_top="1"
       stroke_width_bottom="1"
       front_thickness="1"
       back_thickness="0.25" />
    <inkscape:path-effect
       back_thickness="0.25"
       front_thickness="1"
       stroke_width_bottom="1"
       stroke_width_top="1"
       fat_output="true"
       bottom_smth_variation="0;1"
       top_smth_variation="0;1"
       scale_tb="1"
       scale_tf="1"
       scale_bb="1"
       scale_bf="1"
       top_tgt_variation="0;1"
       bottom_tgt_variation="0;1"
       top_edge_variation="3.7475353;1"
       bottom_edge_variation="3.7475353;1"
       bender="1704.8191,214.71558 , 4.8323621,0"
       do_bend="true"
       growth="0"
       dist_rdm="75;1"
       direction="1704.8191,210.59465 , 36.647912,0"
       is_visible="true"
       id="path-effect4733"
       effect="rough_hatches" />
    <inkscape:path-effect
       effect="rough_hatches"
       id="path-effect4729"
       is_visible="true"
       direction="1517.8288,208.43111 , 37.919252,0"
       dist_rdm="75;1"
       growth="0"
       do_bend="true"
       bender="1517.8288,213.43111 , 5,0"
       bottom_edge_variation="3.7475353;1"
       top_edge_variation="3.7475353;1"
       bottom_tgt_variation="0;1"
       top_tgt_variation="0;1"
       scale_bf="1"
       scale_bb="1"
       scale_tf="1"
       scale_tb="1"
       top_smth_variation="0;1"
       bottom_smth_variation="0;1"
       fat_output="true"
       stroke_width_top="1"
       stroke_width_bottom="1"
       front_thickness="1"
       back_thickness="0.25" />
    <inkscape:path-effect
       back_thickness="0.25"
       front_thickness="1"
       stroke_width_bottom="1"
       stroke_width_top="1"
       fat_output="false"
       bottom_smth_variation="0;1"
       top_smth_variation="0;1"
       scale_tb="2"
       scale_tf="2"
       scale_bb="2"
       scale_bf="2"
       top_tgt_variation="0;1"
       bottom_tgt_variation="0;1"
       top_edge_variation="0;1"
       bottom_edge_variation="0;1"
       bender="1628.8711,402.46875 , 5,0"
       do_bend="true"
       growth="0"
       dist_rdm="0;1"
       direction="1628.8711,397.46875 , 92.965063,85.124787"
       is_visible="true"
       id="path-effect4686"
       effect="rough_hatches" />
  </defs>
  <metadata
     id="metadata4077">
    <rdf:RDF>
      <cc:Work
         rdf:about="">
        <dc:format>image/svg+xml</dc:format>
        <dc:type
           rdf:resource="http://purl.org/dc/dcmitype/StillImage" />
        <dc:title></dc:title>
      </cc:Work>
    </rdf:RDF>
  </metadata>
  <g
     id="1-default"
     inkscape:groupmode="layer"
     inkscape:label="1-default">
    <path
       id="path4588"
       d="m 1609.7812,20.34375 c -46.4363,0 -72.4971,26.477275 -84.1562,51.6875 -11.5951,25.071806 -11.2848,49.6055 -11.2812,49.875 l 0,0.0937 0,74.15625 c 1.3346,-0.0425 2.649,-0.0625 4,-0.0625 6.3805,0 12.6013,0.49818 18.5624,1.40625 l 0,-75.59375 c 1e-4,-0.0312 1e-4,-0.0625 0,-0.0937 0,0 -0.026,-20.39026 9.1876,-40.3125 9.2135,-19.922251 25.2503,-38.59375 63.6874,-38.59375 38.4374,0 54.474,18.671501 63.6876,38.59375 9.2133,19.92224 9.2187,40.3125 9.2187,40.3125 -10e-5,0.0312 -10e-5,0.0625 0,0.0937 l 0,76 c 6.7518,-1.18474 13.8372,-1.8125 21.1563,-1.8125 0.4714,0 0.9367,0.026 1.4062,0.0312 l 0,-74.125 0,-0.0937 c 0,-0.26941 0.2826,-24.803134 -11.3125,-49.875 -11.6592,-25.210226 -37.7198,-51.6875 -84.1563,-51.6875 z m 72.9063,282.84916 2.1358,262.43209 c 0,0 -0.9317,14.872 -8.6563,29.5 -7.7246,14.62801 -19.0444,28.15625 -47.3071,28.15625 -28.3899,0 -40.0692,-12.98633 -47.2187,-26.9375 -6.9432,-13.54854 -7.6233,-27.1189 -7.6563,-27.90625 l 1.0679,-200.625 0,-11.28125 -22.5624,0 0,11.28125 -1.0679,200.625 c 0,0.0937 0,0.1875 0,0.28125 0,0 0.3262,18.81712 10.125,37.9375 9.7985,19.12039 31.2086,39.1875 67.3124,39.1875 36.2315,0 56.9279,-20.65067 67.2447,-40.1875 10.3168,-19.53684 11.25,-38.78125 11.25,-38.78125 0.016,-0.20799 0.027,-0.41643 0.031,-0.625 l -2.1358,-261.27584 c -0,-0.46949 -0.9348,0.0312 -1.4062,0.0312 -7.3191,0 -14.4045,-0.62776 -21.1563,-1.8125 z m -145.7813,-1.72957 c -5.961,0.90807 -12.1818,1.40625 -18.5624,1.40625 -1.351,0 -2.6654,-0.02 -4,-0.0625 l 1.0679,378.44291 c 8e-4,0.28133 -0.011,0.56263 0,0.84375 0,0 1.8094,25.49618 17.0624,51 15.2531,25.50382 44.6084,51.5 96.4009,51.5 51.7926,0 83.2523,-25.99618 98.5054,-51.5 15.253,-25.50382 17.0314,-51 17.0313,-51 0.031,-0.28034 0.052,-0.56185 0.062,-0.84375 l 3.2037,-313.4375 0,-11.28125 -22.5624,0 0,11.28125 -3.2037,312.78125 c -0.044,0.53356 -1.7937,20.65314 -13.9063,40.90625 -12.2754,20.52494 -34.5202,40.53125 -79.1304,40.53125 -44.61,0 -64.7818,-20.00632 -77.0571,-40.53125 -11.9501,-19.98128 -13.7532,-39.67296 -13.8438,-40.71875 z"
       style="font-size:medium;font-style:normal;font-variant:normal;font-weight:normal;font-stretch:normal;text-indent:0;text-align:start;text-decoration:none;line-height:normal;letter-spacing:normal;word-spacing:normal;text-transform:none;direction:ltr;block-progression:tb;writing-mode:lr-tb;text-anchor:start;baseline-shift:baseline;color:#000000;fill:none;stroke:#000000;stroke-width:5;stroke-miterlimit:4;stroke-opacity:1;stroke-dasharray:none;marker:none;visibility:visible;display:inline;overflow:visible;enable-background:accumulate;font-family:Sans;-inkscape-font-specification:Sans"
       inkscape:connector-curvature="0"
       sodipodi:nodetypes="cscccscccssccccsccssscssssccccccccsscccsccscccssscccccccssscccc" />
    <path
       style="color:#000000;fill:none;stroke:#000000;stroke-width:5;stroke-linecap:square;stroke-linejoin:round;stroke-miterlimit:4;stroke-opacity:1;stroke-dashoffset:0;marker:none;visibility:visible;display:inline;overflow:visible;enable-background:accumulate"
       d="m 1600.2932,248.67294 c 0,15.16156 -9.5091,27.47888 -24.8168,37.27548 -8.64,5.5294 -19.1272,9.81526 -30.7945,12.41851 -8.262,1.84346 -17.1887,5.38165 -26.3245,4.22574 -32.7821,-4.14778 -45.9127,-2.52732 -60.8818,-13.18731 -13.4978,-9.61228 -21.054,-26.6124 -21.054,-40.73242 0,-14.33335 8.4987,-27.36045 22.3607,-37.01812 14.9379,-10.40716 36.1041,-18.2842 59.5751,-18.2842 45.2519,0 81.9358,25.52328 81.9358,55.30232 z"
       id="path4596"
       inkscape:connector-curvature="0"
       sodipodi:nodetypes="sssssssss" />
    <path
       style="color:#000000;fill:none;stroke:#000000;stroke-width:5;stroke-linecap:square;stroke-linejoin:round;stroke-miterlimit:4;stroke-opacity:1;stroke-dashoffset:0;marker:none;visibility:visible;display:inline;overflow:visible;enable-background:accumulate"
       d="m 1785.777,251.36456 c 0,30.06889 -8.2121,26.91718 -21.6584,36.5227 -14.9729,10.69606 -36.436,17.39702 -60.2773,17.39702 -24.7626,0 -47.6507,-8.61141 -62.6749,-20.03723 -12.4315,-9.45407 -19.9522,-21.78161 -19.9522,-35.26509 0,-29.77904 36.684,-53.22844 81.9358,-53.22844 45.2519,0 82.627,24.54214 82.627,54.61104 z"
       id="path4598"
       inkscape:connector-curvature="0"
       sodipodi:nodetypes="zsssssz" />
    <path
       sodipodi:nodetypes="czc"
       inkscape:connector-curvature="0"
       id="path4606"
       d="m 1431.3321,237.79168 c 0,0 46.376,-7.77845 83.7518,-8.23788 37.3758,-0.45943 92.6762,5.49192 92.6762,5.49192"
       style="fill:none;stroke:#000000;stroke-width:5;stroke-linecap:butt;stroke-linejoin:miter;stroke-miterlimit:4;stroke-opacity:1;stroke-dasharray:none" />
    <path
       sodipodi:nodetypes="czc"
       inkscape:connector-curvature="0"
       id="path4608"
       d="m 1627.6683,233.6184 c 0,0 60.9278,-5.53722 98.8546,-4.80543 37.9269,0.73179 70.7085,6.17841 70.7085,6.17841"
       style="fill:none;stroke:#000000;stroke-width:5;stroke-linecap:butt;stroke-linejoin:miter;stroke-miterlimit:4;stroke-opacity:1;stroke-dasharray:none" />
    <path
       transform="translate(4.8054315,-6.151237)"
       d="m 1484.1918,261.79166 a 17.162256,17.162256 0 1 1 -34.3245,0 17.162256,17.162256 0 1 1 34.3245,0 z"
       sodipodi:ry="17.162256"
       sodipodi:rx="17.162256"
       sodipodi:cy="261.79166"
       sodipodi:cx="1467.0295"
       id="path4610"
       style="color:#000000;fill:none;stroke:#000000;stroke-width:5;stroke-linecap:square;stroke-linejoin:round;stroke-miterlimit:4;stroke-opacity:1;stroke-dasharray:none;stroke-dashoffset:0;marker:none;visibility:visible;display:inline;overflow:visible;enable-background:accumulate"
       sodipodi:type="arc" />
    <path
       sodipodi:type="arc"
       style="color:#000000;fill:none;stroke:#000000;stroke-width:5.27046299;stroke-linecap:square;stroke-linejoin:round;stroke-miterlimit:4;stroke-opacity:1;stroke-dasharray:none;stroke-dashoffset:0;marker:none;visibility:visible;display:inline;overflow:visible;enable-background:accumulate"
       id="path4612"
       sodipodi:cx="1467.0295"
       sodipodi:cy="261.79166"
       sodipodi:rx="17.162256"
       sodipodi:ry="17.162256"
       d="m 1484.1918,261.79166 a 17.162256,17.162256 0 1 1 -34.3245,0 17.162256,17.162256 0 1 1 34.3245,0 z"
       transform="matrix(1,0,0,0.9,190.84428,16.884372)" />
    <path
       transform="matrix(1.0913079,0,0,1.0912579,-134.04868,-22.162577)"
       d="m 1471.8351,255.61325 c 0.2723,0.4716 -0.5014,0.5997 -0.7839,0.45255 -0.7654,-0.39878 -0.6169,-1.47629 -0.1212,-2.02022 0.8867,-0.97297 2.4387,-0.69891 3.2566,0.21003 1.2002,1.3339 0.7871,3.41562 -0.5413,4.49298 -1.7706,1.43596 -4.3978,0.87811 -5.7294,-0.8726 -1.6756,-2.20309 -0.9707,-5.38255 1.2039,-6.96575 2.6337,-1.91747 6.3687,-1.06414 8.2021,1.53518 2.1606,3.0632 1.1582,7.35586 -1.8664,9.43852 -3.4921,2.4045 -8.3436,1.25257 -10.6749,-2.19776 -2.649,-3.92048 -1.3473,-9.33173 2.529,-11.91128 4.3486,-2.89388 10.3202,-1.4421 13.1477,2.86032 3.139,4.77651 1.5371,11.30888 -3.1916,14.38406 -5.2043,3.38443 -12.2978,1.6322 -15.6205,-3.52291 -3.63,-5.63187 -1.7274,-13.28675 3.8542,-16.85682 6.0594,-3.87569 14.2759,-1.82265 18.0932,4.18548 4.1215,6.48686 1.918,15.26509 -4.5168,19.32959"
       sodipodi:t0="0"
       sodipodi:argument="-17.802359"
       sodipodi:radius="14.481527"
       sodipodi:revolution="4"
       sodipodi:expansion="1"
       sodipodi:cy="255.61325"
       sodipodi:cx="1471.8351"
       id="path4674"
       style="fill:none;stroke:#000000;stroke-width:4.58176327;stroke-linecap:butt;stroke-linejoin:miter;stroke-miterlimit:4;stroke-opacity:1;stroke-dasharray:none"
       sodipodi:type="spiral" />
    <path
       sodipodi:type="spiral"
       style="fill:none;stroke:#000000;stroke-width:4.84851933;stroke-linecap:butt;stroke-linejoin:miter;stroke-miterlimit:4;stroke-opacity:1;stroke-dasharray:none"
       id="path4676"
       sodipodi:cx="1471.8351"
       sodipodi:cy="255.61325"
       sodipodi:expansion="1"
       sodipodi:revolution="4"
       sodipodi:radius="14.481527"
       sodipodi:argument="-17.802359"
       sodipodi:t0="0"
       d="m 1471.8351,255.61325 c 0.2723,0.4716 -0.5014,0.5997 -0.7839,0.45255 -0.7654,-0.39878 -0.6169,-1.47629 -0.1212,-2.02022 0.8867,-0.97297 2.4387,-0.69891 3.2566,0.21003 1.2002,1.3339 0.7871,3.41562 -0.5413,4.49298 -1.7706,1.43596 -4.3978,0.87811 -5.7294,-0.8726 -1.6756,-2.20309 -0.9707,-5.38255 1.2039,-6.96575 2.6337,-1.91747 6.3687,-1.06414 8.2021,1.53518 2.1606,3.0632 1.1582,7.35586 -1.8664,9.43852 -3.4921,2.4045 -8.3436,1.25257 -10.6749,-2.19776 -2.649,-3.92048 -1.3473,-9.33173 2.529,-11.91128 4.3486,-2.89388 10.3202,-1.4421 13.1477,2.86032 3.139,4.77651 1.5371,11.30888 -3.1916,14.38406 -5.2043,3.38443 -12.2978,1.6322 -15.6205,-3.52291 -3.63,-5.63187 -1.7274,-13.28675 3.8542,-16.85682 6.0594,-3.87569 14.2759,-1.82265 18.0932,4.18548 4.1215,6.48686 1.918,15.26509 -4.5168,19.32959"
       transform="matrix(1.0913079,0,0,0.97448337,51.303679,4.291272)" />
    <path
       style="color:#000000;fill:none;stroke:#000000;stroke-width:5;stroke-linecap:square;stroke-linejoin:round;stroke-miterlimit:4;stroke-opacity:1;stroke-dasharray:none;stroke-dashoffset:0;marker:none;visibility:visible;display:inline;overflow:visible;enable-background:accumulate"
       d="m 1587.1574,220.46392 c 0,0 -0.2253,1.99412 -1.0237,3.95639 -0.7983,1.96227 -2.1679,3.8927 -4.2337,3.76532 -2.2522,-0.13887 -2.9712,-3.99456 -4.1434,-8.30251 -0.5861,-2.15398 -1.282,-4.42102 -2.2558,-6.39305 -0.9739,-1.97203 -2.2224,-3.64906 -3.861,-4.62301 -1.7341,-1.03077 -2.9777,-0.3277 -3.9787,1.30398 -1.0011,1.63168 -1.781,4.19197 -2.6046,6.87565 -0.8236,2.68367 -1.6937,5.49074 -2.7109,7.61596 -1.0173,2.12521 -2.1661,3.56859 -3.4788,3.5249 -1.4062,-0.0468 -2.2756,-1.73242 -2.9127,-4.24384 -0.6371,-2.51142 -1.061,-5.84866 -1.5078,-9.1987 -0.4468,-3.35005 -0.9169,-6.71291 -1.4325,-9.27558 -0.5155,-2.56268 -1.0581,-4.32517 -1.5729,-4.47447 -0.611,-0.17721 -0.9038,1.3937 -1.1406,3.8489 -0.2369,2.45519 -0.4396,5.79467 -0.8105,9.15456 -0.3709,3.35989 -0.9106,6.74021 -1.5948,9.27709 -0.6842,2.53688 -1.4922,4.23033 -2.3249,4.2165 -0.9263,-0.0154 -1.4238,-1.84854 -1.8464,-4.60272 -0.4226,-2.75418 -0.7939,-6.4294 -1.3883,-10.12895 -0.5944,-3.69955 -1.4126,-7.42342 -2.4686,-10.27492 -1.056,-2.85149 -2.3276,-4.8306 -3.7307,-5.04061 -1.4984,-0.22429 -2.4051,1.37432 -3.0983,3.89916 -0.6932,2.52484 -1.1965,5.97589 -1.8275,9.45647 -0.631,3.48059 -1.3904,6.9907 -2.3521,9.63365 -0.9617,2.64295 -2.1036,4.41873 -3.4164,4.43067 -1.4066,0.0128 -2.284,-1.94561 -3.0425,-4.88498 -0.7585,-2.93937 -1.4257,-6.85971 -2.3145,-10.77083 -0.8887,-3.91112 -1.9987,-7.813 -3.3398,-10.71545 -1.341,-2.90246 -2.8849,-4.80547 -4.5519,-4.71885 -1.7601,0.0915 -2.7796,2.18579 -3.4906,5.27695 -0.711,3.09117 -1.142,7.17916 -1.6156,11.25795 -0.4736,4.07878 -0.9895,8.14835 -1.5484,11.20266 -0.5589,3.05431 -1.1317,5.09336 -1.6175,5.11111 -0.5799,0.0212 -0.8178,-1.88398 -1.0142,-4.74661 -0.1964,-2.86263 -0.3778,-6.68274 -0.7517,-10.49145 -0.374,-3.80871 -0.9402,-7.60602 -1.6179,-10.42306 -0.6777,-2.81704 -1.4398,-4.65381 -2.1221,-4.54144 -0.7743,0.12751 -1.1047,2.1646 -1.3565,5.15165 -0.2517,2.98706 -0.4508,6.92408 -0.8591,10.85145 -0.4083,3.92737 -1.0257,7.84509 -1.8184,10.79353 -0.7928,2.94845 -1.7343,4.92762 -2.6959,4.97791 -1.0558,0.0552 -1.6448,-1.69459 -2.0855,-4.3369 -0.4408,-2.64231 -0.7565,-6.17713 -1.1857,-9.69194 -0.4292,-3.51481 -0.9714,-7.00961 -1.6147,-9.57189 -0.6433,-2.56227 -1.3635,-4.19202 -2.0843,-3.97672 -0.812,0.24255 -1.2545,2.14055 -1.6255,4.85507 -0.3709,2.71453 -0.6899,6.24559 -1.1657,9.75428 -0.4758,3.50869 -1.108,6.99501 -1.8739,9.62005 -0.7659,2.62504 -1.6451,4.3888 -2.5419,4.45239 -0.9914,0.0703 -1.5478,-1.43759 -2.0009,-3.68926 -0.4531,-2.25166 -0.8206,-5.24713 -1.364,-8.15202 -0.5434,-2.9049 -1.2608,-5.71922 -2.2274,-7.60862 -0.9667,-1.8894 -2.1607,-2.85387 -3.6524,-2.05905 -1.5834,0.84373 -2.7273,2.72953 -3.697,5.09058 -0.9696,2.36105 -1.7727,5.19735 -2.598,7.94207 -0.8254,2.74472 -1.6716,5.39787 -2.605,7.39262 -0.9333,1.99475 -1.9432,3.33109 -3.0639,3.44222 -2.4313,0.24108 -3.2262,-2.89289 -3.9069,-5.70346 -0.6807,-2.81057 -1.2131,-5.29773 -2.634,-3.76305 -1.6221,1.75181 -2.5433,3.73562 -3.1965,5.28671 -0.6532,1.55109 -1.0302,2.66945 -1.5122,2.69035 -1.3409,0.0581 -1.2,-2.33582 -1.2,-2.33582 0,0 -0.1186,0.85122 -0.048,1.6938 0.07,0.84259 0.3293,1.67655 1.1257,1.64202 0.9849,-0.0427 1.6551,-1.45057 2.3289,-3.14096 0.6737,-1.69039 1.3423,-3.66331 2.4365,-4.8361 1.2969,-1.38993 1.7468,1.10352 2.4083,3.88103 0.6616,2.77752 1.5055,5.83911 4.0653,5.58548 1.3749,-0.13624 2.5879,-1.51775 3.6638,-3.55796 1.076,-2.04021 2.004,-4.73913 2.8459,-7.51018 0.8419,-2.77105 1.5965,-5.61423 2.4539,-7.94298 0.8575,-2.32875 1.8265,-4.14306 3.1702,-4.85637 1.4359,-0.76222 2.5768,0.21967 3.4982,2.11658 0.9213,1.89691 1.6014,4.70884 2.1233,7.6067 0.5218,2.89786 0.8834,5.88165 1.3523,8.12229 0.469,2.24064 1.0629,3.73813 2.1177,3.66338 1.1494,-0.0815 2.2318,-1.87233 3.1424,-4.52344 0.9106,-2.65111 1.6286,-6.16245 2.1263,-9.68485 0.4976,-3.52239 0.7747,-7.05584 1.0384,-9.75115 0.2637,-2.69532 0.5344,-4.55249 1.1042,-4.72235 0.6613,-0.19712 1.3237,1.44253 1.9172,4.00924 0.5934,2.56671 1.094,6.06047 1.4974,9.57156 0.4034,3.51109 0.7093,7.0395 1.1627,9.67552 0.4533,2.63602 1.0774,4.37963 2.1965,4.32113 1.2134,-0.0634 2.3583,-2.05927 3.2973,-5.0228 0.9389,-2.96352 1.6453,-6.89474 2.0793,-10.82891 0.434,-3.93417 0.5957,-7.87131 0.743,-10.84669 0.1473,-2.97538 0.3068,-4.989 0.8365,-5.07614 0.6218,-0.10228 1.3245,1.74011 1.9507,4.55976 0.6262,2.81965 1.1491,6.61656 1.4954,10.42331 0.3463,3.80676 0.5158,7.62337 0.7231,10.48242 0.2073,2.85905 0.4789,4.76055 1.1217,4.73707 0.7369,-0.0269 1.5124,-2.07378 2.2179,-5.13384 0.7055,-3.06005 1.312,-7.13331 1.8137,-11.21303 0.5016,-4.07971 0.8983,-8.16588 1.5062,-11.25177 0.6079,-3.08588 1.4557,-5.17147 2.9682,-5.25003 1.6055,-0.0834 3.0892,1.82137 4.3783,4.72461 1.2891,2.90323 2.3555,6.80493 3.2162,10.71538 0.8607,3.91045 1.5155,7.82966 2.2843,10.76791 0.7689,2.93826 1.6793,4.89556 3.1485,4.88221 1.5631,-0.0142 2.9042,-1.78162 4.0095,-4.4131 1.1052,-2.63148 1.9526,-6.12703 2.6098,-9.59752 0.6572,-3.4705 1.1248,-6.91594 1.7116,-9.44721 0.5868,-2.53126 1.3159,-4.14834 2.5587,-3.96212 1.3381,0.2005 2.5483,2.17459 3.5529,5.02397 1.0047,2.84938 1.7814,6.57406 2.3498,10.27573 0.5685,3.70167 0.9294,7.38033 1.3636,10.13768 0.4342,2.75735 0.9652,4.59339 1.9537,4.60982 1.0822,0.018 2.0874,-1.65479 2.9137,-4.16764 0.8263,-2.51284 1.4533,-5.86577 1.8508,-9.20809 0.3974,-3.34233 0.5655,-6.67405 0.6963,-9.1445 0.1308,-2.47044 0.245,-4.07961 0.5987,-3.97682 0.4497,0.1307 0.9324,1.88337 1.3988,4.4419 0.4665,2.55854 0.8981,5.92295 1.3217,9.27713 0.4236,3.35418 0.8396,6.69813 1.4898,9.21576 0.6502,2.51762 1.5538,4.20892 3.0219,4.2578 1.5616,0.052 2.9031,-1.34937 4.0577,-3.42568 1.1546,-2.07631 2.1073,-4.82759 2.9533,-7.47546 0.8461,-2.64787 1.5878,-5.19233 2.4781,-6.85501 0.8902,-1.66268 1.9486,-2.44359 3.4216,-1.56434 1.5681,0.93607 2.7583,2.5932 3.6878,4.55693 0.9296,1.96374 1.595,4.23408 2.1663,6.39656 1.1426,4.32498 1.8932,8.21855 4.2684,8.36508 2.5615,0.15801 3.9737,-2.02242 4.6755,-4.24235 0.7018,-2.21993 0.6906,-4.47936 0.6906,-4.47936 z"
       id="path4680"
       inkscape:connector-curvature="0"
       inkscape:path-effect="#path-effect4729"
       inkscape:original-d="m 1514.7923,194.75974 c -26.5257,0.90656 -55.7096,9.83504 -70.9063,33.03125 -5.0532,5.83374 1.0933,4.38525 5.6563,3.71875 47.837,-5.19241 96.1538,-5.74956 144.125,-2.09375 -13.498,-23.08035 -41.3044,-32.36862 -66.5913,-34.414 -4.0847,-0.308 -8.1901,-0.37856 -12.2837,-0.24225 z" />
    <path
       inkscape:original-d="m 1701.8844,199.32691 c -25.6364,0.74718 -53.8418,8.1059 -68.529,27.22387 -4.8837,4.80808 1.0566,3.61426 5.4667,3.06494 46.2331,-4.2795 92.93,-4.7387 139.2928,-1.72564 -13.0455,-19.02249 -39.9196,-26.67774 -64.3586,-28.36351 -3.9478,-0.25385 -7.9155,-0.312 -11.8719,-0.19966 z"
       inkscape:path-effect="#path-effect4733"
       inkscape:connector-curvature="0"
       id="path4731"
       d="m 1771.8232,220.51195 c 0,0 -0.2208,1.62443 -0.9921,3.22273 -0.7713,1.5983 -2.0914,3.17046 -4.0797,3.06591 -2.1746,-0.11434 -2.8765,-3.24764 -4.0113,-6.75398 -0.5674,-1.75318 -1.2398,-3.59961 -2.1804,-5.20857 -0.9405,-1.60895 -2.1461,-2.98043 -3.73,-3.78369 -1.6794,-0.85171 -2.885,-0.27245 -3.8559,1.07328 -0.9709,1.34573 -1.7278,3.45794 -2.5262,5.67213 -0.7984,2.21419 -1.641,4.53035 -2.6242,6.284 -0.9832,1.75364 -2.0919,2.94477 -3.3565,2.90888 -1.3579,-0.0385 -2.1973,-1.41674 -2.811,-3.47004 -0.6137,-2.05331 -1.0199,-4.78173 -1.4463,-7.52076 -0.4264,-2.73902 -0.8734,-5.48864 -1.3656,-7.58433 -0.4921,-2.0957 -1.0117,-3.53747 -1.51,-3.66079 -0.5943,-0.14712 -0.8861,1.13221 -1.1238,3.13326 -0.2378,2.00104 -0.442,4.7238 -0.8051,7.46352 -0.3631,2.73973 -0.8854,5.49643 -1.5447,7.56536 -0.6592,2.06893 -1.4357,3.4501 -2.2363,3.43875 -0.8942,-0.0127 -1.375,-1.51249 -1.7824,-3.76592 -0.4073,-2.25343 -0.7638,-5.26046 -1.3338,-8.28757 -0.5701,-3.0271 -1.3543,-6.07428 -2.3691,-8.40799 -1.0149,-2.3337 -2.2392,-3.95394 -3.5958,-4.12717 -1.4521,-0.1854 -2.3406,1.09276 -3.0212,3.11489 -0.6807,2.02213 -1.1752,4.78825 -1.7843,7.57876 -0.6092,2.79051 -1.3336,5.60543 -2.2512,7.72516 -0.9175,2.11974 -2.0078,3.5443 -3.2723,3.5541 -1.3584,0.0105 -2.2133,-1.59257 -2.9558,-3.99869 -0.7424,-2.40612 -1.3987,-5.61525 -2.2669,-8.81677 -0.8683,-3.20152 -1.9481,-6.39542 -3.2486,-8.77108 -1.3006,-2.37567 -2.795,-3.9331 -4.407,-3.86166 -1.705,0.0756 -2.689,1.80498 -3.3721,4.3575 -0.6832,2.55251 -1.0932,5.92814 -1.5441,9.29613 -0.4509,3.368 -0.9424,6.72836 -1.4762,9.25034 -0.5338,2.52199 -1.0817,4.2056 -1.547,4.2201 -0.5594,0.0174 -0.7927,-1.54184 -0.9866,-3.88475 -0.1938,-2.34291 -0.3735,-5.46946 -0.7371,-8.58659 -0.3637,-3.11714 -0.911,-6.22486 -1.5654,-8.5301 -0.6543,-2.30525 -1.3897,-3.80802 -2.0502,-3.71526 -0.7524,0.10567 -1.075,1.78522 -1.3205,4.24768 -0.2455,2.46246 -0.4391,5.70784 -0.834,8.94517 -0.3949,3.23732 -0.9909,6.4666 -1.7552,8.89686 -0.7643,2.43026 -1.6713,4.0615 -2.5964,4.10275 -1.0194,0.0455 -1.5893,-1.3858 -2.0153,-3.54716 -0.4261,-2.16136 -0.7305,-5.05282 -1.1426,-7.92776 -0.4121,-2.87493 -0.9315,-5.73333 -1.5492,-7.82857 -0.6177,-2.09525 -1.3107,-3.42733 -2.0086,-3.24963 -0.7892,0.20095 -1.224,1.75742 -1.5892,3.98234 -0.3652,2.22493 -0.6795,5.11832 -1.1426,7.9931 -0.4631,2.87479 -1.0744,5.73097 -1.813,7.8815 -0.7385,2.15052 -1.5844,3.59539 -2.447,3.64754 -0.9571,0.0579 -1.4951,-1.17406 -1.9327,-3.01353 -0.4376,-1.83946 -0.7916,-4.28647 -1.3142,-6.65877 -0.5227,-2.37229 -1.2119,-4.66988 -2.1431,-6.21051 -0.9312,-1.54062 -2.0834,-2.32429 -3.5275,-1.66874 -1.5361,0.69725 -2.6487,2.24765 -3.5922,4.18674 -0.9435,1.93909 -1.7254,4.26688 -2.5268,6.51891 -0.8014,2.25203 -1.621,4.42831 -2.5227,6.06439 -0.9017,1.63608 -1.8752,2.73196 -2.9542,2.82319 -2.348,0.19851 -3.118,-2.34155 -3.775,-4.6145 -0.657,-2.27295 -1.1685,-4.2788 -2.5483,-3.01187 -3.1628,2.90419 -3.5658,5.88366 -4.4805,5.9175 -1.2916,0.0478 -1.2058,-1.59236 -1.2058,-1.59236 0,0 -0.4791,2.64942 1.0643,2.59236 0.9603,-0.0355 1.5866,-1.03572 2.22,-2.26664 0.6335,-1.23092 1.2672,-2.69254 2.3205,-3.65086 1.2569,-1.14349 1.6835,0.86772 2.3185,3.11249 0.635,2.24476 1.4507,4.7231 3.9275,4.51388 1.3334,-0.11265 2.5118,-1.24704 3.5587,-2.92189 1.0468,-1.67485 1.9515,-3.89016 2.7728,-6.16464 0.8213,-2.27449 1.5581,-4.60815 2.3922,-6.51969 0.8341,-1.91155 1.7737,-3.40098 3.0707,-3.98701 1.3893,-0.62774 2.4872,0.17078 3.3709,1.71781 0.8837,1.54703 1.5325,3.84257 2.0302,6.20886 0.4978,2.3663 0.8425,4.80336 1.2934,6.63342 0.4508,1.83006 1.0245,3.05313 2.0452,2.99146 1.1153,-0.0674 2.1666,-1.53537 3.0529,-3.70813 0.8864,-2.17275 1.5878,-5.05028 2.077,-7.93676 0.4891,-2.88647 0.7657,-5.78189 1.0268,-7.99043 0.2611,-2.20854 0.5261,-3.7302 1.0733,-3.86916 0.6387,-0.1622 1.2719,1.17833 1.8367,3.27736 0.5649,2.09902 1.0386,4.95654 1.4208,7.8283 0.3823,2.87175 0.6727,5.75775 1.1083,7.91375 0.4357,2.15599 1.0386,3.58198 2.1213,3.53371 1.1771,-0.0525 2.2899,-1.69792 3.2041,-4.14103 0.9141,-2.44312 1.6039,-5.6839 2.0294,-8.92703 0.4254,-3.24313 0.5865,-6.48861 0.7313,-8.94111 0.1447,-2.45251 0.2987,-4.11204 0.8067,-4.18329 0.6001,-0.0841 1.2739,1.42341 1.8735,3.73088 0.5995,2.30747 1.0991,5.41484 1.4307,8.53032 0.3315,3.11547 0.4948,6.23903 0.6962,8.57889 0.2015,2.33985 0.4662,3.89599 1.0885,3.87661 0.7163,-0.0223 1.4695,-1.71258 2.1538,-4.23947 0.6842,-2.52689 1.2713,-5.8904 1.7553,-9.25919 0.4841,-3.36879 0.8648,-6.74286 1.4487,-9.29087 0.584,-2.54801 1.3989,-4.26997 2.8564,-4.33454 1.5507,-0.0687 2.9826,1.49024 4.2278,3.86657 1.2452,2.37633 2.2768,5.57007 3.1124,8.77102 0.8356,3.20095 1.475,6.40911 2.2243,8.81428 0.7493,2.40517 1.635,4.00735 3.056,3.99633 1.5148,-0.0117 2.8062,-1.42915 3.8698,-3.53911 1.0637,-2.10995 1.8797,-4.91245 2.5185,-7.69436 0.6388,-2.78192 1.1011,-5.54324 1.6778,-7.57086 0.5768,-2.02761 1.2892,-3.32151 2.4855,-3.16858 1.2914,0.16512 2.4521,1.78107 3.4122,4.11298 0.9602,2.33191 1.6985,5.37977 2.2383,8.40868 0.5397,3.02891 0.8815,6.03888 1.2972,8.29501 0.4157,2.25613 0.9278,3.75843 1.8842,3.77198 1.0501,0.0149 2.0257,-1.34864 2.8299,-3.39708 0.8041,-2.04843 1.4176,-4.78178 1.8109,-7.50652 0.3934,-2.72475 0.5669,-5.4409 0.7013,-7.45494 0.1345,-2.01405 0.2497,-3.326 0.5868,-3.24235 0.433,0.10746 0.8907,1.54085 1.3307,3.63302 0.4401,2.09216 0.8447,4.8431 1.244,7.58565 0.3994,2.74255 0.7937,5.4767 1.4175,7.5353 0.6239,2.0586 1.4956,3.44163 2.9154,3.48195 1.5132,0.043 2.8164,-1.11233 3.9395,-2.82426 1.1231,-1.71194 2.0515,-3.98053 2.8756,-6.16418 0.8241,-2.18366 1.546,-4.28236 2.4082,-5.65454 0.8622,-1.37217 1.8837,-2.0178 3.301,-1.29531 1.5123,0.77096 2.6576,2.12547 3.5516,3.72734 0.8941,1.60188 1.5334,3.45113 2.0835,5.21156 1.1003,3.52087 1.8294,6.68647 4.127,6.80734 2.4838,0.13067 3.8538,-1.69149 4.5334,-3.54632 0.6795,-1.85483 0.6659,-3.74232 0.6659,-3.74232 z"
       style="color:#000000;fill:none;stroke:#000000;stroke-width:5;stroke-linecap:square;stroke-linejoin:round;stroke-miterlimit:4;stroke-opacity:1;stroke-dasharray:none;stroke-dashoffset:0;marker:none;visibility:visible;display:inline;overflow:visible;enable-background:accumulate" />
    <path
       style="font-size:68.06997681px;font-style:normal;font-variant:normal;font-weight:normal;font-stretch:normal;text-align:start;line-height:125%;letter-spacing:0px;word-spacing:0px;writing-mode:lr-tb;text-anchor:start;fill:none;stroke:#000000;stroke-width:4;stroke-miterlimit:4;stroke-opacity:1;stroke-dasharray:none;font-family:Comic Sans MS;-inkscape-font-specification:Comic Sans MS"
       d="m 2516.9783,47.20565 c -3.5505,3.821232 0.3346,9.836407 -1.2187,14.375 1.1199,2.583685 4.0273,0.193479 2.6735,-2.249851 -0.3339,-3.898765 0.6666,-8.78192 -0.7672,-12.156399 -0.1967,-0.06329 -0.5009,-0.157182 -0.6876,0.03125 z m -486.25,1.875 c -3.9223,1.769085 -0.1489,7.346148 -1.5312,10.65625 0.3844,16.036819 -1.787,32.567993 -0.4375,48.28125 3.504,0.82692 3.0641,-4.24725 2.6744,-6.34367 0.103,-17.430619 1.9387,-35.391938 0.4193,-52.50008 -0.3719,-0.04897 -0.7468,-0.185986 -1.125,-0.09375 z m 207.9688,0 c -3.8969,1.811118 -0.1229,7.383631 -1.5312,10.65625 0.3811,16.04133 -1.7704,32.612886 -0.4063,48.3125 3.516,0.77107 2.9908,-4.31977 2.6614,-6.40592 0.073,-17.416266 1.9501,-35.377138 0.4011,-52.46908 -0.3692,-0.05936 -0.7494,-0.178059 -1.125,-0.09375 z m -105,0.21875 c -3.5306,2.511669 0.2882,7.603976 -0.9375,11.125 0.5151,15.659689 -1.649,31.718008 -0.5,47.125 2.2321,1.20553 4.2285,-2.51247 2.6563,-4.21875 -0.937,-5.66296 0.7829,-12.468024 6.6562,-14.4375 3.7932,-3.658282 7.5353,2.302211 8.8438,5.40625 2.4732,4.10728 6.3733,7.02677 7.9062,11.8125 0.9359,2.95811 5.1907,1.83197 3.4062,-1.21875 -3.906,-7.2081 -9.7881,-13.506668 -14.4062,-20.4375 4.0651,-5.132401 11.2562,-8.611857 13.25,-14.9375 -2.377,-2.862791 -5.2145,1.783663 -6.5396,3.5069 -5.6361,5.992068 -11.6236,11.484105 -18.2729,16.3056 -1.2447,-13.201117 2.0021,-27.088932 -0.9375,-39.875 -0.334,-0.191581 -0.751,-0.233114 -1.125,-0.15625 z m 147.5938,0 c -3.5624,2.809713 0.3452,8.183467 -0.9063,12.03125 0.3996,15.343594 -1.6146,31.10799 -0.5625,46.1875 2.7878,1.31404 3.7161,-2.75567 2.7188,-4.65625 -0.6074,-5.11067 0.1493,-11.432885 5.625,-13.34375 2.6126,-3.808272 7.3548,-0.752125 8.5624,2.6875 2.8509,4.93437 7.1283,8.70402 9.375,14.0625 1.0157,2.80406 4.7596,1.64645 3.3126,-1.21875 -3.9378,-7.33375 -9.8205,-13.650289 -14.5313,-20.59375 4.0854,-5.161512 11.4621,-8.636537 13.25,-15.0625 -2.9921,-2.816621 -5.4117,2.902952 -7.25,4.40625 -5.3754,5.66202 -11.1733,10.93547 -17.5313,15.53125 -1.2414,-13.217043 2.0386,-27.015441 -0.9374,-39.875 -0.3382,-0.193337 -0.7456,-0.237559 -1.125,-0.15625 z m 467.8437,0.0625 c -3.5178,3.006286 0.5272,8.320983 -0.8125,12.21875 0.3296,15.281151 -1.5568,30.836623 -0.5625,45.9375 2.2262,1.29478 4.2368,-2.53058 2.6563,-4.21875 -0.8832,-5.80218 0.8929,-12.543147 6.9062,-14.59375 4.3919,-3.496106 7.6206,3.632891 9.2188,6.6875 3.0481,3.42983 5.7823,7.00023 7.7187,11.25 1.3585,2.82726 4.7996,0.45402 2.9063,-2 -4.0187,-7.15418 -9.7178,-13.388303 -14.3438,-20.21875 4.1399,-5.054343 11.2456,-8.596807 13.25,-14.90625 -2.2979,-2.906015 -5.27,1.831592 -6.5396,3.5069 -5.5849,5.97124 -11.5732,11.5031 -18.2104,16.3056 -1.2801,-13.215595 1.9677,-27.009731 -0.9688,-39.875 -0.3458,-0.172079 -0.8798,-0.312119 -1.2187,-0.09375 z m -488.0625,4 c -4.329,0.188172 -0.5839,7.239383 2.0938,3.71875 1.2258,-1.448547 -0.1142,-4.111992 -2.0938,-3.71875 z m 532.4375,0 c -4.5821,0.467815 -0.1169,7.498767 2.3125,3.40625 0.8848,-1.5592 -0.4618,-3.792215 -2.3125,-3.40625 z m -869.1563,0.03125 c -2.7541,-0.667749 -5.1951,3.411028 -1.5,3.96875 4.0396,0.746078 8.1165,-1.180358 12.1563,-0.15625 -2.3315,15.176603 -0.2216,30.562671 -1.3125,45.8125 -3.3755,2.73559 -10.1005,-1.313 -11.8438,3.15625 1.8736,4.25527 7.941,0.005 11.4376,0.71875 6.3326,-1.66508 14.2206,1.49123 19.8124,-1.875 0.12,-3.65858 -5.0127,-2.56918 -7.2187,-2.09375 -3.6807,0.93019 -10.1845,-0.10338 -8.8437,-5.28125 0.8601,-13.254553 -0.401,-26.962011 1.2187,-40.34375 5.3086,-1.157568 11.5924,3.879552 16.0625,0.15625 0.1147,-4.114027 -6.3608,-2.617772 -9.0571,-3.29084 -6.9392,-0.935692 -14.0403,-0.446891 -20.9117,-0.77166 z m 51.7188,3.9375 c -4.385,3.179847 2.7118,11.243758 -2.9062,13.625 -2.9129,0.991188 -8.2888,-2.945404 -9.6563,0.78125 0.6249,4.121932 6.8507,1.443584 9.6563,2.53125 4.1168,3.769573 2.1257,11.252138 2.5937,16.46875 0.6887,5.30261 0.4341,10.51311 0,15.8125 -0.1591,3.39007 4.0525,2.50679 3.5625,-0.5 0.3522,-10.41301 -0.6205,-20.880007 -0.75,-31.3125 3.784,-2.848549 9.7386,1.285078 12.7812,-2.15625 0.2748,-3.605863 -5.8126,-2.561579 -7.8437,-1.71875 -3.8262,1.966515 -6.1333,-2.636284 -5.0937,-5.875 -0.2128,-1.71899 0.9133,-8.201116 -2.3438,-7.65625 z m 219.2812,9.6875 c -7.5742,3.28827 -19.3957,2.953891 -22.7187,12.03125 -1.646,4.979528 2.6925,10.217179 7.9375,9.34375 5.8541,0.714214 15.3002,4.83174 13,12.15625 -3.1129,5.85268 -11.8756,5.56401 -17.5,3.875 -2.2377,0.19084 -5.2884,-4.57639 -6.5938,-1.53125 0.5831,5.54452 8.0838,4.99336 12.1563,5.9375 7.4175,1.2217 17.7542,-3.75697 15.4375,-12.625 -2.0676,-8.20486 -11.1691,-10.183398 -18.3125,-11.34375 -4.3661,-0.963106 -3.3945,-6.477813 0,-8.125 4.5971,-3.639884 10.7295,-4.091822 16.1563,-6 -1.0364,1.931132 0.5233,8.241624 3.125,5.40625 0.4045,-2.960404 0.1916,-7.04493 -1.9063,-9.15625 -0.2553,0.03416 -0.5344,-0.05518 -0.7813,0.03125 z m 450.7813,1.3125 c -4.0135,4.944859 -0.3661,12.086672 -0.9063,17.90625 0.3116,7.1709 -3.2262,16.00392 1.1563,22.1875 3.4942,-0.54914 1.1528,-5.32778 1.2813,-7.5 -0.1167,-7.37995 -0.4185,-15.833428 6.0624,-20.84375 2.7157,-3.010882 5.9108,-5.834042 9.8438,-7.125 4.0577,9.658491 1.5832,20.55014 3.9375,30.5 0.059,1.91805 -1.2911,8.98455 2.6563,7.34375 2.26,-4.07583 -0.8701,-8.89971 -0.1876,-13.375 -0.4743,-6.395057 -4.2383,-15.988494 3.125,-19.71875 2.9926,-3.097167 10.2066,-6.086246 12.0626,-0.15625 4.8916,9.97279 1.6845,22.17646 5.7187,32.0625 3.1709,0.62631 3.0257,-3.97035 1.7342,-5.6726 -2.0778,-10.4468 -0.601,-22.205861 -5.8592,-31.5774 -6.0346,-4.589531 -14.8203,0.621541 -17.0313,7.03125 1.1252,-6.327146 -7.1602,-12.246884 -11.7812,-7.03125 -4.63,3.548229 -6.9952,8.781604 -9.5312,13.90625 -2.4335,-5.639194 1.0422,-12.406735 -1.375,-17.6875 -0.2441,-0.140738 -0.6318,-0.505106 -0.9063,-0.25 z m 166.125,0.59375 c -3.6421,2.735535 0.3198,8.204176 -1.0937,12.03125 0.2288,8.954433 -3.1048,19.14218 0.5624,27.375 3.6177,-0.008 1.9317,-4.87821 1.6876,-7.03125 -0.5826,-11.028941 3.9254,-24.96812 15.5937,-28.0625 6.5061,0.157185 6.4986,8.834846 5.9063,13.53125 -0.079,7.42211 -0.445,15.76675 2.4687,22.40625 3.4651,0.2338 2.456,-4.88305 1.5313,-6.875 -2.4029,-10.118289 1.9602,-22.039703 -4.3438,-30.84375 -6.5575,-4.749947 -14.2547,2.121979 -17.5938,7.75 -3.748,1.791152 -2.412,-4.836373 -2.625,-6.75 -0.099,-1.301753 -0.1175,-3.91732 -2.0937,-3.53125 z m -341.625,1 c -3.403,2.559919 -1.4272,8.193568 -2.2813,12.03125 0.5986,8.035243 -1.3377,17.84858 4.4063,24.28125 6.2019,4.33452 14.5406,1.8075 20.6563,-1.59375 -2.098,2.13254 1.4204,6.88542 3.1874,3.875 -0.9099,-12.63457 0.5581,-25.755561 -0.1874,-38.09375 -3.4577,-1.403611 -3.1372,3.719798 -3.04,5.684959 -0.6352,8.886046 -0.059,17.794051 -0.21,26.690041 -6.2725,1.43251 -14.8444,4.57391 -19.9688,-0.84375 -3.0055,-10.228301 -1.0287,-21.330852 -1.125,-31.59375 -0.3577,-0.325183 -0.9177,-0.519681 -1.4375,-0.4375 z m 90.5625,0.5 c -7.5195,0.15725 -13.4162,5.391278 -18.1562,10.65625 0.8125,-2.89682 2.0539,-8.223821 -1.1563,-9.96875 -2.2055,2.232205 -0.5118,7.229617 -1.2767,10.374645 0.084,9.110127 -0.5973,18.962185 0.808,27.625355 3.977,0.0397 1.6353,-5.21742 2.1874,-7.4375 -0.7264,-8.708836 -1.7142,-20.235268 7.1563,-25.15625 3.4697,-2.013601 9.165,-4.287891 12.25,-2.6875 1.1651,2.725944 -1.5986,7.738786 1.5625,9.09375 3.1418,-2.826182 2.054,-9.371822 -0.6562,-12.15625 -0.8055,-0.450444 -1.8115,-0.453814 -2.7188,-0.34375 z m -226.0625,0.25 c -14.7109,0.795211 -20.8841,20.737982 -13.25,31.875 7.8789,8.44945 24.0083,7.64496 30.75,-1.65625 -0.1273,-2.13995 -2.9545,-1.63585 -3,0.3125 -8.5102,7.22815 -24.0737,5.72653 -29.0937,-4.90625 8.7509,-6.012252 21.24,-7.064123 27.6562,-15.9375 2.5439,-7.246199 -7.7425,-10.125233 -13.0625,-9.6875 z m 257.8125,0 c -14.9385,0.649969 -21.4444,21.854369 -12.5938,32.53125 7.9575,7.76048 23.4131,6.68631 30.0938,-2.25 -0.067,-2.18494 -2.9676,-1.77126 -3,0.21875 -8.483,7.28866 -24.1577,5.72388 -29.0938,-4.875 8.7264,-6.065119 21.4669,-6.986565 27.75,-16.1875 2.0769,-7.228068 -7.8856,-9.798066 -13.1562,-9.4375 z m 127.5938,0.125 c -13.8178,0.812605 -21.4785,17.325359 -16.8126,29.4375 2.9693,9.55877 16.7997,10.59435 23.5313,4.40625 3.4507,-1.20591 4.8567,5.43087 7.6563,3.75 -2.6261,-7.25274 -4.9639,-14.76221 -3.9688,-22.6875 -0.642,-3.80465 2.2969,-8.266439 0.8125,-11.5625 -2.9825,-2.724941 -7.3108,-3.380987 -11.2187,-3.34375 z m -305.6563,0.21875 c -4.7297,4.303209 -5.498,11.270397 -9,16.40625 -2.0195,3.404146 -1.5647,9.75499 -5.875,11.125 -3.8588,-2.28594 -4.065,-8.46338 -6.7283,-11.989364 -2.8663,-5.422817 -5.3537,-11.842317 -10.053,-15.479386 -2.9741,1.051455 -0.4397,5.054492 0.9407,6.522668 4.5755,9.390974 10.6452,18.376112 13.8719,28.196082 -2.3483,7.44575 -8.2998,14.6931 -7.5313,22.5625 2.8631,1.49231 3.7622,-3.05782 3.9687,-4.96875 5.8277,-17.77494 16.1911,-34.092151 22.0938,-51.59375 -0.2808,-0.504481 -1.1064,-1.077353 -1.6875,-0.78125 z m -352.1875,0 c -17.2362,0.301478 -22.8493,27.09155 -9,35.9375 9.8695,6.4182 21.7504,-4.02592 21.875,-14.46875 0.8739,-8.515662 -1.8577,-22.042693 -12.875,-21.46875 z m 41.25,0 c -17.8588,0.229692 -23.0935,29.04787 -7.625,36.6875 10.9015,5.22682 21.7946,-7.46119 20.5938,-18.09375 0.3816,-7.806444 -3.2343,-19.301338 -12.9688,-18.59375 z m 338.7188,0 c -17.8016,0.185551 -23.1284,29.03945 -7.625,36.6875 10.5766,5.0539 21.3008,-6.73682 20.625,-17.125 0.4891,-8.077106 -2.881,-20.255526 -13,-19.5625 z m -182.9376,0.53125 c -3.5301,2.751553 -0.1927,8.222957 -1.7001,12.030285 0.061,7.52863 -1.5854,16.103665 0.9189,23.063465 3.3877,0.39132 2.586,-4.34913 2,-6.34375 -0.8591,-9.46547 1.6315,-19.508641 -0.062,-28.625 -0.3731,-0.106864 -0.7642,-0.215028 -1.1563,-0.125 z m 532.4688,0 c -3.5469,2.590159 -0.2341,8.168122 -1.679,11.968492 0.04,7.57286 -1.6989,16.137488 0.929,23.125258 3.8526,0.23037 2.0955,-5.15462 1.9062,-7.3125 -0.6714,-9.144658 1.6595,-18.862165 0,-27.65625 -0.373,-0.106864 -0.7641,-0.215028 -1.1562,-0.125 z m 74.0938,0.03125 c -14.3215,0.466832 -22.8443,19.787402 -14.5313,31.0625 4.8228,6.28247 16.3967,6.85068 19.637,-1.30832 0.3599,-2.41381 4.6174,-4.90369 4.6443,-1.12918 -0.2645,8.74381 -0.347,20.78187 -9.8438,24.65625 -5.6784,2.6607 -11.6506,-1.25805 -17.375,-0.0625 0.057,3.97406 6.215,2.70979 8.7812,3.34375 8.6544,1.64014 19.385,-3.80469 19.4063,-13.5 1.7105,-12.68408 2.2169,-25.743312 3.6563,-38.3125 -1.9851,-1.697529 -4.7604,-2.884754 -7,-4.3125 -2.3657,-0.611051 -4.9048,-0.455868 -7.375,-0.4375 z m -144.2188,1.6875 c 4.4285,-0.700127 8.5342,3.970577 6.0312,8.15625 -0.9589,6.604788 1.7018,13.43405 0.4376,19.875 -5.6014,7.2945 -20.543,6.65016 -22.0313,-3.71875 -3.238,-10.543967 3.9235,-24.059532 15.5625,-24.3125 z m -386.5312,0.03125 c 4.6642,-0.107315 9.2914,1.811513 12.375,5.3125 -8.0554,7.08017 -18.5137,10.234721 -27.875,15.25 1.2028,-8.650595 4.7262,-20.684067 15.5,-20.5625 z m 257.8124,0 c 4.6672,-0.09867 9.2571,1.802224 12.375,5.3125 -8.0332,7.071759 -18.5298,10.216278 -27.875,15.25 1.1722,-8.614749 4.7468,-20.724887 15.5,-20.5625 z m 274.6563,0.03125 c 5.0096,-0.741873 12.1408,3.397737 9.0937,9.125 0.016,9.504506 -4.327,22.51523 -15.4687,23 -8.9146,-0.50277 -11.3583,-11.4628 -9.2813,-18.625 1.3896,-7.411343 8.0005,-13.605591 15.6563,-13.5 z m -805.7187,1.15625 c 8.9531,-0.362019 11.7158,10.787293 10.5312,17.96875 0.6786,9.76569 -13.1251,17.53681 -19.9688,9.5625 -7.4567,-8.41954 -3.1066,-26.832803 9.4376,-27.53125 z m 41.25,0 c 8.6421,-0.446275 11.6217,10.295839 10.5624,17.34375 0.9776,9.72785 -12.2591,18.10196 -19.625,10.625 -8.0659,-8.20728 -3.6457,-27.385013 9.0626,-27.96875 z m 338.7187,0 c 9.0587,-0.391444 11.7205,11.015002 10.5,18.28125 0.4233,9.60819 -13.2169,17.13329 -19.9687,9.25 -7.4917,-8.46891 -3.0437,-26.921327 9.4687,-27.53125 z m -469.5313,73.21875 c -3.4245,2.79594 1.0857,7.77299 -0.5312,11.40625 -0.3284,15.31061 -0.3954,31.10871 -0.5312,46.125 2.781,1.37681 3.633,-3.15924 3.1874,-5.125 0.054,-7.33407 -0.172,-15.3749 5.2813,-20.9375 3.1705,-4.72809 11.2264,-9.28151 15.6875,-3.6875 2.8754,8.84173 0.098,18.40875 2.5,27.375 -0.232,1.93583 2.3271,6.2819 3.7812,3.09375 -0.3464,-8.16669 -2.7607,-16.13295 -2.1562,-24.4375 0.7949,-5.61528 -2.1368,-13.06065 -8.9062,-12.09375 -7.2363,0.37641 -12.2507,6.75191 -15.8438,12.4375 -1.9023,-11.30792 2.353,-23.29832 -1.25,-34.15625 -0.3782,-0.0829 -0.8739,-0.267 -1.2188,0 z m -15.4374,3.34375 c -4.5941,2.91211 -10.1839,-0.74822 -14.875,2.375 -10.1414,5.35191 -16.3936,16.2558 -20.0938,26.84375 -3.1287,10.39393 2.273,24.72195 14.375,25.28125 7.989,0.52892 16.9201,-3.41462 21.0938,-10.125 -1.098,-2.95878 -4.765,-0.0946 -5.875,1.4375 -6.7491,6.10023 -20.0424,7.92937 -24.8126,-1.21875 -6.0252,-11.11709 1.4784,-23.83476 8.6563,-32.46875 4.1872,-5.42906 12.6372,-10.74551 19.0625,-6 0.8207,1.43298 2.45,5.99192 4.5938,3.875 0.4623,-3.26721 1.4747,-8.11748 -1.4063,-10.40625 l -0.7187,0.40625 z m 101.625,0.5625 c -5.8512,1.35116 2.5846,8.09152 2.5312,1.9375 -0.1711,-1.1692 -1.283,-2.24678 -2.5312,-1.9375 z m 65.25,3.875 c -4.723,2.89047 2.3395,10.87726 -2.8126,13.59375 -2.9747,1.25242 -8.5342,-2.91379 -9.9374,0.96875 1.2024,5.3622 10.8428,-1.10932 11.5312,5.21875 1.4704,7.3941 0.4072,15.1082 1.2812,22.5625 -0.059,2.38411 -2.434,9.5797 1.9063,9.125 2.9779,-5.74535 0.1603,-13.01429 0.8277,-19.24703 0.5522,-4.82014 -1.803,-11.53239 0.5473,-15.19047 3.5689,-2.09934 9.4625,1.85464 11.8125,-1.96875 -0.3497,-3.50463 -6.2114,-2.15938 -8.4375,-1.3125 -4.7078,1.63455 -5.2447,-4.71574 -4.4687,-7.8125 -0.2073,-1.63565 0.3498,-6.01143 -2.25,-5.9375 z m 505.125,0 c -4.6157,3.02732 2.3053,10.78307 -2.75,13.59375 -3.111,1.26201 -8.2014,-2.87253 -9.9688,0.84375 0.6679,4.30744 7.0723,1.41216 10,2.65625 4.5337,6.24675 0.9769,15.50079 2.8125,22.875 0.8003,3.62097 -2.741,9.65268 1.2187,11.6875 3.6275,-2.00033 1.3268,-7.80322 1.8081,-11.24888 -0.272,-7.635 -0.4861,-15.27209 -0.7455,-22.90737 3.805,-2.77309 9.3159,1.04139 12.75,-1.96875 0.6031,-3.81677 -5.7422,-2.84414 -7.8126,-1.9375 -3.8506,1.95253 -6.1323,-2.65343 -5.0937,-5.90625 -0.2096,-1.97534 0.9144,-7.63545 -2.2187,-7.6875 z m -531,9.78125 c -8.554,2.37176 -28.2907,6.03855 -21.3438,18.96875 4.3021,4.07993 11.5985,2.03897 16.1562,5.96875 5.0628,2.56787 5.3176,10.68998 -0.625,12.375 -5.9039,2.26093 -13.1879,1.14917 -17.9687,-2.46875 -3.7131,-0.59087 -1.5098,4.35866 0.875,4.875 6.4872,2.63148 15.0668,3.38566 21.125,-0.71875 7.5415,-5.20394 2.7973,-17.16927 -5.3437,-18.78125 -3.9065,-1.86978 -10.0237,-1.52801 -12.625,-4.15625 0.4546,-8.54133 10.8948,-9.85382 17.3124,-11.75 3.6761,-2.45997 0.2843,4.46419 3.7188,5.65625 3.4829,-0.74058 0.9284,-6.32604 0.5938,-8.625 0.2365,-1.22104 -1.0154,-1.49219 -1.875,-1.34375 z m 176.2812,0 c -7.6347,3.3429 -20.0209,3.04528 -22.8438,12.59375 -1.3522,5.32543 3.6178,9.40015 8.625,9.09375 5.9995,0.63362 14.7354,4.72695 12.5313,12.09375 -4.4819,6.42878 -14.9651,5.60954 -20.625,1.90625 -2.0884,-2.62183 -5.6954,0.81665 -2.2813,2.78125 5.4751,4.26056 13.739,3.87697 20.0626,2.125 7.2084,-2.29575 8.6828,-12.11778 3.1562,-17.03125 -5.1013,-4.41796 -12.1428,-4.86895 -18.375,-6.65625 -0.4064,-8.78573 10.1831,-10.77724 16.75,-12.40625 4.5083,-2.88178 0.8857,2.88892 3.5625,4.90625 3.1979,2.20904 2.5367,-4.28592 1.9375,-5.9375 -0.6258,-1.26401 -0.3742,-4.05313 -2.5,-3.46875 z m 404.0312,0 c -7.5955,3.2906 -19.3136,2.95288 -22.7187,12.03125 -1.7279,5.4253 3.159,10.12273 8.4687,9.65625 6.004,0.69953 14.4855,4.51402 12.6876,11.90625 -4.3547,6.62513 -14.9044,5.77669 -20.625,2.21875 -1.3248,-2.39568 -5.726,-0.10881 -2.9688,2 6.2628,5.55543 16.7002,4.98573 23.6875,1.21875 6.3299,-5.40333 2.9434,-16.65912 -4.9687,-18.59375 -4.0835,-2.09088 -10.4157,-1.48472 -13.3438,-4.3125 0.38,-8.58993 10.8836,-9.91401 17.3125,-11.8125 3.7519,-2.63442 0.157,4.96844 4,5.6875 3.2265,-1.76089 0.3902,-7.18272 -0.094,-9.78125 -0.4117,-0.25809 -0.968,-0.29035 -1.4376,-0.21875 z m -526.25,1.28125 c -4.1141,4.88798 -0.3461,12.15058 -0.9374,17.9375 0.3646,7.17407 -3.3836,16.07275 1.2187,22.21875 3.7445,-0.94388 0.5071,-6.15744 1.1875,-8.53125 -0.1485,-7.08916 -0.079,-15.08026 6.0938,-19.8125 2.6594,-3.07017 5.8753,-5.86541 9.8124,-7.15625 4.0467,9.80984 1.7856,20.86858 3.9063,31.15625 -0.4282,1.91386 -0.5046,9.30925 3.0625,6.28125 1.3393,-4.6305 -1.1559,-9.41972 -0.6875,-14.21875 -0.6883,-6.02032 -3.769,-15.16877 3.2813,-18.46875 2.9335,-3.16144 10.2168,-6.01493 12,-0.1875 5.0031,9.9423 1.7484,22.14706 5.6874,32.0625 3.1776,0.67672 3.2684,-3.87384 1.828,-5.64135 -2.1356,-10.42462 -0.6167,-22.12236 -5.828,-31.54615 -5.9608,-4.68728 -14.9649,0.51457 -17.0624,7.09375 0.951,-5.96354 -6.2897,-12.19678 -11.3126,-7.5625 -4.8278,3.57063 -7.4926,9.06082 -10.0312,14.34375 -2.4469,-5.66673 1.062,-12.41841 -1.4062,-17.71875 -0.1768,-0.10407 -0.6003,-0.41689 -0.8126,-0.25 z m 323.0938,0 c -4.2005,5.24103 -0.1777,12.7209 -0.9688,18.84375 0.068,6.94362 -3.0191,15.27678 1.1563,21.3125 3.8715,-0.80645 0.61,-6.15501 1.2672,-8.53115 -0.1921,-7.07994 -0.015,-15.06065 6.0765,-19.84385 2.7459,-3.01707 5.9292,-5.88715 9.9063,-7.125 3.8384,9.88808 1.8564,20.95326 3.8125,31.21875 -0.048,1.90031 -0.8267,8.38999 2.75,6.59375 2.1942,-4.89729 -1.1182,-10.30788 -0.4062,-15.53125 -0.7641,-5.7011 -3.5303,-14.51197 3.3437,-17.53125 2.9626,-3.15904 10.1574,-6.01577 12.0313,-0.1875 4.9873,9.97586 1.56,22.31175 5.7812,32.15625 3.1748,0.31834 2.9262,-3.97159 1.703,-5.7351 -2.1747,-10.43044 -0.6097,-22.09972 -5.828,-31.54615 -6.0403,-4.69024 -14.9686,0.54381 -17.0625,7.09375 0.8248,-5.7929 -5.8266,-11.93295 -10.9687,-7.875 -4.972,3.61974 -7.7429,9.16692 -10.4376,14.59375 -2.3607,-5.61982 1.0485,-12.23745 -1.2187,-17.5625 -0.2391,-0.15717 -0.6569,-0.51507 -0.9375,-0.34375 z m -80.6875,0.625 c -3.8349,2.20855 0.029,7.63795 -1.2187,11.09375 0.3605,9.28539 -3.2614,19.70654 0.5,28.3125 3.7567,0.0871 1.7076,-4.98879 1.7187,-7.125 -0.5958,-11.00034 3.9724,-24.79022 15.5313,-28 6.38,0.0192 6.4947,8.43432 6,13.06201 0.081,7.54464 -0.865,16.38132 2.5937,22.96924 3.8158,-0.32963 1.7581,-5.6756 1.1875,-7.9375 -2.0385,-9.76466 1.8876,-21.25196 -4.0938,-29.75 -6.3737,-4.94098 -14.5093,2.01397 -17.6874,7.71875 -3.6611,1.90642 -2.5486,-4.80836 -2.5626,-6.53125 -0.1896,-1.26305 0.036,-4.08513 -1.9687,-3.8125 z m 185.1563,0.0312 c -3.6102,2.79447 0.2442,8.29176 -1.1127,12.18732 0.1656,8.9089 -3.007,18.95905 0.5189,27.18768 3.7824,0.0494 1.7562,-4.94879 1.75,-7.125 -0.6301,-11.00859 3.9628,-24.88861 15.5625,-28 6.3667,0.075 6.484,8.42889 5.9584,13.06163 0.01,7.51694 -0.8539,16.38883 2.6041,22.96962 3.787,-0.28943 1.7397,-5.70827 1.1875,-7.90625 -2.0348,-9.75861 1.8919,-21.23477 -4.0937,-29.78125 -5.9445,-4.78055 -14.3117,1.56815 -17.3438,7.34375 -3.2114,2.88777 -3.4793,-3.55543 -2.9062,-5.34375 -0.072,-1.43664 0.2144,-5.06998 -2.125,-4.59375 z m -542.6563,1.43755 c -7.6217,-0.0599 -13.6057,5.16396 -18.5,10.375 0.3767,-2.57398 1.9742,-8.81561 -1.625,-9.59375 -2.3077,11.96337 -0.616,25.23744 -0.75,37.53125 2.1777,1.50359 3.6245,-1.64289 2.6563,-3.4375 0.3841,-9.17755 -3.03,-21.3342 5.75,-27.6875 3.8137,-3.0888 8.7164,-4.18336 13.5312,-4.625 1.5094,2.98195 -1.5809,8.28483 1.7188,9.96875 3.247,-2.61414 2.0281,-9.17279 -0.4376,-12.09375 -0.7093,-0.37549 -1.5365,-0.51306 -2.3437,-0.4375 z m 338.4687,0.0312 c -7.5133,0.15921 -13.4199,5.39366 -18.1562,10.65625 0.7977,-2.84904 2.0844,-8.30679 -1.1875,-9.96875 -2.1527,2.25972 -0.4941,7.23262 -1.2451,10.37465 0.02,9.09672 -0.549,18.81382 0.7451,27.5316 3.2147,0.60034 2.4649,-3.86666 2.2187,-5.6875 -0.2052,-8.89781 -2.341,-20.77633 6.4688,-26.34375 3.6871,-2.64402 8.2737,-3.58803 12.7188,-4.03125 1.6132,2.99088 -1.396,8.1365 1.6874,9.96875 3.5855,-2.22657 1.6822,-8.51607 0.2188,-11.65625 -0.9074,-0.88886 -2.2513,-1.02433 -3.4688,-0.84375 z m 173.9688,0.25 c -14.0063,0.64144 -19.9659,18.74198 -14.5,29.96875 6.5777,10.52188 24.7623,10.03654 32,0.34375 0.048,-2.23355 -3.0693,-1.78139 -3.0625,0.3125 -8.5725,7.07886 -24.136,5.61408 -29,-5.09375 8.7732,-5.85773 21.2813,-6.98562 27.625,-15.875 2.5606,-7.22705 -7.8371,-10.12864 -13.0625,-9.65625 z m -323.625,0.1875 c -15.6411,1.44621 -23.0572,23.26638 -12.8438,34.46875 5.8852,5.04206 14.8066,3.60969 20.4376,-0.75 3.2891,-0.88163 4.4088,4.93444 7.1874,4.09375 -1.01,-6.4383 -5.0094,-12.96929 -3.75,-20 -0.5063,-4.81339 1.6082,-10.10456 0.9063,-14.4375 -3.1278,-2.92641 -7.8201,-3.60493 -11.9375,-3.375 z m 221.875,0 c -15.2408,1.3618 -22.6386,22.53271 -13.375,33.96875 5.6863,5.43995 15.2095,4.45408 20.875,-0.21875 3.3332,-1.0508 4.5693,4.89456 7.3125,4.0625 -0.3795,-5.77632 -4.8527,-11.61457 -3.6716,-17.93738 -0.5638,-5.41169 1.0926,-11.24049 1.0153,-16.28137 -3.0386,-3.15675 -7.9588,-3.81434 -12.1562,-3.59375 z m -120,0.125 c -17.766,0.88533 -22.4872,29.83786 -6.5312,36.875 11.1191,4.65833 20.9417,-7.8512 20.125,-18.25 0.3397,-8.12643 -3.5946,-19.6191 -13.5938,-18.625 z m -270.375,0.53125 c -3.6828,3.17178 -0.1519,8.95182 -1.742,13.09348 0.092,7.16486 -1.4161,15.25127 0.8358,21.93777 2.9087,0.7832 3.2672,-3.46091 2.2187,-5.25 -1.1889,-9.78095 1.679,-20.21051 -0.1875,-29.625 -0.336,-0.17185 -0.7518,-0.22684 -1.125,-0.15625 z m 170.625,1.7188 c 4.4518,-0.6967 8.6018,4.03539 6.0938,8.1875 -1.3044,6.7561 2.3842,14.21744 -0.125,20.5 -5.789,6.48391 -19.6352,5.83604 -21.375,-3.875 -3.3943,-10.60508 3.448,-24.44532 15.4062,-24.8125 z m 221.9375,0 c 4.8102,-0.71967 8.5539,4.44919 6.0313,8.6875 -1.1859,6.54085 2.5339,13.9263 -0.063,19.96875 -5.6772,6.54478 -19.6616,5.82623 -21.3437,-3.84375 -3.5075,-10.67744 3.4713,-24.47292 15.375,-24.8125 z m 100,0.0625 c 4.64,-0.0887 9.2641,1.78368 12.3437,5.3125 -8.0394,7.08862 -18.5521,10.18583 -27.875,15.25 1.2224,-8.67728 4.74,-20.7002 15.5313,-20.5625 z m -222.0625,1.1875 c 9.3066,-0.32254 11.6968,11.46555 10.5312,18.78125 -0.054,9.38448 -13.2454,16.38299 -19.9374,8.8125 -7.5701,-8.52085 -3.1076,-26.9825 9.4062,-27.59375 z m 368.9062,30.4375 c -4.8603,0.45057 -0.4747,8.41725 2.4376,4.03125 1.1647,-1.67749 -0.2685,-4.45977 -2.4376,-4.03125 z m -606.375,42.4375 c -3.3534,2.61348 0.1837,7.92081 -1.1767,11.59369 0.3244,15.71725 -1.7625,31.96754 -0.417,47.34381 3.4903,0.74876 3.011,-4.32277 2.6614,-6.40592 0.1228,-17.40969 1.8742,-35.3918 0.4011,-52.46908 -0.4784,-0.11351 -0.9807,-0.12714 -1.4688,-0.0625 z m 237.4376,0 c -3.3724,2.58048 0.1263,7.92561 -1.2079,11.62494 0.3374,15.71211 -1.757,31.9189 -0.4171,47.31256 3.4188,0.79057 3.1354,-4.31076 2.6744,-6.37492 0.066,-17.40858 2.0116,-35.50785 0.3568,-52.50008 -0.4552,-0.12425 -0.9398,-0.12213 -1.4062,-0.0625 z m 241,0 c -3.4678,2.16866 0.1189,7.32163 -1.25,10.59375 0.3852,16.04712 -1.786,32.58918 -0.4376,48.3125 2.9324,0.87024 3.3842,-3.42723 2.6745,-5.37483 0,-17.73927 1.9634,-36.1003 0.3568,-53.46892 -0.4301,-0.1057 -0.9137,-0.14233 -1.3437,-0.0625 z m -198.0938,0.15625 c -3.5123,2.56492 0.3267,7.58355 -0.9062,11.125 0.3905,15.6719 -1.5129,31.6547 -0.5938,47.125 2.1113,1.27026 4.1363,-2.02518 2.6875,-3.75 -0.4971,-5.25393 -0.1083,-12.30552 5.7187,-14.21875 2.5411,-3.8663 7.3753,-0.82759 8.5,2.625 2.8947,4.9158 7.0724,8.73885 9.4376,14.03125 0.9137,2.8511 4.7825,1.71758 3.25,-1.125 -3.7411,-7.38345 -9.8646,-13.65661 -14.5,-20.65625 4.1026,-5.0674 11.4527,-8.65791 13.25,-14.9375 -1.8882,-2.5253 -5.0202,0.93253 -5.9,2.82582 -5.7491,6.24801 -11.9778,11.98063 -18.85,16.98668 -1.2697,-13.22646 2.0025,-27.0306 -1,-39.90625 -0.3406,-0.1515 -0.7232,-0.21107 -1.0938,-0.125 z m 107.875,0.15625 c -3.424,2.78762 1.0431,7.75947 -0.5312,11.4375 -0.4222,15.30057 -0.2109,30.92814 -0.6563,46.03125 2.7182,1.70841 3.8973,-3.03639 3.3125,-5 0.047,-7.2898 -0.1484,-15.46024 5.2812,-20.96875 3.1415,-4.72644 11.2684,-9.28699 15.6876,-3.6875 2.8737,8.84081 0.1064,18.40436 2.4687,27.375 -0.372,2.0309 2.5598,6.24256 3.8437,3.09375 -0.043,-7.1579 -2.683,-14.08238 -2.1562,-21.34375 0.4176,-5.65323 0.015,-15.08243 -7.625,-15.15625 -7.8549,-0.5048 -13.3305,6.36744 -17.1562,12.40625 -2.0201,-11.29436 2.6338,-23.72067 -1.5313,-34.28125 -0.3069,0.0279 -0.6793,-0.16297 -0.9375,0.0937 z m -339.5625,0.28125 c -3.285,3.63357 -0.3583,9.37291 -2.0937,13.75 -0.8195,3.43066 1.8974,9.39643 -1.7813,11.53125 -3.4461,-0.2015 -5.4853,-4.53093 -9.375,-4.21875 -9.7734,-1.15682 -18.5479,7.33226 -18.9687,16.8125 -2.1071,10.6094 6.8676,22.69704 18.2187,20.59375 4.5055,-0.49611 8.5463,-3.05349 11.875,-6.03125 -1.6673,1.67503 1.0878,7.34406 3,4.5625 -3.3089,-18.84949 1.0764,-38.34656 0.25,-56.96875 -0.3372,-0.0514 -0.7972,-0.19205 -1.125,-0.0312 z m -214.4687,2.5625 c -3.3444,1.11751 0.3632,5.6377 0.6562,7.6875 5.9319,15.60221 8.2975,32.63706 13.125,48.40625 2.4647,1.4993 5.8617,-1.22173 4.1562,-3.75 4.0238,-13.49533 10.7586,-26.30323 14.2188,-40 4.2223,-0.98797 3.1615,6.01798 3.9062,8.40625 2.2856,11.92159 3.2609,24.36389 7.4688,35.90625 2.7802,3.82579 6.5738,-2.25646 6.5,-5.1875 6.1057,-16.9732 15.1442,-33.4674 18.9375,-50.9375 -3.331,-2.00518 -5.2068,3.78583 -5.25,6.21875 -4.6679,16.40756 -11.3787,32.13304 -17.75,47.9375 -4.9294,-17.30085 -6.6532,-35.44961 -10.4375,-52.875 -3.9825,-2.33695 -4.7141,4.68859 -6.1562,6.75 -5.3865,13.33659 -7.9952,27.65481 -14.6563,40.5 -4.3948,-16.31865 -5.7068,-34.08207 -13.625,-49 -0.3568,-0.066 -0.7277,-0.1435 -1.0937,-0.0625 z m 425.9687,1.09375 c -4.9204,0.48759 0.438,7.83361 2.4375,3.0625 0.5221,-1.50527 -0.7604,-3.40333 -2.4375,-3.0625 z m 286.5,0.75 c -4.0869,1.19119 -11.254,2.31914 -11.5625,7.5 2.4766,2.45875 5.6651,-2.40738 8.2188,-3.03125 10.316,-4.58091 23.7407,9.06864 16.6562,18.8125 -4.1737,6.78551 -14.5446,8.25661 -16.6875,16.25 1.9758,2.69319 4.4551,-1.40985 5.8125,-2.65625 6.7943,-5.51991 18.2667,-11.31875 16.0312,-21.84375 -1.5775,-8.38457 -9.8288,-15.34944 -18.4687,-15.03125 z m -49.3437,14.59375 c -4.3017,4.02806 -0.4181,10.6171 -1.1492,15.74758 1.2562,14.63524 -0.8761,29.89974 1.0554,44.18992 2.978,0.90179 2.9583,-3.26974 2.625,-4.9375 1.1348,-5.19807 -2.8634,-12.07789 1.2812,-16.34375 4.0201,-1.20251 8.2906,2.14914 12.5,0.0937 8.9434,-1.73804 12.476,-11.4953 11.4688,-19.65625 0.6165,-8.00478 -5.0138,-18.44379 -14.3438,-16.375 -4.6091,0.82604 -8.6583,3.70793 -12.4374,6.34375 -0.9299,-2.77629 2.1788,-7.14249 -0.3126,-9.03125 -0.2178,-0.0479 -0.4764,-0.18104 -0.6874,-0.0312 z m -540.5,1.21875 c -3.4094,2.60398 -1.3666,8.20486 -2.2813,12.03125 0.6458,7.99552 -1.2909,17.90358 4.4687,24.28125 6.092,4.25174 14.4857,1.97345 20.375,-1.6875 -1.8685,2.23786 1.7288,6.94656 3.4376,3.96875 -0.9557,-12.65161 0.5349,-25.63453 -0.1876,-38.09375 -2.8061,-1.38609 -3.4609,2.83267 -2.9374,4.6875 -0.7094,9.22455 -0.1897,18.47992 -0.2813,27.71875 -6.3928,1.34155 -15.6833,5.00987 -20.1875,-1.6875 -2.8302,-10.02458 -0.6543,-20.90661 -1,-30.84375 -0.3686,-0.33922 -0.9192,-0.42835 -1.4062,-0.375 z m 213.9687,0 c -3.5655,3.07728 -1.444,8.93379 -2.25,13.125 0.8418,7.66826 -1.4436,17.5637 4.7187,23.40625 6.2624,4.00056 14.3074,1.55268 20.25,-1.875 -1.9136,2.1314 1.0678,6.60652 3.1563,4.15625 -0.6555,-12.63522 0.5249,-25.68088 0,-38.25 -2.6954,-1.59456 -3.6203,2.76786 -3,4.625 -0.7288,9.22342 -0.1773,18.48008 -0.2813,27.71875 -6.4221,1.3249 -15.6663,5.02729 -20.1874,-1.6875 -2.8203,-10.02577 -0.6782,-20.90565 -1,-30.84375 -0.3734,-0.33417 -0.9179,-0.43363 -1.4063,-0.375 z m 162.75,0.8125 c -14.7015,1.21647 -20.8039,22.5962 -11.5313,32.84375 8.1946,7.30172 23.0841,6.14076 29.6876,-2.59375 -0.01,-2.31789 -3.0855,-1.73323 -3.0938,0.3125 -8.5974,7.13026 -24.1422,5.55294 -29,-5.09375 8.8569,-5.87904 21.1747,-6.94801 27.7188,-15.875 2.0714,-7.64112 -8.0886,-10.37728 -13.7813,-9.59375 z m 111.875,0 c -14.2288,1.22068 -20.0655,20.81408 -12.6563,31.65625 7.5578,8.57543 24.1446,7.83563 30.8438,-1.5625 -0.5206,-2.64203 -2.98,-0.91423 -3.5312,0.6875 -8.4998,6.96235 -23.8039,5.1496 -28.5626,-5.3125 8.8604,-5.86573 21.1553,-6.96095 27.7188,-15.875 2.0984,-7.64886 -8.1388,-10.39363 -13.8125,-9.59375 z m -330.3437,0.25 c -4.9739,4.98905 -6.3291,12.49524 -9.7574,18.56133 -1.5948,2.27133 -1.6999,9.96133 -5.9614,8.78242 -4.7689,-7.64144 -7.3496,-17.05352 -13.0312,-24.34375 -0.5615,-2.60774 -4.5578,-4.32507 -4.25,-0.71875 1.4627,4.50423 5.1297,8.42835 6.925,13.07741 3.2312,6.34512 7.2038,12.70066 9.2,19.42259 -2.3767,7.4124 -8.3232,14.80401 -7.4376,22.625 3.8178,1.28953 3.3821,-4.73361 4.5,-6.6875 5.7945,-17.14249 15.8982,-32.96718 21.4688,-49.9375 -0.3469,-0.47673 -1.0342,-1.08198 -1.6562,-0.78125 z m -186.1876,0 c -15.0114,0.19117 -21.2972,20.88016 -13.3124,31.875 5.0808,8.24266 17.8166,7.66068 22.5937,-0.59375 5.7027,-8.54093 5.3315,-22.24313 -2.5313,-29.375 -1.9177,-1.45886 -4.3582,-2.0793 -6.75,-1.90625 z m 214,0 c -17.817,0.17338 -23.2248,29.03151 -7.6562,36.65625 10.4443,5.16182 21.385,-6.66671 20.5625,-17 0.6961,-8.10759 -2.8855,-20.33525 -12.9063,-19.65625 z m 116.0313,0.53125 c -3.7203,2.2462 -0.2647,7.5846 -1.7813,11 0.1635,7.90735 -1.8353,16.84988 1,24.15625 3.8316,0.006 1.9694,-5.17866 1.8438,-7.34375 -0.79,-9.13888 1.7697,-18.94197 -0.094,-27.6875 -0.3084,-0.10137 -0.6443,-0.21333 -0.9687,-0.125 z m 75.7187,1.75 c 4.6261,-0.0891 9.2753,1.77 12.3438,5.3125 -8.0371,7.0999 -18.5666,10.20683 -27.875,15.25 1.1753,-8.62365 4.8156,-20.7585 15.5312,-20.5625 z m 111.8438,0 c 4.6455,-0.0877 9.3238,1.76408 12.4062,5.3125 -8.0545,7.07341 -18.5365,10.21541 -27.875,15.25 1.2375,-8.63509 4.6829,-20.69643 15.4688,-20.5625 z m -412.8125,0.28125 c 7.8488,-0.66583 14.535,7.57729 11.9687,15.15625 0.6168,5.27079 0.7643,12.37637 -5.25,14.46875 -9.218,6.68262 -23.4851,-2.74131 -21.4687,-13.8125 -0.2847,-8.28599 5.9333,-16.43277 14.75,-15.8125 z m -105.1563,0.90625 c 8.9381,-0.38268 11.6701,10.84534 10.5,18 0.6636,9.70401 -13.0813,17.50369 -20,9.5625 -7.4573,-8.55616 -3.0115,-26.9698 9.5,-27.5625 z m 213.9688,0 c 8.6638,-0.42799 11.58,10.40385 10.5625,17.4375 0.8804,9.69438 -12.3014,17.95767 -19.6875,10.5625 -7.9519,-8.3594 -3.6715,-27.35503 9.125,-28 z m 369.8438,0.0937 c 8.078,-0.21897 10.1855,9.78504 9.5937,16.1875 1.3006,8.72544 -7.9236,16.3802 -16.1875,13.28125 -5.9077,0.67493 -6.8735,-6.49387 -6,-10.8125 -0.2283,-5.41094 -2.0785,-13.40889 4.4062,-15.90625 2.3842,-1.74225 5.25,-2.6154 8.1876,-2.75 z m 30.75,28.75 c -4.1243,0.31345 -2.3835,8.69041 1.0312,5 0.8407,-1.29299 1.5409,-5.36905 -1.0312,-5 z"
       id="path4765"
       inkscape:connector-curvature="0" />
    <path
       style="font-size:medium;font-style:normal;font-variant:normal;font-weight:normal;font-stretch:normal;text-indent:0;text-align:start;text-decoration:none;line-height:normal;letter-spacing:normal;word-spacing:normal;text-transform:none;direction:ltr;block-progression:tb;writing-mode:lr-tb;text-anchor:start;baseline-shift:baseline;color:#000000;fill:none;stroke:#000000;stroke-width:5;stroke-miterlimit:4;stroke-opacity:1;stroke-dasharray:none;marker:none;visibility:visible;display:inline;overflow:visible;enable-background:accumulate;font-family:Sans;-inkscape-font-specification:Sans"
       d="m 1684.6467,191.89294 c 0,0 4.6478,-5.19638 9.3032,-12.63094 4.6555,-7.43456 9.3097,-17.1073 9.369,-26.06 0.061,-9.23795 -4.4434,-8.67447 -8.9425,-7.91193 -4.4992,0.76253 -8.9954,1.72413 -9.0115,-6.71757 -0.033,-17.45151 16.0456,-36.1965 11.9982,-49.65891 -2.0882,-6.945672 -6.4308,-6.551931 -10.9006,-5.805335 -4.4698,0.746595 -9.07,1.846043 -11.7184,-3.688215 -5.475,-11.440961 5.9173,-24.983208 -2.6996,-33.215467 -8.8914,-8.494556 -19.9416,4.706716 -30.9769,0.348208 -5.7033,-2.252583 -5.4743,-7.064685 -5.5164,-11.617364 -0.042,-4.552679 -0.3543,-8.845935 -7.0998,-10.060828 -6.9604,-1.253603 -14.2078,2.859701 -19.7278,7.286406 -5.52,4.426705 -9.3146,9.166811 -9.3146,9.166811 0,0 3.9225,-4.498754 9.4284,-8.709913 5.5059,-4.211159 12.5971,-8.134723 18.984,-6.984345 6.6019,1.189088 6.8511,5.457901 6.897,10.00481 0.046,4.546908 -0.1127,9.371913 5.7138,11.673383 12.0242,4.749599 22.8196,-8.143306 30.977,-0.348208 8.4317,8.057395 -2.8997,21.52621 2.6911,33.215466 2.8846,6.030851 7.5706,5.217362 12.0247,4.489599 4.4542,-0.727764 8.6773,-1.369801 10.5919,5.003952 3.9581,13.17645 -12.0403,31.82866 -12.0108,49.65891 0.015,9.19918 4.5079,8.61792 9.0069,7.85618 4.4989,-0.76174 9.0017,-1.70396 8.9435,6.77332 -0.06,8.76253 -4.5493,18.24553 -9.0389,25.53789 -4.4895,7.29236 -8.9709,12.39409 -8.9709,12.39409 z m -149.6324,-4.28825 c 0,0 -5.7214,5.73794 -11.7189,-4.10174 -3.0996,-5.08538 -0.2039,-12.68018 3.4998,-21.28973 3.7037,-8.60956 8.2133,-18.23388 8.3839,-27.37832 0.176,-9.43581 -4.4285,-8.7532 -8.8934,-8.02491 -4.4648,0.72829 -8.7905,1.50226 -8.1627,-7.75081 0.3244,-4.78222 4.5203,-12.98455 10.5782,-22.598043 6.0579,-9.613494 13.974,-20.638154 21.799,-31.065038 15.65,-20.853767 30.9228,-39.316425 30.9228,-39.316425 0,0 -15.4261,18.548613 -31.2351,39.540227 -7.9045,10.495807 -15.9016,21.602364 -22.0229,31.306471 -6.1213,9.704108 -10.3631,18.005758 -10.6958,22.891768 -0.6867,10.08336 3.6302,9.69787 8.107,8.95625 4.4769,-0.74162 9.1089,-1.83937 8.9451,6.81947 -0.1692,8.9502 -4.7142,18.51934 -8.4378,27.14986 -3.7235,8.63053 -6.6238,16.32244 -3.4582,21.51819 3.2665,5.3613 6.3579,6.197 8.6399,5.69237 2.2821,-0.50464 3.7491,-2.34959 3.7491,-2.34959 z m 141.3392,586.20633 c 0,0 15.5713,-17.8896 31.383,-38.33136 15.8118,-20.44176 31.8573,-43.43568 32.9237,-53.64434 2.2007,-21.06785 -16.452,0.52897 -16.1715,-16.80607 0.2899,-17.91834 18.5676,-39.12181 18.7376,-57.33559 0.1755,-18.79411 -17.9612,2.2842 -17.7568,-15.02597 0.2113,-17.89263 18.2923,-38.94473 18.4882,-57.25562 0.2021,-18.89432 -17.8773,2.19475 -17.7044,-15.14245 0.1788,-17.92058 18.2877,-39.08314 18.4801,-57.45775 0.1985,-18.96005 -17.9495,2.28753 -17.79,-15.09826 0.165,-17.97081 18.3337,-39.2821 18.4925,-57.68582 0.1639,-18.9901 -18.6453,3.87932 -18.6453,3.87932 0,0 18.1502,-20.54678 17.9992,-3.12036 -0.156,18.0128 -18.3252,39.32501 -18.4943,57.68582 -0.1746,18.94583 17.9722,-2.30059 17.7894,15.09826 -0.1889,17.98431 -18.2987,39.14825 -18.482,57.45774 -0.189,18.89288 17.89,-2.19607 17.7039,15.14246 -0.1924,17.92195 -18.2736,38.97468 -18.4901,57.25562 -0.2233,18.86342 17.9179,-2.2206 17.7563,15.02597 -0.167,17.8269 -18.4427,39.02838 -18.7395,57.33559 -0.3062,18.89052 18.191,-2.52701 16.171,16.80607 -1.0441,9.99182 -16.9259,32.796 -32.5793,53.10223 -15.6534,20.30623 -31.0717,38.11451 -31.0717,38.11451 z m -19.4191,-12.98401 c 0,0 -18.6934,20.78017 -32.8261,20.14537 -14.6083,-0.65615 -0.5342,-16.87187 -14.0941,-19.11696 -13.9919,-2.31662 -26.1675,11.71643 -36.1596,6.3096 -10.3284,-5.58876 0.9563,-18.60058 -7.6227,-26.59561 -8.8524,-8.24977 -20.23,4.88108 -26.7948,-4.49011 -6.7857,-9.68651 5.5891,-23.97987 1.5449,-37.23575 -4.173,-13.67824 -18.5487,2.95078 -20.5967,-11.66988 -2.1168,-15.11262 15.511,-35.53288 15.4604,-53.46587 -0.052,-18.50437 -17.8214,2.11864 -17.9049,-14.83345 -0.086,-17.5225 17.7553,-38.26664 17.7046,-56.26415 -0.052,-18.57094 -17.932,2.2551 -17.9846,-14.79418 -0.054,-17.62297 17.8345,-38.49741 17.7836,-56.56013 -0.053,-18.63824 -17.9307,2.26175 -17.9689,-14.86642 -0.04,-17.70451 17.8182,-38.61876 17.7671,-56.74742 -0.053,-18.70627 -17.887,2.21892 -17.9279,-14.96894 -0.042,-17.76621 17.7766,-38.71194 17.7253,-56.90726 -0.053,-18.77506 -17.8728,2.21047 -17.9338,-15.0172 -0.063,-17.80738 9.3807,-29.1493 9.3807,-29.1493 0,0 -10.0888,11.71442 -10.0249,29.90825 0.066,18.77353 17.8853,-2.21188 17.9333,15.01721 0.05,17.80882 -17.7699,38.75548 -17.7272,56.90726 0.044,18.73014 17.8796,-2.19702 17.9274,14.96894 0.049,17.74359 -17.8087,38.65868 -17.769,56.74742 0.041,18.66508 17.9208,-2.23711 17.9684,14.86642 0.049,17.67905 -17.8403,38.5547 -17.7854,56.56013 0.057,18.57912 17.9366,-2.24759 17.9841,14.79418 0.049,17.61522 -17.794,38.36137 -17.7064,56.26415 0.09,18.47321 17.8571,-2.14723 17.9044,14.83345 0.049,17.55206 -17.6245,38.02527 -15.4622,53.46587 2.2312,15.93258 16.7673,-0.88207 20.5963,11.66988 3.9579,12.97431 -8.4788,27.33902 -1.5462,37.23575 7.1536,10.21207 18.6715,-3.08036 26.7947,4.49011 8.3965,7.82521 -2.9306,20.88556 7.6218,26.59561 10.8885,5.89199 23.3201,-8.43547 36.1598,-6.3096 13.2718,2.1974 -0.8318,18.44657 14.0935,19.11696 15.4008,0.69176 33.4851,-20.90433 33.4851,-20.90433 z m 48.5886,-198.88433 c 0,0 -24.2081,27.1911 -21.2586,6.83249 3.0489,-21.04366 20.7842,-41.59101 20.6377,-59.43273 -0.076,-9.2051 -4.5465,-8.66235 -9.0095,-7.93318 -4.4629,0.72918 -8.9185,1.64477 -8.9882,-6.81464 -0.1441,-17.48812 17.5927,-38.17792 17.4599,-56.16497 -0.068,-9.28008 -4.5509,-8.72 -9.0272,-7.96996 -4.4762,0.75004 -8.947,1.69003 -9.0172,-6.83022 -0.1451,-17.6139 17.6213,-38.48969 17.4418,-56.55389 -0.092,-9.31988 -4.5713,-8.76001 -9.0379,-8.01579 -4.4667,0.74423 -8.9219,1.67281 -8.9926,-6.90962 -0.1461,-17.74245 17.3924,-38.71528 17.3924,-38.71528 0,0 -18.1835,21.34674 -18.0354,39.47424 0.076,9.35254 4.5351,8.80766 9.0025,8.06276 4.4673,-0.74489 8.9426,-1.68981 9.027,6.86265 0.1745,17.68049 -17.5926,38.55772 -17.4456,56.55389 0.076,9.28478 4.5492,8.72685 9.0257,7.97672 4.4764,-0.75013 8.9554,-1.69248 9.0177,6.82346 0.1288,17.60498 -17.6096,38.29732 -17.4636,56.16497 0.075,9.21848 4.5338,8.68187 8.9971,7.95242 4.4633,-0.72945 8.9308,-1.65174 8.9996,6.7954 0.1423,17.46274 -17.5251,37.93238 -20.6416,59.43273 -1.6078,11.0927 3.8691,9.19484 9.7525,4.5238 5.8834,-4.67103 12.1635,-12.11525 12.1635,-12.11525 z m -50.182,57.80861 c 0,0 -20.8556,23.17205 -34.3285,21.78411 -13.9263,-1.43465 -0.7573,-16.54099 -12.7014,-20.63342 -12.3247,-4.22283 -23.4289,8.52999 -31.1694,0.55583 -8.0009,-8.24249 3.8486,-21.86639 -0.3477,-34.90216 -4.33,-13.45112 -18.8433,3.28581 -20.5659,-11.66935 -1.7806,-15.45837 15.9352,-35.94794 16.0328,-54.05213 0.05,-9.34051 -4.4359,-8.78068 -8.9213,-8.02634 -4.4853,0.75434 -8.9704,1.70319 -8.943,-6.8593 0.057,-17.70121 18.1585,-38.79325 18.2561,-57.03035 0.05,-9.40908 -4.4464,-8.83293 -8.9336,-8.07078 -4.4873,0.76214 -8.9658,1.71028 -8.9046,-6.95484 0.1266,-17.91338 18.1121,-39.02562 18.1182,-57.29046 0.01,-18.84679 -18.4674,3.67819 -18.4674,3.67819 0,0 17.8296,-20.21414 17.8227,-2.91923 -0.01,17.87687 -17.9914,38.98832 -18.1219,57.29046 -0.067,9.44264 4.4087,8.88189 8.8967,8.11905 4.488,-0.76283 8.9873,-1.72775 8.9405,6.90657 -0.097,17.84972 -18.2008,38.94498 -18.2599,57.03035 -0.031,9.33081 4.4522,8.76652 8.9375,8.01238 4.4853,-0.75415 8.9726,-1.69814 8.9258,6.87326 -0.097,17.71964 -17.8546,38.25827 -16.0364,54.05213 1.8761,16.29709 16.5925,-0.67418 20.5651,11.66935 4.1064,12.75887 -7.8285,26.48079 0.3454,34.90216 8.4345,8.68969 19.8598,-4.43095 31.1694,-0.55583 11.6902,4.00551 -1.5284,19.16763 12.7,20.63342 14.6818,1.51248 34.9908,-22.54307 34.9908,-22.54307 z"
       id="path4949"
       inkscape:connector-curvature="0"
       inkscape:path-effect="#path-effect4955"
       inkscape:original-d="m 1607.6562,22.375 c -32.8429,-0.567266 -65.6358,18.706724 -79.375,48.6875 -12.078,23.955809 -12.8873,51.53426 -11.9374,77.9375 -1e-4,15.04167 0,30.08333 0,45.125 6.2021,-0.11229 12.4121,0.26358 18.5624,1.0625 0.6151,-28.64153 -1.3128,-57.40496 1.0938,-85.96875 3.6476,-25.279667 16.2197,-52.253578 41.1731,-62.384615 22.5079,-8.841013 49.0963,-8.150554 70.8269,2.540865 24.9833,14.385082 35.6536,44.691812 36.625,72.3125 0.3658,24.60967 -0.2551,49.2266 0.062,73.84375 6.1421,-0.92828 12.3506,-1.39145 18.5625,-1.4375 -0.7409,-29.50231 1.5967,-59.16438 -1.4062,-88.5625 -4.4226,-32.079976 -23.1704,-63.966534 -54.4063,-76.15625 -12.5218,-5.164063 -26.193,-7.265689 -39.7813,-7 z M 1532.5,304.0625 c -5.3607,0.6124 -10.7618,0.86701 -16.1562,0.78125 0.5403,126.43179 0.3852,252.8869 1.316,379.3042 4.93,41.01741 32.014,80.87937 72.8514,92.73078 38.4841,11.86288 84.6384,5.89813 115.4561,-21.16677 25.9568,-23.14182 38.805,-58.88661 36.7898,-93.49311 0.736,-101.22216 2.186,-202.45747 2.9304,-303.6876 -6.1875,0 -12.375,0 -18.5625,0 -1.0462,108.30919 -1.8462,216.65767 -3.5312,324.9375 -4.688,33.70224 -26.9303,67.0287 -61.1159,75.93772 -27.3113,7.64344 -58.4028,6.68139 -83.5091,-7.18772 -25.3645,-15.17612 -40.4463,-44.43912 -43.0057,-73.43749 -0.3523,-125 -0.7046,-250.00001 -1.0569,-375.00001 -0.802,0.0937 -1.6041,0.1875 -2.4062,0.28125 z m 154.3125,261.5625 c -2.3819,22.25509 -12.8015,46.8242 -34.8125,55.625 -17.6657,6.53506 -38.917,5.66551 -55.1562,-4.15625 -19.8092,-13.47007 -26.4951,-39.65399 -24.7741,-62.65606 0.3283,-65.30216 0.7524,-130.60388 0.9928,-195.90644 -6.1875,0 -12.375,0 -18.5625,0 0.01,71.90216 -1.3322,143.83801 -0.625,215.71875 2.7563,27.88151 19.8965,55.83628 47.5,64.96875 30.2773,11.25337 68.7119,2.35779 87.0312,-24.96875 14.4094,-19.78744 18.7982,-45.03873 16.7977,-69.06229 -0.7838,-79.3953 -1.0075,-158.79641 -2.1727,-238.18771 -6.1384,-0.042 -12.2685,-0.55311 -18.3437,-1.40625 0.7083,86.67708 1.4167,173.35417 2.125,260.03125 z" />
  </g>
</svg>
