<?xml version="1.0" encoding="UTF-8" standalone="no"?>
<!-- Created with Inkscape (http://www.inkscape.org/) -->

<svg
   xmlns:dc="http://purl.org/dc/elements/1.1/"
   xmlns:cc="http://creativecommons.org/ns#"
   xmlns:rdf="http://www.w3.org/1999/02/22-rdf-syntax-ns#"
   xmlns:svg="http://www.w3.org/2000/svg"
   xmlns="http://www.w3.org/2000/svg"
   xmlns:sodipodi="http://sodipodi.sourceforge.net/DTD/sodipodi-0.dtd"
   xmlns:inkscape="http://www.inkscape.org/namespaces/inkscape"
   width="3200"
   height="800"
   id="svg6586"
   version="1.1"
   inkscape:version="0.92.2 5c3e80d, 2017-08-06"
   sodipodi:docname="Capacitor.svg">
  <sodipodi:namedview
     id="base"
     pagecolor="#ffffff"
     bordercolor="#666666"
     borderopacity="1.0"
     inkscape:pageopacity="0.0"
     inkscape:pageshadow="2"
     inkscape:zoom="0.366875"
     inkscape:cx="1600"
     inkscape:cy="400"
     inkscape:document-units="px"
     inkscape:current-layer="1-default"
     showgrid="false"
     inkscape:window-width="1680"
     inkscape:window-height="1005"
     inkscape:window-x="0"
     inkscape:window-y="1"
     inkscape:window-maximized="1" />
  <defs
     id="defs6588">
    <inkscape:path-effect
       back_thickness="0.25"
       front_thickness="1"
       stroke_width_bottom="1"
       stroke_width_top="1"
       fat_output="false"
       bottom_smth_variation="0;1"
       top_smth_variation="0;1"
       scale_tb="2"
       scale_tf="2"
       scale_bb="2"
       scale_bf="2"
       top_tgt_variation="0;1"
       bottom_tgt_variation="0;1"
       top_edge_variation="0;1"
       bottom_edge_variation="0;1"
       bender="1604.5625,399.3125 , 5,0"
       do_bend="true"
       growth="0"
       dist_rdm="0;1"
       direction="1604.5625,394.3125 , 27.522194,17.73555"
       is_visible="true"
       id="path-effect7823"
       effect="rough_hatches" />
    <inkscape:path-effect
       effect="rough_hatches"
       id="path-effect7154"
       is_visible="true"
       direction="1604.5625,394.3125 , 18.921244,17.73555"
       dist_rdm="0;1"
       growth="0"
       do_bend="true"
       bender="1604.5625,399.3125 , 5,0"
       bottom_edge_variation="0;1"
       top_edge_variation="0;1"
       bottom_tgt_variation="0;1"
       top_tgt_variation="0;1"
       scale_bf="2"
       scale_bb="2"
       scale_tf="2"
       scale_tb="2"
       top_smth_variation="0;1"
       bottom_smth_variation="0;1"
       fat_output="false"
       stroke_width_top="1"
       stroke_width_bottom="1"
       front_thickness="1"
       back_thickness="0.25" />
  </defs>
  <metadata
     id="metadata6591">
    <rdf:RDF>
      <cc:Work
         rdf:about="">
        <dc:format>image/svg+xml</dc:format>
        <dc:type
           rdf:resource="http://purl.org/dc/dcmitype/StillImage" />
        <dc:title />
      </cc:Work>
    </rdf:RDF>
  </metadata>
  <g
     inkscape:label="1-default"
     inkscape:groupmode="layer"
     id="1-default"
     style="display:inline">
    <path
       sodipodi:nodetypes="cccccccccccccccccccccccccccccccccc"
       style="color:#000000;font-style:normal;font-variant:normal;font-weight:normal;font-stretch:normal;font-size:medium;line-height:normal;font-family:Sans;-inkscape-font-specification:Sans;text-indent:0;text-align:start;text-decoration:none;text-decoration-line:none;letter-spacing:normal;word-spacing:normal;text-transform:none;writing-mode:lr-tb;direction:ltr;baseline-shift:baseline;text-anchor:start;display:inline;overflow:visible;visibility:visible;fill:none;stroke:#000000;stroke-width:4;stroke-miterlimit:4;stroke-dasharray:none;stroke-opacity:1;marker:none;enable-background:accumulate"
       d="m 1656.3438,49.65625 v 24 651.3125 24 h 48 v -24 -301.75 h 1.9062 673.5312 24.7188 V 375.375 h -24.7188 -673.5312 -1.9062 v -301.71875 -24 z m -148.75,-0.25 v 24 303.5 H 1497.5 827.4375 804.625 v 44.8125 h 22.8125 670.0625 10.0938 v 303.5 24 h 48 v -24 -651.8125 -24 z"
       id="path6182"
       inkscape:connector-curvature="0" />
    <path
       inkscape:original-d="m 1656.3438,49.65625 v 24 651.3125 24 h 48 v -24 -301.75 h 1.9062 673.5312 24.7188 V 375.375 h -24.7188 -673.5312 -1.9062 v -301.71875 -24 z m -148.75,-0.25 v 24 303.5 H 1497.5 827.4375 804.625 v 44.8125 h 22.8125 670.0625 10.0938 v 303.5 24 h 48 v -24 -651.8125 -24 z"
       inkscape:path-effect="#path-effect7823"
       inkscape:connector-curvature="0"
       id="path7821"
       d="m 2397.363,423.21875 c 0,0 7.1374,-5.02569 7.1374,-17.11203 0,-12.08634 -11.0325,17.11203 -18.8228,17.11203 -7.7902,0 18.8228,-29.19837 18.8228,-41.294 0,-12.09562 -26.613,41.294 -34.4032,41.294 0.01,0 23.0485,-47.84375 23.0407,-47.84375 0.01,0 -38.6134,47.84375 -38.6212,47.84375 -7.7902,0 30.8309,-47.84375 23.0407,-47.84375 0.01,0 -38.6133,47.84375 -38.6211,47.84375 0.01,0 23.0485,-47.84375 23.0407,-47.84375 -7.7903,0 -30.831,47.84375 -38.6212,47.84375 -7.7902,0 30.8309,-47.84375 23.0407,-47.84375 0.01,0 -38.6134,47.84375 -38.6212,47.84375 0.01,0 23.0485,-47.84375 23.0407,-47.84375 -7.7902,0 -30.8309,47.84375 -38.6211,47.84375 0.01,0 23.0485,-47.84375 23.0407,-47.84375 -7.7902,0 -30.8309,47.84375 -38.6212,47.84375 0.01,0 23.0485,-47.84375 23.0407,-47.84375 0.01,0 -38.6133,47.84375 -38.6211,47.84375 -7.7903,0 30.8309,-47.84375 23.0407,-47.84375 -7.7903,0 -30.831,47.84375 -38.6212,47.84375 0.01,0 23.0485,-47.84375 23.0407,-47.84375 0.01,0 -38.6133,47.84375 -38.6211,47.84375 0.01,0 23.0485,-47.84375 23.0407,-47.84375 -7.7903,0 -30.831,47.84375 -38.6212,47.84375 -7.7902,0 30.8309,-47.84375 23.0407,-47.84375 0.01,0 -38.6134,47.84375 -38.6212,47.84375 0.01,0 23.0485,-47.84375 23.0407,-47.84375 0.01,0 -38.6133,47.84375 -38.6211,47.84375 0.01,0 23.0485,-47.84375 23.0407,-47.84375 -7.7902,0 -30.8309,47.84375 -38.6212,47.84375 0.01,0 23.0485,-47.84375 23.0407,-47.84375 0.01,0 -38.6133,47.84375 -38.6211,47.84375 -7.7903,0 30.8309,-47.84375 23.0407,-47.84375 0.01,0 -38.6134,47.84375 -38.6212,47.84375 0.01,0 23.0485,-47.84375 23.0407,-47.84375 0.01,0 -38.6133,47.84375 -38.6211,47.84375 -7.7903,0 30.8309,-47.84375 23.0407,-47.84375 0.01,0 -38.6134,47.84375 -38.6212,47.84375 0.01,0 23.0485,-47.84375 23.0407,-47.84375 0.01,0 -38.6134,47.84375 -38.6212,47.84375 -7.7902,0 30.831,-47.84375 23.0407,-47.84375 -7.7902,0 -30.8309,47.84375 -38.6211,47.84375 0.01,0 23.0485,-47.84375 23.0407,-47.84375 0.01,0 -38.6134,47.84375 -38.6212,47.84375 -7.7902,0 30.831,-47.84375 23.0407,-47.84375 0.01,0 -38.6133,47.84375 -38.6211,47.84375 -7.7903,0 30.8309,-47.84375 23.0407,-47.84375 -7.7903,0 -30.831,47.84375 -38.6212,47.84375 0.01,0 23.0485,-47.84375 23.0407,-47.84375 0.01,0 -38.6133,47.84375 -38.6211,47.84375 0.01,0 23.0485,-47.84375 23.0407,-47.84375 0.01,0 -38.6134,47.84375 -38.6212,47.84375 -7.7902,0 30.8309,-47.84375 23.0407,-47.84375 -7.7902,0 -30.8309,47.84375 -38.6212,47.84375 0.01,0 23.0485,-47.84375 23.0407,-47.84375 0.01,0 -38.6133,47.84375 -38.6211,47.84375 -7.7902,0 30.8309,-47.84375 23.0407,-47.84375 0.01,0 -38.6134,47.84375 -38.6212,47.84375 -7.7902,0 30.831,-47.84375 23.0407,-47.84375 -7.7902,0 -30.8309,47.84375 -38.6211,47.84375 0.01,0 23.0485,-47.84375 23.0407,-47.84375 0.01,0 -38.6134,47.84375 -38.6212,47.84375 -7.7902,0 30.8309,-47.84375 23.0407,-47.84375 -7.7902,0 -30.8309,47.84375 -38.6211,47.84375 -7.7903,0 30.8309,-47.84375 23.0407,-47.84375 -7.7903,0 -30.831,47.84375 -38.6212,47.84375 0.01,0 23.0485,-47.84375 23.0407,-47.84375 -7.7902,0 -30.8309,47.84375 -38.6212,47.84375 -7.7902,0 30.831,-47.84375 23.0407,-47.84375 0.01,0 -38.6133,47.84375 -38.6211,47.84375 0.01,0 23.0485,-47.84375 23.0407,-47.84375 0.01,0 -38.6134,47.84375 -38.6212,47.84375 0.01,0 23.0485,-47.84375 23.0407,-47.84375 -7.7902,0 -30.8309,47.84375 -38.6211,47.84375 0.01,0 23.0485,-47.84375 23.0407,-47.84375 -7.7903,0 -30.831,47.84375 -38.6212,47.84375 -7.7902,0 30.8309,-47.84375 23.0407,-47.84375 0.01,0 -38.6133,47.84375 -38.6211,47.84375 -7.7903,0 30.8309,-47.84375 23.0407,-47.84375 0.01,0 -38.6134,47.84375 -38.6212,47.84375 0.01,0 23.0485,-47.84375 23.0407,-47.84375 -7.7902,0 -30.8309,47.84375 -38.6212,47.84375 0.01,0 23.0486,-47.84375 23.0407,-47.84375 -7.7902,0 -30.8309,47.84375 -38.6211,47.84375 -7.7902,0 30.8309,-47.84375 23.0407,-47.84375 -7.7902,0 -30.8309,47.84375 -38.6212,47.84375 -7.7902,0 30.831,-47.84375 23.0407,-47.84375 -7.7902,0 -30.8309,47.84375 -38.6211,47.84375 0.01,0 23.0485,-47.84375 23.0407,-47.84375 -3.8916,0 -24.4584,31.93302 -44.0893,62.35931 -19.6299,30.42476 -38.3252,59.34736 -38.3252,53.31891 0,-12.05386 74.6243,-115.67822 66.834,-115.67822 -7.7902,0 -66.834,103.62436 -66.834,91.5613 0,-12.06307 58.7232,-91.06344 51.5741,-92.05916 -7.149,-0.99571 -51.5741,79.99609 -51.5741,67.9238 0,-12.0889 48,-74.48635 48,-86.57525 0,-0.012 -48,62.40945 -48,62.42143 0,0.0166 48,-86.62511 48,-86.64175 0,-0.012 -48,62.4574 -48,62.46941 0,-12.1075 48,-74.60091 48,-86.70841 0,-12.11214 -48,74.62965 -48,62.51751 0,-12.11683 48,-74.65839 48,-86.77521 0,-0.0121 -48,62.55364 -48,62.56571 0,0.0168 48,-86.82541 48,-86.84217 0,-12.13084 -48,74.74486 -48,62.61402 0,-12.13554 48,-74.77374 48,-86.90928 0,-0.0121 -48,62.65033 -48,62.66245 0,-12.14494 48,-74.83161 48,-86.97655 0,-12.14963 -48,74.86062 -48,62.71099 0,-12.15435 48,-74.88963 48,-87.04398 0,-0.0122 -48,62.74747 -48,62.75964 0,0.0169 48,-87.09464 48,-87.11156 0,-0.0122 -48,62.79621 -48,62.80841 0,0.017 48,-87.16235 48,-87.1793 0,-0.0122 -48,62.84505 -48,62.85729 0,0.017 48,-87.23021 48,-87.24721 0,-0.0123 -48,62.89402 -48,62.90629 0,-12.19224 48,-75.12303 48,-87.315266 0,-12.19698 -48,75.152376 -48,62.955396 0,-12.20176 48,-75.181723 48,-87.383483 0,-12.206517 -48,75.211133 -48,63.004623 0,-12.19419 49.5694,-77.68844 41.7791,-77.68844 -7.7902,0 -41.7791,65.49425 -41.7791,53.29054 0,-12.203721 33.9889,-53.29054 26.1987,-53.29054 -7.7903,0 -26.1987,41.086822 -26.1987,28.873553 0,-12.21327 18.4084,-28.873553 10.6182,-28.873553 -7.7895,0 -10.6186,10.548864 -10.6186,10.548864 m 46.8646,688.763636 c 0,0 1.1358,4.23697 1.1358,-7.72222 0,-11.95919 -5.0309,7.72222 -12.8211,7.72222 -7.7903,0 12.8211,-19.68141 12.8211,-31.64959 0,-11.96817 -20.6114,31.64959 -28.4016,31.64959 -7.7902,0 28.4016,-43.61776 28.4016,-55.59495 0,-11.97719 -36.1918,55.59495 -43.982,55.59495 -7.7903,0 43.982,-67.57214 43.982,-79.55836 0,-11.9746 -48,73.78216 -48,61.80756 0,-11.97912 48,-73.80993 48,-85.78905 0,-0.0117 -48,61.84249 -48,61.85414 0,-11.98815 48,-73.86559 48,-85.85374 0,-11.99267 -48,73.89348 -48,61.90082 0,0.0162 48,-85.90237 48,-85.9186 0,-0.0117 -48,61.93591 -48,61.94762 0,-12.00629 48,-73.97731 48,-85.98359 0,-0.0117 -48,61.98277 -48,61.99451 0,0.0163 48,-86.03243 48,-86.04873 0,-12.01993 -48,74.06143 -48,62.04151 0,-12.0245 48,-74.08952 48,-86.11402 0,-12.02905 -48,74.11767 -48,62.08862 0,0.0164 48,-86.16308 48,-86.17946 0,-12.0382 -48,74.17404 -48,62.13584 0,-12.04279 48,-74.20225 48,-86.24505 0,-0.0118 -48,62.17132 -48,62.18317 0,-12.05197 48,-74.25882 48,-86.31079 0,-0.0119 -48,62.21873 -48,62.2306 0,-12.04467 47.9996,-80.33785 47.9996,-80.33785 m -148.75,313.54408 c 0,0 3.3343,0.86077 -4.4559,0.86077 -7.7903,0 4.4563,-6.83801 4.4563,-18.80144 0,-11.96344 -12.2466,18.80144 -20.0368,18.80144 -7.7902,0 20.0368,-30.76487 20.0368,-42.73729 0,-11.97243 -27.827,42.73729 -35.6173,42.73729 -7.7902,0 35.6173,-54.70971 35.6173,-66.69114 0,-11.98143 -46.9534,72.13478 -47.6512,61.2475 -0.6978,-10.88727 47.6512,-73.22893 47.6512,-85.21938 0,-11.97884 -48,73.80828 -48,61.82944 0,-11.98336 48,-73.83604 48,-85.81939 0,-0.0117 -48,61.86434 -48,61.876 0,0.0162 48,-85.86788 48,-85.88407 0,-11.9969 -48,73.91957 -48,61.92267 0,0.0162 48,-85.93267 48,-85.94889 0,-0.0117 -48,61.95773 -48,61.96944 0,-12.01052 48,-74.00335 48,-86.01387 0,-0.0117 -48,62.00459 -48,62.01632 0,0.0163 48,-86.06268 48,-86.07898 0,-12.02414 -48,74.08746 -48,62.06331 0,0.0163 48,-86.12791 48,-86.14425 0,-0.0118 -48,62.09862 -48,62.1104 0,0.0164 48,-86.19329 48,-86.20966 0,-12.04241 -48,74.20001 -48,62.1576 0,0.0164 48,-86.25882 48,-86.27522 0,-12.05158 -48,74.25648 -48,62.2049 0,0.0164 48,-86.32449 48,-86.34094 0,-0.0119 -48,62.24046 -48,62.25233 0,0.0165 48,-86.39032 48,-86.40681 0,-0.0119 -48,62.28796 -48,62.29985 0,0.0165 48,-86.45629 48,-86.47282 0,-12.0792 -48,74.42668 -48,62.34748 0,-12.08383 48,-74.45514 48,-86.53898 0,-0.012 -48,62.38327 -48,62.39522 0,0.0166 48,-86.5887 48,-86.6053 0,-12.10969 -49.2451,76.45724 -57.0353,76.45724 -7.7902,0 57.0353,-88.56693 57.0353,-100.68594 0,-6.05869 -16.1765,19.11116 -33.3562,45.79834 -17.1792,26.68636 -35.3616,54.8876 -39.2595,54.8876 -7.7903,0 72.6157,-112.80495 72.6157,-124.9333 0,-0.012 -48,62.52708 -48,62.53912 0,-12.12101 48,-74.68417 48,-86.80518 0,-0.0121 -48,62.57524 -48,62.5873 0,0.0168 48,-86.85536 48,-86.87211 0,-0.0121 -48,62.6235 -48,62.63559 0,0.0168 48,-86.92241 48,-86.9392 0,-0.0121 -48,62.67189 -48,62.684 0,0.0168 48,-86.98961 48,-87.00644 0,-12.1538 -48,74.88633 -48,62.73253 0,-12.15853 48,-74.91532 48,-87.07385 0,-0.0122 -48,62.76899 -48,62.78116 0,0.0169 48,-87.12449 48,-87.1414 0,-0.0122 -48,62.81771 -48,62.82991 0,-12.17742 48,-75.0317 48,-87.20912 0,-0.0122 -48,62.86654 -48,62.87877 0,0.017 48,-87.26 48,-87.27699 0,-0.0123 -48,62.91548 -48,62.92774 0,-12.19639 48,-75.148626 48,-87.345015 0,-12.201132 -48,75.177965 -48,62.976825 0,-12.18883 48.7142,-76.311156 47.2856,-86.292279 -1.4286,-9.981122 -47.2856,74.103449 -47.2856,61.905109 0,-12.19834 42.6759,-66.89567 34.8857,-66.89567 -7.7903,0 -34.8857,54.69733 -34.8857,42.489466 0,-12.207866 27.0954,-42.489466 19.3052,-42.489466 -7.7902,0 -19.3052,30.281603 -19.3052,18.064187 0,-12.217415 7.6199,-18.064187 7.6199,-18.064187 m -15.0434,327.5 c 0,0 -24.9688,44.8125 -32.7727,44.8125 -7.7902,0 28.8776,-44.8125 21.0873,-44.8125 -7.7902,0 -28.8775,44.8125 -36.6678,44.8125 0.01,0 21.0942,-44.8125 21.0874,-44.8125 -7.7902,0 -28.8776,44.8125 -36.6678,44.8125 -7.7902,0 28.8776,-44.8125 21.0873,-44.8125 -7.7902,0 -28.8775,44.8125 -36.6678,44.8125 0.01,0 21.0942,-44.8125 21.0874,-44.8125 -7.7903,0 -28.8776,44.8125 -36.6678,44.8125 0.01,0 21.0942,-44.8125 21.0873,-44.8125 -7.7902,0 -28.8776,44.8125 -36.6678,44.8125 0.01,0 21.0942,-44.8125 21.0874,-44.8125 -7.7903,0 -28.8776,44.8125 -36.6678,44.8125 -7.7903,0 28.8775,-44.8125 21.0873,-44.8125 0.01,0 -36.661,44.8125 -36.6678,44.8125 -7.7902,0 28.8776,-44.8125 21.0874,-44.8125 -7.7903,0 -28.8776,44.8125 -36.6679,44.8125 0.01,0 21.0942,-44.8125 21.0874,-44.8125 -7.7902,0 -28.8776,44.8125 -36.6678,44.8125 -7.7902,0 28.8776,-44.8125 21.0873,-44.8125 0.01,0 -36.6609,44.8125 -36.6678,44.8125 0.01,0 21.0942,-44.8125 21.0874,-44.8125 -7.7902,0 -28.8776,44.8125 -36.6678,44.8125 -7.7903,0 28.8776,-44.8125 21.0873,-44.8125 0.01,0 -36.661,44.8125 -36.6678,44.8125 0.01,0 21.0942,-44.8125 21.0874,-44.8125 0.01,0 -36.661,44.8125 -36.6678,44.8125 -7.7903,0 28.8775,-44.8125 21.0873,-44.8125 0.01,0 -36.661,44.8125 -36.6678,44.8125 0.01,0 21.0942,-44.8125 21.0874,-44.8125 0.01,0 -36.661,44.8125 -36.6679,44.8125 -7.7902,0 28.8776,-44.8125 21.0874,-44.8125 -7.7902,0 -28.8776,44.8125 -36.6678,44.8125 0.01,0 21.0942,-44.8125 21.0873,-44.8125 0.01,0 -36.6609,44.8125 -36.6678,44.8125 -7.7902,0 28.8776,-44.8125 21.0874,-44.8125 0.01,0 -36.661,44.8125 -36.6678,44.8125 -7.7903,0 28.8776,-44.8125 21.0873,-44.8125 0.01,0 -36.6609,44.8125 -36.6678,44.8125 -7.7902,0 28.8776,-44.8125 21.0874,-44.8125 -7.7903,0 -28.8776,44.8125 -36.6678,44.8125 -7.7903,0 28.8775,-44.8125 21.0873,-44.8125 -7.7902,0 -28.8776,44.8125 -36.6678,44.8125 0.01,0 21.0942,-44.8125 21.0874,-44.8125 0.01,0 -36.661,44.8125 -36.6679,44.8125 -7.7902,0 28.8776,-44.8125 21.0874,-44.8125 0.01,0 -36.661,44.8125 -36.6678,44.8125 -7.7902,0 28.8776,-44.8125 21.0873,-44.8125 -7.7902,0 -28.8775,44.8125 -36.6678,44.8125 0.01,0 21.0942,-44.8125 21.0874,-44.8125 0.01,0 -36.661,44.8125 -36.6678,44.8125 -7.7903,0 28.8776,-44.8125 21.0873,-44.8125 0.01,0 -36.6609,44.8125 -36.6678,44.8125 -7.7902,0 28.8776,-44.8125 21.0874,-44.8125 -7.7903,0 -28.8776,44.8125 -36.6678,44.8125 0.01,0 21.0941,-44.8125 21.0873,-44.8125 0.01,0 -36.661,44.8125 -36.6678,44.8125 -7.7902,0 28.8776,-44.8125 21.0874,-44.8125 0.01,0 -36.661,44.8125 -36.6679,44.8125 0.01,0 21.0942,-44.8125 21.0874,-44.8125 0.01,0 -36.66098,44.8125 -36.66781,44.8125 0.007,0 21.09421,-44.8125 21.08731,-44.8125 -7.7902,0 -28.87754,44.8125 -36.66777,44.8125 0.007,0 21.09417,-44.8125 21.08737,-44.8125 0.01,0 -36.66099,44.8125 -36.66782,44.8125 -7.79023,0 28.87758,-44.8125 21.08735,-44.8125 0.007,0 -36.66098,44.8125 -36.66781,44.8125 -7.79023,0 28.87758,-44.8125 21.08735,-44.8125 0.007,0 -36.66097,44.8125 -36.66781,44.8125 -7.79023,0 28.87758,-44.8125 21.08735,-44.8125 -7.79023,0 -28.87758,44.8125 -36.6678,44.8125 -7.79023,0 28.87757,-44.8125 21.08735,-44.8125 -7.79023,0 -28.87758,44.8125 -36.66781,44.8125 -7.79023,0 28.87758,-44.8125 21.08735,-44.8125 -7.79023,0 -28.87758,44.8125 -36.66781,44.8125 -7.79023,0 28.87758,-44.8125 21.08735,-44.8125 0.007,0 -36.66097,44.8125 -36.66781,44.8125 -7.79022,0 28.87758,-44.8125 21.08736,-44.8125 -7.79023,0 -28.87758,44.8125 -36.66781,44.8125 -7.79023,0 28.87758,-44.8125 21.08735,-44.8125 -7.79023,0 -28.87758,44.8125 -36.66781,44.8125 0.007,0 21.09419,-44.8125 21.08735,-44.8125 0.007,0 -36.66097,44.8125 -36.66781,44.8125 0.007,0 21.09419,-44.8125 21.08735,-44.8125 0.007,0 -36.66097,44.8125 -36.6678,44.8125 0.007,0 21.09418,-44.8125 21.08735,-44.8125 -7.79023,0 -29.48079,45.75019 -29.48079,33.66556 0,-12.08464 21.69056,-33.66556 13.90033,-33.66556 -7.79023,0 -13.90033,21.58092 -13.90033,9.48702 0,-12.0939 2.21499,-9.48702 2.21499,-9.48702"
       style="color:#000000;font-style:normal;font-variant:normal;font-weight:normal;font-stretch:normal;font-size:medium;line-height:normal;font-family:Sans;-inkscape-font-specification:Sans;text-indent:0;text-align:start;text-decoration:none;text-decoration-line:none;letter-spacing:normal;word-spacing:normal;text-transform:none;writing-mode:lr-tb;direction:ltr;baseline-shift:baseline;text-anchor:start;display:inline;overflow:visible;visibility:visible;fill:none;stroke:#000000;stroke-width:4;stroke-miterlimit:4;stroke-dasharray:none;stroke-opacity:1;marker:none;enable-background:accumulate"
       sodipodi:nodetypes="cccccccccccccccccccccccccccccccccc" />
  </g>
</svg>
