<?xml version="1.0" encoding="UTF-8" standalone="no"?>
<!-- Created with Inkscape (http://www.inkscape.org/) -->

<svg
   xmlns:dc="http://purl.org/dc/elements/1.1/"
   xmlns:cc="http://creativecommons.org/ns#"
   xmlns:rdf="http://www.w3.org/1999/02/22-rdf-syntax-ns#"
   xmlns:svg="http://www.w3.org/2000/svg"
   xmlns="http://www.w3.org/2000/svg"
   xmlns:sodipodi="http://sodipodi.sourceforge.net/DTD/sodipodi-0.dtd"
   xmlns:inkscape="http://www.inkscape.org/namespaces/inkscape"
   width="3200"
   height="800"
   id="svg6586"
   version="1.1"
   inkscape:version="0.48.1 r9760"
   sodipodi:docname="New document 28">
  <sodipodi:namedview
     id="base"
     pagecolor="#ffffff"
     bordercolor="#666666"
     borderopacity="1.0"
     inkscape:pageopacity="0.0"
     inkscape:pageshadow="2"
     inkscape:zoom="0.3946875"
     inkscape:cx="1597.4663"
     inkscape:cy="400"
     inkscape:document-units="px"
     inkscape:current-layer="1-default"
     showgrid="false"
     inkscape:window-width="1676"
     inkscape:window-height="1006"
     inkscape:window-x="0"
     inkscape:window-y="0"
     inkscape:window-maximized="1" />
  <defs
     id="defs6588">
    <inkscape:path-effect
       back_thickness="0.25"
       front_thickness="1"
       stroke_width_bottom="1"
       stroke_width_top="1"
       fat_output="false"
       bottom_smth_variation="0;1"
       top_smth_variation="0;1"
       scale_tb="2"
       scale_tf="2"
       scale_bb="2"
       scale_bf="2"
       top_tgt_variation="0;1"
       bottom_tgt_variation="0;1"
       top_edge_variation="0;1"
       bottom_edge_variation="0;1"
       bender="1604.5625,399.3125 , 5,0"
       do_bend="true"
       growth="0"
       dist_rdm="0;1"
       direction="1604.5625,394.3125 , 18.921244,17.73555"
       is_visible="true"
       id="path-effect7154"
       effect="rough_hatches" />
  </defs>
  <metadata
     id="metadata6591">
    <rdf:RDF>
      <cc:Work
         rdf:about="">
        <dc:format>image/svg+xml</dc:format>
        <dc:type
           rdf:resource="http://purl.org/dc/dcmitype/StillImage" />
        <dc:title></dc:title>
      </cc:Work>
    </rdf:RDF>
  </metadata>
  <g
     id="1-default"
     inkscape:groupmode="layer"
     inkscape:label="1-default">
    <path
       inkscape:connector-curvature="0"
       id="path6182"
       d="m 1656.3438,9.65625 0,24 0,731.3125 0,24 48,0 0,-24 0,-341.75 1.9062,0 673.5312,0 24.7188,0 0,-47.84375 -24.7188,0 -673.5312,0 -1.9062,0 0,-341.71875 0,-24 -48,0 z m -148.75,159.75 0,24 0,183.5 -10.0938,0 -670.0625,0 -22.8125,0 0,44.8125 22.8125,0 670.0625,0 10.0938,0 0,183.5 0,24 48,0 0,-24 0,-411.8125 0,-24 -48,0 z"
       style="font-size:medium;font-style:normal;font-variant:normal;font-weight:normal;font-stretch:normal;text-indent:0;text-align:start;text-decoration:none;line-height:normal;letter-spacing:normal;word-spacing:normal;text-transform:none;direction:ltr;block-progression:tb;writing-mode:lr-tb;text-anchor:start;baseline-shift:baseline;color:#000000;fill:none;fill-opacity:1;stroke:#000000;stroke-width:4;marker:none;visibility:visible;display:inline;overflow:visible;enable-background:accumulate;font-family:Sans;-inkscape-font-specification:Sans;stroke-opacity:1;stroke-miterlimit:4;stroke-dasharray:none" />
    <path
       inkscape:original-d="m 1658.3438,33.65625 c 0,251.10417 -1e-4,502.20833 0,753.3125 14.6666,0 29.3333,0 44,0 0,-121.91667 0,-243.83333 0,-365.75 233.3854,0 466.7708,0 700.1562,0 0,-14.61458 0,-29.22917 0,-43.84375 -233.3854,0 -466.7708,0 -700.1562,0 -1e-4,-121.90625 0,-243.8125 0,-365.71875 -14.6667,0 -29.3334,0 -44,0 0,7.333333 0,14.666667 0,22 z m -148.75,159.75 c 0,61.83333 -1e-4,123.66667 0,185.5 -234.323,0 -468.6459,0 -702.9688,0 0,13.60417 0,27.20833 0,40.8125 234.3229,0 468.6458,0 702.9688,0 0,69.16667 0,138.33333 0,207.5 14.6666,0 29.3333,0 44,0 0,-151.9375 -1e-4,-303.875 0,-455.8125 -14.6667,0 -29.3334,0 -44,0 0,7.33333 -1e-4,14.66667 0,22 z"
       inkscape:path-effect="#path-effect7154"
       inkscape:connector-curvature="0"
       id="path7148"
       d="m 2402.5,416.56094 c 0,0 -0.8129,4.65781 -7.922,4.65781 -7.1091,0 7.9221,-8.44857 7.9221,-16.03213 0,-7.58356 -15.0312,16.03213 -22.1402,16.03213 -7.1091,0 22.1402,-23.61569 22.1402,-31.20129 0,-7.5856 -29.2493,31.20129 -36.3584,31.20129 -7.1091,0 39.3211,-41.9492 33.3955,-43.21223 -5.9257,-1.26304 -40.5046,43.21223 -47.6137,43.21223 -7.109,0 41.0963,-43.84375 33.9872,-43.84375 -7.109,0 -41.0962,43.84375 -48.2053,43.84375 -7.1091,0 41.0963,-43.84375 33.9872,-43.84375 -7.1091,0 -41.0963,43.84375 -48.2054,43.84375 -7.1091,0 41.0963,-43.84375 33.9872,-43.84375 -7.1091,0 -41.0963,43.84375 -48.2053,43.84375 -7.1091,0 41.0962,-43.84375 33.9872,-43.84375 -7.1091,0 -41.0963,43.84375 -48.2054,43.84375 -7.1091,0 41.0963,-43.84375 33.9872,-43.84375 -7.1091,0 -41.0963,43.84375 -48.2054,43.84375 -7.109,0 41.0963,-43.84375 33.9872,-43.84375 -7.109,0 -41.0962,43.84375 -48.2053,43.84375 -7.1091,0 41.0963,-43.84375 33.9872,-43.84375 -7.1091,0 -41.0963,43.84375 -48.2054,43.84375 -7.1091,0 41.0963,-43.84375 33.9872,-43.84375 -7.1091,0 -41.0963,43.84375 -48.2053,43.84375 -7.1091,0 41.0962,-43.84375 33.9872,-43.84375 -7.1091,0 -41.0963,43.84375 -48.2054,43.84375 -7.1091,0 41.0963,-43.84375 33.9872,-43.84375 -7.1091,0 -41.0963,43.84375 -48.2054,43.84375 -7.109,0 41.0963,-43.84375 33.9872,-43.84375 -7.109,0 -41.0962,43.84375 -48.2053,43.84375 -7.1091,0 41.0963,-43.84375 33.9872,-43.84375 -7.1091,0 -41.0963,43.84375 -48.2054,43.84375 -7.1091,0 41.0963,-43.84375 33.9872,-43.84375 -7.1091,0 -41.0963,43.84375 -48.2054,43.84375 -7.109,0 41.0963,-43.84375 33.9873,-43.84375 -7.1091,0 -41.0963,43.84375 -48.2054,43.84375 -7.1091,0 41.0963,-43.84375 33.9872,-43.84375 -7.1091,0 -41.0963,43.84375 -48.2054,43.84375 -7.1091,0 41.0963,-43.84375 33.9872,-43.84375 -7.109,0 -41.0963,43.84375 -48.2053,43.84375 -7.1091,0 41.0963,-43.84375 33.9872,-43.84375 -7.1091,0 -41.0963,43.84375 -48.2054,43.84375 -7.1091,0 41.0963,-43.84375 33.9872,-43.84375 -7.1091,0 -41.0963,43.84375 -48.2054,43.84375 -7.109,0 41.0963,-43.84375 33.9873,-43.84375 -7.1091,0 -41.0963,43.84375 -48.2054,43.84375 -7.1091,0 41.0963,-43.84375 33.9872,-43.84375 -7.1091,0 -41.0963,43.84375 -48.2054,43.84375 -7.1091,0 41.0963,-43.84375 33.9872,-43.84375 -7.1091,0 -41.0963,43.84375 -48.2053,43.84375 -7.1091,0 41.0962,-43.84375 33.9872,-43.84375 -7.1091,0 -41.0963,43.84375 -48.2054,43.84375 -7.1091,0 41.0963,-43.84375 33.9872,-43.84375 -7.1091,0 -41.0963,43.84375 -48.2054,43.84375 -7.109,0 41.0963,-43.84375 33.9872,-43.84375 -7.109,0 -41.0962,43.84375 -48.2053,43.84375 -7.1091,0 41.0963,-43.84375 33.9872,-43.84375 -7.1091,0 -41.0963,43.84375 -48.2054,43.84375 -7.1091,0 41.0963,-43.84375 33.9872,-43.84375 -7.1091,0 -41.0963,43.84375 -48.2053,43.84375 -7.1091,0 41.0962,-43.84375 33.9872,-43.84375 -7.1091,0 -41.0963,43.84375 -48.2054,43.84375 -7.1091,0 41.0963,-43.84375 33.9872,-43.84375 -7.1091,0 -41.0963,43.84375 -48.2054,43.84375 -7.109,0 41.0963,-43.84375 33.9872,-43.84375 -7.109,0 -41.0962,43.84375 -48.2053,43.84375 -7.1091,0 41.0963,-43.84375 33.9872,-43.84375 -7.1091,0 -41.0963,43.84375 -48.2054,43.84375 -7.1091,0 41.0963,-43.84375 33.9872,-43.84375 -7.1091,0 -41.0963,43.84375 -48.2053,43.84375 -7.1091,0 41.0962,-43.84375 33.9872,-43.84375 -7.1091,0 -41.0963,43.84375 -48.2054,43.84375 -7.1091,0 41.0963,-43.84375 33.9872,-43.84375 -7.1091,0 -41.0963,43.84375 -48.2054,43.84375 -7.109,0 41.0963,-43.84375 33.9872,-43.84375 -7.109,0 -41.0962,43.84375 -48.2053,43.84375 -7.1091,0 41.0963,-43.84375 33.9872,-43.84375 -7.1091,0 -41.0963,43.84375 -48.2054,43.84375 -7.1091,0 41.0963,-43.84375 33.9872,-43.84375 -7.1091,0 -41.0963,43.84375 -48.2053,43.84375 -7.1091,0 41.0962,-43.84375 33.9872,-43.84375 -7.1091,0 -41.0963,43.84375 -48.2054,43.84375 -7.1091,0 41.0963,-43.84375 33.9872,-43.84375 -7.1091,0 -41.0963,43.84375 -48.2054,43.84375 -7.109,0 41.0963,-43.84375 33.9872,-43.84375 -7.109,0 -41.0962,43.84375 -48.2053,43.84375 -7.1091,0 41.0963,-43.84375 33.9872,-43.84375 -7.1091,0 -41.0963,43.84375 -48.2054,43.84375 -7.1091,0 41.0963,-43.84375 33.9872,-43.84375 -7.1091,0 -41.0963,43.84375 -48.2053,43.84375 -7.1091,0 41.0962,-43.84375 33.9872,-43.84375 -7.1091,0 -41.0963,43.84375 -48.2054,43.84375 -7.1091,0 41.0963,-43.84375 33.9872,-43.84375 -7.1091,0 -41.0963,43.84375 -48.2054,43.84375 -7.109,0 41.0963,-43.84375 33.9872,-43.84375 -7.109,0 -41.0962,43.84375 -48.2053,43.84375 -7.1091,0 41.0963,-43.84375 33.9872,-43.84375 -7.1091,0 -41.0963,43.84375 -48.2054,43.84375 -7.1091,0 41.0963,-43.84375 33.9872,-43.84375 -3.5545,0 -25.4742,23.39383 -46.5234,45.84068 -21.0491,22.44686 -41.2262,43.94675 -41.2262,40.15888 0,-3.78787 20.1737,-25.28776 39.4449,-45.84068 19.2712,-20.55292 37.6411,-40.15888 34.0866,-40.15888 -3.5546,0 -21.9251,19.60596 -39.4196,38.26469 -17.4946,18.65874 -34.1119,36.37025 -34.1119,32.58136 0,-7.57777 66.4224,-70.84605 59.3133,-70.84605 -7.1091,0 -59.3133,63.26828 -59.3133,55.68847 0,-7.57982 50.9746,-54.37607 46.3248,-57.00087 -4.6498,-2.6248 -46.3248,49.42105 -46.3248,41.8392 0,-7.58185 44,-46.94517 44,-54.53436 0,-7.58918 -44,46.95251 -44,39.36862 0,-7.58389 44,-46.9578 44,-54.54904 0,-7.59123 -44,46.96515 -44,39.37922 0,-7.58594 44,-46.97045 44,-54.56374 0,-7.59328 -44,46.9778 -44,39.38983 0,-7.58798 44,-46.98311 44,-54.57845 0,-7.59533 -44,46.99047 -44,39.40044 0,-7.59002 44,-46.99577 44,-54.59316 0,-7.59738 -44,47.00319 -44,39.41109 0,-7.59211 44,-47.00847 44,-54.60791 0,-7.59945 -44,47.01582 -44,39.4217 0,-7.59412 44,-47.02115 44,-54.62264 0,-7.6015 -44,47.02852 -44,39.43235 0,-7.59617 44,-47.03385 44,-54.6374 0,-7.60356 -44,47.04123 -44,39.44301 0,-7.59822 44,-47.04657 44,-54.65218 0,-7.60561 -44,47.05396 -44,39.45368 0,-7.60027 44,-47.05929 44,-54.66696 0,-7.60768 -44,47.06669 -44,39.46435 0,-7.60233 44,-47.07203 44,-54.68176 0,-7.60973 -44,47.07948 -44,39.47506 0,-7.60442 44,-47.08479 44,-54.69659 0,-7.6118 -44,47.09219 -44,39.48574 0,-7.60645 44,-47.09754 44,-54.7114 0,-7.61387 -44,47.10495 -44,39.49644 0,-7.60851 44,-47.11031 44,-54.72624 0,-7.61593 -44,47.11773 -44,39.50716 0,-7.61057 44,-47.12309 44,-54.74109 0,-7.61799 -44,47.13052 -44,39.51789 0,-7.61264 44,-47.13588 44,-54.75595 0,-7.62007 -44,47.14331 -44,39.52861 0,-7.61469 44,-47.14868 44,-54.77082 0,-7.62214 -44,47.15611 -44,39.53937 0,-7.61673 44,-47.16151 44,-54.78572 0,-7.624217 -44,47.16894 -44,39.55011 0,-7.61884 44,-47.174327 44,-54.800616 0,-7.626288 -44,47.181776 -44,39.560866 0,-7.6209 44,-47.187154 44,-54.815518 0,-7.628365 -44,47.194618 -44,39.571638 0,-7.62298 44,-47.200003 44,-54.830446 0,-7.630443 -44,47.207466 -44,39.582413 0,-7.625053 44,-47.212855 44,-54.845378 0,-7.632523 -44,47.220325 -44,39.593197 0,-7.627129 44,-47.225719 44,-54.860324 0,-7.634604 -44,47.233196 -44,39.60399 0,-7.629206 45.07,-48.388089 42.9299,-53.725784 -2.14,-5.3376956 -42.9299,46.096595 -42.9299,38.465278 0,-7.631318 38.3053,-41.134126 31.1962,-41.134126 -7.1091,0 -31.1962,33.502906 -31.1962,25.869508 0,-7.633397 24.0871,-25.869508 16.9781,-25.869508 -7.1091,0 -16.9781,18.236127 -16.9781,10.600679 0,-7.635448 6.3144,-10.600679 6.3144,-10.600679 m 37.6855,771.34784 c 0,0 -0.1871,3.96466 -7.2962,3.96466 -7.1091,0 7.2963,-7.73093 7.2963,-15.26549 0,-7.53455 -14.4054,15.26549 -21.5145,15.26549 -7.109,0 21.5145,-22.80004 21.5145,-30.3366 0,-7.53655 -28.6235,30.3366 -35.7326,30.3366 -7.1091,0 35.7326,-37.87315 35.7326,-45.41171 0,-7.53856 -44,46.63948 -44,39.10612 0,-7.53336 44,-46.64468 44,-54.18525 0,-7.54057 -44,46.65189 -44,39.11653 0,-7.53537 44,-46.6571 44,-54.19967 0,-7.54258 -44,46.6643 -44,39.12694 0,-7.53737 44,-46.66952 44,-54.2141 0,-7.54458 -44,46.67673 -44,39.13736 0,-7.53937 44,-46.68194 44,-54.22854 0,-7.54659 -44,46.68917 -44,39.14779 0,-7.54138 44,-46.69438 44,-54.24298 0,-7.54861 -44,46.7016 -44,39.15822 0,-7.54339 44,-46.70683 44,-54.25745 0,-7.55062 -44,46.71406 -44,39.16866 0,-7.54539 44,-46.71928 44,-54.27192 0,-7.55263 -44,46.72653 -44,39.17912 0,-7.54741 44,-46.73175 44,-54.2864 0,-7.55466 -44,46.73899 -44,39.18957 0,-7.54942 44,-46.74423 44,-54.3009 0,-7.55667 -44,46.75148 -44,39.20005 0,-7.55144 44,-46.75672 44,-54.31541 0,-7.55869 -44,46.76397 -44,39.21052 0,-7.55345 44,-46.76921 44,-54.32993 0,-7.56071 -44,46.77648 -44,39.22101 0,-7.55547 44,-46.78172 44,-54.34446 0,-7.56273 -44,46.78899 -44,39.2315 0,-7.55749 44,-46.79423 44,-54.359 0,-7.56476 -44,46.80151 -44,39.242 0,-7.55951 44,-46.80676 44,-54.37355 0,-7.56679 -44,46.81404 -44,39.2525 0,-7.56153 44,-46.81929 44,-54.3881 0,-7.56882 -44,46.82657 -44,39.26301 0,-7.56356 44,-46.83183 44,-54.40268 0,-7.57085 -44,46.83912 -44,39.27354 0,-7.56558 44,-46.84439 44,-54.41727 0,-7.57288 -44,46.85169 -44,39.28408 0,-7.56762 44,-46.85696 44,-54.43187 0,-7.57491 -44,46.86425 -44,39.29461 0,-7.56964 44,-46.86952 44,-54.44647 0,-7.57695 -44,46.87683 -44,39.30516 0,-7.57167 44,-46.88211 44,-54.46109 0,-7.57899 -44,46.88942 -44,39.31572 0,-7.57371 43.9999,-50.68522 43.9999,-50.68522 m -148.75,195.33685 c 0,0 -0.2792,4.04311 -7.3882,4.04311 -7.1091,0 7.3885,-7.79147 7.3885,-15.29392 0,-7.50244 -14.4976,15.29392 -21.6067,15.29392 -7.1091,0 21.6067,-22.79636 21.6067,-30.30453 0,-7.50816 -28.7158,30.30453 -35.8249,30.30453 -7.109,0 35.8249,-37.81269 35.8249,-45.3266 0,-3.75695 -10.9856,7.85608 -21.9856,19.47097 -11,11.61488 -22.0144,23.23163 -22.0144,19.48211 0,-3.74953 11.0103,-15.36627 22.0103,-26.98559 11,-11.61932 21.9897,-23.24122 21.9897,-27.00105 0,-3.75983 -10.9855,7.86207 -21.9855,19.48583 -11,11.62376 -22.0145,23.24938 -22.0145,19.497 0,-3.75238 11.0103,-15.378 22.0103,-27.0062 11,-11.62821 21.9897,-23.25899 21.9897,-27.0217 0,-3.76271 -10.9855,7.86807 -21.9855,19.50072 -11,11.63265 -22.0145,23.26717 -22.0145,19.51193 0,-3.75525 11.0103,-15.38977 22.0103,-27.02687 11,-11.63711 21.9897,-23.2768 21.9897,-27.0424 0,-3.7656 -10.9855,7.8741 -21.9855,19.51566 -11,11.64156 -22.0145,23.285 -22.0145,19.52688 0,-3.75812 11.0103,-15.40155 22.0103,-27.04758 11,-11.64603 21.9897,-23.29465 21.9897,-27.06314 0,-3.76849 -10.9855,7.88013 -21.9855,19.53062 -11,11.6505 -22.0145,23.30287 -22.0145,19.54187 0,-3.76099 11.0103,-15.41336 22.0103,-27.06833 11,-11.65497 21.9897,-23.31254 21.9897,-27.08394 0,-3.7714 -10.9855,7.88617 -21.9854,19.54562 -11,11.65945 -22.0146,23.32078 -22.0146,19.5569 0,-3.76388 11.0103,-15.42521 22.0103,-27.08914 11,-11.66394 21.9897,-23.33047 21.9897,-27.10478 0,-3.7743 -10.9854,7.89224 -21.9854,19.56066 -11,11.66842 -22.0146,23.33873 -22.0146,19.57195 0,-3.76677 11.0103,-15.43707 22.0103,-27.10999 11,-11.67292 21.9897,-23.34845 21.9897,-27.12567 0,-3.77722 -10.9854,7.89831 -21.9854,19.57573 -11,11.67742 -22.0146,23.35672 -22.0146,19.58705 0,-3.76967 11.0104,-15.44897 22.0104,-27.1309 11,-11.68192 21.9896,-23.36646 21.9896,-27.1466 0,-3.78014 -10.9854,7.9044 -21.9854,19.59083 -11,11.68643 -22.0146,23.37476 -22.0146,19.60218 0,-3.77257 11.0104,-15.4609 22.0104,-27.15185 11,-11.69094 21.9896,-23.38452 21.9896,-27.16759 0,-3.78307 -10.9854,7.9105 -21.9854,19.60597 -11,11.69547 -22.0146,23.39284 -22.0146,19.61735 0,-3.77549 11.0104,-15.47285 22.0104,-27.17285 11,-11.69999 21.9896,-23.40262 21.9896,-27.18863 0,-3.786 -10.9854,7.91662 -21.9853,19.62115 -11,11.70453 -22.0147,23.41095 -22.0147,19.63255 0,-3.77841 11.0104,-15.48483 22.0104,-27.1939 11,-11.70906 21.9896,-23.42076 21.9896,-27.20971 0,-3.78895 -10.9853,7.92275 -21.9853,19.63635 -11,11.71361 -22.0147,23.42912 -22.0147,19.64779 0,-3.78133 11.0104,-15.49684 22.0104,-27.21499 11,-11.71816 21.9896,-23.43895 21.9896,-27.23085 0,-3.7919 -10.9853,7.92889 -21.9853,19.6516 -11,11.7227 -22.0147,23.44732 -22.0147,19.66306 0,-3.78426 11.0104,-15.50888 22.0104,-27.23614 11,-11.72726 21.9896,-23.45718 21.9896,-27.25203 0,-3.79486 -10.9853,7.93505 -21.9853,19.66688 -11,11.73182 -22.0147,23.46556 -22.0147,19.67836 0,-3.7872 11.0105,-15.52094 22.0105,-27.25733 10.9999,-11.7364 21.9895,-23.47545 21.9895,-27.27327 0,-3.79782 -11.5456,8.5407 -23.9964,21.82866 -12.4507,13.28797 -25.8093,27.52539 -29.3638,27.52539 -3.5546,0 9.8053,-14.23742 24.0346,-29.42504 14.2293,-15.18762 29.3256,-31.32544 29.3256,-35.12623 0,-3.80079 -15.0889,12.33703 -31.094,29.42504 -16.0051,17.08802 -32.9298,35.12623 -36.4844,35.12623 -3.5545,0 13.3719,-18.03821 31.1559,-37.02737 17.784,-18.98915 36.4225,-38.92925 36.4225,-42.73301 0,-3.80377 -18.6294,16.13632 -38.1888,37.02736 -19.5595,20.89104 -40.0532,42.73302 -43.6077,42.73302 -3.5546,0 6.0192,-10.20313 15.5829,-20.40625 9.5638,-10.20312 19.1175,-20.40625 15.563,-20.40625 -3.5546,0 -13.1083,10.20313 -22.672,20.40625 -9.5638,10.20313 -19.1376,20.40625 -22.6921,20.40625 -3.5545,0 6.0192,-10.20313 15.583,-20.40625 9.5637,-10.20313 19.1175,-20.40625 15.5629,-20.40625 -3.5545,0 -13.1083,10.20313 -22.672,20.40625 -9.5638,10.20313 -19.1375,20.40625 -22.6921,20.40625 -3.5545,0 6.0193,-10.20312 15.583,-20.40625 9.5638,-10.20312 19.1175,-20.40625 15.563,-20.40625 -3.5546,0 -13.1083,10.20313 -22.6721,20.40625 -9.5637,10.20312 -19.1375,20.40625 -22.692,20.40625 -3.5546,0 6.0192,-10.20312 15.583,-20.40625 9.5637,-10.20312 19.1174,-20.40625 15.5629,-20.40625 -3.5545,0 -13.1083,10.20313 -22.672,20.40625 -9.5638,10.20312 -19.1375,20.40625 -22.6921,20.40625 -3.5545,0 6.0192,-10.20313 15.583,-20.40625 9.5637,-10.20313 19.1175,-20.40625 15.5629,-20.40625 -3.5545,0 -13.1082,10.20312 -22.672,20.40625 -9.5637,10.20312 -19.1375,20.40625 -22.692,20.40625 -3.5546,0 6.0192,-10.20313 15.5829,-20.40625 9.5638,-10.20313 19.1175,-20.40625 15.563,-20.40625 -3.5546,0 -13.1083,10.20312 -22.672,20.40625 -9.5638,10.20312 -19.1376,20.40625 -22.6921,20.40625 -3.5545,0 6.0192,-10.20313 15.583,-20.40625 9.5637,-10.20313 19.1175,-20.40625 15.5629,-20.40625 -3.5545,0 -13.1083,10.20313 -22.672,20.40625 -9.5638,10.20313 -19.1375,20.40625 -22.6921,20.40625 -3.5545,0 6.0193,-10.20312 15.583,-20.40625 9.5638,-10.20312 19.1175,-20.40625 15.563,-20.40625 -3.5546,0 -13.1083,10.20312 -22.6721,20.40625 -9.5637,10.20312 -19.1375,20.40625 -22.692,20.40625 -3.5546,0 6.0192,-10.20312 15.583,-20.40625 9.5637,-10.20312 19.1174,-20.40625 15.5629,-20.40625 -3.5545,0 -13.1083,10.20313 -22.672,20.40625 -9.5638,10.20312 -19.1375,20.40625 -22.6921,20.40625 -3.5545,0 6.0192,-10.20312 15.583,-20.40625 9.5637,-10.20313 19.1175,-20.40625 15.5629,-20.40625 -3.5545,0 -13.1082,10.20312 -22.672,20.40625 -9.5637,10.20312 -19.1375,20.40625 -22.692,20.40625 -3.5546,0 6.0192,-10.20313 15.5829,-20.40625 9.5638,-10.20312 19.1175,-20.40625 15.563,-20.40625 -3.5546,0 -13.1083,10.20312 -22.672,20.40625 -9.5638,10.20312 -19.1376,20.40625 -22.6921,20.40625 -3.5545,0 6.0192,-10.20312 15.583,-20.40625 9.5637,-10.20312 19.1175,-20.40625 15.5629,-20.40625 -3.5545,0 -13.1083,10.20313 -22.672,20.40625 -9.5638,10.20313 -19.1375,20.40625 -22.6921,20.40625 -3.5545,0 6.0193,-10.20312 15.583,-20.40625 9.5638,-10.20312 19.1175,-20.40625 15.563,-20.40625 -3.5546,0 -13.1083,10.20313 -22.6721,20.40625 -9.5637,10.20312 -19.1375,20.40625 -22.692,20.40625 -3.5546,0 6.0192,-10.20312 15.583,-20.40625 9.5637,-10.20312 19.1174,-20.40625 15.5629,-20.40625 -3.5545,0 -13.1083,10.20313 -22.672,20.40625 -9.5638,10.20313 -19.1375,20.40625 -22.6921,20.40625 -3.5545,0 6.0192,-10.20312 15.583,-20.40625 9.5637,-10.20312 19.1175,-20.40625 15.5629,-20.40625 -3.5545,0 -13.1082,10.20312 -22.672,20.40625 -9.5637,10.20312 -19.1375,20.40625 -22.692,20.40625 -3.5546,0 6.0192,-10.20313 15.5829,-20.40625 9.5638,-10.20313 19.1175,-20.40625 15.563,-20.40625 -3.5546,0 -13.1083,10.20312 -22.672,20.40625 -9.5638,10.20312 -19.1376,20.40625 -22.6921,20.40625 -3.5545,0 6.0192,-10.20313 15.583,-20.40625 9.5637,-10.20313 19.1174,-20.40625 15.5629,-20.40625 -3.5545,0 -13.1083,10.20312 -22.672,20.40625 -9.5638,10.20312 -19.1375,20.40625 -22.6921,20.40625 -3.5545,0 6.0193,-10.20313 15.583,-20.40625 9.5638,-10.20313 19.1175,-20.40625 15.5629,-20.40625 -3.5545,0 -13.1082,10.20312 -22.672,20.40625 -9.5637,10.20312 -19.1375,20.40625 -22.692,20.40625 -3.5546,0 6.0192,-10.20313 15.583,-20.40625 9.5637,-10.20312 19.1174,-20.40625 15.5629,-20.40625 -3.5546,0 -13.1083,10.20313 -22.672,20.40625 -9.5638,10.20312 -19.1375,20.40625 -22.6921,20.40625 -3.5545,0 6.0192,-10.20313 15.583,-20.40625 9.5637,-10.20313 19.1175,-20.40625 15.5629,-20.40625 -3.5545,0 -13.1082,10.20313 -22.672,20.40625 -9.5637,10.20312 -19.1375,20.40625 -22.692,20.40625 -3.5546,0 6.0192,-10.20313 15.5829,-20.40625 9.5638,-10.20313 19.1175,-20.40625 15.563,-20.40625 -3.5546,0 -13.1083,10.20312 -22.672,20.40625 -9.5638,10.20312 -19.1376,20.40625 -22.6921,20.40625 -3.5545,0 6.0192,-10.20313 15.583,-20.40625 9.5637,-10.20313 19.1174,-20.40625 15.5629,-20.40625 -3.5545,0 -13.1083,10.20313 -22.672,20.40625 -9.5638,10.20313 -19.1375,20.40625 -22.6921,20.40625 -3.5545,0 6.0193,-10.20312 15.583,-20.40625 9.5638,-10.20312 19.1175,-20.40625 15.5629,-20.40625 -3.5545,0 -13.1082,10.20313 -22.672,20.40625 -9.5637,10.20312 -19.1375,20.40625 -22.692,20.40625 -3.5546,0 6.0192,-10.20313 15.5829,-20.40625 9.5638,-10.20313 19.1175,-20.40625 15.563,-20.40625 -3.5546,0 -13.1083,10.20313 -22.672,20.40625 -9.5638,10.20313 -19.1376,20.40625 -22.6921,20.40625 -3.5545,0 6.0192,-10.20312 15.583,-20.40625 9.5637,-10.20312 19.1175,-20.40625 15.5629,-20.40625 -3.5545,0 -13.1082,10.20313 -22.672,20.40625 -9.5637,10.20313 -19.1375,20.40625 -22.6921,20.40625 -3.5545,0 6.0193,-10.20313 15.583,-20.40625 9.5638,-10.20313 19.1175,-20.40625 15.563,-20.40625 -3.5546,0 -13.1083,10.20312 -22.6721,20.40625 -9.5637,10.20312 -19.1375,20.40625 -22.692,20.40625 -3.5546,0 6.0192,-10.20312 15.583,-20.40625 9.5637,-10.20313 19.1174,-20.40625 15.5629,-20.40625 -3.5545,0 -13.1083,10.20312 -22.672,20.40625 -9.5638,10.20313 -19.1375,20.40625 -22.6921,20.40625 -3.5545,0 6.0193,-10.20313 15.583,-20.40625 9.5638,-10.20312 19.1175,-20.40625 15.5629,-20.40625 -3.5545,0 -13.1082,10.20313 -22.672,20.40625 -9.5637,10.20312 -19.1375,20.40625 -22.692,20.40625 -3.5546,0 6.0192,-10.20312 15.5829,-20.40625 9.5638,-10.20312 19.1175,-20.40625 15.563,-20.40625 -3.5546,0 -13.1083,10.20313 -22.672,20.40625 -9.5638,10.20313 -19.1376,20.40625 -22.6921,20.40625 -3.5545,0 6.0192,-10.20312 15.583,-20.40625 9.5637,-10.20313 19.1175,-20.40625 15.5629,-20.40625 -3.5545,0 -13.1082,10.20313 -22.672,20.40625 -9.5637,10.20313 -19.1375,20.40625 -22.6921,20.40625 -3.5545,0 6.0193,-10.20313 15.583,-20.40625 9.5638,-10.20313 19.1175,-20.40625 15.563,-20.40625 -3.5546,0 -13.1083,10.20312 -22.6721,20.40625 -9.5637,10.20312 -19.1375,20.40625 -22.692,20.40625 -3.5546,0 6.0192,-10.20312 15.583,-20.40625 9.5637,-10.20313 19.1174,-20.40625 15.5629,-20.40625 -3.5545,0 -13.1083,10.20312 -22.672,20.40625 -9.5638,10.20312 -19.1375,20.40625 -22.6921,20.40625 -3.5545,0 6.0193,-10.20313 15.583,-20.40625 9.5638,-10.20312 19.1175,-20.40625 15.5629,-20.40625 -3.5545,0 -13.1082,10.20312 -22.672,20.40625 -9.5637,10.20312 -19.1375,20.40625 -22.692,20.40625 -3.55458,0 6.0192,-10.20313 15.5829,-20.40625 9.5638,-10.20313 19.1175,-20.40625 15.563,-20.40625 -3.5546,0 -13.1083,10.20312 -22.672,20.40625 -9.5638,10.20312 -19.13756,20.40625 -22.6921,20.40625 -3.55454,0 6.01923,-10.20313 15.583,-20.40625 9.5637,-10.20313 19.1175,-20.40625 15.5629,-20.40625 -3.5545,0 -13.1082,10.20312 -22.672,20.40625 -9.56375,10.20312 -19.13752,20.40625 -22.69206,20.40625 -3.55454,0 6.01923,-10.20313 15.58298,-20.40625 9.56375,-10.20313 19.11748,-20.40625 15.56298,-20.40625 -3.5546,0 -13.10831,10.20312 -22.67206,20.40625 -9.56375,10.20312 -19.13752,20.40625 -22.69206,20.40625 -3.55454,0 6.01923,-10.20312 15.58298,-20.40625 9.56375,-10.20312 19.11748,-20.40625 15.56294,-20.40625 -3.55454,0 -13.10827,10.20312 -22.67202,20.40625 -9.56375,10.20312 -19.13752,20.40625 -22.69206,20.40625 -3.55454,0 6.01923,-10.20313 15.58298,-20.40625 9.56375,-10.20313 19.11748,-20.40625 15.56294,-20.40625 -3.55454,0 -13.10827,10.20312 -22.67202,20.40625 -9.56375,10.20312 -19.13752,20.40625 -22.69206,20.40625 -3.55454,0 6.01923,-10.20313 15.58298,-20.40625 9.56375,-10.20312 19.11748,-20.40625 15.56294,-20.40625 -3.55454,0 -13.10827,10.20313 -22.67202,20.40625 -9.56375,10.20312 -19.13752,20.40625 -22.69206,20.40625 -3.55454,0 6.01923,-10.20313 15.58298,-20.40625 9.56375,-10.20313 19.11748,-20.40625 15.56294,-20.40625 -3.55454,0 -13.10827,10.20312 -22.67202,20.40625 -9.56375,10.20312 -19.13752,20.40625 -22.69206,20.40625 -3.55454,0 6.01923,-10.20313 15.58298,-20.40625 9.56375,-10.20313 19.11748,-20.40625 15.56294,-20.40625 -3.55454,0 -13.10827,10.20312 -22.67202,20.40625 -9.56375,10.20312 -19.13752,20.40625 -22.69206,20.40625 -3.55454,0 6.01923,-10.20313 15.58298,-20.40625 9.56375,-10.20313 19.11748,-20.40625 15.56294,-20.40625 -3.55454,0 -13.10827,10.20313 -22.67202,20.40625 -9.56375,10.20313 -19.13752,20.40625 -22.69206,20.40625 -3.55454,0 6.01923,-10.20312 15.58298,-20.40625 9.56375,-10.20313 19.11748,-20.40625 15.56294,-20.40625 -3.55454,0 -13.10827,10.20312 -22.67202,20.40625 -9.56375,10.20312 -19.13752,20.40625 -22.69206,20.40625 -3.55454,0 6.01923,-10.20313 15.58298,-20.40625 9.56375,-10.20313 19.11748,-20.40625 15.56294,-20.40625 -3.55454,0 -13.10827,10.20312 -22.67202,20.40625 -9.56375,10.20312 -19.13752,20.40625 -22.69206,20.40625 -3.55454,0 6.01923,-10.20313 15.58298,-20.40625 9.56375,-10.20312 19.11748,-20.40625 15.56294,-20.40625 -3.55454,0 -13.10827,10.20313 -22.67202,20.40625 -9.56375,10.20313 -19.13752,20.40625 -22.69206,20.40625 -3.55454,0 6.01923,-10.20313 15.58298,-20.40625 9.56375,-10.20313 19.11748,-20.40625 15.56294,-20.40625 -3.55454,0 -13.10827,10.20312 -22.67202,20.40625 -9.56375,10.20312 -19.13752,20.40625 -22.69206,20.40625 -3.55454,0 6.01923,-10.20313 15.58298,-20.40625 9.56375,-10.20313 19.11748,-20.40625 15.56294,-20.40625 -3.55454,0 -13.93658,11.08725 -23.50076,21.29038 -9.56419,10.20312 -18.30848,19.52212 -18.54526,15.98562 -0.47356,-7.07301 34.93694,-37.276 27.82786,-37.276 -7.10908,0 -28.06459,29.95065 -28.06459,22.36706 0,-7.58358 20.95551,-22.36706 13.84642,-22.36706 -7.10908,0 -13.84642,14.78348 -13.84642,7.19398 0,-7.5895 3.1828,-7.19398 3.1828,-7.19398 m 743.78565,-50.36217 c 0,0 -10.9853,12.7133 -21.9858,24.47722 -11.0005,11.76392 -22.0139,22.57846 -22.0139,18.78093 0,-3.79754 11.0105,-15.56339 22.0105,-27.33192 11,-11.76853 21.9895,-23.53974 21.9895,-27.34799 0,-3.80824 -10.9852,7.96296 -21.9852,19.73611 -11,11.77314 -22.0148,23.54822 -22.0148,19.74772 0,-3.80051 11.0105,-15.57559 22.0105,-27.35335 11,-11.77777 21.9895,-23.55821 21.9895,-27.36946 0,-3.81124 -10.9852,7.96921 -21.9852,19.7516 -11,11.78238 -22.0148,23.56671 -22.0148,19.76323 0,-3.80349 11.0105,-15.58781 22.0105,-27.37483 11,-11.78702 21.9895,-23.57673 21.9895,-27.39097 0,-3.81425 -10.9851,7.97546 -21.9851,19.76711 -11,11.79165 -22.0149,23.58525 -22.0149,19.77878 0,-3.80647 11.0105,-15.60006 22.0105,-27.39636 11,-11.79629 21.9895,-23.59528 21.9895,-27.41253 0,-3.81726 -10.9851,7.98173 -21.9851,19.78267 -11,11.80094 -22.0149,23.60382 -22.0149,19.79436 0,-3.80946 11.0106,-15.61235 22.0106,-27.41793 11,-11.80559 21.9894,-23.61388 21.9894,-27.43415 0,-3.82027 -10.9851,7.98802 -21.9851,19.79826 -11,11.81024 -22.0149,23.62244 -22.0149,19.80998 0,-3.81246 11.0106,-15.62466 22.0106,-27.43956 11,-11.81491 21.9894,-23.63252 21.9894,-27.45581 0,-3.8233 -10.9851,7.99432 -21.9851,19.81389 -11,11.81957 -22.0149,23.64109 -22.0149,19.82563 0,-3.81547 11.0106,-15.637 22.0106,-27.46124 11,-11.82424 21.9894,-23.6512 21.9894,-27.47752 0,-3.82633 -10.985,8.00063 -21.985,19.82955 -11,11.82892 -22.015,23.6598 -22.015,19.84132 0,-3.81848 11.0106,-15.64936 22.0106,-27.48296 11,-11.8336 21.9894,-23.66993 21.9894,-27.49929 0,-3.82937 -10.985,8.00696 -21.985,19.84525 -11,11.83829 -22.015,23.67855 -22.015,19.85705 0,-3.82149 11.0106,-15.66175 22.0107,-27.50474 11,-11.84298 21.9893,-23.6887 21.9893,-27.52111 0,-3.83241 -10.985,8.01331 -21.985,19.86099 -11,11.84769 -22.015,23.69735 -22.015,19.87282 0,-3.82452 11.0107,-15.67418 22.0107,-27.52657 11,-11.85239 21.9893,-23.70752 21.9893,-27.54298 10e-5,-3.83546 -10.9849,8.01967 -21.9849,19.87677 -11,11.8571 -22.0151,23.71618 -22.0151,19.88862 0,-3.82755 11.117,-15.80166 21.3341,-26.81888 10.2172,-11.01721 19.5362,-21.07754 15.9817,-21.07754 -7.1091,0 -37.3157,40.24131 -37.3157,32.58012 0,-7.66119 30.2066,-32.58012 23.0975,-32.58012 -7.1091,0 -23.0975,24.91892 -23.0976,17.25167 0,-7.66725 15.9885,-17.25167 8.8795,-17.25167 -7.1091,0 -8.8798,5.74767 -8.8798,5.74767"
       style="font-size:medium;font-style:normal;font-variant:normal;font-weight:normal;font-stretch:normal;text-indent:0;text-align:start;text-decoration:none;line-height:normal;letter-spacing:normal;word-spacing:normal;text-transform:none;direction:ltr;block-progression:tb;writing-mode:lr-tb;text-anchor:start;baseline-shift:baseline;color:#000000;fill:none;stroke:#000000;stroke-width:4;stroke-miterlimit:4;stroke-opacity:1;stroke-dasharray:none;marker:none;visibility:visible;display:inline;overflow:visible;enable-background:accumulate;font-family:Sans;-inkscape-font-specification:Sans" />
  </g>
</svg>
