<?xml version="1.0" encoding="UTF-8" standalone="no"?>
<!-- Created with Inkscape (http://www.inkscape.org/) -->

<svg
   xmlns:dc="http://purl.org/dc/elements/1.1/"
   xmlns:cc="http://creativecommons.org/ns#"
   xmlns:rdf="http://www.w3.org/1999/02/22-rdf-syntax-ns#"
   xmlns:svg="http://www.w3.org/2000/svg"
   xmlns="http://www.w3.org/2000/svg"
   xmlns:sodipodi="http://sodipodi.sourceforge.net/DTD/sodipodi-0.dtd"
   xmlns:inkscape="http://www.inkscape.org/namespaces/inkscape"
   width="3200"
   height="800"
   id="svg7189"
   version="1.1"
   inkscape:version="0.48.1 r9760"
   sodipodi:docname="New document 31">
  <sodipodi:namedview
     id="base"
     pagecolor="#ffffff"
     bordercolor="#666666"
     borderopacity="1.0"
     inkscape:pageopacity="0.0"
     inkscape:pageshadow="2"
     inkscape:zoom="0.39349625"
     inkscape:cx="1602.5312"
     inkscape:cy="390.09378"
     inkscape:document-units="px"
     inkscape:current-layer="1-default"
     showgrid="false"
     inkscape:window-width="1676"
     inkscape:window-height="1006"
     inkscape:window-x="0"
     inkscape:window-y="0"
     inkscape:window-maximized="1" />
  <defs
     id="defs7191">
    <inkscape:path-effect
       back_thickness="0.25"
       front_thickness="1"
       stroke_width_bottom="1"
       stroke_width_top="1"
       fat_output="false"
       bottom_smth_variation="0;1"
       top_smth_variation="0;1"
       scale_tb="2"
       scale_tf="2"
       scale_bb="2"
       scale_bf="2"
       top_tgt_variation="0;1"
       bottom_tgt_variation="0;1"
       top_edge_variation="0;1"
       bottom_edge_variation="0;1"
       bender="1602.5312,410.00002 , 5,0"
       do_bend="true"
       growth="0"
       dist_rdm="0;1"
       direction="1602.5312,405.00002 , 29.170892,17.786561"
       is_visible="true"
       id="path-effect7737"
       effect="rough_hatches" />
  </defs>
  <metadata
     id="metadata7194">
    <rdf:RDF>
      <cc:Work
         rdf:about="">
        <dc:format>image/svg+xml</dc:format>
        <dc:type
           rdf:resource="http://purl.org/dc/dcmitype/StillImage" />
        <dc:title></dc:title>
      </cc:Work>
    </rdf:RDF>
  </metadata>
  <g
     id="1-default"
     inkscape:groupmode="layer"
     inkscape:label="1-default">
    <path
       inkscape:original-d="m 1906.0312,223.5 c -45.7075,103.70868 -91.4213,207.41461 -137.125,311.125 -52.3494,-118.78334 -104.7091,-237.56215 -157.0624,-356.34375 -52.3534,118.7816 -104.7131,237.56041 -157.0626,356.34375 -52.3494,-118.78334 -104.7091,-237.56215 -157.0624,-356.34375 -52.4008,118.72028 -104.7088,237.48158 -157,356.25 -21.232,-48.63156 -42.5191,-97.23906 -63.8126,-145.84375 -358.07287,0 -716.14578,0 -1074.2187,0 0,14.51042 0,29.02083 0,43.53125 348.58333,0 697.16667,0 1045.75,0 30.6803,70.21004 61.4071,140.40004 92.125,210.59375 52.3742,-118.83368 104.7547,-237.6646 157.125,-356.5 52.3712,118.76792 104.7427,237.5357 157.0937,356.3125 52.3534,-118.7816 104.7131,-237.56041 157.0626,-356.34375 52.3494,118.78334 104.7091,237.56215 157.0624,356.34375 52.1982,-118.40616 104.3947,-236.81304 156.5938,-355.21875 20.243,48.259 40.4786,96.52107 60.7188,144.78125 405.3852,0.34796 810.7713,0.86247 1216.1562,-0.0312 -0.042,-14.51042 -0.083,-29.02083 -0.125,-43.53125 -395.6974,0.84586 -791.396,0.38465 -1187.0938,0.0625 -29.6767,-70.4516 -59.1307,-140.99767 -88.6874,-211.5 -6.8126,15.4375 -13.6251,30.875 -20.4376,46.3125 z"
       inkscape:path-effect="#path-effect7737"
       inkscape:connector-curvature="0"
       id="path7729"
       d="m 3202.3444,421.52738 c 0,0 -2.491,10.6346 -10.5047,10.65178 -8.0137,0.0172 10.487,-17.17511 10.4496,-30.24731 -0.037,-13.07219 -18.4633,30.2645 -26.4765,30.28096 -4.0067,0.008 2.6488,-10.88875 9.2933,-21.78569 6.6444,-10.89694 13.278,-21.79385 9.2712,-21.78546 -4.0067,0.008 -10.6402,10.9053 -17.2846,21.80207 -6.6443,10.89678 -13.2996,21.79342 -17.306,21.8013 -4.0064,0.008 2.6488,-10.88877 9.2931,-21.78538 6.6443,-10.8966 13.2776,-21.79317 9.2711,-21.78513 -4.0065,0.008 -10.6398,10.9046 -17.284,21.80104 -6.6442,10.89644 -13.2992,21.79275 -17.3054,21.80027 -4.0062,0.008 2.6488,-10.88878 9.2929,-21.78505 6.6441,-10.89627 13.2773,-21.7925 9.271,-21.78481 -4.0063,0.008 -10.6394,10.90392 -17.2834,21.80002 -6.644,10.8961 -13.2989,21.79208 -17.3049,21.79926 -4.006,0.007 2.6489,-10.88879 9.2928,-21.78473 6.6439,-10.89593 13.2769,-21.79182 9.2708,-21.78447 -4.0061,0.007 -10.639,10.90324 -17.2829,21.799 -6.6438,10.89577 -13.2984,21.7914 -17.3042,21.79825 -4.0058,0.007 2.6489,-10.8888 9.2926,-21.78439 6.6437,-10.8956 13.2765,-21.79115 9.2706,-21.78414 -4.0059,0.007 -10.6386,10.90256 -17.2823,21.79799 -6.6436,10.89543 -13.2981,21.79073 -17.3037,21.79724 -4.0055,0.007 2.649,-10.88879 9.2925,-21.78405 6.6435,-10.89526 13.2761,-21.79048 9.2704,-21.78379 -4.0057,0.007 -10.6382,10.90189 -17.2817,21.79698 -6.6434,10.89509 -13.2977,21.79005 -17.303,21.79624 -4.0054,0.006 2.6489,-10.88879 9.2922,-21.78371 6.6434,-10.89492 13.2757,-21.7898 9.2702,-21.78344 -4.0054,0.006 -10.6378,10.90123 -17.281,21.79598 -6.6433,10.89476 -13.2974,21.78938 -17.3026,21.79524 -4.0051,0.006 2.649,-10.88877 9.2921,-21.78335 6.6432,-10.89459 13.2753,-21.78912 9.2701,-21.78309 -4.0053,0.006 -10.6375,10.90058 -17.2805,21.79499 -6.6431,10.89442 -13.297,21.78871 -17.302,21.79425 -4.005,0.006 2.649,-10.88875 9.2919,-21.783 6.643,-10.89425 13.2749,-21.78845 9.2698,-21.78273 -4.0051,0.006 -10.637,10.89993 -17.2799,21.794 -6.6428,10.89408 -13.2965,21.78803 -17.3013,21.79326 -4.0049,0.005 2.6489,-10.88872 9.2916,-21.78263 6.6428,-10.89391 13.2746,-21.78777 9.2697,-21.78236 -4.0049,0.005 -10.6367,10.89927 -17.2793,21.79301 -6.6427,10.89374 -13.2962,21.78736 -17.3009,21.79228 -4.0046,0.005 2.649,-10.88869 9.2915,-21.78226 6.6426,-10.89358 13.2742,-21.7871 9.2695,-21.78199 -4.0047,0.005 -10.6363,10.89863 -17.2788,21.79203 -6.6424,10.89341 -13.2958,21.78669 -17.3002,21.79131 -4.0044,0.005 2.6489,-10.88866 9.2913,-21.7819 6.6423,-10.89323 13.2737,-21.78642 9.2692,-21.78161 -4.0045,0.005 -10.6359,10.898 -17.2782,21.79106 -6.6423,10.89307 -13.2954,21.78601 -17.2997,21.79034 -4.0042,0.004 2.649,-10.88862 9.2911,-21.78152 6.6422,-10.8929 13.2734,-21.78575 9.269,-21.78123 -4.0044,0.005 -10.6356,10.89736 -17.2776,21.79009 -6.6421,10.89274 -13.295,21.78535 -17.2991,21.78938 -4.004,0.004 2.6489,-10.88857 9.2909,-21.78114 6.642,-10.89256 13.273,-21.78507 9.2688,-21.78085 -4.0042,0.004 -10.6352,10.89675 -17.2771,21.78914 -6.6418,10.8924 -13.2946,21.78467 -17.2985,21.78842 -4.0039,0.004 2.6489,-10.88852 9.2907,-21.78075 6.6417,-10.89223 13.2725,-21.78441 9.2685,-21.78046 -4.004,0.004 -10.6348,10.89612 -17.2765,21.78818 -6.6416,10.89206 -13.2942,21.784 -17.2979,21.78747 -4.0037,0.003 2.6488,-10.88847 9.2904,-21.78036 6.6416,-10.89189 13.2722,-21.78373 9.2684,-21.78006 -4.0039,0.004 -10.6345,10.89551 -17.276,21.78723 -6.6414,10.89173 -13.2938,21.78333 -17.2973,21.78653 -4.0036,0.003 2.6487,-10.88841 9.2901,-21.77997 6.6414,-10.89155 13.2718,-21.78306 9.2682,-21.77967 -4.0037,0.003 -10.6341,10.89491 -17.2754,21.7863 -6.6413,10.89139 -13.2934,21.78266 -17.2968,21.78559 -4.0034,0.003 2.6487,-10.88834 9.2899,-21.77957 6.6412,-10.89122 13.2714,-21.78239 9.2679,-21.77926 -4.0035,0.003 -10.6337,10.8943 -17.2748,21.78536 -6.6411,10.89106 -13.293,21.782 -17.2963,21.78466 -4.0032,0.003 2.6488,-10.88827 9.2898,-21.77916 6.6409,-10.8909 13.2709,-21.78174 9.2676,-21.77887 -4.0034,0.003 -10.6334,10.89371 -17.2743,21.78444 -6.6409,10.89072 -13.2926,21.78133 -17.2957,21.78374 -4.003,0.002 2.6487,-10.8882 9.2895,-21.77876 6.6408,-10.89056 13.2706,-21.78107 9.2674,-21.77845 -4.0032,0.003 -10.633,10.89312 -17.2737,21.78351 -6.6407,10.89039 -13.2922,21.78067 -17.2952,21.78283 -4.0029,0.002 2.6487,-10.88812 9.2893,-21.77835 6.6406,-10.89023 13.2702,-21.78041 9.2671,-21.77804 -4.003,0.002 -10.6326,10.89254 -17.2731,21.7826 -6.6405,10.89006 -13.2919,21.78001 -17.2946,21.78192 -4.0028,0.002 2.6485,-10.88804 9.2889,-21.77794 6.6405,-10.88989 13.2699,-21.77974 9.267,-21.77762 -4.0029,0.002 -10.6323,10.89196 -17.2726,21.78169 -6.6403,10.88974 -13.2915,21.77936 -17.2941,21.78103 -4.0026,0.002 2.6485,-10.88796 9.2887,-21.77752 6.6402,-10.88957 13.2694,-21.77909 9.2667,-21.77721 -4.0027,0.002 -10.6319,10.89139 -17.272,21.7808 -6.6401,10.8894 -13.2911,21.7787 -17.2936,21.78013 -4.0025,0.001 2.6485,-10.88786 9.2885,-21.7771 6.64,-10.88924 13.269,-21.77843 9.2664,-21.77679 -4.0026,0.002 -10.6316,10.89083 -17.2715,21.77991 -6.6399,10.88908 -13.2907,21.77804 -17.293,21.77925 -4.0023,0.001 2.6484,-10.88777 9.2882,-21.77668 6.6398,-10.88891 13.2687,-21.77777 9.2662,-21.77636 -4.0025,0.001 -10.6313,10.89028 -17.271,21.77903 -6.6397,10.88875 -13.2903,21.77739 -17.2925,21.77836 -4.0022,9.8e-4 2.6484,-10.88766 9.288,-21.77625 6.6396,-10.88859 13.2683,-21.77712 9.2659,-21.77593 -4.0023,0.001 -10.6309,10.88973 -17.2704,21.77815 -6.6396,10.88843 -13.2899,21.77674 -17.292,21.7775 -4.0021,7.6e-4 2.6483,-10.88756 9.2877,-21.77582 6.6394,-10.88826 13.2679,-21.77647 9.2657,-21.7755 -4.0022,9.7e-4 -10.6306,10.88918 -17.27,21.77728 -6.6393,10.88811 -13.2895,21.7761 -17.2914,21.77664 -4.0019,5.5e-4 2.6483,-10.88745 9.2875,-21.77539 6.6392,-10.88794 13.2674,-21.77582 9.2654,-21.77506 -4.0021,7.6e-4 -10.6303,10.88864 -17.2694,21.77642 -6.6392,10.88778 -13.2892,21.77545 -17.291,21.77579 -4.0018,3.3e-4 2.6482,-10.88734 9.2872,-21.77496 6.6391,-10.88762 13.2671,-21.77518 9.2652,-21.77463 -4.002,5.5e-4 -10.63,10.88812 -17.2689,21.77558 -6.639,10.88745 -13.2888,21.77481 -17.2904,21.77494 -4.0017,1.3e-4 2.6481,-10.88722 9.2869,-21.77452 6.6388,-10.8873 13.2667,-21.77454 9.2649,-21.77419 -4.0018,3.5e-4 -10.6297,10.88759 -17.2684,21.77473 -6.6388,10.88714 -13.2884,21.77417 -17.2899,21.7741 -4.0016,-6e-5 2.648,-10.8871 9.2867,-21.77408 6.6386,-10.88698 13.2663,-21.7739 9.2646,-21.77375 -4.0017,1.6e-4 -10.6294,10.88708 -17.268,21.7739 -6.6385,10.88682 -13.2879,21.77354 -17.2893,21.77328 -4.0015,-2.6e-4 2.6479,-10.88698 9.2864,-21.77364 6.6384,-10.88666 13.2659,-21.77327 9.2643,-21.77331 -4.0016,-3e-5 -10.629,10.88657 -17.2674,21.77308 -6.6383,10.8865 -13.2875,21.7729 -17.2889,21.77246 -4.0013,-4.5e-4 2.6479,-10.88685 9.2862,-21.7732 6.6382,-10.88635 13.2655,-21.77264 9.264,-21.77286 -4.0014,-2.3e-4 -10.6287,10.88607 -17.2669,21.77225 -6.6381,10.88619 -13.2871,21.77228 -17.2884,21.77165 -4.0012,-6.2e-4 2.6478,-10.88671 9.2859,-21.77275 6.638,-10.88603 13.2651,-21.77201 9.2638,-21.77241 -4.0014,-4.1e-4 -10.6285,10.88557 -17.2664,21.77145 -6.638,10.88587 -13.2868,21.77165 -17.2879,21.77085 -4.0011,-8.1e-4 2.6477,-10.88659 9.2856,-21.77231 6.6378,-10.88572 13.2647,-21.77138 9.2635,-21.77196 -4.0013,-5.8e-4 -10.6282,10.88508 -17.2659,21.77065 -6.6378,10.88556 -13.2864,21.77103 -17.2874,21.77005 -4.0011,-9.7e-4 2.6476,-10.88644 9.2853,-21.77185 6.6376,-10.88541 13.2643,-21.77077 9.2632,-21.77152 -4.0012,-7.5e-4 -10.6279,10.88461 -17.2654,21.76986 -6.6376,10.88526 -13.286,21.77042 -17.287,21.76928 -4.0009,-0.001 2.6476,-10.8863 9.2851,-21.77141 6.6375,-10.8851 13.264,-21.77015 9.2629,-21.77106 -4.001,-9.2e-4 -10.6275,10.88413 -17.2649,21.76908 -6.6374,10.88495 -13.2857,21.7698 -17.2865,21.7685 -4.0008,-0.001 2.6475,-10.88616 9.2848,-21.77095 6.6373,-10.8848 13.2636,-21.76954 9.2626,-21.77062 -4.0009,-0.001 -10.6272,10.88367 -17.2644,21.76831 -6.6372,10.88465 -13.2853,21.7692 -17.286,21.76774 -4.0007,-0.001 2.6474,-10.88601 9.2845,-21.7705 6.6371,-10.88449 13.2632,-21.76893 9.2624,-21.77016 -4.0009,-0.001 -10.627,10.88321 -17.2641,21.76755 -6.637,10.88434 -13.2848,21.76859 -17.2855,21.76698 -4.0006,-0.002 2.6473,-10.88585 9.2842,-21.77004 6.6369,-10.88419 13.2629,-21.76833 9.2621,-21.7697 -4.0007,-0.001 -10.6267,10.88275 -17.2635,21.76679 -6.6368,10.88404 -13.2845,21.76799 -17.2851,21.76624 -4.0005,-0.002 2.6472,-10.8857 9.2839,-21.76959 6.6368,-10.88389 13.2625,-21.76773 9.2618,-21.76925 -4.0006,-0.002 -10.6264,10.88231 -17.263,21.76606 -6.6367,10.88374 -13.2842,21.76739 -17.2846,21.7655 -4.0005,-0.002 2.647,-10.88554 9.2836,-21.76913 6.6365,-10.8836 13.2621,-21.76713 9.2615,-21.76879 -4.0006,-0.002 -10.6261,10.88187 -17.2626,21.76532 -6.6365,10.88345 -13.2838,21.7668 -17.2841,21.76478 -4.0004,-0.002 2.6469,-10.88538 9.2833,-21.76868 6.6363,-10.8833 13.2617,-21.76654 9.2612,-21.76833 -4.0005,-0.002 -10.6259,10.88145 -17.2622,21.7646 -6.6362,10.88315 -13.2834,21.76621 -17.2837,21.76406 -4.0002,-0.002 2.6469,-10.88521 9.2831,-21.76822 6.6362,-10.883 13.2614,-21.76595 9.2609,-21.76787 -4.0004,-0.002 -10.6256,10.88103 -17.2617,21.76389 -6.6361,10.88286 -13.283,21.76563 -17.2833,21.76336 -4.0002,-0.002 2.6468,-10.88505 9.2828,-21.76776 6.636,-10.88272 13.261,-21.76538 9.2607,-21.76742 -4.0004,-0.002 -10.6254,10.88061 -17.2613,21.76318 -6.6359,10.88258 -13.2827,21.76506 -17.2829,21.76267 -4.0001,-0.002 2.6467,-10.88487 9.2825,-21.7673 6.6358,-10.88243 13.2607,-21.7648 9.2604,-21.76696 -4.0003,-0.002 -10.6252,10.88021 -17.2609,21.76249 -6.6357,10.88229 -13.2823,21.76449 -17.2824,21.76199 -4.0001,-0.002 2.6465,-10.8847 9.2822,-21.76685 6.6356,-10.88214 13.2603,-21.76423 9.2601,-21.7665 -4.0002,-0.002 -10.6249,10.87982 -17.2604,21.76182 -6.6356,10.882 -13.282,21.76392 -17.282,21.76131 -4.0001,-0.003 2.6463,-10.88452 9.2818,-21.76639 6.6355,-10.88186 13.26,-21.76366 9.2598,-21.76604 -4.0001,-0.002 -10.6246,10.87943 -17.26,21.76115 -6.6354,10.88172 -13.2816,21.76336 -17.2816,21.76065 -3.9999,-0.003 2.6463,-10.88435 9.2816,-21.76593 6.6353,-10.88158 13.2596,-21.76311 9.2596,-21.76559 -4.0001,-0.002 -10.6245,10.87905 -17.2597,21.76049 -6.6352,10.88144 -13.2812,21.76281 -17.2811,21.76 -3.9999,-0.003 2.6461,-10.88417 9.2813,-21.76547 6.6351,-10.88131 13.2592,-21.76255 9.2592,-21.76513 -4,-0.003 -10.6242,10.87867 -17.2592,21.75984 -6.6351,10.88117 -13.281,21.76226 -17.2808,21.75936 -3.9998,-0.003 2.6461,-10.88398 9.281,-21.76501 6.635,-10.88103 13.259,-21.76201 9.259,-21.76467 -4,-0.003 -10.624,10.87831 -17.2588,21.7592 -6.6349,10.8809 -13.2806,21.76171 -17.2804,21.75873 -3.9998,-0.003 2.646,-10.88379 9.2807,-21.76455 6.6348,-10.88076 13.2586,-21.76146 9.2587,-21.76422 -4,-0.003 -10.6238,10.87796 -17.2585,21.75858 -6.6346,10.88063 -13.2802,21.76118 -17.2799,21.75812 -3.9998,-0.003 2.6458,-10.88361 9.2804,-21.7641 6.6346,-10.88049 13.2582,-21.76093 9.2584,-21.76376 -3.9999,-0.003 -10.6236,10.8776 -17.2581,21.75796 -6.6345,10.88036 -13.2799,21.76065 -17.2796,21.75751 -3.9997,-0.003 2.6457,-10.88341 9.2802,-21.76364 6.6344,-10.88023 13.2579,-21.7604 9.258,-21.7633 -3.9998,-0.003 -10.6233,10.87726 -17.2576,21.75736 -6.6344,10.88009 -13.2796,21.76012 -17.2792,21.75691 -3.9997,-0.003 2.6455,-10.88322 9.2798,-21.76318 6.6343,-10.87997 13.2576,-21.75988 9.2578,-21.76285 -3.9998,-0.003 -10.6231,10.87693 -17.2573,21.75677 -6.6342,10.87983 -13.2792,21.7596 -17.2788,21.75633 -3.9997,-0.003 2.6454,-10.88303 9.2795,-21.76273 6.6341,-10.87971 13.2573,-21.75936 9.2575,-21.7624 -3.9997,-0.003 -10.6229,10.87661 -17.2569,21.75619 -6.634,10.87958 -13.2789,21.75909 -17.2785,21.75577 -3.9996,-0.003 2.6453,-10.88284 9.2793,-21.76229 6.6339,-10.87945 13.2569,-21.75884 9.2572,-21.76194 -3.9997,-0.003 -10.6227,10.8763 -17.2566,21.75562 -6.6338,10.87933 -13.2786,21.75858 -17.2781,21.75521 -3.9996,-0.003 2.6452,-10.88263 9.279,-21.76183 6.6337,-10.8792 13.2566,-21.75834 9.2569,-21.76149 -3.9997,-0.003 -10.6225,10.87599 -17.2562,21.75506 -6.6337,10.87908 -13.2783,21.75808 -17.2778,21.75466 -3.9995,-0.003 2.645,-10.88243 9.2787,-21.76138 6.6336,-10.87895 13.2563,-21.75784 9.2566,-21.76104 -3.9996,-0.003 -10.6223,10.87569 -17.2559,21.75452 -6.6335,10.87883 -13.2779,21.75759 -17.2774,21.75413 -3.9995,-0.003 2.6449,-10.88223 9.2784,-21.76093 6.6335,-10.87871 13.256,-21.75736 9.2563,-21.7606 -3.9996,-0.003 -10.6221,10.87541 -17.2555,21.75399 -6.6334,10.87859 -13.2776,21.75711 -17.2771,21.75361 -3.9995,-0.003 2.6448,-10.88202 9.2781,-21.76049 6.6333,-10.87846 13.2557,-21.75687 9.2561,-21.76015 -3.9996,-0.003 -10.622,10.87513 -17.2552,21.75348 -6.6333,10.87834 -13.2774,21.75662 -17.2768,21.75309 -3.9995,-0.004 2.6446,-10.88181 9.2778,-21.76004 6.6332,-10.87823 13.2554,-21.7564 9.2558,-21.75971 -3.9996,-0.003 -10.6218,10.87486 -17.2549,21.75297 -6.6331,10.87811 -13.277,21.75616 -17.2765,21.7526 -3.9994,-0.004 2.6446,-10.8816 9.2776,-21.7596 6.633,-10.87799 13.2551,-21.75592 9.2555,-21.75926 -3.9996,-0.003 -10.6216,10.8746 -17.2546,21.75248 -6.6329,10.87787 -13.2767,21.75569 -17.2762,21.75211 -3.9994,-0.004 2.6444,-10.88139 9.2773,-21.75916 6.6329,-10.87776 13.2548,-21.75546 9.2552,-21.75882 -3.9995,-0.003 -10.6214,10.87435 -17.2542,21.75199 -6.6328,10.87765 -13.2765,21.75524 -17.2759,21.75165 -3.9994,-0.004 2.6443,-10.88118 9.277,-21.75872 6.6327,-10.87753 13.2545,-21.75501 9.2549,-21.75839 -3.9995,-0.003 -10.6213,10.87411 -17.2539,21.75153 -6.6327,10.87742 -13.2762,21.75479 -17.2756,21.75119 -3.9994,-0.004 2.6441,-10.88097 9.2767,-21.75828 6.6326,-10.87731 13.2542,-21.75457 9.2547,-21.75796 -3.9996,-0.003 -10.6212,10.87387 -17.2537,21.75108 -6.6325,10.8772 -13.2759,21.75435 -17.2753,21.75074 -3.9994,-0.004 2.644,-10.88075 9.2764,-21.75785 6.6325,-10.87709 13.2539,-21.75413 9.2544,-21.75752 -3.9995,-0.003 -10.621,10.87365 -17.2534,21.75063 -6.6324,10.87699 -13.2756,21.75392 -17.275,21.75031 -3.9994,-0.004 2.6438,-10.88053 9.2761,-21.75741 6.6323,-10.87688 13.2537,-21.7537 9.2542,-21.75709 -3.9996,-0.003 -10.6209,10.87343 -17.2532,21.7502 -6.6322,10.87677 -13.2753,21.75349 -17.2747,21.7499 -3.9994,-0.004 2.6437,-10.88032 9.2759,-21.75699 6.6321,-10.87667 13.2533,-21.75328 9.2538,-21.75667 -3.9995,-0.003 -10.6207,10.87323 -17.2528,21.74979 -6.6321,10.87657 -13.2751,21.75308 -17.2745,21.74949 -3.9994,-0.004 2.6435,-10.8801 9.2756,-21.75656 6.632,-10.87646 13.2531,-21.75286 9.2535,-21.75624 -3.9995,-0.003 -10.6206,10.87303 -17.2526,21.74939 -6.6319,10.87636 -13.2748,21.75267 -17.2742,21.7491 -3.9994,-0.004 2.6434,-10.87988 9.2753,-21.75614 6.6319,-10.87626 13.2529,-21.75246 9.2533,-21.75582 -3.9995,-0.003 -10.6205,10.87285 -17.2523,21.749 -6.6318,10.87616 -13.2746,21.75227 -17.274,21.74873 -3.9994,-0.004 2.6433,-10.87966 9.275,-21.75572 6.6318,-10.87606 13.2526,-21.75207 9.2531,-21.75541 -3.9996,-0.003 -10.6204,10.87267 -17.2521,21.74863 -6.6317,10.87597 -13.2743,21.75188 -17.2738,21.74836 -3.9994,-0.004 2.6432,-10.87943 9.2748,-21.7553 6.6317,-10.87586 13.2524,-21.75168 9.2528,-21.75499 -3.9996,-0.003 -10.6203,10.8725 -17.2519,21.74827 -6.6316,10.87577 -13.274,21.7515 -17.2735,21.74801 -3.9995,-0.003 2.643,-10.87921 9.2745,-21.75488 6.6315,-10.87568 13.2521,-21.7513 9.2525,-21.75458 -3.9996,-0.003 -10.6202,10.87234 -17.2516,21.74792 -6.6315,10.87558 -13.2739,21.75113 -17.2734,21.74768 -3.9995,-0.003 2.2399,-10.21835 9.0606,-21.40405 6.8208,-11.1857 14.2212,-23.34221 12.5847,-27.22886 -1.6365,-3.88665 -8.6092,7.57476 -15.5938,19.03625 -6.9846,11.46148 -13.981,22.92305 -15.6108,19.0367 -3.2598,-7.7727 27.9317,-45.84631 24.6587,-53.62881 -1.6365,-3.89125 -8.6027,7.57278 -15.5809,19.03734 -6.9782,11.46456 -13.9685,22.92965 -15.5995,19.04053 -3.2619,-7.77823 27.9074,-45.86042 24.6341,-53.6517 -1.6366,-3.89564 -8.5971,7.57272 -15.57,19.04203 -6.9729,11.46931 -13.9581,22.93957 -15.5902,19.0477 -3.2642,-7.78374 27.887,-45.88107 24.6132,-53.68071 -1.6369,-3.89982 -8.5927,7.57442 -15.5611,19.04997 -6.9685,11.47555 -13.9495,22.9524 -15.5827,19.0578 -3.2664,-7.7892 27.8701,-45.90746 24.5954,-53.71504 -1.6373,-3.90378 -8.5892,7.57768 -15.5539,19.06075 -6.9648,11.48308 -13.9423,22.96778 -15.5767,19.07047 -3.2687,-7.79462 27.8561,-45.93885 24.5804,-53.75392 -1.6379,-3.90754 -8.5866,7.58228 -15.5483,19.07399 -6.9617,11.49171 -13.9363,22.98531 -15.5719,19.08531 -3.2711,-7.8 27.8445,-45.97444 24.5675,-53.79659 -1.6386,-3.91107 -8.5846,7.58807 -15.5438,19.08932 -6.9592,11.50125 -13.9315,23.0046 -15.5682,19.10193 -3.2735,-7.80534 27.835,-46.01345 24.5563,-53.84223 -1.6394,-3.9144 -8.5832,7.59483 -15.5403,19.10631 -6.9571,11.51149 -13.9274,23.02525 -15.5654,19.11993 -3.2758,-7.81064 27.827,-46.05508 24.5464,-53.89006 -1.6403,-3.91749 -8.5823,7.60237 -15.5375,19.1246 -6.9553,11.52224 -13.9239,23.04687 -15.5631,19.13892 -3.2783,-7.8159 27.82,-46.09855 24.5372,-53.93928 -0.8208,-1.96018 -14.1531,18.54912 -33.8405,50.2975 -19.6875,31.74839 -45.7533,74.73587 -71.9716,117.73206 -26.2184,42.99618 -52.5893,86.00106 -72.643,117.78427 -20.0538,31.7832 -33.767,52.34471 -34.6003,50.45416 -3.3332,-7.56223 27.758,-45.02272 24.4174,-52.6027 -1.6703,-3.78999 -8.595,7.47013 -15.532,18.73185 -6.937,11.26171 -13.8863,22.52503 -15.5541,18.74143 -3.3354,-7.5672 27.7454,-45.05325 24.4026,-52.63819 -1.6715,-3.79248 -8.5929,7.47527 -15.5268,18.74462 -6.9338,11.26934 -13.88,22.54029 -15.5488,18.7542 -3.3376,-7.57219 27.7327,-45.08377 24.3875,-52.67369 -1.6725,-3.79496 -8.5908,7.48042 -15.5214,18.75739 -6.9306,11.27696 -13.8736,22.55553 -15.5436,18.76694 -3.3398,-7.57718 27.7199,-45.11425 24.3725,-52.70917 -1.6737,-3.79746 -8.5887,7.48554 -15.5161,18.77013 -6.9274,11.28458 -13.8672,22.57076 -15.5383,18.77967 -3.342,-7.5822 27.707,-45.14471 24.3574,-52.74464 -1.6748,-3.79996 -8.5866,7.49065 -15.5108,18.78285 -6.9242,11.2922 -13.8607,22.58598 -15.5329,18.79237 -3.3443,-7.58722 27.694,-45.17514 24.3421,-52.78009 -1.6759,-3.80247 -8.5844,7.49574 -15.5053,18.79555 -6.921,11.2998 -13.8543,22.60119 -15.5276,18.80506 -3.3464,-7.59226 27.681,-45.20556 24.3269,-52.81554 -1.6771,-3.805 -8.5823,7.50082 -15.5,18.80823 -6.9176,11.3074 -13.8477,22.61639 -15.5221,18.81773 -3.3487,-7.59732 27.6679,-45.23595 24.3115,-52.85099 -1.6782,-3.80752 -8.5801,7.5059 -15.4945,18.8209 -6.9143,11.31499 -13.8411,22.63157 -15.5166,18.83038 -3.3509,-7.6024 27.6547,-45.26631 24.296,-52.88642 -1.6794,-3.81005 -8.5779,7.51096 -15.489,18.83354 -6.911,11.32259 -13.8345,22.64675 -15.5111,18.84301 -3.3532,-7.60748 27.6414,-45.29665 24.2805,-52.92184 -1.6805,-3.81259 -8.5758,7.516 -15.4835,18.84617 -6.9077,11.33016 -13.8279,22.6619 -15.5056,18.85562 -3.3553,-7.61258 27.6281,-45.32697 24.2649,-52.95725 -1.6816,-3.81514 -8.5735,7.52103 -15.4779,18.85877 -6.9043,11.33774 -13.8212,22.67705 -15.5,18.86821 -3.3576,-7.6177 27.6147,-45.35726 24.2492,-52.99265 -1.6828,-3.8177 -8.5713,7.52604 -15.4722,18.87135 -6.901,11.34531 -13.8145,22.69219 -15.4944,18.88078 -3.3599,-7.62282 27.6011,-45.38752 24.2333,-53.02804 -1.6838,-3.82026 -8.5689,7.53105 -15.4665,18.88392 -6.8976,11.35287 -13.8077,22.70731 -15.4888,18.89333 -3.362,-7.62797 27.5876,-45.41776 24.2176,-53.06342 -1.6851,-3.82283 -8.5667,7.53604 -15.4609,18.89647 -6.8942,11.36042 -13.8009,22.72242 -15.483,18.90586 -3.3644,-7.63313 27.5738,-45.44798 24.2015,-53.0988 -1.6861,-3.8254 -8.5643,7.54101 -15.4551,18.90899 -6.8907,11.36798 -13.794,22.73753 -15.4773,18.91838 -3.3665,-7.63831 27.5601,-45.47818 24.1855,-53.13416 -1.6872,-3.82799 -8.562,7.54598 -15.4493,18.9215 -6.8873,11.37552 -13.7871,22.75261 -15.4715,18.93086 -3.3688,-7.64349 27.5463,-45.50834 24.1694,-53.1695 -1.6884,-3.83059 -8.5597,7.55092 -15.4435,18.93398 -6.8838,11.38306 -13.7802,22.76768 -15.4657,18.94333 -3.3711,-7.64869 27.5323,-45.53848 24.1532,-53.20484 -1.6896,-3.83319 -8.5573,7.55585 -15.4377,18.94645 -6.8803,11.39059 -13.7732,22.78274 -15.4598,18.95578 -3.3733,-7.65392 27.5184,-45.5686 24.137,-53.24018 -1.6908,-3.83579 -8.9783,6.60338 -15.8546,18.0015 -6.8763,11.39812 -13.3438,23.75519 -13.3438,23.75519 m 171.3228,308.78268 c 0,0 -18.9159,36.99704 -22.2414,29.4521 -3.3254,-7.54493 32.1144,-51.82066 52.316,-97.64645 5.0504,-11.45645 4.1074,-11.55333 -0.1955,-5.37236 -4.3029,6.18096 -11.9717,18.63978 -20.393,32.29471 -16.8425,27.30988 -36.7168,59.40424 -38.3806,55.62931 -1.6639,-3.77493 18.212,-35.86656 41.0135,-72.88663 22.8015,-37.02007 48.5075,-78.96856 58.8621,-102.45722 5.1773,-11.74432 1.3593,-7.12936 -7.3413,6.28122 -8.7006,13.41058 -22.2961,35.61678 -36.692,59.05494 -14.396,23.43815 -29.5943,48.10826 -41.4144,66.44666 -11.82,18.3384 -20.253,30.34508 -21.0855,28.45638 -1.6649,-3.7774 30.382,-55.57842 65.275,-112.46284 17.4465,-28.44222 35.6097,-58.15528 50.7236,-83.77167 15.114,-25.61639 27.1828,-47.1361 32.4973,-59.19161 5.3146,-12.05552 -1.5259,-2.82756 -14.8074,17.79561 -13.2815,20.62317 -33.0249,52.64154 -53.529,86.16685 -20.5042,33.52531 -41.7719,68.55756 -57.9387,95.20848 -16.1667,26.65092 -27.2171,44.92051 -27.2171,44.92051 m 203.1313,-359.37264 c 0,0 -11.0639,18.82535 -27.4216,46.33857 -16.3576,27.51321 -38.0252,63.71428 -59.16,98.46572 -21.1348,34.75144 -41.7339,68.05324 -55.7803,89.76792 -14.0465,21.71468 -21.5184,31.84223 -16.4074,20.24516 5.111,-11.59707 17.5737,-33.5668 33.2839,-60.12068 15.7101,-26.55388 34.6629,-57.6919 52.8155,-87.62556 18.1526,-29.93366 35.5064,-58.66295 48.1072,-80.39935 12.6008,-21.73641 20.456,-36.47994 19.6344,-38.44206 -0.8217,-1.96213 -9.4973,10.81992 -21.7633,30.35303 -12.2659,19.53312 -28.132,45.81731 -43.298,70.85946 -15.1659,25.04215 -29.6297,48.84226 -38.9933,63.40723 -9.3636,14.56497 -13.6133,19.8948 -8.369,7.99638 10.4885,-23.79684 37.8878,-68.91301 62.1327,-109.06161 24.2449,-40.1486 45.3595,-75.32963 43.7147,-79.2562 -1.6448,-3.92657 -22.7647,31.25738 -40.8892,61.31206 -9.0623,15.02734 -17.3692,28.77236 -22.0616,35.70508 -4.6924,6.93272 -5.7634,7.05315 -0.3765,-5.1687 10.7736,-24.44368 25.7928,-49.36909 37.6959,-69.16575 11.9032,-19.79665 20.6955,-34.46454 19.0491,-38.3932 -3.2928,-7.85731 -24.1333,33.53757 -24.1333,33.53757 M 1467.434,613.91818 c 0,0 -13.1248,27.63512 -16.45,20.09084 -3.3253,-7.54429 26.2887,-42.38565 46.4198,-88.05772 10.0656,-22.83604 -2.3195,-2.70768 -17.6797,22.18605 -15.3602,24.89373 -33.7291,54.55282 -35.3928,50.77826 -1.6638,-3.77456 16.7065,-33.43121 38.0064,-67.9956 21.2998,-34.5644 45.5102,-74.03653 55.8267,-97.44204 5.1583,-11.70276 1.703,-7.68611 -6.4405,4.80364 -8.1435,12.48975 -20.9864,33.4526 -34.6226,55.64223 -13.6362,22.18964 -28.0673,45.60605 -39.309,63.00294 -11.2416,17.39688 -19.2858,28.77423 -20.1183,26.88574 -1.6648,-3.77698 28.829,-53.06064 62.1808,-107.40416 16.6759,-27.17176 34.0708,-55.60848 48.6051,-80.25432 14.5343,-24.64585 26.2114,-45.50081 31.504,-57.50903 5.2926,-12.00823 -1.0721,-3.1615 -13.6783,16.74513 -12.6062,19.90662 -31.4739,50.87312 -51.1986,83.10445 -19.7248,32.23132 -40.3088,65.72746 -56.1918,90.69333 -15.8831,24.96588 -27.0499,41.40151 -27.8829,39.5118 -0.833,-1.88971 12.0573,-24.34952 31.7077,-57.09623 19.6503,-32.7467 46.0411,-75.7803 72.2881,-118.81759 26.2469,-43.03728 52.35,-86.07825 71.6503,-118.83971 19.3002,-32.76145 31.8173,-55.24338 30.9713,-57.16258 -0.8459,-1.9192 -12.806,16.31308 -30.034,44.01842 -17.2281,27.70533 -39.7428,64.88371 -61.6298,100.85668 -21.887,35.97298 -43.144,70.74056 -57.6661,93.6243 -14.5222,22.88374 -22.2861,33.88363 -17.1902,22.32124 5.0959,-11.56239 17.9343,-34.12468 34.2102,-61.5843 16.2759,-27.45961 35.9838,-59.81656 54.8848,-90.96827 18.901,-31.15171 36.9965,-61.09819 50.1447,-83.73687 13.1481,-22.63868 21.3572,-37.96955 20.5107,-39.89007 -0.8464,-1.92051 -9.9008,11.49052 -22.7257,31.94604 -12.8249,20.45553 -29.4311,47.95556 -45.3415,74.21304 -15.9103,26.25749 -31.1228,51.27243 -41.0538,66.75779 -9.9311,15.48535 -14.566,21.44112 -9.3381,9.58027 10.4558,-23.72172 39.3569,-71.26652 65.0811,-113.8418 25.7242,-42.57528 48.2979,-80.18105 46.6038,-84.02471 -1.6942,-3.84366 -24.2738,33.7651 -43.871,66.24384 -9.7986,16.23936 -18.8443,31.19622 -24.0962,39.04776 -5.2518,7.85154 -6.7021,8.59776 -1.3326,-3.58414 10.739,-24.3638 27.2353,-51.7125 40.6026,-73.93182 13.3674,-22.21932 23.6136,-39.30926 21.9183,-43.15556 -1.6952,-3.84629 -11.9456,13.24705 -19.0291,25.03772 -7.0836,11.79066 -10.9746,18.27865 0.07,-6.77837 11.0442,-25.05702 14.493,-32.50724 15.2033,-33.6932 0.7103,-1.18597 -1.3311,3.89232 -1.3311,3.89232 m -158.4499,353.19585 c 0,0 -6.5095,12.20278 -13.4492,23.46009 -6.9397,11.25731 -14.3073,21.56916 -15.9745,17.78731 -3.3342,-7.56372 27.7544,-45.03584 24.4129,-52.61768 -1.6707,-3.79092 -8.5945,7.47257 -15.5307,18.73772 -6.9361,11.26514 -13.8847,22.53194 -15.5529,18.74763 -3.3366,-7.56861 27.7421,-45.06718 24.3984,-52.65399 -1.6719,-3.79341 -8.5926,7.47794 -15.5257,18.75095 -6.9331,11.273 -13.8787,22.54767 -15.548,18.76091 -3.3388,-7.57352 27.73,-45.09867 24.384,-52.69046 -1.673,-3.7959 -8.5907,7.48334 -15.5207,18.76424 -6.9301,11.28091 -13.8727,22.56348 -15.5432,18.77426 -3.341,-7.57844 27.7179,-45.13029 24.3697,-52.72709 -1.6741,-3.7984 -8.5887,7.48877 -15.5158,18.7776 -6.9271,11.28884 -13.8666,22.57936 -15.5382,18.78766 -3.3433,-7.58338 27.7058,-45.16205 24.3553,-52.76386 -1.6753,-3.8009 -8.5869,7.49422 -15.5109,18.79102 -6.924,11.2968 -13.8605,22.59529 -15.5333,18.80112 -3.3456,-7.58834 27.6937,-45.19395 24.3409,-52.80078 -1.6764,-3.80342 -8.5849,7.49969 -15.5059,18.80449 -6.921,11.30481 -13.8545,22.6113 -15.5284,18.81465 -3.3479,-7.59331 27.6816,-45.22598 24.3266,-52.83786 -1.6775,-3.80593 -8.583,7.5052 -15.501,18.81804 -6.918,11.31283 -13.8485,22.62736 -15.5236,18.82821 -3.3501,-7.59829 27.6696,-45.25812 24.3123,-52.87506 -1.6787,-3.80847 -8.5811,7.51073 -15.4961,18.83162 -6.915,11.3209 -13.8425,22.64351 -15.5187,18.84186 -3.3524,-7.6033 27.6575,-45.29041 24.298,-52.91242 -1.6798,-3.81101 -8.5792,7.51628 -15.4912,18.84527 -6.912,11.32899 -13.8365,22.6597 -15.5138,18.85554 -3.3547,-7.60831 27.6454,-45.32282 24.2836,-52.94991 -1.6809,-3.81355 -8.5773,7.52185 -15.4862,18.85897 -6.909,11.33712 -13.8305,22.67596 -15.509,18.86929 -3.3569,-7.61334 27.6334,-45.35536 24.2694,-52.98755 -1.6821,-3.8161 -8.5754,7.52745 -15.4814,18.87273 -6.906,11.34528 -13.8245,22.69229 -15.5041,18.88309 -3.3592,-7.61838 27.6214,-45.38802 24.2551,-53.02533 -1.6832,-3.81866 -8.5736,7.53308 -15.4765,18.88655 -6.903,11.35347 -13.8185,22.70867 -15.4993,18.89695 -3.3614,-7.62346 27.6094,-45.42081 24.2408,-53.06325 -1.6843,-3.82122 -8.5716,7.53873 -15.4716,18.90041 -6.8999,11.36169 -13.8125,22.72512 -15.4944,18.91086 -3.3637,-7.62853 27.5974,-45.45371 24.2265,-53.1013 -1.6854,-3.8238 -8.5697,7.5444 -15.4667,18.91434 -6.8969,11.36993 -13.8065,22.74162 -15.4895,18.9248 -3.3661,-7.63362 27.5853,-45.48673 24.2122,-53.13948 -1.6866,-3.82637 -8.5679,7.55009 -15.4618,18.92831 -6.894,11.37822 -13.8006,22.75819 -15.4847,18.93882 -3.3683,-7.63873 27.5733,-45.51987 24.1979,-53.1778 -1.6877,-3.82896 -8.566,7.55581 -15.4569,18.94233 -6.891,11.38653 -13.7946,22.77481 -15.4799,18.95288 -3.3706,-7.64386 27.5614,-45.55313 24.1837,-53.21624 -1.6889,-3.83156 -8.5641,7.56153 -15.4521,18.9564 -6.8879,11.39486 -13.7886,22.79148 -15.475,18.96698 -3.3729,-7.649 27.5493,-45.5865 24.1694,-53.25482 -1.69,-3.83416 -8.5623,7.5673 -15.4472,18.97052 -6.885,11.40323 -13.7827,22.80822 -15.4702,18.98114 -3.3752,-7.65416 27.5374,-45.61998 24.1551,-53.29352 -1.6911,-3.83677 -8.9839,6.61566 -15.8653,18.02727 -6.8815,11.41162 -13.354,23.78243 -13.354,23.78243 m -150.1793,336.99159 c 0,0 -7.4242,18.42835 -10.7353,10.86236 -3.3111,-7.56598 20.5441,-33.09057 40.6115,-78.62013 10.0337,-22.76478 -0.907,-5.00124 -14.8025,17.50713 -13.8954,22.50838 -30.7767,49.76158 -32.4334,45.97614 -1.6566,-3.78545 15.2259,-31.03625 35.0398,-63.17298 19.8139,-32.13674 42.5425,-69.15941 52.825,-92.4886 5.1413,-11.6646 2.0463,-8.24123 -5.5447,3.33679 -7.591,11.57802 -19.6886,31.31068 -32.5721,52.26468 -12.8836,20.95399 -26.5547,43.12931 -37.2226,59.59264 -10.6679,16.46333 -18.3253,27.21467 -19.1542,25.3207 -1.6577,-3.78794 27.2976,-50.57853 59.1217,-102.40576 15.9121,-25.91361 32.5453,-53.08638 46.5055,-76.77255 13.9602,-23.68617 25.2506,-43.88574 30.525,-55.85297 5.2743,-11.96722 -0.7227,-3.73487 -12.7635,15.22677 -12.0408,18.96163 -30.144,48.65256 -49.0946,79.60248 -18.9506,30.94993 -38.7508,63.15885 -54.0412,87.15648 -15.2904,23.99763 -26.0567,39.78397 -26.8861,37.88873 -0.8294,-1.89523 9.8052,-21.11265 26.1499,-48.87271 16.3447,-27.76006 38.3856,-64.06277 60.4288,-100.12856 22.0432,-36.0658 44.0891,-71.89469 60.6047,-98.70713 16.5157,-26.81244 27.5157,-44.60843 27.5157,-44.60843 m 30.2463,-63.4193 c 0,0 -11.7807,20.01353 -29.2268,49.31513 -17.4461,29.30161 -40.576,67.89129 -63.1936,105.04361 -22.6175,37.15232 -44.7197,72.86728 -59.9128,96.41943 -15.1931,23.55215 -23.4529,34.9415 -18.3899,23.44259 5.0631,-11.49891 18.2613,-34.62704 35.0907,-62.97112 16.8295,-28.34408 37.2839,-61.90411 56.9299,-94.26683 19.6459,-32.36271 38.4847,-63.52811 52.1889,-87.08292 13.7043,-23.5548 22.2829,-39.49901 21.4365,-41.41936 -0.8464,-1.92035 -10.2703,12.10447 -23.6556,33.48428 -13.3852,21.37982 -30.7433,50.11462 -47.415,77.61424 -16.6717,27.49961 -32.6549,53.76403 -43.1746,70.20307 -10.5196,16.43904 -15.56,23.05271 -10.3615,11.25082 5.1984,-11.80189 15.4209,-30.21745 27.7449,-51.32233 12.324,-21.10488 26.7476,-44.89908 40.3852,-67.45825 27.2754,-45.11834 51.3969,-85.29656 49.7029,-89.13989 -1.694,-3.84333 -25.8225,36.33943 -46.9974,71.41386 -10.5874,17.53722 -20.4284,33.79736 -26.2836,42.63861 -5.8551,8.84126 -7.7161,10.26363 -2.366,-1.87469 10.7002,-24.27662 28.7938,-54.24274 43.7572,-79.10118 14.9634,-24.85845 26.8067,-44.60923 25.1116,-48.4552 -1.6952,-3.84596 -13.5442,15.91023 -22.2365,30.37071 -8.6923,14.46047 -14.1998,23.62521 -3.1579,-1.40368 11.0419,-25.02888 16.1001,-35.15578 18.419,-39.02545 2.3188,-3.86967 1.8885,-1.48212 1.8885,-1.48212 M 1140.5408,534.1236 c 0,0 -6.5234,12.2239 -13.4754,23.49954 -6.9519,11.27563 -14.33,21.60301 -15.9899,17.80996 -3.3198,-7.58609 27.8054,-45.11269 24.4816,-52.72222 -1.6619,-3.80476 -8.5992,7.47927 -15.5493,18.76558 -6.9501,11.28631 -13.9131,22.57489 -15.574,18.77923 -3.3219,-7.59132 27.7995,-45.15431 24.4723,-52.76712 -1.6636,-3.8064 -8.5991,7.48755 -15.5472,18.78352 -6.9482,11.29598 -13.909,22.59397 -15.571,18.79566 -3.3239,-7.59663 27.791,-45.19196 24.4606,-52.80825 -1.6651,-3.80814 -8.5982,7.49477 -15.5438,18.79946 -6.9455,11.30468 -13.9037,22.61116 -15.5666,18.81014 -3.326,-7.60202 27.7801,-45.22586 24.4466,-52.84581 -1.6668,-3.80998 -8.5968,7.50097 -15.5392,18.81348 -6.9425,11.31251 -13.8973,22.62657 -15.5613,18.82283 -3.3279,-7.6075 27.767,-45.25624 24.4305,-52.88006 -1.6682,-3.81191 -8.5947,7.50624 -15.5335,18.82572 -6.9387,11.31949 -13.8898,22.64033 -15.5547,18.8338 -3.3299,-7.61305 27.7517,-45.28331 24.4124,-52.91119 -1.6697,-3.81393 -8.5921,7.5106 -15.5267,18.83629 -6.9346,11.32568 -13.8814,22.65251 -15.5473,18.84317 -3.3317,-7.61869 27.7346,-45.30731 24.3925,-52.93944 -1.6711,-3.81607 -8.589,7.51412 -15.519,18.84528 -6.9299,11.33115 -13.872,22.66327 -15.5388,18.85107 -3.3336,-7.62442 27.7156,-45.32846 24.3708,-52.96504 -1.6723,-3.8183 -8.5853,7.51686 -15.5102,18.85282 -6.925,11.33595 -13.8619,22.67271 -15.5296,18.8576 -3.3354,-7.63022 27.6951,-45.34698 24.3477,-52.98822 -1.6736,-3.82062 -8.5812,7.51888 -15.5007,18.85903 -6.9196,11.34014 -13.851,22.68092 -15.5196,18.86287 -1.6686,-3.81806 5.7987,-16.04339 12.7149,-27.38542 6.9162,-11.34202 13.2829,-21.80074 9.4546,-22.08556 -3.8282,-0.28482 -10.4097,10.52679 -17.0456,21.4096 -6.6358,10.88281 -13.3261,21.83683 -17.3277,21.83683 -4.0016,0 2.6452,-10.88281 9.2811,-21.76562 6.6359,-10.88282 13.2608,-21.76563 9.2592,-21.76563 -4.0016,0 -10.6265,10.88281 -17.2624,21.76563 -6.6359,10.88281 -13.2827,21.76562 -17.2843,21.76562 -4.0016,0 2.6452,-10.88281 9.2811,-21.76563 6.6359,-10.88281 13.2608,-21.76562 9.2592,-21.76562 -4.0016,0 -10.6265,10.88281 -17.2624,21.76563 -6.6359,10.88281 -13.2827,21.76562 -17.2843,21.76562 -4.0016,0 2.6452,-10.88281 9.2811,-21.76562 6.6359,-10.88282 13.2608,-21.76563 9.2592,-21.76563 -4.0016,0 -10.6265,10.88281 -17.2624,21.76563 -6.6359,10.88281 -13.28268,21.76562 -17.28428,21.76562 -4.0016,0 2.6452,-10.88281 9.28108,-21.76562 6.6359,-10.88282 13.2608,-21.76563 9.2592,-21.76563 -4.0016,0 -10.62653,10.88281 -17.26241,21.76563 -6.63587,10.88281 -13.28268,21.76562 -17.28428,21.76562 -4.0016,0 2.6452,-10.88281 9.28108,-21.76563 6.63588,-10.88281 13.26083,-21.76562 9.25923,-21.76562 -4.0016,0 -10.62655,10.88281 -17.26243,21.76563 -6.63588,10.88281 -13.28268,21.76562 -17.28428,21.76562 -4.0016,0 2.6452,-10.88281 9.28108,-21.76562 6.63587,-10.88282 13.26082,-21.76563 9.25922,-21.76563 -4.0016,0 -10.62655,10.88281 -17.26243,21.76563 -6.63587,10.88281 -13.28267,21.76562 -17.28427,21.76562 -4.00161,0 2.6452,-10.88281 9.28107,-21.76562 6.63588,-10.88282 13.26083,-21.76563 9.25923,-21.76563 -4.0016,0 -10.62655,10.88281 -17.26243,21.76563 -6.63588,10.88281 -13.28268,21.76562 -17.28428,21.76562 -4.0016,0 2.6452,-10.88281 9.28108,-21.76562 6.63588,-10.88282 13.26083,-21.76563 9.25923,-21.76563 -4.0016,0 -10.62656,10.88281 -17.26243,21.76563 -6.63588,10.88281 -13.28268,21.76562 -17.28428,21.76562 -4.0016,0 2.6452,-10.88281 9.28108,-21.76562 6.63587,-10.88282 13.26082,-21.76563 9.25922,-21.76563 -4.0016,0 -10.62655,10.88281 -17.26243,21.76563 -6.63587,10.88281 -13.28268,21.76562 -17.28428,21.76562 -4.0016,0 2.6452,-10.88281 9.28108,-21.76562 6.63588,-10.88282 13.26083,-21.76563 9.25923,-21.76563 -4.0016,0 -10.62655,10.88281 -17.26243,21.76563 -6.63588,10.88281 -13.28268,21.76562 -17.28428,21.76562 -4.0016,0 2.6452,-10.88281 9.28108,-21.76562 6.63587,-10.88282 13.26083,-21.76563 9.25922,-21.76563 -4.0016,0 -10.62655,10.88281 -17.26242,21.76563 -6.63588,10.88281 -13.28268,21.76562 -17.28428,21.76562 -4.0016,0 2.6452,-10.88281 9.28107,-21.76562 6.63588,-10.88282 13.26083,-21.76563 9.25923,-21.76563 -4.0016,0 -10.62655,10.88281 -17.26243,21.76563 -6.63587,10.88281 -13.28268,21.76562 -17.28428,21.76562 -4.0016,0 2.6452,-10.88281 9.28108,-21.76562 6.63588,-10.88282 13.26083,-21.76563 9.25923,-21.76563 -4.0016,0 -10.62655,10.88281 -17.26243,21.76563 -6.63588,10.88281 -13.28268,21.76562 -17.28428,21.76562 -4.0016,0 2.6452,-10.88281 9.28108,-21.76562 6.63587,-10.88282 13.26082,-21.76563 9.25922,-21.76563 -4.0016,0 -10.62655,10.88281 -17.26243,21.76563 -6.63587,10.88281 -13.28267,21.76562 -17.28428,21.76562 -4.0016,0 2.64521,-10.88281 9.28108,-21.76562 6.63588,-10.88282 13.26083,-21.76563 9.25923,-21.76563 -4.0016,0 -10.62655,10.88281 -17.26243,21.76563 -6.63588,10.88281 -13.28268,21.76562 -17.28428,21.76562 -4.0016,0 2.6452,-10.88281 9.28108,-21.76562 6.63588,-10.88282 13.26083,-21.76563 9.25923,-21.76563 -4.00161,0 -10.62656,10.88281 -17.26243,21.76563 -6.63588,10.88281 -13.28268,21.76562 -17.28428,21.76562 -4.0016,0 2.6452,-10.88281 9.28107,-21.76562 6.63588,-10.88282 13.26083,-21.76563 9.25923,-21.76563 -4.0016,0 -10.62655,10.88281 -17.26243,21.76563 -6.63587,10.88281 -13.28268,21.76562 -17.28428,21.76562 -4.0016,0 2.6452,-10.88281 9.28108,-21.76562 6.63588,-10.88282 13.26083,-21.76563 9.25923,-21.76563 -4.0016,0 -10.62655,10.88281 -17.26243,21.76563 -6.63588,10.88281 -13.28268,21.76562 -17.28428,21.76562 -4.0016,0 2.6452,-10.88281 9.28108,-21.76562 6.63587,-10.88282 13.26083,-21.76563 9.25922,-21.76563 -4.0016,0 -10.62655,10.88281 -17.26242,21.76563 -6.63588,10.88281 -13.28268,21.76562 -17.28428,21.76562 -4.00161,0 2.6452,-10.88281 9.28107,-21.76562 6.63588,-10.88282 13.26083,-21.76563 9.25923,-21.76563 -4.0016,0 -10.62655,10.88281 -17.26243,21.76563 -6.63588,10.88281 -13.28268,21.76562 -17.28428,21.76562 -4.0016,0 2.6452,-10.88281 9.28108,-21.76562 6.63588,-10.88282 13.26083,-21.76563 9.25923,-21.76563 -4.0016,0 -10.62656,10.88281 -17.26243,21.76563 -6.63588,10.88281 -13.28268,21.76562 -17.28428,21.76562 -4.0016,0 2.6452,-10.88281 9.28108,-21.76562 6.63587,-10.88282 13.26082,-21.76563 9.25922,-21.76563 -4.0016,0 -10.62655,10.88281 -17.26243,21.76563 -6.63587,10.88281 -13.28267,21.76562 -17.28428,21.76562 -4.0016,0 2.64521,-10.88281 9.28108,-21.76562 6.63588,-10.88282 13.26083,-21.76563 9.25923,-21.76563 -4.0016,0 -10.62655,10.88281 -17.26243,21.76563 -6.63588,10.88281 -13.28268,21.76562 -17.28428,21.76562 -4.0016,0 2.6452,-10.88281 9.28108,-21.76563 6.63587,-10.88281 13.26083,-21.76562 9.25923,-21.76562 -4.00161,0 -10.62656,10.88281 -17.26243,21.76563 -6.63588,10.88281 -13.28268,21.76562 -17.28428,21.76562 -4.0016,0 2.6452,-10.88281 9.28107,-21.76562 6.63588,-10.88282 13.26083,-21.76563 9.25923,-21.76563 -4.0016,0 -10.62655,10.88281 -17.26243,21.76563 -6.63587,10.88281 -13.28268,21.76562 -17.28428,21.76562 -4.0016,0 2.6452,-10.88281 9.28108,-21.76562 6.63588,-10.88282 13.26083,-21.76563 9.25923,-21.76563 -4.0016,0 -10.62655,10.88281 -17.26243,21.76563 -6.63588,10.88281 -13.28268,21.76562 -17.28428,21.76562 -4.0016,0 2.6452,-10.88281 9.28108,-21.76562 6.63587,-10.88282 13.26082,-21.76563 9.25922,-21.76563 -4.0016,0 -10.62655,10.88281 -17.26243,21.76563 -6.63587,10.88281 -13.28267,21.76562 -17.28427,21.76562 -4.00161,0 2.6452,-10.88281 9.28107,-21.76562 6.63588,-10.88282 13.26083,-21.76563 9.25923,-21.76563 -4.0016,0 -10.62655,10.88281 -17.26243,21.76563 -6.63588,10.88281 -13.28268,21.76562 -17.28428,21.76562 -4.0016,0 2.6452,-10.88281 9.28108,-21.76562 6.63588,-10.88282 13.26083,-21.76563 9.25923,-21.76563 -4.0016,0 -10.62656,10.88281 -17.26243,21.76563 -6.63588,10.88281 -13.28268,21.76562 -17.28428,21.76562 -4.0016,0 2.6452,-10.88281 9.28108,-21.76562 6.63587,-10.88282 13.26082,-21.76563 9.25922,-21.76563 -4.0016,0 -10.62655,10.88281 -17.26243,21.76563 -6.63587,10.88281 -13.28268,21.76562 -17.28428,21.76562 -4.0016,0 2.6452,-10.88281 9.28108,-21.76562 6.63588,-10.88282 13.26083,-21.76563 9.25923,-21.76563 -4.0016,0 -10.62655,10.88281 -17.26243,21.76563 -6.63588,10.88281 -13.28268,21.76562 -17.28428,21.76562 -4.0016,0 2.6452,-10.88281 9.28108,-21.76562 6.63587,-10.88282 13.26083,-21.76563 9.25922,-21.76563 -4.0016,0 -10.62655,10.88281 -17.26242,21.76563 -6.63588,10.88281 -13.28268,21.76562 -17.28428,21.76562 -4.0016,0 2.6452,-10.88281 9.28107,-21.76562 6.63588,-10.88282 13.26083,-21.76563 9.25923,-21.76563 -4.0016,0 -10.62655,10.88281 -17.26243,21.76563 -6.63587,10.88281 -13.28268,21.76562 -17.28428,21.76562 -4.0016,0 2.6452,-10.88281 9.28108,-21.76562 6.63588,-10.88282 13.26083,-21.76563 9.25923,-21.76563 -4.0016,0 -10.62655,10.88281 -17.26243,21.76563 -6.63588,10.88281 -13.28268,21.76562 -17.28428,21.76562 -4.0016,0 2.6452,-10.88281 9.28108,-21.76562 6.63587,-10.88282 13.26082,-21.76563 9.25922,-21.76563 -4.0016,0 -10.62655,10.88281 -17.26243,21.76563 -6.63587,10.88281 -13.28267,21.76562 -17.28428,21.76562 -4.0016,0 2.64521,-10.88281 9.28108,-21.76562 6.63588,-10.88282 13.26083,-21.76563 9.25923,-21.76563 -4.0016,0 -10.62655,10.88281 -17.26243,21.76563 -6.63588,10.88281 -13.28268,21.76562 -17.28428,21.76562 -4.0016,0 2.6452,-10.88281 9.28108,-21.76562 6.63588,-10.88282 13.26083,-21.76563 9.25923,-21.76563 -4.00161,0 -10.62656,10.88281 -17.26243,21.76563 -6.63588,10.88281 -13.28268,21.76562 -17.28428,21.76562 -4.0016,0 2.6452,-10.88281 9.28107,-21.76562 6.63588,-10.88282 13.26083,-21.76563 9.25923,-21.76563 -4.0016,0 -10.62655,10.88281 -17.26243,21.76563 -6.63587,10.88281 -13.28268,21.76562 -17.28428,21.76562 -4.0016,0 2.6452,-10.88281 9.28108,-21.76562 6.63588,-10.88282 13.26083,-21.76563 9.25923,-21.76563 -4.0016,0 -10.62655,10.88281 -17.26243,21.76563 -6.63588,10.88281 -13.28268,21.76562 -17.28428,21.76562 -4.0016,0 2.6452,-10.88281 9.28108,-21.76562 6.63587,-10.88282 13.26083,-21.76563 9.25922,-21.76563 -4.0016,0 -10.62655,10.88281 -17.26242,21.76563 -6.63588,10.88281 -13.28268,21.76562 -17.28428,21.76562 -4.00161,0 2.6452,-10.88281 9.28107,-21.76562 6.63588,-10.88282 13.26083,-21.76563 9.25923,-21.76563 -4.0016,0 -10.62655,10.88281 -17.26243,21.76563 -6.63588,10.88281 -13.28268,21.76562 -17.28428,21.76562 -4.0016,0 2.6452,-10.88281 9.28108,-21.76562 6.63588,-10.88282 13.26083,-21.76563 9.25923,-21.76563 -4.0016,0 -10.62656,10.88281 -17.26243,21.76563 -6.63588,10.88281 -13.28268,21.76562 -17.28428,21.76562 -4.0016,0 2.6452,-10.88281 9.28108,-21.76562 6.63587,-10.88282 13.26082,-21.76563 9.25922,-21.76563 -4.0016,0 -10.62655,10.88281 -17.26243,21.76563 -6.63587,10.88281 -13.28267,21.76562 -17.28428,21.76562 -4.0016,0 2.64521,-10.88281 9.28108,-21.76562 6.63588,-10.88282 13.26083,-21.76563 9.25923,-21.76563 -4.0016,0 -10.62655,10.88281 -17.26243,21.76563 -6.63588,10.88281 -13.28268,21.76562 -17.28428,21.76562 -4.0016,0 2.6452,-10.88281 9.28108,-21.76562 6.63587,-10.88282 13.26083,-21.76563 9.25923,-21.76563 -4.00161,0 -10.62656,10.88281 -17.26243,21.76563 -6.63588,10.88281 -13.28268,21.76562 -17.28428,21.76562 -4.0016,0 2.6452,-10.88281 9.28107,-21.76562 6.63588,-10.88282 13.26083,-21.76563 9.25923,-21.76563 -4.0016,0 -10.62655,10.88281 -17.26243,21.76563 -6.63587,10.88281 -13.28268,21.76562 -17.28428,21.76562 -4.0016,0 2.6452,-10.88281 9.28108,-21.76562 6.63588,-10.88282 13.26083,-21.76563 9.25923,-21.76563 -4.0016,0 -10.62655,10.88281 -17.26243,21.76563 -6.63588,10.88281 -13.28268,21.76562 -17.28428,21.76562 -4.0016,0 2.6452,-10.88281 9.28108,-21.76562 6.63587,-10.88282 13.26082,-21.76563 9.25922,-21.76563 -4.0016,0 -10.62655,10.88281 -17.26243,21.76563 -6.63587,10.88281 -13.28267,21.76562 -17.28427,21.76562 -4.00161,0 2.6452,-10.88281 9.28107,-21.76562 6.63588,-10.88282 13.26083,-21.76563 9.25923,-21.76563 -4.0016,0 -10.62655,10.88281 -17.26243,21.76563 -6.63588,10.88281 -13.28268,21.76562 -17.28428,21.76562 -4.0016,0 2.6452,-10.88281 9.28108,-21.76562 6.63588,-10.88282 13.26083,-21.76563 9.25923,-21.76563 -4.0016,0 -10.62656,10.88281 -17.26243,21.76563 -6.63588,10.88281 -13.28268,21.76562 -17.28428,21.76562 -4.0016,0 2.6452,-10.88281 9.28108,-21.76562 6.63587,-10.88282 13.26082,-21.76563 9.25922,-21.76563 -4.0016,0 -10.62655,10.88281 -17.26243,21.76563 -6.63587,10.88281 -13.28268,21.76562 -17.28428,21.76562 -4.0016,0 2.6452,-10.88281 9.28108,-21.76562 6.63588,-10.88282 13.26083,-21.76563 9.25923,-21.76563 -4.0016,0 -10.62655,10.88281 -17.26243,21.76563 -6.63588,10.88281 -13.28268,21.76562 -17.28428,21.76562 -4.0016,0 2.6452,-10.88281 9.28108,-21.76562 6.63587,-10.88282 13.26083,-21.76563 9.25922,-21.76563 -4.0016,0 -10.62655,10.88281 -17.26242,21.76563 -6.63588,10.88281 -13.28268,21.76562 -17.28428,21.76562 -4.0016,0 2.6452,-10.88281 9.28107,-21.76562 6.63588,-10.88282 13.26083,-21.76563 9.25923,-21.76563 -4.0016,0 -10.62655,10.88281 -17.26243,21.76563 -6.63587,10.88281 -13.28268,21.76562 -17.28428,21.76562 -4.0016,0 2.6452,-10.88281 9.28108,-21.76562 6.63588,-10.88282 13.26083,-21.76563 9.25923,-21.76563 -4.0016,0 -10.62656,10.88281 -17.26243,21.76563 -6.63588,10.88281 -13.28268,21.76562 -17.28428,21.76562 -4.0016,0 2.6452,-10.88281 9.28108,-21.76562 6.63587,-10.88282 13.26082,-21.76563 9.25922,-21.76563 -4.0016,0 -10.62655,10.88281 -17.26243,21.76563 -6.63587,10.88281 -13.28267,21.76562 -17.28428,21.76562 -4.0016,0 2.64521,-10.88281 9.28108,-21.76562 6.63588,-10.88282 13.26083,-21.76563 9.25923,-21.76563 -4.0016,0 -10.62655,10.88281 -17.26243,21.76563 -6.63588,10.88281 -13.28268,21.76562 -17.28428,21.76562 -4.0016,0 2.6452,-10.88281 9.28108,-21.76562 6.63588,-10.88282 13.26083,-21.76563 9.25923,-21.76563 -4.00161,0 -10.62656,10.88281 -17.26243,21.76563 -6.63588,10.88281 -13.28268,21.76562 -17.28428,21.76562 -4.0016,0 2.6452,-10.88281 9.28107,-21.76562 6.63588,-10.88282 13.26083,-21.76563 9.25923,-21.76563 -4.0016,0 -10.62655,10.88281 -17.26243,21.76563 -6.63587,10.88281 -13.282676,21.76562 -17.284277,21.76562 -4.001601,0 2.645201,-10.88281 9.281077,-21.76562 6.63588,-10.88282 13.26083,-21.76563 9.25923,-21.76563 -4.0016,0 -10.62655,10.88281 -17.262431,21.76563 -6.635877,10.88281 -13.282679,21.76562 -17.28428,21.76562 -4.001601,0 2.645202,-10.88281 9.281078,-21.76562 6.635877,-10.88282 13.260833,-21.76563 9.259227,-21.76563 -4.001601,0 -10.626552,10.88281 -17.262429,21.76563 -6.635876,10.88281 -13.282679,21.76562 -17.28428,21.76562 -4.0016,0 2.645202,-10.88281 9.281078,-21.76562 6.635877,-10.88282 13.260828,-21.76563 9.259227,-21.76563 -4.001601,0 -10.626552,10.88281 -17.262429,21.76562 -6.635876,10.88282 -13.282678,21.76563 -17.284279,21.76563 -4.001601,0 2.645201,-10.88281 9.281078,-21.76562 6.635876,-10.88282 13.260828,-21.76563 9.259227,-21.76563 -4.001601,0 -10.626553,10.88281 -17.262429,21.76563 -6.635877,10.88281 -13.282679,21.76562 -17.28428,21.76562 -4.001601,0 2.645201,-10.88281 9.281078,-21.76562 6.635876,-10.88282 13.260828,-21.76563 9.259227,-21.76563 -4.001601,0 -10.626552,10.88281 -17.262429,21.76563 -6.635877,10.88281 -13.282679,21.76562 -17.28428,21.76562 -4.001601,0 2.645201,-10.88281 9.281078,-21.76562 6.635877,-10.88282 13.260828,-21.76563 9.259227,-21.76563 -4.001601,0 -11.588197,12.46106 -18.187912,23.28333 -6.5997154,10.82226 -12.208286,20.00573 -12.208286,13.45054 0,-13.11037 22.392996,-36.73387 14.389794,-36.73387 -8.0032017,0 -14.3897901,23.62352 -14.3897901,10.48709 0,-13.13643 2.3849874,-10.48709 2.3849874,-10.48709"
       style="font-size:medium;font-style:normal;font-variant:normal;font-weight:normal;font-stretch:normal;text-indent:0;text-align:start;text-decoration:none;line-height:normal;letter-spacing:normal;word-spacing:normal;text-transform:none;direction:ltr;block-progression:tb;writing-mode:lr-tb;text-anchor:start;baseline-shift:baseline;color:#000000;fill:none;stroke:#000000;stroke-width:4;stroke-miterlimit:4;stroke-opacity:1;stroke-dasharray:none;marker:none;visibility:visible;display:inline;overflow:visible;enable-background:accumulate;font-family:Sans;-inkscape-font-specification:Sans" />
    <path
       inkscape:connector-curvature="0"
       id="path6124"
       d="m -0.3125,435.21875 24.75,0 1022.0313,0 71.4687,163.34375 22.625,51.65625 22.7187,-51.59375 134.4063,-304.90625 134.4375,304.90625 22.6562,51.40625 22.6563,-51.40625 134.4063,-304.9375 134.4062,304.9375 22.6562,51.40625 22.6563,-51.40625 133.8437,-303.625 52.4063,125.03125 6.3437,15.15625 16.4376,0.0312 c 0,0 811.5303,0.93411 1180.0312,0 l 24.75,-0.0625 m -0.125,-49.53125 -24.75,0.0625 c -361.5222,0.91642 -1134.7421,0.0325 -1163.375,0 l -68.3125,-162.96875 -22.25,-53.125 0,5e-5 -23.25,52.6875 -134.4063,304.9375 -134.4062,-304.9375 -22.6562,-51.40625 -22.6563,51.40625 -134.4063,304.9375 -134.4062,-304.9375 -22.6562,-51.40625 -22.6876,51.40625 -134.3124,304.75 -55.375,-126.5 -6.4688,-14.84375 -16.2188,0 -1038.2187,0 -24.75,0"
       style="font-size:medium;font-style:normal;font-variant:normal;font-weight:normal;font-stretch:normal;text-indent:0;text-align:start;text-decoration:none;line-height:normal;letter-spacing:normal;word-spacing:normal;text-transform:none;direction:ltr;block-progression:tb;writing-mode:lr-tb;text-anchor:start;baseline-shift:baseline;color:#000000;fill:none;stroke:#000000;stroke-width:4;stroke-miterlimit:4;stroke-opacity:1;stroke-dasharray:none;marker:none;visibility:visible;display:inline;overflow:visible;enable-background:accumulate;font-family:Sans;-inkscape-font-specification:Sans"
       sodipodi:nodetypes="ccccccccccccccccccsccsccccccccccccccccccc" />
  </g>
</svg>
