<?xml version="1.0" encoding="UTF-8" standalone="no"?>
<!-- Created with Inkscape (http://www.inkscape.org/) -->

<svg
   xmlns:dc="http://purl.org/dc/elements/1.1/"
   xmlns:cc="http://creativecommons.org/ns#"
   xmlns:rdf="http://www.w3.org/1999/02/22-rdf-syntax-ns#"
   xmlns:svg="http://www.w3.org/2000/svg"
   xmlns="http://www.w3.org/2000/svg"
   xmlns:sodipodi="http://sodipodi.sourceforge.net/DTD/sodipodi-0.dtd"
   xmlns:inkscape="http://www.inkscape.org/namespaces/inkscape"
   width="3200"
   height="800"
   id="svg5831"
   version="1.1"
   inkscape:version="0.48.1 r9760"
   sodipodi:docname="New document 17">
  <sodipodi:namedview
     id="base"
     pagecolor="#ffffff"
     bordercolor="#666666"
     borderopacity="1.0"
     inkscape:pageopacity="0.0"
     inkscape:pageshadow="2"
     inkscape:zoom="0.371875"
     inkscape:cx="1600"
     inkscape:cy="400"
     inkscape:document-units="px"
     inkscape:current-layer="1-default"
     showgrid="false"
     inkscape:window-width="1676"
     inkscape:window-height="1006"
     inkscape:window-x="0"
     inkscape:window-y="0"
     inkscape:window-maximized="1" />
  <defs
     id="defs5833">
    <inkscape:path-effect
       effect="rough_hatches"
       id="path-effect6436"
       is_visible="true"
       direction="1500,395 , 26.414828,13.752066"
       dist_rdm="0;1"
       growth="0"
       do_bend="true"
       bender="1500,400 , 5,0"
       bottom_edge_variation="0;1"
       top_edge_variation="0;1"
       bottom_tgt_variation="0;1"
       top_tgt_variation="0;1"
       scale_bf="2"
       scale_bb="2"
       scale_tf="2"
       scale_tb="2"
       top_smth_variation="0;1"
       bottom_smth_variation="0;1"
       fat_output="false"
       stroke_width_top="1"
       stroke_width_bottom="1"
       front_thickness="1"
       back_thickness="0.25" />
  </defs>
  <metadata
     id="metadata5836">
    <rdf:RDF>
      <cc:Work
         rdf:about="">
        <dc:format>image/svg+xml</dc:format>
        <dc:type
           rdf:resource="http://purl.org/dc/dcmitype/StillImage" />
        <dc:title></dc:title>
      </cc:Work>
    </rdf:RDF>
  </metadata>
  <g
     inkscape:label="1-RED"
     inkscape:groupmode="layer"
     id="1-default">
    <path
       transform="matrix(1,0,-0.49999826,0.86602641,0,0)"
       style="color:#000000;fill:none;stroke:#ff0000;stroke-width:4.2982769;stroke-linecap:round;stroke-linejoin:round;stroke-miterlimit:4;stroke-dashoffset:0;stroke-opacity:1;marker:none;visibility:visible;display:inline;overflow:visible;enable-background:accumulate"
       d="m 232.93903,2.3093984 196,0 0,919.1405616 -196,0 z"
       id="rect5839" />
    <path
       transform="matrix(1,0,-0.49999826,0.86602641,0,0)"
       style="color:#000000;fill:none;stroke:#ff0000;stroke-width:4.2982769;stroke-linecap:round;stroke-linejoin:round;stroke-miterlimit:4;stroke-dashoffset:0;stroke-opacity:1;marker:none;visibility:visible;display:inline;overflow:visible;enable-background:accumulate"
       d="m 632.93903,2.3093984 196,0 0,919.1405616 -196,0 z"
       id="rect6349" />
    <path
       transform="matrix(1,0,-0.49999826,0.86602641,0,0)"
       style="color:#000000;fill:none;stroke:#ff0000;stroke-width:4.2982769;stroke-linecap:round;stroke-linejoin:round;stroke-miterlimit:4;stroke-dashoffset:0;stroke-opacity:1;marker:none;visibility:visible;display:inline;overflow:visible;enable-background:accumulate"
       d="m 1032.9391,2.3093984 196,0 0,919.1405616 -196,0 z"
       id="rect6351" />
    <path
       transform="matrix(1,0,-0.49999826,0.86602641,0,0)"
       style="color:#000000;fill:none;stroke:#ff0000;stroke-width:4.2982769;stroke-linecap:round;stroke-linejoin:round;stroke-miterlimit:4;stroke-dashoffset:0;stroke-opacity:1;marker:none;visibility:visible;display:inline;overflow:visible;enable-background:accumulate"
       d="m 1432.9391,2.3093984 196,0 0,919.1405616 -196,0 z"
       id="rect6353" />
    <path
       transform="matrix(1,0,-0.49999826,0.86602641,0,0)"
       style="color:#000000;fill:none;stroke:#ff0000;stroke-width:4.2982769;stroke-linecap:round;stroke-linejoin:round;stroke-miterlimit:4;stroke-dashoffset:0;stroke-opacity:1;marker:none;visibility:visible;display:inline;overflow:visible;enable-background:accumulate"
       d="m 1832.9391,2.3093984 196,0 0,919.1405616 -196,0 z"
       id="rect6355" />
    <path
       transform="matrix(1,0,-0.49999826,0.86602641,0,0)"
       style="color:#000000;fill:none;stroke:#ff0000;stroke-width:4.2982769;stroke-linecap:round;stroke-linejoin:round;stroke-miterlimit:4;stroke-dashoffset:0;stroke-opacity:1;marker:none;visibility:visible;display:inline;overflow:visible;enable-background:accumulate"
       d="m 2232.939,2.3093984 196,0 0,919.1405616 -196,0 z"
       id="rect6357" />
    <path
       transform="matrix(1,0,-0.49999826,0.86602641,0,0)"
       style="color:#000000;fill:none;stroke:#ff0000;stroke-width:4.2982769;stroke-linecap:round;stroke-linejoin:round;stroke-miterlimit:4;stroke-dashoffset:0;stroke-opacity:1;marker:none;visibility:visible;display:inline;overflow:visible;enable-background:accumulate"
       d="m 2632.939,2.3093984 196,0 0,919.1405616 -196,0 z"
       id="rect6359" />
    <path
       transform="matrix(1,0,-0.49999826,0.86602641,0,0)"
       style="color:#000000;fill:none;stroke:#ff0000;stroke-width:4.2982769;stroke-linecap:round;stroke-linejoin:round;stroke-miterlimit:4;stroke-dashoffset:0;stroke-opacity:1;marker:none;visibility:visible;display:inline;overflow:visible;enable-background:accumulate"
       d="m 3032.939,2.3093984 196,0 0,919.1405616 -196,0 z"
       id="rect6361" />
    <path
       style="color:#000000;fill:none;stroke:#ff0000;stroke-width:3.99999976;stroke-linecap:round;stroke-linejoin:round;stroke-miterlimit:4;stroke-opacity:1;stroke-dashoffset:0;marker:none;visibility:visible;display:inline;overflow:visible;enable-background:accumulate"
       d="m 420.56382,4.875 c 0,0 3.30368,-4.79082684 -1.23861,4.0401851 -4.54229,8.8310119 -16.91449,31.2838629 -48.37271,85.7712179 -15.72911,27.243677 -20.70862,35.252307 -19.4187,31.940677 1.28992,-3.31163 8.84354,-17.94352 18.14477,-35.980862 C 388.28105,54.571528 413.84893,4.875 410.49149,4.875 c -3.35744,0 -28.88323,49.658484 -61.97877,113.78296 -33.09554,64.12447 -73.79345,142.71493 -107.20114,200.57889 -16.70385,28.93198 -14.85215,23.75035 -2.78388,-0.29632 12.06827,-24.04668 34.33468,-66.95841 58.41322,-113.48664 C 321.01946,158.92567 346.9066,108.78094 366.334,70.268277 385.76141,31.75561 398.74045,4.875 397.06172,4.875 c -1.67872,0 -16.32732,26.867501 -38.51611,69.10494 -22.1888,42.23744 -51.92912,99.84482 -83.77452,161.32457 -31.8454,61.47975 -65.79874,126.83188 -96.29053,184.55883 -30.4918,57.72694 -57.51644,107.8287 -75.40214,138.80771 -17.885697,30.97901 -8.704904,11.85626 14.97293,-34.25355 23.67784,-46.10982 61.81277,-119.2067 101.796,-196.17596 C 259.83058,251.27228 301.65638,170.43065 333.01928,108.83133 364.38218,47.232006 385.31068,4.875 383.63196,4.875 c -1.67872,0 -25.69112,45.099212 -61.3941,113.46327 C 286.53488,186.70232 239.10878,278.33121 190.70292,371.39058 142.29706,464.44995 92.909451,558.93978 53.642765,633.02572 14.376078,707.11166 -14.741145,760.7937 -22.445923,772.23746 -30.1507,783.68123 -8.7168321,741.44296 27.503454,671.64844 63.72374,601.85391 114.68433,504.50313 166.1208,405.72188 217.55726,306.94063 269.4672,206.72891 308.03778,131.2125 346.60837,55.696096 371.88091,4.875 370.20219,4.875 c -1.67872,0 -27.89487,49.390625 -66.56285,123.47656 C 264.97137,202.4375 213.81251,301.21875 162.3851,400 110.95768,498.78125 59.261716,597.5625 19.94921,671.64844 -19.363295,745.73437 -46.253276,795.125 -47.931997,795.125 c -1.678721,0 23.532539,-49.39063 62.005684,-123.47656 C 52.546832,597.5625 104.2428,498.78125 155.67021,400 207.09763,301.21875 258.25648,202.4375 296.0851,128.35156 333.91371,54.265625 358.45114,4.875 356.77242,4.875 355.0937,4.875 328.87755,54.265625 290.20958,128.35156 251.5416,202.4375 200.38274,301.21875 148.95533,400 97.527917,498.78125 45.831949,597.5625 6.5194433,671.64844 -32.793062,745.73437 -59.683043,795.125 -61.361764,795.125 c -1.678721,0 23.532539,-49.39063 62.00568426,-123.47656 C 39.117065,597.5625 90.813033,498.78125 142.24045,400 193.66786,301.21875 244.82672,202.4375 282.65533,128.35156 320.48395,54.265625 345.02138,4.875 343.34266,4.875 c -1.67872,0 -27.89488,49.390625 -66.56285,123.47656 C 238.11183,202.4375 186.95298,301.21875 135.52556,400 84.09815,498.78125 32.402182,597.5625 -6.9103236,671.64844 -46.222829,745.73437 -73.11281,795.125 -74.791531,795.125 c -1.678721,0 23.532539,-49.39063 62.005684,-123.47656 C 25.687299,597.5625 77.383266,498.78125 128.81068,400 180.23809,301.21875 231.39695,202.4375 269.22556,128.35156 307.05418,54.265625 331.59161,4.875 329.91289,4.875 c -1.67872,0 -27.89487,49.390625 -66.56285,123.47656 C 224.68207,202.4375 173.52321,301.21875 122.0958,400 70.668383,498.78125 18.972415,597.5625 -20.340091,671.64844 -59.652596,745.73437 -86.542577,795.125 -88.221298,795.125 c -1.678721,0 23.532539,-49.39063 62.005684,-123.47656 C 12.257532,597.5625 63.953499,498.78125 115.38091,400 166.80833,301.21875 217.96718,202.4375 255.7958,128.35156 293.62441,54.265625 318.16184,4.875 316.48312,4.875 314.8044,4.875 288.58825,54.265625 249.92027,128.35156 211.2523,202.4375 160.09344,301.21875 108.66603,400 57.238616,498.78125 5.5426482,597.5625 -33.769857,671.64844 -73.082363,745.73437 -99.972344,795.125 -101.65106,795.125 c -1.67873,0 23.532534,-49.39063 62.00568,-123.47656 C -1.1722353,597.5625 50.523732,498.78125 101.95115,400 153.37856,301.21875 204.53742,202.4375 242.36603,128.35156 280.19464,54.265625 304.73208,4.875 303.05336,4.875 c -1.67873,0 -27.89488,49.390625 -66.56285,123.47656 C 197.82253,202.4375 146.66368,301.21875 95.236262,400 43.808849,498.78125 -7.8871187,597.5625 -47.199624,671.64844 -86.51213,745.73437 -113.40211,795.125 -115.08083,795.125 c -1.67872,0 23.532537,-49.39063 62.005683,-123.47656 C -14.602002,597.5625 37.093966,498.78125 88.521379,400 139.94879,301.21875 191.10765,202.4375 228.93626,128.35156 266.76488,54.265625 291.30231,4.875 289.62359,4.875 c -1.67872,0 -27.89487,49.390625 -66.56285,123.47656 C 184.39277,202.4375 133.23391,301.21875 81.806495,400 30.379082,498.78125 -21.316886,597.5625 -60.629391,671.64844 -99.941897,745.73438 -126.83188,795.125 -128.5106,795.125 c -1.67872,0 23.53254,-49.39062 62.005686,-123.47656 C -28.031769,597.5625 23.664199,498.78125 75.091612,400 126.51902,301.21875 177.67788,202.4375 215.5065,128.35156 253.33511,54.265625 277.87254,4.875 276.19382,4.875 274.5151,4.875 248.29895,54.265625 209.63097,128.35156 170.963,202.4375 119.80414,301.21875 68.376728,400 16.949315,498.78125 -34.746653,597.5625 -74.059158,671.64844 -113.37166,745.73437 -140.26164,795.125 -141.94037,795.125 c -1.67872,0 23.53254,-49.39063 62.005689,-123.47656 C -41.461536,597.5625 10.234432,498.78125 61.661845,400 113.08926,301.21875 164.24812,202.4375 202.07673,128.35156 239.90534,54.265625 264.44278,4.875 262.76406,4.875 c -1.67873,0 -27.89488,49.390625 -66.56285,123.47656 C 157.53323,202.4375 106.37437,301.21875 54.946961,400 3.5195482,498.78125 -48.176419,597.5625 -87.488925,671.64844 -126.80143,745.73437 -153.69141,795.125 -155.37013,795.125 c -1.67872,0 23.53254,-49.39063 62.005682,-123.47656 C -54.891303,597.5625 -3.1953352,498.78125 48.232078,400 99.659491,301.21875 150.81835,202.4375 188.64696,128.35156 226.47558,54.265625 251.01301,4.875 249.33429,4.875 c -1.67872,0 -27.89488,49.390625 -66.56285,123.47656 C 144.10347,202.4375 92.944607,301.21875 41.517194,400 -9.9102187,498.78125 -61.606186,597.5625 -100.91869,671.64844 -140.2312,745.73437 -167.12118,795.125 -168.7999,795.125 c -1.67872,0 23.77386,-49.84824 62.48615,-124.3918 C -67.601466,596.18965 -15.669258,496.95078 35.755259,398.16953 87.179777,299.38828 138.09734,201.06465 175.2172,128.35156 212.33705,55.638474 235.70045,8.5359305 232.13852,12.196861 228.57658,15.857791 201.64425,66.621265 162.96161,140.7072 124.27898,214.79314 73.810527,312.20154 23.32188,409.15233 c -50.488646,96.95078 -100.996788,193.44395 -139.35206,265.69942 -38.35528,72.25547 -64.52077,120.27325 -66.19949,120.27325 -1.67872,0 21.31187,-45.18748 55.57314,-111.22566 C -92.395253,617.86116 -46.895786,530.97228 -3.4111613,447.56949 40.073464,364.16669 81.548681,284.24998 108.11005,232.15613 c 26.56136,-52.09385 38.25225,-76.36484 22.15076,-48.47618 -16.10148,27.88865 -43.935453,80.0483 -76.847114,142.60039 -32.911661,62.5521 -70.91025,135.49665 -107.217625,204.95512 -36.307374,69.45846 -70.920431,135.43085 -96.891651,184.03862 -25.97121,48.60777 -43.28513,79.85092 -44.96385,79.85092 -1.67872,0 13.95947,-31.25393 37.21009,-76.27806 23.25063,-45.02414 54.09827,-103.81848 82.915489,-158.89932 28.817215,-55.08084 55.608162,-106.44817 70.9068911,-136.61828 15.2987289,-30.17012 19.1289769,-39.143 1.9770657,-9.43495 -17.1519108,29.70805 -38.1616988,68.38898 -60.1702428,109.69961 -22.008544,41.31063 -45.016913,85.25095 -66.120203,125.47777 -42.20658,80.45363 -76.79142,146.05323 -80.14886,146.05323 -3.35744,0 31.22713,-65.66006 57.31999,-115.35135 13.04643,-24.84565 23.9802,-45.69911 27.05087,-52.35677 3.07067,-6.65766 -1.71248,0.88047 -20.15158,32.81801 -36.8782,63.87506 -55.48842,97.59759 -64.83815,115.35135 -9.34972,17.75376 -9.45346,19.53876 -9.45346,19.53876 M 766.796,101.84453 c 0,0 13.34466,-24.242385 25.83115,-48.484766 C 805.11364,29.117382 816.74194,4.875 813.3845,4.875 c -3.35744,0 -22.71816,37.665282 -49.50305,89.601471 -26.78489,51.936189 -61.01533,118.143289 -93.9725,175.226919 -16.47859,28.54182 -16.13773,26.26095 -6.45631,6.78488 9.68141,-19.47607 28.68838,-56.14735 49.49588,-96.38635 20.80751,-40.239 43.41244,-84.045733 60.3796,-117.792712 C 790.29528,28.562229 801.63345,4.875 799.95473,4.875 c -3.35744,0 -52.03599,94.700147 -108.94315,204.65099 -28.45358,54.97543 -58.9619,113.76353 -86.7821,166.43312 -27.82021,52.66959 -52.94841,99.22068 -70.55836,129.72208 -17.60995,30.5014 -10.05444,14.45172 11.04392,-26.77985 C 565.8134,437.66977 600.42013,371.25632 636.86991,301.0302 673.31968,230.80407 711.60727,156.76527 740.32227,100.28301 769.03726,43.800737 788.20369,4.875 786.52496,4.875 c -1.67872,0 -22.99079,39.841459 -55.06362,101.19518 -32.07283,61.35371 -74.93167,144.21969 -119.64273,230.26872 -44.71105,86.04903 -91.27806,175.28111 -130.48861,249.36705 -39.21055,74.08594 -71.04686,133.02573 -86.1232,158.49017 -15.07635,25.46444 1.72953,-8.01091 35.18966,-72.54768 C 463.85659,607.11167 513.9155,511.51347 565.36305,412.73222 616.8106,313.95097 669.64112,211.98667 709.12092,134.71767 748.60073,57.44868 774.77392,4.875 773.0952,4.875 c -1.67872,0 -27.89488,49.390625 -66.56285,123.47656 C 667.86438,202.4375 616.70552,301.21875 565.2781,400 513.85069,498.78125 462.15472,597.5625 422.84222,671.64844 383.52971,745.73437 356.63973,795.125 354.96101,795.125 c -1.67872,0 23.53254,-49.39063 62.00568,-123.47656 C 455.43984,597.5625 507.13581,498.78125 558.56322,400 609.99063,301.21875 661.14949,202.4375 698.97811,128.35156 736.80672,54.265625 761.34415,4.875 759.66543,4.875 c -1.67872,0 -27.89487,49.390625 -66.56285,123.47656 C 654.43461,202.4375 603.27575,301.21875 551.84834,400 500.42092,498.78125 448.72496,597.5625 409.41245,671.64844 370.09994,745.73437 343.20996,795.125 341.53124,795.125 c -1.67872,0 23.53254,-49.39063 62.00569,-123.47656 C 442.01007,597.5625 493.70604,498.78125 545.13345,400 596.56087,301.21875 647.71972,202.4375 685.54834,128.35156 723.37695,54.265625 747.91438,4.875 746.23566,4.875 c -1.67872,0 -27.89487,49.390625 -66.56284,123.47656 C 641.00484,202.4375 589.84598,301.21875 538.41857,400 486.99116,498.78125 435.29519,597.5625 395.98268,671.64844 356.67018,745.73437 329.7802,795.125 328.10148,795.125 c -1.67872,0 23.53254,-49.39063 62.00568,-123.47656 C 428.58031,597.5625 480.27627,498.78125 531.70369,400 583.1311,301.21875 634.28996,202.4375 672.11857,128.35156 709.94719,54.265625 734.48462,4.875 732.8059,4.875 c -1.67872,0 -27.89488,49.390625 -66.56285,123.47656 C 627.57507,202.4375 576.41622,301.21875 524.9888,400 473.56139,498.78125 421.86542,597.5625 382.55292,671.64844 343.24041,745.73437 316.35043,795.125 314.67171,795.125 c -1.67872,0 23.53254,-49.39063 62.00568,-123.47656 C 415.15054,597.5625 466.84651,498.78125 518.27392,400 569.70133,301.21875 620.86019,202.4375 658.6888,128.35156 696.51742,54.265625 721.05485,4.875 719.37613,4.875 c -1.67872,0 -27.89487,49.390625 -66.56285,123.47656 C 614.14531,202.4375 562.98645,301.21875 511.55904,400 460.13162,498.78125 408.43566,597.5625 369.12315,671.64844 329.81064,745.73437 302.92066,795.125 301.24194,795.125 c -1.67872,0 23.53254,-49.39063 62.00569,-123.47656 C 401.72077,597.5625 453.41674,498.78125 504.84415,400 556.27157,301.21875 607.43042,202.4375 645.25904,128.35156 683.08765,54.265625 707.62508,4.875 705.94636,4.875 c -1.67872,0 -27.89487,49.390625 -66.56284,123.47656 C 600.71554,202.4375 549.55668,301.21875 498.12927,400 446.70186,498.78125 395.00589,597.5625 355.69338,671.64844 316.38088,745.73437 289.4909,795.125 287.81218,795.125 c -1.67873,0 23.53253,-49.39063 62.00568,-123.47656 C 388.29101,597.5625 439.98697,498.78125 491.41439,400 542.8418,301.21875 594.00066,202.4375 631.82927,128.35156 669.65789,54.265625 694.19532,4.875 692.5166,4.875 c -1.67872,0 -27.89488,49.390625 -66.56285,123.47656 C 587.28577,202.4375 536.12692,301.21875 484.6995,400 433.27209,498.78125 381.57612,597.5625 342.26362,671.64844 302.95111,745.73437 276.06113,795.125 274.38241,795.125 c -1.67872,0 23.53254,-49.39063 62.00568,-123.47656 C 374.86124,597.5625 426.55721,498.78125 477.98462,400 529.41203,301.21875 580.57089,202.4375 618.3995,128.35156 656.22812,54.265625 680.76555,4.875 679.08683,4.875 c -1.67872,0 -27.89487,49.390625 -66.56285,123.47656 C 573.85601,202.4375 522.69715,301.21875 471.26974,400 419.84232,498.78125 368.14635,597.5625 328.83385,671.64844 289.52134,745.73437 262.63136,795.125 260.95264,795.125 c -1.67872,0 23.53254,-49.39063 62.00569,-123.47656 C 361.43147,597.5625 413.12744,498.78125 464.55485,400 515.98227,301.21875 567.14112,202.4375 604.96974,128.35156 642.79835,54.265625 667.33578,4.875 665.65706,4.875 c -1.67872,0 -27.89487,49.390625 -66.56285,123.47656 C 560.42624,202.4375 509.26738,301.21875 457.83997,400 406.41256,498.78125 354.71659,597.5625 315.40408,671.64844 276.09158,745.73437 249.2016,795.125 247.52287,795.125 c -1.67872,0 23.53254,-49.39063 62.00569,-123.47656 C 348.0017,597.5625 399.69767,498.78125 451.12509,400 502.5525,301.21875 553.71136,202.4375 591.53997,128.35156 629.36858,54.265625 653.90602,4.875 652.2273,4.875 c -1.67873,0 -27.89488,49.390625 -66.56285,123.47656 C 546.99647,202.4375 495.83761,301.21875 444.4102,400 392.98279,498.78125 341.28682,597.5625 301.97432,671.64844 262.66181,745.73437 235.77183,795.125 234.09311,795.125 c -1.67872,0 23.53254,-49.39063 62.00568,-123.47656 C 334.57194,597.5625 386.26791,498.78125 437.69532,400 489.12273,301.21875 540.28159,202.4375 578.1102,128.35156 615.93882,54.265625 640.47625,4.875 638.79753,4.875 c -1.67872,0 -27.89488,49.390625 -66.56285,123.47656 C 533.56671,202.4375 482.40785,301.21875 430.98043,400 379.55302,498.78125 327.85705,597.5625 288.54455,671.64844 249.23204,745.73437 222.34206,795.125 220.66334,795.125 c -1.67872,0 22.84158,-48.08552 59.38908,-118.49263 36.54749,-70.40711 85.08534,-163.13582 131.60415,-252.42218 46.51881,-89.28637 91.02426,-175.1304 119.90304,-231.76815 28.87878,-56.63776 42.17909,-84.06926 26.27965,-56.53055 -15.89944,27.53871 -45.14348,82.5089 -80.30341,149.47368 -35.15992,66.96477 -76.24759,145.92412 -115.69237,221.44113 -39.44479,75.51702 -77.24329,147.59169 -105.61955,200.78711 -28.37627,53.19542 -47.31164,87.51159 -48.99036,87.51159 -1.67872,0 15.58032,-34.32624 41.26147,-83.98522 25.68115,-49.65898 59.76576,-114.6507 91.82857,-175.98165 32.06281,-61.33096 62.10827,-119.00116 79.90799,-154.0171 17.79971,-35.01593 23.38124,-47.37761 6.47295,-18.09153 -16.90829,29.28608 -39.42898,70.93384 -63.85512,116.93206 -24.42615,45.99822 -50.75999,96.3469 -75.23334,143.03481 -48.94671,93.37584 -90.45484,172.10863 -93.81228,172.10863 -1.67872,0 7.86426,-19.69719 21.95812,-47.27955 14.09386,-27.58235 32.73262,-63.04987 49.2812,-94.59052 16.54857,-31.54065 31.00993,-59.15444 36.8072,-71.02933 5.79726,-11.87488 2.94234,-8.01087 -15.19504,23.40407 -36.27477,62.82987 -62.02305,110.20371 -78.68537,141.87007 C 191.30759,779.1661 183.73148,795.125 183.73148,795.125 M 1193.7891,55.091018 c 0,0 29.2033,-50.216018 22.4884,-50.216018 -3.3574,0 -16.6299,25.821652 -37.1948,65.726848 -20.5649,39.905202 -48.4329,93.893942 -80.9574,150.228122 -16.2622,28.16709 -17.41,28.75345 -10.0785,13.789 7.3314,-14.96445 23.1302,-45.47971 40.7166,-79.51585 17.5864,-34.03614 36.9577,-71.593174 51.5002,-100.641168 C 1194.8062,25.413958 1204.5265,4.875 1202.8477,4.875 c -3.3574,0 -45.5646,82.110382 -95.7981,179.24337 -25.1167,48.56649 -52.2391,100.88863 -77.4366,148.58045 -25.1976,47.69182 -48.46788,90.75331 -65.81445,120.79852 -17.34657,30.0452 -11.38994,17.0289 7.17375,-19.39597 18.5637,-36.42486 49.705,-96.25831 82.6827,-159.8474 32.9776,-63.58909 67.7869,-130.93383 93.8979,-182.381304 26.111,-51.44747 43.5438,-86.997666 41.8651,-86.997666 -1.6787,0 -20.7786,35.53413 -49.7313,90.857676 -28.9526,55.323544 -67.7779,130.436504 -108.8689,209.594164 -41.09102,79.15766 -84.45175,162.36002 -122.25629,233.86237 -37.80454,71.50235 -70.04108,131.30468 -88.72271,163.66228 -18.68163,32.3576 -5.07161,4.91287 25.65309,-54.45538 C 876.2166,589.02786 923.999,497.7361 973.63665,402.39964 1023.2743,307.06318 1074.76,207.68202 1113.3475,132.13498 1151.935,56.58793 1177.6669,4.875 1175.9882,4.875 c -1.6787,0 -27.8949,49.390625 -66.5628,123.47656 C 1070.7574,202.4375 1019.5985,301.21875 968.17111,400 916.7437,498.78125 865.04773,597.5625 825.73522,671.64844 786.42272,745.73437 759.53274,795.125 757.85402,795.125 c -1.67872,0 23.53254,-49.39063 62.00568,-123.47656 C 858.33285,597.5625 910.02881,498.78125 961.45623,400 1012.8836,301.21875 1064.0425,202.4375 1101.8711,128.35156 1139.6997,54.265625 1164.2372,4.875 1162.5584,4.875 c -1.6787,0 -27.8948,49.390625 -66.5628,123.47656 C 1057.3276,202.4375 1006.1688,301.21875 954.74134,400 903.31393,498.78125 851.61796,597.5625 812.30546,671.64844 772.99295,745.73437 746.10297,795.125 744.42425,795.125 c -1.67872,0 23.53254,-49.39063 62.00568,-123.47656 C 844.90308,597.5625 896.59905,498.78125 948.02646,400 999.45387,301.21875 1050.6127,202.4375 1088.4413,128.35156 1126.27,54.265625 1150.8074,4.875 1149.1287,4.875 c -1.6787,0 -27.8949,49.390625 -66.5629,123.47656 C 1043.8978,202.4375 992.73899,301.21875 941.31158,400 889.88416,498.78125 838.1882,597.5625 798.87569,671.64844 759.56319,745.73437 732.6732,795.125 730.99448,795.125 c -1.67872,0 23.53254,-49.39063 62.00569,-123.47656 C 831.47331,597.5625 883.16928,498.78125 934.59669,400 986.02411,301.21875 1037.183,202.4375 1075.0116,128.35156 1112.8402,54.265625 1137.3776,4.875 1135.6989,4.875 c -1.6787,0 -27.8949,49.390625 -66.5628,123.47656 C 1030.4681,202.4375 979.30922,301.21875 927.88181,400 876.4544,498.78125 824.75843,597.5625 785.44592,671.64844 746.13342,745.73437 719.24344,795.125 717.56472,795.125 c -1.67872,0 23.53254,-49.39063 62.00568,-123.47656 C 818.04355,597.5625 869.73951,498.78125 921.16693,400 972.59434,301.21875 1023.7532,202.4375 1061.5818,128.35156 1099.4104,54.265625 1123.9479,4.875 1122.2691,4.875 c -1.6787,0 -27.8948,49.390625 -66.5628,123.47656 C 1017.0383,202.4375 965.87946,301.21875 914.45204,400 863.02463,498.78125 811.32866,597.5625 772.01616,671.64844 732.70365,745.73437 705.81367,795.125 704.13495,795.125 c -1.67872,0 23.53254,-49.39063 62.00568,-123.47656 C 804.61378,597.5625 856.30975,498.78125 907.73716,400 959.16457,301.21875 1010.3234,202.4375 1048.152,128.35156 1085.9807,54.265625 1110.5181,4.875 1108.8394,4.875 c -1.6788,0 -27.8949,49.390625 -66.5629,123.47656 C 1003.6085,202.4375 952.44969,301.21875 901.02228,400 849.59486,498.78125 797.8989,597.5625 758.58639,671.64844 719.27388,745.73437 692.3839,795.125 690.70518,795.125 c -1.67872,0 23.53254,-49.39063 62.00569,-123.47656 C 791.18401,597.5625 842.87998,498.78125 894.30739,400 945.73481,301.21875 996.89366,202.4375 1034.7223,128.35156 1072.5509,54.265625 1097.0883,4.875 1095.4096,4.875 c -1.6787,0 -27.8949,49.390625 -66.5628,123.47656 C 990.17878,202.4375 939.01992,301.21875 887.59251,400 836.1651,498.78125 784.46913,597.5625 745.15662,671.64844 705.84412,745.73437 678.95414,795.125 677.27542,795.125 c -1.67872,0 23.53254,-49.39063 62.00568,-123.47656 C 777.75425,597.5625 829.45021,498.78125 880.87763,400 932.30504,301.21875 983.4639,202.4375 1021.2925,128.35156 1059.1211,54.265625 1083.6586,4.875 1081.9798,4.875 c -1.6787,0 -27.8948,49.390625 -66.5628,123.47656 C 976.74901,202.4375 925.59016,301.21875 874.16274,400 822.73533,498.78125 771.03936,597.5625 731.72686,671.64844 692.41435,745.73437 665.52437,795.125 663.84565,795.125 c -1.67872,0 23.53254,-49.39063 62.00568,-123.47656 C 764.32448,597.5625 816.02045,498.78125 867.44786,400 918.87527,301.21875 970.03413,202.4375 1007.8627,128.35156 1045.6914,54.265625 1070.2288,4.875 1068.5501,4.875 c -1.6788,0 -27.8949,49.390625 -66.5629,123.47656 C 963.31925,202.4375 912.16039,301.21875 860.73298,400 809.30556,498.78125 757.6096,597.5625 718.29709,671.64844 678.98458,745.73437 652.0946,795.125 650.41588,795.125 c -1.67872,0 23.53254,-49.39063 62.00569,-123.47656 C 750.89471,597.5625 802.59068,498.78125 854.01809,400 905.44551,301.21875 956.60436,202.4375 994.43298,128.35156 1032.2616,54.265625 1056.799,4.875 1055.1203,4.875 c -1.6787,0 -27.8949,49.390625 -66.56285,123.47656 C 949.88948,202.4375 898.73062,301.21875 847.30321,400 795.8758,498.78125 744.17983,597.5625 704.86732,671.64844 665.55482,745.73437 638.66484,795.125 636.98612,795.125 c -1.67873,0 23.53253,-49.39063 62.00568,-123.47656 C 737.46494,597.5625 789.16091,498.78125 840.58833,400 892.01574,301.21875 943.1746,202.4375 981.00321,128.35156 1018.8318,54.265625 1043.3693,4.875 1041.6905,4.875 c -1.6787,0 -27.8948,49.390625 -66.56281,123.47656 C 936.45971,202.4375 885.30086,301.21875 833.87344,400 782.44603,498.78125 730.75006,597.5625 691.43756,671.64844 652.12505,745.73437 625.23507,795.125 623.55635,795.125 c -1.67872,0 24.35359,-50.94969 63.1593,-125.67413 38.80571,-74.72444 90.34344,-173.22364 139.85552,-268.32264 49.51208,-95.099 97.00444,-186.79782 128.16538,-247.92151 31.16093,-61.123695 46.04365,-91.672259 30.33889,-64.470759 -15.70477,27.201499 -46.33913,84.951569 -83.71457,156.275819 -37.37544,71.32425 -81.50672,156.2227 -124.04424,237.72095 -42.53753,81.49826 -83.4776,159.59632 -114.22658,217.31983 -30.74899,57.7235 -51.28475,95.07244 -52.96347,95.07244 -1.67872,0 17.18015,-37.35837 45.25852,-91.59083 28.07838,-54.23246 65.35412,-125.33901 100.61366,-192.83536 35.25954,-67.49635 68.50761,-131.38251 88.76571,-171.17418 20.25809,-39.79167 27.55781,-55.48886 10.88306,-26.60728 -16.67475,28.88158 -40.6832,73.46035 -67.48779,124.08261 -26.80459,50.62226 -56.40907,107.28802 -84.19847,160.34358 C 648.38247,703.45467 600.05426,795.125 596.69681,795.125 c -1.67872,0 9.56933,-22.93057 26.22739,-55.3941 16.65806,-32.46353 38.71795,-74.46002 58.70881,-112.59185 19.99086,-38.13184 37.91599,-72.39902 46.38691,-89.40395 8.47091,-17.00492 7.50241,-16.74758 -10.34761,14.16964 -35.70003,61.83442 -67.60818,122.63949 -91.4487,167.98595 -23.84052,45.34646 -39.59912,75.23431 -42.95656,75.23431 -6.71489,0 24.5177,-52.94198 24.5177,-52.94198 M 1620.4613,8.8931986 c 0,0 5.4241,-4.0181986 -1.2908,-4.0181986 -3.3574,0 -10.6156,14.121991 -25.0477,42.147317 -14.4321,28.025326 -36.0384,69.953983 -68.1467,125.567323 -16.0541,27.80667 -18.6691,31.22784 -13.6521,20.71834 5.017,-10.50949 17.6566,-34.94966 32.0697,-62.86566 28.8262,-55.831991 64.7045,-125.56732 61.347,-125.56732 -3.3574,0 -39.1816,69.69291 -82.8466,154.1903 -21.8325,42.24869 -45.6252,88.1985 -68.2468,130.98838 -22.6215,42.78988 -44.0706,82.41983 -61.1653,112.02878 -17.0947,29.60896 -12.7116,19.58797 3.3602,-12.09855 16.0719,-31.68652 43.8076,-85.03857 73.3716,-142.09175 29.564,-57.05317 60.952,-117.80746 84.5009,-164.298457 C 1578.2636,37.102705 1593.9897,4.875 1592.311,4.875 c -1.6787,0 -19.073,32.212863 -45.432,82.520557 -26.359,50.307693 -61.6991,118.710223 -99.2404,191.089543 -37.5412,72.37933 -77.2871,148.73545 -112.2786,214.95035 -34.9915,66.21489 -65.2194,122.28856 -83.5874,154.10296 -18.368,31.8144 -6.4582,7.55513 21.5582,-46.72936 28.0164,-54.28449 72.0894,-138.59422 118.0162,-226.88075 45.9268,-88.28652 93.7008,-180.54985 129.5131,-250.74154 C 1556.6724,52.995063 1580.5599,4.875 1578.8812,4.875 c -1.6787,0 -27.8949,49.390625 -66.5628,123.47656 -38.668,74.08594 -89.8269,172.86719 -141.2543,271.64844 -51.4274,98.78125 -103.1234,197.5625 -142.4359,271.64844 -39.3125,74.08593 -66.2025,123.47656 -67.8812,123.47656 -1.6787,0 23.5326,-49.39063 62.0057,-123.47656 C 1261.2259,597.5625 1312.9218,498.78125 1364.3492,400 1415.7766,301.21875 1466.9355,202.4375 1504.7641,128.35156 1542.5927,54.265625 1567.1302,4.875 1565.4514,4.875 c -1.6787,0 -27.8948,49.390625 -66.5628,123.47656 -38.668,74.08594 -89.8268,172.86719 -141.2542,271.64844 -51.4275,98.78125 -103.1234,197.5625 -142.4359,271.64844 -39.3125,74.08593 -66.2025,123.47656 -67.8812,123.47656 -1.6788,0 23.5325,-49.39063 62.0056,-123.47656 C 1247.7961,597.5625 1299.4921,498.78125 1350.9195,400 1402.3469,301.21875 1453.5057,202.4375 1491.3344,128.35156 1529.163,54.265625 1553.7004,4.875 1552.0217,4.875 c -1.6787,0 -27.8949,49.390625 -66.5629,123.47656 C 1446.7909,202.4375 1395.632,301.21875 1344.2046,400 c -51.4274,98.78125 -103.1234,197.5625 -142.4359,271.64844 -39.3125,74.08593 -66.2025,123.47656 -67.8812,123.47656 -1.6787,0 23.5325,-49.39063 62.0057,-123.47656 C 1234.3663,597.5625 1286.0623,498.78125 1337.4897,400 1388.9171,301.21875 1440.076,202.4375 1477.9046,128.35156 1515.7332,54.265625 1540.2706,4.875 1538.5919,4.875 c -1.6787,0 -27.8949,49.390625 -66.5628,123.47656 -38.668,74.08594 -89.8269,172.86719 -141.2543,271.64844 -51.4274,98.78125 -103.1234,197.5625 -142.4359,271.64844 -39.3125,74.08593 -66.2025,123.47656 -67.8812,123.47656 -1.6787,0 23.5326,-49.39063 62.0057,-123.47656 C 1220.9366,597.5625 1272.6325,498.78125 1324.0599,400 1375.4873,301.21875 1426.6462,202.4375 1464.4748,128.35156 1502.3034,54.265625 1526.8409,4.875 1525.1621,4.875 c -1.6787,0 -27.8948,49.390625 -66.5628,123.47656 -38.668,74.08594 -89.8268,172.86719 -141.2542,271.64844 -51.4275,98.78125 -103.1234,197.5625 -142.4359,271.64844 -39.3125,74.08593 -66.2025,123.47656 -67.8812,123.47656 -1.6788,0 23.5325,-49.39063 62.0056,-123.47656 C 1207.5068,597.5625 1259.2028,498.78125 1310.6302,400 1362.0576,301.21875 1413.2164,202.4375 1451.0451,128.35156 1488.8737,54.265625 1513.4111,4.875 1511.7324,4.875 c -1.6787,0 -27.8949,49.390625 -66.5629,123.47656 -38.6679,74.08594 -89.8268,172.86719 -141.2542,271.64844 -51.4274,98.78125 -103.1234,197.5625 -142.4359,271.64844 -39.3125,74.08593 -66.2025,123.47656 -67.8812,123.47656 -1.6787,0 23.5325,-49.39063 62.0057,-123.47656 C 1194.077,597.5625 1245.773,498.78125 1297.2004,400 1348.6278,301.21875 1399.7867,202.4375 1437.6153,128.35156 1475.4439,54.265625 1499.9813,4.875 1498.3026,4.875 c -1.6787,0 -27.8949,49.390625 -66.5628,123.47656 -38.668,74.08594 -89.8269,172.86719 -141.2543,271.64844 -51.4274,98.78125 -103.1234,197.5625 -142.4359,271.64844 -39.3125,74.08593 -66.2025,123.47656 -67.8812,123.47656 -1.6787,0 23.5326,-49.39063 62.0057,-123.47656 C 1180.6473,597.5625 1232.3432,498.78125 1283.7706,400 1335.198,301.21875 1386.3569,202.4375 1424.1855,128.35156 1462.0141,54.265625 1486.5516,4.875 1484.8728,4.875 c -1.6787,0 -27.8948,49.390625 -66.5628,123.47656 -38.668,74.08594 -89.8268,172.86719 -141.2542,271.64844 -51.4275,98.78125 -103.1234,197.5625 -142.4359,271.64844 -39.3125,74.08593 -66.2025,123.47656 -67.8812,123.47656 -1.6788,0 23.5325,-49.39063 62.0056,-123.47656 C 1167.2175,597.5625 1218.9135,498.78125 1270.3409,400 1321.7683,301.21875 1372.9271,202.4375 1410.7558,128.35156 1448.5844,54.265625 1473.1218,4.875 1471.4431,4.875 c -1.6787,0 -27.8949,49.390625 -66.5629,123.47656 C 1366.2123,202.4375 1315.0534,301.21875 1263.626,400 c -51.4274,98.78125 -103.1234,197.5625 -142.4359,271.64844 -39.3125,74.08593 -66.2025,123.47656 -67.8812,123.47656 -1.6787,0 23.5325,-49.39063 62.0057,-123.47656 C 1153.7877,597.5625 1205.4837,498.78125 1256.9111,400 1308.3385,301.21875 1359.4974,202.4375 1397.326,128.35156 1435.1546,54.265625 1459.692,4.875 1458.0133,4.875 c -1.6787,0 -27.8949,49.390625 -66.5628,123.47656 -38.668,74.08594 -89.8269,172.86719 -141.2543,271.64844 -51.4274,98.78125 -103.1234,197.5625 -142.4359,271.64844 -39.3125,74.08593 -66.2025,123.47656 -67.8812,123.47656 -1.6787,0 23.5326,-49.39063 62.0057,-123.47656 C 1140.358,597.5625 1192.0539,498.78125 1243.4813,400 1294.9087,301.21875 1346.0676,202.4375 1383.8962,128.35156 1421.7248,54.265625 1446.2623,4.875 1444.5835,4.875 c -1.6787,0 -27.8948,49.390625 -66.5628,123.47656 -38.668,74.08594 -89.8268,172.86719 -141.2543,271.64844 -51.4274,98.78125 -103.1233,197.5625 -142.4358,271.64844 -39.3125,74.08593 -66.2025,123.47656 -67.8812,123.47656 -1.6788,0 25.0323,-52.23467 64.9914,-129.16464 39.9592,-76.92998 93.123,-178.55527 144.5324,-277.33652 51.4094,-98.78125 101.0695,-194.71846 134.4933,-260.27228 33.4237,-65.553814 50.6647,-100.724236 37.268,-77.971913 -13.3966,22.752324 -44.0756,80.675073 -82.8346,154.761003 -38.7591,74.08594 -85.618,164.33507 -131.2024,251.74016 -45.5843,87.40509 -89.8907,171.96613 -123.2511,234.67591 -33.3604,62.70978 -55.7481,103.56828 -57.4268,103.56828 -1.6787,0 18.7597,-40.35183 49.2033,-99.09874 30.4436,-58.7469 70.8663,-135.88888 109.2756,-209.46919 38.4093,-73.5803 74.8102,-143.59893 97.4858,-188.09912 22.6756,-44.5002 31.6619,-63.48196 15.2113,-34.98854 -16.4507,28.49342 -41.9246,75.96861 -71.07,131.15384 -29.1454,55.18523 -61.9679,118.0805 -93.0216,177.41409 -31.0536,59.33359 -60.3359,115.10551 -82.284,156.04402 -21.9481,40.93852 -36.5515,67.04364 -38.23018,67.04364 -1.67872,0 11.24998,-26.1172 30.43338,-63.39035 19.1834,-37.27315 44.6109,-85.70225 67.9869,-130.32605 23.3759,-44.6238 44.7039,-85.4423 55.798,-107.49425 11.0942,-22.05195 11.9725,-25.33735 -5.6034,5.10504 -35.1518,60.88479 -73.9268,134.91119 -104.8175,193.7164 -30.8908,58.8052 -53.8697,102.38921 -57.22715,102.38921 -3.35744,0 10.14947,-27.22529 24.47195,-54.45057 14.3226,-27.22529 29.4607,-54.45058 29.4607,-54.45058 M 2018.7061,4.875 c 0,0 -0.4759,2.5614812 -8.8594,18.852844 -8.3834,16.291362 -24.6645,46.312607 -56.3723,101.232136 -15.8538,27.45976 -19.9152,33.68433 -17.1785,27.57507 2.7367,-6.10926 12.2645,-24.55235 23.5504,-46.42792 C 1982.418,62.356007 2011.9912,4.875 2008.6338,4.875 c -3.3575,0 -32.884,57.441335 -70.0813,129.47825 -37.1974,72.03691 -82.1057,158.66939 -115.8127,217.0517 -16.8535,29.19115 -14.0195,22.1286 -0.3984,-4.88524 13.6211,-27.01384 38.0086,-73.97898 64.2149,-124.59301 26.2063,-50.61403 54.2277,-104.87696 75.2544,-146.486373 C 1982.8374,33.830909 1996.8827,4.875 1995.204,4.875 c -1.6787,0 -17.393,28.942159 -41.1998,74.311508 -23.8068,45.369352 -55.7192,107.165892 -89.7727,172.874642 -34.0536,65.70876 -70.2515,135.32974 -102.4858,196.34796 -32.2342,61.01823 -60.4979,113.4337 -78.5676,144.73145 -18.0697,31.29776 -7.8309,10.18004 17.5279,-39.10153 25.3588,-49.28157 65.7939,-126.72698 108.0798,-208.08462 42.2859,-81.35763 86.4167,-166.62748 119.5041,-231.55793 33.0874,-64.930444 55.163,-109.52148 53.4843,-109.52148 -1.6787,0 -27.4502,48.524621 -65.5196,121.45589 -38.0695,72.93126 -88.4748,170.26917 -139.292,267.89575 -50.8173,97.62658 -102.047,195.54182 -141.3502,269.62776 -39.3033,74.08594 -66.6433,124.34257 -69.5387,126.65191 -2.8955,2.30935 21.5535,-45.63794 59.572,-118.85787 38.0185,-73.21994 89.5661,-171.71252 140.9954,-270.49377 51.4292,-98.78125 102.7396,-197.85117 140.718,-272.22577 37.9783,-74.374607 62.6641,-124.0539 60.9854,-124.0539 -1.6788,0 -27.8949,49.390625 -66.5629,123.47656 -38.668,74.08594 -89.8268,172.86719 -141.2542,271.64844 -51.4275,98.78125 -103.1234,197.5625 -142.4359,271.64844 -39.3125,74.08593 -66.2025,123.47656 -67.8812,123.47656 -1.6788,0 23.5325,-49.39063 62.0056,-123.47656 C 1650.6891,597.5625 1702.3851,498.78125 1753.8125,400 1805.2399,301.21875 1856.3987,202.4375 1894.2274,128.35156 1932.056,54.265625 1956.5934,4.875 1954.9147,4.875 c -1.6787,0 -27.8949,49.390625 -66.5629,123.47656 C 1849.6839,202.4375 1798.525,301.21875 1747.0976,400 c -51.4274,98.78125 -103.1234,197.5625 -142.4359,271.64844 -39.3125,74.08593 -66.2025,123.47656 -67.8812,123.47656 -1.6787,0 23.5325,-49.39063 62.0057,-123.47656 C 1637.2593,597.5625 1688.9553,498.78125 1740.3827,400 1791.8101,301.21875 1842.969,202.4375 1880.7976,128.35156 1918.6262,54.265625 1943.1636,4.875 1941.4849,4.875 c -1.6787,0 -27.8949,49.390625 -66.5628,123.47656 -38.668,74.08594 -89.8269,172.86719 -141.2543,271.64844 -51.4274,98.78125 -103.1234,197.5625 -142.4359,271.64844 -39.3125,74.08593 -66.2024,123.47656 -67.8812,123.47656 -1.6787,0 23.5326,-49.39063 62.0057,-123.47656 C 1623.8296,597.5625 1675.5255,498.78125 1726.9529,400 1778.3804,301.21875 1829.5392,202.4375 1867.3678,128.35156 1905.1964,54.265625 1929.7339,4.875 1928.0552,4.875 c -1.6788,0 -27.8949,49.390625 -66.5629,123.47656 -38.668,74.08594 -89.8268,172.86719 -141.2542,271.64844 -51.4275,98.78125 -103.1234,197.5625 -142.4359,271.64844 -39.3125,74.08593 -66.2025,123.47656 -67.8812,123.47656 -1.6788,0 23.5325,-49.39063 62.0056,-123.47656 C 1610.3998,597.5625 1662.0958,498.78125 1713.5232,400 1764.9506,301.21875 1816.1094,202.4375 1853.9381,128.35156 1891.7667,54.265625 1916.3041,4.875 1914.6254,4.875 c -1.6787,0 -27.8949,49.390625 -66.5629,123.47656 -38.6679,74.08594 -89.8268,172.86719 -141.2542,271.64844 -51.4274,98.78125 -103.1234,197.5625 -142.4359,271.64844 -39.3125,74.08593 -66.2025,123.47656 -67.8812,123.47656 -1.6787,0 23.5325,-49.39063 62.0057,-123.47656 C 1596.97,597.5625 1648.666,498.78125 1700.0934,400 1751.5208,301.21875 1802.6797,202.4375 1840.5083,128.35156 1878.3369,54.265625 1902.8743,4.875 1901.1956,4.875 c -1.6787,0 -27.8949,49.390625 -66.5628,123.47656 -38.668,74.08594 -89.8269,172.86719 -141.2543,271.64844 -51.4274,98.78125 -103.1234,197.5625 -142.4359,271.64844 -39.3125,74.08593 -66.2024,123.47656 -67.8812,123.47656 -1.6787,0 23.5326,-49.39063 62.0057,-123.47656 C 1583.5403,597.5625 1635.2362,498.78125 1686.6636,400 1738.0911,301.21875 1789.2499,202.4375 1827.0785,128.35156 1864.9071,54.265625 1889.4446,4.875 1887.7659,4.875 c -1.6788,0 -27.8949,49.390625 -66.5629,123.47656 -38.668,74.08594 -89.8268,172.86719 -141.2542,271.64844 -51.4275,98.78125 -103.1234,197.5625 -142.4359,271.64844 -39.3125,74.08593 -66.2025,123.47656 -67.8812,123.47656 -1.6788,0 23.5325,-49.39063 62.0056,-123.47656 C 1570.1105,597.5625 1621.8065,498.78125 1673.2339,400 1724.6613,301.21875 1775.8201,202.4375 1813.6488,128.35156 1851.4774,54.265625 1876.0148,4.875 1874.3361,4.875 c -1.6787,0 -27.8949,49.390625 -66.5629,123.47656 C 1769.1053,202.4375 1717.9464,301.21875 1666.519,400 c -51.4274,98.78125 -103.1234,197.5625 -142.4359,271.64844 -39.3125,74.08593 -66.2025,123.47656 -67.8812,123.47656 -1.6787,0 23.5325,-49.39063 62.0057,-123.47656 C 1556.6807,597.5625 1608.3767,498.78125 1659.8041,400 1711.2315,301.21875 1762.3904,202.4375 1800.219,128.35156 1838.0476,54.265625 1862.585,4.875 1860.9063,4.875 c -1.6787,0 -27.8949,49.390625 -66.5628,123.47656 -38.668,74.08594 -89.8269,172.86719 -141.2543,271.64844 -51.4274,98.78125 -103.1234,197.5625 -142.4359,271.64844 -39.3125,74.08593 -66.2024,123.47656 -67.8812,123.47656 -1.6787,0 23.5326,-49.39063 62.0057,-123.47656 C 1543.251,597.5625 1594.9469,498.78125 1646.3743,400 1697.8018,301.21875 1748.9606,202.4375 1786.7892,128.35156 1824.6178,54.265625 1849.1553,4.875 1847.4766,4.875 c -1.6788,0 -27.8949,49.390625 -66.5629,123.47656 -38.668,74.08594 -89.8268,172.86719 -141.2542,271.64844 -51.4275,98.78125 -103.1234,197.5625 -142.4359,271.64844 -39.3125,74.08593 -66.2025,123.47656 -67.8812,123.47656 -1.6788,0 24.263,-50.77587 63.46,-126.24706 39.197,-75.47118 91.608,-175.63768 143.0267,-274.41893 51.4186,-98.78125 101.8472,-196.17725 137.5304,-266.10745 35.6831,-69.930192 56.6666,-112.394578 49.2846,-101.312597 -7.382,11.081982 -35.7684,64.62835 -74.4807,138.714287 -38.7124,74.08594 -87.7796,168.71144 -136.3636,261.9517 -48.584,93.24026 -96.6829,185.09527 -133.0972,253.64022 -36.4143,68.54495 -61.1113,113.77983 -62.79,113.77983 -1.6787,0 20.3199,-43.30809 53.0979,-106.51269 32.7779,-63.20459 76.3053,-146.30571 117.8193,-225.89175 41.5139,-79.58605 81.0197,-155.65704 106.0737,-204.80138 25.054,-49.14435 35.6966,-71.36206 19.4613,-43.24156 -16.2354,28.12051 -43.1532,78.45872 -74.6033,138.14826 -31.4501,59.68953 -67.4402,128.73039 -101.7085,194.25619 -34.2683,65.52579 -66.8119,127.53653 -91.2211,173.16581 -24.4091,45.62928 -40.6704,74.87712 -42.3491,74.87712 -1.6787,0 12.9072,-29.2591 34.5789,-71.27344 21.6716,-42.01433 50.4156,-96.78392 77.1219,-147.80489 26.7064,-51.02098 51.379,-98.29335 65.0484,-125.31326 13.6693,-27.01991 16.3568,-33.78736 -0.9573,-3.7985 -34.628,59.97772 -80.1436,147.02525 -117.9627,219.07834 -37.8191,72.05309 -67.9015,129.11175 -71.2589,129.11175 -3.3575,0 26.7302,-57.12226 48.2594,-98.10087 10.7645,-20.48931 19.3979,-36.94271 20.6885,-40.20196 1.2905,-3.25925 -4.754,6.67565 -23.395,38.96293 -37.2821,64.57457 -51.232,89.40955 -55.8117,98.10088 -4.5797,8.69133 0.1864,1.23902 0.1864,1.23902 M 2421.5991,4.875 c 0,0 5.398,-8.8648597 2.9822,-4.166942 -2.4158,4.6979177 -12.6259,22.958613 -43.9477,77.209722 -15.6609,27.12555 -21.1486,36.12316 -20.6592,34.36144 0.4894,-1.76172 6.9508,-14.282762 15.1537,-30.194498 C 2391.534,50.26125 2414.8842,4.875 2411.5268,4.875 c -3.3575,0 -26.668,45.349087 -57.4947,105.09348 -30.8266,59.7444 -69.1978,133.88411 -102.4422,191.46535 -16.6222,28.79062 -15.3138,24.651 -4.104,2.24685 11.2098,-22.40415 32.3038,-63.07283 55.2059,-107.34034 22.9022,-44.2675 47.6091,-92.13384 66.1519,-128.933299 C 2387.3866,30.607582 2399.7757,4.875 2398.097,4.875 c -1.6787,0 -15.7377,25.719818 -37.0318,66.224888 -21.2941,40.505072 -49.8336,95.795392 -80.4588,154.936402 -30.6252,59.14101 -63.3388,122.13271 -92.8688,178.04053 -29.53,55.90782 -55.8714,104.73176 -73.657,135.53726 -17.7855,30.8055 -9.1894,12.78706 13.5601,-31.5687 22.7496,-44.35576 59.6145,-115.04883 98.3261,-189.59259 38.7116,-74.54376 79.2642,-152.93821 109.6744,-212.69672 30.4102,-59.758503 50.7047,-100.88107 49.026,-100.88107 -1.6787,0 -24.7194,43.207143 -59.1157,109.04844 -34.3963,65.84129 -80.178,154.31674 -127.2534,244.85335 -47.0753,90.53661 -95.4469,183.13437 -134.6934,257.22031 -39.2465,74.08594 -69.3435,129.66005 -79.7024,146.14933 -10.359,16.48929 9.4094,-22.59554 44.6364,-90.49799 35.227,-67.90246 85.8632,-164.62255 137.3037,-263.4038 51.4404,-98.78125 103.6816,-199.62366 142.5794,-275.77076 C 2347.3195,56.326786 2372.9162,4.875 2371.2375,4.875 c -1.6788,0 -27.8949,49.390625 -66.5629,123.47656 C 2266.0066,202.4375 2214.8478,301.21875 2163.4204,400 2111.993,498.78125 2060.297,597.5625 2020.9845,671.64844 1981.672,745.73437 1954.782,795.125 1953.1033,795.125 c -1.6787,0 23.5325,-49.39063 62.0057,-123.47656 C 2053.5821,597.5625 2105.2781,498.78125 2156.7055,400 2208.1329,301.21875 2259.2918,202.4375 2297.1204,128.35156 2334.949,54.265625 2359.4864,4.875 2357.8077,4.875 c -1.6787,0 -27.8949,49.390625 -66.5629,123.47656 C 2252.5769,202.4375 2201.418,301.21875 2149.9906,400 c -51.4274,98.78125 -103.1234,197.5625 -142.4359,271.64844 -39.3125,74.08593 -66.2025,123.47656 -67.8812,123.47656 -1.6787,0 23.5325,-49.39063 62.0057,-123.47656 C 2040.1523,597.5625 2091.8483,498.78125 2143.2757,400 2194.7031,301.21875 2245.862,202.4375 2283.6906,128.35156 2321.5192,54.265625 2346.0566,4.875 2344.3779,4.875 c -1.6787,0 -27.8948,49.390625 -66.5628,123.47656 -38.668,74.08594 -89.8269,172.86719 -141.2543,271.64844 -51.4274,98.78125 -103.1233,197.5625 -142.4359,271.64844 -39.3125,74.08593 -66.2024,123.47656 -67.8812,123.47656 -1.6787,0 23.5326,-49.39063 62.0057,-123.47656 C 2026.7226,597.5625 2078.4185,498.78125 2129.8459,400 2181.2734,301.21875 2232.4322,202.4375 2270.2608,128.35156 2308.0894,54.265625 2332.6269,4.875 2330.9482,4.875 c -1.6788,0 -27.8949,49.390625 -66.5629,123.47656 -38.668,74.08594 -89.8268,172.86719 -141.2542,271.64844 -51.4274,98.78125 -103.1234,197.5625 -142.4359,271.64844 -39.3125,74.08593 -66.2025,123.47656 -67.8812,123.47656 -1.6787,0 23.5325,-49.39063 62.0057,-123.47656 C 2013.2928,597.5625 2064.9888,498.78125 2116.4162,400 2167.8436,301.21875 2219.0025,202.4375 2256.8311,128.35156 2294.6597,54.265625 2319.1971,4.875 2317.5184,4.875 c -1.6787,0 -27.8949,49.390625 -66.5629,123.47656 -38.6679,74.08594 -89.8268,172.86719 -141.2542,271.64844 -51.4274,98.78125 -103.1234,197.5625 -142.4359,271.64844 -39.3125,74.08593 -66.2025,123.47656 -67.8812,123.47656 -1.6787,0 23.5325,-49.39063 62.0057,-123.47656 C 1999.863,597.5625 2051.559,498.78125 2102.9864,400 2154.4138,301.21875 2205.5727,202.4375 2243.4013,128.35156 2281.2299,54.265625 2305.7673,4.875 2304.0886,4.875 c -1.6787,0 -27.8948,49.390625 -66.5628,123.47656 -38.668,74.08594 -89.8269,172.86719 -141.2543,271.64844 -51.4274,98.78125 -103.1233,197.5625 -142.4359,271.64844 -39.3125,74.08593 -66.2024,123.47656 -67.8812,123.47656 -1.6787,0 23.5326,-49.39063 62.0057,-123.47656 C 1986.4333,597.5625 2038.1292,498.78125 2089.5566,400 2140.9841,301.21875 2192.1429,202.4375 2229.9715,128.35156 2267.8001,54.265625 2292.3376,4.875 2290.6589,4.875 c -1.6788,0 -27.8949,49.390625 -66.5629,123.47656 -38.668,74.08594 -89.8268,172.86719 -141.2542,271.64844 -51.4274,98.78125 -103.1234,197.5625 -142.4359,271.64844 -39.3125,74.08593 -66.2025,123.47656 -67.8812,123.47656 -1.6787,0 23.5325,-49.39063 62.0057,-123.47656 C 1973.0035,597.5625 2024.6995,498.78125 2076.1269,400 2127.5543,301.21875 2178.7132,202.4375 2216.5418,128.35156 2254.3704,54.265625 2278.9078,4.875 2277.2291,4.875 c -1.6787,0 -27.8949,49.390625 -66.5629,123.47656 C 2171.9983,202.4375 2120.8394,301.21875 2069.412,400 c -51.4274,98.78125 -103.1234,197.5625 -142.4359,271.64844 -39.3125,74.08593 -66.2025,123.47656 -67.8812,123.47656 -1.6787,0 23.5325,-49.39063 62.0057,-123.47656 C 1959.5737,597.5625 2011.2697,498.78125 2062.6971,400 2114.1245,301.21875 2165.2834,202.4375 2203.112,128.35156 2240.9406,54.265625 2265.478,4.875 2263.7993,4.875 c -1.6787,0 -27.8948,49.390625 -66.5628,123.47656 -38.668,74.08594 -89.8269,172.86719 -141.2543,271.64844 -51.4274,98.78125 -103.1233,197.5625 -142.4359,271.64844 -39.3125,74.08593 -66.2024,123.47656 -67.8812,123.47656 -1.6787,0 23.5326,-49.39063 62.0057,-123.47656 C 1946.144,597.5625 1997.8399,498.78125 2049.2673,400 2100.6948,301.21875 2151.8536,202.4375 2189.6822,128.35156 2227.5108,54.265625 2252.0483,4.875 2250.3696,4.875 c -1.6788,0 -27.8949,49.390625 -66.5629,123.47656 -38.668,74.08594 -89.8268,172.86719 -141.2542,271.64844 -51.4274,98.78125 -103.1234,197.5625 -142.4359,271.64844 -39.3125,74.08593 -66.2025,123.47656 -67.8812,123.47656 -1.6788,0 23.5325,-49.39063 62.0057,-123.47656 C 1932.7142,597.5625 1984.4102,498.78125 2035.8376,400 2087.265,301.21875 2138.4239,202.4375 2176.2525,128.35156 2214.0811,54.265625 2238.6185,4.875 2236.9398,4.875 c -1.6787,0 -27.8949,49.390625 -66.5629,123.47656 C 2131.709,202.4375 2080.5501,301.21875 2029.1227,400 c -51.4274,98.78125 -103.1234,197.5625 -142.4359,271.64844 -39.3125,74.08593 -66.2025,123.47656 -67.8812,123.47656 -1.6787,0 21.8613,-46.22848 56.944,-113.83607 35.0826,-67.6076 81.6739,-156.59432 126.249,-242.11082 44.5752,-85.51649 87.1399,-167.56275 114.5346,-221.28942 27.3948,-53.72668 39.6648,-79.13377 23.6366,-51.37192 -16.0283,27.76185 -44.3692,80.93078 -78.0892,145.06815 -33.72,64.13737 -72.8293,139.24317 -110.2647,210.87873 -37.4353,71.63557 -73.1934,139.80091 -100.0291,190.05735 -26.8356,50.25645 -44.7322,82.604 -46.411,82.604 -1.6787,0 14.542,-32.35807 38.6663,-79.04798 24.1243,-46.68991 56.1357,-107.71168 86.12,-165.03907 29.9844,-57.32738 57.9461,-110.9604 74.1448,-142.87283 16.1987,-31.91243 20.6596,-42.10427 3.596,-12.54929 -17.0635,29.55497 -38.6167,69.30178 -61.4949,112.29732 -22.8783,42.99554 -47.0832,89.23982 -69.3988,131.78972 -44.6312,85.09981 -81.7057,155.42213 -85.0631,155.42213 -1.6788,0 6.7559,-17.59528 19.1819,-42.00397 12.426,-24.4087 28.8385,-55.6308 43.1452,-82.88446 14.3068,-27.25366 26.5104,-50.53886 30.563,-59.07375 4.0526,-8.53489 -0.036,-2.31946 -18.3651,29.42815 -36.6589,63.49521 -57.8398,102.12872 -69.8221,124.88842 -11.9823,22.75971 -14.7753,29.64561 -14.7753,29.64561 M 2776.4934,85.048082 c 0,0 11.1732,-20.04327 21.4941,-40.086541 10.321,-20.04327 19.7897,-40.086541 16.4323,-40.086541 -3.3575,0 -20.5308,33.409985 -45.0795,81.022981 -24.5488,47.612999 -56.4905,109.428999 -89.2909,166.241049 -16.4001,28.40602 -16.5945,27.15503 -7.7582,9.30016 8.8363,-17.85488 26.6894,-52.31363 46.3385,-90.32314 19.6492,-38.00951 41.0915,-79.569774 57.1869,-111.627658 C 2791.9121,27.430507 2802.6687,4.875 2800.99,4.875 c -3.3574,0 -49.7097,90.174496 -104.2163,195.51688 -27.2533,52.67119 -56.5432,109.13435 -83.4194,160.01365 -26.8761,50.87931 -51.3352,96.17476 -68.8495,126.51053 -17.5143,30.33577 -10.534,15.37608 9.6523,-24.12731 20.1863,-39.50339 53.5458,-103.55049 88.7462,-171.38957 35.2003,-67.83907 72.2364,-139.47012 100.0146,-194.141395 C 2770.6961,42.586508 2789.239,4.875 2787.5602,4.875 c -1.6787,0 -22.0356,37.981825 -52.8251,96.85603 -30.7896,58.8742 -72.0346,138.64079 -115.4407,222.2103 -43.4061,83.56952 -88.9775,170.94197 -128.1682,245.0279 -39.1906,74.08594 -71.9861,134.88537 -89.6667,165.30884 -8.8403,15.21173 -9.4769,15.22361 -3.8336,3.59791 5.6434,-11.6257 17.5639,-34.88897 33.8058,-66.22754 32.4839,-62.67714 82.2237,-157.65546 133.6752,-256.43671 51.4515,-98.78125 104.6077,-201.36543 144.4091,-279.2543 C 2749.3174,58.068558 2775.8092,4.875 2774.1305,4.875 c -1.6788,0 -27.8949,49.390625 -66.5629,123.47656 C 2668.8996,202.4375 2617.7408,301.21875 2566.3134,400 2514.886,498.78125 2463.19,597.5625 2423.8775,671.64844 2384.565,745.73437 2357.675,795.125 2355.9963,795.125 c -1.6787,0 23.5325,-49.39062 62.0057,-123.47656 C 2456.4751,597.5625 2508.1711,498.78125 2559.5985,400 2611.0259,301.21875 2662.1848,202.4375 2700.0134,128.35156 2737.842,54.265625 2762.3794,4.875 2760.7007,4.875 c -1.6787,0 -27.8949,49.390625 -66.5628,123.47656 -38.668,74.08594 -89.8269,172.86719 -141.2543,271.64844 -51.4274,98.78125 -103.1234,197.5625 -142.4359,271.64844 -39.3125,74.08593 -66.2025,123.47656 -67.8812,123.47656 -1.6787,0 23.5326,-49.39062 62.0057,-123.47656 C 2443.0453,597.5625 2494.7413,498.78125 2546.1687,400 2597.5961,301.21875 2648.755,202.4375 2686.5836,128.35156 2724.4122,54.265625 2748.9497,4.875 2747.2709,4.875 c -1.6787,0 -27.8948,49.390625 -66.5628,123.47656 -38.668,74.08594 -89.8268,172.86719 -141.2543,271.64844 -51.4274,98.78125 -103.1233,197.5625 -142.4358,271.64844 -39.3126,74.08594 -66.2025,123.47656 -67.8813,123.47656 -1.6787,0 23.5326,-49.39063 62.0057,-123.47656 C 2429.6156,597.5625 2481.3115,498.78125 2532.739,400 2584.1664,301.21875 2635.3252,202.4375 2673.1538,128.35156 2710.9825,54.265625 2735.5199,4.875 2733.8412,4.875 c -1.6788,0 -27.8949,49.390625 -66.5629,123.47656 -38.668,74.08594 -89.8268,172.86719 -141.2542,271.64844 -51.4274,98.78125 -103.1234,197.5625 -142.4359,271.64844 -39.3125,74.08593 -66.2025,123.47656 -67.8812,123.47656 -1.6787,0 23.5325,-49.39063 62.0057,-123.47656 C 2416.1858,597.5625 2467.8818,498.78125 2519.3092,400 2570.7366,301.21875 2621.8955,202.4375 2659.7241,128.35156 2697.5527,54.265625 2722.0901,4.875 2720.4114,4.875 c -1.6787,0 -27.8949,49.390625 -66.5628,123.47656 -38.668,74.08594 -89.8269,172.86719 -141.2543,271.64844 -51.4274,98.78125 -103.1234,197.5625 -142.4359,271.64844 -39.3125,74.08594 -66.2025,123.47656 -67.8812,123.47656 -1.6787,0 23.5326,-49.39063 62.0057,-123.47656 C 2402.756,597.5625 2454.452,498.78125 2505.8794,400 2557.3068,301.21875 2608.4657,202.4375 2646.2943,128.35156 2684.1229,54.265625 2708.6604,4.875 2706.9816,4.875 c -1.6787,0 -27.8948,49.390625 -66.5628,123.47656 -38.668,74.08594 -89.8268,172.86719 -141.2543,271.64844 -51.4274,98.78125 -103.1233,197.5625 -142.4358,271.64844 -39.3126,74.08593 -66.2025,123.47656 -67.8813,123.47656 -1.6787,0 23.5326,-49.39063 62.0057,-123.47656 C 2389.3263,597.5625 2441.0222,498.78125 2492.4497,400 2543.8771,301.21875 2595.0359,202.4375 2632.8645,128.35156 2670.6932,54.265625 2695.2306,4.875 2693.5519,4.875 c -1.6788,0 -27.8949,49.390625 -66.5629,123.47656 -38.668,74.08594 -89.8268,172.86719 -141.2542,271.64844 -51.4274,98.78125 -103.1234,197.5625 -142.4359,271.64844 -39.3125,74.08593 -66.2025,123.47656 -67.8812,123.47656 -1.6787,0 23.5325,-49.39063 62.0057,-123.47656 C 2375.8965,597.5625 2427.5925,498.78125 2479.0199,400 2530.4473,301.21875 2581.6062,202.4375 2619.4348,128.35156 2657.2634,54.265625 2681.8008,4.875 2680.1221,4.875 c -1.6787,0 -27.8949,49.390625 -66.5628,123.47656 -38.668,74.08594 -89.8269,172.86719 -141.2543,271.64844 -51.4274,98.78125 -103.1234,197.5625 -142.4359,271.64844 -39.3125,74.08594 -66.2025,123.47656 -67.8812,123.47656 -1.6787,0 23.5326,-49.39063 62.0057,-123.47656 C 2362.4667,597.5625 2414.1627,498.78125 2465.5901,400 2517.0175,301.21875 2568.1764,202.4375 2606.005,128.35156 2643.8336,54.265625 2668.3711,4.875 2666.6923,4.875 c -1.6787,0 -27.8948,49.390625 -66.5628,123.47656 -38.668,74.08594 -89.8268,172.86719 -141.2543,271.64844 -51.4274,98.78125 -103.1233,197.5625 -142.4358,271.64844 -39.3126,74.08594 -66.2025,123.47656 -67.8813,123.47656 -1.6787,0 23.5326,-49.39062 62.0057,-123.47656 C 2349.037,597.5625 2400.7329,498.78125 2452.1604,400 2503.5878,301.21875 2554.7466,202.4375 2592.5752,128.35156 2630.4039,54.265625 2654.9413,4.875 2653.2626,4.875 c -1.6788,0 -27.8949,49.390625 -66.5629,123.47656 -38.668,74.08594 -89.8268,172.86719 -141.2542,271.64844 -51.4274,98.78125 -103.1234,197.5625 -142.4359,271.64844 -39.3125,74.08594 -66.2025,123.47656 -67.8812,123.47656 -1.6787,0 23.5325,-49.39062 62.0057,-123.47656 C 2335.6072,597.5625 2387.3032,498.78125 2438.7306,400 2490.158,301.21875 2541.3169,202.4375 2579.1455,128.35156 2616.9741,54.265625 2641.5115,4.875 2639.8328,4.875 c -1.6787,0 -27.8949,49.390625 -66.5628,123.47656 -38.668,74.08594 -89.8269,172.86719 -141.2543,271.64844 -51.4274,98.78125 -103.1234,197.5625 -142.4359,271.64844 -39.3125,74.08593 -66.2025,123.47656 -67.8812,123.47656 -1.6787,0 23.3847,-49.11427 60.7434,-121.07214 37.3587,-71.95786 86.9744,-166.75933 134.569,-258.13372 47.5945,-91.3744 93.1737,-179.32172 122.8731,-237.5713 29.6995,-58.24958 43.5691,-86.801412 27.7402,-59.38484 -15.829,27.41658 -45.5728,83.38499 -81.5292,151.91579 -35.9564,68.53079 -78.1384,149.62397 -118.6949,227.29008 -40.5566,77.6661 -79.4842,151.90514 -108.7132,206.72764 -29.229,54.82251 -48.7394,90.22849 -50.4182,90.22849 -1.6787,0 16.1552,-35.41582 42.698,-86.71833 26.5427,-51.30251 61.7744,-118.49172 94.9867,-182.03851 33.2123,-63.54678 64.4096,-123.45114 83.0939,-160.18396 18.6842,-36.73281 24.8843,-50.29408 8.0607,-21.15469 -16.8236,29.1394 -39.8793,71.84007 -65.161,119.50015 -25.2817,47.66009 -52.7921,100.2796 -78.4581,149.25669 -51.3322,97.95418 -95.2925,181.33865 -98.6499,181.33865 -1.6787,0 8.4773,-20.85974 23.4933,-50.19722 15.016,-29.33748 34.8853,-67.15269 52.6724,-101.06364 17.7871,-33.91095 33.4951,-63.91763 40.2551,-77.63804 6.7599,-13.72042 4.5847,-11.15456 -13.4483,20.07956 -36.0659,62.46826 -63.4951,114.67309 -82.7411,151.26086 -19.2461,36.58777 -30.3037,57.55848 -33.6612,57.55848 -6.7149,0 5.3272,-16.48513 5.3272,-16.48513 M 3203.37,38.496226 c 0,0 20.6577,-33.621226 13.9428,-33.621226 -6.7149,0 -44.4324,86.474611 -109.1798,198.62073 -16.1869,28.03653 -17.8621,29.641 -11.3629,16.27716 6.4992,-13.36385 21.1619,-41.696 37.6074,-73.53273 16.4454,-31.83672 34.671,-67.178013 48.3543,-94.560122 C 3196.415,24.297928 3205.5617,4.875 3203.883,4.875 c -3.3574,0 -43.2705,77.647383 -91.1416,170.23819 -23.9356,46.2954 -49.86,96.32666 -74.1305,142.25579 -24.2705,45.92912 -46.885,87.7561 -64.1401,117.64295 -17.2552,29.88685 -11.8645,17.94671 5.8027,-16.77484 17.6671,-34.72155 47.583,-92.22452 79.3325,-153.46335 31.7495,-61.23883 65.3281,-126.21352 90.5175,-175.878492 C 3175.313,39.23027 3192.132,4.875 3190.4532,4.875 c -1.6787,0 -20.1652,34.339658 -48.1848,87.859141 -28.0196,53.519479 -65.591,126.218789 -105.4044,202.938089 -39.8133,76.7193 -81.8726,157.45859 -118.6639,227.05803 -36.7912,69.59945 -68.3037,128.05906 -86.8712,160.21899 -18.5675,32.15993 -5.5694,5.86025 24.1802,-51.67922 29.7496,-57.53948 76.1961,-146.31875 124.4975,-239.11801 48.3014,-92.79927 98.4507,-189.61852 136.0391,-263.23796 C 3153.6342,55.294623 3178.7022,4.875 3177.0235,4.875 c -1.6787,0 -27.8949,49.390625 -66.5629,123.47656 C 3071.7927,202.4375 3020.6338,301.21875 2969.2064,400 2917.779,498.78125 2866.083,597.5625 2826.7705,671.64844 2787.458,745.73437 2760.568,795.125 2758.8893,795.125 c -1.6787,0 23.5325,-49.39063 62.0057,-123.47656 C 2859.3681,597.5625 2911.0641,498.78125 2962.4915,400 3013.9189,301.21875 3065.0778,202.4375 3102.9064,128.35156 3140.735,54.265625 3165.2724,4.875 3163.5937,4.875 c -1.6787,0 -27.8949,49.390625 -66.5628,123.47656 -38.668,74.08594 -89.8269,172.86719 -141.2543,271.64844 -51.4274,98.78125 -103.1234,197.5625 -142.4359,271.64844 -39.3125,74.08593 -66.2025,123.47656 -67.8812,123.47656 -1.6787,0 23.5326,-49.39063 62.0057,-123.47656 C 2845.9383,597.5625 2897.6343,498.78125 2949.0617,400 3000.4891,301.21875 3051.648,202.4375 3089.4766,128.35156 3127.3052,54.265625 3151.8427,4.875 3150.1639,4.875 c -1.6787,0 -27.8948,49.390625 -66.5628,123.47656 -38.668,74.08594 -89.8268,172.86719 -141.2543,271.64844 -51.4274,98.78125 -103.1233,197.5625 -142.4358,271.64844 -39.3125,74.08593 -66.2025,123.47656 -67.8812,123.47656 -1.6788,0 23.5325,-49.39063 62.0056,-123.47656 C 2832.5086,597.5625 2884.2046,498.78125 2935.632,400 2987.0594,301.21875 3038.2182,202.4375 3076.0468,128.35156 3113.8755,54.265625 3138.4129,4.875 3136.7342,4.875 c -1.6787,0 -27.8949,49.390625 -66.5629,123.47656 C 3031.5034,202.4375 2980.3445,301.21875 2928.9171,400 2877.4897,498.78125 2825.7937,597.5625 2786.4812,671.64844 2747.1687,745.73437 2720.2787,795.125 2718.6,795.125 c -1.6787,0 23.5325,-49.39063 62.0057,-123.47656 C 2819.0788,597.5625 2870.7748,498.78125 2922.2022,400 2973.6296,301.21875 3024.7885,202.4375 3062.6171,128.35156 3100.4457,54.265625 3124.9831,4.875 3123.3044,4.875 c -1.6787,0 -27.8949,49.390625 -66.5628,123.47656 -38.668,74.08594 -89.8269,172.86719 -141.2543,271.64844 -51.4274,98.78125 -103.1234,197.5625 -142.4359,271.64844 -39.3125,74.08593 -66.2025,123.47656 -67.8812,123.47656 -1.6787,0 23.5326,-49.39063 62.0057,-123.47656 C 2805.649,597.5625 2857.345,498.78125 2908.7724,400 2960.1998,301.21875 3011.3587,202.4375 3049.1873,128.35156 3087.0159,54.265625 3111.5534,4.875 3109.8746,4.875 c -1.6787,0 -27.8948,49.390625 -66.5628,123.47656 -38.668,74.08594 -89.8268,172.86719 -141.2543,271.64844 -51.4274,98.78125 -103.1233,197.5625 -142.4358,271.64844 -39.3125,74.08593 -66.2025,123.47656 -67.8812,123.47656 -1.6788,0 23.5325,-49.39063 62.0056,-123.47656 C 2792.2193,597.5625 2843.9152,498.78125 2895.3427,400 2946.7701,301.21875 2997.9289,202.4375 3035.7575,128.35156 3073.5862,54.265625 3098.1236,4.875 3096.4449,4.875 c -1.6787,0 -27.8949,49.390625 -66.5629,123.47656 -38.6679,74.08594 -89.8268,172.86719 -141.2542,271.64844 -51.4274,98.78125 -103.1234,197.5625 -142.4359,271.64844 -39.3125,74.08593 -66.2025,123.47656 -67.8812,123.47656 -1.6787,0 23.5325,-49.39063 62.0057,-123.47656 C 2778.7895,597.5625 2830.4855,498.78125 2881.9129,400 2933.3403,301.21875 2984.4992,202.4375 3022.3278,128.35156 3060.1564,54.265625 3084.6938,4.875 3083.0151,4.875 c -1.6787,0 -27.8949,49.390625 -66.5628,123.47656 -38.668,74.08594 -89.8269,172.86719 -141.2543,271.64844 -51.4274,98.78125 -103.1234,197.5625 -142.4359,271.64844 -39.3125,74.08594 -66.2025,123.47656 -67.8812,123.47656 -1.6787,0 23.5326,-49.39063 62.0057,-123.47656 C 2765.3597,597.5625 2817.0557,498.78125 2868.4831,400 2919.9105,301.21875 2971.0694,202.4375 3008.898,128.35156 3046.7266,54.265625 3071.2641,4.875 3069.5853,4.875 c -1.6787,0 -27.8948,49.390625 -66.5628,123.47656 -38.668,74.08594 -89.8268,172.86719 -141.2543,271.64844 -51.4274,98.78125 -103.1233,197.5625 -142.4358,271.64844 -39.3125,74.08594 -66.2025,123.47656 -67.8812,123.47656 -1.6788,0 23.5325,-49.39063 62.0056,-123.47656 C 2751.93,597.5625 2803.6259,498.78125 2855.0534,400 2906.4808,301.21875 2957.6396,202.4375 2995.4682,128.35156 3033.2969,54.265625 3057.8343,4.875 3056.1556,4.875 c -1.6787,0 -27.8949,49.390625 -66.5629,123.47656 -38.668,74.08594 -89.8268,172.86719 -141.2542,271.64844 -51.4274,98.78125 -103.1234,197.5625 -142.4359,271.64844 -39.3125,74.08593 -66.2025,123.47656 -67.8812,123.47656 -1.6787,0 23.5325,-49.39063 62.0057,-123.47656 C 2738.5002,597.5625 2790.1962,498.78125 2841.6236,400 2893.051,301.21875 2944.2099,202.4375 2982.0385,128.35156 3019.8671,54.265625 3044.4045,4.875 3042.7258,4.875 c -1.6787,0 -27.8949,49.390625 -66.5628,123.47656 -38.668,74.08594 -89.8269,172.86719 -141.2543,271.64844 -51.4274,98.78125 -103.1234,197.5625 -142.4359,271.64844 -39.3125,74.08593 -66.2025,123.47656 -67.8812,123.47656 -1.6787,0 24.8905,-51.96666 64.4977,-128.22391 39.6073,-76.25725 92.2094,-176.80508 142.783,-273.96744 50.5736,-97.16235 99.1246,-190.93923 131.0939,-253.65455 31.9693,-62.715321 47.4119,-94.36909 31.7751,-67.285237 -15.6369,27.083854 -46.7641,85.821477 -84.9247,158.693247 -38.1605,72.87176 -83.3702,159.87767 -127.004,243.4981 -43.6337,83.62043 -85.6876,163.85538 -117.2781,223.18522 -31.5904,59.32984 -52.6939,97.75457 -54.3726,97.75457 -1.6788,0 17.7476,-38.43395 46.676,-94.28858 28.9284,-55.85463 67.3353,-129.12994 103.7273,-198.81264 36.392,-69.6827 70.7739,-135.77281 91.9017,-177.25703 21.1279,-41.48422 29.0347,-58.36256 12.4412,-29.62175 -16.5935,28.74081 -41.1288,74.35997 -68.7754,126.62199 -27.6465,52.26203 -58.4085,111.16693 -87.3718,166.47923 -57.9268,110.62459 -108.6714,206.87878 -112.0288,206.87878 -1.6787,0 10.1735,-24.0762 27.7397,-58.26896 17.5661,-34.19276 40.8372,-78.50206 62.0458,-118.96827 21.2087,-40.46621 40.3584,-77.08932 49.7738,-95.90969 9.4153,-18.82036 9.1121,-19.83797 -8.6384,10.90682 -35.5009,61.48957 -69.8813,127.0496 -96.2591,177.23723 -26.3779,50.18763 -44.7341,85.00287 -48.0916,85.00287 -3.3574,0 5.4303,-18.26962 15.0467,-36.53924 9.6165,-18.26963 20.0616,-36.53925 20.0616,-36.53925"
       id="path6371"
       inkscape:path-effect="#path-effect6436"
       inkscape:original-d="m 233.46875,4.875 -456.25,790.25 189.3125,0 456.25,-790.25 -189.3125,0 z m 400,0 -456.25,790.25 189.3125,0 456.25,-790.25 -189.3125,0 z m 400.00005,0 C 881.38537,268.29167 729.30208,531.70833 577.21875,795.125 l 189.3125,0 C 918.61458,531.70833 1070.698,268.29167 1222.7812,4.875 l -189.3124,0 z m 400,0 c -152.0834,263.41667 -304.1667,526.83333 -456.25005,790.25 l 189.31245,0 c 152.0834,-263.41667 304.1667,-526.83333 456.25,-790.25 l -189.3124,0 z m 400,0 c -152.0834,263.41667 -304.1667,526.83333 -456.25,790.25 l 189.3124,0 c 152.0834,-263.41667 304.1667,-526.83333 456.25,-790.25 l -189.3124,0 z m 400,0 c -152.0834,263.41667 -304.1667,526.83333 -456.25,790.25 l 189.3124,0 c 152.0835,-263.41667 304.1667,-526.83333 456.25,-790.25 l -189.3124,0 z m 400,0 c -152.0834,263.41667 -304.1667,526.83333 -456.25,790.25 l 189.3124,0 c 152.0834,-263.41667 304.1667,-526.83333 456.25,-790.25 l -189.3124,0 z m 400,0 c -152.0834,263.41667 -304.1668,526.83333 -456.25,790.25 l 189.3124,0 c 152.0834,-263.41667 304.1668,-526.83333 456.25,-790.25 l -189.3124,0 z"
       inkscape:connector-curvature="0" />
  </g>
</svg>
