<?xml version="1.0" encoding="UTF-8" standalone="no"?>
<!-- Created with Inkscape (http://www.inkscape.org/) -->

<svg
   xmlns:dc="http://purl.org/dc/elements/1.1/"
   xmlns:cc="http://creativecommons.org/ns#"
   xmlns:rdf="http://www.w3.org/1999/02/22-rdf-syntax-ns#"
   xmlns:svg="http://www.w3.org/2000/svg"
   xmlns="http://www.w3.org/2000/svg"
   xmlns:sodipodi="http://sodipodi.sourceforge.net/DTD/sodipodi-0.dtd"
   xmlns:inkscape="http://www.inkscape.org/namespaces/inkscape"
   width="3200"
   height="800"
   id="svg5831"
   version="1.1"
   inkscape:version="0.92.2 5c3e80d, 2017-08-06"
   sodipodi:docname="CandyCaneStripes_2.svg">
  <sodipodi:namedview
     id="base"
     pagecolor="#ffffff"
     bordercolor="#666666"
     borderopacity="1.0"
     inkscape:pageopacity="0.0"
     inkscape:pageshadow="2"
     inkscape:zoom="0.1246875"
     inkscape:cx="1591.9799"
     inkscape:cy="400"
     inkscape:document-units="px"
     inkscape:current-layer="1-default"
     showgrid="false"
     inkscape:window-width="911"
     inkscape:window-height="641"
     inkscape:window-x="0"
     inkscape:window-y="1"
     inkscape:window-maximized="0" />
  <defs
     id="defs5833">
    <inkscape:path-effect
       effect="rough_hatches"
       id="path-effect6436"
       is_visible="true"
       direction="1502.8867,395 , 32.945612,19.130217"
       dist_rdm="0;1"
       growth="0"
       do_bend="true"
       bender="1500,400 , 5,0"
       bottom_edge_variation="0;1"
       top_edge_variation="0;1"
       bottom_tgt_variation="0;1"
       top_tgt_variation="0;1"
       scale_bf="2"
       scale_bb="2"
       scale_tf="2"
       scale_tb="2"
       top_smth_variation="0;1"
       bottom_smth_variation="0;1"
       fat_output="false"
       stroke_width_top="1"
       stroke_width_bottom="1"
       front_thickness="1"
       back_thickness="0.25" />
  </defs>
  <metadata
     id="metadata5836">
    <rdf:RDF>
      <cc:Work
         rdf:about="">
        <dc:format>image/svg+xml</dc:format>
        <dc:type
           rdf:resource="http://purl.org/dc/dcmitype/StillImage" />
        <dc:title />
      </cc:Work>
    </rdf:RDF>
  </metadata>
  <g
     inkscape:label="1-RED"
     inkscape:groupmode="layer"
     id="1-default"
     style="display:inline">
    <path
       style="color:#000000;display:inline;overflow:visible;visibility:visible;fill:none;stroke:#ff0000;stroke-width:3.99999976;stroke-linecap:round;stroke-linejoin:round;stroke-miterlimit:4;stroke-dashoffset:0;stroke-opacity:1;marker:none;enable-background:accumulate"
       d="m 461.56867,2 h 196 l -919.13735,796 h -196 z"
       id="rect5839"
       inkscape:connector-curvature="0" />
    <path
       style="color:#000000;display:inline;overflow:visible;visibility:visible;fill:none;stroke:#ff0000;stroke-width:3.99999976;stroke-linecap:round;stroke-linejoin:round;stroke-miterlimit:4;stroke-dashoffset:0;stroke-opacity:1;marker:none;enable-background:accumulate"
       d="M 861.56867,2 H 1057.5687 L 138.43132,798 H -57.568684 Z"
       id="rect6349"
       inkscape:connector-curvature="0" />
    <path
       style="color:#000000;display:inline;overflow:visible;visibility:visible;fill:none;stroke:#ff0000;stroke-width:3.99999976;stroke-linecap:round;stroke-linejoin:round;stroke-miterlimit:4;stroke-dashoffset:0;stroke-opacity:1;marker:none;enable-background:accumulate"
       d="m 1261.5687,2 h 196 L 538.43139,798 h -196 z"
       id="rect6351"
       inkscape:connector-curvature="0" />
    <path
       style="color:#000000;display:inline;overflow:visible;visibility:visible;fill:none;stroke:#ff0000;stroke-width:3.99999976;stroke-linecap:round;stroke-linejoin:round;stroke-miterlimit:4;stroke-dashoffset:0;stroke-opacity:1;marker:none;enable-background:accumulate"
       d="m 1661.5687,2 h 196 L 938.43139,798 h -196 z"
       id="rect6353"
       inkscape:connector-curvature="0" />
    <path
       style="color:#000000;display:inline;overflow:visible;visibility:visible;fill:none;stroke:#ff0000;stroke-width:3.99999976;stroke-linecap:round;stroke-linejoin:round;stroke-miterlimit:4;stroke-dashoffset:0;stroke-opacity:1;marker:none;enable-background:accumulate"
       d="m 2061.5687,2 h 196 l -919.1373,796 h -196 z"
       id="rect6355"
       inkscape:connector-curvature="0" />
    <path
       style="color:#000000;display:inline;overflow:visible;visibility:visible;fill:none;stroke:#ff0000;stroke-width:3.99999976;stroke-linecap:round;stroke-linejoin:round;stroke-miterlimit:4;stroke-dashoffset:0;stroke-opacity:1;marker:none;enable-background:accumulate"
       d="m 2461.5686,2 h 196 l -919.1373,796 h -196 z"
       id="rect6357"
       inkscape:connector-curvature="0" />
    <path
       style="color:#000000;display:inline;overflow:visible;visibility:visible;fill:none;stroke:#ff0000;stroke-width:3.99999976;stroke-linecap:round;stroke-linejoin:round;stroke-miterlimit:4;stroke-dashoffset:0;stroke-opacity:1;marker:none;enable-background:accumulate"
       d="m 2861.5686,2 h 196 l -919.1373,796 h -196 z"
       id="rect6359"
       inkscape:connector-curvature="0" />
    <path
       style="color:#000000;display:inline;overflow:visible;visibility:visible;fill:none;stroke:#ff0000;stroke-width:3.99999976;stroke-linecap:round;stroke-linejoin:round;stroke-miterlimit:4;stroke-dashoffset:0;stroke-opacity:1;marker:none;enable-background:accumulate"
       d="m 3261.5686,2 h 196 l -919.1373,796 h -196 z"
       id="rect6361"
       inkscape:connector-curvature="0" />
    <path
       style="color:#000000;display:inline;overflow:visible;visibility:visible;fill:none;stroke:#ff0000;stroke-width:3.99999976;stroke-linecap:round;stroke-linejoin:round;stroke-miterlimit:4;stroke-dashoffset:0;stroke-opacity:1;marker:none;enable-background:accumulate"
       d="m 645.69405,4.875 c 0,0 3.60995,1.3875284 -13.92733,16.575313 -17.538,15.188399 9.52195,-16.575313 0.7112,-16.575313 -8.81076,0 -18.24919,31.763708 -35.80191,46.964859 C 579.1233,67.04101 623.66716,4.875 614.85641,4.875 606.04565,4.875 579.1233,67.041006 561.55583,82.254941 543.98835,97.468876 606.04565,4.875 597.2349,4.875 c -8.81076,0 -53.24655,92.593872 -70.82882,107.82062 -8.79073,7.61302 6.74011,-19.341418 23.34227,-48.200277 C 566.3503,35.636844 584.02146,4.875 579.61339,4.875 c -8.81076,0 -70.78958,123.04737 -88.3867,138.28697 -8.7966,7.61811 11.13757,-26.95025 32.13205,-63.428635 C 544.35225,43.256642 566.40131,4.875 561.99188,4.875 c -4.40259,0 -26.44804,38.381641 -49.63765,78.669843 -23.19515,40.297817 -47.51953,82.473347 -56.33663,90.109207 -8.80195,7.62274 15.54589,-34.56502 40.94041,-78.669846 C 522.35051,50.882882 548.78143,4.875 544.37037,4.875 c -4.40122,0 -30.82781,46.007881 -58.41967,93.923936 -27.59935,47.929064 -56.34351,97.727274 -65.17198,105.372984 -8.80678,7.62692 19.96512,-42.18576 49.76739,-93.92394 C 500.34505,58.515578 531.16182,4.875 526.74886,4.875 c -4.39957,0 -35.21129,53.640577 -67.21285,109.19095 -32.01128,55.56724 -65.18562,112.99365 -74.02603,120.6497 -8.81108,7.63065 24.39528,-49.81246 58.61304,-109.19095 C 478.33587,66.154748 513.54249,4.875 509.12735,4.875 c -4.39765,0 -39.59848,61.279747 -76.01723,124.47091 -36.43098,63.21239 -74.0459,128.27252 -82.89882,135.9394 -8.81485,7.63391 28.83639,-57.44516 67.47742,-124.47091 C 456.32297,73.800408 495.92343,4.875 491.50584,4.875 c -4.39545,0 -43.9894,68.925407 -84.83283,139.76386 -40.85845,70.8645 -82.92439,143.56388 -91.7904,151.2421 -8.81809,7.63672 33.28848,-65.08386 76.36056,-139.76385 C 434.30633,81.452575 478.30465,4.875 473.88433,4.875 c -4.39298,0 -48.38406,76.577574 -93.65969,155.06982 -45.29372,78.52361 -91.82114,158.8678 -100.70082,166.55786 -8.81702,7.63579 38.61647,-74.22502 85.89792,-156.17104 47.25496,-81.900122 94.35804,-163.885755 85.56427,-156.270102 -8.73239,7.562494 -55.86774,89.562432 -103.15854,171.490052 -47.32567,81.98802 -94.80665,163.90344 -103.6926,171.59892 -8.8245,7.64228 38.68928,-74.28773 86.05085,-156.30316 47.335,-81.96941 94.51794,-164.024552 85.71675,-156.402468 -8.73966,7.568789 -55.95494,89.638278 -103.32586,171.635258 -47.40591,82.05754 -94.96733,164.04229 -103.86093,171.7444 -8.83201,7.64878 38.76227,-74.3506 86.20418,-156.43561 47.41524,-82.03888 94.67824,-164.163714 85.8696,-156.535184 -8.74694,7.5751 -56.04236,89.714314 -103.4936,171.780834 -47.48636,82.12723 -95.12842,164.18149 -104.0297,171.89025 -8.83953,7.65529 38.83546,-74.41363 86.3579,-156.56841 47.49568,-82.10852 94.83895,-164.303219 86.02285,-156.66823 -8.75425,7.58143 -56.13,89.79055 -103.66178,171.92678 -47.567,82.19711 -95.2899,164.32105 -104.19889,172.03648 -8.84707,7.66182 38.90883,-74.47682 86.51201,-156.70154 47.57633,-82.17835 95.00007,-164.44309 86.17649,-156.80162 -8.76157,7.58777 -56.21786,89.86697 -103.83038,172.0731 -47.64786,82.26715 -95.45181,164.46096 -104.36852,172.18308 -8.854632,7.66836 38.9824,-74.54018 86.66652,-156.83502 47.65718,-82.24835 95.1616,-164.58332 86.33052,-156.93535 -8.76891,7.59413 -56.30596,89.94359 -103.99941,172.21979 -47.72893,82.33739 -95.614138,164.60123 -104.538581,172.33006 -8.862216,7.67493 39.056141,-74.6037 86.821421,-156.96884 47.73824,-82.31853 95.32355,-164.7239 86.48494,-157.06942 -8.77627,7.60051 -56.39427,90.0204 -104.16888,172.36686 -47.810195,82.4078 -95.776869,164.74186 -104.709073,172.47741 -8.869816,7.68151 39.13008,-74.66737 86.976713,-157.10299 47.81952,-82.3889 95.48592,-164.86485 86.63977,-157.20384 -8.78365,7.6069 -56.48281,90.09741 -104.33878,172.5143 C 52.549323,482.27582 4.5009732,564.68029 -4.4390102,572.42257 -13.316447,580.11068 34.765197,497.69136 82.693403,415.18507 130.59439,332.72564 178.3421,250.17892 169.4884,257.84648 160.69734,265.45978 112.91681,348.0211 64.979273,430.5086 17.005906,513.05776 -31.12433,595.53281 -40.072113,603.28185 -48.957189,610.97658 -0.79358791,528.48663 47.216399,445.90951 95.199078,363.37935 143.02829,280.76168 134.16701,288.4358 125.36854,296.05553 77.506427,378.68783 29.487113,461.24613 -18.568155,543.86624 -66.780488,626.41206 -75.736093,634.16787 -84.628828,641.86923 -36.383057,559.30849 11.708921,476.66033 59.773499,394.05926 107.68443,311.37047 98.815555,319.05117 90.00965,326.67733 42.065744,409.38081 -6.0355598,492.01009 -54.17294,574.70134 -102.46758,657.3181 -111.43103,665.0807 c -8.90041,7.70801 39.42774,-74.92372 87.601922,-157.64309 C 24.317579,424.76546 72.310446,342.00535 63.43395,349.69264 54.620591,357.32526 6.5946812,440.10009 -41.588823,522.80053 -89.808529,605.56311 -138.18569,688.251 -147.157,696.0204 c -8.90811,7.71468 39.50263,-74.98821 87.759232,-157.77897 48.229009,-82.74343 96.30402,-165.57505 87.419887,-157.88113 -8.820833,7.63909 -56.928958,90.48546 -105.194876,173.25724 -48.302243,82.83408 -96.762143,165.59329 -105.741333,173.36952 -8.91583,7.72137 39.57772,-75.05288 87.916953,-157.91522 48.311543,-82.81489 96.4689115,-165.71819 87.577122,-158.01765 -8.828326,7.64558 -57.018879,90.56368 -105.367425,173.40699 -48.385,82.90578 -96.92784,165.73648 -105.91494,173.51956 -8.92357,7.72806 39.65301,-75.11772 88.07508,-158.05183 48.394296,-82.88653 96.634235,-165.8617 87.734769,-158.15451 -8.83537,7.65168 -57.228379,90.84688 -105.659809,173.76151 -48.46595,82.97376 -96.97735,165.67955 -105.48981,172.64805 -8.45218,6.91916 40.0872,-75.7978 88.35099,-158.39317 48.23741,-82.55023 96.202069,-164.98301 87.295653,-157.2698 -8.842626,7.65796 -55.835623,88.37293 -101.833513,167.06947 -46.01659,78.72851 -91.0907,155.53454 -95.50856,155.53454 -4.39034,0 40.67648,-76.80603 84.44934,-151.68792 43.76366,-74.86615 86.26459,-147.85537 77.35922,-140.14306 -8.8565,7.66998 -51.39879,80.6809 -92.91969,151.68792 -41.53644,71.0336 -82.09502,140.14306 -86.51038,140.14306 -4.39309,0 36.15893,-69.10946 75.44828,-136.29312 39.28237,-67.17171 77.32632,-132.45347 68.41766,-124.73831 -8.86985,7.68154 -46.95084,72.98273 -83.9868,136.29312 -37.04863,63.33206 -73.08751,124.73831 -77.50064,124.73831 -4.39557,0 31.63747,-61.40626 66.43565,-120.88504 34.79312,-59.47015 68.36949,-117.03876 59.45696,-109.32026 -8.88266,7.69264 -42.49173,65.27841 -75.03479,120.88505 -32.55315,55.62386 -64.06814,109.32025 -68.47933,109.32025 -4.39777,0 27.11211,-53.69639 57.41143,-105.46366 30.29591,-51.76143 59.39406,-101.6112 50.47708,-93.88885 -8.89494,7.70327 -38.02143,57.56792 -66.06363,105.46366 -28.04996,47.90899 -55.03687,93.88885 -59.44639,93.88885 -4.3997,0 22.58284,-45.97986 48.37559,-90.02892 25.79071,-44.04557 50.39997,-86.17079 41.47797,-78.44408 -8.90668,7.71344 -33.53993,49.85125 -57.07326,90.02892 -23.53905,40.18744 -45.99368,78.44408 -50.40181,78.44408 -4.40134,0 18.04964,-38.25664 39.32809,-74.5808 21.2775,-36.32252 41.38719,-70.71746 32.45959,-62.9859 -17.85145,15.45986 -80.59844,137.5667 -89.40919,137.5667 -4.40271,0 13.51251,-30.52671 30.26891,-59.11926 16.75625,-28.59228 32.35566,-55.2512 23.42186,-47.51428 -17.86697,15.47331 -62.50153,106.63354 -71.31228,106.63354 -8.81076,0 53.44531,-91.16023 35.56277,-75.67344 -17.88254,15.48679 -44.37353,75.67344 -53.18428,75.67344 -8.81076,0 35.30174,-60.18665 17.40359,-44.68634 -17.89816,15.50031 -26.21435,44.68634 -35.0251,44.68634 -8.81076,0 17.12695,-29.18604 -0.78686,-13.67217 -17.91462,15.51457 -12.42927,13.67217 -12.42927,13.67217 M 1033.5374,19.916437 c 0,0 13.0472,-15.041437 4.2352,-15.041437 -8.8107,0 -13.0015,22.63372 -30.5498,37.831036 C 989.67451,57.903353 1028.9619,4.875 1020.1511,4.875 c -8.8107,0 -30.47659,53.028349 -48.03962,68.238439 C 954.54844,88.32353 1011.3404,4.875 1002.5296,4.875 c -8.81073,0 -47.98116,83.448526 -65.55898,98.67142 -17.57783,15.2229 56.74825,-98.67142 47.93749,-98.67142 -8.81075,0 -65.51531,113.89432 -83.10796,129.13005 -8.79489,7.61663 9.81512,-24.6634 29.48903,-58.851623 C 950.96238,40.966447 971.6956,4.875 967.2866,4.875 c -4.40295,0 -25.13277,36.091446 -47.0011,74.088968 -21.87332,38.006212 -44.87172,77.892432 -53.68551,85.525422 -8.8004,7.6214 14.22018,-32.27638 38.2918,-74.088966 C 928.96175,48.59075 954.07563,4.875 949.66509,4.875 c -4.40166,0 -29.51143,43.715749 -55.77976,89.339187 -26.27521,45.635373 -53.69027,93.142623 -62.51527,100.785323 -8.80538,7.62571 18.63614,-39.89533 47.11319,-89.33919 C 906.95741,56.221505 936.45594,4.875 932.04358,4.875 c -4.40009,0 -33.89379,51.346504 -64.56959,104.60231 -30.68481,53.27148 -62.52692,108.40527 -71.36369,116.05815 -8.80984,7.62958 23.063,-47.52024 55.95323,-104.60231 C 884.94935,63.858728 918.83653,4.875 914.42207,4.875 c -4.39825,0 -38.27987,58.983727 -73.3706,119.87838 -35.10218,60.91452 -71.38174,123.68037 -80.23084,131.34395 -8.81377,7.63297 27.50082,-55.15114 64.81197,-119.87838 C 862.93757,71.502436 901.21739,4.875 896.80056,4.875 c -4.39613,0 -42.66967,66.627435 -82.18283,135.16742 -39.52731,68.56454 -80.25475,138.96798 -89.11677,146.64274 -8.81717,7.63592 31.94961,-62.78803 73.68947,-135.16742 C 840.92205,79.152646 883.59853,4.875 879.17905,4.875 c -4.39375,0 -47.0632,74.277645 -91.0063,150.46947 -43.96023,76.22155 -89.14601,154.26812 -98.02152,161.95457 -8.81806,7.63669 36.96153,-71.38587 83.13766,-151.4261 C 819.44599,85.865691 865.98537,4.8620591 859.35974,8.7014956 852.77986,12.514421 806.2316,93.519311 758.95651,175.44268 711.6551,257.41167 663.6571,340.24371 654.77135,347.93902 c -8.82226,7.64032 38.66737,-74.26887 86.00485,-156.26342 47.31093,-81.94857 94.46985,-163.982809 85.67089,-156.36266 -8.73747,7.566896 -55.92871,89.61547 -103.27554,171.59159 -47.38177,82.03663 -94.919,164.00052 -103.8103,171.70064 -8.82976,7.64682 38.74032,-74.33169 86.15806,-156.39577 47.39111,-82.01799 94.63003,-164.121862 85.82363,-156.495271 -8.74475,7.573203 -56.01606,89.691441 -103.44315,171.737051 -47.46216,82.10627 -95.07997,164.13962 -103.97894,171.84639 -8.83727,7.65332 38.81345,-74.39468 86.31166,-156.52847 47.47149,-82.08758 94.79062,-164.261266 85.97677,-156.628217 -8.75205,7.579527 -56.10364,89.767617 -103.6112,171.882887 -47.54275,82.17609 -95.24134,164.27907 -104.14801,171.9925 -8.8448,7.65985 38.88677,-74.45782 86.46566,-156.6615 47.55208,-82.15735 94.95162,-164.40103 86.13029,-156.7615 -8.75937,7.58586 -56.19144,89.84398 -103.77968,172.02909 -47.62354,82.24608 -95.40312,164.41888 -104.3175,172.13899 -8.85236,7.66639 38.96027,-74.52113 86.62005,-156.79488 47.63286,-82.2273 95.11302,-164.54114 86.2842,-156.89512 -8.76671,7.59221 -56.27947,89.92054 -103.94858,172.17566 -47.70455,82.31627 -95.56532,164.55905 -104.48743,172.28586 -8.85994,7.67295 39.03396,-74.58459 86.77482,-156.92859 47.71387,-82.29743 95.27485,-164.68162 86.43851,-157.0291 -8.77406,7.59859 -56.36771,89.9973 -104.11792,172.32263 -47.78575,82.38662 -95.72792,164.69957 -104.65779,172.43309 -8.86753,7.67953 39.10784,-74.64822 86.93001,-157.06264 47.79507,-82.36774 95.43708,-164.82246 86.59321,-157.16341 -8.78144,7.60497 -56.45619,90.07425 -104.28769,172.46995 -47.86717,82.45716 -95.89096,164.84045 -104.8286,172.58071 -8.87515,7.68613 39.18191,-74.71201 87.08558,-157.19704 47.87649,-82.43822 95.59974,-164.96366 86.74831,-157.29807 -8.78882,7.61138 -56.54488,90.1514 -104.45789,172.61767 -47.9488,82.52787 -96.05441,164.9817 -104.99985,172.7287 -8.88277,7.69274 39.25618,-74.77596 87.24157,-157.33179 47.95811,-82.50889 95.76281,-165.10522 86.90381,-157.43307 -8.79624,7.61779 -56.63382,90.22875 -104.62854,172.76576 -48.03063,82.59877 -96.21828,165.12331 -105.17153,172.87708 -8.89043,7.69937 39.33063,-74.84008 87.39795,-157.46688 48.03994,-82.57974 95.9263,-165.24715 87.05971,-157.56842 -8.80367,7.62422 -56.72298,90.3063 -104.79962,172.91423 -48.11269,82.66985 -96.38258,165.26528 -105.34367,173.02584 -8.8981,7.70601 39.40528,-74.90437 87.55474,-157.60232 48.12199,-82.65078 96.09022,-165.38944 87.21601,-157.70413 -8.81112,7.63068 -56.81236,90.38405 -104.97115,173.06309 -48.19494,82.74112 -96.54729,165.40762 -105.51623,173.17498 -8.9058,7.71267 39.48011,-74.96882 87.71192,-157.73811 48.20425,-82.72199 96.25456,-165.5321 87.37272,-157.84018 -8.81859,7.63715 -56.90198,90.462 -105.14312,173.21233 -48.27742,82.81258 -96.71243,165.55033 -105.68926,173.32451 -8.91351,7.71936 39.55515,-75.03343 87.86952,-157.87425 48.28673,-82.79339 96.41933,-165.67513 87.52984,-157.97659 -8.82607,7.64363 -56.99184,90.54016 -105.31553,173.36196 -48.36011,82.88421 -96.87801,165.69341 -105.86273,173.47443 -8.92125,7.72606 39.63037,-75.09822 88.02752,-158.01074 48.36941,-82.86498 96.58452,-165.81854 87.68736,-158.11335 -8.83358,7.65013 -57.08192,90.61851 -105.48839,173.51197 -48.44302,82.95604 -97.04402,165.83687 -106.03666,173.62475 -8.92899,7.73276 39.70579,-75.16318 88.18595,-158.1476 48.4523,-82.93676 96.75013,-165.96232 87.84529,-158.25047 -8.83836,7.65427 -57.16659,90.68296 -104.50814,171.68857 -47.36124,81.03931 -93.79132,160.15663 -98.20997,160.15663 -4.38946,0 42.0331,-79.11732 87.15162,-156.31099 45.1086,-77.17671 88.94665,-152.48068 80.04216,-144.76913 -8.85239,7.66642 -52.7331,82.99277 -95.60003,156.31099 -42.88339,73.34639 -84.79919,144.76913 -89.21526,144.76913 -4.3923,0 37.51672,-71.42274 78.15403,-140.92018 40.62969,-69.4844 80.01395,-137.08261 71.10633,-129.36836 -8.86589,7.67811 -48.28848,75.29644 -86.67286,140.92018 C 136.12525,731.40347 98.727902,795.125 94.314128,795.125 c -4.394851,0 32.996442,-63.72153 69.144882,-125.5161 36.14284,-61.78498 71.0627,-121.67175 62.1514,-113.95431 -8.87887,7.68936 -43.83273,67.59398 -77.72661,125.5161 C 113.97909,739.11133 81.104365,795.125 76.692618,795.125 c -4.397134,0 28.472252,-56.01367 60.124152,-110.09871 31.64803,-54.07842 62.09287,-106.24807 53.17729,-98.52692 -8.89131,7.70012 -39.3658,59.88533 -68.76121,110.09871 -29.403841,50.22778 -57.751745,98.52692 -62.161741,98.52692 -4.399143,0 23.944162,-48.29915 51.091811,-94.66799 27.14522,-46.36471 53.10439,-90.81152 44.18396,-83.08617 -8.90322,7.71044 -34.88767,52.17052 -59.776617,94.66799 -24.895256,42.50824 -48.712142,83.08617 -53.120664,83.08617 -4.400874,0 19.412145,-40.57794 42.047818,-79.22389 C 106.13184,677.25729 127.59464,640.53903 118.66878,648.26908 100.82199,663.72491 32.638844,795.125 23.828089,795.125 c -4.402327,0 14.876194,-32.85002 32.992152,-63.76639 C 74.93583,700.44287 91.891574,671.45891 82.959696,679.19417 65.097392,694.66343 15.017334,795.125 6.2065796,795.125 -2.6041752,795.125 65.097398,694.66342 47.219536,710.14616 29.341675,725.6289 -2.6041752,795.125 -11.41493,795.125 c -8.810755,0 40.756611,-69.49611 22.863151,-53.99986 -17.8934592,15.49624 -31.673906,53.99986 -40.484661,53.99986 -8.810755,0 22.5912078,-38.50362 4.682109,-22.99383 -17.90953,15.51016 -17.898241,22.99383 -17.898241,22.99383 M 1444.0749,10.790681 c 0,0 7.8034,-5.915681 -1.0075,-5.915681 -8.8108,0 -7.7566,13.506058 -25.3005,28.699552 -17.5439,15.193493 16.4897,-28.699552 7.679,-28.699552 -8.8108,0 -25.2229,43.893041 -42.7815,59.099298 C 1365.1058,79.180554 1416.6351,4.875 1407.8243,4.875 c -8.8107,0 -42.7185,74.30555 -60.2919,89.524602 C 1329.9591,109.61865 1399.0136,4.875 1390.2028,4.875 c -8.8107,0 -60.2437,104.74365 -77.8319,119.97553 -8.7932,7.6151 8.4936,-22.37711 26.8477,-54.27581 18.3536,-31.897868 37.7713,-65.69972 33.3627,-65.69972 -4.4033,0 -23.8178,33.801851 -44.3655,69.509295 -20.5523,35.715255 -42.2256,73.312675 -51.0362,80.942855 -8.7988,7.62001 12.8955,-29.98831 35.6449,-69.5093 22.7481,-39.518629 46.5454,-80.94285 42.1353,-80.94285 -4.4021,0 -28.1954,41.42422 -53.1409,84.755645 -24.9518,43.342335 -51.0387,88.559145 -59.8602,96.198875 -8.804,7.62446 17.3081,-37.60546 44.4607,-84.75565 27.15,-47.145833 55.3307,-96.19887 50.9189,-96.19887 -4.4006,0 -32.5766,49.053036 -61.9274,100.01489 -29.359,50.97635 -59.8699,103.81804 -68.703,111.46781 -8.8086,7.62847 21.7317,-45.22857 53.2951,-100.01489 C 1291.5625,61.563316 1324.1306,4.875 1319.7168,4.875 c -4.3988,0 -36.9616,56.688315 -70.725,115.28707 -33.7741,58.61731 -68.7193,119.08939 -77.5646,126.74971 -8.8127,7.632 26.1662,-52.85768 62.1482,-115.28707 35.9764,-62.419636 72.936,-126.74971 68.5199,-126.74971 -4.3968,0 -41.3503,64.330073 -79.5339,130.57221 -38.1969,66.26523 -77.5868,134.37324 -86.4449,142.04459 -8.8162,7.63508 30.6118,-60.49277 71.0202,-130.57221 C 1247.5374,76.853328 1288.8924,4.875 1284.4738,4.875 c -4.3945,0 -45.7427,71.978327 -88.354,145.87035 -42.6274,73.92013 -86.4725,149.66961 -95.3439,157.3525 -8.8193,7.6377 35.0682,-68.13388 79.9107,-145.87035 44.8327,-77.719405 90.5872,-157.3525 86.1657,-157.3525 -4.3919,0 -50.1389,79.633094 -97.1853,161.18151 -47.0659,81.58204 -95.3767,164.97855 -104.262,172.67346 -8.82,7.63838 38.6455,-74.25 85.9589,-156.22368 47.2869,-81.92773 94.4218,-163.941062 85.6251,-156.322851 -8.7353,7.564998 -55.9025,89.592651 -103.2253,171.547911 -47.3576,82.01573 -94.8707,163.95878 -103.7597,171.6569 -8.8275,7.64486 38.7184,-74.31279 86.112,-156.35595 47.367,-81.99709 94.5819,-164.080012 85.7777,-156.455364 -8.7426,7.571301 -55.9898,89.668574 -103.3927,171.693274 -47.438,82.08532 -95.0316,164.09777 -103.92825,171.80254 -8.83501,7.65137 38.79145,-74.37573 86.26545,-156.48855 47.4473,-82.06664 94.7423,-164.219321 85.9307,-156.588218 -8.7498,7.577618 -56.0773,89.744698 -103.5606,171.839008 -47.5185,82.15508 -95.19283,164.23712 -104.09719,171.94854 -8.84253,7.65789 38.86472,-74.43882 86.41939,-156.62148 47.5278,-82.13636 94.9031,-164.35898 86.0841,-156.72141 -8.7572,7.58395 -56.1651,89.821 -103.729,171.9851 -47.59928,82.22504 -95.35449,164.37683 -104.26655,172.09493 -8.85009,7.66443 38.93816,-74.50208 86.57365,-156.75476 47.6085,-82.20626 95.0644,-164.499 86.2379,-156.85494 -8.7645,7.59031 -56.253,89.89751 -103.89781,172.13158 -47.68018,82.29516 -95.51653,164.51689 -104.43632,172.24168 -8.85766,7.67098 39.0118,-74.5655 86.72828,-156.88837 47.68955,-82.27634 95.22615,-164.63937 86.39205,-156.98881 -8.7718,7.59667 -56.3411,89.97421 -104.06694,172.27843 -47.76133,82.36546 -95.67902,164.6573 -104.60656,172.3888 -8.86525,7.67756 39.08562,-74.62908 86.88334,-157.02233 47.77065,-82.34658 95.38826,-164.7801 86.54666,-157.12301 -8.7792,7.60304 -56.42955,90.0511 -104.2366,172.42564 -47.84269,82.43594 -95.84193,164.79808 -104.77724,172.53631 -8.87285,7.68414 39.15964,-74.69282 87.0388,-157.15662 47.85201,-82.41703 95.55083,-164.9212 86.70167,-157.25758 -8.7866,7.60945 -56.51821,90.1282 -104.4067,172.57325 -47.92425,82.5066 -96.00526,164.93922 -104.94835,172.68419 -8.88048,7.69075 39.23384,-74.75673 87.19466,-157.29127 47.93357,-82.48763 95.71377,-165.06264 86.85705,-157.39247 -8.79401,7.61586 -56.60707,90.20549 -104.57722,172.72122 -48.00603,82.57745 -96.169,165.08072 -105.1199,172.83246 -8.88813,7.69737 39.30824,-74.8208 87.35092,-157.42626 48.01534,-82.55843 95.87714,-165.20446 87.01283,-157.52772 -8.80144,7.62229 -56.69617,90.28298 -104.74817,172.86958 -48.08802,82.64848 -96.33317,165.22259 -105.2919,172.9811 -8.8958,7.70402 39.38282,-74.88503 87.50758,-157.56159 48.09732,-82.62941 96.04093,-165.34665 87.16901,-157.66332 -8.80887,7.62874 -56.78548,90.36067 -104.91956,173.01832 -48.17021,82.7197 -96.49776,165.36482 -105.46434,173.13014 -8.90348,7.71067 39.45761,-74.94944 87.66465,-157.69728 48.17952,-82.70058 96.20514,-165.48921 87.3256,-157.79927 -8.81634,7.6352 -56.87503,90.43856 -105.0914,173.16745 -48.25262,82.79109 -96.66278,165.50742 -105.63723,173.27955 -8.91119,7.71734 39.53258,-75.01401 87.82213,-157.83332 48.26192,-82.77192 96.36977,-165.63212 87.48259,-157.93557 -8.82382,7.64168 -56.96482,90.51665 -105.26369,173.31696 -48.33524,82.86268 -96.82822,165.65039 -105.81056,173.42936 -8.91892,7.72403 39.60775,-75.07874 87.98001,-157.96971 48.34454,-82.84345 96.53484,-165.77542 87.63999,-158.07222 -8.83132,7.64817 -57.05483,90.59494 -105.43641,173.46686 -48.41808,82.93444 -96.9941,165.79373 -105.98435,173.57955 -8.92667,7.73074 39.68311,-75.14365 88.1383,-158.10645 48.42738,-82.91517 96.70033,-165.91909 87.7978,-158.20924 -8.8348,7.65119 -58.16915,92.43001 -106.63394,175.37023 -48.48655,82.97744 -96.15697,164.21332 -101.0178,164.96477 -4.82699,0.74622 42.83842,-80.48896 89.30378,-159.99662 46.45287,-79.48629 91.73687,-157.29241 82.83281,-149.58125 -8.84823,7.66282 -54.06639,85.30409 -98.27864,160.93288 -44.22966,75.65858 -87.5023,149.394 -91.91912,149.394 -4.39147,0 38.87416,-73.73543 80.85875,-145.54605 41.9763,-71.79645 82.6999,-141.7106 73.79328,-133.99722 -8.86189,7.67465 -49.62512,77.6096 -89.3572,145.54605 -39.74646,67.96101 -78.5019,133.99722 -82.91634,133.99722 -4.39411,0 34.35506,-66.03621 71.85308,-130.14596 37.49184,-64.09917 73.75423,-126.30359 64.84409,-118.58716 -8.87502,7.68602 -45.17272,69.90898 -80.41669,130.14596 -35.25559,60.25681 -69.48966,118.58716 -73.90199,118.58716 -4.39648,0 29.83205,-58.33035 62.83583,-114.73257 32.99942,-56.39476 64.78999,-110.88377 55.87575,-103.16379 -8.88763,7.69694 -40.70915,62.2022 -71.45705,114.73257 -30.75703,52.54596 -60.46555,103.16379 -64.87604,103.16379 -4.39857,0 25.30513,-50.61783 53.80698,-99.30586 28.49902,-48.6832 55.80711,-95.45108 46.8882,-87.72705 -8.89969,7.70739 -36.23439,54.48924 -62.47823,99.30585 -26.25076,44.82843 -51.42952,87.72706 -55.83846,87.72706 -4.40038,0 20.77429,-42.89863 44.76649,-83.86578 23.99062,-40.96447 46.80557,-80.00552 37.8814,-72.27694 -8.91122,7.71738 -31.7484,46.7701 -53.48018,83.86578 -21.73676,37.10421 -42.38156,72.27694 -46.78922,72.27694 -4.40192,0 16.23953,-35.17273 35.71433,-68.41231 19.47421,-33.23855 37.78531,-64.54704 28.85531,-56.81339 -17.85764,15.46522 -73.38039,125.2257 -82.19115,125.2257 -8.81075,0 64.33351,-109.76048 46.46033,-94.2818 -17.87318,15.47869 -55.27108,94.2818 -64.08184,94.2818 -8.81075,0 46.20866,-78.80312 28.31989,-63.31093 -17.88877,15.49218 -37.13064,63.31093 -45.9414,63.31093 -8.81075,0 28.05264,-47.81876 10.14824,-32.31304 -17.90439,15.50572 -18.95899,32.31304 -27.76975,32.31304 -8.81031,0 0.90485,-9.04768 0.90485,-9.04768 M 1843.9567,4.875 c 0,0 1.8905,4.3811858 -15.6483,19.570333 -17.5395,15.189656 11.2429,-19.570333 2.4322,-19.570333 -8.8108,0 -19.9717,34.759985 -37.5258,49.962395 -17.5542,15.202411 28.715,-49.962395 19.9043,-49.962395 -8.8108,0 -37.4585,65.164802 -55.0274,80.38 -17.569,15.2152 46.2166,-80.38 37.4059,-80.38 -8.8108,0 -54.9749,95.59519 -72.5586,110.82321 -8.7913,7.61354 7.1732,-20.091323 24.208,-49.701098 C 1764.1816,36.387807 1782.2842,4.875 1777.876,4.875 c -8.8107,0 -72.5207,126.05122 -90.1193,141.29209 -8.7972,7.61859 11.5717,-27.70073 32.9996,-64.930718 C 1742.1832,44.00824 1764.6641,4.875 1760.2545,4.875 c -4.4024,0 -26.8796,39.133239 -50.503,80.173198 -23.629,41.049892 -48.3887,83.976702 -57.2068,91.613512 -8.8025,7.62317 15.9811,-35.3161 41.8098,-80.173197 C 1720.1811,51.635116 1747.0443,4.875 1742.633,4.875 c -4.401,0 -31.2598,46.760115 -59.2861,95.42856 -28.034,48.68182 -57.2144,99.23187 -66.0441,106.87857 -8.8072,7.62731 20.4014,-42.93742 50.6387,-95.42856 30.2338,-52.48512 61.4832,-106.87857 57.07,-106.87857 -4.3994,0 -35.6436,54.393449 -68.0804,110.69685 -32.4467,56.32069 -66.0583,114.49947 -74.9,122.15657 -8.8114,7.63098 24.8327,-50.56472 59.4862,-110.69685 C 1676.1657,66.908259 1711.8054,4.875 1707.39,4.875 c -4.3974,0 -40.0312,62.033258 -76.8859,125.97809 -36.8671,63.96651 -74.9204,129.77957 -83.7746,137.44755 -8.8152,7.6342 29.2749,-58.19801 68.3524,-125.9781 C 1654.1525,74.55456 1694.1863,4.875 1689.7685,4.875 c -4.3952,0 -44.4225,69.679559 -85.7026,141.27232 -41.2954,71.61932 -83.8007,145.07217 -92.668,152.75153 -8.8184,7.63697 33.728,-65.8373 77.2373,-141.27232 C 1632.1355,82.207368 1676.5676,4.875 1672.147,4.875 c -4.3927,0 -48.8176,77.332367 -94.5306,156.57957 -45.7314,79.27911 -92.6992,160.37732 -101.5803,168.06857 -8.8178,7.63643 38.6236,-74.23116 85.9129,-156.18397 47.2629,-81.906902 94.3738,-163.8993409 85.5793,-156.283059 -8.7331,7.56311 -55.8763,89.569859 -103.175,171.504269 -47.3335,81.99483 -94.8224,163.91704 -103.7091,171.61317 -8.8253,7.64292 38.6964,-74.29388 86.0659,-156.31613 47.3429,-81.97621 94.5337,-164.038183 85.7317,-156.415469 -8.7403,7.569407 -55.9635,89.645729 -103.3423,171.649519 -47.4138,82.06437 -94.9831,164.05593 -103.8775,171.7587 -8.8328,7.64941 38.7695,-74.35678 86.2193,-156.44863 47.4231,-82.0457 94.694,-164.177383 85.8846,-156.54822 -8.7476,7.57572 -56.0509,89.72178 -103.5101,171.79514 -47.4943,82.13408 -95.1443,164.19517 -104.0463,171.90459 -8.8403,7.65593 38.8427,-74.41983 86.373,-156.58146 47.5036,-82.11537 94.8548,-164.31694 86.038,-156.68131 -8.755,7.58205 -56.1387,89.79804 -103.6784,171.94113 -47.5749,82.20397 -95.3058,164.33476 -104.2155,172.05086 -8.8479,7.66246 38.916,-74.48304 86.5272,-156.71464 47.5842,-82.18521 95.0159,-164.45684 86.1916,-156.81473 -8.7623,7.58839 -56.2265,89.87448 -103.847,172.08748 -47.6558,82.27405 -95.4678,164.47472 -104.3852,172.1975 -8.8554,7.66901 38.9896,-74.5464 86.6817,-156.84814 47.6652,-82.25524 95.1775,-164.59711 86.3457,-156.9485 -8.7696,7.59475 -56.3146,89.95112 -104.0161,172.23421 -47.7369,82.3443 -95.6301,164.61504 -104.5553,172.34452 -8.863,7.67558 39.0634,-74.60994 86.8367,-156.982 47.7462,-82.32544 95.3395,-164.73773 86.5001,-157.08261 -8.777,7.60113 -56.4029,90.02796 -104.1855,172.38133 -47.8183,82.41472 -95.793,164.7557 -104.7259,172.4919 -8.8706,7.68217 39.1373,-74.67363 86.992,-157.11619 47.8275,-82.39582 95.5019,-164.87871 86.655,-157.21706 -8.7844,7.60752 -56.4915,90.10499 -104.3555,172.52881 -47.8997,82.48534 -95.9561,164.89673 -104.8969,172.63968 -8.8782,7.68876 39.2116,-74.73749 87.1478,-157.25073 47.909,-82.46638 95.6647,-165.02007 86.8103,-157.35186 -8.7918,7.61393 -56.5803,90.18222 -104.5259,172.67667 -47.9814,82.55613 -96.1197,165.03813 -105.0683,172.78783 -8.8858,7.69538 39.2858,-74.80152 87.3039,-157.38562 47.9907,-82.53712 95.828,-165.16177 86.966,-157.487 -8.7992,7.62035 -56.6694,90.25965 -104.6968,172.82492 -48.0633,82.62709 -96.2838,165.17987 -105.2401,172.93635 -8.8935,7.70201 39.3604,-74.8657 87.4604,-157.52085 48.0727,-82.60804 95.9917,-165.30384 87.122,-157.62249 -8.8066,7.62679 -56.7586,90.33728 -104.868,172.97354 -48.1454,82.69826 -96.4482,165.322 -105.4124,173.08527 -8.9012,7.70867 39.4351,-74.93005 87.6174,-157.65643 48.1548,-82.67915 96.1557,-165.44628 87.2785,-157.75834 -8.8141,7.63326 -56.8481,90.41511 -105.0397,173.12256 -48.2279,82.76959 -96.6132,165.46448 -105.5852,173.23456 -8.9089,7.71534 39.51,-74.99456 87.7747,-157.79235 48.2371,-82.75044 96.3202,-165.5891 87.4353,-157.89453 -8.8215,7.63973 -56.9378,90.49314 -105.2118,173.27194 -48.3104,82.84112 -96.7784,165.60735 -105.7584,173.38425 -8.9166,7.72202 39.5851,-75.05925 87.9325,-157.92863 48.3197,-82.82192 96.4852,-165.73228 87.5926,-158.03108 -8.829,7.64622 -57.0277,90.57137 -105.3844,173.42173 -48.3932,82.91283 -96.94419,165.75056 -105.93207,173.53432 -8.92433,7.72872 39.66047,-75.1241 88.09067,-158.06527 48.4024,-82.89358 96.6505,-165.87583 87.7503,-158.16798 -8.8352,7.65156 -57.4607,91.23791 -105.9003,174.15884 -48.47063,82.97389 -96.77523,165.31806 -104.38537,170.75007 -7.55633,5.3936 40.7663,-76.95587 88.58627,-158.7892 47.7967,-81.79338 95.0992,-163.08319 86.1934,-155.37052 -8.844,7.65917 -55.3987,87.61483 -100.9555,165.55355 -45.57522,77.97015 -90.20432,154.01765 -94.62192,154.01765 -4.39062,0 40.23126,-76.0475 83.56242,-150.1707 43.3222,-74.10785 85.3842,-146.33742 76.4785,-138.62486 -8.8578,7.67114 -50.9608,79.92219 -92.03982,150.1707 -41.09432,70.27458 -81.20748,138.62486 -85.62261,138.62486 -4.39334,0 35.71332,-68.35028 74.56022,-134.77459 38.84011,-66.41272 76.44411,-130.93427 67.53501,-123.2188 -8.8711,7.68265 -46.5117,72.22341 -83.105,134.77459 -36.60576,62.57238 -72.1988,123.2188 -76.61174,123.2188 -4.39579,0 31.19148,-60.64642 65.54645,-119.36521 34.35009,-58.71044 67.48539,-115.51829 58.57249,-107.79943 -8.8839,7.69371 -42.0515,64.51849 -74.15117,119.36521 -32.10951,54.86353 -63.17826,107.79943 -67.58928,107.79943 -4.39796,0 26.66574,-52.9359 56.52109,-103.9425 29.85209,-51.00104 58.50815,-100.08948 49.5907,-92.36672 -8.89612,7.70429 -37.58009,56.80739 -65.1781,103.9425 -27.60557,47.14801 -54.14582,92.36672 -58.5552,92.36672 -4.39986,0 22.13608,-45.21871 47.4841,-88.50645 25.3461,-43.28446 49.51222,-84.64779 40.58969,-76.92062 -8.90781,7.71442 -33.09748,49.09011 -56.18583,88.50645 -23.0939,39.42579 -45.10145,76.92062 -49.50947,76.92062 -4.40148,0 17.6025,-37.49483 38.43546,-73.05701 20.83209,-35.5607 40.49759,-69.19319 31.56939,-61.46112 -17.85297,15.46118 -78.8156,134.51813 -87.62635,134.51813 -4.40284,0 13.06497,-29.76424 29.37511,-57.59415 16.31005,-27.82974 31.46421,-53.72564 22.52977,-45.98816 -17.86851,15.47463 -60.71564,103.58231 -69.52639,103.58231 -8.81076,0 51.65788,-88.10768 33.7738,-72.61956 -17.88408,15.48812 -42.58456,72.61956 -51.39531,72.61956 -8.81076,0 33.51124,-57.13144 15.61154,-41.6298 -17.89969,15.50165 -24.4223,41.6298 -33.23305,41.6298 -8.81076,0 15.33336,-26.12816 -2.58199,-10.61295 -17.91617,15.51591 -10.63415,10.61295 -10.63415,10.61295 M 2249.2514,4.875 c 0,0 7.13,-4.74171552 -10.4042,10.443431 -17.5351,15.18583 5.9989,-10.443431 -2.8119,-10.443431 -8.8108,0 -14.7232,25.629257 -32.2729,40.827832 C 2186.2127,60.901407 2227.2245,4.875 2218.4138,4.875 c -8.8108,0 -32.2011,56.026403 -49.7656,71.237755 C 2151.0837,91.324108 2209.603,4.875 2200.7923,4.875 c -8.8108,0 -49.7086,86.449104 -67.2879,101.67327 -17.5793,15.22416 58.4771,-101.67327 49.6664,-101.67327 -8.8108,0 -67.2457,116.89742 -84.8398,132.13443 -8.7954,7.61711 10.249,-25.41372 30.3561,-60.35334 20.1064,-34.938232 41.2713,-71.78109 36.8622,-71.78109 -4.4029,0 -25.5643,36.842857 -47.8662,75.591948 -22.3069,38.758082 -45.7403,79.395432 -54.5552,87.029352 -8.8009,7.62185 14.6551,-33.02728 39.1607,-75.591943 C 2126.7925,49.342796 2152.3385,4.875 2147.9277,4.875 c -4.4015,0 -29.9433,44.467795 -56.6458,90.843438 -26.7096,46.387932 -54.5607,94.646852 -63.3868,102.290522 -8.8059,7.62612 19.0721,-40.64681 47.9839,-90.84343 C 2104.7877,56.974188 2134.7188,4.875 2130.3062,4.875 c -4.3999,0 -34.326,52.099187 -65.4368,106.10784 -31.12,54.02471 -63.3991,109.91071 -72.2371,117.56463 -8.8102,7.62993 23.5001,-48.27232 56.8258,-106.10784 C 2082.7793,64.612049 2117.0994,4.875 2112.6847,4.875 c -4.398,0 -38.7125,59.737048 -74.2389,121.38518 -35.5381,61.66845 -72.2557,125.18705 -81.1061,132.85171 -8.8141,7.63329 27.939,-55.90381 65.6864,-121.38518 C 2060.7672,72.256397 2099.4803,4.875 2095.0632,4.875 c -4.3959,0 -43.1027,67.381396 -83.0522,136.67551 -39.964,69.31914 -81.1306,140.47589 -89.9939,148.15178 -8.8175,7.63618 32.3888,-63.5413 74.5657,-136.67551 C 2038.7513,79.907248 2081.8615,4.875 2077.4417,4.875 c -4.3935,0 -47.4966,75.032247 -91.8768,151.97884 -44.3977,76.97684 -90.0236,155.77727 -98.9005,163.46489 -8.8175,7.63622 37.6179,-72.51333 84.2318,-153.30976 46.5916,-80.757991 93.3538,-162.1512594 85.8662,-156.810251 -7.4357,5.303922 -54.2152,86.702205 -101.4951,168.626141 -47.3093,81.97507 -95.1001,164.44119 -103.9858,172.13643 -8.823,7.64096 38.6746,-74.27502 86.0199,-156.27638 47.3188,-81.95537 94.4856,-163.996431 85.6859,-156.375651 -8.7382,7.567513 -55.9373,89.622911 -103.292,171.605831 -47.3896,82.04346 -94.9348,164.01416 -103.8268,171.71493 -8.8305,7.64746 38.7475,-74.33786 86.1731,-156.40877 47.399,-82.02481 94.6458,-164.135523 85.8387,-156.5083 -8.7455,7.573822 -56.0247,89.69891 -103.4597,171.75134 -47.4701,82.11312 -95.0958,164.15329 -103.9955,171.86071 -8.838,7.65397 38.8206,-74.40086 86.3268,-156.54151 47.4794,-82.09441 94.8064,-164.274959 85.9918,-156.641276 -8.7528,7.580146 -56.1123,89.775106 -103.6277,171.897216 -47.5507,82.18295 -95.2573,164.29278 -104.1647,172.00687 -8.8456,7.66049 38.894,-74.46403 86.4808,-156.67458 47.56,-82.16421 94.9675,-164.41476 86.1454,-156.7746 -8.7601,7.58648 -56.2001,89.85148 -103.7962,172.04346 -47.6315,82.25297 -95.4191,164.43262 -104.3342,172.15339 -8.8531,7.66704 38.9675,-74.52735 86.6352,-156.80799 47.6408,-82.23417 95.1289,-164.55491 86.2994,-156.90826 -8.7674,7.59284 -56.2882,89.92807 -103.9652,172.19008 -47.7126,82.32316 -95.5813,164.57283 -104.5042,172.30029 -8.8607,7.67361 39.0412,-74.59083 86.7901,-156.94173 47.7218,-82.30432 95.2908,-164.69543 86.4537,-157.04227 -8.7748,7.59921 -56.3764,90.00484 -104.1346,172.33708 -47.7938,82.39353 -95.744,164.71338 -104.6746,172.44756 -8.8683,7.68019 39.1151,-74.65447 86.9453,-157.07582 47.8031,-82.37465 95.4531,-164.83631 86.6084,-157.17662 -8.7821,7.6056 -56.4649,90.08182 -104.3044,172.48445 -47.8752,82.46409 -95.907,164.85431 -104.8454,172.59522 -8.8759,7.68678 39.1892,-74.71828 87.1009,-157.21026 47.8845,-82.44515 95.6158,-164.97754 86.7636,-157.31131 -8.7895,7.61201 -56.5536,90.15899 -104.4747,172.6322 -47.9568,82.53483 -96.0705,164.99559 -105.0167,172.74325 -8.8835,7.69339 39.2635,-74.78225 87.257,-157.34503 47.9661,-82.51584 95.7788,-165.11914 86.9191,-157.44635 -8.797,7.61843 -56.6426,90.23636 -104.6454,172.78032 -48.0387,82.60575 -96.2344,165.13723 -105.1884,172.89167 -8.8912,7.70002 39.338,-74.84639 87.4133,-157.48016 48.0481,-82.58671 95.9425,-165.2611 87.0751,-157.58173 -8.8044,7.62486 -56.7317,90.31392 -104.8165,172.92883 -48.1207,82.67684 -96.3987,165.27923 -105.3606,173.04046 -8.8988,7.70666 39.4126,-74.91069 87.5702,-157.61563 48.1301,-82.65776 96.1064,-165.40343 87.2314,-157.71747 -8.8118,7.63131 -56.8212,90.39169 -104.988,173.07772 -48.2031,82.74813 -96.5636,165.42161 -105.5333,173.18964 -8.9065,7.71333 39.4875,-74.97515 87.7274,-157.75145 48.2124,-82.72899 96.2708,-165.54613 87.3882,-157.85355 -8.8193,7.63778 -56.9108,90.46966 -105.1601,173.22699 -48.2855,82.8196 -96.7287,165.56435 -105.7063,173.33921 -8.9142,7.72001 39.5626,-75.03979 87.8851,-157.88763 48.2948,-82.80041 96.4355,-165.68918 87.5453,-157.98998 -8.8268,7.64427 -57.0007,90.54783 -105.3325,173.37665 -48.3683,82.89125 -96.8943,165.70746 -105.8798,173.48916 -8.922,7.7267 39.6377,-75.10459 88.043,-158.02415 48.3776,-82.87201 96.6008,-165.83262 87.7029,-158.12678 -8.8343,7.65077 -57.0908,90.62621 -105.5054,173.52671 -48.4512,82.96308 -97.0604,165.85094 -106.0538,173.63949 -8.9297,7.73343 39.7132,-75.16955 88.2016,-158.16102 48.4604,-82.9438 96.7664,-165.97643 87.8608,-158.26392 -8.8398,7.65548 -56.73,89.92503 -103.6307,170.17304 -46.9201,80.28114 -92.9053,158.64012 -97.3237,158.64012 -4.3897,0 41.588,-78.35898 86.265,-154.79416 44.6674,-76.41862 88.0668,-150.96311 79.162,-143.25132 -8.8537,7.6676 -52.2953,82.23424 -94.7207,154.79417 -42.4415,72.58756 -83.912,143.25131 -88.3278,143.25131 -4.3926,0 37.0712,-70.66375 77.2663,-139.40204 40.1877,-68.72561 79.1323,-135.56379 70.2243,-127.84925 -8.8672,7.67925 -47.8497,74.53731 -85.7917,139.40205 -37.9552,64.88735 -74.9069,127.84924 -79.3204,127.84924 -4.3951,0 32.5505,-62.96189 68.256,-123.99665 35.7001,-61.02549 70.1792,-120.15167 61.2675,-112.43388 -8.8801,7.69044 -43.3928,66.83424 -76.8436,123.99665 -33.4613,57.18051 -65.8899,112.43388 -70.3014,112.43388 -4.3974,0 28.026,-55.25337 59.2341,-108.57795 31.2045,-53.31823 61.2075,-104.72671 52.2915,-97.00518 -8.8925,7.70117 -38.9248,59.12499 -67.8763,108.57796 -28.9596,49.46698 -56.861,97.00517 -61.2708,97.00517 -4.3994,0 23.4975,-47.53819 50.2006,-93.14591 26.7009,-45.60381 52.2172,-89.28889 43.2963,-81.56311 -8.9044,7.71143 -34.4456,51.40957 -58.8898,93.14592 -24.4503,41.74678 -47.8203,81.5631 -52.2286,81.5631 -4.4011,0 18.9651,-39.81632 41.1555,-77.7005 22.1892,-37.8822 43.2081,-73.83817 34.2817,-66.10763 -17.8483,15.45715 -84.248,143.80813 -93.0588,143.80813 -4.4024,0 14.4288,-32.08775 32.0987,-62.24167 17.6697,-30.15341 34.1805,-58.37452 25.248,-50.63872 -17.8639,15.47059 -66.1574,112.88039 -74.9682,112.88039 -8.8107,0 57.1043,-97.40981 39.2249,-81.92574 -17.8794,15.48407 -48.0356,81.92574 -56.8464,81.92574 -8.8107,0 38.9671,-66.44168 21.0721,-50.9441 -17.895,15.49758 -29.8828,50.9441 -38.6936,50.9441 -8.8107,0 20.7986,-35.44652 2.8879,-19.9354 -17.9112,15.51166 -16.104,19.9354 -16.104,19.9354 M 2640.6175,13.784832 c 0,0 9.5237,-8.909832 0.7125,-8.909832 -8.8107,0 -9.4773,16.500831 -27.0226,31.695574 -17.5453,15.194743 18.2119,-31.695574 9.4011,-31.695574 -8.8107,0 -26.9464,46.890313 -44.5065,62.097824 -17.56,15.207511 35.6958,-62.097824 26.885,-62.097824 -8.8108,0 -44.445,77.305331 -62.0199,92.525642 C 2526.4923,112.62095 2597.2762,4.875 2588.4655,4.875 c -8.8108,0 -61.9732,107.74595 -79.5629,122.97909 -8.7937,7.61561 8.9272,-23.12723 27.7143,-55.777114 C 2555.4034,39.428059 2575.2527,4.875 2570.844,4.875 c -4.4032,0 -24.2493,34.553058 -45.2303,71.011868 -20.9856,36.466902 -43.0936,74.815282 -51.9052,82.446372 -8.7993,7.62047 13.33,-30.73902 36.5132,-71.011865 23.1818,-40.270312 47.411,-82.446375 43.0008,-82.446375 -4.402,0 -28.6272,42.176062 -54.0067,86.259488 -25.3859,44.094672 -51.9085,90.062972 -60.7312,97.703672 -8.8045,7.62487 17.7437,-38.35677 45.3308,-86.25949 27.5845,-47.898154 56.1975,-97.70367 51.7856,-97.70367 -4.4005,0 -33.0088,49.805514 -62.7943,101.52001 -29.794,51.72937 -60.7415,105.32309 -69.5759,112.97389 -8.809,7.62883 22.1685,-45.98047 54.1672,-101.52001 C 2489.3926,62.316433 2522.3935,4.875 2517.9795,4.875 c -4.3987,0 -37.3942,57.441432 -71.593,116.79346 -34.2098,59.37102 -69.5927,120.59569 -78.4393,128.25707 -8.813,7.63233 26.604,-53.61016 63.0221,-116.79347 36.4122,-63.173228 73.805,-128.25706 69.3886,-128.25706 -4.3965,0 -41.7831,65.083831 -80.4029,132.07989 -38.6334,67.01962 -78.462,135.88077 -87.3214,143.55323 -8.8165,7.63536 31.0506,-61.24584 71.8958,-132.07989 40.8374,-70.820501 82.626,-143.55323 78.207,-143.55323 -4.3942,0 -46.1759,72.732728 -89.2241,147.37931 -43.0647,74.67522 -87.3496,151.17838 -96.2224,158.86243 -8.8191,7.6376 35.6181,-69.07756 80.8981,-147.56966 45.2682,-78.471522 91.3499,-158.6748457 86.4896,-157.910685 -4.8273,0.7589737 -50.904,80.961608 -98.1684,162.882115 -47.2851,81.95646 -95.7071,165.53747 -104.5931,173.23294 -8.8207,7.63901 38.6527,-74.25618 85.974,-156.2367 47.2947,-81.93455 94.4375,-163.954727 85.6401,-156.335881 -8.736,7.565622 -55.9111,89.600131 -103.2418,171.562221 -47.3655,82.02257 -94.8865,163.97244 -103.7763,171.67122 -8.8282,7.64551 38.7256,-74.31897 86.1271,-156.36899 47.3749,-82.00394 94.5977,-164.093716 85.7928,-156.46843 -8.7433,7.571924 -55.9984,89.67607 -103.4093,171.70761 -47.4459,82.09219 -95.0474,164.11148 -103.9448,171.81691 -8.8358,7.65201 38.7986,-74.38193 86.2806,-156.50163 47.4552,-82.0735 94.7581,-164.233058 85.9458,-156.601317 -8.7506,7.578244 -56.086,89.752207 -103.5772,171.853377 -47.5265,82.16197 -95.2088,164.25087 -104.1139,171.96295 -8.8432,7.65854 38.872,-74.44504 86.4346,-156.63459 47.5357,-82.14324 94.919,-164.37276 86.0992,-156.73455 -8.7579,7.58458 -56.1737,89.82854 -103.7456,171.99952 -47.6072,82.23193 -95.3704,164.39061 -104.2832,172.10937 -8.8509,7.66507 38.9454,-74.50832 86.5888,-156.76791 47.6165,-82.21315 95.0804,-164.5128 86.2531,-156.8681 -8.7652,7.59093 -56.2617,89.90505 -103.9145,172.14602 -47.6881,82.30208 -95.5325,164.53071 -104.453,172.25616 -8.8584,7.67163 39.019,-74.57176 86.7435,-156.90155 47.6975,-82.28325 95.2421,-164.65322 86.4073,-157.00201 -8.7726,7.5973 -56.3498,89.98177 -104.0837,172.29291 -47.7693,82.37239 -95.695,164.67115 -104.6233,172.40331 -8.866,7.67821 39.0929,-74.63535 86.8986,-157.03553 47.7787,-82.35352 95.4043,-164.79398 86.562,-157.13626 -8.78,7.60368 -56.4383,90.05869 -104.2534,172.44017 -47.8507,82.44289 -95.858,164.81196 -104.7941,172.55085 -8.8736,7.6848 39.167,-74.69911 87.0542,-157.16986 47.86,-82.42397 95.5668,-164.93511 86.7169,-157.27084 -8.7873,7.61008 -56.5269,90.1358 -104.4235,172.5878 -47.9323,82.51357 -96.0213,164.95313 -104.9652,172.69877 -8.8812,7.6914 39.2412,-74.76304 87.21,-157.30454 47.9416,-82.4946 95.7299,-165.0766 86.8724,-157.40578 -8.7947,7.6165 -56.6158,90.21311 -104.594,172.73581 -48.0141,82.58444 -96.1852,165.09467 -105.1368,172.84707 -8.8889,7.69803 39.3155,-74.82712 87.3663,-157.43956 48.0234,-82.56541 95.8932,-165.21844 87.0282,-157.54105 -8.8022,7.62293 -56.705,90.29062 -104.7651,172.8842 -48.0961,82.65548 -96.3493,165.23657 -105.3088,172.99575 -8.8966,7.70466 39.3902,-74.89137 87.523,-157.57493 48.1054,-82.6364 96.0571,-165.36065 87.1844,-157.67667 -8.8096,7.62937 -56.7943,90.36832 -104.9364,173.03297 -48.1783,82.72671 -96.514,165.37882 -105.4814,173.1448 -8.9042,7.71132 39.465,-74.95578 87.6802,-157.71063 48.1876,-82.70758 96.2213,-165.50324 87.341,-157.81265 -8.8171,7.63583 -56.8839,90.44622 -105.1083,173.18212 -48.2608,82.79812 -96.6791,165.52145 -105.6543,173.29425 -8.912,7.71799 39.54,-75.02036 87.8376,-157.8467 48.2701,-82.77894 96.386,-165.64618 87.4981,-157.94897 -8.8246,7.64232 -56.9737,90.52433 -105.2807,173.33166 -48.3433,82.86971 -96.8445,165.66444 -105.8276,173.44407 -8.9197,7.72469 39.6152,-75.08511 87.9956,-157.98311 48.3526,-82.85048 96.5511,-165.78949 87.6555,-158.08564 -8.8321,7.64881 -57.0637,90.60263 -105.4535,173.48158 -48.4262,82.94149 -97.0104,165.8078 -106.0014,173.59429 -8.9274,7.7314 39.6905,-75.15002 88.1539,-158.11987 48.4355,-82.92222 96.7166,-165.93319 87.8133,-158.22268 -8.8355,7.65175 -58.0603,92.23469 -106.3042,174.79134 -48.2643,82.59153 -95.6052,163.2614 -100.0244,163.2614 -4.3888,0 42.9444,-80.66987 88.9667,-159.41643 46.0118,-78.72874 90.7477,-155.58764 81.8437,-147.87657 -8.8496,7.664 -53.629,84.54573 -97.3999,159.41643 -43.7879,74.89994 -86.6154,147.87657 -91.032,147.87657 -4.3917,0 38.4288,-72.97663 79.9714,-144.02829 41.5345,-71.03788 81.8187,-140.19216 72.9118,-132.47849 -8.8632,7.67579 -49.1867,76.85064 -88.4766,144.02829 -39.304,67.20173 -77.6139,132.47849 -82.0281,132.47849 -4.3943,0 33.9093,-65.27676 70.9646,-128.62689 37.0492,-63.33989 72.8712,-124.78389 63.9607,-117.06712 -8.8763,7.68711 -44.7331,69.14941 -79.5342,128.62689 -34.8124,59.49687 -68.6005,117.06712 -73.0126,117.06712 -4.3967,0 29.3859,-57.57025 61.9462,-113.2122 32.556,-55.63477 63.9051,-109.36279 54.9905,-101.64243 -8.8889,7.69799 -40.2685,61.44203 -70.5727,113.2122 -30.3131,51.78536 -59.5752,101.64243 -63.9855,101.64243 -4.3988,0 24.8586,-49.85707 52.9162,-97.78417 28.0548,-47.92251 54.9204,-93.92884 46.001,-86.20438 -8.9008,7.70839 -35.7926,53.72847 -61.5919,97.78417 -25.8061,44.06717 -50.538,86.20438 -54.9468,86.20438 -4.4006,0 20.3274,-42.13721 43.8745,-82.34278 23.5457,-40.20306 45.9171,-78.482 36.9924,-70.75294 -8.9124,7.71834 -31.3055,46.00872 -52.592,82.34278 -21.2913,36.34229 -41.4889,70.75294 -45.8964,70.75294 -4.4021,0 15.7922,-34.41065 34.8212,-66.88798 19.0285,-32.47644 36.895,-63.02224 27.9643,-55.28807 -17.8591,15.46654 -71.5963,122.17605 -80.407,122.17605 -8.8108,0 62.5479,-106.70951 44.6732,-91.2295 -17.8748,15.48002 -53.484,91.2295 -62.2947,91.2295 -8.8108,0 44.4199,-75.74949 26.5296,-60.25597 -17.8903,15.49351 -35.3404,60.25597 -44.1512,60.25597 -8.8107,0 26.2609,-44.76246 8.355,-29.25541 -17.9059,15.50705 -17.1657,29.25541 -25.9765,29.25541 -8.8105,0 -0.8907,-5.98805 -0.8907,-5.98805 M 3042.2194,4.875 c 0,0 0.1708,7.37506 -17.3697,22.565616 C 3007.3088,42.631528 3037.814,4.875 3029.0032,4.875 c -8.8107,0 -21.6944,37.756524 -39.25,52.960194 -17.5556,15.20367 30.4393,-52.960194 21.6285,-52.960194 -8.8107,0 -39.1841,68.16386 -56.7545,83.380321 C 2937.0568,103.47178 3002.571,4.875 2993.7602,4.875 c -8.8107,0 -56.7034,98.59678 -74.2886,113.82606 -8.7919,7.61406 7.6064,-20.841289 25.074,-51.202049 C 2962.0129,37.138836 2980.547,4.875 2976.1387,4.875 c -8.8107,0 -74.2523,129.05534 -91.8523,144.29748 -8.7977,7.61905 12.0059,-28.45129 33.8674,-66.432941 C 2940.0142,44.759903 2962.9269,4.875 2958.5172,4.875 c -4.4023,0 -27.3114,39.884902 -51.3684,81.676683 -24.063,41.802027 -49.2581,85.480187 -58.0774,93.117947 -8.8029,7.62361 16.4164,-36.06723 42.6795,-81.676678 C 2918.0117,52.387415 2945.3071,4.875 2940.8957,4.875 c -4.4009,0 -31.6919,47.512414 -60.1527,96.93332 -28.4687,49.43464 -58.0856,100.73658 -66.9163,108.38428 -8.8077,7.62769 20.8378,-43.68915 51.5101,-96.93332 C 2896.0055,60.021386 2927.6875,4.875 2923.2742,4.875 c -4.3992,0 -36.0761,55.146385 -68.9481,112.20288 -32.8821,57.0742 -66.9313,116.00542 -75.7741,123.66356 -8.8118,7.63132 25.2701,-51.31703 60.3595,-112.20288 C 2873.9956,67.661835 2910.0683,4.875 2905.6527,4.875 c -4.3973,0 -40.464,62.786834 -77.7547,127.4854 -37.3034,64.72071 -75.7951,131.28674 -84.6506,138.95582 -8.8155,7.6345 29.7134,-58.95092 69.2276,-127.4854 C 2851.9819,75.308776 2892.4493,4.875 2888.0312,4.875 c -4.395,0 -44.8557,70.433775 -86.5725,142.78091 -41.7324,72.3742 -84.6772,146.58058 -93.5459,154.26109 -8.8187,7.63721 34.1677,-66.5908 78.1144,-142.78091 C 2829.9646,82.962227 2874.8305,4.875 2870.4096,4.875 c -4.3924,0 -49.251,78.087226 -95.4015,158.08945 -46.1692,80.03468 -93.5776,161.88696 -102.46,169.57941 -8.8185,7.63707 38.6308,-74.23733 85.928,-156.19698 47.2707,-81.913729 94.3895,-163.913014 85.5942,-156.296099 -8.7338,7.56373 -55.8849,89.577329 -103.1914,171.518569 -47.3415,82.00168 -94.8383,163.93072 -103.7257,171.6275 -8.826,7.64356 38.7036,-74.30007 86.081,-156.32917 47.3508,-81.98306 94.5495,-164.051893 85.7468,-156.428544 -8.7411,7.570029 -55.9721,89.653214 -103.3589,171.663854 -47.4217,82.07123 -94.999,164.06964 -103.8941,171.77306 -8.8335,7.65006 38.7767,-74.36298 86.2344,-156.4617 47.4311,-82.05257 94.7099,-164.191125 85.8998,-156.561325 -8.7484,7.576343 -56.0596,89.729295 -103.5267,171.809505 -47.5022,82.14097 -95.1602,164.20892 -104.063,171.919 -8.841,7.65657 38.8499,-74.42605 86.3882,-156.59458 47.5116,-82.12224 94.8707,-164.3307 86.0531,-156.69444 -8.7557,7.58268 -56.1473,89.80556 -103.6949,171.95553 -47.583,82.21088 -95.3218,164.34855 -104.2323,172.0653 -8.8486,7.6631 38.9233,-74.48928 86.5424,-156.72778 47.5922,-82.19211 95.0319,-164.47065 86.2068,-156.8279 -8.763,7.58902 -56.2352,89.88203 -103.8636,172.10193 -47.6639,82.28096 -95.4838,164.48853 -104.402,172.21197 -8.8562,7.66966 38.9969,-74.55266 86.697,-156.86132 47.6731,-82.26215 95.1934,-164.61095 86.3609,-156.9617 -8.7704,7.59538 -56.3234,89.95868 -104.0328,172.2487 -47.7449,82.35122 -95.6461,164.62887 -104.5721,172.35902 -8.8637,7.67622 39.0707,-74.61621 86.852,-156.99521 47.7542,-82.33236 95.3555,-164.7516 86.5154,-157.09584 -8.7778,7.60176 -56.4117,90.03554 -104.2023,172.39584 -47.8263,82.42167 -95.809,164.76958 -104.7427,172.50645 -8.8714,7.68281 39.1446,-74.67992 87.0073,-157.12943 47.8356,-82.40276 95.5179,-164.89263 86.6703,-157.23033 -8.7851,7.60816 -56.5003,90.11259 -104.3723,172.54336 -47.9077,82.4923 -95.9722,164.91065 -104.9137,172.65425 -8.879,7.68942 39.2188,-74.74379 87.1631,-157.264 47.9171,-82.47334 95.6808,-165.034 86.8256,-157.36515 -8.7925,7.61456 -56.5891,90.18984 -104.5427,172.69126 -47.9895,82.5631 -96.1359,165.05206 -105.0852,172.80243 -8.8866,7.69603 39.2932,-74.80783 87.3193,-157.39892 47.9988,-82.54409 95.8441,-165.17574 86.9813,-157.50033 -8.7999,7.62099 -56.6781,90.26729 -104.7136,172.83954 -48.0714,82.6341 -96.2999,165.19386 -105.2571,172.951 -8.8942,7.70267 39.3678,-74.87203 87.4759,-157.53418 48.0808,-82.61504 96.0078,-165.31785 87.1374,-157.63585 -8.8073,7.62743 -56.7674,90.34493 -104.8849,172.9882 -48.1535,82.70527 -96.4644,165.336 -105.4294,173.09994 -8.9019,7.70932 39.4425,-74.93639 87.6329,-157.66979 48.1628,-82.68616 96.1719,-165.46033 87.2939,-157.77173 -8.8149,7.6339 -56.8569,90.42279 -105.0567,173.13725 -48.2359,82.77662 -96.6293,165.47853 -105.6022,173.24927 -8.9096,7.716 39.5174,-75.00092 87.7903,-157.80575 48.2452,-82.75747 96.3364,-165.60317 87.4508,-157.90795 -8.8223,7.64037 -56.9467,90.50083 -105.2288,173.28667 -48.3186,82.84817 -96.7948,165.62142 -105.7755,173.399 -8.9174,7.72268 39.5925,-75.06562 87.948,-157.94207 48.3279,-82.82895 96.5015,-165.74638 87.6082,-158.04452 -8.8298,7.64686 -57.0367,90.57908 -105.4015,173.43648 -48.4013,82.9199 -96.9605,165.76468 -105.9492,173.54911 -8.9251,7.72938 39.6679,-75.13049 88.1063,-158.07873 48.4106,-82.90064 96.6668,-165.88997 87.7658,-158.18146 -8.835,7.65144 -57.693,91.62899 -106.1409,174.55622 -48.4755,82.9745 -96.5727,164.95608 -103.2806,168.85193 -6.6606,3.86839 41.4458,-78.11454 88.8216,-159.18528 47.3558,-81.03645 93.9962,-161.18324 85.091,-153.47108 -8.8454,7.66037 -54.9617,86.85667 -100.0774,164.03751 -45.1338,77.21172 -89.3178,152.50063 -93.7352,152.50063 -4.3909,0 39.786,-75.28891 82.6754,-148.65335 42.8807,-73.34949 84.5036,-144.81936 75.5976,-137.10654 -8.8592,7.6723 -50.5226,79.16343 -91.1598,148.65335 -40.6521,69.51551 -80.3198,137.10654 -84.7347,137.10654 -4.3936,0 35.2677,-67.59103 73.6721,-133.25594 38.3978,-65.65364 75.5616,-129.41494 66.6522,-121.69916 -8.8724,7.68376 -46.0724,71.46405 -82.2231,133.25594 -36.1628,61.81264 -71.3099,121.69916 -75.7227,121.69916 -4.396,0 30.7455,-59.88652 64.6572,-117.84524 33.9069,-57.95067 66.6011,-113.9977 57.6877,-106.27848 -8.8851,7.69477 -41.6111,63.75851 -73.2673,117.84524 -31.6658,54.10314 -62.2882,106.27848 -66.6991,106.27848 -4.3982,0 26.2193,-52.17534 55.6306,-102.42122 29.4082,-50.24056 57.6221,-98.56762 48.7042,-90.84445 -8.8973,7.70532 -37.1387,56.04681 -64.2924,102.42122 -27.1611,46.38696 -53.2547,90.84445 -57.6639,90.84445 -4.4,0 21.6893,-44.45749 46.5925,-86.98385 24.9014,-42.52327 48.6243,-83.12465 39.7012,-75.39703 -8.9089,7.71539 -32.6549,48.32891 -55.2982,86.98385 -22.6487,38.66408 -44.2091,75.39703 -48.617,75.39703 -4.4016,0 17.1553,-36.73295 37.5427,-71.53308 20.3866,-34.79881 39.6078,-67.66879 30.679,-59.93621 -17.8545,15.46251 -77.0325,131.46929 -85.8432,131.46929 -8.8108,0 67.9887,-116.00678 50.1187,-100.53082 -17.8701,15.47597 -58.9295,100.53082 -67.7402,100.53082 -8.8108,0 49.8701,-85.05486 31.9845,-69.5654 -17.8856,15.48945 -40.7953,69.5654 -49.606,69.5654 -8.8108,0 31.7204,-54.07595 13.8192,-38.57297 -17.9013,15.50298 -22.63,38.57297 -31.4407,38.57297 -8.8095,0 4.5805,-15.31172 4.5805,-15.31172 M 3447.5141,4.875 c 0,0 5.411,-1.7484512 -12.1247,13.437969 C 3417.8529,33.500063 3443.1087,4.875 3434.298,4.875 c -8.8108,0 -16.4451,28.625059 -33.9963,43.8249 -17.5512,15.199841 25.1855,-43.8249 16.3747,-43.8249 -8.8107,0 -33.9259,59.024737 -51.4918,74.237357 -17.566,15.212621 42.6811,-74.237357 33.8703,-74.237357 -8.8107,0 -51.4363,89.449974 -69.017,104.67541 -8.7901,7.61246 6.2865,-18.555892 22.4355,-46.62817 16.1488,-28.072031 33.368,-58.04724 28.96,-58.04724 -8.8107,0 -68.9763,119.90083 -86.5719,135.13911 -8.796,7.6176 10.6829,-26.16411 31.2234,-61.855202 20.5396,-35.689562 42.1363,-73.283908 37.727,-73.283908 -4.4027,0 -25.9959,37.594345 -48.7312,77.095084 -22.7407,39.510036 -46.6092,80.898576 -55.4252,88.533446 -8.8014,7.62229 15.0901,-33.77826 40.0298,-77.095081 24.9378,-43.313528 50.916,-88.533449 46.5051,-88.533449 -4.4014,0 -30.3753,45.21992 -57.5121,92.347848 -27.1441,47.140562 -55.4313,96.151232 -64.2586,103.795892 -8.8063,7.62651 19.5082,-41.39838 48.8549,-92.34785 C 3302.618,57.726951 3332.9817,4.875 3328.5689,4.875 c -4.3998,0 -34.7584,52.85195 -66.3041,107.61353 -31.5553,54.77803 -64.2716,111.41632 -73.1107,119.07127 -8.8107,7.63028 23.9372,-49.02447 57.6985,-107.61352 C 3280.6093,65.365452 3315.3623,4.875 3310.9474,4.875 c -4.3979,0 -39.1452,60.490451 -75.1074,122.89215 -35.9741,62.42245 -73.1299,126.69389 -81.9815,134.35963 -8.8145,7.6336 28.3772,-56.65655 66.561,-122.89215 C 3258.5967,73.010441 3297.7432,4.875 3293.3259,4.875 c -4.3957,0 -43.5357,68.13544 -83.9218,138.18375 -40.4008,70.07385 -82.0066,141.98397 -90.8712,149.661 -8.8178,7.63644 32.8281,-64.29464 75.4422,-138.18376 C 3236.5805,80.661934 3280.1244,4.875 3275.7044,4.875 c -4.3933,0 -47.93,75.786933 -92.7475,153.48837 -44.8353,77.73223 -90.9014,157.28658 -99.7797,164.97539 -8.8169,7.63571 38.2744,-73.64087 85.3261,-155.19362 47.0266,-81.509258 94.0112,-163.2913224 85.6617,-156.449149 -8.2913,6.79448 -55.3028,88.587199 -102.5871,170.511279 -47.3174,81.9812 -94.9009,164.08145 -103.7865,171.77662 -8.8237,7.6416 38.6817,-74.28123 86.035,-156.28946 47.3267,-81.96222 94.5014,-164.010157 85.701,-156.388744 -8.7389,7.568135 -55.9459,89.630414 -103.3086,171.620204 -47.3976,82.05033 -94.9507,164.02789 -103.8435,171.72932 -8.8312,7.64809 38.7547,-74.34409 86.1883,-156.42189 47.407,-82.03168 94.6617,-164.149285 85.8538,-156.521426 -8.7462,7.574443 -56.0333,89.706426 -103.4762,171.765736 -47.478,82.12001 -95.1118,164.16707 -104.0122,171.87514 -8.8388,7.65461 38.8278,-74.4071 86.3419,-156.55465 47.4874,-82.10131 94.8224,-164.288761 86.007,-156.65444 -8.7535,7.58077 -56.1209,89.78264 -103.6443,171.91165 -47.5587,82.18986 -95.2732,164.30659 -104.1814,172.02133 -8.8463,7.66114 38.9012,-74.47028 86.496,-156.68775 47.568,-82.17112 94.9834,-164.4286 86.1606,-156.7878 -8.7608,7.58711 -56.2087,89.85904 -103.8129,172.05793 -47.6395,82.2599 -95.4351,164.44647 -104.351,172.16789 -8.8538,7.66769 38.9748,-74.53362 86.6506,-156.82119 47.6488,-82.2411 95.1449,-164.56879 86.3146,-156.9215 -8.7682,7.59347 -56.2969,89.93565 -103.982,172.20459 -47.7205,82.33011 -95.5973,164.5867 -104.5209,172.31483 -8.8615,7.67425 39.0485,-74.59712 86.8053,-156.95498 47.7299,-82.31126 95.3068,-164.70933 86.469,-157.05553 -8.7755,7.59984 -56.3851,90.01244 -104.1513,172.35162 -47.8018,82.4005 -95.7601,164.7273 -104.6915,172.46214 -8.869,7.68083 39.1225,-74.66078 86.9607,-157.0891 47.8111,-82.3816 95.4691,-164.85024 86.6237,-157.18991 -8.7829,7.60623 -56.4736,90.08943 -104.3212,172.49902 -47.8832,82.47108 -95.9231,164.86826 -104.8623,172.60983 -8.8766,7.68743 39.1966,-74.72459 87.1163,-157.22356 47.8926,-82.45213 95.6319,-164.99152 86.779,-157.32464 -8.7903,7.61264 -56.5624,90.16662 -104.4915,172.64681 -47.965,82.54183 -96.0867,165.00957 -105.0337,172.7579 -8.8843,7.69404 39.2708,-74.78858 87.2724,-157.35837 47.9742,-82.52284 95.795,-165.13316 86.9345,-157.45972 -8.7977,7.61906 -56.6514,90.24401 -104.6622,172.79498 -48.0468,82.61276 -96.2507,165.15125 -105.2055,172.90635 -8.8919,7.70067 39.3454,-74.85274 87.4289,-157.49354 48.0561,-82.59371 95.9585,-165.27514 87.0904,-157.59513 -8.8051,7.6255 -56.7405,90.3216 -104.8334,172.94353 -48.1288,82.68388 -96.415,165.29329 -105.3776,173.05518 -8.8996,7.70732 39.42,-74.91706 87.5857,-157.62904 48.1382,-82.66479 96.1226,-165.41752 87.2469,-157.7309 -8.8126,7.63195 -56.8301,90.39938 -105.005,173.09245 -48.2112,82.75518 -96.5798,165.4357 -105.5503,173.2044 -8.9074,7.71398 39.4948,-74.98154 87.7429,-157.7649 48.2205,-82.73604 96.287,-165.56024 87.4037,-157.86702 -8.8201,7.63842 -56.9197,90.47738 -105.1771,173.24177 -48.2937,82.82667 -96.745,165.57848 -105.7234,173.354 -8.915,7.72067 39.5699,-75.04618 87.9006,-157.9011 48.303,-82.80748 96.4519,-165.70335 87.5609,-158.00349 -8.8276,7.6449 -57.0096,90.55556 -105.3496,173.39146 -48.3764,82.89834 -96.9107,165.72163 -105.897,173.50399 -8.9227,7.72737 39.6453,-75.111 88.0588,-158.03766 48.3857,-82.8791 96.6171,-165.84682 87.7184,-158.14032 -8.8351,7.65142 -57.0997,90.63396 -105.5225,173.54156 -48.4594,82.97019 -97.0768,165.86514 -106.071,173.65437 -8.9305,7.73409 39.7207,-75.17598 88.2172,-158.17458 48.4687,-82.9509 96.7828,-165.99066 87.8765,-158.27749 -8.8412,7.65669 -56.2933,89.16707 -102.7531,168.65743 -46.4789,79.52292 -92.0192,157.12353 -96.4373,157.12353 -4.3901,0 41.1428,-77.60061 85.3783,-153.27725 44.2261,-75.66048 87.1868,-149.44546 78.2817,-141.73342 -8.8551,7.66876 -51.8576,81.47568 -93.8412,153.27725 -41.9996,71.8287 -83.0247,141.73342 -87.4403,141.73342 -4.3929,0 36.6257,-69.90473 76.3785,-137.88382 39.7456,-67.96678 78.2504,-134.04488 69.3421,-126.33004 -8.8685,7.68036 -47.4108,73.77814 -84.9104,137.88382 -37.5125,64.12783 -74.0184,126.33004 -78.4318,126.33004 -4.3953,0 32.1047,-62.20221 67.3671,-122.47712 35.2572,-60.26595 69.2955,-118.6315 60.3834,-110.91336 -8.8814,7.69151 -42.9528,66.07446 -75.9603,122.47712 -33.0178,56.42033 -65.0003,110.91336 -69.4117,110.91336 -4.3975,0 27.5797,-54.49303 58.3441,-107.05711 30.7608,-52.55798 60.322,-103.20527 51.4055,-95.48334 -8.8937,7.7022 -38.4837,58.36461 -66.9912,107.05711 -28.5154,48.70615 -55.9702,95.48334 -60.3799,95.48334 -4.3995,0 23.0509,-46.77719 49.3094,-91.62375 26.2565,-44.84285 51.3299,-87.76618 42.4084,-80.03994 -8.9055,7.71241 -34.0033,50.64857 -58.0027,91.62374 -24.0054,40.98529 -46.9283,80.03995 -51.3366,80.03995 -4.4012,0 18.5181,-39.05466 40.2631,-76.17701 21.7441,-37.12054 42.319,-72.31419 33.392,-64.58315 -17.8498,15.45848 -82.4658,140.76016 -91.2766,140.76016 -4.4026,0 13.9813,-31.32542 31.2052,-60.71685 17.2236,-29.39104 33.2893,-56.84926 24.3562,-49.11291 -17.8654,15.47192 -64.3721,109.82976 -73.1829,109.82976 -8.8108,0 55.3175,-94.35784 37.4366,-78.87244 -17.881,15.48541 -46.2474,78.87244 -55.0581,78.87244 -8.8108,0 37.1772,-63.38704 19.2806,-47.88812 -17.8965,15.49892 -28.0914,47.88812 -36.9021,47.88812 -8.8108,0 19.0056,-32.3892 1.0934,-16.87673 -17.913,15.51312 -14.3096,16.87673 -14.3096,16.87673"
       id="path6371"
       inkscape:path-effect="#path-effect6436"
       inkscape:original-d="m 461.59321,4.875 -912.49892,790.25 h 189.3125 L 650.90571,4.875 Z m 400,0 -912.498923,790.25 H 138.40679 L 1050.9057,4.875 Z m 400.00009,0 C 957.42686,268.29167 653.26059,531.70833 349.09429,795.125 h 189.3125 C 842.57309,531.70833 1146.7395,268.29167 1450.9057,4.875 Z m 400,0 C 1357.4269,268.29167 1053.2606,531.70833 749.09429,795.125 H 938.40674 C 1242.5731,531.70833 1546.7394,268.29167 1850.9057,4.875 Z m 400,0 c -304.1664,263.41667 -608.3327,526.83333 -912.499,790.25 h 189.3124 c 304.1664,-263.41667 608.3327,-526.83333 912.499,-790.25 z m 400,0 c -304.1664,263.41667 -608.3327,526.83333 -912.499,790.25 h 189.3124 c 304.1665,-263.41667 608.3327,-526.83333 912.499,-790.25 z m 400,0 c -304.1664,263.41667 -608.3327,526.83333 -912.499,790.25 h 189.3124 c 304.1664,-263.41667 608.3327,-526.83333 912.499,-790.25 z m 400,0 c -304.1664,263.41667 -608.3328,526.83333 -912.499,790.25 h 189.3124 c 304.1664,-263.41667 608.3328,-526.83333 912.499,-790.25 z"
       inkscape:connector-curvature="0" />
  </g>
</svg>
