<?xml version="1.0" encoding="UTF-8" standalone="no"?>
<!-- Created with Inkscape (http://www.inkscape.org/) -->

<svg
   xmlns:dc="http://purl.org/dc/elements/1.1/"
   xmlns:cc="http://creativecommons.org/ns#"
   xmlns:rdf="http://www.w3.org/1999/02/22-rdf-syntax-ns#"
   xmlns:svg="http://www.w3.org/2000/svg"
   xmlns="http://www.w3.org/2000/svg"
   xmlns:sodipodi="http://sodipodi.sourceforge.net/DTD/sodipodi-0.dtd"
   xmlns:inkscape="http://www.inkscape.org/namespaces/inkscape"
   width="3200"
   height="800"
   id="svg5831"
   version="1.1"
   inkscape:version="0.48.1 r9760"
   sodipodi:docname="CandyCaneOrnament_1.svg">
  <sodipodi:namedview
     id="base"
     pagecolor="#ffffff"
     bordercolor="#666666"
     borderopacity="1.0"
     inkscape:pageopacity="0.0"
     inkscape:pageshadow="2"
     inkscape:zoom="0.371875"
     inkscape:cx="736.80672"
     inkscape:cy="400"
     inkscape:document-units="px"
     inkscape:current-layer="1-default"
     showgrid="false"
     inkscape:window-width="1676"
     inkscape:window-height="1006"
     inkscape:window-x="0"
     inkscape:window-y="0"
     inkscape:window-maximized="1" />
  <defs
     id="defs5833">
    <inkscape:path-effect
       effect="rough_hatches"
       id="path-effect6436"
       is_visible="true"
       direction="1502.8867,395 , 32.945612,19.130217"
       dist_rdm="0;1"
       growth="0"
       do_bend="true"
       bender="1500,400 , 5,0"
       bottom_edge_variation="0;1"
       top_edge_variation="0;1"
       bottom_tgt_variation="0;1"
       top_tgt_variation="0;1"
       scale_bf="2"
       scale_bb="2"
       scale_tf="2"
       scale_tb="2"
       top_smth_variation="0;1"
       bottom_smth_variation="0;1"
       fat_output="false"
       stroke_width_top="1"
       stroke_width_bottom="1"
       front_thickness="1"
       back_thickness="0.25" />
  </defs>
  <metadata
     id="metadata5836">
    <rdf:RDF>
      <cc:Work
         rdf:about="">
        <dc:format>image/svg+xml</dc:format>
        <dc:type
           rdf:resource="http://purl.org/dc/dcmitype/StillImage" />
        <dc:title></dc:title>
      </cc:Work>
    </rdf:RDF>
  </metadata>
  <g
     inkscape:label="1-RED"
     inkscape:groupmode="layer"
     id="1-default">
    <path
       style="color:#000000;fill:none;stroke:#ff0000;stroke-width:3.99999976;stroke-linecap:round;stroke-linejoin:round;stroke-miterlimit:4;stroke-opacity:1;stroke-dashoffset:0;marker:none;visibility:visible;display:inline;overflow:visible;enable-background:accumulate"
       d="m 461.56867,2 196,0 -919.13735,796 -196,0 z"
       id="rect5839"
       inkscape:connector-curvature="0" />
    <path
       style="color:#000000;fill:none;stroke:#ff0000;stroke-width:3.99999976;stroke-linecap:round;stroke-linejoin:round;stroke-miterlimit:4;stroke-opacity:1;stroke-dashoffset:0;marker:none;visibility:visible;display:inline;overflow:visible;enable-background:accumulate"
       d="M 861.56867,2 1057.5687,2 138.43132,798 -57.568684,798 z"
       id="rect6349"
       inkscape:connector-curvature="0" />
    <path
       style="color:#000000;fill:none;stroke:#ff0000;stroke-width:3.99999976;stroke-linecap:round;stroke-linejoin:round;stroke-miterlimit:4;stroke-opacity:1;stroke-dashoffset:0;marker:none;visibility:visible;display:inline;overflow:visible;enable-background:accumulate"
       d="m 1261.5687,2 196,0 -919.13731,796 -196,0 z"
       id="rect6351"
       inkscape:connector-curvature="0" />
    <path
       style="color:#000000;fill:none;stroke:#ff0000;stroke-width:3.99999976;stroke-linecap:round;stroke-linejoin:round;stroke-miterlimit:4;stroke-opacity:1;stroke-dashoffset:0;marker:none;visibility:visible;display:inline;overflow:visible;enable-background:accumulate"
       d="m 1661.5687,2 196,0 -919.13731,796 -196,0 z"
       id="rect6353"
       inkscape:connector-curvature="0" />
    <path
       style="color:#000000;fill:none;stroke:#ff0000;stroke-width:3.99999976;stroke-linecap:round;stroke-linejoin:round;stroke-miterlimit:4;stroke-opacity:1;stroke-dashoffset:0;marker:none;visibility:visible;display:inline;overflow:visible;enable-background:accumulate"
       d="m 2061.5687,2 196,0 -919.1373,796 -196,0 z"
       id="rect6355"
       inkscape:connector-curvature="0" />
    <path
       style="color:#000000;fill:none;stroke:#ff0000;stroke-width:3.99999976;stroke-linecap:round;stroke-linejoin:round;stroke-miterlimit:4;stroke-opacity:1;stroke-dashoffset:0;marker:none;visibility:visible;display:inline;overflow:visible;enable-background:accumulate"
       d="m 2461.5686,2 196,0 -919.1373,796 -196,0 z"
       id="rect6357"
       inkscape:connector-curvature="0" />
    <path
       style="color:#000000;fill:none;stroke:#ff0000;stroke-width:3.99999976;stroke-linecap:round;stroke-linejoin:round;stroke-miterlimit:4;stroke-opacity:1;stroke-dashoffset:0;marker:none;visibility:visible;display:inline;overflow:visible;enable-background:accumulate"
       d="m 2861.5686,2 196,0 -919.1373,796 -196,0 z"
       id="rect6359"
       inkscape:connector-curvature="0" />
    <path
       style="color:#000000;fill:none;stroke:#ff0000;stroke-width:3.99999976;stroke-linecap:round;stroke-linejoin:round;stroke-miterlimit:4;stroke-opacity:1;stroke-dashoffset:0;marker:none;visibility:visible;display:inline;overflow:visible;enable-background:accumulate"
       d="m 3261.5686,2 196,0 -919.1373,796 -196,0 z"
       id="rect6361"
       inkscape:connector-curvature="0" />
    <path
       style="color:#000000;fill:none;stroke:#ff0000;stroke-width:3.99999976;stroke-linecap:round;stroke-linejoin:round;stroke-miterlimit:4;stroke-opacity:1;stroke-dashoffset:0;marker:none;visibility:visible;display:inline;overflow:visible;enable-background:accumulate"
       d="m 645.69405,4.875 c 0,0 3.61066,1.3869139 -13.92733,16.575313 -17.538,15.188399 9.52195,-16.575313 0.7112,-16.575313 -8.81076,0 -18.24919,31.763708 -35.80191,46.964859 C 579.1233,67.04101 623.66716,4.875 614.85641,4.875 c -8.81076,0 -35.73311,62.166006 -53.30058,77.379941 -8.78374,7.606967 2.35321,-11.738018 14.57102,-32.984745 C 588.34466,28.023469 601.64027,4.875 597.2349,4.875 c -4.40538,0 -17.69958,23.148468 -32.10701,48.20028 -14.40743,25.051812 -29.93068,52.00697 -38.72181,59.62034 -8.79114,7.61338 6.74032,-19.341777 23.34227,-48.200277 C 566.3503,35.636844 584.01877,4.875 579.61339,4.875 c -4.40538,0 -22.07197,30.761843 -40.86678,63.428635 -18.79481,32.666795 -38.72136,67.238535 -47.51992,74.858335 -8.79855,7.6198 11.13855,-26.95194 32.13205,-63.428635 C 544.35225,43.256642 566.39726,4.875 561.99188,4.875 c -4.40538,0 -26.44804,38.381641 -49.63765,78.669843 -23.18962,40.288197 -47.53064,82.482967 -56.33663,90.109207 -8.80599,7.62624 15.54791,-34.56852 40.94041,-78.669846 C 522.35051,50.882882 548.77575,4.875 544.37037,4.875 c -4.40538,0 -30.82781,46.007881 -58.41967,93.923936 -27.59185,47.916054 -56.35853,97.740284 -65.17198,105.372984 -8.81345,7.6327 19.96845,-42.19153 49.76739,-93.92394 C 500.34505,58.515578 531.15424,4.875 526.74886,4.875 c -4.40538,0 -35.21129,53.640577 -67.21285,109.19095 -32.00156,55.55037 -65.20511,113.01053 -74.02603,120.6497 -8.82093,7.63917 24.40019,-49.82099 58.61304,-109.19095 C 478.33587,66.154748 513.53273,4.875 509.12735,4.875 c -4.40538,0 -39.59848,61.279747 -76.01723,124.47091 -36.41874,63.19116 -74.0704,128.29374 -82.89882,135.9394 -8.82842,7.64566 28.84317,-57.45692 67.47742,-124.47091 C 456.32297,73.800408 495.91122,4.875 491.50584,4.875 c -4.40538,0 -43.9894,68.925407 -84.83283,139.76386 -40.84343,70.83845 -82.95447,143.58994 -91.7904,151.2421 -8.83593,7.65217 33.29739,-65.09932 76.36056,-139.76385 C 434.30633,81.452575 478.28971,4.875 473.88433,4.875 c -4.40538,0 -48.38406,76.577574 -93.65969,155.06982 -22.63781,39.24612 -45.59403,78.97091 -64.00567,109.84151 -18.41164,30.8706 -32.27341,52.887 -36.69515,56.71635 -8.84346,7.65869 38.62968,-74.24792 85.89792,-156.17104 47.26823,-81.923124 94.33148,-163.8627534 85.56427,-156.270102 -8.76721,7.592651 -55.85033,89.532282 -103.15854,171.490052 -23.6541,40.97889 -47.35656,81.96231 -66.26119,113.65917 -18.90463,31.69685 -33.0059,54.10714 -37.43141,57.93975 -8.85101,7.66523 38.70254,-74.31069 86.05085,-156.30316 23.67416,-40.99623 47.30399,-81.99661 63.90945,-111.798043 16.60546,-29.801437 26.19458,-48.403937 21.8073,-44.604425 -4.38728,3.799511 -18.3665,26.201522 -37.17621,57.907058 -18.80971,31.70553 -42.45546,72.71459 -66.14965,113.7282 -23.69419,41.01361 -47.43683,82.03176 -66.37258,113.75549 -18.93575,31.72372 -33.05906,54.15302 -37.48835,57.98891 -4.42929,3.8359 5.26756,-14.75751 21.99937,-44.56763 16.73181,-29.81013 40.49051,-70.83698 64.20481,-111.86798 23.7143,-41.031 47.3842,-82.06615 64.01875,-111.89287 16.63456,-29.826724 26.24182,-48.44502 21.85085,-44.642314 -4.39097,3.802705 -18.39201,26.223704 -37.23269,57.956134 -18.84067,31.73243 -42.52653,72.77628 -66.26091,113.8247 -23.73439,41.04841 -47.51731,82.10139 -66.48425,113.85205 -18.96694,31.75067 -33.11236,54.19902 -37.54545,58.0382 -4.43309,3.83918 5.28208,-14.76999 22.04321,-44.60543 16.76113,-29.83543 40.56014,-70.89712 64.31469,-111.96298 23.75454,-41.06585 47.46461,-82.13586 64.12834,-111.98793 16.66373,-29.85207 26.28918,-48.4862 21.89451,-44.6803 -4.39467,3.80591 -18.4176,26.24595 -37.28932,58.00534 -18.87171,31.75939 -42.59778,72.83813 -66.37246,113.92144 -23.77468,41.08331 -47.59798,82.1712 -66.5962,113.94887 -18.99822,31.77767 -33.1658,54.24514 -37.60269,58.08761 -4.43689,3.84248 5.29664,-14.78251 22.08716,-44.64332 16.79053,-29.8608 40.62996,-70.95743 64.42485,-112.05822 23.79489,-41.10079 47.54524,-82.20576 64.23821,-112.08324 16.69298,-29.87749 26.33666,-48.5275 21.93828,-44.71838 -4.39837,3.80912 -18.44325,26.26824 -37.34609,58.05466 -18.90283,31.78642 -42.66921,72.90014 -66.48429,114.01844 -23.81508,41.1183 -47.67887,82.24118 -66.70844,114.04593 -19.02958,31.80475 -33.21937,54.29137 -37.66008,58.13715 -4.440704,3.84578 5.31123,-14.79507 22.13123,-44.68131 16.81999,-29.88624 40.69995,-71.01789 64.53529,-112.15371 23.83534,-41.13582 47.62606,-82.27583 64.34836,-112.17879 16.7223,-29.90297 26.38425,-48.56889 21.98216,-44.75656 -4.40209,3.81234 -18.46896,26.2906 -37.403,58.10412 -18.93404,31.81352 -42.74083,72.9623 -66.59641,114.11567 -23.85559,41.15337 -47.75996,82.31134 -66.82097,114.14324 -19.061012,31.8319 -33.273079,54.33772 -37.717611,58.18682 -4.444532,3.84909 5.325858,-14.80765 22.175399,-44.71939 16.849542,-29.91175 40.770122,-71.0785 64.646022,-112.24945 23.87589,-41.17094 47.7071,-82.34608 64.45879,-112.27459 16.75169,-29.92851 26.43197,-48.61039 22.02615,-44.79483 -4.40581,3.81557 -18.49474,26.31301 -37.46006,58.1537 -18.96532,31.84069 -42.81263,73.02462 -66.70882,114.21316 -23.89619,41.18854 -47.841257,82.38168 -66.933783,114.2408 -19.092526,31.85911 -33.326923,54.38419 -37.77529,58.23661 -4.448367,3.85241 5.340525,-14.82026 22.219688,-44.75757 16.879164,-29.93732 40.840475,-71.13927 64.757025,-112.34542 23.91656,-41.20616 47.78835,-82.41652 64.56951,-112.37064 16.78116,-29.95412 26.47982,-48.652 22.07026,-44.8332 -4.40955,3.8188 -18.52059,26.33548 -37.51727,58.2034 -18.99668,31.86793 -42.88461,73.08711 -66.82151,114.3109 -23.936897,41.2238 -47.922767,82.45221 -67.04689,114.33861 -19.124124,31.8864 -33.38090876,54.43078 -37.8331202,58.28653 -4.4522114,3.85574 5.35522863,-14.83291 22.2640902,-44.79585 16.908863,-29.96295 40.911008,-71.20019 64.868323,-112.44165 23.957317,-41.24145 47.869797,-82.48712 64.680507,-112.46692 16.81071,-29.97979 26.52778,-48.69371 22.11449,-44.87167 -4.4133,3.82204 -18.54651,26.358 -37.57463,58.25323 -19.02813,31.89524 -42.956785,73.14975 -66.934497,114.40889 -23.977712,41.25914 -48.004484,82.52292 -67.1602869,114.43667 -19.1558031,31.91376 -33.4350341,54.4775 -37.8910991,58.33658 -4.456066,3.85908 5.36997,-14.84558 22.308607,-44.83423 16.93863736,-29.98864 40.981723,-71.26127 64.979905,-112.53811 23.998182,-41.27685 47.951457,-82.55792 64.791791,-112.56346 16.84033,-30.00554 26.57587,-48.73554 22.15882,-44.91025 -4.41705,3.82529 -18.57248,26.38059 -37.632131,58.3032 -19.05965,31.92262 -43.029135,73.21255 -67.047766,114.50713 -24.0186318,41.29458 -48.086413,82.5938 -67.273977,114.53498 -19.187563,31.94119 -33.489298,54.52433 -37.949229,58.38676 -4.45993,3.86242 5.384751,-14.85829 22.35324,-44.8727 16.968489,-30.01441 41.05262,-71.32251 65.091774,-112.63484 24.039155,-41.31233 48.03333,-82.6289 64.903363,-112.66024 16.870033,-30.03135 26.624086,-48.77747 22.203271,-44.94892 -4.420815,3.82855 -18.598529,26.40322 -37.689783,58.35329 -19.091254,31.95006 -43.101675,73.27552 -67.1613318,114.60563 -24.0596572,41.3301 -48.1685522,82.66487 -67.3879592,114.63355 -19.219407,31.96868 -33.543701,54.57127 -38.007511,58.43706 -4.4638,3.86578 5.39957,-14.87104 22.397989,-44.91128 16.998418,-30.04024 41.123701,-71.3839 65.203933,-112.73181 24.08023309,-41.3479 48.115413,-82.70006 65.015223,-112.75728 16.899809,-30.05722 26.672423,-48.81951 22.247835,-44.98769 -4.424588,3.83182 -18.624642,26.42593 -37.747582,58.40352 -19.1229403,31.97758 -43.174403,73.33864 -67.275191,114.70437 -24.100788,41.36573 -48.250905,82.73613 -67.502237,114.73238 -19.25133,31.99625 -33.59825,54.61835 -38.06594,58.48749 -4.46769,3.86915 5.41442,-14.88381 22.44285,-44.94994 17.02842,-30.06614 41.194965,-71.44546 65.316382,-112.82903 C -35.27635,496.85785 -11.200059,455.47002 5.7296039,425.38686 22.659267,395.3037 32.450491,376.5252 28.022119,380.3603 23.593748,384.19539 9.3712963,406.80898 -9.7834118,438.81416 -28.93812,470.81934 -53.030731,512.2161 -77.172757,553.61754 c -24.142023,41.40144 -48.333473,82.80756 -67.616813,114.83145 -19.28334,32.02389 -33.65294,54.66555 -38.12452,58.53807 -4.47158,3.87252 5.42932,-14.89662 22.48783,-44.98872 17.05851,-30.0921 41.26641,-71.50717 65.429123,-112.9265 24.162708,-41.41934 48.280217,-82.84294 65.239811,-112.95211 16.959593,-30.10917 26.7694749,-48.90392 22.337311,-45.06554 -4.432164,3.83838 -18.677072,26.47151 -37.86363,58.50435 -19.186558,32.03284 -43.320424,73.4654 -67.503795,114.90264 -24.18337,41.43725 -48.41625,82.87919 -67.73168,114.93079 -19.31543,32.0516 -33.70777,54.71287 -38.18326,58.58877 -4.47549,3.8759 5.44425,-14.90946 22.53292,-45.0276 17.08868,-30.11814 41.33806,-71.56904 65.54216,-113.02423 24.20411,-41.45518 48.362944,-82.91465 65.352546,-113.0499 16.989602,-30.13525 26.81819,-48.94628 22.382223,-45.10461 -4.435966,3.84167 -18.733087,26.54548 -37.981383,58.65715 -19.248296,32.11167 -43.453466,73.63121 -67.678426,115.10436 -24.22496,41.47315 -48.46968,82.8999 -67.72747,114.826 -19.25778,31.92609 -33.52288,54.35153 -37.76234,57.82205 -4.23945,3.47052 5.78876,-15.4844 22.907,-45.62864 17.11825,-30.14423 41.31848,-71.47778 65.44399,-112.76453 24.1255,-41.28674 48.17631,-82.52668 65.07676,-112.48369 16.900455,-29.95701 26.658672,-48.63109 22.218893,-44.78611 -4.439779,3.84497 -18.388503,25.93021 -36.983533,56.89527 -18.59503,30.96506 -41.84169,70.80994 -64.84998,110.1742 -46.01659,78.72851 -91.10318,155.53454 -95.50856,155.53454 -4.40537,0 40.67648,-76.80603 84.44934,-151.68792 43.77286,-74.88188 86.24642,-147.83963 77.35922,-140.14306 -8.8872,7.69657 -51.38325,80.65432 -92.91969,151.68792 -41.53644,71.0336 -82.105,140.14306 -86.51038,140.14306 -4.40537,0 36.15893,-69.10946 75.44828,-136.29312 39.28935,-67.18366 77.31252,-132.44152 68.41766,-124.73831 -8.89487,7.70321 -46.93816,72.96106 -83.9868,136.29312 -37.04863,63.33206 -73.09527,124.73831 -77.50064,124.73831 -4.40538,0 31.63747,-61.40626 66.43565,-120.88504 34.79818,-59.47879 68.35951,-117.03012 59.45696,-109.32026 -8.90255,7.70987 -42.48165,65.26119 -75.03479,120.88505 -32.55315,55.62386 -64.07396,109.32025 -68.47933,109.32025 -4.40538,0 27.11211,-53.69639 57.41143,-105.46366 30.29932,-51.76726 59.38734,-101.60538 50.47708,-93.88885 -8.91025,7.71653 -38.01367,57.55466 -66.06363,105.46366 -28.04996,47.90899 -55.04102,93.88885 -59.44639,93.88885 -4.40538,0 22.58284,-45.97986 48.37559,-90.02892 25.79275,-44.04905 50.39595,-86.1673 41.47797,-78.44408 -8.91797,7.72322 -33.5342,49.84147 -57.07326,90.02892 -23.53905,40.18744 -45.99644,78.44408 -50.40181,78.44408 -4.40538,0 18.04964,-38.25664 39.32809,-74.5808 21.27845,-36.32415 41.38531,-70.71583 32.45959,-62.9859 -8.92573,7.72993 -29.04323,42.12161 -48.06363,74.5808 -19.02041,32.45919 -36.94019,62.9859 -41.34556,62.9859 -4.40538,0 13.51251,-30.52671 30.26891,-59.11926 16.75641,-28.59255 32.35535,-55.25093 23.42186,-47.51428 -8.93349,7.73666 -24.54069,34.39504 -39.03469,59.11926 -14.494,24.72422 -27.87222,47.51428 -32.27759,47.51428 -4.40538,0 8.97143,-22.79006 21.19801,-43.64427 12.22659,-20.85421 23.30603,-39.77257 14.36476,-32.02917 -17.88254,15.48679 -44.37353,75.67344 -53.18428,75.67344 -8.81076,0 35.30174,-60.18665 17.40359,-44.68634 -17.89816,15.50031 -26.21435,44.68634 -35.0251,44.68634 -8.81076,0 17.12695,-29.18604 -0.78686,-13.67217 -17.9138,15.51386 -12.42927,13.67217 -12.42927,13.67217 M 1033.5374,19.916437 c 0,0 13.046,-15.041437 4.2352,-15.041437 -8.8107,0 -13.0015,22.63372 -30.5498,37.831036 C 989.67451,57.903353 1028.9619,4.875 1020.1511,4.875 c -8.8107,0 -30.47659,53.028349 -48.03962,68.238439 -8.78152,7.605045 1.03718,-9.454564 11.93914,-28.415435 C 994.95257,25.737132 1006.935,4.875 1002.5296,4.875 c -4.40536,0 -16.38651,20.862131 -29.47711,43.627125 -13.0906,22.764994 -27.29296,47.432849 -36.08187,55.044295 -8.78892,7.61145 5.42096,-17.056404 20.70483,-43.627122 C 972.95932,33.34858 989.31349,4.875 984.90811,4.875 c -4.40538,0 -20.75781,28.473579 -38.23356,58.851625 -17.47576,30.378046 -36.07808,62.660555 -44.8744,70.278425 -8.79633,7.61787 9.81584,-24.66464 29.48903,-58.851623 C 950.96238,40.966447 971.69198,4.875 967.2866,4.875 c -4.40538,0 -25.13277,36.091446 -47.0011,74.088968 -21.86832,37.997522 -44.88176,77.901122 -53.68551,85.525422 -8.80376,7.62431 14.22185,-32.27929 38.2918,-74.088966 C 928.96175,48.59075 954.07047,4.875 949.66509,4.875 c -4.40538,0 -29.51143,43.715749 -55.77976,89.339187 -26.26834,45.623433 -53.70406,93.154563 -62.51527,100.785323 -8.8112,7.63075 18.63904,-39.90037 47.11319,-89.33919 C 906.95741,56.221505 936.44896,4.875 932.04358,4.875 c -4.40538,0 -33.89379,51.346504 -64.56959,104.60231 -30.67579,53.25581 -62.54501,108.42093 -71.36369,116.05815 -8.81867,7.63723 23.06741,-47.52789 55.95323,-104.60231 C 884.94935,63.858728 918.82745,4.875 914.42207,4.875 c -4.40538,0 -38.27987,58.983727 -73.3706,119.87838 -35.09073,60.89466 -71.40468,123.70024 -80.23084,131.34395 -8.82617,7.64371 27.507,-55.16188 64.81197,-119.87838 C 862.93757,71.502436 901.20594,4.875 896.80056,4.875 c -4.40538,0 -42.66967,66.627435 -82.18283,135.16742 -39.51315,68.53999 -80.2831,138.99253 -89.11677,146.64274 -8.83367,7.65021 31.95785,-62.80233 73.68947,-135.16742 C 840.92205,79.152646 883.58443,4.875 879.17905,4.875 c -4.40537,0 -47.0632,74.277645 -91.0063,150.46947 -43.94309,76.19183 -89.18033,154.29784 -98.02152,161.95457 -8.8412,7.65673 36.97309,-71.40591 83.13766,-151.4261 23.08228,-40.01009 46.25819,-80.259579 62.82895,-110.028229 16.57075,-29.76865 26.54355,-49.0564632 23.2419,-47.1432154 -6.60329,3.8264954 -53.12031,84.8042444 -100.40323,166.7411844 -23.64146,40.96847 -47.46721,82.17674 -66.49846,114.1008 -19.03124,31.92406 -33.26233,54.56391 -37.6867,58.39554 -8.84875,7.66326 38.68062,-74.29181 86.00485,-156.26342 23.66212,-40.98581 47.27992,-81.97575 63.87665,-111.769601 16.59673,-29.793851 26.18042,-48.391612 21.79424,-44.593059 -4.38618,3.798553 -18.35884,26.194868 -37.15926,57.892335 -18.80042,31.697465 -42.43414,72.696085 -66.11628,113.699255 -23.68213,41.00316 -47.41269,82.01087 -66.33908,113.72651 -18.92638,31.71565 -33.04307,54.13923 -37.47122,57.97413 -4.42816,3.83491 5.26321,-14.75376 21.98622,-44.5563 16.72301,-29.80253 40.46961,-70.81893 64.17184,-111.83947 23.70223,-41.02055 47.36008,-82.04524 63.98588,-111.86435 16.62581,-29.819121 26.22761,-48.432666 21.83775,-44.630921 -4.38986,3.801745 -18.38434,26.217034 -37.2157,57.941371 -18.83136,31.72434 -42.50515,72.75773 -66.22745,113.79568 -23.7223,41.03794 -47.49311,82.08044 -66.45067,113.82301 -18.95756,31.74256 -33.09632,54.18519 -37.52827,58.02338 -4.43195,3.83819 5.27771,-14.76624 22.03002,-44.59407 16.75231,-29.82782 40.5392,-70.87903 64.28164,-111.9344 23.74245,-41.05537 47.44044,-82.1149 64.09539,-111.95935 16.65495,-29.84444 26.27493,-48.473811 21.88138,-44.668867 -4.39356,3.804945 -18.40991,26.239257 -37.27229,57.990537 -18.86238,31.75128 -42.57635,72.81953 -66.33891,113.89235 -23.76257,41.07281 -47.57373,82.1502 -66.56254,113.91975 -18.98881,31.76955 -33.14972,54.23126 -37.58547,58.07275 -4.43575,3.84148 5.29226,-14.77875 22.07394,-44.63193 16.78169,-29.85317 40.60896,-70.93929 64.39172,-112.02957 23.78276,-41.09029 47.52099,-82.18474 64.20517,-112.05458 16.68418,-29.86984 26.32238,-48.51508 21.92512,-44.70692 -4.39726,3.80815 -18.43554,26.26153 -37.32902,58.03982 -18.89348,31.77829 -42.64773,72.88149 -66.45066,113.98927 -23.80293,41.10777 -47.65454,82.22013 -66.67468,114.01673 -19.02015,31.79661 -33.20326,54.27747 -37.64282,58.12226 -4.43956,3.84478 5.30684,-14.79129 22.11797,-44.66989 16.81113,-29.87859 40.6789,-70.9997 64.50208,-112.12499 23.82317,-41.12529 47.60175,-82.25475 64.31523,-112.15005 16.71348,-29.89531 26.36994,-48.55644 21.96897,-44.74507 -4.40098,3.81136 -18.46123,26.28387 -37.38589,58.08924 -18.92466,31.80537 -42.71929,72.9436 -66.56269,114.08642 -23.84341,41.14283 -47.73558,82.29024 -66.78713,114.11398 -19.05155,31.82373 -33.25692,54.32378 -37.7003,58.17188 -4.44339,3.84809 5.32145,-14.80386 22.16211,-44.70794 16.84065,-29.90407 40.74902,-71.06027 64.61271,-112.22065 23.8637,-41.16038 47.68273,-82.32495 64.42559,-112.24578 16.74285,-29.92083 26.41762,-48.59791 22.01292,-44.78332 -4.4047,3.8146 -18.48699,26.30627 -37.4429,58.13879 -18.95592,31.83252 -42.79104,73.00588 -66.67502,114.18384 -23.88397,41.17796 -47.8168,82.36053 -66.89985,114.21145 -19.08305,31.85093 -33.31073,54.37022 -37.75794,58.22164 -4.44722,3.85141 5.33611,-14.81647 22.20636,-44.74609 16.87026,-29.92962 40.81932,-71.12099 64.72365,-112.31655 23.90432,-41.19557 47.76391,-82.39533 64.53621,-112.34175 16.7723,-29.94642 26.46542,-48.63949 22.057,-44.82166 -4.40843,3.81782 -18.51282,26.32871 -37.50007,58.18845 -18.98726,31.85974 -42.86297,73.06831 -66.78762,114.2815 -23.92466,41.2132 -47.89826,82.431 -67.01288,114.30919 -19.11462,31.8782 -33.36467,54.41678 -37.81572,58.27152 -4.45106,3.85474 5.3508,-14.8291 22.25073,-44.78434 16.89993,-29.95523 40.8898,-71.18186 64.83485,-112.4127 23.94506,-41.23084 47.8453,-82.46589 64.64713,-112.43796 16.80182,-29.97208 26.51335,-48.68117 22.10118,-44.86011 -4.41217,3.82107 -18.53871,26.35123 -37.55738,58.23825 -19.01867,31.88702 -42.93507,73.13091 -66.90051,114.37942 -23.96544,41.24851 -47.97991,82.50165 -67.12618,114.40718 -19.14628,31.90552 -33.41876,54.46344 -37.87367,58.32152 -4.4549,3.85808 5.36554,-14.84177 22.29522,-44.82268 16.92969,-29.98092 40.96046,-71.2429 64.94635,-112.50911 23.98589,-41.2662 47.9269,-82.53663 64.75832,-112.53442 16.83143,-29.9978 26.56141,-48.72296 22.14549,-44.89865 -4.41592,3.82432 -18.56467,26.37379 -37.61484,58.28818 -19.05017,31.91438 -43.00737,73.19366 -67.0137,114.47758 -24.00632,41.28392 -48.06177,82.57248 -67.23978,114.50542 -19.17801,31.93293 -33.47298,54.51024 -37.93175,58.37166 -4.45877,3.86142 5.38031,-14.85447 22.33982,-44.86113 16.95951,-30.00666 41.0313,-71.30409 65.05813,-112.60575 24.02683,-41.30166 48.0087,-82.60755 64.86981,-112.63114 16.8611,-30.02358 26.60958,-48.76485 22.1899,-44.93728 -4.41968,3.82757 -18.5907,26.39641 -37.67245,58.33822 -19.08175,31.94181 -43.07986,73.25658 -67.12717,114.57601 -24.04732,41.31942 -48.14385,82.64349 -67.35368,114.6039 -19.20983,31.96041 -33.52735,54.55716 -37.98999,58.42194 -4.46264,3.86477 5.39512,-14.86721 22.38453,-44.89968 16.98942,-30.03247 41.10233,-71.36543 65.17021,-112.70264 24.06788,-41.33721 48.09072,-82.67866 64.98158,-112.7281 16.89085,-30.04944 26.65788,-48.80687 22.23443,-44.97603 -4.42345,3.83084 -18.61679,26.4191 -37.7302,58.38841 -19.11341,31.96931 -43.15253,73.31966 -67.24095,114.67468 -24.08842,41.35501 -48.22614,82.71469 -67.46787,114.70265 -19.24173,31.98796 -33.58184,54.6042 -38.04836,58.47233 -4.46653,3.86814 5.40995,-14.87997 22.42935,-44.93832 17.0194,-30.05835 41.17354,-71.42694 65.28257,-112.79979 24.10903,-41.37285 48.17296,-82.74995 65.09364,-112.82531 16.92069,-30.07536 26.70631,-48.84898 22.27908,-45.01487 -4.42723,3.83411 -18.64295,26.44184 -37.7881,58.43872 -19.14516,31.99688 -43.22539,73.38291 -67.35502,114.77361 -24.12962,41.3907 -48.30864,82.78608 -67.58235,114.80165 -19.27372,32.01558 -33.63649,54.65136 -38.10691,58.52286 -4.47041,3.87151 5.42484,-14.89276 22.47431,-44.97706 17.04946,-30.08429 41.24492,-71.48861 65.39521,-112.89719 24.15029,-41.40858 48.25541,-82.82142 65.206,-112.92277 16.95059,-30.10135 26.75486,-48.89121 22.32384,-45.05382 -4.43102,3.8374 -18.66918,26.46464 -37.84616,58.48917 -19.17698,32.02452 -43.29844,73.44631 -67.46937,114.87279 -24.17094,41.42648 -48.39136,82.85765 -67.69714,114.90091 -19.30578,32.04327 -33.69128,54.69864 -38.16559,58.57352 -4.47432,3.87489 5.43976,-14.9056 22.51936,-45.0159 17.0796,-30.11031 41.31651,-71.55044 65.50816,-112.99484 24.19166,-41.44441 48.33807,-82.89308 65.31864,-113.02049 16.98058,-30.12741 26.80354,-48.93354 22.36872,-45.09286 -4.43482,3.84068 -18.69547,26.4875 -37.90436,58.53973 -19.20889,32.05224 -43.37168,73.50989 -67.58403,114.97224 -24.21236,41.46235 -48.47429,82.9294 -67.81222,115.00043 -19.33793,32.07103 -33.74621,54.74604 -38.22444,58.62432 -4.47822,3.87827 5.45473,-14.91847 22.56454,-45.05486 17.10982,-30.13638 41.38828,-71.61242 65.62141,-113.09274 24.23313,-41.48032 48.42093,-82.96493 65.43157,-113.11846 17.01065,-30.15353 26.85235,-48.97599 22.41372,-45.13201 -4.43864,3.84398 -18.71957,26.5063 -37.81537,58.33753 -19.09581,31.83124 -43.01215,72.83139 -66.69277,113.35104 -47.36124,81.03931 -93.8046,160.15663 -98.20997,160.15663 -4.40538,0 42.0331,-79.11732 87.15162,-156.31099 45.11852,-77.19368 88.92706,-152.46371 80.04216,-144.76913 -8.88491,7.69458 -52.71663,82.96461 -95.60003,156.31099 -42.88339,73.34639 -84.80988,144.76913 -89.21526,144.76913 -4.40538,0 37.51672,-71.42274 78.15403,-140.92018 40.63731,-69.49744 79.99889,-137.06957 71.10633,-129.36836 -8.89256,7.70121 -48.27497,75.27334 -86.67286,140.92018 C 136.12525,731.40347 98.719505,795.125 94.314128,795.125 c -4.405377,0 32.996442,-63.72153 69.144882,-125.5161 36.14845,-61.79456 71.05164,-121.66217 62.1514,-113.95431 -8.90024,7.70787 -43.8219,67.57547 -77.72661,125.5161 C 113.97909,739.11133 81.097996,795.125 76.692618,795.125 c -4.405377,0 28.472252,-56.01367 60.124152,-110.09871 31.6519,-54.08504 62.08522,-106.24145 53.17729,-98.52692 -8.90794,7.71452 -39.35737,59.87093 -68.76121,110.09871 -29.403841,50.22778 -57.756364,98.52692 -62.161741,98.52692 -4.405378,0 23.944162,-48.29915 51.091811,-94.66799 27.14765,-46.36884 53.09961,-90.80738 44.18396,-83.08617 -8.91566,7.72121 -34.88136,52.15975 -59.776617,94.66799 -24.895256,42.50824 -48.715287,83.08617 -53.120664,83.08617 -4.405377,0 19.412145,-40.57794 42.047818,-79.22389 22.635673,-38.64596 44.094763,-75.35994 35.171363,-67.63203 -8.92339,7.72791 -30.393835,44.44189 -50.772772,79.2239 -20.378937,34.782 -39.662541,67.63202 -44.067919,67.63202 -4.405377,0 14.876194,-32.85002 32.992152,-63.76639 18.115957,-30.91637 35.070608,-59.89908 26.139455,-52.16444 -8.931152,7.73463 -25.894777,36.71734 -41.749641,63.76639 C 25.35519,770.00961 10.611957,795.125 6.2065796,795.125 1.8012022,795.125 16.54288,770.00961 30.131358,746.82955 43.719836,723.6495 56.158467,702.40479 47.219536,710.14616 38.280606,717.88753 25.83539,739.13224 14.512372,758.44161 3.1893544,777.75097 -7.0095527,795.125 -11.41493,795.125 c -8.810755,0 40.756611,-69.49611 22.863151,-53.99986 -17.8934592,15.49624 -31.673906,53.99986 -40.484661,53.99986 -8.810755,0 22.5912078,-38.50362 4.682109,-22.99383 -17.909098,15.50978 -17.898241,22.99383 -17.898241,22.99383 M 1444.0749,10.790681 c 0,0 7.8032,-5.915681 -1.0075,-5.915681 -8.8108,0 -7.7566,13.506058 -25.3005,28.699552 -17.5439,15.193493 16.4897,-28.699552 7.679,-28.699552 -8.8108,0 -25.2229,43.893041 -42.7815,59.099298 C 1365.1058,79.180554 1416.6351,4.875 1407.8243,4.875 c -4.4053,0 -15.0738,18.576388 -26.8482,39.055157 -11.7745,20.478769 -24.657,42.859919 -33.4437,50.469445 -8.7866,7.609528 4.1027,-14.771624 18.0691,-39.055156 C 1379.568,31.060914 1394.6082,4.875 1390.2028,4.875 c -4.4053,0 -19.444,26.185913 -35.6013,54.27581 -16.1574,28.089897 -33.4365,58.08378 -42.2306,65.69972 -8.7941,7.61594 8.4941,-22.37794 26.8477,-54.27581 18.3536,-31.897868 37.7681,-65.69972 33.3627,-65.69972 -4.4054,0 -23.8178,33.801851 -44.3655,69.509295 -20.5478,35.707445 -42.2346,73.320485 -51.0362,80.942855 -8.8015,7.62237 12.8969,-29.99067 35.6449,-69.5093 22.7481,-39.518629 46.5407,-80.94285 42.1353,-80.94285 -4.4054,0 -28.1954,41.42422 -53.1409,84.755645 -24.9455,43.331425 -51.0513,88.570055 -59.8602,96.198875 -8.809,7.62881 17.3106,-37.60982 44.4607,-84.75565 27.15,-47.145833 55.3243,-96.19887 50.9189,-96.19887 -4.4054,0 -32.5766,49.053036 -61.9274,100.01489 -29.3507,50.96186 -59.8866,103.83253 -68.703,111.46781 -8.8165,7.63528 21.7356,-45.23539 53.2951,-100.01489 C 1291.5625,61.563316 1324.1222,4.875 1319.7168,4.875 c -4.4054,0 -36.9616,56.688315 -70.725,115.28707 -33.7634,58.59875 -68.7407,119.10795 -77.5646,126.74971 -8.8239,7.64176 26.1719,-52.86744 62.1482,-115.28707 C 1269.5518,69.205074 1306.5007,4.875 1302.0953,4.875 c -4.4054,0 -41.3503,64.330073 -79.5339,130.57221 -38.1836,66.24214 -77.6134,134.39634 -86.4449,142.04459 -8.8314,7.64826 30.6194,-60.50594 71.0202,-130.57221 C 1247.5374,76.853328 1288.8792,4.875 1284.4738,4.875 c -4.4054,0 -45.7427,71.978327 -88.354,145.87035 -42.6112,73.89202 -86.505,149.69773 -95.3439,157.3525 -8.839,7.65476 35.078,-68.15095 79.9107,-145.87035 44.8327,-77.719405 90.571,-157.3525 86.1657,-157.3525 -4.4054,0 -50.1389,79.633094 -97.1853,161.18151 -23.5233,40.77421 -47.3684,82.02725 -66.4487,114.0444 -19.0803,32.01715 -33.39,54.79841 -37.8133,58.62906 -8.8464,7.6613 38.6588,-74.27293 85.9589,-156.22368 23.6501,-40.97538 47.2559,-81.95489 63.8439,-111.741153 16.588,-29.786267 26.1662,-48.379291 21.7812,-44.581698 -8.7702,7.595186 -55.8851,89.562471 -103.2253,171.547911 -23.67,40.99272 -47.3885,81.98999 -66.3056,113.69755 -18.917,31.70757 -33.027,54.12543 -37.4541,57.95935 -4.427,3.83392 5.2589,-14.75002 21.9731,-44.54496 16.7142,-29.79495 40.4487,-70.8009 64.1389,-111.81099 23.6902,-41.01009 47.336,-82.02432 63.953,-111.83584 16.6171,-29.81151 26.2134,-48.420306 21.8247,-44.619524 -4.3888,3.800783 -18.3767,26.210361 -37.1987,57.926614 -18.8221,31.71625 -42.4838,72.73918 -66.194,113.76666 -23.7103,41.02748 -47.469,82.05951 -66.4171,113.79398 -18.9482,31.73446 -33.08034,54.17136 -37.51115,58.00856 -4.4308,3.8372 5.27335,-14.76249 22.01685,-44.5827 16.7435,-29.82022 40.5183,-70.86096 64.2486,-111.90585 23.7304,-41.04489 47.4163,-82.09394 64.0625,-111.93076 16.6461,-29.83683 26.2607,-48.461438 21.8682,-44.657458 -4.3924,3.80398 -18.4022,26.232568 -37.2552,57.975748 -18.8531,31.74317 -42.555,72.80093 -66.3054,113.86326 -23.7505,41.06232 -47.5495,82.12921 -66.52892,113.89064 -18.97941,31.76144 -33.13366,54.21741 -37.56827,58.0579 -4.4346,3.8405 5.28789,-14.77498 22.06074,-44.62053 16.77285,-29.84555 40.58795,-70.92117 64.35865,-112.00095 23.7706,-41.07978 47.4967,-82.16373 64.1721,-112.02593 16.6754,-29.8622 26.3081,-48.50267 21.912,-44.69548 -4.3962,3.80718 -18.4279,26.25483 -37.312,58.025 -18.8841,31.77016 -42.6262,72.86285 -66.417,113.9601 -23.7908,41.09726 -47.63027,82.1991 -66.64099,113.98757 -19.01072,31.78847 -33.18715,54.26357 -37.62556,58.10736 -4.43842,3.84379 5.30245,-14.78752 22.10473,-44.65847 16.80227,-29.87094 40.65786,-70.98153 64.46892,-112.09629 23.811,-41.11476 47.5774,-82.23369 64.2821,-112.12134 16.7047,-29.88764 26.3556,-48.54399 21.9558,-44.7336 -4.3999,3.8104 -18.4535,26.27716 -37.3688,58.07438 -18.9153,31.79723 -42.6978,72.92492 -66.52901,114.0572 -23.83123,41.13228 -47.7112,82.26915 -66.75331,114.08473 -19.04211,31.81557 -33.24078,54.30985 -37.68301,58.15695 -4.44224,3.8471 5.31706,-14.80008 22.14884,-44.69649 16.83177,-29.89641 40.72793,-71.04205 64.57944,-112.19188 23.85151,-41.14983 47.65835,-82.30384 64.39235,-112.21699 16.7341,-29.91315 26.4033,-48.58544 21.9997,-44.77182 -4.4035,3.81362 -18.4792,26.29953 -37.4257,58.12388 -18.9465,31.82436 -42.76947,72.98715 -66.64124,114.15455 -23.87177,41.16739 -47.79238,82.33938 -66.86595,114.18213 -19.07358,31.84275 -33.29455,54.35626 -37.74061,58.20667 -4.44606,3.85042 5.33171,-14.81267 22.19306,-44.73461 16.86135,-29.92194 40.79817,-71.10273 64.69028,-112.28772 23.89211,-41.18498 47.7395,-82.37416 64.50296,-112.31288 16.7634,-29.93872 26.451,-48.62699 22.0437,-44.81013 -4.4073,3.81685 -18.505,26.32196 -37.48285,58.17351 -18.97783,31.85155 -42.84133,73.04953 -66.75375,114.25213 -23.91242,41.2026 -47.87376,82.40981 -66.97889,114.2798 -19.10512,31.86999 -33.34845,54.40277 -37.79835,58.25651 -4.4499,3.85374 5.34639,-14.8253 22.2374,-44.77283 16.891,-29.94754 40.8686,-71.16356 64.8014,-112.38379 23.93281,-41.22024 47.82083,-82.44467 64.61377,-112.40903 16.79295,-29.96436 26.49895,-48.66864 22.0879,-44.84855 -4.41104,3.82009 -18.53092,26.34446 -37.54014,58.22327 -19.00922,31.87882 -42.91339,73.11209 -66.86656,114.34998 -23.95318,41.23789 -47.95536,82.4804 -67.09211,114.37771 -19.13676,31.89731 -33.40249,54.44941 -37.85624,58.30648 -4.45375,3.85707 5.36111,-14.83796 22.28184,-44.81115 16.92074,-29.97319 40.93921,-71.22455 64.91282,-112.48012 23.97361,-41.25557 47.90236,-82.51535 64.72488,-112.50541 16.82253,-29.99006 26.54696,-48.7104 22.13217,-44.88706 -4.41479,3.82333 -18.55686,26.367 -37.59756,58.27316 -19.0407,31.90615 -42.98563,73.17479 -66.97966,114.44806 -23.99403,41.27327 -48.03716,82.55118 -67.20562,114.47587 -19.16847,31.9247 -33.45668,54.49618 -37.91428,58.35659 -4.45761,3.86041 5.37586,-14.85065 22.3264,-44.84957 16.95055,-29.99892 41.01,-71.28569 65.02452,-112.57669 24.01452,-41.291 47.9841,-82.58622 64.83628,-112.60205 16.85218,-30.01583 26.5951,-48.75226 22.17655,-44.92567 -4.41855,3.82659 -18.58287,26.38961 -37.65512,58.32317 -19.07225,31.93356 -43.05806,73.23766 -67.09305,114.54641 -24.035,41.30875 -48.11917,82.62214 -67.31943,114.57429 -19.20026,31.95215 -33.511,54.54305 -37.97247,58.40681 -4.46148,3.86377 5.39066,-14.86337 22.37108,-44.88808 16.98043,-30.02471 41.08097,-71.34699 65.1365,-112.67351 24.05554,-41.32652 48.06606,-82.65727 64.94797,-112.69894 16.88191,-30.04166 26.64336,-48.79423 22.22104,-44.96438 -4.42231,3.82985 -18.60894,26.41228 -37.71283,58.37332 -19.10389,31.96104 -43.13067,73.30069 -67.20673,114.645 -24.07606,41.34432 -48.20139,82.69329 -67.43353,114.67296 -19.23214,31.97968 -33.56546,54.59005 -38.03081,58.45718 -4.46535,3.86712 5.40549,-14.87613 22.41588,-44.9267 17.01038,-30.05057 41.15212,-71.40845 65.24877,-112.77058 24.09666,-41.36213 48.14823,-82.72851 65.05995,-112.79608 16.91171,-30.06756 26.69175,-48.83632 22.26565,-45.00319 -4.4261,3.83312 -18.63508,26.435 -37.77069,58.42359 -19.13561,31.98859 -43.20348,73.36389 -67.32071,114.74386 -24.11724,41.37997 -48.28383,82.76461 -67.54793,114.77188 -19.26409,32.00727 -33.62006,54.63718 -38.0893,58.50767 -4.46924,3.87049 5.42037,-14.88892 22.46079,-44.96542 17.04042,-30.07649 41.22346,-71.47006 65.36134,-112.8679 24.13788,-41.39783 48.23061,-82.79993 65.17221,-112.89346 16.9416,-30.09354 26.74026,-48.87851 22.31038,-45.04211 -4.42989,3.83641 -18.66129,26.45779 -37.8287,58.474 -19.16741,32.0162 -43.27647,73.42724 -67.43499,114.84296 -24.15851,41.41573 -48.36648,82.83613 -67.66261,114.87107 -19.29614,32.03494 -33.67481,54.68442 -38.14795,58.55829 -4.47314,3.87386 5.43528,-14.90175 22.50581,-45.00423 17.07054,-30.10249 41.29498,-71.53184 65.4742,-112.96548 24.17922,-41.43363 48.31321,-82.87153 65.28477,-112.9911 16.97156,-30.11957 26.7889,-48.92082 22.35522,-45.08112 -4.43368,3.83969 -18.68757,26.48062 -37.88686,58.52452 -19.19929,32.04391 -43.34965,73.49078 -67.54955,114.94234 -24.1999,41.45156 -48.44935,82.90782 -67.77761,114.97051 -19.32826,32.06268 -33.72969,54.73178 -38.20674,58.60904 -4.47705,3.87725 5.45022,-14.9146 22.55095,-45.04315 17.10073,-30.12854 41.36669,-71.59378 65.58735,-113.0633 24.22066,-41.46952 48.39602,-82.94333 65.39762,-113.089 17.0016,-30.14568 26.83767,-48.96323 22.40018,-45.12024 -4.43749,3.84299 -18.96874,26.9418 -38.45573,59.45173 -19.48699,32.50993 -43.93565,74.431 -68.17821,115.9185 -48.48513,82.975 -96.17278,164.21576 -101.0178,164.96477 -2.42252,0.3745 8.29197,-19.74843 25.41726,-49.90311 17.12529,-30.15467 40.65466,-70.34107 63.88652,-110.09351 46.46373,-79.50486 91.71541,-157.27384 82.83281,-149.58125 -8.88261,7.69259 -54.04899,85.27431 -98.27864,160.93288 -44.22966,75.65858 -87.51374,149.394 -91.91912,149.394 -4.40538,0 38.87416,-73.73543 80.85875,-145.54605 41.98459,-71.81062 82.68354,-141.69644 73.79328,-133.99722 -8.89025,7.69922 -49.61075,77.58503 -89.3572,145.54605 -39.74646,67.96101 -78.51096,133.99722 -82.91634,133.99722 -4.40538,0 34.35506,-66.03621 71.85308,-130.14596 37.49802,-64.10974 73.74202,-126.29302 64.84409,-118.58716 -8.89793,7.70586 -45.16111,69.88914 -80.41669,130.14596 -35.25559,60.25681 -69.49661,118.58716 -73.90199,118.58716 -4.40538,0 29.83205,-58.33035 62.83583,-114.73257 33.00379,-56.40222 64.78137,-110.87631 55.87575,-103.16379 -8.90562,7.71253 -40.70003,62.18662 -71.45705,114.73257 -30.75703,52.54596 -60.47066,103.16379 -64.87604,103.16379 -4.40538,0 25.30513,-50.61783 53.80698,-99.30586 28.50185,-48.68803 55.80154,-95.44625 46.8882,-87.72705 -8.91333,7.7192 -36.22747,54.47743 -62.47823,99.30585 -26.25076,44.82843 -51.43308,87.72706 -55.83846,87.72706 -4.40538,0 20.77429,-42.89863 44.76649,-83.86578 23.9922,-40.96716 46.80247,-80.00284 37.8814,-72.27694 -8.92106,7.7259 -31.74341,46.76158 -53.48018,83.86578 -21.73676,37.10421 -42.38384,72.27694 -46.78922,72.27694 -4.40538,0 16.23953,-35.17273 35.71433,-68.41231 19.47481,-33.23958 37.78413,-64.546 28.85531,-56.81339 -8.92882,7.73261 -27.24783,39.03903 -44.46285,68.41231 -17.21503,29.37327 -33.32292,56.81339 -37.7283,56.81339 -4.40538,0 11.70082,-27.44012 26.65048,-52.94541 14.94967,-25.50528 28.74644,-49.07573 19.80985,-41.33639 -8.93659,7.73934 -22.74067,31.30979 -35.42619,52.94541 -12.68552,21.63561 -24.25027,41.33639 -28.65565,41.33639 -4.40537,0 7.15816,-19.70078 17.5749,-37.46504 10.41674,-17.76425 19.68938,-33.59199 10.74499,-25.84589 -17.88877,15.49218 -37.13064,63.31093 -45.9414,63.31093 -8.81075,0 28.05264,-47.81876 10.14824,-32.31304 -17.90439,15.50572 -18.95899,32.31304 -27.76975,32.31304 -8.81075,0 0.90485,-9.04768 0.90485,-9.04768 M 1843.9567,4.875 c 0,0 1.8911,4.3806768 -15.6483,19.570333 -17.5395,15.189656 11.2429,-19.570333 2.4322,-19.570333 -8.8108,0 -19.9717,34.759985 -37.5258,49.962395 -17.5542,15.202411 28.715,-49.962395 19.9043,-49.962395 -8.8108,0 -37.4585,65.164802 -55.0274,80.38 -8.7845,7.607599 2.7852,-12.487401 15.4349,-34.484301 12.6498,-21.9969 26.3763,-45.895699 21.971,-45.895699 -4.4054,0 -18.1305,23.898798 -32.9702,49.701099 -14.8397,25.802301 -30.7965,53.508101 -39.5884,61.122111 -8.7919,7.61401 7.1734,-20.091793 24.208,-49.701098 C 1764.1816,36.387807 1782.2814,4.875 1777.876,4.875 c -4.4053,0 -22.5032,31.512806 -41.731,64.930721 -19.2277,33.417919 -39.589,68.740939 -48.3883,76.361369 -8.7993,7.62044 11.5728,-27.70259 32.9996,-64.930718 C 1742.1832,44.00824 1764.6599,4.875 1760.2545,4.875 c -4.4053,0 -26.8796,39.133239 -50.503,80.173198 -23.6233,41.039962 -48.4001,83.986632 -57.2068,91.613512 -8.8068,7.62688 15.9832,-35.3198 41.8098,-80.173197 C 1720.1811,51.635116 1747.0384,4.875 1742.633,4.875 c -4.4054,0 -31.2598,46.760115 -59.2861,95.42856 -28.0263,48.66845 -57.2299,99.24524 -66.0441,106.87857 -8.8142,7.63334 20.4049,-42.94345 50.6387,-95.42856 30.2338,-52.48512 61.4754,-106.87857 57.07,-106.87857 -4.4054,0 -35.6436,54.393449 -68.0804,110.69685 -32.4367,56.3034 -66.0783,114.51676 -74.9,122.15657 -8.8216,7.63981 24.8378,-50.57355 59.4862,-110.69685 C 1676.1657,66.908259 1711.7954,4.875 1707.39,4.875 c -4.4054,0 -40.0312,62.033258 -76.8859,125.97809 -36.8546,63.94484 -74.9454,129.80124 -83.7746,137.44755 -8.8291,7.6463 29.2818,-58.21011 68.3524,-125.9781 39.0706,-67.76798 79.092,-137.44754 74.6866,-137.44754 -4.4054,0 -44.4225,69.679559 -85.7026,141.27232 -41.2801,71.59276 -83.8314,145.09872 -92.668,152.75153 -8.8367,7.65281 33.7371,-65.85315 77.2373,-141.27232 C 1632.1355,82.207368 1676.5524,4.875 1672.147,4.875 c -4.4054,0 -48.8176,77.332367 -94.5306,156.57957 -22.8565,39.6236 -46.0322,79.72591 -64.609,110.87973 -18.5768,31.15383 -32.5492,53.35917 -36.9713,57.18884 -8.8442,7.65933 38.6368,-74.25406 85.9129,-156.18397 47.2761,-81.92991 94.3472,-163.8763337 85.5793,-156.283059 -8.768,7.593274 -55.8589,89.539699 -103.175,171.504269 -23.658,40.98229 -47.3644,81.96911 -66.2721,113.6686 -18.9077,31.69949 -33.0111,54.11164 -37.437,57.94457 -8.8518,7.66588 38.7097,-74.31685 86.0659,-156.31613 23.6781,-40.99964 47.3118,-82.00342 63.9202,-111.807331 16.6083,-29.803914 26.1992,-48.407962 21.8115,-44.608138 -4.3876,3.799824 -18.369,26.203696 -37.1817,57.911869 -18.8128,31.70817 -42.4625,72.72063 -66.1606,113.73765 -23.6981,41.01702 -47.4447,82.03858 -66.3835,113.76495 -18.9389,31.72637 -33.0643,54.15753 -37.494,57.99375 -4.4297,3.83622 5.269,-14.75873 22.0037,-44.57134 16.7347,-29.81261 40.4973,-70.84287 64.2156,-111.87729 23.7182,-41.03441 47.3921,-82.07298 64.0295,-111.90219 16.6374,-29.829202 26.2465,-48.449049 21.8551,-44.64603 -4.3913,3.803019 -18.3945,26.22589 -37.2382,57.96096 -18.8437,31.73507 -42.5336,72.78234 -66.2719,113.83418 -23.7383,41.05183 -47.5252,82.10823 -66.4952,113.86154 -18.9701,31.75332 -33.1177,54.20355 -37.5511,58.04305 -4.4335,3.8395 5.2835,-14.77122 22.0475,-44.60914 16.764,-29.83793 40.567,-70.90304 64.3255,-111.97232 23.7585,-41.06928 47.4726,-82.14272 64.1392,-111.99728 16.6666,-29.85456 26.2938,-48.49025 21.8988,-44.68403 -4.3951,3.80622 -18.4201,26.24813 -37.2949,58.01017 -18.8748,31.76204 -42.6048,72.84421 -66.3835,113.93096 -23.7786,41.08674 -47.6059,82.17805 -66.6072,113.95838 -19.0013,31.78033 -33.1711,54.24968 -37.6083,58.09248 -4.4373,3.8428 5.298,-14.78375 22.0915,-44.64705 16.7934,-29.8633 40.6368,-70.96336 64.4357,-112.06759 23.7988,-41.10423 47.5531,-82.21263 64.249,-112.09261 16.6959,-29.87999 26.3413,-48.53156 21.9426,-44.72212 -4.3988,3.80943 -18.4458,26.27043 -37.3517,58.05951 -18.9059,31.78908 -42.6762,72.90623 -66.4953,114.02797 -23.8191,41.12174 -47.6868,82.24806 -66.7195,114.05548 -19.0327,31.80741 -33.2247,54.29592 -37.6657,58.14202 -4.4411,3.84611 5.3126,-14.79629 22.1355,-44.68504 16.8229,-29.88874 40.7069,-71.02383 64.5462,-112.1631 23.8393,-41.13927 47.634,-82.28272 64.3592,-112.1882 16.7252,-29.90547 26.389,-48.57296 21.9865,-44.7603 -4.4025,3.81265 -18.4715,26.29279 -37.4086,58.10898 -18.9371,31.81618 -42.7479,72.96841 -66.6075,114.12523 -23.8595,41.15683 -47.7679,82.31825 -66.832,114.15282 -19.0641,31.83456 -33.2784,54.34228 -37.7233,58.1917 -4.4449,3.84942 5.3273,-14.80888 22.1797,-44.72314 16.8525,-29.91425 40.7771,-71.08446 64.657,-112.25886 23.8799,-41.1744 47.7151,-82.35299 64.4696,-112.28401 16.7546,-29.93103 26.4367,-48.61448 22.0305,-44.7986 -4.4061,3.81588 -18.4972,26.31521 -37.4656,58.15858 -18.9685,31.84336 -42.8198,73.03075 -66.7199,114.22275 -23.9002,41.192 -47.8493,82.3886 -66.9449,114.2504 -19.0957,31.86179 -33.3323,54.38877 -37.781,58.2415 -4.4488,3.85274 5.3419,-14.82149 22.224,-44.76132 16.8821,-29.93983 40.8474,-71.14525 64.768,-112.35487 23.9206,-41.20962 47.7963,-82.42344 64.5804,-112.38008 16.7841,-29.95664 26.4846,-48.6561 22.0746,-44.83698 -4.4099,3.81911 -18.5231,26.33769 -37.5229,58.20829 -18.9998,31.87061 -42.8917,73.09326 -66.8326,114.32052 -23.9409,41.22727 -47.9308,82.45915 -67.058,114.34824 -19.1273,31.88908 -33.3863,54.43537 -37.8389,58.29144 -4.4526,3.85607 5.3567,-14.83415 22.2685,-44.79962 16.9118,-29.96546 40.918,-71.20618 64.8793,-112.45111 23.9613,-41.24493 47.8778,-82.49408 64.6914,-112.4764 16.8137,-29.98232 26.5326,-48.69782 22.1189,-44.87546 -4.4137,3.82235 -18.5491,26.36021 -37.5803,58.25814 -19.0312,31.89792 -42.9639,73.15591 -66.9456,114.41853 -23.9818,41.26262 -48.0126,82.52987 -67.1715,114.44632 -19.1589,31.91645 -33.4404,54.4821 -37.8968,58.34151 -4.4564,3.8594 5.3714,-14.84683 22.313,-44.83801 16.9416,-29.99117 40.9887,-71.26728 64.9909,-112.54761 24.0022,-41.28033 47.9595,-82.56489 64.8028,-112.57296 16.8432,-30.00807 26.5806,-48.73966 22.1632,-44.91404 -4.4175,3.82561 -18.5751,26.3828 -37.6378,58.30811 -19.0628,31.92531 -43.0363,73.21874 -67.059,114.51681 -24.0226,41.29806 -48.0945,82.60077 -67.2852,114.54466 -19.1907,31.94388 -33.4946,54.52893 -37.9549,58.39169 -4.4603,3.86276 5.3862,-14.85954 22.3576,-44.87649 16.9714,-30.01694 41.0596,-71.32853 65.1028,-112.64436 24.0432,-41.31582 48.0414,-82.63588 64.9144,-112.66977 16.8729,-30.03388 26.6288,-48.7816 22.2076,-44.95272 -4.4212,3.82887 -18.6011,26.40545 -37.6954,58.35822 -19.0944,31.95277 -43.1089,73.28172 -67.1726,114.61532 -24.0637,41.33361 -48.1766,82.67187 -67.3992,114.64326 -19.2225,31.97138 -33.549,54.5759 -38.0132,58.44201 -4.4642,3.86611 5.401,-14.87229 22.4024,-44.91507 17.0014,-30.04278 41.1307,-71.38995 65.215,-112.74136 24.0843,-41.35141 48.1235,-82.70706 65.0262,-112.76683 16.9028,-30.05977 26.6772,-48.82365 22.2523,-44.99151 -4.425,3.83214 -18.6273,26.42817 -37.7533,58.40846 -19.1261,31.9803 -43.1816,73.34486 -67.2864,114.7141 -24.1049,41.36923 -48.2591,82.74314 -67.5135,114.7421 -19.2545,31.99896 -33.6037,54.62299 -38.0717,58.49246 -4.4681,3.86948 5.4158,-14.88507 22.4472,-44.95375 17.0314,-30.06869 41.202,-71.45152 65.3275,-112.8386 24.1255,-41.38709 48.2058,-82.77843 65.1384,-112.86415 16.9326,-30.08571 26.7257,-48.8658 22.2969,-45.03038 -4.4287,3.83541 -18.6534,26.45092 -37.8112,58.45882 -19.1578,32.00789 -43.2545,73.40817 -67.4006,114.81312 -24.1461,41.40496 -48.3416,82.8146 -67.6281,114.84121 -19.2865,32.02661 -33.6583,54.67019 -38.1303,58.54304 -4.472,3.87285 5.4308,-14.89788 22.4923,-44.99254 17.0614,-30.09466 41.2734,-71.51324 65.4402,-112.93609 24.1668,-41.42286 48.2883,-82.84998 65.2509,-112.96171 16.9625,-30.11173 26.7743,-48.90808 22.3417,-45.06937 -4.4325,3.8387 -18.6796,26.47375 -37.8693,58.50931 -19.1897,32.03557 -43.3277,73.47165 -67.5151,114.91242 -24.1875,41.44077 -48.4244,82.88623 -67.743,114.94056 -19.31862,32.05433 -33.71319,54.71752 -38.18907,58.59376 -4.47587,3.87623 5.44573,-14.91073 22.53737,-45.03143 17.0916,-30.12069 41.3451,-71.57513 65.5533,-113.03384 24.2082,-41.45872 48.3711,-82.92171 65.3637,-113.05952 16.9925,-30.13782 26.8229,-48.95046 22.3866,-45.10846 -4.4363,3.842 -18.7913,26.64337 -38.0985,58.85341 -19.3072,32.21004 -43.5725,73.82875 -67.8018,115.30543 -24.2293,41.47668 -48.42256,82.81133 -67.51537,114.45324 -19.09282,31.64191 -33.07931,53.59109 -36.87,56.29683 -3.79069,2.70574 6.40705,-16.5377 23.52703,-46.6845 17.11998,-30.14681 41.15444,-71.19698 65.05924,-112.1047 47.8096,-81.81545 95.0737,-163.06112 86.1934,-155.37052 -8.8803,7.6906 -55.3803,87.5834 -100.9555,165.55355 -45.57522,77.97015 -90.21654,154.01765 -94.62192,154.01765 -4.40537,0 40.23126,-76.0475 83.56242,-150.1707 43.3312,-74.12319 85.3665,-146.32208 76.4785,-138.62486 -8.888,7.69722 -50.9455,79.89611 -92.03982,150.1707 -41.09432,70.27458 -81.21723,138.62486 -85.62261,138.62486 -4.40537,0 35.71332,-68.35028 74.56022,-134.77459 38.84691,-66.42432 76.43071,-130.92267 67.53501,-123.2188 -8.8956,7.70386 -46.4992,72.20221 -83.105,134.77459 -36.60576,62.57238 -72.20636,123.2188 -76.61174,123.2188 -4.40537,0 31.19148,-60.64642 65.54645,-119.36521 34.35497,-58.71879 67.47579,-115.50995 58.57249,-107.79943 -8.9033,7.71052 -42.04166,64.50168 -74.15117,119.36521 -32.10951,54.86353 -63.1839,107.79943 -67.58928,107.79943 -4.40537,0 26.66574,-52.9359 56.52109,-103.9425 29.85535,-51.00661 58.50172,-100.08391 49.5907,-92.36672 -8.91101,7.71719 -37.57254,56.7945 -65.1781,103.9425 -27.60557,47.14801 -54.14982,92.36672 -58.5552,92.36672 -4.40537,0 22.13608,-45.21871 47.4841,-88.50645 25.34802,-43.28774 49.50844,-84.64451 40.58969,-76.92062 -8.91874,7.72388 -33.09194,49.08065 -56.18583,88.50645 -23.0939,39.42579 -45.10409,76.92062 -49.50947,76.92062 -4.40537,0 17.6025,-37.49483 38.43546,-73.05701 20.83295,-35.56218 40.49588,-69.19171 31.56939,-61.46112 -8.92648,7.73059 -28.59982,41.36013 -47.1743,73.05701 -18.57449,31.69688 -36.04668,61.46112 -40.45205,61.46112 -4.40538,0 13.06497,-29.76424 29.37511,-57.59415 16.31015,-27.8299 31.46402,-53.72548 22.52977,-45.98816 -8.93426,7.73731 -24.09615,33.63289 -38.14346,57.59414 -14.04731,23.96125 -26.97756,45.98817 -31.38293,45.98817 -4.40538,0 8.5235,-22.02692 20.30306,-42.11783 11.77956,-20.0909 22.41278,-38.24579 13.47074,-30.50173 -17.88408,15.48812 -42.58456,72.61956 -51.39531,72.61956 -8.81076,0 33.51124,-57.13144 15.61154,-41.6298 -17.89969,15.50165 -24.4223,41.6298 -33.23305,41.6298 -8.81076,0 15.33336,-26.12816 -2.58199,-10.61295 -17.91535,15.5152 -10.63415,10.61295 -10.63415,10.61295 M 2249.2514,4.875 c 0,0 7.1308,-4.74239844 -10.4042,10.443431 -17.5351,15.18583 5.9989,-10.443431 -2.8119,-10.443431 -8.8108,0 -14.7232,25.629257 -32.2729,40.827832 C 2186.2127,60.901407 2227.2245,4.875 2218.4138,4.875 c -8.8108,0 -32.2011,56.026403 -49.7656,71.237755 -8.7823,7.605676 1.4689,-10.203762 12.8025,-29.91462 11.3337,-19.710858 23.747,-41.323135 19.3416,-41.323135 -4.4054,0 -16.8174,21.612276 -30.34,45.127572 -13.5226,23.515296 -28.1583,48.933612 -36.9479,56.545698 -8.7896,7.61208 5.8538,-17.80624 21.5701,-45.127577 C 2170.7908,34.099357 2187.5761,4.875 2183.1708,4.875 c -4.4054,0 -21.189,29.224356 -39.0975,60.353337 -17.9085,31.128981 -36.9452,64.162593 -45.7423,71.781093 -8.7971,7.6185 10.2498,-25.41511 30.3561,-60.35334 20.1064,-34.938232 41.2675,-71.78109 36.8622,-71.78109 -4.4054,0 -25.5643,36.842857 -47.8662,75.591948 -22.3018,38.749092 -45.7507,79.404422 -54.5552,87.029352 -8.8045,7.62494 14.6569,-33.03038 39.1607,-75.591943 C 2126.7925,49.342796 2152.3331,4.875 2147.9277,4.875 c -4.4053,0 -29.9433,44.467795 -56.6458,90.843438 -26.7026,46.375642 -54.5749,94.659132 -63.3868,102.290522 -8.812,7.6314 19.0751,-40.65209 47.9839,-90.84343 C 2104.7877,56.974188 2134.7116,4.875 2130.3062,4.875 c -4.4053,0 -34.326,52.099187 -65.4368,106.10784 -31.1107,54.00865 -63.4176,109.92677 -72.2371,117.56463 -8.8194,7.63786 23.5047,-48.28025 56.8258,-106.10784 33.3212,-57.827581 67.632,-117.56463 63.2266,-117.56463 -4.4053,0 -38.7125,59.737048 -74.2389,121.38518 -35.5264,61.64814 -72.2792,125.20736 -81.1061,132.85171 -8.8269,7.64435 27.9453,-55.91487 65.6864,-121.38518 C 2060.7672,72.256397 2099.4686,4.875 2095.0632,4.875 c -4.4054,0 -43.1027,67.381396 -83.0522,136.67551 -39.9496,69.2941 -81.1595,140.50093 -89.9939,148.15178 -8.8344,7.65085 32.3973,-63.55597 74.5657,-136.67551 C 2038.7513,79.907248 2081.8471,4.875 2077.4417,4.875 c -4.4054,0 -47.4966,75.032247 -91.8768,151.97884 -44.3803,76.94659 -90.0586,155.80752 -98.9005,163.46489 -8.8419,7.65737 37.6301,-72.53449 84.2318,-153.30976 23.3008,-40.38764 46.6404,-80.921134 63.2128,-110.692251 16.5724,-29.771117 26.3851,-48.7798595 22.6534,-46.118 -7.4634,5.323719 -54.2038,86.682408 -101.4951,168.626141 -23.6456,40.97187 -47.4215,82.09 -66.4017,113.92315 -18.9803,31.83315 -33.1593,54.38132 -37.5841,58.21328 -8.8494,7.66391 38.6878,-74.29797 86.0199,-156.27638 23.6661,-40.98921 47.2878,-81.98256 63.8874,-111.778883 16.5996,-29.796326 26.1851,-48.395634 21.7985,-44.596768 -4.3865,3.798866 -18.3613,26.197038 -37.1648,57.897138 -18.8034,31.700103 -42.4411,72.702123 -66.1272,113.708693 -23.6861,41.00657 -47.4206,82.01769 -66.35,113.73597 -18.9295,31.71829 -33.0483,54.14373 -37.4768,57.97896 -4.4286,3.83523 5.2646,-14.75498 21.9905,-44.56 16.7259,-29.80501 40.4764,-70.82482 64.1826,-111.84877 23.7062,-41.02396 47.368,-82.05206 63.9966,-111.87366 16.6287,-29.821602 26.2323,-48.436698 21.8421,-44.63464 -4.3902,3.802058 -18.3869,26.219212 -37.2213,57.94619 -18.8344,31.72698 -42.5121,72.76379 -66.2384,113.80515 -23.7262,41.04136 -47.501,82.08728 -66.4616,113.83249 -18.9607,31.74521 -33.1016,54.18971 -37.5339,58.02822 -4.4324,3.83852 5.2791,-14.76746 22.0343,-44.59777 16.7552,-29.83031 40.5461,-70.88494 64.2925,-111.94374 23.7464,-41.05879 47.4483,-82.12174 64.1061,-111.96867 16.6579,-29.84694 26.2796,-48.477865 21.8857,-44.672606 -4.3939,3.805256 -18.4124,26.241446 -37.2778,57.995366 -18.8655,31.75393 -42.5834,72.82561 -66.3499,113.90185 -23.7666,41.07624 -47.5817,82.15706 -66.5736,113.92926 -18.9919,31.7722 -33.155,54.2358 -37.5911,58.07761 -4.4361,3.8418 5.2937,-14.77998 22.0783,-44.63565 16.7845,-29.85567 40.6158,-70.94522 64.4025,-112.03893 23.7868,-41.09372 47.529,-82.1916 64.216,-112.06394 16.6871,-29.87234 26.3271,-48.51913 21.9294,-44.71066 -4.3976,3.80846 -18.438,26.26372 -37.3346,58.04467 -18.8965,31.78094 -42.6547,72.88758 -66.4616,113.99879 -23.8069,41.11121 -47.6625,82.227 -66.6858,114.02627 -19.0232,31.79927 -33.2085,54.28201 -37.6484,58.12712 -4.44,3.84511 5.3082,-14.79252 22.1223,-44.67361 16.814,-29.88109 40.6858,-71.00565 64.5129,-112.13438 23.8272,-41.12873 47.6097,-82.26163 64.3261,-112.15944 16.7164,-29.8978 26.3746,-48.56051 21.9733,-44.74882 -4.4014,3.81168 -18.4638,26.28607 -37.3915,58.0941 -18.9277,31.80803 -42.7263,72.94971 -66.5737,114.09598 -23.8474,41.14627 -47.7436,82.29713 -66.7982,114.12353 -19.0547,31.8264 -33.2623,54.32834 -37.706,58.17676 -4.4438,3.84842 5.3229,-14.80509 22.1665,-44.71167 16.8435,-29.90658 40.7559,-71.06623 64.6236,-112.23006 23.8677,-41.16383 47.6907,-82.33186 64.4364,-112.25519 16.7458,-29.92334 26.4223,-48.60199 22.0173,-44.78708 -4.4051,3.81491 -18.4895,26.30847 -37.4485,58.14366 -18.959,31.83518 -42.7981,73.012 -66.6861,114.19342 -23.888,41.18141 -47.8248,82.36744 -66.911,114.22104 -19.0861,31.8536 -33.316,54.37478 -37.7636,58.22652 -4.4476,3.85174 5.3375,-14.8177 22.2107,-44.74983 16.8732,-29.93214 40.8263,-71.12696 64.7346,-112.32599 23.9083,-41.19903 47.7719,-82.40225 64.5471,-112.35119 16.7752,-29.94893 26.4701,-48.64357 22.0613,-44.82543 -4.4088,3.81815 -18.5153,26.33093 -37.5057,58.19334 -18.9903,31.86241 -42.87,73.07445 -66.7987,114.29111 -23.9286,41.21666 -47.9062,82.43793 -67.024,114.3188 -19.1177,31.88088 -33.37,54.42135 -37.8214,58.27642 -4.4514,3.85507 5.3523,-14.83034 22.2551,-44.7881 16.9029,-29.95775 40.8967,-71.18785 64.8458,-112.42216 23.9491,-41.23431 47.8533,-82.47282 64.6581,-112.44742 16.8047,-29.9746 26.518,-48.68527 22.1055,-44.86389 -4.4125,3.82139 -18.5413,26.35344 -37.563,58.24315 -19.0218,31.88971 -42.9422,73.13706 -66.9117,114.38905 -23.9694,41.25198 -47.9879,82.50859 -67.1373,114.41681 -19.1494,31.90822 -33.4241,54.46804 -37.8794,58.32644 -4.4553,3.85841 5.367,-14.84301 22.2996,-44.82645 16.9326,-29.98344 40.9674,-71.2489 64.9574,-112.51858 23.9899,-41.26969 47.9349,-82.54359 64.7692,-112.54391 16.8344,-30.00033 26.5662,-48.72707 22.1499,-44.90244 -4.4163,3.82463 -18.5672,26.37601 -37.6205,58.29308 -19.0533,31.91708 -43.0145,73.19984 -67.0249,114.48724 -24.0103,41.2874 -48.0698,82.57945 -67.2509,114.51508 -19.1812,31.93562 -33.4784,54.51484 -37.9375,58.37659 -4.4592,3.86175 5.3817,-14.85572 22.3442,-44.86491 16.9625,-30.00919 41.0383,-71.31011 65.0691,-112.61525 24.0309,-41.30515 48.0168,-82.61453 64.8808,-112.64065 16.8641,-30.02612 26.6144,-48.76897 22.1943,-44.94108 -4.42,3.82789 -18.5932,26.39864 -37.6781,58.34315 -19.0849,31.9445 -43.087,73.26276 -67.1384,114.58568 -24.0513,41.32291 -48.1519,82.65047 -67.3649,114.61358 -19.2129,31.96312 -33.5327,54.56178 -37.9957,58.42688 -4.463,3.8651 5.3966,-14.86846 22.389,-44.90347 16.9923,-30.035 41.1093,-71.37146 65.1812,-112.71216 24.0719,-41.34071 48.0988,-82.68565 64.9926,-112.73763 16.8938,-30.05198 26.6626,-48.811 22.2388,-44.97984 -4.4238,3.83116 -18.6194,26.42133 -37.7359,58.39334 -19.1165,31.97202 -43.1597,73.32587 -67.2521,114.68438 -24.0925,41.35851 -48.2343,82.72169 -67.4792,114.71236 -19.2448,31.99066 -33.5872,54.60882 -38.0541,58.47728 -4.4669,3.86846 5.4114,-14.88122 22.4338,-44.94212 17.0224,-30.06089 41.1805,-71.43298 65.2936,-112.80933 24.1131,-41.37635 48.1811,-82.75696 65.1047,-112.83486 16.9236,-30.07791 26.7111,-48.85312 22.2835,-45.01869 -4.4276,3.83443 -18.6455,26.44408 -37.7938,58.44366 -19.1483,31.99959 -43.2326,73.38912 -67.3663,114.78333 -24.1337,41.39421 -48.3167,82.79309 -67.5936,114.81138 -19.2769,32.01829 -33.6419,54.65599 -38.1127,58.52783 -4.4708,3.87183 5.4263,-14.89403 22.4788,-44.98087 17.0524,-30.08685 41.2519,-71.49467 65.4063,-112.90676 24.1543,-41.41209 48.2635,-82.82844 65.217,-112.93234 16.9536,-30.10391 26.7597,-48.89536 22.3283,-45.05764 -4.4314,3.83771 -18.6718,26.46688 -37.8519,58.49412 -19.1801,32.02723 -43.3056,73.45254 -67.4806,114.88253 -24.175,41.43 -48.3995,82.86468 -67.7085,114.91066 -19.3089,32.04599 -33.6966,54.70328 -38.1713,58.5785 -4.4747,3.87521 5.4412,-14.90686 22.5238,-45.01973 17.0825,-30.11286 41.3235,-71.5565 65.5192,-113.00442 24.1958,-41.44792 48.3462,-82.90012 65.3298,-113.03009 16.9835,-30.12996 26.8083,-48.93769 22.3731,-45.09669 -4.4352,3.84101 -18.6981,26.48975 -37.9101,58.54471 -19.212,32.05495 -43.3789,73.51613 -67.5953,114.982 -24.2164,41.46587 -48.4825,82.93644 -67.8236,115.0102 -19.3411,32.07375 -33.7516,54.75069 -38.2302,58.62929 -4.4786,3.87861 5.4562,-14.91973 22.569,-45.05867 17.1128,-30.13895 41.3953,-71.61851 65.6326,-113.10235 24.2372,-41.48385 48.429,-82.97198 65.4426,-113.12808 17.0136,-30.15609 26.8572,-48.98015 22.4182,-45.13584 -4.439,3.8443 -18.611,26.31728 -37.5425,57.86432 -18.9315,31.54704 -42.6282,72.16815 -66.0882,112.30872 -46.9201,80.28114 -92.9183,158.64012 -97.3237,158.64012 -4.4054,0 41.588,-78.35898 86.265,-154.79416 44.6771,-76.43518 88.0477,-150.94655 79.162,-143.25132 -8.8856,7.69524 -52.2792,82.2066 -94.7207,154.79417 -42.4415,72.58756 -83.9224,143.25131 -88.3278,143.25131 -4.4054,0 37.0712,-70.66375 77.2663,-139.40204 40.1951,-68.73829 79.1176,-135.55111 70.2243,-127.84925 -8.8933,7.70187 -47.8364,74.51469 -85.7917,139.40205 -37.9552,64.88735 -74.915,127.84924 -79.3204,127.84924 -4.4054,0 32.5505,-62.96189 68.256,-123.99665 35.7055,-61.03476 70.1685,-120.14239 61.2675,-112.43388 -8.901,7.70852 -43.3823,66.81615 -76.8436,123.99665 -33.4613,57.18051 -65.896,112.43388 -70.3014,112.43388 -4.4054,0 28.026,-55.25337 59.2341,-108.57795 31.2082,-53.32458 61.2002,-104.72036 52.2915,-97.00518 -8.9087,7.71519 -38.9166,59.11097 -67.8763,108.57796 -28.9596,49.46698 -56.8655,97.00517 -61.2708,97.00517 -4.4054,0 23.4975,-47.53819 50.2006,-93.14591 26.7032,-45.60772 52.2127,-89.28498 43.2963,-81.56311 -8.9165,7.72187 -34.4395,51.39913 -58.8898,93.14592 -24.4503,41.74678 -47.8233,81.5631 -52.2286,81.5631 -4.4054,0 18.9651,-39.81632 41.1555,-77.7005 22.1904,-37.88417 43.2059,-73.8362 34.2817,-66.10763 -8.9241,7.72858 -29.9508,43.68061 -49.884,77.7005 -19.9332,34.01988 -38.7694,66.10763 -43.1748,66.10763 -4.4053,0 14.4288,-32.08775 32.0987,-62.24167 17.67,-30.15392 34.1799,-58.37402 25.248,-50.63872 -8.9319,7.73529 -25.4506,35.95539 -40.859,62.24166 -15.4084,26.28628 -29.7038,50.63873 -34.1092,50.63873 -4.4053,0 9.8885,-24.35245 23.0302,-46.7694 13.1417,-22.41694 25.1344,-42.89837 16.1947,-35.15634 -17.8794,15.48407 -48.0356,81.92574 -56.8464,81.92574 -8.8107,0 38.9671,-66.44168 21.0721,-50.9441 -17.895,15.49758 -29.8828,50.9441 -38.6936,50.9441 -8.8107,0 20.7986,-35.44652 2.8879,-19.9354 -17.9106,15.51113 -16.104,19.9354 -16.104,19.9354 M 2640.6175,13.784832 c 0,0 9.5233,-8.909832 0.7125,-8.909832 -8.8107,0 -9.4773,16.500831 -27.0226,31.695574 -17.5453,15.194743 18.2119,-31.695574 9.4011,-31.695574 -8.8107,0 -26.9464,46.890313 -44.5065,62.097824 -8.78,7.603755 0.1536,-7.920701 10.1718,-25.346096 C 2599.3921,24.201334 2610.4924,4.875 2606.087,4.875 c -4.4054,0 -15.5045,19.326333 -27.7108,40.555204 -12.2062,21.228872 -25.5216,44.360282 -34.3091,51.970438 -8.7874,7.610158 4.5351,-15.521255 18.9338,-40.555204 14.3987,-25.03395 29.87,-51.970438 25.4646,-51.970438 -4.4054,0 -19.8751,26.936487 -36.465,55.777118 -16.5899,28.84063 -34.303,59.585402 -43.0979,67.201972 -8.7948,7.61658 8.9278,-23.1282 27.7143,-55.777114 C 2555.4034,39.428059 2575.2494,4.875 2570.844,4.875 c -4.4054,0 -24.2493,34.553058 -45.2303,71.011868 -20.9809,36.458812 -43.103,74.823372 -51.9052,82.446372 -8.8023,7.62301 13.3315,-30.74155 36.5132,-71.011865 C 2533.4035,47.051063 2557.6279,4.875 2553.2225,4.875 c -4.4054,0 -28.6272,42.176062 -54.0067,86.259488 -25.3795,44.083422 -51.9215,90.074212 -60.7312,97.703672 -8.8097,7.62945 17.7464,-38.36134 45.3308,-86.25949 27.5845,-47.898154 56.1909,-97.70367 51.7856,-97.70367 -4.4054,0 -33.0088,49.805514 -62.7943,101.52001 -29.7854,51.71449 -60.7587,105.33797 -69.5759,112.97389 -8.8171,7.63591 22.1726,-45.98756 54.1672,-101.52001 C 2489.3926,62.316433 2522.3848,4.875 2517.9795,4.875 c -4.4054,0 -37.3942,57.441432 -71.593,116.79346 -34.1989,59.35204 -69.6146,120.61467 -78.4393,128.25707 -8.8247,7.6424 26.6099,-53.62023 63.0221,-116.79347 36.4122,-63.173228 73.794,-128.25706 69.3886,-128.25706 -4.4053,0 -41.7831,65.083831 -80.4029,132.07989 -38.6198,66.99605 -78.4893,135.90433 -87.3214,143.55323 -8.8322,7.6489 31.0584,-61.25938 71.8958,-132.07989 40.8374,-70.820501 82.6124,-143.55323 78.207,-143.55323 -4.4053,0 -46.1759,72.732728 -89.2241,147.37931 -43.0482,74.64658 -87.3827,151.20702 -96.2224,158.86243 -8.8396,7.65541 35.6283,-69.09537 80.8981,-147.56966 22.6349,-39.23714 45.4756,-78.905164 62.043,-108.668724 16.5674,-29.763559 26.868,-49.6226585 24.4466,-49.241961 -4.8427,0.7613951 -50.9026,80.959186 -98.1684,162.882115 -23.6329,40.96146 -47.5606,82.35421 -66.6962,114.46434 -19.1356,32.11012 -33.4732,54.93763 -37.8969,58.7686 -8.8472,7.66194 38.6659,-74.27911 85.974,-156.2367 23.654,-40.97879 47.2637,-81.96171 63.8546,-111.750463 16.5909,-29.78875 26.1709,-48.383325 21.7855,-44.585418 -8.7709,7.595816 -55.8937,89.569931 -103.2418,171.562221 -23.674,40.99614 -47.3964,81.99682 -66.3165,113.70703 -18.9201,31.71021 -33.0324,54.12995 -37.4598,57.96419 -4.4273,3.83425 5.2603,-14.75124 21.9774,-44.54867 16.7171,-29.79743 40.4556,-70.8068 64.1497,-111.82032 23.6941,-41.01351 47.3439,-82.03117 63.9638,-111.84517 16.6199,-29.814007 26.2181,-48.424359 21.829,-44.62326 -4.3891,3.801098 -18.3792,26.212547 -37.2043,57.93145 -18.8251,31.7189 -42.4908,72.74525 -66.205,113.77616 -23.7142,41.03091 -47.4768,82.06637 -66.4281,113.80349 -18.9512,31.73712 -33.0855,54.17589 -37.5167,58.01342 -4.4312,3.83753 5.2748,-14.76372 22.0211,-44.58643 16.7464,-29.8227 40.5252,-70.86687 64.2595,-111.9152 23.7343,-41.04832 47.4242,-82.1008 64.0732,-111.94012 16.6491,-29.83933 26.2654,-48.465493 21.8726,-44.661197 -4.3928,3.804296 -18.4048,26.234757 -37.2609,57.980587 -18.8561,31.74583 -42.5619,72.80703 -66.3163,113.87279 -23.7545,41.06577 -47.5575,82.13609 -66.54,113.90018 -18.9824,31.7641 -33.1389,54.22195 -37.5739,58.06277 -4.4349,3.84082 5.2894,-14.77622 22.0651,-44.62426 16.7757,-29.84805 40.5949,-70.92711 64.3695,-112.01033 23.7746,-41.08323 47.5047,-82.17061 64.1829,-112.03532 16.6783,-29.8647 26.3128,-48.50673 21.9163,-44.69923 -4.3965,3.80751 -18.4303,26.25703 -37.3175,58.02986 -18.8872,31.77283 -42.6333,72.86896 -66.4281,113.96966 -23.7948,41.10071 -47.6382,82.20599 -66.652,113.99712 -19.0138,31.79114 -33.1925,54.26813 -37.6312,58.11225 -4.4388,3.84411 5.3039,-14.78876 22.109,-44.66221 16.8052,-29.87345 40.6648,-70.98749 64.4798,-112.1057 23.815,-41.11821 47.5854,-82.24059 64.293,-112.13074 16.7075,-29.89016 26.3603,-48.54808 21.9601,-44.73736 -4.4002,3.81071 -18.4561,26.27935 -37.3744,58.07925 -18.9184,31.79989 -42.7048,72.93104 -66.5401,114.06677 -23.8352,41.13574 -47.7191,82.27607 -66.7643,114.09431 -19.0453,31.81825 -33.2461,54.31442 -37.6887,58.16185 -4.4426,3.84742 5.3185,-14.80132 22.1532,-44.70024 16.8346,-29.89893 40.7348,-71.04803 64.5903,-112.20131 23.8555,-41.15329 47.6664,-82.31076 64.4033,-112.22643 16.7369,-29.91566 26.408,-48.58952 22.004,-44.77558 -4.4039,3.81394 -18.4818,26.30174 -37.4314,58.12877 -18.9496,31.82702 -42.7765,72.99328 -66.6523,114.16414 -23.8757,41.17086 -47.8003,82.34631 -66.877,114.19174 -19.0767,31.84543 -33.2999,54.36083 -37.7463,58.21157 -4.4465,3.85075 5.3331,-14.81391 22.1974,-44.73837 16.8643,-29.92446 40.8051,-71.10871 64.7012,-112.29716 23.8961,-41.18846 47.7475,-82.3811 64.5139,-112.32235 16.7663,-29.94124 26.4557,-48.63108 22.0481,-44.81391 -4.4077,3.81717 -18.5076,26.32418 -37.4886,58.17841 -18.9809,31.85423 -42.8484,73.05569 -66.7648,114.26176 -23.9164,41.20607 -47.8818,82.41675 -66.99,114.28943 -19.1083,31.87268 -33.3538,54.40736 -37.8041,58.26142 -4.4503,3.85407 5.3479,-14.82654 22.2418,-44.7766 16.8939,-29.95006 40.8755,-71.16956 64.8124,-112.39326 23.9368,-41.22371 47.8288,-82.45162 64.6247,-112.41851 16.7958,-29.96689 26.5036,-48.67274 22.0922,-44.85233 -4.4114,3.82041 -18.5335,26.34667 -37.5458,58.22818 -19.0123,31.8815 -42.9205,73.11825 -66.8777,114.35962 -23.9572,41.24136 -47.9634,82.48736 -67.1032,114.38736 -19.1399,31.9 -33.4079,54.45401 -37.862,58.31141 -4.4541,3.8574 5.3626,-14.83921 22.2862,-44.81493 16.9237,-29.97572 40.9462,-71.23056 64.9238,-112.48961 23.9777,-41.25906 47.9104,-82.52233 64.7359,-112.51492 16.8254,-29.9926 26.5517,-48.71451 22.1365,-44.89086 -4.4151,3.82366 -18.5594,26.36923 -37.6032,58.27808 -19.0438,31.90885 -42.9928,73.18097 -66.9908,114.45773 -23.9981,41.27676 -48.0453,82.55816 -67.2168,114.48555 -19.1716,31.92739 -33.4621,54.50078 -37.92,58.36152 -4.458,3.86074 5.3773,-14.8519 22.3308,-44.85335 16.9534,-30.00146 41.0169,-71.29172 65.0355,-112.58621 24.0185,-41.29449 47.9922,-82.59321 64.8473,-112.61157 16.8551,-30.01837 26.5998,-48.75639 22.1809,-44.92948 -4.4189,3.82691 -18.5855,26.39184 -37.6608,58.32811 -19.0754,31.93626 -43.0652,73.24385 -67.1043,114.55609 -24.039,41.31225 -48.1272,82.62913 -67.3306,114.58399 -19.2034,31.95485 -33.5164,54.54766 -37.9782,58.41176 -4.4619,3.86409 5.3921,-14.86463 22.3755,-44.89188 16.9833,-30.02725 41.0879,-71.35303 65.1475,-112.68305 24.0596,-41.33001 48.0742,-82.66427 64.959,-112.70848 16.8848,-30.04421 26.6481,-48.79837 22.2254,-44.96819 -4.4227,3.83017 -18.6115,26.41451 -37.7185,58.37825 -19.107,31.96375 -43.1378,73.30691 -67.2179,114.65472 -24.0801,41.34782 -48.2095,82.70029 -67.4448,114.68267 -19.2353,31.98239 -33.5708,54.59468 -38.0366,58.46213 -4.4657,3.86745 5.407,-14.87739 22.4203,-44.9305 17.0134,-30.05311 41.1592,-71.4145 65.2599,-112.78013 24.1007,-41.36564 48.1563,-82.73553 65.0709,-112.80564 16.9147,-30.07012 26.6966,-48.84046 22.2701,-45.00701 -4.4265,3.83344 -18.6377,26.43724 -37.7764,58.42854 -19.1387,31.9913 -43.2107,73.3701 -67.3319,114.75358 -24.1213,41.38348 -48.292,82.77163 -67.5592,114.78162 -19.2673,32.00999 -33.6255,54.64181 -38.0951,58.51263 -4.4696,3.87082 5.4218,-14.89018 22.4652,-44.96923 17.0434,-30.07904 41.2305,-71.47612 65.3724,-112.87747 24.142,-41.40135 48.2388,-82.80695 65.1833,-112.90304 16.9446,-30.09609 26.7451,-48.88266 22.3148,-45.04593 -4.4303,3.83673 -18.6639,26.46002 -37.8344,58.47895 -19.1706,32.01892 -43.2837,73.43348 -67.4463,114.85271 -24.1625,41.41924 -48.3746,82.84316 -67.6739,114.88082 -19.2993,32.03766 -33.6802,54.68905 -38.1537,58.56325 -4.4735,3.8742 5.4368,-14.903 22.5103,-45.00804 17.0735,-30.10504 41.302,-71.53792 65.4853,-112.97507 24.1833,-41.43714 48.3213,-82.87857 65.2958,-113.00069 16.9745,-30.12213 26.7937,-48.92497 22.3597,-45.08495 -4.4341,3.84001 -18.6902,26.48287 -37.8926,58.52949 -19.2025,32.04662 -43.3569,73.49701 -67.5609,114.95209 -24.2039,41.45509 -48.4575,82.91487 -67.7889,114.98027 -19.3314,32.06541 -33.7351,54.73643 -38.2125,58.61402 -4.4775,3.87758 5.4517,-14.91587 22.5554,-45.04697 17.1037,-30.1311 41.3737,-71.59986 65.5985,-113.0729 24.2247,-41.47305 48.4041,-82.95037 65.4087,-113.09861 17.0045,-30.14824 26.8425,-48.96739 22.4046,-45.12407 -4.4379,3.84331 -18.9419,26.89327 -38.3739,59.30633 -19.4321,32.41307 -43.7981,74.18925 -67.9303,115.48501 -48.2643,82.59153 -95.619,163.2614 -100.0244,163.2614 -2.2027,0 8.538,-20.16747 25.5792,-50.17826 17.0412,-30.01078 40.3763,-69.86489 63.3875,-109.23817 46.0222,-78.74656 90.7271,-155.56981 81.8437,-147.87657 -8.8833,7.69324 -53.6119,84.51649 -97.3999,159.41643 -43.7879,74.89994 -86.6266,147.87657 -91.032,147.87657 -4.4054,0 38.4288,-72.97663 79.9714,-144.02829 41.5426,-71.05167 81.8028,-140.17836 72.9118,-132.47849 -8.891,7.69987 -49.1726,76.82656 -88.4766,144.02829 -39.304,67.20173 -77.6227,132.47849 -82.0281,132.47849 -4.4054,0 33.9093,-65.27676 70.9646,-128.62689 37.0552,-63.35014 72.8594,-124.77364 63.9607,-117.06712 -8.8987,7.70651 -44.7218,69.13002 -79.5342,128.62689 -34.8124,59.49687 -68.6072,117.06712 -73.0126,117.06712 -4.4054,0 29.3859,-57.57025 61.9462,-113.2122 32.5602,-55.64195 63.8968,-109.35561 54.9905,-101.64243 -8.9064,7.71318 -40.2596,61.42684 -70.5727,113.2122 -30.3131,51.78536 -59.5801,101.64243 -63.9855,101.64243 -4.4054,0 24.8586,-49.85707 52.9162,-97.78417 28.0575,-47.9271 54.9151,-93.92424 46.001,-86.20438 -8.9141,7.71986 -35.7859,53.717 -61.5919,97.78417 -25.8061,44.06717 -50.5414,86.20438 -54.9468,86.20438 -4.4054,0 20.3274,-42.13721 43.8745,-82.34278 23.5472,-40.20557 45.9142,-78.47949 36.9924,-70.75294 -8.9219,7.72656 -31.3007,46.00049 -52.592,82.34278 -21.2913,36.34229 -41.4911,70.75294 -45.8964,70.75294 -4.4054,0 15.7922,-34.41065 34.8212,-66.88798 19.029,-32.47734 36.8939,-63.02135 27.9643,-55.28807 -8.9295,7.73327 -26.8039,38.27728 -43.5727,66.88798 -16.7688,28.61069 -32.429,55.28807 -36.8343,55.28807 -4.4054,0 11.2531,-26.67738 25.7562,-51.41975 14.5031,-24.74238 27.8543,-47.54975 18.917,-39.80975 -8.9374,7.74001 -22.2957,30.54738 -34.5342,51.41976 -12.2386,20.87237 -23.3552,39.80974 -27.7605,39.80974 -4.4054,0 6.71,-18.93737 16.6794,-35.93805 9.9694,-17.00069 18.7954,-32.06468 9.8502,-24.31792 -17.8903,15.49351 -35.3404,60.25597 -44.1512,60.25597 -8.8107,0 26.2609,-44.76246 8.355,-29.25541 -17.9059,15.50705 -17.1657,29.25541 -25.9765,29.25541 -8.8107,0 -0.8907,-5.98805 -0.8907,-5.98805 M 3042.2194,4.875 c 0,0 0.1712,7.374704 -17.3697,22.565616 C 3007.3088,42.631528 3037.814,4.875 3029.0032,4.875 c -8.8107,0 -21.6944,37.756524 -39.25,52.960194 -17.5556,15.20367 30.4393,-52.960194 21.6285,-52.960194 -4.4054,0 -14.192,17.040965 -25.0825,35.983988 -10.8906,18.943022 -22.8868,39.788102 -31.672,47.396333 -8.7852,7.60823 3.2174,-13.236851 16.2991,-35.983988 C 2984.008,29.524195 2998.1656,4.875 2993.7602,4.875 c -4.4054,0 -18.5614,24.649194 -33.8334,51.202049 -15.272,26.552854 -31.6626,55.009371 -40.4552,62.624011 -8.7926,7.61464 7.6067,-20.841874 25.074,-51.202049 C 2962.0129,37.138836 2980.5441,4.875 2976.1387,4.875 c -4.4054,0 -22.9346,32.263834 -42.5954,66.432936 -19.6608,34.169104 -40.4569,70.243474 -49.2569,77.864544 -8.8,7.62106 12.0071,-28.4533 33.8674,-66.432941 C 2940.0142,44.759903 2962.9226,4.875 2958.5172,4.875 c -4.4054,0 -27.3114,39.884902 -51.3684,81.676683 -24.0571,41.791777 -49.2699,85.490437 -58.0774,93.117947 -8.8074,7.62752 16.4187,-36.07114 42.6795,-81.676678 C 2918.0117,52.387415 2945.3011,4.875 2940.8957,4.875 c -4.4054,0 -31.6919,47.512414 -60.1527,96.93332 -28.4608,49.42091 -58.1014,100.75031 -66.9163,108.38428 -8.815,7.63397 20.8414,-43.69543 51.5101,-96.93332 C 2896.0055,60.021386 2927.6796,4.875 2923.2742,4.875 c -4.4054,0 -36.0761,55.146385 -68.9481,112.20288 -32.8719,57.0565 -66.9517,116.02311 -75.7741,123.66356 -8.8224,7.64045 25.2754,-51.32616 60.3595,-112.20288 C 2873.9956,67.661835 2910.058,4.875 2905.6527,4.875 c -4.4054,0 -40.464,62.786834 -77.7547,127.4854 -37.2906,64.69857 -75.8207,131.30888 -84.6506,138.95582 -8.8299,7.64694 29.7206,-58.96336 69.2276,-127.4854 C 2851.9819,75.308776 2892.4365,4.875 2888.0312,4.875 c -4.4054,0 -44.8557,70.433775 -86.5725,142.78091 -41.7168,72.34714 -84.7085,146.60764 -93.5459,154.26109 -8.8374,7.65346 34.177,-66.60705 78.1144,-142.78091 C 2829.9646,82.962227 2874.815,4.875 2870.4096,4.875 c -4.4053,0 -49.251,78.087226 -95.4015,158.08945 -23.0752,40.00111 -46.4706,80.48096 -65.2125,111.91804 -18.742,31.43708 -32.825,53.83138 -37.2475,57.66137 -8.845,7.65998 38.644,-74.26024 85.928,-156.19698 23.642,-40.96837 47.2397,-81.940872 63.8218,-111.722041 16.5822,-29.78117 26.1568,-48.371009 21.7724,-44.574058 -8.7686,7.593902 -55.8674,89.547159 -103.1914,171.518569 -23.662,40.98571 -47.3724,81.97595 -66.2831,113.67809 -18.9108,31.70213 -33.0164,54.11615 -37.4426,57.94941 -8.8525,7.66652 38.7169,-74.32304 86.081,-156.32917 23.682,-41.00307 47.3198,-82.01027 63.9309,-111.816676 16.6112,-29.806404 26.2039,-48.412007 21.8159,-44.611868 -4.388,3.800139 -18.3715,26.20588 -37.1873,57.916694 -18.8158,31.71082 -42.4695,72.72672 -66.1716,113.74716 -23.7021,41.02045 -47.4526,82.04544 -66.3945,113.77446 -18.9419,31.72902 -33.0696,54.16206 -37.4996,57.9986 -4.43,3.83654 5.2704,-14.75996 22.008,-44.57506 16.7376,-29.8151 40.5042,-70.84879 64.2264,-111.88664 23.7222,-41.03785 47.4,-82.07985 64.0403,-111.91155 16.6403,-29.831703 26.2512,-48.45311 21.8595,-44.649775 -4.3917,3.803334 -18.3971,26.228075 -37.2438,57.965805 -18.8468,31.73772 -42.5406,72.78843 -66.2829,113.8437 -23.7423,41.05528 -47.5332,82.11511 -66.5063,113.87108 -18.9731,31.75597 -33.1229,54.20809 -37.5567,58.04792 -4.4338,3.83982 5.285,-14.77246 22.0519,-44.61288 16.7669,-29.84042 40.5738,-70.90898 64.3363,-111.9817 23.7625,-41.07271 47.4805,-82.14959 64.15,-112.00666 16.6695,-29.85707 26.2985,-48.49432 21.9031,-44.68778 -4.3954,3.80654 -18.4226,26.25033 -37.3005,58.01503 -18.8778,31.7647 -42.6118,72.85032 -66.3944,113.9405 -23.7827,41.09019 -47.6139,82.18495 -66.6183,113.96795 -19.0044,31.78299 -33.1764,54.25422 -37.614,58.09735 -4.4377,3.84312 5.2995,-14.78498 22.0958,-44.65079 16.7963,-29.8658 40.6437,-70.96931 64.4466,-112.07699 23.8028,-41.10768 47.5611,-82.21953 64.2599,-112.10202 16.6987,-29.88249 26.346,-48.53563 21.9469,-44.72588 -4.3991,3.80975 -18.4483,26.27264 -37.3573,58.06438 -18.909,31.79175 -42.6833,72.91236 -66.5063,114.03755 -23.8231,41.12519 -47.6949,82.25497 -66.7306,114.06506 -19.0358,31.81008 -33.23,54.30048 -37.6714,58.14691 -4.4415,3.84643 5.3141,-14.79754 22.1399,-44.68879 16.8258,-29.89126 40.7137,-71.0298 64.5571,-112.17253 23.8433,-41.14273 47.642,-82.28964 64.3701,-112.19762 16.728,-29.90799 26.3936,-48.57705 21.9908,-44.76408 -4.4028,3.81297 -18.4741,26.295 -37.4143,58.11386 -18.9402,31.81886 -42.7549,72.97455 -66.6185,114.13484 -23.8636,41.16028 -47.7759,82.32517 -66.8432,114.16241 -19.0672,31.83725 -33.2836,54.34686 -37.7289,58.19661 -4.4453,3.84974 5.3287,-14.81013 22.1841,-44.7269 16.8554,-29.91677 40.784,-71.09044 64.6679,-112.26831 23.8839,-41.17786 47.7231,-82.35992 64.4805,-112.29347 16.7575,-29.93354 26.4414,-48.61857 22.0349,-44.80237 -4.4066,3.8162 -18.4999,26.31743 -37.4713,58.16347 -18.9715,31.84604 -42.8268,73.0369 -66.731,114.23237 -23.9042,41.19547 -47.8573,82.39555 -66.9561,114.26003 -19.0987,31.86447 -33.3375,54.39335 -37.7866,58.24642 -4.4492,3.85307 5.3434,-14.82274 22.2284,-44.7651 16.885,-29.94235 40.8543,-71.15124 64.7789,-112.36433 23.9246,-41.2131 47.8044,-82.4304 64.5914,-112.38956 16.7869,-29.95917 26.4892,-48.6602 22.0789,-44.84077 -4.4103,3.81944 -18.5257,26.33991 -37.5285,58.2132 -19.0029,31.8733 -42.8989,73.09942 -66.8438,114.33016 -23.9449,41.23075 -47.9388,82.46611 -67.0692,114.35789 -19.1303,31.89177 -33.3915,54.43997 -37.8445,58.29636 -4.453,3.8564 5.3581,-14.83539 22.2728,-44.80339 16.9148,-29.96799 40.925,-71.21219 64.8903,-112.46061 23.9654,-41.24841 47.8859,-82.50104 64.7024,-112.4859 16.8166,-29.98485 26.5373,-48.70193 22.1232,-44.87925 -4.414,3.82268 -18.5516,26.36244 -37.5859,58.26306 -19.0343,31.90061 -42.971,73.16209 -66.9568,114.4282 -23.9858,41.2661 -48.0206,82.53684 -67.1827,114.45599 -19.162,31.91915 -33.4457,54.4867 -37.9025,58.34644 -4.4568,3.85974 5.3729,-14.84808 22.3174,-44.84179 16.9445,-29.9937 40.9957,-71.2733 65.0019,-112.55713 24.0063,-41.28382 47.9676,-82.57187 64.8138,-112.58248 16.8461,-30.01061 26.5853,-48.74378 22.1675,-44.91785 -4.4178,3.82594 -18.5776,26.38504 -37.6435,58.31305 -19.0658,31.92801 -43.0434,73.22493 -67.0701,114.52649 -24.0267,41.30156 -48.1025,82.60777 -67.2964,114.55436 -19.1938,31.94659 -33.5,54.53356 -37.9607,58.39664 -4.4607,3.86309 5.3877,-14.8608 22.3621,-44.88028 16.9744,-30.01949 41.0666,-71.33457 65.1138,-112.6539 24.0473,-41.31932 48.0495,-82.64288 64.9254,-112.67932 16.8759,-30.03643 26.6336,-48.78573 22.212,-44.95653 -4.4215,3.82919 -18.6036,26.40769 -37.7011,58.36316 -19.0975,31.95547 -43.116,73.28793 -67.1838,114.62504 -24.0677,41.3371 -48.1847,82.67887 -67.4104,114.65297 -19.2257,31.9741 -33.5544,54.58053 -38.019,58.44697 -4.4646,3.86645 5.4025,-14.87354 22.4068,-44.91887 17.0043,-30.04533 41.1377,-71.396 65.2261,-112.75092 24.0883,-41.35492 48.1316,-82.71408 65.0373,-112.7764 16.9056,-30.06232 26.6819,-48.82779 22.2566,-44.99533 -4.4254,3.83247 -18.6298,26.4304 -37.759,58.41341 -19.1292,31.98301 -43.1888,73.35109 -67.2977,114.72384 -24.1089,41.37274 -48.2671,82.75016 -67.5247,114.75184 -19.2577,32.00168 -33.609,54.62763 -38.0775,58.49743 -4.4685,3.86981 5.4174,-14.88632 22.4517,-44.95756 17.0343,-30.07124 41.209,-71.45759 65.3386,-112.84819 24.1295,-41.3906 48.2139,-82.78546 65.1495,-112.87373 16.9355,-30.08827 26.7304,-48.86996 22.3013,-45.03422 -4.4291,3.83574 -18.656,26.45317 -37.817,58.46378 -19.161,32.01062 -43.2617,73.41441 -67.4118,114.82289 -24.1502,41.40848 -48.3498,82.82164 -67.6395,114.85097 -19.2896,32.02933 -33.6637,54.67485 -38.136,58.54803 -4.4724,3.87318 5.4322,-14.89915 22.4967,-44.99636 17.0644,-30.09722 41.2805,-71.51933 65.4513,-112.94571 24.1709,-41.42637 48.2965,-82.85702 65.262,-112.97131 16.9655,-30.1143 26.7791,-48.91224 22.3462,-45.07321 -4.433,3.83902 -18.6823,26.47599 -37.8751,58.51428 -19.1929,32.03829 -43.3349,73.4779 -67.5264,114.9222 -24.1915,41.4443 -48.4326,82.89329 -67.7543,114.95035 -19.3218,32.05706 -33.7186,54.72219 -38.1949,58.59876 -4.4762,3.87656 5.4472,-14.912 22.5418,-45.03526 17.0947,-30.12326 41.3522,-71.58123 65.5645,-113.04347 24.2123,-41.46225 48.3793,-82.92878 65.3748,-113.06916 16.9955,-30.14039 26.8278,-48.95463 22.391,-45.1123 -4.4367,3.84232 -18.8494,26.74127 -38.2156,59.04969 -19.3662,32.30842 -43.6917,74.02631 -67.9253,115.50653 -48.4673,82.96043 -96.5969,164.97015 -103.2806,168.85193 -3.3419,1.94089 7.0254,-17.59109 24.1471,-47.74047 17.1218,-30.14937 40.9905,-70.91614 64.6745,-111.44481 47.368,-81.05735 93.972,-161.16233 85.091,-153.47108 -8.8811,7.69125 -54.9436,86.82579 -100.0774,164.03751 -45.1338,77.21172 -89.3298,152.50063 -93.7352,152.50063 -4.4053,0 39.786,-75.28891 82.6754,-148.65335 42.8894,-73.36444 84.4863,-144.80441 75.5976,-137.10654 -8.8887,7.69788 -50.5076,79.13785 -91.1598,148.65335 -40.6521,69.51551 -80.3293,137.10654 -84.7347,137.10654 -4.4053,0 35.2677,-67.59103 73.6721,-133.25594 38.4043,-65.6649 75.5486,-129.40368 66.6522,-121.69916 -8.8963,7.70452 -46.0603,71.44329 -82.2231,133.25594 -36.1628,61.81264 -71.3173,121.69916 -75.7227,121.69916 -4.4054,0 30.7455,-59.88652 64.6572,-117.84524 33.9116,-57.95872 66.5918,-113.98965 57.6877,-106.27848 -8.904,7.71118 -41.6015,63.74211 -73.2673,117.84524 -31.6658,54.10314 -62.2937,106.27848 -66.6991,106.27848 -4.4054,0 26.2193,-52.17534 55.6306,-102.42122 29.4113,-50.24588 57.6159,-98.5623 48.7042,-90.84445 -8.9118,7.71785 -37.1313,56.03427 -64.2924,102.42122 -27.1611,46.38696 -53.2585,90.84445 -57.6639,90.84445 -4.4054,0 21.6893,-44.45749 46.5925,-86.98385 24.9032,-42.52635 48.6207,-83.12157 39.7012,-75.39703 -8.9195,7.72454 -32.6496,48.31976 -55.2982,86.98385 -22.6487,38.66408 -44.2116,75.39703 -48.617,75.39703 -4.4054,0 17.1553,-36.73295 37.5427,-71.53308 20.3874,-34.80014 39.6063,-67.66746 30.679,-59.93621 -8.9272,7.73126 -28.1563,40.59858 -46.2848,71.53309 -18.1285,30.93451 -35.153,59.9362 -39.5584,59.9362 -4.4054,0 12.6174,-29.0017 28.4812,-56.0689 15.8638,-27.0672 30.5725,-52.1999 21.6375,-44.46192 -8.9351,7.73798 -23.6515,32.87069 -37.2521,56.0689 -13.6005,23.19821 -26.0827,44.46192 -30.4881,44.46192 -4.4054,0 8.0755,-21.26371 19.408,-40.59125 11.3324,-19.32753 21.5193,-36.71888 12.5765,-28.97415 -17.8856,15.48945 -40.7953,69.5654 -49.606,69.5654 -8.8108,0 31.7204,-54.07595 13.8192,-38.57297 -17.9013,15.50298 -22.63,38.57297 -31.4407,38.57297 -8.8108,0 4.5805,-15.31172 4.5805,-15.31172 M 3447.5141,4.875 c 0,0 5.4118,-1.7491255 -12.1247,13.437969 C 3417.8529,33.500063 3443.1087,4.875 3434.298,4.875 c -8.8108,0 -16.4451,28.625059 -33.9963,43.8249 -17.5512,15.199841 25.1855,-43.8249 16.3747,-43.8249 -8.8107,0 -33.9259,59.024737 -51.4918,74.237357 -8.783,7.60631 1.9007,-10.953029 13.6661,-31.413946 C 3390.6161,27.237494 3403.4603,4.875 3399.0549,4.875 c -4.4053,0 -17.2482,22.362493 -31.2029,46.628166 -13.9547,24.265672 -29.0238,50.434524 -37.8141,58.047244 -8.7904,7.61271 6.2867,-18.55614 22.4355,-46.62817 16.1488,-28.072031 33.3654,-58.04724 28.96,-58.04724 -4.4053,0 -21.6202,29.975208 -39.9615,61.855201 -18.3413,31.879993 -37.8126,65.664769 -46.6104,73.283909 -8.7977,7.61914 10.6838,-26.16564 31.2234,-61.855202 20.5396,-35.689562 42.1324,-73.283908 37.727,-73.283908 -4.4054,0 -25.9959,37.594345 -48.7312,77.095084 -22.7354,39.500736 -46.62,80.907876 -55.4252,88.533446 -8.8052,7.62558 15.092,-33.78155 40.0298,-77.095081 C 3324.6231,50.094921 3350.5958,4.875 3346.1904,4.875 c -4.4054,0 -30.3753,45.21992 -57.5121,92.347848 -27.1368,47.127932 -55.4459,96.163862 -64.2586,103.795892 -8.8127,7.63203 19.5114,-41.4039 48.8549,-92.34785 C 3302.618,57.726951 3332.9743,4.875 3328.5689,4.875 c -4.4054,0 -34.7584,52.85195 -66.3041,107.61353 -31.5458,54.76157 -64.2906,111.43277 -73.1107,119.07127 -8.8202,7.63851 23.9419,-49.03269 57.6985,-107.61352 C 3280.6093,65.365452 3315.3528,4.875 3310.9474,4.875 c -4.4054,0 -39.1452,60.490451 -75.1074,122.89215 -35.9622,62.4017 -73.1539,126.71464 -81.9815,134.35963 -8.8277,7.64499 28.3837,-56.66795 66.561,-122.89215 C 3258.5967,73.010441 3297.7313,4.875 3293.3259,4.875 c -4.4054,0 -43.5357,68.13544 -83.9218,138.18375 -40.3861,70.04832 -82.0361,142.0095 -90.8712,149.661 -8.8352,7.65149 32.8368,-64.3097 75.4422,-138.18376 C 3236.5805,80.661934 3280.1097,4.875 3275.7044,4.875 c -4.4054,0 -47.93,75.786933 -92.7475,153.48837 -44.8175,77.70144 -90.937,157.31738 -99.7797,164.97539 -8.8427,7.65801 38.2873,-73.66317 85.3261,-155.19362 23.5194,-40.76522 47.0228,-81.582754 63.5969,-111.356361 16.574,-29.773606 26.2266,-48.5032836 22.0648,-45.092788 -8.3237,6.820991 -55.2875,88.560689 -102.5871,170.511279 -23.6499,40.97529 -47.3759,82.00331 -66.3052,113.74557 -18.9293,31.74227 -33.0562,54.19877 -37.4813,58.03105 -8.8502,7.66455 38.695,-74.30418 86.035,-156.28946 23.67,-40.99264 47.2957,-81.98941 63.8982,-111.788235 16.6024,-29.798822 26.1897,-48.399688 21.8028,-44.600509 -4.3869,3.79918 -18.3639,26.199227 -37.1704,57.90198 -18.8065,31.702754 -42.4481,72.708214 -66.1382,113.718224 -23.69,41.01 -47.4285,82.02455 -66.361,113.74549 -18.9325,31.72094 -33.0536,54.14827 -37.4825,57.98383 -4.4289,3.83555 5.2661,-14.75622 21.9949,-44.56374 16.7288,-29.80751 40.4833,-70.83075 64.1934,-111.85815 23.7102,-41.0274 47.3759,-82.05894 64.0075,-111.88304 16.6315,-29.8241 26.2369,-48.440759 21.8463,-44.638386 -4.3906,3.802373 -18.3894,26.221404 -37.2268,57.951046 -18.8375,31.72964 -42.5192,72.76989 -66.2494,113.81469 -23.7302,41.04481 -47.509,82.09417 -66.4727,113.84205 -18.9637,31.74787 -33.1069,54.19425 -37.5395,58.03309 -4.4327,3.83884 5.2805,-14.7687 22.0386,-44.60151 16.7581,-29.83282 40.553,-70.8909 64.3033,-111.95314 23.7504,-41.06224 47.4563,-82.12864 64.117,-111.97808 16.6607,-29.84944 26.2843,-48.481935 21.89,-44.67636 -4.3943,3.80557 -18.4149,26.24364 -37.2834,58.00023 -18.8685,31.7566 -42.5904,72.83172 -66.3609,113.91142 -23.7706,41.07969 -47.5897,82.16396 -66.5847,113.93883 -18.9949,31.77488 -33.1602,54.24036 -37.5967,58.0825 -4.4365,3.84213 5.2951,-14.78122 22.0826,-44.6394 16.7875,-29.85818 40.6227,-70.95118 64.4134,-112.04835 23.7908,-41.09718 47.5369,-82.19852 64.2269,-112.07337 16.6899,-29.87485 26.3317,-48.52322 21.9337,-44.71443 -4.398,3.80878 -18.4406,26.26593 -37.3402,58.04955 -18.8996,31.78362 -42.6618,72.89371 -66.4727,114.00838 -23.8109,41.11467 -47.6705,82.23393 -66.6968,114.03587 -19.0263,31.80195 -33.2138,54.28658 -37.6542,58.13202 -4.4403,3.84544 5.3098,-14.79376 22.1267,-44.67737 16.817,-29.88361 40.6927,-71.01163 64.5239,-112.14382 23.8311,-41.1322 47.6177,-82.26857 64.3369,-112.1689 16.7193,-29.90032 26.3794,-48.5646 21.9777,-44.7526 -4.4018,3.812 -18.4663,26.28828 -37.3972,58.09899 -18.9308,31.81071 -42.7334,72.95586 -66.5848,114.1056 -23.8514,41.14974 -47.7515,82.30407 -66.8093,114.13316 -19.0577,31.82908 -33.2675,54.33292 -37.7116,58.18167 -4.4442,3.84874 5.3243,-14.80635 22.1708,-44.71545 16.8465,-29.9091 40.7628,-71.07222 64.6345,-112.23953 23.8717,-41.1673 47.6988,-82.3388 64.4474,-112.26466 16.7487,-29.92587 26.427,-48.6061 22.0216,-44.79087 -4.4054,3.81523 -18.4921,26.31068 -37.4541,58.14856 -18.9621,31.83787 -42.8052,73.01816 -66.6972,114.20306 -23.892,41.1849 -47.8329,82.3744 -66.9221,114.23069 -19.0893,31.8563 -33.3214,54.37938 -37.7694,58.23145 -4.4479,3.85207 5.3391,-14.81895 22.2151,-44.75362 16.8761,-29.93466 40.8332,-71.13297 64.7456,-112.33548 23.9123,-41.20251 47.7799,-82.40921 64.558,-112.36068 16.7781,-29.95147 26.4749,-48.64769 22.0657,-44.82923 -4.4091,3.81846 -18.5179,26.33314 -37.5113,58.19825 -18.9935,31.86511 -42.8772,73.08063 -66.8099,114.30077 -23.9326,41.22015 -47.9143,82.44491 -67.0351,114.32848 -19.1209,31.88357 -33.3754,54.42596 -37.8272,58.28135 -4.4518,3.8554 5.3537,-14.83159 22.2595,-44.79188 16.9058,-29.96029 40.9037,-71.19388 64.8568,-112.43168 23.9531,-41.2378 47.8614,-82.47981 64.669,-112.45695 16.8077,-29.97713 26.5229,-48.68939 22.11,-44.86769 -4.413,3.8217 -18.5439,26.35567 -37.5687,58.24807 -19.0249,31.89241 -42.9494,73.14326 -66.9228,114.39874 -23.9735,41.25548 -47.9961,82.51559 -67.1486,114.42651 -19.1525,31.91092 -33.4294,54.47266 -37.8851,58.33139 -4.4557,3.85873 5.3685,-14.84427 22.304,-44.83025 16.9356,-29.98598 40.9744,-71.25494 64.9684,-112.52812 23.9939,-41.27319 47.943,-82.55059 64.7802,-112.55346 16.8373,-30.00287 26.5709,-48.73121 22.1543,-44.90626 -4.4167,3.82496 -18.5698,26.37825 -37.6262,58.29803 -19.0564,31.91977 -43.0216,73.20604 -67.036,114.49695 -24.0144,41.29091 -48.078,82.58646 -67.2623,114.5248 -19.1842,31.93834 -33.4836,54.51947 -37.9432,58.38155 -4.4595,3.86208 5.3833,-14.85698 22.3487,-44.86872 16.9654,-30.01174 41.0452,-71.31616 65.0802,-112.62482 24.0349,-41.30865 48.0248,-82.62154 64.8918,-112.65021 16.8669,-30.02867 26.6191,-48.77313 22.1986,-44.94492 -4.4204,3.82822 -18.5958,26.40088 -37.6838,58.3481 -19.088,31.94722 -43.0941,73.269 -67.1496,114.59543 -24.0554,41.32642 -48.16,82.6575 -67.3761,114.62333 -19.2161,31.96583 -33.5381,54.56642 -38.0015,58.43185 -4.4634,3.86543 5.398,-14.86972 22.3934,-44.90728 16.9953,-30.03757 41.1163,-71.37754 65.1923,-112.72176 24.076,-41.34422 48.1069,-82.69269 65.0036,-112.74723 16.8968,-30.05454 26.6675,-48.81515 22.2433,-44.98367 -4.4242,3.83148 -18.622,26.42357 -37.7416,58.3983 -19.1197,31.97474 -43.1669,73.33211 -67.2634,114.69415 -24.0966,41.36204 -48.2424,82.72874 -67.4905,114.72213 -19.248,31.99339 -33.5926,54.61347 -38.0598,58.48227 -4.4673,3.86879 5.4128,-14.88249 22.4382,-44.94594 17.0253,-30.06346 41.1876,-71.43908 65.3047,-112.81896 24.1172,-41.37988 48.1892,-82.76401 65.1158,-112.84448 16.9265,-30.08048 26.7158,-48.85729 22.2879,-45.02254 -4.428,3.83476 -18.6482,26.44633 -37.7996,58.44865 -19.1514,32.00231 -43.2397,73.39538 -67.3775,114.79312 -24.1378,41.39774 -48.3249,82.80015 -67.6049,114.82118 -19.2801,32.02102 -33.6473,54.66065 -38.1185,58.53282 -4.4712,3.87217 5.4278,-14.89529 22.4832,-44.98471 17.0554,-30.08941 41.259,-71.50077 65.4174,-112.91639 24.1585,-41.41563 48.2717,-82.83552 65.2282,-112.942 16.9565,-30.10647 26.7644,-48.89953 22.3327,-45.06149 -4.4318,3.83803 -18.6744,26.46913 -37.8577,58.49911 -19.1832,32.02997 -43.3128,73.45881 -67.4919,114.89235 -24.1791,41.43354 -48.4077,82.87176 -67.7198,114.92049 -19.3121,32.04872 -33.7021,54.70796 -38.1772,58.5835 -4.475,3.87555 5.4428,-14.90813 22.5283,-45.02357 17.0855,-30.11543 41.3306,-71.56262 65.5305,-113.01409 24.1998,-41.45147 48.3543,-82.90721 65.3408,-113.03976 16.9865,-30.13254 26.8132,-48.94189 22.3776,-45.10056 -4.4356,3.84134 -18.7007,26.49201 -37.9159,58.54971 -19.2151,32.0577 -43.3861,73.52242 -67.6066,114.99185 -24.2205,41.46942 -48.4907,82.94354 -67.8349,115.02005 -19.3443,32.0765 -33.7571,54.75538 -38.2361,58.63432 -4.479,3.87894 5.4577,-14.921 22.5735,-45.06253 17.1158,-30.14153 41.4024,-71.62464 65.6437,-113.11205 24.2413,-41.4874 48.4373,-82.97909 65.4539,-113.13777 17.0166,-30.15868 26.862,-48.98436 22.4226,-45.13972 -4.4394,3.84463 -18.5024,26.12826 -37.2696,57.39109 -18.7672,31.26283 -42.2441,71.50488 -65.4835,111.26634 -46.4789,79.52292 -92.032,157.12353 -96.4373,157.12353 -4.4054,0 41.1428,-77.60061 85.3783,-153.27725 44.2355,-75.67664 87.1681,-149.4293 78.2817,-141.73342 -8.8864,7.69589 -51.8417,81.44855 -93.8412,153.27725 -41.9996,71.8287 -83.035,141.73342 -87.4403,141.73342 -4.4054,0 36.6257,-69.90473 76.3785,-137.88382 39.7528,-67.9791 78.2361,-134.03256 69.3421,-126.33004 -8.8941,7.70252 -47.3979,73.75598 -84.9104,137.88382 -37.5125,64.12783 -74.0264,126.33004 -78.4318,126.33004 -4.4053,0 32.1047,-62.20221 67.3671,-122.47712 35.2624,-60.27491 69.2852,-118.62253 60.3834,-110.91336 -8.9018,7.70918 -42.9425,66.0568 -75.9603,122.47712 -33.0178,56.42033 -65.0063,110.91336 -69.4117,110.91336 -4.4053,0 27.5797,-54.49303 58.3441,-107.05711 30.7643,-52.56407 60.3149,-103.19918 51.4055,-95.48334 -8.9095,7.71585 -38.4757,58.35096 -66.9912,107.05711 -28.5154,48.70615 -55.9745,95.48334 -60.3799,95.48334 -4.4054,0 23.0509,-46.77719 49.3094,-91.62375 26.2586,-44.84655 51.3256,-87.76248 42.4084,-80.03994 -8.9172,7.72253 -33.9974,50.63845 -58.0027,91.62374 -24.0054,40.98529 -46.9312,80.03995 -51.3366,80.03995 -4.4054,0 18.5181,-39.05466 40.2631,-76.17701 21.7451,-37.12235 42.3169,-72.31239 33.392,-64.58315 -8.9249,7.72924 -29.5076,42.91928 -48.9951,76.17701 -19.4875,33.25773 -37.8761,64.58315 -42.2815,64.58315 -4.4054,0 13.9813,-31.32542 31.2052,-60.71685 17.2238,-29.39143 33.2889,-56.84887 24.3562,-49.11291 -8.9327,7.73596 -25.0063,35.1934 -39.9682,60.71685 -14.9618,25.52345 -28.8093,49.11291 -33.2147,49.11291 -4.4054,0 9.4406,-23.58946 22.1355,-45.24325 12.6948,-21.65378 24.2416,-41.37189 15.3011,-33.62919 -17.881,15.48541 -46.2474,78.87244 -55.0581,78.87244 -8.8108,0 37.1772,-63.38704 19.2806,-47.88812 -17.8965,15.49892 -28.0914,47.88812 -36.9021,47.88812 -8.8108,0 19.0056,-32.3892 1.0934,-16.87673 -17.9122,15.51248 -14.3096,16.87673 -14.3096,16.87673"
       id="path6371"
       inkscape:path-effect="#path-effect6436"
       inkscape:original-d="m 461.59321,4.875 -912.49892,790.25 189.3125,0 912.49892,-790.25 -189.3125,0 z m 400,0 -912.498923,790.25 189.312503,0 912.49891,-790.25 -189.31249,0 z m 400.00009,0 C 957.42686,268.29167 653.26059,531.70833 349.09429,795.125 l 189.3125,0 C 842.57309,531.70833 1146.7395,268.29167 1450.9057,4.875 l -189.3124,0 z m 400,0 c -304.1664,263.41667 -608.3327,526.83333 -912.49901,790.25 l 189.31245,0 C 1242.5731,531.70833 1546.7394,268.29167 1850.9057,4.875 l -189.3124,0 z m 400,0 c -304.1664,263.41667 -608.3327,526.83333 -912.499,790.25 l 189.3124,0 c 304.1664,-263.41667 608.3327,-526.83333 912.499,-790.25 l -189.3124,0 z m 400,0 c -304.1664,263.41667 -608.3327,526.83333 -912.499,790.25 l 189.3124,0 c 304.1665,-263.41667 608.3327,-526.83333 912.499,-790.25 l -189.3124,0 z m 400,0 c -304.1664,263.41667 -608.3327,526.83333 -912.499,790.25 l 189.3124,0 c 304.1664,-263.41667 608.3327,-526.83333 912.499,-790.25 l -189.3124,0 z m 400,0 c -304.1664,263.41667 -608.3328,526.83333 -912.499,790.25 l 189.3124,0 c 304.1664,-263.41667 608.3328,-526.83333 912.499,-790.25 l -189.3124,0 z"
       inkscape:connector-curvature="0" />
  </g>
</svg>
