<?xml version="1.0"?>
<svg xmlns:rdf="http://www.w3.org/1999/02/22-rdf-syntax-ns#" xmlns="http://www.w3.org/2000/svg" xmlns:cc="http://creativecommons.org/ns#" xmlns:xlink="http://www.w3.org/1999/xlink" xmlns:dc="http://purl.org/dc/elements/1.1/" id="svg2" viewBox="0 0 300 200" version="1.1">
  <defs id="defs4">
    <filter id="filter3834">
      <feGaussianBlur id="feGaussianBlur3836" stdDeviation="2.7649219"/>
    </filter>
    <filter id="filter3838">
      <feGaussianBlur id="feGaussianBlur3840" stdDeviation="2.7649219"/>
    </filter>
    <clipPath id="clipPath3848" clipPathUnits="userSpaceOnUse">
      <path id="path3850" d="m53.531 872.24-13.062 1.375v21.188h-15.344v-22.406l-13 1.2188v58.75l13-1.3125v-22.969h15.344v24.281l13.062-1.3125v-58.812zm162.44 13.625-9 25.406-9.0625-25.094-11.531 2.9062 14.5 36.844-8.0312 18.125 12.125 1.9375 22.312-56.906-11.312-3.2188zm-96.094 1.0312c-3.9447 0.093-7.3793 1.8537-10.281 5.2812v-5.1562l-10.812 1.2188v58.188l11.656-1.2812v-16.438c0.64923 0.66229 1.808 1.5008 3.5 2.5 1.6526 1.0457 3.5065 1.5785 5.5625 1.625h0.125c3.502 0 6.7826-1.0969 9.8125-3.2812 3.02-2.1379 5.3936-5.0057 7.125-8.625 1.7313-3.6193 2.5937-7.4566 2.5938-11.5-0.0394-4.1944-0.97125-8.0259-2.7812-11.5-1.8199-3.416-4.215-6.1265-7.1562-8.125-2.8626-1.952-5.877-2.9062-9.0938-2.9062-0.0787 0.00004-0.1615 0.00004-0.25 0zm45.094 0c-3.9447 0.093-7.3793 1.8537-10.281 5.2812v-5.1562l-10.812 1.2188v58.188l11.656-1.2812v-16.438c0.64923 0.66229 1.808 1.5008 3.5 2.5 1.6526 1.0457 3.5065 1.5785 5.5625 1.625h0.125c3.502 0 6.7826-1.0969 9.8125-3.2812 3.02-2.1379 5.3936-5.0057 7.125-8.625 1.7313-3.6193 2.5937-7.4566 2.5938-11.5-0.0394-4.1944-0.97127-8.0259-2.7812-11.5-1.8199-3.416-4.215-6.1265-7.1562-8.125-2.8626-1.952-5.877-2.9062-9.0938-2.9062-0.0787 0.00004-0.1614 0.00004-0.25 0zm-87.812 0.125c-1.4067 0.0465-2.8485 0.22118-4.3438 0.5-1.5248 0.29051-3.036 0.61661-4.5312 1-1.4854 0.38346-2.2865 0.62585-2.375 0.71875l-2.0938 12.125c0.28527-0.33692 1.598-1.0168 3.9688-2.0625 2.3412-1.0457 4.3705-1.5624 6.0625-1.5625 0.11803 0.00005 0.2471 0.00005 0.375 0 2.1346 0.00005 3.6841 0.34216 4.6875 1.0625 1.0427 0.80174 1.761 1.994 2.125 3.5625 0.24591 0.99925 0.37498 2.3902 0.375 4.1562-0.0099-0.0116-0.37566-0.3333-1.0938-0.9375-0.72797-0.62741-1.6598-1.1959-2.7812-1.7188-1.1706-0.52283-2.4915-0.79725-3.9375-0.84375-0.49188 0.00003-0.71877 0.00003-0.71875 0-2.2921 0.00003-4.429 0.56848-6.4062 1.7188-2.2134 1.2781-3.9463 3.0548-5.1562 5.3438-1.2493 2.2774-1.875 4.8292-1.875 7.6875-0.000003 3.0907 0.62568 5.7576 1.875 8 1.21 2.289 2.8966 4.0496 5.0312 5.2812 2.0166 1.1851 4.1998 1.7812 6.5312 1.7812h0.25c1.6526-0.0465 3.1176-0.35295 4.4062-0.96875 1.2493-0.56934 2.2871-1.2171 3.0938-1.9375 0.76727-0.66228 1.125-1.0793 1.125-1.2188v3.6562l10.406-1.4375v-29.688c-0.000036-3.3346-0.69026-6.0648-2.0625-8.1562-1.3723-2.0914-3.1848-3.6418-5.4375-4.6875-2.0953-0.90623-4.3613-1.375-6.7812-1.375-0.23611 0.00004-0.47284 0.00004-0.71875 0zm41.312 12.062c0.36395 0.0002 0.7529 0.016 1.1562 0.0625 1.6133 0.18595 3.0551 0.81771 4.3438 1.875 1.2493 1.0922 2.2275 2.4795 2.9062 4.1875 0.53118 1.4756 0.78122 3.0412 0.78125 4.6562-0.00003 0.58097-0.00003 0.87502 0 0.875-0.12791 2.7072-1.0962 5.0168-2.9062 6.9688-1.8101 1.952-3.947 2.9375-6.4062 2.9375-2.5773-0.0465-4.7293-1.3064-6.5-3.7812-1.6133-2.1379-2.4375-4.5303-2.4375-7.1562 0-0.32531 0.0232-0.67906 0.0625-1.0625 0.19674-1.952 0.77611-3.6966 1.75-5.2188 0.92467-1.4756 2.1396-2.5929 3.625-3.4062 1.1706-0.61577 2.3757-0.93748 3.625-0.9375zm45.094 0c0.36396 0.0002 0.75289 0.016 1.1562 0.0625 1.6133 0.18595 3.055 0.81771 4.3438 1.875 1.2493 1.0922 2.2275 2.4795 2.9062 4.1875 0.53117 1.4756 0.78122 3.0412 0.78125 4.6562-0.00003 0.58097-0.00003 0.87502 0 0.875-0.12792 2.7072-1.0962 5.0168-2.9062 6.9688s-3.947 2.9375-6.4062 2.9375c-2.5774-0.0465-4.7293-1.3064-6.5-3.7812-1.6133-2.1379-2.4375-4.5303-2.4375-7.1562 0-0.32531 0.0232-0.67906 0.0625-1.0625 0.19673-1.952 0.77612-3.6966 1.75-5.2188 0.92467-1.4756 2.1396-2.5929 3.625-3.4062 1.1706-0.61577 2.3757-0.93748 3.625-0.9375zm-87.969 12.844h0.25c1.4952 0.00001 2.7385 0.50078 3.7812 1.5 1.0919 1.0922 1.6562 2.4992 1.6562 4.2188-0.000024 1.7661-0.51805 3.1054-1.5312 4-1.0428 0.90628-2.3173 1.3438-3.8125 1.3438-1.7707 0-3.176-0.5328-4.2188-1.625-0.97389-0.95274-1.4375-2.2127-1.4375-3.7812-0.000012-0.0929-0.000012-0.20792 0-0.3125 0.03933-1.5221 0.57242-2.782 1.625-3.7812 1.0034-0.95273 2.2316-1.4696 3.6875-1.5625zm-63.469 47.062v62.594l7.8438-1.2812v-28.188l19.156 32.25v-63.031l-7.7188 1.5v29.062l-19.278-32.94zm214.97 0.125-8.0938 1.6562 0.625 40.969 6.875-1.375 0.59375-41.25zm-103.69 1.5-7.9375 5.5625 11.812 35.438-5.625 20.125 8.375 3.0625 15.375-58.75-7.75-4.8438-6.0625 25.188-8.1875-25.781zm-38.438 13.625-5.6875 22.344-3.6562-20.312-7.1562 1.5 10.281 44.594 6.0625-23.969 6.25 24.406 10.344-45.469-7.1562-1.0625-3.6875 19.625-5.5938-21.656zm-29.594 1.875c-0.50714 0.00004-1.0306 0.0634-1.5625 0.15625-2.078 0.42995-3.949 1.7219-5.625 3.9062-1.6698 2.1844-2.9724 4.9627-3.9062 8.3438-0.91531 3.3347-1.375 6.856-1.375 10.562v0.3125c0.02474 4.2875 0.60896 8.1509 1.75 11.625s2.7146 6.1846 4.6875 8.125c1.9048 1.952 3.9741 2.9375 6.25 2.9375h0.15625c1.5647-0.047 3.0775-0.5633 4.5-1.5625 1.3915-0.9992 2.5088-1.9847 3.3438-2.9375 0.83488-0.9528 1.416-1.6798 1.75-2.1562l-3.6562-10.469c-0.000021 0.1046-0.28749 0.5261-0.875 1.2813-0.58136 0.7669-1.2836 1.4627-2.0938 2.125-0.83493 0.6622-1.6586 1.099-2.4688 1.25-0.17937 0.0001-0.35159 0.0001-0.5 0-1.1441 0.0001-2.0189-0.294-2.625-0.875-0.73597-0.6623-1.2022-1.2424-1.4062-1.7188l14.625-17.281c-0.14845-0.66225-0.44862-1.6798-0.90625-3.0625-0.45768-1.3826-1.1729-2.9686-2.1562-4.7812-0.98954-1.7544-2.2924-3.2567-3.9375-4.5-1.2431-0.84814-2.5772-1.2812-3.9688-1.2812zm105.31 0c-0.50714 0.00004-1.0306 0.0634-1.5625 0.15625-2.078 0.42995-3.949 1.7219-5.625 3.9062-1.6698 2.1844-2.9724 4.9627-3.9062 8.3438-0.91532 3.3347-1.375 6.856-1.375 10.562v0.3125c0.0247 4.2875 0.60896 8.1509 1.75 11.625s2.7146 6.1846 4.6875 8.125c1.9048 1.952 3.9741 2.9375 6.25 2.9375h0.15625c1.5647-0.047 3.0775-0.5633 4.5-1.5625 1.3915-0.9992 2.5088-1.9847 3.3438-2.9375 0.83488-0.9528 1.416-1.6798 1.75-2.1562l-3.65-10.4c-0.00002 0.1046-0.28749 0.5261-0.875 1.2813-0.58136 0.7669-1.2836 1.4627-2.0938 2.125-0.83493 0.6622-1.6586 1.099-2.4688 1.25-0.17936 0.0001-0.35158 0.0001-0.5 0-1.1442 0.0001-2.0189-0.294-2.625-0.875-0.73597-0.6623-1.2022-1.2424-1.4062-1.7188l14.625-17.281c-0.14846-0.66225-0.44862-1.6798-0.90625-3.0625-0.45768-1.3826-1.1729-2.9686-2.1562-4.7812-0.98954-1.7544-2.2924-3.2567-3.9375-4.5-1.2431-0.84814-2.5772-1.2812-3.9688-1.2812zm25.625 0.15625c-0.88439 0.0465-1.81 0.18994-2.75 0.46875-0.95861 0.29051-1.9037 0.64786-2.8438 1.0312-0.93387 0.38347-1.4443 0.5946-1.5 0.6875l-1.3125 12.156c0.17935-0.33692 1.0095-1.048 2.5-2.0938 1.4719-1.0457 2.7488-1.5625 3.8125-1.5625 0.0742 0.00003 0.13835 0.00003 0.21875 0 1.342 0.00003 2.3379 0.37341 2.9688 1.0938 0.65554 0.80174 1.0837 1.9627 1.3125 3.5312 0.15463 0.99927 0.24998 2.3902 0.25 4.1562-0.006-0.0116-0.23604-0.30203-0.6875-0.90625-0.45766-0.62739-1.045-1.2271-1.75-1.75-0.73597-0.52283-1.5596-0.79725-2.4688-0.84375-0.30923 0.00002-0.46876 0.00002-0.46875 0-1.441 0.00002-2.7882 0.5685-4.0312 1.7188-1.3915 1.2781-2.4581 3.0548-3.2188 5.3438-0.78544 2.2774-1.1875 4.8605-1.1875 7.7187 0 3.0907 0.40206 5.7575 1.1875 8 0.76069 2.289 1.8142 4.0497 3.1562 5.2813 1.2678 1.1852 2.628 1.7812 4.0938 1.7812h0.15625c1.039-0.047 1.9711-0.3842 2.7812-1 0.78542-0.5693 1.4304-1.2171 1.9375-1.9375 0.48238-0.6623 0.71874-1.0481 0.71875-1.1875v3.625l6.5312-1.4375v-29.687c-0.00002-3.3346-0.41853-6.0335-1.2812-8.125-0.86276-2.0914-2.0213-3.673-3.4375-4.7188-1.3173-0.90625-2.7286-1.3437-4.25-1.3438-0.14844 0.00004-0.2829 0.00004-0.4375 0zm21.125 0.125-7.0625 1.625v43.781l7.5625-1.375v-18.125c0-0.9992-0.013-1.7111-0.0625-2.1875 0.0495-2.5678 0.23471-4.6698 0.5625-6.25 0.33396-1.522 1.0235-2.5556 2.0625-3.125 0.58133-0.27883 1.1048-0.40622 1.5625-0.40625 0.32777 0.0002 0.57714 0.016 0.78125 0.0625 0.19789 0.0929 0.3193 0.17225 0.375 0.21875l2.3125-13.656c-0.12371-0.0464-0.32848-0.11416-0.65625-0.21875-0.33397-0.0465-0.72302-0.0625-1.125-0.0625-1.3173 0.00004-2.5496 0.63181-3.6875 1.875-1.1689 1.2317-2.0437 2.913-2.625 5.0625v-7.2188zm-152.2 11.29c0.7112 0.00003 1.3301 0.16309 1.8125 0.5 0.45145 0.32537 0.75813 0.59977 0.9375 0.84375l-8.3125 9.7812c-0.000009-2.9047 0.53652-5.4726 1.625-7.75 1.0637-2.2424 2.3666-3.375 3.9375-3.375zm105.31 0c0.7112 0.00003 1.2988 0.16309 1.7812 0.5 0.45145 0.32537 0.78938 0.59977 0.96875 0.84375l-8.3438 9.7812c-0.00001-2.9047 0.56777-5.4726 1.6562-7.75 1.0637-2.2424 2.3666-3.375 3.9375-3.375zm24.781 13.5c0.0989 0.0001 0.15624 0.0001 0.15625 0 0.94004 0.0001 1.7194 0.5008 2.375 1.5 0.68646 1.0922 1.0312 2.4679 1.0312 4.1875-0.00002 1.7661-0.30051 3.1054-0.9375 4-0.65557 0.9063-1.4662 1.3751-2.4062 1.375-1.1132 0.0001-2.0007-0.5641-2.6562-1.6563-0.61228-0.9528-0.90625-2.2126-0.90625-3.7812v-0.2813c0.0247-1.5221 0.3695-2.7819 1.0312-3.7812 0.63081-0.9527 1.3972-1.4695 2.3125-1.5625zm37.875 1.7187-5.125 9.7813 5.125 9.5625 5.0312-9.7188-5.0312-9.625z" fill="#06f"/>
    </clipPath>
  </defs>
  <g id="layer1" transform="translate(0 -852.36)">
    <g id="g4652" transform="matrix(1.2455 0 0 1 -2.6089 0)">
      <path id="path3000" fill="#06f" d="m53.531 872.24-13.062 1.375v21.188h-15.344v-22.406l-13 1.2188v58.75l13-1.3125v-22.969h15.344v24.281l13.062-1.3125v-58.812zm162.44 13.625-9 25.406-9.0625-25.094-11.531 2.9062 14.5 36.844-8.0312 18.125 12.125 1.9375 22.312-56.906-11.312-3.2188zm-96.094 1.0312c-3.9447 0.093-7.3793 1.8537-10.281 5.2812v-5.1562l-10.812 1.2188v58.188l11.656-1.2812v-16.438c0.64923 0.66229 1.808 1.5008 3.5 2.5 1.6526 1.0457 3.5065 1.5785 5.5625 1.625h0.125c3.502 0 6.7826-1.0969 9.8125-3.2812 3.02-2.1379 5.3936-5.0057 7.125-8.625 1.7313-3.6193 2.5937-7.4566 2.5938-11.5-0.0394-4.1944-0.97125-8.0259-2.7812-11.5-1.8199-3.416-4.215-6.1265-7.1562-8.125-2.8626-1.952-5.877-2.9062-9.0938-2.9062-0.0787 0.00004-0.1615 0.00004-0.25 0zm45.094 0c-3.9447 0.093-7.3793 1.8537-10.281 5.2812v-5.1562l-10.812 1.2188v58.188l11.656-1.2812v-16.438c0.64923 0.66229 1.808 1.5008 3.5 2.5 1.6526 1.0457 3.5065 1.5785 5.5625 1.625h0.125c3.502 0 6.7826-1.0969 9.8125-3.2812 3.02-2.1379 5.3936-5.0057 7.125-8.625 1.7313-3.6193 2.5937-7.4566 2.5938-11.5-0.0394-4.1944-0.97127-8.0259-2.7812-11.5-1.8199-3.416-4.215-6.1265-7.1562-8.125-2.8626-1.952-5.877-2.9062-9.0938-2.9062-0.0787 0.00004-0.1614 0.00004-0.25 0zm-87.812 0.125c-1.4067 0.0465-2.8485 0.22118-4.3438 0.5-1.5248 0.29051-3.036 0.61661-4.5312 1-1.4854 0.38346-2.2865 0.62585-2.375 0.71875l-2.0938 12.125c0.28527-0.33692 1.598-1.0168 3.9688-2.0625 2.3412-1.0457 4.3705-1.5624 6.0625-1.5625 0.11803 0.00005 0.2471 0.00005 0.375 0 2.1346 0.00005 3.6841 0.34216 4.6875 1.0625 1.0427 0.80174 1.761 1.994 2.125 3.5625 0.24591 0.99925 0.37498 2.3902 0.375 4.1562-0.0099-0.0116-0.37566-0.3333-1.0938-0.9375-0.72797-0.62741-1.6598-1.1959-2.7812-1.7188-1.1706-0.52283-2.4915-0.79725-3.9375-0.84375-0.49188 0.00003-0.71877 0.00003-0.71875 0-2.2921 0.00003-4.429 0.56848-6.4062 1.7188-2.2134 1.2781-3.9463 3.0548-5.1562 5.3438-1.2493 2.2774-1.875 4.8292-1.875 7.6875-0.000003 3.0907 0.62568 5.7576 1.875 8 1.21 2.289 2.8966 4.0496 5.0312 5.2812 2.0166 1.1851 4.1998 1.7812 6.5312 1.7812h0.25c1.6526-0.0465 3.1176-0.35295 4.4062-0.96875 1.2493-0.56934 2.2871-1.2171 3.0938-1.9375 0.76727-0.66228 1.125-1.0793 1.125-1.2188v3.6562l10.406-1.4375v-29.688c-0.000036-3.3346-0.69026-6.0648-2.0625-8.1562-1.3723-2.0914-3.1848-3.6418-5.4375-4.6875-2.0953-0.90623-4.3613-1.375-6.7812-1.375-0.23611 0.00004-0.47284 0.00004-0.71875 0zm41.312 12.062c0.36395 0.0002 0.7529 0.016 1.1562 0.0625 1.6133 0.18595 3.0551 0.81771 4.3438 1.875 1.2493 1.0922 2.2275 2.4795 2.9062 4.1875 0.53118 1.4756 0.78122 3.0412 0.78125 4.6562-0.00003 0.58097-0.00003 0.87502 0 0.875-0.12791 2.7072-1.0962 5.0168-2.9062 6.9688-1.8101 1.952-3.947 2.9375-6.4062 2.9375-2.5773-0.0465-4.7293-1.3064-6.5-3.7812-1.6133-2.1379-2.4375-4.5303-2.4375-7.1562 0-0.32531 0.0232-0.67906 0.0625-1.0625 0.19674-1.952 0.77611-3.6966 1.75-5.2188 0.92467-1.4756 2.1396-2.5929 3.625-3.4062 1.1706-0.61577 2.3757-0.93748 3.625-0.9375zm45.094 0c0.36396 0.0002 0.75289 0.016 1.1562 0.0625 1.6133 0.18595 3.055 0.81771 4.3438 1.875 1.2493 1.0922 2.2275 2.4795 2.9062 4.1875 0.53117 1.4756 0.78122 3.0412 0.78125 4.6562-0.00003 0.58097-0.00003 0.87502 0 0.875-0.12792 2.7072-1.0962 5.0168-2.9062 6.9688s-3.947 2.9375-6.4062 2.9375c-2.5774-0.0465-4.7293-1.3064-6.5-3.7812-1.6133-2.1379-2.4375-4.5303-2.4375-7.1562 0-0.32531 0.0232-0.67906 0.0625-1.0625 0.19673-1.952 0.77612-3.6966 1.75-5.2188 0.92467-1.4756 2.1396-2.5929 3.625-3.4062 1.1706-0.61577 2.3757-0.93748 3.625-0.9375zm-87.969 12.844h0.25c1.4952 0.00001 2.7385 0.50078 3.7812 1.5 1.0919 1.0922 1.6562 2.4992 1.6562 4.2188-0.000024 1.7661-0.51805 3.1054-1.5312 4-1.0428 0.90628-2.3173 1.3438-3.8125 1.3438-1.7707 0-3.176-0.5328-4.2188-1.625-0.97389-0.95274-1.4375-2.2127-1.4375-3.7812-0.000012-0.0929-0.000012-0.20792 0-0.3125 0.03933-1.5221 0.57242-2.782 1.625-3.7812 1.0034-0.95273 2.2316-1.4696 3.6875-1.5625zm-63.469 47.062v62.594l7.8438-1.2812v-28.188l19.156 32.25v-63.031l-7.7188 1.5v29.062l-19.278-32.94zm214.97 0.125-8.0938 1.6562 0.625 40.969 6.875-1.375 0.59375-41.25zm-103.69 1.5-7.9375 5.5625 11.812 35.438-5.625 20.125 8.375 3.0625 15.375-58.75-7.75-4.8438-6.0625 25.188-8.1875-25.781zm-38.438 13.625-5.6875 22.344-3.6562-20.312-7.1562 1.5 10.281 44.594 6.0625-23.969 6.25 24.406 10.344-45.469-7.1562-1.0625-3.6875 19.625-5.5938-21.656zm-29.594 1.875c-0.50714 0.00004-1.0306 0.0634-1.5625 0.15625-2.078 0.42995-3.949 1.7219-5.625 3.9062-1.6698 2.1844-2.9724 4.9627-3.9062 8.3438-0.91531 3.3347-1.375 6.856-1.375 10.562v0.3125c0.02474 4.2875 0.60896 8.1509 1.75 11.625s2.7146 6.1846 4.6875 8.125c1.9048 1.952 3.9741 2.9375 6.25 2.9375h0.15625c1.5647-0.047 3.0775-0.5633 4.5-1.5625 1.3915-0.9992 2.5088-1.9847 3.3438-2.9375 0.83488-0.9528 1.416-1.6798 1.75-2.1562l-3.6562-10.469c-0.000021 0.1046-0.28749 0.5261-0.875 1.2813-0.58136 0.7669-1.2836 1.4627-2.0938 2.125-0.83493 0.6622-1.6586 1.099-2.4688 1.25-0.17937 0.0001-0.35159 0.0001-0.5 0-1.1441 0.0001-2.0189-0.294-2.625-0.875-0.73597-0.6623-1.2022-1.2424-1.4062-1.7188l14.625-17.281c-0.14845-0.66225-0.44862-1.6798-0.90625-3.0625-0.45768-1.3826-1.1729-2.9686-2.1562-4.7812-0.98954-1.7544-2.2924-3.2567-3.9375-4.5-1.2431-0.84814-2.5772-1.2812-3.9688-1.2812zm105.31 0c-0.50714 0.00004-1.0306 0.0634-1.5625 0.15625-2.078 0.42995-3.949 1.7219-5.625 3.9062-1.6698 2.1844-2.9724 4.9627-3.9062 8.3438-0.91532 3.3347-1.375 6.856-1.375 10.562v0.3125c0.0247 4.2875 0.60896 8.1509 1.75 11.625s2.7146 6.1846 4.6875 8.125c1.9048 1.952 3.9741 2.9375 6.25 2.9375h0.15625c1.5647-0.047 3.0775-0.5633 4.5-1.5625 1.3915-0.9992 2.5088-1.9847 3.3438-2.9375 0.83488-0.9528 1.416-1.6798 1.75-2.1562l-3.65-10.4c-0.00002 0.1046-0.28749 0.5261-0.875 1.2813-0.58136 0.7669-1.2836 1.4627-2.0938 2.125-0.83493 0.6622-1.6586 1.099-2.4688 1.25-0.17936 0.0001-0.35158 0.0001-0.5 0-1.1442 0.0001-2.0189-0.294-2.625-0.875-0.73597-0.6623-1.2022-1.2424-1.4062-1.7188l14.625-17.281c-0.14846-0.66225-0.44862-1.6798-0.90625-3.0625-0.45768-1.3826-1.1729-2.9686-2.1562-4.7812-0.98954-1.7544-2.2924-3.2567-3.9375-4.5-1.2431-0.84814-2.5772-1.2812-3.9688-1.2812zm25.625 0.15625c-0.88439 0.0465-1.81 0.18994-2.75 0.46875-0.95861 0.29051-1.9037 0.64786-2.8438 1.0312-0.93387 0.38347-1.4443 0.5946-1.5 0.6875l-1.3125 12.156c0.17935-0.33692 1.0095-1.048 2.5-2.0938 1.4719-1.0457 2.7488-1.5625 3.8125-1.5625 0.0742 0.00003 0.13835 0.00003 0.21875 0 1.342 0.00003 2.3379 0.37341 2.9688 1.0938 0.65554 0.80174 1.0837 1.9627 1.3125 3.5312 0.15463 0.99927 0.24998 2.3902 0.25 4.1562-0.006-0.0116-0.23604-0.30203-0.6875-0.90625-0.45766-0.62739-1.045-1.2271-1.75-1.75-0.73597-0.52283-1.5596-0.79725-2.4688-0.84375-0.30923 0.00002-0.46876 0.00002-0.46875 0-1.441 0.00002-2.7882 0.5685-4.0312 1.7188-1.3915 1.2781-2.4581 3.0548-3.2188 5.3438-0.78544 2.2774-1.1875 4.8605-1.1875 7.7187 0 3.0907 0.40206 5.7575 1.1875 8 0.76069 2.289 1.8142 4.0497 3.1562 5.2813 1.2678 1.1852 2.628 1.7812 4.0938 1.7812h0.15625c1.039-0.047 1.9711-0.3842 2.7812-1 0.78542-0.5693 1.4304-1.2171 1.9375-1.9375 0.48238-0.6623 0.71874-1.0481 0.71875-1.1875v3.625l6.5312-1.4375v-29.687c-0.00002-3.3346-0.41853-6.0335-1.2812-8.125-0.86276-2.0914-2.0213-3.673-3.4375-4.7188-1.3173-0.90625-2.7286-1.3437-4.25-1.3438-0.14844 0.00004-0.2829 0.00004-0.4375 0zm21.125 0.125-7.0625 1.625v43.781l7.5625-1.375v-18.125c0-0.9992-0.013-1.7111-0.0625-2.1875 0.0495-2.5678 0.23471-4.6698 0.5625-6.25 0.33396-1.522 1.0235-2.5556 2.0625-3.125 0.58133-0.27883 1.1048-0.40622 1.5625-0.40625 0.32777 0.0002 0.57714 0.016 0.78125 0.0625 0.19789 0.0929 0.3193 0.17225 0.375 0.21875l2.3125-13.656c-0.12371-0.0464-0.32848-0.11416-0.65625-0.21875-0.33397-0.0465-0.72302-0.0625-1.125-0.0625-1.3173 0.00004-2.5496 0.63181-3.6875 1.875-1.1689 1.2317-2.0437 2.913-2.625 5.0625v-7.2188zm-152.2 11.29c0.7112 0.00003 1.3301 0.16309 1.8125 0.5 0.45145 0.32537 0.75813 0.59977 0.9375 0.84375l-8.3125 9.7812c-0.000009-2.9047 0.53652-5.4726 1.625-7.75 1.0637-2.2424 2.3666-3.375 3.9375-3.375zm105.31 0c0.7112 0.00003 1.2988 0.16309 1.7812 0.5 0.45145 0.32537 0.78938 0.59977 0.96875 0.84375l-8.3438 9.7812c-0.00001-2.9047 0.56777-5.4726 1.6562-7.75 1.0637-2.2424 2.3666-3.375 3.9375-3.375zm24.781 13.5c0.0989 0.0001 0.15624 0.0001 0.15625 0 0.94004 0.0001 1.7194 0.5008 2.375 1.5 0.68646 1.0922 1.0312 2.4679 1.0312 4.1875-0.00002 1.7661-0.30051 3.1054-0.9375 4-0.65557 0.9063-1.4662 1.3751-2.4062 1.375-1.1132 0.0001-2.0007-0.5641-2.6562-1.6563-0.61228-0.9528-0.90625-2.2126-0.90625-3.7812v-0.2813c0.0247-1.5221 0.3695-2.7819 1.0312-3.7812 0.63081-0.9527 1.3972-1.4695 2.3125-1.5625zm37.875 1.7187-5.125 9.7813 5.125 9.5625 5.0312-9.7188-5.0312-9.625z"/>
      <g id="g3842" clip-path="url(#clipPath3848)">
        <path id="path3040" filter="url(#filter3834)" d="m52.031 871.24-13.062 1.375v21.188h-11.344v4h15.344v-21.188l9.0625-0.96875v-4.4062zm-28.406 0.15625-13 1.2188v58.75l4-0.40625v-54.344l9-0.84375v-4.375zm190.84 13.469-7.75 21.844 2.75 7.5625 9-25.406 6.3125 1.7812 1-2.5625-11.312-3.2188zm-18.062 0.3125-11.531 2.9062 14.5 36.844-8.0312 18.125 5.4062 0.875 6.625-15-14.5-36.844 9.1875-2.3125-1.6562-4.5938zm-78.031 0.71875c-3.6291 0.0856-6.8144 1.592-9.5625 4.5l3.2812-0.375v5.1562c2.9019-3.4276 6.3365-5.1882 10.281-5.2812 0.0885 0.00004 0.1713 0.00004 0.25 0 3.2167 0.00004 6.2311 0.9543 9.0938 2.9062 0.33112 0.22499 0.65152 0.44447 0.96875 0.6875-1.4229-1.8493-3.0951-3.4144-4.9688-4.6875-2.8626-1.952-5.877-2.9062-9.0938-2.9062-0.0787 0.00004-0.1615 0.00004-0.25 0zm45.094 0c-3.6291 0.0856-6.8144 1.592-9.5625 4.5l3.2812-0.375v5.1562c2.9019-3.4276 6.3366-5.1882 10.281-5.2812 0.0886 0.00004 0.1713 0.00004 0.25 0 3.2167 0.00004 6.2311 0.9543 9.0938 2.9062 0.33112 0.22499 0.65152 0.44447 0.96875 0.6875-1.4229-1.8493-3.0951-3.4144-4.9688-4.6875-2.8626-1.952-5.877-2.9062-9.0938-2.9062-0.0787 0.00004-0.1614 0.00004-0.25 0zm-87.812 0.125c-1.4067 0.0465-2.8485 0.22118-4.3438 0.5-1.5248 0.29051-3.036 0.61661-4.5312 1-1.4854 0.38346-2.2865 0.62585-2.375 0.71875l-2.0938 12.125c0.28527-0.33692 1.598-1.0168 3.9688-2.0625 0.40076-0.17899 0.7739-0.32069 1.1562-0.46875l0.96875-5.5938c0.08852-0.0929 0.88958-0.33529 2.375-0.71875 1.4952-0.38339 3.0065-0.70949 4.5312-1 1.4952-0.27882 2.937-0.4535 4.3438-0.5 0.24591 0.00004 0.48264 0.00004 0.71875 0 2.4199 0.00004 4.6859 0.46877 6.7812 1.375 0.54163 0.25144 1.0405 0.53346 1.5312 0.84375-0.03251-0.0515-0.06043-0.10547-0.09375-0.15625-1.3723-2.0914-3.1848-3.6418-5.4375-4.6875-2.0953-0.90623-4.3613-1.375-6.7812-1.375-0.23611 0.00004-0.47284 0.00004-0.71875 0zm32.438 0-10.812 1.2188v58.188l4-0.4375v-53.75l6.8125-0.78125v-4.4375zm45.094 0-10.812 1.2188v58.188l4-0.4375v-53.75l6.8125-0.78125v-4.4375zm-73.781 14.969c0.03661 0.12958 0.09363 0.23982 0.125 0.375 0.24591 0.99925 0.37498 2.3902 0.375 4.1562-0.0099-0.0116-0.37566-0.3333-1.0938-0.9375-0.72797-0.62741-1.6598-1.1959-2.7812-1.7188-1.1706-0.52283-2.4915-0.79725-3.9375-0.84375-0.49188 0.00003-0.71877 0.00003-0.71875 0-0.14875 0-0.29006 0.0265-0.4375 0.0312-0.2197 0.0909-0.43074 0.14928-0.65625 0.25-2.3708 1.0458-3.6835 1.7256-3.9688 2.0625l0.25-1.4062c-0.54558 0.22317-1.0705 0.47682-1.5938 0.78125-2.2134 1.2781-3.9463 3.0548-5.1562 5.3438-1.2493 2.2774-1.875 4.8292-1.875 7.6875-0.000003 3.0907 0.62568 5.7576 1.875 8 1.1181 2.1152 2.6529 3.7564 4.5625 4.9688-0.19637-0.31097-0.38627-0.63536-0.5625-0.96875-1.2493-2.2424-1.875-4.9093-1.875-8-0.000003-2.8583 0.62568-5.4102 1.875-7.6875 1.21-2.2889 2.9429-4.0656 5.1562-5.3438 1.9772-1.1503 4.1142-1.7187 6.4062-1.7188-0.000016 0.00003 0.22688 0.00003 0.71875 0 1.446 0.0465 2.7669 0.32092 3.9375 0.84375 1.1214 0.52288 2.0533 1.0913 2.7812 1.7188 0.71808 0.6042 1.0838 0.9259 1.0938 0.9375-0.000025-1.7661-0.12909-3.157-0.375-4.1562-0.364-1.5685-1.0823-2.7608-2.125-3.5625-0.51967-0.37307-1.182-0.63731-2-0.8125zm45.406 2c0.20668 0.38731 0.3928 0.79176 0.5625 1.2188 0.53118 1.4756 0.78122 3.0412 0.78125 4.6562-0.00003 0.58097-0.00003 0.87502 0 0.875-0.12791 2.7072-1.0962 5.0168-2.9062 6.9688-1.8101 1.952-3.947 2.9375-6.4062 2.9375-1.1444-0.0206-2.2069-0.28196-3.1875-0.78125 0.21053 0.3405 0.43957 0.67145 0.6875 1 1.7707 2.4749 3.9227 3.7348 6.5 3.7812 2.4593 0.00001 4.5962-0.98549 6.4062-2.9375s2.7783-4.2615 2.9062-6.9688c-0.00003 0.00002-0.00003-0.29403 0-0.875-0.00003-1.615-0.25007-3.1806-0.78125-4.6562-0.67878-1.708-1.657-3.0953-2.9062-4.1875-0.51926-0.42603-1.0861-0.74473-1.6562-1.0312zm45.094 0c0.20668 0.38731 0.3928 0.79176 0.5625 1.2188 0.53117 1.4756 0.78122 3.0412 0.78125 4.6562-0.00003 0.58097-0.00003 0.87502 0 0.875-0.12792 2.7072-1.0962 5.0168-2.9062 6.9688s-3.947 2.9375-6.4062 2.9375c-1.1445-0.0206-2.2069-0.28196-3.1875-0.78125 0.21053 0.3405 0.43957 0.67145 0.6875 1 1.7707 2.4749 3.9226 3.7348 6.5 3.7812 2.4592 0.00001 4.5962-0.98549 6.4062-2.9375s2.7783-4.2615 2.9062-6.9688c-0.00003 0.00002-0.00003-0.29403 0-0.875-0.00003-1.615-0.25008-3.1806-0.78125-4.6562-0.67879-1.708-1.657-3.0953-2.9062-4.1875-0.51927-0.42603-1.0861-0.74473-1.6562-1.0312zm-130.94 8.0938v20.281l4-0.40625v-19.875h-4zm40.625 3.9688c0.12064 0.49759 0.18749 1.0285 0.1875 1.5938-0.000024 1.7661-0.51805 3.1054-1.5312 4-1.0428 0.90628-2.3173 1.3438-3.8125 1.3438-0.54777 0-1.0533-0.0535-1.5312-0.15625 0.19024 1.0021 0.61286 1.8468 1.3125 2.5312 1.0427 1.0922 2.4481 1.625 4.2188 1.625 1.4952 0 2.7697-0.43747 3.8125-1.3438 1.0132-0.89465 1.5312-2.2339 1.5312-4-0.000024-1.7196-0.56435-3.1266-1.6562-4.2188-0.73677-0.70601-1.5761-1.1675-2.5312-1.375zm-68.969 42.938v62.594l4-0.6562v-55.125l-4-6.8125zm214.97 0.125-8.0938 1.6562 0.3125 20.125c0.0596 0.0204 0.1781 0.0473 0.21875 0.0625l-0.21875 1.2188 0.3125 19.563 3.9375-0.78127-0.5625-36.188 4.0312-0.8125 0.0625-4.8438zm-103.69 1.5-7.9375 5.5625 11.812 35.438-5.625 20.125 4.6562 1.6875 4.9688-17.812-11.812-35.438 5.7188-4-1.7812-5.5625zm14.25 0.59375-4.875 20.312 2.8125 8.875 6.0625-25.188 3.4062 2.125 0.34375-1.2812-7.75-4.8438zm-98.531 0.125-7.7188 1.5v26.25l4 6.8125v-29.062l3.7188-0.71875v-4.7812zm45.844 12.906-3.7812 14.781 2.0938 11.562l4.234-16.57-2.531-9.78zm-29.594 1.875c-0.50714 0.00004-1.0306 0.0634-1.5625 0.15625-2.078 0.42995-3.949 1.7219-5.625 3.9062-1.6698 2.1844-2.9724 4.9627-3.9062 8.3438-0.57074 2.0793-0.9408 4.2447-1.1562 6.4688v8.6875c0.26866 2.6221 0.78316 5.066 1.5312 7.3437 1.141 3.4741 2.7146 6.1846 4.6875 8.125 0.66623 0.6828 1.3542 1.2421 2.0625 1.6875-1.0984-1.6113-2.0081-3.5538-2.75-5.8125-1.141-3.4741-1.7253-7.3375-1.75-11.625v-0.3125c-0.000002-3.7064 0.45969-7.2278 1.375-10.562 0.93386-3.3811 2.2364-6.1593 3.9062-8.3438 1.676-2.1843 3.547-3.4763 5.625-3.9062 0.53185-0.0928 1.0554-0.15621 1.5625-0.15625 1.1596 0.00003 2.2833 0.31518 3.3438 0.90625-0.90964-1.3819-2.0119-2.5948-3.375-3.625-1.2431-0.84814-2.5772-1.2812-3.9688-1.2812zm105.31 0c-0.50714 0.00004-1.0306 0.0634-1.5625 0.15625-2.078 0.42995-3.949 1.7219-5.625 3.9062-1.6698 2.1844-2.9724 4.9627-3.9062 8.3438-0.91532 3.3347-1.375 6.856-1.375 10.562v0.3125c0.0247 4.2875 0.60896 8.1509 1.75 11.625s2.7146 6.1846 4.6875 8.125c0.66623 0.6828 1.3542 1.2421 2.0625 1.6875-1.0984-1.6113-2.0082-3.5538-2.75-5.8125-1.141-3.4741-1.7253-7.3375-1.75-11.625v-0.3125c0-3.7064 0.45968-7.2278 1.375-10.562 0.93385-3.3811 2.2364-6.1593 3.9062-8.3438 1.676-2.1843 3.547-3.4763 5.625-3.9062 0.53186-0.0928 1.0554-0.15621 1.5625-0.15625 1.1596 0.00003 2.2833 0.31518 3.3438 0.90625-0.90964-1.3819-2.0119-2.5948-3.375-3.625-1.2431-0.84814-2.5772-1.2812-3.9688-1.2812zm-85.062 0.15625-7.1562 1.5 10.281 44.594 1.625-6.375-7.9062-34.219 4-0.84375-0.84375-4.6562zm18.625 0-2.4375 12.969 2.75 10.656 3.6875-19.625 2.4062 0.34375 0.75-3.2812-7.1562-1.0625zm92.062 0c-0.88439 0.0465-1.81 0.18994-2.75 0.46875-0.95861 0.29051-1.9037 0.64786-2.8438 1.0312-0.93387 0.38347-1.4443 0.5946-1.5 0.6875l-1.3125 12.156c0.17935-0.33692 1.0095-1.048 2.5-2.0938 0.82415-0.5855 1.5826-0.994 2.2812-1.25l0.53125-4.8125c0.0557-0.0929 0.56613-0.30403 1.5-0.6875 0.94003-0.38339 1.8851-0.74074 2.8438-1.0312 0.94003-0.27881 1.8656-0.42225 2.75-0.46875 0.1546 0.00004 0.28906 0.00004 0.4375 0 1.0615 0.00003 2.0714 0.21966 3.0312 0.65625-0.76236-1.4044-1.7038-2.5169-2.7812-3.3125-1.3173-0.90625-2.7286-1.3437-4.25-1.3438-0.14844 0.00004-0.2829 0.00004-0.4375 0zm21.125 0.125-7.0625 1.625v43.781l4-0.7188v-39.062l3.0625-0.71875v-4.9062zm6.3125 0.28125c-1.3173 0.00004-2.5496 0.63181-3.6875 1.875-0.66523 0.70096-1.2127 1.5668-1.6875 2.5625l3.0625-0.71875v7.2188c0.58133-2.1495 1.4561-3.8308 2.625-5.0625 0.20031-0.21884 0.4189-0.38167 0.625-0.5625l0.84375-5.0312c-0.12371-0.0464-0.32848-0.11416-0.65625-0.21875-0.33397-0.0465-0.72302-0.0625-1.125-0.0625zm-25.156 14.281c0.0409 0.20758 0.0923 0.40092 0.125 0.625 0.15463 0.99927 0.24998 2.3902 0.25 4.1562-0.006-0.0116-0.23604-0.30203-0.6875-0.90625-0.45766-0.62739-1.045-1.2271-1.75-1.75-0.54388-0.38637-1.1425-0.65793-1.7812-0.78125-0.007 0.005-0.0238-0.005-0.0312 0-0.10862 0.0728-0.20166 0.14001-0.3125 0.21875-1.4905 1.0457-2.3206 1.7568-2.5 2.0938l0.21875-2.1562c-0.89924 0.2583-1.7495 0.74767-2.5625 1.5-1.3915 1.2781-2.4581 3.0548-3.2188 5.3438-0.78544 2.2774-1.1875 4.8605-1.1875 7.7187 0 3.0907 0.40206 5.7575 1.1875 8 0.76069 2.289 1.8142 4.0497 3.1562 5.2813 0.6422 0.6003 1.3087 1.0466 2 1.3437-0.43205-0.7855-0.83096-1.6461-1.1562-2.625-0.78544-2.2425-1.1875-4.9093-1.1875-8 0-2.8582 0.40206-5.4413 1.1875-7.7187 0.76069-2.2889 1.8272-4.0657 3.2188-5.3438 1.2431-1.1502 2.5902-1.7187 4.0312-1.7188-0.00001 0.00002 0.15952 0.00002 0.46875 0 0.90911 0.0465 1.7328 0.32092 2.4688 0.84375 0.70502 0.52288 1.2923 1.1226 1.75 1.75 0.45146 0.6043 0.6815 0.89425 0.6875 0.90625-0.00002-1.7661-0.0954-3.157-0.25-4.1562-0.22883-1.5685-0.65696-2.7295-1.3125-3.5312-0.60467-0.69046-1.5537-1.0641-2.8125-1.0938zm-129.38 0.71875c-1.5709 0.00003-2.8738 1.1326-3.9375 3.375-1.0885 2.2774-1.625 4.8452-1.625 7.75l8.3125-9.7813c-0.17937-0.24398-0.48605-0.51838-0.9375-0.84375-0.48241-0.33691-1.1013-0.49997-1.8125-0.5zm105.31 0c-1.5709 0.00003-2.8738 1.1326-3.9375 3.375-1.0885 2.2774-1.6563 4.8452-1.6562 7.75l8.3438-9.7813c-0.17937-0.24398-0.5173-0.51838-0.96875-0.84375-0.48241-0.33691-1.07-0.49997-1.7812-0.5zm-140.56 4.4375v2.7188l15.156 25.531v-2.7188l-15.156-25.531zm64.844 6.2812-1.4688 5.8438 3.7188 14.562 1.4062-6.1563-3.6562-14.25zm134.38 0.5-5.125 9.7813 5.125 9.5625 0.90625-1.75-2.0312-3.8125 4.1562-7.9688-1.6562-3.1562-0.9375 0.1875-0.0312-2.0625-0.40625-0.7813zm-161.5 2.0625c-0.000021 0.1046-0.28749 0.5261-0.875 1.2813-0.58136 0.7669-1.2836 1.4627-2.0938 2.125-0.52844 0.4191-1.0437 0.7455-1.5625 0.9687l-1.4375 1.6875c0.20408 0.4764 0.67028 1.0565 1.4062 1.7188 0.60607 0.581 1.4809 0.8751 2.625 0.875 0.14841 0.0001 0.32063 0.0001 0.5 0 0.81016-0.151 1.6338-0.5878 2.4688-1.25 0.42954-0.3512 0.82057-0.7182 1.1875-1.0938l-2.2188-6.3125zm105.31 0c-0.00002 0.1046-0.28749 0.5261-0.875 1.2813-0.58136 0.7669-1.2836 1.4627-2.0938 2.125-0.52844 0.4191-1.0436 0.7455-1.5625 0.9687l-1.4375 1.6875c0.20408 0.4764 0.67028 1.0565 1.4062 1.7188 0.60607 0.581 1.4808 0.8751 2.625 0.875 0.14842 0.0001 0.32064 0.0001 0.5 0 0.81016-0.151 1.6338-0.5878 2.4688-1.25 0.42954-0.3512 0.82057-0.7182 1.1875-1.0938l-2.19-6.4zm22.312 0.2188c-0.19544 0.02-0.38051 0.066-0.5625 0.125 0.0734 0.4903 0.12499 1.0009 0.125 1.5625-0.00002 1.7661-0.30051 3.1054-0.9375 4-0.52924 0.7316-1.1571 1.1676-1.875 1.3125 0.12788 0.9464 0.39138 1.7509 0.8125 2.4062 0.65555 1.0922 1.543 1.6564 2.6562 1.6563 0.94003 0.0001 1.7507-0.4687 2.4062-1.375 0.63699-0.8946 0.93748-2.2339 0.9375-4-0.00002-1.7196-0.34479-3.0953-1.0312-4.1875-0.65557-0.9992-1.435-1.4999-2.375-1.5-0.00001 0.0001-0.0574 0.0001-0.15625 0z" fill="#80b3ff"/>
        <path id="path3045" filter="url(#filter3838)" d="m54.945 872.24-4 0.40625v54.406l-9.0625 0.90625v4.4062l13.062-1.3125v-58.812zm-28.406 0.15625-4 0.375v18.031h4v-18.406zm172.78 13.781-2.3438 0.59375 7.4062 20.5 1.25-3.5625-6.3125-17.531zm-91.594 1.2188-0.71875 0.0625v0.71875c0.23217-0.27422 0.47977-0.52837 0.71875-0.78125zm45.094 0-0.71875 0.0625v0.71875c0.23217-0.27422 0.47977-0.52837 0.71875-0.78125zm70.875 0.25-21.312 54.344-6.7188-1.0625-1.4062 3.125 12.125 1.9375 22.312-56.906-5-1.4375zm-136.09 1.5938c1.3066 2.0709 1.9687 4.7463 1.9688 8v29.688l-10.406 1.4375v-3.6562c-0.000025 0.13944-0.35773 0.55647-1.125 1.2188-0.80667 0.72038-1.8445 1.3682-3.0938 1.9375-1.2887 0.6158-2.7536 0.92225-4.4062 0.96875h-0.25c-2.3314 0-4.5147-0.59612-6.5312-1.7812-0.16204-0.0935-0.31189-0.21291-0.46875-0.3125 1.1518 1.8241 2.645 3.2603 4.4688 4.3125 2.0166 1.1851 4.1998 1.7812 6.5312 1.7812h0.25c1.6526-0.0465 3.1176-0.35295 4.4062-0.96875 1.2493-0.56934 2.2871-1.2171 3.0938-1.9375 0.76727-0.66228 1.125-1.0793 1.125-1.2188v3.6562l10.406-1.4375v-29.688c-0.000036-3.3346-0.69026-6.0648-2.0625-8.1562-1.0424-1.5885-2.356-2.8635-3.9062-3.8438zm44 1.25c0.81073 1.0537 1.5269 2.1976 2.1875 3.4375 1.81 3.4741 2.7418 7.3056 2.7812 11.5-0.00004 4.0434-0.86247 7.8807-2.5938 11.5-1.7314 3.6193-4.105 6.4871-7.125 8.625-3.0299 2.1844-6.3105 3.2812-9.8125 3.2812h-0.125c-2.056-0.0465-3.9099-0.57929-5.5625-1.625-1.692-0.99923-2.8508-1.8377-3.5-2.5v16.438l-7.6562 0.84375v4.4375l11.656-1.2812v-16.438c0.64923 0.66229 1.808 1.5008 3.5 2.5 1.6526 1.0457 3.5065 1.5785 5.5625 1.625h0.125c3.502 0 6.7826-1.0969 9.8125-3.2812 3.02-2.1379 5.3936-5.0057 7.125-8.625 1.7313-3.6193 2.5937-7.4566 2.5938-11.5-0.0394-4.1944-0.97125-8.0259-2.7812-11.5-1.615-3.0314-3.6868-5.5218-6.1875-7.4375zm45.094 0c0.81073 1.0537 1.5269 2.1976 2.1875 3.4375 1.81 3.4741 2.7418 7.3056 2.7812 11.5-0.00005 4.0434-0.86245 7.8807-2.5938 11.5s-4.105 6.4871-7.125 8.625c-3.0299 2.1844-6.3105 3.2812-9.8125 3.2812h-0.125c-2.056-0.0465-3.9099-0.57929-5.5625-1.625-1.692-0.99923-2.8508-1.8377-3.5-2.5v16.438l-7.6562 0.84375v4.4375l11.656-1.2812v-16.438c0.64923 0.66229 1.808 1.5008 3.5 2.5 1.6526 1.0457 3.5065 1.5785 5.5625 1.625h0.125c3.502 0 6.7826-1.0969 9.8125-3.2812 3.02-2.1379 5.3936-5.0057 7.125-8.625 1.7313-3.6193 2.5937-7.4566 2.5938-11.5-0.0394-4.1944-0.97127-8.0259-2.7812-11.5-1.615-3.0314-3.6868-5.5218-6.1875-7.4375zm-105.44 3.25c-1.4024 0.00004-3.0549 0.37685-4.9062 1.0938l-0.875 5.125c1.3821-0.56535 2.8518-0.85673 4.375-0.90625 2.0612-0.85297 3.8772-1.3124 5.4062-1.3125 0.11803 0.00005 0.2471 0.00005 0.375 0 1.0291 0.00002 1.926 0.0869 2.6875 0.25-0.38823-1.374-1.0472-2.4548-2-3.1875-1.0034-0.72034-2.5529-1.0624-4.6875-1.0625-0.1279 0.00005-0.25697 0.00005-0.375 0zm44.625 1.3438c-1.2493 0.00002-2.4544 0.32173-3.625 0.9375-1.4854 0.81337-2.7003 1.9307-3.625 3.4062-0.97389 1.5221-1.5533 3.2668-1.75 5.2188-0.0393 0.38344-0.0625 0.73719-0.0625 1.0625-0.00001 2.6259 0.82419 5.0184 2.4375 7.1562 0.98441 1.3759 2.0848 2.3749 3.3125 3-1.1594-1.8751-1.75-3.9339-1.75-6.1562 0-0.32531 0.0232-0.67906 0.0625-1.0625 0.19674-1.952 0.77611-3.6966 1.75-5.2188 0.92467-1.4756 2.1396-2.5929 3.625-3.4062 1.1706-0.61577 2.3757-0.93748 3.625-0.9375 0.36395 0.0002 0.7529 0.016 1.1562 0.0625 0.95847 0.11048 1.8462 0.39156 2.6875 0.8125-0.61803-1.1516-1.4132-2.1239-2.3438-2.9375-1.2887-1.0573-2.7305-1.689-4.3438-1.875-0.40335-0.0465-0.7923-0.0623-1.1562-0.0625zm45.094 0c-1.2493 0.00002-2.4544 0.32173-3.625 0.9375-1.4854 0.81337-2.7003 1.9307-3.625 3.4062-0.97388 1.5221-1.5533 3.2668-1.75 5.2188-0.0393 0.38344-0.0625 0.73719-0.0625 1.0625 0 2.6259 0.82419 5.0184 2.4375 7.1562 0.98441 1.3759 2.0848 2.3749 3.3125 3-1.1594-1.8751-1.75-3.9339-1.75-6.1562 0-0.32531 0.0232-0.67906 0.0625-1.0625 0.19673-1.952 0.77612-3.6966 1.75-5.2188 0.92467-1.4756 2.1396-2.5929 3.625-3.4062 1.1706-0.61577 2.3757-0.93748 3.625-0.9375 0.36396 0.0002 0.75289 0.016 1.1562 0.0625 0.95847 0.11048 1.8462 0.39156 2.6875 0.8125-0.61804-1.1516-1.4132-2.1239-2.3438-2.9375-1.2887-1.0573-2.7305-1.689-4.3438-1.875-0.40336-0.0465-0.79229-0.0623-1.1562-0.0625zm-138.44 9v22.969l-9 0.90625v4.4062l13-1.3125v-22.969h11.344v-4h-15.344zm50.469 3.8438c-1.4559 0.0929-2.6841 0.60977-3.6875 1.5625-1.0526 0.99925-1.5857 2.2592-1.625 3.7812-0.000012 0.10458-0.000012 0.2196 0 0.3125-0.000012 1.5686 0.46361 2.8285 1.4375 3.7812 0.72015 0.75433 1.6205 1.2393 2.6875 1.4688-0.07457-0.3928-0.125-0.80828-0.125-1.25-0.000012-0.0929-0.000012-0.20792 0-0.3125 0.03933-1.5221 0.57242-2.782 1.625-3.7812 1.0034-0.95273 2.2316-1.4696 3.6875-1.5625h0.25c0.43876 0 0.85333 0.0388 1.25 0.125-0.24638-1.0162-0.73575-1.8918-1.4688-2.625-1.0428-0.99922-2.286-1.5-3.7812-1.5h-0.25zm-59.469 51.062v2.8125l15.281 26.094v-2.8125l-15.281-26.094zm214.97 0.125-4.0625 0.84375-0.53125 36.406-2.9375 0.59375 0.0312 2.7188 0.96875 1.875 5.9375-1.1875 0.59375-41.25zm-103.69 1.5-2.2188 1.5625 6.4062 20.219 1.1875-4.875-5.375-16.906zm-84.281 0.71875-4 0.78125v55.531l4 6.7188v-24.688c-0.14112-1.3774-0.21023-2.8047-0.21875-4.2812v-0.3125c-0.000001-1.3953 0.08867-2.751 0.21875-4.0938v-29.656zm101.94 2-15.031 57.469-3.7188-1.375-0.65625 2.3125 8.375 3.0625 15.375-58.75-4.3438-2.7188zm-56.094 10.906-1.4688 5.7812 3.0625 11.875 1.25-6.6562-2.8438-11zm-9.3438 2.0312-3.1562 0.65625 2.8125 15.656 1.9062-7.5625-1.5625-8.75zm21.031 0.34375-8.1875 36.031 2.5938 10.156 10.344-45.469-4.75-0.71875zm117.09 0.0625c-1.0854 0.00003-2.0978 0.46603-3.0625 1.3125l-1.4688 8.625c-0.0557-0.0465-0.17711-0.12585-0.375-0.21875-0.20411-0.0465-0.45348-0.0623-0.78125-0.0625-0.45766 0.00003-0.98117 0.12742-1.5625 0.40625-1.039 0.56936-1.7285 1.603-2.0625 3.125-0.32779 1.5802-0.513 3.6822-0.5625 6.25 0.0495 0.4764 0.0625 1.1883 0.0625 2.1875v18.125l-3.5625 0.6562v4.7188l7.5625-1.375v-18.125c0-0.9992-0.013-1.7111-0.0625-2.1875 0.0495-2.5678 0.23471-4.6698 0.5625-6.25 0.33396-1.522 1.0235-2.5556 2.0625-3.125 0.58133-0.27883 1.1048-0.40622 1.5625-0.40625 0.32777 0.0002 0.57714 0.016 0.78125 0.0625 0.19789 0.0929 0.3193 0.17225 0.375 0.21875l2.0938-12.438v-1.2812c-0.12187-0.0417-0.21743-0.086-0.4375-0.15625-0.33397-0.0465-0.72302-0.0625-1.125-0.0625zm-23.969 0.25c0.23973 0.44162 0.44985 0.90593 0.65625 1.4062 0.86272 2.0915 1.2812 4.7904 1.2812 8.125v29.687l-6.5312 1.4375v-3.625c-0.00001 0.1394-0.23637 0.5252-0.71875 1.1875-0.50714 0.7204-1.1521 1.3682-1.9375 1.9375-0.81018 0.6158-1.7423 0.953-2.7812 1h-0.15625c-0.72329 0-1.4203-0.148-2.0938-0.4375 0.5783 1.0515 1.2318 1.9513 2 2.6563 1.2678 1.1852 2.628 1.7812 4.0938 1.7812h0.15625c1.039-0.047 1.9711-0.3842 2.7812-1 0.78542-0.5693 1.4304-1.2171 1.9375-1.9375 0.48238-0.6623 0.71874-1.0481 0.71875-1.1875v3.625l6.5312-1.4375v-29.687c-0.00002-3.3346-0.41853-6.0335-1.2812-8.125-0.86276-2.0914-2.0213-3.673-3.4375-4.7188-0.39818-0.27393-0.80295-0.49837-1.2188-0.6875zm-131.06 0.0937c0.18817 0.28587 0.39289 0.57428 0.5625 0.875 0.98331 1.8126 1.6986 3.3986 2.1562 4.7812 0.45763 1.3827 0.7578 2.4002 0.90625 3.0625l-14.625 17.281c0.20408 0.4764 0.67028 1.0565 1.4062 1.7188 0.60607 0.581 1.4809 0.8751 2.625 0.875 0.14841 0.0001 0.32063 0.0001 0.5 0 0.29739-0.055 0.60533-0.1518 0.90625-0.2813l13.188-15.594c-0.14845-0.66225-0.44862-1.6798-0.90625-3.0625-0.45768-1.3826-1.1729-2.9686-2.1562-4.7812-0.98954-1.7544-2.2924-3.2567-3.9375-4.5-0.20718-0.14136-0.41291-0.25679-0.625-0.375zm105.31 0c0.18817 0.28587 0.39289 0.57428 0.5625 0.875 0.98332 1.8126 1.6986 3.3986 2.1562 4.7812 0.45763 1.3827 0.75779 2.4002 0.90625 3.0625l-14.625 17.281c0.20408 0.4764 0.67028 1.0565 1.4062 1.7188 0.60607 0.581 1.4808 0.8751 2.625 0.875 0.14842 0.0001 0.32064 0.0001 0.5 0 0.29739-0.055 0.60533-0.1518 0.90625-0.2813l13.188-15.594c-0.14846-0.66225-0.44862-1.6798-0.90625-3.0625-0.45768-1.3826-1.1729-2.9686-2.1562-4.7812-0.98954-1.7544-2.2924-3.2567-3.9375-4.5-0.20718-0.14136-0.41291-0.25679-0.625-0.375zm40.344 0.0937-0.9375 0.1875v2.3125c0.25048-0.92617 0.578-1.7462 0.9375-2.5zm-24.156 5.8438c-0.46813 0.00001-0.98212 0.11129-1.5312 0.3125l-0.5625 5.1875c0.47562-0.13662 0.97025-0.21874 1.4688-0.21875-0.00001 0.00002 0.15952 0.00002 0.46875 0 0.22728 0.0116 0.43969 0.0221 0.65625 0.0625 0.007-0.005 0.0238 0.005 0.0312 0 1.3244-0.8833 2.4906-1.3437 3.4688-1.3438 0.0742 0.00003 0.13835 0.00003 0.21875 0 0.0557 0 0.10177-0.001 0.15625 0-0.24544-1.2455-0.62561-2.219-1.1875-2.9062-0.63084-0.72034-1.6267-1.0937-2.9688-1.0938-0.0804 0.00003-0.14455 0.00003-0.21875 0zm-129 0.71875c-1.5709 0.00003-2.8738 1.1326-3.9375 3.375-1.0885 2.2774-1.625 4.8453-1.625 7.75l8.3125-9.7812c-0.17937-0.24398-0.48605-0.51838-0.9375-0.84375-0.48241-0.33691-1.1013-0.49997-1.8125-0.5zm105.31 0c-1.5709 0.00003-2.8738 1.1326-3.9375 3.375-1.0885 2.2774-1.6563 4.8453-1.6562 7.75l8.3438-9.7812c-0.17937-0.24398-0.5173-0.51838-0.96875-0.84375-0.48241-0.33691-1.07-0.49997-1.7812-0.5zm-140.56 4.4375v28.188l-3.8438 0.625v4.6562l7.8438-1.2812v-25.469l-4-6.7188zm64.844 6.2812-4.4375 17.594 2.375 10.375 4.5938-18.125-2.5312-9.8438zm100.5 2.7812c-0.91532 0.093-1.6817 0.6098-2.3125 1.5625-0.66175 0.9993-1.0066 2.2591-1.0312 3.7812v0.2813c0 1.5686 0.29397 2.8284 0.90625 3.7812 0.65555 1.0922 1.543 1.6564 2.6562 1.6563 0.18114 0 0.3599-0.028 0.53125-0.062-0.0581-0.4296-0.0937-0.8853-0.0937-1.375v-0.2813c0.0247-1.5221 0.3695-2.7819 1.0312-3.7812 0.49612-0.7493 1.0797-1.2216 1.75-1.4375-0.15143-1.0111-0.44397-1.8895-0.90625-2.625-0.65557-0.9992-1.435-1.4999-2.375-1.5-0.00001 0.0001-0.0573 0.0001-0.15625 0zm41.875 5.7187-0.96875 1.8125 2 3.8125-4.125 7.9688 3.0938 5.75 5.0312-9.7188-5.0312-9.625zm-161.5 2.0625c-0.000021 0.1046-0.28749 0.5261-0.875 1.2813-0.27313 0.3603-0.58111 0.6984-0.90625 1.0312l1.4375 4.1563c-0.33399 0.4764-0.91512 1.2034-1.75 2.1562-0.83493 0.9528-1.9523 1.9383-3.3438 2.9375-1.4225 0.9992-2.9353 1.5155-4.5 1.5625h-0.15625c-1.4799 0-2.8708-0.4218-4.1875-1.25 0.59104 0.8671 1.2473 1.6337 1.9375 2.3125 1.9048 1.952 3.9741 2.9375 6.25 2.9375h0.15625c1.5647-0.047 3.0775-0.5633 4.5-1.5625 1.3915-0.9992 2.5088-1.9847 3.3438-2.9375 0.83488-0.9528 1.416-1.6798 1.75-2.1562l-3.6562-10.469zm105.31 0c-0.00002 0.1046-0.28749 0.5261-0.875 1.2813-0.27313 0.3603-0.58111 0.6984-0.90625 1.0312l1.4375 4.1563c-0.33399 0.4764-0.91512 1.2034-1.75 2.1562-0.83493 0.9528-1.9523 1.9383-3.3438 2.9375-1.4225 0.9992-2.9353 1.5155-4.5 1.5625h-0.15625c-1.4799 0-2.8708-0.4218-4.1875-1.25 0.59104 0.8671 1.2473 1.6337 1.9375 2.3125 1.9048 1.952 3.9741 2.9375 6.25 2.9375h0.15625c1.5647-0.047 3.0775-0.5633 4.5-1.5625 1.3915-0.9992 2.5088-1.9847 3.3438-2.9375 0.83488-0.9528 1.416-1.6798 1.75-2.1562l-3.6562-10.469z" fill="#025"/>
      </g>
    </g>
    <g id="g4764" stroke-width="1.0963" transform="matrix(.97197 0 0 .85605 19.925 136.55)">
      <path id="path4564" d="m213.64 900.06c-0.20366 0.14745-0.4121 0.28851-0.61098 0.44235-0.85238 0.6594-1.0316 0.83854-1.8545 1.6375-0.35664 0.34626-1.3672 1.4404-1.0565 1.0524 6.0062-7.4992 4.1306-4.9655 2.7911-3.113-1.6544 2.5092-1.6179 3.552-0.815 6.424 0.59414 2.1688 1.6665 4.188 2.2095 6.3716 0.33844 1.3609 0.29729 1.6976 0.37926 3.0678-0.0785 1.7642-0.74553 3.3313-1.8802 4.6747-5.0058 5.9269-3.4667 4.4004-6.1143 6.9495-0.73566 0.69549-1.5948 1.2236-2.4023 1.8238 0 0 3.9466-6.2022 3.9466-6.2022 0.79037-0.53077 1.5461-1.1087 2.2352-1.7682 2.1667-2.1193 0.7748-0.80952-3.0649 3.9205-0.24608 0.30314 0.51894-0.58445 0.75626-0.89449 0.80344-1.0496 1.379-2.1392 1.528-3.4746-0.007-1.2539 0.0539-1.7187-0.218-2.9676-0.47764-2.194-1.538-4.2238-2.2233-6.3503-1.0495-3.0547-1.4079-4.0129 0.33172-6.8545 2.2481-3.3594 1.0638-1.6816 6.2452-7.6419 1.1109-1.2779 2.4949-2.387 3.9418-3.2539 0 0-4.1244 6.1564-4.1244 6.1564z" stroke="#0a4fb1" fill="#75375b"/>
      <path id="path4566" d="m159.68 882.07c2.6461 7.39 7.1812 13.908 11.585 20.337l-4.0739 4.5831c-1.9646-3.0347-3.6262-5.6153-5.6272-8.6459-2.3597-3.574-4.8271-7.0898-6.8819-10.854 0 0 4.9982-5.4203 4.9982-5.4203z" stroke="#110b85" fill="#fbccfa"/>
      <path id="path4568" d="m116.11 913.27c-2.4956 1.5553-4.7203 3.4712-6.8605 5.4747-3.145 3.724 1.9165-2.278 2.6528-3.0486 0.26973-0.28229-0.41376 0.66445-0.57908 1.0182-0.3801 0.81328-0.49053 1.5816-0.45577 2.4609 0.0894 0.22785 0.14416 0.4726 0.26831 0.68355 0.58133 0.98778 1.5651 1.777 2.3825 2.5533 1.4486 1.3759 0.4827 0.4337 1.9468 1.8859 2.5447 2.8221 3.4361 6.7761 2.7208 10.504-0.26082 1.3593-0.79188 2.6526-1.1878 3.9789-4.4435 6.4841-4.2961 6.7324-11.433 13.751-1.5737 1.5476-3.4499 2.7542-5.1748 4.1312l3.0016-4.7846c1.718-1.4088 3.3737-2.8972 5.154-4.2265 0.20111-0.15017 0.57124 0.0217 0.73361-0.16969 1.1434-1.348 2.0501-2.8801 3.0751-4.3202 0.36873-1.2304 0.862-2.4301 1.1062-3.691 0.68402-3.5322-0.20404-7.1034-2.6087-9.7592-0.64591-0.62158-1.28-1.2557-1.9381-1.8643-0.90121-0.83349-1.9531-1.6254-2.6818-2.629-0.18751-0.25823-0.30466-0.56084-0.45699-0.84127-0.0466-0.28732-0.13541-0.57092-0.13984-0.86197-0.0147-0.96361 0.34007-2.355 0.92843-3.12 3.6132-4.6977 3.7982-4.8496 6.3869-7.6359 2.2504-2.0466 4.6208-3.9426 7.1064-5.6977 0 0-3.9469 6.2082-3.9469 6.2082z" stroke="#232a2c" fill="#3b1a0b"/>
      <path id="path4570" d="m71.075 955.69c-1.8617 2.6577-3.1846 5.6243-4.4864 8.5813-1.1758 2.7047-2.2391 5.4648-2.7766 8.3713-0.32341 2.601-0.28964 5.2177-0.5923 7.8221-0.55236 3.8112-2.2031 6.7696-4.5358 9.751-6.4331-5.497-3.2039 6.1928-6.2111 7.1709-1.1322 0.36826-3.57-0.16889-4.4943-0.3211-1.0892-0.17938-2.1752-0.37784-3.2628-0.56676 0 0 3.9379-5.258 3.9379-5.258 1.4082 0.16746 4.4613 0.62576 6.0164 0.48881 0.54303-0.0478 1.0868-0.20833 1.5681-0.46424 0.32046-0.17038 0.991-1.059 0.76408-0.77569-1.1847 1.4788-2.427 2.9107-3.6404 4.3661 1.1308-1.3341 2.2803-2.7211 3.0997-4.2786 0.85115-1.618 1.3726-3.4179 1.7278-5.2008 0.06806-0.54552 0.16081-1.0885 0.20417-1.6366 0.16038-2.0273-0.06209-4.0801 0.24773-6.1002 0.48958-3.0318 1.6498-5.8639 2.8548-8.6774 1.221-2.8354 2.3964-5.7221 4.0696-8.328l5.5097-4.9442z" stroke="#b2606f" fill="#404b49"/>
      <path id="path4572" d="m40.384 915.12c0.07466-1.9708 0.07963-3.9436 0.08129-5.9155 0.14722-4.2137-2.1397-7.6886-4.3514-11.083-0.68466-0.96782-1.3693-1.9356-2.054-2.9035l4.302-4.8854c0.71895 0.94041 1.4379 1.8808 2.1569 2.8212 2.3786 3.3183 4.9965 6.7125 5.0165 10.981 0.0016 1.9177 0.0045 3.8365 0.08129 5.7529l-5.2326 5.2326z" stroke="#050d00" fill="#212124"/>
      <path id="path4574" d="m22.375 874.12c3.0355-4.3755 3.7665-5.3596 7.1516-7.3101l-3.8482 5.9732c-2.8601 1.9382-4.7033 4.34 2.1848-3.6647l-5.4883 5.0016z" stroke="#91f60d" fill="#125491"/>
      <path id="path4576" d="m52.606 857.8c4.2559-0.005 8.507-0.0909 12.761 0.0769 3.1851 0.16631 6.1766 1.1172 8.3943 3.4975 0.36487 0.39163 0.67109 0.83406 1.0066 1.2511 1.2707 2.0518 0.65934 0.97562 1.8208 3.2361 0 0-4.6813 5.1573-4.6813 5.1573-1.1544-2.1512-0.5541-1.1301-1.7873-3.0712-0.3134-0.39323-0.60284-0.80681-0.9402-1.1797-2.0573-2.2739-4.8362-3.1989-7.8421-3.3962-4.3276-0.20973-8.6889-0.16141-12.986 0.44045l4.255-6.0123z" stroke="#d5e5e9" fill="#438620"/>
      <path id="path4578" d="m89.613 908.59c-0.65489 3.324-1.7571 6.5066-2.9915 9.6527-2.2433 5.315-4.8027 10.492-7.2352 15.722l-4.8385 4.4286c2.4639-5.1201 4.9458-10.242 7.0763-15.512 1.1478-2.9668 2.2788-5.9701 2.6433-9.1532l5.3457-5.1387z" stroke="#2b0d1e" fill="#daa5c6"/>
      <path id="path4580" d="m95.138 967.44c1.5043 3.6176 3.7193 6.8853 5.8952 10.124 1.3588 1.9709 2.7112 3.9419 3.842 6.0533 0 0-4.7997 5.2636-4.7997 5.2636-0.99826-2.1812-2.2207-4.24-3.5674-6.2259-2.1486-3.2521-4.32-6.4875-6.4067-9.7797 0 0 5.0367-5.4354 5.0367-5.4354z" stroke="#326d5a" fill="#e8c3d7"/>
      <path id="path4582" d="m103.58 999.19c-1.2299 2.0398-2.4195 4.1035-3.6609 6.1363-0.84831 1.2797-0.42223 0.6629-1.275 1.8527l-5.4036 4.7556c0.90583-1.1871 0.45377-0.5717 1.353-1.8487 1.2453-1.9293 2.3919-3.9279 3.4769-5.9517l5.5097-4.9442z" stroke="#d2e4a6" fill="#6e2d35"/>
      <path id="path4600" d="m158.61 955.13c-3.9093 1.7295-7.7529 3.7165-11.386 5.9766-1.115 0.69367-2.1867 1.4547-3.28 2.1821-0.00038-3.1876-5.4736 6.8781-5.3177 4.5504 0.0818-1.2211 1.3292-2.2033 2.4174-2.7632 0.71614-0.36852-0.86361 1.3702-1.1631 2.1178-0.75179 1.8764-0.53614 2.4266-0.48992 4.4056 0.18044 0.78939 0.31793 1.5898 0.54132 2.3682 0.81373 2.8352 1.3493 3.7612 2.3516 6.6279 1.0871 3.109 2.2793 6.8014 2.909 10.008 0.42764 2.1778 0.63593 4.3931 0.9539 6.5896 0.45983 9.4231 0.45862 4.7243 0.0111 14.096l-3.9434 3.9032c0.50742-9.2915 0.5138-4.6498-0.0166-13.925-0.36462-2.1164-0.61683-4.2553-1.0939-6.3492-0.7977-3.5014-1.9-6.2961-3.2105-9.5901-0.01-0.0245-2.5494-6.1203-2.6571-6.429-0.27675-0.79315-0.44233-1.6208-0.6635-2.4312-0.0651-0.79684-0.24088-1.5923-0.19527-2.3905 0.086-1.5046 0.70624-3.4034 1.6197-4.6056 3.4481-4.5378 6.732-8.446 11.399-11.571 4.9382-3.2372 10.051-6.1898 15.274-8.9436 0 0-4.061 6.172-4.061 6.172z" stroke="#040404" fill="#e8e9e7"/>
      <path id="path4604" d="m187.65 1036.7c-3.2122 2.4366-6.9006 4.1147-10.465 5.957-2.6272 1.394-5.3709 2.58-8.2317 3.3999-0.40138 0.099-0.80275 0.1971-1.2041 0.2957l4.0553-5.8932 1.1995-0.3333c2.725-0.8523 5.3978-1.8711 7.9362-3.1874 3.7225-1.8807 7.4763-3.7513 10.689-6.4537l-3.9794 6.215z" stroke="#753336" fill="#3b1708"/>
      <path id="path4606" d="m187.53 945.94c-4.8324 7.1053-8.9578 14.724-12.181 22.695-0.59121 1.4621-1.0848 2.9618-1.6272 4.4428-1.0666 3.0417-1.7683 6.1492-1.301 9.3776 0.21311 1.4723 1.0111 3.9749 1.4111 5.3396 0.29976 1.0225 0.59833 2.0454 0.8975 3.0681 0.23521 1.1008 0.61535 2.1803 0.70562 3.3023 0.19587 2.4343-0.1757 7.3716-0.91858 9.605-4.0222 12.092-15.098 21.206-23.597 29.854l1.6446-2.6815c2.8665-2.7329 5.9684-5.2386 8.5995-8.1988 3.8558-4.338 7.204-9.1667 8.9773-14.736 0.74301-2.3335 0.99192-6.5942 0.74909-9.1008-0.1063-1.0972-0.46573-2.155-0.6986-3.2325-0.31129-1.0062-0.61225-2.0156-0.93387-3.0186-0.51882-1.6179-1.3268-3.6902-1.5792-5.403-0.50835-3.4495 0.34234-6.7704 1.5414-9.985 0.59097-1.5412 1.1399-3.0992 1.7729-4.6236 3.1499-7.5854 6.9559-14.898 11.167-21.944l5.3706-4.7598z" stroke="#2e69f6" fill="#370ef7"/>
      <path id="path4608" d="m268.69 873.65c-0.21005 0.10503-0.43301 0.18747-0.63016 0.31509-1.0054 0.65087-1.8152 1.3778-2.6636 2.242-0.60034 0.61154-2.2894 2.551-1.7284 1.9032 3.4506-3.9846 3.0413-3.6312 1.0485-0.45871-0.33731 0.9273-0.78312 1.8221-1.0119 2.7819-1.4316 6.0053 1.3134 12.564 3.3046 18.129 1.6117 4.5517 3.4523 9.1567 3.6565 14.045 0.0388 0.92994-0.023 1.8614-0.0345 2.792-0.26682 3.811-0.96518 7.5738-1.5859 11.338l-4.4974 4.3641c0.50134-3.64 1.0661-7.2781 1.3147-10.947 0.0406-2.3708 0.13508-2.915-0.15013-5.2385-0.49148-4.0038-1.8427-7.8363-3.1027-11.645-1.2906-3.7303-2.689-7.4706-3.4778-11.35-0.2502-1.2307-0.49605-2.4726-0.54926-3.7274-0.11575-2.7292 0.36276-3.5464 1.1378-6.0654 2.9311-4.9276 1.3338-2.5168 7.4577-9.7991 1.5863-1.8864 3.4135-3.6206 5.5332-4.8933 0 0-4.0214 6.2153-4.0214 6.2153z" stroke="#dfecf9" fill="#0431e8"/>
      <path id="path4610" d="m263.77 972.31c-2.1612 2.6582 2.2285-2.7534 2.4483-2.8228 1.29-0.40716-1.5891 2.1907-2.3338 3.32-1.9076 2.8926-3.1956 5.1005-4.7354 8.2136-0.66341 1.3412-1.2397 2.7238-1.8595 4.0857-1.6481 4.1267-2.5334 8.495-1.3759 12.873 0.5089 1.9248 1.2247 3.257 2.0576 5.0415 1.7654 3.3181 3.672 6.6925 3.9854 10.521 0.0603 0.7367 0.006 1.4783 0.008 2.2175-0.18868 2.071-0.59618 4.1161-1.3884 6.0463-0.24878 0.6062-0.56855 1.1807-0.85283 1.7711l-5.1432 4.6809c0.30693-0.573 0.65088-1.1277 0.92078-1.7191 0.85375-1.8706 1.3133-3.8813 1.5827-5.9108 0.0212-0.7106 0.10083-1.4219 0.0636-2.1318-0.19902-3.7963-2.0622-7.1872-3.7364-10.501-0.75527-1.6411-1.6628-3.4455-2.1459-5.195-1.2641-4.5775-0.30021-9.1586 1.4294-13.475 0.62926-1.3865 1.2221-2.7901 1.8878-4.1595 3.4067-7.0074 7.6707-13.466 13.045-19.15 0 0-3.8572 6.2943-3.8572 6.2943z" stroke="#45394e" fill="#8f9388"/>
      <path id="path4614" d="m191.3 875.84c-3.7911-0.0612-7.7097 0.52835-11.275 1.8599-0.76491 0.28568-1.485 0.67936-2.2275 1.019-0.63365 0.39588-1.3056 0.73626-1.9009 1.1876-0.54143 0.41047-1.9081 1.9252-1.4943 1.3863 1.0125-1.3184 2.02-2.6785 3.3006-3.7384 0.52007-0.43045-0.67881 1.1707-0.94694 1.7903-0.69977 1.617-0.80473 2.5228-1.185 4.2602-0.93517 5.2541-0.27512 10.335 1.4838 15.357 0.51097 1.459 1.1521 2.869 1.7282 4.3035 1.7337 4.1312 4.1865 7.8961 6.1407 11.916 1.2315 2.5332 2.42 5.006 2.6257 7.8821 0.10609 1.4835-0.21807 2.9666-0.32711 4.4499-0.68666 1.4712-1.3733 2.9424-2.06 4.4136l-4.5555 4.1589 2.137-4.1698c0.13959-1.4236 0.49336-2.8424 0.41878-4.2709-0.14812-2.8375-1.3027-5.2823-2.4852-7.7903-1.9172-4.0661-4.2681-7.9194-6.1053-12.026-0.62992-1.4074-1.3278-2.7864-1.8898-4.2223-0.65378-1.6706-1.8029-5.4398-2.1196-7.2923-0.44745-2.6177-0.24357-5.3453 0.0704-7.9594 0.32954-1.8889 0.35559-2.5567 1.0044-4.3332 1.3491-3.6943 3.1943-5 6.43-8.6159 0.44869-0.50142 1.0098-0.89556 1.5681-1.2712 0.61615-0.41455 1.295-0.7272 1.9426-1.0908 0.75293-0.30439 1.489-0.65447 2.2588-0.91316 3.7948-1.2752 7.8202-1.8204 11.783-2.2368 0 0-4.3202 5.9462-4.3202 5.9462z" stroke="#343a3e" fill="#e5cbcb"/>
      <path id="path4616" d="m128.83 866.92c-2.5091 0.24841-4.7712 1.4078-6.6701 3.0153-2.2244 2.9848 1.0558-1.4682 3.3366-3.6347 0.28954-0.27501-0.31845 0.7359-0.41859 1.1225-0.53808 2.0773-0.23212 3.5307 0.16086 5.6 0.30288 0.92126 0.53937 1.8671 0.90864 2.7638 1.6348 3.9697 4.1615 7.4978 6.7586 10.881 1.9631 2.5575 4.7586 5.8685 6.8127 8.3384 3.2938 3.9625 6.6968 7.8946 9.0671 12.51 0.95619 1.862 2.2672 5.0162 2.357 7.2181 0.0491 1.2054-0.31508 2.3922-0.47262 3.5882-3.0271 6.0644-2.1874 5.165-9.129 12.02-1.2658 1.25-2.8783 2.0913-4.3175 3.137 0 0 3.2072-5.0698 3.2072-5.0698 1.4346-1.1056 2.7312-2.4184 4.3038-3.3169 0.39742-0.22708-0.42142 0.81266-0.63213 1.219 0.63103-1.1527 1.2621-2.3054 1.8931-3.4581 0.20998-1.1427 0.61988-2.2663 0.62993-3.4281 0.0192-2.2173-1.0924-5.3964-1.9806-7.314-2.1777-4.702-5.5162-8.684-8.849-12.594-1.3616-1.6124-5.5724-6.5825-6.9275-8.251-2.6964-3.32-5.4101-6.7136-7.2833-10.588-0.42229-0.87352-0.71975-1.8021-1.0796-2.7031-0.57063-2.1036-0.97192-3.4568-0.64122-5.6439 0.53552-3.5416 3.7385-5.9364 6.1153-8.4624 2.1133-1.5195 4.5218-2.537 7.1039-2.9425l-4.2536 5.9929z" stroke="#a882b1" fill="#a0a0a4"/>
      <path id="path4620" d="m84.418 887.26c-1.7476-0.36025-3.5367 0.45971-5.0669 1.2127-3.1749 1.5624-3.9868 2.2676-7.131 4.3529-4.1041 3.3964-4.9782 3.8021-8.4539 8.0219-0.08919 0.10828 0.20293 0.27177 0.13968 0.39699-0.82422 1.6316-1.9238 3.1148-2.7399 4.7504-1.7432 3.4937-2.1911 5.4157-3.3323 9.0697-0.46878 1.5518-1.9421 6.5776-2.5931 8.1725-0.53007 1.2986-1.2235 2.5242-1.8353 3.7863l-4.679 4.2672c0.62785-1.2395 1.3386-2.4404 1.8836-3.7186 0.83055-1.9482 2.1109-6.305 2.7138-8.2634 1.1605-3.6863 1.6787-5.8011 3.4199-9.3293 2.8047-5.6832 5.6114-8.8137 10.035-14.084 1.3218-1.5748 2.7388-3.0741 4.2357-4.4835 1.4221-1.339 3.0036-2.4978 4.5054-3.7467 3.1783-2.1835 7.689-5.6716 11.652-6.3408 0.62748-0.10595 1.093-0.0338 1.6929 0.0228 0 0-4.447 5.913-4.447 5.913z" stroke="#fdfefc" fill="#4d005d"/>
      <path id="path4622" d="m29.639 933.06c-2.9001 1.4748-5.0742 3.9852-7.179 6.3988 0.86738-0.98609 1.4783-2.2787 2.6021-2.9583 0.84734-0.51235-1.1821 1.5908-1.7178 2.4236-1.8942 2.9448-3.3312 6.0916-4.4 9.4236-0.33906 1.057-0.59599 2.1387-0.89399 3.2081-1.2487 4.7019-1.2532 9.5546-1.1899 14.379 0.01766 1.3473 0.11829 2.6942 0.08543 4.0412-0.03551 1.4554-0.19356 2.9053-0.29033 4.3579-0.3636 1.554-0.57876 3.1503-1.0908 4.6618-3.0684 9.0576-9.5171 15.21-15.812 22.111 0 0 3.1641-5.1645 3.1641-5.1645-0.060518 0.29646-0.3927 1.1061-0.18155 0.88937 3.5364-3.6296 6.6951-8.7746 8.3545-13.565 0.50618-1.4613 0.72343-3.0071 1.0851-4.5107 0.09152-1.422 0.24045-2.8415 0.27454-4.266 0.14713-6.1474-0.88817-12.388 0.83671-18.42 0.92014-3.3798 1.9069-6.6663 3.4579-9.8246 2.3219-4.7281 5.8322-8.6244 9.2341-12.61 2.2808-2.5632 4.6545-5.1969 7.7853-6.7319 0 0-4.1244 6.1564-4.1244 6.1564z" stroke="#cdcea7" fill="#151009"/>
      <path id="path4628" d="m246.08 935.46c-1.5974 0.32023-3.0402 1.0292-4.4087 1.8887-1.9084 1.6588-4.9508 5.0001 3.2079-3.97 0.16258-0.17875-0.24115 0.42098-0.3279 0.64651-0.21547 0.56025-0.25783 1.0025-0.35509 1.5897-0.24386 2.4216-0.18399 4.8604-0.2898 7.29-0.3599 7.97-4.7652 14.255-9.0189 20.7-5.5932 7.5267-2.6961 3.7966-8.6987 11.185l-4.1503 3.6188c5.9174-7.2595 3.0827-3.6069 8.5168-10.948 3.9458-6.0385 8.1359-12.135 8.3608-19.598 0.053-2.3934-0.0591-4.7876 0.0724-7.1793 0.0541-0.49472 0.12957-2.0607 0.42284-2.446 2.0767-2.7286 3.527-5.2392 6.2062-6.9786 1.484-0.82514 3.0489-1.4749 4.7018-1.8822l-4.2392 6.0837z" stroke="#c6f465" fill="#201404"/>
    </g>
  </g>
  <metadata>
    <rdf:RDF>
      <cc:Work>
        <dc:format>image/svg+xml</dc:format>
        <dc:type rdf:resource="http://purl.org/dc/dcmitype/StillImage"/>
        <cc:license rdf:resource="http://creativecommons.org/licenses/publicdomain/"/>
        <dc:publisher>
          <cc:Agent rdf:about="http://openclipart.org/">
            <dc:title>Openclipart</dc:title>
          </cc:Agent>
        </dc:publisher>
      </cc:Work>
      <cc:License rdf:about="http://creativecommons.org/licenses/publicdomain/">
        <cc:permits rdf:resource="http://creativecommons.org/ns#Reproduction"/>
        <cc:permits rdf:resource="http://creativecommons.org/ns#Distribution"/>
        <cc:permits rdf:resource="http://creativecommons.org/ns#DerivativeWorks"/>
      </cc:License>
    </rdf:RDF>
  </metadata>
</svg>
