<?xml version="1.0"?>
<svg xmlns:rdf="http://www.w3.org/1999/02/22-rdf-syntax-ns#" xmlns="http://www.w3.org/2000/svg" xmlns:cc="http://web.resource.org/cc/" xmlns:xlink="http://www.w3.org/1999/xlink" xmlns:dc="http://purl.org/dc/elements/1.1/" id="Calque_1" xml:space="preserve" viewBox="0 0 224 410" y="0px" version="1.0" enable-background="new 0 0 224 410" x="0px">
<linearGradient id="SVGID_1_" y2="403.75" gradientUnits="userSpaceOnUse" x2="112" y1="13.75" x1="112">
	<stop stop-color="#fff" offset="0"/>
	<stop stop-color="#B3B3B3" offset="1"/>
</linearGradient>
<rect width="224" height="410" fill="url(#SVGID_1_)"/>
<path d="m84.281 161.21c-2.923 10.93-6.003 18.539-8.864 27.123-5 15-14 42-14 66v124.67c0 10.904 2.072 14.394 5.294 15.773v-116.4c0-26.227 1.405-44.958 12.177-84.765 2.724-10.064 5.177-21.355 7.33-32.738-0.653 0.12-1.299 0.23-1.937 0.35z"/>
<linearGradient id="SVGID_2_" y2="254.42" gradientUnits="userSpaceOnUse" x2="162.75" y1="254.42" x1="130.39">
	<stop stop-color="#080807" offset="0"/>
	<stop stop-color="#0A0B0A" offset=".1721"/>
	<stop stop-color="#101510" offset=".3879"/>
	<stop stop-color="#172215" offset=".6271"/>
	<stop stop-color="#1E361A" offset=".8815"/>
	<stop stop-color="#22421B" offset="1"/>
</linearGradient>
<path d="m140.24 217.02c1.404 6.089 5.151 66.034 5.151 78.21v53.767h17.36v-94.666c0-24-9-51-14-66-2.858-8.576-5.935-16.177-8.855-27.09-3.006-0.56-6.184-1.031-9.505-1.404 0.651 8.802 1.292 15.212 1.887 17.846 3.26 14.51 6.54 33.25 7.95 39.33z" fill="url(#SVGID_2_)"/>
<radialGradient id="SVGID_3_" gradientUnits="userSpaceOnUse" cy="213" cx="104.33" r="70.036">
	<stop stop-color="#22421B" offset="0"/>
	<stop stop-color="#213F1B" offset=".1743"/>
	<stop stop-color="#1E361A" offset=".3875"/>
	<stop stop-color="#192817" offset=".621"/>
	<stop stop-color="#101610" offset=".8673"/>
	<stop stop-color="#080807" offset="1"/>
</radialGradient>
<path d="m140.24 217.02c-1.404-6.089-4.684-24.82-7.962-39.338-0.595-2.634-1.235-9.044-1.887-17.846-3.61-0.406-7.386-0.695-11.287-0.855-2.327-0.096-4.694-0.15-7.102-0.15-3.739 0-7.39 0.122-10.925 0.348-5.253 0.336-10.238 0.912-14.857 1.688-2.153 11.383-4.606 22.674-7.33 32.738-10.771 39.807-12.177 58.539-12.177 84.765v70.62h78.678v-53.767c0-12.17-3.75-72.12-5.15-78.21z" fill="url(#SVGID_3_)"/>
<linearGradient id="SVGID_4_" y2="286.31" gradientUnits="userSpaceOnUse" x2="80.136" y1="190.81" x1="83.636">
	<stop stop-color="#94A55B" offset=".1264"/>
	<stop stop-color="#567D4B" offset=".5549"/>
	<stop stop-color="#132F11" offset=".9011"/>
</linearGradient>
<path d="m78.888 193.61c-10.771 39.807-12.177 58.539-12.177 84.765v78.094c8.255 1.689 16.729 3.039 24.353 3.534 0-25.556 4.539-54.034 0-61.958-10.73-18.732 2.81-81.02 4.215-91.322 0.462-3.39 1.433-10.894 2.541-19.875-6.365 0.315-12.288 0.835-17.565 1.522-0.449 1.79-0.904 3.54-1.367 5.25z" fill="url(#SVGID_4_)"/>
<linearGradient id="SVGID_5_" y2="373.31" gradientUnits="userSpaceOnUse" x2="162.75" y1="373.31" x1="66.711">
	<stop stop-color="#080807" offset="0"/>
	<stop stop-color="#0A0B09" offset=".2189"/>
	<stop stop-color="#0E110D" offset=".4135"/>
	<stop stop-color="#131B13" offset=".5989"/>
	<stop stop-color="#192917" offset=".7785"/>
	<stop stop-color="#203C1B" offset=".9525"/>
	<stop stop-color="#22421B" offset="1"/>
</linearGradient>
<path d="m112.29 397.62c-0.068 0-0.141-0.001-0.209-0.001s-0.141 0.001-0.209 0.001h0.42zm-45.579-48.62v45.773c1.111 0.476 2.358 0.702 3.706 0.894 2.271 0.322 10.968 0.913 20.646 1.362 7.209 0.334 14.964 0.589 21.02 0.595 4.918-0.005 10.957-0.174 16.914-0.416 5.945-0.242 11.806-0.557 16.392-0.854 4.073-0.264 7.143-0.514 8.36-0.687 5.254-0.745 9-2.001 9-16.667v-30h-96.029z" fill="url(#SVGID_5_)"/>
<linearGradient id="SVGID_6_" y2="76.996" gradientUnits="userSpaceOnUse" x2="92.825" y1="120.5" x1="90.658">
	<stop stop-color="#864819" offset="0"/>
	<stop stop-color="#7D431A" offset=".1504"/>
	<stop stop-color="#64351A" offset=".4243"/>
	<stop stop-color="#3F2115" offset=".7882"/>
	<stop stop-color="#29140E" offset="1"/>
</linearGradient>
<path d="m96.684 86.832c0.109-1.855 0.04-5.973-0.13-11.257-1.053 0.145-2.062 0.299-2.981 0.471 0.06 0.064 0.104 0.142 0.167 0.204 0 7 1.011 21.083-3.322 53.083-1.854 13.687-3.951 23.708-6.136 31.877 0.638-0.118 1.284-0.231 1.937-0.341 6.365-33.64 10.114-68.09 10.465-74.038z" fill="url(#SVGID_6_)"/>
<linearGradient id="SVGID_7_" y2="117.93" gradientUnits="userSpaceOnUse" x2="139.89" y1="117.93" x1="86.218">
	<stop stop-color="#864819" offset=".0769"/>
	<stop stop-color="#91531D" offset=".0993"/>
	<stop stop-color="#AF732C" offset=".14"/>
	<stop stop-color="#E6AF51" offset=".1942"/>
	<stop stop-color="#F8C35F" offset=".2088"/>
	<stop stop-color="#F1BD5D" offset=".2146"/>
	<stop stop-color="#9D713D" offset=".2994"/>
	<stop stop-color="#664127" offset=".3756"/>
	<stop stop-color="#432619" offset=".4404"/>
	<stop stop-color="#2F1811" offset=".4913"/>
	<stop stop-color="#29140E" offset=".522"/>
	<stop stop-color="#462516" offset=".5943"/>
	<stop stop-color="#68371B" offset=".681"/>
	<stop stop-color="#7E441A" offset=".7477"/>
	<stop stop-color="#864819" offset=".7857"/>
	<stop stop-color="#8E501A" offset=".824"/>
	<stop stop-color="#A7661E" offset=".8825"/>
	<stop stop-color="#D38F29" offset=".9534"/>
	<stop stop-color="#F8B334" offset="1"/>
</linearGradient>
<path d="m133.75 129.33c-4.333-32-3.322-46.083-3.322-53.083 0.062-0.062 0.107-0.14 0.167-0.204-1.355-0.253-2.88-0.475-4.515-0.667-2.171-0.256-4.56-0.453-7.109-0.581-2.196-0.111-4.498-0.175-6.887-0.175-2.424 0-4.758 0.066-6.982 0.18-3.131 0.16-6.015 0.425-8.547 0.773 0.17 5.284 0.239 9.402 0.13 11.257-0.351 5.948-4.1 40.396-10.466 74.038 4.619-0.776 9.604-1.352 14.857-1.688 3.535-0.226 7.186-0.348 10.925-0.348 2.407 0 4.774 0.055 7.102 0.15 3.901 0.16 7.677 0.449 11.287 0.855 3.321 0.374 6.499 0.845 9.505 1.404-2.2-8.17-4.3-18.2-6.15-31.91z" fill="url(#SVGID_7_)"/>
<path d="m68.126 381l22.947 0.916s2.865 9.517 7.027 10.184c4.215 0.676 24.942 2.419 24.942 2.419l-0.319 0.679s-31.651-1.553-36.334-1.553-18.26-0.01-18.26-12.65z" fill="#46424E"/>
<path stroke="#E2001A" stroke-width=".7089" d="m91.083 173c0-11.387 9.402-20.618 21-20.618s21 9.231 21 20.618 1.333 20.618-21 20.618c-21.33 0-20.997-9.23-20.997-20.62z" fill="none"/>
<path stroke="#E2001A" stroke-width=".7089" d="m91.083 173c0-11.387 9.402-20.618 21-20.618s21 9.231 21 20.618 1.333 20.618-21 20.618c-21.33 0-20.997-9.23-20.997-20.62z" fill="none"/>
<linearGradient id="SVGID_8_" y2="49.529" gradientUnits="userSpaceOnUse" x2="133.08" y1="49.529" x1="91.083">
	<stop stop-color="#864819" offset=".0055"/>
	<stop stop-color="#91531D" offset=".0409"/>
	<stop stop-color="#AF732C" offset=".1054"/>
	<stop stop-color="#E6AF51" offset=".1911"/>
	<stop stop-color="#F8C35F" offset=".2143"/>
	<stop stop-color="#29140E" offset=".5165"/>
	<stop stop-color="#462516" offset=".6475"/>
	<stop stop-color="#68371B" offset=".8047"/>
	<stop stop-color="#7E441A" offset=".9255"/>
	<stop stop-color="#864819" offset=".9945"/>
</linearGradient>
<path d="m132.6 71.725c0.391-1.84 0.479-3.857 0.479-5.725v-27.333s-2.285-8.018-7.229-9.578c-2.286-0.722-5.715-1.685-13.771-1.755-8.057 0.071-11.485 1.034-13.771 1.755-4.943 1.561-7.229 7.578-7.229 9.578s0 23.667 0 27.333c0 1.868 0.088 3.885 0.479 5.725 4.741-1.123 12.167-1.847 20.521-1.847s15.78 0.724 20.52 1.847z" fill="url(#SVGID_8_)"/>
<linearGradient id="SVGID_9_" y2="72.962" gradientUnits="userSpaceOnUse" x2="132.6" y1="72.962" x1="91.562">
	<stop stop-color="#381D13" offset="0"/>
	<stop stop-color="#864819" offset=".1868"/>
	<stop stop-color="#79411A" offset=".2191"/>
	<stop stop-color="#552D19" offset=".318"/>
	<stop stop-color="#3C1F14" offset=".405"/>
	<stop stop-color="#2E1710" offset=".476"/>
	<stop stop-color="#29140E" offset=".522"/>
	<stop stop-color="#2B150F" offset=".6076"/>
	<stop stop-color="#331A11" offset=".691"/>
	<stop stop-color="#402115" offset=".7735"/>
	<stop stop-color="#542C19" offset=".8555"/>
	<stop stop-color="#6D3A1B" offset=".9363"/>
	<stop stop-color="#864819" offset="1"/>
</linearGradient>
<path d="m130.59 76.046c1.033-1.129 1.654-2.645 2.011-4.321-4.741-1.123-12.167-1.847-20.521-1.847s-15.78 0.724-20.521 1.847c0.356 1.676 0.978 3.191 2.011 4.321 4.705-0.878 11.259-1.424 18.511-1.424s13.81 0.545 18.51 1.424z" fill="url(#SVGID_9_)"/>
<path stroke="#29140E" stroke-width=".5" stroke-dasharray="1" d="m130.02 75.95c1.001-1.094 1.603-2.562 1.948-4.186-4.593-1.088-11.787-1.789-19.88-1.789-8.094 0-15.287 0.701-19.88 1.789 0.346 1.623 0.947 3.091 1.948 4.186 4.558-0.851 10.906-1.379 17.932-1.379s13.37 0.528 17.93 1.379z" fill="none"/>
<linearGradient id="SVGID_10_" y2="173" gradientUnits="userSpaceOnUse" x2="149.01" y1="173" x1="75.157">
	<stop stop-color="#EEBC8E" offset="0"/>
	<stop stop-color="#E18C43" offset="1"/>
</linearGradient>
<path stroke="#864819" stroke-width=".7089" d="m148.75 188.33c-2.663-7.99-5.516-15.13-8.256-24.895-0.202-0.721-0.403-1.461-0.604-2.212-3.005-0.557-6.182-1.026-9.5-1.397-0.787-0.088-1.581-0.171-2.384-0.248-3.851-4.4-9.549-7.198-15.922-7.198s-12.071 2.798-15.922 7.198c-3.467 0.333-6.792 0.77-9.945 1.302-0.654 0.11-1.3 0.225-1.938 0.343-0.137 0.51-0.273 1.012-0.41 1.507-2.799 10.125-5.724 17.42-8.45 25.6-0.085 0.255-0.174 0.521-0.261 0.783 1.622-0.267 3.32-0.518 5.098-0.75 4.001-0.521 8.375-0.945 13.031-1.257 2.466 4.004 7.693 6.509 18.798 6.509 11.604 0 16.811-2.496 19.144-6.487 1.057 0.072 2.098 0.151 3.124 0.235 5.373 0.438 10.307 1.032 14.659 1.75-0.09-0.25-0.17-0.52-0.26-0.78z" fill="url(#SVGID_10_)"/>
<g stroke="#864819" stroke-width=".5" fill="none">
	<path d="m92.277 166.2c-2.527 0.309-4.97 0.675-7.31 1.095-0.872 0.156-1.729 0.321-2.572 0.492-1.629 5.322-3.281 9.924-4.896 14.507 1.403-0.207 2.858-0.402 4.363-0.583 2.981-0.36 6.15-0.668 9.478-0.918-0.273-2.404-0.257-5.034-0.257-7.792 0.001-2.39 0.435-4.68 1.194-6.81z"/>
	<path d="m131.89 166.2c0.76 2.132 1.193 4.414 1.193 6.801 0 2.753 0.075 5.378-0.122 7.779 0.002 0.007 0.003 0.015 0.005 0.022 4.954 0.375 9.558 0.879 13.701 1.491-1.614-4.583-3.267-9.186-4.896-14.507-3.09-0.62-6.4-1.15-9.87-1.58z"/>
</g>
<path stroke="#864819" stroke-width=".6114" d="m76.046 186.47c9.766-1.542 22.329-2.471 36.037-2.471s26.272 0.928 36.038 2.471" fill="none"/>
<path stroke="#864819" stroke-width=".8015" d="m83.78 163.05c8.297-1.567 17.937-2.464 28.22-2.464 10.356 0 20.059 0.91 28.396 2.498" fill="none"/>
<linearGradient id="SVGID_11_" y2="173" gradientUnits="userSpaceOnUse" x2="130.48" y1="173" x1="93.706">
	<stop stop-color="#EEBC8E" offset="0"/>
	<stop stop-color="#E18C43" offset="1"/>
</linearGradient>
<path stroke="#864819" stroke-width=".6204" d="m93.706 173c0-9.965 8.229-18.044 18.378-18.044s18.378 8.079 18.378 18.044 1.167 18.044-18.378 18.044c-18.666 0.01-18.374-8.07-18.374-18.04z" fill="url(#SVGID_11_)"/>
<linearGradient id="SVGID_12_" y2="334.58" gradientUnits="userSpaceOnUse" x2="162.84" y1="334.58" x1="61.163">
	<stop stop-color="#EEBC8E" offset="0"/>
	<stop stop-color="#E18C43" offset="1"/>
</linearGradient>
<path d="m112 379.16c4.263 0 42.607-1.075 45.987-1.256 3.381-0.18 3.526-2.328 3.526-4.479 0-2.149 1.323-41.232 1.323-47.326 0-6.093-2.646-10.448-4.85-12.598-2.204-2.151-18.154-15.454-27.334-19.287-6.11-2.54-14.1-4.2-18.66-4.2s-12.55 1.663-18.653 4.213c-9.18 3.833-25.13 17.136-27.334 19.287-2.204 2.149-4.85 6.505-4.85 12.598 0 6.094 1.323 45.177 1.323 47.326 0 2.151 0.146 4.3 3.526 4.479 3.381 0.17 41.728 1.25 45.988 1.25z" fill="url(#SVGID_12_)"/>
<path stroke="#864819" stroke-width=".6699" d="m112 375.66c4.263 0 42.607-0.991 45.987-1.157 3.381-0.166 3.526-2.148 3.526-4.133 0-1.983 1.323-38.04 1.323-43.661s-2.646-7.77-4.85-9.753c-2.204-1.984-18.154-16.126-27.334-19.663-6.104-2.352-14.098-4.629-18.653-4.629s-12.55 2.277-18.653 4.629c-9.18 3.537-25.13 17.679-27.334 19.663-2.204 1.983-4.85 4.132-4.85 9.753s1.323 41.678 1.323 43.661c0 1.984 0.146 3.967 3.526 4.133 3.371 0.17 41.718 1.16 45.978 1.16z" fill="none"/>
<linearGradient id="SVGID_13_" y2="334" gradientUnits="userSpaceOnUse" x2="161.21" y1="334" x1="62.79">
	<stop stop-color="#D09865" offset="0"/>
	<stop stop-color="#864819" offset="1"/>
</linearGradient>
<path stroke="#864819" d="m112 369.42c4.126 0 41.243-0.854 44.516-0.996s3.414-1.849 3.414-3.556 1.28-31.011 1.28-35.848-2.561-6.686-4.694-8.393-21.195-14.651-26.459-17.781-13.65-4.26-18.06-4.26-12.793 1.138-18.057 4.268-24.325 16.074-26.459 17.781-4.694 3.556-4.694 8.393 1.28 34.141 1.28 35.848 0.142 3.413 3.414 3.556 40.386 0.99 44.516 0.99z" fill="url(#SVGID_13_)"/>
<g fill="#864819">
	<path d="m144.21 175.28c-0.032-0.094-0.064-0.188-0.097-0.282l-0.058 0.282h0.16z"/>
	<path d="m78.969 178.38v-0.217c-0.005 0-0.009-0.004-0.014-0.005-0.025 0.074-0.052 0.148-0.077 0.222h0.091z"/>
	<path d="m79.658 177.08c0.379 0.984 0.933 1.477 1.661 1.477 0.254 0 0.485-0.057 0.693-0.17 0.207-0.113 0.418-0.291 0.631-0.533v-2.432c0-0.426 0.019-0.711 0.056-0.855 0.055-0.203 0.153-0.305 0.298-0.305h0.07v-0.223h-1.461v0.223c0.151 0 0.258 0.032 0.318 0.097s0.104 0.158 0.134 0.281c0.028 0.123 0.043 0.384 0.043 0.782v2.297c-0.121 0.145-0.246 0.254-0.376 0.328s-0.264 0.111-0.403 0.111c-0.237 0-0.469-0.146-0.694-0.437s-0.407-0.749-0.547-1.374c-0.069-0.313-0.121-0.643-0.156-0.989-0.137 0.398-0.273 0.794-0.409 1.188 0.048 0.16 0.079 0.35 0.142 0.51z"/>
	<path d="m82.148 171.35c0.156 0.316 0.283 0.787 0.382 1.412h0.097l-0.097-2.508h-0.104c-0.005 0.199-0.021 0.333-0.046 0.401-0.024 0.068-0.055 0.103-0.09 0.103s-0.105-0.041-0.209-0.123c-0.206-0.16-0.365-0.264-0.478-0.311h-0.004c-0.04 0.125-0.08 0.249-0.12 0.374 0.264 0.08 0.489 0.29 0.669 0.66z"/>
	<path d="m85.869 170.65h0.131c0.148 0 0.257 0.082 0.325 0.246 0.052 0.121 0.078 0.426 0.078 0.914v4.582l-2.307-5.959h-1.024v0.217c0.109 0 0.191 0.018 0.245 0.053 0.109 0.074 0.192 0.154 0.249 0.24s0.14 0.264 0.249 0.533v5.525c0 0.445-0.021 0.73-0.062 0.855-0.066 0.203-0.181 0.305-0.342 0.305h-0.131v0.217h1.313v-0.217h-0.134c-0.146 0-0.255-0.082-0.325-0.246-0.051-0.121-0.075-0.426-0.075-0.914v-4.893l2.487 6.398h0.101v-6.697c0-0.445 0.02-0.73 0.061-0.855 0.067-0.203 0.18-0.305 0.34-0.305h0.134v-0.217h-1.313v0.21z"/>
	<path d="m90.148 177.48c-0.089 0.184-0.182 0.307-0.278 0.369s-0.252 0.094-0.465 0.094h-0.64c-0.104 0-0.175-0.022-0.212-0.067s-0.062-0.105-0.078-0.182c-0.015-0.076-0.021-0.29-0.021-0.642v-2.619h0.829c0.157 0 0.274 0.039 0.351 0.117s0.131 0.186 0.164 0.322c0.025 0.109 0.052 0.357 0.078 0.744h0.103v-2.766h-0.103c-0.012 0.453-0.065 0.77-0.162 0.949-0.072 0.137-0.216 0.205-0.431 0.205h-0.829v-3.141h1.034c0.188 0 0.318 0.029 0.393 0.088 0.093 0.082 0.163 0.201 0.21 0.357 0.048 0.156 0.091 0.443 0.13 0.861h0.108l-0.042-1.74h-2.907v0.217h0.133c0.156 0 0.268 0.078 0.334 0.234 0.049 0.117 0.072 0.428 0.072 0.932v5.162c0 0.387-0.011 0.643-0.031 0.768-0.021 0.125-0.062 0.219-0.121 0.281-0.08 0.09-0.164 0.135-0.254 0.135h-0.133v0.217h2.907l0.326-1.992h-0.111c-0.121 0.49-0.238 0.85-0.354 1.09z"/>
	<path d="m137.81 177.71c-0.188 0.221-0.403 0.331-0.648 0.331-0.282 0-0.533-0.141-0.753-0.422s-0.384-0.686-0.493-1.213-0.164-1.15-0.164-1.869c0-0.871 0.058-1.6 0.174-2.186 0.115-0.586 0.274-1.013 0.477-1.28s0.429-0.401 0.68-0.401c0.298 0 0.554 0.178 0.768 0.533 0.213 0.355 0.377 0.938 0.492 1.746h0.087l-0.087-2.701h-0.097c-0.021 0.188-0.056 0.334-0.104 0.439-0.037 0.074-0.081 0.111-0.131 0.111-0.033 0-0.089-0.043-0.167-0.129-0.265-0.281-0.534-0.422-0.807-0.422-0.351 0-0.674 0.183-0.97 0.548s-0.528 0.88-0.697 1.544-0.253 1.393-0.253 2.186c0 0.984 0.128 1.84 0.384 2.566 0.343 0.977 0.827 1.465 1.452 1.465 0.348 0 0.646-0.164 0.899-0.492 0.252-0.328 0.473-0.846 0.662-1.553l-0.086-0.117c-0.22 0.66-0.42 1.09-0.61 1.31z"/>
	<path d="m142.71 170.43h-0.11c0.023 0.073 0.047 0.145 0.069 0.217h0.04v-0.22z"/>
	<path d="m141.1 170.43v0.217h0.134c0.089 0 0.173 0.047 0.253 0.141 0.06 0.07 0.099 0.154 0.117 0.252 0.023 0.129 0.036 0.396 0.036 0.803v2.273h-1.753v-2.273c0-0.391 0.011-0.649 0.033-0.776s0.062-0.222 0.119-0.284c0.08-0.09 0.164-0.135 0.254-0.135h0.136v-0.217h-1.616v0.217h0.133c0.09 0 0.175 0.047 0.257 0.141 0.057 0.07 0.095 0.154 0.113 0.252 0.024 0.129 0.037 0.396 0.037 0.803v5.127c0 0.477-0.022 0.777-0.067 0.902-0.07 0.191-0.184 0.287-0.34 0.287h-0.133v0.217h1.616v-0.217h-0.136c-0.09 0-0.174-0.047-0.254-0.141-0.06-0.07-0.098-0.154-0.116-0.252-0.024-0.129-0.036-0.395-0.036-0.797v-2.42h1.753v2.42c0 0.477-0.023 0.777-0.07 0.902-0.07 0.191-0.183 0.287-0.336 0.287h-0.134v0.217h1.614v-0.217h-0.134c-0.089 0-0.175-0.047-0.256-0.141-0.058-0.07-0.096-0.154-0.114-0.252-0.024-0.129-0.036-0.395-0.036-0.797v-5.127c0-0.391 0.011-0.649 0.032-0.776s0.062-0.222 0.12-0.284c0.08-0.09 0.165-0.135 0.254-0.135h0.094c-0.022-0.072-0.046-0.144-0.069-0.217h-1.48z"/>
	<path d="m144.06 175.28l0.058-0.282c-0.055-0.161-0.109-0.319-0.165-0.481l-0.46 2.269c-0.115 0.574-0.22 0.955-0.314 1.143-0.046 0.094-0.148 0.17-0.306 0.229v0.217h1.188v-0.217c-0.182-0.027-0.3-0.087-0.354-0.179s-0.082-0.198-0.082-0.319c0-0.152 0.031-0.383 0.095-0.691l0.256-1.254h0.389c-0.05-0.144-0.1-0.289-0.148-0.434h-0.18z"/>
</g>
<polygon points="124.75 45.723 122.93 48.366 121.1 45.723 122.93 43.08" fill="#C6A549"/>
<polygon points="126.99 48.893 125.16 51.536 123.34 48.893 125.16 46.25" fill="#C6A549"/>
<polygon points="125.02 53.072 123.19 55.715 121.36 53.072 123.19 50.429" fill="#C6A549"/>
<polygon points="127.81 56.055 125.99 58.699 124.16 56.055 125.99 53.412" fill="#C6A549"/>
<polygon points="126.43 41.621 124.6 44.264 122.78 41.621 124.6 38.978" fill="#C6A549"/>
<polygon points="95.268 49.237 93.546 51.739 91.804 49.224 93.527 46.722" fill="#EECF91"/>
<polygon points="97.402 52.254 95.681 54.755 93.938 52.241 95.661 49.738" fill="#EECF91"/>
<polygon points="95.544 56.213 93.822 58.715 92.081 56.2 93.804 53.698" fill="#EECF91"/>
<polygon points="98.209 59.054 96.486 61.556 94.746 59.041 96.468 56.539" fill="#EECF91"/>
<polygon points="96.846 45.35 95.123 47.852 93.383 45.337 95.104 42.835" fill="#EECF91"/>
<linearGradient id="SVGID_14_" y2="337.78" gradientUnits="userSpaceOnUse" x2="158.34" y1="337.78" x1="64.979">
	<stop stop-color="#864819" offset="0"/>
	<stop stop-color="#29140E" offset="1"/>
</linearGradient>
<path d="m156.8 331.59c-2.14-4.89-7.365-7.378-11.342-7.154 0.799-2.306-0.149-5.107-3.359-6.285-4.525-1.66-8.668 0.551-10.762 1.727-2.257 1.27-5.569 3.694-7.404 4.769-1.083 0.634-4.537 2.682-7.655 1.341-2.058-0.884-2.727-2.929-1.69-4.527 0.451 0.258 0.982 0.486 1.606 0.672 3.126 0.934 7.584 0.383 9.403-2.439 0.853-1.324 0.226-2.73-2.186-2.73-3.188 0-6.345 1.277-8.675 3.922-0.048 0.055-0.092 0.118-0.138 0.178-1.736-0.922-2.056-2.596-1.785-3.79 0.405-1.79 2.143-2.253 3.172-1.77 0.142 0.065 0.21-0.022 0.083-0.095-1.011-0.563-3.017 0-3.475 1.78-0.363 1.412 0.026 3.045 1.815 4.161-0.833 1.427-0.795 3.857 1.701 4.9 3.219 1.346 7.304-0.116 8.904-1.23 1.122-0.781 4.015-2.663 7.463-4.968 3.297-2.203 6.128-3.019 9.729-1.635 2.602 1 3.656 3.803 2.605 6.084-1.87 0.258-3.383 1.165-4.03 2.768-2.312 0.322-4.984-0.436-4.826-3.348 0.026-0.466-0.188-0.301-0.218-0.065-0.371 2.82 2.265 4.142 4.857 3.993-0.964 3.878 4.456 6.081 7.118 3.233 0.183-0.223 0.024-0.212-0.122-0.076-2.411 2.237-7.633 0.758-6.638-3.187 1.146-0.126 2.256-0.54 3.063-1.244 0.613-0.536 1.065-1.195 1.353-1.907 3.542-0.297 8.253 1.812 10.655 7.133 2.355 5.212 1.105 13.275-4.161 17.438-0.216-2.001-1.22-3.846-2.878-5.092-0.226-0.17-0.47-0.319-0.724-0.455-0.057-1.555-0.946-3.115-2.862-3.882-0.169-0.068-0.491 0.003-0.145 0.13 1.79 0.64 2.641 2.137 2.752 3.624-3.253-1.537-8.241-0.471-7.485 2.831 0.421 1.838 3.471 2.909 6.209 0.738 0.952-0.753 1.485-1.919 1.531-3.12 0.142 0.075 0.278 0.155 0.407 0.244 1.677 1.161 2.706 3.132 2.825 5.278-10.102 7.389-21.153 2.94-22.486-3.243-0.6-2.776 1.747-3.783 2.828-3.783 2.71 0 3.485 1.684 3.142 3.019-0.062 0.241 0.063 0.241 0.083 0.111 0.681-2.636-1.852-3.538-3.266-3.482-2.992 0.117-4.891 3.271-1.748 7.264 3.811 4.839 13.155 6.214 21.435 1.113-0.389 5.024-5.834 10.47-19.687 8.684-5.491-0.706-13.188-3.5-20.137-3.5-6.947 0-14.645 2.794-20.138 3.5-13.851 1.786-19.297-3.659-19.686-8.684 8.279 5.101 17.625 3.726 21.435-1.113 3.143-3.992 1.247-7.146-1.749-7.264-1.413-0.056-3.944 0.847-3.265 3.482 0.021 0.13 0.146 0.13 0.083-0.111-0.344-1.335 0.432-3.019 3.142-3.019 1.081 0 3.428 1.007 2.829 3.783-1.334 6.184-12.385 10.632-22.487 3.243 0.119-2.146 1.149-4.117 2.825-5.278 0.129-0.089 0.267-0.169 0.408-0.244 0.044 1.201 0.579 2.367 1.53 3.12 2.738 2.171 5.79 1.1 6.209-0.738 0.756-3.302-4.231-4.368-7.485-2.831 0.113-1.487 0.962-2.984 2.752-3.624 0.348-0.127 0.025-0.198-0.144-0.13-1.918 0.767-2.804 2.327-2.862 3.882-0.254 0.136-0.498 0.285-0.724 0.455-1.659 1.246-2.663 3.091-2.879 5.092-5.267-4.162-6.517-12.226-4.162-17.438 2.404-5.32 7.114-7.43 10.657-7.133 0.286 0.712 0.738 1.371 1.353 1.907 0.808 0.704 1.916 1.118 3.063 1.244 0.995 3.944-4.227 5.424-6.638 3.187-0.147-0.136-0.306-0.146-0.124 0.076 2.663 2.848 8.083 0.645 7.119-3.233 2.594 0.148 5.228-1.173 4.858-3.993-0.03-0.235-0.245-0.4-0.218 0.065 0.158 2.912-2.516 3.67-4.826 3.348-0.648-1.603-2.161-2.51-4.03-2.768-1.051-2.281 0.003-5.084 2.604-6.084 3.601-1.384 6.433-0.568 9.729 1.635 3.449 2.305 6.341 4.187 7.465 4.968 1.598 1.114 5.684 2.576 8.903 1.23 2.495-1.043 2.535-3.474 1.7-4.9 1.791-1.116 2.179-2.749 1.815-4.161-0.458-1.78-2.463-2.344-3.474-1.78-0.128 0.072-0.057 0.16 0.083 0.095 1.028-0.483 2.767-0.021 3.172 1.77 0.271 1.194-0.05 2.868-1.785 3.79-0.046-0.06-0.091-0.123-0.139-0.178-2.33-2.645-5.485-3.922-8.675-3.922-2.41 0-3.037 1.406-2.184 2.73 1.817 2.822 6.276 3.373 9.401 2.439 0.625-0.186 1.155-0.414 1.606-0.672 1.036 1.599 0.367 3.644-1.689 4.527-3.12 1.341-6.572-0.707-7.654-1.341-1.835-1.074-5.148-3.499-7.407-4.769-2.091-1.176-6.234-3.387-10.759-1.727-3.212 1.178-4.159 3.979-3.361 6.285-3.976-0.224-9.201 2.265-11.341 7.154-3.455 7.898-0.774 14.924 4.89 18.666 0.148 5.33 5.886 11.236 19.863 9.924 4.659-0.437 14.813-4.023 20.388-4.023s15.73 3.587 20.387 4.023c13.978 1.312 19.717-4.594 19.863-9.924 5.66-3.77 8.35-10.79 4.89-18.69zm-33.83-14.41c2.628-0.145 4.116 1.303 0.899 3.514-1.784 1.226-5.517 1.706-8.559 0.673-0.183-0.062-0.352-0.134-0.511-0.209 1.76-2.31 5.09-3.8 8.17-3.97zm20.35 9.15c-0.527 0.396-1.301 0.704-2.151 0.87 0.587-1.307 1.887-2.153 3.52-2.448-0.31 0.58-0.76 1.12-1.37 1.58zm3.43 20.52c-2.646 2.094-5.736 1.033-5.861-0.616-0.209-2.72 4.438-3.582 7.136-2.34-0.01 1.18-0.46 2.3-1.28 2.96zm-64.318-0.62c-0.126 1.649-3.218 2.71-5.862 0.616-0.823-0.653-1.276-1.781-1.275-2.956 2.696-1.24 7.344-0.38 7.137 2.34zm17.015-25.53c-3.217-2.211-1.729-3.658 0.899-3.514 3.079 0.172 6.407 1.655 8.17 3.978-0.16 0.075-0.327 0.147-0.512 0.209-3.05 1.02-6.78 0.54-8.563-0.68zm-17.301 6.5c-0.849-0.166-1.622-0.474-2.149-0.87-0.607-0.458-1.056-0.999-1.369-1.578 1.631 0.29 2.933 1.14 3.518 2.45z" fill="url(#SVGID_14_)"/>
	<linearGradient id="SVGID_15_" y2="307.73" gradientUnits="userSpaceOnUse" x2="124.38" y1="307.73" x1="100.48">
		<stop stop-color="#864819" offset="0"/>
		<stop stop-color="#29140E" offset="1"/>
	</linearGradient>
	<path d="m118.22 301.62c-0.245-0.286-1.356-0.575-1.936-0.628-0.372-0.034-0.695-0.236-0.929-0.39-0.362-0.236-0.692-0.123-0.717-0.091s-0.126 0.438 0.018 0.672c0.143 0.234 0.143 0.37 0.087 0.516-0.097 0.339-0.828 0.695-0.926 0.841-0.096 0.146-0.29 0.387-0.048 0.483 0.06 0.024-0.024 0.062-0.107 0.132-0.086 0.074-0.643 0.787-0.666 0.945-0.025 0.157-0.135 0.157 0.133 0.181 0.266 0.024 0.048-0.011 0.181-0.011 0.134 0 0.17 0.022 0.072 0.145-0.096 0.12-0.46 0.398-0.532 0.798-0.03 0.17-0.036 0.193 0.158 0.242 0.193 0.048 0.193 0.048 0.291 0.072 0.096 0.023 0.12 0.121 0.022 0.182-0.097 0.06-0.527 0.685-2.043 0.907-1.572 0.229-2.371-0.13-3.748-0.448-1.268-0.292-1.914-0.259-2.831 0.29-0.121 0.072-0.354 0.229-0.629 0.048-2.975-1.934-0.411-3.506 1.307-2.998 0 0 0.934 0.233 1.403 0.482 2.684 1.428 4.011 1.639 5.151 0.653 1.064-0.918 0-1.982-0.098-2.056-0.476-0.356-1.209-0.218-1.378-0.628-0.17-0.412-0.217-0.968-1.04-0.968-0.362 0-0.436 0.193-0.436 0.193s0.242 0.241 0.266 0.604c0.019 0.271 0.188 1.095 1.186 1.016 1.523-0.12 1.677 1.008 1.33 1.354-0.438 0.439-0.924 0.739-1.886 0.436-0.92-0.29-1.742-1.233-2.178-1.716-0.126-0.142-0.266-0.146-0.145 0.072 0.121 0.216 0.054 0.09 0.078 0.155 0.024 0.067-0.006 0.195-0.181 0.048-0.176-0.143-0.781-0.657-0.895-0.7-0.116-0.042-0.177-0.055-0.049 0.097 0.127 0.151 0.133 0.151 0.175 0.225 0.042 0.072 0.042 0.157-0.145 0.035-0.188-0.12-0.646-0.573-1.591-0.743-0.139-0.024-0.404 0.023-0.169 0.17 0.049 0.03 0.085 0.041 0.114 0.091 0.031 0.048 0.043 0.158-0.181 0.097-0.109-0.031-0.678-0.286-1.626-0.135-0.164 0.026-0.311 0.172-0.031 0.219 0.109 0.019 0.048 0.019 0.145 0.042 0.113 0.029 0.129 0.146-0.041 0.134-0.589-0.044-0.921 0.033-1.295 0.38-0.085 0.079-0.258 0.286 0.107 0.219 0.164-0.03 0.147 0 0.249 0.012 0.104 0.011 0.066 0.12-0.079 0.193-0.409 0.205-0.531 0.35-0.676 0.726-0.144 0.369 0.069 0.239 0.199 0.127 0.092-0.078 0.139-0.115 0.211-0.127 0.073-0.013 0.23-0.018 0.115 0.194 0.012-0.021-0.43 0.488-0.417 0.835 0.006 0.174 0.019 0.325 0.176 0.192s0.338-0.169 0.404 0.023c0.184 0.533 0.781 1.332 1.18 1.507 0.193 0.084 0.157 0.097 0.254 0.157 0.096 0.06 0.218 0.217 0.013 0.398-0.424 0.373-0.484 0.973-0.484 1.706 0 0.403 0.061 1.584-0.678 1.668-0.145 0.018-0.401-0.024-0.531 0-0.642 0.121-0.46 0.543-0.46 0.678 0 0.133-0.012 0.193-0.182 0.325-0.169 0.135-0.329 0.246-0.399 0.363-0.068 0.114-0.14 0.283-0.14 0.283s0.128-0.053 0.29-0.022c0.085 0.015 0.091 0.006 0.031 0.079-0.061 0.072-0.381 0.489-0.454 0.621-0.056 0.105-0.11 0.267-0.11 0.267s0.095-0.013 0.16-0.023c0.07-0.013 0.021-0.047 0.06 0.023 0.046 0.082-0.079 0.344-0.079 0.344s0.073-0.008 0.158-0.059c0.061-0.036 0.316-0.194 0.29 0.097-0.013 0.133-0.387 1.306 0.835 1.125 0.622-0.094 1.644-0.025 1.789-0.037 0.146-0.012 0.497-0.265 0.062-0.593-0.437-0.325-0.908-0.192-1.029-0.242-0.206-0.082-0.624-0.276-0.351-0.761 0.109-0.194 0.375-0.871 0.303-1.112-0.073-0.242 1.229-0.307 1.814-0.774 0.061-0.049 0.556 0.302 2.394-0.956 0.109 0.362 0.858 0.46 1.04 1.088 0.066 0.229 0.145 0.662-0.241 0.63-0.291-0.025-0.834 0.314 0.012 0.883-0.145 0.205-0.411 0.448-0.061 0.931 0.044 0.06 0.229 0.096 0.229 0.096s-0.028-0.098-0.011-0.24c0.024-0.206 0.218-0.061 0.254 0.012 0.037 0.073 0.267 0.46 0.448 0.521 0.167 0.055 0.363 0.158 0.41-0.073 0.049-0.229 0.197-0.369 0.363-0.109 0.085 0.135 0.072 0.787 1.04 0.665 0.232-0.028 1.016-0.035 1.306-0.24 0.29-0.207 0.532-0.363-0.096-0.763-0.281-0.178-0.497-0.181-0.835-0.145-0.34 0.036-0.388 0.097-0.641-0.218-0.255-0.315-0.654-0.738-0.822-0.858-0.169-0.122-0.351-0.642 0.12-0.944 0.473-0.303 1.668-0.942 0.593-1.971 0.92 0.785 3.568 2.21 5.588 0.666 0.205-0.158 0.484 0.293 0.506 0.567 0.05 0.58-0.104 1.062 0.038 1.354 0.064 0.133 0.235 0.252 0.235 0.252s0.019-0.208 0.079-0.337c0.097-0.205 0.327-0.338 0.291 0.12-0.038 0.46 0.097 0.51 0.156 0.582 0.038 0.044 0.184 0.111 0.184 0.111s-0.014-0.096-0.014-0.173c0-0.205 0.06-0.313 0.181-0.144 0.066 0.094 0.196 0.487 0.422 0.71 0.075 0.076 0.217 0.187 0.217 0.187s0.024-0.072 0.079-0.21c0.072-0.182 0.214-0.288 0.322-0.106 0.109 0.181 0.157 0.798 0.291 0.919s0.086 0.241 1.076 0.303c0.193 0.012 1.826-0.038 1.971-0.11 0.199-0.1 0.312-0.311-0.013-0.688-0.217-0.255-0.41-0.399-0.967-0.412-0.218-0.004-0.338-0.011-0.521-0.253-0.181-0.242-1.91-2.625-2.007-2.71 0.097-0.144 0.614-0.371 0.847-0.446 0.447-0.146 1.151-0.766 1.295-0.907 0.048-0.048 0.276-0.073 0.192 0.218-0.024 0.082-0.03 0.232-0.03 0.232s0.069-0.003 0.163-0.087c0.218-0.193 0.157-0.146 0.242-0.23s0.181-0.048 0.17 0.048c-0.005 0.039 0.012 0.072 0.012 0.072s0.066-0.015 0.132-0.096c0.109-0.134 0.424-0.593 0.46-0.689 0.037-0.098 0.23-0.206 0.194 0.072-0.02 0.146 0.017 0.239 0.017 0.239s0.092-0.04 0.188-0.154c0.205-0.242 0.277-0.762 0.277-1.016 0-0.255 0.099-0.375 0.268-0.278 0.483 0.278 1.173 0.157 1.269 0.036 0.097-0.122 0.072 0 0.085 0.024 0.012 0.023 0.037 0.146 0.169-0.049 0.134-0.193 0.086-0.098 0.193-0.12 0.109-0.024 0.073-0.037 0.109-0.157 0.036-0.121 0.221-1.895-2.165-0.786-0.338 0.157-1.766 1.04-1.958 1.101-0.194 0.06-0.924 0.217-1.282 0.145-0.362-0.072-0.63-0.145-0.726-0.145 0.012-0.268 0.061-1.282-0.327-1.838-0.1-0.145-0.12-0.363 0.146-0.255 0.267 0.109 0.521 0.387 0.797-0.339 0.065-0.167 0.03-0.022 0.05-0.169 0.021-0.146-0.012-0.266-0.05-0.351-0.034-0.085-0.083-0.049-0.132 0.013-0.107 0.134-0.55-0.033-0.181-0.219 0.456-0.228 0.732 0.236 0.857 0.375 0.061 0.067 0.641 0.834 1.271 0.521 0.141-0.072 0.253-0.212 0.338-0.23 0.158-0.036 0.229-0.136 0.037-0.156-0.109-0.013-0.472 0.133-0.544 0.168-0.073 0.037-0.496-0.012-0.679-0.253-0.144-0.193-0.543-0.979-1.391-0.763-0.114 0.029-0.627-0.169-0.192-0.387 0.096-0.048 0.436-0.048 0.52 0.17 0.073 0.189 0.635 0.272 0.786 0 0.061-0.109 0.447-0.738 0.314-1.138-0.031-0.094-0.327-0.097-0.411-0.108s-0.556-0.29-0.967-0.29c-0.146 0-0.194-0.072-0.279-0.146-0.084-0.072-0.133-0.169-0.023-0.193 0.15 0.01 0.16-0.11 0.09-0.19z" fill="url(#SVGID_15_)"/>
	<linearGradient id="SVGID_16_" y2="171.5" gradientUnits="userSpaceOnUse" x2="127.17" y1="171.5" x1="99.354">
		<stop stop-color="#864819" offset="0"/>
		<stop stop-color="#29140E" offset="1"/>
	</linearGradient>
	<path d="m120 164.38c-0.286-0.334-1.579-0.67-2.253-0.731-0.432-0.041-0.81-0.275-1.081-0.454-0.422-0.275-0.806-0.143-0.834-0.105s-0.146 0.51 0.021 0.782c0.166 0.272 0.166 0.431 0.102 0.6-0.112 0.394-0.963 0.809-1.077 0.979-0.111 0.169-0.338 0.449-0.056 0.563 0.068 0.028-0.027 0.07-0.126 0.153-0.1 0.085-0.747 0.916-0.774 1.1-0.029 0.183-0.157 0.183 0.153 0.211s0.057-0.013 0.212-0.013c0.154 0 0.198 0.026 0.084 0.168-0.112 0.14-0.535 0.464-0.619 0.929-0.037 0.198-0.043 0.226 0.184 0.282 0.225 0.056 0.225 0.056 0.337 0.084s0.141 0.142 0.027 0.212c-0.112 0.07-0.613 0.797-2.378 1.056-1.829 0.268-2.76-0.15-4.362-0.521-1.474-0.34-2.228-0.302-3.295 0.338-0.14 0.083-0.411 0.265-0.731 0.056-3.463-2.251-0.479-4.081 1.521-3.49 0 0 1.088 0.272 1.633 0.562 3.125 1.661 4.668 1.907 5.996 0.76 1.239-1.069 0-2.307-0.113-2.393-0.555-0.415-1.408-0.253-1.604-0.731-0.198-0.479-0.253-1.126-1.211-1.126-0.422 0-0.507 0.225-0.507 0.225s0.281 0.281 0.31 0.704c0.021 0.314 0.217 1.274 1.38 1.182 1.772-0.141 1.95 1.173 1.548 1.576-0.51 0.511-1.076 0.861-2.195 0.507-1.069-0.337-2.027-1.436-2.534-1.997-0.147-0.164-0.31-0.17-0.168 0.083 0.141 0.252 0.062 0.106 0.091 0.182 0.028 0.079-0.007 0.227-0.211 0.056-0.204-0.167-0.908-0.766-1.041-0.815-0.135-0.049-0.205-0.064-0.057 0.112 0.147 0.176 0.154 0.176 0.204 0.262 0.048 0.084 0.048 0.183-0.169 0.042-0.219-0.14-0.752-0.667-1.851-0.865-0.161-0.029-0.471 0.027-0.197 0.198 0.058 0.035 0.098 0.048 0.133 0.105 0.036 0.056 0.049 0.185-0.211 0.112-0.127-0.036-0.788-0.333-1.892-0.156-0.19 0.031-0.362 0.2-0.037 0.255 0.128 0.021 0.057 0.021 0.169 0.048 0.132 0.035 0.149 0.169-0.049 0.156-0.685-0.05-1.071 0.039-1.505 0.442-0.1 0.092-0.302 0.333 0.124 0.255 0.191-0.035 0.172 0 0.29 0.013 0.12 0.013 0.077 0.14-0.092 0.226-0.477 0.239-0.619 0.407-0.788 0.845-0.166 0.429 0.081 0.278 0.232 0.146 0.106-0.09 0.161-0.133 0.246-0.146 0.085-0.015 0.269-0.021 0.134 0.226 0.014-0.026-0.5 0.568-0.484 0.971 0.007 0.203 0.021 0.379 0.203 0.224 0.183-0.154 0.394-0.196 0.472 0.028 0.213 0.62 0.908 1.549 1.373 1.753 0.224 0.097 0.183 0.112 0.295 0.183 0.112 0.069 0.253 0.252 0.015 0.463-0.493 0.435-0.562 1.133-0.562 1.985 0 0.47 0.069 1.844-0.79 1.942-0.167 0.02-0.467-0.028-0.619 0-0.746 0.141-0.535 0.632-0.535 0.788 0 0.155-0.014 0.226-0.211 0.379-0.197 0.156-0.382 0.286-0.465 0.423-0.079 0.132-0.162 0.33-0.162 0.33s0.148-0.062 0.338-0.027c0.099 0.018 0.105 0.007 0.037 0.092-0.072 0.084-0.444 0.57-0.529 0.723-0.065 0.123-0.128 0.31-0.128 0.31s0.109-0.015 0.185-0.027c0.083-0.015 0.024-0.054 0.07 0.027 0.054 0.096-0.092 0.401-0.092 0.401s0.085-0.009 0.184-0.068c0.071-0.043 0.367-0.227 0.338 0.112-0.015 0.155-0.45 1.52 0.971 1.309 0.725-0.108 1.914-0.029 2.084-0.043 0.17-0.013 0.577-0.308 0.07-0.69-0.507-0.379-1.057-0.224-1.197-0.281-0.24-0.096-0.727-0.322-0.408-0.886 0.127-0.226 0.437-1.013 0.353-1.294-0.085-0.282 1.43-0.357 2.111-0.901 0.07-0.058 0.647 0.351 2.786-1.113 0.126 0.421 0.999 0.535 1.211 1.266 0.077 0.266 0.168 0.77-0.281 0.733-0.338-0.03-0.971 0.365 0.014 1.027-0.168 0.239-0.479 0.522-0.07 1.084 0.051 0.069 0.265 0.11 0.265 0.11s-0.031-0.114-0.011-0.278c0.027-0.241 0.252-0.071 0.294 0.013 0.044 0.085 0.312 0.535 0.522 0.605 0.195 0.064 0.423 0.185 0.478-0.085 0.057-0.267 0.229-0.43 0.422-0.126 0.1 0.156 0.085 0.916 1.211 0.774 0.271-0.033 1.183-0.042 1.521-0.28 0.337-0.24 0.619-0.423-0.113-0.887-0.326-0.207-0.577-0.211-0.971-0.168-0.395 0.041-0.451 0.112-0.746-0.254-0.296-0.367-0.761-0.859-0.957-0.999-0.196-0.142-0.407-0.746 0.141-1.098 0.55-0.353 1.94-1.097 0.69-2.294 1.07 0.914 4.151 2.572 6.501 0.775 0.24-0.184 0.565 0.341 0.591 0.661 0.057 0.675-0.121 1.236 0.044 1.576 0.074 0.155 0.273 0.293 0.273 0.293s0.021-0.243 0.093-0.392c0.112-0.239 0.38-0.394 0.339 0.14-0.045 0.535 0.111 0.592 0.181 0.676 0.045 0.052 0.214 0.129 0.214 0.129s-0.016-0.11-0.016-0.2c0-0.239 0.069-0.366 0.211-0.168 0.077 0.109 0.229 0.567 0.49 0.828 0.087 0.088 0.253 0.216 0.253 0.216s0.028-0.084 0.092-0.245c0.084-0.211 0.248-0.335 0.376-0.124 0.126 0.211 0.182 0.929 0.338 1.07 0.155 0.14 0.101 0.28 1.252 0.352 0.226 0.014 2.125-0.044 2.295-0.128 0.231-0.116 0.362-0.362-0.016-0.802-0.253-0.296-0.479-0.465-1.125-0.479-0.254-0.005-0.394-0.013-0.605-0.295-0.212-0.281-2.224-3.055-2.336-3.153 0.112-0.168 0.714-0.433 0.985-0.521 0.52-0.169 1.34-0.89 1.507-1.056 0.056-0.056 0.321-0.085 0.224 0.253-0.028 0.097-0.035 0.271-0.035 0.271s0.081-0.004 0.19-0.102c0.254-0.225 0.183-0.169 0.282-0.268 0.098-0.099 0.21-0.056 0.197 0.056-0.006 0.045 0.014 0.084 0.014 0.084s0.077-0.018 0.153-0.112c0.127-0.155 0.493-0.689 0.535-0.802 0.043-0.114 0.269-0.24 0.227 0.084-0.023 0.17 0.02 0.279 0.02 0.279s0.106-0.047 0.219-0.18c0.238-0.281 0.322-0.886 0.322-1.182s0.114-0.437 0.312-0.323c0.562 0.323 1.365 0.183 1.478 0.042s0.084 0 0.099 0.028c0.014 0.028 0.042 0.169 0.195-0.057 0.156-0.225 0.101-0.113 0.226-0.14 0.128-0.028 0.086-0.043 0.128-0.183 0.042-0.142 0.257-2.204-2.521-0.915-0.393 0.182-2.055 1.21-2.278 1.281-0.226 0.07-1.075 0.252-1.492 0.168-0.422-0.084-0.732-0.168-0.845-0.168 0.013-0.311 0.07-1.492-0.381-2.139-0.116-0.168-0.14-0.423 0.17-0.296 0.309 0.127 0.605 0.45 0.928-0.395 0.076-0.193 0.034-0.025 0.057-0.196 0.024-0.171-0.013-0.31-0.057-0.409-0.041-0.099-0.098-0.056-0.153 0.015-0.126 0.156-0.642-0.039-0.211-0.253 0.53-0.266 0.853 0.275 0.998 0.437 0.07 0.077 0.746 0.97 1.478 0.606 0.164-0.084 0.296-0.247 0.395-0.269 0.184-0.042 0.267-0.159 0.043-0.183-0.127-0.015-0.549 0.155-0.633 0.196-0.086 0.042-0.577-0.014-0.79-0.295-0.167-0.224-0.632-1.14-1.619-0.888-0.133 0.035-0.729-0.196-0.224-0.45 0.112-0.056 0.507-0.056 0.604 0.197 0.085 0.221 0.738 0.318 0.916 0 0.069-0.126 0.52-0.859 0.365-1.324-0.036-0.109-0.381-0.114-0.478-0.127-0.1-0.013-0.647-0.337-1.127-0.337-0.169 0-0.225-0.084-0.324-0.169-0.098-0.084-0.154-0.196-0.028-0.225 0.15 0 0.16-0.14 0.08-0.24z" fill="url(#SVGID_16_)"/>
<g fill="#29140E">
	<path d="m65.566 360.25h1.401v0.187l-0.871 6.621h-0.216l0.78-6.006h-0.719c-0.146 0-0.249 0.044-0.311 0.133-0.108 0.15-0.195 0.384-0.261 0.698l-0.056-0.054 0.253-1.58z"/>
	<path d="m68.858 360.25l-0.15 0.836h-0.787l-0.172 0.896c0.341 0.128 0.61 0.451 0.81 0.969 0.172 0.446 0.257 0.971 0.257 1.574 0 0.351-0.027 0.676-0.084 0.974-0.056 0.299-0.126 0.553-0.211 0.763s-0.18 0.379-0.283 0.507c-0.148 0.18-0.3 0.271-0.455 0.271-0.157 0-0.271-0.068-0.343-0.204s-0.106-0.286-0.106-0.45c0-0.092 0.015-0.173 0.044-0.243 0.029-0.071 0.066-0.106 0.111-0.106 0.034 0 0.063 0.014 0.088 0.04s0.068 0.093 0.129 0.201c0.096 0.171 0.193 0.256 0.293 0.256 0.15 0 0.282-0.146 0.396-0.436 0.113-0.29 0.17-0.644 0.17-1.06 0-0.403-0.051-0.78-0.152-1.129-0.102-0.35-0.241-0.619-0.42-0.81-0.141-0.147-0.331-0.232-0.573-0.256l0.502-2.592h0.936z"/>
	<path d="m70.742 365.2c-0.048 0.594-0.141 1.051-0.28 1.37s-0.292 0.479-0.461 0.479c-0.2 0-0.375-0.215-0.524-0.645-0.148-0.43-0.224-1.01-0.224-1.741 0-0.708 0.083-1.284 0.248-1.727s0.363-0.664 0.595-0.664c0.174 0 0.316 0.117 0.429 0.352 0.111 0.234 0.167 0.479 0.167 0.73 0 0.125-0.016 0.226-0.047 0.303s-0.075 0.115-0.132 0.115c-0.076 0-0.133-0.062-0.172-0.187-0.021-0.069-0.036-0.2-0.043-0.394-0.008-0.193-0.033-0.341-0.078-0.442-0.045-0.099-0.107-0.148-0.188-0.148-0.129 0-0.232 0.122-0.311 0.364-0.104 0.321-0.156 0.746-0.156 1.274 0 0.538 0.052 1.013 0.155 1.424 0.104 0.412 0.243 0.617 0.42 0.617 0.126 0 0.239-0.109 0.339-0.329 0.071-0.151 0.14-0.425 0.207-0.821l0.056 0.09z"/>
	<path d="m71.602 359.92v5.977c0 0.282 0.009 0.47 0.024 0.562 0.017 0.092 0.041 0.161 0.074 0.209 0.033 0.047 0.096 0.071 0.188 0.071v0.177h-0.866v-0.177c0.081 0 0.137-0.021 0.166-0.064 0.029-0.042 0.053-0.113 0.069-0.211 0.017-0.099 0.025-0.287 0.025-0.566v-4.093c0-0.508-0.005-0.82-0.014-0.937s-0.023-0.196-0.044-0.238c-0.02-0.043-0.045-0.064-0.076-0.064-0.033 0-0.075 0.026-0.127 0.079l-0.033-0.173 0.527-0.551h0.087z"/>
</g>
<g fill="#29140E">
	<path d="m146.29 363.96c0.288 0.088 0.503 0.229 0.646 0.421 0.197 0.269 0.297 0.598 0.297 0.986 0 0.295-0.065 0.578-0.196 0.848-0.131 0.271-0.31 0.468-0.537 0.592s-0.575 0.187-1.043 0.187h-1.959v-0.162h0.156c0.173 0 0.298-0.079 0.373-0.236 0.047-0.103 0.07-0.32 0.07-0.653v-3.84c0-0.368-0.029-0.6-0.089-0.696-0.079-0.129-0.198-0.193-0.354-0.193h-0.156v-0.162h1.794c0.335 0 0.604 0.035 0.806 0.105 0.306 0.105 0.539 0.291 0.701 0.559 0.161 0.268 0.241 0.575 0.241 0.923 0 0.298-0.063 0.564-0.189 0.8-0.13 0.23-0.31 0.4-0.56 0.52zm-1.61-0.24c0.075 0.021 0.162 0.036 0.259 0.046 0.097 0.011 0.204 0.016 0.32 0.016 0.298 0 0.521-0.046 0.672-0.139 0.15-0.092 0.265-0.232 0.345-0.423 0.079-0.189 0.119-0.397 0.119-0.622 0-0.348-0.099-0.645-0.297-0.89s-0.487-0.368-0.867-0.368c-0.204 0-0.388 0.032-0.551 0.097v2.27zm0 2.84c0.237 0.079 0.471 0.118 0.701 0.118 0.369 0 0.651-0.119 0.845-0.356 0.194-0.238 0.291-0.533 0.291-0.884 0-0.23-0.044-0.452-0.131-0.666-0.088-0.213-0.231-0.381-0.429-0.504s-0.443-0.185-0.735-0.185c-0.127 0-0.234 0.003-0.324 0.009s-0.162 0.017-0.218 0.031v2.44z"/>
	<path d="m151.81 366.99h-1.108l-1.405-2.778c-0.104 0.006-0.188 0.009-0.254 0.009-0.026 0-0.055-0.001-0.086-0.003-0.03-0.001-0.062-0.003-0.095-0.006v1.727c0 0.374 0.028 0.606 0.086 0.696 0.077 0.129 0.193 0.193 0.349 0.193h0.162v0.162h-1.778v-0.162h0.156c0.175 0 0.301-0.082 0.376-0.245 0.043-0.091 0.064-0.306 0.064-0.645v-3.84c0-0.374-0.028-0.605-0.086-0.696-0.079-0.129-0.197-0.193-0.354-0.193h-0.156v-0.162h1.513c0.44 0 0.766 0.046 0.975 0.139 0.209 0.092 0.387 0.261 0.533 0.508s0.219 0.542 0.219 0.884c0 0.365-0.083 0.682-0.25 0.95-0.166 0.27-0.424 0.459-0.772 0.57l0.857 1.705c0.195 0.392 0.364 0.651 0.505 0.78 0.141 0.128 0.324 0.21 0.551 0.245v0.17zm-2.95-3.06c0.039 0 0.072 0.001 0.101 0.002 0.029 0.002 0.053 0.002 0.071 0.002 0.396 0 0.694-0.122 0.896-0.368 0.201-0.245 0.301-0.558 0.301-0.938 0-0.371-0.081-0.673-0.243-0.905s-0.377-0.349-0.645-0.349c-0.118 0-0.278 0.028-0.48 0.084v2.48z"/>
	<path d="m154.75 361.21v-0.162h1.47v0.162h-0.156c-0.163 0-0.289 0.099-0.376 0.294-0.043 0.091-0.064 0.301-0.064 0.631v2.411c0 0.596-0.042 1.059-0.124 1.387-0.083 0.329-0.245 0.611-0.487 0.846-0.241 0.235-0.57 0.354-0.987 0.354-0.453 0-0.797-0.113-1.031-0.338-0.235-0.225-0.401-0.527-0.5-0.907-0.064-0.26-0.098-0.748-0.098-1.464v-2.323c0-0.365-0.035-0.604-0.105-0.719-0.07-0.113-0.185-0.171-0.342-0.171h-0.156v-0.162h1.795v0.162h-0.159c-0.172 0-0.294 0.078-0.367 0.232-0.052 0.105-0.077 0.324-0.077 0.657v2.591c0 0.23 0.015 0.495 0.045 0.793 0.029 0.298 0.083 0.53 0.16 0.697 0.078 0.166 0.189 0.304 0.336 0.412 0.146 0.107 0.324 0.162 0.537 0.162 0.271 0 0.515-0.085 0.729-0.255 0.214-0.169 0.36-0.386 0.439-0.65 0.078-0.265 0.118-0.712 0.118-1.344v-2.406c0-0.371-0.029-0.603-0.086-0.696-0.08-0.129-0.198-0.193-0.355-0.193h-0.15z"/>
	<path d="m159.91 361.04l0.046 1.394h-0.116c-0.022-0.245-0.053-0.42-0.092-0.525-0.063-0.17-0.147-0.294-0.252-0.375-0.105-0.08-0.244-0.12-0.415-0.12h-0.58v4.54c0 0.365 0.027 0.594 0.083 0.684 0.077 0.123 0.196 0.185 0.357 0.185h0.145v0.162h-1.761v-0.162h0.146c0.176 0 0.301-0.076 0.374-0.228 0.045-0.094 0.067-0.308 0.067-0.641v-4.54h-0.499c-0.194 0-0.332 0.021-0.413 0.062-0.106 0.055-0.197 0.162-0.273 0.319-0.075 0.158-0.12 0.371-0.134 0.64h-0.117l0.05-1.394h3.38z"/>
</g>
<g fill="#29140E">
	<path d="m98.305 372.33v0.782c0 0.169 0.019 0.274 0.055 0.315 0.051 0.058 0.126 0.087 0.229 0.087h0.103v0.073h-1.15v-0.073h0.101c0.114 0 0.195-0.037 0.244-0.111 0.026-0.04 0.039-0.138 0.039-0.291v-1.734c0-0.169-0.018-0.273-0.053-0.314-0.052-0.059-0.129-0.088-0.23-0.088h-0.103v-0.073h0.984c0.24 0 0.43 0.025 0.568 0.075 0.139 0.049 0.255 0.133 0.351 0.25 0.095 0.117 0.143 0.257 0.143 0.418 0 0.219-0.072 0.397-0.218 0.534-0.145 0.138-0.349 0.206-0.612 0.206-0.064 0-0.135-0.005-0.21-0.014s-0.156-0.03-0.241-0.05zm0-0.11c0.069 0.013 0.132 0.023 0.186 0.029 0.055 0.007 0.101 0.01 0.139 0.01 0.138 0 0.256-0.053 0.355-0.159s0.149-0.244 0.149-0.413c0-0.116-0.023-0.224-0.071-0.323-0.047-0.1-0.114-0.175-0.202-0.224-0.087-0.05-0.186-0.074-0.297-0.074-0.067 0-0.153 0.013-0.259 0.037v1.1z"/>
	<path d="m100.39 371.72v0.408c0.152-0.272 0.308-0.408 0.468-0.408 0.072 0 0.133 0.022 0.18 0.066 0.048 0.044 0.071 0.096 0.071 0.153 0 0.052-0.017 0.095-0.051 0.131-0.035 0.035-0.076 0.054-0.123 0.054s-0.099-0.023-0.155-0.068c-0.058-0.046-0.101-0.068-0.128-0.068-0.023 0-0.05 0.013-0.077 0.039-0.06 0.055-0.121 0.144-0.185 0.268v0.869c0 0.101 0.013 0.177 0.038 0.228 0.017 0.036 0.047 0.065 0.091 0.09 0.044 0.023 0.106 0.035 0.188 0.035v0.071h-0.929v-0.071c0.092 0 0.161-0.015 0.206-0.044 0.032-0.021 0.056-0.055 0.068-0.101 0.007-0.022 0.011-0.087 0.011-0.192v-0.703c0-0.211-0.005-0.337-0.014-0.377-0.008-0.04-0.024-0.069-0.047-0.088s-0.052-0.027-0.086-0.027c-0.041 0-0.088 0.01-0.139 0.029l-0.021-0.071 0.549-0.222h0.09z"/>
	<path d="m102.09 371.72c0.274 0 0.495 0.104 0.661 0.312 0.142 0.179 0.212 0.383 0.212 0.614 0 0.162-0.039 0.326-0.116 0.493-0.078 0.166-0.186 0.292-0.322 0.376s-0.288 0.127-0.456 0.127c-0.273 0-0.49-0.109-0.651-0.327-0.136-0.184-0.204-0.39-0.204-0.617 0-0.167 0.041-0.332 0.124-0.496 0.082-0.165 0.19-0.286 0.325-0.364 0.14-0.07 0.28-0.11 0.43-0.11zm-0.06 0.13c-0.069 0-0.14 0.021-0.211 0.062-0.07 0.041-0.127 0.114-0.171 0.219-0.044 0.104-0.065 0.238-0.065 0.401 0 0.265 0.053 0.492 0.157 0.684 0.105 0.191 0.243 0.287 0.415 0.287 0.128 0 0.233-0.053 0.316-0.158 0.084-0.106 0.125-0.287 0.125-0.545 0-0.322-0.069-0.575-0.208-0.761-0.09-0.12-0.21-0.19-0.36-0.19z"/>
	<path d="m104.52 373.39c-0.089 0.093-0.175 0.159-0.26 0.199-0.084 0.04-0.176 0.061-0.273 0.061-0.198 0-0.371-0.083-0.519-0.249-0.147-0.165-0.222-0.378-0.222-0.639 0-0.26 0.082-0.498 0.245-0.714 0.164-0.216 0.375-0.323 0.632-0.323 0.16 0 0.292 0.051 0.396 0.152v-0.335c0-0.207-0.005-0.334-0.016-0.382-0.01-0.048-0.025-0.08-0.046-0.097-0.021-0.018-0.048-0.026-0.079-0.026-0.034 0-0.08 0.011-0.137 0.032l-0.026-0.069 0.541-0.222h0.089v2.097c0 0.213 0.005 0.342 0.015 0.389 0.011 0.047 0.026 0.08 0.048 0.099s0.047 0.027 0.076 0.027c0.036 0 0.083-0.011 0.143-0.033l0.021 0.069-0.538 0.224h-0.091v-0.26zm0-0.14v-0.935c-0.008-0.09-0.032-0.172-0.071-0.245-0.04-0.074-0.093-0.13-0.158-0.168-0.064-0.037-0.129-0.056-0.19-0.056-0.116 0-0.22 0.052-0.312 0.156-0.12 0.137-0.18 0.338-0.18 0.602 0 0.267 0.058 0.471 0.174 0.613s0.246 0.213 0.389 0.213c0.12 0 0.23-0.06 0.35-0.18z"/>
	<path d="m106.85 371.78v1.099c0 0.21 0.005 0.338 0.015 0.385s0.026 0.08 0.048 0.099 0.047 0.027 0.076 0.027c0.041 0 0.087-0.011 0.139-0.033l0.027 0.069-0.542 0.224h-0.09v-0.385c-0.155 0.169-0.274 0.275-0.356 0.319-0.081 0.043-0.168 0.065-0.259 0.065-0.102 0-0.19-0.029-0.265-0.088-0.074-0.06-0.126-0.135-0.155-0.228-0.029-0.092-0.044-0.223-0.044-0.392v-0.81c0-0.086-0.009-0.146-0.027-0.179s-0.046-0.059-0.082-0.076-0.103-0.026-0.197-0.024v-0.073h0.636v1.214c0 0.169 0.029 0.279 0.088 0.332s0.13 0.079 0.213 0.079c0.057 0 0.121-0.018 0.193-0.053 0.072-0.036 0.157-0.104 0.256-0.204v-1.028c0-0.103-0.019-0.172-0.056-0.209-0.038-0.036-0.116-0.056-0.235-0.058v-0.073h0.63z"/>
	<path d="m108.83 372.9c-0.049 0.239-0.145 0.423-0.287 0.552s-0.3 0.193-0.473 0.193c-0.206 0-0.386-0.087-0.539-0.26s-0.229-0.406-0.229-0.701c0-0.285 0.085-0.517 0.254-0.694 0.17-0.179 0.374-0.268 0.611-0.268 0.179 0 0.325 0.047 0.439 0.142 0.115 0.095 0.173 0.192 0.173 0.294 0 0.05-0.017 0.091-0.049 0.122-0.032 0.03-0.078 0.046-0.136 0.046-0.078 0-0.137-0.024-0.176-0.075-0.022-0.027-0.038-0.08-0.045-0.158-0.008-0.078-0.034-0.137-0.08-0.178-0.047-0.04-0.11-0.06-0.192-0.06-0.132 0-0.238 0.049-0.318 0.146-0.107 0.129-0.161 0.3-0.161 0.513 0 0.217 0.054 0.407 0.16 0.573 0.105 0.166 0.249 0.248 0.431 0.248 0.129 0 0.245-0.044 0.349-0.132 0.072-0.062 0.143-0.171 0.211-0.331l0.07 0.04z"/>
	<path d="m109.62 371.18v0.597h0.424v0.139h-0.424v1.176c0 0.117 0.017 0.196 0.051 0.237 0.033 0.041 0.077 0.062 0.13 0.062 0.043 0 0.086-0.014 0.126-0.04 0.041-0.027 0.073-0.067 0.096-0.12h0.077c-0.047 0.129-0.111 0.227-0.196 0.292-0.084 0.065-0.172 0.098-0.262 0.098-0.061 0-0.12-0.017-0.178-0.05-0.059-0.034-0.101-0.082-0.129-0.145-0.027-0.062-0.041-0.16-0.041-0.29v-1.22h-0.287v-0.065c0.072-0.029 0.146-0.078 0.223-0.147 0.075-0.069 0.144-0.152 0.203-0.247 0.03-0.05 0.072-0.142 0.126-0.275h0.06z"/>
	<path d="m112.12 371.72c0.274 0 0.495 0.104 0.661 0.312 0.142 0.179 0.212 0.383 0.212 0.614 0 0.162-0.039 0.326-0.116 0.493-0.078 0.166-0.186 0.292-0.322 0.376s-0.288 0.127-0.456 0.127c-0.273 0-0.49-0.109-0.651-0.327-0.136-0.184-0.204-0.39-0.204-0.617 0-0.167 0.041-0.332 0.124-0.496 0.082-0.165 0.19-0.286 0.325-0.364 0.14-0.07 0.28-0.11 0.44-0.11zm-0.07 0.13c-0.069 0-0.14 0.021-0.211 0.062-0.07 0.041-0.127 0.114-0.171 0.219-0.044 0.104-0.065 0.238-0.065 0.401 0 0.265 0.053 0.492 0.157 0.684 0.105 0.191 0.243 0.287 0.415 0.287 0.128 0 0.233-0.053 0.316-0.158 0.084-0.106 0.125-0.287 0.125-0.545 0-0.322-0.069-0.575-0.208-0.761-0.09-0.12-0.21-0.19-0.36-0.19z"/>
	<path d="m113.97 371.92v1.191c0 0.169 0.019 0.276 0.055 0.321 0.049 0.058 0.114 0.087 0.196 0.087h0.164v0.071h-1.083v-0.071h0.081c0.054 0 0.102-0.013 0.146-0.04 0.043-0.026 0.073-0.062 0.09-0.106s0.024-0.132 0.024-0.262v-1.191h-0.353v-0.143h0.353v-0.119c0-0.181 0.029-0.334 0.087-0.459 0.059-0.126 0.147-0.228 0.267-0.305s0.254-0.115 0.403-0.115c0.139 0 0.266 0.045 0.382 0.135 0.076 0.059 0.115 0.126 0.115 0.199 0 0.04-0.018 0.077-0.052 0.112s-0.071 0.053-0.111 0.053c-0.03 0-0.062-0.011-0.096-0.033-0.033-0.021-0.075-0.068-0.124-0.141-0.049-0.071-0.094-0.12-0.135-0.146-0.041-0.024-0.086-0.037-0.137-0.037-0.061 0-0.111 0.016-0.154 0.048-0.042 0.033-0.072 0.083-0.091 0.15-0.019 0.068-0.027 0.244-0.027 0.526v0.131h0.467v0.143h-0.47z"/>
	<path d="m116.32 371.05v1.055h0.488c0.112 0 0.194-0.024 0.247-0.074 0.052-0.049 0.087-0.147 0.104-0.294h0.073v0.909h-0.073c-0.001-0.104-0.015-0.181-0.04-0.229-0.026-0.049-0.062-0.086-0.107-0.11s-0.113-0.036-0.203-0.036h-0.488v0.843c0 0.137 0.008 0.227 0.025 0.27 0.013 0.033 0.041 0.062 0.083 0.085 0.059 0.032 0.119 0.048 0.183 0.048h0.097v0.073h-1.152v-0.073h0.095c0.111 0 0.191-0.032 0.242-0.097 0.031-0.043 0.047-0.145 0.047-0.306v-1.734c0-0.136-0.009-0.226-0.025-0.27-0.014-0.032-0.04-0.062-0.081-0.085-0.057-0.031-0.118-0.048-0.183-0.048h-0.095v-0.073h1.998l0.025 0.591h-0.069c-0.034-0.126-0.074-0.218-0.119-0.276-0.046-0.059-0.103-0.102-0.169-0.128s-0.17-0.039-0.31-0.039h-0.57z"/>
	<path d="m118.41 371.72v0.408c0.152-0.272 0.308-0.408 0.468-0.408 0.072 0 0.133 0.022 0.18 0.066 0.048 0.044 0.071 0.096 0.071 0.153 0 0.052-0.017 0.095-0.051 0.131-0.035 0.035-0.076 0.054-0.123 0.054s-0.099-0.023-0.155-0.068c-0.058-0.046-0.101-0.068-0.128-0.068-0.023 0-0.05 0.013-0.077 0.039-0.06 0.055-0.121 0.144-0.185 0.268v0.869c0 0.101 0.013 0.177 0.038 0.228 0.017 0.036 0.047 0.065 0.091 0.09 0.044 0.023 0.106 0.035 0.188 0.035v0.071h-0.929v-0.071c0.092 0 0.161-0.015 0.206-0.044 0.032-0.021 0.056-0.055 0.068-0.101 0.007-0.022 0.011-0.087 0.011-0.192v-0.703c0-0.211-0.005-0.337-0.014-0.377-0.008-0.04-0.024-0.069-0.047-0.088s-0.052-0.027-0.086-0.027c-0.041 0-0.088 0.01-0.139 0.029l-0.021-0.071 0.549-0.222h0.09z"/>
	<path d="m120.25 373.33c-0.186 0.145-0.303 0.228-0.351 0.25-0.071 0.033-0.147 0.05-0.228 0.05-0.125 0-0.229-0.043-0.31-0.129s-0.122-0.199-0.122-0.339c0-0.089 0.02-0.165 0.06-0.229 0.054-0.09 0.148-0.175 0.282-0.254s0.356-0.176 0.668-0.289v-0.071c0-0.181-0.028-0.305-0.086-0.372s-0.141-0.101-0.251-0.101c-0.083 0-0.148 0.022-0.197 0.067-0.051 0.045-0.075 0.096-0.075 0.154l0.004 0.114c0 0.061-0.016 0.107-0.047 0.141s-0.071 0.05-0.122 0.05c-0.049 0-0.089-0.018-0.119-0.052-0.031-0.034-0.047-0.081-0.047-0.141 0-0.113 0.058-0.218 0.174-0.312s0.279-0.143 0.489-0.143c0.161 0 0.293 0.027 0.396 0.081 0.078 0.041 0.135 0.105 0.172 0.192 0.024 0.057 0.036 0.173 0.036 0.349v0.615c0 0.173 0.003 0.279 0.01 0.318s0.018 0.064 0.032 0.078c0.016 0.013 0.033 0.02 0.053 0.02 0.021 0 0.04-0.005 0.056-0.014 0.027-0.018 0.081-0.065 0.16-0.145v0.11c-0.147 0.198-0.289 0.297-0.424 0.297-0.064 0-0.116-0.022-0.154-0.066-0.03-0.04-0.05-0.12-0.06-0.23zm0-0.13v-0.691c-0.199 0.079-0.328 0.135-0.386 0.168-0.104 0.059-0.179 0.119-0.224 0.183s-0.067 0.133-0.067 0.208c0 0.095 0.028 0.174 0.085 0.236s0.122 0.094 0.196 0.094c0.1 0 0.23-0.07 0.39-0.2z"/>
	<path d="m121.56 372.11c0.213-0.256 0.415-0.384 0.608-0.384 0.099 0 0.184 0.024 0.255 0.074s0.128 0.131 0.171 0.244c0.028 0.079 0.043 0.201 0.043 0.364v0.774c0 0.115 0.01 0.193 0.028 0.234 0.014 0.032 0.037 0.059 0.07 0.077 0.032 0.019 0.092 0.027 0.179 0.027v0.071h-0.896v-0.071h0.037c0.085 0 0.144-0.013 0.178-0.039 0.033-0.025 0.057-0.063 0.07-0.113 0.005-0.02 0.008-0.082 0.008-0.187v-0.742c0-0.165-0.021-0.285-0.064-0.359s-0.115-0.112-0.217-0.112c-0.157 0-0.313 0.086-0.47 0.258v0.956c0 0.123 0.008 0.199 0.021 0.228 0.019 0.039 0.044 0.066 0.077 0.085 0.032 0.018 0.098 0.026 0.196 0.026v0.071h-0.896v-0.071h0.039c0.093 0 0.155-0.023 0.188-0.07s0.049-0.137 0.049-0.269v-0.673c0-0.218-0.005-0.351-0.016-0.398-0.01-0.047-0.024-0.079-0.045-0.097s-0.048-0.025-0.082-0.025c-0.037 0-0.082 0.01-0.133 0.029l-0.03-0.071 0.547-0.222h0.085v0.37z"/>
	<path d="m124.6 372.9c-0.049 0.239-0.145 0.423-0.287 0.552s-0.3 0.193-0.473 0.193c-0.206 0-0.386-0.087-0.539-0.26s-0.229-0.406-0.229-0.701c0-0.285 0.085-0.517 0.254-0.694 0.17-0.179 0.374-0.268 0.611-0.268 0.179 0 0.325 0.047 0.439 0.142 0.115 0.095 0.173 0.192 0.173 0.294 0 0.05-0.017 0.091-0.049 0.122-0.032 0.03-0.078 0.046-0.136 0.046-0.078 0-0.137-0.024-0.176-0.075-0.022-0.027-0.038-0.08-0.045-0.158-0.008-0.078-0.034-0.137-0.08-0.178-0.047-0.04-0.11-0.06-0.192-0.06-0.132 0-0.238 0.049-0.318 0.146-0.107 0.129-0.161 0.3-0.161 0.513 0 0.217 0.054 0.407 0.16 0.573 0.105 0.166 0.249 0.248 0.431 0.248 0.129 0 0.245-0.044 0.349-0.132 0.072-0.062 0.143-0.171 0.211-0.331l0.08 0.04z"/>
	<path d="m125.16 372.46c-0.001 0.27 0.064 0.48 0.196 0.634s0.287 0.229 0.465 0.229c0.119 0 0.223-0.032 0.311-0.098 0.087-0.065 0.161-0.178 0.221-0.336l0.062 0.04c-0.028 0.181-0.108 0.346-0.242 0.494-0.133 0.148-0.3 0.223-0.501 0.223-0.218 0-0.404-0.085-0.56-0.255-0.155-0.169-0.232-0.397-0.232-0.684 0-0.311 0.08-0.553 0.238-0.726 0.159-0.174 0.359-0.261 0.6-0.261 0.203 0 0.37 0.067 0.501 0.201s0.196 0.312 0.196 0.537h-1.26zm0-0.11h0.84c-0.007-0.116-0.021-0.198-0.042-0.246-0.033-0.074-0.082-0.132-0.147-0.174-0.065-0.043-0.134-0.063-0.205-0.063-0.109 0-0.207 0.042-0.294 0.128-0.09 0.08-0.14 0.2-0.15 0.35z"/>
</g>
<g fill="#29140E">
	<path d="m79.918 366.29l-1.22-3.042v2.415c0 0.223 0.021 0.361 0.062 0.416 0.058 0.075 0.148 0.112 0.272 0.112h0.112v0.099h-1.1v-0.099h0.112c0.133 0 0.228-0.046 0.283-0.139 0.034-0.057 0.052-0.187 0.052-0.39v-2.362c0-0.16-0.016-0.275-0.047-0.347-0.021-0.052-0.062-0.095-0.12-0.129-0.058-0.035-0.151-0.053-0.28-0.053v-0.099h0.895l1.146 2.83 1.127-2.83h0.895v0.099h-0.109c-0.136 0-0.23 0.047-0.287 0.139-0.034 0.058-0.051 0.188-0.051 0.39v2.362c0 0.223 0.021 0.361 0.065 0.416 0.057 0.075 0.147 0.112 0.272 0.112h0.109v0.099h-1.342v-0.099h0.112c0.135 0 0.229-0.046 0.284-0.139 0.034-0.057 0.051-0.187 0.051-0.39v-2.415l-1.218 3.042h-0.075z"/>
	<path d="m83.092 363.78v1.963c0 0.152 0.01 0.255 0.029 0.305 0.02 0.051 0.048 0.089 0.086 0.113 0.038 0.025 0.107 0.038 0.209 0.038v0.096h-1.037v-0.096c0.104 0 0.174-0.012 0.21-0.035 0.036-0.022 0.064-0.062 0.085-0.114 0.021-0.054 0.031-0.155 0.031-0.307v-0.941c0-0.265-0.007-0.437-0.021-0.515-0.011-0.057-0.028-0.097-0.052-0.119-0.022-0.021-0.055-0.033-0.095-0.033-0.044 0-0.097 0.014-0.159 0.04l-0.032-0.096 0.643-0.299h0.103zm-0.194-1.28c0.065 0 0.121 0.026 0.167 0.079 0.046 0.052 0.068 0.116 0.068 0.19s-0.022 0.139-0.068 0.192c-0.046 0.053-0.102 0.08-0.167 0.08s-0.121-0.027-0.167-0.08c-0.047-0.054-0.07-0.118-0.07-0.192s0.022-0.139 0.068-0.19c0.046-0.06 0.103-0.08 0.169-0.08z"/>
	<path d="m84.415 362.5v3.24c0 0.152 0.01 0.254 0.029 0.304s0.049 0.088 0.089 0.113c0.041 0.026 0.116 0.039 0.227 0.039v0.096h-1.046v-0.096c0.098 0 0.164-0.012 0.2-0.035 0.036-0.022 0.063-0.062 0.084-0.114 0.021-0.054 0.03-0.155 0.03-0.307v-2.219c0-0.275-0.006-0.445-0.017-0.508s-0.028-0.106-0.052-0.13c-0.024-0.022-0.055-0.034-0.093-0.034-0.04 0-0.091 0.015-0.153 0.043l-0.04-0.094 0.636-0.299h0.106z"/>
	<path d="m85.74 362.5v3.24c0 0.152 0.01 0.254 0.029 0.304s0.049 0.088 0.089 0.113c0.041 0.026 0.116 0.039 0.227 0.039v0.096h-1.046v-0.096c0.098 0 0.164-0.012 0.2-0.035 0.036-0.022 0.063-0.062 0.084-0.114 0.021-0.054 0.03-0.155 0.03-0.307v-2.219c0-0.275-0.006-0.445-0.017-0.508s-0.028-0.106-0.052-0.13c-0.024-0.022-0.055-0.034-0.093-0.034-0.04 0-0.091 0.015-0.153 0.043l-0.04-0.094 0.636-0.299h0.106z"/>
	<path d="m86.69 364.77c-0.002 0.362 0.075 0.647 0.23 0.854s0.338 0.309 0.547 0.309c0.14 0 0.262-0.044 0.364-0.132 0.104-0.088 0.19-0.238 0.26-0.452l0.072 0.054c-0.032 0.243-0.127 0.465-0.284 0.665-0.156 0.2-0.353 0.3-0.589 0.3-0.256 0-0.476-0.113-0.658-0.342s-0.273-0.536-0.273-0.922c0-0.418 0.094-0.743 0.281-0.978 0.187-0.233 0.422-0.351 0.704-0.351 0.239 0 0.436 0.091 0.589 0.271 0.154 0.18 0.23 0.421 0.23 0.724h-1.473zm0-0.16h0.987c-0.008-0.157-0.024-0.268-0.049-0.331-0.039-0.1-0.097-0.178-0.174-0.234-0.077-0.058-0.157-0.086-0.241-0.086-0.129 0-0.244 0.058-0.346 0.172-0.1 0.12-0.16 0.28-0.177 0.48zm1.111-2.03l-0.687 0.92h-0.079l0.244-0.92h0.522z"/>
	<path d="m89.826 363.78v0.832h-0.076c-0.06-0.262-0.135-0.439-0.228-0.533-0.093-0.095-0.21-0.142-0.353-0.142-0.108 0-0.196 0.033-0.264 0.099-0.066 0.066-0.1 0.139-0.1 0.219 0 0.1 0.024 0.186 0.074 0.256 0.048 0.073 0.146 0.15 0.294 0.232l0.34 0.189c0.314 0.176 0.473 0.407 0.473 0.695 0 0.223-0.073 0.401-0.221 0.538-0.146 0.136-0.311 0.203-0.492 0.203-0.13 0-0.279-0.026-0.447-0.079-0.051-0.019-0.093-0.027-0.125-0.027-0.036 0-0.064 0.023-0.084 0.069h-0.077v-0.872h0.077c0.043 0.249 0.126 0.437 0.249 0.562 0.122 0.127 0.26 0.189 0.412 0.189 0.107 0 0.194-0.036 0.262-0.107 0.067-0.072 0.102-0.159 0.102-0.26 0-0.123-0.038-0.227-0.113-0.31-0.075-0.084-0.226-0.189-0.45-0.317-0.226-0.128-0.373-0.243-0.442-0.347-0.07-0.102-0.105-0.229-0.105-0.384 0-0.201 0.061-0.369 0.181-0.504 0.12-0.136 0.276-0.203 0.467-0.203 0.084 0 0.186 0.021 0.306 0.062 0.079 0.026 0.132 0.04 0.158 0.04 0.024 0 0.044-0.006 0.058-0.019 0.015-0.013 0.03-0.04 0.05-0.083h0.074z"/>
	<path d="m91.04 363.78v1.963c0 0.152 0.01 0.255 0.029 0.305 0.02 0.051 0.048 0.089 0.086 0.113 0.038 0.025 0.107 0.038 0.209 0.038v0.096h-1.037v-0.096c0.104 0 0.174-0.012 0.21-0.035 0.036-0.022 0.064-0.062 0.085-0.114 0.021-0.054 0.031-0.155 0.031-0.307v-0.941c0-0.265-0.007-0.437-0.021-0.515-0.011-0.057-0.028-0.097-0.052-0.119-0.022-0.021-0.055-0.033-0.095-0.033-0.044 0-0.097 0.014-0.159 0.04l-0.032-0.096 0.643-0.299h0.103zm-0.193-1.28c0.065 0 0.121 0.026 0.167 0.079 0.046 0.052 0.068 0.116 0.068 0.19s-0.022 0.139-0.068 0.192c-0.046 0.053-0.102 0.08-0.167 0.08s-0.121-0.027-0.167-0.08c-0.047-0.054-0.07-0.118-0.07-0.192s0.022-0.139 0.068-0.19c0.046-0.06 0.102-0.08 0.169-0.08z"/>
	<path d="m92.262 364.3c0.155-0.178 0.247-0.28 0.275-0.307 0.069-0.068 0.145-0.12 0.226-0.158 0.081-0.037 0.16-0.056 0.239-0.056 0.134 0 0.249 0.045 0.345 0.134 0.097 0.089 0.161 0.218 0.193 0.387 0.16-0.214 0.295-0.354 0.405-0.42 0.11-0.067 0.224-0.101 0.34-0.101 0.113 0 0.214 0.033 0.302 0.101 0.088 0.066 0.157 0.175 0.209 0.326 0.034 0.104 0.051 0.265 0.051 0.485v1.051c0 0.152 0.01 0.258 0.03 0.314 0.016 0.039 0.044 0.072 0.086 0.1s0.11 0.042 0.205 0.042v0.096h-1.053v-0.096h0.045c0.091 0 0.163-0.021 0.214-0.062 0.036-0.028 0.062-0.074 0.077-0.136 0.006-0.03 0.009-0.117 0.009-0.259v-1.051c0-0.199-0.021-0.34-0.062-0.421-0.061-0.114-0.158-0.171-0.291-0.171-0.083 0-0.165 0.023-0.248 0.07s-0.184 0.135-0.302 0.263l-0.005 0.029 0.005 0.115v1.165c0 0.167 0.008 0.271 0.024 0.312s0.047 0.075 0.092 0.103c0.045 0.028 0.122 0.042 0.23 0.042v0.096h-1.078v-0.096c0.118 0 0.199-0.017 0.243-0.048 0.045-0.032 0.075-0.08 0.093-0.145 0.008-0.03 0.012-0.118 0.012-0.264v-1.051c0-0.199-0.026-0.342-0.077-0.43-0.068-0.113-0.164-0.17-0.286-0.17-0.084 0-0.167 0.025-0.25 0.077-0.129 0.078-0.228 0.166-0.298 0.264v1.31c0 0.16 0.01 0.264 0.029 0.312s0.048 0.084 0.086 0.108c0.038 0.023 0.115 0.036 0.231 0.036v0.096h-1.055v-0.096c0.098 0 0.166-0.013 0.205-0.036 0.039-0.024 0.068-0.062 0.089-0.115 0.02-0.052 0.03-0.153 0.03-0.305v-0.934c0-0.269-0.007-0.441-0.021-0.52-0.011-0.059-0.027-0.1-0.051-0.122-0.023-0.021-0.056-0.033-0.096-0.033-0.043 0-0.096 0.014-0.156 0.04l-0.034-0.096 0.643-0.299h0.1v0.54z"/>
	<path d="m95.697 364.77c-0.002 0.362 0.075 0.647 0.23 0.854s0.338 0.309 0.547 0.309c0.14 0 0.262-0.044 0.364-0.132 0.104-0.088 0.19-0.238 0.26-0.452l0.072 0.054c-0.032 0.243-0.127 0.465-0.284 0.665-0.156 0.2-0.353 0.3-0.589 0.3-0.256 0-0.476-0.113-0.658-0.342s-0.273-0.536-0.273-0.922c0-0.418 0.094-0.743 0.281-0.978 0.187-0.233 0.422-0.351 0.704-0.351 0.239 0 0.436 0.091 0.589 0.271 0.154 0.18 0.23 0.421 0.23 0.724h-1.473zm0-0.16h0.987c-0.008-0.157-0.024-0.268-0.049-0.331-0.039-0.1-0.097-0.178-0.174-0.234-0.077-0.058-0.157-0.086-0.241-0.086-0.129 0-0.244 0.058-0.346 0.172-0.101 0.12-0.16 0.28-0.177 0.48z"/>
	<path d="m99.057 363.03l0.769-0.43h0.077v3.053c0 0.203 0.007 0.329 0.022 0.379s0.045 0.088 0.092 0.115c0.046 0.026 0.141 0.041 0.284 0.045v0.099h-1.188v-0.099c0.148-0.004 0.245-0.019 0.288-0.044 0.044-0.025 0.074-0.061 0.091-0.104 0.018-0.043 0.025-0.173 0.025-0.391v-1.951c0-0.264-0.008-0.433-0.022-0.507-0.012-0.057-0.031-0.099-0.06-0.125-0.029-0.027-0.063-0.04-0.104-0.04-0.058 0-0.138 0.027-0.24 0.082l-0.033-0.07z"/>
	<path d="m101.14 366.36v-0.099c0.201-0.003 0.39-0.057 0.563-0.161 0.174-0.104 0.342-0.285 0.504-0.545s0.275-0.545 0.339-0.856c-0.244 0.18-0.465 0.27-0.661 0.27-0.223 0-0.412-0.098-0.571-0.295-0.158-0.196-0.237-0.457-0.237-0.782 0-0.316 0.079-0.599 0.237-0.846 0.191-0.3 0.44-0.45 0.748-0.45 0.259 0 0.481 0.123 0.666 0.368 0.227 0.304 0.34 0.679 0.34 1.125 0 0.401-0.086 0.776-0.259 1.124-0.172 0.348-0.412 0.636-0.72 0.865-0.25 0.188-0.522 0.282-0.817 0.282h-0.13zm1.44-1.85c0.028-0.23 0.042-0.416 0.042-0.555 0-0.172-0.025-0.358-0.077-0.559-0.051-0.199-0.124-0.353-0.218-0.46-0.094-0.106-0.2-0.16-0.32-0.16-0.138 0-0.259 0.071-0.363 0.214s-0.155 0.354-0.155 0.635c0 0.375 0.068 0.668 0.207 0.88 0.101 0.152 0.225 0.229 0.372 0.229 0.071 0 0.156-0.02 0.254-0.059s0.19-0.09 0.27-0.16z"/>
	<path d="m103.52 366.36v-0.099c0.201-0.003 0.39-0.057 0.563-0.161 0.174-0.104 0.342-0.285 0.504-0.545s0.275-0.545 0.339-0.856c-0.244 0.18-0.465 0.27-0.661 0.27-0.223 0-0.412-0.098-0.571-0.295-0.158-0.196-0.237-0.457-0.237-0.782 0-0.316 0.079-0.599 0.237-0.846 0.191-0.3 0.44-0.45 0.748-0.45 0.259 0 0.481 0.123 0.666 0.368 0.227 0.304 0.34 0.679 0.34 1.125 0 0.401-0.086 0.776-0.259 1.124-0.172 0.348-0.412 0.636-0.72 0.865-0.25 0.188-0.522 0.282-0.817 0.282h-0.13zm1.44-1.85c0.028-0.23 0.042-0.416 0.042-0.555 0-0.172-0.025-0.358-0.077-0.559-0.051-0.199-0.124-0.353-0.218-0.46-0.094-0.106-0.2-0.16-0.32-0.16-0.138 0-0.259 0.071-0.363 0.214s-0.155 0.354-0.155 0.635c0 0.375 0.068 0.668 0.207 0.88 0.101 0.152 0.225 0.229 0.372 0.229 0.071 0 0.156-0.02 0.254-0.059s0.2-0.09 0.27-0.16z"/>
	<path d="m105.9 363.36c0.09-0.243 0.204-0.432 0.341-0.564 0.138-0.132 0.309-0.198 0.514-0.198 0.253 0 0.447 0.094 0.582 0.282 0.103 0.141 0.154 0.291 0.154 0.451 0 0.263-0.145 0.535-0.434 0.815 0.194 0.088 0.341 0.212 0.44 0.374 0.099 0.161 0.148 0.352 0.148 0.57 0 0.312-0.087 0.584-0.261 0.813-0.227 0.299-0.555 0.448-0.984 0.448-0.213 0-0.357-0.03-0.435-0.091s-0.115-0.126-0.115-0.195c0-0.051 0.019-0.097 0.055-0.136s0.08-0.059 0.132-0.059c0.038 0 0.078 0.007 0.118 0.021 0.026 0.009 0.087 0.041 0.18 0.098 0.093 0.056 0.157 0.089 0.193 0.1 0.058 0.02 0.118 0.029 0.184 0.029 0.158 0 0.296-0.07 0.413-0.211s0.176-0.307 0.176-0.498c0-0.141-0.026-0.277-0.081-0.411-0.04-0.1-0.085-0.175-0.133-0.227-0.066-0.071-0.158-0.136-0.274-0.193-0.117-0.058-0.235-0.087-0.356-0.087h-0.074v-0.08c0.122-0.018 0.245-0.068 0.369-0.151 0.123-0.084 0.213-0.185 0.269-0.302s0.084-0.246 0.084-0.387c0-0.183-0.05-0.331-0.15-0.443-0.101-0.113-0.225-0.17-0.374-0.17-0.24 0-0.441 0.147-0.603 0.443l-0.08-0.03z"/>
</g>
<g fill="#29140E">
	<path d="m79.459 332.09v4.068h-0.229c-0.172-1.062-0.492-1.875-0.961-2.441-0.469-0.565-1-0.848-1.594-0.848-0.496 0-0.951 0.21-1.365 0.632-0.414 0.421-0.717 0.973-0.908 1.653-0.246 0.871-0.369 1.841-0.369 2.908 0 1.051 0.09 2.008 0.27 2.87 0.18 0.863 0.461 1.515 0.844 1.956s0.879 0.663 1.488 0.663c0.5 0 0.958-0.162 1.374-0.485s0.854-0.88 1.315-1.671v1.013c-0.445 0.688-0.909 1.185-1.392 1.494-0.482 0.309-1.046 0.463-1.69 0.463-0.848 0-1.601-0.251-2.259-0.753-0.658-0.503-1.166-1.224-1.523-2.165-0.357-0.94-0.536-1.941-0.536-3.004 0-1.119 0.198-2.181 0.595-3.186 0.396-1.004 0.932-1.783 1.605-2.337s1.39-0.831 2.147-0.831c0.559 0 1.148 0.179 1.77 0.536 0.359 0.208 0.588 0.312 0.686 0.312 0.125 0 0.233-0.068 0.325-0.204s0.151-0.351 0.179-0.645h0.228z"/>
	<path d="m83.396 338.45v3.636c0 0.601 0.022 0.976 0.067 1.126s0.133 0.281 0.264 0.394 0.308 0.169 0.53 0.169h0.264v0.32h-4.154v-0.32h0.264c0.23 0 0.416-0.061 0.557-0.182 0.102-0.081 0.18-0.22 0.234-0.416 0.043-0.138 0.064-0.502 0.064-1.091v-7.722c0-0.6-0.021-0.975-0.064-1.125s-0.13-0.281-0.261-0.394c-0.131-0.113-0.308-0.169-0.53-0.169h-0.264v-0.32h4.154v0.32h-0.264c-0.23 0-0.416 0.061-0.557 0.182-0.102 0.081-0.182 0.219-0.24 0.415-0.043 0.139-0.064 0.502-0.064 1.091v3.324h2.807v-3.324c0-0.6-0.021-0.975-0.064-1.125s-0.131-0.281-0.264-0.394c-0.133-0.113-0.311-0.169-0.533-0.169h-0.258v-0.32h4.148v0.32h-0.258c-0.234 0-0.42 0.061-0.557 0.182-0.102 0.081-0.182 0.219-0.24 0.415-0.043 0.139-0.064 0.502-0.064 1.091v7.722c0 0.601 0.021 0.976 0.064 1.126s0.131 0.281 0.264 0.394 0.311 0.169 0.533 0.169h0.258v0.32h-4.148v-0.32h0.258c0.234 0 0.42-0.061 0.557-0.182 0.102-0.081 0.182-0.22 0.24-0.416 0.043-0.138 0.064-0.502 0.064-1.091v-3.636h-2.807z"/>
	<path d="m94.441 340.76h-2.807l-0.334 1.143c-0.109 0.381-0.164 0.696-0.164 0.944 0 0.328 0.09 0.571 0.27 0.727 0.105 0.093 0.365 0.162 0.779 0.208v0.32h-2.643v-0.32c0.285-0.063 0.52-0.238 0.703-0.523 0.184-0.286 0.41-0.876 0.68-1.771l2.842-9.367h0.111l2.865 9.627c0.273 0.912 0.498 1.486 0.674 1.723 0.133 0.179 0.32 0.283 0.562 0.312v0.32h-3.844v-0.32h0.158c0.309 0 0.525-0.063 0.65-0.19 0.086-0.092 0.129-0.225 0.129-0.398 0-0.104-0.012-0.21-0.035-0.32-0.008-0.052-0.066-0.269-0.176-0.649l-0.42-1.46zm-0.199-0.64l-1.184-4.042-1.219 4.042h2.403z"/>
	<path d="m103.83 340.1l2.156-7.739h3.234v0.32h-0.258c-0.234 0-0.422 0.061-0.562 0.182-0.098 0.081-0.176 0.216-0.234 0.406-0.043 0.139-0.064 0.5-0.064 1.083v7.738c0 0.601 0.021 0.976 0.064 1.126s0.131 0.281 0.264 0.394 0.311 0.169 0.533 0.169h0.258v0.32h-4.148v-0.32h0.258c0.234 0 0.422-0.061 0.562-0.182 0.098-0.081 0.176-0.22 0.234-0.416 0.043-0.138 0.064-0.502 0.064-1.091v-8.699l-3.047 10.708h-0.141l-3.094-10.631v8.268c0 0.577 0.01 0.932 0.029 1.064 0.051 0.289 0.161 0.524 0.331 0.706s0.437 0.272 0.8 0.272v0.32h-2.719v-0.32h0.082c0.176 0.006 0.34-0.036 0.492-0.126 0.152-0.089 0.268-0.209 0.346-0.358 0.078-0.15 0.139-0.361 0.182-0.633 0.008-0.062 0.012-0.357 0.012-0.883v-7.427c0-0.595-0.021-0.966-0.064-1.113-0.043-0.146-0.131-0.276-0.264-0.389s-0.311-0.169-0.533-0.169h-0.252v-0.32h3.246l2.24 7.74z"/>
	<path d="m112.68 338.78v3.255c0 0.635 0.026 1.035 0.079 1.199s0.146 0.296 0.281 0.394c0.135 0.099 0.382 0.147 0.741 0.147v0.32h-4.037v-0.32c0.367 0 0.616-0.051 0.747-0.151s0.223-0.232 0.275-0.394c0.053-0.162 0.079-0.561 0.079-1.195v-7.618c0-0.635-0.026-1.034-0.079-1.198-0.053-0.165-0.146-0.296-0.278-0.395-0.133-0.098-0.381-0.146-0.744-0.146v-0.32h3.463c1.141 0 1.959 0.3 2.455 0.9s0.744 1.35 0.744 2.25c0 0.762-0.16 1.414-0.48 1.957-0.32 0.542-0.762 0.912-1.324 1.107-0.38 0.14-1.02 0.21-1.92 0.21zm0-5.74v5.073c0.129 0.012 0.227 0.017 0.293 0.017 0.477 0 0.844-0.209 1.102-0.627 0.258-0.419 0.387-1.066 0.387-1.943 0-0.872-0.129-1.51-0.387-1.913-0.258-0.404-0.643-0.606-1.154-0.606h-0.24z"/>
	<path d="m120.87 340.76h-2.807l-0.334 1.143c-0.109 0.381-0.164 0.696-0.164 0.944 0 0.328 0.09 0.571 0.27 0.727 0.105 0.093 0.365 0.162 0.779 0.208v0.32h-2.643v-0.32c0.285-0.063 0.52-0.238 0.703-0.523 0.184-0.286 0.41-0.876 0.68-1.771l2.842-9.367h0.111l2.865 9.627c0.273 0.912 0.498 1.486 0.674 1.723 0.133 0.179 0.32 0.283 0.562 0.312v0.32h-3.844v-0.32h0.158c0.309 0 0.525-0.063 0.65-0.19 0.086-0.092 0.129-0.225 0.129-0.398 0-0.104-0.012-0.21-0.035-0.32-0.008-0.052-0.066-0.269-0.176-0.649l-0.43-1.46zm-0.2-0.64l-1.184-4.042-1.219 4.042h2.4z"/>
	<path d="m132.83 332.09v4.138h-0.217c-0.262-1.131-0.654-1.991-1.178-2.58-0.523-0.588-1.096-0.883-1.717-0.883-0.594 0-1.088 0.247-1.482 0.74s-0.674 1.182-0.838 2.064c-0.164 0.884-0.246 1.789-0.246 2.719 0 1.125 0.09 2.112 0.27 2.961 0.18 0.848 0.47 1.472 0.87 1.869 0.4 0.398 0.876 0.598 1.427 0.598 0.191 0 0.388-0.03 0.589-0.091s0.407-0.148 0.618-0.264v-2.441c0-0.462-0.021-0.761-0.064-0.896s-0.132-0.258-0.267-0.368c-0.135-0.109-0.298-0.164-0.489-0.164h-0.205v-0.32h3.861v0.32c-0.293 0.029-0.497 0.088-0.612 0.178-0.115 0.089-0.204 0.238-0.267 0.445-0.035 0.11-0.053 0.378-0.053 0.806v2.441c-0.508 0.334-1.036 0.587-1.585 0.757s-1.118 0.256-1.708 0.256c-0.754 0-1.38-0.151-1.878-0.455-0.498-0.303-0.938-0.701-1.318-1.194s-0.679-1.049-0.894-1.666c-0.273-0.797-0.41-1.688-0.41-2.676 0-1.766 0.42-3.258 1.26-4.476 0.84-1.217 1.896-1.826 3.17-1.826 0.395 0 0.75 0.046 1.066 0.139 0.172 0.046 0.45 0.178 0.835 0.394 0.385 0.217 0.612 0.325 0.683 0.325 0.109 0 0.211-0.06 0.305-0.178s0.18-0.342 0.258-0.671h0.23z"/>
	<path d="m136.87 332.36l3.92 7.28v-5.047c0-0.704-0.068-1.181-0.205-1.429-0.188-0.335-0.502-0.496-0.943-0.484v-0.32h2.625v0.32c-0.336 0.063-0.562 0.146-0.677 0.246-0.115 0.102-0.205 0.266-0.27 0.494-0.064 0.228-0.097 0.618-0.097 1.173v9.773h-0.199l-5.373-9.773v7.462c0 0.675 0.104 1.131 0.313 1.368 0.209 0.236 0.448 0.354 0.718 0.354h0.188v0.32h-2.818v-0.32c0.438-0.006 0.742-0.139 0.914-0.398s0.258-0.701 0.258-1.324v-8.284l-0.17-0.312c-0.168-0.312-0.316-0.516-0.445-0.614s-0.314-0.152-0.557-0.164v-0.32h2.83z"/>
	<path d="m145.82 333.04v4.778h0.158c0.504 0 0.869-0.233 1.096-0.701 0.227-0.467 0.371-1.157 0.434-2.068h0.223v6.146h-0.223c-0.047-0.67-0.146-1.218-0.296-1.646-0.15-0.427-0.325-0.714-0.524-0.861-0.199-0.146-0.488-0.221-0.867-0.221v3.307c0 0.646 0.019 1.042 0.056 1.187s0.106 0.263 0.208 0.354c0.102 0.093 0.266 0.139 0.492 0.139h0.475c0.742 0 1.337-0.254 1.784-0.762s0.769-1.281 0.964-2.32h0.217l-0.357 3.731h-6.867v-0.32h0.264c0.23 0 0.416-0.061 0.557-0.182 0.102-0.081 0.18-0.22 0.234-0.416 0.043-0.138 0.064-0.502 0.064-1.091v-7.722c0-0.53-0.01-0.856-0.029-0.978-0.039-0.202-0.111-0.358-0.217-0.468-0.148-0.162-0.352-0.242-0.609-0.242h-0.264v-0.32h6.65v3.471h-0.223c-0.113-0.848-0.272-1.457-0.478-1.826s-0.495-0.641-0.87-0.813c-0.219-0.104-0.629-0.156-1.23-0.156h-0.81z"/>
</g>
	<linearGradient id="SVGID_17_" y2="139.42" gradientUnits="userSpaceOnUse" x2="116.17" y1="139.42" x1="107.29">
		<stop stop-color="#F0C582" offset="0"/>
		<stop stop-color="#864819" offset=".1484"/>
		<stop stop-color="#91531D" offset=".1688"/>
		<stop stop-color="#AF732C" offset=".2062"/>
		<stop stop-color="#E6AF51" offset=".2558"/>
		<stop stop-color="#F8C35F" offset=".2692"/>
		<stop stop-color="#29140E" offset=".522"/>
		<stop stop-color="#462516" offset=".5943"/>
		<stop stop-color="#68371B" offset=".681"/>
		<stop stop-color="#7E441A" offset=".7477"/>
		<stop stop-color="#864819" offset=".7857"/>
	</linearGradient>
	<path d="m112.87 137.83l0.533-1.292c0.938 0.198 1.634 0.527 2.089 0.988s0.683 1.046 0.683 1.754c0 0.876-0.39 1.597-1.169 2.161-0.779 0.565-1.845 0.847-3.196 0.847-1.43 0-2.54-0.284-3.331-0.851s-1.187-1.313-1.187-2.238c0-0.808 0.311-1.464 0.932-1.968 0.367-0.3 0.895-0.525 1.582-0.675l0.41 1.319c-0.445 0.078-0.797 0.241-1.055 0.489s-0.387 0.548-0.387 0.903c0 0.489 0.229 0.886 0.686 1.191s1.197 0.457 2.221 0.457c1.086 0 1.859-0.15 2.32-0.45s0.691-0.69 0.691-1.171c0-0.354-0.146-0.659-0.439-0.914s-0.73-0.45-1.36-0.56z" fill="url(#SVGID_17_)"/>
	<linearGradient id="SVGID_18_" y2="132.75" gradientUnits="userSpaceOnUse" x2="116.03" y1="132.75" x1="107.44">
		<stop stop-color="#F0C582" offset="0"/>
		<stop stop-color="#864819" offset=".1484"/>
		<stop stop-color="#91531D" offset=".1688"/>
		<stop stop-color="#AF732C" offset=".2062"/>
		<stop stop-color="#E6AF51" offset=".2558"/>
		<stop stop-color="#F8C35F" offset=".2692"/>
		<stop stop-color="#29140E" offset=".522"/>
		<stop stop-color="#462516" offset=".5943"/>
		<stop stop-color="#68371B" offset=".681"/>
		<stop stop-color="#7E441A" offset=".7477"/>
		<stop stop-color="#864819" offset=".7857"/>
	</linearGradient>
	<path d="m116.03 135.39h-8.59v-1.333h3.381v-2.612h-3.381v-1.333h8.59v1.333h-3.756v2.612h3.756v1.33z" fill="url(#SVGID_18_)"/>
	<linearGradient id="SVGID_19_" y2="126.1" gradientUnits="userSpaceOnUse" x2="116.03" y1="126.1" x1="107.44">
		<stop stop-color="#F0C582" offset="0"/>
		<stop stop-color="#864819" offset=".1484"/>
		<stop stop-color="#91531D" offset=".1688"/>
		<stop stop-color="#AF732C" offset=".2062"/>
		<stop stop-color="#E6AF51" offset=".2558"/>
		<stop stop-color="#F8C35F" offset=".2692"/>
		<stop stop-color="#29140E" offset=".522"/>
		<stop stop-color="#462516" offset=".5943"/>
		<stop stop-color="#68371B" offset=".681"/>
		<stop stop-color="#7E441A" offset=".7477"/>
		<stop stop-color="#864819" offset=".7857"/>
	</linearGradient>
	<path d="m116.03 122.78v1.45l-1.951 0.576v2.639l1.951 0.545v1.414l-8.59-2.571v-1.41l8.59-2.65zm-3.4 2.46l-3.188 0.91 3.188 0.892v-1.8z" fill="url(#SVGID_19_)"/>
	<linearGradient id="SVGID_20_" y2="118.91" gradientUnits="userSpaceOnUse" x2="116.03" y1="118.91" x1="107.44">
		<stop stop-color="#F0C582" offset="0"/>
		<stop stop-color="#864819" offset=".1484"/>
		<stop stop-color="#91531D" offset=".1688"/>
		<stop stop-color="#AF732C" offset=".2062"/>
		<stop stop-color="#E6AF51" offset=".2558"/>
		<stop stop-color="#F8C35F" offset=".2692"/>
		<stop stop-color="#29140E" offset=".522"/>
		<stop stop-color="#462516" offset=".5943"/>
		<stop stop-color="#68371B" offset=".681"/>
		<stop stop-color="#7E441A" offset=".7477"/>
		<stop stop-color="#864819" offset=".7857"/>
	</linearGradient>
	<path d="m116.03 122.09h-8.59v-1.995l5.859-1.198-5.859-1.185v-2h8.59v1.238h-6.762l6.762 1.311v1.284l-6.762 1.306h6.762v1.23z" fill="url(#SVGID_20_)"/>
	<linearGradient id="SVGID_21_" y2="111.86" gradientUnits="userSpaceOnUse" x2="116.03" y1="111.86" x1="107.44">
		<stop stop-color="#F0C582" offset="0"/>
		<stop stop-color="#864819" offset=".1484"/>
		<stop stop-color="#91531D" offset=".1688"/>
		<stop stop-color="#AF732C" offset=".2062"/>
		<stop stop-color="#E6AF51" offset=".2558"/>
		<stop stop-color="#F8C35F" offset=".2692"/>
		<stop stop-color="#29140E" offset=".522"/>
		<stop stop-color="#462516" offset=".5943"/>
		<stop stop-color="#68371B" offset=".681"/>
		<stop stop-color="#7E441A" offset=".7477"/>
		<stop stop-color="#864819" offset=".7857"/>
	</linearGradient>
	<path d="m116.03 114.39h-8.59v-2.139c0-0.811 0.043-1.339 0.129-1.585 0.129-0.378 0.409-0.695 0.841-0.951 0.432-0.255 0.989-0.382 1.673-0.382 0.527 0 0.971 0.073 1.33 0.22s0.642 0.334 0.847 0.561 0.341 0.457 0.407 0.691c0.082 0.318 0.123 0.779 0.123 1.383v0.869h3.24v1.34zm-7.14-1.33h2.438v-0.729c0-0.525-0.045-0.877-0.135-1.054s-0.23-0.316-0.422-0.417c-0.191-0.1-0.414-0.15-0.668-0.15-0.312 0-0.57 0.07-0.773 0.211s-0.33 0.32-0.381 0.536c-0.039 0.159-0.059 0.479-0.059 0.959v0.64z" fill="url(#SVGID_21_)"/>
	<linearGradient id="SVGID_22_" y2="106.29" gradientUnits="userSpaceOnUse" x2="116.03" y1="106.29" x1="107.44">
		<stop stop-color="#F0C582" offset="0"/>
		<stop stop-color="#864819" offset=".1484"/>
		<stop stop-color="#91531D" offset=".1688"/>
		<stop stop-color="#AF732C" offset=".2062"/>
		<stop stop-color="#E6AF51" offset=".2558"/>
		<stop stop-color="#F8C35F" offset=".2692"/>
		<stop stop-color="#29140E" offset=".522"/>
		<stop stop-color="#462516" offset=".5943"/>
		<stop stop-color="#68371B" offset=".681"/>
		<stop stop-color="#7E441A" offset=".7477"/>
		<stop stop-color="#864819" offset=".7857"/>
	</linearGradient>
	<path d="m116.03 102.97v1.45l-1.95 0.58v2.639l1.951 0.545v1.414l-8.59-2.571v-1.41l8.59-2.64zm-3.4 2.46l-3.188 0.91 3.188 0.892v-1.8z" fill="url(#SVGID_22_)"/>
	<linearGradient id="SVGID_23_" y2="99.409" gradientUnits="userSpaceOnUse" x2="116.17" y1="99.409" x1="107.29">
		<stop stop-color="#F0C582" offset="0"/>
		<stop stop-color="#864819" offset=".1484"/>
		<stop stop-color="#91531D" offset=".1688"/>
		<stop stop-color="#AF732C" offset=".2062"/>
		<stop stop-color="#E6AF51" offset=".2558"/>
		<stop stop-color="#F8C35F" offset=".2692"/>
		<stop stop-color="#29140E" offset=".522"/>
		<stop stop-color="#462516" offset=".5943"/>
		<stop stop-color="#68371B" offset=".681"/>
		<stop stop-color="#7E441A" offset=".7477"/>
		<stop stop-color="#864819" offset=".7857"/>
	</linearGradient>
	<path d="m112.87 99.195h-1.447v-2.873h3.422c0.352 0.279 0.661 0.684 0.929 1.213s0.401 1.067 0.401 1.61c0 0.691-0.188 1.292-0.565 1.806-0.377 0.513-0.916 0.899-1.617 1.157s-1.464 0.387-2.288 0.387c-0.895 0-1.689-0.144-2.385-0.432s-1.229-0.71-1.6-1.266c-0.285-0.423-0.428-0.95-0.428-1.581 0-0.82 0.224-1.46 0.671-1.921 0.447-0.46 1.065-0.757 1.854-0.889l0.322 1.324c-0.422 0.093-0.755 0.268-0.999 0.525s-0.366 0.577-0.366 0.961c0 0.583 0.24 1.045 0.721 1.389s1.193 0.516 2.139 0.516c1.02 0 1.784-0.174 2.294-0.522s0.765-0.804 0.765-1.369c0-0.279-0.071-0.559-0.214-0.84s-0.315-0.522-0.519-0.723h-1.09v1.517z" fill="url(#SVGID_23_)"/>
	<linearGradient id="SVGID_24_" y2="92.46" gradientUnits="userSpaceOnUse" x2="116.03" y1="92.46" x1="107.44">
		<stop stop-color="#F0C582" offset="0"/>
		<stop stop-color="#864819" offset=".1484"/>
		<stop stop-color="#91531D" offset=".1688"/>
		<stop stop-color="#AF732C" offset=".2062"/>
		<stop stop-color="#E6AF51" offset=".2558"/>
		<stop stop-color="#F8C35F" offset=".2692"/>
		<stop stop-color="#29140E" offset=".522"/>
		<stop stop-color="#462516" offset=".5943"/>
		<stop stop-color="#68371B" offset=".681"/>
		<stop stop-color="#7E441A" offset=".7477"/>
		<stop stop-color="#864819" offset=".7857"/>
	</linearGradient>
	<path d="m116.03 95.079h-8.59v-1.297l5.736-2.702h-5.736v-1.238h8.59v1.337l-5.602 2.662h5.602v1.238z" fill="url(#SVGID_24_)"/>
	<linearGradient id="SVGID_25_" y2="85.921" gradientUnits="userSpaceOnUse" x2="116.03" y1="85.921" x1="107.44">
		<stop stop-color="#F0C582" offset="0"/>
		<stop stop-color="#864819" offset=".1484"/>
		<stop stop-color="#91531D" offset=".1688"/>
		<stop stop-color="#AF732C" offset=".2062"/>
		<stop stop-color="#E6AF51" offset=".2558"/>
		<stop stop-color="#F8C35F" offset=".2692"/>
		<stop stop-color="#29140E" offset=".522"/>
		<stop stop-color="#462516" offset=".5943"/>
		<stop stop-color="#68371B" offset=".681"/>
		<stop stop-color="#7E441A" offset=".7477"/>
		<stop stop-color="#864819" offset=".7857"/>
	</linearGradient>
	<path d="m116.03 88.432h-8.59v-4.895h1.453v3.562h1.904v-3.314h1.447v3.314h2.338v-3.688h1.447v5.021z" fill="url(#SVGID_25_)"/>
	<linearGradient id="SVGID_26_" y2="172.75" gradientUnits="userSpaceOnUse" x2="118.71" y1="172.75" x1="104.62">
		<stop stop-color="#86C3E7" offset="0"/>
		<stop stop-color="#7FBEE3" offset=".1844"/>
		<stop stop-color="#6AAFD7" offset=".4099"/>
		<stop stop-color="#4699C5" offset=".6568"/>
		<stop stop-color="#007DAD" offset=".9174"/>
		<stop stop-color="#0074A5" offset="1"/>
	</linearGradient>
	<path stroke="#864819" stroke-width=".5" d="m111.66 179.9c0.31 0.151 0.673 0.238 1.069 0.238 0.787 0 1.406-0.438 1.729-0.774 0.573-0.595 1.103-0.953 1.862-0.89 1.913-1.928 2.381-3.863 2.381-5.157 0-1.929-0.609-2.974-0.565-4.474 0.026-0.914 0.471-1.638 0.471-1.638-1.278-0.868-1.727-1.834-1.727-1.834-1.063 0.887-1.656 0.504-2.944 0.504-1.792 0-2.276 0.971-2.276 0.971s-0.485-0.971-2.277-0.971c-1.288 0-1.881 0.383-2.944-0.504 0 0-0.448 0.966-1.727 1.834 0 0 0.444 0.724 0.471 1.638 0.044 1.5-0.565 2.544-0.565 4.474 0 1.294 0.468 3.229 2.382 5.157 0.759-0.062 1.288 0.295 1.861 0.89 0.323 0.336 0.942 0.774 1.729 0.774 0.4 0 0.76-0.09 1.07-0.24z" fill="url(#SVGID_26_)"/>
	<path d="m98.849 184.77l1.181-3.725-1.896 2.087c-0.174 0.192-0.263 0.331-0.264 0.416-0.002 0.116 0.059 0.23 0.182 0.341l0.11 0.101-0.077 0.085-1.088-0.988 0.077-0.085 0.111 0.101c0.132 0.12 0.262 0.165 0.39 0.135 0.078-0.018 0.197-0.115 0.356-0.29l1.854-2.041c0.126-0.138 0.201-0.252 0.227-0.341 0.019-0.064 0.013-0.137-0.018-0.219-0.03-0.083-0.109-0.182-0.236-0.297l0.077-0.085 0.885 0.803-1.087 3.474 3.335-1.431 0.885 0.804-0.078 0.085-0.107-0.099c-0.134-0.121-0.265-0.167-0.393-0.138-0.078 0.019-0.197 0.115-0.356 0.291l-1.854 2.041c-0.175 0.192-0.262 0.331-0.263 0.418-0.001 0.116 0.06 0.229 0.182 0.341l0.108 0.099-0.077 0.085-1.327-1.206 0.078-0.085 0.11 0.101c0.134 0.121 0.264 0.167 0.39 0.135 0.078-0.019 0.197-0.115 0.356-0.29l1.896-2.087-3.592 1.534-0.089-0.04z"/>
	<path d="m104.25 185.05l-1.117 2c-0.087 0.156-0.134 0.266-0.14 0.33-0.007 0.064 0.006 0.122 0.036 0.172s0.104 0.108 0.222 0.174l-0.055 0.098-1.209-0.675 0.055-0.098c0.121 0.068 0.209 0.102 0.264 0.101 0.056 0 0.11-0.021 0.165-0.062s0.125-0.138 0.211-0.292l0.536-0.959c0.15-0.27 0.24-0.449 0.269-0.538 0.02-0.065 0.021-0.116 0.008-0.154-0.015-0.038-0.046-0.07-0.093-0.096-0.051-0.028-0.12-0.049-0.207-0.062l0.017-0.119 0.919 0.114 0.12 0.08zm0.5-1.43c0.076 0.042 0.126 0.105 0.15 0.188 0.023 0.083 0.014 0.163-0.029 0.239-0.042 0.076-0.105 0.126-0.189 0.151-0.083 0.024-0.163 0.015-0.239-0.027s-0.126-0.106-0.15-0.19c-0.023-0.085-0.015-0.165 0.028-0.241 0.042-0.076 0.105-0.126 0.188-0.149 0.08-0.02 0.16-0.01 0.24 0.03z"/>
	<path d="m106.65 184.51l-1.418 3.505c-0.066 0.166-0.1 0.28-0.097 0.344 0.002 0.063 0.022 0.119 0.062 0.167 0.038 0.048 0.126 0.1 0.263 0.155l-0.042 0.104-1.296-0.524 0.042-0.104c0.122 0.049 0.209 0.07 0.264 0.063s0.105-0.035 0.154-0.082c0.048-0.048 0.105-0.153 0.172-0.317l0.971-2.4c0.121-0.298 0.188-0.484 0.202-0.558 0.015-0.074 0.012-0.129-0.008-0.166s-0.053-0.065-0.099-0.083c-0.051-0.021-0.12-0.031-0.209-0.031l-0.009-0.121 0.919-0.004 0.16 0.05z"/>
	<path d="m108.44 185.06l-0.966 3.656c-0.045 0.172-0.063 0.29-0.053 0.353 0.01 0.062 0.037 0.116 0.082 0.158 0.045 0.043 0.138 0.083 0.28 0.121l-0.028 0.108-1.352-0.356 0.029-0.108c0.126 0.033 0.216 0.043 0.269 0.029s0.101-0.047 0.143-0.101c0.042-0.053 0.086-0.165 0.131-0.335l0.66-2.503c0.083-0.311 0.126-0.504 0.131-0.579s-0.005-0.129-0.029-0.164-0.061-0.058-0.108-0.071c-0.053-0.014-0.123-0.015-0.212-0.004l-0.022-0.119 0.91-0.12 0.14 0.03z"/>
	<path d="m109.35 187.95c-0.047 0.42 0.02 0.762 0.2 1.023 0.181 0.262 0.41 0.407 0.688 0.438 0.186 0.02 0.353-0.014 0.501-0.101s0.282-0.25 0.401-0.487l0.089 0.072c-0.073 0.278-0.227 0.522-0.46 0.731-0.233 0.21-0.507 0.298-0.82 0.264-0.341-0.037-0.618-0.201-0.832-0.492s-0.297-0.661-0.248-1.108c0.052-0.484 0.217-0.849 0.495-1.094 0.277-0.245 0.604-0.347 0.979-0.306 0.317 0.034 0.567 0.167 0.749 0.398s0.254 0.522 0.216 0.873l-1.96-0.2zm0.02-0.18l1.312 0.141c0.009-0.183 0.001-0.312-0.024-0.391-0.039-0.121-0.105-0.22-0.201-0.297-0.095-0.077-0.198-0.122-0.31-0.133-0.171-0.019-0.331 0.031-0.48 0.15s-0.25 0.3-0.3 0.53zm1.73-2.19l-1.027 0.969-0.105-0.011 0.439-1.033 0.7 0.07z"/>
	<path d="m113.82 186.9l0.059 0.969-0.103 0.006c-0.098-0.3-0.211-0.5-0.341-0.603-0.13-0.102-0.29-0.147-0.48-0.136-0.145 0.009-0.26 0.054-0.344 0.136-0.085 0.082-0.124 0.169-0.118 0.263 0.007 0.116 0.046 0.213 0.117 0.292 0.069 0.081 0.205 0.164 0.408 0.247l0.467 0.193c0.433 0.179 0.659 0.437 0.68 0.772 0.016 0.259-0.069 0.473-0.256 0.644-0.186 0.17-0.4 0.263-0.643 0.277-0.174 0.011-0.374-0.008-0.602-0.057-0.07-0.017-0.126-0.024-0.17-0.021-0.048 0.003-0.083 0.032-0.107 0.087l-0.102 0.006-0.062-1.016 0.103-0.006c0.076 0.286 0.2 0.498 0.372 0.635 0.173 0.137 0.36 0.2 0.563 0.187 0.144-0.008 0.257-0.058 0.342-0.147s0.124-0.193 0.117-0.311c-0.009-0.143-0.066-0.26-0.173-0.351s-0.314-0.202-0.623-0.333c-0.31-0.131-0.515-0.253-0.615-0.368-0.101-0.112-0.156-0.259-0.167-0.439-0.014-0.234 0.055-0.435 0.205-0.602 0.151-0.167 0.354-0.259 0.608-0.274 0.112-0.007 0.249 0.009 0.412 0.046 0.107 0.025 0.179 0.036 0.214 0.034 0.033-0.002 0.059-0.011 0.076-0.027 0.018-0.015 0.037-0.049 0.06-0.1h0.09z"/>
	<path d="m115.62 186.58l0.458 2.244c0.035 0.175 0.071 0.289 0.109 0.341 0.037 0.053 0.083 0.088 0.139 0.106 0.056 0.019 0.149 0.014 0.282-0.013l0.022 0.109-1.357 0.277-0.022-0.11c0.137-0.028 0.225-0.06 0.267-0.096 0.041-0.036 0.069-0.087 0.084-0.154 0.016-0.066 0.005-0.187-0.03-0.359l-0.22-1.077c-0.062-0.303-0.11-0.497-0.147-0.583-0.027-0.062-0.059-0.103-0.095-0.122-0.035-0.019-0.08-0.023-0.133-0.012-0.057 0.011-0.123 0.041-0.198 0.088l-0.064-0.101 0.771-0.513 0.14-0.04zm-0.56-1.41c0.086-0.018 0.164-0.002 0.236 0.045 0.072 0.048 0.117 0.114 0.135 0.2s0.002 0.165-0.045 0.238c-0.048 0.073-0.114 0.119-0.2 0.136-0.085 0.018-0.164 0.002-0.237-0.047-0.074-0.048-0.119-0.115-0.137-0.201s-0.002-0.164 0.046-0.236c0.04-0.07 0.11-0.12 0.19-0.14z"/>
	<path d="m117.49 186.75c0.108-0.273 0.173-0.431 0.194-0.475 0.055-0.109 0.122-0.206 0.204-0.289 0.081-0.083 0.171-0.146 0.268-0.188 0.164-0.071 0.325-0.085 0.484-0.041s0.298 0.147 0.417 0.311c0.097-0.313 0.197-0.536 0.301-0.666s0.228-0.226 0.37-0.288c0.139-0.061 0.278-0.079 0.416-0.054 0.139 0.024 0.274 0.104 0.408 0.238 0.09 0.092 0.186 0.256 0.288 0.492l0.489 1.125c0.071 0.164 0.132 0.271 0.184 0.321 0.037 0.034 0.088 0.054 0.152 0.061 0.063 0.007 0.154-0.015 0.271-0.065l0.044 0.103-1.29 0.561-0.044-0.103 0.054-0.024c0.112-0.049 0.19-0.108 0.234-0.18 0.03-0.049 0.041-0.112 0.03-0.187-0.006-0.036-0.042-0.129-0.108-0.282l-0.489-1.125c-0.093-0.213-0.184-0.352-0.273-0.417-0.127-0.089-0.272-0.099-0.436-0.027-0.102 0.043-0.191 0.113-0.271 0.208s-0.162 0.242-0.247 0.442l0.008 0.034 0.06 0.121 0.542 1.247c0.077 0.179 0.136 0.286 0.175 0.321s0.093 0.056 0.161 0.061c0.067 0.005 0.168-0.021 0.302-0.079l0.044 0.103-1.321 0.575-0.045-0.103c0.146-0.063 0.237-0.124 0.276-0.181 0.039-0.058 0.055-0.125 0.046-0.203-0.005-0.037-0.041-0.133-0.108-0.289l-0.489-1.125c-0.093-0.213-0.19-0.353-0.294-0.418-0.137-0.085-0.28-0.095-0.431-0.03-0.103 0.044-0.192 0.116-0.27 0.215-0.121 0.152-0.202 0.3-0.242 0.441l0.609 1.401c0.074 0.171 0.135 0.277 0.181 0.318s0.099 0.064 0.156 0.07 0.158-0.023 0.301-0.085l0.044 0.103-1.292 0.562-0.045-0.103c0.12-0.052 0.198-0.101 0.234-0.147s0.055-0.103 0.055-0.17c0.001-0.067-0.034-0.181-0.104-0.343l-0.435-0.999c-0.125-0.288-0.214-0.469-0.268-0.545-0.041-0.057-0.08-0.091-0.119-0.103s-0.083-0.006-0.133 0.015c-0.054 0.023-0.11 0.065-0.173 0.126l-0.087-0.084 0.648-0.663 0.123-0.053 0.26 0.55z"/>
	<path d="m121.62 182.14l-0.087 1.41-0.085 0.064-0.385-1.055 0.56-0.42zm0.35 2.93c0.253 0.339 0.534 0.543 0.845 0.61s0.578 0.017 0.802-0.151c0.148-0.112 0.248-0.251 0.296-0.416 0.049-0.165 0.035-0.375-0.04-0.63l0.115-0.008c0.136 0.253 0.19 0.536 0.163 0.849s-0.166 0.564-0.418 0.753c-0.273 0.206-0.588 0.276-0.943 0.209s-0.668-0.28-0.938-0.639c-0.294-0.39-0.422-0.769-0.387-1.137 0.036-0.368 0.204-0.666 0.506-0.893 0.256-0.192 0.528-0.266 0.819-0.221s0.542 0.208 0.754 0.49l-1.58 1.19zm-0.11-0.15l1.054-0.793c-0.118-0.14-0.213-0.229-0.284-0.269-0.111-0.062-0.228-0.088-0.35-0.079-0.122 0.008-0.229 0.046-0.317 0.114-0.138 0.104-0.221 0.25-0.249 0.438s0.02 0.39 0.15 0.59z"/>
	<path d="m124.38 183.06c0.311 0.288 0.624 0.438 0.941 0.448 0.318 0.01 0.571-0.087 0.762-0.294 0.126-0.137 0.198-0.292 0.216-0.462 0.019-0.171-0.033-0.375-0.153-0.613l0.111-0.029c0.18 0.225 0.284 0.493 0.314 0.805s-0.062 0.584-0.275 0.816c-0.232 0.252-0.528 0.377-0.89 0.376-0.361-0.001-0.708-0.154-1.039-0.459-0.358-0.33-0.554-0.68-0.585-1.048-0.032-0.369 0.08-0.692 0.336-0.97 0.217-0.235 0.472-0.357 0.766-0.365 0.294-0.009 0.571 0.106 0.83 0.345l-1.34 1.44zm-0.13-0.13l0.894-0.971c-0.141-0.116-0.25-0.187-0.328-0.213-0.12-0.041-0.24-0.045-0.358-0.015-0.118 0.031-0.216 0.087-0.291 0.169-0.117 0.127-0.172 0.286-0.165 0.476 0.01 0.18 0.09 0.37 0.25 0.54z"/>
	<path d="m104.25 158.2l0.639 1.288-0.089 0.037c-0.283-0.347-0.571-0.562-0.864-0.645s-0.594-0.061-0.902 0.068c-0.259 0.107-0.465 0.27-0.619 0.488s-0.231 0.496-0.232 0.833c0 0.337 0.088 0.719 0.266 1.146 0.146 0.353 0.33 0.635 0.551 0.847 0.221 0.211 0.473 0.339 0.757 0.383s0.572 0.005 0.863-0.116c0.253-0.105 0.454-0.252 0.603-0.44 0.148-0.189 0.271-0.492 0.37-0.911l0.113 0.021c-0.052 0.428-0.175 0.777-0.368 1.046s-0.47 0.478-0.828 0.627c-0.646 0.268-1.245 0.236-1.799-0.095-0.412-0.247-0.719-0.611-0.919-1.094-0.162-0.389-0.223-0.783-0.184-1.181s0.174-0.75 0.405-1.057c0.231-0.306 0.527-0.534 0.89-0.685 0.282-0.117 0.588-0.164 0.92-0.139 0.098 0.009 0.164 0.006 0.198-0.008 0.052-0.021 0.089-0.059 0.112-0.111 0.028-0.072 0.034-0.159 0.017-0.26l0.09-0.04z"/>
	<path d="m109.12 158.64l0.288 1.703c0.055 0.326 0.096 0.523 0.124 0.593 0.027 0.07 0.061 0.116 0.099 0.139 0.039 0.023 0.081 0.031 0.126 0.023 0.063-0.01 0.132-0.04 0.206-0.088l0.061 0.1-0.782 0.489-0.138 0.023-0.101-0.595c-0.197 0.303-0.354 0.499-0.469 0.587-0.116 0.089-0.244 0.146-0.385 0.169-0.158 0.026-0.303 0.004-0.434-0.067-0.131-0.072-0.23-0.175-0.3-0.311-0.069-0.136-0.126-0.334-0.17-0.596l-0.213-1.255c-0.022-0.133-0.052-0.223-0.089-0.269-0.038-0.046-0.087-0.078-0.147-0.096-0.062-0.018-0.165-0.014-0.312 0.013l-0.019-0.114 0.984-0.167 0.318 1.881c0.044 0.262 0.119 0.426 0.224 0.492s0.222 0.089 0.351 0.067c0.088-0.015 0.184-0.059 0.285-0.133 0.103-0.074 0.217-0.202 0.344-0.383l-0.269-1.592c-0.027-0.16-0.074-0.263-0.143-0.309-0.067-0.046-0.194-0.056-0.379-0.029l-0.02-0.113 0.95-0.15z"/>
	<path d="m110.87 158.48l1.341 0.038-0.003 0.115-0.088-0.002c-0.08-0.002-0.143 0.016-0.187 0.054-0.043 0.038-0.066 0.091-0.068 0.157-0.002 0.073 0.018 0.16 0.059 0.26l0.618 1.593 0.712-1.615c0.051-0.115 0.077-0.202 0.079-0.262 0-0.029-0.007-0.053-0.023-0.072-0.021-0.032-0.05-0.054-0.085-0.066s-0.106-0.02-0.214-0.023l0.003-0.115 0.93 0.026-0.003 0.115c-0.108 0.005-0.184 0.025-0.226 0.059-0.074 0.06-0.143 0.162-0.205 0.306l-1.079 2.417-0.128-0.004-0.95-2.433c-0.042-0.113-0.083-0.195-0.124-0.245-0.04-0.05-0.092-0.092-0.154-0.127-0.035-0.02-0.104-0.039-0.207-0.059l0.01-0.13z"/>
	<path d="m115.61 159.92c-0.092 0.413-0.062 0.759 0.089 1.039 0.151 0.279 0.363 0.449 0.637 0.509 0.183 0.04 0.353 0.024 0.509-0.046 0.157-0.071 0.308-0.218 0.452-0.441l0.081 0.082c-0.104 0.268-0.282 0.494-0.537 0.677-0.255 0.184-0.536 0.241-0.844 0.174-0.335-0.073-0.593-0.266-0.773-0.578-0.182-0.312-0.224-0.689-0.128-1.129 0.104-0.476 0.308-0.821 0.61-1.034 0.303-0.213 0.638-0.279 1.007-0.199 0.312 0.068 0.546 0.228 0.702 0.477 0.155 0.25 0.195 0.546 0.12 0.891l-1.93-0.42zm0.04-0.18l1.289 0.282c0.028-0.18 0.035-0.311 0.019-0.391-0.026-0.125-0.082-0.23-0.168-0.317-0.086-0.086-0.185-0.142-0.294-0.166-0.168-0.037-0.333-0.004-0.494 0.098-0.17 0.11-0.29 0.28-0.36 0.5zm1.95-1.99l-1.126 0.853-0.104-0.023 0.548-0.979 0.68 0.15z"/>
	<path d="m119.25 160.93c-0.165 0.39-0.198 0.736-0.1 1.038 0.099 0.302 0.277 0.507 0.536 0.615 0.173 0.072 0.342 0.087 0.509 0.045s0.342-0.159 0.523-0.353l0.065 0.094c-0.149 0.246-0.366 0.436-0.649 0.571s-0.57 0.141-0.861 0.02c-0.316-0.132-0.535-0.368-0.658-0.708-0.122-0.34-0.097-0.718 0.077-1.133 0.188-0.45 0.449-0.753 0.785-0.908 0.336-0.156 0.678-0.161 1.026-0.016 0.295 0.123 0.496 0.321 0.604 0.595 0.109 0.273 0.096 0.573-0.04 0.898l-1.82-0.75zm0.07-0.17l1.218 0.508c0.061-0.172 0.09-0.299 0.088-0.381-0.003-0.127-0.039-0.241-0.108-0.342s-0.155-0.173-0.259-0.216c-0.159-0.066-0.327-0.064-0.504 0.007-0.19 0.07-0.33 0.21-0.44 0.42z"/>
<path d="m113.37 172.04v0.165c0.036 0.006 0.062 0.01 0.077 0.013 0.204 0.033 0.351 0.089 0.436 0.167 0.087 0.079 0.13 0.162 0.13 0.248 0 0.134-0.069 0.374-0.209 0.719l-1.428 3.503-1.349-3.106c0.108-0.046 0.226-0.077 0.323-0.137 0.404-0.25 0.758-0.644 1.061-1.183l-0.137-0.089c-0.36 0.5-0.69 0.834-0.991 1.002-0.114 0.063-0.242 0.104-0.37 0.144l-0.077-0.179c-0.137-0.315-0.205-0.547-0.205-0.696 0-0.107 0.042-0.195 0.124-0.264 0.083-0.068 0.266-0.116 0.545-0.143v-0.165h-2.473v0.165c0.186 0.015 0.332 0.048 0.44 0.1s0.2 0.124 0.274 0.217c0.047 0.059 0.128 0.223 0.246 0.491l0.24 0.554c-0.363-0.03-0.698-0.117-0.992-0.294-0.353-0.214-0.616-0.522-0.791-0.924-0.176-0.402-0.265-0.876-0.265-1.424 0-0.664 0.094-1.218 0.279-1.665 0.187-0.446 0.441-0.771 0.766-0.975 0.323-0.204 0.687-0.306 1.089-0.306 0.479 0 0.89 0.135 1.231 0.406s0.605 0.714 0.79 1.33h0.139l-0.139-2.057h-0.156c-0.033 0.143-0.088 0.254-0.164 0.335-0.061 0.057-0.131 0.084-0.211 0.084-0.054 0-0.143-0.032-0.268-0.098-0.426-0.214-0.857-0.321-1.294-0.321-0.562 0-1.082 0.139-1.556 0.417-0.475 0.278-0.847 0.67-1.117 1.176-0.271 0.505-0.406 1.061-0.406 1.665 0 0.75 0.205 1.401 0.615 1.955 0.551 0.744 1.327 1.116 2.33 1.116 0.102 0 0.189-0.026 0.286-0.035l1.859 4.278h0.164l2.11-5.15c0.123-0.3 0.263-0.523 0.421-0.669 0.109-0.098 0.271-0.166 0.485-0.205v-0.165h-1.85z" fill="#fff"/>
<metadata><rdf:RDF><cc:Work><dc:format>image/svg+xml</dc:format><dc:type rdf:resource="http://purl.org/dc/dcmitype/StillImage"/><cc:license rdf:resource="http://creativecommons.org/licenses/publicdomain/"/><dc:publisher><cc:Agent rdf:about="http://openclipart.org/"><dc:title>Openclipart</dc:title></cc:Agent></dc:publisher></cc:Work><cc:License rdf:about="http://creativecommons.org/licenses/publicdomain/"><cc:permits rdf:resource="http://creativecommons.org/ns#Reproduction"/><cc:permits rdf:resource="http://creativecommons.org/ns#Distribution"/><cc:permits rdf:resource="http://creativecommons.org/ns#DerivativeWorks"/></cc:License></rdf:RDF></metadata></svg>
