<?xml version="1.0"?>
<svg xmlns:rdf="http://www.w3.org/1999/02/22-rdf-syntax-ns#" xmlns="http://www.w3.org/2000/svg" xmlns:cc="http://creativecommons.org/ns#" xmlns:xlink="http://www.w3.org/1999/xlink" xmlns:dc="http://purl.org/dc/elements/1.1/" id="svg2" style="" viewBox="0 0 78.777 285.95" version="1.0">
  <defs id="defs4">
    <linearGradient id="linearGradient7297">
      <stop id="stop7299" stop-color="#c4af84" offset="0"/>
      <stop id="stop7301" stop-color="#735728" offset="1"/>
    </linearGradient>
    <linearGradient id="linearGradient4294">
      <stop id="stop4298" stop-color="#fcfdf8" offset="0"/>
      <stop id="stop4300" stop-color="#f1d379" offset=".59218"/>
      <stop id="stop4316" stop-color="#4b2f12" offset="1"/>
    </linearGradient>
    <linearGradient id="linearGradient4362">
      <stop id="stop4364" stop-color="#fff" offset="0"/>
      <stop id="stop4366" stop-opacity=".64246" offset="1"/>
    </linearGradient>
    <linearGradient id="linearGradient3529">
      <stop id="stop3531" stop-color="#0e0e0e" offset="0"/>
      <stop id="stop3539" stop-color="#161616" offset=".12678"/>
      <stop id="stop3541" stop-color="#162413" offset=".29332"/>
      <stop id="stop3543" stop-color="#2d431d" offset=".51718"/>
      <stop id="stop3545" stop-color="#49740b" offset=".73817"/>
      <stop id="stop3547" stop-color="#70ab1f" offset=".91018"/>
      <stop id="stop3533" stop-color="#99d734" offset="1"/>
    </linearGradient>
    <filter id="filter3553">
      <feGaussianBlur id="feGaussianBlur3555" stdDeviation="0.86222004"/>
    </filter>
    <clipPath id="clipPath4229" clipPathUnits="userSpaceOnUse">
      <path id="path4231" style="color:rgb(0, 0, 0)" transform="translate(-1.7948 -2.3242)" fill="url(#linearGradient4233)" d="m1311.4 869.85c-8.6558 0.041-12.463 2.8155-13 4.5312-0.5404 1.7263-0.7822 3.5947-0.625 5 0.1575 1.4053 0.5775 1.9223 0.5625 3.4688s-0.1085 10.287-0.1875 11.938c-0.079 1.6502-0.962 2.8679-0.875 5s1.4938 3.487 1.4687 7.3438c1.2435 64.993-25.432 87.423-24.906 137.88l-0.4688 84c-0.039 20.103 32.186 18.219 37.969 18.219h0.2812c5.7836 0 38.008 1.8845 37.969-18.219l-0.4688-84c0.5262-50.452-26.15-72.882-24.906-137.88-0.025-3.8567 1.3819-5.2117 1.4688-7.3438 0.087-2.1321-0.7965-3.3498-0.875-5-0.079-1.6502-0.2042-10.391-0.2188-11.938-0.015-1.5465 0.405-2.0634 0.5625-3.4688 0.1572-1.4053-0.053-3.2737-0.5937-5-0.5372-1.7157-4.3441-4.5312-13-4.5312h-0.1563z"/>
    </clipPath>
    <linearGradient id="linearGradient4233" x1="1273.4" xlink:href="#linearGradient3529" gradientUnits="userSpaceOnUse" x2="1337.8" y1="1026.6" y2="1012.8"/>
    <filter id="filter3890" y="-.018466" width="1.3398" x="-.16988" height="1.0369">
      <feGaussianBlur id="feGaussianBlur3892" stdDeviation="3.624769"/>
    </filter>
    <filter id="filter4338" y="-.42781" width="1.1786" x="-.089322" height="1.8556">
      <feGaussianBlur id="feGaussianBlur4340" stdDeviation="1.7632197"/>
    </filter>
    <filter id="filter4804">
      <feGaussianBlur id="feGaussianBlur4806" stdDeviation="0.96599538"/>
    </filter>
    <filter id="filter11994" y="-.16298" width="1.0552" x="-.027594" height="1.326">
      <feGaussianBlur id="feGaussianBlur11996" stdDeviation="1.2926948"/>
    </filter>
    <linearGradient id="linearGradient3894" x1="1286" xlink:href="#linearGradient3529" gradientUnits="userSpaceOnUse" x2="1341" y1="1029.9" y2="1018.4"/>
    <radialGradient id="radialGradient3896" gradientUnits="userSpaceOnUse" cy="920.53" cx="1275.6" gradientTransform="matrix(-1.9146 .20148 -.54823 -5.2098 4306.6 5462.4)" r="22">
      <stop id="stop4208" stop-color="#dcad38" stop-opacity="0" offset="0"/>
      <stop id="stop4210" stop-color="#fff9db" stop-opacity="0" offset=".15921"/>
      <stop id="stop4212" stop-color="#e1b94c" offset=".79267"/>
      <stop id="stop4214" stop-color="#010101" offset="1"/>
    </radialGradient>
    <radialGradient id="radialGradient3898" gradientUnits="userSpaceOnUse" cy="921.12" cx="1284" gradientTransform="matrix(1.548 .18260 -1.6471 13.963 825.48 -12158)" r="22">
      <stop id="stop4190" stop-color="#dcad38" offset="0"/>
      <stop id="stop4192" stop-color="#fff9db" offset=".15921"/>
      <stop id="stop4194" stop-color="#e1b94c" stop-opacity=".86034" offset=".36832"/>
      <stop id="stop4196" stop-color="#010101" stop-opacity="0" offset="1"/>
    </radialGradient>
    <linearGradient id="linearGradient3900" x1="1652.6" xlink:href="#linearGradient4362" gradientUnits="userSpaceOnUse" x2="1685.4" y1="1069.8" y2="1069.8"/>
    <linearGradient id="linearGradient3902" x1="1677.6" xlink:href="#linearGradient4362" gradientUnits="userSpaceOnUse" x2="1657.5" y1="1069.8" y2="1069.8"/>
    <linearGradient id="linearGradient3904" x1="1686.4" xlink:href="#linearGradient4362" gradientUnits="userSpaceOnUse" x2="1657.5" y1="1069.8" y2="1069.8"/>
    <linearGradient id="linearGradient3906" x1="1720.1" xlink:href="#linearGradient4362" gradientUnits="userSpaceOnUse" x2="1657.5" y1="1069.8" y2="1069.8"/>
    <linearGradient id="linearGradient3908" y2="1228.8" gradientUnits="userSpaceOnUse" y1="1675.1" x2="2563.2" x1="2559.1">
      <stop id="stop3884" stop-color="#fff" offset="0"/>
      <stop id="stop3886" stop-color="#fff" stop-opacity="0" offset="1"/>
    </linearGradient>
    <linearGradient id="linearGradient3910" y2="987.75" gradientUnits="userSpaceOnUse" y1="1018.9" x2="2445.9" x1="2283.9">
      <stop id="stop4600" stop-color="#010006" offset="0"/>
      <stop id="stop4606" stop-color="#010006" offset=".85585"/>
      <stop id="stop4602" stop-color="#fff" stop-opacity="0" offset="1"/>
    </linearGradient>
    <linearGradient id="linearGradient3912" y2="918.5" gradientUnits="userSpaceOnUse" y1="1036.5" x2="2403.6" x1="2503.4">
      <stop id="stop4584" stop-color="#fff" offset="0"/>
      <stop id="stop4586" stop-color="#fff" stop-opacity="0" offset="1"/>
    </linearGradient>
    <linearGradient id="linearGradient3914" y2="885.47" gradientUnits="userSpaceOnUse" y1="1032.5" x2="2434.3" x1="2393.7">
      <stop id="stop4576" stop-color="#fff" offset="0"/>
      <stop id="stop4578" stop-color="#fff" stop-opacity="0" offset="1"/>
    </linearGradient>
    <linearGradient id="linearGradient3916" y2="783.62" gradientUnits="userSpaceOnUse" y1="804.44" x2="2246.3" x1="2184.8">
      <stop id="stop4575" stop-color="#c51f32" offset="0"/>
      <stop id="stop4579" stop-color="#d62947" offset=".42415"/>
      <stop id="stop4583" stop-color="#831c20" offset="1"/>
    </linearGradient>
    <linearGradient id="linearGradient3918" x1="1120.8" xlink:href="#linearGradient4294" gradientUnits="userSpaceOnUse" y1="535.07" gradientTransform="translate(-250.08 84.745)" x2="1144.7" y2="537.58"/>
    <linearGradient id="linearGradient3920" y2="451.32" gradientUnits="userSpaceOnUse" y1="451.32" x2="568.77" x1="501.93">
      <stop id="stop5084-1-8" stop-color="#faf5d5" offset="0"/>
      <stop id="stop5086-2-9" stop-color="#fbf5df" offset=".069203"/>
      <stop id="stop5088-1-8" stop-color="#faf0d5" offset=".14936"/>
      <stop id="stop5090-4-3" stop-color="#f7e8c6" offset=".21839"/>
      <stop id="stop5092-9-5" stop-color="#f0e2c0" offset=".30745"/>
      <stop id="stop5094-8-5" stop-color="#efe2c2" offset=".39651"/>
      <stop id="stop5096-2-1" stop-color="#e3d4b1" offset=".47444"/>
      <stop id="stop5098-4-5" stop-color="#ddc8a2" offset=".5546"/>
      <stop id="stop5100-5-5" stop-color="#d6bf95" offset=".61886"/>
      <stop id="stop5102-2-8" stop-color="#d5bd91" offset=".66238"/>
      <stop id="stop5104-9-4" stop-color="#cfb78b" offset=".72605"/>
      <stop id="stop5106-9-0" stop-color="#cdb589" offset=".80175"/>
      <stop id="stop5108-8-5" stop-color="#bba377" offset=".89305"/>
      <stop id="stop5110-3-4" stop-color="#957f58" offset="1"/>
    </linearGradient>
    <linearGradient id="linearGradient3922" y2="510.72" gradientUnits="userSpaceOnUse" y1="510.72" x2="581.41" x1="514.56">
      <stop id="stop4986-9-0" stop-color="#393e37" offset="0"/>
      <stop id="stop4992-8-0" stop-color="#7c785c" offset=".11549"/>
      <stop id="stop4994-6-7" stop-color="#38382d" offset=".21036"/>
      <stop id="stop4998-6-2" stop-color="#2c2f28" offset=".32072"/>
      <stop id="stop5000-2-5" stop-color="#2b2d27" offset=".41172"/>
      <stop id="stop5002-3-5" stop-color="#1b1f19" offset=".51627"/>
      <stop id="stop5004-8-2" stop-color="#161d19" offset=".61114"/>
      <stop id="stop5006-2-1" stop-color="#171d19" offset=".70989"/>
      <stop id="stop5008-6-4" stop-color="#1b1e18" offset=".82025"/>
      <stop id="stop5010-2-8" stop-color="#181d19" offset=".91125"/>
      <stop id="stop4988-7-6" stop-color="#1b201e" offset="1"/>
    </linearGradient>
    <linearGradient id="linearGradient3924" y2="456.97" gradientUnits="userSpaceOnUse" y1="456.97" x2="569.56" x1="502.88">
      <stop id="stop4890-1-8-6" stop-color="#deba5a" offset="0"/>
      <stop id="stop4896-2-2-7" stop-color="#fcfdf8" offset=".10531"/>
      <stop id="stop4898-6-7-8" stop-color="#f1d379" offset=".21244"/>
      <stop id="stop4900-0-8-7" stop-color="#e8cd74" offset=".37759"/>
      <stop id="stop4902-4-0-8" stop-color="#f8d972" offset=".56729"/>
      <stop id="stop4908-9-2-1" stop-color="#c19a49" offset=".60596"/>
      <stop id="stop4912-4-0-6" stop-color="#cfa84e" offset=".66094"/>
      <stop id="stop4904-6-8-0" stop-color="#dcb550" offset=".8485"/>
      <stop id="stop4910-0-9-9" stop-color="#b48c3e" offset=".89993"/>
      <stop id="stop4906-3-2-5" stop-color="#6a491e" offset=".94446"/>
      <stop id="stop4892-6-8-8" stop-color="#4b2f12" offset="1"/>
    </linearGradient>
    <linearGradient id="linearGradient3926" x1="1120.8" xlink:href="#linearGradient4294" gradientUnits="userSpaceOnUse" y1="535.07" gradientTransform="translate(34.076 6.4995)" x2="1144.7" y2="537.58"/>
    <linearGradient id="linearGradient3928" y2="534.06" gradientUnits="userSpaceOnUse" y1="533.02" x2="1131" x1="1131">
      <stop id="stop4655" stop-color="#fcfdf8" offset="0"/>
      <stop id="stop4657" stop-color="#f1d379" offset=".44824"/>
      <stop id="stop4659" stop-color="#4b2f12" offset="1"/>
    </linearGradient>
    <radialGradient id="radialGradient3930" gradientUnits="userSpaceOnUse" cy="528.99" cx="1131.5" gradientTransform="matrix(-1.1677 .018718 -.0056312 -.35128 2455.6 698.44)" r="3.6806">
      <stop id="stop4778" stop-color="#4b2f12" stop-opacity="0" offset="0"/>
      <stop id="stop4774" stop-color="#f1d379" stop-opacity=".39106" offset=".44824"/>
      <stop id="stop4776" stop-color="#fcfdf8" offset="1"/>
    </radialGradient>
    <linearGradient id="linearGradient3932" x1="1129.5" xlink:href="#linearGradient4294" gradientUnits="userSpaceOnUse" x2="1129.6" y1="546.11" y2="546.97"/>
    <radialGradient id="radialGradient3934" xlink:href="#linearGradient4294" gradientUnits="userSpaceOnUse" cy="539.78" cx="1130.7" gradientTransform="matrix(1.0335 .89538 -.75624 .87293 369.58 -943.88)" r=".47241"/>
    <linearGradient id="linearGradient4063" y2="509.52" gradientUnits="userSpaceOnUse" y1="509.52" x2="1070.3" x1="1034.7">
      <stop id="stop4709" stop-color="#fcfdf8" offset="0"/>
      <stop id="stop4711" stop-color="#f1d379" offset=".62731"/>
      <stop id="stop4713" stop-color="#4b2f12" offset="1"/>
    </linearGradient>
    <radialGradient id="radialGradient4065" gradientUnits="userSpaceOnUse" cy="539.78" cx="1130.7" gradientTransform="matrix(1.0335 .89538 -.75624 .87293 369.58 -943.88)" r=".47241">
      <stop id="stop4298-6" stop-color="#fcfdf8" offset="0"/>
      <stop id="stop4300-8" stop-color="#f1d379" offset=".59218"/>
      <stop id="stop4316-8" stop-color="#4b2f12" offset="1"/>
    </radialGradient>
    <linearGradient id="linearGradient4067" x1="1108.4" xlink:href="#linearGradient7297" gradientUnits="userSpaceOnUse" x2="1146.3" y1="529.85" y2="529.41"/>
    <linearGradient id="linearGradient4087" x1="1051.2" xlink:href="#linearGradient7297" gradientUnits="userSpaceOnUse" x2="1134.8" y1="537.73" y2="537.73"/>
    <linearGradient id="linearGradient4089" x1="1035" xlink:href="#linearGradient7297" gradientUnits="userSpaceOnUse" x2="1127.1" y1="537.73" y2="537.73"/>
    <linearGradient id="linearGradient4091" x1="1049.3" xlink:href="#linearGradient7297" gradientUnits="userSpaceOnUse" x2="1140.5" y1="537.73" y2="537.73"/>
    <linearGradient id="linearGradient4093" y2="559.83" gradientUnits="userSpaceOnUse" y1="562.07" x2="1143.5" x1="1124.5">
      <stop id="stop4890" stop-color="#deba5a" offset="0"/>
      <stop id="stop4896" stop-color="#fcfdf8" offset=".10531"/>
      <stop id="stop4898" stop-color="#f1d379" offset=".21244"/>
      <stop id="stop4900" stop-color="#e8cd74" offset=".37759"/>
      <stop id="stop4902" stop-color="#f8d972" offset=".56729"/>
      <stop id="stop4908" stop-color="#c19a49" offset=".60596"/>
      <stop id="stop4912" stop-color="#cfa84e" offset=".66094"/>
      <stop id="stop4904" stop-color="#dcb550" offset=".8485"/>
      <stop id="stop4910" stop-color="#b48c3e" offset=".89993"/>
      <stop id="stop4906" stop-color="#6a491e" offset=".94446"/>
      <stop id="stop4892" stop-color="#4b2f12" offset="1"/>
    </linearGradient>
    <linearGradient id="linearGradient4095" y2="562.72" gradientUnits="userSpaceOnUse" y1="560.3" x2="1135.2" x1="1132.3">
      <stop id="stop8626" stop-color="#fdefc2" offset="0"/>
      <stop id="stop8628" stop-color="#c3a662" offset="1"/>
    </linearGradient>
  </defs>
  <g id="layer1" transform="translate(-613.95 -413.64)">
    <path id="path11992" opacity=".51479" style="color:rgb(0, 0, 0)" d="m82.985 274.46a56.215 9.5179 0 1 1 -112.43 0 56.215 9.5179 0 1 1 112.43 0z" transform="matrix(.66402 0 0 1.5 635.57 268.97)" filter="url(#filter11994)"/>
    <flowRoot id="flowRoot4224" style="color:#000000;text-anchor:middle;text-align:center" xml:space="preserve" font-size="64px" line-height="100%" font-family="Arial" fill="#deb74a">
      <flowRegion id="flowRegion4226">
        <rect id="rect4228" y="1287.8" width="37.391" x="1409.8" height="45.7"/>
      </flowRegion>
      <flowPara id="flowPara4230">Mathioe</flowPara>
    </flowRoot>
    <g id="g4235" transform="translate(-937.45 -487.04)">
      <path id="path4225" transform="translate(279.89 31.132)" fill="url(#linearGradient3894)" d="m1311.4 869.85c-8.7 0.05-12.5 2.82-13 4.54-0.6 1.72-0.8 3.59-0.6 5 0.1 1.4 0.5 1.92 0.5 3.46 0 1.55-0.1 10.29-0.2 11.94 0 1.65-0.9 2.87-0.8 5s1.5 3.49 1.4 7.35c1.3 64.99-25.4 87.42-24.9 137.86l-0.4 84c-0.1 20.1 32.1 18.2 37.9 18.2h0.3c5.8 0 38 1.9 38-18.2l-0.5-84c0.5-50.44-26.1-72.87-24.9-137.86 0-3.86 1.4-5.22 1.5-7.35s-0.8-3.35-0.9-5-0.2-10.39-0.2-11.94c0-1.54 0.4-2.06 0.5-3.46 0.2-1.41 0-3.28-0.6-5-0.5-1.72-4.3-4.54-13-4.54h-0.1z"/>
      <path id="path4171" d="m1309.6 868.88c-4.2 0.01-7.1 0.67-9 1.5-1 0.42-1.7 0.93-2.1 1.31-0.1 0.16-0.2 0.29-0.3 0.37 0-0.02 0.1-0.06 0.1-0.09 0.1-0.02 0.2-0.03 0.2-0.03l0.3-0.03c-0.1 0 0.3 0.09 0.3 0.09l0.3 0.25 0.1 0.25v0.16c0.1 0.35 0 0.29 0 0.31l-1.6-0.5c-0.5 1.58-0.8 3.26-0.6 4.44 0 0.6 0.2 0.99 0.3 1.53 0.2 0.52 0.3 1.24 0.3 2.12 0 1.56-0.1 10.13-0.2 11.97-0.1 1.1-0.3 1.82-0.5 2.53s-0.4 1.44-0.4 2.35c0 0.8 0.3 1.51 0.7 2.68 0.4 1.15 0.8 2.64 0.8 4.72v0.03c0.6 32.68-5.8 54.72-12.3 74.78-6.4 20.07-12.9 38.08-12.6 63.08l-0.5 84c0 4.6 1.8 7.9 4.6 10.3 2.9 2.4 6.9 4 11.2 5 8.5 2 17.8 1.6 20.8 1.6h0.3c3.1 0 12.4 0.4 20.9-1.6 4.3-1 8.2-2.6 11.1-5s4.6-5.7 4.6-10.3l-0.4-84c0.2-25-6.2-43.01-12.7-63.08-6.4-20.06-12.9-42.13-12.2-74.81v-0.03c-0.1-2.08 0.4-3.54 0.7-4.69 0.4-1.17 0.7-1.88 0.7-2.68 0.1-0.91-0.2-1.64-0.4-2.35s-0.4-1.43-0.4-2.53c-0.1-1.82-0.2-10.39-0.3-11.97 0-0.88 0.2-1.6 0.3-2.12 0.1-0.54 0.3-0.93 0.3-1.53 0.2-1.19 0-2.88-0.5-4.44l-1.7 0.5v-0.38l0.1-0.18 0.2-0.25 0.2-0.19 0.4-0.06 0.2 0.03s0.1 0.01 0.1 0.03c0.1 0.03 0.1 0.04 0.1 0.06-0.1-0.08-0.1-0.18-0.3-0.34-0.4-0.38-1.1-0.89-2-1.31-1.9-0.83-4.9-1.5-9-1.5h-0.2z" clip-path="url(#clipPath4229)" transform="translate(281.69 33.456)" filter="url(#filter3553)" stroke="#161616" stroke-width="5" fill="none"/>
    </g>
    <g id="g4870" transform="translate(221.31 149.62)">
      <g id="g4216" transform="translate(-1349.6 -1215.5)">
        <path id="path4060" transform="translate(470.42 610.27)" fill="url(#radialGradient3896)" d="m1311.7 869.21c-8.6 0.04-12.4 2.81-13 4.53-0.5 1.72-0.8 3.59-0.6 5 0.2 1.4 0.6 1.92 0.6 3.47-0.1 1.54-0.1 10.28-0.2 11.93s-1 2.87-0.9 5c0.1 2.14 1.5 3.49 1.5 7.35 0.5 27.29-3.9 47.08-9.2 64.59l8.5 6.84 31.3-1.09 4.2-4.78c-5.3-17.75-9.9-37.76-9.4-65.56 0-3.86 1.4-5.21 1.5-7.35 0.1-2.13-0.8-3.35-0.9-5 0-1.65-0.2-10.39-0.2-11.93 0-1.55 0.4-2.07 0.6-3.47 0.1-1.41-0.1-3.28-0.6-5-0.6-1.72-4.4-4.53-13-4.53h-0.2z"/>
        <path id="path4202" transform="translate(470.42 610.27)" fill="url(#radialGradient3898)" d="m1311.7 869.21c-8.6 0.04-12.4 2.81-13 4.53-0.5 1.72-0.8 3.59-0.6 5 0.2 1.4 0.6 1.92 0.6 3.47-0.1 1.54-0.1 10.28-0.2 11.93s-1 2.87-0.9 5c0.1 2.14 1.5 3.49 1.5 7.35 0.5 27.29-3.9 47.08-9.2 64.59l8.5 6.84 31.3-1.09 4.2-4.78c-5.3-17.75-9.9-37.76-9.4-65.56 0-3.86 1.4-5.21 1.5-7.35 0.1-2.13-0.8-3.35-0.9-5 0-1.65-0.2-10.39-0.2-11.93 0-1.55 0.4-2.07 0.6-3.47 0.1-1.41-0.1-3.28-0.6-5-0.6-1.72-4.4-4.53-13-4.53h-0.2z"/>
      </g>
      <rect id="rect4402" opacity=".24719" transform="matrix(-.53974 0 0 .40634 1339.3 -157.83)" ry="3.6443" height="9.8917" filter="url(#filter4338)" width="47.376" y="1064.9" x="1656.9" fill="url(#linearGradient3900)"/>
      <rect id="rect4394" opacity=".46067" ry="3.6443" transform="matrix(-.53974 0 0 .30769 1339.3 -60.27)" height="9.8917" filter="url(#filter4338)" width="47.376" y="1064.9" x="1656.9" fill="url(#linearGradient3902)"/>
      <rect id="rect4398" opacity=".46067" ry="3.6443" transform="matrix(-.53974 0 0 .36935 1339.3 -104.72)" height="9.8917" filter="url(#filter4338)" width="47.376" y="1064.9" x="1656.9" fill="url(#linearGradient3904)"/>
      <rect id="rect4354" opacity=".29775" transform="matrix(.53974 0 0 .40634 -474.77 -136.34)" ry="3.6443" height="9.8917" filter="url(#filter4338)" width="47.376" y="1064.9" x="1656.9" fill="url(#linearGradient3906)"/>
    </g>
    <path id="path3880" filter="url(#filter3890)" transform="matrix(.49206 0 0 .40383 -634.07 -20.675)" fill="url(#linearGradient3908)" d="m2551.9 1730.3c-0.5-56.7-1-218.2-0.6-253.7 1-18.7 0.8-23 5.4-41.8 15.5-63.5 34.6-142.5 37.3-152.7 2.2-11.9 10.3-10.5 8 2.3 0 0-23.3 124.3-29.5 154.1-2.3 8.4-0.7 24.9-3.4 34.6-0.5 85.4-3 264.1-3 264.1 2.1 7-14.4 16.2-14.2-6.9z"/>
    <path id="text22787" opacity=".85674" d="m-457.24 734.62v-11.29h3.41l2.05 7.7 2.03-7.7h3.41v11.29h-2.11v-8.89l-2.24 8.89h-2.2l-2.23-8.89v8.89h-2.12zm23.36 0h-2.48l-0.98-2.57h-4.52l-0.93 2.57h-2.41l4.39-11.29h2.41l4.52 11.29zm-4.2-4.47l-1.55-4.18-1.52 4.18h3.07zm7.96 4.47v-9.38h-3.35v-1.91h8.97v1.91h-3.34v9.38h-2.28zm7.1 0v-11.29h2.28v4.44h4.47v-4.44h2.28v11.29h-2.28v-4.94h-4.47v4.94h-2.28zm11.32 0v-11.29h2.28v11.29h-2.28zm4.44 0v-11.29h8.37v1.91h-6.09v2.5h5.67v1.9h-5.67v3.08h6.31v1.9h-8.59z" transform="matrix(0 -1.1146 .89722 0 0 0)" stroke="#000" stroke-width=".43796"/>
    <path id="path22791" opacity=".85674" transform="matrix(.59828 -.032268 -.032268 -.59828 168.93 631.13)" d="m834.74 286.47l-6.67 0.26-1.66 6.46-2.3-6.26-6.66 0.41 5.24-4.12-2.45-6.21 5.55 3.72 5.14-4.25-1.82 6.42 5.63 3.57z"/>
    <g id="g9705">
      <g id="g4829" transform="translate(221.31 149.62)">
        <path id="path3946" d="m2320.1 834.89c58.4 37.86 100.7 89.76 125.5 156.86l-34 30.35c-35-67.2-52.2-86.33-108.1-131.14l16.6-56.07z" transform="matrix(-.38567 0 0 .38567 1346.3 33.139)" stroke="url(#linearGradient3912)" stroke-width=".51858" fill="url(#linearGradient3910)"/>
        <path id="path3948" style="text-transform:none;text-indent:0pt" transform="matrix(-.38567 0 0 .38567 1345.8 32.155)" fill="#fbe37f" d="m2303.8 889.14l-1 3.25c55.8 44.77 73.2 64.5 108.2 131.61l2.3-2c-35.1-67.25-53.6-88.01-109.5-132.86z"/>
        <path id="path3950" style="text-transform:none;text-indent:0pt" transform="matrix(-.38567 0 0 .38567 1448.8 -131.91)" fill="#fbe37f" d="m2584.6 1267.7c12.4 8.1 22.5 15.9 31.4 23.8l1.2-1.7c-8.9-7.8-19.4-15.7-32-24l-0.6 1.9z"/>
        <path id="path3952" d="m2319.9 834.8c58.4 37.86 100.9 89.85 125.7 156.95l-34 30.35c-35-67.2-52.4-86.32-108.3-131.13l16.6-56.17z" transform="matrix(.38567 0 0 .38567 -481.06 33.139)" stroke="url(#linearGradient3914)" stroke-width=".51858" fill="#010006"/>
        <path id="path3954" style="text-transform:none;text-indent:0pt" transform="matrix(.38567 0 0 .38567 -480.57 32.155)" fill="#fbe37f" d="m2303.3 889.14l-0.9 3.31c55.9 44.77 73.6 64.44 108.6 131.55l2.3-2c-35.1-67.25-54-88.01-110-132.86z"/>
        <path id="path3956" style="text-transform:none;text-indent:0pt" transform="matrix(.38567 0 0 .38567 -478.69 30.362)" fill="#fbe37f" d="m2300.7 886.45l-0.9 2.91c55.9 44.75 77.7 66.58 111.4 134.74l2.3-2c-34.2-67.94-56.8-90.81-112.8-135.65z"/>
        <path id="path3958" style="text-transform:none;text-indent:0pt" transform="matrix(.38567 0 0 .38567 -583.61 -131.91)" fill="#fbe37f" d="m2584.5 1267.4c12.3 8.1 22.6 16.2 31.5 24.1l1.2-1.7c-8.9-7.8-19.6-16-32.1-24.3l-0.6 1.9z"/>
      </g>
      <g id="g9687">
        <g id="g4810" transform="translate(127.26 -119.32)">
          <path id="path4483" filter="url(#filter4804)" transform="matrix(.38354 .12889 -.12995 .38042 -219.93 37.328)" d="m2246.8 849.81c-3.4 3.22-4.3 1.95-8.8 3.56-6 2.16-5.7 3.66-12.1 3.98-4.7 0.23-4.6-1.29-9-2.93-6-2.2-6.8-0.9-11.9-4.75-3.8-2.87-2.7-3.93-5-8.05-3.2-5.54-4.6-5.03-6-11.26-1.1-4.62 0.4-4.73 1.3-9.4 1.1-6.28-0.3-6.81 2.6-12.49 2.2-4.22 3.4-3.32 7-6.36 5-4.09 4.2-5.41 10.1-7.89 4.4-1.84 4.7-0.35 9.5-0.33 6.4 0.02 6.6-1.47 12.7 0.41 4.6 1.4 3.9 2.77 7.5 5.84 4.9 4.12 6.1 3.15 9.5 8.52 2.6 3.98 1.2 4.6 2 9.28 1.1 6.29 2.6 6.3 1.8 12.64-0.6 4.71-2 4.28-4.4 8.38-3.2 5.52-2.1 6.51-6.8 10.85z"/>
          <g id="g4789" transform="translate(-12.295 -5.9533)">
            <path id="path4532" transform="matrix(.38354 .12889 -.12995 .38042 -207.77 43.452)" fill="url(#linearGradient3916)" d="m2246.8 849.81c-3.4 3.22-4.3 1.95-8.8 3.56-6 2.16-5.7 3.66-12.1 3.98-4.7 0.23-4.6-1.29-9-2.93-6-2.2-6.8-0.9-11.9-4.75-3.8-2.87-2.7-3.93-5-8.05-3.2-5.54-4.6-5.03-6-11.26-1.1-4.62 0.4-4.73 1.3-9.4 1.1-6.28-0.3-6.81 2.6-12.49 2.2-4.22 3.4-3.32 7-6.36 5-4.09 4.2-5.41 10.1-7.89 4.4-1.84 4.7-0.35 9.5-0.33 6.4 0.02 6.6-1.47 12.7 0.41 4.6 1.4 3.9 2.77 7.5 5.84 4.9 4.12 6.1 3.15 9.5 8.52 2.6 3.98 1.2 4.6 2 9.28 1.1 6.29 2.6 6.3 1.8 12.64-0.6 4.71-2 4.28-4.4 8.38-3.2 5.52-2.1 6.51-6.8 10.85z"/>
            <path id="path4534" d="m2554.9 1276.4c-0.3 0.3-1.5-1.5-1.8-1.2s1.5 1.5 1.2 1.8-1.5-1.5-1.8-1.2 1.5 1.5 1.2 1.8c-0.4 0.3-1.5-1.6-1.8-1.3s1.4 1.6 1.1 1.9-1.4-1.6-1.7-1.4c-0.3 0.3 1.3 1.7 1 2-0.4 0.3-1.3-1.7-1.6-1.5-0.4 0.3 1.2 1.8 0.9 2-0.4 0.3-1.2-1.7-1.6-1.5-0.3 0.2 1.2 1.8 0.8 2-0.3 0.3-1.1-1.8-1.4-1.6-0.4 0.3 1.1 1.9 0.7 2.1s-1.1-1.9-1.4-1.7c-0.4 0.3 1 1.9 0.6 2.1-0.4 0.3-1-1.9-1.3-1.7-0.4 0.2 0.9 2 0.5 2.2-0.4 0.1-0.9-2-1.3-1.8s0.9 1.9 0.5 2.1-0.8-2-1.2-1.8 0.8 2 0.4 2.2c-0.4 0.1-0.7-2-1.2-1.9-0.4 0.1 0.7 2 0.3 2.2-0.4 0.1-0.6-2.1-1-1.9-0.4 0.1 0.6 2 0.2 2.1-0.4 0.2-0.6-2-1-1.9s0.5 2.1 0.1 2.2-0.4-2.1-0.9-2c-0.4 0.1 0.5 2.1 0 2.2-0.4 0.1-0.3-2.1-0.8-2.1-0.4 0.1 0.4 2.2 0 2.2-0.5 0.1-0.3-2.1-0.7-2-0.5 0 0.2 2.1-0.2 2.2-0.5 0-0.2-2.2-0.6-2.1-0.5 0 0.1 2.1-0.3 2.1-0.4 0.1-0.1-2.1-0.5-2.1-0.5 0.1 0 2.2-0.4 2.2s0-2.1-0.4-2.1c-0.5 0-0.1 2.1-0.5 2.1s0.1-2.1-0.4-2.1c-0.4-0.1-0.1 2.1-0.5 2.1s0.2-2.2-0.3-2.2c-0.4 0-0.1 2.2-0.6 2.1-0.4 0 0.3-2.1-0.2-2.2-0.4 0-0.2 2.2-0.7 2.1-0.4 0 0.4-2.1-0.1-2.2-0.4 0-0.3 2.2-0.8 2.1-0.4-0.1 0.5-2.1 0.1-2.2-0.5-0.1-0.5 2.1-0.9 2-0.5-0.1 0.5-2.1 0.1-2.2-0.5-0.1-0.6 2.1-1 2s0.6-2.1 0.2-2.2-0.6 2.1-1.1 1.9c-0.4-0.1 0.7-2 0.3-2.1-0.4-0.2-0.7 2-1.1 1.9-0.4-0.2 0.8-2 0.4-2.2-0.4-0.1-0.8 2-1.2 1.8-0.4-0.1 0.8-1.9 0.4-2.1s-0.9 2-1.3 1.8 1-1.9 0.6-2.1-1 1.9-1.4 1.7 1.1-1.9 0.7-2.1-1.1 1.9-1.5 1.7c-0.3-0.2 1.1-1.8 0.8-2.1-0.4-0.2-1.1 1.9-1.5 1.6-0.4-0.2 1.2-1.8 0.8-2s-1.2 1.8-1.6 1.5c-0.3-0.2 1.3-1.7 0.9-1.9-0.3-0.3-1.2 1.7-1.6 1.4-0.4-0.2 1.3-1.6 1-1.9-0.4-0.3-1.4 1.7-1.7 1.4s1.4-1.6 1-1.9c-0.3-0.3-1.4 1.6-1.7 1.3s1.5-1.6 1.1-1.8c-0.3-0.3-1.4 1.5-1.8 1.2-0.3-0.3 1.6-1.5 1.3-1.8-0.4-0.3-1.6 1.5-1.9 1.2s1.6-1.5 1.3-1.8-1.6 1.5-1.9 1.1c-0.3-0.3 1.6-1.3 1.4-1.7-0.3-0.3-1.7 1.4-2 1-0.2-0.3 1.7-1.3 1.5-1.6-0.3-0.3-1.8 1.3-2 0.9-0.3-0.3 1.7-1.2 1.5-1.5-0.3-0.4-1.8 1.2-2 0.8-0.3-0.3 1.8-1.1 1.5-1.5-0.2-0.4-1.8 1.1-2 0.8-0.3-0.4 1.8-1.1 1.6-1.5s-1.9 1.1-2.1 0.7 1.9-1 1.7-1.4-1.9 1-2.1 0.6 1.9-0.9 1.7-1.3-1.9 0.9-2.1 0.5 2-0.8 1.8-1.2-2 0.8-2.2 0.4c-0.1-0.4 2-0.8 1.9-1.2-0.2-0.4-2 0.8-2.2 0.4-0.1-0.5 2-0.7 1.9-1.1s-2 0.6-2.2 0.2c-0.1-0.4 2.1-0.6 2-1-0.2-0.4-2.1 0.6-2.2 0.2-0.1-0.5 2.1-0.5 2-1-0.2-0.4-2.1 0.5-2.2 0.1s2.1-0.4 2-0.9c-0.1-0.4-2.1 0.4-2.2 0s2.1-0.3 2-0.7c0-0.5-2.1 0.3-2.2-0.2 0-0.4 2.2-0.2 2.1-0.6 0-0.5-2.1 0.2-2.2-0.3 0-0.4 2.2-0.1 2.1-0.5 0-0.5-2.1 0.1-2.1-0.3-0.1-0.5 2.1-0.1 2.1-0.5 0-0.5-2.2 0-2.2-0.4 0-0.5 2.2 0 2.2-0.4 0-0.5-2.2-0.1-2.2-0.5 0.1-0.5 2.2 0.1 2.2-0.3 0-0.5-2.1-0.2-2.1-0.6 0-0.5 2.1 0.2 2.2-0.2 0-0.5-2.2-0.3-2.1-0.7 0-0.5 2.1 0.3 2.1-0.1 0.1-0.5-2.1-0.4-2-0.8s2.1 0.4 2.2 0c0-0.5-2.1-0.5-2.1-0.9 0.1-0.4 2.1 0.5 2.2 0.1 0.1-0.5-2.1-0.5-2-1 0.1-0.4 2.1 0.6 2.2 0.2s-2.1-0.6-1.9-1c0.1-0.4 2 0.6 2.1 0.2 0.2-0.4-2-0.7-1.9-1.1 0.2-0.4 2 0.8 2.2 0.4 0.1-0.5-2-0.8-1.9-1.2 0.2-0.4 2 0.8 2.2 0.4 0.1-0.4-2-0.8-1.8-1.2 0.1-0.4 1.9 0.9 2.1 0.5s-2-1-1.8-1.4c0.2-0.3 1.9 1 2.1 0.6s-1.9-1-1.7-1.4c0.2-0.3 1.9 1.1 2.1 0.7s-1.8-1.1-1.6-1.4c0.2-0.4 1.8 1.1 2 0.7 0.2-0.3-1.8-1.1-1.6-1.5 0.3-0.4 1.8 1.2 2 0.9 0.3-0.4-1.7-1.3-1.5-1.6 0.3-0.4 1.8 1.2 2 0.9 0.3-0.4-1.7-1.3-1.4-1.7 0.2-0.3 1.6 1.4 1.9 1.1 0.3-0.4-1.6-1.4-1.4-1.7 0.3-0.4 1.6 1.4 1.9 1 0.3-0.3-1.6-1.4-1.3-1.7s1.6 1.5 1.9 1.2c0.3-0.4-1.6-1.6-1.3-1.9s1.5 1.6 1.8 1.3-1.4-1.6-1.1-1.9 1.4 1.6 1.7 1.3-1.4-1.6-1-1.9c0.3-0.3 1.3 1.7 1.6 1.4 0.4-0.3-1.3-1.7-1-1.9 0.4-0.3 1.3 1.7 1.7 1.4 0.3-0.2-1.3-1.7-0.9-2 0.3-0.2 1.2 1.8 1.5 1.5 0.4-0.2-1.2-1.7-0.8-2 0.4-0.2 1.1 1.8 1.5 1.6s-1.1-1.8-0.7-2.1c0.3-0.2 1 1.9 1.4 1.7s-1.1-1.9-0.7-2.1 1 1.9 1.4 1.7-1-1.9-0.6-2.1 0.9 1.9 1.3 1.8c0.4-0.2-0.9-2-0.5-2.2s0.8 2 1.2 1.8c0.4-0.1-0.7-2-0.3-2.1 0.4-0.2 0.7 2 1.1 1.8 0.4-0.1-0.7-2-0.3-2.1 0.4-0.2 0.6 2 1 1.9 0.5-0.1-0.6-2.1-0.1-2.2 0.4-0.1 0.5 2.1 0.9 2 0.4-0.2-0.5-2.1-0.1-2.2s0.5 2.1 0.9 2-0.4-2.1 0-2.2 0.4 2.1 0.8 2-0.4-2.1 0.1-2.2c0.4-0.1 0.2 2.1 0.7 2.1 0.4-0.1-0.3-2.2 0.2-2.2 0.4-0.1 0.1 2.1 0.6 2.1 0.4-0.1-0.2-2.2 0.2-2.2 0.5 0 0.1 2.1 0.6 2.1 0.4 0-0.1-2.1 0.3-2.1 0.5-0.1 0 2.1 0.5 2.1 0.4 0 0-2.2 0.4-2.2 0.5 0 0 2.2 0.4 2.2s0.1-2.2 0.5-2.1c0.5 0-0.1 2.1 0.3 2.1 0.4 0.1 0.2-2.1 0.6-2.1 0.4 0.1-0.2 2.2 0.2 2.2s0.3-2.1 0.7-2.1c0.4 0.1-0.3 2.1 0.1 2.2s0.4-2.1 0.8-2c0.4 0-0.4 2.1 0 2.1 0.4 0.1 0.4-2.1 0.9-2 0.4 0.1-0.6 2.1-0.1 2.2 0.4 0.1 0.5-2.1 0.9-1.9 0.5 0.1-0.6 2-0.2 2.1 0.5 0.1 0.7-2 1.1-1.9s-0.7 2-0.3 2.2c0.4 0.1 0.7-2.1 1.1-1.9 0.4 0.1-0.7 2-0.3 2.1 0.4 0.2 0.8-2 1.2-1.8s-0.9 2-0.5 2.1c0.4 0.2 0.9-1.9 1.3-1.7 0.4 0.1-0.9 1.9-0.6 2.1 0.4 0.1 1-2 1.4-1.8s-1 1.9-0.6 2.1c0.3 0.2 1-1.9 1.4-1.6 0.4 0.2-1.1 1.8-0.7 2 0.3 0.2 1.1-1.8 1.5-1.6 0.3 0.2-1.2 1.8-0.9 2 0.4 0.3 1.2-1.7 1.6-1.5s-1.2 1.7-0.9 2c0.4 0.2 1.3-1.7 1.6-1.5 0.4 0.3-1.3 1.7-0.9 2 0.3 0.2 1.3-1.7 1.6-1.4 0.4 0.2-1.3 1.6-1 1.9 0.3 0.2 1.4-1.7 1.7-1.4 0.4 0.3-1.4 1.6-1.1 1.9s1.5-1.6 1.8-1.3-1.5 1.5-1.2 1.8c0.3 0.4 1.5-1.5 1.8-1.1 0.3 0.3-1.6 1.4-1.3 1.7s1.6-1.4 1.9-1.1-1.6 1.4-1.3 1.7c0.3 0.4 1.6-1.3 1.9-1s-1.7 1.3-1.4 1.6c0.2 0.4 1.7-1.2 2-0.9 0.2 0.4-1.8 1.2-1.5 1.6 0.2 0.3 1.7-1.2 2-0.9 0.2 0.4-1.8 1.2-1.6 1.6 0.3 0.3 1.8-1.2 2.1-0.8 0.2 0.3-1.9 1.1-1.7 1.4 0.3 0.4 1.9-1 2.1-0.7 0.2 0.4-1.9 1-1.7 1.4s1.9-1 2.1-0.6-1.9 1-1.7 1.3c0.2 0.4 2-0.9 2.1-0.5 0.2 0.4-1.9 0.9-1.8 1.3 0.2 0.4 2-0.8 2.2-0.4s-2 0.7-1.8 1.1c0.1 0.4 2-0.7 2.1-0.3 0.2 0.4-2 0.7-1.9 1.1 0.2 0.4 2.1-0.7 2.2-0.3 0.1 0.5-2.1 0.6-1.9 1 0.1 0.5 2-0.5 2.2-0.1 0.1 0.4-2.1 0.5-2 0.9s2.1-0.5 2.2 0c0.1 0.4-2.1 0.4-2 0.8 0 0.4 2.1-0.4 2.2 0 0 0.5-2.2 0.4-2.1 0.8s2.1-0.3 2.2 0.1-2.1 0.3-2.1 0.7c0.1 0.4 2.2-0.2 2.2 0.2s-2.1 0.1-2.1 0.6c0 0.4 2.1-0.1 2.2 0.3 0 0.4-2.2 0.1-2.2 0.5 0.1 0.4 2.2 0 2.2 0.4s-2.1 0-2.1 0.4 2.1 0 2.1 0.5c0 0.4-2.1-0.1-2.2 0.3 0 0.4 2.2 0.1 2.1 0.6 0 0.4-2.1-0.2-2.1 0.2-0.1 0.4 2.1 0.2 2.1 0.7-0.1 0.4-2.2-0.3-2.2 0.1-0.1 0.4 2.1 0.3 2 0.7 0 0.5-2.1-0.3-2.1 0.1-0.1 0.4 2.1 0.4 2 0.8-0.1 0.5-2.1-0.4-2.2 0s2.1 0.5 2 0.9-2.1-0.6-2.2-0.1c-0.1 0.4 2.1 0.5 2 1-0.2 0.4-2.1-0.7-2.2-0.3s2 0.7 1.9 1.1-2-0.7-2.1-0.3c-0.2 0.4 2 0.8 1.8 1.2s-2-0.9-2.1-0.5c-0.2 0.5 1.9 0.9 1.8 1.3-0.2 0.4-2-0.9-2.1-0.5-0.2 0.4 1.9 0.9 1.7 1.3s-1.9-1-2.1-0.6 1.9 1 1.7 1.4-1.9-1.1-2.1-0.7 1.9 1.1 1.7 1.5c-0.3 0.4-1.9-1.2-2.1-0.8s1.8 1.2 1.6 1.5c-0.2 0.4-1.8-1.2-2-0.8-0.3 0.4 1.7 1.2 1.5 1.6-0.3 0.3-1.7-1.3-2-1-0.2 0.4 1.7 1.4 1.5 1.7-0.3 0.3-1.7-1.4-2-1-0.2 0.3 1.7 1.4 1.4 1.7s-1.6-1.4-1.9-1.1 1.6 1.4 1.3 1.8z" transform="matrix(.50445 0 0 .50445 -742.07 7.3451)" stroke="#000" stroke-width=".1529" fill="none"/>
            <path id="path4656" transform="matrix(.47156 0 0 .47156 -704.62 27.372)" fill="#871629" d="m2649.2 1307.5a12.314 12.314 0 1 1 -24.6 0 12.314 12.314 0 1 1 24.6 0z"/>
            <g id="g4726" transform="translate(-34.018 -2.3629)">
              <path id="path4696" transform="matrix(-.0069632 .39958 -.39958 -.0069632 1107.4 -354.66)" fill="none" d="m2549.5 1293.8a21.928 21.928 0 1 1 -43.8 0 21.928 21.928 0 1 1 43.8 0z"/>
              <path id="path4664" transform="matrix(.31951 0 0 .31951 -234.76 232.91)" fill="none" d="m2549.5 1293.8a21.928 21.928 0 1 1 -43.8 0 21.928 21.928 0 1 1 43.8 0z"/>
              <g id="text4699" transform="matrix(-.017424 .99985 -.99985 -.017424 1229 84.805)">
                <path id="path11375" d="m573.62 653.3l-0.01 1.71-0.34-0.01-0.4-1.2c-0.03-0.12-0.06-0.2-0.08-0.26-0.01 0.07-0.05 0.16-0.09 0.28l-0.41 1.18h-0.3l0.01-1.7h0.21v1.42l0.5-1.42h0.2l0.49 1.45v-1.45h0.22z"/>
                <path id="path11377" d="m571.81 653.27l-1.07 1.48-0.23-0.06-0.24-1.83 0.25 0.07 0.06 0.55 0.69 0.18 0.31-0.45 0.23 0.06zm-0.65 0.55l-0.56-0.15 0.05 0.5c0.01 0.16 0.02 0.28 0.03 0.38 0.04-0.1 0.1-0.2 0.17-0.29l0.31-0.44z"/>
                <path id="path11379" d="m569.72 652.57l-0.69 1.33 0.5 0.26-0.09 0.18-1.2-0.62 0.09-0.18 0.5 0.26 0.69-1.33 0.2 0.1z"/>
                <path id="path11381" d="m568.82 652.07l-1.1 1.3-0.17-0.15 0.45-0.53-0.68-0.57-0.45 0.53-0.17-0.14 1.1-1.3 0.17 0.14-0.52 0.62 0.68 0.57 0.52-0.61 0.17 0.14z"/>
                <path id="path11383" d="m567.54 650.88l-1.3 1.09-0.15-0.17 1.3-1.09 0.15 0.17z"/>
                <path id="path11385" d="m567.13 650.4l-1.46 0.88-0.63-1.06 0.17-0.1 0.52 0.86 0.44-0.27-0.48-0.81 0.17-0.1 0.48 0.81 0.5-0.3-0.53-0.89 0.17-0.11 0.65 1.09z"/>
                <path id="path11387" d="m565.72 647.52c0.09 0.05 0.17 0.11 0.22 0.18 0.06 0.07 0.09 0.15 0.11 0.25 0.04 0.17 0.01 0.31-0.08 0.44-0.07 0.1-0.17 0.16-0.29 0.19-0.1 0.02-0.2 0.01-0.3-0.04-0.09-0.05-0.19-0.13-0.28-0.25-0.07 0.1-0.13 0.16-0.18 0.2s-0.09 0.06-0.14 0.07c-0.1 0.02-0.2 0-0.29-0.06s-0.15-0.15-0.18-0.27c-0.02-0.11-0.01-0.21 0.05-0.3 0.05-0.09 0.13-0.14 0.22-0.17 0.16-0.03 0.32 0.04 0.48 0.23l0.31-0.38c-0.07-0.02-0.15-0.03-0.25-0.03v-0.22c0.16 0 0.29 0.02 0.39 0.07 0.09-0.1 0.15-0.21 0.2-0.32l0.19 0.1c-0.03 0.1-0.09 0.2-0.17 0.31h-0.01zm-0.77 0.6c-0.07-0.07-0.13-0.12-0.18-0.14-0.04-0.02-0.09-0.02-0.13-0.01-0.06 0.01-0.1 0.04-0.13 0.09-0.03 0.04-0.04 0.09-0.03 0.14 0.02 0.06 0.04 0.1 0.09 0.13 0.04 0.03 0.09 0.04 0.14 0.02 0.03 0 0.05-0.01 0.08-0.03 0.02-0.02 0.05-0.05 0.07-0.08l0.09-0.12zm0.64-0.44l-0.38 0.48c0.09 0.09 0.17 0.15 0.23 0.18 0.07 0.03 0.13 0.03 0.18 0.02 0.07-0.01 0.13-0.05 0.19-0.12 0.07-0.07 0.09-0.16 0.06-0.26-0.01-0.06-0.04-0.12-0.1-0.17-0.05-0.06-0.11-0.1-0.18-0.13z"/>
                <path id="path11389" d="m565.34 644.9l0.08-0.22c0.18 0.07 0.31 0.17 0.4 0.3 0.08 0.14 0.11 0.29 0.09 0.47s-0.07 0.32-0.16 0.43-0.21 0.18-0.35 0.22c-0.15 0.05-0.31 0.06-0.47 0.04-0.17-0.02-0.32-0.07-0.45-0.15-0.12-0.08-0.21-0.19-0.26-0.32-0.06-0.13-0.08-0.27-0.06-0.42 0.02-0.17 0.08-0.31 0.18-0.42 0.1-0.1 0.23-0.17 0.39-0.2l0.03 0.23c-0.13 0.03-0.23 0.07-0.29 0.14-0.07 0.07-0.11 0.16-0.12 0.27-0.01 0.13 0.01 0.24 0.06 0.34 0.05 0.09 0.13 0.16 0.23 0.21s0.21 0.08 0.32 0.09c0.14 0.02 0.27 0.01 0.38-0.02s0.2-0.09 0.26-0.17c0.07-0.08 0.1-0.17 0.12-0.28 0.01-0.12-0.01-0.23-0.08-0.33-0.06-0.09-0.16-0.16-0.3-0.21z"/>
                <path id="path11391" d="m566.05 644.48l-1.61-0.55 0.07-0.21 1.42 0.48 0.27-0.79 0.19 0.07-0.34 1z"/>
                <path id="path11393" d="m566.41 643.39l-1.13-1.44 0.13-0.2 1.82 0.27-0.13 0.22-0.55-0.09-0.36 0.61 0.34 0.42-0.12 0.21zm-0.35-0.78l0.3-0.5-0.5-0.09c-0.15-0.02-0.27-0.05-0.36-0.07 0.08 0.07 0.16 0.15 0.23 0.24l0.33 0.42z"/>
                <path id="path11395" d="m566.92 639.89l0.15-0.16 0.71 0.69c0.12 0.12 0.2 0.23 0.25 0.32 0.04 0.1 0.05 0.21 0.03 0.33-0.03 0.11-0.1 0.23-0.21 0.35-0.11 0.11-0.22 0.18-0.34 0.22-0.11 0.03-0.21 0.03-0.32-0.01-0.1-0.04-0.22-0.13-0.35-0.25l-0.7-0.69 0.16-0.16 0.7 0.68c0.1 0.11 0.19 0.17 0.26 0.2s0.14 0.04 0.22 0.01c0.07-0.02 0.14-0.06 0.21-0.13 0.11-0.12 0.17-0.23 0.17-0.33-0.01-0.11-0.09-0.23-0.24-0.38l-0.7-0.69z"/>
                <path id="path11397" d="m568.59 640.68l-0.89-1.45 0.49-0.31c0.12-0.06 0.21-0.11 0.28-0.13 0.09-0.04 0.18-0.04 0.27-0.03 0.12 0.02 0.23 0.06 0.33 0.14s0.19 0.18 0.26 0.31c0.07 0.11 0.12 0.22 0.15 0.32 0.02 0.1 0.03 0.19 0.03 0.27-0.01 0.08-0.02 0.15-0.05 0.21s-0.07 0.12-0.13 0.18-0.13 0.11-0.22 0.17l-0.52 0.32zm0.09-0.29l0.3-0.19c0.1-0.06 0.17-0.11 0.21-0.16 0.05-0.06 0.07-0.11 0.09-0.16 0.01-0.07 0.01-0.16-0.01-0.25s-0.07-0.19-0.13-0.3c-0.1-0.15-0.19-0.25-0.29-0.3-0.1-0.06-0.2-0.07-0.29-0.06-0.06 0.02-0.15 0.06-0.26 0.13l-0.31 0.19 0.69 1.1z"/>
                <path id="path11399" d="m570.12 639.83l-0.63-1.58 0.21-0.08 0.63 1.58-0.21 0.08z"/>
                <path id="path11401" d="m570.7 639.59l-0.36-1.67 0.22-0.05 1.16 1.12-0.28-1.3 0.21-0.05 0.36 1.66-0.23 0.05-1.15-1.12 0.28 1.31-0.21 0.05z"/>
                <path id="path11403" d="m572.4 639.27l0.04-1.7 1.23 0.03-0.01 0.2-1-0.02-0.02 0.52 0.95 0.02-0.01 0.2-0.94-0.02-0.01 0.58 1.04 0.02v0.2l-1.27-0.03z"/>
              </g>
            </g>
            <g id="g4721" transform="matrix(.91617 -.40079 .40079 .91617 -248.68 281.78)">
              <path id="path4662" transform="matrix(.14918 -.37075 .37075 .14918 -280.4 1391.5)" fill="none" d="m2549.5 1293.8c0-12.1-9.8-21.9-21.9-21.9s-21.9 9.8-21.9 21.9 9.8 21.9 21.9 21.9 21.9-9.8 21.9-21.9z"/>
              <g id="text4689" stroke-width=".2">
                <path id="path11406" d="m567.63 648.7l1.81 0.23 0.05 0.23-1.48 1.08-0.07-0.25 0.46-0.31-0.17-0.69-0.54-0.06-0.06-0.23zm0.79 0.31l0.14 0.56 0.42-0.29c0.12-0.08 0.23-0.15 0.31-0.2-0.11 0.01-0.22 0-0.34-0.01l-0.53-0.06z"/>
                <path id="path11408" d="m568.09 650.38l1.15-0.45 0.06 0.17-0.17 0.07c0.1 0.02 0.17 0.04 0.21 0.06 0.04 0.03 0.07 0.07 0.09 0.11 0.02 0.07 0.03 0.14 0.01 0.23h-0.2c0.01-0.06 0-0.11-0.02-0.16-0.01-0.04-0.04-0.07-0.08-0.1-0.04-0.02-0.08-0.03-0.14-0.03-0.07 0.01-0.15 0.03-0.24 0.06l-0.6 0.23-0.07-0.19z"/>
                <path id="path11410" d="m568.76 651.83l0.14-0.08c-0.15-0.01-0.26-0.08-0.33-0.22-0.04-0.08-0.06-0.17-0.05-0.27 0-0.1 0.04-0.19 0.1-0.28 0.07-0.08 0.16-0.16 0.27-0.22s0.21-0.09 0.32-0.1 0.21 0 0.29 0.05c0.09 0.05 0.15 0.12 0.2 0.21 0.04 0.06 0.06 0.13 0.06 0.19 0 0.07-0.02 0.13-0.05 0.19l0.54-0.29 0.1 0.18-1.5 0.81-0.09-0.17zm0.23-0.88c-0.14 0.08-0.23 0.16-0.27 0.26-0.03 0.09-0.03 0.18 0.01 0.26 0.05 0.08 0.12 0.13 0.21 0.15 0.1 0.02 0.21 0 0.35-0.07 0.15-0.08 0.24-0.17 0.28-0.27 0.04-0.09 0.03-0.18-0.01-0.26-0.04-0.09-0.12-0.14-0.21-0.16-0.1-0.01-0.22 0.01-0.36 0.09z"/>
                <path id="path11412" d="m569.85 652.71l0.11 0.19c-0.12 0.05-0.23 0.06-0.35 0.03-0.11-0.04-0.21-0.11-0.29-0.22-0.11-0.15-0.15-0.3-0.13-0.45 0.03-0.15 0.12-0.28 0.28-0.4 0.17-0.13 0.33-0.18 0.48-0.17 0.16 0.02 0.29 0.1 0.39 0.23 0.1 0.14 0.14 0.28 0.11 0.43s-0.12 0.29-0.28 0.41c-0.01 0-0.03 0.02-0.05 0.03l-0.55-0.74c-0.11 0.09-0.17 0.19-0.18 0.28-0.02 0.1 0.01 0.19 0.07 0.27 0.04 0.07 0.1 0.11 0.16 0.12 0.07 0.02 0.14 0.02 0.23-0.01zm-0.14-0.75l0.42 0.55c0.07-0.07 0.12-0.14 0.13-0.2 0.03-0.1 0.01-0.2-0.05-0.28s-0.14-0.12-0.23-0.14c-0.09-0.01-0.18 0.01-0.27 0.07zm0.81-0.01l-0.1-0.13 0.1-0.41 0.17 0.22-0.17 0.32z"/>
                <path id="path11414" d="m570.74 653.57l0.12 0.16c-0.11 0.08-0.23 0.12-0.35 0.11-0.13 0-0.24-0.06-0.33-0.15-0.12-0.12-0.18-0.26-0.17-0.41 0-0.15 0.08-0.29 0.22-0.44 0.1-0.1 0.19-0.16 0.3-0.2 0.1-0.04 0.2-0.05 0.3-0.02s0.18 0.08 0.26 0.16c0.09 0.09 0.15 0.19 0.16 0.3s-0.02 0.21-0.09 0.32l-0.16-0.12c0.04-0.07 0.06-0.14 0.06-0.21-0.01-0.06-0.04-0.12-0.09-0.17-0.07-0.07-0.16-0.1-0.26-0.1-0.1 0.01-0.21 0.07-0.32 0.19-0.12 0.11-0.18 0.22-0.19 0.32s0.03 0.18 0.1 0.25c0.06 0.06 0.12 0.09 0.2 0.1 0.07 0 0.15-0.03 0.24-0.09z"/>
                <path id="path11416" d="m570.7 654.14l1.02-1.36 0.16 0.12-0.36 0.49c0.15-0.03 0.28 0 0.4 0.09 0.07 0.05 0.12 0.11 0.16 0.18 0.03 0.07 0.04 0.14 0.02 0.21-0.01 0.07-0.05 0.15-0.13 0.25l-0.46 0.62-0.17-0.12 0.47-0.63c0.06-0.08 0.09-0.16 0.08-0.22-0.01-0.07-0.05-0.13-0.11-0.17-0.05-0.04-0.11-0.06-0.17-0.07-0.07-0.01-0.12 0-0.17 0.04-0.06 0.03-0.11 0.08-0.17 0.16l-0.4 0.54-0.17-0.13z"/>
                <path id="path11418" d="m572.71 654.96l0.18 0.12c-0.09 0.1-0.19 0.16-0.3 0.17-0.12 0.02-0.24 0-0.36-0.07-0.16-0.08-0.26-0.2-0.31-0.35-0.04-0.14-0.01-0.31 0.08-0.48 0.1-0.19 0.22-0.3 0.37-0.36 0.15-0.05 0.3-0.03 0.45 0.05 0.14 0.07 0.24 0.19 0.28 0.33 0.04 0.15 0.01 0.32-0.09 0.5 0 0.01-0.01 0.02-0.02 0.05l-0.82-0.44c-0.05 0.13-0.07 0.24-0.04 0.33 0.03 0.1 0.09 0.17 0.18 0.22 0.06 0.04 0.13 0.05 0.2 0.04 0.06-0.01 0.13-0.05 0.2-0.11zm-0.45-0.62l0.61 0.32c0.04-0.1 0.06-0.18 0.04-0.24-0.02-0.11-0.08-0.18-0.17-0.23s-0.17-0.05-0.26-0.03c-0.09 0.03-0.16 0.09-0.22 0.18z"/>
                <path id="path11420" d="m573.93 654.8l0.07-0.23 0.23 0.07-0.07 0.23-0.23-0.07zm-0.29 0.95l0.07-0.23 0.23 0.07-0.07 0.23-0.23-0.07z"/>
                <path id="path11422" d="m574.9 656.07l0.18-1.69 1.14 0.12-0.02 0.2-0.92-0.1-0.06 0.53 0.8 0.08-0.02 0.2-0.8-0.08-0.08 0.76-0.22-0.02z"/>
                <path id="path11424" d="m576.31 656.18l-0.03-1.24h0.18l0.01 0.19c0.04-0.09 0.09-0.15 0.13-0.18s0.08-0.04 0.13-0.05c0.07 0 0.14 0.02 0.22 0.07l-0.07 0.19c-0.05-0.03-0.1-0.04-0.15-0.04s-0.09 0.02-0.13 0.04c-0.03 0.03-0.06 0.07-0.07 0.12-0.02 0.08-0.03 0.16-0.03 0.25l0.02 0.64-0.21 0.01z"/>
                <path id="path11426" d="m577.88 655.89c-0.07 0.07-0.14 0.13-0.2 0.17-0.07 0.03-0.14 0.06-0.22 0.07-0.14 0.02-0.25 0-0.33-0.05-0.08-0.06-0.13-0.14-0.14-0.24-0.01-0.06-0.01-0.11 0.01-0.17 0.02-0.05 0.05-0.1 0.09-0.13 0.04-0.04 0.09-0.07 0.14-0.09 0.04-0.02 0.1-0.04 0.18-0.06 0.16-0.04 0.28-0.09 0.36-0.13 0-0.02-0.01-0.04-0.01-0.05-0.01-0.08-0.04-0.14-0.08-0.17-0.06-0.04-0.14-0.05-0.25-0.03-0.1 0.01-0.17 0.04-0.21 0.08s-0.06 0.1-0.07 0.19l-0.21 0.01c0.01-0.09 0.03-0.17 0.06-0.23 0.04-0.06 0.09-0.11 0.17-0.15 0.07-0.04 0.16-0.07 0.27-0.08 0.1-0.02 0.19-0.02 0.26 0 0.06 0.01 0.12 0.04 0.15 0.07 0.04 0.03 0.07 0.08 0.09 0.13 0.01 0.04 0.02 0.1 0.04 0.19l0.04 0.28c0.03 0.19 0.05 0.31 0.06 0.36 0.02 0.05 0.04 0.09 0.08 0.14l-0.22 0.03c-0.03-0.04-0.05-0.09-0.06-0.15v0.01zm-0.09-0.46c-0.07 0.04-0.18 0.08-0.32 0.12-0.09 0.03-0.14 0.05-0.18 0.07-0.03 0.02-0.05 0.05-0.07 0.08-0.01 0.03-0.02 0.07-0.01 0.1 0 0.06 0.03 0.1 0.08 0.13s0.11 0.04 0.19 0.03 0.15-0.04 0.21-0.08c0.05-0.05 0.09-0.1 0.11-0.17 0.02-0.05 0.02-0.12 0-0.21l-0.01-0.07z"/>
                <path id="path11428" d="m578.41 655.94l-0.36-1.18 0.18-0.06 0.05 0.17c0.05-0.16 0.15-0.26 0.32-0.31 0.07-0.02 0.14-0.03 0.2-0.02 0.07 0.01 0.13 0.03 0.17 0.06s0.08 0.07 0.11 0.13c0.02 0.03 0.04 0.1 0.07 0.19l0.22 0.72-0.2 0.06-0.22-0.71c-0.03-0.08-0.05-0.14-0.08-0.18-0.03-0.03-0.06-0.06-0.11-0.07s-0.1-0.01-0.15 0.01c-0.09 0.02-0.15 0.07-0.2 0.15-0.04 0.07-0.04 0.18 0 0.33l0.2 0.65-0.2 0.06z"/>
                <path id="path11430" d="m580.2 654.77l0.2-0.06c0.04 0.14 0.04 0.26-0.01 0.37s-0.14 0.2-0.26 0.26c-0.15 0.07-0.3 0.08-0.44 0.02s-0.25-0.18-0.34-0.36c-0.06-0.12-0.09-0.24-0.09-0.35s0.03-0.2 0.09-0.29c0.06-0.08 0.14-0.15 0.23-0.19 0.12-0.06 0.24-0.07 0.34-0.05 0.11 0.03 0.2 0.09 0.27 0.19l-0.17 0.12c-0.05-0.07-0.11-0.11-0.17-0.13-0.06-0.01-0.12-0.01-0.19 0.02-0.09 0.05-0.15 0.12-0.18 0.21-0.03 0.1-0.01 0.22 0.06 0.37s0.15 0.24 0.24 0.29c0.09 0.04 0.18 0.04 0.28-0.01 0.07-0.03 0.12-0.09 0.15-0.15 0.03-0.07 0.03-0.16 0-0.26h-0.01z"/>
                <path id="path11432" d="m581.22 654.2l0.2-0.09c0.04 0.12 0.04 0.24 0 0.35s-0.11 0.2-0.23 0.28c-0.16 0.1-0.31 0.13-0.45 0.1-0.15-0.04-0.28-0.14-0.39-0.31-0.12-0.17-0.16-0.33-0.14-0.49 0.03-0.15 0.11-0.28 0.26-0.37 0.13-0.09 0.28-0.12 0.43-0.08 0.15 0.03 0.28 0.14 0.39 0.31 0.01 0.01 0.02 0.02 0.03 0.04l-0.77 0.51c0.08 0.11 0.17 0.17 0.27 0.2 0.09 0.02 0.19 0 0.27-0.06 0.07-0.04 0.11-0.09 0.13-0.15 0.03-0.07 0.03-0.14 0-0.24zm-0.75 0.1l0.57-0.38c-0.06-0.08-0.13-0.13-0.19-0.15-0.1-0.03-0.2-0.02-0.29 0.04-0.08 0.05-0.13 0.13-0.15 0.21-0.01 0.09 0 0.19 0.06 0.28z"/>
              </g>
            </g>
          </g>
        </g>
        <path id="path4468" transform="matrix(.78366 0 0 .78366 -38.353 31.338)" fill="url(#linearGradient3918)" d="m882.78 615.41l0.28 0.56-0.56-0.28v1.19l0.56-0.26-0.28 0.54h1.19l-0.28-0.54 0.56 0.26v-1.19l-0.56 0.28 0.25-0.56h-1.16zm0.6 1.75c-0.34 0-0.6 0.23-0.6 0.56 0 0.24 0.13 0.47 0.34 0.56-4.97 0.04-7.35 1.76-4.37 5.44v1.84c-0.12 0.07-0.19 0.2-0.19 0.35 0 0.21 0.18 0.37 0.38 0.37h8.87c0.2 0 0.38-0.16 0.38-0.37 0-0.13-0.06-0.25-0.16-0.32v-1.9c2.94-3.66 0.52-5.37-4.44-5.41 0.22-0.09 0.38-0.32 0.38-0.56 0-0.33-0.26-0.56-0.59-0.56zm-0.79 2.15c0.11 0.78 0.11 1.59 0.03 2.38-0.05 0-0.1-0.01-0.15 0-0.37 0.02-0.72 0.05-1.06 0.09-0.51-1.86 0.02-2.41 1.18-2.47zm1.53 0c1.2 0.05 1.72 0.57 1.19 2.47-0.33-0.04-0.67-0.07-1.03-0.09-0.06-0.01-0.12 0-0.19 0-0.07-0.79-0.07-1.6 0.03-2.38zm-3.78 0.25c-0.34 0.52-0.44 1.33-0.5 2.56-0.42 0.15-0.77 0.3-1 0.5-0.74-1.82 0.08-2.68 1.5-3.06zm6.07 0c1.44 0.39 2.27 1.27 1.5 3.13-0.04-0.03-0.06-0.07-0.1-0.1-0.22-0.18-0.54-0.34-0.9-0.46-0.06-1.24-0.16-2.05-0.5-2.57z"/>
      </g>
    </g>
    <g id="g9125" transform="translate(-571.21 51.724)">
      <g id="g7171" transform="translate(235.82 -57.758)">
        <path id="path4881-0" transform="translate(453.95 164.5)" fill="url(#linearGradient3920)" d="m501.97 451.32c22.3 1.32 44.4 1.15 66.7 0.07l0.1 56.45c-22.85 2.5-45.02 2.38-66.84 0.08l0.04-56.6z"/>
        <path id="path4914-5" transform="translate(441.31 152.44)" fill="url(#linearGradient3922)" d="m581.41 510.72c-22.85 2.5-45.02 2.36-66.85 0.06v9.19c21.83 2.29 44 2.44 66.85-0.06v-9.19z"/>
        <path id="path4883-5" transform="translate(453.08 160.45)" fill="url(#linearGradient3924)" d="m502.88 455.38v2.24c22.29 1.32 44.39 1.15 66.68 0.07v-2.25c-22.29 1.08-44.39 1.25-66.68-0.06z"/>
      </g>
      <g id="g8751" transform="translate(-4.5304)">
        <g id="g5729" transform="translate(96.194 39.85)">
          <path id="path5731" transform="translate(-34.073 -6.2856)" fill="url(#linearGradient3926)" d="m1167.4 540.03c-5 0-7.5 1.72-4.5 5.44v2.15h9.3v-2.18c3-3.74 0.4-5.44-4.8-5.41zm-0.6 1.03c0.1 0.78 0.1 1.59 0 2.38-0.1 0-0.1-0.01-0.2 0-0.3 0.02-0.7 0.05-1 0.09-0.5-1.86 0-2.41 1.1-2.47h0.1zm1.5 0c1.2 0.05 1.7 0.57 1.2 2.47-0.4-0.04-0.7-0.07-1.1-0.09 0-0.01-0.1 0-0.2 0 0-0.79 0-1.6 0.1-2.38zm-3.8 0.25c-0.3 0.52-0.4 1.33-0.5 2.57-0.4 0.14-0.8 0.29-1 0.5-0.7-1.83 0.1-2.69 1.5-3.07zm6.1 0c1.4 0.39 2.2 1.27 1.5 3.13-0.1-0.03-0.1-0.07-0.1-0.1-0.3-0.18-0.6-0.34-0.9-0.46-0.1-1.24-0.2-2.05-0.5-2.57z"/>
          <path id="path5733" transform="translate(1.8586 4.7914)" fill="url(#linearGradient3928)" d="m1128 533.92c0-1.63 7.3-1.68 7.3 0h-7.3z"/>
          <path id="path5735" transform="translate(1.8586 4.7914)" fill="url(#radialGradient3930)" d="m1128 533.92c0-1.63 7.3-1.68 7.3 0h-7.3z"/>
          <rect id="rect5737" transform="matrix(.99453 0 0 1.0467 8.8279 -30.754)" ry=".36135" height=".72271" width="9.6732" y="546.24" x="1126" fill="url(#linearGradient3932)"/>
          <path id="path5739" transform="matrix(.51348 0 0 .51348 549.25 263.41)" fill="url(#radialGradient3934)" d="m1130.6 539.86a0.47241 0.47241 0 1 1 -0.9 0 0.47241 0.47241 0 1 1 0.9 0z"/>
          <path id="path5741" transform="matrix(.51348 0 0 .51348 550.23 263.41)" fill="url(#radialGradient3934)" d="m1130.6 539.86a0.47241 0.47241 0 1 1 -0.9 0 0.47241 0.47241 0 1 1 0.9 0z"/>
          <path id="path5743" transform="matrix(.51348 0 0 .51348 551.2 263.41)" fill="url(#radialGradient3934)" d="m1130.6 539.86a0.47241 0.47241 0 1 1 -0.9 0 0.47241 0.47241 0 1 1 0.9 0z"/>
          <path id="path5745" transform="matrix(.51348 0 0 .51348 552.18 263.41)" fill="url(#radialGradient3934)" d="m1130.6 539.86a0.47241 0.47241 0 1 1 -0.9 0 0.47241 0.47241 0 1 1 0.9 0z"/>
          <path id="path5747" transform="matrix(.51348 0 0 .51348 553.16 263.41)" fill="url(#radialGradient3934)" d="m1130.6 539.86a0.47241 0.47241 0 1 1 -0.9 0 0.47241 0.47241 0 1 1 0.9 0z"/>
          <path id="path5749" transform="matrix(.51348 0 0 .51348 554.14 263.41)" fill="url(#radialGradient3934)" d="m1130.6 539.86a0.47241 0.47241 0 1 1 -0.9 0 0.47241 0.47241 0 1 1 0.9 0z"/>
          <path id="path5751" transform="matrix(.51348 0 0 .51348 555.11 263.41)" fill="url(#radialGradient3934)" d="m1130.6 539.86a0.47241 0.47241 0 1 1 -0.9 0 0.47241 0.47241 0 1 1 0.9 0z"/>
          <path id="path5753" transform="matrix(.51348 0 0 .51348 556.09 263.41)" fill="url(#radialGradient3934)" d="m1130.6 539.86a0.47241 0.47241 0 1 1 -0.9 0 0.47241 0.47241 0 1 1 0.9 0z"/>
          <path id="path5755" transform="matrix(.51348 0 0 .51348 557.07 263.41)" fill="url(#radialGradient3934)" d="m1130.6 539.86a0.47241 0.47241 0 1 1 -0.9 0 0.47241 0.47241 0 1 1 0.9 0z"/>
          <path id="path5757" transform="matrix(.49990 0 0 .49990 568.51 264.74)" fill="url(#radialGradient3934)" d="m1130.6 539.86a0.47241 0.47241 0 1 1 -0.9 0 0.47241 0.47241 0 1 1 0.9 0z"/>
          <path id="path5759" transform="matrix(.49990 0 0 .49990 568.51 265.21)" fill="url(#radialGradient3934)" d="m1130.6 539.86a0.47241 0.47241 0 1 1 -0.9 0 0.47241 0.47241 0 1 1 0.9 0z"/>
          <path id="path5761" transform="matrix(.49990 0 0 .49990 568.51 265.67)" fill="url(#radialGradient3934)" d="m1130.6 539.86a0.47241 0.47241 0 1 1 -0.9 0 0.47241 0.47241 0 1 1 0.9 0z"/>
          <path id="path5763" transform="matrix(.49990 0 0 .49990 568.51 266.14)" fill="url(#radialGradient3934)" d="m1130.6 539.86a0.47241 0.47241 0 1 1 -0.9 0 0.47241 0.47241 0 1 1 0.9 0z"/>
          <path id="path5765" transform="matrix(.49990 0 0 .49990 568.51 266.6)" fill="url(#radialGradient3934)" d="m1130.6 539.86a0.47241 0.47241 0 1 1 -0.9 0 0.47241 0.47241 0 1 1 0.9 0z"/>
          <path id="path5767" transform="matrix(.49990 0 0 .49990 568.51 267.06)" fill="url(#radialGradient3934)" d="m1130.6 539.86a0.47241 0.47241 0 1 1 -0.9 0 0.47241 0.47241 0 1 1 0.9 0z"/>
          <path id="path5769" transform="matrix(.49990 0 0 .49990 570.83 264.93)" fill="url(#radialGradient3934)" d="m1130.6 539.86a0.47241 0.47241 0 1 1 -0.9 0 0.47241 0.47241 0 1 1 0.9 0z"/>
          <path id="path5771" transform="matrix(.49990 0 0 .49990 571.04 265.36)" fill="url(#radialGradient3934)" d="m1130.6 539.86a0.47241 0.47241 0 1 1 -0.9 0 0.47241 0.47241 0 1 1 0.9 0z"/>
          <path id="path5773" transform="matrix(.49990 0 0 .49990 571.22 265.8)" fill="url(#radialGradient3934)" d="m1130.6 539.86a0.47241 0.47241 0 1 1 -0.9 0 0.47241 0.47241 0 1 1 0.9 0z"/>
          <path id="path5775" transform="matrix(.49990 0 0 .49990 571.28 266.27)" fill="url(#radialGradient3934)" d="m1130.6 539.86a0.47241 0.47241 0 1 1 -0.9 0 0.47241 0.47241 0 1 1 0.9 0z"/>
          <path id="path5777" transform="matrix(.49990 0 0 .49990 571.26 266.74)" fill="url(#radialGradient3934)" d="m1130.6 539.86a0.47241 0.47241 0 1 1 -0.9 0 0.47241 0.47241 0 1 1 0.9 0z"/>
          <path id="path5779" transform="matrix(.49990 0 0 .49990 571.2 267.21)" fill="url(#radialGradient3934)" d="m1130.6 539.86a0.47241 0.47241 0 1 1 -0.9 0 0.47241 0.47241 0 1 1 0.9 0z"/>
          <path id="path5781" transform="matrix(0 .49990 .49990 0 861.3 -30.095)" fill="url(#radialGradient3934)" d="m1130.6 539.86a0.47241 0.47241 0 1 1 -0.9 0 0.47241 0.47241 0 1 1 0.9 0z"/>
          <path id="path5783" transform="matrix(0 .49990 .49990 0 861.1 -29.667)" fill="url(#radialGradient3934)" d="m1130.6 539.86a0.47241 0.47241 0 1 1 -0.9 0 0.47241 0.47241 0 1 1 0.9 0z"/>
          <path id="path5785" transform="matrix(0 .49990 .49990 0 860.92 -29.226)" fill="url(#radialGradient3934)" d="m1130.6 539.86a0.47241 0.47241 0 1 1 -0.9 0 0.47241 0.47241 0 1 1 0.9 0z"/>
          <path id="path5787" transform="matrix(0 .49990 .49990 0 860.86 -28.757)" fill="url(#radialGradient3934)" d="m1130.6 539.86a0.47241 0.47241 0 1 1 -0.9 0 0.47241 0.47241 0 1 1 0.9 0z"/>
          <path id="path5789" transform="matrix(0 .49990 .49990 0 860.87 -28.284)" fill="url(#radialGradient3934)" d="m1130.6 539.86a0.47241 0.47241 0 1 1 -0.9 0 0.47241 0.47241 0 1 1 0.9 0z"/>
          <path id="path5791" transform="matrix(0 .49990 .49990 0 860.94 -27.816)" fill="url(#radialGradient3934)" d="m1130.6 539.86a0.47241 0.47241 0 1 1 -0.9 0 0.47241 0.47241 0 1 1 0.9 0z"/>
          <path id="path5793" transform="matrix(.49990 0 0 .48588 573.38 276.05)" fill="url(#radialGradient3934)" d="m1130.6 539.86a0.47241 0.47241 0 1 1 -0.9 0 0.47241 0.47241 0 1 1 0.9 0z"/>
          <path id="path5795" transform="matrix(.49990 0 0 .48588 573.65 275.67)" fill="url(#radialGradient3934)" d="m1130.6 539.86a0.47241 0.47241 0 1 1 -0.9 0 0.47241 0.47241 0 1 1 0.9 0z"/>
          <path id="path5797" transform="matrix(.49990 0 0 .48588 573.86 275.25)" fill="url(#radialGradient3934)" d="m1130.6 539.86a0.47241 0.47241 0 1 1 -0.9 0 0.47241 0.47241 0 1 1 0.9 0z"/>
          <path id="path5799" transform="matrix(.49990 0 0 .48588 573.99 274.8)" fill="url(#radialGradient3934)" d="m1130.6 539.86a0.47241 0.47241 0 1 1 -0.9 0 0.47241 0.47241 0 1 1 0.9 0z"/>
          <path id="path5801" transform="matrix(.49990 0 0 .48588 574.02 274.34)" fill="url(#radialGradient3934)" d="m1130.6 539.86a0.47241 0.47241 0 1 1 -0.9 0 0.47241 0.47241 0 1 1 0.9 0z"/>
          <path id="path5803" transform="matrix(.49990 0 0 .48588 573.92 273.89)" fill="url(#radialGradient3934)" d="m1130.6 539.86a0.47241 0.47241 0 1 1 -0.9 0 0.47241 0.47241 0 1 1 0.9 0z"/>
          <path id="path5805" transform="matrix(.49990 0 0 .48588 573.7 273.48)" fill="url(#radialGradient3934)" d="m1130.6 539.86a0.47241 0.47241 0 1 1 -0.9 0 0.47241 0.47241 0 1 1 0.9 0z"/>
          <path id="path5807" transform="matrix(.49990 0 0 .48588 573.4 273.13)" fill="url(#radialGradient3934)" d="m1130.6 539.86a0.47241 0.47241 0 1 1 -0.9 0 0.47241 0.47241 0 1 1 0.9 0z"/>
          <path id="path5809" transform="matrix(.49990 0 0 .48588 573.03 272.84)" fill="url(#radialGradient3934)" d="m1130.6 539.86a0.47241 0.47241 0 1 1 -0.9 0 0.47241 0.47241 0 1 1 0.9 0z"/>
          <path id="path5811" transform="matrix(.49990 0 0 .48588 572.62 272.61)" fill="url(#radialGradient3934)" d="m1130.6 539.86a0.47241 0.47241 0 1 1 -0.9 0 0.47241 0.47241 0 1 1 0.9 0z"/>
          <path id="path5813" transform="matrix(.49990 0 0 .48588 572.19 272.42)" fill="url(#radialGradient3934)" d="m1130.6 539.86a0.47241 0.47241 0 1 1 -0.9 0 0.47241 0.47241 0 1 1 0.9 0z"/>
          <path id="path5815" transform="matrix(.49990 0 0 .48588 571.75 272.26)" fill="url(#radialGradient3934)" d="m1130.6 539.86a0.47241 0.47241 0 1 1 -0.9 0 0.47241 0.47241 0 1 1 0.9 0z"/>
          <path id="path5817" transform="matrix(.49990 0 0 .48588 571.28 272.12)" fill="url(#radialGradient3934)" d="m1130.6 539.86a0.47241 0.47241 0 1 1 -0.9 0 0.47241 0.47241 0 1 1 0.9 0z"/>
          <path id="path5819" transform="matrix(.49990 0 0 .48588 570.83 272.02)" fill="url(#radialGradient3934)" d="m1130.6 539.86a0.47241 0.47241 0 1 1 -0.9 0 0.47241 0.47241 0 1 1 0.9 0z"/>
          <path id="path5821" transform="matrix(.49990 0 0 .48588 570.36 271.94)" fill="url(#radialGradient3934)" d="m1130.6 539.86a0.47241 0.47241 0 1 1 -0.9 0 0.47241 0.47241 0 1 1 0.9 0z"/>
          <path id="path5823" transform="matrix(.49990 0 0 .48588 569.9 271.9)" fill="url(#radialGradient3934)" d="m1130.6 539.86a0.47241 0.47241 0 1 1 -0.9 0 0.47241 0.47241 0 1 1 0.9 0z"/>
          <path id="path5825" transform="matrix(.49990 0 0 .48588 569.43 271.86)" fill="url(#radialGradient3934)" d="m1130.6 539.86a0.47241 0.47241 0 1 1 -0.9 0 0.47241 0.47241 0 1 1 0.9 0z"/>
          <path id="path5827" transform="matrix(.49990 0 0 .48588 568.96 271.83)" fill="url(#radialGradient3934)" d="m1130.6 539.86a0.47241 0.47241 0 1 1 -0.9 0 0.47241 0.47241 0 1 1 0.9 0z"/>
          <path id="path5829" transform="matrix(.49990 0 0 .48588 568.49 271.83)" fill="url(#radialGradient3934)" d="m1130.6 539.86a0.47241 0.47241 0 1 1 -0.9 0 0.47241 0.47241 0 1 1 0.9 0z"/>
          <path id="path5831" transform="matrix(.49990 0 0 .48588 568.02 271.85)" fill="url(#radialGradient3934)" d="m1130.6 539.86a0.47241 0.47241 0 1 1 -0.9 0 0.47241 0.47241 0 1 1 0.9 0z"/>
          <path id="path5833" transform="matrix(.49990 0 0 .48588 567.55 271.88)" fill="url(#radialGradient3934)" d="m1130.6 539.86a0.47241 0.47241 0 1 1 -0.9 0 0.47241 0.47241 0 1 1 0.9 0z"/>
          <path id="path5835" transform="matrix(.49990 0 0 .48588 567.08 271.92)" fill="url(#radialGradient3934)" d="m1130.6 539.86a0.47241 0.47241 0 1 1 -0.9 0 0.47241 0.47241 0 1 1 0.9 0z"/>
          <path id="path5837" transform="matrix(.49990 0 0 .48588 566.61 271.99)" fill="url(#radialGradient3934)" d="m1130.6 539.86a0.47241 0.47241 0 1 1 -0.9 0 0.47241 0.47241 0 1 1 0.9 0z"/>
          <path id="path5839" transform="matrix(.49990 0 0 .48588 566.14 272.08)" fill="url(#radialGradient3934)" d="m1130.6 539.86a0.47241 0.47241 0 1 1 -0.9 0 0.47241 0.47241 0 1 1 0.9 0z"/>
          <path id="path5841" transform="matrix(.49990 0 0 .48588 565.68 272.21)" fill="url(#radialGradient3934)" d="m1130.6 539.86a0.47241 0.47241 0 1 1 -0.9 0 0.47241 0.47241 0 1 1 0.9 0z"/>
          <path id="path5843" transform="matrix(.49990 0 0 .48588 565.24 272.36)" fill="url(#radialGradient3934)" d="m1130.6 539.86a0.47241 0.47241 0 1 1 -0.9 0 0.47241 0.47241 0 1 1 0.9 0z"/>
          <path id="path5845" transform="matrix(.49990 0 0 .48588 564.8 272.53)" fill="url(#radialGradient3934)" d="m1130.6 539.86a0.47241 0.47241 0 1 1 -0.9 0 0.47241 0.47241 0 1 1 0.9 0z"/>
          <path id="path5847" transform="matrix(.49990 0 0 .48588 564.38 272.73)" fill="url(#radialGradient3934)" d="m1130.6 539.86a0.47241 0.47241 0 1 1 -0.9 0 0.47241 0.47241 0 1 1 0.9 0z"/>
          <path id="path5849" transform="matrix(.49990 0 0 .48588 563.98 272.98)" fill="url(#radialGradient3934)" d="m1130.6 539.86a0.47241 0.47241 0 1 1 -0.9 0 0.47241 0.47241 0 1 1 0.9 0z"/>
          <path id="path5851" transform="matrix(.49990 0 0 .48588 563.63 273.3)" fill="url(#radialGradient3934)" d="m1130.6 539.86a0.47241 0.47241 0 1 1 -0.9 0 0.47241 0.47241 0 1 1 0.9 0z"/>
          <path id="path5853" transform="matrix(.49990 0 0 .48588 563.34 273.66)" fill="url(#radialGradient3934)" d="m1130.6 539.86a0.47241 0.47241 0 1 1 -0.9 0 0.47241 0.47241 0 1 1 0.9 0z"/>
          <path id="path5855" transform="matrix(.49990 0 0 .48588 563.14 274.08)" fill="url(#radialGradient3934)" d="m1130.6 539.86a0.47241 0.47241 0 1 1 -0.9 0 0.47241 0.47241 0 1 1 0.9 0z"/>
          <path id="path5857" transform="matrix(.49990 0 0 .48588 563.13 274.54)" fill="url(#radialGradient3934)" d="m1130.6 539.86a0.47241 0.47241 0 1 1 -0.9 0 0.47241 0.47241 0 1 1 0.9 0z"/>
          <path id="path5859" transform="matrix(.49990 0 0 .48588 563.2 274.99)" fill="url(#radialGradient3934)" d="m1130.6 539.86a0.47241 0.47241 0 1 1 -0.9 0 0.47241 0.47241 0 1 1 0.9 0z"/>
          <path id="path5861" transform="matrix(.49990 0 0 .48588 563.38 275.42)" fill="url(#radialGradient3934)" d="m1130.6 539.86a0.47241 0.47241 0 1 1 -0.9 0 0.47241 0.47241 0 1 1 0.9 0z"/>
          <path id="path5863" transform="matrix(.49990 0 0 .48588 563.61 275.82)" fill="url(#radialGradient3934)" d="m1130.6 539.86a0.47241 0.47241 0 1 1 -0.9 0 0.47241 0.47241 0 1 1 0.9 0z"/>
          <path id="path5865" transform="matrix(.49990 0 0 .48588 563.9 276.16)" fill="url(#radialGradient3934)" d="m1130.6 539.86a0.47241 0.47241 0 1 1 -0.9 0 0.47241 0.47241 0 1 1 0.9 0z"/>
          <path id="path5867" transform="matrix(.12112 0 0 .12112 1006.1 470.04)" fill="url(#linearGradient4063)" d="m1046.9 502.31l2.2 4.5-4.6-2.22v9.82l4.6-2.19-2.2 4.5h9.6l-2.2-4.5 4.6 2.19v-9.82l-4.6 2.22 2.2-4.5h-9.6z"/>
          <path id="path5869" transform="matrix(1.278 0 0 1.2422 -310.88 -137.41)" fill="url(#radialGradient4065)" d="m1130.6 539.86a0.47241 0.47241 0 1 1 -0.9 0 0.47241 0.47241 0 1 1 0.9 0z"/>
        </g>
        <g id="g6561" transform="translate(95.493 40.142)">
          <path id="path6530" transform="matrix(1.25 0 0 .67677 -275.34 168.67)" fill="none" d="m1111.7 538.13c3.9-4.21 13.8-6.07 22.2-4.15 3.8 0.85 6.4 2.17 8.2 4.04"/>
          <g id="text6540" fill="url(#linearGradient4067)" transform="translate(1.0146 -.1691)">
            <path id="path7543" d="m1116 531.07l0.3-0.06c0.1 0.28 0 0.53-0.1 0.73-0.1 0.21-0.3 0.37-0.5 0.47-0.3 0.11-0.5 0.15-0.7 0.12s-0.4-0.13-0.5-0.28c-0.2-0.16-0.3-0.35-0.4-0.57-0.1-0.24-0.2-0.47-0.2-0.69s0.1-0.42 0.2-0.59c0.2-0.16 0.3-0.29 0.5-0.38 0.3-0.11 0.5-0.13 0.7-0.09 0.2 0.05 0.4 0.17 0.6 0.35l-0.3 0.21c-0.1-0.15-0.3-0.23-0.4-0.27-0.2-0.03-0.3-0.01-0.5 0.06-0.1 0.08-0.3 0.19-0.3 0.33-0.1 0.13-0.2 0.29-0.1 0.45 0 0.17 0 0.33 0.1 0.48 0.1 0.2 0.2 0.36 0.3 0.48s0.3 0.19 0.4 0.21c0.2 0.02 0.3 0 0.5-0.07 0.1-0.07 0.2-0.19 0.3-0.34s0.1-0.33 0.1-0.55z"/>
            <path id="path7545" d="m1118.9 531.09l-0.5-2.48 0.3-0.07 0.2 1.01 1.3-0.29-0.2-1.01 0.3-0.08 0.6 2.47-0.4 0.08-0.2-1.17-1.3 0.3 0.3 1.16-0.4 0.08z"/>
            <path id="path7547" d="m1123.1 530.26l0.6-2.64 0.4-0.05 1.3 2.38-0.3 0.05-0.4-0.73-1.1 0.14-0.2 0.8-0.3 0.05zm0.6-1.13l0.8-0.11-0.3-0.66c-0.1-0.21-0.2-0.37-0.3-0.5v0.5l-0.2 0.77z"/>
            <path id="path7549" d="m1127.7 529.74l-0.2-2.53 0.5-0.03 0.7 1.76c0.1 0.16 0.1 0.28 0.2 0.37 0-0.1 0-0.24 0.1-0.42l0.5-1.8 0.4-0.02 0.2 2.53-0.3 0.02-0.2-2.12-0.6 2.16-0.3 0.02-0.8-2.11 0.1 2.15-0.3 0.02z"/>
            <path id="path7551" d="m1132.6 529.54v-2.54h0.9c0.2 0 0.3 0.01 0.4 0.03s0.3 0.06 0.3 0.11c0.1 0.06 0.2 0.14 0.2 0.25 0.1 0.1 0.1 0.22 0.1 0.35 0 0.21-0.1 0.39-0.2 0.54s-0.4 0.23-0.7 0.23l-0.7-0.01v1.04h-0.3zm0.3-1.33h0.7c0.2 0 0.3-0.04 0.4-0.12s0.2-0.2 0.2-0.34c0-0.11-0.1-0.2-0.1-0.28-0.1-0.07-0.1-0.12-0.2-0.15-0.1-0.01-0.2-0.02-0.3-0.02h-0.7v0.91z"/>
            <path id="path7553" d="m1136.6 529.6l1.2-2.48 0.3 0.02 0.9 2.6-0.4-0.03-0.2-0.78-1.1-0.06-0.3 0.75-0.4-0.02zm0.8-1l0.9 0.05-0.2-0.72c-0.1-0.21-0.2-0.39-0.2-0.53 0 0.16-0.1 0.32-0.2 0.47l-0.3 0.73z"/>
            <path id="path7555" d="m1142.5 529.11l0.1-0.3 1 0.14-0.1 0.93c-0.2 0.11-0.3 0.19-0.5 0.23s-0.4 0.05-0.6 0.03c-0.2-0.03-0.4-0.11-0.6-0.25-0.2-0.13-0.3-0.3-0.4-0.51-0.1-0.22-0.1-0.45-0.1-0.69 0-0.25 0.1-0.47 0.2-0.67 0.2-0.2 0.3-0.34 0.6-0.42 0.2-0.07 0.4-0.1 0.6-0.06 0.2 0.02 0.4 0.07 0.5 0.15 0.2 0.07 0.3 0.17 0.3 0.29 0.1 0.11 0.1 0.26 0.2 0.43l-0.3 0.05c-0.1-0.14-0.1-0.24-0.1-0.32-0.1-0.08-0.2-0.15-0.3-0.21s-0.2-0.09-0.3-0.11c-0.2-0.02-0.3-0.01-0.4 0.02s-0.2 0.08-0.3 0.15c-0.1 0.06-0.1 0.14-0.2 0.23-0.1 0.14-0.1 0.31-0.1 0.49-0.1 0.22-0.1 0.42 0 0.58s0.2 0.28 0.3 0.38c0.1 0.09 0.3 0.15 0.4 0.17 0.2 0.02 0.3 0.01 0.5-0.03 0.1-0.04 0.2-0.09 0.3-0.14l0.1-0.47-0.8-0.09z"/>
            <path id="path7557" d="m1145.9 530.64l0.6-2.48 0.3 0.08 0.8 2.23 0.5-1.94 0.3 0.07-0.6 2.48-0.3-0.08-0.9-2.24-0.4 1.95-0.3-0.07z"/>
            <path id="path7559" d="m1150.3 531.82l1-2.32 1.7 0.75-0.1 0.27-1.4-0.61-0.3 0.71 1.3 0.57-0.2 0.27-1.2-0.57-0.4 0.79 1.4 0.63-0.1 0.28-1.7-0.77z"/>
          </g>
        </g>
        <g id="g7581" font-size="6.2686px" font-family="Arial" transform="translate(94.377 -6.3404)">
          <text id="text6577" style="text-anchor:middle;text-align:center" xml:space="preserve" transform="matrix(.21650 0 0 .26979 883.76 441.58)" line-height="100%" y="539.97198" x="1114.5699" fill="url(#linearGradient4087)">
            <tspan id="tspan6579" y="539.97198" x="1114.5699" fill="url(#linearGradient4087)">GUILHERAND</tspan>
          </text>
          <text id="text6581" style="text-anchor:middle;text-align:center" xml:space="preserve" transform="matrix(.30977 0 0 .25601 800.71 448.99)" line-height="100%" y="539.97198" x="1114.5699" fill="url(#linearGradient4089)">
            <tspan id="tspan6583" y="539.97198" x="1114.5699" fill="url(#linearGradient4089)">FRANCE</tspan>
          </text>
        </g>
        <text id="text6573" style="text-anchor:middle;text-align:center" xml:space="preserve" transform="matrix(.32857 0 0 .24220 863.39 452.76)" line-height="100%" font-size="6.2686px" y="539.97198" x="1114.5699" font-family="Arial" fill="url(#linearGradient4091)">
          <tspan id="tspan6575" y="539.97198" x="1114.5699" fill="url(#linearGradient4091)">FONDEE EN 1995</tspan>
        </text>
        <g id="text7561" transform="matrix(1.0923 0 0 1.2838 -8.5791 -109.16)">
          <path id="path7575" d="m1112.2 544.49l-1.4-0.06v-0.14c0.2 0 0.3-0.02 0.4-0.08v-0.39l-0.1-2.27c-0.3 0.56-0.6 1-0.7 1.32l-0.8 1.63h-0.1l-1.2-3.36-0.2 1.01c0 0.46-0.1 0.82-0.1 1.09 0 0.6 0.1 0.91 0.4 0.94v0.14l-1.3-0.06 0.1-0.13c0.1-0.03 0.3-0.17 0.4-0.4 0-0.1 0.1-0.29 0.2-0.58 0-0.35 0.1-0.73 0.2-1.13l0.1-0.75v-0.12c0-0.13 0-0.23-0.1-0.28 0-0.04-0.1-0.07-0.3-0.08v-0.14l1 0.04 1.1 3.06 0.7-1.62c0.3-0.61 0.5-1.05 0.6-1.33l1 0.05v0.13c-0.1 0-0.3 0.02-0.3 0.06-0.1 0.05-0.1 0.14-0.1 0.29v0.06l0.1 2.28v0.48c0.1 0.12 0.2 0.19 0.4 0.2v0.14z"/>
          <path id="path7577" d="m1115.8 544.61l-1.1-0.03v-0.14h0.1s0.1-0.03 0.1-0.09v-0.06l-0.4-1-1.2-0.05c-0.1 0.36-0.2 0.64-0.2 0.82 0 0.09 0 0.17 0.1 0.23 0 0.07 0.1 0.1 0.2 0.1l0.2 0.01v0.13l-1.3-0.04v-0.14c0.2 0 0.4-0.22 0.6-0.66l1.3-2.92 0.1 0.01 0.9 2.93c0.1 0.21 0.1 0.36 0.2 0.47 0.1 0.19 0.2 0.28 0.4 0.29v0.14zm-1.3-1.5l-0.5-1.53-0.6 1.49 1.1 0.04z"/>
          <path id="path7579" d="m1118.9 542.02l-0.2-0.01c0-0.54-0.3-0.82-0.9-0.84h-0.1l-0.1 2.91c0 0.29 0.1 0.44 0.4 0.46v0.14l-1.4-0.05v-0.13c0.2 0 0.3-0.03 0.4-0.09 0-0.06 0-0.18 0.1-0.35v-2.91h-0.2c-0.5-0.02-0.8 0.25-0.8 0.79l-0.2-0.01v-1.08l0.2 0.01c0 0.08 0 0.13 0.1 0.13l2.5 0.07s0.1-0.04 0.1-0.12h0.1v1.08z"/>
          <path id="path7581" d="m1122.6 544.79l-1.4-0.03v-0.14c0.2 0 0.3-0.03 0.4-0.09 0-0.06 0.1-0.18 0.1-0.35v-1.31l-1.7-0.04-0.1 1.31c0 0.29 0.2 0.45 0.5 0.46v0.14l-1.4-0.03v-0.14c0.1 0 0.3-0.03 0.3-0.09 0.1-0.06 0.1-0.18 0.1-0.35l0.1-2.46c0-0.17-0.1-0.29-0.1-0.35-0.1-0.06-0.2-0.1-0.4-0.11v-0.13l1.4 0.03v0.13c-0.1 0-0.2 0.03-0.3 0.1-0.1 0.06-0.1 0.17-0.1 0.34v0.98l1.7 0.04v-0.98c0-0.17 0-0.28-0.1-0.35 0-0.06-0.1-0.1-0.3-0.1v-0.14l1.4 0.03v0.14c-0.2 0-0.3 0.03-0.4 0.09 0 0.06 0 0.18-0.1 0.35v2.45c0 0.18 0 0.29 0.1 0.36 0 0.06 0.1 0.1 0.3 0.11v0.13z"/>
          <path id="path7583" d="m1124.4 544.82l-1.4-0.02v-0.14c0.2 0 0.3-0.03 0.3-0.09 0.1-0.07 0.1-0.18 0.1-0.35l0.1-2.46c0-0.17 0-0.29-0.1-0.35-0.1-0.07-0.2-0.1-0.3-0.11v-0.13l1.3 0.02v0.14c-0.1 0-0.2 0.03-0.3 0.09s-0.1 0.18-0.1 0.35v2.46c0 0.29 0.1 0.44 0.4 0.46v0.13z"/>
          <path id="path7585" d="m1127.3 543.82l-0.3 1.17h-0.1c0-0.09 0-0.13-0.1-0.13l-2.1-0.03v-0.14c0.2 0 0.3-0.03 0.4-0.09 0-0.06 0.1-0.18 0.1-0.35v-2.46c0-0.17 0-0.28-0.1-0.35 0-0.06-0.2-0.1-0.3-0.1v-0.14l2 0.03c0.1 0 0.2-0.04 0.2-0.14h0.1v1.09l-0.2-0.01c0-0.53-0.3-0.81-0.9-0.82h-0.3v0.55c0 0.63 0.2 0.95 0.8 0.96h0.3v0.2l-1.1 0.02v1.63h0.3c0.6 0.01 1-0.28 1.1-0.89h0.2z"/>
          <path id="path7587" d="m1132.5 544.12c-0.3 0.58-0.6 0.87-0.8 0.87s-0.5-0.26-0.9-0.79c-0.2 0.24-0.4 0.41-0.5 0.51-0.2 0.18-0.4 0.27-0.6 0.27-0.2-0.01-0.4-0.09-0.5-0.26-0.2-0.16-0.2-0.34-0.2-0.56 0-0.38 0.3-0.81 0.9-1.28-0.2-0.39-0.3-0.7-0.3-0.92 0-0.25 0.2-0.45 0.4-0.6 0.2-0.11 0.5-0.17 0.8-0.17 0.1 0 0.3 0.04 0.4 0.11 0.1 0.09 0.2 0.22 0.2 0.38 0 0.15-0.1 0.3-0.2 0.44-0.1 0.06-0.2 0.16-0.4 0.29-0.2 0.09-0.3 0.17-0.4 0.24 0.3 0.43 0.5 0.75 0.6 0.95 0.2-0.27 0.3-0.58 0.3-0.95l1.1 0.01v0.15c-0.5-0.01-0.9 0.3-1.3 0.92 0.4 0.52 0.7 0.77 0.8 0.78 0.1 0 0.3-0.15 0.5-0.45l0.1 0.06zm-1.6-2.44c0-0.1 0-0.19-0.1-0.25 0-0.06-0.1-0.09-0.2-0.09-0.2 0-0.3 0.04-0.4 0.13s-0.1 0.21-0.1 0.35c0 0.16 0.1 0.39 0.2 0.71 0.2-0.18 0.4-0.3 0.4-0.37 0.2-0.17 0.2-0.33 0.2-0.48zm-0.2 2.41c-0.3-0.42-0.6-0.79-0.7-1.1-0.3 0.32-0.5 0.63-0.5 0.94 0 0.16 0 0.3 0.1 0.42 0.1 0.13 0.2 0.2 0.4 0.2s0.4-0.15 0.7-0.46z"/>
          <path id="path7589" d="m1137.3 544.23c-0.6 0.52-1.2 0.77-1.7 0.77-0.4 0-0.8-0.17-1.1-0.52-0.3-0.33-0.4-0.73-0.4-1.21 0-0.75 0.3-1.33 0.9-1.76 0.3-0.2 0.7-0.3 1.1-0.3s0.8 0.06 1.1 0.17v0.86h-0.2c0-0.27-0.2-0.49-0.4-0.64-0.2-0.14-0.4-0.21-0.7-0.21-0.4 0-0.8 0.16-1 0.47-0.2 0.29-0.3 0.65-0.3 1.08 0 0.46 0.1 0.84 0.3 1.15 0.3 0.33 0.6 0.5 1.1 0.5 0.4 0 0.8-0.18 1.3-0.53v0.17z"/>
          <path id="path7591" d="m1140.2 543.87l-0.3 1.17h-0.1c0-0.09 0-0.13-0.1-0.13l-2.1 0.01v-0.14c0.2 0 0.3-0.03 0.4-0.1v-2.81c0-0.17 0-0.28-0.1-0.35 0-0.06-0.1-0.09-0.3-0.1v-0.13l1.4-0.01v0.14c-0.2 0-0.3 0.04-0.4 0.1v3.26h0.3c0.6-0.01 1-0.31 1.1-0.91h0.2z"/>
          <path id="path7593" d="m1143.7 544.88l-1.1 0.01v-0.14h0.1s0.1-0.03 0.1-0.1c0-0.01 0-0.04-0.1-0.06l-0.3-0.98-1.2 0.01c-0.2 0.37-0.2 0.64-0.2 0.82 0 0.1 0 0.18 0.1 0.24 0 0.05 0.1 0.08 0.2 0.08h0.2v0.14l-1.3 0.01v-0.14c0.2-0.01 0.4-0.24 0.6-0.68l1.1-2.98h0.2l1 2.89c0.1 0.2 0.1 0.36 0.2 0.46 0.1 0.18 0.2 0.28 0.4 0.28v0.14zm-1.4-1.45l-0.5-1.5-0.6 1.51 1.1-0.01z"/>
          <path id="path7595" d="m1147.5 541.32c-0.4 0.06-0.5 0.66-0.5 1.78v0.68c0 0.27-0.1 0.48-0.2 0.64-0.2 0.33-0.6 0.5-1.2 0.51s-1-0.16-1.2-0.49c-0.1-0.16-0.2-0.36-0.2-0.6v-2.02c0-0.17-0.1-0.28-0.1-0.34-0.1-0.07-0.2-0.1-0.4-0.1v-0.14l1.4-0.02v0.14c-0.1 0-0.3 0.04-0.3 0.1-0.1 0.07-0.1 0.19-0.1 0.36v1.99c0 0.36 0.2 0.63 0.5 0.8 0.1 0.09 0.3 0.14 0.5 0.14 0.5-0.01 0.8-0.18 1-0.53 0.1-0.17 0.1-0.42 0.1-0.76 0-0.56 0-0.95-0.1-1.18-0.1-0.61-0.2-0.92-0.5-0.94v-0.13l1.3-0.02v0.13z"/>
          <path id="path7597" d="m1151.5 542.54c0 0.64-0.2 1.18-0.6 1.59-0.4 0.42-1 0.64-1.6 0.65l-1.5 0.03v-0.13c0.1-0.01 0.3-0.04 0.3-0.11 0.1-0.07 0.1-0.18 0.1-0.35l-0.1-2.46v-0.35c-0.1-0.06-0.2-0.09-0.4-0.09v-0.14l2.2-0.05c1-0.02 1.5 0.45 1.6 1.41zm-0.6 0.38c0-1.12-0.5-1.67-1.4-1.65-0.3 0.01-0.6 0.09-0.8 0.24v2.83c0.3 0.17 0.6 0.25 0.9 0.25 0.5-0.01 0.8-0.19 1-0.53 0.2-0.31 0.3-0.69 0.3-1.14z"/>
          <path id="path7599" d="m1153.3 544.68l-1.4 0.04v-0.14c0.2 0 0.3-0.04 0.4-0.11 0-0.06 0.1-0.18 0-0.35v-2.46c0-0.17-0.1-0.28-0.1-0.34-0.1-0.06-0.2-0.1-0.4-0.09v-0.14l1.4-0.04v0.14c-0.1 0.01-0.3 0.04-0.3 0.11-0.1 0.06-0.1 0.18-0.1 0.35l0.1 2.46c0 0.29 0.1 0.43 0.4 0.44v0.13z"/>
          <path id="path7601" d="m1157.3 541.06c-0.4 0.05-0.5 0.62-0.5 1.73l0.1 1.92h-0.2l-2.5-3.23v1.05c0 0.49 0.1 0.86 0.1 1.11 0.1 0.55 0.3 0.84 0.5 0.86v0.14l-1.2 0.04v-0.14c0.3-0.06 0.5-0.72 0.4-1.97v-0.98c0-0.16 0-0.27-0.1-0.32-0.1-0.06-0.2-0.09-0.3-0.09v-0.13l0.9-0.03 2.1 2.7v-0.84c0-1.16-0.2-1.75-0.6-1.78v-0.13l1.3-0.04v0.13z"/>
          <path id="path7603" d="m1160.1 543.41l-0.2 1.18h-0.1c0-0.08-0.1-0.12-0.1-0.12l-2.1 0.08v-0.14c0.2-0.01 0.3-0.04 0.3-0.11 0.1-0.06 0.1-0.18 0.1-0.36l-0.1-2.45c0-0.17 0-0.29-0.1-0.35s-0.2-0.09-0.3-0.08v-0.14l2-0.08c0.1 0 0.2-0.05 0.2-0.15h0.1v1.08l-0.2 0.01c0-0.54-0.3-0.79-1-0.77l-0.2 0.01v0.55c0 0.63 0.3 0.94 0.8 0.92l0.3-0.01v0.2l-1 0.07v1.63l0.3-0.01c0.7-0.03 1-0.35 1.1-0.95l0.2-0.01z"/>
        </g>
        <g id="text7510" stroke-width=".05" stroke="#000" stroke-linecap="square" transform="translate(95.695 40.106)">
          <path id="path7518" d="m1112.2 555.72l0.1-2.86 1.1 0.05c0.2 0.01 0.4 0.05 0.5 0.12 0.1 0.06 0.2 0.15 0.3 0.28 0.1 0.12 0.1 0.25 0.1 0.38 0 0.12 0 0.24-0.1 0.34-0.1 0.11-0.2 0.19-0.3 0.25 0.1 0.06 0.3 0.15 0.4 0.28 0 0.12 0.1 0.27 0.1 0.44 0 0.13-0.1 0.25-0.1 0.37-0.1 0.11-0.2 0.19-0.3 0.25 0 0.06-0.1 0.1-0.3 0.13-0.1 0.02-0.3 0.03-0.4 0.02l-1.1-0.05zm0.4-1.64l0.6 0.03c0.2 0.01 0.3 0.01 0.4-0.01 0.1-0.03 0.2-0.07 0.2-0.14 0.1-0.06 0.1-0.14 0.1-0.24v-0.26c-0.1-0.07-0.1-0.12-0.2-0.15s-0.3-0.05-0.5-0.06l-0.5-0.03-0.1 0.86zm0 1.32l0.7 0.04h0.2c0.1-0.02 0.2-0.04 0.3-0.07 0-0.03 0.1-0.09 0.1-0.15 0.1-0.07 0.1-0.15 0.1-0.24 0-0.11 0-0.2-0.1-0.28 0-0.08-0.1-0.14-0.2-0.18s-0.2-0.06-0.4-0.07l-0.7-0.03v0.98z"/>
          <path id="path7520" d="m1116 555.89l0.1-2.86 1.2 0.05c0.3 0.01 0.5 0.04 0.6 0.1 0.2 0.06 0.3 0.15 0.3 0.28 0.1 0.14 0.1 0.28 0.1 0.44 0 0.2 0 0.37-0.2 0.51-0.1 0.13-0.3 0.21-0.6 0.24 0.1 0.05 0.2 0.1 0.2 0.15 0.1 0.1 0.2 0.24 0.3 0.39l0.5 0.8-0.5-0.02-0.3-0.61c-0.1-0.17-0.2-0.31-0.3-0.4-0.1-0.1-0.1-0.16-0.2-0.2 0-0.04-0.1-0.07-0.2-0.08 0-0.01-0.1-0.02-0.2-0.03l-0.4-0.01-0.1 1.27-0.3-0.02zm0.4-1.58l0.8 0.03c0.2 0.01 0.3-0.01 0.4-0.04s0.2-0.08 0.3-0.16v-0.26c0.1-0.13 0-0.24-0.1-0.33-0.1-0.1-0.2-0.14-0.5-0.15l-0.9-0.04v0.95z"/>
          <path id="path7522" d="m1121.9 553.23l0.4 0.01v1.65c-0.1 0.29-0.1 0.52-0.2 0.68 0 0.17-0.2 0.31-0.3 0.41-0.2 0.1-0.4 0.14-0.7 0.14-0.3-0.01-0.5-0.06-0.7-0.16-0.1-0.1-0.2-0.24-0.3-0.41-0.1-0.18-0.1-0.42-0.1-0.72v-1.66l0.4 0.01v2.21c0.1 0.12 0.2 0.21 0.3 0.28 0.1 0.06 0.2 0.1 0.4 0.1 0.3 0.01 0.5-0.05 0.6-0.17s0.2-0.36 0.2-0.72v-1.65z"/>
          <path id="path7524" d="m1124.7 556.16v-2.53l-0.9-0.02v-0.34l2.3 0.05v0.34l-1-0.02v2.52h-0.4z"/>
          <path id="path7526" d="m1129.8 556.24v-2.87l0.4 0.01v2.86h-0.4z"/>
          <path id="path7528" d="m1131.9 556.26l0.1-2.87 0.5 0.01 0.7 2.03c0.1 0.18 0.1 0.33 0.1 0.42 0.1-0.1 0.1-0.26 0.2-0.46l0.7-1.99h0.5v2.87h-0.4v-2.4l-0.8 2.39h-0.4l-0.8-2.44v2.44h-0.4z"/>
          <path id="path7530" d="m1136.4 556.27v-2.87h1.1c0.2 0 0.3 0.01 0.4 0.03s0.3 0.06 0.4 0.13c0.1 0.06 0.1 0.16 0.2 0.27 0 0.12 0.1 0.25 0.1 0.39 0 0.25-0.1 0.45-0.3 0.62-0.1 0.17-0.4 0.26-0.8 0.26h-0.7v1.17h-0.4zm0.4-1.51h0.7c0.3 0 0.4-0.05 0.5-0.14s0.2-0.22 0.2-0.38c0-0.12 0-0.22-0.1-0.31s-0.1-0.14-0.2-0.17c-0.1-0.01-0.2-0.02-0.4-0.02h-0.7v1.02z"/>
          <path id="path7532" d="m1140.2 556.25v-2.86l2-0.03v0.34l-1.7 0.02 0.1 0.88 1.5-0.02v0.34l-1.5 0.01v0.98l1.7-0.02v0.34l-2.1 0.02z"/>
          <path id="path7534" d="m1144 556.2l-0.1-2.86 1.3-0.02c0.2-0.01 0.4 0.01 0.6 0.06 0.1 0.05 0.2 0.14 0.3 0.27s0.1 0.27 0.1 0.43c0 0.2 0 0.38-0.2 0.52-0.1 0.14-0.3 0.23-0.6 0.27 0.1 0.05 0.2 0.1 0.3 0.14 0.1 0.1 0.2 0.23 0.3 0.38l0.5 0.77-0.5 0.01-0.4-0.59c-0.1-0.17-0.2-0.3-0.3-0.39 0-0.09-0.1-0.15-0.1-0.19-0.1-0.04-0.2-0.06-0.2-0.07-0.1-0.01-0.1-0.01-0.2-0.01h-0.5v1.28h-0.3zm0.3-1.6l0.8-0.02c0.2 0 0.3-0.02 0.4-0.06s0.2-0.1 0.3-0.18v-0.25c0-0.14 0-0.25-0.1-0.33-0.1-0.09-0.3-0.13-0.5-0.13l-0.9 0.02v0.95z"/>
          <path id="path7536" d="m1148 556.12v-2.86l0.3-0.01 0.1 2.86-0.4 0.01z"/>
          <path id="path7538" d="m1149.9 556.08l1-2.9 0.4-0.01 1.2 2.82-0.4 0.02-0.3-0.86-1.2 0.04-0.3 0.87-0.4 0.02zm0.8-1.2l0.9-0.03-0.3-0.79c-0.1-0.24-0.2-0.43-0.2-0.58 0 0.18-0.1 0.36-0.2 0.55l-0.2 0.85z"/>
          <path id="path7540" d="m1153.9 555.94l-0.1-2.86 0.4-0.01 0.1 2.52 1.4-0.05v0.34l-1.8 0.06z"/>
        </g>
        <path id="path7834" d="m1135.3 563.29l-1.7-0.75-1.4 1.36 0.2-1.9-1.8-0.9 1.9-0.42 0.3-1.91 1 1.63 1.9-0.28-1.2 1.43 0.8 1.74z" transform="matrix(.76729 .15349 -.15349 .76729 446.22 -2.7385)" stroke="url(#linearGradient4095)" stroke-linecap="square" stroke-width=".2" fill="url(#linearGradient4093)"/>
      </g>
      <g id="g8974" fill="#c3a662" transform="translate(89.396 38.922)">
        <g id="text8877" transform="translate(.16641 .073522)">
          <path id="path8914" d="m1110.6 570.72l0.1-1.16 0.5 0.04c0.1 0.01 0.1 0.02 0.2 0.03 0 0.02 0.1 0.04 0.1 0.07s0.1 0.07 0.1 0.12v0.16c0 0.1-0.1 0.18-0.1 0.24-0.1 0.07-0.2 0.09-0.4 0.07l-0.3-0.03v0.47l-0.2-0.01zm0.2-0.59l0.3 0.03c0.1 0.01 0.2-0.01 0.3-0.04v-0.28c0-0.03 0-0.06-0.1-0.07 0-0.01 0-0.02-0.1-0.03l-0.3-0.03-0.1 0.42z"/>
          <path id="path8916" d="m1111.7 570.83l0.1-1.16 0.5 0.04c0.1 0.01 0.2 0.03 0.3 0.06 0 0.02 0.1 0.07 0.1 0.12v0.18c0 0.08 0 0.15-0.1 0.2 0 0.05-0.1 0.08-0.2 0.08 0 0.03 0 0.05 0.1 0.07 0 0.05 0 0.1 0.1 0.17l0.1 0.33-0.2-0.02-0.1-0.25c0-0.08-0.1-0.13-0.1-0.17s0-0.07-0.1-0.09v-0.03c0-0.01-0.1-0.01-0.1-0.02l-0.2-0.01v0.51l-0.2-0.01zm0.2-0.64l0.4 0.03c0 0.01 0.1 0.01 0.1 0 0.1-0.01 0.1-0.03 0.1-0.06s0.1-0.07 0.1-0.1c0-0.06 0-0.11-0.1-0.15 0-0.03-0.1-0.06-0.2-0.07l-0.3-0.03-0.1 0.38z"/>
          <path id="path8918" d="m1112.9 570.37c0-0.2 0.1-0.34 0.2-0.44s0.2-0.14 0.4-0.13c0.1 0.01 0.2 0.04 0.3 0.1s0.1 0.14 0.2 0.23v0.32c0 0.12 0 0.22-0.1 0.31s-0.1 0.15-0.2 0.19-0.2 0.06-0.3 0.05-0.2-0.04-0.3-0.1c-0.1-0.07-0.1-0.14-0.2-0.24v-0.29zm0.1 0.01c0 0.14 0.1 0.26 0.1 0.34 0.1 0.09 0.2 0.14 0.3 0.15s0.2-0.02 0.3-0.1c0.1-0.07 0.1-0.18 0.1-0.33v-0.25c0-0.08-0.1-0.14-0.1-0.18-0.1-0.05-0.1-0.07-0.2-0.08s-0.2 0.02-0.3 0.09-0.1 0.19-0.2 0.36z"/>
          <path id="path8920" d="m1114.1 571.05l0.1-1.16 0.4 0.03c0.1 0.01 0.2 0.02 0.2 0.03 0.1 0.03 0.2 0.06 0.2 0.1 0.1 0.06 0.1 0.13 0.1 0.21 0.1 0.08 0.1 0.18 0.1 0.28-0.1 0.09-0.1 0.17-0.1 0.23 0 0.07-0.1 0.12-0.1 0.17 0 0.04-0.1 0.07-0.1 0.09s-0.1 0.04-0.2 0.05c0 0.01-0.1 0.01-0.1 0l-0.5-0.03zm0.2-0.13l0.3 0.02c0 0.01 0.1 0.01 0.1 0 0.1-0.01 0.1-0.03 0.1-0.05 0.1-0.04 0.1-0.08 0.1-0.14 0.1-0.06 0.1-0.14 0.1-0.22v-0.29c-0.1-0.07-0.1-0.12-0.2-0.14 0-0.02-0.1-0.04-0.2-0.04l-0.2-0.02-0.1 0.88z"/>
          <path id="path8922" d="m1116.2 570.04l0.1 0.02v0.67c0 0.11-0.1 0.21-0.1 0.27 0 0.07-0.1 0.12-0.2 0.16 0 0.04-0.1 0.05-0.2 0.04s-0.2-0.03-0.3-0.08c-0.1-0.04-0.1-0.1-0.1-0.17s-0.1-0.17 0-0.3v-0.67l0.2 0.02-0.1 0.67v0.22c0 0.05 0.1 0.09 0.1 0.12 0.1 0.03 0.1 0.05 0.2 0.05 0.1 0.01 0.2-0.01 0.2-0.06 0.1-0.04 0.1-0.14 0.1-0.29l0.1-0.67z"/>
          <path id="path8924" d="m1116.5 571.24l0.1-1.16 0.2 0.01-0.1 1.16-0.2-0.01z"/>
          <path id="path8926" d="m1117.2 571.29l0.1-1.02-0.4-0.03v-0.14l1 0.07-0.1 0.14-0.3-0.03-0.1 1.02-0.2-0.01z"/>
          <path id="path8928" d="m1118.4 571.37l0.1-1.16 0.4 0.03s0.1 0.01 0.2 0.03c0 0.02 0.1 0.05 0.1 0.09 0.1 0.06 0.1 0.13 0.1 0.21 0.1 0.08 0.1 0.17 0.1 0.28 0 0.09 0 0.16-0.1 0.23 0 0.07 0 0.12-0.1 0.16 0 0.05 0 0.08-0.1 0.1 0 0.03-0.1 0.04-0.1 0.05-0.1 0.01-0.1 0.01-0.2 0.01l-0.4-0.03zm0.1-0.12l0.3 0.01c0.1 0.01 0.1 0 0.2-0.01 0-0.01 0.1-0.03 0.1-0.05 0-0.04 0-0.08 0.1-0.14v-0.51c-0.1-0.07-0.1-0.11-0.2-0.14 0-0.02-0.1-0.03-0.2-0.04l-0.2-0.01-0.1 0.89z"/>
          <path id="path8930" d="m1119.6 571.45v-1.16l0.9 0.05v0.13l-0.7-0.04-0.1 0.36 0.7 0.04v0.13l-0.7-0.03v0.39l0.7 0.04v0.14l-0.8-0.05z"/>
          <path id="path8932" d="m1121.1 571.54l0.1-1.16 0.7 0.04v0.14l-0.6-0.04v0.36l0.5 0.03v0.14l-0.5-0.03-0.1 0.53-0.1-0.01z"/>
          <path id="path8934" d="m1122.1 571.59v-1.16l0.6 0.03c0.1 0 0.1 0.02 0.2 0.04 0 0.02 0.1 0.06 0.1 0.12 0 0.05 0.1 0.11 0.1 0.17 0 0.09-0.1 0.15-0.1 0.21-0.1 0.05-0.2 0.08-0.3 0.09 0 0.03 0.1 0.05 0.1 0.07 0 0.04 0.1 0.09 0.1 0.16l0.2 0.32-0.2-0.01-0.1-0.25c-0.1-0.07-0.1-0.12-0.1-0.16-0.1-0.04-0.1-0.07-0.1-0.08 0-0.02-0.1-0.03-0.1-0.04 0 0 0-0.01-0.1-0.01l-0.1-0.01-0.1 0.52-0.1-0.01zm0.2-0.64l0.3 0.02c0.1 0 0.1 0 0.2-0.02 0-0.01 0-0.03 0.1-0.06v-0.1c0-0.06 0-0.11-0.1-0.14 0-0.04-0.1-0.06-0.1-0.07l-0.4-0.01v0.38z"/>
          <path id="path8936" d="m1123.1 571.65l0.5-1.15 0.2 0.01 0.4 1.18h-0.2l-0.1-0.36-0.5-0.02-0.1 0.34h-0.2zm0.4-0.47l0.4 0.02-0.1-0.33c-0.1-0.1-0.1-0.18-0.1-0.24 0 0.07 0 0.14-0.1 0.22l-0.1 0.33z"/>
          <path id="path8938" d="m1124.3 571.7l0.1-1.16h0.1l0.6 0.94 0.1-0.91h0.1v1.17l-0.2-0.01-0.6-0.94v0.92l-0.2-0.01z"/>
          <path id="path8940" d="m1126.4 571.37l0.1 0.04c0 0.13-0.1 0.22-0.2 0.28-0.1 0.07-0.2 0.1-0.3 0.09-0.1 0-0.2-0.03-0.3-0.08-0.1-0.06-0.1-0.13-0.2-0.23v-0.32c0-0.12 0-0.22 0.1-0.31 0-0.09 0.1-0.16 0.2-0.2s0.2-0.06 0.3-0.06 0.2 0.04 0.3 0.1c0 0.06 0.1 0.15 0.1 0.25l-0.1 0.04c-0.1-0.09-0.1-0.15-0.2-0.19 0-0.04-0.1-0.07-0.1-0.07-0.1 0-0.2 0.02-0.3 0.06 0 0.04-0.1 0.09-0.1 0.17 0 0.07 0 0.14-0.1 0.22 0 0.1 0.1 0.18 0.1 0.26 0 0.07 0.1 0.13 0.1 0.17 0.1 0.04 0.1 0.06 0.2 0.06s0.2-0.02 0.2-0.07c0.1-0.04 0.1-0.12 0.2-0.21z"/>
          <path id="path8942" d="m1126.7 571.79v-1.17l0.9 0.03v0.13l-0.7-0.02v0.36l0.6 0.02v0.14l-0.6-0.02v0.39l0.7 0.02v0.14l-0.9-0.02z"/>
          <path id="path8944" d="m1143.6 571.73l-0.1-1.17 0.5-0.01c0-0.01 0.1-0.01 0.1 0 0.1 0.01 0.1 0.02 0.2 0.05 0 0.02 0 0.06 0.1 0.11v0.15c0 0.1 0 0.19-0.1 0.26 0 0.07-0.1 0.11-0.3 0.12l-0.3 0.01v0.47l-0.1 0.01zm0.1-0.62l0.3-0.01c0.1-0.01 0.2-0.03 0.2-0.07 0-0.03 0.1-0.09 0.1-0.15 0-0.05-0.1-0.09-0.1-0.13 0-0.03 0-0.05-0.1-0.06 0-0.01-0.1-0.01-0.1-0.01l-0.3 0.01v0.42z"/>
          <path id="path8946" d="m1144.6 571.68v-1.16l0.5-0.02c0.1-0.01 0.2 0 0.3 0.02 0 0.02 0.1 0.05 0.1 0.1v0.39c-0.1 0.06-0.2 0.1-0.3 0.12 0.1 0.02 0.1 0.03 0.1 0.05 0.1 0.04 0.1 0.09 0.2 0.15l0.2 0.31-0.2 0.01-0.2-0.24c0-0.07-0.1-0.12-0.1-0.15 0-0.04-0.1-0.06-0.1-0.08 0-0.01 0-0.02-0.1-0.03l-0.2 0.01v0.52h-0.2zm0.2-0.65l0.3-0.02c0.1 0 0.1-0.01 0.2-0.03 0-0.01 0-0.04 0.1-0.07v-0.11c0-0.05 0-0.1-0.1-0.13 0-0.03-0.1-0.05-0.2-0.04l-0.3 0.01v0.39z"/>
          <path id="path8948" d="m1145.7 571.07c0-0.2 0.1-0.35 0.2-0.46 0.1-0.12 0.2-0.18 0.4-0.19 0.1 0 0.2 0.02 0.3 0.06 0.1 0.05 0.1 0.12 0.2 0.21 0 0.09 0.1 0.19 0.1 0.31s-0.1 0.22-0.1 0.32c0 0.09-0.1 0.17-0.2 0.22s-0.2 0.08-0.3 0.09c-0.1 0-0.2-0.02-0.3-0.07s-0.1-0.12-0.2-0.21c0-0.09 0-0.18-0.1-0.28zm0.2-0.01c0 0.14 0.1 0.25 0.1 0.33 0.1 0.07 0.2 0.11 0.3 0.1 0.1 0 0.2-0.05 0.3-0.13 0.1-0.09 0.1-0.2 0.1-0.35 0-0.1 0-0.18-0.1-0.25 0-0.07 0-0.12-0.1-0.16-0.1-0.03-0.1-0.05-0.2-0.04-0.1 0-0.2 0.04-0.3 0.12s-0.1 0.21-0.1 0.38z"/>
          <path id="path8950" d="m1147.1 571.57l-0.1-1.16 0.4-0.03c0.1 0 0.2 0 0.2 0.01 0.1 0.01 0.2 0.04 0.2 0.07 0.1 0.05 0.1 0.12 0.2 0.2v0.51c0 0.07 0 0.12-0.1 0.17 0 0.05 0 0.08-0.1 0.11 0 0.03-0.1 0.05-0.1 0.07-0.1 0.01-0.1 0.02-0.2 0.03l-0.4 0.02zm0.1-0.15l0.3-0.01c0.1 0 0.1-0.02 0.2-0.03 0-0.02 0-0.04 0.1-0.07v-0.15c0.1-0.06 0.1-0.14 0.1-0.22-0.1-0.13-0.1-0.22-0.1-0.28-0.1-0.07-0.1-0.11-0.2-0.13 0-0.01-0.1-0.01-0.2-0.01l-0.2 0.01v0.89z"/>
          <path id="path8952" d="m1149 570.3l0.1-0.01v0.67c0.1 0.12 0 0.21 0 0.28s0 0.13-0.1 0.18c-0.1 0.04-0.2 0.07-0.3 0.08-0.1 0-0.2-0.01-0.2-0.04-0.1-0.04-0.2-0.09-0.2-0.16s-0.1-0.16-0.1-0.29v-0.67l0.1-0.01 0.1 0.67v0.23c0 0.04 0.1 0.08 0.1 0.1 0.1 0.02 0.1 0.03 0.2 0.03 0.1-0.01 0.2-0.04 0.2-0.09 0.1-0.06 0.1-0.16 0.1-0.3v-0.67z"/>
          <path id="path8954" d="m1149.5 571.43l-0.1-1.16 0.1-0.01 0.1 1.16-0.1 0.01z"/>
          <path id="path8956" d="m1150.2 571.39l-0.1-1.03-0.4 0.03v-0.14l0.9-0.06 0.1 0.14-0.4 0.02v1.03l-0.1 0.01z"/>
          <path id="path8958" d="m1151.3 571.31l-0.1-1.16 0.4-0.03c0.1 0 0.2 0 0.3 0.01 0 0.01 0.1 0.03 0.1 0.07 0.1 0.04 0.1 0.11 0.2 0.19v0.27c0.1 0.09 0 0.17 0 0.24v0.17c-0.1 0.05-0.1 0.08-0.1 0.11-0.1 0.03-0.1 0.05-0.2 0.07 0 0.02-0.1 0.03-0.2 0.03l-0.4 0.03zm0.2-0.14l0.2-0.02c0.1-0.01 0.2-0.02 0.2-0.04 0-0.01 0.1-0.04 0.1-0.06 0-0.04 0.1-0.09 0.1-0.16v-0.22c0-0.12 0-0.22-0.1-0.28 0-0.06-0.1-0.1-0.1-0.12-0.1-0.01-0.2-0.02-0.2-0.01l-0.3 0.02 0.1 0.89z"/>
          <path id="path8960" d="m1152.5 571.23l-0.1-1.16 0.9-0.06v0.13l-0.7 0.05v0.36l0.6-0.05 0.1 0.14-0.7 0.05v0.39l0.8-0.05v0.14l-0.9 0.06z"/>
          <path id="path8962" d="m1154 571.11l-0.1-1.16 0.8-0.06v0.14l-0.6 0.05v0.36l0.6-0.05v0.14l-0.5 0.04v0.53l-0.2 0.01z"/>
          <path id="path8964" d="m1155 571.04l-0.1-1.17 0.5-0.04c0.1-0.01 0.2 0 0.3 0.01 0 0.02 0.1 0.05 0.1 0.1 0.1 0.05 0.1 0.11 0.1 0.17 0 0.09 0 0.16-0.1 0.22 0 0.06-0.1 0.1-0.2 0.13 0 0.01 0.1 0.03 0.1 0.05 0 0.03 0.1 0.08 0.1 0.14l0.2 0.3-0.1 0.02-0.2-0.23c-0.1-0.07-0.1-0.12-0.1-0.15-0.1-0.04-0.1-0.06-0.1-0.07-0.1-0.02-0.1-0.03-0.1-0.03h-0.1l-0.2 0.02 0.1 0.51-0.2 0.02zm0.1-0.67l0.4-0.02c0-0.01 0.1-0.02 0.1-0.04 0.1-0.02 0.1-0.04 0.1-0.08v-0.23c-0.1-0.04-0.2-0.05-0.2-0.04l-0.4 0.03v0.38z"/>
          <path id="path8966" d="m1156.1 570.95l0.3-1.2 0.2-0.02 0.6 1.12-0.2 0.02-0.2-0.34-0.5 0.04-0.1 0.36-0.1 0.02zm0.3-0.51l0.4-0.03-0.2-0.31c0-0.1-0.1-0.18-0.1-0.24v0.23l-0.1 0.35z"/>
          <path id="path8968" d="m1157.3 570.84l-0.1-1.16 0.1-0.01 0.7 0.85-0.1-0.91 0.2-0.01 0.1 1.16-0.2 0.01-0.7-0.85 0.1 0.91-0.1 0.01z"/>
          <path id="path8970" d="m1159.2 570.25l0.2 0.02c0 0.13-0.1 0.23-0.2 0.31 0 0.07-0.1 0.11-0.3 0.13-0.1 0.01-0.2-0.01-0.3-0.05 0-0.05-0.1-0.11-0.2-0.21 0-0.09 0-0.19-0.1-0.3 0-0.12 0-0.23 0.1-0.32 0-0.1 0.1-0.17 0.2-0.23 0-0.05 0.1-0.08 0.2-0.09 0.2-0.01 0.3 0.01 0.3 0.06 0.1 0.05 0.2 0.13 0.2 0.23l-0.1 0.05c-0.1-0.08-0.1-0.14-0.2-0.17 0-0.04-0.1-0.05-0.2-0.04 0 0.01-0.1 0.04-0.2 0.08 0 0.05-0.1 0.11-0.1 0.19v0.22c0 0.1 0 0.19 0.1 0.26 0 0.07 0.1 0.12 0.1 0.15 0.1 0.03 0.2 0.04 0.2 0.04 0.1-0.01 0.2-0.04 0.2-0.1 0.1-0.06 0.1-0.13 0.1-0.23z"/>
          <path id="path8972" d="m1159.6 570.62l-0.1-1.16 0.8-0.08 0.1 0.14-0.7 0.06v0.36l0.6-0.07 0.1 0.14-0.7 0.06 0.1 0.4 0.7-0.07v0.13l-0.9 0.09z"/>
        </g>
        <g id="text8873" transform="matrix(.85327 0 0 1.0638 187.01 -33.972)">
          <path id="path8905" d="m1106.6 570.43v-2.87h1.1c0.2 0 0.4 0.03 0.5 0.09s0.2 0.15 0.3 0.27 0.1 0.25 0.1 0.38c0 0.12 0 0.23-0.1 0.34s-0.2 0.2-0.3 0.26c0.2 0.05 0.3 0.14 0.4 0.26 0.1 0.13 0.2 0.27 0.2 0.44 0 0.13-0.1 0.26-0.1 0.37-0.1 0.12-0.2 0.21-0.2 0.27-0.1 0.06-0.2 0.11-0.4 0.14-0.1 0.03-0.2 0.05-0.4 0.05h-1.1zm0.4-1.66h0.6c0.2 0 0.3-0.01 0.4-0.04 0-0.02 0.1-0.07 0.2-0.14v-0.5c-0.1-0.07-0.1-0.12-0.2-0.15-0.1-0.02-0.3-0.04-0.5-0.04h-0.5v0.87zm0 1.32h0.7c0.1 0 0.2-0.01 0.2-0.01 0.1-0.02 0.2-0.05 0.3-0.08 0-0.04 0.1-0.09 0.1-0.16s0.1-0.15 0.1-0.24c0-0.11-0.1-0.2-0.1-0.28-0.1-0.08-0.2-0.14-0.2-0.17-0.1-0.03-0.3-0.04-0.5-0.04h-0.6v0.98z"/>
          <path id="path8907" d="m1109.3 570.43v-2.87h1.3c0.2 0 0.4 0.03 0.5 0.08 0.2 0.05 0.3 0.14 0.4 0.27 0 0.13 0.1 0.28 0.1 0.44 0 0.2-0.1 0.37-0.2 0.51-0.2 0.14-0.4 0.23-0.6 0.26 0.1 0.05 0.1 0.1 0.2 0.15 0.1 0.1 0.2 0.23 0.3 0.38l0.5 0.78h-0.5l-0.3-0.6c-0.2-0.17-0.2-0.3-0.3-0.39s-0.2-0.16-0.2-0.19c-0.1-0.04-0.1-0.07-0.2-0.08 0-0.01-0.1-0.01-0.2-0.01h-0.4v1.27h-0.4zm0.4-1.6h0.8c0.2 0 0.3-0.02 0.4-0.06 0.1-0.03 0.2-0.09 0.2-0.17 0.1-0.08 0.1-0.16 0.1-0.25 0-0.14-0.1-0.25-0.2-0.34s-0.2-0.13-0.4-0.13h-0.9v0.95z"/>
          <path id="path8909" d="m1114 567.56h0.4v1.66c0 0.29 0 0.51-0.1 0.68 0 0.17-0.2 0.31-0.3 0.42-0.2 0.1-0.4 0.16-0.7 0.16s-0.5-0.05-0.7-0.14c-0.1-0.09-0.2-0.23-0.3-0.4-0.1-0.18-0.1-0.42-0.1-0.72v-1.66h0.4v2.21c0.1 0.11 0.1 0.2 0.3 0.27 0.1 0.06 0.2 0.09 0.4 0.09 0.3 0 0.5-0.06 0.6-0.18 0.1-0.13 0.1-0.37 0.1-0.73v-1.66z"/>
          <path id="path8911" d="m1115.8 570.43v-2.53h-1v-0.34h2.3v0.34h-0.9v2.53h-0.4z"/>
        </g>
      </g>
      <g id="text9112" fill="#c3a662" transform="translate(89.558 48.919)">
        <path id="path11270" d="m1105.5 564.15l0.1-1.2 0.9 0.11v0.14l-0.7-0.09-0.1 0.37 0.7 0.08v0.14l-0.7-0.08-0.1 0.41 0.8 0.09v0.14l-0.9-0.11z"/>
        <path id="path11272" d="m1106.6 564.28l0.1-1.19 0.2 0.01-0.2 1.06 0.6 0.07v0.14l-0.7-0.09z"/>
        <path id="path11274" d="m1107.4 564.38l0.6-1.15 0.1 0.02 0.4 1.26-0.2-0.03-0.1-0.37-0.5-0.06-0.2 0.35-0.1-0.02zm0.4-0.45l0.4 0.04-0.1-0.35c0-0.1 0-0.19-0.1-0.25v0.22l-0.2 0.34z"/>
        <path id="path11276" d="m1108.6 564.52l0.2-1.2 0.4 0.05c0.1 0.01 0.2 0.03 0.2 0.06 0.1 0.03 0.1 0.07 0.1 0.12 0.1 0.06 0.1 0.11 0.1 0.17 0 0.05-0.1 0.1-0.1 0.14s-0.1 0.07-0.1 0.09c0 0.03 0.1 0.07 0.1 0.13 0.1 0.06 0.1 0.12 0.1 0.19 0 0.05-0.1 0.11-0.1 0.15 0 0.05 0 0.08-0.1 0.1 0 0.03-0.1 0.04-0.1 0.05-0.1 0.01-0.1 0.01-0.2 0l-0.5-0.05zm0.3-0.68l0.2 0.03c0.1 0.01 0.1 0.01 0.2 0 0-0.01 0-0.02 0.1-0.05v-0.21c0-0.03 0-0.06-0.1-0.07 0-0.02-0.1-0.03-0.2-0.04l-0.2-0.02v0.36zm-0.1 0.55l0.3 0.04h0.1s0.1-0.01 0.1-0.02 0-0.03 0.1-0.06v-0.22c0-0.03-0.1-0.06-0.1-0.08s-0.1-0.03-0.2-0.04l-0.3-0.03v0.41z"/>
        <path id="path11278" d="m1109.8 564.05c0-0.2 0.1-0.35 0.2-0.45s0.2-0.15 0.4-0.13c0.1 0.01 0.2 0.05 0.3 0.11s0.1 0.14 0.2 0.24v0.33c0 0.13 0 0.23-0.1 0.32s-0.1 0.16-0.2 0.2-0.2 0.05-0.3 0.04-0.2-0.05-0.3-0.11-0.2-0.14-0.2-0.24v-0.31zm0.1 0.02c0 0.14 0 0.26 0.1 0.35s0.2 0.15 0.3 0.16 0.2-0.02 0.3-0.1c0.1-0.07 0.1-0.19 0.1-0.34 0.1-0.1 0-0.19 0-0.26 0-0.08 0-0.14-0.1-0.19s-0.1-0.07-0.2-0.08-0.2 0.02-0.3 0.08c-0.1 0.07-0.2 0.2-0.2 0.38z"/>
        <path id="path11280" d="m1111.1 564.77l0.1-1.2 0.5 0.05c0.1 0.01 0.2 0.03 0.2 0.06 0.1 0.03 0.1 0.07 0.2 0.13v0.18c0 0.09 0 0.16-0.1 0.21s-0.2 0.08-0.3 0.09c0.1 0.02 0.1 0.04 0.1 0.07 0.1 0.04 0.1 0.1 0.1 0.17l0.2 0.35-0.2-0.02-0.1-0.27c-0.1-0.08-0.1-0.13-0.1-0.18 0-0.04-0.1-0.07-0.1-0.08 0-0.02 0-0.03-0.1-0.04v-0.02l-0.2-0.02-0.1 0.54-0.1-0.02zm0.2-0.65l0.3 0.03c0.1 0.01 0.2 0.01 0.2-0.01 0-0.01 0.1-0.03 0.1-0.06v-0.25c0-0.04-0.1-0.06-0.2-0.07l-0.4-0.04v0.4z"/>
        <path id="path11282" d="m1112.3 564.89l0.1-1.2 0.9 0.08-0.1 0.14-0.7-0.07v0.37l0.7 0.06-0.1 0.15-0.6-0.07-0.1 0.41 0.8 0.07v0.14l-0.9-0.08z"/>
        <path id="path11284" d="m1113.9 565.03l0.1-1.2 0.4 0.04c0.1 0.01 0.2 0.02 0.2 0.03 0.1 0.01 0.1 0.03 0.1 0.07 0.1 0.03 0.1 0.07 0.1 0.12s0.1 0.11 0 0.17c0 0.1 0 0.18-0.1 0.25 0 0.06-0.2 0.09-0.3 0.07l-0.3-0.02-0.1 0.49-0.1-0.02zm0.2-0.61l0.3 0.02c0.1 0.01 0.2 0 0.2-0.04 0-0.03 0.1-0.08 0.1-0.15v-0.13c-0.1-0.04-0.1-0.07-0.1-0.08-0.1-0.01-0.1-0.02-0.2-0.03l-0.3-0.02v0.43z"/>
        <path id="path11286" d="m1114.8 565.12l0.6-1.17 0.2 0.02 0.4 1.24-0.2-0.02-0.1-0.37-0.5-0.04-0.2 0.35-0.2-0.01zm0.4-0.47l0.4 0.04-0.1-0.35v-0.25c0 0.07-0.1 0.15-0.1 0.22l-0.2 0.34z"/>
        <path id="path11288" d="m1116.1 565.22l0.1-1.2 0.5 0.04c0.1 0 0.2 0.02 0.3 0.05 0 0.02 0.1 0.06 0.1 0.12v0.19c0 0.08 0 0.15-0.1 0.21 0 0.05-0.1 0.08-0.2 0.09 0 0.02 0 0.04 0.1 0.07 0 0.04 0 0.1 0.1 0.17l0.2 0.34-0.2-0.02-0.2-0.26c0-0.07-0.1-0.13-0.1-0.17s0-0.07-0.1-0.09v-0.04l-0.1-0.01-0.2-0.01v0.53l-0.2-0.01zm0.2-0.66l0.4 0.02c0 0.01 0.1 0.01 0.1-0.01 0.1-0.01 0.1-0.03 0.1-0.06 0.1-0.03 0.1-0.07 0.1-0.11 0-0.05 0-0.1-0.1-0.14 0-0.04-0.1-0.06-0.2-0.07l-0.4-0.03v0.4z"/>
        <path id="path11290" d="m1118.7 564.98l0.1 0.05c0 0.13-0.1 0.23-0.2 0.29s-0.2 0.09-0.3 0.08-0.2-0.04-0.3-0.1-0.1-0.14-0.2-0.24v-0.33c0-0.13 0-0.23 0.1-0.32 0-0.09 0.1-0.16 0.2-0.2 0.1-0.05 0.2-0.06 0.3-0.06 0.1 0.01 0.2 0.05 0.3 0.12 0.1 0.06 0.1 0.15 0.1 0.27l-0.1 0.02c0-0.09-0.1-0.15-0.1-0.2-0.1-0.04-0.1-0.06-0.2-0.07s-0.2 0.01-0.3 0.05c0 0.04-0.1 0.1-0.1 0.17s-0.1 0.15-0.1 0.23c0 0.1 0 0.19 0.1 0.27 0 0.08 0 0.14 0.1 0.18s0.1 0.07 0.2 0.07c0.1 0.01 0.2-0.01 0.2-0.06 0.1-0.05 0.1-0.12 0.2-0.22z"/>
        <path id="path11292" d="m1119 565.43l0.1-1.21 0.1 0.01v0.5l0.6 0.04 0.1-0.5 0.1 0.01-0.1 1.21-0.1-0.01v-0.57l-0.6-0.04v0.57l-0.2-0.01z"/>
        <path id="path11294" d="m1120.1 565.49l0.5-1.17 0.2 0.01 0.4 1.23-0.2-0.01-0.1-0.37-0.5-0.03-0.1 0.35-0.2-0.01zm0.4-0.47l0.4 0.02-0.1-0.34c-0.1-0.1-0.1-0.19-0.1-0.25 0 0.07-0.1 0.15-0.1 0.22l-0.1 0.35z"/>
        <path id="path11296" d="m1121.3 565.57l0.1-1.21 0.2 0.01 0.3 0.87v0.18c0-0.04 0.1-0.1 0.1-0.19l0.3-0.82 0.2 0.01v1.21l-0.2-0.01 0.1-1.01-0.4 0.99-0.2-0.01-0.3-1.04v1.02h-0.2z"/>
        <path id="path11298" d="m1122.7 565.64l0.1-1.21 0.5 0.02c0 0.01 0.1 0.01 0.1 0.02 0.1 0.02 0.1 0.04 0.2 0.07 0 0.03 0.1 0.07 0.1 0.12v0.17c0 0.1 0 0.18-0.1 0.25s-0.2 0.1-0.4 0.09l-0.3-0.01v0.49l-0.2-0.01zm0.2-0.63l0.3 0.02c0.1 0 0.2-0.01 0.3-0.05v-0.29c0-0.04 0-0.06-0.1-0.08l-0.1-0.01-0.3-0.02-0.1 0.43z"/>
        <path id="path11300" d="m1123.7 565.69l0.5-1.19 0.2 0.01 0.5 1.22-0.2-0.01-0.1-0.37-0.5-0.02-0.2 0.36h-0.2zm0.4-0.49l0.4 0.02-0.1-0.34c0-0.1-0.1-0.18-0.1-0.25v0.23l-0.2 0.34z"/>
        <path id="path11302" d="m1125.6 565.29v-0.15l0.5 0.02v0.45c-0.1 0.06-0.2 0.1-0.3 0.13 0 0.03-0.1 0.04-0.2 0.04s-0.2-0.03-0.3-0.09c-0.1-0.05-0.2-0.13-0.3-0.23v-0.32c0-0.12 0-0.23 0.1-0.33 0-0.1 0.1-0.17 0.2-0.22 0.1-0.04 0.2-0.06 0.3-0.06 0.1 0.01 0.2 0.02 0.2 0.05 0.1 0.03 0.2 0.08 0.2 0.13s0.1 0.12 0.1 0.2l-0.2 0.03v-0.14c0-0.04-0.1-0.07-0.1-0.09-0.1-0.03-0.1-0.04-0.2-0.04s-0.1 0-0.2 0.03c0 0.02-0.1 0.04-0.1 0.08-0.1 0.03-0.1 0.07-0.1 0.11 0 0.08 0 0.16-0.1 0.25 0 0.1 0.1 0.19 0.1 0.27 0 0.07 0.1 0.13 0.1 0.16 0.1 0.04 0.2 0.06 0.3 0.07 0 0 0.1-0.01 0.2-0.04 0-0.02 0.1-0.05 0.1-0.08v-0.22l-0.3-0.01z"/>
        <path id="path11304" d="m1126.3 565.79v-1.21h0.2l0.6 0.97v-0.95l0.2 0.01v1.21l-0.2-0.01-0.6-0.97v0.95h-0.2z"/>
        <path id="path11306" d="m1127.5 565.82l0.1-1.2 0.8 0.02v0.14l-0.7-0.02v0.37l0.7 0.02v0.14l-0.7-0.02v0.42l0.7 0.02v0.14l-0.9-0.03z"/>
        <path id="path11308" d="m1129.1 565.86v-1.2h0.3l0.2 0.86c0.1 0.08 0.1 0.14 0.1 0.18 0-0.04 0-0.11 0.1-0.19l0.3-0.84 0.2 0.01v1.21l-0.2-0.01v-1.01l-0.3 1.01-0.2-0.01-0.3-1.03v1.03l-0.2-0.01z"/>
        <path id="path11310" d="m1130.4 565.89l0.5-1.2h0.1l0.5 1.21h-0.2l-0.1-0.37h-0.5l-0.1 0.36h-0.2zm0.3-0.49h0.5l-0.2-0.33c0-0.11 0-0.19-0.1-0.25v0.22l-0.2 0.36z"/>
        <path id="path11312" d="m1132 565.91v-1.07h-0.4v-0.14l0.9 0.01v0.14l-0.4-0.01v1.07h-0.1z"/>
        <path id="path11314" d="m1132.7 565.91v-1.2h0.2v0.49l0.6 0.01v-0.5h0.1v1.21h-0.1v-0.57h-0.7v0.56h-0.1z"/>
        <path id="path11316" d="m1133.9 565.92v-1.21h0.2v1.21h-0.2z"/>
        <path id="path11318" d="m1134.4 565.92v-1.21h0.8v0.14h-0.7v0.37h0.7v0.14l-0.7 0.01v0.41l0.8-0.01v0.15h-0.9z"/>
        <path id="path11320" d="m1136.6 565.76c0 0.06-0.1 0.1-0.1 0.13-0.1 0.03-0.1 0.04-0.2 0.04s-0.2-0.04-0.3-0.12c-0.1-0.07-0.1-0.15-0.1-0.23 0-0.07 0-0.14 0.1-0.2 0-0.06 0.1-0.12 0.2-0.16-0.1-0.07-0.1-0.12-0.1-0.15 0-0.04-0.1-0.08-0.1-0.12 0-0.07 0.1-0.13 0.1-0.19 0.1-0.05 0.2-0.08 0.2-0.08 0.1 0 0.2 0.02 0.2 0.07 0.1 0.05 0.1 0.12 0.1 0.19 0 0.11 0 0.21-0.2 0.29l0.2 0.28c0-0.05 0.1-0.11 0.1-0.17l0.1 0.03c0 0.1 0 0.19-0.1 0.26 0.1 0.07 0.1 0.13 0.2 0.18l-0.1 0.12c0-0.04-0.1-0.09-0.2-0.17zm-0.3-0.62c0.1-0.04 0.1-0.07 0.1-0.1 0.1-0.03 0.1-0.06 0.1-0.1s0-0.07-0.1-0.1c0-0.02 0-0.04-0.1-0.04 0 0 0 0.02-0.1 0.04v0.16c0 0.02 0 0.04 0.1 0.06v0.08zm0.2 0.51l-0.2-0.34c-0.1 0.05-0.2 0.1-0.2 0.14v0.27c0.1 0.05 0.1 0.08 0.2 0.08 0 0 0.1-0.02 0.1-0.04 0.1-0.03 0.1-0.07 0.1-0.11z"/>
        <path id="path11322" d="m1138.4 565.46l0.2 0.04c-0.1 0.13-0.1 0.23-0.2 0.3s-0.2 0.11-0.3 0.11c-0.2 0-0.3-0.02-0.3-0.08-0.1-0.05-0.2-0.12-0.2-0.22-0.1-0.1-0.1-0.21-0.1-0.33s0-0.23 0.1-0.33c0-0.09 0.1-0.16 0.2-0.21s0.2-0.08 0.3-0.08 0.2 0.03 0.3 0.09c0 0.06 0.1 0.14 0.1 0.25l-0.1 0.04c0-0.08-0.1-0.15-0.1-0.19-0.1-0.04-0.2-0.05-0.2-0.05-0.1 0-0.2 0.02-0.3 0.07 0 0.04-0.1 0.1-0.1 0.18v0.5c0 0.07 0.1 0.13 0.2 0.17 0 0.03 0.1 0.05 0.2 0.05 0 0 0.1-0.03 0.2-0.08 0-0.05 0.1-0.13 0.1-0.23z"/>
        <path id="path11324" d="m1138.8 565.88l-0.1-1.21h0.2v1.06l0.6-0.01v0.14l-0.7 0.02z"/>
        <path id="path11326" d="m1139.6 565.86l0.4-1.22h0.2l0.5 1.19-0.2 0.01-0.1-0.37-0.5 0.02-0.2 0.37h-0.1zm0.3-0.5l0.4-0.01-0.1-0.34c-0.1-0.1-0.1-0.18-0.1-0.24 0 0.07 0 0.15-0.1 0.23l-0.1 0.36z"/>
        <path id="path11328" d="m1141.6 564.6l0.2-0.01v0.7c0 0.12 0 0.22-0.1 0.29 0 0.07 0 0.13-0.1 0.18s-0.2 0.07-0.3 0.07c-0.1 0.01-0.2-0.01-0.3-0.05 0-0.03-0.1-0.09-0.1-0.16-0.1-0.07-0.1-0.17-0.1-0.3v-0.7h0.2v0.92c0 0.05 0.1 0.09 0.1 0.12 0.1 0.02 0.1 0.03 0.2 0.03s0.2-0.03 0.2-0.09c0.1-0.05 0.1-0.15 0.1-0.31v-0.69z"/>
        <path id="path11330" d="m1142.1 565.79l-0.1-1.2 0.4-0.02c0.1 0 0.2 0 0.2 0.01 0.1 0.02 0.2 0.04 0.2 0.08 0.1 0.05 0.1 0.12 0.2 0.2v0.53c0 0.07 0 0.13-0.1 0.18 0 0.05 0 0.09-0.1 0.12 0 0.02-0.1 0.04-0.1 0.06-0.1 0.02-0.1 0.03-0.2 0.03l-0.4 0.01zm0.1-0.15h0.3c0-0.01 0.1-0.02 0.2-0.03 0-0.02 0-0.04 0.1-0.07v-0.15c0.1-0.07 0.1-0.15 0.1-0.24 0-0.12-0.1-0.22-0.1-0.29 0-0.06-0.1-0.11-0.2-0.13 0-0.01-0.1-0.02-0.2-0.02l-0.2 0.01v0.92z"/>
        <path id="path11332" d="m1143.3 565.75v-1.21h0.1l0.1 1.2-0.2 0.01z"/>
        <path id="path11334" d="m1143.7 565.73v-1.2l0.2-0.01 0.6 0.92v-0.95h0.1l0.1 1.2-0.2 0.01-0.6-0.92v0.95h-0.2z"/>
        <path id="path11336" d="m1145 565.68l-0.1-1.2 0.9-0.04v0.14l-0.7 0.03v0.37l0.7-0.03v0.14l-0.7 0.03v0.41l0.8-0.03v0.14l-0.9 0.04z"/>
        <path id="path11338" d="m1146.1 565.63v-0.17l0.2-0.01v0.17c0 0.06 0 0.11-0.1 0.15 0 0.04 0 0.07-0.1 0.1v-0.06c0-0.02 0.1-0.04 0.1-0.07v-0.11h-0.1z"/>
        <path id="path11340" d="m1147.6 565.08l-0.1-0.14 0.6-0.03v0.45c-0.1 0.07-0.2 0.12-0.3 0.15 0 0.04-0.1 0.06-0.2 0.06-0.1 0.01-0.2-0.01-0.3-0.05-0.1-0.05-0.2-0.12-0.3-0.21 0-0.1-0.1-0.2-0.1-0.32s0.1-0.23 0.1-0.33c0-0.11 0.1-0.19 0.2-0.24 0.1-0.06 0.2-0.09 0.3-0.09 0.1-0.01 0.2 0 0.3 0.03 0 0.02 0.1 0.06 0.1 0.11 0.1 0.04 0.1 0.11 0.1 0.19l-0.1 0.05c0-0.06-0.1-0.11-0.1-0.14 0-0.04-0.1-0.06-0.1-0.08-0.1-0.02-0.1-0.03-0.2-0.03-0.1 0.01-0.1 0.02-0.2 0.05 0 0.02-0.1 0.05-0.1 0.09s0 0.08-0.1 0.13v0.24c0 0.11 0 0.2 0.1 0.27 0 0.07 0.1 0.12 0.1 0.15 0.1 0.03 0.2 0.04 0.3 0.04 0 0 0.1-0.02 0.2-0.05 0-0.03 0.1-0.06 0.1-0.09v-0.23l-0.3 0.02z"/>
        <path id="path11342" d="m1149 564.26l0.2-0.01v0.7c0.1 0.12 0 0.22 0 0.29s0 0.13-0.1 0.18-0.2 0.08-0.3 0.09c-0.1 0-0.2-0.01-0.3-0.05 0-0.03-0.1-0.08-0.1-0.16-0.1-0.07-0.1-0.17-0.1-0.3v-0.69l0.1-0.01 0.1 0.69v0.23c0 0.05 0.1 0.09 0.1 0.11 0.1 0.03 0.1 0.04 0.2 0.03 0.1 0 0.2-0.04 0.2-0.09 0.1-0.06 0.1-0.16 0.1-0.31l-0.1-0.7z"/>
        <path id="path11344" d="m1149.6 565.44l-0.1-1.21 0.2-0.01v1.21l-0.1 0.01z"/>
        <path id="path11346" d="m1150 565.41l-0.1-1.2 0.2-0.01 0.1 1.06 0.5-0.04 0.1 0.14-0.8 0.05z"/>
        <path id="path11348" d="m1151 565.35l-0.1-1.2 0.1-0.01 0.1 0.49 0.6-0.04v-0.5l0.1-0.01 0.1 1.21-0.2 0.01v-0.57l-0.6 0.04v0.57l-0.1 0.01z"/>
        <path id="path11350" d="m1152.2 565.27l-0.1-1.21 0.8-0.06 0.1 0.14-0.8 0.05 0.1 0.37 0.6-0.05v0.14l-0.6 0.05v0.41l0.8-0.05v0.14l-0.9 0.07z"/>
        <path id="path11352" d="m1153.3 565.18l-0.1-1.2 0.5-0.04c0.1-0.01 0.2 0 0.3 0.01 0 0.02 0.1 0.05 0.1 0.11 0.1 0.05 0.1 0.11 0.1 0.17 0 0.09 0 0.16-0.1 0.23 0 0.06-0.1 0.1-0.2 0.13 0 0.02 0 0.03 0.1 0.05 0 0.04 0.1 0.09 0.1 0.15l0.2 0.31-0.2 0.02-0.1-0.24c-0.1-0.07-0.1-0.12-0.2-0.16v-0.07c-0.1-0.02-0.1-0.02-0.1-0.03h-0.1l-0.2 0.02v0.53l-0.1 0.01zm0.1-0.68l0.3-0.03c0.1 0 0.2-0.01 0.2-0.03s0.1-0.05 0.1-0.08v-0.11c0-0.06 0-0.1-0.1-0.14 0-0.03-0.1-0.05-0.2-0.04l-0.3 0.03v0.4z"/>
        <path id="path11354" d="m1154.4 565.1l0.3-1.24 0.2-0.01 0.6 1.16-0.2 0.01-0.2-0.35-0.5 0.04-0.1 0.38-0.1 0.01zm0.3-0.52l0.4-0.04-0.2-0.32c0-0.1-0.1-0.18-0.1-0.24v0.23l-0.1 0.37z"/>
        <path id="path11356" d="m1155.6 565l-0.1-1.2 0.2-0.02 0.7 0.89-0.1-0.94 0.2-0.02 0.1 1.21-0.2 0.01-0.7-0.89 0.1 0.94-0.2 0.02z"/>
        <path id="path11358" d="m1156.8 564.89l-0.1-1.2 0.4-0.04c0.1 0 0.2-0.01 0.3 0 0 0.01 0.1 0.03 0.1 0.07 0.1 0.05 0.2 0.11 0.2 0.19s0.1 0.18 0.1 0.29v0.24c0 0.07-0.1 0.13-0.1 0.18s-0.1 0.09-0.1 0.12-0.1 0.06-0.1 0.08c-0.1 0.01-0.2 0.03-0.2 0.03l-0.5 0.04zm0.2-0.15l0.2-0.03c0.1 0 0.2-0.02 0.2-0.04 0.1-0.01 0.1-0.04 0.1-0.07 0.1-0.04 0.1-0.09 0.1-0.16v-0.23c0-0.13 0-0.22-0.1-0.29 0-0.06-0.1-0.1-0.1-0.12-0.1-0.01-0.2-0.01-0.2 0l-0.3 0.02 0.1 0.92z"/>
        <path id="path11360" d="m1158.1 564.78v-0.17l0.1-0.01v0.32c0 0.04 0 0.07-0.1 0.1v-0.13c0.1-0.03 0.1-0.07 0.1-0.12l-0.1 0.01z"/>
        <path id="path11362" d="m1159 564.69l-0.1-1.2 0.8-0.08v0.15l-0.7 0.06 0.1 0.37 0.5-0.05 0.1 0.14-0.6 0.05v0.55l-0.1 0.01z"/>
        <path id="path11364" d="m1160 564.59l-0.1-1.2 0.5-0.05c0.1-0.01 0.2-0.01 0.3 0.01 0 0.01 0.1 0.05 0.1 0.1 0.1 0.05 0.1 0.11 0.1 0.17 0 0.09 0 0.16-0.1 0.23 0 0.06-0.1 0.11-0.2 0.14 0 0.01 0.1 0.03 0.1 0.05 0 0.03 0.1 0.08 0.1 0.14l0.3 0.31-0.2 0.02-0.2-0.24c-0.1-0.06-0.1-0.11-0.1-0.15-0.1-0.04-0.1-0.06-0.1-0.07-0.1-0.01-0.1-0.02-0.1-0.03 0 0-0.1 0-0.1 0.01l-0.2 0.02 0.1 0.53-0.2 0.01zm0.1-0.68l0.3-0.04c0.1 0 0.2-0.02 0.2-0.04s0.1-0.04 0.1-0.08v-0.11c0-0.06 0-0.1-0.1-0.13 0-0.04-0.1-0.05-0.2-0.04l-0.3 0.04v0.4z"/>
        <path id="path11366" d="m1161.1 564.48l0.3-1.24 0.2-0.02 0.6 1.15-0.2 0.02-0.1-0.35-0.5 0.05-0.1 0.38-0.2 0.01zm0.3-0.52l0.4-0.05-0.2-0.32c0-0.09-0.1-0.17-0.1-0.24v0.24l-0.1 0.37z"/>
        <path id="path11368" d="m1162.3 564.35l-0.1-1.2 0.2-0.01 0.7 0.87-0.1-0.94 0.2-0.02 0.1 1.2-0.2 0.02-0.7-0.88 0.1 0.95-0.2 0.01z"/>
        <path id="path11370" d="m1164.4 563.7l0.1 0.03c0 0.13 0 0.24-0.1 0.31-0.1 0.08-0.2 0.13-0.3 0.14-0.2 0.02-0.3 0-0.4-0.04 0-0.04-0.1-0.11-0.2-0.21 0-0.09-0.1-0.2-0.1-0.31 0-0.13 0-0.24 0.1-0.34 0-0.1 0.1-0.17 0.2-0.23 0-0.06 0.1-0.1 0.2-0.11 0.2-0.01 0.3 0.01 0.3 0.06 0.1 0.05 0.2 0.13 0.2 0.24l-0.1 0.05c0-0.08-0.1-0.14-0.1-0.18-0.1-0.03-0.2-0.04-0.3-0.03 0 0.01-0.1 0.04-0.2 0.09 0 0.05-0.1 0.12-0.1 0.19v0.24c0 0.1 0 0.19 0.1 0.26 0 0.07 0.1 0.12 0.1 0.15 0.1 0.04 0.2 0.05 0.2 0.04 0.1-0.01 0.2-0.05 0.3-0.1 0-0.06 0-0.14 0.1-0.25z"/>
        <path id="path11372" d="m1164.8 564.08l-0.2-1.2 0.9-0.1v0.14l-0.7 0.09v0.36l0.7-0.07v0.14l-0.6 0.07v0.41l0.7-0.08 0.1 0.14-0.9 0.1z"/>
      </g>
    </g>
  </g>
  <metadata>
    <rdf:RDF>
      <cc:Work>
        <dc:format>image/svg+xml</dc:format>
        <dc:type rdf:resource="http://purl.org/dc/dcmitype/StillImage"/>
        <cc:license rdf:resource="http://creativecommons.org/licenses/publicdomain/"/>
        <dc:publisher>
          <cc:Agent rdf:about="http://openclipart.org/">
            <dc:title>Openclipart</dc:title>
          </cc:Agent>
        </dc:publisher>
      </cc:Work>
      <cc:License rdf:about="http://creativecommons.org/licenses/publicdomain/">
        <cc:permits rdf:resource="http://creativecommons.org/ns#Reproduction"/>
        <cc:permits rdf:resource="http://creativecommons.org/ns#Distribution"/>
        <cc:permits rdf:resource="http://creativecommons.org/ns#DerivativeWorks"/>
      </cc:License>
    </rdf:RDF>
  </metadata>
</svg>
