<?xml version="1.0"?>
<svg xmlns:rdf="http://www.w3.org/1999/02/22-rdf-syntax-ns#" xmlns="http://www.w3.org/2000/svg" xmlns:cc="http://web.resource.org/cc/" xmlns:dc="http://purl.org/dc/elements/1.1/" id="svg2" viewBox="0 0 285.63 391.28" version="1.0">
  <defs id="defs4">
    <filter id="filter6237">
      <feGaussianBlur id="feGaussianBlur6239" stdDeviation="22.294646"/>
    </filter>
  </defs>
  <g id="layer1" transform="translate(-9.0741 -28.771)" fill-rule="evenodd">
    <path id="path4257" filter="url(#filter6237)" transform="matrix(.38880 0 0 .38880 78.141 62.175)" fill="#ffd5d5" d="m141.51-62.728c-162.8 21.383-323.17 154.18-301.97 276.85 21.19 122.66 80.707 262.21 94.714 353.93 44.828 293.54 95.265 311.97 247.21 323.19 144.99 10.72 255.65-2.43 294.47-48.2 38.83-45.77-34.78-227.39-14.25-324.86 44.64-211.95 90.59-337.05 73.52-454.09s-389.75-127.55-393.69-126.82z"/>
    <g id="g3168" transform="matrix(.38803 .024348 -.024348 .38803 94.981 50.366)">
      <path id="path2160" fill="#f6fdff" d="m189.12 125.49c-2.16-29.669 217.58-35.398 214.96 0.81-24.71 309.3-54.35 400.63-86.02 410.31 0 0-5.93 142.54-2.59 215.61 2.7 59.08 102.37 66.74 102.37 78.89s-246.86 15.07-246.86 0c0-15.06 111.28-21.71 114.03-78.56 3.25-66.98 1.79-218.53 1.79-218.53-24.6 1.32-64.95-109.31-97.68-408.53z"/>
      <path id="path2162" fill="#d7eef4" d="m209.03 829.45c3.61-9.08 44.27-14.21 53.75-20.88s25.89-39.29 32.13-37.17c2.99 1.02-19.94 28.09-17.04 36.74 6.32 18.83 58.52 16.39 54.81 25.55-48.99 0.88-82.01 0-123.65-4.24z"/>
      <path id="path2166" fill="#fbf3c9" d="m298.7 235.5c-29.25-0.04-45.47 2.52-77.12 12.53 6.52 74.04 20.84 124.11 37.14 186.85 8.43 32.46 16.64 55.41 23.37 68.81 3.32 6.6 5.88 11.63 7.85 12.34 5.28 1.9 10.34 8.8 13.25 9.97 2 0.8 5.68-5.69 9.53-6.88 0.48-0.14 5.76-3.17 12.28-16.28s13.77-34.75 20.81-66.03c13.66-60.66 21.08-99.02 26.04-188.77-27.27-10.09-44.04-12.5-73.15-12.54z"/>
      <path id="path2169" fill="#d7eef4" d="m388.35 130.28a91.792 20.824 0 1 1 -183.58 0 91.792 20.824 0 1 1 183.58 0z"/>
      <path id="path3174" transform="translate(.97742 120.9)" fill="#fff8ab" d="m370.76 130.28a74.199 15.511 0 1 1 -148.4 0 74.199 15.511 0 1 1 148.4 0z"/>
      <path id="path4147" transform="translate(477.57 -88.819)" fill="#fff" d="m-179.71 539.32a8.4144 8.4144 0 1 1 -16.83 0 8.4144 8.4144 0 1 1 16.83 0z"/>
      <path id="path4149" transform="translate(469.76 -137.01)" fill="#fff" d="m-179.71 539.32a8.4144 8.4144 0 1 1 -16.83 0 8.4144 8.4144 0 1 1 16.83 0z"/>
      <path id="path4151" transform="translate(473.32 -195.15)" fill="#fff" d="m-179.71 539.32a8.4144 8.4144 0 1 1 -16.83 0 8.4144 8.4144 0 1 1 16.83 0z"/>
      <path id="path4153" transform="translate(447.91 -245.89)" fill="#fff" d="m-179.71 539.32a8.4144 8.4144 0 1 1 -16.83 0 8.4144 8.4144 0 1 1 16.83 0z"/>
      <path id="path4155" transform="matrix(.71717 0 0 .71717 390.79 -20.683)" fill="#fff" d="m-179.71 539.32a8.4144 8.4144 0 1 1 -16.83 0 8.4144 8.4144 0 1 1 16.83 0z"/>
      <path id="path4157" transform="matrix(.71717 0 0 .71717 421.9 -81.454)" fill="#fff" d="m-179.71 539.32a8.4144 8.4144 0 1 1 -16.83 0 8.4144 8.4144 0 1 1 16.83 0z"/>
      <path id="path4159" transform="matrix(.71717 0 0 .71717 393.85 -61.48)" fill="#fff" d="m-179.71 539.32a8.4144 8.4144 0 1 1 -16.83 0 8.4144 8.4144 0 1 1 16.83 0z"/>
      <path id="path4161" transform="matrix(.71717 0 0 .71717 409.49 32.353)" fill="#fff" d="m-179.71 539.32a8.4144 8.4144 0 1 1 -16.83 0 8.4144 8.4144 0 1 1 16.83 0z"/>
      <path id="path4163" transform="matrix(.29546 0 0 .29546 338.34 316.42)" fill="#fff" d="m-179.71 539.32a8.4144 8.4144 0 1 1 -16.83 0 8.4144 8.4144 0 1 1 16.83 0z"/>
      <path id="path4165" transform="matrix(.29546 0 0 .29546 331.92 279.23)" fill="#fff" d="m-179.71 539.32a8.4144 8.4144 0 1 1 -16.83 0 8.4144 8.4144 0 1 1 16.83 0z"/>
      <path id="path4167" transform="matrix(.29546 0 0 .29546 356.82 260.7)" fill="#fff" d="m-179.71 539.32a8.4144 8.4144 0 1 1 -16.83 0 8.4144 8.4144 0 1 1 16.83 0z"/>
      <path id="path4169" transform="matrix(.29546 0 0 .29546 344.33 211.87)" fill="#fff" d="m-179.71 539.32a8.4144 8.4144 0 1 1 -16.83 0 8.4144 8.4144 0 1 1 16.83 0z"/>
      <path id="path4171" transform="matrix(.29546 0 0 .29546 323 186.93)" fill="#fff" d="m-179.71 539.32a8.4144 8.4144 0 1 1 -16.83 0 8.4144 8.4144 0 1 1 16.83 0z"/>
      <path id="path4173" transform="matrix(.29546 0 0 .29546 300.6 126.12)" fill="#fff" d="m-179.71 539.32a8.4144 8.4144 0 1 1 -16.83 0 8.4144 8.4144 0 1 1 16.83 0z"/>
      <path id="path4175" transform="matrix(.29546 0 0 .29546 338.72 122.42)" fill="#fff" d="m-179.71 539.32a8.4144 8.4144 0 1 1 -16.83 0 8.4144 8.4144 0 1 1 16.83 0z"/>
      <path id="path4177" transform="matrix(.29546 0 0 .29546 331.45 166.02)" fill="#fff" d="m-179.71 539.32a8.4144 8.4144 0 1 1 -16.83 0 8.4144 8.4144 0 1 1 16.83 0z"/>
      <path id="path4179" transform="matrix(.29546 0 0 .29546 312.67 149.06)" fill="#fff" d="m-179.71 539.32a8.4144 8.4144 0 1 1 -16.83 0 8.4144 8.4144 0 1 1 16.83 0z"/>
      <path id="path4181" transform="matrix(.29546 0 0 .29546 351.55 336.18)" fill="#fff" d="m-179.71 539.32a8.4144 8.4144 0 1 1 -16.83 0 8.4144 8.4144 0 1 1 16.83 0z"/>
      <path id="path4183" transform="matrix(.29546 0 0 .29546 351 312.42)" fill="#fff" d="m-179.71 539.32a8.4144 8.4144 0 1 1 -16.83 0 8.4144 8.4144 0 1 1 16.83 0z"/>
      <path id="path4185" transform="matrix(.29546 0 0 .29546 319.09 221.35)" fill="#fff" d="m-179.71 539.32a8.4144 8.4144 0 1 1 -16.83 0 8.4144 8.4144 0 1 1 16.83 0z"/>
      <path id="path4187" transform="matrix(.29546 0 0 .29546 318.49 233.34)" fill="#fff" d="m-179.71 539.32a8.4144 8.4144 0 1 1 -16.83 0 8.4144 8.4144 0 1 1 16.83 0z"/>
      <path id="path4189" transform="matrix(.29546 0 0 .29546 332.18 216.51)" fill="#fff" d="m-179.71 539.32a8.4144 8.4144 0 1 1 -16.83 0 8.4144 8.4144 0 1 1 16.83 0z"/>
      <path id="path4191" transform="matrix(.29546 0 0 .29546 309.14 180.64)" fill="#fff" d="m-179.71 539.32a8.4144 8.4144 0 1 1 -16.83 0 8.4144 8.4144 0 1 1 16.83 0z"/>
      <path id="path4193" transform="matrix(.29546 0 0 .29546 343.35 269.54)" fill="#fff" d="m-179.71 539.32a8.4144 8.4144 0 1 1 -16.83 0 8.4144 8.4144 0 1 1 16.83 0z"/>
    </g>
    <g id="g4195" transform="matrix(.29620 -.048879 .048879 .29620 -1.9837 114.02)">
      <path id="path4197" fill="#f6fdff" d="m189.12 125.49c-2.16-29.669 217.58-35.398 214.96 0.81-24.71 309.3-54.35 400.63-86.02 410.31 0 0-5.93 142.54-2.59 215.61 2.7 59.08 102.37 66.74 102.37 78.89s-246.86 15.07-246.86 0c0-15.06 111.28-21.71 114.03-78.56 3.25-66.98 1.79-218.53 1.79-218.53-24.6 1.32-64.95-109.31-97.68-408.53z"/>
      <path id="path4199" fill="#d7eef4" d="m209.03 829.45c3.61-9.08 44.27-14.21 53.75-20.88s25.89-39.29 32.13-37.17c2.99 1.02-19.94 28.09-17.04 36.74 6.32 18.83 58.52 16.39 54.81 25.55-48.99 0.88-82.01 0-123.65-4.24z"/>
      <path id="path4201" fill="#fbf3c9" d="m298.7 235.5c-28.68-5.71-45.64-7.42-77.3 2.59 6.53 74.04 21.02 134.05 37.32 196.79 8.43 32.46 16.64 55.41 23.37 68.81 3.32 6.6 5.88 11.63 7.85 12.34 5.28 1.9 10.34 8.8 13.25 9.97 2 0.8 5.68-5.69 9.53-6.88 0.48-0.14 5.76-3.17 12.28-16.28s13.77-34.75 20.81-66.03c13.66-60.66 20.33-87.79 25.3-177.53-27.27-10.1-43.44-18.02-72.41-23.78z"/>
      <path id="path4203" fill="#d7eef4" d="m388.35 130.28a91.792 20.824 0 1 1 -183.58 0 91.792 20.824 0 1 1 183.58 0z"/>
      <path id="path4205" transform="matrix(.98952 .14443 -.14443 .98952 22.903 79.438)" fill="#fff8ab" d="m370.76 130.28a74.199 15.511 0 1 1 -148.4 0 74.199 15.511 0 1 1 148.4 0z"/>
      <path id="path4207" transform="translate(470.39 -81.664)" fill="#fff" d="m-179.71 539.32a8.4144 8.4144 0 1 1 -16.83 0 8.4144 8.4144 0 1 1 16.83 0z"/>
      <path id="path4209" transform="translate(482.3 -147.93)" fill="#fff" d="m-179.71 539.32a8.4144 8.4144 0 1 1 -16.83 0 8.4144 8.4144 0 1 1 16.83 0z"/>
      <path id="path4211" transform="translate(480.95 -211.34)" fill="#fff" d="m-179.71 539.32a8.4144 8.4144 0 1 1 -16.83 0 8.4144 8.4144 0 1 1 16.83 0z"/>
      <path id="path4213" transform="translate(458.73 -251.18)" fill="#fff" d="m-179.71 539.32a8.4144 8.4144 0 1 1 -16.83 0 8.4144 8.4144 0 1 1 16.83 0z"/>
      <path id="path4215" transform="matrix(.71717 0 0 .71717 404.81 -15.569)" fill="#fff" d="m-179.71 539.32a8.4144 8.4144 0 1 1 -16.83 0 8.4144 8.4144 0 1 1 16.83 0z"/>
      <path id="path4217" transform="matrix(.71717 0 0 .71717 434.62 -90.25)" fill="#fff" d="m-179.71 539.32a8.4144 8.4144 0 1 1 -16.83 0 8.4144 8.4144 0 1 1 16.83 0z"/>
      <path id="path4219" transform="matrix(.71717 0 0 .71717 416.1 -78.059)" fill="#fff" d="m-179.71 539.32a8.4144 8.4144 0 1 1 -16.83 0 8.4144 8.4144 0 1 1 16.83 0z"/>
      <path id="path4221" transform="matrix(.71717 0 0 .71717 406.32 21.581)" fill="#fff" d="m-179.71 539.32a8.4144 8.4144 0 1 1 -16.83 0 8.4144 8.4144 0 1 1 16.83 0z"/>
      <path id="path4223" transform="matrix(.29546 0 0 .29546 338.34 316.42)" fill="#fff" d="m-179.71 539.32a8.4144 8.4144 0 1 1 -16.83 0 8.4144 8.4144 0 1 1 16.83 0z"/>
      <path id="path4225" transform="matrix(.29546 0 0 .29546 331.92 279.23)" fill="#fff" d="m-179.71 539.32a8.4144 8.4144 0 1 1 -16.83 0 8.4144 8.4144 0 1 1 16.83 0z"/>
      <path id="path4227" transform="matrix(.29546 0 0 .29546 349.36 283.01)" fill="#fff" d="m-179.71 539.32a8.4144 8.4144 0 1 1 -16.83 0 8.4144 8.4144 0 1 1 16.83 0z"/>
      <path id="path4229" transform="matrix(.29546 0 0 .29546 344.33 211.87)" fill="#fff" d="m-179.71 539.32a8.4144 8.4144 0 1 1 -16.83 0 8.4144 8.4144 0 1 1 16.83 0z"/>
      <path id="path4231" transform="matrix(.29546 0 0 .29546 336.37 186.09)" fill="#fff" d="m-179.71 539.32a8.4144 8.4144 0 1 1 -16.83 0 8.4144 8.4144 0 1 1 16.83 0z"/>
      <path id="path4233" transform="matrix(.29546 0 0 .29546 347.2 193.79)" fill="#fff" d="m-179.71 539.32a8.4144 8.4144 0 1 1 -16.83 0 8.4144 8.4144 0 1 1 16.83 0z"/>
      <path id="path4235" transform="matrix(.29546 0 0 .29546 338.72 122.42)" fill="#fff" d="m-179.71 539.32a8.4144 8.4144 0 1 1 -16.83 0 8.4144 8.4144 0 1 1 16.83 0z"/>
      <path id="path4237" transform="matrix(.29546 0 0 .29546 328.98 181.03)" fill="#fff" d="m-179.71 539.32a8.4144 8.4144 0 1 1 -16.83 0 8.4144 8.4144 0 1 1 16.83 0z"/>
      <path id="path4239" transform="matrix(.29546 0 0 .29546 312.67 149.06)" fill="#fff" d="m-179.71 539.32a8.4144 8.4144 0 1 1 -16.83 0 8.4144 8.4144 0 1 1 16.83 0z"/>
      <path id="path4241" transform="matrix(.29546 0 0 .29546 351.55 336.18)" fill="#fff" d="m-179.71 539.32a8.4144 8.4144 0 1 1 -16.83 0 8.4144 8.4144 0 1 1 16.83 0z"/>
      <path id="path4243" transform="matrix(.29546 0 0 .29546 351 312.42)" fill="#fff" d="m-179.71 539.32a8.4144 8.4144 0 1 1 -16.83 0 8.4144 8.4144 0 1 1 16.83 0z"/>
      <path id="path4245" transform="matrix(.29546 0 0 .29546 343.9 255.08)" fill="#fff" d="m-179.71 539.32a8.4144 8.4144 0 1 1 -16.83 0 8.4144 8.4144 0 1 1 16.83 0z"/>
      <path id="path4247" transform="matrix(.29546 0 0 .29546 324.69 229.34)" fill="#fff" d="m-179.71 539.32a8.4144 8.4144 0 1 1 -16.83 0 8.4144 8.4144 0 1 1 16.83 0z"/>
      <path id="path4249" transform="matrix(.29546 0 0 .29546 331.62 197.49)" fill="#fff" d="m-179.71 539.32a8.4144 8.4144 0 1 1 -16.83 0 8.4144 8.4144 0 1 1 16.83 0z"/>
      <path id="path4251" transform="matrix(.29546 0 0 .29546 324.97 170.14)" fill="#fff" d="m-179.71 539.32a8.4144 8.4144 0 1 1 -16.83 0 8.4144 8.4144 0 1 1 16.83 0z"/>
      <path id="path4253" transform="matrix(.29546 0 0 .29546 343.35 269.54)" fill="#fff" d="m-179.71 539.32a8.4144 8.4144 0 1 1 -16.83 0 8.4144 8.4144 0 1 1 16.83 0z"/>
      <path id="path4255" d="m134.37 71.475l10.73 39.695-17.13-37.385-5.27 40.775-1.51-41.087-20.48 35.657 14.32-38.543-32.562 25.106 27.982-30.127-39.691 10.734 37.381-17.125-40.777-5.274 41.087-1.516-35.653-20.477 38.543 14.324-25.107-32.564 30.127 27.984-10.73-39.693 17.12 37.383 5.28-40.779 1.51 41.09 20.48-35.656-14.33 38.542 32.57-25.106-27.99 30.127 39.7-10.733-37.39 17.125 40.78 5.273-41.09 1.516 35.66 20.478-38.54-14.325 25.1 32.564-30.12-27.983z" fill="#fff" transform="matrix(1.2778 .21087 -.21087 1.2778 291.46 -126.92)"/>
    </g>
  </g>
  <metadata>
    <rdf:RDF>
      <cc:Work>
        <dc:format>image/svg+xml</dc:format>
        <dc:type rdf:resource="http://purl.org/dc/dcmitype/StillImage"/>
        <cc:license rdf:resource="http://creativecommons.org/licenses/publicdomain/"/>
        <dc:publisher>
          <cc:Agent rdf:about="http://openclipart.org/">
            <dc:title>Openclipart</dc:title>
          </cc:Agent>
        </dc:publisher>
      </cc:Work>
      <cc:License rdf:about="http://creativecommons.org/licenses/publicdomain/">
        <cc:permits rdf:resource="http://creativecommons.org/ns#Reproduction"/>
        <cc:permits rdf:resource="http://creativecommons.org/ns#Distribution"/>
        <cc:permits rdf:resource="http://creativecommons.org/ns#DerivativeWorks"/>
      </cc:License>
    </rdf:RDF>
  </metadata>
</svg>
